<?xml version="1.0" encoding="UTF-8" standalone="no"?>
<!DOCTYPE svg PUBLIC "-//W3C//DTD SVG 1.1//EN"
 "http://www.w3.org/Graphics/SVG/1.1/DTD/svg11.dtd">
<!-- Generated by graphviz version 2.40.1 (20161225.0304)
 -->
<!-- Title: HoTT_Homotopy_SuccessorStructure Pages: 1 -->
<svg width="1373pt" height="690pt"
 viewBox="0.00 0.00 1373.00 690.50" xmlns="http://www.w3.org/2000/svg" xmlns:xlink="http://www.w3.org/1999/xlink">
<g id="graph0" class="graph" transform="scale(1 1) rotate(0) translate(4 686.5)">
<title>HoTT_Homotopy_SuccessorStructure</title>
<polygon fill="#ffffff" stroke="transparent" points="-4,4 -4,-686.5 1369,-686.5 1369,4 -4,4"/>
<g id="clust1" class="cluster">
<title>cluster_SuccessorStructure</title>
<polygon fill="#ffffc3" stroke="#000000" points="8,-15.3803 8,-667.1197 1357,-667.1197 1357,-15.3803 8,-15.3803"/>
<text text-anchor="middle" x="88" y="-651.9197" font-family="Times,serif" font-size="14.00" fill="#000000">SuccessorStructure</text>
</g>
<!-- SuccessorStructure_ss_add_succ -->
<g id="node1" class="node">
<title>SuccessorStructure_ss_add_succ</title>
<g id="a_node1"><a xlink:href="SuccessorStructure.html#ss_add_succ" xlink:title="ss_add_succ">
<ellipse fill="#f070d1" stroke="#000000" cx="1029" cy="-388.3803" rx="68.7989" ry="18"/>
<ellipse fill="none" stroke="#000000" cx="1029" cy="-388.3803" rx="72.7934" ry="22"/>
<ellipse fill="none" stroke="#000000" cx="1029" cy="-388.3803" rx="76.7879" ry="26"/>
<text text-anchor="middle" x="1029" y="-384.6803" font-family="Times,serif" font-size="14.00" fill="#000000">ss_add_succ</text>
</a>
</g>
</g>
<!-- SuccessorStructure_ss_add -->
<g id="node2" class="node">
<title>SuccessorStructure_ss_add</title>
<g id="a_node2"><a xlink:href="SuccessorStructure.html#ss_add" xlink:title="ss_add">
<ellipse fill="#f070d1" stroke="#000000" cx="1029" cy="-219.3803" rx="42.4939" ry="18"/>
<text text-anchor="middle" x="1029" y="-215.6803" font-family="Times,serif" font-size="14.00" fill="#000000">ss_add</text>
</a>
</g>
</g>
<!-- SuccessorStructure_ss_add_succ&#45;&gt;SuccessorStructure_ss_add -->
<g id="edge1" class="edge">
<title>SuccessorStructure_ss_add_succ&#45;&gt;SuccessorStructure_ss_add</title>
<path fill="none" stroke="#000000" d="M1029,-362.3444C1029,-331.2329 1029,-279.3819 1029,-247.4131"/>
<polygon fill="#000000" stroke="#000000" points="1032.5001,-247.3924 1029,-237.3924 1025.5001,-247.3925 1032.5001,-247.3924"/>
</g>
<!-- SuccessorStructure_SuccStr -->
<g id="node15" class="node">
<title>SuccessorStructure_SuccStr</title>
<g id="a_node15"><a xlink:href="SuccessorStructure.html#SuccStr" xlink:title="SuccStr">
<ellipse fill="#e2cdfa" stroke="#000000" cx="714" cy="-65.3803" rx="48.1917" ry="18"/>
<text text-anchor="middle" x="714" y="-61.6803" font-family="Times,serif" font-size="14.00" fill="#000000">SuccStr</text>
</a>
</g>
</g>
<!-- SuccessorStructure_ss_add&#45;&gt;SuccessorStructure_SuccStr -->
<g id="edge2" class="edge">
<title>SuccessorStructure_ss_add&#45;&gt;SuccessorStructure_SuccStr</title>
<path fill="none" stroke="#000000" d="M1002.0536,-205.516C994.3046,-201.5635 985.831,-197.2744 978,-193.3803 898.3531,-153.7747 804.5213,-108.6408 752.9194,-83.9506"/>
<polygon fill="#000000" stroke="#000000" points="754.32,-80.7408 743.7885,-79.5842 751.3001,-87.0559 754.32,-80.7408"/>
</g>
<!-- SuccessorStructure_Stratified -->
<g id="node3" class="node">
<title>SuccessorStructure_Stratified</title>
<g id="a_node3"><a xlink:href="SuccessorStructure.html#Stratified" xlink:title="Stratified">
<ellipse fill="#f070d1" stroke="#000000" cx="466" cy="-557.3803" rx="55.46" ry="18"/>
<ellipse fill="none" stroke="#000000" cx="466" cy="-557.3803" rx="59.4756" ry="22"/>
<ellipse fill="none" stroke="#000000" cx="466" cy="-557.3803" rx="63.4911" ry="26"/>
<text text-anchor="middle" x="466" y="-553.6803" font-family="Times,serif" font-size="14.00" fill="#000000">Stratified</text>
</a>
</g>
</g>
<!-- SuccessorStructure_stratified_succ -->
<g id="node4" class="node">
<title>SuccessorStructure_stratified_succ</title>
<g id="a_node4"><a xlink:href="SuccessorStructure.html#stratified_succ" xlink:title="stratified_succ">
<ellipse fill="#f070d1" stroke="#000000" cx="786" cy="-388.3803" rx="79.8859" ry="18"/>
<text text-anchor="middle" x="786" y="-384.6803" font-family="Times,serif" font-size="14.00" fill="#000000">stratified_succ</text>
</a>
</g>
</g>
<!-- SuccessorStructure_Stratified&#45;&gt;SuccessorStructure_stratified_succ -->
<g id="edge3" class="edge">
<title>SuccessorStructure_Stratified&#45;&gt;SuccessorStructure_stratified_succ</title>
<path fill="none" stroke="#000000" d="M504.9184,-536.8265C565.9141,-504.6131 683.4482,-442.5405 745.4408,-409.8006"/>
<polygon fill="#000000" stroke="#000000" points="747.3256,-412.7634 754.5337,-404.9984 744.0566,-406.5736 747.3256,-412.7634"/>
</g>
<!-- SuccessorStructure_Build_SuccStr -->
<g id="node14" class="node">
<title>SuccessorStructure_Build_SuccStr</title>
<g id="a_node14"><a xlink:href="SuccessorStructure.html#Build_SuccStr" xlink:title="Build_SuccStr">
<ellipse fill="#7faaff" stroke="#000000" cx="302" cy="-65.3803" rx="77.1866" ry="18"/>
<text text-anchor="middle" x="302" y="-61.6803" font-family="Times,serif" font-size="14.00" fill="#000000">Build_SuccStr</text>
</a>
</g>
</g>
<!-- SuccessorStructure_Stratified&#45;&gt;SuccessorStructure_Build_SuccStr -->
<g id="edge4" class="edge">
<title>SuccessorStructure_Stratified&#45;&gt;SuccessorStructure_Build_SuccStr</title>
<path fill="none" stroke="#000000" d="M417.7137,-540.417C322.1075,-503.8684 110.7308,-407.6114 27,-245.3803 -20.2657,-153.8014 136.037,-101.8487 232.1982,-79.1914"/>
<polygon fill="#000000" stroke="#000000" points="233.2101,-82.5501 242.1698,-76.8955 231.6394,-75.7285 233.2101,-82.5501"/>
</g>
<!-- SuccessorStructure_StratifiedType -->
<g id="node5" class="node">
<title>SuccessorStructure_StratifiedType</title>
<g id="a_node5"><a xlink:href="SuccessorStructure.html#StratifiedType" xlink:title="StratifiedType">
<ellipse fill="#f070d1" stroke="#000000" cx="891" cy="-219.3803" rx="77.9862" ry="18"/>
<text text-anchor="middle" x="891" y="-215.6803" font-family="Times,serif" font-size="14.00" fill="#000000">StratifiedType</text>
</a>
</g>
</g>
<!-- SuccessorStructure_stratified_succ&#45;&gt;SuccessorStructure_StratifiedType -->
<g id="edge5" class="edge">
<title>SuccessorStructure_stratified_succ&#45;&gt;SuccessorStructure_StratifiedType</title>
<path fill="none" stroke="#000000" d="M797.2368,-370.2943C815.7886,-340.4349 852.9105,-280.6863 874.4633,-245.9965"/>
<polygon fill="#000000" stroke="#000000" points="877.5395,-247.6774 879.844,-237.3362 871.5936,-243.9832 877.5395,-247.6774"/>
</g>
<!-- SuccessorStructure_StratifiedType&#45;&gt;SuccessorStructure_SuccStr -->
<g id="edge6" class="edge">
<title>SuccessorStructure_StratifiedType&#45;&gt;SuccessorStructure_SuccStr</title>
<path fill="none" stroke="#000000" d="M870.6958,-201.7145C838.7006,-173.8768 776.5314,-119.7862 740.8719,-88.7604"/>
<polygon fill="#000000" stroke="#000000" points="743.1022,-86.0615 733.2606,-82.1381 738.5074,-91.3425 743.1022,-86.0615"/>
</g>
<!-- SuccessorStructure_IntSucc -->
<g id="node6" class="node">
<title>SuccessorStructure_IntSucc</title>
<g id="a_node6"><a xlink:href="SuccessorStructure.html#IntSucc" xlink:title="IntSucc">
<ellipse fill="#f070d1" stroke="#000000" cx="228" cy="-219.3803" rx="47.3994" ry="18"/>
<ellipse fill="none" stroke="#000000" cx="228" cy="-219.3803" rx="51.3955" ry="22"/>
<ellipse fill="none" stroke="#000000" cx="228" cy="-219.3803" rx="55.3916" ry="26"/>
<text text-anchor="middle" x="228" y="-215.6803" font-family="Times,serif" font-size="14.00" fill="#000000">IntSucc</text>
</a>
</g>
</g>
<!-- SuccessorStructure_IntSucc&#45;&gt;SuccessorStructure_Build_SuccStr -->
<g id="edge7" class="edge">
<title>SuccessorStructure_IntSucc&#45;&gt;SuccessorStructure_Build_SuccStr</title>
<path fill="none" stroke="#000000" d="M240.2196,-193.9503C253.6445,-166.0119 275.1247,-121.3099 288.8928,-92.6575"/>
<polygon fill="#000000" stroke="#000000" points="292.067,-94.1326 293.2435,-83.6033 285.7576,-91.1008 292.067,-94.1326"/>
</g>
<!-- SuccessorStructure_IntSucc&#45;&gt;SuccessorStructure_SuccStr -->
<g id="edge8" class="edge">
<title>SuccessorStructure_IntSucc&#45;&gt;SuccessorStructure_SuccStr</title>
<path fill="none" stroke="#000000" d="M269.4452,-201.9013C276.9084,-198.9378 284.6513,-195.9814 292,-193.3803 425.4065,-146.1609 586.1722,-100.3977 665.236,-78.6057"/>
<polygon fill="#000000" stroke="#000000" points="666.209,-81.9681 674.9237,-75.9429 664.3537,-75.2185 666.209,-81.9681"/>
</g>
<!-- SuccessorStructure_NatSucc -->
<g id="node7" class="node">
<title>SuccessorStructure_NatSucc</title>
<g id="a_node7"><a xlink:href="SuccessorStructure.html#NatSucc" xlink:title="NatSucc">
<ellipse fill="#f070d1" stroke="#000000" cx="95" cy="-219.3803" rx="51.2121" ry="18"/>
<ellipse fill="none" stroke="#000000" cx="95" cy="-219.3803" rx="55.2017" ry="22"/>
<ellipse fill="none" stroke="#000000" cx="95" cy="-219.3803" rx="59.1913" ry="26"/>
<text text-anchor="middle" x="95" y="-215.6803" font-family="Times,serif" font-size="14.00" fill="#000000">NatSucc</text>
</a>
</g>
</g>
<!-- SuccessorStructure_NatSucc&#45;&gt;SuccessorStructure_Build_SuccStr -->
<g id="edge9" class="edge">
<title>SuccessorStructure_NatSucc&#45;&gt;SuccessorStructure_Build_SuccStr</title>
<path fill="none" stroke="#000000" d="M125.5436,-196.6571C164.3333,-167.799 230.9399,-118.2462 270.2817,-88.9774"/>
<polygon fill="#000000" stroke="#000000" points="272.7823,-91.4795 278.7163,-82.7024 268.604,-85.8633 272.7823,-91.4795"/>
</g>
<!-- SuccessorStructure_NatSucc&#45;&gt;SuccessorStructure_SuccStr -->
<g id="edge10" class="edge">
<title>SuccessorStructure_NatSucc&#45;&gt;SuccessorStructure_SuccStr</title>
<path fill="none" stroke="#000000" d="M138.8741,-201.8618C147.1546,-198.8373 155.7923,-195.8699 164,-193.3803 343.4083,-138.9607 561.6863,-94.4187 660.6507,-75.3639"/>
<polygon fill="#000000" stroke="#000000" points="661.5398,-78.7572 670.7022,-73.4373 660.2221,-71.8824 661.5398,-78.7572"/>
</g>
<!-- SuccessorStructure_ss_succ -->
<g id="node8" class="node">
<title>SuccessorStructure_ss_succ</title>
<g id="a_node8"><a xlink:href="SuccessorStructure.html#ss_succ" xlink:title="ss_succ">
<ellipse fill="#f070d1" stroke="#000000" cx="1294" cy="-219.3803" rx="46.6221" ry="18"/>
<ellipse fill="none" stroke="#000000" cx="1294" cy="-219.3803" rx="50.6073" ry="22"/>
<ellipse fill="none" stroke="#000000" cx="1294" cy="-219.3803" rx="54.5925" ry="26"/>
<text text-anchor="middle" x="1294" y="-215.6803" font-family="Times,serif" font-size="14.00" fill="#000000">ss_succ</text>
</a>
</g>
</g>
<!-- SuccessorStructure_ss_succ&#45;&gt;SuccessorStructure_SuccStr -->
<g id="edge11" class="edge">
<title>SuccessorStructure_ss_succ&#45;&gt;SuccessorStructure_SuccStr</title>
<path fill="none" stroke="#000000" d="M1253.3513,-201.8555C1245.6664,-198.8316 1237.6411,-195.8661 1230,-193.3803 1063.5938,-139.2456 860.6515,-95.0893 766.56,-75.8232"/>
<polygon fill="#000000" stroke="#000000" points="767.2128,-72.3843 756.7153,-73.817 765.815,-79.2434 767.2128,-72.3843"/>
</g>
<!-- SuccessorStructure_ss_carrier -->
<g id="node9" class="node">
<title>SuccessorStructure_ss_carrier</title>
<g id="a_node9"><a xlink:href="SuccessorStructure.html#ss_carrier" xlink:title="ss_carrier">
<ellipse fill="#f070d1" stroke="#000000" cx="1155" cy="-219.3803" rx="57.7089" ry="18"/>
<ellipse fill="none" stroke="#000000" cx="1155" cy="-219.3803" rx="61.6995" ry="22"/>
<ellipse fill="none" stroke="#000000" cx="1155" cy="-219.3803" rx="65.6901" ry="26"/>
<text text-anchor="middle" x="1155" y="-215.6803" font-family="Times,serif" font-size="14.00" fill="#000000">ss_carrier</text>
</a>
</g>
</g>
<!-- SuccessorStructure_ss_carrier&#45;&gt;SuccessorStructure_SuccStr -->
<g id="edge12" class="edge">
<title>SuccessorStructure_ss_carrier&#45;&gt;SuccessorStructure_SuccStr</title>
<path fill="none" stroke="#000000" d="M1105.2689,-202.0139C1018.7932,-171.816 842.0275,-110.0883 758.9855,-81.0895"/>
<polygon fill="#000000" stroke="#000000" points="759.9303,-77.7122 749.3354,-77.7196 757.6225,-84.3209 759.9303,-77.7122"/>
</g>
<!-- SuccessorStructure_SuccStr_sind -->
<g id="node10" class="node">
<title>SuccessorStructure_SuccStr_sind</title>
<g id="a_node10"><a xlink:href="SuccessorStructure.html#SuccStr_sind" xlink:title="SuccStr_sind">
<ellipse fill="#f070d1" stroke="#000000" cx="714" cy="-219.3803" rx="72.608" ry="18"/>
<ellipse fill="none" stroke="#000000" cx="714" cy="-219.3803" rx="76.5978" ry="22"/>
<ellipse fill="none" stroke="#000000" cx="714" cy="-219.3803" rx="80.5876" ry="26"/>
<text text-anchor="middle" x="714" y="-215.6803" font-family="Times,serif" font-size="14.00" fill="#000000">SuccStr_sind</text>
</a>
</g>
</g>
<!-- SuccessorStructure_SuccStr_sind&#45;&gt;SuccessorStructure_Build_SuccStr -->
<g id="edge13" class="edge">
<title>SuccessorStructure_SuccStr_sind&#45;&gt;SuccessorStructure_Build_SuccStr</title>
<path fill="none" stroke="#000000" d="M660.9817,-199.5627C581.1571,-169.7254 431.1227,-113.6446 352.6894,-84.3273"/>
<polygon fill="#000000" stroke="#000000" points="353.6221,-80.9395 343.0296,-80.7166 351.1712,-87.4964 353.6221,-80.9395"/>
</g>
<!-- SuccessorStructure_SuccStr_sind&#45;&gt;SuccessorStructure_SuccStr -->
<g id="edge14" class="edge">
<title>SuccessorStructure_SuccStr_sind&#45;&gt;SuccessorStructure_SuccStr</title>
<path fill="none" stroke="#000000" d="M714,-193.2563C714,-165.5584 714,-121.9634 714,-93.5217"/>
<polygon fill="#000000" stroke="#000000" points="717.5001,-93.4278 714,-83.4278 710.5001,-93.4279 717.5001,-93.4278"/>
</g>
<!-- SuccessorStructure_SuccStr_rec -->
<g id="node11" class="node">
<title>SuccessorStructure_SuccStr_rec</title>
<g id="a_node11"><a xlink:href="SuccessorStructure.html#SuccStr_rec" xlink:title="SuccStr_rec">
<ellipse fill="#f070d1" stroke="#000000" cx="543" cy="-388.3803" rx="68.463" ry="18"/>
<ellipse fill="none" stroke="#000000" cx="543" cy="-388.3803" rx="72.4758" ry="22"/>
<ellipse fill="none" stroke="#000000" cx="543" cy="-388.3803" rx="76.4887" ry="26"/>
<text text-anchor="middle" x="543" y="-384.6803" font-family="Times,serif" font-size="14.00" fill="#000000">SuccStr_rec</text>
</a>
</g>
</g>
<!-- SuccessorStructure_SuccStr_rect -->
<g id="node13" class="node">
<title>SuccessorStructure_SuccStr_rect</title>
<g id="a_node13"><a xlink:href="SuccessorStructure.html#SuccStr_rect" xlink:title="SuccStr_rect">
<ellipse fill="#f070d1" stroke="#000000" cx="543" cy="-219.3803" rx="72.2875" ry="18"/>
<text text-anchor="middle" x="543" y="-215.6803" font-family="Times,serif" font-size="14.00" fill="#000000">SuccStr_rect</text>
</a>
</g>
</g>
<!-- SuccessorStructure_SuccStr_rec&#45;&gt;SuccessorStructure_SuccStr_rect -->
<g id="edge15" class="edge">
<title>SuccessorStructure_SuccStr_rec&#45;&gt;SuccessorStructure_SuccStr_rect</title>
<path fill="none" stroke="#000000" d="M543,-362.3444C543,-331.2329 543,-279.3819 543,-247.4131"/>
<polygon fill="#000000" stroke="#000000" points="546.5001,-247.3924 543,-237.3924 539.5001,-247.3925 546.5001,-247.3924"/>
</g>
<!-- SuccessorStructure_SuccStr_ind -->
<g id="node12" class="node">
<title>SuccessorStructure_SuccStr_ind</title>
<g id="a_node12"><a xlink:href="SuccessorStructure.html#SuccStr_ind" xlink:title="SuccStr_ind">
<ellipse fill="#7fffd4" stroke="#000000" cx="377" cy="-219.3803" rx="67.6782" ry="18"/>
<ellipse fill="none" stroke="#000000" cx="377" cy="-219.3803" rx="71.6831" ry="22"/>
<ellipse fill="none" stroke="#000000" cx="377" cy="-219.3803" rx="75.6881" ry="26"/>
<text text-anchor="middle" x="377" y="-215.6803" font-family="Times,serif" font-size="14.00" fill="#000000">SuccStr_ind</text>
</a>
</g>
</g>
<!-- SuccessorStructure_SuccStr_ind&#45;&gt;SuccessorStructure_Build_SuccStr -->
<g id="edge16" class="edge">
<title>SuccessorStructure_SuccStr_ind&#45;&gt;SuccessorStructure_Build_SuccStr</title>
<path fill="none" stroke="#000000" d="M364.4467,-193.6041C350.8093,-165.6021 329.1162,-121.059 315.2221,-92.5297"/>
<polygon fill="#000000" stroke="#000000" points="318.3573,-90.9735 310.8321,-83.5155 312.0639,-94.0385 318.3573,-90.9735"/>
</g>
<!-- SuccessorStructure_SuccStr_ind&#45;&gt;SuccessorStructure_SuccStr -->
<g id="edge17" class="edge">
<title>SuccessorStructure_SuccStr_ind&#45;&gt;SuccessorStructure_SuccStr</title>
<path fill="none" stroke="#000000" d="M422.8,-198.4509C489.2169,-168.1001 611.1838,-112.3645 674.1107,-83.6086"/>
<polygon fill="#000000" stroke="#000000" points="675.6788,-86.7402 683.3194,-79.4005 672.7693,-80.3735 675.6788,-86.7402"/>
</g>
<!-- SuccessorStructure_SuccStr_rect&#45;&gt;SuccessorStructure_Build_SuccStr -->
<g id="edge18" class="edge">
<title>SuccessorStructure_SuccStr_rect&#45;&gt;SuccessorStructure_Build_SuccStr</title>
<path fill="none" stroke="#000000" d="M516.75,-202.6064C473.2227,-174.7923 386.0744,-119.1042 337.2382,-87.8977"/>
<polygon fill="#000000" stroke="#000000" points="338.8956,-84.8032 328.5845,-82.3679 335.1264,-90.7018 338.8956,-84.8032"/>
</g>
<!-- SuccessorStructure_SuccStr_rect&#45;&gt;SuccessorStructure_SuccStr -->
<g id="edge19" class="edge">
<title>SuccessorStructure_SuccStr_rect&#45;&gt;SuccessorStructure_SuccStr</title>
<path fill="none" stroke="#000000" d="M562.2835,-202.0139C592.9305,-174.4137 652.8235,-120.4749 687.4856,-89.2588"/>
<polygon fill="#000000" stroke="#000000" points="690.2189,-91.5074 695.3074,-82.2145 685.5344,-86.3058 690.2189,-91.5074"/>
</g>
</g>
</svg>
