<?xml version="1.0" encoding="UTF-8" standalone="no"?>
<!DOCTYPE svg PUBLIC "-//W3C//DTD SVG 1.1//EN"
 "http://www.w3.org/Graphics/SVG/1.1/DTD/svg11.dtd">
<!-- Generated by graphviz version 2.40.1 (20161225.0304)
 -->
<!-- Title: HoTT_Classes_implementations_hprop_lattice Pages: 1 -->
<svg width="3048pt" height="1528pt"
 viewBox="0.00 0.00 3048.00 1528.00" xmlns="http://www.w3.org/2000/svg" xmlns:xlink="http://www.w3.org/1999/xlink">
<g id="graph0" class="graph" transform="scale(1 1) rotate(0) translate(4 1524)">
<title>HoTT_Classes_implementations_hprop_lattice</title>
<polygon fill="#ffffff" stroke="transparent" points="-4,4 -4,-1524 3044,-1524 3044,4 -4,4"/>
<g id="clust1" class="cluster">
<title>cluster_hprop_lattice</title>
<polygon fill="#ffffc3" stroke="#000000" points="8,-48.4462 8,-1471.5538 3032,-1471.5538 3032,-48.4462 8,-48.4462"/>
<text text-anchor="middle" x="64" y="-1456.3538" font-family="Times,serif" font-size="14.00" fill="#000000">hprop_lattice</text>
</g>
<!-- hprop_lattice_boundedlattice_hprop -->
<g id="node1" class="node">
<title>hprop_lattice_boundedlattice_hprop</title>
<g id="a_node1"><a xlink:href="hprop_lattice.html#boundedlattice_hprop" xlink:title="boundedlattice_hprop">
<ellipse fill="#f070d1" stroke="#000000" cx="1664" cy="-1126.4462" rx="112.3841" ry="18"/>
<ellipse fill="none" stroke="#000000" cx="1664" cy="-1126.4462" rx="116.3821" ry="22"/>
<ellipse fill="none" stroke="#000000" cx="1664" cy="-1126.4462" rx="120.3801" ry="26"/>
<text text-anchor="middle" x="1664" y="-1122.7462" font-family="Times,serif" font-size="14.00" fill="#000000">boundedlattice_hprop</text>
</a>
</g>
</g>
<!-- hprop_lattice_absorption_hand_hor -->
<g id="node2" class="node">
<title>hprop_lattice_absorption_hand_hor</title>
<g id="a_node2"><a xlink:href="hprop_lattice.html#absorption_hand_hor" xlink:title="absorption_hand_hor">
<ellipse fill="#f070d1" stroke="#000000" cx="125" cy="-641.4462" rx="108.5808" ry="18"/>
<text text-anchor="middle" x="125" y="-637.7462" font-family="Times,serif" font-size="14.00" fill="#000000">absorption_hand_hor</text>
</a>
</g>
</g>
<!-- hprop_lattice_boundedlattice_hprop&#45;&gt;hprop_lattice_absorption_hand_hor -->
<g id="edge1" class="edge">
<title>hprop_lattice_boundedlattice_hprop&#45;&gt;hprop_lattice_absorption_hand_hor</title>
<path fill="none" stroke="#000000" d="M1595.8853,-1104.9806C1338.6925,-1023.9289 428.8942,-737.2154 185.3441,-660.463"/>
<polygon fill="#000000" stroke="#000000" points="186.1935,-657.0611 175.6038,-657.3935 184.0894,-663.7374 186.1935,-657.0611"/>
</g>
<!-- hprop_lattice_absorption_hor_hand -->
<g id="node3" class="node">
<title>hprop_lattice_absorption_hor_hand</title>
<g id="a_node3"><a xlink:href="hprop_lattice.html#absorption_hor_hand" xlink:title="absorption_hor_hand">
<ellipse fill="#f070d1" stroke="#000000" cx="360" cy="-641.4462" rx="108.5808" ry="18"/>
<text text-anchor="middle" x="360" y="-637.7462" font-family="Times,serif" font-size="14.00" fill="#000000">absorption_hor_hand</text>
</a>
</g>
</g>
<!-- hprop_lattice_boundedlattice_hprop&#45;&gt;hprop_lattice_absorption_hor_hand -->
<g id="edge2" class="edge">
<title>hprop_lattice_boundedlattice_hprop&#45;&gt;hprop_lattice_absorption_hor_hand</title>
<path fill="none" stroke="#000000" d="M1603.2882,-1103.8655C1382.4308,-1021.7215 623.735,-739.5378 414.0643,-661.5545"/>
<polygon fill="#000000" stroke="#000000" points="415.0921,-658.2026 404.4993,-657.9969 412.6519,-664.7635 415.0921,-658.2026"/>
</g>
<!-- hprop_lattice_rightidentity_hand -->
<g id="node4" class="node">
<title>hprop_lattice_rightidentity_hand</title>
<g id="a_node4"><a xlink:href="hprop_lattice.html#rightidentity_hand" xlink:title="rightidentity_hand">
<ellipse fill="#f070d1" stroke="#000000" cx="584" cy="-641.4462" rx="97.4827" ry="18"/>
<text text-anchor="middle" x="584" y="-637.7462" font-family="Times,serif" font-size="14.00" fill="#000000">rightidentity_hand</text>
</a>
</g>
</g>
<!-- hprop_lattice_boundedlattice_hprop&#45;&gt;hprop_lattice_rightidentity_hand -->
<g id="edge3" class="edge">
<title>hprop_lattice_boundedlattice_hprop&#45;&gt;hprop_lattice_rightidentity_hand</title>
<path fill="none" stroke="#000000" d="M1611.5444,-1102.8898C1426.4413,-1019.7648 805.5441,-740.9359 630.3688,-662.2692"/>
<polygon fill="#000000" stroke="#000000" points="631.7141,-659.0367 621.1579,-658.1328 628.8464,-665.4224 631.7141,-659.0367"/>
</g>
<!-- hprop_lattice_leftidentity_hand -->
<g id="node5" class="node">
<title>hprop_lattice_leftidentity_hand</title>
<g id="a_node5"><a xlink:href="hprop_lattice.html#leftidentity_hand" xlink:title="leftidentity_hand">
<ellipse fill="#f070d1" stroke="#000000" cx="790" cy="-641.4462" rx="90.1842" ry="18"/>
<text text-anchor="middle" x="790" y="-637.7462" font-family="Times,serif" font-size="14.00" fill="#000000">leftidentity_hand</text>
</a>
</g>
</g>
<!-- hprop_lattice_boundedlattice_hprop&#45;&gt;hprop_lattice_leftidentity_hand -->
<g id="edge4" class="edge">
<title>hprop_lattice_boundedlattice_hprop&#45;&gt;hprop_lattice_leftidentity_hand</title>
<path fill="none" stroke="#000000" d="M1620.0592,-1102.0626C1469.1595,-1018.3254 973.491,-743.269 829.5325,-663.3836"/>
<polygon fill="#000000" stroke="#000000" points="831.0085,-660.1999 820.5662,-658.408 827.6119,-666.3206 831.0085,-660.1999"/>
</g>
<!-- hprop_lattice_rightidentity_hor -->
<g id="node6" class="node">
<title>hprop_lattice_rightidentity_hor</title>
<g id="a_node6"><a xlink:href="hprop_lattice.html#rightidentity_hor" xlink:title="rightidentity_hor">
<ellipse fill="#f070d1" stroke="#000000" cx="989" cy="-641.4462" rx="90.1842" ry="18"/>
<text text-anchor="middle" x="989" y="-637.7462" font-family="Times,serif" font-size="14.00" fill="#000000">rightidentity_hor</text>
</a>
</g>
</g>
<!-- hprop_lattice_boundedlattice_hprop&#45;&gt;hprop_lattice_rightidentity_hor -->
<g id="edge5" class="edge">
<title>hprop_lattice_boundedlattice_hprop&#45;&gt;hprop_lattice_rightidentity_hor</title>
<path fill="none" stroke="#000000" d="M1629.1305,-1101.3918C1512.1787,-1017.3598 1134.8551,-746.2458 1021.4999,-664.798"/>
<polygon fill="#000000" stroke="#000000" points="1023.3506,-661.818 1013.1872,-658.8252 1019.266,-667.5027 1023.3506,-661.818"/>
</g>
<!-- hprop_lattice_leftidentity_hor -->
<g id="node7" class="node">
<title>hprop_lattice_leftidentity_hor</title>
<g id="a_node7"><a xlink:href="hprop_lattice.html#leftidentity_hor" xlink:title="leftidentity_hor">
<ellipse fill="#f070d1" stroke="#000000" cx="1181" cy="-641.4462" rx="83.3857" ry="18"/>
<text text-anchor="middle" x="1181" y="-637.7462" font-family="Times,serif" font-size="14.00" fill="#000000">leftidentity_hor</text>
</a>
</g>
</g>
<!-- hprop_lattice_boundedlattice_hprop&#45;&gt;hprop_lattice_leftidentity_hor -->
<g id="edge6" class="edge">
<title>hprop_lattice_boundedlattice_hprop&#45;&gt;hprop_lattice_leftidentity_hor</title>
<path fill="none" stroke="#000000" d="M1638.3728,-1100.7129C1554.5812,-1016.5744 1289.3525,-750.2474 1206.1922,-666.7428"/>
<polygon fill="#000000" stroke="#000000" points="1208.2615,-663.8606 1198.725,-659.2446 1203.3015,-668.8001 1208.2615,-663.8606"/>
</g>
<!-- hprop_lattice_idempotent_hand -->
<g id="node8" class="node">
<title>hprop_lattice_idempotent_hand</title>
<g id="a_node8"><a xlink:href="hprop_lattice.html#idempotent_hand" xlink:title="idempotent_hand">
<ellipse fill="#f070d1" stroke="#000000" cx="1374" cy="-641.4462" rx="91.784" ry="18"/>
<text text-anchor="middle" x="1374" y="-637.7462" font-family="Times,serif" font-size="14.00" fill="#000000">idempotent_hand</text>
</a>
</g>
</g>
<!-- hprop_lattice_boundedlattice_hprop&#45;&gt;hprop_lattice_idempotent_hand -->
<g id="edge7" class="edge">
<title>hprop_lattice_boundedlattice_hprop&#45;&gt;hprop_lattice_idempotent_hand</title>
<path fill="none" stroke="#000000" d="M1648.4083,-1100.3705C1598.1733,-1016.3567 1440.8743,-753.2877 1390.0267,-668.2494"/>
<polygon fill="#000000" stroke="#000000" points="1392.9042,-666.2418 1384.7683,-659.4552 1386.8963,-669.8342 1392.9042,-666.2418"/>
</g>
<!-- hprop_lattice_idempotent_hor -->
<g id="node9" class="node">
<title>hprop_lattice_idempotent_hor</title>
<g id="a_node9"><a xlink:href="hprop_lattice.html#idempotent_hor" xlink:title="idempotent_hor">
<ellipse fill="#f070d1" stroke="#000000" cx="1568" cy="-641.4462" rx="84.485" ry="18"/>
<text text-anchor="middle" x="1568" y="-637.7462" font-family="Times,serif" font-size="14.00" fill="#000000">idempotent_hor</text>
</a>
</g>
</g>
<!-- hprop_lattice_boundedlattice_hprop&#45;&gt;hprop_lattice_idempotent_hor -->
<g id="edge8" class="edge">
<title>hprop_lattice_boundedlattice_hprop&#45;&gt;hprop_lattice_idempotent_hor</title>
<path fill="none" stroke="#000000" d="M1658.8386,-1100.3705C1642.2765,-1016.6972 1590.5592,-755.417 1573.5118,-669.2921"/>
<polygon fill="#000000" stroke="#000000" points="1576.9398,-668.5853 1571.5647,-659.4552 1570.0731,-669.9445 1576.9398,-668.5853"/>
</g>
<!-- hprop_lattice_associative_hand -->
<g id="node10" class="node">
<title>hprop_lattice_associative_hand</title>
<g id="a_node10"><a xlink:href="hprop_lattice.html#associative_hand" xlink:title="associative_hand">
<ellipse fill="#f070d1" stroke="#000000" cx="1761" cy="-641.4462" rx="90.1842" ry="18"/>
<text text-anchor="middle" x="1761" y="-637.7462" font-family="Times,serif" font-size="14.00" fill="#000000">associative_hand</text>
</a>
</g>
</g>
<!-- hprop_lattice_boundedlattice_hprop&#45;&gt;hprop_lattice_associative_hand -->
<g id="edge9" class="edge">
<title>hprop_lattice_boundedlattice_hprop&#45;&gt;hprop_lattice_associative_hand</title>
<path fill="none" stroke="#000000" d="M1669.2151,-1100.3705C1685.9498,-1016.6972 1738.2058,-755.417 1755.4308,-669.2921"/>
<polygon fill="#000000" stroke="#000000" points="1758.869,-669.9475 1757.3982,-659.4552 1752.0049,-668.5746 1758.869,-669.9475"/>
</g>
<!-- hprop_lattice_associative_hor -->
<g id="node11" class="node">
<title>hprop_lattice_associative_hor</title>
<g id="a_node11"><a xlink:href="hprop_lattice.html#associative_hor" xlink:title="associative_hor">
<ellipse fill="#f070d1" stroke="#000000" cx="1953" cy="-641.4462" rx="83.3857" ry="18"/>
<text text-anchor="middle" x="1953" y="-637.7462" font-family="Times,serif" font-size="14.00" fill="#000000">associative_hor</text>
</a>
</g>
</g>
<!-- hprop_lattice_boundedlattice_hprop&#45;&gt;hprop_lattice_associative_hor -->
<g id="edge10" class="edge">
<title>hprop_lattice_boundedlattice_hprop&#45;&gt;hprop_lattice_associative_hor</title>
<path fill="none" stroke="#000000" d="M1679.5379,-1100.3705C1729.5997,-1016.3567 1886.3563,-753.2877 1937.0286,-668.2494"/>
<polygon fill="#000000" stroke="#000000" points="1940.1566,-669.8374 1942.2689,-659.4552 1934.1432,-666.2541 1940.1566,-669.8374"/>
</g>
<!-- hprop_lattice_commutative_hand -->
<g id="node12" class="node">
<title>hprop_lattice_commutative_hand</title>
<g id="a_node12"><a xlink:href="hprop_lattice.html#commutative_hand" xlink:title="commutative_hand">
<ellipse fill="#f070d1" stroke="#000000" cx="2154" cy="-641.4462" rx="99.3824" ry="18"/>
<text text-anchor="middle" x="2154" y="-637.7462" font-family="Times,serif" font-size="14.00" fill="#000000">commutative_hand</text>
</a>
</g>
</g>
<!-- hprop_lattice_boundedlattice_hprop&#45;&gt;hprop_lattice_commutative_hand -->
<g id="edge11" class="edge">
<title>hprop_lattice_boundedlattice_hprop&#45;&gt;hprop_lattice_commutative_hand</title>
<path fill="none" stroke="#000000" d="M1689.9986,-1100.7129C1775.0902,-1016.4896 2044.6198,-749.7102 2128.6972,-666.4908"/>
<polygon fill="#000000" stroke="#000000" points="2131.373,-668.7669 2136.0181,-659.2446 2126.4487,-663.7918 2131.373,-668.7669"/>
</g>
<!-- hprop_lattice_commutative_hor -->
<g id="node13" class="node">
<title>hprop_lattice_commutative_hor</title>
<g id="a_node13"><a xlink:href="hprop_lattice.html#commutative_hor" xlink:title="commutative_hor">
<ellipse fill="#f070d1" stroke="#000000" cx="2364" cy="-641.4462" rx="92.0841" ry="18"/>
<text text-anchor="middle" x="2364" y="-637.7462" font-family="Times,serif" font-size="14.00" fill="#000000">commutative_hor</text>
</a>
</g>
</g>
<!-- hprop_lattice_boundedlattice_hprop&#45;&gt;hprop_lattice_commutative_hor -->
<g id="edge12" class="edge">
<title>hprop_lattice_boundedlattice_hprop&#45;&gt;hprop_lattice_commutative_hor</title>
<path fill="none" stroke="#000000" d="M1700.161,-1101.3918C1821.5659,-1017.2756 2213.5273,-745.7023 2330.649,-664.5537"/>
<polygon fill="#000000" stroke="#000000" points="2332.6905,-667.3973 2338.917,-658.8252 2328.7038,-661.6434 2332.6905,-667.3973"/>
</g>
<!-- hprop_lattice_top_hprop -->
<g id="node14" class="node">
<title>hprop_lattice_top_hprop</title>
<g id="a_node14"><a xlink:href="hprop_lattice.html#top_hprop" xlink:title="top_hprop">
<ellipse fill="#f070d1" stroke="#000000" cx="2532" cy="-641.4462" rx="57.6901" ry="18"/>
<text text-anchor="middle" x="2532" y="-637.7462" font-family="Times,serif" font-size="14.00" fill="#000000">top_hprop</text>
</a>
</g>
</g>
<!-- hprop_lattice_boundedlattice_hprop&#45;&gt;hprop_lattice_top_hprop -->
<g id="edge13" class="edge">
<title>hprop_lattice_boundedlattice_hprop&#45;&gt;hprop_lattice_top_hprop</title>
<path fill="none" stroke="#000000" d="M1707.6391,-1102.0626C1858.1935,-1017.9395 2354.3127,-740.73 2494.693,-662.2917"/>
<polygon fill="#000000" stroke="#000000" points="2496.7752,-665.1377 2503.7976,-657.2045 2493.3607,-659.0269 2496.7752,-665.1377"/>
</g>
<!-- hprop_lattice_bottom_hprop -->
<g id="node15" class="node">
<title>hprop_lattice_bottom_hprop</title>
<g id="a_node15"><a xlink:href="hprop_lattice.html#bottom_hprop" xlink:title="bottom_hprop">
<ellipse fill="#f070d1" stroke="#000000" cx="2684" cy="-641.4462" rx="76.0865" ry="18"/>
<text text-anchor="middle" x="2684" y="-637.7462" font-family="Times,serif" font-size="14.00" fill="#000000">bottom_hprop</text>
</a>
</g>
</g>
<!-- hprop_lattice_boundedlattice_hprop&#45;&gt;hprop_lattice_bottom_hprop -->
<g id="edge14" class="edge">
<title>hprop_lattice_boundedlattice_hprop&#45;&gt;hprop_lattice_bottom_hprop</title>
<path fill="none" stroke="#000000" d="M1713.8872,-1102.7253C1889.2802,-1019.3277 2475.858,-740.4157 2640.6234,-662.0714"/>
<polygon fill="#000000" stroke="#000000" points="2642.4331,-665.0864 2649.9612,-657.6313 2639.4272,-658.7647 2642.4331,-665.0864"/>
</g>
<!-- hprop_lattice_meet_hprop -->
<g id="node16" class="node">
<title>hprop_lattice_meet_hprop</title>
<g id="a_node16"><a xlink:href="hprop_lattice.html#meet_hprop" xlink:title="meet_hprop">
<ellipse fill="#f070d1" stroke="#000000" cx="2844" cy="-641.4462" rx="66.0889" ry="18"/>
<text text-anchor="middle" x="2844" y="-637.7462" font-family="Times,serif" font-size="14.00" fill="#000000">meet_hprop</text>
</a>
</g>
</g>
<!-- hprop_lattice_boundedlattice_hprop&#45;&gt;hprop_lattice_meet_hprop -->
<g id="edge15" class="edge">
<title>hprop_lattice_boundedlattice_hprop&#45;&gt;hprop_lattice_meet_hprop</title>
<path fill="none" stroke="#000000" d="M1720.12,-1103.3799C1922.4912,-1020.202 2612.5654,-736.5697 2797.8779,-660.4032"/>
<polygon fill="#000000" stroke="#000000" points="2799.416,-663.5552 2807.3346,-656.5163 2796.7548,-657.0807 2799.416,-663.5552"/>
</g>
<!-- hprop_lattice_join_hor -->
<g id="node18" class="node">
<title>hprop_lattice_join_hor</title>
<g id="a_node18"><a xlink:href="hprop_lattice.html#join_hor" xlink:title="join_hor">
<ellipse fill="#f070d1" stroke="#000000" cx="2976" cy="-641.4462" rx="48.1917" ry="18"/>
<text text-anchor="middle" x="2976" y="-637.7462" font-family="Times,serif" font-size="14.00" fill="#000000">join_hor</text>
</a>
</g>
</g>
<!-- hprop_lattice_boundedlattice_hprop&#45;&gt;hprop_lattice_join_hor -->
<g id="edge16" class="edge">
<title>hprop_lattice_boundedlattice_hprop&#45;&gt;hprop_lattice_join_hor</title>
<path fill="none" stroke="#000000" d="M1725.0843,-1103.8655C1951.1876,-1020.2831 2737.5453,-729.5945 2932.1716,-657.648"/>
<polygon fill="#000000" stroke="#000000" points="2933.6147,-660.8461 2941.7808,-654.0959 2931.1875,-654.2804 2933.6147,-660.8461"/>
</g>
<!-- hprop_lattice_hand -->
<g id="node17" class="node">
<title>hprop_lattice_hand</title>
<g id="a_node17"><a xlink:href="hprop_lattice.html#hand" xlink:title="hand">
<ellipse fill="#f070d1" stroke="#000000" cx="1082" cy="-205.4462" rx="33.5952" ry="18"/>
<text text-anchor="middle" x="1082" y="-201.7462" font-family="Times,serif" font-size="14.00" fill="#000000">hand</text>
</a>
</g>
</g>
<!-- hprop_lattice_absorption_hand_hor&#45;&gt;hprop_lattice_hand -->
<g id="edge17" class="edge">
<title>hprop_lattice_absorption_hand_hor&#45;&gt;hprop_lattice_hand</title>
<path fill="none" stroke="#000000" d="M162.2218,-624.4883C315.6206,-554.6013 897.7416,-289.3926 1046.9736,-221.4039"/>
<polygon fill="#000000" stroke="#000000" points="1048.519,-224.546 1056.168,-217.215 1045.6169,-218.1759 1048.519,-224.546"/>
</g>
<!-- hprop_lattice_absorption_hor_hand&#45;&gt;hprop_lattice_hand -->
<g id="edge18" class="edge">
<title>hprop_lattice_absorption_hor_hand&#45;&gt;hprop_lattice_hand</title>
<path fill="none" stroke="#000000" d="M388.7488,-624.0854C503.9024,-554.5467 931.3598,-296.4145 1050.8123,-224.2798"/>
<polygon fill="#000000" stroke="#000000" points="1052.7592,-227.1928 1059.5101,-219.0274 1049.1406,-221.2007 1052.7592,-227.1928"/>
</g>
<!-- hprop_lattice_rightidentity_hand&#45;&gt;hprop_lattice_hand -->
<g id="edge19" class="edge">
<title>hprop_lattice_rightidentity_hand&#45;&gt;hprop_lattice_hand</title>
<path fill="none" stroke="#000000" d="M604.139,-623.8145C682.84,-554.9116 969.5608,-303.887 1056.7057,-227.5915"/>
<polygon fill="#000000" stroke="#000000" points="1059.0529,-230.1883 1064.2713,-220.9677 1054.4419,-224.9215 1059.0529,-230.1883"/>
</g>
<!-- hprop_lattice_leftidentity_hand&#45;&gt;hprop_lattice_hand -->
<g id="edge20" class="edge">
<title>hprop_lattice_leftidentity_hand&#45;&gt;hprop_lattice_hand</title>
<path fill="none" stroke="#000000" d="M801.9911,-623.5417C847.6654,-555.3431 1010.884,-311.633 1064.6711,-231.3208"/>
<polygon fill="#000000" stroke="#000000" points="1067.7328,-233.0391 1070.3893,-222.7827 1061.9166,-229.1439 1067.7328,-233.0391"/>
</g>
<!-- hprop_lattice_idempotent_hand&#45;&gt;hprop_lattice_hand -->
<g id="edge21" class="edge">
<title>hprop_lattice_idempotent_hand&#45;&gt;hprop_lattice_hand</title>
<path fill="none" stroke="#000000" d="M1362.0089,-623.5417C1316.3346,-555.3431 1153.116,-311.633 1099.3289,-231.3208"/>
<polygon fill="#000000" stroke="#000000" points="1102.0834,-229.1439 1093.6107,-222.7827 1096.2672,-233.0391 1102.0834,-229.1439"/>
</g>
<!-- hprop_lattice_associative_hand&#45;&gt;hprop_lattice_hand -->
<g id="edge22" class="edge">
<title>hprop_lattice_associative_hand&#45;&gt;hprop_lattice_hand</title>
<path fill="none" stroke="#000000" d="M1733.9634,-624.0854C1626.0166,-554.7706 1226.254,-298.0747 1112.4243,-224.9823"/>
<polygon fill="#000000" stroke="#000000" points="1114.1227,-221.9134 1103.8169,-219.4553 1110.3404,-227.8037 1114.1227,-221.9134"/>
</g>
<!-- hprop_lattice_commutative_hand&#45;&gt;hprop_lattice_hand -->
<g id="edge23" class="edge">
<title>hprop_lattice_commutative_hand&#45;&gt;hprop_lattice_hand</title>
<path fill="none" stroke="#000000" d="M2113.2854,-624.8869C1942.0907,-555.2592 1281.971,-286.7777 1118.6878,-220.3677"/>
<polygon fill="#000000" stroke="#000000" points="1119.6759,-216.9913 1109.0941,-216.4658 1117.0386,-223.4755 1119.6759,-216.9913"/>
</g>
<!-- hprop_lattice_meet_hprop&#45;&gt;hprop_lattice_hand -->
<g id="edge24" class="edge">
<title>hprop_lattice_meet_hprop&#45;&gt;hprop_lattice_hand</title>
<path fill="none" stroke="#000000" d="M2794.571,-629.2152C2537.559,-565.6186 1356.7292,-273.4269 1122.4649,-215.4591"/>
<polygon fill="#000000" stroke="#000000" points="1123.1987,-212.0352 1112.6507,-213.0306 1121.5172,-218.8302 1123.1987,-212.0352"/>
</g>
</g>
</svg>
