<?xml version="1.0" encoding="UTF-8" standalone="no"?>
<!DOCTYPE svg PUBLIC "-//W3C//DTD SVG 1.1//EN"
 "http://www.w3.org/Graphics/SVG/1.1/DTD/svg11.dtd">
<!-- Generated by graphviz version 2.40.1 (20161225.0304)
 -->
<!-- Title: HoTT_Equiv_BiInv Pages: 1 -->
<svg width="654pt" height="331pt"
 viewBox="0.00 0.00 654.00 331.00" xmlns="http://www.w3.org/2000/svg" xmlns:xlink="http://www.w3.org/1999/xlink">
<g id="graph0" class="graph" transform="scale(1 1) rotate(0) translate(4 327)">
<title>HoTT_Equiv_BiInv</title>
<polygon fill="#ffffff" stroke="transparent" points="-4,4 -4,-327 650,-327 650,4 -4,4"/>
<g id="clust1" class="cluster">
<title>cluster_BiInv</title>
<polygon fill="#ffffc3" stroke="#000000" points="20.5079,-8 20.5079,-315 625.4921,-315 625.4921,-8 20.5079,-8"/>
<text text-anchor="middle" x="48.0079" y="-299.8" font-family="Times,serif" font-size="14.00" fill="#000000">BiInv</text>
</g>
<!-- BiInv_equiv_biinv_isequiv -->
<g id="node1" class="node">
<title>BiInv_equiv_biinv_isequiv</title>
<g id="a_node1"><a xlink:href="BiInv.html#equiv_biinv_isequiv" xlink:title="equiv_biinv_isequiv">
<ellipse fill="#f070d1" stroke="#000000" cx="322.7698" cy="-258" rx="102.0789" ry="18"/>
<ellipse fill="none" stroke="#000000" cx="322.7698" cy="-258" rx="106.0804" ry="22"/>
<ellipse fill="none" stroke="#000000" cx="322.7698" cy="-258" rx="110.0819" ry="26"/>
<text text-anchor="middle" x="322.7698" y="-254.3" font-family="Times,serif" font-size="14.00" fill="#000000">equiv_biinv_isequiv</text>
</a>
</g>
</g>
<!-- BiInv_isprop_biinv -->
<g id="node2" class="node">
<title>BiInv_isprop_biinv</title>
<g id="a_node2"><a xlink:href="BiInv.html#isprop_biinv" xlink:title="isprop_biinv">
<ellipse fill="#f070d1" stroke="#000000" cx="322.7698" cy="-178" rx="67.6881" ry="18"/>
<text text-anchor="middle" x="322.7698" y="-174.3" font-family="Times,serif" font-size="14.00" fill="#000000">isprop_biinv</text>
</a>
</g>
</g>
<!-- BiInv_equiv_biinv_isequiv&#45;&gt;BiInv_isprop_biinv -->
<g id="edge1" class="edge">
<title>BiInv_equiv_biinv_isequiv&#45;&gt;BiInv_isprop_biinv</title>
<path fill="none" stroke="#000000" d="M322.7698,-231.805C322.7698,-223.6026 322.7698,-214.5174 322.7698,-206.1839"/>
<polygon fill="#000000" stroke="#000000" points="326.2699,-206.1532 322.7698,-196.1532 319.2699,-206.1533 326.2699,-206.1532"/>
</g>
<!-- BiInv_isequiv_biinv -->
<g id="node3" class="node">
<title>BiInv_isequiv_biinv</title>
<g id="a_node3"><a xlink:href="BiInv.html#isequiv_biinv" xlink:title="isequiv_biinv">
<ellipse fill="#f070d1" stroke="#000000" cx="322.7698" cy="-106" rx="71.4873" ry="18"/>
<text text-anchor="middle" x="322.7698" y="-102.3" font-family="Times,serif" font-size="14.00" fill="#000000">isequiv_biinv</text>
</a>
</g>
</g>
<!-- BiInv_isprop_biinv&#45;&gt;BiInv_isequiv_biinv -->
<g id="edge2" class="edge">
<title>BiInv_isprop_biinv&#45;&gt;BiInv_isequiv_biinv</title>
<path fill="none" stroke="#000000" d="M322.7698,-159.8314C322.7698,-152.131 322.7698,-142.9743 322.7698,-134.4166"/>
<polygon fill="#000000" stroke="#000000" points="326.2699,-134.4132 322.7698,-124.4133 319.2699,-134.4133 326.2699,-134.4132"/>
</g>
<!-- BiInv_BiInv -->
<g id="node4" class="node">
<title>BiInv_BiInv</title>
<g id="a_node4"><a xlink:href="BiInv.html#BiInv" xlink:title="BiInv">
<ellipse fill="#f070d1" stroke="#000000" cx="322.7698" cy="-34" rx="35.9954" ry="18"/>
<text text-anchor="middle" x="322.7698" y="-30.3" font-family="Times,serif" font-size="14.00" fill="#000000">BiInv</text>
</a>
</g>
</g>
<!-- BiInv_isequiv_biinv&#45;&gt;BiInv_BiInv -->
<g id="edge3" class="edge">
<title>BiInv_isequiv_biinv&#45;&gt;BiInv_BiInv</title>
<path fill="none" stroke="#000000" d="M322.7698,-87.8314C322.7698,-80.131 322.7698,-70.9743 322.7698,-62.4166"/>
<polygon fill="#000000" stroke="#000000" points="326.2699,-62.4132 322.7698,-52.4133 319.2699,-62.4133 326.2699,-62.4132"/>
</g>
</g>
</svg>
