<?xml version="1.0" encoding="UTF-8" standalone="no"?>
<!DOCTYPE svg PUBLIC "-//W3C//DTD SVG 1.1//EN"
 "http://www.w3.org/Graphics/SVG/1.1/DTD/svg11.dtd">
<!-- Generated by graphviz version 2.40.1 (20161225.0304)
 -->
<!-- Title: HoTT_Homotopy_Bouquet Pages: 1 -->
<svg width="942pt" height="475pt"
 viewBox="0.00 0.00 942.00 475.00" xmlns="http://www.w3.org/2000/svg" xmlns:xlink="http://www.w3.org/1999/xlink">
<g id="graph0" class="graph" transform="scale(1 1) rotate(0) translate(4 471)">
<title>HoTT_Homotopy_Bouquet</title>
<polygon fill="#ffffff" stroke="transparent" points="-4,4 -4,-471 938,-471 938,4 -4,4"/>
<g id="clust1" class="cluster">
<title>cluster_Bouquet</title>
<polygon fill="#ffffc3" stroke="#000000" points="13.5362,-8 13.5362,-459 920.4638,-459 920.4638,-8 13.5362,-8"/>
<text text-anchor="middle" x="52.0362" y="-443.8" font-family="Times,serif" font-size="14.00" fill="#000000">Bouquet</text>
</g>
<!-- Bouquet_isfreegroupon_pi1bouquet -->
<g id="node1" class="node">
<title>Bouquet_isfreegroupon_pi1bouquet</title>
<g id="a_node1"><a xlink:href="Bouquet.html#isfreegroupon_pi1bouquet" xlink:title="isfreegroupon_pi1bouquet">
<ellipse fill="#f070d1" stroke="#000000" cx="444.9565" cy="-402" rx="133.4632" ry="18"/>
<ellipse fill="none" stroke="#000000" cx="444.9565" cy="-402" rx="137.47" ry="22"/>
<ellipse fill="none" stroke="#000000" cx="444.9565" cy="-402" rx="141.4768" ry="26"/>
<text text-anchor="middle" x="444.9565" y="-398.3" font-family="Times,serif" font-size="14.00" fill="#000000">isfreegroupon_pi1bouquet</text>
</a>
</g>
</g>
<!-- Bouquet_pi1bouquet_incl -->
<g id="node2" class="node">
<title>Bouquet_pi1bouquet_incl</title>
<g id="a_node2"><a xlink:href="Bouquet.html#pi1bouquet_incl" xlink:title="pi1bouquet_incl">
<ellipse fill="#f070d1" stroke="#000000" cx="170.9565" cy="-322" rx="85.2851" ry="18"/>
<text text-anchor="middle" x="170.9565" y="-318.3" font-family="Times,serif" font-size="14.00" fill="#000000">pi1bouquet_incl</text>
</a>
</g>
</g>
<!-- Bouquet_isfreegroupon_pi1bouquet&#45;&gt;Bouquet_pi1bouquet_incl -->
<g id="edge1" class="edge">
<title>Bouquet_isfreegroupon_pi1bouquet&#45;&gt;Bouquet_pi1bouquet_incl</title>
<path fill="none" stroke="#000000" d="M369.3595,-379.9279C325.751,-367.1955 271.677,-351.4074 230.9999,-339.5309"/>
<polygon fill="#000000" stroke="#000000" points="231.805,-336.1199 221.2248,-336.6769 229.8431,-342.8394 231.805,-336.1199"/>
</g>
<!-- Bouquet_is1natural_equiv_pi1bouquet_rec -->
<g id="node3" class="node">
<title>Bouquet_is1natural_equiv_pi1bouquet_rec</title>
<g id="a_node3"><a xlink:href="Bouquet.html#is1natural_equiv_pi1bouquet_rec" xlink:title="is1natural_equiv_pi1bouquet_rec">
<ellipse fill="#f070d1" stroke="#000000" cx="625.9565" cy="-322" rx="165.9709" ry="18"/>
<text text-anchor="middle" x="625.9565" y="-318.3" font-family="Times,serif" font-size="14.00" fill="#000000">is1natural_equiv_pi1bouquet_rec</text>
</a>
</g>
</g>
<!-- Bouquet_isfreegroupon_pi1bouquet&#45;&gt;Bouquet_is1natural_equiv_pi1bouquet_rec -->
<g id="edge2" class="edge">
<title>Bouquet_isfreegroupon_pi1bouquet&#45;&gt;Bouquet_is1natural_equiv_pi1bouquet_rec</title>
<path fill="none" stroke="#000000" d="M499.2625,-377.9974C523.991,-367.0676 553.036,-354.2301 577.0735,-343.6058"/>
<polygon fill="#000000" stroke="#000000" points="578.6279,-346.7454 586.3594,-339.5015 575.798,-340.3429 578.6279,-346.7454"/>
</g>
<!-- Bouquet_equiv_pi1bouquet_rec -->
<g id="node4" class="node">
<title>Bouquet_equiv_pi1bouquet_rec</title>
<g id="a_node4"><a xlink:href="Bouquet.html#equiv_pi1bouquet_rec" xlink:title="equiv_pi1bouquet_rec">
<ellipse fill="#f070d1" stroke="#000000" cx="434.9565" cy="-250" rx="113.9803" ry="18"/>
<text text-anchor="middle" x="434.9565" y="-246.3" font-family="Times,serif" font-size="14.00" fill="#000000">equiv_pi1bouquet_rec</text>
</a>
</g>
</g>
<!-- Bouquet_pi1bouquet_incl&#45;&gt;Bouquet_equiv_pi1bouquet_rec -->
<g id="edge3" class="edge">
<title>Bouquet_pi1bouquet_incl&#45;&gt;Bouquet_equiv_pi1bouquet_rec</title>
<path fill="none" stroke="#000000" d="M223.4301,-307.689C264.8105,-296.4035 322.8148,-280.5841 367.6191,-268.3648"/>
<polygon fill="#000000" stroke="#000000" points="368.8186,-271.6655 377.5453,-265.6576 366.9767,-264.9122 368.8186,-271.6655"/>
</g>
<!-- Bouquet_is1natural_equiv_pi1bouquet_rec&#45;&gt;Bouquet_equiv_pi1bouquet_rec -->
<g id="edge4" class="edge">
<title>Bouquet_is1natural_equiv_pi1bouquet_rec&#45;&gt;Bouquet_equiv_pi1bouquet_rec</title>
<path fill="none" stroke="#000000" d="M579.7207,-304.5708C552.2448,-294.2134 517.2768,-281.0317 488.5917,-270.2185"/>
<polygon fill="#000000" stroke="#000000" points="489.7162,-266.902 479.1244,-266.6497 487.2471,-273.4521 489.7162,-266.902"/>
</g>
<!-- Bouquet_natequiv_pi1bouquet_rec -->
<g id="node5" class="node">
<title>Bouquet_natequiv_pi1bouquet_rec</title>
<g id="a_node5"><a xlink:href="Bouquet.html#natequiv_pi1bouquet_rec" xlink:title="natequiv_pi1bouquet_rec">
<ellipse fill="#f070d1" stroke="#000000" cx="434.9565" cy="-178" rx="128.8774" ry="18"/>
<text text-anchor="middle" x="434.9565" y="-174.3" font-family="Times,serif" font-size="14.00" fill="#000000">natequiv_pi1bouquet_rec</text>
</a>
</g>
</g>
<!-- Bouquet_equiv_pi1bouquet_rec&#45;&gt;Bouquet_natequiv_pi1bouquet_rec -->
<g id="edge5" class="edge">
<title>Bouquet_equiv_pi1bouquet_rec&#45;&gt;Bouquet_natequiv_pi1bouquet_rec</title>
<path fill="none" stroke="#000000" d="M434.9565,-231.8314C434.9565,-224.131 434.9565,-214.9743 434.9565,-206.4166"/>
<polygon fill="#000000" stroke="#000000" points="438.4566,-206.4132 434.9565,-196.4133 431.4566,-206.4133 438.4566,-206.4132"/>
</g>
<!-- Bouquet_isconnected_bouquet -->
<g id="node6" class="node">
<title>Bouquet_isconnected_bouquet</title>
<g id="a_node6"><a xlink:href="Bouquet.html#isconnected_bouquet" xlink:title="isconnected_bouquet">
<ellipse fill="#f070d1" stroke="#000000" cx="434.9565" cy="-106" rx="109.6807" ry="18"/>
<text text-anchor="middle" x="434.9565" y="-102.3" font-family="Times,serif" font-size="14.00" fill="#000000">isconnected_bouquet</text>
</a>
</g>
</g>
<!-- Bouquet_natequiv_pi1bouquet_rec&#45;&gt;Bouquet_isconnected_bouquet -->
<g id="edge6" class="edge">
<title>Bouquet_natequiv_pi1bouquet_rec&#45;&gt;Bouquet_isconnected_bouquet</title>
<path fill="none" stroke="#000000" d="M434.9565,-159.8314C434.9565,-152.131 434.9565,-142.9743 434.9565,-134.4166"/>
<polygon fill="#000000" stroke="#000000" points="438.4566,-134.4132 434.9565,-124.4133 431.4566,-134.4133 438.4566,-134.4132"/>
</g>
<!-- Bouquet_Bouquet -->
<g id="node7" class="node">
<title>Bouquet_Bouquet</title>
<g id="a_node7"><a xlink:href="Bouquet.html#Bouquet" xlink:title="Bouquet">
<ellipse fill="#f070d1" stroke="#000000" cx="434.9565" cy="-34" rx="50.0912" ry="18"/>
<text text-anchor="middle" x="434.9565" y="-30.3" font-family="Times,serif" font-size="14.00" fill="#000000">Bouquet</text>
</a>
</g>
</g>
<!-- Bouquet_isconnected_bouquet&#45;&gt;Bouquet_Bouquet -->
<g id="edge7" class="edge">
<title>Bouquet_isconnected_bouquet&#45;&gt;Bouquet_Bouquet</title>
<path fill="none" stroke="#000000" d="M434.9565,-87.8314C434.9565,-80.131 434.9565,-70.9743 434.9565,-62.4166"/>
<polygon fill="#000000" stroke="#000000" points="438.4566,-62.4132 434.9565,-52.4133 431.4566,-62.4133 438.4566,-62.4132"/>
</g>
</g>
</svg>
