<?xml version="1.0" encoding="UTF-8" standalone="no"?>
<!DOCTYPE svg PUBLIC "-//W3C//DTD SVG 1.1//EN"
 "http://www.w3.org/Graphics/SVG/1.1/DTD/svg11.dtd">
<!-- Generated by graphviz version 2.40.1 (20161225.0304)
 -->
<!-- Title: HoTT_Spaces_No_Addition Pages: 1 -->
<svg width="2718pt" height="1363pt"
 viewBox="0.00 0.00 2718.00 1363.00" xmlns="http://www.w3.org/2000/svg" xmlns:xlink="http://www.w3.org/1999/xlink">
<g id="graph0" class="graph" transform="scale(1 1) rotate(0) translate(4 1359)">
<title>HoTT_Spaces_No_Addition</title>
<polygon fill="#ffffff" stroke="transparent" points="-4,4 -4,-1359 2714,-1359 2714,4 -4,4"/>
<g id="clust1" class="cluster">
<title>cluster_Addition</title>
<polygon fill="#ffffc3" stroke="#000000" points="8,-14.829 8,-1340.171 2702,-1340.171 2702,-14.829 8,-14.829"/>
<text text-anchor="middle" x="46.5" y="-1324.971" font-family="Times,serif" font-size="14.00" fill="#000000">Addition</text>
</g>
<!-- Addition_sub -->
<g id="node1" class="node">
<title>Addition_sub</title>
<g id="a_node1"><a xlink:href="Addition.html#sub" xlink:title="sub">
<ellipse fill="#f070d1" stroke="#000000" cx="2494" cy="-1071.829" rx="27.1419" ry="18"/>
<ellipse fill="none" stroke="#000000" cx="2494" cy="-1071.829" rx="31.1191" ry="22"/>
<ellipse fill="none" stroke="#000000" cx="2494" cy="-1071.829" rx="35.0963" ry="26"/>
<text text-anchor="middle" x="2494" y="-1068.129" font-family="Times,serif" font-size="14.00" fill="#000000">sub</text>
</a>
</g>
</g>
<!-- Addition_plus -->
<g id="node12" class="node">
<title>Addition_plus</title>
<g id="a_node12"><a xlink:href="Addition.html#plus" xlink:title="plus">
<ellipse fill="#f070d1" stroke="#000000" cx="2212" cy="-922.829" rx="30.5947" ry="18"/>
<text text-anchor="middle" x="2212" y="-919.129" font-family="Times,serif" font-size="14.00" fill="#000000">plus</text>
</a>
</g>
</g>
<!-- Addition_sub&#45;&gt;Addition_plus -->
<g id="edge1" class="edge">
<title>Addition_sub&#45;&gt;Addition_plus</title>
<path fill="none" stroke="#000000" d="M2466.677,-1055.3597C2461.187,-1052.1423 2455.4346,-1048.8359 2450,-1045.829 2377.6197,-1005.7827 2290.9392,-962.0137 2244.7618,-939.0225"/>
<polygon fill="#000000" stroke="#000000" points="2246.0552,-935.757 2235.5425,-934.4406 2242.9398,-942.0255 2246.0552,-935.757"/>
</g>
<!-- Addition_plus_negate -->
<g id="node2" class="node">
<title>Addition_plus_negate</title>
<g id="a_node2"><a xlink:href="Addition.html#plus_negate" xlink:title="plus_negate">
<ellipse fill="#f070d1" stroke="#000000" cx="2391" cy="-1234.829" rx="66.8941" ry="18"/>
<ellipse fill="none" stroke="#000000" cx="2391" cy="-1234.829" rx="70.8911" ry="22"/>
<ellipse fill="none" stroke="#000000" cx="2391" cy="-1234.829" rx="74.8882" ry="26"/>
<text text-anchor="middle" x="2391" y="-1231.129" font-family="Times,serif" font-size="14.00" fill="#000000">plus_negate</text>
</a>
</g>
</g>
<!-- Addition_plus_cut -->
<g id="node7" class="node">
<title>Addition_plus_cut</title>
<g id="a_node7"><a xlink:href="Addition.html#plus_cut" xlink:title="plus_cut">
<ellipse fill="#f070d1" stroke="#000000" cx="2153" cy="-1071.829" rx="50.0912" ry="18"/>
<text text-anchor="middle" x="2153" y="-1068.129" font-family="Times,serif" font-size="14.00" fill="#000000">plus_cut</text>
</a>
</g>
</g>
<!-- Addition_plus_negate&#45;&gt;Addition_plus_cut -->
<g id="edge2" class="edge">
<title>Addition_plus_negate&#45;&gt;Addition_plus_cut</title>
<path fill="none" stroke="#000000" d="M2356.9004,-1211.4751C2310.9899,-1180.0321 2229.9003,-1124.496 2185.0599,-1093.786"/>
<polygon fill="#000000" stroke="#000000" points="2186.8246,-1090.7525 2176.5964,-1087.9895 2182.8692,-1096.5278 2186.8246,-1090.7525"/>
</g>
<!-- Addition_plus_lt_r -->
<g id="node8" class="node">
<title>Addition_plus_lt_r</title>
<g id="a_node8"><a xlink:href="Addition.html#plus_lt_r" xlink:title="plus_lt_r">
<ellipse fill="#f070d1" stroke="#000000" cx="2272" cy="-1071.829" rx="51.1914" ry="18"/>
<text text-anchor="middle" x="2272" y="-1068.129" font-family="Times,serif" font-size="14.00" fill="#000000">plus_lt_r</text>
</a>
</g>
</g>
<!-- Addition_plus_negate&#45;&gt;Addition_plus_lt_r -->
<g id="edge3" class="edge">
<title>Addition_plus_negate&#45;&gt;Addition_plus_lt_r</title>
<path fill="none" stroke="#000000" d="M2372.4063,-1209.3603C2350.2739,-1179.0444 2313.5056,-1128.6812 2291.137,-1098.0418"/>
<polygon fill="#000000" stroke="#000000" points="2293.6849,-1095.596 2284.9616,-1089.5831 2288.0313,-1099.7236 2293.6849,-1095.596"/>
</g>
<!-- Addition_plus_lt_l -->
<g id="node10" class="node">
<title>Addition_plus_lt_l</title>
<g id="a_node10"><a xlink:href="Addition.html#plus_lt_l" xlink:title="plus_lt_l">
<ellipse fill="#f070d1" stroke="#000000" cx="2391" cy="-1071.829" rx="50.0912" ry="18"/>
<text text-anchor="middle" x="2391" y="-1068.129" font-family="Times,serif" font-size="14.00" fill="#000000">plus_lt_l</text>
</a>
</g>
</g>
<!-- Addition_plus_negate&#45;&gt;Addition_plus_lt_l -->
<g id="edge4" class="edge">
<title>Addition_plus_negate&#45;&gt;Addition_plus_lt_l</title>
<path fill="none" stroke="#000000" d="M2391,-1208.6402C2391,-1178.9848 2391,-1130.8299 2391,-1100.2732"/>
<polygon fill="#000000" stroke="#000000" points="2394.5001,-1099.8785 2391,-1089.8785 2387.5001,-1099.8785 2394.5001,-1099.8785"/>
</g>
<!-- Addition_zero_plus -->
<g id="node3" class="node">
<title>Addition_zero_plus</title>
<g id="a_node3"><a xlink:href="Addition.html#zero_plus" xlink:title="zero_plus">
<ellipse fill="#f070d1" stroke="#000000" cx="2235" cy="-1234.829" rx="55.46" ry="18"/>
<ellipse fill="none" stroke="#000000" cx="2235" cy="-1234.829" rx="59.4756" ry="22"/>
<ellipse fill="none" stroke="#000000" cx="2235" cy="-1234.829" rx="63.4911" ry="26"/>
<text text-anchor="middle" x="2235" y="-1231.129" font-family="Times,serif" font-size="14.00" fill="#000000">zero_plus</text>
</a>
</g>
</g>
<!-- Addition_zero_plus&#45;&gt;Addition_plus_cut -->
<g id="edge5" class="edge">
<title>Addition_zero_plus&#45;&gt;Addition_plus_cut</title>
<path fill="none" stroke="#000000" d="M2222.1875,-1209.3603C2207.0675,-1179.3047 2182.0347,-1129.5444 2166.5859,-1098.8351"/>
<polygon fill="#000000" stroke="#000000" points="2169.5523,-1096.9435 2161.9315,-1089.5831 2163.299,-1100.0894 2169.5523,-1096.9435"/>
</g>
<!-- Addition_plus_zero -->
<g id="node4" class="node">
<title>Addition_plus_zero</title>
<g id="a_node4"><a xlink:href="Addition.html#plus_zero" xlink:title="plus_zero">
<ellipse fill="#f070d1" stroke="#000000" cx="2091" cy="-1234.829" rx="55.46" ry="18"/>
<ellipse fill="none" stroke="#000000" cx="2091" cy="-1234.829" rx="59.4756" ry="22"/>
<ellipse fill="none" stroke="#000000" cx="2091" cy="-1234.829" rx="63.4911" ry="26"/>
<text text-anchor="middle" x="2091" y="-1231.129" font-family="Times,serif" font-size="14.00" fill="#000000">plus_zero</text>
</a>
</g>
</g>
<!-- Addition_plus_zero&#45;&gt;Addition_plus_cut -->
<g id="edge6" class="edge">
<title>Addition_plus_zero&#45;&gt;Addition_plus_cut</title>
<path fill="none" stroke="#000000" d="M2100.8241,-1209.0012C2112.1747,-1179.1601 2130.7805,-1130.2447 2142.4358,-1099.6027"/>
<polygon fill="#000000" stroke="#000000" points="2145.8175,-1100.5566 2146.1014,-1089.9655 2139.2749,-1098.0679 2145.8175,-1100.5566"/>
</g>
<!-- Addition_plus_assoc -->
<g id="node5" class="node">
<title>Addition_plus_assoc</title>
<g id="a_node5"><a xlink:href="Addition.html#plus_assoc" xlink:title="plus_assoc">
<ellipse fill="#f070d1" stroke="#000000" cx="1941" cy="-1234.829" rx="61.1783" ry="18"/>
<ellipse fill="none" stroke="#000000" cx="1941" cy="-1234.829" rx="65.1838" ry="22"/>
<ellipse fill="none" stroke="#000000" cx="1941" cy="-1234.829" rx="69.1893" ry="26"/>
<text text-anchor="middle" x="1941" y="-1231.129" font-family="Times,serif" font-size="14.00" fill="#000000">plus_assoc</text>
</a>
</g>
</g>
<!-- Addition_plus_assoc&#45;&gt;Addition_plus_cut -->
<g id="edge7" class="edge">
<title>Addition_plus_assoc&#45;&gt;Addition_plus_cut</title>
<path fill="none" stroke="#000000" d="M1971.3744,-1211.4751C2011.9922,-1180.2453 2083.5225,-1125.248 2123.6255,-1094.4141"/>
<polygon fill="#000000" stroke="#000000" points="2125.8893,-1097.0885 2131.6836,-1088.2185 2121.6226,-1091.5392 2125.8893,-1097.0885"/>
</g>
<!-- Addition_plus_comm -->
<g id="node6" class="node">
<title>Addition_plus_comm</title>
<g id="a_node6"><a xlink:href="Addition.html#plus_comm" xlink:title="plus_comm">
<ellipse fill="#f070d1" stroke="#000000" cx="1782" cy="-1234.829" rx="63.8675" ry="18"/>
<ellipse fill="none" stroke="#000000" cx="1782" cy="-1234.829" rx="67.8784" ry="22"/>
<ellipse fill="none" stroke="#000000" cx="1782" cy="-1234.829" rx="71.8892" ry="26"/>
<text text-anchor="middle" x="1782" y="-1231.129" font-family="Times,serif" font-size="14.00" fill="#000000">plus_comm</text>
</a>
</g>
</g>
<!-- Addition_plus_comm&#45;&gt;Addition_plus_cut -->
<g id="edge8" class="edge">
<title>Addition_plus_comm&#45;&gt;Addition_plus_cut</title>
<path fill="none" stroke="#000000" d="M1827.739,-1214.7674C1888.5514,-1188.0893 1999.3712,-1139.4553 2094,-1097.829 2099.7826,-1095.2853 2105.8831,-1092.5995 2111.8802,-1089.9579"/>
<polygon fill="#000000" stroke="#000000" points="2113.4187,-1093.1048 2121.1587,-1085.8699 2110.5964,-1086.6989 2113.4187,-1093.1048"/>
</g>
<!-- Addition_plus_cut&#45;&gt;Addition_plus -->
<g id="edge9" class="edge">
<title>Addition_plus_cut&#45;&gt;Addition_plus</title>
<path fill="none" stroke="#000000" d="M2160.1168,-1053.8561C2170.3602,-1027.9872 2189.3384,-980.0593 2201.2829,-949.8943"/>
<polygon fill="#000000" stroke="#000000" points="2204.6137,-950.9892 2205.0412,-940.4029 2198.1054,-948.412 2204.6137,-950.9892"/>
</g>
<!-- Addition_plus_lt_r&#45;&gt;Addition_plus -->
<g id="edge10" class="edge">
<title>Addition_plus_lt_r&#45;&gt;Addition_plus</title>
<path fill="none" stroke="#000000" d="M2264.7626,-1053.8561C2254.3456,-1027.9872 2235.0457,-980.0593 2222.8988,-949.8943"/>
<polygon fill="#000000" stroke="#000000" points="2226.0588,-948.3717 2219.0768,-940.4029 2219.5655,-950.9865 2226.0588,-948.3717"/>
</g>
<!-- Addition_plus_le_r -->
<g id="node9" class="node">
<title>Addition_plus_le_r</title>
<g id="a_node9"><a xlink:href="Addition.html#plus_le_r" xlink:title="plus_le_r">
<ellipse fill="#f070d1" stroke="#000000" cx="2024" cy="-1071.829" rx="52.7718" ry="18"/>
<ellipse fill="none" stroke="#000000" cx="2024" cy="-1071.829" rx="56.7814" ry="22"/>
<ellipse fill="none" stroke="#000000" cx="2024" cy="-1071.829" rx="60.791" ry="26"/>
<text text-anchor="middle" x="2024" y="-1068.129" font-family="Times,serif" font-size="14.00" fill="#000000">plus_le_r</text>
</a>
</g>
</g>
<!-- Addition_plus_le_r&#45;&gt;Addition_plus -->
<g id="edge11" class="edge">
<title>Addition_plus_le_r&#45;&gt;Addition_plus</title>
<path fill="none" stroke="#000000" d="M2052.963,-1048.8743C2089.1977,-1020.1563 2150.7216,-971.3954 2185.6752,-943.6928"/>
<polygon fill="#000000" stroke="#000000" points="2187.8797,-946.4116 2193.5428,-937.4573 2183.5317,-940.9257 2187.8797,-946.4116"/>
</g>
<!-- Addition_plus_lt_l&#45;&gt;Addition_plus -->
<g id="edge12" class="edge">
<title>Addition_plus_lt_l&#45;&gt;Addition_plus</title>
<path fill="none" stroke="#000000" d="M2370.8144,-1055.0264C2338.1411,-1027.8291 2273.7122,-974.1984 2237.7718,-944.2815"/>
<polygon fill="#000000" stroke="#000000" points="2239.6332,-941.2771 2229.7083,-937.5694 2235.1549,-946.6571 2239.6332,-941.2771"/>
</g>
<!-- Addition_plus_le_l -->
<g id="node11" class="node">
<title>Addition_plus_le_l</title>
<g id="a_node11"><a xlink:href="Addition.html#plus_le_l" xlink:title="plus_le_l">
<ellipse fill="#f070d1" stroke="#000000" cx="1886" cy="-1071.829" rx="51.2121" ry="18"/>
<ellipse fill="none" stroke="#000000" cx="1886" cy="-1071.829" rx="55.2017" ry="22"/>
<ellipse fill="none" stroke="#000000" cx="1886" cy="-1071.829" rx="59.1913" ry="26"/>
<text text-anchor="middle" x="1886" y="-1068.129" font-family="Times,serif" font-size="14.00" fill="#000000">plus_le_l</text>
</a>
</g>
</g>
<!-- Addition_plus_le_l&#45;&gt;Addition_plus -->
<g id="edge13" class="edge">
<title>Addition_plus_le_l&#45;&gt;Addition_plus</title>
<path fill="none" stroke="#000000" d="M1927.2881,-1052.958C1992.5315,-1023.1382 2118.2182,-965.6925 2178.3481,-938.2098"/>
<polygon fill="#000000" stroke="#000000" points="2180.1191,-941.2487 2187.7592,-933.9084 2177.2092,-934.8821 2180.1191,-941.2487"/>
</g>
<!-- Addition_plus_outer -->
<g id="node13" class="node">
<title>Addition_plus_outer</title>
<g id="a_node13"><a xlink:href="Addition.html#plus_outer" xlink:title="plus_outer">
<ellipse fill="#f070d1" stroke="#000000" cx="2212" cy="-789.829" rx="59.5901" ry="18"/>
<text text-anchor="middle" x="2212" y="-786.129" font-family="Times,serif" font-size="14.00" fill="#000000">plus_outer</text>
</a>
</g>
</g>
<!-- Addition_plus&#45;&gt;Addition_plus_outer -->
<g id="edge14" class="edge">
<title>Addition_plus&#45;&gt;Addition_plus_outer</title>
<path fill="none" stroke="#000000" d="M2212,-904.6148C2212,-882.3547 2212,-844.4336 2212,-818.306"/>
<polygon fill="#000000" stroke="#000000" points="2215.5001,-818.25 2212,-808.25 2208.5001,-818.2501 2215.5001,-818.25"/>
</g>
<!-- Addition_plus_outer_subproof2 -->
<g id="node14" class="node">
<title>Addition_plus_outer_subproof2</title>
<g id="a_node14"><a xlink:href="Addition.html#plus_outer_subproof2" xlink:title="plus_outer_subproof2">
<ellipse fill="#f070d1" stroke="#000000" cx="2348" cy="-655.829" rx="111.5806" ry="18"/>
<text text-anchor="middle" x="2348" y="-652.129" font-family="Times,serif" font-size="14.00" fill="#000000">plus_outer_subproof2</text>
</a>
</g>
</g>
<!-- Addition_plus_outer&#45;&gt;Addition_plus_outer_subproof2 -->
<g id="edge15" class="edge">
<title>Addition_plus_outer&#45;&gt;Addition_plus_outer_subproof2</title>
<path fill="none" stroke="#000000" d="M2229.5012,-772.5852C2253.1085,-749.325 2295.3185,-707.7358 2322.468,-680.9856"/>
<polygon fill="#000000" stroke="#000000" points="2325.0314,-683.3734 2329.6982,-673.8617 2320.1184,-678.3871 2325.0314,-683.3734"/>
</g>
<!-- Addition_plus_outer_subproof1 -->
<g id="node15" class="node">
<title>Addition_plus_outer_subproof1</title>
<g id="a_node15"><a xlink:href="Addition.html#plus_outer_subproof1" xlink:title="plus_outer_subproof1">
<ellipse fill="#f070d1" stroke="#000000" cx="1864" cy="-655.829" rx="111.5806" ry="18"/>
<text text-anchor="middle" x="1864" y="-652.129" font-family="Times,serif" font-size="14.00" fill="#000000">plus_outer_subproof1</text>
</a>
</g>
</g>
<!-- Addition_plus_outer&#45;&gt;Addition_plus_outer_subproof1 -->
<g id="edge16" class="edge">
<title>Addition_plus_outer&#45;&gt;Addition_plus_outer_subproof1</title>
<path fill="none" stroke="#000000" d="M2175.0874,-775.6155C2113.1887,-751.781 1988.2572,-703.6752 1916.9862,-676.2317"/>
<polygon fill="#000000" stroke="#000000" points="1917.8877,-672.8284 1907.2979,-672.5012 1915.3723,-679.3608 1917.8877,-672.8284"/>
</g>
<!-- Addition_plus_outer_subproof0 -->
<g id="node16" class="node">
<title>Addition_plus_outer_subproof0</title>
<g id="a_node16"><a xlink:href="Addition.html#plus_outer_subproof0" xlink:title="plus_outer_subproof0">
<ellipse fill="#f070d1" stroke="#000000" cx="2106" cy="-655.829" rx="111.5806" ry="18"/>
<text text-anchor="middle" x="2106" y="-652.129" font-family="Times,serif" font-size="14.00" fill="#000000">plus_outer_subproof0</text>
</a>
</g>
</g>
<!-- Addition_plus_outer&#45;&gt;Addition_plus_outer_subproof0 -->
<g id="edge17" class="edge">
<title>Addition_plus_outer&#45;&gt;Addition_plus_outer_subproof0</title>
<path fill="none" stroke="#000000" d="M2198.1424,-772.3108C2179.9127,-749.2658 2147.724,-708.5745 2126.6274,-681.9052"/>
<polygon fill="#000000" stroke="#000000" points="2129.1484,-679.4506 2120.1994,-673.7792 2123.6584,-683.7934 2129.1484,-679.4506"/>
</g>
<!-- Addition_plus_outer_subproof -->
<g id="node17" class="node">
<title>Addition_plus_outer_subproof</title>
<g id="a_node17"><a xlink:href="Addition.html#plus_outer_subproof" xlink:title="plus_outer_subproof">
<ellipse fill="#f070d1" stroke="#000000" cx="2584" cy="-655.829" rx="105.8812" ry="18"/>
<text text-anchor="middle" x="2584" y="-652.129" font-family="Times,serif" font-size="14.00" fill="#000000">plus_outer_subproof</text>
</a>
</g>
</g>
<!-- Addition_plus_outer&#45;&gt;Addition_plus_outer_subproof -->
<g id="edge18" class="edge">
<title>Addition_plus_outer&#45;&gt;Addition_plus_outer_subproof</title>
<path fill="none" stroke="#000000" d="M2250.4094,-775.9934C2316.7224,-752.1064 2452.8888,-703.0572 2529.1553,-675.5849"/>
<polygon fill="#000000" stroke="#000000" points="2530.38,-678.8639 2538.6021,-672.182 2528.0077,-672.2782 2530.38,-678.8639"/>
</g>
<!-- Addition_plus_inner_cut -->
<g id="node18" class="node">
<title>Addition_plus_inner_cut</title>
<g id="a_node18"><a xlink:href="Addition.html#plus_inner_cut" xlink:title="plus_inner_cut">
<ellipse fill="#f070d1" stroke="#000000" cx="2106" cy="-522.829" rx="79.0865" ry="18"/>
<text text-anchor="middle" x="2106" y="-519.129" font-family="Times,serif" font-size="14.00" fill="#000000">plus_inner_cut</text>
</a>
</g>
</g>
<!-- Addition_plus_outer_subproof2&#45;&gt;Addition_plus_inner_cut -->
<g id="edge19" class="edge">
<title>Addition_plus_outer_subproof2&#45;&gt;Addition_plus_inner_cut</title>
<path fill="none" stroke="#000000" d="M2316.3627,-638.4416C2272.4306,-614.2971 2192.9886,-570.6368 2145.3057,-544.4309"/>
<polygon fill="#000000" stroke="#000000" points="2146.9495,-541.3406 2136.5001,-539.5914 2143.578,-547.4752 2146.9495,-541.3406"/>
</g>
<!-- Addition_plus_outer_subproof1&#45;&gt;Addition_plus_inner_cut -->
<g id="edge20" class="edge">
<title>Addition_plus_outer_subproof1&#45;&gt;Addition_plus_inner_cut</title>
<path fill="none" stroke="#000000" d="M1895.6373,-638.4416C1939.5694,-614.2971 2019.0114,-570.6368 2066.6943,-544.4309"/>
<polygon fill="#000000" stroke="#000000" points="2068.422,-547.4752 2075.4999,-539.5914 2065.0505,-541.3406 2068.422,-547.4752"/>
</g>
<!-- Addition_plus_outer_subproof0&#45;&gt;Addition_plus_inner_cut -->
<g id="edge21" class="edge">
<title>Addition_plus_outer_subproof0&#45;&gt;Addition_plus_inner_cut</title>
<path fill="none" stroke="#000000" d="M2106,-637.6148C2106,-615.3547 2106,-577.4336 2106,-551.306"/>
<polygon fill="#000000" stroke="#000000" points="2109.5001,-551.25 2106,-541.25 2102.5001,-551.2501 2109.5001,-551.25"/>
</g>
<!-- Addition_plus_inner -->
<g id="node19" class="node">
<title>Addition_plus_inner</title>
<g id="a_node19"><a xlink:href="Addition.html#plus_inner" xlink:title="plus_inner">
<ellipse fill="#f070d1" stroke="#000000" cx="2106" cy="-374.829" rx="59.5901" ry="18"/>
<text text-anchor="middle" x="2106" y="-371.129" font-family="Times,serif" font-size="14.00" fill="#000000">plus_inner</text>
</a>
</g>
</g>
<!-- Addition_plus_inner_cut&#45;&gt;Addition_plus_inner -->
<g id="edge22" class="edge">
<title>Addition_plus_inner_cut&#45;&gt;Addition_plus_inner</title>
<path fill="none" stroke="#000000" d="M2106,-504.6813C2106,-479.3829 2106,-433.2632 2106,-403.3457"/>
<polygon fill="#000000" stroke="#000000" points="2109.5001,-403.1251 2106,-393.1251 2102.5001,-403.1252 2109.5001,-403.1251"/>
</g>
<!-- Addition_plus_inner_subproof3 -->
<g id="node20" class="node">
<title>Addition_plus_inner_subproof3</title>
<g id="a_node20"><a xlink:href="Addition.html#plus_inner_subproof3" xlink:title="plus_inner_subproof3">
<ellipse fill="#f070d1" stroke="#000000" cx="2103" cy="-210.829" rx="111.2805" ry="18"/>
<text text-anchor="middle" x="2103" y="-207.129" font-family="Times,serif" font-size="14.00" fill="#000000">plus_inner_subproof3</text>
</a>
</g>
</g>
<!-- Addition_plus_inner&#45;&gt;Addition_plus_inner_subproof3 -->
<g id="edge23" class="edge">
<title>Addition_plus_inner&#45;&gt;Addition_plus_inner_subproof3</title>
<path fill="none" stroke="#000000" d="M2105.6675,-356.6515C2105.1471,-328.2059 2104.1363,-272.9442 2103.5193,-239.2194"/>
<polygon fill="#000000" stroke="#000000" points="2107.0164,-239.0222 2103.334,-229.0879 2100.0176,-239.1503 2107.0164,-239.0222"/>
</g>
<!-- Addition_plus_inner_subproof2 -->
<g id="node21" class="node">
<title>Addition_plus_inner_subproof2</title>
<g id="a_node21"><a xlink:href="Addition.html#plus_inner_subproof2" xlink:title="plus_inner_subproof2">
<ellipse fill="#f070d1" stroke="#000000" cx="2343" cy="-210.829" rx="111.2805" ry="18"/>
<text text-anchor="middle" x="2343" y="-207.129" font-family="Times,serif" font-size="14.00" fill="#000000">plus_inner_subproof2</text>
</a>
</g>
</g>
<!-- Addition_plus_inner&#45;&gt;Addition_plus_inner_subproof2 -->
<g id="edge24" class="edge">
<title>Addition_plus_inner&#45;&gt;Addition_plus_inner_subproof2</title>
<path fill="none" stroke="#000000" d="M2130.0291,-358.2013C2172.4367,-328.8559 2260.6506,-267.8134 2309.1827,-234.23"/>
<polygon fill="#000000" stroke="#000000" points="2311.2453,-237.059 2317.4768,-228.4906 2307.262,-231.3028 2311.2453,-237.059"/>
</g>
<!-- Addition_plus_inner_subproof1 -->
<g id="node22" class="node">
<title>Addition_plus_inner_subproof1</title>
<g id="a_node22"><a xlink:href="Addition.html#plus_inner_subproof1" xlink:title="plus_inner_subproof1">
<ellipse fill="#f070d1" stroke="#000000" cx="1863" cy="-210.829" rx="111.2805" ry="18"/>
<text text-anchor="middle" x="1863" y="-207.129" font-family="Times,serif" font-size="14.00" fill="#000000">plus_inner_subproof1</text>
</a>
</g>
</g>
<!-- Addition_plus_inner&#45;&gt;Addition_plus_inner_subproof1 -->
<g id="edge25" class="edge">
<title>Addition_plus_inner&#45;&gt;Addition_plus_inner_subproof1</title>
<path fill="none" stroke="#000000" d="M2081.3626,-358.2013C2037.8813,-328.8559 1947.4342,-267.8134 1897.6734,-234.23"/>
<polygon fill="#000000" stroke="#000000" points="1899.4162,-231.1837 1889.1693,-228.4906 1895.5002,-236.9859 1899.4162,-231.1837"/>
</g>
<!-- Addition_plus_inner_subproof0 -->
<g id="node23" class="node">
<title>Addition_plus_inner_subproof0</title>
<g id="a_node23"><a xlink:href="Addition.html#plus_inner_subproof0" xlink:title="plus_inner_subproof0">
<ellipse fill="#f070d1" stroke="#000000" cx="2583" cy="-210.829" rx="111.2805" ry="18"/>
<text text-anchor="middle" x="2583" y="-207.129" font-family="Times,serif" font-size="14.00" fill="#000000">plus_inner_subproof0</text>
</a>
</g>
</g>
<!-- Addition_plus_inner&#45;&gt;Addition_plus_inner_subproof0 -->
<g id="edge26" class="edge">
<title>Addition_plus_inner&#45;&gt;Addition_plus_inner_subproof0</title>
<path fill="none" stroke="#000000" d="M2145.4407,-361.2687C2229.7099,-332.2956 2427.612,-264.2538 2525.7491,-230.5128"/>
<polygon fill="#000000" stroke="#000000" points="2527.1798,-233.722 2535.4985,-227.1607 2524.9038,-227.1023 2527.1798,-233.722"/>
</g>
<!-- Addition_plus_inner_subproof -->
<g id="node24" class="node">
<title>Addition_plus_inner_subproof</title>
<g id="a_node24"><a xlink:href="Addition.html#plus_inner_subproof" xlink:title="plus_inner_subproof">
<ellipse fill="#f070d1" stroke="#000000" cx="2103" cy="-62.829" rx="105.0817" ry="18"/>
<text text-anchor="middle" x="2103" y="-59.129" font-family="Times,serif" font-size="14.00" fill="#000000">plus_inner_subproof</text>
</a>
</g>
</g>
<!-- Addition_plus_inner_subproof3&#45;&gt;Addition_plus_inner_subproof -->
<g id="edge27" class="edge">
<title>Addition_plus_inner_subproof3&#45;&gt;Addition_plus_inner_subproof</title>
<path fill="none" stroke="#000000" d="M2103,-192.6813C2103,-167.3829 2103,-121.2632 2103,-91.3457"/>
<polygon fill="#000000" stroke="#000000" points="2106.5001,-91.1251 2103,-81.1251 2099.5001,-91.1252 2106.5001,-91.1251"/>
</g>
<!-- Addition_HasAddition -->
<g id="node35" class="node">
<title>Addition_HasAddition</title>
<g id="a_node35"><a xlink:href="Addition.html#HasAddition" xlink:title="HasAddition">
<ellipse fill="#e2cdfa" stroke="#000000" cx="1275" cy="-62.829" rx="68.7879" ry="18"/>
<text text-anchor="middle" x="1275" y="-59.129" font-family="Times,serif" font-size="14.00" fill="#000000">HasAddition</text>
</a>
</g>
</g>
<!-- Addition_plus_inner_subproof3&#45;&gt;Addition_HasAddition -->
<g id="edge28" class="edge">
<title>Addition_plus_inner_subproof3&#45;&gt;Addition_HasAddition</title>
<path fill="none" stroke="#000000" d="M2038.0233,-196.2206C2020.2167,-192.362 2000.8909,-188.307 1983,-184.829 1749.6506,-139.466 1471.3358,-94.0275 1344.3443,-73.7689"/>
<polygon fill="#000000" stroke="#000000" points="1344.79,-70.2958 1334.3638,-72.1789 1343.6886,-77.2086 1344.79,-70.2958"/>
</g>
<!-- Addition_plus_inner_subproof2&#45;&gt;Addition_plus_inner_subproof -->
<g id="edge29" class="edge">
<title>Addition_plus_inner_subproof2&#45;&gt;Addition_plus_inner_subproof</title>
<path fill="none" stroke="#000000" d="M2314.5264,-193.2703C2271.0427,-166.4553 2188.0827,-115.2967 2139.9928,-85.6412"/>
<polygon fill="#000000" stroke="#000000" points="2141.7854,-82.6347 2131.4366,-80.3649 2138.1112,-88.5929 2141.7854,-82.6347"/>
</g>
<!-- Addition_plus_inner_subproof2&#45;&gt;Addition_HasAddition -->
<g id="edge30" class="edge">
<title>Addition_plus_inner_subproof2&#45;&gt;Addition_HasAddition</title>
<path fill="none" stroke="#000000" d="M2279.3636,-195.9825C2261.216,-192.0369 2241.3811,-187.9971 2223,-184.829 1899.7674,-129.1181 1510.5232,-86.7063 1349.9002,-70.2692"/>
<polygon fill="#000000" stroke="#000000" points="1349.9575,-66.7569 1339.654,-69.2242 1349.2472,-73.7208 1349.9575,-66.7569"/>
</g>
<!-- Addition_plus_inner_subproof1&#45;&gt;Addition_plus_inner_subproof -->
<g id="edge31" class="edge">
<title>Addition_plus_inner_subproof1&#45;&gt;Addition_plus_inner_subproof</title>
<path fill="none" stroke="#000000" d="M1891.4736,-193.2703C1934.9573,-166.4553 2017.9173,-115.2967 2066.0072,-85.6412"/>
<polygon fill="#000000" stroke="#000000" points="2067.8888,-88.5929 2074.5634,-80.3649 2064.2146,-82.6347 2067.8888,-88.5929"/>
</g>
<!-- Addition_plus_inner_subproof1&#45;&gt;Addition_HasAddition -->
<g id="edge32" class="edge">
<title>Addition_plus_inner_subproof1&#45;&gt;Addition_HasAddition</title>
<path fill="none" stroke="#000000" d="M1802.837,-195.6859C1689.8981,-167.2591 1447.4027,-106.2229 1334.7673,-77.8725"/>
<polygon fill="#000000" stroke="#000000" points="1335.4827,-74.4434 1324.9309,-75.3966 1333.7741,-81.2317 1335.4827,-74.4434"/>
</g>
<!-- Addition_hasaddition_decsort -->
<g id="node25" class="node">
<title>Addition_hasaddition_decsort</title>
<g id="a_node25"><a xlink:href="Addition.html#hasaddition_decsort" xlink:title="hasaddition_decsort">
<ellipse fill="#f070d1" stroke="#000000" cx="841" cy="-210.829" rx="104.7716" ry="18"/>
<ellipse fill="none" stroke="#000000" cx="841" cy="-210.829" rx="108.7766" ry="22"/>
<ellipse fill="none" stroke="#000000" cx="841" cy="-210.829" rx="112.7816" ry="26"/>
<text text-anchor="middle" x="841" y="-207.129" font-family="Times,serif" font-size="14.00" fill="#000000">hasaddition_decsort</text>
</a>
</g>
</g>
<!-- Addition_Build_HasAddition -->
<g id="node34" class="node">
<title>Addition_Build_HasAddition</title>
<g id="a_node34"><a xlink:href="Addition.html#Build_HasAddition" xlink:title="Build_HasAddition">
<ellipse fill="#7faaff" stroke="#000000" cx="719" cy="-62.829" rx="98.2828" ry="18"/>
<text text-anchor="middle" x="719" y="-59.129" font-family="Times,serif" font-size="14.00" fill="#000000">Build_HasAddition</text>
</a>
</g>
</g>
<!-- Addition_hasaddition_decsort&#45;&gt;Addition_Build_HasAddition -->
<g id="edge33" class="edge">
<title>Addition_hasaddition_decsort&#45;&gt;Addition_Build_HasAddition</title>
<path fill="none" stroke="#000000" d="M819.7492,-185.0494C797.4764,-158.0299 762.6809,-115.8189 740.3653,-88.7475"/>
<polygon fill="#000000" stroke="#000000" points="742.9296,-86.3557 733.8681,-80.8657 737.5281,-90.8083 742.9296,-86.3557"/>
</g>
<!-- Addition_hasaddition_decsort&#45;&gt;Addition_HasAddition -->
<g id="edge34" class="edge">
<title>Addition_hasaddition_decsort&#45;&gt;Addition_HasAddition</title>
<path fill="none" stroke="#000000" d="M904.5721,-189.15C990.823,-159.7373 1143.2831,-107.7463 1223.0536,-80.5434"/>
<polygon fill="#000000" stroke="#000000" points="1224.5441,-83.7332 1232.8792,-77.1928 1222.2847,-77.1078 1224.5441,-83.7332"/>
</g>
<!-- Addition_hasaddition_ordsort -->
<g id="node26" class="node">
<title>Addition_hasaddition_ordsort</title>
<g id="a_node26"><a xlink:href="Addition.html#hasaddition_ordsort" xlink:title="hasaddition_ordsort">
<ellipse fill="#f070d1" stroke="#000000" cx="598" cy="-210.829" rx="103.9822" ry="18"/>
<ellipse fill="none" stroke="#000000" cx="598" cy="-210.829" rx="107.9819" ry="22"/>
<ellipse fill="none" stroke="#000000" cx="598" cy="-210.829" rx="111.9815" ry="26"/>
<text text-anchor="middle" x="598" y="-207.129" font-family="Times,serif" font-size="14.00" fill="#000000">hasaddition_ordsort</text>
</a>
</g>
</g>
<!-- Addition_hasaddition_ordsort&#45;&gt;Addition_Build_HasAddition -->
<g id="edge35" class="edge">
<title>Addition_hasaddition_ordsort&#45;&gt;Addition_Build_HasAddition</title>
<path fill="none" stroke="#000000" d="M619.0766,-185.0494C641.1668,-158.0299 675.6771,-115.8189 697.8098,-88.7475"/>
<polygon fill="#000000" stroke="#000000" points="700.6339,-90.823 704.2538,-80.8657 695.2145,-86.3923 700.6339,-90.823"/>
</g>
<!-- Addition_hasaddition_ordsort&#45;&gt;Addition_HasAddition -->
<g id="edge36" class="edge">
<title>Addition_hasaddition_ordsort&#45;&gt;Addition_HasAddition</title>
<path fill="none" stroke="#000000" d="M679.662,-192.9767C816.3174,-163.1023 1088.4536,-103.6102 1211.7159,-76.6636"/>
<polygon fill="#000000" stroke="#000000" points="1212.7305,-80.0246 1221.7523,-74.4696 1211.2355,-73.1861 1212.7305,-80.0246"/>
</g>
<!-- Addition_hasaddition_maxsort -->
<g id="node27" class="node">
<title>Addition_hasaddition_maxsort</title>
<g id="a_node27"><a xlink:href="Addition.html#hasaddition_maxsort" xlink:title="hasaddition_maxsort">
<ellipse fill="#f070d1" stroke="#000000" cx="352" cy="-210.829" rx="107.7885" ry="18"/>
<ellipse fill="none" stroke="#000000" cx="352" cy="-210.829" rx="111.7847" ry="22"/>
<ellipse fill="none" stroke="#000000" cx="352" cy="-210.829" rx="115.781" ry="26"/>
<text text-anchor="middle" x="352" y="-207.129" font-family="Times,serif" font-size="14.00" fill="#000000">hasaddition_maxsort</text>
</a>
</g>
</g>
<!-- Addition_hasaddition_maxsort&#45;&gt;Addition_Build_HasAddition -->
<g id="edge37" class="edge">
<title>Addition_hasaddition_maxsort&#45;&gt;Addition_Build_HasAddition</title>
<path fill="none" stroke="#000000" d="M408.5395,-188.0283C479.6387,-159.3562 600.6155,-110.5699 668.6612,-83.1291"/>
<polygon fill="#000000" stroke="#000000" points="670.3392,-86.2264 678.3044,-79.2403 667.7211,-79.7344 670.3392,-86.2264"/>
</g>
<!-- Addition_hasaddition_maxsort&#45;&gt;Addition_HasAddition -->
<g id="edge38" class="edge">
<title>Addition_hasaddition_maxsort&#45;&gt;Addition_HasAddition</title>
<path fill="none" stroke="#000000" d="M435.5916,-192.7986C449.4004,-190.0052 463.5843,-187.248 477,-184.829 743.9331,-136.6987 1063.3382,-91.6154 1203.324,-72.4792"/>
<polygon fill="#000000" stroke="#000000" points="1204.0578,-75.9116 1213.4927,-71.0917 1203.1113,-68.9759 1204.0578,-75.9116"/>
</g>
<!-- Addition_sum_options -->
<g id="node28" class="node">
<title>Addition_sum_options</title>
<g id="a_node28"><a xlink:href="Addition.html#sum_options" xlink:title="sum_options">
<ellipse fill="#f070d1" stroke="#000000" cx="1656" cy="-210.829" rx="69.5832" ry="18"/>
<ellipse fill="none" stroke="#000000" cx="1656" cy="-210.829" rx="73.5854" ry="22"/>
<ellipse fill="none" stroke="#000000" cx="1656" cy="-210.829" rx="77.5877" ry="26"/>
<text text-anchor="middle" x="1656" y="-207.129" font-family="Times,serif" font-size="14.00" fill="#000000">sum_options</text>
</a>
</g>
</g>
<!-- Addition_sum_options&#45;&gt;Addition_HasAddition -->
<g id="edge39" class="edge">
<title>Addition_sum_options&#45;&gt;Addition_HasAddition</title>
<path fill="none" stroke="#000000" d="M1605.012,-191.0226C1531.0756,-162.3019 1395.0736,-109.4718 1322.9071,-81.4386"/>
<polygon fill="#000000" stroke="#000000" points="1324.1729,-78.1756 1313.5841,-77.8171 1321.6382,-84.7006 1324.1729,-78.1756"/>
</g>
<!-- Addition_empty_options -->
<g id="node29" class="node">
<title>Addition_empty_options</title>
<g id="a_node29"><a xlink:href="Addition.html#empty_options" xlink:title="empty_options">
<ellipse fill="#f070d1" stroke="#000000" cx="1473" cy="-210.829" rx="79.1053" ry="18"/>
<ellipse fill="none" stroke="#000000" cx="1473" cy="-210.829" rx="83.0959" ry="22"/>
<ellipse fill="none" stroke="#000000" cx="1473" cy="-210.829" rx="87.0864" ry="26"/>
<text text-anchor="middle" x="1473" y="-207.129" font-family="Times,serif" font-size="14.00" fill="#000000">empty_options</text>
</a>
</g>
</g>
<!-- Addition_empty_options&#45;&gt;Addition_HasAddition -->
<g id="edge40" class="edge">
<title>Addition_empty_options&#45;&gt;Addition_HasAddition</title>
<path fill="none" stroke="#000000" d="M1440.3043,-186.3898C1403.0869,-158.5708 1342.7322,-113.4571 1306.1641,-86.1234"/>
<polygon fill="#000000" stroke="#000000" points="1307.9573,-83.094 1297.8521,-79.9104 1303.7663,-88.7008 1307.9573,-83.094"/>
</g>
<!-- Addition_HasAddition_sind -->
<g id="node30" class="node">
<title>Addition_HasAddition_sind</title>
<g id="a_node30"><a xlink:href="Addition.html#HasAddition_sind" xlink:title="HasAddition_sind">
<ellipse fill="#f070d1" stroke="#000000" cx="117" cy="-210.829" rx="92.8882" ry="18"/>
<ellipse fill="none" stroke="#000000" cx="117" cy="-210.829" rx="96.8858" ry="22"/>
<ellipse fill="none" stroke="#000000" cx="117" cy="-210.829" rx="100.8835" ry="26"/>
<text text-anchor="middle" x="117" y="-207.129" font-family="Times,serif" font-size="14.00" fill="#000000">HasAddition_sind</text>
</a>
</g>
</g>
<!-- Addition_HasAddition_sind&#45;&gt;Addition_Build_HasAddition -->
<g id="edge41" class="edge">
<title>Addition_HasAddition_sind&#45;&gt;Addition_Build_HasAddition</title>
<path fill="none" stroke="#000000" d="M190.2152,-192.8293C307.4718,-164.0021 535.7919,-107.8702 650.1939,-79.7448"/>
<polygon fill="#000000" stroke="#000000" points="651.3596,-83.0625 660.2348,-77.2763 649.6883,-76.2649 651.3596,-83.0625"/>
</g>
<!-- Addition_HasAddition_sind&#45;&gt;Addition_HasAddition -->
<g id="edge42" class="edge">
<title>Addition_HasAddition_sind&#45;&gt;Addition_HasAddition</title>
<path fill="none" stroke="#000000" d="M188.9392,-192.5605C201.571,-189.7153 214.6306,-187.0032 227,-184.829 588.064,-121.3631 1025.1083,-82.5654 1198.6511,-68.6552"/>
<polygon fill="#000000" stroke="#000000" points="1199.0157,-72.1373 1208.7058,-67.8536 1198.4592,-65.1595 1199.0157,-72.1373"/>
</g>
<!-- Addition_HasAddition_rec -->
<g id="node31" class="node">
<title>Addition_HasAddition_rec</title>
<g id="a_node31"><a xlink:href="Addition.html#HasAddition_rec" xlink:title="HasAddition_rec">
<ellipse fill="#f070d1" stroke="#000000" cx="1275" cy="-374.829" rx="89.0807" ry="18"/>
<ellipse fill="none" stroke="#000000" cx="1275" cy="-374.829" rx="93.0825" ry="22"/>
<ellipse fill="none" stroke="#000000" cx="1275" cy="-374.829" rx="97.0842" ry="26"/>
<text text-anchor="middle" x="1275" y="-371.129" font-family="Times,serif" font-size="14.00" fill="#000000">HasAddition_rec</text>
</a>
</g>
</g>
<!-- Addition_HasAddition_rect -->
<g id="node33" class="node">
<title>Addition_HasAddition_rect</title>
<g id="a_node33"><a xlink:href="Addition.html#HasAddition_rect" xlink:title="HasAddition_rect">
<ellipse fill="#f070d1" stroke="#000000" cx="1275" cy="-210.829" rx="92.8835" ry="18"/>
<text text-anchor="middle" x="1275" y="-207.129" font-family="Times,serif" font-size="14.00" fill="#000000">HasAddition_rect</text>
</a>
</g>
</g>
<!-- Addition_HasAddition_rec&#45;&gt;Addition_HasAddition_rect -->
<g id="edge43" class="edge">
<title>Addition_HasAddition_rec&#45;&gt;Addition_HasAddition_rect</title>
<path fill="none" stroke="#000000" d="M1275,-348.4796C1275,-318.5113 1275,-269.7665 1275,-239.0442"/>
<polygon fill="#000000" stroke="#000000" points="1278.5001,-238.9892 1275,-228.9892 1271.5001,-238.9893 1278.5001,-238.9892"/>
</g>
<!-- Addition_HasAddition_ind -->
<g id="node32" class="node">
<title>Addition_HasAddition_ind</title>
<g id="a_node32"><a xlink:href="Addition.html#HasAddition_ind" xlink:title="HasAddition_ind">
<ellipse fill="#7fffd4" stroke="#000000" cx="1068" cy="-210.829" rx="88.2934" ry="18"/>
<ellipse fill="none" stroke="#000000" cx="1068" cy="-210.829" rx="92.2889" ry="22"/>
<ellipse fill="none" stroke="#000000" cx="1068" cy="-210.829" rx="96.2844" ry="26"/>
<text text-anchor="middle" x="1068" y="-207.129" font-family="Times,serif" font-size="14.00" fill="#000000">HasAddition_ind</text>
</a>
</g>
</g>
<!-- Addition_HasAddition_ind&#45;&gt;Addition_Build_HasAddition -->
<g id="edge44" class="edge">
<title>Addition_HasAddition_ind&#45;&gt;Addition_Build_HasAddition</title>
<path fill="none" stroke="#000000" d="M1016.128,-188.8317C948.9833,-160.3577 832.8581,-111.1127 767.4358,-83.3691"/>
<polygon fill="#000000" stroke="#000000" points="768.7359,-80.1188 758.1631,-79.4368 766.003,-86.5633 768.7359,-80.1188"/>
</g>
<!-- Addition_HasAddition_ind&#45;&gt;Addition_HasAddition -->
<g id="edge45" class="edge">
<title>Addition_HasAddition_ind&#45;&gt;Addition_HasAddition</title>
<path fill="none" stroke="#000000" d="M1102.1818,-186.3898C1141.2551,-158.4534 1204.722,-113.0761 1242.9019,-85.7784"/>
<polygon fill="#000000" stroke="#000000" points="1245.0101,-88.5736 1251.1092,-79.9104 1240.9388,-82.8793 1245.0101,-88.5736"/>
</g>
<!-- Addition_HasAddition_rect&#45;&gt;Addition_Build_HasAddition -->
<g id="edge46" class="edge">
<title>Addition_HasAddition_rect&#45;&gt;Addition_Build_HasAddition</title>
<path fill="none" stroke="#000000" d="M1220.1669,-196.2332C1117.2485,-168.8376 895.5586,-109.8266 784.7909,-80.3417"/>
<polygon fill="#000000" stroke="#000000" points="785.6349,-76.9445 775.0711,-77.7544 783.8342,-83.709 785.6349,-76.9445"/>
</g>
<!-- Addition_HasAddition_rect&#45;&gt;Addition_HasAddition -->
<g id="edge47" class="edge">
<title>Addition_HasAddition_rect&#45;&gt;Addition_HasAddition</title>
<path fill="none" stroke="#000000" d="M1275,-192.6813C1275,-167.3829 1275,-121.2632 1275,-91.3457"/>
<polygon fill="#000000" stroke="#000000" points="1278.5001,-91.1251 1275,-81.1251 1271.5001,-91.1252 1278.5001,-91.1251"/>
</g>
</g>
</svg>
