<?xml version="1.0" encoding="UTF-8" standalone="no"?>
<!DOCTYPE svg PUBLIC "-//W3C//DTD SVG 1.1//EN"
 "http://www.w3.org/Graphics/SVG/1.1/DTD/svg11.dtd">
<!-- Generated by graphviz version 2.40.1 (20161225.0304)
 -->
<!-- Title: HoTT_Diagrams_Sequence Pages: 1 -->
<svg width="510pt" height="259pt"
 viewBox="0.00 0.00 510.00 259.00" xmlns="http://www.w3.org/2000/svg" xmlns:xlink="http://www.w3.org/1999/xlink">
<g id="graph0" class="graph" transform="scale(1 1) rotate(0) translate(4 255)">
<title>HoTT_Diagrams_Sequence</title>
<polygon fill="#ffffff" stroke="transparent" points="-4,4 -4,-255 506,-255 506,4 -4,4"/>
<g id="clust1" class="cluster">
<title>cluster_Sequence</title>
<polygon fill="#ffffc3" stroke="#000000" points="9.5166,-8 9.5166,-243 492.4834,-243 492.4834,-8 9.5166,-8"/>
<text text-anchor="middle" x="52.5166" y="-227.8" font-family="Times,serif" font-size="14.00" fill="#000000">Sequence</text>
</g>
<!-- Sequence_equiv_sequence -->
<g id="node1" class="node">
<title>Sequence_equiv_sequence</title>
<g id="a_node1"><a xlink:href="Sequence.html#equiv_sequence" xlink:title="equiv_sequence">
<ellipse fill="#f070d1" stroke="#000000" cx="372.4597" cy="-186" rx="85.2729" ry="18"/>
<ellipse fill="none" stroke="#000000" cx="372.4597" cy="-186" rx="89.279" ry="22"/>
<ellipse fill="none" stroke="#000000" cx="372.4597" cy="-186" rx="93.2851" ry="26"/>
<text text-anchor="middle" x="372.4597" y="-182.3" font-family="Times,serif" font-size="14.00" fill="#000000">equiv_sequence</text>
</a>
</g>
</g>
<!-- Sequence_Sequence -->
<g id="node3" class="node">
<title>Sequence_Sequence</title>
<g id="a_node3"><a xlink:href="Sequence.html#Sequence" xlink:title="Sequence">
<ellipse fill="#f070d1" stroke="#000000" cx="251.4597" cy="-106" rx="55.7903" ry="18"/>
<text text-anchor="middle" x="251.4597" y="-102.3" font-family="Times,serif" font-size="14.00" fill="#000000">Sequence</text>
</a>
</g>
</g>
<!-- Sequence_equiv_sequence&#45;&gt;Sequence_Sequence -->
<g id="edge1" class="edge">
<title>Sequence_equiv_sequence&#45;&gt;Sequence_Sequence</title>
<path fill="none" stroke="#000000" d="M336.1557,-161.9974C319.8274,-151.2018 300.6838,-138.5448 284.7315,-127.9979"/>
<polygon fill="#000000" stroke="#000000" points="286.5076,-124.9763 276.2356,-122.3807 282.6469,-130.8155 286.5076,-124.9763"/>
</g>
<!-- Sequence_Build_Sequence -->
<g id="node2" class="node">
<title>Sequence_Build_Sequence</title>
<g id="a_node2"><a xlink:href="Sequence.html#Build_Sequence" xlink:title="Build_Sequence">
<ellipse fill="#f070d1" stroke="#000000" cx="129.4597" cy="-186" rx="85.2729" ry="18"/>
<ellipse fill="none" stroke="#000000" cx="129.4597" cy="-186" rx="89.279" ry="22"/>
<ellipse fill="none" stroke="#000000" cx="129.4597" cy="-186" rx="93.2851" ry="26"/>
<text text-anchor="middle" x="129.4597" y="-182.3" font-family="Times,serif" font-size="14.00" fill="#000000">Build_Sequence</text>
</a>
</g>
</g>
<!-- Sequence_Build_Sequence&#45;&gt;Sequence_Sequence -->
<g id="edge2" class="edge">
<title>Sequence_Build_Sequence&#45;&gt;Sequence_Sequence</title>
<path fill="none" stroke="#000000" d="M166.0637,-161.9974C182.527,-151.2018 201.8288,-138.5448 217.913,-127.9979"/>
<polygon fill="#000000" stroke="#000000" points="220.0359,-130.7912 226.4791,-122.3807 216.1974,-124.9375 220.0359,-130.7912"/>
</g>
<!-- Sequence_sequence_graph -->
<g id="node4" class="node">
<title>Sequence_sequence_graph</title>
<g id="a_node4"><a xlink:href="Sequence.html#sequence_graph" xlink:title="sequence_graph">
<ellipse fill="#f070d1" stroke="#000000" cx="251.4597" cy="-34" rx="87.1846" ry="18"/>
<text text-anchor="middle" x="251.4597" y="-30.3" font-family="Times,serif" font-size="14.00" fill="#000000">sequence_graph</text>
</a>
</g>
</g>
<!-- Sequence_Sequence&#45;&gt;Sequence_sequence_graph -->
<g id="edge3" class="edge">
<title>Sequence_Sequence&#45;&gt;Sequence_sequence_graph</title>
<path fill="none" stroke="#000000" d="M251.4597,-87.8314C251.4597,-80.131 251.4597,-70.9743 251.4597,-62.4166"/>
<polygon fill="#000000" stroke="#000000" points="254.9598,-62.4132 251.4597,-52.4133 247.9598,-62.4133 254.9598,-62.4132"/>
</g>
</g>
</svg>
