<?xml version="1.0" encoding="UTF-8" standalone="no"?>
<!DOCTYPE svg PUBLIC "-//W3C//DTD SVG 1.1//EN"
 "http://www.w3.org/Graphics/SVG/1.1/DTD/svg11.dtd">
<!-- Generated by graphviz version 2.40.1 (20161225.0304)
 -->
<!-- Title: HoTT_Equiv_PathSplit Pages: 1 -->
<svg width="798pt" height="403pt"
 viewBox="0.00 0.00 798.00 403.00" xmlns="http://www.w3.org/2000/svg" xmlns:xlink="http://www.w3.org/1999/xlink">
<g id="graph0" class="graph" transform="scale(1 1) rotate(0) translate(4 399)">
<title>HoTT_Equiv_PathSplit</title>
<polygon fill="#ffffff" stroke="transparent" points="-4,4 -4,-399 794,-399 794,4 -4,4"/>
<g id="clust1" class="cluster">
<title>cluster_PathSplit</title>
<polygon fill="#ffffc3" stroke="#000000" points="8.8392,-8 8.8392,-387 781.1608,-387 781.1608,-8 8.8392,-8"/>
<text text-anchor="middle" x="50.3392" y="-371.8" font-family="Times,serif" font-size="14.00" fill="#000000">PathSplit</text>
</g>
<!-- PathSplit_equiv_oopathsplit_isequiv -->
<g id="node1" class="node">
<title>PathSplit_equiv_oopathsplit_isequiv</title>
<g id="a_node1"><a xlink:href="PathSplit.html#equiv_oopathsplit_isequiv" xlink:title="equiv_oopathsplit_isequiv">
<ellipse fill="#f070d1" stroke="#000000" cx="548.1608" cy="-330" rx="131.0892" ry="18"/>
<ellipse fill="none" stroke="#000000" cx="548.1608" cy="-330" rx="135.0831" ry="22"/>
<ellipse fill="none" stroke="#000000" cx="548.1608" cy="-330" rx="139.077" ry="26"/>
<text text-anchor="middle" x="548.1608" y="-326.3" font-family="Times,serif" font-size="14.00" fill="#000000">equiv_oopathsplit_isequiv</text>
</a>
</g>
</g>
<!-- PathSplit_ishprop_oopathsplit -->
<g id="node2" class="node">
<title>PathSplit_ishprop_oopathsplit</title>
<g id="a_node2"><a xlink:href="PathSplit.html#ishprop_oopathsplit" xlink:title="ishprop_oopathsplit">
<ellipse fill="#f070d1" stroke="#000000" cx="548.1608" cy="-250" rx="102.8821" ry="18"/>
<text text-anchor="middle" x="548.1608" y="-246.3" font-family="Times,serif" font-size="14.00" fill="#000000">ishprop_oopathsplit</text>
</a>
</g>
</g>
<!-- PathSplit_equiv_oopathsplit_isequiv&#45;&gt;PathSplit_ishprop_oopathsplit -->
<g id="edge1" class="edge">
<title>PathSplit_equiv_oopathsplit_isequiv&#45;&gt;PathSplit_ishprop_oopathsplit</title>
<path fill="none" stroke="#000000" d="M548.1608,-303.805C548.1608,-295.6026 548.1608,-286.5174 548.1608,-278.1839"/>
<polygon fill="#000000" stroke="#000000" points="551.6609,-278.1532 548.1608,-268.1532 544.6609,-278.1533 551.6609,-278.1532"/>
</g>
<!-- PathSplit_contr_oopathsplit_isequiv -->
<g id="node3" class="node">
<title>PathSplit_contr_oopathsplit_isequiv</title>
<g id="a_node3"><a xlink:href="PathSplit.html#contr_oopathsplit_isequiv" xlink:title="contr_oopathsplit_isequiv">
<ellipse fill="#f070d1" stroke="#000000" cx="385.1608" cy="-178" rx="130.777" ry="18"/>
<text text-anchor="middle" x="385.1608" y="-174.3" font-family="Times,serif" font-size="14.00" fill="#000000">contr_oopathsplit_isequiv</text>
</a>
</g>
</g>
<!-- PathSplit_ishprop_oopathsplit&#45;&gt;PathSplit_contr_oopathsplit_isequiv -->
<g id="edge2" class="edge">
<title>PathSplit_ishprop_oopathsplit&#45;&gt;PathSplit_contr_oopathsplit_isequiv</title>
<path fill="none" stroke="#000000" d="M509.9446,-233.1192C487.1833,-223.0651 458.0768,-210.2083 433.701,-199.4411"/>
<polygon fill="#000000" stroke="#000000" points="434.8314,-196.1142 424.2698,-195.2751 432.003,-202.5173 434.8314,-196.1142"/>
</g>
<!-- PathSplit_isequiv_oopathsplit -->
<g id="node4" class="node">
<title>PathSplit_isequiv_oopathsplit</title>
<g id="a_node4"><a xlink:href="PathSplit.html#isequiv_oopathsplit" xlink:title="isequiv_oopathsplit">
<ellipse fill="#f070d1" stroke="#000000" cx="661.1608" cy="-178" rx="100.9827" ry="18"/>
<text text-anchor="middle" x="661.1608" y="-174.3" font-family="Times,serif" font-size="14.00" fill="#000000">isequiv_oopathsplit</text>
</a>
</g>
</g>
<!-- PathSplit_ishprop_oopathsplit&#45;&gt;PathSplit_isequiv_oopathsplit -->
<g id="edge3" class="edge">
<title>PathSplit_ishprop_oopathsplit&#45;&gt;PathSplit_isequiv_oopathsplit</title>
<path fill="none" stroke="#000000" d="M575.515,-232.5708C590.3952,-223.0896 608.9895,-211.2419 625.0469,-201.0107"/>
<polygon fill="#000000" stroke="#000000" points="627.1142,-203.8436 633.6669,-195.5182 623.3526,-197.9401 627.1142,-203.8436"/>
</g>
<!-- PathSplit_ooPathSplit -->
<g id="node5" class="node">
<title>PathSplit_ooPathSplit</title>
<g id="a_node5"><a xlink:href="PathSplit.html#ooPathSplit" xlink:title="ooPathSplit">
<ellipse fill="#f070d1" stroke="#000000" cx="627.1608" cy="-106" rx="64.189" ry="18"/>
<text text-anchor="middle" x="627.1608" y="-102.3" font-family="Times,serif" font-size="14.00" fill="#000000">ooPathSplit</text>
</a>
</g>
</g>
<!-- PathSplit_contr_oopathsplit_isequiv&#45;&gt;PathSplit_ooPathSplit -->
<g id="edge4" class="edge">
<title>PathSplit_contr_oopathsplit_isequiv&#45;&gt;PathSplit_ooPathSplit</title>
<path fill="none" stroke="#000000" d="M440.0744,-161.6621C479.9276,-149.8049 533.5781,-133.8428 573.2073,-122.0523"/>
<polygon fill="#000000" stroke="#000000" points="574.3768,-125.3561 582.9634,-119.1496 572.3805,-118.6467 574.3768,-125.3561"/>
</g>
<!-- PathSplit_contr_pathsplit_isequiv -->
<g id="node9" class="node">
<title>PathSplit_contr_pathsplit_isequiv</title>
<g id="a_node9"><a xlink:href="PathSplit.html#contr_pathsplit_isequiv" xlink:title="contr_pathsplit_isequiv">
<ellipse fill="#f070d1" stroke="#000000" cx="183.1608" cy="-106" rx="120.4791" ry="18"/>
<text text-anchor="middle" x="183.1608" y="-102.3" font-family="Times,serif" font-size="14.00" fill="#000000">contr_pathsplit_isequiv</text>
</a>
</g>
</g>
<!-- PathSplit_contr_oopathsplit_isequiv&#45;&gt;PathSplit_contr_pathsplit_isequiv -->
<g id="edge5" class="edge">
<title>PathSplit_contr_oopathsplit_isequiv&#45;&gt;PathSplit_contr_pathsplit_isequiv</title>
<path fill="none" stroke="#000000" d="M338.0557,-161.2101C308.7061,-150.7488 270.7694,-137.2268 239.7864,-126.1834"/>
<polygon fill="#000000" stroke="#000000" points="240.5857,-122.7526 229.9911,-122.692 238.2355,-129.3463 240.5857,-122.7526"/>
</g>
<!-- PathSplit_isequiv_oopathsplit&#45;&gt;PathSplit_ooPathSplit -->
<g id="edge6" class="edge">
<title>PathSplit_isequiv_oopathsplit&#45;&gt;PathSplit_ooPathSplit</title>
<path fill="none" stroke="#000000" d="M652.5812,-159.8314C648.7672,-151.7547 644.1968,-142.0761 639.9896,-133.1668"/>
<polygon fill="#000000" stroke="#000000" points="643.0549,-131.4614 635.62,-123.9134 636.7252,-134.4504 643.0549,-131.4614"/>
</g>
<!-- PathSplit_isequiv_pathsplit -->
<g id="node10" class="node">
<title>PathSplit_isequiv_pathsplit</title>
<g id="a_node10"><a xlink:href="PathSplit.html#isequiv_pathsplit" xlink:title="isequiv_pathsplit">
<ellipse fill="#f070d1" stroke="#000000" cx="436.1608" cy="-106" rx="90.1842" ry="18"/>
<text text-anchor="middle" x="436.1608" y="-102.3" font-family="Times,serif" font-size="14.00" fill="#000000">isequiv_pathsplit</text>
</a>
</g>
</g>
<!-- PathSplit_isequiv_oopathsplit&#45;&gt;PathSplit_isequiv_pathsplit -->
<g id="edge7" class="edge">
<title>PathSplit_isequiv_oopathsplit&#45;&gt;PathSplit_isequiv_pathsplit</title>
<path fill="none" stroke="#000000" d="M611.7836,-162.1993C576.9903,-151.0654 530.2869,-136.1203 493.7884,-124.4408"/>
<polygon fill="#000000" stroke="#000000" points="494.855,-121.1073 484.264,-121.393 492.7215,-127.7743 494.855,-121.1073"/>
</g>
<!-- PathSplit_PathSplit -->
<g id="node11" class="node">
<title>PathSplit_PathSplit</title>
<g id="a_node11"><a xlink:href="PathSplit.html#PathSplit" xlink:title="PathSplit">
<ellipse fill="#f070d1" stroke="#000000" cx="436.1608" cy="-34" rx="53.8905" ry="18"/>
<text text-anchor="middle" x="436.1608" y="-30.3" font-family="Times,serif" font-size="14.00" fill="#000000">PathSplit</text>
</a>
</g>
</g>
<!-- PathSplit_ooPathSplit&#45;&gt;PathSplit_PathSplit -->
<g id="edge8" class="edge">
<title>PathSplit_ooPathSplit&#45;&gt;PathSplit_PathSplit</title>
<path fill="none" stroke="#000000" d="M588.5091,-91.4297C557.6879,-79.8112 514.4459,-63.5106 481.9016,-51.2426"/>
<polygon fill="#000000" stroke="#000000" points="482.7625,-47.8267 472.1706,-47.5744 480.2933,-54.3768 482.7625,-47.8267"/>
</g>
<!-- PathSplit_equiv_functor_pathsplit -->
<g id="node6" class="node">
<title>PathSplit_equiv_functor_pathsplit</title>
<g id="a_node6"><a xlink:href="PathSplit.html#equiv_functor_pathsplit" xlink:title="equiv_functor_pathsplit">
<ellipse fill="#f070d1" stroke="#000000" cx="161.1608" cy="-330" rx="121.576" ry="18"/>
<ellipse fill="none" stroke="#000000" cx="161.1608" cy="-330" rx="125.5772" ry="22"/>
<ellipse fill="none" stroke="#000000" cx="161.1608" cy="-330" rx="129.5784" ry="26"/>
<text text-anchor="middle" x="161.1608" y="-326.3" font-family="Times,serif" font-size="14.00" fill="#000000">equiv_functor_pathsplit</text>
</a>
</g>
</g>
<!-- PathSplit_equiv_pathsplit_isequiv -->
<g id="node7" class="node">
<title>PathSplit_equiv_pathsplit_isequiv</title>
<g id="a_node7"><a xlink:href="PathSplit.html#equiv_pathsplit_isequiv" xlink:title="equiv_pathsplit_isequiv">
<ellipse fill="#f070d1" stroke="#000000" cx="156.1608" cy="-250" rx="120.4791" ry="18"/>
<text text-anchor="middle" x="156.1608" y="-246.3" font-family="Times,serif" font-size="14.00" fill="#000000">equiv_pathsplit_isequiv</text>
</a>
</g>
</g>
<!-- PathSplit_equiv_functor_pathsplit&#45;&gt;PathSplit_equiv_pathsplit_isequiv -->
<g id="edge9" class="edge">
<title>PathSplit_equiv_functor_pathsplit&#45;&gt;PathSplit_equiv_pathsplit_isequiv</title>
<path fill="none" stroke="#000000" d="M159.5237,-303.805C159.011,-295.6026 158.4432,-286.5174 157.9223,-278.1839"/>
<polygon fill="#000000" stroke="#000000" points="161.4125,-277.9154 157.2954,-268.1532 154.4261,-278.3521 161.4125,-277.9154"/>
</g>
<!-- PathSplit_ishprop_pathsplit -->
<g id="node8" class="node">
<title>PathSplit_ishprop_pathsplit</title>
<g id="a_node8"><a xlink:href="PathSplit.html#ishprop_pathsplit" xlink:title="ishprop_pathsplit">
<ellipse fill="#f070d1" stroke="#000000" cx="119.1608" cy="-178" rx="92.0841" ry="18"/>
<text text-anchor="middle" x="119.1608" y="-174.3" font-family="Times,serif" font-size="14.00" fill="#000000">ishprop_pathsplit</text>
</a>
</g>
</g>
<!-- PathSplit_equiv_pathsplit_isequiv&#45;&gt;PathSplit_ishprop_pathsplit -->
<g id="edge10" class="edge">
<title>PathSplit_equiv_pathsplit_isequiv&#45;&gt;PathSplit_ishprop_pathsplit</title>
<path fill="none" stroke="#000000" d="M146.8242,-231.8314C142.6295,-223.6688 137.594,-213.87 132.9756,-204.8827"/>
<polygon fill="#000000" stroke="#000000" points="136.0501,-203.208 128.3663,-195.9134 129.8241,-206.4075 136.0501,-203.208"/>
</g>
<!-- PathSplit_ishprop_pathsplit&#45;&gt;PathSplit_contr_pathsplit_isequiv -->
<g id="edge11" class="edge">
<title>PathSplit_ishprop_pathsplit&#45;&gt;PathSplit_contr_pathsplit_isequiv</title>
<path fill="none" stroke="#000000" d="M134.9811,-160.2022C142.6156,-151.6134 151.9176,-141.1486 160.3047,-131.7131"/>
<polygon fill="#000000" stroke="#000000" points="163.0503,-133.8925 167.0781,-124.0931 157.8185,-129.242 163.0503,-133.8925"/>
</g>
<!-- PathSplit_ishprop_pathsplit&#45;&gt;PathSplit_isequiv_pathsplit -->
<g id="edge12" class="edge">
<title>PathSplit_ishprop_pathsplit&#45;&gt;PathSplit_isequiv_pathsplit</title>
<path fill="none" stroke="#000000" d="M179.5323,-164.2879C232.9132,-152.1635 310.776,-134.4786 366.7215,-121.7717"/>
<polygon fill="#000000" stroke="#000000" points="367.5752,-125.167 376.5516,-119.539 366.0247,-118.3409 367.5752,-125.167"/>
</g>
<!-- PathSplit_contr_pathsplit_isequiv&#45;&gt;PathSplit_PathSplit -->
<g id="edge13" class="edge">
<title>PathSplit_contr_pathsplit_isequiv&#45;&gt;PathSplit_PathSplit</title>
<path fill="none" stroke="#000000" d="M239.3097,-90.0209C282.9763,-77.594 343.0414,-60.5004 385.304,-48.4731"/>
<polygon fill="#000000" stroke="#000000" points="386.4475,-51.7867 395.1076,-45.6831 384.5314,-45.054 386.4475,-51.7867"/>
</g>
<!-- PathSplit_isequiv_pathsplit&#45;&gt;PathSplit_PathSplit -->
<g id="edge14" class="edge">
<title>PathSplit_isequiv_pathsplit&#45;&gt;PathSplit_PathSplit</title>
<path fill="none" stroke="#000000" d="M436.1608,-87.8314C436.1608,-80.131 436.1608,-70.9743 436.1608,-62.4166"/>
<polygon fill="#000000" stroke="#000000" points="439.6609,-62.4132 436.1608,-52.4133 432.6609,-62.4133 439.6609,-62.4132"/>
</g>
</g>
</svg>
