<?xml version="1.0" encoding="UTF-8" standalone="no"?>
<!DOCTYPE svg PUBLIC "-//W3C//DTD SVG 1.1//EN"
 "http://www.w3.org/Graphics/SVG/1.1/DTD/svg11.dtd">
<!-- Generated by graphviz version 2.40.1 (20161225.0304)
 -->
<!-- Title: HoTT_Classes_theory_ua_prod_algebra Pages: 1 -->
<svg width="1694pt" height="851pt"
 viewBox="0.00 0.00 1694.00 851.00" xmlns="http://www.w3.org/2000/svg" xmlns:xlink="http://www.w3.org/1999/xlink">
<g id="graph0" class="graph" transform="scale(1 1) rotate(0) translate(4 847)">
<title>HoTT_Classes_theory_ua_prod_algebra</title>
<polygon fill="#ffffff" stroke="transparent" points="-4,4 -4,-847 1690,-847 1690,4 -4,4"/>
<g id="clust1" class="cluster">
<title>cluster_ua_prod_algebra</title>
<polygon fill="#ffffc3" stroke="#000000" points="12.6767,-8 12.6767,-835 1673.3233,-835 1673.3233,-8 12.6767,-8"/>
<text text-anchor="middle" x="80.6767" y="-819.8" font-family="Times,serif" font-size="14.00" fill="#000000">ua_prod_algebra</text>
</g>
<!-- ua_prod_algebra_ump_bin_prod_algebra -->
<g id="node1" class="node">
<title>ua_prod_algebra_ump_bin_prod_algebra</title>
<g id="a_node1"><a xlink:href="ua_prod_algebra.html#ump_bin_prod_algebra" xlink:title="ump_bin_prod_algebra">
<ellipse fill="#f070d1" stroke="#000000" cx="457.8421" cy="-778" rx="116.9799" ry="18"/>
<ellipse fill="none" stroke="#000000" cx="457.8421" cy="-778" rx="120.9796" ry="22"/>
<ellipse fill="none" stroke="#000000" cx="457.8421" cy="-778" rx="124.9792" ry="26"/>
<text text-anchor="middle" x="457.8421" y="-774.3" font-family="Times,serif" font-size="14.00" fill="#000000">ump_bin_prod_algebra</text>
</a>
</g>
</g>
<!-- ua_prod_algebra_BinProdAlgebra -->
<g id="node4" class="node">
<title>ua_prod_algebra_BinProdAlgebra</title>
<g id="a_node4"><a xlink:href="ua_prod_algebra.html#BinProdAlgebra" xlink:title="BinProdAlgebra">
<ellipse fill="#f070d1" stroke="#000000" cx="332.8421" cy="-538" rx="85.2851" ry="18"/>
<text text-anchor="middle" x="332.8421" y="-534.3" font-family="Times,serif" font-size="14.00" fill="#000000">BinProdAlgebra</text>
</a>
</g>
</g>
<!-- ua_prod_algebra_ump_bin_prod_algebra&#45;&gt;ua_prod_algebra_BinProdAlgebra -->
<g id="edge1" class="edge">
<title>ua_prod_algebra_ump_bin_prod_algebra&#45;&gt;ua_prod_algebra_BinProdAlgebra</title>
<path fill="none" stroke="#000000" d="M439.2316,-752.143C421.8791,-729.8679 394.0389,-698.4705 362.8421,-680 310.8851,-649.2381 268.4463,-692.0204 231.8421,-644 217.8316,-625.6199 219.9617,-611.8237 231.8421,-592 241.1554,-576.4597 256.6341,-565.1409 272.7094,-557.0072"/>
<polygon fill="#000000" stroke="#000000" points="274.619,-559.9785 282.2012,-552.5784 271.6592,-553.635 274.619,-559.9785"/>
</g>
<!-- ua_prod_algebra_trunc_bin_prod_algebras -->
<g id="node5" class="node">
<title>ua_prod_algebra_trunc_bin_prod_algebras</title>
<g id="a_node5"><a xlink:href="ua_prod_algebra.html#trunc_bin_prod_algebras" xlink:title="trunc_bin_prod_algebras">
<ellipse fill="#f070d1" stroke="#000000" cx="226.8421" cy="-698" rx="126.978" ry="18"/>
<text text-anchor="middle" x="226.8421" y="-694.3" font-family="Times,serif" font-size="14.00" fill="#000000">trunc_bin_prod_algebras</text>
</a>
</g>
</g>
<!-- ua_prod_algebra_ump_bin_prod_algebra&#45;&gt;ua_prod_algebra_trunc_bin_prod_algebras -->
<g id="edge2" class="edge">
<title>ua_prod_algebra_ump_bin_prod_algebra&#45;&gt;ua_prod_algebra_trunc_bin_prod_algebras</title>
<path fill="none" stroke="#000000" d="M393.1886,-755.6092C359.0524,-743.7871 317.5129,-729.4011 284.4839,-717.9625"/>
<polygon fill="#000000" stroke="#000000" points="285.5617,-714.6319 274.9669,-714.6666 283.2709,-721.2465 285.5617,-714.6319"/>
</g>
<!-- ua_prod_algebra_ump_prod_algebra -->
<g id="node7" class="node">
<title>ua_prod_algebra_ump_prod_algebra</title>
<g id="a_node7"><a xlink:href="ua_prod_algebra.html#ump_prod_algebra" xlink:title="ump_prod_algebra">
<ellipse fill="#f070d1" stroke="#000000" cx="1211.8421" cy="-698" rx="97.4827" ry="18"/>
<text text-anchor="middle" x="1211.8421" y="-694.3" font-family="Times,serif" font-size="14.00" fill="#000000">ump_prod_algebra</text>
</a>
</g>
</g>
<!-- ua_prod_algebra_ump_bin_prod_algebra&#45;&gt;ua_prod_algebra_ump_prod_algebra -->
<g id="edge3" class="edge">
<title>ua_prod_algebra_ump_bin_prod_algebra&#45;&gt;ua_prod_algebra_ump_prod_algebra</title>
<path fill="none" stroke="#000000" d="M569.5031,-766.1527C717.8782,-750.41 977.4737,-722.8667 1116.894,-708.0741"/>
<polygon fill="#000000" stroke="#000000" points="1117.5567,-711.5235 1127.1315,-706.9879 1116.818,-704.5626 1117.5567,-711.5235"/>
</g>
<!-- ua_prod_algebra_snd_prod_algebra -->
<g id="node2" class="node">
<title>ua_prod_algebra_snd_prod_algebra</title>
<g id="a_node2"><a xlink:href="ua_prod_algebra.html#snd_prod_algebra" xlink:title="snd_prod_algebra">
<ellipse fill="#f070d1" stroke="#000000" cx="681.8421" cy="-618" rx="93.6762" ry="18"/>
<ellipse fill="none" stroke="#000000" cx="681.8421" cy="-618" rx="97.6799" ry="22"/>
<ellipse fill="none" stroke="#000000" cx="681.8421" cy="-618" rx="101.6835" ry="26"/>
<text text-anchor="middle" x="681.8421" y="-614.3" font-family="Times,serif" font-size="14.00" fill="#000000">snd_prod_algebra</text>
</a>
</g>
</g>
<!-- ua_prod_algebra_snd_prod_algebra&#45;&gt;ua_prod_algebra_BinProdAlgebra -->
<g id="edge4" class="edge">
<title>ua_prod_algebra_snd_prod_algebra&#45;&gt;ua_prod_algebra_BinProdAlgebra</title>
<path fill="none" stroke="#000000" d="M606.1143,-600.6412C544.9018,-586.6097 459.5109,-567.0358 400.5494,-553.5203"/>
<polygon fill="#000000" stroke="#000000" points="401.1209,-550.0606 390.5916,-551.2377 399.5568,-556.8836 401.1209,-550.0606"/>
</g>
<!-- ua_prod_algebra_hom_proj_prod_algebra -->
<g id="node13" class="node">
<title>ua_prod_algebra_hom_proj_prod_algebra</title>
<g id="a_node13"><a xlink:href="ua_prod_algebra.html#hom_proj_prod_algebra" xlink:title="hom_proj_prod_algebra">
<ellipse fill="#f070d1" stroke="#000000" cx="685.8421" cy="-538" rx="120.4791" ry="18"/>
<text text-anchor="middle" x="685.8421" y="-534.3" font-family="Times,serif" font-size="14.00" fill="#000000">hom_proj_prod_algebra</text>
</a>
</g>
</g>
<!-- ua_prod_algebra_snd_prod_algebra&#45;&gt;ua_prod_algebra_hom_proj_prod_algebra -->
<g id="edge5" class="edge">
<title>ua_prod_algebra_snd_prod_algebra&#45;&gt;ua_prod_algebra_hom_proj_prod_algebra</title>
<path fill="none" stroke="#000000" d="M683.1519,-591.805C683.562,-583.6026 684.0162,-574.5174 684.4329,-566.1839"/>
<polygon fill="#000000" stroke="#000000" points="687.9306,-566.3156 684.9344,-556.1532 680.9393,-565.9659 687.9306,-566.3156"/>
</g>
<!-- ua_prod_algebra_fst_prod_algebra -->
<g id="node3" class="node">
<title>ua_prod_algebra_fst_prod_algebra</title>
<g id="a_node3"><a xlink:href="ua_prod_algebra.html#fst_prod_algebra" xlink:title="fst_prod_algebra">
<ellipse fill="#f070d1" stroke="#000000" cx="337.8421" cy="-618" rx="89.0807" ry="18"/>
<ellipse fill="none" stroke="#000000" cx="337.8421" cy="-618" rx="93.0825" ry="22"/>
<ellipse fill="none" stroke="#000000" cx="337.8421" cy="-618" rx="97.0842" ry="26"/>
<text text-anchor="middle" x="337.8421" y="-614.3" font-family="Times,serif" font-size="14.00" fill="#000000">fst_prod_algebra</text>
</a>
</g>
</g>
<!-- ua_prod_algebra_fst_prod_algebra&#45;&gt;ua_prod_algebra_BinProdAlgebra -->
<g id="edge6" class="edge">
<title>ua_prod_algebra_fst_prod_algebra&#45;&gt;ua_prod_algebra_BinProdAlgebra</title>
<path fill="none" stroke="#000000" d="M336.2049,-591.805C335.6923,-583.6026 335.1244,-574.5174 334.6036,-566.1839"/>
<polygon fill="#000000" stroke="#000000" points="338.0937,-565.9154 333.9767,-556.1532 331.1074,-566.3521 338.0937,-565.9154"/>
</g>
<!-- ua_prod_algebra_fst_prod_algebra&#45;&gt;ua_prod_algebra_hom_proj_prod_algebra -->
<g id="edge7" class="edge">
<title>ua_prod_algebra_fst_prod_algebra&#45;&gt;ua_prod_algebra_hom_proj_prod_algebra</title>
<path fill="none" stroke="#000000" d="M411.644,-601.0341C470.0172,-587.6149 551.2133,-568.9491 610.0878,-555.4148"/>
<polygon fill="#000000" stroke="#000000" points="611.1112,-558.7709 620.0728,-553.1194 609.5428,-551.9488 611.1112,-558.7709"/>
</g>
<!-- ua_prod_algebra_bin_prod_algebras -->
<g id="node6" class="node">
<title>ua_prod_algebra_bin_prod_algebras</title>
<g id="a_node6"><a xlink:href="ua_prod_algebra.html#bin_prod_algebras" xlink:title="bin_prod_algebras">
<ellipse fill="#f070d1" stroke="#000000" cx="178.8421" cy="-466" rx="96.6831" ry="18"/>
<text text-anchor="middle" x="178.8421" y="-462.3" font-family="Times,serif" font-size="14.00" fill="#000000">bin_prod_algebras</text>
</a>
</g>
</g>
<!-- ua_prod_algebra_BinProdAlgebra&#45;&gt;ua_prod_algebra_bin_prod_algebras -->
<g id="edge8" class="edge">
<title>ua_prod_algebra_BinProdAlgebra&#45;&gt;ua_prod_algebra_bin_prod_algebras</title>
<path fill="none" stroke="#000000" d="M297.5114,-521.4817C275.6393,-511.2558 247.3482,-498.0288 223.8757,-487.0547"/>
<polygon fill="#000000" stroke="#000000" points="225.3505,-483.8806 214.8093,-482.8158 222.3858,-490.2218 225.3505,-483.8806"/>
</g>
<!-- ua_prod_algebra_ProdAlgebra -->
<g id="node18" class="node">
<title>ua_prod_algebra_ProdAlgebra</title>
<g id="a_node18"><a xlink:href="ua_prod_algebra.html#ProdAlgebra" xlink:title="ProdAlgebra">
<ellipse fill="#f070d1" stroke="#000000" cx="698.8421" cy="-250" rx="69.5877" ry="18"/>
<text text-anchor="middle" x="698.8421" y="-246.3" font-family="Times,serif" font-size="14.00" fill="#000000">ProdAlgebra</text>
</a>
</g>
</g>
<!-- ua_prod_algebra_BinProdAlgebra&#45;&gt;ua_prod_algebra_ProdAlgebra -->
<g id="edge9" class="edge">
<title>ua_prod_algebra_BinProdAlgebra&#45;&gt;ua_prod_algebra_ProdAlgebra</title>
<path fill="none" stroke="#000000" d="M322.6711,-519.8306C306.6563,-488.5884 279.8324,-423.4742 304.8421,-376 331.2152,-325.9377 357.5694,-325.6642 409.8421,-304 478.1519,-275.6893 561.6979,-262.1275 621.3606,-255.6882"/>
<polygon fill="#000000" stroke="#000000" points="621.882,-259.153 631.4679,-254.6406 621.1603,-252.1903 621.882,-259.153"/>
</g>
<!-- ua_prod_algebra_trunc_bin_prod_algebras&#45;&gt;ua_prod_algebra_bin_prod_algebras -->
<g id="edge10" class="edge">
<title>ua_prod_algebra_trunc_bin_prod_algebras&#45;&gt;ua_prod_algebra_bin_prod_algebras</title>
<path fill="none" stroke="#000000" d="M187.464,-680.7624C172.5513,-672.0521 157.174,-659.902 148.8421,-644 123.2743,-595.202 146.9665,-529.4885 164.3227,-493.1006"/>
<polygon fill="#000000" stroke="#000000" points="167.4876,-494.5962 168.7842,-484.081 161.2133,-491.4926 167.4876,-494.5962"/>
</g>
<!-- ua_prod_algebra_hom_prod_algebra_mapin -->
<g id="node8" class="node">
<title>ua_prod_algebra_hom_prod_algebra_mapin</title>
<g id="a_node8"><a xlink:href="ua_prod_algebra.html#hom_prod_algebra_mapin" xlink:title="hom_prod_algebra_mapin">
<ellipse fill="#f070d1" stroke="#000000" cx="1356.8421" cy="-538" rx="130.777" ry="18"/>
<text text-anchor="middle" x="1356.8421" y="-534.3" font-family="Times,serif" font-size="14.00" fill="#000000">hom_prod_algebra_mapin</text>
</a>
</g>
</g>
<!-- ua_prod_algebra_ump_prod_algebra&#45;&gt;ua_prod_algebra_hom_prod_algebra_mapin -->
<g id="edge11" class="edge">
<title>ua_prod_algebra_ump_prod_algebra&#45;&gt;ua_prod_algebra_hom_prod_algebra_mapin</title>
<path fill="none" stroke="#000000" d="M1277.5175,-684.6727C1300.8859,-676.6826 1325.2447,-664.0108 1340.8421,-644 1357.9297,-622.0774 1360.5253,-589.6572 1359.7223,-566.4491"/>
<polygon fill="#000000" stroke="#000000" points="1363.2008,-565.9752 1359.1291,-556.194 1356.2125,-566.3795 1363.2008,-565.9752"/>
</g>
<!-- ua_prod_algebra_hom_prod_algebra_mapout -->
<g id="node12" class="node">
<title>ua_prod_algebra_hom_prod_algebra_mapout</title>
<g id="a_node12"><a xlink:href="ua_prod_algebra.html#hom_prod_algebra_mapout" xlink:title="hom_prod_algebra_mapout">
<ellipse fill="#f070d1" stroke="#000000" cx="1088.8421" cy="-618" rx="137.2758" ry="18"/>
<text text-anchor="middle" x="1088.8421" y="-614.3" font-family="Times,serif" font-size="14.00" fill="#000000">hom_prod_algebra_mapout</text>
</a>
</g>
</g>
<!-- ua_prod_algebra_ump_prod_algebra&#45;&gt;ua_prod_algebra_hom_prod_algebra_mapout -->
<g id="edge12" class="edge">
<title>ua_prod_algebra_ump_prod_algebra&#45;&gt;ua_prod_algebra_hom_prod_algebra_mapout</title>
<path fill="none" stroke="#000000" d="M1185.1529,-680.6412C1167.5069,-669.1641 1144.1597,-653.9789 1124.872,-641.4341"/>
<polygon fill="#000000" stroke="#000000" points="1126.6221,-638.3972 1116.3309,-635.8789 1122.8054,-644.2652 1126.6221,-638.3972"/>
</g>
<!-- ua_prod_algebra_trunc_prod_algebra -->
<g id="node17" class="node">
<title>ua_prod_algebra_trunc_prod_algebra</title>
<g id="a_node17"><a xlink:href="ua_prod_algebra.html#trunc_prod_algebra" xlink:title="trunc_prod_algebra">
<ellipse fill="#f070d1" stroke="#000000" cx="923.8421" cy="-394" rx="102.8821" ry="18"/>
<text text-anchor="middle" x="923.8421" y="-390.3" font-family="Times,serif" font-size="14.00" fill="#000000">trunc_prod_algebra</text>
</a>
</g>
</g>
<!-- ua_prod_algebra_ump_prod_algebra&#45;&gt;ua_prod_algebra_trunc_prod_algebra -->
<g id="edge13" class="edge">
<title>ua_prod_algebra_ump_prod_algebra&#45;&gt;ua_prod_algebra_trunc_prod_algebra</title>
<path fill="none" stroke="#000000" d="M1222.8891,-680.0387C1234.8679,-658.0413 1250.3346,-620.2292 1234.8421,-592 1182.0141,-495.7409 1060.3339,-439.5789 985.8006,-412.9999"/>
<polygon fill="#000000" stroke="#000000" points="986.6519,-409.5899 976.057,-409.5978 984.3443,-416.1987 986.6519,-409.5899"/>
</g>
<!-- ua_prod_algebra_is_homomorphism_prod_algebra_mapin -->
<g id="node9" class="node">
<title>ua_prod_algebra_is_homomorphism_prod_algebra_mapin</title>
<g id="a_node9"><a xlink:href="ua_prod_algebra.html#is_homomorphism_prod_algebra_mapin" xlink:title="is_homomorphism_prod_algebra_mapin">
<ellipse fill="#f070d1" stroke="#000000" cx="1349.8421" cy="-466" rx="195.7654" ry="18"/>
<text text-anchor="middle" x="1349.8421" y="-462.3" font-family="Times,serif" font-size="14.00" fill="#000000">is_homomorphism_prod_algebra_mapin</text>
</a>
</g>
</g>
<!-- ua_prod_algebra_hom_prod_algebra_mapin&#45;&gt;ua_prod_algebra_is_homomorphism_prod_algebra_mapin -->
<g id="edge14" class="edge">
<title>ua_prod_algebra_hom_prod_algebra_mapin&#45;&gt;ua_prod_algebra_is_homomorphism_prod_algebra_mapin</title>
<path fill="none" stroke="#000000" d="M1355.0757,-519.8314C1354.3271,-512.131 1353.4368,-502.9743 1352.6048,-494.4166"/>
<polygon fill="#000000" stroke="#000000" points="1356.0836,-494.0276 1351.6323,-484.4133 1349.1165,-494.7051 1356.0836,-494.0276"/>
</g>
<!-- ua_prod_algebra_oppreserving_prod_algebra_mapin -->
<g id="node10" class="node">
<title>ua_prod_algebra_oppreserving_prod_algebra_mapin</title>
<g id="a_node10"><a xlink:href="ua_prod_algebra.html#oppreserving_prod_algebra_mapin" xlink:title="oppreserving_prod_algebra_mapin">
<ellipse fill="#f070d1" stroke="#000000" cx="1387.8421" cy="-394" rx="172.4698" ry="18"/>
<text text-anchor="middle" x="1387.8421" y="-390.3" font-family="Times,serif" font-size="14.00" fill="#000000">oppreserving_prod_algebra_mapin</text>
</a>
</g>
</g>
<!-- ua_prod_algebra_is_homomorphism_prod_algebra_mapin&#45;&gt;ua_prod_algebra_oppreserving_prod_algebra_mapin -->
<g id="edge15" class="edge">
<title>ua_prod_algebra_is_homomorphism_prod_algebra_mapin&#45;&gt;ua_prod_algebra_oppreserving_prod_algebra_mapin</title>
<path fill="none" stroke="#000000" d="M1359.4311,-447.8314C1363.6739,-439.7925 1368.7542,-430.1666 1373.4381,-421.2918"/>
<polygon fill="#000000" stroke="#000000" points="1376.5517,-422.8908 1378.124,-412.4133 1370.361,-419.6235 1376.5517,-422.8908"/>
</g>
<!-- ua_prod_algebra_def_prod_algebra_mapin -->
<g id="node11" class="node">
<title>ua_prod_algebra_def_prod_algebra_mapin</title>
<g id="a_node11"><a xlink:href="ua_prod_algebra.html#def_prod_algebra_mapin" xlink:title="def_prod_algebra_mapin">
<ellipse fill="#f070d1" stroke="#000000" cx="1268.8421" cy="-322" rx="125.3778" ry="18"/>
<text text-anchor="middle" x="1268.8421" y="-318.3" font-family="Times,serif" font-size="14.00" fill="#000000">def_prod_algebra_mapin</text>
</a>
</g>
</g>
<!-- ua_prod_algebra_oppreserving_prod_algebra_mapin&#45;&gt;ua_prod_algebra_def_prod_algebra_mapin -->
<g id="edge16" class="edge">
<title>ua_prod_algebra_oppreserving_prod_algebra_mapin&#45;&gt;ua_prod_algebra_def_prod_algebra_mapin</title>
<path fill="none" stroke="#000000" d="M1358.4264,-376.2022C1342.8629,-366.7857 1323.5728,-355.1144 1306.8835,-345.0167"/>
<polygon fill="#000000" stroke="#000000" points="1308.2872,-341.7752 1297.9195,-339.593 1304.6635,-347.7643 1308.2872,-341.7752"/>
</g>
<!-- ua_prod_algebra_def_prod_algebra_mapin&#45;&gt;ua_prod_algebra_ProdAlgebra -->
<g id="edge17" class="edge">
<title>ua_prod_algebra_def_prod_algebra_mapin&#45;&gt;ua_prod_algebra_ProdAlgebra</title>
<path fill="none" stroke="#000000" d="M1174.3985,-310.0703C1061.2615,-295.7793 874.1859,-272.1487 771.6399,-259.1955"/>
<polygon fill="#000000" stroke="#000000" points="772.0425,-255.7186 761.6827,-257.9378 771.1652,-262.6635 772.0425,-255.7186"/>
</g>
<!-- ua_prod_algebra_hom_prod_algebra_mapout&#45;&gt;ua_prod_algebra_hom_proj_prod_algebra -->
<g id="edge18" class="edge">
<title>ua_prod_algebra_hom_prod_algebra_mapout&#45;&gt;ua_prod_algebra_hom_proj_prod_algebra</title>
<path fill="none" stroke="#000000" d="M1013.0409,-602.9526C943.2476,-589.0979 839.9556,-568.5932 768.1661,-554.3422"/>
<polygon fill="#000000" stroke="#000000" points="768.7423,-550.8884 758.2521,-552.3742 767.3792,-557.7544 768.7423,-550.8884"/>
</g>
<!-- ua_prod_algebra_is_homomorphism_proj_prod_algebra -->
<g id="node14" class="node">
<title>ua_prod_algebra_is_homomorphism_proj_prod_algebra</title>
<g id="a_node14"><a xlink:href="ua_prod_algebra.html#is_homomorphism_proj_prod_algebra" xlink:title="is_homomorphism_proj_prod_algebra">
<ellipse fill="#f070d1" stroke="#000000" cx="685.8421" cy="-466" rx="185.4674" ry="18"/>
<text text-anchor="middle" x="685.8421" y="-462.3" font-family="Times,serif" font-size="14.00" fill="#000000">is_homomorphism_proj_prod_algebra</text>
</a>
</g>
</g>
<!-- ua_prod_algebra_hom_proj_prod_algebra&#45;&gt;ua_prod_algebra_is_homomorphism_proj_prod_algebra -->
<g id="edge19" class="edge">
<title>ua_prod_algebra_hom_proj_prod_algebra&#45;&gt;ua_prod_algebra_is_homomorphism_proj_prod_algebra</title>
<path fill="none" stroke="#000000" d="M685.8421,-519.8314C685.8421,-512.131 685.8421,-502.9743 685.8421,-494.4166"/>
<polygon fill="#000000" stroke="#000000" points="689.3422,-494.4132 685.8421,-484.4133 682.3422,-494.4133 689.3422,-494.4132"/>
</g>
<!-- ua_prod_algebra_oppreserving_proj_prod_algebra -->
<g id="node15" class="node">
<title>ua_prod_algebra_oppreserving_proj_prod_algebra</title>
<g id="a_node15"><a xlink:href="ua_prod_algebra.html#oppreserving_proj_prod_algebra" xlink:title="oppreserving_proj_prod_algebra">
<ellipse fill="#f070d1" stroke="#000000" cx="475.8421" cy="-394" rx="161.6714" ry="18"/>
<text text-anchor="middle" x="475.8421" y="-390.3" font-family="Times,serif" font-size="14.00" fill="#000000">oppreserving_proj_prod_algebra</text>
</a>
</g>
</g>
<!-- ua_prod_algebra_is_homomorphism_proj_prod_algebra&#45;&gt;ua_prod_algebra_oppreserving_proj_prod_algebra -->
<g id="edge20" class="edge">
<title>ua_prod_algebra_is_homomorphism_proj_prod_algebra&#45;&gt;ua_prod_algebra_oppreserving_proj_prod_algebra</title>
<path fill="none" stroke="#000000" d="M635.2746,-448.6626C605.2482,-438.3678 567.0132,-425.2587 535.5138,-414.4589"/>
<polygon fill="#000000" stroke="#000000" points="536.5655,-411.1195 525.9708,-411.187 534.2952,-417.7411 536.5655,-411.1195"/>
</g>
<!-- ua_prod_algebra_def_proj_prod_algebra -->
<g id="node16" class="node">
<title>ua_prod_algebra_def_proj_prod_algebra</title>
<g id="a_node16"><a xlink:href="ua_prod_algebra.html#def_proj_prod_algebra" xlink:title="def_proj_prod_algebra">
<ellipse fill="#f070d1" stroke="#000000" cx="533.8421" cy="-322" rx="115.0796" ry="18"/>
<text text-anchor="middle" x="533.8421" y="-318.3" font-family="Times,serif" font-size="14.00" fill="#000000">def_proj_prod_algebra</text>
</a>
</g>
</g>
<!-- ua_prod_algebra_oppreserving_proj_prod_algebra&#45;&gt;ua_prod_algebra_def_proj_prod_algebra -->
<g id="edge21" class="edge">
<title>ua_prod_algebra_oppreserving_proj_prod_algebra&#45;&gt;ua_prod_algebra_def_proj_prod_algebra</title>
<path fill="none" stroke="#000000" d="M490.478,-375.8314C497.3302,-367.3251 505.6139,-357.0419 513.0974,-347.752"/>
<polygon fill="#000000" stroke="#000000" points="515.8642,-349.8966 519.4119,-339.9134 510.4129,-345.5053 515.8642,-349.8966"/>
</g>
<!-- ua_prod_algebra_def_proj_prod_algebra&#45;&gt;ua_prod_algebra_ProdAlgebra -->
<g id="edge22" class="edge">
<title>ua_prod_algebra_def_proj_prod_algebra&#45;&gt;ua_prod_algebra_ProdAlgebra</title>
<path fill="none" stroke="#000000" d="M572.9448,-304.937C597.1971,-294.3542 628.444,-280.7192 653.7406,-269.6807"/>
<polygon fill="#000000" stroke="#000000" points="655.3518,-272.7964 663.1174,-265.589 652.5521,-266.3806 655.3518,-272.7964"/>
</g>
<!-- ua_prod_algebra_trunc_prod_algebra&#45;&gt;ua_prod_algebra_ProdAlgebra -->
<g id="edge23" class="edge">
<title>ua_prod_algebra_trunc_prod_algebra&#45;&gt;ua_prod_algebra_ProdAlgebra</title>
<path fill="none" stroke="#000000" d="M896.7018,-376.6302C855.83,-350.4722 778.4928,-300.9765 733.5661,-272.2234"/>
<polygon fill="#000000" stroke="#000000" points="735.3427,-269.205 725.0333,-266.7624 731.5693,-275.1009 735.3427,-269.205"/>
</g>
<!-- ua_prod_algebra_ops_prod_algebra -->
<g id="node19" class="node">
<title>ua_prod_algebra_ops_prod_algebra</title>
<g id="a_node19"><a xlink:href="ua_prod_algebra.html#ops_prod_algebra" xlink:title="ops_prod_algebra">
<ellipse fill="#f070d1" stroke="#000000" cx="698.8421" cy="-178" rx="92.8835" ry="18"/>
<text text-anchor="middle" x="698.8421" y="-174.3" font-family="Times,serif" font-size="14.00" fill="#000000">ops_prod_algebra</text>
</a>
</g>
</g>
<!-- ua_prod_algebra_ProdAlgebra&#45;&gt;ua_prod_algebra_ops_prod_algebra -->
<g id="edge24" class="edge">
<title>ua_prod_algebra_ProdAlgebra&#45;&gt;ua_prod_algebra_ops_prod_algebra</title>
<path fill="none" stroke="#000000" d="M698.8421,-231.8314C698.8421,-224.131 698.8421,-214.9743 698.8421,-206.4166"/>
<polygon fill="#000000" stroke="#000000" points="702.3422,-206.4132 698.8421,-196.4133 695.3422,-206.4133 702.3422,-206.4132"/>
</g>
<!-- ua_prod_algebra_op_prod_algebra -->
<g id="node20" class="node">
<title>ua_prod_algebra_op_prod_algebra</title>
<g id="a_node20"><a xlink:href="ua_prod_algebra.html#op_prod_algebra" xlink:title="op_prod_algebra">
<ellipse fill="#f070d1" stroke="#000000" cx="698.8421" cy="-106" rx="88.2844" ry="18"/>
<text text-anchor="middle" x="698.8421" y="-102.3" font-family="Times,serif" font-size="14.00" fill="#000000">op_prod_algebra</text>
</a>
</g>
</g>
<!-- ua_prod_algebra_ops_prod_algebra&#45;&gt;ua_prod_algebra_op_prod_algebra -->
<g id="edge25" class="edge">
<title>ua_prod_algebra_ops_prod_algebra&#45;&gt;ua_prod_algebra_op_prod_algebra</title>
<path fill="none" stroke="#000000" d="M698.8421,-159.8314C698.8421,-152.131 698.8421,-142.9743 698.8421,-134.4166"/>
<polygon fill="#000000" stroke="#000000" points="702.3422,-134.4132 698.8421,-124.4133 695.3422,-134.4133 702.3422,-134.4132"/>
</g>
<!-- ua_prod_algebra_carriers_prod_algebra -->
<g id="node21" class="node">
<title>ua_prod_algebra_carriers_prod_algebra</title>
<g id="a_node21"><a xlink:href="ua_prod_algebra.html#carriers_prod_algebra" xlink:title="carriers_prod_algebra">
<ellipse fill="#f070d1" stroke="#000000" cx="698.8421" cy="-34" rx="114.2798" ry="18"/>
<text text-anchor="middle" x="698.8421" y="-30.3" font-family="Times,serif" font-size="14.00" fill="#000000">carriers_prod_algebra</text>
</a>
</g>
</g>
<!-- ua_prod_algebra_op_prod_algebra&#45;&gt;ua_prod_algebra_carriers_prod_algebra -->
<g id="edge26" class="edge">
<title>ua_prod_algebra_op_prod_algebra&#45;&gt;ua_prod_algebra_carriers_prod_algebra</title>
<path fill="none" stroke="#000000" d="M698.8421,-87.8314C698.8421,-80.131 698.8421,-70.9743 698.8421,-62.4166"/>
<polygon fill="#000000" stroke="#000000" points="702.3422,-62.4132 698.8421,-52.4133 695.3422,-62.4133 702.3422,-62.4132"/>
</g>
</g>
</svg>
