<?xml version="1.0" encoding="UTF-8" standalone="no"?>
<!DOCTYPE svg PUBLIC "-//W3C//DTD SVG 1.1//EN"
 "http://www.w3.org/Graphics/SVG/1.1/DTD/svg11.dtd">
<!-- Generated by graphviz version 2.40.1 (20161225.0304)
 -->
<!-- Title: HoTT_Classes_interfaces_ua_congruence Pages: 1 -->
<svg width="1915pt" height="962pt"
 viewBox="0.00 0.00 1915.00 961.50" xmlns="http://www.w3.org/2000/svg" xmlns:xlink="http://www.w3.org/1999/xlink">
<g id="graph0" class="graph" transform="scale(1 1) rotate(0) translate(4 957.5)">
<title>HoTT_Classes_interfaces_ua_congruence</title>
<polygon fill="#ffffff" stroke="transparent" points="-4,4 -4,-957.5 1911,-957.5 1911,4 -4,4"/>
<g id="clust1" class="cluster">
<title>cluster_ua_congruence</title>
<polygon fill="#ffffc3" stroke="#000000" points="8,-17.8642 8,-935.6358 1899,-935.6358 1899,-17.8642 8,-17.8642"/>
<text text-anchor="middle" x="70.5" y="-920.4358" font-family="Times,serif" font-size="14.00" fill="#000000">ua_congruence</text>
</g>
<!-- ua_congruence_op_compatible_cons -->
<g id="node1" class="node">
<title>ua_congruence_op_compatible_cons</title>
<g id="a_node1"><a xlink:href="ua_congruence.html#op_compatible_cons" xlink:title="op_compatible_cons">
<ellipse fill="#f070d1" stroke="#000000" cx="1062" cy="-611.8642" rx="104.7716" ry="18"/>
<ellipse fill="none" stroke="#000000" cx="1062" cy="-611.8642" rx="108.7766" ry="22"/>
<ellipse fill="none" stroke="#000000" cx="1062" cy="-611.8642" rx="112.7816" ry="26"/>
<text text-anchor="middle" x="1062" y="-608.1642" font-family="Times,serif" font-size="14.00" fill="#000000">op_compatible_cons</text>
</a>
</g>
</g>
<!-- ua_congruence_IsCongruence -->
<g id="node11" class="node">
<title>ua_congruence_IsCongruence</title>
<g id="a_node11"><a xlink:href="ua_congruence.html#IsCongruence" xlink:title="IsCongruence">
<ellipse fill="#e2cdfa" stroke="#000000" cx="828" cy="-414.8642" rx="76.0865" ry="18"/>
<text text-anchor="middle" x="828" y="-411.1642" font-family="Times,serif" font-size="14.00" fill="#000000">IsCongruence</text>
</a>
</g>
</g>
<!-- ua_congruence_op_compatible_cons&#45;&gt;ua_congruence_IsCongruence -->
<g id="edge1" class="edge">
<title>ua_congruence_op_compatible_cons&#45;&gt;ua_congruence_IsCongruence</title>
<path fill="none" stroke="#000000" d="M1031.8876,-586.5132C986.4518,-548.2616 900.9658,-476.2926 856.4995,-438.8573"/>
<polygon fill="#000000" stroke="#000000" points="858.5971,-436.048 848.6929,-432.2851 854.0888,-441.403 858.5971,-436.048"/>
</g>
<!-- ua_congruence_hprop_is_congruence -->
<g id="node2" class="node">
<title>ua_congruence_hprop_is_congruence</title>
<g id="a_node2"><a xlink:href="ua_congruence.html#hprop_is_congruence" xlink:title="hprop_is_congruence">
<ellipse fill="#f070d1" stroke="#000000" cx="134" cy="-611.8642" rx="110.4811" ry="18"/>
<ellipse fill="none" stroke="#000000" cx="134" cy="-611.8642" rx="114.4807" ry="22"/>
<ellipse fill="none" stroke="#000000" cx="134" cy="-611.8642" rx="118.4804" ry="26"/>
<text text-anchor="middle" x="134" y="-608.1642" font-family="Times,serif" font-size="14.00" fill="#000000">hprop_is_congruence</text>
</a>
</g>
</g>
<!-- ua_congruence_BuildIsCongruence -->
<g id="node10" class="node">
<title>ua_congruence_BuildIsCongruence</title>
<g id="a_node10"><a xlink:href="ua_congruence.html#BuildIsCongruence" xlink:title="BuildIsCongruence">
<ellipse fill="#7faaff" stroke="#000000" cx="580" cy="-414.8642" rx="100.9827" ry="18"/>
<text text-anchor="middle" x="580" y="-411.1642" font-family="Times,serif" font-size="14.00" fill="#000000">BuildIsCongruence</text>
</a>
</g>
</g>
<!-- ua_congruence_hprop_is_congruence&#45;&gt;ua_congruence_BuildIsCongruence -->
<g id="edge2" class="edge">
<title>ua_congruence_hprop_is_congruence&#45;&gt;ua_congruence_BuildIsCongruence</title>
<path fill="none" stroke="#000000" d="M186.9135,-588.4921C274.6749,-549.7275 448.9667,-472.7421 532.8001,-435.7126"/>
<polygon fill="#000000" stroke="#000000" points="534.3463,-438.8559 542.0796,-431.6138 531.518,-432.4527 534.3463,-438.8559"/>
</g>
<!-- ua_congruence_hprop_is_congruence&#45;&gt;ua_congruence_IsCongruence -->
<g id="edge3" class="edge">
<title>ua_congruence_hprop_is_congruence&#45;&gt;ua_congruence_IsCongruence</title>
<path fill="none" stroke="#000000" d="M206.632,-591.2467C344.7099,-552.0517 642.57,-467.5006 769.1559,-431.5678"/>
<polygon fill="#000000" stroke="#000000" points="770.3926,-434.8551 779.0568,-428.7573 768.4811,-428.1211 770.3926,-434.8551"/>
</g>
<!-- ua_congruence_trunc_ops_compatible -->
<g id="node12" class="node">
<title>ua_congruence_trunc_ops_compatible</title>
<g id="a_node12"><a xlink:href="ua_congruence.html#trunc_ops_compatible" xlink:title="trunc_ops_compatible">
<ellipse fill="#f070d1" stroke="#000000" cx="348" cy="-414.8642" rx="113.9803" ry="18"/>
<text text-anchor="middle" x="348" y="-411.1642" font-family="Times,serif" font-size="14.00" fill="#000000">trunc_ops_compatible</text>
</a>
</g>
</g>
<!-- ua_congruence_hprop_is_congruence&#45;&gt;ua_congruence_trunc_ops_compatible -->
<g id="edge4" class="edge">
<title>ua_congruence_hprop_is_congruence&#45;&gt;ua_congruence_trunc_ops_compatible</title>
<path fill="none" stroke="#000000" d="M161.5387,-586.5132C202.7928,-548.5362 280.1499,-477.3243 321.0547,-439.6689"/>
<polygon fill="#000000" stroke="#000000" points="323.5031,-442.1723 328.4899,-432.8244 318.7621,-437.0222 323.5031,-442.1723"/>
</g>
<!-- ua_congruence_ops_compatible_cong -->
<g id="node3" class="node">
<title>ua_congruence_ops_compatible_cong</title>
<g id="a_node3"><a xlink:href="ua_congruence.html#ops_compatible_cong" xlink:title="ops_compatible_cong">
<ellipse fill="#f070d1" stroke="#000000" cx="1773" cy="-611.8642" rx="110.4811" ry="18"/>
<ellipse fill="none" stroke="#000000" cx="1773" cy="-611.8642" rx="114.4807" ry="22"/>
<ellipse fill="none" stroke="#000000" cx="1773" cy="-611.8642" rx="118.4804" ry="26"/>
<text text-anchor="middle" x="1773" y="-608.1642" font-family="Times,serif" font-size="14.00" fill="#000000">ops_compatible_cong</text>
</a>
</g>
</g>
<!-- ua_congruence_ops_compatible_cong&#45;&gt;ua_congruence_IsCongruence -->
<g id="edge5" class="edge">
<title>ua_congruence_ops_compatible_cong&#45;&gt;ua_congruence_IsCongruence</title>
<path fill="none" stroke="#000000" d="M1687.052,-593.947C1500.7867,-555.1171 1063.1696,-463.8889 895.24,-428.8814"/>
<polygon fill="#000000" stroke="#000000" points="895.7943,-425.4218 885.2905,-426.8073 894.3657,-432.2745 895.7943,-425.4218"/>
</g>
<!-- ua_congruence_equiv_rel_cong -->
<g id="node4" class="node">
<title>ua_congruence_equiv_rel_cong</title>
<g id="a_node4"><a xlink:href="ua_congruence.html#equiv_rel_cong" xlink:title="equiv_rel_cong">
<ellipse fill="#f070d1" stroke="#000000" cx="1547" cy="-611.8642" rx="81.4644" ry="18"/>
<ellipse fill="none" stroke="#000000" cx="1547" cy="-611.8642" rx="85.4753" ry="22"/>
<ellipse fill="none" stroke="#000000" cx="1547" cy="-611.8642" rx="89.4862" ry="26"/>
<text text-anchor="middle" x="1547" y="-608.1642" font-family="Times,serif" font-size="14.00" fill="#000000">equiv_rel_cong</text>
</a>
</g>
</g>
<!-- ua_congruence_equiv_rel_cong&#45;&gt;ua_congruence_IsCongruence -->
<g id="edge6" class="edge">
<title>ua_congruence_equiv_rel_cong&#45;&gt;ua_congruence_IsCongruence</title>
<path fill="none" stroke="#000000" d="M1481.9254,-594.0343C1343.3194,-556.0574 1020.7541,-467.6772 887.3673,-431.1303"/>
<polygon fill="#000000" stroke="#000000" points="888.284,-427.7525 877.7146,-428.4855 886.4342,-434.5037 888.284,-427.7525"/>
</g>
<!-- ua_congruence_is_mere_relation_cong -->
<g id="node5" class="node">
<title>ua_congruence_is_mere_relation_cong</title>
<g id="a_node5"><a xlink:href="ua_congruence.html#is_mere_relation_cong" xlink:title="is_mere_relation_cong">
<ellipse fill="#f070d1" stroke="#000000" cx="1316" cy="-611.8642" rx="115.8675" ry="18"/>
<ellipse fill="none" stroke="#000000" cx="1316" cy="-611.8642" rx="119.8736" ry="22"/>
<ellipse fill="none" stroke="#000000" cx="1316" cy="-611.8642" rx="123.8798" ry="26"/>
<text text-anchor="middle" x="1316" y="-608.1642" font-family="Times,serif" font-size="14.00" fill="#000000">is_mere_relation_cong</text>
</a>
</g>
</g>
<!-- ua_congruence_is_mere_relation_cong&#45;&gt;ua_congruence_IsCongruence -->
<g id="edge7" class="edge">
<title>ua_congruence_is_mere_relation_cong&#45;&gt;ua_congruence_IsCongruence</title>
<path fill="none" stroke="#000000" d="M1258.5852,-588.6865C1161.4694,-549.482 966.5361,-470.7896 876.11,-434.2856"/>
<polygon fill="#000000" stroke="#000000" points="877.2345,-430.9652 866.6514,-430.4673 874.6141,-437.4562 877.2345,-430.9652"/>
</g>
<!-- ua_congruence_IsCongruence_sind -->
<g id="node6" class="node">
<title>ua_congruence_IsCongruence_sind</title>
<g id="a_node6"><a xlink:href="ua_congruence.html#IsCongruence_sind" xlink:title="IsCongruence_sind">
<ellipse fill="#f070d1" stroke="#000000" cx="598" cy="-611.8642" rx="100.9649" ry="18"/>
<ellipse fill="none" stroke="#000000" cx="598" cy="-611.8642" rx="104.9738" ry="22"/>
<ellipse fill="none" stroke="#000000" cx="598" cy="-611.8642" rx="108.9827" ry="26"/>
<text text-anchor="middle" x="598" y="-608.1642" font-family="Times,serif" font-size="14.00" fill="#000000">IsCongruence_sind</text>
</a>
</g>
</g>
<!-- ua_congruence_IsCongruence_sind&#45;&gt;ua_congruence_BuildIsCongruence -->
<g id="edge8" class="edge">
<title>ua_congruence_IsCongruence_sind&#45;&gt;ua_congruence_BuildIsCongruence</title>
<path fill="none" stroke="#000000" d="M595.6097,-585.7041C592.2326,-548.7431 586.0881,-481.4954 582.6003,-443.3234"/>
<polygon fill="#000000" stroke="#000000" points="586.0458,-442.5664 581.6504,-432.9264 579.0749,-443.2034 586.0458,-442.5664"/>
</g>
<!-- ua_congruence_IsCongruence_sind&#45;&gt;ua_congruence_IsCongruence -->
<g id="edge9" class="edge">
<title>ua_congruence_IsCongruence_sind&#45;&gt;ua_congruence_IsCongruence</title>
<path fill="none" stroke="#000000" d="M627.5976,-586.5132C672.2568,-548.2616 756.2815,-476.2926 799.9877,-438.8573"/>
<polygon fill="#000000" stroke="#000000" points="802.3427,-441.4486 807.6608,-432.2851 797.789,-436.1322 802.3427,-441.4486"/>
</g>
<!-- ua_congruence_IsCongruence_rec -->
<g id="node7" class="node">
<title>ua_congruence_IsCongruence_rec</title>
<g id="a_node7"><a xlink:href="ua_congruence.html#IsCongruence_rec" xlink:title="IsCongruence_rec">
<ellipse fill="#f070d1" stroke="#000000" cx="371" cy="-807.8642" rx="96.3686" ry="18"/>
<ellipse fill="none" stroke="#000000" cx="371" cy="-807.8642" rx="100.3759" ry="22"/>
<ellipse fill="none" stroke="#000000" cx="371" cy="-807.8642" rx="104.3833" ry="26"/>
<text text-anchor="middle" x="371" y="-804.1642" font-family="Times,serif" font-size="14.00" fill="#000000">IsCongruence_rec</text>
</a>
</g>
</g>
<!-- ua_congruence_IsCongruence_rect -->
<g id="node9" class="node">
<title>ua_congruence_IsCongruence_rect</title>
<g id="a_node9"><a xlink:href="ua_congruence.html#IsCongruence_rect" xlink:title="IsCongruence_rect">
<ellipse fill="#f070d1" stroke="#000000" cx="371" cy="-611.8642" rx="100.1823" ry="18"/>
<text text-anchor="middle" x="371" y="-608.1642" font-family="Times,serif" font-size="14.00" fill="#000000">IsCongruence_rect</text>
</a>
</g>
</g>
<!-- ua_congruence_IsCongruence_rec&#45;&gt;ua_congruence_IsCongruence_rect -->
<g id="edge10" class="edge">
<title>ua_congruence_IsCongruence_rec&#45;&gt;ua_congruence_IsCongruence_rect</title>
<path fill="none" stroke="#000000" d="M371,-781.8369C371,-745.1582 371,-678.5019 371,-640.4732"/>
<polygon fill="#000000" stroke="#000000" points="374.5001,-640.1047 371,-630.1047 367.5001,-640.1048 374.5001,-640.1047"/>
</g>
<!-- ua_congruence_IsCongruence_ind -->
<g id="node8" class="node">
<title>ua_congruence_IsCongruence_ind</title>
<g id="a_node8"><a xlink:href="ua_congruence.html#IsCongruence_ind" xlink:title="IsCongruence_ind">
<ellipse fill="#7fffd4" stroke="#000000" cx="828" cy="-611.8642" rx="95.5799" ry="18"/>
<ellipse fill="none" stroke="#000000" cx="828" cy="-611.8642" rx="99.5815" ry="22"/>
<ellipse fill="none" stroke="#000000" cx="828" cy="-611.8642" rx="103.5831" ry="26"/>
<text text-anchor="middle" x="828" y="-608.1642" font-family="Times,serif" font-size="14.00" fill="#000000">IsCongruence_ind</text>
</a>
</g>
</g>
<!-- ua_congruence_IsCongruence_ind&#45;&gt;ua_congruence_BuildIsCongruence -->
<g id="edge11" class="edge">
<title>ua_congruence_IsCongruence_ind&#45;&gt;ua_congruence_BuildIsCongruence</title>
<path fill="none" stroke="#000000" d="M796.5906,-586.914C748.6378,-548.8224 657.7639,-476.6363 610.4133,-439.0231"/>
<polygon fill="#000000" stroke="#000000" points="612.381,-436.1163 602.3737,-432.6369 608.027,-441.5974 612.381,-436.1163"/>
</g>
<!-- ua_congruence_IsCongruence_ind&#45;&gt;ua_congruence_IsCongruence -->
<g id="edge12" class="edge">
<title>ua_congruence_IsCongruence_ind&#45;&gt;ua_congruence_IsCongruence</title>
<path fill="none" stroke="#000000" d="M828,-585.7041C828,-548.7431 828,-481.4954 828,-443.3234"/>
<polygon fill="#000000" stroke="#000000" points="831.5001,-442.9263 828,-432.9264 824.5001,-442.9264 831.5001,-442.9263"/>
</g>
<!-- ua_congruence_IsCongruence_rect&#45;&gt;ua_congruence_BuildIsCongruence -->
<g id="edge13" class="edge">
<title>ua_congruence_IsCongruence_rect&#45;&gt;ua_congruence_BuildIsCongruence</title>
<path fill="none" stroke="#000000" d="M389.916,-594.0343C427.2811,-558.8145 510.6372,-480.2444 553.4701,-439.8708"/>
<polygon fill="#000000" stroke="#000000" points="556.1,-442.2017 560.9762,-432.7957 551.2986,-437.1079 556.1,-442.2017"/>
</g>
<!-- ua_congruence_IsCongruence_rect&#45;&gt;ua_congruence_IsCongruence -->
<g id="edge14" class="edge">
<title>ua_congruence_IsCongruence_rect&#45;&gt;ua_congruence_IsCongruence</title>
<path fill="none" stroke="#000000" d="M409.5697,-595.2378C493.3458,-559.1243 691.6455,-473.6428 781.8686,-434.7502"/>
<polygon fill="#000000" stroke="#000000" points="783.4922,-437.8617 791.2897,-430.6889 780.7211,-431.4335 783.4922,-437.8617"/>
</g>
<!-- ua_congruence_OpsCompatible -->
<g id="node14" class="node">
<title>ua_congruence_OpsCompatible</title>
<g id="a_node14"><a xlink:href="ua_congruence.html#OpsCompatible" xlink:title="OpsCompatible">
<ellipse fill="#f070d1" stroke="#000000" cx="464" cy="-236.8642" rx="83.3857" ry="18"/>
<text text-anchor="middle" x="464" y="-233.1642" font-family="Times,serif" font-size="14.00" fill="#000000">OpsCompatible</text>
</a>
</g>
</g>
<!-- ua_congruence_BuildIsCongruence&#45;&gt;ua_congruence_OpsCompatible -->
<g id="edge15" class="edge">
<title>ua_congruence_BuildIsCongruence&#45;&gt;ua_congruence_OpsCompatible</title>
<path fill="none" stroke="#000000" d="M568.2389,-396.817C547.6897,-365.2845 505.1659,-300.0325 481.2691,-263.3634"/>
<polygon fill="#000000" stroke="#000000" points="484.0119,-261.1615 475.6197,-254.6944 478.1473,-264.9834 484.0119,-261.1615"/>
</g>
<!-- ua_congruence_IsCongruence&#45;&gt;ua_congruence_OpsCompatible -->
<g id="edge16" class="edge">
<title>ua_congruence_IsCongruence&#45;&gt;ua_congruence_OpsCompatible</title>
<path fill="none" stroke="#000000" d="M794.7325,-398.596C728.5045,-366.2098 580.2416,-293.7076 506.8446,-257.8156"/>
<polygon fill="#000000" stroke="#000000" points="508.3712,-254.6661 497.8502,-253.4173 505.296,-260.9545 508.3712,-254.6661"/>
</g>
<!-- ua_congruence_trunc_ops_compatible&#45;&gt;ua_congruence_OpsCompatible -->
<g id="edge17" class="edge">
<title>ua_congruence_trunc_ops_compatible&#45;&gt;ua_congruence_OpsCompatible</title>
<path fill="none" stroke="#000000" d="M359.7611,-396.817C380.3103,-365.2845 422.8341,-300.0325 446.7309,-263.3634"/>
<polygon fill="#000000" stroke="#000000" points="449.8527,-264.9834 452.3803,-254.6944 443.9881,-261.1615 449.8527,-264.9834"/>
</g>
<!-- ua_congruence_ops_compatible -->
<g id="node13" class="node">
<title>ua_congruence_ops_compatible</title>
<g id="a_node13"><a xlink:href="ua_congruence.html#ops_compatible" xlink:title="ops_compatible">
<ellipse fill="#f070d1" stroke="#000000" cx="125" cy="-414.8642" rx="83.3687" ry="18"/>
<ellipse fill="none" stroke="#000000" cx="125" cy="-414.8642" rx="87.3772" ry="22"/>
<ellipse fill="none" stroke="#000000" cx="125" cy="-414.8642" rx="91.3856" ry="26"/>
<text text-anchor="middle" x="125" y="-411.1642" font-family="Times,serif" font-size="14.00" fill="#000000">ops_compatible</text>
</a>
</g>
</g>
<!-- ua_congruence_ops_compatible&#45;&gt;ua_congruence_OpsCompatible -->
<g id="edge18" class="edge">
<title>ua_congruence_ops_compatible&#45;&gt;ua_congruence_OpsCompatible</title>
<path fill="none" stroke="#000000" d="M168.6243,-391.9582C234.5857,-357.3236 358.8112,-292.096 423.1155,-258.3315"/>
<polygon fill="#000000" stroke="#000000" points="424.9276,-261.3333 432.1542,-253.5856 421.6733,-255.1357 424.9276,-261.3333"/>
</g>
<!-- ua_congruence_OpCompatible -->
<g id="node15" class="node">
<title>ua_congruence_OpCompatible</title>
<g id="a_node15"><a xlink:href="ua_congruence.html#OpCompatible" xlink:title="OpCompatible">
<ellipse fill="#f070d1" stroke="#000000" cx="464" cy="-75.8642" rx="77.9862" ry="18"/>
<text text-anchor="middle" x="464" y="-72.1642" font-family="Times,serif" font-size="14.00" fill="#000000">OpCompatible</text>
</a>
</g>
</g>
<!-- ua_congruence_OpsCompatible&#45;&gt;ua_congruence_OpCompatible -->
<g id="edge19" class="edge">
<title>ua_congruence_OpsCompatible&#45;&gt;ua_congruence_OpCompatible</title>
<path fill="none" stroke="#000000" d="M464,-218.7084C464,-190.9275 464,-137.6224 464,-104.5679"/>
<polygon fill="#000000" stroke="#000000" points="467.5001,-104.2006 464,-94.2006 460.5001,-104.2007 467.5001,-104.2006"/>
</g>
</g>
</svg>
