<?xml version="1.0" encoding="UTF-8" standalone="no"?>
<!DOCTYPE svg PUBLIC "-//W3C//DTD SVG 1.1//EN"
 "http://www.w3.org/Graphics/SVG/1.1/DTD/svg11.dtd">
<!-- Generated by graphviz version 2.40.1 (20161225.0304)
 -->
<!-- Title: HoTT_Algebra_Universal_Operation Pages: 1 -->
<svg width="1586pt" height="797pt"
 viewBox="0.00 0.00 1586.00 797.00" xmlns="http://www.w3.org/2000/svg" xmlns:xlink="http://www.w3.org/1999/xlink">
<g id="graph0" class="graph" transform="scale(1 1) rotate(0) translate(4 793)">
<title>HoTT_Algebra_Universal_Operation</title>
<polygon fill="#ffffff" stroke="transparent" points="-4,4 -4,-793 1582,-793 1582,4 -4,4"/>
<g id="clust1" class="cluster">
<title>cluster_Operation</title>
<polygon fill="#ffffc3" stroke="#000000" points="8,-13.0683 8,-775.9317 1570,-775.9317 1570,-13.0683 8,-13.0683"/>
<text text-anchor="middle" x="52.5" y="-760.7317" font-family="Times,serif" font-size="14.00" fill="#000000">Operation</text>
</g>
<!-- Operation_equiv_operation_curry -->
<g id="node1" class="node">
<title>Operation_equiv_operation_curry</title>
<g id="a_node1"><a xlink:href="Operation.html#equiv_operation_curry" xlink:title="equiv_operation_curry">
<ellipse fill="#f070d1" stroke="#000000" cx="1219" cy="-683.0683" rx="115.8675" ry="18"/>
<ellipse fill="none" stroke="#000000" cx="1219" cy="-683.0683" rx="119.8736" ry="22"/>
<ellipse fill="none" stroke="#000000" cx="1219" cy="-683.0683" rx="123.8798" ry="26"/>
<text text-anchor="middle" x="1219" y="-679.3683" font-family="Times,serif" font-size="14.00" fill="#000000">equiv_operation_curry</text>
</a>
</g>
</g>
<!-- Operation_isequiv_operation_curry -->
<g id="node2" class="node">
<title>Operation_isequiv_operation_curry</title>
<g id="a_node2"><a xlink:href="Operation.html#isequiv_operation_curry" xlink:title="isequiv_operation_curry">
<ellipse fill="#f070d1" stroke="#000000" cx="1219" cy="-552.0683" rx="123.4781" ry="18"/>
<text text-anchor="middle" x="1219" y="-548.3683" font-family="Times,serif" font-size="14.00" fill="#000000">isequiv_operation_curry</text>
</a>
</g>
</g>
<!-- Operation_equiv_operation_curry&#45;&gt;Operation_isequiv_operation_curry -->
<g id="edge1" class="edge">
<title>Operation_equiv_operation_curry&#45;&gt;Operation_isequiv_operation_curry</title>
<path fill="none" stroke="#000000" d="M1219,-656.8734C1219,-634.6998 1219,-602.9898 1219,-580.2657"/>
<polygon fill="#000000" stroke="#000000" points="1222.5001,-580.2188 1219,-570.2188 1215.5001,-580.2188 1222.5001,-580.2188"/>
</g>
<!-- Operation_path_operation_uncurry_to_curry -->
<g id="node3" class="node">
<title>Operation_path_operation_uncurry_to_curry</title>
<g id="a_node3"><a xlink:href="Operation.html#path_operation_uncurry_to_curry" xlink:title="path_operation_uncurry_to_curry">
<ellipse fill="#f070d1" stroke="#000000" cx="1043" cy="-421.0683" rx="167.0704" ry="18"/>
<text text-anchor="middle" x="1043" y="-417.3683" font-family="Times,serif" font-size="14.00" fill="#000000">path_operation_uncurry_to_curry</text>
</a>
</g>
</g>
<!-- Operation_isequiv_operation_curry&#45;&gt;Operation_path_operation_uncurry_to_curry -->
<g id="edge2" class="edge">
<title>Operation_isequiv_operation_curry&#45;&gt;Operation_path_operation_uncurry_to_curry</title>
<path fill="none" stroke="#000000" d="M1195.2639,-534.4011C1164.3838,-511.4165 1110.2901,-471.1536 1075.5849,-445.3218"/>
<polygon fill="#000000" stroke="#000000" points="1077.3168,-442.2478 1067.2051,-439.0847 1073.1372,-447.8631 1077.3168,-442.2478"/>
</g>
<!-- Operation_path_operation_curry_to_cunurry -->
<g id="node4" class="node">
<title>Operation_path_operation_curry_to_cunurry</title>
<g id="a_node4"><a xlink:href="Operation.html#path_operation_curry_to_cunurry" xlink:title="path_operation_curry_to_cunurry">
<ellipse fill="#f070d1" stroke="#000000" cx="1395" cy="-421.0683" rx="167.0704" ry="18"/>
<text text-anchor="middle" x="1395" y="-417.3683" font-family="Times,serif" font-size="14.00" fill="#000000">path_operation_curry_to_cunurry</text>
</a>
</g>
</g>
<!-- Operation_isequiv_operation_curry&#45;&gt;Operation_path_operation_curry_to_cunurry -->
<g id="edge3" class="edge">
<title>Operation_isequiv_operation_curry&#45;&gt;Operation_path_operation_curry_to_cunurry</title>
<path fill="none" stroke="#000000" d="M1242.7361,-534.4011C1273.6162,-511.4165 1327.7099,-471.1536 1362.4151,-445.3218"/>
<polygon fill="#000000" stroke="#000000" points="1364.8628,-447.8631 1370.7949,-439.0847 1360.6832,-442.2478 1364.8628,-447.8631"/>
</g>
<!-- Operation_operation_curry -->
<g id="node8" class="node">
<title>Operation_operation_curry</title>
<g id="a_node8"><a xlink:href="Operation.html#operation_curry" xlink:title="operation_curry">
<ellipse fill="#f070d1" stroke="#000000" cx="1037" cy="-291.0683" rx="85.2851" ry="18"/>
<text text-anchor="middle" x="1037" y="-287.3683" font-family="Times,serif" font-size="14.00" fill="#000000">operation_curry</text>
</a>
</g>
</g>
<!-- Operation_path_operation_uncurry_to_curry&#45;&gt;Operation_operation_curry -->
<g id="edge4" class="edge">
<title>Operation_path_operation_uncurry_to_curry&#45;&gt;Operation_operation_curry</title>
<path fill="none" stroke="#000000" d="M1042.1657,-402.9924C1041.1683,-381.3822 1039.4871,-344.9551 1038.3145,-319.5484"/>
<polygon fill="#000000" stroke="#000000" points="1041.804,-319.2378 1037.8465,-309.4098 1034.8114,-319.5606 1041.804,-319.2378"/>
</g>
<!-- Operation_operation_uncurry -->
<g id="node10" class="node">
<title>Operation_operation_uncurry</title>
<g id="a_node10"><a xlink:href="Operation.html#operation_uncurry" xlink:title="operation_uncurry">
<ellipse fill="#f070d1" stroke="#000000" cx="837" cy="-291.0683" rx="96.6831" ry="18"/>
<text text-anchor="middle" x="837" y="-287.3683" font-family="Times,serif" font-size="14.00" fill="#000000">operation_uncurry</text>
</a>
</g>
</g>
<!-- Operation_path_operation_uncurry_to_curry&#45;&gt;Operation_operation_uncurry -->
<g id="edge5" class="edge">
<title>Operation_path_operation_uncurry_to_curry&#45;&gt;Operation_operation_uncurry</title>
<path fill="none" stroke="#000000" d="M1014.7885,-403.265C977.9339,-380.0072 913.3627,-339.2584 873.0128,-313.7948"/>
<polygon fill="#000000" stroke="#000000" points="874.8672,-310.8265 864.5425,-308.4495 871.1314,-316.7463 874.8672,-310.8265"/>
</g>
<!-- Operation_expand_cons_dom -->
<g id="node5" class="node">
<title>Operation_expand_cons_dom</title>
<g id="a_node5"><a xlink:href="Operation.html#expand_cons_dom" xlink:title="expand_cons_dom">
<ellipse fill="#f070d1" stroke="#000000" cx="1377" cy="-291.0683" rx="95.5831" ry="18"/>
<text text-anchor="middle" x="1377" y="-287.3683" font-family="Times,serif" font-size="14.00" fill="#000000">expand_cons_dom</text>
</a>
</g>
</g>
<!-- Operation_path_operation_curry_to_cunurry&#45;&gt;Operation_expand_cons_dom -->
<g id="edge6" class="edge">
<title>Operation_path_operation_curry_to_cunurry&#45;&gt;Operation_expand_cons_dom</title>
<path fill="none" stroke="#000000" d="M1392.4972,-402.9924C1389.505,-381.3822 1384.4613,-344.9551 1380.9434,-319.5484"/>
<polygon fill="#000000" stroke="#000000" points="1384.3781,-318.8353 1379.5396,-309.4098 1377.4443,-319.7954 1384.3781,-318.8353"/>
</g>
<!-- Operation_path_operation_curry_to_cunurry&#45;&gt;Operation_operation_curry -->
<g id="edge7" class="edge">
<title>Operation_path_operation_curry_to_cunurry&#45;&gt;Operation_operation_curry</title>
<path fill="none" stroke="#000000" d="M1347.4604,-403.8053C1280.5198,-379.4973 1158.9122,-335.3381 1089.4235,-310.1048"/>
<polygon fill="#000000" stroke="#000000" points="1090.5695,-306.7974 1079.9754,-306.6739 1088.1802,-313.377 1090.5695,-306.7974"/>
</g>
<!-- Operation_path_operation_curry_to_cunurry&#45;&gt;Operation_operation_uncurry -->
<g id="edge8" class="edge">
<title>Operation_path_operation_curry_to_cunurry&#45;&gt;Operation_operation_uncurry</title>
<path fill="none" stroke="#000000" d="M1324.6116,-404.6696C1217.4997,-379.7152 1014.7433,-332.4781 907.5407,-307.5025"/>
<polygon fill="#000000" stroke="#000000" points="908.3192,-304.0902 897.7858,-305.2299 906.7308,-310.9077 908.3192,-304.0902"/>
</g>
<!-- Operation_expand_cons_dom_ -->
<g id="node6" class="node">
<title>Operation_expand_cons_dom_</title>
<g id="a_node6"><a xlink:href="Operation.html#expand_cons_dom'" xlink:title="expand_cons_dom&#39;">
<ellipse fill="#f070d1" stroke="#000000" cx="1210" cy="-173.0683" rx="98.2828" ry="18"/>
<text text-anchor="middle" x="1210" y="-169.3683" font-family="Times,serif" font-size="14.00" fill="#000000">expand_cons_dom&#39;</text>
</a>
</g>
</g>
<!-- Operation_expand_cons_dom&#45;&gt;Operation_expand_cons_dom_ -->
<g id="edge9" class="edge">
<title>Operation_expand_cons_dom&#45;&gt;Operation_expand_cons_dom_</title>
<path fill="none" stroke="#000000" d="M1352.3586,-273.657C1323.3745,-253.1773 1275.1397,-219.0952 1242.9597,-196.3572"/>
<polygon fill="#000000" stroke="#000000" points="1244.9293,-193.4633 1234.7425,-190.5511 1240.8898,-199.1802 1244.9293,-193.4633"/>
</g>
<!-- Operation_cons_dom -->
<g id="node14" class="node">
<title>Operation_cons_dom</title>
<g id="a_node14"><a xlink:href="Operation.html#cons_dom" xlink:title="cons_dom">
<ellipse fill="#f070d1" stroke="#000000" cx="1037" cy="-173.0683" rx="57.3905" ry="18"/>
<text text-anchor="middle" x="1037" y="-169.3683" font-family="Times,serif" font-size="14.00" fill="#000000">cons_dom</text>
</a>
</g>
</g>
<!-- Operation_expand_cons_dom&#45;&gt;Operation_cons_dom -->
<g id="edge10" class="edge">
<title>Operation_expand_cons_dom&#45;&gt;Operation_cons_dom</title>
<path fill="none" stroke="#000000" d="M1331.1461,-275.1543C1266.9234,-252.8653 1150.7248,-212.5375 1085.2418,-189.8111"/>
<polygon fill="#000000" stroke="#000000" points="1086.1668,-186.4273 1075.572,-186.4551 1083.8716,-193.0404 1086.1668,-186.4273"/>
</g>
<!-- Operation_tail_dom -->
<g id="node16" class="node">
<title>Operation_tail_dom</title>
<g id="a_node16"><a xlink:href="Operation.html#tail_dom" xlink:title="tail_dom">
<ellipse fill="#f070d1" stroke="#000000" cx="1377" cy="-173.0683" rx="50.8918" ry="18"/>
<text text-anchor="middle" x="1377" y="-169.3683" font-family="Times,serif" font-size="14.00" fill="#000000">tail_dom</text>
</a>
</g>
</g>
<!-- Operation_expand_cons_dom&#45;&gt;Operation_tail_dom -->
<g id="edge11" class="edge">
<title>Operation_expand_cons_dom&#45;&gt;Operation_tail_dom</title>
<path fill="none" stroke="#000000" d="M1377,-272.8894C1377,-253.7778 1377,-223.4574 1377,-201.2434"/>
<polygon fill="#000000" stroke="#000000" points="1380.5001,-201.0742 1377,-191.0742 1373.5001,-201.0743 1380.5001,-201.0742"/>
</g>
<!-- Operation_head_dom -->
<g id="node18" class="node">
<title>Operation_head_dom</title>
<g id="a_node18"><a xlink:href="Operation.html#head_dom" xlink:title="head_dom">
<ellipse fill="#f070d1" stroke="#000000" cx="1504" cy="-173.0683" rx="57.6901" ry="18"/>
<text text-anchor="middle" x="1504" y="-169.3683" font-family="Times,serif" font-size="14.00" fill="#000000">head_dom</text>
</a>
</g>
</g>
<!-- Operation_expand_cons_dom&#45;&gt;Operation_head_dom -->
<g id="edge12" class="edge">
<title>Operation_expand_cons_dom&#45;&gt;Operation_head_dom</title>
<path fill="none" stroke="#000000" d="M1396.0132,-273.4025C1417.742,-253.2135 1453.4372,-220.048 1477.7939,-197.4173"/>
<polygon fill="#000000" stroke="#000000" points="1480.3278,-199.8405 1485.2714,-190.4697 1475.5631,-194.7124 1480.3278,-199.8405"/>
</g>
<!-- Operation_cons_dom_ -->
<g id="node15" class="node">
<title>Operation_cons_dom_</title>
<g id="a_node15"><a xlink:href="Operation.html#cons_dom'" xlink:title="cons_dom&#39;">
<ellipse fill="#f070d1" stroke="#000000" cx="1078" cy="-55.0683" rx="59.5901" ry="18"/>
<text text-anchor="middle" x="1078" y="-51.3683" font-family="Times,serif" font-size="14.00" fill="#000000">cons_dom&#39;</text>
</a>
</g>
</g>
<!-- Operation_expand_cons_dom_&#45;&gt;Operation_cons_dom_ -->
<g id="edge13" class="edge">
<title>Operation_expand_cons_dom_&#45;&gt;Operation_cons_dom_</title>
<path fill="none" stroke="#000000" d="M1190.2383,-155.4025C1167.6539,-135.2135 1130.5535,-102.048 1105.2379,-79.4173"/>
<polygon fill="#000000" stroke="#000000" points="1107.254,-76.525 1097.466,-72.4697 1102.5887,-81.7438 1107.254,-76.525"/>
</g>
<!-- Operation_tail_dom_ -->
<g id="node17" class="node">
<title>Operation_tail_dom_</title>
<g id="a_node17"><a xlink:href="Operation.html#tail_dom'" xlink:title="tail_dom&#39;">
<ellipse fill="#f070d1" stroke="#000000" cx="1250" cy="-55.0683" rx="53.0913" ry="18"/>
<text text-anchor="middle" x="1250" y="-51.3683" font-family="Times,serif" font-size="14.00" fill="#000000">tail_dom&#39;</text>
</a>
</g>
</g>
<!-- Operation_expand_cons_dom_&#45;&gt;Operation_tail_dom_ -->
<g id="edge14" class="edge">
<title>Operation_expand_cons_dom_&#45;&gt;Operation_tail_dom_</title>
<path fill="none" stroke="#000000" d="M1216.1623,-154.8894C1222.6998,-135.604 1233.1062,-104.9052 1240.6538,-82.6396"/>
<polygon fill="#000000" stroke="#000000" points="1244.0006,-83.6686 1243.8963,-73.0742 1237.3711,-81.4212 1244.0006,-83.6686"/>
</g>
<!-- Operation_head_dom_ -->
<g id="node19" class="node">
<title>Operation_head_dom_</title>
<g id="a_node19"><a xlink:href="Operation.html#head_dom'" xlink:title="head_dom&#39;">
<ellipse fill="#f070d1" stroke="#000000" cx="1462" cy="-55.0683" rx="60.3893" ry="18"/>
<text text-anchor="middle" x="1462" y="-51.3683" font-family="Times,serif" font-size="14.00" fill="#000000">head_dom&#39;</text>
</a>
</g>
</g>
<!-- Operation_expand_cons_dom_&#45;&gt;Operation_head_dom_ -->
<g id="edge15" class="edge">
<title>Operation_expand_cons_dom_&#45;&gt;Operation_head_dom_</title>
<path fill="none" stroke="#000000" d="M1245.8378,-156.2871C1291.8262,-134.7529 1371.4658,-97.4613 1420.1751,-74.653"/>
<polygon fill="#000000" stroke="#000000" points="1421.9133,-77.7039 1429.4854,-70.2934 1418.9448,-71.3644 1421.9133,-77.7039"/>
</g>
<!-- Operation_computation_example_operation_curry -->
<g id="node7" class="node">
<title>Operation_computation_example_operation_curry</title>
<g id="a_node7"><a xlink:href="Operation.html#computation_example_operation_curry" xlink:title="computation_example_operation_curry">
<ellipse fill="#f070d1" stroke="#000000" cx="658" cy="-421.0683" rx="192.2706" ry="18"/>
<ellipse fill="none" stroke="#000000" cx="658" cy="-421.0683" rx="196.2683" ry="22"/>
<ellipse fill="none" stroke="#000000" cx="658" cy="-421.0683" rx="200.2659" ry="26"/>
<text text-anchor="middle" x="658" y="-417.3683" font-family="Times,serif" font-size="14.00" fill="#000000">computation_example_operation_curry</text>
</a>
</g>
</g>
<!-- Operation_computation_example_operation_curry&#45;&gt;Operation_operation_curry -->
<g id="edge16" class="edge">
<title>Operation_computation_example_operation_curry&#45;&gt;Operation_operation_curry</title>
<path fill="none" stroke="#000000" d="M729.287,-396.6163C802.8626,-371.3793 916.0233,-332.5643 982.6674,-309.7048"/>
<polygon fill="#000000" stroke="#000000" points="983.829,-313.0066 992.1524,-306.4514 981.5578,-306.3853 983.829,-313.0066"/>
</g>
<!-- Operation_nil_dom -->
<g id="node13" class="node">
<title>Operation_nil_dom</title>
<g id="a_node13"><a xlink:href="Operation.html#nil_dom" xlink:title="nil_dom">
<ellipse fill="#f070d1" stroke="#000000" cx="658" cy="-291.0683" rx="47.3916" ry="18"/>
<text text-anchor="middle" x="658" y="-287.3683" font-family="Times,serif" font-size="14.00" fill="#000000">nil_dom</text>
</a>
</g>
</g>
<!-- Operation_computation_example_operation_curry&#45;&gt;Operation_nil_dom -->
<g id="edge17" class="edge">
<title>Operation_computation_example_operation_curry&#45;&gt;Operation_nil_dom</title>
<path fill="none" stroke="#000000" d="M658,-394.7609C658,-372.9553 658,-342.0157 658,-319.6138"/>
<polygon fill="#000000" stroke="#000000" points="661.5001,-319.3797 658,-309.3798 654.5001,-319.3798 661.5001,-319.3797"/>
</g>
<!-- Operation_CurriedOperation -->
<g id="node11" class="node">
<title>Operation_CurriedOperation</title>
<g id="a_node11"><a xlink:href="Operation.html#CurriedOperation" xlink:title="CurriedOperation">
<ellipse fill="#f070d1" stroke="#000000" cx="680" cy="-173.0683" rx="93.6835" ry="18"/>
<text text-anchor="middle" x="680" y="-169.3683" font-family="Times,serif" font-size="14.00" fill="#000000">CurriedOperation</text>
</a>
</g>
</g>
<!-- Operation_operation_curry&#45;&gt;Operation_CurriedOperation -->
<g id="edge18" class="edge">
<title>Operation_operation_curry&#45;&gt;Operation_CurriedOperation</title>
<path fill="none" stroke="#000000" d="M991.0593,-275.8835C926.0397,-254.3924 807.2621,-215.1326 736.795,-191.8409"/>
<polygon fill="#000000" stroke="#000000" points="737.7763,-188.4791 727.183,-188.6638 735.5794,-195.1254 737.7763,-188.4791"/>
</g>
<!-- Operation_FiniteOperation -->
<g id="node12" class="node">
<title>Operation_FiniteOperation</title>
<g id="a_node12"><a xlink:href="Operation.html#FiniteOperation" xlink:title="FiniteOperation">
<ellipse fill="#f070d1" stroke="#000000" cx="877" cy="-173.0683" rx="85.2851" ry="18"/>
<text text-anchor="middle" x="877" y="-169.3683" font-family="Times,serif" font-size="14.00" fill="#000000">FiniteOperation</text>
</a>
</g>
</g>
<!-- Operation_operation_curry&#45;&gt;Operation_FiniteOperation -->
<g id="edge19" class="edge">
<title>Operation_operation_curry&#45;&gt;Operation_FiniteOperation</title>
<path fill="none" stroke="#000000" d="M1013.3914,-273.657C985.7405,-253.2644 939.8023,-219.385 908.9726,-196.6481"/>
<polygon fill="#000000" stroke="#000000" points="910.8309,-193.6697 900.7054,-190.5511 906.676,-199.3033 910.8309,-193.6697"/>
</g>
<!-- Operation_operation_curry&#45;&gt;Operation_cons_dom -->
<g id="edge20" class="edge">
<title>Operation_operation_curry&#45;&gt;Operation_cons_dom</title>
<path fill="none" stroke="#000000" d="M1037,-272.8894C1037,-253.7778 1037,-223.4574 1037,-201.2434"/>
<polygon fill="#000000" stroke="#000000" points="1040.5001,-201.0742 1037,-191.0742 1033.5001,-201.0743 1040.5001,-201.0742"/>
</g>
<!-- Operation_computation_example_operation_uncurry -->
<g id="node9" class="node">
<title>Operation_computation_example_operation_uncurry</title>
<g id="a_node9"><a xlink:href="Operation.html#computation_example_operation_uncurry" xlink:title="computation_example_operation_uncurry">
<ellipse fill="#f070d1" stroke="#000000" cx="228" cy="-421.0683" rx="204.1607" ry="18"/>
<ellipse fill="none" stroke="#000000" cx="228" cy="-421.0683" rx="208.1623" ry="22"/>
<ellipse fill="none" stroke="#000000" cx="228" cy="-421.0683" rx="212.1638" ry="26"/>
<text text-anchor="middle" x="228" y="-417.3683" font-family="Times,serif" font-size="14.00" fill="#000000">computation_example_operation_uncurry</text>
</a>
</g>
</g>
<!-- Operation_computation_example_operation_uncurry&#45;&gt;Operation_operation_uncurry -->
<g id="edge21" class="edge">
<title>Operation_computation_example_operation_uncurry&#45;&gt;Operation_operation_uncurry</title>
<path fill="none" stroke="#000000" d="M333.7319,-398.4983C456.48,-372.2959 655.7605,-329.7566 763.0263,-306.8591"/>
<polygon fill="#000000" stroke="#000000" points="764.065,-310.2163 773.114,-304.7057 762.6036,-303.3705 764.065,-310.2163"/>
</g>
<!-- Operation_operation_uncurry&#45;&gt;Operation_CurriedOperation -->
<g id="edge22" class="edge">
<title>Operation_operation_uncurry&#45;&gt;Operation_CurriedOperation</title>
<path fill="none" stroke="#000000" d="M813.4955,-273.4025C786.3632,-253.0101 741.6158,-219.3783 711.4907,-196.7365"/>
<polygon fill="#000000" stroke="#000000" points="713.5052,-193.8722 703.4084,-190.6619 709.2994,-199.468 713.5052,-193.8722"/>
</g>
<!-- Operation_operation_uncurry&#45;&gt;Operation_FiniteOperation -->
<g id="edge23" class="edge">
<title>Operation_operation_uncurry&#45;&gt;Operation_FiniteOperation</title>
<path fill="none" stroke="#000000" d="M843.1623,-272.8894C849.6998,-253.604 860.1062,-222.9052 867.6538,-200.6396"/>
<polygon fill="#000000" stroke="#000000" points="871.0006,-201.6686 870.8963,-191.0742 864.3711,-199.4212 871.0006,-201.6686"/>
</g>
<!-- Operation_cons_dom&#45;&gt;Operation_cons_dom_ -->
<g id="edge24" class="edge">
<title>Operation_cons_dom&#45;&gt;Operation_cons_dom_</title>
<path fill="none" stroke="#000000" d="M1043.227,-155.1467C1049.9097,-135.9136 1060.6096,-105.1188 1068.3769,-82.764"/>
<polygon fill="#000000" stroke="#000000" points="1071.7383,-83.7535 1071.7144,-73.1586 1065.1261,-81.4559 1071.7383,-83.7535"/>
</g>
<!-- Operation_tail_dom&#45;&gt;Operation_tail_dom_ -->
<g id="edge25" class="edge">
<title>Operation_tail_dom&#45;&gt;Operation_tail_dom_</title>
<path fill="none" stroke="#000000" d="M1358.804,-156.1618C1337.1428,-136.0356 1300.8059,-102.2738 1276.1401,-79.356"/>
<polygon fill="#000000" stroke="#000000" points="1278.2835,-76.5699 1268.5752,-72.3272 1273.5188,-81.698 1278.2835,-76.5699"/>
</g>
<!-- Operation_head_dom&#45;&gt;Operation_head_dom_ -->
<g id="edge26" class="edge">
<title>Operation_head_dom&#45;&gt;Operation_head_dom_</title>
<path fill="none" stroke="#000000" d="M1497.6211,-155.1467C1490.7754,-135.9136 1479.8146,-105.1188 1471.8578,-82.764"/>
<polygon fill="#000000" stroke="#000000" points="1475.0896,-81.406 1468.4389,-73.1586 1468.4949,-83.7533 1475.0896,-81.406"/>
</g>
</g>
</svg>
