<?xml version="1.0" encoding="UTF-8" standalone="no"?>
<!DOCTYPE svg PUBLIC "-//W3C//DTD SVG 1.1//EN"
 "http://www.w3.org/Graphics/SVG/1.1/DTD/svg11.dtd">
<!-- Generated by graphviz version 2.40.1 (20161225.0304)
 -->
<!-- Title: HoTT_Classes_orders_fields Pages: 1 -->
<svg width="592pt" height="300pt"
 viewBox="0.00 0.00 592.00 300.00" xmlns="http://www.w3.org/2000/svg" xmlns:xlink="http://www.w3.org/1999/xlink">
<g id="graph0" class="graph" transform="scale(1 1) rotate(0) translate(4 296)">
<title>HoTT_Classes_orders_fields</title>
<polygon fill="#ffffff" stroke="transparent" points="-4,4 -4,-296 588,-296 588,4 -4,4"/>
<g id="clust1" class="cluster">
<title>cluster_fields</title>
<polygon fill="#ffffc3" stroke="#000000" points="8,-9.3068 8,-282.6932 576,-282.6932 576,-9.3068 8,-9.3068"/>
<text text-anchor="middle" x="36" y="-267.4932" font-family="Times,serif" font-size="14.00" fill="#000000">fields</text>
</g>
<!-- fields_field_split2 -->
<g id="node1" class="node">
<title>fields_field_split2</title>
<g id="a_node1"><a xlink:href="fields.html#field_split2" xlink:title="field_split2">
<ellipse fill="#f070d1" stroke="#000000" cx="498" cy="-216.3068" rx="62.3011" ry="18"/>
<ellipse fill="none" stroke="#000000" cx="498" cy="-216.3068" rx="66.2951" ry="22"/>
<ellipse fill="none" stroke="#000000" cx="498" cy="-216.3068" rx="70.2891" ry="26"/>
<text text-anchor="middle" x="498" y="-212.6068" font-family="Times,serif" font-size="14.00" fill="#000000">field_split2</text>
</a>
</g>
</g>
<!-- fields_flip_lt_recip_r -->
<g id="node2" class="node">
<title>fields_flip_lt_recip_r</title>
<g id="a_node2"><a xlink:href="fields.html#flip_lt_recip_r" xlink:title="flip_lt_recip_r">
<ellipse fill="#f070d1" stroke="#000000" cx="326" cy="-216.3068" rx="75.297" ry="18"/>
<ellipse fill="none" stroke="#000000" cx="326" cy="-216.3068" rx="79.2919" ry="22"/>
<ellipse fill="none" stroke="#000000" cx="326" cy="-216.3068" rx="83.2868" ry="26"/>
<text text-anchor="middle" x="326" y="-212.6068" font-family="Times,serif" font-size="14.00" fill="#000000">flip_lt_recip_r</text>
</a>
</g>
</g>
<!-- fields_flip_lt_recip_l -->
<g id="node3" class="node">
<title>fields_flip_lt_recip_l</title>
<g id="a_node3"><a xlink:href="fields.html#flip_lt_recip_l" xlink:title="flip_lt_recip_l">
<ellipse fill="#f070d1" stroke="#000000" cx="326" cy="-123.3068" rx="74.187" ry="18"/>
<text text-anchor="middle" x="326" y="-119.6068" font-family="Times,serif" font-size="14.00" fill="#000000">flip_lt_recip_l</text>
</a>
</g>
</g>
<!-- fields_flip_lt_recip_r&#45;&gt;fields_flip_lt_recip_l -->
<g id="edge1" class="edge">
<title>fields_flip_lt_recip_r&#45;&gt;fields_flip_lt_recip_l</title>
<path fill="none" stroke="#000000" d="M326,-189.9055C326,-177.9436 326,-163.7844 326,-151.6039"/>
<polygon fill="#000000" stroke="#000000" points="329.5001,-151.5142 326,-141.5142 322.5001,-151.5143 329.5001,-151.5142"/>
</g>
<!-- fields_flip_lt_recip -->
<g id="node4" class="node">
<title>fields_flip_lt_recip</title>
<g id="a_node4"><a xlink:href="fields.html#flip_lt_recip" xlink:title="flip_lt_recip">
<ellipse fill="#f070d1" stroke="#000000" cx="220" cy="-39.3068" rx="66.0889" ry="18"/>
<text text-anchor="middle" x="220" y="-35.6068" font-family="Times,serif" font-size="14.00" fill="#000000">flip_lt_recip</text>
</a>
</g>
</g>
<!-- fields_flip_lt_recip_l&#45;&gt;fields_flip_lt_recip -->
<g id="edge2" class="edge">
<title>fields_flip_lt_recip_l&#45;&gt;fields_flip_lt_recip</title>
<path fill="none" stroke="#000000" d="M304.0367,-105.9019C288.2986,-93.4302 266.9229,-76.4909 249.6688,-62.8179"/>
<polygon fill="#000000" stroke="#000000" points="251.5837,-59.8697 241.5725,-56.4019 247.2361,-65.3559 251.5837,-59.8697"/>
</g>
<!-- fields_pos_recip_compat -->
<g id="node6" class="node">
<title>fields_pos_recip_compat</title>
<g id="a_node6"><a xlink:href="fields.html#pos_recip_compat" xlink:title="pos_recip_compat">
<ellipse fill="#f070d1" stroke="#000000" cx="399" cy="-39.3068" rx="94.7833" ry="18"/>
<text text-anchor="middle" x="399" y="-35.6068" font-family="Times,serif" font-size="14.00" fill="#000000">pos_recip_compat</text>
</a>
</g>
</g>
<!-- fields_flip_lt_recip_l&#45;&gt;fields_pos_recip_compat -->
<g id="edge3" class="edge">
<title>fields_flip_lt_recip_l&#45;&gt;fields_pos_recip_compat</title>
<path fill="none" stroke="#000000" d="M341.4814,-105.4925C351.7405,-93.6875 365.3602,-78.0156 376.7712,-64.8851"/>
<polygon fill="#000000" stroke="#000000" points="379.6231,-66.9392 383.5409,-57.0953 374.3395,-62.3475 379.6231,-66.9392"/>
</g>
<!-- fields_neg_recip_compat -->
<g id="node5" class="node">
<title>fields_neg_recip_compat</title>
<g id="a_node5"><a xlink:href="fields.html#neg_recip_compat" xlink:title="neg_recip_compat">
<ellipse fill="#f070d1" stroke="#000000" cx="120" cy="-216.3068" rx="96.3686" ry="18"/>
<ellipse fill="none" stroke="#000000" cx="120" cy="-216.3068" rx="100.3759" ry="22"/>
<ellipse fill="none" stroke="#000000" cx="120" cy="-216.3068" rx="104.3833" ry="26"/>
<text text-anchor="middle" x="120" y="-212.6068" font-family="Times,serif" font-size="14.00" fill="#000000">neg_recip_compat</text>
</a>
</g>
</g>
</g>
</svg>
