<?xml version="1.0" encoding="UTF-8" standalone="no"?>
<!DOCTYPE svg PUBLIC "-//W3C//DTD SVG 1.1//EN"
 "http://www.w3.org/Graphics/SVG/1.1/DTD/svg11.dtd">
<!-- Generated by graphviz version 2.40.1 (20161225.0304)
 -->
<!-- Title: HoTT_Homotopy_Pi1S1 Pages: 1 -->
<svg width="366pt" height="187pt"
 viewBox="0.00 0.00 366.00 187.00" xmlns="http://www.w3.org/2000/svg" xmlns:xlink="http://www.w3.org/1999/xlink">
<g id="graph0" class="graph" transform="scale(1 1) rotate(0) translate(4 183)">
<title>HoTT_Homotopy_Pi1S1</title>
<polygon fill="#ffffff" stroke="transparent" points="-4,4 -4,-183 362,-183 362,4 -4,4"/>
<g id="clust1" class="cluster">
<title>cluster_Pi1S1</title>
<polygon fill="#ffffc3" stroke="#000000" points="20.4571,-8 20.4571,-171 337.5429,-171 337.5429,-8 20.4571,-8"/>
<text text-anchor="middle" x="49.9571" y="-155.8" font-family="Times,serif" font-size="14.00" fill="#000000">Pi1S1</text>
</g>
<!-- Pi1S1_Pi1S1 -->
<g id="node1" class="node">
<title>Pi1S1_Pi1S1</title>
<g id="a_node1"><a xlink:href="Pi1S1.html#Pi1S1" xlink:title="Pi1S1">
<ellipse fill="#f070d1" stroke="#000000" cx="178.9857" cy="-114" rx="38.2201" ry="18"/>
<ellipse fill="none" stroke="#000000" cx="178.9857" cy="-114" rx="42.2069" ry="22"/>
<ellipse fill="none" stroke="#000000" cx="178.9857" cy="-114" rx="46.1937" ry="26"/>
<text text-anchor="middle" x="178.9857" y="-110.3" font-family="Times,serif" font-size="14.00" fill="#000000">Pi1S1</text>
</a>
</g>
</g>
<!-- Pi1S1_Pi1Circle -->
<g id="node2" class="node">
<title>Pi1S1_Pi1Circle</title>
<g id="a_node2"><a xlink:href="Pi1S1.html#Pi1Circle" xlink:title="Pi1Circle">
<ellipse fill="#f070d1" stroke="#000000" cx="178.9857" cy="-34" rx="53.8905" ry="18"/>
<text text-anchor="middle" x="178.9857" y="-30.3" font-family="Times,serif" font-size="14.00" fill="#000000">Pi1Circle</text>
</a>
</g>
</g>
<!-- Pi1S1_Pi1S1&#45;&gt;Pi1S1_Pi1Circle -->
<g id="edge1" class="edge">
<title>Pi1S1_Pi1S1&#45;&gt;Pi1S1_Pi1Circle</title>
<path fill="none" stroke="#000000" d="M178.9857,-87.805C178.9857,-79.6026 178.9857,-70.5174 178.9857,-62.1839"/>
<polygon fill="#000000" stroke="#000000" points="182.4858,-62.1532 178.9857,-52.1532 175.4858,-62.1533 182.4858,-62.1532"/>
</g>
</g>
</svg>
