<?xml version="1.0" encoding="UTF-8" standalone="no"?>
<!DOCTYPE svg PUBLIC "-//W3C//DTD SVG 1.1//EN"
 "http://www.w3.org/Graphics/SVG/1.1/DTD/svg11.dtd">
<!-- Generated by graphviz version 2.40.1 (20161225.0304)
 -->
<!-- Title: HoTT_Classes_interfaces_round Pages: 1 -->
<svg width="366pt" height="187pt"
 viewBox="0.00 0.00 366.00 187.00" xmlns="http://www.w3.org/2000/svg" xmlns:xlink="http://www.w3.org/1999/xlink">
<g id="graph0" class="graph" transform="scale(1 1) rotate(0) translate(4 183)">
<title>HoTT_Classes_interfaces_round</title>
<polygon fill="#ffffff" stroke="transparent" points="-4,4 -4,-183 362,-183 362,4 -4,4"/>
<g id="clust1" class="cluster">
<title>cluster_round</title>
<polygon fill="#ffffc3" stroke="#000000" points="13.1376,-8 13.1376,-171 344.8624,-171 344.8624,-8 13.1376,-8"/>
<text text-anchor="middle" x="42.6376" y="-155.8" font-family="Times,serif" font-size="14.00" fill="#000000">round</text>
</g>
<!-- round_round_up_strict -->
<g id="node1" class="node">
<title>round_round_up_strict</title>
<g id="a_node1"><a xlink:href="round.html#round_up_strict" xlink:title="round_up_strict">
<ellipse fill="#f070d1" stroke="#000000" cx="178.6514" cy="-114" rx="85.2729" ry="18"/>
<ellipse fill="none" stroke="#000000" cx="178.6514" cy="-114" rx="89.279" ry="22"/>
<ellipse fill="none" stroke="#000000" cx="178.6514" cy="-114" rx="93.2851" ry="26"/>
<text text-anchor="middle" x="178.6514" y="-110.3" font-family="Times,serif" font-size="14.00" fill="#000000">round_up_strict</text>
</a>
</g>
</g>
<!-- round_RoundUpStrict -->
<g id="node2" class="node">
<title>round_RoundUpStrict</title>
<g id="a_node2"><a xlink:href="round.html#RoundUpStrict" xlink:title="RoundUpStrict">
<ellipse fill="#f070d1" stroke="#000000" cx="178.6514" cy="-34" rx="81.4863" ry="18"/>
<text text-anchor="middle" x="178.6514" y="-30.3" font-family="Times,serif" font-size="14.00" fill="#000000">RoundUpStrict</text>
</a>
</g>
</g>
<!-- round_round_up_strict&#45;&gt;round_RoundUpStrict -->
<g id="edge1" class="edge">
<title>round_round_up_strict&#45;&gt;round_RoundUpStrict</title>
<path fill="none" stroke="#000000" d="M178.6514,-87.805C178.6514,-79.6026 178.6514,-70.5174 178.6514,-62.1839"/>
<polygon fill="#000000" stroke="#000000" points="182.1515,-62.1532 178.6514,-52.1532 175.1515,-62.1533 182.1515,-62.1532"/>
</g>
</g>
</svg>
