<?xml version="1.0" encoding="UTF-8" standalone="no"?>
<!DOCTYPE svg PUBLIC "-//W3C//DTD SVG 1.1//EN"
 "http://www.w3.org/Graphics/SVG/1.1/DTD/svg11.dtd">
<!-- Generated by graphviz version 2.40.1 (20161225.0304)
 -->
<!-- Title: HoTT_Spaces_Pos_Spec Pages: 1 -->
<svg width="1760pt" height="884pt"
 viewBox="0.00 0.00 1760.00 884.00" xmlns="http://www.w3.org/2000/svg" xmlns:xlink="http://www.w3.org/1999/xlink">
<g id="graph0" class="graph" transform="scale(1 1) rotate(0) translate(4 880)">
<title>HoTT_Spaces_Pos_Spec</title>
<polygon fill="#ffffff" stroke="transparent" points="-4,4 -4,-880 1756,-880 1756,4 -4,4"/>
<g id="clust1" class="cluster">
<title>cluster_Spec</title>
<polygon fill="#ffffc3" stroke="#000000" points="8,-10.0258 8,-865.9742 1744,-865.9742 1744,-10.0258 8,-10.0258"/>
<text text-anchor="middle" x="34" y="-850.7742" font-family="Times,serif" font-size="14.00" fill="#000000">Spec</text>
</g>
<!-- Spec_pos_mul_succ_r -->
<g id="node1" class="node">
<title>Spec_pos_mul_succ_r</title>
<g id="a_node1"><a xlink:href="Spec.html#pos_mul_succ_r" xlink:title="pos_mul_succ_r">
<ellipse fill="#f070d1" stroke="#000000" cx="1234" cy="-594.0258" rx="85.2729" ry="18"/>
<ellipse fill="none" stroke="#000000" cx="1234" cy="-594.0258" rx="89.279" ry="22"/>
<ellipse fill="none" stroke="#000000" cx="1234" cy="-594.0258" rx="93.2851" ry="26"/>
<text text-anchor="middle" x="1234" y="-590.3258" font-family="Times,serif" font-size="14.00" fill="#000000">pos_mul_succ_r</text>
</a>
</g>
</g>
<!-- Spec_pos_mul_add_distr_l -->
<g id="node5" class="node">
<title>Spec_pos_mul_add_distr_l</title>
<g id="a_node5"><a xlink:href="Spec.html#pos_mul_add_distr_l" xlink:title="pos_mul_add_distr_l">
<ellipse fill="#f070d1" stroke="#000000" cx="1042" cy="-494.0258" rx="105.8812" ry="18"/>
<text text-anchor="middle" x="1042" y="-490.3258" font-family="Times,serif" font-size="14.00" fill="#000000">pos_mul_add_distr_l</text>
</a>
</g>
</g>
<!-- Spec_pos_mul_succ_r&#45;&gt;Spec_pos_mul_add_distr_l -->
<g id="edge1" class="edge">
<title>Spec_pos_mul_succ_r&#45;&gt;Spec_pos_mul_add_distr_l</title>
<path fill="none" stroke="#000000" d="M1189.9513,-571.0837C1158.1093,-554.4993 1115.3551,-532.2315 1083.996,-515.8987"/>
<polygon fill="#000000" stroke="#000000" points="1085.55,-512.7618 1075.064,-511.2466 1082.3164,-518.9702 1085.55,-512.7618"/>
</g>
<!-- Spec_pos_mul_1_r -->
<g id="node13" class="node">
<title>Spec_pos_mul_1_r</title>
<g id="a_node13"><a xlink:href="Spec.html#pos_mul_1_r" xlink:title="pos_mul_1_r">
<ellipse fill="#f070d1" stroke="#000000" cx="1389" cy="-494.0258" rx="69.5877" ry="18"/>
<text text-anchor="middle" x="1389" y="-490.3258" font-family="Times,serif" font-size="14.00" fill="#000000">pos_mul_1_r</text>
</a>
</g>
</g>
<!-- Spec_pos_mul_succ_r&#45;&gt;Spec_pos_mul_1_r -->
<g id="edge2" class="edge">
<title>Spec_pos_mul_succ_r&#45;&gt;Spec_pos_mul_1_r</title>
<path fill="none" stroke="#000000" d="M1271.1264,-570.0733C1296.3323,-553.8114 1329.4433,-532.4494 1354.1529,-516.5078"/>
<polygon fill="#000000" stroke="#000000" points="1356.3405,-519.2616 1362.8461,-510.8993 1352.5456,-513.3795 1356.3405,-519.2616"/>
</g>
<!-- Spec_pos_add_1_l -->
<g id="node25" class="node">
<title>Spec_pos_add_1_l</title>
<g id="a_node25"><a xlink:href="Spec.html#pos_add_1_l" xlink:title="pos_add_1_l">
<ellipse fill="#f070d1" stroke="#000000" cx="1234" cy="-494.0258" rx="67.6881" ry="18"/>
<text text-anchor="middle" x="1234" y="-490.3258" font-family="Times,serif" font-size="14.00" fill="#000000">pos_add_1_l</text>
</a>
</g>
</g>
<!-- Spec_pos_mul_succ_r&#45;&gt;Spec_pos_add_1_l -->
<g id="edge3" class="edge">
<title>Spec_pos_mul_succ_r&#45;&gt;Spec_pos_add_1_l</title>
<path fill="none" stroke="#000000" d="M1234,-568.013C1234,-553.9939 1234,-536.6777 1234,-522.3229"/>
<polygon fill="#000000" stroke="#000000" points="1237.5001,-522.0264 1234,-512.0265 1230.5001,-522.0265 1237.5001,-522.0264"/>
</g>
<!-- Spec_pos_mul_succ_l -->
<g id="node2" class="node">
<title>Spec_pos_mul_succ_l</title>
<g id="a_node2"><a xlink:href="Spec.html#pos_mul_succ_l" xlink:title="pos_mul_succ_l">
<ellipse fill="#f070d1" stroke="#000000" cx="1645" cy="-795.0258" rx="83.3687" ry="18"/>
<ellipse fill="none" stroke="#000000" cx="1645" cy="-795.0258" rx="87.3772" ry="22"/>
<ellipse fill="none" stroke="#000000" cx="1645" cy="-795.0258" rx="91.3856" ry="26"/>
<text text-anchor="middle" x="1645" y="-791.3258" font-family="Times,serif" font-size="14.00" fill="#000000">pos_mul_succ_l</text>
</a>
</g>
</g>
<!-- Spec_pos_mul_add_distr_r -->
<g id="node4" class="node">
<title>Spec_pos_mul_add_distr_r</title>
<g id="a_node4"><a xlink:href="Spec.html#pos_mul_add_distr_r" xlink:title="pos_mul_add_distr_r">
<ellipse fill="#f070d1" stroke="#000000" cx="1450" cy="-694.0258" rx="107.4815" ry="18"/>
<text text-anchor="middle" x="1450" y="-690.3258" font-family="Times,serif" font-size="14.00" fill="#000000">pos_mul_add_distr_r</text>
</a>
</g>
</g>
<!-- Spec_pos_mul_succ_l&#45;&gt;Spec_pos_mul_add_distr_r -->
<g id="edge4" class="edge">
<title>Spec_pos_mul_succ_l&#45;&gt;Spec_pos_mul_add_distr_r</title>
<path fill="none" stroke="#000000" d="M1600.7515,-772.1073C1568.2284,-755.262 1524.302,-732.5104 1492.2576,-715.913"/>
<polygon fill="#000000" stroke="#000000" points="1493.6271,-712.6808 1483.1378,-711.1894 1490.4076,-718.8965 1493.6271,-712.6808"/>
</g>
<!-- Spec_pos_mul_1_l -->
<g id="node14" class="node">
<title>Spec_pos_mul_1_l</title>
<g id="a_node14"><a xlink:href="Spec.html#pos_mul_1_l" xlink:title="pos_mul_1_l">
<ellipse fill="#f070d1" stroke="#000000" cx="1645" cy="-694.0258" rx="67.6881" ry="18"/>
<text text-anchor="middle" x="1645" y="-690.3258" font-family="Times,serif" font-size="14.00" fill="#000000">pos_mul_1_l</text>
</a>
</g>
</g>
<!-- Spec_pos_mul_succ_l&#45;&gt;Spec_pos_mul_1_l -->
<g id="edge5" class="edge">
<title>Spec_pos_mul_succ_l&#45;&gt;Spec_pos_mul_1_l</title>
<path fill="none" stroke="#000000" d="M1645,-769.0157C1645,-754.7178 1645,-736.964 1645,-722.3206"/>
<polygon fill="#000000" stroke="#000000" points="1648.5001,-722.3014 1645,-712.3015 1641.5001,-722.3015 1648.5001,-722.3014"/>
</g>
<!-- Spec_pos_mul_assoc -->
<g id="node3" class="node">
<title>Spec_pos_mul_assoc</title>
<g id="a_node3"><a xlink:href="Spec.html#pos_mul_assoc" xlink:title="pos_mul_assoc">
<ellipse fill="#f070d1" stroke="#000000" cx="1448" cy="-795.0258" rx="79.891" ry="18"/>
<ellipse fill="none" stroke="#000000" cx="1448" cy="-795.0258" rx="83.8884" ry="22"/>
<ellipse fill="none" stroke="#000000" cx="1448" cy="-795.0258" rx="87.8859" ry="26"/>
<text text-anchor="middle" x="1448" y="-791.3258" font-family="Times,serif" font-size="14.00" fill="#000000">pos_mul_assoc</text>
</a>
</g>
</g>
<!-- Spec_pos_mul_assoc&#45;&gt;Spec_pos_mul_add_distr_r -->
<g id="edge6" class="edge">
<title>Spec_pos_mul_assoc&#45;&gt;Spec_pos_mul_add_distr_r</title>
<path fill="none" stroke="#000000" d="M1448.515,-769.0157C1448.7982,-754.7178 1449.1497,-736.964 1449.4397,-722.3206"/>
<polygon fill="#000000" stroke="#000000" points="1452.9393,-722.3688 1449.6381,-712.3015 1445.9407,-722.2302 1452.9393,-722.3688"/>
</g>
<!-- Spec_pos_mul_add_distr_r&#45;&gt;Spec_pos_mul_add_distr_l -->
<g id="edge7" class="edge">
<title>Spec_pos_mul_add_distr_r&#45;&gt;Spec_pos_mul_add_distr_l</title>
<path fill="none" stroke="#000000" d="M1369.7918,-681.9931C1288.8188,-668.689 1170.3975,-645.7123 1132,-620.0258 1095.2638,-595.4506 1068.5919,-550.47 1054.2097,-521.431"/>
<polygon fill="#000000" stroke="#000000" points="1057.2857,-519.7509 1049.8066,-512.2467 1050.9736,-522.7771 1057.2857,-519.7509"/>
</g>
<!-- Spec_pos_mul_comm -->
<g id="node6" class="node">
<title>Spec_pos_mul_comm</title>
<g id="a_node6"><a xlink:href="Spec.html#pos_mul_comm" xlink:title="pos_mul_comm">
<ellipse fill="#f070d1" stroke="#000000" cx="1505" cy="-594.0258" rx="82.5854" ry="18"/>
<text text-anchor="middle" x="1505" y="-590.3258" font-family="Times,serif" font-size="14.00" fill="#000000">pos_mul_comm</text>
</a>
</g>
</g>
<!-- Spec_pos_mul_add_distr_r&#45;&gt;Spec_pos_mul_comm -->
<g id="edge8" class="edge">
<title>Spec_pos_mul_add_distr_r&#45;&gt;Spec_pos_mul_comm</title>
<path fill="none" stroke="#000000" d="M1460.0878,-675.6842C1468.5134,-660.3651 1480.6433,-638.3106 1490.1739,-620.9823"/>
<polygon fill="#000000" stroke="#000000" points="1493.4087,-622.3635 1495.1612,-611.9146 1487.2752,-618.99 1493.4087,-622.3635"/>
</g>
<!-- Spec_pos_add_assoc -->
<g id="node15" class="node">
<title>Spec_pos_add_assoc</title>
<g id="a_node15"><a xlink:href="Spec.html#pos_add_assoc" xlink:title="pos_add_assoc">
<ellipse fill="#f070d1" stroke="#000000" cx="1231" cy="-404.0258" rx="79.0865" ry="18"/>
<text text-anchor="middle" x="1231" y="-400.3258" font-family="Times,serif" font-size="14.00" fill="#000000">pos_add_assoc</text>
</a>
</g>
</g>
<!-- Spec_pos_mul_add_distr_l&#45;&gt;Spec_pos_add_assoc -->
<g id="edge9" class="edge">
<title>Spec_pos_mul_add_distr_l&#45;&gt;Spec_pos_add_assoc</title>
<path fill="none" stroke="#000000" d="M1077.9943,-476.8856C1109.0905,-462.0779 1154.1211,-440.6348 1187.2829,-424.8434"/>
<polygon fill="#000000" stroke="#000000" points="1189.2078,-427.8034 1196.7316,-420.344 1186.1982,-421.4834 1189.2078,-427.8034"/>
</g>
<!-- Spec_mul_xI_r -->
<g id="node7" class="node">
<title>Spec_mul_xI_r</title>
<g id="a_node7"><a xlink:href="Spec.html#mul_xI_r" xlink:title="mul_xI_r">
<ellipse fill="#f070d1" stroke="#000000" cx="1658" cy="-494.0258" rx="51.9908" ry="18"/>
<text text-anchor="middle" x="1658" y="-490.3258" font-family="Times,serif" font-size="14.00" fill="#000000">mul_xI_r</text>
</a>
</g>
</g>
<!-- Spec_pos_mul_comm&#45;&gt;Spec_mul_xI_r -->
<g id="edge10" class="edge">
<title>Spec_pos_mul_comm&#45;&gt;Spec_mul_xI_r</title>
<path fill="none" stroke="#000000" d="M1531.3016,-576.8351C1557.2058,-559.9043 1596.8587,-533.9874 1624.8938,-515.6638"/>
<polygon fill="#000000" stroke="#000000" points="1627.0999,-518.4032 1633.5557,-510.0024 1623.2702,-512.5437 1627.0999,-518.4032"/>
</g>
<!-- Spec_mul_xO_r -->
<g id="node8" class="node">
<title>Spec_mul_xO_r</title>
<g id="a_node8"><a xlink:href="Spec.html#mul_xO_r" xlink:title="mul_xO_r">
<ellipse fill="#f070d1" stroke="#000000" cx="1532" cy="-494.0258" rx="55.7903" ry="18"/>
<text text-anchor="middle" x="1532" y="-490.3258" font-family="Times,serif" font-size="14.00" fill="#000000">mul_xO_r</text>
</a>
</g>
</g>
<!-- Spec_pos_mul_comm&#45;&gt;Spec_mul_xO_r -->
<g id="edge11" class="edge">
<title>Spec_pos_mul_comm&#45;&gt;Spec_mul_xO_r</title>
<path fill="none" stroke="#000000" d="M1509.9522,-575.6842C1513.9866,-560.7422 1519.7511,-539.3922 1524.374,-522.2703"/>
<polygon fill="#000000" stroke="#000000" points="1527.8515,-522.8177 1527.0792,-512.251 1521.0934,-520.993 1527.8515,-522.8177"/>
</g>
<!-- Spec_pos_mul_comm&#45;&gt;Spec_pos_mul_1_r -->
<g id="edge12" class="edge">
<title>Spec_pos_mul_comm&#45;&gt;Spec_pos_mul_1_r</title>
<path fill="none" stroke="#000000" d="M1484.5286,-576.3779C1465.727,-560.1697 1437.7049,-536.0127 1416.8671,-518.0491"/>
<polygon fill="#000000" stroke="#000000" points="1419.1262,-515.3756 1409.2668,-511.4971 1414.5556,-520.6775 1419.1262,-515.3756"/>
</g>
<!-- Spec_mul_xI_r&#45;&gt;Spec_pos_add_assoc -->
<g id="edge13" class="edge">
<title>Spec_mul_xI_r&#45;&gt;Spec_pos_add_assoc</title>
<path fill="none" stroke="#000000" d="M1619.0964,-481.9616C1611.7872,-479.8615 1604.1849,-477.7885 1597,-476.0258 1496.6849,-451.4142 1379.2971,-429.5218 1305.0507,-416.5139"/>
<polygon fill="#000000" stroke="#000000" points="1305.3195,-413.008 1294.8668,-414.738 1304.1169,-419.9039 1305.3195,-413.008"/>
</g>
<!-- Spec_pos_iter_succ_r -->
<g id="node9" class="node">
<title>Spec_pos_iter_succ_r</title>
<g id="a_node9"><a xlink:href="Spec.html#pos_iter_succ_r" xlink:title="pos_iter_succ_r">
<ellipse fill="#f070d1" stroke="#000000" cx="1250" cy="-795.0258" rx="83.6991" ry="18"/>
<ellipse fill="none" stroke="#000000" cx="1250" cy="-795.0258" rx="87.6922" ry="22"/>
<ellipse fill="none" stroke="#000000" cx="1250" cy="-795.0258" rx="91.6854" ry="26"/>
<text text-anchor="middle" x="1250" y="-791.3258" font-family="Times,serif" font-size="14.00" fill="#000000">pos_iter_succ_r</text>
</a>
</g>
</g>
<!-- Spec_pos_iter_succ_l -->
<g id="node10" class="node">
<title>Spec_pos_iter_succ_l</title>
<g id="a_node10"><a xlink:href="Spec.html#pos_iter_succ_l" xlink:title="pos_iter_succ_l">
<ellipse fill="#f070d1" stroke="#000000" cx="1050" cy="-795.0258" rx="82.5816" ry="18"/>
<ellipse fill="none" stroke="#000000" cx="1050" cy="-795.0258" rx="86.5835" ry="22"/>
<ellipse fill="none" stroke="#000000" cx="1050" cy="-795.0258" rx="90.5854" ry="26"/>
<text text-anchor="middle" x="1050" y="-791.3258" font-family="Times,serif" font-size="14.00" fill="#000000">pos_iter_succ_l</text>
</a>
</g>
</g>
<!-- Spec_pos_succ_pred_double -->
<g id="node11" class="node">
<title>Spec_pos_succ_pred_double</title>
<g id="a_node11"><a xlink:href="Spec.html#pos_succ_pred_double" xlink:title="pos_succ_pred_double">
<ellipse fill="#f070d1" stroke="#000000" cx="818" cy="-795.0258" rx="115.8675" ry="18"/>
<ellipse fill="none" stroke="#000000" cx="818" cy="-795.0258" rx="119.8736" ry="22"/>
<ellipse fill="none" stroke="#000000" cx="818" cy="-795.0258" rx="123.8798" ry="26"/>
<text text-anchor="middle" x="818" y="-791.3258" font-family="Times,serif" font-size="14.00" fill="#000000">pos_succ_pred_double</text>
</a>
</g>
</g>
<!-- Spec_pos_pred_double_succ -->
<g id="node12" class="node">
<title>Spec_pos_pred_double_succ</title>
<g id="a_node12"><a xlink:href="Spec.html#pos_pred_double_succ" xlink:title="pos_pred_double_succ">
<ellipse fill="#f070d1" stroke="#000000" cx="553" cy="-795.0258" rx="115.8675" ry="18"/>
<ellipse fill="none" stroke="#000000" cx="553" cy="-795.0258" rx="119.8736" ry="22"/>
<ellipse fill="none" stroke="#000000" cx="553" cy="-795.0258" rx="123.8798" ry="26"/>
<text text-anchor="middle" x="553" y="-791.3258" font-family="Times,serif" font-size="14.00" fill="#000000">pos_pred_double_succ</text>
</a>
</g>
</g>
<!-- Spec_pos_add_carry_spec_r -->
<g id="node18" class="node">
<title>Spec_pos_add_carry_spec_r</title>
<g id="a_node18"><a xlink:href="Spec.html#pos_add_carry_spec_r" xlink:title="pos_add_carry_spec_r">
<ellipse fill="#f070d1" stroke="#000000" cx="1137" cy="-223.0258" rx="114.2798" ry="18"/>
<text text-anchor="middle" x="1137" y="-219.3258" font-family="Times,serif" font-size="14.00" fill="#000000">pos_add_carry_spec_r</text>
</a>
</g>
</g>
<!-- Spec_pos_add_assoc&#45;&gt;Spec_pos_add_carry_spec_r -->
<g id="edge14" class="edge">
<title>Spec_pos_add_assoc&#45;&gt;Spec_pos_add_carry_spec_r</title>
<path fill="none" stroke="#000000" d="M1202.0798,-387.1939C1182.9658,-374.3906 1159.2545,-354.9228 1147,-331.0258 1134.3159,-306.291 1132.9351,-274.1705 1134.0392,-251.4069"/>
<polygon fill="#000000" stroke="#000000" points="1137.5358,-251.5749 1134.7158,-241.3622 1130.5516,-251.1044 1137.5358,-251.5749"/>
</g>
<!-- Spec_pos_add_carry_spec_l -->
<g id="node19" class="node">
<title>Spec_pos_add_carry_spec_l</title>
<g id="a_node19"><a xlink:href="Spec.html#pos_add_carry_spec_l" xlink:title="pos_add_carry_spec_l">
<ellipse fill="#f070d1" stroke="#000000" cx="1437" cy="-313.0258" rx="112.3801" ry="18"/>
<text text-anchor="middle" x="1437" y="-309.3258" font-family="Times,serif" font-size="14.00" fill="#000000">pos_add_carry_spec_l</text>
</a>
</g>
</g>
<!-- Spec_pos_add_assoc&#45;&gt;Spec_pos_add_carry_spec_l -->
<g id="edge15" class="edge">
<title>Spec_pos_add_assoc&#45;&gt;Spec_pos_add_carry_spec_l</title>
<path fill="none" stroke="#000000" d="M1267.3545,-387.9663C1301.178,-373.0248 1351.8048,-350.6605 1388.95,-334.2517"/>
<polygon fill="#000000" stroke="#000000" points="1390.8305,-337.2474 1398.5634,-330.005 1388.0019,-330.8443 1390.8305,-337.2474"/>
</g>
<!-- Spec_pos_add_succ -->
<g id="node20" class="node">
<title>Spec_pos_add_succ</title>
<g id="a_node20"><a xlink:href="Spec.html#pos_add_succ" xlink:title="pos_add_succ">
<ellipse fill="#f070d1" stroke="#000000" cx="1231" cy="-313.0258" rx="75.2868" ry="18"/>
<text text-anchor="middle" x="1231" y="-309.3258" font-family="Times,serif" font-size="14.00" fill="#000000">pos_add_succ</text>
</a>
</g>
</g>
<!-- Spec_pos_add_assoc&#45;&gt;Spec_pos_add_succ -->
<g id="edge16" class="edge">
<title>Spec_pos_add_assoc&#45;&gt;Spec_pos_add_succ</title>
<path fill="none" stroke="#000000" d="M1231,-385.6105C1231,-372.9466 1231,-355.8815 1231,-341.4799"/>
<polygon fill="#000000" stroke="#000000" points="1234.5001,-341.103 1231,-331.103 1227.5001,-341.103 1234.5001,-341.103"/>
</g>
<!-- Spec_pos_succ_inj -->
<g id="node16" class="node">
<title>Spec_pos_succ_inj</title>
<g id="a_node16"><a xlink:href="Spec.html#pos_succ_inj" xlink:title="pos_succ_inj">
<ellipse fill="#f070d1" stroke="#000000" cx="334" cy="-795.0258" rx="69.5832" ry="18"/>
<ellipse fill="none" stroke="#000000" cx="334" cy="-795.0258" rx="73.5854" ry="22"/>
<ellipse fill="none" stroke="#000000" cx="334" cy="-795.0258" rx="77.5877" ry="26"/>
<text text-anchor="middle" x="334" y="-791.3258" font-family="Times,serif" font-size="14.00" fill="#000000">pos_succ_inj</text>
</a>
</g>
</g>
<!-- Spec_pos_add_no_neutral -->
<g id="node17" class="node">
<title>Spec_pos_add_no_neutral</title>
<g id="a_node17"><a xlink:href="Spec.html#pos_add_no_neutral" xlink:title="pos_add_no_neutral">
<ellipse fill="#f070d1" stroke="#000000" cx="127" cy="-795.0258" rx="103.1933" ry="18"/>
<ellipse fill="none" stroke="#000000" cx="127" cy="-795.0258" rx="107.1876" ry="22"/>
<ellipse fill="none" stroke="#000000" cx="127" cy="-795.0258" rx="111.1819" ry="26"/>
<text text-anchor="middle" x="127" y="-791.3258" font-family="Times,serif" font-size="14.00" fill="#000000">pos_add_no_neutral</text>
</a>
</g>
</g>
<!-- Spec_pos_add_succ_r -->
<g id="node22" class="node">
<title>Spec_pos_add_succ_r</title>
<g id="a_node22"><a xlink:href="Spec.html#pos_add_succ_r" xlink:title="pos_add_succ_r">
<ellipse fill="#f070d1" stroke="#000000" cx="1165" cy="-133.0258" rx="84.485" ry="18"/>
<text text-anchor="middle" x="1165" y="-129.3258" font-family="Times,serif" font-size="14.00" fill="#000000">pos_add_succ_r</text>
</a>
</g>
</g>
<!-- Spec_pos_add_carry_spec_r&#45;&gt;Spec_pos_add_succ_r -->
<g id="edge17" class="edge">
<title>Spec_pos_add_carry_spec_r&#45;&gt;Spec_pos_add_succ_r</title>
<path fill="none" stroke="#000000" d="M1142.6662,-204.8129C1146.5753,-192.248 1151.8473,-175.3024 1156.2875,-161.0304"/>
<polygon fill="#000000" stroke="#000000" points="1159.7135,-161.7998 1159.3422,-151.2115 1153.0295,-159.7203 1159.7135,-161.7998"/>
</g>
<!-- Spec_pos_add_succ_l -->
<g id="node21" class="node">
<title>Spec_pos_add_succ_l</title>
<g id="a_node21"><a xlink:href="Spec.html#pos_add_succ_l" xlink:title="pos_add_succ_l">
<ellipse fill="#f070d1" stroke="#000000" cx="1353" cy="-223.0258" rx="83.3857" ry="18"/>
<text text-anchor="middle" x="1353" y="-219.3258" font-family="Times,serif" font-size="14.00" fill="#000000">pos_add_succ_l</text>
</a>
</g>
</g>
<!-- Spec_pos_add_carry_spec_l&#45;&gt;Spec_pos_add_succ_l -->
<g id="edge18" class="edge">
<title>Spec_pos_add_carry_spec_l&#45;&gt;Spec_pos_add_succ_l</title>
<path fill="none" stroke="#000000" d="M1420.0013,-294.8129C1407.5093,-281.4286 1390.378,-263.0736 1376.5652,-248.2742"/>
<polygon fill="#000000" stroke="#000000" points="1379.0686,-245.8268 1369.6867,-240.9044 1373.9512,-250.6031 1379.0686,-245.8268"/>
</g>
<!-- Spec_pos_add_succ&#45;&gt;Spec_pos_add_succ_l -->
<g id="edge19" class="edge">
<title>Spec_pos_add_succ&#45;&gt;Spec_pos_add_succ_l</title>
<path fill="none" stroke="#000000" d="M1254.2344,-295.8856C1273.1926,-281.9001 1300.1743,-261.9956 1321.1468,-246.524"/>
<polygon fill="#000000" stroke="#000000" points="1323.467,-249.1617 1329.4365,-240.4086 1319.3115,-243.5286 1323.467,-249.1617"/>
</g>
<!-- Spec_pos_add_succ_l&#45;&gt;Spec_pos_add_succ_r -->
<g id="edge20" class="edge">
<title>Spec_pos_add_succ_l&#45;&gt;Spec_pos_add_succ_r</title>
<path fill="none" stroke="#000000" d="M1318.5179,-206.5184C1287.6087,-191.7214 1242.1141,-169.9421 1208.672,-153.9325"/>
<polygon fill="#000000" stroke="#000000" points="1210.1123,-150.7417 1199.5813,-149.5806 1207.0897,-157.0555 1210.1123,-150.7417"/>
</g>
<!-- Spec_pos_add_comm -->
<g id="node23" class="node">
<title>Spec_pos_add_comm</title>
<g id="a_node23"><a xlink:href="Spec.html#pos_add_comm" xlink:title="pos_add_comm">
<ellipse fill="#f070d1" stroke="#000000" cx="1353" cy="-133.0258" rx="81.7856" ry="18"/>
<text text-anchor="middle" x="1353" y="-129.3258" font-family="Times,serif" font-size="14.00" fill="#000000">pos_add_comm</text>
</a>
</g>
</g>
<!-- Spec_pos_add_succ_l&#45;&gt;Spec_pos_add_comm -->
<g id="edge21" class="edge">
<title>Spec_pos_add_succ_l&#45;&gt;Spec_pos_add_comm</title>
<path fill="none" stroke="#000000" d="M1353,-204.8129C1353,-192.37 1353,-175.631 1353,-161.4468"/>
<polygon fill="#000000" stroke="#000000" points="1356.5001,-161.2115 1353,-151.2115 1349.5001,-161.2115 1356.5001,-161.2115"/>
</g>
<!-- Spec_pos_add_carry_spec -->
<g id="node24" class="node">
<title>Spec_pos_add_carry_spec</title>
<g id="a_node24"><a xlink:href="Spec.html#pos_add_carry_spec" xlink:title="pos_add_carry_spec">
<ellipse fill="#f070d1" stroke="#000000" cx="1353" cy="-43.0258" rx="104.7816" ry="18"/>
<text text-anchor="middle" x="1353" y="-39.3258" font-family="Times,serif" font-size="14.00" fill="#000000">pos_add_carry_spec</text>
</a>
</g>
</g>
<!-- Spec_pos_add_succ_r&#45;&gt;Spec_pos_add_carry_spec -->
<g id="edge22" class="edge">
<title>Spec_pos_add_succ_r&#45;&gt;Spec_pos_add_carry_spec</title>
<path fill="none" stroke="#000000" d="M1199.4821,-116.5184C1230.1007,-101.8605 1275.0315,-80.3511 1308.3813,-64.3857"/>
<polygon fill="#000000" stroke="#000000" points="1309.9507,-67.5149 1317.4591,-60.04 1306.9281,-61.2011 1309.9507,-67.5149"/>
</g>
<!-- Spec_pos_add_1_r -->
<g id="node26" class="node">
<title>Spec_pos_add_1_r</title>
<g id="a_node26"><a xlink:href="Spec.html#pos_add_1_r" xlink:title="pos_add_1_r">
<ellipse fill="#f070d1" stroke="#000000" cx="1161" cy="-43.0258" rx="68.7879" ry="18"/>
<text text-anchor="middle" x="1161" y="-39.3258" font-family="Times,serif" font-size="14.00" fill="#000000">pos_add_1_r</text>
</a>
</g>
</g>
<!-- Spec_pos_add_succ_r&#45;&gt;Spec_pos_add_1_r -->
<g id="edge23" class="edge">
<title>Spec_pos_add_succ_r&#45;&gt;Spec_pos_add_1_r</title>
<path fill="none" stroke="#000000" d="M1164.1905,-114.8129C1163.6375,-102.37 1162.8936,-85.631 1162.2632,-71.4468"/>
<polygon fill="#000000" stroke="#000000" points="1165.7489,-71.0462 1161.8083,-61.2115 1158.7558,-71.3571 1165.7489,-71.0462"/>
</g>
<!-- Spec_pos_add_comm&#45;&gt;Spec_pos_add_carry_spec -->
<g id="edge24" class="edge">
<title>Spec_pos_add_comm&#45;&gt;Spec_pos_add_carry_spec</title>
<path fill="none" stroke="#000000" d="M1353,-114.8129C1353,-102.37 1353,-85.631 1353,-71.4468"/>
<polygon fill="#000000" stroke="#000000" points="1356.5001,-71.2115 1353,-61.2115 1349.5001,-71.2115 1356.5001,-71.2115"/>
</g>
</g>
</svg>
