<?xml version="1.0" encoding="UTF-8" standalone="no"?>
<!DOCTYPE svg PUBLIC "-//W3C//DTD SVG 1.1//EN"
 "http://www.w3.org/Graphics/SVG/1.1/DTD/svg11.dtd">
<!-- Generated by graphviz version 2.40.1 (20161225.0304)
 -->
<!-- Title: HoTT_HIT_Flattening Pages: 1 -->
<svg width="964pt" height="486pt"
 viewBox="0.00 0.00 964.00 486.00" xmlns="http://www.w3.org/2000/svg" xmlns:xlink="http://www.w3.org/1999/xlink">
<g id="graph0" class="graph" transform="scale(1 1) rotate(0) translate(4 482)">
<title>HoTT_HIT_Flattening</title>
<polygon fill="#ffffff" stroke="transparent" points="-4,4 -4,-482 960,-482 960,4 -4,4"/>
<g id="clust1" class="cluster">
<title>cluster_Flattening</title>
<polygon fill="#ffffc3" stroke="#000000" points="13.394,-8 13.394,-470 942.606,-470 942.606,-8 13.394,-8"/>
<text text-anchor="middle" x="58.894" y="-454.8" font-family="Times,serif" font-size="14.00" fill="#000000">Flattening</text>
</g>
<g id="clust2" class="cluster">
<title>cluster_Flattening_FlattenedHIT</title>
<polygon fill="#ffffa3" stroke="#000000" points="396.7986,-16 396.7986,-307 745.0438,-307 745.0438,-16 396.7986,-16"/>
<text text-anchor="middle" x="453.7986" y="-291.8" font-family="Times,serif" font-size="14.00" fill="#000000">FlattenedHIT</text>
</g>
<!-- Flattening_FlattenedHIT_Wtil_ind_beta_ppt -->
<g id="node1" class="node">
<title>Flattening_FlattenedHIT_Wtil_ind_beta_ppt</title>
<g id="a_node1"><a xlink:href="Flattening.html#FlattenedHIT.Wtil_ind_beta_ppt" xlink:title="Wtil_ind_beta_ppt">
<ellipse fill="#facdef" stroke="#000000" cx="571.1979" cy="-258" rx="95.5831" ry="18"/>
<text text-anchor="middle" x="571.1979" y="-254.3" font-family="Times,serif" font-size="14.00" fill="#000000">Wtil_ind_beta_ppt</text>
</a>
</g>
</g>
<!-- Flattening_FlattenedHIT_Wtil_ind -->
<g id="node2" class="node">
<title>Flattening_FlattenedHIT_Wtil_ind</title>
<g id="a_node2"><a xlink:href="Flattening.html#FlattenedHIT.Wtil_ind" xlink:title="Wtil_ind">
<ellipse fill="#f070d1" stroke="#000000" cx="601.1979" cy="-186" rx="50.0912" ry="18"/>
<text text-anchor="middle" x="601.1979" y="-182.3" font-family="Times,serif" font-size="14.00" fill="#000000">Wtil_ind</text>
</a>
</g>
</g>
<!-- Flattening_FlattenedHIT_Wtil_ind_beta_ppt&#45;&gt;Flattening_FlattenedHIT_Wtil_ind -->
<g id="edge1" class="edge">
<title>Flattening_FlattenedHIT_Wtil_ind_beta_ppt&#45;&gt;Flattening_FlattenedHIT_Wtil_ind</title>
<path fill="none" stroke="#000000" d="M578.7682,-239.8314C582.1334,-231.7547 586.1662,-222.0761 589.8784,-213.1668"/>
<polygon fill="#000000" stroke="#000000" points="593.1185,-214.4904 593.734,-203.9134 586.657,-211.798 593.1185,-214.4904"/>
</g>
<!-- Flattening_FlattenedHIT_ppt -->
<g id="node3" class="node">
<title>Flattening_FlattenedHIT_ppt</title>
<g id="a_node3"><a xlink:href="Flattening.html#FlattenedHIT.ppt" xlink:title="ppt">
<ellipse fill="#facdef" stroke="#000000" cx="601.1979" cy="-114" rx="27" ry="18"/>
<text text-anchor="middle" x="601.1979" y="-110.3" font-family="Times,serif" font-size="14.00" fill="#000000">ppt</text>
</a>
</g>
</g>
<!-- Flattening_FlattenedHIT_Wtil_ind&#45;&gt;Flattening_FlattenedHIT_ppt -->
<g id="edge2" class="edge">
<title>Flattening_FlattenedHIT_Wtil_ind&#45;&gt;Flattening_FlattenedHIT_ppt</title>
<path fill="none" stroke="#000000" d="M601.1979,-167.8314C601.1979,-160.131 601.1979,-150.9743 601.1979,-142.4166"/>
<polygon fill="#000000" stroke="#000000" points="604.698,-142.4132 601.1979,-132.4133 597.698,-142.4133 604.698,-142.4132"/>
</g>
<!-- Flattening_FlattenedHIT_cct -->
<g id="node4" class="node">
<title>Flattening_FlattenedHIT_cct</title>
<g id="a_node4"><a xlink:href="Flattening.html#FlattenedHIT.cct" xlink:title="cct">
<ellipse fill="#7faaff" stroke="#000000" cx="504.1979" cy="-42" rx="27" ry="18"/>
<text text-anchor="middle" x="504.1979" y="-38.3" font-family="Times,serif" font-size="14.00" fill="#000000">cct</text>
</a>
</g>
</g>
<!-- Flattening_FlattenedHIT_ppt&#45;&gt;Flattening_FlattenedHIT_cct -->
<g id="edge3" class="edge">
<title>Flattening_FlattenedHIT_ppt&#45;&gt;Flattening_FlattenedHIT_cct</title>
<path fill="none" stroke="#000000" d="M582.9529,-100.4574C568.1851,-89.4956 547.1861,-73.9088 530.5851,-61.5864"/>
<polygon fill="#000000" stroke="#000000" points="532.4768,-58.6318 522.361,-55.4819 528.3047,-64.2526 532.4768,-58.6318"/>
</g>
<!-- Flattening_FlattenedHIT_Wtil -->
<g id="node5" class="node">
<title>Flattening_FlattenedHIT_Wtil</title>
<g id="a_node5"><a xlink:href="Flattening.html#FlattenedHIT.Wtil" xlink:title="Wtil">
<ellipse fill="#e2cdfa" stroke="#000000" cx="631.1979" cy="-42" rx="30.5947" ry="18"/>
<text text-anchor="middle" x="631.1979" y="-38.3" font-family="Times,serif" font-size="14.00" fill="#000000">Wtil</text>
</a>
</g>
</g>
<!-- Flattening_FlattenedHIT_ppt&#45;&gt;Flattening_FlattenedHIT_Wtil -->
<g id="edge4" class="edge">
<title>Flattening_FlattenedHIT_ppt&#45;&gt;Flattening_FlattenedHIT_Wtil</title>
<path fill="none" stroke="#000000" d="M608.4601,-96.5708C611.935,-88.2309 616.173,-78.0598 620.0443,-68.7686"/>
<polygon fill="#000000" stroke="#000000" points="623.2832,-70.0952 623.8986,-59.5182 616.8216,-67.4028 623.2832,-70.0952"/>
</g>
<!-- Flattening_equiv_flattening -->
<g id="node6" class="node">
<title>Flattening_equiv_flattening</title>
<g id="a_node6"><a xlink:href="Flattening.html#equiv_flattening" xlink:title="equiv_flattening">
<ellipse fill="#f070d1" stroke="#000000" cx="574.1979" cy="-413" rx="86.3896" ry="18"/>
<ellipse fill="none" stroke="#000000" cx="574.1979" cy="-413" rx="90.3871" ry="22"/>
<ellipse fill="none" stroke="#000000" cx="574.1979" cy="-413" rx="94.3847" ry="26"/>
<text text-anchor="middle" x="574.1979" y="-409.3" font-family="Times,serif" font-size="14.00" fill="#000000">equiv_flattening</text>
</a>
</g>
</g>
<!-- Flattening_sWtil_rec_beta_ppt -->
<g id="node7" class="node">
<title>Flattening_sWtil_rec_beta_ppt</title>
<g id="a_node7"><a xlink:href="Flattening.html#sWtil_rec_beta_ppt" xlink:title="sWtil_rec_beta_ppt">
<ellipse fill="#f070d1" stroke="#000000" cx="408.1979" cy="-333" rx="100.9827" ry="18"/>
<text text-anchor="middle" x="408.1979" y="-329.3" font-family="Times,serif" font-size="14.00" fill="#000000">sWtil_rec_beta_ppt</text>
</a>
</g>
</g>
<!-- Flattening_equiv_flattening&#45;&gt;Flattening_sWtil_rec_beta_ppt -->
<g id="edge5" class="edge">
<title>Flattening_equiv_flattening&#45;&gt;Flattening_sWtil_rec_beta_ppt</title>
<path fill="none" stroke="#000000" d="M527.073,-390.2892C503.6526,-379.0023 475.5132,-365.4411 452.4924,-354.3468"/>
<polygon fill="#000000" stroke="#000000" points="453.8224,-351.1025 443.2944,-349.914 450.7834,-357.4084 453.8224,-351.1025"/>
</g>
<!-- Flattening_sWtil_ind -->
<g id="node10" class="node">
<title>Flattening_sWtil_ind</title>
<g id="a_node10"><a xlink:href="Flattening.html#sWtil_ind" xlink:title="sWtil_ind">
<ellipse fill="#f070d1" stroke="#000000" cx="119.1979" cy="-333" rx="54.6905" ry="18"/>
<text text-anchor="middle" x="119.1979" y="-329.3" font-family="Times,serif" font-size="14.00" fill="#000000">sWtil_ind</text>
</a>
</g>
</g>
<!-- Flattening_equiv_flattening&#45;&gt;Flattening_sWtil_ind -->
<g id="edge6" class="edge">
<title>Flattening_equiv_flattening&#45;&gt;Flattening_sWtil_ind</title>
<path fill="none" stroke="#000000" d="M494.4223,-398.9735C403.7448,-383.0302 257.904,-357.3879 177.3502,-343.2246"/>
<polygon fill="#000000" stroke="#000000" points="177.8371,-339.7566 167.382,-341.4719 176.6248,-346.6508 177.8371,-339.7566"/>
</g>
<!-- Flattening_Wtil_rec_beta_ppt -->
<g id="node11" class="node">
<title>Flattening_Wtil_rec_beta_ppt</title>
<g id="a_node11"><a xlink:href="Flattening.html#Wtil_rec_beta_ppt" xlink:title="Wtil_rec_beta_ppt">
<ellipse fill="#f070d1" stroke="#000000" cx="768.1979" cy="-333" rx="96.3833" ry="18"/>
<text text-anchor="middle" x="768.1979" y="-329.3" font-family="Times,serif" font-size="14.00" fill="#000000">Wtil_rec_beta_ppt</text>
</a>
</g>
</g>
<!-- Flattening_equiv_flattening&#45;&gt;Flattening_Wtil_rec_beta_ppt -->
<g id="edge7" class="edge">
<title>Flattening_equiv_flattening&#45;&gt;Flattening_Wtil_rec_beta_ppt</title>
<path fill="none" stroke="#000000" d="M626.6971,-391.3508C655.4302,-379.5021 690.8144,-364.9107 719.0108,-353.2833"/>
<polygon fill="#000000" stroke="#000000" points="720.367,-356.5101 728.2775,-349.462 717.6984,-350.0387 720.367,-356.5101"/>
</g>
<!-- Flattening_sWtil_rec -->
<g id="node8" class="node">
<title>Flattening_sWtil_rec</title>
<g id="a_node8"><a xlink:href="Flattening.html#sWtil_rec" xlink:title="sWtil_rec">
<ellipse fill="#f070d1" stroke="#000000" cx="288.1979" cy="-258" rx="55.4913" ry="18"/>
<text text-anchor="middle" x="288.1979" y="-254.3" font-family="Times,serif" font-size="14.00" fill="#000000">sWtil_rec</text>
</a>
</g>
</g>
<!-- Flattening_sWtil_rec_beta_ppt&#45;&gt;Flattening_sWtil_rec -->
<g id="edge8" class="edge">
<title>Flattening_sWtil_rec_beta_ppt&#45;&gt;Flattening_sWtil_rec</title>
<path fill="none" stroke="#000000" d="M380.3659,-315.605C363.1108,-304.8205 340.8163,-290.8865 322.4765,-279.4241"/>
<polygon fill="#000000" stroke="#000000" points="324.1655,-276.3524 313.8305,-274.0204 320.4555,-282.2884 324.1655,-276.3524"/>
</g>
<!-- Flattening_sWtil_ind_beta_cct -->
<g id="node9" class="node">
<title>Flattening_sWtil_ind_beta_cct</title>
<g id="a_node9"><a xlink:href="Flattening.html#sWtil_ind_beta_cct" xlink:title="sWtil_ind_beta_cct">
<ellipse fill="#f070d1" stroke="#000000" cx="206.1979" cy="-413" rx="99.3868" ry="18"/>
<ellipse fill="none" stroke="#000000" cx="206.1979" cy="-413" rx="103.3846" ry="22"/>
<ellipse fill="none" stroke="#000000" cx="206.1979" cy="-413" rx="107.3824" ry="26"/>
<text text-anchor="middle" x="206.1979" y="-409.3" font-family="Times,serif" font-size="14.00" fill="#000000">sWtil_ind_beta_cct</text>
</a>
</g>
</g>
<!-- Flattening_sWtil_ind_beta_cct&#45;&gt;Flattening_sWtil_ind -->
<g id="edge9" class="edge">
<title>Flattening_sWtil_ind_beta_cct&#45;&gt;Flattening_sWtil_ind</title>
<path fill="none" stroke="#000000" d="M178.6706,-387.6875C168.039,-377.9114 155.9293,-366.776 145.4243,-357.1162"/>
<polygon fill="#000000" stroke="#000000" points="147.485,-354.2563 137.7549,-350.0639 142.7468,-359.409 147.485,-354.2563"/>
</g>
<!-- Flattening_Wtil_rec_beta_ppt&#45;&gt;Flattening_FlattenedHIT_Wtil_ind_beta_ppt -->
<g id="edge10" class="edge">
<title>Flattening_Wtil_rec_beta_ppt&#45;&gt;Flattening_FlattenedHIT_Wtil_ind_beta_ppt</title>
<path fill="none" stroke="#000000" d="M708.1166,-318.8437C695.7669,-315.3923 682.9517,-311.4074 671.1979,-307 650.8496,-299.3699 629.0909,-288.9932 611.0835,-279.7531"/>
<polygon fill="#000000" stroke="#000000" points="612.5226,-276.5565 602.0361,-275.0453 609.2914,-282.7661 612.5226,-276.5565"/>
</g>
<!-- Flattening_Wtil_rec -->
<g id="node12" class="node">
<title>Flattening_Wtil_rec</title>
<g id="a_node12"><a xlink:href="Flattening.html#Wtil_rec" xlink:title="Wtil_rec">
<ellipse fill="#f070d1" stroke="#000000" cx="845.1979" cy="-258" rx="50.0912" ry="18"/>
<text text-anchor="middle" x="845.1979" y="-254.3" font-family="Times,serif" font-size="14.00" fill="#000000">Wtil_rec</text>
</a>
</g>
</g>
<!-- Flattening_Wtil_rec_beta_ppt&#45;&gt;Flattening_Wtil_rec -->
<g id="edge11" class="edge">
<title>Flattening_Wtil_rec_beta_ppt&#45;&gt;Flattening_Wtil_rec</title>
<path fill="none" stroke="#000000" d="M786.4458,-315.226C796.5633,-305.3713 809.2894,-292.9758 820.3083,-282.2431"/>
<polygon fill="#000000" stroke="#000000" points="822.8896,-284.6148 827.611,-275.1301 818.0054,-279.6003 822.8896,-284.6148"/>
</g>
<!-- Flattening_Wtil_rec&#45;&gt;Flattening_FlattenedHIT_Wtil_ind -->
<g id="edge12" class="edge">
<title>Flattening_Wtil_rec&#45;&gt;Flattening_FlattenedHIT_Wtil_ind</title>
<path fill="none" stroke="#000000" d="M806.2656,-246.5118C763.7722,-233.9728 695.6742,-213.8783 649.7287,-200.3206"/>
<polygon fill="#000000" stroke="#000000" points="650.5733,-196.9206 639.9916,-197.4473 648.5921,-203.6345 650.5733,-196.9206"/>
</g>
</g>
</svg>
