<?xml version="1.0" encoding="UTF-8" standalone="no"?>
<!DOCTYPE svg PUBLIC "-//W3C//DTD SVG 1.1//EN"
 "http://www.w3.org/Graphics/SVG/1.1/DTD/svg11.dtd">
<!-- Generated by graphviz version 2.40.1 (20161225.0304)
 -->
<!-- Title: HoTT_Algebra_Groups_GrpPullback Pages: 1 -->
<svg width="1428pt" height="718pt"
 viewBox="0.00 0.00 1428.00 718.00" xmlns="http://www.w3.org/2000/svg" xmlns:xlink="http://www.w3.org/1999/xlink">
<g id="graph0" class="graph" transform="scale(1 1) rotate(0) translate(4 714)">
<title>HoTT_Algebra_Groups_GrpPullback</title>
<polygon fill="#ffffff" stroke="transparent" points="-4,4 -4,-714 1424,-714 1424,4 -4,4"/>
<g id="clust1" class="cluster">
<title>cluster_GrpPullback</title>
<polygon fill="#ffffc3" stroke="#000000" points="8,-8.3163 8,-701.6837 1412,-701.6837 1412,-8.3163 8,-8.3163"/>
<text text-anchor="middle" x="61" y="-686.4837" font-family="Times,serif" font-size="14.00" fill="#000000">GrpPullback</text>
</g>
<!-- GrpPullback_isequiv_grp_pullback_corec -->
<g id="node1" class="node">
<title>GrpPullback_isequiv_grp_pullback_corec</title>
<g id="a_node1"><a xlink:href="GrpPullback.html#isequiv_grp_pullback_corec" xlink:title="isequiv_grp_pullback_corec">
<ellipse fill="#f070d1" stroke="#000000" cx="1053" cy="-642.3163" rx="140.2812" ry="18"/>
<ellipse fill="none" stroke="#000000" cx="1053" cy="-642.3163" rx="144.2782" ry="22"/>
<ellipse fill="none" stroke="#000000" cx="1053" cy="-642.3163" rx="148.2752" ry="26"/>
<text text-anchor="middle" x="1053" y="-638.6163" font-family="Times,serif" font-size="14.00" fill="#000000">isequiv_grp_pullback_corec</text>
</a>
</g>
</g>
<!-- GrpPullback_grp_pullback_corec_pr2 -->
<g id="node2" class="node">
<title>GrpPullback_grp_pullback_corec_pr2</title>
<g id="a_node2"><a xlink:href="GrpPullback.html#grp_pullback_corec_pr2" xlink:title="grp_pullback_corec_pr2">
<ellipse fill="#f070d1" stroke="#000000" cx="1053" cy="-559.3163" rx="123.4781" ry="18"/>
<text text-anchor="middle" x="1053" y="-555.6163" font-family="Times,serif" font-size="14.00" fill="#000000">grp_pullback_corec_pr2</text>
</a>
</g>
</g>
<!-- GrpPullback_isequiv_grp_pullback_corec&#45;&gt;GrpPullback_grp_pullback_corec_pr2 -->
<g id="edge1" class="edge">
<title>GrpPullback_isequiv_grp_pullback_corec&#45;&gt;GrpPullback_grp_pullback_corec_pr2</title>
<path fill="none" stroke="#000000" d="M1053,-616.0545C1053,-607.0427 1053,-596.9177 1053,-587.7423"/>
<polygon fill="#000000" stroke="#000000" points="1056.5001,-587.5309 1053,-577.531 1049.5001,-587.531 1056.5001,-587.5309"/>
</g>
<!-- GrpPullback_grp_pullback_corec_pr1 -->
<g id="node3" class="node">
<title>GrpPullback_grp_pullback_corec_pr1</title>
<g id="a_node3"><a xlink:href="GrpPullback.html#grp_pullback_corec_pr1" xlink:title="grp_pullback_corec_pr1">
<ellipse fill="#f070d1" stroke="#000000" cx="788" cy="-559.3163" rx="123.4781" ry="18"/>
<text text-anchor="middle" x="788" y="-555.6163" font-family="Times,serif" font-size="14.00" fill="#000000">grp_pullback_corec_pr1</text>
</a>
</g>
</g>
<!-- GrpPullback_isequiv_grp_pullback_corec&#45;&gt;GrpPullback_grp_pullback_corec_pr1 -->
<g id="edge2" class="edge">
<title>GrpPullback_isequiv_grp_pullback_corec&#45;&gt;GrpPullback_grp_pullback_corec_pr1</title>
<path fill="none" stroke="#000000" d="M980.2371,-619.5264C939.4149,-606.7406 889.0249,-590.958 850.0777,-578.7595"/>
<polygon fill="#000000" stroke="#000000" points="851.0243,-575.3883 840.4352,-575.7394 848.932,-582.0683 851.0243,-575.3883"/>
</g>
<!-- GrpPullback_grp_pullback_corec_ -->
<g id="node7" class="node">
<title>GrpPullback_grp_pullback_corec_</title>
<g id="a_node7"><a xlink:href="GrpPullback.html#grp_pullback_corec'" xlink:title="grp_pullback_corec&#39;">
<ellipse fill="#f070d1" stroke="#000000" cx="1299" cy="-559.3163" rx="104.7816" ry="18"/>
<text text-anchor="middle" x="1299" y="-555.6163" font-family="Times,serif" font-size="14.00" fill="#000000">grp_pullback_corec&#39;</text>
</a>
</g>
</g>
<!-- GrpPullback_isequiv_grp_pullback_corec&#45;&gt;GrpPullback_grp_pullback_corec_ -->
<g id="edge3" class="edge">
<title>GrpPullback_isequiv_grp_pullback_corec&#45;&gt;GrpPullback_grp_pullback_corec_</title>
<path fill="none" stroke="#000000" d="M1121.5247,-619.1961C1159.34,-606.4373 1205.764,-590.7739 1241.6458,-578.6675"/>
<polygon fill="#000000" stroke="#000000" points="1243.1145,-581.8658 1251.4708,-575.3525 1240.8766,-575.2332 1243.1145,-581.8658"/>
</g>
<!-- GrpPullback_grp_pullback_corec -->
<g id="node8" class="node">
<title>GrpPullback_grp_pullback_corec</title>
<g id="a_node8"><a xlink:href="GrpPullback.html#grp_pullback_corec" xlink:title="grp_pullback_corec">
<ellipse fill="#f070d1" stroke="#000000" cx="1053" cy="-484.3163" rx="102.8821" ry="18"/>
<text text-anchor="middle" x="1053" y="-480.6163" font-family="Times,serif" font-size="14.00" fill="#000000">grp_pullback_corec</text>
</a>
</g>
</g>
<!-- GrpPullback_grp_pullback_corec_pr2&#45;&gt;GrpPullback_grp_pullback_corec -->
<g id="edge4" class="edge">
<title>GrpPullback_grp_pullback_corec_pr2&#45;&gt;GrpPullback_grp_pullback_corec</title>
<path fill="none" stroke="#000000" d="M1053,-541.1608C1053,-532.6563 1053,-522.3238 1053,-512.8127"/>
<polygon fill="#000000" stroke="#000000" points="1056.5001,-512.5644 1053,-502.5644 1049.5001,-512.5645 1056.5001,-512.5644"/>
</g>
<!-- GrpPullback_grp_pullback_pr2 -->
<g id="node9" class="node">
<title>GrpPullback_grp_pullback_pr2</title>
<g id="a_node9"><a xlink:href="GrpPullback.html#grp_pullback_pr2" xlink:title="grp_pullback_pr2">
<ellipse fill="#f070d1" stroke="#000000" cx="839" cy="-484.3163" rx="92.8835" ry="18"/>
<text text-anchor="middle" x="839" y="-480.6163" font-family="Times,serif" font-size="14.00" fill="#000000">grp_pullback_pr2</text>
</a>
</g>
</g>
<!-- GrpPullback_grp_pullback_corec_pr2&#45;&gt;GrpPullback_grp_pullback_pr2 -->
<g id="edge5" class="edge">
<title>GrpPullback_grp_pullback_corec_pr2&#45;&gt;GrpPullback_grp_pullback_pr2</title>
<path fill="none" stroke="#000000" d="M1005.5065,-542.6713C972.4153,-531.074 928.1905,-515.5746 893.6357,-503.4643"/>
<polygon fill="#000000" stroke="#000000" points="894.7581,-500.149 884.1632,-500.1445 892.4428,-506.755 894.7581,-500.149"/>
</g>
<!-- GrpPullback_grp_pullback_corec_pr1&#45;&gt;GrpPullback_grp_pullback_corec -->
<g id="edge6" class="edge">
<title>GrpPullback_grp_pullback_corec_pr1&#45;&gt;GrpPullback_grp_pullback_corec</title>
<path fill="none" stroke="#000000" d="M844.8491,-543.2269C887.1242,-531.2622 944.8508,-514.9245 988.7896,-502.489"/>
<polygon fill="#000000" stroke="#000000" points="989.8408,-505.8291 998.5097,-499.738 987.9344,-499.0936 989.8408,-505.8291"/>
</g>
<!-- GrpPullback_grp_pullback_pr1 -->
<g id="node10" class="node">
<title>GrpPullback_grp_pullback_pr1</title>
<g id="a_node10"><a xlink:href="GrpPullback.html#grp_pullback_pr1" xlink:title="grp_pullback_pr1">
<ellipse fill="#f070d1" stroke="#000000" cx="635" cy="-484.3163" rx="92.8835" ry="18"/>
<text text-anchor="middle" x="635" y="-480.6163" font-family="Times,serif" font-size="14.00" fill="#000000">grp_pullback_pr1</text>
</a>
</g>
</g>
<!-- GrpPullback_grp_pullback_corec_pr1&#45;&gt;GrpPullback_grp_pullback_pr1 -->
<g id="edge7" class="edge">
<title>GrpPullback_grp_pullback_corec_pr1&#45;&gt;GrpPullback_grp_pullback_pr1</title>
<path fill="none" stroke="#000000" d="M752.5142,-541.9212C730.3815,-531.0719 701.746,-517.0349 678.2836,-505.5337"/>
<polygon fill="#000000" stroke="#000000" points="679.7607,-502.3599 669.2409,-501.101 676.6796,-508.6454 679.7607,-502.3599"/>
</g>
<!-- GrpPullback_equiv_grp_pullback_compose_r -->
<g id="node4" class="node">
<title>GrpPullback_equiv_grp_pullback_compose_r</title>
<g id="a_node4"><a xlink:href="GrpPullback.html#equiv_grp_pullback_compose_r" xlink:title="equiv_grp_pullback_compose_r">
<ellipse fill="#f070d1" stroke="#000000" cx="305" cy="-642.3163" rx="157.0827" ry="18"/>
<ellipse fill="none" stroke="#000000" cx="305" cy="-642.3163" rx="161.0775" ry="22"/>
<ellipse fill="none" stroke="#000000" cx="305" cy="-642.3163" rx="165.0724" ry="26"/>
<text text-anchor="middle" x="305" y="-638.6163" font-family="Times,serif" font-size="14.00" fill="#000000">equiv_grp_pullback_compose_r</text>
</a>
</g>
</g>
<!-- GrpPullback_functor_grp_pullback -->
<g id="node6" class="node">
<title>GrpPullback_functor_grp_pullback</title>
<g id="a_node6"><a xlink:href="GrpPullback.html#functor_grp_pullback" xlink:title="functor_grp_pullback">
<ellipse fill="#f070d1" stroke="#000000" cx="536" cy="-559.3163" rx="110.4804" ry="18"/>
<text text-anchor="middle" x="536" y="-555.6163" font-family="Times,serif" font-size="14.00" fill="#000000">functor_grp_pullback</text>
</a>
</g>
</g>
<!-- GrpPullback_equiv_grp_pullback_compose_r&#45;&gt;GrpPullback_functor_grp_pullback -->
<g id="edge8" class="edge">
<title>GrpPullback_equiv_grp_pullback_compose_r&#45;&gt;GrpPullback_functor_grp_pullback</title>
<path fill="none" stroke="#000000" d="M371.5049,-618.4206C406.0783,-605.9981 447.8415,-590.9923 480.6352,-579.2092"/>
<polygon fill="#000000" stroke="#000000" points="481.8415,-582.495 490.0689,-575.8196 479.4744,-575.9073 481.8415,-582.495"/>
</g>
<!-- GrpPullback_equiv_functor_grp_pullback -->
<g id="node5" class="node">
<title>GrpPullback_equiv_functor_grp_pullback</title>
<g id="a_node5"><a xlink:href="GrpPullback.html#equiv_functor_grp_pullback" xlink:title="equiv_functor_grp_pullback">
<ellipse fill="#f070d1" stroke="#000000" cx="637" cy="-642.3163" rx="141.073" ry="18"/>
<ellipse fill="none" stroke="#000000" cx="637" cy="-642.3163" rx="145.074" ry="22"/>
<ellipse fill="none" stroke="#000000" cx="637" cy="-642.3163" rx="149.075" ry="26"/>
<text text-anchor="middle" x="637" y="-638.6163" font-family="Times,serif" font-size="14.00" fill="#000000">equiv_functor_grp_pullback</text>
</a>
</g>
</g>
<!-- GrpPullback_equiv_functor_grp_pullback&#45;&gt;GrpPullback_functor_grp_pullback -->
<g id="edge9" class="edge">
<title>GrpPullback_equiv_functor_grp_pullback&#45;&gt;GrpPullback_functor_grp_pullback</title>
<path fill="none" stroke="#000000" d="M605.8725,-616.7363C593.035,-606.1866 578.2288,-594.0192 565.5595,-583.6078"/>
<polygon fill="#000000" stroke="#000000" points="567.5329,-580.6992 557.5847,-577.0542 563.0885,-586.1073 567.5329,-580.6992"/>
</g>
<!-- GrpPullback_functor_grp_pullback&#45;&gt;GrpPullback_grp_pullback_corec -->
<g id="edge10" class="edge">
<title>GrpPullback_functor_grp_pullback&#45;&gt;GrpPullback_grp_pullback_corec</title>
<path fill="none" stroke="#000000" d="M616.9885,-547.0226C630.0288,-545.085 643.3839,-543.1256 656,-541.3163 782.5523,-523.1668 814.5444,-521.1275 941,-502.3163 949.6334,-501.032 958.6344,-499.6529 967.617,-498.2503"/>
<polygon fill="#000000" stroke="#000000" points="968.3951,-501.671 977.7302,-496.6605 967.308,-494.7559 968.3951,-501.671"/>
</g>
<!-- GrpPullback_functor_grp_pullback&#45;&gt;GrpPullback_grp_pullback_pr2 -->
<g id="edge11" class="edge">
<title>GrpPullback_functor_grp_pullback&#45;&gt;GrpPullback_grp_pullback_pr2</title>
<path fill="none" stroke="#000000" d="M596.9521,-544.2291C647.5244,-531.7112 719.3592,-513.9303 771.6298,-500.992"/>
<polygon fill="#000000" stroke="#000000" points="772.6154,-504.3538 781.4814,-498.5535 770.9334,-497.5589 772.6154,-504.3538"/>
</g>
<!-- GrpPullback_functor_grp_pullback&#45;&gt;GrpPullback_grp_pullback_pr1 -->
<g id="edge12" class="edge">
<title>GrpPullback_functor_grp_pullback&#45;&gt;GrpPullback_grp_pullback_pr1</title>
<path fill="none" stroke="#000000" d="M559.4616,-541.5423C572.6539,-531.5482 589.2956,-518.9408 603.5991,-508.1048"/>
<polygon fill="#000000" stroke="#000000" points="605.8494,-510.7911 611.7068,-501.9626 601.6223,-505.2114 605.8494,-510.7911"/>
</g>
<!-- GrpPullback_grp_pullback_corec_&#45;&gt;GrpPullback_grp_pullback_corec -->
<g id="edge13" class="edge">
<title>GrpPullback_grp_pullback_corec_&#45;&gt;GrpPullback_grp_pullback_corec</title>
<path fill="none" stroke="#000000" d="M1247.4303,-543.5938C1208.5615,-531.7435 1155.1291,-515.4532 1114.1131,-502.9483"/>
<polygon fill="#000000" stroke="#000000" points="1115.0878,-499.5865 1104.5018,-500.018 1113.0464,-506.2822 1115.0878,-499.5865"/>
</g>
<!-- GrpPullback_grp_pullback -->
<g id="node11" class="node">
<title>GrpPullback_grp_pullback</title>
<g id="a_node11"><a xlink:href="GrpPullback.html#grp_pullback" xlink:title="grp_pullback">
<ellipse fill="#f070d1" stroke="#000000" cx="877" cy="-409.3163" rx="71.4873" ry="18"/>
<text text-anchor="middle" x="877" y="-405.6163" font-family="Times,serif" font-size="14.00" fill="#000000">grp_pullback</text>
</a>
</g>
</g>
<!-- GrpPullback_grp_pullback_corec&#45;&gt;GrpPullback_grp_pullback -->
<g id="edge14" class="edge">
<title>GrpPullback_grp_pullback_corec&#45;&gt;GrpPullback_grp_pullback</title>
<path fill="none" stroke="#000000" d="M1013.5022,-467.4848C986.5497,-455.9994 950.7696,-440.7522 922.6035,-428.7496"/>
<polygon fill="#000000" stroke="#000000" points="923.9389,-425.5141 913.3672,-424.8137 921.1947,-431.9538 923.9389,-425.5141"/>
</g>
<!-- GrpPullback_grp_pullback_pr2&#45;&gt;GrpPullback_grp_pullback -->
<g id="edge15" class="edge">
<title>GrpPullback_grp_pullback_pr2&#45;&gt;GrpPullback_grp_pullback</title>
<path fill="none" stroke="#000000" d="M848.1987,-466.1608C852.7263,-457.2248 858.2764,-446.2707 863.2919,-436.3717"/>
<polygon fill="#000000" stroke="#000000" points="866.4884,-437.8067 867.886,-427.3045 860.2441,-434.6429 866.4884,-437.8067"/>
</g>
<!-- GrpPullback_grp_pullback_pr1&#45;&gt;GrpPullback_grp_pullback -->
<g id="edge16" class="edge">
<title>GrpPullback_grp_pullback_pr1&#45;&gt;GrpPullback_grp_pullback</title>
<path fill="none" stroke="#000000" d="M684.264,-469.0485C724.3095,-456.6377 780.7616,-439.1422 822.2226,-426.2927"/>
<polygon fill="#000000" stroke="#000000" points="823.3733,-429.6004 831.889,-423.2969 821.3011,-422.9141 823.3733,-429.6004"/>
</g>
<!-- GrpPullback_isgroup_grp_pullback -->
<g id="node12" class="node">
<title>GrpPullback_isgroup_grp_pullback</title>
<g id="a_node12"><a xlink:href="GrpPullback.html#isgroup_grp_pullback" xlink:title="isgroup_grp_pullback">
<ellipse fill="#f070d1" stroke="#000000" cx="881" cy="-334.3163" rx="111.5806" ry="18"/>
<text text-anchor="middle" x="881" y="-330.6163" font-family="Times,serif" font-size="14.00" fill="#000000">isgroup_grp_pullback</text>
</a>
</g>
</g>
<!-- GrpPullback_grp_pullback&#45;&gt;GrpPullback_isgroup_grp_pullback -->
<g id="edge17" class="edge">
<title>GrpPullback_grp_pullback&#45;&gt;GrpPullback_isgroup_grp_pullback</title>
<path fill="none" stroke="#000000" d="M877.9683,-391.1608C878.4219,-382.6563 878.9729,-372.3238 879.4802,-362.8127"/>
<polygon fill="#000000" stroke="#000000" points="882.9891,-362.7367 880.0268,-352.5644 875.9991,-362.3638 882.9891,-362.7367"/>
</g>
<!-- GrpPullback_grp_pullback_rightinverse -->
<g id="node13" class="node">
<title>GrpPullback_grp_pullback_rightinverse</title>
<g id="a_node13"><a xlink:href="GrpPullback.html#grp_pullback_rightinverse" xlink:title="grp_pullback_rightinverse">
<ellipse fill="#f070d1" stroke="#000000" cx="1270" cy="-185.3163" rx="133.7763" ry="18"/>
<text text-anchor="middle" x="1270" y="-181.6163" font-family="Times,serif" font-size="14.00" fill="#000000">grp_pullback_rightinverse</text>
</a>
</g>
</g>
<!-- GrpPullback_isgroup_grp_pullback&#45;&gt;GrpPullback_grp_pullback_rightinverse -->
<g id="edge18" class="edge">
<title>GrpPullback_isgroup_grp_pullback&#45;&gt;GrpPullback_grp_pullback_rightinverse</title>
<path fill="none" stroke="#000000" d="M924.4909,-317.6578C995.9785,-290.2756 1138.1387,-235.8235 1215.9726,-206.0106"/>
<polygon fill="#000000" stroke="#000000" points="1217.5094,-209.1699 1225.5959,-202.3245 1215.0055,-202.6331 1217.5094,-209.1699"/>
</g>
<!-- GrpPullback_grp_pullback_leftinverse -->
<g id="node14" class="node">
<title>GrpPullback_grp_pullback_leftinverse</title>
<g id="a_node14"><a xlink:href="GrpPullback.html#grp_pullback_leftinverse" xlink:title="grp_pullback_leftinverse">
<ellipse fill="#f070d1" stroke="#000000" cx="992" cy="-185.3163" rx="126.1777" ry="18"/>
<text text-anchor="middle" x="992" y="-181.6163" font-family="Times,serif" font-size="14.00" fill="#000000">grp_pullback_leftinverse</text>
</a>
</g>
</g>
<!-- GrpPullback_isgroup_grp_pullback&#45;&gt;GrpPullback_grp_pullback_leftinverse -->
<g id="edge19" class="edge">
<title>GrpPullback_isgroup_grp_pullback&#45;&gt;GrpPullback_grp_pullback_leftinverse</title>
<path fill="none" stroke="#000000" d="M894.3892,-316.3434C913.8071,-290.2779 949.9088,-241.817 972.3471,-211.6972"/>
<polygon fill="#000000" stroke="#000000" points="975.3959,-213.4632 978.5633,-203.3529 969.7824,-209.2813 975.3959,-213.4632"/>
</g>
<!-- GrpPullback_ismonoid_grp_pullback -->
<g id="node16" class="node">
<title>GrpPullback_ismonoid_grp_pullback</title>
<g id="a_node16"><a xlink:href="GrpPullback.html#ismonoid_grp_pullback" xlink:title="ismonoid_grp_pullback">
<ellipse fill="#f070d1" stroke="#000000" cx="711" cy="-260.3163" rx="118.0794" ry="18"/>
<text text-anchor="middle" x="711" y="-256.6163" font-family="Times,serif" font-size="14.00" fill="#000000">ismonoid_grp_pullback</text>
</a>
</g>
</g>
<!-- GrpPullback_isgroup_grp_pullback&#45;&gt;GrpPullback_ismonoid_grp_pullback -->
<g id="edge20" class="edge">
<title>GrpPullback_isgroup_grp_pullback&#45;&gt;GrpPullback_ismonoid_grp_pullback</title>
<path fill="none" stroke="#000000" d="M841.9986,-317.3392C817.4658,-306.6602 785.6174,-292.7967 759.4666,-281.4135"/>
<polygon fill="#000000" stroke="#000000" points="760.6799,-278.1244 750.114,-277.3423 757.886,-284.5427 760.6799,-278.1244"/>
</g>
<!-- GrpPullback_grp_pullback_negate -->
<g id="node15" class="node">
<title>GrpPullback_grp_pullback_negate</title>
<g id="a_node15"><a xlink:href="GrpPullback.html#grp_pullback_negate" xlink:title="grp_pullback_negate">
<ellipse fill="#f070d1" stroke="#000000" cx="1131" cy="-110.3163" rx="108.5808" ry="18"/>
<text text-anchor="middle" x="1131" y="-106.6163" font-family="Times,serif" font-size="14.00" fill="#000000">grp_pullback_negate</text>
</a>
</g>
</g>
<!-- GrpPullback_grp_pullback_rightinverse&#45;&gt;GrpPullback_grp_pullback_negate -->
<g id="edge21" class="edge">
<title>GrpPullback_grp_pullback_rightinverse&#45;&gt;GrpPullback_grp_pullback_negate</title>
<path fill="none" stroke="#000000" d="M1237.4107,-167.7321C1217.839,-157.1718 1192.7659,-143.6432 1171.8744,-132.3708"/>
<polygon fill="#000000" stroke="#000000" points="1173.3684,-129.2 1162.9058,-127.5316 1170.0444,-135.3604 1173.3684,-129.2"/>
</g>
<!-- GrpPullback_grp_pullback_mon_unit -->
<g id="node19" class="node">
<title>GrpPullback_grp_pullback_mon_unit</title>
<g id="a_node19"><a xlink:href="GrpPullback.html#grp_pullback_mon_unit" xlink:title="grp_pullback_mon_unit">
<ellipse fill="#f070d1" stroke="#000000" cx="853" cy="-110.3163" rx="120.4791" ry="18"/>
<text text-anchor="middle" x="853" y="-106.6163" font-family="Times,serif" font-size="14.00" fill="#000000">grp_pullback_mon_unit</text>
</a>
</g>
</g>
<!-- GrpPullback_grp_pullback_rightinverse&#45;&gt;GrpPullback_grp_pullback_mon_unit -->
<g id="edge22" class="edge">
<title>GrpPullback_grp_pullback_rightinverse&#45;&gt;GrpPullback_grp_pullback_mon_unit</title>
<path fill="none" stroke="#000000" d="M1189.5982,-170.8555C1118.0569,-157.9884 1013.6641,-139.2127 940.1474,-125.9902"/>
<polygon fill="#000000" stroke="#000000" points="940.4471,-122.4881 929.9854,-124.1625 939.2079,-129.3775 940.4471,-122.4881"/>
</g>
<!-- GrpPullback_grp_pullback_sgop -->
<g id="node22" class="node">
<title>GrpPullback_grp_pullback_sgop</title>
<g id="a_node22"><a xlink:href="GrpPullback.html#grp_pullback_sgop" xlink:title="grp_pullback_sgop">
<ellipse fill="#f070d1" stroke="#000000" cx="714" cy="-35.3163" rx="98.5829" ry="18"/>
<text text-anchor="middle" x="714" y="-31.6163" font-family="Times,serif" font-size="14.00" fill="#000000">grp_pullback_sgop</text>
</a>
</g>
</g>
<!-- GrpPullback_grp_pullback_rightinverse&#45;&gt;GrpPullback_grp_pullback_sgop -->
<g id="edge23" class="edge">
<title>GrpPullback_grp_pullback_rightinverse&#45;&gt;GrpPullback_grp_pullback_sgop</title>
<path fill="none" stroke="#000000" d="M1271.5979,-167.2164C1272.3811,-145.8988 1270.0166,-111.0273 1249,-92.3163 1217.7029,-64.4525 967.4187,-47.6451 820.523,-40.0844"/>
<polygon fill="#000000" stroke="#000000" points="820.2945,-36.5684 810.1296,-39.556 819.939,-43.5594 820.2945,-36.5684"/>
</g>
<!-- GrpPullback_grp_pullback_leftinverse&#45;&gt;GrpPullback_grp_pullback_negate -->
<g id="edge24" class="edge">
<title>GrpPullback_grp_pullback_leftinverse&#45;&gt;GrpPullback_grp_pullback_negate</title>
<path fill="none" stroke="#000000" d="M1024.5893,-167.7321C1044.161,-157.1718 1069.2341,-143.6432 1090.1256,-132.3708"/>
<polygon fill="#000000" stroke="#000000" points="1091.9556,-135.3604 1099.0942,-127.5316 1088.6316,-129.2 1091.9556,-135.3604"/>
</g>
<!-- GrpPullback_grp_pullback_leftinverse&#45;&gt;GrpPullback_grp_pullback_mon_unit -->
<g id="edge25" class="edge">
<title>GrpPullback_grp_pullback_leftinverse&#45;&gt;GrpPullback_grp_pullback_mon_unit</title>
<path fill="none" stroke="#000000" d="M959.4107,-167.7321C939.9788,-157.2473 915.1238,-143.8363 894.3227,-132.6127"/>
<polygon fill="#000000" stroke="#000000" points="895.8478,-129.4586 885.3851,-127.7903 892.5238,-135.6191 895.8478,-129.4586"/>
</g>
<!-- GrpPullback_grp_pullback_leftinverse&#45;&gt;GrpPullback_grp_pullback_sgop -->
<g id="edge26" class="edge">
<title>GrpPullback_grp_pullback_leftinverse&#45;&gt;GrpPullback_grp_pullback_sgop</title>
<path fill="none" stroke="#000000" d="M995.7468,-167.0832C998.8726,-146.2921 1000.2778,-112.5695 982,-92.3163 959.4543,-67.3338 879.967,-52.555 813.3662,-44.3322"/>
<polygon fill="#000000" stroke="#000000" points="813.566,-40.8311 803.2207,-43.1171 812.7335,-47.7815 813.566,-40.8311"/>
</g>
<!-- GrpPullback_grp_pullback_rightidentity -->
<g id="node17" class="node">
<title>GrpPullback_grp_pullback_rightidentity</title>
<g id="a_node17"><a xlink:href="GrpPullback.html#grp_pullback_rightidentity" xlink:title="grp_pullback_rightidentity">
<ellipse fill="#f070d1" stroke="#000000" cx="438" cy="-185.3163" rx="135.6761" ry="18"/>
<text text-anchor="middle" x="438" y="-181.6163" font-family="Times,serif" font-size="14.00" fill="#000000">grp_pullback_rightidentity</text>
</a>
</g>
</g>
<!-- GrpPullback_ismonoid_grp_pullback&#45;&gt;GrpPullback_grp_pullback_rightidentity -->
<g id="edge27" class="edge">
<title>GrpPullback_ismonoid_grp_pullback&#45;&gt;GrpPullback_grp_pullback_rightidentity</title>
<path fill="none" stroke="#000000" d="M653.4373,-244.5023C610.7349,-232.7709 552.3289,-216.7253 507.1017,-204.3002"/>
<polygon fill="#000000" stroke="#000000" points="507.9403,-200.901 497.3704,-201.6268 506.0859,-207.6509 507.9403,-200.901"/>
</g>
<!-- GrpPullback_grp_pullback_leftidentity -->
<g id="node18" class="node">
<title>GrpPullback_grp_pullback_leftidentity</title>
<g id="a_node18"><a xlink:href="GrpPullback.html#grp_pullback_leftidentity" xlink:title="grp_pullback_leftidentity">
<ellipse fill="#f070d1" stroke="#000000" cx="720" cy="-185.3163" rx="128.0773" ry="18"/>
<text text-anchor="middle" x="720" y="-181.6163" font-family="Times,serif" font-size="14.00" fill="#000000">grp_pullback_leftidentity</text>
</a>
</g>
</g>
<!-- GrpPullback_ismonoid_grp_pullback&#45;&gt;GrpPullback_grp_pullback_leftidentity -->
<g id="edge28" class="edge">
<title>GrpPullback_ismonoid_grp_pullback&#45;&gt;GrpPullback_grp_pullback_leftidentity</title>
<path fill="none" stroke="#000000" d="M713.1786,-242.1608C714.2102,-233.5649 715.4658,-223.1014 716.6172,-213.5061"/>
<polygon fill="#000000" stroke="#000000" points="720.0937,-213.9102 717.8102,-203.5644 713.1436,-213.0761 720.0937,-213.9102"/>
</g>
<!-- GrpPullback_grp_pullback_issemigroup -->
<g id="node20" class="node">
<title>GrpPullback_grp_pullback_issemigroup</title>
<g id="a_node20"><a xlink:href="GrpPullback.html#grp_pullback_issemigroup" xlink:title="grp_pullback_issemigroup">
<ellipse fill="#f070d1" stroke="#000000" cx="150" cy="-185.3163" rx="133.7763" ry="18"/>
<text text-anchor="middle" x="150" y="-181.6163" font-family="Times,serif" font-size="14.00" fill="#000000">grp_pullback_issemigroup</text>
</a>
</g>
</g>
<!-- GrpPullback_ismonoid_grp_pullback&#45;&gt;GrpPullback_grp_pullback_issemigroup -->
<g id="edge29" class="edge">
<title>GrpPullback_ismonoid_grp_pullback&#45;&gt;GrpPullback_grp_pullback_issemigroup</title>
<path fill="none" stroke="#000000" d="M622.1079,-248.4323C522.4398,-235.1077 360.9478,-213.5178 255.1047,-199.3677"/>
<polygon fill="#000000" stroke="#000000" points="255.4151,-195.8781 245.0395,-198.0221 254.4875,-202.8164 255.4151,-195.8781"/>
</g>
<!-- GrpPullback_grp_pullback_rightidentity&#45;&gt;GrpPullback_grp_pullback_mon_unit -->
<g id="edge30" class="edge">
<title>GrpPullback_grp_pullback_rightidentity&#45;&gt;GrpPullback_grp_pullback_mon_unit</title>
<path fill="none" stroke="#000000" d="M518.5082,-170.7666C589.6471,-157.9102 693.143,-139.2061 766.1312,-126.0154"/>
<polygon fill="#000000" stroke="#000000" points="767.003,-129.4147 776.2211,-124.192 765.7581,-122.5262 767.003,-129.4147"/>
</g>
<!-- GrpPullback_grp_pullback_rightidentity&#45;&gt;GrpPullback_grp_pullback_sgop -->
<g id="edge31" class="edge">
<title>GrpPullback_grp_pullback_rightidentity&#45;&gt;GrpPullback_grp_pullback_sgop</title>
<path fill="none" stroke="#000000" d="M470.2009,-167.8158C520.7134,-140.3633 618.489,-87.2244 673.6312,-57.2558"/>
<polygon fill="#000000" stroke="#000000" points="675.3137,-60.325 682.4286,-52.4746 671.971,-54.1746 675.3137,-60.325"/>
</g>
<!-- GrpPullback_grp_pullback_leftidentity&#45;&gt;GrpPullback_grp_pullback_mon_unit -->
<g id="edge32" class="edge">
<title>GrpPullback_grp_pullback_leftidentity&#45;&gt;GrpPullback_grp_pullback_mon_unit</title>
<path fill="none" stroke="#000000" d="M751.1826,-167.7321C769.6923,-157.2943 793.3446,-143.9565 813.1931,-132.7638"/>
<polygon fill="#000000" stroke="#000000" points="815.0215,-135.7509 822.0128,-127.7903 811.5831,-129.6536 815.0215,-135.7509"/>
</g>
<!-- GrpPullback_grp_pullback_leftidentity&#45;&gt;GrpPullback_grp_pullback_sgop -->
<g id="edge33" class="edge">
<title>GrpPullback_grp_pullback_leftidentity&#45;&gt;GrpPullback_grp_pullback_sgop</title>
<path fill="none" stroke="#000000" d="M719.2763,-167.2227C718.2492,-141.5454 716.3585,-94.2797 715.1414,-63.8514"/>
<polygon fill="#000000" stroke="#000000" points="718.6233,-63.326 714.7263,-53.4739 711.6289,-63.6059 718.6233,-63.326"/>
</g>
<!-- GrpPullback_grp_pullback_sgop_associative -->
<g id="node21" class="node">
<title>GrpPullback_grp_pullback_sgop_associative</title>
<g id="a_node21"><a xlink:href="GrpPullback.html#grp_pullback_sgop_associative" xlink:title="grp_pullback_sgop_associative">
<ellipse fill="#f070d1" stroke="#000000" cx="259" cy="-110.3163" rx="155.1726" ry="18"/>
<text text-anchor="middle" x="259" y="-106.6163" font-family="Times,serif" font-size="14.00" fill="#000000">grp_pullback_sgop_associative</text>
</a>
</g>
</g>
<!-- GrpPullback_grp_pullback_issemigroup&#45;&gt;GrpPullback_grp_pullback_sgop_associative -->
<g id="edge34" class="edge">
<title>GrpPullback_grp_pullback_issemigroup&#45;&gt;GrpPullback_grp_pullback_sgop_associative</title>
<path fill="none" stroke="#000000" d="M175.8315,-167.5423C190.3858,-157.5279 208.7534,-144.8896 224.5232,-134.0388"/>
<polygon fill="#000000" stroke="#000000" points="226.722,-136.7745 232.9762,-128.2225 222.754,-131.0077 226.722,-136.7745"/>
</g>
<!-- GrpPullback_grp_pullback_sgop_associative&#45;&gt;GrpPullback_grp_pullback_sgop -->
<g id="edge35" class="edge">
<title>GrpPullback_grp_pullback_sgop_associative&#45;&gt;GrpPullback_grp_pullback_sgop</title>
<path fill="none" stroke="#000000" d="M348.3505,-95.5882C430.2531,-82.0877 550.6019,-62.25 630.5798,-49.0668"/>
<polygon fill="#000000" stroke="#000000" points="631.3165,-52.4927 640.6141,-47.4128 630.1779,-45.5859 631.3165,-52.4927"/>
</g>
</g>
</svg>
