<?xml version="1.0" encoding="UTF-8" standalone="no"?>
<!DOCTYPE svg PUBLIC "-//W3C//DTD SVG 1.1//EN"
 "http://www.w3.org/Graphics/SVG/1.1/DTD/svg11.dtd">
<!-- Generated by graphviz version 2.40.1 (20161225.0304)
 -->
<!-- Title: HoTT_Algebra_AbGroups_AbSES_BaerSum Pages: 1 -->
<svg width="510pt" height="259pt"
 viewBox="0.00 0.00 510.00 259.00" xmlns="http://www.w3.org/2000/svg" xmlns:xlink="http://www.w3.org/1999/xlink">
<g id="graph0" class="graph" transform="scale(1 1) rotate(0) translate(4 255)">
<title>HoTT_Algebra_AbGroups_AbSES_BaerSum</title>
<polygon fill="#ffffff" stroke="transparent" points="-4,4 -4,-255 506,-255 506,4 -4,4"/>
<g id="clust1" class="cluster">
<title>cluster_BaerSum</title>
<polygon fill="#ffffc3" stroke="#000000" points="18.0901,-8 18.0901,-243 483.9099,-243 483.9099,-8 18.0901,-8"/>
<text text-anchor="middle" x="59.5901" y="-227.8" font-family="Times,serif" font-size="14.00" fill="#000000">BaerSum</text>
</g>
<!-- BaerSum_abses_baer_sum -->
<g id="node1" class="node">
<title>BaerSum_abses_baer_sum</title>
<g id="a_node1"><a xlink:href="BaerSum.html#abses_baer_sum" xlink:title="abses_baer_sum">
<ellipse fill="#f070d1" stroke="#000000" cx="251.4775" cy="-186" rx="87.1769" ry="18"/>
<ellipse fill="none" stroke="#000000" cx="251.4775" cy="-186" rx="91.1807" ry="22"/>
<ellipse fill="none" stroke="#000000" cx="251.4775" cy="-186" rx="95.1846" ry="26"/>
<text text-anchor="middle" x="251.4775" y="-182.3" font-family="Times,serif" font-size="14.00" fill="#000000">abses_baer_sum</text>
</a>
</g>
</g>
<!-- BaerSum_abses_direct_sum -->
<g id="node2" class="node">
<title>BaerSum_abses_direct_sum</title>
<g id="a_node2"><a xlink:href="BaerSum.html#abses_direct_sum" xlink:title="abses_direct_sum">
<ellipse fill="#f070d1" stroke="#000000" cx="251.4775" cy="-106" rx="94.4839" ry="18"/>
<text text-anchor="middle" x="251.4775" y="-102.3" font-family="Times,serif" font-size="14.00" fill="#000000">abses_direct_sum</text>
</a>
</g>
</g>
<!-- BaerSum_abses_baer_sum&#45;&gt;BaerSum_abses_direct_sum -->
<g id="edge1" class="edge">
<title>BaerSum_abses_baer_sum&#45;&gt;BaerSum_abses_direct_sum</title>
<path fill="none" stroke="#000000" d="M251.4775,-159.805C251.4775,-151.6026 251.4775,-142.5174 251.4775,-134.1839"/>
<polygon fill="#000000" stroke="#000000" points="254.9776,-134.1532 251.4775,-124.1532 247.9776,-134.1533 254.9776,-134.1532"/>
</g>
<!-- BaerSum_ab_biprod_exact -->
<g id="node3" class="node">
<title>BaerSum_ab_biprod_exact</title>
<g id="a_node3"><a xlink:href="BaerSum.html#ab_biprod_exact" xlink:title="ab_biprod_exact">
<ellipse fill="#f070d1" stroke="#000000" cx="251.4775" cy="-34" rx="87.1846" ry="18"/>
<text text-anchor="middle" x="251.4775" y="-30.3" font-family="Times,serif" font-size="14.00" fill="#000000">ab_biprod_exact</text>
</a>
</g>
</g>
<!-- BaerSum_abses_direct_sum&#45;&gt;BaerSum_ab_biprod_exact -->
<g id="edge2" class="edge">
<title>BaerSum_abses_direct_sum&#45;&gt;BaerSum_ab_biprod_exact</title>
<path fill="none" stroke="#000000" d="M251.4775,-87.8314C251.4775,-80.131 251.4775,-70.9743 251.4775,-62.4166"/>
<polygon fill="#000000" stroke="#000000" points="254.9776,-62.4132 251.4775,-52.4133 247.9776,-62.4133 254.9776,-62.4132"/>
</g>
</g>
</svg>
