<?xml version="1.0" encoding="UTF-8" standalone="no"?>
<!DOCTYPE svg PUBLIC "-//W3C//DTD SVG 1.1//EN"
 "http://www.w3.org/Graphics/SVG/1.1/DTD/svg11.dtd">
<!-- Generated by graphviz version 2.40.1 (20161225.0304)
 -->
<!-- Title: HoTT_Modalities_Fracture Pages: 1 -->
<svg width="1381pt" height="695pt"
 viewBox="0.00 0.00 1381.00 694.50" xmlns="http://www.w3.org/2000/svg" xmlns:xlink="http://www.w3.org/1999/xlink">
<g id="graph0" class="graph" transform="scale(1 1) rotate(0) translate(4 690.5)">
<title>HoTT_Modalities_Fracture</title>
<polygon fill="#ffffff" stroke="transparent" points="-4,4 -4,-690.5 1377,-690.5 1377,4 -4,4"/>
<g id="clust1" class="cluster">
<title>cluster_Fracture</title>
<polygon fill="#ffffc3" stroke="#000000" points="8,-12.8618 8,-673.6382 1365,-673.6382 1365,-12.8618 8,-12.8618"/>
<text text-anchor="middle" x="48" y="-658.4382" font-family="Times,serif" font-size="14.00" fill="#000000">Fracture</text>
</g>
<!-- Fracture_disjoint_open_closed_ -->
<g id="node1" class="node">
<title>Fracture_disjoint_open_closed_</title>
<g id="a_node1"><a xlink:href="Fracture.html#disjoint_open_closed'" xlink:title="disjoint_open_closed&#39;">
<ellipse fill="#f070d1" stroke="#000000" cx="1136" cy="-324.8618" rx="109.6916" ry="18"/>
<ellipse fill="none" stroke="#000000" cx="1136" cy="-324.8618" rx="113.6861" ry="22"/>
<ellipse fill="none" stroke="#000000" cx="1136" cy="-324.8618" rx="117.6807" ry="26"/>
<text text-anchor="middle" x="1136" y="-321.1618" font-family="Times,serif" font-size="14.00" fill="#000000">disjoint_open_closed&#39;</text>
</a>
</g>
</g>
<!-- Fracture_Disjoint -->
<g id="node12" class="node">
<title>Fracture_Disjoint</title>
<g id="a_node12"><a xlink:href="Fracture.html#Disjoint" xlink:title="Disjoint">
<ellipse fill="#f070d1" stroke="#000000" cx="811" cy="-182.8618" rx="46.5926" ry="18"/>
<text text-anchor="middle" x="811" y="-179.1618" font-family="Times,serif" font-size="14.00" fill="#000000">Disjoint</text>
</a>
</g>
</g>
<!-- Fracture_disjoint_open_closed_&#45;&gt;Fracture_Disjoint -->
<g id="edge1" class="edge">
<title>Fracture_disjoint_open_closed_&#45;&gt;Fracture_Disjoint</title>
<path fill="none" stroke="#000000" d="M1080.6749,-301.7758C1025.9206,-278.7674 939.8298,-242.1594 866,-208.8618 860.634,-206.4417 854.9975,-203.843 849.4627,-201.2582"/>
<polygon fill="#000000" stroke="#000000" points="850.8486,-198.0423 840.3097,-196.9552 847.8705,-204.3772 850.8486,-198.0423"/>
</g>
<!-- Fracture_gluable_open_closed_ -->
<g id="node2" class="node">
<title>Fracture_gluable_open_closed_</title>
<g id="a_node2"><a xlink:href="Fracture.html#gluable_open_closed'" xlink:title="gluable_open_closed&#39;">
<ellipse fill="#f070d1" stroke="#000000" cx="1240" cy="-182.8618" rx="109.3679" ry="18"/>
<ellipse fill="none" stroke="#000000" cx="1240" cy="-182.8618" rx="113.3744" ry="22"/>
<ellipse fill="none" stroke="#000000" cx="1240" cy="-182.8618" rx="117.3809" ry="26"/>
<text text-anchor="middle" x="1240" y="-179.1618" font-family="Times,serif" font-size="14.00" fill="#000000">gluable_open_closed&#39;</text>
</a>
</g>
</g>
<!-- Fracture_Gluable -->
<g id="node14" class="node">
<title>Fracture_Gluable</title>
<g id="a_node14"><a xlink:href="Fracture.html#Gluable" xlink:title="Gluable">
<ellipse fill="#f070d1" stroke="#000000" cx="990" cy="-54.8618" rx="46.2923" ry="18"/>
<text text-anchor="middle" x="990" y="-51.1618" font-family="Times,serif" font-size="14.00" fill="#000000">Gluable</text>
</a>
</g>
</g>
<!-- Fracture_gluable_open_closed_&#45;&gt;Fracture_Gluable -->
<g id="edge2" class="edge">
<title>Fracture_gluable_open_closed_&#45;&gt;Fracture_Gluable</title>
<path fill="none" stroke="#000000" d="M1193.2702,-158.9362C1145.2435,-134.3465 1071.4228,-96.5503 1027.2057,-73.9111"/>
<polygon fill="#000000" stroke="#000000" points="1028.7358,-70.7625 1018.2395,-69.3205 1025.5456,-76.9933 1028.7358,-70.7625"/>
</g>
<!-- Fracture_disjoint_open_closed -->
<g id="node3" class="node">
<title>Fracture_disjoint_open_closed</title>
<g id="a_node3"><a xlink:href="Fracture.html#disjoint_open_closed" xlink:title="disjoint_open_closed">
<ellipse fill="#f070d1" stroke="#000000" cx="885" cy="-324.8618" rx="107.4647" ry="18"/>
<ellipse fill="none" stroke="#000000" cx="885" cy="-324.8618" rx="111.4731" ry="22"/>
<ellipse fill="none" stroke="#000000" cx="885" cy="-324.8618" rx="115.4815" ry="26"/>
<text text-anchor="middle" x="885" y="-321.1618" font-family="Times,serif" font-size="14.00" fill="#000000">disjoint_open_closed</text>
</a>
</g>
</g>
<!-- Fracture_disjoint_open_closed&#45;&gt;Fracture_Disjoint -->
<g id="edge3" class="edge">
<title>Fracture_disjoint_open_closed&#45;&gt;Fracture_Disjoint</title>
<path fill="none" stroke="#000000" d="M871.4273,-298.8168C858.2559,-273.542 838.3558,-235.3554 825.031,-209.7862"/>
<polygon fill="#000000" stroke="#000000" points="827.9991,-207.9082 820.2739,-200.6576 821.7915,-211.1432 827.9991,-207.9082"/>
</g>
<!-- Fracture_gluable_open_closed -->
<g id="node4" class="node">
<title>Fracture_gluable_open_closed</title>
<g id="a_node4"><a xlink:href="Fracture.html#gluable_open_closed" xlink:title="gluable_open_closed">
<ellipse fill="#f070d1" stroke="#000000" cx="990" cy="-182.8618" rx="106.6748" ry="18"/>
<ellipse fill="none" stroke="#000000" cx="990" cy="-182.8618" rx="110.678" ry="22"/>
<ellipse fill="none" stroke="#000000" cx="990" cy="-182.8618" rx="114.6812" ry="26"/>
<text text-anchor="middle" x="990" y="-179.1618" font-family="Times,serif" font-size="14.00" fill="#000000">gluable_open_closed</text>
</a>
</g>
</g>
<!-- Fracture_gluable_open_closed&#45;&gt;Fracture_Gluable -->
<g id="edge4" class="edge">
<title>Fracture_gluable_open_closed&#45;&gt;Fracture_Gluable</title>
<path fill="none" stroke="#000000" d="M990,-156.6502C990,-135.2794 990,-105.1505 990,-83.2195"/>
<polygon fill="#000000" stroke="#000000" points="993.5001,-83.1862 990,-73.1862 986.5001,-83.1863 993.5001,-83.1862"/>
</g>
<!-- Fracture_equiv_fracture_unglue -->
<g id="node5" class="node">
<title>Fracture_equiv_fracture_unglue</title>
<g id="a_node5"><a xlink:href="Fracture.html#equiv_fracture_unglue" xlink:title="equiv_fracture_unglue">
<ellipse fill="#f070d1" stroke="#000000" cx="509" cy="-581.8618" rx="115.8675" ry="18"/>
<ellipse fill="none" stroke="#000000" cx="509" cy="-581.8618" rx="119.8736" ry="22"/>
<ellipse fill="none" stroke="#000000" cx="509" cy="-581.8618" rx="123.8798" ry="26"/>
<text text-anchor="middle" x="509" y="-578.1618" font-family="Times,serif" font-size="14.00" fill="#000000">equiv_fracture_unglue</text>
</a>
</g>
</g>
<!-- Fracture_isequiv_fracture_unglue -->
<g id="node6" class="node">
<title>Fracture_isequiv_fracture_unglue</title>
<g id="a_node6"><a xlink:href="Fracture.html#isequiv_fracture_unglue" xlink:title="isequiv_fracture_unglue">
<ellipse fill="#f070d1" stroke="#000000" cx="509" cy="-453.8618" rx="123.4781" ry="18"/>
<text text-anchor="middle" x="509" y="-450.1618" font-family="Times,serif" font-size="14.00" fill="#000000">isequiv_fracture_unglue</text>
</a>
</g>
</g>
<!-- Fracture_equiv_fracture_unglue&#45;&gt;Fracture_isequiv_fracture_unglue -->
<g id="edge5" class="edge">
<title>Fracture_equiv_fracture_unglue&#45;&gt;Fracture_isequiv_fracture_unglue</title>
<path fill="none" stroke="#000000" d="M509,-555.6502C509,-534.2794 509,-504.1505 509,-482.2195"/>
<polygon fill="#000000" stroke="#000000" points="512.5001,-482.1862 509,-472.1862 505.5001,-482.1863 512.5001,-482.1862"/>
</g>
<!-- Fracture_fracture_unglue_issect -->
<g id="node7" class="node">
<title>Fracture_fracture_unglue_issect</title>
<g id="a_node7"><a xlink:href="Fracture.html#fracture_unglue_issect" xlink:title="fracture_unglue_issect">
<ellipse fill="#f070d1" stroke="#000000" cx="383" cy="-324.8618" rx="117.7793" ry="18"/>
<text text-anchor="middle" x="383" y="-321.1618" font-family="Times,serif" font-size="14.00" fill="#000000">fracture_unglue_issect</text>
</a>
</g>
</g>
<!-- Fracture_isequiv_fracture_unglue&#45;&gt;Fracture_fracture_unglue_issect -->
<g id="edge6" class="edge">
<title>Fracture_isequiv_fracture_unglue&#45;&gt;Fracture_fracture_unglue_issect</title>
<path fill="none" stroke="#000000" d="M491.4802,-435.9249C469.787,-413.7151 432.6886,-375.7335 408.0074,-350.4646"/>
<polygon fill="#000000" stroke="#000000" points="410.2684,-347.7704 400.7772,-343.0622 405.2608,-352.6616 410.2684,-347.7704"/>
</g>
<!-- Fracture_fracture_unglue_isretr -->
<g id="node8" class="node">
<title>Fracture_fracture_unglue_isretr</title>
<g id="a_node8"><a xlink:href="Fracture.html#fracture_unglue_isretr" xlink:title="fracture_unglue_isretr">
<ellipse fill="#f070d1" stroke="#000000" cx="635" cy="-324.8618" rx="116.1796" ry="18"/>
<text text-anchor="middle" x="635" y="-321.1618" font-family="Times,serif" font-size="14.00" fill="#000000">fracture_unglue_isretr</text>
</a>
</g>
</g>
<!-- Fracture_isequiv_fracture_unglue&#45;&gt;Fracture_fracture_unglue_isretr -->
<g id="edge7" class="edge">
<title>Fracture_isequiv_fracture_unglue&#45;&gt;Fracture_fracture_unglue_isretr</title>
<path fill="none" stroke="#000000" d="M526.5198,-435.9249C548.213,-413.7151 585.3114,-375.7335 609.9926,-350.4646"/>
<polygon fill="#000000" stroke="#000000" points="612.7392,-352.6616 617.2228,-343.0622 607.7316,-347.7704 612.7392,-352.6616"/>
</g>
<!-- Fracture_fracture_unglue -->
<g id="node9" class="node">
<title>Fracture_fracture_unglue</title>
<g id="a_node9"><a xlink:href="Fracture.html#fracture_unglue" xlink:title="fracture_unglue">
<ellipse fill="#f070d1" stroke="#000000" cx="661" cy="-182.8618" rx="85.2851" ry="18"/>
<text text-anchor="middle" x="661" y="-179.1618" font-family="Times,serif" font-size="14.00" fill="#000000">fracture_unglue</text>
</a>
</g>
</g>
<!-- Fracture_fracture_unglue_issect&#45;&gt;Fracture_fracture_unglue -->
<g id="edge8" class="edge">
<title>Fracture_fracture_unglue_issect&#45;&gt;Fracture_fracture_unglue</title>
<path fill="none" stroke="#000000" d="M416.8103,-307.5918C467.6957,-281.6 563.8745,-232.4727 619.1247,-204.2514"/>
<polygon fill="#000000" stroke="#000000" points="620.9726,-207.2377 628.286,-199.5719 617.7883,-201.0039 620.9726,-207.2377"/>
</g>
<!-- Fracture_fracture_glue_uncurried -->
<g id="node11" class="node">
<title>Fracture_fracture_glue_uncurried</title>
<g id="a_node11"><a xlink:href="Fracture.html#fracture_glue_uncurried" xlink:title="fracture_glue_uncurried">
<ellipse fill="#f070d1" stroke="#000000" cx="140" cy="-182.8618" rx="124.2781" ry="18"/>
<text text-anchor="middle" x="140" y="-179.1618" font-family="Times,serif" font-size="14.00" fill="#000000">fracture_glue_uncurried</text>
</a>
</g>
</g>
<!-- Fracture_fracture_unglue_issect&#45;&gt;Fracture_fracture_glue_uncurried -->
<g id="edge9" class="edge">
<title>Fracture_fracture_unglue_issect&#45;&gt;Fracture_fracture_glue_uncurried</title>
<path fill="none" stroke="#000000" d="M352.7152,-307.1645C308.7303,-281.4614 227.1604,-233.7951 178.8171,-205.5451"/>
<polygon fill="#000000" stroke="#000000" points="180.3029,-202.3596 169.9031,-200.3361 176.7712,-208.4033 180.3029,-202.3596"/>
</g>
<!-- Fracture_ispullback_fracture_square -->
<g id="node13" class="node">
<title>Fracture_ispullback_fracture_square</title>
<g id="a_node13"><a xlink:href="Fracture.html#ispullback_fracture_square" xlink:title="ispullback_fracture_square">
<ellipse fill="#f070d1" stroke="#000000" cx="420" cy="-182.8618" rx="137.5759" ry="18"/>
<text text-anchor="middle" x="420" y="-179.1618" font-family="Times,serif" font-size="14.00" fill="#000000">ispullback_fracture_square</text>
</a>
</g>
</g>
<!-- Fracture_fracture_unglue_issect&#45;&gt;Fracture_ispullback_fracture_square -->
<g id="edge10" class="edge">
<title>Fracture_fracture_unglue_issect&#45;&gt;Fracture_ispullback_fracture_square</title>
<path fill="none" stroke="#000000" d="M387.7614,-306.5885C394.0888,-282.3049 405.3284,-239.1691 412.7228,-210.7904"/>
<polygon fill="#000000" stroke="#000000" points="416.1223,-211.6244 415.2569,-201.065 409.3485,-209.8594 416.1223,-211.6244"/>
</g>
<!-- Fracture_fracture_unglue_isretr&#45;&gt;Fracture_fracture_unglue -->
<g id="edge11" class="edge">
<title>Fracture_fracture_unglue_isretr&#45;&gt;Fracture_fracture_unglue</title>
<path fill="none" stroke="#000000" d="M638.3458,-306.5885C642.7726,-282.4114 650.621,-239.5471 655.8178,-211.1646"/>
<polygon fill="#000000" stroke="#000000" points="659.3087,-211.5319 657.667,-201.065 652.4231,-210.2711 659.3087,-211.5319"/>
</g>
<!-- Fracture_fracture_unglue_isretr&#45;&gt;Fracture_fracture_glue_uncurried -->
<g id="edge12" class="edge">
<title>Fracture_fracture_unglue_isretr&#45;&gt;Fracture_fracture_glue_uncurried</title>
<path fill="none" stroke="#000000" d="M579.6581,-308.986C487.8276,-282.6427 304.3521,-230.0093 205.9528,-201.7816"/>
<polygon fill="#000000" stroke="#000000" points="206.7004,-198.355 196.1229,-198.9617 204.7701,-205.0836 206.7004,-198.355"/>
</g>
<!-- Fracture_fracture_unglue_isretr&#45;&gt;Fracture_Disjoint -->
<g id="edge13" class="edge">
<title>Fracture_fracture_unglue_isretr&#45;&gt;Fracture_Disjoint</title>
<path fill="none" stroke="#000000" d="M656.9347,-307.1645C688.755,-281.4913 747.734,-233.906 782.7632,-205.6438"/>
<polygon fill="#000000" stroke="#000000" points="785.1148,-208.2436 790.6998,-199.2404 780.7193,-202.7957 785.1148,-208.2436"/>
</g>
<!-- Fracture_fracture_glue -->
<g id="node10" class="node">
<title>Fracture_fracture_glue</title>
<g id="a_node10"><a xlink:href="Fracture.html#fracture_glue" xlink:title="fracture_glue">
<ellipse fill="#f070d1" stroke="#000000" cx="140" cy="-324.8618" rx="73.3926" ry="18"/>
<ellipse fill="none" stroke="#000000" cx="140" cy="-324.8618" rx="77.3898" ry="22"/>
<ellipse fill="none" stroke="#000000" cx="140" cy="-324.8618" rx="81.387" ry="26"/>
<text text-anchor="middle" x="140" y="-321.1618" font-family="Times,serif" font-size="14.00" fill="#000000">fracture_glue</text>
</a>
</g>
</g>
<!-- Fracture_fracture_glue&#45;&gt;Fracture_fracture_glue_uncurried -->
<g id="edge14" class="edge">
<title>Fracture_fracture_glue&#45;&gt;Fracture_fracture_glue_uncurried</title>
<path fill="none" stroke="#000000" d="M140,-298.8168C140,-274.0162 140,-236.7836 140,-211.2384"/>
<polygon fill="#000000" stroke="#000000" points="143.5001,-211.0763 140,-201.0763 136.5001,-211.0763 143.5001,-211.0763"/>
</g>
<!-- Fracture_ispullback_fracture_square&#45;&gt;Fracture_Gluable -->
<g id="edge15" class="edge">
<title>Fracture_ispullback_fracture_square&#45;&gt;Fracture_Gluable</title>
<path fill="none" stroke="#000000" d="M489.3233,-167.2945C605.7805,-141.1427 837.9422,-89.0081 939.955,-66.1"/>
<polygon fill="#000000" stroke="#000000" points="941.0048,-69.4515 949.9949,-63.8454 939.471,-62.6216 941.0048,-69.4515"/>
</g>
<!-- Fracture_fracture_square -->
<g id="node15" class="node">
<title>Fracture_fracture_square</title>
<g id="a_node15"><a xlink:href="Fracture.html#fracture_square" xlink:title="fracture_square">
<ellipse fill="#f070d1" stroke="#000000" cx="420" cy="-54.8618" rx="85.2851" ry="18"/>
<text text-anchor="middle" x="420" y="-51.1618" font-family="Times,serif" font-size="14.00" fill="#000000">fracture_square</text>
</a>
</g>
</g>
<!-- Fracture_ispullback_fracture_square&#45;&gt;Fracture_fracture_square -->
<g id="edge16" class="edge">
<title>Fracture_ispullback_fracture_square&#45;&gt;Fracture_fracture_square</title>
<path fill="none" stroke="#000000" d="M420,-164.794C420,-143.6637 420,-108.4147 420,-83.5362"/>
<polygon fill="#000000" stroke="#000000" points="423.5001,-83.2521 420,-73.2522 416.5001,-83.2522 423.5001,-83.2521"/>
</g>
</g>
</svg>
