<?xml version="1.0" encoding="UTF-8" standalone="no"?>
<!DOCTYPE svg PUBLIC "-//W3C//DTD SVG 1.1//EN"
 "http://www.w3.org/Graphics/SVG/1.1/DTD/svg11.dtd">
<!-- Generated by graphviz version 2.40.1 (20161225.0304)
 -->
<!-- Title: HoTT_WildCat_Yoneda Pages: 1 -->
<svg width="1759pt" height="884pt"
 viewBox="0.00 0.00 1759.00 883.50" xmlns="http://www.w3.org/2000/svg" xmlns:xlink="http://www.w3.org/1999/xlink">
<g id="graph0" class="graph" transform="scale(1 1) rotate(0) translate(4 879.5)">
<title>HoTT_WildCat_Yoneda</title>
<polygon fill="#ffffff" stroke="transparent" points="-4,4 -4,-879.5 1755,-879.5 1755,4 -4,4"/>
<g id="clust1" class="cluster">
<title>cluster_Yoneda</title>
<polygon fill="#ffffc3" stroke="#000000" points="8,-16.4028 8,-859.0972 1743,-859.0972 1743,-16.4028 8,-16.4028"/>
<text text-anchor="middle" x="42" y="-843.8972" font-family="Times,serif" font-size="14.00" fill="#000000">Yoneda</text>
</g>
<!-- Yoneda_natequiv_yon_equiv -->
<g id="node1" class="node">
<title>Yoneda_natequiv_yon_equiv</title>
<g id="a_node1"><a xlink:href="Yoneda.html#natequiv_yon_equiv" xlink:title="natequiv_yon_equiv">
<ellipse fill="#f070d1" stroke="#000000" cx="1403" cy="-742.4028" rx="102.8683" ry="18"/>
<ellipse fill="none" stroke="#000000" cx="1403" cy="-742.4028" rx="106.8752" ry="22"/>
<ellipse fill="none" stroke="#000000" cx="1403" cy="-742.4028" rx="110.8821" ry="26"/>
<text text-anchor="middle" x="1403" y="-738.7028" font-family="Times,serif" font-size="14.00" fill="#000000">natequiv_yon_equiv</text>
</a>
</g>
</g>
<!-- Yoneda_yon1 -->
<g id="node4" class="node">
<title>Yoneda_yon1</title>
<g id="a_node4"><a xlink:href="Yoneda.html#yon1" xlink:title="yon1">
<ellipse fill="#f070d1" stroke="#000000" cx="1546" cy="-561.4028" rx="33.2948" ry="18"/>
<text text-anchor="middle" x="1546" y="-557.7028" font-family="Times,serif" font-size="14.00" fill="#000000">yon1</text>
</a>
</g>
</g>
<!-- Yoneda_natequiv_yon_equiv&#45;&gt;Yoneda_yon1 -->
<g id="edge1" class="edge">
<title>Yoneda_natequiv_yon_equiv&#45;&gt;Yoneda_yon1</title>
<path fill="none" stroke="#000000" d="M1423.4884,-716.4699C1450.9695,-681.6861 1499.4289,-620.3494 1526.4321,-586.1706"/>
<polygon fill="#000000" stroke="#000000" points="1529.3562,-588.1152 1532.8092,-578.0989 1523.8636,-583.7757 1529.3562,-588.1152"/>
</g>
<!-- Yoneda_natequiv_opyon_equiv -->
<g id="node14" class="node">
<title>Yoneda_natequiv_opyon_equiv</title>
<g id="a_node14"><a xlink:href="Yoneda.html#natequiv_opyon_equiv" xlink:title="natequiv_opyon_equiv">
<ellipse fill="#f070d1" stroke="#000000" cx="1380" cy="-561.4028" rx="114.2798" ry="18"/>
<text text-anchor="middle" x="1380" y="-557.7028" font-family="Times,serif" font-size="14.00" fill="#000000">natequiv_opyon_equiv</text>
</a>
</g>
</g>
<!-- Yoneda_natequiv_yon_equiv&#45;&gt;Yoneda_natequiv_opyon_equiv -->
<g id="edge2" class="edge">
<title>Yoneda_natequiv_yon_equiv&#45;&gt;Yoneda_natequiv_opyon_equiv</title>
<path fill="none" stroke="#000000" d="M1399.6556,-716.0839C1395.3835,-682.4646 1388.0178,-624.4996 1383.6182,-589.8766"/>
<polygon fill="#000000" stroke="#000000" points="1387.0344,-588.995 1382.3017,-579.516 1380.0903,-589.8774 1387.0344,-588.995"/>
</g>
<!-- Yoneda_yon_equiv -->
<g id="node2" class="node">
<title>Yoneda_yon_equiv</title>
<g id="a_node2"><a xlink:href="Yoneda.html#yon_equiv" xlink:title="yon_equiv">
<ellipse fill="#f070d1" stroke="#000000" cx="1643" cy="-742.4028" rx="57.7089" ry="18"/>
<ellipse fill="none" stroke="#000000" cx="1643" cy="-742.4028" rx="61.6995" ry="22"/>
<ellipse fill="none" stroke="#000000" cx="1643" cy="-742.4028" rx="65.6901" ry="26"/>
<text text-anchor="middle" x="1643" y="-738.7028" font-family="Times,serif" font-size="14.00" fill="#000000">yon_equiv</text>
</a>
</g>
</g>
<!-- Yoneda_yon_equiv&#45;&gt;Yoneda_yon1 -->
<g id="edge3" class="edge">
<title>Yoneda_yon_equiv&#45;&gt;Yoneda_yon1</title>
<path fill="none" stroke="#000000" d="M1629.308,-716.8538C1611.0255,-682.7391 1578.7958,-622.599 1560.2396,-587.9736"/>
<polygon fill="#000000" stroke="#000000" points="1563.1999,-586.0876 1555.3913,-578.9268 1557.03,-589.3942 1563.1999,-586.0876"/>
</g>
<!-- Yoneda_opyon_equiv -->
<g id="node15" class="node">
<title>Yoneda_opyon_equiv</title>
<g id="a_node15"><a xlink:href="Yoneda.html#opyon_equiv" xlink:title="opyon_equiv">
<ellipse fill="#f070d1" stroke="#000000" cx="1666" cy="-561.4028" rx="68.7879" ry="18"/>
<text text-anchor="middle" x="1666" y="-557.7028" font-family="Times,serif" font-size="14.00" fill="#000000">opyon_equiv</text>
</a>
</g>
</g>
<!-- Yoneda_yon_equiv&#45;&gt;Yoneda_opyon_equiv -->
<g id="edge4" class="edge">
<title>Yoneda_yon_equiv&#45;&gt;Yoneda_opyon_equiv</title>
<path fill="none" stroke="#000000" d="M1646.3444,-716.0839C1650.6165,-682.4646 1657.9822,-624.4996 1662.3818,-589.8766"/>
<polygon fill="#000000" stroke="#000000" points="1665.9097,-589.8774 1663.6983,-579.516 1658.9656,-588.995 1665.9097,-589.8774"/>
</g>
<!-- Yoneda_yon11 -->
<g id="node3" class="node">
<title>Yoneda_yon11</title>
<g id="a_node3"><a xlink:href="Yoneda.html#yon11" xlink:title="yon11">
<ellipse fill="#f070d1" stroke="#000000" cx="1198" cy="-742.4028" rx="38.9937" ry="18"/>
<ellipse fill="none" stroke="#000000" cx="1198" cy="-742.4028" rx="42.9934" ry="22"/>
<ellipse fill="none" stroke="#000000" cx="1198" cy="-742.4028" rx="46.9931" ry="26"/>
<text text-anchor="middle" x="1198" y="-738.7028" font-family="Times,serif" font-size="14.00" fill="#000000">yon11</text>
</a>
</g>
</g>
<!-- Yoneda_opyon11 -->
<g id="node16" class="node">
<title>Yoneda_opyon11</title>
<g id="a_node16"><a xlink:href="Yoneda.html#opyon11" xlink:title="opyon11">
<ellipse fill="#f070d1" stroke="#000000" cx="1198" cy="-561.4028" rx="50.0912" ry="18"/>
<text text-anchor="middle" x="1198" y="-557.7028" font-family="Times,serif" font-size="14.00" fill="#000000">opyon11</text>
</a>
</g>
</g>
<!-- Yoneda_yon11&#45;&gt;Yoneda_opyon11 -->
<g id="edge5" class="edge">
<title>Yoneda_yon11&#45;&gt;Yoneda_opyon11</title>
<path fill="none" stroke="#000000" d="M1198,-716.0839C1198,-682.4646 1198,-624.4996 1198,-589.8766"/>
<polygon fill="#000000" stroke="#000000" points="1201.5001,-589.5159 1198,-579.516 1194.5001,-589.516 1201.5001,-589.5159"/>
</g>
<!-- Yoneda_opyon1 -->
<g id="node17" class="node">
<title>Yoneda_opyon1</title>
<g id="a_node17"><a xlink:href="Yoneda.html#opyon1" xlink:title="opyon1">
<ellipse fill="#f070d1" stroke="#000000" cx="1539" cy="-381.4028" rx="44.393" ry="18"/>
<text text-anchor="middle" x="1539" y="-377.7028" font-family="Times,serif" font-size="14.00" fill="#000000">opyon1</text>
</a>
</g>
</g>
<!-- Yoneda_yon1&#45;&gt;Yoneda_opyon1 -->
<g id="edge6" class="edge">
<title>Yoneda_yon1&#45;&gt;Yoneda_opyon1</title>
<path fill="none" stroke="#000000" d="M1545.2903,-543.1529C1544.066,-511.6714 1541.5492,-446.953 1540.0976,-409.6277"/>
<polygon fill="#000000" stroke="#000000" points="1543.5872,-409.2898 1539.7012,-399.4334 1536.5925,-409.5619 1543.5872,-409.2898"/>
</g>
<!-- Yoneda_yon_cancel -->
<g id="node5" class="node">
<title>Yoneda_yon_cancel</title>
<g id="a_node5"><a xlink:href="Yoneda.html#yon_cancel" xlink:title="yon_cancel">
<ellipse fill="#f070d1" stroke="#000000" cx="456" cy="-561.4028" rx="62.3011" ry="18"/>
<ellipse fill="none" stroke="#000000" cx="456" cy="-561.4028" rx="66.2951" ry="22"/>
<ellipse fill="none" stroke="#000000" cx="456" cy="-561.4028" rx="70.2891" ry="26"/>
<text text-anchor="middle" x="456" y="-557.7028" font-family="Times,serif" font-size="14.00" fill="#000000">yon_cancel</text>
</a>
</g>
</g>
<!-- Yoneda_un_yoneda -->
<g id="node9" class="node">
<title>Yoneda_un_yoneda</title>
<g id="a_node9"><a xlink:href="Yoneda.html#un_yoneda" xlink:title="un_yoneda">
<ellipse fill="#f070d1" stroke="#000000" cx="319" cy="-381.4028" rx="60.3893" ry="18"/>
<text text-anchor="middle" x="319" y="-377.7028" font-family="Times,serif" font-size="14.00" fill="#000000">un_yoneda</text>
</a>
</g>
</g>
<!-- Yoneda_yon_cancel&#45;&gt;Yoneda_un_yoneda -->
<g id="edge7" class="edge">
<title>Yoneda_yon_cancel&#45;&gt;Yoneda_un_yoneda</title>
<path fill="none" stroke="#000000" d="M436.6618,-535.995C410.6874,-501.8681 364.7807,-441.5527 338.6486,-407.2185"/>
<polygon fill="#000000" stroke="#000000" points="341.2967,-404.9187 332.4551,-399.081 335.7265,-409.1582 341.2967,-404.9187"/>
</g>
<!-- Yoneda_is0functor_yon -->
<g id="node12" class="node">
<title>Yoneda_is0functor_yon</title>
<g id="a_node12"><a xlink:href="Yoneda.html#is0functor_yon" xlink:title="is0functor_yon">
<ellipse fill="#f070d1" stroke="#000000" cx="954" cy="-381.4028" rx="79.8859" ry="18"/>
<text text-anchor="middle" x="954" y="-377.7028" font-family="Times,serif" font-size="14.00" fill="#000000">is0functor_yon</text>
</a>
</g>
</g>
<!-- Yoneda_yon_cancel&#45;&gt;Yoneda_is0functor_yon -->
<g id="edge8" class="edge">
<title>Yoneda_yon_cancel&#45;&gt;Yoneda_is0functor_yon</title>
<path fill="none" stroke="#000000" d="M506.4915,-543.1529C601.5206,-508.805 806.0134,-434.892 902.1073,-400.1592"/>
<polygon fill="#000000" stroke="#000000" points="903.4008,-403.4134 911.6155,-396.7225 901.0212,-396.8302 903.4008,-403.4134"/>
</g>
<!-- Yoneda_yoneda_isretr -->
<g id="node6" class="node">
<title>Yoneda_yoneda_isretr</title>
<g id="a_node6"><a xlink:href="Yoneda.html#yoneda_isretr" xlink:title="yoneda_isretr">
<ellipse fill="#f070d1" stroke="#000000" cx="627" cy="-561.4028" rx="74.9639" ry="18"/>
<ellipse fill="none" stroke="#000000" cx="627" cy="-561.4028" rx="78.9757" ry="22"/>
<ellipse fill="none" stroke="#000000" cx="627" cy="-561.4028" rx="82.9875" ry="26"/>
<text text-anchor="middle" x="627" y="-557.7028" font-family="Times,serif" font-size="14.00" fill="#000000">yoneda_isretr</text>
</a>
</g>
</g>
<!-- Yoneda_yoneda_isretr&#45;&gt;Yoneda_un_yoneda -->
<g id="edge9" class="edge">
<title>Yoneda_yoneda_isretr&#45;&gt;Yoneda_un_yoneda</title>
<path fill="none" stroke="#000000" d="M587.6787,-538.4229C527.6428,-503.3369 413.9625,-436.9004 355.5975,-402.7909"/>
<polygon fill="#000000" stroke="#000000" points="357.1216,-399.6278 346.7219,-397.6039 353.5896,-405.6714 357.1216,-399.6278"/>
</g>
<!-- Yoneda_yoneda -->
<g id="node10" class="node">
<title>Yoneda_yoneda</title>
<g id="a_node10"><a xlink:href="Yoneda.html#yoneda" xlink:title="yoneda">
<ellipse fill="#f070d1" stroke="#000000" cx="631" cy="-381.4028" rx="44.393" ry="18"/>
<text text-anchor="middle" x="631" y="-377.7028" font-family="Times,serif" font-size="14.00" fill="#000000">yoneda</text>
</a>
</g>
</g>
<!-- Yoneda_yoneda_isretr&#45;&gt;Yoneda_yoneda -->
<g id="edge10" class="edge">
<title>Yoneda_yoneda_isretr&#45;&gt;Yoneda_yoneda</title>
<path fill="none" stroke="#000000" d="M627.5816,-535.2293C628.3246,-501.7957 629.6056,-444.151 630.3707,-409.7193"/>
<polygon fill="#000000" stroke="#000000" points="633.8766,-409.4912 630.5997,-399.4159 626.8783,-409.3356 633.8766,-409.4912"/>
</g>
<!-- Yoneda_yoneda_isretr&#45;&gt;Yoneda_is0functor_yon -->
<g id="edge11" class="edge">
<title>Yoneda_yoneda_isretr&#45;&gt;Yoneda_is0functor_yon</title>
<path fill="none" stroke="#000000" d="M668.0837,-538.7879C731.3891,-503.9409 851.9849,-437.5579 914.3886,-403.2072"/>
<polygon fill="#000000" stroke="#000000" points="916.4507,-406.0674 923.5234,-398.1789 913.0751,-399.9351 916.4507,-406.0674"/>
</g>
<!-- Yoneda_opyoneda_isretr -->
<g id="node19" class="node">
<title>Yoneda_opyoneda_isretr</title>
<g id="a_node19"><a xlink:href="Yoneda.html#opyoneda_isretr" xlink:title="opyoneda_isretr">
<ellipse fill="#f070d1" stroke="#000000" cx="483" cy="-381.4028" rx="85.5853" ry="18"/>
<text text-anchor="middle" x="483" y="-377.7028" font-family="Times,serif" font-size="14.00" fill="#000000">opyoneda_isretr</text>
</a>
</g>
</g>
<!-- Yoneda_yoneda_isretr&#45;&gt;Yoneda_opyoneda_isretr -->
<g id="edge12" class="edge">
<title>Yoneda_yoneda_isretr&#45;&gt;Yoneda_opyoneda_isretr</title>
<path fill="none" stroke="#000000" d="M606.6737,-535.995C579.4437,-501.9574 531.3724,-441.8683 503.8687,-407.4887"/>
<polygon fill="#000000" stroke="#000000" points="506.3246,-404.9558 497.3446,-399.3336 500.8585,-409.3287 506.3246,-404.9558"/>
</g>
<!-- Yoneda_yoneda_issect -->
<g id="node7" class="node">
<title>Yoneda_yoneda_issect</title>
<g id="a_node7"><a xlink:href="Yoneda.html#yoneda_issect" xlink:title="yoneda_issect">
<ellipse fill="#f070d1" stroke="#000000" cx="284" cy="-561.4028" rx="76.0824" ry="18"/>
<ellipse fill="none" stroke="#000000" cx="284" cy="-561.4028" rx="80.0845" ry="22"/>
<ellipse fill="none" stroke="#000000" cx="284" cy="-561.4028" rx="84.0865" ry="26"/>
<text text-anchor="middle" x="284" y="-557.7028" font-family="Times,serif" font-size="14.00" fill="#000000">yoneda_issect</text>
</a>
</g>
</g>
<!-- Yoneda_yoneda_issect&#45;&gt;Yoneda_un_yoneda -->
<g id="edge13" class="edge">
<title>Yoneda_yoneda_issect&#45;&gt;Yoneda_un_yoneda</title>
<path fill="none" stroke="#000000" d="M289.0893,-535.2293C295.6184,-501.651 306.8961,-443.6515 313.5807,-409.2734"/>
<polygon fill="#000000" stroke="#000000" points="317.0243,-409.9001 315.4975,-399.4159 310.153,-408.564 317.0243,-409.9001"/>
</g>
<!-- Yoneda_yoneda_issect&#45;&gt;Yoneda_yoneda -->
<g id="edge14" class="edge">
<title>Yoneda_yoneda_issect&#45;&gt;Yoneda_yoneda</title>
<path fill="none" stroke="#000000" d="M327.2462,-538.9696C396.1648,-503.2193 529.7021,-433.9493 594.273,-400.4543"/>
<polygon fill="#000000" stroke="#000000" points="596.0184,-403.4918 603.2836,-395.7802 592.7951,-397.2781 596.0184,-403.4918"/>
</g>
<!-- Yoneda_opyoneda_issect -->
<g id="node20" class="node">
<title>Yoneda_opyoneda_issect</title>
<g id="a_node20"><a xlink:href="Yoneda.html#opyoneda_issect" xlink:title="opyoneda_issect">
<ellipse fill="#f070d1" stroke="#000000" cx="153" cy="-381.4028" rx="87.1846" ry="18"/>
<text text-anchor="middle" x="153" y="-377.7028" font-family="Times,serif" font-size="14.00" fill="#000000">opyoneda_issect</text>
</a>
</g>
</g>
<!-- Yoneda_yoneda_issect&#45;&gt;Yoneda_opyoneda_issect -->
<g id="edge15" class="edge">
<title>Yoneda_yoneda_issect&#45;&gt;Yoneda_opyoneda_issect</title>
<path fill="none" stroke="#000000" d="M265.5087,-535.995C240.737,-501.9574 197.0054,-441.8683 171.9847,-407.4887"/>
<polygon fill="#000000" stroke="#000000" points="174.7639,-405.3595 166.0496,-399.3336 169.1041,-409.4786 174.7639,-405.3595"/>
</g>
<!-- Yoneda_is1natural_yoneda -->
<g id="node8" class="node">
<title>Yoneda_is1natural_yoneda</title>
<g id="a_node8"><a xlink:href="Yoneda.html#is1natural_yoneda" xlink:title="is1natural_yoneda">
<ellipse fill="#f070d1" stroke="#000000" cx="832" cy="-561.4028" rx="96.3686" ry="18"/>
<ellipse fill="none" stroke="#000000" cx="832" cy="-561.4028" rx="100.3759" ry="22"/>
<ellipse fill="none" stroke="#000000" cx="832" cy="-561.4028" rx="104.3833" ry="26"/>
<text text-anchor="middle" x="832" y="-557.7028" font-family="Times,serif" font-size="14.00" fill="#000000">is1natural_yoneda</text>
</a>
</g>
</g>
<!-- Yoneda_is1natural_yoneda&#45;&gt;Yoneda_yoneda -->
<g id="edge16" class="edge">
<title>Yoneda_is1natural_yoneda&#45;&gt;Yoneda_yoneda</title>
<path fill="none" stroke="#000000" d="M803.6279,-535.995C764.53,-500.9819 694.6497,-438.4025 656.9005,-404.5973"/>
<polygon fill="#000000" stroke="#000000" points="659.1401,-401.9046 649.3556,-397.8407 654.4702,-407.1192 659.1401,-401.9046"/>
</g>
<!-- Yoneda_is1natural_yoneda&#45;&gt;Yoneda_is0functor_yon -->
<g id="edge17" class="edge">
<title>Yoneda_is1natural_yoneda&#45;&gt;Yoneda_is0functor_yon</title>
<path fill="none" stroke="#000000" d="M849.4796,-535.6132C872.5233,-501.6143 912.8564,-442.1065 936.1055,-407.8046"/>
<polygon fill="#000000" stroke="#000000" points="939.1911,-409.4903 941.9044,-399.2488 933.3966,-405.5629 939.1911,-409.4903"/>
</g>
<!-- Yoneda_is1natural_opyoneda -->
<g id="node21" class="node">
<title>Yoneda_is1natural_opyoneda</title>
<g id="a_node21"><a xlink:href="Yoneda.html#is1natural_opyoneda" xlink:title="is1natural_opyoneda">
<ellipse fill="#f070d1" stroke="#000000" cx="1159" cy="-381.4028" rx="107.4815" ry="18"/>
<text text-anchor="middle" x="1159" y="-377.7028" font-family="Times,serif" font-size="14.00" fill="#000000">is1natural_opyoneda</text>
</a>
</g>
</g>
<!-- Yoneda_is1natural_yoneda&#45;&gt;Yoneda_is1natural_opyoneda -->
<g id="edge18" class="edge">
<title>Yoneda_is1natural_yoneda&#45;&gt;Yoneda_is1natural_opyoneda</title>
<path fill="none" stroke="#000000" d="M875.0858,-537.6859C938.595,-502.7267 1056.4961,-437.827 1118.494,-403.6997"/>
<polygon fill="#000000" stroke="#000000" points="1120.5124,-406.5839 1127.585,-398.6955 1117.1367,-400.4516 1120.5124,-406.5839"/>
</g>
<!-- Yoneda_yon -->
<g id="node13" class="node">
<title>Yoneda_yon</title>
<g id="a_node13"><a xlink:href="Yoneda.html#yon" xlink:title="yon">
<ellipse fill="#f070d1" stroke="#000000" cx="680" cy="-217.4028" rx="27.0966" ry="18"/>
<text text-anchor="middle" x="680" y="-213.7028" font-family="Times,serif" font-size="14.00" fill="#000000">yon</text>
</a>
</g>
</g>
<!-- Yoneda_un_yoneda&#45;&gt;Yoneda_yon -->
<g id="edge19" class="edge">
<title>Yoneda_un_yoneda&#45;&gt;Yoneda_yon</title>
<path fill="none" stroke="#000000" d="M353.2031,-366.3863C412.4633,-340.2805 537.9622,-284.6055 643,-235.4028 644.7951,-234.5619 646.6358,-233.6918 648.4911,-232.8088"/>
<polygon fill="#000000" stroke="#000000" points="650.2494,-235.847 657.746,-228.3602 647.2168,-229.538 650.2494,-235.847"/>
</g>
<!-- Yoneda_un_opyoneda -->
<g id="node22" class="node">
<title>Yoneda_un_opyoneda</title>
<g id="a_node22"><a xlink:href="Yoneda.html#un_opyoneda" xlink:title="un_opyoneda">
<ellipse fill="#f070d1" stroke="#000000" cx="434" cy="-217.4028" rx="71.4873" ry="18"/>
<text text-anchor="middle" x="434" y="-213.7028" font-family="Times,serif" font-size="14.00" fill="#000000">un_opyoneda</text>
</a>
</g>
</g>
<!-- Yoneda_un_yoneda&#45;&gt;Yoneda_un_opyoneda -->
<g id="edge20" class="edge">
<title>Yoneda_un_yoneda&#45;&gt;Yoneda_un_opyoneda</title>
<path fill="none" stroke="#000000" d="M331.5259,-363.5397C351.8326,-334.5807 392.0352,-277.2482 415.5975,-243.6463"/>
<polygon fill="#000000" stroke="#000000" points="418.6138,-245.441 421.4895,-235.2439 412.8825,-241.422 418.6138,-245.441"/>
</g>
<!-- Yoneda_yoneda&#45;&gt;Yoneda_yon -->
<g id="edge21" class="edge">
<title>Yoneda_yoneda&#45;&gt;Yoneda_yon</title>
<path fill="none" stroke="#000000" d="M636.4311,-363.2253C645.012,-334.5054 661.7604,-278.4497 671.8072,-244.8237"/>
<polygon fill="#000000" stroke="#000000" points="675.1842,-245.7467 674.6935,-235.1632 668.4772,-243.7427 675.1842,-245.7467"/>
</g>
<!-- Yoneda_opyoneda -->
<g id="node23" class="node">
<title>Yoneda_opyoneda</title>
<g id="a_node23"><a xlink:href="Yoneda.html#opyoneda" xlink:title="opyoneda">
<ellipse fill="#f070d1" stroke="#000000" cx="579" cy="-217.4028" rx="55.4913" ry="18"/>
<text text-anchor="middle" x="579" y="-213.7028" font-family="Times,serif" font-size="14.00" fill="#000000">opyoneda</text>
</a>
</g>
</g>
<!-- Yoneda_yoneda&#45;&gt;Yoneda_opyoneda -->
<g id="edge22" class="edge">
<title>Yoneda_yoneda&#45;&gt;Yoneda_opyoneda</title>
<path fill="none" stroke="#000000" d="M625.3361,-363.5397C616.2951,-335.0257 598.5318,-279.0033 587.8175,-245.2117"/>
<polygon fill="#000000" stroke="#000000" points="591.0949,-243.9679 584.7361,-235.4935 584.4223,-246.0837 591.0949,-243.9679"/>
</g>
<!-- Yoneda_is1functor_yon -->
<g id="node11" class="node">
<title>Yoneda_is1functor_yon</title>
<g id="a_node11"><a xlink:href="Yoneda.html#is1functor_yon" xlink:title="is1functor_yon">
<ellipse fill="#f070d1" stroke="#000000" cx="1042" cy="-561.4028" rx="79.891" ry="18"/>
<ellipse fill="none" stroke="#000000" cx="1042" cy="-561.4028" rx="83.8884" ry="22"/>
<ellipse fill="none" stroke="#000000" cx="1042" cy="-561.4028" rx="87.8859" ry="26"/>
<text text-anchor="middle" x="1042" y="-557.7028" font-family="Times,serif" font-size="14.00" fill="#000000">is1functor_yon</text>
</a>
</g>
</g>
<!-- Yoneda_is1functor_yon&#45;&gt;Yoneda_is0functor_yon -->
<g id="edge23" class="edge">
<title>Yoneda_is1functor_yon&#45;&gt;Yoneda_is0functor_yon</title>
<path fill="none" stroke="#000000" d="M1029.3917,-535.6132C1012.8842,-501.8479 984.0764,-442.9228 967.2548,-408.515"/>
<polygon fill="#000000" stroke="#000000" points="970.3848,-406.9482 962.8483,-399.5016 964.0961,-410.0228 970.3848,-406.9482"/>
</g>
<!-- Yoneda_is1functor_opyon -->
<g id="node24" class="node">
<title>Yoneda_is1functor_opyon</title>
<g id="a_node24"><a xlink:href="Yoneda.html#is1functor_opyon" xlink:title="is1functor_opyon">
<ellipse fill="#f070d1" stroke="#000000" cx="1375" cy="-381.4028" rx="90.9839" ry="18"/>
<text text-anchor="middle" x="1375" y="-377.7028" font-family="Times,serif" font-size="14.00" fill="#000000">is1functor_opyon</text>
</a>
</g>
</g>
<!-- Yoneda_is1functor_yon&#45;&gt;Yoneda_is1functor_opyon -->
<g id="edge24" class="edge">
<title>Yoneda_is1functor_yon&#45;&gt;Yoneda_is1functor_opyon</title>
<path fill="none" stroke="#000000" d="M1084.5129,-538.4229C1149.1877,-503.4635 1271.4432,-437.3795 1334.7465,-403.1615"/>
<polygon fill="#000000" stroke="#000000" points="1336.5119,-406.1858 1343.6447,-398.3516 1333.1833,-400.0279 1336.5119,-406.1858"/>
</g>
<!-- Yoneda_is0functor_yon&#45;&gt;Yoneda_yon -->
<g id="edge25" class="edge">
<title>Yoneda_is0functor_yon&#45;&gt;Yoneda_yon</title>
<path fill="none" stroke="#000000" d="M925.7092,-364.4696C873.4695,-333.2021 762.3747,-266.7074 709.3504,-234.9702"/>
<polygon fill="#000000" stroke="#000000" points="710.8307,-231.7772 700.4528,-229.6446 707.2357,-237.7836 710.8307,-231.7772"/>
</g>
<!-- Yoneda_is0functor_opyon -->
<g id="node25" class="node">
<title>Yoneda_is0functor_opyon</title>
<g id="a_node25"><a xlink:href="Yoneda.html#is0functor_opyon" xlink:title="is0functor_opyon">
<ellipse fill="#f070d1" stroke="#000000" cx="954" cy="-217.4028" rx="90.9839" ry="18"/>
<text text-anchor="middle" x="954" y="-213.7028" font-family="Times,serif" font-size="14.00" fill="#000000">is0functor_opyon</text>
</a>
</g>
</g>
<!-- Yoneda_is0functor_yon&#45;&gt;Yoneda_is0functor_opyon -->
<g id="edge26" class="edge">
<title>Yoneda_is0functor_yon&#45;&gt;Yoneda_is0functor_opyon</title>
<path fill="none" stroke="#000000" d="M954,-363.2253C954,-334.7797 954,-279.518 954,-245.7932"/>
<polygon fill="#000000" stroke="#000000" points="957.5001,-245.6617 954,-235.6617 950.5001,-245.6617 957.5001,-245.6617"/>
</g>
<!-- Yoneda_opyon -->
<g id="node26" class="node">
<title>Yoneda_opyon</title>
<g id="a_node26"><a xlink:href="Yoneda.html#opyon" xlink:title="opyon">
<ellipse fill="#f070d1" stroke="#000000" cx="629" cy="-69.4028" rx="38.1938" ry="18"/>
<text text-anchor="middle" x="629" y="-65.7028" font-family="Times,serif" font-size="14.00" fill="#000000">opyon</text>
</a>
</g>
</g>
<!-- Yoneda_yon&#45;&gt;Yoneda_opyon -->
<g id="edge27" class="edge">
<title>Yoneda_yon&#45;&gt;Yoneda_opyon</title>
<path fill="none" stroke="#000000" d="M673.9494,-199.8441C665.1782,-174.3907 648.8486,-127.0028 638.4728,-96.8925"/>
<polygon fill="#000000" stroke="#000000" points="641.7689,-95.7144 635.2018,-87.4002 635.1508,-97.995 641.7689,-95.7144"/>
</g>
<!-- Yoneda_natequiv_opyon_equiv&#45;&gt;Yoneda_opyon1 -->
<g id="edge28" class="edge">
<title>Yoneda_natequiv_opyon_equiv&#45;&gt;Yoneda_opyon1</title>
<path fill="none" stroke="#000000" d="M1395.8268,-543.4857C1424.3801,-511.1612 1484.5578,-443.0355 1517.0621,-406.2382"/>
<polygon fill="#000000" stroke="#000000" points="1519.9392,-408.2678 1523.9365,-398.4559 1514.6929,-403.6335 1519.9392,-408.2678"/>
</g>
<!-- Yoneda_natequiv_opyon_equiv&#45;&gt;Yoneda_is1natural_opyoneda -->
<g id="edge29" class="edge">
<title>Yoneda_natequiv_opyon_equiv&#45;&gt;Yoneda_is1natural_opyoneda</title>
<path fill="none" stroke="#000000" d="M1358.0017,-543.4857C1318.1226,-511.0049 1233.8612,-442.3758 1188.8396,-405.7066"/>
<polygon fill="#000000" stroke="#000000" points="1190.8733,-402.8489 1180.9093,-399.2475 1186.4526,-408.2765 1190.8733,-402.8489"/>
</g>
<!-- Yoneda_natequiv_opyon_equiv&#45;&gt;Yoneda_is1functor_opyon -->
<g id="edge30" class="edge">
<title>Yoneda_natequiv_opyon_equiv&#45;&gt;Yoneda_is1functor_opyon</title>
<path fill="none" stroke="#000000" d="M1379.4931,-543.1529C1378.6186,-511.6714 1376.8208,-446.953 1375.784,-409.6277"/>
<polygon fill="#000000" stroke="#000000" points="1379.2773,-409.3324 1375.5009,-399.4334 1372.28,-409.5268 1379.2773,-409.3324"/>
</g>
<!-- Yoneda_opyon_equiv&#45;&gt;Yoneda_opyon1 -->
<g id="edge31" class="edge">
<title>Yoneda_opyon_equiv&#45;&gt;Yoneda_opyon1</title>
<path fill="none" stroke="#000000" d="M1653.3585,-543.4857C1630.7057,-511.3794 1583.1329,-443.9533 1557.0514,-406.9874"/>
<polygon fill="#000000" stroke="#000000" points="1559.8418,-404.8713 1551.2169,-398.7181 1554.1222,-408.9069 1559.8418,-404.8713"/>
</g>
<!-- Yoneda_opyon11&#45;&gt;Yoneda_is1functor_opyon -->
<g id="edge32" class="edge">
<title>Yoneda_opyon11&#45;&gt;Yoneda_is1functor_opyon</title>
<path fill="none" stroke="#000000" d="M1214.9715,-544.1437C1246.3952,-512.1873 1313.7547,-443.6862 1350.2605,-406.5616"/>
<polygon fill="#000000" stroke="#000000" points="1353.0423,-408.7246 1357.5581,-399.1403 1348.0511,-403.8166 1353.0423,-408.7246"/>
</g>
<!-- Yoneda_opyon1&#45;&gt;Yoneda_is0functor_opyon -->
<g id="edge33" class="edge">
<title>Yoneda_opyon1&#45;&gt;Yoneda_is0functor_opyon</title>
<path fill="none" stroke="#000000" d="M1508.695,-368.1718C1498.1392,-363.8098 1486.1476,-359.1268 1475,-355.4028 1316.5341,-302.4654 1125.6677,-256.2398 1024.6876,-233.116"/>
<polygon fill="#000000" stroke="#000000" points="1025.4314,-229.6958 1014.9033,-230.8834 1023.8741,-236.5204 1025.4314,-229.6958"/>
</g>
<!-- Yoneda_opyon_cancel -->
<g id="node18" class="node">
<title>Yoneda_opyon_cancel</title>
<g id="a_node18"><a xlink:href="Yoneda.html#opyon_cancel" xlink:title="opyon_cancel">
<ellipse fill="#f070d1" stroke="#000000" cx="775" cy="-381.4028" rx="73.3926" ry="18"/>
<ellipse fill="none" stroke="#000000" cx="775" cy="-381.4028" rx="77.3898" ry="22"/>
<ellipse fill="none" stroke="#000000" cx="775" cy="-381.4028" rx="81.387" ry="26"/>
<text text-anchor="middle" x="775" y="-377.7028" font-family="Times,serif" font-size="14.00" fill="#000000">opyon_cancel</text>
</a>
</g>
</g>
<!-- Yoneda_opyon_cancel&#45;&gt;Yoneda_un_opyoneda -->
<g id="edge34" class="edge">
<title>Yoneda_opyon_cancel&#45;&gt;Yoneda_un_opyoneda</title>
<path fill="none" stroke="#000000" d="M729.7178,-359.6249C663.4099,-327.7348 540.7893,-268.7619 476.249,-237.722"/>
<polygon fill="#000000" stroke="#000000" points="477.6906,-234.5316 467.1617,-233.3516 474.6567,-240.84 477.6906,-234.5316"/>
</g>
<!-- Yoneda_opyon_cancel&#45;&gt;Yoneda_is0functor_opyon -->
<g id="edge35" class="edge">
<title>Yoneda_opyon_cancel&#45;&gt;Yoneda_is0functor_opyon</title>
<path fill="none" stroke="#000000" d="M801.7981,-356.8504C835.5669,-325.9114 893.268,-273.0455 927.0897,-242.0581"/>
<polygon fill="#000000" stroke="#000000" points="929.7301,-244.3858 934.739,-235.0498 925.0013,-239.2246 929.7301,-244.3858"/>
</g>
<!-- Yoneda_opyoneda_isretr&#45;&gt;Yoneda_un_opyoneda -->
<g id="edge36" class="edge">
<title>Yoneda_opyoneda_isretr&#45;&gt;Yoneda_un_opyoneda</title>
<path fill="none" stroke="#000000" d="M477.5689,-363.2253C469.0331,-334.6565 452.4157,-279.039 442.352,-245.3565"/>
<polygon fill="#000000" stroke="#000000" points="445.6717,-244.2412 439.4554,-235.6617 438.9647,-246.2452 445.6717,-244.2412"/>
</g>
<!-- Yoneda_opyoneda_isretr&#45;&gt;Yoneda_opyoneda -->
<g id="edge37" class="edge">
<title>Yoneda_opyoneda_isretr&#45;&gt;Yoneda_opyoneda</title>
<path fill="none" stroke="#000000" d="M493.6405,-363.2253C510.5971,-334.2578 543.8322,-277.4812 563.4549,-243.9591"/>
<polygon fill="#000000" stroke="#000000" points="566.5724,-245.5615 568.6037,-235.1632 560.5313,-242.0252 566.5724,-245.5615"/>
</g>
<!-- Yoneda_opyoneda_isretr&#45;&gt;Yoneda_is0functor_opyon -->
<g id="edge38" class="edge">
<title>Yoneda_opyoneda_isretr&#45;&gt;Yoneda_is0functor_opyon</title>
<path fill="none" stroke="#000000" d="M527.3105,-365.9741C613.7898,-335.8624 804.8231,-269.3455 899.1331,-236.5072"/>
<polygon fill="#000000" stroke="#000000" points="900.4805,-239.7442 908.7735,-233.1505 898.1786,-233.1335 900.4805,-239.7442"/>
</g>
<!-- Yoneda_opyoneda_issect&#45;&gt;Yoneda_un_opyoneda -->
<g id="edge39" class="edge">
<title>Yoneda_opyoneda_issect&#45;&gt;Yoneda_un_opyoneda</title>
<path fill="none" stroke="#000000" d="M182.2767,-364.316C233.6748,-334.3186 340.0423,-272.2393 396.653,-239.1996"/>
<polygon fill="#000000" stroke="#000000" points="398.7544,-242.0257 405.6269,-233.9622 395.2259,-235.9801 398.7544,-242.0257"/>
</g>
<!-- Yoneda_opyoneda_issect&#45;&gt;Yoneda_opyoneda -->
<g id="edge40" class="edge">
<title>Yoneda_opyoneda_issect&#45;&gt;Yoneda_opyoneda</title>
<path fill="none" stroke="#000000" d="M194.2337,-365.5288C274.375,-334.6763 450.5756,-266.8432 533.7868,-234.8088"/>
<polygon fill="#000000" stroke="#000000" points="535.1469,-238.0357 543.2218,-231.1766 532.6319,-231.5031 535.1469,-238.0357"/>
</g>
<!-- Yoneda_is1natural_opyoneda&#45;&gt;Yoneda_opyoneda -->
<g id="edge41" class="edge">
<title>Yoneda_is1natural_opyoneda&#45;&gt;Yoneda_opyoneda</title>
<path fill="none" stroke="#000000" d="M1104.1738,-365.9002C992.4489,-334.3091 739.7907,-262.8678 630.7277,-232.0293"/>
<polygon fill="#000000" stroke="#000000" points="631.5169,-228.6153 620.9418,-229.2622 629.6122,-235.3512 631.5169,-228.6153"/>
</g>
<!-- Yoneda_is1natural_opyoneda&#45;&gt;Yoneda_is0functor_opyon -->
<g id="edge42" class="edge">
<title>Yoneda_is1natural_opyoneda&#45;&gt;Yoneda_is0functor_opyon</title>
<path fill="none" stroke="#000000" d="M1136.6712,-363.5397C1099.6049,-333.8868 1025.3516,-274.4841 983.8368,-241.2722"/>
<polygon fill="#000000" stroke="#000000" points="985.9862,-238.5096 975.991,-234.9956 981.6133,-243.9757 985.9862,-238.5096"/>
</g>
<!-- Yoneda_un_opyoneda&#45;&gt;Yoneda_opyon -->
<g id="edge43" class="edge">
<title>Yoneda_un_opyoneda&#45;&gt;Yoneda_opyon</title>
<path fill="none" stroke="#000000" d="M456.7506,-200.1357C492.4304,-173.0557 561.4868,-120.6436 600.4509,-91.0708"/>
<polygon fill="#000000" stroke="#000000" points="602.8981,-93.6074 608.7477,-84.7738 598.6661,-88.0315 602.8981,-93.6074"/>
</g>
<!-- Yoneda_opyoneda&#45;&gt;Yoneda_opyon -->
<g id="edge44" class="edge">
<title>Yoneda_opyoneda&#45;&gt;Yoneda_opyon</title>
<path fill="none" stroke="#000000" d="M585.131,-199.2551C593.7619,-173.7077 609.5662,-126.9269 619.6629,-97.0407"/>
<polygon fill="#000000" stroke="#000000" points="623.0902,-97.8309 622.975,-87.2367 616.4584,-95.5904 623.0902,-97.8309"/>
</g>
<!-- Yoneda_is1functor_opyon&#45;&gt;Yoneda_is0functor_opyon -->
<g id="edge45" class="edge">
<title>Yoneda_is1functor_opyon&#45;&gt;Yoneda_is0functor_opyon</title>
<path fill="none" stroke="#000000" d="M1333.4807,-365.229C1255.7792,-334.9605 1088.6693,-269.8631 1004.5538,-237.096"/>
<polygon fill="#000000" stroke="#000000" points="1005.7966,-233.824 995.2082,-233.4554 1003.2557,-240.3466 1005.7966,-233.824"/>
</g>
<!-- Yoneda_is0functor_opyon&#45;&gt;Yoneda_opyon -->
<g id="edge46" class="edge">
<title>Yoneda_is0functor_opyon&#45;&gt;Yoneda_opyon</title>
<path fill="none" stroke="#000000" d="M917.6644,-200.8561C855.2738,-172.4444 728.4522,-114.6918 665.7664,-86.1457"/>
<polygon fill="#000000" stroke="#000000" points="667.1883,-82.9474 656.637,-81.9883 664.2872,-89.318 667.1883,-82.9474"/>
</g>
<!-- Yoneda_fun01_hom -->
<g id="node27" class="node">
<title>Yoneda_fun01_hom</title>
<g id="a_node27"><a xlink:href="Yoneda.html#fun01_hom" xlink:title="fun01_hom">
<ellipse fill="#f070d1" stroke="#000000" cx="93" cy="-742.4028" rx="62.3011" ry="18"/>
<ellipse fill="none" stroke="#000000" cx="93" cy="-742.4028" rx="66.2951" ry="22"/>
<ellipse fill="none" stroke="#000000" cx="93" cy="-742.4028" rx="70.2891" ry="26"/>
<text text-anchor="middle" x="93" y="-738.7028" font-family="Times,serif" font-size="14.00" fill="#000000">fun01_hom</text>
</a>
</g>
</g>
<!-- Yoneda_is0functor_hom -->
<g id="node29" class="node">
<title>Yoneda_is0functor_hom</title>
<g id="a_node29"><a xlink:href="Yoneda.html#is0functor_hom" xlink:title="is0functor_hom">
<ellipse fill="#f070d1" stroke="#000000" cx="99" cy="-561.4028" rx="83.3857" ry="18"/>
<text text-anchor="middle" x="99" y="-557.7028" font-family="Times,serif" font-size="14.00" fill="#000000">is0functor_hom</text>
</a>
</g>
</g>
<!-- Yoneda_fun01_hom&#45;&gt;Yoneda_is0functor_hom -->
<g id="edge47" class="edge">
<title>Yoneda_fun01_hom&#45;&gt;Yoneda_is0functor_hom</title>
<path fill="none" stroke="#000000" d="M93.8725,-716.0839C94.9869,-682.4646 96.9084,-624.4996 98.0561,-589.8766"/>
<polygon fill="#000000" stroke="#000000" points="101.5662,-589.6265 98.3996,-579.516 94.5701,-589.3945 101.5662,-589.6265"/>
</g>
<!-- Yoneda_is1functor_hom -->
<g id="node28" class="node">
<title>Yoneda_is1functor_hom</title>
<g id="a_node28"><a xlink:href="Yoneda.html#is1functor_hom" xlink:title="is1functor_hom">
<ellipse fill="#f070d1" stroke="#000000" cx="273" cy="-742.4028" rx="83.3687" ry="18"/>
<ellipse fill="none" stroke="#000000" cx="273" cy="-742.4028" rx="87.3772" ry="22"/>
<ellipse fill="none" stroke="#000000" cx="273" cy="-742.4028" rx="91.3856" ry="26"/>
<text text-anchor="middle" x="273" y="-738.7028" font-family="Times,serif" font-size="14.00" fill="#000000">is1functor_hom</text>
</a>
</g>
</g>
<!-- Yoneda_is1functor_hom&#45;&gt;Yoneda_is0functor_hom -->
<g id="edge48" class="edge">
<title>Yoneda_is1functor_hom&#45;&gt;Yoneda_is0functor_hom</title>
<path fill="none" stroke="#000000" d="M248.806,-717.2355C215.6431,-682.7384 156.4101,-621.1226 123.2289,-586.6064"/>
<polygon fill="#000000" stroke="#000000" points="125.6235,-584.047 116.17,-579.2635 120.5771,-588.8983 125.6235,-584.047"/>
</g>
</g>
</svg>
