<?xml version="1.0" encoding="UTF-8" standalone="no"?>
<!DOCTYPE svg PUBLIC "-//W3C//DTD SVG 1.1//EN"
 "http://www.w3.org/Graphics/SVG/1.1/DTD/svg11.dtd">
<!-- Generated by graphviz version 2.40.1 (20161225.0304)
 -->
<!-- Title: HoTT_Sets_AC Pages: 1 -->
<svg width="568pt" height="288pt"
 viewBox="0.00 0.00 568.00 288.00" xmlns="http://www.w3.org/2000/svg" xmlns:xlink="http://www.w3.org/1999/xlink">
<g id="graph0" class="graph" transform="scale(1 1) rotate(0) translate(4 284)">
<title>HoTT_Sets_AC</title>
<polygon fill="#ffffff" stroke="transparent" points="-4,4 -4,-284 564,-284 564,4 -4,4"/>
<g id="clust1" class="cluster">
<title>cluster_AC</title>
<polygon fill="#ffffc3" stroke="#000000" points="8,-12.514 8,-267.486 552,-267.486 552,-12.514 8,-12.514"/>
<text text-anchor="middle" x="27" y="-252.286" font-family="Times,serif" font-size="14.00" fill="#000000">AC</text>
</g>
<!-- AC_WO_AC -->
<g id="node1" class="node">
<title>AC_WO_AC</title>
<g id="a_node1"><a xlink:href="AC.html#WO_AC" xlink:title="WO_AC">
<ellipse fill="#f070d1" stroke="#000000" cx="489" cy="-178.514" rx="47.3994" ry="18"/>
<ellipse fill="none" stroke="#000000" cx="489" cy="-178.514" rx="51.3955" ry="22"/>
<ellipse fill="none" stroke="#000000" cx="489" cy="-178.514" rx="55.3916" ry="26"/>
<text text-anchor="middle" x="489" y="-174.814" font-family="Times,serif" font-size="14.00" fill="#000000">WO_AC</text>
</a>
</g>
</g>
<!-- AC_Choice_type -->
<g id="node4" class="node">
<title>AC_Choice_type</title>
<g id="a_node4"><a xlink:href="AC.html#Choice_type" xlink:title="Choice_type">
<ellipse fill="#f070d1" stroke="#000000" cx="428" cy="-53.514" rx="68.4888" ry="18"/>
<text text-anchor="middle" x="428" y="-49.814" font-family="Times,serif" font-size="14.00" fill="#000000">Choice_type</text>
</a>
</g>
</g>
<!-- AC_WO_AC&#45;&gt;AC_Choice_type -->
<g id="edge1" class="edge">
<title>AC_WO_AC&#45;&gt;AC_Choice_type</title>
<path fill="none" stroke="#000000" d="M476.5085,-152.9167C466.2314,-131.857 451.7043,-102.0883 441.2301,-80.6249"/>
<polygon fill="#000000" stroke="#000000" points="444.2639,-78.8609 436.7327,-71.4089 437.973,-81.9309 444.2639,-78.8609"/>
</g>
<!-- AC_is_global_axiom_propresizing -->
<g id="node2" class="node">
<title>AC_is_global_axiom_propresizing</title>
<g id="a_node2"><a xlink:href="AC.html#is_global_axiom_propresizing" xlink:title="is_global_axiom_propresizing">
<ellipse fill="#7fffd4" stroke="#000000" cx="172" cy="-178.514" rx="147.5719" ry="18"/>
<ellipse fill="none" stroke="#000000" cx="172" cy="-178.514" rx="151.5729" ry="22"/>
<ellipse fill="none" stroke="#000000" cx="172" cy="-178.514" rx="155.5738" ry="26"/>
<text text-anchor="middle" x="172" y="-174.814" font-family="Times,serif" font-size="14.00" fill="#000000">is_global_axiom_propresizing</text>
</a>
</g>
</g>
<!-- AC_Choice -->
<g id="node5" class="node">
<title>AC_Choice</title>
<g id="a_node5"><a xlink:href="AC.html#Choice" xlink:title="Choice">
<ellipse fill="#facdef" stroke="#000000" cx="212" cy="-53.514" rx="42.7926" ry="18"/>
<text text-anchor="middle" x="212" y="-49.814" font-family="Times,serif" font-size="14.00" fill="#000000">Choice</text>
</a>
</g>
</g>
<!-- AC_is_global_axiom_propresizing&#45;&gt;AC_Choice -->
<g id="edge2" class="edge">
<title>AC_is_global_axiom_propresizing&#45;&gt;AC_Choice</title>
<path fill="none" stroke="#000000" d="M180.3853,-152.3099C187.0396,-131.5153 196.3189,-102.5173 203.1031,-81.3166"/>
<polygon fill="#000000" stroke="#000000" points="206.4964,-82.1965 206.2107,-71.6055 199.8294,-80.063 206.4964,-82.1965"/>
</g>
<!-- AC_AC -->
<g id="node3" class="node">
<title>AC_AC</title>
<g id="a_node3"><a xlink:href="AC.html#AC" xlink:title="AC">
<ellipse fill="#facdef" stroke="#000000" cx="381" cy="-178.514" rx="27" ry="18"/>
<ellipse fill="none" stroke="#000000" cx="381" cy="-178.514" rx="31" ry="22"/>
<ellipse fill="none" stroke="#000000" cx="381" cy="-178.514" rx="35" ry="26"/>
<text text-anchor="middle" x="381" y="-174.814" font-family="Times,serif" font-size="14.00" fill="#000000">AC</text>
</a>
</g>
</g>
<!-- AC_AC&#45;&gt;AC_Choice_type -->
<g id="edge3" class="edge">
<title>AC_AC&#45;&gt;AC_Choice_type</title>
<path fill="none" stroke="#000000" d="M390.5112,-153.2184C398.3842,-132.2794 409.5508,-102.5809 417.6474,-81.0475"/>
<polygon fill="#000000" stroke="#000000" points="420.9945,-82.0903 421.2379,-71.4983 414.4423,-79.6266 420.9945,-82.0903"/>
</g>
<!-- AC_AC&#45;&gt;AC_Choice -->
<g id="edge4" class="edge">
<title>AC_AC&#45;&gt;AC_Choice</title>
<path fill="none" stroke="#000000" d="M356.0635,-160.0698C325.5523,-137.5024 273.9609,-99.343 241.5053,-75.3374"/>
<polygon fill="#000000" stroke="#000000" points="243.4127,-72.3949 233.2916,-69.2622 239.2501,-78.0228 243.4127,-72.3949"/>
</g>
</g>
</svg>
