<?xml version="1.0" encoding="UTF-8" standalone="no"?>
<!DOCTYPE svg PUBLIC "-//W3C//DTD SVG 1.1//EN"
 "http://www.w3.org/Graphics/SVG/1.1/DTD/svg11.dtd">
<!-- Generated by graphviz version 2.40.1 (20161225.0304)
 -->
<!-- Title: HoTT_Types_Bool Pages: 1 -->
<svg width="1246pt" height="627pt"
 viewBox="0.00 0.00 1246.00 627.00" xmlns="http://www.w3.org/2000/svg" xmlns:xlink="http://www.w3.org/1999/xlink">
<g id="graph0" class="graph" transform="scale(1 1) rotate(0) translate(4 623)">
<title>HoTT_Types_Bool</title>
<polygon fill="#ffffff" stroke="transparent" points="-4,4 -4,-623 1242,-623 1242,4 -4,4"/>
<g id="clust1" class="cluster">
<title>cluster_Bool</title>
<polygon fill="#ffffc3" stroke="#000000" points="8.0129,-8 8.0129,-611 1229.9871,-611 1229.9871,-8 8.0129,-8"/>
<text text-anchor="middle" x="32.0129" y="-595.8" font-family="Times,serif" font-size="14.00" fill="#000000">Bool</text>
</g>
<!-- Bool_abelian_aut_bool -->
<g id="node1" class="node">
<title>Bool_abelian_aut_bool</title>
<g id="a_node1"><a xlink:href="Bool.html#abelian_aut_bool" xlink:title="abelian_aut_bool">
<ellipse fill="#f070d1" stroke="#000000" cx="472.1942" cy="-466" rx="89.0807" ry="18"/>
<ellipse fill="none" stroke="#000000" cx="472.1942" cy="-466" rx="93.0825" ry="22"/>
<ellipse fill="none" stroke="#000000" cx="472.1942" cy="-466" rx="97.0842" ry="26"/>
<text text-anchor="middle" x="472.1942" y="-462.3" font-family="Times,serif" font-size="14.00" fill="#000000">abelian_aut_bool</text>
</a>
</g>
</g>
<!-- Bool_aut_bool_canonical -->
<g id="node5" class="node">
<title>Bool_aut_bool_canonical</title>
<g id="a_node5"><a xlink:href="Bool.html#aut_bool_canonical" xlink:title="aut_bool_canonical">
<ellipse fill="#f070d1" stroke="#000000" cx="352.1942" cy="-378" rx="99.3824" ry="18"/>
<text text-anchor="middle" x="352.1942" y="-374.3" font-family="Times,serif" font-size="14.00" fill="#000000">aut_bool_canonical</text>
</a>
</g>
</g>
<!-- Bool_abelian_aut_bool&#45;&gt;Bool_aut_bool_canonical -->
<g id="edge1" class="edge">
<title>Bool_abelian_aut_bool&#45;&gt;Bool_aut_bool_canonical</title>
<path fill="none" stroke="#000000" d="M438.7675,-441.4871C421.8776,-429.1012 401.4671,-414.1335 384.707,-401.8428"/>
<polygon fill="#000000" stroke="#000000" points="386.4472,-398.7786 376.3133,-395.6874 382.3076,-404.4235 386.4472,-398.7786"/>
</g>
<!-- Bool_idmap_bool_ne_negb -->
<g id="node2" class="node">
<title>Bool_idmap_bool_ne_negb</title>
<g id="a_node2"><a xlink:href="Bool.html#idmap_bool_ne_negb" xlink:title="idmap_bool_ne_negb">
<ellipse fill="#f070d1" stroke="#000000" cx="718.1942" cy="-378" rx="107.7885" ry="18"/>
<ellipse fill="none" stroke="#000000" cx="718.1942" cy="-378" rx="111.7847" ry="22"/>
<ellipse fill="none" stroke="#000000" cx="718.1942" cy="-378" rx="115.781" ry="26"/>
<text text-anchor="middle" x="718.1942" y="-374.3" font-family="Times,serif" font-size="14.00" fill="#000000">idmap_bool_ne_negb</text>
</a>
</g>
</g>
<!-- Bool_equiv_negb -->
<g id="node7" class="node">
<title>Bool_equiv_negb</title>
<g id="a_node7"><a xlink:href="Bool.html#equiv_negb" xlink:title="equiv_negb">
<ellipse fill="#f070d1" stroke="#000000" cx="465.1942" cy="-290" rx="63.8893" ry="18"/>
<text text-anchor="middle" x="465.1942" y="-286.3" font-family="Times,serif" font-size="14.00" fill="#000000">equiv_negb</text>
</a>
</g>
</g>
<!-- Bool_idmap_bool_ne_negb&#45;&gt;Bool_equiv_negb -->
<g id="edge2" class="edge">
<title>Bool_idmap_bool_ne_negb&#45;&gt;Bool_equiv_negb</title>
<path fill="none" stroke="#000000" d="M655.3298,-356.1341C612.0662,-341.0859 555.375,-321.3672 515.1854,-307.3883"/>
<polygon fill="#000000" stroke="#000000" points="516.1924,-304.0329 505.5976,-304.0533 513.8927,-310.6444 516.1924,-304.0329"/>
</g>
<!-- Bool_true_ne_false -->
<g id="node14" class="node">
<title>Bool_true_ne_false</title>
<g id="a_node14"><a xlink:href="Bool.html#true_ne_false" xlink:title="true_ne_false">
<ellipse fill="#f070d1" stroke="#000000" cx="1110.1942" cy="-202" rx="73.387" ry="18"/>
<text text-anchor="middle" x="1110.1942" y="-198.3" font-family="Times,serif" font-size="14.00" fill="#000000">true_ne_false</text>
</a>
</g>
</g>
<!-- Bool_idmap_bool_ne_negb&#45;&gt;Bool_true_ne_false -->
<g id="edge3" class="edge">
<title>Bool_idmap_bool_ne_negb&#45;&gt;Bool_true_ne_false</title>
<path fill="none" stroke="#000000" d="M770.2487,-354.6286C847.7827,-319.8174 992.2938,-254.9348 1065.3889,-222.1167"/>
<polygon fill="#000000" stroke="#000000" points="1067.1008,-225.1847 1074.79,-217.8958 1064.2337,-218.7988 1067.1008,-225.1847"/>
</g>
<!-- Bool_aut_bool_idmap_or_negb -->
<g id="node3" class="node">
<title>Bool_aut_bool_idmap_or_negb</title>
<g id="a_node3"><a xlink:href="Bool.html#aut_bool_idmap_or_negb" xlink:title="aut_bool_idmap_or_negb">
<ellipse fill="#f070d1" stroke="#000000" cx="251.1942" cy="-554" rx="126.1724" ry="18"/>
<ellipse fill="none" stroke="#000000" cx="251.1942" cy="-554" rx="130.175" ry="22"/>
<ellipse fill="none" stroke="#000000" cx="251.1942" cy="-554" rx="134.1777" ry="26"/>
<text text-anchor="middle" x="251.1942" y="-550.3" font-family="Times,serif" font-size="14.00" fill="#000000">aut_bool_idmap_or_negb</text>
</a>
</g>
</g>
<!-- Bool_equiv_bool_aut_bool -->
<g id="node4" class="node">
<title>Bool_equiv_bool_aut_bool</title>
<g id="a_node4"><a xlink:href="Bool.html#equiv_bool_aut_bool" xlink:title="equiv_bool_aut_bool">
<ellipse fill="#f070d1" stroke="#000000" cx="251.1942" cy="-466" rx="104.7816" ry="18"/>
<text text-anchor="middle" x="251.1942" y="-462.3" font-family="Times,serif" font-size="14.00" fill="#000000">equiv_bool_aut_bool</text>
</a>
</g>
</g>
<!-- Bool_aut_bool_idmap_or_negb&#45;&gt;Bool_equiv_bool_aut_bool -->
<g id="edge4" class="edge">
<title>Bool_aut_bool_idmap_or_negb&#45;&gt;Bool_equiv_bool_aut_bool</title>
<path fill="none" stroke="#000000" d="M251.1942,-527.5971C251.1942,-517.0414 251.1942,-504.868 251.1942,-494.1448"/>
<polygon fill="#000000" stroke="#000000" points="254.6943,-494.0188 251.1942,-484.0188 247.6943,-494.0188 254.6943,-494.0188"/>
</g>
<!-- Bool_equiv_bool_aut_bool&#45;&gt;Bool_aut_bool_canonical -->
<g id="edge5" class="edge">
<title>Bool_equiv_bool_aut_bool&#45;&gt;Bool_aut_bool_canonical</title>
<path fill="none" stroke="#000000" d="M271.633,-448.1919C286.6919,-435.0713 307.3579,-417.0653 323.9882,-402.5755"/>
<polygon fill="#000000" stroke="#000000" points="326.5453,-404.9897 331.7857,-395.7816 321.9468,-399.712 326.5453,-404.9897"/>
</g>
<!-- Bool_eval_bool_isequiv -->
<g id="node6" class="node">
<title>Bool_eval_bool_isequiv</title>
<g id="a_node6"><a xlink:href="Bool.html#eval_bool_isequiv" xlink:title="eval_bool_isequiv">
<ellipse fill="#f070d1" stroke="#000000" cx="265.1942" cy="-290" rx="92.0841" ry="18"/>
<text text-anchor="middle" x="265.1942" y="-286.3" font-family="Times,serif" font-size="14.00" fill="#000000">eval_bool_isequiv</text>
</a>
</g>
</g>
<!-- Bool_aut_bool_canonical&#45;&gt;Bool_eval_bool_isequiv -->
<g id="edge6" class="edge">
<title>Bool_aut_bool_canonical&#45;&gt;Bool_eval_bool_isequiv</title>
<path fill="none" stroke="#000000" d="M334.5884,-360.1919C321.7348,-347.1906 304.1388,-329.3922 289.882,-314.9715"/>
<polygon fill="#000000" stroke="#000000" points="292.2933,-312.4323 282.7737,-307.7816 287.3153,-317.3537 292.2933,-312.4323"/>
</g>
<!-- Bool_aut_bool_canonical&#45;&gt;Bool_equiv_negb -->
<g id="edge7" class="edge">
<title>Bool_aut_bool_canonical&#45;&gt;Bool_equiv_negb</title>
<path fill="none" stroke="#000000" d="M374.7898,-360.4034C392.1822,-346.8589 416.3763,-328.0174 435.3594,-313.2342"/>
<polygon fill="#000000" stroke="#000000" points="437.6663,-315.8738 443.4056,-306.9681 433.3653,-310.351 437.6663,-315.8738"/>
</g>
<!-- Bool_negb -->
<g id="node20" class="node">
<title>Bool_negb</title>
<g id="a_node20"><a xlink:href="Bool.html#negb" xlink:title="negb">
<ellipse fill="#f070d1" stroke="#000000" cx="403.1942" cy="-114" rx="33.5952" ry="18"/>
<text text-anchor="middle" x="403.1942" y="-110.3" font-family="Times,serif" font-size="14.00" fill="#000000">negb</text>
</a>
</g>
</g>
<!-- Bool_eval_bool_isequiv&#45;&gt;Bool_negb -->
<g id="edge8" class="edge">
<title>Bool_eval_bool_isequiv&#45;&gt;Bool_negb</title>
<path fill="none" stroke="#000000" d="M255.4238,-271.8949C243.8299,-247.6649 228.5113,-204.4514 249.1942,-176 279.6898,-134.0501 313.0249,-161.5601 360.1942,-140 364.4142,-138.0711 368.7369,-135.8214 372.9373,-133.4675"/>
<polygon fill="#000000" stroke="#000000" points="375.0005,-136.3147 381.8502,-128.2319 371.4551,-130.279 375.0005,-136.3147"/>
</g>
<!-- Bool_isequiv_negb -->
<g id="node8" class="node">
<title>Bool_isequiv_negb</title>
<g id="a_node8"><a xlink:href="Bool.html#isequiv_negb" xlink:title="isequiv_negb">
<ellipse fill="#f070d1" stroke="#000000" cx="465.1942" cy="-202" rx="71.4873" ry="18"/>
<text text-anchor="middle" x="465.1942" y="-198.3" font-family="Times,serif" font-size="14.00" fill="#000000">isequiv_negb</text>
</a>
</g>
</g>
<!-- Bool_equiv_negb&#45;&gt;Bool_isequiv_negb -->
<g id="edge9" class="edge">
<title>Bool_equiv_negb&#45;&gt;Bool_isequiv_negb</title>
<path fill="none" stroke="#000000" d="M465.1942,-271.7663C465.1942,-259.8492 465.1942,-244.0384 465.1942,-230.4817"/>
<polygon fill="#000000" stroke="#000000" points="468.6943,-230.2103 465.1942,-220.2103 461.6943,-230.2103 468.6943,-230.2103"/>
</g>
<!-- Bool_isequiv_negb&#45;&gt;Bool_negb -->
<g id="edge10" class="edge">
<title>Bool_isequiv_negb&#45;&gt;Bool_negb</title>
<path fill="none" stroke="#000000" d="M452.6475,-184.1919C443.5638,-171.2989 431.1565,-153.6884 421.0421,-139.3326"/>
<polygon fill="#000000" stroke="#000000" points="423.7118,-137.0449 415.0911,-130.8859 417.9895,-141.0766 423.7118,-137.0449"/>
</g>
<!-- Bool_equiv_bool_forall_prod -->
<g id="node9" class="node">
<title>Bool_equiv_bool_forall_prod</title>
<g id="a_node9"><a xlink:href="Bool.html#equiv_bool_forall_prod" xlink:title="equiv_bool_forall_prod">
<ellipse fill="#f070d1" stroke="#000000" cx="672.1942" cy="-114" rx="116.1899" ry="18"/>
<ellipse fill="none" stroke="#000000" cx="672.1942" cy="-114" rx="120.1847" ry="22"/>
<ellipse fill="none" stroke="#000000" cx="672.1942" cy="-114" rx="124.1796" ry="26"/>
<text text-anchor="middle" x="672.1942" y="-110.3" font-family="Times,serif" font-size="14.00" fill="#000000">equiv_bool_forall_prod</text>
</a>
</g>
</g>
<!-- Bool_false -->
<g id="node26" class="node">
<title>Bool_false</title>
<g id="a_node26"><a xlink:href="Bool.html#false" xlink:title="false">
<ellipse fill="#7faaff" stroke="#000000" cx="966.1942" cy="-34" rx="32.4942" ry="18"/>
<text text-anchor="middle" x="966.1942" y="-30.3" font-family="Times,serif" font-size="14.00" fill="#000000">false</text>
</a>
</g>
</g>
<!-- Bool_equiv_bool_forall_prod&#45;&gt;Bool_false -->
<g id="edge11" class="edge">
<title>Bool_equiv_bool_forall_prod&#45;&gt;Bool_false</title>
<path fill="none" stroke="#000000" d="M748.2888,-93.294C805.5485,-77.7131 881.6823,-56.9964 927.1375,-44.6277"/>
<polygon fill="#000000" stroke="#000000" points="928.1729,-47.9733 936.903,-41.9704 926.3349,-41.2189 928.1729,-47.9733"/>
</g>
<!-- Bool_true -->
<g id="node27" class="node">
<title>Bool_true</title>
<g id="a_node27"><a xlink:href="Bool.html#true" xlink:title="true">
<ellipse fill="#7faaff" stroke="#000000" cx="623.1942" cy="-34" rx="30.5947" ry="18"/>
<text text-anchor="middle" x="623.1942" y="-30.3" font-family="Times,serif" font-size="14.00" fill="#000000">true</text>
</a>
</g>
</g>
<!-- Bool_equiv_bool_forall_prod&#45;&gt;Bool_true -->
<g id="edge12" class="edge">
<title>Bool_equiv_bool_forall_prod&#45;&gt;Bool_true</title>
<path fill="none" stroke="#000000" d="M656.1497,-87.805C650.6234,-78.7823 644.4427,-68.6915 638.9404,-59.7081"/>
<polygon fill="#000000" stroke="#000000" points="641.9212,-57.8737 633.7134,-51.1743 635.9519,-61.53 641.9212,-57.8737"/>
</g>
<!-- Bool_Bool -->
<g id="node28" class="node">
<title>Bool_Bool</title>
<g id="a_node28"><a xlink:href="Bool.html#Bool" xlink:title="Bool">
<ellipse fill="#e2cdfa" stroke="#000000" cx="493.1942" cy="-34" rx="31.3957" ry="18"/>
<text text-anchor="middle" x="493.1942" y="-30.3" font-family="Times,serif" font-size="14.00" fill="#000000">Bool</text>
</a>
</g>
</g>
<!-- Bool_equiv_bool_forall_prod&#45;&gt;Bool_Bool -->
<g id="edge13" class="edge">
<title>Bool_equiv_bool_forall_prod&#45;&gt;Bool_Bool</title>
<path fill="none" stroke="#000000" d="M619.4564,-90.4301C589.8286,-77.1886 553.6954,-61.0396 527.6862,-49.4154"/>
<polygon fill="#000000" stroke="#000000" points="528.8061,-46.0823 518.2482,-45.1974 525.9498,-52.4731 528.8061,-46.0823"/>
</g>
<!-- Bool_negb_ne -->
<g id="node10" class="node">
<title>Bool_negb_ne</title>
<g id="a_node10"><a xlink:href="Bool.html#negb_ne" xlink:title="negb_ne">
<ellipse fill="#f070d1" stroke="#000000" cx="316.1942" cy="-202" rx="50.0849" ry="18"/>
<ellipse fill="none" stroke="#000000" cx="316.1942" cy="-202" rx="54.088" ry="22"/>
<ellipse fill="none" stroke="#000000" cx="316.1942" cy="-202" rx="58.0912" ry="26"/>
<text text-anchor="middle" x="316.1942" y="-198.3" font-family="Times,serif" font-size="14.00" fill="#000000">negb_ne</text>
</a>
</g>
</g>
<!-- Bool_negb_ne&#45;&gt;Bool_negb -->
<g id="edge14" class="edge">
<title>Bool_negb_ne&#45;&gt;Bool_negb</title>
<path fill="none" stroke="#000000" d="M339.9673,-177.9536C352.4664,-165.3109 367.7222,-149.8797 380.1166,-137.3428"/>
<polygon fill="#000000" stroke="#000000" points="382.8723,-139.5337 387.4139,-129.9616 377.8944,-134.6123 382.8723,-139.5337"/>
</g>
<!-- Bool_not_fixed_negb -->
<g id="node11" class="node">
<title>Bool_not_fixed_negb</title>
<g id="a_node11"><a xlink:href="Bool.html#not_fixed_negb" xlink:title="not_fixed_negb">
<ellipse fill="#f070d1" stroke="#000000" cx="695.1942" cy="-290" rx="81.4644" ry="18"/>
<ellipse fill="none" stroke="#000000" cx="695.1942" cy="-290" rx="85.4753" ry="22"/>
<ellipse fill="none" stroke="#000000" cx="695.1942" cy="-290" rx="89.4862" ry="26"/>
<text text-anchor="middle" x="695.1942" y="-286.3" font-family="Times,serif" font-size="14.00" fill="#000000">not_fixed_negb</text>
</a>
</g>
</g>
<!-- Bool_not_fixed_negb&#45;&gt;Bool_true_ne_false -->
<g id="edge15" class="edge">
<title>Bool_not_fixed_negb&#45;&gt;Bool_true_ne_false</title>
<path fill="none" stroke="#000000" d="M774.3249,-277.8073C841.728,-266.796 940.9248,-249.1082 1026.1942,-228 1036.0856,-225.5514 1046.5297,-222.6121 1056.5657,-219.6044"/>
<polygon fill="#000000" stroke="#000000" points="1057.8899,-222.8596 1066.4302,-216.5895 1055.8438,-216.1652 1057.8899,-222.8596"/>
</g>
<!-- Bool_not_fixed_negb&#45;&gt;Bool_negb -->
<g id="edge16" class="edge">
<title>Bool_not_fixed_negb&#45;&gt;Bool_negb</title>
<path fill="none" stroke="#000000" d="M632.8057,-271.3999C609.0539,-261.6941 583.3624,-247.6406 565.1942,-228 548.3797,-209.8229 562.8352,-193.3761 545.1942,-176 512.1362,-143.4384 489.1189,-159.8848 447.1942,-140 442.815,-137.923 438.3013,-135.5485 433.9099,-133.0981"/>
<polygon fill="#000000" stroke="#000000" points="435.559,-130.0087 425.15,-128.0328 432.0549,-136.0686 435.559,-130.0087"/>
</g>
<!-- Bool_hset_bool -->
<g id="node12" class="node">
<title>Bool_hset_bool</title>
<g id="a_node12"><a xlink:href="Bool.html#hset_bool" xlink:title="hset_bool">
<ellipse fill="#f070d1" stroke="#000000" cx="1110.1942" cy="-378" rx="55.46" ry="18"/>
<ellipse fill="none" stroke="#000000" cx="1110.1942" cy="-378" rx="59.4756" ry="22"/>
<ellipse fill="none" stroke="#000000" cx="1110.1942" cy="-378" rx="63.4911" ry="26"/>
<text text-anchor="middle" x="1110.1942" y="-374.3" font-family="Times,serif" font-size="14.00" fill="#000000">hset_bool</text>
</a>
</g>
</g>
<!-- Bool_decidable_paths_bool -->
<g id="node13" class="node">
<title>Bool_decidable_paths_bool</title>
<g id="a_node13"><a xlink:href="Bool.html#decidable_paths_bool" xlink:title="decidable_paths_bool">
<ellipse fill="#f070d1" stroke="#000000" cx="1110.1942" cy="-290" rx="110.4804" ry="18"/>
<text text-anchor="middle" x="1110.1942" y="-286.3" font-family="Times,serif" font-size="14.00" fill="#000000">decidable_paths_bool</text>
</a>
</g>
</g>
<!-- Bool_hset_bool&#45;&gt;Bool_decidable_paths_bool -->
<g id="edge17" class="edge">
<title>Bool_hset_bool&#45;&gt;Bool_decidable_paths_bool</title>
<path fill="none" stroke="#000000" d="M1110.1942,-351.5971C1110.1942,-341.0414 1110.1942,-328.868 1110.1942,-318.1448"/>
<polygon fill="#000000" stroke="#000000" points="1113.6943,-318.0188 1110.1942,-308.0188 1106.6943,-318.0188 1113.6943,-318.0188"/>
</g>
<!-- Bool_decidable_paths_bool&#45;&gt;Bool_true_ne_false -->
<g id="edge18" class="edge">
<title>Bool_decidable_paths_bool&#45;&gt;Bool_true_ne_false</title>
<path fill="none" stroke="#000000" d="M1110.1942,-271.7663C1110.1942,-259.8492 1110.1942,-244.0384 1110.1942,-230.4817"/>
<polygon fill="#000000" stroke="#000000" points="1113.6943,-230.2103 1110.1942,-220.2103 1106.6943,-230.2103 1113.6943,-230.2103"/>
</g>
<!-- Bool_false_ne_true -->
<g id="node15" class="node">
<title>Bool_false_ne_true</title>
<g id="a_node15"><a xlink:href="Bool.html#false_ne_true" xlink:title="false_ne_true">
<ellipse fill="#f070d1" stroke="#000000" cx="1109.1942" cy="-114" rx="73.387" ry="18"/>
<text text-anchor="middle" x="1109.1942" y="-110.3" font-family="Times,serif" font-size="14.00" fill="#000000">false_ne_true</text>
</a>
</g>
</g>
<!-- Bool_true_ne_false&#45;&gt;Bool_false_ne_true -->
<g id="edge19" class="edge">
<title>Bool_true_ne_false&#45;&gt;Bool_false_ne_true</title>
<path fill="none" stroke="#000000" d="M1109.987,-183.7663C1109.8516,-171.8492 1109.6719,-156.0384 1109.5178,-142.4817"/>
<polygon fill="#000000" stroke="#000000" points="1113.0146,-142.1698 1109.4011,-132.2103 1106.0151,-142.2495 1113.0146,-142.1698"/>
</g>
<!-- Bool_false_ne_true&#45;&gt;Bool_false -->
<g id="edge20" class="edge">
<title>Bool_false_ne_true&#45;&gt;Bool_false</title>
<path fill="none" stroke="#000000" d="M1079.5645,-97.4239C1055.7712,-84.113 1022.4267,-65.4588 998.06,-51.827"/>
<polygon fill="#000000" stroke="#000000" points="999.6353,-48.6979 989.1994,-46.87 996.2177,-54.8069 999.6353,-48.6979"/>
</g>
<!-- Bool_false_ne_true&#45;&gt;Bool_true -->
<g id="edge21" class="edge">
<title>Bool_false_ne_true&#45;&gt;Bool_true</title>
<path fill="none" stroke="#000000" d="M1066.9195,-99.2305C1053.9744,-95.123 1039.609,-90.9771 1026.1942,-88 895.3196,-58.9556 736.8406,-43.2862 663.7361,-37.1315"/>
<polygon fill="#000000" stroke="#000000" points="663.8376,-33.628 653.5832,-36.292 663.2607,-40.6042 663.8376,-33.628"/>
</g>
<!-- Bool_false_ne_true&#45;&gt;Bool_Bool -->
<g id="edge22" class="edge">
<title>Bool_false_ne_true&#45;&gt;Bool_Bool</title>
<path fill="none" stroke="#000000" d="M1067.8617,-99.0656C1054.7013,-94.8496 1039.9784,-90.6843 1026.1942,-88 832.2985,-50.2416 778.8203,-79.4165 583.1942,-52 566.3661,-49.6416 547.9406,-46.1246 532.1687,-42.8234"/>
<polygon fill="#000000" stroke="#000000" points="532.7416,-39.3669 522.2309,-40.6997 531.2786,-46.2123 532.7416,-39.3669"/>
</g>
<!-- Bool_trunc_if -->
<g id="node16" class="node">
<title>Bool_trunc_if</title>
<g id="a_node16"><a xlink:href="Bool.html#trunc_if" xlink:title="trunc_if">
<ellipse fill="#f070d1" stroke="#000000" cx="208.1942" cy="-114" rx="47.3994" ry="18"/>
<ellipse fill="none" stroke="#000000" cx="208.1942" cy="-114" rx="51.3955" ry="22"/>
<ellipse fill="none" stroke="#000000" cx="208.1942" cy="-114" rx="55.3916" ry="26"/>
<text text-anchor="middle" x="208.1942" y="-110.3" font-family="Times,serif" font-size="14.00" fill="#000000">trunc_if</text>
</a>
</g>
</g>
<!-- Bool_trunc_if&#45;&gt;Bool_Bool -->
<g id="edge23" class="edge">
<title>Bool_trunc_if&#45;&gt;Bool_Bool</title>
<path fill="none" stroke="#000000" d="M249.1801,-96.3181C256.7609,-93.3433 264.6628,-90.4355 272.1942,-88 334.6023,-67.8185 409.0398,-51.097 453.6388,-41.8388"/>
<polygon fill="#000000" stroke="#000000" points="454.407,-45.2542 463.4979,-39.8131 452.9981,-38.3974 454.407,-45.2542"/>
</g>
<!-- Bool_implb_impl -->
<g id="node17" class="node">
<title>Bool_implb_impl</title>
<g id="a_node17"><a xlink:href="Bool.html#implb_impl" xlink:title="implb_impl">
<ellipse fill="#f070d1" stroke="#000000" cx="802.1942" cy="-202" rx="62.3011" ry="18"/>
<ellipse fill="none" stroke="#000000" cx="802.1942" cy="-202" rx="66.2951" ry="22"/>
<ellipse fill="none" stroke="#000000" cx="802.1942" cy="-202" rx="70.2891" ry="26"/>
<text text-anchor="middle" x="802.1942" y="-198.3" font-family="Times,serif" font-size="14.00" fill="#000000">implb_impl</text>
</a>
</g>
</g>
<!-- Bool_implb -->
<g id="node19" class="node">
<title>Bool_implb</title>
<g id="a_node19"><a xlink:href="Bool.html#implb" xlink:title="implb">
<ellipse fill="#f070d1" stroke="#000000" cx="493.1942" cy="-114" rx="37.0935" ry="18"/>
<text text-anchor="middle" x="493.1942" y="-110.3" font-family="Times,serif" font-size="14.00" fill="#000000">implb</text>
</a>
</g>
</g>
<!-- Bool_implb_impl&#45;&gt;Bool_implb -->
<g id="edge24" class="edge">
<title>Bool_implb_impl&#45;&gt;Bool_implb</title>
<path fill="none" stroke="#000000" d="M750.6255,-184.0048C741.5428,-181.1293 732.1349,-178.3362 723.1942,-176 642.5726,-154.9341 617.3605,-168.8728 539.1942,-140 534.265,-138.1793 529.2386,-135.8716 524.4053,-133.3861"/>
<polygon fill="#000000" stroke="#000000" points="525.8772,-130.2017 515.4251,-128.4684 522.515,-136.3414 525.8772,-130.2017"/>
</g>
<!-- Bool_implb_impl&#45;&gt;Bool_false -->
<g id="edge25" class="edge">
<title>Bool_implb_impl&#45;&gt;Bool_false</title>
<path fill="none" stroke="#000000" d="M852.9833,-183.7841C862.5916,-180.8272 872.6295,-178.0631 882.1942,-176 953.0086,-160.7254 1157.8803,-193.9794 1206.1942,-140 1221.6075,-122.7793 1220.6316,-106.0467 1206.1942,-88 1181.9193,-57.6564 1070.8878,-43.166 1008.7039,-37.3229"/>
<polygon fill="#000000" stroke="#000000" points="1008.7028,-33.8087 998.4283,-36.3943 1008.0726,-40.7802 1008.7028,-33.8087"/>
</g>
<!-- Bool_implb_true -->
<g id="node18" class="node">
<title>Bool_implb_true</title>
<g id="a_node18"><a xlink:href="Bool.html#implb_true" xlink:title="implb_true">
<ellipse fill="#f070d1" stroke="#000000" cx="644.1942" cy="-202" rx="61.9618" ry="18"/>
<ellipse fill="none" stroke="#000000" cx="644.1942" cy="-202" rx="65.9758" ry="22"/>
<ellipse fill="none" stroke="#000000" cx="644.1942" cy="-202" rx="69.9899" ry="26"/>
<text text-anchor="middle" x="644.1942" y="-198.3" font-family="Times,serif" font-size="14.00" fill="#000000">implb_true</text>
</a>
</g>
</g>
<!-- Bool_implb_true&#45;&gt;Bool_implb -->
<g id="edge26" class="edge">
<title>Bool_implb_true&#45;&gt;Bool_implb</title>
<path fill="none" stroke="#000000" d="M606.48,-180.0209C581.8026,-165.6393 549.8687,-147.0289 526.1987,-133.2344"/>
<polygon fill="#000000" stroke="#000000" points="527.648,-130.0281 517.2458,-128.0168 524.1233,-136.076 527.648,-130.0281"/>
</g>
<!-- Bool_implb_true&#45;&gt;Bool_false -->
<g id="edge27" class="edge">
<title>Bool_implb_true&#45;&gt;Bool_false</title>
<path fill="none" stroke="#000000" d="M693.8562,-183.6437C703.4792,-180.6621 713.5663,-177.9252 723.1942,-176 774.3354,-165.7736 1155.7584,-178.2663 1191.1942,-140 1206.897,-123.0429 1205.5028,-106.149 1191.1942,-88 1168.9048,-59.7282 1067.5301,-44.5741 1008.7396,-38.028"/>
<polygon fill="#000000" stroke="#000000" points="1008.954,-34.531 998.6369,-36.9411 1008.2051,-41.4908 1008.954,-34.531"/>
</g>
<!-- Bool_implb&#45;&gt;Bool_true -->
<g id="edge28" class="edge">
<title>Bool_implb&#45;&gt;Bool_true</title>
<path fill="none" stroke="#000000" d="M516.4356,-99.6976C537.8409,-86.5251 569.7239,-66.9048 593.0742,-52.5354"/>
<polygon fill="#000000" stroke="#000000" points="595.1952,-55.3398 601.8774,-47.118 591.5265,-49.3782 595.1952,-55.3398"/>
</g>
<!-- Bool_implb&#45;&gt;Bool_Bool -->
<g id="edge29" class="edge">
<title>Bool_implb&#45;&gt;Bool_Bool</title>
<path fill="none" stroke="#000000" d="M493.1942,-95.8468C493.1942,-85.9251 493.1942,-73.4167 493.1942,-62.2492"/>
<polygon fill="#000000" stroke="#000000" points="496.6943,-62.0814 493.1942,-52.0814 489.6943,-62.0814 496.6943,-62.0814"/>
</g>
<!-- Bool_negb&#45;&gt;Bool_false -->
<g id="edge30" class="edge">
<title>Bool_negb&#45;&gt;Bool_false</title>
<path fill="none" stroke="#000000" d="M423.7929,-99.3542C430.8954,-94.9923 439.1051,-90.6689 447.1942,-88 535.4462,-58.8824 815.5959,-41.7524 923.371,-36.0976"/>
<polygon fill="#000000" stroke="#000000" points="923.745,-39.583 933.5507,-35.5709 923.3832,-32.5924 923.745,-39.583"/>
</g>
<!-- Bool_negb&#45;&gt;Bool_true -->
<g id="edge31" class="edge">
<title>Bool_negb&#45;&gt;Bool_true</title>
<path fill="none" stroke="#000000" d="M424.5871,-99.9885C431.6049,-95.7683 439.564,-91.3682 447.1942,-88 492.8344,-67.853 548.2503,-52.1988 584.5528,-43.0487"/>
<polygon fill="#000000" stroke="#000000" points="585.8517,-46.3328 594.7168,-40.531 584.1686,-39.5381 585.8517,-46.3328"/>
</g>
<!-- Bool_negb&#45;&gt;Bool_Bool -->
<g id="edge32" class="edge">
<title>Bool_negb&#45;&gt;Bool_Bool</title>
<path fill="none" stroke="#000000" d="M420.9753,-98.1946C434.5859,-86.0962 453.5179,-69.2678 468.5834,-55.8762"/>
<polygon fill="#000000" stroke="#000000" points="470.9118,-58.4894 476.0607,-49.2298 466.2613,-53.2575 470.9118,-58.4894"/>
</g>
<!-- Bool_orb -->
<g id="node21" class="node">
<title>Bool_orb</title>
<g id="a_node21"><a xlink:href="Bool.html#orb" xlink:title="orb">
<ellipse fill="#f070d1" stroke="#000000" cx="316.1942" cy="-114" rx="27" ry="18"/>
<ellipse fill="none" stroke="#000000" cx="316.1942" cy="-114" rx="31" ry="22"/>
<ellipse fill="none" stroke="#000000" cx="316.1942" cy="-114" rx="35" ry="26"/>
<text text-anchor="middle" x="316.1942" y="-110.3" font-family="Times,serif" font-size="14.00" fill="#000000">orb</text>
</a>
</g>
</g>
<!-- Bool_orb&#45;&gt;Bool_true -->
<g id="edge33" class="edge">
<title>Bool_orb&#45;&gt;Bool_true</title>
<path fill="none" stroke="#000000" d="M342.4729,-96.5759C348.1455,-93.3613 354.2337,-90.2989 360.1942,-88 365.4403,-85.9766 512.2706,-56.3095 584.212,-41.8321"/>
<polygon fill="#000000" stroke="#000000" points="585.1438,-45.2148 594.2571,-39.8114 583.7633,-38.3523 585.1438,-45.2148"/>
</g>
<!-- Bool_orb&#45;&gt;Bool_Bool -->
<g id="edge34" class="edge">
<title>Bool_orb&#45;&gt;Bool_Bool</title>
<path fill="none" stroke="#000000" d="M343.3088,-97.1329C348.8159,-93.9483 354.6279,-90.7557 360.1942,-88 392.1193,-72.1949 429.8596,-57.2037 456.967,-47.0454"/>
<polygon fill="#000000" stroke="#000000" points="458.2849,-50.2896 466.4424,-43.5289 455.8494,-43.7269 458.2849,-50.2896"/>
</g>
<!-- Bool_andb -->
<g id="node22" class="node">
<title>Bool_andb</title>
<g id="a_node22"><a xlink:href="Bool.html#andb" xlink:title="andb">
<ellipse fill="#f070d1" stroke="#000000" cx="856.1942" cy="-114" rx="33.6336" ry="18"/>
<ellipse fill="none" stroke="#000000" cx="856.1942" cy="-114" rx="37.6143" ry="22"/>
<ellipse fill="none" stroke="#000000" cx="856.1942" cy="-114" rx="41.595" ry="26"/>
<text text-anchor="middle" x="856.1942" y="-110.3" font-family="Times,serif" font-size="14.00" fill="#000000">andb</text>
</a>
</g>
</g>
<!-- Bool_andb&#45;&gt;Bool_false -->
<g id="edge35" class="edge">
<title>Bool_andb&#45;&gt;Bool_false</title>
<path fill="none" stroke="#000000" d="M883.3852,-94.2247C899.9635,-82.1677 921.1164,-66.7839 937.8933,-54.5825"/>
<polygon fill="#000000" stroke="#000000" points="940.1914,-57.2389 946.2202,-48.5265 936.0742,-51.5777 940.1914,-57.2389"/>
</g>
<!-- Bool_andb&#45;&gt;Bool_Bool -->
<g id="edge36" class="edge">
<title>Bool_andb&#45;&gt;Bool_Bool</title>
<path fill="none" stroke="#000000" d="M825.2941,-96.3271C818.8102,-93.1703 811.9008,-90.1936 805.1942,-88 710.1913,-56.9265 681.5512,-69.8044 583.1942,-52 566.602,-48.9965 548.3488,-45.4005 532.643,-42.2149"/>
<polygon fill="#000000" stroke="#000000" points="533.231,-38.7628 522.7329,-40.1912 531.8304,-45.6213 533.231,-38.7628"/>
</g>
<!-- Bool_Bool_rect -->
<g id="node23" class="node">
<title>Bool_Bool_rect</title>
<g id="a_node23"><a xlink:href="Bool.html#Bool_rect" xlink:title="Bool_rect">
<ellipse fill="#f070d1" stroke="#000000" cx="954.1942" cy="-202" rx="55.46" ry="18"/>
<ellipse fill="none" stroke="#000000" cx="954.1942" cy="-202" rx="59.4756" ry="22"/>
<ellipse fill="none" stroke="#000000" cx="954.1942" cy="-202" rx="63.4911" ry="26"/>
<text text-anchor="middle" x="954.1942" y="-198.3" font-family="Times,serif" font-size="14.00" fill="#000000">Bool_rect</text>
</a>
</g>
</g>
<!-- Bool_Bool_ind -->
<g id="node25" class="node">
<title>Bool_Bool_ind</title>
<g id="a_node25"><a xlink:href="Bool.html#Bool_ind" xlink:title="Bool_ind">
<ellipse fill="#f070d1" stroke="#000000" cx="966.1942" cy="-114" rx="50.8918" ry="18"/>
<text text-anchor="middle" x="966.1942" y="-110.3" font-family="Times,serif" font-size="14.00" fill="#000000">Bool_ind</text>
</a>
</g>
</g>
<!-- Bool_Bool_rect&#45;&gt;Bool_Bool_ind -->
<g id="edge37" class="edge">
<title>Bool_Bool_rect&#45;&gt;Bool_Bool_ind</title>
<path fill="none" stroke="#000000" d="M957.7946,-175.5971C959.234,-165.0414 960.894,-152.868 962.3562,-142.1448"/>
<polygon fill="#000000" stroke="#000000" points="965.8538,-142.4 963.7371,-132.0188 958.9179,-141.4542 965.8538,-142.4"/>
</g>
<!-- Bool_Bool_rec -->
<g id="node24" class="node">
<title>Bool_Bool_rec</title>
<g id="a_node24"><a xlink:href="Bool.html#Bool_rec" xlink:title="Bool_rec">
<ellipse fill="#f070d1" stroke="#000000" cx="75.1942" cy="-114" rx="51.2121" ry="18"/>
<ellipse fill="none" stroke="#000000" cx="75.1942" cy="-114" rx="55.2017" ry="22"/>
<ellipse fill="none" stroke="#000000" cx="75.1942" cy="-114" rx="59.1913" ry="26"/>
<text text-anchor="middle" x="75.1942" y="-110.3" font-family="Times,serif" font-size="14.00" fill="#000000">Bool_rec</text>
</a>
</g>
</g>
<!-- Bool_Bool_rec&#45;&gt;Bool_Bool -->
<g id="edge38" class="edge">
<title>Bool_Bool_rec&#45;&gt;Bool_Bool</title>
<path fill="none" stroke="#000000" d="M118.5537,-96.1078C126.9601,-93.0835 135.775,-90.2121 144.1942,-88 253.3917,-59.3093 386.0761,-43.9532 451.9551,-37.5934"/>
<polygon fill="#000000" stroke="#000000" points="452.3147,-41.0751 461.9409,-36.6493 451.6558,-34.1062 452.3147,-41.0751"/>
</g>
<!-- Bool_Bool_ind&#45;&gt;Bool_false -->
<g id="edge39" class="edge">
<title>Bool_Bool_ind&#45;&gt;Bool_false</title>
<path fill="none" stroke="#000000" d="M966.1942,-95.8468C966.1942,-85.9251 966.1942,-73.4167 966.1942,-62.2492"/>
<polygon fill="#000000" stroke="#000000" points="969.6943,-62.0814 966.1942,-52.0814 962.6943,-62.0814 969.6943,-62.0814"/>
</g>
<!-- Bool_Bool_ind&#45;&gt;Bool_true -->
<g id="edge40" class="edge">
<title>Bool_Bool_ind&#45;&gt;Bool_true</title>
<path fill="none" stroke="#000000" d="M936.3814,-99.2898C927.1876,-95.1843 916.9209,-91.0247 907.1942,-88 822.55,-61.6786 719.5222,-45.9733 663.7656,-38.7641"/>
<polygon fill="#000000" stroke="#000000" points="663.9524,-35.2599 653.5919,-37.4756 663.0728,-42.2044 663.9524,-35.2599"/>
</g>
<!-- Bool_Bool_ind&#45;&gt;Bool_Bool -->
<g id="edge41" class="edge">
<title>Bool_Bool_ind&#45;&gt;Bool_Bool</title>
<path fill="none" stroke="#000000" d="M937.1222,-99.0908C927.7817,-94.876 917.2466,-90.705 907.1942,-88 767.285,-50.3515 726.3651,-74.2282 583.1942,-52 566.5319,-49.4131 548.2667,-45.8892 532.5707,-42.645"/>
<polygon fill="#000000" stroke="#000000" points="533.1757,-39.1958 522.6699,-40.5662 531.7373,-46.0464 533.1757,-39.1958"/>
</g>
</g>
</svg>
