<?xml version="1.0" encoding="UTF-8" standalone="no"?>
<!DOCTYPE svg PUBLIC "-//W3C//DTD SVG 1.1//EN"
 "http://www.w3.org/Graphics/SVG/1.1/DTD/svg11.dtd">
<!-- Generated by graphviz version 2.40.1 (20161225.0304)
 -->
<!-- Title: HoTT_WildCat_Sum Pages: 1 -->
<svg width="510pt" height="259pt"
 viewBox="0.00 0.00 510.00 259.00" xmlns="http://www.w3.org/2000/svg" xmlns:xlink="http://www.w3.org/1999/xlink">
<g id="graph0" class="graph" transform="scale(1 1) rotate(0) translate(4 255)">
<title>HoTT_WildCat_Sum</title>
<polygon fill="#ffffff" stroke="transparent" points="-4,4 -4,-255 506,-255 506,4 -4,4"/>
<g id="clust1" class="cluster">
<title>cluster_Sum</title>
<polygon fill="#ffffc3" stroke="#000000" points="11.7427,-8 11.7427,-243 490.2573,-243 490.2573,-8 11.7427,-8"/>
<text text-anchor="middle" x="36.2427" y="-227.8" font-family="Times,serif" font-size="14.00" fill="#000000">Sum</text>
</g>
<!-- Sum_is1cat_sum -->
<g id="node1" class="node">
<title>Sum_is1cat_sum</title>
<g id="a_node1"><a xlink:href="Sum.html#is1cat_sum" xlink:title="is1cat_sum">
<ellipse fill="#f070d1" stroke="#000000" cx="253.7018" cy="-186" rx="63.8675" ry="18"/>
<ellipse fill="none" stroke="#000000" cx="253.7018" cy="-186" rx="67.8784" ry="22"/>
<ellipse fill="none" stroke="#000000" cx="253.7018" cy="-186" rx="71.8892" ry="26"/>
<text text-anchor="middle" x="253.7018" y="-182.3" font-family="Times,serif" font-size="14.00" fill="#000000">is1cat_sum</text>
</a>
</g>
</g>
<!-- Sum_is2graph_sum -->
<g id="node2" class="node">
<title>Sum_is2graph_sum</title>
<g id="a_node2"><a xlink:href="Sum.html#is2graph_sum" xlink:title="is2graph_sum">
<ellipse fill="#f070d1" stroke="#000000" cx="134.7018" cy="-106" rx="76.0865" ry="18"/>
<text text-anchor="middle" x="134.7018" y="-102.3" font-family="Times,serif" font-size="14.00" fill="#000000">is2graph_sum</text>
</a>
</g>
</g>
<!-- Sum_is1cat_sum&#45;&gt;Sum_is2graph_sum -->
<g id="edge1" class="edge">
<title>Sum_is1cat_sum&#45;&gt;Sum_is2graph_sum</title>
<path fill="none" stroke="#000000" d="M219.6011,-163.0752C203.6072,-152.323 184.599,-139.5444 168.6272,-128.807"/>
<polygon fill="#000000" stroke="#000000" points="170.3565,-125.7522 160.1048,-123.0777 166.4511,-131.5615 170.3565,-125.7522"/>
</g>
<!-- Sum_is01cat_sum -->
<g id="node3" class="node">
<title>Sum_is01cat_sum</title>
<g id="a_node3"><a xlink:href="Sum.html#is01cat_sum" xlink:title="is01cat_sum">
<ellipse fill="#f070d1" stroke="#000000" cx="375.7018" cy="-106" rx="69.5877" ry="18"/>
<text text-anchor="middle" x="375.7018" y="-102.3" font-family="Times,serif" font-size="14.00" fill="#000000">is01cat_sum</text>
</a>
</g>
</g>
<!-- Sum_is1cat_sum&#45;&gt;Sum_is01cat_sum -->
<g id="edge2" class="edge">
<title>Sum_is1cat_sum&#45;&gt;Sum_is01cat_sum</title>
<path fill="none" stroke="#000000" d="M288.6621,-163.0752C305.178,-152.2451 324.8292,-139.3591 341.2765,-128.5739"/>
<polygon fill="#000000" stroke="#000000" points="343.6009,-131.2352 350.0441,-122.8247 339.7623,-125.3815 343.6009,-131.2352"/>
</g>
<!-- Sum_isgraph_sum -->
<g id="node4" class="node">
<title>Sum_isgraph_sum</title>
<g id="a_node4"><a xlink:href="Sum.html#isgraph_sum" xlink:title="isgraph_sum">
<ellipse fill="#f070d1" stroke="#000000" cx="255.7018" cy="-34" rx="70.3881" ry="18"/>
<text text-anchor="middle" x="255.7018" y="-30.3" font-family="Times,serif" font-size="14.00" fill="#000000">isgraph_sum</text>
</a>
</g>
</g>
<!-- Sum_is2graph_sum&#45;&gt;Sum_isgraph_sum -->
<g id="edge3" class="edge">
<title>Sum_is2graph_sum&#45;&gt;Sum_isgraph_sum</title>
<path fill="none" stroke="#000000" d="M163.0709,-89.1192C179.6071,-79.2794 200.6549,-66.7551 218.507,-56.1324"/>
<polygon fill="#000000" stroke="#000000" points="220.7065,-58.8965 227.5104,-50.775 217.1269,-52.8809 220.7065,-58.8965"/>
</g>
<!-- Sum_is01cat_sum&#45;&gt;Sum_isgraph_sum -->
<g id="edge4" class="edge">
<title>Sum_is01cat_sum&#45;&gt;Sum_isgraph_sum</title>
<path fill="none" stroke="#000000" d="M347.8697,-89.3008C331.3611,-79.3956 310.2396,-66.7227 292.382,-56.0082"/>
<polygon fill="#000000" stroke="#000000" points="293.7585,-52.7524 283.3829,-50.6087 290.157,-58.7549 293.7585,-52.7524"/>
</g>
</g>
</svg>
