<?xml version="1.0" encoding="UTF-8" standalone="no"?>
<!DOCTYPE svg PUBLIC "-//W3C//DTD SVG 1.1//EN"
 "http://www.w3.org/Graphics/SVG/1.1/DTD/svg11.dtd">
<!-- Generated by graphviz version 2.40.1 (20161225.0304)
 -->
<!-- Title: HoTT_Metatheory_FunextVarieties Pages: 1 -->
<svg width="1529pt" height="769pt"
 viewBox="0.00 0.00 1529.00 768.50" xmlns="http://www.w3.org/2000/svg" xmlns:xlink="http://www.w3.org/1999/xlink">
<g id="graph0" class="graph" transform="scale(1 1) rotate(0) translate(4 764.5)">
<title>HoTT_Metatheory_FunextVarieties</title>
<polygon fill="#ffffff" stroke="transparent" points="-4,4 -4,-764.5 1525,-764.5 1525,4 -4,4"/>
<g id="clust1" class="cluster">
<title>cluster_FunextVarieties</title>
<polygon fill="#ffffc3" stroke="#000000" points="8,-10.655 8,-749.845 1513,-749.845 1513,-10.655 8,-10.655"/>
<text text-anchor="middle" x="73" y="-734.645" font-family="Times,serif" font-size="14.00" fill="#000000">FunextVarieties</text>
</g>
<!-- FunextVarieties_Funext_downward_closed -->
<g id="node1" class="node">
<title>FunextVarieties_Funext_downward_closed</title>
<g id="a_node1"><a xlink:href="FunextVarieties.html#Funext_downward_closed" xlink:title="Funext_downward_closed">
<ellipse fill="#f070d1" stroke="#000000" cx="296" cy="-673.655" rx="131.0892" ry="18"/>
<ellipse fill="none" stroke="#000000" cx="296" cy="-673.655" rx="135.0831" ry="22"/>
<ellipse fill="none" stroke="#000000" cx="296" cy="-673.655" rx="139.077" ry="26"/>
<text text-anchor="middle" x="296" y="-669.955" font-family="Times,serif" font-size="14.00" fill="#000000">Funext_downward_closed</text>
</a>
</g>
</g>
<!-- FunextVarieties_NaiveFunext_implies_Funext -->
<g id="node5" class="node">
<title>FunextVarieties_NaiveFunext_implies_Funext</title>
<g id="a_node5"><a xlink:href="FunextVarieties.html#NaiveFunext_implies_Funext" xlink:title="NaiveFunext_implies_Funext">
<ellipse fill="#f070d1" stroke="#000000" cx="213" cy="-556.655" rx="146.774" ry="18"/>
<text text-anchor="middle" x="213" y="-552.955" font-family="Times,serif" font-size="14.00" fill="#000000">NaiveFunext_implies_Funext</text>
</a>
</g>
</g>
<!-- FunextVarieties_Funext_downward_closed&#45;&gt;FunextVarieties_NaiveFunext_implies_Funext -->
<g id="edge1" class="edge">
<title>FunextVarieties_Funext_downward_closed&#45;&gt;FunextVarieties_NaiveFunext_implies_Funext</title>
<path fill="none" stroke="#000000" d="M277.5796,-647.6889C263.9952,-628.5398 245.5732,-602.5715 231.8811,-583.2706"/>
<polygon fill="#000000" stroke="#000000" points="234.598,-581.0512 225.9574,-574.9202 228.8887,-585.1014 234.598,-581.0512"/>
</g>
<!-- FunextVarieties_Funext_implies_NaiveFunext -->
<g id="node12" class="node">
<title>FunextVarieties_Funext_implies_NaiveFunext</title>
<g id="a_node12"><a xlink:href="FunextVarieties.html#Funext_implies_NaiveFunext" xlink:title="Funext_implies_NaiveFunext">
<ellipse fill="#f070d1" stroke="#000000" cx="379" cy="-450.655" rx="146.774" ry="18"/>
<text text-anchor="middle" x="379" y="-446.955" font-family="Times,serif" font-size="14.00" fill="#000000">Funext_implies_NaiveFunext</text>
</a>
</g>
</g>
<!-- FunextVarieties_Funext_downward_closed&#45;&gt;FunextVarieties_Funext_implies_NaiveFunext -->
<g id="edge2" class="edge">
<title>FunextVarieties_Funext_downward_closed&#45;&gt;FunextVarieties_Funext_implies_NaiveFunext</title>
<path fill="none" stroke="#000000" d="M323.8824,-647.7912C340.0849,-630.9408 359.1866,-607.5238 369,-582.655 382.3307,-548.8726 383.0142,-506.5001 381.5848,-479.0147"/>
<polygon fill="#000000" stroke="#000000" points="385.0694,-478.6632 380.9285,-468.9111 378.0841,-479.117 385.0694,-478.6632"/>
</g>
<!-- FunextVarieties_NaiveNondepFunext_implies_Funext -->
<g id="node2" class="node">
<title>FunextVarieties_NaiveNondepFunext_implies_Funext</title>
<g id="a_node2"><a xlink:href="FunextVarieties.html#NaiveNondepFunext_implies_Funext" xlink:title="NaiveNondepFunext_implies_Funext">
<ellipse fill="#f070d1" stroke="#000000" cx="1089" cy="-556.655" rx="183.0768" ry="18"/>
<ellipse fill="none" stroke="#000000" cx="1089" cy="-556.655" rx="187.0722" ry="22"/>
<ellipse fill="none" stroke="#000000" cx="1089" cy="-556.655" rx="191.0677" ry="26"/>
<text text-anchor="middle" x="1089" y="-552.955" font-family="Times,serif" font-size="14.00" fill="#000000">NaiveNondepFunext_implies_Funext</text>
</a>
</g>
</g>
<!-- FunextVarieties_NaiveNondepFunext_implies_WeakFunext -->
<g id="node3" class="node">
<title>FunextVarieties_NaiveNondepFunext_implies_WeakFunext</title>
<g id="a_node3"><a xlink:href="FunextVarieties.html#NaiveNondepFunext_implies_WeakFunext" xlink:title="NaiveNondepFunext_implies_WeakFunext">
<ellipse fill="#f070d1" stroke="#000000" cx="1275" cy="-450.655" rx="208.7631" ry="18"/>
<text text-anchor="middle" x="1275" y="-446.955" font-family="Times,serif" font-size="14.00" fill="#000000">NaiveNondepFunext_implies_WeakFunext</text>
</a>
</g>
</g>
<!-- FunextVarieties_NaiveNondepFunext_implies_Funext&#45;&gt;FunextVarieties_NaiveNondepFunext_implies_WeakFunext -->
<g id="edge3" class="edge">
<title>FunextVarieties_NaiveNondepFunext_implies_Funext&#45;&gt;FunextVarieties_NaiveNondepFunext_implies_WeakFunext</title>
<path fill="none" stroke="#000000" d="M1133.5516,-531.2654C1164.3294,-513.7254 1204.929,-490.5879 1234.7346,-473.6019"/>
<polygon fill="#000000" stroke="#000000" points="1236.6601,-476.5331 1243.6153,-468.5409 1233.1941,-470.4514 1236.6601,-476.5331"/>
</g>
<!-- FunextVarieties_WeakFunext_implies_Funext -->
<g id="node6" class="node">
<title>FunextVarieties_WeakFunext_implies_Funext</title>
<g id="a_node6"><a xlink:href="FunextVarieties.html#WeakFunext_implies_Funext" xlink:title="WeakFunext_implies_Funext">
<ellipse fill="#f070d1" stroke="#000000" cx="903" cy="-450.655" rx="144.8743" ry="18"/>
<text text-anchor="middle" x="903" y="-446.955" font-family="Times,serif" font-size="14.00" fill="#000000">WeakFunext_implies_Funext</text>
</a>
</g>
</g>
<!-- FunextVarieties_NaiveNondepFunext_implies_Funext&#45;&gt;FunextVarieties_WeakFunext_implies_Funext -->
<g id="edge4" class="edge">
<title>FunextVarieties_NaiveNondepFunext_implies_Funext&#45;&gt;FunextVarieties_WeakFunext_implies_Funext</title>
<path fill="none" stroke="#000000" d="M1044.4484,-531.2654C1013.5732,-513.6698 972.8139,-490.4414 942.9827,-473.4408"/>
<polygon fill="#000000" stroke="#000000" points="944.5198,-470.2884 934.0987,-468.3779 941.0539,-476.3701 944.5198,-470.2884"/>
</g>
<!-- FunextVarieties_equiv_postcompose_from_NaiveNondepFunext -->
<g id="node4" class="node">
<title>FunextVarieties_equiv_postcompose_from_NaiveNondepFunext</title>
<g id="a_node4"><a xlink:href="FunextVarieties.html#equiv_postcompose_from_NaiveNondepFunext" xlink:title="equiv_postcompose_from_NaiveNondepFunext">
<ellipse fill="#f070d1" stroke="#000000" cx="1255" cy="-343.655" rx="230.1592" ry="18"/>
<text text-anchor="middle" x="1255" y="-339.955" font-family="Times,serif" font-size="14.00" fill="#000000">equiv_postcompose_from_NaiveNondepFunext</text>
</a>
</g>
</g>
<!-- FunextVarieties_NaiveNondepFunext_implies_WeakFunext&#45;&gt;FunextVarieties_equiv_postcompose_from_NaiveNondepFunext -->
<g id="edge5" class="edge">
<title>FunextVarieties_NaiveNondepFunext_implies_WeakFunext&#45;&gt;FunextVarieties_equiv_postcompose_from_NaiveNondepFunext</title>
<path fill="none" stroke="#000000" d="M1271.6073,-432.5039C1268.5042,-415.9023 1263.8646,-391.0809 1260.2775,-371.8897"/>
<polygon fill="#000000" stroke="#000000" points="1263.6872,-371.0818 1258.4094,-361.8951 1256.8064,-372.368 1263.6872,-371.0818"/>
</g>
<!-- FunextVarieties_WeakFunext -->
<g id="node13" class="node">
<title>FunextVarieties_WeakFunext</title>
<g id="a_node13"><a xlink:href="FunextVarieties.html#WeakFunext" xlink:title="WeakFunext">
<ellipse fill="#f070d1" stroke="#000000" cx="930" cy="-45.655" rx="68.7879" ry="18"/>
<text text-anchor="middle" x="930" y="-41.955" font-family="Times,serif" font-size="14.00" fill="#000000">WeakFunext</text>
</a>
</g>
</g>
<!-- FunextVarieties_NaiveNondepFunext_implies_WeakFunext&#45;&gt;FunextVarieties_WeakFunext -->
<g id="edge6" class="edge">
<title>FunextVarieties_NaiveNondepFunext_implies_WeakFunext&#45;&gt;FunextVarieties_WeakFunext</title>
<path fill="none" stroke="#000000" d="M1346.1942,-433.7049C1403.2173,-418.5181 1476.4812,-394.8133 1494,-369.655 1507.2068,-350.6891 1506.2903,-337.2272 1494,-317.655 1384.1009,-142.6421 1126.4126,-77.5635 1001.0292,-55.6558"/>
<polygon fill="#000000" stroke="#000000" points="1001.5853,-52.2002 991.1393,-53.9696 1000.4087,-59.1006 1001.5853,-52.2002"/>
</g>
<!-- FunextVarieties_NaiveNondepFunext -->
<g id="node14" class="node">
<title>FunextVarieties_NaiveNondepFunext</title>
<g id="a_node14"><a xlink:href="FunextVarieties.html#NaiveNondepFunext" xlink:title="NaiveNondepFunext">
<ellipse fill="#f070d1" stroke="#000000" cx="685" cy="-236.655" rx="107.4815" ry="18"/>
<text text-anchor="middle" x="685" y="-232.955" font-family="Times,serif" font-size="14.00" fill="#000000">NaiveNondepFunext</text>
</a>
</g>
</g>
<!-- FunextVarieties_equiv_postcompose_from_NaiveNondepFunext&#45;&gt;FunextVarieties_NaiveNondepFunext -->
<g id="edge7" class="edge">
<title>FunextVarieties_equiv_postcompose_from_NaiveNondepFunext&#45;&gt;FunextVarieties_NaiveNondepFunext</title>
<path fill="none" stroke="#000000" d="M1166.2504,-326.995C1056.9729,-306.4815 872.8657,-271.921 766.8535,-252.0205"/>
<polygon fill="#000000" stroke="#000000" points="767.3173,-248.5465 756.8432,-250.1413 766.0258,-255.4263 767.3173,-248.5465"/>
</g>
<!-- FunextVarieties_NaiveFunext_implies_Funext&#45;&gt;FunextVarieties_WeakFunext_implies_Funext -->
<g id="edge8" class="edge">
<title>FunextVarieties_NaiveFunext_implies_Funext&#45;&gt;FunextVarieties_WeakFunext_implies_Funext</title>
<path fill="none" stroke="#000000" d="M304.6267,-542.579C433.5158,-522.7787 667.5556,-486.8247 801.5536,-466.2395"/>
<polygon fill="#000000" stroke="#000000" points="802.4665,-469.6404 811.8191,-464.6625 801.4036,-462.7216 802.4665,-469.6404"/>
</g>
<!-- FunextVarieties_NaiveFunext_implies_WeakFunext -->
<g id="node11" class="node">
<title>FunextVarieties_NaiveFunext_implies_WeakFunext</title>
<g id="a_node11"><a xlink:href="FunextVarieties.html#NaiveFunext_implies_WeakFunext" xlink:title="NaiveFunext_implies_WeakFunext">
<ellipse fill="#f070d1" stroke="#000000" cx="188" cy="-343.655" rx="172.4698" ry="18"/>
<text text-anchor="middle" x="188" y="-339.955" font-family="Times,serif" font-size="14.00" fill="#000000">NaiveFunext_implies_WeakFunext</text>
</a>
</g>
</g>
<!-- FunextVarieties_NaiveFunext_implies_Funext&#45;&gt;FunextVarieties_NaiveFunext_implies_WeakFunext -->
<g id="edge9" class="edge">
<title>FunextVarieties_NaiveFunext_implies_Funext&#45;&gt;FunextVarieties_NaiveFunext_implies_WeakFunext</title>
<path fill="none" stroke="#000000" d="M210.8685,-538.4947C206.5051,-501.3183 196.5278,-416.3115 191.313,-371.8821"/>
<polygon fill="#000000" stroke="#000000" points="194.768,-371.2931 190.1261,-361.7693 187.8157,-372.1091 194.768,-371.2931"/>
</g>
<!-- FunextVarieties_htpy_ind_beta -->
<g id="node7" class="node">
<title>FunextVarieties_htpy_ind_beta</title>
<g id="a_node7"><a xlink:href="FunextVarieties.html#htpy_ind_beta" xlink:title="htpy_ind_beta">
<ellipse fill="#f070d1" stroke="#000000" cx="930" cy="-343.655" rx="76.8869" ry="18"/>
<text text-anchor="middle" x="930" y="-339.955" font-family="Times,serif" font-size="14.00" fill="#000000">htpy_ind_beta</text>
</a>
</g>
</g>
<!-- FunextVarieties_WeakFunext_implies_Funext&#45;&gt;FunextVarieties_htpy_ind_beta -->
<g id="edge10" class="edge">
<title>FunextVarieties_WeakFunext_implies_Funext&#45;&gt;FunextVarieties_htpy_ind_beta</title>
<path fill="none" stroke="#000000" d="M907.5802,-432.5039C911.7888,-415.8254 918.0908,-390.8509 922.9425,-371.6235"/>
<polygon fill="#000000" stroke="#000000" points="926.3442,-372.4476 925.3973,-361.8951 919.557,-370.7348 926.3442,-372.4476"/>
</g>
<!-- FunextVarieties_htpy_ind -->
<g id="node8" class="node">
<title>FunextVarieties_htpy_ind</title>
<g id="a_node8"><a xlink:href="FunextVarieties.html#htpy_ind" xlink:title="htpy_ind">
<ellipse fill="#f070d1" stroke="#000000" cx="930" cy="-236.655" rx="51.1914" ry="18"/>
<text text-anchor="middle" x="930" y="-232.955" font-family="Times,serif" font-size="14.00" fill="#000000">htpy_ind</text>
</a>
</g>
</g>
<!-- FunextVarieties_htpy_ind_beta&#45;&gt;FunextVarieties_htpy_ind -->
<g id="edge11" class="edge">
<title>FunextVarieties_htpy_ind_beta&#45;&gt;FunextVarieties_htpy_ind</title>
<path fill="none" stroke="#000000" d="M930,-325.5039C930,-308.9792 930,-284.3105 930,-265.1566"/>
<polygon fill="#000000" stroke="#000000" points="933.5001,-264.8951 930,-254.8951 926.5001,-264.8952 933.5001,-264.8951"/>
</g>
<!-- FunextVarieties_contr_basedhtpy -->
<g id="node9" class="node">
<title>FunextVarieties_contr_basedhtpy</title>
<g id="a_node9"><a xlink:href="FunextVarieties.html#contr_basedhtpy" xlink:title="contr_basedhtpy">
<ellipse fill="#f070d1" stroke="#000000" cx="930" cy="-141.655" rx="89.0842" ry="18"/>
<text text-anchor="middle" x="930" y="-137.955" font-family="Times,serif" font-size="14.00" fill="#000000">contr_basedhtpy</text>
</a>
</g>
</g>
<!-- FunextVarieties_htpy_ind&#45;&gt;FunextVarieties_contr_basedhtpy -->
<g id="edge12" class="edge">
<title>FunextVarieties_htpy_ind&#45;&gt;FunextVarieties_contr_basedhtpy</title>
<path fill="none" stroke="#000000" d="M930,-218.338C930,-204.6699 930,-185.7382 930,-170.1058"/>
<polygon fill="#000000" stroke="#000000" points="933.5001,-169.9157 930,-159.9157 926.5001,-169.9157 933.5001,-169.9157"/>
</g>
<!-- FunextVarieties_contr_basedhtpy&#45;&gt;FunextVarieties_WeakFunext -->
<g id="edge13" class="edge">
<title>FunextVarieties_contr_basedhtpy&#45;&gt;FunextVarieties_WeakFunext</title>
<path fill="none" stroke="#000000" d="M930,-123.5981C930,-109.7412 930,-90.3411 930,-74.3625"/>
<polygon fill="#000000" stroke="#000000" points="933.5001,-73.9573 930,-63.9573 926.5001,-73.9573 933.5001,-73.9573"/>
</g>
<!-- FunextVarieties_NaiveFunext_implies_NaiveNondepFunext -->
<g id="node10" class="node">
<title>FunextVarieties_NaiveFunext_implies_NaiveNondepFunext</title>
<g id="a_node10"><a xlink:href="FunextVarieties.html#NaiveFunext_implies_NaiveNondepFunext" xlink:title="NaiveFunext_implies_NaiveNondepFunext">
<ellipse fill="#f070d1" stroke="#000000" cx="617" cy="-343.655" rx="210.6597" ry="18"/>
<ellipse fill="none" stroke="#000000" cx="617" cy="-343.655" rx="214.6612" ry="22"/>
<ellipse fill="none" stroke="#000000" cx="617" cy="-343.655" rx="218.6627" ry="26"/>
<text text-anchor="middle" x="617" y="-339.955" font-family="Times,serif" font-size="14.00" fill="#000000">NaiveFunext_implies_NaiveNondepFunext</text>
</a>
</g>
</g>
<!-- FunextVarieties_NaiveFunext_implies_NaiveNondepFunext&#45;&gt;FunextVarieties_NaiveNondepFunext -->
<g id="edge14" class="edge">
<title>FunextVarieties_NaiveFunext_implies_NaiveNondepFunext&#45;&gt;FunextVarieties_NaiveNondepFunext</title>
<path fill="none" stroke="#000000" d="M633.6347,-317.4798C644.0517,-301.0883 657.4417,-280.0188 667.9385,-263.5017"/>
<polygon fill="#000000" stroke="#000000" points="671.0255,-265.1696 673.4352,-254.8525 665.1176,-261.4151 671.0255,-265.1696"/>
</g>
<!-- FunextVarieties_NaiveFunext -->
<g id="node15" class="node">
<title>FunextVarieties_NaiveFunext</title>
<g id="a_node15"><a xlink:href="FunextVarieties.html#NaiveFunext" xlink:title="NaiveFunext">
<ellipse fill="#f070d1" stroke="#000000" cx="379" cy="-236.655" rx="70.6878" ry="18"/>
<text text-anchor="middle" x="379" y="-232.955" font-family="Times,serif" font-size="14.00" fill="#000000">NaiveFunext</text>
</a>
</g>
</g>
<!-- FunextVarieties_NaiveFunext_implies_NaiveNondepFunext&#45;&gt;FunextVarieties_NaiveFunext -->
<g id="edge15" class="edge">
<title>FunextVarieties_NaiveFunext_implies_NaiveNondepFunext&#45;&gt;FunextVarieties_NaiveFunext</title>
<path fill="none" stroke="#000000" d="M560.8987,-318.433C518.9638,-299.5799 462.4049,-274.1522 423.548,-256.6829"/>
<polygon fill="#000000" stroke="#000000" points="424.6261,-253.3302 414.0702,-252.4219 421.7557,-259.7146 424.6261,-253.3302"/>
</g>
<!-- FunextVarieties_NaiveFunext_implies_WeakFunext&#45;&gt;FunextVarieties_WeakFunext -->
<g id="edge16" class="edge">
<title>FunextVarieties_NaiveFunext_implies_WeakFunext&#45;&gt;FunextVarieties_WeakFunext</title>
<path fill="none" stroke="#000000" d="M199.217,-325.3491C216.9614,-297.9545 254.1384,-246.5391 299,-218.655 478.227,-107.2547 729.63,-66.4322 854.0676,-52.4186"/>
<polygon fill="#000000" stroke="#000000" points="854.6988,-55.8704 864.2568,-51.2993 853.9344,-48.9123 854.6988,-55.8704"/>
</g>
<!-- FunextVarieties_NaiveFunext_implies_WeakFunext&#45;&gt;FunextVarieties_NaiveFunext -->
<g id="edge17" class="edge">
<title>FunextVarieties_NaiveFunext_implies_WeakFunext&#45;&gt;FunextVarieties_NaiveFunext</title>
<path fill="none" stroke="#000000" d="M219.9691,-325.7456C253.1143,-307.1774 304.9452,-278.1412 340.364,-258.2993"/>
<polygon fill="#000000" stroke="#000000" points="342.4273,-261.1552 349.441,-253.2142 339.0061,-255.0482 342.4273,-261.1552"/>
</g>
<!-- FunextVarieties_Funext_implies_NaiveFunext&#45;&gt;FunextVarieties_NaiveFunext -->
<g id="edge18" class="edge">
<title>FunextVarieties_Funext_implies_NaiveFunext&#45;&gt;FunextVarieties_NaiveFunext</title>
<path fill="none" stroke="#000000" d="M379,-432.4095C379,-395.0585 379,-309.6526 379,-265.0146"/>
<polygon fill="#000000" stroke="#000000" points="382.5001,-264.8543 379,-254.8543 375.5001,-264.8544 382.5001,-264.8543"/>
</g>
</g>
</svg>
