<?xml version="1.0" encoding="UTF-8" standalone="no"?>
<!DOCTYPE svg PUBLIC "-//W3C//DTD SVG 1.1//EN"
 "http://www.w3.org/Graphics/SVG/1.1/DTD/svg11.dtd">
<!-- Generated by graphviz version 2.40.1 (20161225.0304)
 -->
<!-- Title: HoTT_Spaces_BAut_Cantor Pages: 1 -->
<svg width="1284pt" height="646pt"
 viewBox="0.00 0.00 1284.00 646.00" xmlns="http://www.w3.org/2000/svg" xmlns:xlink="http://www.w3.org/1999/xlink">
<g id="graph0" class="graph" transform="scale(1 1) rotate(0) translate(4 642)">
<title>HoTT_Spaces_BAut_Cantor</title>
<polygon fill="#ffffff" stroke="transparent" points="-4,4 -4,-642 1280,-642 1280,4 -4,4"/>
<g id="clust1" class="cluster">
<title>cluster_Cantor</title>
<polygon fill="#ffffc3" stroke="#000000" points="12.792,-8 12.792,-630 1263.208,-630 1263.208,-8 12.792,-8"/>
<text text-anchor="middle" x="45.792" y="-614.8" font-family="Times,serif" font-size="14.00" fill="#000000">Cantor</text>
</g>
<g id="clust2" class="cluster">
<title>cluster_Cantor_BAut_Cantor_Idempotent</title>
<polygon fill="#ffffa3" stroke="#000000" points="25.584,-16 25.584,-539 738.7368,-539 738.7368,-16 25.584,-16"/>
<text text-anchor="middle" x="125.584" y="-523.8" font-family="Times,serif" font-size="14.00" fill="#000000">BAut_Cantor_Idempotent</text>
</g>
<!-- Cantor_BAut_Cantor_Idempotent_impossible -->
<g id="node1" class="node">
<title>Cantor_BAut_Cantor_Idempotent_impossible</title>
<g id="a_node1"><a xlink:href="Cantor.html#BAut_Cantor_Idempotent.impossible" xlink:title="impossible">
<ellipse fill="#f070d1" stroke="#000000" cx="630.4286" cy="-490" rx="60.3893" ry="18"/>
<text text-anchor="middle" x="630.4286" y="-486.3" font-family="Times,serif" font-size="14.00" fill="#000000">impossible</text>
</a>
</g>
</g>
<!-- Cantor_BAut_Cantor_Idempotent_J -->
<g id="node2" class="node">
<title>Cantor_BAut_Cantor_Idempotent_J</title>
<g id="a_node2"><a xlink:href="Cantor.html#BAut_Cantor_Idempotent.J" xlink:title="J">
<ellipse fill="#f070d1" stroke="#000000" cx="636.4286" cy="-194" rx="27" ry="18"/>
<text text-anchor="middle" x="636.4286" y="-190.3" font-family="Times,serif" font-size="14.00" fill="#000000">J</text>
</a>
</g>
</g>
<!-- Cantor_BAut_Cantor_Idempotent_impossible&#45;&gt;Cantor_BAut_Cantor_Idempotent_J -->
<g id="edge1" class="edge">
<title>Cantor_BAut_Cantor_Idempotent_impossible&#45;&gt;Cantor_BAut_Cantor_Idempotent_J</title>
<path fill="none" stroke="#000000" d="M633.871,-471.7246C638.2825,-447.2891 645.6873,-402.5726 648.4286,-364 651.9772,-314.0673 645.5939,-255.882 640.8566,-222.1621"/>
<polygon fill="#000000" stroke="#000000" points="644.2979,-221.5053 639.391,-212.1153 637.3712,-222.5158 644.2979,-221.5053"/>
</g>
<!-- Cantor_BAut_Cantor_Idempotent_I0_preserves_inr -->
<g id="node3" class="node">
<title>Cantor_BAut_Cantor_Idempotent_I0_preserves_inr</title>
<g id="a_node3"><a xlink:href="Cantor.html#BAut_Cantor_Idempotent.I0_preserves_inr" xlink:title="I0_preserves_inr">
<ellipse fill="#f070d1" stroke="#000000" cx="460.4286" cy="-418" rx="89.0842" ry="18"/>
<text text-anchor="middle" x="460.4286" y="-414.3" font-family="Times,serif" font-size="14.00" fill="#000000">I0_preserves_inr</text>
</a>
</g>
</g>
<!-- Cantor_BAut_Cantor_Idempotent_impossible&#45;&gt;Cantor_BAut_Cantor_Idempotent_I0_preserves_inr -->
<g id="edge2" class="edge">
<title>Cantor_BAut_Cantor_Idempotent_impossible&#45;&gt;Cantor_BAut_Cantor_Idempotent_I0_preserves_inr</title>
<path fill="none" stroke="#000000" d="M595.6163,-475.256C570.5037,-464.6201 536.2854,-450.1276 508.559,-438.3847"/>
<polygon fill="#000000" stroke="#000000" points="509.6214,-435.0337 499.0482,-434.3566 506.8914,-441.4794 509.6214,-435.0337"/>
</g>
<!-- Cantor_BAut_Cantor_Idempotent_I -->
<g id="node12" class="node">
<title>Cantor_BAut_Cantor_Idempotent_I</title>
<g id="a_node12"><a xlink:href="Cantor.html#BAut_Cantor_Idempotent.I" xlink:title="I">
<ellipse fill="#f070d1" stroke="#000000" cx="342.4286" cy="-114" rx="27" ry="18"/>
<text text-anchor="middle" x="342.4286" y="-110.3" font-family="Times,serif" font-size="14.00" fill="#000000">I</text>
</a>
</g>
</g>
<!-- Cantor_BAut_Cantor_Idempotent_J&#45;&gt;Cantor_BAut_Cantor_Idempotent_I -->
<g id="edge3" class="edge">
<title>Cantor_BAut_Cantor_Idempotent_J&#45;&gt;Cantor_BAut_Cantor_Idempotent_I</title>
<path fill="none" stroke="#000000" d="M612.3658,-185.582C596.7863,-180.2556 576.0125,-173.3844 557.4286,-168 494.7638,-149.844 420.8133,-132.0544 378.0027,-122.1075"/>
<polygon fill="#000000" stroke="#000000" points="378.6035,-118.6541 368.072,-119.8112 377.0264,-125.4742 378.6035,-118.6541"/>
</g>
<!-- Cantor_BAut_Cantor_Idempotent_ap_f -->
<g id="node14" class="node">
<title>Cantor_BAut_Cantor_Idempotent_ap_f</title>
<g id="a_node14"><a xlink:href="Cantor.html#BAut_Cantor_Idempotent.ap_f" xlink:title="ap_f">
<ellipse fill="#f070d1" stroke="#000000" cx="463.4286" cy="-114" rx="30.5947" ry="18"/>
<text text-anchor="middle" x="463.4286" y="-110.3" font-family="Times,serif" font-size="14.00" fill="#000000">ap_f</text>
</a>
</g>
</g>
<!-- Cantor_BAut_Cantor_Idempotent_J&#45;&gt;Cantor_BAut_Cantor_Idempotent_ap_f -->
<g id="edge4" class="edge">
<title>Cantor_BAut_Cantor_Idempotent_J&#45;&gt;Cantor_BAut_Cantor_Idempotent_ap_f</title>
<path fill="none" stroke="#000000" d="M614.166,-183.7052C584.3864,-169.9343 531.3358,-145.4022 496.7742,-129.4199"/>
<polygon fill="#000000" stroke="#000000" points="498.0966,-126.1754 487.551,-125.1549 495.1585,-132.529 498.0966,-126.1754"/>
</g>
<!-- Cantor_BAut_Cantor_Idempotent_I0_fixed_iff_fixed -->
<g id="node4" class="node">
<title>Cantor_BAut_Cantor_Idempotent_I0_fixed_iff_fixed</title>
<g id="a_node4"><a xlink:href="Cantor.html#BAut_Cantor_Idempotent.I0_fixed_iff_fixed" xlink:title="I0_fixed_iff_fixed">
<ellipse fill="#f070d1" stroke="#000000" cx="548.4286" cy="-346" rx="90.9839" ry="18"/>
<text text-anchor="middle" x="548.4286" y="-342.3" font-family="Times,serif" font-size="14.00" fill="#000000">I0_fixed_iff_fixed</text>
</a>
</g>
</g>
<!-- Cantor_BAut_Cantor_Idempotent_I0_preserves_inr&#45;&gt;Cantor_BAut_Cantor_Idempotent_I0_fixed_iff_fixed -->
<g id="edge5" class="edge">
<title>Cantor_BAut_Cantor_Idempotent_I0_preserves_inr&#45;&gt;Cantor_BAut_Cantor_Idempotent_I0_fixed_iff_fixed</title>
<path fill="none" stroke="#000000" d="M482.1814,-400.2022C493.2642,-391.1345 506.9026,-379.9758 518.9181,-370.1449"/>
<polygon fill="#000000" stroke="#000000" points="521.4027,-372.6343 526.926,-363.593 516.97,-367.2166 521.4027,-372.6343"/>
</g>
<!-- Cantor_BAut_Cantor_Idempotent_ff_flip_fixed_iff_inr -->
<g id="node5" class="node">
<title>Cantor_BAut_Cantor_Idempotent_ff_flip_fixed_iff_inr</title>
<g id="a_node5"><a xlink:href="Cantor.html#BAut_Cantor_Idempotent.ff_flip_fixed_iff_inr" xlink:title="ff_flip_fixed_iff_inr">
<ellipse fill="#f070d1" stroke="#000000" cx="263.4286" cy="-274" rx="98.2828" ry="18"/>
<text text-anchor="middle" x="263.4286" y="-270.3" font-family="Times,serif" font-size="14.00" fill="#000000">ff_flip_fixed_iff_inr</text>
</a>
</g>
</g>
<!-- Cantor_BAut_Cantor_Idempotent_I0_preserves_inr&#45;&gt;Cantor_BAut_Cantor_Idempotent_ff_flip_fixed_iff_inr -->
<g id="edge6" class="edge">
<title>Cantor_BAut_Cantor_Idempotent_I0_preserves_inr&#45;&gt;Cantor_BAut_Cantor_Idempotent_ff_flip_fixed_iff_inr</title>
<path fill="none" stroke="#000000" d="M436.6658,-400.6302C401.559,-374.9684 335.7244,-326.8457 296.0999,-297.8816"/>
<polygon fill="#000000" stroke="#000000" points="297.7225,-294.7323 287.5839,-291.6567 293.5916,-300.3835 297.7225,-294.7323"/>
</g>
<!-- Cantor_BAut_Cantor_Idempotent_f_flip_fixed_iff_inr -->
<g id="node6" class="node">
<title>Cantor_BAut_Cantor_Idempotent_f_flip_fixed_iff_inr</title>
<g id="a_node6"><a xlink:href="Cantor.html#BAut_Cantor_Idempotent.f_flip_fixed_iff_inr" xlink:title="f_flip_fixed_iff_inr">
<ellipse fill="#f070d1" stroke="#000000" cx="190.4286" cy="-346" rx="94.7833" ry="18"/>
<text text-anchor="middle" x="190.4286" y="-342.3" font-family="Times,serif" font-size="14.00" fill="#000000">f_flip_fixed_iff_inr</text>
</a>
</g>
</g>
<!-- Cantor_BAut_Cantor_Idempotent_I0_preserves_inr&#45;&gt;Cantor_BAut_Cantor_Idempotent_f_flip_fixed_iff_inr -->
<g id="edge7" class="edge">
<title>Cantor_BAut_Cantor_Idempotent_I0_preserves_inr&#45;&gt;Cantor_BAut_Cantor_Idempotent_f_flip_fixed_iff_inr</title>
<path fill="none" stroke="#000000" d="M406.439,-403.6028C362.9971,-392.0183 301.7955,-375.6979 255.6229,-363.3852"/>
<polygon fill="#000000" stroke="#000000" points="256.279,-359.9379 245.7148,-360.743 254.4753,-366.7015 256.279,-359.9379"/>
</g>
<!-- Cantor_BAut_Cantor_Idempotent_I0nat_flip -->
<g id="node7" class="node">
<title>Cantor_BAut_Cantor_Idempotent_I0nat_flip</title>
<g id="a_node7"><a xlink:href="Cantor.html#BAut_Cantor_Idempotent.I0nat_flip" xlink:title="I0nat_flip">
<ellipse fill="#f070d1" stroke="#000000" cx="538.4286" cy="-274" rx="55.7903" ry="18"/>
<text text-anchor="middle" x="538.4286" y="-270.3" font-family="Times,serif" font-size="14.00" fill="#000000">I0nat_flip</text>
</a>
</g>
</g>
<!-- Cantor_BAut_Cantor_Idempotent_I0_fixed_iff_fixed&#45;&gt;Cantor_BAut_Cantor_Idempotent_I0nat_flip -->
<g id="edge8" class="edge">
<title>Cantor_BAut_Cantor_Idempotent_I0_fixed_iff_fixed&#45;&gt;Cantor_BAut_Cantor_Idempotent_I0nat_flip</title>
<path fill="none" stroke="#000000" d="M545.9051,-327.8314C544.8356,-320.131 543.5639,-310.9743 542.3753,-302.4166"/>
<polygon fill="#000000" stroke="#000000" points="545.8285,-301.8367 540.986,-292.4133 538.895,-302.7997 545.8285,-301.8367"/>
</g>
<!-- Cantor_BAut_Cantor_Idempotent_ff_flip -->
<g id="node8" class="node">
<title>Cantor_BAut_Cantor_Idempotent_ff_flip</title>
<g id="a_node8"><a xlink:href="Cantor.html#BAut_Cantor_Idempotent.ff_flip" xlink:title="ff_flip">
<ellipse fill="#f070d1" stroke="#000000" cx="263.4286" cy="-194" rx="37.8943" ry="18"/>
<text text-anchor="middle" x="263.4286" y="-190.3" font-family="Times,serif" font-size="14.00" fill="#000000">ff_flip</text>
</a>
</g>
</g>
<!-- Cantor_BAut_Cantor_Idempotent_ff_flip_fixed_iff_inr&#45;&gt;Cantor_BAut_Cantor_Idempotent_ff_flip -->
<g id="edge9" class="edge">
<title>Cantor_BAut_Cantor_Idempotent_ff_flip_fixed_iff_inr&#45;&gt;Cantor_BAut_Cantor_Idempotent_ff_flip</title>
<path fill="none" stroke="#000000" d="M263.4286,-255.8468C263.4286,-245.9251 263.4286,-233.4167 263.4286,-222.2492"/>
<polygon fill="#000000" stroke="#000000" points="266.9287,-222.0814 263.4286,-212.0814 259.9287,-222.0814 266.9287,-222.0814"/>
</g>
<!-- Cantor_BAut_Cantor_Idempotent_f_flip -->
<g id="node9" class="node">
<title>Cantor_BAut_Cantor_Idempotent_f_flip</title>
<g id="a_node9"><a xlink:href="Cantor.html#BAut_Cantor_Idempotent.f_flip" xlink:title="f_flip">
<ellipse fill="#f070d1" stroke="#000000" cx="110.4286" cy="-194" rx="34.394" ry="18"/>
<text text-anchor="middle" x="110.4286" y="-190.3" font-family="Times,serif" font-size="14.00" fill="#000000">f_flip</text>
</a>
</g>
</g>
<!-- Cantor_BAut_Cantor_Idempotent_f_flip_fixed_iff_inr&#45;&gt;Cantor_BAut_Cantor_Idempotent_f_flip -->
<g id="edge10" class="edge">
<title>Cantor_BAut_Cantor_Idempotent_f_flip_fixed_iff_inr&#45;&gt;Cantor_BAut_Cantor_Idempotent_f_flip</title>
<path fill="none" stroke="#000000" d="M178.2111,-327.8422C171.4667,-317.5203 163.1256,-304.2475 156.4286,-292 143.6234,-268.5821 130.87,-240.989 122.0512,-221.0589"/>
<polygon fill="#000000" stroke="#000000" points="125.1566,-219.425 117.9371,-211.6706 118.7452,-222.2346 125.1566,-219.425"/>
</g>
<!-- Cantor_BAut_Cantor_Idempotent_I0nat_flip&#45;&gt;Cantor_BAut_Cantor_Idempotent_ff_flip -->
<g id="edge11" class="edge">
<title>Cantor_BAut_Cantor_Idempotent_I0nat_flip&#45;&gt;Cantor_BAut_Cantor_Idempotent_ff_flip</title>
<path fill="none" stroke="#000000" d="M496.662,-261.8497C444.965,-246.8106 357.4249,-221.3444 305.5599,-206.2564"/>
<polygon fill="#000000" stroke="#000000" points="306.2635,-202.816 295.6838,-203.3833 304.3081,-209.5374 306.2635,-202.816"/>
</g>
<!-- Cantor_BAut_Cantor_Idempotent_I0nat_flip&#45;&gt;Cantor_BAut_Cantor_Idempotent_f_flip -->
<g id="edge12" class="edge">
<title>Cantor_BAut_Cantor_Idempotent_I0nat_flip&#45;&gt;Cantor_BAut_Cantor_Idempotent_f_flip</title>
<path fill="none" stroke="#000000" d="M487.1821,-266.6091C423.4666,-257.1437 311.499,-239.603 216.4286,-220 194.7782,-215.5358 170.8467,-209.7408 151.2096,-204.755"/>
<polygon fill="#000000" stroke="#000000" points="151.9228,-201.3247 141.3669,-202.2329 150.1851,-208.1056 151.9228,-201.3247"/>
</g>
<!-- Cantor_BAut_Cantor_Idempotent_Inat -->
<g id="node10" class="node">
<title>Cantor_BAut_Cantor_Idempotent_Inat</title>
<g id="a_node10"><a xlink:href="Cantor.html#BAut_Cantor_Idempotent.Inat" xlink:title="Inat">
<ellipse fill="#f070d1" stroke="#000000" cx="401.4286" cy="-194" rx="29.795" ry="18"/>
<text text-anchor="middle" x="401.4286" y="-190.3" font-family="Times,serif" font-size="14.00" fill="#000000">Inat</text>
</a>
</g>
</g>
<!-- Cantor_BAut_Cantor_Idempotent_I0nat_flip&#45;&gt;Cantor_BAut_Cantor_Idempotent_Inat -->
<g id="edge13" class="edge">
<title>Cantor_BAut_Cantor_Idempotent_I0nat_flip&#45;&gt;Cantor_BAut_Cantor_Idempotent_Inat</title>
<path fill="none" stroke="#000000" d="M511.3618,-258.1946C488.4051,-244.7892 455.5034,-225.5765 431.6827,-211.6666"/>
<polygon fill="#000000" stroke="#000000" points="433.4379,-208.6386 423.0374,-206.6183 429.908,-214.6834 433.4379,-208.6386"/>
</g>
<!-- Cantor_BAut_Cantor_Idempotent_I0 -->
<g id="node11" class="node">
<title>Cantor_BAut_Cantor_Idempotent_I0</title>
<g id="a_node11"><a xlink:href="Cantor.html#BAut_Cantor_Idempotent.I0" xlink:title="I0">
<ellipse fill="#f070d1" stroke="#000000" cx="521.4286" cy="-194" rx="27" ry="18"/>
<text text-anchor="middle" x="521.4286" y="-190.3" font-family="Times,serif" font-size="14.00" fill="#000000">I0</text>
</a>
</g>
</g>
<!-- Cantor_BAut_Cantor_Idempotent_I0nat_flip&#45;&gt;Cantor_BAut_Cantor_Idempotent_I0 -->
<g id="edge14" class="edge">
<title>Cantor_BAut_Cantor_Idempotent_I0nat_flip&#45;&gt;Cantor_BAut_Cantor_Idempotent_I0</title>
<path fill="none" stroke="#000000" d="M534.571,-255.8468C532.4409,-245.8228 529.7497,-233.1585 527.3582,-221.9043"/>
<polygon fill="#000000" stroke="#000000" points="530.7731,-221.1355 525.2709,-212.0814 523.926,-222.5905 530.7731,-221.1355"/>
</g>
<!-- Cantor_BAut_Cantor_Idempotent_Inat&#45;&gt;Cantor_BAut_Cantor_Idempotent_I -->
<g id="edge15" class="edge">
<title>Cantor_BAut_Cantor_Idempotent_Inat&#45;&gt;Cantor_BAut_Cantor_Idempotent_I</title>
<path fill="none" stroke="#000000" d="M389.2037,-177.4239C380.9216,-166.194 369.8346,-151.1608 360.5334,-138.549"/>
<polygon fill="#000000" stroke="#000000" points="363.1882,-136.2517 354.4359,-130.2811 357.5545,-140.4066 363.1882,-136.2517"/>
</g>
<!-- Cantor_BAut_Cantor_Idempotent_ap_ff -->
<g id="node13" class="node">
<title>Cantor_BAut_Cantor_Idempotent_ap_ff</title>
<g id="a_node13"><a xlink:href="Cantor.html#BAut_Cantor_Idempotent.ap_ff" xlink:title="ap_ff">
<ellipse fill="#f070d1" stroke="#000000" cx="215.4286" cy="-114" rx="33.5952" ry="18"/>
<text text-anchor="middle" x="215.4286" y="-110.3" font-family="Times,serif" font-size="14.00" fill="#000000">ap_ff</text>
</a>
</g>
</g>
<!-- Cantor_BAut_Cantor_Idempotent_Inat&#45;&gt;Cantor_BAut_Cantor_Idempotent_ap_ff -->
<g id="edge16" class="edge">
<title>Cantor_BAut_Cantor_Idempotent_Inat&#45;&gt;Cantor_BAut_Cantor_Idempotent_ap_ff</title>
<path fill="none" stroke="#000000" d="M376.7292,-183.3766C344.526,-169.5258 287.9719,-145.2014 251.1105,-129.3471"/>
<polygon fill="#000000" stroke="#000000" points="252.301,-126.0491 241.7318,-125.3132 249.5352,-132.4796 252.301,-126.0491"/>
</g>
<!-- Cantor_BAut_Cantor_Idempotent_Inat&#45;&gt;Cantor_BAut_Cantor_Idempotent_ap_f -->
<g id="edge17" class="edge">
<title>Cantor_BAut_Cantor_Idempotent_Inat&#45;&gt;Cantor_BAut_Cantor_Idempotent_ap_f</title>
<path fill="none" stroke="#000000" d="M414.275,-177.4239C422.9206,-166.2683 434.4748,-151.3597 444.2087,-138.7999"/>
<polygon fill="#000000" stroke="#000000" points="447.2393,-140.603 450.5986,-130.5548 441.7064,-136.315 447.2393,-140.603"/>
</g>
<!-- Cantor_BAut_Cantor_Idempotent_I0&#45;&gt;Cantor_BAut_Cantor_Idempotent_I -->
<g id="edge18" class="edge">
<title>Cantor_BAut_Cantor_Idempotent_I0&#45;&gt;Cantor_BAut_Cantor_Idempotent_I</title>
<path fill="none" stroke="#000000" d="M498.7581,-183.8679C467.2856,-169.802 410.1977,-144.2879 374.4063,-128.2917"/>
<polygon fill="#000000" stroke="#000000" points="375.4728,-124.9348 364.915,-124.0498 372.6165,-131.3255 375.4728,-124.9348"/>
</g>
<!-- Cantor_BAut_Cantor_Idempotent_f -->
<g id="node16" class="node">
<title>Cantor_BAut_Cantor_Idempotent_f</title>
<g id="a_node16"><a xlink:href="Cantor.html#BAut_Cantor_Idempotent.f" xlink:title="f">
<ellipse fill="#f070d1" stroke="#000000" cx="463.4286" cy="-42" rx="27" ry="18"/>
<text text-anchor="middle" x="463.4286" y="-38.3" font-family="Times,serif" font-size="14.00" fill="#000000">f</text>
</a>
</g>
</g>
<!-- Cantor_BAut_Cantor_Idempotent_I&#45;&gt;Cantor_BAut_Cantor_Idempotent_f -->
<g id="edge19" class="edge">
<title>Cantor_BAut_Cantor_Idempotent_I&#45;&gt;Cantor_BAut_Cantor_Idempotent_f</title>
<path fill="none" stroke="#000000" d="M362.6813,-101.9488C382.3124,-90.2675 412.2905,-72.4293 434.4455,-59.2461"/>
<polygon fill="#000000" stroke="#000000" points="436.3059,-62.2119 443.1098,-54.0905 432.7264,-56.1963 436.3059,-62.2119"/>
</g>
<!-- Cantor_BAut_Cantor_Idempotent_ap_ff&#45;&gt;Cantor_BAut_Cantor_Idempotent_f -->
<g id="edge20" class="edge">
<title>Cantor_BAut_Cantor_Idempotent_ap_ff&#45;&gt;Cantor_BAut_Cantor_Idempotent_f</title>
<path fill="none" stroke="#000000" d="M245.3432,-105.3151C291.5284,-91.9065 379.9577,-66.2335 428.8296,-52.0449"/>
<polygon fill="#000000" stroke="#000000" points="430.0008,-55.3494 438.6284,-49.2 428.0491,-48.627 430.0008,-55.3494"/>
</g>
<!-- Cantor_BAut_Cantor_Idempotent_ap_f&#45;&gt;Cantor_BAut_Cantor_Idempotent_f -->
<g id="edge21" class="edge">
<title>Cantor_BAut_Cantor_Idempotent_ap_f&#45;&gt;Cantor_BAut_Cantor_Idempotent_f</title>
<path fill="none" stroke="#000000" d="M463.4286,-95.8314C463.4286,-88.131 463.4286,-78.9743 463.4286,-70.4166"/>
<polygon fill="#000000" stroke="#000000" points="466.9287,-70.4132 463.4286,-60.4133 459.9287,-70.4133 466.9287,-70.4132"/>
</g>
<!-- Cantor_BAut_Cantor_Idempotent_preidem_f -->
<g id="node15" class="node">
<title>Cantor_BAut_Cantor_Idempotent_preidem_f</title>
<g id="a_node15"><a xlink:href="Cantor.html#BAut_Cantor_Idempotent.preidem_f" xlink:title="preidem_f">
<ellipse fill="#f070d1" stroke="#000000" cx="633.4286" cy="-114" rx="57.6901" ry="18"/>
<text text-anchor="middle" x="633.4286" y="-110.3" font-family="Times,serif" font-size="14.00" fill="#000000">preidem_f</text>
</a>
</g>
</g>
<!-- Cantor_BAut_Cantor_Idempotent_preidem_f&#45;&gt;Cantor_BAut_Cantor_Idempotent_f -->
<g id="edge22" class="edge">
<title>Cantor_BAut_Cantor_Idempotent_preidem_f&#45;&gt;Cantor_BAut_Cantor_Idempotent_f</title>
<path fill="none" stroke="#000000" d="M599.0265,-99.4297C568.8668,-86.6562 525.3447,-68.2233 495.8038,-55.7119"/>
<polygon fill="#000000" stroke="#000000" points="496.9342,-52.3897 486.361,-51.7126 494.2042,-58.8354 496.9342,-52.3897"/>
</g>
<!-- Cantor_not_qidem_baut_cantor_idem -->
<g id="node17" class="node">
<title>Cantor_not_qidem_baut_cantor_idem</title>
<g id="a_node17"><a xlink:href="Cantor.html#not_qidem_baut_cantor_idem" xlink:title="not_qidem_baut_cantor_idem">
<ellipse fill="#f070d1" stroke="#000000" cx="815.4286" cy="-573" rx="148.3643" ry="18"/>
<ellipse fill="none" stroke="#000000" cx="815.4286" cy="-573" rx="152.3691" ry="22"/>
<ellipse fill="none" stroke="#000000" cx="815.4286" cy="-573" rx="156.3739" ry="26"/>
<text text-anchor="middle" x="815.4286" y="-569.3" font-family="Times,serif" font-size="14.00" fill="#000000">not_qidem_baut_cantor_idem</text>
</a>
</g>
</g>
<!-- Cantor_not_qidem_baut_cantor_idem&#45;&gt;Cantor_BAut_Cantor_Idempotent_impossible -->
<g id="edge23" class="edge">
<title>Cantor_not_qidem_baut_cantor_idem&#45;&gt;Cantor_BAut_Cantor_Idempotent_impossible</title>
<path fill="none" stroke="#000000" d="M725.1086,-551.7515C714.5379,-548.0645 704.0893,-543.8307 694.4286,-539 681.1634,-532.3669 667.9124,-522.8276 656.9374,-513.9253"/>
<polygon fill="#000000" stroke="#000000" points="658.94,-511.0371 649.0259,-507.3005 654.4459,-516.404 658.94,-511.0371"/>
</g>
<!-- Cantor_baut_cantor_idem -->
<g id="node19" class="node">
<title>Cantor_baut_cantor_idem</title>
<g id="a_node19"><a xlink:href="Cantor.html#baut_cantor_idem" xlink:title="baut_cantor_idem">
<ellipse fill="#f070d1" stroke="#000000" cx="985.4286" cy="-114" rx="94.7833" ry="18"/>
<text text-anchor="middle" x="985.4286" y="-110.3" font-family="Times,serif" font-size="14.00" fill="#000000">baut_cantor_idem</text>
</a>
</g>
</g>
<!-- Cantor_not_qidem_baut_cantor_idem&#45;&gt;Cantor_baut_cantor_idem -->
<g id="edge24" class="edge">
<title>Cantor_not_qidem_baut_cantor_idem&#45;&gt;Cantor_baut_cantor_idem</title>
<path fill="none" stroke="#000000" d="M929.4773,-555.2017C1057.7654,-531.8829 1248.4286,-485.8182 1248.4286,-418 1248.4286,-418 1248.4286,-418 1248.4286,-274 1248.4286,-187.8944 1144.2646,-146.7974 1067.0444,-128.1611"/>
<polygon fill="#000000" stroke="#000000" points="1067.8276,-124.75 1057.2945,-125.8914 1066.2405,-131.5677 1067.8276,-124.75"/>
</g>
<!-- Cantor_preidem_baut_cantor_idem -->
<g id="node18" class="node">
<title>Cantor_preidem_baut_cantor_idem</title>
<g id="a_node18"><a xlink:href="Cantor.html#preidem_baut_cantor_idem" xlink:title="preidem_baut_cantor_idem">
<ellipse fill="#f070d1" stroke="#000000" cx="985.4286" cy="-194" rx="137.5875" ry="18"/>
<ellipse fill="none" stroke="#000000" cx="985.4286" cy="-194" rx="141.5817" ry="22"/>
<ellipse fill="none" stroke="#000000" cx="985.4286" cy="-194" rx="145.5759" ry="26"/>
<text text-anchor="middle" x="985.4286" y="-190.3" font-family="Times,serif" font-size="14.00" fill="#000000">preidem_baut_cantor_idem</text>
</a>
</g>
</g>
<!-- Cantor_preidem_baut_cantor_idem&#45;&gt;Cantor_BAut_Cantor_Idempotent_preidem_f -->
<g id="edge25" class="edge">
<title>Cantor_preidem_baut_cantor_idem&#45;&gt;Cantor_BAut_Cantor_Idempotent_preidem_f</title>
<path fill="none" stroke="#000000" d="M887.0314,-174.7949C830.7036,-163.344 758.8366,-147.9605 695.4286,-132 692.0098,-131.1395 688.4953,-130.2187 684.96,-129.2654"/>
<polygon fill="#000000" stroke="#000000" points="685.5754,-125.8044 675.0045,-126.516 683.712,-132.5518 685.5754,-125.8044"/>
</g>
<!-- Cantor_preidem_baut_cantor_idem&#45;&gt;Cantor_baut_cantor_idem -->
<g id="edge26" class="edge">
<title>Cantor_preidem_baut_cantor_idem&#45;&gt;Cantor_baut_cantor_idem</title>
<path fill="none" stroke="#000000" d="M985.4286,-167.805C985.4286,-159.6026 985.4286,-150.5174 985.4286,-142.1839"/>
<polygon fill="#000000" stroke="#000000" points="988.9287,-142.1532 985.4286,-132.1532 981.9287,-142.1533 988.9287,-142.1532"/>
</g>
<!-- Cantor_baut_cantor_idem&#45;&gt;Cantor_BAut_Cantor_Idempotent_f -->
<g id="edge27" class="edge">
<title>Cantor_baut_cantor_idem&#45;&gt;Cantor_BAut_Cantor_Idempotent_f</title>
<path fill="none" stroke="#000000" d="M908.4057,-103.3762C794.3152,-87.6395 584.7969,-58.7405 500.2482,-47.0786"/>
<polygon fill="#000000" stroke="#000000" points="500.4873,-43.5785 490.1028,-45.6792 499.5308,-50.5128 500.4873,-43.5785"/>
</g>
</g>
</svg>
