<?xml version="1.0" encoding="UTF-8" standalone="no"?>
<!DOCTYPE svg PUBLIC "-//W3C//DTD SVG 1.1//EN"
 "http://www.w3.org/Graphics/SVG/1.1/DTD/svg11.dtd">
<!-- Generated by graphviz version 2.40.1 (20161225.0304)
 -->
<!-- Title: HoTT_Algebra_AbGroups_AbPushout Pages: 1 -->
<svg width="1392pt" height="700pt"
 viewBox="0.00 0.00 1392.00 700.00" xmlns="http://www.w3.org/2000/svg" xmlns:xlink="http://www.w3.org/1999/xlink">
<g id="graph0" class="graph" transform="scale(1 1) rotate(0) translate(4 696)">
<title>HoTT_Algebra_AbGroups_AbPushout</title>
<polygon fill="#ffffff" stroke="transparent" points="-4,4 -4,-696 1388,-696 1388,4 -4,4"/>
<g id="clust1" class="cluster">
<title>cluster_AbPushout</title>
<polygon fill="#ffffc3" stroke="#000000" points="8,-11.0942 8,-680.9058 1376,-680.9058 1376,-11.0942 8,-11.0942"/>
<text text-anchor="middle" x="55.5" y="-665.7058" font-family="Times,serif" font-size="14.00" fill="#000000">AbPushout</text>
</g>
<!-- AbPushout_functor_ab_pushout -->
<g id="node1" class="node">
<title>AbPushout_functor_ab_pushout</title>
<g id="a_node1"><a xlink:href="AbPushout.html#functor_ab_pushout" xlink:title="functor_ab_pushout">
<ellipse fill="#f070d1" stroke="#000000" cx="437" cy="-480.0942" rx="103.1933" ry="18"/>
<ellipse fill="none" stroke="#000000" cx="437" cy="-480.0942" rx="107.1876" ry="22"/>
<ellipse fill="none" stroke="#000000" cx="437" cy="-480.0942" rx="111.1819" ry="26"/>
<text text-anchor="middle" x="437" y="-476.3942" font-family="Times,serif" font-size="14.00" fill="#000000">functor_ab_pushout</text>
</a>
</g>
</g>
<!-- AbPushout_ab_pushout_commsq -->
<g id="node8" class="node">
<title>AbPushout_ab_pushout_commsq</title>
<g id="a_node8"><a xlink:href="AbPushout.html#ab_pushout_commsq" xlink:title="ab_pushout_commsq">
<ellipse fill="#f070d1" stroke="#000000" cx="465" cy="-358.0942" rx="108.5808" ry="18"/>
<text text-anchor="middle" x="465" y="-354.3942" font-family="Times,serif" font-size="14.00" fill="#000000">ab_pushout_commsq</text>
</a>
</g>
</g>
<!-- AbPushout_functor_ab_pushout&#45;&gt;AbPushout_ab_pushout_commsq -->
<g id="edge1" class="edge">
<title>AbPushout_functor_ab_pushout&#45;&gt;AbPushout_ab_pushout_commsq</title>
<path fill="none" stroke="#000000" d="M443.0067,-453.9221C447.5771,-434.0084 453.8566,-406.6474 458.5361,-386.2585"/>
<polygon fill="#000000" stroke="#000000" points="461.994,-386.8379 460.8197,-376.3083 455.1714,-385.272 461.994,-386.8379"/>
</g>
<!-- AbPushout_ab_pushout_rec -->
<g id="node12" class="node">
<title>AbPushout_ab_pushout_rec</title>
<g id="a_node12"><a xlink:href="AbPushout.html#ab_pushout_rec" xlink:title="ab_pushout_rec">
<ellipse fill="#f070d1" stroke="#000000" cx="676" cy="-358.0942" rx="84.485" ry="18"/>
<text text-anchor="middle" x="676" y="-354.3942" font-family="Times,serif" font-size="14.00" fill="#000000">ab_pushout_rec</text>
</a>
</g>
</g>
<!-- AbPushout_functor_ab_pushout&#45;&gt;AbPushout_ab_pushout_rec -->
<g id="edge2" class="edge">
<title>AbPushout_functor_ab_pushout&#45;&gt;AbPushout_ab_pushout_rec</title>
<path fill="none" stroke="#000000" d="M483.365,-456.4267C527.031,-434.1369 591.8657,-401.0414 634.0343,-379.516"/>
<polygon fill="#000000" stroke="#000000" points="635.8786,-382.5043 643.194,-374.8403 632.696,-376.2696 635.8786,-382.5043"/>
</g>
<!-- AbPushout_ab_pushout_embedding_inl -->
<g id="node2" class="node">
<title>AbPushout_ab_pushout_embedding_inl</title>
<g id="a_node2"><a xlink:href="AbPushout.html#ab_pushout_embedding_inl" xlink:title="ab_pushout_embedding_inl">
<ellipse fill="#f070d1" stroke="#000000" cx="960" cy="-358.0942" rx="137.5875" ry="18"/>
<ellipse fill="none" stroke="#000000" cx="960" cy="-358.0942" rx="141.5817" ry="22"/>
<ellipse fill="none" stroke="#000000" cx="960" cy="-358.0942" rx="145.5759" ry="26"/>
<text text-anchor="middle" x="960" y="-354.3942" font-family="Times,serif" font-size="14.00" fill="#000000">ab_pushout_embedding_inl</text>
</a>
</g>
</g>
<!-- AbPushout_path_ab_pushout -->
<g id="node3" class="node">
<title>AbPushout_path_ab_pushout</title>
<g id="a_node3"><a xlink:href="AbPushout.html#path_ab_pushout" xlink:title="path_ab_pushout">
<ellipse fill="#f070d1" stroke="#000000" cx="963" cy="-247.0942" rx="90.1842" ry="18"/>
<text text-anchor="middle" x="963" y="-243.3942" font-family="Times,serif" font-size="14.00" fill="#000000">path_ab_pushout</text>
</a>
</g>
</g>
<!-- AbPushout_ab_pushout_embedding_inl&#45;&gt;AbPushout_path_ab_pushout -->
<g id="edge3" class="edge">
<title>AbPushout_ab_pushout_embedding_inl&#45;&gt;AbPushout_path_ab_pushout</title>
<path fill="none" stroke="#000000" d="M960.7034,-332.0696C961.1623,-315.0888 961.7614,-292.9219 962.2326,-275.4864"/>
<polygon fill="#000000" stroke="#000000" points="965.7356,-275.4213 962.5071,-265.3303 958.7381,-275.2321 965.7356,-275.4213"/>
</g>
<!-- AbPushout_ab_pushout_inl -->
<g id="node10" class="node">
<title>AbPushout_ab_pushout_inl</title>
<g id="a_node10"><a xlink:href="AbPushout.html#ab_pushout_inl" xlink:title="ab_pushout_inl">
<ellipse fill="#f070d1" stroke="#000000" cx="773" cy="-247.0942" rx="81.4863" ry="18"/>
<text text-anchor="middle" x="773" y="-243.3942" font-family="Times,serif" font-size="14.00" fill="#000000">ab_pushout_inl</text>
</a>
</g>
</g>
<!-- AbPushout_ab_pushout_embedding_inl&#45;&gt;AbPushout_ab_pushout_inl -->
<g id="edge4" class="edge">
<title>AbPushout_ab_pushout_embedding_inl&#45;&gt;AbPushout_ab_pushout_inl</title>
<path fill="none" stroke="#000000" d="M918.0335,-333.1836C885.6907,-313.9855 841.384,-287.6857 810.28,-269.223"/>
<polygon fill="#000000" stroke="#000000" points="811.8649,-266.0936 801.4791,-263.9989 808.2918,-272.113 811.8649,-266.0936"/>
</g>
<!-- AbPushout_ab_pushout -->
<g id="node13" class="node">
<title>AbPushout_ab_pushout</title>
<g id="a_node13"><a xlink:href="AbPushout.html#ab_pushout" xlink:title="ab_pushout">
<ellipse fill="#f070d1" stroke="#000000" cx="723" cy="-147.0942" rx="64.189" ry="18"/>
<text text-anchor="middle" x="723" y="-143.3942" font-family="Times,serif" font-size="14.00" fill="#000000">ab_pushout</text>
</a>
</g>
</g>
<!-- AbPushout_path_ab_pushout&#45;&gt;AbPushout_ab_pushout -->
<g id="edge5" class="edge">
<title>AbPushout_path_ab_pushout&#45;&gt;AbPushout_ab_pushout</title>
<path fill="none" stroke="#000000" d="M923.9057,-230.8049C881.3371,-213.068 813.3432,-184.7372 768.4325,-166.0244"/>
<polygon fill="#000000" stroke="#000000" points="769.5155,-162.684 758.9385,-162.0686 766.8231,-169.1456 769.5155,-162.684"/>
</g>
<!-- AbPushout_isequiv_ab_pushout_rec -->
<g id="node4" class="node">
<title>AbPushout_isequiv_ab_pushout_rec</title>
<g id="a_node4"><a xlink:href="AbPushout.html#isequiv_ab_pushout_rec" xlink:title="isequiv_ab_pushout_rec">
<ellipse fill="#f070d1" stroke="#000000" cx="807" cy="-602.0942" rx="122.367" ry="18"/>
<ellipse fill="none" stroke="#000000" cx="807" cy="-602.0942" rx="126.3728" ry="22"/>
<ellipse fill="none" stroke="#000000" cx="807" cy="-602.0942" rx="130.3786" ry="26"/>
<text text-anchor="middle" x="807" y="-598.3942" font-family="Times,serif" font-size="14.00" fill="#000000">isequiv_ab_pushout_rec</text>
</a>
</g>
</g>
<!-- AbPushout_ab_pushout_rec_beta -->
<g id="node7" class="node">
<title>AbPushout_ab_pushout_rec_beta</title>
<g id="a_node7"><a xlink:href="AbPushout.html#ab_pushout_rec_beta" xlink:title="ab_pushout_rec_beta">
<ellipse fill="#f070d1" stroke="#000000" cx="676" cy="-480.0942" rx="109.6807" ry="18"/>
<text text-anchor="middle" x="676" y="-476.3942" font-family="Times,serif" font-size="14.00" fill="#000000">ab_pushout_rec_beta</text>
</a>
</g>
</g>
<!-- AbPushout_isequiv_ab_pushout_rec&#45;&gt;AbPushout_ab_pushout_rec_beta -->
<g id="edge6" class="edge">
<title>AbPushout_isequiv_ab_pushout_rec&#45;&gt;AbPushout_ab_pushout_rec_beta</title>
<path fill="none" stroke="#000000" d="M779.5381,-576.519C756.9881,-555.5182 725.233,-525.9447 702.8512,-505.1007"/>
<polygon fill="#000000" stroke="#000000" points="705.0593,-502.3743 695.3559,-498.1203 700.2886,-507.4969 705.0593,-502.3743"/>
</g>
<!-- AbPushout_ab_pushout_rec_uncurried -->
<g id="node11" class="node">
<title>AbPushout_ab_pushout_rec_uncurried</title>
<g id="a_node11"><a xlink:href="AbPushout.html#ab_pushout_rec_uncurried" xlink:title="ab_pushout_rec_uncurried">
<ellipse fill="#f070d1" stroke="#000000" cx="939" cy="-480.0942" rx="135.3763" ry="18"/>
<text text-anchor="middle" x="939" y="-476.3942" font-family="Times,serif" font-size="14.00" fill="#000000">ab_pushout_rec_uncurried</text>
</a>
</g>
</g>
<!-- AbPushout_isequiv_ab_pushout_rec&#45;&gt;AbPushout_ab_pushout_rec_uncurried -->
<g id="edge7" class="edge">
<title>AbPushout_isequiv_ab_pushout_rec&#45;&gt;AbPushout_ab_pushout_rec_uncurried</title>
<path fill="none" stroke="#000000" d="M834.6715,-576.519C857.3937,-555.5182 889.3912,-525.9447 911.9438,-505.1007"/>
<polygon fill="#000000" stroke="#000000" points="914.5281,-507.4781 919.4963,-498.1203 909.7769,-502.3374 914.5281,-507.4781"/>
</g>
<!-- AbPushout_ab_pushout_rec_beta_right -->
<g id="node5" class="node">
<title>AbPushout_ab_pushout_rec_beta_right</title>
<g id="a_node5"><a xlink:href="AbPushout.html#ab_pushout_rec_beta_right" xlink:title="ab_pushout_rec_beta_right">
<ellipse fill="#f070d1" stroke="#000000" cx="162" cy="-480.0942" rx="137.5875" ry="18"/>
<ellipse fill="none" stroke="#000000" cx="162" cy="-480.0942" rx="141.5817" ry="22"/>
<ellipse fill="none" stroke="#000000" cx="162" cy="-480.0942" rx="145.5759" ry="26"/>
<text text-anchor="middle" x="162" y="-476.3942" font-family="Times,serif" font-size="14.00" fill="#000000">ab_pushout_rec_beta_right</text>
</a>
</g>
</g>
<!-- AbPushout_ab_pushout_inr -->
<g id="node9" class="node">
<title>AbPushout_ab_pushout_inr</title>
<g id="a_node9"><a xlink:href="AbPushout.html#ab_pushout_inr" xlink:title="ab_pushout_inr">
<ellipse fill="#f070d1" stroke="#000000" cx="465" cy="-247.0942" rx="82.5854" ry="18"/>
<text text-anchor="middle" x="465" y="-243.3942" font-family="Times,serif" font-size="14.00" fill="#000000">ab_pushout_inr</text>
</a>
</g>
</g>
<!-- AbPushout_ab_pushout_rec_beta_right&#45;&gt;AbPushout_ab_pushout_inr -->
<g id="edge8" class="edge">
<title>AbPushout_ab_pushout_rec_beta_right&#45;&gt;AbPushout_ab_pushout_inr</title>
<path fill="none" stroke="#000000" d="M193.0441,-454.467C229.4934,-424.5636 291.9691,-373.8849 347,-332.0942 375.2944,-310.6073 408.1367,-287.0595 431.978,-270.2088"/>
<polygon fill="#000000" stroke="#000000" points="434.1738,-272.9431 440.3293,-264.3199 430.1397,-267.2224 434.1738,-272.9431"/>
</g>
<!-- AbPushout_ab_pushout_rec_beta_right&#45;&gt;AbPushout_ab_pushout_rec -->
<g id="edge9" class="edge">
<title>AbPushout_ab_pushout_rec_beta_right&#45;&gt;AbPushout_ab_pushout_rec</title>
<path fill="none" stroke="#000000" d="M255.5337,-460.1264C341.0546,-441.5467 470.9135,-412.5239 583,-384.0942 593.5754,-381.4118 604.7841,-378.413 615.6205,-375.432"/>
<polygon fill="#000000" stroke="#000000" points="616.7381,-378.7543 625.4389,-372.709 614.8672,-372.0089 616.7381,-378.7543"/>
</g>
<!-- AbPushout_ab_pushout_rec_beta_left -->
<g id="node6" class="node">
<title>AbPushout_ab_pushout_rec_beta_left</title>
<g id="a_node6"><a xlink:href="AbPushout.html#ab_pushout_rec_beta_left" xlink:title="ab_pushout_rec_beta_left">
<ellipse fill="#f070d1" stroke="#000000" cx="1230" cy="-480.0942" rx="129.9776" ry="18"/>
<ellipse fill="none" stroke="#000000" cx="1230" cy="-480.0942" rx="133.9773" ry="22"/>
<ellipse fill="none" stroke="#000000" cx="1230" cy="-480.0942" rx="137.9769" ry="26"/>
<text text-anchor="middle" x="1230" y="-476.3942" font-family="Times,serif" font-size="14.00" fill="#000000">ab_pushout_rec_beta_left</text>
</a>
</g>
</g>
<!-- AbPushout_ab_pushout_rec_beta_left&#45;&gt;AbPushout_ab_pushout_inl -->
<g id="edge10" class="edge">
<title>AbPushout_ab_pushout_rec_beta_left&#45;&gt;AbPushout_ab_pushout_inl</title>
<path fill="none" stroke="#000000" d="M1134.629,-461.2113C1012.9814,-436.7387 816.8019,-395.8102 805,-384.0942 776.3142,-355.6173 771.3434,-306.7076 771.4143,-275.6822"/>
<polygon fill="#000000" stroke="#000000" points="774.9168,-275.5852 771.619,-265.5168 767.9183,-275.4442 774.9168,-275.5852"/>
</g>
<!-- AbPushout_ab_pushout_rec_beta_left&#45;&gt;AbPushout_ab_pushout_rec -->
<g id="edge11" class="edge">
<title>AbPushout_ab_pushout_rec_beta_left&#45;&gt;AbPushout_ab_pushout_rec</title>
<path fill="none" stroke="#000000" d="M1137.3983,-460.7282C1047.2962,-441.7408 906.5806,-411.7055 785,-384.0942 770.973,-380.9086 755.9562,-377.3943 741.6913,-374.0069"/>
<polygon fill="#000000" stroke="#000000" points="742.4962,-370.6008 731.9572,-371.6877 740.8737,-377.4102 742.4962,-370.6008"/>
</g>
<!-- AbPushout_ab_pushout_rec_beta&#45;&gt;AbPushout_ab_pushout_commsq -->
<g id="edge12" class="edge">
<title>AbPushout_ab_pushout_rec_beta&#45;&gt;AbPushout_ab_pushout_commsq</title>
<path fill="none" stroke="#000000" d="M645.7688,-462.6146C608.4781,-441.0531 545.0081,-404.3548 504.0586,-380.6778"/>
<polygon fill="#000000" stroke="#000000" points="505.5841,-377.517 495.1751,-375.5414 502.0802,-383.5769 505.5841,-377.517"/>
</g>
<!-- AbPushout_ab_pushout_rec_beta&#45;&gt;AbPushout_ab_pushout_rec -->
<g id="edge13" class="edge">
<title>AbPushout_ab_pushout_rec_beta&#45;&gt;AbPushout_ab_pushout_rec</title>
<path fill="none" stroke="#000000" d="M676,-462.0927C676,-442.09 676,-409.5369 676,-386.1773"/>
<polygon fill="#000000" stroke="#000000" points="679.5001,-386.1695 676,-376.1696 672.5001,-386.1696 679.5001,-386.1695"/>
</g>
<!-- AbPushout_ab_pushout_commsq&#45;&gt;AbPushout_ab_pushout_inr -->
<g id="edge14" class="edge">
<title>AbPushout_ab_pushout_commsq&#45;&gt;AbPushout_ab_pushout_inr</title>
<path fill="none" stroke="#000000" d="M465,-339.7648C465,-322.3315 465,-295.8424 465,-275.6431"/>
<polygon fill="#000000" stroke="#000000" points="468.5001,-275.4508 465,-265.4508 461.5001,-275.4508 468.5001,-275.4508"/>
</g>
<!-- AbPushout_ab_pushout_commsq&#45;&gt;AbPushout_ab_pushout_inl -->
<g id="edge15" class="edge">
<title>AbPushout_ab_pushout_commsq&#45;&gt;AbPushout_ab_pushout_inl</title>
<path fill="none" stroke="#000000" d="M510.4465,-341.7158C566.5591,-321.4933 661.7936,-287.1718 720.8348,-265.894"/>
<polygon fill="#000000" stroke="#000000" points="722.1248,-269.1495 730.3458,-262.4663 719.7514,-262.5641 722.1248,-269.1495"/>
</g>
<!-- AbPushout_ab_pushout_inr&#45;&gt;AbPushout_ab_pushout -->
<g id="edge16" class="edge">
<title>AbPushout_ab_pushout_inr&#45;&gt;AbPushout_ab_pushout</title>
<path fill="none" stroke="#000000" d="M505.5963,-231.3592C551.7604,-213.4661 627.0278,-184.2927 675.7789,-165.3969"/>
<polygon fill="#000000" stroke="#000000" points="677.0999,-168.6387 685.1591,-161.7612 674.5701,-162.1118 677.0999,-168.6387"/>
</g>
<!-- AbPushout_ab_pushout_inl&#45;&gt;AbPushout_ab_pushout -->
<g id="edge17" class="edge">
<title>AbPushout_ab_pushout_inl&#45;&gt;AbPushout_ab_pushout</title>
<path fill="none" stroke="#000000" d="M763.8292,-228.7526C756.1697,-213.4335 745.1424,-191.379 736.4783,-174.0508"/>
<polygon fill="#000000" stroke="#000000" points="739.5471,-172.362 731.9444,-164.983 733.2861,-175.4925 739.5471,-172.362"/>
</g>
<!-- AbPushout_ab_pushout_rec_uncurried&#45;&gt;AbPushout_ab_pushout_rec -->
<g id="edge18" class="edge">
<title>AbPushout_ab_pushout_rec_uncurried&#45;&gt;AbPushout_ab_pushout_rec</title>
<path fill="none" stroke="#000000" d="M901.5978,-462.7441C853.9361,-440.6349 771.6414,-402.4601 720.7167,-378.8373"/>
<polygon fill="#000000" stroke="#000000" points="722.1328,-375.636 711.5885,-374.6029 719.1871,-381.9861 722.1328,-375.636"/>
</g>
<!-- AbPushout_ab_pushout_rec&#45;&gt;AbPushout_ab_pushout -->
<g id="edge19" class="edge">
<title>AbPushout_ab_pushout_rec&#45;&gt;AbPushout_ab_pushout</title>
<path fill="none" stroke="#000000" d="M674.7382,-339.7997C673.4963,-314.4771 673.0235,-267.5191 683,-229.0942 688.0435,-209.669 697.893,-189.3855 706.5557,-173.8517"/>
<polygon fill="#000000" stroke="#000000" points="709.7857,-175.2562 711.7425,-164.8436 703.7195,-171.7632 709.7857,-175.2562"/>
</g>
<!-- AbPushout_ab_pushout_subgroup -->
<g id="node14" class="node">
<title>AbPushout_ab_pushout_subgroup</title>
<g id="a_node14"><a xlink:href="AbPushout.html#ab_pushout_subgroup" xlink:title="ab_pushout_subgroup">
<ellipse fill="#f070d1" stroke="#000000" cx="723" cy="-47.0942" rx="113.18" ry="18"/>
<text text-anchor="middle" x="723" y="-43.3942" font-family="Times,serif" font-size="14.00" fill="#000000">ab_pushout_subgroup</text>
</a>
</g>
</g>
<!-- AbPushout_ab_pushout&#45;&gt;AbPushout_ab_pushout_subgroup -->
<g id="edge20" class="edge">
<title>AbPushout_ab_pushout&#45;&gt;AbPushout_ab_pushout_subgroup</title>
<path fill="none" stroke="#000000" d="M723,-128.7526C723,-113.8106 723,-92.4607 723,-75.3388"/>
<polygon fill="#000000" stroke="#000000" points="726.5001,-75.3194 723,-65.3195 719.5001,-75.3195 726.5001,-75.3194"/>
</g>
</g>
</svg>
