<?xml version="1.0" encoding="UTF-8" standalone="no"?>
<!DOCTYPE svg PUBLIC "-//W3C//DTD SVG 1.1//EN"
 "http://www.w3.org/Graphics/SVG/1.1/DTD/svg11.dtd">
<!-- Generated by graphviz version 2.40.1 (20161225.0304)
 -->
<!-- Title: HoTT_WildCat_Sigma Pages: 1 -->
<svg width="542pt" height="275pt"
 viewBox="0.00 0.00 542.00 275.00" xmlns="http://www.w3.org/2000/svg" xmlns:xlink="http://www.w3.org/1999/xlink">
<g id="graph0" class="graph" transform="scale(1 1) rotate(0) translate(4 271)">
<title>HoTT_WildCat_Sigma</title>
<polygon fill="#ffffff" stroke="transparent" points="-4,4 -4,-271 538,-271 538,4 -4,4"/>
<g id="clust1" class="cluster">
<title>cluster_Sigma</title>
<polygon fill="#ffffc3" stroke="#000000" points="10.6269,-8 10.6269,-259 523.3731,-259 523.3731,-8 10.6269,-8"/>
<text text-anchor="middle" x="41.6269" y="-243.8" font-family="Times,serif" font-size="14.00" fill="#000000">Sigma</text>
</g>
<!-- Sigma_is0functor_sigma -->
<g id="node1" class="node">
<title>Sigma_is0functor_sigma</title>
<g id="a_node1"><a xlink:href="Sigma.html#is0functor_sigma" xlink:title="is0functor_sigma">
<ellipse fill="#f070d1" stroke="#000000" cx="381.209" cy="-114" rx="90.9845" ry="18"/>
<ellipse fill="none" stroke="#000000" cx="381.209" cy="-114" rx="94.9842" ry="22"/>
<ellipse fill="none" stroke="#000000" cx="381.209" cy="-114" rx="98.9839" ry="26"/>
<text text-anchor="middle" x="381.209" y="-110.3" font-family="Times,serif" font-size="14.00" fill="#000000">is0functor_sigma</text>
</a>
</g>
</g>
<!-- Sigma_isgraph_sigma -->
<g id="node4" class="node">
<title>Sigma_isgraph_sigma</title>
<g id="a_node4"><a xlink:href="Sigma.html#isgraph_sigma" xlink:title="isgraph_sigma">
<ellipse fill="#f070d1" stroke="#000000" cx="254.209" cy="-34" rx="78.7863" ry="18"/>
<text text-anchor="middle" x="254.209" y="-30.3" font-family="Times,serif" font-size="14.00" fill="#000000">isgraph_sigma</text>
</a>
</g>
</g>
<!-- Sigma_is0functor_sigma&#45;&gt;Sigma_isgraph_sigma -->
<g id="edge1" class="edge">
<title>Sigma_is0functor_sigma&#45;&gt;Sigma_isgraph_sigma</title>
<path fill="none" stroke="#000000" d="M343.1048,-89.9974C326.3366,-79.4348 306.7398,-67.0903 290.2193,-56.6837"/>
<polygon fill="#000000" stroke="#000000" points="291.7219,-53.4937 281.3952,-51.1252 287.9909,-59.4166 291.7219,-53.4937"/>
</g>
<!-- Sigma_is0gpd_sigma -->
<g id="node2" class="node">
<title>Sigma_is0gpd_sigma</title>
<g id="a_node2"><a xlink:href="Sigma.html#is0gpd_sigma" xlink:title="is0gpd_sigma">
<ellipse fill="#f070d1" stroke="#000000" cx="131.209" cy="-202" rx="74.9639" ry="18"/>
<ellipse fill="none" stroke="#000000" cx="131.209" cy="-202" rx="78.9757" ry="22"/>
<ellipse fill="none" stroke="#000000" cx="131.209" cy="-202" rx="82.9875" ry="26"/>
<text text-anchor="middle" x="131.209" y="-198.3" font-family="Times,serif" font-size="14.00" fill="#000000">is0gpd_sigma</text>
</a>
</g>
</g>
<!-- Sigma_is01cat_sigma -->
<g id="node3" class="node">
<title>Sigma_is01cat_sigma</title>
<g id="a_node3"><a xlink:href="Sigma.html#is01cat_sigma" xlink:title="is01cat_sigma">
<ellipse fill="#f070d1" stroke="#000000" cx="123.209" cy="-114" rx="77.1866" ry="18"/>
<text text-anchor="middle" x="123.209" y="-110.3" font-family="Times,serif" font-size="14.00" fill="#000000">is01cat_sigma</text>
</a>
</g>
</g>
<!-- Sigma_is0gpd_sigma&#45;&gt;Sigma_is01cat_sigma -->
<g id="edge2" class="edge">
<title>Sigma_is0gpd_sigma&#45;&gt;Sigma_is01cat_sigma</title>
<path fill="none" stroke="#000000" d="M128.8087,-175.5971C127.8491,-165.0414 126.7424,-152.868 125.7676,-142.1448"/>
<polygon fill="#000000" stroke="#000000" points="129.2381,-141.6608 124.847,-132.0188 122.2668,-142.2946 129.2381,-141.6608"/>
</g>
<!-- Sigma_is01cat_sigma&#45;&gt;Sigma_isgraph_sigma -->
<g id="edge3" class="edge">
<title>Sigma_is01cat_sigma&#45;&gt;Sigma_isgraph_sigma</title>
<path fill="none" stroke="#000000" d="M150.9907,-97.0341C170.4429,-85.1548 196.6279,-69.164 217.7562,-56.2612"/>
<polygon fill="#000000" stroke="#000000" points="219.757,-59.1405 226.4673,-50.9415 216.1087,-53.1663 219.757,-59.1405"/>
</g>
</g>
</svg>
