<?xml version="1.0" encoding="UTF-8" standalone="no"?>
<!DOCTYPE svg PUBLIC "-//W3C//DTD SVG 1.1//EN"
 "http://www.w3.org/Graphics/SVG/1.1/DTD/svg11.dtd">
<!-- Generated by graphviz version 2.40.1 (20161225.0304)
 -->
<!-- Title: HoTT_Spaces_Universe Pages: 1 -->
<svg width="1377pt" height="693pt"
 viewBox="0.00 0.00 1377.00 692.50" xmlns="http://www.w3.org/2000/svg" xmlns:xlink="http://www.w3.org/1999/xlink">
<g id="graph0" class="graph" transform="scale(1 1) rotate(0) translate(4 688.5)">
<title>HoTT_Spaces_Universe</title>
<polygon fill="#ffffff" stroke="transparent" points="-4,4 -4,-688.5 1373,-688.5 1373,4 -4,4"/>
<g id="clust1" class="cluster">
<title>cluster_Universe</title>
<polygon fill="#ffffc3" stroke="#000000" points="8,-16.1534 8,-668.3466 1361,-668.3466 1361,-16.1534 8,-16.1534"/>
<text text-anchor="middle" x="48.5" y="-653.1466" font-family="Times,serif" font-size="14.00" fill="#000000">Universe</text>
</g>
<!-- Universe_lem_beers -->
<g id="node1" class="node">
<title>Universe_lem_beers</title>
<g id="a_node1"><a xlink:href="Universe.html#lem_beers" xlink:title="lem_beers">
<ellipse fill="#f070d1" stroke="#000000" cx="1287" cy="-553.1534" rx="58.4902" ry="18"/>
<ellipse fill="none" stroke="#000000" cx="1287" cy="-553.1534" rx="62.4899" ry="22"/>
<ellipse fill="none" stroke="#000000" cx="1287" cy="-553.1534" rx="66.4896" ry="26"/>
<text text-anchor="middle" x="1287" y="-549.4534" font-family="Times,serif" font-size="14.00" fill="#000000">lem_beers</text>
</a>
</g>
</g>
<!-- Universe_zero_beers -->
<g id="node2" class="node">
<title>Universe_zero_beers</title>
<g id="a_node2"><a xlink:href="Universe.html#zero_beers" xlink:title="zero_beers">
<ellipse fill="#f070d1" stroke="#000000" cx="1228" cy="-375.1534" rx="61.99" ry="18"/>
<text text-anchor="middle" x="1228" y="-371.4534" font-family="Times,serif" font-size="14.00" fill="#000000">zero_beers</text>
</a>
</g>
</g>
<!-- Universe_lem_beers&#45;&gt;Universe_zero_beers -->
<g id="edge1" class="edge">
<title>Universe_lem_beers&#45;&gt;Universe_zero_beers</title>
<path fill="none" stroke="#000000" d="M1278.4209,-527.2707C1267.4436,-494.1528 1248.5037,-437.0121 1237.2245,-402.9832"/>
<polygon fill="#000000" stroke="#000000" points="1240.4559,-401.6076 1233.9873,-393.2167 1233.8114,-403.8101 1240.4559,-401.6076"/>
</g>
<!-- Universe_lem_from_aut_type_inhabited_empty -->
<g id="node3" class="node">
<title>Universe_lem_from_aut_type_inhabited_empty</title>
<g id="a_node3"><a xlink:href="Universe.html#lem_from_aut_type_inhabited_empty" xlink:title="lem_from_aut_type_inhabited_empty">
<ellipse fill="#f070d1" stroke="#000000" cx="1170" cy="-214.1534" rx="182.7677" ry="18"/>
<text text-anchor="middle" x="1170" y="-210.4534" font-family="Times,serif" font-size="14.00" fill="#000000">lem_from_aut_type_inhabited_empty</text>
</a>
</g>
</g>
<!-- Universe_zero_beers&#45;&gt;Universe_lem_from_aut_type_inhabited_empty -->
<g id="edge2" class="edge">
<title>Universe_zero_beers&#45;&gt;Universe_lem_from_aut_type_inhabited_empty</title>
<path fill="none" stroke="#000000" d="M1221.4594,-356.9976C1211.3644,-328.9752 1191.9136,-274.9826 1180.0315,-241.9995"/>
<polygon fill="#000000" stroke="#000000" points="1183.2879,-240.7117 1176.6057,-232.4898 1176.7022,-243.0842 1183.2879,-240.7117"/>
</g>
<!-- Universe_equiv_hprop_idprod -->
<g id="node4" class="node">
<title>Universe_equiv_hprop_idprod</title>
<g id="a_node4"><a xlink:href="Universe.html#equiv_hprop_idprod" xlink:title="equiv_hprop_idprod">
<ellipse fill="#f070d1" stroke="#000000" cx="1170" cy="-68.1534" rx="103.1819" ry="18"/>
<text text-anchor="middle" x="1170" y="-64.4534" font-family="Times,serif" font-size="14.00" fill="#000000">equiv_hprop_idprod</text>
</a>
</g>
</g>
<!-- Universe_lem_from_aut_type_inhabited_empty&#45;&gt;Universe_equiv_hprop_idprod -->
<g id="edge3" class="edge">
<title>Universe_lem_from_aut_type_inhabited_empty&#45;&gt;Universe_equiv_hprop_idprod</title>
<path fill="none" stroke="#000000" d="M1170,-195.9576C1170,-171.0402 1170,-126.0472 1170,-96.6411"/>
<polygon fill="#000000" stroke="#000000" points="1173.5001,-96.5785 1170,-86.5785 1166.5001,-96.5785 1173.5001,-96.5785"/>
</g>
<!-- Universe_lem_from_aut_type_unit_empty -->
<g id="node5" class="node">
<title>Universe_lem_from_aut_type_unit_empty</title>
<g id="a_node5"><a xlink:href="Universe.html#lem_from_aut_type_unit_empty" xlink:title="lem_from_aut_type_unit_empty">
<ellipse fill="#f070d1" stroke="#000000" cx="1037" cy="-553.1534" rx="157.0827" ry="18"/>
<ellipse fill="none" stroke="#000000" cx="1037" cy="-553.1534" rx="161.0775" ry="22"/>
<ellipse fill="none" stroke="#000000" cx="1037" cy="-553.1534" rx="165.0724" ry="26"/>
<text text-anchor="middle" x="1037" y="-549.4534" font-family="Times,serif" font-size="14.00" fill="#000000">lem_from_aut_type_unit_empty</text>
</a>
</g>
</g>
<!-- Universe_equiv_swap_prod_rigid -->
<g id="node6" class="node">
<title>Universe_equiv_swap_prod_rigid</title>
<g id="a_node6"><a xlink:href="Universe.html#equiv_swap_prod_rigid" xlink:title="equiv_swap_prod_rigid">
<ellipse fill="#f070d1" stroke="#000000" cx="674" cy="-375.1534" rx="118.0927" ry="18"/>
<ellipse fill="none" stroke="#000000" cx="674" cy="-375.1534" rx="122.086" ry="22"/>
<ellipse fill="none" stroke="#000000" cx="674" cy="-375.1534" rx="126.0794" ry="26"/>
<text text-anchor="middle" x="674" y="-371.4534" font-family="Times,serif" font-size="14.00" fill="#000000">equiv_swap_prod_rigid</text>
</a>
</g>
</g>
<!-- Universe_equiv_swap_types -->
<g id="node12" class="node">
<title>Universe_equiv_swap_types</title>
<g id="a_node12"><a xlink:href="Universe.html#equiv_swap_types" xlink:title="equiv_swap_types">
<ellipse fill="#f070d1" stroke="#000000" cx="438" cy="-214.1534" rx="94.7833" ry="18"/>
<text text-anchor="middle" x="438" y="-210.4534" font-family="Times,serif" font-size="14.00" fill="#000000">equiv_swap_types</text>
</a>
</g>
</g>
<!-- Universe_equiv_swap_prod_rigid&#45;&gt;Universe_equiv_swap_types -->
<g id="edge4" class="edge">
<title>Universe_equiv_swap_prod_rigid&#45;&gt;Universe_equiv_swap_types</title>
<path fill="none" stroke="#000000" d="M637.3839,-350.1738C592.1103,-319.288 515.6731,-267.1422 471.7593,-237.1841"/>
<polygon fill="#000000" stroke="#000000" points="473.6623,-234.2455 463.4291,-231.5012 469.7174,-240.028 473.6623,-234.2455"/>
</g>
<!-- Universe_equiv_swap_rigid_swaps -->
<g id="node7" class="node">
<title>Universe_equiv_swap_rigid_swaps</title>
<g id="a_node7"><a xlink:href="Universe.html#equiv_swap_rigid_swaps" xlink:title="equiv_swap_rigid_swaps">
<ellipse fill="#f070d1" stroke="#000000" cx="720" cy="-553.1534" rx="125.3814" ry="18"/>
<ellipse fill="none" stroke="#000000" cx="720" cy="-553.1534" rx="129.3796" ry="22"/>
<ellipse fill="none" stroke="#000000" cx="720" cy="-553.1534" rx="133.3778" ry="26"/>
<text text-anchor="middle" x="720" y="-549.4534" font-family="Times,serif" font-size="14.00" fill="#000000">equiv_swap_rigid_swaps</text>
</a>
</g>
</g>
<!-- Universe_equiv_swap_rigid -->
<g id="node9" class="node">
<title>Universe_equiv_swap_rigid</title>
<g id="a_node9"><a xlink:href="Universe.html#equiv_swap_rigid" xlink:title="equiv_swap_rigid">
<ellipse fill="#f070d1" stroke="#000000" cx="438" cy="-375.1534" rx="91.784" ry="18"/>
<text text-anchor="middle" x="438" y="-371.4534" font-family="Times,serif" font-size="14.00" fill="#000000">equiv_swap_rigid</text>
</a>
</g>
</g>
<!-- Universe_equiv_swap_rigid_swaps&#45;&gt;Universe_equiv_swap_rigid -->
<g id="edge5" class="edge">
<title>Universe_equiv_swap_rigid_swaps&#45;&gt;Universe_equiv_swap_rigid</title>
<path fill="none" stroke="#000000" d="M680.4922,-528.2158C625.6109,-493.5745 527.0901,-431.3876 474.0912,-397.9343"/>
<polygon fill="#000000" stroke="#000000" points="475.6918,-394.8058 465.3673,-392.4278 471.9554,-400.7252 475.6918,-394.8058"/>
</g>
<!-- Universe_equiv_swap_empty_unit -->
<g id="node8" class="node">
<title>Universe_equiv_swap_empty_unit</title>
<g id="a_node8"><a xlink:href="Universe.html#equiv_swap_empty_unit" xlink:title="equiv_swap_empty_unit">
<ellipse fill="#f070d1" stroke="#000000" cx="438" cy="-553.1534" rx="122.367" ry="18"/>
<ellipse fill="none" stroke="#000000" cx="438" cy="-553.1534" rx="126.3728" ry="22"/>
<ellipse fill="none" stroke="#000000" cx="438" cy="-553.1534" rx="130.3786" ry="26"/>
<text text-anchor="middle" x="438" y="-549.4534" font-family="Times,serif" font-size="14.00" fill="#000000">equiv_swap_empty_unit</text>
</a>
</g>
</g>
<!-- Universe_equiv_swap_empty_unit&#45;&gt;Universe_equiv_swap_rigid -->
<g id="edge6" class="edge">
<title>Universe_equiv_swap_empty_unit&#45;&gt;Universe_equiv_swap_rigid</title>
<path fill="none" stroke="#000000" d="M438,-526.8889C438,-493.9037 438,-437.5266 438,-403.563"/>
<polygon fill="#000000" stroke="#000000" points="441.5001,-403.3815 438,-393.3816 434.5001,-403.3816 441.5001,-403.3815"/>
</g>
<!-- Universe_equiv_swap_rigid&#45;&gt;Universe_equiv_swap_types -->
<g id="edge7" class="edge">
<title>Universe_equiv_swap_rigid&#45;&gt;Universe_equiv_swap_types</title>
<path fill="none" stroke="#000000" d="M438,-356.9976C438,-329.2168 438,-275.9116 438,-242.8572"/>
<polygon fill="#000000" stroke="#000000" points="441.5001,-242.4898 438,-232.4898 434.5001,-242.4899 441.5001,-242.4898"/>
</g>
<!-- Universe_equiv_swap_types_not_id -->
<g id="node10" class="node">
<title>Universe_equiv_swap_types_not_id</title>
<g id="a_node10"><a xlink:href="Universe.html#equiv_swap_types_not_id" xlink:title="equiv_swap_types_not_id">
<ellipse fill="#f070d1" stroke="#000000" cx="153" cy="-553.1534" rx="128.8664" ry="18"/>
<ellipse fill="none" stroke="#000000" cx="153" cy="-553.1534" rx="132.8719" ry="22"/>
<ellipse fill="none" stroke="#000000" cx="153" cy="-553.1534" rx="136.8774" ry="26"/>
<text text-anchor="middle" x="153" y="-549.4534" font-family="Times,serif" font-size="14.00" fill="#000000">equiv_swap_types_not_id</text>
</a>
</g>
</g>
<!-- Universe_equiv_swap_types_swaps -->
<g id="node11" class="node">
<title>Universe_equiv_swap_types_swaps</title>
<g id="a_node11"><a xlink:href="Universe.html#equiv_swap_types_swaps" xlink:title="equiv_swap_types_swaps">
<ellipse fill="#f070d1" stroke="#000000" cx="176" cy="-375.1534" rx="128.8774" ry="18"/>
<text text-anchor="middle" x="176" y="-371.4534" font-family="Times,serif" font-size="14.00" fill="#000000">equiv_swap_types_swaps</text>
</a>
</g>
</g>
<!-- Universe_equiv_swap_types_not_id&#45;&gt;Universe_equiv_swap_types_swaps -->
<g id="edge8" class="edge">
<title>Universe_equiv_swap_types_not_id&#45;&gt;Universe_equiv_swap_types_swaps</title>
<path fill="none" stroke="#000000" d="M156.3937,-526.8889C160.6559,-493.9037 167.9405,-437.5266 172.3291,-403.563"/>
<polygon fill="#000000" stroke="#000000" points="175.8343,-403.7477 173.6447,-393.3816 168.892,-402.8506 175.8343,-403.7477"/>
</g>
<!-- Universe_equiv_swap_types_swaps&#45;&gt;Universe_equiv_swap_types -->
<g id="edge9" class="edge">
<title>Universe_equiv_swap_types_swaps&#45;&gt;Universe_equiv_swap_types</title>
<path fill="none" stroke="#000000" d="M204.788,-357.463C252.6649,-328.0425 348.5858,-269.0988 401.2668,-236.7261"/>
<polygon fill="#000000" stroke="#000000" points="403.2705,-239.6029 409.958,-231.3853 399.6056,-233.6389 403.2705,-239.6029"/>
</g>
</g>
</svg>
