<?xml version="1.0" encoding="UTF-8" standalone="no"?>
<!DOCTYPE svg PUBLIC "-//W3C//DTD SVG 1.1//EN"
 "http://www.w3.org/Graphics/SVG/1.1/DTD/svg11.dtd">
<!-- Generated by graphviz version 2.40.1 (20161225.0304)
 -->
<!-- Title: HoTT_Homotopy_EncodeDecode Pages: 1 -->
<svg width="596pt" height="302pt"
 viewBox="0.00 0.00 596.00 302.00" xmlns="http://www.w3.org/2000/svg" xmlns:xlink="http://www.w3.org/1999/xlink">
<g id="graph0" class="graph" transform="scale(1 1) rotate(0) translate(4 298)">
<title>HoTT_Homotopy_EncodeDecode</title>
<polygon fill="#ffffff" stroke="transparent" points="-4,4 -4,-298 592,-298 592,4 -4,4"/>
<g id="clust1" class="cluster">
<title>cluster_EncodeDecode</title>
<polygon fill="#ffffc3" stroke="#000000" points="8,-13.1397 8,-280.8603 580,-280.8603 580,-13.1397 8,-13.1397"/>
<text text-anchor="middle" x="69.5" y="-265.6603" font-family="Times,serif" font-size="14.00" fill="#000000">EncodeDecode</text>
</g>
<!-- EncodeDecode_encode_decode_trunc_loops -->
<g id="node1" class="node">
<title>EncodeDecode_encode_decode_trunc_loops</title>
<g id="a_node1"><a xlink:href="EncodeDecode.html#encode_decode_trunc_loops" xlink:title="encode_decode_trunc_loops">
<ellipse fill="#f070d1" stroke="#000000" cx="422" cy="-187.1397" rx="141.8651" ry="18"/>
<ellipse fill="none" stroke="#000000" cx="422" cy="-187.1397" rx="145.8701" ry="22"/>
<ellipse fill="none" stroke="#000000" cx="422" cy="-187.1397" rx="149.8751" ry="26"/>
<text text-anchor="middle" x="422" y="-183.4397" font-family="Times,serif" font-size="14.00" fill="#000000">encode_decode_trunc_loops</text>
</a>
</g>
</g>
<!-- EncodeDecode_encode_decode_trunc -->
<g id="node3" class="node">
<title>EncodeDecode_encode_decode_trunc</title>
<g id="a_node3"><a xlink:href="EncodeDecode.html#encode_decode_trunc" xlink:title="encode_decode_trunc">
<ellipse fill="#f070d1" stroke="#000000" cx="422" cy="-56.1397" rx="112.3801" ry="18"/>
<text text-anchor="middle" x="422" y="-52.4397" font-family="Times,serif" font-size="14.00" fill="#000000">encode_decode_trunc</text>
</a>
</g>
</g>
<!-- EncodeDecode_encode_decode_trunc_loops&#45;&gt;EncodeDecode_encode_decode_trunc -->
<g id="edge1" class="edge">
<title>EncodeDecode_encode_decode_trunc_loops&#45;&gt;EncodeDecode_encode_decode_trunc</title>
<path fill="none" stroke="#000000" d="M422,-160.9447C422,-138.7712 422,-107.0612 422,-84.337"/>
<polygon fill="#000000" stroke="#000000" points="425.5001,-84.2901 422,-74.2901 418.5001,-84.2902 425.5001,-84.2901"/>
</g>
<!-- EncodeDecode_encode_decode_loops -->
<g id="node2" class="node">
<title>EncodeDecode_encode_decode_loops</title>
<g id="a_node2"><a xlink:href="EncodeDecode.html#encode_decode_loops" xlink:title="encode_decode_loops">
<ellipse fill="#f070d1" stroke="#000000" cx="135" cy="-187.1397" rx="111.271" ry="18"/>
<ellipse fill="none" stroke="#000000" cx="135" cy="-187.1397" rx="115.2757" ry="22"/>
<ellipse fill="none" stroke="#000000" cx="135" cy="-187.1397" rx="119.2804" ry="26"/>
<text text-anchor="middle" x="135" y="-183.4397" font-family="Times,serif" font-size="14.00" fill="#000000">encode_decode_loops</text>
</a>
</g>
</g>
<!-- EncodeDecode_encode_decode -->
<g id="node4" class="node">
<title>EncodeDecode_encode_decode</title>
<g id="a_node4"><a xlink:href="EncodeDecode.html#encode_decode" xlink:title="encode_decode">
<ellipse fill="#f070d1" stroke="#000000" cx="135" cy="-56.1397" rx="81.7856" ry="18"/>
<text text-anchor="middle" x="135" y="-52.4397" font-family="Times,serif" font-size="14.00" fill="#000000">encode_decode</text>
</a>
</g>
</g>
<!-- EncodeDecode_encode_decode_loops&#45;&gt;EncodeDecode_encode_decode -->
<g id="edge2" class="edge">
<title>EncodeDecode_encode_decode_loops&#45;&gt;EncodeDecode_encode_decode</title>
<path fill="none" stroke="#000000" d="M135,-160.9447C135,-138.7712 135,-107.0612 135,-84.337"/>
<polygon fill="#000000" stroke="#000000" points="138.5001,-84.2901 135,-74.2901 131.5001,-84.2902 138.5001,-84.2901"/>
</g>
</g>
</svg>
