<?xml version="1.0" encoding="UTF-8" standalone="no"?>
<!DOCTYPE svg PUBLIC "-//W3C//DTD SVG 1.1//EN"
 "http://www.w3.org/Graphics/SVG/1.1/DTD/svg11.dtd">
<!-- Generated by graphviz version 2.40.1 (20161225.0304)
 -->
<!-- Title: HoTT_Classes_interfaces_cauchy Pages: 1 -->
<svg width="511pt" height="260pt"
 viewBox="0.00 0.00 511.00 259.50" xmlns="http://www.w3.org/2000/svg" xmlns:xlink="http://www.w3.org/1999/xlink">
<g id="graph0" class="graph" transform="scale(1 1) rotate(0) translate(4 255.5)">
<title>HoTT_Classes_interfaces_cauchy</title>
<polygon fill="#ffffff" stroke="transparent" points="-4,4 -4,-255.5 507,-255.5 507,4 -4,4"/>
<g id="clust1" class="cluster">
<title>cluster_cauchy</title>
<polygon fill="#ffffc3" stroke="#000000" points="8,-8.0159 8,-243.4841 495,-243.4841 495,-8.0159 8,-8.0159"/>
<text text-anchor="middle" x="42" y="-228.2841" font-family="Times,serif" font-size="14.00" fill="#000000">cauchy</text>
</g>
<!-- cauchy_modulus_close_limit -->
<g id="node1" class="node">
<title>cauchy_modulus_close_limit</title>
<g id="a_node1"><a xlink:href="cauchy.html#modulus_close_limit" xlink:title="modulus_close_limit">
<ellipse fill="#f070d1" stroke="#000000" cx="335" cy="-186.0159" rx="105.0965" ry="18"/>
<ellipse fill="none" stroke="#000000" cx="335" cy="-186.0159" rx="109.0891" ry="22"/>
<ellipse fill="none" stroke="#000000" cx="335" cy="-186.0159" rx="113.0817" ry="26"/>
<text text-anchor="middle" x="335" y="-182.3159" font-family="Times,serif" font-size="14.00" fill="#000000">modulus_close_limit</text>
</a>
</g>
</g>
<!-- cauchy_is_limit -->
<g id="node4" class="node">
<title>cauchy_is_limit</title>
<g id="a_node4"><a xlink:href="cauchy.html#is_limit" xlink:title="is_limit">
<ellipse fill="#f070d1" stroke="#000000" cx="207" cy="-106.0159" rx="44.6926" ry="18"/>
<text text-anchor="middle" x="207" y="-102.3159" font-family="Times,serif" font-size="14.00" fill="#000000">is_limit</text>
</a>
</g>
</g>
<!-- cauchy_modulus_close_limit&#45;&gt;cauchy_is_limit -->
<g id="edge1" class="edge">
<title>cauchy_modulus_close_limit&#45;&gt;cauchy_is_limit</title>
<path fill="none" stroke="#000000" d="M295.9003,-161.5786C277.9946,-150.3876 257.0082,-137.2711 239.9234,-126.5931"/>
<polygon fill="#000000" stroke="#000000" points="241.7168,-123.5866 231.3818,-121.2546 238.0068,-129.5226 241.7168,-123.5866"/>
</g>
<!-- cauchy_cauchy_convergence -->
<g id="node6" class="node">
<title>cauchy_cauchy_convergence</title>
<g id="a_node6"><a xlink:href="cauchy.html#cauchy_convergence" xlink:title="cauchy_convergence">
<ellipse fill="#f070d1" stroke="#000000" cx="378" cy="-106.0159" rx="108.5808" ry="18"/>
<text text-anchor="middle" x="378" y="-102.3159" font-family="Times,serif" font-size="14.00" fill="#000000">cauchy_convergence</text>
</a>
</g>
</g>
<!-- cauchy_modulus_close_limit&#45;&gt;cauchy_cauchy_convergence -->
<g id="edge2" class="edge">
<title>cauchy_modulus_close_limit&#45;&gt;cauchy_cauchy_convergence</title>
<path fill="none" stroke="#000000" d="M349.0798,-159.8209C353.6846,-151.254 358.8069,-141.724 363.4459,-133.0933"/>
<polygon fill="#000000" stroke="#000000" points="366.591,-134.6345 368.2426,-124.1692 360.4253,-131.3204 366.591,-134.6345"/>
</g>
<!-- cauchy_is_complete -->
<g id="node2" class="node">
<title>cauchy_is_complete</title>
<g id="a_node2"><a xlink:href="cauchy.html#is_complete" xlink:title="is_complete">
<ellipse fill="#f070d1" stroke="#000000" cx="90" cy="-186.0159" rx="66.1109" ry="18"/>
<ellipse fill="none" stroke="#000000" cx="90" cy="-186.0159" rx="70.0999" ry="22"/>
<ellipse fill="none" stroke="#000000" cx="90" cy="-186.0159" rx="74.0888" ry="26"/>
<text text-anchor="middle" x="90" y="-182.3159" font-family="Times,serif" font-size="14.00" fill="#000000">is_complete</text>
</a>
</g>
</g>
<!-- cauchy_IsComplete -->
<g id="node3" class="node">
<title>cauchy_IsComplete</title>
<g id="a_node3"><a xlink:href="cauchy.html#IsComplete" xlink:title="IsComplete">
<ellipse fill="#f070d1" stroke="#000000" cx="80" cy="-106.0159" rx="64.189" ry="18"/>
<text text-anchor="middle" x="80" y="-102.3159" font-family="Times,serif" font-size="14.00" fill="#000000">IsComplete</text>
</a>
</g>
</g>
<!-- cauchy_is_complete&#45;&gt;cauchy_IsComplete -->
<g id="edge3" class="edge">
<title>cauchy_is_complete&#45;&gt;cauchy_IsComplete</title>
<path fill="none" stroke="#000000" d="M86.7256,-159.8209C85.7003,-151.6185 84.5647,-142.5333 83.523,-134.1998"/>
<polygon fill="#000000" stroke="#000000" points="86.9826,-133.6578 82.2692,-124.1692 80.0366,-134.5261 86.9826,-133.6578"/>
</g>
<!-- cauchy_IsLimit -->
<g id="node5" class="node">
<title>cauchy_IsLimit</title>
<g id="a_node5"><a xlink:href="cauchy.html#IsLimit" xlink:title="IsLimit">
<ellipse fill="#f070d1" stroke="#000000" cx="117" cy="-34.0159" rx="44.393" ry="18"/>
<text text-anchor="middle" x="117" y="-30.3159" font-family="Times,serif" font-size="14.00" fill="#000000">IsLimit</text>
</a>
</g>
</g>
<!-- cauchy_IsComplete&#45;&gt;cauchy_IsLimit -->
<g id="edge4" class="edge">
<title>cauchy_IsComplete&#45;&gt;cauchy_IsLimit</title>
<path fill="none" stroke="#000000" d="M89.3367,-87.8473C93.5313,-79.6847 98.5668,-69.8859 103.1853,-60.8987"/>
<polygon fill="#000000" stroke="#000000" points="106.3368,-62.4234 107.7945,-51.9293 100.1107,-59.2239 106.3368,-62.4234"/>
</g>
<!-- cauchy_CauchyModulus -->
<g id="node7" class="node">
<title>cauchy_CauchyModulus</title>
<g id="a_node7"><a xlink:href="cauchy.html#CauchyModulus" xlink:title="CauchyModulus">
<ellipse fill="#f070d1" stroke="#000000" cx="340" cy="-34.0159" rx="85.5853" ry="18"/>
<text text-anchor="middle" x="340" y="-30.3159" font-family="Times,serif" font-size="14.00" fill="#000000">CauchyModulus</text>
</a>
</g>
</g>
<!-- cauchy_IsComplete&#45;&gt;cauchy_CauchyModulus -->
<g id="edge5" class="edge">
<title>cauchy_IsComplete&#45;&gt;cauchy_CauchyModulus</title>
<path fill="none" stroke="#000000" d="M125.8843,-93.3095C168.212,-81.588 231.3894,-64.0927 278.1574,-51.1416"/>
<polygon fill="#000000" stroke="#000000" points="279.1715,-54.4925 287.8748,-48.4506 277.3033,-47.7464 279.1715,-54.4925"/>
</g>
<!-- cauchy_is_limit&#45;&gt;cauchy_IsLimit -->
<g id="edge6" class="edge">
<title>cauchy_is_limit&#45;&gt;cauchy_IsLimit</title>
<path fill="none" stroke="#000000" d="M186.5776,-89.678C174.3801,-79.92 158.7074,-67.3819 145.3258,-56.6766"/>
<polygon fill="#000000" stroke="#000000" points="147.3367,-53.8031 137.3416,-50.2892 142.9638,-59.2692 147.3367,-53.8031"/>
</g>
<!-- cauchy_cauchy_convergence&#45;&gt;cauchy_CauchyModulus -->
<g id="edge7" class="edge">
<title>cauchy_cauchy_convergence&#45;&gt;cauchy_CauchyModulus</title>
<path fill="none" stroke="#000000" d="M368.411,-87.8473C364.103,-79.6847 358.9314,-69.8859 354.1881,-60.8987"/>
<polygon fill="#000000" stroke="#000000" points="357.2173,-59.1395 349.4543,-51.9293 351.0266,-62.4069 357.2173,-59.1395"/>
</g>
</g>
</svg>
