<?xml version="1.0" encoding="UTF-8" standalone="no"?>
<!DOCTYPE svg PUBLIC "-//W3C//DTD SVG 1.1//EN"
 "http://www.w3.org/Graphics/SVG/1.1/DTD/svg11.dtd">
<!-- Generated by graphviz version 2.40.1 (20161225.0304)
 -->
<!-- Title: HoTT_Homotopy_HSpace Pages: 1 -->
<svg width="1976pt" height="992pt"
 viewBox="0.00 0.00 1976.00 992.00" xmlns="http://www.w3.org/2000/svg" xmlns:xlink="http://www.w3.org/1999/xlink">
<g id="graph0" class="graph" transform="scale(1 1) rotate(0) translate(4 988)">
<title>HoTT_Homotopy_HSpace</title>
<polygon fill="#ffffff" stroke="transparent" points="-4,4 -4,-988 1972,-988 1972,4 -4,4"/>
<g id="clust1" class="cluster">
<title>cluster_HSpace</title>
<polygon fill="#ffffc3" stroke="#000000" points="8,-29.4831 8,-954.5169 1960,-954.5169 1960,-29.4831 8,-29.4831"/>
<text text-anchor="middle" x="44.5" y="-939.3169" font-family="Times,serif" font-size="14.00" fill="#000000">HSpace</text>
</g>
<!-- HSpace_equiv_hspace_right_op -->
<g id="node1" class="node">
<title>HSpace_equiv_hspace_right_op</title>
<g id="a_node1"><a xlink:href="HSpace.html#equiv_hspace_right_op" xlink:title="equiv_hspace_right_op">
<ellipse fill="#f070d1" stroke="#000000" cx="1826" cy="-744.4831" rx="117.7704" ry="18"/>
<ellipse fill="none" stroke="#000000" cx="1826" cy="-744.4831" rx="121.7748" ry="22"/>
<ellipse fill="none" stroke="#000000" cx="1826" cy="-744.4831" rx="125.7793" ry="26"/>
<text text-anchor="middle" x="1826" y="-740.7831" font-family="Times,serif" font-size="14.00" fill="#000000">equiv_hspace_right_op</text>
</a>
</g>
</g>
<!-- HSpace_isequiv_hspace_right_op -->
<g id="node3" class="node">
<title>HSpace_isequiv_hspace_right_op</title>
<g id="a_node3"><a xlink:href="HSpace.html#isequiv_hspace_right_op" xlink:title="isequiv_hspace_right_op">
<ellipse fill="#f070d1" stroke="#000000" cx="1827" cy="-420.4831" rx="125.3778" ry="18"/>
<text text-anchor="middle" x="1827" y="-416.7831" font-family="Times,serif" font-size="14.00" fill="#000000">isequiv_hspace_right_op</text>
</a>
</g>
</g>
<!-- HSpace_equiv_hspace_right_op&#45;&gt;HSpace_isequiv_hspace_right_op -->
<g id="edge1" class="edge">
<title>HSpace_equiv_hspace_right_op&#45;&gt;HSpace_isequiv_hspace_right_op</title>
<path fill="none" stroke="#000000" d="M1826.081,-718.2433C1826.2665,-658.1274 1826.7211,-510.8494 1826.9126,-448.7897"/>
<polygon fill="#000000" stroke="#000000" points="1830.4132,-448.581 1826.9442,-438.5702 1823.4132,-448.5593 1830.4132,-448.581"/>
</g>
<!-- HSpace_equiv_hspace_left_op -->
<g id="node2" class="node">
<title>HSpace_equiv_hspace_left_op</title>
<g id="a_node2"><a xlink:href="HSpace.html#equiv_hspace_left_op" xlink:title="equiv_hspace_left_op">
<ellipse fill="#f070d1" stroke="#000000" cx="1564" cy="-744.4831" rx="110.4811" ry="18"/>
<ellipse fill="none" stroke="#000000" cx="1564" cy="-744.4831" rx="114.4807" ry="22"/>
<ellipse fill="none" stroke="#000000" cx="1564" cy="-744.4831" rx="118.4804" ry="26"/>
<text text-anchor="middle" x="1564" y="-740.7831" font-family="Times,serif" font-size="14.00" fill="#000000">equiv_hspace_left_op</text>
</a>
</g>
</g>
<!-- HSpace_isequiv_hspace_left_op -->
<g id="node4" class="node">
<title>HSpace_isequiv_hspace_left_op</title>
<g id="a_node4"><a xlink:href="HSpace.html#isequiv_hspace_left_op" xlink:title="isequiv_hspace_left_op">
<ellipse fill="#f070d1" stroke="#000000" cx="1565" cy="-420.4831" rx="118.0794" ry="18"/>
<text text-anchor="middle" x="1565" y="-416.7831" font-family="Times,serif" font-size="14.00" fill="#000000">isequiv_hspace_left_op</text>
</a>
</g>
</g>
<!-- HSpace_equiv_hspace_left_op&#45;&gt;HSpace_isequiv_hspace_left_op -->
<g id="edge2" class="edge">
<title>HSpace_equiv_hspace_left_op&#45;&gt;HSpace_isequiv_hspace_left_op</title>
<path fill="none" stroke="#000000" d="M1564.081,-718.2433C1564.2665,-658.1274 1564.7211,-510.8494 1564.9126,-448.7897"/>
<polygon fill="#000000" stroke="#000000" points="1568.4132,-448.581 1564.9442,-438.5702 1561.4132,-448.5593 1568.4132,-448.581"/>
</g>
<!-- HSpace_hspace_id -->
<g id="node5" class="node">
<title>HSpace_hspace_id</title>
<g id="a_node5"><a xlink:href="HSpace.html#hspace_id" xlink:title="hspace_id">
<ellipse fill="#f070d1" stroke="#000000" cx="1696" cy="-125.4831" rx="57.3905" ry="18"/>
<text text-anchor="middle" x="1696" y="-121.7831" font-family="Times,serif" font-size="14.00" fill="#000000">hspace_id</text>
</a>
</g>
</g>
<!-- HSpace_isequiv_hspace_right_op&#45;&gt;HSpace_hspace_id -->
<g id="edge3" class="edge">
<title>HSpace_isequiv_hspace_right_op&#45;&gt;HSpace_hspace_id</title>
<path fill="none" stroke="#000000" d="M1819.0026,-402.4736C1796.8489,-352.5857 1734.5818,-212.3659 1708.1307,-152.8004"/>
<polygon fill="#000000" stroke="#000000" points="1711.3166,-151.3507 1704.0592,-143.6318 1704.919,-154.1917 1711.3166,-151.3507"/>
</g>
<!-- HSpace_IsHSpace -->
<g id="node15" class="node">
<title>HSpace_IsHSpace</title>
<g id="a_node15"><a xlink:href="HSpace.html#IsHSpace" xlink:title="IsHSpace">
<ellipse fill="#e2cdfa" stroke="#000000" cx="840" cy="-125.4831" rx="55.7903" ry="18"/>
<text text-anchor="middle" x="840" y="-121.7831" font-family="Times,serif" font-size="14.00" fill="#000000">IsHSpace</text>
</a>
</g>
</g>
<!-- HSpace_isequiv_hspace_right_op&#45;&gt;HSpace_IsHSpace -->
<g id="edge4" class="edge">
<title>HSpace_isequiv_hspace_right_op&#45;&gt;HSpace_IsHSpace</title>
<path fill="none" stroke="#000000" d="M1772.5287,-404.2025C1598.7796,-352.2714 1059.2806,-191.0229 890.8002,-140.6666"/>
<polygon fill="#000000" stroke="#000000" points="891.7627,-137.3013 881.1792,-137.791 889.7581,-144.0082 891.7627,-137.3013"/>
</g>
<!-- HSpace_isequiv_hspace_left_op&#45;&gt;HSpace_hspace_id -->
<g id="edge5" class="edge">
<title>HSpace_isequiv_hspace_left_op&#45;&gt;HSpace_hspace_id</title>
<path fill="none" stroke="#000000" d="M1572.9974,-402.4736C1595.1511,-352.5857 1657.4182,-212.3659 1683.8693,-152.8004"/>
<polygon fill="#000000" stroke="#000000" points="1687.081,-154.1917 1687.9408,-143.6318 1680.6834,-151.3507 1687.081,-154.1917"/>
</g>
<!-- HSpace_isequiv_hspace_left_op&#45;&gt;HSpace_IsHSpace -->
<g id="edge6" class="edge">
<title>HSpace_isequiv_hspace_left_op&#45;&gt;HSpace_IsHSpace</title>
<path fill="none" stroke="#000000" d="M1523.4169,-403.5631C1396.4612,-351.9053 1014.6146,-196.5332 884.2116,-143.4727"/>
<polygon fill="#000000" stroke="#000000" points="885.4836,-140.2117 874.9019,-139.6846 882.8453,-146.6955 885.4836,-140.2117"/>
</g>
<!-- HSpace_hspace_mon_unit -->
<g id="node6" class="node">
<title>HSpace_hspace_mon_unit</title>
<g id="a_node6"><a xlink:href="HSpace.html#hspace_mon_unit" xlink:title="hspace_mon_unit">
<ellipse fill="#f070d1" stroke="#000000" cx="1329" cy="-420.4831" rx="91.7725" ry="18"/>
<ellipse fill="none" stroke="#000000" cx="1329" cy="-420.4831" rx="95.7782" ry="22"/>
<ellipse fill="none" stroke="#000000" cx="1329" cy="-420.4831" rx="99.7839" ry="26"/>
<text text-anchor="middle" x="1329" y="-416.7831" font-family="Times,serif" font-size="14.00" fill="#000000">hspace_mon_unit</text>
</a>
</g>
</g>
<!-- HSpace_hspace_mon_unit&#45;&gt;HSpace_IsHSpace -->
<g id="edge7" class="edge">
<title>HSpace_hspace_mon_unit&#45;&gt;HSpace_IsHSpace</title>
<path fill="none" stroke="#000000" d="M1289.3973,-396.5919C1196.0829,-340.298 963.6188,-200.0589 875.0385,-146.6209"/>
<polygon fill="#000000" stroke="#000000" points="876.8031,-143.5979 866.4326,-141.4292 873.1872,-149.5917 876.8031,-143.5979"/>
</g>
<!-- HSpace_hspace_right_identity -->
<g id="node7" class="node">
<title>HSpace_hspace_right_identity</title>
<g id="a_node7"><a xlink:href="HSpace.html#hspace_right_identity" xlink:title="hspace_right_identity">
<ellipse fill="#f070d1" stroke="#000000" cx="1091" cy="-420.4831" rx="112.3841" ry="18"/>
<ellipse fill="none" stroke="#000000" cx="1091" cy="-420.4831" rx="116.3821" ry="22"/>
<ellipse fill="none" stroke="#000000" cx="1091" cy="-420.4831" rx="120.3801" ry="26"/>
<text text-anchor="middle" x="1091" y="-416.7831" font-family="Times,serif" font-size="14.00" fill="#000000">hspace_right_identity</text>
</a>
</g>
</g>
<!-- HSpace_hspace_right_identity&#45;&gt;HSpace_IsHSpace -->
<g id="edge8" class="edge">
<title>HSpace_hspace_right_identity&#45;&gt;HSpace_IsHSpace</title>
<path fill="none" stroke="#000000" d="M1069.1645,-394.8199C1021.5325,-338.8381 908.7831,-206.3238 861.4784,-150.7267"/>
<polygon fill="#000000" stroke="#000000" points="864.1354,-148.4484 854.9895,-143.1003 858.8041,-152.9846 864.1354,-148.4484"/>
</g>
<!-- HSpace_hspace_left_identity -->
<g id="node8" class="node">
<title>HSpace_hspace_left_identity</title>
<g id="a_node8"><a xlink:href="HSpace.html#hspace_left_identity" xlink:title="hspace_left_identity">
<ellipse fill="#f070d1" stroke="#000000" cx="840" cy="-420.4831" rx="104.7716" ry="18"/>
<ellipse fill="none" stroke="#000000" cx="840" cy="-420.4831" rx="108.7766" ry="22"/>
<ellipse fill="none" stroke="#000000" cx="840" cy="-420.4831" rx="112.7816" ry="26"/>
<text text-anchor="middle" x="840" y="-416.7831" font-family="Times,serif" font-size="14.00" fill="#000000">hspace_left_identity</text>
</a>
</g>
</g>
<!-- HSpace_hspace_left_identity&#45;&gt;HSpace_IsHSpace -->
<g id="edge9" class="edge">
<title>HSpace_hspace_left_identity&#45;&gt;HSpace_IsHSpace</title>
<path fill="none" stroke="#000000" d="M840,-394.3039C840,-339.0626 840,-210.9776 840,-153.8607"/>
<polygon fill="#000000" stroke="#000000" points="843.5001,-153.7401 840,-143.7401 836.5001,-153.7402 843.5001,-153.7401"/>
</g>
<!-- HSpace_hspace_op -->
<g id="node9" class="node">
<title>HSpace_hspace_op</title>
<g id="a_node9"><a xlink:href="HSpace.html#hspace_op" xlink:title="hspace_op">
<ellipse fill="#f070d1" stroke="#000000" cx="642" cy="-420.4831" rx="59.6142" ry="18"/>
<ellipse fill="none" stroke="#000000" cx="642" cy="-420.4831" rx="63.6021" ry="22"/>
<ellipse fill="none" stroke="#000000" cx="642" cy="-420.4831" rx="67.59" ry="26"/>
<text text-anchor="middle" x="642" y="-416.7831" font-family="Times,serif" font-size="14.00" fill="#000000">hspace_op</text>
</a>
</g>
</g>
<!-- HSpace_hspace_op&#45;&gt;HSpace_IsHSpace -->
<g id="edge10" class="edge">
<title>HSpace_hspace_op&#45;&gt;HSpace_IsHSpace</title>
<path fill="none" stroke="#000000" d="M659.0527,-395.0763C696.3607,-339.4912 784.8943,-207.5851 822.5568,-151.4718"/>
<polygon fill="#000000" stroke="#000000" points="825.4821,-153.3937 828.1489,-143.14 819.6698,-149.4926 825.4821,-153.3937"/>
</g>
<!-- HSpace_IsHSpace_sind -->
<g id="node10" class="node">
<title>HSpace_IsHSpace_sind</title>
<g id="a_node10"><a xlink:href="HSpace.html#IsHSpace_sind" xlink:title="IsHSpace_sind">
<ellipse fill="#f070d1" stroke="#000000" cx="105" cy="-420.4831" rx="80.6774" ry="18"/>
<ellipse fill="none" stroke="#000000" cx="105" cy="-420.4831" rx="84.6816" ry="22"/>
<ellipse fill="none" stroke="#000000" cx="105" cy="-420.4831" rx="88.6858" ry="26"/>
<text text-anchor="middle" x="105" y="-416.7831" font-family="Times,serif" font-size="14.00" fill="#000000">IsHSpace_sind</text>
</a>
</g>
</g>
<!-- HSpace_Build_IsHSpace -->
<g id="node14" class="node">
<title>HSpace_Build_IsHSpace</title>
<g id="a_node14"><a xlink:href="HSpace.html#Build_IsHSpace" xlink:title="Build_IsHSpace">
<ellipse fill="#7faaff" stroke="#000000" cx="295" cy="-125.4831" rx="85.2851" ry="18"/>
<text text-anchor="middle" x="295" y="-121.7831" font-family="Times,serif" font-size="14.00" fill="#000000">Build_IsHSpace</text>
</a>
</g>
</g>
<!-- HSpace_IsHSpace_sind&#45;&gt;HSpace_Build_IsHSpace -->
<g id="edge11" class="edge">
<title>HSpace_IsHSpace_sind&#45;&gt;HSpace_Build_IsHSpace</title>
<path fill="none" stroke="#000000" d="M121.5289,-394.8199C157.2778,-339.315 241.4825,-208.5761 277.8155,-152.1644"/>
<polygon fill="#000000" stroke="#000000" points="280.9495,-153.7622 283.4218,-143.4599 275.0644,-149.9719 280.9495,-153.7622"/>
</g>
<!-- HSpace_IsHSpace_sind&#45;&gt;HSpace_IsHSpace -->
<g id="edge12" class="edge">
<title>HSpace_IsHSpace_sind&#45;&gt;HSpace_IsHSpace</title>
<path fill="none" stroke="#000000" d="M157.5644,-399.3859C295.579,-343.9923 666.4762,-195.1287 795.2347,-143.4502"/>
<polygon fill="#000000" stroke="#000000" points="796.8198,-146.5854 804.7966,-139.6124 794.2124,-140.0891 796.8198,-146.5854"/>
</g>
<!-- HSpace_IsHSpace_rec -->
<g id="node11" class="node">
<title>HSpace_IsHSpace_rec</title>
<g id="a_node11"><a xlink:href="HSpace.html#IsHSpace_rec" xlink:title="IsHSpace_rec">
<ellipse fill="#f070d1" stroke="#000000" cx="476" cy="-744.4831" rx="76.0824" ry="18"/>
<ellipse fill="none" stroke="#000000" cx="476" cy="-744.4831" rx="80.0845" ry="22"/>
<ellipse fill="none" stroke="#000000" cx="476" cy="-744.4831" rx="84.0865" ry="26"/>
<text text-anchor="middle" x="476" y="-740.7831" font-family="Times,serif" font-size="14.00" fill="#000000">IsHSpace_rec</text>
</a>
</g>
</g>
<!-- HSpace_IsHSpace_rect -->
<g id="node13" class="node">
<title>HSpace_IsHSpace_rect</title>
<g id="a_node13"><a xlink:href="HSpace.html#IsHSpace_rect" xlink:title="IsHSpace_rect">
<ellipse fill="#f070d1" stroke="#000000" cx="476" cy="-420.4831" rx="79.8859" ry="18"/>
<text text-anchor="middle" x="476" y="-416.7831" font-family="Times,serif" font-size="14.00" fill="#000000">IsHSpace_rect</text>
</a>
</g>
</g>
<!-- HSpace_IsHSpace_rec&#45;&gt;HSpace_IsHSpace_rect -->
<g id="edge13" class="edge">
<title>HSpace_IsHSpace_rec&#45;&gt;HSpace_IsHSpace_rect</title>
<path fill="none" stroke="#000000" d="M476,-718.2433C476,-658.1274 476,-510.8494 476,-448.7897"/>
<polygon fill="#000000" stroke="#000000" points="479.5001,-448.5701 476,-438.5702 472.5001,-448.5702 479.5001,-448.5701"/>
</g>
<!-- HSpace_IsHSpace_ind -->
<g id="node12" class="node">
<title>HSpace_IsHSpace_ind</title>
<g id="a_node12"><a xlink:href="HSpace.html#IsHSpace_ind" xlink:title="IsHSpace_ind">
<ellipse fill="#7fffd4" stroke="#000000" cx="295" cy="-420.4831" rx="75.297" ry="18"/>
<ellipse fill="none" stroke="#000000" cx="295" cy="-420.4831" rx="79.2919" ry="22"/>
<ellipse fill="none" stroke="#000000" cx="295" cy="-420.4831" rx="83.2868" ry="26"/>
<text text-anchor="middle" x="295" y="-416.7831" font-family="Times,serif" font-size="14.00" fill="#000000">IsHSpace_ind</text>
</a>
</g>
</g>
<!-- HSpace_IsHSpace_ind&#45;&gt;HSpace_Build_IsHSpace -->
<g id="edge14" class="edge">
<title>HSpace_IsHSpace_ind&#45;&gt;HSpace_Build_IsHSpace</title>
<path fill="none" stroke="#000000" d="M295,-394.3039C295,-339.0626 295,-210.9776 295,-153.8607"/>
<polygon fill="#000000" stroke="#000000" points="298.5001,-153.7401 295,-143.7401 291.5001,-153.7402 298.5001,-153.7401"/>
</g>
<!-- HSpace_IsHSpace_ind&#45;&gt;HSpace_IsHSpace -->
<g id="edge15" class="edge">
<title>HSpace_IsHSpace_ind&#45;&gt;HSpace_IsHSpace</title>
<path fill="none" stroke="#000000" d="M336.8603,-397.8248C439.7247,-342.1459 703.6477,-199.2885 802.1636,-145.9634"/>
<polygon fill="#000000" stroke="#000000" points="804.0419,-148.9266 811.1701,-141.0883 800.7097,-142.7706 804.0419,-148.9266"/>
</g>
<!-- HSpace_IsHSpace_rect&#45;&gt;HSpace_Build_IsHSpace -->
<g id="edge16" class="edge">
<title>HSpace_IsHSpace_rect&#45;&gt;HSpace_Build_IsHSpace</title>
<path fill="none" stroke="#000000" d="M464.9501,-402.4736C434.2778,-352.4829 347.9527,-211.7873 311.5353,-152.433"/>
<polygon fill="#000000" stroke="#000000" points="314.3482,-150.3249 306.1353,-143.6318 308.3818,-153.9857 314.3482,-150.3249"/>
</g>
<!-- HSpace_IsHSpace_rect&#45;&gt;HSpace_IsHSpace -->
<g id="edge17" class="edge">
<title>HSpace_IsHSpace_rect&#45;&gt;HSpace_IsHSpace</title>
<path fill="none" stroke="#000000" d="M497.4109,-403.1309C559.6483,-352.6913 740.5705,-206.0648 811.2403,-148.7911"/>
<polygon fill="#000000" stroke="#000000" points="813.7313,-151.2774 819.2966,-142.262 809.3239,-145.8391 813.7313,-151.2774"/>
</g>
</g>
</svg>
