<?xml version="1.0" encoding="UTF-8" standalone="no"?>
<!DOCTYPE svg PUBLIC "-//W3C//DTD SVG 1.1//EN"
 "http://www.w3.org/Graphics/SVG/1.1/DTD/svg11.dtd">
<!-- Generated by graphviz version 2.40.1 (20161225.0304)
 -->
<!-- Title: HoTT_Basics_Decidable Pages: 1 -->
<svg width="2665pt" height="1336pt"
 viewBox="0.00 0.00 2665.00 1336.50" xmlns="http://www.w3.org/2000/svg" xmlns:xlink="http://www.w3.org/1999/xlink">
<g id="graph0" class="graph" transform="scale(1 1) rotate(0) translate(4 1332.5)">
<title>HoTT_Basics_Decidable</title>
<polygon fill="#ffffff" stroke="transparent" points="-4,4 -4,-1332.5 2661,-1332.5 2661,4 -4,4"/>
<g id="clust1" class="cluster">
<title>cluster_Decidable</title>
<polygon fill="#ffffc3" stroke="#000000" points="8,-20.6369 8,-1307.8631 2649,-1307.8631 2649,-20.6369 8,-20.6369"/>
<text text-anchor="middle" x="52" y="-1292.6631" font-family="Times,serif" font-size="14.00" fill="#000000">Decidable</text>
</g>
<!-- Decidable_ishprop_decpaths -->
<g id="node1" class="node">
<title>Decidable_ishprop_decpaths</title>
<g id="a_node1"><a xlink:href="Decidable.html#ishprop_decpaths" xlink:title="ishprop_decpaths">
<ellipse fill="#f070d1" stroke="#000000" cx="2308" cy="-1160.6369" rx="92.8882" ry="18"/>
<ellipse fill="none" stroke="#000000" cx="2308" cy="-1160.6369" rx="96.8858" ry="22"/>
<ellipse fill="none" stroke="#000000" cx="2308" cy="-1160.6369" rx="100.8835" ry="26"/>
<text text-anchor="middle" x="2308" y="-1156.9369" font-family="Times,serif" font-size="14.00" fill="#000000">ishprop_decpaths</text>
</a>
</g>
</g>
<!-- Decidable_hset_pathcoll -->
<g id="node5" class="node">
<title>Decidable_hset_pathcoll</title>
<g id="a_node5"><a xlink:href="Decidable.html#hset_pathcoll" xlink:title="hset_pathcoll">
<ellipse fill="#f070d1" stroke="#000000" cx="2366" cy="-954.6369" rx="73.387" ry="18"/>
<text text-anchor="middle" x="2366" y="-950.9369" font-family="Times,serif" font-size="14.00" fill="#000000">hset_pathcoll</text>
</a>
</g>
</g>
<!-- Decidable_ishprop_decpaths&#45;&gt;Decidable_hset_pathcoll -->
<g id="edge1" class="edge">
<title>Decidable_ishprop_decpaths&#45;&gt;Decidable_hset_pathcoll</title>
<path fill="none" stroke="#000000" d="M2315.3457,-1134.5469C2326.3146,-1095.5883 2346.8862,-1022.5239 2358.1444,-982.538"/>
<polygon fill="#000000" stroke="#000000" points="2361.5847,-983.2331 2360.9259,-972.6587 2354.8466,-981.3359 2361.5847,-983.2331"/>
</g>
<!-- Decidable_pathcoll_decpaths -->
<g id="node6" class="node">
<title>Decidable_pathcoll_decpaths</title>
<g id="a_node6"><a xlink:href="Decidable.html#pathcoll_decpaths" xlink:title="pathcoll_decpaths">
<ellipse fill="#f070d1" stroke="#000000" cx="1662" cy="-747.6369" rx="95.5831" ry="18"/>
<text text-anchor="middle" x="1662" y="-743.9369" font-family="Times,serif" font-size="14.00" fill="#000000">pathcoll_decpaths</text>
</a>
</g>
</g>
<!-- Decidable_ishprop_decpaths&#45;&gt;Decidable_pathcoll_decpaths -->
<g id="edge2" class="edge">
<title>Decidable_ishprop_decpaths&#45;&gt;Decidable_pathcoll_decpaths</title>
<path fill="none" stroke="#000000" d="M2270.0015,-1136.3437C2154.6648,-1062.6068 1809.662,-842.04 1697.5906,-770.3906"/>
<polygon fill="#000000" stroke="#000000" points="1699.3178,-767.3408 1689.0072,-764.9031 1695.5473,-773.2385 1699.3178,-767.3408"/>
</g>
<!-- Decidable_hset_decpaths -->
<g id="node2" class="node">
<title>Decidable_hset_decpaths</title>
<g id="a_node2"><a xlink:href="Decidable.html#hset_decpaths" xlink:title="hset_decpaths">
<ellipse fill="#f070d1" stroke="#000000" cx="2045" cy="-1160.6369" rx="77.9868" ry="18"/>
<ellipse fill="none" stroke="#000000" cx="2045" cy="-1160.6369" rx="81.9865" ry="22"/>
<ellipse fill="none" stroke="#000000" cx="2045" cy="-1160.6369" rx="85.9862" ry="26"/>
<text text-anchor="middle" x="2045" y="-1156.9369" font-family="Times,serif" font-size="14.00" fill="#000000">hset_decpaths</text>
</a>
</g>
</g>
<!-- Decidable_hset_decpaths&#45;&gt;Decidable_hset_pathcoll -->
<g id="edge3" class="edge">
<title>Decidable_hset_decpaths&#45;&gt;Decidable_hset_pathcoll</title>
<path fill="none" stroke="#000000" d="M2081.8228,-1137.0061C2144.2932,-1096.916 2270.1909,-1016.1219 2331.236,-976.9465"/>
<polygon fill="#000000" stroke="#000000" points="2333.2311,-979.825 2339.7568,-971.4783 2329.4504,-973.9337 2333.2311,-979.825"/>
</g>
<!-- Decidable_hset_decpaths&#45;&gt;Decidable_pathcoll_decpaths -->
<g id="edge4" class="edge">
<title>Decidable_hset_decpaths&#45;&gt;Decidable_pathcoll_decpaths</title>
<path fill="none" stroke="#000000" d="M2021.6182,-1135.4236C1953.296,-1061.7498 1754.4778,-847.3583 1685.7231,-773.2182"/>
<polygon fill="#000000" stroke="#000000" points="1688.1042,-770.6385 1678.7381,-765.686 1682.9715,-775.3983 1688.1042,-770.6385"/>
</g>
<!-- Decidable_pathcoll_hset -->
<g id="node3" class="node">
<title>Decidable_pathcoll_hset</title>
<g id="a_node3"><a xlink:href="Decidable.html#pathcoll_hset" xlink:title="pathcoll_hset">
<ellipse fill="#f070d1" stroke="#000000" cx="2164" cy="-747.6369" rx="73.3926" ry="18"/>
<ellipse fill="none" stroke="#000000" cx="2164" cy="-747.6369" rx="77.3898" ry="22"/>
<ellipse fill="none" stroke="#000000" cx="2164" cy="-747.6369" rx="81.387" ry="26"/>
<text text-anchor="middle" x="2164" y="-743.9369" font-family="Times,serif" font-size="14.00" fill="#000000">pathcoll_hset</text>
</a>
</g>
</g>
<!-- Decidable_collapsible_hprop -->
<g id="node4" class="node">
<title>Decidable_collapsible_hprop</title>
<g id="a_node4"><a xlink:href="Decidable.html#collapsible_hprop" xlink:title="collapsible_hprop">
<ellipse fill="#f070d1" stroke="#000000" cx="2116" cy="-520.6369" rx="92.8835" ry="18"/>
<text text-anchor="middle" x="2116" y="-516.9369" font-family="Times,serif" font-size="14.00" fill="#000000">collapsible_hprop</text>
</a>
</g>
</g>
<!-- Decidable_pathcoll_hset&#45;&gt;Decidable_collapsible_hprop -->
<g id="edge5" class="edge">
<title>Decidable_pathcoll_hset&#45;&gt;Decidable_collapsible_hprop</title>
<path fill="none" stroke="#000000" d="M2158.4938,-721.5971C2149.3976,-678.5797 2131.3083,-593.0326 2121.9369,-548.7133"/>
<polygon fill="#000000" stroke="#000000" points="2125.3533,-547.9518 2119.8602,-538.8923 2118.5048,-549.4 2125.3533,-547.9518"/>
</g>
<!-- Decidable_PathCollapsible -->
<g id="node9" class="node">
<title>Decidable_PathCollapsible</title>
<g id="a_node9"><a xlink:href="Decidable.html#PathCollapsible" xlink:title="PathCollapsible">
<ellipse fill="#f070d1" stroke="#000000" cx="2518" cy="-520.6369" rx="83.3857" ry="18"/>
<text text-anchor="middle" x="2518" y="-516.9369" font-family="Times,serif" font-size="14.00" fill="#000000">PathCollapsible</text>
</a>
</g>
</g>
<!-- Decidable_pathcoll_hset&#45;&gt;Decidable_PathCollapsible -->
<g id="edge6" class="edge">
<title>Decidable_pathcoll_hset&#45;&gt;Decidable_PathCollapsible</title>
<path fill="none" stroke="#000000" d="M2200.5509,-724.1989C2268.8522,-680.4012 2415.0264,-586.668 2482.5113,-543.3938"/>
<polygon fill="#000000" stroke="#000000" points="2484.5823,-546.2236 2491.111,-537.8793 2480.8037,-540.331 2484.5823,-546.2236"/>
</g>
<!-- Decidable_Build_Collapsible -->
<g id="node16" class="node">
<title>Decidable_Build_Collapsible</title>
<g id="a_node16"><a xlink:href="Decidable.html#Build_Collapsible" xlink:title="Build_Collapsible">
<ellipse fill="#7faaff" stroke="#000000" cx="1824" cy="-293.6369" rx="91.784" ry="18"/>
<text text-anchor="middle" x="1824" y="-289.9369" font-family="Times,serif" font-size="14.00" fill="#000000">Build_Collapsible</text>
</a>
</g>
</g>
<!-- Decidable_collapsible_hprop&#45;&gt;Decidable_Build_Collapsible -->
<g id="edge7" class="edge">
<title>Decidable_collapsible_hprop&#45;&gt;Decidable_Build_Collapsible</title>
<path fill="none" stroke="#000000" d="M2093.0872,-502.8246C2041.0609,-462.3794 1913.9664,-363.5765 1854.9956,-317.7328"/>
<polygon fill="#000000" stroke="#000000" points="1856.8495,-314.7408 1846.8063,-311.3665 1852.5532,-320.2673 1856.8495,-314.7408"/>
</g>
<!-- Decidable_Collapsible -->
<g id="node17" class="node">
<title>Decidable_Collapsible</title>
<g id="a_node17"><a xlink:href="Decidable.html#Collapsible" xlink:title="Collapsible">
<ellipse fill="#e2cdfa" stroke="#000000" cx="1996" cy="-293.6369" rx="62.2891" ry="18"/>
<text text-anchor="middle" x="1996" y="-289.9369" font-family="Times,serif" font-size="14.00" fill="#000000">Collapsible</text>
</a>
</g>
</g>
<!-- Decidable_collapsible_hprop&#45;&gt;Decidable_Collapsible -->
<g id="edge8" class="edge">
<title>Decidable_collapsible_hprop&#45;&gt;Decidable_Collapsible</title>
<path fill="none" stroke="#000000" d="M2106.3827,-502.4443C2085.3099,-462.5815 2034.9754,-367.3653 2010.2288,-320.5531"/>
<polygon fill="#000000" stroke="#000000" points="2013.2643,-318.8061 2005.4965,-311.6011 2007.0758,-322.0776 2013.2643,-318.8061"/>
</g>
<!-- Decidable_path_coll -->
<g id="node8" class="node">
<title>Decidable_path_coll</title>
<g id="a_node8"><a xlink:href="Decidable.html#path_coll" xlink:title="path_coll">
<ellipse fill="#f070d1" stroke="#000000" cx="2366" cy="-747.6369" rx="53.0913" ry="18"/>
<text text-anchor="middle" x="2366" y="-743.9369" font-family="Times,serif" font-size="14.00" fill="#000000">path_coll</text>
</a>
</g>
</g>
<!-- Decidable_hset_pathcoll&#45;&gt;Decidable_path_coll -->
<g id="edge9" class="edge">
<title>Decidable_hset_pathcoll&#45;&gt;Decidable_path_coll</title>
<path fill="none" stroke="#000000" d="M2366,-936.6291C2366,-900.5391 2366,-819.1201 2366,-775.8724"/>
<polygon fill="#000000" stroke="#000000" points="2369.5001,-775.7504 2366,-765.7504 2362.5001,-775.7505 2369.5001,-775.7504"/>
</g>
<!-- Decidable_collapse -->
<g id="node11" class="node">
<title>Decidable_collapse</title>
<g id="a_node11"><a xlink:href="Decidable.html#collapse" xlink:title="collapse">
<ellipse fill="#f070d1" stroke="#000000" cx="2486" cy="-747.6369" rx="48.9926" ry="18"/>
<text text-anchor="middle" x="2486" y="-743.9369" font-family="Times,serif" font-size="14.00" fill="#000000">collapse</text>
</a>
</g>
</g>
<!-- Decidable_hset_pathcoll&#45;&gt;Decidable_collapse -->
<g id="edge10" class="edge">
<title>Decidable_hset_pathcoll&#45;&gt;Decidable_collapse</title>
<path fill="none" stroke="#000000" d="M2376.4393,-936.6291C2397.6358,-900.0652 2445.8047,-816.9739 2470.6078,-774.1885"/>
<polygon fill="#000000" stroke="#000000" points="2473.6829,-775.8624 2475.6703,-765.4556 2467.6269,-772.3517 2473.6829,-775.8624"/>
</g>
<!-- Decidable_wconst -->
<g id="node19" class="node">
<title>Decidable_wconst</title>
<g id="a_node19"><a xlink:href="Decidable.html#wconst" xlink:title="wconst">
<ellipse fill="#f070d1" stroke="#000000" cx="2597" cy="-747.6369" rx="44.393" ry="18"/>
<text text-anchor="middle" x="2597" y="-743.9369" font-family="Times,serif" font-size="14.00" fill="#000000">wconst</text>
</a>
</g>
</g>
<!-- Decidable_hset_pathcoll&#45;&gt;Decidable_wconst -->
<g id="edge11" class="edge">
<title>Decidable_hset_pathcoll&#45;&gt;Decidable_wconst</title>
<path fill="none" stroke="#000000" d="M2385.6949,-936.9882C2427.3632,-899.6491 2524.4363,-812.6615 2571.0767,-770.8669"/>
<polygon fill="#000000" stroke="#000000" points="2573.5328,-773.3656 2578.6444,-764.0854 2568.8613,-768.1524 2573.5328,-773.3656"/>
</g>
<!-- Decidable_collapsible_decidable -->
<g id="node7" class="node">
<title>Decidable_collapsible_decidable</title>
<g id="a_node7"><a xlink:href="Decidable.html#collapsible_decidable" xlink:title="collapsible_decidable">
<ellipse fill="#f070d1" stroke="#000000" cx="1298" cy="-520.6369" rx="110.4804" ry="18"/>
<text text-anchor="middle" x="1298" y="-516.9369" font-family="Times,serif" font-size="14.00" fill="#000000">collapsible_decidable</text>
</a>
</g>
</g>
<!-- Decidable_pathcoll_decpaths&#45;&gt;Decidable_collapsible_decidable -->
<g id="edge12" class="edge">
<title>Decidable_pathcoll_decpaths&#45;&gt;Decidable_collapsible_decidable</title>
<path fill="none" stroke="#000000" d="M1634.3421,-730.3887C1569.5872,-690.0058 1408.102,-589.2994 1334.9959,-543.7085"/>
<polygon fill="#000000" stroke="#000000" points="1336.4524,-540.492 1326.1151,-538.1702 1332.7483,-546.4317 1336.4524,-540.492"/>
</g>
<!-- Decidable_pathcoll_decpaths&#45;&gt;Decidable_PathCollapsible -->
<g id="edge13" class="edge">
<title>Decidable_pathcoll_decpaths&#45;&gt;Decidable_PathCollapsible</title>
<path fill="none" stroke="#000000" d="M1718.6424,-733.1105C1845.5014,-700.4941 2162.0287,-618.6548 2426,-546.6369 2436.193,-543.856 2447.0053,-540.8505 2457.4986,-537.904"/>
<polygon fill="#000000" stroke="#000000" points="2458.7544,-541.1866 2467.4309,-535.1064 2456.8565,-534.4487 2458.7544,-541.1866"/>
</g>
<!-- Decidable_dec_paths -->
<g id="node32" class="node">
<title>Decidable_dec_paths</title>
<g id="a_node32"><a xlink:href="Decidable.html#dec_paths" xlink:title="dec_paths">
<ellipse fill="#f070d1" stroke="#000000" cx="1112" cy="-520.6369" rx="57.6901" ry="18"/>
<text text-anchor="middle" x="1112" y="-516.9369" font-family="Times,serif" font-size="14.00" fill="#000000">dec_paths</text>
</a>
</g>
</g>
<!-- Decidable_pathcoll_decpaths&#45;&gt;Decidable_dec_paths -->
<g id="edge14" class="edge">
<title>Decidable_pathcoll_decpaths&#45;&gt;Decidable_dec_paths</title>
<path fill="none" stroke="#000000" d="M1622.0023,-731.1288C1521.9223,-689.823 1261.2255,-582.2263 1156.503,-539.0045"/>
<polygon fill="#000000" stroke="#000000" points="1157.7397,-535.7286 1147.1608,-535.1487 1155.0691,-542.1992 1157.7397,-535.7286"/>
</g>
<!-- Decidable_collapsible_decidable&#45;&gt;Decidable_Build_Collapsible -->
<g id="edge15" class="edge">
<title>Decidable_collapsible_decidable&#45;&gt;Decidable_Build_Collapsible</title>
<path fill="none" stroke="#000000" d="M1337.1058,-503.7605C1431.8827,-462.8586 1673.6041,-358.5416 1776.4843,-314.1427"/>
<polygon fill="#000000" stroke="#000000" points="1777.9103,-317.3394 1785.7049,-310.1635 1775.1366,-310.9124 1777.9103,-317.3394"/>
</g>
<!-- Decidable_collapsible_decidable&#45;&gt;Decidable_Collapsible -->
<g id="edge16" class="edge">
<title>Decidable_collapsible_decidable&#45;&gt;Decidable_Collapsible</title>
<path fill="none" stroke="#000000" d="M1350.2593,-504.675C1458.1293,-471.5537 1713.0857,-392.3714 1925,-319.6369 1932.5077,-317.06 1940.4301,-314.2499 1948.1522,-311.4604"/>
<polygon fill="#000000" stroke="#000000" points="1949.5797,-314.6656 1957.7803,-307.9573 1947.1863,-308.0875 1949.5797,-314.6656"/>
</g>
<!-- Decidable_dec -->
<g id="node34" class="node">
<title>Decidable_dec</title>
<g id="a_node34"><a xlink:href="Decidable.html#dec" xlink:title="dec">
<ellipse fill="#f070d1" stroke="#000000" cx="528" cy="-293.6369" rx="27.0966" ry="18"/>
<text text-anchor="middle" x="528" y="-289.9369" font-family="Times,serif" font-size="14.00" fill="#000000">dec</text>
</a>
</g>
</g>
<!-- Decidable_collapsible_decidable&#45;&gt;Decidable_dec -->
<g id="edge17" class="edge">
<title>Decidable_collapsible_decidable&#45;&gt;Decidable_dec</title>
<path fill="none" stroke="#000000" d="M1233.0642,-506.0006C1077.0695,-470.339 685.187,-377.6378 564,-319.6369 560.4251,-317.9259 556.8344,-315.8537 553.3782,-313.6343"/>
<polygon fill="#000000" stroke="#000000" points="555.3639,-310.7521 545.1501,-307.9362 551.3785,-316.5069 555.3639,-310.7521"/>
</g>
<!-- Decidable_path_coll&#45;&gt;Decidable_PathCollapsible -->
<g id="edge18" class="edge">
<title>Decidable_path_coll&#45;&gt;Decidable_PathCollapsible</title>
<path fill="none" stroke="#000000" d="M2377.9272,-729.8246C2404.5552,-690.0578 2468.9599,-593.8744 2500.2912,-547.0836"/>
<polygon fill="#000000" stroke="#000000" points="2503.2622,-548.9372 2505.9179,-538.6806 2497.4457,-545.0424 2503.2622,-548.9372"/>
</g>
<!-- Decidable_PathCollapsible&#45;&gt;Decidable_Collapsible -->
<g id="edge19" class="edge">
<title>Decidable_PathCollapsible&#45;&gt;Decidable_Collapsible</title>
<path fill="none" stroke="#000000" d="M2480.8775,-504.4936C2387.0103,-463.6739 2140.509,-356.4789 2039.8077,-312.6874"/>
<polygon fill="#000000" stroke="#000000" points="2041.0938,-309.4301 2030.5276,-308.6518 2038.3022,-315.8494 2041.0938,-309.4301"/>
</g>
<!-- Decidable_wconst_collapse -->
<g id="node10" class="node">
<title>Decidable_wconst_collapse</title>
<g id="a_node10"><a xlink:href="Decidable.html#wconst_collapse" xlink:title="wconst_collapse">
<ellipse fill="#f070d1" stroke="#000000" cx="2322" cy="-520.6369" rx="87.1769" ry="18"/>
<ellipse fill="none" stroke="#000000" cx="2322" cy="-520.6369" rx="91.1807" ry="22"/>
<ellipse fill="none" stroke="#000000" cx="2322" cy="-520.6369" rx="95.1846" ry="26"/>
<text text-anchor="middle" x="2322" y="-516.9369" font-family="Times,serif" font-size="14.00" fill="#000000">wconst_collapse</text>
</a>
</g>
</g>
<!-- Decidable_wconst_collapse&#45;&gt;Decidable_Collapsible -->
<g id="edge20" class="edge">
<title>Decidable_wconst_collapse&#45;&gt;Decidable_Collapsible</title>
<path fill="none" stroke="#000000" d="M2287.1123,-496.3439C2223.7069,-452.1935 2090.4346,-359.3935 2028.6868,-316.3973"/>
<polygon fill="#000000" stroke="#000000" points="2030.3188,-313.2688 2020.1122,-310.4267 2026.3187,-319.0133 2030.3188,-313.2688"/>
</g>
<!-- Decidable_collapse&#45;&gt;Decidable_Collapsible -->
<g id="edge21" class="edge">
<title>Decidable_collapse&#45;&gt;Decidable_Collapsible</title>
<path fill="none" stroke="#000000" d="M2505.8103,-731.1813C2553.9336,-689.2227 2668.8517,-575.8275 2610,-494.6369 2543.8265,-403.3452 2202.8914,-331.4736 2059.5775,-304.8254"/>
<polygon fill="#000000" stroke="#000000" points="2060.076,-301.3584 2049.6069,-302.9852 2058.8055,-308.2421 2060.076,-301.3584"/>
</g>
<!-- Decidable_Collapsible_sind -->
<g id="node12" class="node">
<title>Decidable_Collapsible_sind</title>
<g id="a_node12"><a xlink:href="Decidable.html#Collapsible_sind" xlink:title="Collapsible_sind">
<ellipse fill="#f070d1" stroke="#000000" cx="1910" cy="-520.6369" rx="87.1769" ry="18"/>
<ellipse fill="none" stroke="#000000" cx="1910" cy="-520.6369" rx="91.1807" ry="22"/>
<ellipse fill="none" stroke="#000000" cx="1910" cy="-520.6369" rx="95.1846" ry="26"/>
<text text-anchor="middle" x="1910" y="-516.9369" font-family="Times,serif" font-size="14.00" fill="#000000">Collapsible_sind</text>
</a>
</g>
</g>
<!-- Decidable_Collapsible_sind&#45;&gt;Decidable_Build_Collapsible -->
<g id="edge22" class="edge">
<title>Decidable_Collapsible_sind&#45;&gt;Decidable_Build_Collapsible</title>
<path fill="none" stroke="#000000" d="M1900.1347,-494.5971C1883.7621,-451.381 1851.1276,-365.241 1834.4051,-321.1015"/>
<polygon fill="#000000" stroke="#000000" points="1837.618,-319.7028 1830.8022,-311.5914 1831.0721,-322.1828 1837.618,-319.7028"/>
</g>
<!-- Decidable_Collapsible_sind&#45;&gt;Decidable_Collapsible -->
<g id="edge23" class="edge">
<title>Decidable_Collapsible_sind&#45;&gt;Decidable_Collapsible</title>
<path fill="none" stroke="#000000" d="M1919.8653,-494.5971C1936.2379,-451.381 1968.8724,-365.241 1985.5949,-321.1015"/>
<polygon fill="#000000" stroke="#000000" points="1988.9279,-322.1828 1989.1978,-311.5914 1982.382,-319.7028 1988.9279,-322.1828"/>
</g>
<!-- Decidable_Collapsible_rec -->
<g id="node13" class="node">
<title>Decidable_Collapsible_rec</title>
<g id="a_node13"><a xlink:href="Decidable.html#Collapsible_rec" xlink:title="Collapsible_rec">
<ellipse fill="#f070d1" stroke="#000000" cx="1866" cy="-747.6369" rx="82.5816" ry="18"/>
<ellipse fill="none" stroke="#000000" cx="1866" cy="-747.6369" rx="86.5835" ry="22"/>
<ellipse fill="none" stroke="#000000" cx="1866" cy="-747.6369" rx="90.5854" ry="26"/>
<text text-anchor="middle" x="1866" y="-743.9369" font-family="Times,serif" font-size="14.00" fill="#000000">Collapsible_rec</text>
</a>
</g>
</g>
<!-- Decidable_Collapsible_rect -->
<g id="node15" class="node">
<title>Decidable_Collapsible_rect</title>
<g id="a_node15"><a xlink:href="Decidable.html#Collapsible_rect" xlink:title="Collapsible_rect">
<ellipse fill="#f070d1" stroke="#000000" cx="1710" cy="-520.6369" rx="86.3847" ry="18"/>
<text text-anchor="middle" x="1710" y="-516.9369" font-family="Times,serif" font-size="14.00" fill="#000000">Collapsible_rect</text>
</a>
</g>
</g>
<!-- Decidable_Collapsible_rec&#45;&gt;Decidable_Collapsible_rect -->
<g id="edge24" class="edge">
<title>Decidable_Collapsible_rec&#45;&gt;Decidable_Collapsible_rect</title>
<path fill="none" stroke="#000000" d="M1848.4081,-722.0384C1818.589,-678.6478 1758.4204,-591.0947 1728.1965,-547.1152"/>
<polygon fill="#000000" stroke="#000000" points="1730.9443,-544.9338 1722.396,-538.6746 1725.1752,-548.8984 1730.9443,-544.9338"/>
</g>
<!-- Decidable_Collapsible_ind -->
<g id="node14" class="node">
<title>Decidable_Collapsible_ind</title>
<g id="a_node14"><a xlink:href="Decidable.html#Collapsible_ind" xlink:title="Collapsible_ind">
<ellipse fill="#7fffd4" stroke="#000000" cx="1516" cy="-520.6369" rx="81.7951" ry="18"/>
<ellipse fill="none" stroke="#000000" cx="1516" cy="-520.6369" rx="85.7904" ry="22"/>
<ellipse fill="none" stroke="#000000" cx="1516" cy="-520.6369" rx="89.7856" ry="26"/>
<text text-anchor="middle" x="1516" y="-516.9369" font-family="Times,serif" font-size="14.00" fill="#000000">Collapsible_ind</text>
</a>
</g>
</g>
<!-- Decidable_Collapsible_ind&#45;&gt;Decidable_Build_Collapsible -->
<g id="edge25" class="edge">
<title>Decidable_Collapsible_ind&#45;&gt;Decidable_Build_Collapsible</title>
<path fill="none" stroke="#000000" d="M1548.9614,-496.3439C1608.4222,-452.5206 1732.9178,-360.7656 1791.8106,-317.3609"/>
<polygon fill="#000000" stroke="#000000" points="1794.0347,-320.0696 1800.0081,-311.3192 1789.8816,-314.4347 1794.0347,-320.0696"/>
</g>
<!-- Decidable_Collapsible_ind&#45;&gt;Decidable_Collapsible -->
<g id="edge26" class="edge">
<title>Decidable_Collapsible_ind&#45;&gt;Decidable_Collapsible</title>
<path fill="none" stroke="#000000" d="M1563.3379,-498.25C1657.1289,-453.8947 1865.1765,-355.5055 1954.2317,-313.3898"/>
<polygon fill="#000000" stroke="#000000" points="1955.9375,-316.4548 1963.4813,-309.0155 1952.9449,-310.1268 1955.9375,-316.4548"/>
</g>
<!-- Decidable_Collapsible_rect&#45;&gt;Decidable_Build_Collapsible -->
<g id="edge27" class="edge">
<title>Decidable_Collapsible_rect&#45;&gt;Decidable_Build_Collapsible</title>
<path fill="none" stroke="#000000" d="M1719.1364,-502.4443C1739.1556,-462.5815 1786.9734,-367.3653 1810.4826,-320.5531"/>
<polygon fill="#000000" stroke="#000000" points="1813.6181,-322.1082 1814.9783,-311.6011 1807.3627,-318.9667 1813.6181,-322.1082"/>
</g>
<!-- Decidable_Collapsible_rect&#45;&gt;Decidable_Collapsible -->
<g id="edge28" class="edge">
<title>Decidable_Collapsible_rect&#45;&gt;Decidable_Collapsible</title>
<path fill="none" stroke="#000000" d="M1731.9671,-503.2015C1782.8326,-462.8292 1908.7446,-362.892 1966.3614,-317.1613"/>
<polygon fill="#000000" stroke="#000000" points="1968.6928,-319.7793 1974.3496,-310.821 1964.341,-314.2964 1968.6928,-319.7793"/>
</g>
<!-- Decidable_WeaklyConstant -->
<g id="node20" class="node">
<title>Decidable_WeaklyConstant</title>
<g id="a_node20"><a xlink:href="Decidable.html#WeaklyConstant" xlink:title="WeaklyConstant">
<ellipse fill="#f070d1" stroke="#000000" cx="1910" cy="-87.6369" rx="87.1846" ry="18"/>
<text text-anchor="middle" x="1910" y="-83.9369" font-family="Times,serif" font-size="14.00" fill="#000000">WeaklyConstant</text>
</a>
</g>
</g>
<!-- Decidable_Build_Collapsible&#45;&gt;Decidable_WeaklyConstant -->
<g id="edge29" class="edge">
<title>Decidable_Build_Collapsible&#45;&gt;Decidable_WeaklyConstant</title>
<path fill="none" stroke="#000000" d="M1831.6319,-275.3558C1846.7787,-239.0739 1880.7113,-157.7936 1898.5468,-115.0714"/>
<polygon fill="#000000" stroke="#000000" points="1901.8852,-116.1594 1902.508,-105.5829 1895.4256,-113.4626 1901.8852,-116.1594"/>
</g>
<!-- Decidable_Collapsible&#45;&gt;Decidable_WeaklyConstant -->
<g id="edge30" class="edge">
<title>Decidable_Collapsible&#45;&gt;Decidable_WeaklyConstant</title>
<path fill="none" stroke="#000000" d="M1988.5185,-275.7161C1973.4293,-239.5722 1939.2676,-157.743 1921.39,-114.92"/>
<polygon fill="#000000" stroke="#000000" points="1924.6079,-113.5427 1917.5254,-105.6629 1918.1482,-116.2395 1924.6079,-113.5427"/>
</g>
<!-- Decidable_wconst_through_hprop -->
<g id="node18" class="node">
<title>Decidable_wconst_through_hprop</title>
<g id="a_node18"><a xlink:href="Decidable.html#wconst_through_hprop" xlink:title="wconst_through_hprop">
<ellipse fill="#f070d1" stroke="#000000" cx="1588" cy="-293.6369" rx="118.0927" ry="18"/>
<ellipse fill="none" stroke="#000000" cx="1588" cy="-293.6369" rx="122.086" ry="22"/>
<ellipse fill="none" stroke="#000000" cx="1588" cy="-293.6369" rx="126.0794" ry="26"/>
<text text-anchor="middle" x="1588" y="-289.9369" font-family="Times,serif" font-size="14.00" fill="#000000">wconst_through_hprop</text>
</a>
</g>
</g>
<!-- Decidable_wconst_through_hprop&#45;&gt;Decidable_WeaklyConstant -->
<g id="edge31" class="edge">
<title>Decidable_wconst_through_hprop&#45;&gt;Decidable_WeaklyConstant</title>
<path fill="none" stroke="#000000" d="M1626.8407,-268.7885C1689.9746,-228.3985 1813.9057,-149.1134 1874.6873,-110.2283"/>
<polygon fill="#000000" stroke="#000000" points="1876.6446,-113.1311 1883.1821,-104.7937 1872.8722,-107.2345 1876.6446,-113.1311"/>
</g>
<!-- Decidable_wconst&#45;&gt;Decidable_WeaklyConstant -->
<g id="edge32" class="edge">
<title>Decidable_wconst&#45;&gt;Decidable_WeaklyConstant</title>
<path fill="none" stroke="#000000" d="M2605.5246,-729.8842C2625.0762,-686.3796 2668.1184,-572.3434 2623,-494.6369 2481.0662,-250.1871 2131.1464,-140.2254 1980.6648,-103.0828"/>
<polygon fill="#000000" stroke="#000000" points="1981.1567,-99.6005 1970.6127,-100.6371 1979.5018,-106.4021 1981.1567,-99.6005"/>
</g>
<!-- Decidable_decidablepaths_equiv_ -->
<g id="node21" class="node">
<title>Decidable_decidablepaths_equiv_</title>
<g id="a_node21"><a xlink:href="Decidable.html#decidablepaths_equiv'" xlink:title="decidablepaths_equiv&#39;">
<ellipse fill="#f070d1" stroke="#000000" cx="924" cy="-747.6369" rx="114.287" ry="18"/>
<ellipse fill="none" stroke="#000000" cx="924" cy="-747.6369" rx="118.2834" ry="22"/>
<ellipse fill="none" stroke="#000000" cx="924" cy="-747.6369" rx="122.2798" ry="26"/>
<text text-anchor="middle" x="924" y="-743.9369" font-family="Times,serif" font-size="14.00" fill="#000000">decidablepaths_equiv&#39;</text>
</a>
</g>
</g>
<!-- Decidable_decidablepaths_equiv -->
<g id="node22" class="node">
<title>Decidable_decidablepaths_equiv</title>
<g id="a_node22"><a xlink:href="Decidable.html#decidablepaths_equiv" xlink:title="decidablepaths_equiv">
<ellipse fill="#f070d1" stroke="#000000" cx="924" cy="-520.6369" rx="111.5806" ry="18"/>
<text text-anchor="middle" x="924" y="-516.9369" font-family="Times,serif" font-size="14.00" fill="#000000">decidablepaths_equiv</text>
</a>
</g>
</g>
<!-- Decidable_decidablepaths_equiv_&#45;&gt;Decidable_decidablepaths_equiv -->
<g id="edge33" class="edge">
<title>Decidable_decidablepaths_equiv_&#45;&gt;Decidable_decidablepaths_equiv</title>
<path fill="none" stroke="#000000" d="M924,-721.5971C924,-678.6705 924,-593.3934 924,-548.9943"/>
<polygon fill="#000000" stroke="#000000" points="927.5001,-548.8922 924,-538.8923 920.5001,-548.8923 927.5001,-548.8922"/>
</g>
<!-- Decidable_DecidablePaths -->
<g id="node33" class="node">
<title>Decidable_DecidablePaths</title>
<g id="a_node33"><a xlink:href="Decidable.html#DecidablePaths" xlink:title="DecidablePaths">
<ellipse fill="#f070d1" stroke="#000000" cx="1059" cy="-293.6369" rx="83.3857" ry="18"/>
<text text-anchor="middle" x="1059" y="-289.9369" font-family="Times,serif" font-size="14.00" fill="#000000">DecidablePaths</text>
</a>
</g>
</g>
<!-- Decidable_decidablepaths_equiv&#45;&gt;Decidable_DecidablePaths -->
<g id="edge34" class="edge">
<title>Decidable_decidablepaths_equiv&#45;&gt;Decidable_DecidablePaths</title>
<path fill="none" stroke="#000000" d="M934.8194,-502.4443C958.5758,-462.4983 1015.3893,-366.9675 1043.1665,-320.2606"/>
<polygon fill="#000000" stroke="#000000" points="1046.2131,-321.985 1048.3165,-311.6011 1040.1967,-318.407 1046.2131,-321.985"/>
</g>
<!-- Decidable_decidable_equiv_ -->
<g id="node23" class="node">
<title>Decidable_decidable_equiv_</title>
<g id="a_node23"><a xlink:href="Decidable.html#decidable_equiv'" xlink:title="decidable_equiv&#39;">
<ellipse fill="#f070d1" stroke="#000000" cx="698" cy="-520.6369" rx="88.2934" ry="18"/>
<ellipse fill="none" stroke="#000000" cx="698" cy="-520.6369" rx="92.2889" ry="22"/>
<ellipse fill="none" stroke="#000000" cx="698" cy="-520.6369" rx="96.2844" ry="26"/>
<text text-anchor="middle" x="698" y="-516.9369" font-family="Times,serif" font-size="14.00" fill="#000000">decidable_equiv&#39;</text>
</a>
</g>
</g>
<!-- Decidable_decidable_equiv -->
<g id="node24" class="node">
<title>Decidable_decidable_equiv</title>
<g id="a_node24"><a xlink:href="Decidable.html#decidable_equiv" xlink:title="decidable_equiv">
<ellipse fill="#f070d1" stroke="#000000" cx="659" cy="-293.6369" rx="85.5853" ry="18"/>
<text text-anchor="middle" x="659" y="-289.9369" font-family="Times,serif" font-size="14.00" fill="#000000">decidable_equiv</text>
</a>
</g>
</g>
<!-- Decidable_decidable_equiv_&#45;&gt;Decidable_decidable_equiv -->
<g id="edge35" class="edge">
<title>Decidable_decidable_equiv_&#45;&gt;Decidable_decidable_equiv</title>
<path fill="none" stroke="#000000" d="M693.5262,-494.5971C686.1511,-451.6705 671.5,-366.3934 663.872,-321.9943"/>
<polygon fill="#000000" stroke="#000000" points="667.2792,-321.1552 662.1364,-311.8923 660.3803,-322.3405 667.2792,-321.1552"/>
</g>
<!-- Decidable_Decidable -->
<g id="node35" class="node">
<title>Decidable_Decidable</title>
<g id="a_node35"><a xlink:href="Decidable.html#Decidable" xlink:title="Decidable">
<ellipse fill="#f070d1" stroke="#000000" cx="593" cy="-87.6369" rx="57.3905" ry="18"/>
<text text-anchor="middle" x="593" y="-83.9369" font-family="Times,serif" font-size="14.00" fill="#000000">Decidable</text>
</a>
</g>
</g>
<!-- Decidable_decidable_equiv&#45;&gt;Decidable_Decidable -->
<g id="edge36" class="edge">
<title>Decidable_decidable_equiv&#45;&gt;Decidable_Decidable</title>
<path fill="none" stroke="#000000" d="M653.1429,-275.3558C641.5432,-239.1505 615.5872,-158.1364 601.8765,-115.3423"/>
<polygon fill="#000000" stroke="#000000" points="605.134,-114.0382 598.7497,-105.5829 598.4678,-116.174 605.134,-114.0382"/>
</g>
<!-- Decidable_decidable_empty -->
<g id="node25" class="node">
<title>Decidable_decidable_empty</title>
<g id="a_node25"><a xlink:href="Decidable.html#decidable_empty" xlink:title="decidable_empty">
<ellipse fill="#f070d1" stroke="#000000" cx="860" cy="-293.6369" rx="89.8687" ry="18"/>
<ellipse fill="none" stroke="#000000" cx="860" cy="-293.6369" rx="93.8766" ry="22"/>
<ellipse fill="none" stroke="#000000" cx="860" cy="-293.6369" rx="97.8845" ry="26"/>
<text text-anchor="middle" x="860" y="-289.9369" font-family="Times,serif" font-size="14.00" fill="#000000">decidable_empty</text>
</a>
</g>
</g>
<!-- Decidable_decidable_empty&#45;&gt;Decidable_Decidable -->
<g id="edge37" class="edge">
<title>Decidable_decidable_empty&#45;&gt;Decidable_Decidable</title>
<path fill="none" stroke="#000000" d="M828.0588,-268.9931C776.0044,-228.8313 673.6058,-149.8271 622.9016,-110.707"/>
<polygon fill="#000000" stroke="#000000" points="624.9871,-107.8955 614.9317,-104.558 620.7111,-113.4377 624.9871,-107.8955"/>
</g>
<!-- Decidable_decidablepaths_hprop -->
<g id="node26" class="node">
<title>Decidable_decidablepaths_hprop</title>
<g id="a_node26"><a xlink:href="Decidable.html#decidablepaths_hprop" xlink:title="decidablepaths_hprop">
<ellipse fill="#f070d1" stroke="#000000" cx="462" cy="-520.6369" rx="113.9645" ry="18"/>
<ellipse fill="none" stroke="#000000" cx="462" cy="-520.6369" rx="117.9724" ry="22"/>
<ellipse fill="none" stroke="#000000" cx="462" cy="-520.6369" rx="121.9803" ry="26"/>
<text text-anchor="middle" x="462" y="-516.9369" font-family="Times,serif" font-size="14.00" fill="#000000">decidablepaths_hprop</text>
</a>
</g>
</g>
<!-- Decidable_decidable_contr -->
<g id="node27" class="node">
<title>Decidable_decidable_contr</title>
<g id="a_node27"><a xlink:href="Decidable.html#decidable_contr" xlink:title="decidable_contr">
<ellipse fill="#f070d1" stroke="#000000" cx="246" cy="-293.6369" rx="85.2851" ry="18"/>
<text text-anchor="middle" x="246" y="-289.9369" font-family="Times,serif" font-size="14.00" fill="#000000">decidable_contr</text>
</a>
</g>
</g>
<!-- Decidable_decidablepaths_hprop&#45;&gt;Decidable_decidable_contr -->
<g id="edge38" class="edge">
<title>Decidable_decidablepaths_hprop&#45;&gt;Decidable_decidable_contr</title>
<path fill="none" stroke="#000000" d="M437.6419,-495.0384C395.9051,-451.1761 311.2272,-362.1858 269.8452,-318.6964"/>
<polygon fill="#000000" stroke="#000000" points="272.3071,-316.2063 262.8781,-311.3746 267.236,-321.0317 272.3071,-316.2063"/>
</g>
<!-- Decidable_decidablepaths_hprop&#45;&gt;Decidable_DecidablePaths -->
<g id="edge39" class="edge">
<title>Decidable_decidablepaths_hprop&#45;&gt;Decidable_DecidablePaths</title>
<path fill="none" stroke="#000000" d="M521.7004,-497.9367C639.0864,-453.3025 898.0617,-354.8312 1008.0192,-313.0216"/>
<polygon fill="#000000" stroke="#000000" points="1009.4567,-316.2195 1017.5599,-309.3939 1006.9688,-309.6765 1009.4567,-316.2195"/>
</g>
<!-- Decidable_decidablepaths_hprop&#45;&gt;Decidable_dec -->
<g id="edge40" class="edge">
<title>Decidable_decidablepaths_hprop&#45;&gt;Decidable_dec</title>
<path fill="none" stroke="#000000" d="M469.571,-494.5971C482.1096,-451.4719 507.0758,-365.6035 519.9335,-321.3808"/>
<polygon fill="#000000" stroke="#000000" points="523.3486,-322.171 522.7797,-311.5914 516.627,-320.2166 523.3486,-322.171"/>
</g>
<!-- Decidable_decidable_contr&#45;&gt;Decidable_Decidable -->
<g id="edge41" class="edge">
<title>Decidable_decidable_contr&#45;&gt;Decidable_Decidable</title>
<path fill="none" stroke="#000000" d="M274.6917,-276.6038C337.7839,-239.1485 488.4363,-149.7122 557.4145,-108.7625"/>
<polygon fill="#000000" stroke="#000000" points="559.3841,-111.6637 566.1963,-103.5492 555.8107,-105.6445 559.3841,-111.6637"/>
</g>
<!-- Decidable_decide_rel -->
<g id="node28" class="node">
<title>Decidable_decide_rel</title>
<g id="a_node28"><a xlink:href="Decidable.html#decide_rel" xlink:title="decide_rel">
<ellipse fill="#f070d1" stroke="#000000" cx="416" cy="-293.6369" rx="59.2725" ry="18"/>
<ellipse fill="none" stroke="#000000" cx="416" cy="-293.6369" rx="63.2812" ry="22"/>
<ellipse fill="none" stroke="#000000" cx="416" cy="-293.6369" rx="67.2898" ry="26"/>
<text text-anchor="middle" x="416" y="-289.9369" font-family="Times,serif" font-size="14.00" fill="#000000">decide_rel</text>
</a>
</g>
</g>
<!-- Decidable_decide_rel&#45;&gt;Decidable_Decidable -->
<g id="edge42" class="edge">
<title>Decidable_decide_rel&#45;&gt;Decidable_Decidable</title>
<path fill="none" stroke="#000000" d="M437.3503,-268.7885C471.3283,-229.2435 537.3421,-152.4139 571.447,-112.7212"/>
<polygon fill="#000000" stroke="#000000" points="574.1582,-114.9363 578.0206,-105.0706 568.8489,-110.3744 574.1582,-114.9363"/>
</g>
<!-- Decidable_stable_decidable -->
<g id="node29" class="node">
<title>Decidable_stable_decidable</title>
<g id="a_node29"><a xlink:href="Decidable.html#stable_decidable" xlink:title="stable_decidable">
<ellipse fill="#f070d1" stroke="#000000" cx="225" cy="-520.6369" rx="89.0807" ry="18"/>
<ellipse fill="none" stroke="#000000" cx="225" cy="-520.6369" rx="93.0825" ry="22"/>
<ellipse fill="none" stroke="#000000" cx="225" cy="-520.6369" rx="97.0842" ry="26"/>
<text text-anchor="middle" x="225" y="-516.9369" font-family="Times,serif" font-size="14.00" fill="#000000">stable_decidable</text>
</a>
</g>
</g>
<!-- Decidable_Stable -->
<g id="node31" class="node">
<title>Decidable_Stable</title>
<g id="a_node31"><a xlink:href="Decidable.html#Stable" xlink:title="Stable">
<ellipse fill="#f070d1" stroke="#000000" cx="83" cy="-293.6369" rx="40.0939" ry="18"/>
<text text-anchor="middle" x="83" y="-289.9369" font-family="Times,serif" font-size="14.00" fill="#000000">Stable</text>
</a>
</g>
</g>
<!-- Decidable_stable_decidable&#45;&gt;Decidable_Stable -->
<g id="edge43" class="edge">
<title>Decidable_stable_decidable&#45;&gt;Decidable_Stable</title>
<path fill="none" stroke="#000000" d="M208.7108,-494.5971C181.3701,-450.8906 126.5657,-363.2806 99.2508,-319.6152"/>
<polygon fill="#000000" stroke="#000000" points="102.1297,-317.6178 93.8591,-310.9961 96.1952,-321.3302 102.1297,-317.6178"/>
</g>
<!-- Decidable_stable_decidable&#45;&gt;Decidable_dec -->
<g id="edge44" class="edge">
<title>Decidable_stable_decidable&#45;&gt;Decidable_dec</title>
<path fill="none" stroke="#000000" d="M257.7142,-496.1282C318.1402,-450.8586 446.1294,-354.9723 501.5248,-313.4715"/>
<polygon fill="#000000" stroke="#000000" points="503.866,-316.0908 509.7706,-307.2939 499.6689,-310.4886 503.866,-316.0908"/>
</g>
<!-- Decidable_stable -->
<g id="node30" class="node">
<title>Decidable_stable</title>
<g id="a_node30"><a xlink:href="Decidable.html#stable" xlink:title="stable">
<ellipse fill="#f070d1" stroke="#000000" cx="63" cy="-520.6369" rx="38.9937" ry="18"/>
<ellipse fill="none" stroke="#000000" cx="63" cy="-520.6369" rx="42.9934" ry="22"/>
<ellipse fill="none" stroke="#000000" cx="63" cy="-520.6369" rx="46.9931" ry="26"/>
<text text-anchor="middle" x="63" y="-516.9369" font-family="Times,serif" font-size="14.00" fill="#000000">stable</text>
</a>
</g>
</g>
<!-- Decidable_stable&#45;&gt;Decidable_Stable -->
<g id="edge45" class="edge">
<title>Decidable_stable&#45;&gt;Decidable_Stable</title>
<path fill="none" stroke="#000000" d="M65.2943,-494.5971C69.0763,-451.6705 76.5897,-366.3934 80.5015,-321.9943"/>
<polygon fill="#000000" stroke="#000000" points="84.0003,-322.1609 81.3916,-311.8923 77.0274,-321.5465 84.0003,-322.1609"/>
</g>
<!-- Decidable_dec_paths&#45;&gt;Decidable_DecidablePaths -->
<g id="edge46" class="edge">
<title>Decidable_dec_paths&#45;&gt;Decidable_DecidablePaths</title>
<path fill="none" stroke="#000000" d="M1107.7524,-502.4443C1098.5263,-462.929 1076.6007,-369.0211 1065.5728,-321.7882"/>
<polygon fill="#000000" stroke="#000000" points="1068.9499,-320.8585 1063.2678,-311.9162 1062.1332,-322.4501 1068.9499,-320.8585"/>
</g>
<!-- Decidable_DecidablePaths&#45;&gt;Decidable_Decidable -->
<g id="edge47" class="edge">
<title>Decidable_DecidablePaths&#45;&gt;Decidable_Decidable</title>
<path fill="none" stroke="#000000" d="M1022.0442,-277.3002C936.6782,-239.5633 726.1753,-146.5084 635.5845,-106.4618"/>
<polygon fill="#000000" stroke="#000000" points="636.7326,-103.1427 626.1713,-102.3006 633.9024,-109.545 636.7326,-103.1427"/>
</g>
<!-- Decidable_dec&#45;&gt;Decidable_Decidable -->
<g id="edge48" class="edge">
<title>Decidable_dec&#45;&gt;Decidable_Decidable</title>
<path fill="none" stroke="#000000" d="M533.6546,-275.7161C545.0112,-239.7244 570.662,-158.4313 584.2199,-115.4629"/>
<polygon fill="#000000" stroke="#000000" points="587.6408,-116.2527 587.3122,-105.6629 580.9652,-114.1463 587.6408,-116.2527"/>
</g>
</g>
</svg>
