<?xml version="1.0" encoding="UTF-8" standalone="no"?>
<!DOCTYPE svg PUBLIC "-//W3C//DTD SVG 1.1//EN"
 "http://www.w3.org/Graphics/SVG/1.1/DTD/svg11.dtd">
<!-- Generated by graphviz version 2.40.1 (20161225.0304)
 -->
<!-- Title: HoTT_Classes_theory_ua_subalgebra Pages: 1 -->
<svg width="2245pt" height="1127pt"
 viewBox="0.00 0.00 2245.00 1126.50" xmlns="http://www.w3.org/2000/svg" xmlns:xlink="http://www.w3.org/1999/xlink">
<g id="graph0" class="graph" transform="scale(1 1) rotate(0) translate(4 1122.5)">
<title>HoTT_Classes_theory_ua_subalgebra</title>
<polygon fill="#ffffff" stroke="transparent" points="-4,4 -4,-1122.5 2241,-1122.5 2241,4 -4,4"/>
<g id="clust1" class="cluster">
<title>cluster_ua_subalgebra</title>
<polygon fill="#ffffc3" stroke="#000000" points="8,-10.9255 8,-1107.5745 2229,-1107.5745 2229,-10.9255 8,-10.9255"/>
<text text-anchor="middle" x="68.5" y="-1092.3745" font-family="Times,serif" font-size="14.00" fill="#000000">ua_subalgebra</text>
</g>
<!-- ua_subalgebra_path_subalgebra_iff -->
<g id="node1" class="node">
<title>ua_subalgebra_path_subalgebra_iff</title>
<g id="a_node1"><a xlink:href="ua_subalgebra.html#path_subalgebra_iff" xlink:title="path_subalgebra_iff">
<ellipse fill="#f070d1" stroke="#000000" cx="615" cy="-712.9255" rx="102.8683" ry="18"/>
<ellipse fill="none" stroke="#000000" cx="615" cy="-712.9255" rx="106.8752" ry="22"/>
<ellipse fill="none" stroke="#000000" cx="615" cy="-712.9255" rx="110.8821" ry="26"/>
<text text-anchor="middle" x="615" y="-709.2255" font-family="Times,serif" font-size="14.00" fill="#000000">path_subalgebra_iff</text>
</a>
</g>
</g>
<!-- ua_subalgebra_path_subalgebra -->
<g id="node2" class="node">
<title>ua_subalgebra_path_subalgebra</title>
<g id="a_node2"><a xlink:href="ua_subalgebra.html#path_subalgebra" xlink:title="path_subalgebra">
<ellipse fill="#f070d1" stroke="#000000" cx="615" cy="-592.9255" rx="88.2844" ry="18"/>
<text text-anchor="middle" x="615" y="-589.2255" font-family="Times,serif" font-size="14.00" fill="#000000">path_subalgebra</text>
</a>
</g>
</g>
<!-- ua_subalgebra_path_subalgebra_iff&#45;&gt;ua_subalgebra_path_subalgebra -->
<g id="edge1" class="edge">
<title>ua_subalgebra_path_subalgebra_iff&#45;&gt;ua_subalgebra_path_subalgebra</title>
<path fill="none" stroke="#000000" d="M615,-686.8873C615,-667.4885 615,-641.0273 615,-621.1283"/>
<polygon fill="#000000" stroke="#000000" points="618.5001,-621.1142 615,-611.1143 611.5001,-621.1143 618.5001,-621.1142"/>
</g>
<!-- ua_subalgebra_Subalgebra -->
<g id="node9" class="node">
<title>ua_subalgebra_Subalgebra</title>
<g id="a_node9"><a xlink:href="ua_subalgebra.html#Subalgebra" xlink:title="Subalgebra">
<ellipse fill="#f070d1" stroke="#000000" cx="1460" cy="-472.9255" rx="63.8893" ry="18"/>
<text text-anchor="middle" x="1460" y="-469.2255" font-family="Times,serif" font-size="14.00" fill="#000000">Subalgebra</text>
</a>
</g>
</g>
<!-- ua_subalgebra_path_subalgebra&#45;&gt;ua_subalgebra_Subalgebra -->
<g id="edge2" class="edge">
<title>ua_subalgebra_path_subalgebra&#45;&gt;ua_subalgebra_Subalgebra</title>
<path fill="none" stroke="#000000" d="M687.7756,-582.5905C849.4597,-559.6295 1236.5824,-504.6535 1392.868,-482.4591"/>
<polygon fill="#000000" stroke="#000000" points="1393.4151,-485.9166 1402.8236,-481.0452 1392.4308,-478.9861 1393.4151,-485.9166"/>
</g>
<!-- ua_subalgebra_hprop_is_subalgebra_predicate -->
<g id="node13" class="node">
<title>ua_subalgebra_hprop_is_subalgebra_predicate</title>
<g id="a_node13"><a xlink:href="ua_subalgebra.html#hprop_is_subalgebra_predicate" xlink:title="hprop_is_subalgebra_predicate">
<ellipse fill="#f070d1" stroke="#000000" cx="173" cy="-351.9255" rx="156.7723" ry="18"/>
<text text-anchor="middle" x="173" y="-348.2255" font-family="Times,serif" font-size="14.00" fill="#000000">hprop_is_subalgebra_predicate</text>
</a>
</g>
</g>
<!-- ua_subalgebra_path_subalgebra&#45;&gt;ua_subalgebra_hprop_is_subalgebra_predicate -->
<g id="edge3" class="edge">
<title>ua_subalgebra_path_subalgebra&#45;&gt;ua_subalgebra_hprop_is_subalgebra_predicate</title>
<path fill="none" stroke="#000000" d="M583.9194,-575.9789C506.0128,-533.5003 302.3636,-422.4609 214.425,-374.5125"/>
<polygon fill="#000000" stroke="#000000" points="215.9895,-371.3791 205.5342,-369.6648 212.6385,-377.5249 215.9895,-371.3791"/>
</g>
<!-- ua_subalgebra_is_isomorphism_inc_improper_subalgebra -->
<g id="node3" class="node">
<title>ua_subalgebra_is_isomorphism_inc_improper_subalgebra</title>
<g id="a_node3"><a xlink:href="ua_subalgebra.html#is_isomorphism_inc_improper_subalgebra" xlink:title="is_isomorphism_inc_improper_subalgebra">
<ellipse fill="#f070d1" stroke="#000000" cx="1570" cy="-1029.9255" rx="206.8567" ry="18"/>
<ellipse fill="none" stroke="#000000" cx="1570" cy="-1029.9255" rx="210.8601" ry="22"/>
<ellipse fill="none" stroke="#000000" cx="1570" cy="-1029.9255" rx="214.8635" ry="26"/>
<text text-anchor="middle" x="1570" y="-1026.2255" font-family="Times,serif" font-size="14.00" fill="#000000">is_isomorphism_inc_improper_subalgebra</text>
</a>
</g>
</g>
<!-- ua_subalgebra_hom_inc_subalgebra -->
<g id="node4" class="node">
<title>ua_subalgebra_hom_inc_subalgebra</title>
<g id="a_node4"><a xlink:href="ua_subalgebra.html#hom_inc_subalgebra" xlink:title="hom_inc_subalgebra">
<ellipse fill="#f070d1" stroke="#000000" cx="1570" cy="-920.9255" rx="106.6812" ry="18"/>
<text text-anchor="middle" x="1570" y="-917.2255" font-family="Times,serif" font-size="14.00" fill="#000000">hom_inc_subalgebra</text>
</a>
</g>
</g>
<!-- ua_subalgebra_is_isomorphism_inc_improper_subalgebra&#45;&gt;ua_subalgebra_hom_inc_subalgebra -->
<g id="edge4" class="edge">
<title>ua_subalgebra_is_isomorphism_inc_improper_subalgebra&#45;&gt;ua_subalgebra_hom_inc_subalgebra</title>
<path fill="none" stroke="#000000" d="M1570,-1003.8173C1570,-987.3879 1570,-966.1826 1570,-949.3328"/>
<polygon fill="#000000" stroke="#000000" points="1573.5001,-948.9829 1570,-938.9829 1566.5001,-948.983 1573.5001,-948.9829"/>
</g>
<!-- ua_subalgebra_is_homomorphism_inc_subalgebra -->
<g id="node5" class="node">
<title>ua_subalgebra_is_homomorphism_inc_subalgebra</title>
<g id="a_node5"><a xlink:href="ua_subalgebra.html#is_homomorphism_inc_subalgebra" xlink:title="is_homomorphism_inc_subalgebra">
<ellipse fill="#f070d1" stroke="#000000" cx="1570" cy="-821.9255" rx="170.8697" ry="18"/>
<text text-anchor="middle" x="1570" y="-818.2255" font-family="Times,serif" font-size="14.00" fill="#000000">is_homomorphism_inc_subalgebra</text>
</a>
</g>
</g>
<!-- ua_subalgebra_hom_inc_subalgebra&#45;&gt;ua_subalgebra_is_homomorphism_inc_subalgebra -->
<g id="edge5" class="edge">
<title>ua_subalgebra_hom_inc_subalgebra&#45;&gt;ua_subalgebra_is_homomorphism_inc_subalgebra</title>
<path fill="none" stroke="#000000" d="M1570,-902.7674C1570,-888.1143 1570,-867.2366 1570,-850.3685"/>
<polygon fill="#000000" stroke="#000000" points="1573.5001,-849.9685 1570,-839.9685 1566.5001,-849.9686 1573.5001,-849.9685"/>
</g>
<!-- ua_subalgebra_oppreserving_inc_subalgebra -->
<g id="node6" class="node">
<title>ua_subalgebra_oppreserving_inc_subalgebra</title>
<g id="a_node6"><a xlink:href="ua_subalgebra.html#oppreserving_inc_subalgebra" xlink:title="oppreserving_inc_subalgebra">
<ellipse fill="#f070d1" stroke="#000000" cx="1570" cy="-712.9255" rx="147.5738" ry="18"/>
<text text-anchor="middle" x="1570" y="-709.2255" font-family="Times,serif" font-size="14.00" fill="#000000">oppreserving_inc_subalgebra</text>
</a>
</g>
</g>
<!-- ua_subalgebra_is_homomorphism_inc_subalgebra&#45;&gt;ua_subalgebra_oppreserving_inc_subalgebra -->
<g id="edge6" class="edge">
<title>ua_subalgebra_is_homomorphism_inc_subalgebra&#45;&gt;ua_subalgebra_oppreserving_inc_subalgebra</title>
<path fill="none" stroke="#000000" d="M1570,-803.4352C1570,-786.4207 1570,-760.9311 1570,-741.3331"/>
<polygon fill="#000000" stroke="#000000" points="1573.5001,-741.1428 1570,-731.1428 1566.5001,-741.1428 1573.5001,-741.1428"/>
</g>
<!-- ua_subalgebra_def_inc_subalgebra -->
<g id="node7" class="node">
<title>ua_subalgebra_def_inc_subalgebra</title>
<g id="a_node7"><a xlink:href="ua_subalgebra.html#def_inc_subalgebra" xlink:title="def_inc_subalgebra">
<ellipse fill="#f070d1" stroke="#000000" cx="1570" cy="-592.9255" rx="100.9827" ry="18"/>
<text text-anchor="middle" x="1570" y="-589.2255" font-family="Times,serif" font-size="14.00" fill="#000000">def_inc_subalgebra</text>
</a>
</g>
</g>
<!-- ua_subalgebra_oppreserving_inc_subalgebra&#45;&gt;ua_subalgebra_def_inc_subalgebra -->
<g id="edge7" class="edge">
<title>ua_subalgebra_oppreserving_inc_subalgebra&#45;&gt;ua_subalgebra_def_inc_subalgebra</title>
<path fill="none" stroke="#000000" d="M1570,-694.7001C1570,-675.1159 1570,-643.7439 1570,-621.0031"/>
<polygon fill="#000000" stroke="#000000" points="1573.5001,-620.9292 1570,-610.9293 1566.5001,-620.9293 1573.5001,-620.9292"/>
</g>
<!-- ua_subalgebra_def_inc_subalgebra&#45;&gt;ua_subalgebra_Subalgebra -->
<g id="edge8" class="edge">
<title>ua_subalgebra_def_inc_subalgebra&#45;&gt;ua_subalgebra_Subalgebra</title>
<path fill="none" stroke="#000000" d="M1553.5319,-574.9603C1534.8746,-554.6069 1504.329,-521.2845 1483.2484,-498.2874"/>
<polygon fill="#000000" stroke="#000000" points="1485.559,-495.6284 1476.2216,-490.6219 1480.3989,-500.3585 1485.559,-495.6284"/>
</g>
<!-- ua_subalgebra_trunc_subalgebra -->
<g id="node8" class="node">
<title>ua_subalgebra_trunc_subalgebra</title>
<g id="a_node8"><a xlink:href="ua_subalgebra.html#trunc_subalgebra" xlink:title="trunc_subalgebra">
<ellipse fill="#f070d1" stroke="#000000" cx="1350" cy="-592.9255" rx="92.8882" ry="18"/>
<ellipse fill="none" stroke="#000000" cx="1350" cy="-592.9255" rx="96.8858" ry="22"/>
<ellipse fill="none" stroke="#000000" cx="1350" cy="-592.9255" rx="100.8835" ry="26"/>
<text text-anchor="middle" x="1350" y="-589.2255" font-family="Times,serif" font-size="14.00" fill="#000000">trunc_subalgebra</text>
</a>
</g>
</g>
<!-- ua_subalgebra_trunc_subalgebra&#45;&gt;ua_subalgebra_Subalgebra -->
<g id="edge9" class="edge">
<title>ua_subalgebra_trunc_subalgebra&#45;&gt;ua_subalgebra_Subalgebra</title>
<path fill="none" stroke="#000000" d="M1373.3282,-567.4766C1392.1177,-546.9789 1418.3883,-518.3201 1437.0709,-497.9391"/>
<polygon fill="#000000" stroke="#000000" points="1439.651,-500.3041 1443.8282,-490.5675 1434.4909,-495.574 1439.651,-500.3041"/>
</g>
<!-- ua_subalgebra_ops_subalgebra -->
<g id="node10" class="node">
<title>ua_subalgebra_ops_subalgebra</title>
<g id="a_node10"><a xlink:href="ua_subalgebra.html#ops_subalgebra" xlink:title="ops_subalgebra">
<ellipse fill="#f070d1" stroke="#000000" cx="2138" cy="-351.9255" rx="83.3857" ry="18"/>
<text text-anchor="middle" x="2138" y="-348.2255" font-family="Times,serif" font-size="14.00" fill="#000000">ops_subalgebra</text>
</a>
</g>
</g>
<!-- ua_subalgebra_Subalgebra&#45;&gt;ua_subalgebra_ops_subalgebra -->
<g id="edge10" class="edge">
<title>ua_subalgebra_Subalgebra&#45;&gt;ua_subalgebra_ops_subalgebra</title>
<path fill="none" stroke="#000000" d="M1518.6434,-465.686C1624.6269,-452.1003 1854.8155,-420.2912 2046,-377.9255 2057.0293,-375.4815 2068.6971,-372.4992 2079.8842,-369.4376"/>
<polygon fill="#000000" stroke="#000000" points="2080.8712,-372.796 2089.5634,-366.7382 2078.9907,-366.0533 2080.8712,-372.796"/>
</g>
<!-- ua_subalgebra_op_subalgebra -->
<g id="node11" class="node">
<title>ua_subalgebra_op_subalgebra</title>
<g id="a_node11"><a xlink:href="ua_subalgebra.html#op_subalgebra" xlink:title="op_subalgebra">
<ellipse fill="#f070d1" stroke="#000000" cx="1710" cy="-242.9255" rx="78.7863" ry="18"/>
<text text-anchor="middle" x="1710" y="-239.2255" font-family="Times,serif" font-size="14.00" fill="#000000">op_subalgebra</text>
</a>
</g>
</g>
<!-- ua_subalgebra_ops_subalgebra&#45;&gt;ua_subalgebra_op_subalgebra -->
<g id="edge11" class="edge">
<title>ua_subalgebra_ops_subalgebra&#45;&gt;ua_subalgebra_op_subalgebra</title>
<path fill="none" stroke="#000000" d="M2087.9478,-337.4541C2074.3624,-333.6154 2059.6383,-329.5361 2046,-325.9255 1952.0758,-301.0602 1842.7512,-274.4925 1774.9536,-258.2933"/>
<polygon fill="#000000" stroke="#000000" points="1775.3878,-254.7987 1764.8485,-255.8822 1773.7631,-261.6076 1775.3878,-254.7987"/>
</g>
<!-- ua_subalgebra_IsSubalgebraPredicate -->
<g id="node21" class="node">
<title>ua_subalgebra_IsSubalgebraPredicate</title>
<g id="a_node21"><a xlink:href="ua_subalgebra.html#IsSubalgebraPredicate" xlink:title="IsSubalgebraPredicate">
<ellipse fill="#e2cdfa" stroke="#000000" cx="1091" cy="-242.9255" rx="117.7793" ry="18"/>
<text text-anchor="middle" x="1091" y="-239.2255" font-family="Times,serif" font-size="14.00" fill="#000000">IsSubalgebraPredicate</text>
</a>
</g>
</g>
<!-- ua_subalgebra_ops_subalgebra&#45;&gt;ua_subalgebra_IsSubalgebraPredicate -->
<g id="edge12" class="edge">
<title>ua_subalgebra_ops_subalgebra&#45;&gt;ua_subalgebra_IsSubalgebraPredicate</title>
<path fill="none" stroke="#000000" d="M2091.5985,-336.9712C2077.1267,-332.8065 2061.0204,-328.6752 2046,-325.9255 1752.1826,-272.138 1400.9335,-252.9734 1217.2072,-246.3223"/>
<polygon fill="#000000" stroke="#000000" points="1217.0861,-242.8158 1206.968,-245.9583 1216.8374,-249.8114 1217.0861,-242.8158"/>
</g>
<!-- ua_subalgebra_carriers_subalgebra -->
<g id="node12" class="node">
<title>ua_subalgebra_carriers_subalgebra</title>
<g id="a_node12"><a xlink:href="ua_subalgebra.html#carriers_subalgebra" xlink:title="carriers_subalgebra">
<ellipse fill="#f070d1" stroke="#000000" cx="1710" cy="-144.9255" rx="104.7816" ry="18"/>
<text text-anchor="middle" x="1710" y="-141.2255" font-family="Times,serif" font-size="14.00" fill="#000000">carriers_subalgebra</text>
</a>
</g>
</g>
<!-- ua_subalgebra_op_subalgebra&#45;&gt;ua_subalgebra_carriers_subalgebra -->
<g id="edge13" class="edge">
<title>ua_subalgebra_op_subalgebra&#45;&gt;ua_subalgebra_carriers_subalgebra</title>
<path fill="none" stroke="#000000" d="M1710,-224.4925C1710,-210.0289 1710,-189.6494 1710,-173.1366"/>
<polygon fill="#000000" stroke="#000000" points="1713.5001,-172.9448 1710,-162.9448 1706.5001,-172.9448 1713.5001,-172.9448"/>
</g>
<!-- ua_subalgebra_ClosedUnderOp -->
<g id="node25" class="node">
<title>ua_subalgebra_ClosedUnderOp</title>
<g id="a_node25"><a xlink:href="ua_subalgebra.html#ClosedUnderOp" xlink:title="ClosedUnderOp">
<ellipse fill="#f070d1" stroke="#000000" cx="798" cy="-46.9255" rx="85.2851" ry="18"/>
<text text-anchor="middle" x="798" y="-43.2255" font-family="Times,serif" font-size="14.00" fill="#000000">ClosedUnderOp</text>
</a>
</g>
</g>
<!-- ua_subalgebra_op_subalgebra&#45;&gt;ua_subalgebra_ClosedUnderOp -->
<g id="edge14" class="edge">
<title>ua_subalgebra_op_subalgebra&#45;&gt;ua_subalgebra_ClosedUnderOp</title>
<path fill="none" stroke="#000000" d="M1652.6048,-230.5906C1492.5699,-196.1971 1041.7469,-99.3097 867.7366,-61.9128"/>
<polygon fill="#000000" stroke="#000000" points="868.4319,-58.4824 857.9197,-59.803 866.9611,-65.3261 868.4319,-58.4824"/>
</g>
<!-- ua_subalgebra_BuildIsSubalgebraPredicate -->
<g id="node20" class="node">
<title>ua_subalgebra_BuildIsSubalgebraPredicate</title>
<g id="a_node20"><a xlink:href="ua_subalgebra.html#BuildIsSubalgebraPredicate" xlink:title="BuildIsSubalgebraPredicate">
<ellipse fill="#7faaff" stroke="#000000" cx="798" cy="-242.9255" rx="141.8751" ry="18"/>
<text text-anchor="middle" x="798" y="-239.2255" font-family="Times,serif" font-size="14.00" fill="#000000">BuildIsSubalgebraPredicate</text>
</a>
</g>
</g>
<!-- ua_subalgebra_hprop_is_subalgebra_predicate&#45;&gt;ua_subalgebra_BuildIsSubalgebraPredicate -->
<g id="edge15" class="edge">
<title>ua_subalgebra_hprop_is_subalgebra_predicate&#45;&gt;ua_subalgebra_BuildIsSubalgebraPredicate</title>
<path fill="none" stroke="#000000" d="M259.2474,-336.884C376.0159,-316.5195 583.6229,-280.3129 704.1768,-259.2883"/>
<polygon fill="#000000" stroke="#000000" points="704.8837,-262.7179 714.1336,-257.5518 703.681,-255.822 704.8837,-262.7179"/>
</g>
<!-- ua_subalgebra_hprop_is_subalgebra_predicate&#45;&gt;ua_subalgebra_IsSubalgebraPredicate -->
<g id="edge16" class="edge">
<title>ua_subalgebra_hprop_is_subalgebra_predicate&#45;&gt;ua_subalgebra_IsSubalgebraPredicate</title>
<path fill="none" stroke="#000000" d="M262.4804,-337.0841C287.2322,-333.2041 314.1273,-329.1966 339,-325.9255 609.3184,-290.3757 678.1902,-292.5147 949,-260.9255 962.6054,-259.3385 976.9351,-257.6004 991.0465,-255.8498"/>
<polygon fill="#000000" stroke="#000000" points="991.7798,-259.2856 1001.2698,-254.575 990.9135,-252.3394 991.7798,-259.2856"/>
</g>
<!-- ua_subalgebra_trunc_is_closed_under_ops -->
<g id="node22" class="node">
<title>ua_subalgebra_trunc_is_closed_under_ops</title>
<g id="a_node22"><a xlink:href="ua_subalgebra.html#trunc_is_closed_under_ops" xlink:title="trunc_is_closed_under_ops">
<ellipse fill="#f070d1" stroke="#000000" cx="502" cy="-242.9255" rx="136.4758" ry="18"/>
<text text-anchor="middle" x="502" y="-239.2255" font-family="Times,serif" font-size="14.00" fill="#000000">trunc_is_closed_under_ops</text>
</a>
</g>
</g>
<!-- ua_subalgebra_hprop_is_subalgebra_predicate&#45;&gt;ua_subalgebra_trunc_is_closed_under_ops -->
<g id="edge17" class="edge">
<title>ua_subalgebra_hprop_is_subalgebra_predicate&#45;&gt;ua_subalgebra_trunc_is_closed_under_ops</title>
<path fill="none" stroke="#000000" d="M224.4063,-334.8943C283.2471,-315.3999 379.505,-283.509 441.7991,-262.8705"/>
<polygon fill="#000000" stroke="#000000" points="443.1026,-266.1258 451.4944,-259.6584 440.9011,-259.481 443.1026,-266.1258"/>
</g>
<!-- ua_subalgebra_is_closed_under_ops_subalgebra_predicate -->
<g id="node14" class="node">
<title>ua_subalgebra_is_closed_under_ops_subalgebra_predicate</title>
<g id="a_node14"><a xlink:href="ua_subalgebra.html#is_closed_under_ops_subalgebra_predicate" xlink:title="is_closed_under_ops_subalgebra_predicate">
<ellipse fill="#f070d1" stroke="#000000" cx="1495" cy="-351.9255" rx="211.7668" ry="18"/>
<ellipse fill="none" stroke="#000000" cx="1495" cy="-351.9255" rx="215.7646" ry="22"/>
<ellipse fill="none" stroke="#000000" cx="1495" cy="-351.9255" rx="219.7625" ry="26"/>
<text text-anchor="middle" x="1495" y="-348.2255" font-family="Times,serif" font-size="14.00" fill="#000000">is_closed_under_ops_subalgebra_predicate</text>
</a>
</g>
</g>
<!-- ua_subalgebra_is_closed_under_ops_subalgebra_predicate&#45;&gt;ua_subalgebra_IsSubalgebraPredicate -->
<g id="edge18" class="edge">
<title>ua_subalgebra_is_closed_under_ops_subalgebra_predicate&#45;&gt;ua_subalgebra_IsSubalgebraPredicate</title>
<path fill="none" stroke="#000000" d="M1406.3405,-328.005C1331.8442,-307.9058 1226.9398,-279.6024 1158.9562,-261.2602"/>
<polygon fill="#000000" stroke="#000000" points="1159.7682,-257.8542 1149.2017,-258.6285 1157.9448,-264.6126 1159.7682,-257.8542"/>
</g>
<!-- ua_subalgebra_hprop_subalgebra_predicate -->
<g id="node15" class="node">
<title>ua_subalgebra_hprop_subalgebra_predicate</title>
<g id="a_node15"><a xlink:href="ua_subalgebra.html#hprop_subalgebra_predicate" xlink:title="hprop_subalgebra_predicate">
<ellipse fill="#f070d1" stroke="#000000" cx="1885" cy="-351.9255" rx="143.7674" ry="18"/>
<ellipse fill="none" stroke="#000000" cx="1885" cy="-351.9255" rx="147.771" ry="22"/>
<ellipse fill="none" stroke="#000000" cx="1885" cy="-351.9255" rx="151.7746" ry="26"/>
<text text-anchor="middle" x="1885" y="-348.2255" font-family="Times,serif" font-size="14.00" fill="#000000">hprop_subalgebra_predicate</text>
</a>
</g>
</g>
<!-- ua_subalgebra_hprop_subalgebra_predicate&#45;&gt;ua_subalgebra_IsSubalgebraPredicate -->
<g id="edge19" class="edge">
<title>ua_subalgebra_hprop_subalgebra_predicate&#45;&gt;ua_subalgebra_IsSubalgebraPredicate</title>
<path fill="none" stroke="#000000" d="M1775.512,-333.7959C1758.287,-331.0731 1740.6692,-328.3638 1724,-325.9255 1537.0053,-298.5732 1318.2956,-270.8365 1193.0719,-255.3614"/>
<polygon fill="#000000" stroke="#000000" points="1193.4599,-251.8828 1183.1064,-254.1314 1192.6023,-258.8301 1193.4599,-251.8828"/>
</g>
<!-- ua_subalgebra_IsSubalgebraPredicate_sind -->
<g id="node16" class="node">
<title>ua_subalgebra_IsSubalgebraPredicate_sind</title>
<g id="a_node16"><a xlink:href="ua_subalgebra.html#IsSubalgebraPredicate_sind" xlink:title="IsSubalgebraPredicate_sind">
<ellipse fill="#f070d1" stroke="#000000" cx="1107" cy="-351.9255" rx="141.8651" ry="18"/>
<ellipse fill="none" stroke="#000000" cx="1107" cy="-351.9255" rx="145.8701" ry="22"/>
<ellipse fill="none" stroke="#000000" cx="1107" cy="-351.9255" rx="149.8751" ry="26"/>
<text text-anchor="middle" x="1107" y="-348.2255" font-family="Times,serif" font-size="14.00" fill="#000000">IsSubalgebraPredicate_sind</text>
</a>
</g>
</g>
<!-- ua_subalgebra_IsSubalgebraPredicate_sind&#45;&gt;ua_subalgebra_BuildIsSubalgebraPredicate -->
<g id="edge20" class="edge">
<title>ua_subalgebra_IsSubalgebraPredicate_sind&#45;&gt;ua_subalgebra_BuildIsSubalgebraPredicate</title>
<path fill="none" stroke="#000000" d="M1040.7117,-328.5423C985.6208,-309.1089 908.0266,-281.7375 855.52,-263.2158"/>
<polygon fill="#000000" stroke="#000000" points="856.6138,-259.8902 846.019,-259.8642 854.2851,-266.4916 856.6138,-259.8902"/>
</g>
<!-- ua_subalgebra_IsSubalgebraPredicate_sind&#45;&gt;ua_subalgebra_IsSubalgebraPredicate -->
<g id="edge21" class="edge">
<title>ua_subalgebra_IsSubalgebraPredicate_sind&#45;&gt;ua_subalgebra_IsSubalgebraPredicate</title>
<path fill="none" stroke="#000000" d="M1103.1676,-325.8173C1100.7559,-309.3879 1097.6432,-288.1826 1095.1699,-271.3328"/>
<polygon fill="#000000" stroke="#000000" points="1098.5659,-270.3686 1093.6506,-260.9829 1091.6401,-271.3852 1098.5659,-270.3686"/>
</g>
<!-- ua_subalgebra_IsSubalgebraPredicate_rec -->
<g id="node17" class="node">
<title>ua_subalgebra_IsSubalgebraPredicate_rec</title>
<g id="a_node17"><a xlink:href="ua_subalgebra.html#IsSubalgebraPredicate_rec" xlink:title="IsSubalgebraPredicate_rec">
<ellipse fill="#f070d1" stroke="#000000" cx="798" cy="-472.9255" rx="137.5875" ry="18"/>
<ellipse fill="none" stroke="#000000" cx="798" cy="-472.9255" rx="141.5817" ry="22"/>
<ellipse fill="none" stroke="#000000" cx="798" cy="-472.9255" rx="145.5759" ry="26"/>
<text text-anchor="middle" x="798" y="-469.2255" font-family="Times,serif" font-size="14.00" fill="#000000">IsSubalgebraPredicate_rec</text>
</a>
</g>
</g>
<!-- ua_subalgebra_IsSubalgebraPredicate_rect -->
<g id="node19" class="node">
<title>ua_subalgebra_IsSubalgebraPredicate_rect</title>
<g id="a_node19"><a xlink:href="ua_subalgebra.html#IsSubalgebraPredicate_rect" xlink:title="IsSubalgebraPredicate_rect">
<ellipse fill="#f070d1" stroke="#000000" cx="798" cy="-351.9255" rx="141.8751" ry="18"/>
<text text-anchor="middle" x="798" y="-348.2255" font-family="Times,serif" font-size="14.00" fill="#000000">IsSubalgebraPredicate_rect</text>
</a>
</g>
</g>
<!-- ua_subalgebra_IsSubalgebraPredicate_rec&#45;&gt;ua_subalgebra_IsSubalgebraPredicate_rect -->
<g id="edge22" class="edge">
<title>ua_subalgebra_IsSubalgebraPredicate_rec&#45;&gt;ua_subalgebra_IsSubalgebraPredicate_rect</title>
<path fill="none" stroke="#000000" d="M798,-446.6703C798,-427.1098 798,-400.4282 798,-380.3633"/>
<polygon fill="#000000" stroke="#000000" points="801.5001,-380.2658 798,-370.2658 794.5001,-380.2659 801.5001,-380.2658"/>
</g>
<!-- ua_subalgebra_IsSubalgebraPredicate_ind -->
<g id="node18" class="node">
<title>ua_subalgebra_IsSubalgebraPredicate_ind</title>
<g id="a_node18"><a xlink:href="ua_subalgebra.html#IsSubalgebraPredicate_ind" xlink:title="IsSubalgebraPredicate_ind">
<ellipse fill="#7fffd4" stroke="#000000" cx="493" cy="-351.9255" rx="137.2682" ry="18"/>
<ellipse fill="none" stroke="#000000" cx="493" cy="-351.9255" rx="141.272" ry="22"/>
<ellipse fill="none" stroke="#000000" cx="493" cy="-351.9255" rx="145.2758" ry="26"/>
<text text-anchor="middle" x="493" y="-348.2255" font-family="Times,serif" font-size="14.00" fill="#000000">IsSubalgebraPredicate_ind</text>
</a>
</g>
</g>
<!-- ua_subalgebra_IsSubalgebraPredicate_ind&#45;&gt;ua_subalgebra_BuildIsSubalgebraPredicate -->
<g id="edge23" class="edge">
<title>ua_subalgebra_IsSubalgebraPredicate_ind&#45;&gt;ua_subalgebra_BuildIsSubalgebraPredicate</title>
<path fill="none" stroke="#000000" d="M558.0561,-328.676C612.2944,-309.2924 688.8221,-281.9432 740.7605,-263.3816"/>
<polygon fill="#000000" stroke="#000000" points="742.2449,-266.568 750.4837,-259.9067 739.8891,-259.9763 742.2449,-266.568"/>
</g>
<!-- ua_subalgebra_IsSubalgebraPredicate_ind&#45;&gt;ua_subalgebra_IsSubalgebraPredicate -->
<g id="edge24" class="edge">
<title>ua_subalgebra_IsSubalgebraPredicate_ind&#45;&gt;ua_subalgebra_IsSubalgebraPredicate</title>
<path fill="none" stroke="#000000" d="M594.7813,-333.3734C710.3659,-312.3053 896.9262,-278.3002 1005.3543,-258.5365"/>
<polygon fill="#000000" stroke="#000000" points="1006.0659,-261.9646 1015.2762,-256.728 1004.8107,-255.078 1006.0659,-261.9646"/>
</g>
<!-- ua_subalgebra_IsSubalgebraPredicate_rect&#45;&gt;ua_subalgebra_BuildIsSubalgebraPredicate -->
<g id="edge25" class="edge">
<title>ua_subalgebra_IsSubalgebraPredicate_rect&#45;&gt;ua_subalgebra_BuildIsSubalgebraPredicate</title>
<path fill="none" stroke="#000000" d="M798,-333.4352C798,-316.4207 798,-290.9311 798,-271.3331"/>
<polygon fill="#000000" stroke="#000000" points="801.5001,-271.1428 798,-261.1428 794.5001,-271.1428 801.5001,-271.1428"/>
</g>
<!-- ua_subalgebra_IsSubalgebraPredicate_rect&#45;&gt;ua_subalgebra_IsSubalgebraPredicate -->
<g id="edge26" class="edge">
<title>ua_subalgebra_IsSubalgebraPredicate_rect&#45;&gt;ua_subalgebra_IsSubalgebraPredicate</title>
<path fill="none" stroke="#000000" d="M844.1036,-334.7744C896.2498,-315.3753 981.0948,-283.8118 1036.4819,-263.207"/>
<polygon fill="#000000" stroke="#000000" points="1037.9743,-266.3862 1046.1264,-259.6191 1035.5336,-259.8255 1037.9743,-266.3862"/>
</g>
<!-- ua_subalgebra_IsClosedUnderOps -->
<g id="node23" class="node">
<title>ua_subalgebra_IsClosedUnderOps</title>
<g id="a_node23"><a xlink:href="ua_subalgebra.html#IsClosedUnderOps" xlink:title="IsClosedUnderOps">
<ellipse fill="#f070d1" stroke="#000000" cx="798" cy="-144.9255" rx="98.5829" ry="18"/>
<text text-anchor="middle" x="798" y="-141.2255" font-family="Times,serif" font-size="14.00" fill="#000000">IsClosedUnderOps</text>
</a>
</g>
</g>
<!-- ua_subalgebra_BuildIsSubalgebraPredicate&#45;&gt;ua_subalgebra_IsClosedUnderOps -->
<g id="edge27" class="edge">
<title>ua_subalgebra_BuildIsSubalgebraPredicate&#45;&gt;ua_subalgebra_IsClosedUnderOps</title>
<path fill="none" stroke="#000000" d="M798,-224.4925C798,-210.0289 798,-189.6494 798,-173.1366"/>
<polygon fill="#000000" stroke="#000000" points="801.5001,-172.9448 798,-162.9448 794.5001,-172.9448 801.5001,-172.9448"/>
</g>
<!-- ua_subalgebra_IsSubalgebraPredicate&#45;&gt;ua_subalgebra_IsClosedUnderOps -->
<g id="edge28" class="edge">
<title>ua_subalgebra_IsSubalgebraPredicate&#45;&gt;ua_subalgebra_IsClosedUnderOps</title>
<path fill="none" stroke="#000000" d="M1041.9584,-226.5225C990.4747,-209.3027 909.6026,-182.2534 855.2357,-164.0692"/>
<polygon fill="#000000" stroke="#000000" points="856.3355,-160.7465 845.7417,-160.8937 854.115,-167.385 856.3355,-160.7465"/>
</g>
<!-- ua_subalgebra_trunc_is_closed_under_ops&#45;&gt;ua_subalgebra_IsClosedUnderOps -->
<g id="edge29" class="edge">
<title>ua_subalgebra_trunc_is_closed_under_ops&#45;&gt;ua_subalgebra_IsClosedUnderOps</title>
<path fill="none" stroke="#000000" d="M552.5479,-226.1901C604.7298,-208.9136 686.0072,-182.0042 740.5822,-163.9355"/>
<polygon fill="#000000" stroke="#000000" points="741.7184,-167.2462 750.1116,-160.7805 739.5183,-160.6009 741.7184,-167.2462"/>
</g>
<!-- ua_subalgebra_trunc_closed_under_op -->
<g id="node24" class="node">
<title>ua_subalgebra_trunc_closed_under_op</title>
<g id="a_node24"><a xlink:href="ua_subalgebra.html#trunc_closed_under_op" xlink:title="trunc_closed_under_op">
<ellipse fill="#f070d1" stroke="#000000" cx="532" cy="-144.9255" rx="118.8789" ry="18"/>
<text text-anchor="middle" x="532" y="-141.2255" font-family="Times,serif" font-size="14.00" fill="#000000">trunc_closed_under_op</text>
</a>
</g>
</g>
<!-- ua_subalgebra_trunc_is_closed_under_ops&#45;&gt;ua_subalgebra_trunc_closed_under_op -->
<g id="edge30" class="edge">
<title>ua_subalgebra_trunc_is_closed_under_ops&#45;&gt;ua_subalgebra_trunc_closed_under_op</title>
<path fill="none" stroke="#000000" d="M507.6428,-224.4925C512.1126,-209.8912 518.428,-189.2607 523.508,-172.6659"/>
<polygon fill="#000000" stroke="#000000" points="526.9034,-173.5313 526.4839,-162.9448 520.21,-171.4823 526.9034,-173.5313"/>
</g>
<!-- ua_subalgebra_IsClosedUnderOps&#45;&gt;ua_subalgebra_ClosedUnderOp -->
<g id="edge31" class="edge">
<title>ua_subalgebra_IsClosedUnderOps&#45;&gt;ua_subalgebra_ClosedUnderOp</title>
<path fill="none" stroke="#000000" d="M798,-126.4925C798,-112.0289 798,-91.6494 798,-75.1366"/>
<polygon fill="#000000" stroke="#000000" points="801.5001,-74.9448 798,-64.9448 794.5001,-74.9448 801.5001,-74.9448"/>
</g>
<!-- ua_subalgebra_trunc_closed_under_op&#45;&gt;ua_subalgebra_ClosedUnderOp -->
<g id="edge32" class="edge">
<title>ua_subalgebra_trunc_closed_under_op&#45;&gt;ua_subalgebra_ClosedUnderOp</title>
<path fill="none" stroke="#000000" d="M577.4248,-128.1901C624.1658,-110.9697 696.8842,-84.1787 745.9234,-66.1116"/>
<polygon fill="#000000" stroke="#000000" points="747.2274,-69.3613 755.4008,-62.62 744.8074,-62.7929 747.2274,-69.3613"/>
</g>
</g>
</svg>
