<?xml version="1.0" encoding="UTF-8" standalone="no"?>
<!DOCTYPE svg PUBLIC "-//W3C//DTD SVG 1.1//EN"
 "http://www.w3.org/Graphics/SVG/1.1/DTD/svg11.dtd">
<!-- Generated by graphviz version 2.40.1 (20161225.0304)
 -->
<!-- Title: HoTT_Modalities_Nullification Pages: 1 -->
<svg width="830pt" height="419pt"
 viewBox="0.00 0.00 830.00 419.00" xmlns="http://www.w3.org/2000/svg" xmlns:xlink="http://www.w3.org/1999/xlink">
<g id="graph0" class="graph" transform="scale(1 1) rotate(0) translate(4 415)">
<title>HoTT_Modalities_Nullification</title>
<polygon fill="#ffffff" stroke="transparent" points="-4,4 -4,-415 826,-415 826,4 -4,4"/>
<g id="clust1" class="cluster">
<title>cluster_Nullification</title>
<polygon fill="#ffffc3" stroke="#000000" points="16.039,-8 16.039,-403 805.961,-403 805.961,-8 16.039,-8"/>
<text text-anchor="middle" x="69.039" y="-387.8" font-family="Times,serif" font-size="14.00" fill="#000000">Nullification</text>
</g>
<!-- Nullification_O_eq_lift_accmodality -->
<g id="node1" class="node">
<title>Nullification_O_eq_lift_accmodality</title>
<g id="a_node1"><a xlink:href="Nullification.html#O_eq_lift_accmodality" xlink:title="O_eq_lift_accmodality">
<ellipse fill="#f070d1" stroke="#000000" cx="545.6683" cy="-346" rx="114.287" ry="18"/>
<ellipse fill="none" stroke="#000000" cx="545.6683" cy="-346" rx="118.2834" ry="22"/>
<ellipse fill="none" stroke="#000000" cx="545.6683" cy="-346" rx="122.2798" ry="26"/>
<text text-anchor="middle" x="545.6683" y="-342.3" font-family="Times,serif" font-size="14.00" fill="#000000">O_eq_lift_accmodality</text>
</a>
</g>
</g>
<!-- Nullification_lift_accmodality -->
<g id="node2" class="node">
<title>Nullification_lift_accmodality</title>
<g id="a_node2"><a xlink:href="Nullification.html#lift_accmodality" xlink:title="lift_accmodality">
<ellipse fill="#f070d1" stroke="#000000" cx="619.6683" cy="-258" rx="85.2851" ry="18"/>
<text text-anchor="middle" x="619.6683" y="-254.3" font-family="Times,serif" font-size="14.00" fill="#000000">lift_accmodality</text>
</a>
</g>
</g>
<!-- Nullification_O_eq_lift_accmodality&#45;&gt;Nullification_lift_accmodality -->
<g id="edge1" class="edge">
<title>Nullification_O_eq_lift_accmodality&#45;&gt;Nullification_lift_accmodality</title>
<path fill="none" stroke="#000000" d="M567.4705,-320.0731C577.0763,-308.65 588.3362,-295.2598 597.9341,-283.8461"/>
<polygon fill="#000000" stroke="#000000" points="600.8245,-285.847 604.5818,-275.9407 595.467,-281.3418 600.8245,-285.847"/>
</g>
<!-- Nullification_Nul -->
<g id="node4" class="node">
<title>Nullification_Nul</title>
<g id="a_node4"><a xlink:href="Nullification.html#Nul" xlink:title="Nul">
<ellipse fill="#f070d1" stroke="#000000" cx="410.6683" cy="-178" rx="27.8951" ry="18"/>
<text text-anchor="middle" x="410.6683" y="-174.3" font-family="Times,serif" font-size="14.00" fill="#000000">Nul</text>
</a>
</g>
</g>
<!-- Nullification_lift_accmodality&#45;&gt;Nullification_Nul -->
<g id="edge2" class="edge">
<title>Nullification_lift_accmodality&#45;&gt;Nullification_Nul</title>
<path fill="none" stroke="#000000" d="M578.3766,-242.1946C539.2304,-227.2104 481.1285,-204.9704 444.6065,-190.9907"/>
<polygon fill="#000000" stroke="#000000" points="445.5018,-187.5858 434.9114,-187.2796 442.9994,-194.1232 445.5018,-187.5858"/>
</g>
<!-- Nullification_accmodality_nul -->
<g id="node3" class="node">
<title>Nullification_accmodality_nul</title>
<g id="a_node3"><a xlink:href="Nullification.html#accmodality_nul" xlink:title="accmodality_nul">
<ellipse fill="#f070d1" stroke="#000000" cx="222.6683" cy="-258" rx="87.1769" ry="18"/>
<ellipse fill="none" stroke="#000000" cx="222.6683" cy="-258" rx="91.1807" ry="22"/>
<ellipse fill="none" stroke="#000000" cx="222.6683" cy="-258" rx="95.1846" ry="26"/>
<text text-anchor="middle" x="222.6683" y="-254.3" font-family="Times,serif" font-size="14.00" fill="#000000">accmodality_nul</text>
</a>
</g>
</g>
<!-- Nullification_accmodality_nul&#45;&gt;Nullification_Nul -->
<g id="edge3" class="edge">
<title>Nullification_accmodality_nul&#45;&gt;Nullification_Nul</title>
<path fill="none" stroke="#000000" d="M274.5378,-235.9279C307.399,-221.9444 348.9214,-204.2753 377.416,-192.1499"/>
<polygon fill="#000000" stroke="#000000" points="379.0849,-195.2435 386.916,-188.1073 376.344,-188.8024 379.0849,-195.2435"/>
</g>
<!-- Nullification_ooextendable_over_unit -->
<g id="node5" class="node">
<title>Nullification_ooextendable_over_unit</title>
<g id="a_node5"><a xlink:href="Nullification.html#ooextendable_over_unit" xlink:title="ooextendable_over_unit">
<ellipse fill="#f070d1" stroke="#000000" cx="410.6683" cy="-106" rx="121.5784" ry="18"/>
<text text-anchor="middle" x="410.6683" y="-102.3" font-family="Times,serif" font-size="14.00" fill="#000000">ooextendable_over_unit</text>
</a>
</g>
</g>
<!-- Nullification_Nul&#45;&gt;Nullification_ooextendable_over_unit -->
<g id="edge4" class="edge">
<title>Nullification_Nul&#45;&gt;Nullification_ooextendable_over_unit</title>
<path fill="none" stroke="#000000" d="M410.6683,-159.8314C410.6683,-152.131 410.6683,-142.9743 410.6683,-134.4166"/>
<polygon fill="#000000" stroke="#000000" points="414.1684,-134.4132 410.6683,-124.4133 407.1684,-134.4133 414.1684,-134.4132"/>
</g>
<!-- Nullification_extendable_over_unit -->
<g id="node6" class="node">
<title>Nullification_extendable_over_unit</title>
<g id="a_node6"><a xlink:href="Nullification.html#extendable_over_unit" xlink:title="extendable_over_unit">
<ellipse fill="#f070d1" stroke="#000000" cx="410.6683" cy="-34" rx="110.4804" ry="18"/>
<text text-anchor="middle" x="410.6683" y="-30.3" font-family="Times,serif" font-size="14.00" fill="#000000">extendable_over_unit</text>
</a>
</g>
</g>
<!-- Nullification_ooextendable_over_unit&#45;&gt;Nullification_extendable_over_unit -->
<g id="edge5" class="edge">
<title>Nullification_ooextendable_over_unit&#45;&gt;Nullification_extendable_over_unit</title>
<path fill="none" stroke="#000000" d="M410.6683,-87.8314C410.6683,-80.131 410.6683,-70.9743 410.6683,-62.4166"/>
<polygon fill="#000000" stroke="#000000" points="414.1684,-62.4132 410.6683,-52.4133 407.1684,-62.4133 414.1684,-62.4132"/>
</g>
</g>
</svg>
