<?xml version="1.0" encoding="UTF-8" standalone="no"?>
<!DOCTYPE svg PUBLIC "-//W3C//DTD SVG 1.1//EN"
 "http://www.w3.org/Graphics/SVG/1.1/DTD/svg11.dtd">
<!-- Generated by graphviz version 2.40.1 (20161225.0304)
 -->
<!-- Title: HoTT_Homotopy_EMSpace Pages: 1 -->
<svg width="1150pt" height="579pt"
 viewBox="0.00 0.00 1150.00 579.00" xmlns="http://www.w3.org/2000/svg" xmlns:xlink="http://www.w3.org/1999/xlink">
<g id="graph0" class="graph" transform="scale(1 1) rotate(0) translate(4 575)">
<title>HoTT_Homotopy_EMSpace</title>
<polygon fill="#ffffff" stroke="transparent" points="-4,4 -4,-575 1146,-575 1146,4 -4,4"/>
<g id="clust1" class="cluster">
<title>cluster_EMSpace</title>
<polygon fill="#ffffc3" stroke="#000000" points="8.8699,-8 8.8699,-563 1133.1301,-563 1133.1301,-8 8.8699,-8"/>
<text text-anchor="middle" x="51.3699" y="-547.8" font-family="Times,serif" font-size="14.00" fill="#000000">EMSpace</text>
</g>
<!-- EMSpace_equiv_g_pi_n_em -->
<g id="node1" class="node">
<title>EMSpace_equiv_g_pi_n_em</title>
<g id="a_node1"><a xlink:href="EMSpace.html#equiv_g_pi_n_em" xlink:title="equiv_g_pi_n_em">
<ellipse fill="#f070d1" stroke="#000000" cx="755.4835" cy="-506" rx="90.1971" ry="18"/>
<ellipse fill="none" stroke="#000000" cx="755.4835" cy="-506" rx="94.1906" ry="22"/>
<ellipse fill="none" stroke="#000000" cx="755.4835" cy="-506" rx="98.1842" ry="26"/>
<text text-anchor="middle" x="755.4835" y="-502.3" font-family="Times,serif" font-size="14.00" fill="#000000">equiv_g_pi_n_em</text>
</a>
</g>
</g>
<!-- EMSpace_pequiv_loops_em_em -->
<g id="node3" class="node">
<title>EMSpace_pequiv_loops_em_em</title>
<g id="a_node3"><a xlink:href="EMSpace.html#pequiv_loops_em_em" xlink:title="pequiv_loops_em_em">
<ellipse fill="#f070d1" stroke="#000000" cx="630.4835" cy="-426" rx="109.381" ry="18"/>
<text text-anchor="middle" x="630.4835" y="-422.3" font-family="Times,serif" font-size="14.00" fill="#000000">pequiv_loops_em_em</text>
</a>
</g>
</g>
<!-- EMSpace_equiv_g_pi_n_em&#45;&gt;EMSpace_pequiv_loops_em_em -->
<g id="edge1" class="edge">
<title>EMSpace_equiv_g_pi_n_em&#45;&gt;EMSpace_pequiv_loops_em_em</title>
<path fill="none" stroke="#000000" d="M717.6402,-481.7803C701.3915,-471.3811 682.495,-459.2873 666.4588,-449.0242"/>
<polygon fill="#000000" stroke="#000000" points="668.1885,-445.9758 657.879,-443.5332 664.4151,-451.8717 668.1885,-445.9758"/>
</g>
<!-- EMSpace_pequiv_loops_em_g -->
<g id="node2" class="node">
<title>EMSpace_pequiv_loops_em_g</title>
<g id="a_node2"><a xlink:href="EMSpace.html#pequiv_loops_em_g" xlink:title="pequiv_loops_em_g">
<ellipse fill="#f070d1" stroke="#000000" cx="505.4835" cy="-506" rx="100.9649" ry="18"/>
<ellipse fill="none" stroke="#000000" cx="505.4835" cy="-506" rx="104.9738" ry="22"/>
<ellipse fill="none" stroke="#000000" cx="505.4835" cy="-506" rx="108.9827" ry="26"/>
<text text-anchor="middle" x="505.4835" y="-502.3" font-family="Times,serif" font-size="14.00" fill="#000000">pequiv_loops_em_g</text>
</a>
</g>
</g>
<!-- EMSpace_pequiv_loops_em_g&#45;&gt;EMSpace_pequiv_loops_em_em -->
<g id="edge2" class="edge">
<title>EMSpace_pequiv_loops_em_g&#45;&gt;EMSpace_pequiv_loops_em_em</title>
<path fill="none" stroke="#000000" d="M543.6668,-481.5627C559.902,-471.1722 578.7306,-459.1218 594.6952,-448.9045"/>
<polygon fill="#000000" stroke="#000000" points="596.6991,-451.7775 603.2351,-443.439 592.9257,-445.8816 596.6991,-451.7775"/>
</g>
<!-- EMSpace_pequiv_ptr_loop_psusp_ -->
<g id="node4" class="node">
<title>EMSpace_pequiv_ptr_loop_psusp_</title>
<g id="a_node4"><a xlink:href="EMSpace.html#pequiv_ptr_loop_psusp'" xlink:title="pequiv_ptr_loop_psusp&#39;">
<ellipse fill="#f070d1" stroke="#000000" cx="205.4835" cy="-346" rx="120.4791" ry="18"/>
<text text-anchor="middle" x="205.4835" y="-342.3" font-family="Times,serif" font-size="14.00" fill="#000000">pequiv_ptr_loop_psusp&#39;</text>
</a>
</g>
</g>
<!-- EMSpace_pequiv_loops_em_em&#45;&gt;EMSpace_pequiv_ptr_loop_psusp_ -->
<g id="edge3" class="edge">
<title>EMSpace_pequiv_loops_em_em&#45;&gt;EMSpace_pequiv_ptr_loop_psusp_</title>
<path fill="none" stroke="#000000" d="M558.388,-412.4291C484.2362,-398.4711 368.7983,-376.7416 290.302,-361.9658"/>
<polygon fill="#000000" stroke="#000000" points="290.9139,-358.5196 280.439,-360.1093 289.6189,-365.3988 290.9139,-358.5196"/>
</g>
<!-- EMSpace_isconnected_em -->
<g id="node5" class="node">
<title>EMSpace_isconnected_em</title>
<g id="a_node5"><a xlink:href="EMSpace.html#isconnected_em" xlink:title="isconnected_em">
<ellipse fill="#f070d1" stroke="#000000" cx="630.4835" cy="-346" rx="85.5853" ry="18"/>
<text text-anchor="middle" x="630.4835" y="-342.3" font-family="Times,serif" font-size="14.00" fill="#000000">isconnected_em</text>
</a>
</g>
</g>
<!-- EMSpace_pequiv_loops_em_em&#45;&gt;EMSpace_isconnected_em -->
<g id="edge4" class="edge">
<title>EMSpace_pequiv_loops_em_em&#45;&gt;EMSpace_isconnected_em</title>
<path fill="none" stroke="#000000" d="M630.4835,-407.8468C630.4835,-397.9251 630.4835,-385.4167 630.4835,-374.2492"/>
<polygon fill="#000000" stroke="#000000" points="633.9836,-374.0814 630.4835,-364.0814 626.9836,-374.0814 633.9836,-374.0814"/>
</g>
<!-- EMSpace_licata_finster -->
<g id="node8" class="node">
<title>EMSpace_licata_finster</title>
<g id="a_node8"><a xlink:href="EMSpace.html#licata_finster" xlink:title="licata_finster">
<ellipse fill="#f070d1" stroke="#000000" cx="826.4835" cy="-346" rx="72.2875" ry="18"/>
<text text-anchor="middle" x="826.4835" y="-342.3" font-family="Times,serif" font-size="14.00" fill="#000000">licata_finster</text>
</a>
</g>
</g>
<!-- EMSpace_pequiv_loops_em_em&#45;&gt;EMSpace_licata_finster -->
<g id="edge5" class="edge">
<title>EMSpace_pequiv_loops_em_em&#45;&gt;EMSpace_licata_finster</title>
<path fill="none" stroke="#000000" d="M671.5715,-409.2294C703.0392,-396.3854 746.4873,-378.6515 779.3637,-365.2326"/>
<polygon fill="#000000" stroke="#000000" points="780.8331,-368.4132 788.7689,-361.3937 778.1877,-361.9323 780.8331,-368.4132"/>
</g>
<!-- EMSpace_EilenbergMacLane -->
<g id="node7" class="node">
<title>EMSpace_EilenbergMacLane</title>
<g id="a_node7"><a xlink:href="EMSpace.html#EilenbergMacLane" xlink:title="EilenbergMacLane">
<ellipse fill="#f070d1" stroke="#000000" cx="481.4835" cy="-266" rx="98.5829" ry="18"/>
<text text-anchor="middle" x="481.4835" y="-262.3" font-family="Times,serif" font-size="14.00" fill="#000000">EilenbergMacLane</text>
</a>
</g>
</g>
<!-- EMSpace_isconnected_em&#45;&gt;EMSpace_EilenbergMacLane -->
<g id="edge6" class="edge">
<title>EMSpace_isconnected_em&#45;&gt;EMSpace_EilenbergMacLane</title>
<path fill="none" stroke="#000000" d="M599.2482,-329.2294C576.9261,-317.2443 546.6737,-301.0015 522.4208,-287.9798"/>
<polygon fill="#000000" stroke="#000000" points="523.9145,-284.8092 513.4484,-283.1624 520.6032,-290.9765 523.9145,-284.8092"/>
</g>
<!-- EMSpace_istrunc_em -->
<g id="node6" class="node">
<title>EMSpace_istrunc_em</title>
<g id="a_node6"><a xlink:href="EMSpace.html#istrunc_em" xlink:title="istrunc_em">
<ellipse fill="#f070d1" stroke="#000000" cx="436.4835" cy="-346" rx="63.0838" ry="18"/>
<ellipse fill="none" stroke="#000000" cx="436.4835" cy="-346" rx="67.0863" ry="22"/>
<ellipse fill="none" stroke="#000000" cx="436.4835" cy="-346" rx="71.0888" ry="26"/>
<text text-anchor="middle" x="436.4835" y="-342.3" font-family="Times,serif" font-size="14.00" fill="#000000">istrunc_em</text>
</a>
</g>
</g>
<!-- EMSpace_istrunc_em&#45;&gt;EMSpace_EilenbergMacLane -->
<g id="edge7" class="edge">
<title>EMSpace_istrunc_em&#45;&gt;EMSpace_EilenbergMacLane</title>
<path fill="none" stroke="#000000" d="M450.9695,-320.2471C455.8512,-311.5685 461.3119,-301.8607 466.2495,-293.0826"/>
<polygon fill="#000000" stroke="#000000" points="469.3074,-294.7853 471.1596,-284.3536 463.2064,-291.3535 469.3074,-294.7853"/>
</g>
<!-- EMSpace_decode_encode -->
<g id="node9" class="node">
<title>EMSpace_decode_encode</title>
<g id="a_node9"><a xlink:href="EMSpace.html#decode_encode" xlink:title="decode_encode">
<ellipse fill="#f070d1" stroke="#000000" cx="747.4835" cy="-266" rx="81.7856" ry="18"/>
<text text-anchor="middle" x="747.4835" y="-262.3" font-family="Times,serif" font-size="14.00" fill="#000000">decode_encode</text>
</a>
</g>
</g>
<!-- EMSpace_licata_finster&#45;&gt;EMSpace_decode_encode -->
<g id="edge8" class="edge">
<title>EMSpace_licata_finster&#45;&gt;EMSpace_decode_encode</title>
<path fill="none" stroke="#000000" d="M808.9508,-328.2454C798.1093,-317.2667 784.0305,-303.0096 772.0828,-290.9107"/>
<polygon fill="#000000" stroke="#000000" points="774.484,-288.3611 764.9671,-283.705 769.5032,-293.2797 774.484,-288.3611"/>
</g>
<!-- EMSpace_encode_North_decode_ -->
<g id="node12" class="node">
<title>EMSpace_encode_North_decode_</title>
<g id="a_node12"><a xlink:href="EMSpace.html#encode_North_decode'" xlink:title="encode_North_decode&#39;">
<ellipse fill="#f070d1" stroke="#000000" cx="898.4835" cy="-194" rx="116.9792" ry="18"/>
<text text-anchor="middle" x="898.4835" y="-190.3" font-family="Times,serif" font-size="14.00" fill="#000000">encode_North_decode&#39;</text>
</a>
</g>
</g>
<!-- EMSpace_licata_finster&#45;&gt;EMSpace_encode_North_decode_ -->
<g id="edge9" class="edge">
<title>EMSpace_licata_finster&#45;&gt;EMSpace_encode_North_decode_</title>
<path fill="none" stroke="#000000" d="M835.0256,-327.9667C847.5294,-301.5698 870.9137,-252.203 885.5373,-221.3308"/>
<polygon fill="#000000" stroke="#000000" points="888.8347,-222.5455 889.9525,-212.0098 882.5085,-219.5489 888.8347,-222.5455"/>
</g>
<!-- EMSpace_decode -->
<g id="node10" class="node">
<title>EMSpace_decode</title>
<g id="a_node10"><a xlink:href="EMSpace.html#decode" xlink:title="decode">
<ellipse fill="#f070d1" stroke="#000000" cx="486.4835" cy="-194" rx="44.393" ry="18"/>
<text text-anchor="middle" x="486.4835" y="-190.3" font-family="Times,serif" font-size="14.00" fill="#000000">decode</text>
</a>
</g>
</g>
<!-- EMSpace_decode_encode&#45;&gt;EMSpace_decode -->
<g id="edge10" class="edge">
<title>EMSpace_decode_encode&#45;&gt;EMSpace_decode</title>
<path fill="none" stroke="#000000" d="M696.2297,-251.861C648.7898,-238.7741 578.8636,-219.4842 532.9992,-206.8319"/>
<polygon fill="#000000" stroke="#000000" points="533.881,-203.4445 523.3103,-204.1591 532.0195,-210.1925 533.881,-203.4445"/>
</g>
<!-- EMSpace_encode -->
<g id="node15" class="node">
<title>EMSpace_encode</title>
<g id="a_node15"><a xlink:href="EMSpace.html#encode" xlink:title="encode">
<ellipse fill="#f070d1" stroke="#000000" cx="822.4835" cy="-114" rx="44.393" ry="18"/>
<text text-anchor="middle" x="822.4835" y="-110.3" font-family="Times,serif" font-size="14.00" fill="#000000">encode</text>
</a>
</g>
</g>
<!-- EMSpace_decode_encode&#45;&gt;EMSpace_encode -->
<g id="edge11" class="edge">
<title>EMSpace_decode_encode&#45;&gt;EMSpace_encode</title>
<path fill="none" stroke="#000000" d="M750.2623,-247.9586C753.6523,-229.1992 760.4734,-199.3649 772.4835,-176 779.385,-162.5736 789.4932,-149.3233 798.8181,-138.5405"/>
<polygon fill="#000000" stroke="#000000" points="801.6714,-140.6005 805.7301,-130.8138 796.4542,-135.9334 801.6714,-140.6005"/>
</g>
<!-- EMSpace_merid_mu -->
<g id="node11" class="node">
<title>EMSpace_merid_mu</title>
<g id="a_node11"><a xlink:href="EMSpace.html#merid_mu" xlink:title="merid_mu">
<ellipse fill="#f070d1" stroke="#000000" cx="82.4835" cy="-114" rx="57.6901" ry="18"/>
<text text-anchor="middle" x="82.4835" y="-110.3" font-family="Times,serif" font-size="14.00" fill="#000000">merid_mu</text>
</a>
</g>
</g>
<!-- EMSpace_decode&#45;&gt;EMSpace_merid_mu -->
<g id="edge12" class="edge">
<title>EMSpace_decode&#45;&gt;EMSpace_merid_mu</title>
<path fill="none" stroke="#000000" d="M444.2538,-188.4014C383.3541,-179.9626 267.5242,-162.544 170.4835,-140 158.1168,-137.127 144.9215,-133.5231 132.6119,-129.9217"/>
<polygon fill="#000000" stroke="#000000" points="133.5456,-126.5479 122.9625,-127.048 131.5476,-133.2567 133.5456,-126.5479"/>
</g>
<!-- EMSpace_transport_decode_ -->
<g id="node13" class="node">
<title>EMSpace_transport_decode_</title>
<g id="a_node13"><a xlink:href="EMSpace.html#transport_decode'" xlink:title="transport_decode&#39;">
<ellipse fill="#f070d1" stroke="#000000" cx="996.4835" cy="-114" rx="94.7833" ry="18"/>
<text text-anchor="middle" x="996.4835" y="-110.3" font-family="Times,serif" font-size="14.00" fill="#000000">transport_decode&#39;</text>
</a>
</g>
</g>
<!-- EMSpace_decode&#45;&gt;EMSpace_transport_decode_ -->
<g id="edge13" class="edge">
<title>EMSpace_decode&#45;&gt;EMSpace_transport_decode_</title>
<path fill="none" stroke="#000000" d="M529.2404,-189.1107C601.0357,-180.667 750.2611,-162.1142 875.4835,-140 891.8669,-137.1067 909.4089,-133.5851 925.91,-130.0799"/>
<polygon fill="#000000" stroke="#000000" points="926.9885,-133.4282 936.03,-127.9054 925.5179,-126.5844 926.9885,-133.4282"/>
</g>
<!-- EMSpace_transport_codes_merid -->
<g id="node17" class="node">
<title>EMSpace_transport_codes_merid</title>
<g id="a_node17"><a xlink:href="EMSpace.html#transport_codes_merid" xlink:title="transport_codes_merid">
<ellipse fill="#f070d1" stroke="#000000" cx="297.4835" cy="-114" rx="118.0794" ry="18"/>
<text text-anchor="middle" x="297.4835" y="-110.3" font-family="Times,serif" font-size="14.00" fill="#000000">transport_codes_merid</text>
</a>
</g>
</g>
<!-- EMSpace_decode&#45;&gt;EMSpace_transport_codes_merid -->
<g id="edge14" class="edge">
<title>EMSpace_decode&#45;&gt;EMSpace_transport_codes_merid</title>
<path fill="none" stroke="#000000" d="M455.6967,-180.9686C426.3441,-168.5442 381.6406,-149.6221 347.2306,-135.057"/>
<polygon fill="#000000" stroke="#000000" points="348.3929,-131.7484 337.8195,-131.0735 345.6642,-138.1947 348.3929,-131.7484"/>
</g>
<!-- EMSpace_decode_ -->
<g id="node14" class="node">
<title>EMSpace_decode_</title>
<g id="a_node14"><a xlink:href="EMSpace.html#decode'" xlink:title="decode&#39;">
<ellipse fill="#f070d1" stroke="#000000" cx="1034.4835" cy="-34" rx="46.2923" ry="18"/>
<text text-anchor="middle" x="1034.4835" y="-30.3" font-family="Times,serif" font-size="14.00" fill="#000000">decode&#39;</text>
</a>
</g>
</g>
<!-- EMSpace_encode_North_decode_&#45;&gt;EMSpace_decode_ -->
<g id="edge15" class="edge">
<title>EMSpace_encode_North_decode_&#45;&gt;EMSpace_decode_</title>
<path fill="none" stroke="#000000" d="M984.2074,-181.6913C1032.4414,-172.8186 1085.8653,-159.0394 1100.4835,-140 1114.558,-121.6688 1110.3804,-108.8848 1100.4835,-88 1094.0554,-74.4352 1082.3663,-63.1448 1070.5918,-54.455"/>
<polygon fill="#000000" stroke="#000000" points="1072.2982,-51.3805 1062.077,-48.5917 1068.3282,-57.1459 1072.2982,-51.3805"/>
</g>
<!-- EMSpace_encode_North_decode_&#45;&gt;EMSpace_encode -->
<g id="edge16" class="edge">
<title>EMSpace_encode_North_decode_&#45;&gt;EMSpace_encode</title>
<path fill="none" stroke="#000000" d="M881.2379,-175.8468C870.7476,-164.8043 857.2132,-150.5576 845.779,-138.5216"/>
<polygon fill="#000000" stroke="#000000" points="848.0465,-135.8267 838.6215,-130.9874 842.9715,-140.648 848.0465,-135.8267"/>
</g>
<!-- EMSpace_transport_decode_&#45;&gt;EMSpace_decode_ -->
<g id="edge17" class="edge">
<title>EMSpace_transport_decode_&#45;&gt;EMSpace_decode_</title>
<path fill="none" stroke="#000000" d="M1005.1063,-95.8468C1009.999,-85.5462 1016.2162,-72.4575 1021.6699,-60.9759"/>
<polygon fill="#000000" stroke="#000000" points="1024.8966,-62.3403 1026.0257,-51.8058 1018.5736,-59.3369 1024.8966,-62.3403"/>
</g>
<!-- EMSpace_P -->
<g id="node19" class="node">
<title>EMSpace_P</title>
<g id="a_node19"><a xlink:href="EMSpace.html#P" xlink:title="P">
<ellipse fill="#f070d1" stroke="#000000" cx="859.4835" cy="-34" rx="27" ry="18"/>
<text text-anchor="middle" x="859.4835" y="-30.3" font-family="Times,serif" font-size="14.00" fill="#000000">P</text>
</a>
</g>
</g>
<!-- EMSpace_transport_decode_&#45;&gt;EMSpace_P -->
<g id="edge18" class="edge">
<title>EMSpace_transport_decode_&#45;&gt;EMSpace_P</title>
<path fill="none" stroke="#000000" d="M967.0936,-96.838C943.9108,-83.3006 911.7401,-64.5148 888.6225,-51.0155"/>
<polygon fill="#000000" stroke="#000000" points="890.3376,-47.964 879.9371,-45.9437 886.8077,-54.0088 890.3376,-47.964"/>
</g>
<!-- EMSpace_codes -->
<g id="node18" class="node">
<title>EMSpace_codes</title>
<g id="a_node18"><a xlink:href="EMSpace.html#codes" xlink:title="codes">
<ellipse fill="#f070d1" stroke="#000000" cx="600.4835" cy="-34" rx="37.8943" ry="18"/>
<text text-anchor="middle" x="600.4835" y="-30.3" font-family="Times,serif" font-size="14.00" fill="#000000">codes</text>
</a>
</g>
</g>
<!-- EMSpace_encode&#45;&gt;EMSpace_codes -->
<g id="edge19" class="edge">
<title>EMSpace_encode&#45;&gt;EMSpace_codes</title>
<path fill="none" stroke="#000000" d="M789.2479,-102.0232C749.4108,-87.6675 682.7184,-63.6342 640.2039,-48.3137"/>
<polygon fill="#000000" stroke="#000000" points="641.3275,-44.9983 630.7331,-44.9008 638.9543,-51.5838 641.3275,-44.9983"/>
</g>
<!-- EMSpace_encode&#45;&gt;EMSpace_P -->
<g id="edge20" class="edge">
<title>EMSpace_encode&#45;&gt;EMSpace_P</title>
<path fill="none" stroke="#000000" d="M830.695,-96.2454C835.5185,-85.8162 841.7103,-72.4286 847.1149,-60.743"/>
<polygon fill="#000000" stroke="#000000" points="850.4011,-61.9752 851.4223,-51.4297 844.0477,-59.0368 850.4011,-61.9752"/>
</g>
<!-- EMSpace_transport_codes_merid_V -->
<g id="node16" class="node">
<title>EMSpace_transport_codes_merid_V</title>
<g id="a_node16"><a xlink:href="EMSpace.html#transport_codes_merid_V" xlink:title="transport_codes_merid_V">
<ellipse fill="#f070d1" stroke="#000000" cx="600.4835" cy="-114" rx="129.9776" ry="18"/>
<ellipse fill="none" stroke="#000000" cx="600.4835" cy="-114" rx="133.9773" ry="22"/>
<ellipse fill="none" stroke="#000000" cx="600.4835" cy="-114" rx="137.9769" ry="26"/>
<text text-anchor="middle" x="600.4835" y="-110.3" font-family="Times,serif" font-size="14.00" fill="#000000">transport_codes_merid_V</text>
</a>
</g>
</g>
<!-- EMSpace_transport_codes_merid_V&#45;&gt;EMSpace_codes -->
<g id="edge21" class="edge">
<title>EMSpace_transport_codes_merid_V&#45;&gt;EMSpace_codes</title>
<path fill="none" stroke="#000000" d="M600.4835,-87.805C600.4835,-79.6026 600.4835,-70.5174 600.4835,-62.1839"/>
<polygon fill="#000000" stroke="#000000" points="603.9836,-62.1532 600.4835,-52.1532 596.9836,-62.1533 603.9836,-62.1532"/>
</g>
<!-- EMSpace_transport_codes_merid&#45;&gt;EMSpace_codes -->
<g id="edge22" class="edge">
<title>EMSpace_transport_codes_merid&#45;&gt;EMSpace_codes</title>
<path fill="none" stroke="#000000" d="M356.6242,-98.3853C415.6798,-82.7931 505.0125,-59.2069 557.5789,-45.3279"/>
<polygon fill="#000000" stroke="#000000" points="558.4913,-48.7071 567.2664,-42.7702 556.7042,-41.939 558.4913,-48.7071"/>
</g>
</g>
</svg>
