<?xml version="1.0" encoding="UTF-8" standalone="no"?>
<!DOCTYPE svg PUBLIC "-//W3C//DTD SVG 1.1//EN"
 "http://www.w3.org/Graphics/SVG/1.1/DTD/svg11.dtd">
<!-- Generated by graphviz version 2.40.1 (20161225.0304)
 -->
<!-- Title: HoTT_BoundedSearch Pages: 1 -->
<svg width="1262pt" height="635pt"
 viewBox="0.00 0.00 1262.00 635.00" xmlns="http://www.w3.org/2000/svg" xmlns:xlink="http://www.w3.org/1999/xlink">
<g id="graph0" class="graph" transform="scale(1 1) rotate(0) translate(4 631)">
<title>HoTT_BoundedSearch</title>
<polygon fill="#ffffff" stroke="transparent" points="-4,4 -4,-631 1258,-631 1258,4 -4,4"/>
<g id="clust1" class="cluster">
<title>cluster_BoundedSearch</title>
<polygon fill="#ffffc3" stroke="#000000" points="28.0223,-8 28.0223,-619 1225.9777,-619 1225.9777,-8 28.0223,-8"/>
<text text-anchor="middle" x="93.0223" y="-603.8" font-family="Times,serif" font-size="14.00" fill="#000000">BoundedSearch</text>
</g>
<!-- BoundedSearch_minimal_n_alt_type -->
<g id="node1" class="node">
<title>BoundedSearch_minimal_n_alt_type</title>
<g id="a_node1"><a xlink:href="BoundedSearch.html#minimal_n_alt_type" xlink:title="minimal_n_alt_type">
<ellipse fill="#f070d1" stroke="#000000" cx="627.2067" cy="-562" rx="101.2901" ry="18"/>
<ellipse fill="none" stroke="#000000" cx="627.2067" cy="-562" rx="105.2861" ry="22"/>
<ellipse fill="none" stroke="#000000" cx="627.2067" cy="-562" rx="109.2821" ry="26"/>
<text text-anchor="middle" x="627.2067" y="-558.3" font-family="Times,serif" font-size="14.00" fill="#000000">minimal_n_alt_type</text>
</a>
</g>
</g>
<!-- BoundedSearch_minimal_n -->
<g id="node2" class="node">
<title>BoundedSearch_minimal_n</title>
<g id="a_node2"><a xlink:href="BoundedSearch.html#minimal_n" xlink:title="minimal_n">
<ellipse fill="#f070d1" stroke="#000000" cx="627.2067" cy="-482" rx="59.2899" ry="18"/>
<text text-anchor="middle" x="627.2067" y="-478.3" font-family="Times,serif" font-size="14.00" fill="#000000">minimal_n</text>
</a>
</g>
</g>
<!-- BoundedSearch_minimal_n_alt_type&#45;&gt;BoundedSearch_minimal_n -->
<g id="edge1" class="edge">
<title>BoundedSearch_minimal_n_alt_type&#45;&gt;BoundedSearch_minimal_n</title>
<path fill="none" stroke="#000000" d="M627.2067,-535.805C627.2067,-527.6026 627.2067,-518.5174 627.2067,-510.1839"/>
<polygon fill="#000000" stroke="#000000" points="630.7068,-510.1532 627.2067,-500.1532 623.7068,-510.1533 630.7068,-510.1532"/>
</g>
<!-- BoundedSearch_prop_n_to_min_n -->
<g id="node3" class="node">
<title>BoundedSearch_prop_n_to_min_n</title>
<g id="a_node3"><a xlink:href="BoundedSearch.html#prop_n_to_min_n" xlink:title="prop_n_to_min_n">
<ellipse fill="#f070d1" stroke="#000000" cx="627.2067" cy="-410" rx="90.1842" ry="18"/>
<text text-anchor="middle" x="627.2067" y="-406.3" font-family="Times,serif" font-size="14.00" fill="#000000">prop_n_to_min_n</text>
</a>
</g>
</g>
<!-- BoundedSearch_minimal_n&#45;&gt;BoundedSearch_prop_n_to_min_n -->
<g id="edge2" class="edge">
<title>BoundedSearch_minimal_n&#45;&gt;BoundedSearch_prop_n_to_min_n</title>
<path fill="none" stroke="#000000" d="M627.2067,-463.8314C627.2067,-456.131 627.2067,-446.9743 627.2067,-438.4166"/>
<polygon fill="#000000" stroke="#000000" points="630.7068,-438.4132 627.2067,-428.4133 623.7068,-438.4133 630.7068,-438.4132"/>
</g>
<!-- BoundedSearch_n_to_min_n -->
<g id="node4" class="node">
<title>BoundedSearch_n_to_min_n</title>
<g id="a_node4"><a xlink:href="BoundedSearch.html#n_to_min_n" xlink:title="n_to_min_n">
<ellipse fill="#f070d1" stroke="#000000" cx="392.2067" cy="-338" rx="63.8893" ry="18"/>
<text text-anchor="middle" x="392.2067" y="-334.3" font-family="Times,serif" font-size="14.00" fill="#000000">n_to_min_n</text>
</a>
</g>
</g>
<!-- BoundedSearch_prop_n_to_min_n&#45;&gt;BoundedSearch_n_to_min_n -->
<g id="edge3" class="edge">
<title>BoundedSearch_prop_n_to_min_n&#45;&gt;BoundedSearch_n_to_min_n</title>
<path fill="none" stroke="#000000" d="M577.943,-394.9064C539.1078,-383.008 485.0536,-366.4467 445.2688,-354.2573"/>
<polygon fill="#000000" stroke="#000000" points="446.066,-350.841 435.4793,-351.258 444.0153,-357.5339 446.066,-350.841"/>
</g>
<!-- BoundedSearch_ishpropmin_n -->
<g id="node8" class="node">
<title>BoundedSearch_ishpropmin_n</title>
<g id="a_node8"><a xlink:href="BoundedSearch.html#ishpropmin_n" xlink:title="ishpropmin_n">
<ellipse fill="#f070d1" stroke="#000000" cx="939.2067" cy="-338" rx="74.187" ry="18"/>
<text text-anchor="middle" x="939.2067" y="-334.3" font-family="Times,serif" font-size="14.00" fill="#000000">ishpropmin_n</text>
</a>
</g>
</g>
<!-- BoundedSearch_prop_n_to_min_n&#45;&gt;BoundedSearch_ishpropmin_n -->
<g id="edge4" class="edge">
<title>BoundedSearch_prop_n_to_min_n&#45;&gt;BoundedSearch_ishpropmin_n</title>
<path fill="none" stroke="#000000" d="M686.2583,-396.3727C740.2268,-383.9184 819.8427,-365.5455 875.2883,-352.7504"/>
<polygon fill="#000000" stroke="#000000" points="876.3914,-356.0879 885.3483,-350.4289 874.8173,-349.2672 876.3914,-356.0879"/>
</g>
<!-- BoundedSearch_bounded_search -->
<g id="node5" class="node">
<title>BoundedSearch_bounded_search</title>
<g id="a_node5"><a xlink:href="BoundedSearch.html#bounded_search" xlink:title="bounded_search">
<ellipse fill="#f070d1" stroke="#000000" cx="361.2067" cy="-266" rx="87.1846" ry="18"/>
<text text-anchor="middle" x="361.2067" y="-262.3" font-family="Times,serif" font-size="14.00" fill="#000000">bounded_search</text>
</a>
</g>
</g>
<!-- BoundedSearch_n_to_min_n&#45;&gt;BoundedSearch_bounded_search -->
<g id="edge5" class="edge">
<title>BoundedSearch_n_to_min_n&#45;&gt;BoundedSearch_bounded_search</title>
<path fill="none" stroke="#000000" d="M384.3841,-319.8314C380.9958,-311.9617 376.9526,-302.5712 373.1991,-293.8533"/>
<polygon fill="#000000" stroke="#000000" points="376.304,-292.214 369.1346,-284.4133 369.8746,-294.9822 376.304,-292.214"/>
</g>
<!-- BoundedSearch_min_n_Type -->
<g id="node9" class="node">
<title>BoundedSearch_min_n_Type</title>
<g id="a_node9"><a xlink:href="BoundedSearch.html#min_n_Type" xlink:title="min_n_Type">
<ellipse fill="#f070d1" stroke="#000000" cx="963.2067" cy="-266" rx="66.8882" ry="18"/>
<text text-anchor="middle" x="963.2067" y="-262.3" font-family="Times,serif" font-size="14.00" fill="#000000">min_n_Type</text>
</a>
</g>
</g>
<!-- BoundedSearch_n_to_min_n&#45;&gt;BoundedSearch_min_n_Type -->
<g id="edge6" class="edge">
<title>BoundedSearch_n_to_min_n&#45;&gt;BoundedSearch_min_n_Type</title>
<path fill="none" stroke="#000000" d="M450.6303,-330.6331C556.1653,-317.3257 778.1952,-289.3289 892.2597,-274.946"/>
<polygon fill="#000000" stroke="#000000" points="892.8027,-278.4054 902.2863,-273.6817 891.9269,-271.4604 892.8027,-278.4054"/>
</g>
<!-- BoundedSearch_smaller_S -->
<g id="node6" class="node">
<title>BoundedSearch_smaller_S</title>
<g id="a_node6"><a xlink:href="BoundedSearch.html#smaller_S" xlink:title="smaller_S">
<ellipse fill="#f070d1" stroke="#000000" cx="634.2067" cy="-194" rx="56.59" ry="18"/>
<text text-anchor="middle" x="634.2067" y="-190.3" font-family="Times,serif" font-size="14.00" fill="#000000">smaller_S</text>
</a>
</g>
</g>
<!-- BoundedSearch_bounded_search&#45;&gt;BoundedSearch_smaller_S -->
<g id="edge7" class="edge">
<title>BoundedSearch_bounded_search&#45;&gt;BoundedSearch_smaller_S</title>
<path fill="none" stroke="#000000" d="M415.1427,-251.7751C463.0167,-239.149 532.5948,-220.7987 580.4228,-208.1848"/>
<polygon fill="#000000" stroke="#000000" points="581.5062,-211.5188 590.283,-205.5843 579.721,-204.7502 581.5062,-211.5188"/>
</g>
<!-- BoundedSearch_smaller -->
<g id="node7" class="node">
<title>BoundedSearch_smaller</title>
<g id="a_node7"><a xlink:href="BoundedSearch.html#smaller" xlink:title="smaller">
<ellipse fill="#f070d1" stroke="#000000" cx="953.2067" cy="-114" rx="45.4919" ry="18"/>
<text text-anchor="middle" x="953.2067" y="-110.3" font-family="Times,serif" font-size="14.00" fill="#000000">smaller</text>
</a>
</g>
</g>
<!-- BoundedSearch_smaller_S&#45;&gt;BoundedSearch_smaller -->
<g id="edge8" class="edge">
<title>BoundedSearch_smaller_S&#45;&gt;BoundedSearch_smaller</title>
<path fill="none" stroke="#000000" d="M678.8982,-182.7921C738.3471,-167.8833 843.0629,-141.6223 904.4818,-126.2194"/>
<polygon fill="#000000" stroke="#000000" points="905.4734,-129.5792 914.3216,-123.7517 903.7706,-122.7895 905.4734,-129.5792"/>
</g>
<!-- BoundedSearch_minimal -->
<g id="node11" class="node">
<title>BoundedSearch_minimal</title>
<g id="a_node11"><a xlink:href="BoundedSearch.html#minimal" xlink:title="minimal">
<ellipse fill="#f070d1" stroke="#000000" cx="953.2067" cy="-34" rx="48.1917" ry="18"/>
<text text-anchor="middle" x="953.2067" y="-30.3" font-family="Times,serif" font-size="14.00" fill="#000000">minimal</text>
</a>
</g>
</g>
<!-- BoundedSearch_smaller&#45;&gt;BoundedSearch_minimal -->
<g id="edge9" class="edge">
<title>BoundedSearch_smaller&#45;&gt;BoundedSearch_minimal</title>
<path fill="none" stroke="#000000" d="M953.2067,-95.8468C953.2067,-85.9251 953.2067,-73.4167 953.2067,-62.2492"/>
<polygon fill="#000000" stroke="#000000" points="956.7068,-62.0814 953.2067,-52.0814 949.7068,-62.0814 956.7068,-62.0814"/>
</g>
<!-- BoundedSearch_ishpropmin_n&#45;&gt;BoundedSearch_min_n_Type -->
<g id="edge10" class="edge">
<title>BoundedSearch_ishpropmin_n&#45;&gt;BoundedSearch_min_n_Type</title>
<path fill="none" stroke="#000000" d="M945.2629,-319.8314C947.8579,-312.0463 950.9491,-302.7729 953.8285,-294.1347"/>
<polygon fill="#000000" stroke="#000000" points="957.227,-295.0069 957.0689,-284.4133 950.5862,-292.7933 957.227,-295.0069"/>
</g>
<!-- BoundedSearch_min_n_Type&#45;&gt;BoundedSearch_minimal -->
<g id="edge11" class="edge">
<title>BoundedSearch_min_n_Type&#45;&gt;BoundedSearch_minimal</title>
<path fill="none" stroke="#000000" d="M974.7761,-248.2653C994.5294,-215.6099 1030.4742,-144.1727 1007.2067,-88 1002.2519,-76.0381 993.2193,-65.3443 983.941,-56.6919"/>
<polygon fill="#000000" stroke="#000000" points="986.0115,-53.8537 976.1736,-49.921 981.4118,-59.1303 986.0115,-53.8537"/>
</g>
<!-- BoundedSearch_ishprop_minimal -->
<g id="node10" class="node">
<title>BoundedSearch_ishprop_minimal</title>
<g id="a_node10"><a xlink:href="BoundedSearch.html#ishprop_minimal" xlink:title="ishprop_minimal">
<ellipse fill="#f070d1" stroke="#000000" cx="392.2067" cy="-114" rx="88.2934" ry="18"/>
<ellipse fill="none" stroke="#000000" cx="392.2067" cy="-114" rx="92.2889" ry="22"/>
<ellipse fill="none" stroke="#000000" cx="392.2067" cy="-114" rx="96.2844" ry="26"/>
<text text-anchor="middle" x="392.2067" y="-110.3" font-family="Times,serif" font-size="14.00" fill="#000000">ishprop_minimal</text>
</a>
</g>
</g>
<!-- BoundedSearch_ishprop_minimal&#45;&gt;BoundedSearch_minimal -->
<g id="edge12" class="edge">
<title>BoundedSearch_ishprop_minimal&#45;&gt;BoundedSearch_minimal</title>
<path fill="none" stroke="#000000" d="M477.7157,-101.8062C594.2885,-85.1826 799.7905,-55.8775 897.9698,-41.8769"/>
<polygon fill="#000000" stroke="#000000" points="898.5756,-45.326 907.9813,-40.4493 897.5873,-38.3961 898.5756,-45.326"/>
</g>
</g>
</svg>
