<?xml version="1.0" encoding="UTF-8" standalone="no"?>
<!DOCTYPE svg PUBLIC "-//W3C//DTD SVG 1.1//EN"
 "http://www.w3.org/Graphics/SVG/1.1/DTD/svg11.dtd">
<!-- Generated by graphviz version 2.40.1 (20161225.0304)
 -->
<!-- Title: HoTT_Colimits_Colimit_Flattening Pages: 1 -->
<svg width="942pt" height="475pt"
 viewBox="0.00 0.00 942.00 475.00" xmlns="http://www.w3.org/2000/svg" xmlns:xlink="http://www.w3.org/1999/xlink">
<g id="graph0" class="graph" transform="scale(1 1) rotate(0) translate(4 471)">
<title>HoTT_Colimits_Colimit_Flattening</title>
<polygon fill="#ffffff" stroke="transparent" points="-4,4 -4,-471 938,-471 938,4 -4,4"/>
<g id="clust1" class="cluster">
<title>cluster_Colimit_Flattening</title>
<polygon fill="#ffffc3" stroke="#000000" points="22.8502,-8 22.8502,-459 911.1498,-459 911.1498,-8 22.8502,-8"/>
<text text-anchor="middle" x="98.3502" y="-443.8" font-family="Times,serif" font-size="14.00" fill="#000000">Colimit_Flattening</text>
</g>
<!-- Colimit_Flattening_flattening_lemma -->
<g id="node1" class="node">
<title>Colimit_Flattening_flattening_lemma</title>
<g id="a_node1"><a xlink:href="Colimit_Flattening.html#flattening_lemma" xlink:title="flattening_lemma">
<ellipse fill="#f070d1" stroke="#000000" cx="448.4709" cy="-402" rx="92.1006" ry="18"/>
<ellipse fill="none" stroke="#000000" cx="448.4709" cy="-402" rx="96.0923" ry="22"/>
<ellipse fill="none" stroke="#000000" cx="448.4709" cy="-402" rx="100.0841" ry="26"/>
<text text-anchor="middle" x="448.4709" y="-398.3" font-family="Times,serif" font-size="14.00" fill="#000000">flattening_lemma</text>
</a>
</g>
</g>
<!-- Colimit_Flattening_unicocone_cocone_E_ -->
<g id="node2" class="node">
<title>Colimit_Flattening_unicocone_cocone_E_</title>
<g id="a_node2"><a xlink:href="Colimit_Flattening.html#unicocone_cocone_E'" xlink:title="unicocone_cocone_E&#39;">
<ellipse fill="#f070d1" stroke="#000000" cx="448.4709" cy="-322" rx="109.6807" ry="18"/>
<text text-anchor="middle" x="448.4709" y="-318.3" font-family="Times,serif" font-size="14.00" fill="#000000">unicocone_cocone_E&#39;</text>
</a>
</g>
</g>
<!-- Colimit_Flattening_flattening_lemma&#45;&gt;Colimit_Flattening_unicocone_cocone_E_ -->
<g id="edge1" class="edge">
<title>Colimit_Flattening_flattening_lemma&#45;&gt;Colimit_Flattening_unicocone_cocone_E_</title>
<path fill="none" stroke="#000000" d="M448.4709,-375.805C448.4709,-367.6026 448.4709,-358.5174 448.4709,-350.1839"/>
<polygon fill="#000000" stroke="#000000" points="451.971,-350.1532 448.4709,-340.1532 444.971,-350.1533 451.971,-350.1532"/>
</g>
<!-- Colimit_Flattening_cocone_E_ -->
<g id="node3" class="node">
<title>Colimit_Flattening_cocone_E_</title>
<g id="a_node3"><a xlink:href="Colimit_Flattening.html#cocone_E'" xlink:title="cocone_E&#39;">
<ellipse fill="#f070d1" stroke="#000000" cx="211.4709" cy="-178" rx="57.6901" ry="18"/>
<text text-anchor="middle" x="211.4709" y="-174.3" font-family="Times,serif" font-size="14.00" fill="#000000">cocone_E&#39;</text>
</a>
</g>
</g>
<!-- Colimit_Flattening_unicocone_cocone_E_&#45;&gt;Colimit_Flattening_cocone_E_ -->
<g id="edge2" class="edge">
<title>Colimit_Flattening_unicocone_cocone_E_&#45;&gt;Colimit_Flattening_cocone_E_</title>
<path fill="none" stroke="#000000" d="M419.4101,-304.3428C375.7485,-277.8142 293.3579,-227.7541 246.4593,-199.2587"/>
<polygon fill="#000000" stroke="#000000" points="248.2173,-196.2315 237.8537,-194.03 244.5825,-202.2138 248.2173,-196.2315"/>
</g>
<!-- Colimit_Flattening_transport_E__V_E_ -->
<g id="node4" class="node">
<title>Colimit_Flattening_transport_E__V_E_</title>
<g id="a_node4"><a xlink:href="Colimit_Flattening.html#transport_E'_V_E'" xlink:title="transport_E&#39;_V_E&#39;">
<ellipse fill="#f070d1" stroke="#000000" cx="596.4709" cy="-250" rx="94.7833" ry="18"/>
<text text-anchor="middle" x="596.4709" y="-246.3" font-family="Times,serif" font-size="14.00" fill="#000000">transport_E&#39;_V_E&#39;</text>
</a>
</g>
</g>
<!-- Colimit_Flattening_unicocone_cocone_E_&#45;&gt;Colimit_Flattening_transport_E__V_E_ -->
<g id="edge3" class="edge">
<title>Colimit_Flattening_unicocone_cocone_E_&#45;&gt;Colimit_Flattening_transport_E__V_E_</title>
<path fill="none" stroke="#000000" d="M483.5449,-304.937C504.263,-294.8579 530.6721,-282.0103 552.7411,-271.274"/>
<polygon fill="#000000" stroke="#000000" points="554.4431,-274.3382 561.9043,-266.8162 551.3808,-268.0436 554.4431,-274.3382"/>
</g>
<!-- Colimit_Flattening_transport_E_ -->
<g id="node6" class="node">
<title>Colimit_Flattening_transport_E_</title>
<g id="a_node6"><a xlink:href="Colimit_Flattening.html#transport_E'" xlink:title="transport_E&#39;">
<ellipse fill="#f070d1" stroke="#000000" cx="448.4709" cy="-106" rx="68.7879" ry="18"/>
<text text-anchor="middle" x="448.4709" y="-102.3" font-family="Times,serif" font-size="14.00" fill="#000000">transport_E&#39;</text>
</a>
</g>
</g>
<!-- Colimit_Flattening_cocone_E_&#45;&gt;Colimit_Flattening_transport_E_ -->
<g id="edge4" class="edge">
<title>Colimit_Flattening_cocone_E_&#45;&gt;Colimit_Flattening_transport_E_</title>
<path fill="none" stroke="#000000" d="M253.0244,-165.3762C292.0666,-153.5153 350.7415,-135.6899 393.6139,-122.6654"/>
<polygon fill="#000000" stroke="#000000" points="394.7773,-125.97 403.3281,-119.7143 392.7425,-119.2723 394.7773,-125.97"/>
</g>
<!-- Colimit_Flattening_transport_E__V -->
<g id="node5" class="node">
<title>Colimit_Flattening_transport_E__V</title>
<g id="a_node5"><a xlink:href="Colimit_Flattening.html#transport_E'_V" xlink:title="transport_E&#39;_V">
<ellipse fill="#f070d1" stroke="#000000" cx="656.4709" cy="-178" rx="80.6858" ry="18"/>
<text text-anchor="middle" x="656.4709" y="-174.3" font-family="Times,serif" font-size="14.00" fill="#000000">transport_E&#39;_V</text>
</a>
</g>
</g>
<!-- Colimit_Flattening_transport_E__V_E_&#45;&gt;Colimit_Flattening_transport_E__V -->
<g id="edge5" class="edge">
<title>Colimit_Flattening_transport_E__V_E_&#45;&gt;Colimit_Flattening_transport_E__V</title>
<path fill="none" stroke="#000000" d="M611.3024,-232.2022C618.4419,-223.6348 627.1368,-213.2009 634.9844,-203.7839"/>
<polygon fill="#000000" stroke="#000000" points="637.8891,-205.7654 641.6022,-195.8425 632.5115,-201.2841 637.8891,-205.7654"/>
</g>
<!-- Colimit_Flattening_transport_E__V&#45;&gt;Colimit_Flattening_transport_E_ -->
<g id="edge6" class="edge">
<title>Colimit_Flattening_transport_E__V&#45;&gt;Colimit_Flattening_transport_E_</title>
<path fill="none" stroke="#000000" d="M612.6137,-162.8186C579.6029,-151.3918 534.2751,-135.7014 499.6153,-123.7038"/>
<polygon fill="#000000" stroke="#000000" points="500.7362,-120.3881 490.1414,-120.4244 498.4464,-127.003 500.7362,-120.3881"/>
</g>
<!-- Colimit_Flattening_E_ -->
<g id="node7" class="node">
<title>Colimit_Flattening_E_</title>
<g id="a_node7"><a xlink:href="Colimit_Flattening.html#E'" xlink:title="E&#39;">
<ellipse fill="#f070d1" stroke="#000000" cx="448.4709" cy="-34" rx="27" ry="18"/>
<text text-anchor="middle" x="448.4709" y="-30.3" font-family="Times,serif" font-size="14.00" fill="#000000">E&#39;</text>
</a>
</g>
</g>
<!-- Colimit_Flattening_transport_E_&#45;&gt;Colimit_Flattening_E_ -->
<g id="edge7" class="edge">
<title>Colimit_Flattening_transport_E_&#45;&gt;Colimit_Flattening_E_</title>
<path fill="none" stroke="#000000" d="M448.4709,-87.8314C448.4709,-80.131 448.4709,-70.9743 448.4709,-62.4166"/>
<polygon fill="#000000" stroke="#000000" points="451.971,-62.4132 448.4709,-52.4133 444.971,-62.4133 451.971,-62.4132"/>
</g>
</g>
</svg>
