<?xml version="1.0" encoding="UTF-8" standalone="no"?>
<!DOCTYPE svg PUBLIC "-//W3C//DTD SVG 1.1//EN"
 "http://www.w3.org/Graphics/SVG/1.1/DTD/svg11.dtd">
<!-- Generated by graphviz version 2.40.1 (20161225.0304)
 -->
<!-- Title: HoTT_Basics_Logic Pages: 1 -->
<svg width="978pt" height="493pt"
 viewBox="0.00 0.00 978.00 493.00" xmlns="http://www.w3.org/2000/svg" xmlns:xlink="http://www.w3.org/1999/xlink">
<g id="graph0" class="graph" transform="scale(1 1) rotate(0) translate(4 489)">
<title>HoTT_Basics_Logic</title>
<polygon fill="#ffffff" stroke="transparent" points="-4,4 -4,-489 974,-489 974,4 -4,4"/>
<g id="clust1" class="cluster">
<title>cluster_Basics</title>
<polygon fill="#ffffc3" stroke="#000000" points="8,-12.6797 8,-472.3203 962,-472.3203 962,-12.6797 8,-12.6797"/>
<text text-anchor="middle" x="39.5" y="-457.1203" font-family="Times,serif" font-size="14.00" fill="#000000">Basics</text>
</g>
<g id="clust2" class="cluster">
<title>cluster_Basics_Logic</title>
<polygon fill="#ffffa3" stroke="#000000" points="16,-25.3595 16,-423.1863 954,-423.1863 954,-25.3595 16,-25.3595"/>
<text text-anchor="middle" x="44" y="-407.9863" font-family="Times,serif" font-size="14.00" fill="#000000">Logic</text>
</g>
<!-- Basics_Logic_not -->
<g id="node1" class="node">
<title>Basics_Logic_not</title>
<g id="a_node1"><a xlink:href="Basics.html#Logic.not" xlink:title="not">
<ellipse fill="#f070d1" stroke="#000000" cx="911" cy="-193.6797" rx="27" ry="18"/>
<ellipse fill="none" stroke="#000000" cx="911" cy="-193.6797" rx="31" ry="22"/>
<ellipse fill="none" stroke="#000000" cx="911" cy="-193.6797" rx="35" ry="26"/>
<text text-anchor="middle" x="911" y="-189.9797" font-family="Times,serif" font-size="14.00" fill="#000000">not</text>
</a>
</g>
</g>
<!-- Basics_Logic_False -->
<g id="node6" class="node">
<title>Basics_Logic_False</title>
<g id="a_node6"><a xlink:href="Basics.html#Logic.False" xlink:title="False">
<ellipse fill="#e2cdfa" stroke="#000000" cx="717" cy="-66.6797" rx="35.194" ry="18"/>
<text text-anchor="middle" x="717" y="-62.9797" font-family="Times,serif" font-size="14.00" fill="#000000">False</text>
</a>
</g>
</g>
<!-- Basics_Logic_not&#45;&gt;Basics_Logic_False -->
<g id="edge1" class="edge">
<title>Basics_Logic_not&#45;&gt;Basics_Logic_False</title>
<path fill="none" stroke="#000000" d="M884.4319,-176.2872C848.5974,-152.8286 784.9388,-111.1551 747.2881,-86.5075"/>
<polygon fill="#000000" stroke="#000000" points="749.0457,-83.4749 738.762,-80.926 745.2117,-89.3315 749.0457,-83.4749"/>
</g>
<!-- Basics_Logic_False_sind -->
<g id="node2" class="node">
<title>Basics_Logic_False_sind</title>
<g id="a_node2"><a xlink:href="Basics.html#Logic.False_sind" xlink:title="False_sind">
<ellipse fill="#f070d1" stroke="#000000" cx="790" cy="-193.6797" rx="59.6142" ry="18"/>
<ellipse fill="none" stroke="#000000" cx="790" cy="-193.6797" rx="63.6021" ry="22"/>
<ellipse fill="none" stroke="#000000" cx="790" cy="-193.6797" rx="67.59" ry="26"/>
<text text-anchor="middle" x="790" y="-189.9797" font-family="Times,serif" font-size="14.00" fill="#000000">False_sind</text>
</a>
</g>
</g>
<!-- Basics_Logic_False_sind&#45;&gt;Basics_Logic_False -->
<g id="edge2" class="edge">
<title>Basics_Logic_False_sind&#45;&gt;Basics_Logic_False</title>
<path fill="none" stroke="#000000" d="M775.4028,-168.2846C762.8788,-146.4963 744.8954,-115.2101 732.2001,-93.1238"/>
<polygon fill="#000000" stroke="#000000" points="735.1323,-91.2016 727.1144,-84.276 729.0634,-94.69 735.1323,-91.2016"/>
</g>
<!-- Basics_Logic_False_rec -->
<g id="node3" class="node">
<title>Basics_Logic_False_rec</title>
<g id="a_node3"><a xlink:href="Basics.html#Logic.False_rec" xlink:title="False_rec">
<ellipse fill="#f070d1" stroke="#000000" cx="645" cy="-332.6797" rx="55.46" ry="18"/>
<ellipse fill="none" stroke="#000000" cx="645" cy="-332.6797" rx="59.4756" ry="22"/>
<ellipse fill="none" stroke="#000000" cx="645" cy="-332.6797" rx="63.4911" ry="26"/>
<text text-anchor="middle" x="645" y="-328.9797" font-family="Times,serif" font-size="14.00" fill="#000000">False_rec</text>
</a>
</g>
</g>
<!-- Basics_Logic_False_rect -->
<g id="node5" class="node">
<title>Basics_Logic_False_rect</title>
<g id="a_node5"><a xlink:href="Basics.html#Logic.False_rect" xlink:title="False_rect">
<ellipse fill="#f070d1" stroke="#000000" cx="645" cy="-193.6797" rx="59.2899" ry="18"/>
<text text-anchor="middle" x="645" y="-189.9797" font-family="Times,serif" font-size="14.00" fill="#000000">False_rect</text>
</a>
</g>
</g>
<!-- Basics_Logic_False_rec&#45;&gt;Basics_Logic_False_rect -->
<g id="edge3" class="edge">
<title>Basics_Logic_False_rec&#45;&gt;Basics_Logic_False_rect</title>
<path fill="none" stroke="#000000" d="M645,-306.5349C645,-282.4212 645,-246.7138 645,-221.9477"/>
<polygon fill="#000000" stroke="#000000" points="648.5001,-221.7446 645,-211.7446 641.5001,-221.7447 648.5001,-221.7446"/>
</g>
<!-- Basics_Logic_False_ind -->
<g id="node4" class="node">
<title>Basics_Logic_False_ind</title>
<g id="a_node4"><a xlink:href="Basics.html#Logic.False_ind" xlink:title="False_ind">
<ellipse fill="#7fffd4" stroke="#000000" cx="505" cy="-193.6797" rx="54.6783" ry="18"/>
<ellipse fill="none" stroke="#000000" cx="505" cy="-193.6797" rx="58.6844" ry="22"/>
<ellipse fill="none" stroke="#000000" cx="505" cy="-193.6797" rx="62.6905" ry="26"/>
<text text-anchor="middle" x="505" y="-189.9797" font-family="Times,serif" font-size="14.00" fill="#000000">False_ind</text>
</a>
</g>
</g>
<!-- Basics_Logic_False_ind&#45;&gt;Basics_Logic_False -->
<g id="edge4" class="edge">
<title>Basics_Logic_False_ind&#45;&gt;Basics_Logic_False</title>
<path fill="none" stroke="#000000" d="M540.9629,-172.1359C581.4284,-147.8948 646.5417,-108.8882 685.2111,-85.7231"/>
<polygon fill="#000000" stroke="#000000" points="687.1953,-88.6145 693.9751,-80.4729 683.5979,-82.6095 687.1953,-88.6145"/>
</g>
<!-- Basics_Logic_False_rect&#45;&gt;Basics_Logic_False -->
<g id="edge5" class="edge">
<title>Basics_Logic_False_rect&#45;&gt;Basics_Logic_False</title>
<path fill="none" stroke="#000000" d="M655.1631,-175.7531C667.3996,-154.1693 688.0534,-117.7383 702.0937,-92.9727"/>
<polygon fill="#000000" stroke="#000000" points="705.2325,-94.533 707.1197,-84.1075 699.143,-91.0806 705.2325,-94.533"/>
</g>
<!-- Basics_Logic_True_sind -->
<g id="node7" class="node">
<title>Basics_Logic_True_sind</title>
<g id="a_node7"><a xlink:href="Basics.html#Logic.True_sind" xlink:title="True_sind">
<ellipse fill="#f070d1" stroke="#000000" cx="359" cy="-193.6797" rx="57.3664" ry="18"/>
<ellipse fill="none" stroke="#000000" cx="359" cy="-193.6797" rx="61.3784" ry="22"/>
<ellipse fill="none" stroke="#000000" cx="359" cy="-193.6797" rx="65.3904" ry="26"/>
<text text-anchor="middle" x="359" y="-189.9797" font-family="Times,serif" font-size="14.00" fill="#000000">True_sind</text>
</a>
</g>
</g>
<!-- Basics_Logic_I -->
<g id="node11" class="node">
<title>Basics_Logic_I</title>
<g id="a_node11"><a xlink:href="Basics.html#Logic.I" xlink:title="I">
<ellipse fill="#7faaff" stroke="#000000" cx="180" cy="-66.6797" rx="27" ry="18"/>
<text text-anchor="middle" x="180" y="-62.9797" font-family="Times,serif" font-size="14.00" fill="#000000">I</text>
</a>
</g>
</g>
<!-- Basics_Logic_True_sind&#45;&gt;Basics_Logic_I -->
<g id="edge6" class="edge">
<title>Basics_Logic_True_sind&#45;&gt;Basics_Logic_I</title>
<path fill="none" stroke="#000000" d="M326.9984,-170.9747C292.8048,-146.7144 239.1936,-108.6775 207.0377,-85.8629"/>
<polygon fill="#000000" stroke="#000000" points="208.752,-82.7878 198.5709,-79.8558 204.7014,-88.4968 208.752,-82.7878"/>
</g>
<!-- Basics_Logic_True -->
<g id="node12" class="node">
<title>Basics_Logic_True</title>
<g id="a_node12"><a xlink:href="Basics.html#Logic.True" xlink:title="True">
<ellipse fill="#e2cdfa" stroke="#000000" cx="257" cy="-66.6797" rx="32.4942" ry="18"/>
<text text-anchor="middle" x="257" y="-62.9797" font-family="Times,serif" font-size="14.00" fill="#000000">True</text>
</a>
</g>
</g>
<!-- Basics_Logic_True_sind&#45;&gt;Basics_Logic_True -->
<g id="edge7" class="edge">
<title>Basics_Logic_True_sind&#45;&gt;Basics_Logic_True</title>
<path fill="none" stroke="#000000" d="M339.0912,-168.8914C321.0982,-146.4883 294.756,-113.6897 276.7975,-91.3296"/>
<polygon fill="#000000" stroke="#000000" points="279.3509,-88.9194 270.3601,-83.3144 273.8932,-93.3028 279.3509,-88.9194"/>
</g>
<!-- Basics_Logic_True_rec -->
<g id="node8" class="node">
<title>Basics_Logic_True_rec</title>
<g id="a_node8"><a xlink:href="Basics.html#Logic.True_rec" xlink:title="True_rec">
<ellipse fill="#f070d1" stroke="#000000" cx="219" cy="-332.6797" rx="52.7718" ry="18"/>
<ellipse fill="none" stroke="#000000" cx="219" cy="-332.6797" rx="56.7814" ry="22"/>
<ellipse fill="none" stroke="#000000" cx="219" cy="-332.6797" rx="60.791" ry="26"/>
<text text-anchor="middle" x="219" y="-328.9797" font-family="Times,serif" font-size="14.00" fill="#000000">True_rec</text>
</a>
</g>
</g>
<!-- Basics_Logic_True_rect -->
<g id="node10" class="node">
<title>Basics_Logic_True_rect</title>
<g id="a_node10"><a xlink:href="Basics.html#Logic.True_rect" xlink:title="True_rect">
<ellipse fill="#f070d1" stroke="#000000" cx="219" cy="-193.6797" rx="56.59" ry="18"/>
<text text-anchor="middle" x="219" y="-189.9797" font-family="Times,serif" font-size="14.00" fill="#000000">True_rect</text>
</a>
</g>
</g>
<!-- Basics_Logic_True_rec&#45;&gt;Basics_Logic_True_rect -->
<g id="edge8" class="edge">
<title>Basics_Logic_True_rec&#45;&gt;Basics_Logic_True_rect</title>
<path fill="none" stroke="#000000" d="M219,-306.5349C219,-282.4212 219,-246.7138 219,-221.9477"/>
<polygon fill="#000000" stroke="#000000" points="222.5001,-221.7446 219,-211.7446 215.5001,-221.7447 222.5001,-221.7446"/>
</g>
<!-- Basics_Logic_True_ind -->
<g id="node9" class="node">
<title>Basics_Logic_True_ind</title>
<g id="a_node9"><a xlink:href="Basics.html#Logic.True_ind" xlink:title="True_ind">
<ellipse fill="#7fffd4" stroke="#000000" cx="84" cy="-193.6797" rx="51.9914" ry="18"/>
<ellipse fill="none" stroke="#000000" cx="84" cy="-193.6797" rx="55.9911" ry="22"/>
<ellipse fill="none" stroke="#000000" cx="84" cy="-193.6797" rx="59.9908" ry="26"/>
<text text-anchor="middle" x="84" y="-189.9797" font-family="Times,serif" font-size="14.00" fill="#000000">True_ind</text>
</a>
</g>
</g>
<!-- Basics_Logic_True_ind&#45;&gt;Basics_Logic_I -->
<g id="edge9" class="edge">
<title>Basics_Logic_True_ind&#45;&gt;Basics_Logic_I</title>
<path fill="none" stroke="#000000" d="M102.7377,-168.8914C119.7691,-146.3603 144.7485,-113.3145 161.656,-90.9473"/>
<polygon fill="#000000" stroke="#000000" points="164.4693,-93.0298 167.7074,-82.9419 158.8852,-88.8087 164.4693,-93.0298"/>
</g>
<!-- Basics_Logic_True_ind&#45;&gt;Basics_Logic_True -->
<g id="edge10" class="edge">
<title>Basics_Logic_True_ind&#45;&gt;Basics_Logic_True</title>
<path fill="none" stroke="#000000" d="M114.5307,-171.267C146.805,-147.5743 197.2968,-110.5081 228.7,-87.4549"/>
<polygon fill="#000000" stroke="#000000" points="231.0302,-90.0862 237.0201,-81.3471 226.8878,-84.4434 231.0302,-90.0862"/>
</g>
<!-- Basics_Logic_True_rect&#45;&gt;Basics_Logic_I -->
<g id="edge11" class="edge">
<title>Basics_Logic_True_rect&#45;&gt;Basics_Logic_I</title>
<path fill="none" stroke="#000000" d="M213.495,-175.7531C206.9912,-154.5742 196.0975,-119.0999 188.506,-94.3786"/>
<polygon fill="#000000" stroke="#000000" points="191.7585,-93.0471 185.477,-84.5152 185.0669,-95.1021 191.7585,-93.0471"/>
</g>
<!-- Basics_Logic_True_rect&#45;&gt;Basics_Logic_True -->
<g id="edge12" class="edge">
<title>Basics_Logic_True_rect&#45;&gt;Basics_Logic_True</title>
<path fill="none" stroke="#000000" d="M224.3639,-175.7531C230.7009,-154.5742 241.3152,-119.0999 248.7121,-94.3786"/>
<polygon fill="#000000" stroke="#000000" points="252.1499,-95.0988 251.6634,-84.5152 245.4437,-93.0922 252.1499,-95.0988"/>
</g>
</g>
</svg>
