<?xml version="1.0" encoding="UTF-8" standalone="no"?>
<!DOCTYPE svg PUBLIC "-//W3C//DTD SVG 1.1//EN"
 "http://www.w3.org/Graphics/SVG/1.1/DTD/svg11.dtd">
<!-- Generated by graphviz version 2.40.1 (20161225.0304)
 -->
<!-- Title: HoTT_Equiv_Relational Pages: 1 -->
<svg width="2298pt" height="1153pt"
 viewBox="0.00 0.00 2298.00 1153.00" xmlns="http://www.w3.org/2000/svg" xmlns:xlink="http://www.w3.org/1999/xlink">
<g id="graph0" class="graph" transform="scale(1 1) rotate(0) translate(4 1149)">
<title>HoTT_Equiv_Relational</title>
<polygon fill="#ffffff" stroke="transparent" points="-4,4 -4,-1149 2294,-1149 2294,4 -4,4"/>
<g id="clust1" class="cluster">
<title>cluster_Relational</title>
<polygon fill="#ffffc3" stroke="#000000" points="8,-34.3071 8,-1110.6929 2282,-1110.6929 2282,-34.3071 8,-34.3071"/>
<text text-anchor="middle" x="52.5" y="-1095.4929" font-family="Times,serif" font-size="14.00" fill="#000000">Relational</text>
</g>
<!-- Relational_relequiv_idmap -->
<g id="node1" class="node">
<title>Relational_relequiv_idmap</title>
<g id="a_node1"><a xlink:href="Relational.html#relequiv_idmap" xlink:title="relequiv_idmap">
<ellipse fill="#f070d1" stroke="#000000" cx="2183" cy="-489.3071" rx="82.5816" ry="18"/>
<ellipse fill="none" stroke="#000000" cx="2183" cy="-489.3071" rx="86.5835" ry="22"/>
<ellipse fill="none" stroke="#000000" cx="2183" cy="-489.3071" rx="90.5854" ry="26"/>
<text text-anchor="middle" x="2183" y="-485.6071" font-family="Times,serif" font-size="14.00" fill="#000000">relequiv_idmap</text>
</a>
</g>
</g>
<!-- Relational_Build_RelEquiv -->
<g id="node15" class="node">
<title>Relational_Build_RelEquiv</title>
<g id="a_node15"><a xlink:href="Relational.html#Build_RelEquiv" xlink:title="Build_RelEquiv">
<ellipse fill="#7faaff" stroke="#000000" cx="1578" cy="-145.3071" rx="81.7856" ry="18"/>
<text text-anchor="middle" x="1578" y="-141.6071" font-family="Times,serif" font-size="14.00" fill="#000000">Build_RelEquiv</text>
</a>
</g>
</g>
<!-- Relational_relequiv_idmap&#45;&gt;Relational_Build_RelEquiv -->
<g id="edge1" class="edge">
<title>Relational_relequiv_idmap&#45;&gt;Relational_Build_RelEquiv</title>
<path fill="none" stroke="#000000" d="M2141.8915,-465.933C2030.6401,-402.676 1724.7765,-228.7635 1616.5607,-167.2325"/>
<polygon fill="#000000" stroke="#000000" points="1618.0351,-164.0447 1607.612,-162.1444 1614.5751,-170.1298 1618.0351,-164.0447"/>
</g>
<!-- Relational_RelEquiv -->
<g id="node16" class="node">
<title>Relational_RelEquiv</title>
<g id="a_node16"><a xlink:href="Relational.html#RelEquiv" xlink:title="RelEquiv">
<ellipse fill="#e2cdfa" stroke="#000000" cx="1123" cy="-145.3071" rx="52.7911" ry="18"/>
<text text-anchor="middle" x="1123" y="-141.6071" font-family="Times,serif" font-size="14.00" fill="#000000">RelEquiv</text>
</a>
</g>
</g>
<!-- Relational_relequiv_idmap&#45;&gt;Relational_RelEquiv -->
<g id="edge2" class="edge">
<title>Relational_relequiv_idmap&#45;&gt;Relational_RelEquiv</title>
<path fill="none" stroke="#000000" d="M2122.9727,-469.8266C1932.3282,-407.957 1343.0423,-216.7171 1170.7644,-160.808"/>
<polygon fill="#000000" stroke="#000000" points="1171.8007,-157.4647 1161.2087,-157.7069 1169.6399,-164.1229 1171.8007,-157.4647"/>
</g>
<!-- Relational_reinv_V -->
<g id="node2" class="node">
<title>Relational_reinv_V</title>
<g id="a_node2"><a xlink:href="Relational.html#reinv_V" xlink:title="reinv_V">
<ellipse fill="#f070d1" stroke="#000000" cx="1987" cy="-866.3071" rx="46.2706" ry="18"/>
<ellipse fill="none" stroke="#000000" cx="1987" cy="-866.3071" rx="50.2814" ry="22"/>
<ellipse fill="none" stroke="#000000" cx="1987" cy="-866.3071" rx="54.2922" ry="26"/>
<text text-anchor="middle" x="1987" y="-862.6071" font-family="Times,serif" font-size="14.00" fill="#000000">reinv_V</text>
</a>
</g>
</g>
<!-- Relational_inverse_relequiv -->
<g id="node3" class="node">
<title>Relational_inverse_relequiv</title>
<g id="a_node3"><a xlink:href="Relational.html#inverse_relequiv" xlink:title="inverse_relequiv">
<ellipse fill="#f070d1" stroke="#000000" cx="1987" cy="-489.3071" rx="87.9851" ry="18"/>
<text text-anchor="middle" x="1987" y="-485.6071" font-family="Times,serif" font-size="14.00" fill="#000000">inverse_relequiv</text>
</a>
</g>
</g>
<!-- Relational_reinv_V&#45;&gt;Relational_inverse_relequiv -->
<g id="edge3" class="edge">
<title>Relational_reinv_V&#45;&gt;Relational_inverse_relequiv</title>
<path fill="none" stroke="#000000" d="M1987,-840.0965C1987,-771.7816 1987,-588.6687 1987,-517.834"/>
<polygon fill="#000000" stroke="#000000" points="1990.5001,-517.4642 1987,-507.4643 1983.5001,-517.4643 1990.5001,-517.4642"/>
</g>
<!-- Relational_inverse_relequiv&#45;&gt;Relational_Build_RelEquiv -->
<g id="edge4" class="edge">
<title>Relational_inverse_relequiv&#45;&gt;Relational_Build_RelEquiv</title>
<path fill="none" stroke="#000000" d="M1966.1553,-471.7752C1898.4613,-414.8394 1684.6743,-235.0283 1606.7643,-169.5001"/>
<polygon fill="#000000" stroke="#000000" points="1608.7086,-166.562 1598.8027,-162.8038 1604.2028,-171.9191 1608.7086,-166.562"/>
</g>
<!-- Relational_inverse_relequiv&#45;&gt;Relational_RelEquiv -->
<g id="edge5" class="edge">
<title>Relational_inverse_relequiv&#45;&gt;Relational_RelEquiv</title>
<path fill="none" stroke="#000000" d="M1946.7738,-473.2911C1803.1821,-416.1203 1316.4669,-222.3356 1167.0135,-162.831"/>
<polygon fill="#000000" stroke="#000000" points="1168.2496,-159.556 1157.6642,-159.1086 1165.6602,-166.0595 1168.2496,-159.556"/>
</g>
<!-- Relational_RelIsEquiv -->
<g id="node4" class="node">
<title>Relational_RelIsEquiv</title>
<g id="a_node4"><a xlink:href="Relational.html#RelIsEquiv" xlink:title="RelIsEquiv">
<ellipse fill="#f070d1" stroke="#000000" cx="306" cy="-489.3071" rx="61.9618" ry="18"/>
<ellipse fill="none" stroke="#000000" cx="306" cy="-489.3071" rx="65.9758" ry="22"/>
<ellipse fill="none" stroke="#000000" cx="306" cy="-489.3071" rx="69.9899" ry="26"/>
<text text-anchor="middle" x="306" y="-485.6071" font-family="Times,serif" font-size="14.00" fill="#000000">RelIsEquiv</text>
</a>
</g>
</g>
<!-- Relational_RelIsEquiv&#45;&gt;Relational_RelEquiv -->
<g id="edge6" class="edge">
<title>Relational_RelIsEquiv&#45;&gt;Relational_RelEquiv</title>
<path fill="none" stroke="#000000" d="M352.2663,-469.8266C496.9824,-408.8935 939.7223,-222.4767 1079.9372,-163.4388"/>
<polygon fill="#000000" stroke="#000000" points="1081.6434,-166.5181 1089.5016,-159.4117 1078.927,-160.0666 1081.6434,-166.5181"/>
</g>
<!-- Relational_equiv_of_relequiv -->
<g id="node5" class="node">
<title>Relational_equiv_of_relequiv</title>
<g id="a_node5"><a xlink:href="Relational.html#equiv_of_relequiv" xlink:title="equiv_of_relequiv">
<ellipse fill="#f070d1" stroke="#000000" cx="117" cy="-489.3071" rx="92.8882" ry="18"/>
<ellipse fill="none" stroke="#000000" cx="117" cy="-489.3071" rx="96.8858" ry="22"/>
<ellipse fill="none" stroke="#000000" cx="117" cy="-489.3071" rx="100.8835" ry="26"/>
<text text-anchor="middle" x="117" y="-485.6071" font-family="Times,serif" font-size="14.00" fill="#000000">equiv_of_relequiv</text>
</a>
</g>
</g>
<!-- Relational_equiv_of_relequiv&#45;&gt;Relational_RelEquiv -->
<g id="edge7" class="edge">
<title>Relational_equiv_of_relequiv&#45;&gt;Relational_RelEquiv</title>
<path fill="none" stroke="#000000" d="M178.0394,-468.4348C362.4445,-405.3778 911.2279,-217.7222 1075.822,-161.4395"/>
<polygon fill="#000000" stroke="#000000" points="1077.3187,-164.6268 1085.6483,-158.0795 1075.0538,-158.0033 1077.3187,-164.6268"/>
</g>
<!-- Relational_relequiv_of_equiv -->
<g id="node6" class="node">
<title>Relational_relequiv_of_equiv</title>
<g id="a_node6"><a xlink:href="Relational.html#relequiv_of_equiv" xlink:title="relequiv_of_equiv">
<ellipse fill="#f070d1" stroke="#000000" cx="1780" cy="-489.3071" rx="92.8882" ry="18"/>
<ellipse fill="none" stroke="#000000" cx="1780" cy="-489.3071" rx="96.8858" ry="22"/>
<ellipse fill="none" stroke="#000000" cx="1780" cy="-489.3071" rx="100.8835" ry="26"/>
<text text-anchor="middle" x="1780" y="-485.6071" font-family="Times,serif" font-size="14.00" fill="#000000">relequiv_of_equiv</text>
</a>
</g>
</g>
<!-- Relational_relequiv_of_equiv&#45;&gt;Relational_Build_RelEquiv -->
<g id="edge8" class="edge">
<title>Relational_relequiv_of_equiv&#45;&gt;Relational_Build_RelEquiv</title>
<path fill="none" stroke="#000000" d="M1764.8172,-463.4512C1727.4752,-399.859 1631.458,-236.3445 1593.641,-171.9433"/>
<polygon fill="#000000" stroke="#000000" points="1596.5795,-170.0353 1588.4977,-163.1844 1590.5432,-173.5799 1596.5795,-170.0353"/>
</g>
<!-- Relational_relequiv_of_equiv&#45;&gt;Relational_RelEquiv -->
<g id="edge9" class="edge">
<title>Relational_relequiv_of_equiv&#45;&gt;Relational_RelEquiv</title>
<path fill="none" stroke="#000000" d="M1735.3582,-465.933C1613.1591,-401.9506 1274.7456,-224.7599 1160.9171,-165.1602"/>
<polygon fill="#000000" stroke="#000000" points="1162.342,-161.9556 1151.8594,-160.4177 1159.095,-168.157 1162.342,-161.9556"/>
</g>
<!-- Relational_issig_relequiv -->
<g id="node7" class="node">
<title>Relational_issig_relequiv</title>
<g id="a_node7"><a xlink:href="Relational.html#issig_relequiv" xlink:title="issig_relequiv">
<ellipse fill="#f070d1" stroke="#000000" cx="1578" cy="-489.3071" rx="75.297" ry="18"/>
<ellipse fill="none" stroke="#000000" cx="1578" cy="-489.3071" rx="79.2919" ry="22"/>
<ellipse fill="none" stroke="#000000" cx="1578" cy="-489.3071" rx="83.2868" ry="26"/>
<text text-anchor="middle" x="1578" y="-485.6071" font-family="Times,serif" font-size="14.00" fill="#000000">issig_relequiv</text>
</a>
</g>
</g>
<!-- Relational_issig_relequiv&#45;&gt;Relational_Build_RelEquiv -->
<g id="edge10" class="edge">
<title>Relational_issig_relequiv&#45;&gt;Relational_Build_RelEquiv</title>
<path fill="none" stroke="#000000" d="M1578,-463.1689C1578,-400.0282 1578,-239.5731 1578,-173.9456"/>
<polygon fill="#000000" stroke="#000000" points="1581.5001,-173.5449 1578,-163.545 1574.5001,-173.545 1581.5001,-173.5449"/>
</g>
<!-- Relational_issig_relequiv&#45;&gt;Relational_RelEquiv -->
<g id="edge11" class="edge">
<title>Relational_issig_relequiv&#45;&gt;Relational_RelEquiv</title>
<path fill="none" stroke="#000000" d="M1546.0053,-465.1177C1461.8874,-401.5209 1235.3659,-230.2607 1153.2522,-168.1791"/>
<polygon fill="#000000" stroke="#000000" points="1154.9529,-165.0772 1144.8653,-161.8382 1150.7313,-170.661 1154.9529,-165.0772"/>
</g>
<!-- Relational_relequiv_contr_g -->
<g id="node8" class="node">
<title>Relational_relequiv_contr_g</title>
<g id="a_node8"><a xlink:href="Relational.html#relequiv_contr_g" xlink:title="relequiv_contr_g">
<ellipse fill="#f070d1" stroke="#000000" cx="841" cy="-489.3071" rx="89.0807" ry="18"/>
<ellipse fill="none" stroke="#000000" cx="841" cy="-489.3071" rx="93.0825" ry="22"/>
<ellipse fill="none" stroke="#000000" cx="841" cy="-489.3071" rx="97.0842" ry="26"/>
<text text-anchor="middle" x="841" y="-485.6071" font-family="Times,serif" font-size="14.00" fill="#000000">relequiv_contr_g</text>
</a>
</g>
</g>
<!-- Relational_relequiv_contr_g&#45;&gt;Relational_RelEquiv -->
<g id="edge12" class="edge">
<title>Relational_relequiv_contr_g&#45;&gt;Relational_RelEquiv</title>
<path fill="none" stroke="#000000" d="M861.9654,-463.7322C914.25,-399.9525 1049.9471,-234.4213 1102.13,-170.7656"/>
<polygon fill="#000000" stroke="#000000" points="1105.0055,-172.7785 1108.6385,-162.8261 1099.592,-168.3407 1105.0055,-172.7785"/>
</g>
<!-- Relational_relequiv_contr_f -->
<g id="node9" class="node">
<title>Relational_relequiv_contr_f</title>
<g id="a_node9"><a xlink:href="Relational.html#relequiv_contr_f" xlink:title="relequiv_contr_f">
<ellipse fill="#f070d1" stroke="#000000" cx="631" cy="-489.3071" rx="87.1769" ry="18"/>
<ellipse fill="none" stroke="#000000" cx="631" cy="-489.3071" rx="91.1807" ry="22"/>
<ellipse fill="none" stroke="#000000" cx="631" cy="-489.3071" rx="95.1846" ry="26"/>
<text text-anchor="middle" x="631" y="-485.6071" font-family="Times,serif" font-size="14.00" fill="#000000">relequiv_contr_f</text>
</a>
</g>
</g>
<!-- Relational_relequiv_contr_f&#45;&gt;Relational_RelEquiv -->
<g id="edge13" class="edge">
<title>Relational_relequiv_contr_f&#45;&gt;Relational_RelEquiv</title>
<path fill="none" stroke="#000000" d="M665.989,-464.8433C757.6655,-400.7443 1003.8123,-228.6416 1091.4676,-167.3542"/>
<polygon fill="#000000" stroke="#000000" points="1093.4956,-170.2069 1099.6855,-161.6083 1089.4844,-164.4701 1093.4956,-170.2069"/>
</g>
<!-- Relational_equiv_rel -->
<g id="node10" class="node">
<title>Relational_equiv_rel</title>
<g id="a_node10"><a xlink:href="Relational.html#equiv_rel" xlink:title="equiv_rel">
<ellipse fill="#f070d1" stroke="#000000" cx="456" cy="-489.3071" rx="53.8975" ry="18"/>
<ellipse fill="none" stroke="#000000" cx="456" cy="-489.3071" rx="57.894" ry="22"/>
<ellipse fill="none" stroke="#000000" cx="456" cy="-489.3071" rx="61.8905" ry="26"/>
<text text-anchor="middle" x="456" y="-485.6071" font-family="Times,serif" font-size="14.00" fill="#000000">equiv_rel</text>
</a>
</g>
</g>
<!-- Relational_equiv_rel&#45;&gt;Relational_RelEquiv -->
<g id="edge14" class="edge">
<title>Relational_equiv_rel&#45;&gt;Relational_RelEquiv</title>
<path fill="none" stroke="#000000" d="M495.2337,-469.0726C613.776,-407.9354 967.2897,-225.6135 1084.6523,-165.0847"/>
<polygon fill="#000000" stroke="#000000" points="1086.375,-168.1343 1093.6583,-160.4399 1083.1664,-161.913 1086.375,-168.1343"/>
</g>
<!-- Relational_RelEquiv_sind -->
<g id="node11" class="node">
<title>Relational_RelEquiv_sind</title>
<g id="a_node11"><a xlink:href="Relational.html#RelEquiv_sind" xlink:title="RelEquiv_sind">
<ellipse fill="#f070d1" stroke="#000000" cx="1391" cy="-489.3071" rx="77.2012" ry="18"/>
<ellipse fill="none" stroke="#000000" cx="1391" cy="-489.3071" rx="81.1939" ry="22"/>
<ellipse fill="none" stroke="#000000" cx="1391" cy="-489.3071" rx="85.1866" ry="26"/>
<text text-anchor="middle" x="1391" y="-485.6071" font-family="Times,serif" font-size="14.00" fill="#000000">RelEquiv_sind</text>
</a>
</g>
</g>
<!-- Relational_RelEquiv_sind&#45;&gt;Relational_Build_RelEquiv -->
<g id="edge15" class="edge">
<title>Relational_RelEquiv_sind&#45;&gt;Relational_Build_RelEquiv</title>
<path fill="none" stroke="#000000" d="M1405.0554,-463.4512C1439.5536,-399.9893 1528.1476,-237.0142 1563.3045,-172.3405"/>
<polygon fill="#000000" stroke="#000000" points="1566.5808,-173.6418 1568.2818,-163.1844 1560.4308,-170.2986 1566.5808,-173.6418"/>
</g>
<!-- Relational_RelEquiv_sind&#45;&gt;Relational_RelEquiv -->
<g id="edge16" class="edge">
<title>Relational_RelEquiv_sind&#45;&gt;Relational_RelEquiv</title>
<path fill="none" stroke="#000000" d="M1371.0754,-463.7322C1321.3865,-399.9525 1192.4261,-234.4213 1142.8339,-170.7656"/>
<polygon fill="#000000" stroke="#000000" points="1145.5553,-168.5636 1136.6485,-162.8261 1140.0333,-172.8657 1145.5553,-168.5636"/>
</g>
<!-- Relational_RelEquiv_rec -->
<g id="node12" class="node">
<title>Relational_RelEquiv_rec</title>
<g id="a_node12"><a xlink:href="Relational.html#RelEquiv_rec" xlink:title="RelEquiv_rec">
<ellipse fill="#f070d1" stroke="#000000" cx="1211" cy="-866.3071" rx="72.608" ry="18"/>
<ellipse fill="none" stroke="#000000" cx="1211" cy="-866.3071" rx="76.5978" ry="22"/>
<ellipse fill="none" stroke="#000000" cx="1211" cy="-866.3071" rx="80.5876" ry="26"/>
<text text-anchor="middle" x="1211" y="-862.6071" font-family="Times,serif" font-size="14.00" fill="#000000">RelEquiv_rec</text>
</a>
</g>
</g>
<!-- Relational_RelEquiv_rect -->
<g id="node14" class="node">
<title>Relational_RelEquiv_rect</title>
<g id="a_node14"><a xlink:href="Relational.html#RelEquiv_rect" xlink:title="RelEquiv_rect">
<ellipse fill="#f070d1" stroke="#000000" cx="1211" cy="-489.3071" rx="76.8869" ry="18"/>
<text text-anchor="middle" x="1211" y="-485.6071" font-family="Times,serif" font-size="14.00" fill="#000000">RelEquiv_rect</text>
</a>
</g>
</g>
<!-- Relational_RelEquiv_rec&#45;&gt;Relational_RelEquiv_rect -->
<g id="edge17" class="edge">
<title>Relational_RelEquiv_rec&#45;&gt;Relational_RelEquiv_rect</title>
<path fill="none" stroke="#000000" d="M1211,-840.0965C1211,-771.7816 1211,-588.6687 1211,-517.834"/>
<polygon fill="#000000" stroke="#000000" points="1214.5001,-517.4642 1211,-507.4643 1207.5001,-517.4643 1214.5001,-517.4642"/>
</g>
<!-- Relational_RelEquiv_ind -->
<g id="node13" class="node">
<title>Relational_RelEquiv_ind</title>
<g id="a_node13"><a xlink:href="Relational.html#RelEquiv_ind" xlink:title="RelEquiv_ind">
<ellipse fill="#7fffd4" stroke="#000000" cx="1036" cy="-489.3071" rx="72.2731" ry="18"/>
<ellipse fill="none" stroke="#000000" cx="1036" cy="-489.3071" rx="76.2803" ry="22"/>
<ellipse fill="none" stroke="#000000" cx="1036" cy="-489.3071" rx="80.2875" ry="26"/>
<text text-anchor="middle" x="1036" y="-485.6071" font-family="Times,serif" font-size="14.00" fill="#000000">RelEquiv_ind</text>
</a>
</g>
</g>
<!-- Relational_RelEquiv_ind&#45;&gt;Relational_Build_RelEquiv -->
<g id="edge18" class="edge">
<title>Relational_RelEquiv_ind&#45;&gt;Relational_Build_RelEquiv</title>
<path fill="none" stroke="#000000" d="M1072.8277,-465.933C1172.1785,-402.8765 1444.7726,-229.8647 1542.5277,-167.8209"/>
<polygon fill="#000000" stroke="#000000" points="1544.5937,-170.6551 1551.1612,-162.3413 1540.8426,-164.745 1544.5937,-170.6551"/>
</g>
<!-- Relational_RelEquiv_ind&#45;&gt;Relational_RelEquiv -->
<g id="edge19" class="edge">
<title>Relational_RelEquiv_ind&#45;&gt;Relational_RelEquiv</title>
<path fill="none" stroke="#000000" d="M1042.6105,-463.1689C1058.6122,-399.8978 1099.3273,-238.9097 1115.8597,-173.54"/>
<polygon fill="#000000" stroke="#000000" points="1119.3287,-174.0979 1118.3875,-163.545 1112.5424,-172.3816 1119.3287,-174.0979"/>
</g>
<!-- Relational_RelEquiv_rect&#45;&gt;Relational_Build_RelEquiv -->
<g id="edge20" class="edge">
<title>Relational_RelEquiv_rect&#45;&gt;Relational_Build_RelEquiv</title>
<path fill="none" stroke="#000000" d="M1229.7041,-471.7752C1290.1831,-415.0865 1480.6175,-236.5866 1551.2724,-170.3597"/>
<polygon fill="#000000" stroke="#000000" points="1553.991,-172.6087 1558.8934,-163.2163 1549.2038,-167.5014 1553.991,-172.6087"/>
</g>
<!-- Relational_RelEquiv_rect&#45;&gt;Relational_RelEquiv -->
<g id="edge21" class="edge">
<title>Relational_RelEquiv_rect&#45;&gt;Relational_RelEquiv</title>
<path fill="none" stroke="#000000" d="M1206.3926,-471.2965C1191.9917,-415.0018 1147.7466,-242.0436 1130.2395,-173.6068"/>
<polygon fill="#000000" stroke="#000000" points="1133.5371,-172.375 1127.6679,-163.5544 1126.7555,-174.1099 1133.5371,-172.375"/>
</g>
</g>
</svg>
