<?xml version="1.0" encoding="UTF-8" standalone="no"?>
<!DOCTYPE svg PUBLIC "-//W3C//DTD SVG 1.1//EN"
 "http://www.w3.org/Graphics/SVG/1.1/DTD/svg11.dtd">
<!-- Generated by graphviz version 2.40.1 (20161225.0304)
 -->
<!-- Title: HoTT_Spaces_Spheres Pages: 1 -->
<svg width="1346pt" height="677pt"
 viewBox="0.00 0.00 1346.00 677.00" xmlns="http://www.w3.org/2000/svg" xmlns:xlink="http://www.w3.org/1999/xlink">
<g id="graph0" class="graph" transform="scale(1 1) rotate(0) translate(4 673)">
<title>HoTT_Spaces_Spheres</title>
<polygon fill="#ffffff" stroke="transparent" points="-4,4 -4,-673 1342,-673 1342,4 -4,4"/>
<g id="clust1" class="cluster">
<title>cluster_Spheres</title>
<polygon fill="#ffffc3" stroke="#000000" points="8,-10.0791 8,-658.9209 1330,-658.9209 1330,-10.0791 8,-10.0791"/>
<text text-anchor="middle" x="45.5" y="-643.7209" font-family="Times,serif" font-size="14.00" fill="#000000">Spheres</text>
</g>
<!-- Spheres_istrunc_allnullhomot -->
<g id="node1" class="node">
<title>Spheres_istrunc_allnullhomot</title>
<g id="a_node1"><a xlink:href="Spheres.html#istrunc_allnullhomot" xlink:title="istrunc_allnullhomot">
<ellipse fill="#f070d1" stroke="#000000" cx="667" cy="-254.0791" rx="106.6748" ry="18"/>
<ellipse fill="none" stroke="#000000" cx="667" cy="-254.0791" rx="110.678" ry="22"/>
<ellipse fill="none" stroke="#000000" cx="667" cy="-254.0791" rx="114.6812" ry="26"/>
<text text-anchor="middle" x="667" y="-250.3791" font-family="Times,serif" font-size="14.00" fill="#000000">istrunc_allnullhomot</text>
</a>
</g>
</g>
<!-- Spheres_S0_to_Bool -->
<g id="node20" class="node">
<title>Spheres_S0_to_Bool</title>
<g id="a_node20"><a xlink:href="Spheres.html#S0_to_Bool" xlink:title="S0_to_Bool">
<ellipse fill="#f070d1" stroke="#000000" cx="416" cy="-144.0791" rx="62.2891" ry="18"/>
<text text-anchor="middle" x="416" y="-140.3791" font-family="Times,serif" font-size="14.00" fill="#000000">S0_to_Bool</text>
</a>
</g>
</g>
<!-- Spheres_istrunc_allnullhomot&#45;&gt;Spheres_S0_to_Bool -->
<g id="edge1" class="edge">
<title>Spheres_istrunc_allnullhomot&#45;&gt;Spheres_S0_to_Bool</title>
<path fill="none" stroke="#000000" d="M614.0761,-230.8853C568.2114,-210.7853 502.6433,-182.0502 459.706,-163.2331"/>
<polygon fill="#000000" stroke="#000000" points="460.9346,-159.9502 450.3706,-159.1419 458.1248,-166.3616 460.9346,-159.9502"/>
</g>
<!-- Spheres_allnullhomot_trunc -->
<g id="node2" class="node">
<title>Spheres_allnullhomot_trunc</title>
<g id="a_node2"><a xlink:href="Spheres.html#allnullhomot_trunc" xlink:title="allnullhomot_trunc">
<ellipse fill="#f070d1" stroke="#000000" cx="1215" cy="-144.0791" rx="98.5985" ry="18"/>
<ellipse fill="none" stroke="#000000" cx="1215" cy="-144.0791" rx="102.5907" ry="22"/>
<ellipse fill="none" stroke="#000000" cx="1215" cy="-144.0791" rx="106.5829" ry="26"/>
<text text-anchor="middle" x="1215" y="-140.3791" font-family="Times,serif" font-size="14.00" fill="#000000">allnullhomot_trunc</text>
</a>
</g>
</g>
<!-- Spheres_Sphere -->
<g id="node22" class="node">
<title>Spheres_Sphere</title>
<g id="a_node22"><a xlink:href="Spheres.html#Sphere" xlink:title="Sphere">
<ellipse fill="#f070d1" stroke="#000000" cx="591" cy="-43.0791" rx="44.393" ry="18"/>
<text text-anchor="middle" x="591" y="-39.3791" font-family="Times,serif" font-size="14.00" fill="#000000">Sphere</text>
</a>
</g>
</g>
<!-- Spheres_allnullhomot_trunc&#45;&gt;Spheres_Sphere -->
<g id="edge2" class="edge">
<title>Spheres_allnullhomot_trunc&#45;&gt;Spheres_Sphere</title>
<path fill="none" stroke="#000000" d="M1138.4627,-125.9228C1125.6541,-123.1294 1112.4759,-120.4051 1100,-118.0791 934.1127,-87.1514 735.8677,-61.0266 643.3624,-49.4588"/>
<polygon fill="#000000" stroke="#000000" points="643.768,-45.9823 633.4121,-48.2197 642.9029,-52.9287 643.768,-45.9823"/>
</g>
<!-- Spheres_isconnected_sn -->
<g id="node3" class="node">
<title>Spheres_isconnected_sn</title>
<g id="a_node3"><a xlink:href="Spheres.html#isconnected_sn" xlink:title="isconnected_sn">
<ellipse fill="#f070d1" stroke="#000000" cx="1000" cy="-144.0791" rx="82.5816" ry="18"/>
<ellipse fill="none" stroke="#000000" cx="1000" cy="-144.0791" rx="86.5835" ry="22"/>
<ellipse fill="none" stroke="#000000" cx="1000" cy="-144.0791" rx="90.5854" ry="26"/>
<text text-anchor="middle" x="1000" y="-140.3791" font-family="Times,serif" font-size="14.00" fill="#000000">isconnected_sn</text>
</a>
</g>
</g>
<!-- Spheres_isconnected_sn&#45;&gt;Spheres_Sphere -->
<g id="edge3" class="edge">
<title>Spheres_isconnected_sn&#45;&gt;Spheres_Sphere</title>
<path fill="none" stroke="#000000" d="M933.0692,-126.5167C922.0292,-123.6659 910.6993,-120.7683 900,-118.0791 808.1422,-94.9914 700.6149,-69.1622 639.683,-54.6369"/>
<polygon fill="#000000" stroke="#000000" points="640.1268,-51.1448 629.5879,-52.2322 638.5047,-57.9542 640.1268,-51.1448"/>
</g>
<!-- Spheres_istrunc_s1 -->
<g id="node4" class="node">
<title>Spheres_istrunc_s1</title>
<g id="a_node4"><a xlink:href="Spheres.html#istrunc_s1" xlink:title="istrunc_s1">
<ellipse fill="#f070d1" stroke="#000000" cx="612" cy="-476.0791" rx="59.6142" ry="18"/>
<ellipse fill="none" stroke="#000000" cx="612" cy="-476.0791" rx="63.6021" ry="22"/>
<ellipse fill="none" stroke="#000000" cx="612" cy="-476.0791" rx="67.59" ry="26"/>
<text text-anchor="middle" x="612" y="-472.3791" font-family="Times,serif" font-size="14.00" fill="#000000">istrunc_s1</text>
</a>
</g>
</g>
<!-- Spheres_isequiv_S1_to_Circle -->
<g id="node14" class="node">
<title>Spheres_isequiv_S1_to_Circle</title>
<g id="a_node14"><a xlink:href="Spheres.html#isequiv_S1_to_Circle" xlink:title="isequiv_S1_to_Circle">
<ellipse fill="#f070d1" stroke="#000000" cx="469" cy="-365.0791" rx="108.5808" ry="18"/>
<text text-anchor="middle" x="469" y="-361.3791" font-family="Times,serif" font-size="14.00" fill="#000000">isequiv_S1_to_Circle</text>
</a>
</g>
</g>
<!-- Spheres_istrunc_s1&#45;&gt;Spheres_isequiv_S1_to_Circle -->
<g id="edge4" class="edge">
<title>Spheres_istrunc_s1&#45;&gt;Spheres_isequiv_S1_to_Circle</title>
<path fill="none" stroke="#000000" d="M581.6734,-452.5389C557.6184,-433.8668 524.1317,-407.8737 499.9228,-389.0821"/>
<polygon fill="#000000" stroke="#000000" points="501.8229,-386.1264 491.7773,-382.7594 497.5307,-391.656 501.8229,-386.1264"/>
</g>
<!-- Spheres_istrunc_s0 -->
<g id="node5" class="node">
<title>Spheres_istrunc_s0</title>
<g id="a_node5"><a xlink:href="Spheres.html#istrunc_s0" xlink:title="istrunc_s0">
<ellipse fill="#f070d1" stroke="#000000" cx="275" cy="-365.0791" rx="59.6142" ry="18"/>
<ellipse fill="none" stroke="#000000" cx="275" cy="-365.0791" rx="63.6021" ry="22"/>
<ellipse fill="none" stroke="#000000" cx="275" cy="-365.0791" rx="67.59" ry="26"/>
<text text-anchor="middle" x="275" y="-361.3791" font-family="Times,serif" font-size="14.00" fill="#000000">istrunc_s0</text>
</a>
</g>
</g>
<!-- Spheres_isequiv_S0_to_Bool -->
<g id="node18" class="node">
<title>Spheres_isequiv_S0_to_Bool</title>
<g id="a_node18"><a xlink:href="Spheres.html#isequiv_S0_to_Bool" xlink:title="isequiv_S0_to_Bool">
<ellipse fill="#f070d1" stroke="#000000" cx="117" cy="-254.0791" rx="100.9827" ry="18"/>
<text text-anchor="middle" x="117" y="-250.3791" font-family="Times,serif" font-size="14.00" fill="#000000">isequiv_S0_to_Bool</text>
</a>
</g>
</g>
<!-- Spheres_istrunc_s0&#45;&gt;Spheres_isequiv_S0_to_Bool -->
<g id="edge5" class="edge">
<title>Spheres_istrunc_s0&#45;&gt;Spheres_isequiv_S0_to_Bool</title>
<path fill="none" stroke="#000000" d="M242.2623,-342.0798C215.3469,-323.1709 177.3694,-296.4905 150.3011,-277.4742"/>
<polygon fill="#000000" stroke="#000000" points="152.1185,-274.4736 141.9239,-271.5889 148.0945,-280.2014 152.1185,-274.4736"/>
</g>
<!-- Spheres_equiv_S2_TwoSphere -->
<g id="node6" class="node">
<title>Spheres_equiv_S2_TwoSphere</title>
<g id="a_node6"><a xlink:href="Spheres.html#equiv_S2_TwoSphere" xlink:title="equiv_S2_TwoSphere">
<ellipse fill="#f070d1" stroke="#000000" cx="1058" cy="-476.0791" rx="110.4811" ry="18"/>
<ellipse fill="none" stroke="#000000" cx="1058" cy="-476.0791" rx="114.4807" ry="22"/>
<ellipse fill="none" stroke="#000000" cx="1058" cy="-476.0791" rx="118.4804" ry="26"/>
<text text-anchor="middle" x="1058" y="-472.3791" font-family="Times,serif" font-size="14.00" fill="#000000">equiv_S2_TwoSphere</text>
</a>
</g>
</g>
<!-- Spheres_isequiv_S2_to_TwoSphere -->
<g id="node7" class="node">
<title>Spheres_isequiv_S2_to_TwoSphere</title>
<g id="a_node7"><a xlink:href="Spheres.html#isequiv_S2_to_TwoSphere" xlink:title="isequiv_S2_to_TwoSphere">
<ellipse fill="#f070d1" stroke="#000000" cx="1058" cy="-365.0791" rx="131.8766" ry="18"/>
<text text-anchor="middle" x="1058" y="-361.3791" font-family="Times,serif" font-size="14.00" fill="#000000">isequiv_S2_to_TwoSphere</text>
</a>
</g>
</g>
<!-- Spheres_equiv_S2_TwoSphere&#45;&gt;Spheres_isequiv_S2_to_TwoSphere -->
<g id="edge6" class="edge">
<title>Spheres_equiv_S2_TwoSphere&#45;&gt;Spheres_isequiv_S2_to_TwoSphere</title>
<path fill="none" stroke="#000000" d="M1058,-450.0545C1058,-433.0737 1058,-410.9068 1058,-393.4713"/>
<polygon fill="#000000" stroke="#000000" points="1061.5001,-393.3152 1058,-383.3152 1054.5001,-393.3153 1061.5001,-393.3152"/>
</g>
<!-- Spheres_issect_S2_to_TwoSphere -->
<g id="node8" class="node">
<title>Spheres_issect_S2_to_TwoSphere</title>
<g id="a_node8"><a xlink:href="Spheres.html#issect_S2_to_TwoSphere" xlink:title="issect_S2_to_TwoSphere">
<ellipse fill="#f070d1" stroke="#000000" cx="926" cy="-254.0791" rx="126.1777" ry="18"/>
<text text-anchor="middle" x="926" y="-250.3791" font-family="Times,serif" font-size="14.00" fill="#000000">issect_S2_to_TwoSphere</text>
</a>
</g>
</g>
<!-- Spheres_isequiv_S2_to_TwoSphere&#45;&gt;Spheres_issect_S2_to_TwoSphere -->
<g id="edge7" class="edge">
<title>Spheres_isequiv_S2_to_TwoSphere&#45;&gt;Spheres_issect_S2_to_TwoSphere</title>
<path fill="none" stroke="#000000" d="M1036.7919,-347.245C1014.661,-328.635 979.808,-299.3267 955.1092,-278.5573"/>
<polygon fill="#000000" stroke="#000000" points="957.0617,-275.6262 947.1555,-271.8689 952.5565,-280.9837 957.0617,-275.6262"/>
</g>
<!-- Spheres_issect_TwoSphere_to_S2 -->
<g id="node9" class="node">
<title>Spheres_issect_TwoSphere_to_S2</title>
<g id="a_node9"><a xlink:href="Spheres.html#issect_TwoSphere_to_S2" xlink:title="issect_TwoSphere_to_S2">
<ellipse fill="#f070d1" stroke="#000000" cx="1196" cy="-254.0791" rx="126.1777" ry="18"/>
<text text-anchor="middle" x="1196" y="-250.3791" font-family="Times,serif" font-size="14.00" fill="#000000">issect_TwoSphere_to_S2</text>
</a>
</g>
</g>
<!-- Spheres_isequiv_S2_to_TwoSphere&#45;&gt;Spheres_issect_TwoSphere_to_S2 -->
<g id="edge8" class="edge">
<title>Spheres_isequiv_S2_to_TwoSphere&#45;&gt;Spheres_issect_TwoSphere_to_S2</title>
<path fill="none" stroke="#000000" d="M1080.1721,-347.245C1103.4095,-328.5541 1140.0633,-299.0717 1165.9038,-278.2869"/>
<polygon fill="#000000" stroke="#000000" points="1168.2844,-280.8638 1173.8829,-271.8689 1163.8971,-275.4093 1168.2844,-280.8638"/>
</g>
<!-- Spheres_TwoSphere_to_S2 -->
<g id="node10" class="node">
<title>Spheres_TwoSphere_to_S2</title>
<g id="a_node10"><a xlink:href="Spheres.html#TwoSphere_to_S2" xlink:title="TwoSphere_to_S2">
<ellipse fill="#f070d1" stroke="#000000" cx="797" cy="-144.0791" rx="94.4839" ry="18"/>
<text text-anchor="middle" x="797" y="-140.3791" font-family="Times,serif" font-size="14.00" fill="#000000">TwoSphere_to_S2</text>
</a>
</g>
</g>
<!-- Spheres_issect_S2_to_TwoSphere&#45;&gt;Spheres_TwoSphere_to_S2 -->
<g id="edge9" class="edge">
<title>Spheres_issect_S2_to_TwoSphere&#45;&gt;Spheres_TwoSphere_to_S2</title>
<path fill="none" stroke="#000000" d="M904.9868,-236.1609C883.4348,-217.7832 849.7577,-189.0663 825.7455,-168.5907"/>
<polygon fill="#000000" stroke="#000000" points="827.8844,-165.8149 818.0042,-161.9896 823.3424,-171.1414 827.8844,-165.8149"/>
</g>
<!-- Spheres_S2_to_TwoSphere -->
<g id="node11" class="node">
<title>Spheres_S2_to_TwoSphere</title>
<g id="a_node11"><a xlink:href="Spheres.html#S2_to_TwoSphere" xlink:title="S2_to_TwoSphere">
<ellipse fill="#f070d1" stroke="#000000" cx="591" cy="-144.0791" rx="94.4839" ry="18"/>
<text text-anchor="middle" x="591" y="-140.3791" font-family="Times,serif" font-size="14.00" fill="#000000">S2_to_TwoSphere</text>
</a>
</g>
</g>
<!-- Spheres_issect_S2_to_TwoSphere&#45;&gt;Spheres_S2_to_TwoSphere -->
<g id="edge10" class="edge">
<title>Spheres_issect_S2_to_TwoSphere&#45;&gt;Spheres_S2_to_TwoSphere</title>
<path fill="none" stroke="#000000" d="M875.4844,-237.4919C814.373,-217.4255 711.766,-183.7336 647.9153,-162.7677"/>
<polygon fill="#000000" stroke="#000000" points="648.9921,-159.4375 638.3993,-159.643 646.8083,-166.0881 648.9921,-159.4375"/>
</g>
<!-- Spheres_issect_TwoSphere_to_S2&#45;&gt;Spheres_TwoSphere_to_S2 -->
<g id="edge11" class="edge">
<title>Spheres_issect_TwoSphere_to_S2&#45;&gt;Spheres_TwoSphere_to_S2</title>
<path fill="none" stroke="#000000" d="M1137.982,-238.0842C1064.2403,-217.7544 937.3643,-182.776 860.9132,-161.6993"/>
<polygon fill="#000000" stroke="#000000" points="861.5006,-158.2307 850.93,-158.947 859.6401,-164.979 861.5006,-158.2307"/>
</g>
<!-- Spheres_issect_TwoSphere_to_S2&#45;&gt;Spheres_S2_to_TwoSphere -->
<g id="edge12" class="edge">
<title>Spheres_issect_TwoSphere_to_S2&#45;&gt;Spheres_S2_to_TwoSphere</title>
<path fill="none" stroke="#000000" d="M1122.1626,-239.3951C1102.3256,-235.5769 1080.8658,-231.5609 1061,-228.0791 898.3438,-199.5712 855.7778,-203.2104 694,-170.0791 681.5254,-167.5244 668.2876,-164.4565 655.6057,-161.338"/>
<polygon fill="#000000" stroke="#000000" points="656.1294,-157.8614 645.5794,-158.8351 654.4339,-164.653 656.1294,-157.8614"/>
</g>
<!-- Spheres_TwoSphere_to_S2&#45;&gt;Spheres_Sphere -->
<g id="edge13" class="edge">
<title>Spheres_TwoSphere_to_S2&#45;&gt;Spheres_Sphere</title>
<path fill="none" stroke="#000000" d="M762.5202,-127.174C725.4584,-109.0029 666.7351,-80.2113 628.5327,-61.4811"/>
<polygon fill="#000000" stroke="#000000" points="629.8078,-58.2082 619.2881,-56.9485 626.7261,-64.4934 629.8078,-58.2082"/>
</g>
<!-- Spheres_S2_to_TwoSphere&#45;&gt;Spheres_Sphere -->
<g id="edge14" class="edge">
<title>Spheres_S2_to_TwoSphere&#45;&gt;Spheres_Sphere</title>
<path fill="none" stroke="#000000" d="M591,-126.0223C591,-110.8921 591,-89.0239 591,-71.5401"/>
<polygon fill="#000000" stroke="#000000" points="594.5001,-71.32 591,-61.3201 587.5001,-71.3201 594.5001,-71.32"/>
</g>
<!-- Spheres_pequiv_S1_Circle -->
<g id="node12" class="node">
<title>Spheres_pequiv_S1_Circle</title>
<g id="a_node12"><a xlink:href="Spheres.html#pequiv_S1_Circle" xlink:title="pequiv_S1_Circle">
<ellipse fill="#f070d1" stroke="#000000" cx="401" cy="-587.0791" rx="92.1006" ry="18"/>
<ellipse fill="none" stroke="#000000" cx="401" cy="-587.0791" rx="96.0923" ry="22"/>
<ellipse fill="none" stroke="#000000" cx="401" cy="-587.0791" rx="100.0841" ry="26"/>
<text text-anchor="middle" x="401" y="-583.3791" font-family="Times,serif" font-size="14.00" fill="#000000">pequiv_S1_Circle</text>
</a>
</g>
</g>
<!-- Spheres_equiv_S1_Circle -->
<g id="node13" class="node">
<title>Spheres_equiv_S1_Circle</title>
<g id="a_node13"><a xlink:href="Spheres.html#equiv_S1_Circle" xlink:title="equiv_S1_Circle">
<ellipse fill="#f070d1" stroke="#000000" cx="325" cy="-476.0791" rx="86.3847" ry="18"/>
<text text-anchor="middle" x="325" y="-472.3791" font-family="Times,serif" font-size="14.00" fill="#000000">equiv_S1_Circle</text>
</a>
</g>
</g>
<!-- Spheres_pequiv_S1_Circle&#45;&gt;Spheres_equiv_S1_Circle -->
<g id="edge15" class="edge">
<title>Spheres_pequiv_S1_Circle&#45;&gt;Spheres_equiv_S1_Circle</title>
<path fill="none" stroke="#000000" d="M383.373,-561.3345C371.3493,-543.7734 355.4618,-520.5694 343.2978,-502.8035"/>
<polygon fill="#000000" stroke="#000000" points="345.8538,-500.3413 337.3163,-494.0674 340.0779,-504.296 345.8538,-500.3413"/>
</g>
<!-- Spheres_psphere -->
<g id="node21" class="node">
<title>Spheres_psphere</title>
<g id="a_node21"><a xlink:href="Spheres.html#psphere" xlink:title="psphere">
<ellipse fill="#f070d1" stroke="#000000" cx="478" cy="-476.0791" rx="48.1917" ry="18"/>
<text text-anchor="middle" x="478" y="-472.3791" font-family="Times,serif" font-size="14.00" fill="#000000">psphere</text>
</a>
</g>
</g>
<!-- Spheres_pequiv_S1_Circle&#45;&gt;Spheres_psphere -->
<g id="edge16" class="edge">
<title>Spheres_pequiv_S1_Circle&#45;&gt;Spheres_psphere</title>
<path fill="none" stroke="#000000" d="M418.8589,-561.3345C431.229,-543.5022 447.6354,-519.8514 460.0297,-501.9844"/>
<polygon fill="#000000" stroke="#000000" points="462.9326,-503.9403 465.7566,-493.7287 457.1809,-499.9504 462.9326,-503.9403"/>
</g>
<!-- Spheres_equiv_S1_Circle&#45;&gt;Spheres_isequiv_S1_to_Circle -->
<g id="edge17" class="edge">
<title>Spheres_equiv_S1_Circle&#45;&gt;Spheres_isequiv_S1_to_Circle</title>
<path fill="none" stroke="#000000" d="M347.8172,-458.4908C372.1093,-439.7657 410.7092,-410.0116 437.8024,-389.1272"/>
<polygon fill="#000000" stroke="#000000" points="440.0294,-391.8298 445.8127,-382.9526 435.7558,-386.2857 440.0294,-391.8298"/>
</g>
<!-- Spheres_Circle_to_S1 -->
<g id="node15" class="node">
<title>Spheres_Circle_to_S1</title>
<g id="a_node15"><a xlink:href="Spheres.html#Circle_to_S1" xlink:title="Circle_to_S1">
<ellipse fill="#f070d1" stroke="#000000" cx="306" cy="-254.0791" rx="70.3881" ry="18"/>
<text text-anchor="middle" x="306" y="-250.3791" font-family="Times,serif" font-size="14.00" fill="#000000">Circle_to_S1</text>
</a>
</g>
</g>
<!-- Spheres_isequiv_S1_to_Circle&#45;&gt;Spheres_Circle_to_S1 -->
<g id="edge18" class="edge">
<title>Spheres_isequiv_S1_to_Circle&#45;&gt;Spheres_Circle_to_S1</title>
<path fill="none" stroke="#000000" d="M443.1722,-347.4908C415.1478,-328.4068 370.3011,-297.8669 339.565,-276.9363"/>
<polygon fill="#000000" stroke="#000000" points="341.1407,-273.7748 330.9052,-271.0391 337.2006,-279.5607 341.1407,-273.7748"/>
</g>
<!-- Spheres_S1_to_Circle -->
<g id="node16" class="node">
<title>Spheres_S1_to_Circle</title>
<g id="a_node16"><a xlink:href="Spheres.html#S1_to_Circle" xlink:title="S1_to_Circle">
<ellipse fill="#f070d1" stroke="#000000" cx="464" cy="-254.0791" rx="70.3881" ry="18"/>
<text text-anchor="middle" x="464" y="-250.3791" font-family="Times,serif" font-size="14.00" fill="#000000">S1_to_Circle</text>
</a>
</g>
</g>
<!-- Spheres_isequiv_S1_to_Circle&#45;&gt;Spheres_S1_to_Circle -->
<g id="edge19" class="edge">
<title>Spheres_isequiv_S1_to_Circle&#45;&gt;Spheres_S1_to_Circle</title>
<path fill="none" stroke="#000000" d="M468.1744,-346.7497C467.3891,-329.3164 466.1959,-302.8273 465.286,-282.628"/>
<polygon fill="#000000" stroke="#000000" points="468.7734,-282.2681 464.8269,-272.4357 461.7805,-282.5831 468.7734,-282.2681"/>
</g>
<!-- Spheres_isequiv_S1_to_Circle&#45;&gt;Spheres_isequiv_S0_to_Bool -->
<g id="edge20" class="edge">
<title>Spheres_isequiv_S1_to_Circle&#45;&gt;Spheres_isequiv_S0_to_Bool</title>
<path fill="none" stroke="#000000" d="M418.1921,-349.0573C354.2256,-328.886 244.5147,-294.2897 176.6391,-272.8857"/>
<polygon fill="#000000" stroke="#000000" points="177.5283,-269.4963 166.9386,-269.8268 175.423,-276.1722 177.5283,-269.4963"/>
</g>
<!-- Spheres_Circle_to_S1&#45;&gt;Spheres_Sphere -->
<g id="edge21" class="edge">
<title>Spheres_Circle_to_S1&#45;&gt;Spheres_Sphere</title>
<path fill="none" stroke="#000000" d="M305.9829,-235.9747C306.9589,-207.0735 313.137,-150.4773 345,-118.0791 372.3776,-90.2417 477.1637,-65.4352 540.8128,-52.5109"/>
<polygon fill="#000000" stroke="#000000" points="541.5385,-55.9352 550.6567,-50.54 540.1642,-49.0714 541.5385,-55.9352"/>
</g>
<!-- Spheres_S1_to_Circle&#45;&gt;Spheres_S0_to_Bool -->
<g id="edge22" class="edge">
<title>Spheres_S1_to_Circle&#45;&gt;Spheres_S0_to_Bool</title>
<path fill="none" stroke="#000000" d="M456.0738,-235.9148C448.4308,-218.3997 436.7628,-191.6606 427.9848,-171.5442"/>
<polygon fill="#000000" stroke="#000000" points="431.1454,-170.0359 423.938,-162.2703 424.7296,-172.8356 431.1454,-170.0359"/>
</g>
<!-- Spheres_equiv_S0_Bool -->
<g id="node17" class="node">
<title>Spheres_equiv_S0_Bool</title>
<g id="a_node17"><a xlink:href="Spheres.html#equiv_S0_Bool" xlink:title="equiv_S0_Bool">
<ellipse fill="#f070d1" stroke="#000000" cx="103" cy="-365.0791" rx="78.7731" ry="18"/>
<ellipse fill="none" stroke="#000000" cx="103" cy="-365.0791" rx="82.7797" ry="22"/>
<ellipse fill="none" stroke="#000000" cx="103" cy="-365.0791" rx="86.7863" ry="26"/>
<text text-anchor="middle" x="103" y="-361.3791" font-family="Times,serif" font-size="14.00" fill="#000000">equiv_S0_Bool</text>
</a>
</g>
</g>
<!-- Spheres_equiv_S0_Bool&#45;&gt;Spheres_isequiv_S0_to_Bool -->
<g id="edge23" class="edge">
<title>Spheres_equiv_S0_Bool&#45;&gt;Spheres_isequiv_S0_to_Bool</title>
<path fill="none" stroke="#000000" d="M106.2824,-339.0545C108.4241,-322.0737 111.2199,-299.9068 113.419,-282.4713"/>
<polygon fill="#000000" stroke="#000000" points="116.921,-282.6746 114.6999,-272.3152 109.976,-281.7986 116.921,-282.6746"/>
</g>
<!-- Spheres_Bool_to_S0 -->
<g id="node19" class="node">
<title>Spheres_Bool_to_S0</title>
<g id="a_node19"><a xlink:href="Spheres.html#Bool_to_S0" xlink:title="Bool_to_S0">
<ellipse fill="#f070d1" stroke="#000000" cx="171" cy="-144.0791" rx="62.2891" ry="18"/>
<text text-anchor="middle" x="171" y="-140.3791" font-family="Times,serif" font-size="14.00" fill="#000000">Bool_to_S0</text>
</a>
</g>
</g>
<!-- Spheres_isequiv_S0_to_Bool&#45;&gt;Spheres_Bool_to_S0 -->
<g id="edge24" class="edge">
<title>Spheres_isequiv_S0_to_Bool&#45;&gt;Spheres_Bool_to_S0</title>
<path fill="none" stroke="#000000" d="M125.917,-235.9148C134.6061,-218.2147 147.9196,-191.0948 157.8289,-170.9091"/>
<polygon fill="#000000" stroke="#000000" points="160.984,-172.4244 162.2489,-161.9054 154.7003,-169.3397 160.984,-172.4244"/>
</g>
<!-- Spheres_isequiv_S0_to_Bool&#45;&gt;Spheres_S0_to_Bool -->
<g id="edge25" class="edge">
<title>Spheres_isequiv_S0_to_Bool&#45;&gt;Spheres_S0_to_Bool</title>
<path fill="none" stroke="#000000" d="M161.1185,-237.8482C216.4006,-217.5103 310.7978,-182.7823 367.8895,-161.7786"/>
<polygon fill="#000000" stroke="#000000" points="369.232,-165.0141 377.4086,-158.2766 366.8151,-158.4446 369.232,-165.0141"/>
</g>
<!-- Spheres_Bool_to_S0&#45;&gt;Spheres_Sphere -->
<g id="edge26" class="edge">
<title>Spheres_Bool_to_S0&#45;&gt;Spheres_Sphere</title>
<path fill="none" stroke="#000000" d="M219.1793,-132.4931C300.0757,-113.0395 462.2628,-74.0373 543.0232,-54.6164"/>
<polygon fill="#000000" stroke="#000000" points="544.0215,-57.9762 552.926,-52.235 542.3848,-51.1702 544.0215,-57.9762"/>
</g>
<!-- Spheres_S0_to_Bool&#45;&gt;Spheres_Sphere -->
<g id="edge27" class="edge">
<title>Spheres_S0_to_Bool&#45;&gt;Spheres_Sphere</title>
<path fill="none" stroke="#000000" d="M444.1168,-127.8517C474.7621,-110.165 523.8077,-81.8587 556.6952,-62.8778"/>
<polygon fill="#000000" stroke="#000000" points="558.6025,-65.8182 565.514,-57.7882 555.1034,-59.7555 558.6025,-65.8182"/>
</g>
</g>
</svg>
