<?xml version="1.0" encoding="UTF-8" standalone="no"?>
<!DOCTYPE svg PUBLIC "-//W3C//DTD SVG 1.1//EN"
 "http://www.w3.org/Graphics/SVG/1.1/DTD/svg11.dtd">
<!-- Generated by graphviz version 2.40.1 (20161225.0304)
 -->
<!-- Title: HoTT_Tactics Pages: 1 -->
<svg width="1376pt" height="692pt"
 viewBox="0.00 0.00 1376.00 692.00" xmlns="http://www.w3.org/2000/svg" xmlns:xlink="http://www.w3.org/1999/xlink">
<g id="graph0" class="graph" transform="scale(1 1) rotate(0) translate(4 688)">
<title>HoTT_Tactics</title>
<polygon fill="#ffffff" stroke="transparent" points="-4,4 -4,-688 1372,-688 1372,4 -4,4"/>
<g id="clust1" class="cluster">
<title>cluster_EvalIn</title>
<polygon fill="#ffffc3" stroke="#000000" points="867,-20.4944 867,-663.5056 1360,-663.5056 1360,-20.4944 867,-20.4944"/>
<text text-anchor="middle" x="898.5" y="-648.3056" font-family="Times,serif" font-size="14.00" fill="#000000">EvalIn</text>
</g>
<g id="clust2" class="cluster">
<title>cluster_Tactics</title>
<polygon fill="#ffffc3" stroke="#000000" points="8,-20.4944 8,-663.5056 859,-663.5056 859,-20.4944 8,-20.4944"/>
<text text-anchor="middle" x="42" y="-648.3056" font-family="Times,serif" font-size="14.00" fill="#000000">Tactics</text>
</g>
<!-- Tactics_match_eta2 -->
<g id="node1" class="node">
<title>Tactics_match_eta2</title>
<g id="a_node1"><a xlink:href="Tactics.html#match_eta2" xlink:title="match_eta2">
<ellipse fill="#f070d1" stroke="#000000" cx="777" cy="-517.4944" rx="65.7729" ry="18"/>
<ellipse fill="none" stroke="#000000" cx="777" cy="-517.4944" rx="69.7808" ry="22"/>
<ellipse fill="none" stroke="#000000" cx="777" cy="-517.4944" rx="73.7886" ry="26"/>
<text text-anchor="middle" x="777" y="-513.7944" font-family="Times,serif" font-size="14.00" fill="#000000">match_eta2</text>
</a>
</g>
</g>
<!-- Tactics_match_eta1 -->
<g id="node2" class="node">
<title>Tactics_match_eta1</title>
<g id="a_node2"><a xlink:href="Tactics.html#match_eta1" xlink:title="match_eta1">
<ellipse fill="#f070d1" stroke="#000000" cx="777" cy="-292.4944" rx="65.7887" ry="18"/>
<text text-anchor="middle" x="777" y="-288.7944" font-family="Times,serif" font-size="14.00" fill="#000000">match_eta1</text>
</a>
</g>
</g>
<!-- Tactics_match_eta2&#45;&gt;Tactics_match_eta1 -->
<g id="edge1" class="edge">
<title>Tactics_match_eta2&#45;&gt;Tactics_match_eta1</title>
<path fill="none" stroke="#000000" d="M777,-491.2437C777,-448.604 777,-364.6519 777,-320.7534"/>
<polygon fill="#000000" stroke="#000000" points="780.5001,-320.5053 777,-310.5053 773.5001,-320.5053 780.5001,-320.5053"/>
</g>
<!-- Tactics_match_eta -->
<g id="node3" class="node">
<title>Tactics_match_eta</title>
<g id="a_node3"><a xlink:href="Tactics.html#match_eta" xlink:title="match_eta">
<ellipse fill="#f070d1" stroke="#000000" cx="777" cy="-87.4944" rx="59.5901" ry="18"/>
<text text-anchor="middle" x="777" y="-83.7944" font-family="Times,serif" font-size="14.00" fill="#000000">match_eta</text>
</a>
</g>
</g>
<!-- Tactics_match_eta1&#45;&gt;Tactics_match_eta -->
<g id="edge2" class="edge">
<title>Tactics_match_eta1&#45;&gt;Tactics_match_eta</title>
<path fill="none" stroke="#000000" d="M777,-274.302C777,-238.439 777,-158.3958 777,-115.6581"/>
<polygon fill="#000000" stroke="#000000" points="780.5001,-115.646 777,-105.646 773.5001,-115.646 780.5001,-115.646"/>
</g>
<!-- Tactics_path_forall_2_beta -->
<g id="node4" class="node">
<title>Tactics_path_forall_2_beta</title>
<g id="a_node4"><a xlink:href="Tactics.html#path_forall_2_beta" xlink:title="path_forall_2_beta">
<ellipse fill="#f070d1" stroke="#000000" cx="581" cy="-517.4944" rx="96.6951" ry="18"/>
<ellipse fill="none" stroke="#000000" cx="581" cy="-517.4944" rx="100.6891" ry="22"/>
<ellipse fill="none" stroke="#000000" cx="581" cy="-517.4944" rx="104.6831" ry="26"/>
<text text-anchor="middle" x="581" y="-513.7944" font-family="Times,serif" font-size="14.00" fill="#000000">path_forall_2_beta</text>
</a>
</g>
</g>
<!-- Tactics_path_forall_recr_beta -->
<g id="node6" class="node">
<title>Tactics_path_forall_recr_beta</title>
<g id="a_node6"><a xlink:href="Tactics.html#path_forall_recr_beta" xlink:title="path_forall_recr_beta">
<ellipse fill="#f070d1" stroke="#000000" cx="466" cy="-292.4944" rx="110.4804" ry="18"/>
<text text-anchor="middle" x="466" y="-288.7944" font-family="Times,serif" font-size="14.00" fill="#000000">path_forall_recr_beta</text>
</a>
</g>
</g>
<!-- Tactics_path_forall_2_beta&#45;&gt;Tactics_path_forall_recr_beta -->
<g id="edge3" class="edge">
<title>Tactics_path_forall_2_beta&#45;&gt;Tactics_path_forall_recr_beta</title>
<path fill="none" stroke="#000000" d="M567.808,-491.684C545.8772,-448.7758 502.1268,-363.1772 479.7999,-319.4942"/>
<polygon fill="#000000" stroke="#000000" points="482.916,-317.9004 475.2483,-310.5889 476.683,-321.0862 482.916,-317.9004"/>
</g>
<!-- Tactics_path_forall_2_beta_ -->
<g id="node5" class="node">
<title>Tactics_path_forall_2_beta_</title>
<g id="a_node5"><a xlink:href="Tactics.html#path_forall_2_beta'" xlink:title="path_forall_2_beta&#39;">
<ellipse fill="#f070d1" stroke="#000000" cx="351" cy="-517.4944" rx="99.3868" ry="18"/>
<ellipse fill="none" stroke="#000000" cx="351" cy="-517.4944" rx="103.3846" ry="22"/>
<ellipse fill="none" stroke="#000000" cx="351" cy="-517.4944" rx="107.3824" ry="26"/>
<text text-anchor="middle" x="351" y="-513.7944" font-family="Times,serif" font-size="14.00" fill="#000000">path_forall_2_beta&#39;</text>
</a>
</g>
</g>
<!-- Tactics_path_forall_2_beta_&#45;&gt;Tactics_path_forall_recr_beta -->
<g id="edge4" class="edge">
<title>Tactics_path_forall_2_beta_&#45;&gt;Tactics_path_forall_recr_beta</title>
<path fill="none" stroke="#000000" d="M364.192,-491.684C386.1228,-448.7758 429.8732,-363.1772 452.2001,-319.4942"/>
<polygon fill="#000000" stroke="#000000" points="455.317,-321.0862 456.7517,-310.5889 449.084,-317.9004 455.317,-321.0862"/>
</g>
<!-- Tactics_path_forall_recr_beta_ -->
<g id="node7" class="node">
<title>Tactics_path_forall_recr_beta_</title>
<g id="a_node7"><a xlink:href="Tactics.html#path_forall_recr_beta'" xlink:title="path_forall_recr_beta&#39;">
<ellipse fill="#f070d1" stroke="#000000" cx="466" cy="-87.4944" rx="113.18" ry="18"/>
<text text-anchor="middle" x="466" y="-83.7944" font-family="Times,serif" font-size="14.00" fill="#000000">path_forall_recr_beta&#39;</text>
</a>
</g>
</g>
<!-- Tactics_path_forall_recr_beta&#45;&gt;Tactics_path_forall_recr_beta_ -->
<g id="edge5" class="edge">
<title>Tactics_path_forall_recr_beta&#45;&gt;Tactics_path_forall_recr_beta_</title>
<path fill="none" stroke="#000000" d="M466,-274.302C466,-238.439 466,-158.3958 466,-115.6581"/>
<polygon fill="#000000" stroke="#000000" points="469.5001,-115.646 466,-105.646 462.5001,-115.646 469.5001,-115.646"/>
</g>
<!-- Tactics_path_forall_1_beta -->
<g id="node8" class="node">
<title>Tactics_path_forall_1_beta</title>
<g id="a_node8"><a xlink:href="Tactics.html#path_forall_1_beta" xlink:title="path_forall_1_beta">
<ellipse fill="#f070d1" stroke="#000000" cx="121" cy="-517.4944" rx="96.6951" ry="18"/>
<ellipse fill="none" stroke="#000000" cx="121" cy="-517.4944" rx="100.6891" ry="22"/>
<ellipse fill="none" stroke="#000000" cx="121" cy="-517.4944" rx="104.6831" ry="26"/>
<text text-anchor="middle" x="121" y="-513.7944" font-family="Times,serif" font-size="14.00" fill="#000000">path_forall_1_beta</text>
</a>
</g>
</g>
<!-- EvalIn_dummy_sind -->
<g id="node9" class="node">
<title>EvalIn_dummy_sind</title>
<g id="a_node9"><a xlink:href="EvalIn.html#dummy_sind" xlink:title="dummy_sind">
<ellipse fill="#f070d1" stroke="#000000" cx="1274" cy="-292.4944" rx="69.5832" ry="18"/>
<ellipse fill="none" stroke="#000000" cx="1274" cy="-292.4944" rx="73.5854" ry="22"/>
<ellipse fill="none" stroke="#000000" cx="1274" cy="-292.4944" rx="77.5877" ry="26"/>
<text text-anchor="middle" x="1274" y="-288.7944" font-family="Times,serif" font-size="14.00" fill="#000000">dummy_sind</text>
</a>
</g>
</g>
<!-- EvalIn_adummy -->
<g id="node13" class="node">
<title>EvalIn_adummy</title>
<g id="a_node13"><a xlink:href="EvalIn.html#adummy" xlink:title="adummy">
<ellipse fill="#7faaff" stroke="#000000" cx="1052" cy="-87.4944" rx="50.8918" ry="18"/>
<text text-anchor="middle" x="1052" y="-83.7944" font-family="Times,serif" font-size="14.00" fill="#000000">adummy</text>
</a>
</g>
</g>
<!-- EvalIn_dummy_sind&#45;&gt;EvalIn_adummy -->
<g id="edge6" class="edge">
<title>EvalIn_dummy_sind&#45;&gt;EvalIn_adummy</title>
<path fill="none" stroke="#000000" d="M1247.2216,-267.7666C1204.2297,-228.0668 1120.3461,-150.6068 1077.9113,-111.4215"/>
<polygon fill="#000000" stroke="#000000" points="1080.2106,-108.7807 1070.4894,-104.5679 1075.4617,-113.9235 1080.2106,-108.7807"/>
</g>
<!-- EvalIn_dummy -->
<g id="node14" class="node">
<title>EvalIn_dummy</title>
<g id="a_node14"><a xlink:href="EvalIn.html#dummy" xlink:title="dummy">
<ellipse fill="#e2cdfa" stroke="#000000" cx="1166" cy="-87.4944" rx="45.4919" ry="18"/>
<text text-anchor="middle" x="1166" y="-83.7944" font-family="Times,serif" font-size="14.00" fill="#000000">dummy</text>
</a>
</g>
</g>
<!-- EvalIn_dummy_sind&#45;&gt;EvalIn_dummy -->
<g id="edge7" class="edge">
<title>EvalIn_dummy_sind&#45;&gt;EvalIn_dummy</title>
<path fill="none" stroke="#000000" d="M1260.3217,-266.531C1239.7576,-227.4973 1201.0681,-154.0589 1180.2014,-114.4508"/>
<polygon fill="#000000" stroke="#000000" points="1183.0599,-112.3673 1175.3022,-105.1514 1176.8667,-115.6301 1183.0599,-112.3673"/>
</g>
<!-- EvalIn_dummy_rec -->
<g id="node10" class="node">
<title>EvalIn_dummy_rec</title>
<g id="a_node10"><a xlink:href="EvalIn.html#dummy_rec" xlink:title="dummy_rec">
<ellipse fill="#f070d1" stroke="#000000" cx="1109" cy="-517.4944" rx="65.7729" ry="18"/>
<ellipse fill="none" stroke="#000000" cx="1109" cy="-517.4944" rx="69.7808" ry="22"/>
<ellipse fill="none" stroke="#000000" cx="1109" cy="-517.4944" rx="73.7886" ry="26"/>
<text text-anchor="middle" x="1109" y="-513.7944" font-family="Times,serif" font-size="14.00" fill="#000000">dummy_rec</text>
</a>
</g>
</g>
<!-- EvalIn_dummy_rect -->
<g id="node12" class="node">
<title>EvalIn_dummy_rect</title>
<g id="a_node12"><a xlink:href="EvalIn.html#dummy_rect" xlink:title="dummy_rect">
<ellipse fill="#f070d1" stroke="#000000" cx="1109" cy="-292.4944" rx="69.5877" ry="18"/>
<text text-anchor="middle" x="1109" y="-288.7944" font-family="Times,serif" font-size="14.00" fill="#000000">dummy_rect</text>
</a>
</g>
</g>
<!-- EvalIn_dummy_rec&#45;&gt;EvalIn_dummy_rect -->
<g id="edge8" class="edge">
<title>EvalIn_dummy_rec&#45;&gt;EvalIn_dummy_rect</title>
<path fill="none" stroke="#000000" d="M1109,-491.2437C1109,-448.604 1109,-364.6519 1109,-320.7534"/>
<polygon fill="#000000" stroke="#000000" points="1112.5001,-320.5053 1109,-310.5053 1105.5001,-320.5053 1112.5001,-320.5053"/>
</g>
<!-- EvalIn_dummy_ind -->
<g id="node11" class="node">
<title>EvalIn_dummy_ind</title>
<g id="a_node11"><a xlink:href="EvalIn.html#dummy_ind" xlink:title="dummy_ind">
<ellipse fill="#7fffd4" stroke="#000000" cx="948" cy="-292.4944" rx="64.9891" ry="18"/>
<ellipse fill="none" stroke="#000000" cx="948" cy="-292.4944" rx="68.9888" ry="22"/>
<ellipse fill="none" stroke="#000000" cx="948" cy="-292.4944" rx="72.9885" ry="26"/>
<text text-anchor="middle" x="948" y="-288.7944" font-family="Times,serif" font-size="14.00" fill="#000000">dummy_ind</text>
</a>
</g>
</g>
<!-- EvalIn_dummy_ind&#45;&gt;EvalIn_adummy -->
<g id="edge9" class="edge">
<title>EvalIn_dummy_ind&#45;&gt;EvalIn_adummy</title>
<path fill="none" stroke="#000000" d="M961.1717,-266.531C980.9237,-227.5966 1018.0412,-154.4324 1038.1708,-114.7538"/>
<polygon fill="#000000" stroke="#000000" points="1041.4986,-115.9303 1042.9016,-105.4287 1035.256,-112.7632 1041.4986,-115.9303"/>
</g>
<!-- EvalIn_dummy_ind&#45;&gt;EvalIn_dummy -->
<g id="edge10" class="edge">
<title>EvalIn_dummy_ind&#45;&gt;EvalIn_dummy</title>
<path fill="none" stroke="#000000" d="M973.8635,-268.1732C1016.0341,-228.5173 1099.0797,-150.424 1140.8103,-111.182"/>
<polygon fill="#000000" stroke="#000000" points="1143.4546,-113.4997 1148.3419,-104.0995 1138.6593,-108.4003 1143.4546,-113.4997"/>
</g>
<!-- EvalIn_dummy_rect&#45;&gt;EvalIn_adummy -->
<g id="edge11" class="edge">
<title>EvalIn_dummy_rect&#45;&gt;EvalIn_adummy</title>
<path fill="none" stroke="#000000" d="M1103.9416,-274.302C1093.9488,-238.363 1071.6197,-158.0565 1059.7555,-115.387"/>
<polygon fill="#000000" stroke="#000000" points="1063.098,-114.3429 1057.047,-105.646 1056.3539,-116.2181 1063.098,-114.3429"/>
</g>
<!-- EvalIn_dummy_rect&#45;&gt;EvalIn_dummy -->
<g id="edge12" class="edge">
<title>EvalIn_dummy_rect&#45;&gt;EvalIn_dummy</title>
<path fill="none" stroke="#000000" d="M1114.0584,-274.302C1124.0512,-238.363 1146.3803,-158.0565 1158.2445,-115.387"/>
<polygon fill="#000000" stroke="#000000" points="1161.6461,-116.2181 1160.953,-105.646 1154.902,-114.3429 1161.6461,-116.2181"/>
</g>
</g>
</svg>
