<?xml version="1.0" encoding="UTF-8" standalone="no"?>
<!DOCTYPE svg PUBLIC "-//W3C//DTD SVG 1.1//EN"
 "http://www.w3.org/Graphics/SVG/1.1/DTD/svg11.dtd">
<!-- Generated by graphviz version 2.40.1 (20161225.0304)
 -->
<!-- Title: HoTT_Limits_Equalizer Pages: 1 -->
<svg width="522pt" height="265pt"
 viewBox="0.00 0.00 522.00 265.00" xmlns="http://www.w3.org/2000/svg" xmlns:xlink="http://www.w3.org/1999/xlink">
<g id="graph0" class="graph" transform="scale(1 1) rotate(0) translate(4 261)">
<title>HoTT_Limits_Equalizer</title>
<polygon fill="#ffffff" stroke="transparent" points="-4,4 -4,-261 518,-261 518,4 -4,4"/>
<g id="clust1" class="cluster">
<title>cluster_Equalizer</title>
<polygon fill="#ffffc3" stroke="#000000" points="8,-11.486 8,-245.514 506,-245.514 506,-11.486 8,-11.486"/>
<text text-anchor="middle" x="50.5" y="-230.314" font-family="Times,serif" font-size="14.00" fill="#000000">Equalizer</text>
</g>
<!-- Equalizer_equiv_functor_equalizer -->
<g id="node1" class="node">
<title>Equalizer_equiv_functor_equalizer</title>
<g id="a_node1"><a xlink:href="Equalizer.html#equiv_functor_equalizer" xlink:title="equiv_functor_equalizer">
<ellipse fill="#f070d1" stroke="#000000" cx="367" cy="-163.486" rx="122.6882" ry="18"/>
<ellipse fill="none" stroke="#000000" cx="367" cy="-163.486" rx="126.6833" ry="22"/>
<ellipse fill="none" stroke="#000000" cx="367" cy="-163.486" rx="130.6784" ry="26"/>
<text text-anchor="middle" x="367" y="-159.786" font-family="Times,serif" font-size="14.00" fill="#000000">equiv_functor_equalizer</text>
</a>
</g>
</g>
<!-- Equalizer_Equalizer -->
<g id="node3" class="node">
<title>Equalizer_Equalizer</title>
<g id="a_node3"><a xlink:href="Equalizer.html#Equalizer" xlink:title="Equalizer">
<ellipse fill="#f070d1" stroke="#000000" cx="242" cy="-48.486" rx="55.4913" ry="18"/>
<text text-anchor="middle" x="242" y="-44.786" font-family="Times,serif" font-size="14.00" fill="#000000">Equalizer</text>
</a>
</g>
</g>
<!-- Equalizer_equiv_functor_equalizer&#45;&gt;Equalizer_Equalizer -->
<g id="edge1" class="edge">
<title>Equalizer_equiv_functor_equalizer&#45;&gt;Equalizer_Equalizer</title>
<path fill="none" stroke="#000000" d="M339.2584,-137.9638C318.0842,-118.4835 289.1055,-91.8231 268.2975,-72.6798"/>
<polygon fill="#000000" stroke="#000000" points="270.4851,-69.9364 260.756,-65.7416 265.7456,-75.0879 270.4851,-69.9364"/>
</g>
<!-- Equalizer_functor_equalizer -->
<g id="node2" class="node">
<title>Equalizer_functor_equalizer</title>
<g id="a_node2"><a xlink:href="Equalizer.html#functor_equalizer" xlink:title="functor_equalizer">
<ellipse fill="#f070d1" stroke="#000000" cx="117" cy="-163.486" rx="92.8882" ry="18"/>
<ellipse fill="none" stroke="#000000" cx="117" cy="-163.486" rx="96.8858" ry="22"/>
<ellipse fill="none" stroke="#000000" cx="117" cy="-163.486" rx="100.8835" ry="26"/>
<text text-anchor="middle" x="117" y="-159.786" font-family="Times,serif" font-size="14.00" fill="#000000">functor_equalizer</text>
</a>
</g>
</g>
<!-- Equalizer_functor_equalizer&#45;&gt;Equalizer_Equalizer -->
<g id="edge2" class="edge">
<title>Equalizer_functor_equalizer&#45;&gt;Equalizer_Equalizer</title>
<path fill="none" stroke="#000000" d="M144.4318,-138.2488C165.7161,-118.6672 195.0231,-91.7048 215.9496,-72.4524"/>
<polygon fill="#000000" stroke="#000000" points="218.5357,-74.8291 223.5254,-65.4827 213.7963,-69.6775 218.5357,-74.8291"/>
</g>
</g>
</svg>
