<?xml version="1.0" encoding="UTF-8" standalone="no"?>
<!DOCTYPE svg PUBLIC "-//W3C//DTD SVG 1.1//EN"
 "http://www.w3.org/Graphics/SVG/1.1/DTD/svg11.dtd">
<!-- Generated by graphviz version 2.40.1 (20161225.0304)
 -->
<!-- Title: HoTT_Classes_tactics_ring_tac Pages: 1 -->
<svg width="1421pt" height="715pt"
 viewBox="0.00 0.00 1421.00 714.50" xmlns="http://www.w3.org/2000/svg" xmlns:xlink="http://www.w3.org/1999/xlink">
<g id="graph0" class="graph" transform="scale(1 1) rotate(0) translate(4 710.5)">
<title>HoTT_Classes_tactics_ring_tac</title>
<polygon fill="#ffffff" stroke="transparent" points="-4,4 -4,-710.5 1417,-710.5 1417,4 -4,4"/>
<g id="clust1" class="cluster">
<title>cluster_ring_tac</title>
<polygon fill="#ffffc3" stroke="#000000" points="8,-31.5754 8,-674.9246 1405,-674.9246 1405,-31.5754 8,-31.5754"/>
<text text-anchor="middle" x="46" y="-659.7246" font-family="Times,serif" font-size="14.00" fill="#000000">ring_tac</text>
</g>
<!-- ring_tac_ring_mor_almostring_mor -->
<g id="node1" class="node">
<title>ring_tac_ring_mor_almostring_mor</title>
<g id="a_node1"><a xlink:href="ring_tac.html#ring_mor_almostring_mor" xlink:title="ring_mor_almostring_mor">
<ellipse fill="#f070d1" stroke="#000000" cx="1257" cy="-449.5754" rx="131.8801" ry="18"/>
<ellipse fill="none" stroke="#000000" cx="1257" cy="-449.5754" rx="135.8784" ry="22"/>
<ellipse fill="none" stroke="#000000" cx="1257" cy="-449.5754" rx="139.8766" ry="26"/>
<text text-anchor="middle" x="1257" y="-445.8754" font-family="Times,serif" font-size="14.00" fill="#000000">ring_mor_almostring_mor</text>
</a>
</g>
</g>
<!-- ring_tac_negate_almostneg -->
<g id="node5" class="node">
<title>ring_tac_negate_almostneg</title>
<g id="a_node5"><a xlink:href="ring_tac.html#negate_almostneg" xlink:title="negate_almostneg">
<ellipse fill="#f070d1" stroke="#000000" cx="1131" cy="-134.5754" rx="95.5831" ry="18"/>
<text text-anchor="middle" x="1131" y="-130.8754" font-family="Times,serif" font-size="14.00" fill="#000000">negate_almostneg</text>
</a>
</g>
</g>
<!-- ring_tac_ring_mor_almostring_mor&#45;&gt;ring_tac_negate_almostneg -->
<g id="edge1" class="edge">
<title>ring_tac_ring_mor_almostring_mor&#45;&gt;ring_tac_negate_almostneg</title>
<path fill="none" stroke="#000000" d="M1246.5817,-423.5297C1223.1166,-364.867 1166.2967,-222.8172 1142.1527,-162.4571"/>
<polygon fill="#000000" stroke="#000000" points="1145.2669,-160.8184 1138.3032,-152.8335 1138.7675,-163.4182 1145.2669,-160.8184"/>
</g>
<!-- ring_tac_sr_mor_almostring_mor -->
<g id="node2" class="node">
<title>ring_tac_sr_mor_almostring_mor</title>
<g id="a_node2"><a xlink:href="ring_tac.html#sr_mor_almostring_mor" xlink:title="sr_mor_almostring_mor">
<ellipse fill="#f070d1" stroke="#000000" cx="765" cy="-449.5754" rx="122.367" ry="18"/>
<ellipse fill="none" stroke="#000000" cx="765" cy="-449.5754" rx="126.3728" ry="22"/>
<ellipse fill="none" stroke="#000000" cx="765" cy="-449.5754" rx="130.3786" ry="26"/>
<text text-anchor="middle" x="765" y="-445.8754" font-family="Times,serif" font-size="14.00" fill="#000000">sr_mor_almostring_mor</text>
</a>
</g>
</g>
<!-- ring_tac_default_almostneg -->
<g id="node6" class="node">
<title>ring_tac_default_almostneg</title>
<g id="a_node6"><a xlink:href="ring_tac.html#default_almostneg" xlink:title="default_almostneg">
<ellipse fill="#f070d1" stroke="#000000" cx="639" cy="-134.5754" rx="96.6831" ry="18"/>
<text text-anchor="middle" x="639" y="-130.8754" font-family="Times,serif" font-size="14.00" fill="#000000">default_almostneg</text>
</a>
</g>
</g>
<!-- ring_tac_sr_mor_almostring_mor&#45;&gt;ring_tac_default_almostneg -->
<g id="edge2" class="edge">
<title>ring_tac_sr_mor_almostring_mor&#45;&gt;ring_tac_default_almostneg</title>
<path fill="none" stroke="#000000" d="M754.5817,-423.5297C731.1166,-364.867 674.2967,-222.8172 650.1527,-162.4571"/>
<polygon fill="#000000" stroke="#000000" points="653.2669,-160.8184 646.3032,-152.8335 646.7675,-163.4182 653.2669,-160.8184"/>
</g>
<!-- ring_tac_ring_almostring -->
<g id="node3" class="node">
<title>ring_tac_ring_almostring</title>
<g id="a_node3"><a xlink:href="ring_tac.html#ring_almostring" xlink:title="ring_almostring">
<ellipse fill="#f070d1" stroke="#000000" cx="1006" cy="-449.5754" rx="85.2729" ry="18"/>
<ellipse fill="none" stroke="#000000" cx="1006" cy="-449.5754" rx="89.279" ry="22"/>
<ellipse fill="none" stroke="#000000" cx="1006" cy="-449.5754" rx="93.2851" ry="26"/>
<text text-anchor="middle" x="1006" y="-445.8754" font-family="Times,serif" font-size="14.00" fill="#000000">ring_almostring</text>
</a>
</g>
</g>
<!-- ring_tac_ring_almostring&#45;&gt;ring_tac_negate_almostneg -->
<g id="edge3" class="edge">
<title>ring_tac_ring_almostring&#45;&gt;ring_tac_negate_almostneg</title>
<path fill="none" stroke="#000000" d="M1016.3356,-423.5297C1039.6145,-364.867 1095.9834,-222.8172 1119.9359,-162.4571"/>
<polygon fill="#000000" stroke="#000000" points="1123.3194,-163.4194 1123.7547,-152.8335 1116.813,-160.8374 1123.3194,-163.4194"/>
</g>
<!-- ring_tac_semiring_almostring -->
<g id="node4" class="node">
<title>ring_tac_semiring_almostring</title>
<g id="a_node4"><a xlink:href="ring_tac.html#semiring_almostring" xlink:title="semiring_almostring">
<ellipse fill="#f070d1" stroke="#000000" cx="502" cy="-449.5754" rx="106.6748" ry="18"/>
<ellipse fill="none" stroke="#000000" cx="502" cy="-449.5754" rx="110.678" ry="22"/>
<ellipse fill="none" stroke="#000000" cx="502" cy="-449.5754" rx="114.6812" ry="26"/>
<text text-anchor="middle" x="502" y="-445.8754" font-family="Times,serif" font-size="14.00" fill="#000000">semiring_almostring</text>
</a>
</g>
</g>
<!-- ring_tac_semiring_almostring&#45;&gt;ring_tac_default_almostneg -->
<g id="edge4" class="edge">
<title>ring_tac_semiring_almostring&#45;&gt;ring_tac_default_almostneg</title>
<path fill="none" stroke="#000000" d="M513.3278,-423.5297C538.8942,-364.7458 600.8773,-222.2298 627.036,-162.084"/>
<polygon fill="#000000" stroke="#000000" points="630.2804,-163.3997 631.0592,-152.8335 623.8612,-160.6078 630.2804,-163.3997"/>
</g>
<!-- ring_tac_prove_prequoted -->
<g id="node7" class="node">
<title>ring_tac_prove_prequoted</title>
<g id="a_node7"><a xlink:href="ring_tac.html#prove_prequoted" xlink:title="prove_prequoted">
<ellipse fill="#f070d1" stroke="#000000" cx="272" cy="-449.5754" rx="89.8687" ry="18"/>
<ellipse fill="none" stroke="#000000" cx="272" cy="-449.5754" rx="93.8766" ry="22"/>
<ellipse fill="none" stroke="#000000" cx="272" cy="-449.5754" rx="97.8845" ry="26"/>
<text text-anchor="middle" x="272" y="-445.8754" font-family="Times,serif" font-size="14.00" fill="#000000">prove_prequoted</text>
</a>
</g>
</g>
<!-- ring_tac_normalize_prequoted -->
<g id="node8" class="node">
<title>ring_tac_normalize_prequoted</title>
<g id="a_node8"><a xlink:href="ring_tac.html#normalize_prequoted" xlink:title="normalize_prequoted">
<ellipse fill="#f070d1" stroke="#000000" cx="289" cy="-134.5754" rx="109.381" ry="18"/>
<text text-anchor="middle" x="289" y="-130.8754" font-family="Times,serif" font-size="14.00" fill="#000000">normalize_prequoted</text>
</a>
</g>
</g>
<!-- ring_tac_prove_prequoted&#45;&gt;ring_tac_normalize_prequoted -->
<g id="edge5" class="edge">
<title>ring_tac_prove_prequoted&#45;&gt;ring_tac_normalize_prequoted</title>
<path fill="none" stroke="#000000" d="M273.4056,-423.5297C276.565,-364.9882 284.2061,-223.4038 287.475,-162.8322"/>
<polygon fill="#000000" stroke="#000000" points="290.9706,-163.0076 288.0146,-152.8335 283.9807,-162.6303 290.9706,-163.0076"/>
</g>
<!-- ring_tac_by_quoting -->
<g id="node9" class="node">
<title>ring_tac_by_quoting</title>
<g id="a_node9"><a xlink:href="ring_tac.html#by_quoting" xlink:title="by_quoting">
<ellipse fill="#f070d1" stroke="#000000" cx="86" cy="-449.5754" rx="62.3011" ry="18"/>
<ellipse fill="none" stroke="#000000" cx="86" cy="-449.5754" rx="66.2951" ry="22"/>
<ellipse fill="none" stroke="#000000" cx="86" cy="-449.5754" rx="70.2891" ry="26"/>
<text text-anchor="middle" x="86" y="-445.8754" font-family="Times,serif" font-size="14.00" fill="#000000">by_quoting</text>
</a>
</g>
</g>
<!-- ring_tac_normalize_eq -->
<g id="node10" class="node">
<title>ring_tac_normalize_eq</title>
<g id="a_node10"><a xlink:href="ring_tac.html#normalize_eq" xlink:title="normalize_eq">
<ellipse fill="#f070d1" stroke="#000000" cx="89" cy="-134.5754" rx="72.5877" ry="18"/>
<text text-anchor="middle" x="89" y="-130.8754" font-family="Times,serif" font-size="14.00" fill="#000000">normalize_eq</text>
</a>
</g>
</g>
<!-- ring_tac_by_quoting&#45;&gt;ring_tac_normalize_eq -->
<g id="edge6" class="edge">
<title>ring_tac_by_quoting&#45;&gt;ring_tac_normalize_eq</title>
<path fill="none" stroke="#000000" d="M86.2481,-423.5297C86.8044,-365.1094 88.1484,-223.9897 88.7273,-163.2095"/>
<polygon fill="#000000" stroke="#000000" points="92.2306,-162.8664 88.8261,-152.8335 85.2309,-162.7997 92.2306,-162.8664"/>
</g>
</g>
</svg>
