<?xml version="1.0" encoding="UTF-8" standalone="no"?>
<!DOCTYPE svg PUBLIC "-//W3C//DTD SVG 1.1//EN"
 "http://www.w3.org/Graphics/SVG/1.1/DTD/svg11.dtd">
<!-- Generated by graphviz version 2.40.1 (20161225.0304)
 -->
<!-- Title: HoTT_Algebra_AbGroups_AbSES_Ext Pages: 1 -->
<svg width="510pt" height="259pt"
 viewBox="0.00 0.00 510.00 259.00" xmlns="http://www.w3.org/2000/svg" xmlns:xlink="http://www.w3.org/1999/xlink">
<g id="graph0" class="graph" transform="scale(1 1) rotate(0) translate(4 255)">
<title>HoTT_Algebra_AbGroups_AbSES_Ext</title>
<polygon fill="#ffffff" stroke="transparent" points="-4,4 -4,-255 506,-255 506,4 -4,4"/>
<g id="clust1" class="cluster">
<title>cluster_Ext</title>
<polygon fill="#ffffc3" stroke="#000000" points="14.5507,-8 14.5507,-243 487.4493,-243 487.4493,-8 14.5507,-8"/>
<text text-anchor="middle" x="35.0507" y="-227.8" font-family="Times,serif" font-size="14.00" fill="#000000">Ext</text>
</g>
<!-- Ext_iff_ab_ext_trivial_split -->
<g id="node1" class="node">
<title>Ext_iff_ab_ext_trivial_split</title>
<g id="a_node1"><a xlink:href="Ext.html#iff_ab_ext_trivial_split" xlink:title="iff_ab_ext_trivial_split">
<ellipse fill="#f070d1" stroke="#000000" cx="251.058" cy="-186" rx="114.287" ry="18"/>
<ellipse fill="none" stroke="#000000" cx="251.058" cy="-186" rx="118.2834" ry="22"/>
<ellipse fill="none" stroke="#000000" cx="251.058" cy="-186" rx="122.2798" ry="26"/>
<text text-anchor="middle" x="251.058" y="-182.3" font-family="Times,serif" font-size="14.00" fill="#000000">iff_ab_ext_trivial_split</text>
</a>
</g>
</g>
<!-- Ext_ispointed_ext -->
<g id="node2" class="node">
<title>Ext_ispointed_ext</title>
<g id="a_node2"><a xlink:href="Ext.html#ispointed_ext" xlink:title="ispointed_ext">
<ellipse fill="#f070d1" stroke="#000000" cx="251.058" cy="-106" rx="73.387" ry="18"/>
<text text-anchor="middle" x="251.058" y="-102.3" font-family="Times,serif" font-size="14.00" fill="#000000">ispointed_ext</text>
</a>
</g>
</g>
<!-- Ext_iff_ab_ext_trivial_split&#45;&gt;Ext_ispointed_ext -->
<g id="edge1" class="edge">
<title>Ext_iff_ab_ext_trivial_split&#45;&gt;Ext_ispointed_ext</title>
<path fill="none" stroke="#000000" d="M251.058,-159.805C251.058,-151.6026 251.058,-142.5174 251.058,-134.1839"/>
<polygon fill="#000000" stroke="#000000" points="254.5581,-134.1532 251.058,-124.1532 247.5581,-134.1533 254.5581,-134.1532"/>
</g>
<!-- Ext_Ext -->
<g id="node3" class="node">
<title>Ext_Ext</title>
<g id="a_node3"><a xlink:href="Ext.html#Ext" xlink:title="Ext">
<ellipse fill="#f070d1" stroke="#000000" cx="251.058" cy="-34" rx="27" ry="18"/>
<text text-anchor="middle" x="251.058" y="-30.3" font-family="Times,serif" font-size="14.00" fill="#000000">Ext</text>
</a>
</g>
</g>
<!-- Ext_ispointed_ext&#45;&gt;Ext_Ext -->
<g id="edge2" class="edge">
<title>Ext_ispointed_ext&#45;&gt;Ext_Ext</title>
<path fill="none" stroke="#000000" d="M251.058,-87.8314C251.058,-80.131 251.058,-70.9743 251.058,-62.4166"/>
<polygon fill="#000000" stroke="#000000" points="254.5581,-62.4132 251.058,-52.4133 247.5581,-62.4133 254.5581,-62.4132"/>
</g>
</g>
</svg>
