<?xml version="1.0" encoding="UTF-8" standalone="no"?>
<!DOCTYPE svg PUBLIC "-//W3C//DTD SVG 1.1//EN"
 "http://www.w3.org/Graphics/SVG/1.1/DTD/svg11.dtd">
<!-- Generated by graphviz version 2.40.1 (20161225.0304)
 -->
<!-- Title: HoTT_Classes_tactics_ring_pol Pages: 1 -->
<svg width="1934pt" height="971pt"
 viewBox="0.00 0.00 1934.00 971.00" xmlns="http://www.w3.org/2000/svg" xmlns:xlink="http://www.w3.org/1999/xlink">
<g id="graph0" class="graph" transform="scale(1 1) rotate(0) translate(4 967)">
<title>HoTT_Classes_tactics_ring_pol</title>
<polygon fill="#ffffff" stroke="transparent" points="-4,4 -4,-967 1930,-967 1930,4 -4,4"/>
<g id="clust1" class="cluster">
<title>cluster_ring_pol</title>
<polygon fill="#ffffc3" stroke="#000000" points="15.0616,-8 15.0616,-955 1910.9384,-955 1910.9384,-8 15.0616,-8"/>
<text text-anchor="middle" x="52.5616" y="-939.8" font-family="Times,serif" font-size="14.00" fill="#000000">ring_pol</text>
</g>
<!-- ring_pol_eval_toPol -->
<g id="node1" class="node">
<title>ring_pol_eval_toPol</title>
<g id="a_node1"><a xlink:href="ring_pol.html#eval_toPol" xlink:title="eval_toPol">
<ellipse fill="#f070d1" stroke="#000000" cx="996.1408" cy="-898" rx="57.7089" ry="18"/>
<ellipse fill="none" stroke="#000000" cx="996.1408" cy="-898" rx="61.6995" ry="22"/>
<ellipse fill="none" stroke="#000000" cx="996.1408" cy="-898" rx="65.6901" ry="26"/>
<text text-anchor="middle" x="996.1408" y="-894.3" font-family="Times,serif" font-size="14.00" fill="#000000">eval_toPol</text>
</a>
</g>
</g>
<!-- ring_pol_toPol -->
<g id="node2" class="node">
<title>ring_pol_toPol</title>
<g id="a_node2"><a xlink:href="ring_pol.html#toPol" xlink:title="toPol">
<ellipse fill="#f070d1" stroke="#000000" cx="1065.1408" cy="-586" rx="34.394" ry="18"/>
<text text-anchor="middle" x="1065.1408" y="-582.3" font-family="Times,serif" font-size="14.00" fill="#000000">toPol</text>
</a>
</g>
</g>
<!-- ring_pol_eval_toPol&#45;&gt;ring_pol_toPol -->
<g id="edge1" class="edge">
<title>ring_pol_eval_toPol&#45;&gt;ring_pol_toPol</title>
<path fill="none" stroke="#000000" d="M1001.905,-871.9357C1014.7686,-813.7696 1045.7247,-673.7945 1058.9648,-613.926"/>
<polygon fill="#000000" stroke="#000000" points="1062.4083,-614.5635 1061.1503,-604.0436 1055.5735,-613.0519 1062.4083,-614.5635"/>
</g>
<!-- ring_pol_eval_mul -->
<g id="node3" class="node">
<title>ring_pol_eval_mul</title>
<g id="a_node3"><a xlink:href="ring_pol.html#eval_mul" xlink:title="eval_mul">
<ellipse fill="#f070d1" stroke="#000000" cx="930.1408" cy="-818" rx="51.9908" ry="18"/>
<text text-anchor="middle" x="930.1408" y="-814.3" font-family="Times,serif" font-size="14.00" fill="#000000">eval_mul</text>
</a>
</g>
</g>
<!-- ring_pol_eval_toPol&#45;&gt;ring_pol_eval_mul -->
<g id="edge2" class="edge">
<title>ring_pol_eval_toPol&#45;&gt;ring_pol_eval_mul</title>
<path fill="none" stroke="#000000" d="M975.6197,-873.126C967.8931,-863.7604 959.0961,-853.0974 951.3114,-843.6614"/>
<polygon fill="#000000" stroke="#000000" points="953.8469,-841.2348 944.7832,-835.7484 948.4472,-845.6895 953.8469,-841.2348"/>
</g>
<!-- ring_pol_mul -->
<g id="node5" class="node">
<title>ring_pol_mul</title>
<g id="a_node5"><a xlink:href="ring_pol.html#mul" xlink:title="mul">
<ellipse fill="#f070d1" stroke="#000000" cx="998.1408" cy="-514" rx="28.6953" ry="18"/>
<text text-anchor="middle" x="998.1408" y="-510.3" font-family="Times,serif" font-size="14.00" fill="#000000">mul</text>
</a>
</g>
</g>
<!-- ring_pol_toPol&#45;&gt;ring_pol_mul -->
<g id="edge3" class="edge">
<title>ring_pol_toPol&#45;&gt;ring_pol_mul</title>
<path fill="none" stroke="#000000" d="M1049.9374,-569.6621C1040.9898,-560.0467 1029.5301,-547.7318 1019.6657,-537.1312"/>
<polygon fill="#000000" stroke="#000000" points="1022.1981,-534.7148 1012.8235,-529.7784 1017.0736,-539.4835 1022.1981,-534.7148"/>
</g>
<!-- ring_pol_P1 -->
<g id="node31" class="node">
<title>ring_pol_P1</title>
<g id="a_node31"><a xlink:href="ring_pol.html#P1" xlink:title="P1">
<ellipse fill="#f070d1" stroke="#000000" cx="1845.1408" cy="-186" rx="27" ry="18"/>
<text text-anchor="middle" x="1845.1408" y="-182.3" font-family="Times,serif" font-size="14.00" fill="#000000">P1</text>
</a>
</g>
</g>
<!-- ring_pol_toPol&#45;&gt;ring_pol_P1 -->
<g id="edge4" class="edge">
<title>ring_pol_toPol&#45;&gt;ring_pol_P1</title>
<path fill="none" stroke="#000000" d="M1099.6889,-585.517C1230.9229,-582.7656 1691.1408,-564.392 1691.1408,-442 1691.1408,-442 1691.1408,-442 1691.1408,-362 1691.1408,-287.5506 1770.1511,-229.4566 1814.9851,-202.4845"/>
<polygon fill="#000000" stroke="#000000" points="1816.8719,-205.4356 1823.7277,-197.3579 1813.331,-199.3972 1816.8719,-205.4356"/>
</g>
<!-- ring_pol_eval_mul_ -->
<g id="node4" class="node">
<title>ring_pol_eval_mul_</title>
<g id="a_node4"><a xlink:href="ring_pol.html#eval_mul'" xlink:title="eval_mul&#39;">
<ellipse fill="#f070d1" stroke="#000000" cx="926.1408" cy="-738" rx="54.6905" ry="18"/>
<text text-anchor="middle" x="926.1408" y="-734.3" font-family="Times,serif" font-size="14.00" fill="#000000">eval_mul&#39;</text>
</a>
</g>
</g>
<!-- ring_pol_eval_mul&#45;&gt;ring_pol_eval_mul_ -->
<g id="edge5" class="edge">
<title>ring_pol_eval_mul&#45;&gt;ring_pol_eval_mul_</title>
<path fill="none" stroke="#000000" d="M929.2331,-799.8468C928.737,-789.9251 928.1116,-777.4167 927.5532,-766.2492"/>
<polygon fill="#000000" stroke="#000000" points="931.0399,-765.8941 927.0448,-756.0814 924.0487,-766.2437 931.0399,-765.8941"/>
</g>
<!-- ring_pol_eval_mul_&#45;&gt;ring_pol_mul -->
<g id="edge6" class="edge">
<title>ring_pol_eval_mul_&#45;&gt;ring_pol_mul</title>
<path fill="none" stroke="#000000" d="M927.5005,-719.9323C930.4034,-688.0954 938.8644,-620.4137 961.1408,-568 965.5874,-557.5376 972.2083,-547.0066 978.6253,-538.0581"/>
<polygon fill="#000000" stroke="#000000" points="981.4523,-540.122 984.6377,-530.0173 975.8462,-535.9301 981.4523,-540.122"/>
</g>
<!-- ring_pol_eval_mulX -->
<g id="node8" class="node">
<title>ring_pol_eval_mulX</title>
<g id="a_node8"><a xlink:href="ring_pol.html#eval_mulX" xlink:title="eval_mulX">
<ellipse fill="#f070d1" stroke="#000000" cx="324.1408" cy="-658" rx="59.2899" ry="18"/>
<text text-anchor="middle" x="324.1408" y="-654.3" font-family="Times,serif" font-size="14.00" fill="#000000">eval_mulX</text>
</a>
</g>
</g>
<!-- ring_pol_eval_mul_&#45;&gt;ring_pol_eval_mulX -->
<g id="edge7" class="edge">
<title>ring_pol_eval_mul_&#45;&gt;ring_pol_eval_mulX</title>
<path fill="none" stroke="#000000" d="M875.3334,-731.2482C766.1225,-716.7351 509.1685,-682.5884 388.658,-666.5737"/>
<polygon fill="#000000" stroke="#000000" points="388.8496,-663.0685 378.4756,-665.2206 387.9274,-670.0075 388.8496,-663.0685"/>
</g>
<!-- ring_pol_eval_add -->
<g id="node10" class="node">
<title>ring_pol_eval_add</title>
<g id="a_node10"><a xlink:href="ring_pol.html#eval_add" xlink:title="eval_add">
<ellipse fill="#f070d1" stroke="#000000" cx="608.1408" cy="-658" rx="51.9908" ry="18"/>
<text text-anchor="middle" x="608.1408" y="-654.3" font-family="Times,serif" font-size="14.00" fill="#000000">eval_add</text>
</a>
</g>
</g>
<!-- ring_pol_eval_mul_&#45;&gt;ring_pol_eval_add -->
<g id="edge8" class="edge">
<title>ring_pol_eval_mul_&#45;&gt;ring_pol_eval_add</title>
<path fill="none" stroke="#000000" d="M882.591,-727.0441C824.6641,-712.4713 722.3811,-686.7397 660.3723,-671.14"/>
<polygon fill="#000000" stroke="#000000" points="660.957,-667.6781 650.4053,-668.6326 659.2492,-674.4666 660.957,-667.6781"/>
</g>
<!-- ring_pol_eval_mulC -->
<g id="node15" class="node">
<title>ring_pol_eval_mulC</title>
<g id="a_node15"><a xlink:href="ring_pol.html#eval_mulC" xlink:title="eval_mulC">
<ellipse fill="#f070d1" stroke="#000000" cx="1197.1408" cy="-514" rx="59.5901" ry="18"/>
<text text-anchor="middle" x="1197.1408" y="-510.3" font-family="Times,serif" font-size="14.00" fill="#000000">eval_mulC</text>
</a>
</g>
</g>
<!-- ring_pol_eval_mul_&#45;&gt;ring_pol_eval_mulC -->
<g id="edge9" class="edge">
<title>ring_pol_eval_mul_&#45;&gt;ring_pol_eval_mulC</title>
<path fill="none" stroke="#000000" d="M931.3792,-719.9055C942.3525,-685.2123 971.0611,-609.1389 1022.1408,-568 1053.018,-543.1319 1095.3336,-529.678 1130.6195,-522.4189"/>
<polygon fill="#000000" stroke="#000000" points="1131.6902,-525.7769 1140.8457,-520.4453 1130.3636,-518.9037 1131.6902,-525.7769"/>
</g>
<!-- ring_pol_mulX -->
<g id="node9" class="node">
<title>ring_pol_mulX</title>
<g id="a_node9"><a xlink:href="ring_pol.html#mulX" xlink:title="mulX">
<ellipse fill="#f070d1" stroke="#000000" cx="358.1408" cy="-442" rx="35.194" ry="18"/>
<text text-anchor="middle" x="358.1408" y="-438.3" font-family="Times,serif" font-size="14.00" fill="#000000">mulX</text>
</a>
</g>
</g>
<!-- ring_pol_mul&#45;&gt;ring_pol_mulX -->
<g id="edge10" class="edge">
<title>ring_pol_mul&#45;&gt;ring_pol_mulX</title>
<path fill="none" stroke="#000000" d="M970.0256,-510.2311C941.022,-506.4029 894.462,-500.424 854.1408,-496 685.0678,-477.4495 641.9069,-481.1609 473.1408,-460 449.5334,-457.04 423.3167,-452.9954 401.8838,-449.49"/>
<polygon fill="#000000" stroke="#000000" points="402.2159,-445.9975 391.7789,-447.8195 401.0742,-452.9037 402.2159,-445.9975"/>
</g>
<!-- ring_pol_add -->
<g id="node13" class="node">
<title>ring_pol_add</title>
<g id="a_node13"><a xlink:href="ring_pol.html#add" xlink:title="add">
<ellipse fill="#f070d1" stroke="#000000" cx="510.1408" cy="-442" rx="27.8951" ry="18"/>
<text text-anchor="middle" x="510.1408" y="-438.3" font-family="Times,serif" font-size="14.00" fill="#000000">add</text>
</a>
</g>
</g>
<!-- ring_pol_mul&#45;&gt;ring_pol_add -->
<g id="edge11" class="edge">
<title>ring_pol_mul&#45;&gt;ring_pol_add</title>
<path fill="none" stroke="#000000" d="M970.151,-509.8704C886.992,-497.601 641.3581,-461.3599 547.3324,-447.4873"/>
<polygon fill="#000000" stroke="#000000" points="547.8176,-444.0211 537.4138,-446.0239 546.7958,-450.9461 547.8176,-444.0211"/>
</g>
<!-- ring_pol_mulC -->
<g id="node16" class="node">
<title>ring_pol_mulC</title>
<g id="a_node16"><a xlink:href="ring_pol.html#mulC" xlink:title="mulC">
<ellipse fill="#f070d1" stroke="#000000" cx="1146.1408" cy="-442" rx="35.9954" ry="18"/>
<text text-anchor="middle" x="1146.1408" y="-438.3" font-family="Times,serif" font-size="14.00" fill="#000000">mulC</text>
</a>
</g>
</g>
<!-- ring_pol_mul&#45;&gt;ring_pol_mulC -->
<g id="edge12" class="edge">
<title>ring_pol_mul&#45;&gt;ring_pol_mulC</title>
<path fill="none" stroke="#000000" d="M1020.9414,-502.9078C1045.0545,-491.1771 1083.3937,-472.5256 1111.2984,-458.9503"/>
<polygon fill="#000000" stroke="#000000" points="1112.8649,-462.0805 1120.3261,-454.5585 1109.8026,-455.7859 1112.8649,-462.0805"/>
</g>
<!-- ring_pol_eval_mkPX -->
<g id="node6" class="node">
<title>ring_pol_eval_mkPX</title>
<g id="a_node6"><a xlink:href="ring_pol.html#eval_mkPX" xlink:title="eval_mkPX">
<ellipse fill="#f070d1" stroke="#000000" cx="471.1408" cy="-738" rx="62.3011" ry="18"/>
<ellipse fill="none" stroke="#000000" cx="471.1408" cy="-738" rx="66.2951" ry="22"/>
<ellipse fill="none" stroke="#000000" cx="471.1408" cy="-738" rx="70.2891" ry="26"/>
<text text-anchor="middle" x="471.1408" y="-734.3" font-family="Times,serif" font-size="14.00" fill="#000000">eval_mkPX</text>
</a>
</g>
</g>
<!-- ring_pol_mkPX -->
<g id="node7" class="node">
<title>ring_pol_mkPX</title>
<g id="a_node7"><a xlink:href="ring_pol.html#mkPX" xlink:title="mkPX">
<ellipse fill="#f070d1" stroke="#000000" cx="454.1408" cy="-514" rx="38.1938" ry="18"/>
<text text-anchor="middle" x="454.1408" y="-510.3" font-family="Times,serif" font-size="14.00" fill="#000000">mkPX</text>
</a>
</g>
</g>
<!-- ring_pol_eval_mkPX&#45;&gt;ring_pol_mkPX -->
<g id="edge13" class="edge">
<title>ring_pol_eval_mkPX&#45;&gt;ring_pol_mkPX</title>
<path fill="none" stroke="#000000" d="M469.1574,-711.866C465.9438,-669.5222 459.6244,-586.2555 456.3009,-542.4628"/>
<polygon fill="#000000" stroke="#000000" points="459.771,-541.9349 455.5242,-532.2285 452.7911,-542.4647 459.771,-541.9349"/>
</g>
<!-- ring_pol_eval_mkPX&#45;&gt;ring_pol_eval_mulX -->
<g id="edge14" class="edge">
<title>ring_pol_eval_mkPX&#45;&gt;ring_pol_eval_mulX</title>
<path fill="none" stroke="#000000" d="M431.3604,-716.3508C409.8807,-704.6612 383.4957,-690.302 362.2748,-678.7532"/>
<polygon fill="#000000" stroke="#000000" points="363.6824,-675.5345 353.2258,-673.8286 360.3362,-681.683 363.6824,-675.5345"/>
</g>
<!-- ring_pol_eval_mkPX&#45;&gt;ring_pol_eval_add -->
<g id="edge15" class="edge">
<title>ring_pol_eval_mkPX&#45;&gt;ring_pol_eval_add</title>
<path fill="none" stroke="#000000" d="M508.9393,-715.9279C528.7675,-704.3493 552.923,-690.2439 572.4333,-678.8511"/>
<polygon fill="#000000" stroke="#000000" points="574.4472,-681.7282 581.3178,-673.6631 570.9173,-675.6833 574.4472,-681.7282"/>
</g>
<!-- ring_pol_mkPX&#45;&gt;ring_pol_mulX -->
<g id="edge16" class="edge">
<title>ring_pol_mkPX&#45;&gt;ring_pol_mulX</title>
<path fill="none" stroke="#000000" d="M433.7816,-498.7307C419.9428,-488.3515 401.454,-474.4849 386.2198,-463.0593"/>
<polygon fill="#000000" stroke="#000000" points="388.2414,-460.2005 378.1414,-457.0004 384.0414,-465.8005 388.2414,-460.2005"/>
</g>
<!-- ring_pol_mkPX&#45;&gt;ring_pol_add -->
<g id="edge17" class="edge">
<title>ring_pol_mkPX&#45;&gt;ring_pol_add</title>
<path fill="none" stroke="#000000" d="M467.412,-496.937C474.4872,-487.8403 483.3163,-476.4886 491.1092,-466.4691"/>
<polygon fill="#000000" stroke="#000000" points="493.9736,-468.4873 497.3503,-458.4449 488.4481,-464.1897 493.9736,-468.4873"/>
</g>
<!-- ring_pol_eval_mulX&#45;&gt;ring_pol_mulX -->
<g id="edge18" class="edge">
<title>ring_pol_eval_mulX&#45;&gt;ring_pol_mulX</title>
<path fill="none" stroke="#000000" d="M326.9811,-639.9555C332.9061,-602.3144 346.6206,-515.1867 353.7137,-470.1246"/>
<polygon fill="#000000" stroke="#000000" points="357.187,-470.5677 355.2846,-460.1451 350.2722,-469.4792 357.187,-470.5677"/>
</g>
<!-- ring_pol_eval_addX -->
<g id="node19" class="node">
<title>ring_pol_eval_addX</title>
<g id="a_node19"><a xlink:href="ring_pol.html#eval_addX" xlink:title="eval_addX">
<ellipse fill="#f070d1" stroke="#000000" cx="147.1408" cy="-442" rx="58.4896" ry="18"/>
<text text-anchor="middle" x="147.1408" y="-438.3" font-family="Times,serif" font-size="14.00" fill="#000000">eval_addX</text>
</a>
</g>
</g>
<!-- ring_pol_eval_mulX&#45;&gt;ring_pol_eval_addX -->
<g id="edge19" class="edge">
<title>ring_pol_eval_mulX&#45;&gt;ring_pol_eval_addX</title>
<path fill="none" stroke="#000000" d="M309.6561,-640.3238C278.3974,-602.1776 204.5056,-512.0046 168.1229,-467.6054"/>
<polygon fill="#000000" stroke="#000000" points="170.6228,-465.1339 161.5773,-459.6175 165.2084,-469.5707 170.6228,-465.1339"/>
</g>
<!-- ring_pol_addX -->
<g id="node21" class="node">
<title>ring_pol_addX</title>
<g id="a_node21"><a xlink:href="ring_pol.html#addX" xlink:title="addX">
<ellipse fill="#f070d1" stroke="#000000" cx="359.1408" cy="-362" rx="34.394" ry="18"/>
<text text-anchor="middle" x="359.1408" y="-358.3" font-family="Times,serif" font-size="14.00" fill="#000000">addX</text>
</a>
</g>
</g>
<!-- ring_pol_mulX&#45;&gt;ring_pol_addX -->
<g id="edge20" class="edge">
<title>ring_pol_mulX&#45;&gt;ring_pol_addX</title>
<path fill="none" stroke="#000000" d="M358.3677,-423.8468C358.4917,-413.9251 358.6481,-401.4167 358.7876,-390.2492"/>
<polygon fill="#000000" stroke="#000000" points="362.2894,-390.1244 358.9147,-380.0814 355.2899,-390.0368 362.2894,-390.1244"/>
</g>
<!-- ring_pol_P0 -->
<g id="node32" class="node">
<title>ring_pol_P0</title>
<g id="a_node32"><a xlink:href="ring_pol.html#P0" xlink:title="P0">
<ellipse fill="#f070d1" stroke="#000000" cx="284.1408" cy="-186" rx="27" ry="18"/>
<text text-anchor="middle" x="284.1408" y="-182.3" font-family="Times,serif" font-size="14.00" fill="#000000">P0</text>
</a>
</g>
</g>
<!-- ring_pol_mulX&#45;&gt;ring_pol_P0 -->
<g id="edge21" class="edge">
<title>ring_pol_mulX&#45;&gt;ring_pol_P0</title>
<path fill="none" stroke="#000000" d="M375.7951,-426.3968C385.6064,-416.5051 396.8705,-402.8113 402.1408,-388 409.8884,-366.2262 409.7014,-357.8394 402.1408,-336 383.7119,-282.7671 337.716,-234.0816 308.8972,-207.3824"/>
<polygon fill="#000000" stroke="#000000" points="311.0178,-204.5803 301.2615,-200.4493 306.3122,-209.7628 311.0178,-204.5803"/>
</g>
<!-- ring_pol_eval_add_ -->
<g id="node11" class="node">
<title>ring_pol_eval_add_</title>
<g id="a_node11"><a xlink:href="ring_pol.html#eval_add'" xlink:title="eval_add&#39;">
<ellipse fill="#f070d1" stroke="#000000" cx="608.1408" cy="-586" rx="53.8905" ry="18"/>
<text text-anchor="middle" x="608.1408" y="-582.3" font-family="Times,serif" font-size="14.00" fill="#000000">eval_add&#39;</text>
</a>
</g>
</g>
<!-- ring_pol_eval_add&#45;&gt;ring_pol_eval_add_ -->
<g id="edge22" class="edge">
<title>ring_pol_eval_add&#45;&gt;ring_pol_eval_add_</title>
<path fill="none" stroke="#000000" d="M608.1408,-639.8314C608.1408,-632.131 608.1408,-622.9743 608.1408,-614.4166"/>
<polygon fill="#000000" stroke="#000000" points="611.6409,-614.4132 608.1408,-604.4133 604.6409,-614.4133 611.6409,-614.4132"/>
</g>
<!-- ring_pol_eval_add_aux -->
<g id="node12" class="node">
<title>ring_pol_eval_add_aux</title>
<g id="a_node12"><a xlink:href="ring_pol.html#eval_add_aux" xlink:title="eval_add_aux">
<ellipse fill="#f070d1" stroke="#000000" cx="772.1408" cy="-514" rx="73.387" ry="18"/>
<text text-anchor="middle" x="772.1408" y="-510.3" font-family="Times,serif" font-size="14.00" fill="#000000">eval_add_aux</text>
</a>
</g>
</g>
<!-- ring_pol_eval_add_&#45;&gt;ring_pol_eval_add_aux -->
<g id="edge23" class="edge">
<title>ring_pol_eval_add_&#45;&gt;ring_pol_eval_add_aux</title>
<path fill="none" stroke="#000000" d="M640.9344,-571.6028C665.6013,-560.7734 699.6952,-545.8054 726.9461,-533.8416"/>
<polygon fill="#000000" stroke="#000000" points="728.5235,-536.9715 736.273,-529.7468 725.7096,-530.562 728.5235,-536.9715"/>
</g>
<!-- ring_pol_eval_add_&#45;&gt;ring_pol_add -->
<g id="edge24" class="edge">
<title>ring_pol_eval_add_&#45;&gt;ring_pol_add</title>
<path fill="none" stroke="#000000" d="M596.124,-568.3428C578.8932,-543.0241 547.0753,-496.2712 527.3504,-467.2876"/>
<polygon fill="#000000" stroke="#000000" points="530.1664,-465.2046 521.6467,-458.9066 524.3794,-469.143 530.1664,-465.2046"/>
</g>
<!-- ring_pol_eval_addC -->
<g id="node23" class="node">
<title>ring_pol_eval_addC</title>
<g id="a_node23"><a xlink:href="ring_pol.html#eval_addC" xlink:title="eval_addC">
<ellipse fill="#f070d1" stroke="#000000" cx="486.1408" cy="-274" rx="59.2899" ry="18"/>
<text text-anchor="middle" x="486.1408" y="-270.3" font-family="Times,serif" font-size="14.00" fill="#000000">eval_addC</text>
</a>
</g>
</g>
<!-- ring_pol_eval_add_&#45;&gt;ring_pol_eval_addC -->
<g id="edge25" class="edge">
<title>ring_pol_eval_add_&#45;&gt;ring_pol_eval_addC</title>
<path fill="none" stroke="#000000" d="M601.5236,-567.9619C590.4872,-537.984 567.5201,-476.0508 547.1408,-424 530.2894,-380.9601 509.9224,-331.333 497.5063,-301.3328"/>
<polygon fill="#000000" stroke="#000000" points="500.6792,-299.8469 493.617,-291.9491 494.2126,-302.5271 500.6792,-299.8469"/>
</g>
<!-- ring_pol_add_aux -->
<g id="node14" class="node">
<title>ring_pol_add_aux</title>
<g id="a_node14"><a xlink:href="ring_pol.html#add_aux" xlink:title="add_aux">
<ellipse fill="#f070d1" stroke="#000000" cx="727.1408" cy="-362" rx="49.2915" ry="18"/>
<text text-anchor="middle" x="727.1408" y="-358.3" font-family="Times,serif" font-size="14.00" fill="#000000">add_aux</text>
</a>
</g>
</g>
<!-- ring_pol_eval_add_aux&#45;&gt;ring_pol_add_aux -->
<g id="edge26" class="edge">
<title>ring_pol_eval_add_aux&#45;&gt;ring_pol_add_aux</title>
<path fill="none" stroke="#000000" d="M766.802,-495.9667C759.0209,-469.684 744.4983,-420.63 735.3511,-389.7328"/>
<polygon fill="#000000" stroke="#000000" points="738.6674,-388.6049 732.4726,-380.0098 731.9554,-390.592 738.6674,-388.6049"/>
</g>
<!-- ring_pol_eval_PXguard -->
<g id="node17" class="node">
<title>ring_pol_eval_PXguard</title>
<g id="a_node17"><a xlink:href="ring_pol.html#eval_PXguard" xlink:title="eval_PXguard">
<ellipse fill="#f070d1" stroke="#000000" cx="904.1408" cy="-442" rx="75.2868" ry="18"/>
<text text-anchor="middle" x="904.1408" y="-438.3" font-family="Times,serif" font-size="14.00" fill="#000000">eval_PXguard</text>
</a>
</g>
</g>
<!-- ring_pol_eval_add_aux&#45;&gt;ring_pol_eval_PXguard -->
<g id="edge27" class="edge">
<title>ring_pol_eval_add_aux&#45;&gt;ring_pol_eval_PXguard</title>
<path fill="none" stroke="#000000" d="M802.4242,-497.4817C820.9059,-487.4008 844.7347,-474.4033 864.6823,-463.5228"/>
<polygon fill="#000000" stroke="#000000" points="866.4381,-466.5519 873.5411,-458.6907 863.0861,-460.4067 866.4381,-466.5519"/>
</g>
<!-- ring_pol_add&#45;&gt;ring_pol_add_aux -->
<g id="edge28" class="edge">
<title>ring_pol_add&#45;&gt;ring_pol_add_aux</title>
<path fill="none" stroke="#000000" d="M534.6116,-432.9785C570.5477,-419.7301 638.1716,-394.7997 682.9429,-378.2941"/>
<polygon fill="#000000" stroke="#000000" points="684.2356,-381.5479 692.4076,-374.8049 681.8142,-374.98 684.2356,-381.5479"/>
</g>
<!-- ring_pol_addC -->
<g id="node24" class="node">
<title>ring_pol_addC</title>
<g id="a_node24"><a xlink:href="ring_pol.html#addC" xlink:title="addC">
<ellipse fill="#f070d1" stroke="#000000" cx="96.1408" cy="-186" rx="35.194" ry="18"/>
<text text-anchor="middle" x="96.1408" y="-182.3" font-family="Times,serif" font-size="14.00" fill="#000000">addC</text>
</a>
</g>
</g>
<!-- ring_pol_add&#45;&gt;ring_pol_addC -->
<g id="edge29" class="edge">
<title>ring_pol_add&#45;&gt;ring_pol_addC</title>
<path fill="none" stroke="#000000" d="M496.8029,-425.9992C477.615,-403.7096 440.312,-363.016 402.1408,-336 313.3934,-273.1884 194.3762,-223.2591 134.2799,-200.0844"/>
<polygon fill="#000000" stroke="#000000" points="135.397,-196.7645 124.8064,-196.4651 132.8987,-203.3035 135.397,-196.7645"/>
</g>
<!-- ring_pol_PXguard -->
<g id="node18" class="node">
<title>ring_pol_PXguard</title>
<g id="a_node18"><a xlink:href="ring_pol.html#PXguard" xlink:title="PXguard">
<ellipse fill="#f070d1" stroke="#000000" cx="727.1408" cy="-274" rx="51.1914" ry="18"/>
<text text-anchor="middle" x="727.1408" y="-270.3" font-family="Times,serif" font-size="14.00" fill="#000000">PXguard</text>
</a>
</g>
</g>
<!-- ring_pol_add_aux&#45;&gt;ring_pol_PXguard -->
<g id="edge30" class="edge">
<title>ring_pol_add_aux&#45;&gt;ring_pol_PXguard</title>
<path fill="none" stroke="#000000" d="M727.1408,-343.7663C727.1408,-331.8492 727.1408,-316.0384 727.1408,-302.4817"/>
<polygon fill="#000000" stroke="#000000" points="730.6409,-302.2103 727.1408,-292.2103 723.6409,-302.2103 730.6409,-302.2103"/>
</g>
<!-- ring_pol_eval_mulC&#45;&gt;ring_pol_mulC -->
<g id="edge31" class="edge">
<title>ring_pol_eval_mulC&#45;&gt;ring_pol_mulC</title>
<path fill="none" stroke="#000000" d="M1184.534,-496.2022C1178.3912,-487.5301 1170.8938,-476.9455 1164.16,-467.4389"/>
<polygon fill="#000000" stroke="#000000" points="1166.8876,-465.2344 1158.2513,-459.0972 1161.1754,-469.2806 1166.8876,-465.2344"/>
</g>
<!-- ring_pol_eval_mulC&#45;&gt;ring_pol_eval_PXguard -->
<g id="edge32" class="edge">
<title>ring_pol_eval_mulC&#45;&gt;ring_pol_eval_PXguard</title>
<path fill="none" stroke="#000000" d="M1150.714,-502.5914C1101.04,-490.3848 1021.9624,-470.9528 966.7963,-457.3966"/>
<polygon fill="#000000" stroke="#000000" points="967.3326,-453.9243 956.7863,-454.9368 965.6621,-460.7221 967.3326,-453.9243"/>
</g>
<!-- ring_pol_mulC&#45;&gt;ring_pol_PXguard -->
<g id="edge33" class="edge">
<title>ring_pol_mulC&#45;&gt;ring_pol_PXguard</title>
<path fill="none" stroke="#000000" d="M1135.5636,-424.508C1120.0269,-400.4467 1088.6623,-357.6615 1050.1408,-336 1027.2504,-323.1283 870.4581,-296.7388 784.0332,-282.9068"/>
<polygon fill="#000000" stroke="#000000" points="784.5376,-279.4431 774.1112,-281.3245 783.4352,-286.3557 784.5376,-279.4431"/>
</g>
<!-- ring_pol_eval_PXguard&#45;&gt;ring_pol_PXguard -->
<g id="edge34" class="edge">
<title>ring_pol_eval_PXguard&#45;&gt;ring_pol_PXguard</title>
<path fill="none" stroke="#000000" d="M885.5332,-424.3386C853.6816,-394.1065 788.668,-332.3987 752.626,-298.1894"/>
<polygon fill="#000000" stroke="#000000" points="754.6351,-295.2707 744.9725,-290.925 749.8161,-300.3479 754.6351,-295.2707"/>
</g>
<!-- ring_pol_eval_0 -->
<g id="node25" class="node">
<title>ring_pol_eval_0</title>
<g id="a_node25"><a xlink:href="ring_pol.html#eval_0" xlink:title="eval_0">
<ellipse fill="#f070d1" stroke="#000000" cx="1001.1408" cy="-362" rx="40.0939" ry="18"/>
<text text-anchor="middle" x="1001.1408" y="-358.3" font-family="Times,serif" font-size="14.00" fill="#000000">eval_0</text>
</a>
</g>
</g>
<!-- ring_pol_eval_PXguard&#45;&gt;ring_pol_eval_0 -->
<g id="edge35" class="edge">
<title>ring_pol_eval_PXguard&#45;&gt;ring_pol_eval_0</title>
<path fill="none" stroke="#000000" d="M925.1883,-424.6412C939.3864,-412.9314 958.2646,-397.3618 973.6479,-384.6745"/>
<polygon fill="#000000" stroke="#000000" points="976.2949,-387.0283 981.7827,-377.9654 971.841,-381.628 976.2949,-387.0283"/>
</g>
<!-- ring_pol_PXguard&#45;&gt;ring_pol_P0 -->
<g id="edge36" class="edge">
<title>ring_pol_PXguard&#45;&gt;ring_pol_P0</title>
<path fill="none" stroke="#000000" d="M681.4585,-265.6459C618.6569,-254.0728 502.1663,-232.289 403.1408,-212 375.1691,-206.269 343.6006,-199.3508 320.0103,-194.0919"/>
<polygon fill="#000000" stroke="#000000" points="320.622,-190.6423 310.0991,-191.8755 319.0942,-197.4736 320.622,-190.6423"/>
</g>
<!-- ring_pol_Peqb_instance -->
<g id="node33" class="node">
<title>ring_pol_Peqb_instance</title>
<g id="a_node33"><a xlink:href="ring_pol.html#Peqb_instance" xlink:title="Peqb_instance">
<ellipse fill="#f070d1" stroke="#000000" cx="1361.1408" cy="-186" rx="77.9862" ry="18"/>
<text text-anchor="middle" x="1361.1408" y="-182.3" font-family="Times,serif" font-size="14.00" fill="#000000">Peqb_instance</text>
</a>
</g>
</g>
<!-- ring_pol_PXguard&#45;&gt;ring_pol_Peqb_instance -->
<g id="edge37" class="edge">
<title>ring_pol_PXguard&#45;&gt;ring_pol_Peqb_instance</title>
<path fill="none" stroke="#000000" d="M773.8886,-266.4343C807.3488,-261.0895 853.4821,-253.8633 894.1408,-248 931.6884,-242.5854 1160.1041,-212.4535 1283.0053,-196.2758"/>
<polygon fill="#000000" stroke="#000000" points="1283.656,-199.7204 1293.1137,-194.9453 1282.7425,-192.7803 1283.656,-199.7204"/>
</g>
<!-- ring_pol_PX -->
<g id="node39" class="node">
<title>ring_pol_PX</title>
<g id="a_node39"><a xlink:href="ring_pol.html#PX" xlink:title="PX">
<ellipse fill="#7faaff" stroke="#000000" cx="461.1408" cy="-106" rx="27" ry="18"/>
<text text-anchor="middle" x="461.1408" y="-102.3" font-family="Times,serif" font-size="14.00" fill="#000000">PX</text>
</a>
</g>
</g>
<!-- ring_pol_PXguard&#45;&gt;ring_pol_PX -->
<g id="edge38" class="edge">
<title>ring_pol_PXguard&#45;&gt;ring_pol_PX</title>
<path fill="none" stroke="#000000" d="M680.2059,-266.5303C645.4403,-261.0986 596.8873,-253.7252 554.1408,-248 486.2778,-238.9109 293.6394,-263.1652 248.1408,-212 232.7831,-194.7296 233.9481,-178.2398 248.1408,-160 269.5446,-132.4927 368.9087,-116.742 424.0382,-109.9789"/>
<polygon fill="#000000" stroke="#000000" points="424.5959,-113.4374 434.1134,-108.7826 423.7704,-106.4862 424.5959,-113.4374"/>
</g>
<!-- ring_pol_eval_addX_ -->
<g id="node20" class="node">
<title>ring_pol_eval_addX_</title>
<g id="a_node20"><a xlink:href="ring_pol.html#eval_addX'" xlink:title="eval_addX&#39;">
<ellipse fill="#f070d1" stroke="#000000" cx="145.1408" cy="-362" rx="61.1893" ry="18"/>
<text text-anchor="middle" x="145.1408" y="-358.3" font-family="Times,serif" font-size="14.00" fill="#000000">eval_addX&#39;</text>
</a>
</g>
</g>
<!-- ring_pol_eval_addX&#45;&gt;ring_pol_eval_addX_ -->
<g id="edge39" class="edge">
<title>ring_pol_eval_addX&#45;&gt;ring_pol_eval_addX_</title>
<path fill="none" stroke="#000000" d="M146.6869,-423.8468C146.4389,-413.9251 146.1262,-401.4167 145.847,-390.2492"/>
<polygon fill="#000000" stroke="#000000" points="149.3417,-389.9908 145.5928,-380.0814 142.3439,-390.1658 149.3417,-389.9908"/>
</g>
<!-- ring_pol_eval_addX&#45;&gt;ring_pol_addX -->
<g id="edge40" class="edge">
<title>ring_pol_eval_addX&#45;&gt;ring_pol_addX</title>
<path fill="none" stroke="#000000" d="M184.5541,-427.8818C222.9637,-413.3876 282.4288,-390.9479 321.0748,-376.3645"/>
<polygon fill="#000000" stroke="#000000" points="322.7863,-379.4596 330.9066,-372.6544 320.3149,-372.9104 322.7863,-379.4596"/>
</g>
<!-- ring_pol_addX_ -->
<g id="node22" class="node">
<title>ring_pol_addX_</title>
<g id="a_node22"><a xlink:href="ring_pol.html#addX'" xlink:title="addX&#39;">
<ellipse fill="#f070d1" stroke="#000000" cx="145.1408" cy="-274" rx="37.0935" ry="18"/>
<text text-anchor="middle" x="145.1408" y="-270.3" font-family="Times,serif" font-size="14.00" fill="#000000">addX&#39;</text>
</a>
</g>
</g>
<!-- ring_pol_eval_addX_&#45;&gt;ring_pol_addX_ -->
<g id="edge41" class="edge">
<title>ring_pol_eval_addX_&#45;&gt;ring_pol_addX_</title>
<path fill="none" stroke="#000000" d="M145.1408,-343.7663C145.1408,-331.8492 145.1408,-316.0384 145.1408,-302.4817"/>
<polygon fill="#000000" stroke="#000000" points="148.6409,-302.2103 145.1408,-292.2103 141.6409,-302.2103 148.6409,-302.2103"/>
</g>
<!-- ring_pol_eval_addX_&#45;&gt;ring_pol_eval_addC -->
<g id="edge42" class="edge">
<title>ring_pol_eval_addX_&#45;&gt;ring_pol_eval_addC</title>
<path fill="none" stroke="#000000" d="M191.1295,-350.1319C253.3797,-334.0674 364.3187,-305.438 430.9775,-288.2357"/>
<polygon fill="#000000" stroke="#000000" points="432.0724,-291.5679 440.8806,-285.68 430.3232,-284.7899 432.0724,-291.5679"/>
</g>
<!-- ring_pol_addX&#45;&gt;ring_pol_addX_ -->
<g id="edge43" class="edge">
<title>ring_pol_addX&#45;&gt;ring_pol_addX_</title>
<path fill="none" stroke="#000000" d="M332.0375,-350.8547C294.3701,-335.3653 226.0118,-307.2554 183.231,-289.6633"/>
<polygon fill="#000000" stroke="#000000" points="184.3057,-286.3209 173.726,-285.7547 181.6435,-292.7949 184.3057,-286.3209"/>
</g>
<!-- ring_pol_addX_&#45;&gt;ring_pol_addC -->
<g id="edge44" class="edge">
<title>ring_pol_addX_&#45;&gt;ring_pol_addC</title>
<path fill="none" stroke="#000000" d="M135.4599,-256.614C128.4131,-243.9586 118.7464,-226.5979 110.7614,-212.2576"/>
<polygon fill="#000000" stroke="#000000" points="113.7243,-210.384 105.8015,-203.3499 107.6085,-213.7895 113.7243,-210.384"/>
</g>
<!-- ring_pol_eval_addC&#45;&gt;ring_pol_addC -->
<g id="edge45" class="edge">
<title>ring_pol_eval_addC&#45;&gt;ring_pol_addC</title>
<path fill="none" stroke="#000000" d="M436.1898,-264.2745C377.7254,-252.6963 278.0863,-232.3565 193.1408,-212 174.574,-207.5506 154.1424,-202.1503 136.8387,-197.4267"/>
<polygon fill="#000000" stroke="#000000" points="137.6197,-194.0116 127.0497,-194.736 135.7644,-200.7613 137.6197,-194.0116"/>
</g>
<!-- ring_pol_eval -->
<g id="node30" class="node">
<title>ring_pol_eval</title>
<g id="a_node30"><a xlink:href="ring_pol.html#eval" xlink:title="eval">
<ellipse fill="#f070d1" stroke="#000000" cx="1124.1408" cy="-186" rx="29.795" ry="18"/>
<text text-anchor="middle" x="1124.1408" y="-182.3" font-family="Times,serif" font-size="14.00" fill="#000000">eval</text>
</a>
</g>
</g>
<!-- ring_pol_eval_addC&#45;&gt;ring_pol_eval -->
<g id="edge46" class="edge">
<title>ring_pol_eval_addC&#45;&gt;ring_pol_eval</title>
<path fill="none" stroke="#000000" d="M539.1435,-265.9257C575.1926,-260.5473 623.996,-253.4869 667.1408,-248 811.3075,-229.6657 848.4973,-234.0623 992.1408,-212 1023.9349,-207.1167 1059.7223,-199.963 1086.0051,-194.3948"/>
<polygon fill="#000000" stroke="#000000" points="1086.8911,-197.7846 1095.9378,-192.2703 1085.4268,-190.9394 1086.8911,-197.7846"/>
</g>
<!-- ring_pol_Pol_rect -->
<g id="node38" class="node">
<title>ring_pol_Pol_rect</title>
<g id="a_node38"><a xlink:href="ring_pol.html#Pol_rect" xlink:title="Pol_rect">
<ellipse fill="#f070d1" stroke="#000000" cx="461.1408" cy="-186" rx="48.9926" ry="18"/>
<text text-anchor="middle" x="461.1408" y="-182.3" font-family="Times,serif" font-size="14.00" fill="#000000">Pol_rect</text>
</a>
</g>
</g>
<!-- ring_pol_eval_addC&#45;&gt;ring_pol_Pol_rect -->
<g id="edge47" class="edge">
<title>ring_pol_eval_addC&#45;&gt;ring_pol_Pol_rect</title>
<path fill="none" stroke="#000000" d="M480.9607,-255.7663C477.5189,-243.6509 472.9337,-227.5113 469.0405,-213.8071"/>
<polygon fill="#000000" stroke="#000000" points="472.3282,-212.5721 466.2286,-203.9092 465.5947,-214.4851 472.3282,-212.5721"/>
</g>
<!-- ring_pol_addC&#45;&gt;ring_pol_PX -->
<g id="edge48" class="edge">
<title>ring_pol_addC&#45;&gt;ring_pol_PX</title>
<path fill="none" stroke="#000000" d="M127.0314,-177.1869C146.0257,-171.9009 170.9046,-165.2149 193.1408,-160 275.4955,-140.6861 373.0731,-122.0922 424.7635,-112.5765"/>
<polygon fill="#000000" stroke="#000000" points="425.5684,-115.9874 434.7735,-110.7418 424.3064,-109.1021 425.5684,-115.9874"/>
</g>
<!-- ring_pol_Pconst -->
<g id="node40" class="node">
<title>ring_pol_Pconst</title>
<g id="a_node40"><a xlink:href="ring_pol.html#Pconst" xlink:title="Pconst">
<ellipse fill="#7faaff" stroke="#000000" cx="680.1408" cy="-106" rx="42.4939" ry="18"/>
<text text-anchor="middle" x="680.1408" y="-102.3" font-family="Times,serif" font-size="14.00" fill="#000000">Pconst</text>
</a>
</g>
</g>
<!-- ring_pol_addC&#45;&gt;ring_pol_Pconst -->
<g id="edge49" class="edge">
<title>ring_pol_addC&#45;&gt;ring_pol_Pconst</title>
<path fill="none" stroke="#000000" d="M129.2816,-179.8883C160.0277,-174.3236 207.0908,-166.0733 248.1408,-160 385.1724,-139.7262 547.4092,-120.8046 628.5308,-111.6898"/>
<polygon fill="#000000" stroke="#000000" points="629.4089,-115.1134 638.9572,-110.5222 628.6298,-108.1569 629.4089,-115.1134"/>
</g>
<!-- ring_pol_Pol -->
<g id="node41" class="node">
<title>ring_pol_Pol</title>
<g id="a_node41"><a xlink:href="ring_pol.html#Pol" xlink:title="Pol">
<ellipse fill="#e2cdfa" stroke="#000000" cx="872.1408" cy="-34" rx="27" ry="18"/>
<text text-anchor="middle" x="872.1408" y="-30.3" font-family="Times,serif" font-size="14.00" fill="#000000">Pol</text>
</a>
</g>
</g>
<!-- ring_pol_addC&#45;&gt;ring_pol_Pol -->
<g id="edge50" class="edge">
<title>ring_pol_addC&#45;&gt;ring_pol_Pol</title>
<path fill="none" stroke="#000000" d="M121.9089,-173.6851C167.6926,-152.3931 266.7294,-108.9716 355.1408,-88 531.5237,-46.1611 749.4157,-36.7335 835.08,-34.6133"/>
<polygon fill="#000000" stroke="#000000" points="835.1788,-38.1121 845.0962,-34.3844 835.0188,-31.1139 835.1788,-38.1121"/>
</g>
<!-- ring_pol_eval_0_ -->
<g id="node26" class="node">
<title>ring_pol_eval_0_</title>
<g id="a_node26"><a xlink:href="ring_pol.html#eval_0'" xlink:title="eval_0&#39;">
<ellipse fill="#f070d1" stroke="#000000" cx="1171.1408" cy="-274" rx="42.7926" ry="18"/>
<text text-anchor="middle" x="1171.1408" y="-270.3" font-family="Times,serif" font-size="14.00" fill="#000000">eval_0&#39;</text>
</a>
</g>
</g>
<!-- ring_pol_eval_0&#45;&gt;ring_pol_eval_0_ -->
<g id="edge51" class="edge">
<title>ring_pol_eval_0&#45;&gt;ring_pol_eval_0_</title>
<path fill="none" stroke="#000000" d="M1027.7033,-348.25C1056.5162,-333.3351 1102.6924,-309.4321 1134.8414,-292.7903"/>
<polygon fill="#000000" stroke="#000000" points="1136.6499,-295.7953 1143.9216,-288.0899 1133.4319,-289.5788 1136.6499,-295.7953"/>
</g>
<!-- ring_pol_eval_0_&#45;&gt;ring_pol_eval -->
<g id="edge52" class="edge">
<title>ring_pol_eval_0_&#45;&gt;ring_pol_eval</title>
<path fill="none" stroke="#000000" d="M1161.6296,-256.1919C1154.8525,-243.5029 1145.635,-226.2446 1138.036,-212.0165"/>
<polygon fill="#000000" stroke="#000000" points="1141.1163,-210.3546 1133.3179,-203.1827 1134.9418,-213.6524 1141.1163,-210.3546"/>
</g>
<!-- ring_pol_eval_0_&#45;&gt;ring_pol_P0 -->
<g id="edge53" class="edge">
<title>ring_pol_eval_0_&#45;&gt;ring_pol_P0</title>
<path fill="none" stroke="#000000" d="M1132.3198,-266.1896C1101.4933,-260.2819 1057.2253,-252.4512 1018.1408,-248 746.0981,-217.0179 674.3844,-249.3362 403.1408,-212 374.6723,-208.0814 342.8963,-200.9968 319.3458,-195.2116"/>
<polygon fill="#000000" stroke="#000000" points="320.0187,-191.7722 309.4684,-192.7432 318.3214,-198.5634 320.0187,-191.7722"/>
</g>
<!-- ring_pol_eval_0_&#45;&gt;ring_pol_Peqb_instance -->
<g id="edge54" class="edge">
<title>ring_pol_eval_0_&#45;&gt;ring_pol_Peqb_instance</title>
<path fill="none" stroke="#000000" d="M1199.9977,-260.6347C1231.0643,-246.2459 1280.8655,-223.1801 1316.8878,-206.4961"/>
<polygon fill="#000000" stroke="#000000" points="1318.5885,-209.5656 1326.1916,-202.187 1315.6466,-203.2138 1318.5885,-209.5656"/>
</g>
<!-- ring_pol_eval_0_&#45;&gt;ring_pol_Pol_rect -->
<g id="edge55" class="edge">
<title>ring_pol_eval_0_&#45;&gt;ring_pol_Pol_rect</title>
<path fill="none" stroke="#000000" d="M1131.9593,-266.4839C1101.1232,-260.7767 1057.0139,-253.0712 1018.1408,-248 843.7776,-225.2535 798.6171,-233.8613 624.1408,-212 587.7074,-207.435 546.9106,-200.9263 515.2456,-195.5631"/>
<polygon fill="#000000" stroke="#000000" points="515.7491,-192.0985 505.3027,-193.866 514.5713,-198.9987 515.7491,-192.0985"/>
</g>
<!-- ring_pol_eval_eqb -->
<g id="node27" class="node">
<title>ring_pol_eval_eqb</title>
<g id="a_node27"><a xlink:href="ring_pol.html#eval_eqb" xlink:title="eval_eqb">
<ellipse fill="#f070d1" stroke="#000000" cx="1387.1408" cy="-362" rx="51.9914" ry="18"/>
<ellipse fill="none" stroke="#000000" cx="1387.1408" cy="-362" rx="55.9911" ry="22"/>
<ellipse fill="none" stroke="#000000" cx="1387.1408" cy="-362" rx="59.9908" ry="26"/>
<text text-anchor="middle" x="1387.1408" y="-358.3" font-family="Times,serif" font-size="14.00" fill="#000000">eval_eqb</text>
</a>
</g>
</g>
<!-- ring_pol_eval_eqb_ -->
<g id="node28" class="node">
<title>ring_pol_eval_eqb_</title>
<g id="a_node28"><a xlink:href="ring_pol.html#eval_eqb'" xlink:title="eval_eqb&#39;">
<ellipse fill="#f070d1" stroke="#000000" cx="1387.1408" cy="-274" rx="53.8905" ry="18"/>
<text text-anchor="middle" x="1387.1408" y="-270.3" font-family="Times,serif" font-size="14.00" fill="#000000">eval_eqb&#39;</text>
</a>
</g>
</g>
<!-- ring_pol_eval_eqb&#45;&gt;ring_pol_eval_eqb_ -->
<g id="edge56" class="edge">
<title>ring_pol_eval_eqb&#45;&gt;ring_pol_eval_eqb_</title>
<path fill="none" stroke="#000000" d="M1387.1408,-335.5971C1387.1408,-325.0414 1387.1408,-312.868 1387.1408,-302.1448"/>
<polygon fill="#000000" stroke="#000000" points="1390.6409,-302.0188 1387.1408,-292.0188 1383.6409,-302.0188 1390.6409,-302.0188"/>
</g>
<!-- ring_pol_andb_true -->
<g id="node29" class="node">
<title>ring_pol_andb_true</title>
<g id="a_node29"><a xlink:href="ring_pol.html#andb_true" xlink:title="andb_true">
<ellipse fill="#f070d1" stroke="#000000" cx="1651.1408" cy="-186" rx="57.6901" ry="18"/>
<text text-anchor="middle" x="1651.1408" y="-182.3" font-family="Times,serif" font-size="14.00" fill="#000000">andb_true</text>
</a>
</g>
</g>
<!-- ring_pol_eval_eqb_&#45;&gt;ring_pol_andb_true -->
<g id="edge57" class="edge">
<title>ring_pol_eval_eqb_&#45;&gt;ring_pol_andb_true</title>
<path fill="none" stroke="#000000" d="M1425.5286,-261.204C1472.1476,-245.6644 1550.8621,-219.4262 1601.903,-202.4126"/>
<polygon fill="#000000" stroke="#000000" points="1603.0308,-205.7261 1611.4108,-199.2433 1600.8171,-199.0853 1603.0308,-205.7261"/>
</g>
<!-- ring_pol_eval_eqb_&#45;&gt;ring_pol_eval -->
<g id="edge58" class="edge">
<title>ring_pol_eval_eqb_&#45;&gt;ring_pol_eval</title>
<path fill="none" stroke="#000000" d="M1348.8983,-261.204C1298.2506,-244.2573 1209.5766,-214.5869 1160.1019,-198.0326"/>
<polygon fill="#000000" stroke="#000000" points="1161.0537,-194.6604 1150.4599,-194.8064 1158.8325,-201.2987 1161.0537,-194.6604"/>
</g>
<!-- ring_pol_eval_eqb_&#45;&gt;ring_pol_Peqb_instance -->
<g id="edge59" class="edge">
<title>ring_pol_eval_eqb_&#45;&gt;ring_pol_Peqb_instance</title>
<path fill="none" stroke="#000000" d="M1381.7535,-255.7663C1378.1977,-243.7312 1373.4686,-227.7249 1369.437,-214.0797"/>
<polygon fill="#000000" stroke="#000000" points="1372.7112,-212.8087 1366.5211,-204.2103 1365.998,-214.7922 1372.7112,-212.8087"/>
</g>
<!-- ring_pol_eval_eqb_&#45;&gt;ring_pol_Pol_rect -->
<g id="edge60" class="edge">
<title>ring_pol_eval_eqb_&#45;&gt;ring_pol_Pol_rect</title>
<path fill="none" stroke="#000000" d="M1339.938,-265.2694C1307.2555,-259.5313 1262.6887,-252.313 1223.1408,-248 958.0102,-219.0856 889.2576,-241.0402 624.1408,-212 587.5124,-207.9878 546.5568,-201.4467 514.8618,-195.9293"/>
<polygon fill="#000000" stroke="#000000" points="515.3692,-192.4649 504.9139,-194.1784 514.1558,-199.3589 515.3692,-192.4649"/>
</g>
<!-- ring_pol_eval&#45;&gt;ring_pol_Pol -->
<g id="edge61" class="edge">
<title>ring_pol_eval&#45;&gt;ring_pol_Pol</title>
<path fill="none" stroke="#000000" d="M1102.6554,-173.0406C1057.293,-145.6791 951.7385,-82.0113 900.7368,-51.2484"/>
<polygon fill="#000000" stroke="#000000" points="902.5357,-48.2461 892.165,-46.0781 898.9202,-54.2401 902.5357,-48.2461"/>
</g>
<!-- ring_pol_P1&#45;&gt;ring_pol_Pconst -->
<g id="edge62" class="edge">
<title>ring_pol_P1&#45;&gt;ring_pol_Pconst</title>
<path fill="none" stroke="#000000" d="M1819.5468,-179.5818C1794.0316,-173.4632 1753.6372,-164.5308 1718.1408,-160 1524.3321,-135.2619 915.6935,-113.7369 732.6947,-107.6897"/>
<polygon fill="#000000" stroke="#000000" points="732.6343,-104.1859 722.5245,-107.3551 732.404,-111.1822 732.6343,-104.1859"/>
</g>
<!-- ring_pol_P1&#45;&gt;ring_pol_Pol -->
<g id="edge63" class="edge">
<title>ring_pol_P1&#45;&gt;ring_pol_Pol</title>
<path fill="none" stroke="#000000" d="M1819.4103,-180.4519C1793.7915,-174.9942 1753.3204,-166.5511 1718.1408,-160 1528.0748,-124.6065 1480.3739,-116.4193 1289.1408,-88 1149.0868,-67.1865 981.8811,-46.9135 909.0651,-38.3099"/>
<polygon fill="#000000" stroke="#000000" points="909.3619,-34.8208 899.0211,-37.1265 908.5428,-41.7727 909.3619,-34.8208"/>
</g>
<!-- ring_pol_P0&#45;&gt;ring_pol_Pconst -->
<g id="edge64" class="edge">
<title>ring_pol_P0&#45;&gt;ring_pol_Pconst</title>
<path fill="none" stroke="#000000" d="M310.1045,-180.1504C334.1878,-174.7665 371.0413,-166.6346 403.1408,-160 482.8658,-143.5217 575.7915,-125.6853 631.196,-115.1957"/>
<polygon fill="#000000" stroke="#000000" points="631.9172,-118.6214 641.0929,-113.3245 630.6167,-111.7432 631.9172,-118.6214"/>
</g>
<!-- ring_pol_P0&#45;&gt;ring_pol_Pol -->
<g id="edge65" class="edge">
<title>ring_pol_P0&#45;&gt;ring_pol_Pol</title>
<path fill="none" stroke="#000000" d="M299.9639,-171.0077C324.5609,-148.6937 374.4356,-107.3061 425.1408,-88 500.0543,-59.4765 741.8398,-41.9966 835.0334,-36.1728"/>
<polygon fill="#000000" stroke="#000000" points="835.3621,-39.6593 845.1282,-35.5515 834.932,-32.6726 835.3621,-39.6593"/>
</g>
<!-- ring_pol_Peqb -->
<g id="node34" class="node">
<title>ring_pol_Peqb</title>
<g id="a_node34"><a xlink:href="ring_pol.html#Peqb" xlink:title="Peqb">
<ellipse fill="#f070d1" stroke="#000000" cx="1246.1408" cy="-106" rx="33.5952" ry="18"/>
<text text-anchor="middle" x="1246.1408" y="-102.3" font-family="Times,serif" font-size="14.00" fill="#000000">Peqb</text>
</a>
</g>
</g>
<!-- ring_pol_Peqb_instance&#45;&gt;ring_pol_Peqb -->
<g id="edge66" class="edge">
<title>ring_pol_Peqb_instance&#45;&gt;ring_pol_Peqb</title>
<path fill="none" stroke="#000000" d="M1336.4704,-168.838C1318.4994,-156.3365 1294.0944,-139.359 1275.1818,-126.2025"/>
<polygon fill="#000000" stroke="#000000" points="1277.1295,-123.2938 1266.9216,-120.4563 1273.132,-129.0401 1277.1295,-123.2938"/>
</g>
<!-- ring_pol_Peqb&#45;&gt;ring_pol_Pol -->
<g id="edge67" class="edge">
<title>ring_pol_Peqb&#45;&gt;ring_pol_Pol</title>
<path fill="none" stroke="#000000" d="M1214.2537,-99.8613C1145.0547,-86.5396 981.4762,-55.0485 908.4472,-40.9895"/>
<polygon fill="#000000" stroke="#000000" points="908.8328,-37.4995 898.3514,-39.0459 907.5094,-44.3733 908.8328,-37.4995"/>
</g>
<!-- ring_pol_Pol_sind -->
<g id="node35" class="node">
<title>ring_pol_Pol_sind</title>
<g id="a_node35"><a xlink:href="ring_pol.html#Pol_sind" xlink:title="Pol_sind">
<ellipse fill="#f070d1" stroke="#000000" cx="926.1408" cy="-186" rx="49.3059" ry="18"/>
<ellipse fill="none" stroke="#000000" cx="926.1408" cy="-186" rx="53.2987" ry="22"/>
<ellipse fill="none" stroke="#000000" cx="926.1408" cy="-186" rx="57.2914" ry="26"/>
<text text-anchor="middle" x="926.1408" y="-182.3" font-family="Times,serif" font-size="14.00" fill="#000000">Pol_sind</text>
</a>
</g>
</g>
<!-- ring_pol_Pol_sind&#45;&gt;ring_pol_PX -->
<g id="edge68" class="edge">
<title>ring_pol_Pol_sind&#45;&gt;ring_pol_PX</title>
<path fill="none" stroke="#000000" d="M872.3451,-176.7448C776.7089,-160.2913 579.4906,-126.3613 497.8109,-112.3088"/>
<polygon fill="#000000" stroke="#000000" points="497.9761,-108.7859 487.5275,-110.5396 496.7892,-115.6846 497.9761,-108.7859"/>
</g>
<!-- ring_pol_Pol_sind&#45;&gt;ring_pol_Pconst -->
<g id="edge69" class="edge">
<title>ring_pol_Pol_sind&#45;&gt;ring_pol_Pconst</title>
<path fill="none" stroke="#000000" d="M879.291,-170.7643C834.4137,-156.17 767.239,-134.3246 723.5479,-120.1161"/>
<polygon fill="#000000" stroke="#000000" points="724.3792,-116.7061 713.787,-116.9419 722.2144,-123.363 724.3792,-116.7061"/>
</g>
<!-- ring_pol_Pol_sind&#45;&gt;ring_pol_Pol -->
<g id="edge70" class="edge">
<title>ring_pol_Pol_sind&#45;&gt;ring_pol_Pol</title>
<path fill="none" stroke="#000000" d="M916.9804,-160.2153C907.2254,-132.7567 891.8468,-89.4688 881.877,-61.4058"/>
<polygon fill="#000000" stroke="#000000" points="885.1149,-60.0645 878.4691,-51.8132 878.5188,-62.4079 885.1149,-60.0645"/>
</g>
<!-- ring_pol_Pol_rec -->
<g id="node36" class="node">
<title>ring_pol_Pol_rec</title>
<g id="a_node36"><a xlink:href="ring_pol.html#Pol_rec" xlink:title="Pol_rec">
<ellipse fill="#f070d1" stroke="#000000" cx="956.1408" cy="-274" rx="44.7157" ry="18"/>
<ellipse fill="none" stroke="#000000" cx="956.1408" cy="-274" rx="48.7041" ry="22"/>
<ellipse fill="none" stroke="#000000" cx="956.1408" cy="-274" rx="52.6925" ry="26"/>
<text text-anchor="middle" x="956.1408" y="-270.3" font-family="Times,serif" font-size="14.00" fill="#000000">Pol_rec</text>
</a>
</g>
</g>
<!-- ring_pol_Pol_rec&#45;&gt;ring_pol_Pol_rect -->
<g id="edge71" class="edge">
<title>ring_pol_Pol_rec&#45;&gt;ring_pol_Pol_rect</title>
<path fill="none" stroke="#000000" d="M906.4119,-265.1593C812.8811,-248.5316 611.5197,-212.734 514.9481,-195.5657"/>
<polygon fill="#000000" stroke="#000000" points="515.5567,-192.1191 505.0984,-193.8147 514.3314,-199.0111 515.5567,-192.1191"/>
</g>
<!-- ring_pol_Pol_ind -->
<g id="node37" class="node">
<title>ring_pol_Pol_ind</title>
<g id="a_node37"><a xlink:href="ring_pol.html#Pol_ind" xlink:title="Pol_ind">
<ellipse fill="#7fffd4" stroke="#000000" cx="685.1408" cy="-186" rx="44.3627" ry="18"/>
<ellipse fill="none" stroke="#000000" cx="685.1408" cy="-186" rx="48.3778" ry="22"/>
<ellipse fill="none" stroke="#000000" cx="685.1408" cy="-186" rx="52.3929" ry="26"/>
<text text-anchor="middle" x="685.1408" y="-182.3" font-family="Times,serif" font-size="14.00" fill="#000000">Pol_ind</text>
</a>
</g>
</g>
<!-- ring_pol_Pol_ind&#45;&gt;ring_pol_PX -->
<g id="edge72" class="edge">
<title>ring_pol_Pol_ind&#45;&gt;ring_pol_PX</title>
<path fill="none" stroke="#000000" d="M642.4808,-170.7643C599.5088,-155.4172 534.0847,-132.0514 494.6853,-117.9802"/>
<polygon fill="#000000" stroke="#000000" points="495.6144,-114.5956 485.0198,-114.5282 493.26,-121.1878 495.6144,-114.5956"/>
</g>
<!-- ring_pol_Pol_ind&#45;&gt;ring_pol_Pconst -->
<g id="edge73" class="edge">
<title>ring_pol_Pol_ind&#45;&gt;ring_pol_Pconst</title>
<path fill="none" stroke="#000000" d="M683.5036,-159.805C682.9909,-151.6026 682.4231,-142.5174 681.9023,-134.1839"/>
<polygon fill="#000000" stroke="#000000" points="685.3924,-133.9154 681.2753,-124.1532 678.406,-134.3521 685.3924,-133.9154"/>
</g>
<!-- ring_pol_Pol_ind&#45;&gt;ring_pol_Pol -->
<g id="edge74" class="edge">
<title>ring_pol_Pol_ind&#45;&gt;ring_pol_Pol</title>
<path fill="none" stroke="#000000" d="M712.7333,-163.5719C748.9447,-134.138 811.9909,-82.8919 846.9615,-54.4666"/>
<polygon fill="#000000" stroke="#000000" points="849.2502,-57.1166 854.8025,-48.0931 844.835,-51.6847 849.2502,-57.1166"/>
</g>
<!-- ring_pol_Pol_rect&#45;&gt;ring_pol_PX -->
<g id="edge75" class="edge">
<title>ring_pol_Pol_rect&#45;&gt;ring_pol_PX</title>
<path fill="none" stroke="#000000" d="M461.1408,-167.8468C461.1408,-157.9251 461.1408,-145.4167 461.1408,-134.2492"/>
<polygon fill="#000000" stroke="#000000" points="464.6409,-134.0814 461.1408,-124.0814 457.6409,-134.0814 464.6409,-134.0814"/>
</g>
<!-- ring_pol_Pol_rect&#45;&gt;ring_pol_Pconst -->
<g id="edge76" class="edge">
<title>ring_pol_Pol_rect&#45;&gt;ring_pol_Pconst</title>
<path fill="none" stroke="#000000" d="M495.842,-173.3238C534.4756,-159.211 596.9048,-136.4058 638.2338,-121.3085"/>
<polygon fill="#000000" stroke="#000000" points="639.5517,-124.5533 647.7437,-117.8345 637.1499,-117.9783 639.5517,-124.5533"/>
</g>
<!-- ring_pol_Pol_rect&#45;&gt;ring_pol_Pol -->
<g id="edge77" class="edge">
<title>ring_pol_Pol_rect&#45;&gt;ring_pol_Pol</title>
<path fill="none" stroke="#000000" d="M483.6287,-169.8062C514.8173,-148.0856 573.6493,-109.7386 629.1408,-88 699.4315,-60.4638 786.9384,-45.3637 835.4386,-38.5491"/>
<polygon fill="#000000" stroke="#000000" points="836.0276,-42.0012 845.4625,-37.1812 835.081,-35.0655 836.0276,-42.0012"/>
</g>
</g>
</svg>
