<?xml version="1.0" encoding="UTF-8" standalone="no"?>
<!DOCTYPE svg PUBLIC "-//W3C//DTD SVG 1.1//EN"
 "http://www.w3.org/Graphics/SVG/1.1/DTD/svg11.dtd">
<!-- Generated by graphviz version 2.40.1 (20161225.0304)
 -->
<!-- Title: HoTT_PathAny Pages: 1 -->
<svg width="538pt" height="273pt"
 viewBox="0.00 0.00 538.00 273.00" xmlns="http://www.w3.org/2000/svg" xmlns:xlink="http://www.w3.org/1999/xlink">
<g id="graph0" class="graph" transform="scale(1 1) rotate(0) translate(4 269)">
<title>HoTT_PathAny</title>
<polygon fill="#ffffff" stroke="transparent" points="-4,4 -4,-269 534,-269 534,4 -4,4"/>
<g id="clust1" class="cluster">
<title>cluster_PathAny</title>
<polygon fill="#ffffc3" stroke="#000000" points="8,-11.8436 8,-253.1564 522,-253.1564 522,-11.8436 8,-11.8436"/>
<text text-anchor="middle" x="46.5" y="-237.9564" font-family="Times,serif" font-size="14.00" fill="#000000">PathAny</text>
</g>
<!-- PathAny_contr_sigma_sigma -->
<g id="node1" class="node">
<title>PathAny_contr_sigma_sigma</title>
<g id="a_node1"><a xlink:href="PathAny.html#contr_sigma_sigma" xlink:title="contr_sigma_sigma">
<ellipse fill="#f070d1" stroke="#000000" cx="402" cy="-168.8436" rx="100.9649" ry="18"/>
<ellipse fill="none" stroke="#000000" cx="402" cy="-168.8436" rx="104.9738" ry="22"/>
<ellipse fill="none" stroke="#000000" cx="402" cy="-168.8436" rx="108.9827" ry="26"/>
<text text-anchor="middle" x="402" y="-165.1436" font-family="Times,serif" font-size="14.00" fill="#000000">contr_sigma_sigma</text>
</a>
</g>
</g>
<!-- PathAny_equiv_path_issig_contr -->
<g id="node2" class="node">
<title>PathAny_equiv_path_issig_contr</title>
<g id="a_node2"><a xlink:href="PathAny.html#equiv_path_issig_contr" xlink:title="equiv_path_issig_contr">
<ellipse fill="#f070d1" stroke="#000000" cx="147" cy="-168.8436" rx="118.0927" ry="18"/>
<ellipse fill="none" stroke="#000000" cx="147" cy="-168.8436" rx="122.086" ry="22"/>
<ellipse fill="none" stroke="#000000" cx="147" cy="-168.8436" rx="126.0794" ry="26"/>
<text text-anchor="middle" x="147" y="-165.1436" font-family="Times,serif" font-size="14.00" fill="#000000">equiv_path_issig_contr</text>
</a>
</g>
</g>
<!-- PathAny_equiv_path_along_equiv -->
<g id="node3" class="node">
<title>PathAny_equiv_path_along_equiv</title>
<g id="a_node3"><a xlink:href="PathAny.html#equiv_path_along_equiv" xlink:title="equiv_path_along_equiv">
<ellipse fill="#f070d1" stroke="#000000" cx="138" cy="-49.8436" rx="122.3786" ry="18"/>
<text text-anchor="middle" x="138" y="-46.1436" font-family="Times,serif" font-size="14.00" fill="#000000">equiv_path_along_equiv</text>
</a>
</g>
</g>
<!-- PathAny_equiv_path_issig_contr&#45;&gt;PathAny_equiv_path_along_equiv -->
<g id="edge1" class="edge">
<title>PathAny_equiv_path_issig_contr&#45;&gt;PathAny_equiv_path_along_equiv</title>
<path fill="none" stroke="#000000" d="M145.0249,-142.7285C143.5842,-123.6786 141.6329,-97.8781 140.1524,-78.3032"/>
<polygon fill="#000000" stroke="#000000" points="143.6289,-77.8587 139.3846,-68.1511 136.6488,-78.3866 143.6289,-77.8587"/>
</g>
<!-- PathAny_equiv_path_from_contr -->
<g id="node4" class="node">
<title>PathAny_equiv_path_from_contr</title>
<g id="a_node4"><a xlink:href="PathAny.html#equiv_path_from_contr" xlink:title="equiv_path_from_contr">
<ellipse fill="#f070d1" stroke="#000000" cx="396" cy="-49.8436" rx="118.0794" ry="18"/>
<text text-anchor="middle" x="396" y="-46.1436" font-family="Times,serif" font-size="14.00" fill="#000000">equiv_path_from_contr</text>
</a>
</g>
</g>
<!-- PathAny_equiv_path_issig_contr&#45;&gt;PathAny_equiv_path_from_contr -->
<g id="edge2" class="edge">
<title>PathAny_equiv_path_issig_contr&#45;&gt;PathAny_equiv_path_from_contr</title>
<path fill="none" stroke="#000000" d="M197.0893,-144.9053C242.0739,-123.4066 307.5305,-92.1242 350.9105,-71.3924"/>
<polygon fill="#000000" stroke="#000000" points="352.5728,-74.4772 360.0862,-67.0072 349.5544,-68.1614 352.5728,-74.4772"/>
</g>
</g>
</svg>
