<?xml version="1.0" encoding="UTF-8" standalone="no"?>
<!DOCTYPE svg PUBLIC "-//W3C//DTD SVG 1.1//EN"
 "http://www.w3.org/Graphics/SVG/1.1/DTD/svg11.dtd">
<!-- Generated by graphviz version 2.40.1 (20161225.0304)
 -->
<!-- Title: HoTT_Metatheory_UnivalenceVarieties Pages: 1 -->
<svg width="2462pt" height="1235pt"
 viewBox="0.00 0.00 2462.00 1235.00" xmlns="http://www.w3.org/2000/svg" xmlns:xlink="http://www.w3.org/1999/xlink">
<g id="graph0" class="graph" transform="scale(1 1) rotate(0) translate(4 1231)">
<title>HoTT_Metatheory_UnivalenceVarieties</title>
<polygon fill="#ffffff" stroke="transparent" points="-4,4 -4,-1231 2458,-1231 2458,4 -4,4"/>
<g id="clust1" class="cluster">
<title>cluster_UnivalenceVarieties</title>
<polygon fill="#ffffc3" stroke="#000000" points="8,-28.9558 8,-1198.0442 2446,-1198.0442 2446,-28.9558 8,-28.9558"/>
<text text-anchor="middle" x="88" y="-1182.8442" font-family="Times,serif" font-size="14.00" fill="#000000">UnivalenceVarieties</text>
</g>
<!-- UnivalenceVarieties_VeryWeakUnivalence_implies_Univalence -->
<g id="node1" class="node">
<title>UnivalenceVarieties_VeryWeakUnivalence_implies_Univalence</title>
<g id="a_node1"><a xlink:href="UnivalenceVarieties.html#VeryWeakUnivalence_implies_Univalence" xlink:title="VeryWeakUnivalence_implies_Univalence">
<ellipse fill="#f070d1" stroke="#000000" cx="1721" cy="-672.9558" rx="204.9552" ry="18"/>
<ellipse fill="none" stroke="#000000" cx="1721" cy="-672.9558" rx="208.9596" ry="22"/>
<ellipse fill="none" stroke="#000000" cx="1721" cy="-672.9558" rx="212.9639" ry="26"/>
<text text-anchor="middle" x="1721" y="-669.2558" font-family="Times,serif" font-size="14.00" fill="#000000">VeryWeakUnivalence_implies_Univalence</text>
</a>
</g>
</g>
<!-- UnivalenceVarieties_WeakUnivalence_implies_Univalence -->
<g id="node3" class="node">
<title>UnivalenceVarieties_WeakUnivalence_implies_Univalence</title>
<g id="a_node3"><a xlink:href="UnivalenceVarieties.html#WeakUnivalence_implies_Univalence" xlink:title="WeakUnivalence_implies_Univalence">
<ellipse fill="#f070d1" stroke="#000000" cx="1787" cy="-383.9558" rx="183.8674" ry="18"/>
<text text-anchor="middle" x="1787" y="-380.2558" font-family="Times,serif" font-size="14.00" fill="#000000">WeakUnivalence_implies_Univalence</text>
</a>
</g>
</g>
<!-- UnivalenceVarieties_VeryWeakUnivalence_implies_Univalence&#45;&gt;UnivalenceVarieties_WeakUnivalence_implies_Univalence -->
<g id="edge1" class="edge">
<title>UnivalenceVarieties_VeryWeakUnivalence_implies_Univalence&#45;&gt;UnivalenceVarieties_WeakUnivalence_implies_Univalence</title>
<path fill="none" stroke="#000000" d="M1726.9735,-646.7992C1739.3745,-592.4977 1767.8176,-467.9515 1780.5874,-412.035"/>
<polygon fill="#000000" stroke="#000000" points="1784.0383,-412.6444 1782.8527,-402.1161 1777.214,-411.0858 1784.0383,-412.6444"/>
</g>
<!-- UnivalenceVarieties_VeryWeakUnivalence -->
<g id="node14" class="node">
<title>UnivalenceVarieties_VeryWeakUnivalence</title>
<g id="a_node14"><a xlink:href="UnivalenceVarieties.html#VeryWeakUnivalence" xlink:title="VeryWeakUnivalence">
<ellipse fill="#e2cdfa" stroke="#000000" cx="1021" cy="-383.9558" rx="109.381" ry="18"/>
<text text-anchor="middle" x="1021" y="-380.2558" font-family="Times,serif" font-size="14.00" fill="#000000">VeryWeakUnivalence</text>
</a>
</g>
</g>
<!-- UnivalenceVarieties_VeryWeakUnivalence_implies_Univalence&#45;&gt;UnivalenceVarieties_VeryWeakUnivalence -->
<g id="edge2" class="edge">
<title>UnivalenceVarieties_VeryWeakUnivalence_implies_Univalence&#45;&gt;UnivalenceVarieties_VeryWeakUnivalence</title>
<path fill="none" stroke="#000000" d="M1660.4087,-647.9402C1524.294,-591.7443 1196.4138,-456.3766 1070.9685,-404.5856"/>
<polygon fill="#000000" stroke="#000000" points="1072.1622,-401.2919 1061.5833,-400.7108 1069.4908,-407.7622 1072.1622,-401.2919"/>
</g>
<!-- UnivalenceVarieties_IncoherentWeakUnivalence_implies_Univalence -->
<g id="node2" class="node">
<title>UnivalenceVarieties_IncoherentWeakUnivalence_implies_Univalence</title>
<g id="a_node2"><a xlink:href="UnivalenceVarieties.html#IncoherentWeakUnivalence_implies_Univalence" xlink:title="IncoherentWeakUnivalence_implies_Univalence">
<ellipse fill="#f070d1" stroke="#000000" cx="2195" cy="-672.9558" rx="235.0657" ry="18"/>
<ellipse fill="none" stroke="#000000" cx="2195" cy="-672.9558" rx="239.0621" ry="22"/>
<ellipse fill="none" stroke="#000000" cx="2195" cy="-672.9558" rx="243.0584" ry="26"/>
<text text-anchor="middle" x="2195" y="-669.2558" font-family="Times,serif" font-size="14.00" fill="#000000">IncoherentWeakUnivalence_implies_Univalence</text>
</a>
</g>
</g>
<!-- UnivalenceVarieties_IncoherentWeakUnivalence_implies_Univalence&#45;&gt;UnivalenceVarieties_WeakUnivalence_implies_Univalence -->
<g id="edge3" class="edge">
<title>UnivalenceVarieties_IncoherentWeakUnivalence_implies_Univalence&#45;&gt;UnivalenceVarieties_WeakUnivalence_implies_Univalence</title>
<path fill="none" stroke="#000000" d="M2158.4337,-647.0546C2079.8978,-591.425 1896.1047,-461.2382 1820.4468,-407.6472"/>
<polygon fill="#000000" stroke="#000000" points="1822.3767,-404.7252 1812.1933,-401.801 1818.3305,-410.4373 1822.3767,-404.7252"/>
</g>
<!-- UnivalenceVarieties_IncoherentWeakUnivalence -->
<g id="node15" class="node">
<title>UnivalenceVarieties_IncoherentWeakUnivalence</title>
<g id="a_node15"><a xlink:href="UnivalenceVarieties.html#IncoherentWeakUnivalence" xlink:title="IncoherentWeakUnivalence">
<ellipse fill="#f070d1" stroke="#000000" cx="2195" cy="-383.9558" rx="139.9756" ry="18"/>
<text text-anchor="middle" x="2195" y="-380.2558" font-family="Times,serif" font-size="14.00" fill="#000000">IncoherentWeakUnivalence</text>
</a>
</g>
</g>
<!-- UnivalenceVarieties_IncoherentWeakUnivalence_implies_Univalence&#45;&gt;UnivalenceVarieties_IncoherentWeakUnivalence -->
<g id="edge4" class="edge">
<title>UnivalenceVarieties_IncoherentWeakUnivalence_implies_Univalence&#45;&gt;UnivalenceVarieties_IncoherentWeakUnivalence</title>
<path fill="none" stroke="#000000" d="M2195,-646.7992C2195,-592.6106 2195,-468.4691 2195,-412.3847"/>
<polygon fill="#000000" stroke="#000000" points="2198.5001,-412.116 2195,-402.1161 2191.5001,-412.1161 2198.5001,-412.116"/>
</g>
<!-- UnivalenceVarieties_WeakUnivalence -->
<g id="node16" class="node">
<title>UnivalenceVarieties_WeakUnivalence</title>
<g id="a_node16"><a xlink:href="UnivalenceVarieties.html#WeakUnivalence" xlink:title="WeakUnivalence">
<ellipse fill="#f070d1" stroke="#000000" cx="1787" cy="-122.9558" rx="88.2844" ry="18"/>
<text text-anchor="middle" x="1787" y="-119.2558" font-family="Times,serif" font-size="14.00" fill="#000000">WeakUnivalence</text>
</a>
</g>
</g>
<!-- UnivalenceVarieties_WeakUnivalence_implies_Univalence&#45;&gt;UnivalenceVarieties_WeakUnivalence -->
<g id="edge5" class="edge">
<title>UnivalenceVarieties_WeakUnivalence_implies_Univalence&#45;&gt;UnivalenceVarieties_WeakUnivalence</title>
<path fill="none" stroke="#000000" d="M1787,-365.6027C1787,-320.7696 1787,-205.4165 1787,-151.5115"/>
<polygon fill="#000000" stroke="#000000" points="1790.5001,-151.2885 1787,-141.2885 1783.5001,-151.2885 1790.5001,-151.2885"/>
</g>
<!-- UnivalenceVarieties_flip_comp -->
<g id="node4" class="node">
<title>UnivalenceVarieties_flip_comp</title>
<g id="a_node4"><a xlink:href="UnivalenceVarieties.html#flip_comp" xlink:title="flip_comp">
<ellipse fill="#f070d1" stroke="#000000" cx="1426" cy="-672.9558" rx="55.8034" ry="18"/>
<ellipse fill="none" stroke="#000000" cx="1426" cy="-672.9558" rx="59.7968" ry="22"/>
<ellipse fill="none" stroke="#000000" cx="1426" cy="-672.9558" rx="63.7903" ry="26"/>
<text text-anchor="middle" x="1426" y="-669.2558" font-family="Times,serif" font-size="14.00" fill="#000000">flip_comp</text>
</a>
</g>
</g>
<!-- UnivalenceVarieties_flip_comp&#45;&gt;UnivalenceVarieties_VeryWeakUnivalence -->
<g id="edge6" class="edge">
<title>UnivalenceVarieties_flip_comp&#45;&gt;UnivalenceVarieties_VeryWeakUnivalence</title>
<path fill="none" stroke="#000000" d="M1394.2203,-650.2784C1318.987,-596.5934 1130.5766,-462.1474 1054.0686,-407.5529"/>
<polygon fill="#000000" stroke="#000000" points="1055.9075,-404.5653 1045.7344,-401.6057 1051.8414,-410.2634 1055.9075,-404.5653"/>
</g>
<!-- UnivalenceVarieties_unit_comp -->
<g id="node5" class="node">
<title>UnivalenceVarieties_unit_comp</title>
<g id="a_node5"><a xlink:href="UnivalenceVarieties.html#unit_comp" xlink:title="unit_comp">
<ellipse fill="#f070d1" stroke="#000000" cx="1276" cy="-672.9558" rx="59.6142" ry="18"/>
<ellipse fill="none" stroke="#000000" cx="1276" cy="-672.9558" rx="63.6021" ry="22"/>
<ellipse fill="none" stroke="#000000" cx="1276" cy="-672.9558" rx="67.59" ry="26"/>
<text text-anchor="middle" x="1276" y="-669.2558" font-family="Times,serif" font-size="14.00" fill="#000000">unit_comp</text>
</a>
</g>
</g>
<!-- UnivalenceVarieties_unit_comp&#45;&gt;UnivalenceVarieties_VeryWeakUnivalence -->
<g id="edge7" class="edge">
<title>UnivalenceVarieties_unit_comp&#45;&gt;UnivalenceVarieties_VeryWeakUnivalence</title>
<path fill="none" stroke="#000000" d="M1254.2588,-648.3158C1206.3889,-594.0632 1092.2768,-464.7362 1043.6135,-409.5844"/>
<polygon fill="#000000" stroke="#000000" points="1046.165,-407.186 1036.9243,-402.0033 1040.9161,-411.8173 1046.165,-407.186"/>
</g>
<!-- UnivalenceVarieties_contract -->
<g id="node6" class="node">
<title>UnivalenceVarieties_contract</title>
<g id="a_node6"><a xlink:href="UnivalenceVarieties.html#contract" xlink:title="contract">
<ellipse fill="#f070d1" stroke="#000000" cx="1132" cy="-672.9558" rx="50.0849" ry="18"/>
<ellipse fill="none" stroke="#000000" cx="1132" cy="-672.9558" rx="54.088" ry="22"/>
<ellipse fill="none" stroke="#000000" cx="1132" cy="-672.9558" rx="58.0912" ry="26"/>
<text text-anchor="middle" x="1132" y="-669.2558" font-family="Times,serif" font-size="14.00" fill="#000000">contract</text>
</a>
</g>
</g>
<!-- UnivalenceVarieties_contract&#45;&gt;UnivalenceVarieties_VeryWeakUnivalence -->
<g id="edge8" class="edge">
<title>UnivalenceVarieties_contract&#45;&gt;UnivalenceVarieties_VeryWeakUnivalence</title>
<path fill="none" stroke="#000000" d="M1122.1495,-647.3089C1101.3705,-593.2087 1053.2003,-467.7926 1031.6985,-411.8105"/>
<polygon fill="#000000" stroke="#000000" points="1034.8595,-410.2785 1028.0067,-402.1983 1028.3249,-412.7884 1034.8595,-410.2785"/>
</g>
<!-- UnivalenceVarieties_flip -->
<g id="node7" class="node">
<title>UnivalenceVarieties_flip</title>
<g id="a_node7"><a xlink:href="UnivalenceVarieties.html#flip" xlink:title="flip">
<ellipse fill="#f070d1" stroke="#000000" cx="1021" cy="-672.9558" rx="27" ry="18"/>
<ellipse fill="none" stroke="#000000" cx="1021" cy="-672.9558" rx="31" ry="22"/>
<ellipse fill="none" stroke="#000000" cx="1021" cy="-672.9558" rx="35" ry="26"/>
<text text-anchor="middle" x="1021" y="-669.2558" font-family="Times,serif" font-size="14.00" fill="#000000">flip</text>
</a>
</g>
</g>
<!-- UnivalenceVarieties_flip&#45;&gt;UnivalenceVarieties_VeryWeakUnivalence -->
<g id="edge9" class="edge">
<title>UnivalenceVarieties_flip&#45;&gt;UnivalenceVarieties_VeryWeakUnivalence</title>
<path fill="none" stroke="#000000" d="M1021,-646.7992C1021,-592.6106 1021,-468.4691 1021,-412.3847"/>
<polygon fill="#000000" stroke="#000000" points="1024.5001,-412.116 1021,-402.1161 1017.5001,-412.1161 1024.5001,-412.116"/>
</g>
<!-- UnivalenceVarieties_unit -->
<g id="node8" class="node">
<title>UnivalenceVarieties_unit</title>
<g id="a_node8"><a xlink:href="UnivalenceVarieties.html#unit" xlink:title="unit">
<ellipse fill="#f070d1" stroke="#000000" cx="931" cy="-672.9558" rx="29.443" ry="18"/>
<ellipse fill="none" stroke="#000000" cx="931" cy="-672.9558" rx="33.4697" ry="22"/>
<ellipse fill="none" stroke="#000000" cx="931" cy="-672.9558" rx="37.4965" ry="26"/>
<text text-anchor="middle" x="931" y="-669.2558" font-family="Times,serif" font-size="14.00" fill="#000000">unit</text>
</a>
</g>
</g>
<!-- UnivalenceVarieties_unit&#45;&gt;UnivalenceVarieties_VeryWeakUnivalence -->
<g id="edge10" class="edge">
<title>UnivalenceVarieties_unit&#45;&gt;UnivalenceVarieties_VeryWeakUnivalence</title>
<path fill="none" stroke="#000000" d="M938.9869,-647.3089C955.8347,-593.2087 994.8916,-467.7926 1012.3255,-411.8105"/>
<polygon fill="#000000" stroke="#000000" points="1015.6872,-412.7868 1015.3189,-402.1983 1009.0038,-410.7054 1015.6872,-412.7868"/>
</g>
<!-- UnivalenceVarieties_VeryWeakUnivalence_sind -->
<g id="node9" class="node">
<title>UnivalenceVarieties_VeryWeakUnivalence_sind</title>
<g id="a_node9"><a xlink:href="UnivalenceVarieties.html#VeryWeakUnivalence_sind" xlink:title="VeryWeakUnivalence_sind">
<ellipse fill="#f070d1" stroke="#000000" cx="734" cy="-672.9558" rx="133.7826" ry="18"/>
<ellipse fill="none" stroke="#000000" cx="734" cy="-672.9558" rx="137.7795" ry="22"/>
<ellipse fill="none" stroke="#000000" cx="734" cy="-672.9558" rx="141.7763" ry="26"/>
<text text-anchor="middle" x="734" y="-669.2558" font-family="Times,serif" font-size="14.00" fill="#000000">VeryWeakUnivalence_sind</text>
</a>
</g>
</g>
<!-- UnivalenceVarieties_Build_VeryWeakUnivalence -->
<g id="node13" class="node">
<title>UnivalenceVarieties_Build_VeryWeakUnivalence</title>
<g id="a_node13"><a xlink:href="UnivalenceVarieties.html#Build_VeryWeakUnivalence" xlink:title="Build_VeryWeakUnivalence">
<ellipse fill="#7faaff" stroke="#000000" cx="441" cy="-383.9558" rx="138.3755" ry="18"/>
<text text-anchor="middle" x="441" y="-380.2558" font-family="Times,serif" font-size="14.00" fill="#000000">Build_VeryWeakUnivalence</text>
</a>
</g>
</g>
<!-- UnivalenceVarieties_VeryWeakUnivalence_sind&#45;&gt;UnivalenceVarieties_Build_VeryWeakUnivalence -->
<g id="edge11" class="edge">
<title>UnivalenceVarieties_VeryWeakUnivalence_sind&#45;&gt;UnivalenceVarieties_Build_VeryWeakUnivalence</title>
<path fill="none" stroke="#000000" d="M707.9982,-647.3089C652.2189,-592.2911 521.6631,-463.5176 466.4137,-409.0225"/>
<polygon fill="#000000" stroke="#000000" points="468.7105,-406.3719 459.1332,-401.8414 463.7949,-411.3556 468.7105,-406.3719"/>
</g>
<!-- UnivalenceVarieties_VeryWeakUnivalence_sind&#45;&gt;UnivalenceVarieties_VeryWeakUnivalence -->
<g id="edge12" class="edge">
<title>UnivalenceVarieties_VeryWeakUnivalence_sind&#45;&gt;UnivalenceVarieties_VeryWeakUnivalence</title>
<path fill="none" stroke="#000000" d="M759.4693,-647.3089C814.1064,-592.2911 941.9887,-463.5176 996.1067,-409.0225"/>
<polygon fill="#000000" stroke="#000000" points="998.6751,-411.4033 1003.2381,-401.8414 993.7082,-406.4707 998.6751,-411.4033"/>
</g>
<!-- UnivalenceVarieties_VeryWeakUnivalence_rec -->
<g id="node10" class="node">
<title>UnivalenceVarieties_VeryWeakUnivalence_rec</title>
<g id="a_node10"><a xlink:href="UnivalenceVarieties.html#VeryWeakUnivalence_rec" xlink:title="VeryWeakUnivalence_rec">
<ellipse fill="#f070d1" stroke="#000000" cx="441" cy="-991.9558" rx="129.1866" ry="18"/>
<ellipse fill="none" stroke="#000000" cx="441" cy="-991.9558" rx="133.1819" ry="22"/>
<ellipse fill="none" stroke="#000000" cx="441" cy="-991.9558" rx="137.1772" ry="26"/>
<text text-anchor="middle" x="441" y="-988.2558" font-family="Times,serif" font-size="14.00" fill="#000000">VeryWeakUnivalence_rec</text>
</a>
</g>
</g>
<!-- UnivalenceVarieties_VeryWeakUnivalence_rect -->
<g id="node12" class="node">
<title>UnivalenceVarieties_VeryWeakUnivalence_rect</title>
<g id="a_node12"><a xlink:href="UnivalenceVarieties.html#VeryWeakUnivalence_rect" xlink:title="VeryWeakUnivalence_rect">
<ellipse fill="#f070d1" stroke="#000000" cx="441" cy="-672.9558" rx="133.4768" ry="18"/>
<text text-anchor="middle" x="441" y="-669.2558" font-family="Times,serif" font-size="14.00" fill="#000000">VeryWeakUnivalence_rect</text>
</a>
</g>
</g>
<!-- UnivalenceVarieties_VeryWeakUnivalence_rec&#45;&gt;UnivalenceVarieties_VeryWeakUnivalence_rect -->
<g id="edge13" class="edge">
<title>UnivalenceVarieties_VeryWeakUnivalence_rec&#45;&gt;UnivalenceVarieties_VeryWeakUnivalence_rect</title>
<path fill="none" stroke="#000000" d="M441,-965.8506C441,-906.613 441,-762.4215 441,-701.1979"/>
<polygon fill="#000000" stroke="#000000" points="444.5001,-701.1037 441,-691.1037 437.5001,-701.1037 444.5001,-701.1037"/>
</g>
<!-- UnivalenceVarieties_VeryWeakUnivalence_ind -->
<g id="node11" class="node">
<title>UnivalenceVarieties_VeryWeakUnivalence_ind</title>
<g id="a_node11"><a xlink:href="UnivalenceVarieties.html#VeryWeakUnivalence_ind" xlink:title="VeryWeakUnivalence_ind">
<ellipse fill="#7fffd4" stroke="#000000" cx="153" cy="-672.9558" rx="128.8664" ry="18"/>
<ellipse fill="none" stroke="#000000" cx="153" cy="-672.9558" rx="132.8719" ry="22"/>
<ellipse fill="none" stroke="#000000" cx="153" cy="-672.9558" rx="136.8774" ry="26"/>
<text text-anchor="middle" x="153" y="-669.2558" font-family="Times,serif" font-size="14.00" fill="#000000">VeryWeakUnivalence_ind</text>
</a>
</g>
</g>
<!-- UnivalenceVarieties_VeryWeakUnivalence_ind&#45;&gt;UnivalenceVarieties_Build_VeryWeakUnivalence -->
<g id="edge14" class="edge">
<title>UnivalenceVarieties_VeryWeakUnivalence_ind&#45;&gt;UnivalenceVarieties_Build_VeryWeakUnivalence</title>
<path fill="none" stroke="#000000" d="M178.5581,-647.3089C233.3855,-592.2911 361.7134,-463.5176 416.02,-409.0225"/>
<polygon fill="#000000" stroke="#000000" points="418.5966,-411.3953 423.1762,-401.8414 413.6382,-406.4541 418.5966,-411.3953"/>
</g>
<!-- UnivalenceVarieties_VeryWeakUnivalence_ind&#45;&gt;UnivalenceVarieties_VeryWeakUnivalence -->
<g id="edge15" class="edge">
<title>UnivalenceVarieties_VeryWeakUnivalence_ind&#45;&gt;UnivalenceVarieties_VeryWeakUnivalence</title>
<path fill="none" stroke="#000000" d="M221.1105,-650.2784C386.6299,-595.1688 807.755,-454.9555 962.6644,-403.3785"/>
<polygon fill="#000000" stroke="#000000" points="964.0953,-406.5911 972.4775,-400.1113 961.8839,-399.9496 964.0953,-406.5911"/>
</g>
<!-- UnivalenceVarieties_VeryWeakUnivalence_rect&#45;&gt;UnivalenceVarieties_Build_VeryWeakUnivalence -->
<g id="edge16" class="edge">
<title>UnivalenceVarieties_VeryWeakUnivalence_rect&#45;&gt;UnivalenceVarieties_Build_VeryWeakUnivalence</title>
<path fill="none" stroke="#000000" d="M441,-654.8775C441,-606.0181 441,-471.0533 441,-412.1105"/>
<polygon fill="#000000" stroke="#000000" points="444.5001,-412.0271 441,-402.0272 437.5001,-412.0272 444.5001,-412.0271"/>
</g>
<!-- UnivalenceVarieties_VeryWeakUnivalence_rect&#45;&gt;UnivalenceVarieties_VeryWeakUnivalence -->
<g id="edge17" class="edge">
<title>UnivalenceVarieties_VeryWeakUnivalence_rect&#45;&gt;UnivalenceVarieties_VeryWeakUnivalence</title>
<path fill="none" stroke="#000000" d="M475.9754,-655.5283C576.5217,-605.4286 866.2363,-461.0708 977.1156,-405.8223"/>
<polygon fill="#000000" stroke="#000000" points="978.9562,-408.8156 986.3457,-401.2231 975.8343,-402.5503 978.9562,-408.8156"/>
</g>
</g>
</svg>
