<?xml version="1.0" encoding="UTF-8" standalone="no"?>
<!DOCTYPE svg PUBLIC "-//W3C//DTD SVG 1.1//EN"
 "http://www.w3.org/Graphics/SVG/1.1/DTD/svg11.dtd">
<!-- Generated by graphviz version 2.40.1 (20161225.0304)
 -->
<!-- Title: HoTT_HIT_Interval Pages: 1 -->
<svg width="846pt" height="427pt"
 viewBox="0.00 0.00 846.00 427.00" xmlns="http://www.w3.org/2000/svg" xmlns:xlink="http://www.w3.org/1999/xlink">
<g id="graph0" class="graph" transform="scale(1 1) rotate(0) translate(4 423)">
<title>HoTT_HIT_Interval</title>
<polygon fill="#ffffff" stroke="transparent" points="-4,4 -4,-423 842,-423 842,4 -4,4"/>
<g id="clust1" class="cluster">
<title>cluster_Interval</title>
<polygon fill="#ffffc3" stroke="#000000" points="10.7608,-8 10.7608,-411 827.2392,-411 827.2392,-8 10.7608,-8"/>
<text text-anchor="middle" x="47.7608" y="-395.8" font-family="Times,serif" font-size="14.00" fill="#000000">Interval</text>
</g>
<g id="clust2" class="cluster">
<title>cluster_Interval_Interval</title>
<polygon fill="#ffffa3" stroke="#000000" points="21.5217,-16 21.5217,-315 372.5939,-315 372.5939,-16 21.5217,-16"/>
<text text-anchor="middle" x="58.5217" y="-299.8" font-family="Times,serif" font-size="14.00" fill="#000000">Interval</text>
</g>
<!-- Interval_Interval_interval_ind_beta_seg -->
<g id="node1" class="node">
<title>Interval_Interval_interval_ind_beta_seg</title>
<g id="a_node1"><a xlink:href="Interval.html#Interval.interval_ind_beta_seg" xlink:title="interval_ind_beta_seg">
<ellipse fill="#facdef" stroke="#000000" cx="208.9342" cy="-266" rx="112.3801" ry="18"/>
<text text-anchor="middle" x="208.9342" y="-262.3" font-family="Times,serif" font-size="14.00" fill="#000000">interval_ind_beta_seg</text>
</a>
</g>
</g>
<!-- Interval_Interval_interval_ind -->
<g id="node2" class="node">
<title>Interval_Interval_interval_ind</title>
<g id="a_node2"><a xlink:href="Interval.html#Interval.interval_ind" xlink:title="interval_ind">
<ellipse fill="#f070d1" stroke="#000000" cx="240.9342" cy="-186" rx="66.0889" ry="18"/>
<text text-anchor="middle" x="240.9342" y="-182.3" font-family="Times,serif" font-size="14.00" fill="#000000">interval_ind</text>
</a>
</g>
</g>
<!-- Interval_Interval_interval_ind_beta_seg&#45;&gt;Interval_Interval_interval_ind -->
<g id="edge1" class="edge">
<title>Interval_Interval_interval_ind_beta_seg&#45;&gt;Interval_Interval_interval_ind</title>
<path fill="none" stroke="#000000" d="M216.1955,-247.8468C220.246,-237.7205 225.3743,-224.8998 229.9101,-213.5602"/>
<polygon fill="#000000" stroke="#000000" points="233.2373,-214.6661 233.7016,-204.0814 226.738,-212.0663 233.2373,-214.6661"/>
</g>
<!-- Interval_Interval_seg -->
<g id="node3" class="node">
<title>Interval_Interval_seg</title>
<g id="a_node3"><a xlink:href="Interval.html#Interval.seg" xlink:title="seg">
<ellipse fill="#facdef" stroke="#000000" cx="189.9342" cy="-114" rx="27" ry="18"/>
<text text-anchor="middle" x="189.9342" y="-110.3" font-family="Times,serif" font-size="14.00" fill="#000000">seg</text>
</a>
</g>
</g>
<!-- Interval_Interval_interval_ind&#45;&gt;Interval_Interval_seg -->
<g id="edge2" class="edge">
<title>Interval_Interval_interval_ind&#45;&gt;Interval_Interval_seg</title>
<path fill="none" stroke="#000000" d="M228.3274,-168.2022C222.0943,-159.4025 214.4664,-148.6338 207.6568,-139.0202"/>
<polygon fill="#000000" stroke="#000000" points="210.333,-136.743 201.6967,-130.6058 204.6208,-140.7892 210.333,-136.743"/>
</g>
<!-- Interval_Interval_one -->
<g id="node4" class="node">
<title>Interval_Interval_one</title>
<g id="a_node4"><a xlink:href="Interval.html#Interval.one" xlink:title="one">
<ellipse fill="#7faaff" stroke="#000000" cx="68.9342" cy="-42" rx="27.0966" ry="18"/>
<text text-anchor="middle" x="68.9342" y="-38.3" font-family="Times,serif" font-size="14.00" fill="#000000">one</text>
</a>
</g>
</g>
<!-- Interval_Interval_seg&#45;&gt;Interval_Interval_one -->
<g id="edge3" class="edge">
<title>Interval_Interval_seg&#45;&gt;Interval_Interval_one</title>
<path fill="none" stroke="#000000" d="M169.6815,-101.9488C150.0503,-90.2675 120.0723,-72.4293 97.9173,-59.2461"/>
<polygon fill="#000000" stroke="#000000" points="99.6364,-56.1963 89.2529,-54.0905 96.0569,-62.2119 99.6364,-56.1963"/>
</g>
<!-- Interval_Interval_zero -->
<g id="node5" class="node">
<title>Interval_Interval_zero</title>
<g id="a_node5"><a xlink:href="Interval.html#Interval.zero" xlink:title="zero">
<ellipse fill="#7faaff" stroke="#000000" cx="170.9342" cy="-42" rx="30.5947" ry="18"/>
<text text-anchor="middle" x="170.9342" y="-38.3" font-family="Times,serif" font-size="14.00" fill="#000000">zero</text>
</a>
</g>
</g>
<!-- Interval_Interval_seg&#45;&gt;Interval_Interval_zero -->
<g id="edge4" class="edge">
<title>Interval_Interval_seg&#45;&gt;Interval_Interval_zero</title>
<path fill="none" stroke="#000000" d="M185.2376,-96.2022C183.1366,-88.2406 180.6102,-78.6671 178.2692,-69.7957"/>
<polygon fill="#000000" stroke="#000000" points="181.5784,-68.6185 175.6426,-59.8425 174.8101,-70.4046 181.5784,-68.6185"/>
</g>
<!-- Interval_Interval_interval -->
<g id="node6" class="node">
<title>Interval_Interval_interval</title>
<g id="a_node6"><a xlink:href="Interval.html#Interval.interval" xlink:title="interval">
<ellipse fill="#e2cdfa" stroke="#000000" cx="298.9342" cy="-42" rx="46.5926" ry="18"/>
<text text-anchor="middle" x="298.9342" y="-38.3" font-family="Times,serif" font-size="14.00" fill="#000000">interval</text>
</a>
</g>
</g>
<!-- Interval_Interval_seg&#45;&gt;Interval_Interval_interval -->
<g id="edge5" class="edge">
<title>Interval_Interval_seg&#45;&gt;Interval_Interval_interval</title>
<path fill="none" stroke="#000000" d="M209.1703,-101.2936C225.1041,-90.7685 248.0854,-75.5882 266.8055,-63.2226"/>
<polygon fill="#000000" stroke="#000000" points="268.9193,-66.021 275.3342,-57.589 265.0611,-60.1802 268.9193,-66.021"/>
</g>
<!-- Interval_contr_interval -->
<g id="node7" class="node">
<title>Interval_contr_interval</title>
<g id="a_node7"><a xlink:href="Interval.html#contr_interval" xlink:title="contr_interval">
<ellipse fill="#f070d1" stroke="#000000" cx="701.9342" cy="-266" rx="76.8685" ry="18"/>
<ellipse fill="none" stroke="#000000" cx="701.9342" cy="-266" rx="80.8777" ry="22"/>
<ellipse fill="none" stroke="#000000" cx="701.9342" cy="-266" rx="84.8868" ry="26"/>
<text text-anchor="middle" x="701.9342" y="-262.3" font-family="Times,serif" font-size="14.00" fill="#000000">contr_interval</text>
</a>
</g>
</g>
<!-- Interval_contr_interval&#45;&gt;Interval_Interval_interval_ind -->
<g id="edge6" class="edge">
<title>Interval_contr_interval&#45;&gt;Interval_Interval_interval_ind</title>
<path fill="none" stroke="#000000" d="M628.1223,-253.191C539.5176,-237.8149 392.2567,-212.2599 307.1665,-197.4937"/>
<polygon fill="#000000" stroke="#000000" points="307.5571,-194.0092 297.1059,-195.7478 306.3602,-200.9062 307.5571,-194.0092"/>
</g>
<!-- Interval_interval_rec_beta_seg -->
<g id="node8" class="node">
<title>Interval_interval_rec_beta_seg</title>
<g id="a_node8"><a xlink:href="Interval.html#interval_rec_beta_seg" xlink:title="interval_rec_beta_seg">
<ellipse fill="#f070d1" stroke="#000000" cx="339.9342" cy="-354" rx="113.174" ry="18"/>
<ellipse fill="none" stroke="#000000" cx="339.9342" cy="-354" rx="117.177" ry="22"/>
<ellipse fill="none" stroke="#000000" cx="339.9342" cy="-354" rx="121.18" ry="26"/>
<text text-anchor="middle" x="339.9342" y="-350.3" font-family="Times,serif" font-size="14.00" fill="#000000">interval_rec_beta_seg</text>
</a>
</g>
</g>
<!-- Interval_interval_rec_beta_seg&#45;&gt;Interval_Interval_interval_ind_beta_seg -->
<g id="edge7" class="edge">
<title>Interval_interval_rec_beta_seg&#45;&gt;Interval_Interval_interval_ind_beta_seg</title>
<path fill="none" stroke="#000000" d="M302.7453,-329.0181C284.2836,-316.6164 262.1062,-301.7186 243.9505,-289.5224"/>
<polygon fill="#000000" stroke="#000000" points="245.6474,-286.4459 235.3947,-283.775 241.744,-292.2566 245.6474,-286.4459"/>
</g>
<!-- Interval_interval_rec -->
<g id="node9" class="node">
<title>Interval_interval_rec</title>
<g id="a_node9"><a xlink:href="Interval.html#interval_rec" xlink:title="interval_rec">
<ellipse fill="#f070d1" stroke="#000000" cx="473.9342" cy="-266" rx="66.8882" ry="18"/>
<text text-anchor="middle" x="473.9342" y="-262.3" font-family="Times,serif" font-size="14.00" fill="#000000">interval_rec</text>
</a>
</g>
</g>
<!-- Interval_interval_rec_beta_seg&#45;&gt;Interval_interval_rec -->
<g id="edge8" class="edge">
<title>Interval_interval_rec_beta_seg&#45;&gt;Interval_interval_rec</title>
<path fill="none" stroke="#000000" d="M377.6173,-329.2529C397.2189,-316.3802 420.9907,-300.7688 440.0133,-288.2764"/>
<polygon fill="#000000" stroke="#000000" points="441.9498,-291.192 448.3872,-282.7771 438.1073,-285.3409 441.9498,-291.192"/>
</g>
<!-- Interval_interval_rec&#45;&gt;Interval_Interval_interval_ind -->
<g id="edge9" class="edge">
<title>Interval_interval_rec&#45;&gt;Interval_Interval_interval_ind</title>
<path fill="none" stroke="#000000" d="M432.5469,-251.7898C393.2389,-238.2935 334.0427,-217.9686 291.8584,-203.4847"/>
<polygon fill="#000000" stroke="#000000" points="292.9224,-200.1495 282.3277,-200.2124 290.6491,-206.7701 292.9224,-200.1495"/>
</g>
</g>
</svg>
