<?xml version="1.0" encoding="UTF-8" standalone="no"?>
<!DOCTYPE svg PUBLIC "-//W3C//DTD SVG 1.1//EN"
 "http://www.w3.org/Graphics/SVG/1.1/DTD/svg11.dtd">
<!-- Generated by graphviz version 2.40.1 (20161225.0304)
 -->
<!-- Title: HoTT_Types_Arrow Pages: 1 -->
<svg width="3157pt" height="1583pt"
 viewBox="0.00 0.00 3157.00 1582.50" xmlns="http://www.w3.org/2000/svg" xmlns:xlink="http://www.w3.org/1999/xlink">
<g id="graph0" class="graph" transform="scale(1 1) rotate(0) translate(4 1578.5)">
<title>HoTT_Types_Arrow</title>
<polygon fill="#ffffff" stroke="transparent" points="-4,4 -4,-1578.5 3153,-1578.5 3153,4 -4,4"/>
<g id="clust1" class="cluster">
<title>cluster_Arrow</title>
<polygon fill="#ffffc3" stroke="#000000" points="8,-37.1563 8,-1537.3437 3141,-1537.3437 3141,-37.1563 8,-37.1563"/>
<text text-anchor="middle" x="38.5" y="-1522.1437" font-family="Times,serif" font-size="14.00" fill="#000000">Arrow</text>
</g>
<!-- Arrow_decidable_arrow -->
<g id="node1" class="node">
<title>Arrow_decidable_arrow</title>
<g id="a_node1"><a xlink:href="Arrow.html#decidable_arrow" xlink:title="decidable_arrow">
<ellipse fill="#f070d1" stroke="#000000" cx="3037" cy="-1272.1563" rx="87.9648" ry="18"/>
<ellipse fill="none" stroke="#000000" cx="3037" cy="-1272.1563" rx="91.9749" ry="22"/>
<ellipse fill="none" stroke="#000000" cx="3037" cy="-1272.1563" rx="95.985" ry="26"/>
<text text-anchor="middle" x="3037" y="-1268.4563" font-family="Times,serif" font-size="14.00" fill="#000000">decidable_arrow</text>
</a>
</g>
</g>
<!-- Arrow_equiv_functor_arrow_ -->
<g id="node2" class="node">
<title>Arrow_equiv_functor_arrow_</title>
<g id="a_node2"><a xlink:href="Arrow.html#equiv_functor_arrow'" xlink:title="equiv_functor_arrow&#39;">
<ellipse fill="#f070d1" stroke="#000000" cx="2805" cy="-1272.1563" rx="109.6916" ry="18"/>
<ellipse fill="none" stroke="#000000" cx="2805" cy="-1272.1563" rx="113.6861" ry="22"/>
<ellipse fill="none" stroke="#000000" cx="2805" cy="-1272.1563" rx="117.6807" ry="26"/>
<text text-anchor="middle" x="2805" y="-1268.4563" font-family="Times,serif" font-size="14.00" fill="#000000">equiv_functor_arrow&#39;</text>
</a>
</g>
</g>
<!-- Arrow_equiv_functor_arrow -->
<g id="node3" class="node">
<title>Arrow_equiv_functor_arrow</title>
<g id="a_node3"><a xlink:href="Arrow.html#equiv_functor_arrow" xlink:title="equiv_functor_arrow">
<ellipse fill="#f070d1" stroke="#000000" cx="2554" cy="-1272.1563" rx="107.4647" ry="18"/>
<ellipse fill="none" stroke="#000000" cx="2554" cy="-1272.1563" rx="111.4731" ry="22"/>
<ellipse fill="none" stroke="#000000" cx="2554" cy="-1272.1563" rx="115.4815" ry="26"/>
<text text-anchor="middle" x="2554" y="-1268.4563" font-family="Times,serif" font-size="14.00" fill="#000000">equiv_functor_arrow</text>
</a>
</g>
</g>
<!-- Arrow_isequiv_functor_arrow -->
<g id="node4" class="node">
<title>Arrow_isequiv_functor_arrow</title>
<g id="a_node4"><a xlink:href="Arrow.html#isequiv_functor_arrow" xlink:title="isequiv_functor_arrow">
<ellipse fill="#f070d1" stroke="#000000" cx="2203" cy="-529.1563" rx="115.077" ry="18"/>
<ellipse fill="none" stroke="#000000" cx="2203" cy="-529.1563" rx="119.0783" ry="22"/>
<ellipse fill="none" stroke="#000000" cx="2203" cy="-529.1563" rx="123.0796" ry="26"/>
<text text-anchor="middle" x="2203" y="-525.4563" font-family="Times,serif" font-size="14.00" fill="#000000">isequiv_functor_arrow</text>
</a>
</g>
</g>
<!-- Arrow_functor_arrow -->
<g id="node9" class="node">
<title>Arrow_functor_arrow</title>
<g id="a_node9"><a xlink:href="Arrow.html#functor_arrow" xlink:title="functor_arrow">
<ellipse fill="#f070d1" stroke="#000000" cx="1956" cy="-158.1563" rx="77.1866" ry="18"/>
<text text-anchor="middle" x="1956" y="-154.4563" font-family="Times,serif" font-size="14.00" fill="#000000">functor_arrow</text>
</a>
</g>
</g>
<!-- Arrow_isequiv_functor_arrow&#45;&gt;Arrow_functor_arrow -->
<g id="edge1" class="edge">
<title>Arrow_isequiv_functor_arrow&#45;&gt;Arrow_functor_arrow</title>
<path fill="none" stroke="#000000" d="M2185.8275,-503.3629C2140.7011,-435.5819 2019.119,-252.9627 1973.5592,-184.5306"/>
<polygon fill="#000000" stroke="#000000" points="1976.3513,-182.4089 1967.8961,-176.0245 1970.5246,-186.2882 1976.3513,-182.4089"/>
</g>
<!-- Arrow_istrunc_arrow -->
<g id="node5" class="node">
<title>Arrow_istrunc_arrow</title>
<g id="a_node5"><a xlink:href="Arrow.html#istrunc_arrow" xlink:title="istrunc_arrow">
<ellipse fill="#f070d1" stroke="#000000" cx="2337" cy="-1272.1563" rx="76.0824" ry="18"/>
<ellipse fill="none" stroke="#000000" cx="2337" cy="-1272.1563" rx="80.0845" ry="22"/>
<ellipse fill="none" stroke="#000000" cx="2337" cy="-1272.1563" rx="84.0865" ry="26"/>
<text text-anchor="middle" x="2337" y="-1268.4563" font-family="Times,serif" font-size="14.00" fill="#000000">istrunc_arrow</text>
</a>
</g>
</g>
<!-- Arrow_contr_arrow -->
<g id="node6" class="node">
<title>Arrow_contr_arrow</title>
<g id="a_node6"><a xlink:href="Arrow.html#contr_arrow" xlink:title="contr_arrow">
<ellipse fill="#f070d1" stroke="#000000" cx="2159" cy="-1272.1563" rx="67.6782" ry="18"/>
<ellipse fill="none" stroke="#000000" cx="2159" cy="-1272.1563" rx="71.6831" ry="22"/>
<ellipse fill="none" stroke="#000000" cx="2159" cy="-1272.1563" rx="75.6881" ry="26"/>
<text text-anchor="middle" x="2159" y="-1268.4563" font-family="Times,serif" font-size="14.00" fill="#000000">contr_arrow</text>
</a>
</g>
</g>
<!-- Arrow_ap_functor_arrow -->
<g id="node7" class="node">
<title>Arrow_ap_functor_arrow</title>
<g id="a_node7"><a xlink:href="Arrow.html#ap_functor_arrow" xlink:title="ap_functor_arrow">
<ellipse fill="#f070d1" stroke="#000000" cx="1732" cy="-529.1563" rx="92.8882" ry="18"/>
<ellipse fill="none" stroke="#000000" cx="1732" cy="-529.1563" rx="96.8858" ry="22"/>
<ellipse fill="none" stroke="#000000" cx="1732" cy="-529.1563" rx="100.8835" ry="26"/>
<text text-anchor="middle" x="1732" y="-525.4563" font-family="Times,serif" font-size="14.00" fill="#000000">ap_functor_arrow</text>
</a>
</g>
</g>
<!-- Arrow_ap_functor_arrow&#45;&gt;Arrow_functor_arrow -->
<g id="edge2" class="edge">
<title>Arrow_ap_functor_arrow&#45;&gt;Arrow_functor_arrow</title>
<path fill="none" stroke="#000000" d="M1747.5734,-503.3629C1788.4142,-435.7203 1898.3087,-253.7076 1939.8221,-184.951"/>
<polygon fill="#000000" stroke="#000000" points="1943.0392,-186.3943 1945.2117,-176.0245 1937.0467,-182.7761 1943.0392,-186.3943"/>
</g>
<!-- Arrow_path_arrow -->
<g id="node30" class="node">
<title>Arrow_path_arrow</title>
<g id="a_node30"><a xlink:href="Arrow.html#path_arrow" xlink:title="path_arrow">
<ellipse fill="#f070d1" stroke="#000000" cx="1025" cy="-158.1563" rx="63.8893" ry="18"/>
<text text-anchor="middle" x="1025" y="-154.4563" font-family="Times,serif" font-size="14.00" fill="#000000">path_arrow</text>
</a>
</g>
</g>
<!-- Arrow_ap_functor_arrow&#45;&gt;Arrow_path_arrow -->
<g id="edge3" class="edge">
<title>Arrow_ap_functor_arrow&#45;&gt;Arrow_path_arrow</title>
<path fill="none" stroke="#000000" d="M1687.5062,-505.8081C1558.6374,-438.1839 1186.5382,-242.9239 1064.374,-178.818"/>
<polygon fill="#000000" stroke="#000000" points="1065.825,-175.6268 1055.3437,-174.0793 1062.5723,-181.8252 1065.825,-175.6268"/>
</g>
<!-- Arrow_not_contrapositive -->
<g id="node8" class="node">
<title>Arrow_not_contrapositive</title>
<g id="a_node8"><a xlink:href="Arrow.html#not_contrapositive" xlink:title="not_contrapositive">
<ellipse fill="#f070d1" stroke="#000000" cx="1956" cy="-529.1563" rx="97.4834" ry="18"/>
<ellipse fill="none" stroke="#000000" cx="1956" cy="-529.1563" rx="101.483" ry="22"/>
<ellipse fill="none" stroke="#000000" cx="1956" cy="-529.1563" rx="105.4827" ry="26"/>
<text text-anchor="middle" x="1956" y="-525.4563" font-family="Times,serif" font-size="14.00" fill="#000000">not_contrapositive</text>
</a>
</g>
</g>
<!-- Arrow_not_contrapositive&#45;&gt;Arrow_functor_arrow -->
<g id="edge4" class="edge">
<title>Arrow_not_contrapositive&#45;&gt;Arrow_functor_arrow</title>
<path fill="none" stroke="#000000" d="M1956,-503.0683C1956,-435.7472 1956,-256.5636 1956,-186.654"/>
<polygon fill="#000000" stroke="#000000" points="1959.5001,-186.406 1956,-176.406 1952.5001,-186.4061 1959.5001,-186.406"/>
</g>
<!-- Arrow_ap_lambda -->
<g id="node10" class="node">
<title>Arrow_ap_lambda</title>
<g id="a_node10"><a xlink:href="Arrow.html#ap_lambda" xlink:title="ap_lambda">
<ellipse fill="#f070d1" stroke="#000000" cx="1996" cy="-1272.1563" rx="61.1783" ry="18"/>
<ellipse fill="none" stroke="#000000" cx="1996" cy="-1272.1563" rx="65.1838" ry="22"/>
<ellipse fill="none" stroke="#000000" cx="1996" cy="-1272.1563" rx="69.1893" ry="26"/>
<text text-anchor="middle" x="1996" y="-1268.4563" font-family="Times,serif" font-size="14.00" fill="#000000">ap_lambda</text>
</a>
</g>
</g>
<!-- Arrow_path_arrow_1 -->
<g id="node25" class="node">
<title>Arrow_path_arrow_1</title>
<g id="a_node25"><a xlink:href="Arrow.html#path_arrow_1" xlink:title="path_arrow_1">
<ellipse fill="#f070d1" stroke="#000000" cx="1738" cy="-901.1563" rx="74.9875" ry="18"/>
<text text-anchor="middle" x="1738" y="-897.4563" font-family="Times,serif" font-size="14.00" fill="#000000">path_arrow_1</text>
</a>
</g>
</g>
<!-- Arrow_ap_lambda&#45;&gt;Arrow_path_arrow_1 -->
<g id="edge5" class="edge">
<title>Arrow_ap_lambda&#45;&gt;Arrow_path_arrow_1</title>
<path fill="none" stroke="#000000" d="M1978.4694,-1246.9477C1931.6876,-1179.6761 1804.2105,-996.366 1756.4214,-927.6461"/>
<polygon fill="#000000" stroke="#000000" points="1759.0638,-925.3155 1750.481,-919.1038 1753.3169,-929.312 1759.0638,-925.3155"/>
</g>
<!-- Arrow_ap_apply_FlFr -->
<g id="node11" class="node">
<title>Arrow_ap_apply_FlFr</title>
<g id="a_node11"><a xlink:href="Arrow.html#ap_apply_FlFr" xlink:title="ap_apply_FlFr">
<ellipse fill="#f070d1" stroke="#000000" cx="1824" cy="-1272.1563" rx="77.2012" ry="18"/>
<ellipse fill="none" stroke="#000000" cx="1824" cy="-1272.1563" rx="81.1939" ry="22"/>
<ellipse fill="none" stroke="#000000" cx="1824" cy="-1272.1563" rx="85.1866" ry="26"/>
<text text-anchor="middle" x="1824" y="-1268.4563" font-family="Times,serif" font-size="14.00" fill="#000000">ap_apply_FlFr</text>
</a>
</g>
</g>
<!-- Arrow_ap_apply_Fr -->
<g id="node12" class="node">
<title>Arrow_ap_apply_Fr</title>
<g id="a_node12"><a xlink:href="Arrow.html#ap_apply_Fr" xlink:title="ap_apply_Fr">
<ellipse fill="#f070d1" stroke="#000000" cx="1645" cy="-1272.1563" rx="67.6782" ry="18"/>
<ellipse fill="none" stroke="#000000" cx="1645" cy="-1272.1563" rx="71.6831" ry="22"/>
<ellipse fill="none" stroke="#000000" cx="1645" cy="-1272.1563" rx="75.6881" ry="26"/>
<text text-anchor="middle" x="1645" y="-1268.4563" font-family="Times,serif" font-size="14.00" fill="#000000">ap_apply_Fr</text>
</a>
</g>
</g>
<!-- Arrow_ap_apply_Fl -->
<g id="node13" class="node">
<title>Arrow_ap_apply_Fl</title>
<g id="a_node13"><a xlink:href="Arrow.html#ap_apply_Fl" xlink:title="ap_apply_Fl">
<ellipse fill="#f070d1" stroke="#000000" cx="1477" cy="-1272.1563" rx="66.1109" ry="18"/>
<ellipse fill="none" stroke="#000000" cx="1477" cy="-1272.1563" rx="70.0999" ry="22"/>
<ellipse fill="none" stroke="#000000" cx="1477" cy="-1272.1563" rx="74.0888" ry="26"/>
<text text-anchor="middle" x="1477" y="-1268.4563" font-family="Times,serif" font-size="14.00" fill="#000000">ap_apply_Fl</text>
</a>
</g>
</g>
<!-- Arrow_ap_apply_l -->
<g id="node14" class="node">
<title>Arrow_ap_apply_l</title>
<g id="a_node14"><a xlink:href="Arrow.html#ap_apply_l" xlink:title="ap_apply_l">
<ellipse fill="#f070d1" stroke="#000000" cx="1317" cy="-1272.1563" rx="59.6142" ry="18"/>
<ellipse fill="none" stroke="#000000" cx="1317" cy="-1272.1563" rx="63.6021" ry="22"/>
<ellipse fill="none" stroke="#000000" cx="1317" cy="-1272.1563" rx="67.59" ry="26"/>
<text text-anchor="middle" x="1317" y="-1268.4563" font-family="Times,serif" font-size="14.00" fill="#000000">ap_apply_l</text>
</a>
</g>
</g>
<!-- Arrow_ap10_dpath_arrow -->
<g id="node15" class="node">
<title>Arrow_ap10_dpath_arrow</title>
<g id="a_node15"><a xlink:href="Arrow.html#ap10_dpath_arrow" xlink:title="ap10_dpath_arrow">
<ellipse fill="#f070d1" stroke="#000000" cx="1126" cy="-1272.1563" rx="97.4834" ry="18"/>
<ellipse fill="none" stroke="#000000" cx="1126" cy="-1272.1563" rx="101.483" ry="22"/>
<ellipse fill="none" stroke="#000000" cx="1126" cy="-1272.1563" rx="105.4827" ry="26"/>
<text text-anchor="middle" x="1126" y="-1268.4563" font-family="Times,serif" font-size="14.00" fill="#000000">ap10_dpath_arrow</text>
</a>
</g>
</g>
<!-- Arrow_dpath_arrow -->
<g id="node16" class="node">
<title>Arrow_dpath_arrow</title>
<g id="a_node16"><a xlink:href="Arrow.html#dpath_arrow" xlink:title="dpath_arrow">
<ellipse fill="#f070d1" stroke="#000000" cx="1126" cy="-901.1563" rx="69.5877" ry="18"/>
<text text-anchor="middle" x="1126" y="-897.4563" font-family="Times,serif" font-size="14.00" fill="#000000">dpath_arrow</text>
</a>
</g>
</g>
<!-- Arrow_ap10_dpath_arrow&#45;&gt;Arrow_dpath_arrow -->
<g id="edge6" class="edge">
<title>Arrow_ap10_dpath_arrow&#45;&gt;Arrow_dpath_arrow</title>
<path fill="none" stroke="#000000" d="M1126,-1246.0683C1126,-1178.7472 1126,-999.5636 1126,-929.654"/>
<polygon fill="#000000" stroke="#000000" points="1129.5001,-929.406 1126,-919.406 1122.5001,-929.4061 1129.5001,-929.406"/>
</g>
<!-- Arrow_transport_arrow -->
<g id="node20" class="node">
<title>Arrow_transport_arrow</title>
<g id="a_node20"><a xlink:href="Arrow.html#transport_arrow" xlink:title="transport_arrow">
<ellipse fill="#f070d1" stroke="#000000" cx="1301" cy="-901.1563" rx="87.1846" ry="18"/>
<text text-anchor="middle" x="1301" y="-897.4563" font-family="Times,serif" font-size="14.00" fill="#000000">transport_arrow</text>
</a>
</g>
</g>
<!-- Arrow_ap10_dpath_arrow&#45;&gt;Arrow_transport_arrow -->
<g id="edge7" class="edge">
<title>Arrow_ap10_dpath_arrow&#45;&gt;Arrow_transport_arrow</title>
<path fill="none" stroke="#000000" d="M1138.3057,-1246.0683C1170.1916,-1178.4702 1255.278,-998.0869 1287.9622,-928.7965"/>
<polygon fill="#000000" stroke="#000000" points="1291.2909,-929.9435 1292.3917,-919.406 1284.9599,-926.9572 1291.2909,-929.9435"/>
</g>
<!-- Arrow_equiv_path_arrow -->
<g id="node22" class="node">
<title>Arrow_equiv_path_arrow</title>
<g id="a_node22"><a xlink:href="Arrow.html#equiv_path_arrow" xlink:title="equiv_path_arrow">
<ellipse fill="#f070d1" stroke="#000000" cx="1335" cy="-529.1563" rx="94.4839" ry="18"/>
<text text-anchor="middle" x="1335" y="-525.4563" font-family="Times,serif" font-size="14.00" fill="#000000">equiv_path_arrow</text>
</a>
</g>
</g>
<!-- Arrow_dpath_arrow&#45;&gt;Arrow_equiv_path_arrow -->
<g id="edge8" class="edge">
<title>Arrow_dpath_arrow&#45;&gt;Arrow_equiv_path_arrow</title>
<path fill="none" stroke="#000000" d="M1136.0805,-883.214C1169.8703,-823.0714 1279.2699,-628.3506 1319.7528,-556.2948"/>
<polygon fill="#000000" stroke="#000000" points="1322.929,-557.7871 1324.7758,-547.3544 1316.8262,-554.3583 1322.929,-557.7871"/>
</g>
<!-- Arrow_ap_transport_arrow_toconst -->
<g id="node17" class="node">
<title>Arrow_ap_transport_arrow_toconst</title>
<g id="a_node17"><a xlink:href="Arrow.html#ap_transport_arrow_toconst" xlink:title="ap_transport_arrow_toconst">
<ellipse fill="#f070d1" stroke="#000000" cx="852" cy="-1272.1563" rx="142.1836" ry="18"/>
<ellipse fill="none" stroke="#000000" cx="852" cy="-1272.1563" rx="146.1792" ry="22"/>
<ellipse fill="none" stroke="#000000" cx="852" cy="-1272.1563" rx="150.1749" ry="26"/>
<text text-anchor="middle" x="852" y="-1268.4563" font-family="Times,serif" font-size="14.00" fill="#000000">ap_transport_arrow_toconst</text>
</a>
</g>
</g>
<!-- Arrow_transport_arrow_toconst -->
<g id="node19" class="node">
<title>Arrow_transport_arrow_toconst</title>
<g id="a_node19"><a xlink:href="Arrow.html#transport_arrow_toconst" xlink:title="transport_arrow_toconst">
<ellipse fill="#f070d1" stroke="#000000" cx="852" cy="-901.1563" rx="126.1777" ry="18"/>
<text text-anchor="middle" x="852" y="-897.4563" font-family="Times,serif" font-size="14.00" fill="#000000">transport_arrow_toconst</text>
</a>
</g>
</g>
<!-- Arrow_ap_transport_arrow_toconst&#45;&gt;Arrow_transport_arrow_toconst -->
<g id="edge9" class="edge">
<title>Arrow_ap_transport_arrow_toconst&#45;&gt;Arrow_transport_arrow_toconst</title>
<path fill="none" stroke="#000000" d="M852,-1246.0683C852,-1178.7472 852,-999.5636 852,-929.654"/>
<polygon fill="#000000" stroke="#000000" points="855.5001,-929.406 852,-919.406 848.5001,-929.4061 855.5001,-929.406"/>
</g>
<!-- Arrow_transport_arrow_fromconst -->
<g id="node18" class="node">
<title>Arrow_transport_arrow_fromconst</title>
<g id="a_node18"><a xlink:href="Arrow.html#transport_arrow_fromconst" xlink:title="transport_arrow_fromconst">
<ellipse fill="#f070d1" stroke="#000000" cx="537" cy="-1272.1563" rx="139.1706" ry="18"/>
<ellipse fill="none" stroke="#000000" cx="537" cy="-1272.1563" rx="143.173" ry="22"/>
<ellipse fill="none" stroke="#000000" cx="537" cy="-1272.1563" rx="147.1754" ry="26"/>
<text text-anchor="middle" x="537" y="-1268.4563" font-family="Times,serif" font-size="14.00" fill="#000000">transport_arrow_fromconst</text>
</a>
</g>
</g>
<!-- Arrow_path_arrow_pp -->
<g id="node21" class="node">
<title>Arrow_path_arrow_pp</title>
<g id="a_node21"><a xlink:href="Arrow.html#path_arrow_pp" xlink:title="path_arrow_pp">
<ellipse fill="#f070d1" stroke="#000000" cx="1134" cy="-529.1563" rx="80.6774" ry="18"/>
<ellipse fill="none" stroke="#000000" cx="1134" cy="-529.1563" rx="84.6816" ry="22"/>
<ellipse fill="none" stroke="#000000" cx="1134" cy="-529.1563" rx="88.6858" ry="26"/>
<text text-anchor="middle" x="1134" y="-525.4563" font-family="Times,serif" font-size="14.00" fill="#000000">path_arrow_pp</text>
</a>
</g>
</g>
<!-- Arrow_path_arrow_pp&#45;&gt;Arrow_path_arrow -->
<g id="edge10" class="edge">
<title>Arrow_path_arrow_pp&#45;&gt;Arrow_path_arrow</title>
<path fill="none" stroke="#000000" d="M1126.3353,-503.0683C1106.5156,-435.6087 1053.6953,-255.8257 1033.2462,-186.2238"/>
<polygon fill="#000000" stroke="#000000" points="1036.5388,-185.0139 1030.3618,-176.406 1029.8226,-186.9871 1036.5388,-185.0139"/>
</g>
<!-- Arrow_isequiv_path_arrow -->
<g id="node23" class="node">
<title>Arrow_isequiv_path_arrow</title>
<g id="a_node23"><a xlink:href="Arrow.html#isequiv_path_arrow" xlink:title="isequiv_path_arrow">
<ellipse fill="#f070d1" stroke="#000000" cx="917" cy="-529.1563" rx="102.0789" ry="18"/>
<ellipse fill="none" stroke="#000000" cx="917" cy="-529.1563" rx="106.0804" ry="22"/>
<ellipse fill="none" stroke="#000000" cx="917" cy="-529.1563" rx="110.0819" ry="26"/>
<text text-anchor="middle" x="917" y="-525.4563" font-family="Times,serif" font-size="14.00" fill="#000000">isequiv_path_arrow</text>
</a>
</g>
</g>
<!-- Arrow_isequiv_path_arrow&#45;&gt;Arrow_path_arrow -->
<g id="edge11" class="edge">
<title>Arrow_isequiv_path_arrow&#45;&gt;Arrow_path_arrow</title>
<path fill="none" stroke="#000000" d="M924.5944,-503.0683C944.2322,-435.6087 996.5679,-255.8257 1016.8294,-186.2238"/>
<polygon fill="#000000" stroke="#000000" points="1020.2528,-186.9858 1019.6874,-176.406 1013.5318,-185.0292 1020.2528,-186.9858"/>
</g>
<!-- Arrow_equiv_ap10 -->
<g id="node24" class="node">
<title>Arrow_equiv_ap10</title>
<g id="a_node24"><a xlink:href="Arrow.html#equiv_ap10" xlink:title="equiv_ap10">
<ellipse fill="#f070d1" stroke="#000000" cx="300" cy="-1272.1563" rx="63.8675" ry="18"/>
<ellipse fill="none" stroke="#000000" cx="300" cy="-1272.1563" rx="67.8784" ry="22"/>
<ellipse fill="none" stroke="#000000" cx="300" cy="-1272.1563" rx="71.8892" ry="26"/>
<text text-anchor="middle" x="300" y="-1268.4563" font-family="Times,serif" font-size="14.00" fill="#000000">equiv_ap10</text>
</a>
</g>
</g>
<!-- Arrow_eta_path_arrow -->
<g id="node26" class="node">
<title>Arrow_eta_path_arrow</title>
<g id="a_node26"><a xlink:href="Arrow.html#eta_path_arrow" xlink:title="eta_path_arrow">
<ellipse fill="#f070d1" stroke="#000000" cx="1530" cy="-529.1563" rx="83.3857" ry="18"/>
<text text-anchor="middle" x="1530" y="-525.4563" font-family="Times,serif" font-size="14.00" fill="#000000">eta_path_arrow</text>
</a>
</g>
</g>
<!-- Arrow_path_arrow_1&#45;&gt;Arrow_eta_path_arrow -->
<g id="edge12" class="edge">
<title>Arrow_path_arrow_1&#45;&gt;Arrow_eta_path_arrow</title>
<path fill="none" stroke="#000000" d="M1727.9677,-883.214C1694.3396,-823.0714 1585.4635,-628.3506 1545.1742,-556.2948"/>
<polygon fill="#000000" stroke="#000000" points="1548.1105,-554.3746 1540.1753,-547.3544 1542.0008,-557.7908 1548.1105,-554.3746"/>
</g>
<!-- Arrow_eta_path_arrow&#45;&gt;Arrow_path_arrow -->
<g id="edge13" class="edge">
<title>Arrow_eta_path_arrow&#45;&gt;Arrow_path_arrow</title>
<path fill="none" stroke="#000000" d="M1506.3201,-511.7599C1423.8737,-451.1903 1149.3725,-249.527 1056.2292,-181.099"/>
<polygon fill="#000000" stroke="#000000" points="1058.1786,-178.1881 1048.0474,-175.0882 1054.0342,-183.8294 1058.1786,-178.1881"/>
</g>
<!-- Arrow_ap10_path_forall -->
<g id="node27" class="node">
<title>Arrow_ap10_path_forall</title>
<g id="a_node27"><a xlink:href="Arrow.html#ap10_path_forall" xlink:title="ap10_path_forall">
<ellipse fill="#f070d1" stroke="#000000" cx="113" cy="-1272.1563" rx="89.0807" ry="18"/>
<ellipse fill="none" stroke="#000000" cx="113" cy="-1272.1563" rx="93.0825" ry="22"/>
<ellipse fill="none" stroke="#000000" cx="113" cy="-1272.1563" rx="97.0842" ry="26"/>
<text text-anchor="middle" x="113" y="-1268.4563" font-family="Times,serif" font-size="14.00" fill="#000000">ap10_path_forall</text>
</a>
</g>
</g>
<!-- Arrow_apD10_path_arrow -->
<g id="node28" class="node">
<title>Arrow_apD10_path_arrow</title>
<g id="a_node28"><a xlink:href="Arrow.html#apD10_path_arrow" xlink:title="apD10_path_arrow">
<ellipse fill="#f070d1" stroke="#000000" cx="682" cy="-529.1563" rx="98.5985" ry="18"/>
<ellipse fill="none" stroke="#000000" cx="682" cy="-529.1563" rx="102.5907" ry="22"/>
<ellipse fill="none" stroke="#000000" cx="682" cy="-529.1563" rx="106.5829" ry="26"/>
<text text-anchor="middle" x="682" y="-525.4563" font-family="Times,serif" font-size="14.00" fill="#000000">apD10_path_arrow</text>
</a>
</g>
</g>
<!-- Arrow_apD10_path_arrow&#45;&gt;Arrow_path_arrow -->
<g id="edge14" class="edge">
<title>Arrow_apD10_path_arrow&#45;&gt;Arrow_path_arrow</title>
<path fill="none" stroke="#000000" d="M705.5758,-503.656C768.4068,-435.696 939.3359,-250.8134 1001.7692,-183.2835"/>
<polygon fill="#000000" stroke="#000000" points="1004.612,-185.3644 1008.8306,-175.6457 999.4721,-180.6124 1004.612,-185.3644"/>
</g>
<!-- Arrow_ap10_path_arrow -->
<g id="node29" class="node">
<title>Arrow_ap10_path_arrow</title>
<g id="a_node29"><a xlink:href="Arrow.html#ap10_path_arrow" xlink:title="ap10_path_arrow">
<ellipse fill="#f070d1" stroke="#000000" cx="458" cy="-529.1563" rx="91.7725" ry="18"/>
<ellipse fill="none" stroke="#000000" cx="458" cy="-529.1563" rx="95.7782" ry="22"/>
<ellipse fill="none" stroke="#000000" cx="458" cy="-529.1563" rx="99.7839" ry="26"/>
<text text-anchor="middle" x="458" y="-525.4563" font-family="Times,serif" font-size="14.00" fill="#000000">ap10_path_arrow</text>
</a>
</g>
</g>
<!-- Arrow_ap10_path_arrow&#45;&gt;Arrow_path_arrow -->
<g id="edge15" class="edge">
<title>Arrow_ap10_path_arrow&#45;&gt;Arrow_path_arrow</title>
<path fill="none" stroke="#000000" d="M495.2025,-504.814C599.1147,-436.822 891.3468,-245.6085 991.1194,-180.3252"/>
<polygon fill="#000000" stroke="#000000" points="993.1652,-183.1693 999.6167,-174.7652 989.3324,-177.3117 993.1652,-183.1693"/>
</g>
</g>
</svg>
