<?xml version="1.0" encoding="UTF-8" standalone="no"?>
<!DOCTYPE svg PUBLIC "-//W3C//DTD SVG 1.1//EN"
 "http://www.w3.org/Graphics/SVG/1.1/DTD/svg11.dtd">
<!-- Generated by graphviz version 2.40.1 (20161225.0304)
 -->
<!-- Title: HoTT_Classes_orders_nat_int Pages: 1 -->
<svg width="1118pt" height="563pt"
 viewBox="0.00 0.00 1118.00 563.00" xmlns="http://www.w3.org/2000/svg" xmlns:xlink="http://www.w3.org/1999/xlink">
<g id="graph0" class="graph" transform="scale(1 1) rotate(0) translate(4 559)">
<title>HoTT_Classes_orders_nat_int</title>
<polygon fill="#ffffff" stroke="transparent" points="-4,4 -4,-559 1114,-559 1114,4 -4,4"/>
<g id="clust1" class="cluster">
<title>cluster_nat_int</title>
<polygon fill="#ffffc3" stroke="#000000" points="10.5089,-8 10.5089,-547 1099.4911,-547 1099.4911,-8 10.5089,-8"/>
<text text-anchor="middle" x="44.0089" y="-531.8" font-family="Times,serif" font-size="14.00" fill="#000000">nat_int</text>
</g>
<!-- nat_int_nat_morphism_order_embedding -->
<g id="node1" class="node">
<title>nat_int_nat_morphism_order_embedding</title>
<g id="a_node1"><a xlink:href="nat_int.html#nat_morphism_order_embedding" xlink:title="nat_morphism_order_embedding">
<ellipse fill="#f070d1" stroke="#000000" cx="863.0888" cy="-402" rx="164.3738" ry="18"/>
<ellipse fill="none" stroke="#000000" cx="863.0888" cy="-402" rx="168.3723" ry="22"/>
<ellipse fill="none" stroke="#000000" cx="863.0888" cy="-402" rx="172.3708" ry="26"/>
<text text-anchor="middle" x="863.0888" y="-398.3" font-family="Times,serif" font-size="14.00" fill="#000000">nat_morphism_order_embedding</text>
</a>
</g>
</g>
<!-- nat_int_StrictlyOrderPreserving_instance_0 -->
<g id="node2" class="node">
<title>nat_int_StrictlyOrderPreserving_instance_0</title>
<g id="a_node2"><a xlink:href="nat_int.html#StrictlyOrderPreserving_instance_0" xlink:title="StrictlyOrderPreserving_instance_0">
<ellipse fill="#f070d1" stroke="#000000" cx="650.0888" cy="-322" rx="179.2682" ry="18"/>
<text text-anchor="middle" x="650.0888" y="-318.3" font-family="Times,serif" font-size="14.00" fill="#000000">StrictlyOrderPreserving_instance_0</text>
</a>
</g>
</g>
<!-- nat_int_nat_morphism_order_embedding&#45;&gt;nat_int_StrictlyOrderPreserving_instance_0 -->
<g id="edge1" class="edge">
<title>nat_int_nat_morphism_order_embedding&#45;&gt;nat_int_StrictlyOrderPreserving_instance_0</title>
<path fill="none" stroke="#000000" d="M798.6037,-377.7803C769.0114,-366.6658 734.265,-353.6155 705.8239,-342.9334"/>
<polygon fill="#000000" stroke="#000000" points="707.029,-339.6473 696.4369,-339.4077 704.5677,-346.2004 707.029,-339.6473"/>
</g>
<!-- nat_int_OrderPreserving_instance_0 -->
<g id="node3" class="node">
<title>nat_int_OrderPreserving_instance_0</title>
<g id="a_node3"><a xlink:href="nat_int.html#OrderPreserving_instance_0" xlink:title="OrderPreserving_instance_0">
<ellipse fill="#f070d1" stroke="#000000" cx="900.0888" cy="-250" rx="144.0747" ry="18"/>
<text text-anchor="middle" x="900.0888" y="-246.3" font-family="Times,serif" font-size="14.00" fill="#000000">OrderPreserving_instance_0</text>
</a>
</g>
</g>
<!-- nat_int_nat_morphism_order_embedding&#45;&gt;nat_int_OrderPreserving_instance_0 -->
<g id="edge2" class="edge">
<title>nat_int_nat_morphism_order_embedding&#45;&gt;nat_int_OrderPreserving_instance_0</title>
<path fill="none" stroke="#000000" d="M869.4493,-375.8703C876.0816,-348.6241 886.4407,-306.0678 893.2468,-278.1075"/>
<polygon fill="#000000" stroke="#000000" points="896.7016,-278.7126 895.6662,-268.1685 889.9002,-277.0569 896.7016,-278.7126"/>
</g>
<!-- nat_int_nat_int_lt_plus -->
<g id="node9" class="node">
<title>nat_int_nat_int_lt_plus</title>
<g id="a_node9"><a xlink:href="nat_int.html#nat_int_lt_plus" xlink:title="nat_int_lt_plus">
<ellipse fill="#f070d1" stroke="#000000" cx="582.0888" cy="-250" rx="79.0865" ry="18"/>
<text text-anchor="middle" x="582.0888" y="-246.3" font-family="Times,serif" font-size="14.00" fill="#000000">nat_int_lt_plus</text>
</a>
</g>
</g>
<!-- nat_int_StrictlyOrderPreserving_instance_0&#45;&gt;nat_int_nat_int_lt_plus -->
<g id="edge3" class="edge">
<title>nat_int_StrictlyOrderPreserving_instance_0&#45;&gt;nat_int_nat_int_lt_plus</title>
<path fill="none" stroke="#000000" d="M632.9295,-303.8314C624.7335,-295.1533 614.7908,-284.6257 605.8795,-275.1902"/>
<polygon fill="#000000" stroke="#000000" points="608.4178,-272.7804 599.007,-267.9134 603.3287,-277.5868 608.4178,-272.7804"/>
</g>
<!-- nat_int_nat_int_le_plus -->
<g id="node10" class="node">
<title>nat_int_nat_int_le_plus</title>
<g id="a_node10"><a xlink:href="nat_int.html#nat_int_le_plus" xlink:title="nat_int_le_plus">
<ellipse fill="#f070d1" stroke="#000000" cx="741.0888" cy="-178" rx="81.4863" ry="18"/>
<text text-anchor="middle" x="741.0888" y="-174.3" font-family="Times,serif" font-size="14.00" fill="#000000">nat_int_le_plus</text>
</a>
</g>
</g>
<!-- nat_int_OrderPreserving_instance_0&#45;&gt;nat_int_nat_int_le_plus -->
<g id="edge4" class="edge">
<title>nat_int_OrderPreserving_instance_0&#45;&gt;nat_int_nat_int_le_plus</title>
<path fill="none" stroke="#000000" d="M861.5993,-232.5708C838.881,-222.2833 810.0098,-209.2095 786.2221,-198.4377"/>
<polygon fill="#000000" stroke="#000000" points="787.5975,-195.2185 777.0442,-194.2817 784.7099,-201.5952 787.5975,-195.2185"/>
</g>
<!-- nat_int_le_iff_lt_S -->
<g id="node4" class="node">
<title>nat_int_le_iff_lt_S</title>
<g id="a_node4"><a xlink:href="nat_int.html#le_iff_lt_S" xlink:title="le_iff_lt_S">
<ellipse fill="#f070d1" stroke="#000000" cx="507.0888" cy="-490" rx="56.5844" ry="18"/>
<ellipse fill="none" stroke="#000000" cx="507.0888" cy="-490" rx="60.5872" ry="22"/>
<ellipse fill="none" stroke="#000000" cx="507.0888" cy="-490" rx="64.59" ry="26"/>
<text text-anchor="middle" x="507.0888" y="-486.3" font-family="Times,serif" font-size="14.00" fill="#000000">le_iff_lt_S</text>
</a>
</g>
</g>
<!-- nat_int_le_iff_lt_plus_1 -->
<g id="node5" class="node">
<title>nat_int_le_iff_lt_plus_1</title>
<g id="a_node5"><a xlink:href="nat_int.html#le_iff_lt_plus_1" xlink:title="le_iff_lt_plus_1">
<ellipse fill="#f070d1" stroke="#000000" cx="507.0888" cy="-402" rx="80.6858" ry="18"/>
<text text-anchor="middle" x="507.0888" y="-398.3" font-family="Times,serif" font-size="14.00" fill="#000000">le_iff_lt_plus_1</text>
</a>
</g>
</g>
<!-- nat_int_le_iff_lt_S&#45;&gt;nat_int_le_iff_lt_plus_1 -->
<g id="edge5" class="edge">
<title>nat_int_le_iff_lt_S&#45;&gt;nat_int_le_iff_lt_plus_1</title>
<path fill="none" stroke="#000000" d="M507.0888,-463.5971C507.0888,-453.0414 507.0888,-440.868 507.0888,-430.1448"/>
<polygon fill="#000000" stroke="#000000" points="510.5889,-430.0188 507.0888,-420.0188 503.5889,-430.0188 510.5889,-430.0188"/>
</g>
<!-- nat_int_lt_iff_plus_1_le -->
<g id="node8" class="node">
<title>nat_int_lt_iff_plus_1_le</title>
<g id="a_node8"><a xlink:href="nat_int.html#lt_iff_plus_1_le" xlink:title="lt_iff_plus_1_le">
<ellipse fill="#f070d1" stroke="#000000" cx="285.0888" cy="-322" rx="80.6858" ry="18"/>
<text text-anchor="middle" x="285.0888" y="-318.3" font-family="Times,serif" font-size="14.00" fill="#000000">lt_iff_plus_1_le</text>
</a>
</g>
</g>
<!-- nat_int_le_iff_lt_plus_1&#45;&gt;nat_int_lt_iff_plus_1_le -->
<g id="edge6" class="edge">
<title>nat_int_le_iff_lt_plus_1&#45;&gt;nat_int_lt_iff_plus_1_le</title>
<path fill="none" stroke="#000000" d="M464.5476,-386.6699C428.3353,-373.6204 376.1746,-354.8237 337.4122,-340.8553"/>
<polygon fill="#000000" stroke="#000000" points="338.4582,-337.512 327.8638,-337.4144 336.085,-344.0974 338.4582,-337.512"/>
</g>
<!-- nat_int_pos_ge_1 -->
<g id="node6" class="node">
<title>nat_int_pos_ge_1</title>
<g id="a_node6"><a xlink:href="nat_int.html#pos_ge_1" xlink:title="pos_ge_1">
<ellipse fill="#f070d1" stroke="#000000" cx="295.0888" cy="-402" rx="53.8975" ry="18"/>
<ellipse fill="none" stroke="#000000" cx="295.0888" cy="-402" rx="57.894" ry="22"/>
<ellipse fill="none" stroke="#000000" cx="295.0888" cy="-402" rx="61.8905" ry="26"/>
<text text-anchor="middle" x="295.0888" y="-398.3" font-family="Times,serif" font-size="14.00" fill="#000000">pos_ge_1</text>
</a>
</g>
</g>
<!-- nat_int_pos_ge_1&#45;&gt;nat_int_lt_iff_plus_1_le -->
<g id="edge7" class="edge">
<title>nat_int_pos_ge_1&#45;&gt;nat_int_lt_iff_plus_1_le</title>
<path fill="none" stroke="#000000" d="M291.8144,-375.805C290.7891,-367.6026 289.6534,-358.5174 288.6117,-350.1839"/>
<polygon fill="#000000" stroke="#000000" points="292.0713,-349.6419 287.3579,-340.1532 285.1254,-350.5102 292.0713,-349.6419"/>
</g>
<!-- nat_int_lt_iff_S_le -->
<g id="node7" class="node">
<title>nat_int_lt_iff_S_le</title>
<g id="a_node7"><a xlink:href="nat_int.html#lt_iff_S_le" xlink:title="lt_iff_S_le">
<ellipse fill="#f070d1" stroke="#000000" cx="106.0888" cy="-402" rx="56.5844" ry="18"/>
<ellipse fill="none" stroke="#000000" cx="106.0888" cy="-402" rx="60.5872" ry="22"/>
<ellipse fill="none" stroke="#000000" cx="106.0888" cy="-402" rx="64.59" ry="26"/>
<text text-anchor="middle" x="106.0888" y="-398.3" font-family="Times,serif" font-size="14.00" fill="#000000">lt_iff_S_le</text>
</a>
</g>
</g>
<!-- nat_int_lt_iff_S_le&#45;&gt;nat_int_lt_iff_plus_1_le -->
<g id="edge8" class="edge">
<title>nat_int_lt_iff_S_le&#45;&gt;nat_int_lt_iff_plus_1_le</title>
<path fill="none" stroke="#000000" d="M149.4197,-382.6342C176.6309,-370.4728 211.683,-354.807 239.3415,-342.4457"/>
<polygon fill="#000000" stroke="#000000" points="241.0898,-345.4981 248.7913,-338.2223 238.2335,-339.1073 241.0898,-345.4981"/>
</g>
<!-- nat_int_lt_iff_plus_1_le&#45;&gt;nat_int_nat_int_lt_plus -->
<g id="edge9" class="edge">
<title>nat_int_lt_iff_plus_1_le&#45;&gt;nat_int_nat_int_lt_plus</title>
<path fill="none" stroke="#000000" d="M339.9093,-308.7102C390.2183,-296.514 464.7728,-278.4402 517.8552,-265.5718"/>
<polygon fill="#000000" stroke="#000000" points="518.9449,-268.9091 527.8387,-263.1515 517.2956,-262.1061 518.9449,-268.9091"/>
</g>
<!-- nat_int_nat_int_lt_plus&#45;&gt;nat_int_nat_int_le_plus -->
<g id="edge10" class="edge">
<title>nat_int_nat_int_lt_plus&#45;&gt;nat_int_nat_int_le_plus</title>
<path fill="none" stroke="#000000" d="M617.7715,-233.8418C640.9099,-223.364 671.25,-209.6251 696.0454,-198.397"/>
<polygon fill="#000000" stroke="#000000" points="697.5847,-201.5422 705.2504,-194.2287 694.6971,-195.1655 697.5847,-201.5422"/>
</g>
<!-- nat_int_nat_int_nonneg_decompose -->
<g id="node11" class="node">
<title>nat_int_nat_int_nonneg_decompose</title>
<g id="a_node11"><a xlink:href="nat_int.html#nat_int_nonneg_decompose" xlink:title="nat_int_nonneg_decompose">
<ellipse fill="#f070d1" stroke="#000000" cx="741.0888" cy="-106" rx="139.9756" ry="18"/>
<text text-anchor="middle" x="741.0888" y="-102.3" font-family="Times,serif" font-size="14.00" fill="#000000">nat_int_nonneg_decompose</text>
</a>
</g>
</g>
<!-- nat_int_nat_int_le_plus&#45;&gt;nat_int_nat_int_nonneg_decompose -->
<g id="edge11" class="edge">
<title>nat_int_nat_int_le_plus&#45;&gt;nat_int_nat_int_nonneg_decompose</title>
<path fill="none" stroke="#000000" d="M741.0888,-159.8314C741.0888,-152.131 741.0888,-142.9743 741.0888,-134.4166"/>
<polygon fill="#000000" stroke="#000000" points="744.5889,-134.4132 741.0888,-124.4133 737.5889,-134.4133 744.5889,-134.4132"/>
</g>
<!-- nat_int_nat_int_to_semiring -->
<g id="node12" class="node">
<title>nat_int_nat_int_to_semiring</title>
<g id="a_node12"><a xlink:href="nat_int.html#nat_int_to_semiring" xlink:title="nat_int_to_semiring">
<ellipse fill="#f070d1" stroke="#000000" cx="549.0888" cy="-34" rx="103.1819" ry="18"/>
<text text-anchor="middle" x="549.0888" y="-30.3" font-family="Times,serif" font-size="14.00" fill="#000000">nat_int_to_semiring</text>
</a>
</g>
</g>
<!-- nat_int_nat_int_nonneg_decompose&#45;&gt;nat_int_nat_int_to_semiring -->
<g id="edge12" class="edge">
<title>nat_int_nat_int_nonneg_decompose&#45;&gt;nat_int_nat_int_to_semiring</title>
<path fill="none" stroke="#000000" d="M695.5874,-88.937C667.691,-78.4758 631.8415,-65.0323 602.5885,-54.0624"/>
<polygon fill="#000000" stroke="#000000" points="603.5341,-50.6791 592.9419,-50.4449 601.0762,-57.2334 603.5341,-50.6791"/>
</g>
<!-- nat_int_to_semiring_nonneg -->
<g id="node13" class="node">
<title>nat_int_to_semiring_nonneg</title>
<g id="a_node13"><a xlink:href="nat_int.html#to_semiring_nonneg" xlink:title="to_semiring_nonneg">
<ellipse fill="#f070d1" stroke="#000000" cx="846.0888" cy="-34" rx="104.7816" ry="18"/>
<text text-anchor="middle" x="846.0888" y="-30.3" font-family="Times,serif" font-size="14.00" fill="#000000">to_semiring_nonneg</text>
</a>
</g>
</g>
<!-- nat_int_nat_int_nonneg_decompose&#45;&gt;nat_int_to_semiring_nonneg -->
<g id="edge13" class="edge">
<title>nat_int_nat_int_nonneg_decompose&#45;&gt;nat_int_to_semiring_nonneg</title>
<path fill="none" stroke="#000000" d="M767.0438,-88.2022C780.6491,-78.8729 797.482,-67.3303 812.1132,-57.2976"/>
<polygon fill="#000000" stroke="#000000" points="814.1643,-60.1349 820.4323,-51.593 810.2056,-54.3618 814.1643,-60.1349"/>
</g>
</g>
</svg>
