<?xml version="1.0" encoding="UTF-8" standalone="no"?>
<!DOCTYPE svg PUBLIC "-//W3C//DTD SVG 1.1//EN"
 "http://www.w3.org/Graphics/SVG/1.1/DTD/svg11.dtd">
<!-- Generated by graphviz version 2.40.1 (20161225.0304)
 -->
<!-- Title: HoTT_Modalities_Meet Pages: 1 -->
<svg width="1705pt" height="857pt"
 viewBox="0.00 0.00 1705.00 856.50" xmlns="http://www.w3.org/2000/svg" xmlns:xlink="http://www.w3.org/1999/xlink">
<g id="graph0" class="graph" transform="scale(1 1) rotate(0) translate(4 852.5)">
<title>HoTT_Modalities_Meet</title>
<polygon fill="#ffffff" stroke="transparent" points="-4,4 -4,-852.5 1701,-852.5 1701,4 -4,4"/>
<g id="clust1" class="cluster">
<title>cluster_Meet</title>
<polygon fill="#ffffc3" stroke="#000000" points="8,-8.6252 8,-839.8748 1689,-839.8748 1689,-8.6252 8,-8.6252"/>
<text text-anchor="middle" x="34.5" y="-824.6748" font-family="Times,serif" font-size="14.00" fill="#000000">Meet</text>
</g>
<!-- Meet_reflects_plus_nsep -->
<g id="node1" class="node">
<title>Meet_reflects_plus_nsep</title>
<g id="a_node1"><a xlink:href="Meet.html#reflects_plus_nsep" xlink:title="reflects_plus_nsep">
<ellipse fill="#f070d1" stroke="#000000" cx="715" cy="-778.6252" rx="97.4834" ry="18"/>
<ellipse fill="none" stroke="#000000" cx="715" cy="-778.6252" rx="101.483" ry="22"/>
<ellipse fill="none" stroke="#000000" cx="715" cy="-778.6252" rx="105.4827" ry="26"/>
<text text-anchor="middle" x="715" y="-774.9252" font-family="Times,serif" font-size="14.00" fill="#000000">reflects_plus_nsep</text>
</a>
</g>
</g>
<!-- Meet_prereflects_plus_nsep -->
<g id="node2" class="node">
<title>Meet_prereflects_plus_nsep</title>
<g id="a_node2"><a xlink:href="Meet.html#prereflects_plus_nsep" xlink:title="prereflects_plus_nsep">
<ellipse fill="#f070d1" stroke="#000000" cx="852" cy="-692.6252" rx="113.18" ry="18"/>
<text text-anchor="middle" x="852" y="-688.9252" font-family="Times,serif" font-size="14.00" fill="#000000">prereflects_plus_nsep</text>
</a>
</g>
</g>
<!-- Meet_reflects_plus_nsep&#45;&gt;Meet_prereflects_plus_nsep -->
<g id="edge1" class="edge">
<title>Meet_reflects_plus_nsep&#45;&gt;Meet_prereflects_plus_nsep</title>
<path fill="none" stroke="#000000" d="M753.8922,-754.211C773.1507,-742.1218 796.2754,-727.6056 815.2357,-715.7035"/>
<polygon fill="#000000" stroke="#000000" points="817.2901,-718.5464 823.8988,-710.2653 813.5684,-712.6177 817.2901,-718.5464"/>
</g>
<!-- Meet_ooextendable_plus -->
<g id="node26" class="node">
<title>Meet_ooextendable_plus</title>
<g id="a_node26"><a xlink:href="Meet.html#ooextendable_plus" xlink:title="ooextendable_plus">
<ellipse fill="#f070d1" stroke="#000000" cx="215" cy="-269.6252" rx="96.6831" ry="18"/>
<text text-anchor="middle" x="215" y="-265.9252" font-family="Times,serif" font-size="14.00" fill="#000000">ooextendable_plus</text>
</a>
</g>
</g>
<!-- Meet_reflects_plus_nsep&#45;&gt;Meet_ooextendable_plus -->
<g id="edge2" class="edge">
<title>Meet_reflects_plus_nsep&#45;&gt;Meet_ooextendable_plus</title>
<path fill="none" stroke="#000000" d="M624.2749,-765.3132C489.7282,-742.9814 253,-692.609 253,-614.6252 253,-614.6252 253,-614.6252 253,-536.6252 253,-448.6963 232.5506,-346.0895 221.6544,-297.6579"/>
<polygon fill="#000000" stroke="#000000" points="225.0019,-296.5958 219.3591,-287.6287 218.1783,-298.1575 225.0019,-296.5958"/>
</g>
<!-- Meet_nsep_plus -->
<g id="node3" class="node">
<title>Meet_nsep_plus</title>
<g id="a_node3"><a xlink:href="Meet.html#nsep_plus" xlink:title="nsep_plus">
<ellipse fill="#f070d1" stroke="#000000" cx="989" cy="-614.6252" rx="57.3905" ry="18"/>
<text text-anchor="middle" x="989" y="-610.9252" font-family="Times,serif" font-size="14.00" fill="#000000">nsep_plus</text>
</a>
</g>
</g>
<!-- Meet_prereflects_plus_nsep&#45;&gt;Meet_nsep_plus -->
<g id="edge3" class="edge">
<title>Meet_prereflects_plus_nsep&#45;&gt;Meet_nsep_plus</title>
<path fill="none" stroke="#000000" d="M882.7455,-675.1204C903.3163,-663.4086 930.4931,-647.9356 952.2121,-635.5701"/>
<polygon fill="#000000" stroke="#000000" points="954.1924,-638.4702 961.1509,-630.4809 950.7289,-632.387 954.1924,-638.4702"/>
</g>
<!-- Meet_istruncmap_plus_functor -->
<g id="node4" class="node">
<title>Meet_istruncmap_plus_functor</title>
<g id="a_node4"><a xlink:href="Meet.html#istruncmap_plus_functor" xlink:title="istruncmap_plus_functor">
<ellipse fill="#f070d1" stroke="#000000" cx="1324" cy="-536.6252" rx="127.2775" ry="18"/>
<text text-anchor="middle" x="1324" y="-532.9252" font-family="Times,serif" font-size="14.00" fill="#000000">istruncmap_plus_functor</text>
</a>
</g>
</g>
<!-- Meet_nsep_plus&#45;&gt;Meet_istruncmap_plus_functor -->
<g id="edge4" class="edge">
<title>Meet_nsep_plus&#45;&gt;Meet_istruncmap_plus_functor</title>
<path fill="none" stroke="#000000" d="M1035.2286,-603.8615C1090.1172,-591.0815 1182.4528,-569.5824 1247.9231,-554.3386"/>
<polygon fill="#000000" stroke="#000000" points="1248.8389,-557.7191 1257.7847,-552.0425 1247.2515,-550.9014 1248.8389,-557.7191"/>
</g>
<!-- Meet_nsep_iff_trunc_plus -->
<g id="node5" class="node">
<title>Meet_nsep_iff_trunc_plus</title>
<g id="a_node5"><a xlink:href="Meet.html#nsep_iff_trunc_plus" xlink:title="nsep_iff_trunc_plus">
<ellipse fill="#f070d1" stroke="#000000" cx="693" cy="-355.6252" rx="102.0819" ry="18"/>
<text text-anchor="middle" x="693" y="-351.9252" font-family="Times,serif" font-size="14.00" fill="#000000">nsep_iff_trunc_plus</text>
</a>
</g>
</g>
<!-- Meet_nsep_plus&#45;&gt;Meet_nsep_iff_trunc_plus -->
<g id="edge5" class="edge">
<title>Meet_nsep_plus&#45;&gt;Meet_nsep_iff_trunc_plus</title>
<path fill="none" stroke="#000000" d="M969.5786,-597.6314C918.6002,-553.0253 780.8005,-432.4506 721.1531,-380.2591"/>
<polygon fill="#000000" stroke="#000000" points="723.103,-377.3146 713.2724,-373.3635 718.4934,-382.5826 723.103,-377.3146"/>
</g>
<!-- Meet_plusconnmap_to_plus -->
<g id="node6" class="node">
<title>Meet_plusconnmap_to_plus</title>
<g id="a_node6"><a xlink:href="Meet.html#plusconnmap_to_plus" xlink:title="plusconnmap_to_plus">
<ellipse fill="#f070d1" stroke="#000000" cx="1221" cy="-355.6252" rx="111.2805" ry="18"/>
<text text-anchor="middle" x="1221" y="-351.9252" font-family="Times,serif" font-size="14.00" fill="#000000">plusconnmap_to_plus</text>
</a>
</g>
</g>
<!-- Meet_nsep_plus&#45;&gt;Meet_plusconnmap_to_plus -->
<g id="edge6" class="edge">
<title>Meet_nsep_plus&#45;&gt;Meet_plusconnmap_to_plus</title>
<path fill="none" stroke="#000000" d="M1017.3985,-598.9443C1056.0323,-576.3686 1125.2285,-531.3468 1168,-476.6252 1190.0686,-448.3908 1204.9426,-409.5434 1213.183,-383.5582"/>
<polygon fill="#000000" stroke="#000000" points="1216.5454,-384.531 1216.1152,-373.9449 1209.8499,-382.4887 1216.5454,-384.531"/>
</g>
<!-- Meet_diagonal_plus_functor -->
<g id="node7" class="node">
<title>Meet_diagonal_plus_functor</title>
<g id="a_node7"><a xlink:href="Meet.html#diagonal_plus_functor" xlink:title="diagonal_plus_functor">
<ellipse fill="#f070d1" stroke="#000000" cx="1391" cy="-450.6252" rx="113.9803" ry="18"/>
<text text-anchor="middle" x="1391" y="-446.9252" font-family="Times,serif" font-size="14.00" fill="#000000">diagonal_plus_functor</text>
</a>
</g>
</g>
<!-- Meet_istruncmap_plus_functor&#45;&gt;Meet_diagonal_plus_functor -->
<g id="edge7" class="edge">
<title>Meet_istruncmap_plus_functor&#45;&gt;Meet_diagonal_plus_functor</title>
<path fill="none" stroke="#000000" d="M1338.209,-518.3868C1347.6885,-506.219 1360.2942,-490.0386 1370.8102,-476.5404"/>
<polygon fill="#000000" stroke="#000000" points="1373.6565,-478.582 1377.0413,-468.5424 1368.1344,-474.2799 1373.6565,-478.582"/>
</g>
<!-- Meet_plusconnmap_diagonal -->
<g id="node11" class="node">
<title>Meet_plusconnmap_diagonal</title>
<g id="a_node11"><a xlink:href="Meet.html#plusconnmap_diagonal" xlink:title="plusconnmap_diagonal">
<ellipse fill="#f070d1" stroke="#000000" cx="1042" cy="-450.6252" rx="116.9792" ry="18"/>
<text text-anchor="middle" x="1042" y="-446.9252" font-family="Times,serif" font-size="14.00" fill="#000000">plusconnmap_diagonal</text>
</a>
</g>
</g>
<!-- Meet_istruncmap_plus_functor&#45;&gt;Meet_plusconnmap_diagonal -->
<g id="edge8" class="edge">
<title>Meet_istruncmap_plus_functor&#45;&gt;Meet_plusconnmap_diagonal</title>
<path fill="none" stroke="#000000" d="M1270.2942,-520.2468C1223.102,-505.8549 1154.4007,-484.9034 1104.7021,-469.7471"/>
<polygon fill="#000000" stroke="#000000" points="1105.6139,-466.3661 1095.0278,-466.7968 1103.5719,-473.0616 1105.6139,-466.3661"/>
</g>
<!-- Meet_plus_path_to_plus -->
<g id="node13" class="node">
<title>Meet_plus_path_to_plus</title>
<g id="a_node13"><a xlink:href="Meet.html#plus_path_to_plus" xlink:title="plus_path_to_plus">
<ellipse fill="#f070d1" stroke="#000000" cx="693" cy="-269.6252" rx="94.7833" ry="18"/>
<text text-anchor="middle" x="693" y="-265.9252" font-family="Times,serif" font-size="14.00" fill="#000000">plus_path_to_plus</text>
</a>
</g>
</g>
<!-- Meet_nsep_iff_trunc_plus&#45;&gt;Meet_plus_path_to_plus -->
<g id="edge9" class="edge">
<title>Meet_nsep_iff_trunc_plus&#45;&gt;Meet_plus_path_to_plus</title>
<path fill="none" stroke="#000000" d="M693,-337.3868C693,-325.9848 693,-311.0593 693,-298.1191"/>
<polygon fill="#000000" stroke="#000000" points="696.5001,-297.8372 693,-287.8373 689.5001,-297.8373 696.5001,-297.8372"/>
</g>
<!-- Meet_inmeet_isequiv_plus -->
<g id="node20" class="node">
<title>Meet_inmeet_isequiv_plus</title>
<g id="a_node20"><a xlink:href="Meet.html#inmeet_isequiv_plus" xlink:title="inmeet_isequiv_plus">
<ellipse fill="#f070d1" stroke="#000000" cx="682" cy="-191.6252" rx="105.0817" ry="18"/>
<text text-anchor="middle" x="682" y="-187.9252" font-family="Times,serif" font-size="14.00" fill="#000000">inmeet_isequiv_plus</text>
</a>
</g>
</g>
<!-- Meet_nsep_iff_trunc_plus&#45;&gt;Meet_inmeet_isequiv_plus -->
<g id="edge10" class="edge">
<title>Meet_nsep_iff_trunc_plus&#45;&gt;Meet_inmeet_isequiv_plus</title>
<path fill="none" stroke="#000000" d="M649.5188,-339.1932C627.1272,-328.2455 601.8813,-311.4379 589,-287.6252 581.3874,-273.5522 581.3444,-265.6748 589,-251.6252 597.9982,-235.1114 613.71,-222.4546 629.6864,-213.1193"/>
<polygon fill="#000000" stroke="#000000" points="631.4552,-216.1413 638.5485,-208.2714 628.0957,-210.0001 631.4552,-216.1413"/>
</g>
<!-- Meet_isequiv_plus_inmeet -->
<g id="node21" class="node">
<title>Meet_isequiv_plus_inmeet</title>
<g id="a_node21"><a xlink:href="Meet.html#isequiv_plus_inmeet" xlink:title="isequiv_plus_inmeet">
<ellipse fill="#f070d1" stroke="#000000" cx="435" cy="-269.6252" rx="105.0817" ry="18"/>
<text text-anchor="middle" x="435" y="-265.9252" font-family="Times,serif" font-size="14.00" fill="#000000">isequiv_plus_inmeet</text>
</a>
</g>
</g>
<!-- Meet_nsep_iff_trunc_plus&#45;&gt;Meet_isequiv_plus_inmeet -->
<g id="edge11" class="edge">
<title>Meet_nsep_iff_trunc_plus&#45;&gt;Meet_isequiv_plus_inmeet</title>
<path fill="none" stroke="#000000" d="M645.0768,-339.6508C601.9494,-325.2749 538.4899,-304.1218 492.6128,-288.8294"/>
<polygon fill="#000000" stroke="#000000" points="493.6972,-285.5016 483.1036,-285.6597 491.4836,-292.1424 493.6972,-285.5016"/>
</g>
<!-- Meet_plus_hfiber_to_plus -->
<g id="node9" class="node">
<title>Meet_plus_hfiber_to_plus</title>
<g id="a_node9"><a xlink:href="Meet.html#plus_hfiber_to_plus" xlink:title="plus_hfiber_to_plus">
<ellipse fill="#f070d1" stroke="#000000" cx="1351" cy="-269.6252" rx="101.2821" ry="18"/>
<text text-anchor="middle" x="1351" y="-265.9252" font-family="Times,serif" font-size="14.00" fill="#000000">plus_hfiber_to_plus</text>
</a>
</g>
</g>
<!-- Meet_plusconnmap_to_plus&#45;&gt;Meet_plus_hfiber_to_plus -->
<g id="edge12" class="edge">
<title>Meet_plusconnmap_to_plus&#45;&gt;Meet_plus_hfiber_to_plus</title>
<path fill="none" stroke="#000000" d="M1247.6211,-338.0143C1267.3382,-324.9706 1294.3957,-307.0711 1315.8837,-292.8559"/>
<polygon fill="#000000" stroke="#000000" points="1318.0053,-295.649 1324.4145,-287.2125 1314.1432,-289.8108 1318.0053,-295.649"/>
</g>
<!-- Meet_PlusConnMap -->
<g id="node15" class="node">
<title>Meet_PlusConnMap</title>
<g id="a_node15"><a xlink:href="Meet.html#PlusConnMap" xlink:title="PlusConnMap">
<ellipse fill="#f070d1" stroke="#000000" cx="901" cy="-269.6252" rx="75.2868" ry="18"/>
<text text-anchor="middle" x="901" y="-265.9252" font-family="Times,serif" font-size="14.00" fill="#000000">PlusConnMap</text>
</a>
</g>
</g>
<!-- Meet_plusconnmap_to_plus&#45;&gt;Meet_PlusConnMap -->
<g id="edge13" class="edge">
<title>Meet_plusconnmap_to_plus&#45;&gt;Meet_PlusConnMap</title>
<path fill="none" stroke="#000000" d="M1163.4208,-340.1508C1106.2669,-324.7906 1019.033,-301.3465 961.0356,-285.7597"/>
<polygon fill="#000000" stroke="#000000" points="961.8407,-282.352 951.2749,-283.1365 960.0238,-289.1121 961.8407,-282.352"/>
</g>
<!-- Meet_wellpointed_plus -->
<g id="node27" class="node">
<title>Meet_wellpointed_plus</title>
<g id="a_node27"><a xlink:href="Meet.html#wellpointed_plus" xlink:title="wellpointed_plus">
<ellipse fill="#f070d1" stroke="#000000" cx="1244" cy="-191.6252" rx="89.0842" ry="18"/>
<text text-anchor="middle" x="1244" y="-187.9252" font-family="Times,serif" font-size="14.00" fill="#000000">wellpointed_plus</text>
</a>
</g>
</g>
<!-- Meet_plusconnmap_to_plus&#45;&gt;Meet_wellpointed_plus -->
<g id="edge14" class="edge">
<title>Meet_plusconnmap_to_plus&#45;&gt;Meet_wellpointed_plus</title>
<path fill="none" stroke="#000000" d="M1223.5493,-337.4477C1227.5386,-309.002 1235.2887,-253.7403 1240.0184,-220.0156"/>
<polygon fill="#000000" stroke="#000000" points="1243.5164,-220.2733 1241.4393,-209.8841 1236.5843,-219.301 1243.5164,-220.2733"/>
</g>
<!-- Meet_equiv_plus_pullback -->
<g id="node8" class="node">
<title>Meet_equiv_plus_pullback</title>
<g id="a_node8"><a xlink:href="Meet.html#equiv_plus_pullback" xlink:title="equiv_plus_pullback">
<ellipse fill="#f070d1" stroke="#000000" cx="1576" cy="-269.6252" rx="105.0817" ry="18"/>
<text text-anchor="middle" x="1576" y="-265.9252" font-family="Times,serif" font-size="14.00" fill="#000000">equiv_plus_pullback</text>
</a>
</g>
</g>
<!-- Meet_diagonal_plus_functor&#45;&gt;Meet_equiv_plus_pullback -->
<g id="edge15" class="edge">
<title>Meet_diagonal_plus_functor&#45;&gt;Meet_equiv_plus_pullback</title>
<path fill="none" stroke="#000000" d="M1409.4149,-432.6085C1442.5208,-400.2183 1512.1652,-332.0797 1550.0761,-294.9886"/>
<polygon fill="#000000" stroke="#000000" points="1552.9594,-297.0642 1557.6596,-287.569 1548.064,-292.0606 1552.9594,-297.0642"/>
</g>
<!-- Meet_plus_functor -->
<g id="node29" class="node">
<title>Meet_plus_functor</title>
<g id="a_node29"><a xlink:href="Meet.html#plus_functor" xlink:title="plus_functor">
<ellipse fill="#f070d1" stroke="#000000" cx="1434" cy="-114.6252" rx="69.5877" ry="18"/>
<text text-anchor="middle" x="1434" y="-110.9252" font-family="Times,serif" font-size="14.00" fill="#000000">plus_functor</text>
</a>
</g>
</g>
<!-- Meet_equiv_plus_pullback&#45;&gt;Meet_plus_functor -->
<g id="edge16" class="edge">
<title>Meet_equiv_plus_pullback&#45;&gt;Meet_plus_functor</title>
<path fill="none" stroke="#000000" d="M1613.4672,-252.6872C1648.8921,-234.3187 1693.3988,-203.5938 1670,-173.6252 1650.0884,-148.1229 1569.4713,-132.0125 1507.9479,-123.1872"/>
<polygon fill="#000000" stroke="#000000" points="1508.2518,-119.6958 1497.8641,-121.7806 1507.2847,-126.6287 1508.2518,-119.6958"/>
</g>
<!-- Meet_plus_hfiber -->
<g id="node10" class="node">
<title>Meet_plus_hfiber</title>
<g id="a_node10"><a xlink:href="Meet.html#plus_hfiber" xlink:title="plus_hfiber">
<ellipse fill="#f070d1" stroke="#000000" cx="1598" cy="-191.6252" rx="63.0888" ry="18"/>
<text text-anchor="middle" x="1598" y="-187.9252" font-family="Times,serif" font-size="14.00" fill="#000000">plus_hfiber</text>
</a>
</g>
</g>
<!-- Meet_plus_hfiber_to_plus&#45;&gt;Meet_plus_hfiber -->
<g id="edge17" class="edge">
<title>Meet_plus_hfiber_to_plus&#45;&gt;Meet_plus_hfiber</title>
<path fill="none" stroke="#000000" d="M1400.687,-253.9345C1442.7707,-240.6449 1502.9162,-221.6516 1545.7206,-208.1344"/>
<polygon fill="#000000" stroke="#000000" points="1546.9091,-211.4296 1555.3909,-205.0807 1544.8011,-204.7545 1546.9091,-211.4296"/>
</g>
<!-- Meet_to_plus_natural -->
<g id="node28" class="node">
<title>Meet_to_plus_natural</title>
<g id="a_node28"><a xlink:href="Meet.html#to_plus_natural" xlink:title="to_plus_natural">
<ellipse fill="#f070d1" stroke="#000000" cx="1434" cy="-191.6252" rx="83.3857" ry="18"/>
<text text-anchor="middle" x="1434" y="-187.9252" font-family="Times,serif" font-size="14.00" fill="#000000">to_plus_natural</text>
</a>
</g>
</g>
<!-- Meet_plus_hfiber_to_plus&#45;&gt;Meet_to_plus_natural -->
<g id="edge18" class="edge">
<title>Meet_plus_hfiber_to_plus&#45;&gt;Meet_to_plus_natural</title>
<path fill="none" stroke="#000000" d="M1369.834,-251.9258C1381.0828,-241.3546 1395.5365,-227.7716 1407.8773,-216.1742"/>
<polygon fill="#000000" stroke="#000000" points="1410.3502,-218.6532 1415.2405,-209.2545 1405.5565,-213.5522 1410.3502,-218.6532"/>
</g>
<!-- Meet_plus_hfiber&#45;&gt;Meet_plus_functor -->
<g id="edge19" class="edge">
<title>Meet_plus_hfiber&#45;&gt;Meet_plus_functor</title>
<path fill="none" stroke="#000000" d="M1565.2063,-176.2281C1539.8705,-164.3326 1504.5895,-147.7678 1476.9931,-134.8109"/>
<polygon fill="#000000" stroke="#000000" points="1478.1207,-131.4738 1467.5813,-130.392 1475.1457,-137.8102 1478.1207,-131.4738"/>
</g>
<!-- Meet_to_plus -->
<g id="node30" class="node">
<title>Meet_to_plus</title>
<g id="a_node30"><a xlink:href="Meet.html#to_plus" xlink:title="to_plus">
<ellipse fill="#f070d1" stroke="#000000" cx="901" cy="-114.6252" rx="44.393" ry="18"/>
<text text-anchor="middle" x="901" y="-110.9252" font-family="Times,serif" font-size="14.00" fill="#000000">to_plus</text>
</a>
</g>
</g>
<!-- Meet_plus_hfiber&#45;&gt;Meet_to_plus -->
<g id="edge20" class="edge">
<title>Meet_plus_hfiber&#45;&gt;Meet_to_plus</title>
<path fill="none" stroke="#000000" d="M1552.5137,-179.1525C1543.7642,-177.0666 1534.636,-175.1036 1526,-173.6252 1316.8204,-137.815 1064.2639,-122.3467 955.3365,-116.9931"/>
<polygon fill="#000000" stroke="#000000" points="955.407,-113.4925 945.2498,-116.5062 955.0694,-120.4843 955.407,-113.4925"/>
</g>
<!-- Meet_plusconnected_path -->
<g id="node12" class="node">
<title>Meet_plusconnected_path</title>
<g id="a_node12"><a xlink:href="Meet.html#plusconnected_path" xlink:title="plusconnected_path">
<ellipse fill="#f070d1" stroke="#000000" cx="918" cy="-355.6252" rx="104.7816" ry="18"/>
<text text-anchor="middle" x="918" y="-351.9252" font-family="Times,serif" font-size="14.00" fill="#000000">plusconnected_path</text>
</a>
</g>
</g>
<!-- Meet_plusconnmap_diagonal&#45;&gt;Meet_plusconnected_path -->
<g id="edge21" class="edge">
<title>Meet_plusconnmap_diagonal&#45;&gt;Meet_plusconnected_path</title>
<path fill="none" stroke="#000000" d="M1018.6765,-432.7564C999.1053,-417.7623 970.9731,-396.2094 949.4191,-379.6963"/>
<polygon fill="#000000" stroke="#000000" points="951.2856,-376.7171 941.2189,-373.4138 947.0284,-382.2738 951.2856,-376.7171"/>
</g>
<!-- Meet_plusconnmap_diagonal&#45;&gt;Meet_PlusConnMap -->
<g id="edge22" class="edge">
<title>Meet_plusconnmap_diagonal&#45;&gt;Meet_PlusConnMap</title>
<path fill="none" stroke="#000000" d="M1045.7829,-432.3249C1049.9676,-406.8393 1053.5516,-360.3378 1032,-329.6252 1016.7147,-307.8424 991.5122,-293.8024 967.2741,-284.8316"/>
<polygon fill="#000000" stroke="#000000" points="968.2929,-281.4807 957.6981,-281.5209 966.0055,-288.0964 968.2929,-281.4807"/>
</g>
<!-- Meet_plusconnected_equiv -->
<g id="node16" class="node">
<title>Meet_plusconnected_equiv</title>
<g id="a_node16"><a xlink:href="Meet.html#plusconnected_equiv" xlink:title="plusconnected_equiv">
<ellipse fill="#f070d1" stroke="#000000" cx="1103" cy="-269.6252" rx="108.5808" ry="18"/>
<text text-anchor="middle" x="1103" y="-265.9252" font-family="Times,serif" font-size="14.00" fill="#000000">plusconnected_equiv</text>
</a>
</g>
</g>
<!-- Meet_plusconnmap_diagonal&#45;&gt;Meet_plusconnected_equiv -->
<g id="edge23" class="edge">
<title>Meet_plusconnmap_diagonal&#45;&gt;Meet_plusconnected_equiv</title>
<path fill="none" stroke="#000000" d="M1048.0719,-432.6085C1058.732,-400.9777 1080.8817,-335.255 1093.556,-297.6476"/>
<polygon fill="#000000" stroke="#000000" points="1096.9851,-298.4317 1096.8621,-287.8376 1090.3517,-296.1961 1096.9851,-298.4317"/>
</g>
<!-- Meet_plusconnected_path&#45;&gt;Meet_plus_path_to_plus -->
<g id="edge24" class="edge">
<title>Meet_plusconnected_path&#45;&gt;Meet_plus_path_to_plus</title>
<path fill="none" stroke="#000000" d="M874.884,-339.1452C837.8294,-324.9822 784.2986,-304.5215 744.901,-289.4629"/>
<polygon fill="#000000" stroke="#000000" points="745.7984,-286.059 735.2078,-285.7579 743.2991,-292.5976 745.7984,-286.059"/>
</g>
<!-- Meet_PlusConnected -->
<g id="node17" class="node">
<title>Meet_PlusConnected</title>
<g id="a_node17"><a xlink:href="Meet.html#PlusConnected" xlink:title="PlusConnected">
<ellipse fill="#f070d1" stroke="#000000" cx="1056" cy="-191.6252" rx="81.4863" ry="18"/>
<text text-anchor="middle" x="1056" y="-187.9252" font-family="Times,serif" font-size="14.00" fill="#000000">PlusConnected</text>
</a>
</g>
</g>
<!-- Meet_plusconnected_path&#45;&gt;Meet_PlusConnected -->
<g id="edge25" class="edge">
<title>Meet_plusconnected_path&#45;&gt;Meet_PlusConnected</title>
<path fill="none" stroke="#000000" d="M880.4926,-338.6727C842.0065,-318.927 791.1493,-284.7677 817,-251.6252 822.4074,-244.6925 919.4507,-221.9162 988.1945,-206.5067"/>
<polygon fill="#000000" stroke="#000000" points="989.1214,-209.886 998.1174,-204.2894 987.5948,-203.0545 989.1214,-209.886"/>
</g>
<!-- Meet_plus_path -->
<g id="node14" class="node">
<title>Meet_plus_path</title>
<g id="a_node14"><a xlink:href="Meet.html#plus_path" xlink:title="plus_path">
<ellipse fill="#f070d1" stroke="#000000" cx="901" cy="-191.6252" rx="55.7903" ry="18"/>
<text text-anchor="middle" x="901" y="-187.9252" font-family="Times,serif" font-size="14.00" fill="#000000">plus_path</text>
</a>
</g>
</g>
<!-- Meet_plus_path_to_plus&#45;&gt;Meet_plus_path -->
<g id="edge26" class="edge">
<title>Meet_plus_path_to_plus&#45;&gt;Meet_plus_path</title>
<path fill="none" stroke="#000000" d="M735.8455,-253.5581C770.5222,-240.5543 819.2672,-222.275 854.8097,-208.9465"/>
<polygon fill="#000000" stroke="#000000" points="856.3274,-212.1154 864.4618,-205.327 853.8695,-205.5611 856.3274,-212.1154"/>
</g>
<!-- Meet_plus_path&#45;&gt;Meet_to_plus -->
<g id="edge27" class="edge">
<title>Meet_plus_path&#45;&gt;Meet_to_plus</title>
<path fill="none" stroke="#000000" d="M901,-173.3772C901,-164.2673 901,-153.0425 901,-142.8534"/>
<polygon fill="#000000" stroke="#000000" points="904.5001,-142.7421 901,-132.7421 897.5001,-142.7421 904.5001,-142.7421"/>
</g>
<!-- Meet_PlusConnMap&#45;&gt;Meet_PlusConnected -->
<g id="edge28" class="edge">
<title>Meet_PlusConnMap&#45;&gt;Meet_PlusConnected</title>
<path fill="none" stroke="#000000" d="M933.4931,-253.2738C956.8954,-241.4971 988.6767,-225.504 1014.0042,-212.7585"/>
<polygon fill="#000000" stroke="#000000" points="1015.6565,-215.8453 1023.0159,-208.2236 1012.5098,-209.5924 1015.6565,-215.8453"/>
</g>
<!-- Meet_plusconnected_equiv&#45;&gt;Meet_PlusConnected -->
<g id="edge29" class="edge">
<title>Meet_plusconnected_equiv&#45;&gt;Meet_PlusConnected</title>
<path fill="none" stroke="#000000" d="M1092.0991,-251.5343C1086.1671,-241.6897 1078.7145,-229.3215 1072.1234,-218.3831"/>
<polygon fill="#000000" stroke="#000000" points="1075.0007,-216.3767 1066.8418,-209.6179 1069.0051,-219.9895 1075.0007,-216.3767"/>
</g>
<!-- Meet_plusconnected_equiv&#45;&gt;Meet_to_plus_natural -->
<g id="edge30" class="edge">
<title>Meet_plusconnected_equiv&#45;&gt;Meet_to_plus_natural</title>
<path fill="none" stroke="#000000" d="M1165.6477,-254.8623C1223.4061,-241.2515 1308.8542,-221.1157 1367.7344,-207.2406"/>
<polygon fill="#000000" stroke="#000000" points="1368.7455,-210.5983 1377.6761,-204.8979 1367.1399,-203.7849 1368.7455,-210.5983"/>
</g>
<!-- Meet_PlusConnected&#45;&gt;Meet_to_plus -->
<g id="edge31" class="edge">
<title>Meet_PlusConnected&#45;&gt;Meet_to_plus</title>
<path fill="none" stroke="#000000" d="M1022.7486,-175.1067C997.9515,-162.7882 964.0653,-145.9544 938.3384,-133.1739"/>
<polygon fill="#000000" stroke="#000000" points="939.7741,-129.9791 929.2611,-128.6646 936.6597,-136.2481 939.7741,-129.9791"/>
</g>
<!-- Meet_reflects_plus_inO -->
<g id="node18" class="node">
<title>Meet_reflects_plus_inO</title>
<g id="a_node18"><a xlink:href="Meet.html#reflects_plus_inO" xlink:title="reflects_plus_inO">
<ellipse fill="#f070d1" stroke="#000000" cx="473" cy="-355.6252" rx="92.1006" ry="18"/>
<ellipse fill="none" stroke="#000000" cx="473" cy="-355.6252" rx="96.0923" ry="22"/>
<ellipse fill="none" stroke="#000000" cx="473" cy="-355.6252" rx="100.0841" ry="26"/>
<text text-anchor="middle" x="473" y="-351.9252" font-family="Times,serif" font-size="14.00" fill="#000000">reflects_plus_inO</text>
</a>
</g>
</g>
<!-- Meet_prereflects_plus_inO -->
<g id="node19" class="node">
<title>Meet_prereflects_plus_inO</title>
<g id="a_node19"><a xlink:href="Meet.html#prereflects_plus_inO" xlink:title="prereflects_plus_inO">
<ellipse fill="#f070d1" stroke="#000000" cx="451" cy="-191.6252" rx="107.781" ry="18"/>
<text text-anchor="middle" x="451" y="-187.9252" font-family="Times,serif" font-size="14.00" fill="#000000">prereflects_plus_inO</text>
</a>
</g>
</g>
<!-- Meet_reflects_plus_inO&#45;&gt;Meet_prereflects_plus_inO -->
<g id="edge32" class="edge">
<title>Meet_reflects_plus_inO&#45;&gt;Meet_prereflects_plus_inO</title>
<path fill="none" stroke="#000000" d="M510.5361,-331.3364C537.0594,-310.9515 565.2324,-280.5964 549,-251.6252 539.5383,-234.738 523.1701,-222.0325 506.4904,-212.7648"/>
<polygon fill="#000000" stroke="#000000" points="507.7223,-209.4611 497.2336,-207.9651 504.5001,-215.6754 507.7223,-209.4611"/>
</g>
<!-- Meet_reflects_plus_inO&#45;&gt;Meet_ooextendable_plus -->
<g id="edge33" class="edge">
<title>Meet_reflects_plus_inO&#45;&gt;Meet_ooextendable_plus</title>
<path fill="none" stroke="#000000" d="M411.2026,-335.026C368.9709,-320.9488 313.4073,-302.4276 272.1937,-288.6897"/>
<polygon fill="#000000" stroke="#000000" points="273.1661,-285.3246 262.5725,-285.4826 270.9525,-291.9654 273.1661,-285.3246"/>
</g>
<!-- Meet_prereflects_plus_inO&#45;&gt;Meet_to_plus -->
<g id="edge34" class="edge">
<title>Meet_prereflects_plus_inO&#45;&gt;Meet_to_plus</title>
<path fill="none" stroke="#000000" d="M527.3993,-178.8243C597.9238,-166.9716 705.5591,-148.7908 799,-132.6252 815.7276,-129.7312 833.9892,-126.5238 850.3786,-123.6277"/>
<polygon fill="#000000" stroke="#000000" points="851.0737,-127.0591 860.3109,-121.8702 849.854,-120.1662 851.0737,-127.0591"/>
</g>
<!-- Meet_inO_plus_l -->
<g id="node31" class="node">
<title>Meet_inO_plus_l</title>
<g id="a_node31"><a xlink:href="Meet.html#inO_plus_l" xlink:title="inO_plus_l">
<ellipse fill="#f070d1" stroke="#000000" cx="730" cy="-114.6252" rx="59.5901" ry="18"/>
<text text-anchor="middle" x="730" y="-110.9252" font-family="Times,serif" font-size="14.00" fill="#000000">inO_plus_l</text>
</a>
</g>
</g>
<!-- Meet_prereflects_plus_inO&#45;&gt;Meet_inO_plus_l -->
<g id="edge35" class="edge">
<title>Meet_prereflects_plus_inO&#45;&gt;Meet_inO_plus_l</title>
<path fill="none" stroke="#000000" d="M507.1242,-176.1357C556.4001,-162.5362 627.5989,-142.8864 676.1766,-129.4796"/>
<polygon fill="#000000" stroke="#000000" points="677.1716,-132.836 685.88,-126.8016 675.3093,-126.0882 677.1716,-132.836"/>
</g>
<!-- Meet_Meet -->
<g id="node35" class="node">
<title>Meet_Meet</title>
<g id="a_node35"><a xlink:href="Meet.html#Meet" xlink:title="Meet">
<ellipse fill="#f070d1" stroke="#000000" cx="352" cy="-114.6252" rx="34.394" ry="18"/>
<text text-anchor="middle" x="352" y="-110.9252" font-family="Times,serif" font-size="14.00" fill="#000000">Meet</text>
</a>
</g>
</g>
<!-- Meet_prereflects_plus_inO&#45;&gt;Meet_Meet -->
<g id="edge36" class="edge">
<title>Meet_prereflects_plus_inO&#45;&gt;Meet_Meet</title>
<path fill="none" stroke="#000000" d="M428.0386,-173.7663C413.58,-162.5207 394.8325,-147.9394 379.5709,-136.0692"/>
<polygon fill="#000000" stroke="#000000" points="381.5425,-133.1686 371.5001,-129.7919 377.2449,-138.6941 381.5425,-133.1686"/>
</g>
<!-- Meet_inmeet_isequiv_plus&#45;&gt;Meet_to_plus -->
<g id="edge37" class="edge">
<title>Meet_inmeet_isequiv_plus&#45;&gt;Meet_to_plus</title>
<path fill="none" stroke="#000000" d="M728.1767,-175.3895C766.4224,-161.9424 820.3712,-142.9741 857.7776,-129.8221"/>
<polygon fill="#000000" stroke="#000000" points="859.1135,-133.0625 867.3864,-126.4436 856.7916,-126.4588 859.1135,-133.0625"/>
</g>
<!-- Meet_inmeet_isequiv_plus&#45;&gt;Meet_inO_plus_l -->
<g id="edge38" class="edge">
<title>Meet_inmeet_isequiv_plus&#45;&gt;Meet_inO_plus_l</title>
<path fill="none" stroke="#000000" d="M693.3753,-173.3772C699.3965,-163.7184 706.8996,-151.6821 713.544,-141.0234"/>
<polygon fill="#000000" stroke="#000000" points="716.5519,-142.8142 718.8719,-132.4765 710.6116,-139.1111 716.5519,-142.8142"/>
</g>
<!-- Meet_inmeet_isequiv_plus&#45;&gt;Meet_Meet -->
<g id="edge39" class="edge">
<title>Meet_inmeet_isequiv_plus&#45;&gt;Meet_Meet</title>
<path fill="none" stroke="#000000" d="M619.5416,-177.0515C553.263,-161.5865 450.4125,-137.5881 393.4726,-124.3021"/>
<polygon fill="#000000" stroke="#000000" points="394.2644,-120.8929 383.7307,-122.029 392.6738,-127.7098 394.2644,-120.8929"/>
</g>
<!-- Meet_isequiv_plus_inmeet&#45;&gt;Meet_to_plus -->
<g id="edge40" class="edge">
<title>Meet_isequiv_plus_inmeet&#45;&gt;Meet_to_plus</title>
<path fill="none" stroke="#000000" d="M522.107,-259.3695C625.4734,-246.6349 786.9326,-224.7486 811,-209.6252 827.4936,-199.2609 823.15,-188.2653 836,-173.6252 847.1907,-160.8754 860.9388,-148.0585 872.9045,-137.6433"/>
<polygon fill="#000000" stroke="#000000" points="875.5261,-140.0066 880.8504,-130.8468 870.976,-134.6871 875.5261,-140.0066"/>
</g>
<!-- Meet_inO_inmeet_r -->
<g id="node33" class="node">
<title>Meet_inO_inmeet_r</title>
<g id="a_node33"><a xlink:href="Meet.html#inO_inmeet_r" xlink:title="inO_inmeet_r">
<ellipse fill="#f070d1" stroke="#000000" cx="89" cy="-191.6252" rx="73.387" ry="18"/>
<text text-anchor="middle" x="89" y="-187.9252" font-family="Times,serif" font-size="14.00" fill="#000000">inO_inmeet_r</text>
</a>
</g>
</g>
<!-- Meet_isequiv_plus_inmeet&#45;&gt;Meet_inO_inmeet_r -->
<g id="edge41" class="edge">
<title>Meet_isequiv_plus_inmeet&#45;&gt;Meet_inO_inmeet_r</title>
<path fill="none" stroke="#000000" d="M371.135,-255.2279C309.0789,-241.2383 215.3575,-220.1104 153.1908,-206.0959"/>
<polygon fill="#000000" stroke="#000000" points="153.6375,-202.6089 143.1126,-203.824 152.0981,-209.4375 153.6375,-202.6089"/>
</g>
<!-- Meet_inO_inmeet_l -->
<g id="node34" class="node">
<title>Meet_inO_inmeet_l</title>
<g id="a_node34"><a xlink:href="Meet.html#inO_inmeet_l" xlink:title="inO_inmeet_l">
<ellipse fill="#f070d1" stroke="#000000" cx="253" cy="-191.6252" rx="72.2875" ry="18"/>
<text text-anchor="middle" x="253" y="-187.9252" font-family="Times,serif" font-size="14.00" fill="#000000">inO_inmeet_l</text>
</a>
</g>
</g>
<!-- Meet_isequiv_plus_inmeet&#45;&gt;Meet_inO_inmeet_l -->
<g id="edge42" class="edge">
<title>Meet_isequiv_plus_inmeet&#45;&gt;Meet_inO_inmeet_l</title>
<path fill="none" stroke="#000000" d="M395.9564,-252.8922C367.4934,-240.6938 328.8319,-224.1246 298.8911,-211.2928"/>
<polygon fill="#000000" stroke="#000000" points="300.0707,-207.9905 289.5005,-207.2682 297.3132,-214.4245 300.0707,-207.9905"/>
</g>
<!-- Meet_plus_indpaths_beta -->
<g id="node22" class="node">
<title>Meet_plus_indpaths_beta</title>
<g id="a_node22"><a xlink:href="Meet.html#plus_indpaths_beta" xlink:title="plus_indpaths_beta">
<ellipse fill="#f070d1" stroke="#000000" cx="125" cy="-450.6252" rx="100.9649" ry="18"/>
<ellipse fill="none" stroke="#000000" cx="125" cy="-450.6252" rx="104.9738" ry="22"/>
<ellipse fill="none" stroke="#000000" cx="125" cy="-450.6252" rx="108.9827" ry="26"/>
<text text-anchor="middle" x="125" y="-446.9252" font-family="Times,serif" font-size="14.00" fill="#000000">plus_indpaths_beta</text>
</a>
</g>
</g>
<!-- Meet_plus_indpaths -->
<g id="node23" class="node">
<title>Meet_plus_indpaths</title>
<g id="a_node23"><a xlink:href="Meet.html#plus_indpaths" xlink:title="plus_indpaths">
<ellipse fill="#f070d1" stroke="#000000" cx="133" cy="-355.6252" rx="75.2868" ry="18"/>
<text text-anchor="middle" x="133" y="-351.9252" font-family="Times,serif" font-size="14.00" fill="#000000">plus_indpaths</text>
</a>
</g>
</g>
<!-- Meet_plus_indpaths_beta&#45;&gt;Meet_plus_indpaths -->
<g id="edge43" class="edge">
<title>Meet_plus_indpaths_beta&#45;&gt;Meet_plus_indpaths</title>
<path fill="none" stroke="#000000" d="M127.2072,-424.4145C128.2695,-411.7999 129.5445,-396.6595 130.6275,-383.7982"/>
<polygon fill="#000000" stroke="#000000" points="134.1317,-383.8947 131.4833,-373.6362 127.1564,-383.3072 134.1317,-383.8947"/>
</g>
<!-- Meet_plus_indpaths&#45;&gt;Meet_ooextendable_plus -->
<g id="edge44" class="edge">
<title>Meet_plus_indpaths&#45;&gt;Meet_ooextendable_plus</title>
<path fill="none" stroke="#000000" d="M149.9905,-337.8059C161.8647,-325.3524 177.8875,-308.548 191.0546,-294.7387"/>
<polygon fill="#000000" stroke="#000000" points="193.6636,-297.0743 198.0313,-287.4216 188.5974,-292.2437 193.6636,-297.0743"/>
</g>
<!-- Meet_plus_rec_beta -->
<g id="node24" class="node">
<title>Meet_plus_rec_beta</title>
<g id="a_node24"><a xlink:href="Meet.html#plus_rec_beta" xlink:title="plus_rec_beta">
<ellipse fill="#f070d1" stroke="#000000" cx="355" cy="-450.6252" rx="75.297" ry="18"/>
<ellipse fill="none" stroke="#000000" cx="355" cy="-450.6252" rx="79.2919" ry="22"/>
<ellipse fill="none" stroke="#000000" cx="355" cy="-450.6252" rx="83.2868" ry="26"/>
<text text-anchor="middle" x="355" y="-446.9252" font-family="Times,serif" font-size="14.00" fill="#000000">plus_rec_beta</text>
</a>
</g>
</g>
<!-- Meet_plus_rec -->
<g id="node25" class="node">
<title>Meet_plus_rec</title>
<g id="a_node25"><a xlink:href="Meet.html#plus_rec" xlink:title="plus_rec">
<ellipse fill="#f070d1" stroke="#000000" cx="305" cy="-355.6252" rx="50.0912" ry="18"/>
<text text-anchor="middle" x="305" y="-351.9252" font-family="Times,serif" font-size="14.00" fill="#000000">plus_rec</text>
</a>
</g>
</g>
<!-- Meet_plus_rec_beta&#45;&gt;Meet_plus_rec -->
<g id="edge45" class="edge">
<title>Meet_plus_rec_beta&#45;&gt;Meet_plus_rec</title>
<path fill="none" stroke="#000000" d="M341.3373,-424.666C334.4503,-411.5807 326.107,-395.7284 319.1528,-382.5155"/>
<polygon fill="#000000" stroke="#000000" points="322.13,-380.6572 314.3753,-373.4382 315.9356,-383.9175 322.13,-380.6572"/>
</g>
<!-- Meet_plus_rec&#45;&gt;Meet_ooextendable_plus -->
<g id="edge46" class="edge">
<title>Meet_plus_rec&#45;&gt;Meet_ooextendable_plus</title>
<path fill="none" stroke="#000000" d="M287.2189,-338.6343C274.0445,-326.0454 255.8844,-308.6925 241.071,-294.5374"/>
<polygon fill="#000000" stroke="#000000" points="243.3216,-291.847 233.6737,-287.4689 238.4856,-296.908 243.3216,-291.847"/>
</g>
<!-- Meet_ooextendable_plus&#45;&gt;Meet_to_plus -->
<g id="edge47" class="edge">
<title>Meet_ooextendable_plus&#45;&gt;Meet_to_plus</title>
<path fill="none" stroke="#000000" d="M284.4434,-257.015C296.6025,-255.0411 309.1517,-253.1525 321,-251.6252 426.0978,-238.0774 710.5066,-272.2348 796,-209.6252 809.9844,-199.3839 799.9312,-186.964 811,-173.6252 824.9189,-156.8516 844.8428,-143.113 862.4078,-133.1267"/>
<polygon fill="#000000" stroke="#000000" points="864.2361,-136.1162 871.3339,-128.2503 860.88,-129.9731 864.2361,-136.1162"/>
</g>
<!-- Meet_ooextendable_plus&#45;&gt;Meet_inO_inmeet_r -->
<g id="edge48" class="edge">
<title>Meet_ooextendable_plus&#45;&gt;Meet_inO_inmeet_r</title>
<path fill="none" stroke="#000000" d="M187.0365,-252.3144C168.8036,-241.0274 144.8299,-226.1865 125.1537,-214.006"/>
<polygon fill="#000000" stroke="#000000" points="126.7967,-210.9068 116.4518,-208.6191 123.1122,-216.8587 126.7967,-210.9068"/>
</g>
<!-- Meet_ooextendable_plus&#45;&gt;Meet_inO_inmeet_l -->
<g id="edge49" class="edge">
<title>Meet_ooextendable_plus&#45;&gt;Meet_inO_inmeet_l</title>
<path fill="none" stroke="#000000" d="M223.8135,-251.5343C228.5616,-241.7882 234.5147,-229.5686 239.804,-218.7116"/>
<polygon fill="#000000" stroke="#000000" points="243.001,-220.1407 244.2343,-209.6179 236.7081,-217.0749 243.001,-220.1407"/>
</g>
<!-- Meet_wellpointed_plus&#45;&gt;Meet_plus_functor -->
<g id="edge50" class="edge">
<title>Meet_wellpointed_plus&#45;&gt;Meet_plus_functor</title>
<path fill="none" stroke="#000000" d="M1283.8302,-175.4834C1313.9078,-163.2941 1355.2764,-146.5289 1386.979,-133.681"/>
<polygon fill="#000000" stroke="#000000" points="1388.531,-136.8286 1396.4843,-129.8289 1385.9018,-130.3411 1388.531,-136.8286"/>
</g>
<!-- Meet_wellpointed_plus&#45;&gt;Meet_to_plus -->
<g id="edge51" class="edge">
<title>Meet_wellpointed_plus&#45;&gt;Meet_to_plus</title>
<path fill="none" stroke="#000000" d="M1184.254,-178.2128C1117.7095,-163.2742 1011.406,-139.4102 949.7013,-125.5581"/>
<polygon fill="#000000" stroke="#000000" points="950.349,-122.1165 939.8252,-123.341 948.8157,-128.9465 950.349,-122.1165"/>
</g>
<!-- Meet_wellpointed_plus&#45;&gt;Meet_inO_plus_l -->
<g id="edge52" class="edge">
<title>Meet_wellpointed_plus&#45;&gt;Meet_inO_plus_l</title>
<path fill="none" stroke="#000000" d="M1178.968,-179.2573C1167.9786,-177.2888 1156.6749,-175.339 1146,-173.6252 1013.9982,-152.4329 980.3074,-151.817 848,-132.6252 830.2562,-130.0513 811.0279,-127.1612 793.3452,-124.4627"/>
<polygon fill="#000000" stroke="#000000" points="793.5499,-120.9533 783.1354,-122.8997 792.4906,-127.8727 793.5499,-120.9533"/>
</g>
<!-- Meet_to_plus_natural&#45;&gt;Meet_plus_functor -->
<g id="edge53" class="edge">
<title>Meet_to_plus_natural&#45;&gt;Meet_plus_functor</title>
<path fill="none" stroke="#000000" d="M1434,-173.3772C1434,-164.2673 1434,-153.0425 1434,-142.8534"/>
<polygon fill="#000000" stroke="#000000" points="1437.5001,-142.7421 1434,-132.7421 1430.5001,-142.7421 1437.5001,-142.7421"/>
</g>
<!-- Meet_to_plus_natural&#45;&gt;Meet_to_plus -->
<g id="edge54" class="edge">
<title>Meet_to_plus_natural&#45;&gt;Meet_to_plus</title>
<path fill="none" stroke="#000000" d="M1373.2239,-179.1979C1362.8266,-177.2257 1352.1172,-175.2901 1342,-173.6252 1202.3919,-150.6504 1036.8,-130.3483 953.8763,-120.6558"/>
<polygon fill="#000000" stroke="#000000" points="954.0362,-117.1509 943.6985,-119.471 953.2267,-124.1039 954.0362,-117.1509"/>
</g>
<!-- Meet_Plus -->
<g id="node32" class="node">
<title>Meet_Plus</title>
<g id="a_node32"><a xlink:href="Meet.html#Plus" xlink:title="Plus">
<ellipse fill="#f070d1" stroke="#000000" cx="901" cy="-36.6252" rx="30.5947" ry="18"/>
<text text-anchor="middle" x="901" y="-32.9252" font-family="Times,serif" font-size="14.00" fill="#000000">Plus</text>
</a>
</g>
</g>
<!-- Meet_plus_functor&#45;&gt;Meet_Plus -->
<g id="edge55" class="edge">
<title>Meet_plus_functor&#45;&gt;Meet_Plus</title>
<path fill="none" stroke="#000000" d="M1373.377,-105.7535C1263.2957,-89.644 1033.3878,-55.999 940.8505,-42.4569"/>
<polygon fill="#000000" stroke="#000000" points="941.1797,-38.9679 930.7782,-40.983 940.166,-45.8941 941.1797,-38.9679"/>
</g>
<!-- Meet_to_plus&#45;&gt;Meet_Plus -->
<g id="edge56" class="edge">
<title>Meet_to_plus&#45;&gt;Meet_Plus</title>
<path fill="none" stroke="#000000" d="M901,-96.5343C901,-87.151 901,-75.475 901,-64.9297"/>
<polygon fill="#000000" stroke="#000000" points="904.5001,-64.888 901,-54.8881 897.5001,-64.8881 904.5001,-64.888"/>
</g>
<!-- Meet_inO_plus_l&#45;&gt;Meet_Plus -->
<g id="edge57" class="edge">
<title>Meet_inO_plus_l&#45;&gt;Meet_Plus</title>
<path fill="none" stroke="#000000" d="M762.9705,-99.586C793.0085,-85.8844 837.1693,-65.7409 867.402,-51.9506"/>
<polygon fill="#000000" stroke="#000000" points="869.0471,-55.0471 876.6928,-47.7127 866.1421,-48.6784 869.0471,-55.0471"/>
</g>
<!-- Meet_inO_inmeet_r&#45;&gt;Meet_Meet -->
<g id="edge58" class="edge">
<title>Meet_inO_inmeet_r&#45;&gt;Meet_Meet</title>
<path fill="none" stroke="#000000" d="M136.3229,-177.7702C186.4747,-163.0869 264.8074,-140.153 311.9892,-126.3393"/>
<polygon fill="#000000" stroke="#000000" points="313.2349,-129.6216 321.8486,-123.4528 311.268,-122.9036 313.2349,-129.6216"/>
</g>
<!-- Meet_inO_inmeet_l&#45;&gt;Meet_Meet -->
<g id="edge59" class="edge">
<title>Meet_inO_inmeet_l&#45;&gt;Meet_Meet</title>
<path fill="none" stroke="#000000" d="M275.4646,-174.1527C290.0015,-162.8462 309.0256,-148.0497 324.4701,-136.0373"/>
<polygon fill="#000000" stroke="#000000" points="326.886,-138.5923 332.6308,-129.6901 322.5884,-133.0668 326.886,-138.5923"/>
</g>
</g>
</svg>
