<?xml version="1.0" encoding="UTF-8" standalone="no"?>
<!DOCTYPE svg PUBLIC "-//W3C//DTD SVG 1.1//EN"
 "http://www.w3.org/Graphics/SVG/1.1/DTD/svg11.dtd">
<!-- Generated by graphviz version 2.40.1 (20161225.0304)
 -->
<!-- Title: HoTT_Classes_theory_ua_homomorphism Pages: 1 -->
<svg width="3412pt" height="1710pt"
 viewBox="0.00 0.00 3412.00 1710.00" xmlns="http://www.w3.org/2000/svg" xmlns:xlink="http://www.w3.org/1999/xlink">
<g id="graph0" class="graph" transform="scale(1 1) rotate(0) translate(4 1706)">
<title>HoTT_Classes_theory_ua_homomorphism</title>
<polygon fill="#ffffff" stroke="transparent" points="-4,4 -4,-1706 3408,-1706 3408,4 -4,4"/>
<g id="clust1" class="cluster">
<title>cluster_ua_homomorphism</title>
<polygon fill="#ffffc3" stroke="#000000" points="8,-20.1719 8,-1681.8281 3396,-1681.8281 3396,-20.1719 8,-20.1719"/>
<text text-anchor="middle" x="84" y="-1666.6281" font-family="Times,serif" font-size="14.00" fill="#000000">ua_homomorphism</text>
</g>
<!-- ua_homomorphism_path_isomorphism -->
<g id="node1" class="node">
<title>ua_homomorphism_path_isomorphism</title>
<g id="a_node1"><a xlink:href="ua_homomorphism.html#path_isomorphism" xlink:title="path_isomorphism">
<ellipse fill="#f070d1" stroke="#000000" cx="2462" cy="-1538.1719" rx="96.6951" ry="18"/>
<ellipse fill="none" stroke="#000000" cx="2462" cy="-1538.1719" rx="100.6891" ry="22"/>
<ellipse fill="none" stroke="#000000" cx="2462" cy="-1538.1719" rx="104.6831" ry="26"/>
<text text-anchor="middle" x="2462" y="-1534.4719" font-family="Times,serif" font-size="14.00" fill="#000000">path_isomorphism</text>
</a>
</g>
</g>
<!-- ua_homomorphism_path_isomorphism_subproof -->
<g id="node2" class="node">
<title>ua_homomorphism_path_isomorphism_subproof</title>
<g id="a_node2"><a xlink:href="ua_homomorphism.html#path_isomorphism_subproof" xlink:title="path_isomorphism_subproof">
<ellipse fill="#f070d1" stroke="#000000" cx="2462" cy="-1336.1719" rx="142.1749" ry="18"/>
<text text-anchor="middle" x="2462" y="-1332.4719" font-family="Times,serif" font-size="14.00" fill="#000000">path_isomorphism_subproof</text>
</a>
</g>
</g>
<!-- ua_homomorphism_path_isomorphism&#45;&gt;ua_homomorphism_path_isomorphism_subproof -->
<g id="edge1" class="edge">
<title>ua_homomorphism_path_isomorphism&#45;&gt;ua_homomorphism_path_isomorphism_subproof</title>
<path fill="none" stroke="#000000" d="M2462,-1511.7639C2462,-1473.6406 2462,-1403.4818 2462,-1364.3788"/>
<polygon fill="#000000" stroke="#000000" points="2465.5001,-1364.2257 2462,-1354.2257 2458.5001,-1364.2257 2465.5001,-1364.2257"/>
</g>
<!-- ua_homomorphism_path_operations_isomorphism -->
<g id="node3" class="node">
<title>ua_homomorphism_path_operations_isomorphism</title>
<g id="a_node3"><a xlink:href="ua_homomorphism.html#path_operations_isomorphism" xlink:title="path_operations_isomorphism">
<ellipse fill="#f070d1" stroke="#000000" cx="2462" cy="-1134.1719" rx="150.5735" ry="18"/>
<text text-anchor="middle" x="2462" y="-1130.4719" font-family="Times,serif" font-size="14.00" fill="#000000">path_operations_isomorphism</text>
</a>
</g>
</g>
<!-- ua_homomorphism_path_isomorphism_subproof&#45;&gt;ua_homomorphism_path_operations_isomorphism -->
<g id="edge2" class="edge">
<title>ua_homomorphism_path_isomorphism_subproof&#45;&gt;ua_homomorphism_path_operations_isomorphism</title>
<path fill="none" stroke="#000000" d="M2462,-1317.8894C2462,-1282.5106 2462,-1204.4717 2462,-1162.3882"/>
<polygon fill="#000000" stroke="#000000" points="2465.5001,-1162.2674 2462,-1152.2674 2458.5001,-1162.2675 2465.5001,-1162.2674"/>
</g>
<!-- ua_homomorphism_path_operations_equiv -->
<g id="node4" class="node">
<title>ua_homomorphism_path_operations_equiv</title>
<g id="a_node4"><a xlink:href="ua_homomorphism.html#path_operations_equiv" xlink:title="path_operations_equiv">
<ellipse fill="#f070d1" stroke="#000000" cx="3108" cy="-267.1719" rx="116.1796" ry="18"/>
<text text-anchor="middle" x="3108" y="-263.4719" font-family="Times,serif" font-size="14.00" fill="#000000">path_operations_equiv</text>
</a>
</g>
</g>
<!-- ua_homomorphism_path_operations_isomorphism&#45;&gt;ua_homomorphism_path_operations_equiv -->
<g id="edge3" class="edge">
<title>ua_homomorphism_path_operations_isomorphism&#45;&gt;ua_homomorphism_path_operations_equiv</title>
<path fill="none" stroke="#000000" d="M2596.6866,-1126.0255C2820.2163,-1103.9213 3254.3236,-1021.8518 3366,-717.1719 3430.1207,-542.2352 3222.0844,-356.1388 3139.9147,-291.1821"/>
<polygon fill="#000000" stroke="#000000" points="3141.944,-288.3258 3131.9103,-284.9236 3137.6323,-293.8403 3141.944,-288.3258"/>
</g>
<!-- ua_homomorphism_equiv_isomorphism -->
<g id="node18" class="node">
<title>ua_homomorphism_equiv_isomorphism</title>
<g id="a_node18"><a xlink:href="ua_homomorphism.html#equiv_isomorphism" xlink:title="equiv_isomorphism">
<ellipse fill="#f070d1" stroke="#000000" cx="363" cy="-913.1719" rx="100.9827" ry="18"/>
<text text-anchor="middle" x="363" y="-909.4719" font-family="Times,serif" font-size="14.00" fill="#000000">equiv_isomorphism</text>
</a>
</g>
</g>
<!-- ua_homomorphism_path_operations_isomorphism&#45;&gt;ua_homomorphism_equiv_isomorphism -->
<g id="edge4" class="edge">
<title>ua_homomorphism_path_operations_isomorphism&#45;&gt;ua_homomorphism_equiv_isomorphism</title>
<path fill="none" stroke="#000000" d="M2323.4118,-1127.0102C1998.3907,-1108.8183 1162.4409,-1053.9134 473,-939.1719 458.9812,-936.8387 444.0907,-933.7449 429.9437,-930.5074"/>
<polygon fill="#000000" stroke="#000000" points="430.3314,-927.0037 419.797,-928.1335 428.7367,-933.8196 430.3314,-927.0037"/>
</g>
<!-- ua_homomorphism_OpPreserving -->
<g id="node39" class="node">
<title>ua_homomorphism_OpPreserving</title>
<g id="a_node39"><a xlink:href="ua_homomorphism.html#OpPreserving" xlink:title="OpPreserving">
<ellipse fill="#f070d1" stroke="#000000" cx="2018" cy="-86.1719" rx="75.2868" ry="18"/>
<text text-anchor="middle" x="2018" y="-82.4719" font-family="Times,serif" font-size="14.00" fill="#000000">OpPreserving</text>
</a>
</g>
</g>
<!-- ua_homomorphism_path_operations_equiv&#45;&gt;ua_homomorphism_OpPreserving -->
<g id="edge5" class="edge">
<title>ua_homomorphism_path_operations_equiv&#45;&gt;ua_homomorphism_OpPreserving</title>
<path fill="none" stroke="#000000" d="M3028.2913,-253.9358C2824.2422,-220.0524 2285.3743,-130.5707 2090.0247,-98.1319"/>
<polygon fill="#000000" stroke="#000000" points="2090.5885,-94.6777 2080.1502,-96.4922 2089.4417,-101.5831 2090.5885,-94.6777"/>
</g>
<!-- ua_homomorphism_hom_compose -->
<g id="node5" class="node">
<title>ua_homomorphism_hom_compose</title>
<g id="a_node5"><a xlink:href="ua_homomorphism.html#hom_compose" xlink:title="hom_compose">
<ellipse fill="#f070d1" stroke="#000000" cx="2074" cy="-913.1719" rx="76.8685" ry="18"/>
<ellipse fill="none" stroke="#000000" cx="2074" cy="-913.1719" rx="80.8777" ry="22"/>
<ellipse fill="none" stroke="#000000" cx="2074" cy="-913.1719" rx="84.8868" ry="26"/>
<text text-anchor="middle" x="2074" y="-909.4719" font-family="Times,serif" font-size="14.00" fill="#000000">hom_compose</text>
</a>
</g>
</g>
<!-- ua_homomorphism_is_homomorphism_compose -->
<g id="node7" class="node">
<title>ua_homomorphism_is_homomorphism_compose</title>
<g id="a_node7"><a xlink:href="ua_homomorphism.html#is_homomorphism_compose" xlink:title="is_homomorphism_compose">
<ellipse fill="#f070d1" stroke="#000000" cx="413" cy="-691.1719" rx="141.8751" ry="18"/>
<text text-anchor="middle" x="413" y="-687.4719" font-family="Times,serif" font-size="14.00" fill="#000000">is_homomorphism_compose</text>
</a>
</g>
</g>
<!-- ua_homomorphism_hom_compose&#45;&gt;ua_homomorphism_is_homomorphism_compose -->
<g id="edge6" class="edge">
<title>ua_homomorphism_hom_compose&#45;&gt;ua_homomorphism_is_homomorphism_compose</title>
<path fill="none" stroke="#000000" d="M1995.9505,-902.8916C1959.5069,-898.0995 1915.5357,-892.329 1876,-887.1719 1292.9537,-811.1175 1145.411,-804.8558 564,-717.1719 544.8487,-714.2836 524.3769,-710.9351 504.8848,-707.6219"/>
<polygon fill="#000000" stroke="#000000" points="505.2402,-704.1319 494.7931,-705.8951 504.0595,-711.0316 505.2402,-704.1319"/>
</g>
<!-- ua_homomorphism_def_hom -->
<g id="node28" class="node">
<title>ua_homomorphism_def_hom</title>
<g id="a_node28"><a xlink:href="ua_homomorphism.html#def_hom" xlink:title="def_hom">
<ellipse fill="#f070d1" stroke="#000000" cx="2074" cy="-691.1719" rx="50.0912" ry="18"/>
<text text-anchor="middle" x="2074" y="-687.4719" font-family="Times,serif" font-size="14.00" fill="#000000">def_hom</text>
</a>
</g>
</g>
<!-- ua_homomorphism_hom_compose&#45;&gt;ua_homomorphism_def_hom -->
<g id="edge7" class="edge">
<title>ua_homomorphism_hom_compose&#45;&gt;ua_homomorphism_def_hom</title>
<path fill="none" stroke="#000000" d="M2074,-886.8338C2074,-844.7988 2074,-762.8831 2074,-719.5794"/>
<polygon fill="#000000" stroke="#000000" points="2077.5001,-719.4496 2074,-709.4496 2070.5001,-719.4496 2077.5001,-719.4496"/>
</g>
<!-- ua_homomorphism_BuildHomomorphism -->
<g id="node33" class="node">
<title>ua_homomorphism_BuildHomomorphism</title>
<g id="a_node33"><a xlink:href="ua_homomorphism.html#BuildHomomorphism" xlink:title="BuildHomomorphism">
<ellipse fill="#7faaff" stroke="#000000" cx="2495" cy="-469.1719" rx="109.6807" ry="18"/>
<text text-anchor="middle" x="2495" y="-465.4719" font-family="Times,serif" font-size="14.00" fill="#000000">BuildHomomorphism</text>
</a>
</g>
</g>
<!-- ua_homomorphism_hom_compose&#45;&gt;ua_homomorphism_BuildHomomorphism -->
<g id="edge8" class="edge">
<title>ua_homomorphism_hom_compose&#45;&gt;ua_homomorphism_BuildHomomorphism</title>
<path fill="none" stroke="#000000" d="M2155.0258,-905.4967C2338.6334,-886.2586 2777.2708,-829.2923 2865,-717.1719 2956.3536,-600.4192 2703.4082,-519.4561 2570.5851,-486.1514"/>
<polygon fill="#000000" stroke="#000000" points="2571.3944,-482.7462 2560.8463,-483.7408 2569.7124,-489.5411 2571.3944,-482.7462"/>
</g>
<!-- ua_homomorphism_is_isomorphism_compose -->
<g id="node6" class="node">
<title>ua_homomorphism_is_isomorphism_compose</title>
<g id="a_node6"><a xlink:href="ua_homomorphism.html#is_isomorphism_compose" xlink:title="is_isomorphism_compose">
<ellipse fill="#f070d1" stroke="#000000" cx="619" cy="-913.1719" rx="129.1866" ry="18"/>
<ellipse fill="none" stroke="#000000" cx="619" cy="-913.1719" rx="133.1819" ry="22"/>
<ellipse fill="none" stroke="#000000" cx="619" cy="-913.1719" rx="137.1772" ry="26"/>
<text text-anchor="middle" x="619" y="-909.4719" font-family="Times,serif" font-size="14.00" fill="#000000">is_isomorphism_compose</text>
</a>
</g>
</g>
<!-- ua_homomorphism_is_isomorphism_compose&#45;&gt;ua_homomorphism_is_homomorphism_compose -->
<g id="edge9" class="edge">
<title>ua_homomorphism_is_isomorphism_compose&#45;&gt;ua_homomorphism_is_homomorphism_compose</title>
<path fill="none" stroke="#000000" d="M594.966,-887.2712C555.1998,-844.4163 476.1876,-759.2673 436.6654,-716.6754"/>
<polygon fill="#000000" stroke="#000000" points="439.1313,-714.1872 429.7637,-709.2376 434.0001,-718.9486 439.1313,-714.1872"/>
</g>
<!-- ua_homomorphism_isequiv_isomorphism -->
<g id="node19" class="node">
<title>ua_homomorphism_isequiv_isomorphism</title>
<g id="a_node19"><a xlink:href="ua_homomorphism.html#isequiv_isomorphism" xlink:title="isequiv_isomorphism">
<ellipse fill="#f070d1" stroke="#000000" cx="145" cy="-691.1719" rx="108.5808" ry="18"/>
<text text-anchor="middle" x="145" y="-687.4719" font-family="Times,serif" font-size="14.00" fill="#000000">isequiv_isomorphism</text>
</a>
</g>
</g>
<!-- ua_homomorphism_is_isomorphism_compose&#45;&gt;ua_homomorphism_isequiv_isomorphism -->
<g id="edge10" class="edge">
<title>ua_homomorphism_is_isomorphism_compose&#45;&gt;ua_homomorphism_isequiv_isomorphism</title>
<path fill="none" stroke="#000000" d="M567.3714,-888.9914C474.1899,-845.3494 279.3672,-754.1033 190.7008,-712.576"/>
<polygon fill="#000000" stroke="#000000" points="191.9819,-709.3112 181.4414,-708.2393 189.0128,-715.6504 191.9819,-709.3112"/>
</g>
<!-- ua_homomorphism_oppreserving_compose -->
<g id="node8" class="node">
<title>ua_homomorphism_oppreserving_compose</title>
<g id="a_node8"><a xlink:href="ua_homomorphism.html#oppreserving_compose" xlink:title="oppreserving_compose">
<ellipse fill="#f070d1" stroke="#000000" cx="487" cy="-469.1719" rx="118.0794" ry="18"/>
<text text-anchor="middle" x="487" y="-465.4719" font-family="Times,serif" font-size="14.00" fill="#000000">oppreserving_compose</text>
</a>
</g>
</g>
<!-- ua_homomorphism_is_homomorphism_compose&#45;&gt;ua_homomorphism_oppreserving_compose -->
<g id="edge11" class="edge">
<title>ua_homomorphism_is_homomorphism_compose&#45;&gt;ua_homomorphism_oppreserving_compose</title>
<path fill="none" stroke="#000000" d="M419.0557,-673.0047C431.9885,-634.2064 462.3766,-543.042 477.7484,-496.9267"/>
<polygon fill="#000000" stroke="#000000" points="481.1224,-497.8724 480.9644,-487.2787 474.4816,-495.6587 481.1224,-497.8724"/>
</g>
<!-- ua_homomorphism_IsHomomorphism -->
<g id="node37" class="node">
<title>ua_homomorphism_IsHomomorphism</title>
<g id="a_node37"><a xlink:href="ua_homomorphism.html#IsHomomorphism" xlink:title="IsHomomorphism">
<ellipse fill="#f070d1" stroke="#000000" cx="1553" cy="-267.1719" rx="94.4839" ry="18"/>
<text text-anchor="middle" x="1553" y="-263.4719" font-family="Times,serif" font-size="14.00" fill="#000000">IsHomomorphism</text>
</a>
</g>
</g>
<!-- ua_homomorphism_oppreserving_compose&#45;&gt;ua_homomorphism_IsHomomorphism -->
<g id="edge12" class="edge">
<title>ua_homomorphism_oppreserving_compose&#45;&gt;ua_homomorphism_IsHomomorphism</title>
<path fill="none" stroke="#000000" d="M561.1127,-455.128C755.4501,-418.3023 1278.3367,-319.2187 1475.9455,-281.7732"/>
<polygon fill="#000000" stroke="#000000" points="1476.7811,-285.1772 1485.9546,-279.8765 1475.4777,-278.2996 1476.7811,-285.1772"/>
</g>
<!-- ua_homomorphism_hom_inv -->
<g id="node9" class="node">
<title>ua_homomorphism_hom_inv</title>
<g id="a_node9"><a xlink:href="ua_homomorphism.html#hom_inv" xlink:title="hom_inv">
<ellipse fill="#f070d1" stroke="#000000" cx="1460" cy="-1134.1719" rx="50.0849" ry="18"/>
<ellipse fill="none" stroke="#000000" cx="1460" cy="-1134.1719" rx="54.088" ry="22"/>
<ellipse fill="none" stroke="#000000" cx="1460" cy="-1134.1719" rx="58.0912" ry="26"/>
<text text-anchor="middle" x="1460" y="-1130.4719" font-family="Times,serif" font-size="14.00" fill="#000000">hom_inv</text>
</a>
</g>
</g>
<!-- ua_homomorphism_is_homomorphism_inv -->
<g id="node11" class="node">
<title>ua_homomorphism_is_homomorphism_inv</title>
<g id="a_node11"><a xlink:href="ua_homomorphism.html#is_homomorphism_inv" xlink:title="is_homomorphism_inv">
<ellipse fill="#f070d1" stroke="#000000" cx="130" cy="-913.1719" rx="114.2798" ry="18"/>
<text text-anchor="middle" x="130" y="-909.4719" font-family="Times,serif" font-size="14.00" fill="#000000">is_homomorphism_inv</text>
</a>
</g>
</g>
<!-- ua_homomorphism_hom_inv&#45;&gt;ua_homomorphism_is_homomorphism_inv -->
<g id="edge13" class="edge">
<title>ua_homomorphism_hom_inv&#45;&gt;ua_homomorphism_is_homomorphism_inv</title>
<path fill="none" stroke="#000000" d="M1404.4944,-1126.1768C1232.8203,-1101.2407 695.3869,-1021.6142 253,-939.1719 237.951,-936.3674 221.9156,-933.148 206.5638,-929.9516"/>
<polygon fill="#000000" stroke="#000000" points="207.0972,-926.4873 196.5915,-927.859 205.6595,-933.3381 207.0972,-926.4873"/>
</g>
<!-- ua_homomorphism_hom_inv&#45;&gt;ua_homomorphism_BuildHomomorphism -->
<g id="edge14" class="edge">
<title>ua_homomorphism_hom_inv&#45;&gt;ua_homomorphism_BuildHomomorphism</title>
<path fill="none" stroke="#000000" d="M1518.1527,-1132.2855C1777.6805,-1123.127 2830.2465,-1077.9291 3125,-939.1719 3254.121,-878.3872 3300.9376,-848.4122 3357,-717.1719 3366.0788,-695.9186 3371.417,-683.2349 3357,-665.1719 3350.7485,-657.3394 2780.4214,-531.714 2571.0059,-485.8043"/>
<polygon fill="#000000" stroke="#000000" points="2571.5289,-482.336 2561.0115,-483.6137 2570.0302,-489.1737 2571.5289,-482.336"/>
</g>
<!-- ua_homomorphism_Homomorphism -->
<g id="node34" class="node">
<title>ua_homomorphism_Homomorphism</title>
<g id="a_node34"><a xlink:href="ua_homomorphism.html#Homomorphism" xlink:title="Homomorphism">
<ellipse fill="#e2cdfa" stroke="#000000" cx="2074" cy="-469.1719" rx="85.2851" ry="18"/>
<text text-anchor="middle" x="2074" y="-465.4719" font-family="Times,serif" font-size="14.00" fill="#000000">Homomorphism</text>
</a>
</g>
</g>
<!-- ua_homomorphism_hom_inv&#45;&gt;ua_homomorphism_Homomorphism -->
<g id="edge15" class="edge">
<title>ua_homomorphism_hom_inv&#45;&gt;ua_homomorphism_Homomorphism</title>
<path fill="none" stroke="#000000" d="M1458.8181,-1107.9514C1454.836,-1014.4034 1443.5833,-700.714 1470,-665.1719 1534.1256,-578.8943 1851.0689,-510.3236 1998.4264,-482.5512"/>
<polygon fill="#000000" stroke="#000000" points="1999.1246,-485.9814 2008.3102,-480.7017 1997.837,-479.1008 1999.1246,-485.9814"/>
</g>
<!-- ua_homomorphism_is_isomorphism_inv -->
<g id="node10" class="node">
<title>ua_homomorphism_is_isomorphism_inv</title>
<g id="a_node10"><a xlink:href="ua_homomorphism.html#is_isomorphism_inv" xlink:title="is_isomorphism_inv">
<ellipse fill="#f070d1" stroke="#000000" cx="130" cy="-1134.1719" rx="102.8683" ry="18"/>
<ellipse fill="none" stroke="#000000" cx="130" cy="-1134.1719" rx="106.8752" ry="22"/>
<ellipse fill="none" stroke="#000000" cx="130" cy="-1134.1719" rx="110.8821" ry="26"/>
<text text-anchor="middle" x="130" y="-1130.4719" font-family="Times,serif" font-size="14.00" fill="#000000">is_isomorphism_inv</text>
</a>
</g>
</g>
<!-- ua_homomorphism_is_isomorphism_inv&#45;&gt;ua_homomorphism_is_homomorphism_inv -->
<g id="edge16" class="edge">
<title>ua_homomorphism_is_isomorphism_inv&#45;&gt;ua_homomorphism_is_homomorphism_inv</title>
<path fill="none" stroke="#000000" d="M130,-1107.9524C130,-1066.1068 130,-984.5601 130,-941.4514"/>
<polygon fill="#000000" stroke="#000000" points="133.5001,-941.3672 130,-931.3673 126.5001,-941.3673 133.5001,-941.3672"/>
</g>
<!-- ua_homomorphism_is_homomorphism_inv&#45;&gt;ua_homomorphism_isequiv_isomorphism -->
<g id="edge17" class="edge">
<title>ua_homomorphism_is_homomorphism_inv&#45;&gt;ua_homomorphism_isequiv_isomorphism</title>
<path fill="none" stroke="#000000" d="M131.2275,-895.0047C133.838,-856.3694 139.9571,-765.8071 143.0852,-719.5103"/>
<polygon fill="#000000" stroke="#000000" points="146.5944,-719.492 143.7766,-709.2787 139.6103,-719.02 146.5944,-719.492"/>
</g>
<!-- ua_homomorphism_oppreserving_hom -->
<g id="node36" class="node">
<title>ua_homomorphism_oppreserving_hom</title>
<g id="a_node36"><a xlink:href="ua_homomorphism.html#oppreserving_hom" xlink:title="oppreserving_hom">
<ellipse fill="#f070d1" stroke="#000000" cx="221" cy="-469.1719" rx="96.6831" ry="18"/>
<text text-anchor="middle" x="221" y="-465.4719" font-family="Times,serif" font-size="14.00" fill="#000000">oppreserving_hom</text>
</a>
</g>
</g>
<!-- ua_homomorphism_is_homomorphism_inv&#45;&gt;ua_homomorphism_oppreserving_hom -->
<g id="edge18" class="edge">
<title>ua_homomorphism_is_homomorphism_inv&#45;&gt;ua_homomorphism_oppreserving_hom</title>
<path fill="none" stroke="#000000" d="M112.2795,-895.1418C74.3519,-854.2673 -8.4614,-751.408 27,-665.1719 58.8834,-587.6369 137.9124,-524.471 184.6764,-492.2918"/>
<polygon fill="#000000" stroke="#000000" points="186.6953,-495.1517 193.0141,-486.6474 182.7711,-489.3551 186.6953,-495.1517"/>
</g>
<!-- ua_homomorphism_hom_id -->
<g id="node12" class="node">
<title>ua_homomorphism_hom_id</title>
<g id="a_node12"><a xlink:href="ua_homomorphism.html#hom_id" xlink:title="hom_id">
<ellipse fill="#f070d1" stroke="#000000" cx="1389" cy="-691.1719" rx="44.3627" ry="18"/>
<ellipse fill="none" stroke="#000000" cx="1389" cy="-691.1719" rx="48.3778" ry="22"/>
<ellipse fill="none" stroke="#000000" cx="1389" cy="-691.1719" rx="52.3929" ry="26"/>
<text text-anchor="middle" x="1389" y="-687.4719" font-family="Times,serif" font-size="14.00" fill="#000000">hom_id</text>
</a>
</g>
</g>
<!-- ua_homomorphism_is_homomorphism_id -->
<g id="node14" class="node">
<title>ua_homomorphism_is_homomorphism_id</title>
<g id="a_node14"><a xlink:href="ua_homomorphism.html#is_homomorphism_id" xlink:title="is_homomorphism_id">
<ellipse fill="#f070d1" stroke="#000000" cx="1389" cy="-469.1719" rx="109.381" ry="18"/>
<text text-anchor="middle" x="1389" y="-465.4719" font-family="Times,serif" font-size="14.00" fill="#000000">is_homomorphism_id</text>
</a>
</g>
</g>
<!-- ua_homomorphism_hom_id&#45;&gt;ua_homomorphism_is_homomorphism_id -->
<g id="edge19" class="edge">
<title>ua_homomorphism_hom_id&#45;&gt;ua_homomorphism_is_homomorphism_id</title>
<path fill="none" stroke="#000000" d="M1389,-664.8338C1389,-622.7988 1389,-540.8831 1389,-497.5794"/>
<polygon fill="#000000" stroke="#000000" points="1392.5001,-497.4496 1389,-487.4496 1385.5001,-497.4496 1392.5001,-497.4496"/>
</g>
<!-- ua_homomorphism_hom_id&#45;&gt;ua_homomorphism_BuildHomomorphism -->
<g id="edge20" class="edge">
<title>ua_homomorphism_hom_id&#45;&gt;ua_homomorphism_BuildHomomorphism</title>
<path fill="none" stroke="#000000" d="M1432.0155,-676.2918C1444.2065,-672.3681 1457.5495,-668.3479 1470,-665.1719 1810.5005,-578.3117 2223.424,-510.5603 2403.57,-482.8227"/>
<polygon fill="#000000" stroke="#000000" points="2404.1826,-486.2697 2413.5356,-481.2926 2403.1202,-479.3508 2404.1826,-486.2697"/>
</g>
<!-- ua_homomorphism_hom_id&#45;&gt;ua_homomorphism_Homomorphism -->
<g id="edge21" class="edge">
<title>ua_homomorphism_hom_id&#45;&gt;ua_homomorphism_Homomorphism</title>
<path fill="none" stroke="#000000" d="M1429.6754,-674.6431C1438.0131,-671.3977 1446.7594,-668.0958 1455,-665.1719 1658.1512,-593.09 1903.195,-519.3307 2014.189,-486.6209"/>
<polygon fill="#000000" stroke="#000000" points="2015.2625,-489.9534 2023.8676,-483.7726 2013.2862,-483.2382 2015.2625,-489.9534"/>
</g>
<!-- ua_homomorphism_is_isomorphism_id -->
<g id="node13" class="node">
<title>ua_homomorphism_is_isomorphism_id</title>
<g id="a_node13"><a xlink:href="ua_homomorphism.html#is_isomorphism_id" xlink:title="is_isomorphism_id">
<ellipse fill="#f070d1" stroke="#000000" cx="1214" cy="-691.1719" rx="96.6951" ry="18"/>
<ellipse fill="none" stroke="#000000" cx="1214" cy="-691.1719" rx="100.6891" ry="22"/>
<ellipse fill="none" stroke="#000000" cx="1214" cy="-691.1719" rx="104.6831" ry="26"/>
<text text-anchor="middle" x="1214" y="-687.4719" font-family="Times,serif" font-size="14.00" fill="#000000">is_isomorphism_id</text>
</a>
</g>
</g>
<!-- ua_homomorphism_is_isomorphism_id&#45;&gt;ua_homomorphism_is_homomorphism_id -->
<g id="edge22" class="edge">
<title>ua_homomorphism_is_isomorphism_id&#45;&gt;ua_homomorphism_is_homomorphism_id</title>
<path fill="none" stroke="#000000" d="M1234.4172,-665.2712C1268.059,-622.5941 1334.7647,-537.9732 1368.4762,-495.2078"/>
<polygon fill="#000000" stroke="#000000" points="1371.3169,-497.2577 1374.759,-487.2376 1365.8196,-492.9242 1371.3169,-497.2577"/>
</g>
<!-- ua_homomorphism_IsIsomorphism -->
<g id="node20" class="node">
<title>ua_homomorphism_IsIsomorphism</title>
<g id="a_node20"><a xlink:href="ua_homomorphism.html#IsIsomorphism" xlink:title="IsIsomorphism">
<ellipse fill="#f070d1" stroke="#000000" cx="1074" cy="-469.1719" rx="80.6858" ry="18"/>
<text text-anchor="middle" x="1074" y="-465.4719" font-family="Times,serif" font-size="14.00" fill="#000000">IsIsomorphism</text>
</a>
</g>
</g>
<!-- ua_homomorphism_is_isomorphism_id&#45;&gt;ua_homomorphism_IsIsomorphism -->
<g id="edge23" class="edge">
<title>ua_homomorphism_is_isomorphism_id&#45;&gt;ua_homomorphism_IsIsomorphism</title>
<path fill="none" stroke="#000000" d="M1197.6662,-665.2712C1170.8649,-622.772 1117.8325,-538.6776 1090.7575,-495.7445"/>
<polygon fill="#000000" stroke="#000000" points="1093.6875,-493.8291 1085.3928,-487.2376 1087.7666,-497.5631 1093.6875,-493.8291"/>
</g>
<!-- ua_homomorphism_is_homomorphism_id&#45;&gt;ua_homomorphism_IsHomomorphism -->
<g id="edge24" class="edge">
<title>ua_homomorphism_is_homomorphism_id&#45;&gt;ua_homomorphism_IsHomomorphism</title>
<path fill="none" stroke="#000000" d="M1403.5539,-451.2457C1432.6698,-415.3834 1498.1859,-334.6867 1531.9703,-293.0743"/>
<polygon fill="#000000" stroke="#000000" points="1534.8929,-295.0274 1538.4787,-285.0578 1529.4584,-290.6153 1534.8929,-295.0274"/>
</g>
<!-- ua_homomorphism_path_homomorphism_ap_operation -->
<g id="node15" class="node">
<title>ua_homomorphism_path_homomorphism_ap_operation</title>
<g id="a_node15"><a xlink:href="ua_homomorphism.html#path_homomorphism_ap_operation" xlink:title="path_homomorphism_ap_operation">
<ellipse fill="#f070d1" stroke="#000000" cx="3025" cy="-469.1719" rx="174.3612" ry="18"/>
<ellipse fill="none" stroke="#000000" cx="3025" cy="-469.1719" rx="178.3652" ry="22"/>
<ellipse fill="none" stroke="#000000" cx="3025" cy="-469.1719" rx="182.3693" ry="26"/>
<text text-anchor="middle" x="3025" y="-465.4719" font-family="Times,serif" font-size="14.00" fill="#000000">path_homomorphism_ap_operation</text>
</a>
</g>
</g>
<!-- ua_homomorphism_path_oppreserving_ap_operation -->
<g id="node16" class="node">
<title>ua_homomorphism_path_oppreserving_ap_operation</title>
<g id="a_node16"><a xlink:href="ua_homomorphism.html#path_oppreserving_ap_operation" xlink:title="path_oppreserving_ap_operation">
<ellipse fill="#f070d1" stroke="#000000" cx="2483" cy="-267.1719" rx="163.2712" ry="18"/>
<text text-anchor="middle" x="2483" y="-263.4719" font-family="Times,serif" font-size="14.00" fill="#000000">path_oppreserving_ap_operation</text>
</a>
</g>
</g>
<!-- ua_homomorphism_path_homomorphism_ap_operation&#45;&gt;ua_homomorphism_path_oppreserving_ap_operation -->
<g id="edge25" class="edge">
<title>ua_homomorphism_path_homomorphism_ap_operation&#45;&gt;ua_homomorphism_path_oppreserving_ap_operation</title>
<path fill="none" stroke="#000000" d="M2959.6221,-444.8059C2852.1566,-404.7542 2640.038,-325.6989 2539.0241,-288.0517"/>
<polygon fill="#000000" stroke="#000000" points="2540.1953,-284.7531 2529.6026,-284.5404 2537.7507,-291.3123 2540.1953,-284.7531"/>
</g>
<!-- ua_homomorphism_path_homomorphism_ap_operation&#45;&gt;ua_homomorphism_IsHomomorphism -->
<g id="edge26" class="edge">
<title>ua_homomorphism_path_homomorphism_ap_operation&#45;&gt;ua_homomorphism_IsHomomorphism</title>
<path fill="none" stroke="#000000" d="M2893.3987,-451.1124C2597.6291,-410.5245 1886.9044,-312.993 1639.5891,-279.0543"/>
<polygon fill="#000000" stroke="#000000" points="1639.9572,-275.5721 1629.5742,-277.68 1639.0055,-282.5071 1639.9572,-275.5721"/>
</g>
<!-- ua_homomorphism_path_oppreserving_ap_operation&#45;&gt;ua_homomorphism_OpPreserving -->
<g id="edge27" class="edge">
<title>ua_homomorphism_path_oppreserving_ap_operation&#45;&gt;ua_homomorphism_OpPreserving</title>
<path fill="none" stroke="#000000" d="M2438.4138,-249.8168C2351.0131,-215.7963 2157.7939,-140.5862 2066.975,-105.2353"/>
<polygon fill="#000000" stroke="#000000" points="2068.0539,-101.8995 2057.4654,-101.5337 2065.5147,-108.4227 2068.0539,-101.8995"/>
</g>
<!-- ua_homomorphism_hprop_is_isomorphism -->
<g id="node17" class="node">
<title>ua_homomorphism_hprop_is_isomorphism</title>
<g id="a_node17"><a xlink:href="ua_homomorphism.html#hprop_is_isomorphism" xlink:title="hprop_is_isomorphism">
<ellipse fill="#f070d1" stroke="#000000" cx="967" cy="-691.1719" rx="115.8675" ry="18"/>
<ellipse fill="none" stroke="#000000" cx="967" cy="-691.1719" rx="119.8736" ry="22"/>
<ellipse fill="none" stroke="#000000" cx="967" cy="-691.1719" rx="123.8798" ry="26"/>
<text text-anchor="middle" x="967" y="-687.4719" font-family="Times,serif" font-size="14.00" fill="#000000">hprop_is_isomorphism</text>
</a>
</g>
</g>
<!-- ua_homomorphism_hprop_is_isomorphism&#45;&gt;ua_homomorphism_IsIsomorphism -->
<g id="edge28" class="edge">
<title>ua_homomorphism_hprop_is_isomorphism&#45;&gt;ua_homomorphism_IsIsomorphism</title>
<path fill="none" stroke="#000000" d="M979.4837,-665.2712C999.8818,-622.9498 1040.1606,-539.3806 1060.9317,-496.2856"/>
<polygon fill="#000000" stroke="#000000" points="1064.1037,-497.7655 1065.2926,-487.2376 1057.7979,-494.7262 1064.1037,-497.7655"/>
</g>
<!-- ua_homomorphism_equiv_isomorphism&#45;&gt;ua_homomorphism_isequiv_isomorphism -->
<g id="edge29" class="edge">
<title>ua_homomorphism_equiv_isomorphism&#45;&gt;ua_homomorphism_isequiv_isomorphism</title>
<path fill="none" stroke="#000000" d="M345.5287,-895.3799C306.9423,-856.0855 214.3492,-761.7935 169.7866,-716.4132"/>
<polygon fill="#000000" stroke="#000000" points="172.0584,-713.7313 162.5546,-709.0485 167.0638,-718.6359 172.0584,-713.7313"/>
</g>
<!-- ua_homomorphism_isequiv_isomorphism&#45;&gt;ua_homomorphism_IsIsomorphism -->
<g id="edge30" class="edge">
<title>ua_homomorphism_isequiv_isomorphism&#45;&gt;ua_homomorphism_IsIsomorphism</title>
<path fill="none" stroke="#000000" d="M207.0348,-676.3476C375.0362,-636.2009 837.6863,-525.6429 1009.0468,-484.6935"/>
<polygon fill="#000000" stroke="#000000" points="1010.0234,-488.0587 1018.9361,-482.3303 1008.3964,-481.2504 1010.0234,-488.0587"/>
</g>
<!-- ua_homomorphism_IsIsomorphism&#45;&gt;ua_homomorphism_IsHomomorphism -->
<g id="edge31" class="edge">
<title>ua_homomorphism_IsIsomorphism&#45;&gt;ua_homomorphism_IsHomomorphism</title>
<path fill="none" stroke="#000000" d="M1111.9867,-453.1524C1198.3073,-416.75 1409.1066,-327.8534 1504.5883,-287.5876"/>
<polygon fill="#000000" stroke="#000000" points="1506.1539,-290.726 1514.0081,-283.6152 1503.4339,-284.276 1506.1539,-290.726"/>
</g>
<!-- ua_homomorphism_path_hset_homomorphism -->
<g id="node21" class="node">
<title>ua_homomorphism_path_hset_homomorphism</title>
<g id="a_node21"><a xlink:href="ua_homomorphism.html#path_hset_homomorphism" xlink:title="path_hset_homomorphism">
<ellipse fill="#f070d1" stroke="#000000" cx="1725" cy="-913.1719" rx="133.7826" ry="18"/>
<ellipse fill="none" stroke="#000000" cx="1725" cy="-913.1719" rx="137.7795" ry="22"/>
<ellipse fill="none" stroke="#000000" cx="1725" cy="-913.1719" rx="141.7763" ry="26"/>
<text text-anchor="middle" x="1725" y="-909.4719" font-family="Times,serif" font-size="14.00" fill="#000000">path_hset_homomorphism</text>
</a>
</g>
</g>
<!-- ua_homomorphism_path_homomorphism -->
<g id="node22" class="node">
<title>ua_homomorphism_path_homomorphism</title>
<g id="a_node22"><a xlink:href="ua_homomorphism.html#path_homomorphism" xlink:title="path_homomorphism">
<ellipse fill="#f070d1" stroke="#000000" cx="2251" cy="-691.1719" rx="108.5808" ry="18"/>
<text text-anchor="middle" x="2251" y="-687.4719" font-family="Times,serif" font-size="14.00" fill="#000000">path_homomorphism</text>
</a>
</g>
</g>
<!-- ua_homomorphism_path_hset_homomorphism&#45;&gt;ua_homomorphism_path_homomorphism -->
<g id="edge32" class="edge">
<title>ua_homomorphism_path_hset_homomorphism&#45;&gt;ua_homomorphism_path_homomorphism</title>
<path fill="none" stroke="#000000" d="M1781.5409,-889.3086C1885.1546,-845.5781 2103.7998,-753.2982 2201.7387,-711.9628"/>
<polygon fill="#000000" stroke="#000000" points="2203.2603,-715.1196 2211.1124,-708.0065 2200.5384,-708.6704 2203.2603,-715.1196"/>
</g>
<!-- ua_homomorphism_trunc_is_homomorphism -->
<g id="node35" class="node">
<title>ua_homomorphism_trunc_is_homomorphism</title>
<g id="a_node35"><a xlink:href="ua_homomorphism.html#trunc_is_homomorphism" xlink:title="trunc_is_homomorphism">
<ellipse fill="#f070d1" stroke="#000000" cx="699" cy="-691.1719" rx="126.1777" ry="18"/>
<text text-anchor="middle" x="699" y="-687.4719" font-family="Times,serif" font-size="14.00" fill="#000000">trunc_is_homomorphism</text>
</a>
</g>
</g>
<!-- ua_homomorphism_path_hset_homomorphism&#45;&gt;ua_homomorphism_trunc_is_homomorphism -->
<g id="edge33" class="edge">
<title>ua_homomorphism_path_hset_homomorphism&#45;&gt;ua_homomorphism_trunc_is_homomorphism</title>
<path fill="none" stroke="#000000" d="M1633.0464,-893.2755C1433.9401,-850.194 965.8051,-748.9016 778.5055,-708.3748"/>
<polygon fill="#000000" stroke="#000000" points="778.9699,-704.8943 768.4558,-706.2003 777.4894,-711.736 778.9699,-704.8943"/>
</g>
<!-- ua_homomorphism_path_homomorphism&#45;&gt;ua_homomorphism_BuildHomomorphism -->
<g id="edge34" class="edge">
<title>ua_homomorphism_path_homomorphism&#45;&gt;ua_homomorphism_BuildHomomorphism</title>
<path fill="none" stroke="#000000" d="M2270.5551,-673.3799C2313.922,-633.9232 2418.2373,-539.0133 2467.8728,-493.8532"/>
<polygon fill="#000000" stroke="#000000" points="2470.3105,-496.3671 2475.3518,-487.0485 2465.5997,-491.1894 2470.3105,-496.3671"/>
</g>
<!-- ua_homomorphism_path_homomorphism&#45;&gt;ua_homomorphism_Homomorphism -->
<g id="edge35" class="edge">
<title>ua_homomorphism_path_homomorphism&#45;&gt;ua_homomorphism_Homomorphism</title>
<path fill="none" stroke="#000000" d="M2236.5153,-673.0047C2205.1139,-633.6198 2130.6892,-540.2736 2094.4862,-494.8664"/>
<polygon fill="#000000" stroke="#000000" points="2097.1609,-492.6067 2088.1901,-486.9696 2091.6875,-496.9706 2097.1609,-492.6067"/>
</g>
<!-- ua_homomorphism_trunc_homomorphism -->
<g id="node23" class="node">
<title>ua_homomorphism_trunc_homomorphism</title>
<g id="a_node23"><a xlink:href="ua_homomorphism.html#trunc_homomorphism" xlink:title="trunc_homomorphism">
<ellipse fill="#f070d1" stroke="#000000" cx="2525" cy="-913.1719" rx="113.174" ry="18"/>
<ellipse fill="none" stroke="#000000" cx="2525" cy="-913.1719" rx="117.177" ry="22"/>
<ellipse fill="none" stroke="#000000" cx="2525" cy="-913.1719" rx="121.18" ry="26"/>
<text text-anchor="middle" x="2525" y="-909.4719" font-family="Times,serif" font-size="14.00" fill="#000000">trunc_homomorphism</text>
</a>
</g>
</g>
<!-- ua_homomorphism_issig_homomorphism -->
<g id="node24" class="node">
<title>ua_homomorphism_issig_homomorphism</title>
<g id="a_node24"><a xlink:href="ua_homomorphism.html#issig_homomorphism" xlink:title="issig_homomorphism">
<ellipse fill="#f070d1" stroke="#000000" cx="3239" cy="-691.1719" rx="109.381" ry="18"/>
<text text-anchor="middle" x="3239" y="-687.4719" font-family="Times,serif" font-size="14.00" fill="#000000">issig_homomorphism</text>
</a>
</g>
</g>
<!-- ua_homomorphism_trunc_homomorphism&#45;&gt;ua_homomorphism_issig_homomorphism -->
<g id="edge36" class="edge">
<title>ua_homomorphism_trunc_homomorphism&#45;&gt;ua_homomorphism_issig_homomorphism</title>
<path fill="none" stroke="#000000" d="M2594.1101,-891.6838C2733.4133,-848.3711 3045.8821,-751.2169 3178.0794,-710.1136"/>
<polygon fill="#000000" stroke="#000000" points="3179.15,-713.446 3187.6598,-707.1348 3177.0716,-706.7617 3179.15,-713.446"/>
</g>
<!-- ua_homomorphism_trunc_homomorphism&#45;&gt;ua_homomorphism_trunc_is_homomorphism -->
<g id="edge37" class="edge">
<title>ua_homomorphism_trunc_homomorphism&#45;&gt;ua_homomorphism_trunc_is_homomorphism</title>
<path fill="none" stroke="#000000" d="M2413.0663,-903.1224C2141.4989,-878.1051 1426.4096,-808.4201 834,-717.1719 816.7452,-714.5141 798.3296,-711.2526 780.8251,-707.9492"/>
<polygon fill="#000000" stroke="#000000" points="781.1188,-704.4421 770.6397,-706.0037 779.8054,-711.3178 781.1188,-704.4421"/>
</g>
<!-- ua_homomorphism_SigHomomorphism -->
<g id="node25" class="node">
<title>ua_homomorphism_SigHomomorphism</title>
<g id="a_node25"><a xlink:href="ua_homomorphism.html#SigHomomorphism" xlink:title="SigHomomorphism">
<ellipse fill="#f070d1" stroke="#000000" cx="2724" cy="-469.1719" rx="100.9827" ry="18"/>
<text text-anchor="middle" x="2724" y="-465.4719" font-family="Times,serif" font-size="14.00" fill="#000000">SigHomomorphism</text>
</a>
</g>
</g>
<!-- ua_homomorphism_issig_homomorphism&#45;&gt;ua_homomorphism_SigHomomorphism -->
<g id="edge38" class="edge">
<title>ua_homomorphism_issig_homomorphism&#45;&gt;ua_homomorphism_SigHomomorphism</title>
<path fill="none" stroke="#000000" d="M3199.8686,-674.3036C3106.977,-634.261 2873.3952,-533.5714 2772.1012,-489.9067"/>
<polygon fill="#000000" stroke="#000000" points="2773.2893,-486.6076 2762.7206,-485.8631 2770.5183,-493.0358 2773.2893,-486.6076"/>
</g>
<!-- ua_homomorphism_issig_homomorphism&#45;&gt;ua_homomorphism_BuildHomomorphism -->
<g id="edge39" class="edge">
<title>ua_homomorphism_issig_homomorphism&#45;&gt;ua_homomorphism_BuildHomomorphism</title>
<path fill="none" stroke="#000000" d="M3186.0898,-675.3841C3052.5199,-635.5286 2702.1106,-530.971 2558.1414,-488.0124"/>
<polygon fill="#000000" stroke="#000000" points="2558.7215,-484.5331 2548.1382,-485.0276 2556.7199,-491.2408 2558.7215,-484.5331"/>
</g>
<!-- ua_homomorphism_issig_homomorphism&#45;&gt;ua_homomorphism_Homomorphism -->
<g id="edge40" class="edge">
<title>ua_homomorphism_issig_homomorphism&#45;&gt;ua_homomorphism_Homomorphism</title>
<path fill="none" stroke="#000000" d="M3174.4674,-676.5641C3157.1284,-672.7455 3138.3692,-668.7103 3121,-665.1719 2758.1144,-591.246 2322.2713,-513.0389 2149.6812,-482.4871"/>
<polygon fill="#000000" stroke="#000000" points="2150.1399,-479.014 2139.6831,-480.7185 2148.9205,-485.907 2150.1399,-479.014"/>
</g>
<!-- ua_homomorphism_SigHomomorphism&#45;&gt;ua_homomorphism_IsHomomorphism -->
<g id="edge41" class="edge">
<title>ua_homomorphism_SigHomomorphism&#45;&gt;ua_homomorphism_IsHomomorphism</title>
<path fill="none" stroke="#000000" d="M2665.0759,-454.4678C2648.5961,-450.5672 2630.6418,-446.5149 2614,-443.1719 2253.5476,-370.7632 1819.9001,-305.6206 1638.8943,-279.4031"/>
<polygon fill="#000000" stroke="#000000" points="1639.2994,-275.9253 1628.9014,-277.9581 1638.2975,-282.8533 1639.2994,-275.9253"/>
</g>
<!-- ua_homomorphism_apD10_homomorphism -->
<g id="node26" class="node">
<title>ua_homomorphism_apD10_homomorphism</title>
<g id="a_node26"><a xlink:href="ua_homomorphism.html#apD10_homomorphism" xlink:title="apD10_homomorphism">
<ellipse fill="#f070d1" stroke="#000000" cx="1880" cy="-691.1719" rx="118.0927" ry="18"/>
<ellipse fill="none" stroke="#000000" cx="1880" cy="-691.1719" rx="122.086" ry="22"/>
<ellipse fill="none" stroke="#000000" cx="1880" cy="-691.1719" rx="126.0794" ry="26"/>
<text text-anchor="middle" x="1880" y="-687.4719" font-family="Times,serif" font-size="14.00" fill="#000000">apD10_homomorphism</text>
</a>
</g>
</g>
<!-- ua_homomorphism_apD10_homomorphism&#45;&gt;ua_homomorphism_Homomorphism -->
<g id="edge42" class="edge">
<title>ua_homomorphism_apD10_homomorphism&#45;&gt;ua_homomorphism_Homomorphism</title>
<path fill="none" stroke="#000000" d="M1902.6339,-665.2712C1940.0999,-622.3978 2014.5576,-537.1936 2051.7614,-494.6201"/>
<polygon fill="#000000" stroke="#000000" points="2054.5258,-496.7757 2058.4706,-486.9426 2049.2548,-492.1695 2054.5258,-496.7757"/>
</g>
<!-- ua_homomorphism_is_homomorphism_hom -->
<g id="node27" class="node">
<title>ua_homomorphism_is_homomorphism_hom</title>
<g id="a_node27"><a xlink:href="ua_homomorphism.html#is_homomorphism_hom" xlink:title="is_homomorphism_hom">
<ellipse fill="#f070d1" stroke="#000000" cx="1607" cy="-691.1719" rx="120.4642" ry="18"/>
<ellipse fill="none" stroke="#000000" cx="1607" cy="-691.1719" rx="124.4716" ry="22"/>
<ellipse fill="none" stroke="#000000" cx="1607" cy="-691.1719" rx="128.4791" ry="26"/>
<text text-anchor="middle" x="1607" y="-687.4719" font-family="Times,serif" font-size="14.00" fill="#000000">is_homomorphism_hom</text>
</a>
</g>
</g>
<!-- ua_homomorphism_is_homomorphism_hom&#45;&gt;ua_homomorphism_Homomorphism -->
<g id="edge43" class="edge">
<title>ua_homomorphism_is_homomorphism_hom&#45;&gt;ua_homomorphism_Homomorphism</title>
<path fill="none" stroke="#000000" d="M1657.4209,-667.203C1749.4688,-623.4458 1943.239,-531.3323 2030.1688,-490.0081"/>
<polygon fill="#000000" stroke="#000000" points="2031.7068,-493.1524 2039.2356,-485.698 2028.7015,-486.8303 2031.7068,-493.1524"/>
</g>
<!-- ua_homomorphism_def_hom&#45;&gt;ua_homomorphism_Homomorphism -->
<g id="edge44" class="edge">
<title>ua_homomorphism_def_hom&#45;&gt;ua_homomorphism_Homomorphism</title>
<path fill="none" stroke="#000000" d="M2074,-673.0047C2074,-634.3694 2074,-543.8071 2074,-497.5103"/>
<polygon fill="#000000" stroke="#000000" points="2077.5001,-497.2787 2074,-487.2787 2070.5001,-497.2788 2077.5001,-497.2787"/>
</g>
<!-- ua_homomorphism_Homomorphism_sind -->
<g id="node29" class="node">
<title>ua_homomorphism_Homomorphism_sind</title>
<g id="a_node29"><a xlink:href="ua_homomorphism.html#Homomorphism_sind" xlink:title="Homomorphism_sind">
<ellipse fill="#f070d1" stroke="#000000" cx="2495" cy="-691.1719" rx="109.6916" ry="18"/>
<ellipse fill="none" stroke="#000000" cx="2495" cy="-691.1719" rx="113.6861" ry="22"/>
<ellipse fill="none" stroke="#000000" cx="2495" cy="-691.1719" rx="117.6807" ry="26"/>
<text text-anchor="middle" x="2495" y="-687.4719" font-family="Times,serif" font-size="14.00" fill="#000000">Homomorphism_sind</text>
</a>
</g>
</g>
<!-- ua_homomorphism_Homomorphism_sind&#45;&gt;ua_homomorphism_BuildHomomorphism -->
<g id="edge45" class="edge">
<title>ua_homomorphism_Homomorphism_sind&#45;&gt;ua_homomorphism_BuildHomomorphism</title>
<path fill="none" stroke="#000000" d="M2495,-664.8338C2495,-622.7988 2495,-540.8831 2495,-497.5794"/>
<polygon fill="#000000" stroke="#000000" points="2498.5001,-497.4496 2495,-487.4496 2491.5001,-497.4496 2498.5001,-497.4496"/>
</g>
<!-- ua_homomorphism_Homomorphism_sind&#45;&gt;ua_homomorphism_Homomorphism -->
<g id="edge46" class="edge">
<title>ua_homomorphism_Homomorphism_sind&#45;&gt;ua_homomorphism_Homomorphism</title>
<path fill="none" stroke="#000000" d="M2449.1442,-666.9914C2366.512,-623.4181 2193.8876,-532.3905 2114.9634,-490.7725"/>
<polygon fill="#000000" stroke="#000000" points="2116.2934,-487.5171 2105.8153,-485.9486 2113.0283,-493.709 2116.2934,-487.5171"/>
</g>
<!-- ua_homomorphism_Homomorphism_rec -->
<g id="node30" class="node">
<title>ua_homomorphism_Homomorphism_rec</title>
<g id="a_node30"><a xlink:href="ua_homomorphism.html#Homomorphism_rec" xlink:title="Homomorphism_rec">
<ellipse fill="#f070d1" stroke="#000000" cx="3003" cy="-913.1719" rx="105.0965" ry="18"/>
<ellipse fill="none" stroke="#000000" cx="3003" cy="-913.1719" rx="109.0891" ry="22"/>
<ellipse fill="none" stroke="#000000" cx="3003" cy="-913.1719" rx="113.0817" ry="26"/>
<text text-anchor="middle" x="3003" y="-909.4719" font-family="Times,serif" font-size="14.00" fill="#000000">Homomorphism_rec</text>
</a>
</g>
</g>
<!-- ua_homomorphism_Homomorphism_rect -->
<g id="node32" class="node">
<title>ua_homomorphism_Homomorphism_rect</title>
<g id="a_node32"><a xlink:href="ua_homomorphism.html#Homomorphism_rect" xlink:title="Homomorphism_rect">
<ellipse fill="#f070d1" stroke="#000000" cx="3003" cy="-691.1719" rx="109.381" ry="18"/>
<text text-anchor="middle" x="3003" y="-687.4719" font-family="Times,serif" font-size="14.00" fill="#000000">Homomorphism_rect</text>
</a>
</g>
</g>
<!-- ua_homomorphism_Homomorphism_rec&#45;&gt;ua_homomorphism_Homomorphism_rect -->
<g id="edge47" class="edge">
<title>ua_homomorphism_Homomorphism_rec&#45;&gt;ua_homomorphism_Homomorphism_rect</title>
<path fill="none" stroke="#000000" d="M3003,-886.8338C3003,-844.7988 3003,-762.8831 3003,-719.5794"/>
<polygon fill="#000000" stroke="#000000" points="3006.5001,-719.4496 3003,-709.4496 2999.5001,-719.4496 3006.5001,-719.4496"/>
</g>
<!-- ua_homomorphism_Homomorphism_ind -->
<g id="node31" class="node">
<title>ua_homomorphism_Homomorphism_ind</title>
<g id="a_node31"><a xlink:href="ua_homomorphism.html#Homomorphism_ind" xlink:title="Homomorphism_ind">
<ellipse fill="#7fffd4" stroke="#000000" cx="2743" cy="-691.1719" rx="104.7716" ry="18"/>
<ellipse fill="none" stroke="#000000" cx="2743" cy="-691.1719" rx="108.7766" ry="22"/>
<ellipse fill="none" stroke="#000000" cx="2743" cy="-691.1719" rx="112.7816" ry="26"/>
<text text-anchor="middle" x="2743" y="-687.4719" font-family="Times,serif" font-size="14.00" fill="#000000">Homomorphism_ind</text>
</a>
</g>
</g>
<!-- ua_homomorphism_Homomorphism_ind&#45;&gt;ua_homomorphism_BuildHomomorphism -->
<g id="edge48" class="edge">
<title>ua_homomorphism_Homomorphism_ind&#45;&gt;ua_homomorphism_BuildHomomorphism</title>
<path fill="none" stroke="#000000" d="M2714.5512,-665.7056C2666.5628,-622.7482 2570.1289,-536.4244 2522.6702,-493.9412"/>
<polygon fill="#000000" stroke="#000000" points="2524.7295,-491.087 2514.9442,-487.0251 2520.0606,-496.3027 2524.7295,-491.087"/>
</g>
<!-- ua_homomorphism_Homomorphism_ind&#45;&gt;ua_homomorphism_Homomorphism -->
<g id="edge49" class="edge">
<title>ua_homomorphism_Homomorphism_ind&#45;&gt;ua_homomorphism_Homomorphism</title>
<path fill="none" stroke="#000000" d="M2678.5498,-669.7848C2547.6638,-626.3518 2252.7308,-528.4816 2129.624,-487.63"/>
<polygon fill="#000000" stroke="#000000" points="2130.6005,-484.2665 2120.007,-484.4388 2128.3958,-490.9102 2130.6005,-484.2665"/>
</g>
<!-- ua_homomorphism_Homomorphism_rect&#45;&gt;ua_homomorphism_BuildHomomorphism -->
<g id="edge50" class="edge">
<title>ua_homomorphism_Homomorphism_rect&#45;&gt;ua_homomorphism_BuildHomomorphism</title>
<path fill="none" stroke="#000000" d="M2964.4005,-674.3036C2872.9958,-634.359 2643.4918,-534.064 2543.1835,-490.2284"/>
<polygon fill="#000000" stroke="#000000" points="2544.4533,-486.9638 2533.8885,-486.1664 2541.6502,-493.378 2544.4533,-486.9638"/>
</g>
<!-- ua_homomorphism_Homomorphism_rect&#45;&gt;ua_homomorphism_Homomorphism -->
<g id="edge51" class="edge">
<title>ua_homomorphism_Homomorphism_rect&#45;&gt;ua_homomorphism_Homomorphism</title>
<path fill="none" stroke="#000000" d="M2940.9652,-676.3476C2773.4614,-636.3198 2313.0519,-526.2973 2140.4836,-485.0592"/>
<polygon fill="#000000" stroke="#000000" points="2141.0577,-481.5979 2130.518,-482.6778 2139.4307,-488.4062 2141.0577,-481.5979"/>
</g>
<!-- ua_homomorphism_BuildHomomorphism&#45;&gt;ua_homomorphism_IsHomomorphism -->
<g id="edge52" class="edge">
<title>ua_homomorphism_BuildHomomorphism&#45;&gt;ua_homomorphism_IsHomomorphism</title>
<path fill="none" stroke="#000000" d="M2428.0089,-454.8064C2256.688,-418.0689 1803.6172,-320.9135 1625.9522,-282.8155"/>
<polygon fill="#000000" stroke="#000000" points="1626.4324,-279.339 1615.9208,-280.6644 1624.9647,-286.1834 1626.4324,-279.339"/>
</g>
<!-- ua_homomorphism_Homomorphism&#45;&gt;ua_homomorphism_IsHomomorphism -->
<g id="edge53" class="edge">
<title>ua_homomorphism_Homomorphism&#45;&gt;ua_homomorphism_IsHomomorphism</title>
<path fill="none" stroke="#000000" d="M2033.118,-453.3213C1939.117,-416.8756 1707.7689,-327.1782 1604.3732,-287.09"/>
<polygon fill="#000000" stroke="#000000" points="1605.3645,-283.7206 1594.7755,-283.3689 1602.834,-290.2472 1605.3645,-283.7206"/>
</g>
<!-- ua_homomorphism_trunc_is_homomorphism&#45;&gt;ua_homomorphism_IsHomomorphism -->
<g id="edge54" class="edge">
<title>ua_homomorphism_trunc_is_homomorphism&#45;&gt;ua_homomorphism_IsHomomorphism</title>
<path fill="none" stroke="#000000" d="M714.7333,-673.0222C754.9834,-627.6798 866.8101,-508.4211 984,-443.1719 1145.1416,-353.451 1357.9571,-303.3154 1472.2126,-281.1588"/>
<polygon fill="#000000" stroke="#000000" points="1473.1217,-284.5483 1482.2842,-279.2288 1471.8042,-277.6734 1473.1217,-284.5483"/>
</g>
<!-- ua_homomorphism_trunc_oppreserving -->
<g id="node38" class="node">
<title>ua_homomorphism_trunc_oppreserving</title>
<g id="a_node38"><a xlink:href="ua_homomorphism.html#trunc_oppreserving" xlink:title="trunc_oppreserving">
<ellipse fill="#f070d1" stroke="#000000" cx="1101" cy="-267.1719" rx="102.8821" ry="18"/>
<text text-anchor="middle" x="1101" y="-263.4719" font-family="Times,serif" font-size="14.00" fill="#000000">trunc_oppreserving</text>
</a>
</g>
</g>
<!-- ua_homomorphism_trunc_is_homomorphism&#45;&gt;ua_homomorphism_trunc_oppreserving -->
<g id="edge55" class="edge">
<title>ua_homomorphism_trunc_is_homomorphism&#45;&gt;ua_homomorphism_trunc_oppreserving</title>
<path fill="none" stroke="#000000" d="M709.6293,-673.0622C735.2487,-630.2582 803.8017,-520.6276 878,-443.1719 937.617,-380.9375 1019.7448,-321.6628 1065.8772,-290.3027"/>
<polygon fill="#000000" stroke="#000000" points="1068.0032,-293.0904 1074.3325,-284.5939 1064.0862,-287.2889 1068.0032,-293.0904"/>
</g>
<!-- ua_homomorphism_oppreserving_hom&#45;&gt;ua_homomorphism_IsHomomorphism -->
<g id="edge56" class="edge">
<title>ua_homomorphism_oppreserving_hom&#45;&gt;ua_homomorphism_IsHomomorphism</title>
<path fill="none" stroke="#000000" d="M288.0726,-456.087C310.8675,-451.7837 336.5122,-447.0996 360,-443.1719 772.7772,-374.1451 1268.3313,-305.6046 1465.7028,-278.8791"/>
<polygon fill="#000000" stroke="#000000" points="1466.285,-282.3324 1475.7255,-277.5233 1465.3465,-275.3955 1466.285,-282.3324"/>
</g>
<!-- ua_homomorphism_IsHomomorphism&#45;&gt;ua_homomorphism_OpPreserving -->
<g id="edge57" class="edge">
<title>ua_homomorphism_IsHomomorphism&#45;&gt;ua_homomorphism_OpPreserving</title>
<path fill="none" stroke="#000000" d="M1594.6749,-250.95C1680.6873,-217.4699 1877.4754,-140.8707 1969.2292,-105.1558"/>
<polygon fill="#000000" stroke="#000000" points="1970.517,-108.4104 1978.5663,-101.5213 1967.9778,-101.8871 1970.517,-108.4104"/>
</g>
<!-- ua_homomorphism_trunc_oppreserving&#45;&gt;ua_homomorphism_OpPreserving -->
<g id="edge58" class="edge">
<title>ua_homomorphism_trunc_oppreserving&#45;&gt;ua_homomorphism_OpPreserving</title>
<path fill="none" stroke="#000000" d="M1169.549,-253.6415C1339.7541,-220.0459 1780.1347,-133.1224 1949.8824,-99.6171"/>
<polygon fill="#000000" stroke="#000000" points="1950.5673,-103.0495 1959.7002,-97.6792 1949.2117,-96.182 1950.5673,-103.0495"/>
</g>
</g>
</svg>
