<?xml version="1.0" encoding="UTF-8" standalone="no"?>
<!DOCTYPE svg PUBLIC "-//W3C//DTD SVG 1.1//EN"
 "http://www.w3.org/Graphics/SVG/1.1/DTD/svg11.dtd">
<!-- Generated by graphviz version 2.40.1 (20161225.0304)
 -->
<!-- Title: HoTT_Classes_orders_dec_fields Pages: 1 -->
<svg width="1490pt" height="749pt"
 viewBox="0.00 0.00 1490.00 749.00" xmlns="http://www.w3.org/2000/svg" xmlns:xlink="http://www.w3.org/1999/xlink">
<g id="graph0" class="graph" transform="scale(1 1) rotate(0) translate(4 745)">
<title>HoTT_Classes_orders_dec_fields</title>
<polygon fill="#ffffff" stroke="transparent" points="-4,4 -4,-745 1486,-745 1486,4 -4,4"/>
<g id="clust1" class="cluster">
<title>cluster_dec_fields</title>
<polygon fill="#ffffc3" stroke="#000000" points="8,-22.2022 8,-718.7978 1474,-718.7978 1474,-22.2022 8,-22.2022"/>
<text text-anchor="middle" x="52.5" y="-703.5978" font-family="Times,serif" font-size="14.00" fill="#000000">dec_fields</text>
</g>
<!-- dec_fields_flip_lt_dec_recip_r -->
<g id="node1" class="node">
<title>dec_fields_flip_lt_dec_recip_r</title>
<g id="a_node1"><a xlink:href="dec_fields.html#flip_lt_dec_recip_r" xlink:title="flip_lt_dec_recip_r">
<ellipse fill="#f070d1" stroke="#000000" cx="1361" cy="-316.2022" rx="96.6951" ry="18"/>
<ellipse fill="none" stroke="#000000" cx="1361" cy="-316.2022" rx="100.6891" ry="22"/>
<ellipse fill="none" stroke="#000000" cx="1361" cy="-316.2022" rx="104.6831" ry="26"/>
<text text-anchor="middle" x="1361" y="-312.5022" font-family="Times,serif" font-size="14.00" fill="#000000">flip_lt_dec_recip_r</text>
</a>
</g>
</g>
<!-- dec_fields_flip_lt_dec_recip -->
<g id="node3" class="node">
<title>dec_fields_flip_lt_dec_recip</title>
<g id="a_node3"><a xlink:href="dec_fields.html#flip_lt_dec_recip" xlink:title="flip_lt_dec_recip">
<ellipse fill="#f070d1" stroke="#000000" cx="1248" cy="-94.2022" rx="87.9851" ry="18"/>
<text text-anchor="middle" x="1248" y="-90.5022" font-family="Times,serif" font-size="14.00" fill="#000000">flip_lt_dec_recip</text>
</a>
</g>
</g>
<!-- dec_fields_flip_lt_dec_recip_r&#45;&gt;dec_fields_flip_lt_dec_recip -->
<g id="edge1" class="edge">
<title>dec_fields_flip_lt_dec_recip_r&#45;&gt;dec_fields_flip_lt_dec_recip</title>
<path fill="none" stroke="#000000" d="M1347.8163,-290.3015C1326.2743,-247.9802 1283.7369,-164.411 1261.8011,-121.316"/>
<polygon fill="#000000" stroke="#000000" points="1264.8511,-119.5922 1257.1956,-112.268 1258.6127,-122.7676 1264.8511,-119.5922"/>
</g>
<!-- dec_fields_flip_lt_dec_recip_l -->
<g id="node2" class="node">
<title>dec_fields_flip_lt_dec_recip_l</title>
<g id="a_node2"><a xlink:href="dec_fields.html#flip_lt_dec_recip_l" xlink:title="flip_lt_dec_recip_l">
<ellipse fill="#f070d1" stroke="#000000" cx="1135" cy="-316.2022" rx="95.5799" ry="18"/>
<ellipse fill="none" stroke="#000000" cx="1135" cy="-316.2022" rx="99.5815" ry="22"/>
<ellipse fill="none" stroke="#000000" cx="1135" cy="-316.2022" rx="103.5831" ry="26"/>
<text text-anchor="middle" x="1135" y="-312.5022" font-family="Times,serif" font-size="14.00" fill="#000000">flip_lt_dec_recip_l</text>
</a>
</g>
</g>
<!-- dec_fields_flip_lt_dec_recip_l&#45;&gt;dec_fields_flip_lt_dec_recip -->
<g id="edge2" class="edge">
<title>dec_fields_flip_lt_dec_recip_l&#45;&gt;dec_fields_flip_lt_dec_recip</title>
<path fill="none" stroke="#000000" d="M1148.1837,-290.3015C1169.7257,-247.9802 1212.2631,-164.411 1234.1989,-121.316"/>
<polygon fill="#000000" stroke="#000000" points="1237.3873,-122.7676 1238.8044,-112.268 1231.1489,-119.5922 1237.3873,-122.7676"/>
</g>
<!-- dec_fields_pos_dec_recip_compat -->
<g id="node10" class="node">
<title>dec_fields_pos_dec_recip_compat</title>
<g id="a_node10"><a xlink:href="dec_fields.html#pos_dec_recip_compat" xlink:title="pos_dec_recip_compat">
<ellipse fill="#f070d1" stroke="#000000" cx="494" cy="-94.2022" rx="116.1796" ry="18"/>
<text text-anchor="middle" x="494" y="-90.5022" font-family="Times,serif" font-size="14.00" fill="#000000">pos_dec_recip_compat</text>
</a>
</g>
</g>
<!-- dec_fields_flip_lt_dec_recip_l&#45;&gt;dec_fields_pos_dec_recip_compat -->
<g id="edge3" class="edge">
<title>dec_fields_flip_lt_dec_recip_l&#45;&gt;dec_fields_pos_dec_recip_compat</title>
<path fill="none" stroke="#000000" d="M1074.1184,-295.1169C950.5573,-252.3235 671.8802,-155.8082 551.3449,-114.0627"/>
<polygon fill="#000000" stroke="#000000" points="552.1559,-110.6397 541.5611,-110.6743 549.865,-117.2542 552.1559,-110.6397"/>
</g>
<!-- dec_fields_flip_le_dec_recip_r -->
<g id="node4" class="node">
<title>dec_fields_flip_le_dec_recip_r</title>
<g id="a_node4"><a xlink:href="dec_fields.html#flip_le_dec_recip_r" xlink:title="flip_le_dec_recip_r">
<ellipse fill="#f070d1" stroke="#000000" cx="907" cy="-316.2022" rx="98.5985" ry="18"/>
<ellipse fill="none" stroke="#000000" cx="907" cy="-316.2022" rx="102.5907" ry="22"/>
<ellipse fill="none" stroke="#000000" cx="907" cy="-316.2022" rx="106.5829" ry="26"/>
<text text-anchor="middle" x="907" y="-312.5022" font-family="Times,serif" font-size="14.00" fill="#000000">flip_le_dec_recip_r</text>
</a>
</g>
</g>
<!-- dec_fields_flip_le_dec_recip -->
<g id="node6" class="node">
<title>dec_fields_flip_le_dec_recip</title>
<g id="a_node6"><a xlink:href="dec_fields.html#flip_le_dec_recip" xlink:title="flip_le_dec_recip">
<ellipse fill="#f070d1" stroke="#000000" cx="792" cy="-94.2022" rx="89.0842" ry="18"/>
<text text-anchor="middle" x="792" y="-90.5022" font-family="Times,serif" font-size="14.00" fill="#000000">flip_le_dec_recip</text>
</a>
</g>
</g>
<!-- dec_fields_flip_le_dec_recip_r&#45;&gt;dec_fields_flip_le_dec_recip -->
<g id="edge4" class="edge">
<title>dec_fields_flip_le_dec_recip_r&#45;&gt;dec_fields_flip_le_dec_recip</title>
<path fill="none" stroke="#000000" d="M893.583,-290.3015C871.6597,-247.9802 828.3694,-164.411 806.0454,-121.316"/>
<polygon fill="#000000" stroke="#000000" points="809.0659,-119.5374 801.3584,-112.268 802.8503,-122.7572 809.0659,-119.5374"/>
</g>
<!-- dec_fields_flip_le_dec_recip_l -->
<g id="node5" class="node">
<title>dec_fields_flip_le_dec_recip_l</title>
<g id="a_node5"><a xlink:href="dec_fields.html#flip_le_dec_recip_l" xlink:title="flip_le_dec_recip_l">
<ellipse fill="#f070d1" stroke="#000000" cx="677" cy="-316.2022" rx="96.6951" ry="18"/>
<ellipse fill="none" stroke="#000000" cx="677" cy="-316.2022" rx="100.6891" ry="22"/>
<ellipse fill="none" stroke="#000000" cx="677" cy="-316.2022" rx="104.6831" ry="26"/>
<text text-anchor="middle" x="677" y="-312.5022" font-family="Times,serif" font-size="14.00" fill="#000000">flip_le_dec_recip_l</text>
</a>
</g>
</g>
<!-- dec_fields_flip_le_dec_recip_l&#45;&gt;dec_fields_flip_le_dec_recip -->
<g id="edge5" class="edge">
<title>dec_fields_flip_le_dec_recip_l&#45;&gt;dec_fields_flip_le_dec_recip</title>
<path fill="none" stroke="#000000" d="M690.417,-290.3015C712.3403,-247.9802 755.6306,-164.411 777.9546,-121.316"/>
<polygon fill="#000000" stroke="#000000" points="781.1497,-122.7572 782.6416,-112.268 774.9341,-119.5374 781.1497,-122.7572"/>
</g>
<!-- dec_fields_flip_le_dec_recip_l&#45;&gt;dec_fields_pos_dec_recip_compat -->
<g id="edge6" class="edge">
<title>dec_fields_flip_le_dec_recip_l&#45;&gt;dec_fields_pos_dec_recip_compat</title>
<path fill="none" stroke="#000000" d="M655.6494,-290.3015C620.4697,-247.6245 550.7146,-163.0036 515.462,-120.2381"/>
<polygon fill="#000000" stroke="#000000" points="517.9535,-117.758 508.892,-112.268 512.5521,-122.2105 517.9535,-117.758"/>
</g>
<!-- dec_fields_nonpos_dec_recip_compat -->
<g id="node7" class="node">
<title>dec_fields_nonpos_dec_recip_compat</title>
<g id="a_node7"><a xlink:href="dec_fields.html#nonpos_dec_recip_compat" xlink:title="nonpos_dec_recip_compat">
<ellipse fill="#f070d1" stroke="#000000" cx="420" cy="-560.2022" rx="133.7826" ry="18"/>
<ellipse fill="none" stroke="#000000" cx="420" cy="-560.2022" rx="137.7795" ry="22"/>
<ellipse fill="none" stroke="#000000" cx="420" cy="-560.2022" rx="141.7763" ry="26"/>
<text text-anchor="middle" x="420" y="-556.5022" font-family="Times,serif" font-size="14.00" fill="#000000">nonpos_dec_recip_compat</text>
</a>
</g>
</g>
<!-- dec_fields_nonneg_dec_recip_compat -->
<g id="node9" class="node">
<title>dec_fields_nonneg_dec_recip_compat</title>
<g id="a_node9"><a xlink:href="dec_fields.html#nonneg_dec_recip_compat" xlink:title="nonneg_dec_recip_compat">
<ellipse fill="#f070d1" stroke="#000000" cx="420" cy="-316.2022" rx="134.5761" ry="18"/>
<text text-anchor="middle" x="420" y="-312.5022" font-family="Times,serif" font-size="14.00" fill="#000000">nonneg_dec_recip_compat</text>
</a>
</g>
</g>
<!-- dec_fields_nonpos_dec_recip_compat&#45;&gt;dec_fields_nonneg_dec_recip_compat -->
<g id="edge7" class="edge">
<title>dec_fields_nonpos_dec_recip_compat&#45;&gt;dec_fields_nonneg_dec_recip_compat</title>
<path fill="none" stroke="#000000" d="M420,-534.09C420,-487.8974 420,-392.1608 420,-344.4727"/>
<polygon fill="#000000" stroke="#000000" points="423.5001,-344.2494 420,-334.2494 416.5001,-344.2495 423.5001,-344.2494"/>
</g>
<!-- dec_fields_neg_dec_recip_compat -->
<g id="node8" class="node">
<title>dec_fields_neg_dec_recip_compat</title>
<g id="a_node8"><a xlink:href="dec_fields.html#neg_dec_recip_compat" xlink:title="neg_dec_recip_compat">
<ellipse fill="#f070d1" stroke="#000000" cx="142" cy="-316.2022" rx="117.7704" ry="18"/>
<ellipse fill="none" stroke="#000000" cx="142" cy="-316.2022" rx="121.7748" ry="22"/>
<ellipse fill="none" stroke="#000000" cx="142" cy="-316.2022" rx="125.7793" ry="26"/>
<text text-anchor="middle" x="142" y="-312.5022" font-family="Times,serif" font-size="14.00" fill="#000000">neg_dec_recip_compat</text>
</a>
</g>
</g>
<!-- dec_fields_neg_dec_recip_compat&#45;&gt;dec_fields_pos_dec_recip_compat -->
<g id="edge8" class="edge">
<title>dec_fields_neg_dec_recip_compat&#45;&gt;dec_fields_pos_dec_recip_compat</title>
<path fill="none" stroke="#000000" d="M181.3543,-291.3822C250.0311,-248.069 390.7885,-159.2959 457.4478,-117.2551"/>
<polygon fill="#000000" stroke="#000000" points="459.3738,-120.1784 465.965,-111.8834 455.6396,-114.2575 459.3738,-120.1784"/>
</g>
<!-- dec_fields_nonneg_dec_recip_compat&#45;&gt;dec_fields_pos_dec_recip_compat -->
<g id="edge9" class="edge">
<title>dec_fields_nonneg_dec_recip_compat&#45;&gt;dec_fields_pos_dec_recip_compat</title>
<path fill="none" stroke="#000000" d="M426.0557,-298.0351C438.9885,-259.2368 469.3766,-168.0724 484.7484,-121.9571"/>
<polygon fill="#000000" stroke="#000000" points="488.1224,-122.9028 487.9644,-112.3091 481.4816,-120.6891 488.1224,-122.9028"/>
</g>
</g>
</svg>
