<?xml version="1.0" encoding="UTF-8" standalone="no"?>
<!DOCTYPE svg PUBLIC "-//W3C//DTD SVG 1.1//EN"
 "http://www.w3.org/Graphics/SVG/1.1/DTD/svg11.dtd">
<!-- Generated by graphviz version 2.40.1 (20161225.0304)
 -->
<!-- Title: HoTT_WildCat_Adjoint Pages: 1 -->
<svg width="3309pt" height="1659pt"
 viewBox="0.00 0.00 3309.00 1658.50" xmlns="http://www.w3.org/2000/svg" xmlns:xlink="http://www.w3.org/1999/xlink">
<g id="graph0" class="graph" transform="scale(1 1) rotate(0) translate(4 1654.5)">
<title>HoTT_WildCat_Adjoint</title>
<polygon fill="#ffffff" stroke="transparent" points="-4,4 -4,-1654.5 3305,-1654.5 3305,4 -4,4"/>
<g id="clust1" class="cluster">
<title>cluster_Adjoint</title>
<polygon fill="#ffffc3" stroke="#000000" points="8,-23.1243 8,-1627.3757 3293,-1627.3757 3293,-23.1243 8,-23.1243"/>
<text text-anchor="middle" x="42" y="-1612.1757" font-family="Times,serif" font-size="14.00" fill="#000000">Adjoint</text>
</g>
<!-- Adjoint_adjunction_natequiv_right -->
<g id="node1" class="node">
<title>Adjoint_adjunction_natequiv_right</title>
<g id="a_node1"><a xlink:href="Adjoint.html#adjunction_natequiv_right" xlink:title="adjunction_natequiv_right">
<ellipse fill="#f070d1" stroke="#000000" cx="1135" cy="-792.1243" rx="133.4632" ry="18"/>
<ellipse fill="none" stroke="#000000" cx="1135" cy="-792.1243" rx="137.47" ry="22"/>
<ellipse fill="none" stroke="#000000" cx="1135" cy="-792.1243" rx="141.4768" ry="26"/>
<text text-anchor="middle" x="1135" y="-788.4243" font-family="Times,serif" font-size="14.00" fill="#000000">adjunction_natequiv_right</text>
</a>
</g>
</g>
<!-- Adjoint_Build_Adjunction_natequiv_nat_left -->
<g id="node10" class="node">
<title>Adjoint_Build_Adjunction_natequiv_nat_left</title>
<g id="a_node10"><a xlink:href="Adjoint.html#Build_Adjunction_natequiv_nat_left" xlink:title="Build_Adjunction_natequiv_nat_left">
<ellipse fill="#f070d1" stroke="#000000" cx="783" cy="-538.1243" rx="176.5689" ry="18"/>
<text text-anchor="middle" x="783" y="-534.4243" font-family="Times,serif" font-size="14.00" fill="#000000">Build_Adjunction_natequiv_nat_left</text>
</a>
</g>
</g>
<!-- Adjoint_adjunction_natequiv_right&#45;&gt;Adjoint_Build_Adjunction_natequiv_nat_left -->
<g id="edge1" class="edge">
<title>Adjoint_adjunction_natequiv_right&#45;&gt;Adjoint_Build_Adjunction_natequiv_nat_left</title>
<path fill="none" stroke="#000000" d="M1099.962,-766.8412C1032.0614,-717.8448 883.3789,-610.5568 816.6203,-562.3844"/>
<polygon fill="#000000" stroke="#000000" points="818.2957,-559.2774 808.1384,-556.264 814.1996,-564.9538 818.2957,-559.2774"/>
</g>
<!-- Adjoint_natequiv_adjunction_r -->
<g id="node18" class="node">
<title>Adjoint_natequiv_adjunction_r</title>
<g id="a_node18"><a xlink:href="Adjoint.html#natequiv_adjunction_r" xlink:title="natequiv_adjunction_r">
<ellipse fill="#f070d1" stroke="#000000" cx="2044" cy="-538.1243" rx="114.2798" ry="18"/>
<text text-anchor="middle" x="2044" y="-534.4243" font-family="Times,serif" font-size="14.00" fill="#000000">natequiv_adjunction_r</text>
</a>
</g>
</g>
<!-- Adjoint_adjunction_natequiv_right&#45;&gt;Adjoint_natequiv_adjunction_r -->
<g id="edge2" class="edge">
<title>Adjoint_adjunction_natequiv_right&#45;&gt;Adjoint_natequiv_adjunction_r</title>
<path fill="none" stroke="#000000" d="M1212.8938,-770.3586C1388.7344,-721.2239 1813.8748,-602.4278 1977.9054,-556.593"/>
<polygon fill="#000000" stroke="#000000" points="1979.1712,-559.8735 1987.8604,-553.8113 1977.2874,-553.1317 1979.1712,-559.8735"/>
</g>
<!-- Adjoint_adjunction_natequiv_left -->
<g id="node2" class="node">
<title>Adjoint_adjunction_natequiv_left</title>
<g id="a_node2"><a xlink:href="Adjoint.html#adjunction_natequiv_left" xlink:title="adjunction_natequiv_left">
<ellipse fill="#f070d1" stroke="#000000" cx="2043" cy="-792.1243" rx="126.1724" ry="18"/>
<ellipse fill="none" stroke="#000000" cx="2043" cy="-792.1243" rx="130.175" ry="22"/>
<ellipse fill="none" stroke="#000000" cx="2043" cy="-792.1243" rx="134.1777" ry="26"/>
<text text-anchor="middle" x="2043" y="-788.4243" font-family="Times,serif" font-size="14.00" fill="#000000">adjunction_natequiv_left</text>
</a>
</g>
</g>
<!-- Adjoint_Build_Adjunction_natequiv_nat_right -->
<g id="node9" class="node">
<title>Adjoint_Build_Adjunction_natequiv_nat_right</title>
<g id="a_node9"><a xlink:href="Adjoint.html#Build_Adjunction_natequiv_nat_right" xlink:title="Build_Adjunction_natequiv_nat_right">
<ellipse fill="#f070d1" stroke="#000000" cx="1162" cy="-538.1243" rx="183.8674" ry="18"/>
<text text-anchor="middle" x="1162" y="-534.4243" font-family="Times,serif" font-size="14.00" fill="#000000">Build_Adjunction_natequiv_nat_right</text>
</a>
</g>
</g>
<!-- Adjoint_adjunction_natequiv_left&#45;&gt;Adjoint_Build_Adjunction_natequiv_nat_right -->
<g id="edge3" class="edge">
<title>Adjoint_adjunction_natequiv_left&#45;&gt;Adjoint_Build_Adjunction_natequiv_nat_right</title>
<path fill="none" stroke="#000000" d="M1967.8864,-770.4684C1799.4538,-721.9078 1393.6509,-604.9113 1231.0687,-558.0375"/>
<polygon fill="#000000" stroke="#000000" points="1231.7592,-554.594 1221.1809,-555.1867 1229.82,-561.3201 1231.7592,-554.594"/>
</g>
<!-- Adjoint_natequiv_adjunction_l -->
<g id="node19" class="node">
<title>Adjoint_natequiv_adjunction_l</title>
<g id="a_node19"><a xlink:href="Adjoint.html#natequiv_adjunction_l" xlink:title="natequiv_adjunction_l">
<ellipse fill="#f070d1" stroke="#000000" cx="2289" cy="-538.1243" rx="113.18" ry="18"/>
<text text-anchor="middle" x="2289" y="-534.4243" font-family="Times,serif" font-size="14.00" fill="#000000">natequiv_adjunction_l</text>
</a>
</g>
</g>
<!-- Adjoint_adjunction_natequiv_left&#45;&gt;Adjoint_natequiv_adjunction_l -->
<g id="edge4" class="edge">
<title>Adjoint_adjunction_natequiv_left&#45;&gt;Adjoint_natequiv_adjunction_l</title>
<path fill="none" stroke="#000000" d="M2067.9416,-766.3717C2115.2476,-717.5272 2217.4677,-611.9828 2264.4606,-563.4617"/>
<polygon fill="#000000" stroke="#000000" points="2267.0687,-565.7997 2271.5116,-556.1814 2262.0404,-560.9298 2267.0687,-565.7997"/>
</g>
<!-- Adjoint_adjunction_compose -->
<g id="node3" class="node">
<title>Adjoint_adjunction_compose</title>
<g id="a_node3"><a xlink:href="Adjoint.html#adjunction_compose" xlink:title="adjunction_compose">
<ellipse fill="#f070d1" stroke="#000000" cx="1763" cy="-792.1243" rx="105.8854" ry="18"/>
<ellipse fill="none" stroke="#000000" cx="1763" cy="-792.1243" rx="109.8833" ry="22"/>
<ellipse fill="none" stroke="#000000" cx="1763" cy="-792.1243" rx="113.8812" ry="26"/>
<text text-anchor="middle" x="1763" y="-788.4243" font-family="Times,serif" font-size="14.00" fill="#000000">adjunction_compose</text>
</a>
</g>
</g>
<!-- Adjoint_adjunction_compose&#45;&gt;Adjoint_Build_Adjunction_natequiv_nat_right -->
<g id="edge5" class="edge">
<title>Adjoint_adjunction_compose&#45;&gt;Adjoint_Build_Adjunction_natequiv_nat_right</title>
<path fill="none" stroke="#000000" d="M1708.6053,-769.1356C1593.2107,-720.3665 1325.2766,-607.1298 1212.971,-559.6662"/>
<polygon fill="#000000" stroke="#000000" points="1214.1293,-556.356 1203.5556,-555.6869 1211.4042,-562.8038 1214.1293,-556.356"/>
</g>
<!-- Adjoint_adjunction_compose&#45;&gt;Adjoint_natequiv_adjunction_r -->
<g id="edge6" class="edge">
<title>Adjoint_adjunction_compose&#45;&gt;Adjoint_natequiv_adjunction_r</title>
<path fill="none" stroke="#000000" d="M1790.9707,-766.8412C1844.9756,-718.0254 1962.9938,-611.3471 2016.569,-562.9196"/>
<polygon fill="#000000" stroke="#000000" points="2019.2215,-565.24 2024.293,-555.9378 2014.5275,-560.047 2019.2215,-565.24"/>
</g>
<!-- Adjoint_adjunction_compose&#45;&gt;Adjoint_natequiv_adjunction_l -->
<g id="edge7" class="edge">
<title>Adjoint_adjunction_compose&#45;&gt;Adjoint_natequiv_adjunction_l</title>
<path fill="none" stroke="#000000" d="M1812.0125,-768.4567C1913.8046,-719.3024 2146.7522,-606.8143 2244.5157,-559.6054"/>
<polygon fill="#000000" stroke="#000000" points="2246.0627,-562.7451 2253.5457,-555.2448 2243.0187,-556.4416 2246.0627,-562.7451"/>
</g>
<!-- Adjoint_is1natural_equiv_adjunction_r -->
<g id="node22" class="node">
<title>Adjoint_is1natural_equiv_adjunction_r</title>
<g id="a_node22"><a xlink:href="Adjoint.html#is1natural_equiv_adjunction_r" xlink:title="is1natural_equiv_adjunction_r">
<ellipse fill="#f070d1" stroke="#000000" cx="1760" cy="-538.1243" rx="151.3732" ry="18"/>
<text text-anchor="middle" x="1760" y="-534.4243" font-family="Times,serif" font-size="14.00" fill="#000000">is1natural_equiv_adjunction_r</text>
</a>
</g>
</g>
<!-- Adjoint_adjunction_compose&#45;&gt;Adjoint_is1natural_equiv_adjunction_r -->
<g id="edge8" class="edge">
<title>Adjoint_adjunction_compose&#45;&gt;Adjoint_is1natural_equiv_adjunction_r</title>
<path fill="none" stroke="#000000" d="M1762.6902,-765.8986C1762.1226,-717.8374 1760.9202,-616.0374 1760.3346,-566.4542"/>
<polygon fill="#000000" stroke="#000000" points="1763.8341,-566.3828 1760.2161,-556.4249 1756.8346,-566.4656 1763.8341,-566.3828"/>
</g>
<!-- Adjoint_adjunction_postcomp -->
<g id="node4" class="node">
<title>Adjoint_adjunction_postcomp</title>
<g id="a_node4"><a xlink:href="Adjoint.html#adjunction_postcomp" xlink:title="adjunction_postcomp">
<ellipse fill="#f070d1" stroke="#000000" cx="2519" cy="-1462.1243" rx="110.4811" ry="18"/>
<ellipse fill="none" stroke="#000000" cx="2519" cy="-1462.1243" rx="114.4807" ry="22"/>
<ellipse fill="none" stroke="#000000" cx="2519" cy="-1462.1243" rx="118.4804" ry="26"/>
<text text-anchor="middle" x="2519" y="-1458.4243" font-family="Times,serif" font-size="14.00" fill="#000000">adjunction_postcomp</text>
</a>
</g>
</g>
<!-- Adjoint_Build_Adjunction_unit_counit -->
<g id="node5" class="node">
<title>Adjoint_Build_Adjunction_unit_counit</title>
<g id="a_node5"><a xlink:href="Adjoint.html#Build_Adjunction_unit_counit" xlink:title="Build_Adjunction_unit_counit">
<ellipse fill="#f070d1" stroke="#000000" cx="3137" cy="-538.1243" rx="148.3739" ry="18"/>
<text text-anchor="middle" x="3137" y="-534.4243" font-family="Times,serif" font-size="14.00" fill="#000000">Build_Adjunction_unit_counit</text>
</a>
</g>
</g>
<!-- Adjoint_adjunction_postcomp&#45;&gt;Adjoint_Build_Adjunction_unit_counit -->
<g id="edge9" class="edge">
<title>Adjoint_adjunction_postcomp&#45;&gt;Adjoint_Build_Adjunction_unit_counit</title>
<path fill="none" stroke="#000000" d="M2536.5,-1435.9592C2625.6919,-1302.6045 3028.9786,-699.6321 3119.1009,-564.8861"/>
<polygon fill="#000000" stroke="#000000" points="3122.1593,-566.6089 3124.8096,-556.3508 3116.3408,-562.7172 3122.1593,-566.6089"/>
</g>
<!-- Adjoint_adjunction_triangle2 -->
<g id="node11" class="node">
<title>Adjoint_adjunction_triangle2</title>
<g id="a_node11"><a xlink:href="Adjoint.html#adjunction_triangle2" xlink:title="adjunction_triangle2">
<ellipse fill="#f070d1" stroke="#000000" cx="2519" cy="-1231.1243" rx="107.4815" ry="18"/>
<text text-anchor="middle" x="2519" y="-1227.4243" font-family="Times,serif" font-size="14.00" fill="#000000">adjunction_triangle2</text>
</a>
</g>
</g>
<!-- Adjoint_adjunction_postcomp&#45;&gt;Adjoint_adjunction_triangle2 -->
<g id="edge10" class="edge">
<title>Adjoint_adjunction_postcomp&#45;&gt;Adjoint_adjunction_triangle2</title>
<path fill="none" stroke="#000000" d="M2519,-1436.0747C2519,-1392.3637 2519,-1304.6113 2519,-1259.4329"/>
<polygon fill="#000000" stroke="#000000" points="2522.5001,-1259.1746 2519,-1249.1746 2515.5001,-1259.1746 2522.5001,-1259.1746"/>
</g>
<!-- Adjoint_adjunction_triangle1 -->
<g id="node12" class="node">
<title>Adjoint_adjunction_triangle1</title>
<g id="a_node12"><a xlink:href="Adjoint.html#adjunction_triangle1" xlink:title="adjunction_triangle1">
<ellipse fill="#f070d1" stroke="#000000" cx="2287" cy="-1231.1243" rx="107.4815" ry="18"/>
<text text-anchor="middle" x="2287" y="-1227.4243" font-family="Times,serif" font-size="14.00" fill="#000000">adjunction_triangle1</text>
</a>
</g>
</g>
<!-- Adjoint_adjunction_postcomp&#45;&gt;Adjoint_adjunction_triangle1 -->
<g id="edge11" class="edge">
<title>Adjoint_adjunction_postcomp&#45;&gt;Adjoint_adjunction_triangle1</title>
<path fill="none" stroke="#000000" d="M2493.2855,-1436.5207C2448.4525,-1391.881 2356.5311,-1300.3558 2312.119,-1256.135"/>
<polygon fill="#000000" stroke="#000000" points="2314.4623,-1253.5291 2304.9064,-1248.9536 2309.5232,-1258.4896 2314.4623,-1253.5291"/>
</g>
<!-- Adjoint_is1natural_γ_r -->
<g id="node6" class="node">
<title>Adjoint_is1natural_γ_r</title>
<g id="a_node6"><a xlink:href="Adjoint.html#is1natural_γ_r" xlink:title="is1natural_\206\179_r">
<ellipse fill="#f070d1" stroke="#000000" cx="2927" cy="-306.1243" rx="107.4815" ry="18"/>
<text text-anchor="middle" x="2927" y="-302.4243" font-family="Times,serif" font-size="14.00" fill="#000000">is1natural_206179_r</text>
</a>
</g>
</g>
<!-- Adjoint_Build_Adjunction_unit_counit&#45;&gt;Adjoint_is1natural_γ_r -->
<g id="edge12" class="edge">
<title>Adjoint_Build_Adjunction_unit_counit&#45;&gt;Adjoint_is1natural_γ_r</title>
<path fill="none" stroke="#000000" d="M3120.5217,-519.9197C3083.3207,-478.8215 2992.7519,-378.7646 2950.0283,-331.5651"/>
<polygon fill="#000000" stroke="#000000" points="2952.4191,-328.9909 2943.1134,-323.9258 2947.2294,-333.6885 2952.4191,-328.9909"/>
</g>
<!-- Adjoint_is1natural_γ_l -->
<g id="node7" class="node">
<title>Adjoint_is1natural_γ_l</title>
<g id="a_node7"><a xlink:href="Adjoint.html#is1natural_γ_l" xlink:title="is1natural_\206\179_l">
<ellipse fill="#f070d1" stroke="#000000" cx="3158" cy="-306.1243" rx="105.8812" ry="18"/>
<text text-anchor="middle" x="3158" y="-302.4243" font-family="Times,serif" font-size="14.00" fill="#000000">is1natural_206179_l</text>
</a>
</g>
</g>
<!-- Adjoint_Build_Adjunction_unit_counit&#45;&gt;Adjoint_is1natural_γ_l -->
<g id="edge13" class="edge">
<title>Adjoint_Build_Adjunction_unit_counit&#45;&gt;Adjoint_is1natural_γ_l</title>
<path fill="none" stroke="#000000" d="M3138.6478,-519.9197C3142.2974,-479.6002 3151.0836,-382.5346 3155.4493,-334.3039"/>
<polygon fill="#000000" stroke="#000000" points="3158.944,-334.5193 3156.3598,-324.2444 3151.9725,-333.8882 3158.944,-334.5193"/>
</g>
<!-- Adjoint_Build_Adjunction -->
<g id="node29" class="node">
<title>Adjoint_Build_Adjunction</title>
<g id="a_node29"><a xlink:href="Adjoint.html#Build_Adjunction" xlink:title="Build_Adjunction">
<ellipse fill="#7faaff" stroke="#000000" cx="641" cy="-306.1243" rx="90.9839" ry="18"/>
<text text-anchor="middle" x="641" y="-302.4243" font-family="Times,serif" font-size="14.00" fill="#000000">Build_Adjunction</text>
</a>
</g>
</g>
<!-- Adjoint_Build_Adjunction_unit_counit&#45;&gt;Adjoint_Build_Adjunction -->
<g id="edge14" class="edge">
<title>Adjoint_Build_Adjunction_unit_counit&#45;&gt;Adjoint_Build_Adjunction</title>
<path fill="none" stroke="#000000" d="M3053.5324,-523.1848C3029.5258,-519.2153 3003.2712,-515.1862 2979,-512.1243 2112.9051,-402.8649 1059.0282,-332.2062 738.22,-312.0596"/>
<polygon fill="#000000" stroke="#000000" points="738.229,-308.5534 728.0297,-311.4212 737.7913,-315.5397 738.229,-308.5534"/>
</g>
<!-- Adjoint_Adjunction -->
<g id="node30" class="node">
<title>Adjoint_Adjunction</title>
<g id="a_node30"><a xlink:href="Adjoint.html#Adjunction" xlink:title="Adjunction">
<ellipse fill="#e2cdfa" stroke="#000000" cx="1760" cy="-306.1243" rx="61.99" ry="18"/>
<text text-anchor="middle" x="1760" y="-302.4243" font-family="Times,serif" font-size="14.00" fill="#000000">Adjunction</text>
</a>
</g>
</g>
<!-- Adjoint_Build_Adjunction_unit_counit&#45;&gt;Adjoint_Adjunction -->
<g id="edge15" class="edge">
<title>Adjoint_Build_Adjunction_unit_counit&#45;&gt;Adjoint_Adjunction</title>
<path fill="none" stroke="#000000" d="M3050.0795,-523.4798C2794.0055,-480.3359 2046.4609,-354.3879 1823.491,-316.8215"/>
<polygon fill="#000000" stroke="#000000" points="1824.0283,-313.3627 1813.5857,-315.1526 1822.8652,-320.2654 1824.0283,-313.3627"/>
</g>
<!-- Adjoint_γ -->
<g id="node8" class="node">
<title>Adjoint_γ</title>
<g id="a_node8"><a xlink:href="Adjoint.html#γ" xlink:title="\206\179">
<ellipse fill="#f070d1" stroke="#000000" cx="3042" cy="-98.1243" rx="46.2923" ry="18"/>
<text text-anchor="middle" x="3042" y="-94.4243" font-family="Times,serif" font-size="14.00" fill="#000000">206179</text>
</a>
</g>
</g>
<!-- Adjoint_is1natural_γ_r&#45;&gt;Adjoint_γ -->
<g id="edge16" class="edge">
<title>Adjoint_is1natural_γ_r&#45;&gt;Adjoint_γ</title>
<path fill="none" stroke="#000000" d="M2937.0043,-288.0296C2957.3258,-251.2741 3003.5168,-167.7287 3027.278,-124.752"/>
<polygon fill="#000000" stroke="#000000" points="3030.4878,-126.18 3032.2633,-115.735 3024.3617,-122.793 3030.4878,-126.18"/>
</g>
<!-- Adjoint_is1natural_γ_l&#45;&gt;Adjoint_γ -->
<g id="edge17" class="edge">
<title>Adjoint_is1natural_γ_l&#45;&gt;Adjoint_γ</title>
<path fill="none" stroke="#000000" d="M3147.9087,-288.0296C3127.3674,-251.1969 3080.6219,-167.3775 3056.6993,-124.4817"/>
<polygon fill="#000000" stroke="#000000" points="3059.7488,-122.7639 3051.8213,-115.735 3053.6353,-126.1734 3059.7488,-122.7639"/>
</g>
<!-- Adjoint_Build_Adjunction_natequiv_nat_right&#45;&gt;Adjoint_Build_Adjunction -->
<g id="edge18" class="edge">
<title>Adjoint_Build_Adjunction_natequiv_nat_right&#45;&gt;Adjoint_Build_Adjunction</title>
<path fill="none" stroke="#000000" d="M1122.4127,-520.4962C1027.7487,-478.3426 788.6573,-371.8758 687.4256,-326.7976"/>
<polygon fill="#000000" stroke="#000000" points="688.6279,-323.5016 678.0689,-322.631 685.7803,-329.8963 688.6279,-323.5016"/>
</g>
<!-- Adjoint_Build_Adjunction_natequiv_nat_right&#45;&gt;Adjoint_Adjunction -->
<g id="edge19" class="edge">
<title>Adjoint_Build_Adjunction_natequiv_nat_right&#45;&gt;Adjoint_Adjunction</title>
<path fill="none" stroke="#000000" d="M1207.438,-520.4962C1318.2751,-477.4959 1601.6115,-367.5727 1713.5206,-324.1565"/>
<polygon fill="#000000" stroke="#000000" points="1714.8032,-327.4131 1722.8602,-320.5331 1712.2713,-320.887 1714.8032,-327.4131"/>
</g>
<!-- Adjoint_Build_Adjunction_natequiv_nat_left&#45;&gt;Adjoint_Build_Adjunction -->
<g id="edge20" class="edge">
<title>Adjoint_Build_Adjunction_natequiv_nat_left&#45;&gt;Adjoint_Build_Adjunction</title>
<path fill="none" stroke="#000000" d="M771.8575,-519.9197C746.9199,-479.1766 686.5164,-380.4892 657.3275,-332.8003"/>
<polygon fill="#000000" stroke="#000000" points="660.2965,-330.9465 652.0907,-324.2444 654.326,-334.6008 660.2965,-330.9465"/>
</g>
<!-- Adjoint_Build_Adjunction_natequiv_nat_left&#45;&gt;Adjoint_Adjunction -->
<g id="edge21" class="edge">
<title>Adjoint_Build_Adjunction_natequiv_nat_left&#45;&gt;Adjoint_Adjunction</title>
<path fill="none" stroke="#000000" d="M852.8713,-521.5326C1037.0022,-477.8086 1532.9739,-360.0343 1702.371,-319.809"/>
<polygon fill="#000000" stroke="#000000" points="1703.1797,-323.2144 1712.1005,-317.4986 1701.5624,-316.4038 1703.1797,-323.2144"/>
</g>
<!-- Adjoint_triangle_helper1 -->
<g id="node14" class="node">
<title>Adjoint_triangle_helper1</title>
<g id="a_node14"><a xlink:href="Adjoint.html#triangle_helper1" xlink:title="triangle_helper1">
<ellipse fill="#f070d1" stroke="#000000" cx="2519" cy="-1023.1243" rx="87.9851" ry="18"/>
<text text-anchor="middle" x="2519" y="-1019.4243" font-family="Times,serif" font-size="14.00" fill="#000000">triangle_helper1</text>
</a>
</g>
</g>
<!-- Adjoint_adjunction_triangle2&#45;&gt;Adjoint_triangle_helper1 -->
<g id="edge22" class="edge">
<title>Adjoint_adjunction_triangle2&#45;&gt;Adjoint_triangle_helper1</title>
<path fill="none" stroke="#000000" d="M2519,-1213.0296C2519,-1176.7652 2519,-1094.9529 2519,-1051.4962"/>
<polygon fill="#000000" stroke="#000000" points="2522.5001,-1051.3254 2519,-1041.3254 2515.5001,-1051.3254 2522.5001,-1051.3254"/>
</g>
<!-- Adjoint_adjunction_unit -->
<g id="node15" class="node">
<title>Adjoint_adjunction_unit</title>
<g id="a_node15"><a xlink:href="Adjoint.html#adjunction_unit" xlink:title="adjunction_unit">
<ellipse fill="#f070d1" stroke="#000000" cx="2285" cy="-792.1243" rx="83.3857" ry="18"/>
<text text-anchor="middle" x="2285" y="-788.4243" font-family="Times,serif" font-size="14.00" fill="#000000">adjunction_unit</text>
</a>
</g>
</g>
<!-- Adjoint_adjunction_triangle2&#45;&gt;Adjoint_adjunction_unit -->
<g id="edge23" class="edge">
<title>Adjoint_adjunction_triangle2&#45;&gt;Adjoint_adjunction_unit</title>
<path fill="none" stroke="#000000" d="M2509.3907,-1213.0966C2472.9456,-1144.7231 2343.1097,-901.1421 2299.4459,-819.2259"/>
<polygon fill="#000000" stroke="#000000" points="2302.3528,-817.2384 2294.5603,-810.0601 2296.1755,-820.5311 2302.3528,-817.2384"/>
</g>
<!-- Adjoint_triangle_helper2 -->
<g id="node13" class="node">
<title>Adjoint_triangle_helper2</title>
<g id="a_node13"><a xlink:href="Adjoint.html#triangle_helper2" xlink:title="triangle_helper2">
<ellipse fill="#f070d1" stroke="#000000" cx="2285" cy="-1023.1243" rx="87.9851" ry="18"/>
<text text-anchor="middle" x="2285" y="-1019.4243" font-family="Times,serif" font-size="14.00" fill="#000000">triangle_helper2</text>
</a>
</g>
</g>
<!-- Adjoint_adjunction_triangle1&#45;&gt;Adjoint_triangle_helper2 -->
<g id="edge24" class="edge">
<title>Adjoint_adjunction_triangle1&#45;&gt;Adjoint_triangle_helper2</title>
<path fill="none" stroke="#000000" d="M2286.826,-1213.0296C2286.4773,-1176.7652 2285.6907,-1094.9529 2285.2728,-1051.4962"/>
<polygon fill="#000000" stroke="#000000" points="2288.7711,-1051.2912 2285.175,-1041.3254 2281.7714,-1051.3586 2288.7711,-1051.2912"/>
</g>
<!-- Adjoint_adjunction_counit -->
<g id="node16" class="node">
<title>Adjoint_adjunction_counit</title>
<g id="a_node16"><a xlink:href="Adjoint.html#adjunction_counit" xlink:title="adjunction_counit">
<ellipse fill="#f070d1" stroke="#000000" cx="2480" cy="-792.1243" rx="94.4839" ry="18"/>
<text text-anchor="middle" x="2480" y="-788.4243" font-family="Times,serif" font-size="14.00" fill="#000000">adjunction_counit</text>
</a>
</g>
</g>
<!-- Adjoint_adjunction_triangle1&#45;&gt;Adjoint_adjunction_counit -->
<g id="edge25" class="edge">
<title>Adjoint_adjunction_triangle1&#45;&gt;Adjoint_adjunction_counit</title>
<path fill="none" stroke="#000000" d="M2296.717,-1213.0409C2314.5548,-1179.5606 2353.3223,-1105.4624 2382,-1041.1243 2417.2554,-962.0293 2453.127,-866.1032 2470.0258,-819.7912"/>
<polygon fill="#000000" stroke="#000000" points="2473.3986,-820.7576 2473.526,-810.1635 2466.8198,-818.3658 2473.3986,-820.7576"/>
</g>
<!-- Adjoint_triangle_helper2&#45;&gt;Adjoint_adjunction_unit -->
<g id="edge26" class="edge">
<title>Adjoint_triangle_helper2&#45;&gt;Adjoint_adjunction_unit</title>
<path fill="none" stroke="#000000" d="M2285,-1004.9982C2285,-964.8524 2285,-868.2053 2285,-820.1824"/>
<polygon fill="#000000" stroke="#000000" points="2288.5001,-820.1663 2285,-810.1663 2281.5001,-820.1664 2288.5001,-820.1663"/>
</g>
<!-- Adjoint_triangle_helper1&#45;&gt;Adjoint_adjunction_counit -->
<g id="edge27" class="edge">
<title>Adjoint_triangle_helper1&#45;&gt;Adjoint_adjunction_counit</title>
<path fill="none" stroke="#000000" d="M2515.9397,-1004.9982C2509.1619,-964.8524 2492.8448,-868.2053 2484.7371,-820.1824"/>
<polygon fill="#000000" stroke="#000000" points="2488.162,-819.4441 2483.046,-810.1663 2481.2597,-820.6095 2488.162,-819.4441"/>
</g>
<!-- Adjoint_adjunction_unit&#45;&gt;Adjoint_natequiv_adjunction_r -->
<g id="edge28" class="edge">
<title>Adjoint_adjunction_unit&#45;&gt;Adjoint_natequiv_adjunction_r</title>
<path fill="none" stroke="#000000" d="M2268.0533,-774.2636C2225.9643,-729.9042 2116.5658,-614.6045 2067.9217,-563.3364"/>
<polygon fill="#000000" stroke="#000000" points="2070.35,-560.8106 2060.9279,-555.9654 2065.2719,-565.6287 2070.35,-560.8106"/>
</g>
<!-- Adjoint_adjunction_unit&#45;&gt;Adjoint_natequiv_adjunction_l -->
<g id="edge29" class="edge">
<title>Adjoint_adjunction_unit&#45;&gt;Adjoint_natequiv_adjunction_l</title>
<path fill="none" stroke="#000000" d="M2285.2877,-773.8573C2285.9767,-730.1045 2287.7256,-619.0478 2288.5531,-566.5046"/>
<polygon fill="#000000" stroke="#000000" points="2292.0569,-566.2798 2288.7149,-556.2259 2285.0578,-566.1695 2292.0569,-566.2798"/>
</g>
<!-- Adjoint_adjunction_counit&#45;&gt;Adjoint_Adjunction -->
<g id="edge30" class="edge">
<title>Adjoint_adjunction_counit&#45;&gt;Adjoint_Adjunction</title>
<path fill="none" stroke="#000000" d="M2476.5954,-773.9797C2465.3944,-715.0526 2429.3586,-531.7139 2411,-512.1243 2328.8695,-424.4869 1968.8751,-346.5188 1822.3619,-317.8218"/>
<polygon fill="#000000" stroke="#000000" points="1822.6732,-314.3167 1812.1886,-315.8413 1821.3355,-321.1877 1822.6732,-314.3167"/>
</g>
<!-- Adjoint_natequiv_adjunction -->
<g id="node17" class="node">
<title>Adjoint_natequiv_adjunction</title>
<g id="a_node17"><a xlink:href="Adjoint.html#natequiv_adjunction" xlink:title="natequiv_adjunction">
<ellipse fill="#f070d1" stroke="#000000" cx="1477" cy="-538.1243" rx="105.0965" ry="18"/>
<ellipse fill="none" stroke="#000000" cx="1477" cy="-538.1243" rx="109.0891" ry="22"/>
<ellipse fill="none" stroke="#000000" cx="1477" cy="-538.1243" rx="113.0817" ry="26"/>
<text text-anchor="middle" x="1477" y="-534.4243" font-family="Times,serif" font-size="14.00" fill="#000000">natequiv_adjunction</text>
</a>
</g>
</g>
<!-- Adjoint_fun01_hom -->
<g id="node20" class="node">
<title>Adjoint_fun01_hom</title>
<g id="a_node20"><a xlink:href="Adjoint.html#fun01_hom" xlink:title="fun01_hom">
<ellipse fill="#f070d1" stroke="#000000" cx="1547" cy="-306.1243" rx="62.2891" ry="18"/>
<text text-anchor="middle" x="1547" y="-302.4243" font-family="Times,serif" font-size="14.00" fill="#000000">fun01_hom</text>
</a>
</g>
</g>
<!-- Adjoint_natequiv_adjunction&#45;&gt;Adjoint_fun01_hom -->
<g id="edge31" class="edge">
<title>Adjoint_natequiv_adjunction&#45;&gt;Adjoint_fun01_hom</title>
<path fill="none" stroke="#000000" d="M1484.8938,-511.962C1498.1956,-467.876 1524.9563,-379.1834 1538.5946,-333.9822"/>
<polygon fill="#000000" stroke="#000000" points="1541.9923,-334.8375 1541.5302,-324.2527 1535.2907,-332.8154 1541.9923,-334.8375"/>
</g>
<!-- Adjoint_fun01_profunctor -->
<g id="node21" class="node">
<title>Adjoint_fun01_profunctor</title>
<g id="a_node21"><a xlink:href="Adjoint.html#fun01_profunctor" xlink:title="fun01_profunctor">
<ellipse fill="#f070d1" stroke="#000000" cx="1374" cy="-306.1243" rx="92.0841" ry="18"/>
<text text-anchor="middle" x="1374" y="-302.4243" font-family="Times,serif" font-size="14.00" fill="#000000">fun01_profunctor</text>
</a>
</g>
</g>
<!-- Adjoint_natequiv_adjunction&#45;&gt;Adjoint_fun01_profunctor -->
<g id="edge32" class="edge">
<title>Adjoint_natequiv_adjunction&#45;&gt;Adjoint_fun01_profunctor</title>
<path fill="none" stroke="#000000" d="M1465.3848,-511.962C1445.7298,-467.6904 1406.1037,-378.4357 1386.1155,-333.4136"/>
<polygon fill="#000000" stroke="#000000" points="1389.3051,-331.9722 1382.0484,-324.2527 1382.9073,-334.8127 1389.3051,-331.9722"/>
</g>
<!-- Adjoint_natequiv_adjunction&#45;&gt;Adjoint_Adjunction -->
<g id="edge33" class="edge">
<title>Adjoint_natequiv_adjunction&#45;&gt;Adjoint_Adjunction</title>
<path fill="none" stroke="#000000" d="M1507.5548,-513.0759C1562.6131,-467.9398 1677.7281,-373.5698 1731.3594,-329.6036"/>
<polygon fill="#000000" stroke="#000000" points="1733.6017,-332.2911 1739.1163,-323.2446 1729.1638,-326.8777 1733.6017,-332.2911"/>
</g>
<!-- Adjoint_natequiv_adjunction_r&#45;&gt;Adjoint_Adjunction -->
<g id="edge34" class="edge">
<title>Adjoint_natequiv_adjunction_r&#45;&gt;Adjoint_Adjunction</title>
<path fill="none" stroke="#000000" d="M2022.1866,-520.3049C1971.553,-478.9423 1846.0319,-376.4039 1789.0119,-329.8242"/>
<polygon fill="#000000" stroke="#000000" points="1791.072,-326.9877 1781.1132,-323.3718 1786.6434,-332.4088 1791.072,-326.9877"/>
</g>
<!-- Adjoint_natequiv_adjunction_l&#45;&gt;Adjoint_Adjunction -->
<g id="edge35" class="edge">
<title>Adjoint_natequiv_adjunction_l&#45;&gt;Adjoint_Adjunction</title>
<path fill="none" stroke="#000000" d="M2250.1014,-521.0648C2153.8278,-478.8428 1904.9237,-369.6826 1803.7407,-325.3074"/>
<polygon fill="#000000" stroke="#000000" points="1804.9837,-322.0308 1794.42,-321.2197 1802.1722,-328.4414 1804.9837,-322.0308"/>
</g>
<!-- Adjoint_is1natural_equiv_adjunction_r&#45;&gt;Adjoint_Adjunction -->
<g id="edge36" class="edge">
<title>Adjoint_is1natural_equiv_adjunction_r&#45;&gt;Adjoint_Adjunction</title>
<path fill="none" stroke="#000000" d="M1760,-519.9197C1760,-479.6002 1760,-382.5346 1760,-334.3039"/>
<polygon fill="#000000" stroke="#000000" points="1763.5001,-334.2444 1760,-324.2444 1756.5001,-334.2445 1763.5001,-334.2444"/>
</g>
<!-- Adjoint_is1natural_equiv_adjunction_l -->
<g id="node23" class="node">
<title>Adjoint_is1natural_equiv_adjunction_l</title>
<g id="a_node23"><a xlink:href="Adjoint.html#is1natural_equiv_adjunction_l" xlink:title="is1natural_equiv_adjunction_l">
<ellipse fill="#f070d1" stroke="#000000" cx="2598" cy="-538.1243" rx="150.2666" ry="18"/>
<ellipse fill="none" stroke="#000000" cx="2598" cy="-538.1243" rx="154.27" ry="22"/>
<ellipse fill="none" stroke="#000000" cx="2598" cy="-538.1243" rx="158.2735" ry="26"/>
<text text-anchor="middle" x="2598" y="-534.4243" font-family="Times,serif" font-size="14.00" fill="#000000">is1natural_equiv_adjunction_l</text>
</a>
</g>
</g>
<!-- Adjoint_is1natural_equiv_adjunction_l&#45;&gt;Adjoint_Adjunction -->
<g id="edge37" class="edge">
<title>Adjoint_is1natural_equiv_adjunction_l&#45;&gt;Adjoint_Adjunction</title>
<path fill="none" stroke="#000000" d="M2516.8876,-515.6684C2347.2111,-468.6935 1958.6391,-361.1175 1814.8343,-321.3052"/>
<polygon fill="#000000" stroke="#000000" points="1815.4811,-317.8527 1804.9098,-318.5576 1813.6134,-324.5989 1815.4811,-317.8527"/>
</g>
<!-- Adjoint_equiv_adjunction -->
<g id="node24" class="node">
<title>Adjoint_equiv_adjunction</title>
<g id="a_node24"><a xlink:href="Adjoint.html#equiv_adjunction" xlink:title="equiv_adjunction">
<ellipse fill="#f070d1" stroke="#000000" cx="2872" cy="-538.1243" rx="90.1971" ry="18"/>
<ellipse fill="none" stroke="#000000" cx="2872" cy="-538.1243" rx="94.1906" ry="22"/>
<ellipse fill="none" stroke="#000000" cx="2872" cy="-538.1243" rx="98.1842" ry="26"/>
<text text-anchor="middle" x="2872" y="-534.4243" font-family="Times,serif" font-size="14.00" fill="#000000">equiv_adjunction</text>
</a>
</g>
</g>
<!-- Adjoint_equiv_adjunction&#45;&gt;Adjoint_Adjunction -->
<g id="edge38" class="edge">
<title>Adjoint_equiv_adjunction&#45;&gt;Adjoint_Adjunction</title>
<path fill="none" stroke="#000000" d="M2800.1383,-520.2846C2788.4113,-517.4822 2776.3796,-514.6723 2765,-512.1243 2408.9174,-432.3954 1979.0984,-348.3417 1821.6291,-317.9503"/>
<polygon fill="#000000" stroke="#000000" points="1822.1363,-314.4837 1811.6544,-316.0267 1820.8107,-321.357 1822.1363,-314.4837"/>
</g>
<!-- Adjoint_Adjunction_sind -->
<g id="node25" class="node">
<title>Adjoint_Adjunction_sind</title>
<g id="a_node25"><a xlink:href="Adjoint.html#Adjunction_sind" xlink:title="Adjunction_sind">
<ellipse fill="#f070d1" stroke="#000000" cx="298" cy="-538.1243" rx="85.6029" ry="18"/>
<ellipse fill="none" stroke="#000000" cx="298" cy="-538.1243" rx="89.5941" ry="22"/>
<ellipse fill="none" stroke="#000000" cx="298" cy="-538.1243" rx="93.5852" ry="26"/>
<text text-anchor="middle" x="298" y="-534.4243" font-family="Times,serif" font-size="14.00" fill="#000000">Adjunction_sind</text>
</a>
</g>
</g>
<!-- Adjoint_Adjunction_sind&#45;&gt;Adjoint_Build_Adjunction -->
<g id="edge39" class="edge">
<title>Adjoint_Adjunction_sind&#45;&gt;Adjoint_Build_Adjunction</title>
<path fill="none" stroke="#000000" d="M333.7363,-513.9528C400.106,-469.0614 541.5651,-373.3806 606.7755,-329.2732"/>
<polygon fill="#000000" stroke="#000000" points="609.133,-331.9042 615.4552,-323.4024 605.2111,-326.106 609.133,-331.9042"/>
</g>
<!-- Adjoint_Adjunction_sind&#45;&gt;Adjoint_Adjunction -->
<g id="edge40" class="edge">
<title>Adjoint_Adjunction_sind&#45;&gt;Adjoint_Adjunction</title>
<path fill="none" stroke="#000000" d="M365.6577,-520.0542C377.3972,-517.2033 389.5196,-514.4378 401,-512.1243 655.2743,-460.8849 1457.7051,-348.1175 1693.9479,-315.2704"/>
<polygon fill="#000000" stroke="#000000" points="1694.6819,-318.7021 1704.1049,-313.8589 1693.7183,-311.7688 1694.6819,-318.7021"/>
</g>
<!-- Adjoint_Adjunction_rec -->
<g id="node26" class="node">
<title>Adjoint_Adjunction_rec</title>
<g id="a_node26"><a xlink:href="Adjoint.html#Adjunction_rec" xlink:title="Adjunction_rec">
<ellipse fill="#f070d1" stroke="#000000" cx="105" cy="-792.1243" rx="81.4644" ry="18"/>
<ellipse fill="none" stroke="#000000" cx="105" cy="-792.1243" rx="85.4753" ry="22"/>
<ellipse fill="none" stroke="#000000" cx="105" cy="-792.1243" rx="89.4862" ry="26"/>
<text text-anchor="middle" x="105" y="-788.4243" font-family="Times,serif" font-size="14.00" fill="#000000">Adjunction_rec</text>
</a>
</g>
</g>
<!-- Adjoint_Adjunction_rect -->
<g id="node28" class="node">
<title>Adjoint_Adjunction_rect</title>
<g id="a_node28"><a xlink:href="Adjoint.html#Adjunction_rect" xlink:title="Adjunction_rect">
<ellipse fill="#f070d1" stroke="#000000" cx="101" cy="-538.1243" rx="85.2851" ry="18"/>
<text text-anchor="middle" x="101" y="-534.4243" font-family="Times,serif" font-size="14.00" fill="#000000">Adjunction_rect</text>
</a>
</g>
</g>
<!-- Adjoint_Adjunction_rec&#45;&gt;Adjoint_Adjunction_rect -->
<g id="edge41" class="edge">
<title>Adjoint_Adjunction_rec&#45;&gt;Adjoint_Adjunction_rect</title>
<path fill="none" stroke="#000000" d="M104.587,-765.8986C103.8301,-717.8374 102.227,-616.0374 101.4461,-566.4542"/>
<polygon fill="#000000" stroke="#000000" points="104.9453,-566.3685 101.2882,-556.4249 97.9462,-566.4788 104.9453,-566.3685"/>
</g>
<!-- Adjoint_Adjunction_ind -->
<g id="node27" class="node">
<title>Adjoint_Adjunction_ind</title>
<g id="a_node27"><a xlink:href="Adjoint.html#Adjunction_ind" xlink:title="Adjunction_ind">
<ellipse fill="#7fffd4" stroke="#000000" cx="499" cy="-538.1243" rx="81.4644" ry="18"/>
<ellipse fill="none" stroke="#000000" cx="499" cy="-538.1243" rx="85.4753" ry="22"/>
<ellipse fill="none" stroke="#000000" cx="499" cy="-538.1243" rx="89.4862" ry="26"/>
<text text-anchor="middle" x="499" y="-534.4243" font-family="Times,serif" font-size="14.00" fill="#000000">Adjunction_ind</text>
</a>
</g>
</g>
<!-- Adjoint_Adjunction_ind&#45;&gt;Adjoint_Build_Adjunction -->
<g id="edge42" class="edge">
<title>Adjoint_Adjunction_ind&#45;&gt;Adjoint_Build_Adjunction</title>
<path fill="none" stroke="#000000" d="M514.739,-512.4099C541.8964,-468.04 597.2828,-377.5496 624.7738,-332.6348"/>
<polygon fill="#000000" stroke="#000000" points="627.8048,-334.3871 630.04,-324.0307 621.8343,-330.7328 627.8048,-334.3871"/>
</g>
<!-- Adjoint_Adjunction_ind&#45;&gt;Adjoint_Adjunction -->
<g id="edge43" class="edge">
<title>Adjoint_Adjunction_ind&#45;&gt;Adjoint_Adjunction</title>
<path fill="none" stroke="#000000" d="M563.6516,-520.1503C574.7372,-517.3042 586.1713,-514.5154 597,-512.1243 1011.93,-420.5045 1517.171,-342.2302 1694.626,-315.7303"/>
<polygon fill="#000000" stroke="#000000" points="1695.2122,-319.1817 1704.587,-314.2459 1694.1803,-312.2582 1695.2122,-319.1817"/>
</g>
<!-- Adjoint_Adjunction_rect&#45;&gt;Adjoint_Build_Adjunction -->
<g id="edge44" class="edge">
<title>Adjoint_Adjunction_rect&#45;&gt;Adjoint_Build_Adjunction</title>
<path fill="none" stroke="#000000" d="M138.9718,-521.8106C235.0024,-480.5529 487.413,-372.1099 593.2364,-326.645"/>
<polygon fill="#000000" stroke="#000000" points="594.9032,-329.7383 602.7095,-322.5751 592.14,-323.3067 594.9032,-329.7383"/>
</g>
<!-- Adjoint_Adjunction_rect&#45;&gt;Adjoint_Adjunction -->
<g id="edge45" class="edge">
<title>Adjoint_Adjunction_rect&#45;&gt;Adjoint_Adjunction</title>
<path fill="none" stroke="#000000" d="M149.9619,-523.1958C164.3708,-519.1799 180.2318,-515.1236 195,-512.1243 269.9384,-496.9053 1404.1452,-351.5943 1693.3092,-314.6395"/>
<polygon fill="#000000" stroke="#000000" points="1693.7604,-318.1104 1703.236,-313.371 1692.873,-311.1669 1693.7604,-318.1104"/>
</g>
</g>
</svg>
