<?xml version="1.0" encoding="UTF-8" standalone="no"?>
<!DOCTYPE svg PUBLIC "-//W3C//DTD SVG 1.1//EN"
 "http://www.w3.org/Graphics/SVG/1.1/DTD/svg11.dtd">
<!-- Generated by graphviz version 2.40.1 (20161225.0304)
 -->
<!-- Title: HoTT_Colimits_SpanPushout Pages: 1 -->
<svg width="830pt" height="419pt"
 viewBox="0.00 0.00 830.00 419.00" xmlns="http://www.w3.org/2000/svg" xmlns:xlink="http://www.w3.org/1999/xlink">
<g id="graph0" class="graph" transform="scale(1 1) rotate(0) translate(4 415)">
<title>HoTT_Colimits_SpanPushout</title>
<polygon fill="#ffffff" stroke="transparent" points="-4,4 -4,-415 826,-415 826,4 -4,4"/>
<g id="clust1" class="cluster">
<title>cluster_SpanPushout</title>
<polygon fill="#ffffc3" stroke="#000000" points="16.399,-8 16.399,-403 805.601,-403 805.601,-8 16.399,-8"/>
<text text-anchor="middle" x="71.899" y="-387.8" font-family="Times,serif" font-size="14.00" fill="#000000">SpanPushout</text>
</g>
<!-- SpanPushout_spushout_ind_beta_sglue -->
<g id="node1" class="node">
<title>SpanPushout_spushout_ind_beta_sglue</title>
<g id="a_node1"><a xlink:href="SpanPushout.html#spushout_ind_beta_sglue" xlink:title="spushout_ind_beta_sglue">
<ellipse fill="#f070d1" stroke="#000000" cx="504.4888" cy="-346" rx="128.075" ry="18"/>
<ellipse fill="none" stroke="#000000" cx="504.4888" cy="-346" rx="132.0762" ry="22"/>
<ellipse fill="none" stroke="#000000" cx="504.4888" cy="-346" rx="136.0773" ry="26"/>
<text text-anchor="middle" x="504.4888" y="-342.3" font-family="Times,serif" font-size="14.00" fill="#000000">spushout_ind_beta_sglue</text>
</a>
</g>
</g>
<!-- SpanPushout_SPushout_ind -->
<g id="node2" class="node">
<title>SpanPushout_SPushout_ind</title>
<g id="a_node2"><a xlink:href="SpanPushout.html#SPushout_ind" xlink:title="SPushout_ind">
<ellipse fill="#f070d1" stroke="#000000" cx="504.4888" cy="-266" rx="74.9875" ry="18"/>
<text text-anchor="middle" x="504.4888" y="-262.3" font-family="Times,serif" font-size="14.00" fill="#000000">SPushout_ind</text>
</a>
</g>
</g>
<!-- SpanPushout_spushout_ind_beta_sglue&#45;&gt;SpanPushout_SPushout_ind -->
<g id="edge1" class="edge">
<title>SpanPushout_spushout_ind_beta_sglue&#45;&gt;SpanPushout_SPushout_ind</title>
<path fill="none" stroke="#000000" d="M504.4888,-319.805C504.4888,-311.6026 504.4888,-302.5174 504.4888,-294.1839"/>
<polygon fill="#000000" stroke="#000000" points="507.9889,-294.1532 504.4888,-284.1532 500.9889,-294.1533 507.9889,-294.1532"/>
</g>
<!-- SpanPushout_spglue -->
<g id="node4" class="node">
<title>SpanPushout_spglue</title>
<g id="a_node4"><a xlink:href="SpanPushout.html#spglue" xlink:title="spglue">
<ellipse fill="#f070d1" stroke="#000000" cx="504.4888" cy="-194" rx="41.6928" ry="18"/>
<text text-anchor="middle" x="504.4888" y="-190.3" font-family="Times,serif" font-size="14.00" fill="#000000">spglue</text>
</a>
</g>
</g>
<!-- SpanPushout_SPushout_ind&#45;&gt;SpanPushout_spglue -->
<g id="edge2" class="edge">
<title>SpanPushout_SPushout_ind&#45;&gt;SpanPushout_spglue</title>
<path fill="none" stroke="#000000" d="M504.4888,-247.8314C504.4888,-240.131 504.4888,-230.9743 504.4888,-222.4166"/>
<polygon fill="#000000" stroke="#000000" points="507.9889,-222.4132 504.4888,-212.4133 500.9889,-222.4133 507.9889,-222.4132"/>
</g>
<!-- SpanPushout_SPushout_rec -->
<g id="node3" class="node">
<title>SpanPushout_SPushout_rec</title>
<g id="a_node3"><a xlink:href="SpanPushout.html#SPushout_rec" xlink:title="SPushout_rec">
<ellipse fill="#f070d1" stroke="#000000" cx="202.4888" cy="-114" rx="75.297" ry="18"/>
<ellipse fill="none" stroke="#000000" cx="202.4888" cy="-114" rx="79.2919" ry="22"/>
<ellipse fill="none" stroke="#000000" cx="202.4888" cy="-114" rx="83.2868" ry="26"/>
<text text-anchor="middle" x="202.4888" y="-110.3" font-family="Times,serif" font-size="14.00" fill="#000000">SPushout_rec</text>
</a>
</g>
</g>
<!-- SpanPushout_SPushout -->
<g id="node7" class="node">
<title>SpanPushout_SPushout</title>
<g id="a_node7"><a xlink:href="SpanPushout.html#SPushout" xlink:title="SPushout">
<ellipse fill="#f070d1" stroke="#000000" cx="498.4888" cy="-34" rx="55.4913" ry="18"/>
<text text-anchor="middle" x="498.4888" y="-30.3" font-family="Times,serif" font-size="14.00" fill="#000000">SPushout</text>
</a>
</g>
</g>
<!-- SpanPushout_SPushout_rec&#45;&gt;SpanPushout_SPushout -->
<g id="edge3" class="edge">
<title>SpanPushout_SPushout_rec&#45;&gt;SpanPushout_SPushout</title>
<path fill="none" stroke="#000000" d="M265.6251,-96.9361C319.2678,-82.4381 395.3759,-61.8684 445.7985,-48.2406"/>
<polygon fill="#000000" stroke="#000000" points="446.7859,-51.5994 455.5263,-45.6115 444.9595,-44.8419 446.7859,-51.5994"/>
</g>
<!-- SpanPushout_spushr -->
<g id="node5" class="node">
<title>SpanPushout_spushr</title>
<g id="a_node5"><a xlink:href="SpanPushout.html#spushr" xlink:title="spushr">
<ellipse fill="#f070d1" stroke="#000000" cx="498.4888" cy="-114" rx="42.4939" ry="18"/>
<text text-anchor="middle" x="498.4888" y="-110.3" font-family="Times,serif" font-size="14.00" fill="#000000">spushr</text>
</a>
</g>
</g>
<!-- SpanPushout_spglue&#45;&gt;SpanPushout_spushr -->
<g id="edge4" class="edge">
<title>SpanPushout_spglue&#45;&gt;SpanPushout_spushr</title>
<path fill="none" stroke="#000000" d="M503.1273,-175.8468C502.3832,-165.9251 501.445,-153.4167 500.6075,-142.2492"/>
<polygon fill="#000000" stroke="#000000" points="504.0831,-141.7916 499.8449,-132.0814 497.1027,-142.3152 504.0831,-141.7916"/>
</g>
<!-- SpanPushout_spushl -->
<g id="node6" class="node">
<title>SpanPushout_spushl</title>
<g id="a_node6"><a xlink:href="SpanPushout.html#spushl" xlink:title="spushl">
<ellipse fill="#f070d1" stroke="#000000" cx="705.4888" cy="-114" rx="40.8928" ry="18"/>
<text text-anchor="middle" x="705.4888" y="-110.3" font-family="Times,serif" font-size="14.00" fill="#000000">spushl</text>
</a>
</g>
</g>
<!-- SpanPushout_spglue&#45;&gt;SpanPushout_spushl -->
<g id="edge5" class="edge">
<title>SpanPushout_spglue&#45;&gt;SpanPushout_spushl</title>
<path fill="none" stroke="#000000" d="M535.4545,-181.6753C570.3768,-167.7759 627.2699,-145.1319 665.5196,-129.9081"/>
<polygon fill="#000000" stroke="#000000" points="666.8209,-133.1573 674.8177,-126.2074 664.2322,-126.6535 666.8209,-133.1573"/>
</g>
<!-- SpanPushout_spushr&#45;&gt;SpanPushout_SPushout -->
<g id="edge6" class="edge">
<title>SpanPushout_spushr&#45;&gt;SpanPushout_SPushout</title>
<path fill="none" stroke="#000000" d="M498.4888,-95.8468C498.4888,-85.9251 498.4888,-73.4167 498.4888,-62.2492"/>
<polygon fill="#000000" stroke="#000000" points="501.9889,-62.0814 498.4888,-52.0814 494.9889,-62.0814 501.9889,-62.0814"/>
</g>
<!-- SpanPushout_spushl&#45;&gt;SpanPushout_SPushout -->
<g id="edge7" class="edge">
<title>SpanPushout_spushl&#45;&gt;SpanPushout_SPushout</title>
<path fill="none" stroke="#000000" d="M674.4988,-102.0232C639.8021,-88.6138 583.2573,-66.7608 543.6454,-51.4518"/>
<polygon fill="#000000" stroke="#000000" points="544.8036,-48.1472 534.2142,-47.8069 542.2801,-54.6765 544.8036,-48.1472"/>
</g>
</g>
</svg>
