<?xml version="1.0" encoding="UTF-8" standalone="no"?>
<!DOCTYPE svg PUBLIC "-//W3C//DTD SVG 1.1//EN"
 "http://www.w3.org/Graphics/SVG/1.1/DTD/svg11.dtd">
<!-- Generated by graphviz version 2.40.1 (20161225.0304)
 -->
<!-- Title: HoTT_Diagrams_Span Pages: 1 -->
<svg width="366pt" height="187pt"
 viewBox="0.00 0.00 366.00 187.00" xmlns="http://www.w3.org/2000/svg" xmlns:xlink="http://www.w3.org/1999/xlink">
<g id="graph0" class="graph" transform="scale(1 1) rotate(0) translate(4 183)">
<title>HoTT_Diagrams_Span</title>
<polygon fill="#ffffff" stroke="transparent" points="-4,4 -4,-183 362,-183 362,4 -4,4"/>
<g id="clust1" class="cluster">
<title>cluster_Span</title>
<polygon fill="#ffffc3" stroke="#000000" points="17.679,-8 17.679,-171 340.321,-171 340.321,-8 17.679,-8"/>
<text text-anchor="middle" x="44.179" y="-155.8" font-family="Times,serif" font-size="14.00" fill="#000000">Span</text>
</g>
<!-- Span_span -->
<g id="node1" class="node">
<title>Span_span</title>
<g id="a_node1"><a xlink:href="Span.html#span" xlink:title="span">
<ellipse fill="#f070d1" stroke="#000000" cx="178.5432" cy="-114" rx="32.4948" ry="18"/>
<ellipse fill="none" stroke="#000000" cx="178.5432" cy="-114" rx="36.4945" ry="22"/>
<ellipse fill="none" stroke="#000000" cx="178.5432" cy="-114" rx="40.4942" ry="26"/>
<text text-anchor="middle" x="178.5432" y="-110.3" font-family="Times,serif" font-size="14.00" fill="#000000">span</text>
</a>
</g>
</g>
<!-- Span_span_graph -->
<g id="node2" class="node">
<title>Span_span_graph</title>
<g id="a_node2"><a xlink:href="Span.html#span_graph" xlink:title="span_graph">
<ellipse fill="#f070d1" stroke="#000000" cx="178.5432" cy="-34" rx="64.9885" ry="18"/>
<text text-anchor="middle" x="178.5432" y="-30.3" font-family="Times,serif" font-size="14.00" fill="#000000">span_graph</text>
</a>
</g>
</g>
<!-- Span_span&#45;&gt;Span_span_graph -->
<g id="edge1" class="edge">
<title>Span_span&#45;&gt;Span_span_graph</title>
<path fill="none" stroke="#000000" d="M178.5432,-87.805C178.5432,-79.6026 178.5432,-70.5174 178.5432,-62.1839"/>
<polygon fill="#000000" stroke="#000000" points="182.0433,-62.1532 178.5432,-52.1532 175.0433,-62.1533 182.0433,-62.1532"/>
</g>
</g>
</svg>
