<?xml version="1.0" encoding="UTF-8" standalone="no"?>
<!DOCTYPE svg PUBLIC "-//W3C//DTD SVG 1.1//EN"
 "http://www.w3.org/Graphics/SVG/1.1/DTD/svg11.dtd">
<!-- Generated by graphviz version 2.40.1 (20161225.0304)
 -->
<!-- Title: HoTT_Algebra_Universal_Homomorphism Pages: 1 -->
<svg width="2087pt" height="1048pt"
 viewBox="0.00 0.00 2087.00 1047.50" xmlns="http://www.w3.org/2000/svg" xmlns:xlink="http://www.w3.org/1999/xlink">
<g id="graph0" class="graph" transform="scale(1 1) rotate(0) translate(4 1043.5)">
<title>HoTT_Algebra_Universal_Homomorphism</title>
<polygon fill="#ffffff" stroke="transparent" points="-4,4 -4,-1043.5 2083,-1043.5 2083,4 -4,4"/>
<g id="clust1" class="cluster">
<title>cluster_Homomorphism</title>
<polygon fill="#ffffc3" stroke="#000000" points="8,-12.6191 8,-1026.8809 2071,-1026.8809 2071,-12.6191 8,-12.6191"/>
<text text-anchor="middle" x="73.5" y="-1011.6809" font-family="Times,serif" font-size="14.00" fill="#000000">Homomorphism</text>
</g>
<!-- Homomorphism_is1cat_strong_algebra -->
<g id="node1" class="node">
<title>Homomorphism_is1cat_strong_algebra</title>
<g id="a_node1"><a xlink:href="Homomorphism.html#is1cat_strong_algebra" xlink:title="is1cat_strong_algebra">
<ellipse fill="#f070d1" stroke="#000000" cx="1054" cy="-936.6191" rx="114.287" ry="18"/>
<ellipse fill="none" stroke="#000000" cx="1054" cy="-936.6191" rx="118.2834" ry="22"/>
<ellipse fill="none" stroke="#000000" cx="1054" cy="-936.6191" rx="122.2798" ry="26"/>
<text text-anchor="middle" x="1054" y="-932.9191" font-family="Times,serif" font-size="14.00" fill="#000000">is1cat_strong_algebra</text>
</a>
</g>
</g>
<!-- Homomorphism_is0functor_precomp_homomorphism -->
<g id="node3" class="node">
<title>Homomorphism_is0functor_precomp_homomorphism</title>
<g id="a_node3"><a xlink:href="Homomorphism.html#is0functor_precomp_homomorphism" xlink:title="is0functor_precomp_homomorphism">
<ellipse fill="#f070d1" stroke="#000000" cx="1626" cy="-810.6191" rx="181.168" ry="18"/>
<text text-anchor="middle" x="1626" y="-806.9191" font-family="Times,serif" font-size="14.00" fill="#000000">is0functor_precomp_homomorphism</text>
</a>
</g>
</g>
<!-- Homomorphism_is1cat_strong_algebra&#45;&gt;Homomorphism_is0functor_precomp_homomorphism -->
<g id="edge1" class="edge">
<title>Homomorphism_is1cat_strong_algebra&#45;&gt;Homomorphism_is0functor_precomp_homomorphism</title>
<path fill="none" stroke="#000000" d="M1139.0165,-917.8917C1247.36,-894.0258 1433.513,-853.0201 1541.5732,-829.2166"/>
<polygon fill="#000000" stroke="#000000" points="1542.4477,-832.608 1551.4606,-827.0386 1540.9417,-825.7719 1542.4477,-832.608"/>
</g>
<!-- Homomorphism_is0functor_postcomp_homomorphism -->
<g id="node4" class="node">
<title>Homomorphism_is0functor_postcomp_homomorphism</title>
<g id="a_node4"><a xlink:href="Homomorphism.html#is0functor_postcomp_homomorphism" xlink:title="is0functor_postcomp_homomorphism">
<ellipse fill="#f070d1" stroke="#000000" cx="1241" cy="-810.6191" rx="185.7671" ry="18"/>
<text text-anchor="middle" x="1241" y="-806.9191" font-family="Times,serif" font-size="14.00" fill="#000000">is0functor_postcomp_homomorphism</text>
</a>
</g>
</g>
<!-- Homomorphism_is1cat_strong_algebra&#45;&gt;Homomorphism_is0functor_postcomp_homomorphism -->
<g id="edge2" class="edge">
<title>Homomorphism_is1cat_strong_algebra&#45;&gt;Homomorphism_is0functor_postcomp_homomorphism</title>
<path fill="none" stroke="#000000" d="M1090.9452,-911.7256C1124.3617,-889.2097 1173.2159,-856.2918 1206.0118,-834.194"/>
<polygon fill="#000000" stroke="#000000" points="1208.0594,-837.0348 1214.3968,-828.5443 1204.1479,-831.2296 1208.0594,-837.0348"/>
</g>
<!-- Homomorphism_is0gpd_homomorphism -->
<g id="node5" class="node">
<title>Homomorphism_is0gpd_homomorphism</title>
<g id="a_node5"><a xlink:href="Homomorphism.html#is0gpd_homomorphism" xlink:title="is0gpd_homomorphism">
<ellipse fill="#f070d1" stroke="#000000" cx="1944" cy="-810.6191" rx="118.8789" ry="18"/>
<text text-anchor="middle" x="1944" y="-806.9191" font-family="Times,serif" font-size="14.00" fill="#000000">is0gpd_homomorphism</text>
</a>
</g>
</g>
<!-- Homomorphism_is1cat_strong_algebra&#45;&gt;Homomorphism_is0gpd_homomorphism -->
<g id="edge3" class="edge">
<title>Homomorphism_is1cat_strong_algebra&#45;&gt;Homomorphism_is0gpd_homomorphism</title>
<path fill="none" stroke="#000000" d="M1156.0943,-922.1653C1329.1197,-897.6696 1677.6387,-848.3287 1847.0876,-824.3393"/>
<polygon fill="#000000" stroke="#000000" points="1847.5875,-827.8035 1856.9981,-822.9362 1846.6062,-820.8726 1847.5875,-827.8035"/>
</g>
<!-- Homomorphism_right_id_homomorphism_compose -->
<g id="node8" class="node">
<title>Homomorphism_right_id_homomorphism_compose</title>
<g id="a_node8"><a xlink:href="Homomorphism.html#right_id_homomorphism_compose" xlink:title="right_id_homomorphism_compose">
<ellipse fill="#f070d1" stroke="#000000" cx="867" cy="-810.6191" rx="170.0701" ry="18"/>
<text text-anchor="middle" x="867" y="-806.9191" font-family="Times,serif" font-size="14.00" fill="#000000">right_id_homomorphism_compose</text>
</a>
</g>
</g>
<!-- Homomorphism_is1cat_strong_algebra&#45;&gt;Homomorphism_right_id_homomorphism_compose -->
<g id="edge4" class="edge">
<title>Homomorphism_is1cat_strong_algebra&#45;&gt;Homomorphism_right_id_homomorphism_compose</title>
<path fill="none" stroke="#000000" d="M1017.0548,-911.7256C983.6383,-889.2097 934.7841,-856.2918 901.9882,-834.194"/>
<polygon fill="#000000" stroke="#000000" points="903.8521,-831.2296 893.6032,-828.5443 899.9406,-837.0348 903.8521,-831.2296"/>
</g>
<!-- Homomorphism_left_id_homomorphism_compose -->
<g id="node9" class="node">
<title>Homomorphism_left_id_homomorphism_compose</title>
<g id="a_node9"><a xlink:href="Homomorphism.html#left_id_homomorphism_compose" xlink:title="left_id_homomorphism_compose">
<ellipse fill="#f070d1" stroke="#000000" cx="179" cy="-810.6191" rx="163.2712" ry="18"/>
<text text-anchor="middle" x="179" y="-806.9191" font-family="Times,serif" font-size="14.00" fill="#000000">left_id_homomorphism_compose</text>
</a>
</g>
</g>
<!-- Homomorphism_is1cat_strong_algebra&#45;&gt;Homomorphism_left_id_homomorphism_compose -->
<g id="edge5" class="edge">
<title>Homomorphism_is1cat_strong_algebra&#45;&gt;Homomorphism_left_id_homomorphism_compose</title>
<path fill="none" stroke="#000000" d="M952.3431,-921.9805C786.5449,-898.1056 459.3183,-850.985 288.5503,-826.3944"/>
<polygon fill="#000000" stroke="#000000" points="288.9306,-822.9131 278.5338,-824.952 287.9328,-829.8416 288.9306,-822.9131"/>
</g>
<!-- Homomorphism_assoc_homomorphism_compose -->
<g id="node10" class="node">
<title>Homomorphism_assoc_homomorphism_compose</title>
<g id="a_node10"><a xlink:href="Homomorphism.html#assoc_homomorphism_compose" xlink:title="assoc_homomorphism_compose">
<ellipse fill="#f070d1" stroke="#000000" cx="519" cy="-810.6191" rx="159.4721" ry="18"/>
<text text-anchor="middle" x="519" y="-806.9191" font-family="Times,serif" font-size="14.00" fill="#000000">assoc_homomorphism_compose</text>
</a>
</g>
</g>
<!-- Homomorphism_is1cat_strong_algebra&#45;&gt;Homomorphism_assoc_homomorphism_compose -->
<g id="edge6" class="edge">
<title>Homomorphism_is1cat_strong_algebra&#45;&gt;Homomorphism_assoc_homomorphism_compose</title>
<path fill="none" stroke="#000000" d="M971.8709,-917.2766C870.1043,-893.3091 697.9192,-852.7571 597.7442,-829.1645"/>
<polygon fill="#000000" stroke="#000000" points="598.5177,-825.751 587.9816,-826.8652 596.9129,-832.5645 598.5177,-825.751"/>
</g>
<!-- Homomorphism_is1cat_algebra -->
<g id="node2" class="node">
<title>Homomorphism_is1cat_algebra</title>
<g id="a_node2"><a xlink:href="Homomorphism.html#is1cat_algebra" xlink:title="is1cat_algebra">
<ellipse fill="#f070d1" stroke="#000000" cx="1626" cy="-936.6191" rx="79.1053" ry="18"/>
<ellipse fill="none" stroke="#000000" cx="1626" cy="-936.6191" rx="83.0959" ry="22"/>
<ellipse fill="none" stroke="#000000" cx="1626" cy="-936.6191" rx="87.0864" ry="26"/>
<text text-anchor="middle" x="1626" y="-932.9191" font-family="Times,serif" font-size="14.00" fill="#000000">is1cat_algebra</text>
</a>
</g>
</g>
<!-- Homomorphism_is1cat_algebra&#45;&gt;Homomorphism_is0functor_precomp_homomorphism -->
<g id="edge7" class="edge">
<title>Homomorphism_is1cat_algebra&#45;&gt;Homomorphism_is0functor_precomp_homomorphism</title>
<path fill="none" stroke="#000000" d="M1626,-910.5118C1626,-889.6693 1626,-860.5089 1626,-839.0729"/>
<polygon fill="#000000" stroke="#000000" points="1629.5001,-838.9469 1626,-828.9469 1622.5001,-838.947 1629.5001,-838.9469"/>
</g>
<!-- Homomorphism_is1cat_algebra&#45;&gt;Homomorphism_is0functor_postcomp_homomorphism -->
<g id="edge8" class="edge">
<title>Homomorphism_is1cat_algebra&#45;&gt;Homomorphism_is0functor_postcomp_homomorphism</title>
<path fill="none" stroke="#000000" d="M1567.1077,-917.3453C1495.8444,-894.0228 1376.3763,-854.9241 1303.5214,-831.0807"/>
<polygon fill="#000000" stroke="#000000" points="1304.5914,-827.7482 1293.9988,-827.9642 1302.4141,-834.401 1304.5914,-827.7482"/>
</g>
<!-- Homomorphism_is1cat_algebra&#45;&gt;Homomorphism_is0gpd_homomorphism -->
<g id="edge9" class="edge">
<title>Homomorphism_is1cat_algebra&#45;&gt;Homomorphism_is0gpd_homomorphism</title>
<path fill="none" stroke="#000000" d="M1678.5112,-915.8128C1737.4994,-892.4401 1832.6776,-854.728 1891.6143,-831.3757"/>
<polygon fill="#000000" stroke="#000000" points="1893.1004,-834.5517 1901.1079,-827.6141 1890.5218,-828.0439 1893.1004,-834.5517"/>
</g>
<!-- Homomorphism_is2graph_algebra -->
<g id="node7" class="node">
<title>Homomorphism_is2graph_algebra</title>
<g id="a_node7"><a xlink:href="Homomorphism.html#is2graph_algebra" xlink:title="is2graph_algebra">
<ellipse fill="#f070d1" stroke="#000000" cx="1626" cy="-545.6191" rx="91.784" ry="18"/>
<text text-anchor="middle" x="1626" y="-541.9191" font-family="Times,serif" font-size="14.00" fill="#000000">is2graph_algebra</text>
</a>
</g>
</g>
<!-- Homomorphism_is0functor_precomp_homomorphism&#45;&gt;Homomorphism_is2graph_algebra -->
<g id="edge10" class="edge">
<title>Homomorphism_is0functor_precomp_homomorphism&#45;&gt;Homomorphism_is2graph_algebra</title>
<path fill="none" stroke="#000000" d="M1626,-792.4046C1626,-747.019 1626,-628.6278 1626,-573.9967"/>
<polygon fill="#000000" stroke="#000000" points="1629.5001,-573.9611 1626,-563.9611 1622.5001,-573.9611 1629.5001,-573.9611"/>
</g>
<!-- Homomorphism_is01cat_algebra -->
<g id="node11" class="node">
<title>Homomorphism_is01cat_algebra</title>
<g id="a_node11"><a xlink:href="Homomorphism.html#is01cat_algebra" xlink:title="is01cat_algebra">
<ellipse fill="#f070d1" stroke="#000000" cx="876" cy="-684.6191" rx="85.2851" ry="18"/>
<text text-anchor="middle" x="876" y="-680.9191" font-family="Times,serif" font-size="14.00" fill="#000000">is01cat_algebra</text>
</a>
</g>
</g>
<!-- Homomorphism_is0functor_precomp_homomorphism&#45;&gt;Homomorphism_is01cat_algebra -->
<g id="edge11" class="edge">
<title>Homomorphism_is0functor_precomp_homomorphism&#45;&gt;Homomorphism_is01cat_algebra</title>
<path fill="none" stroke="#000000" d="M1533.6595,-795.1059C1384.1144,-769.9823 1091.706,-720.8577 952.8006,-697.5216"/>
<polygon fill="#000000" stroke="#000000" points="953.107,-694.0241 942.6653,-695.8189 951.9472,-700.9274 953.107,-694.0241"/>
</g>
<!-- Homomorphism_is0functor_postcomp_homomorphism&#45;&gt;Homomorphism_is2graph_algebra -->
<g id="edge12" class="edge">
<title>Homomorphism_is0functor_postcomp_homomorphism&#45;&gt;Homomorphism_is2graph_algebra</title>
<path fill="none" stroke="#000000" d="M1267.1599,-792.6129C1334.9781,-745.9329 1516.4399,-621.0306 1592.1213,-568.9382"/>
<polygon fill="#000000" stroke="#000000" points="1594.5588,-571.5095 1600.8116,-562.9566 1590.5899,-565.7434 1594.5588,-571.5095"/>
</g>
<!-- Homomorphism_is0functor_postcomp_homomorphism&#45;&gt;Homomorphism_is01cat_algebra -->
<g id="edge13" class="edge">
<title>Homomorphism_is0functor_postcomp_homomorphism&#45;&gt;Homomorphism_is01cat_algebra</title>
<path fill="none" stroke="#000000" d="M1190.6315,-793.2316C1122.2702,-769.633 1000.597,-727.6307 930.272,-703.3541"/>
<polygon fill="#000000" stroke="#000000" points="931.2952,-700.0047 920.7005,-700.05 929.011,-706.6216 931.2952,-700.0047"/>
</g>
<!-- Homomorphism_is01cat_homomorphism -->
<g id="node6" class="node">
<title>Homomorphism_is01cat_homomorphism</title>
<g id="a_node6"><a xlink:href="Homomorphism.html#is01cat_homomorphism" xlink:title="is01cat_homomorphism">
<ellipse fill="#f070d1" stroke="#000000" cx="1854" cy="-684.6191" rx="122.3786" ry="18"/>
<text text-anchor="middle" x="1854" y="-680.9191" font-family="Times,serif" font-size="14.00" fill="#000000">is01cat_homomorphism</text>
</a>
</g>
</g>
<!-- Homomorphism_is0gpd_homomorphism&#45;&gt;Homomorphism_is01cat_homomorphism -->
<g id="edge14" class="edge">
<title>Homomorphism_is0gpd_homomorphism&#45;&gt;Homomorphism_is01cat_homomorphism</title>
<path fill="none" stroke="#000000" d="M1931.1052,-792.5664C1915.8675,-771.2336 1890.382,-735.5539 1872.9111,-711.0946"/>
<polygon fill="#000000" stroke="#000000" points="1875.5314,-708.7414 1866.8709,-702.6384 1869.8352,-712.8101 1875.5314,-708.7414"/>
</g>
<!-- Homomorphism_is01cat_homomorphism&#45;&gt;Homomorphism_is2graph_algebra -->
<g id="edge15" class="edge">
<title>Homomorphism_is01cat_homomorphism&#45;&gt;Homomorphism_is2graph_algebra</title>
<path fill="none" stroke="#000000" d="M1825.1236,-667.0147C1783.8955,-641.88 1708.1575,-595.7064 1662.9085,-568.1203"/>
<polygon fill="#000000" stroke="#000000" points="1664.6447,-565.0797 1654.2844,-562.8627 1661.0009,-571.0566 1664.6447,-565.0797"/>
</g>
<!-- Homomorphism_isgraph_algebra -->
<g id="node21" class="node">
<title>Homomorphism_isgraph_algebra</title>
<g id="a_node21"><a xlink:href="Homomorphism.html#isgraph_algebra" xlink:title="isgraph_algebra">
<ellipse fill="#f070d1" stroke="#000000" cx="1450" cy="-406.6191" rx="85.5853" ry="18"/>
<text text-anchor="middle" x="1450" y="-402.9191" font-family="Times,serif" font-size="14.00" fill="#000000">isgraph_algebra</text>
</a>
</g>
</g>
<!-- Homomorphism_is2graph_algebra&#45;&gt;Homomorphism_isgraph_algebra -->
<g id="edge16" class="edge">
<title>Homomorphism_is2graph_algebra&#45;&gt;Homomorphism_isgraph_algebra</title>
<path fill="none" stroke="#000000" d="M1603.7095,-528.0147C1572.3677,-503.2618 1515.1899,-458.1043 1480.0987,-430.3902"/>
<polygon fill="#000000" stroke="#000000" points="1482.1265,-427.5319 1472.1095,-424.0806 1477.788,-433.0252 1482.1265,-427.5319"/>
</g>
<!-- Homomorphism_right_id_homomorphism_compose&#45;&gt;Homomorphism_is01cat_algebra -->
<g id="edge17" class="edge">
<title>Homomorphism_right_id_homomorphism_compose&#45;&gt;Homomorphism_is01cat_algebra</title>
<path fill="none" stroke="#000000" d="M868.2895,-792.5664C869.7798,-771.7014 872.2505,-737.1119 873.9928,-712.7197"/>
<polygon fill="#000000" stroke="#000000" points="877.4915,-712.8623 874.7129,-702.6384 870.5092,-712.3635 877.4915,-712.8623"/>
</g>
<!-- Homomorphism_path_homomorphism -->
<g id="node16" class="node">
<title>Homomorphism_path_homomorphism</title>
<g id="a_node16"><a xlink:href="Homomorphism.html#path_homomorphism" xlink:title="path_homomorphism">
<ellipse fill="#f070d1" stroke="#000000" cx="348" cy="-684.6191" rx="108.5808" ry="18"/>
<text text-anchor="middle" x="348" y="-680.9191" font-family="Times,serif" font-size="14.00" fill="#000000">path_homomorphism</text>
</a>
</g>
</g>
<!-- Homomorphism_right_id_homomorphism_compose&#45;&gt;Homomorphism_path_homomorphism -->
<g id="edge18" class="edge">
<title>Homomorphism_right_id_homomorphism_compose&#45;&gt;Homomorphism_path_homomorphism</title>
<path fill="none" stroke="#000000" d="M798.8832,-794.0821C700.4078,-770.1748 519.1397,-726.1675 419.0497,-701.8682"/>
<polygon fill="#000000" stroke="#000000" points="419.8704,-698.4658 409.3269,-699.5077 418.2189,-705.2682 419.8704,-698.4658"/>
</g>
<!-- Homomorphism_left_id_homomorphism_compose&#45;&gt;Homomorphism_is01cat_algebra -->
<g id="edge19" class="edge">
<title>Homomorphism_left_id_homomorphism_compose&#45;&gt;Homomorphism_is01cat_algebra</title>
<path fill="none" stroke="#000000" d="M264.1172,-795.2321C401.621,-770.3749 670.3855,-721.789 801.0701,-698.1646"/>
<polygon fill="#000000" stroke="#000000" points="801.7802,-701.593 810.998,-696.3698 800.5349,-694.7047 801.7802,-701.593"/>
</g>
<!-- Homomorphism_left_id_homomorphism_compose&#45;&gt;Homomorphism_path_homomorphism -->
<g id="edge20" class="edge">
<title>Homomorphism_left_id_homomorphism_compose&#45;&gt;Homomorphism_path_homomorphism</title>
<path fill="none" stroke="#000000" d="M203.2136,-792.5664C232.8726,-770.4537 283.2075,-732.926 316.0252,-708.4583"/>
<polygon fill="#000000" stroke="#000000" points="318.4512,-711.0153 324.3762,-702.2321 314.2671,-705.4034 318.4512,-711.0153"/>
</g>
<!-- Homomorphism_assoc_homomorphism_compose&#45;&gt;Homomorphism_is01cat_algebra -->
<g id="edge21" class="edge">
<title>Homomorphism_assoc_homomorphism_compose&#45;&gt;Homomorphism_is01cat_algebra</title>
<path fill="none" stroke="#000000" d="M567.8908,-793.3636C634.5072,-769.8519 753.3772,-727.8977 822.3718,-703.5467"/>
<polygon fill="#000000" stroke="#000000" points="823.9123,-706.7147 832.1773,-700.086 821.5825,-700.1138 823.9123,-706.7147"/>
</g>
<!-- Homomorphism_assoc_homomorphism_compose&#45;&gt;Homomorphism_path_homomorphism -->
<g id="edge22" class="edge">
<title>Homomorphism_assoc_homomorphism_compose&#45;&gt;Homomorphism_path_homomorphism</title>
<path fill="none" stroke="#000000" d="M494.4999,-792.5664C464.4898,-770.4537 413.5593,-732.926 380.3532,-708.4583"/>
<polygon fill="#000000" stroke="#000000" points="382.0302,-705.3465 371.9034,-702.2321 377.8777,-710.9819 382.0302,-705.3465"/>
</g>
<!-- Homomorphism_homomorphism_compose -->
<g id="node12" class="node">
<title>Homomorphism_homomorphism_compose</title>
<g id="a_node12"><a xlink:href="Homomorphism.html#homomorphism_compose" xlink:title="homomorphism_compose">
<ellipse fill="#f070d1" stroke="#000000" cx="876" cy="-545.6191" rx="128.8774" ry="18"/>
<text text-anchor="middle" x="876" y="-541.9191" font-family="Times,serif" font-size="14.00" fill="#000000">homomorphism_compose</text>
</a>
</g>
</g>
<!-- Homomorphism_is01cat_algebra&#45;&gt;Homomorphism_homomorphism_compose -->
<g id="edge23" class="edge">
<title>Homomorphism_is01cat_algebra&#45;&gt;Homomorphism_homomorphism_compose</title>
<path fill="none" stroke="#000000" d="M876,-666.4473C876,-642.9298 876,-601.6963 876,-574.0249"/>
<polygon fill="#000000" stroke="#000000" points="879.5001,-573.7954 876,-563.7954 872.5001,-573.7954 879.5001,-573.7954"/>
</g>
<!-- Homomorphism_homomorphism_id -->
<g id="node14" class="node">
<title>Homomorphism_homomorphism_id</title>
<g id="a_node14"><a xlink:href="Homomorphism.html#homomorphism_id" xlink:title="homomorphism_id">
<ellipse fill="#f070d1" stroke="#000000" cx="1130" cy="-545.6191" rx="96.6831" ry="18"/>
<text text-anchor="middle" x="1130" y="-541.9191" font-family="Times,serif" font-size="14.00" fill="#000000">homomorphism_id</text>
</a>
</g>
</g>
<!-- Homomorphism_is01cat_algebra&#45;&gt;Homomorphism_homomorphism_id -->
<g id="edge24" class="edge">
<title>Homomorphism_is01cat_algebra&#45;&gt;Homomorphism_homomorphism_id</title>
<path fill="none" stroke="#000000" d="M906.8915,-667.714C952.6939,-642.6488 1038.6603,-595.6042 1089.4679,-567.8001"/>
<polygon fill="#000000" stroke="#000000" points="1091.4359,-570.7129 1098.5281,-562.842 1088.0755,-564.5723 1091.4359,-570.7129"/>
</g>
<!-- Homomorphism_is_homomorphism_compose -->
<g id="node13" class="node">
<title>Homomorphism_is_homomorphism_compose</title>
<g id="a_node13"><a xlink:href="Homomorphism.html#is_homomorphism_compose" xlink:title="is_homomorphism_compose">
<ellipse fill="#f070d1" stroke="#000000" cx="510" cy="-406.6191" rx="141.8751" ry="18"/>
<text text-anchor="middle" x="510" y="-402.9191" font-family="Times,serif" font-size="14.00" fill="#000000">is_homomorphism_compose</text>
</a>
</g>
</g>
<!-- Homomorphism_homomorphism_compose&#45;&gt;Homomorphism_is_homomorphism_compose -->
<g id="edge25" class="edge">
<title>Homomorphism_homomorphism_compose&#45;&gt;Homomorphism_is_homomorphism_compose</title>
<path fill="none" stroke="#000000" d="M831.4871,-528.714C764.3017,-503.1982 637.1426,-454.9055 564.5055,-427.3193"/>
<polygon fill="#000000" stroke="#000000" points="565.653,-424.0112 555.0618,-423.7328 563.1677,-430.5552 565.653,-424.0112"/>
</g>
<!-- Homomorphism_homomorphism_compose&#45;&gt;Homomorphism_isgraph_algebra -->
<g id="edge26" class="edge">
<title>Homomorphism_homomorphism_compose&#45;&gt;Homomorphism_isgraph_algebra</title>
<path fill="none" stroke="#000000" d="M944.5628,-530.3545C1037.8924,-509.3761 1210.0278,-469.9741 1356,-432.6191 1366.6752,-429.8873 1377.9974,-426.8642 1388.9479,-423.8744"/>
<polygon fill="#000000" stroke="#000000" points="1390.1558,-427.1723 1398.8708,-421.1474 1388.3008,-420.4226 1390.1558,-427.1723"/>
</g>
<!-- Homomorphism_def_homomorphism -->
<g id="node23" class="node">
<title>Homomorphism_def_homomorphism</title>
<g id="a_node23"><a xlink:href="Homomorphism.html#def_homomorphism" xlink:title="def_homomorphism">
<ellipse fill="#f070d1" stroke="#000000" cx="1244" cy="-406.6191" rx="102.8821" ry="18"/>
<text text-anchor="middle" x="1244" y="-402.9191" font-family="Times,serif" font-size="14.00" fill="#000000">def_homomorphism</text>
</a>
</g>
</g>
<!-- Homomorphism_homomorphism_compose&#45;&gt;Homomorphism_def_homomorphism -->
<g id="edge27" class="edge">
<title>Homomorphism_homomorphism_compose&#45;&gt;Homomorphism_def_homomorphism</title>
<path fill="none" stroke="#000000" d="M920.7561,-528.714C988.9502,-502.9559 1118.5968,-453.9861 1191.2627,-426.5389"/>
<polygon fill="#000000" stroke="#000000" points="1192.5769,-429.7839 1200.6951,-422.9761 1190.1034,-423.2355 1192.5769,-429.7839"/>
</g>
<!-- Homomorphism_Build_Homomorphism -->
<g id="node24" class="node">
<title>Homomorphism_Build_Homomorphism</title>
<g id="a_node24"><a xlink:href="Homomorphism.html#Build_Homomorphism" xlink:title="Build_Homomorphism">
<ellipse fill="#7faaff" stroke="#000000" cx="784" cy="-406.6191" rx="114.2798" ry="18"/>
<text text-anchor="middle" x="784" y="-402.9191" font-family="Times,serif" font-size="14.00" fill="#000000">Build_Homomorphism</text>
</a>
</g>
</g>
<!-- Homomorphism_homomorphism_compose&#45;&gt;Homomorphism_Build_Homomorphism -->
<g id="edge28" class="edge">
<title>Homomorphism_homomorphism_compose&#45;&gt;Homomorphism_Build_Homomorphism</title>
<path fill="none" stroke="#000000" d="M863.9726,-527.4473C848.0627,-503.4095 819.9025,-460.8631 801.5988,-433.2086"/>
<polygon fill="#000000" stroke="#000000" points="804.4683,-431.2026 796.0303,-424.7954 798.631,-435.0661 804.4683,-431.2026"/>
</g>
<!-- Homomorphism_oppreserving_hom -->
<g id="node27" class="node">
<title>Homomorphism_oppreserving_hom</title>
<g id="a_node27"><a xlink:href="Homomorphism.html#oppreserving_hom" xlink:title="oppreserving_hom">
<ellipse fill="#f070d1" stroke="#000000" cx="772" cy="-280.6191" rx="96.6831" ry="18"/>
<text text-anchor="middle" x="772" y="-276.9191" font-family="Times,serif" font-size="14.00" fill="#000000">oppreserving_hom</text>
</a>
</g>
</g>
<!-- Homomorphism_is_homomorphism_compose&#45;&gt;Homomorphism_oppreserving_hom -->
<g id="edge29" class="edge">
<title>Homomorphism_is_homomorphism_compose&#45;&gt;Homomorphism_oppreserving_hom</title>
<path fill="none" stroke="#000000" d="M546.43,-389.0994C593.8176,-366.3099 676.5571,-326.5191 727.5752,-301.9837"/>
<polygon fill="#000000" stroke="#000000" points="729.2215,-305.0758 736.7165,-297.5875 726.1876,-298.7674 729.2215,-305.0758"/>
</g>
<!-- Homomorphism_is_homomorphism_id -->
<g id="node15" class="node">
<title>Homomorphism_is_homomorphism_id</title>
<g id="a_node15"><a xlink:href="Homomorphism.html#is_homomorphism_id" xlink:title="is_homomorphism_id">
<ellipse fill="#f070d1" stroke="#000000" cx="1449" cy="-280.6191" rx="109.381" ry="18"/>
<text text-anchor="middle" x="1449" y="-276.9191" font-family="Times,serif" font-size="14.00" fill="#000000">is_homomorphism_id</text>
</a>
</g>
</g>
<!-- Homomorphism_homomorphism_id&#45;&gt;Homomorphism_is_homomorphism_id -->
<g id="edge30" class="edge">
<title>Homomorphism_homomorphism_id&#45;&gt;Homomorphism_is_homomorphism_id</title>
<path fill="none" stroke="#000000" d="M1195.5548,-532.3035C1307.0157,-509.0129 1523.5498,-460.691 1545,-432.6191 1577.9067,-389.5542 1522.0007,-334.9757 1482.6271,-304.3178"/>
<polygon fill="#000000" stroke="#000000" points="1484.5934,-301.4161 1474.514,-298.1515 1480.3576,-306.9891 1484.5934,-301.4161"/>
</g>
<!-- Homomorphism_homomorphism_id&#45;&gt;Homomorphism_isgraph_algebra -->
<g id="edge31" class="edge">
<title>Homomorphism_homomorphism_id&#45;&gt;Homomorphism_isgraph_algebra</title>
<path fill="none" stroke="#000000" d="M1168.2816,-528.9905C1227.1391,-503.4243 1339.6997,-454.5308 1403.2753,-426.9152"/>
<polygon fill="#000000" stroke="#000000" points="1404.8874,-430.0309 1412.665,-422.8365 1402.0985,-423.6104 1404.8874,-430.0309"/>
</g>
<!-- Homomorphism_homomorphism_id&#45;&gt;Homomorphism_Build_Homomorphism -->
<g id="edge32" class="edge">
<title>Homomorphism_homomorphism_id&#45;&gt;Homomorphism_Build_Homomorphism</title>
<path fill="none" stroke="#000000" d="M1089.292,-529.2653C1026.08,-503.8709 904.4187,-454.9954 835.2932,-427.2253"/>
<polygon fill="#000000" stroke="#000000" points="836.4835,-423.9317 825.8995,-423.4516 833.874,-430.4271 836.4835,-423.9317"/>
</g>
<!-- Homomorphism_IsHomomorphism -->
<g id="node28" class="node">
<title>Homomorphism_IsHomomorphism</title>
<g id="a_node28"><a xlink:href="Homomorphism.html#IsHomomorphism" xlink:title="IsHomomorphism">
<ellipse fill="#f070d1" stroke="#000000" cx="772" cy="-167.6191" rx="94.4839" ry="18"/>
<text text-anchor="middle" x="772" y="-163.9191" font-family="Times,serif" font-size="14.00" fill="#000000">IsHomomorphism</text>
</a>
</g>
</g>
<!-- Homomorphism_is_homomorphism_id&#45;&gt;Homomorphism_IsHomomorphism -->
<g id="edge33" class="edge">
<title>Homomorphism_is_homomorphism_id&#45;&gt;Homomorphism_IsHomomorphism</title>
<path fill="none" stroke="#000000" d="M1371.9986,-267.7666C1243.0567,-246.2445 984.6799,-203.1181 853.0706,-181.1508"/>
<polygon fill="#000000" stroke="#000000" points="853.4869,-177.672 843.0471,-179.4778 852.3344,-184.5765 853.4869,-177.672"/>
</g>
<!-- Homomorphism_issig_homomorphism -->
<g id="node18" class="node">
<title>Homomorphism_issig_homomorphism</title>
<g id="a_node18"><a xlink:href="Homomorphism.html#issig_homomorphism" xlink:title="issig_homomorphism">
<ellipse fill="#f070d1" stroke="#000000" cx="590" cy="-545.6191" rx="109.381" ry="18"/>
<text text-anchor="middle" x="590" y="-541.9191" font-family="Times,serif" font-size="14.00" fill="#000000">issig_homomorphism</text>
</a>
</g>
</g>
<!-- Homomorphism_path_homomorphism&#45;&gt;Homomorphism_issig_homomorphism -->
<g id="edge34" class="edge">
<title>Homomorphism_path_homomorphism&#45;&gt;Homomorphism_issig_homomorphism</title>
<path fill="none" stroke="#000000" d="M378.1602,-667.2957C421.845,-642.204 502.757,-595.7298 550.9494,-568.049"/>
<polygon fill="#000000" stroke="#000000" points="552.9126,-570.9577 559.8408,-562.942 549.4261,-564.8877 552.9126,-570.9577"/>
</g>
<!-- Homomorphism_hprop_is_homomorphism -->
<g id="node26" class="node">
<title>Homomorphism_hprop_is_homomorphism</title>
<g id="a_node26"><a xlink:href="Homomorphism.html#hprop_is_homomorphism" xlink:title="hprop_is_homomorphism">
<ellipse fill="#f070d1" stroke="#000000" cx="309" cy="-280.6191" rx="128.0773" ry="18"/>
<text text-anchor="middle" x="309" y="-276.9191" font-family="Times,serif" font-size="14.00" fill="#000000">hprop_is_homomorphism</text>
</a>
</g>
</g>
<!-- Homomorphism_path_homomorphism&#45;&gt;Homomorphism_hprop_is_homomorphism -->
<g id="edge35" class="edge">
<title>Homomorphism_path_homomorphism&#45;&gt;Homomorphism_hprop_is_homomorphism</title>
<path fill="none" stroke="#000000" d="M343.1951,-666.3749C337.5619,-644.1626 328.433,-605.4243 324,-571.6191 311.4423,-475.8566 309.2723,-361.0787 308.9806,-308.9102"/>
<polygon fill="#000000" stroke="#000000" points="312.4801,-308.7449 308.9438,-298.7577 305.4802,-308.7703 312.4801,-308.7449"/>
</g>
<!-- Homomorphism_hset_homomorphism -->
<g id="node17" class="node">
<title>Homomorphism_hset_homomorphism</title>
<g id="a_node17"><a xlink:href="Homomorphism.html#hset_homomorphism" xlink:title="hset_homomorphism">
<ellipse fill="#f070d1" stroke="#000000" cx="590" cy="-684.6191" rx="107.7885" ry="18"/>
<ellipse fill="none" stroke="#000000" cx="590" cy="-684.6191" rx="111.7847" ry="22"/>
<ellipse fill="none" stroke="#000000" cx="590" cy="-684.6191" rx="115.781" ry="26"/>
<text text-anchor="middle" x="590" y="-680.9191" font-family="Times,serif" font-size="14.00" fill="#000000">hset_homomorphism</text>
</a>
</g>
</g>
<!-- Homomorphism_hset_homomorphism&#45;&gt;Homomorphism_issig_homomorphism -->
<g id="edge36" class="edge">
<title>Homomorphism_hset_homomorphism&#45;&gt;Homomorphism_issig_homomorphism</title>
<path fill="none" stroke="#000000" d="M590,-658.4743C590,-634.3606 590,-598.6532 590,-573.8871"/>
<polygon fill="#000000" stroke="#000000" points="593.5001,-573.684 590,-563.684 586.5001,-573.6841 593.5001,-573.684"/>
</g>
<!-- Homomorphism_hset_homomorphism&#45;&gt;Homomorphism_hprop_is_homomorphism -->
<g id="edge37" class="edge">
<title>Homomorphism_hset_homomorphism&#45;&gt;Homomorphism_hprop_is_homomorphism</title>
<path fill="none" stroke="#000000" d="M555.606,-659.4623C502.0663,-618.3437 399.5015,-531.3586 347,-432.6191 325.8667,-392.8738 316.1766,-340.9961 311.9663,-309.2806"/>
<polygon fill="#000000" stroke="#000000" points="315.3911,-308.4538 310.6958,-298.9562 308.4435,-309.3088 315.3911,-308.4538"/>
</g>
<!-- Homomorphism_SigHomomorphism -->
<g id="node19" class="node">
<title>Homomorphism_SigHomomorphism</title>
<g id="a_node19"><a xlink:href="Homomorphism.html#SigHomomorphism" xlink:title="SigHomomorphism">
<ellipse fill="#f070d1" stroke="#000000" cx="556" cy="-280.6191" rx="100.9827" ry="18"/>
<text text-anchor="middle" x="556" y="-276.9191" font-family="Times,serif" font-size="14.00" fill="#000000">SigHomomorphism</text>
</a>
</g>
</g>
<!-- Homomorphism_issig_homomorphism&#45;&gt;Homomorphism_SigHomomorphism -->
<g id="edge38" class="edge">
<title>Homomorphism_issig_homomorphism&#45;&gt;Homomorphism_SigHomomorphism</title>
<path fill="none" stroke="#000000" d="M518.9249,-531.8876C464.7549,-517.2904 393.7455,-488.2957 359,-432.6191 319.9557,-370.054 420.5973,-323.3373 491.9824,-299.1553"/>
<polygon fill="#000000" stroke="#000000" points="493.4486,-302.3569 501.8434,-295.8933 491.2502,-295.711 493.4486,-302.3569"/>
</g>
<!-- Homomorphism_issig_homomorphism&#45;&gt;Homomorphism_isgraph_algebra -->
<g id="edge39" class="edge">
<title>Homomorphism_issig_homomorphism&#45;&gt;Homomorphism_isgraph_algebra</title>
<path fill="none" stroke="#000000" d="M663.3144,-532.2309C687.1095,-528.0218 713.6497,-523.4708 738,-519.6191 1011.9687,-476.283 1084.4247,-489.0437 1356,-432.6191 1367.4117,-430.2481 1379.4828,-427.2724 1391.0336,-424.1885"/>
<polygon fill="#000000" stroke="#000000" points="1392.295,-427.4723 1401.0208,-421.463 1390.4521,-420.7193 1392.295,-427.4723"/>
</g>
<!-- Homomorphism_issig_homomorphism&#45;&gt;Homomorphism_Build_Homomorphism -->
<g id="edge40" class="edge">
<title>Homomorphism_issig_homomorphism&#45;&gt;Homomorphism_Build_Homomorphism</title>
<path fill="none" stroke="#000000" d="M614.5702,-528.0147C649.1684,-503.2253 712.329,-457.971 750.9941,-430.2676"/>
<polygon fill="#000000" stroke="#000000" points="753.2333,-432.969 759.3236,-424.2996 749.1563,-427.2788 753.2333,-432.969"/>
</g>
<!-- Homomorphism_SigHomomorphism&#45;&gt;Homomorphism_IsHomomorphism -->
<g id="edge41" class="edge">
<title>Homomorphism_SigHomomorphism&#45;&gt;Homomorphism_IsHomomorphism</title>
<path fill="none" stroke="#000000" d="M588.8058,-263.4569C626.7689,-243.5965 689.3401,-210.8625 730.6139,-189.2702"/>
<polygon fill="#000000" stroke="#000000" points="732.355,-192.3094 739.5933,-184.5726 729.1101,-186.1069 732.355,-192.3094"/>
</g>
<!-- Homomorphism_apD10_homomorphism -->
<g id="node20" class="node">
<title>Homomorphism_apD10_homomorphism</title>
<g id="a_node20"><a xlink:href="Homomorphism.html#apD10_homomorphism" xlink:title="apD10_homomorphism">
<ellipse fill="#f070d1" stroke="#000000" cx="1390" cy="-545.6191" rx="118.0927" ry="18"/>
<ellipse fill="none" stroke="#000000" cx="1390" cy="-545.6191" rx="122.086" ry="22"/>
<ellipse fill="none" stroke="#000000" cx="1390" cy="-545.6191" rx="126.0794" ry="26"/>
<text text-anchor="middle" x="1390" y="-541.9191" font-family="Times,serif" font-size="14.00" fill="#000000">apD10_homomorphism</text>
</a>
</g>
</g>
<!-- Homomorphism_apD10_homomorphism&#45;&gt;Homomorphism_isgraph_algebra -->
<g id="edge42" class="edge">
<title>Homomorphism_apD10_homomorphism&#45;&gt;Homomorphism_isgraph_algebra</title>
<path fill="none" stroke="#000000" d="M1401.2855,-519.4743C1411.8344,-495.0362 1427.5232,-458.6904 1438.2269,-433.8935"/>
<polygon fill="#000000" stroke="#000000" points="1441.4525,-435.2523 1442.2022,-424.684 1435.0256,-432.4781 1441.4525,-435.2523"/>
</g>
<!-- Homomorphism_Homomorphism -->
<g id="node25" class="node">
<title>Homomorphism_Homomorphism</title>
<g id="a_node25"><a xlink:href="Homomorphism.html#Homomorphism" xlink:title="Homomorphism">
<ellipse fill="#e2cdfa" stroke="#000000" cx="1132" cy="-280.6191" rx="85.2851" ry="18"/>
<text text-anchor="middle" x="1132" y="-276.9191" font-family="Times,serif" font-size="14.00" fill="#000000">Homomorphism</text>
</a>
</g>
</g>
<!-- Homomorphism_isgraph_algebra&#45;&gt;Homomorphism_Homomorphism -->
<g id="edge43" class="edge">
<title>Homomorphism_isgraph_algebra&#45;&gt;Homomorphism_Homomorphism</title>
<path fill="none" stroke="#000000" d="M1409.7251,-390.6611C1351.6226,-367.6394 1244.3779,-325.1462 1181.5156,-300.2385"/>
<polygon fill="#000000" stroke="#000000" points="1182.7842,-296.9765 1172.1981,-296.5467 1180.2056,-303.4843 1182.7842,-296.9765"/>
</g>
<!-- Homomorphism_is_homomorphism -->
<g id="node22" class="node">
<title>Homomorphism_is_homomorphism</title>
<g id="a_node22"><a xlink:href="Homomorphism.html#is_homomorphism" xlink:title="is_homomorphism">
<ellipse fill="#f070d1" stroke="#000000" cx="1020" cy="-406.6191" rx="95.5799" ry="18"/>
<ellipse fill="none" stroke="#000000" cx="1020" cy="-406.6191" rx="99.5815" ry="22"/>
<ellipse fill="none" stroke="#000000" cx="1020" cy="-406.6191" rx="103.5831" ry="26"/>
<text text-anchor="middle" x="1020" y="-402.9191" font-family="Times,serif" font-size="14.00" fill="#000000">is_homomorphism</text>
</a>
</g>
</g>
<!-- Homomorphism_is_homomorphism&#45;&gt;Homomorphism_Homomorphism -->
<g id="edge44" class="edge">
<title>Homomorphism_is_homomorphism&#45;&gt;Homomorphism_Homomorphism</title>
<path fill="none" stroke="#000000" d="M1042.6649,-381.1211C1062.1343,-359.218 1090.0559,-327.8062 1109.4825,-305.9513"/>
<polygon fill="#000000" stroke="#000000" points="1112.1962,-308.1665 1116.224,-298.3671 1106.9644,-303.516 1112.1962,-308.1665"/>
</g>
<!-- Homomorphism_def_homomorphism&#45;&gt;Homomorphism_Homomorphism -->
<g id="edge45" class="edge">
<title>Homomorphism_def_homomorphism&#45;&gt;Homomorphism_Homomorphism</title>
<path fill="none" stroke="#000000" d="M1228.1907,-388.8336C1208.9295,-367.1648 1176.2612,-330.413 1154.412,-305.8326"/>
<polygon fill="#000000" stroke="#000000" points="1156.9885,-303.463 1147.7289,-298.3141 1151.7566,-308.1135 1156.9885,-303.463"/>
</g>
<!-- Homomorphism_Build_Homomorphism&#45;&gt;Homomorphism_IsHomomorphism -->
<g id="edge46" class="edge">
<title>Homomorphism_Build_Homomorphism&#45;&gt;Homomorphism_IsHomomorphism</title>
<path fill="none" stroke="#000000" d="M809.7292,-389.0542C844.5395,-362.9445 899.9144,-311.6869 878,-262.6191 864.3578,-232.0732 835.5021,-207.2675 811.3379,-190.6729"/>
<polygon fill="#000000" stroke="#000000" points="812.953,-187.5443 802.6844,-184.9352 809.0846,-193.3784 812.953,-187.5443"/>
</g>
<!-- Homomorphism_Homomorphism&#45;&gt;Homomorphism_IsHomomorphism -->
<g id="edge47" class="edge">
<title>Homomorphism_Homomorphism&#45;&gt;Homomorphism_IsHomomorphism</title>
<path fill="none" stroke="#000000" d="M1084.1948,-265.6136C1018.7983,-245.0864 901.5175,-208.2732 830.8147,-186.0804"/>
<polygon fill="#000000" stroke="#000000" points="831.7469,-182.7047 821.1576,-183.0492 829.6505,-189.3834 831.7469,-182.7047"/>
</g>
<!-- Homomorphism_hprop_is_homomorphism&#45;&gt;Homomorphism_IsHomomorphism -->
<g id="edge48" class="edge">
<title>Homomorphism_hprop_is_homomorphism&#45;&gt;Homomorphism_IsHomomorphism</title>
<path fill="none" stroke="#000000" d="M373.3782,-264.907C460.4357,-243.6597 615.0105,-205.9341 703.9303,-184.2322"/>
<polygon fill="#000000" stroke="#000000" points="704.7616,-187.6322 713.6466,-181.8609 703.1019,-180.8318 704.7616,-187.6322"/>
</g>
<!-- Homomorphism_hprop_oppreserving -->
<g id="node29" class="node">
<title>Homomorphism_hprop_oppreserving</title>
<g id="a_node29"><a xlink:href="Homomorphism.html#hprop_oppreserving" xlink:title="hprop_oppreserving">
<ellipse fill="#f070d1" stroke="#000000" cx="425" cy="-167.6191" rx="104.7816" ry="18"/>
<text text-anchor="middle" x="425" y="-163.9191" font-family="Times,serif" font-size="14.00" fill="#000000">hprop_oppreserving</text>
</a>
</g>
</g>
<!-- Homomorphism_hprop_is_homomorphism&#45;&gt;Homomorphism_hprop_oppreserving -->
<g id="edge49" class="edge">
<title>Homomorphism_hprop_is_homomorphism&#45;&gt;Homomorphism_hprop_oppreserving</title>
<path fill="none" stroke="#000000" d="M327.3805,-262.7139C346.8104,-243.7866 377.6032,-213.7902 399.403,-192.5541"/>
<polygon fill="#000000" stroke="#000000" points="401.9846,-194.9255 406.7054,-185.4405 397.1001,-189.9113 401.9846,-194.9255"/>
</g>
<!-- Homomorphism_oppreserving_hom&#45;&gt;Homomorphism_IsHomomorphism -->
<g id="edge50" class="edge">
<title>Homomorphism_oppreserving_hom&#45;&gt;Homomorphism_IsHomomorphism</title>
<path fill="none" stroke="#000000" d="M772,-262.4637C772,-244.5068 772,-216.7657 772,-195.916"/>
<polygon fill="#000000" stroke="#000000" points="775.5001,-195.7294 772,-185.7295 768.5001,-195.7295 775.5001,-195.7294"/>
</g>
<!-- Homomorphism_OpPreserving -->
<g id="node30" class="node">
<title>Homomorphism_OpPreserving</title>
<g id="a_node30"><a xlink:href="Homomorphism.html#OpPreserving" xlink:title="OpPreserving">
<ellipse fill="#f070d1" stroke="#000000" cx="656" cy="-53.6191" rx="75.2868" ry="18"/>
<text text-anchor="middle" x="656" y="-49.9191" font-family="Times,serif" font-size="14.00" fill="#000000">OpPreserving</text>
</a>
</g>
</g>
<!-- Homomorphism_IsHomomorphism&#45;&gt;Homomorphism_OpPreserving -->
<g id="edge51" class="edge">
<title>Homomorphism_IsHomomorphism&#45;&gt;Homomorphism_OpPreserving</title>
<path fill="none" stroke="#000000" d="M753.875,-149.8066C734.3809,-130.6487 703.2388,-100.0435 681.3285,-78.5109"/>
<polygon fill="#000000" stroke="#000000" points="683.5833,-75.8196 673.9977,-71.3065 678.6768,-80.8122 683.5833,-75.8196"/>
</g>
<!-- Homomorphism_hprop_oppreserving&#45;&gt;Homomorphism_OpPreserving -->
<g id="edge52" class="edge">
<title>Homomorphism_hprop_oppreserving&#45;&gt;Homomorphism_OpPreserving</title>
<path fill="none" stroke="#000000" d="M459.583,-150.5522C500.8269,-130.1981 569.7348,-96.1916 614.0008,-74.346"/>
<polygon fill="#000000" stroke="#000000" points="615.6354,-77.4424 623.0539,-69.8783 612.5375,-71.1652 615.6354,-77.4424"/>
</g>
</g>
</svg>
