<?xml version="1.0" encoding="UTF-8" standalone="no"?>
<!DOCTYPE svg PUBLIC "-//W3C//DTD SVG 1.1//EN"
 "http://www.w3.org/Graphics/SVG/1.1/DTD/svg11.dtd">
<!-- Generated by graphviz version 2.40.1 (20161225.0304)
 -->
<!-- Title: HoTT_Spaces_Int_LoopExp Pages: 1 -->
<svg width="1243pt" height="626pt"
 viewBox="0.00 0.00 1243.00 625.50" xmlns="http://www.w3.org/2000/svg" xmlns:xlink="http://www.w3.org/1999/xlink">
<g id="graph0" class="graph" transform="scale(1 1) rotate(0) translate(4 621.5)">
<title>HoTT_Spaces_Int_LoopExp</title>
<polygon fill="#ffffff" stroke="transparent" points="-4,4 -4,-621.5 1239,-621.5 1239,4 -4,4"/>
<g id="clust1" class="cluster">
<title>cluster_LoopExp</title>
<polygon fill="#ffffc3" stroke="#000000" points="8,-14.5723 8,-602.9277 1227,-602.9277 1227,-14.5723 8,-14.5723"/>
<text text-anchor="middle" x="48" y="-587.7277" font-family="Times,serif" font-size="14.00" fill="#000000">LoopExp</text>
</g>
<!-- LoopExp_loopexp_path_universe -->
<g id="node1" class="node">
<title>LoopExp_loopexp_path_universe</title>
<g id="a_node1"><a xlink:href="LoopExp.html#loopexp_path_universe" xlink:title="loopexp_path_universe">
<ellipse fill="#f070d1" stroke="#000000" cx="1093" cy="-499.5723" rx="117.7704" ry="18"/>
<ellipse fill="none" stroke="#000000" cx="1093" cy="-499.5723" rx="121.7748" ry="22"/>
<ellipse fill="none" stroke="#000000" cx="1093" cy="-499.5723" rx="125.7793" ry="26"/>
<text text-anchor="middle" x="1093" y="-495.8723" font-family="Times,serif" font-size="14.00" fill="#000000">loopexp_path_universe</text>
</a>
</g>
</g>
<!-- LoopExp_equiv_path_loopexp -->
<g id="node2" class="node">
<title>LoopExp_equiv_path_loopexp</title>
<g id="a_node2"><a xlink:href="LoopExp.html#equiv_path_loopexp" xlink:title="equiv_path_loopexp">
<ellipse fill="#f070d1" stroke="#000000" cx="1112" cy="-338.5723" rx="102.8821" ry="18"/>
<text text-anchor="middle" x="1112" y="-334.8723" font-family="Times,serif" font-size="14.00" fill="#000000">equiv_path_loopexp</text>
</a>
</g>
</g>
<!-- LoopExp_loopexp_path_universe&#45;&gt;LoopExp_equiv_path_loopexp -->
<g id="edge1" class="edge">
<title>LoopExp_loopexp_path_universe&#45;&gt;LoopExp_equiv_path_loopexp</title>
<path fill="none" stroke="#000000" d="M1096.095,-473.3465C1099.5414,-444.1427 1105.0929,-397.1006 1108.6422,-367.0251"/>
<polygon fill="#000000" stroke="#000000" points="1112.1554,-367.1181 1109.8516,-356.7768 1105.2037,-366.2977 1112.1554,-367.1181"/>
</g>
<!-- LoopExp_loopexp -->
<g id="node15" class="node">
<title>LoopExp_loopexp</title>
<g id="a_node15"><a xlink:href="LoopExp.html#loopexp" xlink:title="loopexp">
<ellipse fill="#f070d1" stroke="#000000" cx="792" cy="-193.5723" rx="46.5926" ry="18"/>
<text text-anchor="middle" x="792" y="-189.8723" font-family="Times,serif" font-size="14.00" fill="#000000">loopexp</text>
</a>
</g>
</g>
<!-- LoopExp_equiv_path_loopexp&#45;&gt;LoopExp_loopexp -->
<g id="edge2" class="edge">
<title>LoopExp_equiv_path_loopexp&#45;&gt;LoopExp_loopexp</title>
<path fill="none" stroke="#000000" d="M1074.6657,-321.6551C1013.8203,-294.0846 893.8271,-239.7127 831.568,-211.5015"/>
<polygon fill="#000000" stroke="#000000" points="833.0052,-208.3102 822.4521,-207.3709 830.116,-214.6862 833.0052,-208.3102"/>
</g>
<!-- LoopExp_loopexp_add -->
<g id="node3" class="node">
<title>LoopExp_loopexp_add</title>
<g id="a_node3"><a xlink:href="LoopExp.html#loopexp_add" xlink:title="loopexp_add">
<ellipse fill="#f070d1" stroke="#000000" cx="872" cy="-499.5723" rx="68.7989" ry="18"/>
<ellipse fill="none" stroke="#000000" cx="872" cy="-499.5723" rx="72.7934" ry="22"/>
<ellipse fill="none" stroke="#000000" cx="872" cy="-499.5723" rx="76.7879" ry="26"/>
<text text-anchor="middle" x="872" y="-495.8723" font-family="Times,serif" font-size="14.00" fill="#000000">loopexp_add</text>
</a>
</g>
</g>
<!-- LoopExp_loopexp_int_pos_sub_r -->
<g id="node4" class="node">
<title>LoopExp_loopexp_int_pos_sub_r</title>
<g id="a_node4"><a xlink:href="LoopExp.html#loopexp_int_pos_sub_r" xlink:title="loopexp_int_pos_sub_r">
<ellipse fill="#f070d1" stroke="#000000" cx="875" cy="-338.5723" rx="116.1796" ry="18"/>
<text text-anchor="middle" x="875" y="-334.8723" font-family="Times,serif" font-size="14.00" fill="#000000">loopexp_int_pos_sub_r</text>
</a>
</g>
</g>
<!-- LoopExp_loopexp_add&#45;&gt;LoopExp_loopexp_int_pos_sub_r -->
<g id="edge3" class="edge">
<title>LoopExp_loopexp_add&#45;&gt;LoopExp_loopexp_int_pos_sub_r</title>
<path fill="none" stroke="#000000" d="M872.4887,-473.3465C873.0328,-444.1427 873.9094,-397.1006 874.4698,-367.0251"/>
<polygon fill="#000000" stroke="#000000" points="877.9738,-366.8403 874.6608,-356.7768 870.975,-366.7098 877.9738,-366.8403"/>
</g>
<!-- LoopExp_loopexp_int_pos_sub_l -->
<g id="node5" class="node">
<title>LoopExp_loopexp_int_pos_sub_l</title>
<g id="a_node5"><a xlink:href="LoopExp.html#loopexp_int_pos_sub_l" xlink:title="loopexp_int_pos_sub_l">
<ellipse fill="#f070d1" stroke="#000000" cx="626" cy="-338.5723" rx="114.2798" ry="18"/>
<text text-anchor="middle" x="626" y="-334.8723" font-family="Times,serif" font-size="14.00" fill="#000000">loopexp_int_pos_sub_l</text>
</a>
</g>
</g>
<!-- LoopExp_loopexp_add&#45;&gt;LoopExp_loopexp_int_pos_sub_l -->
<g id="edge4" class="edge">
<title>LoopExp_loopexp_add&#45;&gt;LoopExp_loopexp_int_pos_sub_l</title>
<path fill="none" stroke="#000000" d="M836.4922,-476.3334C789.7421,-445.7368 708.0292,-392.2581 661.3553,-361.7113"/>
<polygon fill="#000000" stroke="#000000" points="663.0703,-358.6508 652.7863,-356.1032 659.237,-364.5079 663.0703,-358.6508"/>
</g>
<!-- LoopExp_loopexp_pos_add -->
<g id="node6" class="node">
<title>LoopExp_loopexp_pos_add</title>
<g id="a_node6"><a xlink:href="LoopExp.html#loopexp_pos_add" xlink:title="loopexp_pos_add">
<ellipse fill="#f070d1" stroke="#000000" cx="404" cy="-338.5723" rx="89.8845" ry="18"/>
<text text-anchor="middle" x="404" y="-334.8723" font-family="Times,serif" font-size="14.00" fill="#000000">loopexp_pos_add</text>
</a>
</g>
</g>
<!-- LoopExp_loopexp_add&#45;&gt;LoopExp_loopexp_pos_add -->
<g id="edge5" class="edge">
<title>LoopExp_loopexp_add&#45;&gt;LoopExp_loopexp_pos_add</title>
<path fill="none" stroke="#000000" d="M817.8573,-480.9462C728.015,-450.039 549.1007,-388.4894 458.8158,-357.4298"/>
<polygon fill="#000000" stroke="#000000" points="459.9029,-354.1026 449.3082,-354.1591 457.6257,-360.7218 459.9029,-354.1026"/>
</g>
<!-- LoopExp_loopexp_pos_concat -->
<g id="node7" class="node">
<title>LoopExp_loopexp_pos_concat</title>
<g id="a_node7"><a xlink:href="LoopExp.html#loopexp_pos_concat" xlink:title="loopexp_pos_concat">
<ellipse fill="#f070d1" stroke="#000000" cx="623" cy="-193.5723" rx="103.9815" ry="18"/>
<text text-anchor="middle" x="623" y="-189.8723" font-family="Times,serif" font-size="14.00" fill="#000000">loopexp_pos_concat</text>
</a>
</g>
</g>
<!-- LoopExp_loopexp_int_pos_sub_r&#45;&gt;LoopExp_loopexp_pos_concat -->
<g id="edge6" class="edge">
<title>LoopExp_loopexp_int_pos_sub_r&#45;&gt;LoopExp_loopexp_pos_concat</title>
<path fill="none" stroke="#000000" d="M844.6029,-321.0819C798.8822,-294.7743 712.4197,-245.0241 662.0748,-216.0558"/>
<polygon fill="#000000" stroke="#000000" points="663.5258,-212.8527 653.1126,-210.899 660.0346,-218.92 663.5258,-212.8527"/>
</g>
<!-- LoopExp_loopexp_int_pos_sub_r&#45;&gt;LoopExp_loopexp -->
<g id="edge7" class="edge">
<title>LoopExp_loopexp_int_pos_sub_r&#45;&gt;LoopExp_loopexp</title>
<path fill="none" stroke="#000000" d="M864.6558,-320.5011C850.2256,-295.2917 823.9519,-249.3919 807.2669,-220.2434"/>
<polygon fill="#000000" stroke="#000000" points="810.2193,-218.3557 802.2138,-211.4157 804.1441,-221.8332 810.2193,-218.3557"/>
</g>
<!-- LoopExp_loopexp_int_pos_sub_l&#45;&gt;LoopExp_loopexp_pos_concat -->
<g id="edge8" class="edge">
<title>LoopExp_loopexp_int_pos_sub_l&#45;&gt;LoopExp_loopexp_pos_concat</title>
<path fill="none" stroke="#000000" d="M625.6261,-320.5011C625.1164,-295.8629 624.1977,-251.4612 623.5933,-222.25"/>
<polygon fill="#000000" stroke="#000000" points="627.0848,-221.7966 623.3786,-211.8712 620.0863,-221.9415 627.0848,-221.7966"/>
</g>
<!-- LoopExp_loopexp_int_pos_sub_l&#45;&gt;LoopExp_loopexp -->
<g id="edge9" class="edge">
<title>LoopExp_loopexp_int_pos_sub_l&#45;&gt;LoopExp_loopexp</title>
<path fill="none" stroke="#000000" d="M646.3549,-320.7924C676.2046,-294.7189 731.8981,-246.0709 765.0931,-217.0753"/>
<polygon fill="#000000" stroke="#000000" points="767.7895,-219.3673 773.0184,-210.1526 763.1844,-214.0953 767.7895,-219.3673"/>
</g>
<!-- LoopExp_loopexp_pos_add&#45;&gt;LoopExp_loopexp_pos_concat -->
<g id="edge10" class="edge">
<title>LoopExp_loopexp_pos_add&#45;&gt;LoopExp_loopexp_pos_concat</title>
<path fill="none" stroke="#000000" d="M430.4165,-321.0819C469.8785,-294.9541 544.2647,-245.7029 588.1408,-216.6526"/>
<polygon fill="#000000" stroke="#000000" points="590.084,-219.5637 596.4898,-211.1247 586.2195,-213.727 590.084,-219.5637"/>
</g>
<!-- LoopExp_loopexp_pos -->
<g id="node16" class="node">
<title>LoopExp_loopexp_pos</title>
<g id="a_node16"><a xlink:href="LoopExp.html#loopexp_pos" xlink:title="loopexp_pos">
<ellipse fill="#f070d1" stroke="#000000" cx="518" cy="-61.5723" rx="67.6881" ry="18"/>
<text text-anchor="middle" x="518" y="-57.8723" font-family="Times,serif" font-size="14.00" fill="#000000">loopexp_pos</text>
</a>
</g>
</g>
<!-- LoopExp_loopexp_pos_concat&#45;&gt;LoopExp_loopexp_pos -->
<g id="edge11" class="edge">
<title>LoopExp_loopexp_pos_concat&#45;&gt;LoopExp_loopexp_pos</title>
<path fill="none" stroke="#000000" d="M608.6204,-175.495C590.4766,-152.6857 559.1538,-113.3085 538.5049,-87.3498"/>
<polygon fill="#000000" stroke="#000000" points="541.1704,-85.0784 532.206,-79.4312 535.6921,-89.4361 541.1704,-85.0784"/>
</g>
<!-- LoopExp_int_add_pred_r -->
<g id="node8" class="node">
<title>LoopExp_int_add_pred_r</title>
<g id="a_node8"><a xlink:href="LoopExp.html#int_add_pred_r" xlink:title="int_add_pred_r">
<ellipse fill="#f070d1" stroke="#000000" cx="688" cy="-499.5723" rx="81.4644" ry="18"/>
<ellipse fill="none" stroke="#000000" cx="688" cy="-499.5723" rx="85.4753" ry="22"/>
<ellipse fill="none" stroke="#000000" cx="688" cy="-499.5723" rx="89.4862" ry="26"/>
<text text-anchor="middle" x="688" y="-495.8723" font-family="Times,serif" font-size="14.00" fill="#000000">int_add_pred_r</text>
</a>
</g>
</g>
<!-- LoopExp_int_add_pred_l -->
<g id="node9" class="node">
<title>LoopExp_int_add_pred_l</title>
<g id="a_node9"><a xlink:href="LoopExp.html#int_add_pred_l" xlink:title="int_add_pred_l">
<ellipse fill="#f070d1" stroke="#000000" cx="493" cy="-499.5723" rx="79.1053" ry="18"/>
<ellipse fill="none" stroke="#000000" cx="493" cy="-499.5723" rx="83.0959" ry="22"/>
<ellipse fill="none" stroke="#000000" cx="493" cy="-499.5723" rx="87.0864" ry="26"/>
<text text-anchor="middle" x="493" y="-495.8723" font-family="Times,serif" font-size="14.00" fill="#000000">int_add_pred_l</text>
</a>
</g>
</g>
<!-- LoopExp_int_add_succ_r -->
<g id="node10" class="node">
<title>LoopExp_int_add_succ_r</title>
<g id="a_node10"><a xlink:href="LoopExp.html#int_add_succ_r" xlink:title="int_add_succ_r">
<ellipse fill="#f070d1" stroke="#000000" cx="298" cy="-499.5723" rx="81.4644" ry="18"/>
<ellipse fill="none" stroke="#000000" cx="298" cy="-499.5723" rx="85.4753" ry="22"/>
<ellipse fill="none" stroke="#000000" cx="298" cy="-499.5723" rx="89.4862" ry="26"/>
<text text-anchor="middle" x="298" y="-495.8723" font-family="Times,serif" font-size="14.00" fill="#000000">int_add_succ_r</text>
</a>
</g>
</g>
<!-- LoopExp_int_add_succ_l -->
<g id="node11" class="node">
<title>LoopExp_int_add_succ_l</title>
<g id="a_node11"><a xlink:href="LoopExp.html#int_add_succ_l" xlink:title="int_add_succ_l">
<ellipse fill="#f070d1" stroke="#000000" cx="103" cy="-499.5723" rx="79.1053" ry="18"/>
<ellipse fill="none" stroke="#000000" cx="103" cy="-499.5723" rx="83.0959" ry="22"/>
<ellipse fill="none" stroke="#000000" cx="103" cy="-499.5723" rx="87.0864" ry="26"/>
<text text-anchor="middle" x="103" y="-495.8723" font-family="Times,serif" font-size="14.00" fill="#000000">int_add_succ_l</text>
</a>
</g>
</g>
<!-- LoopExp_ap_loopexp -->
<g id="node12" class="node">
<title>LoopExp_ap_loopexp</title>
<g id="a_node12"><a xlink:href="LoopExp.html#ap_loopexp" xlink:title="ap_loopexp">
<ellipse fill="#f070d1" stroke="#000000" cx="225" cy="-338.5723" rx="63.0838" ry="18"/>
<ellipse fill="none" stroke="#000000" cx="225" cy="-338.5723" rx="67.0863" ry="22"/>
<ellipse fill="none" stroke="#000000" cx="225" cy="-338.5723" rx="71.0888" ry="26"/>
<text text-anchor="middle" x="225" y="-334.8723" font-family="Times,serif" font-size="14.00" fill="#000000">ap_loopexp</text>
</a>
</g>
</g>
<!-- LoopExp_ap_loopexp_pos -->
<g id="node13" class="node">
<title>LoopExp_ap_loopexp_pos</title>
<g id="a_node13"><a xlink:href="LoopExp.html#ap_loopexp_pos" xlink:title="ap_loopexp_pos">
<ellipse fill="#f070d1" stroke="#000000" cx="225" cy="-193.5723" rx="83.6854" ry="18"/>
<text text-anchor="middle" x="225" y="-189.8723" font-family="Times,serif" font-size="14.00" fill="#000000">ap_loopexp_pos</text>
</a>
</g>
</g>
<!-- LoopExp_ap_loopexp&#45;&gt;LoopExp_ap_loopexp_pos -->
<g id="edge12" class="edge">
<title>LoopExp_ap_loopexp&#45;&gt;LoopExp_ap_loopexp_pos</title>
<path fill="none" stroke="#000000" d="M225,-312.3139C225,-286.7784 225,-248.1078 225,-221.8927"/>
<polygon fill="#000000" stroke="#000000" points="228.5001,-221.8333 225,-211.8333 221.5001,-221.8334 228.5001,-221.8333"/>
</g>
<!-- LoopExp_loopexp_pos_inv -->
<g id="node14" class="node">
<title>LoopExp_loopexp_pos_inv</title>
<g id="a_node14"><a xlink:href="LoopExp.html#loopexp_pos_inv" xlink:title="loopexp_pos_inv">
<ellipse fill="#f070d1" stroke="#000000" cx="414" cy="-193.5723" rx="87.1846" ry="18"/>
<text text-anchor="middle" x="414" y="-189.8723" font-family="Times,serif" font-size="14.00" fill="#000000">loopexp_pos_inv</text>
</a>
</g>
</g>
<!-- LoopExp_ap_loopexp&#45;&gt;LoopExp_loopexp_pos_inv -->
<g id="edge13" class="edge">
<title>LoopExp_ap_loopexp&#45;&gt;LoopExp_loopexp_pos_inv</title>
<path fill="none" stroke="#000000" d="M255.7868,-314.9528C290.9386,-287.9844 348.1061,-244.1258 383.2448,-217.1675"/>
<polygon fill="#000000" stroke="#000000" points="385.4448,-219.8911 391.2484,-211.0272 381.1839,-214.3372 385.4448,-219.8911"/>
</g>
<!-- LoopExp_ap_loopexp&#45;&gt;LoopExp_loopexp -->
<g id="edge14" class="edge">
<title>LoopExp_ap_loopexp&#45;&gt;LoopExp_loopexp</title>
<path fill="none" stroke="#000000" d="M277.3084,-320.8753C286.4964,-317.9666 295.9976,-315.0852 305,-312.5723 494.5006,-259.6756 546.4141,-264.1625 736,-211.5723 739.5549,-210.5862 743.2216,-209.5199 746.8978,-208.4158"/>
<polygon fill="#000000" stroke="#000000" points="748.054,-211.722 756.5809,-205.4337 745.9936,-205.0321 748.054,-211.722"/>
</g>
<!-- LoopExp_ap_loopexp_pos&#45;&gt;LoopExp_loopexp_pos -->
<g id="edge15" class="edge">
<title>LoopExp_ap_loopexp_pos&#45;&gt;LoopExp_loopexp_pos</title>
<path fill="none" stroke="#000000" d="M261.2214,-177.2541C315.0298,-153.0128 415.9493,-107.5473 473.9547,-81.4152"/>
<polygon fill="#000000" stroke="#000000" points="475.5479,-84.5363 483.2277,-77.2376 472.6726,-78.1541 475.5479,-84.5363"/>
</g>
<!-- LoopExp_loopexp_pos_inv&#45;&gt;LoopExp_loopexp_pos -->
<g id="edge16" class="edge">
<title>LoopExp_loopexp_pos_inv&#45;&gt;LoopExp_loopexp_pos</title>
<path fill="none" stroke="#000000" d="M428.0259,-175.7702C445.9366,-153.0373 477.0632,-113.5305 497.599,-87.4658"/>
<polygon fill="#000000" stroke="#000000" points="500.4246,-89.5349 503.8642,-79.5139 494.9262,-85.2028 500.4246,-89.5349"/>
</g>
<!-- LoopExp_loopexp&#45;&gt;LoopExp_loopexp_pos -->
<g id="edge17" class="edge">
<title>LoopExp_loopexp&#45;&gt;LoopExp_loopexp_pos</title>
<path fill="none" stroke="#000000" d="M762.6772,-179.446C713.9985,-155.9949 616.3236,-108.9398 560.2244,-81.9139"/>
<polygon fill="#000000" stroke="#000000" points="561.4513,-78.6201 550.9231,-77.433 558.4131,-84.9264 561.4513,-78.6201"/>
</g>
</g>
</svg>
