<?xml version="1.0" encoding="UTF-8" standalone="no"?>
<!DOCTYPE svg PUBLIC "-//W3C//DTD SVG 1.1//EN"
 "http://www.w3.org/Graphics/SVG/1.1/DTD/svg11.dtd">
<!-- Generated by graphviz version 2.40.1 (20161225.0304)
 -->
<!-- Title: HoTT_Algebra_AbGroups_AbPullback Pages: 1 -->
<svg width="460pt" height="234pt"
 viewBox="0.00 0.00 460.00 234.00" xmlns="http://www.w3.org/2000/svg" xmlns:xlink="http://www.w3.org/1999/xlink">
<g id="graph0" class="graph" transform="scale(1 1) rotate(0) translate(4 230)">
<title>HoTT_Algebra_AbGroups_AbPullback</title>
<polygon fill="#ffffff" stroke="transparent" points="-4,4 -4,-230 456,-230 456,4 -4,4"/>
<g id="clust1" class="cluster">
<title>cluster_AbPullback</title>
<polygon fill="#ffffc3" stroke="#000000" points="8,-10.1006 8,-215.8994 444,-215.8994 444,-10.1006 8,-10.1006"/>
<text text-anchor="middle" x="57" y="-200.6994" font-family="Times,serif" font-size="14.00" fill="#000000">AbPullback</text>
</g>
<!-- AbPullback_ab_pullback -->
<g id="node1" class="node">
<title>AbPullback_ab_pullback</title>
<g id="a_node1"><a xlink:href="AbPullback.html#ab_pullback" xlink:title="ab_pullback">
<ellipse fill="#f070d1" stroke="#000000" cx="361" cy="-144.1006" rx="66.8941" ry="18"/>
<ellipse fill="none" stroke="#000000" cx="361" cy="-144.1006" rx="70.8911" ry="22"/>
<ellipse fill="none" stroke="#000000" cx="361" cy="-144.1006" rx="74.8882" ry="26"/>
<text text-anchor="middle" x="361" y="-140.4006" font-family="Times,serif" font-size="14.00" fill="#000000">ab_pullback</text>
</a>
</g>
</g>
<!-- AbPullback_ab_pullback_commutative -->
<g id="node3" class="node">
<title>AbPullback_ab_pullback_commutative</title>
<g id="a_node3"><a xlink:href="AbPullback.html#ab_pullback_commutative" xlink:title="ab_pullback_commutative">
<ellipse fill="#f070d1" stroke="#000000" cx="226" cy="-43.1006" rx="132.6765" ry="18"/>
<text text-anchor="middle" x="226" y="-39.4006" font-family="Times,serif" font-size="14.00" fill="#000000">ab_pullback_commutative</text>
</a>
</g>
</g>
<!-- AbPullback_ab_pullback&#45;&gt;AbPullback_ab_pullback_commutative -->
<g id="edge1" class="edge">
<title>AbPullback_ab_pullback&#45;&gt;AbPullback_ab_pullback_commutative</title>
<path fill="none" stroke="#000000" d="M329.3485,-120.4205C307.8827,-104.3609 279.603,-83.2035 258.0529,-67.0809"/>
<polygon fill="#000000" stroke="#000000" points="259.9623,-64.1383 249.8585,-60.9502 255.7689,-69.7433 259.9623,-64.1383"/>
</g>
<!-- AbPullback_isabgroup_ab_pullback -->
<g id="node2" class="node">
<title>AbPullback_isabgroup_ab_pullback</title>
<g id="a_node2"><a xlink:href="AbPullback.html#isabgroup_ab_pullback" xlink:title="isabgroup_ab_pullback">
<ellipse fill="#f070d1" stroke="#000000" cx="142" cy="-144.1006" rx="118.0927" ry="18"/>
<ellipse fill="none" stroke="#000000" cx="142" cy="-144.1006" rx="122.086" ry="22"/>
<ellipse fill="none" stroke="#000000" cx="142" cy="-144.1006" rx="126.0794" ry="26"/>
<text text-anchor="middle" x="142" y="-140.4006" font-family="Times,serif" font-size="14.00" fill="#000000">isabgroup_ab_pullback</text>
</a>
</g>
</g>
<!-- AbPullback_isabgroup_ab_pullback&#45;&gt;AbPullback_ab_pullback_commutative -->
<g id="edge2" class="edge">
<title>AbPullback_isabgroup_ab_pullback&#45;&gt;AbPullback_ab_pullback_commutative</title>
<path fill="none" stroke="#000000" d="M163.4141,-118.3527C175.964,-103.2629 191.7717,-84.256 204.3604,-69.1196"/>
<polygon fill="#000000" stroke="#000000" points="207.2783,-71.0848 210.9817,-61.1582 201.8964,-66.6087 207.2783,-71.0848"/>
</g>
</g>
</svg>
