<?xml version="1.0" encoding="UTF-8" standalone="no"?>
<!DOCTYPE svg PUBLIC "-//W3C//DTD SVG 1.1//EN"
 "http://www.w3.org/Graphics/SVG/1.1/DTD/svg11.dtd">
<!-- Generated by graphviz version 2.40.1 (20161225.0304)
 -->
<!-- Title: HoTT_Modalities_Localization Pages: 1 -->
<svg width="1556pt" height="782pt"
 viewBox="0.00 0.00 1556.00 782.00" xmlns="http://www.w3.org/2000/svg" xmlns:xlink="http://www.w3.org/1999/xlink">
<g id="graph0" class="graph" transform="scale(1 1) rotate(0) translate(4 778)">
<title>HoTT_Modalities_Localization</title>
<polygon fill="#ffffff" stroke="transparent" points="-4,4 -4,-778 1552,-778 1552,4 -4,4"/>
<g id="clust1" class="cluster">
<title>cluster_Localization</title>
<polygon fill="#ffffc3" stroke="#000000" points="8.0311,-8 8.0311,-766 1539.9689,-766 1539.9689,-8 8.0311,-8"/>
<text text-anchor="middle" x="60.0311" y="-750.8" font-family="Times,serif" font-size="14.00" fill="#000000">Localization</text>
</g>
<g id="clust2" class="cluster">
<title>cluster_Localization_LocalizationHIT</title>
<polygon fill="#ffffa3" stroke="#000000" points="1160.4981,-16 1160.4981,-339 1531.9377,-339 1531.9377,-16 1160.4981,-16"/>
<text text-anchor="middle" x="1226.4981" y="-323.8" font-family="Times,serif" font-size="14.00" fill="#000000">LocalizationHIT</text>
</g>
<!-- Localization_LocalizationHIT_Localize_ind_islocal_localize_beta -->
<g id="node1" class="node">
<title>Localization_LocalizationHIT_Localize_ind_islocal_localize_beta</title>
<g id="a_node1"><a xlink:href="Localization.html#LocalizationHIT.Localize_ind_islocal_localize_beta" xlink:title="Localize_ind_islocal_localize_beta">
<ellipse fill="#facdef" stroke="#000000" cx="1346.4475" cy="-282" rx="168.9707" ry="18"/>
<ellipse fill="none" stroke="#000000" cx="1346.4475" cy="-282" rx="172.9704" ry="22"/>
<ellipse fill="none" stroke="#000000" cx="1346.4475" cy="-282" rx="176.97" ry="26"/>
<text text-anchor="middle" x="1346.4475" y="-278.3" font-family="Times,serif" font-size="14.00" fill="#000000">Localize_ind_islocal_localize_beta</text>
</a>
</g>
</g>
<!-- Localization_LocalizationHIT_Localize_ind -->
<g id="node2" class="node">
<title>Localization_LocalizationHIT_Localize_ind</title>
<g id="a_node2"><a xlink:href="Localization.html#LocalizationHIT.Localize_ind" xlink:title="Localize_ind">
<ellipse fill="#f070d1" stroke="#000000" cx="1249.4475" cy="-194" rx="68.7879" ry="18"/>
<text text-anchor="middle" x="1249.4475" y="-190.3" font-family="Times,serif" font-size="14.00" fill="#000000">Localize_ind</text>
</a>
</g>
</g>
<!-- Localization_LocalizationHIT_Localize_ind_islocal_localize_beta&#45;&gt;Localization_LocalizationHIT_Localize_ind -->
<g id="edge1" class="edge">
<title>Localization_LocalizationHIT_Localize_ind_islocal_localize_beta&#45;&gt;Localization_LocalizationHIT_Localize_ind</title>
<path fill="none" stroke="#000000" d="M1318.1303,-256.3102C1304.9787,-244.3788 1289.4172,-230.2612 1276.4348,-218.4834"/>
<polygon fill="#000000" stroke="#000000" points="1278.4874,-215.6198 1268.7293,-211.4928 1273.784,-220.8042 1278.4874,-215.6198"/>
</g>
<!-- Localization_apD_extendable_eq -->
<g id="node27" class="node">
<title>Localization_apD_extendable_eq</title>
<g id="a_node27"><a xlink:href="Localization.html#apD_extendable_eq" xlink:title="apD_extendable_eq">
<ellipse fill="#f070d1" stroke="#000000" cx="1051.4475" cy="-194" rx="101.2821" ry="18"/>
<text text-anchor="middle" x="1051.4475" y="-190.3" font-family="Times,serif" font-size="14.00" fill="#000000">apD_extendable_eq</text>
</a>
</g>
</g>
<!-- Localization_LocalizationHIT_Localize_ind_islocal_localize_beta&#45;&gt;Localization_apD_extendable_eq -->
<g id="edge2" class="edge">
<title>Localization_LocalizationHIT_Localize_ind_islocal_localize_beta&#45;&gt;Localization_apD_extendable_eq</title>
<path fill="none" stroke="#000000" d="M1268.1674,-258.6487C1219.6647,-244.18 1158.2475,-225.859 1113.1895,-212.418"/>
<polygon fill="#000000" stroke="#000000" points="1114.1301,-209.0462 1103.5469,-209.5415 1112.1291,-215.7541 1114.1301,-209.0462"/>
</g>
<!-- Localization_LocalizationHIT_islocal_localize -->
<g id="node3" class="node">
<title>Localization_LocalizationHIT_islocal_localize</title>
<g id="a_node3"><a xlink:href="Localization.html#LocalizationHIT.islocal_localize" xlink:title="islocal_localize">
<ellipse fill="#facdef" stroke="#000000" cx="1249.4475" cy="-114" rx="80.6858" ry="18"/>
<text text-anchor="middle" x="1249.4475" y="-110.3" font-family="Times,serif" font-size="14.00" fill="#000000">islocal_localize</text>
</a>
</g>
</g>
<!-- Localization_LocalizationHIT_Localize_ind&#45;&gt;Localization_LocalizationHIT_islocal_localize -->
<g id="edge3" class="edge">
<title>Localization_LocalizationHIT_Localize_ind&#45;&gt;Localization_LocalizationHIT_islocal_localize</title>
<path fill="none" stroke="#000000" d="M1249.4475,-175.8468C1249.4475,-165.9251 1249.4475,-153.4167 1249.4475,-142.2492"/>
<polygon fill="#000000" stroke="#000000" points="1252.9476,-142.0814 1249.4475,-132.0814 1245.9476,-142.0814 1252.9476,-142.0814"/>
</g>
<!-- Localization_LocalizationHIT_loc -->
<g id="node4" class="node">
<title>Localization_LocalizationHIT_loc</title>
<g id="a_node4"><a xlink:href="Localization.html#LocalizationHIT.loc" xlink:title="loc">
<ellipse fill="#7faaff" stroke="#000000" cx="1376.4475" cy="-114" rx="27" ry="18"/>
<text text-anchor="middle" x="1376.4475" y="-110.3" font-family="Times,serif" font-size="14.00" fill="#000000">loc</text>
</a>
</g>
</g>
<!-- Localization_LocalizationHIT_Localize_ind&#45;&gt;Localization_LocalizationHIT_loc -->
<g id="edge4" class="edge">
<title>Localization_LocalizationHIT_Localize_ind&#45;&gt;Localization_LocalizationHIT_loc</title>
<path fill="none" stroke="#000000" d="M1276.0708,-177.2294C1297.0731,-163.9996 1326.3118,-145.5816 1347.8168,-132.0351"/>
<polygon fill="#000000" stroke="#000000" points="1349.9174,-134.8484 1356.5132,-126.557 1346.1865,-128.9256 1349.9174,-134.8484"/>
</g>
<!-- Localization_ooExtendableAlong_Over -->
<g id="node26" class="node">
<title>Localization_ooExtendableAlong_Over</title>
<g id="a_node26"><a xlink:href="Localization.html#ooExtendableAlong_Over" xlink:title="ooExtendableAlong_Over">
<ellipse fill="#f070d1" stroke="#000000" cx="782.4475" cy="-114" rx="128.8774" ry="18"/>
<text text-anchor="middle" x="782.4475" y="-110.3" font-family="Times,serif" font-size="14.00" fill="#000000">ooExtendableAlong_Over</text>
</a>
</g>
</g>
<!-- Localization_LocalizationHIT_Localize_ind&#45;&gt;Localization_ooExtendableAlong_Over -->
<g id="edge5" class="edge">
<title>Localization_LocalizationHIT_Localize_ind&#45;&gt;Localization_ooExtendableAlong_Over</title>
<path fill="none" stroke="#000000" d="M1211.633,-178.8639C1200.4477,-174.8434 1188.0802,-170.8366 1176.4475,-168 1086.5751,-146.0847 982.8513,-132.3174 904.3931,-124.1724"/>
<polygon fill="#000000" stroke="#000000" points="904.2855,-120.6433 893.9816,-123.1091 903.5742,-127.607 904.2855,-120.6433"/>
</g>
<!-- Localization_LocalizationHIT_Localize -->
<g id="node5" class="node">
<title>Localization_LocalizationHIT_Localize</title>
<g id="a_node5"><a xlink:href="Localization.html#LocalizationHIT.Localize" xlink:title="Localize">
<ellipse fill="#e2cdfa" stroke="#000000" cx="1249.4475" cy="-42" rx="49.2915" ry="18"/>
<text text-anchor="middle" x="1249.4475" y="-38.3" font-family="Times,serif" font-size="14.00" fill="#000000">Localize</text>
</a>
</g>
</g>
<!-- Localization_LocalizationHIT_islocal_localize&#45;&gt;Localization_LocalizationHIT_Localize -->
<g id="edge6" class="edge">
<title>Localization_LocalizationHIT_islocal_localize&#45;&gt;Localization_LocalizationHIT_Localize</title>
<path fill="none" stroke="#000000" d="M1249.4475,-95.8314C1249.4475,-88.131 1249.4475,-78.9743 1249.4475,-70.4166"/>
<polygon fill="#000000" stroke="#000000" points="1252.9476,-70.4132 1249.4475,-60.4133 1245.9476,-70.4133 1252.9476,-70.4132"/>
</g>
<!-- Localization_O_inverts_O_leq_ -->
<g id="node6" class="node">
<title>Localization_O_inverts_O_leq_</title>
<g id="a_node6"><a xlink:href="Localization.html#O_inverts_O_leq'" xlink:title="O_inverts_O_leq&#39;">
<ellipse fill="#f070d1" stroke="#000000" cx="1124.4475" cy="-621" rx="90.1971" ry="18"/>
<ellipse fill="none" stroke="#000000" cx="1124.4475" cy="-621" rx="94.1906" ry="22"/>
<ellipse fill="none" stroke="#000000" cx="1124.4475" cy="-621" rx="98.1842" ry="26"/>
<text text-anchor="middle" x="1124.4475" y="-617.3" font-family="Times,serif" font-size="14.00" fill="#000000">O_inverts_O_leq&#39;</text>
</a>
</g>
</g>
<!-- Localization_O_leq_lift_accrsu -->
<g id="node9" class="node">
<title>Localization_O_leq_lift_accrsu</title>
<g id="a_node9"><a xlink:href="Localization.html#O_leq_lift_accrsu" xlink:title="O_leq_lift_accrsu">
<ellipse fill="#f070d1" stroke="#000000" cx="865.4475" cy="-533" rx="91.784" ry="18"/>
<text text-anchor="middle" x="865.4475" y="-529.3" font-family="Times,serif" font-size="14.00" fill="#000000">O_leq_lift_accrsu</text>
</a>
</g>
</g>
<!-- Localization_O_inverts_O_leq_&#45;&gt;Localization_O_leq_lift_accrsu -->
<g id="edge7" class="edge">
<title>Localization_O_inverts_O_leq_&#45;&gt;Localization_O_leq_lift_accrsu</title>
<path fill="none" stroke="#000000" d="M1064.0504,-600.479C1020.7836,-585.7783 962.9627,-566.1326 920.8719,-551.8315"/>
<polygon fill="#000000" stroke="#000000" points="921.931,-548.4949 911.3366,-548.5917 919.679,-555.1228 921.931,-548.4949"/>
</g>
<!-- Localization_O_eq_lift_accrsu -->
<g id="node10" class="node">
<title>Localization_O_eq_lift_accrsu</title>
<g id="a_node10"><a xlink:href="Localization.html#O_eq_lift_accrsu" xlink:title="O_eq_lift_accrsu">
<ellipse fill="#f070d1" stroke="#000000" cx="1065.4475" cy="-533" rx="89.0842" ry="18"/>
<text text-anchor="middle" x="1065.4475" y="-529.3" font-family="Times,serif" font-size="14.00" fill="#000000">O_eq_lift_accrsu</text>
</a>
</g>
</g>
<!-- Localization_O_inverts_O_leq_&#45;&gt;Localization_O_eq_lift_accrsu -->
<g id="edge8" class="edge">
<title>Localization_O_inverts_O_leq_&#45;&gt;Localization_O_eq_lift_accrsu</title>
<path fill="none" stroke="#000000" d="M1107.0646,-595.0731C1099.5547,-583.8718 1090.7766,-570.7791 1083.2233,-559.5131"/>
<polygon fill="#000000" stroke="#000000" points="1085.9518,-557.2976 1077.4759,-550.9407 1080.1376,-561.1958 1085.9518,-557.2976"/>
</g>
<!-- Localization_islocal_loc -->
<g id="node19" class="node">
<title>Localization_islocal_loc</title>
<g id="a_node19"><a xlink:href="Localization.html#islocal_loc" xlink:title="islocal_loc">
<ellipse fill="#f070d1" stroke="#000000" cx="1231.4475" cy="-533" rx="59.2899" ry="18"/>
<text text-anchor="middle" x="1231.4475" y="-529.3" font-family="Times,serif" font-size="14.00" fill="#000000">islocal_loc</text>
</a>
</g>
</g>
<!-- Localization_O_inverts_O_leq_&#45;&gt;Localization_islocal_loc -->
<g id="edge9" class="edge">
<title>Localization_O_inverts_O_leq_&#45;&gt;Localization_islocal_loc</title>
<path fill="none" stroke="#000000" d="M1154.8232,-596.0181C1169.9412,-583.5846 1188.1097,-568.6423 1202.9602,-556.4288"/>
<polygon fill="#000000" stroke="#000000" points="1205.3284,-559.0128 1210.8287,-549.9575 1200.882,-553.6063 1205.3284,-559.0128"/>
</g>
<!-- Localization_conn_map_O_leq_ -->
<g id="node7" class="node">
<title>Localization_conn_map_O_leq_</title>
<g id="a_node7"><a xlink:href="Localization.html#conn_map_O_leq'" xlink:title="conn_map_O_leq&#39;">
<ellipse fill="#f070d1" stroke="#000000" cx="906.4475" cy="-709" rx="92.1006" ry="18"/>
<ellipse fill="none" stroke="#000000" cx="906.4475" cy="-709" rx="96.0923" ry="22"/>
<ellipse fill="none" stroke="#000000" cx="906.4475" cy="-709" rx="100.0841" ry="26"/>
<text text-anchor="middle" x="906.4475" y="-705.3" font-family="Times,serif" font-size="14.00" fill="#000000">conn_map_O_leq&#39;</text>
</a>
</g>
</g>
<!-- Localization_isconnected_O_leq_ -->
<g id="node8" class="node">
<title>Localization_isconnected_O_leq_</title>
<g id="a_node8"><a xlink:href="Localization.html#isconnected_O_leq'" xlink:title="isconnected_O_leq&#39;">
<ellipse fill="#f070d1" stroke="#000000" cx="906.4475" cy="-621" rx="100.9827" ry="18"/>
<text text-anchor="middle" x="906.4475" y="-617.3" font-family="Times,serif" font-size="14.00" fill="#000000">isconnected_O_leq&#39;</text>
</a>
</g>
</g>
<!-- Localization_conn_map_O_leq_&#45;&gt;Localization_isconnected_O_leq_ -->
<g id="edge10" class="edge">
<title>Localization_conn_map_O_leq_&#45;&gt;Localization_isconnected_O_leq_</title>
<path fill="none" stroke="#000000" d="M906.4475,-682.5971C906.4475,-672.0414 906.4475,-659.868 906.4475,-649.1448"/>
<polygon fill="#000000" stroke="#000000" points="909.9476,-649.0188 906.4475,-639.0188 902.9476,-649.0188 909.9476,-649.0188"/>
</g>
<!-- Localization_isconnected_O_leq_&#45;&gt;Localization_O_leq_lift_accrsu -->
<g id="edge11" class="edge">
<title>Localization_isconnected_O_leq_&#45;&gt;Localization_O_leq_lift_accrsu</title>
<path fill="none" stroke="#000000" d="M897.9522,-602.7663C892.235,-590.4952 884.5943,-574.0957 878.1574,-560.2798"/>
<polygon fill="#000000" stroke="#000000" points="881.3277,-558.7966 873.9318,-551.2103 874.9825,-561.7529 881.3277,-558.7966"/>
</g>
<!-- Localization_isconnected_O_leq_&#45;&gt;Localization_O_eq_lift_accrsu -->
<g id="edge12" class="edge">
<title>Localization_isconnected_O_leq_&#45;&gt;Localization_O_eq_lift_accrsu</title>
<path fill="none" stroke="#000000" d="M937.4817,-603.8238C962.7337,-589.8479 998.5351,-570.0332 1025.8511,-554.915"/>
<polygon fill="#000000" stroke="#000000" points="1027.7075,-557.8879 1034.762,-549.9832 1024.3178,-551.7633 1027.7075,-557.8879"/>
</g>
<!-- Localization_lift_accrsu -->
<g id="node11" class="node">
<title>Localization_lift_accrsu</title>
<g id="a_node11"><a xlink:href="Localization.html#lift_accrsu" xlink:title="lift_accrsu">
<ellipse fill="#f070d1" stroke="#000000" cx="866.4475" cy="-445" rx="59.5901" ry="18"/>
<text text-anchor="middle" x="866.4475" y="-441.3" font-family="Times,serif" font-size="14.00" fill="#000000">lift_accrsu</text>
</a>
</g>
</g>
<!-- Localization_O_leq_lift_accrsu&#45;&gt;Localization_lift_accrsu -->
<g id="edge13" class="edge">
<title>Localization_O_leq_lift_accrsu&#45;&gt;Localization_lift_accrsu</title>
<path fill="none" stroke="#000000" d="M865.6547,-514.7663C865.7901,-502.8492 865.9698,-487.0384 866.1238,-473.4817"/>
<polygon fill="#000000" stroke="#000000" points="869.6266,-473.2495 866.2405,-463.2103 862.627,-473.1698 869.6266,-473.2495"/>
</g>
<!-- Localization_O_eq_lift_accrsu&#45;&gt;Localization_lift_accrsu -->
<g id="edge14" class="edge">
<title>Localization_O_eq_lift_accrsu&#45;&gt;Localization_lift_accrsu</title>
<path fill="none" stroke="#000000" d="M1028.0171,-516.4479C994.4674,-501.6118 945.242,-479.8438 909.9515,-464.2379"/>
<polygon fill="#000000" stroke="#000000" points="910.9531,-460.854 900.3919,-460.0106 908.122,-467.256 910.9531,-460.854"/>
</g>
<!-- Localization_Loc -->
<g id="node21" class="node">
<title>Localization_Loc</title>
<g id="a_node21"><a xlink:href="Localization.html#Loc" xlink:title="Loc">
<ellipse fill="#f070d1" stroke="#000000" cx="719.4475" cy="-365" rx="27.8951" ry="18"/>
<text text-anchor="middle" x="719.4475" y="-361.3" font-family="Times,serif" font-size="14.00" fill="#000000">Loc</text>
</a>
</g>
</g>
<!-- Localization_lift_accrsu&#45;&gt;Localization_Loc -->
<g id="edge15" class="edge">
<title>Localization_lift_accrsu&#45;&gt;Localization_Loc</title>
<path fill="none" stroke="#000000" d="M837.405,-429.1946C812.0679,-415.4057 775.4407,-395.4725 749.7407,-381.4861"/>
<polygon fill="#000000" stroke="#000000" points="751.2644,-378.3306 740.8078,-376.6247 747.9183,-384.4791 751.2644,-378.3306"/>
</g>
<!-- Localization_accrsu_loc -->
<g id="node12" class="node">
<title>Localization_accrsu_loc</title>
<g id="a_node12"><a xlink:href="Localization.html#accrsu_loc" xlink:title="accrsu_loc">
<ellipse fill="#f070d1" stroke="#000000" cx="719.4475" cy="-445" rx="60.3958" ry="18"/>
<ellipse fill="none" stroke="#000000" cx="719.4475" cy="-445" rx="64.3926" ry="22"/>
<ellipse fill="none" stroke="#000000" cx="719.4475" cy="-445" rx="68.3893" ry="26"/>
<text text-anchor="middle" x="719.4475" y="-441.3" font-family="Times,serif" font-size="14.00" fill="#000000">accrsu_loc</text>
</a>
</g>
</g>
<!-- Localization_accrsu_loc&#45;&gt;Localization_Loc -->
<g id="edge16" class="edge">
<title>Localization_accrsu_loc&#45;&gt;Localization_Loc</title>
<path fill="none" stroke="#000000" d="M719.4475,-418.805C719.4475,-410.6026 719.4475,-401.5174 719.4475,-393.1839"/>
<polygon fill="#000000" stroke="#000000" points="722.9476,-393.1532 719.4475,-383.1532 715.9476,-393.1533 722.9476,-393.1532"/>
</g>
<!-- Localization_local_indpaths_beta -->
<g id="node13" class="node">
<title>Localization_local_indpaths_beta</title>
<g id="a_node13"><a xlink:href="Localization.html#local_indpaths_beta" xlink:title="local_indpaths_beta">
<ellipse fill="#f070d1" stroke="#000000" cx="675.4475" cy="-621" rx="103.1933" ry="18"/>
<ellipse fill="none" stroke="#000000" cx="675.4475" cy="-621" rx="107.1876" ry="22"/>
<ellipse fill="none" stroke="#000000" cx="675.4475" cy="-621" rx="111.1819" ry="26"/>
<text text-anchor="middle" x="675.4475" y="-617.3" font-family="Times,serif" font-size="14.00" fill="#000000">local_indpaths_beta</text>
</a>
</g>
</g>
<!-- Localization_local_indpaths -->
<g id="node14" class="node">
<title>Localization_local_indpaths</title>
<g id="a_node14"><a xlink:href="Localization.html#local_indpaths" xlink:title="local_indpaths">
<ellipse fill="#f070d1" stroke="#000000" cx="675.4475" cy="-533" rx="77.9862" ry="18"/>
<text text-anchor="middle" x="675.4475" y="-529.3" font-family="Times,serif" font-size="14.00" fill="#000000">local_indpaths</text>
</a>
</g>
</g>
<!-- Localization_local_indpaths_beta&#45;&gt;Localization_local_indpaths -->
<g id="edge17" class="edge">
<title>Localization_local_indpaths_beta&#45;&gt;Localization_local_indpaths</title>
<path fill="none" stroke="#000000" d="M675.4475,-594.5971C675.4475,-584.0414 675.4475,-571.868 675.4475,-561.1448"/>
<polygon fill="#000000" stroke="#000000" points="678.9476,-561.0188 675.4475,-551.0188 671.9476,-561.0188 678.9476,-561.0188"/>
</g>
<!-- Localization_ooextendable_islocal -->
<g id="node20" class="node">
<title>Localization_ooextendable_islocal</title>
<g id="a_node20"><a xlink:href="Localization.html#ooextendable_islocal" xlink:title="ooextendable_islocal">
<ellipse fill="#f070d1" stroke="#000000" cx="525.4475" cy="-445" rx="107.4815" ry="18"/>
<text text-anchor="middle" x="525.4475" y="-441.3" font-family="Times,serif" font-size="14.00" fill="#000000">ooextendable_islocal</text>
</a>
</g>
</g>
<!-- Localization_local_indpaths&#45;&gt;Localization_ooextendable_islocal -->
<g id="edge18" class="edge">
<title>Localization_local_indpaths&#45;&gt;Localization_ooextendable_islocal</title>
<path fill="none" stroke="#000000" d="M646.8805,-516.2407C623.3851,-502.4567 589.8663,-482.7924 563.9945,-467.6142"/>
<polygon fill="#000000" stroke="#000000" points="565.5875,-464.491 555.1912,-462.4496 562.0454,-470.5287 565.5875,-464.491"/>
</g>
<!-- Localization_local_rec_beta -->
<g id="node15" class="node">
<title>Localization_local_rec_beta</title>
<g id="a_node15"><a xlink:href="Localization.html#local_rec_beta" xlink:title="local_rec_beta">
<ellipse fill="#f070d1" stroke="#000000" cx="459.4475" cy="-621" rx="77.9868" ry="18"/>
<ellipse fill="none" stroke="#000000" cx="459.4475" cy="-621" rx="81.9865" ry="22"/>
<ellipse fill="none" stroke="#000000" cx="459.4475" cy="-621" rx="85.9862" ry="26"/>
<text text-anchor="middle" x="459.4475" y="-617.3" font-family="Times,serif" font-size="14.00" fill="#000000">local_rec_beta</text>
</a>
</g>
</g>
<!-- Localization_local_rec -->
<g id="node16" class="node">
<title>Localization_local_rec</title>
<g id="a_node16"><a xlink:href="Localization.html#local_rec" xlink:title="local_rec">
<ellipse fill="#f070d1" stroke="#000000" cx="526.4475" cy="-533" rx="52.7911" ry="18"/>
<text text-anchor="middle" x="526.4475" y="-529.3" font-family="Times,serif" font-size="14.00" fill="#000000">local_rec</text>
</a>
</g>
</g>
<!-- Localization_local_rec_beta&#45;&gt;Localization_local_rec -->
<g id="edge19" class="edge">
<title>Localization_local_rec_beta&#45;&gt;Localization_local_rec</title>
<path fill="none" stroke="#000000" d="M478.8266,-595.5468C487.6589,-583.9462 498.094,-570.2404 506.9415,-558.6198"/>
<polygon fill="#000000" stroke="#000000" points="509.7846,-560.6633 513.0576,-550.5867 504.2151,-556.4229 509.7846,-560.6633"/>
</g>
<!-- Localization_local_rec&#45;&gt;Localization_ooextendable_islocal -->
<g id="edge20" class="edge">
<title>Localization_local_rec&#45;&gt;Localization_ooextendable_islocal</title>
<path fill="none" stroke="#000000" d="M526.2403,-514.7663C526.1048,-502.8492 525.9252,-487.0384 525.7711,-473.4817"/>
<polygon fill="#000000" stroke="#000000" points="529.2679,-473.1698 525.6544,-463.2103 522.2684,-473.2495 529.2679,-473.1698"/>
</g>
<!-- Localization_Localize_rec -->
<g id="node17" class="node">
<title>Localization_Localize_rec</title>
<g id="a_node17"><a xlink:href="Localization.html#Localize_rec" xlink:title="Localize_rec">
<ellipse fill="#f070d1" stroke="#000000" cx="377.4475" cy="-533" rx="69.5832" ry="18"/>
<ellipse fill="none" stroke="#000000" cx="377.4475" cy="-533" rx="73.5854" ry="22"/>
<ellipse fill="none" stroke="#000000" cx="377.4475" cy="-533" rx="77.5877" ry="26"/>
<text text-anchor="middle" x="377.4475" y="-529.3" font-family="Times,serif" font-size="14.00" fill="#000000">Localize_rec</text>
</a>
</g>
</g>
<!-- Localization_Localize_rec&#45;&gt;Localization_ooextendable_islocal -->
<g id="edge21" class="edge">
<title>Localization_Localize_rec&#45;&gt;Localization_ooextendable_islocal</title>
<path fill="none" stroke="#000000" d="M415.5611,-510.3378C437.5417,-497.2683 465.0959,-480.8847 487.1135,-467.7931"/>
<polygon fill="#000000" stroke="#000000" points="489.0632,-470.7059 495.8698,-462.5867 485.4857,-464.6891 489.0632,-470.7059"/>
</g>
<!-- Localization_isequiv_precomp_islocal -->
<g id="node18" class="node">
<title>Localization_isequiv_precomp_islocal</title>
<g id="a_node18"><a xlink:href="Localization.html#isequiv_precomp_islocal" xlink:title="isequiv_precomp_islocal">
<ellipse fill="#f070d1" stroke="#000000" cx="148.4475" cy="-533" rx="124.2697" ry="18"/>
<ellipse fill="none" stroke="#000000" cx="148.4475" cy="-533" rx="128.2739" ry="22"/>
<ellipse fill="none" stroke="#000000" cx="148.4475" cy="-533" rx="132.2781" ry="26"/>
<text text-anchor="middle" x="148.4475" y="-529.3" font-family="Times,serif" font-size="14.00" fill="#000000">isequiv_precomp_islocal</text>
</a>
</g>
</g>
<!-- Localization_isequiv_precomp_islocal&#45;&gt;Localization_ooextendable_islocal -->
<g id="edge22" class="edge">
<title>Localization_isequiv_precomp_islocal&#45;&gt;Localization_ooextendable_islocal</title>
<path fill="none" stroke="#000000" d="M233.9946,-513.0314C299.9836,-497.6282 390.2547,-476.5569 452.7712,-461.9642"/>
<polygon fill="#000000" stroke="#000000" points="453.6158,-465.3612 462.5584,-459.6797 452.0246,-458.5445 453.6158,-465.3612"/>
</g>
<!-- Localization_islocal_loc&#45;&gt;Localization_Loc -->
<g id="edge23" class="edge">
<title>Localization_islocal_loc&#45;&gt;Localization_Loc</title>
<path fill="none" stroke="#000000" d="M1197.3016,-518.2701C1142.7045,-495.0788 1032.0571,-449.5533 935.4475,-419 873.3497,-399.3613 799.4248,-382.1816 756.1415,-372.7313"/>
<polygon fill="#000000" stroke="#000000" points="756.8584,-369.3055 746.3443,-370.6102 755.3772,-376.147 756.8584,-369.3055"/>
</g>
<!-- Localization_ooextendable_islocal&#45;&gt;Localization_Loc -->
<g id="edge24" class="edge">
<title>Localization_ooextendable_islocal&#45;&gt;Localization_Loc</title>
<path fill="none" stroke="#000000" d="M566.1162,-428.2294C601.9145,-413.4672 653.3776,-392.2453 686.6139,-378.5396"/>
<polygon fill="#000000" stroke="#000000" points="687.9805,-381.762 695.891,-374.714 685.3119,-375.2907 687.9805,-381.762"/>
</g>
<!-- Localization_ext_localize_ind -->
<g id="node22" class="node">
<title>Localization_ext_localize_ind</title>
<g id="a_node22"><a xlink:href="Localization.html#ext_localize_ind" xlink:title="ext_localize_ind">
<ellipse fill="#f070d1" stroke="#000000" cx="845.4475" cy="-282" rx="85.2851" ry="18"/>
<text text-anchor="middle" x="845.4475" y="-278.3" font-family="Times,serif" font-size="14.00" fill="#000000">ext_localize_ind</text>
</a>
</g>
</g>
<!-- Localization_Loc&#45;&gt;Localization_ext_localize_ind -->
<g id="edge25" class="edge">
<title>Localization_Loc&#45;&gt;Localization_ext_localize_ind</title>
<path fill="none" stroke="#000000" d="M739.135,-352.0313C758.2834,-339.4176 787.7786,-319.9882 810.8482,-304.7916"/>
<polygon fill="#000000" stroke="#000000" points="812.9146,-307.6216 819.3402,-299.1977 809.0638,-301.7759 812.9146,-307.6216"/>
</g>
<!-- Localization_islocal_equiv_islocal -->
<g id="node23" class="node">
<title>Localization_islocal_equiv_islocal</title>
<g id="a_node23"><a xlink:href="Localization.html#islocal_equiv_islocal" xlink:title="islocal_equiv_islocal">
<ellipse fill="#f070d1" stroke="#000000" cx="361.4475" cy="-282" rx="105.0817" ry="18"/>
<text text-anchor="middle" x="361.4475" y="-278.3" font-family="Times,serif" font-size="14.00" fill="#000000">islocal_equiv_islocal</text>
</a>
</g>
</g>
<!-- Localization_Loc&#45;&gt;Localization_islocal_equiv_islocal -->
<g id="edge26" class="edge">
<title>Localization_Loc&#45;&gt;Localization_islocal_equiv_islocal</title>
<path fill="none" stroke="#000000" d="M691.3968,-363.245C636.3678,-359.5977 516.1652,-350.5664 476.4475,-339 449.1161,-331.0407 420.4249,-316.8308 398.5372,-304.5907"/>
<polygon fill="#000000" stroke="#000000" points="400.0173,-301.4056 389.5971,-299.4895 396.5481,-307.4854 400.0173,-301.4056"/>
</g>
<!-- Localization_ooextendable_over_const -->
<g id="node25" class="node">
<title>Localization_ooextendable_over_const</title>
<g id="a_node25"><a xlink:href="Localization.html#ooextendable_over_const" xlink:title="ooextendable_over_const">
<ellipse fill="#f070d1" stroke="#000000" cx="613.4475" cy="-282" rx="128.0773" ry="18"/>
<text text-anchor="middle" x="613.4475" y="-278.3" font-family="Times,serif" font-size="14.00" fill="#000000">ooextendable_over_const</text>
</a>
</g>
</g>
<!-- Localization_Loc&#45;&gt;Localization_ooextendable_over_const -->
<g id="edge27" class="edge">
<title>Localization_Loc&#45;&gt;Localization_ooextendable_over_const</title>
<path fill="none" stroke="#000000" d="M701.466,-350.9202C685.8244,-338.6725 662.8171,-320.6574 644.2477,-306.1172"/>
<polygon fill="#000000" stroke="#000000" points="646.365,-303.3297 636.3337,-299.9203 642.0494,-308.8412 646.365,-303.3297"/>
</g>
<!-- Localization_ext_localize_ind&#45;&gt;Localization_LocalizationHIT_Localize_ind -->
<g id="edge28" class="edge">
<title>Localization_ext_localize_ind&#45;&gt;Localization_LocalizationHIT_Localize_ind</title>
<path fill="none" stroke="#000000" d="M916.5531,-271.9892C984.0786,-261.7071 1088.1122,-243.8457 1176.4475,-220 1184.5694,-217.8075 1193.079,-215.1349 1201.3024,-212.3474"/>
<polygon fill="#000000" stroke="#000000" points="1202.492,-215.6393 1210.784,-209.0443 1200.1892,-209.029 1202.492,-215.6393"/>
</g>
<!-- Localization_ooextendable_over_homotopy -->
<g id="node24" class="node">
<title>Localization_ooextendable_over_homotopy</title>
<g id="a_node24"><a xlink:href="Localization.html#ooextendable_over_homotopy" xlink:title="ooextendable_over_homotopy">
<ellipse fill="#f070d1" stroke="#000000" cx="782.4475" cy="-194" rx="148.6738" ry="18"/>
<text text-anchor="middle" x="782.4475" y="-190.3" font-family="Times,serif" font-size="14.00" fill="#000000">ooextendable_over_homotopy</text>
</a>
</g>
</g>
<!-- Localization_ext_localize_ind&#45;&gt;Localization_ooextendable_over_homotopy -->
<g id="edge29" class="edge">
<title>Localization_ext_localize_ind&#45;&gt;Localization_ooextendable_over_homotopy</title>
<path fill="none" stroke="#000000" d="M832.6985,-264.1919C823.7064,-251.6316 811.5092,-234.5942 801.3835,-220.4504"/>
<polygon fill="#000000" stroke="#000000" points="804.0608,-218.1774 795.3937,-212.0837 798.369,-222.2522 804.0608,-218.1774"/>
</g>
<!-- Localization_ooextendable_over_homotopy&#45;&gt;Localization_ooExtendableAlong_Over -->
<g id="edge30" class="edge">
<title>Localization_ooextendable_over_homotopy&#45;&gt;Localization_ooExtendableAlong_Over</title>
<path fill="none" stroke="#000000" d="M782.4475,-175.8468C782.4475,-165.9251 782.4475,-153.4167 782.4475,-142.2492"/>
<polygon fill="#000000" stroke="#000000" points="785.9476,-142.0814 782.4475,-132.0814 778.9476,-142.0814 785.9476,-142.0814"/>
</g>
<!-- Localization_extendable_over_postcompose_ -->
<g id="node30" class="node">
<title>Localization_extendable_over_postcompose_</title>
<g id="a_node30"><a xlink:href="Localization.html#extendable_over_postcompose'" xlink:title="extendable_over_postcompose&#39;">
<ellipse fill="#f070d1" stroke="#000000" cx="455.4475" cy="-114" rx="155.1726" ry="18"/>
<text text-anchor="middle" x="455.4475" y="-110.3" font-family="Times,serif" font-size="14.00" fill="#000000">extendable_over_postcompose&#39;</text>
</a>
</g>
</g>
<!-- Localization_ooextendable_over_homotopy&#45;&gt;Localization_extendable_over_postcompose_ -->
<g id="edge31" class="edge">
<title>Localization_ooextendable_over_homotopy&#45;&gt;Localization_extendable_over_postcompose_</title>
<path fill="none" stroke="#000000" d="M716.2741,-177.8108C662.9306,-164.7604 587.8553,-146.3933 531.9387,-132.7134"/>
<polygon fill="#000000" stroke="#000000" points="532.6281,-129.279 522.0828,-130.3022 530.9645,-136.0784 532.6281,-129.279"/>
</g>
<!-- Localization_ooextendable_over_const&#45;&gt;Localization_ooExtendableAlong_Over -->
<g id="edge32" class="edge">
<title>Localization_ooextendable_over_const&#45;&gt;Localization_ooExtendableAlong_Over</title>
<path fill="none" stroke="#000000" d="M609.6415,-263.6031C605.6861,-239.0424 602.7481,-195.4553 624.4475,-168 635.2092,-154.3837 670.4713,-141.6909 704.9595,-132.0368"/>
<polygon fill="#000000" stroke="#000000" points="705.9181,-135.4033 714.6454,-129.3962 704.0769,-128.6497 705.9181,-135.4033"/>
</g>
<!-- Localization_extendable_over_const -->
<g id="node28" class="node">
<title>Localization_extendable_over_const</title>
<g id="a_node28"><a xlink:href="Localization.html#extendable_over_const" xlink:title="extendable_over_const">
<ellipse fill="#f070d1" stroke="#000000" cx="134.4475" cy="-194" rx="117.7793" ry="18"/>
<text text-anchor="middle" x="134.4475" y="-190.3" font-family="Times,serif" font-size="14.00" fill="#000000">extendable_over_const</text>
</a>
</g>
</g>
<!-- Localization_ooextendable_over_const&#45;&gt;Localization_extendable_over_const -->
<g id="edge33" class="edge">
<title>Localization_ooextendable_over_const&#45;&gt;Localization_extendable_over_const</title>
<path fill="none" stroke="#000000" d="M537.572,-267.4395C517.395,-263.6401 495.6072,-259.6024 475.4475,-256 380.9353,-239.1113 356.8376,-237.5582 262.4475,-220 246.7549,-217.0809 230.0146,-213.8014 213.9893,-210.5803"/>
<polygon fill="#000000" stroke="#000000" points="214.6145,-207.136 204.1194,-208.586 213.2281,-213.9973 214.6145,-207.136"/>
</g>
<!-- Localization_ExtendableAlong_Over -->
<g id="node31" class="node">
<title>Localization_ExtendableAlong_Over</title>
<g id="a_node31"><a xlink:href="Localization.html#ExtendableAlong_Over" xlink:title="ExtendableAlong_Over">
<ellipse fill="#f070d1" stroke="#000000" cx="782.4475" cy="-42" rx="118.0794" ry="18"/>
<text text-anchor="middle" x="782.4475" y="-38.3" font-family="Times,serif" font-size="14.00" fill="#000000">ExtendableAlong_Over</text>
</a>
</g>
</g>
<!-- Localization_ooExtendableAlong_Over&#45;&gt;Localization_ExtendableAlong_Over -->
<g id="edge34" class="edge">
<title>Localization_ooExtendableAlong_Over&#45;&gt;Localization_ExtendableAlong_Over</title>
<path fill="none" stroke="#000000" d="M782.4475,-95.8314C782.4475,-88.131 782.4475,-78.9743 782.4475,-70.4166"/>
<polygon fill="#000000" stroke="#000000" points="785.9476,-70.4132 782.4475,-60.4133 778.9476,-70.4133 785.9476,-70.4132"/>
</g>
<!-- Localization_apD_extendable_eq&#45;&gt;Localization_ExtendableAlong_Over -->
<g id="edge35" class="edge">
<title>Localization_apD_extendable_eq&#45;&gt;Localization_ExtendableAlong_Over</title>
<path fill="none" stroke="#000000" d="M1031.3147,-176.1983C1006.5661,-154.986 962.6434,-119.4717 920.4475,-96 896.2326,-82.5303 867.9667,-70.8364 843.3444,-61.8082"/>
<polygon fill="#000000" stroke="#000000" points="844.3442,-58.4483 833.7497,-58.3558 841.9742,-65.0349 844.3442,-58.4483"/>
</g>
<!-- Localization_extendable_over_const&#45;&gt;Localization_extendable_over_postcompose_ -->
<g id="edge36" class="edge">
<title>Localization_extendable_over_const&#45;&gt;Localization_extendable_over_postcompose_</title>
<path fill="none" stroke="#000000" d="M196.3395,-178.5752C248.7587,-165.5112 324.0894,-146.7372 380.0267,-132.7965"/>
<polygon fill="#000000" stroke="#000000" points="381.0266,-136.1544 389.8834,-130.3399 379.3338,-129.3621 381.0266,-136.1544"/>
</g>
<!-- Localization_extendable_over_postcompose -->
<g id="node29" class="node">
<title>Localization_extendable_over_postcompose</title>
<g id="a_node29"><a xlink:href="Localization.html#extendable_over_postcompose" xlink:title="extendable_over_postcompose">
<ellipse fill="#f070d1" stroke="#000000" cx="432.4475" cy="-194" rx="153.2785" ry="18"/>
<ellipse fill="none" stroke="#000000" cx="432.4475" cy="-194" rx="157.2757" ry="22"/>
<ellipse fill="none" stroke="#000000" cx="432.4475" cy="-194" rx="161.2729" ry="26"/>
<text text-anchor="middle" x="432.4475" y="-190.3" font-family="Times,serif" font-size="14.00" fill="#000000">extendable_over_postcompose</text>
</a>
</g>
</g>
<!-- Localization_extendable_over_postcompose&#45;&gt;Localization_extendable_over_postcompose_ -->
<g id="edge37" class="edge">
<title>Localization_extendable_over_postcompose&#45;&gt;Localization_extendable_over_postcompose_</title>
<path fill="none" stroke="#000000" d="M439.9785,-167.805C442.3629,-159.5114 445.0068,-150.3154 447.4244,-141.9064"/>
<polygon fill="#000000" stroke="#000000" points="450.829,-142.731 450.2284,-132.1532 444.1015,-140.7968 450.829,-142.731"/>
</g>
<!-- Localization_extendable_over_postcompose_&#45;&gt;Localization_ExtendableAlong_Over -->
<g id="edge38" class="edge">
<title>Localization_extendable_over_postcompose_&#45;&gt;Localization_ExtendableAlong_Over</title>
<path fill="none" stroke="#000000" d="M528.0194,-98.0209C580.6279,-86.4373 651.6524,-70.7989 705.2908,-58.9886"/>
<polygon fill="#000000" stroke="#000000" points="706.0821,-62.3983 715.0955,-56.8298 704.5768,-55.5621 706.0821,-62.3983"/>
</g>
</g>
</svg>
