<?xml version="1.0" encoding="UTF-8" standalone="no"?>
<!DOCTYPE svg PUBLIC "-//W3C//DTD SVG 1.1//EN"
 "http://www.w3.org/Graphics/SVG/1.1/DTD/svg11.dtd">
<!-- Generated by graphviz version 2.40.1 (20161225.0304)
 -->
<!-- Title: HoTT_Spaces_BAut_Bool Pages: 1 -->
<svg width="2590pt" height="1299pt"
 viewBox="0.00 0.00 2590.00 1299.00" xmlns="http://www.w3.org/2000/svg" xmlns:xlink="http://www.w3.org/1999/xlink">
<g id="graph0" class="graph" transform="scale(1 1) rotate(0) translate(4 1295)">
<title>HoTT_Spaces_BAut_Bool</title>
<polygon fill="#ffffff" stroke="transparent" points="-4,4 -4,-1295 2586,-1295 2586,4 -4,4"/>
<g id="clust1" class="cluster">
<title>cluster_Bool</title>
<polygon fill="#ffffc3" stroke="#000000" points="11.8034,-8 11.8034,-1283 2570.1966,-1283 2570.1966,-8 11.8034,-8"/>
<text text-anchor="middle" x="35.8034" y="-1267.8" font-family="Times,serif" font-size="14.00" fill="#000000">Bool</text>
</g>
<!-- Bool_nontrivial_negb_center_baut_baut_bool -->
<g id="node1" class="node">
<title>Bool_nontrivial_negb_center_baut_baut_bool</title>
<g id="a_node1"><a xlink:href="Bool.html#nontrivial_negb_center_baut_baut_bool" xlink:title="nontrivial_negb_center_baut_baut_bool">
<ellipse fill="#f070d1" stroke="#000000" cx="965.9211" cy="-1226" rx="194.1723" ry="18"/>
<ellipse fill="none" stroke="#000000" cx="965.9211" cy="-1226" rx="198.169" ry="22"/>
<ellipse fill="none" stroke="#000000" cx="965.9211" cy="-1226" rx="202.1657" ry="26"/>
<text text-anchor="middle" x="965.9211" y="-1222.3" font-family="Times,serif" font-size="14.00" fill="#000000">nontrivial_negb_center_baut_baut_bool</text>
</a>
</g>
</g>
<!-- Bool_negb_center2_baut_baut_bool -->
<g id="node2" class="node">
<title>Bool_negb_center2_baut_baut_bool</title>
<g id="a_node2"><a xlink:href="Bool.html#negb_center2_baut_baut_bool" xlink:title="negb_center2_baut_baut_bool">
<ellipse fill="#f070d1" stroke="#000000" cx="965.9211" cy="-1146" rx="150.5735" ry="18"/>
<text text-anchor="middle" x="965.9211" y="-1142.3" font-family="Times,serif" font-size="14.00" fill="#000000">negb_center2_baut_baut_bool</text>
</a>
</g>
</g>
<!-- Bool_nontrivial_negb_center_baut_baut_bool&#45;&gt;Bool_negb_center2_baut_baut_bool -->
<g id="edge1" class="edge">
<title>Bool_nontrivial_negb_center_baut_baut_bool&#45;&gt;Bool_negb_center2_baut_baut_bool</title>
<path fill="none" stroke="#000000" d="M965.9211,-1199.805C965.9211,-1191.6026 965.9211,-1182.5174 965.9211,-1174.1839"/>
<polygon fill="#000000" stroke="#000000" points="969.4212,-1174.1532 965.9211,-1164.1532 962.4212,-1174.1533 969.4212,-1174.1532"/>
</g>
<!-- Bool_center_baut_bool_central -->
<g id="node3" class="node">
<title>Bool_center_baut_bool_central</title>
<g id="a_node3"><a xlink:href="Bool.html#center_baut_bool_central" xlink:title="center_baut_bool_central">
<ellipse fill="#f070d1" stroke="#000000" cx="965.9211" cy="-1074" rx="129.1772" ry="18"/>
<text text-anchor="middle" x="965.9211" y="-1070.3" font-family="Times,serif" font-size="14.00" fill="#000000">center_baut_bool_central</text>
</a>
</g>
</g>
<!-- Bool_negb_center2_baut_baut_bool&#45;&gt;Bool_center_baut_bool_central -->
<g id="edge2" class="edge">
<title>Bool_negb_center2_baut_baut_bool&#45;&gt;Bool_center_baut_bool_central</title>
<path fill="none" stroke="#000000" d="M965.9211,-1127.8314C965.9211,-1120.131 965.9211,-1110.9743 965.9211,-1102.4166"/>
<polygon fill="#000000" stroke="#000000" points="969.4212,-1102.4132 965.9211,-1092.4133 962.4212,-1102.4133 969.4212,-1102.4132"/>
</g>
<!-- Bool_equiv_baut_bool_aut_baut_bool -->
<g id="node4" class="node">
<title>Bool_equiv_baut_bool_aut_baut_bool</title>
<g id="a_node4"><a xlink:href="Bool.html#equiv_baut_bool_aut_baut_bool" xlink:title="equiv_baut_bool_aut_baut_bool">
<ellipse fill="#f070d1" stroke="#000000" cx="965.9211" cy="-1002" rx="156.7723" ry="18"/>
<text text-anchor="middle" x="965.9211" y="-998.3" font-family="Times,serif" font-size="14.00" fill="#000000">equiv_baut_bool_aut_baut_bool</text>
</a>
</g>
</g>
<!-- Bool_center_baut_bool_central&#45;&gt;Bool_equiv_baut_bool_aut_baut_bool -->
<g id="edge3" class="edge">
<title>Bool_center_baut_bool_central&#45;&gt;Bool_equiv_baut_bool_aut_baut_bool</title>
<path fill="none" stroke="#000000" d="M965.9211,-1055.8314C965.9211,-1048.131 965.9211,-1038.9743 965.9211,-1030.4166"/>
<polygon fill="#000000" stroke="#000000" points="969.4212,-1030.4132 965.9211,-1020.4133 962.4212,-1030.4133 969.4212,-1030.4132"/>
</g>
<!-- Bool_aut_baut_bool_moveR_pairing_V -->
<g id="node5" class="node">
<title>Bool_aut_baut_bool_moveR_pairing_V</title>
<g id="a_node5"><a xlink:href="Bool.html#aut_baut_bool_moveR_pairing_V" xlink:title="aut_baut_bool_moveR_pairing_V">
<ellipse fill="#f070d1" stroke="#000000" cx="743.9211" cy="-930" rx="162.4712" ry="18"/>
<text text-anchor="middle" x="743.9211" y="-926.3" font-family="Times,serif" font-size="14.00" fill="#000000">aut_baut_bool_moveR_pairing_V</text>
</a>
</g>
</g>
<!-- Bool_equiv_baut_bool_aut_baut_bool&#45;&gt;Bool_aut_baut_bool_moveR_pairing_V -->
<g id="edge4" class="edge">
<title>Bool_equiv_baut_bool_aut_baut_bool&#45;&gt;Bool_aut_baut_bool_moveR_pairing_V</title>
<path fill="none" stroke="#000000" d="M913.5914,-985.0282C881.5065,-974.6223 840.2438,-961.2398 806.4441,-950.2777"/>
<polygon fill="#000000" stroke="#000000" points="807.261,-946.8632 796.6689,-947.1074 805.1014,-953.5218 807.261,-946.8632"/>
</g>
<!-- Bool_baut_bool_pairing_ZZ_Z -->
<g id="node6" class="node">
<title>Bool_baut_bool_pairing_ZZ_Z</title>
<g id="a_node6"><a xlink:href="Bool.html#baut_bool_pairing_ZZ_Z" xlink:title="baut_bool_pairing_ZZ_Z">
<ellipse fill="#f070d1" stroke="#000000" cx="1190.9211" cy="-930" rx="122.6784" ry="18"/>
<text text-anchor="middle" x="1190.9211" y="-926.3" font-family="Times,serif" font-size="14.00" fill="#000000">baut_bool_pairing_ZZ_Z</text>
</a>
</g>
</g>
<!-- Bool_equiv_baut_bool_aut_baut_bool&#45;&gt;Bool_baut_bool_pairing_ZZ_Z -->
<g id="edge5" class="edge">
<title>Bool_equiv_baut_bool_aut_baut_bool&#45;&gt;Bool_baut_bool_pairing_ZZ_Z</title>
<path fill="none" stroke="#000000" d="M1018.9581,-985.0282C1052.2099,-974.3876 1095.1878,-960.6347 1129.8592,-949.5398"/>
<polygon fill="#000000" stroke="#000000" points="1130.9455,-952.8671 1139.403,-946.4858 1128.812,-946.2001 1130.9455,-952.8671"/>
</g>
<!-- Bool_baut_bool_pairing_ZZ -->
<g id="node12" class="node">
<title>Bool_baut_bool_pairing_ZZ</title>
<g id="a_node12"><a xlink:href="Bool.html#baut_bool_pairing_ZZ" xlink:title="baut_bool_pairing_ZZ">
<ellipse fill="#f070d1" stroke="#000000" cx="580.9211" cy="-626" rx="111.5806" ry="18"/>
<text text-anchor="middle" x="580.9211" y="-622.3" font-family="Times,serif" font-size="14.00" fill="#000000">baut_bool_pairing_ZZ</text>
</a>
</g>
</g>
<!-- Bool_equiv_baut_bool_aut_baut_bool&#45;&gt;Bool_baut_bool_pairing_ZZ -->
<g id="edge6" class="edge">
<title>Bool_equiv_baut_bool_aut_baut_bool&#45;&gt;Bool_baut_bool_pairing_ZZ</title>
<path fill="none" stroke="#000000" d="M833.2631,-992.4218C737.6733,-983.9069 617.9148,-969.4494 572.9211,-948 520.1286,-922.8328 476.9211,-916.4846 476.9211,-858 476.9211,-858 476.9211,-858 476.9211,-778 476.9211,-725.6072 519.5286,-678.0119 550.2002,-650.5373"/>
<polygon fill="#000000" stroke="#000000" points="552.8518,-652.8695 558.0979,-643.6647 548.2566,-647.5889 552.8518,-652.8695"/>
</g>
<!-- Bool_baut_bool_pairing_Z1 -->
<g id="node13" class="node">
<title>Bool_baut_bool_pairing_Z1</title>
<g id="a_node13"><a xlink:href="Bool.html#baut_bool_pairing_Z1" xlink:title="baut_bool_pairing_Z1">
<ellipse fill="#f070d1" stroke="#000000" cx="1399.9211" cy="-858" rx="111.2805" ry="18"/>
<text text-anchor="middle" x="1399.9211" y="-854.3" font-family="Times,serif" font-size="14.00" fill="#000000">baut_bool_pairing_Z1</text>
</a>
</g>
</g>
<!-- Bool_equiv_baut_bool_aut_baut_bool&#45;&gt;Bool_baut_bool_pairing_Z1 -->
<g id="edge7" class="edge">
<title>Bool_equiv_baut_bool_aut_baut_bool&#45;&gt;Bool_baut_bool_pairing_Z1</title>
<path fill="none" stroke="#000000" d="M1095.7599,-991.9C1181.3817,-983.4444 1284.5535,-969.2905 1322.9211,-948 1349.391,-933.3117 1370.8807,-905.7544 1384.3646,-884.9862"/>
<polygon fill="#000000" stroke="#000000" points="1387.4775,-886.6098 1389.815,-876.276 1381.5435,-882.8965 1387.4775,-886.6098"/>
</g>
<!-- Bool_baut_bool_pairing -->
<g id="node16" class="node">
<title>Bool_baut_bool_pairing</title>
<g id="a_node16"><a xlink:href="Bool.html#baut_bool_pairing" xlink:title="baut_bool_pairing">
<ellipse fill="#f070d1" stroke="#000000" cx="1668.9211" cy="-554" rx="94.4839" ry="18"/>
<text text-anchor="middle" x="1668.9211" y="-550.3" font-family="Times,serif" font-size="14.00" fill="#000000">baut_bool_pairing</text>
</a>
</g>
</g>
<!-- Bool_aut_baut_bool_moveR_pairing_V&#45;&gt;Bool_baut_bool_pairing -->
<g id="edge8" class="edge">
<title>Bool_aut_baut_bool_moveR_pairing_V&#45;&gt;Bool_baut_bool_pairing</title>
<path fill="none" stroke="#000000" d="M726.2119,-912.0188C693.8435,-877.0233 632.3007,-799.0741 675.9211,-752 711.6705,-713.4202 1095.5382,-720.7377 1147.9211,-716 1224.4706,-709.0766 1784.4777,-701.108 1835.9211,-644 1869.0015,-607.2771 1805.911,-582.6812 1748.0336,-568.6139"/>
<polygon fill="#000000" stroke="#000000" points="1748.5955,-565.1508 1738.0607,-566.2778 1746.9989,-571.9663 1748.5955,-565.1508"/>
</g>
<!-- Bool_baut_bool_pairing_ZZ_Z_symm -->
<g id="node7" class="node">
<title>Bool_baut_bool_pairing_ZZ_Z_symm</title>
<g id="a_node7"><a xlink:href="Bool.html#baut_bool_pairing_ZZ_Z_symm" xlink:title="baut_bool_pairing_ZZ_Z_symm">
<ellipse fill="#f070d1" stroke="#000000" cx="901.9211" cy="-858" rx="155.1726" ry="18"/>
<text text-anchor="middle" x="901.9211" y="-854.3" font-family="Times,serif" font-size="14.00" fill="#000000">baut_bool_pairing_ZZ_Z_symm</text>
</a>
</g>
</g>
<!-- Bool_baut_bool_pairing_ZZ_Z&#45;&gt;Bool_baut_bool_pairing_ZZ_Z_symm -->
<g id="edge9" class="edge">
<title>Bool_baut_bool_pairing_ZZ_Z&#45;&gt;Bool_baut_bool_pairing_ZZ_Z_symm</title>
<path fill="none" stroke="#000000" d="M1128.5683,-914.4657C1084.2626,-903.4276 1024.5284,-888.5457 977.507,-876.8311"/>
<polygon fill="#000000" stroke="#000000" points="978.2257,-873.4032 967.6762,-874.3819 976.5335,-880.1956 978.2257,-873.4032"/>
</g>
<!-- Bool_baut_bool_pairing_symm -->
<g id="node14" class="node">
<title>Bool_baut_bool_pairing_symm</title>
<g id="a_node14"><a xlink:href="Bool.html#baut_bool_pairing_symm" xlink:title="baut_bool_pairing_symm">
<ellipse fill="#f070d1" stroke="#000000" cx="1331.9211" cy="-778" rx="126.978" ry="18"/>
<text text-anchor="middle" x="1331.9211" y="-774.3" font-family="Times,serif" font-size="14.00" fill="#000000">baut_bool_pairing_symm</text>
</a>
</g>
</g>
<!-- Bool_baut_bool_pairing_ZZ_Z&#45;&gt;Bool_baut_bool_pairing_symm -->
<g id="edge10" class="edge">
<title>Bool_baut_bool_pairing_ZZ_Z&#45;&gt;Bool_baut_bool_pairing_symm</title>
<path fill="none" stroke="#000000" d="M1207.6494,-911.9667C1232.666,-884.9984 1279.9226,-834.0551 1308.4033,-803.3525"/>
<polygon fill="#000000" stroke="#000000" points="1310.9798,-805.7215 1315.2147,-796.0098 1305.8478,-800.9609 1310.9798,-805.7215"/>
</g>
<!-- Bool_baut_bool_pairing_ZZ_Z_symm_inv -->
<g id="node8" class="node">
<title>Bool_baut_bool_pairing_ZZ_Z_symm_inv</title>
<g id="a_node8"><a xlink:href="Bool.html#baut_bool_pairing_ZZ_Z_symm_inv" xlink:title="baut_bool_pairing_ZZ_Z_symm_inv">
<ellipse fill="#f070d1" stroke="#000000" cx="859.9211" cy="-778" rx="174.6691" ry="18"/>
<text text-anchor="middle" x="859.9211" y="-774.3" font-family="Times,serif" font-size="14.00" fill="#000000">baut_bool_pairing_ZZ_Z_symm_inv</text>
</a>
</g>
</g>
<!-- Bool_baut_bool_pairing_ZZ_Z_symm&#45;&gt;Bool_baut_bool_pairing_ZZ_Z_symm_inv -->
<g id="edge11" class="edge">
<title>Bool_baut_bool_pairing_ZZ_Z_symm&#45;&gt;Bool_baut_bool_pairing_ZZ_Z_symm_inv</title>
<path fill="none" stroke="#000000" d="M892.3907,-839.8468C887.0207,-829.6183 880.2074,-816.6405 874.2101,-805.217"/>
<polygon fill="#000000" stroke="#000000" points="877.1612,-803.3085 869.4139,-796.0814 870.9634,-806.5623 877.1612,-803.3085"/>
</g>
<!-- Bool_baut_bool_pairing_ZZ_Z_symm_map -->
<g id="node9" class="node">
<title>Bool_baut_bool_pairing_ZZ_Z_symm_map</title>
<g id="a_node9"><a xlink:href="Bool.html#baut_bool_pairing_ZZ_Z_symm_map" xlink:title="baut_bool_pairing_ZZ_Z_symm_map">
<ellipse fill="#f070d1" stroke="#000000" cx="957.9211" cy="-698" rx="180.8681" ry="18"/>
<text text-anchor="middle" x="957.9211" y="-694.3" font-family="Times,serif" font-size="14.00" fill="#000000">baut_bool_pairing_ZZ_Z_symm_map</text>
</a>
</g>
</g>
<!-- Bool_baut_bool_pairing_ZZ_Z_symm_inv&#45;&gt;Bool_baut_bool_pairing_ZZ_Z_symm_map -->
<g id="edge12" class="edge">
<title>Bool_baut_bool_pairing_ZZ_Z_symm_inv&#45;&gt;Bool_baut_bool_pairing_ZZ_Z_symm_map</title>
<path fill="none" stroke="#000000" d="M882.1589,-759.8468C895.6912,-748.8 913.1518,-734.5464 927.8995,-722.5075"/>
<polygon fill="#000000" stroke="#000000" points="930.2381,-725.1165 935.7714,-716.0814 925.8115,-719.6939 930.2381,-725.1165"/>
</g>
<!-- Bool_baut_bool_pairing_ZZ_Z_symm_lemma -->
<g id="node10" class="node">
<title>Bool_baut_bool_pairing_ZZ_Z_symm_lemma</title>
<g id="a_node10"><a xlink:href="Bool.html#baut_bool_pairing_ZZ_Z_symm_lemma" xlink:title="baut_bool_pairing_ZZ_Z_symm_lemma">
<ellipse fill="#f070d1" stroke="#000000" cx="1055.9211" cy="-626" rx="191.9663" ry="18"/>
<text text-anchor="middle" x="1055.9211" y="-622.3" font-family="Times,serif" font-size="14.00" fill="#000000">baut_bool_pairing_ZZ_Z_symm_lemma</text>
</a>
</g>
</g>
<!-- Bool_baut_bool_pairing_ZZ_Z_symm_map&#45;&gt;Bool_baut_bool_pairing_ZZ_Z_symm_lemma -->
<g id="edge13" class="edge">
<title>Bool_baut_bool_pairing_ZZ_Z_symm_map&#45;&gt;Bool_baut_bool_pairing_ZZ_Z_symm_lemma</title>
<path fill="none" stroke="#000000" d="M982.3979,-680.0171C994.6755,-670.9968 1009.7207,-659.9432 1022.9957,-650.1901"/>
<polygon fill="#000000" stroke="#000000" points="1025.4302,-652.7446 1031.4168,-644.0032 1021.2857,-647.1034 1025.4302,-652.7446"/>
</g>
<!-- Bool_baut_bool_pairing_ZZ_Z_symm_part1 -->
<g id="node11" class="node">
<title>Bool_baut_bool_pairing_ZZ_Z_symm_part1</title>
<g id="a_node11"><a xlink:href="Bool.html#baut_bool_pairing_ZZ_Z_symm_part1" xlink:title="baut_bool_pairing_ZZ_Z_symm_part1">
<ellipse fill="#f070d1" stroke="#000000" cx="1640.9211" cy="-626" rx="185.7671" ry="18"/>
<text text-anchor="middle" x="1640.9211" y="-622.3" font-family="Times,serif" font-size="14.00" fill="#000000">baut_bool_pairing_ZZ_Z_symm_part1</text>
</a>
</g>
</g>
<!-- Bool_baut_bool_pairing_ZZ_Z_symm_map&#45;&gt;Bool_baut_bool_pairing_ZZ_Z_symm_part1 -->
<g id="edge14" class="edge">
<title>Bool_baut_bool_pairing_ZZ_Z_symm_map&#45;&gt;Bool_baut_bool_pairing_ZZ_Z_symm_part1</title>
<path fill="none" stroke="#000000" d="M1082.3997,-684.8778C1201.7841,-672.2926 1381.5884,-653.3382 1504.7386,-640.356"/>
<polygon fill="#000000" stroke="#000000" points="1505.4099,-643.8047 1514.9878,-639.2755 1504.676,-636.8433 1505.4099,-643.8047"/>
</g>
<!-- Bool_merely_inhab_baut_bool -->
<g id="node26" class="node">
<title>Bool_merely_inhab_baut_bool</title>
<g id="a_node26"><a xlink:href="Bool.html#merely_inhab_baut_bool" xlink:title="merely_inhab_baut_bool">
<ellipse fill="#f070d1" stroke="#000000" cx="206.9211" cy="-626" rx="124.2781" ry="18"/>
<text text-anchor="middle" x="206.9211" y="-622.3" font-family="Times,serif" font-size="14.00" fill="#000000">merely_inhab_baut_bool</text>
</a>
</g>
</g>
<!-- Bool_baut_bool_pairing_ZZ_Z_symm_map&#45;&gt;Bool_merely_inhab_baut_bool -->
<g id="edge15" class="edge">
<title>Bool_baut_bool_pairing_ZZ_Z_symm_map&#45;&gt;Bool_merely_inhab_baut_bool</title>
<path fill="none" stroke="#000000" d="M827.5359,-685.4997C684.4209,-671.7789 456.9411,-649.97 320.7614,-636.9141"/>
<polygon fill="#000000" stroke="#000000" points="321.0003,-633.4211 310.7119,-635.9506 320.3322,-640.3891 321.0003,-633.4211"/>
</g>
<!-- Bool_baut_bool_pairing_ZZ_Z_symm_lemma&#45;&gt;Bool_baut_bool_pairing -->
<g id="edge16" class="edge">
<title>Bool_baut_bool_pairing_ZZ_Z_symm_lemma&#45;&gt;Bool_baut_bool_pairing</title>
<path fill="none" stroke="#000000" d="M1175.9337,-611.9039C1293.9456,-598.0428 1471.461,-577.1927 1578.1759,-564.6585"/>
<polygon fill="#000000" stroke="#000000" points="1578.7544,-568.1147 1588.2778,-563.472 1577.9377,-561.1625 1578.7544,-568.1147"/>
</g>
<!-- Bool_path_baut_bool_inhab -->
<g id="node21" class="node">
<title>Bool_path_baut_bool_inhab</title>
<g id="a_node21"><a xlink:href="Bool.html#path_baut_bool_inhab" xlink:title="path_baut_bool_inhab">
<ellipse fill="#f070d1" stroke="#000000" cx="1165.9211" cy="-554" rx="112.3801" ry="18"/>
<text text-anchor="middle" x="1165.9211" y="-550.3" font-family="Times,serif" font-size="14.00" fill="#000000">path_baut_bool_inhab</text>
</a>
</g>
</g>
<!-- Bool_baut_bool_pairing_ZZ_Z_symm_lemma&#45;&gt;Bool_path_baut_bool_inhab -->
<g id="edge17" class="edge">
<title>Bool_baut_bool_pairing_ZZ_Z_symm_lemma&#45;&gt;Bool_path_baut_bool_inhab</title>
<path fill="none" stroke="#000000" d="M1083.395,-608.0171C1097.6513,-598.6857 1115.232,-587.1783 1130.4984,-577.1858"/>
<polygon fill="#000000" stroke="#000000" points="1132.7267,-579.9104 1139.1769,-571.5053 1128.8931,-574.0535 1132.7267,-579.9104"/>
</g>
<!-- Bool_baut_bool_pairing_ZZ_Z_symm_part1&#45;&gt;Bool_baut_bool_pairing -->
<g id="edge18" class="edge">
<title>Bool_baut_bool_pairing_ZZ_Z_symm_part1&#45;&gt;Bool_baut_bool_pairing</title>
<path fill="none" stroke="#000000" d="M1647.9867,-607.8314C1651.0471,-599.9617 1654.699,-590.5712 1658.0893,-581.8533"/>
<polygon fill="#000000" stroke="#000000" points="1661.3979,-583.0019 1661.7604,-572.4133 1654.8739,-580.4647 1661.3979,-583.0019"/>
</g>
<!-- Bool_baut_bool_pairing_ZZ_Z_symm_part1&#45;&gt;Bool_path_baut_bool_inhab -->
<g id="edge19" class="edge">
<title>Bool_baut_bool_pairing_ZZ_Z_symm_part1&#45;&gt;Bool_path_baut_bool_inhab</title>
<path fill="none" stroke="#000000" d="M1540.7663,-610.8186C1457.239,-598.1577 1339.1795,-580.2623 1257.9889,-567.9555"/>
<polygon fill="#000000" stroke="#000000" points="1258.1909,-564.4463 1247.7793,-566.408 1257.1418,-571.3672 1258.1909,-564.4463"/>
</g>
<!-- Bool_baut_bool_pairing_ZZ&#45;&gt;Bool_baut_bool_pairing -->
<g id="edge20" class="edge">
<title>Bool_baut_bool_pairing_ZZ&#45;&gt;Bool_baut_bool_pairing</title>
<path fill="none" stroke="#000000" d="M684.7503,-619.129C894.0767,-605.2765 1364.2488,-574.1621 1569.6905,-560.5667"/>
<polygon fill="#000000" stroke="#000000" points="1570.1193,-564.0461 1579.8664,-559.8933 1569.657,-557.0614 1570.1193,-564.0461"/>
</g>
<!-- Bool_baut_bool_pairing_ZZ&#45;&gt;Bool_path_baut_bool_inhab -->
<g id="edge21" class="edge">
<title>Bool_baut_bool_pairing_ZZ&#45;&gt;Bool_path_baut_bool_inhab</title>
<path fill="none" stroke="#000000" d="M669.7701,-615.0647C776.55,-601.9226 955.2137,-579.9332 1066.4958,-566.237"/>
<polygon fill="#000000" stroke="#000000" points="1067.2192,-569.6744 1076.7167,-564.979 1066.364,-562.7269 1067.2192,-569.6744"/>
</g>
<!-- Bool_baut_bool_pairing_Z1&#45;&gt;Bool_baut_bool_pairing_symm -->
<g id="edge22" class="edge">
<title>Bool_baut_bool_pairing_Z1&#45;&gt;Bool_baut_bool_pairing_symm</title>
<path fill="none" stroke="#000000" d="M1384.4909,-839.8468C1375.4489,-829.2091 1363.8793,-815.5978 1353.897,-803.854"/>
<polygon fill="#000000" stroke="#000000" points="1356.4336,-801.434 1347.2903,-796.0814 1351.1001,-805.9676 1356.4336,-801.434"/>
</g>
<!-- Bool_baut_bool_pairing_1Z -->
<g id="node15" class="node">
<title>Bool_baut_bool_pairing_1Z</title>
<g id="a_node15"><a xlink:href="Bool.html#baut_bool_pairing_1Z" xlink:title="baut_bool_pairing_1Z">
<ellipse fill="#f070d1" stroke="#000000" cx="1709.9211" cy="-778" rx="111.2805" ry="18"/>
<text text-anchor="middle" x="1709.9211" y="-774.3" font-family="Times,serif" font-size="14.00" fill="#000000">baut_bool_pairing_1Z</text>
</a>
</g>
</g>
<!-- Bool_baut_bool_pairing_Z1&#45;&gt;Bool_baut_bool_pairing_1Z -->
<g id="edge23" class="edge">
<title>Bool_baut_bool_pairing_Z1&#45;&gt;Bool_baut_bool_pairing_1Z</title>
<path fill="none" stroke="#000000" d="M1459.3255,-842.6699C1511.1291,-829.3012 1586.3056,-809.9008 1640.7946,-795.8391"/>
<polygon fill="#000000" stroke="#000000" points="1641.9096,-799.1661 1650.7178,-793.2783 1640.1604,-792.3882 1641.9096,-799.1661"/>
</g>
<!-- Bool_baut_bool_pairing_symm&#45;&gt;Bool_baut_bool_pairing -->
<g id="edge24" class="edge">
<title>Bool_baut_bool_pairing_symm&#45;&gt;Bool_baut_bool_pairing</title>
<path fill="none" stroke="#000000" d="M1420.0886,-765.0227C1582.3566,-740.2568 1914.8289,-685.0648 1947.9211,-644 1957.9607,-631.5418 1958.1033,-620.3419 1947.9211,-608 1925.3275,-580.6141 1839.9563,-566.9532 1769.5351,-560.2408"/>
<polygon fill="#000000" stroke="#000000" points="1769.5403,-556.7267 1759.2628,-559.3 1768.9019,-563.6975 1769.5403,-556.7267"/>
</g>
<!-- Bool_baut_bool_pairing_1Z&#45;&gt;Bool_baut_bool_pairing -->
<g id="edge25" class="edge">
<title>Bool_baut_bool_pairing_1Z&#45;&gt;Bool_baut_bool_pairing</title>
<path fill="none" stroke="#000000" d="M1804.5266,-768.5182C1872.6827,-759.5049 1956.2993,-743.195 1977.9211,-716 2007.7934,-678.4281 2008.8029,-644.7466 1977.9211,-608 1951.797,-576.9146 1851.2594,-563.7211 1771.8655,-558.123"/>
<polygon fill="#000000" stroke="#000000" points="1772.0145,-554.6252 1761.802,-557.4456 1771.5443,-561.6094 1772.0145,-554.6252"/>
</g>
<!-- Bool_equiv_equiv_inhab_baut_bool_bool -->
<g id="node18" class="node">
<title>Bool_equiv_equiv_inhab_baut_bool_bool</title>
<g id="a_node18"><a xlink:href="Bool.html#equiv_equiv_inhab_baut_bool_bool" xlink:title="equiv_equiv_inhab_baut_bool_bool">
<ellipse fill="#f070d1" stroke="#000000" cx="2283.9211" cy="-698" rx="171.6696" ry="18"/>
<text text-anchor="middle" x="2283.9211" y="-694.3" font-family="Times,serif" font-size="14.00" fill="#000000">equiv_equiv_inhab_baut_bool_bool</text>
</a>
</g>
</g>
<!-- Bool_baut_bool_pairing_1Z&#45;&gt;Bool_equiv_equiv_inhab_baut_bool_bool -->
<g id="edge26" class="edge">
<title>Bool_baut_bool_pairing_1Z&#45;&gt;Bool_equiv_equiv_inhab_baut_bool_bool</title>
<path fill="none" stroke="#000000" d="M1794.3084,-766.2387C1893.8043,-752.3717 2059.6075,-729.2632 2170.3281,-713.8318"/>
<polygon fill="#000000" stroke="#000000" points="2171.1119,-717.2565 2180.533,-712.4095 2170.1456,-710.3235 2171.1119,-717.2565"/>
</g>
<!-- Bool_equiv_equiv_inhab_baut_bool_bool_bool_inv -->
<g id="node17" class="node">
<title>Bool_equiv_equiv_inhab_baut_bool_bool_bool_inv</title>
<g id="a_node17"><a xlink:href="Bool.html#equiv_equiv_inhab_baut_bool_bool_bool_inv" xlink:title="equiv_equiv_inhab_baut_bool_bool_bool_inv">
<ellipse fill="#f070d1" stroke="#000000" cx="2228.9211" cy="-778" rx="215.2572" ry="18"/>
<ellipse fill="none" stroke="#000000" cx="2228.9211" cy="-778" rx="219.2596" ry="22"/>
<ellipse fill="none" stroke="#000000" cx="2228.9211" cy="-778" rx="223.2619" ry="26"/>
<text text-anchor="middle" x="2228.9211" y="-774.3" font-family="Times,serif" font-size="14.00" fill="#000000">equiv_equiv_inhab_baut_bool_bool_bool_inv</text>
</a>
</g>
</g>
<!-- Bool_equiv_equiv_inhab_baut_bool_bool_bool_inv&#45;&gt;Bool_equiv_equiv_inhab_baut_bool_bool -->
<g id="edge27" class="edge">
<title>Bool_equiv_equiv_inhab_baut_bool_bool_bool_inv&#45;&gt;Bool_equiv_equiv_inhab_baut_bool_bool</title>
<path fill="none" stroke="#000000" d="M2246.9302,-751.805C2252.9453,-743.0557 2259.651,-733.3021 2265.6833,-724.5277"/>
<polygon fill="#000000" stroke="#000000" points="2268.6596,-726.3765 2271.4408,-716.1532 2262.8913,-722.4108 2268.6596,-726.3765"/>
</g>
<!-- Bool_isequiv_equiv_inhab_baut_bool_bool -->
<g id="node19" class="node">
<title>Bool_isequiv_equiv_inhab_baut_bool_bool</title>
<g id="a_node19"><a xlink:href="Bool.html#isequiv_equiv_inhab_baut_bool_bool" xlink:title="isequiv_equiv_inhab_baut_bool_bool">
<ellipse fill="#f070d1" stroke="#000000" cx="2293.9211" cy="-626" rx="179.2682" ry="18"/>
<text text-anchor="middle" x="2293.9211" y="-622.3" font-family="Times,serif" font-size="14.00" fill="#000000">isequiv_equiv_inhab_baut_bool_bool</text>
</a>
</g>
</g>
<!-- Bool_equiv_equiv_inhab_baut_bool_bool&#45;&gt;Bool_isequiv_equiv_inhab_baut_bool_bool -->
<g id="edge28" class="edge">
<title>Bool_equiv_equiv_inhab_baut_bool_bool&#45;&gt;Bool_isequiv_equiv_inhab_baut_bool_bool</title>
<path fill="none" stroke="#000000" d="M2286.4446,-679.8314C2287.5141,-672.131 2288.7858,-662.9743 2289.9744,-654.4166"/>
<polygon fill="#000000" stroke="#000000" points="2293.4547,-654.7997 2291.3637,-644.4133 2286.5213,-653.8367 2293.4547,-654.7997"/>
</g>
<!-- Bool_isequiv_equiv_inhab_baut_bool_bool_lemma -->
<g id="node20" class="node">
<title>Bool_isequiv_equiv_inhab_baut_bool_bool_lemma</title>
<g id="a_node20"><a xlink:href="Bool.html#isequiv_equiv_inhab_baut_bool_bool_lemma" xlink:title="isequiv_equiv_inhab_baut_bool_bool_lemma">
<ellipse fill="#f070d1" stroke="#000000" cx="2209.9211" cy="-554" rx="215.5619" ry="18"/>
<text text-anchor="middle" x="2209.9211" y="-550.3" font-family="Times,serif" font-size="14.00" fill="#000000">isequiv_equiv_inhab_baut_bool_bool_lemma</text>
</a>
</g>
</g>
<!-- Bool_isequiv_equiv_inhab_baut_bool_bool&#45;&gt;Bool_isequiv_equiv_inhab_baut_bool_bool_lemma -->
<g id="edge29" class="edge">
<title>Bool_isequiv_equiv_inhab_baut_bool_bool&#45;&gt;Bool_isequiv_equiv_inhab_baut_bool_bool_lemma</title>
<path fill="none" stroke="#000000" d="M2272.7244,-607.8314C2262.4777,-599.0485 2250.0209,-588.3712 2238.9115,-578.8489"/>
<polygon fill="#000000" stroke="#000000" points="2240.9815,-576.0134 2231.1111,-572.1628 2236.4259,-581.3282 2240.9815,-576.0134"/>
</g>
<!-- Bool_equiv_inhab_baut_bool_bool -->
<g id="node22" class="node">
<title>Bool_equiv_inhab_baut_bool_bool</title>
<g id="a_node22"><a xlink:href="Bool.html#equiv_inhab_baut_bool_bool" xlink:title="equiv_inhab_baut_bool_bool">
<ellipse fill="#f070d1" stroke="#000000" cx="1274.9211" cy="-482" rx="141.8751" ry="18"/>
<text text-anchor="middle" x="1274.9211" y="-478.3" font-family="Times,serif" font-size="14.00" fill="#000000">equiv_inhab_baut_bool_bool</text>
</a>
</g>
</g>
<!-- Bool_isequiv_equiv_inhab_baut_bool_bool_lemma&#45;&gt;Bool_equiv_inhab_baut_bool_bool -->
<g id="edge30" class="edge">
<title>Bool_isequiv_equiv_inhab_baut_bool_bool_lemma&#45;&gt;Bool_equiv_inhab_baut_bool_bool</title>
<path fill="none" stroke="#000000" d="M2051.3111,-541.7862C1869.7984,-527.8087 1575.8382,-505.1722 1406.4962,-492.132"/>
<polygon fill="#000000" stroke="#000000" points="1406.5153,-488.6232 1396.276,-491.345 1405.9778,-495.6025 1406.5153,-488.6232"/>
</g>
<!-- Bool_path_baut_bool_inhab&#45;&gt;Bool_equiv_inhab_baut_bool_bool -->
<g id="edge31" class="edge">
<title>Bool_path_baut_bool_inhab&#45;&gt;Bool_equiv_inhab_baut_bool_bool</title>
<path fill="none" stroke="#000000" d="M1192.5855,-536.3868C1206.7053,-527.06 1224.2325,-515.4824 1239.4819,-505.4094"/>
<polygon fill="#000000" stroke="#000000" points="1241.7393,-508.113 1248.1542,-499.6809 1237.8812,-502.2722 1241.7393,-508.113"/>
</g>
<!-- Bool_isequiv_inhab_baut_bool_from_bool -->
<g id="node23" class="node">
<title>Bool_isequiv_inhab_baut_bool_from_bool</title>
<g id="a_node23"><a xlink:href="Bool.html#isequiv_inhab_baut_bool_from_bool" xlink:title="isequiv_inhab_baut_bool_from_bool">
<ellipse fill="#f070d1" stroke="#000000" cx="1274.9211" cy="-410" rx="176.2688" ry="18"/>
<text text-anchor="middle" x="1274.9211" y="-406.3" font-family="Times,serif" font-size="14.00" fill="#000000">isequiv_inhab_baut_bool_from_bool</text>
</a>
</g>
</g>
<!-- Bool_equiv_inhab_baut_bool_bool&#45;&gt;Bool_isequiv_inhab_baut_bool_from_bool -->
<g id="edge32" class="edge">
<title>Bool_equiv_inhab_baut_bool_bool&#45;&gt;Bool_isequiv_inhab_baut_bool_from_bool</title>
<path fill="none" stroke="#000000" d="M1274.9211,-463.8314C1274.9211,-456.131 1274.9211,-446.9743 1274.9211,-438.4166"/>
<polygon fill="#000000" stroke="#000000" points="1278.4212,-438.4132 1274.9211,-428.4133 1271.4212,-438.4133 1278.4212,-438.4132"/>
</g>
<!-- Bool_inhab_baut_bool_from_bool_bool -->
<g id="node24" class="node">
<title>Bool_inhab_baut_bool_from_bool_bool</title>
<g id="a_node24"><a xlink:href="Bool.html#inhab_baut_bool_from_bool_bool" xlink:title="inhab_baut_bool_from_bool_bool">
<ellipse fill="#f070d1" stroke="#000000" cx="1274.9211" cy="-330" rx="162.4712" ry="18"/>
<text text-anchor="middle" x="1274.9211" y="-326.3" font-family="Times,serif" font-size="14.00" fill="#000000">inhab_baut_bool_from_bool_bool</text>
</a>
</g>
</g>
<!-- Bool_isequiv_inhab_baut_bool_from_bool&#45;&gt;Bool_inhab_baut_bool_from_bool_bool -->
<g id="edge33" class="edge">
<title>Bool_isequiv_inhab_baut_bool_from_bool&#45;&gt;Bool_inhab_baut_bool_from_bool_bool</title>
<path fill="none" stroke="#000000" d="M1274.9211,-391.8468C1274.9211,-381.9251 1274.9211,-369.4167 1274.9211,-358.2492"/>
<polygon fill="#000000" stroke="#000000" points="1278.4212,-358.0814 1274.9211,-348.0814 1271.4212,-358.0814 1278.4212,-358.0814"/>
</g>
<!-- Bool_inhab_baut_bool_from_bool -->
<g id="node25" class="node">
<title>Bool_inhab_baut_bool_from_bool</title>
<g id="a_node25"><a xlink:href="Bool.html#inhab_baut_bool_from_bool" xlink:title="inhab_baut_bool_from_bool">
<ellipse fill="#f070d1" stroke="#000000" cx="1253.9211" cy="-178" rx="137.5759" ry="18"/>
<text text-anchor="middle" x="1253.9211" y="-174.3" font-family="Times,serif" font-size="14.00" fill="#000000">inhab_baut_bool_from_bool</text>
</a>
</g>
</g>
<!-- Bool_inhab_baut_bool_from_bool_bool&#45;&gt;Bool_inhab_baut_bool_from_bool -->
<g id="edge34" class="edge">
<title>Bool_inhab_baut_bool_from_bool_bool&#45;&gt;Bool_inhab_baut_bool_from_bool</title>
<path fill="none" stroke="#000000" d="M1272.4297,-311.9667C1268.8143,-285.7983 1262.0802,-237.0561 1257.8085,-206.1368"/>
<polygon fill="#000000" stroke="#000000" points="1261.2451,-205.4367 1256.4093,-196.0098 1254.3109,-206.3948 1261.2451,-205.4367"/>
</g>
<!-- Bool_negb_baut_bool_bool_negb -->
<g id="node30" class="node">
<title>Bool_negb_baut_bool_bool_negb</title>
<g id="a_node30"><a xlink:href="Bool.html#negb_baut_bool_bool_negb" xlink:title="negb_baut_bool_bool_negb">
<ellipse fill="#f070d1" stroke="#000000" cx="785.9211" cy="-250" rx="135.6761" ry="18"/>
<text text-anchor="middle" x="785.9211" y="-246.3" font-family="Times,serif" font-size="14.00" fill="#000000">negb_baut_bool_bool_negb</text>
</a>
</g>
</g>
<!-- Bool_inhab_baut_bool_from_bool_bool&#45;&gt;Bool_negb_baut_bool_bool_negb -->
<g id="edge35" class="edge">
<title>Bool_inhab_baut_bool_from_bool_bool&#45;&gt;Bool_negb_baut_bool_bool_negb</title>
<path fill="none" stroke="#000000" d="M1183.804,-315.0933C1097.7321,-301.012 969.1194,-279.9711 881.587,-265.6509"/>
<polygon fill="#000000" stroke="#000000" points="882.0884,-262.1864 871.6545,-264.0259 880.9581,-269.0946 882.0884,-262.1864"/>
</g>
<!-- Bool_negb_baut_bool -->
<g id="node32" class="node">
<title>Bool_negb_baut_bool</title>
<g id="a_node32"><a xlink:href="Bool.html#negb_baut_bool" xlink:title="negb_baut_bool">
<ellipse fill="#f070d1" stroke="#000000" cx="1193.9211" cy="-106" rx="83.6854" ry="18"/>
<text text-anchor="middle" x="1193.9211" y="-102.3" font-family="Times,serif" font-size="14.00" fill="#000000">negb_baut_bool</text>
</a>
</g>
</g>
<!-- Bool_inhab_baut_bool_from_bool&#45;&gt;Bool_negb_baut_bool -->
<g id="edge36" class="edge">
<title>Bool_inhab_baut_bool_from_bool&#45;&gt;Bool_negb_baut_bool</title>
<path fill="none" stroke="#000000" d="M1238.7806,-159.8314C1231.6921,-151.3251 1223.1228,-141.0419 1215.3811,-131.752"/>
<polygon fill="#000000" stroke="#000000" points="1217.9396,-129.355 1208.849,-123.9134 1212.5621,-133.8363 1217.9396,-129.355"/>
</g>
<!-- Bool_isminusoneconnected_baut_bool -->
<g id="node27" class="node">
<title>Bool_isminusoneconnected_baut_bool</title>
<g id="a_node27"><a xlink:href="Bool.html#isminusoneconnected_baut_bool" xlink:title="isminusoneconnected_baut_bool">
<ellipse fill="#f070d1" stroke="#000000" cx="262.9211" cy="-554" rx="161.6714" ry="18"/>
<text text-anchor="middle" x="262.9211" y="-550.3" font-family="Times,serif" font-size="14.00" fill="#000000">isminusoneconnected_baut_bool</text>
</a>
</g>
</g>
<!-- Bool_merely_inhab_baut_bool&#45;&gt;Bool_isminusoneconnected_baut_bool -->
<g id="edge37" class="edge">
<title>Bool_merely_inhab_baut_bool&#45;&gt;Bool_isminusoneconnected_baut_bool</title>
<path fill="none" stroke="#000000" d="M221.0523,-607.8314C227.5022,-599.5386 235.2657,-589.557 242.3463,-580.4533"/>
<polygon fill="#000000" stroke="#000000" points="245.223,-582.4556 248.5997,-572.4133 239.6975,-578.158 245.223,-582.4556"/>
</g>
<!-- Bool_aut_baut_bool_idmap_or_negb -->
<g id="node28" class="node">
<title>Bool_aut_baut_bool_idmap_or_negb</title>
<g id="a_node28"><a xlink:href="Bool.html#aut_baut_bool_idmap_or_negb" xlink:title="aut_baut_bool_idmap_or_negb">
<ellipse fill="#f070d1" stroke="#000000" cx="291.9211" cy="-330" rx="152.1687" ry="18"/>
<ellipse fill="none" stroke="#000000" cx="291.9211" cy="-330" rx="156.1709" ry="22"/>
<ellipse fill="none" stroke="#000000" cx="291.9211" cy="-330" rx="160.1731" ry="26"/>
<text text-anchor="middle" x="291.9211" y="-326.3" font-family="Times,serif" font-size="14.00" fill="#000000">aut_baut_bool_idmap_or_negb</text>
</a>
</g>
</g>
<!-- Bool_aut_baut_bool_idmap_or_negb&#45;&gt;Bool_negb_baut_bool_bool_negb -->
<g id="edge38" class="edge">
<title>Bool_aut_baut_bool_idmap_or_negb&#45;&gt;Bool_negb_baut_bool_bool_negb</title>
<path fill="none" stroke="#000000" d="M405.5647,-311.5962C491.4904,-297.6811 608.1668,-278.7861 689.5498,-265.6067"/>
<polygon fill="#000000" stroke="#000000" points="690.4814,-269.0015 699.7932,-263.9478 689.3623,-262.0915 690.4814,-269.0015"/>
</g>
<!-- Bool_ap_pr1_negb_baut_bool_bool -->
<g id="node29" class="node">
<title>Bool_ap_pr1_negb_baut_bool_bool</title>
<g id="a_node29"><a xlink:href="Bool.html#ap_pr1_negb_baut_bool_bool" xlink:title="ap_pr1_negb_baut_bool_bool">
<ellipse fill="#f070d1" stroke="#000000" cx="781.9211" cy="-330" rx="145.6697" ry="18"/>
<ellipse fill="none" stroke="#000000" cx="781.9211" cy="-330" rx="149.6719" ry="22"/>
<ellipse fill="none" stroke="#000000" cx="781.9211" cy="-330" rx="153.6742" ry="26"/>
<text text-anchor="middle" x="781.9211" y="-326.3" font-family="Times,serif" font-size="14.00" fill="#000000">ap_pr1_negb_baut_bool_bool</text>
</a>
</g>
</g>
<!-- Bool_ap_pr1_negb_baut_bool_bool&#45;&gt;Bool_negb_baut_bool_bool_negb -->
<g id="edge39" class="edge">
<title>Bool_ap_pr1_negb_baut_bool_bool&#45;&gt;Bool_negb_baut_bool_bool_negb</title>
<path fill="none" stroke="#000000" d="M783.2309,-303.805C783.641,-295.6026 784.0953,-286.5174 784.5119,-278.1839"/>
<polygon fill="#000000" stroke="#000000" points="788.0096,-278.3156 785.0135,-268.1532 781.0184,-277.9659 788.0096,-278.3156"/>
</g>
<!-- Bool_negb_baut_bool_ne_idmap -->
<g id="node31" class="node">
<title>Bool_negb_baut_bool_ne_idmap</title>
<g id="a_node31"><a xlink:href="Bool.html#negb_baut_bool_ne_idmap" xlink:title="negb_baut_bool_ne_idmap">
<ellipse fill="#f070d1" stroke="#000000" cx="793.9211" cy="-178" rx="133.7763" ry="18"/>
<text text-anchor="middle" x="793.9211" y="-174.3" font-family="Times,serif" font-size="14.00" fill="#000000">negb_baut_bool_ne_idmap</text>
</a>
</g>
</g>
<!-- Bool_negb_baut_bool_bool_negb&#45;&gt;Bool_negb_baut_bool_ne_idmap -->
<g id="edge40" class="edge">
<title>Bool_negb_baut_bool_bool_negb&#45;&gt;Bool_negb_baut_bool_ne_idmap</title>
<path fill="none" stroke="#000000" d="M787.9399,-231.8314C788.7955,-224.131 789.8129,-214.9743 790.7637,-206.4166"/>
<polygon fill="#000000" stroke="#000000" points="794.2494,-206.7386 791.8752,-196.4133 787.2922,-205.9656 794.2494,-206.7386"/>
</g>
<!-- Bool_negb_baut_bool_ne_idmap&#45;&gt;Bool_negb_baut_bool -->
<g id="edge41" class="edge">
<title>Bool_negb_baut_bool_ne_idmap&#45;&gt;Bool_negb_baut_bool</title>
<path fill="none" stroke="#000000" d="M874.3859,-163.5163C945.925,-150.6393 1049.6937,-131.9609 1119.3789,-119.4176"/>
<polygon fill="#000000" stroke="#000000" points="1120.1834,-122.8291 1129.4052,-117.6129 1118.9433,-115.9398 1120.1834,-122.8291"/>
</g>
<!-- Bool_nontrivial_negb_center_baut_bool -->
<g id="node33" class="node">
<title>Bool_nontrivial_negb_center_baut_bool</title>
<g id="a_node33"><a xlink:href="Bool.html#nontrivial_negb_center_baut_bool" xlink:title="nontrivial_negb_center_baut_bool">
<ellipse fill="#f070d1" stroke="#000000" cx="793.9211" cy="-106" rx="168.97" ry="18"/>
<text text-anchor="middle" x="793.9211" y="-102.3" font-family="Times,serif" font-size="14.00" fill="#000000">nontrivial_negb_center_baut_bool</text>
</a>
</g>
</g>
<!-- Bool_negb_baut_bool_ne_idmap&#45;&gt;Bool_nontrivial_negb_center_baut_bool -->
<g id="edge42" class="edge">
<title>Bool_negb_baut_bool_ne_idmap&#45;&gt;Bool_nontrivial_negb_center_baut_bool</title>
<path fill="none" stroke="#000000" d="M793.9211,-159.8314C793.9211,-152.131 793.9211,-142.9743 793.9211,-134.4166"/>
<polygon fill="#000000" stroke="#000000" points="797.4212,-134.4132 793.9211,-124.4133 790.4212,-134.4133 797.4212,-134.4132"/>
</g>
<!-- Bool_negb_center_baut_bool -->
<g id="node34" class="node">
<title>Bool_negb_center_baut_bool</title>
<g id="a_node34"><a xlink:href="Bool.html#negb_center_baut_bool" xlink:title="negb_center_baut_bool">
<ellipse fill="#f070d1" stroke="#000000" cx="992.9211" cy="-34" rx="118.8789" ry="18"/>
<text text-anchor="middle" x="992.9211" y="-30.3" font-family="Times,serif" font-size="14.00" fill="#000000">negb_center_baut_bool</text>
</a>
</g>
</g>
<!-- Bool_negb_baut_bool&#45;&gt;Bool_negb_center_baut_bool -->
<g id="edge43" class="edge">
<title>Bool_negb_baut_bool&#45;&gt;Bool_negb_center_baut_bool</title>
<path fill="none" stroke="#000000" d="M1150.8016,-90.5542C1121.1128,-79.9194 1081.377,-65.6857 1049.1973,-54.1586"/>
<polygon fill="#000000" stroke="#000000" points="1050.0672,-50.7525 1039.4726,-50.6751 1047.7065,-57.3425 1050.0672,-50.7525"/>
</g>
<!-- Bool_nontrivial_negb_center_baut_bool&#45;&gt;Bool_negb_center_baut_bool -->
<g id="edge44" class="edge">
<title>Bool_nontrivial_negb_center_baut_bool&#45;&gt;Bool_negb_center_baut_bool</title>
<path fill="none" stroke="#000000" d="M841.8398,-88.6626C870.5859,-78.262 907.2713,-64.9889 937.2935,-54.1266"/>
<polygon fill="#000000" stroke="#000000" points="938.5757,-57.3848 946.7884,-50.6913 936.1941,-50.8024 938.5757,-57.3848"/>
</g>
</g>
</svg>
