<?xml version="1.0" encoding="UTF-8" standalone="no"?>
<!DOCTYPE svg PUBLIC "-//W3C//DTD SVG 1.1//EN"
 "http://www.w3.org/Graphics/SVG/1.1/DTD/svg11.dtd">
<!-- Generated by graphviz version 2.40.1 (20161225.0304)
 -->
<!-- Title: HoTT_HIT_epi Pages: 1 -->
<svg width="832pt" height="420pt"
 viewBox="0.00 0.00 832.00 420.00" xmlns="http://www.w3.org/2000/svg" xmlns:xlink="http://www.w3.org/1999/xlink">
<g id="graph0" class="graph" transform="scale(1 1) rotate(0) translate(4 416)">
<title>HoTT_HIT_epi</title>
<polygon fill="#ffffff" stroke="transparent" points="-4,4 -4,-416 828,-416 828,4 -4,4"/>
<g id="clust1" class="cluster">
<title>cluster_epi</title>
<polygon fill="#ffffc3" stroke="#000000" points="8,-9.2845 8,-402.7155 816,-402.7155 816,-9.2845 8,-9.2845"/>
<text text-anchor="middle" x="27" y="-387.5155" font-family="Times,serif" font-size="14.00" fill="#000000">epi</text>
</g>
<!-- epi_isepi_isequiv -->
<g id="node1" class="node">
<title>epi_isepi_isequiv</title>
<g id="a_node1"><a xlink:href="epi.html#isepi_isequiv" xlink:title="isepi_isequiv">
<ellipse fill="#f070d1" stroke="#000000" cx="507" cy="-132.2845" rx="70.7036" ry="18"/>
<ellipse fill="none" stroke="#000000" cx="507" cy="-132.2845" rx="74.6957" ry="22"/>
<ellipse fill="none" stroke="#000000" cx="507" cy="-132.2845" rx="78.6877" ry="26"/>
<text text-anchor="middle" x="507" y="-128.5845" font-family="Times,serif" font-size="14.00" fill="#000000">isepi_isequiv</text>
</a>
</g>
</g>
<!-- epi_isepi -->
<g id="node12" class="node">
<title>epi_isepi</title>
<g id="a_node12"><a xlink:href="epi.html#isepi" xlink:title="isepi">
<ellipse fill="#f070d1" stroke="#000000" cx="426" cy="-39.2845" rx="32.4942" ry="18"/>
<text text-anchor="middle" x="426" y="-35.5845" font-family="Times,serif" font-size="14.00" fill="#000000">isepi</text>
</a>
</g>
</g>
<!-- epi_isepi_isequiv&#45;&gt;epi_isepi -->
<g id="edge1" class="edge">
<title>epi_isepi_isequiv&#45;&gt;epi_isepi</title>
<path fill="none" stroke="#000000" d="M484.8664,-106.8718C473.0742,-93.3326 458.6464,-76.7674 447.0258,-63.4253"/>
<polygon fill="#000000" stroke="#000000" points="449.4089,-60.8324 440.2018,-55.5903 444.1304,-65.4299 449.4089,-60.8324"/>
</g>
<!-- epi_isepi_issurj -->
<g id="node2" class="node">
<title>epi_isepi_issurj</title>
<g id="a_node2"><a xlink:href="epi.html#isepi_issurj" xlink:title="isepi_issurj">
<ellipse fill="#f070d1" stroke="#000000" cx="641" cy="-336.2845" rx="63.8675" ry="18"/>
<ellipse fill="none" stroke="#000000" cx="641" cy="-336.2845" rx="67.8784" ry="22"/>
<ellipse fill="none" stroke="#000000" cx="641" cy="-336.2845" rx="71.8892" ry="26"/>
<text text-anchor="middle" x="641" y="-332.5845" font-family="Times,serif" font-size="14.00" fill="#000000">isepi_issurj</text>
</a>
</g>
</g>
<!-- epi_fam -->
<g id="node3" class="node">
<title>epi_fam</title>
<g id="a_node3"><a xlink:href="epi.html#fam" xlink:title="fam">
<ellipse fill="#f070d1" stroke="#000000" cx="779" cy="-234.2845" rx="28.6953" ry="18"/>
<text text-anchor="middle" x="779" y="-230.5845" font-family="Times,serif" font-size="14.00" fill="#000000">fam</text>
</a>
</g>
</g>
<!-- epi_isepi_issurj&#45;&gt;epi_fam -->
<g id="edge2" class="edge">
<title>epi_isepi_issurj&#45;&gt;epi_fam</title>
<path fill="none" stroke="#000000" d="M672.66,-312.8836C696.6506,-295.1515 729.2592,-271.0494 752.0184,-254.2274"/>
<polygon fill="#000000" stroke="#000000" points="754.259,-256.9237 760.2204,-248.1651 750.0982,-251.2944 754.259,-256.9237"/>
</g>
<!-- epi_epif -->
<g id="node4" class="node">
<title>epi_epif</title>
<g id="a_node4"><a xlink:href="epi.html#epif" xlink:title="epif">
<ellipse fill="#f070d1" stroke="#000000" cx="503" cy="-234.2845" rx="28.6953" ry="18"/>
<text text-anchor="middle" x="503" y="-230.5845" font-family="Times,serif" font-size="14.00" fill="#000000">epif</text>
</a>
</g>
</g>
<!-- epi_isepi_issurj&#45;&gt;epi_epif -->
<g id="edge3" class="edge">
<title>epi_isepi_issurj&#45;&gt;epi_epif</title>
<path fill="none" stroke="#000000" d="M609.34,-312.8836C585.3494,-295.1515 552.7408,-271.0494 529.9816,-254.2274"/>
<polygon fill="#000000" stroke="#000000" points="531.9018,-251.2944 521.7796,-248.1651 527.741,-256.9237 531.9018,-251.2944"/>
</g>
<!-- epi_isepi__contr_cone -->
<g id="node7" class="node">
<title>epi_isepi__contr_cone</title>
<g id="a_node7"><a xlink:href="epi.html#isepi'_contr_cone" xlink:title="isepi&#39;_contr_cone">
<ellipse fill="#f070d1" stroke="#000000" cx="641" cy="-234.2845" rx="91.784" ry="18"/>
<text text-anchor="middle" x="641" y="-230.5845" font-family="Times,serif" font-size="14.00" fill="#000000">isepi&#39;_contr_cone</text>
</a>
</g>
</g>
<!-- epi_isepi_issurj&#45;&gt;epi_isepi__contr_cone -->
<g id="edge4" class="edge">
<title>epi_isepi_issurj&#45;&gt;epi_isepi__contr_cone</title>
<path fill="none" stroke="#000000" d="M641,-310.2817C641,-295.7481 641,-277.6162 641,-262.7086"/>
<polygon fill="#000000" stroke="#000000" points="644.5001,-262.5209 641,-252.521 637.5001,-262.521 644.5001,-262.5209"/>
</g>
<!-- epi_equiv_isepi_isepi_ -->
<g id="node9" class="node">
<title>epi_equiv_isepi_isepi_</title>
<g id="a_node9"><a xlink:href="epi.html#equiv_isepi_isepi'" xlink:title="equiv_isepi_isepi&#39;">
<ellipse fill="#f070d1" stroke="#000000" cx="696" cy="-132.2845" rx="92.0841" ry="18"/>
<text text-anchor="middle" x="696" y="-128.5845" font-family="Times,serif" font-size="14.00" fill="#000000">equiv_isepi_isepi&#39;</text>
</a>
</g>
</g>
<!-- epi_epif&#45;&gt;epi_equiv_isepi_isepi_ -->
<g id="edge5" class="edge">
<title>epi_epif&#45;&gt;epi_equiv_isepi_isepi_</title>
<path fill="none" stroke="#000000" d="M521.4393,-220.4629C527.2505,-216.3442 533.7788,-211.9542 540,-208.2845 575.2736,-187.4776 617.0731,-167.3384 648.522,-153.0246"/>
<polygon fill="#000000" stroke="#000000" points="650.258,-156.081 657.9309,-148.7751 647.3767,-149.7015 650.258,-156.081"/>
</g>
<!-- epi_issurj_isepi_funext -->
<g id="node5" class="node">
<title>epi_issurj_isepi_funext</title>
<g id="a_node5"><a xlink:href="epi.html#issurj_isepi_funext" xlink:title="issurj_isepi_funext">
<ellipse fill="#f070d1" stroke="#000000" cx="243" cy="-234.2845" rx="98.2721" ry="18"/>
<ellipse fill="none" stroke="#000000" cx="243" cy="-234.2845" rx="102.2774" ry="22"/>
<ellipse fill="none" stroke="#000000" cx="243" cy="-234.2845" rx="106.2828" ry="26"/>
<text text-anchor="middle" x="243" y="-230.5845" font-family="Times,serif" font-size="14.00" fill="#000000">issurj_isepi_funext</text>
</a>
</g>
</g>
<!-- epi_issurj_isepi -->
<g id="node6" class="node">
<title>epi_issurj_isepi</title>
<g id="a_node6"><a xlink:href="epi.html#issurj_isepi" xlink:title="issurj_isepi">
<ellipse fill="#f070d1" stroke="#000000" cx="346" cy="-132.2845" rx="63.8893" ry="18"/>
<text text-anchor="middle" x="346" y="-128.5845" font-family="Times,serif" font-size="14.00" fill="#000000">issurj_isepi</text>
</a>
</g>
</g>
<!-- epi_issurj_isepi_funext&#45;&gt;epi_issurj_isepi -->
<g id="edge6" class="edge">
<title>epi_issurj_isepi_funext&#45;&gt;epi_issurj_isepi</title>
<path fill="none" stroke="#000000" d="M268.7256,-208.8087C284.702,-192.9874 305.1372,-172.7506 320.9799,-157.0617"/>
<polygon fill="#000000" stroke="#000000" points="323.7058,-159.288 328.3486,-149.7646 318.7803,-154.3142 323.7058,-159.288"/>
</g>
<!-- epi_equiv_isepi_isepi_funext -->
<g id="node8" class="node">
<title>epi_equiv_isepi_isepi_funext</title>
<g id="a_node8"><a xlink:href="epi.html#equiv_isepi_isepi_funext" xlink:title="equiv_isepi_isepi_funext">
<ellipse fill="#f070d1" stroke="#000000" cx="140" cy="-132.2845" rx="124.2781" ry="18"/>
<text text-anchor="middle" x="140" y="-128.5845" font-family="Times,serif" font-size="14.00" fill="#000000">equiv_isepi_isepi_funext</text>
</a>
</g>
</g>
<!-- epi_issurj_isepi_funext&#45;&gt;epi_equiv_isepi_isepi_funext -->
<g id="edge7" class="edge">
<title>epi_issurj_isepi_funext&#45;&gt;epi_equiv_isepi_isepi_funext</title>
<path fill="none" stroke="#000000" d="M217.2744,-208.8087C201.5029,-193.1902 181.386,-173.2687 165.6317,-157.6674"/>
<polygon fill="#000000" stroke="#000000" points="167.8547,-154.943 158.2864,-150.3934 162.9291,-159.9168 167.8547,-154.943"/>
</g>
<!-- epi_issurj_isepi&#45;&gt;epi_isepi -->
<g id="edge8" class="edge">
<title>epi_issurj_isepi&#45;&gt;epi_isepi</title>
<path fill="none" stroke="#000000" d="M361.0474,-114.7919C373.4583,-100.3642 391.2053,-79.7333 405.0133,-63.6816"/>
<polygon fill="#000000" stroke="#000000" points="407.9577,-65.6256 411.8257,-55.7621 402.651,-61.0607 407.9577,-65.6256"/>
</g>
<!-- epi_isepi_ -->
<g id="node10" class="node">
<title>epi_isepi_</title>
<g id="a_node10"><a xlink:href="epi.html#isepi'" xlink:title="isepi&#39;">
<ellipse fill="#f070d1" stroke="#000000" cx="734" cy="-39.2845" rx="35.194" ry="18"/>
<text text-anchor="middle" x="734" y="-35.5845" font-family="Times,serif" font-size="14.00" fill="#000000">isepi&#39;</text>
</a>
</g>
</g>
<!-- epi_isepi__contr_cone&#45;&gt;epi_isepi_ -->
<g id="edge9" class="edge">
<title>epi_isepi__contr_cone&#45;&gt;epi_isepi_</title>
<path fill="none" stroke="#000000" d="M703.2716,-220.9343C737.2531,-210.1304 776.4782,-191.1099 797,-158.2845 809.2514,-138.6879 805.5148,-127.7699 797,-106.2845 789.8697,-88.2927 775.368,-72.3181 762.0737,-60.484"/>
<polygon fill="#000000" stroke="#000000" points="764.3387,-57.8157 754.4507,-54.0108 759.8077,-63.1515 764.3387,-57.8157"/>
</g>
<!-- epi_isepi_funext -->
<g id="node11" class="node">
<title>epi_isepi_funext</title>
<g id="a_node11"><a xlink:href="epi.html#isepi_funext" xlink:title="isepi_funext">
<ellipse fill="#f070d1" stroke="#000000" cx="140" cy="-39.2845" rx="67.6881" ry="18"/>
<text text-anchor="middle" x="140" y="-35.5845" font-family="Times,serif" font-size="14.00" fill="#000000">isepi_funext</text>
</a>
</g>
</g>
<!-- epi_equiv_isepi_isepi_funext&#45;&gt;epi_isepi_funext -->
<g id="edge10" class="edge">
<title>epi_equiv_isepi_isepi_funext&#45;&gt;epi_isepi_funext</title>
<path fill="none" stroke="#000000" d="M140,-113.9107C140,-100.7057 140,-82.6535 140,-67.6119"/>
<polygon fill="#000000" stroke="#000000" points="143.5001,-67.3037 140,-57.3037 136.5001,-67.3037 143.5001,-67.3037"/>
</g>
<!-- epi_equiv_isepi_isepi_funext&#45;&gt;epi_isepi -->
<g id="edge11" class="edge">
<title>epi_equiv_isepi_isepi_funext&#45;&gt;epi_isepi</title>
<path fill="none" stroke="#000000" d="M190.8015,-115.7651C247.3839,-97.366 337.5391,-68.0498 388.2188,-51.57"/>
<polygon fill="#000000" stroke="#000000" points="389.3793,-54.8731 397.8068,-48.4522 387.2146,-48.2162 389.3793,-54.8731"/>
</g>
<!-- epi_equiv_isepi_isepi_&#45;&gt;epi_isepi_ -->
<g id="edge12" class="edge">
<title>epi_equiv_isepi_isepi_&#45;&gt;epi_isepi_</title>
<path fill="none" stroke="#000000" d="M703.5076,-113.9107C709.0434,-100.3625 716.6641,-81.7117 722.9021,-66.4451"/>
<polygon fill="#000000" stroke="#000000" points="726.2233,-67.5701 726.7658,-56.9891 719.7434,-64.9223 726.2233,-67.5701"/>
</g>
<!-- epi_equiv_isepi_isepi_&#45;&gt;epi_isepi -->
<g id="edge13" class="edge">
<title>epi_equiv_isepi_isepi_&#45;&gt;epi_isepi</title>
<path fill="none" stroke="#000000" d="M650.5035,-116.6135C597.9182,-98.5008 512.3579,-69.03 463.4503,-52.184"/>
<polygon fill="#000000" stroke="#000000" points="464.4814,-48.8375 453.8867,-48.8899 462.2017,-55.4558 464.4814,-48.8375"/>
</g>
</g>
</svg>
