<?xml version="1.0" encoding="UTF-8" standalone="no"?>
<!DOCTYPE svg PUBLIC "-//W3C//DTD SVG 1.1//EN"
 "http://www.w3.org/Graphics/SVG/1.1/DTD/svg11.dtd">
<!-- Generated by graphviz version 2.40.1 (20161225.0304)
 -->
<!-- Title: HoTT_Homotopy_Wedge Pages: 1 -->
<svg width="366pt" height="187pt"
 viewBox="0.00 0.00 366.00 187.00" xmlns="http://www.w3.org/2000/svg" xmlns:xlink="http://www.w3.org/1999/xlink">
<g id="graph0" class="graph" transform="scale(1 1) rotate(0) translate(4 183)">
<title>HoTT_Homotopy_Wedge</title>
<polygon fill="#ffffff" stroke="transparent" points="-4,4 -4,-183 362,-183 362,4 -4,4"/>
<g id="clust1" class="cluster">
<title>cluster_Wedge</title>
<polygon fill="#ffffc3" stroke="#000000" points="10.0845,-8 10.0845,-171 347.9155,-171 347.9155,-8 10.0845,-8"/>
<text text-anchor="middle" x="42.5845" y="-155.8" font-family="Times,serif" font-size="14.00" fill="#000000">Wedge</text>
</g>
<!-- Wedge_wedge_incl -->
<g id="node1" class="node">
<title>Wedge_wedge_incl</title>
<g id="a_node1"><a xlink:href="Wedge.html#wedge_incl" xlink:title="wedge_incl">
<ellipse fill="#f070d1" stroke="#000000" cx="247.8521" cy="-114" rx="63.0838" ry="18"/>
<ellipse fill="none" stroke="#000000" cx="247.8521" cy="-114" rx="67.0863" ry="22"/>
<ellipse fill="none" stroke="#000000" cx="247.8521" cy="-114" rx="71.0888" ry="26"/>
<text text-anchor="middle" x="247.8521" y="-110.3" font-family="Times,serif" font-size="14.00" fill="#000000">wedge_incl</text>
</a>
</g>
</g>
<!-- Wedge_Wedge -->
<g id="node3" class="node">
<title>Wedge_Wedge</title>
<g id="a_node3"><a xlink:href="Wedge.html#Wedge" xlink:title="Wedge">
<ellipse fill="#f070d1" stroke="#000000" cx="162.8521" cy="-34" rx="42.4939" ry="18"/>
<text text-anchor="middle" x="162.8521" y="-30.3" font-family="Times,serif" font-size="14.00" fill="#000000">Wedge</text>
</a>
</g>
</g>
<!-- Wedge_wedge_incl&#45;&gt;Wedge_Wedge -->
<g id="edge1" class="edge">
<title>Wedge_wedge_incl&#45;&gt;Wedge_Wedge</title>
<path fill="none" stroke="#000000" d="M221.8874,-89.5627C211.0444,-79.3574 198.5,-67.5509 187.7706,-57.4527"/>
<polygon fill="#000000" stroke="#000000" points="190.0098,-54.7537 180.3289,-50.4488 185.2122,-59.8512 190.0098,-54.7537"/>
</g>
<!-- Wedge_wglue -->
<g id="node2" class="node">
<title>Wedge_wglue</title>
<g id="a_node2"><a xlink:href="Wedge.html#wglue" xlink:title="wglue">
<ellipse fill="#f070d1" stroke="#000000" cx="77.8521" cy="-114" rx="38.2201" ry="18"/>
<ellipse fill="none" stroke="#000000" cx="77.8521" cy="-114" rx="42.2069" ry="22"/>
<ellipse fill="none" stroke="#000000" cx="77.8521" cy="-114" rx="46.1937" ry="26"/>
<text text-anchor="middle" x="77.8521" y="-110.3" font-family="Times,serif" font-size="14.00" fill="#000000">wglue</text>
</a>
</g>
</g>
<!-- Wedge_wglue&#45;&gt;Wedge_Wedge -->
<g id="edge2" class="edge">
<title>Wedge_wglue&#45;&gt;Wedge_Wedge</title>
<path fill="none" stroke="#000000" d="M101.9823,-91.2892C113.2281,-80.7049 126.5988,-68.1208 137.9404,-57.4463"/>
<polygon fill="#000000" stroke="#000000" points="140.5338,-59.8118 145.4171,-50.4094 135.7363,-54.7144 140.5338,-59.8118"/>
</g>
</g>
</svg>
