<?xml version="1.0" encoding="UTF-8" standalone="no"?>
<!DOCTYPE svg PUBLIC "-//W3C//DTD SVG 1.1//EN"
 "http://www.w3.org/Graphics/SVG/1.1/DTD/svg11.dtd">
<!-- Generated by graphviz version 2.40.1 (20161225.0304)
 -->
<!-- Title: HoTT_Modalities_Open Pages: 1 -->
<svg width="390pt" height="199pt"
 viewBox="0.00 0.00 390.00 199.00" xmlns="http://www.w3.org/2000/svg" xmlns:xlink="http://www.w3.org/1999/xlink">
<g id="graph0" class="graph" transform="scale(1 1) rotate(0) translate(4 195)">
<title>HoTT_Modalities_Open</title>
<polygon fill="#ffffff" stroke="transparent" points="-4,4 -4,-195 386,-195 386,4 -4,4"/>
<g id="clust1" class="cluster">
<title>cluster_Open</title>
<polygon fill="#ffffc3" stroke="#000000" points="8,-8.5363 8,-182.4637 374,-182.4637 374,-8.5363 8,-8.5363"/>
<text text-anchor="middle" x="35.5" y="-167.2637" font-family="Times,serif" font-size="14.00" fill="#000000">Open</text>
</g>
<!-- Open_Op_ -->
<g id="node1" class="node">
<title>Open_Op_</title>
<g id="a_node1"><a xlink:href="Open.html#Op'" xlink:title="Op&#39;">
<ellipse fill="#f070d1" stroke="#000000" cx="331" cy="-121.5363" rx="27" ry="18"/>
<ellipse fill="none" stroke="#000000" cx="331" cy="-121.5363" rx="31" ry="22"/>
<ellipse fill="none" stroke="#000000" cx="331" cy="-121.5363" rx="35" ry="26"/>
<text text-anchor="middle" x="331" y="-117.8363" font-family="Times,serif" font-size="14.00" fill="#000000">Op&#39;</text>
</a>
</g>
</g>
<!-- Open_acc_open -->
<g id="node2" class="node">
<title>Open_acc_open</title>
<g id="a_node2"><a xlink:href="Open.html#acc_open" xlink:title="acc_open">
<ellipse fill="#f070d1" stroke="#000000" cx="216" cy="-121.5363" rx="53.8975" ry="18"/>
<ellipse fill="none" stroke="#000000" cx="216" cy="-121.5363" rx="57.894" ry="22"/>
<ellipse fill="none" stroke="#000000" cx="216" cy="-121.5363" rx="61.8905" ry="26"/>
<text text-anchor="middle" x="216" y="-117.8363" font-family="Times,serif" font-size="14.00" fill="#000000">acc_open</text>
</a>
</g>
</g>
<!-- Open_Op -->
<g id="node4" class="node">
<title>Open_Op</title>
<g id="a_node4"><a xlink:href="Open.html#Op" xlink:title="Op">
<ellipse fill="#f070d1" stroke="#000000" cx="146" cy="-36.5363" rx="27" ry="18"/>
<text text-anchor="middle" x="146" y="-32.8363" font-family="Times,serif" font-size="14.00" fill="#000000">Op</text>
</a>
</g>
</g>
<!-- Open_acc_open&#45;&gt;Open_Op -->
<g id="edge1" class="edge">
<title>Open_acc_open&#45;&gt;Open_Op</title>
<path fill="none" stroke="#000000" d="M195.7531,-96.9508C186.2655,-85.4301 175.0075,-71.7597 165.6023,-60.3391"/>
<polygon fill="#000000" stroke="#000000" points="168.192,-57.978 159.1331,-52.4836 162.7884,-62.4279 168.192,-57.978"/>
</g>
<!-- Open_lex_open -->
<g id="node3" class="node">
<title>Open_lex_open</title>
<g id="a_node3"><a xlink:href="Open.html#lex_open" xlink:title="lex_open">
<ellipse fill="#f070d1" stroke="#000000" cx="76" cy="-121.5363" rx="51.9914" ry="18"/>
<ellipse fill="none" stroke="#000000" cx="76" cy="-121.5363" rx="55.9911" ry="22"/>
<ellipse fill="none" stroke="#000000" cx="76" cy="-121.5363" rx="59.9908" ry="26"/>
<text text-anchor="middle" x="76" y="-117.8363" font-family="Times,serif" font-size="14.00" fill="#000000">lex_open</text>
</a>
</g>
</g>
<!-- Open_lex_open&#45;&gt;Open_Op -->
<g id="edge2" class="edge">
<title>Open_lex_open&#45;&gt;Open_Op</title>
<path fill="none" stroke="#000000" d="M96.2469,-96.9508C105.7345,-85.4301 116.9925,-71.7597 126.3977,-60.3391"/>
<polygon fill="#000000" stroke="#000000" points="129.2116,-62.4279 132.8669,-52.4836 123.808,-57.978 129.2116,-62.4279"/>
</g>
</g>
</svg>
