<?xml version="1.0" encoding="UTF-8" standalone="no"?>
<!DOCTYPE svg PUBLIC "-//W3C//DTD SVG 1.1//EN"
 "http://www.w3.org/Graphics/SVG/1.1/DTD/svg11.dtd">
<!-- Generated by graphviz version 2.40.1 (20161225.0304)
 -->
<!-- Title: HoTT_Metatheory_PropTrunc Pages: 1 -->
<svg width="686pt" height="347pt"
 viewBox="0.00 0.00 686.00 347.00" xmlns="http://www.w3.org/2000/svg" xmlns:xlink="http://www.w3.org/1999/xlink">
<g id="graph0" class="graph" transform="scale(1 1) rotate(0) translate(4 343)">
<title>HoTT_Metatheory_PropTrunc</title>
<polygon fill="#ffffff" stroke="transparent" points="-4,4 -4,-343 682,-343 682,4 -4,4"/>
<g id="clust1" class="cluster">
<title>cluster_PropTrunc</title>
<polygon fill="#ffffc3" stroke="#000000" points="14.9421,-8 14.9421,-331 663.0579,-331 663.0579,-8 14.9421,-8"/>
<text text-anchor="middle" x="61.4421" y="-315.8" font-family="Times,serif" font-size="14.00" fill="#000000">PropTrunc</text>
</g>
<!-- PropTrunc_ishprop_proptrunc -->
<g id="node1" class="node">
<title>PropTrunc_ishprop_proptrunc</title>
<g id="a_node1"><a xlink:href="PropTrunc.html#ishprop_proptrunc" xlink:title="ishprop_proptrunc">
<ellipse fill="#f070d1" stroke="#000000" cx="443.1322" cy="-274" rx="97.4834" ry="18"/>
<ellipse fill="none" stroke="#000000" cx="443.1322" cy="-274" rx="101.483" ry="22"/>
<ellipse fill="none" stroke="#000000" cx="443.1322" cy="-274" rx="105.4827" ry="26"/>
<text text-anchor="middle" x="443.1322" y="-270.3" font-family="Times,serif" font-size="14.00" fill="#000000">ishprop_proptrunc</text>
</a>
</g>
</g>
<!-- PropTrunc_equiv_PropTrunc_rec -->
<g id="node2" class="node">
<title>PropTrunc_equiv_PropTrunc_rec</title>
<g id="a_node2"><a xlink:href="PropTrunc.html#equiv_PropTrunc_rec" xlink:title="equiv_PropTrunc_rec">
<ellipse fill="#f070d1" stroke="#000000" cx="443.1322" cy="-186" rx="110.4804" ry="18"/>
<text text-anchor="middle" x="443.1322" y="-182.3" font-family="Times,serif" font-size="14.00" fill="#000000">equiv_PropTrunc_rec</text>
</a>
</g>
</g>
<!-- PropTrunc_ishprop_proptrunc&#45;&gt;PropTrunc_equiv_PropTrunc_rec -->
<g id="edge1" class="edge">
<title>PropTrunc_ishprop_proptrunc&#45;&gt;PropTrunc_equiv_PropTrunc_rec</title>
<path fill="none" stroke="#000000" d="M443.1322,-247.5971C443.1322,-237.0414 443.1322,-224.868 443.1322,-214.1448"/>
<polygon fill="#000000" stroke="#000000" points="446.6323,-214.0188 443.1322,-204.0188 439.6323,-214.0188 446.6323,-214.0188"/>
</g>
<!-- PropTrunc_PropTrunc -->
<g id="node4" class="node">
<title>PropTrunc_PropTrunc</title>
<g id="a_node4"><a xlink:href="PropTrunc.html#PropTrunc" xlink:title="PropTrunc">
<ellipse fill="#f070d1" stroke="#000000" cx="291.1322" cy="-106" rx="60.3893" ry="18"/>
<text text-anchor="middle" x="291.1322" y="-102.3" font-family="Times,serif" font-size="14.00" fill="#000000">PropTrunc</text>
</a>
</g>
</g>
<!-- PropTrunc_equiv_PropTrunc_rec&#45;&gt;PropTrunc_PropTrunc -->
<g id="edge2" class="edge">
<title>PropTrunc_equiv_PropTrunc_rec&#45;&gt;PropTrunc_PropTrunc</title>
<path fill="none" stroke="#000000" d="M410.1505,-168.6412C386.6141,-156.2536 354.8702,-139.5463 330.0853,-126.5016"/>
<polygon fill="#000000" stroke="#000000" points="331.4379,-123.2584 320.9585,-121.6981 328.1776,-129.4528 331.4379,-123.2584"/>
</g>
<!-- PropTrunc_ptr_in -->
<g id="node3" class="node">
<title>PropTrunc_ptr_in</title>
<g id="a_node3"><a xlink:href="PropTrunc.html#ptr_in" xlink:title="ptr_in">
<ellipse fill="#f070d1" stroke="#000000" cx="116.1322" cy="-186" rx="38.2201" ry="18"/>
<ellipse fill="none" stroke="#000000" cx="116.1322" cy="-186" rx="42.2069" ry="22"/>
<ellipse fill="none" stroke="#000000" cx="116.1322" cy="-186" rx="46.1937" ry="26"/>
<text text-anchor="middle" x="116.1322" y="-182.3" font-family="Times,serif" font-size="14.00" fill="#000000">ptr_in</text>
</a>
</g>
</g>
<!-- PropTrunc_ptr_in&#45;&gt;PropTrunc_PropTrunc -->
<g id="edge3" class="edge">
<title>PropTrunc_ptr_in&#45;&gt;PropTrunc_PropTrunc</title>
<path fill="none" stroke="#000000" d="M152.3923,-169.4239C180.397,-156.6218 219.2137,-138.877 248.6693,-125.4116"/>
<polygon fill="#000000" stroke="#000000" points="250.2387,-128.5426 257.8783,-121.2018 247.3284,-122.1763 250.2387,-128.5426"/>
</g>
<!-- PropTrunc_Join_seq -->
<g id="node5" class="node">
<title>PropTrunc_Join_seq</title>
<g id="a_node5"><a xlink:href="PropTrunc.html#Join_seq" xlink:title="Join_seq">
<ellipse fill="#f070d1" stroke="#000000" cx="291.1322" cy="-34" rx="50.0912" ry="18"/>
<text text-anchor="middle" x="291.1322" y="-30.3" font-family="Times,serif" font-size="14.00" fill="#000000">Join_seq</text>
</a>
</g>
</g>
<!-- PropTrunc_PropTrunc&#45;&gt;PropTrunc_Join_seq -->
<g id="edge4" class="edge">
<title>PropTrunc_PropTrunc&#45;&gt;PropTrunc_Join_seq</title>
<path fill="none" stroke="#000000" d="M291.1322,-87.8314C291.1322,-80.131 291.1322,-70.9743 291.1322,-62.4166"/>
<polygon fill="#000000" stroke="#000000" points="294.6323,-62.4132 291.1322,-52.4133 287.6323,-62.4133 294.6323,-62.4132"/>
</g>
</g>
</svg>
