<?xml version="1.0" encoding="UTF-8" standalone="no"?>
<!DOCTYPE svg PUBLIC "-//W3C//DTD SVG 1.1//EN"
 "http://www.w3.org/Graphics/SVG/1.1/DTD/svg11.dtd">
<!-- Generated by graphviz version 2.40.1 (20161225.0304)
 -->
<!-- Title: HoTT_Pointed_pFiber Pages: 1 -->
<svg width="1256pt" height="632pt"
 viewBox="0.00 0.00 1256.00 632.00" xmlns="http://www.w3.org/2000/svg" xmlns:xlink="http://www.w3.org/1999/xlink">
<g id="graph0" class="graph" transform="scale(1 1) rotate(0) translate(4 628)">
<title>HoTT_Pointed_pFiber</title>
<polygon fill="#ffffff" stroke="transparent" points="-4,4 -4,-628 1252,-628 1252,4 -4,4"/>
<g id="clust1" class="cluster">
<title>cluster_pFiber</title>
<polygon fill="#ffffc3" stroke="#000000" points="8,-14.7257 8,-609.2743 1240,-609.2743 1240,-14.7257 8,-14.7257"/>
<text text-anchor="middle" x="40" y="-594.0743" font-family="Times,serif" font-size="14.00" fill="#000000">pFiber</text>
</g>
<!-- pFiber_pfiber2_fmap_loops -->
<g id="node1" class="node">
<title>pFiber_pfiber2_fmap_loops</title>
<g id="a_node1"><a xlink:href="pFiber.html#pfiber2_fmap_loops" xlink:title="pfiber2_fmap_loops">
<ellipse fill="#f070d1" stroke="#000000" cx="504" cy="-504.7257" rx="102.0789" ry="18"/>
<ellipse fill="none" stroke="#000000" cx="504" cy="-504.7257" rx="106.0804" ry="22"/>
<ellipse fill="none" stroke="#000000" cx="504" cy="-504.7257" rx="110.0819" ry="26"/>
<text text-anchor="middle" x="504" y="-501.0257" font-family="Times,serif" font-size="14.00" fill="#000000">pfiber2_fmap_loops</text>
</a>
</g>
</g>
<!-- pFiber_pfiber2_loops -->
<g id="node11" class="node">
<title>pFiber_pfiber2_loops</title>
<g id="a_node11"><a xlink:href="pFiber.html#pfiber2_loops" xlink:title="pfiber2_loops">
<ellipse fill="#f070d1" stroke="#000000" cx="504" cy="-342.7257" rx="73.387" ry="18"/>
<text text-anchor="middle" x="504" y="-339.0257" font-family="Times,serif" font-size="14.00" fill="#000000">pfiber2_loops</text>
</a>
</g>
</g>
<!-- pFiber_pfiber2_fmap_loops&#45;&gt;pFiber_pfiber2_loops -->
<g id="edge1" class="edge">
<title>pFiber_pfiber2_fmap_loops&#45;&gt;pFiber_pfiber2_loops</title>
<path fill="none" stroke="#000000" d="M504,-478.6976C504,-449.3834 504,-401.8815 504,-371.4893"/>
<polygon fill="#000000" stroke="#000000" points="507.5001,-371.1317 504,-361.1317 500.5001,-371.1318 507.5001,-371.1317"/>
</g>
<!-- pFiber_square_pequiv_pfiber -->
<g id="node2" class="node">
<title>pFiber_square_pequiv_pfiber</title>
<g id="a_node2"><a xlink:href="pFiber.html#square_pequiv_pfiber" xlink:title="square_pequiv_pfiber">
<ellipse fill="#f070d1" stroke="#000000" cx="196" cy="-504.7257" rx="111.271" ry="18"/>
<ellipse fill="none" stroke="#000000" cx="196" cy="-504.7257" rx="115.2757" ry="22"/>
<ellipse fill="none" stroke="#000000" cx="196" cy="-504.7257" rx="119.2804" ry="26"/>
<text text-anchor="middle" x="196" y="-501.0257" font-family="Times,serif" font-size="14.00" fill="#000000">square_pequiv_pfiber</text>
</a>
</g>
</g>
<!-- pFiber_square_functor_pfiber -->
<g id="node3" class="node">
<title>pFiber_square_functor_pfiber</title>
<g id="a_node3"><a xlink:href="pFiber.html#square_functor_pfiber" xlink:title="square_functor_pfiber">
<ellipse fill="#f070d1" stroke="#000000" cx="298" cy="-342.7257" rx="114.2798" ry="18"/>
<text text-anchor="middle" x="298" y="-339.0257" font-family="Times,serif" font-size="14.00" fill="#000000">square_functor_pfiber</text>
</a>
</g>
</g>
<!-- pFiber_square_pequiv_pfiber&#45;&gt;pFiber_square_functor_pfiber -->
<g id="edge2" class="edge">
<title>pFiber_square_pequiv_pfiber&#45;&gt;pFiber_square_functor_pfiber</title>
<path fill="none" stroke="#000000" d="M212.3881,-478.6976C231.271,-448.707 262.1401,-399.6797 281.1967,-369.4133"/>
<polygon fill="#000000" stroke="#000000" points="284.3389,-370.9916 286.7052,-360.6644 278.4152,-367.2619 284.3389,-370.9916"/>
</g>
<!-- pFiber_pequiv_pfiber -->
<g id="node5" class="node">
<title>pFiber_pequiv_pfiber</title>
<g id="a_node5"><a xlink:href="pFiber.html#pequiv_pfiber" xlink:title="pequiv_pfiber">
<ellipse fill="#f070d1" stroke="#000000" cx="91" cy="-342.7257" rx="74.9875" ry="18"/>
<text text-anchor="middle" x="91" y="-339.0257" font-family="Times,serif" font-size="14.00" fill="#000000">pequiv_pfiber</text>
</a>
</g>
</g>
<!-- pFiber_square_pequiv_pfiber&#45;&gt;pFiber_pequiv_pfiber -->
<g id="edge3" class="edge">
<title>pFiber_square_pequiv_pfiber&#45;&gt;pFiber_pequiv_pfiber</title>
<path fill="none" stroke="#000000" d="M179.1299,-478.6976C159.6916,-448.707 127.9146,-399.6797 108.2975,-369.4133"/>
<polygon fill="#000000" stroke="#000000" points="111.003,-367.1523 102.627,-360.6644 105.1289,-370.9596 111.003,-367.1523"/>
</g>
<!-- pFiber_square_functor_pfiber_subproof -->
<g id="node4" class="node">
<title>pFiber_square_functor_pfiber_subproof</title>
<g id="a_node4"><a xlink:href="pFiber.html#square_functor_pfiber_subproof" xlink:title="square_functor_pfiber_subproof">
<ellipse fill="#f070d1" stroke="#000000" cx="348" cy="-194.7257" rx="159.7717" ry="18"/>
<text text-anchor="middle" x="348" y="-191.0257" font-family="Times,serif" font-size="14.00" fill="#000000">square_functor_pfiber_subproof</text>
</a>
</g>
</g>
<!-- pFiber_square_functor_pfiber&#45;&gt;pFiber_square_functor_pfiber_subproof -->
<g id="edge4" class="edge">
<title>pFiber_square_functor_pfiber&#45;&gt;pFiber_square_functor_pfiber_subproof</title>
<path fill="none" stroke="#000000" d="M304.131,-324.578C312.7152,-299.1686 328.3955,-252.7549 338.4986,-222.8497"/>
<polygon fill="#000000" stroke="#000000" points="341.934,-223.616 341.8189,-213.0218 335.3023,-221.3755 341.934,-223.616"/>
</g>
<!-- pFiber_functor_pfiber -->
<g id="node6" class="node">
<title>pFiber_functor_pfiber</title>
<g id="a_node6"><a xlink:href="pFiber.html#functor_pfiber" xlink:title="functor_pfiber">
<ellipse fill="#f070d1" stroke="#000000" cx="93" cy="-194.7257" rx="77.1866" ry="18"/>
<text text-anchor="middle" x="93" y="-191.0257" font-family="Times,serif" font-size="14.00" fill="#000000">functor_pfiber</text>
</a>
</g>
</g>
<!-- pFiber_square_functor_pfiber&#45;&gt;pFiber_functor_pfiber -->
<g id="edge5" class="edge">
<title>pFiber_square_functor_pfiber&#45;&gt;pFiber_functor_pfiber</title>
<path fill="none" stroke="#000000" d="M273.2722,-324.8734C236.1886,-298.1008 166.1573,-247.5416 125.1506,-217.9368"/>
<polygon fill="#000000" stroke="#000000" points="127.0197,-214.9694 116.8631,-211.9536 122.9222,-220.6449 127.0197,-214.9694"/>
</g>
<!-- pFiber_pfib -->
<g id="node12" class="node">
<title>pFiber_pfib</title>
<g id="a_node12"><a xlink:href="pFiber.html#pfib" xlink:title="pfib">
<ellipse fill="#f070d1" stroke="#000000" cx="554" cy="-194.7257" rx="28.6953" ry="18"/>
<text text-anchor="middle" x="554" y="-191.0257" font-family="Times,serif" font-size="14.00" fill="#000000">pfib</text>
</a>
</g>
</g>
<!-- pFiber_square_functor_pfiber&#45;&gt;pFiber_pfib -->
<g id="edge6" class="edge">
<title>pFiber_square_functor_pfiber&#45;&gt;pFiber_pfib</title>
<path fill="none" stroke="#000000" d="M328.1192,-325.313C377.4141,-296.8144 474.7509,-240.5415 523.9807,-212.0805"/>
<polygon fill="#000000" stroke="#000000" points="525.9684,-214.9743 532.874,-206.9391 522.4648,-208.9141 525.9684,-214.9743"/>
</g>
<!-- pFiber_pequiv_pfiber&#45;&gt;pFiber_functor_pfiber -->
<g id="edge7" class="edge">
<title>pFiber_pequiv_pfiber&#45;&gt;pFiber_functor_pfiber</title>
<path fill="none" stroke="#000000" d="M91.2452,-324.578C91.5871,-299.2796 92.2103,-253.1598 92.6146,-223.2424"/>
<polygon fill="#000000" stroke="#000000" points="96.1172,-223.0682 92.7528,-213.0218 89.1179,-222.9736 96.1172,-223.0682"/>
</g>
<!-- pFiber_pfiber -->
<g id="node13" class="node">
<title>pFiber_pfiber</title>
<g id="a_node13"><a xlink:href="pFiber.html#pfiber" xlink:title="pfiber">
<ellipse fill="#f070d1" stroke="#000000" cx="554" cy="-62.7257" rx="38.1938" ry="18"/>
<text text-anchor="middle" x="554" y="-59.0257" font-family="Times,serif" font-size="14.00" fill="#000000">pfiber</text>
</a>
</g>
</g>
<!-- pFiber_functor_pfiber&#45;&gt;pFiber_pfiber -->
<g id="edge8" class="edge">
<title>pFiber_functor_pfiber&#45;&gt;pFiber_pfiber</title>
<path fill="none" stroke="#000000" d="M141.8986,-180.7243C232.6193,-154.7479 425.5507,-99.5051 511.3397,-74.9408"/>
<polygon fill="#000000" stroke="#000000" points="512.3628,-78.2885 521.013,-72.171 510.4358,-71.559 512.3628,-78.2885"/>
</g>
<!-- pFiber_pfiber_fmap_iterated_loops -->
<g id="node7" class="node">
<title>pFiber_pfiber_fmap_iterated_loops</title>
<g id="a_node7"><a xlink:href="pFiber.html#pfiber_fmap_iterated_loops" xlink:title="pfiber_fmap_iterated_loops">
<ellipse fill="#f070d1" stroke="#000000" cx="1086" cy="-342.7257" rx="137.5875" ry="18"/>
<ellipse fill="none" stroke="#000000" cx="1086" cy="-342.7257" rx="141.5817" ry="22"/>
<ellipse fill="none" stroke="#000000" cx="1086" cy="-342.7257" rx="145.5759" ry="26"/>
<text text-anchor="middle" x="1086" y="-339.0257" font-family="Times,serif" font-size="14.00" fill="#000000">pfiber_fmap_iterated_loops</text>
</a>
</g>
</g>
<!-- pFiber_pfiber_fmap_loops -->
<g id="node10" class="node">
<title>pFiber_pfiber_fmap_loops</title>
<g id="a_node10"><a xlink:href="pFiber.html#pfiber_fmap_loops" xlink:title="pfiber_fmap_loops">
<ellipse fill="#f070d1" stroke="#000000" cx="759" cy="-194.7257" rx="96.3833" ry="18"/>
<text text-anchor="middle" x="759" y="-191.0257" font-family="Times,serif" font-size="14.00" fill="#000000">pfiber_fmap_loops</text>
</a>
</g>
</g>
<!-- pFiber_pfiber_fmap_iterated_loops&#45;&gt;pFiber_pfiber_fmap_loops -->
<g id="edge9" class="edge">
<title>pFiber_pfiber_fmap_iterated_loops&#45;&gt;pFiber_pfiber_fmap_loops</title>
<path fill="none" stroke="#000000" d="M1032.3688,-318.4522C969.077,-289.8064 864.903,-242.6573 805.0908,-215.5864"/>
<polygon fill="#000000" stroke="#000000" points="806.4388,-212.3547 795.8853,-211.4199 803.5525,-218.7319 806.4388,-212.3547"/>
</g>
<!-- pFiber_pr1_pfiber_fmap_loops -->
<g id="node8" class="node">
<title>pFiber_pr1_pfiber_fmap_loops</title>
<g id="a_node8"><a xlink:href="pFiber.html#pr1_pfiber_fmap_loops" xlink:title="pr1_pfiber_fmap_loops">
<ellipse fill="#f070d1" stroke="#000000" cx="759" cy="-504.7257" rx="116.9799" ry="18"/>
<ellipse fill="none" stroke="#000000" cx="759" cy="-504.7257" rx="120.9796" ry="22"/>
<ellipse fill="none" stroke="#000000" cx="759" cy="-504.7257" rx="124.9792" ry="26"/>
<text text-anchor="middle" x="759" y="-501.0257" font-family="Times,serif" font-size="14.00" fill="#000000">pr1_pfiber_fmap_loops</text>
</a>
</g>
</g>
<!-- pFiber_pr1_pfiber_fmap_loops_subproof -->
<g id="node9" class="node">
<title>pFiber_pr1_pfiber_fmap_loops_subproof</title>
<g id="a_node9"><a xlink:href="pFiber.html#pr1_pfiber_fmap_loops_subproof" xlink:title="pr1_pfiber_fmap_loops_subproof">
<ellipse fill="#f070d1" stroke="#000000" cx="759" cy="-342.7257" rx="163.2712" ry="18"/>
<text text-anchor="middle" x="759" y="-339.0257" font-family="Times,serif" font-size="14.00" fill="#000000">pr1_pfiber_fmap_loops_subproof</text>
</a>
</g>
</g>
<!-- pFiber_pr1_pfiber_fmap_loops&#45;&gt;pFiber_pr1_pfiber_fmap_loops_subproof -->
<g id="edge10" class="edge">
<title>pFiber_pr1_pfiber_fmap_loops&#45;&gt;pFiber_pr1_pfiber_fmap_loops_subproof</title>
<path fill="none" stroke="#000000" d="M759,-478.6976C759,-449.3834 759,-401.8815 759,-371.4893"/>
<polygon fill="#000000" stroke="#000000" points="762.5001,-371.1317 759,-361.1317 755.5001,-371.1318 762.5001,-371.1317"/>
</g>
<!-- pFiber_pr1_pfiber_fmap_loops_subproof&#45;&gt;pFiber_pfiber_fmap_loops -->
<g id="edge11" class="edge">
<title>pFiber_pr1_pfiber_fmap_loops_subproof&#45;&gt;pFiber_pfiber_fmap_loops</title>
<path fill="none" stroke="#000000" d="M759,-324.578C759,-299.2796 759,-253.1598 759,-223.2424"/>
<polygon fill="#000000" stroke="#000000" points="762.5001,-223.0218 759,-213.0218 755.5001,-223.0218 762.5001,-223.0218"/>
</g>
<!-- pFiber_pr1_pfiber_fmap_loops_subproof&#45;&gt;pFiber_pfib -->
<g id="edge12" class="edge">
<title>pFiber_pr1_pfiber_fmap_loops_subproof&#45;&gt;pFiber_pfib</title>
<path fill="none" stroke="#000000" d="M734.2722,-324.8734C695.6787,-297.0108 621.4002,-243.3853 581.2905,-214.4281"/>
<polygon fill="#000000" stroke="#000000" points="583.1974,-211.488 573.0409,-208.4722 579.1,-217.1635 583.1974,-211.488"/>
</g>
<!-- pFiber_pfiber_fmap_loops&#45;&gt;pFiber_pfiber -->
<g id="edge13" class="edge">
<title>pFiber_pfiber_fmap_loops&#45;&gt;pFiber_pfiber</title>
<path fill="none" stroke="#000000" d="M731.7776,-177.1971C693.8066,-152.7474 625.1185,-108.519 585.1508,-82.7837"/>
<polygon fill="#000000" stroke="#000000" points="586.9037,-79.7496 576.601,-77.2785 583.114,-85.6351 586.9037,-79.7496"/>
</g>
<!-- pFiber_pfiber2_loops&#45;&gt;pFiber_pfib -->
<g id="edge14" class="edge">
<title>pFiber_pfiber2_loops&#45;&gt;pFiber_pfib</title>
<path fill="none" stroke="#000000" d="M510.131,-324.578C518.7619,-299.0305 534.5662,-252.2497 544.6629,-222.3636"/>
<polygon fill="#000000" stroke="#000000" points="548.0902,-223.1537 547.975,-212.5595 541.4584,-220.9132 548.0902,-223.1537"/>
</g>
<!-- pFiber_pfib&#45;&gt;pFiber_pfiber -->
<g id="edge15" class="edge">
<title>pFiber_pfib&#45;&gt;pFiber_pfiber</title>
<path fill="none" stroke="#000000" d="M554,-176.6484C554,-154.6539 554,-117.2539 554,-91.335"/>
<polygon fill="#000000" stroke="#000000" points="557.5001,-91.0082 554,-81.0082 550.5001,-91.0082 557.5001,-91.0082"/>
</g>
</g>
</svg>
