<?xml version="1.0" encoding="UTF-8" standalone="no"?>
<!DOCTYPE svg PUBLIC "-//W3C//DTD SVG 1.1//EN"
 "http://www.w3.org/Graphics/SVG/1.1/DTD/svg11.dtd">
<!-- Generated by graphviz version 2.40.1 (20161225.0304)
 -->
<!-- Title: HoTT_Spaces_Finite_FinSeq Pages: 1 -->
<svg width="1230pt" height="619pt"
 viewBox="0.00 0.00 1230.00 619.00" xmlns="http://www.w3.org/2000/svg" xmlns:xlink="http://www.w3.org/1999/xlink">
<g id="graph0" class="graph" transform="scale(1 1) rotate(0) translate(4 615)">
<title>HoTT_Spaces_Finite_FinSeq</title>
<polygon fill="#ffffff" stroke="transparent" points="-4,4 -4,-615 1226,-615 1226,4 -4,4"/>
<g id="clust1" class="cluster">
<title>cluster_FinSeq</title>
<polygon fill="#ffffc3" stroke="#000000" points="9.9653,-8 9.9653,-603 1212.0347,-603 1212.0347,-8 9.9653,-8"/>
<text text-anchor="middle" x="43.4653" y="-587.8" font-family="Times,serif" font-size="14.00" fill="#000000">FinSeq</text>
</g>
<!-- FinSeq_compute_finseq_ind_fscons -->
<g id="node1" class="node">
<title>FinSeq_compute_finseq_ind_fscons</title>
<g id="a_node1"><a xlink:href="FinSeq.html#compute_finseq_ind_fscons" xlink:title="compute_finseq_ind_fscons">
<ellipse fill="#f070d1" stroke="#000000" cx="656.4985" cy="-546" rx="138.3789" ry="18"/>
<ellipse fill="none" stroke="#000000" cx="656.4985" cy="-546" rx="142.3772" ry="22"/>
<ellipse fill="none" stroke="#000000" cx="656.4985" cy="-546" rx="146.3755" ry="26"/>
<text text-anchor="middle" x="656.4985" y="-542.3" font-family="Times,serif" font-size="14.00" fill="#000000">compute_finseq_ind_fscons</text>
</a>
</g>
</g>
<!-- FinSeq_finseq_ind -->
<g id="node3" class="node">
<title>FinSeq_finseq_ind</title>
<g id="a_node3"><a xlink:href="FinSeq.html#finseq_ind" xlink:title="finseq_ind">
<ellipse fill="#f070d1" stroke="#000000" cx="1038.4985" cy="-466" rx="58.4896" ry="18"/>
<text text-anchor="middle" x="1038.4985" y="-462.3" font-family="Times,serif" font-size="14.00" fill="#000000">finseq_ind</text>
</a>
</g>
</g>
<!-- FinSeq_compute_finseq_ind_fscons&#45;&gt;FinSeq_finseq_ind -->
<g id="edge1" class="edge">
<title>FinSeq_compute_finseq_ind_fscons&#45;&gt;FinSeq_finseq_ind</title>
<path fill="none" stroke="#000000" d="M751.4163,-526.1219C823.2105,-511.0865 919.4951,-490.9222 980.275,-478.1934"/>
<polygon fill="#000000" stroke="#000000" points="981.0151,-481.6144 990.0854,-476.1389 979.5802,-474.763 981.0151,-481.6144"/>
</g>
<!-- FinSeq_path_expand_fscons_fscons -->
<g id="node4" class="node">
<title>FinSeq_path_expand_fscons_fscons</title>
<g id="a_node4"><a xlink:href="FinSeq.html#path_expand_fscons_fscons" xlink:title="path_expand_fscons_fscons">
<ellipse fill="#f070d1" stroke="#000000" cx="718.4985" cy="-466" rx="139.9756" ry="18"/>
<text text-anchor="middle" x="718.4985" y="-462.3" font-family="Times,serif" font-size="14.00" fill="#000000">path_expand_fscons_fscons</text>
</a>
</g>
</g>
<!-- FinSeq_compute_finseq_ind_fscons&#45;&gt;FinSeq_path_expand_fscons_fscons -->
<g id="edge2" class="edge">
<title>FinSeq_compute_finseq_ind_fscons&#45;&gt;FinSeq_path_expand_fscons_fscons</title>
<path fill="none" stroke="#000000" d="M676.7996,-519.805C683.6509,-510.9646 691.2969,-501.0988 698.1517,-492.2538"/>
<polygon fill="#000000" stroke="#000000" points="701.0704,-494.2014 704.4297,-484.1532 695.5375,-489.9134 701.0704,-494.2014"/>
</g>
<!-- FinSeq_compute_path_fscons -->
<g id="node6" class="node">
<title>FinSeq_compute_path_fscons</title>
<g id="a_node6"><a xlink:href="FinSeq.html#compute_path_fscons" xlink:title="compute_path_fscons">
<ellipse fill="#f070d1" stroke="#000000" cx="382.4985" cy="-466" rx="111.5806" ry="18"/>
<text text-anchor="middle" x="382.4985" y="-462.3" font-family="Times,serif" font-size="14.00" fill="#000000">compute_path_fscons</text>
</a>
</g>
</g>
<!-- FinSeq_compute_finseq_ind_fscons&#45;&gt;FinSeq_compute_path_fscons -->
<g id="edge3" class="edge">
<title>FinSeq_compute_finseq_ind_fscons&#45;&gt;FinSeq_compute_path_fscons</title>
<path fill="none" stroke="#000000" d="M580.1742,-523.7155C538.0436,-511.4146 486.3194,-496.3127 446.3491,-484.6425"/>
<polygon fill="#000000" stroke="#000000" points="447.2941,-481.2724 436.7139,-481.8293 445.3321,-487.9918 447.2941,-481.2724"/>
</g>
<!-- FinSeq_compute_finseq_ind_fsnil -->
<g id="node2" class="node">
<title>FinSeq_compute_finseq_ind_fsnil</title>
<g id="a_node2"><a xlink:href="FinSeq.html#compute_finseq_ind_fsnil" xlink:title="compute_finseq_ind_fsnil">
<ellipse fill="#f070d1" stroke="#000000" cx="1031.4985" cy="-546" rx="128.8664" ry="18"/>
<ellipse fill="none" stroke="#000000" cx="1031.4985" cy="-546" rx="132.8719" ry="22"/>
<ellipse fill="none" stroke="#000000" cx="1031.4985" cy="-546" rx="136.8774" ry="26"/>
<text text-anchor="middle" x="1031.4985" y="-542.3" font-family="Times,serif" font-size="14.00" fill="#000000">compute_finseq_ind_fsnil</text>
</a>
</g>
</g>
<!-- FinSeq_compute_finseq_ind_fsnil&#45;&gt;FinSeq_finseq_ind -->
<g id="edge4" class="edge">
<title>FinSeq_compute_finseq_ind_fsnil&#45;&gt;FinSeq_finseq_ind</title>
<path fill="none" stroke="#000000" d="M1033.7905,-519.805C1034.5082,-511.6026 1035.3032,-502.5174 1036.0324,-494.1839"/>
<polygon fill="#000000" stroke="#000000" points="1039.525,-494.4203 1036.9101,-484.1532 1032.5516,-493.8101 1039.525,-494.4203"/>
</g>
<!-- FinSeq_path_expand_fscons -->
<g id="node10" class="node">
<title>FinSeq_path_expand_fscons</title>
<g id="a_node10"><a xlink:href="FinSeq.html#path_expand_fscons" xlink:title="path_expand_fscons">
<ellipse fill="#f070d1" stroke="#000000" cx="1046.4985" cy="-394" rx="104.7816" ry="18"/>
<text text-anchor="middle" x="1046.4985" y="-390.3" font-family="Times,serif" font-size="14.00" fill="#000000">path_expand_fscons</text>
</a>
</g>
</g>
<!-- FinSeq_finseq_ind&#45;&gt;FinSeq_path_expand_fscons -->
<g id="edge5" class="edge">
<title>FinSeq_finseq_ind&#45;&gt;FinSeq_path_expand_fscons</title>
<path fill="none" stroke="#000000" d="M1040.5172,-447.8314C1041.3728,-440.131 1042.3902,-430.9743 1043.3411,-422.4166"/>
<polygon fill="#000000" stroke="#000000" points="1046.8267,-422.7386 1044.4526,-412.4133 1039.8696,-421.9656 1046.8267,-422.7386"/>
</g>
<!-- FinSeq_path_fsnil -->
<g id="node22" class="node">
<title>FinSeq_path_fsnil</title>
<g id="a_node22"><a xlink:href="FinSeq.html#path_fsnil" xlink:title="path_fsnil">
<ellipse fill="#f070d1" stroke="#000000" cx="1131.4985" cy="-322" rx="56.59" ry="18"/>
<text text-anchor="middle" x="1131.4985" y="-318.3" font-family="Times,serif" font-size="14.00" fill="#000000">path_fsnil</text>
</a>
</g>
</g>
<!-- FinSeq_finseq_ind&#45;&gt;FinSeq_path_fsnil -->
<g id="edge6" class="edge">
<title>FinSeq_finseq_ind&#45;&gt;FinSeq_path_fsnil</title>
<path fill="none" stroke="#000000" d="M1089.5465,-457.0237C1115.4811,-449.6007 1144.7662,-436.168 1160.4985,-412 1173.178,-392.5217 1162.9632,-367.0612 1151.299,-348.1928"/>
<polygon fill="#000000" stroke="#000000" points="1154.1679,-346.1857 1145.7333,-339.7741 1148.3286,-350.0462 1154.1679,-346.1857"/>
</g>
<!-- FinSeq_path_expand_fscons_fscons_ -->
<g id="node5" class="node">
<title>FinSeq_path_expand_fscons_fscons_</title>
<g id="a_node5"><a xlink:href="FinSeq.html#path_expand_fscons_fscons'" xlink:title="path_expand_fscons_fscons&#39;">
<ellipse fill="#f070d1" stroke="#000000" cx="691.4985" cy="-394" rx="141.8751" ry="18"/>
<text text-anchor="middle" x="691.4985" y="-390.3" font-family="Times,serif" font-size="14.00" fill="#000000">path_expand_fscons_fscons&#39;</text>
</a>
</g>
</g>
<!-- FinSeq_path_expand_fscons_fscons&#45;&gt;FinSeq_path_expand_fscons_fscons_ -->
<g id="edge7" class="edge">
<title>FinSeq_path_expand_fscons_fscons&#45;&gt;FinSeq_path_expand_fscons_fscons_</title>
<path fill="none" stroke="#000000" d="M711.6852,-447.8314C708.7341,-439.9617 705.2127,-430.5712 701.9435,-421.8533"/>
<polygon fill="#000000" stroke="#000000" points="705.1919,-420.5476 698.4034,-412.4133 698.6376,-423.0055 705.1919,-420.5476"/>
</g>
<!-- FinSeq_path_fscons -->
<g id="node7" class="node">
<title>FinSeq_path_fscons</title>
<g id="a_node7"><a xlink:href="FinSeq.html#path_fscons" xlink:title="path_fscons">
<ellipse fill="#f070d1" stroke="#000000" cx="409.4985" cy="-394" rx="66.0889" ry="18"/>
<text text-anchor="middle" x="409.4985" y="-390.3" font-family="Times,serif" font-size="14.00" fill="#000000">path_fscons</text>
</a>
</g>
</g>
<!-- FinSeq_path_expand_fscons_fscons&#45;&gt;FinSeq_path_fscons -->
<g id="edge8" class="edge">
<title>FinSeq_path_expand_fscons_fscons&#45;&gt;FinSeq_path_fscons</title>
<path fill="none" stroke="#000000" d="M650.6871,-450.1993C596.6121,-437.5993 521.5893,-420.1183 469.6372,-408.0129"/>
<polygon fill="#000000" stroke="#000000" points="470.425,-404.6028 459.8916,-405.7421 468.8365,-411.4202 470.425,-404.6028"/>
</g>
<!-- FinSeq_path_expand_fscons_fscons&#45;&gt;FinSeq_path_expand_fscons -->
<g id="edge9" class="edge">
<title>FinSeq_path_expand_fscons_fscons&#45;&gt;FinSeq_path_expand_fscons</title>
<path fill="none" stroke="#000000" d="M789.2658,-450.4657C843.0737,-438.6542 916.9323,-422.4414 971.7071,-410.4176"/>
<polygon fill="#000000" stroke="#000000" points="972.6865,-413.786 981.7035,-408.2233 971.1856,-406.9488 972.6865,-413.786"/>
</g>
<!-- FinSeq_compute_fstail -->
<g id="node12" class="node">
<title>FinSeq_compute_fstail</title>
<g id="a_node12"><a xlink:href="FinSeq.html#compute_fstail" xlink:title="compute_fstail">
<ellipse fill="#f070d1" stroke="#000000" cx="939.4985" cy="-322" rx="79.0865" ry="18"/>
<text text-anchor="middle" x="939.4985" y="-318.3" font-family="Times,serif" font-size="14.00" fill="#000000">compute_fstail</text>
</a>
</g>
</g>
<!-- FinSeq_path_expand_fscons_fscons&#45;&gt;FinSeq_compute_fstail -->
<g id="edge10" class="edge">
<title>FinSeq_path_expand_fscons_fscons&#45;&gt;FinSeq_compute_fstail</title>
<path fill="none" stroke="#000000" d="M767.5368,-449.0662C791.1559,-439.8272 819.3127,-427.169 842.4985,-412 870.6704,-393.5688 898.375,-366.7467 916.9155,-347.1802"/>
<polygon fill="#000000" stroke="#000000" points="919.5308,-349.5077 923.7941,-339.8084 914.4128,-344.7321 919.5308,-349.5077"/>
</g>
<!-- FinSeq_path_fscons_ -->
<g id="node9" class="node">
<title>FinSeq_path_fscons_</title>
<g id="a_node9"><a xlink:href="FinSeq.html#path_fscons'" xlink:title="path_fscons&#39;">
<ellipse fill="#f070d1" stroke="#000000" cx="442.4985" cy="-322" rx="68.7879" ry="18"/>
<text text-anchor="middle" x="442.4985" y="-318.3" font-family="Times,serif" font-size="14.00" fill="#000000">path_fscons&#39;</text>
</a>
</g>
</g>
<!-- FinSeq_path_expand_fscons_fscons_&#45;&gt;FinSeq_path_fscons_ -->
<g id="edge11" class="edge">
<title>FinSeq_path_expand_fscons_fscons_&#45;&gt;FinSeq_path_fscons_</title>
<path fill="none" stroke="#000000" d="M634.3728,-377.4817C593.6512,-365.7068 539.1682,-349.9527 498.6649,-338.2409"/>
<polygon fill="#000000" stroke="#000000" points="499.5255,-334.8464 488.9468,-335.4308 497.581,-341.5709 499.5255,-334.8464"/>
</g>
<!-- FinSeq_path_expand_fscons_ -->
<g id="node11" class="node">
<title>FinSeq_path_expand_fscons_</title>
<g id="a_node11"><a xlink:href="FinSeq.html#path_expand_fscons'" xlink:title="path_expand_fscons&#39;">
<ellipse fill="#f070d1" stroke="#000000" cx="683.4985" cy="-322" rx="107.4815" ry="18"/>
<text text-anchor="middle" x="683.4985" y="-318.3" font-family="Times,serif" font-size="14.00" fill="#000000">path_expand_fscons&#39;</text>
</a>
</g>
</g>
<!-- FinSeq_path_expand_fscons_fscons_&#45;&gt;FinSeq_path_expand_fscons_ -->
<g id="edge12" class="edge">
<title>FinSeq_path_expand_fscons_fscons_&#45;&gt;FinSeq_path_expand_fscons_</title>
<path fill="none" stroke="#000000" d="M689.4797,-375.8314C688.6241,-368.131 687.6067,-358.9743 686.6559,-350.4166"/>
<polygon fill="#000000" stroke="#000000" points="690.1274,-349.9656 685.5444,-340.4133 683.1702,-350.7386 690.1274,-349.9656"/>
</g>
<!-- FinSeq_compute_path_fscons&#45;&gt;FinSeq_path_fscons -->
<g id="edge13" class="edge">
<title>FinSeq_compute_path_fscons&#45;&gt;FinSeq_path_fscons</title>
<path fill="none" stroke="#000000" d="M389.3117,-447.8314C392.3082,-439.8406 395.8928,-430.2819 399.2042,-421.4514"/>
<polygon fill="#000000" stroke="#000000" points="402.5468,-422.5057 402.7809,-411.9134 395.9925,-420.0478 402.5468,-422.5057"/>
</g>
<!-- FinSeq_compute_path_fscons_ -->
<g id="node8" class="node">
<title>FinSeq_compute_path_fscons_</title>
<g id="a_node8"><a xlink:href="FinSeq.html#compute_path_fscons'" xlink:title="compute_path_fscons&#39;">
<ellipse fill="#f070d1" stroke="#000000" cx="161.4985" cy="-394" rx="114.2798" ry="18"/>
<text text-anchor="middle" x="161.4985" y="-390.3" font-family="Times,serif" font-size="14.00" fill="#000000">compute_path_fscons&#39;</text>
</a>
</g>
</g>
<!-- FinSeq_compute_path_fscons&#45;&gt;FinSeq_compute_path_fscons_ -->
<g id="edge14" class="edge">
<title>FinSeq_compute_path_fscons&#45;&gt;FinSeq_compute_path_fscons_</title>
<path fill="none" stroke="#000000" d="M332.9018,-449.8418C299.749,-439.0409 255.9596,-424.7747 220.9401,-413.3656"/>
<polygon fill="#000000" stroke="#000000" points="221.9038,-409.9986 211.3115,-410.2287 219.7354,-416.6543 221.9038,-409.9986"/>
</g>
<!-- FinSeq_path_fscons&#45;&gt;FinSeq_path_fscons_ -->
<g id="edge15" class="edge">
<title>FinSeq_path_fscons&#45;&gt;FinSeq_path_fscons_</title>
<path fill="none" stroke="#000000" d="M417.8258,-375.8314C421.5276,-367.7547 425.9636,-358.0761 430.047,-349.1668"/>
<polygon fill="#000000" stroke="#000000" points="433.3033,-350.4624 434.2882,-339.9134 426.9398,-347.5458 433.3033,-350.4624"/>
</g>
<!-- FinSeq_compute_path_fscons_&#45;&gt;FinSeq_path_fscons_ -->
<g id="edge16" class="edge">
<title>FinSeq_compute_path_fscons_&#45;&gt;FinSeq_path_fscons_</title>
<path fill="none" stroke="#000000" d="M221.4354,-378.6425C269.1379,-366.4198 335.5541,-349.4021 383.1119,-337.2165"/>
<polygon fill="#000000" stroke="#000000" points="384.1421,-340.5657 392.9604,-334.693 382.4046,-333.7847 384.1421,-340.5657"/>
</g>
<!-- FinSeq_compute_fstail_ -->
<g id="node13" class="node">
<title>FinSeq_compute_fstail_</title>
<g id="a_node13"><a xlink:href="FinSeq.html#compute_fstail'" xlink:title="compute_fstail&#39;">
<ellipse fill="#f070d1" stroke="#000000" cx="700.4985" cy="-250" rx="81.7856" ry="18"/>
<text text-anchor="middle" x="700.4985" y="-246.3" font-family="Times,serif" font-size="14.00" fill="#000000">compute_fstail&#39;</text>
</a>
</g>
</g>
<!-- FinSeq_path_fscons_&#45;&gt;FinSeq_compute_fstail_ -->
<g id="edge17" class="edge">
<title>FinSeq_path_fscons_&#45;&gt;FinSeq_compute_fstail_</title>
<path fill="none" stroke="#000000" d="M489.8196,-308.7941C531.9692,-297.0314 593.8821,-279.7534 639.6922,-266.9692"/>
<polygon fill="#000000" stroke="#000000" points="640.8108,-270.2909 649.5019,-264.2316 638.9291,-263.5485 640.8108,-270.2909"/>
</g>
<!-- FinSeq_compute_fshead -->
<g id="node16" class="node">
<title>FinSeq_compute_fshead</title>
<g id="a_node16"><a xlink:href="FinSeq.html#compute_fshead" xlink:title="compute_fshead">
<ellipse fill="#f070d1" stroke="#000000" cx="467.4985" cy="-250" rx="87.1846" ry="18"/>
<text text-anchor="middle" x="467.4985" y="-246.3" font-family="Times,serif" font-size="14.00" fill="#000000">compute_fshead</text>
</a>
</g>
</g>
<!-- FinSeq_path_fscons_&#45;&gt;FinSeq_compute_fshead -->
<g id="edge18" class="edge">
<title>FinSeq_path_fscons_&#45;&gt;FinSeq_compute_fshead</title>
<path fill="none" stroke="#000000" d="M448.807,-303.8314C451.5102,-296.0463 454.7301,-286.7729 457.7295,-278.1347"/>
<polygon fill="#000000" stroke="#000000" points="461.1312,-279.0081 461.105,-268.4133 454.5184,-276.7119 461.1312,-279.0081"/>
</g>
<!-- FinSeq_path_expand_fscons&#45;&gt;FinSeq_path_expand_fscons_ -->
<g id="edge19" class="edge">
<title>FinSeq_path_expand_fscons&#45;&gt;FinSeq_path_expand_fscons_</title>
<path fill="none" stroke="#000000" d="M977.7942,-380.3727C916.629,-368.2408 827.1486,-350.4926 762.9293,-337.7549"/>
<polygon fill="#000000" stroke="#000000" points="763.3374,-334.2677 752.8475,-335.7552 761.9755,-341.134 763.3374,-334.2677"/>
</g>
<!-- FinSeq_path_expand_fscons_&#45;&gt;FinSeq_compute_fstail_ -->
<g id="edge20" class="edge">
<title>FinSeq_path_expand_fscons_&#45;&gt;FinSeq_compute_fstail_</title>
<path fill="none" stroke="#000000" d="M687.7883,-303.8314C689.6064,-296.131 691.7684,-286.9743 693.789,-278.4166"/>
<polygon fill="#000000" stroke="#000000" points="697.2592,-278.95 696.1509,-268.4133 690.4466,-277.3414 697.2592,-278.95"/>
</g>
<!-- FinSeq_fstail -->
<g id="node14" class="node">
<title>FinSeq_fstail</title>
<g id="a_node14"><a xlink:href="FinSeq.html#fstail" xlink:title="fstail">
<ellipse fill="#f070d1" stroke="#000000" cx="873.4985" cy="-250" rx="34.394" ry="18"/>
<text text-anchor="middle" x="873.4985" y="-246.3" font-family="Times,serif" font-size="14.00" fill="#000000">fstail</text>
</a>
</g>
</g>
<!-- FinSeq_path_expand_fscons_&#45;&gt;FinSeq_fstail -->
<g id="edge21" class="edge">
<title>FinSeq_path_expand_fscons_&#45;&gt;FinSeq_fstail</title>
<path fill="none" stroke="#000000" d="M727.0883,-305.4817C759.91,-293.0441 804.4475,-276.1667 835.7539,-264.3032"/>
<polygon fill="#000000" stroke="#000000" points="837.311,-267.4561 845.4218,-260.6396 834.8304,-260.9103 837.311,-267.4561"/>
</g>
<!-- FinSeq_path_expand_fscons_&#45;&gt;FinSeq_compute_fshead -->
<g id="edge22" class="edge">
<title>FinSeq_path_expand_fscons_&#45;&gt;FinSeq_compute_fshead</title>
<path fill="none" stroke="#000000" d="M635.0239,-305.8418C601.8253,-294.7756 557.7138,-280.0718 523.0891,-268.5302"/>
<polygon fill="#000000" stroke="#000000" points="524.1853,-265.2063 513.5916,-265.3644 521.9717,-271.8471 524.1853,-265.2063"/>
</g>
<!-- FinSeq_compute_fstail&#45;&gt;FinSeq_compute_fstail_ -->
<g id="edge23" class="edge">
<title>FinSeq_compute_fstail&#45;&gt;FinSeq_compute_fstail_</title>
<path fill="none" stroke="#000000" d="M891.7077,-307.6028C853.4502,-296.0775 799.6324,-279.8646 758.8355,-267.5743"/>
<polygon fill="#000000" stroke="#000000" points="759.6102,-264.1524 749.0257,-264.6191 757.591,-270.8549 759.6102,-264.1524"/>
</g>
<!-- FinSeq_compute_fstail&#45;&gt;FinSeq_fstail -->
<g id="edge24" class="edge">
<title>FinSeq_compute_fstail&#45;&gt;FinSeq_fstail</title>
<path fill="none" stroke="#000000" d="M923.1839,-304.2022C914.8705,-295.1332 904.64,-283.9726 895.6274,-274.1407"/>
<polygon fill="#000000" stroke="#000000" points="898.0578,-271.6124 888.7205,-266.6058 892.8977,-276.3424 898.0578,-271.6124"/>
</g>
<!-- FinSeq_fscons -->
<g id="node20" class="node">
<title>FinSeq_fscons</title>
<g id="a_node20"><a xlink:href="FinSeq.html#fscons" xlink:title="fscons">
<ellipse fill="#f070d1" stroke="#000000" cx="767.4985" cy="-178" rx="40.0939" ry="18"/>
<text text-anchor="middle" x="767.4985" y="-174.3" font-family="Times,serif" font-size="14.00" fill="#000000">fscons</text>
</a>
</g>
</g>
<!-- FinSeq_compute_fstail&#45;&gt;FinSeq_fscons -->
<g id="edge25" class="edge">
<title>FinSeq_compute_fstail&#45;&gt;FinSeq_fscons</title>
<path fill="none" stroke="#000000" d="M939.6378,-303.8031C938.8151,-283.7853 934.4836,-251.8299 916.4985,-232 902.2876,-216.3314 851.3958,-200.0042 813.0126,-189.462"/>
<polygon fill="#000000" stroke="#000000" points="813.6237,-186.0019 803.0574,-186.779 811.8021,-192.7607 813.6237,-186.0019"/>
</g>
<!-- FinSeq_fstail_ -->
<g id="node15" class="node">
<title>FinSeq_fstail_</title>
<g id="a_node15"><a xlink:href="FinSeq.html#fstail'" xlink:title="fstail&#39;">
<ellipse fill="#f070d1" stroke="#000000" cx="885.4985" cy="-178" rx="36.2938" ry="18"/>
<text text-anchor="middle" x="885.4985" y="-174.3" font-family="Times,serif" font-size="14.00" fill="#000000">fstail&#39;</text>
</a>
</g>
</g>
<!-- FinSeq_compute_fstail_&#45;&gt;FinSeq_fstail_ -->
<g id="edge26" class="edge">
<title>FinSeq_compute_fstail_&#45;&gt;FinSeq_fstail_</title>
<path fill="none" stroke="#000000" d="M741.0975,-234.1993C772.6736,-221.9102 816.1798,-204.9781 847.1655,-192.9188"/>
<polygon fill="#000000" stroke="#000000" points="848.7051,-196.0754 856.7548,-189.1867 846.1663,-189.552 848.7051,-196.0754"/>
</g>
<!-- FinSeq_fscons_ -->
<g id="node21" class="node">
<title>FinSeq_fscons_</title>
<g id="a_node21"><a xlink:href="FinSeq.html#fscons'" xlink:title="fscons&#39;">
<ellipse fill="#f070d1" stroke="#000000" cx="722.4985" cy="-106" rx="42.7926" ry="18"/>
<text text-anchor="middle" x="722.4985" y="-102.3" font-family="Times,serif" font-size="14.00" fill="#000000">fscons&#39;</text>
</a>
</g>
</g>
<!-- FinSeq_compute_fstail_&#45;&gt;FinSeq_fscons_ -->
<g id="edge27" class="edge">
<title>FinSeq_compute_fstail_&#45;&gt;FinSeq_fscons_</title>
<path fill="none" stroke="#000000" d="M703.2848,-231.7623C707.0372,-207.201 713.7523,-163.2474 718.1666,-134.3541"/>
<polygon fill="#000000" stroke="#000000" points="721.6843,-134.5035 719.7348,-124.0896 714.7646,-133.4463 721.6843,-134.5035"/>
</g>
<!-- FinSeq_fstail&#45;&gt;FinSeq_fstail_ -->
<g id="edge28" class="edge">
<title>FinSeq_fstail&#45;&gt;FinSeq_fstail_</title>
<path fill="none" stroke="#000000" d="M876.5266,-231.8314C877.81,-224.131 879.3361,-214.9743 880.7624,-206.4166"/>
<polygon fill="#000000" stroke="#000000" points="884.2379,-206.8526 882.4296,-196.4133 877.3331,-205.7018 884.2379,-206.8526"/>
</g>
<!-- FinSeq_FinSeq -->
<g id="node24" class="node">
<title>FinSeq_FinSeq</title>
<g id="a_node24"><a xlink:href="FinSeq.html#FinSeq" xlink:title="FinSeq">
<ellipse fill="#f070d1" stroke="#000000" cx="789.4985" cy="-34" rx="43.5923" ry="18"/>
<text text-anchor="middle" x="789.4985" y="-30.3" font-family="Times,serif" font-size="14.00" fill="#000000">FinSeq</text>
</a>
</g>
</g>
<!-- FinSeq_fstail_&#45;&gt;FinSeq_FinSeq -->
<g id="edge29" class="edge">
<title>FinSeq_fstail_&#45;&gt;FinSeq_FinSeq</title>
<path fill="none" stroke="#000000" d="M873.9186,-160.6302C857.1968,-135.5475 826.1694,-89.0064 806.7461,-59.8714"/>
<polygon fill="#000000" stroke="#000000" points="809.5786,-57.8104 801.1194,-51.4314 803.7542,-61.6934 809.5786,-57.8104"/>
</g>
<!-- FinSeq_compute_fshead_ -->
<g id="node17" class="node">
<title>FinSeq_compute_fshead_</title>
<g id="a_node17"><a xlink:href="FinSeq.html#compute_fshead'" xlink:title="compute_fshead&#39;">
<ellipse fill="#f070d1" stroke="#000000" cx="559.4985" cy="-178" rx="89.0842" ry="18"/>
<text text-anchor="middle" x="559.4985" y="-174.3" font-family="Times,serif" font-size="14.00" fill="#000000">compute_fshead&#39;</text>
</a>
</g>
</g>
<!-- FinSeq_compute_fshead&#45;&gt;FinSeq_compute_fshead_ -->
<g id="edge30" class="edge">
<title>FinSeq_compute_fshead&#45;&gt;FinSeq_compute_fshead_</title>
<path fill="none" stroke="#000000" d="M489.7691,-232.5708C501.5474,-223.353 516.184,-211.8983 529.0019,-201.8669"/>
<polygon fill="#000000" stroke="#000000" points="531.3961,-204.4376 537.1141,-195.5182 527.0819,-198.9251 531.3961,-204.4376"/>
</g>
<!-- FinSeq_fshead -->
<g id="node18" class="node">
<title>FinSeq_fshead</title>
<g id="a_node18"><a xlink:href="FinSeq.html#fshead" xlink:title="fshead">
<ellipse fill="#f070d1" stroke="#000000" cx="373.4985" cy="-178" rx="41.6928" ry="18"/>
<text text-anchor="middle" x="373.4985" y="-174.3" font-family="Times,serif" font-size="14.00" fill="#000000">fshead</text>
</a>
</g>
</g>
<!-- FinSeq_compute_fshead&#45;&gt;FinSeq_fshead -->
<g id="edge31" class="edge">
<title>FinSeq_compute_fshead&#45;&gt;FinSeq_fshead</title>
<path fill="none" stroke="#000000" d="M444.7437,-232.5708C431.9648,-222.7827 415.8929,-210.4723 402.2497,-200.0222"/>
<polygon fill="#000000" stroke="#000000" points="404.187,-197.0974 394.1199,-193.7951 399.9304,-202.6545 404.187,-197.0974"/>
</g>
<!-- FinSeq_compute_fshead&#45;&gt;FinSeq_fscons -->
<g id="edge32" class="edge">
<title>FinSeq_compute_fshead&#45;&gt;FinSeq_fscons</title>
<path fill="none" stroke="#000000" d="M524.6323,-236.2879C581.9686,-222.5272 669.1499,-201.6036 721.9786,-188.9248"/>
<polygon fill="#000000" stroke="#000000" points="722.8406,-192.3174 731.7476,-186.5802 721.2069,-185.5107 722.8406,-192.3174"/>
</g>
<!-- FinSeq_fshead_ -->
<g id="node19" class="node">
<title>FinSeq_fshead_</title>
<g id="a_node19"><a xlink:href="FinSeq.html#fshead'" xlink:title="fshead&#39;">
<ellipse fill="#f070d1" stroke="#000000" cx="559.4985" cy="-106" rx="44.393" ry="18"/>
<text text-anchor="middle" x="559.4985" y="-102.3" font-family="Times,serif" font-size="14.00" fill="#000000">fshead&#39;</text>
</a>
</g>
</g>
<!-- FinSeq_compute_fshead_&#45;&gt;FinSeq_fshead_ -->
<g id="edge33" class="edge">
<title>FinSeq_compute_fshead_&#45;&gt;FinSeq_fshead_</title>
<path fill="none" stroke="#000000" d="M559.4985,-159.8314C559.4985,-152.131 559.4985,-142.9743 559.4985,-134.4166"/>
<polygon fill="#000000" stroke="#000000" points="562.9986,-134.4132 559.4985,-124.4133 555.9986,-134.4133 562.9986,-134.4132"/>
</g>
<!-- FinSeq_compute_fshead_&#45;&gt;FinSeq_fscons_ -->
<g id="edge34" class="edge">
<title>FinSeq_compute_fshead_&#45;&gt;FinSeq_fscons_</title>
<path fill="none" stroke="#000000" d="M596.894,-161.4817C622.8442,-150.0191 657.3313,-134.7855 683.6024,-123.1811"/>
<polygon fill="#000000" stroke="#000000" points="685.1454,-126.3258 692.8785,-119.0837 682.3169,-119.9227 685.1454,-126.3258"/>
</g>
<!-- FinSeq_fshead&#45;&gt;FinSeq_fshead_ -->
<g id="edge35" class="edge">
<title>FinSeq_fshead&#45;&gt;FinSeq_fshead_</title>
<path fill="none" stroke="#000000" d="M404.6307,-165.9488C435.5981,-153.9614 483.315,-135.4904 517.5973,-122.2198"/>
<polygon fill="#000000" stroke="#000000" points="519.2656,-125.3271 527.3278,-118.4532 516.7386,-118.7992 519.2656,-125.3271"/>
</g>
<!-- FinSeq_fshead_&#45;&gt;FinSeq_FinSeq -->
<g id="edge36" class="edge">
<title>FinSeq_fshead_&#45;&gt;FinSeq_FinSeq</title>
<path fill="none" stroke="#000000" d="M594.6809,-94.9864C635.043,-82.3513 701.2895,-61.6133 745.1501,-47.883"/>
<polygon fill="#000000" stroke="#000000" points="746.199,-51.2222 754.6967,-44.8945 744.1078,-44.5418 746.199,-51.2222"/>
</g>
<!-- FinSeq_fscons&#45;&gt;FinSeq_fscons_ -->
<g id="edge37" class="edge">
<title>FinSeq_fscons&#45;&gt;FinSeq_fscons_</title>
<path fill="none" stroke="#000000" d="M756.6052,-160.5708C751.283,-152.0553 744.7677,-141.6308 738.8628,-132.183"/>
<polygon fill="#000000" stroke="#000000" points="741.7154,-130.1432 733.4474,-123.5182 735.7794,-133.8532 741.7154,-130.1432"/>
</g>
<!-- FinSeq_fscons_&#45;&gt;FinSeq_FinSeq -->
<g id="edge38" class="edge">
<title>FinSeq_fscons_&#45;&gt;FinSeq_FinSeq</title>
<path fill="none" stroke="#000000" d="M738.3765,-88.937C746.8874,-79.791 757.5197,-68.3652 766.8803,-58.3061"/>
<polygon fill="#000000" stroke="#000000" points="769.4843,-60.6455 773.7344,-50.9405 764.3598,-55.8769 769.4843,-60.6455"/>
</g>
<!-- FinSeq_fsnil -->
<g id="node23" class="node">
<title>FinSeq_fsnil</title>
<g id="a_node23"><a xlink:href="FinSeq.html#fsnil" xlink:title="fsnil">
<ellipse fill="#f070d1" stroke="#000000" cx="1004.4985" cy="-106" rx="30.5947" ry="18"/>
<text text-anchor="middle" x="1004.4985" y="-102.3" font-family="Times,serif" font-size="14.00" fill="#000000">fsnil</text>
</a>
</g>
</g>
<!-- FinSeq_path_fsnil&#45;&gt;FinSeq_fsnil -->
<g id="edge39" class="edge">
<title>FinSeq_path_fsnil&#45;&gt;FinSeq_fsnil</title>
<path fill="none" stroke="#000000" d="M1120.889,-303.9555C1098.4037,-265.7128 1045.8845,-176.3889 1019.7834,-131.9964"/>
<polygon fill="#000000" stroke="#000000" points="1022.7207,-130.0865 1014.635,-123.2401 1016.6864,-133.6345 1022.7207,-130.0865"/>
</g>
<!-- FinSeq_fsnil&#45;&gt;FinSeq_FinSeq -->
<g id="edge40" class="edge">
<title>FinSeq_fsnil&#45;&gt;FinSeq_FinSeq</title>
<path fill="none" stroke="#000000" d="M977.7033,-97.0267C941.4651,-84.8912 876.3929,-63.0995 833.0721,-48.5921"/>
<polygon fill="#000000" stroke="#000000" points="833.9624,-45.1993 823.3685,-45.3425 831.7395,-51.8369 833.9624,-45.1993"/>
</g>
</g>
</svg>
