<?xml version="1.0" encoding="UTF-8" standalone="no"?>
<!DOCTYPE svg PUBLIC "-//W3C//DTD SVG 1.1//EN"
 "http://www.w3.org/Graphics/SVG/1.1/DTD/svg11.dtd">
<!-- Generated by graphviz version 2.40.1 (20161225.0304)
 -->
<!-- Title: HoTT_Sets_Powers Pages: 1 -->
<svg width="691pt" height="350pt"
 viewBox="0.00 0.00 691.00 349.50" xmlns="http://www.w3.org/2000/svg" xmlns:xlink="http://www.w3.org/1999/xlink">
<g id="graph0" class="graph" transform="scale(1 1) rotate(0) translate(4 345.5)">
<title>HoTT_Sets_Powers</title>
<polygon fill="#ffffff" stroke="transparent" points="-4,4 -4,-345.5 687,-345.5 687,4 -4,4"/>
<g id="clust1" class="cluster">
<title>cluster_Powers</title>
<polygon fill="#ffffc3" stroke="#000000" points="8,-8.059 8,-333.441 675,-333.441 675,-8.059 8,-8.059"/>
<text text-anchor="middle" x="42" y="-318.241" font-family="Times,serif" font-size="14.00" fill="#000000">Powers</text>
</g>
<!-- Powers_infinite_power_iterated -->
<g id="node1" class="node">
<title>Powers_infinite_power_iterated</title>
<g id="a_node1"><a xlink:href="Powers.html#infinite_power_iterated" xlink:title="infinite_power_iterated">
<ellipse fill="#f070d1" stroke="#000000" cx="355" cy="-276.059" rx="119.6732" ry="18"/>
<ellipse fill="none" stroke="#000000" cx="355" cy="-276.059" rx="123.676" ry="22"/>
<ellipse fill="none" stroke="#000000" cx="355" cy="-276.059" rx="127.6788" ry="26"/>
<text text-anchor="middle" x="355" y="-272.359" font-family="Times,serif" font-size="14.00" fill="#000000">infinite_power_iterated</text>
</a>
</g>
</g>
<!-- Powers_infinite_inject -->
<g id="node2" class="node">
<title>Powers_infinite_inject</title>
<g id="a_node2"><a xlink:href="Powers.html#infinite_inject" xlink:title="infinite_inject">
<ellipse fill="#f070d1" stroke="#000000" cx="234" cy="-195.059" rx="75.2868" ry="18"/>
<text text-anchor="middle" x="234" y="-191.359" font-family="Times,serif" font-size="14.00" fill="#000000">infinite_inject</text>
</a>
</g>
</g>
<!-- Powers_infinite_power_iterated&#45;&gt;Powers_infinite_inject -->
<g id="edge1" class="edge">
<title>Powers_infinite_power_iterated&#45;&gt;Powers_infinite_inject</title>
<path fill="none" stroke="#000000" d="M317.7087,-251.0954C301.92,-240.5261 283.6458,-228.293 268.2074,-217.9582"/>
<polygon fill="#000000" stroke="#000000" points="269.7424,-214.7739 259.4854,-212.1195 265.8484,-220.5909 269.7424,-214.7739"/>
</g>
<!-- Powers_Injection_power_iterated -->
<g id="node3" class="node">
<title>Powers_Injection_power_iterated</title>
<g id="a_node3"><a xlink:href="Powers.html#Injection_power_iterated" xlink:title="Injection_power_iterated">
<ellipse fill="#f070d1" stroke="#000000" cx="455" cy="-195.059" rx="128.0773" ry="18"/>
<text text-anchor="middle" x="455" y="-191.359" font-family="Times,serif" font-size="14.00" fill="#000000">Injection_power_iterated</text>
</a>
</g>
</g>
<!-- Powers_infinite_power_iterated&#45;&gt;Powers_Injection_power_iterated -->
<g id="edge2" class="edge">
<title>Powers_infinite_power_iterated&#45;&gt;Powers_Injection_power_iterated</title>
<path fill="none" stroke="#000000" d="M386.3663,-250.6523C398.6525,-240.7004 412.6905,-229.3297 424.8561,-219.4756"/>
<polygon fill="#000000" stroke="#000000" points="427.367,-221.9459 432.9347,-212.9319 422.961,-216.5065 427.367,-221.9459"/>
</g>
<!-- Powers_hset_power_iterated -->
<g id="node4" class="node">
<title>Powers_hset_power_iterated</title>
<g id="a_node4"><a xlink:href="Powers.html#hset_power_iterated" xlink:title="hset_power_iterated">
<ellipse fill="#f070d1" stroke="#000000" cx="371" cy="-115.059" rx="106.6812" ry="18"/>
<text text-anchor="middle" x="371" y="-111.359" font-family="Times,serif" font-size="14.00" fill="#000000">hset_power_iterated</text>
</a>
</g>
</g>
<!-- Powers_Injection_power_iterated&#45;&gt;Powers_hset_power_iterated -->
<g id="edge3" class="edge">
<title>Powers_Injection_power_iterated&#45;&gt;Powers_hset_power_iterated</title>
<path fill="none" stroke="#000000" d="M435.9391,-176.9058C424.4746,-165.9872 409.7207,-151.9359 397.1739,-139.9865"/>
<polygon fill="#000000" stroke="#000000" points="399.3513,-137.2269 389.6961,-132.8648 394.5237,-142.2959 399.3513,-137.2269"/>
</g>
<!-- Powers_Injection_power -->
<g id="node8" class="node">
<title>Powers_Injection_power</title>
<g id="a_node8"><a xlink:href="Powers.html#Injection_power" xlink:title="Injection_power">
<ellipse fill="#f070d1" stroke="#000000" cx="581" cy="-115.059" rx="85.5853" ry="18"/>
<text text-anchor="middle" x="581" y="-111.359" font-family="Times,serif" font-size="14.00" fill="#000000">Injection_power</text>
</a>
</g>
</g>
<!-- Powers_Injection_power_iterated&#45;&gt;Powers_Injection_power -->
<g id="edge4" class="edge">
<title>Powers_Injection_power_iterated&#45;&gt;Powers_Injection_power</title>
<path fill="none" stroke="#000000" d="M482.9635,-177.3044C501.4048,-165.5956 525.719,-150.158 545.5194,-137.5864"/>
<polygon fill="#000000" stroke="#000000" points="547.4134,-140.5297 553.9795,-132.2149 543.6613,-134.6202 547.4134,-140.5297"/>
</g>
<!-- Powers_hset_power -->
<g id="node5" class="node">
<title>Powers_hset_power</title>
<g id="a_node5"><a xlink:href="Powers.html#hset_power" xlink:title="hset_power">
<ellipse fill="#f070d1" stroke="#000000" cx="371" cy="-34.059" rx="64.189" ry="18"/>
<text text-anchor="middle" x="371" y="-30.359" font-family="Times,serif" font-size="14.00" fill="#000000">hset_power</text>
</a>
</g>
</g>
<!-- Powers_hset_power_iterated&#45;&gt;Powers_hset_power -->
<g id="edge5" class="edge">
<title>Powers_hset_power_iterated&#45;&gt;Powers_hset_power</title>
<path fill="none" stroke="#000000" d="M371,-96.6788C371,-86.5624 371,-73.7899 371,-62.4227"/>
<polygon fill="#000000" stroke="#000000" points="374.5001,-62.0874 371,-52.0874 367.5001,-62.0874 374.5001,-62.0874"/>
</g>
<!-- Powers_power_iterated -->
<g id="node7" class="node">
<title>Powers_power_iterated</title>
<g id="a_node7"><a xlink:href="Powers.html#power_iterated" xlink:title="power_iterated">
<ellipse fill="#f070d1" stroke="#000000" cx="169" cy="-34.059" rx="81.4863" ry="18"/>
<text text-anchor="middle" x="169" y="-30.359" font-family="Times,serif" font-size="14.00" fill="#000000">power_iterated</text>
</a>
</g>
</g>
<!-- Powers_hset_power_iterated&#45;&gt;Powers_power_iterated -->
<g id="edge6" class="edge">
<title>Powers_hset_power_iterated&#45;&gt;Powers_power_iterated</title>
<path fill="none" stroke="#000000" d="M329.1455,-98.2757C296.7172,-85.2723 251.7291,-67.2325 217.6899,-53.5832"/>
<polygon fill="#000000" stroke="#000000" points="218.9833,-50.3309 208.399,-49.8576 216.378,-56.8281 218.9833,-50.3309"/>
</g>
<!-- Powers_power_iterated_shift -->
<g id="node6" class="node">
<title>Powers_power_iterated_shift</title>
<g id="a_node6"><a xlink:href="Powers.html#power_iterated_shift" xlink:title="power_iterated_shift">
<ellipse fill="#f070d1" stroke="#000000" cx="131" cy="-115.059" rx="107.4647" ry="18"/>
<ellipse fill="none" stroke="#000000" cx="131" cy="-115.059" rx="111.4731" ry="22"/>
<ellipse fill="none" stroke="#000000" cx="131" cy="-115.059" rx="115.4815" ry="26"/>
<text text-anchor="middle" x="131" y="-111.359" font-family="Times,serif" font-size="14.00" fill="#000000">power_iterated_shift</text>
</a>
</g>
</g>
<!-- Powers_power_iterated_shift&#45;&gt;Powers_power_iterated -->
<g id="edge7" class="edge">
<title>Powers_power_iterated_shift&#45;&gt;Powers_power_iterated</title>
<path fill="none" stroke="#000000" d="M143.2326,-88.9842C147.3753,-80.1538 152.0117,-70.2709 156.1975,-61.3486"/>
<polygon fill="#000000" stroke="#000000" points="159.4393,-62.6791 160.5179,-52.1393 153.102,-59.706 159.4393,-62.6791"/>
</g>
<!-- Powers_power_type -->
<g id="node9" class="node">
<title>Powers_power_type</title>
<g id="a_node9"><a xlink:href="Powers.html#power_type" xlink:title="power_type">
<ellipse fill="#f070d1" stroke="#000000" cx="120" cy="-276.059" rx="64.9891" ry="18"/>
<ellipse fill="none" stroke="#000000" cx="120" cy="-276.059" rx="68.9888" ry="22"/>
<ellipse fill="none" stroke="#000000" cx="120" cy="-276.059" rx="72.9885" ry="26"/>
<text text-anchor="middle" x="120" y="-272.359" font-family="Times,serif" font-size="14.00" fill="#000000">power_type</text>
</a>
</g>
</g>
</g>
</svg>
