<?xml version="1.0" encoding="UTF-8" standalone="no"?>
<!DOCTYPE svg PUBLIC "-//W3C//DTD SVG 1.1//EN"
 "http://www.w3.org/Graphics/SVG/1.1/DTD/svg11.dtd">
<!-- Generated by graphviz version 2.40.1 (20161225.0304)
 -->
<!-- Title: HoTT_Spaces_Card Pages: 1 -->
<svg width="3438pt" height="1723pt"
 viewBox="0.00 0.00 3438.00 1723.00" xmlns="http://www.w3.org/2000/svg" xmlns:xlink="http://www.w3.org/1999/xlink">
<g id="graph0" class="graph" transform="scale(1 1) rotate(0) translate(4 1719)">
<title>HoTT_Spaces_Card</title>
<polygon fill="#ffffff" stroke="transparent" points="-4,4 -4,-1719 3434,-1719 3434,4 -4,4"/>
<g id="clust1" class="cluster">
<title>cluster_Card</title>
<polygon fill="#ffffc3" stroke="#000000" points="8,-32.1311 8,-1682.8689 3422,-1682.8689 3422,-32.1311 8,-32.1311"/>
<text text-anchor="middle" x="34" y="-1667.6689" font-family="Times,serif" font-size="14.00" fill="#000000">Card</text>
</g>
<!-- Card_infinite -->
<g id="node1" class="node">
<title>Card_infinite</title>
<g id="a_node1"><a xlink:href="Card.html#infinite" xlink:title="infinite">
<ellipse fill="#f070d1" stroke="#000000" cx="3362" cy="-1100.1311" rx="44.3627" ry="18"/>
<ellipse fill="none" stroke="#000000" cx="3362" cy="-1100.1311" rx="48.3778" ry="22"/>
<ellipse fill="none" stroke="#000000" cx="3362" cy="-1100.1311" rx="52.3929" ry="26"/>
<text text-anchor="middle" x="3362" y="-1096.4311" font-family="Times,serif" font-size="14.00" fill="#000000">infinite</text>
</a>
</g>
</g>
<!-- Card_Injection -->
<g id="node7" class="node">
<title>Card_Injection</title>
<g id="a_node7"><a xlink:href="Card.html#Injection" xlink:title="Injection">
<ellipse fill="#f070d1" stroke="#000000" cx="3153" cy="-779.1311" rx="51.9908" ry="18"/>
<text text-anchor="middle" x="3153" y="-775.4311" font-family="Times,serif" font-size="14.00" fill="#000000">Injection</text>
</a>
</g>
</g>
<!-- Card_infinite&#45;&gt;Card_Injection -->
<g id="edge1" class="edge">
<title>Card_infinite&#45;&gt;Card_Injection</title>
<path fill="none" stroke="#000000" d="M3345.774,-1075.2099C3307.0942,-1015.8021 3209.7423,-866.2807 3170.1481,-805.4686"/>
<polygon fill="#000000" stroke="#000000" points="3172.9122,-803.2993 3164.5228,-796.8288 3167.046,-807.1188 3172.9122,-803.2993"/>
</g>
<!-- Card_InjectsInto_trans -->
<g id="node2" class="node">
<title>Card_InjectsInto_trans</title>
<g id="a_node2"><a xlink:href="Card.html#InjectsInto_trans" xlink:title="InjectsInto_trans">
<ellipse fill="#f070d1" stroke="#000000" cx="3285" cy="-1454.1311" rx="90.9845" ry="18"/>
<ellipse fill="none" stroke="#000000" cx="3285" cy="-1454.1311" rx="94.9842" ry="22"/>
<ellipse fill="none" stroke="#000000" cx="3285" cy="-1454.1311" rx="98.9839" ry="26"/>
<text text-anchor="middle" x="3285" y="-1450.4311" font-family="Times,serif" font-size="14.00" fill="#000000">InjectsInto_trans</text>
</a>
</g>
</g>
<!-- Card_InjectsInto -->
<g id="node4" class="node">
<title>Card_InjectsInto</title>
<g id="a_node4"><a xlink:href="Card.html#InjectsInto" xlink:title="InjectsInto">
<ellipse fill="#f070d1" stroke="#000000" cx="3230" cy="-1100.1311" rx="61.99" ry="18"/>
<text text-anchor="middle" x="3230" y="-1096.4311" font-family="Times,serif" font-size="14.00" fill="#000000">InjectsInto</text>
</a>
</g>
</g>
<!-- Card_InjectsInto_trans&#45;&gt;Card_InjectsInto -->
<g id="edge2" class="edge">
<title>Card_InjectsInto_trans&#45;&gt;Card_InjectsInto</title>
<path fill="none" stroke="#000000" d="M3280.9557,-1428.1007C3270.8979,-1363.365 3244.8178,-1195.5038 3234.3966,-1128.4294"/>
<polygon fill="#000000" stroke="#000000" points="3237.8011,-1127.5436 3232.8072,-1118.1995 3230.8841,-1128.6183 3237.8011,-1127.5436"/>
</g>
<!-- Card_InjectsInto_refl -->
<g id="node3" class="node">
<title>Card_InjectsInto_refl</title>
<g id="a_node3"><a xlink:href="Card.html#InjectsInto_refl" xlink:title="InjectsInto_refl">
<ellipse fill="#f070d1" stroke="#000000" cx="3077" cy="-1454.1311" rx="83.3687" ry="18"/>
<ellipse fill="none" stroke="#000000" cx="3077" cy="-1454.1311" rx="87.3772" ry="22"/>
<ellipse fill="none" stroke="#000000" cx="3077" cy="-1454.1311" rx="91.3856" ry="26"/>
<text text-anchor="middle" x="3077" y="-1450.4311" font-family="Times,serif" font-size="14.00" fill="#000000">InjectsInto_refl</text>
</a>
</g>
</g>
<!-- Card_InjectsInto_refl&#45;&gt;Card_InjectsInto -->
<g id="edge3" class="edge">
<title>Card_InjectsInto_refl&#45;&gt;Card_InjectsInto</title>
<path fill="none" stroke="#000000" d="M3088.2505,-1428.1007C3116.3448,-1363.0981 3189.3787,-1194.1176 3218.1258,-1127.6048"/>
<polygon fill="#000000" stroke="#000000" points="3221.4362,-1128.7675 3222.1908,-1118.1995 3215.0106,-1125.9903 3221.4362,-1128.7675"/>
</g>
<!-- Card_Injection_refl -->
<g id="node6" class="node">
<title>Card_Injection_refl</title>
<g id="a_node6"><a xlink:href="Card.html#Injection_refl" xlink:title="Injection_refl">
<ellipse fill="#f070d1" stroke="#000000" cx="3077" cy="-1100.1311" rx="73.387" ry="18"/>
<text text-anchor="middle" x="3077" y="-1096.4311" font-family="Times,serif" font-size="14.00" fill="#000000">Injection_refl</text>
</a>
</g>
</g>
<!-- Card_InjectsInto_refl&#45;&gt;Card_Injection_refl -->
<g id="edge4" class="edge">
<title>Card_InjectsInto_refl&#45;&gt;Card_Injection_refl</title>
<path fill="none" stroke="#000000" d="M3077,-1428.1007C3077,-1363.365 3077,-1195.5038 3077,-1128.4294"/>
<polygon fill="#000000" stroke="#000000" points="3080.5001,-1128.1995 3077,-1118.1995 3073.5001,-1128.1996 3080.5001,-1128.1995"/>
</g>
<!-- Card_InjectsInto&#45;&gt;Card_Injection -->
<g id="edge5" class="edge">
<title>Card_InjectsInto&#45;&gt;Card_Injection</title>
<path fill="none" stroke="#000000" d="M3225.6395,-1081.9531C3212.8014,-1028.433 3175.0773,-871.1679 3159.6702,-806.938"/>
<polygon fill="#000000" stroke="#000000" points="3163.0488,-806.0176 3157.3127,-797.1099 3156.2419,-807.6504 3163.0488,-806.0176"/>
</g>
<!-- Card_Injection_trans -->
<g id="node5" class="node">
<title>Card_Injection_trans</title>
<g id="a_node5"><a xlink:href="Card.html#Injection_trans" xlink:title="Injection_trans">
<ellipse fill="#f070d1" stroke="#000000" cx="2896" cy="-1100.1311" rx="81.4644" ry="18"/>
<ellipse fill="none" stroke="#000000" cx="2896" cy="-1100.1311" rx="85.4753" ry="22"/>
<ellipse fill="none" stroke="#000000" cx="2896" cy="-1100.1311" rx="89.4862" ry="26"/>
<text text-anchor="middle" x="2896" y="-1096.4311" font-family="Times,serif" font-size="14.00" fill="#000000">Injection_trans</text>
</a>
</g>
</g>
<!-- Card_Injection_trans&#45;&gt;Card_Injection -->
<g id="edge6" class="edge">
<title>Card_Injection_trans&#45;&gt;Card_Injection</title>
<path fill="none" stroke="#000000" d="M2916.3812,-1074.6745C2964.4583,-1014.6249 3084.5042,-864.6843 3132.6,-804.6113"/>
<polygon fill="#000000" stroke="#000000" points="3135.3763,-806.7437 3138.8941,-796.7499 3129.9119,-802.3687 3135.3763,-806.7437"/>
</g>
<!-- Card_Injection_refl&#45;&gt;Card_Injection -->
<g id="edge7" class="edge">
<title>Card_Injection_refl&#45;&gt;Card_Injection</title>
<path fill="none" stroke="#000000" d="M3081.3038,-1081.9531C3093.9753,-1028.433 3131.2094,-871.1679 3146.4165,-806.938"/>
<polygon fill="#000000" stroke="#000000" points="3149.8452,-807.6472 3148.7434,-797.1099 3143.0335,-806.0345 3149.8452,-807.6472"/>
</g>
<!-- Card_preorder_card -->
<g id="node8" class="node">
<title>Card_preorder_card</title>
<g id="a_node8"><a xlink:href="Card.html#preorder_card" xlink:title="preorder_card">
<ellipse fill="#f070d1" stroke="#000000" cx="2703" cy="-1100.1311" rx="77.2012" ry="18"/>
<ellipse fill="none" stroke="#000000" cx="2703" cy="-1100.1311" rx="81.1939" ry="22"/>
<ellipse fill="none" stroke="#000000" cx="2703" cy="-1100.1311" rx="85.1866" ry="26"/>
<text text-anchor="middle" x="2703" y="-1096.4311" font-family="Times,serif" font-size="14.00" fill="#000000">preorder_card</text>
</a>
</g>
</g>
<!-- Card_transitive_card -->
<g id="node9" class="node">
<title>Card_transitive_card</title>
<g id="a_node9"><a xlink:href="Card.html#transitive_card" xlink:title="transitive_card">
<ellipse fill="#f070d1" stroke="#000000" cx="2456" cy="-779.1311" rx="81.4863" ry="18"/>
<text text-anchor="middle" x="2456" y="-775.4311" font-family="Times,serif" font-size="14.00" fill="#000000">transitive_card</text>
</a>
</g>
</g>
<!-- Card_preorder_card&#45;&gt;Card_transitive_card -->
<g id="edge8" class="edge">
<title>Card_preorder_card&#45;&gt;Card_transitive_card</title>
<path fill="none" stroke="#000000" d="M2683.4119,-1074.6745C2637.4087,-1014.8891 2522.8443,-866.0016 2476.2202,-805.4092"/>
<polygon fill="#000000" stroke="#000000" points="2478.7226,-802.922 2469.8504,-797.1311 2473.1749,-807.1909 2478.7226,-802.922"/>
</g>
<!-- Card_reflexive_card -->
<g id="node10" class="node">
<title>Card_reflexive_card</title>
<g id="a_node10"><a xlink:href="Card.html#reflexive_card" xlink:title="reflexive_card">
<ellipse fill="#f070d1" stroke="#000000" cx="2633" cy="-779.1311" rx="77.1866" ry="18"/>
<text text-anchor="middle" x="2633" y="-775.4311" font-family="Times,serif" font-size="14.00" fill="#000000">reflexive_card</text>
</a>
</g>
</g>
<!-- Card_preorder_card&#45;&gt;Card_reflexive_card -->
<g id="edge9" class="edge">
<title>Card_preorder_card&#45;&gt;Card_reflexive_card</title>
<path fill="none" stroke="#000000" d="M2697.3309,-1074.1343C2684.3468,-1014.5928 2652.5426,-868.7478 2639.1276,-807.2307"/>
<polygon fill="#000000" stroke="#000000" points="2642.5416,-806.4585 2636.9912,-797.4339 2635.7023,-807.95 2642.5416,-806.4585"/>
</g>
<!-- Card_le_card -->
<g id="node26" class="node">
<title>Card_le_card</title>
<g id="a_node26"><a xlink:href="Card.html#le_card" xlink:title="le_card">
<ellipse fill="#f070d1" stroke="#000000" cx="2773" cy="-779.1311" rx="44.6926" ry="18"/>
<text text-anchor="middle" x="2773" y="-775.4311" font-family="Times,serif" font-size="14.00" fill="#000000">le_card</text>
</a>
</g>
</g>
<!-- Card_preorder_card&#45;&gt;Card_le_card -->
<g id="edge10" class="edge">
<title>Card_preorder_card&#45;&gt;Card_le_card</title>
<path fill="none" stroke="#000000" d="M2708.6691,-1074.1343C2721.6532,-1014.5928 2753.4574,-868.7478 2766.8724,-807.2307"/>
<polygon fill="#000000" stroke="#000000" points="2770.2977,-807.95 2769.0088,-797.4339 2763.4584,-806.4585 2770.2977,-807.95"/>
</g>
<!-- Card_leq_card -->
<g id="node31" class="node">
<title>Card_leq_card</title>
<g id="a_node31"><a xlink:href="Card.html#leq_card" xlink:title="leq_card">
<ellipse fill="#f070d1" stroke="#000000" cx="2544" cy="-458.1311" rx="50.8918" ry="18"/>
<text text-anchor="middle" x="2544" y="-454.4311" font-family="Times,serif" font-size="14.00" fill="#000000">leq_card</text>
</a>
</g>
</g>
<!-- Card_transitive_card&#45;&gt;Card_leq_card -->
<g id="edge11" class="edge">
<title>Card_transitive_card&#45;&gt;Card_leq_card</title>
<path fill="none" stroke="#000000" d="M2460.9834,-760.9531C2475.6556,-707.433 2518.7687,-550.1679 2536.3769,-485.938"/>
<polygon fill="#000000" stroke="#000000" points="2539.8028,-486.6794 2539.0713,-476.1099 2533.0518,-484.8286 2539.8028,-486.6794"/>
</g>
<!-- Card_reflexive_card&#45;&gt;Card_leq_card -->
<g id="edge12" class="edge">
<title>Card_reflexive_card&#45;&gt;Card_leq_card</title>
<path fill="none" stroke="#000000" d="M2627.96,-760.9531C2613.1211,-707.433 2569.518,-550.1679 2551.7097,-485.938"/>
<polygon fill="#000000" stroke="#000000" points="2555.0294,-484.8112 2548.9848,-476.1099 2548.2839,-486.6815 2555.0294,-484.8112"/>
</g>
<!-- Card_exp_card_mult_mult -->
<g id="node11" class="node">
<title>Card_exp_card_mult_mult</title>
<g id="a_node11"><a xlink:href="Card.html#exp_card_mult_mult" xlink:title="exp_card_mult_mult">
<ellipse fill="#f070d1" stroke="#000000" cx="1753" cy="-1100.1311" rx="105.8854" ry="18"/>
<ellipse fill="none" stroke="#000000" cx="1753" cy="-1100.1311" rx="109.8833" ry="22"/>
<ellipse fill="none" stroke="#000000" cx="1753" cy="-1100.1311" rx="113.8812" ry="26"/>
<text text-anchor="middle" x="1753" y="-1096.4311" font-family="Times,serif" font-size="14.00" fill="#000000">exp_card_mult_mult</text>
</a>
</g>
</g>
<!-- Card_mult_card -->
<g id="node29" class="node">
<title>Card_mult_card</title>
<g id="a_node29"><a xlink:href="Card.html#mult_card" xlink:title="mult_card">
<ellipse fill="#f070d1" stroke="#000000" cx="1358" cy="-779.1311" rx="57.6901" ry="18"/>
<text text-anchor="middle" x="1358" y="-775.4311" font-family="Times,serif" font-size="14.00" fill="#000000">mult_card</text>
</a>
</g>
</g>
<!-- Card_exp_card_mult_mult&#45;&gt;Card_mult_card -->
<g id="edge13" class="edge">
<title>Card_exp_card_mult_mult&#45;&gt;Card_mult_card</title>
<path fill="none" stroke="#000000" d="M1722.005,-1074.9428C1647.4034,-1014.3172 1458.7003,-860.9661 1386.6047,-802.377"/>
<polygon fill="#000000" stroke="#000000" points="1388.7698,-799.6265 1378.8019,-796.036 1384.3551,-805.0589 1388.7698,-799.6265"/>
</g>
<!-- Card_exp_card -->
<g id="node32" class="node">
<title>Card_exp_card</title>
<g id="a_node32"><a xlink:href="Card.html#exp_card" xlink:title="exp_card">
<ellipse fill="#f070d1" stroke="#000000" cx="1971" cy="-779.1311" rx="53.0913" ry="18"/>
<text text-anchor="middle" x="1971" y="-775.4311" font-family="Times,serif" font-size="14.00" fill="#000000">exp_card</text>
</a>
</g>
</g>
<!-- Card_exp_card_mult_mult&#45;&gt;Card_exp_card -->
<g id="edge14" class="edge">
<title>Card_exp_card_mult_mult&#45;&gt;Card_exp_card</title>
<path fill="none" stroke="#000000" d="M1770.4713,-1074.405C1811.219,-1014.4051 1912.1925,-865.7238 1953.2313,-805.2951"/>
<polygon fill="#000000" stroke="#000000" points="1956.3386,-806.9495 1959.0614,-796.7104 1950.5478,-803.0167 1956.3386,-806.9495"/>
</g>
<!-- Card_exp_mult_card_exp -->
<g id="node12" class="node">
<title>Card_exp_mult_card_exp</title>
<g id="a_node12"><a xlink:href="Card.html#exp_mult_card_exp" xlink:title="exp_mult_card_exp">
<ellipse fill="#f070d1" stroke="#000000" cx="1756" cy="-1454.1311" rx="100.9649" ry="18"/>
<ellipse fill="none" stroke="#000000" cx="1756" cy="-1454.1311" rx="104.9738" ry="22"/>
<ellipse fill="none" stroke="#000000" cx="1756" cy="-1454.1311" rx="108.9827" ry="26"/>
<text text-anchor="middle" x="1756" y="-1450.4311" font-family="Times,serif" font-size="14.00" fill="#000000">exp_mult_card_exp</text>
</a>
</g>
</g>
<!-- Card_commutative_prod -->
<g id="node20" class="node">
<title>Card_commutative_prod</title>
<g id="a_node20"><a xlink:href="Card.html#commutative_prod" xlink:title="commutative_prod">
<ellipse fill="#f070d1" stroke="#000000" cx="1281" cy="-1100.1311" rx="98.2828" ry="18"/>
<text text-anchor="middle" x="1281" y="-1096.4311" font-family="Times,serif" font-size="14.00" fill="#000000">commutative_prod</text>
</a>
</g>
</g>
<!-- Card_exp_mult_card_exp&#45;&gt;Card_commutative_prod -->
<g id="edge15" class="edge">
<title>Card_exp_mult_card_exp&#45;&gt;Card_commutative_prod</title>
<path fill="none" stroke="#000000" d="M1722.5989,-1429.2386C1634.8234,-1363.8227 1398.52,-1187.7144 1312.699,-1123.7552"/>
<polygon fill="#000000" stroke="#000000" points="1314.7469,-1120.9164 1304.6372,-1117.747 1310.5639,-1126.5291 1314.7469,-1120.9164"/>
</g>
<!-- Card_exp_mult_card_exp&#45;&gt;Card_exp_card -->
<g id="edge16" class="edge">
<title>Card_exp_mult_card_exp&#45;&gt;Card_exp_card</title>
<path fill="none" stroke="#000000" d="M1817.3502,-1432.5943C1922.9151,-1391.7821 2135.863,-1292.0946 2222,-1126.1311 2291.7286,-991.7824 2091.82,-851.6669 2007.0309,-799.9201"/>
<polygon fill="#000000" stroke="#000000" points="2008.6107,-796.7857 1998.2395,-794.6201 2004.9966,-802.7806 2008.6107,-796.7857"/>
</g>
<!-- Card_exp_card_sum_mult -->
<g id="node13" class="node">
<title>Card_exp_card_sum_mult</title>
<g id="a_node13"><a xlink:href="Card.html#exp_card_sum_mult" xlink:title="exp_card_sum_mult">
<ellipse fill="#f070d1" stroke="#000000" cx="1509" cy="-1100.1311" rx="103.9822" ry="18"/>
<ellipse fill="none" stroke="#000000" cx="1509" cy="-1100.1311" rx="107.9819" ry="22"/>
<ellipse fill="none" stroke="#000000" cx="1509" cy="-1100.1311" rx="111.9815" ry="26"/>
<text text-anchor="middle" x="1509" y="-1096.4311" font-family="Times,serif" font-size="14.00" fill="#000000">exp_card_sum_mult</text>
</a>
</g>
</g>
<!-- Card_exp_card_sum_mult&#45;&gt;Card_mult_card -->
<g id="edge17" class="edge">
<title>Card_exp_card_sum_mult&#45;&gt;Card_mult_card</title>
<path fill="none" stroke="#000000" d="M1496.7709,-1074.1343C1468.638,-1014.3284 1399.546,-867.4508 1370.835,-806.4162"/>
<polygon fill="#000000" stroke="#000000" points="1373.8532,-804.6097 1366.4294,-797.0507 1367.519,-807.5894 1373.8532,-804.6097"/>
</g>
<!-- Card_plus_card -->
<g id="node30" class="node">
<title>Card_plus_card</title>
<g id="a_node30"><a xlink:href="Card.html#plus_card" xlink:title="plus_card">
<ellipse fill="#f070d1" stroke="#000000" cx="581" cy="-779.1311" rx="55.7903" ry="18"/>
<text text-anchor="middle" x="581" y="-775.4311" font-family="Times,serif" font-size="14.00" fill="#000000">plus_card</text>
</a>
</g>
</g>
<!-- Card_exp_card_sum_mult&#45;&gt;Card_plus_card -->
<g id="edge18" class="edge">
<title>Card_exp_card_sum_mult&#45;&gt;Card_plus_card</title>
<path fill="none" stroke="#000000" d="M1446.3078,-1078.4456C1271.9996,-1018.1515 784.2274,-849.4286 629.0494,-795.7517"/>
<polygon fill="#000000" stroke="#000000" points="629.9107,-792.3462 619.3159,-792.3848 627.6223,-798.9616 629.9107,-792.3462"/>
</g>
<!-- Card_exp_card_sum_mult&#45;&gt;Card_exp_card -->
<g id="edge19" class="edge">
<title>Card_exp_card_sum_mult&#45;&gt;Card_exp_card</title>
<path fill="none" stroke="#000000" d="M1544.8679,-1075.2099C1632.5066,-1014.3181 1856.4019,-858.7545 1939.4097,-801.0802"/>
<polygon fill="#000000" stroke="#000000" points="1941.4656,-803.9137 1947.6809,-795.3334 1937.4714,-798.1651 1941.4656,-803.9137"/>
</g>
<!-- Card_exp_one_card -->
<g id="node14" class="node">
<title>Card_exp_one_card</title>
<g id="a_node14"><a xlink:href="Card.html#exp_one_card" xlink:title="exp_one_card">
<ellipse fill="#f070d1" stroke="#000000" cx="2517" cy="-1100.1311" rx="74.9639" ry="18"/>
<ellipse fill="none" stroke="#000000" cx="2517" cy="-1100.1311" rx="78.9757" ry="22"/>
<ellipse fill="none" stroke="#000000" cx="2517" cy="-1100.1311" rx="82.9875" ry="26"/>
<text text-anchor="middle" x="2517" y="-1096.4311" font-family="Times,serif" font-size="14.00" fill="#000000">exp_one_card</text>
</a>
</g>
</g>
<!-- Card_one_card -->
<g id="node27" class="node">
<title>Card_one_card</title>
<g id="a_node27"><a xlink:href="Card.html#one_card" xlink:title="one_card">
<ellipse fill="#f070d1" stroke="#000000" cx="2144" cy="-779.1311" rx="53.0913" ry="18"/>
<text text-anchor="middle" x="2144" y="-775.4311" font-family="Times,serif" font-size="14.00" fill="#000000">one_card</text>
</a>
</g>
</g>
<!-- Card_exp_one_card&#45;&gt;Card_one_card -->
<g id="edge20" class="edge">
<title>Card_exp_one_card&#45;&gt;Card_one_card</title>
<path fill="none" stroke="#000000" d="M2488.3507,-1075.4758C2418.5176,-1015.3782 2240.2263,-861.9425 2171.5486,-802.8392"/>
<polygon fill="#000000" stroke="#000000" points="2173.594,-799.9818 2163.7313,-796.1117 2169.0279,-805.2876 2173.594,-799.9818"/>
</g>
<!-- Card_exp_one_card&#45;&gt;Card_exp_card -->
<g id="edge21" class="edge">
<title>Card_exp_one_card&#45;&gt;Card_exp_card</title>
<path fill="none" stroke="#000000" d="M2477.733,-1077.0456C2375.8763,-1017.1628 2104.3323,-857.5188 2006.639,-800.0838"/>
<polygon fill="#000000" stroke="#000000" points="2008.1335,-796.9024 1997.7391,-794.8514 2004.5858,-802.9368 2008.1335,-796.9024"/>
</g>
<!-- Card_exp_card_one -->
<g id="node15" class="node">
<title>Card_exp_card_one</title>
<g id="a_node15"><a xlink:href="Card.html#exp_card_one" xlink:title="exp_card_one">
<ellipse fill="#f070d1" stroke="#000000" cx="2334" cy="-1100.1311" rx="74.9639" ry="18"/>
<ellipse fill="none" stroke="#000000" cx="2334" cy="-1100.1311" rx="78.9757" ry="22"/>
<ellipse fill="none" stroke="#000000" cx="2334" cy="-1100.1311" rx="82.9875" ry="26"/>
<text text-anchor="middle" x="2334" y="-1096.4311" font-family="Times,serif" font-size="14.00" fill="#000000">exp_card_one</text>
</a>
</g>
</g>
<!-- Card_exp_card_one&#45;&gt;Card_one_card -->
<g id="edge22" class="edge">
<title>Card_exp_card_one&#45;&gt;Card_one_card</title>
<path fill="none" stroke="#000000" d="M2318.7727,-1074.405C2283.3425,-1014.5466 2195.669,-866.4246 2159.7404,-805.7241"/>
<polygon fill="#000000" stroke="#000000" points="2162.736,-803.9136 2154.6304,-797.0909 2156.7121,-807.4792 2162.736,-803.9136"/>
</g>
<!-- Card_exp_card_one&#45;&gt;Card_exp_card -->
<g id="edge23" class="edge">
<title>Card_exp_card_one&#45;&gt;Card_exp_card</title>
<path fill="none" stroke="#000000" d="M2306.1187,-1075.4758C2238.1579,-1015.3782 2064.6465,-861.9425 1997.81,-802.8392"/>
<polygon fill="#000000" stroke="#000000" points="2000.012,-800.1142 1990.2023,-796.1117 1995.3749,-805.358 2000.012,-800.1142"/>
</g>
<!-- Card_exp_zero_card -->
<g id="node16" class="node">
<title>Card_exp_zero_card</title>
<g id="a_node16"><a xlink:href="Card.html#exp_zero_card" xlink:title="exp_zero_card">
<ellipse fill="#f070d1" stroke="#000000" cx="1971" cy="-1100.1311" rx="77.9868" ry="18"/>
<ellipse fill="none" stroke="#000000" cx="1971" cy="-1100.1311" rx="81.9865" ry="22"/>
<ellipse fill="none" stroke="#000000" cx="1971" cy="-1100.1311" rx="85.9862" ry="26"/>
<text text-anchor="middle" x="1971" y="-1096.4311" font-family="Times,serif" font-size="14.00" fill="#000000">exp_zero_card</text>
</a>
</g>
</g>
<!-- Card_exp_zero_card&#45;&gt;Card_one_card -->
<g id="edge24" class="edge">
<title>Card_exp_zero_card&#45;&gt;Card_one_card</title>
<path fill="none" stroke="#000000" d="M1984.8649,-1074.405C2017.0588,-1014.6695 2096.6263,-867.0326 2129.4658,-806.0991"/>
<polygon fill="#000000" stroke="#000000" points="2132.6575,-807.5544 2134.3208,-797.0909 2126.4954,-804.2333 2132.6575,-807.5544"/>
</g>
<!-- Card_zero_card -->
<g id="node28" class="node">
<title>Card_zero_card</title>
<g id="a_node28"><a xlink:href="Card.html#zero_card" xlink:title="zero_card">
<ellipse fill="#f070d1" stroke="#000000" cx="1055" cy="-779.1311" rx="56.59" ry="18"/>
<text text-anchor="middle" x="1055" y="-775.4311" font-family="Times,serif" font-size="14.00" fill="#000000">zero_card</text>
</a>
</g>
</g>
<!-- Card_exp_zero_card&#45;&gt;Card_zero_card -->
<g id="edge25" class="edge">
<title>Card_exp_zero_card&#45;&gt;Card_zero_card</title>
<path fill="none" stroke="#000000" d="M1914.7356,-1080.414C1748.0995,-1022.0186 1259.0653,-850.6431 1103.2676,-796.0459"/>
<polygon fill="#000000" stroke="#000000" points="1104.0892,-792.6252 1093.4943,-792.621 1101.7741,-799.2313 1104.0892,-792.6252"/>
</g>
<!-- Card_exp_zero_card&#45;&gt;Card_exp_card -->
<g id="edge26" class="edge">
<title>Card_exp_zero_card&#45;&gt;Card_exp_card</title>
<path fill="none" stroke="#000000" d="M1971,-1073.8624C1971,-1014.2533 1971,-869.1578 1971,-807.5504"/>
<polygon fill="#000000" stroke="#000000" points="1974.5001,-807.3929 1971,-797.3929 1967.5001,-807.3929 1974.5001,-807.3929"/>
</g>
<!-- Card_issemiring_card -->
<g id="node17" class="node">
<title>Card_issemiring_card</title>
<g id="a_node17"><a xlink:href="Card.html#issemiring_card" xlink:title="issemiring_card">
<ellipse fill="#f070d1" stroke="#000000" cx="781" cy="-1454.1311" rx="85.2729" ry="18"/>
<ellipse fill="none" stroke="#000000" cx="781" cy="-1454.1311" rx="89.279" ry="22"/>
<ellipse fill="none" stroke="#000000" cx="781" cy="-1454.1311" rx="93.2851" ry="26"/>
<text text-anchor="middle" x="781" y="-1450.4311" font-family="Times,serif" font-size="14.00" fill="#000000">issemiring_card</text>
</a>
</g>
</g>
<!-- Card_leftabsorb_card -->
<g id="node18" class="node">
<title>Card_leftabsorb_card</title>
<g id="a_node18"><a xlink:href="Card.html#leftabsorb_card" xlink:title="leftabsorb_card">
<ellipse fill="#f070d1" stroke="#000000" cx="885" cy="-1100.1311" rx="83.6854" ry="18"/>
<text text-anchor="middle" x="885" y="-1096.4311" font-family="Times,serif" font-size="14.00" fill="#000000">leftabsorb_card</text>
</a>
</g>
</g>
<!-- Card_issemiring_card&#45;&gt;Card_leftabsorb_card -->
<g id="edge27" class="edge">
<title>Card_issemiring_card&#45;&gt;Card_leftabsorb_card</title>
<path fill="none" stroke="#000000" d="M788.6474,-1428.1007C807.705,-1363.2315 857.1844,-1194.8111 876.8079,-1128.0158"/>
<polygon fill="#000000" stroke="#000000" points="880.2311,-1128.7806 879.6918,-1118.1995 873.5149,-1126.8075 880.2311,-1128.7806"/>
</g>
<!-- Card_leftdistributive_card -->
<g id="node19" class="node">
<title>Card_leftdistributive_card</title>
<g id="a_node19"><a xlink:href="Card.html#leftdistributive_card" xlink:title="leftdistributive_card">
<ellipse fill="#f070d1" stroke="#000000" cx="677" cy="-1100.1311" rx="106.6812" ry="18"/>
<text text-anchor="middle" x="677" y="-1096.4311" font-family="Times,serif" font-size="14.00" fill="#000000">leftdistributive_card</text>
</a>
</g>
</g>
<!-- Card_issemiring_card&#45;&gt;Card_leftdistributive_card -->
<g id="edge28" class="edge">
<title>Card_issemiring_card&#45;&gt;Card_leftdistributive_card</title>
<path fill="none" stroke="#000000" d="M773.3526,-1428.1007C754.295,-1363.2315 704.8156,-1194.8111 685.1921,-1128.0158"/>
<polygon fill="#000000" stroke="#000000" points="688.4851,-1126.8075 682.3082,-1118.1995 681.7689,-1128.7806 688.4851,-1126.8075"/>
</g>
<!-- Card_issemiring_card&#45;&gt;Card_commutative_prod -->
<g id="edge29" class="edge">
<title>Card_issemiring_card&#45;&gt;Card_commutative_prod</title>
<path fill="none" stroke="#000000" d="M815.367,-1429.7993C907.2746,-1364.7288 1157.8528,-1187.3194 1248.0756,-1123.4416"/>
<polygon fill="#000000" stroke="#000000" points="1250.1565,-1126.2568 1256.2956,-1117.6219 1246.1116,-1120.5437 1250.1565,-1126.2568"/>
</g>
<!-- Card_rightid_prod -->
<g id="node21" class="node">
<title>Card_rightid_prod</title>
<g id="a_node21"><a xlink:href="Card.html#rightid_prod" xlink:title="rightid_prod">
<ellipse fill="#f070d1" stroke="#000000" cx="2144" cy="-1100.1311" rx="68.7879" ry="18"/>
<text text-anchor="middle" x="2144" y="-1096.4311" font-family="Times,serif" font-size="14.00" fill="#000000">rightid_prod</text>
</a>
</g>
</g>
<!-- Card_issemiring_card&#45;&gt;Card_rightid_prod -->
<g id="edge30" class="edge">
<title>Card_issemiring_card&#45;&gt;Card_rightid_prod</title>
<path fill="none" stroke="#000000" d="M853.2419,-1437.6151C1049.4413,-1392.3461 1608.1815,-1260.6752 2066,-1126.1311 2074.7498,-1123.5597 2083.9906,-1120.6524 2092.9322,-1117.7369"/>
<polygon fill="#000000" stroke="#000000" points="2094.0809,-1121.0436 2102.48,-1114.5857 2091.8869,-1114.3963 2094.0809,-1121.0436"/>
</g>
<!-- Card_associative_prod -->
<g id="node22" class="node">
<title>Card_associative_prod</title>
<g id="a_node22"><a xlink:href="Card.html#associative_prod" xlink:title="associative_prod">
<ellipse fill="#f070d1" stroke="#000000" cx="1076" cy="-1100.1311" rx="89.0842" ry="18"/>
<text text-anchor="middle" x="1076" y="-1096.4311" font-family="Times,serif" font-size="14.00" fill="#000000">associative_prod</text>
</a>
</g>
</g>
<!-- Card_issemiring_card&#45;&gt;Card_associative_prod -->
<g id="edge31" class="edge">
<title>Card_issemiring_card&#45;&gt;Card_associative_prod</title>
<path fill="none" stroke="#000000" d="M802.2157,-1428.6723C856.44,-1363.6031 999.6723,-1191.7244 1054.359,-1126.1004"/>
<polygon fill="#000000" stroke="#000000" points="1057.1629,-1128.2029 1060.876,-1118.28 1051.7853,-1123.7216 1057.1629,-1128.2029"/>
</g>
<!-- Card_commutative_sum -->
<g id="node23" class="node">
<title>Card_commutative_sum</title>
<g id="a_node23"><a xlink:href="Card.html#commutative_sum" xlink:title="commutative_sum">
<ellipse fill="#f070d1" stroke="#000000" cx="112" cy="-1100.1311" rx="96.3833" ry="18"/>
<text text-anchor="middle" x="112" y="-1096.4311" font-family="Times,serif" font-size="14.00" fill="#000000">commutative_sum</text>
</a>
</g>
</g>
<!-- Card_issemiring_card&#45;&gt;Card_commutative_sum -->
<g id="edge32" class="edge">
<title>Card_issemiring_card&#45;&gt;Card_commutative_sum</title>
<path fill="none" stroke="#000000" d="M737.3631,-1431.0408C615.4773,-1366.5452 272.5584,-1185.0903 153.411,-1122.0437"/>
<polygon fill="#000000" stroke="#000000" points="154.7081,-1118.7703 144.2322,-1117.1868 151.4341,-1124.9575 154.7081,-1118.7703"/>
</g>
<!-- Card_rightid_sum -->
<g id="node24" class="node">
<title>Card_rightid_sum</title>
<g id="a_node24"><a xlink:href="Card.html#rightid_sum" xlink:title="rightid_sum">
<ellipse fill="#f070d1" stroke="#000000" cx="485" cy="-1100.1311" rx="66.8882" ry="18"/>
<text text-anchor="middle" x="485" y="-1096.4311" font-family="Times,serif" font-size="14.00" fill="#000000">rightid_sum</text>
</a>
</g>
</g>
<!-- Card_issemiring_card&#45;&gt;Card_rightid_sum -->
<g id="edge33" class="edge">
<title>Card_issemiring_card&#45;&gt;Card_rightid_sum</title>
<path fill="none" stroke="#000000" d="M759.7124,-1428.6723C705.1771,-1363.4511 560.9144,-1190.9206 506.3312,-1125.6422"/>
<polygon fill="#000000" stroke="#000000" points="508.9336,-1123.2981 499.8339,-1117.8717 503.5635,-1127.7884 508.9336,-1123.2981"/>
</g>
<!-- Card_associative_sum -->
<g id="node25" class="node">
<title>Card_associative_sum</title>
<g id="a_node25"><a xlink:href="Card.html#associative_sum" xlink:title="associative_sum">
<ellipse fill="#f070d1" stroke="#000000" cx="313" cy="-1100.1311" rx="87.1846" ry="18"/>
<text text-anchor="middle" x="313" y="-1096.4311" font-family="Times,serif" font-size="14.00" fill="#000000">associative_sum</text>
</a>
</g>
</g>
<!-- Card_issemiring_card&#45;&gt;Card_associative_sum -->
<g id="edge34" class="edge">
<title>Card_issemiring_card&#45;&gt;Card_associative_sum</title>
<path fill="none" stroke="#000000" d="M748.4627,-1429.5196C662.288,-1364.3362 428.9636,-1187.8472 344.2613,-1123.7775"/>
<polygon fill="#000000" stroke="#000000" points="346.1591,-1120.8245 336.0722,-1117.5832 341.9362,-1126.4073 346.1591,-1120.8245"/>
</g>
<!-- Card_leftabsorb_card&#45;&gt;Card_zero_card -->
<g id="edge35" class="edge">
<title>Card_leftabsorb_card&#45;&gt;Card_zero_card</title>
<path fill="none" stroke="#000000" d="M894.627,-1081.9531C923.0879,-1028.2123 1006.9456,-869.8691 1040.6919,-806.1481"/>
<polygon fill="#000000" stroke="#000000" points="1043.8914,-807.5852 1045.4786,-797.1099 1037.7053,-804.309 1043.8914,-807.5852"/>
</g>
<!-- Card_leftabsorb_card&#45;&gt;Card_mult_card -->
<g id="edge36" class="edge">
<title>Card_leftabsorb_card&#45;&gt;Card_mult_card</title>
<path fill="none" stroke="#000000" d="M910.4305,-1082.8728C990.3764,-1028.6178 1236.5709,-861.5386 1325.5174,-801.1754"/>
<polygon fill="#000000" stroke="#000000" points="1327.559,-804.0198 1333.868,-795.5082 1323.6281,-798.2277 1327.559,-804.0198"/>
</g>
<!-- Card_leftdistributive_card&#45;&gt;Card_mult_card -->
<g id="edge37" class="edge">
<title>Card_leftdistributive_card&#45;&gt;Card_mult_card</title>
<path fill="none" stroke="#000000" d="M713.1327,-1083.0994C829.4423,-1028.2751 1193.6973,-856.5778 1316.8446,-798.5304"/>
<polygon fill="#000000" stroke="#000000" points="1318.4166,-801.6588 1325.9698,-794.2291 1315.432,-795.327 1318.4166,-801.6588"/>
</g>
<!-- Card_leftdistributive_card&#45;&gt;Card_plus_card -->
<g id="edge38" class="edge">
<title>Card_leftdistributive_card&#45;&gt;Card_plus_card</title>
<path fill="none" stroke="#000000" d="M671.5636,-1081.9531C655.5576,-1028.433 608.525,-871.1679 589.3161,-806.938"/>
<polygon fill="#000000" stroke="#000000" points="592.5954,-805.6877 586.3768,-797.1099 585.8889,-807.6935 592.5954,-805.6877"/>
</g>
<!-- Card_commutative_prod&#45;&gt;Card_mult_card -->
<g id="edge39" class="edge">
<title>Card_commutative_prod&#45;&gt;Card_mult_card</title>
<path fill="none" stroke="#000000" d="M1285.3605,-1081.9531C1298.1986,-1028.433 1335.9227,-871.1679 1351.3298,-806.938"/>
<polygon fill="#000000" stroke="#000000" points="1354.7581,-807.6504 1353.6873,-797.1099 1347.9512,-806.0176 1354.7581,-807.6504"/>
</g>
<!-- Card_rightid_prod&#45;&gt;Card_one_card -->
<g id="edge40" class="edge">
<title>Card_rightid_prod&#45;&gt;Card_one_card</title>
<path fill="none" stroke="#000000" d="M2144,-1081.9531C2144,-1028.6687 2144,-872.5512 2144,-807.7921"/>
<polygon fill="#000000" stroke="#000000" points="2147.5001,-807.5077 2144,-797.5077 2140.5001,-807.5078 2147.5001,-807.5077"/>
</g>
<!-- Card_rightid_prod&#45;&gt;Card_mult_card -->
<g id="edge41" class="edge">
<title>Card_rightid_prod&#45;&gt;Card_mult_card</title>
<path fill="none" stroke="#000000" d="M2106.6184,-1084.8646C1976.5702,-1031.7533 1544.1607,-855.1586 1402.9995,-797.5088"/>
<polygon fill="#000000" stroke="#000000" points="1403.9285,-794.1076 1393.3474,-793.5669 1401.2818,-800.588 1403.9285,-794.1076"/>
</g>
<!-- Card_associative_prod&#45;&gt;Card_mult_card -->
<g id="edge42" class="edge">
<title>Card_associative_prod&#45;&gt;Card_mult_card</title>
<path fill="none" stroke="#000000" d="M1091.9695,-1081.9531C1139.5834,-1027.7543 1280.6639,-867.1627 1335.6784,-804.5398"/>
<polygon fill="#000000" stroke="#000000" points="1338.5813,-806.5385 1342.5518,-796.7158 1333.3224,-801.9186 1338.5813,-806.5385"/>
</g>
<!-- Card_commutative_sum&#45;&gt;Card_plus_card -->
<g id="edge43" class="edge">
<title>Card_commutative_sum&#45;&gt;Card_plus_card</title>
<path fill="none" stroke="#000000" d="M137.5485,-1082.6448C217.1875,-1028.1371 460.8479,-861.3675 548.8609,-801.1283"/>
<polygon fill="#000000" stroke="#000000" points="550.8483,-804.0093 557.1237,-795.4729 546.8946,-798.2328 550.8483,-804.0093"/>
</g>
<!-- Card_rightid_sum&#45;&gt;Card_zero_card -->
<g id="edge44" class="edge">
<title>Card_rightid_sum&#45;&gt;Card_zero_card</title>
<path fill="none" stroke="#000000" d="M514.05,-1083.7714C609.3904,-1030.0797 912.6674,-859.2869 1018.2981,-799.8001"/>
<polygon fill="#000000" stroke="#000000" points="1020.0246,-802.8447 1027.0205,-794.888 1016.5897,-796.7454 1020.0246,-802.8447"/>
</g>
<!-- Card_rightid_sum&#45;&gt;Card_plus_card -->
<g id="edge45" class="edge">
<title>Card_rightid_sum&#45;&gt;Card_plus_card</title>
<path fill="none" stroke="#000000" d="M490.4364,-1081.9531C506.4424,-1028.433 553.475,-871.1679 572.6839,-806.938"/>
<polygon fill="#000000" stroke="#000000" points="576.1111,-807.6935 575.6232,-797.1099 569.4046,-805.6877 576.1111,-807.6935"/>
</g>
<!-- Card_associative_sum&#45;&gt;Card_plus_card -->
<g id="edge46" class="edge">
<title>Card_associative_sum&#45;&gt;Card_plus_card</title>
<path fill="none" stroke="#000000" d="M328.1767,-1081.9531C373.4267,-1027.7543 507.5033,-867.1627 559.7866,-804.5398"/>
<polygon fill="#000000" stroke="#000000" points="562.5965,-806.6353 566.3187,-796.7158 557.2231,-802.149 562.5965,-806.6353"/>
</g>
<!-- Card_le_card&#45;&gt;Card_leq_card -->
<g id="edge47" class="edge">
<title>Card_le_card&#45;&gt;Card_leq_card</title>
<path fill="none" stroke="#000000" d="M2760.3618,-761.4156C2722.123,-707.8144 2607.5306,-547.1849 2562.4794,-484.0346"/>
<polygon fill="#000000" stroke="#000000" points="2565.2561,-481.9001 2556.5992,-475.792 2559.5575,-485.9654 2565.2561,-481.9001"/>
</g>
<!-- Card_Card -->
<g id="node36" class="node">
<title>Card_Card</title>
<g id="a_node36"><a xlink:href="Card.html#Card" xlink:title="Card">
<ellipse fill="#f070d1" stroke="#000000" cx="1511" cy="-136.1311" rx="33.5952" ry="18"/>
<text text-anchor="middle" x="1511" y="-132.4311" font-family="Times,serif" font-size="14.00" fill="#000000">Card</text>
</a>
</g>
</g>
<!-- Card_one_card&#45;&gt;Card_Card -->
<g id="edge48" class="edge">
<title>Card_one_card&#45;&gt;Card_Card</title>
<path fill="none" stroke="#000000" d="M2127.0688,-761.9325C2039.2115,-672.6872 1635.4358,-262.5328 1534.1135,-159.6098"/>
<polygon fill="#000000" stroke="#000000" points="1536.331,-156.8733 1526.8213,-152.2024 1531.3425,-161.7841 1536.331,-156.8733"/>
</g>
<!-- Card_zero_card&#45;&gt;Card_Card -->
<g id="edge49" class="edge">
<title>Card_zero_card&#45;&gt;Card_Card</title>
<path fill="none" stroke="#000000" d="M1085.3822,-763.9016C1156.4956,-726.6229 1334.5002,-623.5538 1424,-484.1311 1441.5915,-456.7271 1488.5143,-241.7948 1505.0954,-164.0639"/>
<polygon fill="#000000" stroke="#000000" points="1508.5704,-164.5495 1507.2275,-154.0401 1501.7235,-163.0931 1508.5704,-164.5495"/>
</g>
<!-- Card_prod_card -->
<g id="node33" class="node">
<title>Card_prod_card</title>
<g id="a_node33"><a xlink:href="Card.html#prod_card" xlink:title="prod_card">
<ellipse fill="#f070d1" stroke="#000000" cx="1511" cy="-458.1311" rx="57.6901" ry="18"/>
<text text-anchor="middle" x="1511" y="-454.4311" font-family="Times,serif" font-size="14.00" fill="#000000">prod_card</text>
</a>
</g>
</g>
<!-- Card_mult_card&#45;&gt;Card_prod_card -->
<g id="edge50" class="edge">
<title>Card_mult_card&#45;&gt;Card_prod_card</title>
<path fill="none" stroke="#000000" d="M1366.6643,-760.9531C1392.2791,-707.2123 1467.7511,-548.8691 1498.1227,-485.1481"/>
<polygon fill="#000000" stroke="#000000" points="1501.2875,-486.6429 1502.4307,-476.1099 1494.9686,-483.631 1501.2875,-486.6429"/>
</g>
<!-- Card_sum_card -->
<g id="node34" class="node">
<title>Card_sum_card</title>
<g id="a_node34"><a xlink:href="Card.html#sum_card" xlink:title="sum_card">
<ellipse fill="#f070d1" stroke="#000000" cx="1359" cy="-458.1311" rx="55.7903" ry="18"/>
<text text-anchor="middle" x="1359" y="-454.4311" font-family="Times,serif" font-size="14.00" fill="#000000">sum_card</text>
</a>
</g>
</g>
<!-- Card_plus_card&#45;&gt;Card_sum_card -->
<g id="edge51" class="edge">
<title>Card_plus_card&#45;&gt;Card_sum_card</title>
<path fill="none" stroke="#000000" d="M615.4335,-764.924C741.076,-713.0844 1174.799,-534.1318 1314.9488,-476.3065"/>
<polygon fill="#000000" stroke="#000000" points="1316.6149,-479.4054 1324.524,-472.3558 1313.945,-472.9345 1316.6149,-479.4054"/>
</g>
<!-- Card_leq_card&#45;&gt;Card_Card -->
<g id="edge52" class="edge">
<title>Card_leq_card&#45;&gt;Card_Card</title>
<path fill="none" stroke="#000000" d="M2505.7008,-446.1928C2343.507,-395.6348 1714.0425,-199.4222 1550.1762,-148.3429"/>
<polygon fill="#000000" stroke="#000000" points="1551.0929,-144.9626 1540.5043,-145.328 1549.0097,-151.6455 1551.0929,-144.9626"/>
</g>
<!-- Card_exp_card&#45;&gt;Card_Card -->
<g id="edge53" class="edge">
<title>Card_exp_card&#45;&gt;Card_Card</title>
<path fill="none" stroke="#000000" d="M1958.4575,-761.599C1894.4519,-672.1302 1604.3234,-266.581 1528.9414,-161.2102"/>
<polygon fill="#000000" stroke="#000000" points="1531.7678,-159.1455 1523.1029,-153.0488 1526.0747,-163.2184 1531.7678,-159.1455"/>
</g>
<!-- Card_prod_card&#45;&gt;Card_Card -->
<g id="edge54" class="edge">
<title>Card_prod_card&#45;&gt;Card_Card</title>
<path fill="none" stroke="#000000" d="M1511,-439.8964C1511,-386.3204 1511,-229.1047 1511,-164.4243"/>
<polygon fill="#000000" stroke="#000000" points="1514.5001,-164.1658 1511,-154.1659 1507.5001,-164.1659 1514.5001,-164.1658"/>
</g>
<!-- Card_sum_card&#45;&gt;Card_Card -->
<g id="edge55" class="edge">
<title>Card_sum_card&#45;&gt;Card_Card</title>
<path fill="none" stroke="#000000" d="M1367.6077,-439.8964C1393.0624,-385.9727 1468.0771,-227.0599 1498.2331,-163.1769"/>
<polygon fill="#000000" stroke="#000000" points="1501.5695,-164.3078 1502.6733,-153.7706 1495.2394,-161.3196 1501.5695,-164.3078"/>
</g>
<!-- Card_card -->
<g id="node35" class="node">
<title>Card_card</title>
<g id="a_node35"><a xlink:href="Card.html#card" xlink:title="card">
<ellipse fill="#f070d1" stroke="#000000" cx="1245" cy="-458.1311" rx="31.7255" ry="18"/>
<ellipse fill="none" stroke="#000000" cx="1245" cy="-458.1311" rx="35.7102" ry="22"/>
<ellipse fill="none" stroke="#000000" cx="1245" cy="-458.1311" rx="39.6949" ry="26"/>
<text text-anchor="middle" x="1245" y="-454.4311" font-family="Times,serif" font-size="14.00" fill="#000000">card</text>
</a>
</g>
</g>
<!-- Card_card&#45;&gt;Card_Card -->
<g id="edge56" class="edge">
<title>Card_card&#45;&gt;Card_Card</title>
<path fill="none" stroke="#000000" d="M1263.9168,-435.2318C1312.4348,-376.4996 1440.9763,-220.8967 1490.8358,-160.5405"/>
<polygon fill="#000000" stroke="#000000" points="1493.662,-162.6148 1497.3325,-152.6761 1488.2652,-158.1566 1493.662,-162.6148"/>
</g>
</g>
</svg>
