<?xml version="1.0" encoding="UTF-8" standalone="no"?>
<!DOCTYPE svg PUBLIC "-//W3C//DTD SVG 1.1//EN"
 "http://www.w3.org/Graphics/SVG/1.1/DTD/svg11.dtd">
<!-- Generated by graphviz version 2.40.1 (20161225.0304)
 -->
<!-- Title: HoTT_Algebra_Rings_QuotientRing Pages: 1 -->
<svg width="1262pt" height="635pt"
 viewBox="0.00 0.00 1262.00 635.00" xmlns="http://www.w3.org/2000/svg" xmlns:xlink="http://www.w3.org/1999/xlink">
<g id="graph0" class="graph" transform="scale(1 1) rotate(0) translate(4 631)">
<title>HoTT_Algebra_Rings_QuotientRing</title>
<polygon fill="#ffffff" stroke="transparent" points="-4,4 -4,-631 1258,-631 1258,4 -4,4"/>
<g id="clust1" class="cluster">
<title>cluster_QuotientRing</title>
<polygon fill="#ffffc3" stroke="#000000" points="10.2159,-8 10.2159,-619 1243.7841,-619 1243.7841,-8 10.2159,-8"/>
<text text-anchor="middle" x="66.7159" y="-603.8" font-family="Times,serif" font-size="14.00" fill="#000000">QuotientRing</text>
</g>
<!-- QuotientRing_rng_first_iso_ -->
<g id="node1" class="node">
<title>QuotientRing_rng_first_iso_</title>
<g id="a_node1"><a xlink:href="QuotientRing.html#rng_first_iso'" xlink:title="rng_first_iso&#39;">
<ellipse fill="#f070d1" stroke="#000000" cx="927.0367" cy="-562" rx="71.488" ry="18"/>
<ellipse fill="none" stroke="#000000" cx="927.0367" cy="-562" rx="75.4876" ry="22"/>
<ellipse fill="none" stroke="#000000" cx="927.0367" cy="-562" rx="79.4873" ry="26"/>
<text text-anchor="middle" x="927.0367" y="-558.3" font-family="Times,serif" font-size="14.00" fill="#000000">rng_first_iso&#39;</text>
</a>
</g>
</g>
<!-- QuotientRing_rng_quotient_invar -->
<g id="node2" class="node">
<title>QuotientRing_rng_quotient_invar</title>
<g id="a_node2"><a xlink:href="QuotientRing.html#rng_quotient_invar" xlink:title="rng_quotient_invar">
<ellipse fill="#f070d1" stroke="#000000" cx="808.0367" cy="-482" rx="99.3824" ry="18"/>
<text text-anchor="middle" x="808.0367" y="-478.3" font-family="Times,serif" font-size="14.00" fill="#000000">rng_quotient_invar</text>
</a>
</g>
</g>
<!-- QuotientRing_rng_first_iso_&#45;&gt;QuotientRing_rng_quotient_invar -->
<g id="edge1" class="edge">
<title>QuotientRing_rng_first_iso_&#45;&gt;QuotientRing_rng_quotient_invar</title>
<path fill="none" stroke="#000000" d="M891.9764,-538.4301C876.3578,-527.9302 858.02,-515.6022 842.4748,-505.1517"/>
<polygon fill="#000000" stroke="#000000" points="844.4126,-502.2371 834.1609,-499.5625 840.5072,-508.0464 844.4126,-502.2371"/>
</g>
<!-- QuotientRing_rng_first_iso -->
<g id="node3" class="node">
<title>QuotientRing_rng_first_iso</title>
<g id="a_node3"><a xlink:href="QuotientRing.html#rng_first_iso" xlink:title="rng_first_iso">
<ellipse fill="#f070d1" stroke="#000000" cx="1047.0367" cy="-482" rx="69.5877" ry="18"/>
<text text-anchor="middle" x="1047.0367" y="-478.3" font-family="Times,serif" font-size="14.00" fill="#000000">rng_first_iso</text>
</a>
</g>
</g>
<!-- QuotientRing_rng_first_iso_&#45;&gt;QuotientRing_rng_first_iso -->
<g id="edge2" class="edge">
<title>QuotientRing_rng_first_iso_&#45;&gt;QuotientRing_rng_first_iso</title>
<path fill="none" stroke="#000000" d="M962.0682,-538.6456C978.1783,-527.9056 997.2113,-515.2169 1013.1756,-504.5741"/>
<polygon fill="#000000" stroke="#000000" points="1015.3118,-507.3564 1021.6909,-498.8972 1011.4289,-501.5321 1015.3118,-507.3564"/>
</g>
<!-- QuotientRing_QuotientRing_ind_hprop -->
<g id="node4" class="node">
<title>QuotientRing_QuotientRing_ind_hprop</title>
<g id="a_node4"><a xlink:href="QuotientRing.html#QuotientRing_ind_hprop" xlink:title="QuotientRing_ind_hprop">
<ellipse fill="#f070d1" stroke="#000000" cx="950.0367" cy="-402" rx="124.5782" ry="18"/>
<text text-anchor="middle" x="950.0367" y="-398.3" font-family="Times,serif" font-size="14.00" fill="#000000">QuotientRing_ind_hprop</text>
</a>
</g>
</g>
<!-- QuotientRing_rng_quotient_invar&#45;&gt;QuotientRing_QuotientRing_ind_hprop -->
<g id="edge3" class="edge">
<title>QuotientRing_rng_quotient_invar&#45;&gt;QuotientRing_QuotientRing_ind_hprop</title>
<path fill="none" stroke="#000000" d="M838.4992,-464.838C859.3626,-453.084 887.2491,-437.3733 909.9187,-424.6017"/>
<polygon fill="#000000" stroke="#000000" points="911.6475,-427.645 918.642,-419.6871 908.2115,-421.5463 911.6475,-427.645"/>
</g>
<!-- QuotientRing_rng_first_iso&#45;&gt;QuotientRing_QuotientRing_ind_hprop -->
<g id="edge4" class="edge">
<title>QuotientRing_rng_first_iso&#45;&gt;QuotientRing_QuotientRing_ind_hprop</title>
<path fill="none" stroke="#000000" d="M1025.9891,-464.6412C1012.4492,-453.4743 994.6531,-438.797 979.6907,-426.4569"/>
<polygon fill="#000000" stroke="#000000" points="981.6565,-423.5414 971.7148,-419.8789 977.2026,-428.9417 981.6565,-423.5414"/>
</g>
<!-- QuotientRing_rng_quotient_map -->
<g id="node7" class="node">
<title>QuotientRing_rng_quotient_map</title>
<g id="a_node7"><a xlink:href="QuotientRing.html#rng_quotient_map" xlink:title="rng_quotient_map">
<ellipse fill="#f070d1" stroke="#000000" cx="638.0367" cy="-322" rx="95.5831" ry="18"/>
<text text-anchor="middle" x="638.0367" y="-318.3" font-family="Times,serif" font-size="14.00" fill="#000000">rng_quotient_map</text>
</a>
</g>
</g>
<!-- QuotientRing_QuotientRing_ind_hprop&#45;&gt;QuotientRing_rng_quotient_map -->
<g id="edge5" class="edge">
<title>QuotientRing_QuotientRing_ind_hprop&#45;&gt;QuotientRing_rng_quotient_map</title>
<path fill="none" stroke="#000000" d="M888.7678,-386.29C835.7237,-372.689 759.1625,-353.0579 704.6193,-339.0725"/>
<polygon fill="#000000" stroke="#000000" points="705.2578,-335.623 694.7018,-336.5295 703.5191,-342.4037 705.2578,-335.623"/>
</g>
<!-- QuotientRing_QuotientRing_ind -->
<g id="node5" class="node">
<title>QuotientRing_QuotientRing_ind</title>
<g id="a_node5"><a xlink:href="QuotientRing.html#QuotientRing_ind" xlink:title="QuotientRing_ind">
<ellipse fill="#f070d1" stroke="#000000" cx="638.0367" cy="-402" rx="92.8882" ry="18"/>
<ellipse fill="none" stroke="#000000" cx="638.0367" cy="-402" rx="96.8858" ry="22"/>
<ellipse fill="none" stroke="#000000" cx="638.0367" cy="-402" rx="100.8835" ry="26"/>
<text text-anchor="middle" x="638.0367" y="-398.3" font-family="Times,serif" font-size="14.00" fill="#000000">QuotientRing_ind</text>
</a>
</g>
</g>
<!-- QuotientRing_QuotientRing_ind&#45;&gt;QuotientRing_rng_quotient_map -->
<g id="edge6" class="edge">
<title>QuotientRing_QuotientRing_ind&#45;&gt;QuotientRing_rng_quotient_map</title>
<path fill="none" stroke="#000000" d="M638.0367,-375.805C638.0367,-367.6026 638.0367,-358.5174 638.0367,-350.1839"/>
<polygon fill="#000000" stroke="#000000" points="641.5368,-350.1532 638.0367,-340.1532 634.5368,-350.1533 641.5368,-350.1532"/>
</g>
<!-- QuotientRing_issurj_rng_quotient_map -->
<g id="node6" class="node">
<title>QuotientRing_issurj_rng_quotient_map</title>
<g id="a_node6"><a xlink:href="QuotientRing.html#issurj_rng_quotient_map" xlink:title="issurj_rng_quotient_map">
<ellipse fill="#f070d1" stroke="#000000" cx="315.0367" cy="-402" rx="126.1724" ry="18"/>
<ellipse fill="none" stroke="#000000" cx="315.0367" cy="-402" rx="130.175" ry="22"/>
<ellipse fill="none" stroke="#000000" cx="315.0367" cy="-402" rx="134.1777" ry="26"/>
<text text-anchor="middle" x="315.0367" y="-398.3" font-family="Times,serif" font-size="14.00" fill="#000000">issurj_rng_quotient_map</text>
</a>
</g>
</g>
<!-- QuotientRing_issurj_rng_quotient_map&#45;&gt;QuotientRing_rng_quotient_map -->
<g id="edge7" class="edge">
<title>QuotientRing_issurj_rng_quotient_map&#45;&gt;QuotientRing_rng_quotient_map</title>
<path fill="none" stroke="#000000" d="M397.7977,-381.5019C451.2437,-368.2645 519.9218,-351.2545 570.1493,-338.8142"/>
<polygon fill="#000000" stroke="#000000" points="571.0736,-342.1911 579.9388,-336.3896 569.3907,-335.3964 571.0736,-342.1911"/>
</g>
<!-- QuotientRing_QuotientRing -->
<g id="node8" class="node">
<title>QuotientRing_QuotientRing</title>
<g id="a_node8"><a xlink:href="QuotientRing.html#QuotientRing" xlink:title="QuotientRing">
<ellipse fill="#f070d1" stroke="#000000" cx="638.0367" cy="-250" rx="73.387" ry="18"/>
<text text-anchor="middle" x="638.0367" y="-246.3" font-family="Times,serif" font-size="14.00" fill="#000000">QuotientRing</text>
</a>
</g>
</g>
<!-- QuotientRing_rng_quotient_map&#45;&gt;QuotientRing_QuotientRing -->
<g id="edge8" class="edge">
<title>QuotientRing_rng_quotient_map&#45;&gt;QuotientRing_QuotientRing</title>
<path fill="none" stroke="#000000" d="M638.0367,-303.8314C638.0367,-296.131 638.0367,-286.9743 638.0367,-278.4166"/>
<polygon fill="#000000" stroke="#000000" points="641.5368,-278.4132 638.0367,-268.4133 634.5368,-278.4133 641.5368,-278.4132"/>
</g>
<!-- QuotientRing_isring_quotient_abgroup -->
<g id="node9" class="node">
<title>QuotientRing_isring_quotient_abgroup</title>
<g id="a_node9"><a xlink:href="QuotientRing.html#isring_quotient_abgroup" xlink:title="isring_quotient_abgroup">
<ellipse fill="#f070d1" stroke="#000000" cx="638.0367" cy="-178" rx="124.5782" ry="18"/>
<text text-anchor="middle" x="638.0367" y="-174.3" font-family="Times,serif" font-size="14.00" fill="#000000">isring_quotient_abgroup</text>
</a>
</g>
</g>
<!-- QuotientRing_QuotientRing&#45;&gt;QuotientRing_isring_quotient_abgroup -->
<g id="edge9" class="edge">
<title>QuotientRing_QuotientRing&#45;&gt;QuotientRing_isring_quotient_abgroup</title>
<path fill="none" stroke="#000000" d="M638.0367,-231.8314C638.0367,-224.131 638.0367,-214.9743 638.0367,-206.4166"/>
<polygon fill="#000000" stroke="#000000" points="641.5368,-206.4132 638.0367,-196.4133 634.5368,-206.4133 641.5368,-206.4132"/>
</g>
<!-- QuotientRing_one_quotient_abgroup -->
<g id="node10" class="node">
<title>QuotientRing_one_quotient_abgroup</title>
<g id="a_node10"><a xlink:href="QuotientRing.html#one_quotient_abgroup" xlink:title="one_quotient_abgroup">
<ellipse fill="#f070d1" stroke="#000000" cx="166.0367" cy="-106" rx="114.2798" ry="18"/>
<text text-anchor="middle" x="166.0367" y="-102.3" font-family="Times,serif" font-size="14.00" fill="#000000">one_quotient_abgroup</text>
</a>
</g>
</g>
<!-- QuotientRing_isring_quotient_abgroup&#45;&gt;QuotientRing_one_quotient_abgroup -->
<g id="edge10" class="edge">
<title>QuotientRing_isring_quotient_abgroup&#45;&gt;QuotientRing_one_quotient_abgroup</title>
<path fill="none" stroke="#000000" d="M552.2874,-164.9196C469.1986,-152.245 343.5741,-133.082 258.3349,-120.0794"/>
<polygon fill="#000000" stroke="#000000" points="258.8186,-116.6128 248.4051,-118.5647 257.7629,-123.5327 258.8186,-116.6128"/>
</g>
<!-- QuotientRing_zero_quotient_abgroup -->
<g id="node11" class="node">
<title>QuotientRing_zero_quotient_abgroup</title>
<g id="a_node11"><a xlink:href="QuotientRing.html#zero_quotient_abgroup" xlink:title="zero_quotient_abgroup">
<ellipse fill="#f070d1" stroke="#000000" cx="486.0367" cy="-106" rx="118.0794" ry="18"/>
<text text-anchor="middle" x="486.0367" y="-102.3" font-family="Times,serif" font-size="14.00" fill="#000000">zero_quotient_abgroup</text>
</a>
</g>
</g>
<!-- QuotientRing_isring_quotient_abgroup&#45;&gt;QuotientRing_zero_quotient_abgroup -->
<g id="edge11" class="edge">
<title>QuotientRing_isring_quotient_abgroup&#45;&gt;QuotientRing_zero_quotient_abgroup</title>
<path fill="none" stroke="#000000" d="M601.6289,-160.7542C580.649,-150.8164 554.0844,-138.2332 531.713,-127.6362"/>
<polygon fill="#000000" stroke="#000000" points="532.9462,-124.3475 522.4105,-123.2297 529.9495,-130.6737 532.9462,-124.3475"/>
</g>
<!-- QuotientRing_mult_quotient_group -->
<g id="node12" class="node">
<title>QuotientRing_mult_quotient_group</title>
<g id="a_node12"><a xlink:href="QuotientRing.html#mult_quotient_group" xlink:title="mult_quotient_group">
<ellipse fill="#f070d1" stroke="#000000" cx="799.0367" cy="-106" rx="108.5808" ry="18"/>
<text text-anchor="middle" x="799.0367" y="-102.3" font-family="Times,serif" font-size="14.00" fill="#000000">mult_quotient_group</text>
</a>
</g>
</g>
<!-- QuotientRing_isring_quotient_abgroup&#45;&gt;QuotientRing_mult_quotient_group -->
<g id="edge12" class="edge">
<title>QuotientRing_isring_quotient_abgroup&#45;&gt;QuotientRing_mult_quotient_group</title>
<path fill="none" stroke="#000000" d="M676.6002,-160.7542C699.1849,-150.6542 727.8797,-137.8217 751.8124,-127.1189"/>
<polygon fill="#000000" stroke="#000000" points="753.366,-130.2583 761.0659,-122.9807 750.5083,-123.8681 753.366,-130.2583"/>
</g>
<!-- QuotientRing_plus_quotient_group -->
<g id="node14" class="node">
<title>QuotientRing_plus_quotient_group</title>
<g id="a_node14"><a xlink:href="QuotientRing.html#plus_quotient_group" xlink:title="plus_quotient_group">
<ellipse fill="#f070d1" stroke="#000000" cx="1097.0367" cy="-106" rx="106.6812" ry="18"/>
<text text-anchor="middle" x="1097.0367" y="-102.3" font-family="Times,serif" font-size="14.00" fill="#000000">plus_quotient_group</text>
</a>
</g>
</g>
<!-- QuotientRing_isring_quotient_abgroup&#45;&gt;QuotientRing_plus_quotient_group -->
<g id="edge13" class="edge">
<title>QuotientRing_isring_quotient_abgroup&#45;&gt;QuotientRing_plus_quotient_group</title>
<path fill="none" stroke="#000000" d="M722.7592,-164.7102C804.0719,-151.9553 926.3667,-132.7718 1008.8266,-119.8369"/>
<polygon fill="#000000" stroke="#000000" points="1009.5941,-123.2594 1018.9309,-118.2519 1008.5092,-116.3439 1009.5941,-123.2594"/>
</g>
<!-- QuotientRing_iscong_mult_incosetL -->
<g id="node13" class="node">
<title>QuotientRing_iscong_mult_incosetL</title>
<g id="a_node13"><a xlink:href="QuotientRing.html#iscong_mult_incosetL" xlink:title="iscong_mult_incosetL">
<ellipse fill="#f070d1" stroke="#000000" cx="799.0367" cy="-34" rx="112.3801" ry="18"/>
<text text-anchor="middle" x="799.0367" y="-30.3" font-family="Times,serif" font-size="14.00" fill="#000000">iscong_mult_incosetL</text>
</a>
</g>
</g>
<!-- QuotientRing_mult_quotient_group&#45;&gt;QuotientRing_iscong_mult_incosetL -->
<g id="edge14" class="edge">
<title>QuotientRing_mult_quotient_group&#45;&gt;QuotientRing_iscong_mult_incosetL</title>
<path fill="none" stroke="#000000" d="M799.0367,-87.8314C799.0367,-80.131 799.0367,-70.9743 799.0367,-62.4166"/>
<polygon fill="#000000" stroke="#000000" points="802.5368,-62.4132 799.0367,-52.4133 795.5368,-62.4133 802.5368,-62.4132"/>
</g>
</g>
</svg>
