<?xml version="1.0" encoding="UTF-8" standalone="no"?>
<!DOCTYPE svg PUBLIC "-//W3C//DTD SVG 1.1//EN"
 "http://www.w3.org/Graphics/SVG/1.1/DTD/svg11.dtd">
<!-- Generated by graphviz version 2.40.1 (20161225.0304)
 -->
<!-- Title: HoTT_Classes_implementations_assume_rationals Pages: 1 -->
<svg width="1351pt" height="680pt"
 viewBox="0.00 0.00 1351.00 679.50" xmlns="http://www.w3.org/2000/svg" xmlns:xlink="http://www.w3.org/1999/xlink">
<g id="graph0" class="graph" transform="scale(1 1) rotate(0) translate(4 675.5)">
<title>HoTT_Classes_implementations_assume_rationals</title>
<polygon fill="#ffffff" stroke="transparent" points="-4,4 -4,-675.5 1347,-675.5 1347,4 -4,4"/>
<g id="clust1" class="cluster">
<title>cluster_assume_rationals</title>
<polygon fill="#ffffc3" stroke="#000000" points="8,-20.1199 8,-651.3801 1335,-651.3801 1335,-20.1199 8,-20.1199"/>
<text text-anchor="middle" x="78.5" y="-636.1801" font-family="Times,serif" font-size="14.00" fill="#000000">assume_rationals</text>
</g>
<!-- assume_rationals_Qenum -->
<g id="node1" class="node">
<title>assume_rationals_Qenum</title>
<g id="a_node1"><a xlink:href="assume_rationals.html#Qenum" xlink:title="Qenum">
<ellipse fill="#facdef" stroke="#000000" cx="1275" cy="-287.1199" rx="44.3627" ry="18"/>
<ellipse fill="none" stroke="#000000" cx="1275" cy="-287.1199" rx="48.3778" ry="22"/>
<ellipse fill="none" stroke="#000000" cx="1275" cy="-287.1199" rx="52.3929" ry="26"/>
<text text-anchor="middle" x="1275" y="-283.4199" font-family="Times,serif" font-size="14.00" fill="#000000">Qenum</text>
</a>
</g>
</g>
<!-- assume_rationals_Q -->
<g id="node20" class="node">
<title>assume_rationals_Q</title>
<g id="a_node20"><a xlink:href="assume_rationals.html#Q" xlink:title="Q">
<ellipse fill="#facdef" stroke="#000000" cx="665" cy="-85.1199" rx="27" ry="18"/>
<text text-anchor="middle" x="665" y="-81.4199" font-family="Times,serif" font-size="14.00" fill="#000000">Q</text>
</a>
</g>
</g>
<!-- assume_rationals_Qenum&#45;&gt;assume_rationals_Q -->
<g id="edge1" class="edge">
<title>assume_rationals_Qenum&#45;&gt;assume_rationals_Q</title>
<path fill="none" stroke="#000000" d="M1235.839,-269.796C1228.6234,-266.7848 1221.1201,-263.772 1214,-261.1199 1022.2772,-189.7043 786.7099,-120.1264 699.5464,-94.9821"/>
<polygon fill="#000000" stroke="#000000" points="700.4808,-91.609 689.9029,-92.2071 698.545,-98.3361 700.4808,-91.609"/>
</g>
<!-- assume_rationals_Qabs -->
<g id="node2" class="node">
<title>assume_rationals_Qabs</title>
<g id="a_node2"><a xlink:href="assume_rationals.html#Qabs" xlink:title="Qabs">
<ellipse fill="#facdef" stroke="#000000" cx="781" cy="-508.1199" rx="34.4039" ry="18"/>
<ellipse fill="none" stroke="#000000" cx="781" cy="-508.1199" rx="38.3989" ry="22"/>
<ellipse fill="none" stroke="#000000" cx="781" cy="-508.1199" rx="42.394" ry="26"/>
<text text-anchor="middle" x="781" y="-504.4199" font-family="Times,serif" font-size="14.00" fill="#000000">Qabs</text>
</a>
</g>
</g>
<!-- assume_rationals_Qle -->
<g id="node12" class="node">
<title>assume_rationals_Qle</title>
<g id="a_node12"><a xlink:href="assume_rationals.html#Qle" xlink:title="Qle">
<ellipse fill="#facdef" stroke="#000000" cx="882" cy="-287.1199" rx="27" ry="18"/>
<text text-anchor="middle" x="882" y="-283.4199" font-family="Times,serif" font-size="14.00" fill="#000000">Qle</text>
</a>
</g>
</g>
<!-- assume_rationals_Qabs&#45;&gt;assume_rationals_Qle -->
<g id="edge2" class="edge">
<title>assume_rationals_Qabs&#45;&gt;assume_rationals_Qle</title>
<path fill="none" stroke="#000000" d="M792.586,-482.7683C811.8143,-440.6945 850.1409,-356.8314 869.7801,-313.8585"/>
<polygon fill="#000000" stroke="#000000" points="873.0381,-315.1499 874.0114,-304.5998 866.6714,-312.2402 873.0381,-315.1499"/>
</g>
<!-- assume_rationals_Qneg -->
<g id="node14" class="node">
<title>assume_rationals_Qneg</title>
<g id="a_node14"><a xlink:href="assume_rationals.html#Qneg" xlink:title="Qneg">
<ellipse fill="#facdef" stroke="#000000" cx="707" cy="-287.1199" rx="35.9954" ry="18"/>
<text text-anchor="middle" x="707" y="-283.4199" font-family="Times,serif" font-size="14.00" fill="#000000">Qneg</text>
</a>
</g>
</g>
<!-- assume_rationals_Qabs&#45;&gt;assume_rationals_Qneg -->
<g id="edge3" class="edge">
<title>assume_rationals_Qabs&#45;&gt;assume_rationals_Qneg</title>
<path fill="none" stroke="#000000" d="M772.3664,-482.3358C758.3186,-440.3821 730.6368,-357.7107 716.2197,-314.6543"/>
<polygon fill="#000000" stroke="#000000" points="719.516,-313.4754 713.0219,-305.1042 712.8782,-315.6981 719.516,-313.4754"/>
</g>
<!-- assume_rationals_Qzero -->
<g id="node16" class="node">
<title>assume_rationals_Qzero</title>
<g id="a_node16"><a xlink:href="assume_rationals.html#Qzero" xlink:title="Qzero">
<ellipse fill="#facdef" stroke="#000000" cx="799" cy="-287.1199" rx="38.1938" ry="18"/>
<text text-anchor="middle" x="799" y="-283.4199" font-family="Times,serif" font-size="14.00" fill="#000000">Qzero</text>
</a>
</g>
</g>
<!-- assume_rationals_Qabs&#45;&gt;assume_rationals_Qzero -->
<g id="edge4" class="edge">
<title>assume_rationals_Qabs&#45;&gt;assume_rationals_Qzero</title>
<path fill="none" stroke="#000000" d="M783.1355,-481.9004C786.5438,-440.0548 793.1856,-358.5081 796.6967,-315.3994"/>
<polygon fill="#000000" stroke="#000000" points="800.1946,-315.5664 797.518,-305.3153 793.2177,-314.9981 800.1946,-315.5664"/>
</g>
<!-- assume_rationals_Qle_total -->
<g id="node3" class="node">
<title>assume_rationals_Qle_total</title>
<g id="a_node3"><a xlink:href="assume_rationals.html#Qle_total" xlink:title="Qle_total">
<ellipse fill="#facdef" stroke="#000000" cx="903" cy="-508.1199" rx="53.1179" ry="18"/>
<ellipse fill="none" stroke="#000000" cx="903" cy="-508.1199" rx="57.1045" ry="22"/>
<ellipse fill="none" stroke="#000000" cx="903" cy="-508.1199" rx="61.0912" ry="26"/>
<text text-anchor="middle" x="903" y="-504.4199" font-family="Times,serif" font-size="14.00" fill="#000000">Qle_total</text>
</a>
</g>
</g>
<!-- assume_rationals_Qle_total&#45;&gt;assume_rationals_Qle -->
<g id="edge5" class="edge">
<title>assume_rationals_Qle_total&#45;&gt;assume_rationals_Qle</title>
<path fill="none" stroke="#000000" d="M900.5086,-481.9004C896.5323,-440.0548 888.7835,-358.5081 884.6872,-315.3994"/>
<polygon fill="#000000" stroke="#000000" points="888.1593,-314.9393 883.729,-305.3153 881.1907,-315.6016 888.1593,-314.9393"/>
</g>
<!-- assume_rationals_Qlattice -->
<g id="node4" class="node">
<title>assume_rationals_Qlattice</title>
<g id="a_node4"><a xlink:href="assume_rationals.html#Qlattice" xlink:title="Qlattice">
<ellipse fill="#facdef" stroke="#000000" cx="1067" cy="-508.1199" rx="48.178" ry="18"/>
<ellipse fill="none" stroke="#000000" cx="1067" cy="-508.1199" rx="52.1848" ry="22"/>
<ellipse fill="none" stroke="#000000" cx="1067" cy="-508.1199" rx="56.1916" ry="26"/>
<text text-anchor="middle" x="1067" y="-504.4199" font-family="Times,serif" font-size="14.00" fill="#000000">Qlattice</text>
</a>
</g>
</g>
<!-- assume_rationals_Qjoin -->
<g id="node5" class="node">
<title>assume_rationals_Qjoin</title>
<g id="a_node5"><a xlink:href="assume_rationals.html#Qjoin" xlink:title="Qjoin">
<ellipse fill="#facdef" stroke="#000000" cx="1067" cy="-287.1199" rx="35.9954" ry="18"/>
<text text-anchor="middle" x="1067" y="-283.4199" font-family="Times,serif" font-size="14.00" fill="#000000">Qjoin</text>
</a>
</g>
</g>
<!-- assume_rationals_Qlattice&#45;&gt;assume_rationals_Qjoin -->
<g id="edge6" class="edge">
<title>assume_rationals_Qlattice&#45;&gt;assume_rationals_Qjoin</title>
<path fill="none" stroke="#000000" d="M1067,-481.9004C1067,-440.0548 1067,-358.5081 1067,-315.3994"/>
<polygon fill="#000000" stroke="#000000" points="1070.5001,-315.3152 1067,-305.3153 1063.5001,-315.3153 1070.5001,-315.3152"/>
</g>
<!-- assume_rationals_Qmeet -->
<g id="node6" class="node">
<title>assume_rationals_Qmeet</title>
<g id="a_node6"><a xlink:href="assume_rationals.html#Qmeet" xlink:title="Qmeet">
<ellipse fill="#facdef" stroke="#000000" cx="1163" cy="-287.1199" rx="42.4939" ry="18"/>
<text text-anchor="middle" x="1163" y="-283.4199" font-family="Times,serif" font-size="14.00" fill="#000000">Qmeet</text>
</a>
</g>
</g>
<!-- assume_rationals_Qlattice&#45;&gt;assume_rationals_Qmeet -->
<g id="edge7" class="edge">
<title>assume_rationals_Qlattice&#45;&gt;assume_rationals_Qmeet</title>
<path fill="none" stroke="#000000" d="M1078.2003,-482.3358C1096.463,-440.2936 1132.4877,-357.3617 1151.1575,-314.3823"/>
<polygon fill="#000000" stroke="#000000" points="1154.4137,-315.6707 1155.1878,-305.1042 1147.9933,-312.8817 1154.4137,-315.6707"/>
</g>
<!-- assume_rationals_Qlattice&#45;&gt;assume_rationals_Qle -->
<g id="edge8" class="edge">
<title>assume_rationals_Qlattice&#45;&gt;assume_rationals_Qle</title>
<path fill="none" stroke="#000000" d="M1046.4949,-483.6246C1010.6872,-440.8488 937.2099,-353.0733 901.8601,-310.8447"/>
<polygon fill="#000000" stroke="#000000" points="904.4237,-308.4544 895.321,-303.0331 899.0561,-312.9477 904.4237,-308.4544"/>
</g>
<!-- assume_rationals_Qjoin&#45;&gt;assume_rationals_Q -->
<g id="edge9" class="edge">
<title>assume_rationals_Qjoin&#45;&gt;assume_rationals_Q</title>
<path fill="none" stroke="#000000" d="M1043.8081,-273.3304C1036.8491,-269.2987 1029.1612,-264.9485 1022,-261.1199 903.708,-197.8761 759.5473,-129.3498 696.7619,-99.9148"/>
<polygon fill="#000000" stroke="#000000" points="697.941,-96.6023 687.4003,-95.5331 694.9736,-102.9422 697.941,-96.6023"/>
</g>
<!-- assume_rationals_Qmeet&#45;&gt;assume_rationals_Q -->
<g id="edge10" class="edge">
<title>assume_rationals_Qmeet&#45;&gt;assume_rationals_Q</title>
<path fill="none" stroke="#000000" d="M1136.502,-273.0006C1128.6858,-269.0025 1120.0646,-264.753 1112,-261.1199 960.2642,-192.7615 773.4951,-124.0385 698.4943,-97.0507"/>
<polygon fill="#000000" stroke="#000000" points="699.6758,-93.7563 689.0813,-93.6718 697.3108,-100.3446 699.6758,-93.7563"/>
</g>
<!-- assume_rationals_Qdec -->
<g id="node7" class="node">
<title>assume_rationals_Qdec</title>
<g id="a_node7"><a xlink:href="assume_rationals.html#Qdec" xlink:title="Qdec">
<ellipse fill="#facdef" stroke="#000000" cx="970" cy="-287.1199" rx="35.176" ry="18"/>
<ellipse fill="none" stroke="#000000" cx="970" cy="-287.1199" rx="39.185" ry="22"/>
<ellipse fill="none" stroke="#000000" cx="970" cy="-287.1199" rx="43.194" ry="26"/>
<text text-anchor="middle" x="970" y="-283.4199" font-family="Times,serif" font-size="14.00" fill="#000000">Qdec</text>
</a>
</g>
</g>
<!-- assume_rationals_Qdec&#45;&gt;assume_rationals_Q -->
<g id="edge11" class="edge">
<title>assume_rationals_Qdec&#45;&gt;assume_rationals_Q</title>
<path fill="none" stroke="#000000" d="M940.7553,-267.7512C882.0211,-228.8519 750.4307,-141.7002 692.8612,-103.5722"/>
<polygon fill="#000000" stroke="#000000" points="694.5496,-100.4924 684.2797,-97.8887 690.6844,-106.3285 694.5496,-100.4924"/>
</g>
<!-- assume_rationals_Qtrivialapart -->
<g id="node8" class="node">
<title>assume_rationals_Qtrivialapart</title>
<g id="a_node8"><a xlink:href="assume_rationals.html#Qtrivialapart" xlink:title="Qtrivialapart">
<ellipse fill="#facdef" stroke="#000000" cx="623" cy="-508.1199" rx="71.488" ry="18"/>
<ellipse fill="none" stroke="#000000" cx="623" cy="-508.1199" rx="75.4876" ry="22"/>
<ellipse fill="none" stroke="#000000" cx="623" cy="-508.1199" rx="79.4873" ry="26"/>
<text text-anchor="middle" x="623" y="-504.4199" font-family="Times,serif" font-size="14.00" fill="#000000">Qtrivialapart</text>
</a>
</g>
</g>
<!-- assume_rationals_Qap -->
<g id="node19" class="node">
<title>assume_rationals_Qap</title>
<g id="a_node19"><a xlink:href="assume_rationals.html#Qap" xlink:title="Qap">
<ellipse fill="#facdef" stroke="#000000" cx="623" cy="-287.1199" rx="29.795" ry="18"/>
<text text-anchor="middle" x="623" y="-283.4199" font-family="Times,serif" font-size="14.00" fill="#000000">Qap</text>
</a>
</g>
</g>
<!-- assume_rationals_Qtrivialapart&#45;&gt;assume_rationals_Qap -->
<g id="edge12" class="edge">
<title>assume_rationals_Qtrivialapart&#45;&gt;assume_rationals_Qap</title>
<path fill="none" stroke="#000000" d="M623,-481.9004C623,-440.0548 623,-358.5081 623,-315.3994"/>
<polygon fill="#000000" stroke="#000000" points="626.5001,-315.3152 623,-305.3153 619.5001,-315.3153 626.5001,-315.3152"/>
</g>
<!-- assume_rationals_Qrats -->
<g id="node9" class="node">
<title>assume_rationals_Qrats</title>
<g id="a_node9"><a xlink:href="assume_rationals.html#Qrats" xlink:title="Qrats">
<ellipse fill="#facdef" stroke="#000000" cx="470" cy="-508.1199" rx="37.0852" ry="18"/>
<ellipse fill="none" stroke="#000000" cx="470" cy="-508.1199" rx="41.0893" ry="22"/>
<ellipse fill="none" stroke="#000000" cx="470" cy="-508.1199" rx="45.0935" ry="26"/>
<text text-anchor="middle" x="470" y="-504.4199" font-family="Times,serif" font-size="14.00" fill="#000000">Qrats</text>
</a>
</g>
</g>
<!-- assume_rationals_QtoField -->
<g id="node10" class="node">
<title>assume_rationals_QtoField</title>
<g id="a_node10"><a xlink:href="assume_rationals.html#QtoField" xlink:title="QtoField">
<ellipse fill="#facdef" stroke="#000000" cx="67" cy="-287.1199" rx="51.1914" ry="18"/>
<text text-anchor="middle" x="67" y="-283.4199" font-family="Times,serif" font-size="14.00" fill="#000000">QtoField</text>
</a>
</g>
</g>
<!-- assume_rationals_Qrats&#45;&gt;assume_rationals_QtoField -->
<g id="edge13" class="edge">
<title>assume_rationals_Qrats&#45;&gt;assume_rationals_QtoField</title>
<path fill="none" stroke="#000000" d="M437.0208,-490.0345C362.5062,-449.1716 181.5879,-349.9584 103.682,-307.2358"/>
<polygon fill="#000000" stroke="#000000" points="105.1571,-304.053 94.706,-302.3135 101.7912,-310.1907 105.1571,-304.053"/>
</g>
<!-- assume_rationals_Qlt -->
<g id="node11" class="node">
<title>assume_rationals_Qlt</title>
<g id="a_node11"><a xlink:href="assume_rationals.html#Qlt" xlink:title="Qlt">
<ellipse fill="#facdef" stroke="#000000" cx="460" cy="-287.1199" rx="27" ry="18"/>
<text text-anchor="middle" x="460" y="-283.4199" font-family="Times,serif" font-size="14.00" fill="#000000">Qlt</text>
</a>
</g>
</g>
<!-- assume_rationals_Qrats&#45;&gt;assume_rationals_Qlt -->
<g id="edge14" class="edge">
<title>assume_rationals_Qrats&#45;&gt;assume_rationals_Qlt</title>
<path fill="none" stroke="#000000" d="M468.8136,-481.9004C466.9201,-440.0548 463.2302,-358.5081 461.2796,-315.3994"/>
<polygon fill="#000000" stroke="#000000" points="464.7719,-315.1468 460.8233,-305.3153 457.779,-315.4633 464.7719,-315.1468"/>
</g>
<!-- assume_rationals_Qrats&#45;&gt;assume_rationals_Qle -->
<g id="edge15" class="edge">
<title>assume_rationals_Qrats&#45;&gt;assume_rationals_Qle</title>
<path fill="none" stroke="#000000" d="M505.4136,-491.9017C573.2069,-460.3908 725.3107,-387.4406 846,-313.1199 849.2085,-311.144 852.5041,-308.975 855.7365,-306.7585"/>
<polygon fill="#000000" stroke="#000000" points="857.9014,-309.5142 864.0424,-300.8806 853.8577,-303.8003 857.9014,-309.5142"/>
</g>
<!-- assume_rationals_Qrecip -->
<g id="node13" class="node">
<title>assume_rationals_Qrecip</title>
<g id="a_node13"><a xlink:href="assume_rationals.html#Qrecip" xlink:title="Qrecip">
<ellipse fill="#facdef" stroke="#000000" cx="373" cy="-287.1199" rx="42.4939" ry="18"/>
<text text-anchor="middle" x="373" y="-283.4199" font-family="Times,serif" font-size="14.00" fill="#000000">Qrecip</text>
</a>
</g>
</g>
<!-- assume_rationals_Qrats&#45;&gt;assume_rationals_Qrecip -->
<g id="edge16" class="edge">
<title>assume_rationals_Qrats&#45;&gt;assume_rationals_Qrecip</title>
<path fill="none" stroke="#000000" d="M458.8729,-482.7683C440.4522,-440.7996 403.7813,-357.2504 384.8778,-314.1816"/>
<polygon fill="#000000" stroke="#000000" points="388.0247,-312.6428 380.8008,-304.8927 381.615,-315.4562 388.0247,-312.6428"/>
</g>
<!-- assume_rationals_Qrats&#45;&gt;assume_rationals_Qneg -->
<g id="edge17" class="edge">
<title>assume_rationals_Qrats&#45;&gt;assume_rationals_Qneg</title>
<path fill="none" stroke="#000000" d="M494.0291,-485.713C539.3056,-443.4931 636.7958,-352.5846 682.4611,-310.0021"/>
<polygon fill="#000000" stroke="#000000" points="684.9193,-312.4954 689.846,-303.1157 680.1454,-307.3759 684.9193,-312.4954"/>
</g>
<!-- assume_rationals_Qone -->
<g id="node15" class="node">
<title>assume_rationals_Qone</title>
<g id="a_node15"><a xlink:href="assume_rationals.html#Qone" xlink:title="Qone">
<ellipse fill="#facdef" stroke="#000000" cx="540" cy="-287.1199" rx="35.194" ry="18"/>
<text text-anchor="middle" x="540" y="-283.4199" font-family="Times,serif" font-size="14.00" fill="#000000">Qone</text>
</a>
</g>
</g>
<!-- assume_rationals_Qrats&#45;&gt;assume_rationals_Qone -->
<g id="edge18" class="edge">
<title>assume_rationals_Qrats&#45;&gt;assume_rationals_Qone</title>
<path fill="none" stroke="#000000" d="M478.1669,-482.3358C491.4554,-440.3821 517.6409,-357.7107 531.2787,-314.6543"/>
<polygon fill="#000000" stroke="#000000" points="534.6206,-315.6943 534.3036,-305.1042 527.9473,-313.5805 534.6206,-315.6943"/>
</g>
<!-- assume_rationals_Qrats&#45;&gt;assume_rationals_Qzero -->
<g id="edge19" class="edge">
<title>assume_rationals_Qrats&#45;&gt;assume_rationals_Qzero</title>
<path fill="none" stroke="#000000" d="M499.4861,-488.3131C561.5483,-446.6239 705.1247,-350.1789 768.2644,-307.766"/>
<polygon fill="#000000" stroke="#000000" points="770.2736,-310.6327 776.623,-302.1512 766.3703,-304.822 770.2736,-310.6327"/>
</g>
<!-- assume_rationals_Qmult -->
<g id="node17" class="node">
<title>assume_rationals_Qmult</title>
<g id="a_node17"><a xlink:href="assume_rationals.html#Qmult" xlink:title="Qmult">
<ellipse fill="#facdef" stroke="#000000" cx="177" cy="-287.1199" rx="40.0939" ry="18"/>
<text text-anchor="middle" x="177" y="-283.4199" font-family="Times,serif" font-size="14.00" fill="#000000">Qmult</text>
</a>
</g>
</g>
<!-- assume_rationals_Qrats&#45;&gt;assume_rationals_Qmult -->
<g id="edge20" class="edge">
<title>assume_rationals_Qrats&#45;&gt;assume_rationals_Qmult</title>
<path fill="none" stroke="#000000" d="M442.4353,-487.3287C387.0151,-445.5271 262.57,-351.6624 205.9892,-308.9854"/>
<polygon fill="#000000" stroke="#000000" points="207.9218,-306.0592 197.8305,-302.8316 203.7065,-311.6477 207.9218,-306.0592"/>
</g>
<!-- assume_rationals_Qplus -->
<g id="node18" class="node">
<title>assume_rationals_Qplus</title>
<g id="a_node18"><a xlink:href="assume_rationals.html#Qplus" xlink:title="Qplus">
<ellipse fill="#facdef" stroke="#000000" cx="274" cy="-287.1199" rx="38.1938" ry="18"/>
<text text-anchor="middle" x="274" y="-283.4199" font-family="Times,serif" font-size="14.00" fill="#000000">Qplus</text>
</a>
</g>
</g>
<!-- assume_rationals_Qrats&#45;&gt;assume_rationals_Qplus -->
<g id="edge21" class="edge">
<title>assume_rationals_Qrats&#45;&gt;assume_rationals_Qplus</title>
<path fill="none" stroke="#000000" d="M449.395,-484.8867C412.0918,-442.8254 333.7126,-354.4489 295.654,-311.5359"/>
<polygon fill="#000000" stroke="#000000" points="298.0736,-308.9891 288.8197,-303.8299 292.8364,-313.6338 298.0736,-308.9891"/>
</g>
<!-- assume_rationals_Qrats&#45;&gt;assume_rationals_Qap -->
<g id="edge22" class="edge">
<title>assume_rationals_Qrats&#45;&gt;assume_rationals_Qap</title>
<path fill="none" stroke="#000000" d="M486.9583,-483.6246C516.2309,-441.3418 575.9434,-355.0906 605.5519,-312.3227"/>
<polygon fill="#000000" stroke="#000000" points="608.5768,-314.1022 611.3913,-303.888 602.8214,-310.1177 608.5768,-314.1022"/>
</g>
<!-- assume_rationals_QtoField&#45;&gt;assume_rationals_Q -->
<g id="edge23" class="edge">
<title>assume_rationals_QtoField&#45;&gt;assume_rationals_Q</title>
<path fill="none" stroke="#000000" d="M98.7654,-272.9679C108.1157,-268.969 118.4103,-264.7274 128,-261.1199 315.067,-190.7473 544.4676,-120.9226 630.3636,-95.3379"/>
<polygon fill="#000000" stroke="#000000" points="631.5262,-98.6438 640.1149,-92.4401 629.5321,-91.9338 631.5262,-98.6438"/>
</g>
<!-- assume_rationals_Qlt&#45;&gt;assume_rationals_Q -->
<g id="edge24" class="edge">
<title>assume_rationals_Qlt&#45;&gt;assume_rationals_Q</title>
<path fill="none" stroke="#000000" d="M475.4083,-271.937C511.261,-236.609 600.4108,-148.7639 642.4205,-107.369"/>
<polygon fill="#000000" stroke="#000000" points="645.0261,-109.7152 649.6925,-100.2033 640.1129,-104.729 645.0261,-109.7152"/>
</g>
<!-- assume_rationals_Qle&#45;&gt;assume_rationals_Q -->
<g id="edge25" class="edge">
<title>assume_rationals_Qle&#45;&gt;assume_rationals_Q</title>
<path fill="none" stroke="#000000" d="M866.0435,-272.2663C828.1865,-237.0262 732.797,-148.2304 688.4016,-106.9038"/>
<polygon fill="#000000" stroke="#000000" points="690.6842,-104.2469 680.9799,-99.9952 685.9147,-109.3706 690.6842,-104.2469"/>
</g>
<!-- assume_rationals_Qrecip&#45;&gt;assume_rationals_Q -->
<g id="edge26" class="edge">
<title>assume_rationals_Qrecip&#45;&gt;assume_rationals_Q</title>
<path fill="none" stroke="#000000" d="M395.4279,-271.6047C448.1618,-235.1244 579.8993,-143.9909 637.4121,-104.2046"/>
<polygon fill="#000000" stroke="#000000" points="639.7491,-106.8439 645.9818,-98.2763 635.7666,-101.0871 639.7491,-106.8439"/>
</g>
<!-- assume_rationals_Qneg&#45;&gt;assume_rationals_Q -->
<g id="edge27" class="edge">
<title>assume_rationals_Qneg&#45;&gt;assume_rationals_Q</title>
<path fill="none" stroke="#000000" d="M703.2728,-269.1937C695.9252,-233.8555 679.5262,-154.9837 670.7701,-112.8715"/>
<polygon fill="#000000" stroke="#000000" points="674.1813,-112.0839 668.7189,-103.0058 667.3279,-113.509 674.1813,-112.0839"/>
</g>
<!-- assume_rationals_Qone&#45;&gt;assume_rationals_Q -->
<g id="edge28" class="edge">
<title>assume_rationals_Qone&#45;&gt;assume_rationals_Q</title>
<path fill="none" stroke="#000000" d="M550.6574,-269.8974C572.6678,-234.3286 623.2473,-152.5923 649.1221,-110.7786"/>
<polygon fill="#000000" stroke="#000000" points="652.26,-112.3591 654.5459,-102.0137 646.3075,-108.6756 652.26,-112.3591"/>
</g>
<!-- assume_rationals_Qzero&#45;&gt;assume_rationals_Q -->
<g id="edge29" class="edge">
<title>assume_rationals_Qzero&#45;&gt;assume_rationals_Q</title>
<path fill="none" stroke="#000000" d="M787.5752,-269.8974C763.8716,-234.165 709.2595,-151.8394 681.6401,-110.2041"/>
<polygon fill="#000000" stroke="#000000" points="684.4638,-108.1292 676.0192,-101.7308 678.6305,-111.9988 684.4638,-108.1292"/>
</g>
<!-- assume_rationals_Qmult&#45;&gt;assume_rationals_Q -->
<g id="edge30" class="edge">
<title>assume_rationals_Qmult&#45;&gt;assume_rationals_Q</title>
<path fill="none" stroke="#000000" d="M202.7131,-273.1393C210.4438,-269.1022 218.9989,-264.7971 227,-261.1199 374.9261,-193.1346 557.0244,-124.6793 631.1817,-97.4227"/>
<polygon fill="#000000" stroke="#000000" points="632.7304,-100.5828 640.9145,-93.8545 630.3208,-94.0106 632.7304,-100.5828"/>
</g>
<!-- assume_rationals_Qplus&#45;&gt;assume_rationals_Q -->
<g id="edge31" class="edge">
<title>assume_rationals_Qplus&#45;&gt;assume_rationals_Q</title>
<path fill="none" stroke="#000000" d="M299.3525,-273.2504C306.6455,-269.2978 314.6228,-265.0099 322,-261.1199 436.6424,-200.6679 574.1006,-130.9696 634.2654,-100.6008"/>
<polygon fill="#000000" stroke="#000000" points="635.8908,-103.701 643.2425,-96.0719 632.7378,-97.4513 635.8908,-103.701"/>
</g>
<!-- assume_rationals_Qap&#45;&gt;assume_rationals_Q -->
<g id="edge32" class="edge">
<title>assume_rationals_Qap&#45;&gt;assume_rationals_Q</title>
<path fill="none" stroke="#000000" d="M626.7272,-269.1937C634.0748,-233.8555 650.4738,-154.9837 659.2299,-112.8715"/>
<polygon fill="#000000" stroke="#000000" points="662.6721,-113.509 661.2811,-103.0058 655.8187,-112.0839 662.6721,-113.509"/>
</g>
</g>
</svg>
