<?xml version="1.0" encoding="UTF-8" standalone="no"?>
<!DOCTYPE svg PUBLIC "-//W3C//DTD SVG 1.1//EN"
 "http://www.w3.org/Graphics/SVG/1.1/DTD/svg11.dtd">
<!-- Generated by graphviz version 2.40.1 (20161225.0304)
 -->
<!-- Title: HoTT_Classes_implementations_family_prod Pages: 1 -->
<svg width="711pt" height="360pt"
 viewBox="0.00 0.00 711.00 359.50" xmlns="http://www.w3.org/2000/svg" xmlns:xlink="http://www.w3.org/1999/xlink">
<g id="graph0" class="graph" transform="scale(1 1) rotate(0) translate(4 355.5)">
<title>HoTT_Classes_implementations_family_prod</title>
<polygon fill="#ffffff" stroke="transparent" points="-4,4 -4,-355.5 707,-355.5 707,4 -4,4"/>
<g id="clust1" class="cluster">
<title>cluster_family_prod</title>
<polygon fill="#ffffc3" stroke="#000000" points="8,-10.5318 8,-340.9682 695,-340.9682 695,-10.5318 8,-10.5318"/>
<text text-anchor="middle" x="58.5" y="-325.7682" font-family="Times,serif" font-size="14.00" fill="#000000">family_prod</text>
</g>
<!-- family_prod_reflexive_for_all_2_family_prod -->
<g id="node1" class="node">
<title>family_prod_reflexive_for_all_2_family_prod</title>
<g id="a_node1"><a xlink:href="family_prod.html#reflexive_for_all_2_family_prod" xlink:title="reflexive_for_all_2_family_prod">
<ellipse fill="#f070d1" stroke="#000000" cx="523" cy="-265.5318" rx="155.973" ry="18"/>
<ellipse fill="none" stroke="#000000" cx="523" cy="-265.5318" rx="159.9727" ry="22"/>
<ellipse fill="none" stroke="#000000" cx="523" cy="-265.5318" rx="163.9723" ry="26"/>
<text text-anchor="middle" x="523" y="-261.8318" font-family="Times,serif" font-size="14.00" fill="#000000">reflexive_for_all_2_family_prod</text>
</a>
</g>
</g>
<!-- family_prod_for_all_2_family_prod -->
<g id="node2" class="node">
<title>family_prod_for_all_2_family_prod</title>
<g id="a_node2"><a xlink:href="family_prod.html#for_all_2_family_prod" xlink:title="for_all_2_family_prod">
<ellipse fill="#f070d1" stroke="#000000" cx="577" cy="-150.5318" rx="110.4804" ry="18"/>
<text text-anchor="middle" x="577" y="-146.8318" font-family="Times,serif" font-size="14.00" fill="#000000">for_all_2_family_prod</text>
</a>
</g>
</g>
<!-- family_prod_reflexive_for_all_2_family_prod&#45;&gt;family_prod_for_all_2_family_prod -->
<g id="edge1" class="edge">
<title>family_prod_reflexive_for_all_2_family_prod&#45;&gt;family_prod_for_all_2_family_prod</title>
<path fill="none" stroke="#000000" d="M535.2534,-239.4366C543.892,-221.0396 555.4358,-196.4557 564.1947,-177.8025"/>
<polygon fill="#000000" stroke="#000000" points="567.4087,-179.1922 568.491,-168.6528 561.0725,-176.2169 567.4087,-179.1922"/>
</g>
<!-- family_prod_FamilyProd -->
<g id="node5" class="node">
<title>family_prod_FamilyProd</title>
<g id="a_node5"><a xlink:href="family_prod.html#FamilyProd" xlink:title="FamilyProd">
<ellipse fill="#f070d1" stroke="#000000" cx="340" cy="-44.5318" rx="63.8893" ry="18"/>
<text text-anchor="middle" x="340" y="-40.8318" font-family="Times,serif" font-size="14.00" fill="#000000">FamilyProd</text>
</a>
</g>
</g>
<!-- family_prod_for_all_2_family_prod&#45;&gt;family_prod_FamilyProd -->
<g id="edge2" class="edge">
<title>family_prod_for_all_2_family_prod&#45;&gt;family_prod_FamilyProd</title>
<path fill="none" stroke="#000000" d="M539.1846,-133.6186C496.7257,-114.6286 427.9487,-83.8675 383.3502,-63.9206"/>
<polygon fill="#000000" stroke="#000000" points="384.7762,-60.7242 374.2186,-59.8364 381.9182,-67.1142 384.7762,-60.7242"/>
</g>
<!-- family_prod_for_all_family_prod -->
<g id="node3" class="node">
<title>family_prod_for_all_family_prod</title>
<g id="a_node3"><a xlink:href="family_prod.html#for_all_family_prod" xlink:title="for_all_family_prod">
<ellipse fill="#f070d1" stroke="#000000" cx="340" cy="-150.5318" rx="100.1756" ry="18"/>
<ellipse fill="none" stroke="#000000" cx="340" cy="-150.5318" rx="104.1789" ry="22"/>
<ellipse fill="none" stroke="#000000" cx="340" cy="-150.5318" rx="108.1823" ry="26"/>
<text text-anchor="middle" x="340" y="-146.8318" font-family="Times,serif" font-size="14.00" fill="#000000">for_all_family_prod</text>
</a>
</g>
</g>
<!-- family_prod_for_all_family_prod&#45;&gt;family_prod_FamilyProd -->
<g id="edge3" class="edge">
<title>family_prod_for_all_family_prod&#45;&gt;family_prod_FamilyProd</title>
<path fill="none" stroke="#000000" d="M340,-124.3296C340,-108.788 340,-89.0746 340,-73.1302"/>
<polygon fill="#000000" stroke="#000000" points="343.5001,-72.7915 340,-62.7916 336.5001,-72.7916 343.5001,-72.7915"/>
</g>
<!-- family_prod_map_family_prod -->
<g id="node4" class="node">
<title>family_prod_map_family_prod</title>
<g id="a_node4"><a xlink:href="family_prod.html#map_family_prod" xlink:title="map_family_prod">
<ellipse fill="#f070d1" stroke="#000000" cx="115" cy="-150.5318" rx="90.9845" ry="18"/>
<ellipse fill="none" stroke="#000000" cx="115" cy="-150.5318" rx="94.9842" ry="22"/>
<ellipse fill="none" stroke="#000000" cx="115" cy="-150.5318" rx="98.9839" ry="26"/>
<text text-anchor="middle" x="115" y="-146.8318" font-family="Times,serif" font-size="14.00" fill="#000000">map_family_prod</text>
</a>
</g>
</g>
<!-- family_prod_map_family_prod&#45;&gt;family_prod_FamilyProd -->
<g id="edge4" class="edge">
<title>family_prod_map_family_prod&#45;&gt;family_prod_FamilyProd</title>
<path fill="none" stroke="#000000" d="M163.2681,-127.7922C203.2649,-108.9493 259.5512,-82.4322 297.7785,-64.4228"/>
<polygon fill="#000000" stroke="#000000" points="299.5326,-67.4655 307.0873,-60.0374 296.5493,-61.133 299.5326,-67.4655"/>
</g>
</g>
</svg>
