<?xml version="1.0" encoding="UTF-8" standalone="no"?>
<!DOCTYPE svg PUBLIC "-//W3C//DTD SVG 1.1//EN"
 "http://www.w3.org/Graphics/SVG/1.1/DTD/svg11.dtd">
<!-- Generated by graphviz version 2.40.1 (20161225.0304)
 -->
<!-- Title: HoTT_Algebra_Groups_GroupCoeq Pages: 1 -->
<svg width="366pt" height="187pt"
 viewBox="0.00 0.00 366.00 187.00" xmlns="http://www.w3.org/2000/svg" xmlns:xlink="http://www.w3.org/1999/xlink">
<g id="graph0" class="graph" transform="scale(1 1) rotate(0) translate(4 183)">
<title>HoTT_Algebra_Groups_GroupCoeq</title>
<polygon fill="#ffffff" stroke="transparent" points="-4,4 -4,-183 362,-183 362,4 -4,4"/>
<g id="clust1" class="cluster">
<title>cluster_GroupCoeq</title>
<polygon fill="#ffffc3" stroke="#000000" points="10.6866,-8 10.6866,-171 347.3134,-171 347.3134,-8 10.6866,-8"/>
<text text-anchor="middle" x="59.6866" y="-155.8" font-family="Times,serif" font-size="14.00" fill="#000000">GroupCoeq</text>
</g>
<!-- GroupCoeq_equiv_groupcoeq_rec -->
<g id="node1" class="node">
<title>GroupCoeq_equiv_groupcoeq_rec</title>
<g id="a_node1"><a xlink:href="GroupCoeq.html#equiv_groupcoeq_rec" xlink:title="equiv_groupcoeq_rec">
<ellipse fill="#f070d1" stroke="#000000" cx="178.5299" cy="-114" rx="110.4811" ry="18"/>
<ellipse fill="none" stroke="#000000" cx="178.5299" cy="-114" rx="114.4807" ry="22"/>
<ellipse fill="none" stroke="#000000" cx="178.5299" cy="-114" rx="118.4804" ry="26"/>
<text text-anchor="middle" x="178.5299" y="-110.3" font-family="Times,serif" font-size="14.00" fill="#000000">equiv_groupcoeq_rec</text>
</a>
</g>
</g>
<!-- GroupCoeq_GroupCoeq -->
<g id="node2" class="node">
<title>GroupCoeq_GroupCoeq</title>
<g id="a_node2"><a xlink:href="GroupCoeq.html#GroupCoeq" xlink:title="GroupCoeq">
<ellipse fill="#f070d1" stroke="#000000" cx="178.5299" cy="-34" rx="63.8893" ry="18"/>
<text text-anchor="middle" x="178.5299" y="-30.3" font-family="Times,serif" font-size="14.00" fill="#000000">GroupCoeq</text>
</a>
</g>
</g>
<!-- GroupCoeq_equiv_groupcoeq_rec&#45;&gt;GroupCoeq_GroupCoeq -->
<g id="edge1" class="edge">
<title>GroupCoeq_equiv_groupcoeq_rec&#45;&gt;GroupCoeq_GroupCoeq</title>
<path fill="none" stroke="#000000" d="M178.5299,-87.805C178.5299,-79.6026 178.5299,-70.5174 178.5299,-62.1839"/>
<polygon fill="#000000" stroke="#000000" points="182.03,-62.1532 178.5299,-52.1532 175.03,-62.1533 182.03,-62.1532"/>
</g>
</g>
</svg>
