<?xml version="1.0" encoding="UTF-8" standalone="no"?>
<!DOCTYPE svg PUBLIC "-//W3C//DTD SVG 1.1//EN"
 "http://www.w3.org/Graphics/SVG/1.1/DTD/svg11.dtd">
<!-- Generated by graphviz version 2.40.1 (20161225.0304)
 -->
<!-- Title: HoTT_Diagrams_Cone Pages: 1 -->
<svg width="1908pt" height="958pt"
 viewBox="0.00 0.00 1908.00 958.00" xmlns="http://www.w3.org/2000/svg" xmlns:xlink="http://www.w3.org/1999/xlink">
<g id="graph0" class="graph" transform="scale(1 1) rotate(0) translate(4 954)">
<title>HoTT_Diagrams_Cone</title>
<polygon fill="#ffffff" stroke="transparent" points="-4,4 -4,-954 1904,-954 1904,4 -4,4"/>
<g id="clust1" class="cluster">
<title>cluster_Cone</title>
<polygon fill="#ffffc3" stroke="#000000" points="8,-14.7573 8,-935.2427 1892,-935.2427 1892,-14.7573 8,-14.7573"/>
<text text-anchor="middle" x="34.5" y="-920.0427" font-family="Times,serif" font-size="14.00" fill="#000000">Cone</text>
</g>
<!-- Cone_cone_precompose_equiv_universality -->
<g id="node1" class="node">
<title>Cone_cone_precompose_equiv_universality</title>
<g id="a_node1"><a xlink:href="Cone.html#cone_precompose_equiv_universality" xlink:title="cone_precompose_equiv_universality">
<ellipse fill="#f070d1" stroke="#000000" cx="1093" cy="-667.7573" rx="184.6638" ry="18"/>
<ellipse fill="none" stroke="#000000" cx="1093" cy="-667.7573" rx="188.6655" ry="22"/>
<ellipse fill="none" stroke="#000000" cx="1093" cy="-667.7573" rx="192.6673" ry="26"/>
<text text-anchor="middle" x="1093" y="-664.0573" font-family="Times,serif" font-size="14.00" fill="#000000">cone_precompose_equiv_universality</text>
</a>
</g>
</g>
<!-- Cone_cone_precompose_comp -->
<g id="node9" class="node">
<title>Cone_cone_precompose_comp</title>
<g id="a_node9"><a xlink:href="Cone.html#cone_precompose_comp" xlink:title="cone_precompose_comp">
<ellipse fill="#f070d1" stroke="#000000" cx="561" cy="-519.7573" rx="124.2781" ry="18"/>
<text text-anchor="middle" x="561" y="-516.0573" font-family="Times,serif" font-size="14.00" fill="#000000">cone_precompose_comp</text>
</a>
</g>
</g>
<!-- Cone_cone_precompose_equiv_universality&#45;&gt;Cone_cone_precompose_comp -->
<g id="edge1" class="edge">
<title>Cone_cone_precompose_equiv_universality&#45;&gt;Cone_cone_precompose_comp</title>
<path fill="none" stroke="#000000" d="M1008.703,-644.3062C903.3305,-614.9921 725.0879,-565.4058 628.3416,-538.4914"/>
<polygon fill="#000000" stroke="#000000" points="629.2407,-535.1087 618.6684,-535.8004 627.3645,-541.8526 629.2407,-535.1087"/>
</g>
<!-- Cone_Build_UniversalCone -->
<g id="node16" class="node">
<title>Cone_Build_UniversalCone</title>
<g id="a_node16"><a xlink:href="Cone.html#Build_UniversalCone" xlink:title="Build_UniversalCone">
<ellipse fill="#7faaff" stroke="#000000" cx="310" cy="-519.7573" rx="108.5808" ry="18"/>
<text text-anchor="middle" x="310" y="-516.0573" font-family="Times,serif" font-size="14.00" fill="#000000">Build_UniversalCone</text>
</a>
</g>
</g>
<!-- Cone_cone_precompose_equiv_universality&#45;&gt;Cone_Build_UniversalCone -->
<g id="edge2" class="edge">
<title>Cone_cone_precompose_equiv_universality&#45;&gt;Cone_Build_UniversalCone</title>
<path fill="none" stroke="#000000" d="M980.8152,-646.5525C821.2087,-616.3842 532.3688,-561.7887 391.5727,-535.1759"/>
<polygon fill="#000000" stroke="#000000" points="392.1711,-531.7271 381.695,-533.3088 390.871,-538.6053 392.1711,-531.7271"/>
</g>
<!-- Cone_UniversalCone -->
<g id="node17" class="node">
<title>Cone_UniversalCone</title>
<g id="a_node17"><a xlink:href="Cone.html#UniversalCone" xlink:title="UniversalCone">
<ellipse fill="#e2cdfa" stroke="#000000" cx="104" cy="-519.7573" rx="79.0865" ry="18"/>
<text text-anchor="middle" x="104" y="-516.0573" font-family="Times,serif" font-size="14.00" fill="#000000">UniversalCone</text>
</a>
</g>
</g>
<!-- Cone_cone_precompose_equiv_universality&#45;&gt;Cone_UniversalCone -->
<g id="edge3" class="edge">
<title>Cone_cone_precompose_equiv_universality&#45;&gt;Cone_UniversalCone</title>
<path fill="none" stroke="#000000" d="M957.6305,-649.2162C743.5159,-619.7218 336.2144,-562.8883 192,-537.7573 185.4973,-536.6241 178.7392,-535.3736 171.9878,-534.0755"/>
<polygon fill="#000000" stroke="#000000" points="172.6177,-530.6324 162.1318,-532.1476 171.2739,-537.5022 172.6177,-530.6324"/>
</g>
<!-- Cone_cone_postcompose_equiv_universality -->
<g id="node2" class="node">
<title>Cone_cone_postcompose_equiv_universality</title>
<g id="a_node2"><a xlink:href="Cone.html#cone_postcompose_equiv_universality" xlink:title="cone_postcompose_equiv_universality">
<ellipse fill="#f070d1" stroke="#000000" cx="1461" cy="-829.7573" rx="188.4672" ry="18"/>
<ellipse fill="none" stroke="#000000" cx="1461" cy="-829.7573" rx="192.4669" ry="22"/>
<ellipse fill="none" stroke="#000000" cx="1461" cy="-829.7573" rx="196.4666" ry="26"/>
<text text-anchor="middle" x="1461" y="-826.0573" font-family="Times,serif" font-size="14.00" fill="#000000">cone_postcompose_equiv_universality</text>
</a>
</g>
</g>
<!-- Cone_cone_precompose_equiv -->
<g id="node4" class="node">
<title>Cone_cone_precompose_equiv</title>
<g id="a_node4"><a xlink:href="Cone.html#cone_precompose_equiv" xlink:title="cone_precompose_equiv">
<ellipse fill="#f070d1" stroke="#000000" cx="1760" cy="-667.7573" rx="124.2781" ry="18"/>
<text text-anchor="middle" x="1760" y="-664.0573" font-family="Times,serif" font-size="14.00" fill="#000000">cone_precompose_equiv</text>
</a>
</g>
</g>
<!-- Cone_cone_postcompose_equiv_universality&#45;&gt;Cone_cone_precompose_equiv -->
<g id="edge4" class="edge">
<title>Cone_cone_postcompose_equiv_universality&#45;&gt;Cone_cone_precompose_equiv</title>
<path fill="none" stroke="#000000" d="M1507.7188,-804.4448C1565.7517,-773.0022 1663.833,-719.8612 1719.0507,-689.9438"/>
<polygon fill="#000000" stroke="#000000" points="1720.7348,-693.0122 1727.8598,-685.171 1717.4001,-686.8575 1720.7348,-693.0122"/>
</g>
<!-- Cone_cone_postcompose_precompose -->
<g id="node5" class="node">
<title>Cone_cone_postcompose_precompose</title>
<g id="a_node5"><a xlink:href="Cone.html#cone_postcompose_precompose" xlink:title="cone_postcompose_precompose">
<ellipse fill="#f070d1" stroke="#000000" cx="1151" cy="-519.7573" rx="159.7717" ry="18"/>
<text text-anchor="middle" x="1151" y="-516.0573" font-family="Times,serif" font-size="14.00" fill="#000000">cone_postcompose_precompose</text>
</a>
</g>
</g>
<!-- Cone_cone_postcompose_equiv_universality&#45;&gt;Cone_cone_postcompose_precompose -->
<g id="edge5" class="edge">
<title>Cone_cone_postcompose_equiv_universality&#45;&gt;Cone_cone_postcompose_precompose</title>
<path fill="none" stroke="#000000" d="M1505.8766,-804.2846C1563.7094,-768.2046 1651.7909,-700.1071 1607,-641.7573 1565.835,-588.131 1388.3285,-552.9536 1267.3173,-534.7192"/>
<polygon fill="#000000" stroke="#000000" points="1267.6559,-531.2311 1257.2497,-533.2214 1266.6258,-538.1549 1267.6559,-531.2311"/>
</g>
<!-- Cone_cone_postcompose_equiv_universality&#45;&gt;Cone_Build_UniversalCone -->
<g id="edge6" class="edge">
<title>Cone_cone_postcompose_equiv_universality&#45;&gt;Cone_Build_UniversalCone</title>
<path fill="none" stroke="#000000" d="M1425.1025,-803.9731C1392.5394,-778.9846 1345.1482,-738.3962 1315,-693.7573 1301.1412,-673.2373 1314.5386,-656.9684 1295,-641.7573 1141.8827,-522.553 620.2723,-563.9472 428,-537.7573 418.6276,-536.4806 408.8461,-535.087 399.0993,-533.6587"/>
<polygon fill="#000000" stroke="#000000" points="399.3778,-530.1619 388.9733,-532.1612 398.3537,-537.0866 399.3778,-530.1619"/>
</g>
<!-- Cone_cone_postcompose_equiv_universality&#45;&gt;Cone_UniversalCone -->
<g id="edge7" class="edge">
<title>Cone_cone_postcompose_equiv_universality&#45;&gt;Cone_UniversalCone</title>
<path fill="none" stroke="#000000" d="M1289.7128,-816.9924C1011.3986,-794.8456 485.1372,-746.581 418,-693.7573 398.5398,-678.4459 415.2785,-659.4939 398,-641.7573 363.8634,-606.7155 236.3197,-561.7892 160.8985,-537.4118"/>
<polygon fill="#000000" stroke="#000000" points="161.6594,-533.9801 151.0681,-534.2553 159.5193,-540.645 161.6594,-533.9801"/>
</g>
<!-- Cone_cone_postcompose_equiv -->
<g id="node3" class="node">
<title>Cone_cone_postcompose_equiv</title>
<g id="a_node3"><a xlink:href="Cone.html#cone_postcompose_equiv" xlink:title="cone_postcompose_equiv">
<ellipse fill="#f070d1" stroke="#000000" cx="1461" cy="-667.7573" rx="128.8664" ry="18"/>
<ellipse fill="none" stroke="#000000" cx="1461" cy="-667.7573" rx="132.8719" ry="22"/>
<ellipse fill="none" stroke="#000000" cx="1461" cy="-667.7573" rx="136.8774" ry="26"/>
<text text-anchor="middle" x="1461" y="-664.0573" font-family="Times,serif" font-size="14.00" fill="#000000">cone_postcompose_equiv</text>
</a>
</g>
</g>
<!-- Cone_cone_postcompose_equiv&#45;&gt;Cone_cone_precompose_comp -->
<g id="edge8" class="edge">
<title>Cone_cone_postcompose_equiv&#45;&gt;Cone_cone_precompose_comp</title>
<path fill="none" stroke="#000000" d="M1359.8978,-650.2189C1343.2319,-647.3652 1326.1348,-644.4604 1310,-641.7573 1074.1392,-602.2433 796.1874,-557.4277 654.4161,-534.6949"/>
<polygon fill="#000000" stroke="#000000" points="654.8744,-531.2238 644.4464,-533.0967 653.7663,-538.1355 654.8744,-531.2238"/>
</g>
<!-- Cone_cone_precompose_identity -->
<g id="node10" class="node">
<title>Cone_cone_precompose_identity</title>
<g id="a_node10"><a xlink:href="Cone.html#cone_precompose_identity" xlink:title="cone_precompose_identity">
<ellipse fill="#f070d1" stroke="#000000" cx="838" cy="-519.7573" rx="135.3763" ry="18"/>
<text text-anchor="middle" x="838" y="-516.0573" font-family="Times,serif" font-size="14.00" fill="#000000">cone_precompose_identity</text>
</a>
</g>
</g>
<!-- Cone_cone_postcompose_equiv&#45;&gt;Cone_cone_precompose_identity -->
<g id="edge9" class="edge">
<title>Cone_cone_postcompose_equiv&#45;&gt;Cone_cone_precompose_identity</title>
<path fill="none" stroke="#000000" d="M1375.3549,-647.4114C1253.1768,-618.3868 1030.755,-565.5482 914.0768,-537.8301"/>
<polygon fill="#000000" stroke="#000000" points="914.6876,-534.3779 904.1494,-535.4717 913.0696,-541.1883 914.6876,-534.3779"/>
</g>
<!-- Cone_cone_postcompose_comp -->
<g id="node6" class="node">
<title>Cone_cone_postcompose_comp</title>
<g id="a_node6"><a xlink:href="Cone.html#cone_postcompose_comp" xlink:title="cone_postcompose_comp">
<ellipse fill="#f070d1" stroke="#000000" cx="1458" cy="-519.7573" rx="128.8774" ry="18"/>
<text text-anchor="middle" x="1458" y="-516.0573" font-family="Times,serif" font-size="14.00" fill="#000000">cone_postcompose_comp</text>
</a>
</g>
</g>
<!-- Cone_cone_precompose_equiv&#45;&gt;Cone_cone_postcompose_comp -->
<g id="edge10" class="edge">
<title>Cone_cone_precompose_equiv&#45;&gt;Cone_cone_postcompose_comp</title>
<path fill="none" stroke="#000000" d="M1724.7657,-650.4901C1669.6762,-623.4926 1563.2102,-571.3172 1502.7673,-541.6962"/>
<polygon fill="#000000" stroke="#000000" points="1503.9966,-538.401 1493.4767,-537.1432 1500.9161,-544.6868 1503.9966,-538.401"/>
</g>
<!-- Cone_cone_postcompose_identity -->
<g id="node7" class="node">
<title>Cone_cone_postcompose_identity</title>
<g id="a_node7"><a xlink:href="Cone.html#cone_postcompose_identity" xlink:title="cone_postcompose_identity">
<ellipse fill="#f070d1" stroke="#000000" cx="1744" cy="-519.7573" rx="139.9756" ry="18"/>
<text text-anchor="middle" x="1744" y="-516.0573" font-family="Times,serif" font-size="14.00" fill="#000000">cone_postcompose_identity</text>
</a>
</g>
</g>
<!-- Cone_cone_precompose_equiv&#45;&gt;Cone_cone_postcompose_identity -->
<g id="edge11" class="edge">
<title>Cone_cone_precompose_equiv&#45;&gt;Cone_cone_postcompose_identity</title>
<path fill="none" stroke="#000000" d="M1758.0381,-649.6096C1755.3031,-624.3112 1750.3172,-578.1914 1747.0829,-548.274"/>
<polygon fill="#000000" stroke="#000000" points="1750.5326,-547.6193 1745.978,-538.0534 1743.5731,-548.3717 1750.5326,-547.6193"/>
</g>
<!-- Cone_cone_postcompose -->
<g id="node8" class="node">
<title>Cone_cone_postcompose</title>
<g id="a_node8"><a xlink:href="Cone.html#cone_postcompose" xlink:title="cone_postcompose">
<ellipse fill="#f070d1" stroke="#000000" cx="1331" cy="-372.7573" rx="98.5829" ry="18"/>
<text text-anchor="middle" x="1331" y="-369.0573" font-family="Times,serif" font-size="14.00" fill="#000000">cone_postcompose</text>
</a>
</g>
</g>
<!-- Cone_cone_postcompose_precompose&#45;&gt;Cone_cone_postcompose -->
<g id="edge12" class="edge">
<title>Cone_cone_postcompose_precompose&#45;&gt;Cone_cone_postcompose</title>
<path fill="none" stroke="#000000" d="M1173.0715,-501.7322C1205.2282,-475.4709 1265.045,-426.6205 1301.1185,-397.1605"/>
<polygon fill="#000000" stroke="#000000" points="1303.7787,-399.5069 1309.3102,-390.4706 1299.3509,-394.0851 1303.7787,-399.5069"/>
</g>
<!-- Cone_cone_precompose -->
<g id="node18" class="node">
<title>Cone_cone_precompose</title>
<g id="a_node18"><a xlink:href="Cone.html#cone_precompose" xlink:title="cone_precompose">
<ellipse fill="#f070d1" stroke="#000000" cx="711" cy="-372.7573" rx="94.4839" ry="18"/>
<text text-anchor="middle" x="711" y="-369.0573" font-family="Times,serif" font-size="14.00" fill="#000000">cone_precompose</text>
</a>
</g>
</g>
<!-- Cone_cone_postcompose_precompose&#45;&gt;Cone_cone_precompose -->
<g id="edge13" class="edge">
<title>Cone_cone_postcompose_precompose&#45;&gt;Cone_cone_precompose</title>
<path fill="none" stroke="#000000" d="M1099.6653,-502.6068C1016.7184,-474.895 853.8284,-420.4749 767.6197,-391.6734"/>
<polygon fill="#000000" stroke="#000000" points="768.5967,-388.3097 758.003,-388.4605 766.3786,-394.949 768.5967,-388.3097"/>
</g>
<!-- Cone_path_cone -->
<g id="node19" class="node">
<title>Cone_path_cone</title>
<g id="a_node19"><a xlink:href="Cone.html#path_cone" xlink:title="path_cone">
<ellipse fill="#f070d1" stroke="#000000" cx="1151" cy="-372.7573" rx="58.4896" ry="18"/>
<text text-anchor="middle" x="1151" y="-369.0573" font-family="Times,serif" font-size="14.00" fill="#000000">path_cone</text>
</a>
</g>
</g>
<!-- Cone_cone_postcompose_precompose&#45;&gt;Cone_path_cone -->
<g id="edge14" class="edge">
<title>Cone_cone_postcompose_precompose&#45;&gt;Cone_path_cone</title>
<path fill="none" stroke="#000000" d="M1151,-501.7322C1151,-476.6048 1151,-430.7966 1151,-401.0813"/>
<polygon fill="#000000" stroke="#000000" points="1154.5001,-400.9298 1151,-390.9298 1147.5001,-400.9298 1154.5001,-400.9298"/>
</g>
<!-- Cone_cone_postcompose_comp&#45;&gt;Cone_cone_postcompose -->
<g id="edge15" class="edge">
<title>Cone_cone_postcompose_comp&#45;&gt;Cone_cone_postcompose</title>
<path fill="none" stroke="#000000" d="M1442.4273,-501.7322C1420.1473,-475.9435 1379.0475,-428.3713 1353.4731,-398.7695"/>
<polygon fill="#000000" stroke="#000000" points="1355.8861,-396.2087 1346.7001,-390.9298 1350.5892,-400.785 1355.8861,-396.2087"/>
</g>
<!-- Cone_cone_postcompose_comp&#45;&gt;Cone_path_cone -->
<g id="edge16" class="edge">
<title>Cone_cone_postcompose_comp&#45;&gt;Cone_path_cone</title>
<path fill="none" stroke="#000000" d="M1421.8804,-502.4622C1364.4074,-474.9426 1252.4782,-421.3478 1192.0511,-392.4137"/>
<polygon fill="#000000" stroke="#000000" points="1193.3423,-389.1514 1182.8114,-387.9894 1190.3192,-395.465 1193.3423,-389.1514"/>
</g>
<!-- Cone_cone_postcompose_identity&#45;&gt;Cone_cone_postcompose -->
<g id="edge17" class="edge">
<title>Cone_cone_postcompose_identity&#45;&gt;Cone_cone_postcompose</title>
<path fill="none" stroke="#000000" d="M1696.2202,-502.7509C1618.9916,-475.2628 1467.1815,-421.2287 1385.725,-392.2357"/>
<polygon fill="#000000" stroke="#000000" points="1386.7445,-388.8835 1376.1498,-388.8276 1384.3972,-395.4782 1386.7445,-388.8835"/>
</g>
<!-- Cone_cone_postcompose_identity&#45;&gt;Cone_path_cone -->
<g id="edge18" class="edge">
<title>Cone_cone_postcompose_identity&#45;&gt;Cone_path_cone</title>
<path fill="none" stroke="#000000" d="M1666.4562,-504.7391C1564.0164,-484.2204 1378.3937,-444.684 1223,-398.7573 1214.5733,-396.2668 1205.6967,-393.3284 1197.1647,-390.3397"/>
<polygon fill="#000000" stroke="#000000" points="1198.3151,-387.0341 1187.7205,-386.9651 1195.9597,-393.6259 1198.3151,-387.0341"/>
</g>
<!-- Cone_legs_comm -->
<g id="node21" class="node">
<title>Cone_legs_comm</title>
<g id="a_node21"><a xlink:href="Cone.html#legs_comm" xlink:title="legs_comm">
<ellipse fill="#f070d1" stroke="#000000" cx="1331" cy="-210.7573" rx="63.0888" ry="18"/>
<text text-anchor="middle" x="1331" y="-207.0573" font-family="Times,serif" font-size="14.00" fill="#000000">legs_comm</text>
</a>
</g>
</g>
<!-- Cone_cone_postcompose&#45;&gt;Cone_legs_comm -->
<g id="edge19" class="edge">
<title>Cone_cone_postcompose&#45;&gt;Cone_legs_comm</title>
<path fill="none" stroke="#000000" d="M1331,-354.4887C1331,-326.5353 1331,-272.8991 1331,-239.6393"/>
<polygon fill="#000000" stroke="#000000" points="1334.5001,-239.2076 1331,-229.2076 1327.5001,-239.2077 1334.5001,-239.2076"/>
</g>
<!-- Cone_Build_Cone -->
<g id="node27" class="node">
<title>Cone_Build_Cone</title>
<g id="a_node27"><a xlink:href="Cone.html#Build_Cone" xlink:title="Build_Cone">
<ellipse fill="#7faaff" stroke="#000000" cx="762" cy="-62.7573" rx="63.8893" ry="18"/>
<text text-anchor="middle" x="762" y="-59.0573" font-family="Times,serif" font-size="14.00" fill="#000000">Build_Cone</text>
</a>
</g>
</g>
<!-- Cone_cone_postcompose&#45;&gt;Cone_Build_Cone -->
<g id="edge20" class="edge">
<title>Cone_cone_postcompose&#45;&gt;Cone_Build_Cone</title>
<path fill="none" stroke="#000000" d="M1271.0019,-358.4121C1253.912,-354.4729 1235.2521,-350.311 1218,-346.7573 1084.3756,-319.232 701.4019,-341.5144 614,-236.7573 567.4559,-180.9711 663.3208,-115.9206 721.6085,-83.4342"/>
<polygon fill="#000000" stroke="#000000" points="723.5211,-86.3774 730.6132,-78.5063 720.1606,-80.2368 723.5211,-86.3774"/>
</g>
<!-- Cone_cone_precompose_comp&#45;&gt;Cone_cone_precompose -->
<g id="edge21" class="edge">
<title>Cone_cone_precompose_comp&#45;&gt;Cone_cone_precompose</title>
<path fill="none" stroke="#000000" d="M579.3929,-501.7322C606.0771,-475.5817 655.6173,-427.0323 685.7172,-397.5344"/>
<polygon fill="#000000" stroke="#000000" points="688.2327,-399.9697 692.9251,-390.4706 683.3332,-394.9702 688.2327,-399.9697"/>
</g>
<!-- Cone_cone_precompose_comp&#45;&gt;Cone_path_cone -->
<g id="edge22" class="edge">
<title>Cone_cone_precompose_comp&#45;&gt;Cone_path_cone</title>
<path fill="none" stroke="#000000" d="M623.5818,-504.1649C739.3373,-475.3241 985.1148,-414.088 1095.4022,-386.6096"/>
<polygon fill="#000000" stroke="#000000" points="1096.4699,-389.9507 1105.3271,-384.1368 1094.7775,-383.1583 1096.4699,-389.9507"/>
</g>
<!-- Cone_cone_precompose_identity&#45;&gt;Cone_cone_precompose -->
<g id="edge23" class="edge">
<title>Cone_cone_precompose_identity&#45;&gt;Cone_cone_precompose</title>
<path fill="none" stroke="#000000" d="M822.4273,-501.7322C800.1473,-475.9435 759.0475,-428.3713 733.4731,-398.7695"/>
<polygon fill="#000000" stroke="#000000" points="735.8861,-396.2087 726.7001,-390.9298 730.5892,-400.785 735.8861,-396.2087"/>
</g>
<!-- Cone_cone_precompose_identity&#45;&gt;Cone_path_cone -->
<g id="edge24" class="edge">
<title>Cone_cone_precompose_identity&#45;&gt;Cone_path_cone</title>
<path fill="none" stroke="#000000" d="M875.1343,-502.3172C933.852,-474.7405 1047.7633,-421.2422 1109.2411,-392.3693"/>
<polygon fill="#000000" stroke="#000000" points="1111.0777,-395.3736 1118.6413,-387.9545 1108.1019,-389.0376 1111.0777,-395.3736"/>
</g>
<!-- Cone_is_universal -->
<g id="node11" class="node">
<title>Cone_is_universal</title>
<g id="a_node11"><a xlink:href="Cone.html#is_universal" xlink:title="is_universal">
<ellipse fill="#f070d1" stroke="#000000" cx="90" cy="-667.7573" rx="66.1109" ry="18"/>
<ellipse fill="none" stroke="#000000" cx="90" cy="-667.7573" rx="70.0999" ry="22"/>
<ellipse fill="none" stroke="#000000" cx="90" cy="-667.7573" rx="74.0888" ry="26"/>
<text text-anchor="middle" x="90" y="-664.0573" font-family="Times,serif" font-size="14.00" fill="#000000">is_universal</text>
</a>
</g>
</g>
<!-- Cone_is_universal&#45;&gt;Cone_UniversalCone -->
<g id="edge25" class="edge">
<title>Cone_is_universal&#45;&gt;Cone_UniversalCone</title>
<path fill="none" stroke="#000000" d="M92.4707,-641.6385C94.9516,-615.4117 98.7627,-575.1226 101.3166,-548.1252"/>
<polygon fill="#000000" stroke="#000000" points="104.8036,-548.4258 102.261,-538.1406 97.8348,-547.7665 104.8036,-548.4258"/>
</g>
<!-- Cone_UniversalCone_sind -->
<g id="node12" class="node">
<title>Cone_UniversalCone_sind</title>
<g id="a_node12"><a xlink:href="Cone.html#UniversalCone_sind" xlink:title="UniversalCone_sind">
<ellipse fill="#f070d1" stroke="#000000" cx="539" cy="-667.7573" rx="103.9822" ry="18"/>
<ellipse fill="none" stroke="#000000" cx="539" cy="-667.7573" rx="107.9819" ry="22"/>
<ellipse fill="none" stroke="#000000" cx="539" cy="-667.7573" rx="111.9815" ry="26"/>
<text text-anchor="middle" x="539" y="-664.0573" font-family="Times,serif" font-size="14.00" fill="#000000">UniversalCone_sind</text>
</a>
</g>
</g>
<!-- Cone_UniversalCone_sind&#45;&gt;Cone_Build_UniversalCone -->
<g id="edge26" class="edge">
<title>Cone_UniversalCone_sind&#45;&gt;Cone_Build_UniversalCone</title>
<path fill="none" stroke="#000000" d="M500.9282,-643.152C457.7083,-615.2194 387.7506,-570.0066 345.5881,-542.7574"/>
<polygon fill="#000000" stroke="#000000" points="347.331,-539.7166 337.0326,-537.2281 343.5314,-545.5956 347.331,-539.7166"/>
</g>
<!-- Cone_UniversalCone_sind&#45;&gt;Cone_UniversalCone -->
<g id="edge27" class="edge">
<title>Cone_UniversalCone_sind&#45;&gt;Cone_UniversalCone</title>
<path fill="none" stroke="#000000" d="M475.7473,-646.2368C390.1038,-617.0983 238.7214,-565.5935 158.0902,-538.1604"/>
<polygon fill="#000000" stroke="#000000" points="158.7379,-534.6838 148.1434,-534.7762 156.4831,-541.3107 158.7379,-534.6838"/>
</g>
<!-- Cone_UniversalCone_rec -->
<g id="node13" class="node">
<title>Cone_UniversalCone_rec</title>
<g id="a_node13"><a xlink:href="Cone.html#UniversalCone_rec" xlink:title="UniversalCone_rec">
<ellipse fill="#f070d1" stroke="#000000" cx="286" cy="-829.7573" rx="99.3868" ry="18"/>
<ellipse fill="none" stroke="#000000" cx="286" cy="-829.7573" rx="103.3846" ry="22"/>
<ellipse fill="none" stroke="#000000" cx="286" cy="-829.7573" rx="107.3824" ry="26"/>
<text text-anchor="middle" x="286" y="-826.0573" font-family="Times,serif" font-size="14.00" fill="#000000">UniversalCone_rec</text>
</a>
</g>
</g>
<!-- Cone_UniversalCone_rect -->
<g id="node15" class="node">
<title>Cone_UniversalCone_rect</title>
<g id="a_node15"><a xlink:href="Cone.html#UniversalCone_rect" xlink:title="UniversalCone_rect">
<ellipse fill="#f070d1" stroke="#000000" cx="286" cy="-667.7573" rx="103.1819" ry="18"/>
<text text-anchor="middle" x="286" y="-664.0573" font-family="Times,serif" font-size="14.00" fill="#000000">UniversalCone_rect</text>
</a>
</g>
</g>
<!-- Cone_UniversalCone_rec&#45;&gt;Cone_UniversalCone_rect -->
<g id="edge28" class="edge">
<title>Cone_UniversalCone_rec&#45;&gt;Cone_UniversalCone_rect</title>
<path fill="none" stroke="#000000" d="M286,-803.7292C286,-774.415 286,-726.9131 286,-696.5209"/>
<polygon fill="#000000" stroke="#000000" points="289.5001,-696.1633 286,-686.1633 282.5001,-696.1634 289.5001,-696.1633"/>
</g>
<!-- Cone_UniversalCone_ind -->
<g id="node14" class="node">
<title>Cone_UniversalCone_ind</title>
<g id="a_node14"><a xlink:href="Cone.html#UniversalCone_ind" xlink:title="UniversalCone_ind">
<ellipse fill="#7fffd4" stroke="#000000" cx="776" cy="-667.7573" rx="98.5985" ry="18"/>
<ellipse fill="none" stroke="#000000" cx="776" cy="-667.7573" rx="102.5907" ry="22"/>
<ellipse fill="none" stroke="#000000" cx="776" cy="-667.7573" rx="106.5829" ry="26"/>
<text text-anchor="middle" x="776" y="-664.0573" font-family="Times,serif" font-size="14.00" fill="#000000">UniversalCone_ind</text>
</a>
</g>
</g>
<!-- Cone_UniversalCone_ind&#45;&gt;Cone_Build_UniversalCone -->
<g id="edge29" class="edge">
<title>Cone_UniversalCone_ind&#45;&gt;Cone_Build_UniversalCone</title>
<path fill="none" stroke="#000000" d="M710.714,-647.0227C620.1751,-618.2678 457.7633,-566.6864 370.0793,-538.8383"/>
<polygon fill="#000000" stroke="#000000" points="371.1313,-535.5002 360.541,-535.8089 369.0124,-542.1718 371.1313,-535.5002"/>
</g>
<!-- Cone_UniversalCone_ind&#45;&gt;Cone_UniversalCone -->
<g id="edge30" class="edge">
<title>Cone_UniversalCone_ind&#45;&gt;Cone_UniversalCone</title>
<path fill="none" stroke="#000000" d="M697.389,-650.0875C684.8839,-647.2911 672.0894,-644.4385 660,-641.7573 483.5849,-602.6319 275.5275,-557.1571 171.032,-534.3639"/>
<polygon fill="#000000" stroke="#000000" points="171.7635,-530.9413 161.2473,-532.2299 170.2718,-537.7805 171.7635,-530.9413"/>
</g>
<!-- Cone_UniversalCone_rect&#45;&gt;Cone_Build_UniversalCone -->
<g id="edge31" class="edge">
<title>Cone_UniversalCone_rect&#45;&gt;Cone_Build_UniversalCone</title>
<path fill="none" stroke="#000000" d="M288.9429,-649.6096C293.0453,-624.3112 300.5242,-578.1914 305.3757,-548.274"/>
<polygon fill="#000000" stroke="#000000" points="308.8871,-548.4848 307.0331,-538.0534 301.9774,-547.3642 308.8871,-548.4848"/>
</g>
<!-- Cone_UniversalCone_rect&#45;&gt;Cone_UniversalCone -->
<g id="edge32" class="edge">
<title>Cone_UniversalCone_rect&#45;&gt;Cone_UniversalCone</title>
<path fill="none" stroke="#000000" d="M264.0465,-649.905C231.3491,-623.3159 169.8003,-573.2652 133.2956,-543.5801"/>
<polygon fill="#000000" stroke="#000000" points="135.4329,-540.807 125.4662,-537.2133 131.0165,-546.2379 135.4329,-540.807"/>
</g>
<!-- Cone_Build_UniversalCone&#45;&gt;Cone_cone_precompose -->
<g id="edge33" class="edge">
<title>Cone_Build_UniversalCone&#45;&gt;Cone_cone_precompose</title>
<path fill="none" stroke="#000000" d="M354.8326,-503.3224C429.2114,-476.0564 577.8056,-421.5842 657.5292,-392.3588"/>
<polygon fill="#000000" stroke="#000000" points="659.185,-395.4796 667.3694,-388.7516 656.7757,-388.9073 659.185,-395.4796"/>
</g>
<!-- Cone_UniversalCone&#45;&gt;Cone_cone_precompose -->
<g id="edge34" class="edge">
<title>Cone_UniversalCone&#45;&gt;Cone_cone_precompose</title>
<path fill="none" stroke="#000000" d="M159.239,-506.7177C252.0292,-484.764 445.0433,-438.8845 608,-398.7573 619.7521,-395.8634 632.2475,-392.7446 644.3328,-389.7064"/>
<polygon fill="#000000" stroke="#000000" points="645.5206,-393.0167 654.3627,-387.18 643.8107,-386.2287 645.5206,-393.0167"/>
</g>
<!-- Cone_cone_precompose&#45;&gt;Cone_legs_comm -->
<g id="edge35" class="edge">
<title>Cone_cone_precompose&#45;&gt;Cone_legs_comm</title>
<path fill="none" stroke="#000000" d="M774.0339,-359.3394C876.5687,-337.0168 1085.4823,-289.4644 1259,-236.7573 1267.0431,-234.3141 1275.5069,-231.4911 1283.6926,-228.6251"/>
<polygon fill="#000000" stroke="#000000" points="1284.8874,-231.9149 1293.1322,-225.261 1282.5375,-225.3211 1284.8874,-231.9149"/>
</g>
<!-- Cone_cone_precompose&#45;&gt;Cone_Build_Cone -->
<g id="edge36" class="edge">
<title>Cone_cone_precompose&#45;&gt;Cone_Build_Cone</title>
<path fill="none" stroke="#000000" d="M686.7227,-355.1014C644.8498,-322.3594 566.5163,-249.645 599,-184.7573 623.3904,-136.0363 677.5043,-101.7562 716.7047,-82.1903"/>
<polygon fill="#000000" stroke="#000000" points="718.3518,-85.2815 725.8221,-77.7685 715.2971,-78.9831 718.3518,-85.2815"/>
</g>
<!-- Cone_path_cocone_naive -->
<g id="node20" class="node">
<title>Cone_path_cocone_naive</title>
<g id="a_node20"><a xlink:href="Cone.html#path_cocone_naive" xlink:title="path_cocone_naive">
<ellipse fill="#f070d1" stroke="#000000" cx="1151" cy="-210.7573" rx="98.5829" ry="18"/>
<text text-anchor="middle" x="1151" y="-207.0573" font-family="Times,serif" font-size="14.00" fill="#000000">path_cocone_naive</text>
</a>
</g>
</g>
<!-- Cone_path_cone&#45;&gt;Cone_path_cocone_naive -->
<g id="edge37" class="edge">
<title>Cone_path_cone&#45;&gt;Cone_path_cocone_naive</title>
<path fill="none" stroke="#000000" d="M1151,-354.4887C1151,-326.5353 1151,-272.8991 1151,-239.6393"/>
<polygon fill="#000000" stroke="#000000" points="1154.5001,-239.2076 1151,-229.2076 1147.5001,-239.2077 1154.5001,-239.2076"/>
</g>
<!-- Cone_path_cocone_naive&#45;&gt;Cone_Build_Cone -->
<g id="edge38" class="edge">
<title>Cone_path_cocone_naive&#45;&gt;Cone_Build_Cone</title>
<path fill="none" stroke="#000000" d="M1108.2574,-194.4953C1035.0094,-166.6272 886.0202,-109.9423 809.5787,-80.8592"/>
<polygon fill="#000000" stroke="#000000" points="810.7713,-77.5682 800.1803,-77.2835 808.2821,-84.1107 810.7713,-77.5682"/>
</g>
<!-- Cone_Cone -->
<g id="node28" class="node">
<title>Cone_Cone</title>
<g id="a_node28"><a xlink:href="Cone.html#Cone" xlink:title="Cone">
<ellipse fill="#e2cdfa" stroke="#000000" cx="1061" cy="-62.7573" rx="34.394" ry="18"/>
<text text-anchor="middle" x="1061" y="-59.0573" font-family="Times,serif" font-size="14.00" fill="#000000">Cone</text>
</a>
</g>
</g>
<!-- Cone_path_cocone_naive&#45;&gt;Cone_Cone -->
<g id="edge39" class="edge">
<title>Cone_path_cocone_naive&#45;&gt;Cone_Cone</title>
<path fill="none" stroke="#000000" d="M1139.9642,-192.6096C1124.14,-166.5876 1094.9195,-118.536 1076.8048,-88.7473"/>
<polygon fill="#000000" stroke="#000000" points="1079.753,-86.8592 1071.5666,-80.1335 1073.772,-90.4963 1079.753,-86.8592"/>
</g>
<!-- Cone_legs_comm&#45;&gt;Cone_Cone -->
<g id="edge40" class="edge">
<title>Cone_legs_comm&#45;&gt;Cone_Cone</title>
<path fill="none" stroke="#000000" d="M1301.8487,-194.7781C1251.1661,-166.9965 1147.1429,-109.9763 1093.9332,-80.8095"/>
<polygon fill="#000000" stroke="#000000" points="1095.3723,-77.6071 1084.9209,-75.8695 1092.0075,-83.7454 1095.3723,-77.6071"/>
</g>
<!-- Cone_legs -->
<g id="node22" class="node">
<title>Cone_legs</title>
<g id="a_node22"><a xlink:href="Cone.html#legs" xlink:title="legs">
<ellipse fill="#f070d1" stroke="#000000" cx="1450" cy="-210.7573" rx="29.8166" ry="18"/>
<ellipse fill="none" stroke="#000000" cx="1450" cy="-210.7573" rx="33.8058" ry="22"/>
<ellipse fill="none" stroke="#000000" cx="1450" cy="-210.7573" rx="37.795" ry="26"/>
<text text-anchor="middle" x="1450" y="-207.0573" font-family="Times,serif" font-size="14.00" fill="#000000">legs</text>
</a>
</g>
</g>
<!-- Cone_legs&#45;&gt;Cone_Cone -->
<g id="edge41" class="edge">
<title>Cone_legs&#45;&gt;Cone_Cone</title>
<path fill="none" stroke="#000000" d="M1421.0428,-193.7788C1415.1596,-190.6034 1408.9496,-187.4426 1403,-184.7573 1296.9187,-136.878 1165.9694,-94.6053 1101.1944,-74.7547"/>
<polygon fill="#000000" stroke="#000000" points="1101.9665,-71.3312 1091.3805,-71.7639 1099.9258,-78.0272 1101.9665,-71.3312"/>
</g>
<!-- Cone_Cone_sind -->
<g id="node23" class="node">
<title>Cone_Cone_sind</title>
<g id="a_node23"><a xlink:href="Cone.html#Cone_sind" xlink:title="Cone_sind">
<ellipse fill="#f070d1" stroke="#000000" cx="690" cy="-210.7573" rx="59.2725" ry="18"/>
<ellipse fill="none" stroke="#000000" cx="690" cy="-210.7573" rx="63.2812" ry="22"/>
<ellipse fill="none" stroke="#000000" cx="690" cy="-210.7573" rx="67.2898" ry="26"/>
<text text-anchor="middle" x="690" y="-207.0573" font-family="Times,serif" font-size="14.00" fill="#000000">Cone_sind</text>
</a>
</g>
</g>
<!-- Cone_Cone_sind&#45;&gt;Cone_Build_Cone -->
<g id="edge42" class="edge">
<title>Cone_Cone_sind&#45;&gt;Cone_Build_Cone</title>
<path fill="none" stroke="#000000" d="M702.5414,-184.9776C715.4594,-158.424 735.5152,-117.1983 748.7033,-90.0894"/>
<polygon fill="#000000" stroke="#000000" points="751.998,-91.3175 753.2254,-80.794 745.7034,-88.2552 751.998,-91.3175"/>
</g>
<!-- Cone_Cone_sind&#45;&gt;Cone_Cone -->
<g id="edge43" class="edge">
<title>Cone_Cone_sind&#45;&gt;Cone_Cone</title>
<path fill="none" stroke="#000000" d="M736.9874,-192.013C811.6961,-162.2101 956.045,-104.6261 1023.9642,-77.5317"/>
<polygon fill="#000000" stroke="#000000" points="1025.4217,-80.7185 1033.4131,-73.7623 1022.828,-74.2168 1025.4217,-80.7185"/>
</g>
<!-- Cone_Cone_rec -->
<g id="node24" class="node">
<title>Cone_Cone_rec</title>
<g id="a_node24"><a xlink:href="Cone.html#Cone_rec" xlink:title="Cone_rec">
<ellipse fill="#f070d1" stroke="#000000" cx="536" cy="-372.7573" rx="54.6783" ry="18"/>
<ellipse fill="none" stroke="#000000" cx="536" cy="-372.7573" rx="58.6844" ry="22"/>
<ellipse fill="none" stroke="#000000" cx="536" cy="-372.7573" rx="62.6905" ry="26"/>
<text text-anchor="middle" x="536" y="-369.0573" font-family="Times,serif" font-size="14.00" fill="#000000">Cone_rec</text>
</a>
</g>
</g>
<!-- Cone_Cone_rect -->
<g id="node26" class="node">
<title>Cone_Cone_rect</title>
<g id="a_node26"><a xlink:href="Cone.html#Cone_rect" xlink:title="Cone_rect">
<ellipse fill="#f070d1" stroke="#000000" cx="834" cy="-210.7573" rx="58.4896" ry="18"/>
<text text-anchor="middle" x="834" y="-207.0573" font-family="Times,serif" font-size="14.00" fill="#000000">Cone_rect</text>
</a>
</g>
</g>
<!-- Cone_Cone_rec&#45;&gt;Cone_Cone_rect -->
<g id="edge44" class="edge">
<title>Cone_Cone_rec&#45;&gt;Cone_Cone_rect</title>
<path fill="none" stroke="#000000" d="M574.0446,-352.0753C631.2687,-320.9669 738.8651,-262.4749 796.0396,-231.3934"/>
<polygon fill="#000000" stroke="#000000" points="797.9881,-234.318 805.1022,-226.4668 794.6448,-228.168 797.9881,-234.318"/>
</g>
<!-- Cone_Cone_ind -->
<g id="node25" class="node">
<title>Cone_Cone_ind</title>
<g id="a_node25"><a xlink:href="Cone.html#Cone_ind" xlink:title="Cone_ind">
<ellipse fill="#7fffd4" stroke="#000000" cx="972" cy="-210.7573" rx="53.8975" ry="18"/>
<ellipse fill="none" stroke="#000000" cx="972" cy="-210.7573" rx="57.894" ry="22"/>
<ellipse fill="none" stroke="#000000" cx="972" cy="-210.7573" rx="61.8905" ry="26"/>
<text text-anchor="middle" x="972" y="-207.0573" font-family="Times,serif" font-size="14.00" fill="#000000">Cone_ind</text>
</a>
</g>
</g>
<!-- Cone_Cone_ind&#45;&gt;Cone_Build_Cone -->
<g id="edge45" class="edge">
<title>Cone_Cone_ind&#45;&gt;Cone_Build_Cone</title>
<path fill="none" stroke="#000000" d="M940.1055,-188.2793C900.7434,-160.5384 834.1704,-113.6202 794.5218,-85.6774"/>
<polygon fill="#000000" stroke="#000000" points="796.2016,-82.5794 786.0113,-79.6795 792.1691,-88.3012 796.2016,-82.5794"/>
</g>
<!-- Cone_Cone_ind&#45;&gt;Cone_Cone -->
<g id="edge46" class="edge">
<title>Cone_Cone_ind&#45;&gt;Cone_Cone</title>
<path fill="none" stroke="#000000" d="M987.2996,-185.3152C1003.5531,-158.2869 1029.1116,-115.7852 1045.4571,-88.6038"/>
<polygon fill="#000000" stroke="#000000" points="1048.4664,-90.3912 1050.6205,-80.0176 1042.4675,-86.7837 1048.4664,-90.3912"/>
</g>
<!-- Cone_Cone_rect&#45;&gt;Cone_Build_Cone -->
<g id="edge47" class="edge">
<title>Cone_Cone_rect&#45;&gt;Cone_Build_Cone</title>
<path fill="none" stroke="#000000" d="M825.3151,-192.905C812.8278,-167.2367 789.7036,-119.7036 775.1246,-89.7355"/>
<polygon fill="#000000" stroke="#000000" points="778.2377,-88.1341 770.7157,-80.6729 771.9431,-91.1964 778.2377,-88.1341"/>
</g>
<!-- Cone_Cone_rect&#45;&gt;Cone_Cone -->
<g id="edge48" class="edge">
<title>Cone_Cone_rect&#45;&gt;Cone_Cone</title>
<path fill="none" stroke="#000000" d="M859.1603,-194.3532C901.2576,-166.9065 985.7868,-111.795 1030.9432,-82.3538"/>
<polygon fill="#000000" stroke="#000000" points="1032.96,-85.2171 1039.4253,-76.8236 1029.1369,-79.3533 1032.96,-85.2171"/>
</g>
</g>
</svg>
