<?xml version="1.0" encoding="UTF-8" standalone="no"?>
<!DOCTYPE svg PUBLIC "-//W3C//DTD SVG 1.1//EN"
 "http://www.w3.org/Graphics/SVG/1.1/DTD/svg11.dtd">
<!-- Generated by graphviz version 2.40.1 (20161225.0304)
 -->
<!-- Title: HoTT_Algebra_Groups_QuotientGroup Pages: 1 -->
<svg width="1758pt" height="883pt"
 viewBox="0.00 0.00 1758.00 883.00" xmlns="http://www.w3.org/2000/svg" xmlns:xlink="http://www.w3.org/1999/xlink">
<g id="graph0" class="graph" transform="scale(1 1) rotate(0) translate(4 879)">
<title>HoTT_Algebra_Groups_QuotientGroup</title>
<polygon fill="#ffffff" stroke="transparent" points="-4,4 -4,-879 1754,-879 1754,4 -4,4"/>
<g id="clust1" class="cluster">
<title>cluster_QuotientGroup</title>
<polygon fill="#ffffc3" stroke="#000000" points="10.1523,-8 10.1523,-867 1739.8477,-867 1739.8477,-8 10.1523,-8"/>
<text text-anchor="middle" x="72.1523" y="-851.8" font-family="Times,serif" font-size="14.00" fill="#000000">QuotientGroup</text>
</g>
<!-- QuotientGroup_grp_kernel_quotient_iso -->
<g id="node1" class="node">
<title>QuotientGroup_grp_kernel_quotient_iso</title>
<g id="a_node1"><a xlink:href="QuotientGroup.html#grp_kernel_quotient_iso" xlink:title="grp_kernel_quotient_iso">
<ellipse fill="#f070d1" stroke="#000000" cx="1498.2386" cy="-634" rx="123.4788" ry="18"/>
<ellipse fill="none" stroke="#000000" cx="1498.2386" cy="-634" rx="127.4784" ry="22"/>
<ellipse fill="none" stroke="#000000" cx="1498.2386" cy="-634" rx="131.4781" ry="26"/>
<text text-anchor="middle" x="1498.2386" y="-630.3" font-family="Times,serif" font-size="14.00" fill="#000000">grp_kernel_quotient_iso</text>
</a>
</g>
</g>
<!-- QuotientGroup_grp_quotient_map -->
<g id="node12" class="node">
<title>QuotientGroup_grp_quotient_map</title>
<g id="a_node12"><a xlink:href="QuotientGroup.html#grp_quotient_map" xlink:title="grp_quotient_map">
<ellipse fill="#f070d1" stroke="#000000" cx="1014.2386" cy="-546" rx="95.5831" ry="18"/>
<text text-anchor="middle" x="1014.2386" y="-542.3" font-family="Times,serif" font-size="14.00" fill="#000000">grp_quotient_map</text>
</a>
</g>
</g>
<!-- QuotientGroup_grp_kernel_quotient_iso&#45;&gt;QuotientGroup_grp_quotient_map -->
<g id="edge1" class="edge">
<title>QuotientGroup_grp_kernel_quotient_iso&#45;&gt;QuotientGroup_grp_quotient_map</title>
<path fill="none" stroke="#000000" d="M1401.1668,-616.3506C1310.6087,-599.8855 1177.1842,-575.6265 1093.0441,-560.3283"/>
<polygon fill="#000000" stroke="#000000" points="1093.4985,-556.8536 1083.0336,-558.5082 1092.2462,-563.7407 1093.4985,-556.8536"/>
</g>
<!-- QuotientGroup_finite_quotientgroup -->
<g id="node2" class="node">
<title>QuotientGroup_finite_quotientgroup</title>
<g id="a_node2"><a xlink:href="QuotientGroup.html#finite_quotientgroup" xlink:title="finite_quotientgroup">
<ellipse fill="#f070d1" stroke="#000000" cx="1303.2386" cy="-546" rx="106.6748" ry="18"/>
<ellipse fill="none" stroke="#000000" cx="1303.2386" cy="-546" rx="110.678" ry="22"/>
<ellipse fill="none" stroke="#000000" cx="1303.2386" cy="-546" rx="114.6812" ry="26"/>
<text text-anchor="middle" x="1303.2386" y="-542.3" font-family="Times,serif" font-size="14.00" fill="#000000">finite_quotientgroup</text>
</a>
</g>
</g>
<!-- QuotientGroup_QuotientGroup -->
<g id="node13" class="node">
<title>QuotientGroup_QuotientGroup</title>
<g id="a_node13"><a xlink:href="QuotientGroup.html#QuotientGroup" xlink:title="QuotientGroup">
<ellipse fill="#f070d1" stroke="#000000" cx="754.2386" cy="-466" rx="80.6858" ry="18"/>
<text text-anchor="middle" x="754.2386" y="-462.3" font-family="Times,serif" font-size="14.00" fill="#000000">QuotientGroup</text>
</a>
</g>
</g>
<!-- QuotientGroup_finite_quotientgroup&#45;&gt;QuotientGroup_QuotientGroup -->
<g id="edge2" class="edge">
<title>QuotientGroup_finite_quotientgroup&#45;&gt;QuotientGroup_QuotientGroup</title>
<path fill="none" stroke="#000000" d="M1206.6672,-531.9277C1100.136,-516.404 930.7812,-491.7257 832.2933,-477.3741"/>
<polygon fill="#000000" stroke="#000000" points="832.5095,-473.8687 822.1093,-475.8901 831.5,-480.7956 832.5095,-473.8687"/>
</g>
<!-- QuotientGroup_grp_first_iso -->
<g id="node3" class="node">
<title>QuotientGroup_grp_first_iso</title>
<g id="a_node3"><a xlink:href="QuotientGroup.html#grp_first_iso" xlink:title="grp_first_iso">
<ellipse fill="#f070d1" stroke="#000000" cx="505.2386" cy="-810" rx="69.5832" ry="18"/>
<ellipse fill="none" stroke="#000000" cx="505.2386" cy="-810" rx="73.5854" ry="22"/>
<ellipse fill="none" stroke="#000000" cx="505.2386" cy="-810" rx="77.5877" ry="26"/>
<text text-anchor="middle" x="505.2386" y="-806.3" font-family="Times,serif" font-size="14.00" fill="#000000">grp_first_iso</text>
</a>
</g>
</g>
<!-- QuotientGroup_isequiv_grp_image_quotient -->
<g id="node4" class="node">
<title>QuotientGroup_isequiv_grp_image_quotient</title>
<g id="a_node4"><a xlink:href="QuotientGroup.html#isequiv_grp_image_quotient" xlink:title="isequiv_grp_image_quotient">
<ellipse fill="#f070d1" stroke="#000000" cx="505.2386" cy="-722" rx="141.8751" ry="18"/>
<text text-anchor="middle" x="505.2386" y="-718.3" font-family="Times,serif" font-size="14.00" fill="#000000">isequiv_grp_image_quotient</text>
</a>
</g>
</g>
<!-- QuotientGroup_grp_first_iso&#45;&gt;QuotientGroup_isequiv_grp_image_quotient -->
<g id="edge3" class="edge">
<title>QuotientGroup_grp_first_iso&#45;&gt;QuotientGroup_isequiv_grp_image_quotient</title>
<path fill="none" stroke="#000000" d="M505.2386,-783.5971C505.2386,-773.0414 505.2386,-760.868 505.2386,-750.1448"/>
<polygon fill="#000000" stroke="#000000" points="508.7387,-750.0188 505.2386,-740.0188 501.7387,-750.0188 508.7387,-750.0188"/>
</g>
<!-- QuotientGroup_grp_image_quotient -->
<g id="node5" class="node">
<title>QuotientGroup_grp_image_quotient</title>
<g id="a_node5"><a xlink:href="QuotientGroup.html#grp_image_quotient" xlink:title="grp_image_quotient">
<ellipse fill="#f070d1" stroke="#000000" cx="515.2386" cy="-634" rx="103.9815" ry="18"/>
<text text-anchor="middle" x="515.2386" y="-630.3" font-family="Times,serif" font-size="14.00" fill="#000000">grp_image_quotient</text>
</a>
</g>
</g>
<!-- QuotientGroup_isequiv_grp_image_quotient&#45;&gt;QuotientGroup_grp_image_quotient -->
<g id="edge4" class="edge">
<title>QuotientGroup_isequiv_grp_image_quotient&#45;&gt;QuotientGroup_grp_image_quotient</title>
<path fill="none" stroke="#000000" d="M507.3106,-703.7663C508.6648,-691.8492 510.4615,-676.0384 512.002,-662.4817"/>
<polygon fill="#000000" stroke="#000000" points="515.5177,-662.5416 513.1692,-652.2103 508.5624,-661.7511 515.5177,-662.5416"/>
</g>
<!-- QuotientGroup_grp_quotient_rec -->
<g id="node11" class="node">
<title>QuotientGroup_grp_quotient_rec</title>
<g id="a_node11"><a xlink:href="QuotientGroup.html#grp_quotient_rec" xlink:title="grp_quotient_rec">
<ellipse fill="#f070d1" stroke="#000000" cx="754.2386" cy="-546" rx="90.9839" ry="18"/>
<text text-anchor="middle" x="754.2386" y="-542.3" font-family="Times,serif" font-size="14.00" fill="#000000">grp_quotient_rec</text>
</a>
</g>
</g>
<!-- QuotientGroup_grp_image_quotient&#45;&gt;QuotientGroup_grp_quotient_rec -->
<g id="edge5" class="edge">
<title>QuotientGroup_grp_image_quotient&#45;&gt;QuotientGroup_grp_quotient_rec</title>
<path fill="none" stroke="#000000" d="M559.6325,-617.6541C599.7089,-602.8979 658.738,-581.1634 701.267,-565.5042"/>
<polygon fill="#000000" stroke="#000000" points="702.7135,-568.7014 710.8882,-561.9616 700.2948,-562.1325 702.7135,-568.7014"/>
</g>
<!-- QuotientGroup_equiv_grp_quotient_ump -->
<g id="node6" class="node">
<title>QuotientGroup_equiv_grp_quotient_ump</title>
<g id="a_node6"><a xlink:href="QuotientGroup.html#equiv_grp_quotient_ump" xlink:title="equiv_grp_quotient_ump">
<ellipse fill="#f070d1" stroke="#000000" cx="878.2386" cy="-722" rx="126.1724" ry="18"/>
<ellipse fill="none" stroke="#000000" cx="878.2386" cy="-722" rx="130.175" ry="22"/>
<ellipse fill="none" stroke="#000000" cx="878.2386" cy="-722" rx="134.1777" ry="26"/>
<text text-anchor="middle" x="878.2386" y="-718.3" font-family="Times,serif" font-size="14.00" fill="#000000">equiv_grp_quotient_ump</text>
</a>
</g>
</g>
<!-- QuotientGroup_grp_quotient_rec_beta -->
<g id="node9" class="node">
<title>QuotientGroup_grp_quotient_rec_beta</title>
<g id="a_node9"><a xlink:href="QuotientGroup.html#grp_quotient_rec_beta" xlink:title="grp_quotient_rec_beta">
<ellipse fill="#f070d1" stroke="#000000" cx="817.2386" cy="-634" rx="116.1796" ry="18"/>
<text text-anchor="middle" x="817.2386" y="-630.3" font-family="Times,serif" font-size="14.00" fill="#000000">grp_quotient_rec_beta</text>
</a>
</g>
</g>
<!-- QuotientGroup_equiv_grp_quotient_ump&#45;&gt;QuotientGroup_grp_quotient_rec_beta -->
<g id="edge6" class="edge">
<title>QuotientGroup_equiv_grp_quotient_ump&#45;&gt;QuotientGroup_grp_quotient_rec_beta</title>
<path fill="none" stroke="#000000" d="M860.2665,-696.0731C852.4251,-684.7609 843.2465,-671.5197 835.3854,-660.1791"/>
<polygon fill="#000000" stroke="#000000" points="838.2483,-658.1654 829.6748,-651.9407 832.4953,-662.1533 838.2483,-658.1654"/>
</g>
<!-- QuotientGroup_grp_iso_quotient_normal -->
<g id="node7" class="node">
<title>QuotientGroup_grp_iso_quotient_normal</title>
<g id="a_node7"><a xlink:href="QuotientGroup.html#grp_iso_quotient_normal" xlink:title="grp_iso_quotient_normal">
<ellipse fill="#f070d1" stroke="#000000" cx="190.2386" cy="-634" rx="126.1724" ry="18"/>
<ellipse fill="none" stroke="#000000" cx="190.2386" cy="-634" rx="130.175" ry="22"/>
<ellipse fill="none" stroke="#000000" cx="190.2386" cy="-634" rx="134.1777" ry="26"/>
<text text-anchor="middle" x="190.2386" y="-630.3" font-family="Times,serif" font-size="14.00" fill="#000000">grp_iso_quotient_normal</text>
</a>
</g>
</g>
<!-- QuotientGroup_QuotientGroup_ -->
<g id="node10" class="node">
<title>QuotientGroup_QuotientGroup_</title>
<g id="a_node10"><a xlink:href="QuotientGroup.html#QuotientGroup'" xlink:title="QuotientGroup&#39;">
<ellipse fill="#f070d1" stroke="#000000" cx="445.2386" cy="-546" rx="83.3857" ry="18"/>
<text text-anchor="middle" x="445.2386" y="-542.3" font-family="Times,serif" font-size="14.00" fill="#000000">QuotientGroup&#39;</text>
</a>
</g>
</g>
<!-- QuotientGroup_grp_iso_quotient_normal&#45;&gt;QuotientGroup_QuotientGroup_ -->
<g id="edge7" class="edge">
<title>QuotientGroup_grp_iso_quotient_normal&#45;&gt;QuotientGroup_QuotientGroup_</title>
<path fill="none" stroke="#000000" d="M256.239,-611.2234C298.1395,-596.7636 351.6923,-578.2826 391.0873,-564.6875"/>
<polygon fill="#000000" stroke="#000000" points="392.4711,-567.9126 400.7823,-561.3418 390.1875,-561.2955 392.4711,-567.9126"/>
</g>
<!-- QuotientGroup_grp_quotient_rec_beta_ -->
<g id="node8" class="node">
<title>QuotientGroup_grp_quotient_rec_beta_</title>
<g id="a_node8"><a xlink:href="QuotientGroup.html#grp_quotient_rec_beta'" xlink:title="grp_quotient_rec_beta&#39;">
<ellipse fill="#f070d1" stroke="#000000" cx="1148.2386" cy="-634" rx="118.0927" ry="18"/>
<ellipse fill="none" stroke="#000000" cx="1148.2386" cy="-634" rx="122.086" ry="22"/>
<ellipse fill="none" stroke="#000000" cx="1148.2386" cy="-634" rx="126.0794" ry="26"/>
<text text-anchor="middle" x="1148.2386" y="-630.3" font-family="Times,serif" font-size="14.00" fill="#000000">grp_quotient_rec_beta&#39;</text>
</a>
</g>
</g>
<!-- QuotientGroup_grp_quotient_rec_beta_&#45;&gt;QuotientGroup_grp_quotient_rec -->
<g id="edge8" class="edge">
<title>QuotientGroup_grp_quotient_rec_beta_&#45;&gt;QuotientGroup_grp_quotient_rec</title>
<path fill="none" stroke="#000000" d="M1062.2605,-614.7968C991.0806,-598.8987 891.1892,-576.588 824.677,-561.7324"/>
<polygon fill="#000000" stroke="#000000" points="825.2286,-558.2695 814.7061,-559.5054 823.7027,-565.1011 825.2286,-558.2695"/>
</g>
<!-- QuotientGroup_grp_quotient_rec_beta_&#45;&gt;QuotientGroup_grp_quotient_map -->
<g id="edge9" class="edge">
<title>QuotientGroup_grp_quotient_rec_beta_&#45;&gt;QuotientGroup_grp_quotient_map</title>
<path fill="none" stroke="#000000" d="M1110.198,-609.0181C1091.0941,-596.4723 1068.1005,-581.372 1049.4111,-569.0984"/>
<polygon fill="#000000" stroke="#000000" points="1051.1679,-566.0648 1040.8879,-563.5011 1047.3254,-571.9159 1051.1679,-566.0648"/>
</g>
<!-- QuotientGroup_grp_quotient_rec_beta&#45;&gt;QuotientGroup_grp_quotient_rec -->
<g id="edge10" class="edge">
<title>QuotientGroup_grp_quotient_rec_beta&#45;&gt;QuotientGroup_grp_quotient_rec</title>
<path fill="none" stroke="#000000" d="M804.1849,-615.7663C795.1713,-603.1758 783.0462,-586.2393 773.0001,-572.2065"/>
<polygon fill="#000000" stroke="#000000" points="775.727,-570.0029 767.0599,-563.9092 770.0352,-574.0777 775.727,-570.0029"/>
</g>
<!-- QuotientGroup_grp_quotient_rec_beta&#45;&gt;QuotientGroup_grp_quotient_map -->
<g id="edge11" class="edge">
<title>QuotientGroup_grp_quotient_rec_beta&#45;&gt;QuotientGroup_grp_quotient_map</title>
<path fill="none" stroke="#000000" d="M855.6898,-616.8238C887.7257,-602.5134 933.4654,-582.0814 967.5906,-566.8377"/>
<polygon fill="#000000" stroke="#000000" points="969.1837,-569.9594 976.8867,-562.6851 966.3287,-563.5681 969.1837,-569.9594"/>
</g>
<!-- QuotientGroup_QuotientGroup_&#45;&gt;QuotientGroup_QuotientGroup -->
<g id="edge12" class="edge">
<title>QuotientGroup_QuotientGroup_&#45;&gt;QuotientGroup_QuotientGroup</title>
<path fill="none" stroke="#000000" d="M498.7095,-532.1564C552.3201,-518.2766 634.831,-496.9146 691.505,-482.2417"/>
<polygon fill="#000000" stroke="#000000" points="692.6185,-485.5689 701.422,-479.6742 690.864,-478.7923 692.6185,-485.5689"/>
</g>
<!-- QuotientGroup_grp_quotient_rec&#45;&gt;QuotientGroup_QuotientGroup -->
<g id="edge13" class="edge">
<title>QuotientGroup_grp_quotient_rec&#45;&gt;QuotientGroup_QuotientGroup</title>
<path fill="none" stroke="#000000" d="M754.2386,-527.8468C754.2386,-517.9251 754.2386,-505.4167 754.2386,-494.2492"/>
<polygon fill="#000000" stroke="#000000" points="757.7387,-494.0814 754.2386,-484.0814 750.7387,-494.0814 757.7387,-494.0814"/>
</g>
<!-- QuotientGroup_grp_quotient_map&#45;&gt;QuotientGroup_QuotientGroup -->
<g id="edge14" class="edge">
<title>QuotientGroup_grp_quotient_map&#45;&gt;QuotientGroup_QuotientGroup</title>
<path fill="none" stroke="#000000" d="M964.108,-530.5752C920.3903,-517.1236 856.9974,-497.6181 811.3365,-483.5686"/>
<polygon fill="#000000" stroke="#000000" points="812.1736,-480.1643 801.5865,-480.5686 810.115,-486.8548 812.1736,-480.1643"/>
</g>
<!-- QuotientGroup_iscongruence_in_cosetL -->
<g id="node15" class="node">
<title>QuotientGroup_iscongruence_in_cosetL</title>
<g id="a_node15"><a xlink:href="QuotientGroup.html#iscongruence_in_cosetL" xlink:title="iscongruence_in_cosetL">
<ellipse fill="#f070d1" stroke="#000000" cx="426.2386" cy="-394" rx="122.6784" ry="18"/>
<text text-anchor="middle" x="426.2386" y="-390.3" font-family="Times,serif" font-size="14.00" fill="#000000">iscongruence_in_cosetL</text>
</a>
</g>
</g>
<!-- QuotientGroup_QuotientGroup&#45;&gt;QuotientGroup_iscongruence_in_cosetL -->
<g id="edge15" class="edge">
<title>QuotientGroup_QuotientGroup&#45;&gt;QuotientGroup_iscongruence_in_cosetL</title>
<path fill="none" stroke="#000000" d="M696.73,-453.3762C643.41,-441.6718 563.6312,-424.1594 504.5191,-411.1835"/>
<polygon fill="#000000" stroke="#000000" points="504.9945,-407.7046 494.4766,-408.9791 503.4936,-414.5418 504.9945,-407.7046"/>
</g>
<!-- QuotientGroup_isgroup_quotientgroup -->
<g id="node16" class="node">
<title>QuotientGroup_isgroup_quotientgroup</title>
<g id="a_node16"><a xlink:href="QuotientGroup.html#isgroup_quotientgroup" xlink:title="isgroup_quotientgroup">
<ellipse fill="#f070d1" stroke="#000000" cx="754.2386" cy="-394" rx="116.9792" ry="18"/>
<text text-anchor="middle" x="754.2386" y="-390.3" font-family="Times,serif" font-size="14.00" fill="#000000">isgroup_quotientgroup</text>
</a>
</g>
</g>
<!-- QuotientGroup_QuotientGroup&#45;&gt;QuotientGroup_isgroup_quotientgroup -->
<g id="edge16" class="edge">
<title>QuotientGroup_QuotientGroup&#45;&gt;QuotientGroup_isgroup_quotientgroup</title>
<path fill="none" stroke="#000000" d="M754.2386,-447.8314C754.2386,-440.131 754.2386,-430.9743 754.2386,-422.4166"/>
<polygon fill="#000000" stroke="#000000" points="757.7387,-422.4132 754.2386,-412.4133 750.7387,-422.4133 757.7387,-422.4132"/>
</g>
<!-- QuotientGroup_iscongruence_in_cosetR -->
<g id="node14" class="node">
<title>QuotientGroup_iscongruence_in_cosetR</title>
<g id="a_node14"><a xlink:href="QuotientGroup.html#iscongruence_in_cosetR" xlink:title="iscongruence_in_cosetR">
<ellipse fill="#f070d1" stroke="#000000" cx="207.2386" cy="-810" rx="123.4788" ry="18"/>
<ellipse fill="none" stroke="#000000" cx="207.2386" cy="-810" rx="127.4784" ry="22"/>
<ellipse fill="none" stroke="#000000" cx="207.2386" cy="-810" rx="131.4781" ry="26"/>
<text text-anchor="middle" x="207.2386" y="-806.3" font-family="Times,serif" font-size="14.00" fill="#000000">iscongruence_in_cosetR</text>
</a>
</g>
</g>
<!-- QuotientGroup_quotientgroup_rightinverse -->
<g id="node17" class="node">
<title>QuotientGroup_quotientgroup_rightinverse</title>
<g id="a_node17"><a xlink:href="QuotientGroup.html#quotientgroup_rightinverse" xlink:title="quotientgroup_rightinverse">
<ellipse fill="#f070d1" stroke="#000000" cx="196.2386" cy="-178" rx="139.1754" ry="18"/>
<text text-anchor="middle" x="196.2386" y="-174.3" font-family="Times,serif" font-size="14.00" fill="#000000">quotientgroup_rightinverse</text>
</a>
</g>
</g>
<!-- QuotientGroup_isgroup_quotientgroup&#45;&gt;QuotientGroup_quotientgroup_rightinverse -->
<g id="edge17" class="edge">
<title>QuotientGroup_isgroup_quotientgroup&#45;&gt;QuotientGroup_quotientgroup_rightinverse</title>
<path fill="none" stroke="#000000" d="M710.9176,-377.2306C610.2501,-338.2625 360.7313,-241.6746 250.3012,-198.9274"/>
<polygon fill="#000000" stroke="#000000" points="251.2796,-195.5532 240.6905,-195.2072 248.7526,-202.0812 251.2796,-195.5532"/>
</g>
<!-- QuotientGroup_quotientgroup_leftinverse -->
<g id="node18" class="node">
<title>QuotientGroup_quotientgroup_leftinverse</title>
<g id="a_node18"><a xlink:href="QuotientGroup.html#quotientgroup_leftinverse" xlink:title="quotientgroup_leftinverse">
<ellipse fill="#f070d1" stroke="#000000" cx="563.2386" cy="-178" rx="131.8766" ry="18"/>
<text text-anchor="middle" x="563.2386" y="-174.3" font-family="Times,serif" font-size="14.00" fill="#000000">quotientgroup_leftinverse</text>
</a>
</g>
</g>
<!-- QuotientGroup_isgroup_quotientgroup&#45;&gt;QuotientGroup_quotientgroup_leftinverse -->
<g id="edge18" class="edge">
<title>QuotientGroup_isgroup_quotientgroup&#45;&gt;QuotientGroup_quotientgroup_leftinverse</title>
<path fill="none" stroke="#000000" d="M738.2825,-375.9555C704.4363,-337.6791 625.3415,-248.2316 586.1226,-203.8793"/>
<polygon fill="#000000" stroke="#000000" points="588.5298,-201.3179 579.2835,-196.1451 583.2858,-205.9549 588.5298,-201.3179"/>
</g>
<!-- QuotientGroup_ismonoid_quotientgroup -->
<g id="node19" class="node">
<title>QuotientGroup_ismonoid_quotientgroup</title>
<g id="a_node19"><a xlink:href="QuotientGroup.html#ismonoid_quotientgroup" xlink:title="ismonoid_quotientgroup">
<ellipse fill="#f070d1" stroke="#000000" cx="1051.2386" cy="-322" rx="124.2781" ry="18"/>
<text text-anchor="middle" x="1051.2386" y="-318.3" font-family="Times,serif" font-size="14.00" fill="#000000">ismonoid_quotientgroup</text>
</a>
</g>
</g>
<!-- QuotientGroup_isgroup_quotientgroup&#45;&gt;QuotientGroup_ismonoid_quotientgroup -->
<g id="edge19" class="edge">
<title>QuotientGroup_isgroup_quotientgroup&#45;&gt;QuotientGroup_ismonoid_quotientgroup</title>
<path fill="none" stroke="#000000" d="M817.2246,-378.7307C864.0594,-367.3768 928.1089,-351.8496 977.3611,-339.9097"/>
<polygon fill="#000000" stroke="#000000" points="978.4255,-343.2531 987.3194,-337.4956 976.7763,-336.4502 978.4255,-343.2531"/>
</g>
<!-- QuotientGroup_congquot_negate -->
<g id="node24" class="node">
<title>QuotientGroup_congquot_negate</title>
<g id="a_node24"><a xlink:href="QuotientGroup.html#congquot_negate" xlink:title="congquot_negate">
<ellipse fill="#f070d1" stroke="#000000" cx="368.2386" cy="-106" rx="90.9839" ry="18"/>
<text text-anchor="middle" x="368.2386" y="-102.3" font-family="Times,serif" font-size="14.00" fill="#000000">congquot_negate</text>
</a>
</g>
</g>
<!-- QuotientGroup_quotientgroup_rightinverse&#45;&gt;QuotientGroup_congquot_negate -->
<g id="edge20" class="edge">
<title>QuotientGroup_quotientgroup_rightinverse&#45;&gt;QuotientGroup_congquot_negate</title>
<path fill="none" stroke="#000000" d="M237.4369,-160.7542C262.2208,-150.3795 293.892,-137.1218 319.862,-126.2507"/>
<polygon fill="#000000" stroke="#000000" points="321.2757,-129.4532 329.1486,-122.3632 318.5727,-122.9961 321.2757,-129.4532"/>
</g>
<!-- QuotientGroup_congquot_mon_unit -->
<g id="node25" class="node">
<title>QuotientGroup_congquot_mon_unit</title>
<g id="a_node25"><a xlink:href="QuotientGroup.html#congquot_mon_unit" xlink:title="congquot_mon_unit">
<ellipse fill="#f070d1" stroke="#000000" cx="637.2386" cy="-106" rx="102.8821" ry="18"/>
<text text-anchor="middle" x="637.2386" y="-102.3" font-family="Times,serif" font-size="14.00" fill="#000000">congquot_mon_unit</text>
</a>
</g>
</g>
<!-- QuotientGroup_quotientgroup_rightinverse&#45;&gt;QuotientGroup_congquot_mon_unit -->
<g id="edge21" class="edge">
<title>QuotientGroup_quotientgroup_rightinverse&#45;&gt;QuotientGroup_congquot_mon_unit</title>
<path fill="none" stroke="#000000" d="M282.8398,-163.861C360.6203,-151.1622 474.1751,-132.6226 551.6448,-119.9745"/>
<polygon fill="#000000" stroke="#000000" points="552.5494,-123.3732 561.8548,-118.3076 551.4214,-116.4647 552.5494,-123.3732"/>
</g>
<!-- QuotientGroup_congquot_sgop -->
<g id="node26" class="node">
<title>QuotientGroup_congquot_sgop</title>
<g id="a_node26"><a xlink:href="QuotientGroup.html#congquot_sgop" xlink:title="congquot_sgop">
<ellipse fill="#f070d1" stroke="#000000" cx="893.2386" cy="-106" rx="81.4863" ry="18"/>
<text text-anchor="middle" x="893.2386" y="-102.3" font-family="Times,serif" font-size="14.00" fill="#000000">congquot_sgop</text>
</a>
</g>
</g>
<!-- QuotientGroup_quotientgroup_rightinverse&#45;&gt;QuotientGroup_congquot_sgop -->
<g id="edge22" class="edge">
<title>QuotientGroup_quotientgroup_rightinverse&#45;&gt;QuotientGroup_congquot_sgop</title>
<path fill="none" stroke="#000000" d="M310.7167,-167.7307C422.615,-157.4781 597.7615,-140.86 749.2386,-124 769.8965,-121.7007 792.1949,-119.014 812.931,-116.4283"/>
<polygon fill="#000000" stroke="#000000" points="813.4842,-119.8864 822.971,-115.1693 812.6132,-112.9408 813.4842,-119.8864"/>
</g>
<!-- QuotientGroup_quotientgroup_leftinverse&#45;&gt;QuotientGroup_congquot_negate -->
<g id="edge23" class="edge">
<title>QuotientGroup_quotientgroup_leftinverse&#45;&gt;QuotientGroup_congquot_negate</title>
<path fill="none" stroke="#000000" d="M517.0263,-160.937C488.1643,-150.2803 450.9201,-136.5286 420.9151,-125.4498"/>
<polygon fill="#000000" stroke="#000000" points="422.0406,-122.1345 411.4473,-121.954 419.616,-128.7011 422.0406,-122.1345"/>
</g>
<!-- QuotientGroup_quotientgroup_leftinverse&#45;&gt;QuotientGroup_congquot_mon_unit -->
<g id="edge24" class="edge">
<title>QuotientGroup_quotientgroup_leftinverse&#45;&gt;QuotientGroup_congquot_mon_unit</title>
<path fill="none" stroke="#000000" d="M581.9119,-159.8314C590.9194,-151.0673 601.8655,-140.4171 611.6364,-130.9103"/>
<polygon fill="#000000" stroke="#000000" points="614.101,-133.3955 618.8276,-123.9134 609.2195,-128.3784 614.101,-133.3955"/>
</g>
<!-- QuotientGroup_quotientgroup_leftinverse&#45;&gt;QuotientGroup_congquot_sgop -->
<g id="edge25" class="edge">
<title>QuotientGroup_quotientgroup_leftinverse&#45;&gt;QuotientGroup_congquot_sgop</title>
<path fill="none" stroke="#000000" d="M633.2231,-162.7307C689.8905,-150.3668 769.2396,-133.0543 825.3405,-120.8141"/>
<polygon fill="#000000" stroke="#000000" points="826.1602,-124.2177 835.1843,-118.6664 824.668,-117.3786 826.1602,-124.2177"/>
</g>
<!-- QuotientGroup_congquot_rightidentity -->
<g id="node20" class="node">
<title>QuotientGroup_congquot_rightidentity</title>
<g id="a_node20"><a xlink:href="QuotientGroup.html#congquot_rightidentity" xlink:title="congquot_rightidentity">
<ellipse fill="#f070d1" stroke="#000000" cx="1207.2386" cy="-178" rx="118.0794" ry="18"/>
<text text-anchor="middle" x="1207.2386" y="-174.3" font-family="Times,serif" font-size="14.00" fill="#000000">congquot_rightidentity</text>
</a>
</g>
</g>
<!-- QuotientGroup_ismonoid_quotientgroup&#45;&gt;QuotientGroup_congquot_rightidentity -->
<g id="edge26" class="edge">
<title>QuotientGroup_ismonoid_quotientgroup&#45;&gt;QuotientGroup_congquot_rightidentity</title>
<path fill="none" stroke="#000000" d="M1070.6807,-304.0535C1098.2389,-278.615 1148.7795,-231.9622 1180.0439,-203.1028"/>
<polygon fill="#000000" stroke="#000000" points="1182.5774,-205.5274 1187.5515,-196.1727 1177.8294,-200.3837 1182.5774,-205.5274"/>
</g>
<!-- QuotientGroup_congquot_leftidentity -->
<g id="node21" class="node">
<title>QuotientGroup_congquot_leftidentity</title>
<g id="a_node21"><a xlink:href="QuotientGroup.html#congquot_leftidentity" xlink:title="congquot_leftidentity">
<ellipse fill="#f070d1" stroke="#000000" cx="893.2386" cy="-178" rx="110.4804" ry="18"/>
<text text-anchor="middle" x="893.2386" y="-174.3" font-family="Times,serif" font-size="14.00" fill="#000000">congquot_leftidentity</text>
</a>
</g>
</g>
<!-- QuotientGroup_ismonoid_quotientgroup&#45;&gt;QuotientGroup_congquot_leftidentity -->
<g id="edge27" class="edge">
<title>QuotientGroup_ismonoid_quotientgroup&#45;&gt;QuotientGroup_congquot_leftidentity</title>
<path fill="none" stroke="#000000" d="M1031.5472,-304.0535C1003.4831,-278.476 951.887,-231.4517 920.2645,-202.6313"/>
<polygon fill="#000000" stroke="#000000" points="922.4303,-199.8696 912.6817,-195.7204 917.7151,-205.0433 922.4303,-199.8696"/>
</g>
<!-- QuotientGroup_issemigroup_congquot -->
<g id="node22" class="node">
<title>QuotientGroup_issemigroup_congquot</title>
<g id="a_node22"><a xlink:href="QuotientGroup.html#issemigroup_congquot" xlink:title="issemigroup_congquot">
<ellipse fill="#f070d1" stroke="#000000" cx="1465.2386" cy="-250" rx="116.1796" ry="18"/>
<text text-anchor="middle" x="1465.2386" y="-246.3" font-family="Times,serif" font-size="14.00" fill="#000000">issemigroup_congquot</text>
</a>
</g>
</g>
<!-- QuotientGroup_ismonoid_quotientgroup&#45;&gt;QuotientGroup_issemigroup_congquot -->
<g id="edge28" class="edge">
<title>QuotientGroup_ismonoid_quotientgroup&#45;&gt;QuotientGroup_issemigroup_congquot</title>
<path fill="none" stroke="#000000" d="M1131.0619,-308.1177C1201.752,-295.8238 1304.7487,-277.9113 1377.6784,-265.2279"/>
<polygon fill="#000000" stroke="#000000" points="1378.5106,-268.6357 1387.763,-263.474 1377.3112,-261.7393 1378.5106,-268.6357"/>
</g>
<!-- QuotientGroup_congquot_rightidentity&#45;&gt;QuotientGroup_congquot_mon_unit -->
<g id="edge29" class="edge">
<title>QuotientGroup_congquot_rightidentity&#45;&gt;QuotientGroup_congquot_mon_unit</title>
<path fill="none" stroke="#000000" d="M1115.9744,-166.4719C1010.4039,-153.1367 837.4876,-131.2946 730.9071,-117.8318"/>
<polygon fill="#000000" stroke="#000000" points="731.1643,-114.3366 720.8045,-116.5557 730.287,-121.2814 731.1643,-114.3366"/>
</g>
<!-- QuotientGroup_congquot_rightidentity&#45;&gt;QuotientGroup_congquot_sgop -->
<g id="edge30" class="edge">
<title>QuotientGroup_congquot_rightidentity&#45;&gt;QuotientGroup_congquot_sgop</title>
<path fill="none" stroke="#000000" d="M1141.7961,-162.9941C1088.4123,-150.7532 1013.3199,-133.5346 959.6703,-121.2327"/>
<polygon fill="#000000" stroke="#000000" points="960.4416,-117.8189 949.9123,-118.9953 958.8771,-124.6418 960.4416,-117.8189"/>
</g>
<!-- QuotientGroup_congquot_leftidentity&#45;&gt;QuotientGroup_congquot_mon_unit -->
<g id="edge31" class="edge">
<title>QuotientGroup_congquot_leftidentity&#45;&gt;QuotientGroup_congquot_mon_unit</title>
<path fill="none" stroke="#000000" d="M837.6904,-162.3771C797.6653,-151.12 743.5473,-135.8993 701.6312,-124.1104"/>
<polygon fill="#000000" stroke="#000000" points="702.373,-120.6833 691.7989,-121.3451 700.4778,-127.4219 702.373,-120.6833"/>
</g>
<!-- QuotientGroup_congquot_leftidentity&#45;&gt;QuotientGroup_congquot_sgop -->
<g id="edge32" class="edge">
<title>QuotientGroup_congquot_leftidentity&#45;&gt;QuotientGroup_congquot_sgop</title>
<path fill="none" stroke="#000000" d="M893.2386,-159.8314C893.2386,-152.131 893.2386,-142.9743 893.2386,-134.4166"/>
<polygon fill="#000000" stroke="#000000" points="896.7387,-134.4132 893.2386,-124.4133 889.7387,-134.4133 896.7387,-134.4132"/>
</g>
<!-- QuotientGroup_congquot_sgop_associative -->
<g id="node23" class="node">
<title>QuotientGroup_congquot_sgop_associative</title>
<g id="a_node23"><a xlink:href="QuotientGroup.html#congquot_sgop_associative" xlink:title="congquot_sgop_associative">
<ellipse fill="#f070d1" stroke="#000000" cx="1554.2386" cy="-178" rx="137.5759" ry="18"/>
<text text-anchor="middle" x="1554.2386" y="-174.3" font-family="Times,serif" font-size="14.00" fill="#000000">congquot_sgop_associative</text>
</a>
</g>
</g>
<!-- QuotientGroup_issemigroup_congquot&#45;&gt;QuotientGroup_congquot_sgop_associative -->
<g id="edge33" class="edge">
<title>QuotientGroup_issemigroup_congquot&#45;&gt;QuotientGroup_congquot_sgop_associative</title>
<path fill="none" stroke="#000000" d="M1487.2386,-232.2022C1498.3637,-223.2021 1512.035,-212.1423 1524.1205,-202.3652"/>
<polygon fill="#000000" stroke="#000000" points="1526.61,-204.8531 1532.1832,-195.8425 1522.2074,-199.411 1526.61,-204.8531"/>
</g>
<!-- QuotientGroup_congquot_sgop_associative&#45;&gt;QuotientGroup_congquot_sgop -->
<g id="edge34" class="edge">
<title>QuotientGroup_congquot_sgop_associative&#45;&gt;QuotientGroup_congquot_sgop</title>
<path fill="none" stroke="#000000" d="M1448.4041,-166.4719C1317.2811,-152.1892 1096.5685,-128.1479 976.7372,-115.0952"/>
<polygon fill="#000000" stroke="#000000" points="976.8415,-111.5859 966.5213,-113.9824 976.0835,-118.5447 976.8415,-111.5859"/>
</g>
<!-- QuotientGroup_CongruenceQuotient -->
<g id="node27" class="node">
<title>QuotientGroup_CongruenceQuotient</title>
<g id="a_node27"><a xlink:href="QuotientGroup.html#CongruenceQuotient" xlink:title="CongruenceQuotient">
<ellipse fill="#f070d1" stroke="#000000" cx="637.2386" cy="-34" rx="108.5808" ry="18"/>
<text text-anchor="middle" x="637.2386" y="-30.3" font-family="Times,serif" font-size="14.00" fill="#000000">CongruenceQuotient</text>
</a>
</g>
</g>
<!-- QuotientGroup_congquot_negate&#45;&gt;QuotientGroup_CongruenceQuotient -->
<g id="edge35" class="edge">
<title>QuotientGroup_congquot_negate&#45;&gt;QuotientGroup_CongruenceQuotient</title>
<path fill="none" stroke="#000000" d="M422.3512,-91.5163C464.9457,-80.1156 524.53,-64.1673 570.1549,-51.9555"/>
<polygon fill="#000000" stroke="#000000" points="571.2054,-55.2976 579.9604,-49.331 569.3955,-48.5356 571.2054,-55.2976"/>
</g>
<!-- QuotientGroup_congquot_mon_unit&#45;&gt;QuotientGroup_CongruenceQuotient -->
<g id="edge36" class="edge">
<title>QuotientGroup_congquot_mon_unit&#45;&gt;QuotientGroup_CongruenceQuotient</title>
<path fill="none" stroke="#000000" d="M637.2386,-87.8314C637.2386,-80.131 637.2386,-70.9743 637.2386,-62.4166"/>
<polygon fill="#000000" stroke="#000000" points="640.7387,-62.4132 637.2386,-52.4133 633.7387,-62.4133 640.7387,-62.4132"/>
</g>
<!-- QuotientGroup_congquot_sgop&#45;&gt;QuotientGroup_CongruenceQuotient -->
<g id="edge37" class="edge">
<title>QuotientGroup_congquot_sgop&#45;&gt;QuotientGroup_CongruenceQuotient</title>
<path fill="none" stroke="#000000" d="M842.6612,-91.7751C802.4267,-80.4592 745.8443,-64.5454 702.2482,-52.284"/>
<polygon fill="#000000" stroke="#000000" points="703.1663,-48.9064 692.5922,-49.5682 701.2711,-55.645 703.1663,-48.9064"/>
</g>
</g>
</svg>
