<?xml version="1.0" encoding="UTF-8" standalone="no"?>
<!DOCTYPE svg PUBLIC "-//W3C//DTD SVG 1.1//EN"
 "http://www.w3.org/Graphics/SVG/1.1/DTD/svg11.dtd">
<!-- Generated by graphviz version 2.40.1 (20161225.0304)
 -->
<!-- Title: HoTT_Cubical_DPathSquare Pages: 1 -->
<svg width="2691pt" height="1350pt"
 viewBox="0.00 0.00 2691.00 1349.50" xmlns="http://www.w3.org/2000/svg" xmlns:xlink="http://www.w3.org/1999/xlink">
<g id="graph0" class="graph" transform="scale(1 1) rotate(0) translate(4 1345.5)">
<title>HoTT_Cubical_DPathSquare</title>
<polygon fill="#ffffff" stroke="transparent" points="-4,4 -4,-1345.5 2687,-1345.5 2687,4 -4,4"/>
<g id="clust1" class="cluster">
<title>cluster_DPathSquare</title>
<polygon fill="#ffffc3" stroke="#000000" points="8,-40.1948 8,-1301.3052 2675,-1301.3052 2675,-40.1948 8,-40.1948"/>
<text text-anchor="middle" x="63.5" y="-1286.1052" font-family="Times,serif" font-size="14.00" fill="#000000">DPathSquare</text>
</g>
<!-- DPathSquare_equiv_ds_transport_dpath -->
<g id="node1" class="node">
<title>DPathSquare_equiv_ds_transport_dpath</title>
<g id="a_node1"><a xlink:href="DPathSquare.html#equiv_ds_transport_dpath" xlink:title="equiv_ds_transport_dpath">
<ellipse fill="#f070d1" stroke="#000000" cx="2527" cy="-573.1948" rx="131.8801" ry="18"/>
<ellipse fill="none" stroke="#000000" cx="2527" cy="-573.1948" rx="135.8784" ry="22"/>
<ellipse fill="none" stroke="#000000" cx="2527" cy="-573.1948" rx="139.8766" ry="26"/>
<text text-anchor="middle" x="2527" y="-569.4948" font-family="Times,serif" font-size="14.00" fill="#000000">equiv_ds_transport_dpath</text>
</a>
</g>
</g>
<!-- DPathSquare_DPathSquare -->
<g id="node19" class="node">
<title>DPathSquare_DPathSquare</title>
<g id="a_node19"><a xlink:href="DPathSquare.html#DPathSquare" xlink:title="DPathSquare">
<ellipse fill="#f070d1" stroke="#000000" cx="1307" cy="-171.1948" rx="72.2875" ry="18"/>
<text text-anchor="middle" x="1307" y="-167.4948" font-family="Times,serif" font-size="14.00" fill="#000000">DPathSquare</text>
</a>
</g>
</g>
<!-- DPathSquare_equiv_ds_transport_dpath&#45;&gt;DPathSquare_DPathSquare -->
<g id="edge1" class="edge">
<title>DPathSquare_equiv_ds_transport_dpath&#45;&gt;DPathSquare_DPathSquare</title>
<path fill="none" stroke="#000000" d="M2457.912,-550.4297C2237.8209,-477.9079 1556.1099,-253.2785 1360.1711,-188.7151"/>
<polygon fill="#000000" stroke="#000000" points="1361.2606,-185.389 1350.6676,-185.5836 1359.0699,-192.0374 1361.2606,-185.389"/>
</g>
<!-- DPathSquare_ds_fill_b -->
<g id="node2" class="node">
<title>DPathSquare_ds_fill_b</title>
<g id="a_node2"><a xlink:href="DPathSquare.html#ds_fill_b" xlink:title="ds_fill_b">
<ellipse fill="#f070d1" stroke="#000000" cx="2312" cy="-573.1948" rx="49.3059" ry="18"/>
<ellipse fill="none" stroke="#000000" cx="2312" cy="-573.1948" rx="53.2987" ry="22"/>
<ellipse fill="none" stroke="#000000" cx="2312" cy="-573.1948" rx="57.2914" ry="26"/>
<text text-anchor="middle" x="2312" y="-569.4948" font-family="Times,serif" font-size="14.00" fill="#000000">ds_fill_b</text>
</a>
</g>
</g>
<!-- DPathSquare_ds_fill_b&#45;&gt;DPathSquare_DPathSquare -->
<g id="edge2" class="edge">
<title>DPathSquare_ds_fill_b&#45;&gt;DPathSquare_DPathSquare</title>
<path fill="none" stroke="#000000" d="M2268.8164,-555.9213C2105.4544,-490.5765 1525.8935,-258.7522 1354.8537,-190.3362"/>
<polygon fill="#000000" stroke="#000000" points="1355.9452,-187.0033 1345.3606,-186.539 1353.3455,-193.5026 1355.9452,-187.0033"/>
</g>
<!-- DPathSquare_ds_fill_t -->
<g id="node3" class="node">
<title>DPathSquare_ds_fill_t</title>
<g id="a_node3"><a xlink:href="DPathSquare.html#ds_fill_t" xlink:title="ds_fill_t">
<ellipse fill="#f070d1" stroke="#000000" cx="2181" cy="-573.1948" rx="47.3994" ry="18"/>
<ellipse fill="none" stroke="#000000" cx="2181" cy="-573.1948" rx="51.3955" ry="22"/>
<ellipse fill="none" stroke="#000000" cx="2181" cy="-573.1948" rx="55.3916" ry="26"/>
<text text-anchor="middle" x="2181" y="-569.4948" font-family="Times,serif" font-size="14.00" fill="#000000">ds_fill_t</text>
</a>
</g>
</g>
<!-- DPathSquare_ds_fill_t&#45;&gt;DPathSquare_DPathSquare -->
<g id="edge3" class="edge">
<title>DPathSquare_ds_fill_t&#45;&gt;DPathSquare_DPathSquare</title>
<path fill="none" stroke="#000000" d="M2141.1749,-554.877C1996.9057,-488.5198 1502.1979,-260.9769 1351.1509,-191.5022"/>
<polygon fill="#000000" stroke="#000000" points="1352.2537,-188.157 1341.7061,-187.158 1349.3286,-194.5165 1352.2537,-188.157"/>
</g>
<!-- DPathSquare_equiv_ds_fill_lr -->
<g id="node4" class="node">
<title>DPathSquare_equiv_ds_fill_lr</title>
<g id="a_node4"><a xlink:href="DPathSquare.html#equiv_ds_fill_lr" xlink:title="equiv_ds_fill_lr">
<ellipse fill="#f070d1" stroke="#000000" cx="1856" cy="-1015.1948" rx="81.4644" ry="18"/>
<ellipse fill="none" stroke="#000000" cx="1856" cy="-1015.1948" rx="85.4753" ry="22"/>
<ellipse fill="none" stroke="#000000" cx="1856" cy="-1015.1948" rx="89.4862" ry="26"/>
<text text-anchor="middle" x="1856" y="-1011.4948" font-family="Times,serif" font-size="14.00" fill="#000000">equiv_ds_fill_lr</text>
</a>
</g>
</g>
<!-- DPathSquare_ds_fill_r_uniq -->
<g id="node5" class="node">
<title>DPathSquare_ds_fill_r_uniq</title>
<g id="a_node5"><a xlink:href="DPathSquare.html#ds_fill_r_uniq" xlink:title="ds_fill_r_uniq">
<ellipse fill="#f070d1" stroke="#000000" cx="1647" cy="-573.1948" rx="73.387" ry="18"/>
<text text-anchor="middle" x="1647" y="-569.4948" font-family="Times,serif" font-size="14.00" fill="#000000">ds_fill_r_uniq</text>
</a>
</g>
</g>
<!-- DPathSquare_equiv_ds_fill_lr&#45;&gt;DPathSquare_ds_fill_r_uniq -->
<g id="edge4" class="edge">
<title>DPathSquare_equiv_ds_fill_lr&#45;&gt;DPathSquare_ds_fill_r_uniq</title>
<path fill="none" stroke="#000000" d="M1843.7064,-989.1958C1806.8691,-911.291 1697.6175,-680.2422 1659.9432,-600.5676"/>
<polygon fill="#000000" stroke="#000000" points="1662.9522,-598.7432 1655.5134,-591.1991 1656.624,-601.7355 1662.9522,-598.7432"/>
</g>
<!-- DPathSquare_ds_fill_r -->
<g id="node6" class="node">
<title>DPathSquare_ds_fill_r</title>
<g id="a_node6"><a xlink:href="DPathSquare.html#ds_fill_r" xlink:title="ds_fill_r">
<ellipse fill="#f070d1" stroke="#000000" cx="1787" cy="-573.1948" rx="48.1917" ry="18"/>
<text text-anchor="middle" x="1787" y="-569.4948" font-family="Times,serif" font-size="14.00" fill="#000000">ds_fill_r</text>
</a>
</g>
</g>
<!-- DPathSquare_equiv_ds_fill_lr&#45;&gt;DPathSquare_ds_fill_r -->
<g id="edge5" class="edge">
<title>DPathSquare_equiv_ds_fill_lr&#45;&gt;DPathSquare_ds_fill_r</title>
<path fill="none" stroke="#000000" d="M1851.9413,-989.1958C1839.8293,-911.6084 1804.0045,-682.1219 1791.4263,-601.5487"/>
<polygon fill="#000000" stroke="#000000" points="1794.8112,-600.5395 1789.8106,-591.1991 1787.895,-601.6193 1794.8112,-600.5395"/>
</g>
<!-- DPathSquare_ds_fill_l_uniq -->
<g id="node7" class="node">
<title>DPathSquare_ds_fill_l_uniq</title>
<g id="a_node7"><a xlink:href="DPathSquare.html#ds_fill_l_uniq" xlink:title="ds_fill_l_uniq">
<ellipse fill="#f070d1" stroke="#000000" cx="1925" cy="-573.1948" rx="71.4873" ry="18"/>
<text text-anchor="middle" x="1925" y="-569.4948" font-family="Times,serif" font-size="14.00" fill="#000000">ds_fill_l_uniq</text>
</a>
</g>
</g>
<!-- DPathSquare_equiv_ds_fill_lr&#45;&gt;DPathSquare_ds_fill_l_uniq -->
<g id="edge6" class="edge">
<title>DPathSquare_equiv_ds_fill_lr&#45;&gt;DPathSquare_ds_fill_l_uniq</title>
<path fill="none" stroke="#000000" d="M1860.0587,-989.1958C1872.1707,-911.6084 1907.9955,-682.1219 1920.5737,-601.5487"/>
<polygon fill="#000000" stroke="#000000" points="1924.105,-601.6193 1922.1894,-591.1991 1917.1888,-600.5395 1924.105,-601.6193"/>
</g>
<!-- DPathSquare_ds_fill_l -->
<g id="node8" class="node">
<title>DPathSquare_ds_fill_l</title>
<g id="a_node8"><a xlink:href="DPathSquare.html#ds_fill_l" xlink:title="ds_fill_l">
<ellipse fill="#f070d1" stroke="#000000" cx="2061" cy="-573.1948" rx="46.2923" ry="18"/>
<text text-anchor="middle" x="2061" y="-569.4948" font-family="Times,serif" font-size="14.00" fill="#000000">ds_fill_l</text>
</a>
</g>
</g>
<!-- DPathSquare_equiv_ds_fill_lr&#45;&gt;DPathSquare_ds_fill_l -->
<g id="edge7" class="edge">
<title>DPathSquare_equiv_ds_fill_lr&#45;&gt;DPathSquare_ds_fill_l</title>
<path fill="none" stroke="#000000" d="M1868.0583,-989.1958C1904.1906,-911.291 2011.3513,-680.2422 2048.3045,-600.5676"/>
<polygon fill="#000000" stroke="#000000" points="2051.6172,-601.7435 2052.6496,-591.1991 2045.2669,-598.7982 2051.6172,-601.7435"/>
</g>
<!-- DPathSquare_ds_fill_r_uniq&#45;&gt;DPathSquare_DPathSquare -->
<g id="edge8" class="edge">
<title>DPathSquare_ds_fill_r_uniq&#45;&gt;DPathSquare_DPathSquare</title>
<path fill="none" stroke="#000000" d="M1631.9519,-555.4026C1577.7648,-491.3343 1392.4531,-272.2304 1328.7293,-196.8865"/>
<polygon fill="#000000" stroke="#000000" points="1331.3902,-194.6126 1322.2601,-189.2375 1326.0455,-199.1331 1331.3902,-194.6126"/>
</g>
<!-- DPathSquare_ds_fill_r&#45;&gt;DPathSquare_DPathSquare -->
<g id="edge9" class="edge">
<title>DPathSquare_ds_fill_r&#45;&gt;DPathSquare_DPathSquare</title>
<path fill="none" stroke="#000000" d="M1767.2886,-556.6864C1692.1877,-493.7895 1423.7613,-268.9824 1335.4159,-194.993"/>
<polygon fill="#000000" stroke="#000000" points="1337.5935,-192.2514 1327.6797,-188.514 1333.099,-197.618 1337.5935,-192.2514"/>
</g>
<!-- DPathSquare_ds_fill_l_uniq&#45;&gt;DPathSquare_DPathSquare -->
<g id="edge10" class="edge">
<title>DPathSquare_ds_fill_l_uniq&#45;&gt;DPathSquare_DPathSquare</title>
<path fill="none" stroke="#000000" d="M1898.84,-556.1781C1800.5315,-492.2298 1453.1466,-266.261 1341.6927,-193.7619"/>
<polygon fill="#000000" stroke="#000000" points="1343.4576,-190.7346 1333.1665,-188.2157 1339.6406,-196.6024 1343.4576,-190.7346"/>
</g>
<!-- DPathSquare_ds_fill_l&#45;&gt;DPathSquare_DPathSquare -->
<g id="edge11" class="edge">
<title>DPathSquare_ds_fill_l&#45;&gt;DPathSquare_DPathSquare</title>
<path fill="none" stroke="#000000" d="M2033.7193,-558.6499C1919.8877,-497.9598 1482.4366,-264.7299 1347.123,-192.5866"/>
<polygon fill="#000000" stroke="#000000" points="1348.382,-189.2915 1337.9112,-187.6752 1345.0887,-195.4684 1348.382,-189.2915"/>
</g>
<!-- DPathSquare_equiv_ds_dp -->
<g id="node9" class="node">
<title>DPathSquare_equiv_ds_dp</title>
<g id="a_node9"><a xlink:href="DPathSquare.html#equiv_ds_dp" xlink:title="equiv_ds_dp">
<ellipse fill="#f070d1" stroke="#000000" cx="1479" cy="-573.1948" rx="68.463" ry="18"/>
<ellipse fill="none" stroke="#000000" cx="1479" cy="-573.1948" rx="72.4758" ry="22"/>
<ellipse fill="none" stroke="#000000" cx="1479" cy="-573.1948" rx="76.4887" ry="26"/>
<text text-anchor="middle" x="1479" y="-569.4948" font-family="Times,serif" font-size="14.00" fill="#000000">equiv_ds_dp</text>
</a>
</g>
</g>
<!-- DPathSquare_equiv_ds_dp&#45;&gt;DPathSquare_DPathSquare -->
<g id="edge12" class="edge">
<title>DPathSquare_equiv_ds_dp&#45;&gt;DPathSquare_DPathSquare</title>
<path fill="none" stroke="#000000" d="M1467.979,-547.4363C1437.2456,-475.606 1350.7661,-273.4853 1318.9453,-199.1134"/>
<polygon fill="#000000" stroke="#000000" points="1321.981,-197.3109 1314.8295,-189.4939 1315.5454,-200.0645 1321.981,-197.3109"/>
</g>
<!-- DPathSquare_equiv_ds_G1 -->
<g id="node10" class="node">
<title>DPathSquare_equiv_ds_G1</title>
<g id="a_node10"><a xlink:href="DPathSquare.html#equiv_ds_G1" xlink:title="equiv_ds_G1">
<ellipse fill="#f070d1" stroke="#000000" cx="1307" cy="-573.1948" rx="69.5832" ry="18"/>
<ellipse fill="none" stroke="#000000" cx="1307" cy="-573.1948" rx="73.5854" ry="22"/>
<ellipse fill="none" stroke="#000000" cx="1307" cy="-573.1948" rx="77.5877" ry="26"/>
<text text-anchor="middle" x="1307" y="-569.4948" font-family="Times,serif" font-size="14.00" fill="#000000">equiv_ds_G1</text>
</a>
</g>
</g>
<!-- DPathSquare_equiv_ds_G1&#45;&gt;DPathSquare_DPathSquare -->
<g id="edge13" class="edge">
<title>DPathSquare_equiv_ds_G1&#45;&gt;DPathSquare_DPathSquare</title>
<path fill="none" stroke="#000000" d="M1307,-547.1282C1307,-475.1576 1307,-274.094 1307,-199.5097"/>
<polygon fill="#000000" stroke="#000000" points="1310.5001,-199.4536 1307,-189.4536 1303.5001,-199.4537 1310.5001,-199.4536"/>
</g>
<!-- DPathSquare_dp_apD_nat -->
<g id="node11" class="node">
<title>DPathSquare_dp_apD_nat</title>
<g id="a_node11"><a xlink:href="DPathSquare.html#dp_apD_nat" xlink:title="dp_apD_nat">
<ellipse fill="#f070d1" stroke="#000000" cx="1138" cy="-573.1948" rx="65.7729" ry="18"/>
<ellipse fill="none" stroke="#000000" cx="1138" cy="-573.1948" rx="69.7808" ry="22"/>
<ellipse fill="none" stroke="#000000" cx="1138" cy="-573.1948" rx="73.7886" ry="26"/>
<text text-anchor="middle" x="1138" y="-569.4948" font-family="Times,serif" font-size="14.00" fill="#000000">dp_apD_nat</text>
</a>
</g>
</g>
<!-- DPathSquare_dp_apD_nat&#45;&gt;DPathSquare_DPathSquare -->
<g id="edge14" class="edge">
<title>DPathSquare_dp_apD_nat&#45;&gt;DPathSquare_DPathSquare</title>
<path fill="none" stroke="#000000" d="M1148.8288,-547.4363C1179.0261,-475.606 1263.9973,-273.4853 1295.2631,-199.1134"/>
<polygon fill="#000000" stroke="#000000" points="1298.6581,-200.0688 1299.3071,-189.4939 1292.2051,-197.356 1298.6581,-200.0688"/>
</g>
<!-- DPathSquare_equiv_ds_const_ -->
<g id="node12" class="node">
<title>DPathSquare_equiv_ds_const_</title>
<g id="a_node12"><a xlink:href="DPathSquare.html#equiv_ds_const'" xlink:title="equiv_ds_const&#39;">
<ellipse fill="#f070d1" stroke="#000000" cx="954" cy="-573.1948" rx="84.4857" ry="18"/>
<ellipse fill="none" stroke="#000000" cx="954" cy="-573.1948" rx="88.4853" ry="22"/>
<ellipse fill="none" stroke="#000000" cx="954" cy="-573.1948" rx="92.485" ry="26"/>
<text text-anchor="middle" x="954" y="-569.4948" font-family="Times,serif" font-size="14.00" fill="#000000">equiv_ds_const&#39;</text>
</a>
</g>
</g>
<!-- DPathSquare_equiv_ds_const_&#45;&gt;DPathSquare_DPathSquare -->
<g id="edge15" class="edge">
<title>DPathSquare_equiv_ds_const_&#45;&gt;DPathSquare_DPathSquare</title>
<path fill="none" stroke="#000000" d="M976.3495,-547.7429C1039.8298,-475.4509 1220.736,-269.4331 1284.4557,-196.8684"/>
<polygon fill="#000000" stroke="#000000" points="1287.319,-198.9121 1291.2873,-189.0885 1282.0591,-194.2933 1287.319,-198.9121"/>
</g>
<!-- DPathSquare_ds_const -->
<g id="node13" class="node">
<title>DPathSquare_ds_const</title>
<g id="a_node13"><a xlink:href="DPathSquare.html#ds_const" xlink:title="ds_const">
<ellipse fill="#f070d1" stroke="#000000" cx="784" cy="-573.1948" rx="51.9914" ry="18"/>
<ellipse fill="none" stroke="#000000" cx="784" cy="-573.1948" rx="55.9911" ry="22"/>
<ellipse fill="none" stroke="#000000" cx="784" cy="-573.1948" rx="59.9908" ry="26"/>
<text text-anchor="middle" x="784" y="-569.4948" font-family="Times,serif" font-size="14.00" fill="#000000">ds_const</text>
</a>
</g>
</g>
<!-- DPathSquare_ds_const&#45;&gt;DPathSquare_DPathSquare -->
<g id="edge16" class="edge">
<title>DPathSquare_ds_const&#45;&gt;DPathSquare_DPathSquare</title>
<path fill="none" stroke="#000000" d="M813.6172,-550.4297C905.294,-479.9631 1183.8048,-265.8878 1276.5726,-194.5826"/>
<polygon fill="#000000" stroke="#000000" points="1278.9109,-197.1998 1284.7064,-188.3306 1274.6449,-191.6498 1278.9109,-197.1998"/>
</g>
<!-- DPathSquare_ds_apD -->
<g id="node14" class="node">
<title>DPathSquare_ds_apD</title>
<g id="a_node14"><a xlink:href="DPathSquare.html#ds_apD" xlink:title="ds_apD">
<ellipse fill="#f070d1" stroke="#000000" cx="653" cy="-573.1948" rx="44.7157" ry="18"/>
<ellipse fill="none" stroke="#000000" cx="653" cy="-573.1948" rx="48.7041" ry="22"/>
<ellipse fill="none" stroke="#000000" cx="653" cy="-573.1948" rx="52.6925" ry="26"/>
<text text-anchor="middle" x="653" y="-569.4948" font-family="Times,serif" font-size="14.00" fill="#000000">ds_apD</text>
</a>
</g>
</g>
<!-- DPathSquare_ds_apD&#45;&gt;DPathSquare_DPathSquare -->
<g id="edge17" class="edge">
<title>DPathSquare_ds_apD&#45;&gt;DPathSquare_DPathSquare</title>
<path fill="none" stroke="#000000" d="M686.3311,-552.7068C797.5888,-484.3191 1155.6407,-264.2321 1270.8951,-193.3877"/>
<polygon fill="#000000" stroke="#000000" points="1273.0285,-196.1847 1279.7149,-187.9663 1269.3628,-190.2212 1273.0285,-196.1847"/>
</g>
<!-- DPathSquare_equiv_ds_dpath -->
<g id="node15" class="node">
<title>DPathSquare_equiv_ds_dpath</title>
<g id="a_node15"><a xlink:href="DPathSquare.html#equiv_ds_dpath" xlink:title="equiv_ds_dpath">
<ellipse fill="#f070d1" stroke="#000000" cx="491" cy="-573.1948" rx="83.3687" ry="18"/>
<ellipse fill="none" stroke="#000000" cx="491" cy="-573.1948" rx="87.3772" ry="22"/>
<ellipse fill="none" stroke="#000000" cx="491" cy="-573.1948" rx="91.3856" ry="26"/>
<text text-anchor="middle" x="491" y="-569.4948" font-family="Times,serif" font-size="14.00" fill="#000000">equiv_ds_dpath</text>
</a>
</g>
</g>
<!-- DPathSquare_equiv_ds_dpath&#45;&gt;DPathSquare_DPathSquare -->
<g id="edge18" class="edge">
<title>DPathSquare_equiv_ds_dpath&#45;&gt;DPathSquare_DPathSquare</title>
<path fill="none" stroke="#000000" d="M536.9145,-550.5751C681.6027,-479.2949 1126.66,-260.0387 1265.313,-191.7317"/>
<polygon fill="#000000" stroke="#000000" points="1266.9541,-194.825 1274.3779,-187.2659 1263.8606,-188.5456 1266.9541,-194.825"/>
</g>
<!-- DPathSquare_ds_refl_v -->
<g id="node16" class="node">
<title>DPathSquare_ds_refl_v</title>
<g id="a_node16"><a xlink:href="DPathSquare.html#ds_refl_v" xlink:title="ds_refl_v">
<ellipse fill="#f070d1" stroke="#000000" cx="321" cy="-573.1948" rx="52.7718" ry="18"/>
<ellipse fill="none" stroke="#000000" cx="321" cy="-573.1948" rx="56.7814" ry="22"/>
<ellipse fill="none" stroke="#000000" cx="321" cy="-573.1948" rx="60.791" ry="26"/>
<text text-anchor="middle" x="321" y="-569.4948" font-family="Times,serif" font-size="14.00" fill="#000000">ds_refl_v</text>
</a>
</g>
</g>
<!-- DPathSquare_ds_refl_v&#45;&gt;DPathSquare_DPathSquare -->
<g id="edge19" class="edge">
<title>DPathSquare_ds_refl_v&#45;&gt;DPathSquare_DPathSquare</title>
<path fill="none" stroke="#000000" d="M364.9601,-555.2719C527.2809,-489.0924 1092.1572,-258.7879 1259.7671,-190.452"/>
<polygon fill="#000000" stroke="#000000" points="1261.3658,-193.58 1269.3044,-186.5636 1258.723,-187.098 1261.3658,-193.58"/>
</g>
<!-- DPathSquare_ds_refl_h -->
<g id="node17" class="node">
<title>DPathSquare_ds_refl_h</title>
<g id="a_node17"><a xlink:href="DPathSquare.html#ds_refl_h" xlink:title="ds_refl_h">
<ellipse fill="#f070d1" stroke="#000000" cx="181" cy="-573.1948" rx="53.1179" ry="18"/>
<ellipse fill="none" stroke="#000000" cx="181" cy="-573.1948" rx="57.1045" ry="22"/>
<ellipse fill="none" stroke="#000000" cx="181" cy="-573.1948" rx="61.0912" ry="26"/>
<text text-anchor="middle" x="181" y="-569.4948" font-family="Times,serif" font-size="14.00" fill="#000000">ds_refl_h</text>
</a>
</g>
</g>
<!-- DPathSquare_ds_refl_h&#45;&gt;DPathSquare_DPathSquare -->
<g id="edge20" class="edge">
<title>DPathSquare_ds_refl_h&#45;&gt;DPathSquare_DPathSquare</title>
<path fill="none" stroke="#000000" d="M227.281,-555.9038C235.1876,-552.9788 243.3246,-549.9865 251,-547.1948 635.7574,-407.2486 1101.3029,-243.3843 1255.0051,-189.4272"/>
<polygon fill="#000000" stroke="#000000" points="1256.3975,-192.6478 1264.674,-186.0335 1254.0792,-186.0429 1256.3975,-192.6478"/>
</g>
<!-- DPathSquare_ds_id -->
<g id="node18" class="node">
<title>DPathSquare_ds_id</title>
<g id="a_node18"><a xlink:href="DPathSquare.html#ds_id" xlink:title="ds_id">
<ellipse fill="#f070d1" stroke="#000000" cx="59" cy="-573.1948" rx="35.176" ry="18"/>
<ellipse fill="none" stroke="#000000" cx="59" cy="-573.1948" rx="39.185" ry="22"/>
<ellipse fill="none" stroke="#000000" cx="59" cy="-573.1948" rx="43.194" ry="26"/>
<text text-anchor="middle" x="59" y="-569.4948" font-family="Times,serif" font-size="14.00" fill="#000000">ds_id</text>
</a>
</g>
</g>
<!-- DPathSquare_ds_id&#45;&gt;DPathSquare_DPathSquare -->
<g id="edge21" class="edge">
<title>DPathSquare_ds_id&#45;&gt;DPathSquare_DPathSquare</title>
<path fill="none" stroke="#000000" d="M91.3675,-556.0208C97.7892,-552.8965 104.5431,-549.8046 111,-547.1948 535.0802,-375.7811 1068.8691,-232.415 1246.4635,-186.5611"/>
<polygon fill="#000000" stroke="#000000" points="1247.3402,-189.9496 1256.1509,-184.0654 1245.5939,-183.1709 1247.3402,-189.9496"/>
</g>
</g>
</svg>
