<?xml version="1.0" encoding="UTF-8" standalone="no"?>
<!DOCTYPE svg PUBLIC "-//W3C//DTD SVG 1.1//EN"
 "http://www.w3.org/Graphics/SVG/1.1/DTD/svg11.dtd">
<!-- Generated by graphviz version 2.40.1 (20161225.0304)
 -->
<!-- Title: HoTT_ObjectClassifier Pages: 1 -->
<svg width="1276pt" height="642pt"
 viewBox="0.00 0.00 1276.00 642.00" xmlns="http://www.w3.org/2000/svg" xmlns:xlink="http://www.w3.org/1999/xlink">
<g id="graph0" class="graph" transform="scale(1 1) rotate(0) translate(4 638)">
<title>HoTT_ObjectClassifier</title>
<polygon fill="#ffffff" stroke="transparent" points="-4,4 -4,-638 1272,-638 1272,4 -4,4"/>
<g id="clust1" class="cluster">
<title>cluster_ObjectClassifier</title>
<polygon fill="#ffffc3" stroke="#000000" points="8,-8.0893 8,-625.9107 1260,-625.9107 1260,-8.0893 8,-8.0893"/>
<text text-anchor="middle" x="74.5" y="-610.7107" font-family="Times,serif" font-size="14.00" fill="#000000">ObjectClassifier</text>
</g>
<!-- ObjectClassifier_equiv_pmap_typeO_type_connected -->
<g id="node1" class="node">
<title>ObjectClassifier_equiv_pmap_typeO_type_connected</title>
<g id="a_node1"><a xlink:href="ObjectClassifier.html#equiv_pmap_typeO_type_connected" xlink:title="equiv_pmap_typeO_type_connected">
<ellipse fill="#f070d1" stroke="#000000" cx="1044" cy="-568.0893" rx="178.9585" ry="18"/>
<ellipse fill="none" stroke="#000000" cx="1044" cy="-568.0893" rx="182.9636" ry="22"/>
<ellipse fill="none" stroke="#000000" cx="1044" cy="-568.0893" rx="186.9686" ry="26"/>
<text text-anchor="middle" x="1044" y="-564.3893" font-family="Times,serif" font-size="14.00" fill="#000000">equiv_pmap_typeO_type_connected</text>
</a>
</g>
</g>
<!-- ObjectClassifier_equiv_sigma_fibration_Op_connected -->
<g id="node4" class="node">
<title>ObjectClassifier_equiv_sigma_fibration_Op_connected</title>
<g id="a_node4"><a xlink:href="ObjectClassifier.html#equiv_sigma_fibration_Op_connected" xlink:title="equiv_sigma_fibration_Op_connected">
<ellipse fill="#f070d1" stroke="#000000" cx="1067" cy="-479.0893" rx="185.4674" ry="18"/>
<text text-anchor="middle" x="1067" y="-475.3893" font-family="Times,serif" font-size="14.00" fill="#000000">equiv_sigma_fibration_Op_connected</text>
</a>
</g>
</g>
<!-- ObjectClassifier_equiv_pmap_typeO_type_connected&#45;&gt;ObjectClassifier_equiv_sigma_fibration_Op_connected -->
<g id="edge1" class="edge">
<title>ObjectClassifier_equiv_pmap_typeO_type_connected&#45;&gt;ObjectClassifier_equiv_sigma_fibration_Op_connected</title>
<path fill="none" stroke="#000000" d="M1050.7764,-541.8677C1053.617,-530.8757 1056.9231,-518.0827 1059.8068,-506.9238"/>
<polygon fill="#000000" stroke="#000000" points="1063.1975,-507.7916 1062.3109,-497.2339 1056.4201,-506.0401 1063.1975,-507.7916"/>
</g>
<!-- ObjectClassifier_equiv_sigma_fibration_p -->
<g id="node9" class="node">
<title>ObjectClassifier_equiv_sigma_fibration_p</title>
<g id="a_node9"><a xlink:href="ObjectClassifier.html#equiv_sigma_fibration_p" xlink:title="equiv_sigma_fibration_p">
<ellipse fill="#f070d1" stroke="#000000" cx="634" cy="-398.0893" rx="124.2781" ry="18"/>
<text text-anchor="middle" x="634" y="-394.3893" font-family="Times,serif" font-size="14.00" fill="#000000">equiv_sigma_fibration_p</text>
</a>
</g>
</g>
<!-- ObjectClassifier_equiv_pmap_typeO_type_connected&#45;&gt;ObjectClassifier_equiv_sigma_fibration_p -->
<g id="edge2" class="edge">
<title>ObjectClassifier_equiv_pmap_typeO_type_connected&#45;&gt;ObjectClassifier_equiv_sigma_fibration_p</title>
<path fill="none" stroke="#000000" d="M905.6368,-550.5953C768.303,-533.0704 577.7635,-508.2489 575,-505.0893 559.7846,-487.6934 565.7827,-474.2828 575,-453.0893 580.156,-441.234 589.2663,-430.7765 598.8082,-422.2505"/>
<polygon fill="#000000" stroke="#000000" points="601.055,-424.9342 606.4859,-415.8371 596.5674,-419.5619 601.055,-424.9342"/>
</g>
<!-- ObjectClassifier_equiv_sigma_pfibration_O_connected -->
<g id="node2" class="node">
<title>ObjectClassifier_equiv_sigma_pfibration_O_connected</title>
<g id="a_node2"><a xlink:href="ObjectClassifier.html#equiv_sigma_pfibration_O_connected" xlink:title="equiv_sigma_pfibration_O_connected">
<ellipse fill="#f070d1" stroke="#000000" cx="626" cy="-568.0893" rx="185.4577" ry="18"/>
<ellipse fill="none" stroke="#000000" cx="626" cy="-568.0893" rx="189.4626" ry="22"/>
<ellipse fill="none" stroke="#000000" cx="626" cy="-568.0893" rx="193.4674" ry="26"/>
<text text-anchor="middle" x="626" y="-564.3893" font-family="Times,serif" font-size="14.00" fill="#000000">equiv_sigma_pfibration_O_connected</text>
</a>
</g>
</g>
<!-- ObjectClassifier_equiv_sigma_pfibration_O_connected&#45;&gt;ObjectClassifier_equiv_sigma_fibration_Op_connected -->
<g id="edge3" class="edge">
<title>ObjectClassifier_equiv_sigma_pfibration_O_connected&#45;&gt;ObjectClassifier_equiv_sigma_fibration_Op_connected</title>
<path fill="none" stroke="#000000" d="M733.3168,-546.4313C807.6762,-531.4245 905.5964,-511.6628 976.1061,-497.433"/>
<polygon fill="#000000" stroke="#000000" points="977.1943,-500.784 986.3042,-495.3749 975.8094,-493.9224 977.1943,-500.784"/>
</g>
<!-- ObjectClassifier_equiv_pfiber_fibration_pfibration -->
<g id="node8" class="node">
<title>ObjectClassifier_equiv_pfiber_fibration_pfibration</title>
<g id="a_node8"><a xlink:href="ObjectClassifier.html#equiv_pfiber_fibration_pfibration" xlink:title="equiv_pfiber_fibration_pfibration">
<ellipse fill="#f070d1" stroke="#000000" cx="327" cy="-398.0893" rx="164.3708" ry="18"/>
<text text-anchor="middle" x="327" y="-394.3893" font-family="Times,serif" font-size="14.00" fill="#000000">equiv_pfiber_fibration_pfibration</text>
</a>
</g>
</g>
<!-- ObjectClassifier_equiv_sigma_pfibration_O_connected&#45;&gt;ObjectClassifier_equiv_pfiber_fibration_pfibration -->
<g id="edge4" class="edge">
<title>ObjectClassifier_equiv_sigma_pfibration_O_connected&#45;&gt;ObjectClassifier_equiv_pfiber_fibration_pfibration</title>
<path fill="none" stroke="#000000" d="M482.73,-550.6226C394.0149,-538.3302 294.4776,-521.2509 281,-505.0893 266.1984,-487.3401 273.113,-474.813 281,-453.0893 284.9029,-442.3392 291.9292,-432.2213 299.3343,-423.6664"/>
<polygon fill="#000000" stroke="#000000" points="301.9471,-425.996 306.1627,-416.2759 296.8057,-421.2456 301.9471,-425.996"/>
</g>
<!-- ObjectClassifier_equiv_sigma_pfibration_O -->
<g id="node3" class="node">
<title>ObjectClassifier_equiv_sigma_pfibration_O</title>
<g id="a_node3"><a xlink:href="ObjectClassifier.html#equiv_sigma_pfibration_O" xlink:title="equiv_sigma_pfibration_O">
<ellipse fill="#f070d1" stroke="#000000" cx="724" cy="-479.0893" rx="131.8801" ry="18"/>
<ellipse fill="none" stroke="#000000" cx="724" cy="-479.0893" rx="135.8784" ry="22"/>
<ellipse fill="none" stroke="#000000" cx="724" cy="-479.0893" rx="139.8766" ry="26"/>
<text text-anchor="middle" x="724" y="-475.3893" font-family="Times,serif" font-size="14.00" fill="#000000">equiv_sigma_pfibration_O</text>
</a>
</g>
</g>
<!-- ObjectClassifier_equiv_sigma_fibration_Op -->
<g id="node5" class="node">
<title>ObjectClassifier_equiv_sigma_fibration_Op</title>
<g id="a_node5"><a xlink:href="ObjectClassifier.html#equiv_sigma_fibration_Op" xlink:title="equiv_sigma_fibration_Op">
<ellipse fill="#f070d1" stroke="#000000" cx="908" cy="-398.0893" rx="131.8766" ry="18"/>
<text text-anchor="middle" x="908" y="-394.3893" font-family="Times,serif" font-size="14.00" fill="#000000">equiv_sigma_fibration_Op</text>
</a>
</g>
</g>
<!-- ObjectClassifier_equiv_sigma_pfibration_O&#45;&gt;ObjectClassifier_equiv_sigma_fibration_Op -->
<g id="edge5" class="edge">
<title>ObjectClassifier_equiv_sigma_pfibration_O&#45;&gt;ObjectClassifier_equiv_sigma_fibration_Op</title>
<path fill="none" stroke="#000000" d="M778.7079,-455.006C804.3518,-443.7171 834.6488,-430.3798 859.4665,-419.4546"/>
<polygon fill="#000000" stroke="#000000" points="860.9465,-422.6273 868.6888,-415.3948 858.1261,-416.2206 860.9465,-422.6273"/>
</g>
<!-- ObjectClassifier_equiv_sigma_pfibration_O&#45;&gt;ObjectClassifier_equiv_pfiber_fibration_pfibration -->
<g id="edge6" class="edge">
<title>ObjectClassifier_equiv_sigma_pfibration_O&#45;&gt;ObjectClassifier_equiv_pfiber_fibration_pfibration</title>
<path fill="none" stroke="#000000" d="M629.6649,-459.8421C564.5803,-446.5629 478.6492,-429.0303 414.9825,-416.0404"/>
<polygon fill="#000000" stroke="#000000" points="415.46,-412.5658 404.9621,-413.9959 414.0606,-419.4245 415.46,-412.5658"/>
</g>
<!-- ObjectClassifier_equiv_sigma_fibration_Op_connected&#45;&gt;ObjectClassifier_equiv_sigma_fibration_Op -->
<g id="edge7" class="edge">
<title>ObjectClassifier_equiv_sigma_fibration_Op_connected&#45;&gt;ObjectClassifier_equiv_sigma_fibration_Op</title>
<path fill="none" stroke="#000000" d="M1032.1068,-461.3135C1008.3333,-449.2025 976.6913,-433.083 951.3077,-420.1517"/>
<polygon fill="#000000" stroke="#000000" points="952.7643,-416.9658 942.2652,-415.5452 949.5868,-423.2031 952.7643,-416.9658"/>
</g>
<!-- ObjectClassifier_equiv_sigma_fibration_O -->
<g id="node6" class="node">
<title>ObjectClassifier_equiv_sigma_fibration_O</title>
<g id="a_node6"><a xlink:href="ObjectClassifier.html#equiv_sigma_fibration_O" xlink:title="equiv_sigma_fibration_O">
<ellipse fill="#f070d1" stroke="#000000" cx="847" cy="-326.0893" rx="126.1777" ry="18"/>
<text text-anchor="middle" x="847" y="-322.3893" font-family="Times,serif" font-size="14.00" fill="#000000">equiv_sigma_fibration_O</text>
</a>
</g>
</g>
<!-- ObjectClassifier_equiv_sigma_fibration_Op&#45;&gt;ObjectClassifier_equiv_sigma_fibration_O -->
<g id="edge8" class="edge">
<title>ObjectClassifier_equiv_sigma_fibration_Op&#45;&gt;ObjectClassifier_equiv_sigma_fibration_O</title>
<path fill="none" stroke="#000000" d="M892.6071,-379.9207C885.4004,-371.4144 876.6883,-361.1313 868.8177,-351.8413"/>
<polygon fill="#000000" stroke="#000000" points="871.3113,-349.3701 862.1766,-344.0027 865.9704,-353.8951 871.3113,-349.3701"/>
</g>
<!-- ObjectClassifier_equiv_sigma_fibration -->
<g id="node13" class="node">
<title>ObjectClassifier_equiv_sigma_fibration</title>
<g id="a_node13"><a xlink:href="ObjectClassifier.html#equiv_sigma_fibration" xlink:title="equiv_sigma_fibration">
<ellipse fill="#f070d1" stroke="#000000" cx="647" cy="-253.0893" rx="113.9803" ry="18"/>
<text text-anchor="middle" x="647" y="-249.3893" font-family="Times,serif" font-size="14.00" fill="#000000">equiv_sigma_fibration</text>
</a>
</g>
</g>
<!-- ObjectClassifier_equiv_sigma_fibration_O&#45;&gt;ObjectClassifier_equiv_sigma_fibration -->
<g id="edge9" class="edge">
<title>ObjectClassifier_equiv_sigma_fibration_O&#45;&gt;ObjectClassifier_equiv_sigma_fibration</title>
<path fill="none" stroke="#000000" d="M800.8648,-309.25C771.51,-298.5355 733.3284,-284.5992 702.3445,-273.2901"/>
<polygon fill="#000000" stroke="#000000" points="703.1519,-269.859 692.558,-269.718 700.7518,-276.4346 703.1519,-269.859"/>
</g>
<!-- ObjectClassifier_equiv_sigma_pfibration -->
<g id="node7" class="node">
<title>ObjectClassifier_equiv_sigma_pfibration</title>
<g id="a_node7"><a xlink:href="ObjectClassifier.html#equiv_sigma_pfibration" xlink:title="equiv_sigma_pfibration">
<ellipse fill="#f070d1" stroke="#000000" cx="418" cy="-479.0893" rx="119.6732" ry="18"/>
<ellipse fill="none" stroke="#000000" cx="418" cy="-479.0893" rx="123.676" ry="22"/>
<ellipse fill="none" stroke="#000000" cx="418" cy="-479.0893" rx="127.6788" ry="26"/>
<text text-anchor="middle" x="418" y="-475.3893" font-family="Times,serif" font-size="14.00" fill="#000000">equiv_sigma_pfibration</text>
</a>
</g>
</g>
<!-- ObjectClassifier_equiv_sigma_pfibration&#45;&gt;ObjectClassifier_equiv_pfiber_fibration_pfibration -->
<g id="edge10" class="edge">
<title>ObjectClassifier_equiv_sigma_pfibration&#45;&gt;ObjectClassifier_equiv_pfiber_fibration_pfibration</title>
<path fill="none" stroke="#000000" d="M389.207,-453.4604C378.2291,-443.6888 365.7443,-432.576 354.8551,-422.8834"/>
<polygon fill="#000000" stroke="#000000" points="357.049,-420.1505 347.2524,-416.1161 352.3949,-425.3793 357.049,-420.1505"/>
</g>
<!-- ObjectClassifier_equiv_sigma_pfibration&#45;&gt;ObjectClassifier_equiv_sigma_fibration_p -->
<g id="edge11" class="edge">
<title>ObjectClassifier_equiv_sigma_pfibration&#45;&gt;ObjectClassifier_equiv_sigma_fibration_p</title>
<path fill="none" stroke="#000000" d="M479.0308,-456.2028C510.5505,-444.3829 548.699,-430.0772 579.2587,-418.6173"/>
<polygon fill="#000000" stroke="#000000" points="580.7617,-421.7918 588.896,-415.0033 578.3038,-415.2374 580.7617,-421.7918"/>
</g>
<!-- ObjectClassifier_pSlice -->
<g id="node17" class="node">
<title>ObjectClassifier_pSlice</title>
<g id="a_node17"><a xlink:href="ObjectClassifier.html#pSlice" xlink:title="pSlice">
<ellipse fill="#f070d1" stroke="#000000" cx="297" cy="-326.0893" rx="39.7935" ry="18"/>
<text text-anchor="middle" x="297" y="-322.3893" font-family="Times,serif" font-size="14.00" fill="#000000">pSlice</text>
</a>
</g>
</g>
<!-- ObjectClassifier_equiv_pfiber_fibration_pfibration&#45;&gt;ObjectClassifier_pSlice -->
<g id="edge12" class="edge">
<title>ObjectClassifier_equiv_pfiber_fibration_pfibration&#45;&gt;ObjectClassifier_pSlice</title>
<path fill="none" stroke="#000000" d="M319.4297,-379.9207C316.0645,-371.844 312.0317,-362.1654 308.3195,-353.2561"/>
<polygon fill="#000000" stroke="#000000" points="311.5409,-351.8873 304.4639,-344.0027 305.0794,-354.5797 311.5409,-351.8873"/>
</g>
<!-- ObjectClassifier_Slice -->
<g id="node18" class="node">
<title>ObjectClassifier_Slice</title>
<g id="a_node18"><a xlink:href="ObjectClassifier.html#Slice" xlink:title="Slice">
<ellipse fill="#f070d1" stroke="#000000" cx="458" cy="-34.0893" rx="33.5952" ry="18"/>
<text text-anchor="middle" x="458" y="-30.3893" font-family="Times,serif" font-size="14.00" fill="#000000">Slice</text>
</a>
</g>
</g>
<!-- ObjectClassifier_equiv_pfiber_fibration_pfibration&#45;&gt;ObjectClassifier_Slice -->
<g id="edge13" class="edge">
<title>ObjectClassifier_equiv_pfiber_fibration_pfibration&#45;&gt;ObjectClassifier_Slice</title>
<path fill="none" stroke="#000000" d="M334.5718,-379.9023C338.5736,-369.5713 343.2198,-356.2991 346,-344.0893 355.0336,-304.4169 356,-293.7772 356,-253.0893 356,-253.0893 356,-253.0893 356,-180.0893 356,-139.4014 344.0191,-123.3288 366,-89.0893 378.4407,-69.7106 400.3518,-56.215 419.6702,-47.4432"/>
<polygon fill="#000000" stroke="#000000" points="421.0665,-50.6528 428.8927,-43.5114 418.3212,-44.2136 421.0665,-50.6528"/>
</g>
<!-- ObjectClassifier_equiv_sigma_fibration_p&#45;&gt;ObjectClassifier_equiv_sigma_fibration -->
<g id="edge14" class="edge">
<title>ObjectClassifier_equiv_sigma_fibration_p&#45;&gt;ObjectClassifier_equiv_sigma_fibration</title>
<path fill="none" stroke="#000000" d="M635.6202,-380.0181C637.8388,-355.2714 641.8451,-310.5866 644.4634,-281.3819"/>
<polygon fill="#000000" stroke="#000000" points="647.9524,-281.6608 645.3594,-271.3882 640.9803,-281.0357 647.9524,-281.6608"/>
</g>
<!-- ObjectClassifier_ispullback_objectclassifier_square -->
<g id="node10" class="node">
<title>ObjectClassifier_ispullback_objectclassifier_square</title>
<g id="a_node10"><a xlink:href="ObjectClassifier.html#ispullback_objectclassifier_square" xlink:title="ispullback_objectclassifier_square">
<ellipse fill="#f070d1" stroke="#000000" cx="195" cy="-568.0893" rx="170.8726" ry="18"/>
<ellipse fill="none" stroke="#000000" cx="195" cy="-568.0893" rx="174.8711" ry="22"/>
<ellipse fill="none" stroke="#000000" cx="195" cy="-568.0893" rx="178.8697" ry="26"/>
<text text-anchor="middle" x="195" y="-564.3893" font-family="Times,serif" font-size="14.00" fill="#000000">ispullback_objectclassifier_square</text>
</a>
</g>
</g>
<!-- ObjectClassifier_objectclassifier_square -->
<g id="node11" class="node">
<title>ObjectClassifier_objectclassifier_square</title>
<g id="a_node11"><a xlink:href="ObjectClassifier.html#objectclassifier_square" xlink:title="objectclassifier_square">
<ellipse fill="#f070d1" stroke="#000000" cx="134" cy="-479.0893" rx="118.0794" ry="18"/>
<text text-anchor="middle" x="134" y="-475.3893" font-family="Times,serif" font-size="14.00" fill="#000000">objectclassifier_square</text>
</a>
</g>
</g>
<!-- ObjectClassifier_ispullback_objectclassifier_square&#45;&gt;ObjectClassifier_objectclassifier_square -->
<g id="edge15" class="edge">
<title>ObjectClassifier_ispullback_objectclassifier_square&#45;&gt;ObjectClassifier_objectclassifier_square</title>
<path fill="none" stroke="#000000" d="M177.0279,-541.8677C169.1865,-530.427 160.0079,-517.0353 152.1468,-505.5659"/>
<polygon fill="#000000" stroke="#000000" points="154.9767,-503.5037 146.4362,-497.2339 149.2027,-507.4612 154.9767,-503.5037"/>
</g>
<!-- ObjectClassifier_topmap -->
<g id="node12" class="node">
<title>ObjectClassifier_topmap</title>
<g id="a_node12"><a xlink:href="ObjectClassifier.html#topmap" xlink:title="topmap">
<ellipse fill="#f070d1" stroke="#000000" cx="98" cy="-398.0893" rx="46.2923" ry="18"/>
<text text-anchor="middle" x="98" y="-394.3893" font-family="Times,serif" font-size="14.00" fill="#000000">topmap</text>
</a>
</g>
</g>
<!-- ObjectClassifier_objectclassifier_square&#45;&gt;ObjectClassifier_topmap -->
<g id="edge16" class="edge">
<title>ObjectClassifier_objectclassifier_square&#45;&gt;ObjectClassifier_topmap</title>
<path fill="none" stroke="#000000" d="M126.0104,-461.1128C121.3496,-450.626 115.3759,-437.1851 110.1433,-425.4116"/>
<polygon fill="#000000" stroke="#000000" points="113.227,-423.7322 105.9672,-416.0156 106.8303,-426.5752 113.227,-423.7322"/>
</g>
<!-- ObjectClassifier_isequiv_sigma_fibration -->
<g id="node14" class="node">
<title>ObjectClassifier_isequiv_sigma_fibration</title>
<g id="a_node14"><a xlink:href="ObjectClassifier.html#isequiv_sigma_fibration" xlink:title="isequiv_sigma_fibration">
<ellipse fill="#f070d1" stroke="#000000" cx="647" cy="-180.0893" rx="121.5784" ry="18"/>
<text text-anchor="middle" x="647" y="-176.3893" font-family="Times,serif" font-size="14.00" fill="#000000">isequiv_sigma_fibration</text>
</a>
</g>
</g>
<!-- ObjectClassifier_equiv_sigma_fibration&#45;&gt;ObjectClassifier_isequiv_sigma_fibration -->
<g id="edge17" class="edge">
<title>ObjectClassifier_equiv_sigma_fibration&#45;&gt;ObjectClassifier_isequiv_sigma_fibration</title>
<path fill="none" stroke="#000000" d="M647,-235.0444C647,-226.9721 647,-217.2657 647,-208.2711"/>
<polygon fill="#000000" stroke="#000000" points="650.5001,-208.1796 647,-198.1797 643.5001,-208.1797 650.5001,-208.1796"/>
</g>
<!-- ObjectClassifier_sigma_fibration_inverse -->
<g id="node15" class="node">
<title>ObjectClassifier_sigma_fibration_inverse</title>
<g id="a_node15"><a xlink:href="ObjectClassifier.html#sigma_fibration_inverse" xlink:title="sigma_fibration_inverse">
<ellipse fill="#f070d1" stroke="#000000" cx="681" cy="-107.0893" rx="122.3786" ry="18"/>
<text text-anchor="middle" x="681" y="-103.3893" font-family="Times,serif" font-size="14.00" fill="#000000">sigma_fibration_inverse</text>
</a>
</g>
</g>
<!-- ObjectClassifier_isequiv_sigma_fibration&#45;&gt;ObjectClassifier_sigma_fibration_inverse -->
<g id="edge18" class="edge">
<title>ObjectClassifier_isequiv_sigma_fibration&#45;&gt;ObjectClassifier_sigma_fibration_inverse</title>
<path fill="none" stroke="#000000" d="M655.4045,-162.0444C659.2868,-153.7089 663.9806,-143.6309 668.283,-134.3935"/>
<polygon fill="#000000" stroke="#000000" points="671.525,-135.7224 672.5744,-125.1797 665.1795,-132.7669 671.525,-135.7224"/>
</g>
<!-- ObjectClassifier_sigma_fibration -->
<g id="node16" class="node">
<title>ObjectClassifier_sigma_fibration</title>
<g id="a_node16"><a xlink:href="ObjectClassifier.html#sigma_fibration" xlink:title="sigma_fibration">
<ellipse fill="#f070d1" stroke="#000000" cx="458" cy="-107.0893" rx="83.3857" ry="18"/>
<text text-anchor="middle" x="458" y="-103.3893" font-family="Times,serif" font-size="14.00" fill="#000000">sigma_fibration</text>
</a>
</g>
</g>
<!-- ObjectClassifier_isequiv_sigma_fibration&#45;&gt;ObjectClassifier_sigma_fibration -->
<g id="edge19" class="edge">
<title>ObjectClassifier_isequiv_sigma_fibration&#45;&gt;ObjectClassifier_sigma_fibration</title>
<path fill="none" stroke="#000000" d="M603.1646,-163.1582C574.8504,-152.222 537.921,-137.9583 508.3961,-126.5545"/>
<polygon fill="#000000" stroke="#000000" points="509.2798,-123.1438 498.6904,-122.8057 506.7576,-129.6737 509.2798,-123.1438"/>
</g>
<!-- ObjectClassifier_sigma_fibration_inverse&#45;&gt;ObjectClassifier_Slice -->
<g id="edge20" class="edge">
<title>ObjectClassifier_sigma_fibration_inverse&#45;&gt;ObjectClassifier_Slice</title>
<path fill="none" stroke="#000000" d="M630.6764,-90.6157C590.1663,-77.3545 534.052,-58.9852 496.9232,-46.831"/>
<polygon fill="#000000" stroke="#000000" points="497.5758,-43.3619 486.9832,-43.5771 495.398,-50.0145 497.5758,-43.3619"/>
</g>
<!-- ObjectClassifier_sigma_fibration&#45;&gt;ObjectClassifier_Slice -->
<g id="edge21" class="edge">
<title>ObjectClassifier_sigma_fibration&#45;&gt;ObjectClassifier_Slice</title>
<path fill="none" stroke="#000000" d="M458,-89.0444C458,-80.9721 458,-71.2657 458,-62.2711"/>
<polygon fill="#000000" stroke="#000000" points="461.5001,-62.1796 458,-52.1797 454.5001,-62.1797 461.5001,-62.1796"/>
</g>
</g>
</svg>
