<?xml version="1.0" encoding="UTF-8" standalone="no"?>
<!DOCTYPE svg PUBLIC "-//W3C//DTD SVG 1.1//EN"
 "http://www.w3.org/Graphics/SVG/1.1/DTD/svg11.dtd">
<!-- Generated by graphviz version 2.40.1 (20161225.0304)
 -->
<!-- Title: HoTT_Colimits_Colimit Pages: 1 -->
<svg width="2348pt" height="1178pt"
 viewBox="0.00 0.00 2348.00 1178.00" xmlns="http://www.w3.org/2000/svg" xmlns:xlink="http://www.w3.org/1999/xlink">
<g id="graph0" class="graph" transform="scale(1 1) rotate(0) translate(4 1174)">
<title>HoTT_Colimits_Colimit</title>
<polygon fill="#ffffff" stroke="transparent" points="-4,4 -4,-1174 2344,-1174 2344,4 -4,4"/>
<g id="clust1" class="cluster">
<title>cluster_Colimit</title>
<polygon fill="#ffffc3" stroke="#000000" points="8,-9.1855 8,-1160.8145 2332,-1160.8145 2332,-9.1855 8,-9.1855"/>
<text text-anchor="middle" x="42.5" y="-1145.6145" font-family="Times,serif" font-size="14.00" fill="#000000">Colimit</text>
</g>
<!-- Colimit_colimit_adjoint -->
<g id="node1" class="node">
<title>Colimit_colimit_adjoint</title>
<g id="a_node1"><a xlink:href="Colimit.html#colimit_adjoint" xlink:title="colimit_adjoint">
<ellipse fill="#f070d1" stroke="#000000" cx="2231" cy="-728.1855" rx="79.891" ry="18"/>
<ellipse fill="none" stroke="#000000" cx="2231" cy="-728.1855" rx="83.8884" ry="22"/>
<ellipse fill="none" stroke="#000000" cx="2231" cy="-728.1855" rx="87.8859" ry="26"/>
<text text-anchor="middle" x="2231" y="-724.4855" font-family="Times,serif" font-size="14.00" fill="#000000">colimit_adjoint</text>
</a>
</g>
</g>
<!-- Colimit_equiv_colimit_rec -->
<g id="node14" class="node">
<title>Colimit_equiv_colimit_rec</title>
<g id="a_node14"><a xlink:href="Colimit.html#equiv_colimit_rec" xlink:title="equiv_colimit_rec">
<ellipse fill="#f070d1" stroke="#000000" cx="2231" cy="-627.1855" rx="92.8835" ry="18"/>
<text text-anchor="middle" x="2231" y="-623.4855" font-family="Times,serif" font-size="14.00" fill="#000000">equiv_colimit_rec</text>
</a>
</g>
</g>
<!-- Colimit_colimit_adjoint&#45;&gt;Colimit_equiv_colimit_rec -->
<g id="edge1" class="edge">
<title>Colimit_colimit_adjoint&#45;&gt;Colimit_equiv_colimit_rec</title>
<path fill="none" stroke="#000000" d="M2231,-702.1755C2231,-687.8775 2231,-670.1237 2231,-655.4803"/>
<polygon fill="#000000" stroke="#000000" points="2234.5001,-655.4612 2231,-645.4612 2227.5001,-655.4612 2234.5001,-655.4612"/>
</g>
<!-- Colimit_colimit_unicity -->
<g id="node2" class="node">
<title>Colimit_colimit_unicity</title>
<g id="a_node2"><a xlink:href="Colimit.html#colimit_unicity" xlink:title="colimit_unicity">
<ellipse fill="#f070d1" stroke="#000000" cx="1461" cy="-1095.1855" rx="79.891" ry="18"/>
<ellipse fill="none" stroke="#000000" cx="1461" cy="-1095.1855" rx="83.8884" ry="22"/>
<ellipse fill="none" stroke="#000000" cx="1461" cy="-1095.1855" rx="87.8859" ry="26"/>
<text text-anchor="middle" x="1461" y="-1091.4855" font-family="Times,serif" font-size="14.00" fill="#000000">colimit_unicity</text>
</a>
</g>
</g>
<!-- Colimit_equiv_functor_colimit -->
<g id="node3" class="node">
<title>Colimit_equiv_functor_colimit</title>
<g id="a_node3"><a xlink:href="Colimit.html#equiv_functor_colimit" xlink:title="equiv_functor_colimit">
<ellipse fill="#f070d1" stroke="#000000" cx="1461" cy="-1003.1855" rx="112.3801" ry="18"/>
<text text-anchor="middle" x="1461" y="-999.4855" font-family="Times,serif" font-size="14.00" fill="#000000">equiv_functor_colimit</text>
</a>
</g>
</g>
<!-- Colimit_colimit_unicity&#45;&gt;Colimit_equiv_functor_colimit -->
<g id="edge2" class="edge">
<title>Colimit_colimit_unicity&#45;&gt;Colimit_equiv_functor_colimit</title>
<path fill="none" stroke="#000000" d="M1461,-1069.0681C1461,-1057.3543 1461,-1043.5106 1461,-1031.5441"/>
<polygon fill="#000000" stroke="#000000" points="1464.5001,-1031.1971 1461,-1021.1971 1457.5001,-1031.1972 1464.5001,-1031.1971"/>
</g>
<!-- Colimit_isequiv_functor_colimit -->
<g id="node4" class="node">
<title>Colimit_isequiv_functor_colimit</title>
<g id="a_node4"><a xlink:href="Colimit.html#isequiv_functor_colimit" xlink:title="isequiv_functor_colimit">
<ellipse fill="#f070d1" stroke="#000000" cx="1461" cy="-921.1855" rx="120.4791" ry="18"/>
<text text-anchor="middle" x="1461" y="-917.4855" font-family="Times,serif" font-size="14.00" fill="#000000">isequiv_functor_colimit</text>
</a>
</g>
</g>
<!-- Colimit_equiv_functor_colimit&#45;&gt;Colimit_isequiv_functor_colimit -->
<g id="edge3" class="edge">
<title>Colimit_equiv_functor_colimit&#45;&gt;Colimit_isequiv_functor_colimit</title>
<path fill="none" stroke="#000000" d="M1461,-984.987C1461,-974.5831 1461,-961.307 1461,-949.5622"/>
<polygon fill="#000000" stroke="#000000" points="1464.5001,-949.333 1461,-939.3331 1457.5001,-949.3331 1464.5001,-949.333"/>
</g>
<!-- Colimit_functor_colimit_eisretr -->
<g id="node5" class="node">
<title>Colimit_functor_colimit_eisretr</title>
<g id="a_node5"><a xlink:href="Colimit.html#functor_colimit_eisretr" xlink:title="functor_colimit_eisretr">
<ellipse fill="#f070d1" stroke="#000000" cx="1589" cy="-829.1855" rx="118.0794" ry="18"/>
<text text-anchor="middle" x="1589" y="-825.4855" font-family="Times,serif" font-size="14.00" fill="#000000">functor_colimit_eisretr</text>
</a>
</g>
</g>
<!-- Colimit_isequiv_functor_colimit&#45;&gt;Colimit_functor_colimit_eisretr -->
<g id="edge4" class="edge">
<title>Colimit_isequiv_functor_colimit&#45;&gt;Colimit_functor_colimit_eisretr</title>
<path fill="none" stroke="#000000" d="M1485.6797,-903.447C1505.6894,-889.065 1534.0716,-868.6653 1556.0271,-852.8848"/>
<polygon fill="#000000" stroke="#000000" points="1558.3186,-855.548 1564.3961,-846.8695 1554.2332,-849.8639 1558.3186,-855.548"/>
</g>
<!-- Colimit_functor_colimit_eissect -->
<g id="node6" class="node">
<title>Colimit_functor_colimit_eissect</title>
<g id="a_node6"><a xlink:href="Colimit.html#functor_colimit_eissect" xlink:title="functor_colimit_eissect">
<ellipse fill="#f070d1" stroke="#000000" cx="1333" cy="-829.1855" rx="119.6788" ry="18"/>
<text text-anchor="middle" x="1333" y="-825.4855" font-family="Times,serif" font-size="14.00" fill="#000000">functor_colimit_eissect</text>
</a>
</g>
</g>
<!-- Colimit_isequiv_functor_colimit&#45;&gt;Colimit_functor_colimit_eissect -->
<g id="edge5" class="edge">
<title>Colimit_isequiv_functor_colimit&#45;&gt;Colimit_functor_colimit_eissect</title>
<path fill="none" stroke="#000000" d="M1436.3203,-903.447C1416.3106,-889.065 1387.9284,-868.6653 1365.9729,-852.8848"/>
<polygon fill="#000000" stroke="#000000" points="1367.7668,-849.8639 1357.6039,-846.8695 1363.6814,-855.548 1367.7668,-849.8639"/>
</g>
<!-- Colimit_functor_colimit -->
<g id="node8" class="node">
<title>Colimit_functor_colimit</title>
<g id="a_node8"><a xlink:href="Colimit.html#functor_colimit" xlink:title="functor_colimit">
<ellipse fill="#f070d1" stroke="#000000" cx="1333" cy="-728.1855" rx="81.7856" ry="18"/>
<text text-anchor="middle" x="1333" y="-724.4855" font-family="Times,serif" font-size="14.00" fill="#000000">functor_colimit</text>
</a>
</g>
</g>
<!-- Colimit_functor_colimit_eisretr&#45;&gt;Colimit_functor_colimit -->
<g id="edge6" class="edge">
<title>Colimit_functor_colimit_eisretr&#45;&gt;Colimit_functor_colimit</title>
<path fill="none" stroke="#000000" d="M1546.1514,-812.2803C1501.0089,-794.4702 1430.0061,-766.4574 1382.5016,-747.7154"/>
<polygon fill="#000000" stroke="#000000" points="1383.6208,-744.3945 1373.0341,-743.9802 1381.0517,-750.906 1383.6208,-744.3945"/>
</g>
<!-- Colimit_functor_colimit_eissect&#45;&gt;Colimit_functor_colimit -->
<g id="edge7" class="edge">
<title>Colimit_functor_colimit_eissect&#45;&gt;Colimit_functor_colimit</title>
<path fill="none" stroke="#000000" d="M1333,-811.1287C1333,-795.9985 1333,-774.1302 1333,-756.6465"/>
<polygon fill="#000000" stroke="#000000" points="1336.5001,-756.4264 1333,-746.4265 1329.5001,-756.4265 1336.5001,-756.4264"/>
</g>
<!-- Colimit_functor_colimit_commute -->
<g id="node7" class="node">
<title>Colimit_functor_colimit_commute</title>
<g id="a_node7"><a xlink:href="Colimit.html#functor_colimit_commute" xlink:title="functor_colimit_commute">
<ellipse fill="#f070d1" stroke="#000000" cx="1057" cy="-829.1855" rx="129.9776" ry="18"/>
<ellipse fill="none" stroke="#000000" cx="1057" cy="-829.1855" rx="133.9773" ry="22"/>
<ellipse fill="none" stroke="#000000" cx="1057" cy="-829.1855" rx="137.9769" ry="26"/>
<text text-anchor="middle" x="1057" y="-825.4855" font-family="Times,serif" font-size="14.00" fill="#000000">functor_colimit_commute</text>
</a>
</g>
</g>
<!-- Colimit_functor_colimit_commute&#45;&gt;Colimit_functor_colimit -->
<g id="edge8" class="edge">
<title>Colimit_functor_colimit_commute&#45;&gt;Colimit_functor_colimit</title>
<path fill="none" stroke="#000000" d="M1120.32,-806.014C1169.0546,-788.18 1235.5709,-763.8389 1281.1665,-747.1535"/>
<polygon fill="#000000" stroke="#000000" points="1282.3765,-750.4378 1290.5647,-743.7143 1279.9709,-743.8641 1282.3765,-750.4378"/>
</g>
<!-- Colimit_cocone_postcompose_inv -->
<g id="node23" class="node">
<title>Colimit_cocone_postcompose_inv</title>
<g id="a_node23"><a xlink:href="Colimit.html#cocone_postcompose_inv" xlink:title="cocone_postcompose_inv">
<ellipse fill="#f070d1" stroke="#000000" cx="1333" cy="-627.1855" rx="128.0773" ry="18"/>
<text text-anchor="middle" x="1333" y="-623.4855" font-family="Times,serif" font-size="14.00" fill="#000000">cocone_postcompose_inv</text>
</a>
</g>
</g>
<!-- Colimit_functor_colimit&#45;&gt;Colimit_cocone_postcompose_inv -->
<g id="edge9" class="edge">
<title>Colimit_functor_colimit&#45;&gt;Colimit_cocone_postcompose_inv</title>
<path fill="none" stroke="#000000" d="M1333,-710.1287C1333,-694.9985 1333,-673.1302 1333,-655.6465"/>
<polygon fill="#000000" stroke="#000000" points="1336.5001,-655.4264 1333,-645.4265 1329.5001,-655.4265 1336.5001,-655.4264"/>
</g>
<!-- Colimit_iscolimit_postcompose_equiv -->
<g id="node9" class="node">
<title>Colimit_iscolimit_postcompose_equiv</title>
<g id="a_node9"><a xlink:href="Colimit.html#iscolimit_postcompose_equiv" xlink:title="iscolimit_postcompose_equiv">
<ellipse fill="#f070d1" stroke="#000000" cx="489" cy="-627.1855" rx="146.7798" ry="18"/>
<ellipse fill="none" stroke="#000000" cx="489" cy="-627.1855" rx="150.7769" ry="22"/>
<ellipse fill="none" stroke="#000000" cx="489" cy="-627.1855" rx="154.774" ry="26"/>
<text text-anchor="middle" x="489" y="-623.4855" font-family="Times,serif" font-size="14.00" fill="#000000">iscolimit_postcompose_equiv</text>
</a>
</g>
</g>
<!-- Colimit_Build_IsColimit -->
<g id="node30" class="node">
<title>Colimit_Build_IsColimit</title>
<g id="a_node30"><a xlink:href="Colimit.html#Build_IsColimit" xlink:title="Build_IsColimit">
<ellipse fill="#7faaff" stroke="#000000" cx="831" cy="-535.1855" rx="83.3857" ry="18"/>
<text text-anchor="middle" x="831" y="-531.4855" font-family="Times,serif" font-size="14.00" fill="#000000">Build_IsColimit</text>
</a>
</g>
</g>
<!-- Colimit_iscolimit_postcompose_equiv&#45;&gt;Colimit_Build_IsColimit -->
<g id="edge10" class="edge">
<title>Colimit_iscolimit_postcompose_equiv&#45;&gt;Colimit_Build_IsColimit</title>
<path fill="none" stroke="#000000" d="M571.3527,-605.0321C632.1374,-588.6807 713.578,-566.7727 768.9301,-551.8826"/>
<polygon fill="#000000" stroke="#000000" points="769.8606,-555.2568 778.6081,-549.2792 768.0421,-548.4971 769.8606,-555.2568"/>
</g>
<!-- Colimit_IsColimit -->
<g id="node31" class="node">
<title>Colimit_IsColimit</title>
<g id="a_node31"><a xlink:href="Colimit.html#IsColimit" xlink:title="IsColimit">
<ellipse fill="#e2cdfa" stroke="#000000" cx="1101" cy="-535.1855" rx="53.8905" ry="18"/>
<text text-anchor="middle" x="1101" y="-531.4855" font-family="Times,serif" font-size="14.00" fill="#000000">IsColimit</text>
</a>
</g>
</g>
<!-- Colimit_iscolimit_postcompose_equiv&#45;&gt;Colimit_IsColimit -->
<g id="edge11" class="edge">
<title>Colimit_iscolimit_postcompose_equiv&#45;&gt;Colimit_IsColimit</title>
<path fill="none" stroke="#000000" d="M601.4559,-609.1901C618.714,-606.4767 636.3295,-603.7348 653,-601.1855 791.9013,-579.9441 955.2268,-556.1912 1041.163,-543.7881"/>
<polygon fill="#000000" stroke="#000000" points="1041.8547,-547.2246 1051.2526,-542.3327 1040.8553,-540.2963 1041.8547,-547.2246"/>
</g>
<!-- Colimit_iscolimit_precompose_equiv -->
<g id="node10" class="node">
<title>Colimit_iscolimit_precompose_equiv</title>
<g id="a_node10"><a xlink:href="Colimit.html#iscolimit_precompose_equiv" xlink:title="iscolimit_precompose_equiv">
<ellipse fill="#f070d1" stroke="#000000" cx="166" cy="-627.1855" rx="142.1836" ry="18"/>
<ellipse fill="none" stroke="#000000" cx="166" cy="-627.1855" rx="146.1792" ry="22"/>
<ellipse fill="none" stroke="#000000" cx="166" cy="-627.1855" rx="150.1749" ry="26"/>
<text text-anchor="middle" x="166" y="-623.4855" font-family="Times,serif" font-size="14.00" fill="#000000">iscolimit_precompose_equiv</text>
</a>
</g>
</g>
<!-- Colimit_iscolimit_precompose_equiv&#45;&gt;Colimit_Build_IsColimit -->
<g id="edge12" class="edge">
<title>Colimit_iscolimit_precompose_equiv&#45;&gt;Colimit_Build_IsColimit</title>
<path fill="none" stroke="#000000" d="M274.1213,-609.0226C291.1332,-606.3043 308.5342,-603.6049 325,-601.1855 473.7186,-579.3329 647.5778,-557.4547 747.9224,-545.1844"/>
<polygon fill="#000000" stroke="#000000" points="748.4946,-548.6406 757.9968,-543.9545 747.6463,-541.6922 748.4946,-548.6406"/>
</g>
<!-- Colimit_iscolimit_precompose_equiv&#45;&gt;Colimit_IsColimit -->
<g id="edge13" class="edge">
<title>Colimit_iscolimit_precompose_equiv&#45;&gt;Colimit_IsColimit</title>
<path fill="none" stroke="#000000" d="M271.8805,-608.6309C289.5826,-605.8855 307.7851,-603.2803 325,-601.1855 589.6801,-568.9773 657.4571,-577.2664 923,-553.1855 961.546,-549.6899 1004.7407,-545.3326 1038.9259,-541.7806"/>
<polygon fill="#000000" stroke="#000000" points="1039.6477,-545.2244 1049.2307,-540.706 1038.9216,-538.2621 1039.6477,-545.2244"/>
</g>
<!-- Colimit_iscolimit_colimit -->
<g id="node11" class="node">
<title>Colimit_iscolimit_colimit</title>
<g id="a_node11"><a xlink:href="Colimit.html#iscolimit_colimit" xlink:title="iscolimit_colimit">
<ellipse fill="#f070d1" stroke="#000000" cx="1785" cy="-627.1855" rx="87.9648" ry="18"/>
<ellipse fill="none" stroke="#000000" cx="1785" cy="-627.1855" rx="91.9749" ry="22"/>
<ellipse fill="none" stroke="#000000" cx="1785" cy="-627.1855" rx="95.985" ry="26"/>
<text text-anchor="middle" x="1785" y="-623.4855" font-family="Times,serif" font-size="14.00" fill="#000000">iscolimit_colimit</text>
</a>
</g>
</g>
<!-- Colimit_unicocone_colimit -->
<g id="node12" class="node">
<title>Colimit_unicocone_colimit</title>
<g id="a_node12"><a xlink:href="Colimit.html#unicocone_colimit" xlink:title="unicocone_colimit">
<ellipse fill="#f070d1" stroke="#000000" cx="1840" cy="-535.1855" rx="94.7833" ry="18"/>
<text text-anchor="middle" x="1840" y="-531.4855" font-family="Times,serif" font-size="14.00" fill="#000000">unicocone_colimit</text>
</a>
</g>
</g>
<!-- Colimit_iscolimit_colimit&#45;&gt;Colimit_unicocone_colimit -->
<g id="edge14" class="edge">
<title>Colimit_iscolimit_colimit&#45;&gt;Colimit_unicocone_colimit</title>
<path fill="none" stroke="#000000" d="M1800.6137,-601.0681C1807.9023,-588.8762 1816.5703,-574.377 1823.9167,-562.0885"/>
<polygon fill="#000000" stroke="#000000" points="1827.105,-563.5763 1829.2322,-553.1971 1821.0968,-559.9844 1827.105,-563.5763"/>
</g>
<!-- Colimit_iscolimit_colimit&#45;&gt;Colimit_Build_IsColimit -->
<g id="edge15" class="edge">
<title>Colimit_iscolimit_colimit&#45;&gt;Colimit_Build_IsColimit</title>
<path fill="none" stroke="#000000" d="M1717.5637,-608.7154C1705.1462,-605.8209 1692.2389,-603.144 1680,-601.1855 1397.4651,-555.9721 1323.1989,-576.2462 1038,-553.1855 998.7254,-550.0098 955.2804,-546.2671 918.3742,-543.0194"/>
<polygon fill="#000000" stroke="#000000" points="918.4159,-539.5096 908.147,-542.1174 917.8008,-546.4825 918.4159,-539.5096"/>
</g>
<!-- Colimit_iscolimit_colimit&#45;&gt;Colimit_IsColimit -->
<g id="edge16" class="edge">
<title>Colimit_iscolimit_colimit&#45;&gt;Colimit_IsColimit</title>
<path fill="none" stroke="#000000" d="M1716.6501,-608.908C1704.5008,-606.0468 1691.9213,-603.3316 1680,-601.1855 1494.0208,-567.7044 1271.2064,-547.9457 1164.3101,-539.7085"/>
<polygon fill="#000000" stroke="#000000" points="1164.2598,-536.1946 1154.0225,-538.9238 1163.7274,-543.1743 1164.2598,-536.1946"/>
</g>
<!-- Colimit_cocone_colimit -->
<g id="node13" class="node">
<title>Colimit_cocone_colimit</title>
<g id="a_node13"><a xlink:href="Colimit.html#cocone_colimit" xlink:title="cocone_colimit">
<ellipse fill="#f070d1" stroke="#000000" cx="1840" cy="-287.1855" rx="80.6858" ry="18"/>
<text text-anchor="middle" x="1840" y="-283.4855" font-family="Times,serif" font-size="14.00" fill="#000000">cocone_colimit</text>
</a>
</g>
</g>
<!-- Colimit_unicocone_colimit&#45;&gt;Colimit_cocone_colimit -->
<g id="edge17" class="edge">
<title>Colimit_unicocone_colimit&#45;&gt;Colimit_cocone_colimit</title>
<path fill="none" stroke="#000000" d="M1840,-516.9494C1840,-474.1322 1840,-366.9178 1840,-315.5245"/>
<polygon fill="#000000" stroke="#000000" points="1843.5001,-315.4482 1840,-305.4482 1836.5001,-315.4483 1843.5001,-315.4482"/>
</g>
<!-- Colimit_Colimit_rec_beta_colimp -->
<g id="node16" class="node">
<title>Colimit_Colimit_rec_beta_colimp</title>
<g id="a_node16"><a xlink:href="Colimit.html#Colimit_rec_beta_colimp" xlink:title="Colimit_rec_beta_colimp">
<ellipse fill="#f070d1" stroke="#000000" cx="2080" cy="-452.1855" rx="126.1777" ry="18"/>
<text text-anchor="middle" x="2080" y="-448.4855" font-family="Times,serif" font-size="14.00" fill="#000000">Colimit_rec_beta_colimp</text>
</a>
</g>
</g>
<!-- Colimit_unicocone_colimit&#45;&gt;Colimit_Colimit_rec_beta_colimp -->
<g id="edge18" class="edge">
<title>Colimit_unicocone_colimit&#45;&gt;Colimit_Colimit_rec_beta_colimp</title>
<path fill="none" stroke="#000000" d="M1885.7071,-519.3784C1924.4428,-505.9823 1980.2059,-486.6976 2022.0659,-472.221"/>
<polygon fill="#000000" stroke="#000000" points="2023.2734,-475.5069 2031.5802,-468.9306 2020.9855,-468.8913 2023.2734,-475.5069"/>
</g>
<!-- Colimit_colimp -->
<g id="node20" class="node">
<title>Colimit_colimp</title>
<g id="a_node20"><a xlink:href="Colimit.html#colimp" xlink:title="colimp">
<ellipse fill="#f070d1" stroke="#000000" cx="1921" cy="-204.1855" rx="42.4939" ry="18"/>
<text text-anchor="middle" x="1921" y="-200.4855" font-family="Times,serif" font-size="14.00" fill="#000000">colimp</text>
</a>
</g>
</g>
<!-- Colimit_cocone_colimit&#45;&gt;Colimit_colimp -->
<g id="edge19" class="edge">
<title>Colimit_cocone_colimit&#45;&gt;Colimit_colimp</title>
<path fill="none" stroke="#000000" d="M1857.178,-269.5833C1868.9017,-257.5701 1884.5806,-241.5041 1897.464,-228.3026"/>
<polygon fill="#000000" stroke="#000000" points="1900.196,-230.5144 1904.6755,-220.9131 1895.1862,-225.6254 1900.196,-230.5144"/>
</g>
<!-- Colimit_isequiv_colimit_rec -->
<g id="node15" class="node">
<title>Colimit_isequiv_colimit_rec</title>
<g id="a_node15"><a xlink:href="Colimit.html#isequiv_colimit_rec" xlink:title="isequiv_colimit_rec">
<ellipse fill="#f070d1" stroke="#000000" cx="2166" cy="-535.1855" rx="100.9827" ry="18"/>
<text text-anchor="middle" x="2166" y="-531.4855" font-family="Times,serif" font-size="14.00" fill="#000000">isequiv_colimit_rec</text>
</a>
</g>
</g>
<!-- Colimit_equiv_colimit_rec&#45;&gt;Colimit_isequiv_colimit_rec -->
<g id="edge20" class="edge">
<title>Colimit_equiv_colimit_rec&#45;&gt;Colimit_isequiv_colimit_rec</title>
<path fill="none" stroke="#000000" d="M2218.1581,-609.0092C2208.6323,-595.5265 2195.4973,-576.9355 2184.792,-561.7834"/>
<polygon fill="#000000" stroke="#000000" points="2187.4441,-559.4716 2178.8152,-553.324 2181.7271,-563.5108 2187.4441,-559.4716"/>
</g>
<!-- Colimit_isequiv_colimit_rec&#45;&gt;Colimit_Colimit_rec_beta_colimp -->
<g id="edge21" class="edge">
<title>Colimit_isequiv_colimit_rec&#45;&gt;Colimit_Colimit_rec_beta_colimp</title>
<path fill="none" stroke="#000000" d="M2147.3393,-517.1757C2135.2808,-505.5379 2119.4147,-490.2252 2106.1122,-477.3868"/>
<polygon fill="#000000" stroke="#000000" points="2108.2504,-474.5862 2098.6243,-470.1601 2103.3892,-479.623 2108.2504,-474.5862"/>
</g>
<!-- Colimit_Colimit_rec -->
<g id="node17" class="node">
<title>Colimit_Colimit_rec</title>
<g id="a_node17"><a xlink:href="Colimit.html#Colimit_rec" xlink:title="Colimit_rec">
<ellipse fill="#f070d1" stroke="#000000" cx="2203" cy="-370.1855" rx="64.9885" ry="18"/>
<text text-anchor="middle" x="2203" y="-366.4855" font-family="Times,serif" font-size="14.00" fill="#000000">Colimit_rec</text>
</a>
</g>
</g>
<!-- Colimit_Colimit_rec_beta_colimp&#45;&gt;Colimit_Colimit_rec -->
<g id="edge22" class="edge">
<title>Colimit_Colimit_rec_beta_colimp&#45;&gt;Colimit_Colimit_rec</title>
<path fill="none" stroke="#000000" d="M2106.6892,-434.3927C2125.1533,-422.0833 2149.8594,-405.6126 2169.6254,-392.4352"/>
<polygon fill="#000000" stroke="#000000" points="2171.6606,-395.2849 2178.0397,-386.8257 2167.7777,-389.4606 2171.6606,-395.2849"/>
</g>
<!-- Colimit_Colimit_ind_beta_colimp -->
<g id="node18" class="node">
<title>Colimit_Colimit_ind_beta_colimp</title>
<g id="a_node18"><a xlink:href="Colimit.html#Colimit_ind_beta_colimp" xlink:title="Colimit_ind_beta_colimp">
<ellipse fill="#f070d1" stroke="#000000" cx="1994" cy="-370.1855" rx="126.1777" ry="18"/>
<text text-anchor="middle" x="1994" y="-366.4855" font-family="Times,serif" font-size="14.00" fill="#000000">Colimit_ind_beta_colimp</text>
</a>
</g>
</g>
<!-- Colimit_Colimit_rec_beta_colimp&#45;&gt;Colimit_Colimit_ind_beta_colimp -->
<g id="edge23" class="edge">
<title>Colimit_Colimit_rec_beta_colimp&#45;&gt;Colimit_Colimit_ind_beta_colimp</title>
<path fill="none" stroke="#000000" d="M2060.9138,-433.987C2048.9176,-422.5487 2033.2803,-407.6388 2020.1393,-395.109"/>
<polygon fill="#000000" stroke="#000000" points="2022.3896,-392.4186 2012.7369,-388.0509 2017.5591,-397.4848 2022.3896,-392.4186"/>
</g>
<!-- Colimit_Colimit_ind -->
<g id="node19" class="node">
<title>Colimit_Colimit_ind</title>
<g id="a_node19"><a xlink:href="Colimit.html#Colimit_ind" xlink:title="Colimit_ind">
<ellipse fill="#f070d1" stroke="#000000" cx="2003" cy="-287.1855" rx="64.189" ry="18"/>
<text text-anchor="middle" x="2003" y="-283.4855" font-family="Times,serif" font-size="14.00" fill="#000000">Colimit_ind</text>
</a>
</g>
</g>
<!-- Colimit_Colimit_rec&#45;&gt;Colimit_Colimit_ind -->
<g id="edge24" class="edge">
<title>Colimit_Colimit_rec&#45;&gt;Colimit_Colimit_ind</title>
<path fill="none" stroke="#000000" d="M2166.7815,-355.1548C2133.6115,-341.3892 2084.3728,-320.9552 2048.5481,-306.0879"/>
<polygon fill="#000000" stroke="#000000" points="2049.8642,-302.8448 2039.2864,-302.2443 2047.1811,-309.3101 2049.8642,-302.8448"/>
</g>
<!-- Colimit_Colimit_ind_beta_colimp&#45;&gt;Colimit_Colimit_ind -->
<g id="edge25" class="edge">
<title>Colimit_Colimit_ind_beta_colimp&#45;&gt;Colimit_Colimit_ind</title>
<path fill="none" stroke="#000000" d="M1995.9529,-352.1757C1997.1125,-341.4818 1998.6085,-327.6849 1999.9237,-315.5561"/>
<polygon fill="#000000" stroke="#000000" points="2003.4214,-315.7658 2001.0199,-305.4467 1996.4622,-315.0111 2003.4214,-315.7658"/>
</g>
<!-- Colimit_Colimit_ind&#45;&gt;Colimit_colimp -->
<g id="edge26" class="edge">
<title>Colimit_Colimit_ind&#45;&gt;Colimit_colimp</title>
<path fill="none" stroke="#000000" d="M1985.6099,-269.5833C1973.7415,-257.5701 1957.869,-241.5041 1944.8266,-228.3026"/>
<polygon fill="#000000" stroke="#000000" points="1947.044,-225.5671 1937.5261,-220.9131 1942.0644,-230.4868 1947.044,-225.5671"/>
</g>
<!-- Colimit_colim -->
<g id="node21" class="node">
<title>Colimit_colim</title>
<g id="a_node21"><a xlink:href="Colimit.html#colim" xlink:title="colim">
<ellipse fill="#f070d1" stroke="#000000" cx="1921" cy="-122.1855" rx="36.2938" ry="18"/>
<text text-anchor="middle" x="1921" y="-118.4855" font-family="Times,serif" font-size="14.00" fill="#000000">colim</text>
</a>
</g>
</g>
<!-- Colimit_colimp&#45;&gt;Colimit_colim -->
<g id="edge27" class="edge">
<title>Colimit_colimp&#45;&gt;Colimit_colim</title>
<path fill="none" stroke="#000000" d="M1921,-185.987C1921,-175.5831 1921,-162.307 1921,-150.5622"/>
<polygon fill="#000000" stroke="#000000" points="1924.5001,-150.333 1921,-140.3331 1917.5001,-150.3331 1924.5001,-150.333"/>
</g>
<!-- Colimit_Colimit -->
<g id="node22" class="node">
<title>Colimit_Colimit</title>
<g id="a_node22"><a xlink:href="Colimit.html#Colimit" xlink:title="Colimit">
<ellipse fill="#f070d1" stroke="#000000" cx="1921" cy="-39.1855" rx="44.6926" ry="18"/>
<text text-anchor="middle" x="1921" y="-35.4855" font-family="Times,serif" font-size="14.00" fill="#000000">Colimit</text>
</a>
</g>
</g>
<!-- Colimit_colim&#45;&gt;Colimit_Colimit -->
<g id="edge28" class="edge">
<title>Colimit_colim&#45;&gt;Colimit_Colimit</title>
<path fill="none" stroke="#000000" d="M1921,-104.1757C1921,-93.4818 1921,-79.6849 1921,-67.5561"/>
<polygon fill="#000000" stroke="#000000" points="1924.5001,-67.4467 1921,-57.4467 1917.5001,-67.4467 1924.5001,-67.4467"/>
</g>
<!-- Colimit_cocone_postcompose_inv&#45;&gt;Colimit_IsColimit -->
<g id="edge29" class="edge">
<title>Colimit_cocone_postcompose_inv&#45;&gt;Colimit_IsColimit</title>
<path fill="none" stroke="#000000" d="M1290.1773,-610.204C1249.0002,-593.8752 1187.0302,-569.3009 1145.3488,-552.7721"/>
<polygon fill="#000000" stroke="#000000" points="1146.5832,-549.4965 1135.9972,-549.0637 1144.0028,-556.0035 1146.5832,-549.4965"/>
</g>
<!-- Colimit_iscolimit_unicocone -->
<g id="node24" class="node">
<title>Colimit_iscolimit_unicocone</title>
<g id="a_node24"><a xlink:href="Colimit.html#iscolimit_unicocone" xlink:title="iscolimit_unicocone">
<ellipse fill="#f070d1" stroke="#000000" cx="2009" cy="-627.1855" rx="102.8683" ry="18"/>
<ellipse fill="none" stroke="#000000" cx="2009" cy="-627.1855" rx="106.8752" ry="22"/>
<ellipse fill="none" stroke="#000000" cx="2009" cy="-627.1855" rx="110.8821" ry="26"/>
<text text-anchor="middle" x="2009" y="-623.4855" font-family="Times,serif" font-size="14.00" fill="#000000">iscolimit_unicocone</text>
</a>
</g>
</g>
<!-- Colimit_iscolimit_unicocone&#45;&gt;Colimit_IsColimit -->
<g id="edge30" class="edge">
<title>Colimit_iscolimit_unicocone&#45;&gt;Colimit_IsColimit</title>
<path fill="none" stroke="#000000" d="M1931.1786,-608.6447C1917.5129,-605.8298 1903.3836,-603.1984 1890,-601.1855 1622.3955,-560.9377 1299.7641,-543.5606 1165.0025,-537.6805"/>
<polygon fill="#000000" stroke="#000000" points="1164.998,-534.1771 1154.8568,-537.2441 1164.6972,-541.1707 1164.998,-534.1771"/>
</g>
<!-- Colimit_iscolimit_cocone -->
<g id="node25" class="node">
<title>Colimit_iscolimit_cocone</title>
<g id="a_node25"><a xlink:href="Colimit.html#iscolimit_cocone" xlink:title="iscolimit_cocone">
<ellipse fill="#f070d1" stroke="#000000" cx="1575" cy="-627.1855" rx="88.2934" ry="18"/>
<ellipse fill="none" stroke="#000000" cx="1575" cy="-627.1855" rx="92.2889" ry="22"/>
<ellipse fill="none" stroke="#000000" cx="1575" cy="-627.1855" rx="96.2844" ry="26"/>
<text text-anchor="middle" x="1575" y="-623.4855" font-family="Times,serif" font-size="14.00" fill="#000000">iscolimit_cocone</text>
</a>
</g>
</g>
<!-- Colimit_iscolimit_cocone&#45;&gt;Colimit_IsColimit -->
<g id="edge31" class="edge">
<title>Colimit_iscolimit_cocone&#45;&gt;Colimit_IsColimit</title>
<path fill="none" stroke="#000000" d="M1505.1127,-609.2008C1493.4186,-606.3868 1481.388,-603.6111 1470,-601.1855 1361.0304,-577.975 1232.7835,-556.2919 1159.7751,-544.4735"/>
<polygon fill="#000000" stroke="#000000" points="1160.2774,-541.0094 1149.8477,-542.8722 1159.1627,-547.92 1160.2774,-541.0094"/>
</g>
<!-- Colimit_IsColimit_sind -->
<g id="node26" class="node">
<title>Colimit_IsColimit_sind</title>
<g id="a_node26"><a xlink:href="Colimit.html#IsColimit_sind" xlink:title="IsColimit_sind">
<ellipse fill="#f070d1" stroke="#000000" cx="1101" cy="-627.1855" rx="77.9868" ry="18"/>
<ellipse fill="none" stroke="#000000" cx="1101" cy="-627.1855" rx="81.9865" ry="22"/>
<ellipse fill="none" stroke="#000000" cx="1101" cy="-627.1855" rx="85.9862" ry="26"/>
<text text-anchor="middle" x="1101" y="-623.4855" font-family="Times,serif" font-size="14.00" fill="#000000">IsColimit_sind</text>
</a>
</g>
</g>
<!-- Colimit_IsColimit_sind&#45;&gt;Colimit_Build_IsColimit -->
<g id="edge32" class="edge">
<title>Colimit_IsColimit_sind&#45;&gt;Colimit_Build_IsColimit</title>
<path fill="none" stroke="#000000" d="M1043.7399,-607.6746C996.9163,-591.7199 931.1653,-569.3159 885.1942,-553.6516"/>
<polygon fill="#000000" stroke="#000000" points="886.2931,-550.3285 875.6986,-550.4161 884.0353,-556.9544 886.2931,-550.3285"/>
</g>
<!-- Colimit_IsColimit_sind&#45;&gt;Colimit_IsColimit -->
<g id="edge33" class="edge">
<title>Colimit_IsColimit_sind&#45;&gt;Colimit_IsColimit</title>
<path fill="none" stroke="#000000" d="M1101,-601.0681C1101,-589.3543 1101,-575.5106 1101,-563.5441"/>
<polygon fill="#000000" stroke="#000000" points="1104.5001,-563.1971 1101,-553.1971 1097.5001,-563.1972 1104.5001,-563.1971"/>
</g>
<!-- Colimit_IsColimit_rec -->
<g id="node27" class="node">
<title>Colimit_IsColimit_rec</title>
<g id="a_node27"><a xlink:href="Colimit.html#IsColimit_rec" xlink:title="IsColimit_rec">
<ellipse fill="#f070d1" stroke="#000000" cx="920" cy="-728.1855" rx="73.3926" ry="18"/>
<ellipse fill="none" stroke="#000000" cx="920" cy="-728.1855" rx="77.3898" ry="22"/>
<ellipse fill="none" stroke="#000000" cx="920" cy="-728.1855" rx="81.387" ry="26"/>
<text text-anchor="middle" x="920" y="-724.4855" font-family="Times,serif" font-size="14.00" fill="#000000">IsColimit_rec</text>
</a>
</g>
</g>
<!-- Colimit_IsColimit_rect -->
<g id="node29" class="node">
<title>Colimit_IsColimit_rect</title>
<g id="a_node29"><a xlink:href="Colimit.html#IsColimit_rect" xlink:title="IsColimit_rect">
<ellipse fill="#f070d1" stroke="#000000" cx="920" cy="-627.1855" rx="77.1866" ry="18"/>
<text text-anchor="middle" x="920" y="-623.4855" font-family="Times,serif" font-size="14.00" fill="#000000">IsColimit_rect</text>
</a>
</g>
</g>
<!-- Colimit_IsColimit_rec&#45;&gt;Colimit_IsColimit_rect -->
<g id="edge34" class="edge">
<title>Colimit_IsColimit_rec&#45;&gt;Colimit_IsColimit_rect</title>
<path fill="none" stroke="#000000" d="M920,-702.1755C920,-687.8775 920,-670.1237 920,-655.4803"/>
<polygon fill="#000000" stroke="#000000" points="923.5001,-655.4612 920,-645.4612 916.5001,-655.4612 923.5001,-655.4612"/>
</g>
<!-- Colimit_IsColimit_ind -->
<g id="node28" class="node">
<title>Colimit_IsColimit_ind</title>
<g id="a_node28"><a xlink:href="Colimit.html#IsColimit_ind" xlink:title="IsColimit_ind">
<ellipse fill="#7fffd4" stroke="#000000" cx="743" cy="-627.1855" rx="73.3926" ry="18"/>
<ellipse fill="none" stroke="#000000" cx="743" cy="-627.1855" rx="77.3898" ry="22"/>
<ellipse fill="none" stroke="#000000" cx="743" cy="-627.1855" rx="81.387" ry="26"/>
<text text-anchor="middle" x="743" y="-623.4855" font-family="Times,serif" font-size="14.00" fill="#000000">IsColimit_ind</text>
</a>
</g>
</g>
<!-- Colimit_IsColimit_ind&#45;&gt;Colimit_Build_IsColimit -->
<g id="edge35" class="edge">
<title>Colimit_IsColimit_ind&#45;&gt;Colimit_Build_IsColimit</title>
<path fill="none" stroke="#000000" d="M767.0464,-602.0461C779.4681,-589.0598 794.5816,-573.2593 806.997,-560.2795"/>
<polygon fill="#000000" stroke="#000000" points="809.5715,-562.6515 813.9545,-553.0058 804.513,-557.813 809.5715,-562.6515"/>
</g>
<!-- Colimit_IsColimit_ind&#45;&gt;Colimit_IsColimit -->
<g id="edge36" class="edge">
<title>Colimit_IsColimit_ind&#45;&gt;Colimit_IsColimit</title>
<path fill="none" stroke="#000000" d="M803.6132,-609.5392C813.7428,-606.6845 824.1561,-603.8075 834,-601.1855 907.2564,-581.6729 992.3439,-560.9775 1046.411,-548.0716"/>
<polygon fill="#000000" stroke="#000000" points="1047.5502,-551.3983 1056.4667,-545.6758 1045.9278,-544.5889 1047.5502,-551.3983"/>
</g>
<!-- Colimit_IsColimit_rect&#45;&gt;Colimit_Build_IsColimit -->
<g id="edge37" class="edge">
<title>Colimit_IsColimit_rect&#45;&gt;Colimit_Build_IsColimit</title>
<path fill="none" stroke="#000000" d="M902.8399,-609.447C889.2963,-595.4468 870.2362,-575.7442 855.1516,-560.1512"/>
<polygon fill="#000000" stroke="#000000" points="857.5759,-557.6233 848.1074,-552.8695 852.5448,-562.4904 857.5759,-557.6233"/>
</g>
<!-- Colimit_IsColimit_rect&#45;&gt;Colimit_IsColimit -->
<g id="edge38" class="edge">
<title>Colimit_IsColimit_rect&#45;&gt;Colimit_IsColimit</title>
<path fill="none" stroke="#000000" d="M952.3592,-610.7377C983.0851,-595.1201 1029.3168,-571.6212 1062.0496,-554.9835"/>
<polygon fill="#000000" stroke="#000000" points="1063.9919,-557.9225 1071.3205,-550.2712 1060.8201,-551.6823 1063.9919,-557.9225"/>
</g>
</g>
</svg>
