<?xml version="1.0" encoding="UTF-8" standalone="no"?>
<!DOCTYPE svg PUBLIC "-//W3C//DTD SVG 1.1//EN"
 "http://www.w3.org/Graphics/SVG/1.1/DTD/svg11.dtd">
<!-- Generated by graphviz version 2.40.1 (20161225.0304)
 -->
<!-- Title: HoTT_Basics_Numeral Pages: 1 -->
<svg width="1610pt" height="809pt"
 viewBox="0.00 0.00 1610.00 809.00" xmlns="http://www.w3.org/2000/svg" xmlns:xlink="http://www.w3.org/1999/xlink">
<g id="graph0" class="graph" transform="scale(1 1) rotate(0) translate(4 805)">
<title>HoTT_Basics_Numeral</title>
<polygon fill="#ffffff" stroke="transparent" points="-4,4 -4,-805 1606,-805 1606,4 -4,4"/>
<g id="clust1" class="cluster">
<title>cluster_Numeral</title>
<polygon fill="#ffffc3" stroke="#000000" points="8,-24 8,-777 1594,-777 1594,-24 8,-24"/>
<text text-anchor="middle" x="48" y="-761.8" font-family="Times,serif" font-size="14.00" fill="#000000">Numeral</text>
</g>
<!-- Numeral_int_of_int -->
<g id="node1" class="node">
<title>Numeral_int_of_int</title>
<g id="a_node1"><a xlink:href="Numeral.html#int_of_int" xlink:title="int_of_int">
<ellipse fill="#f070d1" stroke="#000000" cx="1006" cy="-342" rx="54.6783" ry="18"/>
<ellipse fill="none" stroke="#000000" cx="1006" cy="-342" rx="58.6844" ry="22"/>
<ellipse fill="none" stroke="#000000" cx="1006" cy="-342" rx="62.6905" ry="26"/>
<text text-anchor="middle" x="1006" y="-338.3" font-family="Times,serif" font-size="14.00" fill="#000000">int_of_int</text>
</a>
</g>
</g>
<!-- Numeral_int -->
<g id="node16" class="node">
<title>Numeral_int</title>
<g id="a_node16"><a xlink:href="Numeral.html#int" xlink:title="int">
<ellipse fill="#e2cdfa" stroke="#000000" cx="857" cy="-102" rx="27" ry="18"/>
<text text-anchor="middle" x="857" y="-98.3" font-family="Times,serif" font-size="14.00" fill="#000000">int</text>
</a>
</g>
</g>
<!-- Numeral_int_of_int&#45;&gt;Numeral_int -->
<g id="edge1" class="edge">
<title>Numeral_int_of_int&#45;&gt;Numeral_int</title>
<path fill="none" stroke="#000000" d="M990.336,-316.7694C961.7567,-270.7356 901.4622,-173.617 872.79,-127.4335"/>
<polygon fill="#000000" stroke="#000000" points="875.744,-125.556 867.4959,-118.9062 869.7969,-129.2482 875.744,-125.556"/>
</g>
<!-- Numeral_uint_of_uint -->
<g id="node2" class="node">
<title>Numeral_uint_of_uint</title>
<g id="a_node2"><a xlink:href="Numeral.html#uint_of_uint" xlink:title="uint_of_uint">
<ellipse fill="#f070d1" stroke="#000000" cx="488" cy="-342" rx="66.1109" ry="18"/>
<ellipse fill="none" stroke="#000000" cx="488" cy="-342" rx="70.0999" ry="22"/>
<ellipse fill="none" stroke="#000000" cx="488" cy="-342" rx="74.0888" ry="26"/>
<text text-anchor="middle" x="488" y="-338.3" font-family="Times,serif" font-size="14.00" fill="#000000">uint_of_uint</text>
</a>
</g>
</g>
<!-- Numeral_uint -->
<g id="node23" class="node">
<title>Numeral_uint</title>
<g id="a_node23"><a xlink:href="Numeral.html#uint" xlink:title="uint">
<ellipse fill="#e2cdfa" stroke="#000000" cx="320" cy="-102" rx="29.4969" ry="18"/>
<text text-anchor="middle" x="320" y="-98.3" font-family="Times,serif" font-size="14.00" fill="#000000">uint</text>
</a>
</g>
</g>
<!-- Numeral_uint_of_uint&#45;&gt;Numeral_uint -->
<g id="edge2" class="edge">
<title>Numeral_uint_of_uint&#45;&gt;Numeral_uint</title>
<path fill="none" stroke="#000000" d="M470.0211,-316.3158C437.576,-269.9657 369.6313,-172.9019 337.5225,-127.0322"/>
<polygon fill="#000000" stroke="#000000" points="340.382,-125.0138 331.78,-118.8286 334.6474,-129.0281 340.382,-125.0138"/>
</g>
<!-- Numeral_numeral_sind -->
<g id="node3" class="node">
<title>Numeral_numeral_sind</title>
<g id="a_node3"><a xlink:href="Numeral.html#numeral_sind" xlink:title="numeral_sind">
<ellipse fill="#f070d1" stroke="#000000" cx="1333" cy="-342" rx="73.3926" ry="18"/>
<ellipse fill="none" stroke="#000000" cx="1333" cy="-342" rx="77.3898" ry="22"/>
<ellipse fill="none" stroke="#000000" cx="1333" cy="-342" rx="81.387" ry="26"/>
<text text-anchor="middle" x="1333" y="-338.3" font-family="Times,serif" font-size="14.00" fill="#000000">numeral_sind</text>
</a>
</g>
</g>
<!-- Numeral_Hex -->
<g id="node7" class="node">
<title>Numeral_Hex</title>
<g id="a_node7"><a xlink:href="Numeral.html#Hex" xlink:title="Hex">
<ellipse fill="#7faaff" stroke="#000000" cx="1333" cy="-102" rx="29.795" ry="18"/>
<text text-anchor="middle" x="1333" y="-98.3" font-family="Times,serif" font-size="14.00" fill="#000000">Hex</text>
</a>
</g>
</g>
<!-- Numeral_numeral_sind&#45;&gt;Numeral_Hex -->
<g id="edge3" class="edge">
<title>Numeral_numeral_sind&#45;&gt;Numeral_Hex</title>
<path fill="none" stroke="#000000" d="M1333,-315.8589C1333,-270.4367 1333,-177.3149 1333,-130.3774"/>
<polygon fill="#000000" stroke="#000000" points="1336.5001,-130.2938 1333,-120.2939 1329.5001,-130.2939 1336.5001,-130.2938"/>
</g>
<!-- Numeral_Dec -->
<g id="node8" class="node">
<title>Numeral_Dec</title>
<g id="a_node8"><a xlink:href="Numeral.html#Dec" xlink:title="Dec">
<ellipse fill="#7faaff" stroke="#000000" cx="1409" cy="-102" rx="28.6953" ry="18"/>
<text text-anchor="middle" x="1409" y="-98.3" font-family="Times,serif" font-size="14.00" fill="#000000">Dec</text>
</a>
</g>
</g>
<!-- Numeral_numeral_sind&#45;&gt;Numeral_Dec -->
<g id="edge4" class="edge">
<title>Numeral_numeral_sind&#45;&gt;Numeral_Dec</title>
<path fill="none" stroke="#000000" d="M1341.278,-315.8589C1355.7635,-270.1152 1385.5685,-175.9942 1400.3273,-129.3876"/>
<polygon fill="#000000" stroke="#000000" points="1403.7223,-130.2599 1403.4046,-119.6698 1397.0489,-128.1466 1403.7223,-130.2599"/>
</g>
<!-- Numeral_numeral -->
<g id="node9" class="node">
<title>Numeral_numeral</title>
<g id="a_node9"><a xlink:href="Numeral.html#numeral" xlink:title="numeral">
<ellipse fill="#e2cdfa" stroke="#000000" cx="1236" cy="-102" rx="49.2915" ry="18"/>
<text text-anchor="middle" x="1236" y="-98.3" font-family="Times,serif" font-size="14.00" fill="#000000">numeral</text>
</a>
</g>
</g>
<!-- Numeral_numeral_sind&#45;&gt;Numeral_numeral -->
<g id="edge5" class="edge">
<title>Numeral_numeral_sind&#45;&gt;Numeral_numeral</title>
<path fill="none" stroke="#000000" d="M1322.4346,-315.8589C1303.9535,-270.1323 1265.9344,-176.0645 1247.0903,-129.4399"/>
<polygon fill="#000000" stroke="#000000" points="1250.2594,-127.9406 1243.2672,-119.9807 1243.7695,-130.5636 1250.2594,-127.9406"/>
</g>
<!-- Numeral_numeral_rec -->
<g id="node4" class="node">
<title>Numeral_numeral_rec</title>
<g id="a_node4"><a xlink:href="Numeral.html#numeral_rec" xlink:title="numeral_rec">
<ellipse fill="#f070d1" stroke="#000000" cx="1160" cy="-606" rx="69.5832" ry="18"/>
<ellipse fill="none" stroke="#000000" cx="1160" cy="-606" rx="73.5854" ry="22"/>
<ellipse fill="none" stroke="#000000" cx="1160" cy="-606" rx="77.5877" ry="26"/>
<text text-anchor="middle" x="1160" y="-602.3" font-family="Times,serif" font-size="14.00" fill="#000000">numeral_rec</text>
</a>
</g>
</g>
<!-- Numeral_numeral_rect -->
<g id="node6" class="node">
<title>Numeral_numeral_rect</title>
<g id="a_node6"><a xlink:href="Numeral.html#numeral_rect" xlink:title="numeral_rect">
<ellipse fill="#f070d1" stroke="#000000" cx="1160" cy="-342" rx="73.387" ry="18"/>
<text text-anchor="middle" x="1160" y="-338.3" font-family="Times,serif" font-size="14.00" fill="#000000">numeral_rect</text>
</a>
</g>
</g>
<!-- Numeral_numeral_rec&#45;&gt;Numeral_numeral_rect -->
<g id="edge6" class="edge">
<title>Numeral_numeral_rec&#45;&gt;Numeral_numeral_rect</title>
<path fill="none" stroke="#000000" d="M1160,-579.7215C1160,-529.7997 1160,-421.6559 1160,-370.2461"/>
<polygon fill="#000000" stroke="#000000" points="1163.5001,-370.1783 1160,-360.1783 1156.5001,-370.1783 1163.5001,-370.1783"/>
</g>
<!-- Numeral_numeral_ind -->
<g id="node5" class="node">
<title>Numeral_numeral_ind</title>
<g id="a_node5"><a xlink:href="Numeral.html#numeral_ind" xlink:title="numeral_ind">
<ellipse fill="#7fffd4" stroke="#000000" cx="1509" cy="-342" rx="68.7989" ry="18"/>
<ellipse fill="none" stroke="#000000" cx="1509" cy="-342" rx="72.7934" ry="22"/>
<ellipse fill="none" stroke="#000000" cx="1509" cy="-342" rx="76.7879" ry="26"/>
<text text-anchor="middle" x="1509" y="-338.3" font-family="Times,serif" font-size="14.00" fill="#000000">numeral_ind</text>
</a>
</g>
</g>
<!-- Numeral_numeral_ind&#45;&gt;Numeral_Hex -->
<g id="edge7" class="edge">
<title>Numeral_numeral_ind&#45;&gt;Numeral_Hex</title>
<path fill="none" stroke="#000000" d="M1490.1649,-316.3158C1456.0916,-269.8521 1384.6456,-172.4258 1351.1103,-126.6958"/>
<polygon fill="#000000" stroke="#000000" points="1353.855,-124.52 1345.1189,-118.5257 1348.2101,-128.6596 1353.855,-124.52"/>
</g>
<!-- Numeral_numeral_ind&#45;&gt;Numeral_Dec -->
<g id="edge8" class="edge">
<title>Numeral_numeral_ind&#45;&gt;Numeral_Dec</title>
<path fill="none" stroke="#000000" d="M1498.1079,-315.8589C1479.008,-270.0191 1439.6661,-175.5985 1420.2894,-129.0945"/>
<polygon fill="#000000" stroke="#000000" points="1423.4394,-127.5544 1416.3624,-119.6698 1416.9779,-130.2468 1423.4394,-127.5544"/>
</g>
<!-- Numeral_numeral_ind&#45;&gt;Numeral_numeral -->
<g id="edge9" class="edge">
<title>Numeral_numeral_ind&#45;&gt;Numeral_numeral</title>
<path fill="none" stroke="#000000" d="M1481.3209,-317.6668C1428.6941,-271.4014 1314.8269,-171.2984 1262.8504,-125.6047"/>
<polygon fill="#000000" stroke="#000000" points="1264.88,-122.7288 1255.0587,-118.7549 1260.2582,-127.9861 1264.88,-122.7288"/>
</g>
<!-- Numeral_numeral_rect&#45;&gt;Numeral_Hex -->
<g id="edge10" class="edge">
<title>Numeral_numeral_rect&#45;&gt;Numeral_Hex</title>
<path fill="none" stroke="#000000" d="M1173.0031,-323.961C1203.5552,-281.5766 1279.9689,-175.5692 1314.9737,-127.0075"/>
<polygon fill="#000000" stroke="#000000" points="1317.9993,-128.7956 1321.0076,-118.6368 1312.3208,-124.7023 1317.9993,-128.7956"/>
</g>
<!-- Numeral_numeral_rect&#45;&gt;Numeral_Dec -->
<g id="edge11" class="edge">
<title>Numeral_numeral_rect&#45;&gt;Numeral_Dec</title>
<path fill="none" stroke="#000000" d="M1178.3096,-324.3522C1222.8718,-281.4007 1336.9071,-171.4872 1385.9778,-124.1901"/>
<polygon fill="#000000" stroke="#000000" points="1388.5039,-126.6164 1393.275,-117.1567 1383.646,-121.5764 1388.5039,-126.6164"/>
</g>
<!-- Numeral_numeral_rect&#45;&gt;Numeral_numeral -->
<g id="edge12" class="edge">
<title>Numeral_numeral_rect&#45;&gt;Numeral_numeral</title>
<path fill="none" stroke="#000000" d="M1165.7124,-323.961C1178.8938,-282.3354 1211.5075,-179.3447 1227.2377,-129.6704"/>
<polygon fill="#000000" stroke="#000000" points="1230.6427,-130.511 1230.325,-119.9209 1223.9693,-128.3977 1230.6427,-130.511"/>
</g>
<!-- Numeral_int_sind -->
<g id="node10" class="node">
<title>Numeral_int_sind</title>
<g id="a_node10"><a xlink:href="Numeral.html#int_sind" xlink:title="int_sind">
<ellipse fill="#f070d1" stroke="#000000" cx="750" cy="-342" rx="48.178" ry="18"/>
<ellipse fill="none" stroke="#000000" cx="750" cy="-342" rx="52.1848" ry="22"/>
<ellipse fill="none" stroke="#000000" cx="750" cy="-342" rx="56.1916" ry="26"/>
<text text-anchor="middle" x="750" y="-338.3" font-family="Times,serif" font-size="14.00" fill="#000000">int_sind</text>
</a>
</g>
</g>
<!-- Numeral_IntHex -->
<g id="node14" class="node">
<title>Numeral_IntHex</title>
<g id="a_node14"><a xlink:href="Numeral.html#IntHex" xlink:title="IntHex">
<ellipse fill="#7faaff" stroke="#000000" cx="759" cy="-102" rx="43.5923" ry="18"/>
<text text-anchor="middle" x="759" y="-98.3" font-family="Times,serif" font-size="14.00" fill="#000000">IntHex</text>
</a>
</g>
</g>
<!-- Numeral_int_sind&#45;&gt;Numeral_IntHex -->
<g id="edge13" class="edge">
<title>Numeral_int_sind&#45;&gt;Numeral_IntHex</title>
<path fill="none" stroke="#000000" d="M750.9803,-315.8589C752.6836,-270.4367 756.1757,-177.3149 757.9358,-130.3774"/>
<polygon fill="#000000" stroke="#000000" points="761.4367,-130.418 758.314,-120.2939 754.4416,-130.1557 761.4367,-130.418"/>
</g>
<!-- Numeral_IntDec -->
<g id="node15" class="node">
<title>Numeral_IntDec</title>
<g id="a_node15"><a xlink:href="Numeral.html#IntDec" xlink:title="IntDec">
<ellipse fill="#7faaff" stroke="#000000" cx="655" cy="-102" rx="42.4939" ry="18"/>
<text text-anchor="middle" x="655" y="-98.3" font-family="Times,serif" font-size="14.00" fill="#000000">IntDec</text>
</a>
</g>
</g>
<!-- Numeral_int_sind&#45;&gt;Numeral_IntDec -->
<g id="edge14" class="edge">
<title>Numeral_int_sind&#45;&gt;Numeral_IntDec</title>
<path fill="none" stroke="#000000" d="M739.8333,-316.3158C721.7728,-270.6892 684.2598,-175.9194 665.7734,-129.217"/>
<polygon fill="#000000" stroke="#000000" points="668.9614,-127.7612 662.0266,-119.7513 662.4528,-130.3376 668.9614,-127.7612"/>
</g>
<!-- Numeral_int_sind&#45;&gt;Numeral_int -->
<g id="edge15" class="edge">
<title>Numeral_int_sind&#45;&gt;Numeral_int</title>
<path fill="none" stroke="#000000" d="M761.4509,-316.3158C781.8857,-270.4806 824.4309,-175.0521 845.1499,-128.5796"/>
<polygon fill="#000000" stroke="#000000" points="848.3487,-130 849.224,-119.4414 841.9553,-127.1496 848.3487,-130"/>
</g>
<!-- Numeral_int_rec -->
<g id="node11" class="node">
<title>Numeral_int_rec</title>
<g id="a_node11"><a xlink:href="Numeral.html#int_rec" xlink:title="int_rec">
<ellipse fill="#f070d1" stroke="#000000" cx="628" cy="-606" rx="43.5851" ry="18"/>
<ellipse fill="none" stroke="#000000" cx="628" cy="-606" rx="47.5887" ry="22"/>
<ellipse fill="none" stroke="#000000" cx="628" cy="-606" rx="51.5923" ry="26"/>
<text text-anchor="middle" x="628" y="-602.3" font-family="Times,serif" font-size="14.00" fill="#000000">int_rec</text>
</a>
</g>
</g>
<!-- Numeral_int_rect -->
<g id="node13" class="node">
<title>Numeral_int_rect</title>
<g id="a_node13"><a xlink:href="Numeral.html#int_rect" xlink:title="int_rect">
<ellipse fill="#f070d1" stroke="#000000" cx="628" cy="-342" rx="47.3916" ry="18"/>
<text text-anchor="middle" x="628" y="-338.3" font-family="Times,serif" font-size="14.00" fill="#000000">int_rect</text>
</a>
</g>
</g>
<!-- Numeral_int_rec&#45;&gt;Numeral_int_rect -->
<g id="edge16" class="edge">
<title>Numeral_int_rec&#45;&gt;Numeral_int_rect</title>
<path fill="none" stroke="#000000" d="M628,-579.7215C628,-529.7997 628,-421.6559 628,-370.2461"/>
<polygon fill="#000000" stroke="#000000" points="631.5001,-370.1783 628,-360.1783 624.5001,-370.1783 631.5001,-370.1783"/>
</g>
<!-- Numeral_int_ind -->
<g id="node12" class="node">
<title>Numeral_int_ind</title>
<g id="a_node12"><a xlink:href="Numeral.html#int_ind" xlink:title="int_ind">
<ellipse fill="#7fffd4" stroke="#000000" cx="875" cy="-342" rx="42.8089" ry="18"/>
<ellipse fill="none" stroke="#000000" cx="875" cy="-342" rx="46.8007" ry="22"/>
<ellipse fill="none" stroke="#000000" cx="875" cy="-342" rx="50.7926" ry="26"/>
<text text-anchor="middle" x="875" y="-338.3" font-family="Times,serif" font-size="14.00" fill="#000000">int_ind</text>
</a>
</g>
</g>
<!-- Numeral_int_ind&#45;&gt;Numeral_IntHex -->
<g id="edge17" class="edge">
<title>Numeral_int_ind&#45;&gt;Numeral_IntHex</title>
<path fill="none" stroke="#000000" d="M862.586,-316.3158C840.4869,-270.5935 794.5356,-175.5219 772.0132,-128.9239"/>
<polygon fill="#000000" stroke="#000000" points="775.0828,-127.2317 767.5798,-119.7513 768.7803,-130.2779 775.0828,-127.2317"/>
</g>
<!-- Numeral_int_ind&#45;&gt;Numeral_IntDec -->
<g id="edge18" class="edge">
<title>Numeral_int_ind&#45;&gt;Numeral_IntDec</title>
<path fill="none" stroke="#000000" d="M853.1013,-318.1105C811.0803,-272.2694 719.5577,-172.4266 677.2571,-126.2804"/>
<polygon fill="#000000" stroke="#000000" points="679.7663,-123.8381 670.429,-118.8316 674.6062,-128.5682 679.7663,-123.8381"/>
</g>
<!-- Numeral_int_ind&#45;&gt;Numeral_int -->
<g id="edge19" class="edge">
<title>Numeral_int_ind&#45;&gt;Numeral_int</title>
<path fill="none" stroke="#000000" d="M873.0394,-315.8589C869.6243,-270.324 862.6139,-176.8525 859.1022,-130.0288"/>
<polygon fill="#000000" stroke="#000000" points="862.5867,-129.6909 858.3486,-119.9807 855.6063,-130.2145 862.5867,-129.6909"/>
</g>
<!-- Numeral_int_rect&#45;&gt;Numeral_IntHex -->
<g id="edge20" class="edge">
<title>Numeral_int_rect&#45;&gt;Numeral_IntHex</title>
<path fill="none" stroke="#000000" d="M637.6327,-324.3522C660.3918,-282.6562 717.5956,-177.8555 744.5382,-128.4948"/>
<polygon fill="#000000" stroke="#000000" points="747.6342,-130.1281 749.3531,-119.6736 741.4899,-126.7743 747.6342,-130.1281"/>
</g>
<!-- Numeral_int_rect&#45;&gt;Numeral_IntDec -->
<g id="edge21" class="edge">
<title>Numeral_int_rect&#45;&gt;Numeral_IntDec</title>
<path fill="none" stroke="#000000" d="M630.0294,-323.961C634.691,-282.5241 646.1939,-180.2769 651.8107,-130.349"/>
<polygon fill="#000000" stroke="#000000" points="655.3071,-130.577 652.9471,-120.2483 648.351,-129.7943 655.3071,-130.577"/>
</g>
<!-- Numeral_int_rect&#45;&gt;Numeral_int -->
<g id="edge22" class="edge">
<title>Numeral_int_rect&#45;&gt;Numeral_int</title>
<path fill="none" stroke="#000000" d="M644.4691,-324.7398C685.0761,-282.1823 789.9855,-172.2335 835.4543,-124.5806"/>
<polygon fill="#000000" stroke="#000000" points="838.1029,-126.8748 842.4741,-117.2237 833.0385,-122.0425 838.1029,-126.8748"/>
</g>
<!-- Numeral_uint_sind -->
<g id="node17" class="node">
<title>Numeral_uint_sind</title>
<g id="a_node17"><a xlink:href="Numeral.html#uint_sind" xlink:title="uint_sind">
<ellipse fill="#f070d1" stroke="#000000" cx="202" cy="-342" rx="53.8975" ry="18"/>
<ellipse fill="none" stroke="#000000" cx="202" cy="-342" rx="57.894" ry="22"/>
<ellipse fill="none" stroke="#000000" cx="202" cy="-342" rx="61.8905" ry="26"/>
<text text-anchor="middle" x="202" y="-338.3" font-family="Times,serif" font-size="14.00" fill="#000000">uint_sind</text>
</a>
</g>
</g>
<!-- Numeral_UIntHex -->
<g id="node21" class="node">
<title>Numeral_UIntHex</title>
<g id="a_node21"><a xlink:href="Numeral.html#UIntHex" xlink:title="UIntHex">
<ellipse fill="#7faaff" stroke="#000000" cx="211" cy="-102" rx="51.1914" ry="18"/>
<text text-anchor="middle" x="211" y="-98.3" font-family="Times,serif" font-size="14.00" fill="#000000">UIntHex</text>
</a>
</g>
</g>
<!-- Numeral_uint_sind&#45;&gt;Numeral_UIntHex -->
<g id="edge23" class="edge">
<title>Numeral_uint_sind&#45;&gt;Numeral_UIntHex</title>
<path fill="none" stroke="#000000" d="M202.9803,-315.8589C204.6836,-270.4367 208.1757,-177.3149 209.9358,-130.3774"/>
<polygon fill="#000000" stroke="#000000" points="213.4367,-130.418 210.314,-120.2939 206.4416,-130.1557 213.4367,-130.418"/>
</g>
<!-- Numeral_UIntDec -->
<g id="node22" class="node">
<title>Numeral_UIntDec</title>
<g id="a_node22"><a xlink:href="Numeral.html#UIntDec" xlink:title="UIntDec">
<ellipse fill="#7faaff" stroke="#000000" cx="92" cy="-102" rx="50.0912" ry="18"/>
<text text-anchor="middle" x="92" y="-98.3" font-family="Times,serif" font-size="14.00" fill="#000000">UIntDec</text>
</a>
</g>
</g>
<!-- Numeral_uint_sind&#45;&gt;Numeral_UIntDec -->
<g id="edge24" class="edge">
<title>Numeral_uint_sind&#45;&gt;Numeral_UIntDec</title>
<path fill="none" stroke="#000000" d="M190.2281,-316.3158C169.3238,-270.7064 125.9126,-175.9911 104.4987,-129.2699"/>
<polygon fill="#000000" stroke="#000000" points="107.6275,-127.6959 100.2791,-120.0636 101.264,-130.6125 107.6275,-127.6959"/>
</g>
<!-- Numeral_uint_sind&#45;&gt;Numeral_uint -->
<g id="edge25" class="edge">
<title>Numeral_uint_sind&#45;&gt;Numeral_uint</title>
<path fill="none" stroke="#000000" d="M214.6281,-316.3158C237.1637,-270.4806 284.0827,-175.0521 306.9317,-128.5796"/>
<polygon fill="#000000" stroke="#000000" points="310.1533,-129.9597 311.4246,-119.4414 303.8715,-126.8711 310.1533,-129.9597"/>
</g>
<!-- Numeral_uint_rec -->
<g id="node18" class="node">
<title>Numeral_uint_rec</title>
<g id="a_node18"><a xlink:href="Numeral.html#uint_rec" xlink:title="uint_rec">
<ellipse fill="#f070d1" stroke="#000000" cx="73" cy="-606" rx="49.3059" ry="18"/>
<ellipse fill="none" stroke="#000000" cx="73" cy="-606" rx="53.2987" ry="22"/>
<ellipse fill="none" stroke="#000000" cx="73" cy="-606" rx="57.2914" ry="26"/>
<text text-anchor="middle" x="73" y="-602.3" font-family="Times,serif" font-size="14.00" fill="#000000">uint_rec</text>
</a>
</g>
</g>
<!-- Numeral_uint_rect -->
<g id="node20" class="node">
<title>Numeral_uint_rect</title>
<g id="a_node20"><a xlink:href="Numeral.html#uint_rect" xlink:title="uint_rect">
<ellipse fill="#f070d1" stroke="#000000" cx="69" cy="-342" rx="53.0913" ry="18"/>
<text text-anchor="middle" x="69" y="-338.3" font-family="Times,serif" font-size="14.00" fill="#000000">uint_rect</text>
</a>
</g>
</g>
<!-- Numeral_uint_rec&#45;&gt;Numeral_uint_rect -->
<g id="edge26" class="edge">
<title>Numeral_uint_rec&#45;&gt;Numeral_uint_rect</title>
<path fill="none" stroke="#000000" d="M72.6018,-579.7215C71.8454,-529.7997 70.2069,-421.6559 69.428,-370.2461"/>
<polygon fill="#000000" stroke="#000000" points="72.9266,-370.1241 69.2754,-360.1783 65.9274,-370.2302 72.9266,-370.1241"/>
</g>
<!-- Numeral_uint_ind -->
<g id="node19" class="node">
<title>Numeral_uint_ind</title>
<g id="a_node19"><a xlink:href="Numeral.html#uint_ind" xlink:title="uint_ind">
<ellipse fill="#7fffd4" stroke="#000000" cx="339" cy="-342" rx="48.9576" ry="18"/>
<ellipse fill="none" stroke="#000000" cx="339" cy="-342" rx="52.975" ry="22"/>
<ellipse fill="none" stroke="#000000" cx="339" cy="-342" rx="56.9924" ry="26"/>
<text text-anchor="middle" x="339" y="-338.3" font-family="Times,serif" font-size="14.00" fill="#000000">uint_ind</text>
</a>
</g>
</g>
<!-- Numeral_uint_ind&#45;&gt;Numeral_UIntHex -->
<g id="edge27" class="edge">
<title>Numeral_uint_ind&#45;&gt;Numeral_UIntHex</title>
<path fill="none" stroke="#000000" d="M325.3018,-316.3158C300.8655,-270.4978 249.9994,-175.1239 225.2038,-128.6321"/>
<polygon fill="#000000" stroke="#000000" points="228.2616,-126.9278 220.4674,-119.7513 222.0851,-130.222 228.2616,-126.9278"/>
</g>
<!-- Numeral_uint_ind&#45;&gt;Numeral_UIntDec -->
<g id="edge28" class="edge">
<title>Numeral_uint_ind&#45;&gt;Numeral_UIntDec</title>
<path fill="none" stroke="#000000" d="M314.4137,-318.1105C267.2537,-272.287 164.5596,-172.5033 117.0434,-126.3336"/>
<polygon fill="#000000" stroke="#000000" points="119.2508,-123.5984 109.6398,-119.1398 114.3727,-128.6188 119.2508,-123.5984"/>
</g>
<!-- Numeral_uint_ind&#45;&gt;Numeral_uint -->
<g id="edge29" class="edge">
<title>Numeral_uint_ind&#45;&gt;Numeral_uint</title>
<path fill="none" stroke="#000000" d="M336.9305,-315.8589C333.3257,-270.324 325.9258,-176.8525 322.2189,-130.0288"/>
<polygon fill="#000000" stroke="#000000" points="325.7018,-129.6733 321.4235,-119.9807 318.7237,-130.2258 325.7018,-129.6733"/>
</g>
<!-- Numeral_uint_rect&#45;&gt;Numeral_UIntHex -->
<g id="edge30" class="edge">
<title>Numeral_uint_rect&#45;&gt;Numeral_UIntHex</title>
<path fill="none" stroke="#000000" d="M79.6731,-323.961C104.4561,-282.0742 166.0041,-178.0495 195.178,-128.7414"/>
<polygon fill="#000000" stroke="#000000" points="198.3168,-130.3096 200.3968,-119.9209 192.2924,-126.7451 198.3168,-130.3096"/>
</g>
<!-- Numeral_uint_rect&#45;&gt;Numeral_UIntDec -->
<g id="edge31" class="edge">
<title>Numeral_uint_rect&#45;&gt;Numeral_UIntDec</title>
<path fill="none" stroke="#000000" d="M70.7287,-323.961C74.6998,-282.5241 84.4985,-180.2769 89.2832,-130.349"/>
<polygon fill="#000000" stroke="#000000" points="92.7812,-130.5366 90.2512,-120.2483 85.8131,-129.8688 92.7812,-130.5366"/>
</g>
<!-- Numeral_uint_rect&#45;&gt;Numeral_uint -->
<g id="edge32" class="edge">
<title>Numeral_uint_rect&#45;&gt;Numeral_uint</title>
<path fill="none" stroke="#000000" d="M87.0513,-324.7398C131.6511,-282.0945 247.0219,-171.7798 296.6919,-124.2867"/>
<polygon fill="#000000" stroke="#000000" points="299.2697,-126.6643 304.0786,-117.2237 294.432,-121.6049 299.2697,-126.6643"/>
</g>
</g>
</svg>
