<?xml version="1.0" encoding="UTF-8" standalone="no"?>
<!DOCTYPE svg PUBLIC "-//W3C//DTD SVG 1.1//EN"
 "http://www.w3.org/Graphics/SVG/1.1/DTD/svg11.dtd">
<!-- Generated by graphviz version 2.40.1 (20161225.0304)
 -->
<!-- Title: HoTT_WildCat_EquivGpd Pages: 1 -->
<svg width="2938pt" height="1473pt"
 viewBox="0.00 0.00 2938.00 1473.00" xmlns="http://www.w3.org/2000/svg" xmlns:xlink="http://www.w3.org/1999/xlink">
<g id="graph0" class="graph" transform="scale(1 1) rotate(0) translate(4 1469)">
<title>HoTT_WildCat_EquivGpd</title>
<polygon fill="#ffffff" stroke="transparent" points="-4,4 -4,-1469 2934,-1469 2934,4 -4,4"/>
<g id="clust1" class="cluster">
<title>cluster_EquivGpd</title>
<polygon fill="#ffffc3" stroke="#000000" points="8,-27.4473 8,-1437.5527 2922,-1437.5527 2922,-27.4473 8,-27.4473"/>
<text text-anchor="middle" x="51.5" y="-1422.3527" font-family="Times,serif" font-size="14.00" fill="#000000">EquivGpd</text>
</g>
<!-- EquivGpd_isequiv0gpd_sigma -->
<g id="node1" class="node">
<title>EquivGpd_isequiv0gpd_sigma</title>
<g id="a_node1"><a xlink:href="EquivGpd.html#isequiv0gpd_sigma" xlink:title="isequiv0gpd_sigma">
<ellipse fill="#f070d1" stroke="#000000" cx="773" cy="-940.4473" rx="100.1756" ry="18"/>
<ellipse fill="none" stroke="#000000" cx="773" cy="-940.4473" rx="104.1789" ry="22"/>
<ellipse fill="none" stroke="#000000" cx="773" cy="-940.4473" rx="108.1823" ry="26"/>
<text text-anchor="middle" x="773" y="-936.7473" font-family="Times,serif" font-size="14.00" fill="#000000">isequiv0gpd_sigma</text>
</a>
</g>
</g>
<!-- EquivGpd_isesssurj_iff_sigma -->
<g id="node2" class="node">
<title>EquivGpd_isesssurj_iff_sigma</title>
<g id="a_node2"><a xlink:href="EquivGpd.html#isesssurj_iff_sigma" xlink:title="isesssurj_iff_sigma">
<ellipse fill="#f070d1" stroke="#000000" cx="950" cy="-638.4473" rx="98.5829" ry="18"/>
<text text-anchor="middle" x="950" y="-634.7473" font-family="Times,serif" font-size="14.00" fill="#000000">isesssurj_iff_sigma</text>
</a>
</g>
</g>
<!-- EquivGpd_isequiv0gpd_sigma&#45;&gt;EquivGpd_isesssurj_iff_sigma -->
<g id="edge1" class="edge">
<title>EquivGpd_isequiv0gpd_sigma&#45;&gt;EquivGpd_isesssurj_iff_sigma</title>
<path fill="none" stroke="#000000" d="M788.0909,-914.699C821.2724,-858.0842 900.3068,-723.2345 934.1634,-665.468"/>
<polygon fill="#000000" stroke="#000000" points="937.3451,-666.9611 939.382,-656.5639 931.3059,-663.4215 937.3451,-666.9611"/>
</g>
<!-- EquivGpd_Build_IsEquiv0Gpd -->
<g id="node27" class="node">
<title>EquivGpd_Build_IsEquiv0Gpd</title>
<g id="a_node27"><a xlink:href="EquivGpd.html#Build_IsEquiv0Gpd" xlink:title="Build_IsEquiv0Gpd">
<ellipse fill="#7faaff" stroke="#000000" cx="1168" cy="-638.4473" rx="100.9827" ry="18"/>
<text text-anchor="middle" x="1168" y="-634.7473" font-family="Times,serif" font-size="14.00" fill="#000000">Build_IsEquiv0Gpd</text>
</a>
</g>
</g>
<!-- EquivGpd_isequiv0gpd_sigma&#45;&gt;EquivGpd_Build_IsEquiv0Gpd -->
<g id="edge2" class="edge">
<title>EquivGpd_isequiv0gpd_sigma&#45;&gt;EquivGpd_Build_IsEquiv0Gpd</title>
<path fill="none" stroke="#000000" d="M805.6606,-915.4764C880.4116,-858.325 1063.1376,-718.6206 1136.629,-662.4322"/>
<polygon fill="#000000" stroke="#000000" points="1138.8084,-665.1717 1144.6268,-656.3175 1134.5568,-659.6108 1138.8084,-665.1717"/>
</g>
<!-- EquivGpd_IsEquiv0Gpd -->
<g id="node28" class="node">
<title>EquivGpd_IsEquiv0Gpd</title>
<g id="a_node28"><a xlink:href="EquivGpd.html#IsEquiv0Gpd" xlink:title="IsEquiv0Gpd">
<ellipse fill="#e2cdfa" stroke="#000000" cx="955" cy="-363.4473" rx="71.4873" ry="18"/>
<text text-anchor="middle" x="955" y="-359.7473" font-family="Times,serif" font-size="14.00" fill="#000000">IsEquiv0Gpd</text>
</a>
</g>
</g>
<!-- EquivGpd_isequiv0gpd_sigma&#45;&gt;EquivGpd_IsEquiv0Gpd -->
<g id="edge3" class="edge">
<title>EquivGpd_isequiv0gpd_sigma&#45;&gt;EquivGpd_IsEquiv0Gpd</title>
<path fill="none" stroke="#000000" d="M776.4952,-914.4273C784.4654,-858.2707 806.1194,-721.9358 842,-612.4473 869.4772,-528.6015 916.6198,-435.2531 940.3891,-390.3965"/>
<polygon fill="#000000" stroke="#000000" points="943.6078,-391.7989 945.2268,-381.3285 937.4317,-388.504 943.6078,-391.7989"/>
</g>
<!-- EquivGpd_esssurj -->
<g id="node29" class="node">
<title>EquivGpd_esssurj</title>
<g id="a_node29"><a xlink:href="EquivGpd.html#esssurj" xlink:title="esssurj">
<ellipse fill="#f070d1" stroke="#000000" cx="2005" cy="-363.4473" rx="44.393" ry="18"/>
<text text-anchor="middle" x="2005" y="-359.7473" font-family="Times,serif" font-size="14.00" fill="#000000">esssurj</text>
</a>
</g>
</g>
<!-- EquivGpd_isesssurj_iff_sigma&#45;&gt;EquivGpd_esssurj -->
<g id="edge4" class="edge">
<title>EquivGpd_isesssurj_iff_sigma&#45;&gt;EquivGpd_esssurj</title>
<path fill="none" stroke="#000000" d="M1006.7214,-623.6621C1193.3551,-575.0135 1786.2032,-420.4796 1957.9526,-375.7108"/>
<polygon fill="#000000" stroke="#000000" points="1958.9149,-379.077 1967.7087,-373.1678 1957.1492,-372.3034 1958.9149,-379.077"/>
</g>
<!-- EquivGpd_isequiv0gpd_iff_commsq -->
<g id="node3" class="node">
<title>EquivGpd_isequiv0gpd_iff_commsq</title>
<g id="a_node3"><a xlink:href="EquivGpd.html#isequiv0gpd_iff_commsq" xlink:title="isequiv0gpd_iff_commsq">
<ellipse fill="#f070d1" stroke="#000000" cx="1307" cy="-1242.4473" rx="126.1724" ry="18"/>
<ellipse fill="none" stroke="#000000" cx="1307" cy="-1242.4473" rx="130.175" ry="22"/>
<ellipse fill="none" stroke="#000000" cx="1307" cy="-1242.4473" rx="134.1777" ry="26"/>
<text text-anchor="middle" x="1307" y="-1238.7473" font-family="Times,serif" font-size="14.00" fill="#000000">isequiv0gpd_iff_commsq</text>
</a>
</g>
</g>
<!-- EquivGpd_cancelR_isequiv0gpd -->
<g id="node6" class="node">
<title>EquivGpd_cancelR_isequiv0gpd</title>
<g id="a_node6"><a xlink:href="EquivGpd.html#cancelR_isequiv0gpd" xlink:title="cancelR_isequiv0gpd">
<ellipse fill="#f070d1" stroke="#000000" cx="1706" cy="-940.4473" rx="109.381" ry="18"/>
<text text-anchor="middle" x="1706" y="-936.7473" font-family="Times,serif" font-size="14.00" fill="#000000">cancelR_isequiv0gpd</text>
</a>
</g>
</g>
<!-- EquivGpd_isequiv0gpd_iff_commsq&#45;&gt;EquivGpd_cancelR_isequiv0gpd -->
<g id="edge5" class="edge">
<title>EquivGpd_isequiv0gpd_iff_commsq&#45;&gt;EquivGpd_cancelR_isequiv0gpd</title>
<path fill="none" stroke="#000000" d="M1340.3322,-1217.2184C1416.0774,-1159.8875 1600.3036,-1020.4481 1674.3815,-964.3791"/>
<polygon fill="#000000" stroke="#000000" points="1676.5818,-967.1033 1682.443,-958.2774 1672.3572,-961.5218 1676.5818,-967.1033"/>
</g>
<!-- EquivGpd_cancelL_isequiv0gpd -->
<g id="node10" class="node">
<title>EquivGpd_cancelL_isequiv0gpd</title>
<g id="a_node10"><a xlink:href="EquivGpd.html#cancelL_isequiv0gpd" xlink:title="cancelL_isequiv0gpd">
<ellipse fill="#f070d1" stroke="#000000" cx="1008" cy="-940.4473" rx="108.5808" ry="18"/>
<text text-anchor="middle" x="1008" y="-936.7473" font-family="Times,serif" font-size="14.00" fill="#000000">cancelL_isequiv0gpd</text>
</a>
</g>
</g>
<!-- EquivGpd_isequiv0gpd_iff_commsq&#45;&gt;EquivGpd_cancelL_isequiv0gpd -->
<g id="edge6" class="edge">
<title>EquivGpd_isequiv0gpd_iff_commsq&#45;&gt;EquivGpd_cancelL_isequiv0gpd</title>
<path fill="none" stroke="#000000" d="M1281.5074,-1216.699C1224.8773,-1159.5006 1089.1839,-1022.4458 1033.0079,-965.7062"/>
<polygon fill="#000000" stroke="#000000" points="1035.4595,-963.2077 1025.9366,-958.5639 1030.4851,-968.1327 1035.4595,-963.2077"/>
</g>
<!-- EquivGpd_isequiv0gpd_compose -->
<g id="node13" class="node">
<title>EquivGpd_isequiv0gpd_compose</title>
<g id="a_node13"><a xlink:href="EquivGpd.html#isequiv0gpd_compose" xlink:title="isequiv0gpd_compose">
<ellipse fill="#f070d1" stroke="#000000" cx="1466" cy="-940.4473" rx="113.18" ry="18"/>
<text text-anchor="middle" x="1466" y="-936.7473" font-family="Times,serif" font-size="14.00" fill="#000000">isequiv0gpd_compose</text>
</a>
</g>
</g>
<!-- EquivGpd_isequiv0gpd_iff_commsq&#45;&gt;EquivGpd_isequiv0gpd_compose -->
<g id="edge7" class="edge">
<title>EquivGpd_isequiv0gpd_iff_commsq&#45;&gt;EquivGpd_isequiv0gpd_compose</title>
<path fill="none" stroke="#000000" d="M1320.6939,-1216.4376C1350.5916,-1159.6506 1421.4561,-1025.0528 1451.8053,-967.4082"/>
<polygon fill="#000000" stroke="#000000" points="1454.9215,-969.0023 1456.4832,-958.5232 1448.7275,-965.7412 1454.9215,-969.0023"/>
</g>
<!-- EquivGpd_isequiv0gpd_transf -->
<g id="node15" class="node">
<title>EquivGpd_isequiv0gpd_transf</title>
<g id="a_node15"><a xlink:href="EquivGpd.html#isequiv0gpd_transf" xlink:title="isequiv0gpd_transf">
<ellipse fill="#f070d1" stroke="#000000" cx="1235" cy="-940.4473" rx="100.1823" ry="18"/>
<text text-anchor="middle" x="1235" y="-936.7473" font-family="Times,serif" font-size="14.00" fill="#000000">isequiv0gpd_transf</text>
</a>
</g>
</g>
<!-- EquivGpd_isequiv0gpd_iff_commsq&#45;&gt;EquivGpd_isequiv0gpd_transf -->
<g id="edge8" class="edge">
<title>EquivGpd_isequiv0gpd_iff_commsq&#45;&gt;EquivGpd_isequiv0gpd_transf</title>
<path fill="none" stroke="#000000" d="M1300.799,-1216.4376C1287.3441,-1160.0019 1255.5671,-1026.7149 1241.6849,-968.4867"/>
<polygon fill="#000000" stroke="#000000" points="1245.0332,-967.4388 1239.3095,-958.5232 1238.2241,-969.0622 1245.0332,-967.4388"/>
</g>
<!-- EquivGpd_isesssurj_iff_commsq -->
<g id="node4" class="node">
<title>EquivGpd_isesssurj_iff_commsq</title>
<g id="a_node4"><a xlink:href="EquivGpd.html#isesssurj_iff_commsq" xlink:title="isesssurj_iff_commsq">
<ellipse fill="#f070d1" stroke="#000000" cx="2615" cy="-940.4473" rx="110.4811" ry="18"/>
<ellipse fill="none" stroke="#000000" cx="2615" cy="-940.4473" rx="114.4807" ry="22"/>
<ellipse fill="none" stroke="#000000" cx="2615" cy="-940.4473" rx="118.4804" ry="26"/>
<text text-anchor="middle" x="2615" y="-936.7473" font-family="Times,serif" font-size="14.00" fill="#000000">isesssurj_iff_commsq</text>
</a>
</g>
</g>
<!-- EquivGpd_cancelR_isesssurj -->
<g id="node8" class="node">
<title>EquivGpd_cancelR_isesssurj</title>
<g id="a_node8"><a xlink:href="EquivGpd.html#cancelR_isesssurj" xlink:title="cancelR_isesssurj">
<ellipse fill="#f070d1" stroke="#000000" cx="2613" cy="-638.4473" rx="93.6835" ry="18"/>
<text text-anchor="middle" x="2613" y="-634.7473" font-family="Times,serif" font-size="14.00" fill="#000000">cancelR_isesssurj</text>
</a>
</g>
</g>
<!-- EquivGpd_isesssurj_iff_commsq&#45;&gt;EquivGpd_cancelR_isesssurj -->
<g id="edge9" class="edge">
<title>EquivGpd_isesssurj_iff_commsq&#45;&gt;EquivGpd_cancelR_isesssurj</title>
<path fill="none" stroke="#000000" d="M2614.8278,-914.4376C2614.4548,-858.119 2613.575,-725.2677 2613.1881,-666.8501"/>
<polygon fill="#000000" stroke="#000000" points="2616.686,-666.4997 2613.1197,-656.5232 2609.6861,-666.5461 2616.686,-666.4997"/>
</g>
<!-- EquivGpd_cancelL_isesssurj -->
<g id="node12" class="node">
<title>EquivGpd_cancelL_isesssurj</title>
<g id="a_node12"><a xlink:href="EquivGpd.html#cancelL_isesssurj" xlink:title="cancelL_isesssurj">
<ellipse fill="#f070d1" stroke="#000000" cx="2005" cy="-638.4473" rx="92.8835" ry="18"/>
<text text-anchor="middle" x="2005" y="-634.7473" font-family="Times,serif" font-size="14.00" fill="#000000">cancelL_isesssurj</text>
</a>
</g>
</g>
<!-- EquivGpd_isesssurj_iff_commsq&#45;&gt;EquivGpd_cancelL_isesssurj -->
<g id="edge10" class="edge">
<title>EquivGpd_isesssurj_iff_commsq&#45;&gt;EquivGpd_cancelL_isesssurj</title>
<path fill="none" stroke="#000000" d="M2566.8797,-916.6238C2451.1111,-859.3089 2158.4762,-714.4306 2048.0614,-659.7662"/>
<polygon fill="#000000" stroke="#000000" points="2049.395,-656.5211 2038.8803,-655.2208 2046.2892,-662.7944 2049.395,-656.5211"/>
</g>
<!-- EquivGpd_isesssurj_compose -->
<g id="node14" class="node">
<title>EquivGpd_isesssurj_compose</title>
<g id="a_node14"><a xlink:href="EquivGpd.html#isesssurj_compose" xlink:title="isesssurj_compose">
<ellipse fill="#f070d1" stroke="#000000" cx="2400" cy="-638.4473" rx="97.4827" ry="18"/>
<text text-anchor="middle" x="2400" y="-634.7473" font-family="Times,serif" font-size="14.00" fill="#000000">isesssurj_compose</text>
</a>
</g>
</g>
<!-- EquivGpd_isesssurj_iff_commsq&#45;&gt;EquivGpd_isesssurj_compose -->
<g id="edge11" class="edge">
<title>EquivGpd_isesssurj_iff_commsq&#45;&gt;EquivGpd_isesssurj_compose</title>
<path fill="none" stroke="#000000" d="M2596.6692,-914.699C2556.1978,-857.8508 2459.569,-722.121 2418.7306,-664.7573"/>
<polygon fill="#000000" stroke="#000000" points="2421.5485,-662.6805 2412.8976,-656.5639 2415.846,-666.7402 2421.5485,-662.6805"/>
</g>
<!-- EquivGpd_isesssurj_transf -->
<g id="node16" class="node">
<title>EquivGpd_isesssurj_transf</title>
<g id="a_node16"><a xlink:href="EquivGpd.html#isesssurj_transf" xlink:title="isesssurj_transf">
<ellipse fill="#f070d1" stroke="#000000" cx="2200" cy="-638.4473" rx="84.485" ry="18"/>
<text text-anchor="middle" x="2200" y="-634.7473" font-family="Times,serif" font-size="14.00" fill="#000000">isesssurj_transf</text>
</a>
</g>
</g>
<!-- EquivGpd_isesssurj_iff_commsq&#45;&gt;EquivGpd_isesssurj_transf -->
<g id="edge12" class="edge">
<title>EquivGpd_isesssurj_iff_commsq&#45;&gt;EquivGpd_isesssurj_transf</title>
<path fill="none" stroke="#000000" d="M2580.6857,-915.4764C2501.9628,-858.1889 2309.2571,-717.9549 2232.4099,-662.0323"/>
<polygon fill="#000000" stroke="#000000" points="2234.1994,-659.006 2224.0543,-655.9519 2230.0806,-664.6659 2234.1994,-659.006"/>
</g>
<!-- EquivGpd_iffR_isequiv0gpd -->
<g id="node5" class="node">
<title>EquivGpd_iffR_isequiv0gpd</title>
<g id="a_node5"><a xlink:href="EquivGpd.html#iffR_isequiv0gpd" xlink:title="iffR_isequiv0gpd">
<ellipse fill="#f070d1" stroke="#000000" cx="1606" cy="-1242.4473" rx="89.0807" ry="18"/>
<ellipse fill="none" stroke="#000000" cx="1606" cy="-1242.4473" rx="93.0825" ry="22"/>
<ellipse fill="none" stroke="#000000" cx="1606" cy="-1242.4473" rx="97.0842" ry="26"/>
<text text-anchor="middle" x="1606" y="-1238.7473" font-family="Times,serif" font-size="14.00" fill="#000000">iffR_isequiv0gpd</text>
</a>
</g>
</g>
<!-- EquivGpd_iffR_isequiv0gpd&#45;&gt;EquivGpd_cancelR_isequiv0gpd -->
<g id="edge13" class="edge">
<title>EquivGpd_iffR_isequiv0gpd&#45;&gt;EquivGpd_cancelR_isequiv0gpd</title>
<path fill="none" stroke="#000000" d="M1614.6125,-1216.4376C1633.3386,-1159.8848 1677.6178,-1026.1615 1696.8351,-968.1253"/>
<polygon fill="#000000" stroke="#000000" points="1700.1937,-969.1165 1700.0146,-958.5232 1693.5486,-966.916 1700.1937,-969.1165"/>
</g>
<!-- EquivGpd_iffR_isequiv0gpd&#45;&gt;EquivGpd_isequiv0gpd_compose -->
<g id="edge14" class="edge">
<title>EquivGpd_iffR_isequiv0gpd&#45;&gt;EquivGpd_isequiv0gpd_compose</title>
<path fill="none" stroke="#000000" d="M1593.9425,-1216.4376C1567.6717,-1159.7677 1505.4782,-1025.6075 1478.6642,-967.7658"/>
<polygon fill="#000000" stroke="#000000" points="1481.7608,-966.1237 1474.3795,-958.5232 1475.41,-969.0678 1481.7608,-966.1237"/>
</g>
<!-- EquivGpd_cancelR_isequiv0gpd&#45;&gt;EquivGpd_cancelR_isesssurj -->
<g id="edge15" class="edge">
<title>EquivGpd_cancelR_isequiv0gpd&#45;&gt;EquivGpd_cancelR_isesssurj</title>
<path fill="none" stroke="#000000" d="M1754.7643,-924.2105C1909.8949,-872.5573 2391.4743,-712.2078 2556.6931,-657.1956"/>
<polygon fill="#000000" stroke="#000000" points="2557.8029,-660.515 2566.1851,-654.0351 2555.5915,-653.8735 2557.8029,-660.515"/>
</g>
<!-- EquivGpd_cancelR_isequiv0gpd&#45;&gt;EquivGpd_Build_IsEquiv0Gpd -->
<g id="edge16" class="edge">
<title>EquivGpd_cancelR_isequiv0gpd&#45;&gt;EquivGpd_Build_IsEquiv0Gpd</title>
<path fill="none" stroke="#000000" d="M1675.1425,-923.1258C1583.0296,-871.4193 1310.097,-718.2118 1207.5432,-660.6444"/>
<polygon fill="#000000" stroke="#000000" points="1209.1662,-657.5418 1198.7329,-655.6988 1205.7397,-663.6458 1209.1662,-657.5418"/>
</g>
<!-- EquivGpd_cancelR_isequiv0gpd&#45;&gt;EquivGpd_IsEquiv0Gpd -->
<g id="edge17" class="edge">
<title>EquivGpd_cancelR_isequiv0gpd&#45;&gt;EquivGpd_IsEquiv0Gpd</title>
<path fill="none" stroke="#000000" d="M1686.1242,-922.7125C1629.4226,-872.3634 1461.4644,-724.918 1314,-612.4473 1198.5084,-524.3622 1054.9241,-428.732 989.8964,-386.131"/>
<polygon fill="#000000" stroke="#000000" points="991.538,-383.0226 981.2532,-380.4781 987.7065,-388.8809 991.538,-383.0226"/>
</g>
<!-- EquivGpd_iffR_isesssurj -->
<g id="node7" class="node">
<title>EquivGpd_iffR_isesssurj</title>
<g id="a_node7"><a xlink:href="EquivGpd.html#iffR_isesssurj" xlink:title="iffR_isesssurj">
<ellipse fill="#f070d1" stroke="#000000" cx="2833" cy="-940.4473" rx="73.3926" ry="18"/>
<ellipse fill="none" stroke="#000000" cx="2833" cy="-940.4473" rx="77.3898" ry="22"/>
<ellipse fill="none" stroke="#000000" cx="2833" cy="-940.4473" rx="81.387" ry="26"/>
<text text-anchor="middle" x="2833" y="-936.7473" font-family="Times,serif" font-size="14.00" fill="#000000">iffR_isesssurj</text>
</a>
</g>
</g>
<!-- EquivGpd_iffR_isesssurj&#45;&gt;EquivGpd_cancelR_isesssurj -->
<g id="edge18" class="edge">
<title>EquivGpd_iffR_isesssurj&#45;&gt;EquivGpd_cancelR_isesssurj</title>
<path fill="none" stroke="#000000" d="M2814.4325,-914.9592C2773.1469,-858.2853 2674.0853,-722.3008 2632.2087,-664.8157"/>
<polygon fill="#000000" stroke="#000000" points="2634.9443,-662.6266 2626.2272,-656.6047 2629.2864,-666.7483 2634.9443,-662.6266"/>
</g>
<!-- EquivGpd_iffR_isesssurj&#45;&gt;EquivGpd_isesssurj_compose -->
<g id="edge19" class="edge">
<title>EquivGpd_iffR_isesssurj&#45;&gt;EquivGpd_isesssurj_compose</title>
<path fill="none" stroke="#000000" d="M2799.0232,-916.7499C2717.9445,-860.2007 2513.9187,-717.901 2433.4131,-661.7516"/>
<polygon fill="#000000" stroke="#000000" points="2435.3212,-658.8152 2425.1168,-655.9653 2431.3167,-664.5567 2435.3212,-658.8152"/>
</g>
<!-- EquivGpd_cancelR_isesssurj&#45;&gt;EquivGpd_esssurj -->
<g id="edge20" class="edge">
<title>EquivGpd_cancelR_isesssurj&#45;&gt;EquivGpd_esssurj</title>
<path fill="none" stroke="#000000" d="M2576.3361,-621.8641C2468.6907,-573.1758 2154.2063,-430.9337 2043.834,-381.012"/>
<polygon fill="#000000" stroke="#000000" points="2045.2675,-377.8191 2034.7137,-376.8869 2042.3827,-384.197 2045.2675,-377.8191"/>
</g>
<!-- EquivGpd_iffL_isequiv0gpd -->
<g id="node9" class="node">
<title>EquivGpd_iffL_isequiv0gpd</title>
<g id="a_node9"><a xlink:href="EquivGpd.html#iffL_isequiv0gpd" xlink:title="iffL_isequiv0gpd">
<ellipse fill="#f070d1" stroke="#000000" cx="1033" cy="-1242.4473" rx="88.2934" ry="18"/>
<ellipse fill="none" stroke="#000000" cx="1033" cy="-1242.4473" rx="92.2889" ry="22"/>
<ellipse fill="none" stroke="#000000" cx="1033" cy="-1242.4473" rx="96.2844" ry="26"/>
<text text-anchor="middle" x="1033" y="-1238.7473" font-family="Times,serif" font-size="14.00" fill="#000000">iffL_isequiv0gpd</text>
</a>
</g>
</g>
<!-- EquivGpd_iffL_isequiv0gpd&#45;&gt;EquivGpd_cancelL_isequiv0gpd -->
<g id="edge21" class="edge">
<title>EquivGpd_iffL_isequiv0gpd&#45;&gt;EquivGpd_cancelL_isequiv0gpd</title>
<path fill="none" stroke="#000000" d="M1030.8469,-1216.4376C1026.1847,-1160.119 1015.1871,-1027.2677 1010.3512,-968.8501"/>
<polygon fill="#000000" stroke="#000000" points="1013.8095,-968.2003 1009.4963,-958.5232 1006.8334,-968.7778 1013.8095,-968.2003"/>
</g>
<!-- EquivGpd_iffL_isequiv0gpd&#45;&gt;EquivGpd_isequiv0gpd_compose -->
<g id="edge22" class="edge">
<title>EquivGpd_iffL_isequiv0gpd&#45;&gt;EquivGpd_isequiv0gpd_compose</title>
<path fill="none" stroke="#000000" d="M1068.0674,-1217.9892C1149.8487,-1160.9501 1352.3317,-1019.7263 1432.5227,-963.7964"/>
<polygon fill="#000000" stroke="#000000" points="1434.5897,-966.6219 1440.7896,-958.0305 1430.5853,-960.8805 1434.5897,-966.6219"/>
</g>
<!-- EquivGpd_cancelL_isequiv0gpd&#45;&gt;EquivGpd_cancelL_isesssurj -->
<g id="edge23" class="edge">
<title>EquivGpd_cancelL_isequiv0gpd&#45;&gt;EquivGpd_cancelL_isesssurj</title>
<path fill="none" stroke="#000000" d="M1060.1993,-924.6357C1229.8642,-873.2427 1765.1633,-711.0959 1945.2299,-656.5522"/>
<polygon fill="#000000" stroke="#000000" points="1946.2478,-659.901 1954.8037,-653.6522 1944.2185,-653.2016 1946.2478,-659.901"/>
</g>
<!-- EquivGpd_cancelL_isequiv0gpd&#45;&gt;EquivGpd_Build_IsEquiv0Gpd -->
<g id="edge24" class="edge">
<title>EquivGpd_cancelL_isequiv0gpd&#45;&gt;EquivGpd_Build_IsEquiv0Gpd</title>
<path fill="none" stroke="#000000" d="M1017.5296,-922.4602C1044.4781,-871.5948 1121.3615,-726.4775 1153.5502,-665.7213"/>
<polygon fill="#000000" stroke="#000000" points="1156.7292,-667.197 1158.3181,-656.722 1150.5437,-663.9199 1156.7292,-667.197"/>
</g>
<!-- EquivGpd_iffL_isesssurj -->
<g id="node11" class="node">
<title>EquivGpd_iffL_isesssurj</title>
<g id="a_node11"><a xlink:href="EquivGpd.html#iffL_isesssurj" xlink:title="iffL_isesssurj">
<ellipse fill="#f070d1" stroke="#000000" cx="2398" cy="-940.4473" rx="72.608" ry="18"/>
<ellipse fill="none" stroke="#000000" cx="2398" cy="-940.4473" rx="76.5978" ry="22"/>
<ellipse fill="none" stroke="#000000" cx="2398" cy="-940.4473" rx="80.5876" ry="26"/>
<text text-anchor="middle" x="2398" y="-936.7473" font-family="Times,serif" font-size="14.00" fill="#000000">iffL_isesssurj</text>
</a>
</g>
</g>
<!-- EquivGpd_iffL_isesssurj&#45;&gt;EquivGpd_cancelL_isesssurj -->
<g id="edge25" class="edge">
<title>EquivGpd_iffL_isesssurj&#45;&gt;EquivGpd_cancelL_isesssurj</title>
<path fill="none" stroke="#000000" d="M2366.5035,-916.2439C2292.6668,-859.5042 2109.1347,-718.4694 2035.8964,-662.1896"/>
<polygon fill="#000000" stroke="#000000" points="2037.9946,-659.3879 2027.9327,-656.0699 2033.7293,-664.9384 2037.9946,-659.3879"/>
</g>
<!-- EquivGpd_iffL_isesssurj&#45;&gt;EquivGpd_isesssurj_compose -->
<g id="edge26" class="edge">
<title>EquivGpd_iffL_isesssurj&#45;&gt;EquivGpd_isesssurj_compose</title>
<path fill="none" stroke="#000000" d="M2398.1722,-914.4376C2398.5452,-858.119 2399.425,-725.2677 2399.8119,-666.8501"/>
<polygon fill="#000000" stroke="#000000" points="2403.3139,-666.5461 2399.8803,-656.5232 2396.314,-666.4997 2403.3139,-666.5461"/>
</g>
<!-- EquivGpd_cancelL_isesssurj&#45;&gt;EquivGpd_IsEquiv0Gpd -->
<g id="edge27" class="edge">
<title>EquivGpd_cancelL_isesssurj&#45;&gt;EquivGpd_IsEquiv0Gpd</title>
<path fill="none" stroke="#000000" d="M1949.6578,-623.9529C1769.5094,-576.7712 1200.7797,-427.8182 1014.6232,-379.0629"/>
<polygon fill="#000000" stroke="#000000" points="1015.3018,-375.6227 1004.7413,-376.4748 1013.5283,-382.3943 1015.3018,-375.6227"/>
</g>
<!-- EquivGpd_cancelL_isesssurj&#45;&gt;EquivGpd_esssurj -->
<g id="edge28" class="edge">
<title>EquivGpd_cancelL_isesssurj&#45;&gt;EquivGpd_esssurj</title>
<path fill="none" stroke="#000000" d="M2005,-620.4038C2005,-573.5924 2005,-447.983 2005,-391.5639"/>
<polygon fill="#000000" stroke="#000000" points="2008.5001,-391.5572 2005,-381.5573 2001.5001,-391.5573 2008.5001,-391.5572"/>
</g>
<!-- EquivGpd_isequiv0gpd_compose&#45;&gt;EquivGpd_isesssurj_compose -->
<g id="edge29" class="edge">
<title>EquivGpd_isequiv0gpd_compose&#45;&gt;EquivGpd_isesssurj_compose</title>
<path fill="none" stroke="#000000" d="M1516.2159,-924.2105C1675.9511,-872.5616 2171.7968,-712.2346 2341.9743,-657.2094"/>
<polygon fill="#000000" stroke="#000000" points="2343.0739,-660.5323 2351.512,-654.1254 2340.9202,-653.8718 2343.0739,-660.5323"/>
</g>
<!-- EquivGpd_isequiv0gpd_compose&#45;&gt;EquivGpd_Build_IsEquiv0Gpd -->
<g id="edge30" class="edge">
<title>EquivGpd_isequiv0gpd_compose&#45;&gt;EquivGpd_Build_IsEquiv0Gpd</title>
<path fill="none" stroke="#000000" d="M1448.2512,-922.4602C1397.5265,-871.0547 1251.8124,-723.3847 1193.0311,-663.8144"/>
<polygon fill="#000000" stroke="#000000" points="1195.1709,-660.9999 1185.6558,-656.3401 1190.1883,-665.9165 1195.1709,-660.9999"/>
</g>
<!-- EquivGpd_isequiv0gpd_compose&#45;&gt;EquivGpd_IsEquiv0Gpd -->
<g id="edge31" class="edge">
<title>EquivGpd_isequiv0gpd_compose&#45;&gt;EquivGpd_IsEquiv0Gpd</title>
<path fill="none" stroke="#000000" d="M1459.653,-922.425C1440.5683,-870.0519 1379.5108,-715.0958 1291,-612.4473 1201.7917,-508.9899 1062.2159,-423.1048 994.4966,-384.8467"/>
<polygon fill="#000000" stroke="#000000" points="995.8656,-381.6018 985.4307,-379.7675 992.4441,-387.7087 995.8656,-381.6018"/>
</g>
<!-- EquivGpd_isesssurj_compose&#45;&gt;EquivGpd_esssurj -->
<g id="edge32" class="edge">
<title>EquivGpd_isesssurj_compose&#45;&gt;EquivGpd_esssurj</title>
<path fill="none" stroke="#000000" d="M2374.9913,-621.0362C2305.7544,-572.8333 2111.6815,-437.7193 2035.8829,-384.9481"/>
<polygon fill="#000000" stroke="#000000" points="2037.8669,-382.0646 2027.6601,-379.2233 2033.8673,-387.8095 2037.8669,-382.0646"/>
</g>
<!-- EquivGpd_isequiv0gpd_transf&#45;&gt;EquivGpd_isesssurj_transf -->
<g id="edge33" class="edge">
<title>EquivGpd_isequiv0gpd_transf&#45;&gt;EquivGpd_isesssurj_transf</title>
<path fill="none" stroke="#000000" d="M1285.1867,-924.7412C1449.1351,-873.433 1968.3895,-710.9306 2142.4746,-656.4501"/>
<polygon fill="#000000" stroke="#000000" points="2143.7194,-659.728 2152.2176,-653.401 2141.6287,-653.0475 2143.7194,-659.728"/>
</g>
<!-- EquivGpd_isequiv0gpd_transf&#45;&gt;EquivGpd_Build_IsEquiv0Gpd -->
<g id="edge34" class="edge">
<title>EquivGpd_isequiv0gpd_transf&#45;&gt;EquivGpd_Build_IsEquiv0Gpd</title>
<path fill="none" stroke="#000000" d="M1231.0095,-922.4602C1219.7944,-871.9088 1187.9266,-728.2655 1174.3026,-666.856"/>
<polygon fill="#000000" stroke="#000000" points="1177.6372,-665.7265 1172.0543,-656.722 1170.8033,-667.2427 1177.6372,-665.7265"/>
</g>
<!-- EquivGpd_isequiv0gpd_transf&#45;&gt;EquivGpd_IsEquiv0Gpd -->
<g id="edge35" class="edge">
<title>EquivGpd_isequiv0gpd_transf&#45;&gt;EquivGpd_IsEquiv0Gpd</title>
<path fill="none" stroke="#000000" d="M1244.1721,-922.2314C1268.7889,-870.6165 1330.9681,-720.1605 1278,-612.4473 1220.0958,-494.6963 1076.7559,-416.9388 1002.023,-382.9793"/>
<polygon fill="#000000" stroke="#000000" points="1003.38,-379.7522 992.8226,-378.8627 1000.521,-386.1417 1003.38,-379.7522"/>
</g>
<!-- EquivGpd_isesssurj_transf&#45;&gt;EquivGpd_esssurj -->
<g id="edge36" class="edge">
<title>EquivGpd_isesssurj_transf&#45;&gt;EquivGpd_esssurj</title>
<path fill="none" stroke="#000000" d="M2187.2055,-620.4038C2153.5061,-572.8789 2062.2155,-444.1358 2023.1426,-389.033"/>
<polygon fill="#000000" stroke="#000000" points="2025.9762,-386.9782 2017.3368,-380.8453 2020.266,-391.0272 2025.9762,-386.9782"/>
</g>
<!-- EquivGpd_eissect0gpd_inv -->
<g id="node17" class="node">
<title>EquivGpd_eissect0gpd_inv</title>
<g id="a_node17"><a xlink:href="EquivGpd.html#eissect0gpd_inv" xlink:title="eissect0gpd_inv">
<ellipse fill="#f070d1" stroke="#000000" cx="1918" cy="-1242.4473" rx="85.6029" ry="18"/>
<ellipse fill="none" stroke="#000000" cx="1918" cy="-1242.4473" rx="89.5941" ry="22"/>
<ellipse fill="none" stroke="#000000" cx="1918" cy="-1242.4473" rx="93.5852" ry="26"/>
<text text-anchor="middle" x="1918" y="-1238.7473" font-family="Times,serif" font-size="14.00" fill="#000000">eissect0gpd_inv</text>
</a>
</g>
</g>
<!-- EquivGpd_eisretr0gpd_inv -->
<g id="node18" class="node">
<title>EquivGpd_eisretr0gpd_inv</title>
<g id="a_node18"><a xlink:href="EquivGpd.html#eisretr0gpd_inv" xlink:title="eisretr0gpd_inv">
<ellipse fill="#f070d1" stroke="#000000" cx="1918" cy="-940.4473" rx="84.485" ry="18"/>
<text text-anchor="middle" x="1918" y="-936.7473" font-family="Times,serif" font-size="14.00" fill="#000000">eisretr0gpd_inv</text>
</a>
</g>
</g>
<!-- EquivGpd_eissect0gpd_inv&#45;&gt;EquivGpd_eisretr0gpd_inv -->
<g id="edge37" class="edge">
<title>EquivGpd_eissect0gpd_inv&#45;&gt;EquivGpd_eisretr0gpd_inv</title>
<path fill="none" stroke="#000000" d="M1918,-1216.4376C1918,-1160.119 1918,-1027.2677 1918,-968.8501"/>
<polygon fill="#000000" stroke="#000000" points="1921.5001,-968.5231 1918,-958.5232 1914.5001,-968.5232 1921.5001,-968.5231"/>
</g>
<!-- EquivGpd_equiv0gpd_inv -->
<g id="node20" class="node">
<title>EquivGpd_equiv0gpd_inv</title>
<g id="a_node20"><a xlink:href="EquivGpd.html#equiv0gpd_inv" xlink:title="equiv0gpd_inv">
<ellipse fill="#f070d1" stroke="#000000" cx="1815" cy="-638.4473" rx="78.7863" ry="18"/>
<text text-anchor="middle" x="1815" y="-634.7473" font-family="Times,serif" font-size="14.00" fill="#000000">equiv0gpd_inv</text>
</a>
</g>
</g>
<!-- EquivGpd_eisretr0gpd_inv&#45;&gt;EquivGpd_equiv0gpd_inv -->
<g id="edge38" class="edge">
<title>EquivGpd_eisretr0gpd_inv&#45;&gt;EquivGpd_equiv0gpd_inv</title>
<path fill="none" stroke="#000000" d="M1911.8653,-922.4602C1894.5886,-871.8042 1845.4304,-727.6703 1824.5593,-666.4756"/>
<polygon fill="#000000" stroke="#000000" points="1827.7735,-665.0568 1821.2327,-656.722 1821.1482,-667.3165 1827.7735,-665.0568"/>
</g>
<!-- EquivGpd_is0functor_equiv0gpd_inv -->
<g id="node19" class="node">
<title>EquivGpd_is0functor_equiv0gpd_inv</title>
<g id="a_node19"><a xlink:href="EquivGpd.html#is0functor_equiv0gpd_inv" xlink:title="is0functor_equiv0gpd_inv">
<ellipse fill="#f070d1" stroke="#000000" cx="2160" cy="-940.4473" rx="131.0892" ry="18"/>
<ellipse fill="none" stroke="#000000" cx="2160" cy="-940.4473" rx="135.0831" ry="22"/>
<ellipse fill="none" stroke="#000000" cx="2160" cy="-940.4473" rx="139.077" ry="26"/>
<text text-anchor="middle" x="2160" y="-936.7473" font-family="Times,serif" font-size="14.00" fill="#000000">is0functor_equiv0gpd_inv</text>
</a>
</g>
</g>
<!-- EquivGpd_is0functor_equiv0gpd_inv&#45;&gt;EquivGpd_equiv0gpd_inv -->
<g id="edge39" class="edge">
<title>EquivGpd_is0functor_equiv0gpd_inv&#45;&gt;EquivGpd_equiv0gpd_inv</title>
<path fill="none" stroke="#000000" d="M2130.8828,-914.9592C2065.2961,-857.5471 1906.7305,-718.7447 1842.6026,-662.6096"/>
<polygon fill="#000000" stroke="#000000" points="1844.737,-659.8265 1834.9073,-655.8734 1840.1264,-665.0936 1844.737,-659.8265"/>
</g>
<!-- EquivGpd_equiv0gpd_inv&#45;&gt;EquivGpd_IsEquiv0Gpd -->
<g id="edge40" class="edge">
<title>EquivGpd_equiv0gpd_inv&#45;&gt;EquivGpd_IsEquiv0Gpd</title>
<path fill="none" stroke="#000000" d="M1769.0667,-623.7593C1622.6113,-576.9277 1167.0855,-431.2654 1009.3871,-380.8385"/>
<polygon fill="#000000" stroke="#000000" points="1010.0278,-377.3689 999.4369,-377.6568 1007.8958,-384.0363 1010.0278,-377.3689"/>
</g>
<!-- EquivGpd_equiv0gpd_inv&#45;&gt;EquivGpd_esssurj -->
<g id="edge41" class="edge">
<title>EquivGpd_equiv0gpd_inv&#45;&gt;EquivGpd_esssurj</title>
<path fill="none" stroke="#000000" d="M1827.4664,-620.4038C1860.2342,-572.9767 1948.8857,-444.6653 1987.087,-389.3741"/>
<polygon fill="#000000" stroke="#000000" points="1990.1747,-391.0622 1992.9795,-380.8453 1984.4156,-387.0831 1990.1747,-391.0622"/>
</g>
<!-- EquivGpd_essinj0 -->
<g id="node21" class="node">
<title>EquivGpd_essinj0</title>
<g id="a_node21"><a xlink:href="EquivGpd.html#essinj0" xlink:title="essinj0">
<ellipse fill="#f070d1" stroke="#000000" cx="761" cy="-638.4473" rx="43.5851" ry="18"/>
<ellipse fill="none" stroke="#000000" cx="761" cy="-638.4473" rx="47.5887" ry="22"/>
<ellipse fill="none" stroke="#000000" cx="761" cy="-638.4473" rx="51.5923" ry="26"/>
<text text-anchor="middle" x="761" y="-634.7473" font-family="Times,serif" font-size="14.00" fill="#000000">essinj0</text>
</a>
</g>
</g>
<!-- EquivGpd_essinj0&#45;&gt;EquivGpd_IsEquiv0Gpd -->
<g id="edge42" class="edge">
<title>EquivGpd_essinj0&#45;&gt;EquivGpd_IsEquiv0Gpd</title>
<path fill="none" stroke="#000000" d="M778.5584,-613.5579C815.1363,-561.7076 899.1958,-442.5512 936.5398,-389.6151"/>
<polygon fill="#000000" stroke="#000000" points="939.4215,-391.6018 942.3261,-381.4129 933.7016,-387.5667 939.4215,-391.6018"/>
</g>
<!-- EquivGpd_esssurj_isequiv0gpd -->
<g id="node22" class="node">
<title>EquivGpd_esssurj_isequiv0gpd</title>
<g id="a_node22"><a xlink:href="EquivGpd.html#esssurj_isequiv0gpd" xlink:title="esssurj_isequiv0gpd">
<ellipse fill="#f070d1" stroke="#000000" cx="578" cy="-638.4473" rx="105.0965" ry="18"/>
<ellipse fill="none" stroke="#000000" cx="578" cy="-638.4473" rx="109.0891" ry="22"/>
<ellipse fill="none" stroke="#000000" cx="578" cy="-638.4473" rx="113.0817" ry="26"/>
<text text-anchor="middle" x="578" y="-634.7473" font-family="Times,serif" font-size="14.00" fill="#000000">esssurj_isequiv0gpd</text>
</a>
</g>
</g>
<!-- EquivGpd_esssurj_isequiv0gpd&#45;&gt;EquivGpd_IsEquiv0Gpd -->
<g id="edge43" class="edge">
<title>EquivGpd_esssurj_isequiv0gpd&#45;&gt;EquivGpd_IsEquiv0Gpd</title>
<path fill="none" stroke="#000000" d="M612.1212,-613.5579C684.4301,-560.8126 852.2228,-438.4174 922.8024,-386.9336"/>
<polygon fill="#000000" stroke="#000000" points="925.2935,-389.4488 931.3099,-380.7279 921.1682,-383.7935 925.2935,-389.4488"/>
</g>
<!-- EquivGpd_IsEquiv0Gpd_sind -->
<g id="node23" class="node">
<title>EquivGpd_IsEquiv0Gpd_sind</title>
<g id="a_node23"><a xlink:href="EquivGpd.html#IsEquiv0Gpd_sind" xlink:title="IsEquiv0Gpd_sind">
<ellipse fill="#f070d1" stroke="#000000" cx="327" cy="-940.4473" rx="95.5799" ry="18"/>
<ellipse fill="none" stroke="#000000" cx="327" cy="-940.4473" rx="99.5815" ry="22"/>
<ellipse fill="none" stroke="#000000" cx="327" cy="-940.4473" rx="103.5831" ry="26"/>
<text text-anchor="middle" x="327" y="-936.7473" font-family="Times,serif" font-size="14.00" fill="#000000">IsEquiv0Gpd_sind</text>
</a>
</g>
</g>
<!-- EquivGpd_IsEquiv0Gpd_sind&#45;&gt;EquivGpd_Build_IsEquiv0Gpd -->
<g id="edge44" class="edge">
<title>EquivGpd_IsEquiv0Gpd_sind&#45;&gt;EquivGpd_Build_IsEquiv0Gpd</title>
<path fill="none" stroke="#000000" d="M386.4726,-919.0909C542.6132,-863.0214 962.5432,-712.2261 1113.2337,-658.1137"/>
<polygon fill="#000000" stroke="#000000" points="1114.5357,-661.365 1122.7644,-654.6912 1112.1699,-654.7769 1114.5357,-661.365"/>
</g>
<!-- EquivGpd_IsEquiv0Gpd_sind&#45;&gt;EquivGpd_IsEquiv0Gpd -->
<g id="edge45" class="edge">
<title>EquivGpd_IsEquiv0Gpd_sind&#45;&gt;EquivGpd_IsEquiv0Gpd</title>
<path fill="none" stroke="#000000" d="M328.6035,-914.0653C333.6067,-853.5365 353.7623,-702.9477 433,-612.4473 556.7902,-471.0619 778.5783,-403.3193 888.9115,-377.1095"/>
<polygon fill="#000000" stroke="#000000" points="889.9698,-380.4567 898.9126,-374.7753 888.3787,-373.6399 889.9698,-380.4567"/>
</g>
<!-- EquivGpd_IsEquiv0Gpd_rec -->
<g id="node24" class="node">
<title>EquivGpd_IsEquiv0Gpd_rec</title>
<g id="a_node24"><a xlink:href="EquivGpd.html#IsEquiv0Gpd_rec" xlink:title="IsEquiv0Gpd_rec">
<ellipse fill="#f070d1" stroke="#000000" cx="115" cy="-1242.4473" rx="90.9845" ry="18"/>
<ellipse fill="none" stroke="#000000" cx="115" cy="-1242.4473" rx="94.9842" ry="22"/>
<ellipse fill="none" stroke="#000000" cx="115" cy="-1242.4473" rx="98.9839" ry="26"/>
<text text-anchor="middle" x="115" y="-1238.7473" font-family="Times,serif" font-size="14.00" fill="#000000">IsEquiv0Gpd_rec</text>
</a>
</g>
</g>
<!-- EquivGpd_IsEquiv0Gpd_rect -->
<g id="node26" class="node">
<title>EquivGpd_IsEquiv0Gpd_rect</title>
<g id="a_node26"><a xlink:href="EquivGpd.html#IsEquiv0Gpd_rect" xlink:title="IsEquiv0Gpd_rect">
<ellipse fill="#f070d1" stroke="#000000" cx="111" cy="-940.4473" rx="94.7833" ry="18"/>
<text text-anchor="middle" x="111" y="-936.7473" font-family="Times,serif" font-size="14.00" fill="#000000">IsEquiv0Gpd_rect</text>
</a>
</g>
</g>
<!-- EquivGpd_IsEquiv0Gpd_rec&#45;&gt;EquivGpd_IsEquiv0Gpd_rect -->
<g id="edge46" class="edge">
<title>EquivGpd_IsEquiv0Gpd_rec&#45;&gt;EquivGpd_IsEquiv0Gpd_rect</title>
<path fill="none" stroke="#000000" d="M114.6555,-1216.4376C113.9096,-1160.119 112.1499,-1027.2677 111.3762,-968.8501"/>
<polygon fill="#000000" stroke="#000000" points="114.8716,-968.4759 111.2394,-958.5232 107.8723,-968.5687 114.8716,-968.4759"/>
</g>
<!-- EquivGpd_IsEquiv0Gpd_ind -->
<g id="node25" class="node">
<title>EquivGpd_IsEquiv0Gpd_ind</title>
<g id="a_node25"><a xlink:href="EquivGpd.html#IsEquiv0Gpd_ind" xlink:title="IsEquiv0Gpd_ind">
<ellipse fill="#7fffd4" stroke="#000000" cx="548" cy="-940.4473" rx="90.9845" ry="18"/>
<ellipse fill="none" stroke="#000000" cx="548" cy="-940.4473" rx="94.9842" ry="22"/>
<ellipse fill="none" stroke="#000000" cx="548" cy="-940.4473" rx="98.9839" ry="26"/>
<text text-anchor="middle" x="548" y="-936.7473" font-family="Times,serif" font-size="14.00" fill="#000000">IsEquiv0Gpd_ind</text>
</a>
</g>
</g>
<!-- EquivGpd_IsEquiv0Gpd_ind&#45;&gt;EquivGpd_Build_IsEquiv0Gpd -->
<g id="edge47" class="edge">
<title>EquivGpd_IsEquiv0Gpd_ind&#45;&gt;EquivGpd_Build_IsEquiv0Gpd</title>
<path fill="none" stroke="#000000" d="M595.1096,-917.5003C711.5142,-860.8001 1011.4315,-714.7113 1124.2329,-659.7661"/>
<polygon fill="#000000" stroke="#000000" points="1125.8369,-662.878 1133.2944,-655.3523 1122.7715,-656.5849 1125.8369,-662.878"/>
</g>
<!-- EquivGpd_IsEquiv0Gpd_ind&#45;&gt;EquivGpd_IsEquiv0Gpd -->
<g id="edge48" class="edge">
<title>EquivGpd_IsEquiv0Gpd_ind&#45;&gt;EquivGpd_IsEquiv0Gpd</title>
<path fill="none" stroke="#000000" d="M527.7862,-914.6687C484.9285,-856.6523 393.774,-713.0408 456,-612.4473 550.5567,-459.5884 770.3911,-397.4841 884.0781,-374.8941"/>
<polygon fill="#000000" stroke="#000000" points="884.9245,-378.2952 894.0753,-372.9553 883.5918,-371.4233 884.9245,-378.2952"/>
</g>
<!-- EquivGpd_IsEquiv0Gpd_rect&#45;&gt;EquivGpd_Build_IsEquiv0Gpd -->
<g id="edge49" class="edge">
<title>EquivGpd_IsEquiv0Gpd_rect&#45;&gt;EquivGpd_Build_IsEquiv0Gpd</title>
<path fill="none" stroke="#000000" d="M163.7784,-925.3678C340.7914,-874.7926 913.006,-711.3027 1104.7296,-656.5246"/>
<polygon fill="#000000" stroke="#000000" points="1105.7272,-659.8797 1114.3809,-653.7671 1103.8041,-653.149 1105.7272,-659.8797"/>
</g>
<!-- EquivGpd_IsEquiv0Gpd_rect&#45;&gt;EquivGpd_IsEquiv0Gpd -->
<g id="edge50" class="edge">
<title>EquivGpd_IsEquiv0Gpd_rect&#45;&gt;EquivGpd_IsEquiv0Gpd</title>
<path fill="none" stroke="#000000" d="M122.4636,-922.3846C157.4122,-868.5645 268.0658,-707.1526 396,-612.4473 559.5403,-491.384 791.2527,-412.0981 897.6012,-379.8386"/>
<polygon fill="#000000" stroke="#000000" points="898.6207,-383.1869 907.1889,-376.955 896.6045,-376.4835 898.6207,-383.1869"/>
</g>
<!-- EquivGpd_SplEssSurj -->
<g id="node30" class="node">
<title>EquivGpd_SplEssSurj</title>
<g id="a_node30"><a xlink:href="EquivGpd.html#SplEssSurj" xlink:title="SplEssSurj">
<ellipse fill="#f070d1" stroke="#000000" cx="1168" cy="-116.4473" rx="61.99" ry="18"/>
<text text-anchor="middle" x="1168" y="-112.7473" font-family="Times,serif" font-size="14.00" fill="#000000">SplEssSurj</text>
</a>
</g>
</g>
<!-- EquivGpd_Build_IsEquiv0Gpd&#45;&gt;EquivGpd_SplEssSurj -->
<g id="edge51" class="edge">
<title>EquivGpd_Build_IsEquiv0Gpd&#45;&gt;EquivGpd_SplEssSurj</title>
<path fill="none" stroke="#000000" d="M1168,-620.1751C1168,-542.4994 1168,-239.3801 1168,-144.7981"/>
<polygon fill="#000000" stroke="#000000" points="1171.5001,-144.5711 1168,-134.5712 1164.5001,-144.5712 1171.5001,-144.5711"/>
</g>
<!-- EquivGpd_IsEquiv0Gpd&#45;&gt;EquivGpd_SplEssSurj -->
<g id="edge52" class="edge">
<title>EquivGpd_IsEquiv0Gpd&#45;&gt;EquivGpd_SplEssSurj</title>
<path fill="none" stroke="#000000" d="M970.3184,-345.6837C1007.5461,-302.5136 1102.8788,-191.9635 1146.1047,-141.8377"/>
<polygon fill="#000000" stroke="#000000" points="1148.9403,-143.9088 1152.8204,-134.05 1143.6391,-139.3373 1148.9403,-143.9088"/>
</g>
<!-- EquivGpd_esssurj&#45;&gt;EquivGpd_SplEssSurj -->
<g id="edge53" class="edge">
<title>EquivGpd_esssurj&#45;&gt;EquivGpd_SplEssSurj</title>
<path fill="none" stroke="#000000" d="M1969.0352,-352.834C1836.9943,-313.8686 1378.4733,-178.5583 1221.3287,-132.1847"/>
<polygon fill="#000000" stroke="#000000" points="1222.0021,-128.7343 1211.4204,-129.2607 1220.0208,-135.448 1222.0021,-128.7343"/>
</g>
</g>
</svg>
