<?xml version="1.0" encoding="UTF-8" standalone="no"?>
<!DOCTYPE svg PUBLIC "-//W3C//DTD SVG 1.1//EN"
 "http://www.w3.org/Graphics/SVG/1.1/DTD/svg11.dtd">
<!-- Generated by graphviz version 2.40.1 (20161225.0304)
 -->
<!-- Title: HoTT_Limits_Pullback Pages: 1 -->
<svg width="2507pt" height="1258pt"
 viewBox="0.00 0.00 2507.00 1257.50" xmlns="http://www.w3.org/2000/svg" xmlns:xlink="http://www.w3.org/1999/xlink">
<g id="graph0" class="graph" transform="scale(1 1) rotate(0) translate(4 1253.5)">
<title>HoTT_Limits_Pullback</title>
<polygon fill="#ffffff" stroke="transparent" points="-4,4 -4,-1253.5 2503,-1253.5 2503,4 -4,4"/>
<g id="clust1" class="cluster">
<title>cluster_Pullback</title>
<polygon fill="#ffffc3" stroke="#000000" points="8,-22.5643 8,-1226.9357 2491,-1226.9357 2491,-22.5643 8,-22.5643"/>
<text text-anchor="middle" x="47.5" y="-1211.7357" font-family="Times,serif" font-size="14.00" fill="#000000">Pullback</text>
</g>
<!-- Pullback_ispullback_pasting_outer -->
<g id="node1" class="node">
<title>Pullback_ispullback_pasting_outer</title>
<g id="a_node1"><a xlink:href="Pullback.html#ispullback_pasting_outer" xlink:title="ispullback_pasting_outer">
<ellipse fill="#f070d1" stroke="#000000" cx="1383" cy="-1066.5643" rx="128.075" ry="18"/>
<ellipse fill="none" stroke="#000000" cx="1383" cy="-1066.5643" rx="132.0762" ry="22"/>
<ellipse fill="none" stroke="#000000" cx="1383" cy="-1066.5643" rx="136.0773" ry="26"/>
<text text-anchor="middle" x="1383" y="-1062.8643" font-family="Times,serif" font-size="14.00" fill="#000000">ispullback_pasting_outer</text>
</a>
</g>
</g>
<!-- Pullback_isequiv_functor_hfiber_ispullback -->
<g id="node17" class="node">
<title>Pullback_isequiv_functor_hfiber_ispullback</title>
<g id="a_node17"><a xlink:href="Pullback.html#isequiv_functor_hfiber_ispullback" xlink:title="isequiv_functor_hfiber_ispullback">
<ellipse fill="#f070d1" stroke="#000000" cx="1878" cy="-817.5643" rx="168.1703" ry="18"/>
<text text-anchor="middle" x="1878" y="-813.8643" font-family="Times,serif" font-size="14.00" fill="#000000">isequiv_functor_hfiber_ispullback</text>
</a>
</g>
</g>
<!-- Pullback_ispullback_pasting_outer&#45;&gt;Pullback_isequiv_functor_hfiber_ispullback -->
<g id="edge1" class="edge">
<title>Pullback_ispullback_pasting_outer&#45;&gt;Pullback_isequiv_functor_hfiber_ispullback</title>
<path fill="none" stroke="#000000" d="M1431.364,-1042.2358C1527.4406,-993.9063 1741.0449,-886.4569 1833.6991,-839.849"/>
<polygon fill="#000000" stroke="#000000" points="1835.4471,-842.8877 1842.8077,-835.2671 1832.3014,-836.6343 1835.4471,-842.8877"/>
</g>
<!-- Pullback_ispullback_isequiv_functor_hfiber -->
<g id="node18" class="node">
<title>Pullback_ispullback_isequiv_functor_hfiber</title>
<g id="a_node18"><a xlink:href="Pullback.html#ispullback_isequiv_functor_hfiber" xlink:title="ispullback_isequiv_functor_hfiber">
<ellipse fill="#f070d1" stroke="#000000" cx="1312" cy="-817.5643" rx="168.1703" ry="18"/>
<text text-anchor="middle" x="1312" y="-813.8643" font-family="Times,serif" font-size="14.00" fill="#000000">ispullback_isequiv_functor_hfiber</text>
</a>
</g>
</g>
<!-- Pullback_ispullback_pasting_outer&#45;&gt;Pullback_ispullback_isequiv_functor_hfiber -->
<g id="edge2" class="edge">
<title>Pullback_ispullback_pasting_outer&#45;&gt;Pullback_ispullback_isequiv_functor_hfiber</title>
<path fill="none" stroke="#000000" d="M1375.5359,-1040.3876C1362.0691,-993.1587 1333.8239,-894.1016 1319.9855,-845.5697"/>
<polygon fill="#000000" stroke="#000000" points="1323.2915,-844.4 1317.1835,-835.7431 1316.5598,-846.3196 1323.2915,-844.4"/>
</g>
<!-- Pullback_ispullback_pasting_left -->
<g id="node2" class="node">
<title>Pullback_ispullback_pasting_left</title>
<g id="a_node2"><a xlink:href="Pullback.html#ispullback_pasting_left" xlink:title="ispullback_pasting_left">
<ellipse fill="#f070d1" stroke="#000000" cx="1735" cy="-1066.5643" rx="118.0927" ry="18"/>
<ellipse fill="none" stroke="#000000" cx="1735" cy="-1066.5643" rx="122.086" ry="22"/>
<ellipse fill="none" stroke="#000000" cx="1735" cy="-1066.5643" rx="126.0794" ry="26"/>
<text text-anchor="middle" x="1735" y="-1062.8643" font-family="Times,serif" font-size="14.00" fill="#000000">ispullback_pasting_left</text>
</a>
</g>
</g>
<!-- Pullback_ispullback_pasting_left&#45;&gt;Pullback_isequiv_functor_hfiber_ispullback -->
<g id="edge3" class="edge">
<title>Pullback_ispullback_pasting_left&#45;&gt;Pullback_isequiv_functor_hfiber_ispullback</title>
<path fill="none" stroke="#000000" d="M1750.0332,-1040.3876C1777.3272,-992.8617 1834.7616,-892.8535 1862.439,-844.66"/>
<polygon fill="#000000" stroke="#000000" points="1865.6149,-846.1579 1867.56,-835.7431 1859.5447,-842.6718 1865.6149,-846.1579"/>
</g>
<!-- Pullback_ispullback_pasting_left&#45;&gt;Pullback_ispullback_isequiv_functor_hfiber -->
<g id="edge4" class="edge">
<title>Pullback_ispullback_pasting_left&#45;&gt;Pullback_ispullback_isequiv_functor_hfiber</title>
<path fill="none" stroke="#000000" d="M1693.2835,-1042.0078C1611.3996,-993.8066 1430.6929,-887.4332 1351.027,-840.5377"/>
<polygon fill="#000000" stroke="#000000" points="1352.6712,-837.4442 1342.2779,-835.3875 1349.1201,-843.4766 1352.6712,-837.4442"/>
</g>
<!-- Pullback_pullback3x3 -->
<g id="node3" class="node">
<title>Pullback_pullback3x3</title>
<g id="a_node3"><a xlink:href="Pullback.html#pullback3x3" xlink:title="pullback3x3">
<ellipse fill="#f070d1" stroke="#000000" cx="1792" cy="-569.5643" rx="67.6782" ry="18"/>
<ellipse fill="none" stroke="#000000" cx="1792" cy="-569.5643" rx="71.6831" ry="22"/>
<ellipse fill="none" stroke="#000000" cx="1792" cy="-569.5643" rx="75.6881" ry="26"/>
<text text-anchor="middle" x="1792" y="-565.8643" font-family="Times,serif" font-size="14.00" fill="#000000">pullback3x3</text>
</a>
</g>
</g>
<!-- Pullback_equiv_path_pullback -->
<g id="node6" class="node">
<title>Pullback_equiv_path_pullback</title>
<g id="a_node6"><a xlink:href="Pullback.html#equiv_path_pullback" xlink:title="equiv_path_pullback">
<ellipse fill="#f070d1" stroke="#000000" cx="1121" cy="-321.5643" rx="106.6812" ry="18"/>
<text text-anchor="middle" x="1121" y="-317.8643" font-family="Times,serif" font-size="14.00" fill="#000000">equiv_path_pullback</text>
</a>
</g>
</g>
<!-- Pullback_pullback3x3&#45;&gt;Pullback_equiv_path_pullback -->
<g id="edge5" class="edge">
<title>Pullback_pullback3x3&#45;&gt;Pullback_equiv_path_pullback</title>
<path fill="none" stroke="#000000" d="M1740.4619,-550.516C1616.34,-504.6408 1301.7489,-388.3687 1175.0752,-341.5504"/>
<polygon fill="#000000" stroke="#000000" points="1176.1574,-338.219 1165.5642,-338.0351 1173.7306,-344.7849 1176.1574,-338.219"/>
</g>
<!-- Pullback_functor_pullback -->
<g id="node11" class="node">
<title>Pullback_functor_pullback</title>
<g id="a_node11"><a xlink:href="Pullback.html#functor_pullback" xlink:title="functor_pullback">
<ellipse fill="#f070d1" stroke="#000000" cx="1793" cy="-321.5643" rx="89.8845" ry="18"/>
<text text-anchor="middle" x="1793" y="-317.8643" font-family="Times,serif" font-size="14.00" fill="#000000">functor_pullback</text>
</a>
</g>
</g>
<!-- Pullback_pullback3x3&#45;&gt;Pullback_functor_pullback -->
<g id="edge6" class="edge">
<title>Pullback_pullback3x3&#45;&gt;Pullback_functor_pullback</title>
<path fill="none" stroke="#000000" d="M1792.1051,-543.4927C1792.2944,-496.5521 1792.691,-398.2076 1792.8863,-349.7619"/>
<polygon fill="#000000" stroke="#000000" points="1796.3865,-349.6842 1792.927,-339.6701 1789.3866,-349.6559 1796.3865,-349.6842"/>
</g>
<!-- Pullback_equiv_path_pullback_rec_hset -->
<g id="node4" class="node">
<title>Pullback_equiv_path_pullback_rec_hset</title>
<g id="a_node4"><a xlink:href="Pullback.html#equiv_path_pullback_rec_hset" xlink:title="equiv_path_pullback_rec_hset">
<ellipse fill="#f070d1" stroke="#000000" cx="966" cy="-817.5643" rx="151.3763" ry="18"/>
<ellipse fill="none" stroke="#000000" cx="966" cy="-817.5643" rx="155.3747" ry="22"/>
<ellipse fill="none" stroke="#000000" cx="966" cy="-817.5643" rx="159.3732" ry="26"/>
<text text-anchor="middle" x="966" y="-813.8643" font-family="Times,serif" font-size="14.00" fill="#000000">equiv_path_pullback_rec_hset</text>
</a>
</g>
</g>
<!-- Pullback_equiv_path_pullback_hset -->
<g id="node5" class="node">
<title>Pullback_equiv_path_pullback_hset</title>
<g id="a_node5"><a xlink:href="Pullback.html#equiv_path_pullback_hset" xlink:title="equiv_path_pullback_hset">
<ellipse fill="#f070d1" stroke="#000000" cx="1182" cy="-569.5643" rx="131.8766" ry="18"/>
<text text-anchor="middle" x="1182" y="-565.8643" font-family="Times,serif" font-size="14.00" fill="#000000">equiv_path_pullback_hset</text>
</a>
</g>
</g>
<!-- Pullback_equiv_path_pullback_rec_hset&#45;&gt;Pullback_equiv_path_pullback_hset -->
<g id="edge7" class="edge">
<title>Pullback_equiv_path_pullback_rec_hset&#45;&gt;Pullback_equiv_path_pullback_hset</title>
<path fill="none" stroke="#000000" d="M988.7075,-791.4927C1030.2784,-743.7632 1118.138,-642.8874 1159.531,-595.362"/>
<polygon fill="#000000" stroke="#000000" points="1162.3019,-597.5097 1166.2305,-587.6701 1157.0233,-592.9122 1162.3019,-597.5097"/>
</g>
<!-- Pullback_pullback_pr2 -->
<g id="node31" class="node">
<title>Pullback_pullback_pr2</title>
<g id="a_node31"><a xlink:href="Pullback.html#pullback_pr2" xlink:title="pullback_pr2">
<ellipse fill="#f070d1" stroke="#000000" cx="800" cy="-569.5643" rx="71.4873" ry="18"/>
<text text-anchor="middle" x="800" y="-565.8643" font-family="Times,serif" font-size="14.00" fill="#000000">pullback_pr2</text>
</a>
</g>
</g>
<!-- Pullback_equiv_path_pullback_rec_hset&#45;&gt;Pullback_pullback_pr2 -->
<g id="edge8" class="edge">
<title>Pullback_equiv_path_pullback_rec_hset&#45;&gt;Pullback_pullback_pr2</title>
<path fill="none" stroke="#000000" d="M948.5488,-791.4927C916.7207,-743.9422 849.5851,-643.6433 817.6273,-595.899"/>
<polygon fill="#000000" stroke="#000000" points="820.3766,-593.7142 811.9055,-587.3509 814.5594,-597.6079 820.3766,-593.7142"/>
</g>
<!-- Pullback_pullback_pr1 -->
<g id="node32" class="node">
<title>Pullback_pullback_pr1</title>
<g id="a_node32"><a xlink:href="Pullback.html#pullback_pr1" xlink:title="pullback_pr1">
<ellipse fill="#f070d1" stroke="#000000" cx="961" cy="-569.5643" rx="71.4873" ry="18"/>
<text text-anchor="middle" x="961" y="-565.8643" font-family="Times,serif" font-size="14.00" fill="#000000">pullback_pr1</text>
</a>
</g>
</g>
<!-- Pullback_equiv_path_pullback_rec_hset&#45;&gt;Pullback_pullback_pr1 -->
<g id="edge9" class="edge">
<title>Pullback_equiv_path_pullback_rec_hset&#45;&gt;Pullback_pullback_pr1</title>
<path fill="none" stroke="#000000" d="M965.4744,-791.4927C964.528,-744.5521 962.5452,-646.2076 961.5685,-597.7619"/>
<polygon fill="#000000" stroke="#000000" points="965.066,-597.5975 961.365,-587.6701 958.0674,-597.7387 965.066,-597.5975"/>
</g>
<!-- Pullback_equiv_path_pullback_hset&#45;&gt;Pullback_equiv_path_pullback -->
<g id="edge10" class="edge">
<title>Pullback_equiv_path_pullback_hset&#45;&gt;Pullback_equiv_path_pullback</title>
<path fill="none" stroke="#000000" d="M1177.5145,-551.3283C1166.9608,-508.4215 1140.5012,-400.8478 1127.8913,-349.5815"/>
<polygon fill="#000000" stroke="#000000" points="1131.2793,-348.7017 1125.4921,-339.8271 1124.4819,-350.3737 1131.2793,-348.7017"/>
</g>
<!-- Pullback_Pullback -->
<g id="node33" class="node">
<title>Pullback_Pullback</title>
<g id="a_node33"><a xlink:href="Pullback.html#Pullback" xlink:title="Pullback">
<ellipse fill="#f070d1" stroke="#000000" cx="865" cy="-95.5643" rx="51.1914" ry="18"/>
<text text-anchor="middle" x="865" y="-91.8643" font-family="Times,serif" font-size="14.00" fill="#000000">Pullback</text>
</a>
</g>
</g>
<!-- Pullback_equiv_path_pullback&#45;&gt;Pullback_Pullback -->
<g id="edge11" class="edge">
<title>Pullback_equiv_path_pullback&#45;&gt;Pullback_Pullback</title>
<path fill="none" stroke="#000000" d="M1100.9121,-303.8305C1055.2631,-263.531 943.6946,-165.0369 892.0491,-119.4436"/>
<polygon fill="#000000" stroke="#000000" points="894.1071,-116.5917 884.294,-112.5974 889.4744,-121.8394 894.1071,-116.5917"/>
</g>
<!-- Pullback_equiv_sigma_pullback -->
<g id="node7" class="node">
<title>Pullback_equiv_sigma_pullback</title>
<g id="a_node7"><a xlink:href="Pullback.html#equiv_sigma_pullback" xlink:title="equiv_sigma_pullback">
<ellipse fill="#f070d1" stroke="#000000" cx="1564" cy="-321.5643" rx="113.9645" ry="18"/>
<ellipse fill="none" stroke="#000000" cx="1564" cy="-321.5643" rx="117.9724" ry="22"/>
<ellipse fill="none" stroke="#000000" cx="1564" cy="-321.5643" rx="121.9803" ry="26"/>
<text text-anchor="middle" x="1564" y="-317.8643" font-family="Times,serif" font-size="14.00" fill="#000000">equiv_sigma_pullback</text>
</a>
</g>
</g>
<!-- Pullback_equiv_sigma_pullback&#45;&gt;Pullback_Pullback -->
<g id="edge12" class="edge">
<title>Pullback_equiv_sigma_pullback&#45;&gt;Pullback_Pullback</title>
<path fill="none" stroke="#000000" d="M1496.6597,-299.7919C1356.0478,-254.3294 1034.229,-150.2793 912.6725,-110.9778"/>
<polygon fill="#000000" stroke="#000000" points="913.4958,-107.5656 902.904,-107.8194 911.3423,-114.2262 913.4958,-107.5656"/>
</g>
<!-- Pullback_equiv_pullback -->
<g id="node8" class="node">
<title>Pullback_equiv_pullback</title>
<g id="a_node8"><a xlink:href="Pullback.html#equiv_pullback" xlink:title="equiv_pullback">
<ellipse fill="#f070d1" stroke="#000000" cx="1335" cy="-321.5643" rx="81.4644" ry="18"/>
<ellipse fill="none" stroke="#000000" cx="1335" cy="-321.5643" rx="85.4753" ry="22"/>
<ellipse fill="none" stroke="#000000" cx="1335" cy="-321.5643" rx="89.4862" ry="26"/>
<text text-anchor="middle" x="1335" y="-317.8643" font-family="Times,serif" font-size="14.00" fill="#000000">equiv_pullback</text>
</a>
</g>
</g>
<!-- Pullback_equiv_pullback&#45;&gt;Pullback_Pullback -->
<g id="edge13" class="edge">
<title>Pullback_equiv_pullback&#45;&gt;Pullback_Pullback</title>
<path fill="none" stroke="#000000" d="M1288.6483,-299.2761C1196.3462,-254.8925 991.0318,-156.1668 904.5822,-114.5975"/>
<polygon fill="#000000" stroke="#000000" points="905.9023,-111.3487 895.3733,-110.1694 902.8688,-117.6573 905.9023,-111.3487"/>
</g>
<!-- Pullback_hfiber_functor_pullback -->
<g id="node9" class="node">
<title>Pullback_hfiber_functor_pullback</title>
<g id="a_node9"><a xlink:href="Pullback.html#hfiber_functor_pullback" xlink:title="hfiber_functor_pullback">
<ellipse fill="#f070d1" stroke="#000000" cx="2043" cy="-569.5643" rx="122.367" ry="18"/>
<ellipse fill="none" stroke="#000000" cx="2043" cy="-569.5643" rx="126.3728" ry="22"/>
<ellipse fill="none" stroke="#000000" cx="2043" cy="-569.5643" rx="130.3786" ry="26"/>
<text text-anchor="middle" x="2043" y="-565.8643" font-family="Times,serif" font-size="14.00" fill="#000000">hfiber_functor_pullback</text>
</a>
</g>
</g>
<!-- Pullback_hfiber_functor_pullback_subproof -->
<g id="node10" class="node">
<title>Pullback_hfiber_functor_pullback_subproof</title>
<g id="a_node10"><a xlink:href="Pullback.html#hfiber_functor_pullback_subproof" xlink:title="hfiber_functor_pullback_subproof">
<ellipse fill="#f070d1" stroke="#000000" cx="2069" cy="-321.5643" rx="168.1703" ry="18"/>
<text text-anchor="middle" x="2069" y="-317.8643" font-family="Times,serif" font-size="14.00" fill="#000000">hfiber_functor_pullback_subproof</text>
</a>
</g>
</g>
<!-- Pullback_hfiber_functor_pullback&#45;&gt;Pullback_hfiber_functor_pullback_subproof -->
<g id="edge14" class="edge">
<title>Pullback_hfiber_functor_pullback&#45;&gt;Pullback_hfiber_functor_pullback_subproof</title>
<path fill="none" stroke="#000000" d="M2045.7333,-543.4927C2050.6545,-496.5521 2060.9648,-398.2076 2066.0438,-349.7619"/>
<polygon fill="#000000" stroke="#000000" points="2069.54,-349.9806 2067.1018,-339.6701 2062.5781,-349.2506 2069.54,-349.9806"/>
</g>
<!-- Pullback_hfiber_functor_pullback&#45;&gt;Pullback_functor_pullback -->
<g id="edge15" class="edge">
<title>Pullback_hfiber_functor_pullback&#45;&gt;Pullback_functor_pullback</title>
<path fill="none" stroke="#000000" d="M2017.1872,-543.9581C1968.9904,-496.1468 1865.8862,-393.8674 1818.1769,-346.5398"/>
<polygon fill="#000000" stroke="#000000" points="1820.5767,-343.9904 1811.0124,-339.4326 1815.6469,-348.96 1820.5767,-343.9904"/>
</g>
<!-- Pullback_functor_pullback&#45;&gt;Pullback_Pullback -->
<g id="edge16" class="edge">
<title>Pullback_functor_pullback&#45;&gt;Pullback_Pullback</title>
<path fill="none" stroke="#000000" d="M1739.3972,-307.1062C1724.997,-303.2869 1709.4194,-299.2139 1695,-295.5643 1401.9616,-221.3964 1049.0763,-138.4736 917.6629,-107.8129"/>
<polygon fill="#000000" stroke="#000000" points="918.3817,-104.3867 907.8481,-105.5241 916.7919,-111.2038 918.3817,-104.3867"/>
</g>
<!-- Pullback_hfiber_pullback_along_pointed -->
<g id="node12" class="node">
<title>Pullback_hfiber_pullback_along_pointed</title>
<g id="a_node12"><a xlink:href="Pullback.html#hfiber_pullback_along_pointed" xlink:title="hfiber_pullback_along_pointed">
<ellipse fill="#f070d1" stroke="#000000" cx="333" cy="-817.5643" rx="153.2785" ry="18"/>
<ellipse fill="none" stroke="#000000" cx="333" cy="-817.5643" rx="157.2757" ry="22"/>
<ellipse fill="none" stroke="#000000" cx="333" cy="-817.5643" rx="161.2729" ry="26"/>
<text text-anchor="middle" x="333" y="-813.8643" font-family="Times,serif" font-size="14.00" fill="#000000">hfiber_pullback_along_pointed</text>
</a>
</g>
</g>
<!-- Pullback_hfiber_pullback_along_ -->
<g id="node13" class="node">
<title>Pullback_hfiber_pullback_along_</title>
<g id="a_node13"><a xlink:href="Pullback.html#hfiber_pullback_along'" xlink:title="hfiber_pullback_along&#39;">
<ellipse fill="#f070d1" stroke="#000000" cx="333" cy="-569.5643" rx="116.1796" ry="18"/>
<text text-anchor="middle" x="333" y="-565.8643" font-family="Times,serif" font-size="14.00" fill="#000000">hfiber_pullback_along&#39;</text>
</a>
</g>
</g>
<!-- Pullback_hfiber_pullback_along_pointed&#45;&gt;Pullback_hfiber_pullback_along_ -->
<g id="edge17" class="edge">
<title>Pullback_hfiber_pullback_along_pointed&#45;&gt;Pullback_hfiber_pullback_along_</title>
<path fill="none" stroke="#000000" d="M333,-791.4927C333,-744.5521 333,-646.2076 333,-597.7619"/>
<polygon fill="#000000" stroke="#000000" points="336.5001,-597.6701 333,-587.6701 329.5001,-597.6701 336.5001,-597.6701"/>
</g>
<!-- Pullback_pullback_along_ -->
<g id="node14" class="node">
<title>Pullback_pullback_along_</title>
<g id="a_node14"><a xlink:href="Pullback.html#pullback_along'" xlink:title="pullback_along&#39;">
<ellipse fill="#f070d1" stroke="#000000" cx="513" cy="-321.5643" rx="83.3857" ry="18"/>
<text text-anchor="middle" x="513" y="-317.8643" font-family="Times,serif" font-size="14.00" fill="#000000">pullback_along&#39;</text>
</a>
</g>
</g>
<!-- Pullback_hfiber_pullback_along_&#45;&gt;Pullback_pullback_along_ -->
<g id="edge18" class="edge">
<title>Pullback_hfiber_pullback_along_&#45;&gt;Pullback_pullback_along_</title>
<path fill="none" stroke="#000000" d="M346.2358,-551.3283C377.7797,-507.8679 457.4782,-398.061 494.0847,-347.6254"/>
<polygon fill="#000000" stroke="#000000" points="496.9461,-349.6415 499.9875,-339.4926 491.281,-345.5297 496.9461,-349.6415"/>
</g>
<!-- Pullback_pullback_along_&#45;&gt;Pullback_Pullback -->
<g id="edge19" class="edge">
<title>Pullback_pullback_along_&#45;&gt;Pullback_Pullback</title>
<path fill="none" stroke="#000000" d="M539.7461,-304.3921C603.0064,-263.7761 761.7305,-161.8681 831.365,-117.1595"/>
<polygon fill="#000000" stroke="#000000" points="833.665,-119.8422 840.1889,-111.4942 829.883,-113.9517 833.665,-119.8422"/>
</g>
<!-- Pullback_hfiber_pullback_along -->
<g id="node15" class="node">
<title>Pullback_hfiber_pullback_along</title>
<g id="a_node15"><a xlink:href="Pullback.html#hfiber_pullback_along" xlink:title="hfiber_pullback_along">
<ellipse fill="#f070d1" stroke="#000000" cx="589" cy="-569.5643" rx="113.9645" ry="18"/>
<ellipse fill="none" stroke="#000000" cx="589" cy="-569.5643" rx="117.9724" ry="22"/>
<ellipse fill="none" stroke="#000000" cx="589" cy="-569.5643" rx="121.9803" ry="26"/>
<text text-anchor="middle" x="589" y="-565.8643" font-family="Times,serif" font-size="14.00" fill="#000000">hfiber_pullback_along</text>
</a>
</g>
</g>
<!-- Pullback_pullback_along -->
<g id="node16" class="node">
<title>Pullback_pullback_along</title>
<g id="a_node16"><a xlink:href="Pullback.html#pullback_along" xlink:title="pullback_along">
<ellipse fill="#f070d1" stroke="#000000" cx="695" cy="-321.5643" rx="81.4863" ry="18"/>
<text text-anchor="middle" x="695" y="-317.8643" font-family="Times,serif" font-size="14.00" fill="#000000">pullback_along</text>
</a>
</g>
</g>
<!-- Pullback_hfiber_pullback_along&#45;&gt;Pullback_pullback_along -->
<g id="edge20" class="edge">
<title>Pullback_hfiber_pullback_along&#45;&gt;Pullback_pullback_along</title>
<path fill="none" stroke="#000000" d="M600.1435,-543.4927C620.2911,-496.3549 662.5948,-397.3803 683.2077,-349.1539"/>
<polygon fill="#000000" stroke="#000000" points="686.5493,-350.241 687.2612,-339.6701 680.1126,-347.4898 686.5493,-350.241"/>
</g>
<!-- Pullback_pullback_along&#45;&gt;Pullback_Pullback -->
<g id="edge21" class="edge">
<title>Pullback_pullback_along&#45;&gt;Pullback_Pullback</title>
<path fill="none" stroke="#000000" d="M708.6244,-303.4518C738.7388,-263.4175 811.0356,-167.3053 845.7541,-121.15"/>
<polygon fill="#000000" stroke="#000000" points="848.5666,-123.2335 851.7809,-113.138 842.9725,-119.0255 848.5666,-123.2335"/>
</g>
<!-- Pullback_IsPullback -->
<g id="node24" class="node">
<title>Pullback_IsPullback</title>
<g id="a_node24"><a xlink:href="Pullback.html#IsPullback" xlink:title="IsPullback">
<ellipse fill="#f070d1" stroke="#000000" cx="1639" cy="-569.5643" rx="59.5901" ry="18"/>
<text text-anchor="middle" x="1639" y="-565.8643" font-family="Times,serif" font-size="14.00" fill="#000000">IsPullback</text>
</a>
</g>
</g>
<!-- Pullback_isequiv_functor_hfiber_ispullback&#45;&gt;Pullback_IsPullback -->
<g id="edge22" class="edge">
<title>Pullback_isequiv_functor_hfiber_ispullback&#45;&gt;Pullback_IsPullback</title>
<path fill="none" stroke="#000000" d="M1860.4258,-799.3283C1818.2672,-755.5821 1711.3262,-644.6141 1663.164,-594.6383"/>
<polygon fill="#000000" stroke="#000000" points="1665.4173,-591.9326 1655.9579,-587.1608 1660.3769,-596.7901 1665.4173,-591.9326"/>
</g>
<!-- Pullback_hfiber_pullback_corec -->
<g id="node19" class="node">
<title>Pullback_hfiber_pullback_corec</title>
<g id="a_node19"><a xlink:href="Pullback.html#hfiber_pullback_corec" xlink:title="hfiber_pullback_corec">
<ellipse fill="#f070d1" stroke="#000000" cx="1446" cy="-569.5643" rx="114.2798" ry="18"/>
<text text-anchor="middle" x="1446" y="-565.8643" font-family="Times,serif" font-size="14.00" fill="#000000">hfiber_pullback_corec</text>
</a>
</g>
</g>
<!-- Pullback_ispullback_isequiv_functor_hfiber&#45;&gt;Pullback_hfiber_pullback_corec -->
<g id="edge23" class="edge">
<title>Pullback_ispullback_isequiv_functor_hfiber&#45;&gt;Pullback_hfiber_pullback_corec</title>
<path fill="none" stroke="#000000" d="M1321.8533,-799.3283C1345.1336,-756.2424 1403.6474,-647.9483 1431.2071,-596.9423"/>
<polygon fill="#000000" stroke="#000000" points="1434.4577,-598.2888 1436.1322,-587.8271 1428.2992,-594.9612 1434.4577,-598.2888"/>
</g>
<!-- Pullback_ispullback_isequiv_functor_hfiber&#45;&gt;Pullback_IsPullback -->
<g id="edge24" class="edge">
<title>Pullback_ispullback_isequiv_functor_hfiber&#45;&gt;Pullback_IsPullback</title>
<path fill="none" stroke="#000000" d="M1335.517,-799.7288C1393.5388,-755.7245 1543.499,-641.9932 1608.3587,-592.803"/>
<polygon fill="#000000" stroke="#000000" points="1610.7115,-595.4114 1616.5642,-586.5799 1606.4815,-589.834 1610.7115,-595.4114"/>
</g>
<!-- Pullback_pullback_corec -->
<g id="node29" class="node">
<title>Pullback_pullback_corec</title>
<g id="a_node29"><a xlink:href="Pullback.html#pullback_corec" xlink:title="pullback_corec">
<ellipse fill="#f070d1" stroke="#000000" cx="915" cy="-321.5643" rx="81.4863" ry="18"/>
<text text-anchor="middle" x="915" y="-317.8643" font-family="Times,serif" font-size="14.00" fill="#000000">pullback_corec</text>
</a>
</g>
</g>
<!-- Pullback_hfiber_pullback_corec&#45;&gt;Pullback_pullback_corec -->
<g id="edge25" class="edge">
<title>Pullback_hfiber_pullback_corec&#45;&gt;Pullback_pullback_corec</title>
<path fill="none" stroke="#000000" d="M1409.0827,-552.3224C1314.0902,-507.9567 1061.5076,-389.9897 959.077,-342.1502"/>
<polygon fill="#000000" stroke="#000000" points="960.4738,-338.9397 949.9322,-337.8792 957.5116,-345.2821 960.4738,-338.9397"/>
</g>
<!-- Pullback_equiv_sigprod_pullback -->
<g id="node20" class="node">
<title>Pullback_equiv_sigprod_pullback</title>
<g id="a_node20"><a xlink:href="Pullback.html#equiv_sigprod_pullback" xlink:title="equiv_sigprod_pullback">
<ellipse fill="#f070d1" stroke="#000000" cx="2163" cy="-1066.5643" rx="120.7855" ry="18"/>
<ellipse fill="none" stroke="#000000" cx="2163" cy="-1066.5643" rx="124.7821" ry="22"/>
<ellipse fill="none" stroke="#000000" cx="2163" cy="-1066.5643" rx="128.7786" ry="26"/>
<text text-anchor="middle" x="2163" y="-1062.8643" font-family="Times,serif" font-size="14.00" fill="#000000">equiv_sigprod_pullback</text>
</a>
</g>
</g>
<!-- Pullback_ispullback_sigprod -->
<g id="node21" class="node">
<title>Pullback_ispullback_sigprod</title>
<g id="a_node21"><a xlink:href="Pullback.html#ispullback_sigprod" xlink:title="ispullback_sigprod">
<ellipse fill="#f070d1" stroke="#000000" cx="2163" cy="-817.5643" rx="98.5829" ry="18"/>
<text text-anchor="middle" x="2163" y="-813.8643" font-family="Times,serif" font-size="14.00" fill="#000000">ispullback_sigprod</text>
</a>
</g>
</g>
<!-- Pullback_equiv_sigprod_pullback&#45;&gt;Pullback_ispullback_sigprod -->
<g id="edge26" class="edge">
<title>Pullback_equiv_sigprod_pullback&#45;&gt;Pullback_ispullback_sigprod</title>
<path fill="none" stroke="#000000" d="M2163,-1040.3876C2163,-993.2577 2163,-894.5167 2163,-845.8756"/>
<polygon fill="#000000" stroke="#000000" points="2166.5001,-845.7431 2163,-835.7431 2159.5001,-845.7431 2166.5001,-845.7431"/>
</g>
<!-- Pullback_ispullback_sigprod&#45;&gt;Pullback_IsPullback -->
<g id="edge27" class="edge">
<title>Pullback_ispullback_sigprod&#45;&gt;Pullback_IsPullback</title>
<path fill="none" stroke="#000000" d="M2127.3953,-800.7133C2033.6723,-756.3558 1780.4806,-636.5246 1680.46,-589.1866"/>
<polygon fill="#000000" stroke="#000000" points="1681.8053,-585.9511 1671.2692,-584.8368 1678.8107,-592.2783 1681.8053,-585.9511"/>
</g>
<!-- Pullback_ispullback_symm -->
<g id="node22" class="node">
<title>Pullback_ispullback_symm</title>
<g id="a_node22"><a xlink:href="Pullback.html#ispullback_symm" xlink:title="ispullback_symm">
<ellipse fill="#f070d1" stroke="#000000" cx="2379" cy="-817.5643" rx="90.9845" ry="18"/>
<ellipse fill="none" stroke="#000000" cx="2379" cy="-817.5643" rx="94.9842" ry="22"/>
<ellipse fill="none" stroke="#000000" cx="2379" cy="-817.5643" rx="98.9839" ry="26"/>
<text text-anchor="middle" x="2379" y="-813.8643" font-family="Times,serif" font-size="14.00" fill="#000000">ispullback_symm</text>
</a>
</g>
</g>
<!-- Pullback_ispullback_symm&#45;&gt;Pullback_IsPullback -->
<g id="edge28" class="edge">
<title>Pullback_ispullback_symm&#45;&gt;Pullback_IsPullback</title>
<path fill="none" stroke="#000000" d="M2315.2011,-797.5693C2195.4219,-759.7905 1928.9443,-674.6079 1707,-595.5643 1699.9603,-593.0572 1692.5451,-590.3213 1685.3034,-587.596"/>
<polygon fill="#000000" stroke="#000000" points="1686.1787,-584.1846 1675.5874,-583.9087 1683.695,-590.7292 1686.1787,-584.1846"/>
</g>
<!-- Pullback_equiv_pullback_symm -->
<g id="node26" class="node">
<title>Pullback_equiv_pullback_symm</title>
<g id="a_node26"><a xlink:href="Pullback.html#equiv_pullback_symm" xlink:title="equiv_pullback_symm">
<ellipse fill="#f070d1" stroke="#000000" cx="2369" cy="-321.5643" rx="113.9803" ry="18"/>
<text text-anchor="middle" x="2369" y="-317.8643" font-family="Times,serif" font-size="14.00" fill="#000000">equiv_pullback_symm</text>
</a>
</g>
</g>
<!-- Pullback_ispullback_symm&#45;&gt;Pullback_equiv_pullback_symm -->
<g id="edge29" class="edge">
<title>Pullback_ispullback_symm&#45;&gt;Pullback_equiv_pullback_symm</title>
<path fill="none" stroke="#000000" d="M2378.4694,-791.2474C2376.7503,-705.9812 2371.3427,-437.76 2369.5694,-349.8049"/>
<polygon fill="#000000" stroke="#000000" points="2373.0679,-349.6938 2369.367,-339.7664 2366.0694,-349.835 2373.0679,-349.6938"/>
</g>
<!-- Pullback_equiv_ispullback -->
<g id="node23" class="node">
<title>Pullback_equiv_ispullback</title>
<g id="a_node23"><a xlink:href="Pullback.html#equiv_ispullback" xlink:title="equiv_ispullback">
<ellipse fill="#f070d1" stroke="#000000" cx="1595" cy="-817.5643" rx="89.0807" ry="18"/>
<ellipse fill="none" stroke="#000000" cx="1595" cy="-817.5643" rx="93.0825" ry="22"/>
<ellipse fill="none" stroke="#000000" cx="1595" cy="-817.5643" rx="97.0842" ry="26"/>
<text text-anchor="middle" x="1595" y="-813.8643" font-family="Times,serif" font-size="14.00" fill="#000000">equiv_ispullback</text>
</a>
</g>
</g>
<!-- Pullback_equiv_ispullback&#45;&gt;Pullback_IsPullback -->
<g id="edge30" class="edge">
<title>Pullback_equiv_ispullback&#45;&gt;Pullback_IsPullback</title>
<path fill="none" stroke="#000000" d="M1599.6256,-791.4927C1607.9538,-744.5521 1625.402,-646.2076 1633.9972,-597.7619"/>
<polygon fill="#000000" stroke="#000000" points="1637.4869,-598.1278 1635.7877,-587.6701 1630.5945,-596.9049 1637.4869,-598.1278"/>
</g>
<!-- Pullback_IsPullback&#45;&gt;Pullback_pullback_corec -->
<g id="edge31" class="edge">
<title>Pullback_IsPullback&#45;&gt;Pullback_pullback_corec</title>
<path fill="none" stroke="#000000" d="M1601.6534,-555.4695C1591.1163,-551.5535 1579.6276,-547.3409 1569,-543.5643 1348.2829,-465.1307 1083.585,-377.1268 970.5588,-339.8326"/>
<polygon fill="#000000" stroke="#000000" points="971.338,-336.4042 960.7449,-336.5961 969.1456,-343.052 971.338,-336.4042"/>
</g>
<!-- Pullback_equiv_pullback_unit_prod -->
<g id="node25" class="node">
<title>Pullback_equiv_pullback_unit_prod</title>
<g id="a_node25"><a xlink:href="Pullback.html#equiv_pullback_unit_prod" xlink:title="equiv_pullback_unit_prod">
<ellipse fill="#f070d1" stroke="#000000" cx="273" cy="-321.5643" rx="130.769" ry="18"/>
<ellipse fill="none" stroke="#000000" cx="273" cy="-321.5643" rx="134.773" ry="22"/>
<ellipse fill="none" stroke="#000000" cx="273" cy="-321.5643" rx="138.777" ry="26"/>
<text text-anchor="middle" x="273" y="-317.8643" font-family="Times,serif" font-size="14.00" fill="#000000">equiv_pullback_unit_prod</text>
</a>
</g>
</g>
<!-- Pullback_equiv_pullback_unit_prod&#45;&gt;Pullback_Pullback -->
<g id="edge32" class="edge">
<title>Pullback_equiv_pullback_unit_prod&#45;&gt;Pullback_Pullback</title>
<path fill="none" stroke="#000000" d="M334.4016,-298.1239C454.0319,-252.4542 715.7614,-152.5372 820.4369,-112.5766"/>
<polygon fill="#000000" stroke="#000000" points="821.9723,-115.7369 830.0664,-108.9005 819.4757,-109.1972 821.9723,-115.7369"/>
</g>
<!-- Pullback_equiv_pullback_symm&#45;&gt;Pullback_Pullback -->
<g id="edge33" class="edge">
<title>Pullback_equiv_pullback_symm&#45;&gt;Pullback_Pullback</title>
<path fill="none" stroke="#000000" d="M2303.0847,-306.8128C2284.657,-302.9119 2264.5876,-298.8713 2246,-295.5643 1736.3141,-204.8854 1115.2711,-126.235 923.9234,-102.716"/>
<polygon fill="#000000" stroke="#000000" points="924.1533,-99.218 913.8014,-101.4741 923.3007,-106.1659 924.1533,-99.218"/>
</g>
<!-- Pullback_hfiber_diagonal -->
<g id="node27" class="node">
<title>Pullback_hfiber_diagonal</title>
<g id="a_node27"><a xlink:href="Pullback.html#hfiber_diagonal" xlink:title="hfiber_diagonal">
<ellipse fill="#f070d1" stroke="#000000" cx="107" cy="-569.5643" rx="83.3687" ry="18"/>
<ellipse fill="none" stroke="#000000" cx="107" cy="-569.5643" rx="87.3772" ry="22"/>
<ellipse fill="none" stroke="#000000" cx="107" cy="-569.5643" rx="91.3856" ry="26"/>
<text text-anchor="middle" x="107" y="-565.8643" font-family="Times,serif" font-size="14.00" fill="#000000">hfiber_diagonal</text>
</a>
</g>
</g>
<!-- Pullback_diagonal -->
<g id="node28" class="node">
<title>Pullback_diagonal</title>
<g id="a_node28"><a xlink:href="Pullback.html#diagonal" xlink:title="diagonal">
<ellipse fill="#f070d1" stroke="#000000" cx="66" cy="-321.5643" rx="50.0912" ry="18"/>
<text text-anchor="middle" x="66" y="-317.8643" font-family="Times,serif" font-size="14.00" fill="#000000">diagonal</text>
</a>
</g>
</g>
<!-- Pullback_hfiber_diagonal&#45;&gt;Pullback_diagonal -->
<g id="edge34" class="edge">
<title>Pullback_hfiber_diagonal&#45;&gt;Pullback_diagonal</title>
<path fill="none" stroke="#000000" d="M102.6898,-543.4927C94.9294,-496.5521 78.6709,-398.2076 70.6617,-349.7619"/>
<polygon fill="#000000" stroke="#000000" points="74.0776,-348.9653 68.9933,-339.6701 67.1713,-350.1071 74.0776,-348.9653"/>
</g>
<!-- Pullback_diagonal&#45;&gt;Pullback_Pullback -->
<g id="edge35" class="edge">
<title>Pullback_diagonal&#45;&gt;Pullback_Pullback</title>
<path fill="none" stroke="#000000" d="M96.2685,-307.1774C105.3887,-303.1289 115.5009,-298.9194 125,-295.5643 376.4302,-206.7602 687.5996,-134.4483 810.9695,-107.2132"/>
<polygon fill="#000000" stroke="#000000" points="811.9088,-110.5903 820.9234,-105.0238 810.405,-103.7538 811.9088,-110.5903"/>
</g>
<!-- Pullback_pullback_corec&#45;&gt;Pullback_Pullback -->
<g id="edge36" class="edge">
<title>Pullback_pullback_corec&#45;&gt;Pullback_Pullback</title>
<path fill="none" stroke="#000000" d="M910.9928,-303.4518C902.289,-264.1106 881.6044,-170.6164 871.2007,-123.5916"/>
<polygon fill="#000000" stroke="#000000" points="874.6039,-122.7709 869.0263,-113.7631 867.7691,-124.2831 874.6039,-122.7709"/>
</g>
<!-- Pullback_pullback_commsq -->
<g id="node30" class="node">
<title>Pullback_pullback_commsq</title>
<g id="a_node30"><a xlink:href="Pullback.html#pullback_commsq" xlink:title="pullback_commsq">
<ellipse fill="#f070d1" stroke="#000000" cx="686" cy="-817.5643" rx="94.7917" ry="18"/>
<ellipse fill="none" stroke="#000000" cx="686" cy="-817.5643" rx="98.7875" ry="22"/>
<ellipse fill="none" stroke="#000000" cx="686" cy="-817.5643" rx="102.7833" ry="26"/>
<text text-anchor="middle" x="686" y="-813.8643" font-family="Times,serif" font-size="14.00" fill="#000000">pullback_commsq</text>
</a>
</g>
</g>
<!-- Pullback_pullback_commsq&#45;&gt;Pullback_pullback_pr2 -->
<g id="edge37" class="edge">
<title>Pullback_pullback_commsq&#45;&gt;Pullback_pullback_pr2</title>
<path fill="none" stroke="#000000" d="M697.9845,-791.4927C719.6981,-744.2563 765.3396,-644.9659 787.4565,-596.8519"/>
<polygon fill="#000000" stroke="#000000" points="790.6806,-598.218 791.6772,-587.6701 784.3204,-595.2943 790.6806,-598.218"/>
</g>
<!-- Pullback_pullback_commsq&#45;&gt;Pullback_pullback_pr1 -->
<g id="edge38" class="edge">
<title>Pullback_pullback_commsq&#45;&gt;Pullback_pullback_pr1</title>
<path fill="none" stroke="#000000" d="M713.8818,-792.42C766.8734,-744.6312 881.5056,-641.2538 933.8913,-594.0115"/>
<polygon fill="#000000" stroke="#000000" points="936.3678,-596.4912 941.45,-587.1949 931.6798,-591.2928 936.3678,-596.4912"/>
</g>
<!-- Pullback_pullback_pr2&#45;&gt;Pullback_Pullback -->
<g id="edge39" class="edge">
<title>Pullback_pullback_pr2&#45;&gt;Pullback_Pullback</title>
<path fill="none" stroke="#000000" d="M799.2218,-551.4759C797.637,-507.4025 795.3283,-391.0743 810,-295.5643 819.6458,-232.772 842.116,-161.5457 855.1549,-123.3284"/>
<polygon fill="#000000" stroke="#000000" points="858.6072,-124.0537 858.564,-113.4589 851.9908,-121.7682 858.6072,-124.0537"/>
</g>
<!-- Pullback_pullback_pr1&#45;&gt;Pullback_Pullback -->
<g id="edge40" class="edge">
<title>Pullback_pullback_pr1&#45;&gt;Pullback_Pullback</title>
<path fill="none" stroke="#000000" d="M945.355,-551.9333C914.9677,-516.3663 848.8571,-432.1773 825,-347.5643 802.489,-267.7254 834.3136,-169.851 853.0275,-123.0457"/>
<polygon fill="#000000" stroke="#000000" points="856.3474,-124.1748 856.9085,-113.5948 849.8721,-121.5157 856.3474,-124.1748"/>
</g>
</g>
</svg>
