<?xml version="1.0" encoding="UTF-8" standalone="no"?>
<!DOCTYPE svg PUBLIC "-//W3C//DTD SVG 1.1//EN"
 "http://www.w3.org/Graphics/SVG/1.1/DTD/svg11.dtd">
<!-- Generated by graphviz version 2.40.1 (20161225.0304)
 -->
<!-- Title: HoTT_Modalities_Descent Pages: 1 -->
<svg width="2206pt" height="1107pt"
 viewBox="0.00 0.00 2206.00 1107.00" xmlns="http://www.w3.org/2000/svg" xmlns:xlink="http://www.w3.org/1999/xlink">
<g id="graph0" class="graph" transform="scale(1 1) rotate(0) translate(4 1103)">
<title>HoTT_Modalities_Descent</title>
<polygon fill="#ffffff" stroke="transparent" points="-4,4 -4,-1103 2202,-1103 2202,4 -4,4"/>
<g id="clust1" class="cluster">
<title>cluster_Descent</title>
<polygon fill="#ffffc3" stroke="#000000" points="10.915,-8 10.915,-1091 2187.085,-1091 2187.085,-8 10.915,-8"/>
<text text-anchor="middle" x="48.415" y="-1075.8" font-family="Times,serif" font-size="14.00" fill="#000000">Descent</text>
</g>
<!-- Descent_O_lex_leq_inO_TypeO -->
<g id="node1" class="node">
<title>Descent_O_lex_leq_inO_TypeO</title>
<g id="a_node1"><a xlink:href="Descent.html#O_lex_leq_inO_TypeO" xlink:title="O_lex_leq_inO_TypeO">
<ellipse fill="#f070d1" stroke="#000000" cx="593.121" cy="-290" rx="113.174" ry="18"/>
<ellipse fill="none" stroke="#000000" cx="593.121" cy="-290" rx="117.177" ry="22"/>
<ellipse fill="none" stroke="#000000" cx="593.121" cy="-290" rx="121.18" ry="26"/>
<text text-anchor="middle" x="593.121" y="-286.3" font-family="Times,serif" font-size="14.00" fill="#000000">O_lex_leq_inO_TypeO</text>
</a>
</g>
</g>
<!-- Descent_O_lex_leq_extendable_TypeO -->
<g id="node2" class="node">
<title>Descent_O_lex_leq_extendable_TypeO</title>
<g id="a_node2"><a xlink:href="Descent.html#O_lex_leq_extendable_TypeO" xlink:title="O_lex_leq_extendable_TypeO">
<ellipse fill="#f070d1" stroke="#000000" cx="593.121" cy="-202" rx="147.5738" ry="18"/>
<text text-anchor="middle" x="593.121" y="-198.3" font-family="Times,serif" font-size="14.00" fill="#000000">O_lex_leq_extendable_TypeO</text>
</a>
</g>
</g>
<!-- Descent_O_lex_leq_inO_TypeO&#45;&gt;Descent_O_lex_leq_extendable_TypeO -->
<g id="edge1" class="edge">
<title>Descent_O_lex_leq_inO_TypeO&#45;&gt;Descent_O_lex_leq_extendable_TypeO</title>
<path fill="none" stroke="#000000" d="M593.121,-263.5971C593.121,-253.0414 593.121,-240.868 593.121,-230.1448"/>
<polygon fill="#000000" stroke="#000000" points="596.6211,-230.0188 593.121,-220.0188 589.6211,-230.0188 596.6211,-230.0188"/>
</g>
<!-- Descent_O_lex_leq -->
<g id="node35" class="node">
<title>Descent_O_lex_leq</title>
<g id="a_node35"><a xlink:href="Descent.html#O_lex_leq" xlink:title="O_lex_leq">
<ellipse fill="#f070d1" stroke="#000000" cx="1216.121" cy="-114" rx="55.7903" ry="18"/>
<text text-anchor="middle" x="1216.121" y="-110.3" font-family="Times,serif" font-size="14.00" fill="#000000">O_lex_leq</text>
</a>
</g>
</g>
<!-- Descent_O_lex_leq_extendable_TypeO&#45;&gt;Descent_O_lex_leq -->
<g id="edge2" class="edge">
<title>Descent_O_lex_leq_extendable_TypeO&#45;&gt;Descent_O_lex_leq</title>
<path fill="none" stroke="#000000" d="M705.0568,-190.2575C805.1963,-179.1976 955.8486,-161.1904 1086.121,-140 1110.363,-136.0568 1136.9827,-130.8834 1159.7858,-126.1905"/>
<polygon fill="#000000" stroke="#000000" points="1160.5591,-129.6047 1169.6384,-124.1443 1159.1356,-122.751 1160.5591,-129.6047"/>
</g>
<!-- Descent_Build_Descends -->
<g id="node43" class="node">
<title>Descent_Build_Descends</title>
<g id="a_node43"><a xlink:href="Descent.html#Build_Descends" xlink:title="Build_Descends">
<ellipse fill="#7faaff" stroke="#000000" cx="196.121" cy="-34" rx="85.2851" ry="18"/>
<text text-anchor="middle" x="196.121" y="-30.3" font-family="Times,serif" font-size="14.00" fill="#000000">Build_Descends</text>
</a>
</g>
</g>
<!-- Descent_O_lex_leq_extendable_TypeO&#45;&gt;Descent_Build_Descends -->
<g id="edge3" class="edge">
<title>Descent_O_lex_leq_extendable_TypeO&#45;&gt;Descent_Build_Descends</title>
<path fill="none" stroke="#000000" d="M482.8322,-189.9797C339.1787,-174.0639 105.4475,-147.17 99.121,-140 83.8304,-122.6703 87.4095,-107.9239 99.121,-88 108.0614,-72.7906 123.0096,-61.5539 138.5264,-53.3934"/>
<polygon fill="#000000" stroke="#000000" points="140.2255,-56.4591 147.687,-48.9374 137.1635,-50.1643 140.2255,-56.4591"/>
</g>
<!-- Descent_OO_inverts_conn_map_isconnected_domain -->
<g id="node3" class="node">
<title>Descent_OO_inverts_conn_map_isconnected_domain</title>
<g id="a_node3"><a xlink:href="Descent.html#OO_inverts_conn_map_isconnected_domain" xlink:title="OO_inverts_conn_map_isconnected_domain">
<ellipse fill="#f070d1" stroke="#000000" cx="1551.121" cy="-290" rx="215.5697" ry="18"/>
<ellipse fill="none" stroke="#000000" cx="1551.121" cy="-290" rx="219.5658" ry="22"/>
<ellipse fill="none" stroke="#000000" cx="1551.121" cy="-290" rx="223.5619" ry="26"/>
<text text-anchor="middle" x="1551.121" y="-286.3" font-family="Times,serif" font-size="14.00" fill="#000000">OO_inverts_conn_map_isconnected_domain</text>
</a>
</g>
</g>
<!-- Descent_OO_inverts_conn_map_factor_conn_map -->
<g id="node4" class="node">
<title>Descent_OO_inverts_conn_map_factor_conn_map</title>
<g id="a_node4"><a xlink:href="Descent.html#OO_inverts_conn_map_factor_conn_map" xlink:title="OO_inverts_conn_map_factor_conn_map">
<ellipse fill="#f070d1" stroke="#000000" cx="1402.121" cy="-202" rx="200.6645" ry="18"/>
<text text-anchor="middle" x="1402.121" y="-198.3" font-family="Times,serif" font-size="14.00" fill="#000000">OO_inverts_conn_map_factor_conn_map</text>
</a>
</g>
</g>
<!-- Descent_OO_inverts_conn_map_isconnected_domain&#45;&gt;Descent_OO_inverts_conn_map_factor_conn_map -->
<g id="edge4" class="edge">
<title>Descent_OO_inverts_conn_map_isconnected_domain&#45;&gt;Descent_OO_inverts_conn_map_factor_conn_map</title>
<path fill="none" stroke="#000000" d="M1507.6235,-264.3102C1486.6727,-251.9365 1461.7405,-237.2115 1441.3747,-225.1834"/>
<polygon fill="#000000" stroke="#000000" points="1443.0514,-222.1088 1432.6611,-220.0371 1439.4917,-228.1361 1443.0514,-222.1088"/>
</g>
<!-- Descent_OO_cancelR_conn_map -->
<g id="node6" class="node">
<title>Descent_OO_cancelR_conn_map</title>
<g id="a_node6"><a xlink:href="Descent.html#OO_cancelR_conn_map" xlink:title="OO_cancelR_conn_map">
<ellipse fill="#f070d1" stroke="#000000" cx="1480.121" cy="-114" rx="120.4791" ry="18"/>
<text text-anchor="middle" x="1480.121" y="-110.3" font-family="Times,serif" font-size="14.00" fill="#000000">OO_cancelR_conn_map</text>
</a>
</g>
</g>
<!-- Descent_OO_inverts_conn_map_factor_conn_map&#45;&gt;Descent_OO_cancelR_conn_map -->
<g id="edge5" class="edge">
<title>Descent_OO_inverts_conn_map_factor_conn_map&#45;&gt;Descent_OO_cancelR_conn_map</title>
<path fill="none" stroke="#000000" d="M1418.2827,-183.7663C1429.653,-170.9383 1445.0223,-153.5986 1457.5938,-139.4154"/>
<polygon fill="#000000" stroke="#000000" points="1460.2331,-141.7143 1464.247,-131.9092 1454.9946,-137.0711 1460.2331,-141.7143"/>
</g>
<!-- Descent_OO_inverts_conn_map_factor_conn_map&#45;&gt;Descent_O_lex_leq -->
<g id="edge6" class="edge">
<title>Descent_OO_inverts_conn_map_factor_conn_map&#45;&gt;Descent_O_lex_leq</title>
<path fill="none" stroke="#000000" d="M1364.4812,-184.1919C1333.2746,-169.4275 1288.9926,-148.4769 1256.9387,-133.3116"/>
<polygon fill="#000000" stroke="#000000" points="1258.3644,-130.1142 1247.8282,-129.0012 1255.3707,-136.4418 1258.3644,-130.1142"/>
</g>
<!-- Descent_OO_isconnected_from_conn_map -->
<g id="node5" class="node">
<title>Descent_OO_isconnected_from_conn_map</title>
<g id="a_node5"><a xlink:href="Descent.html#OO_isconnected_from_conn_map" xlink:title="OO_isconnected_from_conn_map">
<ellipse fill="#f070d1" stroke="#000000" cx="1939.121" cy="-202" rx="166.2758" ry="18"/>
<ellipse fill="none" stroke="#000000" cx="1939.121" cy="-202" rx="170.2732" ry="22"/>
<ellipse fill="none" stroke="#000000" cx="1939.121" cy="-202" rx="174.2705" ry="26"/>
<text text-anchor="middle" x="1939.121" y="-198.3" font-family="Times,serif" font-size="14.00" fill="#000000">OO_isconnected_from_conn_map</text>
</a>
</g>
</g>
<!-- Descent_OO_isconnected_from_conn_map&#45;&gt;Descent_OO_cancelR_conn_map -->
<g id="edge7" class="edge">
<title>Descent_OO_isconnected_from_conn_map&#45;&gt;Descent_OO_cancelR_conn_map</title>
<path fill="none" stroke="#000000" d="M1831.7957,-181.4235C1750.1509,-165.7704 1639.3886,-144.535 1564.1363,-130.1075"/>
<polygon fill="#000000" stroke="#000000" points="1564.7011,-126.6521 1554.2209,-128.2065 1563.383,-133.5269 1564.7011,-126.6521"/>
</g>
<!-- Descent_OO_cancelL_conn_map -->
<g id="node7" class="node">
<title>Descent_OO_cancelL_conn_map</title>
<g id="a_node7"><a xlink:href="Descent.html#OO_cancelL_conn_map" xlink:title="OO_cancelL_conn_map">
<ellipse fill="#f070d1" stroke="#000000" cx="196.121" cy="-450" rx="120.4642" ry="18"/>
<ellipse fill="none" stroke="#000000" cx="196.121" cy="-450" rx="124.4716" ry="22"/>
<ellipse fill="none" stroke="#000000" cx="196.121" cy="-450" rx="128.4791" ry="26"/>
<text text-anchor="middle" x="196.121" y="-446.3" font-family="Times,serif" font-size="14.00" fill="#000000">OO_cancelL_conn_map</text>
</a>
</g>
</g>
<!-- Descent_conn_map_OO_inverts -->
<g id="node32" class="node">
<title>Descent_conn_map_OO_inverts</title>
<g id="a_node32"><a xlink:href="Descent.html#conn_map_OO_inverts" xlink:title="conn_map_OO_inverts">
<ellipse fill="#f070d1" stroke="#000000" cx="708.121" cy="-370" rx="116.1796" ry="18"/>
<text text-anchor="middle" x="708.121" y="-366.3" font-family="Times,serif" font-size="14.00" fill="#000000">conn_map_OO_inverts</text>
</a>
</g>
</g>
<!-- Descent_OO_cancelL_conn_map&#45;&gt;Descent_conn_map_OO_inverts -->
<g id="edge8" class="edge">
<title>Descent_OO_cancelL_conn_map&#45;&gt;Descent_conn_map_OO_inverts</title>
<path fill="none" stroke="#000000" d="M297.8879,-434.0989C390.5546,-419.6198 526.2066,-398.4241 615.7979,-384.4255"/>
<polygon fill="#000000" stroke="#000000" points="616.6062,-387.8418 625.9459,-382.8399 615.5255,-380.9257 616.6062,-387.8418"/>
</g>
<!-- Descent_equiv_OO_pullback -->
<g id="node8" class="node">
<title>Descent_equiv_OO_pullback</title>
<g id="a_node8"><a xlink:href="Descent.html#equiv_OO_pullback" xlink:title="equiv_OO_pullback">
<ellipse fill="#f070d1" stroke="#000000" cx="593.121" cy="-714" rx="101.2901" ry="18"/>
<ellipse fill="none" stroke="#000000" cx="593.121" cy="-714" rx="105.2861" ry="22"/>
<ellipse fill="none" stroke="#000000" cx="593.121" cy="-714" rx="109.2821" ry="26"/>
<text text-anchor="middle" x="593.121" y="-710.3" font-family="Times,serif" font-size="14.00" fill="#000000">equiv_OO_pullback</text>
</a>
</g>
</g>
<!-- Descent_OO_inverts_functor_pullback_to_O -->
<g id="node9" class="node">
<title>Descent_OO_inverts_functor_pullback_to_O</title>
<g id="a_node9"><a xlink:href="Descent.html#OO_inverts_functor_pullback_to_O" xlink:title="OO_inverts_functor_pullback_to_O">
<ellipse fill="#f070d1" stroke="#000000" cx="593.121" cy="-626" rx="174.6691" ry="18"/>
<text text-anchor="middle" x="593.121" y="-622.3" font-family="Times,serif" font-size="14.00" fill="#000000">OO_inverts_functor_pullback_to_O</text>
</a>
</g>
</g>
<!-- Descent_equiv_OO_pullback&#45;&gt;Descent_OO_inverts_functor_pullback_to_O -->
<g id="edge9" class="edge">
<title>Descent_equiv_OO_pullback&#45;&gt;Descent_OO_inverts_functor_pullback_to_O</title>
<path fill="none" stroke="#000000" d="M593.121,-687.5971C593.121,-677.0414 593.121,-664.868 593.121,-654.1448"/>
<polygon fill="#000000" stroke="#000000" points="596.6211,-654.0188 593.121,-644.0188 589.6211,-654.0188 596.6211,-654.0188"/>
</g>
<!-- Descent_OO_inverts_functor_pullback -->
<g id="node10" class="node">
<title>Descent_OO_inverts_functor_pullback</title>
<g id="a_node10"><a xlink:href="Descent.html#OO_inverts_functor_pullback" xlink:title="OO_inverts_functor_pullback">
<ellipse fill="#f070d1" stroke="#000000" cx="682.121" cy="-538" rx="147.5738" ry="18"/>
<text text-anchor="middle" x="682.121" y="-534.3" font-family="Times,serif" font-size="14.00" fill="#000000">OO_inverts_functor_pullback</text>
</a>
</g>
</g>
<!-- Descent_OO_inverts_functor_pullback_to_O&#45;&gt;Descent_OO_inverts_functor_pullback -->
<g id="edge10" class="edge">
<title>Descent_OO_inverts_functor_pullback_to_O&#45;&gt;Descent_OO_inverts_functor_pullback</title>
<path fill="none" stroke="#000000" d="M611.5619,-607.7663C624.6559,-594.8195 642.3976,-577.2771 656.8145,-563.0222"/>
<polygon fill="#000000" stroke="#000000" points="659.3583,-565.4291 664.0083,-555.9092 654.4365,-560.4514 659.3583,-565.4291"/>
</g>
<!-- Descent_OO_inverts_ap -->
<g id="node25" class="node">
<title>Descent_OO_inverts_ap</title>
<g id="a_node25"><a xlink:href="Descent.html#OO_inverts_ap" xlink:title="OO_inverts_ap">
<ellipse fill="#f070d1" stroke="#000000" cx="1085.121" cy="-450" rx="79.8859" ry="18"/>
<text text-anchor="middle" x="1085.121" y="-446.3" font-family="Times,serif" font-size="14.00" fill="#000000">OO_inverts_ap</text>
</a>
</g>
</g>
<!-- Descent_OO_inverts_functor_pullback&#45;&gt;Descent_OO_inverts_ap -->
<g id="edge11" class="edge">
<title>Descent_OO_inverts_functor_pullback&#45;&gt;Descent_OO_inverts_ap</title>
<path fill="none" stroke="#000000" d="M754.1694,-522.2674C828.8769,-505.9541 944.7548,-480.6507 1017.704,-464.7213"/>
<polygon fill="#000000" stroke="#000000" points="1018.6806,-468.0906 1027.7037,-462.5378 1017.1872,-461.2518 1018.6806,-468.0906"/>
</g>
<!-- Descent_OO_inverts_functor_sigma -->
<g id="node31" class="node">
<title>Descent_OO_inverts_functor_sigma</title>
<g id="a_node31"><a xlink:href="Descent.html#OO_inverts_functor_sigma" xlink:title="OO_inverts_functor_sigma">
<ellipse fill="#f070d1" stroke="#000000" cx="748.121" cy="-450" rx="135.6761" ry="18"/>
<text text-anchor="middle" x="748.121" y="-446.3" font-family="Times,serif" font-size="14.00" fill="#000000">OO_inverts_functor_sigma</text>
</a>
</g>
</g>
<!-- Descent_OO_inverts_functor_pullback&#45;&gt;Descent_OO_inverts_functor_sigma -->
<g id="edge12" class="edge">
<title>Descent_OO_inverts_functor_pullback&#45;&gt;Descent_OO_inverts_functor_sigma</title>
<path fill="none" stroke="#000000" d="M695.7963,-519.7663C705.1766,-507.2592 717.7735,-490.4634 728.2568,-476.4857"/>
<polygon fill="#000000" stroke="#000000" points="731.2633,-478.3103 734.4633,-468.2103 725.6633,-474.1103 731.2633,-478.3103"/>
</g>
<!-- Descent_OO_ispullback_connmap_mapino -->
<g id="node11" class="node">
<title>Descent_OO_ispullback_connmap_mapino</title>
<g id="a_node11"><a xlink:href="Descent.html#OO_ispullback_connmap_mapino" xlink:title="OO_ispullback_connmap_mapino">
<ellipse fill="#f070d1" stroke="#000000" cx="1093.121" cy="-626" rx="165.1668" ry="18"/>
<ellipse fill="none" stroke="#000000" cx="1093.121" cy="-626" rx="169.1688" ry="22"/>
<ellipse fill="none" stroke="#000000" cx="1093.121" cy="-626" rx="173.1707" ry="26"/>
<text text-anchor="middle" x="1093.121" y="-622.3" font-family="Times,serif" font-size="14.00" fill="#000000">OO_ispullback_connmap_mapino</text>
</a>
</g>
</g>
<!-- Descent_OO_inverts_functor_hfiber -->
<g id="node19" class="node">
<title>Descent_OO_inverts_functor_hfiber</title>
<g id="a_node19"><a xlink:href="Descent.html#OO_inverts_functor_hfiber" xlink:title="OO_inverts_functor_hfiber">
<ellipse fill="#f070d1" stroke="#000000" cx="1093.121" cy="-538" rx="135.6761" ry="18"/>
<text text-anchor="middle" x="1093.121" y="-534.3" font-family="Times,serif" font-size="14.00" fill="#000000">OO_inverts_functor_hfiber</text>
</a>
</g>
</g>
<!-- Descent_OO_ispullback_connmap_mapino&#45;&gt;Descent_OO_inverts_functor_hfiber -->
<g id="edge13" class="edge">
<title>Descent_OO_ispullback_connmap_mapino&#45;&gt;Descent_OO_inverts_functor_hfiber</title>
<path fill="none" stroke="#000000" d="M1093.121,-599.5971C1093.121,-589.0414 1093.121,-576.868 1093.121,-566.1448"/>
<polygon fill="#000000" stroke="#000000" points="1096.6211,-566.0188 1093.121,-556.0188 1089.6211,-566.0188 1096.6211,-566.0188"/>
</g>
<!-- Descent_OO_conn_map_functor_hfiber_to_O -->
<g id="node12" class="node">
<title>Descent_OO_conn_map_functor_hfiber_to_O</title>
<g id="a_node12"><a xlink:href="Descent.html#OO_conn_map_functor_hfiber_to_O" xlink:title="OO_conn_map_functor_hfiber_to_O">
<ellipse fill="#f070d1" stroke="#000000" cx="1737.121" cy="-1034" rx="176.5782" ry="18"/>
<ellipse fill="none" stroke="#000000" cx="1737.121" cy="-1034" rx="180.5735" ry="22"/>
<ellipse fill="none" stroke="#000000" cx="1737.121" cy="-1034" rx="184.5689" ry="26"/>
<text text-anchor="middle" x="1737.121" y="-1030.3" font-family="Times,serif" font-size="14.00" fill="#000000">OO_conn_map_functor_hfiber_to_O</text>
</a>
</g>
</g>
<!-- Descent_OO_conn_map_functor_hfiber -->
<g id="node13" class="node">
<title>Descent_OO_conn_map_functor_hfiber</title>
<g id="a_node13"><a xlink:href="Descent.html#OO_conn_map_functor_hfiber" xlink:title="OO_conn_map_functor_hfiber">
<ellipse fill="#f070d1" stroke="#000000" cx="1737.121" cy="-954" rx="150.2735" ry="18"/>
<text text-anchor="middle" x="1737.121" y="-950.3" font-family="Times,serif" font-size="14.00" fill="#000000">OO_conn_map_functor_hfiber</text>
</a>
</g>
</g>
<!-- Descent_OO_conn_map_functor_hfiber_to_O&#45;&gt;Descent_OO_conn_map_functor_hfiber -->
<g id="edge14" class="edge">
<title>Descent_OO_conn_map_functor_hfiber_to_O&#45;&gt;Descent_OO_conn_map_functor_hfiber</title>
<path fill="none" stroke="#000000" d="M1737.121,-1007.805C1737.121,-999.6026 1737.121,-990.5174 1737.121,-982.1839"/>
<polygon fill="#000000" stroke="#000000" points="1740.6211,-982.1532 1737.121,-972.1532 1733.6211,-982.1533 1740.6211,-982.1532"/>
</g>
<!-- Descent_OO_isconnected_hfiber -->
<g id="node15" class="node">
<title>Descent_OO_isconnected_hfiber</title>
<g id="a_node15"><a xlink:href="Descent.html#OO_isconnected_hfiber" xlink:title="OO_isconnected_hfiber">
<ellipse fill="#f070d1" stroke="#000000" cx="1737.121" cy="-874" rx="120.4791" ry="18"/>
<text text-anchor="middle" x="1737.121" y="-870.3" font-family="Times,serif" font-size="14.00" fill="#000000">OO_isconnected_hfiber</text>
</a>
</g>
</g>
<!-- Descent_OO_conn_map_functor_hfiber&#45;&gt;Descent_OO_isconnected_hfiber -->
<g id="edge15" class="edge">
<title>Descent_OO_conn_map_functor_hfiber&#45;&gt;Descent_OO_isconnected_hfiber</title>
<path fill="none" stroke="#000000" d="M1737.121,-935.8468C1737.121,-925.9251 1737.121,-913.4167 1737.121,-902.2492"/>
<polygon fill="#000000" stroke="#000000" points="1740.6211,-902.0814 1737.121,-892.0814 1733.6211,-902.0814 1740.6211,-902.0814"/>
</g>
<!-- Descent_OO_isequiv_mapino_isconnected -->
<g id="node14" class="node">
<title>Descent_OO_isequiv_mapino_isconnected</title>
<g id="a_node14"><a xlink:href="Descent.html#OO_isequiv_mapino_isconnected" xlink:title="OO_isequiv_mapino_isconnected">
<ellipse fill="#f070d1" stroke="#000000" cx="1312.121" cy="-874" rx="164.3738" ry="18"/>
<ellipse fill="none" stroke="#000000" cx="1312.121" cy="-874" rx="168.3723" ry="22"/>
<ellipse fill="none" stroke="#000000" cx="1312.121" cy="-874" rx="172.3708" ry="26"/>
<text text-anchor="middle" x="1312.121" y="-870.3" font-family="Times,serif" font-size="14.00" fill="#000000">OO_isequiv_mapino_isconnected</text>
</a>
</g>
</g>
<!-- Descent_OO_conn_map_isconnected -->
<g id="node16" class="node">
<title>Descent_OO_conn_map_isconnected</title>
<g id="a_node16"><a xlink:href="Descent.html#OO_conn_map_isconnected" xlink:title="OO_conn_map_isconnected">
<ellipse fill="#f070d1" stroke="#000000" cx="1576.121" cy="-794" rx="139.9756" ry="18"/>
<text text-anchor="middle" x="1576.121" y="-790.3" font-family="Times,serif" font-size="14.00" fill="#000000">OO_conn_map_isconnected</text>
</a>
</g>
</g>
<!-- Descent_OO_isequiv_mapino_isconnected&#45;&gt;Descent_OO_conn_map_isconnected -->
<g id="edge16" class="edge">
<title>Descent_OO_isequiv_mapino_isconnected&#45;&gt;Descent_OO_conn_map_isconnected</title>
<path fill="none" stroke="#000000" d="M1389.1905,-850.6456C1428.0296,-838.8762 1474.591,-824.7667 1511.5278,-813.5737"/>
<polygon fill="#000000" stroke="#000000" points="1512.6319,-816.8964 1521.1871,-810.6466 1510.6018,-810.1972 1512.6319,-816.8964"/>
</g>
<!-- Descent_OO_isconnected_hfiber&#45;&gt;Descent_OO_conn_map_isconnected -->
<g id="edge17" class="edge">
<title>Descent_OO_isconnected_hfiber&#45;&gt;Descent_OO_conn_map_isconnected</title>
<path fill="none" stroke="#000000" d="M1702.1864,-856.6412C1678.2174,-844.7311 1646.2122,-828.8279 1620.4483,-816.0259"/>
<polygon fill="#000000" stroke="#000000" points="1621.778,-812.7784 1611.2651,-811.4629 1618.663,-819.0472 1621.778,-812.7784"/>
</g>
<!-- Descent_equiv_OO_functor_hfiber_to_O -->
<g id="node17" class="node">
<title>Descent_equiv_OO_functor_hfiber_to_O</title>
<g id="a_node17"><a xlink:href="Descent.html#equiv_OO_functor_hfiber_to_O" xlink:title="equiv_OO_functor_hfiber_to_O">
<ellipse fill="#f070d1" stroke="#000000" cx="1576.121" cy="-714" rx="155.1726" ry="18"/>
<text text-anchor="middle" x="1576.121" y="-710.3" font-family="Times,serif" font-size="14.00" fill="#000000">equiv_OO_functor_hfiber_to_O</text>
</a>
</g>
</g>
<!-- Descent_OO_conn_map_isconnected&#45;&gt;Descent_equiv_OO_functor_hfiber_to_O -->
<g id="edge18" class="edge">
<title>Descent_OO_conn_map_isconnected&#45;&gt;Descent_equiv_OO_functor_hfiber_to_O</title>
<path fill="none" stroke="#000000" d="M1576.121,-775.8468C1576.121,-765.9251 1576.121,-753.4167 1576.121,-742.2492"/>
<polygon fill="#000000" stroke="#000000" points="1579.6211,-742.0814 1576.121,-732.0814 1572.6211,-742.0814 1579.6211,-742.0814"/>
</g>
<!-- Descent_OO_inverts_functor_hfiber_to_O -->
<g id="node18" class="node">
<title>Descent_OO_inverts_functor_hfiber_to_O</title>
<g id="a_node18"><a xlink:href="Descent.html#OO_inverts_functor_hfiber_to_O" xlink:title="OO_inverts_functor_hfiber_to_O">
<ellipse fill="#f070d1" stroke="#000000" cx="1576.121" cy="-626" rx="162.4712" ry="18"/>
<text text-anchor="middle" x="1576.121" y="-622.3" font-family="Times,serif" font-size="14.00" fill="#000000">OO_inverts_functor_hfiber_to_O</text>
</a>
</g>
</g>
<!-- Descent_equiv_OO_functor_hfiber_to_O&#45;&gt;Descent_OO_inverts_functor_hfiber_to_O -->
<g id="edge19" class="edge">
<title>Descent_equiv_OO_functor_hfiber_to_O&#45;&gt;Descent_OO_inverts_functor_hfiber_to_O</title>
<path fill="none" stroke="#000000" d="M1576.121,-695.7663C1576.121,-683.8492 1576.121,-668.0384 1576.121,-654.4817"/>
<polygon fill="#000000" stroke="#000000" points="1579.6211,-654.2103 1576.121,-644.2103 1572.6211,-654.2103 1579.6211,-654.2103"/>
</g>
<!-- Descent_OO_inverts_functor_hfiber_to_O&#45;&gt;Descent_OO_inverts_functor_hfiber -->
<g id="edge20" class="edge">
<title>Descent_OO_inverts_functor_hfiber_to_O&#45;&gt;Descent_OO_inverts_functor_hfiber</title>
<path fill="none" stroke="#000000" d="M1491.4362,-610.5709C1405.0766,-594.8366 1271.5829,-570.5148 1183.2905,-554.4284"/>
<polygon fill="#000000" stroke="#000000" points="1183.7543,-550.9554 1173.2889,-552.6062 1182.4996,-557.842 1183.7543,-550.9554"/>
</g>
<!-- Descent_OO_inverts_functor_hfiber&#45;&gt;Descent_OO_inverts_ap -->
<g id="edge21" class="edge">
<title>Descent_OO_inverts_functor_hfiber&#45;&gt;Descent_OO_inverts_ap</title>
<path fill="none" stroke="#000000" d="M1091.4634,-519.7663C1090.3801,-507.8492 1088.9427,-492.0384 1087.7103,-478.4817"/>
<polygon fill="#000000" stroke="#000000" points="1091.1676,-477.8523 1086.7765,-468.2103 1084.1963,-478.4861 1091.1676,-477.8523"/>
</g>
<!-- Descent_OO_inverts_functor_hfiber&#45;&gt;Descent_OO_inverts_functor_sigma -->
<g id="edge22" class="edge">
<title>Descent_OO_inverts_functor_hfiber&#45;&gt;Descent_OO_inverts_functor_sigma</title>
<path fill="none" stroke="#000000" d="M1030.2439,-521.9618C971.1163,-506.8799 882.6482,-484.3142 820.5829,-468.483"/>
<polygon fill="#000000" stroke="#000000" points="821.4118,-465.0825 810.857,-466.0022 819.6817,-471.8653 821.4118,-465.0825"/>
</g>
<!-- Descent_equiv_path_OO -->
<g id="node20" class="node">
<title>Descent_equiv_path_OO</title>
<g id="a_node20"><a xlink:href="Descent.html#equiv_path_OO" xlink:title="equiv_path_OO">
<ellipse fill="#f070d1" stroke="#000000" cx="207.121" cy="-626" rx="82.5816" ry="18"/>
<ellipse fill="none" stroke="#000000" cx="207.121" cy="-626" rx="86.5835" ry="22"/>
<ellipse fill="none" stroke="#000000" cx="207.121" cy="-626" rx="90.5854" ry="26"/>
<text text-anchor="middle" x="207.121" y="-622.3" font-family="Times,serif" font-size="14.00" fill="#000000">equiv_path_OO</text>
</a>
</g>
</g>
<!-- Descent_isequiv_path_OO -->
<g id="node21" class="node">
<title>Descent_isequiv_path_OO</title>
<g id="a_node21"><a xlink:href="Descent.html#isequiv_path_OO" xlink:title="isequiv_path_OO">
<ellipse fill="#f070d1" stroke="#000000" cx="333.121" cy="-538" rx="90.1842" ry="18"/>
<text text-anchor="middle" x="333.121" y="-534.3" font-family="Times,serif" font-size="14.00" fill="#000000">isequiv_path_OO</text>
</a>
</g>
</g>
<!-- Descent_equiv_path_OO&#45;&gt;Descent_isequiv_path_OO -->
<g id="edge23" class="edge">
<title>Descent_equiv_path_OO&#45;&gt;Descent_isequiv_path_OO</title>
<path fill="none" stroke="#000000" d="M241.8846,-601.7207C259.9131,-589.1294 281.8313,-573.8214 299.6658,-561.3655"/>
<polygon fill="#000000" stroke="#000000" points="301.8636,-564.0997 308.058,-555.5043 297.8555,-558.3608 301.8636,-564.0997"/>
</g>
<!-- Descent_path_OO -->
<g id="node22" class="node">
<title>Descent_path_OO</title>
<g id="a_node22"><a xlink:href="Descent.html#path_OO" xlink:title="path_OO">
<ellipse fill="#f070d1" stroke="#000000" cx="466.121" cy="-450" rx="51.9908" ry="18"/>
<text text-anchor="middle" x="466.121" y="-446.3" font-family="Times,serif" font-size="14.00" fill="#000000">path_OO</text>
</a>
</g>
</g>
<!-- Descent_isequiv_path_OO&#45;&gt;Descent_path_OO -->
<g id="edge24" class="edge">
<title>Descent_isequiv_path_OO&#45;&gt;Descent_path_OO</title>
<path fill="none" stroke="#000000" d="M359.3976,-520.614C380.61,-506.5788 410.5688,-486.7564 433.3475,-471.6847"/>
<polygon fill="#000000" stroke="#000000" points="435.2845,-474.6 441.6929,-466.163 431.4218,-468.7621 435.2845,-474.6"/>
</g>
<!-- Descent_isequiv_path_OO&#45;&gt;Descent_OO_inverts_ap -->
<g id="edge25" class="edge">
<title>Descent_isequiv_path_OO&#45;&gt;Descent_OO_inverts_ap</title>
<path fill="none" stroke="#000000" d="M406.4346,-527.4228C442.1944,-522.4295 485.8628,-516.5768 525.121,-512 688.3518,-492.9704 729.8902,-495.0296 893.121,-476 930.8288,-471.604 972.6053,-466.0308 1007.5343,-461.1727"/>
<polygon fill="#000000" stroke="#000000" points="1008.248,-464.6071 1017.6674,-459.7568 1007.2792,-457.6744 1008.248,-464.6071"/>
</g>
<!-- Descent_OO_isconnected_paths -->
<g id="node23" class="node">
<title>Descent_OO_isconnected_paths</title>
<g id="a_node23"><a xlink:href="Descent.html#OO_isconnected_paths" xlink:title="OO_isconnected_paths">
<ellipse fill="#f070d1" stroke="#000000" cx="1995.121" cy="-626" rx="118.0927" ry="18"/>
<ellipse fill="none" stroke="#000000" cx="1995.121" cy="-626" rx="122.086" ry="22"/>
<ellipse fill="none" stroke="#000000" cx="1995.121" cy="-626" rx="126.0794" ry="26"/>
<text text-anchor="middle" x="1995.121" y="-622.3" font-family="Times,serif" font-size="14.00" fill="#000000">OO_isconnected_paths</text>
</a>
</g>
</g>
<!-- Descent_equiv_O_functor_ap_OO_inverts -->
<g id="node24" class="node">
<title>Descent_equiv_O_functor_ap_OO_inverts</title>
<g id="a_node24"><a xlink:href="Descent.html#equiv_O_functor_ap_OO_inverts" xlink:title="equiv_O_functor_ap_OO_inverts">
<ellipse fill="#f070d1" stroke="#000000" cx="1524.121" cy="-538" rx="161.6714" ry="18"/>
<text text-anchor="middle" x="1524.121" y="-534.3" font-family="Times,serif" font-size="14.00" fill="#000000">equiv_O_functor_ap_OO_inverts</text>
</a>
</g>
</g>
<!-- Descent_OO_isconnected_paths&#45;&gt;Descent_equiv_O_functor_ap_OO_inverts -->
<g id="edge26" class="edge">
<title>Descent_OO_isconnected_paths&#45;&gt;Descent_equiv_O_functor_ap_OO_inverts</title>
<path fill="none" stroke="#000000" d="M1901.5035,-608.5088C1818.8794,-593.0716 1699.1072,-570.6938 1616.7739,-555.3109"/>
<polygon fill="#000000" stroke="#000000" points="1617.3966,-551.8668 1606.9239,-553.4706 1616.111,-558.7477 1617.3966,-551.8668"/>
</g>
<!-- Descent_equiv_O_functor_ap_OO_inverts&#45;&gt;Descent_OO_inverts_ap -->
<g id="edge27" class="edge">
<title>Descent_equiv_O_functor_ap_OO_inverts&#45;&gt;Descent_OO_inverts_ap</title>
<path fill="none" stroke="#000000" d="M1445.3833,-522.2166C1362.6841,-505.6391 1233.876,-479.8188 1154.7654,-463.9606"/>
<polygon fill="#000000" stroke="#000000" points="1155.3878,-460.5158 1144.8949,-461.982 1154.0119,-467.3793 1155.3878,-460.5158"/>
</g>
<!-- Descent_OO_descend_O_inverts_beta -->
<g id="node28" class="node">
<title>Descent_OO_descend_O_inverts_beta</title>
<g id="a_node28"><a xlink:href="Descent.html#OO_descend_O_inverts_beta" xlink:title="OO_descend_O_inverts_beta">
<ellipse fill="#f070d1" stroke="#000000" cx="1501.121" cy="-370" rx="145.6742" ry="18"/>
<text text-anchor="middle" x="1501.121" y="-366.3" font-family="Times,serif" font-size="14.00" fill="#000000">OO_descend_O_inverts_beta</text>
</a>
</g>
</g>
<!-- Descent_OO_inverts_ap&#45;&gt;Descent_OO_descend_O_inverts_beta -->
<g id="edge28" class="edge">
<title>Descent_OO_inverts_ap&#45;&gt;Descent_OO_descend_O_inverts_beta</title>
<path fill="none" stroke="#000000" d="M1146.0565,-438.2816C1216.1777,-424.7968 1331.9534,-402.5322 1412.1482,-387.1102"/>
<polygon fill="#000000" stroke="#000000" points="1413.0773,-390.4957 1422.2363,-385.1701 1411.7553,-383.6217 1413.0773,-390.4957"/>
</g>
<!-- Descent_OO_descend_O_inverts_inO -->
<g id="node29" class="node">
<title>Descent_OO_descend_O_inverts_inO</title>
<g id="a_node29"><a xlink:href="Descent.html#OO_descend_O_inverts_inO" xlink:title="OO_descend_O_inverts_inO">
<ellipse fill="#f070d1" stroke="#000000" cx="1085.121" cy="-370" rx="141.8751" ry="18"/>
<text text-anchor="middle" x="1085.121" y="-366.3" font-family="Times,serif" font-size="14.00" fill="#000000">OO_descend_O_inverts_inO</text>
</a>
</g>
</g>
<!-- Descent_OO_inverts_ap&#45;&gt;Descent_OO_descend_O_inverts_inO -->
<g id="edge29" class="edge">
<title>Descent_OO_inverts_ap&#45;&gt;Descent_OO_descend_O_inverts_inO</title>
<path fill="none" stroke="#000000" d="M1085.121,-431.8468C1085.121,-421.9251 1085.121,-409.4167 1085.121,-398.2492"/>
<polygon fill="#000000" stroke="#000000" points="1088.6211,-398.0814 1085.121,-388.0814 1081.6211,-398.0814 1088.6211,-398.0814"/>
</g>
<!-- Descent_OO_inverts_ap&#45;&gt;Descent_conn_map_OO_inverts -->
<g id="edge30" class="edge">
<title>Descent_OO_inverts_ap&#45;&gt;Descent_conn_map_OO_inverts</title>
<path fill="none" stroke="#000000" d="M1026.6284,-437.5878C962.2336,-423.9231 858.3722,-401.8835 786.8582,-386.7081"/>
<polygon fill="#000000" stroke="#000000" points="787.4982,-383.2661 776.9894,-384.614 786.0451,-390.1136 787.4982,-383.2661"/>
</g>
<!-- Descent_inO_TypeO_lex_leq -->
<g id="node26" class="node">
<title>Descent_inO_TypeO_lex_leq</title>
<g id="a_node26"><a xlink:href="Descent.html#inO_TypeO_lex_leq" xlink:title="inO_TypeO_lex_leq">
<ellipse fill="#f070d1" stroke="#000000" cx="1918.121" cy="-538" rx="100.9649" ry="18"/>
<ellipse fill="none" stroke="#000000" cx="1918.121" cy="-538" rx="104.9738" ry="22"/>
<ellipse fill="none" stroke="#000000" cx="1918.121" cy="-538" rx="108.9827" ry="26"/>
<text text-anchor="middle" x="1918.121" y="-534.3" font-family="Times,serif" font-size="14.00" fill="#000000">inO_TypeO_lex_leq</text>
</a>
</g>
</g>
<!-- Descent_ooextendable_TypeO_lex_leq -->
<g id="node27" class="node">
<title>Descent_ooextendable_TypeO_lex_leq</title>
<g id="a_node27"><a xlink:href="Descent.html#ooextendable_TypeO_lex_leq" xlink:title="ooextendable_TypeO_lex_leq">
<ellipse fill="#f070d1" stroke="#000000" cx="1460.121" cy="-450" rx="145.6742" ry="18"/>
<text text-anchor="middle" x="1460.121" y="-446.3" font-family="Times,serif" font-size="14.00" fill="#000000">ooextendable_TypeO_lex_leq</text>
</a>
</g>
</g>
<!-- Descent_inO_TypeO_lex_leq&#45;&gt;Descent_ooextendable_TypeO_lex_leq -->
<g id="edge31" class="edge">
<title>Descent_inO_TypeO_lex_leq&#45;&gt;Descent_ooextendable_TypeO_lex_leq</title>
<path fill="none" stroke="#000000" d="M1833.3157,-521.7055C1752.4354,-506.1652 1631.0963,-482.8511 1548.917,-467.0612"/>
<polygon fill="#000000" stroke="#000000" points="1549.5754,-463.6238 1539.0946,-465.174 1548.2545,-470.4981 1549.5754,-463.6238"/>
</g>
<!-- Descent_ooextendable_TypeO_lex_leq&#45;&gt;Descent_OO_descend_O_inverts_beta -->
<g id="edge32" class="edge">
<title>Descent_ooextendable_TypeO_lex_leq&#45;&gt;Descent_OO_descend_O_inverts_beta</title>
<path fill="none" stroke="#000000" d="M1469.4246,-431.8468C1474.6667,-421.6183 1481.3178,-408.6405 1487.1723,-397.217"/>
<polygon fill="#000000" stroke="#000000" points="1490.4081,-398.5771 1491.8543,-388.0814 1484.1786,-395.3844 1490.4081,-398.5771"/>
</g>
<!-- Descent_ooextendable_TypeO_lex_leq&#45;&gt;Descent_OO_descend_O_inverts_inO -->
<g id="edge33" class="edge">
<title>Descent_ooextendable_TypeO_lex_leq&#45;&gt;Descent_OO_descend_O_inverts_inO</title>
<path fill="none" stroke="#000000" d="M1386.9271,-434.3853C1323.9761,-420.9557 1233.2276,-401.5961 1167.6967,-387.6161"/>
<polygon fill="#000000" stroke="#000000" points="1168.3214,-384.1707 1157.8112,-385.5072 1166.8609,-391.0167 1168.3214,-384.1707"/>
</g>
<!-- Descent_ooextendable_TypeO_lex_leq&#45;&gt;Descent_conn_map_OO_inverts -->
<g id="edge34" class="edge">
<title>Descent_ooextendable_TypeO_lex_leq&#45;&gt;Descent_conn_map_OO_inverts</title>
<path fill="none" stroke="#000000" d="M1349.5649,-438.2387C1205.6376,-422.9273 955.8016,-396.349 814.1411,-381.2787"/>
<polygon fill="#000000" stroke="#000000" points="814.4456,-377.7915 804.1314,-380.2139 813.705,-384.7522 814.4456,-377.7915"/>
</g>
<!-- Descent_OO_descend_O_inverts -->
<g id="node30" class="node">
<title>Descent_OO_descend_O_inverts</title>
<g id="a_node30"><a xlink:href="Descent.html#OO_descend_O_inverts" xlink:title="OO_descend_O_inverts">
<ellipse fill="#f070d1" stroke="#000000" cx="1057.121" cy="-290" rx="120.4791" ry="18"/>
<text text-anchor="middle" x="1057.121" y="-286.3" font-family="Times,serif" font-size="14.00" fill="#000000">OO_descend_O_inverts</text>
</a>
</g>
</g>
<!-- Descent_OO_descend_O_inverts_beta&#45;&gt;Descent_OO_descend_O_inverts -->
<g id="edge35" class="edge">
<title>Descent_OO_descend_O_inverts_beta&#45;&gt;Descent_OO_descend_O_inverts</title>
<path fill="none" stroke="#000000" d="M1418.6486,-355.1401C1340.607,-341.0785 1223.8787,-320.0464 1144.3204,-305.7116"/>
<polygon fill="#000000" stroke="#000000" points="1144.7844,-302.2389 1134.3222,-303.9101 1143.5431,-309.128 1144.7844,-302.2389"/>
</g>
<!-- Descent_OO_descend_O_inverts_inO&#45;&gt;Descent_OO_descend_O_inverts -->
<g id="edge36" class="edge">
<title>Descent_OO_descend_O_inverts_inO&#45;&gt;Descent_OO_descend_O_inverts</title>
<path fill="none" stroke="#000000" d="M1078.7674,-351.8468C1075.2232,-341.7205 1070.736,-328.8998 1066.7671,-317.5602"/>
<polygon fill="#000000" stroke="#000000" points="1070.0566,-316.3637 1063.4495,-308.0814 1063.4496,-318.6762 1070.0566,-316.3637"/>
</g>
<!-- Descent_O_lex_leq_descends -->
<g id="node34" class="node">
<title>Descent_O_lex_leq_descends</title>
<g id="a_node34"><a xlink:href="Descent.html#O_lex_leq_descends" xlink:title="O_lex_leq_descends">
<ellipse fill="#f070d1" stroke="#000000" cx="962.121" cy="-202" rx="104.7816" ry="18"/>
<text text-anchor="middle" x="962.121" y="-198.3" font-family="Times,serif" font-size="14.00" fill="#000000">O_lex_leq_descends</text>
</a>
</g>
</g>
<!-- Descent_OO_descend_O_inverts&#45;&gt;Descent_O_lex_leq_descends -->
<g id="edge37" class="edge">
<title>Descent_OO_descend_O_inverts&#45;&gt;Descent_O_lex_leq_descends</title>
<path fill="none" stroke="#000000" d="M1037.8964,-272.1919C1023.8609,-259.1906 1004.6468,-241.3922 989.079,-226.9715"/>
<polygon fill="#000000" stroke="#000000" points="991.0318,-224.0096 981.3171,-219.7816 986.2748,-229.145 991.0318,-224.0096"/>
</g>
<!-- Descent_OO_inverts_functor_sigma&#45;&gt;Descent_conn_map_OO_inverts -->
<g id="edge38" class="edge">
<title>Descent_OO_inverts_functor_sigma&#45;&gt;Descent_conn_map_OO_inverts</title>
<path fill="none" stroke="#000000" d="M739.0444,-431.8468C733.9302,-421.6183 727.4413,-408.6405 721.7296,-397.217"/>
<polygon fill="#000000" stroke="#000000" points="724.7644,-395.4604 717.1617,-388.0814 718.5034,-398.5909 724.7644,-395.4604"/>
</g>
<!-- Descent_conn_map_OO_inverts&#45;&gt;Descent_O_lex_leq_descends -->
<g id="edge39" class="edge">
<title>Descent_conn_map_OO_inverts&#45;&gt;Descent_O_lex_leq_descends</title>
<path fill="none" stroke="#000000" d="M734.8234,-352.3386C781.0588,-321.7577 875.987,-258.9705 927.3225,-225.0163"/>
<polygon fill="#000000" stroke="#000000" points="929.3666,-227.8607 935.7764,-219.4248 925.5049,-222.0222 929.3666,-227.8607"/>
</g>
<!-- Descent_O_lex_leq_eq -->
<g id="node33" class="node">
<title>Descent_O_lex_leq_eq</title>
<g id="a_node33"><a xlink:href="Descent.html#O_lex_leq_eq" xlink:title="O_lex_leq_eq">
<ellipse fill="#f070d1" stroke="#000000" cx="213.121" cy="-290" rx="72.2731" ry="18"/>
<ellipse fill="none" stroke="#000000" cx="213.121" cy="-290" rx="76.2803" ry="22"/>
<ellipse fill="none" stroke="#000000" cx="213.121" cy="-290" rx="80.2875" ry="26"/>
<text text-anchor="middle" x="213.121" y="-286.3" font-family="Times,serif" font-size="14.00" fill="#000000">O_lex_leq_eq</text>
</a>
</g>
</g>
<!-- Descent_O_lex_leq_eq&#45;&gt;Descent_O_lex_leq_descends -->
<g id="edge40" class="edge">
<title>Descent_O_lex_leq_eq&#45;&gt;Descent_O_lex_leq_descends</title>
<path fill="none" stroke="#000000" d="M289.1747,-281.3909C393.2487,-269.5706 585.8729,-247.5533 750.121,-228 788.4059,-223.4423 830.5631,-218.2979 867.1317,-213.7952"/>
<polygon fill="#000000" stroke="#000000" points="867.7931,-217.2403 877.2899,-212.5433 866.9368,-210.2928 867.7931,-217.2403"/>
</g>
<!-- Descent_O_lex_leq_eq&#45;&gt;Descent_Build_Descends -->
<g id="edge41" class="edge">
<title>Descent_O_lex_leq_eq&#45;&gt;Descent_Build_Descends</title>
<path fill="none" stroke="#000000" d="M182.3592,-265.7243C151.0383,-238.8524 104.4238,-192.3572 85.121,-140 77.1266,-118.3156 72.8642,-107.5932 85.121,-88 95.5737,-71.291 112.842,-59.6181 130.6799,-51.5194"/>
<polygon fill="#000000" stroke="#000000" points="132.1567,-54.6955 140.0267,-47.6023 129.4511,-48.2395 132.1567,-54.6955"/>
</g>
<!-- Descent_O_lex_leq_descends&#45;&gt;Descent_O_lex_leq -->
<g id="edge42" class="edge">
<title>Descent_O_lex_leq_descends&#45;&gt;Descent_O_lex_leq</title>
<path fill="none" stroke="#000000" d="M1008.7086,-185.8594C1053.9406,-170.1885 1122.2908,-146.5081 1168.0275,-130.6623"/>
<polygon fill="#000000" stroke="#000000" points="1169.4089,-133.8879 1177.712,-127.3071 1167.1172,-127.2736 1169.4089,-133.8879"/>
</g>
<!-- Descent_Descends -->
<g id="node44" class="node">
<title>Descent_Descends</title>
<g id="a_node44"><a xlink:href="Descent.html#Descends" xlink:title="Descends">
<ellipse fill="#e2cdfa" stroke="#000000" cx="974.121" cy="-34" rx="55.7903" ry="18"/>
<text text-anchor="middle" x="974.121" y="-30.3" font-family="Times,serif" font-size="14.00" fill="#000000">Descends</text>
</a>
</g>
</g>
<!-- Descent_O_lex_leq&#45;&gt;Descent_Descends -->
<g id="edge43" class="edge">
<title>Descent_O_lex_leq&#45;&gt;Descent_Descends</title>
<path fill="none" stroke="#000000" d="M1176.9706,-101.0577C1134.9712,-87.1736 1068.2041,-65.1018 1022.8376,-50.1047"/>
<polygon fill="#000000" stroke="#000000" points="1023.8085,-46.7394 1013.2152,-46.9237 1021.6113,-53.3856 1023.8085,-46.7394"/>
</g>
<!-- Descent_OO_descend_beta -->
<g id="node36" class="node">
<title>Descent_OO_descend_beta</title>
<g id="a_node36"><a xlink:href="Descent.html#OO_descend_beta" xlink:title="OO_descend_beta">
<ellipse fill="#f070d1" stroke="#000000" cx="974.121" cy="-114" rx="94.7917" ry="18"/>
<ellipse fill="none" stroke="#000000" cx="974.121" cy="-114" rx="98.7875" ry="22"/>
<ellipse fill="none" stroke="#000000" cx="974.121" cy="-114" rx="102.7833" ry="26"/>
<text text-anchor="middle" x="974.121" y="-110.3" font-family="Times,serif" font-size="14.00" fill="#000000">OO_descend_beta</text>
</a>
</g>
</g>
<!-- Descent_OO_descend_beta&#45;&gt;Descent_Descends -->
<g id="edge44" class="edge">
<title>Descent_OO_descend_beta&#45;&gt;Descent_Descends</title>
<path fill="none" stroke="#000000" d="M974.121,-87.805C974.121,-79.6026 974.121,-70.5174 974.121,-62.1839"/>
<polygon fill="#000000" stroke="#000000" points="977.6211,-62.1532 974.121,-52.1532 970.6211,-62.1533 977.6211,-62.1532"/>
</g>
<!-- Descent_OO_descend_inO -->
<g id="node37" class="node">
<title>Descent_OO_descend_inO</title>
<g id="a_node37"><a xlink:href="Descent.html#OO_descend_inO" xlink:title="OO_descend_inO">
<ellipse fill="#f070d1" stroke="#000000" cx="2041.121" cy="-114" rx="90.9845" ry="18"/>
<ellipse fill="none" stroke="#000000" cx="2041.121" cy="-114" rx="94.9842" ry="22"/>
<ellipse fill="none" stroke="#000000" cx="2041.121" cy="-114" rx="98.9839" ry="26"/>
<text text-anchor="middle" x="2041.121" y="-110.3" font-family="Times,serif" font-size="14.00" fill="#000000">OO_descend_inO</text>
</a>
</g>
</g>
<!-- Descent_OO_descend_inO&#45;&gt;Descent_Descends -->
<g id="edge45" class="edge">
<title>Descent_OO_descend_inO&#45;&gt;Descent_Descends</title>
<path fill="none" stroke="#000000" d="M1956.6198,-100.2465C1926.8226,-95.7896 1893.0464,-91.1807 1862.121,-88 1555.6643,-56.481 1187.6753,-41.296 1040.083,-36.1261"/>
<polygon fill="#000000" stroke="#000000" points="1039.9564,-32.6197 1029.8411,-35.7711 1039.7138,-39.6155 1039.9564,-32.6197"/>
</g>
<!-- Descent_OO_descend -->
<g id="node38" class="node">
<title>Descent_OO_descend</title>
<g id="a_node38"><a xlink:href="Descent.html#OO_descend" xlink:title="OO_descend">
<ellipse fill="#f070d1" stroke="#000000" cx="1775.121" cy="-114" rx="69.5832" ry="18"/>
<ellipse fill="none" stroke="#000000" cx="1775.121" cy="-114" rx="73.5854" ry="22"/>
<ellipse fill="none" stroke="#000000" cx="1775.121" cy="-114" rx="77.5877" ry="26"/>
<text text-anchor="middle" x="1775.121" y="-110.3" font-family="Times,serif" font-size="14.00" fill="#000000">OO_descend</text>
</a>
</g>
</g>
<!-- Descent_OO_descend&#45;&gt;Descent_Descends -->
<g id="edge46" class="edge">
<title>Descent_OO_descend&#45;&gt;Descent_Descends</title>
<path fill="none" stroke="#000000" d="M1705.8135,-102.0272C1676.1064,-97.1855 1640.9778,-91.8445 1609.121,-88 1401.4671,-62.9402 1154.2239,-45.4444 1039.0981,-38.0068"/>
<polygon fill="#000000" stroke="#000000" points="1039.2438,-34.509 1029.04,-37.3609 1038.7952,-41.4946 1039.2438,-34.509"/>
</g>
<!-- Descent_Descends_sind -->
<g id="node39" class="node">
<title>Descent_Descends_sind</title>
<g id="a_node39"><a xlink:href="Descent.html#Descends_sind" xlink:title="Descends_sind">
<ellipse fill="#f070d1" stroke="#000000" cx="196.121" cy="-114" rx="79.891" ry="18"/>
<ellipse fill="none" stroke="#000000" cx="196.121" cy="-114" rx="83.8884" ry="22"/>
<ellipse fill="none" stroke="#000000" cx="196.121" cy="-114" rx="87.8859" ry="26"/>
<text text-anchor="middle" x="196.121" y="-110.3" font-family="Times,serif" font-size="14.00" fill="#000000">Descends_sind</text>
</a>
</g>
</g>
<!-- Descent_Descends_sind&#45;&gt;Descent_Build_Descends -->
<g id="edge47" class="edge">
<title>Descent_Descends_sind&#45;&gt;Descent_Build_Descends</title>
<path fill="none" stroke="#000000" d="M196.121,-87.805C196.121,-79.6026 196.121,-70.5174 196.121,-62.1839"/>
<polygon fill="#000000" stroke="#000000" points="199.6211,-62.1532 196.121,-52.1532 192.6211,-62.1533 199.6211,-62.1532"/>
</g>
<!-- Descent_Descends_sind&#45;&gt;Descent_Descends -->
<g id="edge48" class="edge">
<title>Descent_Descends_sind&#45;&gt;Descent_Descends</title>
<path fill="none" stroke="#000000" d="M272.3654,-100.8703C300.2344,-96.3661 332.0497,-91.5667 361.121,-88 560.0979,-63.588 796.7213,-45.9511 908.9018,-38.2728"/>
<polygon fill="#000000" stroke="#000000" points="909.3001,-41.7538 919.0393,-37.5829 908.8247,-34.77 909.3001,-41.7538"/>
</g>
<!-- Descent_Descends_rec -->
<g id="node40" class="node">
<title>Descent_Descends_rec</title>
<g id="a_node40"><a xlink:href="Descent.html#Descends_rec" xlink:title="Descends_rec">
<ellipse fill="#f070d1" stroke="#000000" cx="254.121" cy="-202" rx="75.297" ry="18"/>
<ellipse fill="none" stroke="#000000" cx="254.121" cy="-202" rx="79.2919" ry="22"/>
<ellipse fill="none" stroke="#000000" cx="254.121" cy="-202" rx="83.2868" ry="26"/>
<text text-anchor="middle" x="254.121" y="-198.3" font-family="Times,serif" font-size="14.00" fill="#000000">Descends_rec</text>
</a>
</g>
</g>
<!-- Descent_Descends_rect -->
<g id="node42" class="node">
<title>Descent_Descends_rect</title>
<g id="a_node42"><a xlink:href="Descent.html#Descends_rect" xlink:title="Descends_rect">
<ellipse fill="#f070d1" stroke="#000000" cx="449.121" cy="-114" rx="79.0865" ry="18"/>
<text text-anchor="middle" x="449.121" y="-110.3" font-family="Times,serif" font-size="14.00" fill="#000000">Descends_rect</text>
</a>
</g>
</g>
<!-- Descent_Descends_rec&#45;&gt;Descent_Descends_rect -->
<g id="edge49" class="edge">
<title>Descent_Descends_rec&#45;&gt;Descent_Descends_rect</title>
<path fill="none" stroke="#000000" d="M301.8234,-180.4728C332.989,-166.4083 373.4338,-148.1563 404.0559,-134.3371"/>
<polygon fill="#000000" stroke="#000000" points="405.5477,-137.5038 413.2228,-130.2002 402.6683,-131.1234 405.5477,-137.5038"/>
</g>
<!-- Descent_Descends_ind -->
<g id="node41" class="node">
<title>Descent_Descends_ind</title>
<g id="a_node41"><a xlink:href="Descent.html#Descends_ind" xlink:title="Descends_ind">
<ellipse fill="#7fffd4" stroke="#000000" cx="696.121" cy="-114" rx="75.297" ry="18"/>
<ellipse fill="none" stroke="#000000" cx="696.121" cy="-114" rx="79.2919" ry="22"/>
<ellipse fill="none" stroke="#000000" cx="696.121" cy="-114" rx="83.2868" ry="26"/>
<text text-anchor="middle" x="696.121" y="-110.3" font-family="Times,serif" font-size="14.00" fill="#000000">Descends_ind</text>
</a>
</g>
</g>
<!-- Descent_Descends_ind&#45;&gt;Descent_Build_Descends -->
<g id="edge50" class="edge">
<title>Descent_Descends_ind&#45;&gt;Descent_Build_Descends</title>
<path fill="none" stroke="#000000" d="M622.115,-101.819C595.3419,-97.4333 564.8746,-92.4666 537.121,-88 447.1572,-73.5213 343.789,-57.1957 274.6621,-46.3227"/>
<polygon fill="#000000" stroke="#000000" points="275.1395,-42.8548 264.7172,-44.7589 274.0521,-49.7698 275.1395,-42.8548"/>
</g>
<!-- Descent_Descends_ind&#45;&gt;Descent_Descends -->
<g id="edge51" class="edge">
<title>Descent_Descends_ind&#45;&gt;Descent_Descends</title>
<path fill="none" stroke="#000000" d="M757.4735,-96.3446C807.0345,-82.0825 875.9866,-62.2401 922.6888,-48.8006"/>
<polygon fill="#000000" stroke="#000000" points="923.6598,-52.1633 932.3018,-46.0343 921.7239,-45.4363 923.6598,-52.1633"/>
</g>
<!-- Descent_Descends_rect&#45;&gt;Descent_Build_Descends -->
<g id="edge52" class="edge">
<title>Descent_Descends_rect&#45;&gt;Descent_Build_Descends</title>
<path fill="none" stroke="#000000" d="M402.7169,-99.3268C360.5869,-86.005 298.3214,-66.3163 253.1668,-52.0382"/>
<polygon fill="#000000" stroke="#000000" points="254.1081,-48.6651 243.5182,-48.9872 251.9976,-55.3394 254.1081,-48.6651"/>
</g>
<!-- Descent_Descends_rect&#45;&gt;Descent_Descends -->
<g id="edge53" class="edge">
<title>Descent_Descends_rect&#45;&gt;Descent_Descends</title>
<path fill="none" stroke="#000000" d="M512.4188,-103.0695C540.4883,-98.3031 573.9301,-92.7347 604.121,-88 712.5367,-70.9976 839.11,-52.903 912.5847,-42.5728"/>
<polygon fill="#000000" stroke="#000000" points="913.1763,-46.0241 922.5925,-41.1676 912.2029,-39.0921 913.1763,-46.0241"/>
</g>
</g>
</svg>
