<?xml version="1.0" encoding="UTF-8" standalone="no"?>
<!DOCTYPE svg PUBLIC "-//W3C//DTD SVG 1.1//EN"
 "http://www.w3.org/Graphics/SVG/1.1/DTD/svg11.dtd">
<!-- Generated by graphviz version 2.40.1 (20161225.0304)
 -->
<!-- Title: HoTT_WildCat_UnitCat Pages: 1 -->
<svg width="654pt" height="331pt"
 viewBox="0.00 0.00 654.00 331.00" xmlns="http://www.w3.org/2000/svg" xmlns:xlink="http://www.w3.org/1999/xlink">
<g id="graph0" class="graph" transform="scale(1 1) rotate(0) translate(4 327)">
<title>HoTT_WildCat_UnitCat</title>
<polygon fill="#ffffff" stroke="transparent" points="-4,4 -4,-327 650,-327 650,4 -4,4"/>
<g id="clust1" class="cluster">
<title>cluster_UnitCat</title>
<polygon fill="#ffffc3" stroke="#000000" points="15.3353,-8 15.3353,-315 630.6647,-315 630.6647,-8 15.3353,-8"/>
<text text-anchor="middle" x="52.3353" y="-299.8" font-family="Times,serif" font-size="14.00" fill="#000000">UnitCat</text>
</g>
<!-- UnitCat_is1cat_unit -->
<g id="node1" class="node">
<title>UnitCat_is1cat_unit</title>
<g id="a_node1"><a xlink:href="UnitCat.html#is1cat_unit" xlink:title="is1cat_unit">
<ellipse fill="#f070d1" stroke="#000000" cx="290.9377" cy="-258" rx="62.3011" ry="18"/>
<ellipse fill="none" stroke="#000000" cx="290.9377" cy="-258" rx="66.2951" ry="22"/>
<ellipse fill="none" stroke="#000000" cx="290.9377" cy="-258" rx="70.2891" ry="26"/>
<text text-anchor="middle" x="290.9377" y="-254.3" font-family="Times,serif" font-size="14.00" fill="#000000">is1cat_unit</text>
</a>
</g>
</g>
<!-- UnitCat_is2graph_unit -->
<g id="node2" class="node">
<title>UnitCat_is2graph_unit</title>
<g id="a_node2"><a xlink:href="UnitCat.html#is2graph_unit" xlink:title="is2graph_unit">
<ellipse fill="#f070d1" stroke="#000000" cx="174.9377" cy="-106" rx="75.2868" ry="18"/>
<text text-anchor="middle" x="174.9377" y="-102.3" font-family="Times,serif" font-size="14.00" fill="#000000">is2graph_unit</text>
</a>
</g>
</g>
<!-- UnitCat_is1cat_unit&#45;&gt;UnitCat_is2graph_unit -->
<g id="edge1" class="edge">
<title>UnitCat_is1cat_unit&#45;&gt;UnitCat_is2graph_unit</title>
<path fill="none" stroke="#000000" d="M271.7826,-232.9003C250.5552,-205.085 216.4799,-160.4347 194.9239,-132.1889"/>
<polygon fill="#000000" stroke="#000000" points="197.5132,-129.8125 188.6641,-123.9864 191.9486,-134.0593 197.5132,-129.8125"/>
</g>
<!-- UnitCat_is0gpd_unit -->
<g id="node3" class="node">
<title>UnitCat_is0gpd_unit</title>
<g id="a_node3"><a xlink:href="UnitCat.html#is0gpd_unit" xlink:title="is0gpd_unit">
<ellipse fill="#f070d1" stroke="#000000" cx="446.9377" cy="-178" rx="65.7887" ry="18"/>
<text text-anchor="middle" x="446.9377" y="-174.3" font-family="Times,serif" font-size="14.00" fill="#000000">is0gpd_unit</text>
</a>
</g>
</g>
<!-- UnitCat_is1cat_unit&#45;&gt;UnitCat_is0gpd_unit -->
<g id="edge2" class="edge">
<title>UnitCat_is1cat_unit&#45;&gt;UnitCat_is0gpd_unit</title>
<path fill="none" stroke="#000000" d="M332.3333,-236.7715C355.3403,-224.973 383.8423,-210.3566 406.6666,-198.6518"/>
<polygon fill="#000000" stroke="#000000" points="408.447,-201.6723 415.7481,-193.9947 405.2528,-195.4435 408.447,-201.6723"/>
</g>
<!-- UnitCat_isgraph_unit -->
<g id="node5" class="node">
<title>UnitCat_isgraph_unit</title>
<g id="a_node5"><a xlink:href="UnitCat.html#isgraph_unit" xlink:title="isgraph_unit">
<ellipse fill="#f070d1" stroke="#000000" cx="327.9377" cy="-34" rx="69.5877" ry="18"/>
<text text-anchor="middle" x="327.9377" y="-30.3" font-family="Times,serif" font-size="14.00" fill="#000000">isgraph_unit</text>
</a>
</g>
</g>
<!-- UnitCat_is2graph_unit&#45;&gt;UnitCat_isgraph_unit -->
<g id="edge3" class="edge">
<title>UnitCat_is2graph_unit&#45;&gt;UnitCat_isgraph_unit</title>
<path fill="none" stroke="#000000" d="M209.2739,-89.8418C231.6744,-79.3004 261.0893,-65.4581 285.0283,-54.1927"/>
<polygon fill="#000000" stroke="#000000" points="286.685,-57.2813 294.2428,-49.8564 283.7043,-50.9476 286.685,-57.2813"/>
</g>
<!-- UnitCat_is01cat_unit -->
<g id="node4" class="node">
<title>UnitCat_is01cat_unit</title>
<g id="a_node4"><a xlink:href="UnitCat.html#is01cat_unit" xlink:title="is01cat_unit">
<ellipse fill="#f070d1" stroke="#000000" cx="484.9377" cy="-106" rx="68.4888" ry="18"/>
<text text-anchor="middle" x="484.9377" y="-102.3" font-family="Times,serif" font-size="14.00" fill="#000000">is01cat_unit</text>
</a>
</g>
</g>
<!-- UnitCat_is0gpd_unit&#45;&gt;UnitCat_is01cat_unit -->
<g id="edge4" class="edge">
<title>UnitCat_is0gpd_unit&#45;&gt;UnitCat_is01cat_unit</title>
<path fill="none" stroke="#000000" d="M456.5267,-159.8314C460.8347,-151.6688 466.0063,-141.87 470.7496,-132.8827"/>
<polygon fill="#000000" stroke="#000000" points="473.9111,-134.3909 475.4834,-123.9134 467.7204,-131.1236 473.9111,-134.3909"/>
</g>
<!-- UnitCat_is01cat_unit&#45;&gt;UnitCat_isgraph_unit -->
<g id="edge5" class="edge">
<title>UnitCat_is01cat_unit&#45;&gt;UnitCat_isgraph_unit</title>
<path fill="none" stroke="#000000" d="M450.871,-90.3771C427.6,-79.705 396.5611,-65.4706 371.4945,-53.9751"/>
<polygon fill="#000000" stroke="#000000" points="372.7573,-50.7038 362.2086,-49.7166 369.8393,-57.0666 372.7573,-50.7038"/>
</g>
</g>
</svg>
