<?xml version="1.0" encoding="UTF-8" standalone="no"?>
<!DOCTYPE svg PUBLIC "-//W3C//DTD SVG 1.1//EN"
 "http://www.w3.org/Graphics/SVG/1.1/DTD/svg11.dtd">
<!-- Generated by graphviz version 2.40.1 (20161225.0304)
 -->
<!-- Title: HoTT_Pointed_Loops Pages: 1 -->
<svg width="2598pt" height="1303pt"
 viewBox="0.00 0.00 2598.00 1303.00" xmlns="http://www.w3.org/2000/svg" xmlns:xlink="http://www.w3.org/1999/xlink">
<g id="graph0" class="graph" transform="scale(1 1) rotate(0) translate(4 1299)">
<title>HoTT_Pointed_Loops</title>
<polygon fill="#ffffff" stroke="transparent" points="-4,4 -4,-1299 2594,-1299 2594,4 -4,4"/>
<g id="clust1" class="cluster">
<title>cluster_Loops</title>
<polygon fill="#ffffc3" stroke="#000000" points="8,-17.1808 8,-1277.8192 2582,-1277.8192 2582,-17.1808 8,-17.1808"/>
<text text-anchor="middle" x="37.5" y="-1262.6192" font-family="Times,serif" font-size="14.00" fill="#000000">Loops</text>
</g>
<!-- Loops_equiv_loops_ppforall -->
<g id="node1" class="node">
<title>Loops_equiv_loops_ppforall</title>
<g id="a_node1"><a xlink:href="Loops.html#equiv_loops_ppforall" xlink:title="equiv_loops_ppforall">
<ellipse fill="#f070d1" stroke="#000000" cx="2459" cy="-399.1808" rx="106.6748" ry="18"/>
<ellipse fill="none" stroke="#000000" cx="2459" cy="-399.1808" rx="110.678" ry="22"/>
<ellipse fill="none" stroke="#000000" cx="2459" cy="-399.1808" rx="114.6812" ry="26"/>
<text text-anchor="middle" x="2459" y="-395.4808" font-family="Times,serif" font-size="14.00" fill="#000000">equiv_loops_ppforall</text>
</a>
</g>
</g>
<!-- Loops_loops -->
<g id="node39" class="node">
<title>Loops_loops</title>
<g id="a_node39"><a xlink:href="Loops.html#loops" xlink:title="loops">
<ellipse fill="#f070d1" stroke="#000000" cx="1508" cy="-227.1808" rx="35.194" ry="18"/>
<text text-anchor="middle" x="1508" y="-223.4808" font-family="Times,serif" font-size="14.00" fill="#000000">loops</text>
</a>
</g>
</g>
<!-- Loops_equiv_loops_ppforall&#45;&gt;Loops_loops -->
<g id="edge1" class="edge">
<title>Loops_equiv_loops_ppforall&#45;&gt;Loops_loops</title>
<path fill="none" stroke="#000000" d="M2373.705,-381.7003C2359.1349,-378.7972 2344.1413,-375.8613 2330,-373.1808 2033.1898,-316.9184 1674.8126,-255.492 1551.8625,-234.6042"/>
<polygon fill="#000000" stroke="#000000" points="1552.1642,-231.1054 1541.7194,-232.8823 1550.9925,-238.0067 1552.1642,-231.1054"/>
</g>
<!-- Loops_is1natural_loops_inv -->
<g id="node2" class="node">
<title>Loops_is1natural_loops_inv</title>
<g id="a_node2"><a xlink:href="Loops.html#is1natural_loops_inv" xlink:title="is1natural_loops_inv">
<ellipse fill="#f070d1" stroke="#000000" cx="1314" cy="-588.1808" rx="106.6748" ry="18"/>
<ellipse fill="none" stroke="#000000" cx="1314" cy="-588.1808" rx="110.678" ry="22"/>
<ellipse fill="none" stroke="#000000" cx="1314" cy="-588.1808" rx="114.6812" ry="26"/>
<text text-anchor="middle" x="1314" y="-584.4808" font-family="Times,serif" font-size="14.00" fill="#000000">is1natural_loops_inv</text>
</a>
</g>
</g>
<!-- Loops_loops_inv -->
<g id="node19" class="node">
<title>Loops_loops_inv</title>
<g id="a_node19"><a xlink:href="Loops.html#loops_inv" xlink:title="loops_inv">
<ellipse fill="#f070d1" stroke="#000000" cx="1375" cy="-399.1808" rx="53.8905" ry="18"/>
<text text-anchor="middle" x="1375" y="-395.4808" font-family="Times,serif" font-size="14.00" fill="#000000">loops_inv</text>
</a>
</g>
</g>
<!-- Loops_is1natural_loops_inv&#45;&gt;Loops_loops_inv -->
<g id="edge2" class="edge">
<title>Loops_is1natural_loops_inv&#45;&gt;Loops_loops_inv</title>
<path fill="none" stroke="#000000" d="M1322.4818,-561.9011C1333.9232,-526.4514 1354.2161,-463.5767 1365.9449,-427.2369"/>
<polygon fill="#000000" stroke="#000000" points="1369.4103,-427.8945 1369.1511,-417.3029 1362.7487,-425.7444 1369.4103,-427.8945"/>
</g>
<!-- Loops_is0functor_loops -->
<g id="node33" class="node">
<title>Loops_is0functor_loops</title>
<g id="a_node33"><a xlink:href="Loops.html#is0functor_loops" xlink:title="is0functor_loops">
<ellipse fill="#f070d1" stroke="#000000" cx="1154" cy="-399.1808" rx="87.9851" ry="18"/>
<text text-anchor="middle" x="1154" y="-395.4808" font-family="Times,serif" font-size="14.00" fill="#000000">is0functor_loops</text>
</a>
</g>
</g>
<!-- Loops_is1natural_loops_inv&#45;&gt;Loops_is0functor_loops -->
<g id="edge3" class="edge">
<title>Loops_is1natural_loops_inv&#45;&gt;Loops_is0functor_loops</title>
<path fill="none" stroke="#000000" d="M1292.0882,-562.2974C1261.4544,-526.1113 1206.1659,-460.8017 1175.6652,-424.7727"/>
<polygon fill="#000000" stroke="#000000" points="1178.3242,-422.4967 1169.1916,-417.1258 1172.9815,-427.0196 1178.3242,-422.4967"/>
</g>
<!-- Loops_equiv_istrunc_contr_iterated_loops -->
<g id="node3" class="node">
<title>Loops_equiv_istrunc_contr_iterated_loops</title>
<g id="a_node3"><a xlink:href="Loops.html#equiv_istrunc_contr_iterated_loops" xlink:title="equiv_istrunc_contr_iterated_loops">
<ellipse fill="#f070d1" stroke="#000000" cx="1654" cy="-1155.1808" rx="174.6764" ry="18"/>
<ellipse fill="none" stroke="#000000" cx="1654" cy="-1155.1808" rx="178.6727" ry="22"/>
<ellipse fill="none" stroke="#000000" cx="1654" cy="-1155.1808" rx="182.6691" ry="26"/>
<text text-anchor="middle" x="1654" y="-1151.4808" font-family="Times,serif" font-size="14.00" fill="#000000">equiv_istrunc_contr_iterated_loops</text>
</a>
</g>
</g>
<!-- Loops_equiv_istrunc_istrunc_loops -->
<g id="node4" class="node">
<title>Loops_equiv_istrunc_istrunc_loops</title>
<g id="a_node4"><a xlink:href="Loops.html#equiv_istrunc_istrunc_loops" xlink:title="equiv_istrunc_istrunc_loops">
<ellipse fill="#f070d1" stroke="#000000" cx="2133" cy="-399.1808" rx="141.8751" ry="18"/>
<text text-anchor="middle" x="2133" y="-395.4808" font-family="Times,serif" font-size="14.00" fill="#000000">equiv_istrunc_istrunc_loops</text>
</a>
</g>
</g>
<!-- Loops_equiv_istrunc_contr_iterated_loops&#45;&gt;Loops_equiv_istrunc_istrunc_loops -->
<g id="edge4" class="edge">
<title>Loops_equiv_istrunc_contr_iterated_loops&#45;&gt;Loops_equiv_istrunc_istrunc_loops</title>
<path fill="none" stroke="#000000" d="M1700.3724,-1129.8664C1778.4626,-1087.7357 1941.7309,-1001.7809 2085,-940.1808 2248.3953,-869.9271 2359.0098,-948.8914 2461,-803.1808 2516.011,-724.588 2254.0254,-498.364 2163.1275,-423.5364"/>
<polygon fill="#000000" stroke="#000000" points="2165.0821,-420.6129 2155.1295,-416.9801 2160.6444,-426.0265 2165.0821,-420.6129"/>
</g>
<!-- Loops_unfold_iterated_loops_ -->
<g id="node17" class="node">
<title>Loops_unfold_iterated_loops_</title>
<g id="a_node17"><a xlink:href="Loops.html#unfold_iterated_loops'" xlink:title="unfold_iterated_loops&#39;">
<ellipse fill="#f070d1" stroke="#000000" cx="1571" cy="-966.1808" rx="113.9803" ry="18"/>
<text text-anchor="middle" x="1571" y="-962.4808" font-family="Times,serif" font-size="14.00" fill="#000000">unfold_iterated_loops&#39;</text>
</a>
</g>
</g>
<!-- Loops_equiv_istrunc_contr_iterated_loops&#45;&gt;Loops_unfold_iterated_loops_ -->
<g id="edge5" class="edge">
<title>Loops_equiv_istrunc_contr_iterated_loops&#45;&gt;Loops_unfold_iterated_loops_</title>
<path fill="none" stroke="#000000" d="M1642.4592,-1128.9011C1626.8245,-1093.2993 1599.0425,-1030.0365 1583.1161,-993.7704"/>
<polygon fill="#000000" stroke="#000000" points="1586.1839,-992.0516 1578.9584,-984.3029 1579.7747,-994.8662 1586.1839,-992.0516"/>
</g>
<!-- Loops_is1functor_iterated_loops -->
<g id="node27" class="node">
<title>Loops_is1functor_iterated_loops</title>
<g id="a_node27"><a xlink:href="Loops.html#is1functor_iterated_loops" xlink:title="is1functor_iterated_loops">
<ellipse fill="#f070d1" stroke="#000000" cx="1280" cy="-966.1808" rx="129.9769" ry="18"/>
<text text-anchor="middle" x="1280" y="-962.4808" font-family="Times,serif" font-size="14.00" fill="#000000">is1functor_iterated_loops</text>
</a>
</g>
</g>
<!-- Loops_equiv_istrunc_contr_iterated_loops&#45;&gt;Loops_is1functor_iterated_loops -->
<g id="edge6" class="edge">
<title>Loops_equiv_istrunc_contr_iterated_loops&#45;&gt;Loops_is1functor_iterated_loops</title>
<path fill="none" stroke="#000000" d="M1604.3357,-1130.083C1530.6472,-1092.8447 1393.5489,-1023.5624 1323.5577,-988.1925"/>
<polygon fill="#000000" stroke="#000000" points="1325.0516,-985.026 1314.5479,-983.6395 1321.8944,-991.2736 1325.0516,-985.026"/>
</g>
<!-- Loops_equiv_istrunc_istrunc_loops&#45;&gt;Loops_loops -->
<g id="edge7" class="edge">
<title>Loops_equiv_istrunc_istrunc_loops&#45;&gt;Loops_loops</title>
<path fill="none" stroke="#000000" d="M2073.3555,-382.7666C1947.2881,-348.0729 1656.5219,-268.054 1548.9694,-238.4556"/>
<polygon fill="#000000" stroke="#000000" points="1549.715,-235.0307 1539.1448,-235.7518 1547.8576,-241.7798 1549.715,-235.0307"/>
</g>
<!-- Loops_local_global_looping -->
<g id="node5" class="node">
<title>Loops_local_global_looping</title>
<g id="a_node5"><a xlink:href="Loops.html#local_global_looping" xlink:title="local_global_looping">
<ellipse fill="#f070d1" stroke="#000000" cx="2339" cy="-777.1808" rx="104.7716" ry="18"/>
<ellipse fill="none" stroke="#000000" cx="2339" cy="-777.1808" rx="108.7766" ry="22"/>
<ellipse fill="none" stroke="#000000" cx="2339" cy="-777.1808" rx="112.7816" ry="26"/>
<text text-anchor="middle" x="2339" y="-773.4808" font-family="Times,serif" font-size="14.00" fill="#000000">local_global_looping</text>
</a>
</g>
</g>
<!-- Loops_loops_type -->
<g id="node6" class="node">
<title>Loops_loops_type</title>
<g id="a_node6"><a xlink:href="Loops.html#loops_type" xlink:title="loops_type">
<ellipse fill="#f070d1" stroke="#000000" cx="1851" cy="-399.1808" rx="60.3893" ry="18"/>
<text text-anchor="middle" x="1851" y="-395.4808" font-family="Times,serif" font-size="14.00" fill="#000000">loops_type</text>
</a>
</g>
</g>
<!-- Loops_local_global_looping&#45;&gt;Loops_loops_type -->
<g id="edge8" class="edge">
<title>Loops_local_global_looping&#45;&gt;Loops_loops_type</title>
<path fill="none" stroke="#000000" d="M2306.603,-752.0864C2217.089,-682.7497 1967.3001,-489.2657 1880.8767,-422.3229"/>
<polygon fill="#000000" stroke="#000000" points="1882.8475,-419.4224 1872.7985,-416.0656 1878.5609,-424.9564 1882.8475,-419.4224"/>
</g>
<!-- Loops_loops_pproduct_commute -->
<g id="node9" class="node">
<title>Loops_loops_pproduct_commute</title>
<g id="a_node9"><a xlink:href="Loops.html#loops_pproduct_commute" xlink:title="loops_pproduct_commute">
<ellipse fill="#f070d1" stroke="#000000" cx="1891" cy="-588.1808" rx="130.777" ry="18"/>
<text text-anchor="middle" x="1891" y="-584.4808" font-family="Times,serif" font-size="14.00" fill="#000000">loops_pproduct_commute</text>
</a>
</g>
</g>
<!-- Loops_local_global_looping&#45;&gt;Loops_loops_pproduct_commute -->
<g id="edge9" class="edge">
<title>Loops_local_global_looping&#45;&gt;Loops_loops_pproduct_commute</title>
<path fill="none" stroke="#000000" d="M2284.5143,-754.1946C2196.8332,-717.2041 2025.7019,-645.0081 1940.98,-609.2661"/>
<polygon fill="#000000" stroke="#000000" points="1942.1534,-605.9624 1931.5793,-605.3002 1939.4325,-612.412 1942.1534,-605.9624"/>
</g>
<!-- Loops_is1functor_loops -->
<g id="node32" class="node">
<title>Loops_is1functor_loops</title>
<g id="a_node32"><a xlink:href="Loops.html#is1functor_loops" xlink:title="is1functor_loops">
<ellipse fill="#f070d1" stroke="#000000" cx="1094" cy="-588.1808" rx="87.9851" ry="18"/>
<text text-anchor="middle" x="1094" y="-584.4808" font-family="Times,serif" font-size="14.00" fill="#000000">is1functor_loops</text>
</a>
</g>
</g>
<!-- Loops_local_global_looping&#45;&gt;Loops_is1functor_loops -->
<g id="edge10" class="edge">
<title>Loops_local_global_looping&#45;&gt;Loops_is1functor_loops</title>
<path fill="none" stroke="#000000" d="M2258.1239,-759.0276C2244.4336,-756.2183 2230.337,-753.4879 2217,-751.1808 1763.2515,-672.687 1641.4407,-705.0119 1190,-614.1808 1178.2298,-611.8126 1165.7715,-608.8128 1153.867,-605.6992"/>
<polygon fill="#000000" stroke="#000000" points="1154.5895,-602.2695 1144.0248,-603.0684 1152.7818,-609.0321 1154.5895,-602.2695"/>
</g>
<!-- Loops_iterated_loops -->
<g id="node38" class="node">
<title>Loops_iterated_loops</title>
<g id="a_node38"><a xlink:href="Loops.html#iterated_loops" xlink:title="iterated_loops">
<ellipse fill="#f070d1" stroke="#000000" cx="1665" cy="-588.1808" rx="77.1866" ry="18"/>
<text text-anchor="middle" x="1665" y="-584.4808" font-family="Times,serif" font-size="14.00" fill="#000000">iterated_loops</text>
</a>
</g>
</g>
<!-- Loops_local_global_looping&#45;&gt;Loops_iterated_loops -->
<g id="edge11" class="edge">
<title>Loops_local_global_looping&#45;&gt;Loops_iterated_loops</title>
<path fill="none" stroke="#000000" d="M2265.5107,-757.3959C2154.0493,-727.2556 1935.6738,-667.6856 1751,-614.1808 1741.4491,-611.4136 1731.3219,-608.4123 1721.4977,-605.4651"/>
<polygon fill="#000000" stroke="#000000" points="1722.3916,-602.079 1711.8071,-602.5465 1720.3729,-608.7817 1722.3916,-602.079"/>
</g>
<!-- Loops_loops_type&#45;&gt;Loops_loops -->
<g id="edge12" class="edge">
<title>Loops_loops_type&#45;&gt;Loops_loops</title>
<path fill="none" stroke="#000000" d="M1819.9561,-383.6136C1755.9849,-351.5347 1609.8726,-278.2656 1542.8118,-244.6374"/>
<polygon fill="#000000" stroke="#000000" points="1544.0183,-241.3271 1533.5104,-239.9731 1540.8805,-247.5844 1544.0183,-241.3271"/>
</g>
<!-- Loops_loops_psigma_trunc -->
<g id="node7" class="node">
<title>Loops_loops_psigma_trunc</title>
<g id="a_node7"><a xlink:href="Loops.html#loops_psigma_trunc" xlink:title="loops_psigma_trunc">
<ellipse fill="#f070d1" stroke="#000000" cx="2133" cy="-1155.1808" rx="103.9822" ry="18"/>
<ellipse fill="none" stroke="#000000" cx="2133" cy="-1155.1808" rx="107.9819" ry="22"/>
<ellipse fill="none" stroke="#000000" cx="2133" cy="-1155.1808" rx="111.9815" ry="26"/>
<text text-anchor="middle" x="2133" y="-1151.4808" font-family="Times,serif" font-size="14.00" fill="#000000">loops_psigma_trunc</text>
</a>
</g>
</g>
<!-- Loops_loops_psigma_commute -->
<g id="node10" class="node">
<title>Loops_loops_psigma_commute</title>
<g id="a_node10"><a xlink:href="Loops.html#loops_psigma_commute" xlink:title="loops_psigma_commute">
<ellipse fill="#f070d1" stroke="#000000" cx="2216" cy="-966.1808" rx="122.3786" ry="18"/>
<text text-anchor="middle" x="2216" y="-962.4808" font-family="Times,serif" font-size="14.00" fill="#000000">loops_psigma_commute</text>
</a>
</g>
</g>
<!-- Loops_loops_psigma_trunc&#45;&gt;Loops_loops_psigma_commute -->
<g id="edge13" class="edge">
<title>Loops_loops_psigma_trunc&#45;&gt;Loops_loops_psigma_commute</title>
<path fill="none" stroke="#000000" d="M2144.3668,-1129.2974C2159.9504,-1093.8119 2187.8332,-1030.3197 2203.8279,-993.8979"/>
<polygon fill="#000000" stroke="#000000" points="2207.1876,-994.952 2208.0039,-984.3887 2200.7784,-992.1373 2207.1876,-994.952"/>
</g>
<!-- Loops_istrunc_pfam_loopsD -->
<g id="node11" class="node">
<title>Loops_istrunc_pfam_loopsD</title>
<g id="a_node11"><a xlink:href="Loops.html#istrunc_pfam_loopsD" xlink:title="istrunc_pfam_loopsD">
<ellipse fill="#f070d1" stroke="#000000" cx="2465" cy="-966.1808" rx="108.5808" ry="18"/>
<text text-anchor="middle" x="2465" y="-962.4808" font-family="Times,serif" font-size="14.00" fill="#000000">istrunc_pfam_loopsD</text>
</a>
</g>
</g>
<!-- Loops_loops_psigma_trunc&#45;&gt;Loops_istrunc_pfam_loopsD -->
<g id="edge14" class="edge">
<title>Loops_loops_psigma_trunc&#45;&gt;Loops_istrunc_pfam_loopsD</title>
<path fill="none" stroke="#000000" d="M2175.3853,-1131.0518C2240.0324,-1094.2497 2362.3844,-1024.5975 2425.3554,-988.7495"/>
<polygon fill="#000000" stroke="#000000" points="2427.2425,-991.7027 2434.2014,-983.7137 2423.7793,-985.6194 2427.2425,-991.7027"/>
</g>
<!-- Loops_loops_psigma_trunc&#45;&gt;Loops_unfold_iterated_loops_ -->
<g id="edge15" class="edge">
<title>Loops_loops_psigma_trunc&#45;&gt;Loops_unfold_iterated_loops_</title>
<path fill="none" stroke="#000000" d="M2069.3515,-1133.7758C1959.412,-1096.8033 1735.542,-1021.5161 1629.3723,-985.8113"/>
<polygon fill="#000000" stroke="#000000" points="1630.3741,-982.4557 1619.7801,-982.5854 1628.1428,-989.0905 1630.3741,-982.4557"/>
</g>
<!-- Loops_loops_psigma_trunc&#45;&gt;Loops_is1functor_iterated_loops -->
<g id="edge16" class="edge">
<title>Loops_loops_psigma_trunc&#45;&gt;Loops_is1functor_iterated_loops</title>
<path fill="none" stroke="#000000" d="M2051.9828,-1137.2297C1888.437,-1100.9927 1520.6795,-1019.5083 1358.9073,-983.6643"/>
<polygon fill="#000000" stroke="#000000" points="1359.5412,-980.22 1349.0208,-981.4738 1358.0268,-987.0542 1359.5412,-980.22"/>
</g>
<!-- Loops_iterated_loops_pproduct_commute -->
<g id="node8" class="node">
<title>Loops_iterated_loops_pproduct_commute</title>
<g id="a_node8"><a xlink:href="Loops.html#iterated_loops_pproduct_commute" xlink:title="iterated_loops_pproduct_commute">
<ellipse fill="#f070d1" stroke="#000000" cx="1771" cy="-777.1808" rx="172.7745" ry="18"/>
<ellipse fill="none" stroke="#000000" cx="1771" cy="-777.1808" rx="176.7719" ry="22"/>
<ellipse fill="none" stroke="#000000" cx="1771" cy="-777.1808" rx="180.7694" ry="26"/>
<text text-anchor="middle" x="1771" y="-773.4808" font-family="Times,serif" font-size="14.00" fill="#000000">iterated_loops_pproduct_commute</text>
</a>
</g>
</g>
<!-- Loops_iterated_loops_pproduct_commute&#45;&gt;Loops_loops_pproduct_commute -->
<g id="edge17" class="edge">
<title>Loops_iterated_loops_pproduct_commute&#45;&gt;Loops_loops_pproduct_commute</title>
<path fill="none" stroke="#000000" d="M1787.6855,-750.9011C1810.483,-714.995 1851.1446,-650.953 1874.0694,-614.8465"/>
<polygon fill="#000000" stroke="#000000" points="1877.0885,-616.6211 1879.4939,-606.3029 1871.179,-612.869 1877.0885,-616.6211"/>
</g>
<!-- Loops_iterated_loops_pproduct_commute&#45;&gt;Loops_is1functor_loops -->
<g id="edge18" class="edge">
<title>Loops_iterated_loops_pproduct_commute&#45;&gt;Loops_is1functor_loops</title>
<path fill="none" stroke="#000000" d="M1687.9865,-754.0057C1550.4434,-715.6074 1278.353,-639.6471 1156.0727,-605.5098"/>
<polygon fill="#000000" stroke="#000000" points="1156.6942,-602.0495 1146.1214,-602.7316 1154.8119,-608.7917 1156.6942,-602.0495"/>
</g>
<!-- Loops_iterated_loops_pproduct_commute&#45;&gt;Loops_iterated_loops -->
<g id="edge19" class="edge">
<title>Loops_iterated_loops_pproduct_commute&#45;&gt;Loops_iterated_loops</title>
<path fill="none" stroke="#000000" d="M1756.2612,-750.9011C1736.1564,-715.054 1700.3237,-651.1636 1680.0554,-615.0248"/>
<polygon fill="#000000" stroke="#000000" points="1682.9613,-613.051 1675.017,-606.0412 1676.856,-616.4752 1682.9613,-613.051"/>
</g>
<!-- Loops_loops_pproduct_commute&#45;&gt;Loops_loops -->
<g id="edge20" class="edge">
<title>Loops_loops_pproduct_commute&#45;&gt;Loops_loops</title>
<path fill="none" stroke="#000000" d="M1872.007,-570.2787C1808.4938,-510.4138 1603.517,-317.2111 1532.4965,-250.2701"/>
<polygon fill="#000000" stroke="#000000" points="1534.5755,-247.42 1524.8978,-243.1079 1529.7742,-252.5139 1534.5755,-247.42"/>
</g>
<!-- Loops_loopsD -->
<g id="node12" class="node">
<title>Loops_loopsD</title>
<g id="a_node12"><a xlink:href="Loops.html#loopsD" xlink:title="loopsD">
<ellipse fill="#f070d1" stroke="#000000" cx="2532" cy="-777.1808" rx="42.4939" ry="18"/>
<text text-anchor="middle" x="2532" y="-773.4808" font-family="Times,serif" font-size="14.00" fill="#000000">loopsD</text>
</a>
</g>
</g>
<!-- Loops_loops_psigma_commute&#45;&gt;Loops_loopsD -->
<g id="edge21" class="edge">
<title>Loops_loops_psigma_commute&#45;&gt;Loops_loopsD</title>
<path fill="none" stroke="#000000" d="M2245.4447,-948.5698C2304.4428,-913.283 2436.7795,-834.1323 2498.7721,-797.0544"/>
<polygon fill="#000000" stroke="#000000" points="2500.6055,-800.0362 2507.3911,-791.8994 2497.0124,-794.0287 2500.6055,-800.0362"/>
</g>
<!-- Loops_istrunc_pfam_loopsD&#45;&gt;Loops_loopsD -->
<g id="edge22" class="edge">
<title>Loops_istrunc_pfam_loopsD&#45;&gt;Loops_loopsD</title>
<path fill="none" stroke="#000000" d="M2471.4242,-948.0586C2483.2052,-914.8259 2508.3295,-843.9526 2522.2351,-804.7266"/>
<polygon fill="#000000" stroke="#000000" points="2525.5528,-805.8428 2525.5952,-795.248 2518.955,-803.5039 2525.5528,-805.8428"/>
</g>
<!-- Loops_loopsD&#45;&gt;Loops_loops -->
<g id="edge23" class="edge">
<title>Loops_loopsD&#45;&gt;Loops_loops</title>
<path fill="none" stroke="#000000" d="M2523.5606,-759.4835C2489.3028,-688.3681 2358.897,-424.7631 2284,-373.1808 2162.8577,-289.7488 1699.5125,-243.5994 1552.8161,-230.8548"/>
<polygon fill="#000000" stroke="#000000" points="1553.0733,-227.3641 1542.8103,-229.9949 1552.4738,-234.3384 1553.0733,-227.3641"/>
</g>
<!-- Loops_iterated_loops_prod -->
<g id="node13" class="node">
<title>Loops_iterated_loops_prod</title>
<g id="a_node13"><a xlink:href="Loops.html#iterated_loops_prod" xlink:title="iterated_loops_prod">
<ellipse fill="#f070d1" stroke="#000000" cx="1441" cy="-777.1808" rx="103.1933" ry="18"/>
<ellipse fill="none" stroke="#000000" cx="1441" cy="-777.1808" rx="107.1876" ry="22"/>
<ellipse fill="none" stroke="#000000" cx="1441" cy="-777.1808" rx="111.1819" ry="26"/>
<text text-anchor="middle" x="1441" y="-773.4808" font-family="Times,serif" font-size="14.00" fill="#000000">iterated_loops_prod</text>
</a>
</g>
</g>
<!-- Loops_loops_prod -->
<g id="node14" class="node">
<title>Loops_loops_prod</title>
<g id="a_node14"><a xlink:href="Loops.html#loops_prod" xlink:title="loops_prod">
<ellipse fill="#f070d1" stroke="#000000" cx="1508" cy="-588.1808" rx="61.99" ry="18"/>
<text text-anchor="middle" x="1508" y="-584.4808" font-family="Times,serif" font-size="14.00" fill="#000000">loops_prod</text>
</a>
</g>
</g>
<!-- Loops_iterated_loops_prod&#45;&gt;Loops_loops_prod -->
<g id="edge24" class="edge">
<title>Loops_iterated_loops_prod&#45;&gt;Loops_loops_prod</title>
<path fill="none" stroke="#000000" d="M1450.3161,-750.9011C1462.9368,-715.2993 1485.3633,-652.0365 1498.2195,-615.7704"/>
<polygon fill="#000000" stroke="#000000" points="1501.5333,-616.8976 1501.5758,-606.3029 1494.9356,-614.5587 1501.5333,-616.8976"/>
</g>
<!-- Loops_iterated_loops_prod&#45;&gt;Loops_is1functor_loops -->
<g id="edge25" class="edge">
<title>Loops_iterated_loops_prod&#45;&gt;Loops_is1functor_loops</title>
<path fill="none" stroke="#000000" d="M1397.0522,-753.2438C1329.1234,-716.2451 1199.6384,-645.7187 1134.1135,-610.0293"/>
<polygon fill="#000000" stroke="#000000" points="1135.7612,-606.9413 1125.3052,-605.2317 1132.4129,-613.0886 1135.7612,-606.9413"/>
</g>
<!-- Loops_iterated_loops_prod&#45;&gt;Loops_iterated_loops -->
<g id="edge26" class="edge">
<title>Loops_iterated_loops_prod&#45;&gt;Loops_iterated_loops</title>
<path fill="none" stroke="#000000" d="M1470.7455,-752.083C1514.0132,-715.5759 1593.7824,-648.2707 1636.3969,-612.3146"/>
<polygon fill="#000000" stroke="#000000" points="1638.7678,-614.8936 1644.1536,-605.7699 1634.2536,-609.5436 1638.7678,-614.8936"/>
</g>
<!-- Loops_loops_prod&#45;&gt;Loops_loops -->
<g id="edge27" class="edge">
<title>Loops_loops_prod&#45;&gt;Loops_loops</title>
<path fill="none" stroke="#000000" d="M1508,-569.7824C1508,-510.8796 1508,-326.6576 1508,-255.5641"/>
<polygon fill="#000000" stroke="#000000" points="1511.5001,-255.542 1508,-245.5421 1504.5001,-255.5421 1511.5001,-255.542"/>
</g>
<!-- Loops_pequiv_fmap_iterated_loops -->
<g id="node15" class="node">
<title>Loops_pequiv_fmap_iterated_loops</title>
<g id="a_node15"><a xlink:href="Loops.html#pequiv_fmap_iterated_loops" xlink:title="pequiv_fmap_iterated_loops">
<ellipse fill="#f070d1" stroke="#000000" cx="990" cy="-1155.1808" rx="141.8651" ry="18"/>
<ellipse fill="none" stroke="#000000" cx="990" cy="-1155.1808" rx="145.8701" ry="22"/>
<ellipse fill="none" stroke="#000000" cx="990" cy="-1155.1808" rx="149.8751" ry="26"/>
<text text-anchor="middle" x="990" y="-1151.4808" font-family="Times,serif" font-size="14.00" fill="#000000">pequiv_fmap_iterated_loops</text>
</a>
</g>
</g>
<!-- Loops_pequiv_fmap_iterated_loops&#45;&gt;Loops_is1functor_iterated_loops -->
<g id="edge28" class="edge">
<title>Loops_pequiv_fmap_iterated_loops&#45;&gt;Loops_is1functor_iterated_loops</title>
<path fill="none" stroke="#000000" d="M1028.8098,-1129.8875C1085.2436,-1093.1082 1189.1824,-1025.3688 1243.9931,-989.6473"/>
<polygon fill="#000000" stroke="#000000" points="1246.2068,-992.3823 1252.6737,-983.99 1242.3848,-986.5178 1246.2068,-992.3823"/>
</g>
<!-- Loops_unfold_iterated_fmap_loops -->
<g id="node16" class="node">
<title>Loops_unfold_iterated_fmap_loops</title>
<g id="a_node16"><a xlink:href="Loops.html#unfold_iterated_fmap_loops" xlink:title="unfold_iterated_fmap_loops">
<ellipse fill="#f070d1" stroke="#000000" cx="1305" cy="-1155.1808" rx="139.9627" ry="18"/>
<ellipse fill="none" stroke="#000000" cx="1305" cy="-1155.1808" rx="143.9691" ry="22"/>
<ellipse fill="none" stroke="#000000" cx="1305" cy="-1155.1808" rx="147.9756" ry="26"/>
<text text-anchor="middle" x="1305" y="-1151.4808" font-family="Times,serif" font-size="14.00" fill="#000000">unfold_iterated_fmap_loops</text>
</a>
</g>
</g>
<!-- Loops_unfold_iterated_fmap_loops&#45;&gt;Loops_unfold_iterated_loops_ -->
<g id="edge29" class="edge">
<title>Loops_unfold_iterated_fmap_loops&#45;&gt;Loops_unfold_iterated_loops_</title>
<path fill="none" stroke="#000000" d="M1340.5979,-1129.8875C1392.2546,-1093.1841 1487.3054,-1025.648 1537.6615,-989.8687"/>
<polygon fill="#000000" stroke="#000000" points="1539.8106,-992.6352 1545.9352,-983.99 1535.7561,-986.929 1539.8106,-992.6352"/>
</g>
<!-- Loops_is0functor_iterated_loops -->
<g id="node28" class="node">
<title>Loops_is0functor_iterated_loops</title>
<g id="a_node28"><a xlink:href="Loops.html#is0functor_iterated_loops" xlink:title="is0functor_iterated_loops">
<ellipse fill="#f070d1" stroke="#000000" cx="945" cy="-777.1808" rx="129.9769" ry="18"/>
<text text-anchor="middle" x="945" y="-773.4808" font-family="Times,serif" font-size="14.00" fill="#000000">is0functor_iterated_loops</text>
</a>
</g>
</g>
<!-- Loops_unfold_iterated_fmap_loops&#45;&gt;Loops_is0functor_iterated_loops -->
<g id="edge30" class="edge">
<title>Loops_unfold_iterated_fmap_loops&#45;&gt;Loops_is0functor_iterated_loops</title>
<path fill="none" stroke="#000000" d="M1271.9385,-1129.6048C1235.5491,-1099.9658 1177.3972,-1048.0004 1141,-992.1808 1127.4753,-971.439 1134.8883,-960.6808 1121,-940.1808 1081.6931,-882.1615 1018.0167,-829.9895 978.991,-801.046"/>
<polygon fill="#000000" stroke="#000000" points="980.7161,-797.9711 970.5806,-794.8851 976.5794,-803.6181 980.7161,-797.9711"/>
</g>
<!-- Loops_pequiv_fmap_loops -->
<g id="node18" class="node">
<title>Loops_pequiv_fmap_loops</title>
<g id="a_node18"><a xlink:href="Loops.html#pequiv_fmap_loops" xlink:title="pequiv_fmap_loops">
<ellipse fill="#f070d1" stroke="#000000" cx="1212" cy="-777.1808" rx="99.3824" ry="18"/>
<text text-anchor="middle" x="1212" y="-773.4808" font-family="Times,serif" font-size="14.00" fill="#000000">pequiv_fmap_loops</text>
</a>
</g>
</g>
<!-- Loops_unfold_iterated_loops_&#45;&gt;Loops_pequiv_fmap_loops -->
<g id="edge31" class="edge">
<title>Loops_unfold_iterated_loops_&#45;&gt;Loops_pequiv_fmap_loops</title>
<path fill="none" stroke="#000000" d="M1538.1894,-948.9072C1472.673,-914.4153 1325.7564,-837.0692 1253.5989,-799.081"/>
<polygon fill="#000000" stroke="#000000" points="1254.8251,-795.7712 1244.346,-794.2097 1251.5641,-801.9653 1254.8251,-795.7712"/>
</g>
<!-- Loops_unfold_iterated_loops_&#45;&gt;Loops_iterated_loops -->
<g id="edge32" class="edge">
<title>Loops_unfold_iterated_loops_&#45;&gt;Loops_iterated_loops</title>
<path fill="none" stroke="#000000" d="M1569.2741,-947.9461C1566.2739,-910.3764 1562.0896,-821.9361 1581,-751.1808 1594.7658,-699.6744 1626.4685,-645.8014 1646.7493,-614.7"/>
<polygon fill="#000000" stroke="#000000" points="1649.7887,-616.4493 1652.3931,-606.1796 1643.9529,-612.5837 1649.7887,-616.4493"/>
</g>
<!-- Loops_pequiv_fmap_loops&#45;&gt;Loops_is1functor_loops -->
<g id="edge33" class="edge">
<title>Loops_pequiv_fmap_loops&#45;&gt;Loops_is1functor_loops</title>
<path fill="none" stroke="#000000" d="M1200.6857,-759.0586C1179.805,-725.6142 1135.1236,-654.0483 1110.7324,-614.981"/>
<polygon fill="#000000" stroke="#000000" points="1113.545,-612.8769 1105.2801,-606.248 1107.6072,-616.5841 1113.545,-612.8769"/>
</g>
<!-- Loops_loops_inv&#45;&gt;Loops_loops -->
<g id="edge34" class="edge">
<title>Loops_loops_inv&#45;&gt;Loops_loops</title>
<path fill="none" stroke="#000000" d="M1388.4847,-381.7419C1412.1063,-351.1936 1461.0533,-287.8938 1488.412,-252.5126"/>
<polygon fill="#000000" stroke="#000000" points="1491.5256,-254.2077 1494.8739,-244.1558 1485.988,-249.9257 1491.5256,-254.2077"/>
</g>
<!-- Loops_equiv_loops_image -->
<g id="node20" class="node">
<title>Loops_equiv_loops_image</title>
<g id="a_node20"><a xlink:href="Loops.html#equiv_loops_image" xlink:title="equiv_loops_image">
<ellipse fill="#f070d1" stroke="#000000" cx="360" cy="-966.1808" rx="98.5985" ry="18"/>
<ellipse fill="none" stroke="#000000" cx="360" cy="-966.1808" rx="102.5907" ry="22"/>
<ellipse fill="none" stroke="#000000" cx="360" cy="-966.1808" rx="106.5829" ry="26"/>
<text text-anchor="middle" x="360" y="-962.4808" font-family="Times,serif" font-size="14.00" fill="#000000">equiv_loops_image</text>
</a>
</g>
</g>
<!-- Loops_equiv_loops_image_subproof -->
<g id="node21" class="node">
<title>Loops_equiv_loops_image_subproof</title>
<g id="a_node21"><a xlink:href="Loops.html#equiv_loops_image_subproof" xlink:title="equiv_loops_image_subproof">
<ellipse fill="#f070d1" stroke="#000000" cx="904" cy="-399.1808" rx="144.0747" ry="18"/>
<text text-anchor="middle" x="904" y="-395.4808" font-family="Times,serif" font-size="14.00" fill="#000000">equiv_loops_image_subproof</text>
</a>
</g>
</g>
<!-- Loops_equiv_loops_image&#45;&gt;Loops_equiv_loops_image_subproof -->
<g id="edge35" class="edge">
<title>Loops_equiv_loops_image&#45;&gt;Loops_equiv_loops_image_subproof</title>
<path fill="none" stroke="#000000" d="M336.9163,-940.6609C302.7942,-899.6757 246.2781,-817.0983 279,-751.1808 382.6551,-542.3698 668.9152,-450.7216 815.2959,-416.542"/>
<polygon fill="#000000" stroke="#000000" points="816.1979,-419.9261 825.1607,-414.2763 814.6309,-413.1037 816.1979,-419.9261"/>
</g>
<!-- Loops_isconnected_fmap_loops -->
<g id="node23" class="node">
<title>Loops_isconnected_fmap_loops</title>
<g id="a_node23"><a xlink:href="Loops.html#isconnected_fmap_loops" xlink:title="isconnected_fmap_loops">
<ellipse fill="#f070d1" stroke="#000000" cx="633" cy="-777.1808" rx="124.2781" ry="18"/>
<text text-anchor="middle" x="633" y="-773.4808" font-family="Times,serif" font-size="14.00" fill="#000000">isconnected_fmap_loops</text>
</a>
</g>
</g>
<!-- Loops_equiv_loops_image&#45;&gt;Loops_isconnected_fmap_loops -->
<g id="edge36" class="edge">
<title>Loops_equiv_loops_image&#45;&gt;Loops_isconnected_fmap_loops</title>
<path fill="none" stroke="#000000" d="M395.69,-941.4723C448.5646,-904.8668 547.036,-836.6943 598.9495,-800.7542"/>
<polygon fill="#000000" stroke="#000000" points="601.2443,-803.4224 607.474,-794.8526 597.2598,-797.6671 601.2443,-803.4224"/>
</g>
<!-- Loops_istrunc_fmap_loops -->
<g id="node24" class="node">
<title>Loops_istrunc_fmap_loops</title>
<g id="a_node24"><a xlink:href="Loops.html#istrunc_fmap_loops" xlink:title="istrunc_fmap_loops">
<ellipse fill="#f070d1" stroke="#000000" cx="389" cy="-777.1808" rx="101.2821" ry="18"/>
<text text-anchor="middle" x="389" y="-773.4808" font-family="Times,serif" font-size="14.00" fill="#000000">istrunc_fmap_loops</text>
</a>
</g>
</g>
<!-- Loops_equiv_loops_image&#45;&gt;Loops_istrunc_fmap_loops -->
<g id="edge37" class="edge">
<title>Loops_equiv_loops_image&#45;&gt;Loops_istrunc_fmap_loops</title>
<path fill="none" stroke="#000000" d="M364.0323,-939.9011C369.4717,-904.4514 379.1191,-841.5767 384.6951,-805.2369"/>
<polygon fill="#000000" stroke="#000000" points="388.1621,-805.7181 386.2194,-795.3029 381.2431,-804.6563 388.1621,-805.7181"/>
</g>
<!-- Loops_equiv_loops_image&#45;&gt;Loops_is1functor_loops -->
<g id="edge38" class="edge">
<title>Loops_equiv_loops_image&#45;&gt;Loops_is1functor_loops</title>
<path fill="none" stroke="#000000" d="M437.6047,-948.2456C524.2052,-925.3975 665.3558,-879.4435 766,-803.1808 789.2395,-785.5711 783.9844,-770.2984 806,-751.1808 880.5302,-686.461 984.7405,-635.1945 1045.2234,-608.4741"/>
<polygon fill="#000000" stroke="#000000" points="1046.784,-611.6117 1054.5438,-604.3981 1043.9792,-605.1982 1046.784,-611.6117"/>
</g>
<!-- Loops_equiv_loops_image_subproof&#45;&gt;Loops_loops -->
<g id="edge39" class="edge">
<title>Loops_equiv_loops_image_subproof&#45;&gt;Loops_loops</title>
<path fill="none" stroke="#000000" d="M961.9141,-382.6887C1083.5011,-348.0646 1362.748,-268.5439 1467.4026,-238.7416"/>
<polygon fill="#000000" stroke="#000000" points="1468.6054,-242.0383 1477.2645,-235.9333 1466.6882,-235.306 1468.6054,-242.0383"/>
</g>
<!-- Loops_isconnected_iterated_fmap_loops -->
<g id="node22" class="node">
<title>Loops_isconnected_iterated_fmap_loops</title>
<g id="a_node22"><a xlink:href="Loops.html#isconnected_iterated_fmap_loops" xlink:title="isconnected_iterated_fmap_loops">
<ellipse fill="#f070d1" stroke="#000000" cx="659" cy="-966.1808" rx="166.2758" ry="18"/>
<ellipse fill="none" stroke="#000000" cx="659" cy="-966.1808" rx="170.2732" ry="22"/>
<ellipse fill="none" stroke="#000000" cx="659" cy="-966.1808" rx="174.2705" ry="26"/>
<text text-anchor="middle" x="659" y="-962.4808" font-family="Times,serif" font-size="14.00" fill="#000000">isconnected_iterated_fmap_loops</text>
</a>
</g>
</g>
<!-- Loops_isconnected_iterated_fmap_loops&#45;&gt;Loops_isconnected_fmap_loops -->
<g id="edge40" class="edge">
<title>Loops_isconnected_iterated_fmap_loops&#45;&gt;Loops_isconnected_fmap_loops</title>
<path fill="none" stroke="#000000" d="M655.3848,-939.9011C650.5081,-904.4514 641.8587,-841.5767 636.8596,-805.2369"/>
<polygon fill="#000000" stroke="#000000" points="640.3232,-804.7326 635.493,-795.3029 633.3886,-805.6866 640.3232,-804.7326"/>
</g>
<!-- Loops_isconnected_iterated_fmap_loops&#45;&gt;Loops_is0functor_iterated_loops -->
<g id="edge41" class="edge">
<title>Loops_isconnected_iterated_fmap_loops&#45;&gt;Loops_is0functor_iterated_loops</title>
<path fill="none" stroke="#000000" d="M697.5712,-940.6914C753.3219,-903.8492 855.6349,-836.2367 909.572,-800.593"/>
<polygon fill="#000000" stroke="#000000" points="911.7007,-803.3815 918.1139,-794.9481 907.8414,-797.5415 911.7007,-803.3815"/>
</g>
<!-- Loops_hfiber_fmap_loops -->
<g id="node25" class="node">
<title>Loops_hfiber_fmap_loops</title>
<g id="a_node25"><a xlink:href="Loops.html#hfiber_fmap_loops" xlink:title="hfiber_fmap_loops">
<ellipse fill="#f070d1" stroke="#000000" cx="633" cy="-588.1808" rx="96.3833" ry="18"/>
<text text-anchor="middle" x="633" y="-584.4808" font-family="Times,serif" font-size="14.00" fill="#000000">hfiber_fmap_loops</text>
</a>
</g>
</g>
<!-- Loops_isconnected_fmap_loops&#45;&gt;Loops_hfiber_fmap_loops -->
<g id="edge42" class="edge">
<title>Loops_isconnected_fmap_loops&#45;&gt;Loops_hfiber_fmap_loops</title>
<path fill="none" stroke="#000000" d="M633,-759.0586C633,-726.0376 633,-655.854 633,-616.48"/>
<polygon fill="#000000" stroke="#000000" points="636.5001,-616.248 633,-606.248 629.5001,-616.248 636.5001,-616.248"/>
</g>
<!-- Loops_istrunc_fmap_loops&#45;&gt;Loops_hfiber_fmap_loops -->
<g id="edge43" class="edge">
<title>Loops_istrunc_fmap_loops&#45;&gt;Loops_hfiber_fmap_loops</title>
<path fill="none" stroke="#000000" d="M411.9549,-759.4001C456.0283,-725.2613 552.5219,-650.5183 602.1588,-612.07"/>
<polygon fill="#000000" stroke="#000000" points="604.5214,-614.6672 610.2838,-605.7765 600.2348,-609.1332 604.5214,-614.6672"/>
</g>
<!-- Loops_hfiber_fmap_loops&#45;&gt;Loops_is0functor_loops -->
<g id="edge44" class="edge">
<title>Loops_hfiber_fmap_loops&#45;&gt;Loops_is0functor_loops</title>
<path fill="none" stroke="#000000" d="M677.4202,-572.0667C773.1333,-537.3455 998.4613,-455.6046 1101.2376,-418.3211"/>
<polygon fill="#000000" stroke="#000000" points="1102.5857,-421.5553 1110.7926,-414.8548 1100.1985,-414.9749 1102.5857,-421.5553"/>
</g>
<!-- Loops_fmap_iterated_loops_pp -->
<g id="node26" class="node">
<title>Loops_fmap_iterated_loops_pp</title>
<g id="a_node26"><a xlink:href="Loops.html#fmap_iterated_loops_pp" xlink:title="fmap_iterated_loops_pp">
<ellipse fill="#f070d1" stroke="#000000" cx="982" cy="-966.1808" rx="122.367" ry="18"/>
<ellipse fill="none" stroke="#000000" cx="982" cy="-966.1808" rx="126.3728" ry="22"/>
<ellipse fill="none" stroke="#000000" cx="982" cy="-966.1808" rx="130.3786" ry="26"/>
<text text-anchor="middle" x="982" y="-962.4808" font-family="Times,serif" font-size="14.00" fill="#000000">fmap_iterated_loops_pp</text>
</a>
</g>
</g>
<!-- Loops_fmap_iterated_loops_pp&#45;&gt;Loops_is0functor_iterated_loops -->
<g id="edge45" class="edge">
<title>Loops_fmap_iterated_loops_pp&#45;&gt;Loops_is0functor_iterated_loops</title>
<path fill="none" stroke="#000000" d="M976.8553,-939.9011C969.9154,-904.4514 957.6066,-841.5767 950.4925,-805.2369"/>
<polygon fill="#000000" stroke="#000000" points="953.9038,-804.4441 948.5477,-795.3029 947.0342,-805.789 953.9038,-804.4441"/>
</g>
<!-- Loops_fmap_loops_pp -->
<g id="node31" class="node">
<title>Loops_fmap_loops_pp</title>
<g id="a_node31"><a xlink:href="Loops.html#fmap_loops_pp" xlink:title="fmap_loops_pp">
<ellipse fill="#f070d1" stroke="#000000" cx="858" cy="-588.1808" rx="79.8859" ry="18"/>
<text text-anchor="middle" x="858" y="-584.4808" font-family="Times,serif" font-size="14.00" fill="#000000">fmap_loops_pp</text>
</a>
</g>
</g>
<!-- Loops_fmap_iterated_loops_pp&#45;&gt;Loops_fmap_loops_pp -->
<g id="edge46" class="edge">
<title>Loops_fmap_iterated_loops_pp&#45;&gt;Loops_fmap_loops_pp</title>
<path fill="none" stroke="#000000" d="M939.1623,-941.397C896.3139,-913.8578 833.0086,-865.0066 806,-803.1808 777.8441,-738.7286 816.5902,-656.454 840.9228,-614.8467"/>
<polygon fill="#000000" stroke="#000000" points="844.0103,-616.5038 846.1612,-606.1296 838.0103,-612.8982 844.0103,-616.5038"/>
</g>
<!-- Loops_is1functor_iterated_loops&#45;&gt;Loops_is0functor_iterated_loops -->
<g id="edge47" class="edge">
<title>Loops_is1functor_iterated_loops&#45;&gt;Loops_is0functor_iterated_loops</title>
<path fill="none" stroke="#000000" d="M1248.7848,-948.5698C1187.8177,-914.1734 1052.9767,-838.099 985.341,-799.9403"/>
<polygon fill="#000000" stroke="#000000" points="986.6873,-796.6813 976.258,-794.8159 983.2477,-802.778 986.6873,-796.6813"/>
</g>
<!-- Loops_is1functor_iterated_loops&#45;&gt;Loops_is1functor_loops -->
<g id="edge48" class="edge">
<title>Loops_is1functor_iterated_loops&#45;&gt;Loops_is1functor_loops</title>
<path fill="none" stroke="#000000" d="M1249.2916,-948.5101C1207.7206,-922.6541 1135.1588,-870.2161 1104,-803.1808 1075.3235,-741.4859 1082.3789,-658.7954 1088.8455,-616.1807"/>
<polygon fill="#000000" stroke="#000000" points="1092.3105,-616.6781 1090.4548,-606.247 1085.4006,-615.5586 1092.3105,-616.6781"/>
</g>
<!-- Loops_is0functor_iterated_loops&#45;&gt;Loops_is0functor_loops -->
<g id="edge49" class="edge">
<title>Loops_is0functor_iterated_loops&#45;&gt;Loops_is0functor_loops</title>
<path fill="none" stroke="#000000" d="M946.1882,-759.0464C949.3715,-720.5335 960.5064,-628.6691 997,-562.1808 1028.766,-504.3057 1086.4697,-452.1822 1122.3767,-423.1934"/>
<polygon fill="#000000" stroke="#000000" points="1124.9214,-425.6414 1130.5677,-416.6764 1120.5632,-420.1636 1124.9214,-425.6414"/>
</g>
<!-- Loops_is0functor_iterated_loops&#45;&gt;Loops_iterated_loops -->
<g id="edge50" class="edge">
<title>Loops_is0functor_iterated_loops&#45;&gt;Loops_iterated_loops</title>
<path fill="none" stroke="#000000" d="M1009.5849,-761.5259C1124.4986,-733.4605 1371.8624,-672.0921 1579,-614.1808 1588.5765,-611.5034 1598.7165,-608.5471 1608.5456,-605.6169"/>
<polygon fill="#000000" stroke="#000000" points="1609.6674,-608.9345 1618.2386,-602.7067 1607.6544,-602.2302 1609.6674,-608.9345"/>
</g>
<!-- Loops_fmap_loops_pconst -->
<g id="node29" class="node">
<title>Loops_fmap_loops_pconst</title>
<g id="a_node29"><a xlink:href="Loops.html#fmap_loops_pconst" xlink:title="fmap_loops_pconst">
<ellipse fill="#f070d1" stroke="#000000" cx="128" cy="-966.1808" rx="99.3868" ry="18"/>
<ellipse fill="none" stroke="#000000" cx="128" cy="-966.1808" rx="103.3846" ry="22"/>
<ellipse fill="none" stroke="#000000" cx="128" cy="-966.1808" rx="107.3824" ry="26"/>
<text text-anchor="middle" x="128" y="-962.4808" font-family="Times,serif" font-size="14.00" fill="#000000">fmap_loops_pconst</text>
</a>
</g>
</g>
<!-- Loops_ispointedfunctor_loops -->
<g id="node30" class="node">
<title>Loops_ispointedfunctor_loops</title>
<g id="a_node30"><a xlink:href="Loops.html#ispointedfunctor_loops" xlink:title="ispointedfunctor_loops">
<ellipse fill="#f070d1" stroke="#000000" cx="133" cy="-777.1808" rx="116.9792" ry="18"/>
<text text-anchor="middle" x="133" y="-773.4808" font-family="Times,serif" font-size="14.00" fill="#000000">ispointedfunctor_loops</text>
</a>
</g>
</g>
<!-- Loops_fmap_loops_pconst&#45;&gt;Loops_ispointedfunctor_loops -->
<g id="edge51" class="edge">
<title>Loops_fmap_loops_pconst&#45;&gt;Loops_ispointedfunctor_loops</title>
<path fill="none" stroke="#000000" d="M128.6952,-939.9011C129.629,-904.6036 131.2821,-842.1159 132.2454,-805.7062"/>
<polygon fill="#000000" stroke="#000000" points="135.7548,-805.392 132.5206,-795.3029 128.7573,-805.2068 135.7548,-805.392"/>
</g>
<!-- Loops_ispointedfunctor_loops&#45;&gt;Loops_is1functor_loops -->
<g id="edge52" class="edge">
<title>Loops_ispointedfunctor_loops&#45;&gt;Loops_is1functor_loops</title>
<path fill="none" stroke="#000000" d="M205.2312,-762.975C383.2346,-727.9671 841.4882,-637.8423 1020.6547,-602.6056"/>
<polygon fill="#000000" stroke="#000000" points="1021.3768,-606.0307 1030.5134,-600.6667 1020.0259,-599.1623 1021.3768,-606.0307"/>
</g>
<!-- Loops_pequiv_loops_punit -->
<g id="node34" class="node">
<title>Loops_pequiv_loops_punit</title>
<g id="a_node34"><a xlink:href="Loops.html#pequiv_loops_punit" xlink:title="pequiv_loops_punit">
<ellipse fill="#f070d1" stroke="#000000" cx="141" cy="-588.1808" rx="100.9827" ry="18"/>
<text text-anchor="middle" x="141" y="-584.4808" font-family="Times,serif" font-size="14.00" fill="#000000">pequiv_loops_punit</text>
</a>
</g>
</g>
<!-- Loops_ispointedfunctor_loops&#45;&gt;Loops_pequiv_loops_punit -->
<g id="edge53" class="edge">
<title>Loops_ispointedfunctor_loops&#45;&gt;Loops_pequiv_loops_punit</title>
<path fill="none" stroke="#000000" d="M133.7671,-759.0586C135.1648,-726.0376 138.1355,-655.854 139.8021,-616.48"/>
<polygon fill="#000000" stroke="#000000" points="143.3091,-616.3871 140.2352,-606.248 136.3154,-616.091 143.3091,-616.3871"/>
</g>
<!-- Loops_fmap_loops_pp&#45;&gt;Loops_is0functor_loops -->
<g id="edge54" class="edge">
<title>Loops_fmap_loops_pp&#45;&gt;Loops_is0functor_loops</title>
<path fill="none" stroke="#000000" d="M884.7901,-571.0749C938.2581,-536.9349 1058.22,-460.3376 1118.2958,-421.9784"/>
<polygon fill="#000000" stroke="#000000" points="1120.5124,-424.7157 1127.0572,-416.3841 1116.7452,-418.8159 1120.5124,-424.7157"/>
</g>
<!-- Loops_is1functor_loops&#45;&gt;Loops_is0functor_loops -->
<g id="edge55" class="edge">
<title>Loops_is1functor_loops&#45;&gt;Loops_is0functor_loops</title>
<path fill="none" stroke="#000000" d="M1099.7531,-570.0586C1110.2807,-536.8964 1132.7071,-466.2534 1145.1758,-426.9769"/>
<polygon fill="#000000" stroke="#000000" points="1148.5744,-427.8383 1148.2644,-417.248 1141.9026,-425.7202 1148.5744,-427.8383"/>
</g>
<!-- Loops_is0functor_loops&#45;&gt;Loops_loops -->
<g id="edge56" class="edge">
<title>Loops_is0functor_loops&#45;&gt;Loops_loops</title>
<path fill="none" stroke="#000000" d="M1188.2647,-382.5324C1255.7134,-349.7607 1405.0429,-277.2051 1473.0457,-244.1642"/>
<polygon fill="#000000" stroke="#000000" points="1474.6195,-247.2909 1482.0844,-239.7725 1471.5603,-240.9947 1474.6195,-247.2909"/>
</g>
<!-- Loops_pequiv_loops_punit&#45;&gt;Loops_loops -->
<g id="edge57" class="edge">
<title>Loops_pequiv_loops_punit&#45;&gt;Loops_loops</title>
<path fill="none" stroke="#000000" d="M151.745,-570.0972C178.2323,-527.3635 251.2912,-420.2082 344,-373.1808 545.6617,-270.886 1273.2391,-236.2048 1462.66,-228.8055"/>
<polygon fill="#000000" stroke="#000000" points="1462.9609,-232.2966 1472.819,-228.4149 1462.6919,-225.3018 1462.9609,-232.2966"/>
</g>
<!-- Loops_isconnected_loops -->
<g id="node35" class="node">
<title>Loops_isconnected_loops</title>
<g id="a_node35"><a xlink:href="Loops.html#isconnected_loops" xlink:title="isconnected_loops">
<ellipse fill="#f070d1" stroke="#000000" cx="638" cy="-399.1808" rx="96.3686" ry="18"/>
<ellipse fill="none" stroke="#000000" cx="638" cy="-399.1808" rx="100.3759" ry="22"/>
<ellipse fill="none" stroke="#000000" cx="638" cy="-399.1808" rx="104.3833" ry="26"/>
<text text-anchor="middle" x="638" y="-395.4808" font-family="Times,serif" font-size="14.00" fill="#000000">isconnected_loops</text>
</a>
</g>
</g>
<!-- Loops_isconnected_loops&#45;&gt;Loops_loops -->
<g id="edge58" class="edge">
<title>Loops_isconnected_loops&#45;&gt;Loops_loops</title>
<path fill="none" stroke="#000000" d="M713.8975,-381.327C726.2813,-378.5263 738.9858,-375.7206 751,-373.1808 1021.7546,-315.9412 1348.9529,-255.9245 1464.8056,-234.9543"/>
<polygon fill="#000000" stroke="#000000" points="1465.4927,-238.3869 1474.7104,-233.1635 1464.2472,-231.4986 1465.4927,-238.3869"/>
</g>
<!-- Loops_istrunc_loops -->
<g id="node36" class="node">
<title>Loops_istrunc_loops</title>
<g id="a_node36"><a xlink:href="Loops.html#istrunc_loops" xlink:title="istrunc_loops">
<ellipse fill="#f070d1" stroke="#000000" cx="434" cy="-399.1808" rx="73.3926" ry="18"/>
<ellipse fill="none" stroke="#000000" cx="434" cy="-399.1808" rx="77.3898" ry="22"/>
<ellipse fill="none" stroke="#000000" cx="434" cy="-399.1808" rx="81.387" ry="26"/>
<text text-anchor="middle" x="434" y="-395.4808" font-family="Times,serif" font-size="14.00" fill="#000000">istrunc_loops</text>
</a>
</g>
</g>
<!-- Loops_istrunc_loops&#45;&gt;Loops_loops -->
<g id="edge59" class="edge">
<title>Loops_istrunc_loops&#45;&gt;Loops_loops</title>
<path fill="none" stroke="#000000" d="M492.9466,-381.1262C503.5565,-378.2239 514.561,-375.4371 525,-373.1808 882.8843,-295.8247 1322.9443,-246.3888 1462.9882,-231.7428"/>
<polygon fill="#000000" stroke="#000000" points="1463.7315,-235.1845 1473.3159,-230.6691 1463.0076,-228.2221 1463.7315,-235.1845"/>
</g>
<!-- Loops_unfold_iterated_loops -->
<g id="node37" class="node">
<title>Loops_unfold_iterated_loops</title>
<g id="a_node37"><a xlink:href="Loops.html#unfold_iterated_loops" xlink:title="unfold_iterated_loops">
<ellipse fill="#f070d1" stroke="#000000" cx="2089" cy="-777.1808" rx="111.271" ry="18"/>
<ellipse fill="none" stroke="#000000" cx="2089" cy="-777.1808" rx="115.2757" ry="22"/>
<ellipse fill="none" stroke="#000000" cx="2089" cy="-777.1808" rx="119.2804" ry="26"/>
<text text-anchor="middle" x="2089" y="-773.4808" font-family="Times,serif" font-size="14.00" fill="#000000">unfold_iterated_loops</text>
</a>
</g>
</g>
<!-- Loops_unfold_iterated_loops&#45;&gt;Loops_iterated_loops -->
<g id="edge60" class="edge">
<title>Loops_unfold_iterated_loops&#45;&gt;Loops_iterated_loops</title>
<path fill="none" stroke="#000000" d="M2036.584,-753.8161C1952.5908,-716.3757 1789.2715,-643.5754 1710.1394,-608.3019"/>
<polygon fill="#000000" stroke="#000000" points="1711.4762,-605.0658 1700.9175,-604.1912 1708.6262,-611.4594 1711.4762,-605.0658"/>
</g>
<!-- Loops_iterated_loops&#45;&gt;Loops_loops -->
<g id="edge61" class="edge">
<title>Loops_iterated_loops&#45;&gt;Loops_loops</title>
<path fill="none" stroke="#000000" d="M1656.9985,-569.7824C1631.2693,-510.6217 1550.5602,-325.042 1519.9407,-254.6368"/>
<polygon fill="#000000" stroke="#000000" points="1522.9969,-252.8881 1515.7991,-245.1137 1516.5777,-255.6798 1522.9969,-252.8881"/>
</g>
<!-- Loops_ispointed_loops -->
<g id="node40" class="node">
<title>Loops_ispointed_loops</title>
<g id="a_node40"><a xlink:href="Loops.html#ispointed_loops" xlink:title="ispointed_loops">
<ellipse fill="#f070d1" stroke="#000000" cx="1508" cy="-73.1808" rx="83.3857" ry="18"/>
<text text-anchor="middle" x="1508" y="-69.4808" font-family="Times,serif" font-size="14.00" fill="#000000">ispointed_loops</text>
</a>
</g>
</g>
<!-- Loops_loops&#45;&gt;Loops_ispointed_loops -->
<g id="edge62" class="edge">
<title>Loops_loops&#45;&gt;Loops_ispointed_loops</title>
<path fill="none" stroke="#000000" d="M1508,-208.9102C1508,-182.3975 1508,-133.0139 1508,-101.6878"/>
<polygon fill="#000000" stroke="#000000" points="1511.5001,-101.4275 1508,-91.4276 1504.5001,-101.4276 1511.5001,-101.4275"/>
</g>
</g>
</svg>
