<?xml version="1.0" encoding="UTF-8" standalone="no"?>
<!DOCTYPE svg PUBLIC "-//W3C//DTD SVG 1.1//EN"
 "http://www.w3.org/Graphics/SVG/1.1/DTD/svg11.dtd">
<!-- Generated by graphviz version 2.40.1 (20161225.0304)
 -->
<!-- Title: HoTT_Sets_Hartogs Pages: 1 -->
<svg width="997pt" height="503pt"
 viewBox="0.00 0.00 997.00 502.50" xmlns="http://www.w3.org/2000/svg" xmlns:xlink="http://www.w3.org/1999/xlink">
<g id="graph0" class="graph" transform="scale(1 1) rotate(0) translate(4 498.5)">
<title>HoTT_Sets_Hartogs</title>
<polygon fill="#ffffff" stroke="transparent" points="-4,4 -4,-498.5 993,-498.5 993,4 -4,4"/>
<g id="clust1" class="cluster">
<title>cluster_Hartogs</title>
<polygon fill="#ffffc3" stroke="#000000" points="8,-8.4711 8,-486.0289 981,-486.0289 981,-8.4711 8,-8.4711"/>
<text text-anchor="middle" x="45.5" y="-470.8289" font-family="Times,serif" font-size="14.00" fill="#000000">Hartogs</text>
</g>
<!-- Hartogs_hartogs_number_no_injection -->
<g id="node1" class="node">
<title>Hartogs_hartogs_number_no_injection</title>
<g id="a_node1"><a xlink:href="Hartogs.html#hartogs_number_no_injection" xlink:title="hartogs_number_no_injection">
<ellipse fill="#f070d1" stroke="#000000" cx="643" cy="-425.4711" rx="148.6821" ry="18"/>
<ellipse fill="none" stroke="#000000" cx="643" cy="-425.4711" rx="152.6779" ry="22"/>
<ellipse fill="none" stroke="#000000" cx="643" cy="-425.4711" rx="156.6738" ry="26"/>
<text text-anchor="middle" x="643" y="-421.7711" font-family="Times,serif" font-size="14.00" fill="#000000">hartogs_number_no_injection</text>
</a>
</g>
</g>
<!-- Hartogs_resize_ordinal_iso -->
<g id="node2" class="node">
<title>Hartogs_resize_ordinal_iso</title>
<g id="a_node2"><a xlink:href="Hartogs.html#resize_ordinal_iso" xlink:title="resize_ordinal_iso">
<ellipse fill="#f070d1" stroke="#000000" cx="710" cy="-340.4711" rx="94.4839" ry="18"/>
<text text-anchor="middle" x="710" y="-336.7711" font-family="Times,serif" font-size="14.00" fill="#000000">resize_ordinal_iso</text>
</a>
</g>
</g>
<!-- Hartogs_hartogs_number_no_injection&#45;&gt;Hartogs_resize_ordinal_iso -->
<g id="edge1" class="edge">
<title>Hartogs_hartogs_number_no_injection&#45;&gt;Hartogs_resize_ordinal_iso</title>
<path fill="none" stroke="#000000" d="M663.4663,-399.5064C671.7258,-389.028 681.2376,-376.9608 689.5004,-366.478"/>
<polygon fill="#000000" stroke="#000000" points="692.3698,-368.4917 695.8115,-358.4714 686.8723,-364.1583 692.3698,-368.4917"/>
</g>
<!-- Hartogs_ordinal_initial -->
<g id="node3" class="node">
<title>Hartogs_ordinal_initial</title>
<g id="a_node3"><a xlink:href="Hartogs.html#ordinal_initial" xlink:title="ordinal_initial">
<ellipse fill="#f070d1" stroke="#000000" cx="898" cy="-340.4711" rx="75.2868" ry="18"/>
<text text-anchor="middle" x="898" y="-336.7711" font-family="Times,serif" font-size="14.00" fill="#000000">ordinal_initial</text>
</a>
</g>
</g>
<!-- Hartogs_hartogs_number_no_injection&#45;&gt;Hartogs_ordinal_initial -->
<g id="edge2" class="edge">
<title>Hartogs_hartogs_number_no_injection&#45;&gt;Hartogs_ordinal_initial</title>
<path fill="none" stroke="#000000" d="M713.0172,-402.132C754.2979,-388.3718 805.7465,-371.2222 843.8985,-358.5049"/>
<polygon fill="#000000" stroke="#000000" points="845.4111,-361.6901 853.7911,-355.2074 843.1975,-355.0493 845.4111,-361.6901"/>
</g>
<!-- Hartogs_hartogs_number -->
<g id="node5" class="node">
<title>Hartogs_hartogs_number</title>
<g id="a_node5"><a xlink:href="Hartogs.html#hartogs_number" xlink:title="hartogs_number">
<ellipse fill="#f070d1" stroke="#000000" cx="261" cy="-340.4711" rx="87.1846" ry="18"/>
<text text-anchor="middle" x="261" y="-336.7711" font-family="Times,serif" font-size="14.00" fill="#000000">hartogs_number</text>
</a>
</g>
</g>
<!-- Hartogs_hartogs_number_no_injection&#45;&gt;Hartogs_hartogs_number -->
<g id="edge3" class="edge">
<title>Hartogs_hartogs_number_no_injection&#45;&gt;Hartogs_hartogs_number</title>
<path fill="none" stroke="#000000" d="M549.063,-404.5689C481.3669,-389.5056 391.5147,-369.5123 330.2783,-355.8864"/>
<polygon fill="#000000" stroke="#000000" points="330.8475,-352.4275 320.326,-353.6719 329.3271,-359.2604 330.8475,-352.4275"/>
</g>
<!-- Hartogs_le_Cardinal_lt_Ordinal -->
<g id="node19" class="node">
<title>Hartogs_le_Cardinal_lt_Ordinal</title>
<g id="a_node19"><a xlink:href="Hartogs.html#le_Cardinal_lt_Ordinal" xlink:title="le_Cardinal_lt_Ordinal">
<ellipse fill="#f070d1" stroke="#000000" cx="482" cy="-340.4711" rx="115.8798" ry="18"/>
<text text-anchor="middle" x="482" y="-336.7711" font-family="Times,serif" font-size="14.00" fill="#000000">le_Cardinal_lt_Ordinal</text>
</a>
</g>
</g>
<!-- Hartogs_hartogs_number_no_injection&#45;&gt;Hartogs_le_Cardinal_lt_Ordinal -->
<g id="edge4" class="edge">
<title>Hartogs_hartogs_number_no_injection&#45;&gt;Hartogs_le_Cardinal_lt_Ordinal</title>
<path fill="none" stroke="#000000" d="M595.9993,-400.6571C573.2596,-388.6516 546.1793,-374.3546 524.1193,-362.708"/>
<polygon fill="#000000" stroke="#000000" points="525.477,-359.467 514.9997,-357.8933 522.2088,-365.6572 525.477,-359.467"/>
</g>
<!-- Hartogs_resize_ordinal -->
<g id="node6" class="node">
<title>Hartogs_resize_ordinal</title>
<g id="a_node6"><a xlink:href="Hartogs.html#resize_ordinal" xlink:title="resize_ordinal">
<ellipse fill="#f070d1" stroke="#000000" cx="607" cy="-264.4711" rx="76.0865" ry="18"/>
<text text-anchor="middle" x="607" y="-260.7711" font-family="Times,serif" font-size="14.00" fill="#000000">resize_ordinal</text>
</a>
</g>
</g>
<!-- Hartogs_resize_ordinal_iso&#45;&gt;Hartogs_resize_ordinal -->
<g id="edge5" class="edge">
<title>Hartogs_resize_ordinal_iso&#45;&gt;Hartogs_resize_ordinal</title>
<path fill="none" stroke="#000000" d="M686.3697,-323.0352C672.2379,-312.6078 654.0997,-299.2242 638.7307,-287.884"/>
<polygon fill="#000000" stroke="#000000" points="640.645,-284.9469 630.5203,-281.8259 636.4889,-290.5796 640.645,-284.9469"/>
</g>
<!-- Hartogs_hartogs_number_injection -->
<g id="node4" class="node">
<title>Hartogs_hartogs_number_injection</title>
<g id="a_node4"><a xlink:href="Hartogs.html#hartogs_number_injection" xlink:title="hartogs_number_injection">
<ellipse fill="#f070d1" stroke="#000000" cx="261" cy="-425.4711" rx="132.6715" ry="18"/>
<ellipse fill="none" stroke="#000000" cx="261" cy="-425.4711" rx="136.674" ry="22"/>
<ellipse fill="none" stroke="#000000" cx="261" cy="-425.4711" rx="140.6765" ry="26"/>
<text text-anchor="middle" x="261" y="-421.7711" font-family="Times,serif" font-size="14.00" fill="#000000">hartogs_number_injection</text>
</a>
</g>
</g>
<!-- Hartogs_hartogs_number_injection&#45;&gt;Hartogs_hartogs_number -->
<g id="edge6" class="edge">
<title>Hartogs_hartogs_number_injection&#45;&gt;Hartogs_hartogs_number</title>
<path fill="none" stroke="#000000" d="M261,-399.0425C261,-389.3794 261,-378.4164 261,-368.6095"/>
<polygon fill="#000000" stroke="#000000" points="264.5001,-368.538 261,-358.538 257.5001,-368.5381 264.5001,-368.538"/>
</g>
<!-- Hartogs_hartogs_number&#45;&gt;Hartogs_resize_ordinal -->
<g id="edge7" class="edge">
<title>Hartogs_hartogs_number&#45;&gt;Hartogs_resize_ordinal</title>
<path fill="none" stroke="#000000" d="M320.8736,-327.3197C382.2863,-313.8302 477.5676,-292.9013 541.0927,-278.9478"/>
<polygon fill="#000000" stroke="#000000" points="541.9891,-282.3345 551.0054,-276.7705 540.4873,-275.4974 541.9891,-282.3345"/>
</g>
<!-- Hartogs_hartogs_equiv -->
<g id="node7" class="node">
<title>Hartogs_hartogs_equiv</title>
<g id="a_node7"><a xlink:href="Hartogs.html#hartogs_equiv" xlink:title="hartogs_equiv">
<ellipse fill="#f070d1" stroke="#000000" cx="297" cy="-264.4711" rx="76.8869" ry="18"/>
<text text-anchor="middle" x="297" y="-260.7711" font-family="Times,serif" font-size="14.00" fill="#000000">hartogs_equiv</text>
</a>
</g>
</g>
<!-- Hartogs_hartogs_number&#45;&gt;Hartogs_hartogs_equiv -->
<g id="edge8" class="edge">
<title>Hartogs_hartogs_number&#45;&gt;Hartogs_hartogs_equiv</title>
<path fill="none" stroke="#000000" d="M269.5315,-322.4602C273.8488,-313.3458 279.1821,-302.0866 283.9973,-291.9213"/>
<polygon fill="#000000" stroke="#000000" points="287.2871,-293.1518 288.405,-282.6161 280.961,-290.1552 287.2871,-293.1518"/>
</g>
<!-- Hartogs_hartogs_number_carrier -->
<g id="node8" class="node">
<title>Hartogs_hartogs_number_carrier</title>
<g id="a_node8"><a xlink:href="Hartogs.html#hartogs_number_carrier" xlink:title="hartogs_number_carrier">
<ellipse fill="#f070d1" stroke="#000000" cx="297" cy="-188.4711" rx="124.2781" ry="18"/>
<text text-anchor="middle" x="297" y="-184.7711" font-family="Times,serif" font-size="14.00" fill="#000000">hartogs_number_carrier</text>
</a>
</g>
</g>
<!-- Hartogs_hartogs_equiv&#45;&gt;Hartogs_hartogs_number_carrier -->
<g id="edge9" class="edge">
<title>Hartogs_hartogs_equiv&#45;&gt;Hartogs_hartogs_number_carrier</title>
<path fill="none" stroke="#000000" d="M297,-246.4602C297,-237.6277 297,-226.781 297,-216.8675"/>
<polygon fill="#000000" stroke="#000000" points="300.5001,-216.6161 297,-206.6161 293.5001,-216.6162 300.5001,-216.6161"/>
</g>
<!-- Hartogs_injective_uni_fix -->
<g id="node9" class="node">
<title>Hartogs_injective_uni_fix</title>
<g id="a_node9"><a xlink:href="Hartogs.html#injective_uni_fix" xlink:title="injective_uni_fix">
<ellipse fill="#f070d1" stroke="#000000" cx="598" cy="-188.4711" rx="87.1846" ry="18"/>
<text text-anchor="middle" x="598" y="-184.7711" font-family="Times,serif" font-size="14.00" fill="#000000">injective_uni_fix</text>
</a>
</g>
</g>
<!-- Hartogs_hartogs_equiv&#45;&gt;Hartogs_injective_uni_fix -->
<g id="edge10" class="edge">
<title>Hartogs_hartogs_equiv&#45;&gt;Hartogs_injective_uni_fix</title>
<path fill="none" stroke="#000000" d="M349.4302,-251.2329C400.3297,-238.3812 477.7366,-218.8366 532.6295,-204.9766"/>
<polygon fill="#000000" stroke="#000000" points="533.7668,-208.2994 542.6057,-202.4577 532.0531,-201.5124 533.7668,-208.2994"/>
</g>
<!-- Hartogs_uni_fix -->
<g id="node10" class="node">
<title>Hartogs_uni_fix</title>
<g id="a_node10"><a xlink:href="Hartogs.html#uni_fix" xlink:title="uni_fix">
<ellipse fill="#f070d1" stroke="#000000" cx="454" cy="-112.4711" rx="42.4939" ry="18"/>
<text text-anchor="middle" x="454" y="-108.7711" font-family="Times,serif" font-size="14.00" fill="#000000">uni_fix</text>
</a>
</g>
</g>
<!-- Hartogs_hartogs_number_carrier&#45;&gt;Hartogs_uni_fix -->
<g id="edge11" class="edge">
<title>Hartogs_hartogs_number_carrier&#45;&gt;Hartogs_uni_fix</title>
<path fill="none" stroke="#000000" d="M332.6257,-171.2255C357.6553,-159.1093 391.0736,-142.9323 416.5071,-130.6205"/>
<polygon fill="#000000" stroke="#000000" points="418.3537,-133.6152 425.8296,-126.1077 415.3037,-127.3146 418.3537,-133.6152"/>
</g>
<!-- Hartogs_hartogs_number__injection -->
<g id="node15" class="node">
<title>Hartogs_hartogs_number__injection</title>
<g id="a_node15"><a xlink:href="Hartogs.html#hartogs_number'_injection" xlink:title="hartogs_number&#39;_injection">
<ellipse fill="#f070d1" stroke="#000000" cx="259" cy="-112.4711" rx="135.3763" ry="18"/>
<text text-anchor="middle" x="259" y="-108.7711" font-family="Times,serif" font-size="14.00" fill="#000000">hartogs_number&#39;_injection</text>
</a>
</g>
</g>
<!-- Hartogs_hartogs_number_carrier&#45;&gt;Hartogs_hartogs_number__injection -->
<g id="edge12" class="edge">
<title>Hartogs_hartogs_number_carrier&#45;&gt;Hartogs_hartogs_number__injection</title>
<path fill="none" stroke="#000000" d="M287.9945,-170.4602C283.3904,-161.2518 277.6916,-149.8542 272.5681,-139.6073"/>
<polygon fill="#000000" stroke="#000000" points="275.6752,-137.9951 268.0725,-130.6161 269.4142,-141.1257 275.6752,-137.9951"/>
</g>
<!-- Hartogs_injective_uni_fix&#45;&gt;Hartogs_uni_fix -->
<g id="edge13" class="edge">
<title>Hartogs_injective_uni_fix&#45;&gt;Hartogs_uni_fix</title>
<path fill="none" stroke="#000000" d="M566.0417,-171.6042C543.3657,-159.6363 512.92,-143.5677 489.4893,-131.2015"/>
<polygon fill="#000000" stroke="#000000" points="491.0414,-128.0632 480.5639,-126.4909 487.7741,-134.2539 491.0414,-128.0632"/>
</g>
<!-- Hartogs_injective_power_morph -->
<g id="node11" class="node">
<title>Hartogs_injective_power_morph</title>
<g id="a_node11"><a xlink:href="Hartogs.html#injective_power_morph" xlink:title="injective_power_morph">
<ellipse fill="#f070d1" stroke="#000000" cx="634" cy="-112.4711" rx="119.6788" ry="18"/>
<text text-anchor="middle" x="634" y="-108.7711" font-family="Times,serif" font-size="14.00" fill="#000000">injective_power_morph</text>
</a>
</g>
</g>
<!-- Hartogs_injective_uni_fix&#45;&gt;Hartogs_injective_power_morph -->
<g id="edge14" class="edge">
<title>Hartogs_injective_uni_fix&#45;&gt;Hartogs_injective_power_morph</title>
<path fill="none" stroke="#000000" d="M606.5315,-170.4602C610.8488,-161.3458 616.1821,-150.0866 620.9973,-139.9213"/>
<polygon fill="#000000" stroke="#000000" points="624.2871,-141.1518 625.405,-130.6161 617.961,-138.1552 624.2871,-141.1518"/>
</g>
<!-- Hartogs_injective_power_inj -->
<g id="node13" class="node">
<title>Hartogs_injective_power_inj</title>
<g id="a_node13"><a xlink:href="Hartogs.html#injective_power_inj" xlink:title="injective_power_inj">
<ellipse fill="#f070d1" stroke="#000000" cx="872" cy="-112.4711" rx="100.9827" ry="18"/>
<text text-anchor="middle" x="872" y="-108.7711" font-family="Times,serif" font-size="14.00" fill="#000000">injective_power_inj</text>
</a>
</g>
</g>
<!-- Hartogs_injective_uni_fix&#45;&gt;Hartogs_injective_power_inj -->
<g id="edge15" class="edge">
<title>Hartogs_injective_uni_fix&#45;&gt;Hartogs_injective_power_inj</title>
<path fill="none" stroke="#000000" d="M650.1822,-173.9972C694.9233,-161.5873 759.5616,-143.6584 807.5303,-130.3532"/>
<polygon fill="#000000" stroke="#000000" points="808.4945,-133.718 817.1951,-127.6724 806.6234,-126.9727 808.4945,-133.718"/>
</g>
<!-- Hartogs_power_morph -->
<g id="node12" class="node">
<title>Hartogs_power_morph</title>
<g id="a_node12"><a xlink:href="Hartogs.html#power_morph" xlink:title="power_morph">
<ellipse fill="#f070d1" stroke="#000000" cx="768" cy="-36.4711" rx="74.9875" ry="18"/>
<text text-anchor="middle" x="768" y="-32.7711" font-family="Times,serif" font-size="14.00" fill="#000000">power_morph</text>
</a>
</g>
</g>
<!-- Hartogs_uni_fix&#45;&gt;Hartogs_power_morph -->
<g id="edge16" class="edge">
<title>Hartogs_uni_fix&#45;&gt;Hartogs_power_morph</title>
<path fill="none" stroke="#000000" d="M485.9101,-100.537C492.1938,-98.3778 498.7703,-96.2502 505,-94.4711 514.5736,-91.7371 627.8637,-66.959 702.5976,-50.6853"/>
<polygon fill="#000000" stroke="#000000" points="703.3911,-54.0946 712.4178,-48.5475 701.9021,-47.2548 703.3911,-54.0946"/>
</g>
<!-- Hartogs_power_inj -->
<g id="node14" class="node">
<title>Hartogs_power_inj</title>
<g id="a_node14"><a xlink:href="Hartogs.html#power_inj" xlink:title="power_inj">
<ellipse fill="#f070d1" stroke="#000000" cx="917" cy="-36.4711" rx="55.7903" ry="18"/>
<text text-anchor="middle" x="917" y="-32.7711" font-family="Times,serif" font-size="14.00" fill="#000000">power_inj</text>
</a>
</g>
</g>
<!-- Hartogs_uni_fix&#45;&gt;Hartogs_power_inj -->
<g id="edge17" class="edge">
<title>Hartogs_uni_fix&#45;&gt;Hartogs_power_inj</title>
<path fill="none" stroke="#000000" d="M485.2309,-100.2076C491.6892,-98.0244 498.5046,-95.9716 505,-94.4711 656.2598,-59.5282 699.6228,-84.1652 852,-54.4711 856.6404,-53.5668 861.4339,-52.5 866.2167,-51.3445"/>
<polygon fill="#000000" stroke="#000000" points="867.1342,-54.7227 875.9668,-48.8716 865.4132,-47.9375 867.1342,-54.7227"/>
</g>
<!-- Hartogs_injective_power_morph&#45;&gt;Hartogs_power_morph -->
<g id="edge18" class="edge">
<title>Hartogs_injective_power_morph&#45;&gt;Hartogs_power_morph</title>
<path fill="none" stroke="#000000" d="M664.7423,-95.0352C684.127,-84.0409 709.3063,-69.7601 729.9474,-58.0531"/>
<polygon fill="#000000" stroke="#000000" points="731.8077,-61.0219 738.7794,-53.044 728.3543,-54.933 731.8077,-61.0219"/>
</g>
<!-- Hartogs_injective_power_inj&#45;&gt;Hartogs_power_inj -->
<g id="edge19" class="edge">
<title>Hartogs_injective_power_inj&#45;&gt;Hartogs_power_inj</title>
<path fill="none" stroke="#000000" d="M882.6644,-94.4602C888.2125,-85.0899 895.1029,-73.4529 901.2518,-63.068"/>
<polygon fill="#000000" stroke="#000000" points="904.3289,-64.7408 906.4122,-54.3527 898.3055,-61.1743 904.3289,-64.7408"/>
</g>
<!-- Hartogs_subtype_as_type_ -->
<g id="node16" class="node">
<title>Hartogs_subtype_as_type_</title>
<g id="a_node16"><a xlink:href="Hartogs.html#subtype_as_type'" xlink:title="subtype_as_type&#39;">
<ellipse fill="#f070d1" stroke="#000000" cx="305" cy="-36.4711" rx="90.9839" ry="18"/>
<text text-anchor="middle" x="305" y="-32.7711" font-family="Times,serif" font-size="14.00" fill="#000000">subtype_as_type&#39;</text>
</a>
</g>
</g>
<!-- Hartogs_hartogs_number__injection&#45;&gt;Hartogs_subtype_as_type_ -->
<g id="edge20" class="edge">
<title>Hartogs_hartogs_number__injection&#45;&gt;Hartogs_subtype_as_type_</title>
<path fill="none" stroke="#000000" d="M269.9014,-94.4602C275.5728,-85.0899 282.6163,-73.4529 288.9019,-63.068"/>
<polygon fill="#000000" stroke="#000000" points="291.9931,-64.7201 294.1769,-54.3527 286.0046,-61.0954 291.9931,-64.7201"/>
</g>
<!-- Hartogs_proper_subtype_inclusion -->
<g id="node17" class="node">
<title>Hartogs_proper_subtype_inclusion</title>
<g id="a_node17"><a xlink:href="Hartogs.html#proper_subtype_inclusion" xlink:title="proper_subtype_inclusion">
<ellipse fill="#f070d1" stroke="#000000" cx="545" cy="-36.4711" rx="130.777" ry="18"/>
<text text-anchor="middle" x="545" y="-32.7711" font-family="Times,serif" font-size="14.00" fill="#000000">proper_subtype_inclusion</text>
</a>
</g>
</g>
<!-- Hartogs_hartogs_number__injection&#45;&gt;Hartogs_proper_subtype_inclusion -->
<g id="edge21" class="edge">
<title>Hartogs_hartogs_number__injection&#45;&gt;Hartogs_proper_subtype_inclusion</title>
<path fill="none" stroke="#000000" d="M319.6532,-96.3534C364.9654,-84.3125 427.0109,-67.8248 474.5266,-55.1983"/>
<polygon fill="#000000" stroke="#000000" points="475.6685,-58.5164 484.4342,-52.5655 473.8707,-51.7512 475.6685,-58.5164"/>
</g>
<!-- Hartogs_hartogs_number_ -->
<g id="node18" class="node">
<title>Hartogs_hartogs_number_</title>
<g id="a_node18"><a xlink:href="Hartogs.html#hartogs_number'" xlink:title="hartogs_number&#39;">
<ellipse fill="#f070d1" stroke="#000000" cx="106" cy="-36.4711" rx="89.8845" ry="18"/>
<text text-anchor="middle" x="106" y="-32.7711" font-family="Times,serif" font-size="14.00" fill="#000000">hartogs_number&#39;</text>
</a>
</g>
</g>
<!-- Hartogs_hartogs_number__injection&#45;&gt;Hartogs_hartogs_number_ -->
<g id="edge22" class="edge">
<title>Hartogs_hartogs_number__injection&#45;&gt;Hartogs_hartogs_number_</title>
<path fill="none" stroke="#000000" d="M223.8987,-95.0352C201.5456,-83.9316 172.4441,-69.476 148.7473,-57.705"/>
<polygon fill="#000000" stroke="#000000" points="150.1376,-54.4877 139.6246,-53.1735 147.0235,-60.7568 150.1376,-54.4877"/>
</g>
</g>
</svg>
