<?xml version="1.0" encoding="UTF-8" standalone="no"?>
<!DOCTYPE svg PUBLIC "-//W3C//DTD SVG 1.1//EN"
 "http://www.w3.org/Graphics/SVG/1.1/DTD/svg11.dtd">
<!-- Generated by graphviz version 2.40.1 (20161225.0304)
 -->
<!-- Title: HoTT_WildCat_Opposite Pages: 1 -->
<svg width="1043pt" height="526pt"
 viewBox="0.00 0.00 1043.00 525.50" xmlns="http://www.w3.org/2000/svg" xmlns:xlink="http://www.w3.org/1999/xlink">
<g id="graph0" class="graph" transform="scale(1 1) rotate(0) translate(4 521.5)">
<title>HoTT_WildCat_Opposite</title>
<polygon fill="#ffffff" stroke="transparent" points="-4,4 -4,-521.5 1039,-521.5 1039,4 -4,4"/>
<g id="clust1" class="cluster">
<title>cluster_Opposite</title>
<polygon fill="#ffffc3" stroke="#000000" points="8,-8.0388 8,-509.4612 1027,-509.4612 1027,-8.0388 8,-8.0388"/>
<text text-anchor="middle" x="48.5" y="-494.2612" font-family="Times,serif" font-size="14.00" fill="#000000">Opposite</text>
</g>
<!-- Opposite_natequiv_op -->
<g id="node1" class="node">
<title>Opposite_natequiv_op</title>
<g id="a_node1"><a xlink:href="Opposite.html#natequiv_op" xlink:title="natequiv_op">
<ellipse fill="#f070d1" stroke="#000000" cx="496" cy="-452.0388" rx="67.6782" ry="18"/>
<ellipse fill="none" stroke="#000000" cx="496" cy="-452.0388" rx="71.6831" ry="22"/>
<ellipse fill="none" stroke="#000000" cx="496" cy="-452.0388" rx="75.6881" ry="26"/>
<text text-anchor="middle" x="496" y="-448.3388" font-family="Times,serif" font-size="14.00" fill="#000000">natequiv_op</text>
</a>
</g>
</g>
<!-- Opposite_hasequivs_op -->
<g id="node4" class="node">
<title>Opposite_hasequivs_op</title>
<g id="a_node4"><a xlink:href="Opposite.html#hasequivs_op" xlink:title="hasequivs_op">
<ellipse fill="#f070d1" stroke="#000000" cx="946" cy="-364.0388" rx="73.387" ry="18"/>
<text text-anchor="middle" x="946" y="-360.3388" font-family="Times,serif" font-size="14.00" fill="#000000">hasequivs_op</text>
</a>
</g>
</g>
<!-- Opposite_natequiv_op&#45;&gt;Opposite_hasequivs_op -->
<g id="edge1" class="edge">
<title>Opposite_natequiv_op&#45;&gt;Opposite_hasequivs_op</title>
<path fill="none" stroke="#000000" d="M566.9331,-442.9779C641.2802,-432.8014 761.2072,-414.4604 863,-390.0388 872.8012,-387.6874 883.1342,-384.7945 893.0552,-381.8025"/>
<polygon fill="#000000" stroke="#000000" points="894.2808,-385.0872 902.8039,-378.7937 892.2164,-378.3985 894.2808,-385.0872"/>
</g>
<!-- Opposite_is1nat_op -->
<g id="node5" class="node">
<title>Opposite_is1nat_op</title>
<g id="a_node5"><a xlink:href="Opposite.html#is1nat_op" xlink:title="is1nat_op">
<ellipse fill="#f070d1" stroke="#000000" cx="214" cy="-364.0388" rx="55.7903" ry="18"/>
<text text-anchor="middle" x="214" y="-360.3388" font-family="Times,serif" font-size="14.00" fill="#000000">is1nat_op</text>
</a>
</g>
</g>
<!-- Opposite_natequiv_op&#45;&gt;Opposite_is1nat_op -->
<g id="edge2" class="edge">
<title>Opposite_natequiv_op&#45;&gt;Opposite_is1nat_op</title>
<path fill="none" stroke="#000000" d="M435.1526,-436.4398C391.366,-424.7823 331.0898,-407.8462 279,-390.0388 272.0422,-387.6602 264.7427,-384.9538 257.6516,-382.2073"/>
<polygon fill="#000000" stroke="#000000" points="258.7496,-378.878 248.1629,-378.4642 256.1809,-385.3897 258.7496,-378.878"/>
</g>
<!-- Opposite_hasmorext_op -->
<g id="node2" class="node">
<title>Opposite_hasmorext_op</title>
<g id="a_node2"><a xlink:href="Opposite.html#hasmorext_op" xlink:title="hasmorext_op">
<ellipse fill="#f070d1" stroke="#000000" cx="556" cy="-364.0388" rx="76.0824" ry="18"/>
<ellipse fill="none" stroke="#000000" cx="556" cy="-364.0388" rx="80.0845" ry="22"/>
<ellipse fill="none" stroke="#000000" cx="556" cy="-364.0388" rx="84.0865" ry="26"/>
<text text-anchor="middle" x="556" y="-360.3388" font-family="Times,serif" font-size="14.00" fill="#000000">hasmorext_op</text>
</a>
</g>
</g>
<!-- Opposite_is1cat_op -->
<g id="node13" class="node">
<title>Opposite_is1cat_op</title>
<g id="a_node13"><a xlink:href="Opposite.html#is1cat_op" xlink:title="is1cat_op">
<ellipse fill="#f070d1" stroke="#000000" cx="556" cy="-275.0388" rx="55.4913" ry="18"/>
<text text-anchor="middle" x="556" y="-271.3388" font-family="Times,serif" font-size="14.00" fill="#000000">is1cat_op</text>
</a>
</g>
</g>
<!-- Opposite_hasmorext_op&#45;&gt;Opposite_is1cat_op -->
<g id="edge3" class="edge">
<title>Opposite_hasmorext_op&#45;&gt;Opposite_is1cat_op</title>
<path fill="none" stroke="#000000" d="M556,-337.8173C556,-326.9374 556,-314.2931 556,-303.2155"/>
<polygon fill="#000000" stroke="#000000" points="559.5001,-303.1834 556,-293.1834 552.5001,-303.1835 559.5001,-303.1834"/>
</g>
<!-- Opposite_isequivs_op -->
<g id="node3" class="node">
<title>Opposite_isequivs_op</title>
<g id="a_node3"><a xlink:href="Opposite.html#isequivs_op" xlink:title="isequivs_op">
<ellipse fill="#f070d1" stroke="#000000" cx="946" cy="-452.0388" rx="64.9891" ry="18"/>
<ellipse fill="none" stroke="#000000" cx="946" cy="-452.0388" rx="68.9888" ry="22"/>
<ellipse fill="none" stroke="#000000" cx="946" cy="-452.0388" rx="72.9885" ry="26"/>
<text text-anchor="middle" x="946" y="-448.3388" font-family="Times,serif" font-size="14.00" fill="#000000">isequivs_op</text>
</a>
</g>
</g>
<!-- Opposite_isequivs_op&#45;&gt;Opposite_hasequivs_op -->
<g id="edge4" class="edge">
<title>Opposite_isequivs_op&#45;&gt;Opposite_hasequivs_op</title>
<path fill="none" stroke="#000000" d="M946,-425.6359C946,-415.0802 946,-402.9068 946,-392.1837"/>
<polygon fill="#000000" stroke="#000000" points="949.5001,-392.0576 946,-382.0576 942.5001,-392.0577 949.5001,-392.0576"/>
</g>
<!-- Opposite_hasequivs_op&#45;&gt;Opposite_is1cat_op -->
<g id="edge5" class="edge">
<title>Opposite_hasequivs_op&#45;&gt;Opposite_is1cat_op</title>
<path fill="none" stroke="#000000" d="M902.3018,-349.4406C889.6932,-345.4764 875.8652,-341.3648 863,-338.0388 777.5471,-315.9471 677.1203,-296.5563 615.009,-285.314"/>
<polygon fill="#000000" stroke="#000000" points="615.463,-281.8396 605.0012,-283.5131 614.2232,-288.7289 615.463,-281.8396"/>
</g>
<!-- Opposite_transformation_op -->
<g id="node6" class="node">
<title>Opposite_transformation_op</title>
<g id="a_node6"><a xlink:href="Opposite.html#transformation_op" xlink:title="transformation_op">
<ellipse fill="#f070d1" stroke="#000000" cx="573" cy="-187.0388" rx="96.6831" ry="18"/>
<text text-anchor="middle" x="573" y="-183.3388" font-family="Times,serif" font-size="14.00" fill="#000000">transformation_op</text>
</a>
</g>
</g>
<!-- Opposite_is1nat_op&#45;&gt;Opposite_transformation_op -->
<g id="edge6" class="edge">
<title>Opposite_is1nat_op&#45;&gt;Opposite_transformation_op</title>
<path fill="none" stroke="#000000" d="M248.6268,-349.8339C258.4108,-345.9168 269.0916,-341.7313 279,-338.0388 326.1509,-320.4677 340.4784,-322.4804 386,-301.0388 442.5244,-274.4148 503.5333,-234.9987 539.9795,-210.183"/>
<polygon fill="#000000" stroke="#000000" points="541.9865,-213.0507 548.2565,-204.5103 538.0292,-207.2766 541.9865,-213.0507"/>
</g>
<!-- Opposite_is0functor_op -->
<g id="node9" class="node">
<title>Opposite_is0functor_op</title>
<g id="a_node9"><a xlink:href="Opposite.html#is0functor_op" xlink:title="is0functor_op">
<ellipse fill="#f070d1" stroke="#000000" cx="152" cy="-275.0388" rx="74.9875" ry="18"/>
<text text-anchor="middle" x="152" y="-271.3388" font-family="Times,serif" font-size="14.00" fill="#000000">is0functor_op</text>
</a>
</g>
</g>
<!-- Opposite_is1nat_op&#45;&gt;Opposite_is0functor_op -->
<g id="edge7" class="edge">
<title>Opposite_is1nat_op&#45;&gt;Opposite_is0functor_op</title>
<path fill="none" stroke="#000000" d="M201.7508,-346.4553C192.808,-333.618 180.5304,-315.9938 170.4097,-301.4657"/>
<polygon fill="#000000" stroke="#000000" points="173.0239,-299.0952 164.436,-292.8905 167.2802,-303.0964 173.0239,-299.0952"/>
</g>
<!-- Opposite_is1nat_op&#45;&gt;Opposite_is1cat_op -->
<g id="edge8" class="edge">
<title>Opposite_is1nat_op&#45;&gt;Opposite_is1cat_op</title>
<path fill="none" stroke="#000000" d="M247.3679,-349.5047C257.4161,-345.452 268.5517,-341.2772 279,-338.0388 350.7856,-315.7897 370.7289,-317.7585 444,-301.0388 462.6372,-296.786 483.0038,-292.0766 501.1979,-287.8474"/>
<polygon fill="#000000" stroke="#000000" points="502.1109,-291.2285 511.0574,-285.5531 500.5243,-284.4106 502.1109,-291.2285"/>
</g>
<!-- Opposite_isgraph_op -->
<g id="node16" class="node">
<title>Opposite_isgraph_op</title>
<g id="a_node16"><a xlink:href="Opposite.html#isgraph_op" xlink:title="isgraph_op">
<ellipse fill="#f070d1" stroke="#000000" cx="385" cy="-106.0388" rx="61.99" ry="18"/>
<text text-anchor="middle" x="385" y="-102.3388" font-family="Times,serif" font-size="14.00" fill="#000000">isgraph_op</text>
</a>
</g>
</g>
<!-- Opposite_transformation_op&#45;&gt;Opposite_isgraph_op -->
<g id="edge9" class="edge">
<title>Opposite_transformation_op&#45;&gt;Opposite_isgraph_op</title>
<path fill="none" stroke="#000000" d="M534.5017,-170.4518C503.9325,-157.281 461.1623,-138.8535 429.1963,-125.0808"/>
<polygon fill="#000000" stroke="#000000" points="430.2169,-121.7096 419.6481,-120.967 427.447,-128.1383 430.2169,-121.7096"/>
</g>
<!-- Opposite_fun01_op -->
<g id="node7" class="node">
<title>Opposite_fun01_op</title>
<g id="a_node7"><a xlink:href="Opposite.html#fun01_op" xlink:title="fun01_op">
<ellipse fill="#f070d1" stroke="#000000" cx="78" cy="-364.0388" rx="53.8975" ry="18"/>
<ellipse fill="none" stroke="#000000" cx="78" cy="-364.0388" rx="57.894" ry="22"/>
<ellipse fill="none" stroke="#000000" cx="78" cy="-364.0388" rx="61.8905" ry="26"/>
<text text-anchor="middle" x="78" y="-360.3388" font-family="Times,serif" font-size="14.00" fill="#000000">fun01_op</text>
</a>
</g>
</g>
<!-- Opposite_fun01_op&#45;&gt;Opposite_is0functor_op -->
<g id="edge10" class="edge">
<title>Opposite_fun01_op&#45;&gt;Opposite_is0functor_op</title>
<path fill="none" stroke="#000000" d="M98.6131,-339.2474C108.5508,-327.2953 120.4649,-312.9662 130.5143,-300.8797"/>
<polygon fill="#000000" stroke="#000000" points="133.4244,-302.8542 137.1265,-292.9272 128.0419,-298.3788 133.4244,-302.8542"/>
</g>
<!-- Opposite_is1functor_op -->
<g id="node8" class="node">
<title>Opposite_is1functor_op</title>
<g id="a_node8"><a xlink:href="Opposite.html#is1functor_op" xlink:title="is1functor_op">
<ellipse fill="#f070d1" stroke="#000000" cx="371" cy="-364.0388" rx="74.9639" ry="18"/>
<ellipse fill="none" stroke="#000000" cx="371" cy="-364.0388" rx="78.9757" ry="22"/>
<ellipse fill="none" stroke="#000000" cx="371" cy="-364.0388" rx="82.9875" ry="26"/>
<text text-anchor="middle" x="371" y="-360.3388" font-family="Times,serif" font-size="14.00" fill="#000000">is1functor_op</text>
</a>
</g>
</g>
<!-- Opposite_is1functor_op&#45;&gt;Opposite_is0functor_op -->
<g id="edge11" class="edge">
<title>Opposite_is1functor_op&#45;&gt;Opposite_is0functor_op</title>
<path fill="none" stroke="#000000" d="M320.2065,-343.3967C283.9401,-328.6583 235.4755,-308.9627 199.8855,-294.4991"/>
<polygon fill="#000000" stroke="#000000" points="200.7914,-291.0894 190.2095,-290.5669 198.156,-297.5743 200.7914,-291.0894"/>
</g>
<!-- Opposite_is1functor_op&#45;&gt;Opposite_is1cat_op -->
<g id="edge12" class="edge">
<title>Opposite_is1functor_op&#45;&gt;Opposite_is1cat_op</title>
<path fill="none" stroke="#000000" d="M416.2561,-342.267C446.6613,-327.6396 486.3757,-308.5338 515.6926,-294.43"/>
<polygon fill="#000000" stroke="#000000" points="517.3267,-297.5279 524.8208,-290.0386 514.292,-291.2199 517.3267,-297.5279"/>
</g>
<!-- Opposite_is0functor_op&#45;&gt;Opposite_isgraph_op -->
<g id="edge13" class="edge">
<title>Opposite_is0functor_op&#45;&gt;Opposite_isgraph_op</title>
<path fill="none" stroke="#000000" d="M147.7339,-256.8009C143.1012,-232.0199 139.1247,-187.7475 162,-161.0388 182.0346,-137.6469 259.088,-122.459 317.053,-114.0915"/>
<polygon fill="#000000" stroke="#000000" points="317.8544,-117.5134 327.271,-112.6577 316.8817,-110.5813 317.8544,-117.5134"/>
</g>
<!-- Opposite_op0gpd_fun -->
<g id="node10" class="node">
<title>Opposite_op0gpd_fun</title>
<g id="a_node10"><a xlink:href="Opposite.html#op0gpd_fun" xlink:title="op0gpd_fun">
<ellipse fill="#f070d1" stroke="#000000" cx="385" cy="-187.0388" rx="65.7729" ry="18"/>
<ellipse fill="none" stroke="#000000" cx="385" cy="-187.0388" rx="69.7808" ry="22"/>
<ellipse fill="none" stroke="#000000" cx="385" cy="-187.0388" rx="73.7886" ry="26"/>
<text text-anchor="middle" x="385" y="-183.3388" font-family="Times,serif" font-size="14.00" fill="#000000">op0gpd_fun</text>
</a>
</g>
</g>
<!-- Opposite_op0gpd_fun&#45;&gt;Opposite_isgraph_op -->
<g id="edge14" class="edge">
<title>Opposite_op0gpd_fun&#45;&gt;Opposite_isgraph_op</title>
<path fill="none" stroke="#000000" d="M385,-160.9641C385,-152.4154 385,-142.8805 385,-134.1856"/>
<polygon fill="#000000" stroke="#000000" points="388.5001,-134.1191 385,-124.1191 381.5001,-134.1192 388.5001,-134.1191"/>
</g>
<!-- Opposite_is0gpd_op -->
<g id="node11" class="node">
<title>Opposite_is0gpd_op</title>
<g id="a_node11"><a xlink:href="Opposite.html#is0gpd_op" xlink:title="is0gpd_op">
<ellipse fill="#f070d1" stroke="#000000" cx="311" cy="-275.0388" rx="57.7089" ry="18"/>
<ellipse fill="none" stroke="#000000" cx="311" cy="-275.0388" rx="61.6995" ry="22"/>
<ellipse fill="none" stroke="#000000" cx="311" cy="-275.0388" rx="65.6901" ry="26"/>
<text text-anchor="middle" x="311" y="-271.3388" font-family="Times,serif" font-size="14.00" fill="#000000">is0gpd_op</text>
</a>
</g>
</g>
<!-- Opposite_is01cat_op -->
<g id="node15" class="node">
<title>Opposite_is01cat_op</title>
<g id="a_node15"><a xlink:href="Opposite.html#is01cat_op" xlink:title="is01cat_op">
<ellipse fill="#f070d1" stroke="#000000" cx="232" cy="-187.0388" rx="61.1893" ry="18"/>
<text text-anchor="middle" x="232" y="-183.3388" font-family="Times,serif" font-size="14.00" fill="#000000">is01cat_op</text>
</a>
</g>
</g>
<!-- Opposite_is0gpd_op&#45;&gt;Opposite_is01cat_op -->
<g id="edge15" class="edge">
<title>Opposite_is0gpd_op&#45;&gt;Opposite_is01cat_op</title>
<path fill="none" stroke="#000000" d="M288.9941,-250.5259C278.2081,-238.5111 265.2411,-224.0669 254.4024,-211.9934"/>
<polygon fill="#000000" stroke="#000000" points="256.9163,-209.5543 247.6315,-204.4511 251.7073,-214.2306 256.9163,-209.5543"/>
</g>
<!-- Opposite_is1cat_strong_op -->
<g id="node12" class="node">
<title>Opposite_is1cat_strong_op</title>
<g id="a_node12"><a xlink:href="Opposite.html#is1cat_strong_op" xlink:title="is1cat_strong_op">
<ellipse fill="#f070d1" stroke="#000000" cx="756" cy="-364.0388" rx="90.1971" ry="18"/>
<ellipse fill="none" stroke="#000000" cx="756" cy="-364.0388" rx="94.1906" ry="22"/>
<ellipse fill="none" stroke="#000000" cx="756" cy="-364.0388" rx="98.1842" ry="26"/>
<text text-anchor="middle" x="756" y="-360.3388" font-family="Times,serif" font-size="14.00" fill="#000000">is1cat_strong_op</text>
</a>
</g>
</g>
<!-- Opposite_is1cat_strong_op&#45;&gt;Opposite_is1cat_op -->
<g id="edge16" class="edge">
<title>Opposite_is1cat_strong_op&#45;&gt;Opposite_is1cat_op</title>
<path fill="none" stroke="#000000" d="M705.5316,-341.5804C672.3924,-326.8335 629.5441,-307.766 598.2153,-293.8246"/>
<polygon fill="#000000" stroke="#000000" points="599.4451,-290.5411 588.8859,-289.6731 596.5991,-296.9364 599.4451,-290.5411"/>
</g>
<!-- Opposite_is2graph_op -->
<g id="node14" class="node">
<title>Opposite_is2graph_op</title>
<g id="a_node14"><a xlink:href="Opposite.html#is2graph_op" xlink:title="is2graph_op">
<ellipse fill="#f070d1" stroke="#000000" cx="755" cy="-187.0388" rx="67.6881" ry="18"/>
<text text-anchor="middle" x="755" y="-183.3388" font-family="Times,serif" font-size="14.00" fill="#000000">is2graph_op</text>
</a>
</g>
</g>
<!-- Opposite_is1cat_op&#45;&gt;Opposite_is2graph_op -->
<g id="edge17" class="edge">
<title>Opposite_is1cat_op&#45;&gt;Opposite_is2graph_op</title>
<path fill="none" stroke="#000000" d="M588.8608,-260.5074C622.0997,-245.8088 673.7008,-222.9903 710.5724,-206.6852"/>
<polygon fill="#000000" stroke="#000000" points="712.3505,-209.7259 720.0806,-202.4806 709.5194,-203.324 712.3505,-209.7259"/>
</g>
<!-- Opposite_is1cat_op&#45;&gt;Opposite_is01cat_op -->
<g id="edge18" class="edge">
<title>Opposite_is1cat_op&#45;&gt;Opposite_is01cat_op</title>
<path fill="none" stroke="#000000" d="M509.2098,-265.3285C457.9103,-254.2868 373.3891,-234.9286 302,-213.0388 294.2457,-210.6612 286.1008,-207.8928 278.2194,-205.0667"/>
<polygon fill="#000000" stroke="#000000" points="279.3741,-201.7624 268.7803,-201.6133 276.9689,-208.3362 279.3741,-201.7624"/>
</g>
<!-- Opposite_is2graph_op&#45;&gt;Opposite_isgraph_op -->
<g id="edge19" class="edge">
<title>Opposite_is2graph_op&#45;&gt;Opposite_isgraph_op</title>
<path fill="none" stroke="#000000" d="M715.4936,-172.313C703.8455,-168.3016 691.0027,-164.1969 679,-161.0388 601.5025,-140.6483 510.6016,-124.8548 450.6191,-115.5258"/>
<polygon fill="#000000" stroke="#000000" points="450.9441,-112.0347 440.5279,-113.972 449.8787,-118.9531 450.9441,-112.0347"/>
</g>
<!-- Opposite_is01cat_op&#45;&gt;Opposite_isgraph_op -->
<g id="edge20" class="edge">
<title>Opposite_is01cat_op&#45;&gt;Opposite_isgraph_op</title>
<path fill="none" stroke="#000000" d="M261.8631,-171.2289C285.9788,-158.4618 320.0931,-140.4013 346.3011,-126.5265"/>
<polygon fill="#000000" stroke="#000000" points="348.0119,-129.5811 355.2122,-121.8089 344.7367,-123.3945 348.0119,-129.5811"/>
</g>
<!-- Opposite_op -->
<g id="node17" class="node">
<title>Opposite_op</title>
<g id="a_node17"><a xlink:href="Opposite.html#op" xlink:title="op">
<ellipse fill="#f070d1" stroke="#000000" cx="385" cy="-34.0388" rx="27" ry="18"/>
<text text-anchor="middle" x="385" y="-30.3388" font-family="Times,serif" font-size="14.00" fill="#000000">op</text>
</a>
</g>
</g>
<!-- Opposite_isgraph_op&#45;&gt;Opposite_op -->
<g id="edge21" class="edge">
<title>Opposite_isgraph_op&#45;&gt;Opposite_op</title>
<path fill="none" stroke="#000000" d="M385,-87.8702C385,-80.1698 385,-71.0132 385,-62.4555"/>
<polygon fill="#000000" stroke="#000000" points="388.5001,-62.4521 385,-52.4521 381.5001,-62.4521 388.5001,-62.4521"/>
</g>
</g>
</svg>
