<?xml version="1.0" encoding="UTF-8" standalone="no"?>
<!DOCTYPE svg PUBLIC "-//W3C//DTD SVG 1.1//EN"
 "http://www.w3.org/Graphics/SVG/1.1/DTD/svg11.dtd">
<!-- Generated by graphviz version 2.40.1 (20161225.0304)
 -->
<!-- Title: HoTT_Diagrams_Graph Pages: 1 -->
<svg width="725pt" height="367pt"
 viewBox="0.00 0.00 725.00 366.50" xmlns="http://www.w3.org/2000/svg" xmlns:xlink="http://www.w3.org/1999/xlink">
<g id="graph0" class="graph" transform="scale(1 1) rotate(0) translate(4 362.5)">
<title>HoTT_Diagrams_Graph</title>
<polygon fill="#ffffff" stroke="transparent" points="-4,4 -4,-362.5 721,-362.5 721,4 -4,4"/>
<g id="clust1" class="cluster">
<title>cluster_Graph</title>
<polygon fill="#ffffc3" stroke="#000000" points="8,-10.7416 8,-347.7584 709,-347.7584 709,-10.7416 8,-10.7416"/>
<text text-anchor="middle" x="38.5" y="-332.5584" font-family="Times,serif" font-size="14.00" fill="#000000">Graph</text>
</g>
<!-- Graph_graph1 -->
<g id="node1" class="node">
<title>Graph_graph1</title>
<g id="a_node1"><a xlink:href="Graph.html#graph1" xlink:title="graph1">
<ellipse fill="#f070d1" stroke="#000000" cx="649" cy="-152.7416" rx="44.3627" ry="18"/>
<ellipse fill="none" stroke="#000000" cx="649" cy="-152.7416" rx="48.3778" ry="22"/>
<ellipse fill="none" stroke="#000000" cx="649" cy="-152.7416" rx="52.3929" ry="26"/>
<text text-anchor="middle" x="649" y="-149.0416" font-family="Times,serif" font-size="14.00" fill="#000000">graph1</text>
</a>
</g>
</g>
<!-- Graph_Graph -->
<g id="node8" class="node">
<title>Graph_Graph</title>
<g id="a_node8"><a xlink:href="Graph.html#Graph" xlink:title="Graph">
<ellipse fill="#e2cdfa" stroke="#000000" cx="390" cy="-45.7416" rx="39.7935" ry="18"/>
<text text-anchor="middle" x="390" y="-42.0416" font-family="Times,serif" font-size="14.00" fill="#000000">Graph</text>
</a>
</g>
</g>
<!-- Graph_graph1&#45;&gt;Graph_Graph -->
<g id="edge1" class="edge">
<title>Graph_graph1&#45;&gt;Graph_Graph</title>
<path fill="none" stroke="#000000" d="M609.3317,-135.7346C602.236,-132.7208 594.9049,-129.6253 588,-126.7416 533.0682,-103.8002 469.3044,-77.8334 429.3022,-61.6229"/>
<polygon fill="#000000" stroke="#000000" points="430.4928,-58.329 419.9103,-57.8193 427.8652,-64.8172 430.4928,-58.329"/>
</g>
<!-- Graph_graph0 -->
<g id="node2" class="node">
<title>Graph_graph0</title>
<g id="a_node2"><a xlink:href="Graph.html#graph0" xlink:title="graph0">
<ellipse fill="#f070d1" stroke="#000000" cx="527" cy="-152.7416" rx="44.3627" ry="18"/>
<ellipse fill="none" stroke="#000000" cx="527" cy="-152.7416" rx="48.3778" ry="22"/>
<ellipse fill="none" stroke="#000000" cx="527" cy="-152.7416" rx="52.3929" ry="26"/>
<text text-anchor="middle" x="527" y="-149.0416" font-family="Times,serif" font-size="14.00" fill="#000000">graph0</text>
</a>
</g>
</g>
<!-- Graph_graph0&#45;&gt;Graph_Graph -->
<g id="edge2" class="edge">
<title>Graph_graph0&#45;&gt;Graph_Graph</title>
<path fill="none" stroke="#000000" d="M498.6135,-130.5711C475.0201,-112.1441 441.624,-86.061 418.1081,-67.6946"/>
<polygon fill="#000000" stroke="#000000" points="419.9634,-64.7026 409.9278,-61.3057 415.6546,-70.2194 419.9634,-64.7026"/>
</g>
<!-- Graph_Graph_sind -->
<g id="node3" class="node">
<title>Graph_Graph_sind</title>
<g id="a_node3"><a xlink:href="Graph.html#Graph_sind" xlink:title="Graph_sind">
<ellipse fill="#f070d1" stroke="#000000" cx="233" cy="-152.7416" rx="63.8675" ry="18"/>
<ellipse fill="none" stroke="#000000" cx="233" cy="-152.7416" rx="67.8784" ry="22"/>
<ellipse fill="none" stroke="#000000" cx="233" cy="-152.7416" rx="71.8892" ry="26"/>
<text text-anchor="middle" x="233" y="-149.0416" font-family="Times,serif" font-size="14.00" fill="#000000">Graph_sind</text>
</a>
</g>
</g>
<!-- Graph_Build_Graph -->
<g id="node7" class="node">
<title>Graph_Build_Graph</title>
<g id="a_node7"><a xlink:href="Graph.html#Build_Graph" xlink:title="Build_Graph">
<ellipse fill="#7faaff" stroke="#000000" cx="233" cy="-45.7416" rx="68.7879" ry="18"/>
<text text-anchor="middle" x="233" y="-42.0416" font-family="Times,serif" font-size="14.00" fill="#000000">Build_Graph</text>
</a>
</g>
</g>
<!-- Graph_Graph_sind&#45;&gt;Graph_Build_Graph -->
<g id="edge3" class="edge">
<title>Graph_Graph_sind&#45;&gt;Graph_Build_Graph</title>
<path fill="none" stroke="#000000" d="M233,-126.5664C233,-110.6302 233,-90.2723 233,-73.975"/>
<polygon fill="#000000" stroke="#000000" points="236.5001,-73.939 233,-63.9391 229.5001,-73.9391 236.5001,-73.939"/>
</g>
<!-- Graph_Graph_sind&#45;&gt;Graph_Graph -->
<g id="edge4" class="edge">
<title>Graph_Graph_sind&#45;&gt;Graph_Graph</title>
<path fill="none" stroke="#000000" d="M266.6804,-129.7874C294.2035,-111.0296 332.7811,-84.7379 359.4256,-66.5789"/>
<polygon fill="#000000" stroke="#000000" points="361.6786,-69.279 367.9709,-60.7551 357.7363,-63.4946 361.6786,-69.279"/>
</g>
<!-- Graph_Graph_rec -->
<g id="node4" class="node">
<title>Graph_Graph_rec</title>
<g id="a_node4"><a xlink:href="Graph.html#Graph_rec" xlink:title="Graph_rec">
<ellipse fill="#f070d1" stroke="#000000" cx="84" cy="-270.7416" rx="59.6142" ry="18"/>
<ellipse fill="none" stroke="#000000" cx="84" cy="-270.7416" rx="63.6021" ry="22"/>
<ellipse fill="none" stroke="#000000" cx="84" cy="-270.7416" rx="67.59" ry="26"/>
<text text-anchor="middle" x="84" y="-267.0416" font-family="Times,serif" font-size="14.00" fill="#000000">Graph_rec</text>
</a>
</g>
</g>
<!-- Graph_Graph_rect -->
<g id="node6" class="node">
<title>Graph_Graph_rect</title>
<g id="a_node6"><a xlink:href="Graph.html#Graph_rect" xlink:title="Graph_rect">
<ellipse fill="#f070d1" stroke="#000000" cx="80" cy="-152.7416" rx="63.8893" ry="18"/>
<text text-anchor="middle" x="80" y="-149.0416" font-family="Times,serif" font-size="14.00" fill="#000000">Graph_rect</text>
</a>
</g>
</g>
<!-- Graph_Graph_rec&#45;&gt;Graph_Graph_rect -->
<g id="edge5" class="edge">
<title>Graph_Graph_rec&#45;&gt;Graph_Graph_rect</title>
<path fill="none" stroke="#000000" d="M83.1123,-244.5535C82.4714,-225.6482 81.6071,-200.1524 80.952,-180.8253"/>
<polygon fill="#000000" stroke="#000000" points="84.4492,-180.6794 80.6123,-170.8037 77.4532,-180.9166 84.4492,-180.6794"/>
</g>
<!-- Graph_Graph_ind -->
<g id="node5" class="node">
<title>Graph_Graph_ind</title>
<g id="a_node5"><a xlink:href="Graph.html#Graph_ind" xlink:title="Graph_ind">
<ellipse fill="#7fffd4" stroke="#000000" cx="390" cy="-152.7416" rx="59.2725" ry="18"/>
<ellipse fill="none" stroke="#000000" cx="390" cy="-152.7416" rx="63.2812" ry="22"/>
<ellipse fill="none" stroke="#000000" cx="390" cy="-152.7416" rx="67.2898" ry="26"/>
<text text-anchor="middle" x="390" y="-149.0416" font-family="Times,serif" font-size="14.00" fill="#000000">Graph_ind</text>
</a>
</g>
</g>
<!-- Graph_Graph_ind&#45;&gt;Graph_Build_Graph -->
<g id="edge6" class="edge">
<title>Graph_Graph_ind&#45;&gt;Graph_Build_Graph</title>
<path fill="none" stroke="#000000" d="M356.7043,-130.0496C330.1791,-111.9719 293.208,-86.775 266.6025,-68.6427"/>
<polygon fill="#000000" stroke="#000000" points="268.2418,-65.5243 258.0073,-62.7847 264.2996,-71.3087 268.2418,-65.5243"/>
</g>
<!-- Graph_Graph_ind&#45;&gt;Graph_Graph -->
<g id="edge7" class="edge">
<title>Graph_Graph_ind&#45;&gt;Graph_Graph</title>
<path fill="none" stroke="#000000" d="M390,-126.5664C390,-110.6302 390,-90.2723 390,-73.975"/>
<polygon fill="#000000" stroke="#000000" points="393.5001,-73.939 390,-63.9391 386.5001,-73.9391 393.5001,-73.939"/>
</g>
<!-- Graph_Graph_rect&#45;&gt;Graph_Build_Graph -->
<g id="edge8" class="edge">
<title>Graph_Graph_rect&#45;&gt;Graph_Build_Graph</title>
<path fill="none" stroke="#000000" d="M103.9063,-136.0228C129.8027,-117.9122 171.2839,-88.9025 200.2129,-68.6711"/>
<polygon fill="#000000" stroke="#000000" points="202.5677,-71.2953 208.7567,-62.696 198.556,-65.5589 202.5677,-71.2953"/>
</g>
<!-- Graph_Graph_rect&#45;&gt;Graph_Graph -->
<g id="edge9" class="edge">
<title>Graph_Graph_rect&#45;&gt;Graph_Graph</title>
<path fill="none" stroke="#000000" d="M119.1893,-138.4412C129.8212,-134.6022 141.34,-130.4799 152,-126.7416 220.6377,-102.671 300.7673,-75.6146 348.3419,-59.6596"/>
<polygon fill="#000000" stroke="#000000" points="349.6141,-62.9246 357.9838,-56.4286 347.3899,-56.2874 349.6141,-62.9246"/>
</g>
</g>
</svg>
