<?xml version="1.0" encoding="UTF-8" standalone="no"?>
<!DOCTYPE svg PUBLIC "-//W3C//DTD SVG 1.1//EN"
 "http://www.w3.org/Graphics/SVG/1.1/DTD/svg11.dtd">
<!-- Generated by graphviz version 2.40.1 (20161225.0304)
 -->
<!-- Title: HoTT_Diagrams_Diagram Pages: 1 -->
<svg width="2518pt" height="1263pt"
 viewBox="0.00 0.00 2518.00 1263.00" xmlns="http://www.w3.org/2000/svg" xmlns:xlink="http://www.w3.org/1999/xlink">
<g id="graph0" class="graph" transform="scale(1 1) rotate(0) translate(4 1259)">
<title>HoTT_Diagrams_Diagram</title>
<polygon fill="#ffffff" stroke="transparent" points="-4,4 -4,-1259 2514,-1259 2514,4 -4,4"/>
<g id="clust1" class="cluster">
<title>cluster_Diagram</title>
<polygon fill="#ffffc3" stroke="#000000" points="8,-22.6637 8,-1232.3363 2502,-1232.3363 2502,-22.6637 8,-22.6637"/>
<text text-anchor="middle" x="47" y="-1217.1363" font-family="Times,serif" font-size="14.00" fill="#000000">Diagram</text>
</g>
<!-- Diagram_transitive_diagram_equiv -->
<g id="node1" class="node">
<title>Diagram_transitive_diagram_equiv</title>
<g id="a_node1"><a xlink:href="Diagram.html#transitive_diagram_equiv" xlink:title="transitive_diagram_equiv">
<ellipse fill="#f070d1" stroke="#000000" cx="911" cy="-821.6637" rx="129.1866" ry="18"/>
<ellipse fill="none" stroke="#000000" cx="911" cy="-821.6637" rx="133.1819" ry="22"/>
<ellipse fill="none" stroke="#000000" cx="911" cy="-821.6637" rx="137.1772" ry="26"/>
<text text-anchor="middle" x="911" y="-817.9637" font-family="Times,serif" font-size="14.00" fill="#000000">transitive_diagram_equiv</text>
</a>
</g>
</g>
<!-- Diagram_Build_diagram_equiv -->
<g id="node13" class="node">
<title>Diagram_Build_diagram_equiv</title>
<g id="a_node13"><a xlink:href="Diagram.html#Build_diagram_equiv" xlink:title="Build_diagram_equiv">
<ellipse fill="#7faaff" stroke="#000000" cx="668" cy="-572.6637" rx="108.5808" ry="18"/>
<text text-anchor="middle" x="668" y="-568.9637" font-family="Times,serif" font-size="14.00" fill="#000000">Build_diagram_equiv</text>
</a>
</g>
</g>
<!-- Diagram_transitive_diagram_equiv&#45;&gt;Diagram_Build_diagram_equiv -->
<g id="edge1" class="edge">
<title>Diagram_transitive_diagram_equiv&#45;&gt;Diagram_Build_diagram_equiv</title>
<path fill="none" stroke="#000000" d="M885.91,-795.9541C839.159,-748.0488 739.2576,-645.6807 692.7589,-598.0339"/>
<polygon fill="#000000" stroke="#000000" points="694.9972,-595.3162 685.508,-590.604 689.9875,-600.2053 694.9972,-595.3162"/>
</g>
<!-- Diagram_diagram_equiv -->
<g id="node14" class="node">
<title>Diagram_diagram_equiv</title>
<g id="a_node14"><a xlink:href="Diagram.html#diagram_equiv" xlink:title="diagram_equiv">
<ellipse fill="#e2cdfa" stroke="#000000" cx="1093" cy="-572.6637" rx="79.0865" ry="18"/>
<text text-anchor="middle" x="1093" y="-568.9637" font-family="Times,serif" font-size="14.00" fill="#000000">diagram_equiv</text>
</a>
</g>
</g>
<!-- Diagram_transitive_diagram_equiv&#45;&gt;Diagram_diagram_equiv -->
<g id="edge2" class="edge">
<title>Diagram_transitive_diagram_equiv&#45;&gt;Diagram_diagram_equiv</title>
<path fill="none" stroke="#000000" d="M930.1332,-795.4869C965.1017,-747.6454 1038.9418,-646.6224 1073.8918,-598.8062"/>
<polygon fill="#000000" stroke="#000000" points="1076.8716,-600.6606 1079.947,-590.5219 1071.2203,-596.5299 1076.8716,-600.6606"/>
</g>
<!-- Diagram_diagram_comp -->
<g id="node15" class="node">
<title>Diagram_diagram_comp</title>
<g id="a_node15"><a xlink:href="Diagram.html#diagram_comp" xlink:title="diagram_comp">
<ellipse fill="#f070d1" stroke="#000000" cx="1517" cy="-572.6637" rx="79.0865" ry="18"/>
<text text-anchor="middle" x="1517" y="-568.9637" font-family="Times,serif" font-size="14.00" fill="#000000">diagram_comp</text>
</a>
</g>
</g>
<!-- Diagram_transitive_diagram_equiv&#45;&gt;Diagram_diagram_comp -->
<g id="edge3" class="edge">
<title>Diagram_transitive_diagram_equiv&#45;&gt;Diagram_diagram_comp</title>
<path fill="none" stroke="#000000" d="M968.5573,-798.0139C1087.5749,-749.1106 1358.8224,-637.6574 1469.0723,-592.3567"/>
<polygon fill="#000000" stroke="#000000" points="1470.6867,-595.4774 1478.6061,-588.4394 1468.0263,-589.0026 1470.6867,-595.4774"/>
</g>
<!-- Diagram_DiagramMap_obj -->
<g id="node19" class="node">
<title>Diagram_DiagramMap_obj</title>
<g id="a_node19"><a xlink:href="Diagram.html#DiagramMap_obj" xlink:title="DiagramMap_obj">
<ellipse fill="#f070d1" stroke="#000000" cx="905" cy="-572.6637" rx="90.1842" ry="18"/>
<text text-anchor="middle" x="905" y="-568.9637" font-family="Times,serif" font-size="14.00" fill="#000000">DiagramMap_obj</text>
</a>
</g>
</g>
<!-- Diagram_transitive_diagram_equiv&#45;&gt;Diagram_DiagramMap_obj -->
<g id="edge4" class="edge">
<title>Diagram_transitive_diagram_equiv&#45;&gt;Diagram_DiagramMap_obj</title>
<path fill="none" stroke="#000000" d="M910.3692,-795.4869C909.2336,-748.357 906.8543,-649.616 905.6822,-600.9749"/>
<polygon fill="#000000" stroke="#000000" points="909.178,-600.7552 905.438,-590.8424 902.18,-600.9239 909.178,-600.7552"/>
</g>
<!-- Diagram_symmetric_diagram_equiv -->
<g id="node2" class="node">
<title>Diagram_symmetric_diagram_equiv</title>
<g id="a_node2"><a xlink:href="Diagram.html#symmetric_diagram_equiv" xlink:title="symmetric_diagram_equiv">
<ellipse fill="#f070d1" stroke="#000000" cx="158" cy="-1070.6637" rx="133.7826" ry="18"/>
<ellipse fill="none" stroke="#000000" cx="158" cy="-1070.6637" rx="137.7795" ry="22"/>
<ellipse fill="none" stroke="#000000" cx="158" cy="-1070.6637" rx="141.7763" ry="26"/>
<text text-anchor="middle" x="158" y="-1066.9637" font-family="Times,serif" font-size="14.00" fill="#000000">symmetric_diagram_equiv</text>
</a>
</g>
</g>
<!-- Diagram_diagram_equiv_inv -->
<g id="node6" class="node">
<title>Diagram_diagram_equiv_inv</title>
<g id="a_node6"><a xlink:href="Diagram.html#diagram_equiv_inv" xlink:title="diagram_equiv_inv">
<ellipse fill="#f070d1" stroke="#000000" cx="1887" cy="-821.6637" rx="98.5829" ry="18"/>
<text text-anchor="middle" x="1887" y="-817.9637" font-family="Times,serif" font-size="14.00" fill="#000000">diagram_equiv_inv</text>
</a>
</g>
</g>
<!-- Diagram_symmetric_diagram_equiv&#45;&gt;Diagram_diagram_equiv_inv -->
<g id="edge5" class="edge">
<title>Diagram_symmetric_diagram_equiv&#45;&gt;Diagram_diagram_equiv_inv</title>
<path fill="none" stroke="#000000" d="M260.2597,-1052.525C276.5469,-1049.7892 293.2231,-1047.0782 309,-1044.6637 960.5872,-944.9415 1131.0415,-968.7432 1779,-847.6637 1792.5006,-845.1409 1806.8476,-842.0097 1820.5253,-838.8038"/>
<polygon fill="#000000" stroke="#000000" points="1821.4286,-842.1866 1830.3448,-836.4638 1819.8059,-835.3773 1821.4286,-842.1866"/>
</g>
<!-- Diagram_symmetric_diagram_equiv&#45;&gt;Diagram_Build_diagram_equiv -->
<g id="edge6" class="edge">
<title>Diagram_symmetric_diagram_equiv&#45;&gt;Diagram_Build_diagram_equiv</title>
<path fill="none" stroke="#000000" d="M128.6331,-1045.191C73.9847,-994.685 -32.5966,-879.497 27,-795.6637 61.6957,-746.8578 445.4879,-634.9458 602.0714,-590.9271"/>
<polygon fill="#000000" stroke="#000000" points="603.3679,-594.1986 612.0506,-588.1273 601.4769,-587.4588 603.3679,-594.1986"/>
</g>
<!-- Diagram_reflexive_diagram_equiv -->
<g id="node3" class="node">
<title>Diagram_reflexive_diagram_equiv</title>
<g id="a_node3"><a xlink:href="Diagram.html#reflexive_diagram_equiv" xlink:title="reflexive_diagram_equiv">
<ellipse fill="#f070d1" stroke="#000000" cx="1637" cy="-821.6637" rx="124.5909" ry="18"/>
<ellipse fill="none" stroke="#000000" cx="1637" cy="-821.6637" rx="128.5845" ry="22"/>
<ellipse fill="none" stroke="#000000" cx="1637" cy="-821.6637" rx="132.5782" ry="26"/>
<text text-anchor="middle" x="1637" y="-817.9637" font-family="Times,serif" font-size="14.00" fill="#000000">reflexive_diagram_equiv</text>
</a>
</g>
</g>
<!-- Diagram_reflexive_diagram_equiv&#45;&gt;Diagram_Build_diagram_equiv -->
<g id="edge7" class="edge">
<title>Diagram_reflexive_diagram_equiv&#45;&gt;Diagram_Build_diagram_equiv</title>
<path fill="none" stroke="#000000" d="M1556.4647,-800.9688C1370.0218,-753.0594 911.3614,-635.1992 736.8871,-590.3653"/>
<polygon fill="#000000" stroke="#000000" points="737.6079,-586.9369 727.0515,-587.8379 735.8657,-593.7166 737.6079,-586.9369"/>
</g>
<!-- Diagram_reflexive_diagram_equiv&#45;&gt;Diagram_diagram_equiv -->
<g id="edge8" class="edge">
<title>Diagram_reflexive_diagram_equiv&#45;&gt;Diagram_diagram_equiv</title>
<path fill="none" stroke="#000000" d="M1584.3447,-797.5622C1477.5318,-748.6718 1237.0948,-638.6188 1137.5051,-593.0345"/>
<polygon fill="#000000" stroke="#000000" points="1138.8657,-589.8082 1128.3163,-588.8286 1135.9523,-596.1731 1138.8657,-589.8082"/>
</g>
<!-- Diagram_diagram_idmap -->
<g id="node16" class="node">
<title>Diagram_diagram_idmap</title>
<g id="a_node16"><a xlink:href="Diagram.html#diagram_idmap" xlink:title="diagram_idmap">
<ellipse fill="#f070d1" stroke="#000000" cx="1697" cy="-572.6637" rx="83.3857" ry="18"/>
<text text-anchor="middle" x="1697" y="-568.9637" font-family="Times,serif" font-size="14.00" fill="#000000">diagram_idmap</text>
</a>
</g>
</g>
<!-- Diagram_reflexive_diagram_equiv&#45;&gt;Diagram_diagram_idmap -->
<g id="edge9" class="edge">
<title>Diagram_reflexive_diagram_equiv&#45;&gt;Diagram_diagram_idmap</title>
<path fill="none" stroke="#000000" d="M1643.3076,-795.4869C1654.6881,-748.258 1678.5573,-649.2009 1690.2517,-600.669"/>
<polygon fill="#000000" stroke="#000000" points="1693.6795,-601.3841 1692.6196,-590.8424 1686.8743,-599.7442 1693.6795,-601.3841"/>
</g>
<!-- Diagram_diagram_inv_is_retraction -->
<g id="node4" class="node">
<title>Diagram_diagram_inv_is_retraction</title>
<g id="a_node4"><a xlink:href="Diagram.html#diagram_inv_is_retraction" xlink:title="diagram_inv_is_retraction">
<ellipse fill="#f070d1" stroke="#000000" cx="1833" cy="-1070.6637" rx="132.6715" ry="18"/>
<ellipse fill="none" stroke="#000000" cx="1833" cy="-1070.6637" rx="136.674" ry="22"/>
<ellipse fill="none" stroke="#000000" cx="1833" cy="-1070.6637" rx="140.6765" ry="26"/>
<text text-anchor="middle" x="1833" y="-1066.9637" font-family="Times,serif" font-size="14.00" fill="#000000">diagram_inv_is_retraction</text>
</a>
</g>
</g>
<!-- Diagram_diagram_inv_is_retraction&#45;&gt;Diagram_diagram_equiv_inv -->
<g id="edge10" class="edge">
<title>Diagram_diagram_inv_is_retraction&#45;&gt;Diagram_diagram_equiv_inv</title>
<path fill="none" stroke="#000000" d="M1838.6769,-1044.4869C1848.9193,-997.258 1870.4016,-898.2009 1880.9265,-849.669"/>
<polygon fill="#000000" stroke="#000000" points="1884.3586,-850.3571 1883.0576,-839.8424 1877.5176,-848.8734 1884.3586,-850.3571"/>
</g>
<!-- Diagram_diagram_inv_is_retraction&#45;&gt;Diagram_Build_diagram_equiv -->
<g id="edge11" class="edge">
<title>Diagram_diagram_inv_is_retraction&#45;&gt;Diagram_Build_diagram_equiv</title>
<path fill="none" stroke="#000000" d="M1701.0656,-1061.5413C1342.2442,-1035.4008 369.185,-955.1459 276,-847.6637 168.9073,-724.1399 457.6708,-628.1146 597.3053,-590.2324"/>
<polygon fill="#000000" stroke="#000000" points="598.3426,-593.5779 607.0938,-587.6057 596.5284,-586.8171 598.3426,-593.5779"/>
</g>
<!-- Diagram_diagram_inv_is_retraction&#45;&gt;Diagram_diagram_comp -->
<g id="edge12" class="edge">
<title>Diagram_diagram_inv_is_retraction&#45;&gt;Diagram_diagram_comp</title>
<path fill="none" stroke="#000000" d="M1860.3189,-1045.0311C1899.1071,-1006.5515 1968.3851,-929.5837 1995,-847.6637 2002.1411,-825.6835 2007.4158,-815.1565 1995,-795.6637 1946.4812,-719.4892 1688.948,-628.3089 1573.3016,-590.471"/>
<polygon fill="#000000" stroke="#000000" points="1574.1523,-587.0672 1563.56,-587.3002 1571.9857,-593.7235 1574.1523,-587.0672"/>
</g>
<!-- Diagram_diagram_inv_is_retraction&#45;&gt;Diagram_diagram_idmap -->
<g id="edge13" class="edge">
<title>Diagram_diagram_inv_is_retraction&#45;&gt;Diagram_diagram_idmap</title>
<path fill="none" stroke="#000000" d="M1870.5322,-1045.4949C1936.0554,-998.2481 2059.8108,-892.3117 2010,-795.6637 1955.1507,-689.2394 1823.4079,-622.4445 1749.5178,-592.0121"/>
<polygon fill="#000000" stroke="#000000" points="1750.5101,-588.638 1739.9274,-588.1326 1747.8851,-595.1272 1750.5101,-588.638"/>
</g>
<!-- Diagram_path_DiagramMap -->
<g id="node17" class="node">
<title>Diagram_path_DiagramMap</title>
<g id="a_node17"><a xlink:href="Diagram.html#path_DiagramMap" xlink:title="path_DiagramMap">
<ellipse fill="#f070d1" stroke="#000000" cx="2181" cy="-821.6637" rx="96.6831" ry="18"/>
<text text-anchor="middle" x="2181" y="-817.9637" font-family="Times,serif" font-size="14.00" fill="#000000">path_DiagramMap</text>
</a>
</g>
</g>
<!-- Diagram_diagram_inv_is_retraction&#45;&gt;Diagram_path_DiagramMap -->
<g id="edge14" class="edge">
<title>Diagram_diagram_inv_is_retraction&#45;&gt;Diagram_path_DiagramMap</title>
<path fill="none" stroke="#000000" d="M1868.2832,-1045.4179C1935.7547,-997.1409 2082.1936,-892.3613 2147.9112,-845.3392"/>
<polygon fill="#000000" stroke="#000000" points="2150.1644,-848.0308 2156.2604,-839.3653 2146.0911,-842.3379 2150.1644,-848.0308"/>
</g>
<!-- Diagram_diagram_inv_is_section -->
<g id="node5" class="node">
<title>Diagram_diagram_inv_is_section</title>
<g id="a_node5"><a xlink:href="Diagram.html#diagram_inv_is_section" xlink:title="diagram_inv_is_section">
<ellipse fill="#f070d1" stroke="#000000" cx="2119" cy="-1070.6637" rx="119.6732" ry="18"/>
<ellipse fill="none" stroke="#000000" cx="2119" cy="-1070.6637" rx="123.676" ry="22"/>
<ellipse fill="none" stroke="#000000" cx="2119" cy="-1070.6637" rx="127.6788" ry="26"/>
<text text-anchor="middle" x="2119" y="-1066.9637" font-family="Times,serif" font-size="14.00" fill="#000000">diagram_inv_is_section</text>
</a>
</g>
</g>
<!-- Diagram_diagram_inv_is_section&#45;&gt;Diagram_diagram_equiv_inv -->
<g id="edge15" class="edge">
<title>Diagram_diagram_inv_is_section&#45;&gt;Diagram_diagram_equiv_inv</title>
<path fill="none" stroke="#000000" d="M2095.0457,-1044.9541C2050.4111,-997.0488 1955.0319,-894.6807 1910.6381,-847.0339"/>
<polygon fill="#000000" stroke="#000000" points="1913.0932,-844.5345 1903.7155,-839.604 1907.9716,-849.3063 1913.0932,-844.5345"/>
</g>
<!-- Diagram_diagram_inv_is_section&#45;&gt;Diagram_Build_diagram_equiv -->
<g id="edge16" class="edge">
<title>Diagram_diagram_inv_is_section&#45;&gt;Diagram_Build_diagram_equiv</title>
<path fill="none" stroke="#000000" d="M2028.0804,-1052.3309C2013.053,-1049.5746 1997.6125,-1046.908 1983,-1044.6637 1608.8476,-987.1962 542.715,-1130.3863 291,-847.6637 275.632,-830.4025 279.5502,-815.7392 291,-795.6637 356.9986,-679.9445 509.2111,-618.1746 598.7381,-590.7068"/>
<polygon fill="#000000" stroke="#000000" points="599.9657,-593.9925 608.5343,-587.7613 597.95,-587.289 599.9657,-593.9925"/>
</g>
<!-- Diagram_diagram_inv_is_section&#45;&gt;Diagram_diagram_comp -->
<g id="edge17" class="edge">
<title>Diagram_diagram_inv_is_section&#45;&gt;Diagram_diagram_comp</title>
<path fill="none" stroke="#000000" d="M2114.5204,-1044.4428C2104.134,-991.0445 2073.6921,-868.583 2003,-795.6637 1938.8,-729.441 1681.4525,-631.6668 1569.4818,-591.2208"/>
<polygon fill="#000000" stroke="#000000" points="1570.6647,-587.9268 1560.0702,-587.8326 1568.2935,-594.513 1570.6647,-587.9268"/>
</g>
<!-- Diagram_diagram_inv_is_section&#45;&gt;Diagram_diagram_idmap -->
<g id="edge18" class="edge">
<title>Diagram_diagram_inv_is_section&#45;&gt;Diagram_diagram_idmap</title>
<path fill="none" stroke="#000000" d="M2114.9763,-1044.4931C2105.2596,-983.8732 2079.1528,-835.9341 2050,-795.6637 1973.2617,-689.6607 1829.209,-622.2658 1750.9423,-591.7415"/>
<polygon fill="#000000" stroke="#000000" points="1751.8614,-588.3453 1741.2713,-588.0271 1749.3516,-594.8799 1751.8614,-588.3453"/>
</g>
<!-- Diagram_diagram_inv_is_section&#45;&gt;Diagram_path_DiagramMap -->
<g id="edge19" class="edge">
<title>Diagram_diagram_inv_is_section&#45;&gt;Diagram_path_DiagramMap</title>
<path fill="none" stroke="#000000" d="M2125.5179,-1044.4869C2137.2777,-997.258 2161.9425,-898.2009 2174.0268,-849.669"/>
<polygon fill="#000000" stroke="#000000" points="2177.4536,-850.3918 2176.4736,-839.8424 2170.661,-848.7005 2177.4536,-850.3918"/>
</g>
<!-- Diagram_diagram_equiv_inv&#45;&gt;Diagram_diagram_equiv -->
<g id="edge20" class="edge">
<title>Diagram_diagram_equiv_inv&#45;&gt;Diagram_diagram_equiv</title>
<path fill="none" stroke="#000000" d="M1837.3317,-806.0876C1696.9472,-762.0627 1297.8313,-636.8992 1149.4596,-590.3695"/>
<polygon fill="#000000" stroke="#000000" points="1150.2246,-586.9414 1139.6355,-587.2886 1148.13,-593.6207 1150.2246,-586.9414"/>
</g>
<!-- Diagram_DiagramMap_comm -->
<g id="node18" class="node">
<title>Diagram_DiagramMap_comm</title>
<g id="a_node18"><a xlink:href="Diagram.html#DiagramMap_comm" xlink:title="DiagramMap_comm">
<ellipse fill="#f070d1" stroke="#000000" cx="1315" cy="-572.6637" rx="104.7816" ry="18"/>
<text text-anchor="middle" x="1315" y="-568.9637" font-family="Times,serif" font-size="14.00" fill="#000000">DiagramMap_comm</text>
</a>
</g>
</g>
<!-- Diagram_diagram_equiv_inv&#45;&gt;Diagram_DiagramMap_comm -->
<g id="edge21" class="edge">
<title>Diagram_diagram_equiv_inv&#45;&gt;Diagram_DiagramMap_comm</title>
<path fill="none" stroke="#000000" d="M1848.5813,-804.9394C1747.4513,-760.9161 1474.0325,-641.8928 1362.9207,-593.5242"/>
<polygon fill="#000000" stroke="#000000" points="1364.1932,-590.261 1353.6273,-589.4787 1361.3992,-596.6792 1364.1932,-590.261"/>
</g>
<!-- Diagram_Build_DiagramMap -->
<g id="node24" class="node">
<title>Diagram_Build_DiagramMap</title>
<g id="a_node24"><a xlink:href="Diagram.html#Build_DiagramMap" xlink:title="Build_DiagramMap">
<ellipse fill="#7faaff" stroke="#000000" cx="2032" cy="-322.6637" rx="100.9827" ry="18"/>
<text text-anchor="middle" x="2032" y="-318.9637" font-family="Times,serif" font-size="14.00" fill="#000000">Build_DiagramMap</text>
</a>
</g>
</g>
<!-- Diagram_diagram_equiv_inv&#45;&gt;Diagram_Build_DiagramMap -->
<g id="edge22" class="edge">
<title>Diagram_diagram_equiv_inv&#45;&gt;Diagram_Build_DiagramMap</title>
<path fill="none" stroke="#000000" d="M1942.0568,-806.6862C2026.3364,-780.4445 2184.5437,-717.3133 2251,-598.6637 2309.0939,-494.9441 2152.7596,-389.6348 2074.093,-344.9284"/>
<polygon fill="#000000" stroke="#000000" points="2075.3391,-341.6148 2064.9041,-339.7811 2071.918,-347.7219 2075.3391,-341.6148"/>
</g>
<!-- Diagram_arr -->
<g id="node28" class="node">
<title>Diagram_arr</title>
<g id="a_node28"><a xlink:href="Diagram.html#arr" xlink:title="arr">
<ellipse fill="#f070d1" stroke="#000000" cx="1038" cy="-322.6637" rx="27" ry="18"/>
<text text-anchor="middle" x="1038" y="-318.9637" font-family="Times,serif" font-size="14.00" fill="#000000">arr</text>
</a>
</g>
</g>
<!-- Diagram_diagram_equiv_inv&#45;&gt;Diagram_arr -->
<g id="edge23" class="edge">
<title>Diagram_diagram_equiv_inv&#45;&gt;Diagram_arr</title>
<path fill="none" stroke="#000000" d="M1831.7559,-806.6558C1677.1988,-764.263 1248.5607,-643.7738 1201,-598.6637 1183.0342,-581.6235 1192.1628,-568.7663 1181,-546.6637 1142.4387,-470.3109 1084.7303,-387.0663 1055.8321,-346.957"/>
<polygon fill="#000000" stroke="#000000" points="1058.6562,-344.8894 1049.9551,-338.8444 1052.9873,-348.9961 1058.6562,-344.8894"/>
</g>
<!-- Diagram_diag_equiv_isequiv -->
<g id="node7" class="node">
<title>Diagram_diag_equiv_isequiv</title>
<g id="a_node7"><a xlink:href="Diagram.html#diag_equiv_isequiv" xlink:title="diag_equiv_isequiv">
<ellipse fill="#f070d1" stroke="#000000" cx="1379" cy="-821.6637" rx="98.5985" ry="18"/>
<ellipse fill="none" stroke="#000000" cx="1379" cy="-821.6637" rx="102.5907" ry="22"/>
<ellipse fill="none" stroke="#000000" cx="1379" cy="-821.6637" rx="106.5829" ry="26"/>
<text text-anchor="middle" x="1379" y="-817.9637" font-family="Times,serif" font-size="14.00" fill="#000000">diag_equiv_isequiv</text>
</a>
</g>
</g>
<!-- Diagram_diag_equiv_isequiv&#45;&gt;Diagram_diagram_equiv -->
<g id="edge24" class="edge">
<title>Diagram_diag_equiv_isequiv&#45;&gt;Diagram_diagram_equiv</title>
<path fill="none" stroke="#000000" d="M1350.0029,-796.4179C1294.8916,-748.4364 1175.6742,-644.6422 1121.1931,-597.2094"/>
<polygon fill="#000000" stroke="#000000" points="1123.1723,-594.2919 1113.332,-590.3653 1118.5759,-599.5714 1123.1723,-594.2919"/>
</g>
<!-- Diagram_diag_equiv_map -->
<g id="node8" class="node">
<title>Diagram_diag_equiv_map</title>
<g id="a_node8"><a xlink:href="Diagram.html#diag_equiv_map" xlink:title="diag_equiv_map">
<ellipse fill="#f070d1" stroke="#000000" cx="1160" cy="-821.6637" rx="85.6029" ry="18"/>
<ellipse fill="none" stroke="#000000" cx="1160" cy="-821.6637" rx="89.5941" ry="22"/>
<ellipse fill="none" stroke="#000000" cx="1160" cy="-821.6637" rx="93.5852" ry="26"/>
<text text-anchor="middle" x="1160" y="-817.9637" font-family="Times,serif" font-size="14.00" fill="#000000">diag_equiv_map</text>
</a>
</g>
</g>
<!-- Diagram_diag_equiv_map&#45;&gt;Diagram_diagram_equiv -->
<g id="edge25" class="edge">
<title>Diagram_diag_equiv_map&#45;&gt;Diagram_diagram_equiv</title>
<path fill="none" stroke="#000000" d="M1152.9565,-795.4869C1140.2483,-748.258 1113.5944,-649.2009 1100.5356,-600.669"/>
<polygon fill="#000000" stroke="#000000" points="1103.8697,-599.5895 1097.8915,-590.8424 1097.1101,-601.4084 1103.8697,-599.5895"/>
</g>
<!-- Diagram_diagram_equiv_sind -->
<g id="node9" class="node">
<title>Diagram_diagram_equiv_sind</title>
<g id="a_node9"><a xlink:href="Diagram.html#diagram_equiv_sind" xlink:title="diagram_equiv_sind">
<ellipse fill="#f070d1" stroke="#000000" cx="412" cy="-821.6637" rx="103.9822" ry="18"/>
<ellipse fill="none" stroke="#000000" cx="412" cy="-821.6637" rx="107.9819" ry="22"/>
<ellipse fill="none" stroke="#000000" cx="412" cy="-821.6637" rx="111.9815" ry="26"/>
<text text-anchor="middle" x="412" y="-817.9637" font-family="Times,serif" font-size="14.00" fill="#000000">diagram_equiv_sind</text>
</a>
</g>
</g>
<!-- Diagram_diagram_equiv_sind&#45;&gt;Diagram_Build_diagram_equiv -->
<g id="edge26" class="edge">
<title>Diagram_diagram_equiv_sind&#45;&gt;Diagram_Build_diagram_equiv</title>
<path fill="none" stroke="#000000" d="M438.4323,-795.9541C487.7859,-747.9501 593.3645,-645.2583 642.2189,-597.7398"/>
<polygon fill="#000000" stroke="#000000" points="644.8273,-600.0853 649.5553,-590.604 639.9466,-595.0674 644.8273,-600.0853"/>
</g>
<!-- Diagram_diagram_equiv_sind&#45;&gt;Diagram_diagram_equiv -->
<g id="edge27" class="edge">
<title>Diagram_diagram_equiv_sind&#45;&gt;Diagram_diagram_equiv</title>
<path fill="none" stroke="#000000" d="M472.1355,-799.6758C604.1044,-751.4228 917.185,-636.9484 1041.158,-591.6191"/>
<polygon fill="#000000" stroke="#000000" points="1042.6167,-594.8124 1050.8066,-588.0912 1040.2128,-588.2381 1042.6167,-594.8124"/>
</g>
<!-- Diagram_diagram_equiv_rec -->
<g id="node10" class="node">
<title>Diagram_diagram_equiv_rec</title>
<g id="a_node10"><a xlink:href="Diagram.html#diagram_equiv_rec" xlink:title="diagram_equiv_rec">
<ellipse fill="#f070d1" stroke="#000000" cx="425" cy="-1070.6637" rx="99.3868" ry="18"/>
<ellipse fill="none" stroke="#000000" cx="425" cy="-1070.6637" rx="103.3846" ry="22"/>
<ellipse fill="none" stroke="#000000" cx="425" cy="-1070.6637" rx="107.3824" ry="26"/>
<text text-anchor="middle" x="425" y="-1066.9637" font-family="Times,serif" font-size="14.00" fill="#000000">diagram_equiv_rec</text>
</a>
</g>
</g>
<!-- Diagram_diagram_equiv_rect -->
<g id="node12" class="node">
<title>Diagram_diagram_equiv_rect</title>
<g id="a_node12"><a xlink:href="Diagram.html#diagram_equiv_rect" xlink:title="diagram_equiv_rect">
<ellipse fill="#f070d1" stroke="#000000" cx="139" cy="-821.6637" rx="103.1819" ry="18"/>
<text text-anchor="middle" x="139" y="-817.9637" font-family="Times,serif" font-size="14.00" fill="#000000">diagram_equiv_rect</text>
</a>
</g>
</g>
<!-- Diagram_diagram_equiv_rec&#45;&gt;Diagram_diagram_equiv_rect -->
<g id="edge28" class="edge">
<title>Diagram_diagram_equiv_rec&#45;&gt;Diagram_diagram_equiv_rect</title>
<path fill="none" stroke="#000000" d="M396.0029,-1045.4179C340.8916,-997.4364 221.6742,-893.6422 167.1931,-846.2094"/>
<polygon fill="#000000" stroke="#000000" points="169.1723,-843.2919 159.332,-839.3653 164.5759,-848.5714 169.1723,-843.2919"/>
</g>
<!-- Diagram_diagram_equiv_ind -->
<g id="node11" class="node">
<title>Diagram_diagram_equiv_ind</title>
<g id="a_node11"><a xlink:href="Diagram.html#diagram_equiv_ind" xlink:title="diagram_equiv_ind">
<ellipse fill="#7fffd4" stroke="#000000" cx="649" cy="-821.6637" rx="98.5985" ry="18"/>
<ellipse fill="none" stroke="#000000" cx="649" cy="-821.6637" rx="102.5907" ry="22"/>
<ellipse fill="none" stroke="#000000" cx="649" cy="-821.6637" rx="106.5829" ry="26"/>
<text text-anchor="middle" x="649" y="-817.9637" font-family="Times,serif" font-size="14.00" fill="#000000">diagram_equiv_ind</text>
</a>
</g>
</g>
<!-- Diagram_diagram_equiv_ind&#45;&gt;Diagram_Build_diagram_equiv -->
<g id="edge29" class="edge">
<title>Diagram_diagram_equiv_ind&#45;&gt;Diagram_Build_diagram_equiv</title>
<path fill="none" stroke="#000000" d="M650.9974,-795.4869C654.5937,-748.357 662.1281,-649.616 665.8397,-600.9749"/>
<polygon fill="#000000" stroke="#000000" points="669.3418,-601.0798 666.6129,-590.8424 662.3621,-600.5471 669.3418,-601.0798"/>
</g>
<!-- Diagram_diagram_equiv_ind&#45;&gt;Diagram_diagram_equiv -->
<g id="edge30" class="edge">
<title>Diagram_diagram_equiv_ind&#45;&gt;Diagram_diagram_equiv</title>
<path fill="none" stroke="#000000" d="M691.5726,-797.7885C777.6614,-749.5089 971.2717,-640.9302 1054.1529,-594.4495"/>
<polygon fill="#000000" stroke="#000000" points="1055.9855,-597.4347 1062.9955,-589.4905 1052.5615,-591.3292 1055.9855,-597.4347"/>
</g>
<!-- Diagram_diagram_equiv_rect&#45;&gt;Diagram_Build_diagram_equiv -->
<g id="edge31" class="edge">
<title>Diagram_diagram_equiv_rect&#45;&gt;Diagram_Build_diagram_equiv</title>
<path fill="none" stroke="#000000" d="M174.9444,-804.7446C268.4169,-760.7472 519.0071,-642.7946 622.4116,-594.1221"/>
<polygon fill="#000000" stroke="#000000" points="624.0992,-597.1962 631.6564,-589.7706 621.118,-590.8627 624.0992,-597.1962"/>
</g>
<!-- Diagram_diagram_equiv_rect&#45;&gt;Diagram_diagram_equiv -->
<g id="edge32" class="edge">
<title>Diagram_diagram_equiv_rect&#45;&gt;Diagram_diagram_equiv</title>
<path fill="none" stroke="#000000" d="M198.9502,-806.9085C339.802,-772.0888 702.6836,-681.4937 1004,-598.6637 1013.998,-595.9153 1024.5994,-592.9039 1034.8675,-589.9358"/>
<polygon fill="#000000" stroke="#000000" points="1035.9535,-593.2651 1044.5795,-587.1135 1034,-586.5432 1035.9535,-593.2651"/>
</g>
<!-- Diagram_DiagramMap -->
<g id="node25" class="node">
<title>Diagram_DiagramMap</title>
<g id="a_node25"><a xlink:href="Diagram.html#DiagramMap" xlink:title="DiagramMap">
<ellipse fill="#e2cdfa" stroke="#000000" cx="1517" cy="-322.6637" rx="71.4873" ry="18"/>
<text text-anchor="middle" x="1517" y="-318.9637" font-family="Times,serif" font-size="14.00" fill="#000000">DiagramMap</text>
</a>
</g>
</g>
<!-- Diagram_Build_diagram_equiv&#45;&gt;Diagram_DiagramMap -->
<g id="edge33" class="edge">
<title>Diagram_Build_diagram_equiv&#45;&gt;Diagram_DiagramMap</title>
<path fill="none" stroke="#000000" d="M721.4304,-556.9303C873.065,-512.2794 1305.1341,-385.0506 1460.4921,-339.3032"/>
<polygon fill="#000000" stroke="#000000" points="1461.7151,-342.5917 1470.3192,-336.4095 1459.7378,-335.8768 1461.7151,-342.5917"/>
</g>
<!-- Diagram_diagram_equiv&#45;&gt;Diagram_DiagramMap -->
<g id="edge34" class="edge">
<title>Diagram_diagram_equiv&#45;&gt;Diagram_DiagramMap</title>
<path fill="none" stroke="#000000" d="M1121.8099,-555.6767C1196.546,-511.6106 1396.5988,-393.6549 1479.8502,-344.568"/>
<polygon fill="#000000" stroke="#000000" points="1481.8712,-347.4395 1488.7076,-339.3455 1478.3158,-341.4097 1481.8712,-347.4395"/>
</g>
<!-- Diagram_diagram_comp&#45;&gt;Diagram_Build_DiagramMap -->
<g id="edge35" class="edge">
<title>Diagram_diagram_comp&#45;&gt;Diagram_Build_DiagramMap</title>
<path fill="none" stroke="#000000" d="M1550.7906,-556.2605C1640.955,-512.4913 1887.2213,-392.9446 1988.0602,-343.9937"/>
<polygon fill="#000000" stroke="#000000" points="1989.6023,-347.1357 1997.0699,-339.62 1986.5454,-340.8385 1989.6023,-347.1357"/>
</g>
<!-- Diagram_diagram_comp&#45;&gt;Diagram_DiagramMap -->
<g id="edge36" class="edge">
<title>Diagram_diagram_comp&#45;&gt;Diagram_DiagramMap</title>
<path fill="none" stroke="#000000" d="M1517,-554.2806C1517,-511.0128 1517,-402.5114 1517,-350.8531"/>
<polygon fill="#000000" stroke="#000000" points="1520.5001,-350.7365 1517,-340.7365 1513.5001,-350.7366 1520.5001,-350.7365"/>
</g>
<!-- Diagram_diagram_idmap&#45;&gt;Diagram_Build_DiagramMap -->
<g id="edge37" class="edge">
<title>Diagram_diagram_idmap&#45;&gt;Diagram_Build_DiagramMap</title>
<path fill="none" stroke="#000000" d="M1720.2906,-555.2826C1779.058,-511.4263 1933.429,-396.2241 2000.3284,-346.2991"/>
<polygon fill="#000000" stroke="#000000" points="2002.4969,-349.0481 2008.4179,-340.2622 1998.3103,-343.4381 2002.4969,-349.0481"/>
</g>
<!-- Diagram_diagram_idmap&#45;&gt;Diagram_DiagramMap -->
<g id="edge38" class="edge">
<title>Diagram_diagram_idmap&#45;&gt;Diagram_DiagramMap</title>
<path fill="none" stroke="#000000" d="M1684.0548,-554.6843C1652.6597,-511.0799 1572.364,-399.5582 1535.7296,-348.677"/>
<polygon fill="#000000" stroke="#000000" points="1538.5113,-346.5504 1529.8279,-340.4801 1532.8306,-350.6406 1538.5113,-346.5504"/>
</g>
<!-- Diagram_path_DiagramMap&#45;&gt;Diagram_Build_DiagramMap -->
<g id="edge39" class="edge">
<title>Diagram_path_DiagramMap&#45;&gt;Diagram_Build_DiagramMap</title>
<path fill="none" stroke="#000000" d="M2194.5545,-803.8128C2226.6005,-759.2941 2301.4739,-640.209 2262,-546.6637 2222.8955,-453.9938 2124.6375,-380.668 2070.0508,-345.4611"/>
<polygon fill="#000000" stroke="#000000" points="2071.6756,-342.3468 2061.358,-339.9389 2067.922,-348.2554 2071.6756,-342.3468"/>
</g>
<!-- Diagram_path_DiagramMap&#45;&gt;Diagram_DiagramMap -->
<g id="edge40" class="edge">
<title>Diagram_path_DiagramMap&#45;&gt;Diagram_DiagramMap</title>
<path fill="none" stroke="#000000" d="M2135.4825,-805.7578C2058.011,-776.4983 1900.0851,-707.0294 1809,-598.6637 1793.0676,-579.7086 1803.4783,-566.7513 1789,-546.6637 1723.4711,-455.7472 1612.4348,-380.2407 1554.5816,-344.6483"/>
<polygon fill="#000000" stroke="#000000" points="1556.1299,-341.4933 1545.7683,-339.2825 1552.4896,-347.4724 1556.1299,-341.4933"/>
</g>
<!-- Diagram_DiagramMap_comm&#45;&gt;Diagram_DiagramMap -->
<g id="edge41" class="edge">
<title>Diagram_DiagramMap_comm&#45;&gt;Diagram_DiagramMap</title>
<path fill="none" stroke="#000000" d="M1329.5273,-554.6843C1364.8324,-510.9899 1455.2418,-399.097 1496.2354,-348.3624"/>
<polygon fill="#000000" stroke="#000000" points="1499.0418,-350.4581 1502.6043,-340.4801 1493.597,-346.0587 1499.0418,-350.4581"/>
</g>
<!-- Diagram_DiagramMap_obj&#45;&gt;Diagram_DiagramMap -->
<g id="edge42" class="edge">
<title>Diagram_DiagramMap_obj&#45;&gt;Diagram_DiagramMap</title>
<path fill="none" stroke="#000000" d="M944.6835,-556.4531C1053.0179,-512.1988 1353.4841,-389.4594 1469.9883,-341.8678"/>
<polygon fill="#000000" stroke="#000000" points="1471.4357,-345.0574 1479.3695,-338.0356 1468.7885,-338.5772 1471.4357,-345.0574"/>
</g>
<!-- Diagram_DiagramMap_sind -->
<g id="node20" class="node">
<title>Diagram_DiagramMap_sind</title>
<g id="a_node20"><a xlink:href="Diagram.html#DiagramMap_sind" xlink:title="DiagramMap_sind">
<ellipse fill="#f070d1" stroke="#000000" cx="1922" cy="-572.6637" rx="95.5799" ry="18"/>
<ellipse fill="none" stroke="#000000" cx="1922" cy="-572.6637" rx="99.5815" ry="22"/>
<ellipse fill="none" stroke="#000000" cx="1922" cy="-572.6637" rx="103.5831" ry="26"/>
<text text-anchor="middle" x="1922" y="-568.9637" font-family="Times,serif" font-size="14.00" fill="#000000">DiagramMap_sind</text>
</a>
</g>
</g>
<!-- Diagram_DiagramMap_sind&#45;&gt;Diagram_Build_DiagramMap -->
<g id="edge43" class="edge">
<title>Diagram_DiagramMap_sind&#45;&gt;Diagram_Build_DiagramMap</title>
<path fill="none" stroke="#000000" d="M1933.564,-546.3818C1954.5157,-498.7644 1998.5557,-398.6733 2019.8966,-350.1713"/>
<polygon fill="#000000" stroke="#000000" points="2023.1454,-351.4782 2023.9692,-340.9154 2016.7382,-348.659 2023.1454,-351.4782"/>
</g>
<!-- Diagram_DiagramMap_sind&#45;&gt;Diagram_DiagramMap -->
<g id="edge44" class="edge">
<title>Diagram_DiagramMap_sind&#45;&gt;Diagram_DiagramMap</title>
<path fill="none" stroke="#000000" d="M1882.7989,-548.4655C1804.2057,-499.9512 1628.4383,-391.4527 1552.77,-344.7439"/>
<polygon fill="#000000" stroke="#000000" points="1554.3995,-341.6367 1544.0516,-339.3622 1550.7226,-347.5932 1554.3995,-341.6367"/>
</g>
<!-- Diagram_DiagramMap_rec -->
<g id="node21" class="node">
<title>Diagram_DiagramMap_rec</title>
<g id="a_node21"><a xlink:href="Diagram.html#DiagramMap_rec" xlink:title="DiagramMap_rec">
<ellipse fill="#f070d1" stroke="#000000" cx="2395" cy="-821.6637" rx="90.9845" ry="18"/>
<ellipse fill="none" stroke="#000000" cx="2395" cy="-821.6637" rx="94.9842" ry="22"/>
<ellipse fill="none" stroke="#000000" cx="2395" cy="-821.6637" rx="98.9839" ry="26"/>
<text text-anchor="middle" x="2395" y="-817.9637" font-family="Times,serif" font-size="14.00" fill="#000000">DiagramMap_rec</text>
</a>
</g>
</g>
<!-- Diagram_DiagramMap_rect -->
<g id="node23" class="node">
<title>Diagram_DiagramMap_rect</title>
<g id="a_node23"><a xlink:href="Diagram.html#DiagramMap_rect" xlink:title="DiagramMap_rect">
<ellipse fill="#f070d1" stroke="#000000" cx="2395" cy="-572.6637" rx="94.7833" ry="18"/>
<text text-anchor="middle" x="2395" y="-568.9637" font-family="Times,serif" font-size="14.00" fill="#000000">DiagramMap_rect</text>
</a>
</g>
</g>
<!-- Diagram_DiagramMap_rec&#45;&gt;Diagram_DiagramMap_rect -->
<g id="edge45" class="edge">
<title>Diagram_DiagramMap_rec&#45;&gt;Diagram_DiagramMap_rect</title>
<path fill="none" stroke="#000000" d="M2395,-795.4869C2395,-748.357 2395,-649.616 2395,-600.9749"/>
<polygon fill="#000000" stroke="#000000" points="2398.5001,-600.8424 2395,-590.8424 2391.5001,-600.8425 2398.5001,-600.8424"/>
</g>
<!-- Diagram_DiagramMap_ind -->
<g id="node22" class="node">
<title>Diagram_DiagramMap_ind</title>
<g id="a_node22"><a xlink:href="Diagram.html#DiagramMap_ind" xlink:title="DiagramMap_ind">
<ellipse fill="#7fffd4" stroke="#000000" cx="2143" cy="-572.6637" rx="90.9845" ry="18"/>
<ellipse fill="none" stroke="#000000" cx="2143" cy="-572.6637" rx="94.9842" ry="22"/>
<ellipse fill="none" stroke="#000000" cx="2143" cy="-572.6637" rx="98.9839" ry="26"/>
<text text-anchor="middle" x="2143" y="-568.9637" font-family="Times,serif" font-size="14.00" fill="#000000">DiagramMap_ind</text>
</a>
</g>
</g>
<!-- Diagram_DiagramMap_ind&#45;&gt;Diagram_Build_DiagramMap -->
<g id="edge46" class="edge">
<title>Diagram_DiagramMap_ind&#45;&gt;Diagram_Build_DiagramMap</title>
<path fill="none" stroke="#000000" d="M2131.3309,-546.3818C2110.1887,-498.7644 2065.7483,-398.6733 2044.2134,-350.1713"/>
<polygon fill="#000000" stroke="#000000" points="2047.3607,-348.6348 2040.1038,-340.9154 2040.963,-351.4754 2047.3607,-348.6348"/>
</g>
<!-- Diagram_DiagramMap_ind&#45;&gt;Diagram_DiagramMap -->
<g id="edge47" class="edge">
<title>Diagram_DiagramMap_ind&#45;&gt;Diagram_DiagramMap</title>
<path fill="none" stroke="#000000" d="M2088.5417,-550.9151C1967.7228,-502.6648 1678.9195,-387.328 1564.6824,-341.7062"/>
<polygon fill="#000000" stroke="#000000" points="1565.7321,-338.3566 1555.1472,-337.8982 1563.1359,-344.8574 1565.7321,-338.3566"/>
</g>
<!-- Diagram_DiagramMap_rect&#45;&gt;Diagram_Build_DiagramMap -->
<g id="edge48" class="edge">
<title>Diagram_DiagramMap_rect&#45;&gt;Diagram_Build_DiagramMap</title>
<path fill="none" stroke="#000000" d="M2369.7627,-555.2826C2305.9537,-511.337 2138.128,-395.7545 2065.877,-345.9949"/>
<polygon fill="#000000" stroke="#000000" points="2067.7741,-343.0518 2057.5531,-340.2622 2063.8037,-348.8168 2067.7741,-343.0518"/>
</g>
<!-- Diagram_DiagramMap_rect&#45;&gt;Diagram_DiagramMap -->
<g id="edge49" class="edge">
<title>Diagram_DiagramMap_rect&#45;&gt;Diagram_DiagramMap</title>
<path fill="none" stroke="#000000" d="M2342.3809,-557.681C2187.5554,-513.5963 1734.4085,-384.5681 1574.0471,-338.9071"/>
<polygon fill="#000000" stroke="#000000" points="1574.9413,-335.5227 1564.365,-336.1503 1573.0243,-342.2551 1574.9413,-335.5227"/>
</g>
<!-- Diagram_Diagram -->
<g id="node35" class="node">
<title>Diagram_Diagram</title>
<g id="a_node35"><a xlink:href="Diagram.html#Diagram" xlink:title="Diagram">
<ellipse fill="#e2cdfa" stroke="#000000" cx="879" cy="-96.6637" rx="50.8918" ry="18"/>
<text text-anchor="middle" x="879" y="-92.9637" font-family="Times,serif" font-size="14.00" fill="#000000">Diagram</text>
</a>
</g>
</g>
<!-- Diagram_Build_DiagramMap&#45;&gt;Diagram_Diagram -->
<g id="edge50" class="edge">
<title>Diagram_Build_DiagramMap&#45;&gt;Diagram_Diagram</title>
<path fill="none" stroke="#000000" d="M1963.7539,-309.2867C1754.2686,-268.2254 1123.1866,-144.5268 933.5025,-107.3467"/>
<polygon fill="#000000" stroke="#000000" points="933.9728,-103.8724 923.4863,-105.3834 932.6263,-110.7417 933.9728,-103.8724"/>
</g>
<!-- Diagram_DiagramMap&#45;&gt;Diagram_Diagram -->
<g id="edge51" class="edge">
<title>Diagram_DiagramMap&#45;&gt;Diagram_Diagram</title>
<path fill="none" stroke="#000000" d="M1475.139,-307.8352C1360.676,-267.2887 1043.1385,-154.8068 924.4964,-112.7799"/>
<polygon fill="#000000" stroke="#000000" points="925.5657,-109.4457 914.9709,-109.4057 923.2283,-116.0439 925.5657,-109.4457"/>
</g>
<!-- Diagram_path_diagram -->
<g id="node26" class="node">
<title>Diagram_path_diagram</title>
<g id="a_node26"><a xlink:href="Diagram.html#path_diagram" xlink:title="path_diagram">
<ellipse fill="#f070d1" stroke="#000000" cx="458" cy="-572.6637" rx="75.297" ry="18"/>
<ellipse fill="none" stroke="#000000" cx="458" cy="-572.6637" rx="79.2919" ry="22"/>
<ellipse fill="none" stroke="#000000" cx="458" cy="-572.6637" rx="83.2868" ry="26"/>
<text text-anchor="middle" x="458" y="-568.9637" font-family="Times,serif" font-size="14.00" fill="#000000">path_diagram</text>
</a>
</g>
</g>
<!-- Diagram_path_diagram_naive -->
<g id="node27" class="node">
<title>Diagram_path_diagram_naive</title>
<g id="a_node27"><a xlink:href="Diagram.html#path_diagram_naive" xlink:title="path_diagram_naive">
<ellipse fill="#f070d1" stroke="#000000" cx="800" cy="-322.6637" rx="104.7816" ry="18"/>
<text text-anchor="middle" x="800" y="-318.9637" font-family="Times,serif" font-size="14.00" fill="#000000">path_diagram_naive</text>
</a>
</g>
</g>
<!-- Diagram_path_diagram&#45;&gt;Diagram_path_diagram_naive -->
<g id="edge52" class="edge">
<title>Diagram_path_diagram&#45;&gt;Diagram_path_diagram_naive</title>
<path fill="none" stroke="#000000" d="M490.7924,-548.6926C556.2338,-500.8553 702.336,-394.0554 767.5199,-346.4064"/>
<polygon fill="#000000" stroke="#000000" points="769.7882,-349.0838 775.7958,-340.3568 765.6572,-343.4326 769.7882,-349.0838"/>
</g>
<!-- Diagram_path_diagram&#45;&gt;Diagram_arr -->
<g id="edge53" class="edge">
<title>Diagram_path_diagram&#45;&gt;Diagram_arr</title>
<path fill="none" stroke="#000000" d="M516.0282,-553.827C617.7773,-519.7075 833.5645,-442.4479 1002,-348.6637 1005.4626,-346.7357 1008.9863,-344.5336 1012.4068,-342.2452"/>
<polygon fill="#000000" stroke="#000000" points="1014.4333,-345.099 1020.6034,-336.4862 1010.409,-339.3714 1014.4333,-345.099"/>
</g>
<!-- Diagram_Build_Diagram -->
<g id="node34" class="node">
<title>Diagram_Build_Diagram</title>
<g id="a_node34"><a xlink:href="Diagram.html#Build_Diagram" xlink:title="Build_Diagram">
<ellipse fill="#7faaff" stroke="#000000" cx="513" cy="-96.6637" rx="79.8859" ry="18"/>
<text text-anchor="middle" x="513" y="-92.9637" font-family="Times,serif" font-size="14.00" fill="#000000">Build_Diagram</text>
</a>
</g>
</g>
<!-- Diagram_path_diagram_naive&#45;&gt;Diagram_Build_Diagram -->
<g id="edge54" class="edge">
<title>Diagram_path_diagram_naive&#45;&gt;Diagram_Build_Diagram</title>
<path fill="none" stroke="#000000" d="M777.4796,-304.9298C726.2182,-264.5637 600.8101,-165.8103 543.0378,-120.3171"/>
<polygon fill="#000000" stroke="#000000" points="545.0435,-117.4416 535.0216,-114.0047 540.7128,-122.9412 545.0435,-117.4416"/>
</g>
<!-- Diagram_path_diagram_naive&#45;&gt;Diagram_Diagram -->
<g id="edge55" class="edge">
<title>Diagram_path_diagram_naive&#45;&gt;Diagram_Diagram</title>
<path fill="none" stroke="#000000" d="M806.3314,-304.5512C820.1464,-265.0297 853.0648,-170.858 869.4277,-124.0476"/>
<polygon fill="#000000" stroke="#000000" points="872.7523,-125.1435 872.7481,-114.5487 866.1443,-122.8336 872.7523,-125.1435"/>
</g>
<!-- Diagram_arr&#45;&gt;Diagram_Diagram -->
<g id="edge56" class="edge">
<title>Diagram_arr&#45;&gt;Diagram_Diagram</title>
<path fill="none" stroke="#000000" d="M1026.3084,-306.0453C998.8868,-267.0688 930.2681,-169.5352 897.2765,-122.6416"/>
<polygon fill="#000000" stroke="#000000" points="899.9788,-120.3999 891.3622,-114.2351 894.2537,-124.4277 899.9788,-120.3999"/>
</g>
<!-- Diagram_obj -->
<g id="node29" class="node">
<title>Diagram_obj</title>
<g id="a_node29"><a xlink:href="Diagram.html#obj" xlink:title="obj">
<ellipse fill="#f070d1" stroke="#000000" cx="958" cy="-322.6637" rx="27" ry="18"/>
<ellipse fill="none" stroke="#000000" cx="958" cy="-322.6637" rx="31" ry="22"/>
<ellipse fill="none" stroke="#000000" cx="958" cy="-322.6637" rx="35" ry="26"/>
<text text-anchor="middle" x="958" y="-318.9637" font-family="Times,serif" font-size="14.00" fill="#000000">obj</text>
</a>
</g>
</g>
<!-- Diagram_obj&#45;&gt;Diagram_Diagram -->
<g id="edge57" class="edge">
<title>Diagram_obj&#45;&gt;Diagram_Diagram</title>
<path fill="none" stroke="#000000" d="M949.0913,-297.1779C934.1167,-254.3392 904.0284,-168.2639 888.6015,-124.1313"/>
<polygon fill="#000000" stroke="#000000" points="891.8813,-122.9069 885.2774,-114.6219 885.2733,-125.2168 891.8813,-122.9069"/>
</g>
<!-- Diagram_Diagram_sind -->
<g id="node30" class="node">
<title>Diagram_Diagram_sind</title>
<g id="a_node30"><a xlink:href="Diagram.html#Diagram_sind" xlink:title="Diagram_sind">
<ellipse fill="#f070d1" stroke="#000000" cx="252" cy="-322.6637" rx="75.297" ry="18"/>
<ellipse fill="none" stroke="#000000" cx="252" cy="-322.6637" rx="79.2919" ry="22"/>
<ellipse fill="none" stroke="#000000" cx="252" cy="-322.6637" rx="83.2868" ry="26"/>
<text text-anchor="middle" x="252" y="-318.9637" font-family="Times,serif" font-size="14.00" fill="#000000">Diagram_sind</text>
</a>
</g>
</g>
<!-- Diagram_Diagram_sind&#45;&gt;Diagram_Build_Diagram -->
<g id="edge58" class="edge">
<title>Diagram_Diagram_sind&#45;&gt;Diagram_Build_Diagram</title>
<path fill="none" stroke="#000000" d="M280.4284,-298.0475C330.7398,-254.4828 434.8636,-164.322 484.9232,-120.9754"/>
<polygon fill="#000000" stroke="#000000" points="487.4937,-123.3794 492.7623,-114.1875 482.9114,-118.0876 487.4937,-123.3794"/>
</g>
<!-- Diagram_Diagram_sind&#45;&gt;Diagram_Diagram -->
<g id="edge59" class="edge">
<title>Diagram_Diagram_sind&#45;&gt;Diagram_Diagram</title>
<path fill="none" stroke="#000000" d="M306.8186,-302.9045C428.7582,-258.9518 720.5673,-153.7702 833.3886,-113.1041"/>
<polygon fill="#000000" stroke="#000000" points="834.8844,-116.2855 843.1051,-109.6019 832.5107,-109.7002 834.8844,-116.2855"/>
</g>
<!-- Diagram_Diagram_rec -->
<g id="node31" class="node">
<title>Diagram_Diagram_rec</title>
<g id="a_node31"><a xlink:href="Diagram.html#Diagram_rec" xlink:title="Diagram_rec">
<ellipse fill="#f070d1" stroke="#000000" cx="278" cy="-572.6637" rx="70.7036" ry="18"/>
<ellipse fill="none" stroke="#000000" cx="278" cy="-572.6637" rx="74.6957" ry="22"/>
<ellipse fill="none" stroke="#000000" cx="278" cy="-572.6637" rx="78.6877" ry="26"/>
<text text-anchor="middle" x="278" y="-568.9637" font-family="Times,serif" font-size="14.00" fill="#000000">Diagram_rec</text>
</a>
</g>
</g>
<!-- Diagram_Diagram_rect -->
<g id="node33" class="node">
<title>Diagram_Diagram_rect</title>
<g id="a_node33"><a xlink:href="Diagram.html#Diagram_rect" xlink:title="Diagram_rect">
<ellipse fill="#f070d1" stroke="#000000" cx="428" cy="-322.6637" rx="74.9875" ry="18"/>
<text text-anchor="middle" x="428" y="-318.9637" font-family="Times,serif" font-size="14.00" fill="#000000">Diagram_rect</text>
</a>
</g>
</g>
<!-- Diagram_Diagram_rec&#45;&gt;Diagram_Diagram_rect -->
<g id="edge60" class="edge">
<title>Diagram_Diagram_rec&#45;&gt;Diagram_Diagram_rect</title>
<path fill="none" stroke="#000000" d="M293.4877,-546.8509C322.1083,-499.1499 382.9989,-397.6655 411.9999,-349.3305"/>
<polygon fill="#000000" stroke="#000000" points="415.0488,-351.0517 417.1926,-340.676 409.0464,-347.4502 415.0488,-351.0517"/>
</g>
<!-- Diagram_Diagram_ind -->
<g id="node32" class="node">
<title>Diagram_Diagram_ind</title>
<g id="a_node32"><a xlink:href="Diagram.html#Diagram_ind" xlink:title="Diagram_ind">
<ellipse fill="#7fffd4" stroke="#000000" cx="599" cy="-322.6637" rx="70.3682" ry="18"/>
<ellipse fill="none" stroke="#000000" cx="599" cy="-322.6637" rx="74.3781" ry="22"/>
<ellipse fill="none" stroke="#000000" cx="599" cy="-322.6637" rx="78.388" ry="26"/>
<text text-anchor="middle" x="599" y="-318.9637" font-family="Times,serif" font-size="14.00" fill="#000000">Diagram_ind</text>
</a>
</g>
</g>
<!-- Diagram_Diagram_ind&#45;&gt;Diagram_Build_Diagram -->
<g id="edge61" class="edge">
<title>Diagram_Diagram_ind&#45;&gt;Diagram_Build_Diagram</title>
<path fill="none" stroke="#000000" d="M589.1347,-296.7386C572.803,-253.8204 540.2906,-168.3809 523.5308,-124.3376"/>
<polygon fill="#000000" stroke="#000000" points="526.7439,-122.94 519.9161,-114.8386 520.2015,-125.4296 526.7439,-122.94"/>
</g>
<!-- Diagram_Diagram_ind&#45;&gt;Diagram_Diagram -->
<g id="edge62" class="edge">
<title>Diagram_Diagram_ind&#45;&gt;Diagram_Diagram</title>
<path fill="none" stroke="#000000" d="M628.9649,-298.4777C683.2003,-254.7019 796.9533,-162.8871 850.2703,-119.8526"/>
<polygon fill="#000000" stroke="#000000" points="852.7069,-122.3839 858.2901,-113.3795 848.3103,-116.9368 852.7069,-122.3839"/>
</g>
<!-- Diagram_Diagram_rect&#45;&gt;Diagram_Build_Diagram -->
<g id="edge63" class="edge">
<title>Diagram_Diagram_rect&#45;&gt;Diagram_Build_Diagram</title>
<path fill="none" stroke="#000000" d="M434.8122,-304.5512C449.6398,-265.1273 484.9203,-171.3227 502.57,-124.3952"/>
<polygon fill="#000000" stroke="#000000" points="505.9109,-125.4544 506.1553,-114.8624 499.359,-122.9902 505.9109,-125.4544"/>
</g>
<!-- Diagram_Diagram_rect&#45;&gt;Diagram_Diagram -->
<g id="edge64" class="edge">
<title>Diagram_Diagram_rect&#45;&gt;Diagram_Diagram</title>
<path fill="none" stroke="#000000" d="M460.4348,-306.4103C541.5992,-265.7381 753.2054,-159.7004 840.4916,-115.9605"/>
<polygon fill="#000000" stroke="#000000" points="842.1533,-119.0428 849.5256,-111.4336 839.0172,-112.7846 842.1533,-119.0428"/>
</g>
</g>
</svg>
