<?xml version="1.0" encoding="UTF-8" standalone="no"?>
<!DOCTYPE svg PUBLIC "-//W3C//DTD SVG 1.1//EN"
 "http://www.w3.org/Graphics/SVG/1.1/DTD/svg11.dtd">
<!-- Generated by graphviz version 2.40.1 (20161225.0304)
 -->
<!-- Title: HoTT_Classes_theory_additional_operations Pages: 1 -->
<svg width="1334pt" height="671pt"
 viewBox="0.00 0.00 1334.00 671.00" xmlns="http://www.w3.org/2000/svg" xmlns:xlink="http://www.w3.org/1999/xlink">
<g id="graph0" class="graph" transform="scale(1 1) rotate(0) translate(4 667)">
<title>HoTT_Classes_theory_additional_operations</title>
<polygon fill="#ffffff" stroke="transparent" points="-4,4 -4,-667 1330,-667 1330,4 -4,4"/>
<g id="clust1" class="cluster">
<title>cluster_additional_operations</title>
<polygon fill="#ffffc3" stroke="#000000" points="8,-21.1315 8,-641.8685 1318,-641.8685 1318,-21.1315 8,-21.1315"/>
<text text-anchor="middle" x="93.5" y="-626.6685" font-family="Times,serif" font-size="14.00" fill="#000000">additional_operations</text>
</g>
<!-- additional_operations_total_abs_either -->
<g id="node1" class="node">
<title>additional_operations_total_abs_either</title>
<g id="a_node1"><a xlink:href="additional_operations.html#total_abs_either" xlink:title="total_abs_either">
<ellipse fill="#f070d1" stroke="#000000" cx="1216" cy="-491.1315" rx="85.6029" ry="18"/>
<ellipse fill="none" stroke="#000000" cx="1216" cy="-491.1315" rx="89.5941" ry="22"/>
<ellipse fill="none" stroke="#000000" cx="1216" cy="-491.1315" rx="93.5852" ry="26"/>
<text text-anchor="middle" x="1216" y="-487.4315" font-family="Times,serif" font-size="14.00" fill="#000000">total_abs_either</text>
</a>
</g>
</g>
<!-- additional_operations_tricho_compare_ok -->
<g id="node2" class="node">
<title>additional_operations_tricho_compare_ok</title>
<g id="a_node2"><a xlink:href="additional_operations.html#tricho_compare_ok" xlink:title="tricho_compare_ok">
<ellipse fill="#f070d1" stroke="#000000" cx="996" cy="-491.1315" rx="100.1756" ry="18"/>
<ellipse fill="none" stroke="#000000" cx="996" cy="-491.1315" rx="104.1789" ry="22"/>
<ellipse fill="none" stroke="#000000" cx="996" cy="-491.1315" rx="108.1823" ry="26"/>
<text text-anchor="middle" x="996" y="-487.4315" font-family="Times,serif" font-size="14.00" fill="#000000">tricho_compare_ok</text>
</a>
</g>
</g>
<!-- additional_operations_tricho_compare -->
<g id="node4" class="node">
<title>additional_operations_tricho_compare</title>
<g id="a_node4"><a xlink:href="additional_operations.html#tricho_compare" xlink:title="tricho_compare">
<ellipse fill="#f070d1" stroke="#000000" cx="996" cy="-280.1315" rx="83.6854" ry="18"/>
<text text-anchor="middle" x="996" y="-276.4315" font-family="Times,serif" font-size="14.00" fill="#000000">tricho_compare</text>
</a>
</g>
</g>
<!-- additional_operations_tricho_compare_ok&#45;&gt;additional_operations_tricho_compare -->
<g id="edge1" class="edge">
<title>additional_operations_tricho_compare_ok&#45;&gt;additional_operations_tricho_compare</title>
<path fill="none" stroke="#000000" d="M996,-464.8348C996,-424.9803 996,-349.5884 996,-308.5263"/>
<polygon fill="#000000" stroke="#000000" points="999.5001,-308.3904 996,-298.3904 992.5001,-308.3905 999.5001,-308.3904"/>
</g>
<!-- additional_operations_GT_EQ -->
<g id="node7" class="node">
<title>additional_operations_GT_EQ</title>
<g id="a_node7"><a xlink:href="additional_operations.html#GT_EQ" xlink:title="GT_EQ">
<ellipse fill="#f070d1" stroke="#000000" cx="850" cy="-280.1315" rx="44.393" ry="18"/>
<text text-anchor="middle" x="850" y="-276.4315" font-family="Times,serif" font-size="14.00" fill="#000000">GT_EQ</text>
</a>
</g>
</g>
<!-- additional_operations_tricho_compare_ok&#45;&gt;additional_operations_GT_EQ -->
<g id="edge2" class="edge">
<title>additional_operations_tricho_compare_ok&#45;&gt;additional_operations_GT_EQ</title>
<path fill="none" stroke="#000000" d="M978.0975,-465.2587C950.0054,-424.6598 895.8876,-346.4484 867.8363,-305.9086"/>
<polygon fill="#000000" stroke="#000000" points="870.6714,-303.8548 862.1031,-297.623 864.9151,-307.8379 870.6714,-303.8548"/>
</g>
<!-- additional_operations_LT_EQ -->
<g id="node11" class="node">
<title>additional_operations_LT_EQ</title>
<g id="a_node11"><a xlink:href="additional_operations.html#LT_EQ" xlink:title="LT_EQ">
<ellipse fill="#f070d1" stroke="#000000" cx="746" cy="-280.1315" rx="42.4939" ry="18"/>
<text text-anchor="middle" x="746" y="-276.4315" font-family="Times,serif" font-size="14.00" fill="#000000">LT_EQ</text>
</a>
</g>
</g>
<!-- additional_operations_tricho_compare_ok&#45;&gt;additional_operations_LT_EQ -->
<g id="edge3" class="edge">
<title>additional_operations_tricho_compare_ok&#45;&gt;additional_operations_LT_EQ</title>
<path fill="none" stroke="#000000" d="M966.34,-466.0984C917.3108,-424.7178 820.1018,-342.6734 772.9303,-302.8607"/>
<polygon fill="#000000" stroke="#000000" points="775.1644,-300.1663 765.265,-296.3911 770.6495,-305.5157 775.1644,-300.1663"/>
</g>
<!-- additional_operations_tricho_compare_eq -->
<g id="node3" class="node">
<title>additional_operations_tricho_compare_eq</title>
<g id="a_node3"><a xlink:href="additional_operations.html#tricho_compare_eq" xlink:title="tricho_compare_eq">
<ellipse fill="#f070d1" stroke="#000000" cx="762" cy="-491.1315" rx="100.1756" ry="18"/>
<ellipse fill="none" stroke="#000000" cx="762" cy="-491.1315" rx="104.1789" ry="22"/>
<ellipse fill="none" stroke="#000000" cx="762" cy="-491.1315" rx="108.1823" ry="26"/>
<text text-anchor="middle" x="762" y="-487.4315" font-family="Times,serif" font-size="14.00" fill="#000000">tricho_compare_eq</text>
</a>
</g>
</g>
<!-- additional_operations_tricho_compare_eq&#45;&gt;additional_operations_tricho_compare -->
<g id="edge4" class="edge">
<title>additional_operations_tricho_compare_eq&#45;&gt;additional_operations_tricho_compare</title>
<path fill="none" stroke="#000000" d="M790.2259,-465.6799C835.6357,-424.7335 924.3266,-344.7601 968.9659,-304.5084"/>
<polygon fill="#000000" stroke="#000000" points="971.4284,-307.0007 976.5112,-297.7047 966.7407,-301.8021 971.4284,-307.0007"/>
</g>
<!-- additional_operations_tricho_compare_eq&#45;&gt;additional_operations_GT_EQ -->
<g id="edge5" class="edge">
<title>additional_operations_tricho_compare_eq&#45;&gt;additional_operations_GT_EQ</title>
<path fill="none" stroke="#000000" d="M772.7905,-465.2587C789.5384,-425.102 821.6332,-348.1474 838.6914,-307.2464"/>
<polygon fill="#000000" stroke="#000000" points="841.9682,-308.4821 842.5872,-297.9054 835.5076,-305.7876 841.9682,-308.4821"/>
</g>
<!-- additional_operations_tricho_compare_eq&#45;&gt;additional_operations_LT_EQ -->
<g id="edge6" class="edge">
<title>additional_operations_tricho_compare_eq&#45;&gt;additional_operations_LT_EQ</title>
<path fill="none" stroke="#000000" d="M760.0059,-464.8348C756.9838,-424.9803 751.2669,-349.5884 748.1532,-308.5263"/>
<polygon fill="#000000" stroke="#000000" points="751.6308,-308.0971 747.3846,-298.3904 744.6508,-308.6265 751.6308,-308.0971"/>
</g>
<!-- additional_operations_compare_eqb_eq -->
<g id="node5" class="node">
<title>additional_operations_compare_eqb_eq</title>
<g id="a_node5"><a xlink:href="additional_operations.html#compare_eqb_eq" xlink:title="compare_eqb_eq">
<ellipse fill="#f070d1" stroke="#000000" cx="421" cy="-491.1315" rx="89.0807" ry="18"/>
<ellipse fill="none" stroke="#000000" cx="421" cy="-491.1315" rx="93.0825" ry="22"/>
<ellipse fill="none" stroke="#000000" cx="421" cy="-491.1315" rx="97.0842" ry="26"/>
<text text-anchor="middle" x="421" y="-487.4315" font-family="Times,serif" font-size="14.00" fill="#000000">compare_eqb_eq</text>
</a>
</g>
</g>
<!-- additional_operations_compare_eqb -->
<g id="node6" class="node">
<title>additional_operations_compare_eqb</title>
<g id="a_node6"><a xlink:href="additional_operations.html#compare_eqb" xlink:title="compare_eqb">
<ellipse fill="#f070d1" stroke="#000000" cx="421" cy="-280.1315" rx="73.387" ry="18"/>
<text text-anchor="middle" x="421" y="-276.4315" font-family="Times,serif" font-size="14.00" fill="#000000">compare_eqb</text>
</a>
</g>
</g>
<!-- additional_operations_compare_eqb_eq&#45;&gt;additional_operations_compare_eqb -->
<g id="edge7" class="edge">
<title>additional_operations_compare_eqb_eq&#45;&gt;additional_operations_compare_eqb</title>
<path fill="none" stroke="#000000" d="M421,-464.8348C421,-424.9803 421,-349.5884 421,-308.5263"/>
<polygon fill="#000000" stroke="#000000" points="424.5001,-308.3904 421,-298.3904 417.5001,-308.3905 424.5001,-308.3904"/>
</g>
<!-- additional_operations_EQ_GT -->
<g id="node8" class="node">
<title>additional_operations_EQ_GT</title>
<g id="a_node8"><a xlink:href="additional_operations.html#EQ_GT" xlink:title="EQ_GT">
<ellipse fill="#f070d1" stroke="#000000" cx="850" cy="-90.1315" rx="44.393" ry="18"/>
<text text-anchor="middle" x="850" y="-86.4315" font-family="Times,serif" font-size="14.00" fill="#000000">EQ_GT</text>
</a>
</g>
</g>
<!-- additional_operations_GT_EQ&#45;&gt;additional_operations_EQ_GT -->
<g id="edge8" class="edge">
<title>additional_operations_GT_EQ&#45;&gt;additional_operations_EQ_GT</title>
<path fill="none" stroke="#000000" d="M850,-261.9135C850,-228.6467 850,-157.861 850,-118.3271"/>
<polygon fill="#000000" stroke="#000000" points="853.5001,-118.2943 850,-108.2943 846.5001,-118.2944 853.5001,-118.2943"/>
</g>
<!-- additional_operations_EQ_LT -->
<g id="node9" class="node">
<title>additional_operations_EQ_LT</title>
<g id="a_node9"><a xlink:href="additional_operations.html#EQ_LT" xlink:title="EQ_LT">
<ellipse fill="#f070d1" stroke="#000000" cx="586" cy="-491.1315" rx="42.4543" ry="18"/>
<ellipse fill="none" stroke="#000000" cx="586" cy="-491.1315" rx="46.474" ry="22"/>
<ellipse fill="none" stroke="#000000" cx="586" cy="-491.1315" rx="50.4937" ry="26"/>
<text text-anchor="middle" x="586" y="-487.4315" font-family="Times,serif" font-size="14.00" fill="#000000">EQ_LT</text>
</a>
</g>
</g>
<!-- additional_operations_EQ_LT&#45;&gt;additional_operations_LT_EQ -->
<g id="edge9" class="edge">
<title>additional_operations_EQ_LT&#45;&gt;additional_operations_LT_EQ</title>
<path fill="none" stroke="#000000" d="M604.354,-466.9271C634.8539,-426.7054 695.6861,-346.4829 726.7614,-305.5024"/>
<polygon fill="#000000" stroke="#000000" points="729.6659,-307.4647 732.9193,-297.3817 724.0881,-303.2351 729.6659,-307.4647"/>
</g>
<!-- additional_operations_LT_GT -->
<g id="node10" class="node">
<title>additional_operations_LT_GT</title>
<g id="a_node10"><a xlink:href="additional_operations.html#LT_GT" xlink:title="LT_GT">
<ellipse fill="#f070d1" stroke="#000000" cx="257" cy="-491.1315" rx="40.9015" ry="18"/>
<ellipse fill="none" stroke="#000000" cx="257" cy="-491.1315" rx="44.8972" ry="22"/>
<ellipse fill="none" stroke="#000000" cx="257" cy="-491.1315" rx="48.8928" ry="26"/>
<text text-anchor="middle" x="257" y="-487.4315" font-family="Times,serif" font-size="14.00" fill="#000000">LT_GT</text>
</a>
</g>
</g>
<!-- additional_operations_decide_eqb_ok -->
<g id="node12" class="node">
<title>additional_operations_decide_eqb_ok</title>
<g id="a_node12"><a xlink:href="additional_operations.html#decide_eqb_ok" xlink:title="decide_eqb_ok">
<ellipse fill="#f070d1" stroke="#000000" cx="103" cy="-491.1315" rx="79.1053" ry="18"/>
<ellipse fill="none" stroke="#000000" cx="103" cy="-491.1315" rx="83.0959" ry="22"/>
<ellipse fill="none" stroke="#000000" cx="103" cy="-491.1315" rx="87.0864" ry="26"/>
<text text-anchor="middle" x="103" y="-487.4315" font-family="Times,serif" font-size="14.00" fill="#000000">decide_eqb_ok</text>
</a>
</g>
</g>
<!-- additional_operations_decide_eqb -->
<g id="node13" class="node">
<title>additional_operations_decide_eqb</title>
<g id="a_node13"><a xlink:href="additional_operations.html#decide_eqb" xlink:title="decide_eqb">
<ellipse fill="#f070d1" stroke="#000000" cx="103" cy="-280.1315" rx="63.8893" ry="18"/>
<text text-anchor="middle" x="103" y="-276.4315" font-family="Times,serif" font-size="14.00" fill="#000000">decide_eqb</text>
</a>
</g>
</g>
<!-- additional_operations_decide_eqb_ok&#45;&gt;additional_operations_decide_eqb -->
<g id="edge10" class="edge">
<title>additional_operations_decide_eqb_ok&#45;&gt;additional_operations_decide_eqb</title>
<path fill="none" stroke="#000000" d="M103,-464.8348C103,-424.9803 103,-349.5884 103,-308.5263"/>
<polygon fill="#000000" stroke="#000000" points="106.5001,-308.3904 103,-298.3904 99.5001,-308.3905 106.5001,-308.3904"/>
</g>
</g>
</svg>
