<?xml version="1.0" encoding="UTF-8" standalone="no"?>
<!DOCTYPE svg PUBLIC "-//W3C//DTD SVG 1.1//EN"
 "http://www.w3.org/Graphics/SVG/1.1/DTD/svg11.dtd">
<!-- Generated by graphviz version 2.40.1 (20161225.0304)
 -->
<!-- Title: HoTT_Spaces_List Pages: 1 -->
<svg width="388pt" height="198pt"
 viewBox="0.00 0.00 388.00 198.00" xmlns="http://www.w3.org/2000/svg" xmlns:xlink="http://www.w3.org/1999/xlink">
<g id="graph0" class="graph" transform="scale(1 1) rotate(0) translate(4 194)">
<title>HoTT_Spaces_List</title>
<polygon fill="#ffffff" stroke="transparent" points="-4,4 -4,-194 384,-194 384,4 -4,4"/>
<g id="clust1" class="cluster">
<title>cluster_List</title>
<polygon fill="#ffffc3" stroke="#000000" points="8,-8.4916 8,-181.5084 372,-181.5084 372,-8.4916 8,-8.4916"/>
<text text-anchor="middle" x="30" y="-166.3084" font-family="Times,serif" font-size="14.00" fill="#000000">List</text>
</g>
<!-- List_fold_right_app -->
<g id="node1" class="node">
<title>List_fold_right_app</title>
<g id="a_node1"><a xlink:href="List.html#fold_right_app" xlink:title="fold_right_app">
<ellipse fill="#f070d1" stroke="#000000" cx="278" cy="-121.4916" rx="77.9868" ry="18"/>
<ellipse fill="none" stroke="#000000" cx="278" cy="-121.4916" rx="81.9865" ry="22"/>
<ellipse fill="none" stroke="#000000" cx="278" cy="-121.4916" rx="85.9862" ry="26"/>
<text text-anchor="middle" x="278" y="-117.7916" font-family="Times,serif" font-size="14.00" fill="#000000">fold_right_app</text>
</a>
</g>
</g>
<!-- List_fold_right -->
<g id="node2" class="node">
<title>List_fold_right</title>
<g id="a_node2"><a xlink:href="List.html#fold_right" xlink:title="fold_right">
<ellipse fill="#f070d1" stroke="#000000" cx="278" cy="-36.4916" rx="55.7903" ry="18"/>
<text text-anchor="middle" x="278" y="-32.7916" font-family="Times,serif" font-size="14.00" fill="#000000">fold_right</text>
</a>
</g>
</g>
<!-- List_fold_right_app&#45;&gt;List_fold_right -->
<g id="edge1" class="edge">
<title>List_fold_right_app&#45;&gt;List_fold_right</title>
<path fill="none" stroke="#000000" d="M278,-95.063C278,-85.3999 278,-74.4369 278,-64.6301"/>
<polygon fill="#000000" stroke="#000000" points="281.5001,-64.5585 278,-54.5586 274.5001,-64.5586 281.5001,-64.5585"/>
</g>
<!-- List_fold_left_app -->
<g id="node3" class="node">
<title>List_fold_left_app</title>
<g id="a_node3"><a xlink:href="List.html#fold_left_app" xlink:title="fold_left_app">
<ellipse fill="#f070d1" stroke="#000000" cx="95" cy="-121.4916" rx="70.7036" ry="18"/>
<ellipse fill="none" stroke="#000000" cx="95" cy="-121.4916" rx="74.6957" ry="22"/>
<ellipse fill="none" stroke="#000000" cx="95" cy="-121.4916" rx="78.6877" ry="26"/>
<text text-anchor="middle" x="95" y="-117.7916" font-family="Times,serif" font-size="14.00" fill="#000000">fold_left_app</text>
</a>
</g>
</g>
<!-- List_fold_left -->
<g id="node4" class="node">
<title>List_fold_left</title>
<g id="a_node4"><a xlink:href="List.html#fold_left" xlink:title="fold_left">
<ellipse fill="#f070d1" stroke="#000000" cx="95" cy="-36.4916" rx="48.9926" ry="18"/>
<text text-anchor="middle" x="95" y="-32.7916" font-family="Times,serif" font-size="14.00" fill="#000000">fold_left</text>
</a>
</g>
</g>
<!-- List_fold_left_app&#45;&gt;List_fold_left -->
<g id="edge2" class="edge">
<title>List_fold_left_app&#45;&gt;List_fold_left</title>
<path fill="none" stroke="#000000" d="M95,-95.063C95,-85.3999 95,-74.4369 95,-64.6301"/>
<polygon fill="#000000" stroke="#000000" points="98.5001,-64.5585 95,-54.5586 91.5001,-64.5586 98.5001,-64.5585"/>
</g>
</g>
</svg>
