<?xml version="1.0" encoding="UTF-8" standalone="no"?>
<!DOCTYPE svg PUBLIC "-//W3C//DTD SVG 1.1//EN"
 "http://www.w3.org/Graphics/SVG/1.1/DTD/svg11.dtd">
<!-- Generated by graphviz version 2.40.1 (20161225.0304)
 -->
<!-- Title: HoTT_Algebra_ooGroup Pages: 1 -->
<svg width="2141pt" height="1075pt"
 viewBox="0.00 0.00 2141.00 1074.50" xmlns="http://www.w3.org/2000/svg" xmlns:xlink="http://www.w3.org/1999/xlink">
<g id="graph0" class="graph" transform="scale(1 1) rotate(0) translate(4 1070.5)">
<title>HoTT_Algebra_ooGroup</title>
<polygon fill="#ffffff" stroke="transparent" points="-4,4 -4,-1070.5 2137,-1070.5 2137,4 -4,4"/>
<g id="clust1" class="cluster">
<title>cluster_ooGroup</title>
<polygon fill="#ffffc3" stroke="#000000" points="8,-16.0678 8,-1050.4322 2125,-1050.4322 2125,-16.0678 8,-16.0678"/>
<text text-anchor="middle" x="46.5" y="-1035.2322" font-family="Times,serif" font-size="14.00" fill="#000000">ooGroup</text>
</g>
<!-- ooGroup_is1functor_group_to_oogroup -->
<g id="node1" class="node">
<title>ooGroup_is1functor_group_to_oogroup</title>
<g id="a_node1"><a xlink:href="ooGroup.html#is1functor_group_to_oogroup" xlink:title="is1functor_group_to_oogroup">
<ellipse fill="#f070d1" stroke="#000000" cx="1947" cy="-936.0678" rx="147.5719" ry="18"/>
<ellipse fill="none" stroke="#000000" cx="1947" cy="-936.0678" rx="151.5729" ry="22"/>
<ellipse fill="none" stroke="#000000" cx="1947" cy="-936.0678" rx="155.5738" ry="26"/>
<text text-anchor="middle" x="1947" y="-932.3678" font-family="Times,serif" font-size="14.00" fill="#000000">is1functor_group_to_oogroup</text>
</a>
</g>
</g>
<!-- ooGroup_is0functor_group_to_oogroup -->
<g id="node2" class="node">
<title>ooGroup_is0functor_group_to_oogroup</title>
<g id="a_node2"><a xlink:href="ooGroup.html#is0functor_group_to_oogroup" xlink:title="is0functor_group_to_oogroup">
<ellipse fill="#f070d1" stroke="#000000" cx="1762" cy="-582.0678" rx="147.5738" ry="18"/>
<text text-anchor="middle" x="1762" y="-578.3678" font-family="Times,serif" font-size="14.00" fill="#000000">is0functor_group_to_oogroup</text>
</a>
</g>
</g>
<!-- ooGroup_is1functor_group_to_oogroup&#45;&gt;ooGroup_is0functor_group_to_oogroup -->
<g id="edge1" class="edge">
<title>ooGroup_is1functor_group_to_oogroup&#45;&gt;ooGroup_is0functor_group_to_oogroup</title>
<path fill="none" stroke="#000000" d="M1949.6029,-909.7714C1952.412,-869.4298 1953.1232,-790.8763 1924,-733.0678 1895.8562,-677.2034 1838.0535,-631.3574 1799.6573,-605.3594"/>
<polygon fill="#000000" stroke="#000000" points="1801.5656,-602.4252 1791.2998,-599.8055 1797.6913,-608.2553 1801.5656,-602.4252"/>
</g>
<!-- ooGroup_is1cat_oogroup -->
<g id="node4" class="node">
<title>ooGroup_is1cat_oogroup</title>
<g id="a_node4"><a xlink:href="ooGroup.html#is1cat_oogroup" xlink:title="is1cat_oogroup">
<ellipse fill="#f070d1" stroke="#000000" cx="2035" cy="-759.0678" rx="81.7856" ry="18"/>
<text text-anchor="middle" x="2035" y="-755.3678" font-family="Times,serif" font-size="14.00" fill="#000000">is1cat_oogroup</text>
</a>
</g>
</g>
<!-- ooGroup_is1functor_group_to_oogroup&#45;&gt;ooGroup_is1cat_oogroup -->
<g id="edge2" class="edge">
<title>ooGroup_is1functor_group_to_oogroup&#45;&gt;ooGroup_is1cat_oogroup</title>
<path fill="none" stroke="#000000" d="M1959.9847,-909.9508C1976.4332,-876.867 2004.6473,-820.1181 2021.3884,-786.4457"/>
<polygon fill="#000000" stroke="#000000" points="2024.6704,-787.7061 2025.9883,-777.1936 2018.4024,-784.5897 2024.6704,-787.7061"/>
</g>
<!-- ooGroup_group_to_oogroup -->
<g id="node3" class="node">
<title>ooGroup_group_to_oogroup</title>
<g id="a_node3"><a xlink:href="ooGroup.html#group_to_oogroup" xlink:title="group_to_oogroup">
<ellipse fill="#f070d1" stroke="#000000" cx="1695" cy="-229.0678" rx="94.7833" ry="18"/>
<text text-anchor="middle" x="1695" y="-225.3678" font-family="Times,serif" font-size="14.00" fill="#000000">group_to_oogroup</text>
</a>
</g>
</g>
<!-- ooGroup_is0functor_group_to_oogroup&#45;&gt;ooGroup_group_to_oogroup -->
<g id="edge3" class="edge">
<title>ooGroup_is0functor_group_to_oogroup&#45;&gt;ooGroup_group_to_oogroup</title>
<path fill="none" stroke="#000000" d="M1774.4268,-563.9666C1797.3021,-528.2916 1841.6629,-446.5849 1818,-380.0678 1799.4828,-328.0153 1754.4941,-280.8938 1724.37,-253.6145"/>
<polygon fill="#000000" stroke="#000000" points="1726.4816,-250.809 1716.6797,-246.7873 1721.8343,-256.0437 1726.4816,-250.809"/>
</g>
<!-- ooGroup_isgraph_oogroup -->
<g id="node7" class="node">
<title>ooGroup_isgraph_oogroup</title>
<g id="a_node7"><a xlink:href="ooGroup.html#isgraph_oogroup" xlink:title="isgraph_oogroup">
<ellipse fill="#f070d1" stroke="#000000" cx="1720" cy="-406.0678" rx="89.0842" ry="18"/>
<text text-anchor="middle" x="1720" y="-402.3678" font-family="Times,serif" font-size="14.00" fill="#000000">isgraph_oogroup</text>
</a>
</g>
</g>
<!-- ooGroup_is0functor_group_to_oogroup&#45;&gt;ooGroup_isgraph_oogroup -->
<g id="edge4" class="edge">
<title>ooGroup_is0functor_group_to_oogroup&#45;&gt;ooGroup_isgraph_oogroup</title>
<path fill="none" stroke="#000000" d="M1757.6635,-563.8956C1750.3193,-533.1199 1735.3863,-470.5437 1726.692,-434.1104"/>
<polygon fill="#000000" stroke="#000000" points="1730.0386,-433.0556 1724.313,-424.1411 1723.2298,-434.6805 1730.0386,-433.0556"/>
</g>
<!-- ooGroup_Build_ooGroup -->
<g id="node38" class="node">
<title>ooGroup_Build_ooGroup</title>
<g id="a_node38"><a xlink:href="ooGroup.html#Build_ooGroup" xlink:title="Build_ooGroup">
<ellipse fill="#7faaff" stroke="#000000" cx="716" cy="-68.0678" rx="79.0865" ry="18"/>
<text text-anchor="middle" x="716" y="-64.3678" font-family="Times,serif" font-size="14.00" fill="#000000">Build_ooGroup</text>
</a>
</g>
</g>
<!-- ooGroup_group_to_oogroup&#45;&gt;ooGroup_Build_ooGroup -->
<g id="edge5" class="edge">
<title>ooGroup_group_to_oogroup&#45;&gt;ooGroup_Build_ooGroup</title>
<path fill="none" stroke="#000000" d="M1640.1608,-214.3561C1624.3607,-210.3902 1607.0546,-206.306 1591,-203.0678 1300.2892,-144.4317 950.7558,-97.4969 796.1994,-77.9325"/>
<polygon fill="#000000" stroke="#000000" points="796.2171,-74.4071 785.8576,-76.6274 795.3407,-81.352 796.2171,-74.4071"/>
</g>
<!-- ooGroup_ooGroup -->
<g id="node39" class="node">
<title>ooGroup_ooGroup</title>
<g id="a_node39"><a xlink:href="ooGroup.html#ooGroup" xlink:title="ooGroup">
<ellipse fill="#e2cdfa" stroke="#000000" cx="1351" cy="-68.0678" rx="50.0912" ry="18"/>
<text text-anchor="middle" x="1351" y="-64.3678" font-family="Times,serif" font-size="14.00" fill="#000000">ooGroup</text>
</a>
</g>
</g>
<!-- ooGroup_group_to_oogroup&#45;&gt;ooGroup_ooGroup -->
<g id="edge6" class="edge">
<title>ooGroup_group_to_oogroup&#45;&gt;ooGroup_ooGroup</title>
<path fill="none" stroke="#000000" d="M1659.1595,-212.2936C1594.4042,-181.9866 1458.3759,-118.3222 1390.8194,-86.7042"/>
<polygon fill="#000000" stroke="#000000" points="1392.2966,-83.5312 1381.7558,-82.4622 1389.3293,-89.8712 1392.2966,-83.5312"/>
</g>
<!-- ooGroup_is2graph_oogroup -->
<g id="node5" class="node">
<title>ooGroup_is2graph_oogroup</title>
<g id="a_node5"><a xlink:href="ooGroup.html#is2graph_oogroup" xlink:title="is2graph_oogroup">
<ellipse fill="#f070d1" stroke="#000000" cx="2022" cy="-582.0678" rx="94.7833" ry="18"/>
<text text-anchor="middle" x="2022" y="-578.3678" font-family="Times,serif" font-size="14.00" fill="#000000">is2graph_oogroup</text>
</a>
</g>
</g>
<!-- ooGroup_is1cat_oogroup&#45;&gt;ooGroup_is2graph_oogroup -->
<g id="edge7" class="edge">
<title>ooGroup_is1cat_oogroup&#45;&gt;ooGroup_is2graph_oogroup</title>
<path fill="none" stroke="#000000" d="M2033.6577,-740.7924C2031.3845,-709.8418 2026.7624,-646.9101 2024.0713,-610.2698"/>
<polygon fill="#000000" stroke="#000000" points="2027.5581,-609.9606 2023.335,-600.2438 2020.5769,-610.4734 2027.5581,-609.9606"/>
</g>
<!-- ooGroup_is01cat_oogroup -->
<g id="node6" class="node">
<title>ooGroup_is01cat_oogroup</title>
<g id="a_node6"><a xlink:href="ooGroup.html#is01cat_oogroup" xlink:title="is01cat_oogroup">
<ellipse fill="#f070d1" stroke="#000000" cx="1509" cy="-582.0678" rx="87.9851" ry="18"/>
<text text-anchor="middle" x="1509" y="-578.3678" font-family="Times,serif" font-size="14.00" fill="#000000">is01cat_oogroup</text>
</a>
</g>
</g>
<!-- ooGroup_is1cat_oogroup&#45;&gt;ooGroup_is01cat_oogroup -->
<g id="edge8" class="edge">
<title>ooGroup_is1cat_oogroup&#45;&gt;ooGroup_is01cat_oogroup</title>
<path fill="none" stroke="#000000" d="M1990.1535,-743.9769C1894.2439,-711.7031 1669.4237,-636.0507 1564.6153,-600.7825"/>
<polygon fill="#000000" stroke="#000000" points="1565.4496,-597.3704 1554.8556,-597.4983 1563.2171,-604.0049 1565.4496,-597.3704"/>
</g>
<!-- ooGroup_is2graph_oogroup&#45;&gt;ooGroup_isgraph_oogroup -->
<g id="edge9" class="edge">
<title>ooGroup_is2graph_oogroup&#45;&gt;ooGroup_isgraph_oogroup</title>
<path fill="none" stroke="#000000" d="M1992.4931,-564.8717C1937.4357,-532.7853 1819.1175,-463.8316 1758.1083,-428.2766"/>
<polygon fill="#000000" stroke="#000000" points="1759.5842,-425.0858 1749.182,-423.0746 1756.0596,-431.1337 1759.5842,-425.0858"/>
</g>
<!-- ooGroup_classifying_space -->
<g id="node33" class="node">
<title>ooGroup_classifying_space</title>
<g id="a_node33"><a xlink:href="ooGroup.html#classifying_space" xlink:title="classifying_space">
<ellipse fill="#f070d1" stroke="#000000" cx="2023" cy="-406.0678" rx="92.0841" ry="18"/>
<text text-anchor="middle" x="2023" y="-402.3678" font-family="Times,serif" font-size="14.00" fill="#000000">classifying_space</text>
</a>
</g>
</g>
<!-- ooGroup_is2graph_oogroup&#45;&gt;ooGroup_classifying_space -->
<g id="edge10" class="edge">
<title>ooGroup_is2graph_oogroup&#45;&gt;ooGroup_classifying_space</title>
<path fill="none" stroke="#000000" d="M2022.1033,-563.8956C2022.2774,-533.252 2022.6306,-471.0803 2022.838,-434.581"/>
<polygon fill="#000000" stroke="#000000" points="2026.3403,-434.1609 2022.8973,-424.1411 2019.3405,-434.1211 2026.3403,-434.1609"/>
</g>
<!-- ooGroup_is01cat_oogroup&#45;&gt;ooGroup_isgraph_oogroup -->
<g id="edge11" class="edge">
<title>ooGroup_is01cat_oogroup&#45;&gt;ooGroup_isgraph_oogroup</title>
<path fill="none" stroke="#000000" d="M1530.0029,-564.5488C1567.9006,-532.9374 1647.7794,-466.3086 1690.9089,-430.3333"/>
<polygon fill="#000000" stroke="#000000" points="1693.3316,-432.8703 1698.7689,-423.7771 1688.8477,-427.4949 1693.3316,-432.8703"/>
</g>
<!-- ooGroup_grouphom_idmap -->
<g id="node22" class="node">
<title>ooGroup_grouphom_idmap</title>
<g id="a_node22"><a xlink:href="ooGroup.html#grouphom_idmap" xlink:title="grouphom_idmap">
<ellipse fill="#f070d1" stroke="#000000" cx="888" cy="-406.0678" rx="91.784" ry="18"/>
<text text-anchor="middle" x="888" y="-402.3678" font-family="Times,serif" font-size="14.00" fill="#000000">grouphom_idmap</text>
</a>
</g>
</g>
<!-- ooGroup_is01cat_oogroup&#45;&gt;ooGroup_grouphom_idmap -->
<g id="edge12" class="edge">
<title>ooGroup_is01cat_oogroup&#45;&gt;ooGroup_grouphom_idmap</title>
<path fill="none" stroke="#000000" d="M1457.3876,-567.4401C1343.8677,-535.267 1072.8768,-458.4644 950.2116,-423.6994"/>
<polygon fill="#000000" stroke="#000000" points="950.8003,-420.2285 940.2249,-420.869 948.8915,-426.9632 950.8003,-420.2285"/>
</g>
<!-- ooGroup_grouphom_compose -->
<g id="node24" class="node">
<title>ooGroup_grouphom_compose</title>
<g id="a_node24"><a xlink:href="ooGroup.html#grouphom_compose" xlink:title="grouphom_compose">
<ellipse fill="#f070d1" stroke="#000000" cx="1509" cy="-406.0678" rx="103.9815" ry="18"/>
<text text-anchor="middle" x="1509" y="-402.3678" font-family="Times,serif" font-size="14.00" fill="#000000">grouphom_compose</text>
</a>
</g>
</g>
<!-- ooGroup_is01cat_oogroup&#45;&gt;ooGroup_grouphom_compose -->
<g id="edge13" class="edge">
<title>ooGroup_is01cat_oogroup&#45;&gt;ooGroup_grouphom_compose</title>
<path fill="none" stroke="#000000" d="M1509,-563.8956C1509,-533.252 1509,-471.0803 1509,-434.581"/>
<polygon fill="#000000" stroke="#000000" points="1512.5001,-434.1411 1509,-424.1411 1505.5001,-434.1412 1512.5001,-434.1411"/>
</g>
<!-- ooGroup_ooGroupHom -->
<g id="node28" class="node">
<title>ooGroup_ooGroupHom</title>
<g id="a_node28"><a xlink:href="ooGroup.html#ooGroupHom" xlink:title="ooGroupHom">
<ellipse fill="#f070d1" stroke="#000000" cx="1509" cy="-229.0678" rx="72.5877" ry="18"/>
<text text-anchor="middle" x="1509" y="-225.3678" font-family="Times,serif" font-size="14.00" fill="#000000">ooGroupHom</text>
</a>
</g>
</g>
<!-- ooGroup_isgraph_oogroup&#45;&gt;ooGroup_ooGroupHom -->
<g id="edge14" class="edge">
<title>ooGroup_isgraph_oogroup&#45;&gt;ooGroup_ooGroupHom</title>
<path fill="none" stroke="#000000" d="M1698.9971,-388.4493C1660.9035,-356.494 1580.3938,-288.9574 1537.4253,-252.9127"/>
<polygon fill="#000000" stroke="#000000" points="1539.5175,-250.0994 1529.6067,-246.354 1535.0187,-255.4623 1539.5175,-250.0994"/>
</g>
<!-- ooGroup_cosets -->
<g id="node8" class="node">
<title>ooGroup_cosets</title>
<g id="a_node8"><a xlink:href="ooGroup.html#cosets" xlink:title="cosets">
<ellipse fill="#f070d1" stroke="#000000" cx="1019" cy="-759.0678" rx="40.1273" ry="18"/>
<ellipse fill="none" stroke="#000000" cx="1019" cy="-759.0678" rx="44.1105" ry="22"/>
<ellipse fill="none" stroke="#000000" cx="1019" cy="-759.0678" rx="48.0937" ry="26"/>
<text text-anchor="middle" x="1019" y="-755.3678" font-family="Times,serif" font-size="14.00" fill="#000000">cosets</text>
</a>
</g>
</g>
<!-- ooGroup_in_coset -->
<g id="node15" class="node">
<title>ooGroup_in_coset</title>
<g id="a_node15"><a xlink:href="ooGroup.html#in_coset" xlink:title="in_coset">
<ellipse fill="#f070d1" stroke="#000000" cx="582" cy="-582.0678" rx="49.2915" ry="18"/>
<text text-anchor="middle" x="582" y="-578.3678" font-family="Times,serif" font-size="14.00" fill="#000000">in_coset</text>
</a>
</g>
</g>
<!-- ooGroup_cosets&#45;&gt;ooGroup_in_coset -->
<g id="edge15" class="edge">
<title>ooGroup_cosets&#45;&gt;ooGroup_in_coset</title>
<path fill="none" stroke="#000000" d="M982.3306,-742.0002C975.5959,-738.9629 968.607,-735.875 962,-733.0678 822.6133,-673.8442 785.4455,-664.7349 645,-608.0678 638.2106,-605.3284 631.0228,-602.3943 624.0258,-599.5197"/>
<polygon fill="#000000" stroke="#000000" points="625.2374,-596.2336 614.6581,-595.6606 622.571,-602.7059 625.2374,-596.2336"/>
</g>
<!-- ooGroup_equiv_coset_subgroup -->
<g id="node9" class="node">
<title>ooGroup_equiv_coset_subgroup</title>
<g id="a_node9"><a xlink:href="ooGroup.html#equiv_coset_subgroup" xlink:title="equiv_coset_subgroup">
<ellipse fill="#f070d1" stroke="#000000" cx="675" cy="-936.0678" rx="114.287" ry="18"/>
<ellipse fill="none" stroke="#000000" cx="675" cy="-936.0678" rx="118.2834" ry="22"/>
<ellipse fill="none" stroke="#000000" cx="675" cy="-936.0678" rx="122.2798" ry="26"/>
<text text-anchor="middle" x="675" y="-932.3678" font-family="Times,serif" font-size="14.00" fill="#000000">equiv_coset_subgroup</text>
</a>
</g>
</g>
<!-- ooGroup_equiv_coset_subgroup_subproof -->
<g id="node10" class="node">
<title>ooGroup_equiv_coset_subgroup_subproof</title>
<g id="a_node10"><a xlink:href="ooGroup.html#equiv_coset_subgroup_subproof" xlink:title="equiv_coset_subgroup_subproof">
<ellipse fill="#f070d1" stroke="#000000" cx="177" cy="-759.0678" rx="160.5715" ry="18"/>
<text text-anchor="middle" x="177" y="-755.3678" font-family="Times,serif" font-size="14.00" fill="#000000">equiv_coset_subgroup_subproof</text>
</a>
</g>
</g>
<!-- ooGroup_equiv_coset_subgroup&#45;&gt;ooGroup_equiv_coset_subgroup_subproof -->
<g id="edge16" class="edge">
<title>ooGroup_equiv_coset_subgroup&#45;&gt;ooGroup_equiv_coset_subgroup_subproof</title>
<path fill="none" stroke="#000000" d="M612.1803,-913.7403C514.9504,-879.1827 329.4152,-813.2395 235.1214,-779.7254"/>
<polygon fill="#000000" stroke="#000000" points="236.0559,-776.3431 225.4612,-776.292 233.7116,-782.9389 236.0559,-776.3431"/>
</g>
<!-- ooGroup_ishprop_in_coset -->
<g id="node14" class="node">
<title>ooGroup_ishprop_in_coset</title>
<g id="a_node14"><a xlink:href="ooGroup.html#ishprop_in_coset" xlink:title="ishprop_in_coset">
<ellipse fill="#f070d1" stroke="#000000" cx="1174" cy="-759.0678" rx="89.0842" ry="18"/>
<text text-anchor="middle" x="1174" y="-755.3678" font-family="Times,serif" font-size="14.00" fill="#000000">ishprop_in_coset</text>
</a>
</g>
</g>
<!-- ooGroup_equiv_coset_subgroup&#45;&gt;ooGroup_ishprop_in_coset -->
<g id="edge17" class="edge">
<title>ooGroup_equiv_coset_subgroup&#45;&gt;ooGroup_ishprop_in_coset</title>
<path fill="none" stroke="#000000" d="M737.9459,-913.7403C836.8892,-878.6442 1027.0948,-811.1765 1120.112,-778.1824"/>
<polygon fill="#000000" stroke="#000000" points="1121.3593,-781.4537 1129.6139,-774.812 1119.0191,-774.8564 1121.3593,-781.4537"/>
</g>
<!-- ooGroup_grouphom_V -->
<g id="node17" class="node">
<title>ooGroup_grouphom_V</title>
<g id="a_node17"><a xlink:href="ooGroup.html#grouphom_V" xlink:title="grouphom_V">
<ellipse fill="#f070d1" stroke="#000000" cx="278" cy="-582.0678" rx="69.5877" ry="18"/>
<text text-anchor="middle" x="278" y="-578.3678" font-family="Times,serif" font-size="14.00" fill="#000000">grouphom_V</text>
</a>
</g>
</g>
<!-- ooGroup_equiv_coset_subgroup_subproof&#45;&gt;ooGroup_grouphom_V -->
<g id="edge18" class="edge">
<title>ooGroup_equiv_coset_subgroup_subproof&#45;&gt;ooGroup_grouphom_V</title>
<path fill="none" stroke="#000000" d="M187.4284,-740.7924C205.2873,-709.4951 241.8065,-645.496 262.6044,-609.0483"/>
<polygon fill="#000000" stroke="#000000" points="265.8625,-610.4003 267.7788,-599.9802 259.7827,-606.931 265.8625,-610.4003"/>
</g>
<!-- ooGroup_transitive_coset -->
<g id="node11" class="node">
<title>ooGroup_transitive_coset</title>
<g id="a_node11"><a xlink:href="ooGroup.html#transitive_coset" xlink:title="transitive_coset">
<ellipse fill="#f070d1" stroke="#000000" cx="860" cy="-759.0678" rx="85.2729" ry="18"/>
<ellipse fill="none" stroke="#000000" cx="860" cy="-759.0678" rx="89.279" ry="22"/>
<ellipse fill="none" stroke="#000000" cx="860" cy="-759.0678" rx="93.2851" ry="26"/>
<text text-anchor="middle" x="860" y="-755.3678" font-family="Times,serif" font-size="14.00" fill="#000000">transitive_coset</text>
</a>
</g>
</g>
<!-- ooGroup_transitive_coset&#45;&gt;ooGroup_in_coset -->
<g id="edge19" class="edge">
<title>ooGroup_transitive_coset&#45;&gt;ooGroup_in_coset</title>
<path fill="none" stroke="#000000" d="M822.5077,-735.1968C767.8678,-700.4081 667.2154,-636.3237 615.1445,-603.1706"/>
<polygon fill="#000000" stroke="#000000" points="616.9286,-600.1573 606.6135,-597.739 613.1691,-606.0621 616.9286,-600.1573"/>
</g>
<!-- ooGroup_grouphom_pp -->
<g id="node18" class="node">
<title>ooGroup_grouphom_pp</title>
<g id="a_node18"><a xlink:href="ooGroup.html#grouphom_pp" xlink:title="grouphom_pp">
<ellipse fill="#f070d1" stroke="#000000" cx="440" cy="-582.0678" rx="74.9875" ry="18"/>
<text text-anchor="middle" x="440" y="-578.3678" font-family="Times,serif" font-size="14.00" fill="#000000">grouphom_pp</text>
</a>
</g>
</g>
<!-- ooGroup_transitive_coset&#45;&gt;ooGroup_grouphom_pp -->
<g id="edge20" class="edge">
<title>ooGroup_transitive_coset&#45;&gt;ooGroup_grouphom_pp</title>
<path fill="none" stroke="#000000" d="M808.4998,-737.3641C725.9875,-702.5911 565.4249,-634.9254 486.3203,-601.5885"/>
<polygon fill="#000000" stroke="#000000" points="487.6623,-598.356 477.088,-597.6977 484.9438,-604.8066 487.6623,-598.356"/>
</g>
<!-- ooGroup_symmetric_coset -->
<g id="node12" class="node">
<title>ooGroup_symmetric_coset</title>
<g id="a_node12"><a xlink:href="ooGroup.html#symmetric_coset" xlink:title="symmetric_coset">
<ellipse fill="#f070d1" stroke="#000000" cx="651" cy="-759.0678" rx="90.1971" ry="18"/>
<ellipse fill="none" stroke="#000000" cx="651" cy="-759.0678" rx="94.1906" ry="22"/>
<ellipse fill="none" stroke="#000000" cx="651" cy="-759.0678" rx="98.1842" ry="26"/>
<text text-anchor="middle" x="651" y="-755.3678" font-family="Times,serif" font-size="14.00" fill="#000000">symmetric_coset</text>
</a>
</g>
</g>
<!-- ooGroup_symmetric_coset&#45;&gt;ooGroup_in_coset -->
<g id="edge21" class="edge">
<title>ooGroup_symmetric_coset&#45;&gt;ooGroup_in_coset</title>
<path fill="none" stroke="#000000" d="M640.8188,-732.9508C627.9771,-700.009 605.989,-643.6048 592.8422,-609.8805"/>
<polygon fill="#000000" stroke="#000000" points="595.9591,-608.2394 589.066,-600.1936 589.4371,-610.7819 595.9591,-608.2394"/>
</g>
<!-- ooGroup_symmetric_coset&#45;&gt;ooGroup_grouphom_V -->
<g id="edge22" class="edge">
<title>ooGroup_symmetric_coset&#45;&gt;ooGroup_grouphom_V</title>
<path fill="none" stroke="#000000" d="M603.0004,-736.2905C529.7109,-701.5124 391.0489,-635.713 320.9204,-602.4349"/>
<polygon fill="#000000" stroke="#000000" points="322.0287,-599.0867 311.4938,-597.9616 319.0277,-605.4108 322.0287,-599.0867"/>
</g>
<!-- ooGroup_reflexive_coset -->
<g id="node13" class="node">
<title>ooGroup_reflexive_coset</title>
<g id="a_node13"><a xlink:href="ooGroup.html#reflexive_coset" xlink:title="reflexive_coset">
<ellipse fill="#f070d1" stroke="#000000" cx="445" cy="-759.0678" rx="81.4644" ry="18"/>
<ellipse fill="none" stroke="#000000" cx="445" cy="-759.0678" rx="85.4753" ry="22"/>
<ellipse fill="none" stroke="#000000" cx="445" cy="-759.0678" rx="89.4862" ry="26"/>
<text text-anchor="middle" x="445" y="-755.3678" font-family="Times,serif" font-size="14.00" fill="#000000">reflexive_coset</text>
</a>
</g>
</g>
<!-- ooGroup_reflexive_coset&#45;&gt;ooGroup_in_coset -->
<g id="edge23" class="edge">
<title>ooGroup_reflexive_coset&#45;&gt;ooGroup_in_coset</title>
<path fill="none" stroke="#000000" d="M464.921,-733.3305C490.9184,-699.7425 536.1496,-641.3052 562.1245,-607.7463"/>
<polygon fill="#000000" stroke="#000000" points="564.937,-609.8309 568.29,-599.7807 559.4014,-605.5463 564.937,-609.8309"/>
</g>
<!-- ooGroup_grouphom_1 -->
<g id="node16" class="node">
<title>ooGroup_grouphom_1</title>
<g id="a_node16"><a xlink:href="ooGroup.html#grouphom_1" xlink:title="grouphom_1">
<ellipse fill="#f070d1" stroke="#000000" cx="122" cy="-582.0678" rx="68.7879" ry="18"/>
<text text-anchor="middle" x="122" y="-578.3678" font-family="Times,serif" font-size="14.00" fill="#000000">grouphom_1</text>
</a>
</g>
</g>
<!-- ooGroup_reflexive_coset&#45;&gt;ooGroup_grouphom_1 -->
<g id="edge24" class="edge">
<title>ooGroup_reflexive_coset&#45;&gt;ooGroup_grouphom_1</title>
<path fill="none" stroke="#000000" d="M403.1045,-736.1096C340.1087,-701.5887 221.8763,-636.7988 160.768,-603.3122"/>
<polygon fill="#000000" stroke="#000000" points="162.2755,-600.1472 151.8239,-598.4109 158.9115,-606.286 162.2755,-600.1472"/>
</g>
<!-- ooGroup_ishprop_in_coset&#45;&gt;ooGroup_in_coset -->
<g id="edge25" class="edge">
<title>ooGroup_ishprop_in_coset&#45;&gt;ooGroup_in_coset</title>
<path fill="none" stroke="#000000" d="M1120.3511,-744.5866C1004.6251,-713.2137 734.7567,-639.2866 645,-608.0678 637.9314,-605.6092 630.5099,-602.7784 623.3415,-599.9093"/>
<polygon fill="#000000" stroke="#000000" points="624.361,-596.5452 613.78,-596.0047 621.7145,-603.0256 624.361,-596.5452"/>
</g>
<!-- ooGroup_grouphom_fun -->
<g id="node27" class="node">
<title>ooGroup_grouphom_fun</title>
<g id="a_node27"><a xlink:href="ooGroup.html#grouphom_fun" xlink:title="grouphom_fun">
<ellipse fill="#f070d1" stroke="#000000" cx="506" cy="-406.0678" rx="77.9862" ry="18"/>
<text text-anchor="middle" x="506" y="-402.3678" font-family="Times,serif" font-size="14.00" fill="#000000">grouphom_fun</text>
</a>
</g>
</g>
<!-- ooGroup_in_coset&#45;&gt;ooGroup_grouphom_fun -->
<g id="edge26" class="edge">
<title>ooGroup_in_coset&#45;&gt;ooGroup_grouphom_fun</title>
<path fill="none" stroke="#000000" d="M574.2945,-564.2234C561.0143,-533.4692 533.7258,-470.275 517.9597,-433.7639"/>
<polygon fill="#000000" stroke="#000000" points="521.0172,-432.0157 513.8396,-424.2226 514.5908,-434.7908 521.0172,-432.0157"/>
</g>
<!-- ooGroup_grouphom_1&#45;&gt;ooGroup_grouphom_fun -->
<g id="edge27" class="edge">
<title>ooGroup_grouphom_1&#45;&gt;ooGroup_grouphom_fun</title>
<path fill="none" stroke="#000000" d="M156.4154,-566.2941C226.0595,-534.3738 383.6493,-462.1452 461.1934,-426.6042"/>
<polygon fill="#000000" stroke="#000000" points="463.0583,-429.5996 470.6906,-422.2513 460.1416,-423.2361 463.0583,-429.5996"/>
</g>
<!-- ooGroup_grouphom_1&#45;&gt;ooGroup_Build_ooGroup -->
<g id="edge28" class="edge">
<title>ooGroup_grouphom_1&#45;&gt;ooGroup_Build_ooGroup</title>
<path fill="none" stroke="#000000" d="M133.3477,-563.9897C170.9915,-505.2073 297.6395,-316.7364 443,-203.0678 511.5101,-149.4944 604.6845,-109.0329 662.5458,-86.9506"/>
<polygon fill="#000000" stroke="#000000" points="664.0987,-90.1057 672.2217,-83.3037 661.6298,-83.5555 664.0987,-90.1057"/>
</g>
<!-- ooGroup_grouphom_V&#45;&gt;ooGroup_grouphom_fun -->
<g id="edge29" class="edge">
<title>ooGroup_grouphom_V&#45;&gt;ooGroup_grouphom_fun</title>
<path fill="none" stroke="#000000" d="M300.2767,-564.8717C341.311,-533.1961 428.8898,-465.5915 475.439,-429.6587"/>
<polygon fill="#000000" stroke="#000000" points="477.8556,-432.2148 483.6328,-423.3337 473.5782,-426.6737 477.8556,-432.2148"/>
</g>
<!-- ooGroup_grouphom_V&#45;&gt;ooGroup_Build_ooGroup -->
<g id="edge30" class="edge">
<title>ooGroup_grouphom_V&#45;&gt;ooGroup_Build_ooGroup</title>
<path fill="none" stroke="#000000" d="M284.4385,-563.764C305.821,-505.0838 379.554,-318.7501 492,-203.0678 543.1806,-150.4142 619.0882,-110.4112 668.0578,-88.0877"/>
<polygon fill="#000000" stroke="#000000" points="669.787,-91.148 677.4772,-83.8603 666.9208,-84.7617 669.787,-91.148"/>
</g>
<!-- ooGroup_grouphom_pp&#45;&gt;ooGroup_grouphom_fun -->
<g id="edge31" class="edge">
<title>ooGroup_grouphom_pp&#45;&gt;ooGroup_grouphom_fun</title>
<path fill="none" stroke="#000000" d="M446.8146,-563.8956C458.405,-532.9879 482.0232,-470.006 495.6594,-433.6428"/>
<polygon fill="#000000" stroke="#000000" points="498.9884,-434.7334 499.2225,-424.1411 492.434,-432.2755 498.9884,-434.7334"/>
</g>
<!-- ooGroup_grouphom_pp&#45;&gt;ooGroup_Build_ooGroup -->
<g id="edge32" class="edge">
<title>ooGroup_grouphom_pp&#45;&gt;ooGroup_Build_ooGroup</title>
<path fill="none" stroke="#000000" d="M432.8007,-564.0618C419.4601,-527.8674 394.398,-444.2694 419,-380.0678 470.7322,-245.0667 613.7006,-136.0378 680.6088,-90.741"/>
<polygon fill="#000000" stroke="#000000" points="682.7811,-93.4987 689.1458,-85.0286 678.8883,-87.6809 682.7811,-93.4987"/>
</g>
<!-- ooGroup_idmap_grouphom -->
<g id="node19" class="node">
<title>ooGroup_idmap_grouphom</title>
<g id="a_node19"><a xlink:href="ooGroup.html#idmap_grouphom" xlink:title="idmap_grouphom">
<ellipse fill="#f070d1" stroke="#000000" cx="769" cy="-582.0678" rx="91.7725" ry="18"/>
<ellipse fill="none" stroke="#000000" cx="769" cy="-582.0678" rx="95.7782" ry="22"/>
<ellipse fill="none" stroke="#000000" cx="769" cy="-582.0678" rx="99.7839" ry="26"/>
<text text-anchor="middle" x="769" y="-578.3678" font-family="Times,serif" font-size="14.00" fill="#000000">idmap_grouphom</text>
</a>
</g>
</g>
<!-- ooGroup_idmap_grouphom&#45;&gt;ooGroup_grouphom_idmap -->
<g id="edge33" class="edge">
<title>ooGroup_idmap_grouphom&#45;&gt;ooGroup_grouphom_idmap</title>
<path fill="none" stroke="#000000" d="M786.5589,-556.0984C808.9926,-522.9191 847.611,-465.8027 870.1729,-432.4339"/>
<polygon fill="#000000" stroke="#000000" points="873.112,-434.3357 875.8138,-424.0911 867.3131,-430.4148 873.112,-434.3357"/>
</g>
<!-- ooGroup_idmap_grouphom&#45;&gt;ooGroup_grouphom_fun -->
<g id="edge34" class="edge">
<title>ooGroup_idmap_grouphom&#45;&gt;ooGroup_grouphom_fun</title>
<path fill="none" stroke="#000000" d="M732.7071,-557.7805C681.7941,-523.7094 589.8417,-462.1748 540.1248,-428.9041"/>
<polygon fill="#000000" stroke="#000000" points="541.9017,-425.8819 531.6443,-423.229 538.0085,-431.6994 541.9017,-425.8819"/>
</g>
<!-- ooGroup_idmap_grouphom&#45;&gt;ooGroup_Build_ooGroup -->
<g id="edge35" class="edge">
<title>ooGroup_idmap_grouphom&#45;&gt;ooGroup_Build_ooGroup</title>
<path fill="none" stroke="#000000" d="M732.2758,-557.8933C695.5904,-531.5954 640.774,-486.0175 613,-432.0678 594.8032,-396.7213 589.8966,-294.7176 587,-255.0678 585.3161,-232.0181 578.3989,-224.5188 587,-203.0678 606.1042,-155.4223 650.9309,-115.0673 682.3492,-91.2132"/>
<polygon fill="#000000" stroke="#000000" points="684.4794,-93.9909 690.4228,-85.2201 680.3071,-88.3701 684.4794,-93.9909"/>
</g>
<!-- ooGroup_compose_grouphom -->
<g id="node20" class="node">
<title>ooGroup_compose_grouphom</title>
<g id="a_node20"><a xlink:href="ooGroup.html#compose_grouphom" xlink:title="compose_grouphom">
<ellipse fill="#f070d1" stroke="#000000" cx="1039" cy="-582.0678" rx="103.9822" ry="18"/>
<ellipse fill="none" stroke="#000000" cx="1039" cy="-582.0678" rx="107.9819" ry="22"/>
<ellipse fill="none" stroke="#000000" cx="1039" cy="-582.0678" rx="111.9815" ry="26"/>
<text text-anchor="middle" x="1039" y="-578.3678" font-family="Times,serif" font-size="14.00" fill="#000000">compose_grouphom</text>
</a>
</g>
</g>
<!-- ooGroup_compose_grouphom&#45;&gt;ooGroup_grouphom_compose -->
<g id="edge36" class="edge">
<title>ooGroup_compose_grouphom&#45;&gt;ooGroup_grouphom_compose</title>
<path fill="none" stroke="#000000" d="M1098.0499,-559.9555C1190.2539,-525.4281 1367.0144,-459.2369 1455.6126,-426.0597"/>
<polygon fill="#000000" stroke="#000000" points="1457.0582,-429.2558 1465.1957,-422.4711 1454.6034,-422.7003 1457.0582,-429.2558"/>
</g>
<!-- ooGroup_compose_grouphom&#45;&gt;ooGroup_grouphom_fun -->
<g id="edge37" class="edge">
<title>ooGroup_compose_grouphom&#45;&gt;ooGroup_grouphom_fun</title>
<path fill="none" stroke="#000000" d="M974.4424,-560.7505C868.3597,-525.7213 659.0927,-456.62 560.2008,-423.9653"/>
<polygon fill="#000000" stroke="#000000" points="561.2899,-420.639 550.6967,-420.8269 559.0949,-427.286 561.2899,-420.639"/>
</g>
<!-- ooGroup_compose_grouphom&#45;&gt;ooGroup_Build_ooGroup -->
<g id="edge38" class="edge">
<title>ooGroup_compose_grouphom&#45;&gt;ooGroup_Build_ooGroup</title>
<path fill="none" stroke="#000000" d="M1035.1528,-556.0792C1027.6347,-508.0764 1009.8892,-407.8671 989,-380.0678 922.3691,-291.3957 841.9665,-341.9357 773,-255.0678 762.9484,-242.4071 736.2877,-145.0184 723.3069,-96.0268"/>
<polygon fill="#000000" stroke="#000000" points="726.6171,-94.8533 720.6823,-86.0767 719.8486,-96.6387 726.6171,-94.8533"/>
</g>
<!-- ooGroup_group_loops_functor_idmap -->
<g id="node21" class="node">
<title>ooGroup_group_loops_functor_idmap</title>
<g id="a_node21"><a xlink:href="ooGroup.html#group_loops_functor_idmap" xlink:title="group_loops_functor_idmap">
<ellipse fill="#f070d1" stroke="#000000" cx="1429" cy="-759.0678" rx="139.9627" ry="18"/>
<ellipse fill="none" stroke="#000000" cx="1429" cy="-759.0678" rx="143.9691" ry="22"/>
<ellipse fill="none" stroke="#000000" cx="1429" cy="-759.0678" rx="147.9756" ry="26"/>
<text text-anchor="middle" x="1429" y="-755.3678" font-family="Times,serif" font-size="14.00" fill="#000000">group_loops_functor_idmap</text>
</a>
</g>
</g>
<!-- ooGroup_group_loops_functor_idmap&#45;&gt;ooGroup_grouphom_idmap -->
<g id="edge39" class="edge">
<title>ooGroup_group_loops_functor_idmap&#45;&gt;ooGroup_grouphom_idmap</title>
<path fill="none" stroke="#000000" d="M1321.5508,-741.2129C1187.8897,-716.7421 970.7928,-668.8148 918,-608.0678 875.5496,-559.2214 878.3829,-477.337 883.5055,-434.3605"/>
<polygon fill="#000000" stroke="#000000" points="886.9925,-434.6884 884.831,-424.3164 880.0527,-433.7725 886.9925,-434.6884"/>
</g>
<!-- ooGroup_loops_functor_group -->
<g id="node25" class="node">
<title>ooGroup_loops_functor_group</title>
<g id="a_node25"><a xlink:href="ooGroup.html#loops_functor_group" xlink:title="loops_functor_group">
<ellipse fill="#f070d1" stroke="#000000" cx="1276" cy="-582.0678" rx="106.6812" ry="18"/>
<text text-anchor="middle" x="1276" y="-578.3678" font-family="Times,serif" font-size="14.00" fill="#000000">loops_functor_group</text>
</a>
</g>
</g>
<!-- ooGroup_group_loops_functor_idmap&#45;&gt;ooGroup_loops_functor_group -->
<g id="edge40" class="edge">
<title>ooGroup_group_loops_functor_idmap&#45;&gt;ooGroup_loops_functor_group</title>
<path fill="none" stroke="#000000" d="M1406.7525,-733.3305C1377.7493,-699.7777 1327.3111,-641.4277 1298.288,-607.8519"/>
<polygon fill="#000000" stroke="#000000" points="1300.9302,-605.5565 1291.7427,-600.2799 1295.6344,-610.1342 1300.9302,-605.5565"/>
</g>
<!-- ooGroup_group_loops_functor_idmap&#45;&gt;ooGroup_grouphom_fun -->
<g id="edge41" class="edge">
<title>ooGroup_group_loops_functor_idmap&#45;&gt;ooGroup_grouphom_fun</title>
<path fill="none" stroke="#000000" d="M1322.7519,-740.9992C1117.7315,-705.7489 685.3753,-629.3873 660,-608.0678 641.0415,-592.1395 652.9034,-577.2016 640,-556.0678 609.9326,-506.8221 562.8544,-458.6571 533.2507,-430.6936"/>
<polygon fill="#000000" stroke="#000000" points="535.4546,-427.9629 525.7576,-423.6946 530.6764,-433.0784 535.4546,-427.9629"/>
</g>
<!-- ooGroup_grouphom_idmap&#45;&gt;ooGroup_ooGroupHom -->
<g id="edge42" class="edge">
<title>ooGroup_grouphom_idmap&#45;&gt;ooGroup_ooGroupHom</title>
<path fill="none" stroke="#000000" d="M942.6173,-391.5306C1040.3168,-365.3629 1251.3179,-308.1062 1428,-255.0678 1436.8299,-252.4171 1446.1697,-249.5133 1455.2456,-246.6373"/>
<polygon fill="#000000" stroke="#000000" points="1456.4903,-249.9141 1464.9539,-243.5408 1454.3631,-243.2451 1456.4903,-249.9141"/>
</g>
<!-- ooGroup_group_loops_functor_compose -->
<g id="node23" class="node">
<title>ooGroup_group_loops_functor_compose</title>
<g id="a_node23"><a xlink:href="ooGroup.html#group_loops_functor_compose" xlink:title="group_loops_functor_compose">
<ellipse fill="#f070d1" stroke="#000000" cx="1755" cy="-759.0678" rx="152.1687" ry="18"/>
<ellipse fill="none" stroke="#000000" cx="1755" cy="-759.0678" rx="156.1709" ry="22"/>
<ellipse fill="none" stroke="#000000" cx="1755" cy="-759.0678" rx="160.1731" ry="26"/>
<text text-anchor="middle" x="1755" y="-755.3678" font-family="Times,serif" font-size="14.00" fill="#000000">group_loops_functor_compose</text>
</a>
</g>
</g>
<!-- ooGroup_group_loops_functor_compose&#45;&gt;ooGroup_grouphom_compose -->
<g id="edge43" class="edge">
<title>ooGroup_group_loops_functor_compose&#45;&gt;ooGroup_grouphom_compose</title>
<path fill="none" stroke="#000000" d="M1638.2033,-741.146C1559.686,-722.3655 1461.7701,-684.3578 1412,-608.0678 1372.8788,-548.101 1440.1429,-469.9531 1481.046,-430.7598"/>
<polygon fill="#000000" stroke="#000000" points="1483.4496,-433.304 1488.3452,-423.9081 1478.6587,-428.2003 1483.4496,-433.304"/>
</g>
<!-- ooGroup_group_loops_functor_compose&#45;&gt;ooGroup_loops_functor_group -->
<g id="edge44" class="edge">
<title>ooGroup_group_loops_functor_compose&#45;&gt;ooGroup_loops_functor_group</title>
<path fill="none" stroke="#000000" d="M1690.3999,-735.1968C1595.1448,-699.9981 1418.7294,-634.8092 1329.9718,-602.0114"/>
<polygon fill="#000000" stroke="#000000" points="1330.9617,-598.646 1320.3684,-598.4628 1328.5353,-605.212 1330.9617,-598.646"/>
</g>
<!-- ooGroup_group_loops_functor_compose&#45;&gt;ooGroup_grouphom_fun -->
<g id="edge45" class="edge">
<title>ooGroup_group_loops_functor_compose&#45;&gt;ooGroup_grouphom_fun</title>
<path fill="none" stroke="#000000" d="M1641.1678,-740.7591C1419.4964,-704.7983 948.7834,-626.8057 918,-608.0678 893.0936,-592.9072 901.2262,-573.6949 878,-556.0678 783.7119,-484.5096 650.6299,-441.8472 571.8403,-421.2561"/>
<polygon fill="#000000" stroke="#000000" points="572.5927,-417.8358 562.0361,-418.7346 570.8492,-424.6151 572.5927,-417.8358"/>
</g>
<!-- ooGroup_grouphom_compose&#45;&gt;ooGroup_ooGroupHom -->
<g id="edge46" class="edge">
<title>ooGroup_grouphom_compose&#45;&gt;ooGroup_ooGroupHom</title>
<path fill="none" stroke="#000000" d="M1509,-387.7924C1509,-356.8418 1509,-293.9101 1509,-257.2698"/>
<polygon fill="#000000" stroke="#000000" points="1512.5001,-257.2438 1509,-247.2438 1505.5001,-257.2439 1512.5001,-257.2438"/>
</g>
<!-- ooGroup_group_loops_functor -->
<g id="node26" class="node">
<title>ooGroup_group_loops_functor</title>
<g id="a_node26"><a xlink:href="ooGroup.html#group_loops_functor" xlink:title="group_loops_functor">
<ellipse fill="#f070d1" stroke="#000000" cx="1280" cy="-406.0678" rx="106.6812" ry="18"/>
<text text-anchor="middle" x="1280" y="-402.3678" font-family="Times,serif" font-size="14.00" fill="#000000">group_loops_functor</text>
</a>
</g>
</g>
<!-- ooGroup_loops_functor_group&#45;&gt;ooGroup_group_loops_functor -->
<g id="edge47" class="edge">
<title>ooGroup_loops_functor_group&#45;&gt;ooGroup_group_loops_functor</title>
<path fill="none" stroke="#000000" d="M1276.413,-563.8956C1277.1094,-533.252 1278.5224,-471.0803 1279.352,-434.581"/>
<polygon fill="#000000" stroke="#000000" points="1282.861,-434.2181 1279.5892,-424.1411 1275.8628,-434.059 1282.861,-434.2181"/>
</g>
<!-- ooGroup_loops_group -->
<g id="node29" class="node">
<title>ooGroup_loops_group</title>
<g id="a_node29"><a xlink:href="ooGroup.html#loops_group" xlink:title="loops_group">
<ellipse fill="#f070d1" stroke="#000000" cx="1088" cy="-406.0678" rx="67.6881" ry="18"/>
<text text-anchor="middle" x="1088" y="-402.3678" font-family="Times,serif" font-size="14.00" fill="#000000">loops_group</text>
</a>
</g>
</g>
<!-- ooGroup_loops_functor_group&#45;&gt;ooGroup_loops_group -->
<g id="edge48" class="edge">
<title>ooGroup_loops_functor_group&#45;&gt;ooGroup_loops_group</title>
<path fill="none" stroke="#000000" d="M1256.939,-564.2234C1223.1245,-532.5673 1152.5959,-466.5406 1114.2284,-430.6221"/>
<polygon fill="#000000" stroke="#000000" points="1116.2464,-427.7168 1106.5542,-423.4376 1111.4624,-432.827 1116.2464,-427.7168"/>
</g>
<!-- ooGroup_group_loops_functor&#45;&gt;ooGroup_ooGroupHom -->
<g id="edge49" class="edge">
<title>ooGroup_group_loops_functor&#45;&gt;ooGroup_ooGroupHom</title>
<path fill="none" stroke="#000000" d="M1302.7946,-388.4493C1344.2238,-356.4275 1431.8792,-288.6764 1478.4401,-252.6883"/>
<polygon fill="#000000" stroke="#000000" points="1480.8637,-255.2387 1486.6354,-246.354 1476.5828,-249.7003 1480.8637,-255.2387"/>
</g>
<!-- ooGroup_group_loops -->
<g id="node30" class="node">
<title>ooGroup_group_loops</title>
<g id="a_node30"><a xlink:href="ooGroup.html#group_loops" xlink:title="group_loops">
<ellipse fill="#f070d1" stroke="#000000" cx="1351" cy="-229.0678" rx="67.6881" ry="18"/>
<text text-anchor="middle" x="1351" y="-225.3678" font-family="Times,serif" font-size="14.00" fill="#000000">group_loops</text>
</a>
</g>
</g>
<!-- ooGroup_group_loops_functor&#45;&gt;ooGroup_group_loops -->
<g id="edge50" class="edge">
<title>ooGroup_group_loops_functor&#45;&gt;ooGroup_group_loops</title>
<path fill="none" stroke="#000000" d="M1287.3308,-387.7924C1299.8317,-356.6283 1325.3388,-293.04 1339.9901,-256.515"/>
<polygon fill="#000000" stroke="#000000" points="1343.3402,-257.5644 1343.8148,-246.9802 1336.8434,-254.9583 1343.3402,-257.5644"/>
</g>
<!-- ooGroup_grouphom_fun&#45;&gt;ooGroup_ooGroupHom -->
<g id="edge51" class="edge">
<title>ooGroup_grouphom_fun&#45;&gt;ooGroup_ooGroupHom</title>
<path fill="none" stroke="#000000" d="M557.775,-392.5346C575.2451,-388.2228 594.9028,-383.6474 613,-380.0678 972.4928,-308.96 1071.3091,-339.1091 1428,-255.0678 1437.7035,-252.7815 1447.9213,-249.8933 1457.7075,-246.8795"/>
<polygon fill="#000000" stroke="#000000" points="1458.8355,-250.1937 1467.3149,-243.8415 1456.7249,-243.5195 1458.8355,-250.1937"/>
</g>
<!-- ooGroup_group_type -->
<g id="node31" class="node">
<title>ooGroup_group_type</title>
<g id="a_node31"><a xlink:href="ooGroup.html#group_type" xlink:title="group_type">
<ellipse fill="#f070d1" stroke="#000000" cx="1202" cy="-229.0678" rx="63.8893" ry="18"/>
<text text-anchor="middle" x="1202" y="-225.3678" font-family="Times,serif" font-size="14.00" fill="#000000">group_type</text>
</a>
</g>
</g>
<!-- ooGroup_grouphom_fun&#45;&gt;ooGroup_group_type -->
<g id="edge52" class="edge">
<title>ooGroup_grouphom_fun&#45;&gt;ooGroup_group_type</title>
<path fill="none" stroke="#000000" d="M559.8819,-392.9623C576.8758,-388.8323 595.7216,-384.2558 613,-380.0678 842.746,-324.3808 903.6003,-323.0929 1130,-255.0678 1138.0504,-252.6489 1146.5179,-249.8382 1154.705,-246.9769"/>
<polygon fill="#000000" stroke="#000000" points="1155.899,-250.2671 1164.1454,-243.6151 1153.5507,-243.6727 1155.899,-250.2671"/>
</g>
<!-- ooGroup_ooGroupHom&#45;&gt;ooGroup_ooGroup -->
<g id="edge53" class="edge">
<title>ooGroup_ooGroupHom&#45;&gt;ooGroup_ooGroup</title>
<path fill="none" stroke="#000000" d="M1491.7905,-211.5315C1463.5054,-182.7094 1407.1242,-125.2577 1374.9546,-92.4772"/>
<polygon fill="#000000" stroke="#000000" points="1377.2137,-89.7823 1367.7114,-85.0965 1372.2176,-94.6853 1377.2137,-89.7823"/>
</g>
<!-- ooGroup_loops_group&#45;&gt;ooGroup_group_loops -->
<g id="edge54" class="edge">
<title>ooGroup_loops_group&#45;&gt;ooGroup_group_loops</title>
<path fill="none" stroke="#000000" d="M1113.2175,-389.0963C1160.8366,-357.0485 1263.9938,-287.6233 1317.4171,-251.6692"/>
<polygon fill="#000000" stroke="#000000" points="1319.5168,-254.475 1325.8588,-245.9879 1315.6084,-248.6676 1319.5168,-254.475"/>
</g>
<!-- ooGroup_loops_group&#45;&gt;ooGroup_group_type -->
<g id="edge55" class="edge">
<title>ooGroup_loops_group&#45;&gt;ooGroup_group_type</title>
<path fill="none" stroke="#000000" d="M1099.5583,-388.122C1119.7533,-356.7667 1161.5439,-291.8813 1185.0286,-255.4181"/>
<polygon fill="#000000" stroke="#000000" points="1188.1083,-257.1003 1190.5806,-246.7979 1182.2233,-253.3099 1188.1083,-257.1003"/>
</g>
<!-- ooGroup_group_loops&#45;&gt;ooGroup_Build_ooGroup -->
<g id="edge56" class="edge">
<title>ooGroup_group_loops&#45;&gt;ooGroup_Build_ooGroup</title>
<path fill="none" stroke="#000000" d="M1310.5964,-214.4691C1299.1575,-210.5481 1286.6487,-206.459 1275,-203.0678 1099.9525,-152.1071 890.2023,-105.1577 784.3256,-82.4269"/>
<polygon fill="#000000" stroke="#000000" points="784.9196,-78.9748 774.4084,-80.3035 783.4539,-85.8197 784.9196,-78.9748"/>
</g>
<!-- ooGroup_group_loops&#45;&gt;ooGroup_ooGroup -->
<g id="edge57" class="edge">
<title>ooGroup_group_loops&#45;&gt;ooGroup_ooGroup</title>
<path fill="none" stroke="#000000" d="M1351,-210.912C1351,-183.1312 1351,-129.826 1351,-96.7716"/>
<polygon fill="#000000" stroke="#000000" points="1354.5001,-96.4042 1351,-86.4043 1347.5001,-96.4043 1354.5001,-96.4042"/>
</g>
<!-- ooGroup_group_type&#45;&gt;ooGroup_ooGroup -->
<g id="edge58" class="edge">
<title>ooGroup_group_type&#45;&gt;ooGroup_ooGroup</title>
<path fill="none" stroke="#000000" d="M1218.2293,-211.5315C1244.7635,-182.8603 1297.5167,-125.8585 1327.9315,-92.9941"/>
<polygon fill="#000000" stroke="#000000" points="1330.5672,-95.2991 1334.7908,-85.5825 1325.4297,-90.5445 1330.5672,-95.2991"/>
</g>
<!-- ooGroup_isconn_classifying_space -->
<g id="node32" class="node">
<title>ooGroup_isconn_classifying_space</title>
<g id="a_node32"><a xlink:href="ooGroup.html#isconn_classifying_space" xlink:title="isconn_classifying_space">
<ellipse fill="#f070d1" stroke="#000000" cx="1943" cy="-229.0678" rx="127.2841" ry="18"/>
<ellipse fill="none" stroke="#000000" cx="1943" cy="-229.0678" rx="131.2808" ry="22"/>
<ellipse fill="none" stroke="#000000" cx="1943" cy="-229.0678" rx="135.2775" ry="26"/>
<text text-anchor="middle" x="1943" y="-225.3678" font-family="Times,serif" font-size="14.00" fill="#000000">isconn_classifying_space</text>
</a>
</g>
</g>
<!-- ooGroup_isconn_classifying_space&#45;&gt;ooGroup_ooGroup -->
<g id="edge59" class="edge">
<title>ooGroup_isconn_classifying_space&#45;&gt;ooGroup_ooGroup</title>
<path fill="none" stroke="#000000" d="M1864.6925,-207.7713C1741.0674,-174.1503 1504.1476,-109.7177 1401.0204,-81.6713"/>
<polygon fill="#000000" stroke="#000000" points="1401.7404,-78.2401 1391.1723,-78.993 1399.9033,-84.9947 1401.7404,-78.2401"/>
</g>
<!-- ooGroup_classifying_space&#45;&gt;ooGroup_ooGroup -->
<g id="edge60" class="edge">
<title>ooGroup_classifying_space&#45;&gt;ooGroup_ooGroup</title>
<path fill="none" stroke="#000000" d="M2038.5795,-388.1851C2069.9383,-349.9739 2133.838,-259.2784 2087,-203.0678 2000.7425,-99.5496 1570.9926,-75.1535 1411.0771,-69.6231"/>
<polygon fill="#000000" stroke="#000000" points="1411.0514,-66.1204 1400.9404,-69.2855 1410.8184,-73.1165 1411.0514,-66.1204"/>
</g>
<!-- ooGroup_ooGroup_sind -->
<g id="node34" class="node">
<title>ooGroup_ooGroup_sind</title>
<g id="a_node34"><a xlink:href="ooGroup.html#ooGroup_sind" xlink:title="ooGroup_sind">
<ellipse fill="#f070d1" stroke="#000000" cx="1038" cy="-229.0678" rx="74.9639" ry="18"/>
<ellipse fill="none" stroke="#000000" cx="1038" cy="-229.0678" rx="78.9757" ry="22"/>
<ellipse fill="none" stroke="#000000" cx="1038" cy="-229.0678" rx="82.9875" ry="26"/>
<text text-anchor="middle" x="1038" y="-225.3678" font-family="Times,serif" font-size="14.00" fill="#000000">ooGroup_sind</text>
</a>
</g>
</g>
<!-- ooGroup_ooGroup_sind&#45;&gt;ooGroup_Build_ooGroup -->
<g id="edge61" class="edge">
<title>ooGroup_ooGroup_sind&#45;&gt;ooGroup_Build_ooGroup</title>
<path fill="none" stroke="#000000" d="M993.9024,-207.019C931.6465,-175.8911 818.7933,-119.4645 757.807,-88.9713"/>
<polygon fill="#000000" stroke="#000000" points="759.3483,-85.8288 748.8387,-84.4872 756.2177,-92.0898 759.3483,-85.8288"/>
</g>
<!-- ooGroup_ooGroup_sind&#45;&gt;ooGroup_ooGroup -->
<g id="edge62" class="edge">
<title>ooGroup_ooGroup_sind&#45;&gt;ooGroup_ooGroup</title>
<path fill="none" stroke="#000000" d="M1081.1927,-206.8505C1142.7981,-175.1621 1254.8919,-117.5036 1313.3129,-87.4532"/>
<polygon fill="#000000" stroke="#000000" points="1314.9208,-90.5621 1322.2124,-82.8755 1311.7188,-84.3373 1314.9208,-90.5621"/>
</g>
<!-- ooGroup_ooGroup_rec -->
<g id="node35" class="node">
<title>ooGroup_ooGroup_rec</title>
<g id="a_node35"><a xlink:href="ooGroup.html#ooGroup_rec" xlink:title="ooGroup_rec">
<ellipse fill="#f070d1" stroke="#000000" cx="700" cy="-406.0678" rx="70.3682" ry="18"/>
<ellipse fill="none" stroke="#000000" cx="700" cy="-406.0678" rx="74.3781" ry="22"/>
<ellipse fill="none" stroke="#000000" cx="700" cy="-406.0678" rx="78.388" ry="26"/>
<text text-anchor="middle" x="700" y="-402.3678" font-family="Times,serif" font-size="14.00" fill="#000000">ooGroup_rec</text>
</a>
</g>
</g>
<!-- ooGroup_ooGroup_rect -->
<g id="node37" class="node">
<title>ooGroup_ooGroup_rect</title>
<g id="a_node37"><a xlink:href="ooGroup.html#ooGroup_rect" xlink:title="ooGroup_rect">
<ellipse fill="#f070d1" stroke="#000000" cx="670" cy="-229.0678" rx="74.187" ry="18"/>
<text text-anchor="middle" x="670" y="-225.3678" font-family="Times,serif" font-size="14.00" fill="#000000">ooGroup_rect</text>
</a>
</g>
</g>
<!-- ooGroup_ooGroup_rec&#45;&gt;ooGroup_ooGroup_rect -->
<g id="edge63" class="edge">
<title>ooGroup_ooGroup_rec&#45;&gt;ooGroup_ooGroup_rect</title>
<path fill="none" stroke="#000000" d="M695.5734,-379.9508C690.0141,-347.1509 680.5123,-291.0906 674.7881,-257.3178"/>
<polygon fill="#000000" stroke="#000000" points="678.1941,-256.468 673.0722,-247.1936 671.2925,-257.6378 678.1941,-256.468"/>
</g>
<!-- ooGroup_ooGroup_ind -->
<g id="node36" class="node">
<title>ooGroup_ooGroup_ind</title>
<g id="a_node36"><a xlink:href="ooGroup.html#ooGroup_ind" xlink:title="ooGroup_ind">
<ellipse fill="#7fffd4" stroke="#000000" cx="860" cy="-229.0678" rx="69.5832" ry="18"/>
<ellipse fill="none" stroke="#000000" cx="860" cy="-229.0678" rx="73.5854" ry="22"/>
<ellipse fill="none" stroke="#000000" cx="860" cy="-229.0678" rx="77.5877" ry="26"/>
<text text-anchor="middle" x="860" y="-225.3678" font-family="Times,serif" font-size="14.00" fill="#000000">ooGroup_ind</text>
</a>
</g>
</g>
<!-- ooGroup_ooGroup_ind&#45;&gt;ooGroup_Build_ooGroup -->
<g id="edge64" class="edge">
<title>ooGroup_ooGroup_ind&#45;&gt;ooGroup_Build_ooGroup</title>
<path fill="none" stroke="#000000" d="M837.5,-203.9115C810.6333,-173.8731 765.9438,-123.9078 738.9011,-93.6725"/>
<polygon fill="#000000" stroke="#000000" points="741.3749,-91.1882 732.0995,-86.0679 736.1573,-95.8549 741.3749,-91.1882"/>
</g>
<!-- ooGroup_ooGroup_ind&#45;&gt;ooGroup_ooGroup -->
<g id="edge65" class="edge">
<title>ooGroup_ooGroup_ind&#45;&gt;ooGroup_ooGroup</title>
<path fill="none" stroke="#000000" d="M915.8459,-210.7558C1013.4795,-178.7415 1213.4353,-113.1756 1304.2602,-83.3939"/>
<polygon fill="#000000" stroke="#000000" points="1305.5916,-86.6407 1314.0033,-80.1991 1303.4105,-79.9892 1305.5916,-86.6407"/>
</g>
<!-- ooGroup_ooGroup_rect&#45;&gt;ooGroup_Build_ooGroup -->
<g id="edge66" class="edge">
<title>ooGroup_ooGroup_rect&#45;&gt;ooGroup_Build_ooGroup</title>
<path fill="none" stroke="#000000" d="M675.1874,-210.912C683.1593,-183.0104 698.4874,-129.362 707.9218,-96.3416"/>
<polygon fill="#000000" stroke="#000000" points="711.3791,-96.981 710.761,-86.4043 704.6484,-95.0579 711.3791,-96.981"/>
</g>
<!-- ooGroup_ooGroup_rect&#45;&gt;ooGroup_ooGroup -->
<g id="edge67" class="edge">
<title>ooGroup_ooGroup_rect&#45;&gt;ooGroup_ooGroup</title>
<path fill="none" stroke="#000000" d="M721.0357,-215.9939C737.5966,-211.8026 756.0642,-207.1828 773,-203.0678 966.3775,-156.0819 1196.9215,-103.1609 1298.5127,-79.9975"/>
<polygon fill="#000000" stroke="#000000" points="1299.5444,-83.3522 1308.5167,-77.7177 1297.989,-76.5272 1299.5444,-83.3522"/>
</g>
</g>
</svg>
