<?xml version="1.0" encoding="UTF-8" standalone="no"?>
<!DOCTYPE svg PUBLIC "-//W3C//DTD SVG 1.1//EN"
 "http://www.w3.org/Graphics/SVG/1.1/DTD/svg11.dtd">
<!-- Generated by graphviz version 2.40.1 (20161225.0304)
 -->
<!-- Title: HoTT_Sets_GCHtoAC Pages: 1 -->
<svg width="1895pt" height="952pt"
 viewBox="0.00 0.00 1895.00 951.50" xmlns="http://www.w3.org/2000/svg" xmlns:xlink="http://www.w3.org/1999/xlink">
<g id="graph0" class="graph" transform="scale(1 1) rotate(0) translate(4 947.5)">
<title>HoTT_Sets_GCHtoAC</title>
<polygon fill="#ffffff" stroke="transparent" points="-4,4 -4,-947.5 1891,-947.5 1891,4 -4,4"/>
<g id="clust1" class="cluster">
<title>cluster_GCHtoAC</title>
<polygon fill="#ffffc3" stroke="#000000" points="8,-13.6 8,-929.9 1879,-929.9 1879,-13.6 8,-13.6"/>
<text text-anchor="middle" x="52" y="-914.7" font-family="Times,serif" font-size="14.00" fill="#000000">GCHtoAC</text>
</g>
<!-- GCHtoAC_GCH_AC -->
<g id="node1" class="node">
<title>GCHtoAC_GCH_AC</title>
<g id="a_node1"><a xlink:href="GCHtoAC.html#GCH_AC" xlink:title="GCH_AC">
<ellipse fill="#f070d1" stroke="#000000" cx="1001" cy="-832.6" rx="52.7718" ry="18"/>
<ellipse fill="none" stroke="#000000" cx="1001" cy="-832.6" rx="56.7814" ry="22"/>
<ellipse fill="none" stroke="#000000" cx="1001" cy="-832.6" rx="60.791" ry="26"/>
<text text-anchor="middle" x="1001" y="-828.9" font-family="Times,serif" font-size="14.00" fill="#000000">GCH_AC</text>
</a>
</g>
</g>
<!-- GCHtoAC_GCH_injects -->
<g id="node2" class="node">
<title>GCHtoAC_GCH_injects</title>
<g id="a_node2"><a xlink:href="GCHtoAC.html#GCH_injects" xlink:title="GCH_injects">
<ellipse fill="#f070d1" stroke="#000000" cx="1001" cy="-696.6" rx="69.5877" ry="18"/>
<text text-anchor="middle" x="1001" y="-692.9" font-family="Times,serif" font-size="14.00" fill="#000000">GCH_injects</text>
</a>
</g>
</g>
<!-- GCHtoAC_GCH_AC&#45;&gt;GCHtoAC_GCH_injects -->
<g id="edge1" class="edge">
<title>GCHtoAC_GCH_AC&#45;&gt;GCHtoAC_GCH_injects</title>
<path fill="none" stroke="#000000" d="M1001,-806.3778C1001,-783.0841 1001,-749.1117 1001,-725.1415"/>
<polygon fill="#000000" stroke="#000000" points="1004.5001,-724.9062 1001,-714.9062 997.5001,-724.9063 1004.5001,-724.9062"/>
</g>
<!-- GCHtoAC_GCH_injects_ -->
<g id="node3" class="node">
<title>GCHtoAC_GCH_injects_</title>
<g id="a_node3"><a xlink:href="GCHtoAC.html#GCH_injects'" xlink:title="GCH_injects&#39;">
<ellipse fill="#f070d1" stroke="#000000" cx="1001" cy="-574.6" rx="72.2875" ry="18"/>
<text text-anchor="middle" x="1001" y="-570.9" font-family="Times,serif" font-size="14.00" fill="#000000">GCH_injects&#39;</text>
</a>
</g>
</g>
<!-- GCHtoAC_GCH_injects&#45;&gt;GCHtoAC_GCH_injects_ -->
<g id="edge2" class="edge">
<title>GCHtoAC_GCH_injects&#45;&gt;GCHtoAC_GCH_injects_</title>
<path fill="none" stroke="#000000" d="M1001,-678.5985C1001,-658.5958 1001,-626.0427 1001,-602.6831"/>
<polygon fill="#000000" stroke="#000000" points="1004.5001,-602.6753 1001,-592.6754 997.5001,-602.6754 1004.5001,-602.6753"/>
</g>
<!-- GCHtoAC_Sierpinski_step -->
<g id="node4" class="node">
<title>GCHtoAC_Sierpinski_step</title>
<g id="a_node4"><a xlink:href="GCHtoAC.html#Sierpinski_step" xlink:title="Sierpinski_step">
<ellipse fill="#f070d1" stroke="#000000" cx="856" cy="-452.6" rx="83.3857" ry="18"/>
<text text-anchor="middle" x="856" y="-448.9" font-family="Times,serif" font-size="14.00" fill="#000000">Sierpinski_step</text>
</a>
</g>
</g>
<!-- GCHtoAC_GCH_injects_&#45;&gt;GCHtoAC_Sierpinski_step -->
<g id="edge3" class="edge">
<title>GCHtoAC_GCH_injects_&#45;&gt;GCHtoAC_Sierpinski_step</title>
<path fill="none" stroke="#000000" d="M980.225,-557.1204C955.137,-536.0119 912.8066,-500.3959 884.635,-476.6929"/>
<polygon fill="#000000" stroke="#000000" points="886.6416,-473.8072 876.7364,-470.0472 882.1349,-479.1635 886.6416,-473.8072"/>
</g>
<!-- GCHtoAC_path_infinite_power -->
<g id="node14" class="node">
<title>GCHtoAC_path_infinite_power</title>
<g id="a_node14"><a xlink:href="GCHtoAC.html#path_infinite_power" xlink:title="path_infinite_power">
<ellipse fill="#f070d1" stroke="#000000" cx="1146" cy="-452.6" rx="103.1819" ry="18"/>
<text text-anchor="middle" x="1146" y="-448.9" font-family="Times,serif" font-size="14.00" fill="#000000">path_infinite_power</text>
</a>
</g>
</g>
<!-- GCHtoAC_GCH_injects_&#45;&gt;GCHtoAC_path_infinite_power -->
<g id="edge4" class="edge">
<title>GCHtoAC_GCH_injects_&#45;&gt;GCHtoAC_path_infinite_power</title>
<path fill="none" stroke="#000000" d="M1021.775,-557.1204C1046.7204,-536.1318 1088.7129,-500.8002 1116.8834,-477.0981"/>
<polygon fill="#000000" stroke="#000000" points="1119.3935,-479.5602 1124.792,-470.4439 1114.8868,-474.2039 1119.3935,-479.5602"/>
</g>
<!-- GCHtoAC_InjectsInto_sum -->
<g id="node5" class="node">
<title>GCHtoAC_InjectsInto_sum</title>
<g id="a_node5"><a xlink:href="GCHtoAC.html#InjectsInto_sum" xlink:title="InjectsInto_sum">
<ellipse fill="#f070d1" stroke="#000000" cx="929" cy="-316.6" rx="86.3847" ry="18"/>
<text text-anchor="middle" x="929" y="-312.9" font-family="Times,serif" font-size="14.00" fill="#000000">InjectsInto_sum</text>
</a>
</g>
</g>
<!-- GCHtoAC_Sierpinski_step&#45;&gt;GCHtoAC_InjectsInto_sum -->
<g id="edge5" class="edge">
<title>GCHtoAC_Sierpinski_step&#45;&gt;GCHtoAC_InjectsInto_sum</title>
<path fill="none" stroke="#000000" d="M865.6938,-434.5403C878.1835,-411.2718 900.0059,-370.6164 914.4801,-343.6507"/>
<polygon fill="#000000" stroke="#000000" points="917.6204,-345.2007 919.2661,-334.7344 911.4528,-341.8901 917.6204,-345.2007"/>
</g>
<!-- GCHtoAC_powfix -->
<g id="node6" class="node">
<title>GCHtoAC_powfix</title>
<g id="a_node6"><a xlink:href="GCHtoAC.html#powfix" xlink:title="powfix">
<ellipse fill="#f070d1" stroke="#000000" cx="783" cy="-316.6" rx="41.6928" ry="18"/>
<text text-anchor="middle" x="783" y="-312.9" font-family="Times,serif" font-size="14.00" fill="#000000">powfix</text>
</a>
</g>
</g>
<!-- GCHtoAC_Sierpinski_step&#45;&gt;GCHtoAC_powfix -->
<g id="edge6" class="edge">
<title>GCHtoAC_Sierpinski_step&#45;&gt;GCHtoAC_powfix</title>
<path fill="none" stroke="#000000" d="M846.3062,-434.5403C833.7471,-411.1425 811.7513,-370.1641 797.2793,-343.2025"/>
<polygon fill="#000000" stroke="#000000" points="800.3152,-341.4579 792.5019,-334.3022 794.1476,-344.7685 800.3152,-341.4579"/>
</g>
<!-- GCHtoAC_Cantor_injects_injects -->
<g id="node7" class="node">
<title>GCHtoAC_Cantor_injects_injects</title>
<g id="a_node7"><a xlink:href="GCHtoAC.html#Cantor_injects_injects" xlink:title="Cantor_injects_injects">
<ellipse fill="#f070d1" stroke="#000000" cx="608" cy="-316.6" rx="115.0796" ry="18"/>
<text text-anchor="middle" x="608" y="-312.9" font-family="Times,serif" font-size="14.00" fill="#000000">Cantor_injects_injects</text>
</a>
</g>
</g>
<!-- GCHtoAC_Sierpinski_step&#45;&gt;GCHtoAC_Cantor_injects_injects -->
<g id="edge7" class="edge">
<title>GCHtoAC_Sierpinski_step&#45;&gt;GCHtoAC_Cantor_injects_injects</title>
<path fill="none" stroke="#000000" d="M825.3416,-435.7873C780.8111,-411.3674 698.1602,-366.0427 648.6122,-338.8712"/>
<polygon fill="#000000" stroke="#000000" points="650.2134,-335.7576 639.7624,-334.0181 646.8476,-341.8953 650.2134,-335.7576"/>
</g>
<!-- GCHtoAC_InjectsInto_power_morph -->
<g id="node8" class="node">
<title>GCHtoAC_InjectsInto_power_morph</title>
<g id="a_node8"><a xlink:href="GCHtoAC.html#InjectsInto_power_morph" xlink:title="InjectsInto_power_morph">
<ellipse fill="#f070d1" stroke="#000000" cx="400" cy="-180.6" rx="130.777" ry="18"/>
<text text-anchor="middle" x="400" y="-176.9" font-family="Times,serif" font-size="14.00" fill="#000000">InjectsInto_power_morph</text>
</a>
</g>
</g>
<!-- GCHtoAC_Cantor_injects_injects&#45;&gt;GCHtoAC_InjectsInto_power_morph -->
<g id="edge8" class="edge">
<title>GCHtoAC_Cantor_injects_injects&#45;&gt;GCHtoAC_InjectsInto_power_morph</title>
<path fill="none" stroke="#000000" d="M580.8076,-298.8204C543.5917,-274.4869 476.7279,-230.7682 435.5713,-203.8582"/>
<polygon fill="#000000" stroke="#000000" points="437.4841,-200.9271 427.199,-198.384 433.6534,-206.7859 437.4841,-200.9271"/>
</g>
<!-- GCHtoAC_Cantor_rel -->
<g id="node9" class="node">
<title>GCHtoAC_Cantor_rel</title>
<g id="a_node9"><a xlink:href="GCHtoAC.html#Cantor_rel" xlink:title="Cantor_rel">
<ellipse fill="#f070d1" stroke="#000000" cx="609" cy="-180.6" rx="60.3893" ry="18"/>
<text text-anchor="middle" x="609" y="-176.9" font-family="Times,serif" font-size="14.00" fill="#000000">Cantor_rel</text>
</a>
</g>
</g>
<!-- GCHtoAC_Cantor_injects_injects&#45;&gt;GCHtoAC_Cantor_rel -->
<g id="edge9" class="edge">
<title>GCHtoAC_Cantor_injects_injects&#45;&gt;GCHtoAC_Cantor_rel</title>
<path fill="none" stroke="#000000" d="M608.1328,-298.5403C608.3009,-275.6783 608.5924,-236.0314 608.7906,-209.0761"/>
<polygon fill="#000000" stroke="#000000" points="612.2929,-208.7599 608.8667,-198.7344 605.2931,-208.7084 612.2929,-208.7599"/>
</g>
<!-- GCHtoAC_clean_sum -->
<g id="node11" class="node">
<title>GCHtoAC_clean_sum</title>
<g id="a_node11"><a xlink:href="GCHtoAC.html#clean_sum" xlink:title="clean_sum">
<ellipse fill="#f070d1" stroke="#000000" cx="192" cy="-180.6" rx="59.5901" ry="18"/>
<text text-anchor="middle" x="192" y="-176.9" font-family="Times,serif" font-size="14.00" fill="#000000">clean_sum</text>
</a>
</g>
</g>
<!-- GCHtoAC_Cantor_injects_injects&#45;&gt;GCHtoAC_clean_sum -->
<g id="edge10" class="edge">
<title>GCHtoAC_Cantor_injects_injects&#45;&gt;GCHtoAC_clean_sum</title>
<path fill="none" stroke="#000000" d="M558.2339,-300.3303C478.5055,-274.2653 322.9754,-223.4189 242.6751,-197.1669"/>
<polygon fill="#000000" stroke="#000000" points="243.3891,-193.718 232.7965,-193.9373 241.2138,-200.3715 243.3891,-193.718"/>
</g>
<!-- GCHtoAC_path_sum_prod -->
<g id="node26" class="node">
<title>GCHtoAC_path_sum_prod</title>
<g id="a_node26"><a xlink:href="GCHtoAC.html#path_sum_prod" xlink:title="path_sum_prod">
<ellipse fill="#f070d1" stroke="#000000" cx="770" cy="-180.6" rx="82.5854" ry="18"/>
<text text-anchor="middle" x="770" y="-176.9" font-family="Times,serif" font-size="14.00" fill="#000000">path_sum_prod</text>
</a>
</g>
</g>
<!-- GCHtoAC_Cantor_injects_injects&#45;&gt;GCHtoAC_path_sum_prod -->
<g id="edge11" class="edge">
<title>GCHtoAC_Cantor_injects_injects&#45;&gt;GCHtoAC_path_sum_prod</title>
<path fill="none" stroke="#000000" d="M629.1787,-298.8204C657.8794,-274.726 709.2197,-231.6254 741.3449,-204.6561"/>
<polygon fill="#000000" stroke="#000000" points="743.6643,-207.2788 749.0728,-198.1685 739.1635,-201.9176 743.6643,-207.2788"/>
</g>
<!-- GCHtoAC_PE -->
<g id="node21" class="node">
<title>GCHtoAC_PE</title>
<g id="a_node21"><a xlink:href="GCHtoAC.html#PE" xlink:title="PE">
<ellipse fill="#f070d1" stroke="#000000" cx="813" cy="-57.6" rx="27" ry="18"/>
<text text-anchor="middle" x="813" y="-53.9" font-family="Times,serif" font-size="14.00" fill="#000000">PE</text>
</a>
</g>
</g>
<!-- GCHtoAC_InjectsInto_power_morph&#45;&gt;GCHtoAC_PE -->
<g id="edge12" class="edge">
<title>GCHtoAC_InjectsInto_power_morph&#45;&gt;GCHtoAC_PE</title>
<path fill="none" stroke="#000000" d="M455.2705,-164.1393C541.7936,-138.3709 706.7271,-89.2503 778.3589,-67.9168"/>
<polygon fill="#000000" stroke="#000000" points="779.6451,-71.1858 788.2301,-64.977 777.647,-64.477 779.6451,-71.1858"/>
</g>
<!-- GCHtoAC_Cantor_path_injection -->
<g id="node10" class="node">
<title>GCHtoAC_Cantor_path_injection</title>
<g id="a_node10"><a xlink:href="GCHtoAC.html#Cantor_path_injection" xlink:title="Cantor_path_injection">
<ellipse fill="#f070d1" stroke="#000000" cx="192" cy="-316.6" rx="114.287" ry="18"/>
<ellipse fill="none" stroke="#000000" cx="192" cy="-316.6" rx="118.2834" ry="22"/>
<ellipse fill="none" stroke="#000000" cx="192" cy="-316.6" rx="122.2798" ry="26"/>
<text text-anchor="middle" x="192" y="-312.9" font-family="Times,serif" font-size="14.00" fill="#000000">Cantor_path_injection</text>
</a>
</g>
</g>
<!-- GCHtoAC_Cantor_path_injection&#45;&gt;GCHtoAC_clean_sum -->
<g id="edge13" class="edge">
<title>GCHtoAC_Cantor_path_injection&#45;&gt;GCHtoAC_clean_sum</title>
<path fill="none" stroke="#000000" d="M192,-290.3778C192,-267.0841 192,-233.1117 192,-209.1415"/>
<polygon fill="#000000" stroke="#000000" points="195.5001,-208.9062 192,-198.9062 188.5001,-208.9063 195.5001,-208.9062"/>
</g>
<!-- GCHtoAC_hCantor -->
<g id="node12" class="node">
<title>GCHtoAC_hCantor</title>
<g id="a_node12"><a xlink:href="GCHtoAC.html#hCantor" xlink:title="hCantor">
<ellipse fill="#f070d1" stroke="#000000" cx="65" cy="-180.6" rx="48.9926" ry="18"/>
<text text-anchor="middle" x="65" y="-176.9" font-family="Times,serif" font-size="14.00" fill="#000000">hCantor</text>
</a>
</g>
</g>
<!-- GCHtoAC_Cantor_path_injection&#45;&gt;GCHtoAC_hCantor -->
<g id="edge14" class="edge">
<title>GCHtoAC_Cantor_path_injection&#45;&gt;GCHtoAC_hCantor</title>
<path fill="none" stroke="#000000" d="M168.1123,-291.0194C145.1602,-266.4409 110.7123,-229.5518 88.0465,-205.2797"/>
<polygon fill="#000000" stroke="#000000" points="90.5142,-202.7941 81.1309,-197.8741 85.398,-207.5717 90.5142,-202.7941"/>
</g>
<!-- GCHtoAC_Cantor_path_injection&#45;&gt;GCHtoAC_path_sum_prod -->
<g id="edge15" class="edge">
<title>GCHtoAC_Cantor_path_injection&#45;&gt;GCHtoAC_path_sum_prod</title>
<path fill="none" stroke="#000000" d="M274.1995,-297.2589C389.6882,-270.0851 597.7018,-221.1408 703.8249,-196.1706"/>
<polygon fill="#000000" stroke="#000000" points="704.8378,-199.5279 713.7703,-193.8305 703.2345,-192.714 704.8378,-199.5279"/>
</g>
<!-- GCHtoAC_Cantor -->
<g id="node13" class="node">
<title>GCHtoAC_Cantor</title>
<g id="a_node13"><a xlink:href="GCHtoAC.html#Cantor" xlink:title="Cantor">
<ellipse fill="#f070d1" stroke="#000000" cx="578" cy="-832.6" rx="42.8089" ry="18"/>
<ellipse fill="none" stroke="#000000" cx="578" cy="-832.6" rx="46.8007" ry="22"/>
<ellipse fill="none" stroke="#000000" cx="578" cy="-832.6" rx="50.7926" ry="26"/>
<text text-anchor="middle" x="578" y="-828.9" font-family="Times,serif" font-size="14.00" fill="#000000">Cantor</text>
</a>
</g>
</g>
<!-- GCHtoAC_path_infinite_unit -->
<g id="node15" class="node">
<title>GCHtoAC_path_infinite_unit</title>
<g id="a_node15"><a xlink:href="GCHtoAC.html#path_infinite_unit" xlink:title="path_infinite_unit">
<ellipse fill="#f070d1" stroke="#000000" cx="1146" cy="-316.6" rx="92.8835" ry="18"/>
<text text-anchor="middle" x="1146" y="-312.9" font-family="Times,serif" font-size="14.00" fill="#000000">path_infinite_unit</text>
</a>
</g>
</g>
<!-- GCHtoAC_path_infinite_power&#45;&gt;GCHtoAC_path_infinite_unit -->
<g id="edge16" class="edge">
<title>GCHtoAC_path_infinite_power&#45;&gt;GCHtoAC_path_infinite_unit</title>
<path fill="none" stroke="#000000" d="M1146,-434.5403C1146,-411.6783 1146,-372.0314 1146,-345.0761"/>
<polygon fill="#000000" stroke="#000000" points="1149.5001,-344.7344 1146,-334.7344 1142.5001,-344.7345 1149.5001,-344.7344"/>
</g>
<!-- GCHtoAC_path_bool_subsingleton -->
<g id="node19" class="node">
<title>GCHtoAC_path_bool_subsingleton</title>
<g id="a_node19"><a xlink:href="GCHtoAC.html#path_bool_subsingleton" xlink:title="path_bool_subsingleton">
<ellipse fill="#f070d1" stroke="#000000" cx="1620" cy="-316.6" rx="120.4791" ry="18"/>
<text text-anchor="middle" x="1620" y="-312.9" font-family="Times,serif" font-size="14.00" fill="#000000">path_bool_subsingleton</text>
</a>
</g>
</g>
<!-- GCHtoAC_path_infinite_power&#45;&gt;GCHtoAC_path_bool_subsingleton -->
<g id="edge17" class="edge">
<title>GCHtoAC_path_infinite_power&#45;&gt;GCHtoAC_path_bool_subsingleton</title>
<path fill="none" stroke="#000000" d="M1199.9123,-437.1315C1287.4432,-412.0172 1460.1654,-362.4597 1554.5839,-335.3692"/>
<polygon fill="#000000" stroke="#000000" points="1555.6598,-338.7018 1564.3066,-332.5795 1553.7292,-331.9733 1555.6598,-338.7018"/>
</g>
<!-- GCHtoAC_path_sum_bool -->
<g id="node24" class="node">
<title>GCHtoAC_path_sum_bool</title>
<g id="a_node24"><a xlink:href="GCHtoAC.html#path_sum_bool" xlink:title="path_sum_bool">
<ellipse fill="#f070d1" stroke="#000000" cx="1338" cy="-316.6" rx="80.6858" ry="18"/>
<text text-anchor="middle" x="1338" y="-312.9" font-family="Times,serif" font-size="14.00" fill="#000000">path_sum_bool</text>
</a>
</g>
</g>
<!-- GCHtoAC_path_infinite_power&#45;&gt;GCHtoAC_path_sum_bool -->
<g id="edge18" class="edge">
<title>GCHtoAC_path_infinite_power&#45;&gt;GCHtoAC_path_sum_bool</title>
<path fill="none" stroke="#000000" d="M1170.7076,-435.0988C1205.076,-410.7545 1267.3726,-366.6277 1305.4811,-339.6342"/>
<polygon fill="#000000" stroke="#000000" points="1307.5527,-342.456 1313.6899,-333.8196 1303.5066,-336.7438 1307.5527,-342.456"/>
</g>
<!-- GCHtoAC_path_infinite_power&#45;&gt;GCHtoAC_path_sum_prod -->
<g id="edge19" class="edge">
<title>GCHtoAC_path_infinite_power&#45;&gt;GCHtoAC_path_sum_prod</title>
<path fill="none" stroke="#000000" d="M1125.1147,-434.6073C1102.5344,-414.2223 1066.7327,-379.0673 1044,-342.6 1030.901,-321.5869 1041.1419,-308.4687 1024,-290.6 974.7286,-239.2395 897.4513,-210.4892 841.0652,-195.3781"/>
<polygon fill="#000000" stroke="#000000" points="841.704,-191.9279 831.1452,-192.8018 839.9443,-198.7032 841.704,-191.9279"/>
</g>
<!-- GCHtoAC_path_ran -->
<g id="node16" class="node">
<title>GCHtoAC_path_ran</title>
<g id="a_node16"><a xlink:href="GCHtoAC.html#path_ran" xlink:title="path_ran">
<ellipse fill="#f070d1" stroke="#000000" cx="1299" cy="-180.6" rx="51.9908" ry="18"/>
<text text-anchor="middle" x="1299" y="-176.9" font-family="Times,serif" font-size="14.00" fill="#000000">path_ran</text>
</a>
</g>
</g>
<!-- GCHtoAC_path_infinite_unit&#45;&gt;GCHtoAC_path_ran -->
<g id="edge20" class="edge">
<title>GCHtoAC_path_infinite_unit&#45;&gt;GCHtoAC_path_ran</title>
<path fill="none" stroke="#000000" d="M1166.0021,-298.8204C1193.2165,-274.6298 1241.9839,-231.281 1272.2994,-204.3339"/>
<polygon fill="#000000" stroke="#000000" points="1274.8071,-206.7877 1279.9559,-197.5281 1270.1565,-201.5558 1274.8071,-206.7877"/>
</g>
<!-- GCHtoAC_path_pred_sum -->
<g id="node18" class="node">
<title>GCHtoAC_path_pred_sum</title>
<g id="a_node18"><a xlink:href="GCHtoAC.html#path_pred_sum" xlink:title="path_pred_sum">
<ellipse fill="#f070d1" stroke="#000000" cx="1146" cy="-180.6" rx="82.5854" ry="18"/>
<text text-anchor="middle" x="1146" y="-176.9" font-family="Times,serif" font-size="14.00" fill="#000000">path_pred_sum</text>
</a>
</g>
</g>
<!-- GCHtoAC_path_infinite_unit&#45;&gt;GCHtoAC_path_pred_sum -->
<g id="edge21" class="edge">
<title>GCHtoAC_path_infinite_unit&#45;&gt;GCHtoAC_path_pred_sum</title>
<path fill="none" stroke="#000000" d="M1146,-298.5403C1146,-275.6783 1146,-236.0314 1146,-209.0761"/>
<polygon fill="#000000" stroke="#000000" points="1149.5001,-208.7344 1146,-198.7344 1142.5001,-208.7345 1149.5001,-208.7344"/>
</g>
<!-- GCHtoAC_path_unit_nat -->
<g id="node23" class="node">
<title>GCHtoAC_path_unit_nat</title>
<g id="a_node23"><a xlink:href="GCHtoAC.html#path_unit_nat" xlink:title="path_unit_nat">
<ellipse fill="#f070d1" stroke="#000000" cx="1444" cy="-180.6" rx="75.2868" ry="18"/>
<text text-anchor="middle" x="1444" y="-176.9" font-family="Times,serif" font-size="14.00" fill="#000000">path_unit_nat</text>
</a>
</g>
</g>
<!-- GCHtoAC_path_infinite_unit&#45;&gt;GCHtoAC_path_unit_nat -->
<g id="edge22" class="edge">
<title>GCHtoAC_path_infinite_unit&#45;&gt;GCHtoAC_path_unit_nat</title>
<path fill="none" stroke="#000000" d="M1182.5406,-299.9237C1237.3077,-274.9294 1340.5375,-227.8178 1399.579,-200.8727"/>
<polygon fill="#000000" stroke="#000000" points="1401.3684,-203.9033 1409.0127,-196.5674 1398.4621,-197.5352 1401.3684,-203.9033"/>
</g>
<!-- GCHtoAC_path_sum_assoc -->
<g id="node25" class="node">
<title>GCHtoAC_path_sum_assoc</title>
<g id="a_node25"><a xlink:href="GCHtoAC.html#path_sum_assoc" xlink:title="path_sum_assoc">
<ellipse fill="#f070d1" stroke="#000000" cx="958" cy="-180.6" rx="87.1846" ry="18"/>
<text text-anchor="middle" x="958" y="-176.9" font-family="Times,serif" font-size="14.00" fill="#000000">path_sum_assoc</text>
</a>
</g>
</g>
<!-- GCHtoAC_path_infinite_unit&#45;&gt;GCHtoAC_path_sum_assoc -->
<g id="edge23" class="edge">
<title>GCHtoAC_path_infinite_unit&#45;&gt;GCHtoAC_path_sum_assoc</title>
<path fill="none" stroke="#000000" d="M1121.8072,-299.0988C1088.3879,-274.9232 1028.0001,-231.2384 990.6206,-204.1979"/>
<polygon fill="#000000" stroke="#000000" points="992.2537,-201.0595 982.1,-198.034 988.1508,-206.7311 992.2537,-201.0595"/>
</g>
<!-- GCHtoAC_ran -->
<g id="node17" class="node">
<title>GCHtoAC_ran</title>
<g id="a_node17"><a xlink:href="GCHtoAC.html#ran" xlink:title="ran">
<ellipse fill="#f070d1" stroke="#000000" cx="1299" cy="-57.6" rx="27" ry="18"/>
<text text-anchor="middle" x="1299" y="-53.9" font-family="Times,serif" font-size="14.00" fill="#000000">ran</text>
</a>
</g>
</g>
<!-- GCHtoAC_path_ran&#45;&gt;GCHtoAC_ran -->
<g id="edge24" class="edge">
<title>GCHtoAC_path_ran&#45;&gt;GCHtoAC_ran</title>
<path fill="none" stroke="#000000" d="M1299,-162.4509C1299,-142.2843 1299,-109.4643 1299,-85.9133"/>
<polygon fill="#000000" stroke="#000000" points="1302.5001,-85.8235 1299,-75.8235 1295.5001,-85.8236 1302.5001,-85.8235"/>
</g>
<!-- GCHtoAC_path_bool_prop -->
<g id="node20" class="node">
<title>GCHtoAC_path_bool_prop</title>
<g id="a_node20"><a xlink:href="GCHtoAC.html#path_bool_prop" xlink:title="path_bool_prop">
<ellipse fill="#f070d1" stroke="#000000" cx="1620" cy="-180.6" rx="82.5854" ry="18"/>
<text text-anchor="middle" x="1620" y="-176.9" font-family="Times,serif" font-size="14.00" fill="#000000">path_bool_prop</text>
</a>
</g>
</g>
<!-- GCHtoAC_path_bool_subsingleton&#45;&gt;GCHtoAC_path_bool_prop -->
<g id="edge25" class="edge">
<title>GCHtoAC_path_bool_subsingleton&#45;&gt;GCHtoAC_path_bool_prop</title>
<path fill="none" stroke="#000000" d="M1620,-298.5403C1620,-275.6783 1620,-236.0314 1620,-209.0761"/>
<polygon fill="#000000" stroke="#000000" points="1623.5001,-208.7344 1620,-198.7344 1616.5001,-208.7345 1623.5001,-208.7344"/>
</g>
<!-- GCHtoAC_path_unit_fun -->
<g id="node22" class="node">
<title>GCHtoAC_path_unit_fun</title>
<g id="a_node22"><a xlink:href="GCHtoAC.html#path_unit_fun" xlink:title="path_unit_fun">
<ellipse fill="#f070d1" stroke="#000000" cx="1796" cy="-180.6" rx="75.2868" ry="18"/>
<text text-anchor="middle" x="1796" y="-176.9" font-family="Times,serif" font-size="14.00" fill="#000000">path_unit_fun</text>
</a>
</g>
</g>
<!-- GCHtoAC_path_bool_subsingleton&#45;&gt;GCHtoAC_path_unit_fun -->
<g id="edge26" class="edge">
<title>GCHtoAC_path_bool_subsingleton&#45;&gt;GCHtoAC_path_unit_fun</title>
<path fill="none" stroke="#000000" d="M1643.0089,-298.8204C1674.4083,-274.5572 1730.7496,-231.0207 1765.5988,-204.0919"/>
<polygon fill="#000000" stroke="#000000" points="1767.7691,-206.838 1773.5419,-197.954 1763.4889,-201.299 1767.7691,-206.838"/>
</g>
<!-- GCHtoAC_path_bool_prop&#45;&gt;GCHtoAC_PE -->
<g id="edge27" class="edge">
<title>GCHtoAC_path_bool_prop&#45;&gt;GCHtoAC_PE</title>
<path fill="none" stroke="#000000" d="M1559.2054,-168.2832C1548.8102,-166.2982 1538.1063,-164.3297 1528,-162.6 1269.1547,-118.2977 955.6023,-76.2473 849.8424,-62.3828"/>
<polygon fill="#000000" stroke="#000000" points="850.0613,-58.8817 839.6918,-61.0551 849.1534,-65.8226 850.0613,-58.8817"/>
</g>
</g>
</svg>
