<?xml version="1.0" encoding="UTF-8" standalone="no"?>
<!DOCTYPE svg PUBLIC "-//W3C//DTD SVG 1.1//EN"
 "http://www.w3.org/Graphics/SVG/1.1/DTD/svg11.dtd">
<!-- Generated by graphviz version 2.40.1 (20161225.0304)
 -->
<!-- Title: HoTT_Algebra_AbGroups_AbSES_Pushout Pages: 1 -->
<svg width="1164pt" height="586pt"
 viewBox="0.00 0.00 1164.00 586.00" xmlns="http://www.w3.org/2000/svg" xmlns:xlink="http://www.w3.org/1999/xlink">
<g id="graph0" class="graph" transform="scale(1 1) rotate(0) translate(4 582)">
<title>HoTT_Algebra_AbGroups_AbSES_Pushout</title>
<polygon fill="#ffffff" stroke="transparent" points="-4,4 -4,-582 1160,-582 1160,4 -4,4"/>
<g id="clust1" class="cluster">
<title>cluster_Pushout</title>
<polygon fill="#ffffc3" stroke="#000000" points="8,-9.2665 8,-568.7335 1148,-568.7335 1148,-9.2665 8,-9.2665"/>
<text text-anchor="middle" x="45.5" y="-553.5335" font-family="Times,serif" font-size="14.00" fill="#000000">Pushout</text>
</g>
<!-- Pushout_abses_pushout_compose -->
<g id="node1" class="node">
<title>Pushout_abses_pushout_compose</title>
<g id="a_node1"><a xlink:href="Pushout.html#abses_pushout_compose" xlink:title="abses_pushout_compose">
<ellipse fill="#f070d1" stroke="#000000" cx="807" cy="-502.2665" rx="125.3814" ry="18"/>
<ellipse fill="none" stroke="#000000" cx="807" cy="-502.2665" rx="129.3796" ry="22"/>
<ellipse fill="none" stroke="#000000" cx="807" cy="-502.2665" rx="133.3778" ry="26"/>
<text text-anchor="middle" x="807" y="-498.5665" font-family="Times,serif" font-size="14.00" fill="#000000">abses_pushout_compose</text>
</a>
</g>
</g>
<!-- Pushout_abses_pushout_compose_ -->
<g id="node2" class="node">
<title>Pushout_abses_pushout_compose_</title>
<g id="a_node2"><a xlink:href="Pushout.html#abses_pushout_compose'" xlink:title="abses_pushout_compose&#39;">
<ellipse fill="#f070d1" stroke="#000000" cx="807" cy="-401.2665" rx="128.0773" ry="18"/>
<text text-anchor="middle" x="807" y="-397.5665" font-family="Times,serif" font-size="14.00" fill="#000000">abses_pushout_compose&#39;</text>
</a>
</g>
</g>
<!-- Pushout_abses_pushout_compose&#45;&gt;Pushout_abses_pushout_compose_ -->
<g id="edge1" class="edge">
<title>Pushout_abses_pushout_compose&#45;&gt;Pushout_abses_pushout_compose_</title>
<path fill="none" stroke="#000000" d="M807,-476.2565C807,-461.9586 807,-444.2048 807,-429.5613"/>
<polygon fill="#000000" stroke="#000000" points="810.5001,-429.5422 807,-419.5422 803.5001,-429.5423 810.5001,-429.5422"/>
</g>
<!-- Pushout_abses_pushout -->
<g id="node3" class="node">
<title>Pushout_abses_pushout</title>
<g id="a_node3"><a xlink:href="Pushout.html#abses_pushout" xlink:title="abses_pushout">
<ellipse fill="#f070d1" stroke="#000000" cx="807" cy="-308.2665" rx="79.0865" ry="18"/>
<text text-anchor="middle" x="807" y="-304.5665" font-family="Times,serif" font-size="14.00" fill="#000000">abses_pushout</text>
</a>
</g>
</g>
<!-- Pushout_abses_pushout_compose_&#45;&gt;Pushout_abses_pushout -->
<g id="edge2" class="edge">
<title>Pushout_abses_pushout_compose_&#45;&gt;Pushout_abses_pushout</title>
<path fill="none" stroke="#000000" d="M807,-382.8927C807,-369.6878 807,-351.6356 807,-336.5939"/>
<polygon fill="#000000" stroke="#000000" points="810.5001,-336.2857 807,-326.2857 803.5001,-336.2858 810.5001,-336.2857"/>
</g>
<!-- Pushout_abses_pushout_morphism -->
<g id="node13" class="node">
<title>Pushout_abses_pushout_morphism</title>
<g id="a_node13"><a xlink:href="Pushout.html#abses_pushout_morphism" xlink:title="abses_pushout_morphism">
<ellipse fill="#f070d1" stroke="#000000" cx="482" cy="-123.2665" rx="131.077" ry="18"/>
<text text-anchor="middle" x="482" y="-119.5665" font-family="Times,serif" font-size="14.00" fill="#000000">abses_pushout_morphism</text>
</a>
</g>
</g>
<!-- Pushout_abses_pushout_compose_&#45;&gt;Pushout_abses_pushout_morphism -->
<g id="edge3" class="edge">
<title>Pushout_abses_pushout_compose_&#45;&gt;Pushout_abses_pushout_morphism</title>
<path fill="none" stroke="#000000" d="M776.8524,-383.513C757.1645,-370.2775 732.6599,-350.3661 719,-326.2665 688.555,-272.5538 736.664,-235.725 696,-189.2665 678.6492,-169.4433 619.7006,-152.1127 568.0566,-140.1906"/>
<polygon fill="#000000" stroke="#000000" points="568.7015,-136.7481 558.1755,-137.9537 567.1559,-143.5753 568.7015,-136.7481"/>
</g>
<!-- Pushout_abses_pushout_ -->
<g id="node4" class="node">
<title>Pushout_abses_pushout_</title>
<g id="a_node4"><a xlink:href="Pushout.html#abses_pushout'" xlink:title="abses_pushout&#39;">
<ellipse fill="#f070d1" stroke="#000000" cx="807" cy="-215.2665" rx="81.7856" ry="18"/>
<text text-anchor="middle" x="807" y="-211.5665" font-family="Times,serif" font-size="14.00" fill="#000000">abses_pushout&#39;</text>
</a>
</g>
</g>
<!-- Pushout_abses_pushout&#45;&gt;Pushout_abses_pushout_ -->
<g id="edge4" class="edge">
<title>Pushout_abses_pushout&#45;&gt;Pushout_abses_pushout_</title>
<path fill="none" stroke="#000000" d="M807,-289.8927C807,-276.6878 807,-258.6356 807,-243.5939"/>
<polygon fill="#000000" stroke="#000000" points="810.5001,-243.2857 807,-233.2857 803.5001,-243.2858 810.5001,-243.2857"/>
</g>
<!-- Pushout_abses_pushout_point_ -->
<g id="node6" class="node">
<title>Pushout_abses_pushout_point_</title>
<g id="a_node6"><a xlink:href="Pushout.html#abses_pushout_point'" xlink:title="abses_pushout_point&#39;">
<ellipse fill="#f070d1" stroke="#000000" cx="1023" cy="-123.2665" rx="110.4804" ry="18"/>
<text text-anchor="middle" x="1023" y="-119.5665" font-family="Times,serif" font-size="14.00" fill="#000000">abses_pushout_point&#39;</text>
</a>
</g>
</g>
<!-- Pushout_abses_pushout_&#45;&gt;Pushout_abses_pushout_point_ -->
<g id="edge5" class="edge">
<title>Pushout_abses_pushout_&#45;&gt;Pushout_abses_pushout_point_</title>
<path fill="none" stroke="#000000" d="M844.6243,-199.2414C880.3924,-184.0068 934.4013,-161.003 973.6173,-144.2999"/>
<polygon fill="#000000" stroke="#000000" points="975.4199,-147.3364 983.2486,-140.1977 972.6768,-140.8963 975.4199,-147.3364"/>
</g>
<!-- Pushout_is0functor_abses_pushout -->
<g id="node10" class="node">
<title>Pushout_is0functor_abses_pushout</title>
<g id="a_node10"><a xlink:href="Pushout.html#is0functor_abses_pushout" xlink:title="is0functor_abses_pushout">
<ellipse fill="#f070d1" stroke="#000000" cx="763" cy="-123.2665" rx="131.8766" ry="18"/>
<text text-anchor="middle" x="763" y="-119.5665" font-family="Times,serif" font-size="14.00" fill="#000000">is0functor_abses_pushout</text>
</a>
</g>
</g>
<!-- Pushout_abses_pushout_&#45;&gt;Pushout_is0functor_abses_pushout -->
<g id="edge6" class="edge">
<title>Pushout_abses_pushout_&#45;&gt;Pushout_is0functor_abses_pushout</title>
<path fill="none" stroke="#000000" d="M798.307,-197.0903C791.9793,-183.8596 783.299,-165.7098 776.1288,-150.7176"/>
<polygon fill="#000000" stroke="#000000" points="779.147,-148.9163 771.6749,-141.405 772.8321,-151.9365 779.147,-148.9163"/>
</g>
<!-- Pushout_abses_pushout_point -->
<g id="node5" class="node">
<title>Pushout_abses_pushout_point</title>
<g id="a_node5"><a xlink:href="Pushout.html#abses_pushout_point" xlink:title="abses_pushout_point">
<ellipse fill="#f070d1" stroke="#000000" cx="1023" cy="-215.2665" rx="108.578" ry="18"/>
<ellipse fill="none" stroke="#000000" cx="1023" cy="-215.2665" rx="112.5794" ry="22"/>
<ellipse fill="none" stroke="#000000" cx="1023" cy="-215.2665" rx="116.5808" ry="26"/>
<text text-anchor="middle" x="1023" y="-211.5665" font-family="Times,serif" font-size="14.00" fill="#000000">abses_pushout_point</text>
</a>
</g>
</g>
<!-- Pushout_abses_pushout_point&#45;&gt;Pushout_abses_pushout_point_ -->
<g id="edge7" class="edge">
<title>Pushout_abses_pushout_point&#45;&gt;Pushout_abses_pushout_point_</title>
<path fill="none" stroke="#000000" d="M1023,-189.1491C1023,-177.4354 1023,-163.5917 1023,-151.6252"/>
<polygon fill="#000000" stroke="#000000" points="1026.5001,-151.2782 1023,-141.2782 1019.5001,-151.2782 1026.5001,-151.2782"/>
</g>
<!-- Pushout_abses_pushout0 -->
<g id="node14" class="node">
<title>Pushout_abses_pushout0</title>
<g id="a_node14"><a xlink:href="Pushout.html#abses_pushout0" xlink:title="abses_pushout0">
<ellipse fill="#f070d1" stroke="#000000" cx="622" cy="-39.2665" rx="85.2851" ry="18"/>
<text text-anchor="middle" x="622" y="-35.5665" font-family="Times,serif" font-size="14.00" fill="#000000">abses_pushout0</text>
</a>
</g>
</g>
<!-- Pushout_abses_pushout_point_&#45;&gt;Pushout_abses_pushout0 -->
<g id="edge8" class="edge">
<title>Pushout_abses_pushout_point_&#45;&gt;Pushout_abses_pushout0</title>
<path fill="none" stroke="#000000" d="M954.9758,-109.0171C882.0951,-93.7503 766.9449,-69.6291 692.9545,-54.1298"/>
<polygon fill="#000000" stroke="#000000" points="693.3012,-50.6266 682.796,-52.0019 691.866,-57.4778 693.3012,-50.6266"/>
</g>
<!-- Pushout_ap_abses_pushout_data -->
<g id="node7" class="node">
<title>Pushout_ap_abses_pushout_data</title>
<g id="a_node7"><a xlink:href="Pushout.html#ap_abses_pushout_data" xlink:title="ap_abses_pushout_data">
<ellipse fill="#f070d1" stroke="#000000" cx="532" cy="-401.2665" rx="120.7855" ry="18"/>
<ellipse fill="none" stroke="#000000" cx="532" cy="-401.2665" rx="124.7821" ry="22"/>
<ellipse fill="none" stroke="#000000" cx="532" cy="-401.2665" rx="128.7786" ry="26"/>
<text text-anchor="middle" x="532" y="-397.5665" font-family="Times,serif" font-size="14.00" fill="#000000">ap_abses_pushout_data</text>
</a>
</g>
</g>
<!-- Pushout_ap_abses_pushout -->
<g id="node8" class="node">
<title>Pushout_ap_abses_pushout</title>
<g id="a_node8"><a xlink:href="Pushout.html#ap_abses_pushout" xlink:title="ap_abses_pushout">
<ellipse fill="#f070d1" stroke="#000000" cx="538" cy="-308.2665" rx="95.5831" ry="18"/>
<text text-anchor="middle" x="538" y="-304.5665" font-family="Times,serif" font-size="14.00" fill="#000000">ap_abses_pushout</text>
</a>
</g>
</g>
<!-- Pushout_ap_abses_pushout_data&#45;&gt;Pushout_ap_abses_pushout -->
<g id="edge9" class="edge">
<title>Pushout_ap_abses_pushout_data&#45;&gt;Pushout_ap_abses_pushout</title>
<path fill="none" stroke="#000000" d="M533.7033,-374.8652C534.475,-362.9033 535.3885,-348.7442 536.1744,-336.5637"/>
<polygon fill="#000000" stroke="#000000" points="539.6741,-336.6786 536.8253,-326.474 532.6887,-336.2279 539.6741,-336.6786"/>
</g>
<!-- Pushout_abses_pushout_path_data_1 -->
<g id="node9" class="node">
<title>Pushout_abses_pushout_path_data_1</title>
<g id="a_node9"><a xlink:href="Pushout.html#abses_pushout_path_data_1" xlink:title="abses_pushout_path_data_1">
<ellipse fill="#f070d1" stroke="#000000" cx="545" cy="-215.2665" rx="141.8751" ry="18"/>
<text text-anchor="middle" x="545" y="-211.5665" font-family="Times,serif" font-size="14.00" fill="#000000">abses_pushout_path_data_1</text>
</a>
</g>
</g>
<!-- Pushout_ap_abses_pushout&#45;&gt;Pushout_abses_pushout_path_data_1 -->
<g id="edge10" class="edge">
<title>Pushout_ap_abses_pushout&#45;&gt;Pushout_abses_pushout_path_data_1</title>
<path fill="none" stroke="#000000" d="M539.383,-289.8927C540.3769,-276.6878 541.7357,-258.6356 542.8678,-243.5939"/>
<polygon fill="#000000" stroke="#000000" points="546.3832,-243.5202 543.6437,-233.2857 539.4029,-242.9948 546.3832,-243.5202"/>
</g>
<!-- Pushout_abses_pushout_path_data_1&#45;&gt;Pushout_is0functor_abses_pushout -->
<g id="edge11" class="edge">
<title>Pushout_abses_pushout_path_data_1&#45;&gt;Pushout_is0functor_abses_pushout</title>
<path fill="none" stroke="#000000" d="M586.0041,-197.962C621.9342,-182.7989 674.2763,-160.7096 712.723,-144.4844"/>
<polygon fill="#000000" stroke="#000000" points="714.3274,-147.6062 722.1797,-140.4934 711.6057,-141.157 714.3274,-147.6062"/>
</g>
<!-- Pushout_is0functor_abses_pushout&#45;&gt;Pushout_abses_pushout0 -->
<g id="edge12" class="edge">
<title>Pushout_is0functor_abses_pushout&#45;&gt;Pushout_abses_pushout0</title>
<path fill="none" stroke="#000000" d="M733.4418,-105.6574C711.9122,-92.8312 682.5869,-75.3609 659.4225,-61.5608"/>
<polygon fill="#000000" stroke="#000000" points="660.9384,-58.3899 650.556,-56.2786 657.3557,-64.4036 660.9384,-58.3899"/>
</g>
<!-- Pushout_abses_pushout_morphism_rec_beta -->
<g id="node11" class="node">
<title>Pushout_abses_pushout_morphism_rec_beta</title>
<g id="a_node11"><a xlink:href="Pushout.html#abses_pushout_morphism_rec_beta" xlink:title="abses_pushout_morphism_rec_beta">
<ellipse fill="#f070d1" stroke="#000000" cx="201" cy="-215.2665" rx="176.5782" ry="18"/>
<ellipse fill="none" stroke="#000000" cx="201" cy="-215.2665" rx="180.5735" ry="22"/>
<ellipse fill="none" stroke="#000000" cx="201" cy="-215.2665" rx="184.5689" ry="26"/>
<text text-anchor="middle" x="201" y="-211.5665" font-family="Times,serif" font-size="14.00" fill="#000000">abses_pushout_morphism_rec_beta</text>
</a>
</g>
</g>
<!-- Pushout_abses_pushout_morphism_rec -->
<g id="node12" class="node">
<title>Pushout_abses_pushout_morphism_rec</title>
<g id="a_node12"><a xlink:href="Pushout.html#abses_pushout_morphism_rec" xlink:title="abses_pushout_morphism_rec">
<ellipse fill="#f070d1" stroke="#000000" cx="181" cy="-123.2665" rx="151.3732" ry="18"/>
<text text-anchor="middle" x="181" y="-119.5665" font-family="Times,serif" font-size="14.00" fill="#000000">abses_pushout_morphism_rec</text>
</a>
</g>
</g>
<!-- Pushout_abses_pushout_morphism_rec_beta&#45;&gt;Pushout_abses_pushout_morphism_rec -->
<g id="edge13" class="edge">
<title>Pushout_abses_pushout_morphism_rec_beta&#45;&gt;Pushout_abses_pushout_morphism_rec</title>
<path fill="none" stroke="#000000" d="M195.3223,-189.1491C192.7499,-177.3159 189.7049,-163.3089 187.0854,-151.2594"/>
<polygon fill="#000000" stroke="#000000" points="190.4601,-150.3064 184.9156,-141.2782 183.6198,-151.7935 190.4601,-150.3064"/>
</g>
<!-- Pushout_abses_pushout_morphism_rec_beta&#45;&gt;Pushout_abses_pushout_morphism -->
<g id="edge14" class="edge">
<title>Pushout_abses_pushout_morphism_rec_beta&#45;&gt;Pushout_abses_pushout_morphism</title>
<path fill="none" stroke="#000000" d="M274.0959,-191.3348C319.9039,-176.3372 378.2396,-157.2379 421.4516,-143.0902"/>
<polygon fill="#000000" stroke="#000000" points="422.5699,-146.407 430.9845,-139.9691 420.3918,-139.7544 422.5699,-146.407"/>
</g>
<!-- Pushout_abses_pushout_morphism_rec&#45;&gt;Pushout_abses_pushout0 -->
<g id="edge15" class="edge">
<title>Pushout_abses_pushout_morphism_rec&#45;&gt;Pushout_abses_pushout0</title>
<path fill="none" stroke="#000000" d="M261.3734,-107.9573C343.3303,-92.3465 469.3871,-68.3357 548.691,-53.2301"/>
<polygon fill="#000000" stroke="#000000" points="549.4343,-56.6516 558.6028,-51.3422 548.1245,-49.7752 549.4343,-56.6516"/>
</g>
<!-- Pushout_abses_pushout_morphism&#45;&gt;Pushout_abses_pushout0 -->
<g id="edge16" class="edge">
<title>Pushout_abses_pushout_morphism&#45;&gt;Pushout_abses_pushout0</title>
<path fill="none" stroke="#000000" d="M511.3486,-105.6574C532.7255,-92.8312 561.8428,-75.3609 584.8429,-61.5608"/>
<polygon fill="#000000" stroke="#000000" points="586.8723,-64.4249 593.6465,-56.2786 583.2708,-58.4224 586.8723,-64.4249"/>
</g>
</g>
</svg>
