<?xml version="1.0" encoding="UTF-8" standalone="no"?>
<!DOCTYPE svg PUBLIC "-//W3C//DTD SVG 1.1//EN"
 "http://www.w3.org/Graphics/SVG/1.1/DTD/svg11.dtd">
<!-- Generated by graphviz version 2.40.1 (20161225.0304)
 -->
<!-- Title: HoTT_WildCat_Forall Pages: 1 -->
<svg width="654pt" height="331pt"
 viewBox="0.00 0.00 654.00 331.00" xmlns="http://www.w3.org/2000/svg" xmlns:xlink="http://www.w3.org/1999/xlink">
<g id="graph0" class="graph" transform="scale(1 1) rotate(0) translate(4 327)">
<title>HoTT_WildCat_Forall</title>
<polygon fill="#ffffff" stroke="transparent" points="-4,4 -4,-327 650,-327 650,4 -4,4"/>
<g id="clust1" class="cluster">
<title>cluster_Forall</title>
<polygon fill="#ffffc3" stroke="#000000" points="14.3556,-8 14.3556,-315 631.6444,-315 631.6444,-8 14.3556,-8"/>
<text text-anchor="middle" x="43.3556" y="-299.8" font-family="Times,serif" font-size="14.00" fill="#000000">Forall</text>
</g>
<!-- Forall_is1cat_forall -->
<g id="node1" class="node">
<title>Forall_is1cat_forall</title>
<g id="a_node1"><a xlink:href="Forall.html#is1cat_forall" xlink:title="is1cat_forall">
<ellipse fill="#f070d1" stroke="#000000" cx="292.2944" cy="-258" rx="68.463" ry="18"/>
<ellipse fill="none" stroke="#000000" cx="292.2944" cy="-258" rx="72.4758" ry="22"/>
<ellipse fill="none" stroke="#000000" cx="292.2944" cy="-258" rx="76.4887" ry="26"/>
<text text-anchor="middle" x="292.2944" y="-254.3" font-family="Times,serif" font-size="14.00" fill="#000000">is1cat_forall</text>
</a>
</g>
</g>
<!-- Forall_is2graph_forall -->
<g id="node2" class="node">
<title>Forall_is2graph_forall</title>
<g id="a_node2"><a xlink:href="Forall.html#is2graph_forall" xlink:title="is2graph_forall">
<ellipse fill="#f070d1" stroke="#000000" cx="174.2944" cy="-106" rx="81.4863" ry="18"/>
<text text-anchor="middle" x="174.2944" y="-102.3" font-family="Times,serif" font-size="14.00" fill="#000000">is2graph_forall</text>
</a>
</g>
</g>
<!-- Forall_is1cat_forall&#45;&gt;Forall_is2graph_forall -->
<g id="edge1" class="edge">
<title>Forall_is1cat_forall&#45;&gt;Forall_is2graph_forall</title>
<path fill="none" stroke="#000000" d="M272.5439,-232.5586C250.9012,-204.6799 216.3628,-160.1897 194.5298,-132.0658"/>
<polygon fill="#000000" stroke="#000000" points="197.0872,-129.6525 188.1903,-123.8997 191.5578,-133.9451 197.0872,-129.6525"/>
</g>
<!-- Forall_is0gpd_forall -->
<g id="node3" class="node">
<title>Forall_is0gpd_forall</title>
<g id="a_node3"><a xlink:href="Forall.html#is0gpd_forall" xlink:title="is0gpd_forall">
<ellipse fill="#f070d1" stroke="#000000" cx="447.2944" cy="-178" rx="71.4873" ry="18"/>
<text text-anchor="middle" x="447.2944" y="-174.3" font-family="Times,serif" font-size="14.00" fill="#000000">is0gpd_forall</text>
</a>
</g>
</g>
<!-- Forall_is1cat_forall&#45;&gt;Forall_is0gpd_forall -->
<g id="edge2" class="edge">
<title>Forall_is1cat_forall&#45;&gt;Forall_is0gpd_forall</title>
<path fill="none" stroke="#000000" d="M334.6489,-236.1396C357.0798,-224.5624 384.4942,-210.4131 406.6618,-198.9717"/>
<polygon fill="#000000" stroke="#000000" points="408.5302,-201.9461 415.8112,-194.2494 405.3197,-195.7257 408.5302,-201.9461"/>
</g>
<!-- Forall_isgraph_forall -->
<g id="node5" class="node">
<title>Forall_isgraph_forall</title>
<g id="a_node5"><a xlink:href="Forall.html#isgraph_forall" xlink:title="isgraph_forall">
<ellipse fill="#f070d1" stroke="#000000" cx="328.2944" cy="-34" rx="75.2868" ry="18"/>
<text text-anchor="middle" x="328.2944" y="-30.3" font-family="Times,serif" font-size="14.00" fill="#000000">isgraph_forall</text>
</a>
</g>
</g>
<!-- Forall_is2graph_forall&#45;&gt;Forall_isgraph_forall -->
<g id="edge3" class="edge">
<title>Forall_is2graph_forall&#45;&gt;Forall_isgraph_forall</title>
<path fill="none" stroke="#000000" d="M209.2394,-89.6621C231.5673,-79.2231 260.7007,-65.6023 284.5592,-54.4476"/>
<polygon fill="#000000" stroke="#000000" points="286.1769,-57.555 293.7533,-50.1491 283.2121,-51.2139 286.1769,-57.555"/>
</g>
<!-- Forall_is01cat_forall -->
<g id="node4" class="node">
<title>Forall_is01cat_forall</title>
<g id="a_node4"><a xlink:href="Forall.html#is01cat_forall" xlink:title="is01cat_forall">
<ellipse fill="#f070d1" stroke="#000000" cx="484.2944" cy="-106" rx="74.187" ry="18"/>
<text text-anchor="middle" x="484.2944" y="-102.3" font-family="Times,serif" font-size="14.00" fill="#000000">is01cat_forall</text>
</a>
</g>
</g>
<!-- Forall_is0gpd_forall&#45;&gt;Forall_is01cat_forall -->
<g id="edge4" class="edge">
<title>Forall_is0gpd_forall&#45;&gt;Forall_is01cat_forall</title>
<path fill="none" stroke="#000000" d="M456.6311,-159.8314C460.8258,-151.6688 465.8613,-141.87 470.4797,-132.8827"/>
<polygon fill="#000000" stroke="#000000" points="473.6312,-134.4075 475.0889,-123.9134 467.4052,-131.208 473.6312,-134.4075"/>
</g>
<!-- Forall_is01cat_forall&#45;&gt;Forall_isgraph_forall -->
<g id="edge5" class="edge">
<title>Forall_is01cat_forall&#45;&gt;Forall_isgraph_forall</title>
<path fill="none" stroke="#000000" d="M449.673,-90.0209C426.8293,-79.4776 396.707,-65.575 372.1855,-54.2574"/>
<polygon fill="#000000" stroke="#000000" points="373.6348,-51.0716 363.0885,-50.0588 370.7014,-57.4273 373.6348,-51.0716"/>
</g>
</g>
</svg>
