<?xml version="1.0" encoding="UTF-8" standalone="no"?>
<!DOCTYPE svg PUBLIC "-//W3C//DTD SVG 1.1//EN"
 "http://www.w3.org/Graphics/SVG/1.1/DTD/svg11.dtd">
<!-- Generated by graphviz version 2.40.1 (20161225.0304)
 -->
<!-- Title: HoTT_Cubical_DPathCube Pages: 1 -->
<svg width="1421pt" height="715pt"
 viewBox="0.00 0.00 1421.00 714.50" xmlns="http://www.w3.org/2000/svg" xmlns:xlink="http://www.w3.org/1999/xlink">
<g id="graph0" class="graph" transform="scale(1 1) rotate(0) translate(4 710.5)">
<title>HoTT_Cubical_DPathCube</title>
<polygon fill="#ffffff" stroke="transparent" points="-4,4 -4,-710.5 1417,-710.5 1417,4 -4,4"/>
<g id="clust1" class="cluster">
<title>cluster_DPathCube</title>
<polygon fill="#ffffc3" stroke="#000000" points="8,-31.5754 8,-674.9246 1405,-674.9246 1405,-31.5754 8,-31.5754"/>
<text text-anchor="middle" x="57" y="-659.7246" font-family="Times,serif" font-size="14.00" fill="#000000">DPathCube</text>
</g>
<!-- DPathCube_dc_fill_back -->
<g id="node1" class="node">
<title>DPathCube_dc_fill_back</title>
<g id="a_node1"><a xlink:href="DPathCube.html#dc_fill_back" xlink:title="dc_fill_back">
<ellipse fill="#f070d1" stroke="#000000" cx="1323" cy="-449.5754" rx="66.1109" ry="18"/>
<ellipse fill="none" stroke="#000000" cx="1323" cy="-449.5754" rx="70.0999" ry="22"/>
<ellipse fill="none" stroke="#000000" cx="1323" cy="-449.5754" rx="74.0888" ry="26"/>
<text text-anchor="middle" x="1323" y="-445.8754" font-family="Times,serif" font-size="14.00" fill="#000000">dc_fill_back</text>
</a>
</g>
</g>
<!-- DPathCube_DPathCube -->
<g id="node9" class="node">
<title>DPathCube_DPathCube</title>
<g id="a_node9"><a xlink:href="DPathCube.html#DPathCube" xlink:title="DPathCube">
<ellipse fill="#f070d1" stroke="#000000" cx="728" cy="-134.5754" rx="63.8893" ry="18"/>
<text text-anchor="middle" x="728" y="-130.8754" font-family="Times,serif" font-size="14.00" fill="#000000">DPathCube</text>
</a>
</g>
</g>
<!-- DPathCube_dc_fill_back&#45;&gt;DPathCube_DPathCube -->
<g id="edge1" class="edge">
<title>DPathCube_dc_fill_back&#45;&gt;DPathCube_DPathCube</title>
<path fill="none" stroke="#000000" d="M1281.6332,-427.6753C1171.7761,-369.5157 873.8213,-211.7749 766.8722,-155.1548"/>
<polygon fill="#000000" stroke="#000000" points="768.4925,-152.0525 758.017,-150.4668 765.2173,-158.239 768.4925,-152.0525"/>
</g>
<!-- DPathCube_dc_fill_front -->
<g id="node2" class="node">
<title>DPathCube_dc_fill_front</title>
<g id="a_node2"><a xlink:href="DPathCube.html#dc_fill_front" xlink:title="dc_fill_front">
<ellipse fill="#f070d1" stroke="#000000" cx="1156" cy="-449.5754" rx="66.8941" ry="18"/>
<ellipse fill="none" stroke="#000000" cx="1156" cy="-449.5754" rx="70.8911" ry="22"/>
<ellipse fill="none" stroke="#000000" cx="1156" cy="-449.5754" rx="74.8882" ry="26"/>
<text text-anchor="middle" x="1156" y="-445.8754" font-family="Times,serif" font-size="14.00" fill="#000000">dc_fill_front</text>
</a>
</g>
</g>
<!-- DPathCube_dc_fill_front&#45;&gt;DPathCube_DPathCube -->
<g id="edge2" class="edge">
<title>DPathCube_dc_fill_front&#45;&gt;DPathCube_DPathCube</title>
<path fill="none" stroke="#000000" d="M1123.8304,-425.8992C1044.0185,-367.1591 837.7022,-215.3142 759.0682,-157.441"/>
<polygon fill="#000000" stroke="#000000" points="761.1219,-154.6068 750.9934,-151.4981 756.9726,-160.2445 761.1219,-154.6068"/>
</g>
<!-- DPathCube_dc_fill_bottom -->
<g id="node3" class="node">
<title>DPathCube_dc_fill_bottom</title>
<g id="a_node3"><a xlink:href="DPathCube.html#dc_fill_bottom" xlink:title="dc_fill_bottom">
<ellipse fill="#f070d1" stroke="#000000" cx="978" cy="-449.5754" rx="77.2012" ry="18"/>
<ellipse fill="none" stroke="#000000" cx="978" cy="-449.5754" rx="81.1939" ry="22"/>
<ellipse fill="none" stroke="#000000" cx="978" cy="-449.5754" rx="85.1866" ry="26"/>
<text text-anchor="middle" x="978" y="-445.8754" font-family="Times,serif" font-size="14.00" fill="#000000">dc_fill_bottom</text>
</a>
</g>
</g>
<!-- DPathCube_dc_fill_bottom&#45;&gt;DPathCube_DPathCube -->
<g id="edge3" class="edge">
<title>DPathCube_dc_fill_bottom&#45;&gt;DPathCube_DPathCube</title>
<path fill="none" stroke="#000000" d="M957.7532,-424.0645C910.8873,-365.0135 795.367,-219.4579 748.3756,-160.2487"/>
<polygon fill="#000000" stroke="#000000" points="750.9142,-157.8171 741.956,-152.16 745.4311,-162.1687 750.9142,-157.8171"/>
</g>
<!-- DPathCube_dc_fill_top -->
<g id="node4" class="node">
<title>DPathCube_dc_fill_top</title>
<g id="a_node4"><a xlink:href="DPathCube.html#dc_fill_top" xlink:title="dc_fill_top">
<ellipse fill="#f070d1" stroke="#000000" cx="808" cy="-449.5754" rx="59.2725" ry="18"/>
<ellipse fill="none" stroke="#000000" cx="808" cy="-449.5754" rx="63.2812" ry="22"/>
<ellipse fill="none" stroke="#000000" cx="808" cy="-449.5754" rx="67.2898" ry="26"/>
<text text-anchor="middle" x="808" y="-445.8754" font-family="Times,serif" font-size="14.00" fill="#000000">dc_fill_top</text>
</a>
</g>
</g>
<!-- DPathCube_dc_fill_top&#45;&gt;DPathCube_DPathCube -->
<g id="edge4" class="edge">
<title>DPathCube_dc_fill_top&#45;&gt;DPathCube_DPathCube</title>
<path fill="none" stroke="#000000" d="M801.3852,-423.5297C786.5175,-364.9882 750.5596,-223.4038 735.1763,-162.8322"/>
<polygon fill="#000000" stroke="#000000" points="738.4909,-161.6642 732.637,-152.8335 731.7063,-163.3874 738.4909,-161.6642"/>
</g>
<!-- DPathCube_dc_fill_right -->
<g id="node5" class="node">
<title>DPathCube_dc_fill_right</title>
<g id="a_node5"><a xlink:href="DPathCube.html#dc_fill_right" xlink:title="dc_fill_right">
<ellipse fill="#f070d1" stroke="#000000" cx="648" cy="-449.5754" rx="66.8941" ry="18"/>
<ellipse fill="none" stroke="#000000" cx="648" cy="-449.5754" rx="70.8911" ry="22"/>
<ellipse fill="none" stroke="#000000" cx="648" cy="-449.5754" rx="74.8882" ry="26"/>
<text text-anchor="middle" x="648" y="-445.8754" font-family="Times,serif" font-size="14.00" fill="#000000">dc_fill_right</text>
</a>
</g>
</g>
<!-- DPathCube_dc_fill_right&#45;&gt;DPathCube_DPathCube -->
<g id="edge5" class="edge">
<title>DPathCube_dc_fill_right&#45;&gt;DPathCube_DPathCube</title>
<path fill="none" stroke="#000000" d="M654.6148,-423.5297C669.4825,-364.9882 705.4404,-223.4038 720.8237,-162.8322"/>
<polygon fill="#000000" stroke="#000000" points="724.2937,-163.3874 723.363,-152.8335 717.5091,-161.6642 724.2937,-163.3874"/>
</g>
<!-- DPathCube_dc_fill_left -->
<g id="node6" class="node">
<title>DPathCube_dc_fill_left</title>
<g id="a_node6"><a xlink:href="DPathCube.html#dc_fill_left" xlink:title="dc_fill_left">
<ellipse fill="#f070d1" stroke="#000000" cx="487" cy="-449.5754" rx="59.6142" ry="18"/>
<ellipse fill="none" stroke="#000000" cx="487" cy="-449.5754" rx="63.6021" ry="22"/>
<ellipse fill="none" stroke="#000000" cx="487" cy="-449.5754" rx="67.59" ry="26"/>
<text text-anchor="middle" x="487" y="-445.8754" font-family="Times,serif" font-size="14.00" fill="#000000">dc_fill_left</text>
</a>
</g>
</g>
<!-- DPathCube_dc_fill_left&#45;&gt;DPathCube_DPathCube -->
<g id="edge6" class="edge">
<title>DPathCube_dc_fill_left&#45;&gt;DPathCube_DPathCube</title>
<path fill="none" stroke="#000000" d="M506.1123,-424.5946C550.998,-365.9266 662.7795,-219.8222 708.271,-160.3623"/>
<polygon fill="#000000" stroke="#000000" points="711.1894,-162.3078 714.486,-152.2389 705.6298,-158.0544 711.1894,-162.3078"/>
</g>
<!-- DPathCube_equiv_dc_const -->
<g id="node7" class="node">
<title>DPathCube_equiv_dc_const</title>
<g id="a_node7"><a xlink:href="DPathCube.html#equiv_dc_const" xlink:title="equiv_dc_const">
<ellipse fill="#f070d1" stroke="#000000" cx="311" cy="-449.5754" rx="82.5816" ry="18"/>
<ellipse fill="none" stroke="#000000" cx="311" cy="-449.5754" rx="86.5835" ry="22"/>
<ellipse fill="none" stroke="#000000" cx="311" cy="-449.5754" rx="90.5854" ry="26"/>
<text text-anchor="middle" x="311" y="-445.8754" font-family="Times,serif" font-size="14.00" fill="#000000">equiv_dc_const</text>
</a>
</g>
</g>
<!-- DPathCube_equiv_dc_const&#45;&gt;DPathCube_DPathCube -->
<g id="edge7" class="edge">
<title>DPathCube_equiv_dc_const&#45;&gt;DPathCube_DPathCube</title>
<path fill="none" stroke="#000000" d="M343.3743,-425.12C421.684,-365.9652 620.526,-215.7608 697.1961,-157.8445"/>
<polygon fill="#000000" stroke="#000000" points="699.6327,-160.3904 705.5024,-151.57 695.4134,-154.8048 699.6327,-160.3904"/>
</g>
<!-- DPathCube_equiv_dc_const_ -->
<g id="node8" class="node">
<title>DPathCube_equiv_dc_const_</title>
<g id="a_node8"><a xlink:href="DPathCube.html#equiv_dc_const'" xlink:title="equiv_dc_const&#39;">
<ellipse fill="#f070d1" stroke="#000000" cx="109" cy="-449.5754" rx="85.2729" ry="18"/>
<ellipse fill="none" stroke="#000000" cx="109" cy="-449.5754" rx="89.279" ry="22"/>
<ellipse fill="none" stroke="#000000" cx="109" cy="-449.5754" rx="93.2851" ry="26"/>
<text text-anchor="middle" x="109" y="-445.8754" font-family="Times,serif" font-size="14.00" fill="#000000">equiv_dc_const&#39;</text>
</a>
</g>
</g>
<!-- DPathCube_equiv_dc_const_&#45;&gt;DPathCube_DPathCube -->
<g id="edge8" class="edge">
<title>DPathCube_equiv_dc_const_&#45;&gt;DPathCube_DPathCube</title>
<path fill="none" stroke="#000000" d="M154.0156,-426.6677C269.9868,-367.6516 577.59,-211.1169 687.9139,-154.9746"/>
<polygon fill="#000000" stroke="#000000" points="689.723,-157.9812 697.048,-150.3264 686.5482,-151.7425 689.723,-157.9812"/>
</g>
</g>
</svg>
