<?xml version="1.0" encoding="UTF-8" standalone="no"?>
<!DOCTYPE svg PUBLIC "-//W3C//DTD SVG 1.1//EN"
 "http://www.w3.org/Graphics/SVG/1.1/DTD/svg11.dtd">
<!-- Generated by graphviz version 2.40.1 (20161225.0304)
 -->
<!-- Title: HoTT_Classes_interfaces_naturals Pages: 1 -->
<svg width="1620pt" height="814pt"
 viewBox="0.00 0.00 1620.00 814.00" xmlns="http://www.w3.org/2000/svg" xmlns:xlink="http://www.w3.org/1999/xlink">
<g id="graph0" class="graph" transform="scale(1 1) rotate(0) translate(4 810)">
<title>HoTT_Classes_interfaces_naturals</title>
<polygon fill="#ffffff" stroke="transparent" points="-4,4 -4,-810 1616,-810 1616,4 -4,4"/>
<g id="clust1" class="cluster">
<title>cluster_naturals</title>
<polygon fill="#ffffc3" stroke="#000000" points="8,-15.6886 8,-790.3114 1604,-790.3114 1604,-15.6886 8,-15.6886"/>
<text text-anchor="middle" x="46" y="-775.1114" font-family="Times,serif" font-size="14.00" fill="#000000">naturals</text>
</g>
<!-- naturals_nat_distance -->
<g id="node1" class="node">
<title>naturals_nat_distance</title>
<g id="a_node1"><a xlink:href="naturals.html#nat_distance" xlink:title="nat_distance">
<ellipse fill="#f070d1" stroke="#000000" cx="1507" cy="-678.6886" rx="70.3682" ry="18"/>
<ellipse fill="none" stroke="#000000" cx="1507" cy="-678.6886" rx="74.3781" ry="22"/>
<ellipse fill="none" stroke="#000000" cx="1507" cy="-678.6886" rx="78.388" ry="26"/>
<text text-anchor="middle" x="1507" y="-674.9886" font-family="Times,serif" font-size="14.00" fill="#000000">nat_distance</text>
</a>
</g>
</g>
<!-- naturals_nat_distance_sig -->
<g id="node2" class="node">
<title>naturals_nat_distance_sig</title>
<g id="a_node2"><a xlink:href="naturals.html#nat_distance_sig" xlink:title="nat_distance_sig">
<ellipse fill="#f070d1" stroke="#000000" cx="1507" cy="-505.6886" rx="89.0842" ry="18"/>
<text text-anchor="middle" x="1507" y="-501.9886" font-family="Times,serif" font-size="14.00" fill="#000000">nat_distance_sig</text>
</a>
</g>
</g>
<!-- naturals_nat_distance&#45;&gt;naturals_nat_distance_sig -->
<g id="edge1" class="edge">
<title>naturals_nat_distance&#45;&gt;naturals_nat_distance_sig</title>
<path fill="none" stroke="#000000" d="M1507,-652.4136C1507,-620.4822 1507,-566.8141 1507,-533.9931"/>
<polygon fill="#000000" stroke="#000000" points="1510.5001,-533.7231 1507,-523.7232 1503.5001,-533.7232 1510.5001,-533.7231"/>
</g>
<!-- naturals_NatDistance -->
<g id="node3" class="node">
<title>naturals_NatDistance</title>
<g id="a_node3"><a xlink:href="naturals.html#NatDistance" xlink:title="NatDistance">
<ellipse fill="#f070d1" stroke="#000000" cx="1507" cy="-348.6886" rx="69.5877" ry="18"/>
<text text-anchor="middle" x="1507" y="-344.9886" font-family="Times,serif" font-size="14.00" fill="#000000">NatDistance</text>
</a>
</g>
</g>
<!-- naturals_nat_distance_sig&#45;&gt;naturals_NatDistance -->
<g id="edge2" class="edge">
<title>naturals_nat_distance_sig&#45;&gt;naturals_NatDistance</title>
<path fill="none" stroke="#000000" d="M1507,-487.6787C1507,-460.6144 1507,-409.21 1507,-377.0701"/>
<polygon fill="#000000" stroke="#000000" points="1510.5001,-376.972 1507,-366.972 1503.5001,-376.9721 1510.5001,-376.972"/>
</g>
<!-- naturals_naturals_initial -->
<g id="node4" class="node">
<title>naturals_naturals_initial</title>
<g id="a_node4"><a xlink:href="naturals.html#naturals_initial" xlink:title="naturals_initial">
<ellipse fill="#f070d1" stroke="#000000" cx="937" cy="-505.6886" rx="81.4644" ry="18"/>
<ellipse fill="none" stroke="#000000" cx="937" cy="-505.6886" rx="85.4753" ry="22"/>
<ellipse fill="none" stroke="#000000" cx="937" cy="-505.6886" rx="89.4862" ry="26"/>
<text text-anchor="middle" x="937" y="-501.9886" font-family="Times,serif" font-size="14.00" fill="#000000">naturals_initial</text>
</a>
</g>
</g>
<!-- naturals_Naturals -->
<g id="node13" class="node">
<title>naturals_Naturals</title>
<g id="a_node13"><a xlink:href="naturals.html#Naturals" xlink:title="Naturals">
<ellipse fill="#e2cdfa" stroke="#000000" cx="572" cy="-348.6886" rx="51.9908" ry="18"/>
<text text-anchor="middle" x="572" y="-344.9886" font-family="Times,serif" font-size="14.00" fill="#000000">Naturals</text>
</a>
</g>
</g>
<!-- naturals_naturals_initial&#45;&gt;naturals_Naturals -->
<g id="edge3" class="edge">
<title>naturals_naturals_initial&#45;&gt;naturals_Naturals</title>
<path fill="none" stroke="#000000" d="M886.6315,-484.0232C814.3093,-452.9148 682.3181,-396.1405 614.5853,-367.0061"/>
<polygon fill="#000000" stroke="#000000" points="615.6422,-363.6507 605.073,-362.9145 612.8762,-370.081 615.6422,-363.6507"/>
</g>
<!-- naturals_naturals_to_semiring_mor -->
<g id="node5" class="node">
<title>naturals_naturals_to_semiring_mor</title>
<g id="a_node5"><a xlink:href="naturals.html#naturals_to_semiring_mor" xlink:title="naturals_to_semiring_mor">
<ellipse fill="#f070d1" stroke="#000000" cx="689" cy="-505.6886" rx="132.6715" ry="18"/>
<ellipse fill="none" stroke="#000000" cx="689" cy="-505.6886" rx="136.674" ry="22"/>
<ellipse fill="none" stroke="#000000" cx="689" cy="-505.6886" rx="140.6765" ry="26"/>
<text text-anchor="middle" x="689" y="-501.9886" font-family="Times,serif" font-size="14.00" fill="#000000">naturals_to_semiring_mor</text>
</a>
</g>
</g>
<!-- naturals_naturals_to_semiring_mor&#45;&gt;naturals_Naturals -->
<g id="edge4" class="edge">
<title>naturals_naturals_to_semiring_mor&#45;&gt;naturals_Naturals</title>
<path fill="none" stroke="#000000" d="M669.6798,-479.7632C647.9408,-450.592 612.8424,-403.4942 591.1665,-374.4078"/>
<polygon fill="#000000" stroke="#000000" points="593.9476,-372.2822 585.1656,-366.3553 588.3347,-376.4651 593.9476,-372.2822"/>
</g>
<!-- naturals_naturals_order -->
<g id="node6" class="node">
<title>naturals_naturals_order</title>
<g id="a_node6"><a xlink:href="naturals.html#naturals_order" xlink:title="naturals_order">
<ellipse fill="#f070d1" stroke="#000000" cx="1313" cy="-505.6886" rx="79.1053" ry="18"/>
<ellipse fill="none" stroke="#000000" cx="1313" cy="-505.6886" rx="83.0959" ry="22"/>
<ellipse fill="none" stroke="#000000" cx="1313" cy="-505.6886" rx="87.0864" ry="26"/>
<text text-anchor="middle" x="1313" y="-501.9886" font-family="Times,serif" font-size="14.00" fill="#000000">naturals_order</text>
</a>
</g>
</g>
<!-- naturals_naturals_order&#45;&gt;naturals_Naturals -->
<g id="edge5" class="edge">
<title>naturals_naturals_order&#45;&gt;naturals_Naturals</title>
<path fill="none" stroke="#000000" d="M1248.9624,-487.9305C1237.9952,-485.0595 1226.6914,-482.2063 1216,-479.6886 1000.0711,-428.8382 740.657,-379.6642 628.3652,-358.9521"/>
<polygon fill="#000000" stroke="#000000" points="628.7528,-355.4647 618.2844,-357.0964 627.4855,-362.3491 628.7528,-355.4647"/>
</g>
<!-- naturals_naturals_ring -->
<g id="node7" class="node">
<title>naturals_naturals_ring</title>
<g id="a_node7"><a xlink:href="naturals.html#naturals_ring" xlink:title="naturals_ring">
<ellipse fill="#f070d1" stroke="#000000" cx="1126" cy="-505.6886" rx="73.3926" ry="18"/>
<ellipse fill="none" stroke="#000000" cx="1126" cy="-505.6886" rx="77.3898" ry="22"/>
<ellipse fill="none" stroke="#000000" cx="1126" cy="-505.6886" rx="81.387" ry="26"/>
<text text-anchor="middle" x="1126" y="-501.9886" font-family="Times,serif" font-size="14.00" fill="#000000">naturals_ring</text>
</a>
</g>
</g>
<!-- naturals_naturals_ring&#45;&gt;naturals_Naturals -->
<g id="edge6" class="edge">
<title>naturals_naturals_ring&#45;&gt;naturals_Naturals</title>
<path fill="none" stroke="#000000" d="M1065.309,-488.3248C1055.1888,-485.4362 1044.7987,-482.4746 1035,-479.6886 884.8596,-436.9998 707.2329,-386.8384 622.2295,-362.8547"/>
<polygon fill="#000000" stroke="#000000" points="623.1504,-359.478 612.5757,-360.1311 621.2496,-366.215 623.1504,-359.478"/>
</g>
<!-- naturals_Naturals_sind -->
<g id="node8" class="node">
<title>naturals_Naturals_sind</title>
<g id="a_node8"><a xlink:href="naturals.html#Naturals_sind" xlink:title="Naturals_sind">
<ellipse fill="#f070d1" stroke="#000000" cx="100" cy="-505.6886" rx="76.0824" ry="18"/>
<ellipse fill="none" stroke="#000000" cx="100" cy="-505.6886" rx="80.0845" ry="22"/>
<ellipse fill="none" stroke="#000000" cx="100" cy="-505.6886" rx="84.0865" ry="26"/>
<text text-anchor="middle" x="100" y="-501.9886" font-family="Times,serif" font-size="14.00" fill="#000000">Naturals_sind</text>
</a>
</g>
</g>
<!-- naturals_Build_Naturals -->
<g id="node12" class="node">
<title>naturals_Build_Naturals</title>
<g id="a_node12"><a xlink:href="naturals.html#Build_Naturals" xlink:title="Build_Naturals">
<ellipse fill="#7faaff" stroke="#000000" cx="351" cy="-348.6886" rx="81.4863" ry="18"/>
<text text-anchor="middle" x="351" y="-344.9886" font-family="Times,serif" font-size="14.00" fill="#000000">Build_Naturals</text>
</a>
</g>
</g>
<!-- naturals_Naturals_sind&#45;&gt;naturals_Build_Naturals -->
<g id="edge7" class="edge">
<title>naturals_Naturals_sind&#45;&gt;naturals_Build_Naturals</title>
<path fill="none" stroke="#000000" d="M137.3062,-482.3536C185.1605,-452.4209 267.6079,-400.8501 314.8815,-371.2806"/>
<polygon fill="#000000" stroke="#000000" points="316.9427,-374.1197 323.5647,-365.8493 313.2306,-368.185 316.9427,-374.1197"/>
</g>
<!-- naturals_Naturals_sind&#45;&gt;naturals_Naturals -->
<g id="edge8" class="edge">
<title>naturals_Naturals_sind&#45;&gt;naturals_Naturals</title>
<path fill="none" stroke="#000000" d="M157.4046,-486.5942C251.6754,-455.2372 437.5062,-393.4248 524.7123,-364.4177"/>
<polygon fill="#000000" stroke="#000000" points="525.9604,-367.6912 534.3446,-361.2138 523.751,-361.049 525.9604,-367.6912"/>
</g>
<!-- naturals_Naturals_rec -->
<g id="node9" class="node">
<title>naturals_Naturals_rec</title>
<g id="a_node9"><a xlink:href="naturals.html#Naturals_rec" xlink:title="Naturals_rec">
<ellipse fill="#f070d1" stroke="#000000" cx="455" cy="-678.6886" rx="71.488" ry="18"/>
<ellipse fill="none" stroke="#000000" cx="455" cy="-678.6886" rx="75.4876" ry="22"/>
<ellipse fill="none" stroke="#000000" cx="455" cy="-678.6886" rx="79.4873" ry="26"/>
<text text-anchor="middle" x="455" y="-674.9886" font-family="Times,serif" font-size="14.00" fill="#000000">Naturals_rec</text>
</a>
</g>
</g>
<!-- naturals_Naturals_rect -->
<g id="node11" class="node">
<title>naturals_Naturals_rect</title>
<g id="a_node11"><a xlink:href="naturals.html#Naturals_rect" xlink:title="Naturals_rect">
<ellipse fill="#f070d1" stroke="#000000" cx="455" cy="-505.6886" rx="75.2868" ry="18"/>
<text text-anchor="middle" x="455" y="-501.9886" font-family="Times,serif" font-size="14.00" fill="#000000">Naturals_rect</text>
</a>
</g>
</g>
<!-- naturals_Naturals_rec&#45;&gt;naturals_Naturals_rect -->
<g id="edge9" class="edge">
<title>naturals_Naturals_rec&#45;&gt;naturals_Naturals_rect</title>
<path fill="none" stroke="#000000" d="M455,-652.4136C455,-620.4822 455,-566.8141 455,-533.9931"/>
<polygon fill="#000000" stroke="#000000" points="458.5001,-533.7231 455,-523.7232 451.5001,-533.7232 458.5001,-533.7231"/>
</g>
<!-- naturals_Naturals_ind -->
<g id="node10" class="node">
<title>naturals_Naturals_ind</title>
<g id="a_node10"><a xlink:href="naturals.html#Naturals_ind" xlink:title="Naturals_ind">
<ellipse fill="#7fffd4" stroke="#000000" cx="282" cy="-505.6886" rx="71.488" ry="18"/>
<ellipse fill="none" stroke="#000000" cx="282" cy="-505.6886" rx="75.4876" ry="22"/>
<ellipse fill="none" stroke="#000000" cx="282" cy="-505.6886" rx="79.4873" ry="26"/>
<text text-anchor="middle" x="282" y="-501.9886" font-family="Times,serif" font-size="14.00" fill="#000000">Naturals_ind</text>
</a>
</g>
</g>
<!-- naturals_Naturals_ind&#45;&gt;naturals_Build_Naturals -->
<g id="edge10" class="edge">
<title>naturals_Naturals_ind&#45;&gt;naturals_Build_Naturals</title>
<path fill="none" stroke="#000000" d="M293.3939,-479.7632C305.9806,-451.1241 326.1609,-405.2064 338.9893,-376.0172"/>
<polygon fill="#000000" stroke="#000000" points="342.2171,-377.3718 343.0364,-366.8086 335.8087,-374.5553 342.2171,-377.3718"/>
</g>
<!-- naturals_Naturals_ind&#45;&gt;naturals_Naturals -->
<g id="edge11" class="edge">
<title>naturals_Naturals_ind&#45;&gt;naturals_Naturals</title>
<path fill="none" stroke="#000000" d="M323.242,-483.361C379.7103,-452.7902 480.2667,-398.3511 534.6318,-368.9189"/>
<polygon fill="#000000" stroke="#000000" points="536.4581,-371.9103 543.5858,-364.0714 533.1255,-365.7545 536.4581,-371.9103"/>
</g>
<!-- naturals_Naturals_rect&#45;&gt;naturals_Build_Naturals -->
<g id="edge12" class="edge">
<title>naturals_Naturals_rect&#45;&gt;naturals_Build_Naturals</title>
<path fill="none" stroke="#000000" d="M443.0699,-487.6787C424.8302,-460.1438 389.9014,-407.4147 368.7015,-375.411"/>
<polygon fill="#000000" stroke="#000000" points="371.5517,-373.376 363.1113,-366.972 365.716,-377.2417 371.5517,-373.376"/>
</g>
<!-- naturals_Naturals_rect&#45;&gt;naturals_Naturals -->
<g id="edge13" class="edge">
<title>naturals_Naturals_rect&#45;&gt;naturals_Naturals</title>
<path fill="none" stroke="#000000" d="M468.4214,-487.6787C489.0508,-459.9965 528.6567,-406.85 552.4671,-374.8993"/>
<polygon fill="#000000" stroke="#000000" points="555.5661,-376.5982 558.7351,-366.4884 549.9532,-372.4154 555.5661,-376.5982"/>
</g>
<!-- naturals_naturals_to_semiring -->
<g id="node14" class="node">
<title>naturals_naturals_to_semiring</title>
<g id="a_node14"><a xlink:href="naturals.html#naturals_to_semiring" xlink:title="naturals_to_semiring">
<ellipse fill="#f070d1" stroke="#000000" cx="437" cy="-207.6886" rx="109.381" ry="18"/>
<text text-anchor="middle" x="437" y="-203.9886" font-family="Times,serif" font-size="14.00" fill="#000000">naturals_to_semiring</text>
</a>
</g>
</g>
<!-- naturals_Build_Naturals&#45;&gt;naturals_naturals_to_semiring -->
<g id="edge14" class="edge">
<title>naturals_Build_Naturals&#45;&gt;naturals_naturals_to_semiring</title>
<path fill="none" stroke="#000000" d="M361.892,-330.8308C376.7374,-306.4912 403.4454,-262.7024 420.6867,-234.4348"/>
<polygon fill="#000000" stroke="#000000" points="423.7057,-236.2065 425.9248,-225.8467 417.7296,-232.5615 423.7057,-236.2065"/>
</g>
<!-- naturals_Naturals&#45;&gt;naturals_naturals_to_semiring -->
<g id="edge15" class="edge">
<title>naturals_Naturals&#45;&gt;naturals_naturals_to_semiring</title>
<path fill="none" stroke="#000000" d="M555.4464,-331.3992C531.8916,-306.7975 488.5484,-261.528 461.3334,-233.1035"/>
<polygon fill="#000000" stroke="#000000" points="463.5588,-230.3668 454.115,-225.5642 458.5026,-235.2078 463.5588,-230.3668"/>
</g>
<!-- naturals_NaturalsToSemiRing -->
<g id="node15" class="node">
<title>naturals_NaturalsToSemiRing</title>
<g id="a_node15"><a xlink:href="naturals.html#NaturalsToSemiRing" xlink:title="NaturalsToSemiRing">
<ellipse fill="#f070d1" stroke="#000000" cx="437" cy="-66.6886" rx="107.781" ry="18"/>
<text text-anchor="middle" x="437" y="-62.9886" font-family="Times,serif" font-size="14.00" fill="#000000">NaturalsToSemiRing</text>
</a>
</g>
</g>
<!-- naturals_naturals_to_semiring&#45;&gt;naturals_NaturalsToSemiRing -->
<g id="edge16" class="edge">
<title>naturals_naturals_to_semiring&#45;&gt;naturals_NaturalsToSemiRing</title>
<path fill="none" stroke="#000000" d="M437,-189.5439C437,-165.5371 437,-122.9747 437,-94.7921"/>
<polygon fill="#000000" stroke="#000000" points="440.5001,-94.7635 437,-84.7636 433.5001,-94.7636 440.5001,-94.7635"/>
</g>
</g>
</svg>
