<?xml version="1.0" encoding="UTF-8" standalone="no"?>
<!DOCTYPE svg PUBLIC "-//W3C//DTD SVG 1.1//EN"
 "http://www.w3.org/Graphics/SVG/1.1/DTD/svg11.dtd">
<!-- Generated by graphviz version 2.40.1 (20161225.0304)
 -->
<!-- Title: HoTT_Projective Pages: 1 -->
<svg width="1301pt" height="655pt"
 viewBox="0.00 0.00 1301.00 654.50" xmlns="http://www.w3.org/2000/svg" xmlns:xlink="http://www.w3.org/1999/xlink">
<g id="graph0" class="graph" transform="scale(1 1) rotate(0) translate(4 650.5)">
<title>HoTT_Projective</title>
<polygon fill="#ffffff" stroke="transparent" points="-4,4 -4,-650.5 1297,-650.5 1297,4 -4,4"/>
<g id="clust1" class="cluster">
<title>cluster_Projective</title>
<polygon fill="#ffffc3" stroke="#000000" points="8,-9.0578 8,-637.4422 1285,-637.4422 1285,-9.0578 8,-9.0578"/>
<text text-anchor="middle" x="52.5" y="-622.2422" font-family="Times,serif" font-size="14.00" fill="#000000">Projective</text>
</g>
<!-- Projective_equiv_isprojective_ishset_AC -->
<g id="node1" class="node">
<title>Projective_equiv_isprojective_ishset_AC</title>
<g id="a_node1"><a xlink:href="Projective.html#equiv_isprojective_ishset_AC" xlink:title="equiv_isprojective_ishset_AC">
<ellipse fill="#f070d1" stroke="#000000" cx="722" cy="-573.0578" rx="147.5719" ry="18"/>
<ellipse fill="none" stroke="#000000" cx="722" cy="-573.0578" rx="151.5729" ry="22"/>
<ellipse fill="none" stroke="#000000" cx="722" cy="-573.0578" rx="155.5738" ry="26"/>
<text text-anchor="middle" x="722" y="-569.3578" font-family="Times,serif" font-size="14.00" fill="#000000">equiv_isprojective_ishset_AC</text>
</a>
</g>
</g>
<!-- Projective_projective_cover_AC -->
<g id="node2" class="node">
<title>Projective_projective_cover_AC</title>
<g id="a_node2"><a xlink:href="Projective.html#projective_cover_AC" xlink:title="projective_cover_AC">
<ellipse fill="#f070d1" stroke="#000000" cx="722" cy="-482.0578" rx="107.4815" ry="18"/>
<text text-anchor="middle" x="722" y="-478.3578" font-family="Times,serif" font-size="14.00" fill="#000000">projective_cover_AC</text>
</a>
</g>
</g>
<!-- Projective_equiv_isprojective_ishset_AC&#45;&gt;Projective_projective_cover_AC -->
<g id="edge1" class="edge">
<title>Projective_equiv_isprojective_ishset_AC&#45;&gt;Projective_projective_cover_AC</title>
<path fill="none" stroke="#000000" d="M722,-546.7368C722,-535.3232 722,-521.9387 722,-510.3158"/>
<polygon fill="#000000" stroke="#000000" points="725.5001,-510.244 722,-500.2441 718.5001,-510.2441 725.5001,-510.244"/>
</g>
<!-- Projective_equiv_isoprojective_hasochoice -->
<g id="node4" class="node">
<title>Projective_equiv_isoprojective_hasochoice</title>
<g id="a_node4"><a xlink:href="Projective.html#equiv_isoprojective_hasochoice" xlink:title="equiv_isoprojective_hasochoice">
<ellipse fill="#f070d1" stroke="#000000" cx="722" cy="-401.0578" rx="157.0724" ry="18"/>
<text text-anchor="middle" x="722" y="-397.3578" font-family="Times,serif" font-size="14.00" fill="#000000">equiv_isoprojective_hasochoice</text>
</a>
</g>
</g>
<!-- Projective_projective_cover_AC&#45;&gt;Projective_equiv_isoprojective_hasochoice -->
<g id="edge2" class="edge">
<title>Projective_projective_cover_AC&#45;&gt;Projective_equiv_isoprojective_hasochoice</title>
<path fill="none" stroke="#000000" d="M722,-463.6776C722,-453.5612 722,-440.7887 722,-429.4215"/>
<polygon fill="#000000" stroke="#000000" points="725.5001,-429.0862 722,-419.0862 718.5001,-429.0862 725.5001,-429.0862"/>
</g>
<!-- Projective_isprojective_unit -->
<g id="node3" class="node">
<title>Projective_isprojective_unit</title>
<g id="a_node3"><a xlink:href="Projective.html#isprojective_unit" xlink:title="isprojective_unit">
<ellipse fill="#f070d1" stroke="#000000" cx="1166" cy="-310.0578" rx="89.0807" ry="18"/>
<ellipse fill="none" stroke="#000000" cx="1166" cy="-310.0578" rx="93.0825" ry="22"/>
<ellipse fill="none" stroke="#000000" cx="1166" cy="-310.0578" rx="97.0842" ry="26"/>
<text text-anchor="middle" x="1166" y="-306.3578" font-family="Times,serif" font-size="14.00" fill="#000000">isprojective_unit</text>
</a>
</g>
</g>
<!-- Projective_isoprojective_ochoice -->
<g id="node7" class="node">
<title>Projective_isoprojective_ochoice</title>
<g id="a_node7"><a xlink:href="Projective.html#isoprojective_ochoice" xlink:title="isoprojective_ochoice">
<ellipse fill="#f070d1" stroke="#000000" cx="1166" cy="-211.0578" rx="111.2805" ry="18"/>
<text text-anchor="middle" x="1166" y="-207.3578" font-family="Times,serif" font-size="14.00" fill="#000000">isoprojective_ochoice</text>
</a>
</g>
</g>
<!-- Projective_isprojective_unit&#45;&gt;Projective_isoprojective_ochoice -->
<g id="edge3" class="edge">
<title>Projective_isprojective_unit&#45;&gt;Projective_isoprojective_ochoice</title>
<path fill="none" stroke="#000000" d="M1166,-284.0467C1166,-270.2597 1166,-253.308 1166,-239.2125"/>
<polygon fill="#000000" stroke="#000000" points="1169.5001,-239.09 1166,-229.09 1162.5001,-239.0901 1169.5001,-239.09"/>
</g>
<!-- Projective_iff_isoprojective_hasochoice -->
<g id="node5" class="node">
<title>Projective_iff_isoprojective_hasochoice</title>
<g id="a_node5"><a xlink:href="Projective.html#iff_isoprojective_hasochoice" xlink:title="iff_isoprojective_hasochoice">
<ellipse fill="#f070d1" stroke="#000000" cx="722" cy="-310.0578" rx="141.8751" ry="18"/>
<text text-anchor="middle" x="722" y="-306.3578" font-family="Times,serif" font-size="14.00" fill="#000000">iff_isoprojective_hasochoice</text>
</a>
</g>
</g>
<!-- Projective_equiv_isoprojective_hasochoice&#45;&gt;Projective_iff_isoprojective_hasochoice -->
<g id="edge4" class="edge">
<title>Projective_equiv_isoprojective_hasochoice&#45;&gt;Projective_iff_isoprojective_hasochoice</title>
<path fill="none" stroke="#000000" d="M722,-382.6426C722,-369.9787 722,-352.9136 722,-338.5119"/>
<polygon fill="#000000" stroke="#000000" points="725.5001,-338.135 722,-328.1351 718.5001,-338.1351 725.5001,-338.135"/>
</g>
<!-- Projective_hasochoice_oprojective -->
<g id="node6" class="node">
<title>Projective_hasochoice_oprojective</title>
<g id="a_node6"><a xlink:href="Projective.html#hasochoice_oprojective" xlink:title="hasochoice_oprojective">
<ellipse fill="#f070d1" stroke="#000000" cx="535" cy="-211.0578" rx="119.6788" ry="18"/>
<text text-anchor="middle" x="535" y="-207.3578" font-family="Times,serif" font-size="14.00" fill="#000000">hasochoice_oprojective</text>
</a>
</g>
</g>
<!-- Projective_iff_isoprojective_hasochoice&#45;&gt;Projective_hasochoice_oprojective -->
<g id="edge5" class="edge">
<title>Projective_iff_isoprojective_hasochoice&#45;&gt;Projective_hasochoice_oprojective</title>
<path fill="none" stroke="#000000" d="M688.5681,-292.3586C657.3596,-275.8364 610.6677,-251.1172 576.9662,-233.2752"/>
<polygon fill="#000000" stroke="#000000" points="578.3043,-230.0234 567.8288,-228.4377 575.029,-236.2099 578.3043,-230.0234"/>
</g>
<!-- Projective_iff_isoprojective_hasochoice&#45;&gt;Projective_isoprojective_ochoice -->
<g id="edge6" class="edge">
<title>Projective_iff_isoprojective_hasochoice&#45;&gt;Projective_isoprojective_ochoice</title>
<path fill="none" stroke="#000000" d="M792.3531,-294.3709C873.7708,-276.217 1007.3153,-246.4402 1090.7551,-227.8354"/>
<polygon fill="#000000" stroke="#000000" points="1091.6769,-231.2159 1100.6755,-225.6234 1090.1534,-224.3836 1091.6769,-231.2159"/>
</g>
<!-- Projective_HasOChoice -->
<g id="node10" class="node">
<title>Projective_HasOChoice</title>
<g id="a_node10"><a xlink:href="Projective.html#HasOChoice" xlink:title="HasOChoice">
<ellipse fill="#f070d1" stroke="#000000" cx="862" cy="-120.0578" rx="69.5877" ry="18"/>
<text text-anchor="middle" x="862" y="-116.3578" font-family="Times,serif" font-size="14.00" fill="#000000">HasOChoice</text>
</a>
</g>
</g>
<!-- Projective_hasochoice_oprojective&#45;&gt;Projective_HasOChoice -->
<g id="edge7" class="edge">
<title>Projective_hasochoice_oprojective&#45;&gt;Projective_HasOChoice</title>
<path fill="none" stroke="#000000" d="M591.9591,-195.2068C651.6727,-178.5892 744.9683,-152.6262 804.7797,-135.9815"/>
<polygon fill="#000000" stroke="#000000" points="805.7504,-139.3444 814.4459,-133.2915 803.8736,-132.6007 805.7504,-139.3444"/>
</g>
<!-- Projective_iff_isoprojective_surjections_split -->
<g id="node12" class="node">
<title>Projective_iff_isoprojective_surjections_split</title>
<g id="a_node12"><a xlink:href="Projective.html#iff_isoprojective_surjections_split" xlink:title="iff_isoprojective_surjections_split">
<ellipse fill="#f070d1" stroke="#000000" cx="535" cy="-120.0578" rx="167.0704" ry="18"/>
<text text-anchor="middle" x="535" y="-116.3578" font-family="Times,serif" font-size="14.00" fill="#000000">iff_isoprojective_surjections_split</text>
</a>
</g>
</g>
<!-- Projective_hasochoice_oprojective&#45;&gt;Projective_iff_isoprojective_surjections_split -->
<g id="edge8" class="edge">
<title>Projective_hasochoice_oprojective&#45;&gt;Projective_iff_isoprojective_surjections_split</title>
<path fill="none" stroke="#000000" d="M535,-192.6426C535,-179.9787 535,-162.9136 535,-148.5119"/>
<polygon fill="#000000" stroke="#000000" points="538.5001,-148.135 535,-138.1351 531.5001,-148.1351 538.5001,-148.135"/>
</g>
<!-- Projective_isoprojective_ochoice&#45;&gt;Projective_HasOChoice -->
<g id="edge9" class="edge">
<title>Projective_isoprojective_ochoice&#45;&gt;Projective_HasOChoice</title>
<path fill="none" stroke="#000000" d="M1113.0472,-195.2068C1058.3242,-178.8259 973.2642,-153.3638 917.5901,-136.6982"/>
<polygon fill="#000000" stroke="#000000" points="918.4762,-133.3101 907.8925,-133.7954 916.4688,-140.0161 918.4762,-133.3101"/>
</g>
<!-- Projective_IsOProjective -->
<g id="node13" class="node">
<title>Projective_IsOProjective</title>
<g id="a_node13"><a xlink:href="Projective.html#IsOProjective" xlink:title="IsOProjective">
<ellipse fill="#f070d1" stroke="#000000" cx="778" cy="-38.0578" rx="74.9875" ry="18"/>
<text text-anchor="middle" x="778" y="-34.3578" font-family="Times,serif" font-size="14.00" fill="#000000">IsOProjective</text>
</a>
</g>
</g>
<!-- Projective_isoprojective_ochoice&#45;&gt;Projective_IsOProjective -->
<g id="edge10" class="edge">
<title>Projective_isoprojective_ochoice&#45;&gt;Projective_IsOProjective</title>
<path fill="none" stroke="#000000" d="M1132.4527,-193.8027C1088.8119,-171.589 1009.9867,-132.2579 941,-102.0578 903.8985,-85.816 861.2705,-69.1469 828.9151,-56.8935"/>
<polygon fill="#000000" stroke="#000000" points="829.8128,-53.4915 819.221,-53.2379 827.3428,-60.0413 829.8128,-53.4915"/>
</g>
<!-- Projective_hasochoice_sigma -->
<g id="node8" class="node">
<title>Projective_hasochoice_sigma</title>
<g id="a_node8"><a xlink:href="Projective.html#hasochoice_sigma" xlink:title="hasochoice_sigma">
<ellipse fill="#f070d1" stroke="#000000" cx="934" cy="-211.0578" rx="94.7917" ry="18"/>
<ellipse fill="none" stroke="#000000" cx="934" cy="-211.0578" rx="98.7875" ry="22"/>
<ellipse fill="none" stroke="#000000" cx="934" cy="-211.0578" rx="102.7833" ry="26"/>
<text text-anchor="middle" x="934" y="-207.3578" font-family="Times,serif" font-size="14.00" fill="#000000">hasochoice_sigma</text>
</a>
</g>
</g>
<!-- Projective_hasochoice_sigma&#45;&gt;Projective_HasOChoice -->
<g id="edge11" class="edge">
<title>Projective_hasochoice_sigma&#45;&gt;Projective_HasOChoice</title>
<path fill="none" stroke="#000000" d="M913.5603,-185.2243C903.8318,-172.9285 892.2259,-158.26 882.4908,-145.9559"/>
<polygon fill="#000000" stroke="#000000" points="885.0457,-143.5442 876.0961,-137.8737 879.5562,-147.8876 885.0457,-143.5442"/>
</g>
<!-- Projective_hasochoice -->
<g id="node9" class="node">
<title>Projective_hasochoice</title>
<g id="a_node9"><a xlink:href="Projective.html#hasochoice" xlink:title="hasochoice">
<ellipse fill="#f070d1" stroke="#000000" cx="743" cy="-211.0578" rx="62.3011" ry="18"/>
<ellipse fill="none" stroke="#000000" cx="743" cy="-211.0578" rx="66.2951" ry="22"/>
<ellipse fill="none" stroke="#000000" cx="743" cy="-211.0578" rx="70.2891" ry="26"/>
<text text-anchor="middle" x="743" y="-207.3578" font-family="Times,serif" font-size="14.00" fill="#000000">hasochoice</text>
</a>
</g>
</g>
<!-- Projective_hasochoice&#45;&gt;Projective_HasOChoice -->
<g id="edge12" class="edge">
<title>Projective_hasochoice&#45;&gt;Projective_HasOChoice</title>
<path fill="none" stroke="#000000" d="M773.6455,-187.623C791.2813,-174.1368 813.3797,-157.238 831.0642,-143.7146"/>
<polygon fill="#000000" stroke="#000000" points="833.5347,-146.2315 839.3523,-137.3767 829.2826,-140.6709 833.5347,-146.2315"/>
</g>
<!-- Projective_equiv_isoprojective_surjections_split -->
<g id="node11" class="node">
<title>Projective_equiv_isoprojective_surjections_split</title>
<g id="a_node11"><a xlink:href="Projective.html#equiv_isoprojective_surjections_split" xlink:title="equiv_isoprojective_surjections_split">
<ellipse fill="#f070d1" stroke="#000000" cx="207" cy="-211.0578" rx="182.7621" ry="18"/>
<ellipse fill="none" stroke="#000000" cx="207" cy="-211.0578" rx="186.7649" ry="22"/>
<ellipse fill="none" stroke="#000000" cx="207" cy="-211.0578" rx="190.7677" ry="26"/>
<text text-anchor="middle" x="207" y="-207.3578" font-family="Times,serif" font-size="14.00" fill="#000000">equiv_isoprojective_surjections_split</text>
</a>
</g>
</g>
<!-- Projective_equiv_isoprojective_surjections_split&#45;&gt;Projective_iff_isoprojective_surjections_split -->
<g id="edge13" class="edge">
<title>Projective_equiv_isoprojective_surjections_split&#45;&gt;Projective_iff_isoprojective_surjections_split</title>
<path fill="none" stroke="#000000" d="M291.4682,-187.623C345.1199,-172.7379 413.7554,-153.6958 464.4791,-139.623"/>
<polygon fill="#000000" stroke="#000000" points="465.675,-142.9235 474.3753,-136.8775 463.8035,-136.1783 465.675,-142.9235"/>
</g>
<!-- Projective_iff_isoprojective_surjections_split&#45;&gt;Projective_IsOProjective -->
<g id="edge14" class="edge">
<title>Projective_iff_isoprojective_surjections_split&#45;&gt;Projective_IsOProjective</title>
<path fill="none" stroke="#000000" d="M585.9408,-102.8679C626.6547,-89.129 683.545,-69.9315 724.8339,-55.9986"/>
<polygon fill="#000000" stroke="#000000" points="726.0909,-59.2684 734.4469,-52.7547 723.8527,-52.6359 726.0909,-59.2684"/>
</g>
</g>
</svg>
