<?xml version="1.0" encoding="UTF-8" standalone="no"?>
<!DOCTYPE svg PUBLIC "-//W3C//DTD SVG 1.1//EN"
 "http://www.w3.org/Graphics/SVG/1.1/DTD/svg11.dtd">
<!-- Generated by graphviz version 2.40.1 (20161225.0304)
 -->
<!-- Title: HoTT_Classes_implementations_pointwise Pages: 1 -->
<svg width="784pt" height="396pt"
 viewBox="0.00 0.00 784.00 396.00" xmlns="http://www.w3.org/2000/svg" xmlns:xlink="http://www.w3.org/1999/xlink">
<g id="graph0" class="graph" transform="scale(1 1) rotate(0) translate(4 392)">
<title>HoTT_Classes_implementations_pointwise</title>
<polygon fill="#ffffff" stroke="transparent" points="-4,4 -4,-392 780,-392 780,4 -4,4"/>
<g id="clust1" class="cluster">
<title>cluster_pointwise</title>
<polygon fill="#ffffc3" stroke="#000000" points="8,-11.6255 8,-376.3745 768,-376.3745 768,-11.6255 8,-11.6255"/>
<text text-anchor="middle" x="51" y="-361.1745" font-family="Times,serif" font-size="14.00" fill="#000000">pointwise</text>
</g>
<!-- pointwise_boundedlattice_fun -->
<g id="node1" class="node">
<title>pointwise_boundedlattice_fun</title>
<g id="a_node1"><a xlink:href="pointwise.html#boundedlattice_fun" xlink:title="boundedlattice_fun">
<ellipse fill="#f070d1" stroke="#000000" cx="385" cy="-293.6255" rx="100.9649" ry="18"/>
<ellipse fill="none" stroke="#000000" cx="385" cy="-293.6255" rx="104.9738" ry="22"/>
<ellipse fill="none" stroke="#000000" cx="385" cy="-293.6255" rx="108.9827" ry="26"/>
<text text-anchor="middle" x="385" y="-289.9255" font-family="Times,serif" font-size="14.00" fill="#000000">boundedlattice_fun</text>
</a>
</g>
</g>
<!-- pointwise_boundedmeetsemilattice_fun -->
<g id="node2" class="node">
<title>pointwise_boundedmeetsemilattice_fun</title>
<g id="a_node2"><a xlink:href="pointwise.html#boundedmeetsemilattice_fun" xlink:title="boundedmeetsemilattice_fun">
<ellipse fill="#f070d1" stroke="#000000" cx="614" cy="-165.6255" rx="145.6742" ry="18"/>
<text text-anchor="middle" x="614" y="-161.9255" font-family="Times,serif" font-size="14.00" fill="#000000">boundedmeetsemilattice_fun</text>
</a>
</g>
</g>
<!-- pointwise_boundedlattice_fun&#45;&gt;pointwise_boundedmeetsemilattice_fun -->
<g id="edge1" class="edge">
<title>pointwise_boundedlattice_fun&#45;&gt;pointwise_boundedmeetsemilattice_fun</title>
<path fill="none" stroke="#000000" d="M427.8045,-269.6998C469.5669,-246.3567 532.6219,-211.1119 573.5576,-188.2308"/>
<polygon fill="#000000" stroke="#000000" points="575.426,-191.1962 582.4472,-183.2619 572.0106,-185.0859 575.426,-191.1962"/>
</g>
<!-- pointwise_boundedjoinsemilattice_fun -->
<g id="node3" class="node">
<title>pointwise_boundedjoinsemilattice_fun</title>
<g id="a_node3"><a xlink:href="pointwise.html#boundedjoinsemilattice_fun" xlink:title="boundedjoinsemilattice_fun">
<ellipse fill="#f070d1" stroke="#000000" cx="156" cy="-165.6255" rx="139.9756" ry="18"/>
<text text-anchor="middle" x="156" y="-161.9255" font-family="Times,serif" font-size="14.00" fill="#000000">boundedjoinsemilattice_fun</text>
</a>
</g>
</g>
<!-- pointwise_boundedlattice_fun&#45;&gt;pointwise_boundedjoinsemilattice_fun -->
<g id="edge2" class="edge">
<title>pointwise_boundedlattice_fun&#45;&gt;pointwise_boundedjoinsemilattice_fun</title>
<path fill="none" stroke="#000000" d="M342.1955,-269.6998C300.4331,-246.3567 237.3781,-211.1119 196.4424,-188.2308"/>
<polygon fill="#000000" stroke="#000000" points="197.9894,-185.0859 187.5528,-183.2619 194.574,-191.1962 197.9894,-185.0859"/>
</g>
<!-- pointwise_meet_fun -->
<g id="node5" class="node">
<title>pointwise_meet_fun</title>
<g id="a_node5"><a xlink:href="pointwise.html#meet_fun" xlink:title="meet_fun">
<ellipse fill="#f070d1" stroke="#000000" cx="469" cy="-49.6255" rx="53.8905" ry="18"/>
<text text-anchor="middle" x="469" y="-45.9255" font-family="Times,serif" font-size="14.00" fill="#000000">meet_fun</text>
</a>
</g>
</g>
<!-- pointwise_boundedmeetsemilattice_fun&#45;&gt;pointwise_meet_fun -->
<g id="edge3" class="edge">
<title>pointwise_boundedmeetsemilattice_fun&#45;&gt;pointwise_meet_fun</title>
<path fill="none" stroke="#000000" d="M591.6615,-147.7547C566.6079,-127.7118 525.879,-95.1287 498.2915,-73.0587"/>
<polygon fill="#000000" stroke="#000000" points="500.1788,-70.0863 490.1837,-66.5724 495.8059,-75.5524 500.1788,-70.0863"/>
</g>
<!-- pointwise_top_fun -->
<g id="node7" class="node">
<title>pointwise_top_fun</title>
<g id="a_node7"><a xlink:href="pointwise.html#top_fun" xlink:title="top_fun">
<ellipse fill="#f070d1" stroke="#000000" cx="614" cy="-49.6255" rx="46.2923" ry="18"/>
<text text-anchor="middle" x="614" y="-45.9255" font-family="Times,serif" font-size="14.00" fill="#000000">top_fun</text>
</a>
</g>
</g>
<!-- pointwise_boundedmeetsemilattice_fun&#45;&gt;pointwise_top_fun -->
<g id="edge4" class="edge">
<title>pointwise_boundedmeetsemilattice_fun&#45;&gt;pointwise_top_fun</title>
<path fill="none" stroke="#000000" d="M614,-147.5005C614,-128.9667 614,-99.9042 614,-78.2566"/>
<polygon fill="#000000" stroke="#000000" points="617.5001,-78.006 614,-68.006 610.5001,-78.006 617.5001,-78.006"/>
</g>
<!-- pointwise_join_fun -->
<g id="node6" class="node">
<title>pointwise_join_fun</title>
<g id="a_node6"><a xlink:href="pointwise.html#join_fun" xlink:title="join_fun">
<ellipse fill="#f070d1" stroke="#000000" cx="295" cy="-49.6255" rx="48.1917" ry="18"/>
<text text-anchor="middle" x="295" y="-45.9255" font-family="Times,serif" font-size="14.00" fill="#000000">join_fun</text>
</a>
</g>
</g>
<!-- pointwise_boundedjoinsemilattice_fun&#45;&gt;pointwise_join_fun -->
<g id="edge5" class="edge">
<title>pointwise_boundedjoinsemilattice_fun&#45;&gt;pointwise_join_fun</title>
<path fill="none" stroke="#000000" d="M177.4141,-147.7547C201.5691,-127.5966 240.9238,-94.7538 267.3753,-72.6792"/>
<polygon fill="#000000" stroke="#000000" points="269.7038,-75.2947 275.1389,-66.2002 265.2187,-69.9203 269.7038,-75.2947"/>
</g>
<!-- pointwise_bot_fun -->
<g id="node8" class="node">
<title>pointwise_bot_fun</title>
<g id="a_node8"><a xlink:href="pointwise.html#bot_fun" xlink:title="bot_fun">
<ellipse fill="#f070d1" stroke="#000000" cx="156" cy="-49.6255" rx="46.2923" ry="18"/>
<text text-anchor="middle" x="156" y="-45.9255" font-family="Times,serif" font-size="14.00" fill="#000000">bot_fun</text>
</a>
</g>
</g>
<!-- pointwise_boundedjoinsemilattice_fun&#45;&gt;pointwise_bot_fun -->
<g id="edge6" class="edge">
<title>pointwise_boundedjoinsemilattice_fun&#45;&gt;pointwise_bot_fun</title>
<path fill="none" stroke="#000000" d="M156,-147.5005C156,-128.9667 156,-99.9042 156,-78.2566"/>
<polygon fill="#000000" stroke="#000000" points="159.5001,-78.006 156,-68.006 152.5001,-78.006 159.5001,-78.006"/>
</g>
<!-- pointwise_lattice_fun -->
<g id="node4" class="node">
<title>pointwise_lattice_fun</title>
<g id="a_node4"><a xlink:href="pointwise.html#lattice_fun" xlink:title="lattice_fun">
<ellipse fill="#f070d1" stroke="#000000" cx="382" cy="-165.6255" rx="60.3958" ry="18"/>
<ellipse fill="none" stroke="#000000" cx="382" cy="-165.6255" rx="64.3926" ry="22"/>
<ellipse fill="none" stroke="#000000" cx="382" cy="-165.6255" rx="68.3893" ry="26"/>
<text text-anchor="middle" x="382" y="-161.9255" font-family="Times,serif" font-size="14.00" fill="#000000">lattice_fun</text>
</a>
</g>
</g>
<!-- pointwise_lattice_fun&#45;&gt;pointwise_meet_fun -->
<g id="edge7" class="edge">
<title>pointwise_lattice_fun&#45;&gt;pointwise_meet_fun</title>
<path fill="none" stroke="#000000" d="M400.8777,-140.4552C415.3307,-121.1845 435.191,-94.7042 449.7386,-75.3074"/>
<polygon fill="#000000" stroke="#000000" points="452.6131,-77.308 455.8132,-67.2079 447.0131,-73.1079 452.6131,-77.308"/>
</g>
<!-- pointwise_lattice_fun&#45;&gt;pointwise_join_fun -->
<g id="edge8" class="edge">
<title>pointwise_lattice_fun&#45;&gt;pointwise_join_fun</title>
<path fill="none" stroke="#000000" d="M363.1223,-140.4552C348.6693,-121.1845 328.809,-94.7042 314.2614,-75.3074"/>
<polygon fill="#000000" stroke="#000000" points="316.9869,-73.1079 308.1868,-67.2079 311.3869,-77.308 316.9869,-73.1079"/>
</g>
</g>
</svg>
