<?xml version="1.0" encoding="UTF-8" standalone="no"?>
<!DOCTYPE svg PUBLIC "-//W3C//DTD SVG 1.1//EN"
 "http://www.w3.org/Graphics/SVG/1.1/DTD/svg11.dtd">
<!-- Generated by graphviz version 2.40.1 (20161225.0304)
 -->
<!-- Title: HoTT_HIT_SetCone Pages: 1 -->
<svg width="411pt" height="210pt"
 viewBox="0.00 0.00 411.00 209.50" xmlns="http://www.w3.org/2000/svg" xmlns:xlink="http://www.w3.org/1999/xlink">
<g id="graph0" class="graph" transform="scale(1 1) rotate(0) translate(4 205.5)">
<title>HoTT_HIT_SetCone</title>
<polygon fill="#ffffff" stroke="transparent" points="-4,4 -4,-205.5 407,-205.5 407,4 -4,4"/>
<g id="clust1" class="cluster">
<title>cluster_SetCone</title>
<polygon fill="#ffffc3" stroke="#000000" points="8,-9.0056 8,-192.4944 395,-192.4944 395,-9.0056 8,-9.0056"/>
<text text-anchor="middle" x="46.5" y="-177.2944" font-family="Times,serif" font-size="14.00" fill="#000000">SetCone</text>
</g>
<!-- SetCone_setcone_point -->
<g id="node1" class="node">
<title>SetCone_setcone_point</title>
<g id="a_node1"><a xlink:href="SetCone.html#setcone_point" xlink:title="setcone_point">
<ellipse fill="#f070d1" stroke="#000000" cx="304" cy="-128.0056" rx="75.297" ry="18"/>
<ellipse fill="none" stroke="#000000" cx="304" cy="-128.0056" rx="79.2919" ry="22"/>
<ellipse fill="none" stroke="#000000" cx="304" cy="-128.0056" rx="83.2868" ry="26"/>
<text text-anchor="middle" x="304" y="-124.3056" font-family="Times,serif" font-size="14.00" fill="#000000">setcone_point</text>
</a>
</g>
</g>
<!-- SetCone_setcone -->
<g id="node3" class="node">
<title>SetCone_setcone</title>
<g id="a_node3"><a xlink:href="SetCone.html#setcone" xlink:title="setcone">
<ellipse fill="#f070d1" stroke="#000000" cx="206" cy="-38.0056" rx="46.5926" ry="18"/>
<text text-anchor="middle" x="206" y="-34.3056" font-family="Times,serif" font-size="14.00" fill="#000000">setcone</text>
</a>
</g>
</g>
<!-- SetCone_setcone_point&#45;&gt;SetCone_setcone -->
<g id="edge1" class="edge">
<title>SetCone_setcone_point&#45;&gt;SetCone_setcone</title>
<path fill="none" stroke="#000000" d="M276.9616,-103.1744C262.943,-90.3002 245.9006,-74.649 232.0312,-61.9118"/>
<polygon fill="#000000" stroke="#000000" points="234.0114,-58.9783 224.2786,-54.7921 229.2765,-64.134 234.0114,-58.9783"/>
</g>
<!-- SetCone_istrunc_setcone -->
<g id="node2" class="node">
<title>SetCone_istrunc_setcone</title>
<g id="a_node2"><a xlink:href="SetCone.html#istrunc_setcone" xlink:title="istrunc_setcone">
<ellipse fill="#f070d1" stroke="#000000" cx="109" cy="-128.0056" rx="85.2729" ry="18"/>
<ellipse fill="none" stroke="#000000" cx="109" cy="-128.0056" rx="89.279" ry="22"/>
<ellipse fill="none" stroke="#000000" cx="109" cy="-128.0056" rx="93.2851" ry="26"/>
<text text-anchor="middle" x="109" y="-124.3056" font-family="Times,serif" font-size="14.00" fill="#000000">istrunc_setcone</text>
</a>
</g>
</g>
<!-- SetCone_istrunc_setcone&#45;&gt;SetCone_setcone -->
<g id="edge2" class="edge">
<title>SetCone_istrunc_setcone&#45;&gt;SetCone_setcone</title>
<path fill="none" stroke="#000000" d="M136.0199,-102.9356C149.8907,-90.0658 166.6989,-74.4705 180.3657,-61.7899"/>
<polygon fill="#000000" stroke="#000000" points="183.0536,-64.0706 188.0036,-54.7032 178.2924,-58.9392 183.0536,-64.0706"/>
</g>
</g>
</svg>
