<?xml version="1.0" encoding="UTF-8" standalone="no"?>
<!DOCTYPE svg PUBLIC "-//W3C//DTD SVG 1.1//EN"
 "http://www.w3.org/Graphics/SVG/1.1/DTD/svg11.dtd">
<!-- Generated by graphviz version 2.40.1 (20161225.0304)
 -->
<!-- Title: HoTT_Diagrams_Cocone Pages: 1 -->
<svg width="2051pt" height="1030pt"
 viewBox="0.00 0.00 2051.00 1029.50" xmlns="http://www.w3.org/2000/svg" xmlns:xlink="http://www.w3.org/1999/xlink">
<g id="graph0" class="graph" transform="scale(1 1) rotate(0) translate(4 1025.5)">
<title>HoTT_Diagrams_Cocone</title>
<polygon fill="#ffffff" stroke="transparent" points="-4,4 -4,-1025.5 2047,-1025.5 2047,4 -4,4"/>
<g id="clust1" class="cluster">
<title>cluster_Cocone</title>
<polygon fill="#ffffc3" stroke="#000000" points="8,-15.868 8,-1005.632 2035,-1005.632 2035,-15.868 8,-15.868"/>
<text text-anchor="middle" x="43" y="-990.432" font-family="Times,serif" font-size="14.00" fill="#000000">Cocone</text>
</g>
<!-- Cocone_cocone_postcompose_equiv_universality -->
<g id="node1" class="node">
<title>Cocone_cocone_postcompose_equiv_universality</title>
<g id="a_node1"><a xlink:href="Cocone.html#cocone_postcompose_equiv_universality" xlink:title="cocone_postcompose_equiv_universality">
<ellipse fill="#f070d1" stroke="#000000" cx="537" cy="-717.868" rx="199.5634" ry="18"/>
<ellipse fill="none" stroke="#000000" cx="537" cy="-717.868" rx="203.564" ry="22"/>
<ellipse fill="none" stroke="#000000" cx="537" cy="-717.868" rx="207.5646" ry="26"/>
<text text-anchor="middle" x="537" y="-714.168" font-family="Times,serif" font-size="14.00" fill="#000000">cocone_postcompose_equiv_universality</text>
</a>
</g>
</g>
<!-- Cocone_cocone_postcompose_comp -->
<g id="node9" class="node">
<title>Cocone_cocone_postcompose_comp</title>
<g id="a_node9"><a xlink:href="Cocone.html#cocone_postcompose_comp" xlink:title="cocone_postcompose_comp">
<ellipse fill="#f070d1" stroke="#000000" cx="474" cy="-558.868" rx="139.9756" ry="18"/>
<text text-anchor="middle" x="474" y="-555.168" font-family="Times,serif" font-size="14.00" fill="#000000">cocone_postcompose_comp</text>
</a>
</g>
</g>
<!-- Cocone_cocone_postcompose_equiv_universality&#45;&gt;Cocone_cocone_postcompose_comp -->
<g id="edge1" class="edge">
<title>Cocone_cocone_postcompose_equiv_universality&#45;&gt;Cocone_cocone_postcompose_comp</title>
<path fill="none" stroke="#000000" d="M526.5968,-691.6123C515.1047,-662.6084 496.6791,-616.1058 484.9663,-586.5447"/>
<polygon fill="#000000" stroke="#000000" points="488.2087,-585.2264 481.2711,-577.2189 481.7009,-587.805 488.2087,-585.2264"/>
</g>
<!-- Cocone_Build_UniversalCocone -->
<g id="node16" class="node">
<title>Cocone_Build_UniversalCocone</title>
<g id="a_node16"><a xlink:href="Cocone.html#Build_UniversalCocone" xlink:title="Build_UniversalCocone">
<ellipse fill="#7faaff" stroke="#000000" cx="751" cy="-558.868" rx="119.6788" ry="18"/>
<text text-anchor="middle" x="751" y="-555.168" font-family="Times,serif" font-size="14.00" fill="#000000">Build_UniversalCocone</text>
</a>
</g>
</g>
<!-- Cocone_cocone_postcompose_equiv_universality&#45;&gt;Cocone_Build_UniversalCocone -->
<g id="edge2" class="edge">
<title>Cocone_cocone_postcompose_equiv_universality&#45;&gt;Cocone_Build_UniversalCocone</title>
<path fill="none" stroke="#000000" d="M571.8591,-691.968C612.4892,-661.7802 679.0959,-612.292 718.6286,-582.9196"/>
<polygon fill="#000000" stroke="#000000" points="721.1711,-585.3909 727.1107,-576.6175 716.9964,-579.772 721.1711,-585.3909"/>
</g>
<!-- Cocone_UniversalCocone -->
<g id="node17" class="node">
<title>Cocone_UniversalCocone</title>
<g id="a_node17"><a xlink:href="Cocone.html#UniversalCocone" xlink:title="UniversalCocone">
<ellipse fill="#e2cdfa" stroke="#000000" cx="979" cy="-558.868" rx="90.1842" ry="18"/>
<text text-anchor="middle" x="979" y="-555.168" font-family="Times,serif" font-size="14.00" fill="#000000">UniversalCocone</text>
</a>
</g>
</g>
<!-- Cocone_cocone_postcompose_equiv_universality&#45;&gt;Cocone_UniversalCocone -->
<g id="edge3" class="edge">
<title>Cocone_cocone_postcompose_equiv_universality&#45;&gt;Cocone_UniversalCocone</title>
<path fill="none" stroke="#000000" d="M605.5775,-693.1987C693.8875,-661.4311 845.5067,-606.8893 925.6864,-578.0464"/>
<polygon fill="#000000" stroke="#000000" points="926.8762,-581.338 935.1012,-574.6596 924.5067,-574.7512 926.8762,-581.338"/>
</g>
<!-- Cocone_cocone_precompose_equiv_universality -->
<g id="node2" class="node">
<title>Cocone_cocone_precompose_equiv_universality</title>
<g id="a_node2"><a xlink:href="Cocone.html#cocone_precompose_equiv_universality" xlink:title="cocone_precompose_equiv_universality">
<ellipse fill="#f070d1" stroke="#000000" cx="1640" cy="-892.868" rx="194.9661" ry="18"/>
<ellipse fill="none" stroke="#000000" cx="1640" cy="-892.868" rx="198.9657" ry="22"/>
<ellipse fill="none" stroke="#000000" cx="1640" cy="-892.868" rx="202.9654" ry="26"/>
<text text-anchor="middle" x="1640" y="-889.168" font-family="Times,serif" font-size="14.00" fill="#000000">cocone_precompose_equiv_universality</text>
</a>
</g>
</g>
<!-- Cocone_cocone_precompose_equiv -->
<g id="node4" class="node">
<title>Cocone_cocone_precompose_equiv</title>
<g id="a_node4"><a xlink:href="Cocone.html#cocone_precompose_equiv" xlink:title="cocone_precompose_equiv">
<ellipse fill="#f070d1" stroke="#000000" cx="1887" cy="-717.868" rx="135.3763" ry="18"/>
<text text-anchor="middle" x="1887" y="-714.168" font-family="Times,serif" font-size="14.00" fill="#000000">cocone_precompose_equiv</text>
</a>
</g>
</g>
<!-- Cocone_cocone_precompose_equiv_universality&#45;&gt;Cocone_cocone_precompose_equiv -->
<g id="edge4" class="edge">
<title>Cocone_cocone_precompose_equiv_universality&#45;&gt;Cocone_cocone_precompose_equiv</title>
<path fill="none" stroke="#000000" d="M1676.1804,-867.234C1723.9897,-833.3611 1807.5434,-774.1631 1853.8068,-741.3854"/>
<polygon fill="#000000" stroke="#000000" points="1855.858,-744.2216 1861.9942,-735.5846 1851.8112,-738.5099 1855.858,-744.2216"/>
</g>
<!-- Cocone_cocone_precompose_postcompose -->
<g id="node5" class="node">
<title>Cocone_cocone_precompose_postcompose</title>
<g id="a_node5"><a xlink:href="Cocone.html#cocone_precompose_postcompose" xlink:title="cocone_precompose_postcompose">
<ellipse fill="#f070d1" stroke="#000000" cx="1258" cy="-558.868" rx="170.8697" ry="18"/>
<text text-anchor="middle" x="1258" y="-555.168" font-family="Times,serif" font-size="14.00" fill="#000000">cocone_precompose_postcompose</text>
</a>
</g>
</g>
<!-- Cocone_cocone_precompose_equiv_universality&#45;&gt;Cocone_cocone_precompose_postcompose -->
<g id="edge5" class="edge">
<title>Cocone_cocone_precompose_equiv_universality&#45;&gt;Cocone_cocone_precompose_postcompose</title>
<path fill="none" stroke="#000000" d="M1666.2365,-866.9453C1703.9803,-826.4717 1764.7113,-747.1823 1723,-691.868 1680.3925,-635.3652 1492.2973,-595.6087 1368.7758,-575.0419"/>
<polygon fill="#000000" stroke="#000000" points="1369.3226,-571.5849 1358.8867,-573.4132 1368.185,-578.4918 1369.3226,-571.5849"/>
</g>
<!-- Cocone_cocone_precompose_equiv_universality&#45;&gt;Cocone_Build_UniversalCocone -->
<g id="edge6" class="edge">
<title>Cocone_cocone_precompose_equiv_universality&#45;&gt;Cocone_Build_UniversalCocone</title>
<path fill="none" stroke="#000000" d="M1444.7765,-885.593C1218.1146,-872.8062 863.7902,-837.9522 774,-743.868 753.1064,-721.9751 750.4648,-633.3463 750.5586,-587.1653"/>
<polygon fill="#000000" stroke="#000000" points="754.0599,-586.956 750.6258,-576.9332 747.0601,-586.9099 754.0599,-586.956"/>
</g>
<!-- Cocone_cocone_precompose_equiv_universality&#45;&gt;Cocone_UniversalCocone -->
<g id="edge7" class="edge">
<title>Cocone_cocone_precompose_equiv_universality&#45;&gt;Cocone_UniversalCocone</title>
<path fill="none" stroke="#000000" d="M1624.0033,-866.8117C1606.3754,-837.5235 1577.7717,-788.2538 1557,-743.868 1546.5045,-721.4407 1555.6354,-708.1731 1537,-691.868 1500.7007,-660.1078 1199.7975,-600.2527 1055.5504,-573.0116"/>
<polygon fill="#000000" stroke="#000000" points="1055.9162,-569.519 1045.4412,-571.1074 1054.6205,-576.398 1055.9162,-569.519"/>
</g>
<!-- Cocone_cocone_postcompose_equiv -->
<g id="node3" class="node">
<title>Cocone_cocone_postcompose_equiv</title>
<g id="a_node3"><a xlink:href="Cocone.html#cocone_postcompose_equiv" xlink:title="cocone_postcompose_equiv">
<ellipse fill="#f070d1" stroke="#000000" cx="164" cy="-717.868" rx="139.9627" ry="18"/>
<ellipse fill="none" stroke="#000000" cx="164" cy="-717.868" rx="143.9691" ry="22"/>
<ellipse fill="none" stroke="#000000" cx="164" cy="-717.868" rx="147.9756" ry="26"/>
<text text-anchor="middle" x="164" y="-714.168" font-family="Times,serif" font-size="14.00" fill="#000000">cocone_postcompose_equiv</text>
</a>
</g>
</g>
<!-- Cocone_cocone_postcompose_equiv&#45;&gt;Cocone_cocone_postcompose_comp -->
<g id="edge8" class="edge">
<title>Cocone_cocone_postcompose_equiv&#45;&gt;Cocone_cocone_postcompose_comp</title>
<path fill="none" stroke="#000000" d="M212.0974,-693.1987C271.8642,-662.5441 372.9767,-610.6832 430.517,-581.1705"/>
<polygon fill="#000000" stroke="#000000" points="432.4065,-584.135 439.7071,-576.4569 429.2119,-577.9065 432.4065,-584.135"/>
</g>
<!-- Cocone_cocone_postcompose_identity -->
<g id="node10" class="node">
<title>Cocone_cocone_postcompose_identity</title>
<g id="a_node10"><a xlink:href="Cocone.html#cocone_postcompose_identity" xlink:title="cocone_postcompose_identity">
<ellipse fill="#f070d1" stroke="#000000" cx="166" cy="-558.868" rx="150.2735" ry="18"/>
<text text-anchor="middle" x="166" y="-555.168" font-family="Times,serif" font-size="14.00" fill="#000000">cocone_postcompose_identity</text>
</a>
</g>
</g>
<!-- Cocone_cocone_postcompose_equiv&#45;&gt;Cocone_cocone_postcompose_identity -->
<g id="edge9" class="edge">
<title>Cocone_cocone_postcompose_equiv&#45;&gt;Cocone_cocone_postcompose_identity</title>
<path fill="none" stroke="#000000" d="M164.3303,-691.6123C164.6919,-662.8606 165.2699,-616.9132 165.6421,-587.3197"/>
<polygon fill="#000000" stroke="#000000" points="169.143,-587.2621 165.7692,-577.2189 162.1436,-587.174 169.143,-587.2621"/>
</g>
<!-- Cocone_cocone_precompose_comp -->
<g id="node6" class="node">
<title>Cocone_cocone_precompose_comp</title>
<g id="a_node6"><a xlink:href="Cocone.html#cocone_precompose_comp" xlink:title="cocone_precompose_comp">
<ellipse fill="#f070d1" stroke="#000000" cx="1892" cy="-558.868" rx="135.3763" ry="18"/>
<text text-anchor="middle" x="1892" y="-555.168" font-family="Times,serif" font-size="14.00" fill="#000000">cocone_precompose_comp</text>
</a>
</g>
</g>
<!-- Cocone_cocone_precompose_equiv&#45;&gt;Cocone_cocone_precompose_comp -->
<g id="edge10" class="edge">
<title>Cocone_cocone_precompose_equiv&#45;&gt;Cocone_cocone_precompose_comp</title>
<path fill="none" stroke="#000000" d="M1887.5736,-699.6286C1888.4401,-672.0731 1890.0901,-619.6029 1891.1125,-587.0906"/>
<polygon fill="#000000" stroke="#000000" points="1894.617,-586.9997 1891.4331,-576.8946 1887.6204,-586.7796 1894.617,-586.9997"/>
</g>
<!-- Cocone_cocone_precompose_identity -->
<g id="node7" class="node">
<title>Cocone_cocone_precompose_identity</title>
<g id="a_node7"><a xlink:href="Cocone.html#cocone_precompose_identity" xlink:title="cocone_precompose_identity">
<ellipse fill="#f070d1" stroke="#000000" cx="1593" cy="-558.868" rx="145.6742" ry="18"/>
<text text-anchor="middle" x="1593" y="-555.168" font-family="Times,serif" font-size="14.00" fill="#000000">cocone_precompose_identity</text>
</a>
</g>
</g>
<!-- Cocone_cocone_precompose_equiv&#45;&gt;Cocone_cocone_precompose_identity -->
<g id="edge11" class="edge">
<title>Cocone_cocone_precompose_equiv&#45;&gt;Cocone_cocone_precompose_identity</title>
<path fill="none" stroke="#000000" d="M1854.4135,-700.2447C1800.7705,-671.2336 1693.9304,-613.4528 1634.7978,-581.4729"/>
<polygon fill="#000000" stroke="#000000" points="1636.1935,-578.2487 1625.7324,-576.5702 1632.8635,-584.4059 1636.1935,-578.2487"/>
</g>
<!-- Cocone_cocone_precompose -->
<g id="node8" class="node">
<title>Cocone_cocone_precompose</title>
<g id="a_node8"><a xlink:href="Cocone.html#cocone_precompose" xlink:title="cocone_precompose">
<ellipse fill="#f070d1" stroke="#000000" cx="1627" cy="-400.868" rx="104.7816" ry="18"/>
<text text-anchor="middle" x="1627" y="-397.168" font-family="Times,serif" font-size="14.00" fill="#000000">cocone_precompose</text>
</a>
</g>
</g>
<!-- Cocone_cocone_precompose_postcompose&#45;&gt;Cocone_cocone_precompose -->
<g id="edge12" class="edge">
<title>Cocone_cocone_precompose_postcompose&#45;&gt;Cocone_cocone_precompose</title>
<path fill="none" stroke="#000000" d="M1298.8993,-541.3555C1367.4095,-512.0205 1505.0536,-453.0835 1578.3945,-421.6801"/>
<polygon fill="#000000" stroke="#000000" points="1580.0571,-424.7756 1587.8721,-417.6219 1577.3017,-418.3407 1580.0571,-424.7756"/>
</g>
<!-- Cocone_cocone_postcompose -->
<g id="node18" class="node">
<title>Cocone_cocone_postcompose</title>
<g id="a_node18"><a xlink:href="Cocone.html#cocone_postcompose" xlink:title="cocone_postcompose">
<ellipse fill="#f070d1" stroke="#000000" cx="751" cy="-400.868" rx="109.381" ry="18"/>
<text text-anchor="middle" x="751" y="-397.168" font-family="Times,serif" font-size="14.00" fill="#000000">cocone_postcompose</text>
</a>
</g>
</g>
<!-- Cocone_cocone_precompose_postcompose&#45;&gt;Cocone_cocone_postcompose -->
<g id="edge13" class="edge">
<title>Cocone_cocone_precompose_postcompose&#45;&gt;Cocone_cocone_postcompose</title>
<path fill="none" stroke="#000000" d="M1203.2604,-541.8091C1107.7331,-512.0392 911.2915,-450.8207 811.7217,-419.7911"/>
<polygon fill="#000000" stroke="#000000" points="812.6929,-416.4278 802.1043,-416.794 810.6101,-423.1108 812.6929,-416.4278"/>
</g>
<!-- Cocone_path_cocone -->
<g id="node19" class="node">
<title>Cocone_path_cocone</title>
<g id="a_node19"><a xlink:href="Cocone.html#path_cocone" xlink:title="path_cocone">
<ellipse fill="#f070d1" stroke="#000000" cx="981" cy="-400.868" rx="69.5877" ry="18"/>
<text text-anchor="middle" x="981" y="-397.168" font-family="Times,serif" font-size="14.00" fill="#000000">path_cocone</text>
</a>
</g>
</g>
<!-- Cocone_cocone_precompose_postcompose&#45;&gt;Cocone_path_cocone -->
<g id="edge14" class="edge">
<title>Cocone_cocone_precompose_postcompose&#45;&gt;Cocone_path_cocone</title>
<path fill="none" stroke="#000000" d="M1226.763,-541.0505C1175.5643,-511.8469 1073.9777,-453.9022 1018.7998,-422.4289"/>
<polygon fill="#000000" stroke="#000000" points="1020.4532,-419.3426 1010.0327,-417.4282 1016.9849,-425.423 1020.4532,-419.3426"/>
</g>
<!-- Cocone_cocone_precompose_comp&#45;&gt;Cocone_cocone_precompose -->
<g id="edge15" class="edge">
<title>Cocone_cocone_precompose_comp&#45;&gt;Cocone_cocone_precompose</title>
<path fill="none" stroke="#000000" d="M1862.3725,-541.2033C1813.984,-512.3528 1718.0644,-455.163 1664.8274,-423.4216"/>
<polygon fill="#000000" stroke="#000000" points="1666.4155,-420.2937 1656.0339,-418.1787 1662.8307,-426.3061 1666.4155,-420.2937"/>
</g>
<!-- Cocone_cocone_precompose_comp&#45;&gt;Cocone_path_cocone -->
<g id="edge16" class="edge">
<title>Cocone_cocone_precompose_comp&#45;&gt;Cocone_path_cocone</title>
<path fill="none" stroke="#000000" d="M1799.5519,-545.6579C1650.2157,-523.8607 1346.8738,-477.6866 1092,-426.868 1075.4436,-423.5668 1057.5973,-419.5791 1041.1586,-415.7288"/>
<polygon fill="#000000" stroke="#000000" points="1041.6664,-412.2524 1031.1293,-413.3565 1040.0551,-419.0644 1041.6664,-412.2524"/>
</g>
<!-- Cocone_cocone_precompose_identity&#45;&gt;Cocone_cocone_precompose -->
<g id="edge17" class="edge">
<title>Cocone_cocone_precompose_identity&#45;&gt;Cocone_cocone_precompose</title>
<path fill="none" stroke="#000000" d="M1596.9002,-540.7434C1602.7613,-513.5067 1613.8934,-461.7749 1620.8537,-429.4303"/>
<polygon fill="#000000" stroke="#000000" points="1624.3584,-429.7804 1623.0405,-419.2679 1617.515,-428.3077 1624.3584,-429.7804"/>
</g>
<!-- Cocone_cocone_precompose_identity&#45;&gt;Cocone_path_cocone -->
<g id="edge18" class="edge">
<title>Cocone_cocone_precompose_identity&#45;&gt;Cocone_path_cocone</title>
<path fill="none" stroke="#000000" d="M1530.0961,-542.6281C1411.3939,-511.9827 1155.9171,-446.0263 1040.159,-416.141"/>
<polygon fill="#000000" stroke="#000000" points="1040.9578,-412.7326 1030.4003,-413.6216 1039.2079,-419.5103 1040.9578,-412.7326"/>
</g>
<!-- Cocone_legs_comm -->
<g id="node22" class="node">
<title>Cocone_legs_comm</title>
<g id="a_node22"><a xlink:href="Cocone.html#legs_comm" xlink:title="legs_comm">
<ellipse fill="#f070d1" stroke="#000000" cx="1773" cy="-225.868" rx="63.0888" ry="18"/>
<text text-anchor="middle" x="1773" y="-222.168" font-family="Times,serif" font-size="14.00" fill="#000000">legs_comm</text>
</a>
</g>
</g>
<!-- Cocone_cocone_precompose&#45;&gt;Cocone_legs_comm -->
<g id="edge19" class="edge">
<title>Cocone_cocone_precompose&#45;&gt;Cocone_legs_comm</title>
<path fill="none" stroke="#000000" d="M1642.0747,-382.799C1668.1102,-351.592 1721.5812,-287.5 1751.5076,-251.6295"/>
<polygon fill="#000000" stroke="#000000" points="1754.5061,-253.4988 1758.2248,-243.578 1749.1311,-249.0144 1754.5061,-253.4988"/>
</g>
<!-- Cocone_legs -->
<g id="node23" class="node">
<title>Cocone_legs</title>
<g id="a_node23"><a xlink:href="Cocone.html#legs" xlink:title="legs">
<ellipse fill="#f070d1" stroke="#000000" cx="1662" cy="-225.868" rx="29.795" ry="18"/>
<text text-anchor="middle" x="1662" y="-222.168" font-family="Times,serif" font-size="14.00" fill="#000000">legs</text>
</a>
</g>
</g>
<!-- Cocone_cocone_precompose&#45;&gt;Cocone_legs -->
<g id="edge20" class="edge">
<title>Cocone_cocone_precompose&#45;&gt;Cocone_legs</title>
<path fill="none" stroke="#000000" d="M1630.6138,-382.799C1636.7339,-352.1982 1649.1781,-289.9776 1656.4233,-253.7513"/>
<polygon fill="#000000" stroke="#000000" points="1659.8767,-254.3309 1658.4059,-243.8386 1653.0126,-252.958 1659.8767,-254.3309"/>
</g>
<!-- Cocone_Build_Cocone -->
<g id="node28" class="node">
<title>Cocone_Build_Cocone</title>
<g id="a_node28"><a xlink:href="Cocone.html#Build_Cocone" xlink:title="Build_Cocone">
<ellipse fill="#7faaff" stroke="#000000" cx="1014" cy="-67.868" rx="74.9875" ry="18"/>
<text text-anchor="middle" x="1014" y="-64.168" font-family="Times,serif" font-size="14.00" fill="#000000">Build_Cocone</text>
</a>
</g>
</g>
<!-- Cocone_cocone_precompose&#45;&gt;Cocone_Build_Cocone -->
<g id="edge21" class="edge">
<title>Cocone_cocone_precompose&#45;&gt;Cocone_Build_Cocone</title>
<path fill="none" stroke="#000000" d="M1528.6425,-394.5755C1355.1218,-381.2021 1005.9387,-343.3384 932,-251.868 892.078,-202.48 950.0465,-130.5802 987.1213,-92.9527"/>
<polygon fill="#000000" stroke="#000000" points="990.0368,-94.9907 994.6728,-85.464 985.1077,-90.0203 990.0368,-94.9907"/>
</g>
<!-- Cocone_cocone_postcompose_comp&#45;&gt;Cocone_cocone_postcompose -->
<g id="edge22" class="edge">
<title>Cocone_cocone_postcompose_comp&#45;&gt;Cocone_cocone_postcompose</title>
<path fill="none" stroke="#000000" d="M504.9691,-541.2033C555.6533,-512.2932 656.2264,-454.9265 711.8041,-423.2252"/>
<polygon fill="#000000" stroke="#000000" points="713.6992,-426.1736 720.6514,-418.1787 710.2309,-420.0932 713.6992,-426.1736"/>
</g>
<!-- Cocone_cocone_postcompose_comp&#45;&gt;Cocone_path_cocone -->
<g id="edge23" class="edge">
<title>Cocone_cocone_postcompose_comp&#45;&gt;Cocone_path_cocone</title>
<path fill="none" stroke="#000000" d="M527.7779,-542.1088C624.9776,-511.8178 828.863,-448.2795 926.5513,-417.8362"/>
<polygon fill="#000000" stroke="#000000" points="927.7259,-421.1362 936.2317,-414.8194 925.6432,-414.4532 927.7259,-421.1362"/>
</g>
<!-- Cocone_cocone_postcompose_identity&#45;&gt;Cocone_cocone_postcompose -->
<g id="edge24" class="edge">
<title>Cocone_cocone_postcompose_identity&#45;&gt;Cocone_cocone_postcompose</title>
<path fill="none" stroke="#000000" d="M226.9497,-542.4063C337.4216,-512.5695 569.8713,-449.7882 684.3765,-418.862"/>
<polygon fill="#000000" stroke="#000000" points="685.3406,-422.2271 694.082,-416.2407 683.5153,-415.4692 685.3406,-422.2271"/>
</g>
<!-- Cocone_cocone_postcompose_identity&#45;&gt;Cocone_path_cocone -->
<g id="edge25" class="edge">
<title>Cocone_cocone_postcompose_identity&#45;&gt;Cocone_path_cocone</title>
<path fill="none" stroke="#000000" d="M251.4505,-544.0315C384.0045,-520.7444 647.0483,-473.4458 869,-426.868 885.5827,-423.388 903.482,-419.3573 920.0017,-415.5237"/>
<polygon fill="#000000" stroke="#000000" points="921.1432,-418.8513 930.0852,-413.1688 919.5512,-412.0348 921.1432,-418.8513"/>
</g>
<!-- Cocone_is_universal -->
<g id="node11" class="node">
<title>Cocone_is_universal</title>
<g id="a_node11"><a xlink:href="Cocone.html#is_universal" xlink:title="is_universal">
<ellipse fill="#f070d1" stroke="#000000" cx="1640" cy="-717.868" rx="66.1109" ry="18"/>
<ellipse fill="none" stroke="#000000" cx="1640" cy="-717.868" rx="70.0999" ry="22"/>
<ellipse fill="none" stroke="#000000" cx="1640" cy="-717.868" rx="74.0888" ry="26"/>
<text text-anchor="middle" x="1640" y="-714.168" font-family="Times,serif" font-size="14.00" fill="#000000">is_universal</text>
</a>
</g>
</g>
<!-- Cocone_is_universal&#45;&gt;Cocone_UniversalCocone -->
<g id="edge26" class="edge">
<title>Cocone_is_universal&#45;&gt;Cocone_UniversalCocone</title>
<path fill="none" stroke="#000000" d="M1583.8049,-700.7262C1573.2675,-697.6651 1562.3211,-694.588 1552,-691.868 1372.924,-644.675 1160.0344,-597.6058 1051.0897,-574.1649"/>
<polygon fill="#000000" stroke="#000000" points="1051.7065,-570.7176 1041.1945,-572.0393 1050.2364,-577.5615 1051.7065,-570.7176"/>
</g>
<!-- Cocone_UniversalCocone_sind -->
<g id="node12" class="node">
<title>Cocone_UniversalCocone_sind</title>
<g id="a_node12"><a xlink:href="Cocone.html#UniversalCocone_sind" xlink:title="UniversalCocone_sind">
<ellipse fill="#f070d1" stroke="#000000" cx="1152" cy="-717.868" rx="114.287" ry="18"/>
<ellipse fill="none" stroke="#000000" cx="1152" cy="-717.868" rx="118.2834" ry="22"/>
<ellipse fill="none" stroke="#000000" cx="1152" cy="-717.868" rx="122.2798" ry="26"/>
<text text-anchor="middle" x="1152" y="-714.168" font-family="Times,serif" font-size="14.00" fill="#000000">UniversalCocone_sind</text>
</a>
</g>
</g>
<!-- Cocone_UniversalCocone_sind&#45;&gt;Cocone_Build_UniversalCocone -->
<g id="edge27" class="edge">
<title>Cocone_UniversalCocone_sind&#45;&gt;Cocone_Build_UniversalCocone</title>
<path fill="none" stroke="#000000" d="M1094.1194,-694.9178C1016.0718,-663.9713 878.2452,-609.3218 803.2194,-579.5734"/>
<polygon fill="#000000" stroke="#000000" points="804.0908,-576.1539 793.5048,-575.7215 801.5106,-582.661 804.0908,-576.1539"/>
</g>
<!-- Cocone_UniversalCocone_sind&#45;&gt;Cocone_UniversalCocone -->
<g id="edge28" class="edge">
<title>Cocone_UniversalCocone_sind&#45;&gt;Cocone_UniversalCocone</title>
<path fill="none" stroke="#000000" d="M1124.2046,-692.3219C1091.6254,-662.3791 1038.0098,-613.1024 1005.846,-583.5415"/>
<polygon fill="#000000" stroke="#000000" points="1007.888,-580.6645 998.1568,-576.4745 1003.1511,-585.8184 1007.888,-580.6645"/>
</g>
<!-- Cocone_UniversalCocone_rec -->
<g id="node13" class="node">
<title>Cocone_UniversalCocone_rec</title>
<g id="a_node13"><a xlink:href="Cocone.html#UniversalCocone_rec" xlink:title="UniversalCocone_rec">
<ellipse fill="#f070d1" stroke="#000000" cx="897" cy="-892.868" rx="110.4811" ry="18"/>
<ellipse fill="none" stroke="#000000" cx="897" cy="-892.868" rx="114.4807" ry="22"/>
<ellipse fill="none" stroke="#000000" cx="897" cy="-892.868" rx="118.4804" ry="26"/>
<text text-anchor="middle" x="897" y="-889.168" font-family="Times,serif" font-size="14.00" fill="#000000">UniversalCocone_rec</text>
</a>
</g>
</g>
<!-- Cocone_UniversalCocone_rect -->
<g id="node15" class="node">
<title>Cocone_UniversalCocone_rect</title>
<g id="a_node15"><a xlink:href="Cocone.html#UniversalCocone_rect" xlink:title="UniversalCocone_rect">
<ellipse fill="#f070d1" stroke="#000000" cx="897" cy="-717.868" rx="114.2798" ry="18"/>
<text text-anchor="middle" x="897" y="-714.168" font-family="Times,serif" font-size="14.00" fill="#000000">UniversalCocone_rect</text>
</a>
</g>
</g>
<!-- Cocone_UniversalCocone_rec&#45;&gt;Cocone_UniversalCocone_rect -->
<g id="edge29" class="edge">
<title>Cocone_UniversalCocone_rec&#45;&gt;Cocone_UniversalCocone_rect</title>
<path fill="none" stroke="#000000" d="M897,-866.6687C897,-834.3183 897,-779.5016 897,-746.1991"/>
<polygon fill="#000000" stroke="#000000" points="900.5001,-746.1983 897,-736.1984 893.5001,-746.1984 900.5001,-746.1983"/>
</g>
<!-- Cocone_UniversalCocone_ind -->
<g id="node14" class="node">
<title>Cocone_UniversalCocone_ind</title>
<g id="a_node14"><a xlink:href="Cocone.html#UniversalCocone_ind" xlink:title="UniversalCocone_ind">
<ellipse fill="#7fffd4" stroke="#000000" cx="1410" cy="-717.868" rx="109.6916" ry="18"/>
<ellipse fill="none" stroke="#000000" cx="1410" cy="-717.868" rx="113.6861" ry="22"/>
<ellipse fill="none" stroke="#000000" cx="1410" cy="-717.868" rx="117.6807" ry="26"/>
<text text-anchor="middle" x="1410" y="-714.168" font-family="Times,serif" font-size="14.00" fill="#000000">UniversalCocone_ind</text>
</a>
</g>
</g>
<!-- Cocone_UniversalCocone_ind&#45;&gt;Cocone_Build_UniversalCocone -->
<g id="edge30" class="edge">
<title>Cocone_UniversalCocone_ind&#45;&gt;Cocone_Build_UniversalCocone</title>
<path fill="none" stroke="#000000" d="M1330.1811,-698.6097C1201.2293,-667.4969 948.9612,-606.631 824.3054,-576.5547"/>
<polygon fill="#000000" stroke="#000000" points="825.0057,-573.1233 814.4637,-574.1801 823.3638,-579.928 825.0057,-573.1233"/>
</g>
<!-- Cocone_UniversalCocone_ind&#45;&gt;Cocone_UniversalCocone -->
<g id="edge31" class="edge">
<title>Cocone_UniversalCocone_ind&#45;&gt;Cocone_UniversalCocone</title>
<path fill="none" stroke="#000000" d="M1349.1624,-695.4244C1264.2078,-664.0838 1111.4759,-607.7396 1031.3378,-578.1759"/>
<polygon fill="#000000" stroke="#000000" points="1032.5276,-574.8843 1021.9342,-574.7068 1030.1047,-581.4516 1032.5276,-574.8843"/>
</g>
<!-- Cocone_UniversalCocone_rect&#45;&gt;Cocone_Build_UniversalCocone -->
<g id="edge32" class="edge">
<title>Cocone_UniversalCocone_rect&#45;&gt;Cocone_Build_UniversalCocone</title>
<path fill="none" stroke="#000000" d="M880.5357,-699.9377C854.686,-671.7863 804.4666,-617.0952 774.7219,-584.7021"/>
<polygon fill="#000000" stroke="#000000" points="776.9697,-581.9752 767.6281,-576.9766 771.8136,-586.7097 776.9697,-581.9752"/>
</g>
<!-- Cocone_UniversalCocone_rect&#45;&gt;Cocone_UniversalCocone -->
<g id="edge33" class="edge">
<title>Cocone_UniversalCocone_rect&#45;&gt;Cocone_UniversalCocone</title>
<path fill="none" stroke="#000000" d="M906.4064,-699.6286C920.8029,-671.7136 948.3857,-618.2299 965.0958,-585.8286"/>
<polygon fill="#000000" stroke="#000000" points="968.2303,-587.3865 969.7033,-576.8946 962.0089,-584.178 968.2303,-587.3865"/>
</g>
<!-- Cocone_Build_UniversalCocone&#45;&gt;Cocone_cocone_postcompose -->
<g id="edge34" class="edge">
<title>Cocone_Build_UniversalCocone&#45;&gt;Cocone_cocone_postcompose</title>
<path fill="none" stroke="#000000" d="M751,-540.7434C751,-513.5067 751,-461.7749 751,-429.4303"/>
<polygon fill="#000000" stroke="#000000" points="754.5001,-429.2678 751,-419.2679 747.5001,-429.2679 754.5001,-429.2678"/>
</g>
<!-- Cocone_UniversalCocone&#45;&gt;Cocone_cocone_postcompose -->
<g id="edge35" class="edge">
<title>Cocone_UniversalCocone&#45;&gt;Cocone_cocone_postcompose</title>
<path fill="none" stroke="#000000" d="M953.7289,-541.3555C912.5561,-512.8235 830.9731,-456.2879 784.8416,-424.3196"/>
<polygon fill="#000000" stroke="#000000" points="786.5972,-421.278 776.3843,-418.4588 782.6101,-427.0315 786.5972,-421.278"/>
</g>
<!-- Cocone_cocone_postcompose&#45;&gt;Cocone_Build_Cocone -->
<g id="edge36" class="edge">
<title>Cocone_cocone_postcompose&#45;&gt;Cocone_Build_Cocone</title>
<path fill="none" stroke="#000000" d="M737.0707,-382.923C710.0555,-345.7762 656.5261,-258.9929 696,-199.868 748.8089,-120.7695 858.8105,-89.0038 934.5145,-76.289"/>
<polygon fill="#000000" stroke="#000000" points="935.1757,-79.7277 944.4956,-74.689 934.0677,-72.816 935.1757,-79.7277"/>
</g>
<!-- Cocone_Cocone -->
<g id="node29" class="node">
<title>Cocone_Cocone</title>
<g id="a_node29"><a xlink:href="Cocone.html#Cocone" xlink:title="Cocone">
<ellipse fill="#e2cdfa" stroke="#000000" cx="1427" cy="-67.868" rx="45.4919" ry="18"/>
<text text-anchor="middle" x="1427" y="-64.168" font-family="Times,serif" font-size="14.00" fill="#000000">Cocone</text>
</a>
</g>
</g>
<!-- Cocone_cocone_postcompose&#45;&gt;Cocone_Cocone -->
<g id="edge37" class="edge">
<title>Cocone_cocone_postcompose&#45;&gt;Cocone_Cocone</title>
<path fill="none" stroke="#000000" d="M826.4498,-387.835C1034.5465,-351.8686 1601.4227,-253.7451 1603,-251.868 1657.0498,-187.5455 1533.8338,-117.3125 1466.7729,-85.3994"/>
<polygon fill="#000000" stroke="#000000" points="1468.248,-82.2254 1457.7073,-81.1552 1465.2799,-88.5651 1468.248,-82.2254"/>
</g>
<!-- Cocone_path_cocone_naive -->
<g id="node20" class="node">
<title>Cocone_path_cocone_naive</title>
<g id="a_node20"><a xlink:href="Cocone.html#path_cocone_naive" xlink:title="path_cocone_naive">
<ellipse fill="#f070d1" stroke="#000000" cx="804" cy="-225.868" rx="98.5829" ry="18"/>
<text text-anchor="middle" x="804" y="-222.168" font-family="Times,serif" font-size="14.00" fill="#000000">path_cocone_naive</text>
</a>
</g>
</g>
<!-- Cocone_path_cocone&#45;&gt;Cocone_path_cocone_naive -->
<g id="edge38" class="edge">
<title>Cocone_path_cocone&#45;&gt;Cocone_path_cocone_naive</title>
<path fill="none" stroke="#000000" d="M963.3815,-383.4485C931.8704,-352.2935 865.7604,-286.9305 829.3662,-250.9475"/>
<polygon fill="#000000" stroke="#000000" points="831.6462,-248.2799 822.0743,-243.738 826.7246,-253.2577 831.6462,-248.2799"/>
</g>
<!-- Cocone_path_cocone_naive&#45;&gt;Cocone_Build_Cocone -->
<g id="edge39" class="edge">
<title>Cocone_path_cocone_naive&#45;&gt;Cocone_Build_Cocone</title>
<path fill="none" stroke="#000000" d="M827.276,-208.3555C865.2196,-179.8075 940.4249,-123.2244 982.9016,-91.2658"/>
<polygon fill="#000000" stroke="#000000" points="985.0532,-94.0271 990.9398,-85.218 980.8446,-88.4334 985.0532,-94.0271"/>
</g>
<!-- Cocone_path_cocone_naive&#45;&gt;Cocone_Cocone -->
<g id="edge40" class="edge">
<title>Cocone_path_cocone_naive&#45;&gt;Cocone_Cocone</title>
<path fill="none" stroke="#000000" d="M861.772,-211.2163C983.7285,-180.2867 1265.5216,-108.8207 1378.6788,-80.1228"/>
<polygon fill="#000000" stroke="#000000" points="1379.6218,-83.4945 1388.4545,-77.6435 1377.9009,-76.7093 1379.6218,-83.4945"/>
</g>
<!-- Cocone_issig_Cocone -->
<g id="node21" class="node">
<title>Cocone_issig_Cocone</title>
<g id="a_node21"><a xlink:href="Cocone.html#issig_Cocone" xlink:title="issig_Cocone">
<ellipse fill="#f070d1" stroke="#000000" cx="1515" cy="-225.868" rx="71.488" ry="18"/>
<ellipse fill="none" stroke="#000000" cx="1515" cy="-225.868" rx="75.4876" ry="22"/>
<ellipse fill="none" stroke="#000000" cx="1515" cy="-225.868" rx="79.4873" ry="26"/>
<text text-anchor="middle" x="1515" y="-222.168" font-family="Times,serif" font-size="14.00" fill="#000000">issig_Cocone</text>
</a>
</g>
</g>
<!-- Cocone_issig_Cocone&#45;&gt;Cocone_Build_Cocone -->
<g id="edge41" class="edge">
<title>Cocone_issig_Cocone&#45;&gt;Cocone_Build_Cocone</title>
<path fill="none" stroke="#000000" d="M1457.5289,-207.7434C1360.3432,-177.094 1164.802,-115.4263 1069.1842,-85.2713"/>
<polygon fill="#000000" stroke="#000000" points="1070.0065,-81.8608 1059.4168,-82.191 1067.9011,-88.5367 1070.0065,-81.8608"/>
</g>
<!-- Cocone_issig_Cocone&#45;&gt;Cocone_Cocone -->
<g id="edge42" class="edge">
<title>Cocone_issig_Cocone&#45;&gt;Cocone_Cocone</title>
<path fill="none" stroke="#000000" d="M1500.6654,-200.1309C1484.493,-171.0941 1458.3123,-124.0878 1441.9078,-94.6343"/>
<polygon fill="#000000" stroke="#000000" points="1444.8739,-92.7666 1436.9503,-85.7333 1438.7584,-96.1727 1444.8739,-92.7666"/>
</g>
<!-- Cocone_legs_comm&#45;&gt;Cocone_Cocone -->
<g id="edge43" class="edge">
<title>Cocone_legs_comm&#45;&gt;Cocone_Cocone</title>
<path fill="none" stroke="#000000" d="M1739.5097,-210.5747C1675.205,-181.2101 1534.7543,-117.0737 1466.2052,-85.7709"/>
<polygon fill="#000000" stroke="#000000" points="1467.5756,-82.5491 1457.0252,-81.5789 1464.6678,-88.9166 1467.5756,-82.5491"/>
</g>
<!-- Cocone_legs&#45;&gt;Cocone_Cocone -->
<g id="edge44" class="edge">
<title>Cocone_legs&#45;&gt;Cocone_Cocone</title>
<path fill="none" stroke="#000000" d="M1641.964,-212.397C1601.1277,-184.9411 1507.9828,-122.3159 1458.7903,-89.2418"/>
<polygon fill="#000000" stroke="#000000" points="1460.6773,-86.293 1450.4257,-83.618 1456.7715,-92.1021 1460.6773,-86.293"/>
</g>
<!-- Cocone_Cocone_sind -->
<g id="node24" class="node">
<title>Cocone_Cocone_sind</title>
<g id="a_node24"><a xlink:href="Cocone.html#Cocone_sind" xlink:title="Cocone_sind">
<ellipse fill="#f070d1" stroke="#000000" cx="1340" cy="-225.868" rx="69.5832" ry="18"/>
<ellipse fill="none" stroke="#000000" cx="1340" cy="-225.868" rx="73.5854" ry="22"/>
<ellipse fill="none" stroke="#000000" cx="1340" cy="-225.868" rx="77.5877" ry="26"/>
<text text-anchor="middle" x="1340" y="-222.168" font-family="Times,serif" font-size="14.00" fill="#000000">Cocone_sind</text>
</a>
</g>
</g>
<!-- Cocone_Cocone_sind&#45;&gt;Cocone_Build_Cocone -->
<g id="edge45" class="edge">
<title>Cocone_Cocone_sind&#45;&gt;Cocone_Build_Cocone</title>
<path fill="none" stroke="#000000" d="M1295.6949,-204.3949C1232.7706,-173.8979 1118.3027,-118.4196 1056.4245,-88.4295"/>
<polygon fill="#000000" stroke="#000000" points="1057.8502,-85.2311 1047.3249,-84.0193 1054.7972,-91.5303 1057.8502,-85.2311"/>
</g>
<!-- Cocone_Cocone_sind&#45;&gt;Cocone_Cocone -->
<g id="edge46" class="edge">
<title>Cocone_Cocone_sind&#45;&gt;Cocone_Cocone</title>
<path fill="none" stroke="#000000" d="M1354.1717,-200.1309C1370.1603,-171.0941 1396.0435,-124.0878 1412.2616,-94.6343"/>
<polygon fill="#000000" stroke="#000000" points="1415.4052,-96.1813 1417.1628,-85.7333 1409.2733,-92.8049 1415.4052,-96.1813"/>
</g>
<!-- Cocone_Cocone_rec -->
<g id="node25" class="node">
<title>Cocone_Cocone_rec</title>
<g id="a_node25"><a xlink:href="Cocone.html#Cocone_rec" xlink:title="Cocone_rec">
<ellipse fill="#f070d1" stroke="#000000" cx="1175" cy="-400.868" rx="65.7729" ry="18"/>
<ellipse fill="none" stroke="#000000" cx="1175" cy="-400.868" rx="69.7808" ry="22"/>
<ellipse fill="none" stroke="#000000" cx="1175" cy="-400.868" rx="73.7886" ry="26"/>
<text text-anchor="middle" x="1175" y="-397.168" font-family="Times,serif" font-size="14.00" fill="#000000">Cocone_rec</text>
</a>
</g>
</g>
<!-- Cocone_Cocone_rect -->
<g id="node27" class="node">
<title>Cocone_Cocone_rect</title>
<g id="a_node27"><a xlink:href="Cocone.html#Cocone_rect" xlink:title="Cocone_rect">
<ellipse fill="#f070d1" stroke="#000000" cx="1175" cy="-225.868" rx="69.5877" ry="18"/>
<text text-anchor="middle" x="1175" y="-222.168" font-family="Times,serif" font-size="14.00" fill="#000000">Cocone_rect</text>
</a>
</g>
</g>
<!-- Cocone_Cocone_rec&#45;&gt;Cocone_Cocone_rect -->
<g id="edge47" class="edge">
<title>Cocone_Cocone_rec&#45;&gt;Cocone_Cocone_rect</title>
<path fill="none" stroke="#000000" d="M1175,-374.6687C1175,-342.3183 1175,-287.5016 1175,-254.1991"/>
<polygon fill="#000000" stroke="#000000" points="1178.5001,-254.1983 1175,-244.1984 1171.5001,-254.1984 1178.5001,-254.1983"/>
</g>
<!-- Cocone_Cocone_ind -->
<g id="node26" class="node">
<title>Cocone_Cocone_ind</title>
<g id="a_node26"><a xlink:href="Cocone.html#Cocone_ind" xlink:title="Cocone_ind">
<ellipse fill="#7fffd4" stroke="#000000" cx="1014" cy="-225.868" rx="64.9891" ry="18"/>
<ellipse fill="none" stroke="#000000" cx="1014" cy="-225.868" rx="68.9888" ry="22"/>
<ellipse fill="none" stroke="#000000" cx="1014" cy="-225.868" rx="72.9885" ry="26"/>
<text text-anchor="middle" x="1014" y="-222.168" font-family="Times,serif" font-size="14.00" fill="#000000">Cocone_ind</text>
</a>
</g>
</g>
<!-- Cocone_Cocone_ind&#45;&gt;Cocone_Build_Cocone -->
<g id="edge48" class="edge">
<title>Cocone_Cocone_ind&#45;&gt;Cocone_Build_Cocone</title>
<path fill="none" stroke="#000000" d="M1014,-199.7775C1014,-171.2065 1014,-125.5481 1014,-96.1407"/>
<polygon fill="#000000" stroke="#000000" points="1017.5001,-96.1034 1014,-86.1035 1010.5001,-96.1035 1017.5001,-96.1034"/>
</g>
<!-- Cocone_Cocone_ind&#45;&gt;Cocone_Cocone -->
<g id="edge49" class="edge">
<title>Cocone_Cocone_ind&#45;&gt;Cocone_Cocone</title>
<path fill="none" stroke="#000000" d="M1063.8174,-206.8095C1145.9086,-175.4041 1308.141,-113.3395 1384.8816,-83.9811"/>
<polygon fill="#000000" stroke="#000000" points="1386.1568,-87.2407 1394.246,-80.3985 1383.6555,-80.7028 1386.1568,-87.2407"/>
</g>
<!-- Cocone_Cocone_rect&#45;&gt;Cocone_Build_Cocone -->
<g id="edge50" class="edge">
<title>Cocone_Cocone_rect&#45;&gt;Cocone_Build_Cocone</title>
<path fill="none" stroke="#000000" d="M1157.155,-208.3555C1128.5044,-180.2387 1072.1429,-124.9275 1039.3349,-92.7308"/>
<polygon fill="#000000" stroke="#000000" points="1041.5137,-89.9651 1031.9249,-85.4588 1036.6107,-94.9612 1041.5137,-89.9651"/>
</g>
<!-- Cocone_Cocone_rect&#45;&gt;Cocone_Cocone -->
<g id="edge51" class="edge">
<title>Cocone_Cocone_rect&#45;&gt;Cocone_Cocone</title>
<path fill="none" stroke="#000000" d="M1201.9684,-208.9592C1248.4428,-179.8205 1343.4753,-120.2366 1393.887,-88.6293"/>
<polygon fill="#000000" stroke="#000000" points="1395.8515,-91.5287 1402.4647,-83.2512 1392.133,-85.598 1395.8515,-91.5287"/>
</g>
</g>
</svg>
