<?xml version="1.0" encoding="UTF-8" standalone="no"?>
<!DOCTYPE svg PUBLIC "-//W3C//DTD SVG 1.1//EN"
 "http://www.w3.org/Graphics/SVG/1.1/DTD/svg11.dtd">
<!-- Generated by graphviz version 2.40.1 (20161225.0304)
 -->
<!-- Title: HoTT_Classes_implementations_ne_list Pages: 1 -->
<svg width="1628pt" height="818pt"
 viewBox="0.00 0.00 1628.00 818.00" xmlns="http://www.w3.org/2000/svg" xmlns:xlink="http://www.w3.org/1999/xlink">
<g id="graph0" class="graph" transform="scale(1 1) rotate(0) translate(4 814)">
<title>HoTT_Classes_implementations_ne_list</title>
<polygon fill="#ffffff" stroke="transparent" points="-4,4 -4,-814 1624,-814 1624,4 -4,4"/>
<g id="clust1" class="cluster">
<title>cluster_ne_list</title>
<polygon fill="#ffffc3" stroke="#000000" points="8,-16.4467 8,-793.5533 1612,-793.5533 1612,-16.4467 8,-16.4467"/>
<text text-anchor="middle" x="40" y="-778.3533" font-family="Times,serif" font-size="14.00" fill="#000000">ne_list</text>
</g>
<g id="clust2" class="cluster">
<title>cluster_ne_list_ne_list</title>
<polygon fill="#ffffa3" stroke="#000000" points="16,-32.8934 16,-729.8223 1604,-729.8223 1604,-32.8934 16,-32.8934"/>
<text text-anchor="middle" x="48" y="-714.6223" font-family="Times,serif" font-size="14.00" fill="#000000">ne_list</text>
</g>
<!-- ne_list_ne_list_zip -->
<g id="node1" class="node">
<title>ne_list_ne_list_zip</title>
<g id="a_node1"><a xlink:href="ne_list.html#ne_list.zip" xlink:title="zip">
<ellipse fill="#f070d1" stroke="#000000" cx="1561" cy="-431.4467" rx="27" ry="18"/>
<ellipse fill="none" stroke="#000000" cx="1561" cy="-431.4467" rx="31" ry="22"/>
<ellipse fill="none" stroke="#000000" cx="1561" cy="-431.4467" rx="35" ry="26"/>
<text text-anchor="middle" x="1561" y="-427.7467" font-family="Times,serif" font-size="14.00" fill="#000000">zip</text>
</a>
</g>
</g>
<!-- ne_list_ne_list_head -->
<g id="node17" class="node">
<title>ne_list_ne_list_head</title>
<g id="a_node17"><a xlink:href="ne_list.html#ne_list.head" xlink:title="head">
<ellipse fill="#f070d1" stroke="#000000" cx="909" cy="-250.4467" rx="33.2948" ry="18"/>
<text text-anchor="middle" x="909" y="-246.7467" font-family="Times,serif" font-size="14.00" fill="#000000">head</text>
</a>
</g>
</g>
<!-- ne_list_ne_list_zip&#45;&gt;ne_list_ne_list_head -->
<g id="edge1" class="edge">
<title>ne_list_ne_list_zip&#45;&gt;ne_list_ne_list_head</title>
<path fill="none" stroke="#000000" d="M1526.4279,-426.4596C1431.4907,-411.9713 1159.9461,-365.1746 951,-276.4467 946.7104,-274.6251 942.3493,-272.4053 938.1404,-270.0383"/>
<polygon fill="#000000" stroke="#000000" points="939.6341,-266.8533 929.2564,-264.7193 936.0383,-272.8592 939.6341,-266.8533"/>
</g>
<!-- ne_list_ne_list_cons -->
<g id="node25" class="node">
<title>ne_list_ne_list_cons</title>
<g id="a_node25"><a xlink:href="ne_list.html#ne_list.cons" xlink:title="cons">
<ellipse fill="#7faaff" stroke="#000000" cx="943" cy="-86.4467" rx="32.4942" ry="18"/>
<text text-anchor="middle" x="943" y="-82.7467" font-family="Times,serif" font-size="14.00" fill="#000000">cons</text>
</a>
</g>
</g>
<!-- ne_list_ne_list_zip&#45;&gt;ne_list_ne_list_cons -->
<g id="edge2" class="edge">
<title>ne_list_ne_list_zip&#45;&gt;ne_list_ne_list_cons</title>
<path fill="none" stroke="#000000" d="M1564.7525,-405.265C1569.4097,-361.6754 1571.7491,-274.1194 1525,-224.4467 1450.2276,-144.9983 1106.0979,-102.9998 985.1653,-90.499"/>
<polygon fill="#000000" stroke="#000000" points="985.4756,-87.0126 975.1723,-89.481 984.7661,-93.9766 985.4756,-87.0126"/>
</g>
<!-- ne_list_ne_list_one -->
<g id="node26" class="node">
<title>ne_list_ne_list_one</title>
<g id="a_node26"><a xlink:href="ne_list.html#ne_list.one" xlink:title="one">
<ellipse fill="#7faaff" stroke="#000000" cx="1257" cy="-86.4467" rx="27.0966" ry="18"/>
<text text-anchor="middle" x="1257" y="-82.7467" font-family="Times,serif" font-size="14.00" fill="#000000">one</text>
</a>
</g>
</g>
<!-- ne_list_ne_list_zip&#45;&gt;ne_list_ne_list_one -->
<g id="edge3" class="edge">
<title>ne_list_ne_list_zip&#45;&gt;ne_list_ne_list_one</title>
<path fill="none" stroke="#000000" d="M1572.5003,-406.7135C1589.9052,-365.2581 1617.1818,-280.7656 1580,-224.4467 1515.2871,-126.4267 1365.1049,-97.7847 1294.6998,-89.6103"/>
<polygon fill="#000000" stroke="#000000" points="1294.8289,-86.1039 1284.5102,-88.5066 1294.0751,-93.0632 1294.8289,-86.1039"/>
</g>
<!-- ne_list_ne_list_inits -->
<g id="node2" class="node">
<title>ne_list_ne_list_inits</title>
<g id="a_node2"><a xlink:href="ne_list.html#ne_list.inits" xlink:title="inits">
<ellipse fill="#f070d1" stroke="#000000" cx="262" cy="-431.4467" rx="31.355" ry="18"/>
<ellipse fill="none" stroke="#000000" cx="262" cy="-431.4467" rx="35.3752" ry="22"/>
<ellipse fill="none" stroke="#000000" cx="262" cy="-431.4467" rx="39.3955" ry="26"/>
<text text-anchor="middle" x="262" y="-427.7467" font-family="Times,serif" font-size="14.00" fill="#000000">inits</text>
</a>
</g>
</g>
<!-- ne_list_ne_list_map -->
<g id="node4" class="node">
<title>ne_list_ne_list_map</title>
<g id="a_node4"><a xlink:href="ne_list.html#ne_list.map" xlink:title="map">
<ellipse fill="#f070d1" stroke="#000000" cx="536" cy="-250.4467" rx="30.5947" ry="18"/>
<text text-anchor="middle" x="536" y="-246.7467" font-family="Times,serif" font-size="14.00" fill="#000000">map</text>
</a>
</g>
</g>
<!-- ne_list_ne_list_inits&#45;&gt;ne_list_ne_list_map -->
<g id="edge4" class="edge">
<title>ne_list_ne_list_inits&#45;&gt;ne_list_ne_list_map</title>
<path fill="none" stroke="#000000" d="M289.884,-413.1188C333.9223,-384.1585 422.2564,-326.0103 497,-276.4467 500.338,-274.2332 503.834,-271.9098 507.304,-269.6006"/>
<polygon fill="#000000" stroke="#000000" points="509.3889,-272.4172 515.7709,-263.9601 505.508,-266.5915 509.3889,-272.4172"/>
</g>
<!-- ne_list_ne_list_list_map -->
<g id="node3" class="node">
<title>ne_list_ne_list_list_map</title>
<g id="a_node3"><a xlink:href="ne_list.html#ne_list.list_map" xlink:title="list_map">
<ellipse fill="#f070d1" stroke="#000000" cx="377" cy="-431.4467" rx="50.0849" ry="18"/>
<ellipse fill="none" stroke="#000000" cx="377" cy="-431.4467" rx="54.088" ry="22"/>
<ellipse fill="none" stroke="#000000" cx="377" cy="-431.4467" rx="58.0912" ry="26"/>
<text text-anchor="middle" x="377" y="-427.7467" font-family="Times,serif" font-size="14.00" fill="#000000">list_map</text>
</a>
</g>
</g>
<!-- ne_list_ne_list_list_map&#45;&gt;ne_list_ne_list_map -->
<g id="edge5" class="edge">
<title>ne_list_ne_list_list_map&#45;&gt;ne_list_ne_list_map</title>
<path fill="none" stroke="#000000" d="M398.4434,-407.0362C429.0486,-372.1964 484.8941,-308.6239 515.1622,-274.1677"/>
<polygon fill="#000000" stroke="#000000" points="517.9523,-276.2948 521.9225,-266.472 512.6932,-271.675 517.9523,-276.2948"/>
</g>
<!-- ne_list_ne_list_to_list -->
<g id="node16" class="node">
<title>ne_list_ne_list_to_list</title>
<g id="a_node16"><a xlink:href="ne_list.html#ne_list.to_list" xlink:title="to_list">
<ellipse fill="#f070d1" stroke="#000000" cx="158" cy="-250.4467" rx="39.7935" ry="18"/>
<text text-anchor="middle" x="158" y="-246.7467" font-family="Times,serif" font-size="14.00" fill="#000000">to_list</text>
</a>
</g>
</g>
<!-- ne_list_ne_list_list_map&#45;&gt;ne_list_ne_list_to_list -->
<g id="edge6" class="edge">
<title>ne_list_ne_list_list_map&#45;&gt;ne_list_ne_list_to_list</title>
<path fill="none" stroke="#000000" d="M349.2635,-408.5229C306.9652,-373.5641 226.8494,-307.3496 184.9969,-272.7592"/>
<polygon fill="#000000" stroke="#000000" points="187.097,-269.9542 177.1591,-266.2814 182.6375,-275.3499 187.097,-269.9542"/>
</g>
<!-- ne_list_ne_list_ne_list_rect -->
<g id="node24" class="node">
<title>ne_list_ne_list_ne_list_rect</title>
<g id="a_node24"><a xlink:href="ne_list.html#ne_list.ne_list_rect" xlink:title="ne_list_rect">
<ellipse fill="#f070d1" stroke="#000000" cx="650" cy="-250.4467" rx="65.7887" ry="18"/>
<text text-anchor="middle" x="650" y="-246.7467" font-family="Times,serif" font-size="14.00" fill="#000000">ne_list_rect</text>
</a>
</g>
</g>
<!-- ne_list_ne_list_list_map&#45;&gt;ne_list_ne_list_ne_list_rect -->
<g id="edge7" class="edge">
<title>ne_list_ne_list_list_map&#45;&gt;ne_list_ne_list_ne_list_rect</title>
<path fill="none" stroke="#000000" d="M409.659,-409.7937C461.8106,-375.217 563.3841,-307.8733 616.2288,-272.8371"/>
<polygon fill="#000000" stroke="#000000" points="618.1839,-275.7403 624.5844,-267.2973 614.3158,-269.9061 618.1839,-275.7403"/>
</g>
<!-- ne_list_ne_list_map&#45;&gt;ne_list_ne_list_cons -->
<g id="edge8" class="edge">
<title>ne_list_ne_list_map&#45;&gt;ne_list_ne_list_cons</title>
<path fill="none" stroke="#000000" d="M555.3059,-236.3092C561.4259,-232.1777 568.3368,-227.8598 575,-224.4467 689.6623,-165.7128 835.3645,-118.5498 903.9504,-97.8382"/>
<polygon fill="#000000" stroke="#000000" points="905.3144,-101.0833 913.8886,-94.8597 903.3047,-94.378 905.3144,-101.0833"/>
</g>
<!-- ne_list_ne_list_map&#45;&gt;ne_list_ne_list_one -->
<g id="edge9" class="edge">
<title>ne_list_ne_list_map&#45;&gt;ne_list_ne_list_one</title>
<path fill="none" stroke="#000000" d="M554.6008,-235.9151C560.8018,-231.6671 567.9363,-227.3819 575,-224.4467 807.6879,-127.7567 1113.9608,-97.015 1219.4281,-88.9443"/>
<polygon fill="#000000" stroke="#000000" points="1219.8594,-92.4221 1229.5728,-88.1913 1219.3411,-85.4413 1219.8594,-92.4221"/>
</g>
<!-- ne_list_ne_list_ne_list -->
<g id="node27" class="node">
<title>ne_list_ne_list_ne_list</title>
<g id="a_node27"><a xlink:href="ne_list.html#ne_list.ne_list" xlink:title="ne_list">
<ellipse fill="#e2cdfa" stroke="#000000" cx="650" cy="-86.4467" rx="41.6928" ry="18"/>
<text text-anchor="middle" x="650" y="-82.7467" font-family="Times,serif" font-size="14.00" fill="#000000">ne_list</text>
</a>
</g>
</g>
<!-- ne_list_ne_list_map&#45;&gt;ne_list_ne_list_ne_list -->
<g id="edge10" class="edge">
<title>ne_list_ne_list_map&#45;&gt;ne_list_ne_list_ne_list</title>
<path fill="none" stroke="#000000" d="M547.7706,-233.5135C567.7715,-204.7403 608.5085,-146.1362 632.0722,-112.2376"/>
<polygon fill="#000000" stroke="#000000" points="635.117,-113.9894 637.9508,-103.7806 629.3692,-109.994 635.117,-113.9894"/>
</g>
<!-- ne_list_ne_list_tails_are_shorter -->
<g id="node5" class="node">
<title>ne_list_ne_list_tails_are_shorter</title>
<g id="a_node5"><a xlink:href="ne_list.html#ne_list.tails_are_shorter" xlink:title="tails_are_shorter">
<ellipse fill="#f070d1" stroke="#000000" cx="726" cy="-612.4467" rx="89.8687" ry="18"/>
<ellipse fill="none" stroke="#000000" cx="726" cy="-612.4467" rx="93.8766" ry="22"/>
<ellipse fill="none" stroke="#000000" cx="726" cy="-612.4467" rx="97.8845" ry="26"/>
<text text-anchor="middle" x="726" y="-608.7467" font-family="Times,serif" font-size="14.00" fill="#000000">tails_are_shorter</text>
</a>
</g>
</g>
<!-- ne_list_ne_list_tails -->
<g id="node6" class="node">
<title>ne_list_ne_list_tails</title>
<g id="a_node6"><a xlink:href="ne_list.html#ne_list.tails" xlink:title="tails">
<ellipse fill="#f070d1" stroke="#000000" cx="1320" cy="-250.4467" rx="30.5947" ry="18"/>
<text text-anchor="middle" x="1320" y="-246.7467" font-family="Times,serif" font-size="14.00" fill="#000000">tails</text>
</a>
</g>
</g>
<!-- ne_list_ne_list_tails_are_shorter&#45;&gt;ne_list_ne_list_tails -->
<g id="edge11" class="edge">
<title>ne_list_ne_list_tails_are_shorter&#45;&gt;ne_list_ne_list_tails</title>
<path fill="none" stroke="#000000" d="M766.7615,-588.5938C859.0781,-534.3929 1090.8817,-397.2881 1281,-276.4467 1284.3802,-274.2982 1287.9022,-272.0148 1291.3866,-269.7278"/>
<polygon fill="#000000" stroke="#000000" points="1293.4638,-272.5501 1299.8682,-264.11 1289.5983,-266.7141 1293.4638,-272.5501"/>
</g>
<!-- ne_list_ne_list_tails_are_shorter&#45;&gt;ne_list_ne_list_to_list -->
<g id="edge12" class="edge">
<title>ne_list_ne_list_tails_are_shorter&#45;&gt;ne_list_ne_list_to_list</title>
<path fill="none" stroke="#000000" d="M645.0668,-597.8188C516.5276,-573.0187 274.0778,-519.3393 214,-457.4467 201.3892,-444.455 175.608,-331.6799 163.9542,-278.2715"/>
<polygon fill="#000000" stroke="#000000" points="167.3596,-277.4598 161.8199,-268.4286 160.5186,-278.9432 167.3596,-277.4598"/>
</g>
<!-- ne_list_ne_list_ne_list_rec -->
<g id="node22" class="node">
<title>ne_list_ne_list_ne_list_rec</title>
<g id="a_node22"><a xlink:href="ne_list.html#ne_list.ne_list_rec" xlink:title="ne_list_rec">
<ellipse fill="#f070d1" stroke="#000000" cx="726" cy="-431.4467" rx="61.99" ry="18"/>
<text text-anchor="middle" x="726" y="-427.7467" font-family="Times,serif" font-size="14.00" fill="#000000">ne_list_rec</text>
</a>
</g>
</g>
<!-- ne_list_ne_list_tails_are_shorter&#45;&gt;ne_list_ne_list_ne_list_rec -->
<g id="edge13" class="edge">
<title>ne_list_ne_list_tails_are_shorter&#45;&gt;ne_list_ne_list_ne_list_rec</title>
<path fill="none" stroke="#000000" d="M726,-586.1277C726,-552.5084 726,-494.5435 726,-459.9205"/>
<polygon fill="#000000" stroke="#000000" points="729.5001,-459.5598 726,-449.5599 722.5001,-459.5599 729.5001,-459.5598"/>
</g>
<!-- ne_list_ne_list_tails&#45;&gt;ne_list_ne_list_cons -->
<g id="edge14" class="edge">
<title>ne_list_ne_list_tails&#45;&gt;ne_list_ne_list_cons</title>
<path fill="none" stroke="#000000" d="M1300.6326,-236.4271C1294.5101,-232.3004 1287.6133,-227.9556 1281,-224.4467 1176.3009,-168.895 1044.2134,-120.8676 980.6129,-99.0124"/>
<polygon fill="#000000" stroke="#000000" points="981.6026,-95.652 971.0081,-95.7324 979.3404,-102.2764 981.6026,-95.652"/>
</g>
<!-- ne_list_ne_list_tails&#45;&gt;ne_list_ne_list_one -->
<g id="edge15" class="edge">
<title>ne_list_ne_list_tails&#45;&gt;ne_list_ne_list_one</title>
<path fill="none" stroke="#000000" d="M1313.138,-232.5836C1302.1555,-203.9943 1280.5499,-147.7513 1267.5801,-113.9886"/>
<polygon fill="#000000" stroke="#000000" points="1270.7068,-112.3676 1263.8536,-104.2877 1264.1724,-114.8778 1270.7068,-112.3676"/>
</g>
<!-- ne_list_ne_list_tails&#45;&gt;ne_list_ne_list_ne_list -->
<g id="edge16" class="edge">
<title>ne_list_ne_list_tails&#45;&gt;ne_list_ne_list_ne_list</title>
<path fill="none" stroke="#000000" d="M1301.3713,-235.9814C1295.1689,-231.737 1288.0405,-227.4371 1281,-224.4467 1076.7747,-137.7026 811.287,-102.6091 701.2435,-91.144"/>
<polygon fill="#000000" stroke="#000000" points="701.3904,-87.6409 691.0867,-90.1073 700.6795,-94.6047 701.3904,-87.6409"/>
</g>
<!-- ne_list_ne_list_tl_length -->
<g id="node7" class="node">
<title>ne_list_ne_list_tl_length</title>
<g id="a_node7"><a xlink:href="ne_list.html#ne_list.tl_length" xlink:title="tl_length">
<ellipse fill="#f070d1" stroke="#000000" cx="886" cy="-431.4467" rx="51.9914" ry="18"/>
<ellipse fill="none" stroke="#000000" cx="886" cy="-431.4467" rx="55.9911" ry="22"/>
<ellipse fill="none" stroke="#000000" cx="886" cy="-431.4467" rx="59.9908" ry="26"/>
<text text-anchor="middle" x="886" y="-427.7467" font-family="Times,serif" font-size="14.00" fill="#000000">tl_length</text>
</a>
</g>
</g>
<!-- ne_list_ne_list_tl_length&#45;&gt;ne_list_ne_list_to_list -->
<g id="edge17" class="edge">
<title>ne_list_ne_list_tl_length&#45;&gt;ne_list_ne_list_to_list</title>
<path fill="none" stroke="#000000" d="M836.7368,-416.3977C823.8531,-412.6428 809.9462,-408.7488 797,-405.4467 536.9104,-339.1067 459.0008,-368.8761 207,-276.4467 201.7447,-274.5192 196.3498,-272.1266 191.1496,-269.5795"/>
<polygon fill="#000000" stroke="#000000" points="192.5633,-266.3705 182.0717,-264.8949 189.3532,-272.5911 192.5633,-266.3705"/>
</g>
<!-- ne_list_ne_list_tl_length&#45;&gt;ne_list_ne_list_cons -->
<g id="edge18" class="edge">
<title>ne_list_ne_list_tl_length&#45;&gt;ne_list_ne_list_cons</title>
<path fill="none" stroke="#000000" d="M878.0546,-405.5028C867.1463,-365.8466 850.6421,-288.0583 867,-224.4467 878.0161,-181.6082 905.4429,-137.8224 924.1505,-111.3814"/>
<polygon fill="#000000" stroke="#000000" points="927.1092,-113.2626 930.1243,-103.1059 921.4334,-109.1655 927.1092,-113.2626"/>
</g>
<!-- ne_list_ne_list_tl_length&#45;&gt;ne_list_ne_list_one -->
<g id="edge19" class="edge">
<title>ne_list_ne_list_tl_length&#45;&gt;ne_list_ne_list_one</title>
<path fill="none" stroke="#000000" d="M944.9445,-426.2397C1089.0973,-412.1633 1452.9335,-368.084 1525,-276.4467 1597.4067,-184.3768 1381.1672,-117.7516 1292.7998,-94.9989"/>
<polygon fill="#000000" stroke="#000000" points="1293.4834,-91.5617 1282.9306,-92.5038 1291.7676,-98.3482 1293.4834,-91.5617"/>
</g>
<!-- ne_list_ne_list_two_level_rect -->
<g id="node8" class="node">
<title>ne_list_ne_list_two_level_rect</title>
<g id="a_node8"><a xlink:href="ne_list.html#ne_list.two_level_rect" xlink:title="two_level_rect">
<ellipse fill="#f070d1" stroke="#000000" cx="560" cy="-431.4467" rx="78.7731" ry="18"/>
<ellipse fill="none" stroke="#000000" cx="560" cy="-431.4467" rx="82.7797" ry="22"/>
<ellipse fill="none" stroke="#000000" cx="560" cy="-431.4467" rx="86.7863" ry="26"/>
<text text-anchor="middle" x="560" y="-427.7467" font-family="Times,serif" font-size="14.00" fill="#000000">two_level_rect</text>
</a>
</g>
</g>
<!-- ne_list_ne_list_two_level_rect&#45;&gt;ne_list_ne_list_ne_list_rect -->
<g id="edge20" class="edge">
<title>ne_list_ne_list_two_level_rect&#45;&gt;ne_list_ne_list_ne_list_rect</title>
<path fill="none" stroke="#000000" d="M572.8948,-405.5138C589.8219,-371.4715 619.3952,-311.9964 636.5795,-277.4369"/>
<polygon fill="#000000" stroke="#000000" points="639.7586,-278.9043 641.077,-268.3918 633.4907,-275.7877 639.7586,-278.9043"/>
</g>
<!-- ne_list_ne_list_front -->
<g id="node9" class="node">
<title>ne_list_ne_list_front</title>
<g id="a_node9"><a xlink:href="ne_list.html#ne_list.front" xlink:title="front">
<ellipse fill="#f070d1" stroke="#000000" cx="356" cy="-250.4467" rx="33.6336" ry="18"/>
<ellipse fill="none" stroke="#000000" cx="356" cy="-250.4467" rx="37.6143" ry="22"/>
<ellipse fill="none" stroke="#000000" cx="356" cy="-250.4467" rx="41.595" ry="26"/>
<text text-anchor="middle" x="356" y="-246.7467" font-family="Times,serif" font-size="14.00" fill="#000000">front</text>
</a>
</g>
</g>
<!-- ne_list_ne_list_front&#45;&gt;ne_list_ne_list_ne_list -->
<g id="edge21" class="edge">
<title>ne_list_ne_list_front&#45;&gt;ne_list_ne_list_ne_list</title>
<path fill="none" stroke="#000000" d="M387.1848,-233.0511C442.5945,-202.1423 557.7913,-137.8828 615.4954,-105.6942"/>
<polygon fill="#000000" stroke="#000000" points="617.2168,-108.7417 624.2449,-100.8135 613.8067,-102.6285 617.2168,-108.7417"/>
</g>
<!-- ne_list_ne_list_take -->
<g id="node10" class="node">
<title>ne_list_ne_list_take</title>
<g id="a_node10"><a xlink:href="ne_list.html#ne_list.take" xlink:title="take">
<ellipse fill="#f070d1" stroke="#000000" cx="1340" cy="-431.4467" rx="31.355" ry="18"/>
<ellipse fill="none" stroke="#000000" cx="1340" cy="-431.4467" rx="35.3752" ry="22"/>
<ellipse fill="none" stroke="#000000" cx="1340" cy="-431.4467" rx="39.3955" ry="26"/>
<text text-anchor="middle" x="1340" y="-427.7467" font-family="Times,serif" font-size="14.00" fill="#000000">take</text>
</a>
</g>
</g>
<!-- ne_list_ne_list_take&#45;&gt;ne_list_ne_list_head -->
<g id="edge22" class="edge">
<title>ne_list_ne_list_take&#45;&gt;ne_list_ne_list_head</title>
<path fill="none" stroke="#000000" d="M1304.7644,-419.7431C1235.4018,-396.1999 1076.9499,-339.9095 951,-276.4467 946.9266,-274.3942 942.7329,-272.0723 938.6447,-269.6815"/>
<polygon fill="#000000" stroke="#000000" points="940.3176,-266.6028 929.951,-264.4155 936.6909,-272.5901 940.3176,-266.6028"/>
</g>
<!-- ne_list_ne_list_take&#45;&gt;ne_list_ne_list_one -->
<g id="edge23" class="edge">
<title>ne_list_ne_list_take&#45;&gt;ne_list_ne_list_one</title>
<path fill="none" stroke="#000000" d="M1373.4302,-417.6563C1442.9922,-386.8858 1592.634,-308.6711 1540,-224.4467 1485.2557,-136.8453 1357.1177,-103.377 1293.7771,-91.8571"/>
<polygon fill="#000000" stroke="#000000" points="1294.2758,-88.3914 1283.8248,-90.1317 1293.0799,-95.2885 1294.2758,-88.3914"/>
</g>
<!-- ne_list_ne_list_replicate_Sn -->
<g id="node11" class="node">
<title>ne_list_ne_list_replicate_Sn</title>
<g id="a_node11"><a xlink:href="ne_list.html#ne_list.replicate_Sn" xlink:title="replicate_Sn">
<ellipse fill="#f070d1" stroke="#000000" cx="1194" cy="-250.4467" rx="69.5832" ry="18"/>
<ellipse fill="none" stroke="#000000" cx="1194" cy="-250.4467" rx="73.5854" ry="22"/>
<ellipse fill="none" stroke="#000000" cx="1194" cy="-250.4467" rx="77.5877" ry="26"/>
<text text-anchor="middle" x="1194" y="-246.7467" font-family="Times,serif" font-size="14.00" fill="#000000">replicate_Sn</text>
</a>
</g>
</g>
<!-- ne_list_ne_list_replicate_Sn&#45;&gt;ne_list_ne_list_cons -->
<g id="edge24" class="edge">
<title>ne_list_ne_list_replicate_Sn&#45;&gt;ne_list_ne_list_cons</title>
<path fill="none" stroke="#000000" d="M1158.5702,-227.2973C1108.8052,-194.7816 1019.1043,-136.1722 972.6626,-105.8278"/>
<polygon fill="#000000" stroke="#000000" points="974.5305,-102.8674 964.2445,-100.3276 970.7016,-108.7275 974.5305,-102.8674"/>
</g>
<!-- ne_list_ne_list_replicate_Sn&#45;&gt;ne_list_ne_list_one -->
<g id="edge25" class="edge">
<title>ne_list_ne_list_replicate_Sn&#45;&gt;ne_list_ne_list_one</title>
<path fill="none" stroke="#000000" d="M1203.9825,-224.4604C1215.5786,-194.274 1234.6268,-144.6882 1246.4568,-113.8924"/>
<polygon fill="#000000" stroke="#000000" points="1249.852,-114.8142 1250.1708,-104.2242 1243.3176,-112.304 1249.852,-114.8142"/>
</g>
<!-- ne_list_ne_list_replicate_Sn&#45;&gt;ne_list_ne_list_ne_list -->
<g id="edge26" class="edge">
<title>ne_list_ne_list_replicate_Sn&#45;&gt;ne_list_ne_list_ne_list</title>
<path fill="none" stroke="#000000" d="M1136.2975,-233.0511C1026.9597,-200.089 791.8087,-129.1979 694.038,-99.7229"/>
<polygon fill="#000000" stroke="#000000" points="694.7704,-96.2881 684.1858,-96.7527 692.7499,-102.9902 694.7704,-96.2881"/>
</g>
<!-- ne_list_ne_list_last -->
<g id="node12" class="node">
<title>ne_list_ne_list_last</title>
<g id="a_node12"><a xlink:href="ne_list.html#ne_list.last" xlink:title="last">
<ellipse fill="#f070d1" stroke="#000000" cx="62" cy="-431.4467" rx="27.9068" ry="18"/>
<ellipse fill="none" stroke="#000000" cx="62" cy="-431.4467" rx="31.9009" ry="22"/>
<ellipse fill="none" stroke="#000000" cx="62" cy="-431.4467" rx="35.8951" ry="26"/>
<text text-anchor="middle" x="62" y="-427.7467" font-family="Times,serif" font-size="14.00" fill="#000000">last</text>
</a>
</g>
</g>
<!-- ne_list_ne_list_foldr1 -->
<g id="node18" class="node">
<title>ne_list_ne_list_foldr1</title>
<g id="a_node18"><a xlink:href="ne_list.html#ne_list.foldr1" xlink:title="foldr1">
<ellipse fill="#f070d1" stroke="#000000" cx="62" cy="-250.4467" rx="38.1938" ry="18"/>
<text text-anchor="middle" x="62" y="-246.7467" font-family="Times,serif" font-size="14.00" fill="#000000">foldr1</text>
</a>
</g>
</g>
<!-- ne_list_ne_list_last&#45;&gt;ne_list_ne_list_foldr1 -->
<g id="edge27" class="edge">
<title>ne_list_ne_list_last&#45;&gt;ne_list_ne_list_foldr1</title>
<path fill="none" stroke="#000000" d="M62,-405.1277C62,-371.5084 62,-313.5435 62,-278.9205"/>
<polygon fill="#000000" stroke="#000000" points="65.5001,-278.5598 62,-268.5599 58.5001,-278.5599 65.5001,-278.5598"/>
</g>
<!-- ne_list_ne_list_decomp_eq -->
<g id="node13" class="node">
<title>ne_list_ne_list_decomp_eq</title>
<g id="a_node13"><a xlink:href="ne_list.html#ne_list.decomp_eq" xlink:title="decomp_eq">
<ellipse fill="#f070d1" stroke="#000000" cx="496" cy="-612.4467" rx="63.8675" ry="18"/>
<ellipse fill="none" stroke="#000000" cx="496" cy="-612.4467" rx="67.8784" ry="22"/>
<ellipse fill="none" stroke="#000000" cx="496" cy="-612.4467" rx="71.8892" ry="26"/>
<text text-anchor="middle" x="496" y="-608.7467" font-family="Times,serif" font-size="14.00" fill="#000000">decomp_eq</text>
</a>
</g>
</g>
<!-- ne_list_ne_list_tail -->
<g id="node14" class="node">
<title>ne_list_ne_list_tail</title>
<g id="a_node14"><a xlink:href="ne_list.html#ne_list.tail" xlink:title="tail">
<ellipse fill="#f070d1" stroke="#000000" cx="158" cy="-431.4467" rx="27" ry="18"/>
<text text-anchor="middle" x="158" y="-427.7467" font-family="Times,serif" font-size="14.00" fill="#000000">tail</text>
</a>
</g>
</g>
<!-- ne_list_ne_list_decomp_eq&#45;&gt;ne_list_ne_list_tail -->
<g id="edge28" class="edge">
<title>ne_list_ne_list_decomp_eq&#45;&gt;ne_list_ne_list_tail</title>
<path fill="none" stroke="#000000" d="M453.0955,-591.4783C394.8024,-562.6686 287.6776,-508.5829 199,-457.4467 194.7514,-454.9967 190.3159,-452.3172 185.9981,-449.6391"/>
<polygon fill="#000000" stroke="#000000" points="187.7239,-446.5897 177.3979,-444.218 183.9911,-452.5114 187.7239,-446.5897"/>
</g>
<!-- ne_list_ne_list_from_list -->
<g id="node15" class="node">
<title>ne_list_ne_list_from_list</title>
<g id="a_node15"><a xlink:href="ne_list.html#ne_list.from_list" xlink:title="from_list">
<ellipse fill="#f070d1" stroke="#000000" cx="786" cy="-250.4467" rx="51.9908" ry="18"/>
<text text-anchor="middle" x="786" y="-246.7467" font-family="Times,serif" font-size="14.00" fill="#000000">from_list</text>
</a>
</g>
</g>
<!-- ne_list_ne_list_decomp_eq&#45;&gt;ne_list_ne_list_from_list -->
<g id="edge29" class="edge">
<title>ne_list_ne_list_decomp_eq&#45;&gt;ne_list_ne_list_from_list</title>
<path fill="none" stroke="#000000" d="M559.3817,-600.137C631.346,-582.4009 745.4323,-542.0048 797,-457.4467 831.1883,-401.3865 811.0556,-320.0872 796.6666,-278.0024"/>
<polygon fill="#000000" stroke="#000000" points="799.9094,-276.6752 793.2582,-268.4283 793.3148,-279.023 799.9094,-276.6752"/>
</g>
<!-- ne_list_ne_list_decomp_eq&#45;&gt;ne_list_ne_list_head -->
<g id="edge30" class="edge">
<title>ne_list_ne_list_decomp_eq&#45;&gt;ne_list_ne_list_head</title>
<path fill="none" stroke="#000000" d="M554.0538,-596.905C672.0563,-564.7457 930.8452,-491.0985 955,-457.4467 994.8992,-401.8603 952.6157,-317.876 926.4514,-276.0291"/>
<polygon fill="#000000" stroke="#000000" points="929.3397,-274.0494 920.9912,-267.526 923.4495,-277.8317 929.3397,-274.0494"/>
</g>
<!-- ne_list_ne_list_decomp_eq&#45;&gt;ne_list_ne_list_ne_list_rect -->
<g id="edge31" class="edge">
<title>ne_list_ne_list_decomp_eq&#45;&gt;ne_list_ne_list_ne_list_rect</title>
<path fill="none" stroke="#000000" d="M482.944,-586.5835C464.4104,-546.0301 435.6967,-465.8754 464,-405.4467 493.6069,-342.2347 563.0674,-295.8104 608.22,-270.9923"/>
<polygon fill="#000000" stroke="#000000" points="610.0348,-273.9904 617.185,-266.1721 606.7199,-267.825 610.0348,-273.9904"/>
</g>
<!-- ne_list_ne_list_tail&#45;&gt;ne_list_ne_list_to_list -->
<g id="edge32" class="edge">
<title>ne_list_ne_list_tail&#45;&gt;ne_list_ne_list_to_list</title>
<path fill="none" stroke="#000000" d="M158,-413.43C158,-381.9344 158,-316.6376 158,-278.9528"/>
<polygon fill="#000000" stroke="#000000" points="161.5001,-278.6591 158,-268.6592 154.5001,-278.6592 161.5001,-278.6591"/>
</g>
<!-- ne_list_ne_list_from_list&#45;&gt;ne_list_ne_list_cons -->
<g id="edge33" class="edge">
<title>ne_list_ne_list_from_list&#45;&gt;ne_list_ne_list_cons</title>
<path fill="none" stroke="#000000" d="M802.505,-233.2058C830.7846,-203.6653 888.5355,-143.3396 920.4862,-109.9643"/>
<polygon fill="#000000" stroke="#000000" points="923.2576,-112.1306 927.6446,-102.4867 918.2011,-107.2899 923.2576,-112.1306"/>
</g>
<!-- ne_list_ne_list_from_list&#45;&gt;ne_list_ne_list_one -->
<g id="edge34" class="edge">
<title>ne_list_ne_list_from_list&#45;&gt;ne_list_ne_list_one</title>
<path fill="none" stroke="#000000" d="M822.9586,-237.5779C912.0323,-206.5628 1137.5236,-128.0478 1223.2341,-98.2038"/>
<polygon fill="#000000" stroke="#000000" points="1224.4475,-101.4875 1232.7404,-94.8938 1222.1456,-94.8768 1224.4475,-101.4875"/>
</g>
<!-- ne_list_ne_list_from_list&#45;&gt;ne_list_ne_list_ne_list -->
<g id="edge35" class="edge">
<title>ne_list_ne_list_from_list&#45;&gt;ne_list_ne_list_ne_list</title>
<path fill="none" stroke="#000000" d="M771.4456,-232.8958C747.3145,-203.7965 698.9254,-145.4449 671.0637,-111.847"/>
<polygon fill="#000000" stroke="#000000" points="673.5273,-109.3348 664.4497,-103.8714 668.139,-113.8032 673.5273,-109.3348"/>
</g>
<!-- ne_list_ne_list_to_list&#45;&gt;ne_list_ne_list_ne_list -->
<g id="edge36" class="edge">
<title>ne_list_ne_list_to_list&#45;&gt;ne_list_ne_list_ne_list</title>
<path fill="none" stroke="#000000" d="M182.7461,-236.1689C190.3811,-232.0782 198.9109,-227.8183 207,-224.4467 347.614,-165.8378 522.2275,-118.5124 603.8743,-97.7832"/>
<polygon fill="#000000" stroke="#000000" points="604.7568,-101.1703 613.5961,-95.3293 603.0436,-94.3831 604.7568,-101.1703"/>
</g>
<!-- ne_list_ne_list_head&#45;&gt;ne_list_ne_list_ne_list -->
<g id="edge37" class="edge">
<title>ne_list_ne_list_head&#45;&gt;ne_list_ne_list_ne_list</title>
<path fill="none" stroke="#000000" d="M887.3633,-236.7462C841.8513,-207.9278 736.0043,-140.905 682.3781,-106.9487"/>
<polygon fill="#000000" stroke="#000000" points="683.9383,-103.794 673.6172,-101.4012 680.1935,-109.708 683.9383,-103.794"/>
</g>
<!-- ne_list_ne_list_foldr1&#45;&gt;ne_list_ne_list_ne_list -->
<g id="edge38" class="edge">
<title>ne_list_ne_list_foldr1&#45;&gt;ne_list_ne_list_ne_list</title>
<path fill="none" stroke="#000000" d="M85.334,-236.0005C92.7121,-231.8564 101.0251,-227.6091 109,-224.4467 283.7444,-155.1528 504.2052,-111.6502 600.8337,-94.6291"/>
<polygon fill="#000000" stroke="#000000" points="601.6451,-98.0405 610.8949,-92.874 600.4422,-91.1446 601.6451,-98.0405"/>
</g>
<!-- ne_list_ne_list_foldr -->
<g id="node19" class="node">
<title>ne_list_ne_list_foldr</title>
<g id="a_node19"><a xlink:href="ne_list.html#ne_list.foldr" xlink:title="foldr">
<ellipse fill="#f070d1" stroke="#000000" cx="256" cy="-250.4467" rx="32.4948" ry="18"/>
<ellipse fill="none" stroke="#000000" cx="256" cy="-250.4467" rx="36.4945" ry="22"/>
<ellipse fill="none" stroke="#000000" cx="256" cy="-250.4467" rx="40.4942" ry="26"/>
<text text-anchor="middle" x="256" y="-246.7467" font-family="Times,serif" font-size="14.00" fill="#000000">foldr</text>
</a>
</g>
</g>
<!-- ne_list_ne_list_foldr&#45;&gt;ne_list_ne_list_ne_list -->
<g id="edge39" class="edge">
<title>ne_list_ne_list_foldr&#45;&gt;ne_list_ne_list_ne_list</title>
<path fill="none" stroke="#000000" d="M286.8527,-233.4325C292.8168,-230.3272 299.059,-227.2014 305,-224.4467 412.1587,-174.7594 542.5191,-125.5527 608.0734,-101.5573"/>
<polygon fill="#000000" stroke="#000000" points="609.4505,-104.7806 617.6447,-98.0646 607.0508,-98.2048 609.4505,-104.7806"/>
</g>
<!-- ne_list_ne_list_app -->
<g id="node20" class="node">
<title>ne_list_ne_list_app</title>
<g id="a_node20"><a xlink:href="ne_list.html#ne_list.app" xlink:title="app">
<ellipse fill="#f070d1" stroke="#000000" cx="452" cy="-250.4467" rx="27.9068" ry="18"/>
<ellipse fill="none" stroke="#000000" cx="452" cy="-250.4467" rx="31.9009" ry="22"/>
<ellipse fill="none" stroke="#000000" cx="452" cy="-250.4467" rx="35.8951" ry="26"/>
<text text-anchor="middle" x="452" y="-246.7467" font-family="Times,serif" font-size="14.00" fill="#000000">app</text>
</a>
</g>
</g>
<!-- ne_list_ne_list_app&#45;&gt;ne_list_ne_list_cons -->
<g id="edge40" class="edge">
<title>ne_list_ne_list_app&#45;&gt;ne_list_ne_list_cons</title>
<path fill="none" stroke="#000000" d="M478.9347,-233.1955C484.4567,-230.0426 490.3202,-226.9599 496,-224.4467 640.2946,-160.6005 823.0176,-114.1822 902.7401,-95.5103"/>
<polygon fill="#000000" stroke="#000000" points="903.8936,-98.8357 912.8426,-93.1641 902.31,-92.0171 903.8936,-98.8357"/>
</g>
<!-- ne_list_ne_list_app&#45;&gt;ne_list_ne_list_ne_list -->
<g id="edge41" class="edge">
<title>ne_list_ne_list_app&#45;&gt;ne_list_ne_list_ne_list</title>
<path fill="none" stroke="#000000" d="M475.8834,-230.6645C512.8531,-200.0431 583.7259,-141.3404 622.6808,-109.0747"/>
<polygon fill="#000000" stroke="#000000" points="625.0165,-111.6849 630.4852,-102.6105 620.5512,-106.2939 625.0165,-111.6849"/>
</g>
<!-- ne_list_ne_list_ne_list_sind -->
<g id="node21" class="node">
<title>ne_list_ne_list_ne_list_sind</title>
<g id="a_node21"><a xlink:href="ne_list.html#ne_list.ne_list_sind" xlink:title="ne_list_sind">
<ellipse fill="#f070d1" stroke="#000000" cx="1442" cy="-250.4467" rx="65.7729" ry="18"/>
<ellipse fill="none" stroke="#000000" cx="1442" cy="-250.4467" rx="69.7808" ry="22"/>
<ellipse fill="none" stroke="#000000" cx="1442" cy="-250.4467" rx="73.7886" ry="26"/>
<text text-anchor="middle" x="1442" y="-246.7467" font-family="Times,serif" font-size="14.00" fill="#000000">ne_list_sind</text>
</a>
</g>
</g>
<!-- ne_list_ne_list_ne_list_sind&#45;&gt;ne_list_ne_list_cons -->
<g id="edge42" class="edge">
<title>ne_list_ne_list_ne_list_sind&#45;&gt;ne_list_ne_list_cons</title>
<path fill="none" stroke="#000000" d="M1387.6483,-232.5836C1285.7376,-199.0899 1068.3412,-127.641 980.7416,-98.8508"/>
<polygon fill="#000000" stroke="#000000" points="981.7988,-95.5141 971.2059,-95.7168 979.6132,-102.1641 981.7988,-95.5141"/>
</g>
<!-- ne_list_ne_list_ne_list_sind&#45;&gt;ne_list_ne_list_one -->
<g id="edge43" class="edge">
<title>ne_list_ne_list_ne_list_sind&#45;&gt;ne_list_ne_list_one</title>
<path fill="none" stroke="#000000" d="M1414.7026,-226.2479C1378.5993,-194.2428 1315.5329,-138.3353 1281.1063,-107.8166"/>
<polygon fill="#000000" stroke="#000000" points="1283.2122,-105.0062 1273.4074,-100.9916 1278.5686,-110.2443 1283.2122,-105.0062"/>
</g>
<!-- ne_list_ne_list_ne_list_sind&#45;&gt;ne_list_ne_list_ne_list -->
<g id="edge44" class="edge">
<title>ne_list_ne_list_ne_list_sind&#45;&gt;ne_list_ne_list_ne_list</title>
<path fill="none" stroke="#000000" d="M1388.4424,-232.492C1379.0182,-229.612 1369.2622,-226.8069 1360,-224.4467 1114.9066,-161.9922 815.9634,-112.3866 699.6348,-94.0736"/>
<polygon fill="#000000" stroke="#000000" points="700.029,-90.5927 689.6075,-92.5015 698.9447,-97.5082 700.029,-90.5927"/>
</g>
<!-- ne_list_ne_list_ne_list_rec&#45;&gt;ne_list_ne_list_ne_list_rect -->
<g id="edge45" class="edge">
<title>ne_list_ne_list_ne_list_rec&#45;&gt;ne_list_ne_list_ne_list_rect</title>
<path fill="none" stroke="#000000" d="M718.435,-413.43C705.0623,-381.582 677.1775,-315.1721 661.4426,-277.6982"/>
<polygon fill="#000000" stroke="#000000" points="664.633,-276.2557 657.5344,-268.3905 658.1789,-278.9658 664.633,-276.2557"/>
</g>
<!-- ne_list_ne_list_ne_list_ind -->
<g id="node23" class="node">
<title>ne_list_ne_list_ne_list_ind</title>
<g id="a_node23"><a xlink:href="ne_list.html#ne_list.ne_list_ind" xlink:title="ne_list_ind">
<ellipse fill="#7fffd4" stroke="#000000" cx="1029" cy="-250.4467" rx="61.1783" ry="18"/>
<ellipse fill="none" stroke="#000000" cx="1029" cy="-250.4467" rx="65.1838" ry="22"/>
<ellipse fill="none" stroke="#000000" cx="1029" cy="-250.4467" rx="69.1893" ry="26"/>
<text text-anchor="middle" x="1029" y="-246.7467" font-family="Times,serif" font-size="14.00" fill="#000000">ne_list_ind</text>
</a>
</g>
</g>
<!-- ne_list_ne_list_ne_list_ind&#45;&gt;ne_list_ne_list_cons -->
<g id="edge46" class="edge">
<title>ne_list_ne_list_ne_list_ind&#45;&gt;ne_list_ne_list_cons</title>
<path fill="none" stroke="#000000" d="M1015.5625,-224.8217C999.5507,-194.2875 972.9392,-143.5401 956.7786,-112.7222"/>
<polygon fill="#000000" stroke="#000000" points="959.8659,-111.0731 952.1221,-103.8423 953.6666,-114.324 959.8659,-111.0731"/>
</g>
<!-- ne_list_ne_list_ne_list_ind&#45;&gt;ne_list_ne_list_one -->
<g id="edge47" class="edge">
<title>ne_list_ne_list_ne_list_ind&#45;&gt;ne_list_ne_list_one</title>
<path fill="none" stroke="#000000" d="M1061.1833,-227.2973C1106.4298,-194.7516 1188.0198,-136.064 1230.1722,-105.7439"/>
<polygon fill="#000000" stroke="#000000" points="1232.2236,-108.5797 1238.2979,-99.8991 1228.1361,-102.8971 1232.2236,-108.5797"/>
</g>
<!-- ne_list_ne_list_ne_list_ind&#45;&gt;ne_list_ne_list_ne_list -->
<g id="edge48" class="edge">
<title>ne_list_ne_list_ne_list_ind&#45;&gt;ne_list_ne_list_ne_list</title>
<path fill="none" stroke="#000000" d="M983.6602,-230.8274C908.5979,-198.3466 759.7875,-133.9537 689.0747,-103.355"/>
<polygon fill="#000000" stroke="#000000" points="690.1985,-100.0277 679.6309,-99.2685 687.4186,-106.4521 690.1985,-100.0277"/>
</g>
<!-- ne_list_ne_list_ne_list_rect&#45;&gt;ne_list_ne_list_cons -->
<g id="edge49" class="edge">
<title>ne_list_ne_list_ne_list_rect&#45;&gt;ne_list_ne_list_cons</title>
<path fill="none" stroke="#000000" d="M678.8958,-234.2729C734.0103,-203.4239 853.7592,-136.3972 911.1201,-104.2908"/>
<polygon fill="#000000" stroke="#000000" points="913.0814,-107.204 920.098,-99.2656 909.6624,-101.0957 913.0814,-107.204"/>
</g>
<!-- ne_list_ne_list_ne_list_rect&#45;&gt;ne_list_ne_list_one -->
<g id="edge50" class="edge">
<title>ne_list_ne_list_ne_list_rect&#45;&gt;ne_list_ne_list_one</title>
<path fill="none" stroke="#000000" d="M689.8975,-235.953C701.1862,-232.033 713.5241,-227.9182 725,-224.4467 909.9605,-168.4952 1135.2155,-114.706 1221.2614,-94.6733"/>
<polygon fill="#000000" stroke="#000000" points="1222.1035,-98.0709 1231.0527,-92.3997 1220.5201,-91.2523 1222.1035,-98.0709"/>
</g>
<!-- ne_list_ne_list_ne_list_rect&#45;&gt;ne_list_ne_list_ne_list -->
<g id="edge51" class="edge">
<title>ne_list_ne_list_ne_list_rect&#45;&gt;ne_list_ne_list_ne_list</title>
<path fill="none" stroke="#000000" d="M650,-232.2692C650,-203.8236 650,-148.5619 650,-114.8371"/>
<polygon fill="#000000" stroke="#000000" points="653.5001,-114.7056 650,-104.7056 646.5001,-114.7056 653.5001,-114.7056"/>
</g>
</g>
</svg>
