<?xml version="1.0" encoding="UTF-8" standalone="no"?>
<!DOCTYPE svg PUBLIC "-//W3C//DTD SVG 1.1//EN"
 "http://www.w3.org/Graphics/SVG/1.1/DTD/svg11.dtd">
<!-- Generated by graphviz version 2.40.1 (20161225.0304)
 -->
<!-- Title: HoTT_WildCat_Paths Pages: 1 -->
<svg width="510pt" height="259pt"
 viewBox="0.00 0.00 510.00 259.00" xmlns="http://www.w3.org/2000/svg" xmlns:xlink="http://www.w3.org/1999/xlink">
<g id="graph0" class="graph" transform="scale(1 1) rotate(0) translate(4 255)">
<title>HoTT_WildCat_Paths</title>
<polygon fill="#ffffff" stroke="transparent" points="-4,4 -4,-255 506,-255 506,4 -4,4"/>
<g id="clust1" class="cluster">
<title>cluster_Paths</title>
<polygon fill="#ffffc3" stroke="#000000" points="20.701,-8 20.701,-243 481.299,-243 481.299,-8 20.701,-8"/>
<text text-anchor="middle" x="48.701" y="-227.8" font-family="Times,serif" font-size="14.00" fill="#000000">Paths</text>
</g>
<!-- Paths_is0gpd_paths -->
<g id="node1" class="node">
<title>Paths_is0gpd_paths</title>
<g id="a_node1"><a xlink:href="Paths.html#is0gpd_paths" xlink:title="is0gpd_paths">
<ellipse fill="#f070d1" stroke="#000000" cx="250.8866" cy="-186" rx="72.608" ry="18"/>
<ellipse fill="none" stroke="#000000" cx="250.8866" cy="-186" rx="76.5978" ry="22"/>
<ellipse fill="none" stroke="#000000" cx="250.8866" cy="-186" rx="80.5876" ry="26"/>
<text text-anchor="middle" x="250.8866" y="-182.3" font-family="Times,serif" font-size="14.00" fill="#000000">is0gpd_paths</text>
</a>
</g>
</g>
<!-- Paths_is01cat_paths -->
<g id="node2" class="node">
<title>Paths_is01cat_paths</title>
<g id="a_node2"><a xlink:href="Paths.html#is01cat_paths" xlink:title="is01cat_paths">
<ellipse fill="#f070d1" stroke="#000000" cx="250.8866" cy="-106" rx="75.2868" ry="18"/>
<text text-anchor="middle" x="250.8866" y="-102.3" font-family="Times,serif" font-size="14.00" fill="#000000">is01cat_paths</text>
</a>
</g>
</g>
<!-- Paths_is0gpd_paths&#45;&gt;Paths_is01cat_paths -->
<g id="edge1" class="edge">
<title>Paths_is0gpd_paths&#45;&gt;Paths_is01cat_paths</title>
<path fill="none" stroke="#000000" d="M250.8866,-159.805C250.8866,-151.6026 250.8866,-142.5174 250.8866,-134.1839"/>
<polygon fill="#000000" stroke="#000000" points="254.3867,-134.1532 250.8866,-124.1532 247.3867,-134.1533 254.3867,-134.1532"/>
</g>
<!-- Paths_isgraph_paths -->
<g id="node3" class="node">
<title>Paths_isgraph_paths</title>
<g id="a_node3"><a xlink:href="Paths.html#isgraph_paths" xlink:title="isgraph_paths">
<ellipse fill="#f070d1" stroke="#000000" cx="250.8866" cy="-34" rx="76.8869" ry="18"/>
<text text-anchor="middle" x="250.8866" y="-30.3" font-family="Times,serif" font-size="14.00" fill="#000000">isgraph_paths</text>
</a>
</g>
</g>
<!-- Paths_is01cat_paths&#45;&gt;Paths_isgraph_paths -->
<g id="edge2" class="edge">
<title>Paths_is01cat_paths&#45;&gt;Paths_isgraph_paths</title>
<path fill="none" stroke="#000000" d="M250.8866,-87.8314C250.8866,-80.131 250.8866,-70.9743 250.8866,-62.4166"/>
<polygon fill="#000000" stroke="#000000" points="254.3867,-62.4132 250.8866,-52.4133 247.3867,-62.4133 254.3867,-62.4132"/>
</g>
</g>
</svg>
