<?xml version="1.0" encoding="UTF-8" standalone="no"?>
<!DOCTYPE svg PUBLIC "-//W3C//DTD SVG 1.1//EN"
 "http://www.w3.org/Graphics/SVG/1.1/DTD/svg11.dtd">
<!-- Generated by graphviz version 2.40.1 (20161225.0304)
 -->
<!-- Title: HoTT_Algebra_AbGroups_AbSES_Pullback Pages: 1 -->
<svg width="2228pt" height="1118pt"
 viewBox="0.00 0.00 2228.00 1118.00" xmlns="http://www.w3.org/2000/svg" xmlns:xlink="http://www.w3.org/1999/xlink">
<g id="graph0" class="graph" transform="scale(1 1) rotate(0) translate(4 1114)">
<title>HoTT_Algebra_AbGroups_AbSES_Pullback</title>
<polygon fill="#ffffff" stroke="transparent" points="-4,4 -4,-1114 2224,-1114 2224,4 -4,4"/>
<g id="clust1" class="cluster">
<title>cluster_Pullback</title>
<polygon fill="#ffffc3" stroke="#000000" points="8,-14.7264 8,-1095.2736 2212,-1095.2736 2212,-14.7264 8,-14.7264"/>
<text text-anchor="middle" x="47.5" y="-1080.0736" font-family="Times,serif" font-size="14.00" fill="#000000">Pullback</text>
</g>
<!-- Pullback_equiv_hfiber_abses_pullback -->
<g id="node1" class="node">
<title>Pullback_equiv_hfiber_abses_pullback</title>
<g id="a_node1"><a xlink:href="Pullback.html#equiv_hfiber_abses_pullback" xlink:title="equiv_hfiber_abses_pullback">
<ellipse fill="#f070d1" stroke="#000000" cx="214" cy="-828.7264" rx="144.8776" ry="18"/>
<ellipse fill="none" stroke="#000000" cx="214" cy="-828.7264" rx="148.8759" ry="22"/>
<ellipse fill="none" stroke="#000000" cx="214" cy="-828.7264" rx="152.8743" ry="26"/>
<text text-anchor="middle" x="214" y="-825.0264" font-family="Times,serif" font-size="14.00" fill="#000000">equiv_hfiber_abses_pullback</text>
</a>
</g>
</g>
<!-- Pullback_transport_path_data_hfiber_abses_pullback_l -->
<g id="node2" class="node">
<title>Pullback_transport_path_data_hfiber_abses_pullback_l</title>
<g id="a_node2"><a xlink:href="Pullback.html#transport_path_data_hfiber_abses_pullback_l" xlink:title="transport_path_data_hfiber_abses_pullback_l">
<ellipse fill="#f070d1" stroke="#000000" cx="258" cy="-666.7264" rx="222.0608" ry="18"/>
<text text-anchor="middle" x="258" y="-663.0264" font-family="Times,serif" font-size="14.00" fill="#000000">transport_path_data_hfiber_abses_pullback_l</text>
</a>
</g>
</g>
<!-- Pullback_equiv_hfiber_abses_pullback&#45;&gt;Pullback_transport_path_data_hfiber_abses_pullback_l -->
<g id="edge1" class="edge">
<title>Pullback_equiv_hfiber_abses_pullback&#45;&gt;Pullback_transport_path_data_hfiber_abses_pullback_l</title>
<path fill="none" stroke="#000000" d="M221.0694,-802.6983C229.0662,-773.2555 242.0463,-725.4651 250.296,-695.0911"/>
<polygon fill="#000000" stroke="#000000" points="253.7573,-695.7002 253.0008,-685.1324 247.002,-693.8654 253.7573,-695.7002"/>
</g>
<!-- Pullback_hfiber_abses_path -->
<g id="node3" class="node">
<title>Pullback_hfiber_abses_path</title>
<g id="a_node3"><a xlink:href="Pullback.html#hfiber_abses_path" xlink:title="hfiber_abses_path">
<ellipse fill="#f070d1" stroke="#000000" cx="902" cy="-342.7264" rx="95.5831" ry="18"/>
<text text-anchor="middle" x="902" y="-339.0264" font-family="Times,serif" font-size="14.00" fill="#000000">hfiber_abses_path</text>
</a>
</g>
</g>
<!-- Pullback_equiv_hfiber_abses_pullback&#45;&gt;Pullback_hfiber_abses_path -->
<g id="edge2" class="edge">
<title>Pullback_equiv_hfiber_abses_pullback&#45;&gt;Pullback_hfiber_abses_path</title>
<path fill="none" stroke="#000000" d="M157.0564,-804.4487C85.7449,-770.5647 -21.535,-705.891 27,-640.7264 128.9679,-503.821 233.1095,-584.8743 395,-530.7264 563.7925,-474.27 760.6503,-398.3221 851.4244,-362.7184"/>
<polygon fill="#000000" stroke="#000000" points="852.8895,-365.9033 860.9181,-358.9901 850.3307,-359.3878 852.8895,-365.9033"/>
</g>
<!-- Pullback_is1functor_abses_pullback -->
<g id="node24" class="node">
<title>Pullback_is1functor_abses_pullback</title>
<g id="a_node24"><a xlink:href="Pullback.html#is1functor_abses_pullback" xlink:title="is1functor_abses_pullback">
<ellipse fill="#f070d1" stroke="#000000" cx="713" cy="-504.7264" rx="134.5761" ry="18"/>
<text text-anchor="middle" x="713" y="-501.0264" font-family="Times,serif" font-size="14.00" fill="#000000">is1functor_abses_pullback</text>
</a>
</g>
</g>
<!-- Pullback_transport_path_data_hfiber_abses_pullback_l&#45;&gt;Pullback_is1functor_abses_pullback -->
<g id="edge3" class="edge">
<title>Pullback_transport_path_data_hfiber_abses_pullback_l&#45;&gt;Pullback_is1functor_abses_pullback</title>
<path fill="none" stroke="#000000" d="M307.5591,-649.0811C392.672,-618.7772 566.1273,-557.0195 656.0659,-524.9974"/>
<polygon fill="#000000" stroke="#000000" points="657.3096,-528.2699 665.5563,-521.6184 654.9616,-521.6754 657.3096,-528.2699"/>
</g>
<!-- Pullback_is0functor_abses_pullback -->
<g id="node25" class="node">
<title>Pullback_is0functor_abses_pullback</title>
<g id="a_node25"><a xlink:href="Pullback.html#is0functor_abses_pullback" xlink:title="is0functor_abses_pullback">
<ellipse fill="#f070d1" stroke="#000000" cx="1012" cy="-194.7264" rx="134.5761" ry="18"/>
<text text-anchor="middle" x="1012" y="-191.0264" font-family="Times,serif" font-size="14.00" fill="#000000">is0functor_abses_pullback</text>
</a>
</g>
</g>
<!-- Pullback_hfiber_abses_path&#45;&gt;Pullback_is0functor_abses_pullback -->
<g id="edge4" class="edge">
<title>Pullback_hfiber_abses_path&#45;&gt;Pullback_is0functor_abses_pullback</title>
<path fill="none" stroke="#000000" d="M915.2686,-324.8741C934.5115,-298.9836 970.288,-250.8479 992.5242,-220.9302"/>
<polygon fill="#000000" stroke="#000000" points="995.5282,-222.7558 998.6844,-212.6419 989.91,-218.5801 995.5282,-222.7558"/>
</g>
<!-- Pullback_equiv_hfiber_abses -->
<g id="node4" class="node">
<title>Pullback_equiv_hfiber_abses</title>
<g id="a_node4"><a xlink:href="Pullback.html#equiv_hfiber_abses" xlink:title="equiv_hfiber_abses">
<ellipse fill="#f070d1" stroke="#000000" cx="1844" cy="-990.7264" rx="100.1756" ry="18"/>
<ellipse fill="none" stroke="#000000" cx="1844" cy="-990.7264" rx="104.1789" ry="22"/>
<ellipse fill="none" stroke="#000000" cx="1844" cy="-990.7264" rx="108.1823" ry="26"/>
<text text-anchor="middle" x="1844" y="-987.0264" font-family="Times,serif" font-size="14.00" fill="#000000">equiv_hfiber_abses</text>
</a>
</g>
</g>
<!-- Pullback_iscomplex_pullback_abses -->
<g id="node5" class="node">
<title>Pullback_iscomplex_pullback_abses</title>
<g id="a_node5"><a xlink:href="Pullback.html#iscomplex_pullback_abses" xlink:title="iscomplex_pullback_abses">
<ellipse fill="#f070d1" stroke="#000000" cx="1325" cy="-990.7264" rx="133.7826" ry="18"/>
<ellipse fill="none" stroke="#000000" cx="1325" cy="-990.7264" rx="137.7795" ry="22"/>
<ellipse fill="none" stroke="#000000" cx="1325" cy="-990.7264" rx="141.7763" ry="26"/>
<text text-anchor="middle" x="1325" y="-987.0264" font-family="Times,serif" font-size="14.00" fill="#000000">iscomplex_pullback_abses</text>
</a>
</g>
</g>
<!-- Pullback_iscomplex_abses_pullback -->
<g id="node6" class="node">
<title>Pullback_iscomplex_abses_pullback</title>
<g id="a_node6"><a xlink:href="Pullback.html#iscomplex_abses_pullback" xlink:title="iscomplex_abses_pullback">
<ellipse fill="#f070d1" stroke="#000000" cx="1325" cy="-828.7264" rx="133.7763" ry="18"/>
<text text-anchor="middle" x="1325" y="-825.0264" font-family="Times,serif" font-size="14.00" fill="#000000">iscomplex_abses_pullback</text>
</a>
</g>
</g>
<!-- Pullback_iscomplex_pullback_abses&#45;&gt;Pullback_iscomplex_abses_pullback -->
<g id="edge5" class="edge">
<title>Pullback_iscomplex_pullback_abses&#45;&gt;Pullback_iscomplex_abses_pullback</title>
<path fill="none" stroke="#000000" d="M1325,-964.6983C1325,-935.3841 1325,-887.8822 1325,-857.49"/>
<polygon fill="#000000" stroke="#000000" points="1328.5001,-857.1324 1325,-847.1324 1321.5001,-857.1325 1328.5001,-857.1324"/>
</g>
<!-- Pullback_iscomplex_abses_pullback_ -->
<g id="node7" class="node">
<title>Pullback_iscomplex_abses_pullback_</title>
<g id="a_node7"><a xlink:href="Pullback.html#iscomplex_abses_pullback'" xlink:title="iscomplex_abses_pullback&#39;">
<ellipse fill="#f070d1" stroke="#000000" cx="2068" cy="-666.7264" rx="135.6761" ry="18"/>
<text text-anchor="middle" x="2068" y="-663.0264" font-family="Times,serif" font-size="14.00" fill="#000000">iscomplex_abses_pullback&#39;</text>
</a>
</g>
</g>
<!-- Pullback_iscomplex_abses_pullback&#45;&gt;Pullback_iscomplex_abses_pullback_ -->
<g id="edge6" class="edge">
<title>Pullback_iscomplex_abses_pullback&#45;&gt;Pullback_iscomplex_abses_pullback_</title>
<path fill="none" stroke="#000000" d="M1395.5695,-813.3398C1534.1999,-783.1135 1841.2835,-716.1585 1987.5364,-684.2702"/>
<polygon fill="#000000" stroke="#000000" points="1988.3342,-687.6786 1997.3591,-682.1286 1986.843,-680.8393 1988.3342,-687.6786"/>
</g>
<!-- Pullback_abses_pullback -->
<g id="node19" class="node">
<title>Pullback_abses_pullback</title>
<g id="a_node19"><a xlink:href="Pullback.html#abses_pullback" xlink:title="abses_pullback">
<ellipse fill="#f070d1" stroke="#000000" cx="1010" cy="-504.7264" rx="81.7856" ry="18"/>
<text text-anchor="middle" x="1010" y="-501.0264" font-family="Times,serif" font-size="14.00" fill="#000000">abses_pullback</text>
</a>
</g>
</g>
<!-- Pullback_iscomplex_abses_pullback&#45;&gt;Pullback_abses_pullback -->
<g id="edge7" class="edge">
<title>Pullback_iscomplex_abses_pullback&#45;&gt;Pullback_abses_pullback</title>
<path fill="none" stroke="#000000" d="M1326.3697,-810.4821C1329.1383,-768.7543 1333.6548,-667.8629 1315,-640.7264 1285.59,-597.9446 1148.0616,-548.4622 1068.0813,-522.5917"/>
<polygon fill="#000000" stroke="#000000" points="1068.739,-519.127 1058.1478,-519.4042 1066.6002,-525.7923 1068.739,-519.127"/>
</g>
<!-- Pullback_iscomplex_abses_pullback&#45;&gt;Pullback_is1functor_abses_pullback -->
<g id="edge8" class="edge">
<title>Pullback_iscomplex_abses_pullback&#45;&gt;Pullback_is1functor_abses_pullback</title>
<path fill="none" stroke="#000000" d="M1211.4876,-819.1415C1054.9011,-803.3595 784.8862,-766.0696 723,-692.7264 703.2495,-669.3194 707.0565,-579.4361 710.5149,-532.9466"/>
<polygon fill="#000000" stroke="#000000" points="714.0081,-533.1688 711.3054,-522.9245 707.0298,-532.6183 714.0081,-533.1688"/>
</g>
<!-- Pullback_abses_pullback_phomotopic_ -->
<g id="node9" class="node">
<title>Pullback_abses_pullback_phomotopic_</title>
<g id="a_node9"><a xlink:href="Pullback.html#abses_pullback_phomotopic'" xlink:title="abses_pullback_phomotopic&#39;">
<ellipse fill="#f070d1" stroke="#000000" cx="1543" cy="-504.7264" rx="143.7746" ry="18"/>
<text text-anchor="middle" x="1543" y="-501.0264" font-family="Times,serif" font-size="14.00" fill="#000000">abses_pullback_phomotopic&#39;</text>
</a>
</g>
</g>
<!-- Pullback_iscomplex_abses_pullback_&#45;&gt;Pullback_abses_pullback_phomotopic_ -->
<g id="edge9" class="edge">
<title>Pullback_iscomplex_abses_pullback_&#45;&gt;Pullback_abses_pullback_phomotopic_</title>
<path fill="none" stroke="#000000" d="M2014.283,-650.1508C1916.9389,-620.1132 1711.7968,-556.8122 1607.2258,-524.5446"/>
<polygon fill="#000000" stroke="#000000" points="1608.0144,-521.1252 1597.427,-521.521 1605.9504,-527.814 1608.0144,-521.1252"/>
</g>
<!-- Pullback_abses_pullback_pconst_ -->
<g id="node12" class="node">
<title>Pullback_abses_pullback_pconst_</title>
<g id="a_node12"><a xlink:href="Pullback.html#abses_pullback_pconst'" xlink:title="abses_pullback_pconst&#39;">
<ellipse fill="#f070d1" stroke="#000000" cx="1825" cy="-504.7264" rx="120.4791" ry="18"/>
<text text-anchor="middle" x="1825" y="-501.0264" font-family="Times,serif" font-size="14.00" fill="#000000">abses_pullback_pconst&#39;</text>
</a>
</g>
</g>
<!-- Pullback_iscomplex_abses_pullback_&#45;&gt;Pullback_abses_pullback_pconst_ -->
<g id="edge10" class="edge">
<title>Pullback_iscomplex_abses_pullback_&#45;&gt;Pullback_abses_pullback_pconst_</title>
<path fill="none" stroke="#000000" d="M2041.0663,-648.7706C1996.8858,-619.3169 1909.0474,-560.758 1860.0682,-528.1052"/>
<polygon fill="#000000" stroke="#000000" points="1861.946,-525.1506 1851.684,-522.5157 1858.063,-530.9749 1861.946,-525.1506"/>
</g>
<!-- Pullback_abses_pullback_pcompose_ -->
<g id="node16" class="node">
<title>Pullback_abses_pullback_pcompose_</title>
<g id="a_node16"><a xlink:href="Pullback.html#abses_pullback_pcompose'" xlink:title="abses_pullback_pcompose&#39;">
<ellipse fill="#f070d1" stroke="#000000" cx="1246" cy="-504.7264" rx="135.6761" ry="18"/>
<text text-anchor="middle" x="1246" y="-501.0264" font-family="Times,serif" font-size="14.00" fill="#000000">abses_pullback_pcompose&#39;</text>
</a>
</g>
</g>
<!-- Pullback_iscomplex_abses_pullback_&#45;&gt;Pullback_abses_pullback_pcompose_ -->
<g id="edge11" class="edge">
<title>Pullback_iscomplex_abses_pullback_&#45;&gt;Pullback_abses_pullback_pcompose_</title>
<path fill="none" stroke="#000000" d="M1992.1416,-651.7762C1838.856,-621.5666 1493.1275,-553.4303 1331.8567,-521.647"/>
<polygon fill="#000000" stroke="#000000" points="1332.4612,-518.1989 1321.9731,-519.6992 1331.1076,-525.0668 1332.4612,-518.1989"/>
</g>
<!-- Pullback_abses_pullback_phomotopic -->
<g id="node8" class="node">
<title>Pullback_abses_pullback_phomotopic</title>
<g id="a_node8"><a xlink:href="Pullback.html#abses_pullback_phomotopic" xlink:title="abses_pullback_phomotopic">
<ellipse fill="#f070d1" stroke="#000000" cx="1494" cy="-666.7264" rx="141.8651" ry="18"/>
<ellipse fill="none" stroke="#000000" cx="1494" cy="-666.7264" rx="145.8701" ry="22"/>
<ellipse fill="none" stroke="#000000" cx="1494" cy="-666.7264" rx="149.8751" ry="26"/>
<text text-anchor="middle" x="1494" y="-663.0264" font-family="Times,serif" font-size="14.00" fill="#000000">abses_pullback_phomotopic</text>
</a>
</g>
</g>
<!-- Pullback_abses_pullback_phomotopic&#45;&gt;Pullback_abses_pullback_phomotopic_ -->
<g id="edge12" class="edge">
<title>Pullback_abses_pullback_phomotopic&#45;&gt;Pullback_abses_pullback_phomotopic_</title>
<path fill="none" stroke="#000000" d="M1501.8727,-640.6983C1510.7782,-611.2555 1525.2333,-563.4651 1534.4205,-533.0911"/>
<polygon fill="#000000" stroke="#000000" points="1537.8876,-533.7175 1537.4327,-523.1324 1531.1874,-531.6908 1537.8876,-533.7175"/>
</g>
<!-- Pullback_abses_pullback_phomotopic&#45;&gt;Pullback_abses_pullback -->
<g id="edge13" class="edge">
<title>Pullback_abses_pullback_phomotopic&#45;&gt;Pullback_abses_pullback</title>
<path fill="none" stroke="#000000" d="M1424.9118,-643.6018C1327.8626,-611.1184 1153.1514,-552.6407 1064.614,-523.0063"/>
<polygon fill="#000000" stroke="#000000" points="1065.6227,-519.6531 1055.0288,-519.798 1063.4008,-526.2911 1065.6227,-519.6531"/>
</g>
<!-- Pullback_abses_pullback_homotopic_ -->
<g id="node10" class="node">
<title>Pullback_abses_pullback_homotopic_</title>
<g id="a_node10"><a xlink:href="Pullback.html#abses_pullback_homotopic'" xlink:title="abses_pullback_homotopic&#39;">
<ellipse fill="#f070d1" stroke="#000000" cx="1567" cy="-194.7264" rx="137.5759" ry="18"/>
<text text-anchor="middle" x="1567" y="-191.0264" font-family="Times,serif" font-size="14.00" fill="#000000">abses_pullback_homotopic&#39;</text>
</a>
</g>
</g>
<!-- Pullback_abses_pullback_phomotopic_&#45;&gt;Pullback_abses_pullback_homotopic_ -->
<g id="edge14" class="edge">
<title>Pullback_abses_pullback_phomotopic_&#45;&gt;Pullback_abses_pullback_homotopic_</title>
<path fill="none" stroke="#000000" d="M1544.3941,-486.7195C1548.3956,-435.0328 1559.9415,-285.8989 1564.802,-223.1177"/>
<polygon fill="#000000" stroke="#000000" points="1568.3197,-223.0233 1565.6021,-212.7829 1561.3405,-222.4829 1568.3197,-223.0233"/>
</g>
<!-- Pullback_abses_pullback_ -->
<g id="node20" class="node">
<title>Pullback_abses_pullback_</title>
<g id="a_node20"><a xlink:href="Pullback.html#abses_pullback'" xlink:title="abses_pullback&#39;">
<ellipse fill="#f070d1" stroke="#000000" cx="1398" cy="-342.7264" rx="84.485" ry="18"/>
<text text-anchor="middle" x="1398" y="-339.0264" font-family="Times,serif" font-size="14.00" fill="#000000">abses_pullback&#39;</text>
</a>
</g>
</g>
<!-- Pullback_abses_pullback_phomotopic_&#45;&gt;Pullback_abses_pullback_ -->
<g id="edge15" class="edge">
<title>Pullback_abses_pullback_phomotopic_&#45;&gt;Pullback_abses_pullback_</title>
<path fill="none" stroke="#000000" d="M1526.9284,-486.7706C1501.1251,-457.942 1450.3648,-401.2304 1420.8171,-368.2186"/>
<polygon fill="#000000" stroke="#000000" points="1423.4208,-365.8796 1414.1435,-360.7626 1418.2049,-370.5481 1423.4208,-365.8796"/>
</g>
<!-- Pullback_abses_pullback0 -->
<g id="node31" class="node">
<title>Pullback_abses_pullback0</title>
<g id="a_node31"><a xlink:href="Pullback.html#abses_pullback0" xlink:title="abses_pullback0">
<ellipse fill="#f070d1" stroke="#000000" cx="1166" cy="-62.7264" rx="87.9851" ry="18"/>
<text text-anchor="middle" x="1166" y="-59.0264" font-family="Times,serif" font-size="14.00" fill="#000000">abses_pullback0</text>
</a>
</g>
</g>
<!-- Pullback_abses_pullback_homotopic_&#45;&gt;Pullback_abses_pullback0 -->
<g id="edge16" class="edge">
<title>Pullback_abses_pullback_homotopic_&#45;&gt;Pullback_abses_pullback0</title>
<path fill="none" stroke="#000000" d="M1515.8058,-177.8744C1440.4826,-153.0797 1300.3013,-106.9353 1222.2109,-81.2297"/>
<polygon fill="#000000" stroke="#000000" points="1223.1348,-77.8492 1212.5418,-78.0469 1220.9461,-84.4982 1223.1348,-77.8492"/>
</g>
<!-- Pullback_abses_pullback_pconst -->
<g id="node11" class="node">
<title>Pullback_abses_pullback_pconst</title>
<g id="a_node11"><a xlink:href="Pullback.html#abses_pullback_pconst" xlink:title="abses_pullback_pconst">
<ellipse fill="#f070d1" stroke="#000000" cx="1788" cy="-666.7264" rx="118.0927" ry="18"/>
<ellipse fill="none" stroke="#000000" cx="1788" cy="-666.7264" rx="122.086" ry="22"/>
<ellipse fill="none" stroke="#000000" cx="1788" cy="-666.7264" rx="126.0794" ry="26"/>
<text text-anchor="middle" x="1788" y="-663.0264" font-family="Times,serif" font-size="14.00" fill="#000000">abses_pullback_pconst</text>
</a>
</g>
</g>
<!-- Pullback_abses_pullback_pconst&#45;&gt;Pullback_abses_pullback_pconst_ -->
<g id="edge17" class="edge">
<title>Pullback_abses_pullback_pconst&#45;&gt;Pullback_abses_pullback_pconst_</title>
<path fill="none" stroke="#000000" d="M1793.9447,-640.6983C1800.6693,-611.2555 1811.5844,-563.4651 1818.5216,-533.0911"/>
<polygon fill="#000000" stroke="#000000" points="1821.9816,-533.6607 1820.7961,-523.1324 1815.1573,-532.102 1821.9816,-533.6607"/>
</g>
<!-- Pullback_abses_pullback_pconst&#45;&gt;Pullback_abses_pullback -->
<g id="edge18" class="edge">
<title>Pullback_abses_pullback_pconst&#45;&gt;Pullback_abses_pullback</title>
<path fill="none" stroke="#000000" d="M1695.7097,-648.899C1521.8859,-615.2569 1158.2116,-544.5372 1101,-530.7264 1090.3611,-528.1582 1079.0979,-525.1662 1068.2554,-522.1449"/>
<polygon fill="#000000" stroke="#000000" points="1069.0212,-518.7243 1058.4462,-519.3732 1067.1177,-525.4605 1069.0212,-518.7243"/>
</g>
<!-- Pullback_abses_pullback_const_ -->
<g id="node14" class="node">
<title>Pullback_abses_pullback_const_</title>
<g id="a_node14"><a xlink:href="Pullback.html#abses_pullback_const'" xlink:title="abses_pullback_const&#39;">
<ellipse fill="#f070d1" stroke="#000000" cx="1825" cy="-342.7264" rx="114.2798" ry="18"/>
<text text-anchor="middle" x="1825" y="-339.0264" font-family="Times,serif" font-size="14.00" fill="#000000">abses_pullback_const&#39;</text>
</a>
</g>
</g>
<!-- Pullback_abses_pullback_pconst_&#45;&gt;Pullback_abses_pullback_const_ -->
<g id="edge19" class="edge">
<title>Pullback_abses_pullback_pconst_&#45;&gt;Pullback_abses_pullback_const_</title>
<path fill="none" stroke="#000000" d="M1825,-486.4578C1825,-458.5044 1825,-404.8682 1825,-371.6084"/>
<polygon fill="#000000" stroke="#000000" points="1828.5001,-371.1767 1825,-361.1767 1821.5001,-371.1767 1828.5001,-371.1767"/>
</g>
<!-- Pullback_abses_pullback_pconst_&#45;&gt;Pullback_abses_pullback_ -->
<g id="edge20" class="edge">
<title>Pullback_abses_pullback_pconst_&#45;&gt;Pullback_abses_pullback_</title>
<path fill="none" stroke="#000000" d="M1780.5119,-487.848C1700.6062,-457.5325 1533.2706,-394.0468 1448.9184,-362.0444"/>
<polygon fill="#000000" stroke="#000000" points="1450.1365,-358.7631 1439.5453,-358.4883 1447.6534,-365.3079 1450.1365,-358.7631"/>
</g>
<!-- Pullback_abses_pullback_const -->
<g id="node13" class="node">
<title>Pullback_abses_pullback_const</title>
<g id="a_node13"><a xlink:href="Pullback.html#abses_pullback_const" xlink:title="abses_pullback_const">
<ellipse fill="#f070d1" stroke="#000000" cx="2084" cy="-504.7264" rx="112.3841" ry="18"/>
<ellipse fill="none" stroke="#000000" cx="2084" cy="-504.7264" rx="116.3821" ry="22"/>
<ellipse fill="none" stroke="#000000" cx="2084" cy="-504.7264" rx="120.3801" ry="26"/>
<text text-anchor="middle" x="2084" y="-501.0264" font-family="Times,serif" font-size="14.00" fill="#000000">abses_pullback_const</text>
</a>
</g>
</g>
<!-- Pullback_abses_pullback_const&#45;&gt;Pullback_abses_pullback_const_ -->
<g id="edge21" class="edge">
<title>Pullback_abses_pullback_const&#45;&gt;Pullback_abses_pullback_const_</title>
<path fill="none" stroke="#000000" d="M2044.6635,-480.1221C1994.9721,-449.041 1910.119,-395.9669 1861.707,-365.686"/>
<polygon fill="#000000" stroke="#000000" points="1863.4424,-362.6432 1853.1082,-360.3076 1859.7303,-368.5779 1863.4424,-362.6432"/>
</g>
<!-- Pullback_abses_pullback_const_&#45;&gt;Pullback_abses_pullback0 -->
<g id="edge22" class="edge">
<title>Pullback_abses_pullback_const_&#45;&gt;Pullback_abses_pullback0</title>
<path fill="none" stroke="#000000" d="M1818.328,-324.5808C1804.5757,-289.8786 1769.6212,-214.2306 1714,-176.7264 1639.6956,-126.6244 1387.9939,-89.5405 1253.0916,-72.7239"/>
<polygon fill="#000000" stroke="#000000" points="1253.1449,-69.204 1242.7911,-71.451 1252.2864,-76.1511 1253.1449,-69.204"/>
</g>
<!-- Pullback_abses_pullback_pcompose -->
<g id="node15" class="node">
<title>Pullback_abses_pullback_pcompose</title>
<g id="a_node15"><a xlink:href="Pullback.html#abses_pullback_pcompose" xlink:title="abses_pullback_pcompose">
<ellipse fill="#f070d1" stroke="#000000" cx="1164" cy="-666.7264" rx="133.7826" ry="18"/>
<ellipse fill="none" stroke="#000000" cx="1164" cy="-666.7264" rx="137.7795" ry="22"/>
<ellipse fill="none" stroke="#000000" cx="1164" cy="-666.7264" rx="141.7763" ry="26"/>
<text text-anchor="middle" x="1164" y="-663.0264" font-family="Times,serif" font-size="14.00" fill="#000000">abses_pullback_pcompose</text>
</a>
</g>
</g>
<!-- Pullback_abses_pullback_pcompose&#45;&gt;Pullback_abses_pullback_pcompose_ -->
<g id="edge23" class="edge">
<title>Pullback_abses_pullback_pcompose&#45;&gt;Pullback_abses_pullback_pcompose_</title>
<path fill="none" stroke="#000000" d="M1177.1747,-640.6983C1192.208,-610.9984 1216.6913,-562.629 1232.0433,-532.2993"/>
<polygon fill="#000000" stroke="#000000" points="1235.2899,-533.6352 1236.6834,-523.1324 1229.0444,-530.4739 1235.2899,-533.6352"/>
</g>
<!-- Pullback_abses_pullback_pcompose&#45;&gt;Pullback_abses_pullback -->
<g id="edge24" class="edge">
<title>Pullback_abses_pullback_pcompose&#45;&gt;Pullback_abses_pullback</title>
<path fill="none" stroke="#000000" d="M1139.5982,-641.057C1110.7919,-610.7542 1063.1725,-560.661 1034.3769,-530.3697"/>
<polygon fill="#000000" stroke="#000000" points="1036.5617,-527.5879 1027.1351,-522.7516 1031.4883,-532.4109 1036.5617,-527.5879"/>
</g>
<!-- Pullback_abses_pullback_pcompose&#45;&gt;Pullback_is1functor_abses_pullback -->
<g id="edge25" class="edge">
<title>Pullback_abses_pullback_pcompose&#45;&gt;Pullback_is1functor_abses_pullback</title>
<path fill="none" stroke="#000000" d="M1099.3827,-643.5157C1011.0557,-611.7885 854.0146,-555.3791 769.9084,-525.168"/>
<polygon fill="#000000" stroke="#000000" points="770.8644,-521.7925 760.2699,-521.7058 768.498,-528.3804 770.8644,-521.7925"/>
</g>
<!-- Pullback_abses_pullback_compose_ -->
<g id="node18" class="node">
<title>Pullback_abses_pullback_compose_</title>
<g id="a_node18"><a xlink:href="Pullback.html#abses_pullback_compose'" xlink:title="abses_pullback_compose&#39;">
<ellipse fill="#f070d1" stroke="#000000" cx="1166" cy="-342.7264" rx="129.9769" ry="18"/>
<text text-anchor="middle" x="1166" y="-339.0264" font-family="Times,serif" font-size="14.00" fill="#000000">abses_pullback_compose&#39;</text>
</a>
</g>
</g>
<!-- Pullback_abses_pullback_pcompose_&#45;&gt;Pullback_abses_pullback_compose_ -->
<g id="edge26" class="edge">
<title>Pullback_abses_pullback_pcompose_&#45;&gt;Pullback_abses_pullback_compose_</title>
<path fill="none" stroke="#000000" d="M1236.9785,-486.4578C1222.9943,-458.1398 1195.9942,-403.4646 1179.6252,-370.3174"/>
<polygon fill="#000000" stroke="#000000" points="1182.6773,-368.5933 1175.1113,-361.1767 1176.4009,-371.6928 1182.6773,-368.5933"/>
</g>
<!-- Pullback_abses_pullback_pcompose_&#45;&gt;Pullback_abses_pullback_ -->
<g id="edge27" class="edge">
<title>Pullback_abses_pullback_pcompose_&#45;&gt;Pullback_abses_pullback_</title>
<path fill="none" stroke="#000000" d="M1262.8474,-486.7706C1289.8965,-457.942 1343.1073,-401.2304 1374.0813,-368.2186"/>
<polygon fill="#000000" stroke="#000000" points="1376.7871,-370.45 1381.0771,-360.7626 1371.6823,-365.6603 1376.7871,-370.45"/>
</g>
<!-- Pullback_abses_pullback_compose -->
<g id="node17" class="node">
<title>Pullback_abses_pullback_compose</title>
<g id="a_node17"><a xlink:href="Pullback.html#abses_pullback_compose" xlink:title="abses_pullback_compose">
<ellipse fill="#f070d1" stroke="#000000" cx="868" cy="-666.7264" rx="128.075" ry="18"/>
<ellipse fill="none" stroke="#000000" cx="868" cy="-666.7264" rx="132.0762" ry="22"/>
<ellipse fill="none" stroke="#000000" cx="868" cy="-666.7264" rx="136.0773" ry="26"/>
<text text-anchor="middle" x="868" y="-663.0264" font-family="Times,serif" font-size="14.00" fill="#000000">abses_pullback_compose</text>
</a>
</g>
</g>
<!-- Pullback_abses_pullback_compose&#45;&gt;Pullback_abses_pullback_compose_ -->
<g id="edge28" class="edge">
<title>Pullback_abses_pullback_compose&#45;&gt;Pullback_abses_pullback_compose_</title>
<path fill="none" stroke="#000000" d="M868.806,-640.4886C871.2861,-601.3128 881.0669,-526.9826 919,-478.7264 965.329,-419.7895 1044.6184,-382.6978 1100.8551,-362.406"/>
<polygon fill="#000000" stroke="#000000" points="1102.1047,-365.6767 1110.373,-359.052 1099.7781,-359.0746 1102.1047,-365.6767"/>
</g>
<!-- Pullback_abses_pullback_compose&#45;&gt;Pullback_abses_pullback -->
<g id="edge29" class="edge">
<title>Pullback_abses_pullback_compose&#45;&gt;Pullback_abses_pullback</title>
<path fill="none" stroke="#000000" d="M890.5003,-641.057C917.062,-610.7542 960.9708,-560.661 987.5226,-530.3697"/>
<polygon fill="#000000" stroke="#000000" points="990.2405,-532.5787 994.2001,-522.7516 984.9764,-527.9646 990.2405,-532.5787"/>
</g>
<!-- Pullback_abses_pullback_compose_&#45;&gt;Pullback_abses_pullback0 -->
<g id="edge30" class="edge">
<title>Pullback_abses_pullback_compose_&#45;&gt;Pullback_abses_pullback0</title>
<path fill="none" stroke="#000000" d="M1166,-324.3548C1166,-276.578 1166,-148.1852 1166,-90.9421"/>
<polygon fill="#000000" stroke="#000000" points="1169.5001,-90.8016 1166,-80.8016 1162.5001,-90.8016 1169.5001,-90.8016"/>
</g>
<!-- Pullback_abses_pullback&#45;&gt;Pullback_abses_pullback_ -->
<g id="edge31" class="edge">
<title>Pullback_abses_pullback&#45;&gt;Pullback_abses_pullback_</title>
<path fill="none" stroke="#000000" d="M1048.2648,-488.7498C1119.4019,-459.0483 1271.8521,-395.3964 1349.8599,-362.8261"/>
<polygon fill="#000000" stroke="#000000" points="1351.5689,-365.9054 1359.4483,-358.8227 1348.8718,-359.4459 1351.5689,-365.9054"/>
</g>
<!-- Pullback_abses_pullback_point_ -->
<g id="node21" class="node">
<title>Pullback_abses_pullback_point_</title>
<g id="a_node21"><a xlink:href="Pullback.html#abses_pullback_point'" xlink:title="abses_pullback_point&#39;">
<ellipse fill="#f070d1" stroke="#000000" cx="1298" cy="-194.7264" rx="113.18" ry="18"/>
<text text-anchor="middle" x="1298" y="-191.0264" font-family="Times,serif" font-size="14.00" fill="#000000">abses_pullback_point&#39;</text>
</a>
</g>
</g>
<!-- Pullback_abses_pullback_&#45;&gt;Pullback_abses_pullback_point_ -->
<g id="edge32" class="edge">
<title>Pullback_abses_pullback_&#45;&gt;Pullback_abses_pullback_point_</title>
<path fill="none" stroke="#000000" d="M1385.9377,-324.8741C1368.444,-298.9836 1335.92,-250.8479 1315.7053,-220.9302"/>
<polygon fill="#000000" stroke="#000000" points="1318.6038,-218.9683 1310.1051,-212.6419 1312.8037,-222.8874 1318.6038,-218.9683"/>
</g>
<!-- Pullback_abses_pullback_&#45;&gt;Pullback_is0functor_abses_pullback -->
<g id="edge33" class="edge">
<title>Pullback_abses_pullback_&#45;&gt;Pullback_is0functor_abses_pullback</title>
<path fill="none" stroke="#000000" d="M1356.6912,-326.8878C1286.5634,-299.9994 1144.2533,-245.4349 1066.2119,-215.5123"/>
<polygon fill="#000000" stroke="#000000" points="1067.152,-212.1243 1056.5618,-211.8122 1064.646,-218.6604 1067.152,-212.1243"/>
</g>
<!-- Pullback_abses_pullback_point_&#45;&gt;Pullback_abses_pullback0 -->
<g id="edge34" class="edge">
<title>Pullback_abses_pullback_point_&#45;&gt;Pullback_abses_pullback0</title>
<path fill="none" stroke="#000000" d="M1280.1979,-176.9243C1257.2682,-153.9946 1217.2729,-113.9993 1191.2196,-87.946"/>
<polygon fill="#000000" stroke="#000000" points="1193.4876,-85.2642 1183.9416,-80.668 1188.5378,-90.214 1193.4876,-85.2642"/>
</g>
<!-- Pullback_ap_abses_pullback_data -->
<g id="node22" class="node">
<title>Pullback_ap_abses_pullback_data</title>
<g id="a_node22"><a xlink:href="Pullback.html#ap_abses_pullback_data" xlink:title="ap_abses_pullback_data">
<ellipse fill="#f070d1" stroke="#000000" cx="596" cy="-828.7264" rx="123.4788" ry="18"/>
<ellipse fill="none" stroke="#000000" cx="596" cy="-828.7264" rx="127.4784" ry="22"/>
<ellipse fill="none" stroke="#000000" cx="596" cy="-828.7264" rx="131.4781" ry="26"/>
<text text-anchor="middle" x="596" y="-825.0264" font-family="Times,serif" font-size="14.00" fill="#000000">ap_abses_pullback_data</text>
</a>
</g>
</g>
<!-- Pullback_ap_abses_pullback -->
<g id="node23" class="node">
<title>Pullback_ap_abses_pullback</title>
<g id="a_node23"><a xlink:href="Pullback.html#ap_abses_pullback" xlink:title="ap_abses_pullback">
<ellipse fill="#f070d1" stroke="#000000" cx="596" cy="-666.7264" rx="98.2828" ry="18"/>
<text text-anchor="middle" x="596" y="-663.0264" font-family="Times,serif" font-size="14.00" fill="#000000">ap_abses_pullback</text>
</a>
</g>
</g>
<!-- Pullback_ap_abses_pullback_data&#45;&gt;Pullback_ap_abses_pullback -->
<g id="edge35" class="edge">
<title>Pullback_ap_abses_pullback_data&#45;&gt;Pullback_ap_abses_pullback</title>
<path fill="none" stroke="#000000" d="M596,-802.6983C596,-773.3841 596,-725.8822 596,-695.49"/>
<polygon fill="#000000" stroke="#000000" points="599.5001,-695.1324 596,-685.1324 592.5001,-695.1325 599.5001,-695.1324"/>
</g>
<!-- Pullback_ap_abses_pullback&#45;&gt;Pullback_is1functor_abses_pullback -->
<g id="edge36" class="edge">
<title>Pullback_ap_abses_pullback&#45;&gt;Pullback_is1functor_abses_pullback</title>
<path fill="none" stroke="#000000" d="M608.9681,-648.7706C629.613,-620.1853 670.0572,-564.1856 693.9817,-531.0594"/>
<polygon fill="#000000" stroke="#000000" points="696.9563,-532.9186 699.9738,-522.7626 691.2815,-528.8202 696.9563,-532.9186"/>
</g>
<!-- Pullback_is1functor_abses_pullback&#45;&gt;Pullback_is0functor_abses_pullback -->
<g id="edge37" class="edge">
<title>Pullback_is1functor_abses_pullback&#45;&gt;Pullback_is0functor_abses_pullback</title>
<path fill="none" stroke="#000000" d="M797.2063,-490.6324C866.3551,-474.1918 960.2401,-439.6127 1007,-368.7264 1036.0796,-324.6428 1027.7886,-259.6655 1019.5965,-222.8608"/>
<polygon fill="#000000" stroke="#000000" points="1022.9299,-221.75 1017.2094,-212.8323 1016.1202,-223.371 1022.9299,-221.75"/>
</g>
<!-- Pullback_is0functor_abses_pullback&#45;&gt;Pullback_abses_pullback0 -->
<g id="edge38" class="edge">
<title>Pullback_is0functor_abses_pullback&#45;&gt;Pullback_abses_pullback0</title>
<path fill="none" stroke="#000000" d="M1032.7691,-176.9243C1059.9007,-153.6686 1107.5125,-112.8585 1137.8637,-86.8432"/>
<polygon fill="#000000" stroke="#000000" points="1140.2451,-89.4118 1145.5599,-80.2464 1135.6896,-84.097 1140.2451,-89.4118"/>
</g>
<!-- Pullback_abses_component1_trivial_pullback -->
<g id="node26" class="node">
<title>Pullback_abses_component1_trivial_pullback</title>
<g id="a_node26"><a xlink:href="Pullback.html#abses_component1_trivial_pullback" xlink:title="abses_component1_trivial_pullback">
<ellipse fill="#f070d1" stroke="#000000" cx="201" cy="-504.7264" rx="176.5782" ry="18"/>
<ellipse fill="none" stroke="#000000" cx="201" cy="-504.7264" rx="180.5735" ry="22"/>
<ellipse fill="none" stroke="#000000" cx="201" cy="-504.7264" rx="184.5689" ry="26"/>
<text text-anchor="middle" x="201" y="-501.0264" font-family="Times,serif" font-size="14.00" fill="#000000">abses_component1_trivial_pullback</text>
</a>
</g>
</g>
<!-- Pullback_abses_component1_trivial_pullback_ -->
<g id="node27" class="node">
<title>Pullback_abses_component1_trivial_pullback_</title>
<g id="a_node27"><a xlink:href="Pullback.html#abses_component1_trivial_pullback'" xlink:title="abses_component1_trivial_pullback&#39;">
<ellipse fill="#f070d1" stroke="#000000" cx="609" cy="-342.7264" rx="179.2682" ry="18"/>
<text text-anchor="middle" x="609" y="-339.0264" font-family="Times,serif" font-size="14.00" fill="#000000">abses_component1_trivial_pullback&#39;</text>
</a>
</g>
</g>
<!-- Pullback_abses_component1_trivial_pullback&#45;&gt;Pullback_abses_component1_trivial_pullback_ -->
<g id="edge39" class="edge">
<title>Pullback_abses_component1_trivial_pullback&#45;&gt;Pullback_abses_component1_trivial_pullback_</title>
<path fill="none" stroke="#000000" d="M262.9664,-480.1221C342.8132,-448.4182 480.2919,-393.8311 555.6901,-363.8935"/>
<polygon fill="#000000" stroke="#000000" points="557.0119,-367.1346 565.0144,-360.1912 554.4286,-360.6287 557.0119,-367.1346"/>
</g>
<!-- Pullback_abses_pullback_morphism_corec -->
<g id="node29" class="node">
<title>Pullback_abses_pullback_morphism_corec</title>
<g id="a_node29"><a xlink:href="Pullback.html#abses_pullback_morphism_corec" xlink:title="abses_pullback_morphism_corec">
<ellipse fill="#f070d1" stroke="#000000" cx="609" cy="-194.7264" rx="164.3708" ry="18"/>
<text text-anchor="middle" x="609" y="-191.0264" font-family="Times,serif" font-size="14.00" fill="#000000">abses_pullback_morphism_corec</text>
</a>
</g>
</g>
<!-- Pullback_abses_component1_trivial_pullback_&#45;&gt;Pullback_abses_pullback_morphism_corec -->
<g id="edge40" class="edge">
<title>Pullback_abses_component1_trivial_pullback_&#45;&gt;Pullback_abses_pullback_morphism_corec</title>
<path fill="none" stroke="#000000" d="M609,-324.5787C609,-299.2803 609,-253.1605 609,-223.2431"/>
<polygon fill="#000000" stroke="#000000" points="612.5001,-223.0225 609,-213.0225 605.5001,-223.0225 612.5001,-223.0225"/>
</g>
<!-- Pullback_abses_pullback_morphism_corec_beta -->
<g id="node28" class="node">
<title>Pullback_abses_pullback_morphism_corec_beta</title>
<g id="a_node28"><a xlink:href="Pullback.html#abses_pullback_morphism_corec_beta" xlink:title="abses_pullback_morphism_corec_beta">
<ellipse fill="#f070d1" stroke="#000000" cx="214" cy="-342.7264" rx="189.5753" ry="18"/>
<ellipse fill="none" stroke="#000000" cx="214" cy="-342.7264" rx="193.5709" ry="22"/>
<ellipse fill="none" stroke="#000000" cx="214" cy="-342.7264" rx="197.5666" ry="26"/>
<text text-anchor="middle" x="214" y="-339.0264" font-family="Times,serif" font-size="14.00" fill="#000000">abses_pullback_morphism_corec_beta</text>
</a>
</g>
</g>
<!-- Pullback_abses_pullback_morphism_corec_beta&#45;&gt;Pullback_abses_pullback_morphism_corec -->
<g id="edge41" class="edge">
<title>Pullback_abses_pullback_morphism_corec_beta&#45;&gt;Pullback_abses_pullback_morphism_corec</title>
<path fill="none" stroke="#000000" d="M279.6696,-318.121C356.0397,-289.5064 480.8092,-242.7573 552.8548,-215.7631"/>
<polygon fill="#000000" stroke="#000000" points="554.524,-218.8753 562.6603,-212.0891 552.0679,-212.3203 554.524,-218.8753"/>
</g>
<!-- Pullback_abses_pullback_morphism -->
<g id="node30" class="node">
<title>Pullback_abses_pullback_morphism</title>
<g id="a_node30"><a xlink:href="Pullback.html#abses_pullback_morphism" xlink:title="abses_pullback_morphism">
<ellipse fill="#f070d1" stroke="#000000" cx="254" cy="-194.7264" rx="133.7763" ry="18"/>
<text text-anchor="middle" x="254" y="-191.0264" font-family="Times,serif" font-size="14.00" fill="#000000">abses_pullback_morphism</text>
</a>
</g>
</g>
<!-- Pullback_abses_pullback_morphism_corec_beta&#45;&gt;Pullback_abses_pullback_morphism -->
<g id="edge42" class="edge">
<title>Pullback_abses_pullback_morphism_corec_beta&#45;&gt;Pullback_abses_pullback_morphism</title>
<path fill="none" stroke="#000000" d="M221.0591,-316.6076C228.1475,-290.3808 239.0364,-250.0916 246.333,-223.0943"/>
<polygon fill="#000000" stroke="#000000" points="249.8011,-223.6766 249.0315,-213.1097 243.0436,-221.8501 249.8011,-223.6766"/>
</g>
<!-- Pullback_abses_pullback_morphism_corec&#45;&gt;Pullback_abses_pullback0 -->
<g id="edge43" class="edge">
<title>Pullback_abses_pullback_morphism_corec&#45;&gt;Pullback_abses_pullback0</title>
<path fill="none" stroke="#000000" d="M678.1378,-178.3418C785.6724,-152.8579 991.6973,-104.0333 1098.3287,-78.7634"/>
<polygon fill="#000000" stroke="#000000" points="1099.4075,-82.1047 1108.3309,-76.393 1097.7933,-75.2934 1099.4075,-82.1047"/>
</g>
<!-- Pullback_abses_pullback_morphism&#45;&gt;Pullback_abses_pullback0 -->
<g id="edge44" class="edge">
<title>Pullback_abses_pullback_morphism&#45;&gt;Pullback_abses_pullback0</title>
<path fill="none" stroke="#000000" d="M345.2006,-181.5263C523.1212,-155.7746 913.9685,-99.2046 1084.1363,-74.5751"/>
<polygon fill="#000000" stroke="#000000" points="1084.6441,-78.0381 1094.0396,-73.1417 1083.6413,-71.1103 1084.6441,-78.0381"/>
</g>
</g>
</svg>
