<?xml version="1.0" encoding="UTF-8" standalone="no"?>
<!DOCTYPE svg PUBLIC "-//W3C//DTD SVG 1.1//EN"
 "http://www.w3.org/Graphics/SVG/1.1/DTD/svg11.dtd">
<!-- Generated by graphviz version 2.40.1 (20161225.0304)
 -->
<!-- Title: HoTT_Modalities_Separated Pages: 1 -->
<svg width="2296pt" height="1152pt"
 viewBox="0.00 0.00 2296.00 1152.00" xmlns="http://www.w3.org/2000/svg" xmlns:xlink="http://www.w3.org/1999/xlink">
<g id="graph0" class="graph" transform="scale(1 1) rotate(0) translate(4 1148)">
<title>HoTT_Modalities_Separated</title>
<polygon fill="#ffffff" stroke="transparent" points="-4,4 -4,-1148 2292,-1148 2292,4 -4,4"/>
<g id="clust1" class="cluster">
<title>cluster_Separated</title>
<polygon fill="#ffffc3" stroke="#000000" points="8,-21.4333 8,-1122.5667 2280,-1122.5667 2280,-21.4333 8,-21.4333"/>
<text text-anchor="middle" x="53" y="-1107.3667" font-family="Times,serif" font-size="14.00" fill="#000000">Separated</text>
</g>
<!-- Separated_SepO_lex_leq -->
<g id="node1" class="node">
<title>Separated_SepO_lex_leq</title>
<g id="a_node1"><a xlink:href="Separated.html#SepO_lex_leq" xlink:title="SepO_lex_leq">
<ellipse fill="#f070d1" stroke="#000000" cx="1986" cy="-734.4333" rx="73.3926" ry="18"/>
<ellipse fill="none" stroke="#000000" cx="1986" cy="-734.4333" rx="77.3898" ry="22"/>
<ellipse fill="none" stroke="#000000" cx="1986" cy="-734.4333" rx="81.387" ry="26"/>
<text text-anchor="middle" x="1986" y="-730.7333" font-family="Times,serif" font-size="14.00" fill="#000000">SepO_lex_leq</text>
</a>
</g>
</g>
<!-- Separated_jc_factor2_isemb -->
<g id="node2" class="node">
<title>Separated_jc_factor2_isemb</title>
<g id="a_node2"><a xlink:href="Separated.html#jc_factor2_isemb" xlink:title="jc_factor2_isemb">
<ellipse fill="#facdef" stroke="#000000" cx="2182" cy="-498.4333" rx="90.1842" ry="18"/>
<text text-anchor="middle" x="2182" y="-494.7333" font-family="Times,serif" font-size="14.00" fill="#000000">jc_factor2_isemb</text>
</a>
</g>
</g>
<!-- Separated_SepO_lex_leq&#45;&gt;Separated_jc_factor2_isemb -->
<g id="edge1" class="edge">
<title>Separated_SepO_lex_leq&#45;&gt;Separated_jc_factor2_isemb</title>
<path fill="none" stroke="#000000" d="M2006.9754,-709.1771C2044.5348,-663.9526 2122.8713,-569.629 2160.6791,-524.1053"/>
<polygon fill="#000000" stroke="#000000" points="2163.5515,-526.1249 2167.2481,-516.1958 2158.1665,-521.6525 2163.5515,-526.1249"/>
</g>
<!-- Separated_jc_factors -->
<g id="node4" class="node">
<title>Separated_jc_factors</title>
<g id="a_node4"><a xlink:href="Separated.html#jc_factors" xlink:title="jc_factors">
<ellipse fill="#facdef" stroke="#000000" cx="2017" cy="-498.4333" rx="56.59" ry="18"/>
<text text-anchor="middle" x="2017" y="-494.7333" font-family="Times,serif" font-size="14.00" fill="#000000">jc_factors</text>
</a>
</g>
</g>
<!-- Separated_SepO_lex_leq&#45;&gt;Separated_jc_factors -->
<g id="edge2" class="edge">
<title>Separated_SepO_lex_leq&#45;&gt;Separated_jc_factors</title>
<path fill="none" stroke="#000000" d="M1989.436,-708.2754C1995.3028,-663.6117 2007.2043,-573.0066 2013.2677,-526.8466"/>
<polygon fill="#000000" stroke="#000000" points="2016.7751,-527.0191 2014.6073,-516.6484 2009.8347,-526.1074 2016.7751,-527.0191"/>
</g>
<!-- Separated_reflectsD_SepO -->
<g id="node10" class="node">
<title>Separated_reflectsD_SepO</title>
<g id="a_node10"><a xlink:href="Separated.html#reflectsD_SepO" xlink:title="reflectsD_SepO">
<ellipse fill="#f070d1" stroke="#000000" cx="1401" cy="-498.4333" rx="83.6854" ry="18"/>
<text text-anchor="middle" x="1401" y="-494.7333" font-family="Times,serif" font-size="14.00" fill="#000000">reflectsD_SepO</text>
</a>
</g>
</g>
<!-- Separated_SepO_lex_leq&#45;&gt;Separated_reflectsD_SepO -->
<g id="edge3" class="edge">
<title>Separated_SepO_lex_leq&#45;&gt;Separated_reflectsD_SepO</title>
<path fill="none" stroke="#000000" d="M1935.3629,-714.0053C1824.2214,-669.1687 1560.0923,-562.6141 1450.243,-518.2988"/>
<polygon fill="#000000" stroke="#000000" points="1451.3101,-514.9553 1440.7269,-514.4598 1448.6912,-521.4469 1451.3101,-514.9553"/>
</g>
<!-- Separated_almost_inSepO_typeO -->
<g id="node12" class="node">
<title>Separated_almost_inSepO_typeO</title>
<g id="a_node12"><a xlink:href="Separated.html#almost_inSepO_typeO" xlink:title="almost_inSepO_typeO">
<ellipse fill="#f070d1" stroke="#000000" cx="1828" cy="-498.4333" rx="114.2798" ry="18"/>
<text text-anchor="middle" x="1828" y="-494.7333" font-family="Times,serif" font-size="14.00" fill="#000000">almost_inSepO_typeO</text>
</a>
</g>
</g>
<!-- Separated_SepO_lex_leq&#45;&gt;Separated_almost_inSepO_typeO -->
<g id="edge4" class="edge">
<title>Separated_SepO_lex_leq&#45;&gt;Separated_almost_inSepO_typeO</title>
<path fill="none" stroke="#000000" d="M1968.7905,-708.7279C1938.5727,-663.5925 1876.2882,-570.56 1845.7162,-524.8954"/>
<polygon fill="#000000" stroke="#000000" points="1848.5151,-522.7848 1840.0435,-516.4222 1842.6984,-526.6791 1848.5151,-522.7848"/>
</g>
<!-- Separated_jc_factor2 -->
<g id="node5" class="node">
<title>Separated_jc_factor2</title>
<g id="a_node5"><a xlink:href="Separated.html#jc_factor2" xlink:title="jc_factor2">
<ellipse fill="#facdef" stroke="#000000" cx="2084" cy="-284.4333" rx="57.6901" ry="18"/>
<text text-anchor="middle" x="2084" y="-280.7333" font-family="Times,serif" font-size="14.00" fill="#000000">jc_factor2</text>
</a>
</g>
</g>
<!-- Separated_jc_factor2_isemb&#45;&gt;Separated_jc_factor2 -->
<g id="edge5" class="edge">
<title>Separated_jc_factor2_isemb&#45;&gt;Separated_jc_factor2</title>
<path fill="none" stroke="#000000" d="M2173.6446,-480.1877C2156.3884,-442.5059 2116.7342,-355.914 2096.4483,-311.6163"/>
<polygon fill="#000000" stroke="#000000" points="2099.5419,-309.9655 2092.196,-302.3307 2093.1775,-312.88 2099.5419,-309.9655"/>
</g>
<!-- Separated_jc_factor1_issurj -->
<g id="node3" class="node">
<title>Separated_jc_factor1_issurj</title>
<g id="a_node3"><a xlink:href="Separated.html#jc_factor1_issurj" xlink:title="jc_factor1_issurj">
<ellipse fill="#facdef" stroke="#000000" cx="1599" cy="-498.4333" rx="88.2934" ry="18"/>
<ellipse fill="none" stroke="#000000" cx="1599" cy="-498.4333" rx="92.2889" ry="22"/>
<ellipse fill="none" stroke="#000000" cx="1599" cy="-498.4333" rx="96.2844" ry="26"/>
<text text-anchor="middle" x="1599" y="-494.7333" font-family="Times,serif" font-size="14.00" fill="#000000">jc_factor1_issurj</text>
</a>
</g>
</g>
<!-- Separated_jc_factor1 -->
<g id="node6" class="node">
<title>Separated_jc_factor1</title>
<g id="a_node6"><a xlink:href="Separated.html#jc_factor1" xlink:title="jc_factor1">
<ellipse fill="#facdef" stroke="#000000" cx="1950" cy="-284.4333" rx="57.6901" ry="18"/>
<text text-anchor="middle" x="1950" y="-280.7333" font-family="Times,serif" font-size="14.00" fill="#000000">jc_factor1</text>
</a>
</g>
</g>
<!-- Separated_jc_factor1_issurj&#45;&gt;Separated_jc_factor1 -->
<g id="edge6" class="edge">
<title>Separated_jc_factor1_issurj&#45;&gt;Separated_jc_factor1</title>
<path fill="none" stroke="#000000" d="M1638.2425,-474.5076C1707.097,-432.528 1848.612,-346.2482 1914.6306,-305.9975"/>
<polygon fill="#000000" stroke="#000000" points="1916.7134,-308.8269 1923.4296,-300.6329 1913.0694,-302.8502 1916.7134,-308.8269"/>
</g>
<!-- Separated_jc_factors&#45;&gt;Separated_jc_factor2 -->
<g id="edge7" class="edge">
<title>Separated_jc_factors&#45;&gt;Separated_jc_factor2</title>
<path fill="none" stroke="#000000" d="M2022.7124,-480.1877C2034.4558,-442.6789 2061.372,-356.7077 2075.2976,-312.2288"/>
<polygon fill="#000000" stroke="#000000" points="2078.6543,-313.2216 2078.3021,-302.6326 2071.9741,-311.13 2078.6543,-313.2216"/>
</g>
<!-- Separated_jc_factors&#45;&gt;Separated_jc_factor1 -->
<g id="edge8" class="edge">
<title>Separated_jc_factors&#45;&gt;Separated_jc_factor1</title>
<path fill="none" stroke="#000000" d="M2011.2876,-480.1877C1999.5442,-442.6789 1972.628,-356.7077 1958.7024,-312.2288"/>
<polygon fill="#000000" stroke="#000000" points="1962.0259,-311.13 1955.6979,-302.6326 1955.3457,-313.2216 1962.0259,-311.13"/>
</g>
<!-- Separated_jc_image -->
<g id="node7" class="node">
<title>Separated_jc_image</title>
<g id="a_node7"><a xlink:href="Separated.html#jc_image" xlink:title="jc_image">
<ellipse fill="#facdef" stroke="#000000" cx="2017" cy="-91.4333" rx="51.9908" ry="18"/>
<text text-anchor="middle" x="2017" y="-87.7333" font-family="Times,serif" font-size="14.00" fill="#000000">jc_image</text>
</a>
</g>
</g>
<!-- Separated_jc_factor2&#45;&gt;Separated_jc_image -->
<g id="edge9" class="edge">
<title>Separated_jc_factor2&#45;&gt;Separated_jc_image</title>
<path fill="none" stroke="#000000" d="M2077.6968,-266.2763C2065.9198,-232.3514 2040.5115,-159.1603 2026.5943,-119.0705"/>
<polygon fill="#000000" stroke="#000000" points="2029.8236,-117.7005 2023.2376,-109.4014 2023.2108,-119.9962 2029.8236,-117.7005"/>
</g>
<!-- Separated_jc_factor1&#45;&gt;Separated_jc_image -->
<g id="edge10" class="edge">
<title>Separated_jc_factor1&#45;&gt;Separated_jc_image</title>
<path fill="none" stroke="#000000" d="M1956.3032,-266.2763C1968.0802,-232.3514 1993.4885,-159.1603 2007.4057,-119.0705"/>
<polygon fill="#000000" stroke="#000000" points="2010.7892,-119.9962 2010.7624,-109.4014 2004.1764,-117.7005 2010.7892,-119.9962"/>
</g>
<!-- Separated_equiv_toSepO_inO -->
<g id="node8" class="node">
<title>Separated_equiv_toSepO_inO</title>
<g id="a_node8"><a xlink:href="Separated.html#equiv_toSepO_inO" xlink:title="equiv_toSepO_inO">
<ellipse fill="#f070d1" stroke="#000000" cx="2167" cy="-969.4333" rx="96.6951" ry="18"/>
<ellipse fill="none" stroke="#000000" cx="2167" cy="-969.4333" rx="100.6891" ry="22"/>
<ellipse fill="none" stroke="#000000" cx="2167" cy="-969.4333" rx="104.6831" ry="26"/>
<text text-anchor="middle" x="2167" y="-965.7333" font-family="Times,serif" font-size="14.00" fill="#000000">equiv_toSepO_inO</text>
</a>
</g>
</g>
<!-- Separated_isequiv_toSepO_inO -->
<g id="node9" class="node">
<title>Separated_isequiv_toSepO_inO</title>
<g id="a_node9"><a xlink:href="Separated.html#isequiv_toSepO_inO" xlink:title="isequiv_toSepO_inO">
<ellipse fill="#f070d1" stroke="#000000" cx="1721" cy="-734.4333" rx="104.7816" ry="18"/>
<text text-anchor="middle" x="1721" y="-730.7333" font-family="Times,serif" font-size="14.00" fill="#000000">isequiv_toSepO_inO</text>
</a>
</g>
</g>
<!-- Separated_equiv_toSepO_inO&#45;&gt;Separated_isequiv_toSepO_inO -->
<g id="edge11" class="edge">
<title>Separated_equiv_toSepO_inO&#45;&gt;Separated_isequiv_toSepO_inO</title>
<path fill="none" stroke="#000000" d="M2122.1938,-945.8246C2035.6435,-900.2207 1846.6129,-800.6194 1762.6352,-756.3711"/>
<polygon fill="#000000" stroke="#000000" points="1764.1233,-753.1991 1753.6447,-751.6339 1760.8602,-759.392 1764.1233,-753.1991"/>
</g>
<!-- Separated_isequiv_toSepO_inO&#45;&gt;Separated_reflectsD_SepO -->
<g id="edge12" class="edge">
<title>Separated_isequiv_toSepO_inO&#45;&gt;Separated_reflectsD_SepO</title>
<path fill="none" stroke="#000000" d="M1697.2094,-716.8877C1640.3746,-674.972 1496.6813,-568.9982 1432.642,-521.7693"/>
<polygon fill="#000000" stroke="#000000" points="1434.6386,-518.8928 1424.5131,-515.7742 1430.4838,-524.5265 1434.6386,-518.8928"/>
</g>
<!-- Separated_inSepO_sigma -->
<g id="node11" class="node">
<title>Separated_inSepO_sigma</title>
<g id="a_node11"><a xlink:href="Separated.html#inSepO_sigma" xlink:title="inSepO_sigma">
<ellipse fill="#f070d1" stroke="#000000" cx="1401" cy="-284.4333" rx="77.1866" ry="18"/>
<text text-anchor="middle" x="1401" y="-280.7333" font-family="Times,serif" font-size="14.00" fill="#000000">inSepO_sigma</text>
</a>
</g>
</g>
<!-- Separated_reflectsD_SepO&#45;&gt;Separated_inSepO_sigma -->
<g id="edge13" class="edge">
<title>Separated_reflectsD_SepO&#45;&gt;Separated_inSepO_sigma</title>
<path fill="none" stroke="#000000" d="M1401,-480.1877C1401,-442.8368 1401,-357.4308 1401,-312.7929"/>
<polygon fill="#000000" stroke="#000000" points="1404.5001,-312.6326 1401,-302.6326 1397.5001,-312.6326 1404.5001,-312.6326"/>
</g>
<!-- Separated_issurjective_to_SepO -->
<g id="node13" class="node">
<title>Separated_issurjective_to_SepO</title>
<g id="a_node13"><a xlink:href="Separated.html#issurjective_to_SepO" xlink:title="issurjective_to_SepO">
<ellipse fill="#f070d1" stroke="#000000" cx="1927" cy="-969.4333" rx="109.3679" ry="18"/>
<ellipse fill="none" stroke="#000000" cx="1927" cy="-969.4333" rx="113.3744" ry="22"/>
<ellipse fill="none" stroke="#000000" cx="1927" cy="-969.4333" rx="117.3809" ry="26"/>
<text text-anchor="middle" x="1927" y="-965.7333" font-family="Times,serif" font-size="14.00" fill="#000000">issurjective_to_SepO</text>
</a>
</g>
</g>
<!-- Separated_in_SepO_embedding -->
<g id="node17" class="node">
<title>Separated_in_SepO_embedding</title>
<g id="a_node17"><a xlink:href="Separated.html#in_SepO_embedding" xlink:title="in_SepO_embedding">
<ellipse fill="#f070d1" stroke="#000000" cx="1461" cy="-734.4333" rx="106.6812" ry="18"/>
<text text-anchor="middle" x="1461" y="-730.7333" font-family="Times,serif" font-size="14.00" fill="#000000">in_SepO_embedding</text>
</a>
</g>
</g>
<!-- Separated_issurjective_to_SepO&#45;&gt;Separated_in_SepO_embedding -->
<g id="edge14" class="edge">
<title>Separated_issurjective_to_SepO&#45;&gt;Separated_in_SepO_embedding</title>
<path fill="none" stroke="#000000" d="M1879.753,-945.607C1789.0005,-899.8412 1591.5597,-800.2735 1504.1384,-756.1876"/>
<polygon fill="#000000" stroke="#000000" points="1505.5358,-752.9725 1495.0309,-751.5948 1502.3838,-759.2227 1505.5358,-752.9725"/>
</g>
<!-- Separated_sigma_closed_SepO -->
<g id="node14" class="node">
<title>Separated_sigma_closed_SepO</title>
<g id="a_node14"><a xlink:href="Separated.html#sigma_closed_SepO" xlink:title="sigma_closed_SepO">
<ellipse fill="#f070d1" stroke="#000000" cx="1680" cy="-969.4333" rx="103.1933" ry="18"/>
<ellipse fill="none" stroke="#000000" cx="1680" cy="-969.4333" rx="107.1876" ry="22"/>
<ellipse fill="none" stroke="#000000" cx="1680" cy="-969.4333" rx="111.1819" ry="26"/>
<text text-anchor="middle" x="1680" y="-965.7333" font-family="Times,serif" font-size="14.00" fill="#000000">sigma_closed_SepO</text>
</a>
</g>
</g>
<!-- Separated_in_SepO_hprop -->
<g id="node15" class="node">
<title>Separated_in_SepO_hprop</title>
<g id="a_node15"><a xlink:href="Separated.html#in_SepO_hprop" xlink:title="in_SepO_hprop">
<ellipse fill="#f070d1" stroke="#000000" cx="1461" cy="-969.4333" rx="81.7951" ry="18"/>
<ellipse fill="none" stroke="#000000" cx="1461" cy="-969.4333" rx="85.7904" ry="22"/>
<ellipse fill="none" stroke="#000000" cx="1461" cy="-969.4333" rx="89.7856" ry="26"/>
<text text-anchor="middle" x="1461" y="-965.7333" font-family="Times,serif" font-size="14.00" fill="#000000">in_SepO_hprop</text>
</a>
</g>
</g>
<!-- Separated_in_SepO_hprop&#45;&gt;Separated_in_SepO_embedding -->
<g id="edge15" class="edge">
<title>Separated_in_SepO_hprop&#45;&gt;Separated_in_SepO_embedding</title>
<path fill="none" stroke="#000000" d="M1461,-943.3863C1461,-898.9118 1461,-808.6906 1461,-762.7262"/>
<polygon fill="#000000" stroke="#000000" points="1464.5001,-762.5712 1461,-752.5712 1457.5001,-762.5712 1464.5001,-762.5712"/>
</g>
<!-- Separated_istrunc_embedding_trunc -->
<g id="node16" class="node">
<title>Separated_istrunc_embedding_trunc</title>
<g id="a_node16"><a xlink:href="Separated.html#istrunc_embedding_trunc" xlink:title="istrunc_embedding_trunc">
<ellipse fill="#f070d1" stroke="#000000" cx="1214" cy="-969.4333" rx="130.769" ry="18"/>
<ellipse fill="none" stroke="#000000" cx="1214" cy="-969.4333" rx="134.773" ry="22"/>
<ellipse fill="none" stroke="#000000" cx="1214" cy="-969.4333" rx="138.777" ry="26"/>
<text text-anchor="middle" x="1214" y="-965.7333" font-family="Times,serif" font-size="14.00" fill="#000000">istrunc_embedding_trunc</text>
</a>
</g>
</g>
<!-- Separated_istrunc_embedding_trunc&#45;&gt;Separated_in_SepO_embedding -->
<g id="edge16" class="edge">
<title>Separated_istrunc_embedding_trunc&#45;&gt;Separated_in_SepO_embedding</title>
<path fill="none" stroke="#000000" d="M1240.9035,-943.8368C1288.6347,-898.4245 1387.5454,-804.3192 1434.7818,-759.3777"/>
<polygon fill="#000000" stroke="#000000" points="1437.3402,-761.7746 1442.1726,-752.346 1432.5151,-756.7032 1437.3402,-761.7746"/>
</g>
<!-- Separated_O_leq_SepO -->
<g id="node18" class="node">
<title>Separated_O_leq_SepO</title>
<g id="a_node18"><a xlink:href="Separated.html#O_leq_SepO" xlink:title="O_leq_SepO">
<ellipse fill="#f070d1" stroke="#000000" cx="982" cy="-969.4333" rx="67.6782" ry="18"/>
<ellipse fill="none" stroke="#000000" cx="982" cy="-969.4333" rx="71.6831" ry="22"/>
<ellipse fill="none" stroke="#000000" cx="982" cy="-969.4333" rx="75.6881" ry="26"/>
<text text-anchor="middle" x="982" y="-965.7333" font-family="Times,serif" font-size="14.00" fill="#000000">O_leq_SepO</text>
</a>
</g>
</g>
<!-- Separated_isaccmodality_sep -->
<g id="node19" class="node">
<title>Separated_isaccmodality_sep</title>
<g id="a_node19"><a xlink:href="Separated.html#isaccmodality_sep" xlink:title="isaccmodality_sep">
<ellipse fill="#f070d1" stroke="#000000" cx="784" cy="-969.4333" rx="96.3686" ry="18"/>
<ellipse fill="none" stroke="#000000" cx="784" cy="-969.4333" rx="100.3759" ry="22"/>
<ellipse fill="none" stroke="#000000" cx="784" cy="-969.4333" rx="104.3833" ry="26"/>
<text text-anchor="middle" x="784" y="-965.7333" font-family="Times,serif" font-size="14.00" fill="#000000">isaccmodality_sep</text>
</a>
</g>
</g>
<!-- Separated_susp_nullgen -->
<g id="node20" class="node">
<title>Separated_susp_nullgen</title>
<g id="a_node20"><a xlink:href="Separated.html#susp_nullgen" xlink:title="susp_nullgen">
<ellipse fill="#f070d1" stroke="#000000" cx="784" cy="-734.4333" rx="71.4873" ry="18"/>
<text text-anchor="middle" x="784" y="-730.7333" font-family="Times,serif" font-size="14.00" fill="#000000">susp_nullgen</text>
</a>
</g>
</g>
<!-- Separated_isaccmodality_sep&#45;&gt;Separated_susp_nullgen -->
<g id="edge17" class="edge">
<title>Separated_isaccmodality_sep&#45;&gt;Separated_susp_nullgen</title>
<path fill="none" stroke="#000000" d="M784,-943.3863C784,-898.9118 784,-808.6906 784,-762.7262"/>
<polygon fill="#000000" stroke="#000000" points="787.5001,-762.5712 784,-752.5712 780.5001,-762.5712 787.5001,-762.5712"/>
</g>
<!-- Separated_isaccrsu_sep -->
<g id="node21" class="node">
<title>Separated_isaccrsu_sep</title>
<g id="a_node21"><a xlink:href="Separated.html#isaccrsu_sep" xlink:title="isaccrsu_sep">
<ellipse fill="#f070d1" stroke="#000000" cx="583" cy="-969.4333" rx="70.7036" ry="18"/>
<ellipse fill="none" stroke="#000000" cx="583" cy="-969.4333" rx="74.6957" ry="22"/>
<ellipse fill="none" stroke="#000000" cx="583" cy="-969.4333" rx="78.6877" ry="26"/>
<text text-anchor="middle" x="583" y="-965.7333" font-family="Times,serif" font-size="14.00" fill="#000000">isaccrsu_sep</text>
</a>
</g>
</g>
<!-- Separated_susp_localgen -->
<g id="node22" class="node">
<title>Separated_susp_localgen</title>
<g id="a_node22"><a xlink:href="Separated.html#susp_localgen" xlink:title="susp_localgen">
<ellipse fill="#f070d1" stroke="#000000" cx="583" cy="-734.4333" rx="76.0865" ry="18"/>
<text text-anchor="middle" x="583" y="-730.7333" font-family="Times,serif" font-size="14.00" fill="#000000">susp_localgen</text>
</a>
</g>
</g>
<!-- Separated_isaccrsu_sep&#45;&gt;Separated_susp_localgen -->
<g id="edge18" class="edge">
<title>Separated_isaccrsu_sep&#45;&gt;Separated_susp_localgen</title>
<path fill="none" stroke="#000000" d="M583,-943.3863C583,-898.9118 583,-808.6906 583,-762.7262"/>
<polygon fill="#000000" stroke="#000000" points="586.5001,-762.5712 583,-752.5712 579.5001,-762.5712 586.5001,-762.5712"/>
</g>
<!-- Separated_mapinO_from_diagonal -->
<g id="node23" class="node">
<title>Separated_mapinO_from_diagonal</title>
<g id="a_node23"><a xlink:href="Separated.html#mapinO_from_diagonal" xlink:title="mapinO_from_diagonal">
<ellipse fill="#f070d1" stroke="#000000" cx="360" cy="-969.4333" rx="118.0927" ry="18"/>
<ellipse fill="none" stroke="#000000" cx="360" cy="-969.4333" rx="122.086" ry="22"/>
<ellipse fill="none" stroke="#000000" cx="360" cy="-969.4333" rx="126.0794" ry="26"/>
<text text-anchor="middle" x="360" y="-965.7333" font-family="Times,serif" font-size="14.00" fill="#000000">mapinO_from_diagonal</text>
</a>
</g>
</g>
<!-- Separated_mapinO_diagonal -->
<g id="node24" class="node">
<title>Separated_mapinO_diagonal</title>
<g id="a_node24"><a xlink:href="Separated.html#mapinO_diagonal" xlink:title="mapinO_diagonal">
<ellipse fill="#f070d1" stroke="#000000" cx="116" cy="-969.4333" rx="91.7725" ry="18"/>
<ellipse fill="none" stroke="#000000" cx="116" cy="-969.4333" rx="95.7782" ry="22"/>
<ellipse fill="none" stroke="#000000" cx="116" cy="-969.4333" rx="99.7839" ry="26"/>
<text text-anchor="middle" x="116" y="-965.7333" font-family="Times,serif" font-size="14.00" fill="#000000">mapinO_diagonal</text>
</a>
</g>
</g>
</g>
</svg>
