<?xml version="1.0" encoding="UTF-8" standalone="no"?>
<!DOCTYPE svg PUBLIC "-//W3C//DTD SVG 1.1//EN"
 "http://www.w3.org/Graphics/SVG/1.1/DTD/svg11.dtd">
<!-- Generated by graphviz version 2.40.1 (20161225.0304)
 -->
<!-- Title: HoTT_Spaces_Finite_Fin Pages: 1 -->
<svg width="3166pt" height="1587pt"
 viewBox="0.00 0.00 3166.00 1587.00" xmlns="http://www.w3.org/2000/svg" xmlns:xlink="http://www.w3.org/1999/xlink">
<g id="graph0" class="graph" transform="scale(1 1) rotate(0) translate(4 1583)">
<title>HoTT_Spaces_Finite_Fin</title>
<polygon fill="#ffffff" stroke="transparent" points="-4,4 -4,-1583 3162,-1583 3162,4 -4,4"/>
<g id="clust1" class="cluster">
<title>cluster_Fin</title>
<polygon fill="#ffffc3" stroke="#000000" points="8,-15.4237 8,-1563.5763 3150,-1563.5763 3150,-15.4237 8,-15.4237"/>
<text text-anchor="middle" x="28" y="-1548.3763" font-family="Times,serif" font-size="14.00" fill="#000000">Fin</text>
</g>
<!-- Fin_sperners_lemma_1d -->
<g id="node1" class="node">
<title>Fin_sperners_lemma_1d</title>
<g id="a_node1"><a xlink:href="Fin.html#sperners_lemma_1d" xlink:title="sperners_lemma_1d">
<ellipse fill="#f070d1" stroke="#000000" cx="1985" cy="-389.4237" rx="104.7716" ry="18"/>
<ellipse fill="none" stroke="#000000" cx="1985" cy="-389.4237" rx="108.7766" ry="22"/>
<ellipse fill="none" stroke="#000000" cx="1985" cy="-389.4237" rx="112.7816" ry="26"/>
<text text-anchor="middle" x="1985" y="-385.7237" font-family="Times,serif" font-size="14.00" fill="#000000">sperners_lemma_1d</text>
</a>
</g>
</g>
<!-- Fin_fsucc -->
<g id="node34" class="node">
<title>Fin_fsucc</title>
<g id="a_node34"><a xlink:href="Fin.html#fsucc" xlink:title="fsucc">
<ellipse fill="#f070d1" stroke="#000000" cx="1715" cy="-219.4237" rx="35.9954" ry="18"/>
<text text-anchor="middle" x="1715" y="-215.7237" font-family="Times,serif" font-size="14.00" fill="#000000">fsucc</text>
</a>
</g>
</g>
<!-- Fin_sperners_lemma_1d&#45;&gt;Fin_fsucc -->
<g id="edge1" class="edge">
<title>Fin_sperners_lemma_1d&#45;&gt;Fin_fsucc</title>
<path fill="none" stroke="#000000" d="M1946.028,-364.8858C1891.9981,-330.8669 1795.4201,-270.0586 1745.9968,-238.9402"/>
<polygon fill="#000000" stroke="#000000" points="1747.6652,-235.8547 1737.338,-233.4883 1743.9355,-241.7783 1747.6652,-235.8547"/>
</g>
<!-- Fin_fin_incl -->
<g id="node35" class="node">
<title>Fin_fin_incl</title>
<g id="a_node35"><a xlink:href="Fin.html#fin_incl" xlink:title="fin_incl">
<ellipse fill="#f070d1" stroke="#000000" cx="1814" cy="-219.4237" rx="44.6926" ry="18"/>
<text text-anchor="middle" x="1814" y="-215.7237" font-family="Times,serif" font-size="14.00" fill="#000000">fin_incl</text>
</a>
</g>
</g>
<!-- Fin_sperners_lemma_1d&#45;&gt;Fin_fin_incl -->
<g id="edge2" class="edge">
<title>Fin_sperners_lemma_1d&#45;&gt;Fin_fin_incl</title>
<path fill="none" stroke="#000000" d="M1959.3996,-363.973C1926.6225,-331.3876 1870.2432,-275.338 1838.1704,-243.4527"/>
<polygon fill="#000000" stroke="#000000" points="1840.5094,-240.8428 1830.95,-236.2746 1835.5742,-245.807 1840.5094,-240.8428"/>
</g>
<!-- Fin_fin_last -->
<g id="node36" class="node">
<title>Fin_fin_last</title>
<g id="a_node36"><a xlink:href="Fin.html#fin_last" xlink:title="fin_last">
<ellipse fill="#f070d1" stroke="#000000" cx="2036" cy="-219.4237" rx="44.6926" ry="18"/>
<text text-anchor="middle" x="2036" y="-215.7237" font-family="Times,serif" font-size="14.00" fill="#000000">fin_last</text>
</a>
</g>
</g>
<!-- Fin_sperners_lemma_1d&#45;&gt;Fin_fin_last -->
<g id="edge3" class="edge">
<title>Fin_sperners_lemma_1d&#45;&gt;Fin_fin_last</title>
<path fill="none" stroke="#000000" d="M1992.857,-363.2337C2002.2865,-331.802 2018.0292,-279.3264 2027.6659,-247.2041"/>
<polygon fill="#000000" stroke="#000000" points="2031.0432,-248.1264 2030.5644,-237.5424 2024.3384,-246.1149 2031.0432,-248.1264"/>
</g>
<!-- Fin_fin_zero -->
<g id="node37" class="node">
<title>Fin_fin_zero</title>
<g id="a_node37"><a xlink:href="Fin.html#fin_zero" xlink:title="fin_zero">
<ellipse fill="#f070d1" stroke="#000000" cx="1925" cy="-219.4237" rx="48.1917" ry="18"/>
<text text-anchor="middle" x="1925" y="-215.7237" font-family="Times,serif" font-size="14.00" fill="#000000">fin_zero</text>
</a>
</g>
</g>
<!-- Fin_sperners_lemma_1d&#45;&gt;Fin_fin_zero -->
<g id="edge4" class="edge">
<title>Fin_sperners_lemma_1d&#45;&gt;Fin_fin_zero</title>
<path fill="none" stroke="#000000" d="M1975.7565,-363.2337C1964.663,-331.802 1946.1421,-279.3264 1934.8048,-247.2041"/>
<polygon fill="#000000" stroke="#000000" points="1938.0236,-245.8074 1931.3948,-237.5424 1931.4226,-248.1372 1938.0236,-245.8074"/>
</g>
<!-- Fin_fin_nat -->
<g id="node2" class="node">
<title>Fin_fin_nat</title>
<g id="a_node2"><a xlink:href="Fin.html#fin_nat" xlink:title="fin_nat">
<ellipse fill="#f070d1" stroke="#000000" cx="1794" cy="-559.4237" rx="42.8089" ry="18"/>
<ellipse fill="none" stroke="#000000" cx="1794" cy="-559.4237" rx="46.8007" ry="22"/>
<ellipse fill="none" stroke="#000000" cx="1794" cy="-559.4237" rx="50.7926" ry="26"/>
<text text-anchor="middle" x="1794" y="-555.7237" font-family="Times,serif" font-size="14.00" fill="#000000">fin_nat</text>
</a>
</g>
</g>
<!-- Fin_fsucc_mod -->
<g id="node3" class="node">
<title>Fin_fsucc_mod</title>
<g id="a_node3"><a xlink:href="Fin.html#fsucc_mod" xlink:title="fsucc_mod">
<ellipse fill="#f070d1" stroke="#000000" cx="1794" cy="-389.4237" rx="60.3893" ry="18"/>
<text text-anchor="middle" x="1794" y="-385.7237" font-family="Times,serif" font-size="14.00" fill="#000000">fsucc_mod</text>
</a>
</g>
</g>
<!-- Fin_fin_nat&#45;&gt;Fin_fsucc_mod -->
<g id="edge5" class="edge">
<title>Fin_fin_nat&#45;&gt;Fin_fsucc_mod</title>
<path fill="none" stroke="#000000" d="M1794,-533.2337C1794,-501.9381 1794,-449.7803 1794,-417.6224"/>
<polygon fill="#000000" stroke="#000000" points="1797.5001,-417.5424 1794,-407.5424 1790.5001,-417.5424 1797.5001,-417.5424"/>
</g>
<!-- Fin_fsucc_mod&#45;&gt;Fin_fsucc -->
<g id="edge6" class="edge">
<title>Fin_fsucc_mod&#45;&gt;Fin_fsucc</title>
<path fill="none" stroke="#000000" d="M1785.6949,-371.552C1771.79,-341.6301 1743.7252,-281.2375 1727.45,-246.2149"/>
<polygon fill="#000000" stroke="#000000" points="1730.5821,-244.6495 1723.1938,-237.0559 1724.2341,-247.5996 1730.5821,-244.6495"/>
</g>
<!-- Fin_fsucc_mod&#45;&gt;Fin_fin_zero -->
<g id="edge7" class="edge">
<title>Fin_fsucc_mod&#45;&gt;Fin_fin_zero</title>
<path fill="none" stroke="#000000" d="M1807.5259,-371.871C1830.7277,-341.7618 1878.2127,-280.14 1905.1651,-245.1637"/>
<polygon fill="#000000" stroke="#000000" points="1908.2162,-246.9383 1911.5477,-236.8809 1902.6714,-242.6656 1908.2162,-246.9383"/>
</g>
<!-- Fin_nat_fin_compl_compl -->
<g id="node4" class="node">
<title>Fin_nat_fin_compl_compl</title>
<g id="a_node4"><a xlink:href="Fin.html#nat_fin_compl_compl" xlink:title="nat_fin_compl_compl">
<ellipse fill="#f070d1" stroke="#000000" cx="3025" cy="-389.4237" rx="109.3679" ry="18"/>
<ellipse fill="none" stroke="#000000" cx="3025" cy="-389.4237" rx="113.3744" ry="22"/>
<ellipse fill="none" stroke="#000000" cx="3025" cy="-389.4237" rx="117.3809" ry="26"/>
<text text-anchor="middle" x="3025" y="-385.7237" font-family="Times,serif" font-size="14.00" fill="#000000">nat_fin_compl_compl</text>
</a>
</g>
</g>
<!-- Fin_nat_fin_compl -->
<g id="node5" class="node">
<title>Fin_nat_fin_compl</title>
<g id="a_node5"><a xlink:href="Fin.html#nat_fin_compl" xlink:title="nat_fin_compl">
<ellipse fill="#f070d1" stroke="#000000" cx="2992" cy="-219.4237" rx="76.0865" ry="18"/>
<text text-anchor="middle" x="2992" y="-215.7237" font-family="Times,serif" font-size="14.00" fill="#000000">nat_fin_compl</text>
</a>
</g>
</g>
<!-- Fin_nat_fin_compl_compl&#45;&gt;Fin_nat_fin_compl -->
<g id="edge8" class="edge">
<title>Fin_nat_fin_compl_compl&#45;&gt;Fin_nat_fin_compl</title>
<path fill="none" stroke="#000000" d="M3019.9161,-363.2337C3013.841,-331.9381 3003.7163,-279.7803 2997.4739,-247.6224"/>
<polygon fill="#000000" stroke="#000000" points="3000.8587,-246.6922 2995.5172,-237.5424 2993.987,-248.0262 3000.8587,-246.6922"/>
</g>
<!-- Fin_nat_fin -->
<g id="node7" class="node">
<title>Fin_nat_fin</title>
<g id="a_node7"><a xlink:href="Fin.html#nat_fin" xlink:title="nat_fin">
<ellipse fill="#f070d1" stroke="#000000" cx="2822" cy="-219.4237" rx="42.7926" ry="18"/>
<text text-anchor="middle" x="2822" y="-215.7237" font-family="Times,serif" font-size="14.00" fill="#000000">nat_fin</text>
</a>
</g>
</g>
<!-- Fin_nat_fin_compl_compl&#45;&gt;Fin_nat_fin -->
<g id="edge9" class="edge">
<title>Fin_nat_fin_compl_compl&#45;&gt;Fin_nat_fin</title>
<path fill="none" stroke="#000000" d="M2994.6088,-363.973C2955.2254,-330.9917 2887.138,-273.9728 2849.3188,-242.3015"/>
<polygon fill="#000000" stroke="#000000" points="2851.1968,-239.309 2841.2829,-235.5719 2846.7025,-244.6757 2851.1968,-239.309"/>
</g>
<!-- Fin_Fin -->
<g id="node43" class="node">
<title>Fin_Fin</title>
<g id="a_node43"><a xlink:href="Fin.html#Fin" xlink:title="Fin">
<ellipse fill="#f070d1" stroke="#000000" cx="1764" cy="-65.4237" rx="27" ry="18"/>
<text text-anchor="middle" x="1764" y="-61.7237" font-family="Times,serif" font-size="14.00" fill="#000000">Fin</text>
</a>
</g>
</g>
<!-- Fin_nat_fin_compl&#45;&gt;Fin_Fin -->
<g id="edge10" class="edge">
<title>Fin_nat_fin_compl&#45;&gt;Fin_Fin</title>
<path fill="none" stroke="#000000" d="M2938.7704,-206.4857C2918.5745,-201.8961 2895.3104,-196.9906 2874,-193.4237 2455.8499,-123.4345 1942.6401,-79.6552 1801.4566,-68.3458"/>
<polygon fill="#000000" stroke="#000000" points="1801.4342,-64.833 1791.1879,-67.5281 1800.8785,-71.8109 1801.4342,-64.833"/>
</g>
<!-- Fin_nat_fin_inl -->
<g id="node6" class="node">
<title>Fin_nat_fin_inl</title>
<g id="a_node6"><a xlink:href="Fin.html#nat_fin_inl" xlink:title="nat_fin_inl">
<ellipse fill="#f070d1" stroke="#000000" cx="2822" cy="-389.4237" rx="59.6142" ry="18"/>
<ellipse fill="none" stroke="#000000" cx="2822" cy="-389.4237" rx="63.6021" ry="22"/>
<ellipse fill="none" stroke="#000000" cx="2822" cy="-389.4237" rx="67.59" ry="26"/>
<text text-anchor="middle" x="2822" y="-385.7237" font-family="Times,serif" font-size="14.00" fill="#000000">nat_fin_inl</text>
</a>
</g>
</g>
<!-- Fin_nat_fin_inl&#45;&gt;Fin_nat_fin -->
<g id="edge11" class="edge">
<title>Fin_nat_fin_inl&#45;&gt;Fin_nat_fin</title>
<path fill="none" stroke="#000000" d="M2822,-363.2337C2822,-331.9381 2822,-279.7803 2822,-247.6224"/>
<polygon fill="#000000" stroke="#000000" points="2825.5001,-247.5424 2822,-237.5424 2818.5001,-247.5424 2825.5001,-247.5424"/>
</g>
<!-- Fin_nat_fin&#45;&gt;Fin_Fin -->
<g id="edge12" class="edge">
<title>Fin_nat_fin&#45;&gt;Fin_Fin</title>
<path fill="none" stroke="#000000" d="M2781.1734,-213.4811C2611.3527,-188.7624 1962.2445,-94.2797 1800.6142,-70.7532"/>
<polygon fill="#000000" stroke="#000000" points="1801.083,-67.2846 1790.6831,-69.3076 1800.0747,-74.2116 1801.083,-67.2846"/>
</g>
<!-- Fin_nat_eq_fin_equiv -->
<g id="node8" class="node">
<title>Fin_nat_eq_fin_equiv</title>
<g id="a_node8"><a xlink:href="Fin.html#nat_eq_fin_equiv" xlink:title="nat_eq_fin_equiv">
<ellipse fill="#f070d1" stroke="#000000" cx="364" cy="-1145.4237" rx="89.0807" ry="18"/>
<ellipse fill="none" stroke="#000000" cx="364" cy="-1145.4237" rx="93.0825" ry="22"/>
<ellipse fill="none" stroke="#000000" cx="364" cy="-1145.4237" rx="97.0842" ry="26"/>
<text text-anchor="middle" x="364" y="-1141.7237" font-family="Times,serif" font-size="14.00" fill="#000000">nat_eq_fin_equiv</text>
</a>
</g>
</g>
<!-- Fin_fin_equiv_inv -->
<g id="node14" class="node">
<title>Fin_fin_equiv_inv</title>
<g id="a_node14"><a xlink:href="Fin.html#fin_equiv_inv" xlink:title="fin_equiv_inv">
<ellipse fill="#f070d1" stroke="#000000" cx="314" cy="-991.4237" rx="72.2875" ry="18"/>
<text text-anchor="middle" x="314" y="-987.7237" font-family="Times,serif" font-size="14.00" fill="#000000">fin_equiv_inv</text>
</a>
</g>
</g>
<!-- Fin_nat_eq_fin_equiv&#45;&gt;Fin_fin_equiv_inv -->
<g id="edge13" class="edge">
<title>Fin_nat_eq_fin_equiv&#45;&gt;Fin_fin_equiv_inv</title>
<path fill="none" stroke="#000000" d="M355.5182,-1119.2997C346.4857,-1091.4798 332.2463,-1047.6224 323.0151,-1019.1901"/>
<polygon fill="#000000" stroke="#000000" points="326.2767,-1017.9016 319.8596,-1009.4712 319.6188,-1020.0633 326.2767,-1017.9016"/>
</g>
<!-- Fin_equiv_fin_equiv -->
<g id="node9" class="node">
<title>Fin_equiv_fin_equiv</title>
<g id="a_node9"><a xlink:href="Fin.html#equiv_fin_equiv" xlink:title="equiv_fin_equiv">
<ellipse fill="#f070d1" stroke="#000000" cx="164" cy="-1453.4237" rx="83.3687" ry="18"/>
<ellipse fill="none" stroke="#000000" cx="164" cy="-1453.4237" rx="87.3772" ry="22"/>
<ellipse fill="none" stroke="#000000" cx="164" cy="-1453.4237" rx="91.3856" ry="26"/>
<text text-anchor="middle" x="164" y="-1449.7237" font-family="Times,serif" font-size="14.00" fill="#000000">equiv_fin_equiv</text>
</a>
</g>
</g>
<!-- Fin_isequiv_fin_equiv -->
<g id="node10" class="node">
<title>Fin_isequiv_fin_equiv</title>
<g id="a_node10"><a xlink:href="Fin.html#isequiv_fin_equiv" xlink:title="isequiv_fin_equiv">
<ellipse fill="#f070d1" stroke="#000000" cx="164" cy="-1299.4237" rx="90.9839" ry="18"/>
<text text-anchor="middle" x="164" y="-1295.7237" font-family="Times,serif" font-size="14.00" fill="#000000">isequiv_fin_equiv</text>
</a>
</g>
</g>
<!-- Fin_equiv_fin_equiv&#45;&gt;Fin_isequiv_fin_equiv -->
<g id="edge14" class="edge">
<title>Fin_equiv_fin_equiv&#45;&gt;Fin_isequiv_fin_equiv</title>
<path fill="none" stroke="#000000" d="M164,-1427.2997C164,-1399.6018 164,-1356.0068 164,-1327.5651"/>
<polygon fill="#000000" stroke="#000000" points="167.5001,-1327.4712 164,-1317.4712 160.5001,-1327.4713 167.5001,-1327.4712"/>
</g>
<!-- Fin_fin_equiv_inj_snd -->
<g id="node11" class="node">
<title>Fin_fin_equiv_inj_snd</title>
<g id="a_node11"><a xlink:href="Fin.html#fin_equiv_inj_snd" xlink:title="fin_equiv_inj_snd">
<ellipse fill="#f070d1" stroke="#000000" cx="429" cy="-713.4237" rx="90.9839" ry="18"/>
<text text-anchor="middle" x="429" y="-709.7237" font-family="Times,serif" font-size="14.00" fill="#000000">fin_equiv_inj_snd</text>
</a>
</g>
</g>
<!-- Fin_isequiv_fin_equiv&#45;&gt;Fin_fin_equiv_inj_snd -->
<g id="edge15" class="edge">
<title>Fin_isequiv_fin_equiv&#45;&gt;Fin_fin_equiv_inj_snd</title>
<path fill="none" stroke="#000000" d="M243.417,-1290.5672C316.1617,-1277.7751 419.9023,-1246.6836 470,-1171.4237 562.0802,-1033.0949 477.3125,-816.9168 442.4104,-740.9426"/>
<polygon fill="#000000" stroke="#000000" points="445.4375,-739.1532 438.0314,-731.5769 439.0964,-742.1181 445.4375,-739.1532"/>
</g>
<!-- Fin_fin_equiv_inj_fst -->
<g id="node12" class="node">
<title>Fin_fin_equiv_inj_fst</title>
<g id="a_node12"><a xlink:href="Fin.html#fin_equiv_inj_fst" xlink:title="fin_equiv_inj_fst">
<ellipse fill="#f070d1" stroke="#000000" cx="103" cy="-713.4237" rx="87.1846" ry="18"/>
<text text-anchor="middle" x="103" y="-709.7237" font-family="Times,serif" font-size="14.00" fill="#000000">fin_equiv_inj_fst</text>
</a>
</g>
</g>
<!-- Fin_isequiv_fin_equiv&#45;&gt;Fin_fin_equiv_inj_fst -->
<g id="edge16" class="edge">
<title>Fin_isequiv_fin_equiv&#45;&gt;Fin_fin_equiv_inj_fst</title>
<path fill="none" stroke="#000000" d="M145.0503,-1281.6792C122.1254,-1258.7777 84.7693,-1216.487 70,-1171.4237 18.8846,-1015.4629 71.3254,-814.1439 93.821,-741.2863"/>
<polygon fill="#000000" stroke="#000000" points="97.2407,-742.0792 96.9069,-731.4897 90.5641,-739.9761 97.2407,-742.0792"/>
</g>
<!-- Fin_fin_equiv_issect -->
<g id="node13" class="node">
<title>Fin_fin_equiv_issect</title>
<g id="a_node13"><a xlink:href="Fin.html#fin_equiv_issect" xlink:title="fin_equiv_issect">
<ellipse fill="#f070d1" stroke="#000000" cx="164" cy="-1145.4237" rx="85.2851" ry="18"/>
<text text-anchor="middle" x="164" y="-1141.7237" font-family="Times,serif" font-size="14.00" fill="#000000">fin_equiv_issect</text>
</a>
</g>
</g>
<!-- Fin_isequiv_fin_equiv&#45;&gt;Fin_fin_equiv_issect -->
<g id="edge17" class="edge">
<title>Fin_isequiv_fin_equiv&#45;&gt;Fin_fin_equiv_issect</title>
<path fill="none" stroke="#000000" d="M164,-1281.1531C164,-1254.6404 164,-1205.2568 164,-1173.9307"/>
<polygon fill="#000000" stroke="#000000" points="167.5001,-1173.6704 164,-1163.6705 160.5001,-1173.6705 167.5001,-1173.6704"/>
</g>
<!-- Fin_fin_equiv -->
<g id="node17" class="node">
<title>Fin_fin_equiv</title>
<g id="a_node17"><a xlink:href="Fin.html#fin_equiv" xlink:title="fin_equiv">
<ellipse fill="#f070d1" stroke="#000000" cx="69" cy="-559.4237" rx="53.0913" ry="18"/>
<text text-anchor="middle" x="69" y="-555.7237" font-family="Times,serif" font-size="14.00" fill="#000000">fin_equiv</text>
</a>
</g>
</g>
<!-- Fin_fin_equiv_inj_snd&#45;&gt;Fin_fin_equiv -->
<g id="edge18" class="edge">
<title>Fin_fin_equiv_inj_snd&#45;&gt;Fin_fin_equiv</title>
<path fill="none" stroke="#000000" d="M390.4737,-696.943C322.6507,-667.9298 182.4361,-607.9491 111.7375,-577.7058"/>
<polygon fill="#000000" stroke="#000000" points="112.8084,-574.3572 102.2377,-573.642 110.0552,-580.7931 112.8084,-574.3572"/>
</g>
<!-- Fin_fin_transpose_last_with_last -->
<g id="node22" class="node">
<title>Fin_fin_transpose_last_with_last</title>
<g id="a_node22"><a xlink:href="Fin.html#fin_transpose_last_with_last" xlink:title="fin_transpose_last_with_last">
<ellipse fill="#f070d1" stroke="#000000" cx="283" cy="-559.4237" rx="142.9746" ry="18"/>
<text text-anchor="middle" x="283" y="-555.7237" font-family="Times,serif" font-size="14.00" fill="#000000">fin_transpose_last_with_last</text>
</a>
</g>
</g>
<!-- Fin_fin_equiv_inj_snd&#45;&gt;Fin_fin_transpose_last_with_last -->
<g id="edge19" class="edge">
<title>Fin_fin_equiv_inj_snd&#45;&gt;Fin_fin_transpose_last_with_last</title>
<path fill="none" stroke="#000000" d="M411.9662,-695.4565C386.1701,-668.2469 337.0721,-616.4586 307.4604,-585.2244"/>
<polygon fill="#000000" stroke="#000000" points="309.7979,-582.6028 300.3779,-577.7538 304.718,-587.4189 309.7979,-582.6028"/>
</g>
<!-- Fin_fin_equiv_inj_fst&#45;&gt;Fin_fin_equiv -->
<g id="edge20" class="edge">
<title>Fin_fin_equiv_inj_fst&#45;&gt;Fin_fin_equiv</title>
<path fill="none" stroke="#000000" d="M98.9662,-695.1531C93.0872,-668.5246 82.1146,-618.8251 75.2034,-587.5214"/>
<polygon fill="#000000" stroke="#000000" points="78.6022,-586.6807 73.0285,-577.6705 71.7668,-588.1899 78.6022,-586.6807"/>
</g>
<!-- Fin_fin_equiv_inj_fst&#45;&gt;Fin_fin_transpose_last_with_last -->
<g id="edge21" class="edge">
<title>Fin_fin_equiv_inj_fst&#45;&gt;Fin_fin_transpose_last_with_last</title>
<path fill="none" stroke="#000000" d="M123.6483,-695.7579C155.7566,-668.2875 217.7459,-615.2522 254.2234,-584.0437"/>
<polygon fill="#000000" stroke="#000000" points="256.7149,-586.5183 262.0381,-577.3578 252.1642,-581.1993 256.7149,-586.5183"/>
</g>
<!-- Fin_fin_equiv_issect&#45;&gt;Fin_fin_equiv_inv -->
<g id="edge22" class="edge">
<title>Fin_fin_equiv_issect&#45;&gt;Fin_fin_equiv_inv</title>
<path fill="none" stroke="#000000" d="M181.2069,-1127.7579C207.739,-1100.5183 258.7551,-1048.1417 289.2487,-1016.835"/>
<polygon fill="#000000" stroke="#000000" points="292.0615,-1018.9634 296.5317,-1009.3578 287.047,-1014.0792 292.0615,-1018.9634"/>
</g>
<!-- Fin_fin_equiv_hfiber -->
<g id="node15" class="node">
<title>Fin_fin_equiv_hfiber</title>
<g id="a_node15"><a xlink:href="Fin.html#fin_equiv_hfiber" xlink:title="fin_equiv_hfiber">
<ellipse fill="#f070d1" stroke="#000000" cx="314" cy="-852.4237" rx="85.5853" ry="18"/>
<text text-anchor="middle" x="314" y="-848.7237" font-family="Times,serif" font-size="14.00" fill="#000000">fin_equiv_hfiber</text>
</a>
</g>
</g>
<!-- Fin_fin_equiv_inv&#45;&gt;Fin_fin_equiv_hfiber -->
<g id="edge23" class="edge">
<title>Fin_fin_equiv_inv&#45;&gt;Fin_fin_equiv_hfiber</title>
<path fill="none" stroke="#000000" d="M314,-973.2519C314,-949.7344 314,-908.5009 314,-880.8295"/>
<polygon fill="#000000" stroke="#000000" points="317.5001,-880.5999 314,-870.6 310.5001,-880.6 317.5001,-880.5999"/>
</g>
<!-- Fin_fin_equiv_ -->
<g id="node16" class="node">
<title>Fin_fin_equiv_</title>
<g id="a_node16"><a xlink:href="Fin.html#fin_equiv'" xlink:title="fin_equiv&#39;">
<ellipse fill="#f070d1" stroke="#000000" cx="264" cy="-713.4237" rx="55.7903" ry="18"/>
<text text-anchor="middle" x="264" y="-709.7237" font-family="Times,serif" font-size="14.00" fill="#000000">fin_equiv&#39;</text>
</a>
</g>
</g>
<!-- Fin_fin_equiv_hfiber&#45;&gt;Fin_fin_equiv_ -->
<g id="edge24" class="edge">
<title>Fin_fin_equiv_hfiber&#45;&gt;Fin_fin_equiv_</title>
<path fill="none" stroke="#000000" d="M307.4634,-834.2519C298.929,-810.5263 283.9086,-768.7697 273.9548,-741.098"/>
<polygon fill="#000000" stroke="#000000" points="277.2165,-739.825 270.5382,-731.6 270.6297,-742.1944 277.2165,-739.825"/>
</g>
<!-- Fin_fin_transpose_last_with_invol -->
<g id="node18" class="node">
<title>Fin_fin_transpose_last_with_invol</title>
<g id="a_node18"><a xlink:href="Fin.html#fin_transpose_last_with_invol" xlink:title="fin_transpose_last_with_invol">
<ellipse fill="#f070d1" stroke="#000000" cx="819" cy="-713.4237" rx="148.3739" ry="18"/>
<text text-anchor="middle" x="819" y="-709.7237" font-family="Times,serif" font-size="14.00" fill="#000000">fin_transpose_last_with_invol</text>
</a>
</g>
</g>
<!-- Fin_fin_equiv_hfiber&#45;&gt;Fin_fin_transpose_last_with_invol -->
<g id="edge25" class="edge">
<title>Fin_fin_equiv_hfiber&#45;&gt;Fin_fin_transpose_last_with_invol</title>
<path fill="none" stroke="#000000" d="M366.1418,-838.0718C457.5685,-812.9068 646.806,-760.8197 749.3343,-732.599"/>
<polygon fill="#000000" stroke="#000000" points="750.2669,-735.9725 758.9795,-729.9442 748.4092,-729.2235 750.2669,-735.9725"/>
</g>
<!-- Fin_fin_equiv_&#45;&gt;Fin_fin_equiv -->
<g id="edge26" class="edge">
<title>Fin_fin_equiv_&#45;&gt;Fin_fin_equiv</title>
<path fill="none" stroke="#000000" d="M242.7604,-696.6498C207.7413,-668.9938 137.8272,-613.7796 98.1889,-582.4754"/>
<polygon fill="#000000" stroke="#000000" points="100.2305,-579.6279 90.2134,-576.1769 95.892,-585.1214 100.2305,-579.6279"/>
</g>
<!-- Fin_fin_transpose_last_with -->
<g id="node23" class="node">
<title>Fin_fin_transpose_last_with</title>
<g id="a_node23"><a xlink:href="Fin.html#fin_transpose_last_with" xlink:title="fin_transpose_last_with">
<ellipse fill="#f070d1" stroke="#000000" cx="805" cy="-389.4237" rx="120.7786" ry="18"/>
<text text-anchor="middle" x="805" y="-385.7237" font-family="Times,serif" font-size="14.00" fill="#000000">fin_transpose_last_with</text>
</a>
</g>
</g>
<!-- Fin_fin_equiv&#45;&gt;Fin_fin_transpose_last_with -->
<g id="edge27" class="edge">
<title>Fin_fin_equiv&#45;&gt;Fin_fin_transpose_last_with</title>
<path fill="none" stroke="#000000" d="M100.7549,-544.7685C110.3374,-540.7124 120.9762,-536.566 131,-533.4237 187.2598,-515.7871 556.4166,-439.9488 723.3123,-405.9842"/>
<polygon fill="#000000" stroke="#000000" points="724.1814,-409.3792 733.283,-403.956 722.7859,-402.5197 724.1814,-409.3792"/>
</g>
<!-- Fin_fin_transpose_last_with_last_other -->
<g id="node19" class="node">
<title>Fin_fin_transpose_last_with_last_other</title>
<g id="a_node19"><a xlink:href="Fin.html#fin_transpose_last_with_last_other" xlink:title="fin_transpose_last_with_last_other">
<ellipse fill="#f070d1" stroke="#000000" cx="617" cy="-559.4237" rx="172.7694" ry="18"/>
<text text-anchor="middle" x="617" y="-555.7237" font-family="Times,serif" font-size="14.00" fill="#000000">fin_transpose_last_with_last_other</text>
</a>
</g>
</g>
<!-- Fin_fin_transpose_last_with_invol&#45;&gt;Fin_fin_transpose_last_with_last_other -->
<g id="edge28" class="edge">
<title>Fin_fin_transpose_last_with_invol&#45;&gt;Fin_fin_transpose_last_with_last_other</title>
<path fill="none" stroke="#000000" d="M795.4327,-695.4565C759.0181,-667.6949 689.0427,-614.3473 648.3828,-583.3492"/>
<polygon fill="#000000" stroke="#000000" points="650.4917,-580.5559 640.4172,-577.2764 646.2477,-586.1226 650.4917,-580.5559"/>
</g>
<!-- Fin_fin_transpose_last_with_rest -->
<g id="node20" class="node">
<title>Fin_fin_transpose_last_with_rest</title>
<g id="a_node20"><a xlink:href="Fin.html#fin_transpose_last_with_rest" xlink:title="fin_transpose_last_with_rest">
<ellipse fill="#f070d1" stroke="#000000" cx="952" cy="-559.4237" rx="144.0747" ry="18"/>
<text text-anchor="middle" x="952" y="-555.7237" font-family="Times,serif" font-size="14.00" fill="#000000">fin_transpose_last_with_rest</text>
</a>
</g>
</g>
<!-- Fin_fin_transpose_last_with_invol&#45;&gt;Fin_fin_transpose_last_with_rest -->
<g id="edge29" class="edge">
<title>Fin_fin_transpose_last_with_invol&#45;&gt;Fin_fin_transpose_last_with_rest</title>
<path fill="none" stroke="#000000" d="M834.5171,-695.4565C857.9167,-668.3622 902.3639,-616.8971 929.3737,-585.6225"/>
<polygon fill="#000000" stroke="#000000" points="932.2821,-587.6097 936.1695,-577.7538 926.9844,-583.0343 932.2821,-587.6097"/>
</g>
<!-- Fin_fin_transpose_last_with_with -->
<g id="node21" class="node">
<title>Fin_fin_transpose_last_with_with</title>
<g id="a_node21"><a xlink:href="Fin.html#fin_transpose_last_with_with" xlink:title="fin_transpose_last_with_with">
<ellipse fill="#f070d1" stroke="#000000" cx="1261" cy="-559.4237" rx="146.4744" ry="18"/>
<text text-anchor="middle" x="1261" y="-555.7237" font-family="Times,serif" font-size="14.00" fill="#000000">fin_transpose_last_with_with</text>
</a>
</g>
</g>
<!-- Fin_fin_transpose_last_with_invol&#45;&gt;Fin_fin_transpose_last_with_with -->
<g id="edge30" class="edge">
<title>Fin_fin_transpose_last_with_invol&#45;&gt;Fin_fin_transpose_last_with_with</title>
<path fill="none" stroke="#000000" d="M867.9905,-696.3546C949.9904,-667.7845 1114.6726,-610.4066 1202.5739,-579.7803"/>
<polygon fill="#000000" stroke="#000000" points="1203.8357,-583.0471 1212.1273,-576.4517 1201.5325,-576.4368 1203.8357,-583.0471"/>
</g>
<!-- Fin_fin_transpose_last_with_invol&#45;&gt;Fin_fin_transpose_last_with_last -->
<g id="edge31" class="edge">
<title>Fin_fin_transpose_last_with_invol&#45;&gt;Fin_fin_transpose_last_with_last</title>
<path fill="none" stroke="#000000" d="M761.1293,-696.7967C661.1154,-668.0613 456.4701,-609.264 350.28,-578.7541"/>
<polygon fill="#000000" stroke="#000000" points="351.2064,-575.3788 340.6287,-575.9812 349.2734,-582.1066 351.2064,-575.3788"/>
</g>
<!-- Fin_decidablepaths_fin -->
<g id="node40" class="node">
<title>Fin_decidablepaths_fin</title>
<g id="a_node40"><a xlink:href="Fin.html#decidablepaths_fin" xlink:title="decidablepaths_fin">
<ellipse fill="#f070d1" stroke="#000000" cx="1388" cy="-219.4237" rx="98.5829" ry="18"/>
<text text-anchor="middle" x="1388" y="-215.7237" font-family="Times,serif" font-size="14.00" fill="#000000">decidablepaths_fin</text>
</a>
</g>
</g>
<!-- Fin_fin_transpose_last_with_invol&#45;&gt;Fin_decidablepaths_fin -->
<g id="edge32" class="edge">
<title>Fin_fin_transpose_last_with_invol&#45;&gt;Fin_decidablepaths_fin</title>
<path fill="none" stroke="#000000" d="M947.3726,-704.3623C1104.8908,-690.2624 1358.235,-656.8867 1416,-585.4237 1484.3138,-500.9105 1305.3378,-487.6387 1271,-415.4237 1240.1605,-350.5657 1311.6134,-279.3147 1355.9885,-243.2229"/>
<polygon fill="#000000" stroke="#000000" points="1358.2845,-245.8688 1363.9284,-236.9024 1353.9248,-240.3922 1358.2845,-245.8688"/>
</g>
<!-- Fin_fin_transpose_last_with_last_other&#45;&gt;Fin_fin_transpose_last_with -->
<g id="edge33" class="edge">
<title>Fin_fin_transpose_last_with_last_other&#45;&gt;Fin_fin_transpose_last_with</title>
<path fill="none" stroke="#000000" d="M637.1193,-541.2307C670.9895,-510.6034 739.4311,-448.7147 777.6373,-414.1665"/>
<polygon fill="#000000" stroke="#000000" points="780.2381,-416.5335 785.3079,-407.2304 775.5432,-411.3414 780.2381,-416.5335"/>
</g>
<!-- Fin_fin_transpose_last_with_rest&#45;&gt;Fin_fin_transpose_last_with -->
<g id="edge34" class="edge">
<title>Fin_fin_transpose_last_with_rest&#45;&gt;Fin_fin_transpose_last_with</title>
<path fill="none" stroke="#000000" d="M936.2684,-541.2307C910.075,-510.939 857.4389,-450.0673 827.3857,-415.312"/>
<polygon fill="#000000" stroke="#000000" points="829.8068,-412.7608 820.6185,-407.4859 824.5118,-417.3394 829.8068,-412.7608"/>
</g>
<!-- Fin_fin_transpose_last_with_with&#45;&gt;Fin_fin_transpose_last_with -->
<g id="edge35" class="edge">
<title>Fin_fin_transpose_last_with_with&#45;&gt;Fin_fin_transpose_last_with</title>
<path fill="none" stroke="#000000" d="M1214.7668,-542.1876C1130.0034,-510.5872 950.1274,-443.5282 859.5412,-409.757"/>
<polygon fill="#000000" stroke="#000000" points="860.5964,-406.4151 850.0037,-406.2014 858.1511,-412.9742 860.5964,-406.4151"/>
</g>
<!-- Fin_fin_transpose_last_with_last&#45;&gt;Fin_fin_transpose_last_with -->
<g id="edge36" class="edge">
<title>Fin_fin_transpose_last_with_last&#45;&gt;Fin_fin_transpose_last_with</title>
<path fill="none" stroke="#000000" d="M334.9598,-542.5019C432.2646,-510.8126 641.4379,-442.691 744.744,-409.0473"/>
<polygon fill="#000000" stroke="#000000" points="745.979,-412.3261 754.4036,-405.9014 743.8113,-405.6702 745.979,-412.3261"/>
</g>
<!-- Fin_fin_transpose_last_two -->
<g id="node27" class="node">
<title>Fin_fin_transpose_last_two</title>
<g id="a_node27"><a xlink:href="Fin.html#fin_transpose_last_two" xlink:title="fin_transpose_last_two">
<ellipse fill="#f070d1" stroke="#000000" cx="1123" cy="-219.4237" rx="117.7793" ry="18"/>
<text text-anchor="middle" x="1123" y="-215.7237" font-family="Times,serif" font-size="14.00" fill="#000000">fin_transpose_last_two</text>
</a>
</g>
</g>
<!-- Fin_fin_transpose_last_with&#45;&gt;Fin_fin_transpose_last_two -->
<g id="edge37" class="edge">
<title>Fin_fin_transpose_last_with&#45;&gt;Fin_fin_transpose_last_two</title>
<path fill="none" stroke="#000000" d="M837.5371,-372.0296C895.6243,-340.9767 1017.0814,-276.0468 1081.2359,-241.7504"/>
<polygon fill="#000000" stroke="#000000" points="1083.1023,-244.7214 1090.2712,-236.9202 1079.8021,-238.5482 1083.1023,-244.7214"/>
</g>
<!-- Fin_fin_transpose_last_two_rest -->
<g id="node24" class="node">
<title>Fin_fin_transpose_last_two_rest</title>
<g id="a_node24"><a xlink:href="Fin.html#fin_transpose_last_two_rest" xlink:title="fin_transpose_last_two_rest">
<ellipse fill="#f070d1" stroke="#000000" cx="1093" cy="-389.4237" rx="141.073" ry="18"/>
<ellipse fill="none" stroke="#000000" cx="1093" cy="-389.4237" rx="145.074" ry="22"/>
<ellipse fill="none" stroke="#000000" cx="1093" cy="-389.4237" rx="149.075" ry="26"/>
<text text-anchor="middle" x="1093" y="-385.7237" font-family="Times,serif" font-size="14.00" fill="#000000">fin_transpose_last_two_rest</text>
</a>
</g>
</g>
<!-- Fin_fin_transpose_last_two_rest&#45;&gt;Fin_fin_transpose_last_two -->
<g id="edge38" class="edge">
<title>Fin_fin_transpose_last_two_rest&#45;&gt;Fin_fin_transpose_last_two</title>
<path fill="none" stroke="#000000" d="M1097.6218,-363.2337C1103.1445,-331.9381 1112.3488,-279.7803 1118.0238,-247.6224"/>
<polygon fill="#000000" stroke="#000000" points="1121.5114,-247.9985 1119.8026,-237.5424 1114.6179,-246.782 1121.5114,-247.9985"/>
</g>
<!-- Fin_fin_transpose_last_two_nextlast -->
<g id="node25" class="node">
<title>Fin_fin_transpose_last_two_nextlast</title>
<g id="a_node25"><a xlink:href="Fin.html#fin_transpose_last_two_nextlast" xlink:title="fin_transpose_last_two_nextlast">
<ellipse fill="#f070d1" stroke="#000000" cx="498" cy="-389.4237" rx="159.7771" ry="18"/>
<ellipse fill="none" stroke="#000000" cx="498" cy="-389.4237" rx="163.7744" ry="22"/>
<ellipse fill="none" stroke="#000000" cx="498" cy="-389.4237" rx="167.7717" ry="26"/>
<text text-anchor="middle" x="498" y="-385.7237" font-family="Times,serif" font-size="14.00" fill="#000000">fin_transpose_last_two_nextlast</text>
</a>
</g>
</g>
<!-- Fin_fin_transpose_last_two_nextlast&#45;&gt;Fin_fin_transpose_last_two -->
<g id="edge39" class="edge">
<title>Fin_fin_transpose_last_two_nextlast&#45;&gt;Fin_fin_transpose_last_two</title>
<path fill="none" stroke="#000000" d="M581.3182,-366.7611C706.2927,-332.7681 939.8862,-269.2306 1055.1336,-237.8834"/>
<polygon fill="#000000" stroke="#000000" points="1056.1725,-241.228 1064.9033,-235.226 1054.3352,-234.4734 1056.1725,-241.228"/>
</g>
<!-- Fin_fin_transpose_last_two_last -->
<g id="node26" class="node">
<title>Fin_fin_transpose_last_two_last</title>
<g id="a_node26"><a xlink:href="Fin.html#fin_transpose_last_two_last" xlink:title="fin_transpose_last_two_last">
<ellipse fill="#f070d1" stroke="#000000" cx="164" cy="-389.4237" rx="139.9627" ry="18"/>
<ellipse fill="none" stroke="#000000" cx="164" cy="-389.4237" rx="143.9691" ry="22"/>
<ellipse fill="none" stroke="#000000" cx="164" cy="-389.4237" rx="147.9756" ry="26"/>
<text text-anchor="middle" x="164" y="-385.7237" font-family="Times,serif" font-size="14.00" fill="#000000">fin_transpose_last_two_last</text>
</a>
</g>
</g>
<!-- Fin_fin_transpose_last_two_last&#45;&gt;Fin_fin_transpose_last_two -->
<g id="edge40" class="edge">
<title>Fin_fin_transpose_last_two_last&#45;&gt;Fin_fin_transpose_last_two</title>
<path fill="none" stroke="#000000" d="M270.6931,-371.376C462.4881,-338.8631 858.3464,-271.4203 996,-245.4237 1011.3293,-242.5287 1027.6683,-239.2952 1043.3462,-236.1188"/>
<polygon fill="#000000" stroke="#000000" points="1044.4357,-239.4689 1053.5362,-234.0439 1043.0389,-232.6097 1044.4357,-239.4689"/>
</g>
<!-- Fin_fin_transpose_last_two&#45;&gt;Fin_Fin -->
<g id="edge41" class="edge">
<title>Fin_fin_transpose_last_two&#45;&gt;Fin_Fin</title>
<path fill="none" stroke="#000000" d="M1186.2158,-204.2361C1319.2008,-172.2865 1624.1932,-99.0122 1728.3635,-73.9853"/>
<polygon fill="#000000" stroke="#000000" points="1729.4649,-77.3204 1738.3706,-71.5812 1727.8296,-70.5141 1729.4649,-77.3204"/>
</g>
<!-- Fin_path_nat_fin_last -->
<g id="node28" class="node">
<title>Fin_path_nat_fin_last</title>
<g id="a_node28"><a xlink:href="Fin.html#path_nat_fin_last" xlink:title="path_nat_fin_last">
<ellipse fill="#f070d1" stroke="#000000" cx="2637" cy="-389.4237" rx="90.9845" ry="18"/>
<ellipse fill="none" stroke="#000000" cx="2637" cy="-389.4237" rx="94.9842" ry="22"/>
<ellipse fill="none" stroke="#000000" cx="2637" cy="-389.4237" rx="98.9839" ry="26"/>
<text text-anchor="middle" x="2637" y="-385.7237" font-family="Times,serif" font-size="14.00" fill="#000000">path_nat_fin_last</text>
</a>
</g>
</g>
<!-- Fin_path_nat_fin_last&#45;&gt;Fin_fin_last -->
<g id="edge42" class="edge">
<title>Fin_path_nat_fin_last&#45;&gt;Fin_fin_last</title>
<path fill="none" stroke="#000000" d="M2569.5167,-370.3352C2446.3836,-335.5056 2188.2338,-262.4848 2082.5836,-232.6004"/>
<polygon fill="#000000" stroke="#000000" points="2083.4203,-229.1998 2072.8451,-229.8458 2081.5149,-235.9355 2083.4203,-229.1998"/>
</g>
<!-- Fin_fin_to_nat -->
<g id="node42" class="node">
<title>Fin_fin_to_nat</title>
<g id="a_node42"><a xlink:href="Fin.html#fin_to_nat" xlink:title="fin_to_nat">
<ellipse fill="#f070d1" stroke="#000000" cx="2312" cy="-219.4237" rx="57.3905" ry="18"/>
<text text-anchor="middle" x="2312" y="-215.7237" font-family="Times,serif" font-size="14.00" fill="#000000">fin_to_nat</text>
</a>
</g>
</g>
<!-- Fin_path_nat_fin_last&#45;&gt;Fin_fin_to_nat -->
<g id="edge43" class="edge">
<title>Fin_path_nat_fin_last&#45;&gt;Fin_fin_to_nat</title>
<path fill="none" stroke="#000000" d="M2592.4916,-366.1424C2528.3328,-332.5824 2410.9324,-271.173 2350.3794,-239.4991"/>
<polygon fill="#000000" stroke="#000000" points="2352.0015,-236.3977 2341.5183,-234.864 2348.757,-242.6004 2352.0015,-236.3977"/>
</g>
<!-- Fin_path_nat_fin_zero -->
<g id="node29" class="node">
<title>Fin_path_nat_fin_zero</title>
<g id="a_node29"><a xlink:href="Fin.html#path_nat_fin_zero" xlink:title="path_nat_fin_zero">
<ellipse fill="#f070d1" stroke="#000000" cx="2418" cy="-389.4237" rx="93.6762" ry="18"/>
<ellipse fill="none" stroke="#000000" cx="2418" cy="-389.4237" rx="97.6799" ry="22"/>
<ellipse fill="none" stroke="#000000" cx="2418" cy="-389.4237" rx="101.6835" ry="26"/>
<text text-anchor="middle" x="2418" y="-385.7237" font-family="Times,serif" font-size="14.00" fill="#000000">path_nat_fin_zero</text>
</a>
</g>
</g>
<!-- Fin_path_nat_fin_zero&#45;&gt;Fin_fin_zero -->
<g id="edge44" class="edge">
<title>Fin_path_nat_fin_zero&#45;&gt;Fin_fin_zero</title>
<path fill="none" stroke="#000000" d="M2351.0907,-369.8076C2264.8185,-343.9514 2110.5877,-295.8125 1982,-245.4237 1976.0852,-243.1059 1969.9024,-240.4924 1963.8817,-237.8387"/>
<polygon fill="#000000" stroke="#000000" points="1965.1716,-234.5812 1954.6159,-233.6723 1962.3009,-240.9655 1965.1716,-234.5812"/>
</g>
<!-- Fin_path_nat_fin_zero&#45;&gt;Fin_fin_to_nat -->
<g id="edge45" class="edge">
<title>Fin_path_nat_fin_zero&#45;&gt;Fin_fin_to_nat</title>
<path fill="none" stroke="#000000" d="M2401.9009,-363.6043C2382.0808,-331.8175 2348.5926,-278.1099 2328.5623,-245.9859"/>
<polygon fill="#000000" stroke="#000000" points="2331.3111,-243.7793 2323.0501,-237.1455 2325.3712,-247.483 2331.3111,-243.7793"/>
</g>
<!-- Fin_path_nat_fsucc -->
<g id="node30" class="node">
<title>Fin_path_nat_fsucc</title>
<g id="a_node30"><a xlink:href="Fin.html#path_nat_fsucc" xlink:title="path_nat_fsucc">
<ellipse fill="#f070d1" stroke="#000000" cx="1625" cy="-559.4237" rx="81.4644" ry="18"/>
<ellipse fill="none" stroke="#000000" cx="1625" cy="-559.4237" rx="85.4753" ry="22"/>
<ellipse fill="none" stroke="#000000" cx="1625" cy="-559.4237" rx="89.4862" ry="26"/>
<text text-anchor="middle" x="1625" y="-555.7237" font-family="Times,serif" font-size="14.00" fill="#000000">path_nat_fsucc</text>
</a>
</g>
</g>
<!-- Fin_path_nat_fin_incl -->
<g id="node31" class="node">
<title>Fin_path_nat_fin_incl</title>
<g id="a_node31"><a xlink:href="Fin.html#path_nat_fin_incl" xlink:title="path_nat_fin_incl">
<ellipse fill="#f070d1" stroke="#000000" cx="2207" cy="-389.4237" rx="90.9839" ry="18"/>
<text text-anchor="middle" x="2207" y="-385.7237" font-family="Times,serif" font-size="14.00" fill="#000000">path_nat_fin_incl</text>
</a>
</g>
</g>
<!-- Fin_path_nat_fsucc&#45;&gt;Fin_path_nat_fin_incl -->
<g id="edge46" class="edge">
<title>Fin_path_nat_fsucc&#45;&gt;Fin_path_nat_fin_incl</title>
<path fill="none" stroke="#000000" d="M1688.1144,-540.9882C1800.8037,-508.0721 2035.1922,-439.6081 2146.1948,-407.1846"/>
<polygon fill="#000000" stroke="#000000" points="2147.2839,-410.5129 2155.9015,-404.3494 2145.3212,-403.7936 2147.2839,-410.5129"/>
</g>
<!-- Fin_path_fin_fsucc_incl -->
<g id="node32" class="node">
<title>Fin_path_fin_fsucc_incl</title>
<g id="a_node32"><a xlink:href="Fin.html#path_fin_fsucc_incl" xlink:title="path_fin_fsucc_incl">
<ellipse fill="#f070d1" stroke="#000000" cx="1615" cy="-389.4237" rx="100.9827" ry="18"/>
<text text-anchor="middle" x="1615" y="-385.7237" font-family="Times,serif" font-size="14.00" fill="#000000">path_fin_fsucc_incl</text>
</a>
</g>
</g>
<!-- Fin_path_nat_fsucc&#45;&gt;Fin_path_fin_fsucc_incl -->
<g id="edge47" class="edge">
<title>Fin_path_nat_fsucc&#45;&gt;Fin_path_fin_fsucc_incl</title>
<path fill="none" stroke="#000000" d="M1623.4594,-533.2337C1621.6185,-501.9381 1618.5504,-449.7803 1616.6587,-417.6224"/>
<polygon fill="#000000" stroke="#000000" points="1620.1471,-417.3196 1616.0658,-407.5424 1613.1592,-417.7307 1620.1471,-417.3196"/>
</g>
<!-- Fin_path_nat_fin_incl&#45;&gt;Fin_fin_incl -->
<g id="edge48" class="edge">
<title>Fin_path_nat_fin_incl&#45;&gt;Fin_fin_incl</title>
<path fill="none" stroke="#000000" d="M2167.0717,-373.1764C2103.4166,-347.1147 1975.1799,-293.9578 1868,-245.4237 1862.6565,-243.004 1857.0477,-240.3891 1851.5496,-237.7824"/>
<polygon fill="#000000" stroke="#000000" points="1852.9991,-234.596 1842.4676,-233.4391 1849.979,-240.911 1852.9991,-234.596"/>
</g>
<!-- Fin_path_nat_fin_incl&#45;&gt;Fin_fin_to_nat -->
<g id="edge49" class="edge">
<title>Fin_path_nat_fin_incl&#45;&gt;Fin_fin_to_nat</title>
<path fill="none" stroke="#000000" d="M2218.0384,-371.552C2236.5502,-341.5804 2273.9447,-281.0371 2295.56,-246.0409"/>
<polygon fill="#000000" stroke="#000000" points="2298.6748,-247.6582 2300.952,-237.311 2292.7192,-243.9797 2298.6748,-247.6582"/>
</g>
<!-- Fin_path_fin_fsucc_incl&#45;&gt;Fin_fsucc -->
<g id="edge50" class="edge">
<title>Fin_path_fin_fsucc_incl&#45;&gt;Fin_fsucc</title>
<path fill="none" stroke="#000000" d="M1625.7018,-371.2307C1643.4626,-341.0373 1679.0949,-280.4623 1699.5719,-245.6514"/>
<polygon fill="#000000" stroke="#000000" points="1702.6214,-247.3703 1704.6749,-236.9764 1696.5879,-243.8211 1702.6214,-247.3703"/>
</g>
<!-- Fin_path_fin_fsucc_incl&#45;&gt;Fin_fin_incl -->
<g id="edge51" class="edge">
<title>Fin_path_fin_fsucc_incl&#45;&gt;Fin_fin_incl</title>
<path fill="none" stroke="#000000" d="M1635.9204,-371.552C1672.2367,-340.528 1746.8974,-276.7475 1787.0443,-242.4512"/>
<polygon fill="#000000" stroke="#000000" points="1789.4966,-244.9595 1794.8266,-235.803 1784.9499,-239.6371 1789.4966,-244.9595"/>
</g>
<!-- Fin_isembedding_fsucc -->
<g id="node33" class="node">
<title>Fin_isembedding_fsucc</title>
<g id="a_node33"><a xlink:href="Fin.html#isembedding_fsucc" xlink:title="isembedding_fsucc">
<ellipse fill="#f070d1" stroke="#000000" cx="1388" cy="-389.4237" rx="100.1756" ry="18"/>
<ellipse fill="none" stroke="#000000" cx="1388" cy="-389.4237" rx="104.1789" ry="22"/>
<ellipse fill="none" stroke="#000000" cx="1388" cy="-389.4237" rx="108.1823" ry="26"/>
<text text-anchor="middle" x="1388" y="-385.7237" font-family="Times,serif" font-size="14.00" fill="#000000">isembedding_fsucc</text>
</a>
</g>
</g>
<!-- Fin_isembedding_fsucc&#45;&gt;Fin_fsucc -->
<g id="edge52" class="edge">
<title>Fin_isembedding_fsucc&#45;&gt;Fin_fsucc</title>
<path fill="none" stroke="#000000" d="M1433.4679,-365.7859C1499.766,-331.319 1621.5059,-268.0292 1680.7739,-237.2171"/>
<polygon fill="#000000" stroke="#000000" points="1682.4734,-240.2783 1689.7316,-232.5602 1679.2445,-234.0675 1682.4734,-240.2783"/>
</g>
<!-- Fin_isembedding_fsucc&#45;&gt;Fin_decidablepaths_fin -->
<g id="edge53" class="edge">
<title>Fin_isembedding_fsucc&#45;&gt;Fin_decidablepaths_fin</title>
<path fill="none" stroke="#000000" d="M1388,-363.2337C1388,-331.9381 1388,-279.7803 1388,-247.6224"/>
<polygon fill="#000000" stroke="#000000" points="1391.5001,-247.5424 1388,-237.5424 1384.5001,-247.5424 1391.5001,-247.5424"/>
</g>
<!-- Fin_fsucc&#45;&gt;Fin_Fin -->
<g id="edge54" class="edge">
<title>Fin_fsucc&#45;&gt;Fin_Fin</title>
<path fill="none" stroke="#000000" d="M1720.7168,-201.4565C1729.1997,-174.7961 1745.1905,-124.5392 1755.181,-93.1404"/>
<polygon fill="#000000" stroke="#000000" points="1758.6227,-93.8669 1758.3196,-83.2764 1751.9522,-91.7444 1758.6227,-93.8669"/>
</g>
<!-- Fin_fin_incl&#45;&gt;Fin_Fin -->
<g id="edge55" class="edge">
<title>Fin_fin_incl&#45;&gt;Fin_Fin</title>
<path fill="none" stroke="#000000" d="M1808.1665,-201.4565C1799.5105,-174.7961 1783.1934,-124.5392 1772.9989,-93.1404"/>
<polygon fill="#000000" stroke="#000000" points="1776.2134,-91.7068 1769.7963,-83.2764 1769.5555,-93.8685 1776.2134,-91.7068"/>
</g>
<!-- Fin_fin_last&#45;&gt;Fin_Fin -->
<g id="edge56" class="edge">
<title>Fin_fin_last&#45;&gt;Fin_Fin</title>
<path fill="none" stroke="#000000" d="M2009.9195,-204.6575C1959.1178,-175.8948 1847.1979,-112.5284 1793.662,-82.2176"/>
<polygon fill="#000000" stroke="#000000" points="1795.1027,-79.0113 1784.6762,-77.1301 1791.6538,-85.1027 1795.1027,-79.0113"/>
</g>
<!-- Fin_fin_zero&#45;&gt;Fin_Fin -->
<g id="edge57" class="edge">
<title>Fin_fin_zero&#45;&gt;Fin_Fin</title>
<path fill="none" stroke="#000000" d="M1907.4637,-202.6498C1878.1889,-174.6478 1819.378,-118.394 1786.8833,-87.312"/>
<polygon fill="#000000" stroke="#000000" points="1789.25,-84.7325 1779.6043,-80.3495 1784.4114,-89.791 1789.25,-84.7325"/>
</g>
<!-- Fin_fin_empty -->
<g id="node38" class="node">
<title>Fin_fin_empty</title>
<g id="a_node38"><a xlink:href="Fin.html#fin_empty" xlink:title="fin_empty">
<ellipse fill="#f070d1" stroke="#000000" cx="922" cy="-219.4237" rx="57.3664" ry="18"/>
<ellipse fill="none" stroke="#000000" cx="922" cy="-219.4237" rx="61.3784" ry="22"/>
<ellipse fill="none" stroke="#000000" cx="922" cy="-219.4237" rx="65.3904" ry="26"/>
<text text-anchor="middle" x="922" y="-215.7237" font-family="Times,serif" font-size="14.00" fill="#000000">fin_empty</text>
</a>
</g>
</g>
<!-- Fin_fin_empty&#45;&gt;Fin_Fin -->
<g id="edge58" class="edge">
<title>Fin_fin_empty&#45;&gt;Fin_Fin</title>
<path fill="none" stroke="#000000" d="M969.3959,-201.4132C978.1606,-198.4719 987.2955,-195.6604 996,-193.4237 1272.4857,-122.3794 1615.4551,-81.4416 1727.0558,-69.2863"/>
<polygon fill="#000000" stroke="#000000" points="1727.5569,-72.7526 1737.1236,-68.1998 1726.8058,-65.793 1727.5569,-72.7526"/>
</g>
<!-- Fin_contr_fin1 -->
<g id="node39" class="node">
<title>Fin_contr_fin1</title>
<g id="a_node39"><a xlink:href="Fin.html#contr_fin1" xlink:title="contr_fin1">
<ellipse fill="#f070d1" stroke="#000000" cx="772" cy="-219.4237" rx="58.4902" ry="18"/>
<ellipse fill="none" stroke="#000000" cx="772" cy="-219.4237" rx="62.4899" ry="22"/>
<ellipse fill="none" stroke="#000000" cx="772" cy="-219.4237" rx="66.4896" ry="26"/>
<text text-anchor="middle" x="772" y="-215.7237" font-family="Times,serif" font-size="14.00" fill="#000000">contr_fin1</text>
</a>
</g>
</g>
<!-- Fin_contr_fin1&#45;&gt;Fin_Fin -->
<g id="edge59" class="edge">
<title>Fin_contr_fin1&#45;&gt;Fin_Fin</title>
<path fill="none" stroke="#000000" d="M820.2469,-201.3802C829.375,-198.4066 838.9119,-195.5922 848,-193.4237 1183.7797,-113.3028 1601.5899,-77.4802 1726.8521,-68.058"/>
<polygon fill="#000000" stroke="#000000" points="1727.3364,-71.5317 1737.0498,-67.301 1726.8181,-64.5509 1727.3364,-71.5317"/>
</g>
<!-- Fin_decidablepaths_fin&#45;&gt;Fin_Fin -->
<g id="edge60" class="edge">
<title>Fin_decidablepaths_fin&#45;&gt;Fin_Fin</title>
<path fill="none" stroke="#000000" d="M1428.2386,-202.943C1503.1744,-172.2512 1662.7215,-106.9048 1731.422,-78.7668"/>
<polygon fill="#000000" stroke="#000000" points="1732.9508,-81.9229 1740.8781,-74.8938 1730.2976,-75.4452 1732.9508,-81.9229"/>
</g>
<!-- Fin_decidable_fin -->
<g id="node41" class="node">
<title>Fin_decidable_fin</title>
<g id="a_node41"><a xlink:href="Fin.html#decidable_fin" xlink:title="decidable_fin">
<ellipse fill="#f070d1" stroke="#000000" cx="607" cy="-219.4237" rx="72.608" ry="18"/>
<ellipse fill="none" stroke="#000000" cx="607" cy="-219.4237" rx="76.5978" ry="22"/>
<ellipse fill="none" stroke="#000000" cx="607" cy="-219.4237" rx="80.5876" ry="26"/>
<text text-anchor="middle" x="607" y="-215.7237" font-family="Times,serif" font-size="14.00" fill="#000000">decidable_fin</text>
</a>
</g>
</g>
<!-- Fin_decidable_fin&#45;&gt;Fin_Fin -->
<g id="edge61" class="edge">
<title>Fin_decidable_fin&#45;&gt;Fin_Fin</title>
<path fill="none" stroke="#000000" d="M665.2388,-201.1138C675.7385,-198.2386 686.6398,-195.5272 697,-193.4237 1095.7185,-112.4699 1589.3882,-76.5551 1726.9274,-67.6895"/>
<polygon fill="#000000" stroke="#000000" points="1727.1867,-71.1802 1736.9439,-67.0513 1726.7416,-64.1943 1727.1867,-71.1802"/>
</g>
<!-- Fin_fin_to_nat&#45;&gt;Fin_Fin -->
<g id="edge62" class="edge">
<title>Fin_fin_to_nat&#45;&gt;Fin_Fin</title>
<path fill="none" stroke="#000000" d="M2268.9994,-207.3396C2163.8308,-177.7849 1895.2129,-102.2974 1798.9688,-75.2507"/>
<polygon fill="#000000" stroke="#000000" points="1799.725,-71.8277 1789.151,-72.4917 1797.8311,-78.5666 1799.725,-71.8277"/>
</g>
</g>
</svg>
