<?xml version="1.0" encoding="UTF-8" standalone="no"?>
<!DOCTYPE svg PUBLIC "-//W3C//DTD SVG 1.1//EN"
 "http://www.w3.org/Graphics/SVG/1.1/DTD/svg11.dtd">
<!-- Generated by graphviz version 2.40.1 (20161225.0304)
 -->
<!-- Title: HoTT_Classes_theory_int_abs Pages: 1 -->
<svg width="1182pt" height="595pt"
 viewBox="0.00 0.00 1182.00 595.00" xmlns="http://www.w3.org/2000/svg" xmlns:xlink="http://www.w3.org/1999/xlink">
<g id="graph0" class="graph" transform="scale(1 1) rotate(0) translate(4 591)">
<title>HoTT_Classes_theory_int_abs</title>
<polygon fill="#ffffff" stroke="transparent" points="-4,4 -4,-591 1178,-591 1178,4 -4,4"/>
<g id="clust1" class="cluster">
<title>cluster_int_abs</title>
<polygon fill="#ffffc3" stroke="#000000" points="15.8917,-8 15.8917,-579 1158.1083,-579 1158.1083,-8 15.8917,-8"/>
<text text-anchor="middle" x="49.8917" y="-563.8" font-family="Times,serif" font-size="14.00" fill="#000000">int_abs</text>
</g>
<!-- int_abs_int_abs_mult -->
<g id="node1" class="node">
<title>int_abs_int_abs_mult</title>
<g id="a_node1"><a xlink:href="int_abs.html#int_abs_mult" xlink:title="int_abs_mult">
<ellipse fill="#f070d1" stroke="#000000" cx="977.0745" cy="-522" rx="70.7036" ry="18"/>
<ellipse fill="none" stroke="#000000" cx="977.0745" cy="-522" rx="74.6957" ry="22"/>
<ellipse fill="none" stroke="#000000" cx="977.0745" cy="-522" rx="78.6877" ry="26"/>
<text text-anchor="middle" x="977.0745" y="-518.3" font-family="Times,serif" font-size="14.00" fill="#000000">int_abs_mult</text>
</a>
</g>
</g>
<!-- int_abs_int_abs_nonpos -->
<g id="node4" class="node">
<title>int_abs_int_abs_nonpos</title>
<g id="a_node4"><a xlink:href="int_abs.html#int_abs_nonpos" xlink:title="int_abs_nonpos">
<ellipse fill="#f070d1" stroke="#000000" cx="977.0745" cy="-434" rx="82.5854" ry="18"/>
<text text-anchor="middle" x="977.0745" y="-430.3" font-family="Times,serif" font-size="14.00" fill="#000000">int_abs_nonpos</text>
</a>
</g>
</g>
<!-- int_abs_int_abs_mult&#45;&gt;int_abs_int_abs_nonpos -->
<g id="edge1" class="edge">
<title>int_abs_int_abs_mult&#45;&gt;int_abs_int_abs_nonpos</title>
<path fill="none" stroke="#000000" d="M977.0745,-495.5971C977.0745,-485.0414 977.0745,-472.868 977.0745,-462.1448"/>
<polygon fill="#000000" stroke="#000000" points="980.5745,-462.0188 977.0745,-452.0188 973.5745,-462.0188 980.5745,-462.0188"/>
</g>
<!-- int_abs_int_abs_nonneg_plus -->
<g id="node2" class="node">
<title>int_abs_int_abs_nonneg_plus</title>
<g id="a_node2"><a xlink:href="int_abs.html#int_abs_nonneg_plus" xlink:title="int_abs_nonneg_plus">
<ellipse fill="#f070d1" stroke="#000000" cx="548.0745" cy="-434" rx="107.7885" ry="18"/>
<ellipse fill="none" stroke="#000000" cx="548.0745" cy="-434" rx="111.7847" ry="22"/>
<ellipse fill="none" stroke="#000000" cx="548.0745" cy="-434" rx="115.781" ry="26"/>
<text text-anchor="middle" x="548.0745" y="-430.3" font-family="Times,serif" font-size="14.00" fill="#000000">int_abs_nonneg_plus</text>
</a>
</g>
</g>
<!-- int_abs_int_abs_nonneg -->
<g id="node5" class="node">
<title>int_abs_int_abs_nonneg</title>
<g id="a_node5"><a xlink:href="int_abs.html#int_abs_nonneg" xlink:title="int_abs_nonneg">
<ellipse fill="#f070d1" stroke="#000000" cx="552.0745" cy="-354" rx="83.3857" ry="18"/>
<text text-anchor="middle" x="552.0745" y="-350.3" font-family="Times,serif" font-size="14.00" fill="#000000">int_abs_nonneg</text>
</a>
</g>
</g>
<!-- int_abs_int_abs_nonneg_plus&#45;&gt;int_abs_int_abs_nonneg -->
<g id="edge2" class="edge">
<title>int_abs_int_abs_nonneg_plus&#45;&gt;int_abs_int_abs_nonneg</title>
<path fill="none" stroke="#000000" d="M549.3842,-407.805C549.7943,-399.6026 550.2486,-390.5174 550.6653,-382.1839"/>
<polygon fill="#000000" stroke="#000000" points="554.163,-382.3156 551.1668,-372.1532 547.1717,-381.9659 554.163,-382.3156"/>
</g>
<!-- int_abs_int_abs_1 -->
<g id="node3" class="node">
<title>int_abs_int_abs_1</title>
<g id="a_node3"><a xlink:href="int_abs.html#int_abs_1" xlink:title="int_abs_1">
<ellipse fill="#f070d1" stroke="#000000" cx="157.0745" cy="-434" rx="55.46" ry="18"/>
<ellipse fill="none" stroke="#000000" cx="157.0745" cy="-434" rx="59.4756" ry="22"/>
<ellipse fill="none" stroke="#000000" cx="157.0745" cy="-434" rx="63.4911" ry="26"/>
<text text-anchor="middle" x="157.0745" y="-430.3" font-family="Times,serif" font-size="14.00" fill="#000000">int_abs_1</text>
</a>
</g>
</g>
<!-- int_abs_int_abs_1&#45;&gt;int_abs_int_abs_nonneg -->
<g id="edge3" class="edge">
<title>int_abs_int_abs_1&#45;&gt;int_abs_int_abs_nonneg</title>
<path fill="none" stroke="#000000" d="M214.089,-422.4528C284.6303,-408.1659 404.7467,-383.8385 481.1633,-368.3618"/>
<polygon fill="#000000" stroke="#000000" points="482.0772,-371.7478 491.1834,-366.3324 480.6876,-364.8871 482.0772,-371.7478"/>
</g>
<!-- int_abs_int_abs_nonpos&#45;&gt;int_abs_int_abs_nonneg -->
<g id="edge4" class="edge">
<title>int_abs_int_abs_nonpos&#45;&gt;int_abs_int_abs_nonneg</title>
<path fill="none" stroke="#000000" d="M914.3642,-422.1957C837.3067,-407.6908 706.7819,-383.1214 625.2292,-367.7703"/>
<polygon fill="#000000" stroke="#000000" points="625.5168,-364.2631 615.0419,-365.8527 624.2219,-371.1422 625.5168,-364.2631"/>
</g>
<!-- int_abs_int_abs_negate -->
<g id="node9" class="node">
<title>int_abs_int_abs_negate</title>
<g id="a_node9"><a xlink:href="int_abs.html#int_abs_negate" xlink:title="int_abs_negate">
<ellipse fill="#f070d1" stroke="#000000" cx="938.0745" cy="-194" rx="81.4863" ry="18"/>
<text text-anchor="middle" x="938.0745" y="-190.3" font-family="Times,serif" font-size="14.00" fill="#000000">int_abs_negate</text>
</a>
</g>
</g>
<!-- int_abs_int_abs_nonpos&#45;&gt;int_abs_int_abs_negate -->
<g id="edge5" class="edge">
<title>int_abs_int_abs_nonpos&#45;&gt;int_abs_int_abs_negate</title>
<path fill="none" stroke="#000000" d="M974.1431,-415.961C967.4096,-374.5241 950.7944,-272.2769 942.6812,-222.349"/>
<polygon fill="#000000" stroke="#000000" points="946.0985,-221.5574 941.0398,-212.2483 939.1892,-222.6803 946.0985,-221.5574"/>
</g>
<!-- int_abs_int_abs_0 -->
<g id="node6" class="node">
<title>int_abs_int_abs_0</title>
<g id="a_node6"><a xlink:href="int_abs.html#int_abs_0" xlink:title="int_abs_0">
<ellipse fill="#f070d1" stroke="#000000" cx="560.0745" cy="-274" rx="55.4913" ry="18"/>
<text text-anchor="middle" x="560.0745" y="-270.3" font-family="Times,serif" font-size="14.00" fill="#000000">int_abs_0</text>
</a>
</g>
</g>
<!-- int_abs_int_abs_nonneg&#45;&gt;int_abs_int_abs_0 -->
<g id="edge6" class="edge">
<title>int_abs_int_abs_nonneg&#45;&gt;int_abs_int_abs_0</title>
<path fill="none" stroke="#000000" d="M553.8898,-335.8468C554.8819,-325.9251 556.1328,-313.4167 557.2495,-302.2492"/>
<polygon fill="#000000" stroke="#000000" points="560.7538,-302.3801 558.2663,-292.0814 553.7886,-301.6835 560.7538,-302.3801"/>
</g>
<!-- int_abs_int_abs_0_alt -->
<g id="node8" class="node">
<title>int_abs_int_abs_0_alt</title>
<g id="a_node8"><a xlink:href="int_abs.html#int_abs_0_alt" xlink:title="int_abs_0_alt">
<ellipse fill="#f070d1" stroke="#000000" cx="560.0745" cy="-194" rx="72.2875" ry="18"/>
<text text-anchor="middle" x="560.0745" y="-190.3" font-family="Times,serif" font-size="14.00" fill="#000000">int_abs_0_alt</text>
</a>
</g>
</g>
<!-- int_abs_int_abs_0&#45;&gt;int_abs_int_abs_0_alt -->
<g id="edge7" class="edge">
<title>int_abs_int_abs_0&#45;&gt;int_abs_int_abs_0_alt</title>
<path fill="none" stroke="#000000" d="M560.0745,-255.8468C560.0745,-245.9251 560.0745,-233.4167 560.0745,-222.2492"/>
<polygon fill="#000000" stroke="#000000" points="563.5745,-222.0814 560.0745,-212.0814 556.5745,-222.0814 563.5745,-222.0814"/>
</g>
<!-- int_abs_int_abs_ne_0 -->
<g id="node7" class="node">
<title>int_abs_int_abs_ne_0</title>
<g id="a_node7"><a xlink:href="int_abs.html#int_abs_ne_0" xlink:title="int_abs_ne_0">
<ellipse fill="#f070d1" stroke="#000000" cx="256.0745" cy="-274" rx="71.488" ry="18"/>
<ellipse fill="none" stroke="#000000" cx="256.0745" cy="-274" rx="75.4876" ry="22"/>
<ellipse fill="none" stroke="#000000" cx="256.0745" cy="-274" rx="79.4873" ry="26"/>
<text text-anchor="middle" x="256.0745" y="-270.3" font-family="Times,serif" font-size="14.00" fill="#000000">int_abs_ne_0</text>
</a>
</g>
</g>
<!-- int_abs_int_abs_ne_0&#45;&gt;int_abs_int_abs_0_alt -->
<g id="edge8" class="edge">
<title>int_abs_int_abs_ne_0&#45;&gt;int_abs_int_abs_0_alt</title>
<path fill="none" stroke="#000000" d="M318.327,-257.6178C371.5275,-243.6176 447.5807,-223.6036 500.1117,-209.7797"/>
<polygon fill="#000000" stroke="#000000" points="501.1829,-213.117 509.9629,-207.1873 499.4014,-206.3475 501.1829,-213.117"/>
</g>
<!-- int_abs_int_abs_nat -->
<g id="node11" class="node">
<title>int_abs_int_abs_nat</title>
<g id="a_node11"><a xlink:href="int_abs.html#int_abs_nat" xlink:title="int_abs_nat">
<ellipse fill="#f070d1" stroke="#000000" cx="574.0745" cy="-114" rx="64.189" ry="18"/>
<text text-anchor="middle" x="574.0745" y="-110.3" font-family="Times,serif" font-size="14.00" fill="#000000">int_abs_nat</text>
</a>
</g>
</g>
<!-- int_abs_int_abs_0_alt&#45;&gt;int_abs_int_abs_nat -->
<g id="edge9" class="edge">
<title>int_abs_int_abs_0_alt&#45;&gt;int_abs_int_abs_nat</title>
<path fill="none" stroke="#000000" d="M563.2513,-175.8468C564.9876,-165.9251 567.1765,-153.4167 569.1308,-142.2492"/>
<polygon fill="#000000" stroke="#000000" points="572.6339,-142.5351 570.9102,-132.0814 565.7387,-141.3283 572.6339,-142.5351"/>
</g>
<!-- int_abs_int_abs_negate_nat -->
<g id="node10" class="node">
<title>int_abs_int_abs_negate_nat</title>
<g id="a_node10"><a xlink:href="int_abs.html#int_abs_negate_nat" xlink:title="int_abs_negate_nat">
<ellipse fill="#f070d1" stroke="#000000" cx="938.0745" cy="-114" rx="100.9827" ry="18"/>
<text text-anchor="middle" x="938.0745" y="-110.3" font-family="Times,serif" font-size="14.00" fill="#000000">int_abs_negate_nat</text>
</a>
</g>
</g>
<!-- int_abs_int_abs_negate&#45;&gt;int_abs_int_abs_negate_nat -->
<g id="edge10" class="edge">
<title>int_abs_int_abs_negate&#45;&gt;int_abs_int_abs_negate_nat</title>
<path fill="none" stroke="#000000" d="M938.0745,-175.8468C938.0745,-165.9251 938.0745,-153.4167 938.0745,-142.2492"/>
<polygon fill="#000000" stroke="#000000" points="941.5745,-142.0814 938.0745,-132.0814 934.5745,-142.0814 941.5745,-142.0814"/>
</g>
<!-- int_abs_int_abs_negate&#45;&gt;int_abs_int_abs_nat -->
<g id="edge11" class="edge">
<title>int_abs_int_abs_negate&#45;&gt;int_abs_int_abs_nat</title>
<path fill="none" stroke="#000000" d="M879.9951,-181.2353C812.9834,-166.5075 703.2876,-142.3985 635.0672,-127.405"/>
<polygon fill="#000000" stroke="#000000" points="635.4185,-123.8987 624.9003,-125.1705 633.9159,-130.7356 635.4185,-123.8987"/>
</g>
<!-- int_abs_int_abs_spec -->
<g id="node13" class="node">
<title>int_abs_int_abs_spec</title>
<g id="a_node13"><a xlink:href="int_abs.html#int_abs_spec" xlink:title="int_abs_spec">
<ellipse fill="#f070d1" stroke="#000000" cx="574.0745" cy="-34" rx="70.6878" ry="18"/>
<text text-anchor="middle" x="574.0745" y="-30.3" font-family="Times,serif" font-size="14.00" fill="#000000">int_abs_spec</text>
</a>
</g>
</g>
<!-- int_abs_int_abs_negate_nat&#45;&gt;int_abs_int_abs_spec -->
<g id="edge12" class="edge">
<title>int_abs_int_abs_negate_nat&#45;&gt;int_abs_int_abs_spec</title>
<path fill="none" stroke="#000000" d="M874.254,-99.9735C807.7332,-85.3536 704.1038,-62.5779 637.6677,-47.9765"/>
<polygon fill="#000000" stroke="#000000" points="638.2586,-44.5229 627.7403,-45.7947 636.7559,-51.3598 638.2586,-44.5229"/>
</g>
<!-- int_abs_int_abs_nat&#45;&gt;int_abs_int_abs_spec -->
<g id="edge13" class="edge">
<title>int_abs_int_abs_nat&#45;&gt;int_abs_int_abs_spec</title>
<path fill="none" stroke="#000000" d="M574.0745,-95.8468C574.0745,-85.9251 574.0745,-73.4167 574.0745,-62.2492"/>
<polygon fill="#000000" stroke="#000000" points="577.5745,-62.0814 574.0745,-52.0814 570.5745,-62.0814 577.5745,-62.0814"/>
</g>
<!-- int_abs_int_abs_sig_alt -->
<g id="node12" class="node">
<title>int_abs_int_abs_sig_alt</title>
<g id="a_node12"><a xlink:href="int_abs.html#int_abs_sig_alt" xlink:title="int_abs_sig_alt">
<ellipse fill="#f070d1" stroke="#000000" cx="236.0745" cy="-114" rx="79.891" ry="18"/>
<ellipse fill="none" stroke="#000000" cx="236.0745" cy="-114" rx="83.8884" ry="22"/>
<ellipse fill="none" stroke="#000000" cx="236.0745" cy="-114" rx="87.8859" ry="26"/>
<text text-anchor="middle" x="236.0745" y="-110.3" font-family="Times,serif" font-size="14.00" fill="#000000">int_abs_sig_alt</text>
</a>
</g>
</g>
<!-- int_abs_int_abs_sig_alt&#45;&gt;int_abs_int_abs_spec -->
<g id="edge14" class="edge">
<title>int_abs_int_abs_sig_alt&#45;&gt;int_abs_int_abs_spec</title>
<path fill="none" stroke="#000000" d="M304.8812,-97.7144C365.733,-83.3116 453.709,-62.4889 512.3344,-48.613"/>
<polygon fill="#000000" stroke="#000000" points="513.2785,-51.9864 522.2035,-46.2772 511.6662,-45.1746 513.2785,-51.9864"/>
</g>
<!-- int_abs_int_abs_unique -->
<g id="node14" class="node">
<title>int_abs_int_abs_unique</title>
<g id="a_node14"><a xlink:href="int_abs.html#int_abs_unique" xlink:title="int_abs_unique">
<ellipse fill="#f070d1" stroke="#000000" cx="409.0745" cy="-522" rx="81.4644" ry="18"/>
<ellipse fill="none" stroke="#000000" cx="409.0745" cy="-522" rx="85.4753" ry="22"/>
<ellipse fill="none" stroke="#000000" cx="409.0745" cy="-522" rx="89.4862" ry="26"/>
<text text-anchor="middle" x="409.0745" y="-518.3" font-family="Times,serif" font-size="14.00" fill="#000000">int_abs_unique</text>
</a>
</g>
</g>
</g>
</svg>
