<?xml version="1.0" encoding="UTF-8" standalone="no"?>
<!DOCTYPE svg PUBLIC "-//W3C//DTD SVG 1.1//EN"
 "http://www.w3.org/Graphics/SVG/1.1/DTD/svg11.dtd">
<!-- Generated by graphviz version 2.40.1 (20161225.0304)
 -->
<!-- Title: HoTT_Classes_theory_integers Pages: 1 -->
<svg width="1182pt" height="595pt"
 viewBox="0.00 0.00 1182.00 595.00" xmlns="http://www.w3.org/2000/svg" xmlns:xlink="http://www.w3.org/1999/xlink">
<g id="graph0" class="graph" transform="scale(1 1) rotate(0) translate(4 591)">
<title>HoTT_Classes_theory_integers</title>
<polygon fill="#ffffff" stroke="transparent" points="-4,4 -4,-591 1178,-591 1178,4 -4,4"/>
<g id="clust1" class="cluster">
<title>cluster_integers</title>
<polygon fill="#ffffc3" stroke="#000000" points="9.4392,-8 9.4392,-579 1164.5608,-579 1164.5608,-8 9.4392,-8"/>
<text text-anchor="middle" x="47.4392" y="-563.8" font-family="Times,serif" font-size="14.00" fill="#000000">integers</text>
</g>
<!-- integers_int_integral_domain -->
<g id="node1" class="node">
<title>integers_int_integral_domain</title>
<g id="a_node1"><a xlink:href="integers.html#int_integral_domain" xlink:title="int_integral_domain">
<ellipse fill="#f070d1" stroke="#000000" cx="881.7538" cy="-522" rx="103.9822" ry="18"/>
<ellipse fill="none" stroke="#000000" cx="881.7538" cy="-522" rx="107.9819" ry="22"/>
<ellipse fill="none" stroke="#000000" cx="881.7538" cy="-522" rx="111.9815" ry="26"/>
<text text-anchor="middle" x="881.7538" y="-518.3" font-family="Times,serif" font-size="14.00" fill="#000000">int_integral_domain</text>
</a>
</g>
</g>
<!-- integers_int_zero_product -->
<g id="node2" class="node">
<title>integers_int_zero_product</title>
<g id="a_node2"><a xlink:href="integers.html#int_zero_product" xlink:title="int_zero_product">
<ellipse fill="#f070d1" stroke="#000000" cx="763.7538" cy="-434" rx="89.8845" ry="18"/>
<text text-anchor="middle" x="763.7538" y="-430.3" font-family="Times,serif" font-size="14.00" fill="#000000">int_zero_product</text>
</a>
</g>
</g>
<!-- integers_int_integral_domain&#45;&gt;integers_int_zero_product -->
<g id="edge1" class="edge">
<title>integers_int_integral_domain&#45;&gt;integers_int_zero_product</title>
<path fill="none" stroke="#000000" d="M848.2553,-497.0181C831.6609,-484.6426 811.7335,-469.7815 795.3989,-457.5998"/>
<polygon fill="#000000" stroke="#000000" points="797.3298,-454.6736 787.2211,-451.5011 793.145,-460.285 797.3298,-454.6736"/>
</g>
<!-- integers_int_nontrivial -->
<g id="node3" class="node">
<title>integers_int_nontrivial</title>
<g id="a_node3"><a xlink:href="integers.html#int_nontrivial" xlink:title="int_nontrivial">
<ellipse fill="#f070d1" stroke="#000000" cx="976.7538" cy="-434" rx="73.387" ry="18"/>
<text text-anchor="middle" x="976.7538" y="-430.3" font-family="Times,serif" font-size="14.00" fill="#000000">int_nontrivial</text>
</a>
</g>
</g>
<!-- integers_int_integral_domain&#45;&gt;integers_int_nontrivial -->
<g id="edge2" class="edge">
<title>integers_int_integral_domain&#45;&gt;integers_int_nontrivial</title>
<path fill="none" stroke="#000000" d="M909.2317,-496.5468C922.1198,-484.6083 937.4149,-470.4402 950.1863,-458.6099"/>
<polygon fill="#000000" stroke="#000000" points="952.8104,-460.95 957.7681,-451.5867 948.0534,-455.8147 952.8104,-460.95"/>
</g>
<!-- integers_integers_to_integers_injective -->
<g id="node13" class="node">
<title>integers_integers_to_integers_injective</title>
<g id="a_node13"><a xlink:href="integers.html#integers_to_integers_injective" xlink:title="integers_to_integers_injective">
<ellipse fill="#f070d1" stroke="#000000" cx="597.7538" cy="-346" rx="151.3732" ry="18"/>
<text text-anchor="middle" x="597.7538" y="-342.3" font-family="Times,serif" font-size="14.00" fill="#000000">integers_to_integers_injective</text>
</a>
</g>
</g>
<!-- integers_int_zero_product&#45;&gt;integers_integers_to_integers_injective -->
<g id="edge3" class="edge">
<title>integers_int_zero_product&#45;&gt;integers_integers_to_integers_injective</title>
<path fill="none" stroke="#000000" d="M731.7473,-417.0327C705.6481,-403.197 668.5659,-383.539 640.0257,-368.4092"/>
<polygon fill="#000000" stroke="#000000" points="641.559,-365.2607 631.0843,-363.6692 638.2803,-371.4454 641.559,-365.2607"/>
</g>
<!-- integers_naturals_to_integers_injective -->
<g id="node12" class="node">
<title>integers_naturals_to_integers_injective</title>
<g id="a_node12"><a xlink:href="integers.html#naturals_to_integers_injective" xlink:title="naturals_to_integers_injective">
<ellipse fill="#f070d1" stroke="#000000" cx="976.7538" cy="-346" rx="151.3732" ry="18"/>
<text text-anchor="middle" x="976.7538" y="-342.3" font-family="Times,serif" font-size="14.00" fill="#000000">naturals_to_integers_injective</text>
</a>
</g>
</g>
<!-- integers_int_nontrivial&#45;&gt;integers_naturals_to_integers_injective -->
<g id="edge4" class="edge">
<title>integers_int_nontrivial&#45;&gt;integers_naturals_to_integers_injective</title>
<path fill="none" stroke="#000000" d="M976.7538,-415.7663C976.7538,-403.8492 976.7538,-388.0384 976.7538,-374.4817"/>
<polygon fill="#000000" stroke="#000000" points="980.2539,-374.2103 976.7538,-364.2103 973.2539,-374.2103 980.2539,-374.2103"/>
</g>
<!-- integers_slow_int_abs -->
<g id="node4" class="node">
<title>integers_slow_int_abs</title>
<g id="a_node4"><a xlink:href="integers.html#slow_int_abs" xlink:title="slow_int_abs">
<ellipse fill="#f070d1" stroke="#000000" cx="543.7538" cy="-434" rx="70.3682" ry="18"/>
<ellipse fill="none" stroke="#000000" cx="543.7538" cy="-434" rx="74.3781" ry="22"/>
<ellipse fill="none" stroke="#000000" cx="543.7538" cy="-434" rx="78.388" ry="26"/>
<text text-anchor="middle" x="543.7538" y="-430.3" font-family="Times,serif" font-size="14.00" fill="#000000">slow_int_abs</text>
</a>
</g>
</g>
<!-- integers_slow_int_abs&#45;&gt;integers_integers_to_integers_injective -->
<g id="edge5" class="edge">
<title>integers_slow_int_abs&#45;&gt;integers_integers_to_integers_injective</title>
<path fill="none" stroke="#000000" d="M559.6635,-408.0731C566.4879,-396.9518 574.4564,-383.966 581.336,-372.7548"/>
<polygon fill="#000000" stroke="#000000" points="584.3301,-374.5674 586.5772,-364.2136 578.3639,-370.9063 584.3301,-374.5674"/>
</g>
<!-- integers_int_dec -->
<g id="node5" class="node">
<title>integers_int_dec</title>
<g id="a_node5"><a xlink:href="integers.html#int_dec" xlink:title="int_dec">
<ellipse fill="#f070d1" stroke="#000000" cx="336.7538" cy="-346" rx="44.7157" ry="18"/>
<ellipse fill="none" stroke="#000000" cx="336.7538" cy="-346" rx="48.7041" ry="22"/>
<ellipse fill="none" stroke="#000000" cx="336.7538" cy="-346" rx="52.6925" ry="26"/>
<text text-anchor="middle" x="336.7538" y="-342.3" font-family="Times,serif" font-size="14.00" fill="#000000">int_dec</text>
</a>
</g>
</g>
<!-- integers_int_to_int_equiv -->
<g id="node7" class="node">
<title>integers_int_to_int_equiv</title>
<g id="a_node7"><a xlink:href="integers.html#int_to_int_equiv" xlink:title="int_to_int_equiv">
<ellipse fill="#f070d1" stroke="#000000" cx="336.7538" cy="-266" rx="85.2851" ry="18"/>
<text text-anchor="middle" x="336.7538" y="-262.3" font-family="Times,serif" font-size="14.00" fill="#000000">int_to_int_equiv</text>
</a>
</g>
</g>
<!-- integers_int_dec&#45;&gt;integers_int_to_int_equiv -->
<g id="edge6" class="edge">
<title>integers_int_dec&#45;&gt;integers_int_to_int_equiv</title>
<path fill="none" stroke="#000000" d="M336.7538,-319.805C336.7538,-311.6026 336.7538,-302.5174 336.7538,-294.1839"/>
<polygon fill="#000000" stroke="#000000" points="340.2539,-294.1532 336.7538,-284.1532 333.2539,-294.1533 340.2539,-294.1532"/>
</g>
<!-- integers_from_int_stmt -->
<g id="node6" class="node">
<title>integers_from_int_stmt</title>
<g id="a_node6"><a xlink:href="integers.html#from_int_stmt" xlink:title="from_int_stmt">
<ellipse fill="#f070d1" stroke="#000000" cx="151.7538" cy="-346" rx="76.8685" ry="18"/>
<ellipse fill="none" stroke="#000000" cx="151.7538" cy="-346" rx="80.8777" ry="22"/>
<ellipse fill="none" stroke="#000000" cx="151.7538" cy="-346" rx="84.8868" ry="26"/>
<text text-anchor="middle" x="151.7538" y="-342.3" font-family="Times,serif" font-size="14.00" fill="#000000">from_int_stmt</text>
</a>
</g>
</g>
<!-- integers_from_int_stmt&#45;&gt;integers_int_to_int_equiv -->
<g id="edge7" class="edge">
<title>integers_from_int_stmt&#45;&gt;integers_int_to_int_equiv</title>
<path fill="none" stroke="#000000" d="M200.8447,-324.7715C228.4222,-312.8461 262.6571,-298.0418 289.8676,-286.2751"/>
<polygon fill="#000000" stroke="#000000" points="291.3876,-289.4311 299.1769,-282.2494 288.6092,-283.0061 291.3876,-289.4311"/>
</g>
<!-- integers_to_ring_involutive -->
<g id="node18" class="node">
<title>integers_to_ring_involutive</title>
<g id="a_node18"><a xlink:href="integers.html#to_ring_involutive" xlink:title="to_ring_involutive">
<ellipse fill="#f070d1" stroke="#000000" cx="633.7538" cy="-186" rx="94.7833" ry="18"/>
<text text-anchor="middle" x="633.7538" y="-182.3" font-family="Times,serif" font-size="14.00" fill="#000000">to_ring_involutive</text>
</a>
</g>
</g>
<!-- integers_int_to_int_equiv&#45;&gt;integers_to_ring_involutive -->
<g id="edge8" class="edge">
<title>integers_int_to_int_equiv&#45;&gt;integers_to_ring_involutive</title>
<path fill="none" stroke="#000000" d="M389.5092,-251.7898C439.7249,-238.2637 515.4039,-217.8788 569.1978,-203.3888"/>
<polygon fill="#000000" stroke="#000000" points="570.2311,-206.7353 578.9766,-200.7548 568.4104,-199.9762 570.2311,-206.7353"/>
</g>
<!-- integers_retract_is_int -->
<g id="node8" class="node">
<title>integers_retract_is_int</title>
<g id="a_node8"><a xlink:href="integers.html#retract_is_int" xlink:title="retract_is_int">
<ellipse fill="#f070d1" stroke="#000000" cx="1059.7538" cy="-186" rx="73.3926" ry="18"/>
<ellipse fill="none" stroke="#000000" cx="1059.7538" cy="-186" rx="77.3898" ry="22"/>
<ellipse fill="none" stroke="#000000" cx="1059.7538" cy="-186" rx="81.387" ry="26"/>
<text text-anchor="middle" x="1059.7538" y="-182.3" font-family="Times,serif" font-size="14.00" fill="#000000">retract_is_int</text>
</a>
</g>
</g>
<!-- integers_same_morphism -->
<g id="node9" class="node">
<title>integers_same_morphism</title>
<g id="a_node9"><a xlink:href="integers.html#same_morphism" xlink:title="same_morphism">
<ellipse fill="#f070d1" stroke="#000000" cx="766.7538" cy="-106" rx="87.1846" ry="18"/>
<text text-anchor="middle" x="766.7538" y="-102.3" font-family="Times,serif" font-size="14.00" fill="#000000">same_morphism</text>
</a>
</g>
</g>
<!-- integers_retract_is_int&#45;&gt;integers_same_morphism -->
<g id="edge9" class="edge">
<title>integers_retract_is_int&#45;&gt;integers_same_morphism</title>
<path fill="none" stroke="#000000" d="M997.616,-169.0341C948.0084,-155.4893 878.8236,-136.5993 829.1486,-123.0361"/>
<polygon fill="#000000" stroke="#000000" points="830.0541,-119.6553 819.4853,-120.3977 828.2103,-126.4081 830.0541,-119.6553"/>
</g>
<!-- integers_retract_is_int_to_ring -->
<g id="node11" class="node">
<title>integers_retract_is_int_to_ring</title>
<g id="a_node11"><a xlink:href="integers.html#retract_is_int_to_ring" xlink:title="retract_is_int_to_ring">
<ellipse fill="#f070d1" stroke="#000000" cx="1022.7538" cy="-106" rx="111.5806" ry="18"/>
<text text-anchor="middle" x="1022.7538" y="-102.3" font-family="Times,serif" font-size="14.00" fill="#000000">retract_is_int_to_ring</text>
</a>
</g>
</g>
<!-- integers_retract_is_int&#45;&gt;integers_retract_is_int_to_ring -->
<g id="edge10" class="edge">
<title>integers_retract_is_int&#45;&gt;integers_retract_is_int_to_ring</title>
<path fill="none" stroke="#000000" d="M1047.8431,-160.2471C1043.9137,-151.7512 1039.5282,-142.269 1035.5365,-133.6382"/>
<polygon fill="#000000" stroke="#000000" points="1038.6168,-131.9607 1031.2423,-124.3536 1032.2635,-134.8991 1038.6168,-131.9607"/>
</g>
<!-- integers_to_ring_unique -->
<g id="node20" class="node">
<title>integers_to_ring_unique</title>
<g id="a_node20"><a xlink:href="integers.html#to_ring_unique" xlink:title="to_ring_unique">
<ellipse fill="#f070d1" stroke="#000000" cx="646.7538" cy="-34" rx="80.6858" ry="18"/>
<text text-anchor="middle" x="646.7538" y="-30.3" font-family="Times,serif" font-size="14.00" fill="#000000">to_ring_unique</text>
</a>
</g>
</g>
<!-- integers_same_morphism&#45;&gt;integers_to_ring_unique -->
<g id="edge11" class="edge">
<title>integers_same_morphism&#45;&gt;integers_to_ring_unique</title>
<path fill="none" stroke="#000000" d="M738.3154,-88.937C722.0259,-79.1633 701.3975,-66.7863 683.8463,-56.2555"/>
<polygon fill="#000000" stroke="#000000" points="685.3637,-53.0843 674.988,-50.9405 681.7622,-59.0868 685.3637,-53.0843"/>
</g>
<!-- integers_IsSemiRingPreserving_instance_0 -->
<g id="node10" class="node">
<title>integers_IsSemiRingPreserving_instance_0</title>
<g id="a_node10"><a xlink:href="integers.html#IsSemiRingPreserving_instance_0" xlink:title="IsSemiRingPreserving_instance_0">
<ellipse fill="#f070d1" stroke="#000000" cx="325.7538" cy="-522" rx="170.0797" ry="18"/>
<ellipse fill="none" stroke="#000000" cx="325.7538" cy="-522" rx="174.0749" ry="22"/>
<ellipse fill="none" stroke="#000000" cx="325.7538" cy="-522" rx="178.07" ry="26"/>
<text text-anchor="middle" x="325.7538" y="-518.3" font-family="Times,serif" font-size="14.00" fill="#000000">IsSemiRingPreserving_instance_0</text>
</a>
</g>
</g>
<!-- integers_to_ring_injective -->
<g id="node14" class="node">
<title>integers_to_ring_injective</title>
<g id="a_node14"><a xlink:href="integers.html#to_ring_injective" xlink:title="to_ring_injective">
<ellipse fill="#f070d1" stroke="#000000" cx="725.7538" cy="-266" rx="89.0842" ry="18"/>
<text text-anchor="middle" x="725.7538" y="-262.3" font-family="Times,serif" font-size="14.00" fill="#000000">to_ring_injective</text>
</a>
</g>
</g>
<!-- integers_integers_to_integers_injective&#45;&gt;integers_to_ring_injective -->
<g id="edge12" class="edge">
<title>integers_integers_to_integers_injective&#45;&gt;integers_to_ring_injective</title>
<path fill="none" stroke="#000000" d="M626.1611,-328.2454C644.8952,-316.5366 669.5953,-301.099 689.71,-288.5274"/>
<polygon fill="#000000" stroke="#000000" points="691.6794,-291.4239 698.3044,-283.1559 687.9694,-285.4879 691.6794,-291.4239"/>
</g>
<!-- integers_to_ring_twice -->
<g id="node16" class="node">
<title>integers_to_ring_twice</title>
<g id="a_node16"><a xlink:href="integers.html#to_ring_twice" xlink:title="to_ring_twice">
<ellipse fill="#f070d1" stroke="#000000" cx="853.7538" cy="-186" rx="74.187" ry="18"/>
<text text-anchor="middle" x="853.7538" y="-182.3" font-family="Times,serif" font-size="14.00" fill="#000000">to_ring_twice</text>
</a>
</g>
</g>
<!-- integers_to_ring_injective&#45;&gt;integers_to_ring_twice -->
<g id="edge13" class="edge">
<title>integers_to_ring_injective&#45;&gt;integers_to_ring_twice</title>
<path fill="none" stroke="#000000" d="M753.213,-248.838C772.1537,-237 797.5159,-221.1487 818.0281,-208.3285"/>
<polygon fill="#000000" stroke="#000000" points="820.1543,-211.1271 826.7793,-202.859 816.4443,-205.1911 820.1543,-211.1271"/>
</g>
<!-- integers_to_ring_self -->
<g id="node15" class="node">
<title>integers_to_ring_self</title>
<g id="a_node15"><a xlink:href="integers.html#to_ring_self" xlink:title="to_ring_self">
<ellipse fill="#f070d1" stroke="#000000" cx="412.7538" cy="-186" rx="65.7729" ry="18"/>
<ellipse fill="none" stroke="#000000" cx="412.7538" cy="-186" rx="69.7808" ry="22"/>
<ellipse fill="none" stroke="#000000" cx="412.7538" cy="-186" rx="73.7886" ry="26"/>
<text text-anchor="middle" x="412.7538" y="-182.3" font-family="Times,serif" font-size="14.00" fill="#000000">to_ring_self</text>
</a>
</g>
</g>
<!-- integers_to_ring_unique_alt -->
<g id="node19" class="node">
<title>integers_to_ring_unique_alt</title>
<g id="a_node19"><a xlink:href="integers.html#to_ring_unique_alt" xlink:title="to_ring_unique_alt">
<ellipse fill="#f070d1" stroke="#000000" cx="527.7538" cy="-106" rx="97.4827" ry="18"/>
<text text-anchor="middle" x="527.7538" y="-102.3" font-family="Times,serif" font-size="14.00" fill="#000000">to_ring_unique_alt</text>
</a>
</g>
</g>
<!-- integers_to_ring_self&#45;&gt;integers_to_ring_unique_alt -->
<g id="edge14" class="edge">
<title>integers_to_ring_self&#45;&gt;integers_to_ring_unique_alt</title>
<path fill="none" stroke="#000000" d="M446.3257,-162.6456C461.3999,-152.1592 479.1444,-139.8152 494.2147,-129.3315"/>
<polygon fill="#000000" stroke="#000000" points="496.5281,-131.9858 502.7385,-123.402 492.5306,-126.2395 496.5281,-131.9858"/>
</g>
<!-- integers_to_ring_twice&#45;&gt;integers_to_ring_unique_alt -->
<g id="edge15" class="edge">
<title>integers_to_ring_twice&#45;&gt;integers_to_ring_unique_alt</title>
<path fill="none" stroke="#000000" d="M801.3762,-173.1466C745.7951,-159.5071 657.7222,-137.8941 596.5711,-122.8877"/>
<polygon fill="#000000" stroke="#000000" points="597.1648,-119.4296 586.6188,-120.4454 595.4965,-126.2279 597.1648,-119.4296"/>
</g>
<!-- integers_morphisms_involutive -->
<g id="node17" class="node">
<title>integers_morphisms_involutive</title>
<g id="a_node17"><a xlink:href="integers.html#morphisms_involutive" xlink:title="morphisms_involutive">
<ellipse fill="#f070d1" stroke="#000000" cx="161.7538" cy="-186" rx="113.174" ry="18"/>
<ellipse fill="none" stroke="#000000" cx="161.7538" cy="-186" rx="117.177" ry="22"/>
<ellipse fill="none" stroke="#000000" cx="161.7538" cy="-186" rx="121.18" ry="26"/>
<text text-anchor="middle" x="161.7538" y="-182.3" font-family="Times,serif" font-size="14.00" fill="#000000">morphisms_involutive</text>
</a>
</g>
</g>
<!-- integers_morphisms_involutive&#45;&gt;integers_to_ring_unique_alt -->
<g id="edge16" class="edge">
<title>integers_morphisms_involutive&#45;&gt;integers_to_ring_unique_alt</title>
<path fill="none" stroke="#000000" d="M246.6415,-167.4453C309.7528,-153.6505 394.9677,-135.0243 454.9782,-121.9072"/>
<polygon fill="#000000" stroke="#000000" points="455.7361,-125.3243 464.758,-119.7696 454.2413,-118.4857 455.7361,-125.3243"/>
</g>
<!-- integers_to_ring_involutive&#45;&gt;integers_to_ring_unique_alt -->
<g id="edge17" class="edge">
<title>integers_to_ring_involutive&#45;&gt;integers_to_ring_unique_alt</title>
<path fill="none" stroke="#000000" d="M610.4916,-168.4437C595.4415,-157.0851 575.6613,-142.1567 559.2153,-129.7445"/>
<polygon fill="#000000" stroke="#000000" points="561.052,-126.7458 550.9617,-123.5154 556.8351,-132.3332 561.052,-126.7458"/>
</g>
<!-- integers_to_ring_unique_alt&#45;&gt;integers_to_ring_unique -->
<g id="edge18" class="edge">
<title>integers_to_ring_unique_alt&#45;&gt;integers_to_ring_unique</title>
<path fill="none" stroke="#000000" d="M556.2572,-88.7542C572.3009,-79.0471 592.516,-66.8161 609.7687,-56.3775"/>
<polygon fill="#000000" stroke="#000000" points="611.7389,-59.2763 618.4829,-51.1051 608.1152,-53.2872 611.7389,-59.2763"/>
</g>
</g>
</svg>
