<?xml version="1.0" encoding="UTF-8" standalone="no"?>
<!DOCTYPE svg PUBLIC "-//W3C//DTD SVG 1.1//EN"
 "http://www.w3.org/Graphics/SVG/1.1/DTD/svg11.dtd">
<!-- Generated by graphviz version 2.40.1 (20161225.0304)
 -->
<!-- Title: HoTT_TruncType Pages: 1 -->
<svg width="1885pt" height="946pt"
 viewBox="0.00 0.00 1885.00 946.50" xmlns="http://www.w3.org/2000/svg" xmlns:xlink="http://www.w3.org/1999/xlink">
<g id="graph0" class="graph" transform="scale(1 1) rotate(0) translate(4 942.5)">
<title>HoTT_TruncType</title>
<polygon fill="#ffffff" stroke="transparent" points="-4,4 -4,-942.5 1881,-942.5 1881,4 -4,4"/>
<g id="clust1" class="cluster">
<title>cluster_TruncType</title>
<polygon fill="#ffffc3" stroke="#000000" points="8,-12.7905 8,-925.7095 1869,-925.7095 1869,-12.7905 8,-12.7905"/>
<text text-anchor="middle" x="55.5" y="-910.5095" font-family="Times,serif" font-size="14.00" fill="#000000">TruncType</text>
</g>
<!-- TruncType_equiv_path_iff_ishprop -->
<g id="node1" class="node">
<title>TruncType_equiv_path_iff_ishprop</title>
<g id="a_node1"><a xlink:href="TruncType.html#equiv_path_iff_ishprop" xlink:title="equiv_path_iff_ishprop">
<ellipse fill="#f070d1" stroke="#000000" cx="1686" cy="-834.7905" rx="116.1899" ry="18"/>
<ellipse fill="none" stroke="#000000" cx="1686" cy="-834.7905" rx="120.1847" ry="22"/>
<ellipse fill="none" stroke="#000000" cx="1686" cy="-834.7905" rx="124.1796" ry="26"/>
<text text-anchor="middle" x="1686" y="-831.0905" font-family="Times,serif" font-size="14.00" fill="#000000">equiv_path_iff_ishprop</text>
</a>
</g>
</g>
<!-- TruncType_isequiv_path_iff_ishprop_uncurried -->
<g id="node5" class="node">
<title>TruncType_isequiv_path_iff_ishprop_uncurried</title>
<g id="a_node5"><a xlink:href="TruncType.html#isequiv_path_iff_ishprop_uncurried" xlink:title="isequiv_path_iff_ishprop_uncurried">
<ellipse fill="#f070d1" stroke="#000000" cx="1686" cy="-693.7905" rx="174.6691" ry="18"/>
<text text-anchor="middle" x="1686" y="-690.0905" font-family="Times,serif" font-size="14.00" fill="#000000">isequiv_path_iff_ishprop_uncurried</text>
</a>
</g>
</g>
<!-- TruncType_equiv_path_iff_ishprop&#45;&gt;TruncType_isequiv_path_iff_ishprop_uncurried -->
<g id="edge1" class="edge">
<title>TruncType_equiv_path_iff_ishprop&#45;&gt;TruncType_isequiv_path_iff_ishprop_uncurried</title>
<path fill="none" stroke="#000000" d="M1686,-808.5999C1686,-784.0705 1686,-747.5061 1686,-722.2629"/>
<polygon fill="#000000" stroke="#000000" points="1689.5001,-722.2056 1686,-712.2057 1682.5001,-722.2057 1689.5001,-722.2056"/>
</g>
<!-- TruncType_path_iff_hprop -->
<g id="node2" class="node">
<title>TruncType_path_iff_hprop</title>
<g id="a_node2"><a xlink:href="TruncType.html#path_iff_hprop" xlink:title="path_iff_hprop">
<ellipse fill="#f070d1" stroke="#000000" cx="1141" cy="-834.7905" rx="78.7731" ry="18"/>
<ellipse fill="none" stroke="#000000" cx="1141" cy="-834.7905" rx="82.7797" ry="22"/>
<ellipse fill="none" stroke="#000000" cx="1141" cy="-834.7905" rx="86.7863" ry="26"/>
<text text-anchor="middle" x="1141" y="-831.0905" font-family="Times,serif" font-size="14.00" fill="#000000">path_iff_hprop</text>
</a>
</g>
</g>
<!-- TruncType_path_iff_hprop_uncurried -->
<g id="node6" class="node">
<title>TruncType_path_iff_hprop_uncurried</title>
<g id="a_node6"><a xlink:href="TruncType.html#path_iff_hprop_uncurried" xlink:title="path_iff_hprop_uncurried">
<ellipse fill="#f070d1" stroke="#000000" cx="1129" cy="-693.7905" rx="129.1772" ry="18"/>
<text text-anchor="middle" x="1129" y="-690.0905" font-family="Times,serif" font-size="14.00" fill="#000000">path_iff_hprop_uncurried</text>
</a>
</g>
</g>
<!-- TruncType_path_iff_hprop&#45;&gt;TruncType_path_iff_hprop_uncurried -->
<g id="edge2" class="edge">
<title>TruncType_path_iff_hprop&#45;&gt;TruncType_path_iff_hprop_uncurried</title>
<path fill="none" stroke="#000000" d="M1138.771,-808.5999C1136.6834,-784.0705 1133.5715,-747.5061 1131.4232,-722.2629"/>
<polygon fill="#000000" stroke="#000000" points="1134.9027,-721.8728 1130.5673,-712.2057 1127.9279,-722.4665 1134.9027,-721.8728"/>
</g>
<!-- TruncType_path_iff_ishprop -->
<g id="node3" class="node">
<title>TruncType_path_iff_ishprop</title>
<g id="a_node3"><a xlink:href="TruncType.html#path_iff_ishprop" xlink:title="path_iff_ishprop">
<ellipse fill="#f070d1" stroke="#000000" cx="1399" cy="-693.7905" rx="86.3896" ry="18"/>
<ellipse fill="none" stroke="#000000" cx="1399" cy="-693.7905" rx="90.3871" ry="22"/>
<ellipse fill="none" stroke="#000000" cx="1399" cy="-693.7905" rx="94.3847" ry="26"/>
<text text-anchor="middle" x="1399" y="-690.0905" font-family="Times,serif" font-size="14.00" fill="#000000">path_iff_ishprop</text>
</a>
</g>
</g>
<!-- TruncType_path_iff_ishprop_uncurried -->
<g id="node7" class="node">
<title>TruncType_path_iff_ishprop_uncurried</title>
<g id="a_node7"><a xlink:href="TruncType.html#path_iff_ishprop_uncurried" xlink:title="path_iff_ishprop_uncurried">
<ellipse fill="#f070d1" stroke="#000000" cx="1724" cy="-552.7905" rx="137.2758" ry="18"/>
<text text-anchor="middle" x="1724" y="-549.0905" font-family="Times,serif" font-size="14.00" fill="#000000">path_iff_ishprop_uncurried</text>
</a>
</g>
</g>
<!-- TruncType_path_iff_ishprop&#45;&gt;TruncType_path_iff_ishprop_uncurried -->
<g id="edge3" class="edge">
<title>TruncType_path_iff_ishprop&#45;&gt;TruncType_path_iff_ishprop_uncurried</title>
<path fill="none" stroke="#000000" d="M1449.7813,-671.7592C1511.1265,-645.1448 1613.6422,-600.6688 1674.4365,-574.2934"/>
<polygon fill="#000000" stroke="#000000" points="1676.0418,-577.4122 1683.8227,-570.2212 1673.2558,-570.9905 1676.0418,-577.4122"/>
</g>
<!-- TruncType_isequiv_path_iff_hprop_uncurried -->
<g id="node4" class="node">
<title>TruncType_isequiv_path_iff_hprop_uncurried</title>
<g id="a_node4"><a xlink:href="TruncType.html#isequiv_path_iff_hprop_uncurried" xlink:title="isequiv_path_iff_hprop_uncurried">
<ellipse fill="#f070d1" stroke="#000000" cx="861" cy="-834.7905" rx="167.0688" ry="18"/>
<ellipse fill="none" stroke="#000000" cx="861" cy="-834.7905" rx="171.0696" ry="22"/>
<ellipse fill="none" stroke="#000000" cx="861" cy="-834.7905" rx="175.0704" ry="26"/>
<text text-anchor="middle" x="861" y="-831.0905" font-family="Times,serif" font-size="14.00" fill="#000000">isequiv_path_iff_hprop_uncurried</text>
</a>
</g>
</g>
<!-- TruncType_isequiv_path_iff_hprop_uncurried&#45;&gt;TruncType_path_iff_hprop_uncurried -->
<g id="edge4" class="edge">
<title>TruncType_isequiv_path_iff_hprop_uncurried&#45;&gt;TruncType_path_iff_hprop_uncurried</title>
<path fill="none" stroke="#000000" d="M908.6042,-809.745C959.1924,-783.1295 1038.4194,-741.4467 1086.8318,-715.976"/>
<polygon fill="#000000" stroke="#000000" points="1088.5721,-719.0153 1095.7923,-711.2617 1085.3128,-712.8203 1088.5721,-719.0153"/>
</g>
<!-- TruncType_isequiv_path_trunctype -->
<g id="node22" class="node">
<title>TruncType_isequiv_path_trunctype</title>
<g id="a_node22"><a xlink:href="TruncType.html#isequiv_path_trunctype" xlink:title="isequiv_path_trunctype">
<ellipse fill="#f070d1" stroke="#000000" cx="861" cy="-693.7905" rx="120.4791" ry="18"/>
<text text-anchor="middle" x="861" y="-690.0905" font-family="Times,serif" font-size="14.00" fill="#000000">isequiv_path_trunctype</text>
</a>
</g>
</g>
<!-- TruncType_isequiv_path_iff_hprop_uncurried&#45;&gt;TruncType_isequiv_path_trunctype -->
<g id="edge5" class="edge">
<title>TruncType_isequiv_path_iff_hprop_uncurried&#45;&gt;TruncType_isequiv_path_trunctype</title>
<path fill="none" stroke="#000000" d="M861,-808.5999C861,-784.0705 861,-747.5061 861,-722.2629"/>
<polygon fill="#000000" stroke="#000000" points="864.5001,-722.2056 861,-712.2057 857.5001,-722.2057 864.5001,-722.2056"/>
</g>
<!-- TruncType_isequiv_path_iff_ishprop_uncurried&#45;&gt;TruncType_path_iff_ishprop_uncurried -->
<g id="edge6" class="edge">
<title>TruncType_isequiv_path_iff_ishprop_uncurried&#45;&gt;TruncType_path_iff_ishprop_uncurried</title>
<path fill="none" stroke="#000000" d="M1690.89,-675.6458C1697.3885,-651.5332 1708.9319,-608.7012 1716.5262,-580.5223"/>
<polygon fill="#000000" stroke="#000000" points="1719.9059,-581.4317 1719.1287,-570.8654 1713.147,-579.6102 1719.9059,-581.4317"/>
</g>
<!-- TruncType_path_hprop -->
<g id="node16" class="node">
<title>TruncType_path_hprop</title>
<g id="a_node16"><a xlink:href="TruncType.html#path_hprop" xlink:title="path_hprop">
<ellipse fill="#f070d1" stroke="#000000" cx="1101" cy="-552.7905" rx="63.8893" ry="18"/>
<text text-anchor="middle" x="1101" y="-549.0905" font-family="Times,serif" font-size="14.00" fill="#000000">path_hprop</text>
</a>
</g>
</g>
<!-- TruncType_path_iff_hprop_uncurried&#45;&gt;TruncType_path_hprop -->
<g id="edge7" class="edge">
<title>TruncType_path_iff_hprop_uncurried&#45;&gt;TruncType_path_hprop</title>
<path fill="none" stroke="#000000" d="M1125.3968,-675.6458C1120.6295,-651.639 1112.1774,-609.0766 1106.5808,-580.894"/>
<polygon fill="#000000" stroke="#000000" points="1109.9702,-579.9922 1104.5894,-570.8654 1103.1043,-581.3557 1109.9702,-579.9922"/>
</g>
<!-- TruncType_trunc_path_IsHProp -->
<g id="node8" class="node">
<title>TruncType_trunc_path_IsHProp</title>
<g id="a_node8"><a xlink:href="TruncType.html#trunc_path_IsHProp" xlink:title="trunc_path_IsHProp">
<ellipse fill="#f070d1" stroke="#000000" cx="541" cy="-834.7905" rx="105.8854" ry="18"/>
<ellipse fill="none" stroke="#000000" cx="541" cy="-834.7905" rx="109.8833" ry="22"/>
<ellipse fill="none" stroke="#000000" cx="541" cy="-834.7905" rx="113.8812" ry="26"/>
<text text-anchor="middle" x="541" y="-831.0905" font-family="Times,serif" font-size="14.00" fill="#000000">trunc_path_IsHProp</text>
</a>
</g>
</g>
<!-- TruncType_is_true -->
<g id="node9" class="node">
<title>TruncType_is_true</title>
<g id="a_node9"><a xlink:href="TruncType.html#is_true" xlink:title="is_true">
<ellipse fill="#f070d1" stroke="#000000" cx="333" cy="-834.7905" rx="42.8089" ry="18"/>
<ellipse fill="none" stroke="#000000" cx="333" cy="-834.7905" rx="46.8007" ry="22"/>
<ellipse fill="none" stroke="#000000" cx="333" cy="-834.7905" rx="50.7926" ry="26"/>
<text text-anchor="middle" x="333" y="-831.0905" font-family="Times,serif" font-size="14.00" fill="#000000">is_true</text>
</a>
</g>
</g>
<!-- TruncType_False_hp -->
<g id="node11" class="node">
<title>TruncType_False_hp</title>
<g id="a_node11"><a xlink:href="TruncType.html#False_hp" xlink:title="False_hp">
<ellipse fill="#f070d1" stroke="#000000" cx="274" cy="-693.7905" rx="51.9908" ry="18"/>
<text text-anchor="middle" x="274" y="-690.0905" font-family="Times,serif" font-size="14.00" fill="#000000">False_hp</text>
</a>
</g>
</g>
<!-- TruncType_is_true&#45;&gt;TruncType_False_hp -->
<g id="edge8" class="edge">
<title>TruncType_is_true&#45;&gt;TruncType_False_hp</title>
<path fill="none" stroke="#000000" d="M322.3155,-809.2564C311.9377,-784.4552 296.228,-746.9117 285.5619,-721.4213"/>
<polygon fill="#000000" stroke="#000000" points="288.694,-719.8394 281.6051,-711.9654 282.2365,-722.5415 288.694,-719.8394"/>
</g>
<!-- TruncType_Unit_hp -->
<g id="node12" class="node">
<title>TruncType_Unit_hp</title>
<g id="a_node12"><a xlink:href="TruncType.html#Unit_hp" xlink:title="Unit_hp">
<ellipse fill="#f070d1" stroke="#000000" cx="392" cy="-693.7905" rx="48.1917" ry="18"/>
<text text-anchor="middle" x="392" y="-690.0905" font-family="Times,serif" font-size="14.00" fill="#000000">Unit_hp</text>
</a>
</g>
</g>
<!-- TruncType_is_true&#45;&gt;TruncType_Unit_hp -->
<g id="edge9" class="edge">
<title>TruncType_is_true&#45;&gt;TruncType_Unit_hp</title>
<path fill="none" stroke="#000000" d="M343.6845,-809.2564C354.0623,-784.4552 369.772,-746.9117 380.4381,-721.4213"/>
<polygon fill="#000000" stroke="#000000" points="383.7635,-722.5415 384.3949,-711.9654 377.306,-719.8394 383.7635,-722.5415"/>
</g>
<!-- TruncType_Negation_hp -->
<g id="node10" class="node">
<title>TruncType_Negation_hp</title>
<g id="a_node10"><a xlink:href="TruncType.html#Negation_hp" xlink:title="Negation_hp">
<ellipse fill="#f070d1" stroke="#000000" cx="135" cy="-834.7905" rx="70.3682" ry="18"/>
<ellipse fill="none" stroke="#000000" cx="135" cy="-834.7905" rx="74.3781" ry="22"/>
<ellipse fill="none" stroke="#000000" cx="135" cy="-834.7905" rx="78.388" ry="26"/>
<text text-anchor="middle" x="135" y="-831.0905" font-family="Times,serif" font-size="14.00" fill="#000000">Negation_hp</text>
</a>
</g>
</g>
<!-- TruncType_istrunc_sig_istrunc -->
<g id="node13" class="node">
<title>TruncType_istrunc_sig_istrunc</title>
<g id="a_node13"><a xlink:href="TruncType.html#istrunc_sig_istrunc" xlink:title="istrunc_sig_istrunc">
<ellipse fill="#f070d1" stroke="#000000" cx="1460" cy="-552.7905" rx="100.9649" ry="18"/>
<ellipse fill="none" stroke="#000000" cx="1460" cy="-552.7905" rx="104.9738" ry="22"/>
<ellipse fill="none" stroke="#000000" cx="1460" cy="-552.7905" rx="108.9827" ry="26"/>
<text text-anchor="middle" x="1460" y="-549.0905" font-family="Times,serif" font-size="14.00" fill="#000000">istrunc_sig_istrunc</text>
</a>
</g>
</g>
<!-- TruncType_istrunc_trunctype -->
<g id="node15" class="node">
<title>TruncType_istrunc_trunctype</title>
<g id="a_node15"><a xlink:href="TruncType.html#istrunc_trunctype" xlink:title="istrunc_trunctype">
<ellipse fill="#f070d1" stroke="#000000" cx="1258" cy="-424.7905" rx="94.7833" ry="18"/>
<text text-anchor="middle" x="1258" y="-421.0905" font-family="Times,serif" font-size="14.00" fill="#000000">istrunc_trunctype</text>
</a>
</g>
</g>
<!-- TruncType_istrunc_sig_istrunc&#45;&gt;TruncType_istrunc_trunctype -->
<g id="edge10" class="edge">
<title>TruncType_istrunc_sig_istrunc&#45;&gt;TruncType_istrunc_trunctype</title>
<path fill="none" stroke="#000000" d="M1421.5299,-528.4134C1384.8066,-505.1431 1329.9003,-470.3511 1294.0155,-447.6121"/>
<polygon fill="#000000" stroke="#000000" points="1295.645,-444.5012 1285.3247,-442.1051 1291.8982,-450.4141 1295.645,-444.5012"/>
</g>
<!-- TruncType_isset_HProp -->
<g id="node14" class="node">
<title>TruncType_isset_HProp</title>
<g id="a_node14"><a xlink:href="TruncType.html#isset_HProp" xlink:title="isset_HProp">
<ellipse fill="#f070d1" stroke="#000000" cx="1258" cy="-552.7905" rx="67.6782" ry="18"/>
<ellipse fill="none" stroke="#000000" cx="1258" cy="-552.7905" rx="71.6831" ry="22"/>
<ellipse fill="none" stroke="#000000" cx="1258" cy="-552.7905" rx="75.6881" ry="26"/>
<text text-anchor="middle" x="1258" y="-549.0905" font-family="Times,serif" font-size="14.00" fill="#000000">isset_HProp</text>
</a>
</g>
</g>
<!-- TruncType_isset_HProp&#45;&gt;TruncType_istrunc_trunctype -->
<g id="edge11" class="edge">
<title>TruncType_isset_HProp&#45;&gt;TruncType_istrunc_trunctype</title>
<path fill="none" stroke="#000000" d="M1258,-526.5789C1258,-505.2081 1258,-475.0791 1258,-453.1481"/>
<polygon fill="#000000" stroke="#000000" points="1261.5001,-453.1148 1258,-443.1149 1254.5001,-453.1149 1261.5001,-453.1148"/>
</g>
<!-- TruncType_equiv_path_trunctype -->
<g id="node24" class="node">
<title>TruncType_equiv_path_trunctype</title>
<g id="a_node24"><a xlink:href="TruncType.html#equiv_path_trunctype" xlink:title="equiv_path_trunctype">
<ellipse fill="#f070d1" stroke="#000000" cx="1055" cy="-297.7905" rx="112.3801" ry="18"/>
<text text-anchor="middle" x="1055" y="-294.0905" font-family="Times,serif" font-size="14.00" fill="#000000">equiv_path_trunctype</text>
</a>
</g>
</g>
<!-- TruncType_istrunc_trunctype&#45;&gt;TruncType_equiv_path_trunctype -->
<g id="edge12" class="edge">
<title>TruncType_istrunc_trunctype&#45;&gt;TruncType_equiv_path_trunctype</title>
<path fill="none" stroke="#000000" d="M1230.1994,-407.3979C1194.2604,-384.914 1131.5757,-345.6974 1091.7409,-320.7761"/>
<polygon fill="#000000" stroke="#000000" points="1093.4503,-317.7171 1083.1163,-315.3805 1089.7376,-323.6514 1093.4503,-317.7171"/>
</g>
<!-- TruncType_path_trunctype -->
<g id="node23" class="node">
<title>TruncType_path_trunctype</title>
<g id="a_node23"><a xlink:href="TruncType.html#path_trunctype" xlink:title="path_trunctype">
<ellipse fill="#f070d1" stroke="#000000" cx="852" cy="-424.7905" rx="82.5854" ry="18"/>
<text text-anchor="middle" x="852" y="-421.0905" font-family="Times,serif" font-size="14.00" fill="#000000">path_trunctype</text>
</a>
</g>
</g>
<!-- TruncType_path_hprop&#45;&gt;TruncType_path_trunctype -->
<g id="edge13" class="edge">
<title>TruncType_path_hprop&#45;&gt;TruncType_path_trunctype</title>
<path fill="none" stroke="#000000" d="M1070.218,-536.9668C1025.6304,-514.0462 942.9781,-471.5583 893.1856,-445.9622"/>
<polygon fill="#000000" stroke="#000000" points="894.7811,-442.847 884.2872,-441.3879 891.5807,-449.0726 894.7811,-442.847"/>
</g>
<!-- TruncType_path_hset -->
<g id="node17" class="node">
<title>TruncType_path_hset</title>
<g id="a_node17"><a xlink:href="TruncType.html#path_hset" xlink:title="path_hset">
<ellipse fill="#f070d1" stroke="#000000" cx="934" cy="-552.7905" rx="56.5844" ry="18"/>
<ellipse fill="none" stroke="#000000" cx="934" cy="-552.7905" rx="60.5872" ry="22"/>
<ellipse fill="none" stroke="#000000" cx="934" cy="-552.7905" rx="64.59" ry="26"/>
<text text-anchor="middle" x="934" y="-549.0905" font-family="Times,serif" font-size="14.00" fill="#000000">path_hset</text>
</a>
</g>
</g>
<!-- TruncType_path_hset&#45;&gt;TruncType_path_trunctype -->
<g id="edge14" class="edge">
<title>TruncType_path_hset&#45;&gt;TruncType_path_trunctype</title>
<path fill="none" stroke="#000000" d="M917.7994,-527.5018C903.7698,-505.6018 883.5344,-474.015 869.2155,-451.6634"/>
<polygon fill="#000000" stroke="#000000" points="872.007,-449.5325 863.6656,-443.0002 866.1128,-453.3085 872.007,-449.5325"/>
</g>
<!-- TruncType_ap_trunctype -->
<g id="node18" class="node">
<title>TruncType_ap_trunctype</title>
<g id="a_node18"><a xlink:href="TruncType.html#ap_trunctype" xlink:title="ap_trunctype">
<ellipse fill="#f070d1" stroke="#000000" cx="771" cy="-552.7905" rx="72.608" ry="18"/>
<ellipse fill="none" stroke="#000000" cx="771" cy="-552.7905" rx="76.5978" ry="22"/>
<ellipse fill="none" stroke="#000000" cx="771" cy="-552.7905" rx="80.5876" ry="26"/>
<text text-anchor="middle" x="771" y="-549.0905" font-family="Times,serif" font-size="14.00" fill="#000000">ap_trunctype</text>
</a>
</g>
</g>
<!-- TruncType_ap_trunctype&#45;&gt;TruncType_path_trunctype -->
<g id="edge15" class="edge">
<title>TruncType_ap_trunctype&#45;&gt;TruncType_path_trunctype</title>
<path fill="none" stroke="#000000" d="M787.1969,-527.1954C801.0742,-505.2657 820.9927,-473.7897 835.0759,-451.5346"/>
<polygon fill="#000000" stroke="#000000" points="838.1438,-453.2319 840.5337,-442.9101 832.2287,-449.4887 838.1438,-453.2319"/>
</g>
<!-- TruncType_path_trunctype_pp -->
<g id="node19" class="node">
<title>TruncType_path_trunctype_pp</title>
<g id="a_node19"><a xlink:href="TruncType.html#path_trunctype_pp" xlink:title="path_trunctype_pp">
<ellipse fill="#f070d1" stroke="#000000" cx="565" cy="-552.7905" rx="98.5985" ry="18"/>
<ellipse fill="none" stroke="#000000" cx="565" cy="-552.7905" rx="102.5907" ry="22"/>
<ellipse fill="none" stroke="#000000" cx="565" cy="-552.7905" rx="106.5829" ry="26"/>
<text text-anchor="middle" x="565" y="-549.0905" font-family="Times,serif" font-size="14.00" fill="#000000">path_trunctype_pp</text>
</a>
</g>
</g>
<!-- TruncType_path_trunctype_pp&#45;&gt;TruncType_path_trunctype -->
<g id="edge16" class="edge">
<title>TruncType_path_trunctype_pp&#45;&gt;TruncType_path_trunctype</title>
<path fill="none" stroke="#000000" d="M616.3098,-529.9066C670.3456,-505.807 754.6256,-468.2188 806.4033,-445.1263"/>
<polygon fill="#000000" stroke="#000000" points="807.9713,-448.2593 815.6785,-440.9896 805.12,-441.8663 807.9713,-448.2593"/>
</g>
<!-- TruncType_path_trunctype_V -->
<g id="node20" class="node">
<title>TruncType_path_trunctype_V</title>
<g id="a_node20"><a xlink:href="TruncType.html#path_trunctype_V" xlink:title="path_trunctype_V">
<ellipse fill="#f070d1" stroke="#000000" cx="338" cy="-552.7905" rx="94.4649" ry="18"/>
<ellipse fill="none" stroke="#000000" cx="338" cy="-552.7905" rx="98.4744" ry="22"/>
<ellipse fill="none" stroke="#000000" cx="338" cy="-552.7905" rx="102.4838" ry="26"/>
<text text-anchor="middle" x="338" y="-549.0905" font-family="Times,serif" font-size="14.00" fill="#000000">path_trunctype_V</text>
</a>
</g>
</g>
<!-- TruncType_path_trunctype_V&#45;&gt;TruncType_path_trunctype -->
<g id="edge17" class="edge">
<title>TruncType_path_trunctype_V&#45;&gt;TruncType_path_trunctype</title>
<path fill="none" stroke="#000000" d="M411.0978,-534.5871C511.7483,-509.5224 691.4258,-464.7778 787.3925,-440.8795"/>
<polygon fill="#000000" stroke="#000000" points="788.4015,-444.2352 797.2593,-438.4224 786.7099,-437.4426 788.4015,-444.2352"/>
</g>
<!-- TruncType_path_trunctype_1 -->
<g id="node21" class="node">
<title>TruncType_path_trunctype_1</title>
<g id="a_node21"><a xlink:href="TruncType.html#path_trunctype_1" xlink:title="path_trunctype_1">
<ellipse fill="#f070d1" stroke="#000000" cx="117" cy="-552.7905" rx="92.8882" ry="18"/>
<ellipse fill="none" stroke="#000000" cx="117" cy="-552.7905" rx="96.8858" ry="22"/>
<ellipse fill="none" stroke="#000000" cx="117" cy="-552.7905" rx="100.8835" ry="26"/>
<text text-anchor="middle" x="117" y="-549.0905" font-family="Times,serif" font-size="14.00" fill="#000000">path_trunctype_1</text>
</a>
</g>
</g>
<!-- TruncType_path_trunctype_1&#45;&gt;TruncType_path_trunctype -->
<g id="edge18" class="edge">
<title>TruncType_path_trunctype_1&#45;&gt;TruncType_path_trunctype</title>
<path fill="none" stroke="#000000" d="M189.917,-534.7961C202.2612,-531.968 214.9724,-529.1903 227,-526.7905 421.8608,-487.9109 653.0937,-453.0897 772.2206,-435.9748"/>
<polygon fill="#000000" stroke="#000000" points="772.9449,-439.4069 782.3474,-434.5238 771.952,-432.4776 772.9449,-439.4069"/>
</g>
<!-- TruncType_isequiv_path_trunctype&#45;&gt;TruncType_path_trunctype -->
<g id="edge19" class="edge">
<title>TruncType_isequiv_path_trunctype&#45;&gt;TruncType_path_trunctype</title>
<path fill="none" stroke="#000000" d="M897.3674,-676.4253C951.0803,-648.2252 1041.8146,-589.3012 1008,-526.7905 986.4472,-486.9472 941.8173,-460.1783 905.7942,-444.0991"/>
<polygon fill="#000000" stroke="#000000" points="906.9349,-440.7797 896.3657,-440.0429 904.1685,-447.2099 906.9349,-440.7797"/>
</g>
<!-- TruncType_path_trunctype&#45;&gt;TruncType_equiv_path_trunctype -->
<g id="edge20" class="edge">
<title>TruncType_path_trunctype&#45;&gt;TruncType_equiv_path_trunctype</title>
<path fill="none" stroke="#000000" d="M879.3775,-407.6627C915.2966,-385.1911 978.4464,-345.6836 1018.4292,-320.6697"/>
<polygon fill="#000000" stroke="#000000" points="1020.4602,-323.5276 1027.0816,-315.2567 1016.7476,-317.5933 1020.4602,-323.5276"/>
</g>
<!-- TruncType_equiv_path_trunctype_ -->
<g id="node26" class="node">
<title>TruncType_equiv_path_trunctype_</title>
<g id="a_node26"><a xlink:href="TruncType.html#equiv_path_trunctype'" xlink:title="equiv_path_trunctype&#39;">
<ellipse fill="#f070d1" stroke="#000000" cx="930" cy="-169.7905" rx="115.0796" ry="18"/>
<text text-anchor="middle" x="930" y="-166.0905" font-family="Times,serif" font-size="14.00" fill="#000000">equiv_path_trunctype&#39;</text>
</a>
</g>
</g>
<!-- TruncType_equiv_path_trunctype&#45;&gt;TruncType_equiv_path_trunctype_ -->
<g id="edge21" class="edge">
<title>TruncType_equiv_path_trunctype&#45;&gt;TruncType_equiv_path_trunctype_</title>
<path fill="none" stroke="#000000" d="M1037.6193,-279.9926C1016.0982,-257.955 979.2942,-220.2677 954.8089,-195.1948"/>
<polygon fill="#000000" stroke="#000000" points="957.1269,-192.5589 947.6361,-187.8498 952.1188,-197.4496 957.1269,-192.5589"/>
</g>
<!-- TruncType_isequiv_ap_trunctype -->
<g id="node25" class="node">
<title>TruncType_isequiv_ap_trunctype</title>
<g id="a_node25"><a xlink:href="TruncType.html#isequiv_ap_trunctype" xlink:title="isequiv_ap_trunctype">
<ellipse fill="#f070d1" stroke="#000000" cx="806" cy="-297.7905" rx="110.4811" ry="18"/>
<ellipse fill="none" stroke="#000000" cx="806" cy="-297.7905" rx="114.4807" ry="22"/>
<ellipse fill="none" stroke="#000000" cx="806" cy="-297.7905" rx="118.4804" ry="26"/>
<text text-anchor="middle" x="806" y="-294.0905" font-family="Times,serif" font-size="14.00" fill="#000000">isequiv_ap_trunctype</text>
</a>
</g>
</g>
<!-- TruncType_isequiv_ap_trunctype&#45;&gt;TruncType_equiv_path_trunctype_ -->
<g id="edge22" class="edge">
<title>TruncType_isequiv_ap_trunctype&#45;&gt;TruncType_equiv_path_trunctype_</title>
<path fill="none" stroke="#000000" d="M830.7952,-272.1954C852.4173,-249.8759 883.6191,-217.6675 905.2328,-195.3566"/>
<polygon fill="#000000" stroke="#000000" points="908.0025,-197.5278 912.4466,-187.9101 902.9748,-192.6572 908.0025,-197.5278"/>
</g>
<!-- TruncType_issig_trunctype -->
<g id="node27" class="node">
<title>TruncType_issig_trunctype</title>
<g id="a_node27"><a xlink:href="TruncType.html#issig_trunctype" xlink:title="issig_trunctype">
<ellipse fill="#f070d1" stroke="#000000" cx="930" cy="-54.7905" rx="83.3857" ry="18"/>
<text text-anchor="middle" x="930" y="-51.0905" font-family="Times,serif" font-size="14.00" fill="#000000">issig_trunctype</text>
</a>
</g>
</g>
<!-- TruncType_equiv_path_trunctype_&#45;&gt;TruncType_issig_trunctype -->
<g id="edge23" class="edge">
<title>TruncType_equiv_path_trunctype_&#45;&gt;TruncType_issig_trunctype</title>
<path fill="none" stroke="#000000" d="M930,-151.5684C930,-133.1472 930,-104.4234 930,-83.0474"/>
<polygon fill="#000000" stroke="#000000" points="933.5001,-82.9273 930,-72.9273 926.5001,-82.9273 933.5001,-82.9273"/>
</g>
</g>
</svg>
