<?xml version="1.0" encoding="UTF-8" standalone="no"?>
<!DOCTYPE svg PUBLIC "-//W3C//DTD SVG 1.1//EN"
 "http://www.w3.org/Graphics/SVG/1.1/DTD/svg11.dtd">
<!-- Generated by graphviz version 2.40.1 (20161225.0304)
 -->
<!-- Title: HoTT_Algebra_Groups_Kernel Pages: 1 -->
<svg width="542pt" height="275pt"
 viewBox="0.00 0.00 542.00 275.00" xmlns="http://www.w3.org/2000/svg" xmlns:xlink="http://www.w3.org/1999/xlink">
<g id="graph0" class="graph" transform="scale(1 1) rotate(0) translate(4 271)">
<title>HoTT_Algebra_Groups_Kernel</title>
<polygon fill="#ffffff" stroke="transparent" points="-4,4 -4,-271 538,-271 538,4 -4,4"/>
<g id="clust1" class="cluster">
<title>cluster_Kernel</title>
<polygon fill="#ffffc3" stroke="#000000" points="8.2154,-8 8.2154,-259 525.7846,-259 525.7846,-8 8.2154,-8"/>
<text text-anchor="middle" x="39.7154" y="-243.8" font-family="Times,serif" font-size="14.00" fill="#000000">Kernel</text>
</g>
<!-- Kernel_equiv_kernel_isembedding -->
<g id="node1" class="node">
<title>Kernel_equiv_kernel_isembedding</title>
<g id="a_node1"><a xlink:href="Kernel.html#equiv_kernel_isembedding" xlink:title="equiv_kernel_isembedding">
<ellipse fill="#f070d1" stroke="#000000" cx="370.8808" cy="-114" rx="135.3657" ry="18"/>
<ellipse fill="none" stroke="#000000" cx="370.8808" cy="-114" rx="139.371" ry="22"/>
<ellipse fill="none" stroke="#000000" cx="370.8808" cy="-114" rx="143.3763" ry="26"/>
<text text-anchor="middle" x="370.8808" y="-110.3" font-family="Times,serif" font-size="14.00" fill="#000000">equiv_kernel_isembedding</text>
</a>
</g>
</g>
<!-- Kernel_grp_kernel -->
<g id="node4" class="node">
<title>Kernel_grp_kernel</title>
<g id="a_node4"><a xlink:href="Kernel.html#grp_kernel" xlink:title="grp_kernel">
<ellipse fill="#f070d1" stroke="#000000" cx="239.8808" cy="-34" rx="61.99" ry="18"/>
<text text-anchor="middle" x="239.8808" y="-30.3" font-family="Times,serif" font-size="14.00" fill="#000000">grp_kernel</text>
</a>
</g>
</g>
<!-- Kernel_equiv_kernel_isembedding&#45;&gt;Kernel_grp_kernel -->
<g id="edge1" class="edge">
<title>Kernel_equiv_kernel_isembedding&#45;&gt;Kernel_grp_kernel</title>
<path fill="none" stroke="#000000" d="M329.791,-88.907C312.4438,-78.3133 292.4309,-66.0917 275.6966,-55.8723"/>
<polygon fill="#000000" stroke="#000000" points="277.1334,-52.6487 266.7748,-50.4238 273.485,-58.6228 277.1334,-52.6487"/>
</g>
<!-- Kernel_equiv_grp_kernel_corec -->
<g id="node2" class="node">
<title>Kernel_equiv_grp_kernel_corec</title>
<g id="a_node2"><a xlink:href="Kernel.html#equiv_grp_kernel_corec" xlink:title="equiv_grp_kernel_corec">
<ellipse fill="#f070d1" stroke="#000000" cx="149.8808" cy="-202" rx="122.367" ry="18"/>
<ellipse fill="none" stroke="#000000" cx="149.8808" cy="-202" rx="126.3728" ry="22"/>
<ellipse fill="none" stroke="#000000" cx="149.8808" cy="-202" rx="130.3786" ry="26"/>
<text text-anchor="middle" x="149.8808" y="-198.3" font-family="Times,serif" font-size="14.00" fill="#000000">equiv_grp_kernel_corec</text>
</a>
</g>
</g>
<!-- Kernel_grp_kernel_corec -->
<g id="node3" class="node">
<title>Kernel_grp_kernel_corec</title>
<g id="a_node3"><a xlink:href="Kernel.html#grp_kernel_corec" xlink:title="grp_kernel_corec">
<ellipse fill="#f070d1" stroke="#000000" cx="110.8808" cy="-114" rx="92.0841" ry="18"/>
<text text-anchor="middle" x="110.8808" y="-110.3" font-family="Times,serif" font-size="14.00" fill="#000000">grp_kernel_corec</text>
</a>
</g>
</g>
<!-- Kernel_equiv_grp_kernel_corec&#45;&gt;Kernel_grp_kernel_corec -->
<g id="edge2" class="edge">
<title>Kernel_equiv_grp_kernel_corec&#45;&gt;Kernel_grp_kernel_corec</title>
<path fill="none" stroke="#000000" d="M138.3904,-176.0731C133.5245,-165.0936 127.8532,-152.2969 122.9285,-141.1845"/>
<polygon fill="#000000" stroke="#000000" points="126.0834,-139.665 118.8318,-131.9407 119.6837,-142.5013 126.0834,-139.665"/>
</g>
<!-- Kernel_grp_kernel_corec&#45;&gt;Kernel_grp_kernel -->
<g id="edge3" class="edge">
<title>Kernel_grp_kernel_corec&#45;&gt;Kernel_grp_kernel</title>
<path fill="none" stroke="#000000" d="M138.8718,-96.6412C158.1938,-84.6586 184.0333,-68.6341 204.7405,-55.7924"/>
<polygon fill="#000000" stroke="#000000" points="206.613,-58.7497 213.2668,-50.5048 202.9237,-52.8007 206.613,-58.7497"/>
</g>
</g>
</svg>
