<?xml version="1.0" encoding="UTF-8" standalone="no"?>
<!DOCTYPE svg PUBLIC "-//W3C//DTD SVG 1.1//EN"
 "http://www.w3.org/Graphics/SVG/1.1/DTD/svg11.dtd">
<!-- Generated by graphviz version 2.40.1 (20161225.0304)
 -->
<!-- Title: HoTT_Colimits_Coeq Pages: 1 -->
<svg width="2039pt" height="1024pt"
 viewBox="0.00 0.00 2039.00 1023.50" xmlns="http://www.w3.org/2000/svg" xmlns:xlink="http://www.w3.org/1999/xlink">
<g id="graph0" class="graph" transform="scale(1 1) rotate(0) translate(4 1019.5)">
<title>HoTT_Colimits_Coeq</title>
<polygon fill="#ffffff" stroke="transparent" points="-4,4 -4,-1019.5 2035,-1019.5 2035,4 -4,4"/>
<g id="clust1" class="cluster">
<title>cluster_Coeq</title>
<polygon fill="#ffffc3" stroke="#000000" points="8,-10.3227 8,-1005.1773 2023,-1005.1773 2023,-10.3227 8,-10.3227"/>
<text text-anchor="middle" x="34.5" y="-989.9773" font-family="Times,serif" font-size="14.00" fill="#000000">Coeq</text>
</g>
<!-- Coeq_Coeq_sym -->
<g id="node1" class="node">
<title>Coeq_Coeq_sym</title>
<g id="a_node1"><a xlink:href="Coeq.html#Coeq_sym" xlink:title="Coeq_sym">
<ellipse fill="#f070d1" stroke="#000000" cx="287" cy="-632.3227" rx="58.4902" ry="18"/>
<ellipse fill="none" stroke="#000000" cx="287" cy="-632.3227" rx="62.4899" ry="22"/>
<ellipse fill="none" stroke="#000000" cx="287" cy="-632.3227" rx="66.4896" ry="26"/>
<text text-anchor="middle" x="287" y="-628.6227" font-family="Times,serif" font-size="14.00" fill="#000000">Coeq_sym</text>
</a>
</g>
</g>
<!-- Coeq_sect_Coeq_sym_map -->
<g id="node2" class="node">
<title>Coeq_sect_Coeq_sym_map</title>
<g id="a_node2"><a xlink:href="Coeq.html#sect_Coeq_sym_map" xlink:title="sect_Coeq_sym_map">
<ellipse fill="#f070d1" stroke="#000000" cx="328" cy="-518.3227" rx="107.781" ry="18"/>
<text text-anchor="middle" x="328" y="-514.6227" font-family="Times,serif" font-size="14.00" fill="#000000">sect_Coeq_sym_map</text>
</a>
</g>
</g>
<!-- Coeq_Coeq_sym&#45;&gt;Coeq_sect_Coeq_sym_map -->
<g id="edge1" class="edge">
<title>Coeq_Coeq_sym&#45;&gt;Coeq_sect_Coeq_sym_map</title>
<path fill="none" stroke="#000000" d="M296.3035,-606.4544C302.7624,-588.4956 311.3603,-564.5893 317.9717,-546.2064"/>
<polygon fill="#000000" stroke="#000000" points="321.3232,-547.2293 321.4141,-536.6349 314.7363,-544.8603 321.3232,-547.2293"/>
</g>
<!-- Coeq_sect_Coeq_sym_map_subproof -->
<g id="node3" class="node">
<title>Coeq_sect_Coeq_sym_map_subproof</title>
<g id="a_node3"><a xlink:href="Coeq.html#sect_Coeq_sym_map_subproof" xlink:title="sect_Coeq_sym_map_subproof">
<ellipse fill="#f070d1" stroke="#000000" cx="704" cy="-415.3227" rx="153.2729" ry="18"/>
<text text-anchor="middle" x="704" y="-411.6227" font-family="Times,serif" font-size="14.00" fill="#000000">sect_Coeq_sym_map_subproof</text>
</a>
</g>
</g>
<!-- Coeq_sect_Coeq_sym_map&#45;&gt;Coeq_sect_Coeq_sym_map_subproof -->
<g id="edge2" class="edge">
<title>Coeq_sect_Coeq_sym_map&#45;&gt;Coeq_sect_Coeq_sym_map_subproof</title>
<path fill="none" stroke="#000000" d="M384.291,-502.9026C450.8164,-484.6789 561.5597,-454.3423 633.6722,-434.5881"/>
<polygon fill="#000000" stroke="#000000" points="634.8626,-437.891 643.5826,-431.8733 633.0132,-431.1397 634.8626,-437.891"/>
</g>
<!-- Coeq_Coeq_ind -->
<g id="node30" class="node">
<title>Coeq_Coeq_ind</title>
<g id="a_node30"><a xlink:href="Coeq.html#Coeq_ind" xlink:title="Coeq_ind">
<ellipse fill="#f070d1" stroke="#000000" cx="929" cy="-415.3227" rx="53.8905" ry="18"/>
<text text-anchor="middle" x="929" y="-411.6227" font-family="Times,serif" font-size="14.00" fill="#000000">Coeq_ind</text>
</a>
</g>
</g>
<!-- Coeq_sect_Coeq_sym_map&#45;&gt;Coeq_Coeq_ind -->
<g id="edge3" class="edge">
<title>Coeq_sect_Coeq_sym_map&#45;&gt;Coeq_Coeq_ind</title>
<path fill="none" stroke="#000000" d="M390.0525,-503.5708C407.7464,-499.6264 427.0838,-495.5636 445,-492.3227 630.9224,-458.6917 681.1628,-472.4813 866,-433.3227 870.3748,-432.3959 874.8916,-431.3293 879.4037,-430.1876"/>
<polygon fill="#000000" stroke="#000000" points="880.4434,-433.5331 889.2168,-427.5936 878.6544,-426.7655 880.4434,-433.5331"/>
</g>
<!-- Coeq_Coeq_sym_map -->
<g id="node4" class="node">
<title>Coeq_Coeq_sym_map</title>
<g id="a_node4"><a xlink:href="Coeq.html#Coeq_sym_map" xlink:title="Coeq_sym_map">
<ellipse fill="#f070d1" stroke="#000000" cx="741" cy="-322.3227" rx="83.3857" ry="18"/>
<text text-anchor="middle" x="741" y="-318.6227" font-family="Times,serif" font-size="14.00" fill="#000000">Coeq_sym_map</text>
</a>
</g>
</g>
<!-- Coeq_sect_Coeq_sym_map_subproof&#45;&gt;Coeq_Coeq_sym_map -->
<g id="edge4" class="edge">
<title>Coeq_sect_Coeq_sym_map_subproof&#45;&gt;Coeq_Coeq_sym_map</title>
<path fill="none" stroke="#000000" d="M711.31,-396.9489C716.6656,-383.4876 724.0253,-364.9889 730.0772,-349.7774"/>
<polygon fill="#000000" stroke="#000000" points="733.3864,-350.9274 733.8311,-340.3419 726.8823,-348.3397 733.3864,-350.9274"/>
</g>
<!-- Coeq_Coeq_rec_beta_cglue -->
<g id="node27" class="node">
<title>Coeq_Coeq_rec_beta_cglue</title>
<g id="a_node27"><a xlink:href="Coeq.html#Coeq_rec_beta_cglue" xlink:title="Coeq_rec_beta_cglue">
<ellipse fill="#f070d1" stroke="#000000" cx="972" cy="-322.3227" rx="110.4804" ry="18"/>
<text text-anchor="middle" x="972" y="-318.6227" font-family="Times,serif" font-size="14.00" fill="#000000">Coeq_rec_beta_cglue</text>
</a>
</g>
</g>
<!-- Coeq_sect_Coeq_sym_map_subproof&#45;&gt;Coeq_Coeq_rec_beta_cglue -->
<g id="edge5" class="edge">
<title>Coeq_sect_Coeq_sym_map_subproof&#45;&gt;Coeq_Coeq_rec_beta_cglue</title>
<path fill="none" stroke="#000000" d="M753.1553,-398.2651C798.96,-382.3702 867.2334,-358.6783 915.3172,-341.9925"/>
<polygon fill="#000000" stroke="#000000" points="916.6538,-345.2335 924.9537,-338.6485 914.3589,-338.6204 916.6538,-345.2335"/>
</g>
<!-- Coeq_Coeq_rec -->
<g id="node28" class="node">
<title>Coeq_Coeq_rec</title>
<g id="a_node28"><a xlink:href="Coeq.html#Coeq_rec" xlink:title="Coeq_rec">
<ellipse fill="#f070d1" stroke="#000000" cx="967" cy="-229.3227" rx="54.6905" ry="18"/>
<text text-anchor="middle" x="967" y="-225.6227" font-family="Times,serif" font-size="14.00" fill="#000000">Coeq_rec</text>
</a>
</g>
</g>
<!-- Coeq_Coeq_sym_map&#45;&gt;Coeq_Coeq_rec -->
<g id="edge6" class="edge">
<title>Coeq_Coeq_sym_map&#45;&gt;Coeq_Coeq_rec</title>
<path fill="none" stroke="#000000" d="M779.8508,-306.3355C819.7765,-289.9059 881.8135,-264.3774 923.3943,-247.2667"/>
<polygon fill="#000000" stroke="#000000" points="924.8029,-250.4718 932.7186,-243.4297 922.1391,-243.9985 924.8029,-250.4718"/>
</g>
<!-- Coeq_cglue -->
<g id="node31" class="node">
<title>Coeq_cglue</title>
<g id="a_node31"><a xlink:href="Coeq.html#cglue" xlink:title="cglue">
<ellipse fill="#f070d1" stroke="#000000" cx="848" cy="-229.3227" rx="36.2938" ry="18"/>
<text text-anchor="middle" x="848" y="-225.6227" font-family="Times,serif" font-size="14.00" fill="#000000">cglue</text>
</a>
</g>
</g>
<!-- Coeq_Coeq_sym_map&#45;&gt;Coeq_cglue -->
<g id="edge7" class="edge">
<title>Coeq_Coeq_sym_map&#45;&gt;Coeq_cglue</title>
<path fill="none" stroke="#000000" d="M761.1259,-304.8302C778.3943,-289.8212 803.3863,-268.0991 822.1359,-251.8028"/>
<polygon fill="#000000" stroke="#000000" points="824.4969,-254.3879 829.7485,-245.1862 819.9049,-249.1046 824.4969,-254.3879"/>
</g>
<!-- Coeq_Coeq_ind2 -->
<g id="node5" class="node">
<title>Coeq_Coeq_ind2</title>
<g id="a_node5"><a xlink:href="Coeq.html#Coeq_ind2" xlink:title="Coeq_ind2">
<ellipse fill="#f070d1" stroke="#000000" cx="439" cy="-632.3227" rx="59.6142" ry="18"/>
<ellipse fill="none" stroke="#000000" cx="439" cy="-632.3227" rx="63.6021" ry="22"/>
<ellipse fill="none" stroke="#000000" cx="439" cy="-632.3227" rx="67.59" ry="26"/>
<text text-anchor="middle" x="439" y="-628.6227" font-family="Times,serif" font-size="14.00" fill="#000000">Coeq_ind2</text>
</a>
</g>
</g>
<!-- Coeq_Coeq_ind_beta_cglue -->
<g id="node29" class="node">
<title>Coeq_Coeq_ind_beta_cglue</title>
<g id="a_node29"><a xlink:href="Coeq.html#Coeq_ind_beta_cglue" xlink:title="Coeq_ind_beta_cglue">
<ellipse fill="#f070d1" stroke="#000000" cx="564" cy="-518.3227" rx="109.6807" ry="18"/>
<text text-anchor="middle" x="564" y="-514.6227" font-family="Times,serif" font-size="14.00" fill="#000000">Coeq_ind_beta_cglue</text>
</a>
</g>
</g>
<!-- Coeq_Coeq_ind2&#45;&gt;Coeq_Coeq_ind_beta_cglue -->
<g id="edge8" class="edge">
<title>Coeq_Coeq_ind2&#45;&gt;Coeq_Coeq_ind_beta_cglue</title>
<path fill="none" stroke="#000000" d="M465.5093,-608.1463C486.5722,-588.9369 515.9077,-562.1829 537.0777,-542.8758"/>
<polygon fill="#000000" stroke="#000000" points="539.4471,-545.452 544.4773,-536.1274 534.7301,-540.2799 539.4471,-545.452"/>
</g>
<!-- Coeq_Coeq_rec2_beta_cgluer -->
<g id="node6" class="node">
<title>Coeq_Coeq_rec2_beta_cgluer</title>
<g id="a_node6"><a xlink:href="Coeq.html#Coeq_rec2_beta_cgluer" xlink:title="Coeq_rec2_beta_cgluer">
<ellipse fill="#f070d1" stroke="#000000" cx="1887" cy="-632.3227" rx="120.4642" ry="18"/>
<ellipse fill="none" stroke="#000000" cx="1887" cy="-632.3227" rx="124.4716" ry="22"/>
<ellipse fill="none" stroke="#000000" cx="1887" cy="-632.3227" rx="128.4791" ry="26"/>
<text text-anchor="middle" x="1887" y="-628.6227" font-family="Times,serif" font-size="14.00" fill="#000000">Coeq_rec2_beta_cgluer</text>
</a>
</g>
</g>
<!-- Coeq_Coeq_rec2 -->
<g id="node9" class="node">
<title>Coeq_Coeq_rec2</title>
<g id="a_node9"><a xlink:href="Coeq.html#Coeq_rec2" xlink:title="Coeq_rec2">
<ellipse fill="#f070d1" stroke="#000000" cx="1909" cy="-518.3227" rx="60.3893" ry="18"/>
<text text-anchor="middle" x="1909" y="-514.6227" font-family="Times,serif" font-size="14.00" fill="#000000">Coeq_rec2</text>
</a>
</g>
</g>
<!-- Coeq_Coeq_rec2_beta_cgluer&#45;&gt;Coeq_Coeq_rec2 -->
<g id="edge9" class="edge">
<title>Coeq_Coeq_rec2_beta_cgluer&#45;&gt;Coeq_Coeq_rec2</title>
<path fill="none" stroke="#000000" d="M1892.0472,-606.1688C1895.4831,-588.3647 1900.0278,-564.8149 1903.5468,-546.5804"/>
<polygon fill="#000000" stroke="#000000" points="1907.0256,-547.0241 1905.484,-536.542 1900.1525,-545.6976 1907.0256,-547.0241"/>
</g>
<!-- Coeq_Coeq_rec2_beta_cgluel -->
<g id="node7" class="node">
<title>Coeq_Coeq_rec2_beta_cgluel</title>
<g id="a_node7"><a xlink:href="Coeq.html#Coeq_rec2_beta_cgluel" xlink:title="Coeq_rec2_beta_cgluel">
<ellipse fill="#f070d1" stroke="#000000" cx="1614" cy="-632.3227" rx="118.8827" ry="18"/>
<ellipse fill="none" stroke="#000000" cx="1614" cy="-632.3227" rx="122.8808" ry="22"/>
<ellipse fill="none" stroke="#000000" cx="1614" cy="-632.3227" rx="126.8789" ry="26"/>
<text text-anchor="middle" x="1614" y="-628.6227" font-family="Times,serif" font-size="14.00" fill="#000000">Coeq_rec2_beta_cgluel</text>
</a>
</g>
</g>
<!-- Coeq_Coeq_rec2_beta_cgluel&#45;&gt;Coeq_Coeq_rec2 -->
<g id="edge10" class="edge">
<title>Coeq_Coeq_rec2_beta_cgluel&#45;&gt;Coeq_Coeq_rec2</title>
<path fill="none" stroke="#000000" d="M1673.6977,-609.2531C1729.3719,-587.7383 1811.2862,-556.0833 1862.3203,-536.3617"/>
<polygon fill="#000000" stroke="#000000" points="1863.7214,-539.5726 1871.7875,-532.7032 1861.1981,-533.0431 1863.7214,-539.5726"/>
</g>
<!-- Coeq_Coeq_rec2_beta -->
<g id="node8" class="node">
<title>Coeq_Coeq_rec2_beta</title>
<g id="a_node8"><a xlink:href="Coeq.html#Coeq_rec2_beta" xlink:title="Coeq_rec2_beta">
<ellipse fill="#f070d1" stroke="#000000" cx="1375" cy="-632.3227" rx="85.6029" ry="18"/>
<ellipse fill="none" stroke="#000000" cx="1375" cy="-632.3227" rx="89.5941" ry="22"/>
<ellipse fill="none" stroke="#000000" cx="1375" cy="-632.3227" rx="93.5852" ry="26"/>
<text text-anchor="middle" x="1375" y="-628.6227" font-family="Times,serif" font-size="14.00" fill="#000000">Coeq_rec2_beta</text>
</a>
</g>
</g>
<!-- Coeq_Coeq_rec2_beta&#45;&gt;Coeq_Coeq_rec2 -->
<g id="edge11" class="edge">
<title>Coeq_Coeq_rec2_beta&#45;&gt;Coeq_Coeq_rec2</title>
<path fill="none" stroke="#000000" d="M1442.9745,-614.3759C1454.6229,-611.5267 1466.6331,-608.7298 1478,-606.3227 1637.262,-572.598 1681.7984,-586.6237 1839,-544.3227 1847.188,-542.1195 1855.7614,-539.3448 1863.9888,-536.4346"/>
<polygon fill="#000000" stroke="#000000" points="1865.2514,-539.6997 1873.4443,-532.9821 1862.8504,-533.1243 1865.2514,-539.6997"/>
</g>
<!-- Coeq_Coeq_rec2&#45;&gt;Coeq_Coeq_rec_beta_cglue -->
<g id="edge12" class="edge">
<title>Coeq_Coeq_rec2&#45;&gt;Coeq_Coeq_rec_beta_cglue</title>
<path fill="none" stroke="#000000" d="M1873.0381,-503.695C1862.2161,-499.6397 1850.2304,-495.4869 1839,-492.3227 1691.4179,-450.7418 1245.5773,-370.4263 1057.3348,-337.235"/>
<polygon fill="#000000" stroke="#000000" points="1057.9365,-333.7872 1047.4809,-335.4992 1056.722,-340.6811 1057.9365,-333.7872"/>
</g>
<!-- Coeq_Coeq_rec2&#45;&gt;Coeq_Coeq_ind -->
<g id="edge13" class="edge">
<title>Coeq_Coeq_rec2&#45;&gt;Coeq_Coeq_ind</title>
<path fill="none" stroke="#000000" d="M1874.6871,-503.381C1863.5076,-499.111 1850.9069,-494.9165 1839,-492.3227 1489.3491,-416.1547 1391.2773,-476.163 1036,-433.3227 1019.8148,-431.3711 1002.3443,-428.6819 986.3073,-425.9768"/>
<polygon fill="#000000" stroke="#000000" points="986.4522,-422.4504 976.0036,-424.2045 985.2656,-429.3491 986.4522,-422.4504"/>
</g>
<!-- Coeq_equiv_functor_coeq_ -->
<g id="node10" class="node">
<title>Coeq_equiv_functor_coeq_</title>
<g id="a_node10"><a xlink:href="Coeq.html#equiv_functor_coeq'" xlink:title="equiv_functor_coeq&#39;">
<ellipse fill="#f070d1" stroke="#000000" cx="1037" cy="-931.3227" rx="104.7716" ry="18"/>
<ellipse fill="none" stroke="#000000" cx="1037" cy="-931.3227" rx="108.7766" ry="22"/>
<ellipse fill="none" stroke="#000000" cx="1037" cy="-931.3227" rx="112.7816" ry="26"/>
<text text-anchor="middle" x="1037" y="-927.6227" font-family="Times,serif" font-size="14.00" fill="#000000">equiv_functor_coeq&#39;</text>
</a>
</g>
</g>
<!-- Coeq_equiv_functor_coeq -->
<g id="node11" class="node">
<title>Coeq_equiv_functor_coeq</title>
<g id="a_node11"><a xlink:href="Coeq.html#equiv_functor_coeq" xlink:title="equiv_functor_coeq">
<ellipse fill="#f070d1" stroke="#000000" cx="1037" cy="-828.3227" rx="102.0819" ry="18"/>
<text text-anchor="middle" x="1037" y="-824.6227" font-family="Times,serif" font-size="14.00" fill="#000000">equiv_functor_coeq</text>
</a>
</g>
</g>
<!-- Coeq_equiv_functor_coeq_&#45;&gt;Coeq_equiv_functor_coeq -->
<g id="edge14" class="edge">
<title>Coeq_equiv_functor_coeq_&#45;&gt;Coeq_equiv_functor_coeq</title>
<path fill="none" stroke="#000000" d="M1037,-905.065C1037,-890.293 1037,-871.8398 1037,-856.7308"/>
<polygon fill="#000000" stroke="#000000" points="1040.5001,-856.4205 1037,-846.4206 1033.5001,-856.4206 1040.5001,-856.4205"/>
</g>
<!-- Coeq_isequiv_functor_coeq -->
<g id="node12" class="node">
<title>Coeq_isequiv_functor_coeq</title>
<g id="a_node12"><a xlink:href="Coeq.html#isequiv_functor_coeq" xlink:title="isequiv_functor_coeq">
<ellipse fill="#f070d1" stroke="#000000" cx="1037" cy="-735.3227" rx="109.6807" ry="18"/>
<text text-anchor="middle" x="1037" y="-731.6227" font-family="Times,serif" font-size="14.00" fill="#000000">isequiv_functor_coeq</text>
</a>
</g>
</g>
<!-- Coeq_equiv_functor_coeq&#45;&gt;Coeq_isequiv_functor_coeq -->
<g id="edge15" class="edge">
<title>Coeq_equiv_functor_coeq&#45;&gt;Coeq_isequiv_functor_coeq</title>
<path fill="none" stroke="#000000" d="M1037,-809.9489C1037,-796.744 1037,-778.6918 1037,-763.6501"/>
<polygon fill="#000000" stroke="#000000" points="1040.5001,-763.3419 1037,-753.3419 1033.5001,-763.342 1040.5001,-763.3419"/>
</g>
<!-- Coeq_functor_coeq_eisretr -->
<g id="node13" class="node">
<title>Coeq_functor_coeq_eisretr</title>
<g id="a_node13"><a xlink:href="Coeq.html#functor_coeq_eisretr" xlink:title="functor_coeq_eisretr">
<ellipse fill="#f070d1" stroke="#000000" cx="1155" cy="-632.3227" rx="107.781" ry="18"/>
<text text-anchor="middle" x="1155" y="-628.6227" font-family="Times,serif" font-size="14.00" fill="#000000">functor_coeq_eisretr</text>
</a>
</g>
</g>
<!-- Coeq_isequiv_functor_coeq&#45;&gt;Coeq_functor_coeq_eisretr -->
<g id="edge16" class="edge">
<title>Coeq_isequiv_functor_coeq&#45;&gt;Coeq_functor_coeq_eisretr</title>
<path fill="none" stroke="#000000" d="M1057.2849,-717.6164C1076.4499,-700.8877 1105.3726,-675.6415 1126.783,-656.9528"/>
<polygon fill="#000000" stroke="#000000" points="1129.3528,-659.3555 1134.5849,-650.1427 1124.7496,-654.082 1129.3528,-659.3555"/>
</g>
<!-- Coeq_functor_coeq_eissect -->
<g id="node14" class="node">
<title>Coeq_functor_coeq_eissect</title>
<g id="a_node14"><a xlink:href="Coeq.html#functor_coeq_eissect" xlink:title="functor_coeq_eissect">
<ellipse fill="#f070d1" stroke="#000000" cx="920" cy="-632.3227" rx="109.381" ry="18"/>
<text text-anchor="middle" x="920" y="-628.6227" font-family="Times,serif" font-size="14.00" fill="#000000">functor_coeq_eissect</text>
</a>
</g>
</g>
<!-- Coeq_isequiv_functor_coeq&#45;&gt;Coeq_functor_coeq_eissect -->
<g id="edge17" class="edge">
<title>Coeq_isequiv_functor_coeq&#45;&gt;Coeq_functor_coeq_eissect</title>
<path fill="none" stroke="#000000" d="M1016.887,-717.6164C997.8844,-700.8877 969.2068,-675.6415 947.9779,-656.9528"/>
<polygon fill="#000000" stroke="#000000" points="950.0607,-654.1234 940.2421,-650.1427 945.4353,-659.3775 950.0607,-654.1234"/>
</g>
<!-- Coeq_functor_coeq_inverse -->
<g id="node15" class="node">
<title>Coeq_functor_coeq_inverse</title>
<g id="a_node15"><a xlink:href="Coeq.html#functor_coeq_inverse" xlink:title="functor_coeq_inverse">
<ellipse fill="#f070d1" stroke="#000000" cx="1720" cy="-518.3227" rx="110.4804" ry="18"/>
<text text-anchor="middle" x="1720" y="-514.6227" font-family="Times,serif" font-size="14.00" fill="#000000">functor_coeq_inverse</text>
</a>
</g>
</g>
<!-- Coeq_functor_coeq_eisretr&#45;&gt;Coeq_functor_coeq_inverse -->
<g id="edge18" class="edge">
<title>Coeq_functor_coeq_eisretr&#45;&gt;Coeq_functor_coeq_inverse</title>
<path fill="none" stroke="#000000" d="M1218.6786,-617.779C1235.9556,-613.9405 1254.6745,-609.8793 1272,-606.3227 1417.7566,-576.4018 1455.1903,-573.984 1601,-544.3227 1615.2274,-541.4285 1630.3826,-538.2167 1644.9447,-535.0657"/>
<polygon fill="#000000" stroke="#000000" points="1645.8846,-538.4432 1654.9127,-532.8986 1644.3974,-531.603 1645.8846,-538.4432"/>
</g>
<!-- Coeq_functor_coeq_sect -->
<g id="node16" class="node">
<title>Coeq_functor_coeq_sect</title>
<g id="a_node16"><a xlink:href="Coeq.html#functor_coeq_sect" xlink:title="functor_coeq_sect">
<ellipse fill="#f070d1" stroke="#000000" cx="948" cy="-518.3227" rx="96.3833" ry="18"/>
<text text-anchor="middle" x="948" y="-514.6227" font-family="Times,serif" font-size="14.00" fill="#000000">functor_coeq_sect</text>
</a>
</g>
</g>
<!-- Coeq_functor_coeq_eisretr&#45;&gt;Coeq_functor_coeq_sect -->
<g id="edge19" class="edge">
<title>Coeq_functor_coeq_eisretr&#45;&gt;Coeq_functor_coeq_sect</title>
<path fill="none" stroke="#000000" d="M1123.5612,-615.0086C1087.3327,-595.0567 1027.7192,-562.2261 988.1613,-540.4406"/>
<polygon fill="#000000" stroke="#000000" points="989.5044,-537.1846 979.0565,-535.4263 986.1275,-543.3162 989.5044,-537.1846"/>
</g>
<!-- Coeq_functor_coeq_eissect&#45;&gt;Coeq_functor_coeq_inverse -->
<g id="edge20" class="edge">
<title>Coeq_functor_coeq_eissect&#45;&gt;Coeq_functor_coeq_inverse</title>
<path fill="none" stroke="#000000" d="M981.6123,-617.4397C999.7034,-613.4248 1019.5783,-609.3576 1038,-606.3227 1286.3868,-565.4024 1352.5772,-585.0237 1601,-544.3227 1616.1503,-541.8406 1632.2778,-538.6753 1647.6099,-535.4139"/>
<polygon fill="#000000" stroke="#000000" points="1648.5183,-538.7984 1657.5522,-533.2631 1647.0382,-531.9567 1648.5183,-538.7984"/>
</g>
<!-- Coeq_functor_coeq_eissect&#45;&gt;Coeq_functor_coeq_sect -->
<g id="edge21" class="edge">
<title>Coeq_functor_coeq_eissect&#45;&gt;Coeq_functor_coeq_sect</title>
<path fill="none" stroke="#000000" d="M924.4367,-614.2591C928.9158,-596.0226 935.8967,-567.6005 941.0991,-546.4194"/>
<polygon fill="#000000" stroke="#000000" points="944.505,-547.2256 943.4914,-536.6794 937.7071,-545.5559 944.505,-547.2256"/>
</g>
<!-- Coeq_functor_coeq -->
<g id="node20" class="node">
<title>Coeq_functor_coeq</title>
<g id="a_node20"><a xlink:href="Coeq.html#functor_coeq" xlink:title="functor_coeq">
<ellipse fill="#f070d1" stroke="#000000" cx="1172" cy="-322.3227" rx="71.4873" ry="18"/>
<text text-anchor="middle" x="1172" y="-318.6227" font-family="Times,serif" font-size="14.00" fill="#000000">functor_coeq</text>
</a>
</g>
</g>
<!-- Coeq_functor_coeq_inverse&#45;&gt;Coeq_functor_coeq -->
<g id="edge22" class="edge">
<title>Coeq_functor_coeq_inverse&#45;&gt;Coeq_functor_coeq</title>
<path fill="none" stroke="#000000" d="M1673.7501,-501.7808C1571.908,-465.3555 1328.9272,-378.45 1222.9198,-340.5349"/>
<polygon fill="#000000" stroke="#000000" points="1223.9951,-337.2025 1213.4005,-337.1302 1221.6377,-343.7936 1223.9951,-337.2025"/>
</g>
<!-- Coeq_functor_coeq_beta_cglue -->
<g id="node19" class="node">
<title>Coeq_functor_coeq_beta_cglue</title>
<g id="a_node19"><a xlink:href="Coeq.html#functor_coeq_beta_cglue" xlink:title="functor_coeq_beta_cglue">
<ellipse fill="#f070d1" stroke="#000000" cx="1172" cy="-415.3227" rx="127.2775" ry="18"/>
<text text-anchor="middle" x="1172" y="-411.6227" font-family="Times,serif" font-size="14.00" fill="#000000">functor_coeq_beta_cglue</text>
</a>
</g>
</g>
<!-- Coeq_functor_coeq_sect&#45;&gt;Coeq_functor_coeq_beta_cglue -->
<g id="edge23" class="edge">
<title>Coeq_functor_coeq_sect&#45;&gt;Coeq_functor_coeq_beta_cglue</title>
<path fill="none" stroke="#000000" d="M984.488,-501.5448C1022.8676,-483.897 1083.391,-456.0671 1125.2471,-436.8207"/>
<polygon fill="#000000" stroke="#000000" points="1126.7825,-439.9671 1134.4058,-432.6093 1123.8581,-433.6072 1126.7825,-439.9671"/>
</g>
<!-- Coeq_functor_coeq_sect&#45;&gt;Coeq_Coeq_ind -->
<g id="edge24" class="edge">
<title>Coeq_functor_coeq_sect&#45;&gt;Coeq_Coeq_ind</title>
<path fill="none" stroke="#000000" d="M944.6032,-499.9084C941.7122,-484.2363 937.5136,-461.4752 934.1997,-443.5107"/>
<polygon fill="#000000" stroke="#000000" points="937.6235,-442.7768 932.3674,-433.5777 930.7396,-444.0467 937.6235,-442.7768"/>
</g>
<!-- Coeq_functor_coeq_homotopy -->
<g id="node17" class="node">
<title>Coeq_functor_coeq_homotopy</title>
<g id="a_node17"><a xlink:href="Coeq.html#functor_coeq_homotopy" xlink:title="functor_coeq_homotopy">
<ellipse fill="#f070d1" stroke="#000000" cx="1192" cy="-518.3227" rx="122.367" ry="18"/>
<ellipse fill="none" stroke="#000000" cx="1192" cy="-518.3227" rx="126.3728" ry="22"/>
<ellipse fill="none" stroke="#000000" cx="1192" cy="-518.3227" rx="130.3786" ry="26"/>
<text text-anchor="middle" x="1192" y="-514.6227" font-family="Times,serif" font-size="14.00" fill="#000000">functor_coeq_homotopy</text>
</a>
</g>
</g>
<!-- Coeq_functor_coeq_homotopy&#45;&gt;Coeq_functor_coeq_beta_cglue -->
<g id="edge25" class="edge">
<title>Coeq_functor_coeq_homotopy&#45;&gt;Coeq_functor_coeq_beta_cglue</title>
<path fill="none" stroke="#000000" d="M1186.9532,-492.3315C1184.0573,-477.4177 1180.42,-458.6857 1177.4579,-443.4307"/>
<polygon fill="#000000" stroke="#000000" points="1180.8745,-442.6642 1175.5324,-433.5148 1174.0028,-443.9986 1180.8745,-442.6642"/>
</g>
<!-- Coeq_functor_coeq_homotopy&#45;&gt;Coeq_Coeq_ind -->
<g id="edge26" class="edge">
<title>Coeq_functor_coeq_homotopy&#45;&gt;Coeq_Coeq_ind</title>
<path fill="none" stroke="#000000" d="M1132.6497,-495.0791C1084.4791,-476.2138 1017.6004,-450.0218 973.8258,-432.8781"/>
<polygon fill="#000000" stroke="#000000" points="974.896,-429.5384 964.3083,-429.1507 972.3433,-436.0564 974.896,-429.5384"/>
</g>
<!-- Coeq_functor_coeq_compose -->
<g id="node18" class="node">
<title>Coeq_functor_coeq_compose</title>
<g id="a_node18"><a xlink:href="Coeq.html#functor_coeq_compose" xlink:title="functor_coeq_compose">
<ellipse fill="#f070d1" stroke="#000000" cx="1466" cy="-518.3227" rx="117.7704" ry="18"/>
<ellipse fill="none" stroke="#000000" cx="1466" cy="-518.3227" rx="121.7748" ry="22"/>
<ellipse fill="none" stroke="#000000" cx="1466" cy="-518.3227" rx="125.7793" ry="26"/>
<text text-anchor="middle" x="1466" y="-514.6227" font-family="Times,serif" font-size="14.00" fill="#000000">functor_coeq_compose</text>
</a>
</g>
</g>
<!-- Coeq_functor_coeq_compose&#45;&gt;Coeq_functor_coeq_beta_cglue -->
<g id="edge27" class="edge">
<title>Coeq_functor_coeq_compose&#45;&gt;Coeq_functor_coeq_beta_cglue</title>
<path fill="none" stroke="#000000" d="M1401.8437,-495.8462C1350.5228,-477.8665 1279.1997,-452.8791 1229.6703,-435.527"/>
<polygon fill="#000000" stroke="#000000" points="1230.6623,-432.166 1220.0674,-432.1627 1228.3478,-438.7723 1230.6623,-432.166"/>
</g>
<!-- Coeq_functor_coeq_compose&#45;&gt;Coeq_Coeq_ind -->
<g id="edge28" class="edge">
<title>Coeq_functor_coeq_compose&#45;&gt;Coeq_Coeq_ind</title>
<path fill="none" stroke="#000000" d="M1373.7752,-500.548C1359.4551,-497.7918 1344.8295,-494.9789 1331,-492.3227 1208.1132,-468.7202 1064.0754,-441.1551 986.1299,-426.2467"/>
<polygon fill="#000000" stroke="#000000" points="986.5182,-422.7576 976.0387,-424.3166 985.2032,-429.633 986.5182,-422.7576"/>
</g>
<!-- Coeq_functor_coeq_beta_cglue&#45;&gt;Coeq_functor_coeq -->
<g id="edge29" class="edge">
<title>Coeq_functor_coeq_beta_cglue&#45;&gt;Coeq_functor_coeq</title>
<path fill="none" stroke="#000000" d="M1172,-396.9489C1172,-383.744 1172,-365.6918 1172,-350.6501"/>
<polygon fill="#000000" stroke="#000000" points="1175.5001,-350.3419 1172,-340.3419 1168.5001,-350.342 1175.5001,-350.3419"/>
</g>
<!-- Coeq_functor_coeq_beta_cglue&#45;&gt;Coeq_Coeq_rec_beta_cglue -->
<g id="edge30" class="edge">
<title>Coeq_functor_coeq_beta_cglue&#45;&gt;Coeq_Coeq_rec_beta_cglue</title>
<path fill="none" stroke="#000000" d="M1134.8503,-398.0481C1101.7702,-382.6659 1053.2593,-360.1083 1017.7893,-343.6148"/>
<polygon fill="#000000" stroke="#000000" points="1019.1565,-340.3907 1008.6131,-339.3478 1016.2049,-346.738 1019.1565,-340.3907"/>
</g>
<!-- Coeq_functor_coeq&#45;&gt;Coeq_Coeq_rec -->
<g id="edge31" class="edge">
<title>Coeq_functor_coeq&#45;&gt;Coeq_Coeq_rec</title>
<path fill="none" stroke="#000000" d="M1137.2245,-306.5466C1101.6302,-290.3989 1046.3136,-265.3041 1008.4632,-248.1329"/>
<polygon fill="#000000" stroke="#000000" points="1009.7918,-244.8923 999.2391,-243.9483 1006.8998,-251.267 1009.7918,-244.8923"/>
</g>
<!-- Coeq_functor_coeq&#45;&gt;Coeq_cglue -->
<g id="edge32" class="edge">
<title>Coeq_functor_coeq&#45;&gt;Coeq_cglue</title>
<path fill="none" stroke="#000000" d="M1122.2302,-309.156C1068.0929,-294.6688 979.0976,-270.3711 903,-247.3227 898.078,-245.832 892.9254,-244.2177 887.8312,-242.589"/>
<polygon fill="#000000" stroke="#000000" points="888.7746,-239.2156 878.1828,-239.4676 886.6199,-245.8758 888.7746,-239.2156"/>
</g>
<!-- Coeq_equiv_Coeq_rec -->
<g id="node21" class="node">
<title>Coeq_equiv_Coeq_rec</title>
<g id="a_node21"><a xlink:href="Coeq.html#equiv_Coeq_rec" xlink:title="equiv_Coeq_rec">
<ellipse fill="#f070d1" stroke="#000000" cx="109" cy="-632.3227" rx="85.2729" ry="18"/>
<ellipse fill="none" stroke="#000000" cx="109" cy="-632.3227" rx="89.279" ry="22"/>
<ellipse fill="none" stroke="#000000" cx="109" cy="-632.3227" rx="93.2851" ry="26"/>
<text text-anchor="middle" x="109" y="-628.6227" font-family="Times,serif" font-size="14.00" fill="#000000">equiv_Coeq_rec</text>
</a>
</g>
</g>
<!-- Coeq_isequiv_Coeq_rec -->
<g id="node22" class="node">
<title>Coeq_isequiv_Coeq_rec</title>
<g id="a_node22"><a xlink:href="Coeq.html#isequiv_Coeq_rec" xlink:title="isequiv_Coeq_rec">
<ellipse fill="#f070d1" stroke="#000000" cx="109" cy="-518.3227" rx="92.8835" ry="18"/>
<text text-anchor="middle" x="109" y="-514.6227" font-family="Times,serif" font-size="14.00" fill="#000000">isequiv_Coeq_rec</text>
</a>
</g>
</g>
<!-- Coeq_equiv_Coeq_rec&#45;&gt;Coeq_isequiv_Coeq_rec -->
<g id="edge33" class="edge">
<title>Coeq_equiv_Coeq_rec&#45;&gt;Coeq_isequiv_Coeq_rec</title>
<path fill="none" stroke="#000000" d="M109,-606.1688C109,-588.3647 109,-564.8149 109,-546.5804"/>
<polygon fill="#000000" stroke="#000000" points="112.5001,-546.542 109,-536.542 105.5001,-546.5421 112.5001,-546.542"/>
</g>
<!-- Coeq_isequiv_Coeq_rec_subproof -->
<g id="node23" class="node">
<title>Coeq_isequiv_Coeq_rec_subproof</title>
<g id="a_node23"><a xlink:href="Coeq.html#isequiv_Coeq_rec_subproof" xlink:title="isequiv_Coeq_rec_subproof">
<ellipse fill="#f070d1" stroke="#000000" cx="357" cy="-415.3227" rx="138.3755" ry="18"/>
<text text-anchor="middle" x="357" y="-411.6227" font-family="Times,serif" font-size="14.00" fill="#000000">isequiv_Coeq_rec_subproof</text>
</a>
</g>
</g>
<!-- Coeq_isequiv_Coeq_rec&#45;&gt;Coeq_isequiv_Coeq_rec_subproof -->
<g id="edge34" class="edge">
<title>Coeq_isequiv_Coeq_rec&#45;&gt;Coeq_isequiv_Coeq_rec_subproof</title>
<path fill="none" stroke="#000000" d="M148.2963,-502.0021C190.974,-484.2771 259.2941,-455.9022 306.0616,-436.4786"/>
<polygon fill="#000000" stroke="#000000" points="307.5125,-439.6659 315.4052,-432.598 304.8276,-433.2013 307.5125,-439.6659"/>
</g>
<!-- Coeq_Coeq_unrec -->
<g id="node24" class="node">
<title>Coeq_Coeq_unrec</title>
<g id="a_node24"><a xlink:href="Coeq.html#Coeq_unrec" xlink:title="Coeq_unrec">
<ellipse fill="#f070d1" stroke="#000000" cx="369" cy="-322.3227" rx="66.0889" ry="18"/>
<text text-anchor="middle" x="369" y="-318.6227" font-family="Times,serif" font-size="14.00" fill="#000000">Coeq_unrec</text>
</a>
</g>
</g>
<!-- Coeq_isequiv_Coeq_rec&#45;&gt;Coeq_Coeq_unrec -->
<g id="edge35" class="edge">
<title>Coeq_isequiv_Coeq_rec&#45;&gt;Coeq_Coeq_unrec</title>
<path fill="none" stroke="#000000" d="M120.3973,-500.1971C137.3073,-474.4993 171.2457,-427.276 210,-397.3227 242.5291,-372.1809 284.8479,-352.7323 317.6477,-339.9466"/>
<polygon fill="#000000" stroke="#000000" points="318.9674,-343.1892 327.0641,-336.3559 316.4733,-336.6486 318.9674,-343.1892"/>
</g>
<!-- Coeq_isequiv_Coeq_rec&#45;&gt;Coeq_Coeq_ind -->
<g id="edge36" class="edge">
<title>Coeq_isequiv_Coeq_rec&#45;&gt;Coeq_Coeq_ind</title>
<path fill="none" stroke="#000000" d="M161.07,-503.3434C176.9825,-499.2287 194.609,-495.1315 211,-492.3227 499.0906,-442.9559 578.6478,-486.8203 866,-433.3227 870.461,-432.4922 875.0614,-431.4835 879.6495,-430.3722"/>
<polygon fill="#000000" stroke="#000000" points="880.8043,-433.6891 889.615,-427.8051 879.058,-426.9104 880.8043,-433.6891"/>
</g>
<!-- Coeq_isequiv_Coeq_rec_subproof&#45;&gt;Coeq_Coeq_rec_beta_cglue -->
<g id="edge37" class="edge">
<title>Coeq_isequiv_Coeq_rec_subproof&#45;&gt;Coeq_Coeq_rec_beta_cglue</title>
<path fill="none" stroke="#000000" d="M447.4149,-401.6502C563.5597,-384.0869 764.0352,-353.7711 880.6368,-336.1386"/>
<polygon fill="#000000" stroke="#000000" points="881.25,-339.5858 890.6142,-334.6299 880.2033,-332.6645 881.25,-339.5858"/>
</g>
<!-- Coeq_Coeq_unrec&#45;&gt;Coeq_cglue -->
<g id="edge38" class="edge">
<title>Coeq_Coeq_unrec&#45;&gt;Coeq_cglue</title>
<path fill="none" stroke="#000000" d="M423.0163,-311.8352C518.6864,-293.2605 716.0998,-254.9318 804.0528,-237.8553"/>
<polygon fill="#000000" stroke="#000000" points="804.8226,-241.2713 813.9722,-235.9294 803.4884,-234.3996 804.8226,-241.2713"/>
</g>
<!-- Coeq_Coeq_ind_dp_beta_cglue -->
<g id="node25" class="node">
<title>Coeq_Coeq_ind_dp_beta_cglue</title>
<g id="a_node25"><a xlink:href="Coeq.html#Coeq_ind_dp_beta_cglue" xlink:title="Coeq_ind_dp_beta_cglue">
<ellipse fill="#f070d1" stroke="#000000" cx="659" cy="-632.3227" rx="126.1724" ry="18"/>
<ellipse fill="none" stroke="#000000" cx="659" cy="-632.3227" rx="130.175" ry="22"/>
<ellipse fill="none" stroke="#000000" cx="659" cy="-632.3227" rx="134.1777" ry="26"/>
<text text-anchor="middle" x="659" y="-628.6227" font-family="Times,serif" font-size="14.00" fill="#000000">Coeq_ind_dp_beta_cglue</text>
</a>
</g>
</g>
<!-- Coeq_Coeq_ind_dp -->
<g id="node26" class="node">
<title>Coeq_Coeq_ind_dp</title>
<g id="a_node26"><a xlink:href="Coeq.html#Coeq_ind_dp" xlink:title="Coeq_ind_dp">
<ellipse fill="#f070d1" stroke="#000000" cx="763" cy="-518.3227" rx="70.6878" ry="18"/>
<text text-anchor="middle" x="763" y="-514.6227" font-family="Times,serif" font-size="14.00" fill="#000000">Coeq_ind_dp</text>
</a>
</g>
</g>
<!-- Coeq_Coeq_ind_dp_beta_cglue&#45;&gt;Coeq_Coeq_ind_dp -->
<g id="edge39" class="edge">
<title>Coeq_Coeq_ind_dp_beta_cglue&#45;&gt;Coeq_Coeq_ind_dp</title>
<path fill="none" stroke="#000000" d="M682.5992,-606.4544C699.7992,-587.6005 722.9794,-562.1915 740.0309,-543.5004"/>
<polygon fill="#000000" stroke="#000000" points="742.7742,-545.6865 746.9282,-535.9399 737.6028,-540.9688 742.7742,-545.6865"/>
</g>
<!-- Coeq_Coeq_ind_dp_beta_cglue&#45;&gt;Coeq_Coeq_ind_beta_cglue -->
<g id="edge40" class="edge">
<title>Coeq_Coeq_ind_dp_beta_cglue&#45;&gt;Coeq_Coeq_ind_beta_cglue</title>
<path fill="none" stroke="#000000" d="M637.443,-606.4544C621.897,-587.7991 601.0028,-562.7261 585.4755,-544.0934"/>
<polygon fill="#000000" stroke="#000000" points="588.0602,-541.7277 578.9695,-536.2862 582.6826,-546.2091 588.0602,-541.7277"/>
</g>
<!-- Coeq_Coeq_ind_dp&#45;&gt;Coeq_Coeq_ind -->
<g id="edge41" class="edge">
<title>Coeq_Coeq_ind_dp&#45;&gt;Coeq_Coeq_ind</title>
<path fill="none" stroke="#000000" d="M790.0402,-501.5448C818.5537,-483.8527 863.5597,-455.9273 894.5861,-436.6759"/>
<polygon fill="#000000" stroke="#000000" points="896.6844,-439.4931 903.3362,-431.2466 892.9937,-433.545 896.6844,-439.4931"/>
</g>
<!-- Coeq_Coeq_rec_beta_cglue&#45;&gt;Coeq_Coeq_rec -->
<g id="edge42" class="edge">
<title>Coeq_Coeq_rec_beta_cglue&#45;&gt;Coeq_Coeq_rec</title>
<path fill="none" stroke="#000000" d="M971.0122,-303.9489C970.3022,-290.744 969.3317,-272.6918 968.523,-257.6501"/>
<polygon fill="#000000" stroke="#000000" points="972.0007,-257.1396 967.9688,-247.3419 965.0108,-257.5154 972.0007,-257.1396"/>
</g>
<!-- Coeq_Coeq_rec_beta_cglue&#45;&gt;Coeq_cglue -->
<g id="edge43" class="edge">
<title>Coeq_Coeq_rec_beta_cglue&#45;&gt;Coeq_cglue</title>
<path fill="none" stroke="#000000" d="M948.3847,-304.6113C927.9135,-289.2579 898.2379,-267.0011 876.4602,-250.6679"/>
<polygon fill="#000000" stroke="#000000" points="878.3452,-247.7067 868.2452,-244.5067 874.1452,-253.3067 878.3452,-247.7067"/>
</g>
<!-- Coeq_Coeq -->
<g id="node33" class="node">
<title>Coeq_Coeq</title>
<g id="a_node33"><a xlink:href="Coeq.html#Coeq" xlink:title="Coeq">
<ellipse fill="#f070d1" stroke="#000000" cx="890" cy="-44.3227" rx="34.394" ry="18"/>
<text text-anchor="middle" x="890" y="-40.6227" font-family="Times,serif" font-size="14.00" fill="#000000">Coeq</text>
</a>
</g>
</g>
<!-- Coeq_Coeq_rec&#45;&gt;Coeq_Coeq -->
<g id="edge44" class="edge">
<title>Coeq_Coeq_rec&#45;&gt;Coeq_Coeq</title>
<path fill="none" stroke="#000000" d="M959.4767,-211.2473C945.8942,-178.614 917.2115,-109.7011 901.2749,-71.4119"/>
<polygon fill="#000000" stroke="#000000" points="904.4018,-69.8158 897.3278,-61.9285 897.9392,-72.5057 904.4018,-69.8158"/>
</g>
<!-- Coeq_Coeq_ind_beta_cglue&#45;&gt;Coeq_Coeq_ind -->
<g id="edge45" class="edge">
<title>Coeq_Coeq_ind_beta_cglue&#45;&gt;Coeq_Coeq_ind</title>
<path fill="none" stroke="#000000" d="M619.6797,-502.7222C680.291,-485.7233 780.0617,-457.6935 866,-433.3227 870.0013,-432.188 874.1447,-431.0103 878.308,-429.825"/>
<polygon fill="#000000" stroke="#000000" points="879.3436,-433.1692 888.0011,-427.062 877.4247,-426.4374 879.3436,-433.1692"/>
</g>
<!-- Coeq_Coeq_ind&#45;&gt;Coeq_cglue -->
<g id="edge46" class="edge">
<title>Coeq_Coeq_ind&#45;&gt;Coeq_cglue</title>
<path fill="none" stroke="#000000" d="M904.687,-399.1013C886.8551,-385.6815 863.9239,-364.8821 853,-340.3227 841.3592,-314.1517 841.54,-280.9973 843.7452,-257.765"/>
<polygon fill="#000000" stroke="#000000" points="847.2555,-257.8719 844.9063,-247.5408 840.3002,-257.082 847.2555,-257.8719"/>
</g>
<!-- Coeq_coeq -->
<g id="node32" class="node">
<title>Coeq_coeq</title>
<g id="a_node32"><a xlink:href="Coeq.html#coeq" xlink:title="coeq">
<ellipse fill="#f070d1" stroke="#000000" cx="865" cy="-136.3227" rx="32.4942" ry="18"/>
<text text-anchor="middle" x="865" y="-132.6227" font-family="Times,serif" font-size="14.00" fill="#000000">coeq</text>
</a>
</g>
</g>
<!-- Coeq_cglue&#45;&gt;Coeq_coeq -->
<g id="edge47" class="edge">
<title>Coeq_cglue&#45;&gt;Coeq_coeq</title>
<path fill="none" stroke="#000000" d="M851.2778,-211.3914C853.708,-198.0968 857.068,-179.7153 859.8549,-164.4693"/>
<polygon fill="#000000" stroke="#000000" points="863.319,-164.9827 861.6743,-154.5164 856.4331,-163.724 863.319,-164.9827"/>
</g>
<!-- Coeq_coeq&#45;&gt;Coeq_Coeq -->
<g id="edge48" class="edge">
<title>Coeq_coeq&#45;&gt;Coeq_Coeq</title>
<path fill="none" stroke="#000000" d="M869.9392,-118.1465C873.5234,-104.9567 878.436,-86.8782 882.5026,-71.913"/>
<polygon fill="#000000" stroke="#000000" points="885.9113,-72.7161 885.1561,-62.1482 879.1562,-70.8804 885.9113,-72.7161"/>
</g>
</g>
</svg>
