<?xml version="1.0" encoding="UTF-8" standalone="no"?>
<!DOCTYPE svg PUBLIC "-//W3C//DTD SVG 1.1//EN"
 "http://www.w3.org/Graphics/SVG/1.1/DTD/svg11.dtd">
<!-- Generated by graphviz version 2.40.1 (20161225.0304)
 -->
<!-- Title: HoTT_Homotopy_HomotopyGroup Pages: 1 -->
<svg width="1566pt" height="787pt"
 viewBox="0.00 0.00 1566.00 787.00" xmlns="http://www.w3.org/2000/svg" xmlns:xlink="http://www.w3.org/1999/xlink">
<g id="graph0" class="graph" transform="scale(1 1) rotate(0) translate(4 783)">
<title>HoTT_Homotopy_HomotopyGroup</title>
<polygon fill="#ffffff" stroke="transparent" points="-4,4 -4,-783 1562,-783 1562,4 -4,4"/>
<g id="clust1" class="cluster">
<title>cluster_HomotopyGroup</title>
<polygon fill="#ffffc3" stroke="#000000" points="8,-8.5253 8,-770.4747 1550,-770.4747 1550,-8.5253 8,-8.5253"/>
<text text-anchor="middle" x="75.5" y="-755.2747" font-family="Times,serif" font-size="14.00" fill="#000000">HomotopyGroup</text>
</g>
<!-- HomotopyGroup_grp_iso_pi1_Tr -->
<g id="node1" class="node">
<title>HomotopyGroup_grp_iso_pi1_Tr</title>
<g id="a_node1"><a xlink:href="HomotopyGroup.html#grp_iso_pi1_Tr" xlink:title="grp_iso_pi1_Tr">
<ellipse fill="#f070d1" stroke="#000000" cx="1454" cy="-198.5253" rx="79.891" ry="18"/>
<ellipse fill="none" stroke="#000000" cx="1454" cy="-198.5253" rx="83.8884" ry="22"/>
<ellipse fill="none" stroke="#000000" cx="1454" cy="-198.5253" rx="87.8859" ry="26"/>
<text text-anchor="middle" x="1454" y="-194.8253" font-family="Times,serif" font-size="14.00" fill="#000000">grp_iso_pi1_Tr</text>
</a>
</g>
</g>
<!-- HomotopyGroup_Pi1 -->
<g id="node18" class="node">
<title>HomotopyGroup_Pi1</title>
<g id="a_node18"><a xlink:href="HomotopyGroup.html#Pi1" xlink:title="Pi1">
<ellipse fill="#f070d1" stroke="#000000" cx="1270" cy="-112.5253" rx="27" ry="18"/>
<text text-anchor="middle" x="1270" y="-108.8253" font-family="Times,serif" font-size="14.00" fill="#000000">Pi1</text>
</a>
</g>
</g>
<!-- HomotopyGroup_grp_iso_pi1_Tr&#45;&gt;HomotopyGroup_Pi1 -->
<g id="edge1" class="edge">
<title>HomotopyGroup_grp_iso_pi1_Tr&#45;&gt;HomotopyGroup_Pi1</title>
<path fill="none" stroke="#000000" d="M1406.6154,-176.3782C1373.515,-160.9073 1330.248,-140.6847 1301.3614,-127.1834"/>
<polygon fill="#000000" stroke="#000000" points="1302.6931,-123.9424 1292.1518,-122.8789 1299.7291,-130.2839 1302.6931,-123.9424"/>
</g>
<!-- HomotopyGroup_pmap_pi_functor -->
<g id="node2" class="node">
<title>HomotopyGroup_pmap_pi_functor</title>
<g id="a_node2"><a xlink:href="HomotopyGroup.html#pmap_pi_functor" xlink:title="pmap_pi_functor">
<ellipse fill="#f070d1" stroke="#000000" cx="1101" cy="-385.5253" rx="89.0807" ry="18"/>
<ellipse fill="none" stroke="#000000" cx="1101" cy="-385.5253" rx="93.0825" ry="22"/>
<ellipse fill="none" stroke="#000000" cx="1101" cy="-385.5253" rx="97.0842" ry="26"/>
<text text-anchor="middle" x="1101" y="-381.8253" font-family="Times,serif" font-size="14.00" fill="#000000">pmap_pi_functor</text>
</a>
</g>
</g>
<!-- HomotopyGroup_is0functor_pi -->
<g id="node11" class="node">
<title>HomotopyGroup_is0functor_pi</title>
<g id="a_node11"><a xlink:href="HomotopyGroup.html#is0functor_pi" xlink:title="is0functor_pi">
<ellipse fill="#f070d1" stroke="#000000" cx="1221" cy="-291.5253" rx="72.2875" ry="18"/>
<text text-anchor="middle" x="1221" y="-287.8253" font-family="Times,serif" font-size="14.00" fill="#000000">is0functor_pi</text>
</a>
</g>
</g>
<!-- HomotopyGroup_pmap_pi_functor&#45;&gt;HomotopyGroup_is0functor_pi -->
<g id="edge2" class="edge">
<title>HomotopyGroup_pmap_pi_functor&#45;&gt;HomotopyGroup_is0functor_pi</title>
<path fill="none" stroke="#000000" d="M1132.5286,-360.8279C1150.4314,-346.804 1172.7368,-329.3315 1190.4717,-315.4391"/>
<polygon fill="#000000" stroke="#000000" points="1193.0575,-317.8596 1198.7715,-308.9376 1188.7409,-312.349 1193.0575,-317.8596"/>
</g>
<!-- HomotopyGroup_pi_prod -->
<g id="node3" class="node">
<title>HomotopyGroup_pi_prod</title>
<g id="a_node3"><a xlink:href="HomotopyGroup.html#pi_prod" xlink:title="pi_prod">
<ellipse fill="#f070d1" stroke="#000000" cx="775" cy="-291.5253" rx="46.2706" ry="18"/>
<ellipse fill="none" stroke="#000000" cx="775" cy="-291.5253" rx="50.2814" ry="22"/>
<ellipse fill="none" stroke="#000000" cx="775" cy="-291.5253" rx="54.2922" ry="26"/>
<text text-anchor="middle" x="775" y="-287.8253" font-family="Times,serif" font-size="14.00" fill="#000000">pi_prod</text>
</a>
</g>
</g>
<!-- HomotopyGroup_Pi -->
<g id="node17" class="node">
<title>HomotopyGroup_Pi</title>
<g id="a_node17"><a xlink:href="HomotopyGroup.html#Pi" xlink:title="Pi">
<ellipse fill="#f070d1" stroke="#000000" cx="484" cy="-198.5253" rx="27" ry="18"/>
<text text-anchor="middle" x="484" y="-194.8253" font-family="Times,serif" font-size="14.00" fill="#000000">Pi</text>
</a>
</g>
</g>
<!-- HomotopyGroup_pi_prod&#45;&gt;HomotopyGroup_Pi -->
<g id="edge3" class="edge">
<title>HomotopyGroup_pi_prod&#45;&gt;HomotopyGroup_Pi</title>
<path fill="none" stroke="#000000" d="M733.6235,-274.5783C724.9122,-271.3291 715.7188,-268.132 707,-265.5253 625.4802,-241.1527 597.6675,-259.271 520,-224.5253 516.3053,-222.8724 512.612,-220.804 509.0749,-218.56"/>
<polygon fill="#000000" stroke="#000000" points="510.9065,-215.5712 500.6922,-212.7569 506.9221,-221.3266 510.9065,-215.5712"/>
</g>
<!-- HomotopyGroup_fmap_pi_loops -->
<g id="node4" class="node">
<title>HomotopyGroup_fmap_pi_loops</title>
<g id="a_node4"><a xlink:href="HomotopyGroup.html#fmap_pi_loops" xlink:title="fmap_pi_loops">
<ellipse fill="#f070d1" stroke="#000000" cx="351" cy="-709.5253" rx="77.2012" ry="18"/>
<ellipse fill="none" stroke="#000000" cx="351" cy="-709.5253" rx="81.1939" ry="22"/>
<ellipse fill="none" stroke="#000000" cx="351" cy="-709.5253" rx="85.1866" ry="26"/>
<text text-anchor="middle" x="351" y="-705.8253" font-family="Times,serif" font-size="14.00" fill="#000000">fmap_pi_loops</text>
</a>
</g>
</g>
<!-- HomotopyGroup_pi_loops -->
<g id="node5" class="node">
<title>HomotopyGroup_pi_loops</title>
<g id="a_node5"><a xlink:href="HomotopyGroup.html#pi_loops" xlink:title="pi_loops">
<ellipse fill="#f070d1" stroke="#000000" cx="421" cy="-624.5253" rx="48.9926" ry="18"/>
<text text-anchor="middle" x="421" y="-620.8253" font-family="Times,serif" font-size="14.00" fill="#000000">pi_loops</text>
</a>
</g>
</g>
<!-- HomotopyGroup_fmap_pi_loops&#45;&gt;HomotopyGroup_pi_loops -->
<g id="edge4" class="edge">
<title>HomotopyGroup_fmap_pi_loops&#45;&gt;HomotopyGroup_pi_loops</title>
<path fill="none" stroke="#000000" d="M372.0023,-684.0225C380.9237,-673.1894 391.2978,-660.5923 400.1973,-649.7858"/>
<polygon fill="#000000" stroke="#000000" points="403.0115,-651.8741 406.6669,-641.9298 397.608,-647.4242 403.0115,-651.8741"/>
</g>
<!-- HomotopyGroup_is0functor_homotopygroup_type_ptype -->
<g id="node19" class="node">
<title>HomotopyGroup_is0functor_homotopygroup_type_ptype</title>
<g id="a_node19"><a xlink:href="HomotopyGroup.html#is0functor_homotopygroup_type_ptype" xlink:title="is0functor_homotopygroup_type_ptype">
<ellipse fill="#f070d1" stroke="#000000" cx="209" cy="-385.5253" rx="193.0657" ry="18"/>
<text text-anchor="middle" x="209" y="-381.8253" font-family="Times,serif" font-size="14.00" fill="#000000">is0functor_homotopygroup_type_ptype</text>
</a>
</g>
</g>
<!-- HomotopyGroup_fmap_pi_loops&#45;&gt;HomotopyGroup_is0functor_homotopygroup_type_ptype -->
<g id="edge5" class="edge">
<title>HomotopyGroup_fmap_pi_loops&#45;&gt;HomotopyGroup_is0functor_homotopygroup_type_ptype</title>
<path fill="none" stroke="#000000" d="M339.6196,-683.5587C313.2489,-623.389 248.1533,-474.8611 221.0966,-413.1261"/>
<polygon fill="#000000" stroke="#000000" points="224.1646,-411.4069 216.9448,-403.6529 217.7533,-414.2168 224.1646,-411.4069"/>
</g>
<!-- HomotopyGroup_groupiso_pi_loops -->
<g id="node6" class="node">
<title>HomotopyGroup_groupiso_pi_loops</title>
<g id="a_node6"><a xlink:href="HomotopyGroup.html#groupiso_pi_loops" xlink:title="groupiso_pi_loops">
<ellipse fill="#f070d1" stroke="#000000" cx="539" cy="-547.5253" rx="94.4839" ry="18"/>
<text text-anchor="middle" x="539" y="-543.8253" font-family="Times,serif" font-size="14.00" fill="#000000">groupiso_pi_loops</text>
</a>
</g>
</g>
<!-- HomotopyGroup_pi_loops&#45;&gt;HomotopyGroup_groupiso_pi_loops -->
<g id="edge6" class="edge">
<title>HomotopyGroup_pi_loops&#45;&gt;HomotopyGroup_groupiso_pi_loops</title>
<path fill="none" stroke="#000000" d="M445.1638,-608.7574C462.1206,-597.6924 485.0584,-582.7245 504.0108,-570.3572"/>
<polygon fill="#000000" stroke="#000000" points="505.9404,-573.2774 512.4024,-564.8814 502.115,-567.4151 505.9404,-573.2774"/>
</g>
<!-- HomotopyGroup_HomotopyGroup_type_ptype -->
<g id="node24" class="node">
<title>HomotopyGroup_HomotopyGroup_type_ptype</title>
<g id="a_node24"><a xlink:href="HomotopyGroup.html#HomotopyGroup_type_ptype" xlink:title="HomotopyGroup_type_ptype">
<ellipse fill="#f070d1" stroke="#000000" cx="333" cy="-291.5253" rx="144.0747" ry="18"/>
<text text-anchor="middle" x="333" y="-287.8253" font-family="Times,serif" font-size="14.00" fill="#000000">HomotopyGroup_type_ptype</text>
</a>
</g>
</g>
<!-- HomotopyGroup_pi_loops&#45;&gt;HomotopyGroup_HomotopyGroup_type_ptype -->
<g id="edge7" class="edge">
<title>HomotopyGroup_pi_loops&#45;&gt;HomotopyGroup_HomotopyGroup_type_ptype</title>
<path fill="none" stroke="#000000" d="M425.0073,-606.3272C433.8866,-561.652 451.3934,-444.0613 411,-359.5253 402.4389,-341.6085 386.7298,-326.4868 371.6412,-315.0866"/>
<polygon fill="#000000" stroke="#000000" points="373.5345,-312.1371 363.3718,-309.1419 369.4485,-317.8209 373.5345,-312.1371"/>
</g>
<!-- HomotopyGroup_groupiso_pi_functor -->
<g id="node7" class="node">
<title>HomotopyGroup_groupiso_pi_functor</title>
<g id="a_node7"><a xlink:href="HomotopyGroup.html#groupiso_pi_functor" xlink:title="groupiso_pi_functor">
<ellipse fill="#f070d1" stroke="#000000" cx="916" cy="-470.5253" rx="103.9815" ry="18"/>
<text text-anchor="middle" x="916" y="-466.8253" font-family="Times,serif" font-size="14.00" fill="#000000">groupiso_pi_functor</text>
</a>
</g>
</g>
<!-- HomotopyGroup_groupiso_pi_loops&#45;&gt;HomotopyGroup_groupiso_pi_functor -->
<g id="edge8" class="edge">
<title>HomotopyGroup_groupiso_pi_loops&#45;&gt;HomotopyGroup_groupiso_pi_functor</title>
<path fill="none" stroke="#000000" d="M603.3802,-534.376C668.5252,-521.0706 769.2741,-500.4932 838.6999,-486.3134"/>
<polygon fill="#000000" stroke="#000000" points="839.6105,-489.6997 848.7078,-484.2693 838.2097,-482.8413 839.6105,-489.6997"/>
</g>
<!-- HomotopyGroup_is1functor_pi -->
<g id="node8" class="node">
<title>HomotopyGroup_is1functor_pi</title>
<g id="a_node8"><a xlink:href="HomotopyGroup.html#is1functor_pi" xlink:title="is1functor_pi">
<ellipse fill="#f070d1" stroke="#000000" cx="1288" cy="-385.5253" rx="72.2875" ry="18"/>
<text text-anchor="middle" x="1288" y="-381.8253" font-family="Times,serif" font-size="14.00" fill="#000000">is1functor_pi</text>
</a>
</g>
</g>
<!-- HomotopyGroup_groupiso_pi_functor&#45;&gt;HomotopyGroup_is1functor_pi -->
<g id="edge9" class="edge">
<title>HomotopyGroup_groupiso_pi_functor&#45;&gt;HomotopyGroup_is1functor_pi</title>
<path fill="none" stroke="#000000" d="M990.0693,-457.8446C1049.1912,-447.1631 1133.9292,-430.5979 1207,-411.5253 1216.3334,-409.0891 1226.1767,-406.2037 1235.6622,-403.2568"/>
<polygon fill="#000000" stroke="#000000" points="1236.9039,-406.535 1245.3811,-400.1799 1234.7911,-399.8614 1236.9039,-406.535"/>
</g>
<!-- HomotopyGroup_is1functor_pi1 -->
<g id="node9" class="node">
<title>HomotopyGroup_is1functor_pi1</title>
<g id="a_node9"><a xlink:href="HomotopyGroup.html#is1functor_pi1" xlink:title="is1functor_pi1">
<ellipse fill="#f070d1" stroke="#000000" cx="1389" cy="-291.5253" rx="77.9862" ry="18"/>
<text text-anchor="middle" x="1389" y="-287.8253" font-family="Times,serif" font-size="14.00" fill="#000000">is1functor_pi1</text>
</a>
</g>
</g>
<!-- HomotopyGroup_is1functor_pi&#45;&gt;HomotopyGroup_is1functor_pi1 -->
<g id="edge10" class="edge">
<title>HomotopyGroup_is1functor_pi&#45;&gt;HomotopyGroup_is1functor_pi1</title>
<path fill="none" stroke="#000000" d="M1306.9973,-367.8446C1322.6563,-353.2709 1345.0437,-332.4352 1362.4715,-316.2152"/>
<polygon fill="#000000" stroke="#000000" points="1365.1522,-318.5017 1370.0879,-309.1267 1360.3831,-313.3775 1365.1522,-318.5017"/>
</g>
<!-- HomotopyGroup_is1functor_pi&#45;&gt;HomotopyGroup_is0functor_pi -->
<g id="edge11" class="edge">
<title>HomotopyGroup_is1functor_pi&#45;&gt;HomotopyGroup_is0functor_pi</title>
<path fill="none" stroke="#000000" d="M1275.0817,-367.4012C1265.0072,-353.2667 1250.8779,-333.4436 1239.5878,-317.6037"/>
<polygon fill="#000000" stroke="#000000" points="1242.3057,-315.3868 1233.6514,-309.275 1236.6055,-319.4497 1242.3057,-315.3868"/>
</g>
<!-- HomotopyGroup_is1cat_homotopygroup_type -->
<g id="node20" class="node">
<title>HomotopyGroup_is1cat_homotopygroup_type</title>
<g id="a_node20"><a xlink:href="HomotopyGroup.html#is1cat_homotopygroup_type" xlink:title="is1cat_homotopygroup_type">
<ellipse fill="#f070d1" stroke="#000000" cx="989" cy="-291.5253" rx="142.1749" ry="18"/>
<text text-anchor="middle" x="989" y="-287.8253" font-family="Times,serif" font-size="14.00" fill="#000000">is1cat_homotopygroup_type</text>
</a>
</g>
</g>
<!-- HomotopyGroup_is1functor_pi&#45;&gt;HomotopyGroup_is1cat_homotopygroup_type -->
<g id="edge12" class="edge">
<title>HomotopyGroup_is1functor_pi&#45;&gt;HomotopyGroup_is1cat_homotopygroup_type</title>
<path fill="none" stroke="#000000" d="M1243.4578,-371.1551C1231.6148,-367.3543 1218.828,-363.2683 1207,-359.5253 1155.1676,-343.1229 1096.3132,-324.7814 1052.832,-311.2845"/>
<polygon fill="#000000" stroke="#000000" points="1053.828,-307.929 1043.24,-308.3083 1051.7536,-314.6146 1053.828,-307.929"/>
</g>
<!-- HomotopyGroup_is0functor_pi1 -->
<g id="node12" class="node">
<title>HomotopyGroup_is0functor_pi1</title>
<g id="a_node12"><a xlink:href="HomotopyGroup.html#is0functor_pi1" xlink:title="is0functor_pi1">
<ellipse fill="#f070d1" stroke="#000000" cx="1270" cy="-198.5253" rx="77.9862" ry="18"/>
<text text-anchor="middle" x="1270" y="-194.8253" font-family="Times,serif" font-size="14.00" fill="#000000">is0functor_pi1</text>
</a>
</g>
</g>
<!-- HomotopyGroup_is1functor_pi1&#45;&gt;HomotopyGroup_is0functor_pi1 -->
<g id="edge13" class="edge">
<title>HomotopyGroup_is1functor_pi1&#45;&gt;HomotopyGroup_is0functor_pi1</title>
<path fill="none" stroke="#000000" d="M1366.8959,-274.2507C1348.1451,-259.5967 1321.0617,-238.4306 1300.2924,-222.1992"/>
<polygon fill="#000000" stroke="#000000" points="1302.424,-219.423 1292.3895,-216.023 1298.1136,-224.9385 1302.424,-219.423"/>
</g>
<!-- HomotopyGroup_fmap_pi_succ -->
<g id="node10" class="node">
<title>HomotopyGroup_fmap_pi_succ</title>
<g id="a_node10"><a xlink:href="HomotopyGroup.html#fmap_pi_succ" xlink:title="fmap_pi_succ">
<ellipse fill="#f070d1" stroke="#000000" cx="1460" cy="-385.5253" rx="74.1778" ry="18"/>
<ellipse fill="none" stroke="#000000" cx="1460" cy="-385.5253" rx="78.1824" ry="22"/>
<ellipse fill="none" stroke="#000000" cx="1460" cy="-385.5253" rx="82.187" ry="26"/>
<text text-anchor="middle" x="1460" y="-381.8253" font-family="Times,serif" font-size="14.00" fill="#000000">fmap_pi_succ</text>
</a>
</g>
</g>
<!-- HomotopyGroup_fmap_pi_succ&#45;&gt;HomotopyGroup_is0functor_pi -->
<g id="edge14" class="edge">
<title>HomotopyGroup_fmap_pi_succ&#45;&gt;HomotopyGroup_is0functor_pi</title>
<path fill="none" stroke="#000000" d="M1408.4348,-365.2444C1367.1466,-349.0055 1309.6565,-326.3944 1269.2651,-310.5082"/>
<polygon fill="#000000" stroke="#000000" points="1270.4847,-307.227 1259.8976,-306.8239 1267.9226,-313.7413 1270.4847,-307.227"/>
</g>
<!-- HomotopyGroup_is0functor_pi&#45;&gt;HomotopyGroup_is0functor_pi1 -->
<g id="edge15" class="edge">
<title>HomotopyGroup_is0functor_pi&#45;&gt;HomotopyGroup_is0functor_pi1</title>
<path fill="none" stroke="#000000" d="M1230.4477,-273.594C1237.6332,-259.9563 1247.6389,-240.9658 1255.7886,-225.4979"/>
<polygon fill="#000000" stroke="#000000" points="1259.0164,-226.8802 1260.5813,-216.4016 1252.8234,-223.6172 1259.0164,-226.8802"/>
</g>
<!-- HomotopyGroup_is0functor_pi&#45;&gt;HomotopyGroup_Pi -->
<g id="edge16" class="edge">
<title>HomotopyGroup_is0functor_pi&#45;&gt;HomotopyGroup_Pi</title>
<path fill="none" stroke="#000000" d="M1180.7127,-276.4535C1167.8717,-272.231 1153.4925,-268.0966 1140,-265.5253 868.7248,-213.8273 779.814,-318.118 520,-224.5253 516.0016,-223.085 512.0559,-221.0594 508.3257,-218.7673"/>
<polygon fill="#000000" stroke="#000000" points="510.3082,-215.8829 500.0892,-213.0858 506.3334,-221.645 510.3082,-215.8829"/>
</g>
<!-- HomotopyGroup_isgraph_homotopygroup_type -->
<g id="node23" class="node">
<title>HomotopyGroup_isgraph_homotopygroup_type</title>
<g id="a_node23"><a xlink:href="HomotopyGroup.html#isgraph_homotopygroup_type" xlink:title="isgraph_homotopygroup_type">
<ellipse fill="#f070d1" stroke="#000000" cx="684" cy="-112.5253" rx="149.4735" ry="18"/>
<text text-anchor="middle" x="684" y="-108.8253" font-family="Times,serif" font-size="14.00" fill="#000000">isgraph_homotopygroup_type</text>
</a>
</g>
</g>
<!-- HomotopyGroup_is0functor_pi&#45;&gt;HomotopyGroup_isgraph_homotopygroup_type -->
<g id="edge17" class="edge">
<title>HomotopyGroup_is0functor_pi&#45;&gt;HomotopyGroup_isgraph_homotopygroup_type</title>
<path fill="none" stroke="#000000" d="M1209.9323,-273.7128C1201.919,-260.4298 1191.1148,-241.6931 1183,-224.5253 1172.4184,-202.1386 1182.4988,-187.7875 1163,-172.5253 1136.4675,-151.7577 954.2587,-133.4056 822.4243,-122.629"/>
<polygon fill="#000000" stroke="#000000" points="822.477,-119.1219 812.2269,-121.8023 821.9113,-126.099 822.477,-119.1219"/>
</g>
<!-- HomotopyGroup_is0functor_pi1&#45;&gt;HomotopyGroup_Pi1 -->
<g id="edge18" class="edge">
<title>HomotopyGroup_is0functor_pi1&#45;&gt;HomotopyGroup_Pi1</title>
<path fill="none" stroke="#000000" d="M1270,-180.2869C1270,-168.885 1270,-153.9595 1270,-141.0193"/>
<polygon fill="#000000" stroke="#000000" points="1273.5001,-140.7374 1270,-130.7374 1266.5001,-140.7374 1273.5001,-140.7374"/>
</g>
<!-- HomotopyGroup_pi_functor_type_pmap -->
<g id="node13" class="node">
<title>HomotopyGroup_pi_functor_type_pmap</title>
<g id="a_node13"><a xlink:href="HomotopyGroup.html#pi_functor_type_pmap" xlink:title="pi_functor_type_pmap">
<ellipse fill="#f070d1" stroke="#000000" cx="562" cy="-385.5253" rx="114.287" ry="18"/>
<ellipse fill="none" stroke="#000000" cx="562" cy="-385.5253" rx="118.2834" ry="22"/>
<ellipse fill="none" stroke="#000000" cx="562" cy="-385.5253" rx="122.2798" ry="26"/>
<text text-anchor="middle" x="562" y="-381.8253" font-family="Times,serif" font-size="14.00" fill="#000000">pi_functor_type_pmap</text>
</a>
</g>
</g>
<!-- HomotopyGroup_pi_functor_type -->
<g id="node14" class="node">
<title>HomotopyGroup_pi_functor_type</title>
<g id="a_node14"><a xlink:href="HomotopyGroup.html#pi_functor_type" xlink:title="pi_functor_type">
<ellipse fill="#f070d1" stroke="#000000" cx="579" cy="-291.5253" rx="83.6854" ry="18"/>
<text text-anchor="middle" x="579" y="-287.8253" font-family="Times,serif" font-size="14.00" fill="#000000">pi_functor_type</text>
</a>
</g>
</g>
<!-- HomotopyGroup_pi_functor_type_pmap&#45;&gt;HomotopyGroup_pi_functor_type -->
<g id="edge19" class="edge">
<title>HomotopyGroup_pi_functor_type_pmap&#45;&gt;HomotopyGroup_pi_functor_type</title>
<path fill="none" stroke="#000000" d="M566.7354,-359.3411C568.9767,-346.9484 571.6555,-332.1362 573.937,-319.5207"/>
<polygon fill="#000000" stroke="#000000" points="577.4061,-320.005 575.7417,-309.5417 570.5179,-318.7592 577.4061,-320.005"/>
</g>
<!-- HomotopyGroup_pi_functor_type_pmap&#45;&gt;HomotopyGroup_HomotopyGroup_type_ptype -->
<g id="edge20" class="edge">
<title>HomotopyGroup_pi_functor_type_pmap&#45;&gt;HomotopyGroup_HomotopyGroup_type_ptype</title>
<path fill="none" stroke="#000000" d="M505.687,-362.4099C468.6089,-347.1901 420.4434,-327.4191 384.4041,-312.6257"/>
<polygon fill="#000000" stroke="#000000" points="385.6296,-309.3454 375.0495,-308.7858 382.9714,-315.821 385.6296,-309.3454"/>
</g>
<!-- HomotopyGroup_pi_functor_type&#45;&gt;HomotopyGroup_Pi -->
<g id="edge21" class="edge">
<title>HomotopyGroup_pi_functor_type&#45;&gt;HomotopyGroup_Pi</title>
<path fill="none" stroke="#000000" d="M560.683,-273.594C545.2533,-258.4891 523.1159,-236.8177 506.5893,-220.6391"/>
<polygon fill="#000000" stroke="#000000" points="509.0294,-218.1299 499.4351,-213.6355 504.1326,-223.132 509.0294,-218.1299"/>
</g>
<!-- HomotopyGroup_isabgroup_pi -->
<g id="node15" class="node">
<title>HomotopyGroup_isabgroup_pi</title>
<g id="a_node15"><a xlink:href="HomotopyGroup.html#isabgroup_pi" xlink:title="isabgroup_pi">
<ellipse fill="#f070d1" stroke="#000000" cx="781" cy="-385.5253" rx="70.7036" ry="18"/>
<ellipse fill="none" stroke="#000000" cx="781" cy="-385.5253" rx="74.6957" ry="22"/>
<ellipse fill="none" stroke="#000000" cx="781" cy="-385.5253" rx="78.6877" ry="26"/>
<text text-anchor="middle" x="781" y="-381.8253" font-family="Times,serif" font-size="14.00" fill="#000000">isabgroup_pi</text>
</a>
</g>
</g>
<!-- HomotopyGroup_isabgroup_pi&#45;&gt;HomotopyGroup_Pi -->
<g id="edge22" class="edge">
<title>HomotopyGroup_isabgroup_pi&#45;&gt;HomotopyGroup_Pi</title>
<path fill="none" stroke="#000000" d="M745.2255,-362.074C729.0151,-350.1581 710.5022,-334.5958 697,-317.5253 681.0917,-297.4129 691.7273,-281.9087 672,-265.5253 618.1724,-220.8219 583.1715,-254.6113 520,-224.5253 516.4219,-222.8212 512.8291,-220.7531 509.3719,-218.5358"/>
<polygon fill="#000000" stroke="#000000" points="511.3573,-215.6534 501.1429,-212.8396 507.3732,-221.409 511.3573,-215.6534"/>
</g>
<!-- HomotopyGroup_isabgroup_pi&#45;&gt;HomotopyGroup_HomotopyGroup_type_ptype -->
<g id="edge23" class="edge">
<title>HomotopyGroup_isabgroup_pi&#45;&gt;HomotopyGroup_HomotopyGroup_type_ptype</title>
<path fill="none" stroke="#000000" d="M723.4742,-367.6271C713.366,-364.7408 702.9107,-361.919 693,-359.5253 643.6119,-347.5969 515.6616,-324.0735 426.4397,-308.0729"/>
<polygon fill="#000000" stroke="#000000" points="427.0355,-304.624 416.5751,-306.3061 425.8014,-311.5143 427.0355,-304.624"/>
</g>
<!-- HomotopyGroup_pi_succ -->
<g id="node16" class="node">
<title>HomotopyGroup_pi_succ</title>
<g id="a_node16"><a xlink:href="HomotopyGroup.html#pi_succ" xlink:title="pi_succ">
<ellipse fill="#f070d1" stroke="#000000" cx="932" cy="-385.5253" rx="46.2706" ry="18"/>
<ellipse fill="none" stroke="#000000" cx="932" cy="-385.5253" rx="50.2814" ry="22"/>
<ellipse fill="none" stroke="#000000" cx="932" cy="-385.5253" rx="54.2922" ry="26"/>
<text text-anchor="middle" x="932" y="-381.8253" font-family="Times,serif" font-size="14.00" fill="#000000">pi_succ</text>
</a>
</g>
</g>
<!-- HomotopyGroup_pi_succ&#45;&gt;HomotopyGroup_Pi -->
<g id="edge24" class="edge">
<title>HomotopyGroup_pi_succ&#45;&gt;HomotopyGroup_Pi</title>
<path fill="none" stroke="#000000" d="M891.627,-367.9565C884.1674,-364.9703 876.397,-362.0293 869,-359.5253 800.5822,-336.3654 766.8774,-364.4918 712,-317.5253 692.8006,-301.0936 708.3903,-281.7313 689,-265.5253 629.6957,-215.9599 590.1975,-256.8678 520,-224.5253 516.3239,-222.8316 512.6415,-220.7391 509.11,-218.4826"/>
<polygon fill="#000000" stroke="#000000" points="510.9432,-215.4946 500.732,-212.6694 506.9527,-221.2457 510.9432,-215.4946"/>
</g>
<!-- HomotopyGroup_pi_succ&#45;&gt;HomotopyGroup_is1cat_homotopygroup_type -->
<g id="edge25" class="edge">
<title>HomotopyGroup_pi_succ&#45;&gt;HomotopyGroup_is1cat_homotopygroup_type</title>
<path fill="none" stroke="#000000" d="M947.275,-360.335C955.1523,-347.3444 964.7616,-331.4975 972.7721,-318.2872"/>
<polygon fill="#000000" stroke="#000000" points="975.8291,-319.9959 978.0214,-309.6303 969.8436,-316.3663 975.8291,-319.9959"/>
</g>
<!-- HomotopyGroup_Pi&#45;&gt;HomotopyGroup_Pi1 -->
<g id="edge26" class="edge">
<title>HomotopyGroup_Pi&#45;&gt;HomotopyGroup_Pi1</title>
<path fill="none" stroke="#000000" d="M500.1096,-184.0208C505.9721,-179.5567 512.9096,-175.1349 520,-172.5253 587.2035,-147.7915 1089.5855,-121.4064 1232.2962,-114.3473"/>
<polygon fill="#000000" stroke="#000000" points="1232.8877,-117.8225 1242.7036,-113.8353 1232.5437,-110.831 1232.8877,-117.8225"/>
</g>
<!-- HomotopyGroup_HomotopyGroup_type -->
<g id="node25" class="node">
<title>HomotopyGroup_HomotopyGroup_type</title>
<g id="a_node25"><a xlink:href="HomotopyGroup.html#HomotopyGroup_type" xlink:title="HomotopyGroup_type">
<ellipse fill="#f070d1" stroke="#000000" cx="484" cy="-36.5253" rx="113.18" ry="18"/>
<text text-anchor="middle" x="484" y="-32.8253" font-family="Times,serif" font-size="14.00" fill="#000000">HomotopyGroup_type</text>
</a>
</g>
</g>
<!-- HomotopyGroup_Pi&#45;&gt;HomotopyGroup_HomotopyGroup_type -->
<g id="edge27" class="edge">
<title>HomotopyGroup_Pi&#45;&gt;HomotopyGroup_HomotopyGroup_type</title>
<path fill="none" stroke="#000000" d="M484,-180.2568C484,-152.3034 484,-98.6671 484,-65.4074"/>
<polygon fill="#000000" stroke="#000000" points="487.5001,-64.9756 484,-54.9757 480.5001,-64.9757 487.5001,-64.9756"/>
</g>
<!-- HomotopyGroup_is0functor_homotopygroup_type_ptype&#45;&gt;HomotopyGroup_isgraph_homotopygroup_type -->
<g id="edge28" class="edge">
<title>HomotopyGroup_is0functor_homotopygroup_type_ptype&#45;&gt;HomotopyGroup_isgraph_homotopygroup_type</title>
<path fill="none" stroke="#000000" d="M196.4043,-367.5509C180.5428,-342.4833 157.883,-296.6111 180,-265.5253 226.8221,-199.7162 449.0028,-151.8779 582.2423,-128.5441"/>
<polygon fill="#000000" stroke="#000000" points="583.2152,-131.9277 592.4701,-126.7704 582.0191,-125.0306 583.2152,-131.9277"/>
</g>
<!-- HomotopyGroup_is0functor_homotopygroup_type_ptype&#45;&gt;HomotopyGroup_HomotopyGroup_type_ptype -->
<g id="edge29" class="edge">
<title>HomotopyGroup_is0functor_homotopygroup_type_ptype&#45;&gt;HomotopyGroup_HomotopyGroup_type_ptype</title>
<path fill="none" stroke="#000000" d="M232.6153,-367.6234C252.094,-352.8573 279.9061,-331.7739 301.3184,-315.542"/>
<polygon fill="#000000" stroke="#000000" points="303.6179,-318.1909 309.4726,-309.3606 299.3892,-312.6125 303.6179,-318.1909"/>
</g>
<!-- HomotopyGroup_is01cat_homotopygroup_type -->
<g id="node21" class="node">
<title>HomotopyGroup_is01cat_homotopygroup_type</title>
<g id="a_node21"><a xlink:href="HomotopyGroup.html#is01cat_homotopygroup_type" xlink:title="is01cat_homotopygroup_type">
<ellipse fill="#f070d1" stroke="#000000" cx="1006" cy="-198.5253" rx="148.3739" ry="18"/>
<text text-anchor="middle" x="1006" y="-194.8253" font-family="Times,serif" font-size="14.00" fill="#000000">is01cat_homotopygroup_type</text>
</a>
</g>
</g>
<!-- HomotopyGroup_is1cat_homotopygroup_type&#45;&gt;HomotopyGroup_is01cat_homotopygroup_type -->
<g id="edge30" class="edge">
<title>HomotopyGroup_is1cat_homotopygroup_type&#45;&gt;HomotopyGroup_is01cat_homotopygroup_type</title>
<path fill="none" stroke="#000000" d="M992.3587,-273.1515C994.7959,-259.8183 998.1365,-241.5433 1000.9018,-226.4155"/>
<polygon fill="#000000" stroke="#000000" points="1004.3509,-227.0109 1002.7062,-216.5445 997.465,-225.7521 1004.3509,-227.0109"/>
</g>
<!-- HomotopyGroup_is2graph_homotopygroup_type -->
<g id="node22" class="node">
<title>HomotopyGroup_is2graph_homotopygroup_type</title>
<g id="a_node22"><a xlink:href="HomotopyGroup.html#is2graph_homotopygroup_type" xlink:title="is2graph_homotopygroup_type">
<ellipse fill="#f070d1" stroke="#000000" cx="684" cy="-198.5253" rx="155.1726" ry="18"/>
<text text-anchor="middle" x="684" y="-194.8253" font-family="Times,serif" font-size="14.00" fill="#000000">is2graph_homotopygroup_type</text>
</a>
</g>
</g>
<!-- HomotopyGroup_is1cat_homotopygroup_type&#45;&gt;HomotopyGroup_is2graph_homotopygroup_type -->
<g id="edge31" class="edge">
<title>HomotopyGroup_is1cat_homotopygroup_type&#45;&gt;HomotopyGroup_is2graph_homotopygroup_type</title>
<path fill="none" stroke="#000000" d="M934.1199,-274.7914C882.1036,-258.9307 803.9467,-235.0992 748.871,-218.3056"/>
<polygon fill="#000000" stroke="#000000" points="749.7968,-214.9289 739.2108,-215.3601 747.7551,-221.6246 749.7968,-214.9289"/>
</g>
<!-- HomotopyGroup_is01cat_homotopygroup_type&#45;&gt;HomotopyGroup_isgraph_homotopygroup_type -->
<g id="edge32" class="edge">
<title>HomotopyGroup_is01cat_homotopygroup_type&#45;&gt;HomotopyGroup_isgraph_homotopygroup_type</title>
<path fill="none" stroke="#000000" d="M944.2962,-182.0454C890.3756,-167.6443 812.0766,-146.7321 755.4505,-131.6084"/>
<polygon fill="#000000" stroke="#000000" points="756.0596,-128.1484 745.4951,-128.9495 754.2533,-134.9114 756.0596,-128.1484"/>
</g>
<!-- HomotopyGroup_is2graph_homotopygroup_type&#45;&gt;HomotopyGroup_isgraph_homotopygroup_type -->
<g id="edge33" class="edge">
<title>HomotopyGroup_is2graph_homotopygroup_type&#45;&gt;HomotopyGroup_isgraph_homotopygroup_type</title>
<path fill="none" stroke="#000000" d="M684,-180.2869C684,-168.885 684,-153.9595 684,-141.0193"/>
<polygon fill="#000000" stroke="#000000" points="687.5001,-140.7374 684,-130.7374 680.5001,-140.7374 687.5001,-140.7374"/>
</g>
<!-- HomotopyGroup_isgraph_homotopygroup_type&#45;&gt;HomotopyGroup_HomotopyGroup_type -->
<g id="edge34" class="edge">
<title>HomotopyGroup_isgraph_homotopygroup_type&#45;&gt;HomotopyGroup_HomotopyGroup_type</title>
<path fill="none" stroke="#000000" d="M638.6169,-95.2797C608.5365,-83.8492 568.9451,-68.8044 537.3562,-56.8007"/>
<polygon fill="#000000" stroke="#000000" points="538.4201,-53.4608 527.829,-53.1803 535.9336,-60.0043 538.4201,-53.4608"/>
</g>
<!-- HomotopyGroup_HomotopyGroup_type_ptype&#45;&gt;HomotopyGroup_HomotopyGroup_type -->
<g id="edge35" class="edge">
<title>HomotopyGroup_HomotopyGroup_type_ptype&#45;&gt;HomotopyGroup_HomotopyGroup_type</title>
<path fill="none" stroke="#000000" d="M343.8595,-273.1863C370.1421,-228.8018 437.2776,-115.4275 468.097,-63.3814"/>
<polygon fill="#000000" stroke="#000000" points="471.1552,-65.086 473.2389,-54.6981 465.132,-61.5193 471.1552,-65.086"/>
</g>
</g>
</svg>
