<?xml version="1.0" encoding="UTF-8" standalone="no"?>
<!DOCTYPE svg PUBLIC "-//W3C//DTD SVG 1.1//EN"
 "http://www.w3.org/Graphics/SVG/1.1/DTD/svg11.dtd">
<!-- Generated by graphviz version 2.40.1 (20161225.0304)
 -->
<!-- Title: HoTT_Pointed_pTrunc Pages: 1 -->
<svg width="1638pt" height="823pt"
 viewBox="0.00 0.00 1638.00 823.00" xmlns="http://www.w3.org/2000/svg" xmlns:xlink="http://www.w3.org/1999/xlink">
<g id="graph0" class="graph" transform="scale(1 1) rotate(0) translate(4 819)">
<title>HoTT_Pointed_pTrunc</title>
<polygon fill="#ffffff" stroke="transparent" points="-4,4 -4,-819 1634,-819 1634,4 -4,4"/>
<g id="clust1" class="cluster">
<title>cluster_pTrunc</title>
<polygon fill="#ffffc3" stroke="#000000" points="8,-15.8637 8,-799.1363 1622,-799.1363 1622,-15.8637 8,-15.8637"/>
<text text-anchor="middle" x="42" y="-783.9363" font-family="Times,serif" font-size="14.00" fill="#000000">pTrunc</text>
</g>
<!-- pTrunc_ptr_loops_commutes -->
<g id="node1" class="node">
<title>pTrunc_ptr_loops_commutes</title>
<g id="a_node1"><a xlink:href="pTrunc.html#ptr_loops_commutes" xlink:title="ptr_loops_commutes">
<ellipse fill="#f070d1" stroke="#000000" cx="1099" cy="-511.8637" rx="107.4647" ry="18"/>
<ellipse fill="none" stroke="#000000" cx="1099" cy="-511.8637" rx="111.4731" ry="22"/>
<ellipse fill="none" stroke="#000000" cx="1099" cy="-511.8637" rx="115.4815" ry="26"/>
<text text-anchor="middle" x="1099" y="-508.1637" font-family="Times,serif" font-size="14.00" fill="#000000">ptr_loops_commutes</text>
</a>
</g>
</g>
<!-- pTrunc_path_Tr_commutes -->
<g id="node2" class="node">
<title>pTrunc_path_Tr_commutes</title>
<g id="a_node2"><a xlink:href="pTrunc.html#path_Tr_commutes" xlink:title="path_Tr_commutes">
<ellipse fill="#f070d1" stroke="#000000" cx="1099" cy="-352.8637" rx="100.9827" ry="18"/>
<text text-anchor="middle" x="1099" y="-349.1637" font-family="Times,serif" font-size="14.00" fill="#000000">path_Tr_commutes</text>
</a>
</g>
</g>
<!-- pTrunc_ptr_loops_commutes&#45;&gt;pTrunc_path_Tr_commutes -->
<g id="edge1" class="edge">
<title>pTrunc_ptr_loops_commutes&#45;&gt;pTrunc_path_Tr_commutes</title>
<path fill="none" stroke="#000000" d="M1099,-485.6081C1099,-456.8564 1099,-410.909 1099,-381.3155"/>
<polygon fill="#000000" stroke="#000000" points="1102.5001,-381.2146 1099,-371.2147 1095.5001,-381.2147 1102.5001,-381.2146"/>
</g>
<!-- pTrunc_ptr_loops -->
<g id="node6" class="node">
<title>pTrunc_ptr_loops</title>
<g id="a_node6"><a xlink:href="pTrunc.html#ptr_loops" xlink:title="ptr_loops">
<ellipse fill="#f070d1" stroke="#000000" cx="1304" cy="-352.8637" rx="53.8905" ry="18"/>
<text text-anchor="middle" x="1304" y="-349.1637" font-family="Times,serif" font-size="14.00" fill="#000000">ptr_loops</text>
</a>
</g>
</g>
<!-- pTrunc_ptr_loops_commutes&#45;&gt;pTrunc_ptr_loops -->
<g id="edge2" class="edge">
<title>pTrunc_ptr_loops_commutes&#45;&gt;pTrunc_ptr_loops</title>
<path fill="none" stroke="#000000" d="M1131.4829,-486.6697C1170.8433,-456.1414 1236.5896,-405.1479 1274.5385,-375.7144"/>
<polygon fill="#000000" stroke="#000000" points="1276.8915,-378.3187 1282.6483,-369.4243 1272.6014,-372.7874 1276.8915,-378.3187"/>
</g>
<!-- pTrunc_ptr -->
<g id="node15" class="node">
<title>pTrunc_ptr</title>
<g id="a_node15"><a xlink:href="pTrunc.html#ptr" xlink:title="ptr">
<ellipse fill="#f070d1" stroke="#000000" cx="867" cy="-352.8637" rx="27" ry="18"/>
<text text-anchor="middle" x="867" y="-349.1637" font-family="Times,serif" font-size="14.00" fill="#000000">ptr</text>
</a>
</g>
</g>
<!-- pTrunc_ptr_loops_commutes&#45;&gt;pTrunc_ptr -->
<g id="edge3" class="edge">
<title>pTrunc_ptr_loops_commutes&#45;&gt;pTrunc_ptr</title>
<path fill="none" stroke="#000000" d="M1062.75,-487.02C1016.1104,-455.0558 936.1337,-400.2442 894.3063,-371.578"/>
<polygon fill="#000000" stroke="#000000" points="896.2129,-368.6416 885.9855,-365.8754 892.2556,-374.4157 896.2129,-368.6416"/>
</g>
<!-- pTrunc_pequiv_ptr_functor -->
<g id="node3" class="node">
<title>pTrunc_pequiv_ptr_functor</title>
<g id="a_node3"><a xlink:href="pTrunc.html#pequiv_ptr_functor" xlink:title="pequiv_ptr_functor">
<ellipse fill="#f070d1" stroke="#000000" cx="296" cy="-511.8637" rx="100.1756" ry="18"/>
<ellipse fill="none" stroke="#000000" cx="296" cy="-511.8637" rx="104.1789" ry="22"/>
<ellipse fill="none" stroke="#000000" cx="296" cy="-511.8637" rx="108.1823" ry="26"/>
<text text-anchor="middle" x="296" y="-508.1637" font-family="Times,serif" font-size="14.00" fill="#000000">pequiv_ptr_functor</text>
</a>
</g>
</g>
<!-- pTrunc_is0functor_ptr -->
<g id="node10" class="node">
<title>pTrunc_is0functor_ptr</title>
<g id="a_node10"><a xlink:href="pTrunc.html#is0functor_ptr" xlink:title="is0functor_ptr">
<ellipse fill="#f070d1" stroke="#000000" cx="413" cy="-352.8637" rx="77.1866" ry="18"/>
<text text-anchor="middle" x="413" y="-349.1637" font-family="Times,serif" font-size="14.00" fill="#000000">is0functor_ptr</text>
</a>
</g>
</g>
<!-- pTrunc_pequiv_ptr_functor&#45;&gt;pTrunc_is0functor_ptr -->
<g id="edge4" class="edge">
<title>pTrunc_pequiv_ptr_functor&#45;&gt;pTrunc_is0functor_ptr</title>
<path fill="none" stroke="#000000" d="M315.0585,-485.9638C336.7465,-456.4902 371.9726,-408.6189 393.7429,-379.0336"/>
<polygon fill="#000000" stroke="#000000" points="396.6628,-380.9709 399.7706,-370.8421 391.0247,-376.8221 396.6628,-380.9709"/>
</g>
<!-- pTrunc_ptr_loops_eq -->
<g id="node4" class="node">
<title>pTrunc_ptr_loops_eq</title>
<g id="a_node4"><a xlink:href="pTrunc.html#ptr_loops_eq" xlink:title="ptr_loops_eq">
<ellipse fill="#f070d1" stroke="#000000" cx="1536" cy="-511.8637" rx="70.3682" ry="18"/>
<ellipse fill="none" stroke="#000000" cx="1536" cy="-511.8637" rx="74.3781" ry="22"/>
<ellipse fill="none" stroke="#000000" cx="1536" cy="-511.8637" rx="78.388" ry="26"/>
<text text-anchor="middle" x="1536" y="-508.1637" font-family="Times,serif" font-size="14.00" fill="#000000">ptr_loops_eq</text>
</a>
</g>
</g>
<!-- pTrunc_ptr_loops_eq&#45;&gt;pTrunc_ptr_loops -->
<g id="edge5" class="edge">
<title>pTrunc_ptr_loops_eq&#45;&gt;pTrunc_ptr_loops</title>
<path fill="none" stroke="#000000" d="M1501.7676,-488.4027C1457.1937,-457.8543 1379.8465,-404.8448 1336.2633,-374.9753"/>
<polygon fill="#000000" stroke="#000000" points="1337.9854,-371.9124 1327.7581,-369.1462 1334.0281,-377.6865 1337.9854,-371.9124"/>
</g>
<!-- pTrunc_ptr_iterated_loops -->
<g id="node5" class="node">
<title>pTrunc_ptr_iterated_loops</title>
<g id="a_node5"><a xlink:href="pTrunc.html#ptr_iterated_loops" xlink:title="ptr_iterated_loops">
<ellipse fill="#f070d1" stroke="#000000" cx="1336" cy="-511.8637" rx="96.3686" ry="18"/>
<ellipse fill="none" stroke="#000000" cx="1336" cy="-511.8637" rx="100.3759" ry="22"/>
<ellipse fill="none" stroke="#000000" cx="1336" cy="-511.8637" rx="104.3833" ry="26"/>
<text text-anchor="middle" x="1336" y="-508.1637" font-family="Times,serif" font-size="14.00" fill="#000000">ptr_iterated_loops</text>
</a>
</g>
</g>
<!-- pTrunc_ptr_iterated_loops&#45;&gt;pTrunc_ptr_loops -->
<g id="edge6" class="edge">
<title>pTrunc_ptr_iterated_loops&#45;&gt;pTrunc_ptr_loops</title>
<path fill="none" stroke="#000000" d="M1330.7159,-485.6081C1324.9293,-456.8564 1315.6821,-410.909 1309.7261,-381.3155"/>
<polygon fill="#000000" stroke="#000000" points="1313.0976,-380.3275 1307.6933,-371.2147 1306.2352,-381.7087 1313.0976,-380.3275"/>
</g>
<!-- pTrunc_pTr -->
<g id="node16" class="node">
<title>pTrunc_pTr</title>
<g id="a_node16"><a xlink:href="pTrunc.html#pTr" xlink:title="pTr">
<ellipse fill="#f070d1" stroke="#000000" cx="821" cy="-209.8637" rx="27.0966" ry="18"/>
<text text-anchor="middle" x="821" y="-206.1637" font-family="Times,serif" font-size="14.00" fill="#000000">pTr</text>
</a>
</g>
</g>
<!-- pTrunc_ptr_loops&#45;&gt;pTrunc_pTr -->
<g id="edge7" class="edge">
<title>pTrunc_ptr_loops&#45;&gt;pTrunc_pTr</title>
<path fill="none" stroke="#000000" d="M1263.236,-340.7949C1170.0402,-313.2028 942.748,-245.9092 855.702,-220.1378"/>
<polygon fill="#000000" stroke="#000000" points="856.6213,-216.7599 846.0391,-217.277 854.6341,-223.4719 856.6213,-216.7599"/>
</g>
<!-- pTrunc_ptr_pequiv -->
<g id="node7" class="node">
<title>pTrunc_ptr_pequiv</title>
<g id="a_node7"><a xlink:href="pTrunc.html#ptr_pequiv" xlink:title="ptr_pequiv">
<ellipse fill="#f070d1" stroke="#000000" cx="93" cy="-685.8637" rx="61.1783" ry="18"/>
<ellipse fill="none" stroke="#000000" cx="93" cy="-685.8637" rx="65.1838" ry="22"/>
<ellipse fill="none" stroke="#000000" cx="93" cy="-685.8637" rx="69.1893" ry="26"/>
<text text-anchor="middle" x="93" y="-682.1637" font-family="Times,serif" font-size="14.00" fill="#000000">ptr_pequiv</text>
</a>
</g>
</g>
<!-- pTrunc_is1functor_ptr -->
<g id="node9" class="node">
<title>pTrunc_is1functor_ptr</title>
<g id="a_node9"><a xlink:href="pTrunc.html#is1functor_ptr" xlink:title="is1functor_ptr">
<ellipse fill="#f070d1" stroke="#000000" cx="93" cy="-511.8637" rx="77.1866" ry="18"/>
<text text-anchor="middle" x="93" y="-508.1637" font-family="Times,serif" font-size="14.00" fill="#000000">is1functor_ptr</text>
</a>
</g>
</g>
<!-- pTrunc_ptr_pequiv&#45;&gt;pTrunc_is1functor_ptr -->
<g id="edge8" class="edge">
<title>pTrunc_ptr_pequiv&#45;&gt;pTrunc_is1functor_ptr</title>
<path fill="none" stroke="#000000" d="M93,-659.8142C93,-627.7879 93,-573.6166 93,-540.4643"/>
<polygon fill="#000000" stroke="#000000" points="96.5001,-540.0894 93,-530.0894 89.5001,-540.0894 96.5001,-540.0894"/>
</g>
<!-- pTrunc_ptr_functor_pconst -->
<g id="node8" class="node">
<title>pTrunc_ptr_functor_pconst</title>
<g id="a_node8"><a xlink:href="pTrunc.html#ptr_functor_pconst" xlink:title="ptr_functor_pconst">
<ellipse fill="#f070d1" stroke="#000000" cx="530" cy="-511.8637" rx="100.1756" ry="18"/>
<ellipse fill="none" stroke="#000000" cx="530" cy="-511.8637" rx="104.1789" ry="22"/>
<ellipse fill="none" stroke="#000000" cx="530" cy="-511.8637" rx="108.1823" ry="26"/>
<text text-anchor="middle" x="530" y="-508.1637" font-family="Times,serif" font-size="14.00" fill="#000000">ptr_functor_pconst</text>
</a>
</g>
</g>
<!-- pTrunc_ptr_functor_pconst&#45;&gt;pTrunc_is0functor_ptr -->
<g id="edge9" class="edge">
<title>pTrunc_ptr_functor_pconst&#45;&gt;pTrunc_is0functor_ptr</title>
<path fill="none" stroke="#000000" d="M510.9415,-485.9638C489.2535,-456.4902 454.0274,-408.6189 432.2571,-379.0336"/>
<polygon fill="#000000" stroke="#000000" points="434.9753,-376.8221 426.2294,-370.8421 429.3372,-380.9709 434.9753,-376.8221"/>
</g>
<!-- pTrunc_is1functor_ptr&#45;&gt;pTrunc_is0functor_ptr -->
<g id="edge10" class="edge">
<title>pTrunc_is1functor_ptr&#45;&gt;pTrunc_is0functor_ptr</title>
<path fill="none" stroke="#000000" d="M126.0404,-495.4468C184.6378,-466.3312 306.6426,-405.7101 371.0664,-373.6995"/>
<polygon fill="#000000" stroke="#000000" points="372.7414,-376.7756 380.1394,-369.1914 369.6265,-370.5067 372.7414,-376.7756"/>
</g>
<!-- pTrunc_is0functor_ptr&#45;&gt;pTrunc_pTr -->
<g id="edge11" class="edge">
<title>pTrunc_is0functor_ptr&#45;&gt;pTrunc_pTr</title>
<path fill="none" stroke="#000000" d="M455.892,-337.8305C537.3754,-309.2714 713.0105,-247.713 787.0188,-221.7738"/>
<polygon fill="#000000" stroke="#000000" points="788.4874,-224.9679 796.7668,-218.3572 786.172,-218.3619 788.4874,-224.9679"/>
</g>
<!-- pTrunc_equiv_ptr_rec -->
<g id="node11" class="node">
<title>pTrunc_equiv_ptr_rec</title>
<g id="a_node11"><a xlink:href="pTrunc.html#equiv_ptr_rec" xlink:title="equiv_ptr_rec">
<ellipse fill="#f070d1" stroke="#000000" cx="739" cy="-511.8637" rx="75.297" ry="18"/>
<ellipse fill="none" stroke="#000000" cx="739" cy="-511.8637" rx="79.2919" ry="22"/>
<ellipse fill="none" stroke="#000000" cx="739" cy="-511.8637" rx="83.2868" ry="26"/>
<text text-anchor="middle" x="739" y="-508.1637" font-family="Times,serif" font-size="14.00" fill="#000000">equiv_ptr_rec</text>
</a>
</g>
</g>
<!-- pTrunc_pTr_rec -->
<g id="node12" class="node">
<title>pTrunc_pTr_rec</title>
<g id="a_node12"><a xlink:href="pTrunc.html#pTr_rec" xlink:title="pTr_rec">
<ellipse fill="#f070d1" stroke="#000000" cx="757" cy="-352.8637" rx="47.3916" ry="18"/>
<text text-anchor="middle" x="757" y="-349.1637" font-family="Times,serif" font-size="14.00" fill="#000000">pTr_rec</text>
</a>
</g>
</g>
<!-- pTrunc_equiv_ptr_rec&#45;&gt;pTrunc_pTr_rec -->
<g id="edge12" class="edge">
<title>pTrunc_equiv_ptr_rec&#45;&gt;pTrunc_pTr_rec</title>
<path fill="none" stroke="#000000" d="M741.9723,-485.6081C745.2272,-456.8564 750.4288,-410.909 753.7791,-381.3155"/>
<polygon fill="#000000" stroke="#000000" points="757.2753,-381.5449 754.9225,-371.2147 750.3198,-380.7574 757.2753,-381.5449"/>
</g>
<!-- pTrunc_equiv_ptr_rec&#45;&gt;pTrunc_ptr -->
<g id="edge13" class="edge">
<title>pTrunc_equiv_ptr_rec&#45;&gt;pTrunc_ptr</title>
<path fill="none" stroke="#000000" d="M759.5654,-486.3176C783.7497,-456.2762 823.6014,-406.7729 847.372,-377.2454"/>
<polygon fill="#000000" stroke="#000000" points="850.3662,-379.1074 853.9107,-369.1231 844.9135,-374.7178 850.3662,-379.1074"/>
</g>
<!-- pTrunc_pTr_rec&#45;&gt;pTrunc_pTr -->
<g id="edge14" class="edge">
<title>pTrunc_pTr_rec&#45;&gt;pTrunc_pTr</title>
<path fill="none" stroke="#000000" d="M764.9762,-335.0418C776.0068,-310.3954 796.0122,-265.6958 808.8921,-236.9174"/>
<polygon fill="#000000" stroke="#000000" points="812.2338,-238.0184 813.1243,-227.461 805.8445,-235.1588 812.2338,-238.0184"/>
</g>
<!-- pTrunc_pequiv_ptr -->
<g id="node13" class="node">
<title>pTrunc_pequiv_ptr</title>
<g id="a_node13"><a xlink:href="pTrunc.html#pequiv_ptr" xlink:title="pequiv_ptr">
<ellipse fill="#f070d1" stroke="#000000" cx="903" cy="-685.8637" rx="61.1783" ry="18"/>
<ellipse fill="none" stroke="#000000" cx="903" cy="-685.8637" rx="65.1838" ry="22"/>
<ellipse fill="none" stroke="#000000" cx="903" cy="-685.8637" rx="69.1893" ry="26"/>
<text text-anchor="middle" x="903" y="-682.1637" font-family="Times,serif" font-size="14.00" fill="#000000">pequiv_ptr</text>
</a>
</g>
</g>
<!-- pTrunc_isequiv_ptr -->
<g id="node14" class="node">
<title>pTrunc_isequiv_ptr</title>
<g id="a_node14"><a xlink:href="pTrunc.html#isequiv_ptr" xlink:title="isequiv_ptr">
<ellipse fill="#f070d1" stroke="#000000" cx="903" cy="-511.8637" rx="63.0888" ry="18"/>
<text text-anchor="middle" x="903" y="-508.1637" font-family="Times,serif" font-size="14.00" fill="#000000">isequiv_ptr</text>
</a>
</g>
</g>
<!-- pTrunc_pequiv_ptr&#45;&gt;pTrunc_isequiv_ptr -->
<g id="edge15" class="edge">
<title>pTrunc_pequiv_ptr&#45;&gt;pTrunc_isequiv_ptr</title>
<path fill="none" stroke="#000000" d="M903,-659.8142C903,-627.7879 903,-573.6166 903,-540.4643"/>
<polygon fill="#000000" stroke="#000000" points="906.5001,-540.0894 903,-530.0894 899.5001,-540.0894 906.5001,-540.0894"/>
</g>
<!-- pTrunc_isequiv_ptr&#45;&gt;pTrunc_ptr -->
<g id="edge16" class="edge">
<title>pTrunc_isequiv_ptr&#45;&gt;pTrunc_ptr</title>
<path fill="none" stroke="#000000" d="M898.8703,-493.6244C892.6042,-465.949 880.6479,-413.142 873.2943,-380.6634"/>
<polygon fill="#000000" stroke="#000000" points="876.7034,-379.8706 871.0815,-370.8904 869.8762,-381.4164 876.7034,-379.8706"/>
</g>
<!-- pTrunc_ptr&#45;&gt;pTrunc_pTr -->
<g id="edge17" class="edge">
<title>pTrunc_ptr&#45;&gt;pTrunc_pTr</title>
<path fill="none" stroke="#000000" d="M861.2671,-335.0418C853.4164,-310.6364 839.2405,-266.568 829.9756,-237.7661"/>
<polygon fill="#000000" stroke="#000000" points="833.1993,-236.358 826.8052,-227.9103 826.5356,-238.5017 833.1993,-236.358"/>
</g>
<!-- pTrunc_ispointed_tr -->
<g id="node17" class="node">
<title>pTrunc_ispointed_tr</title>
<g id="a_node17"><a xlink:href="pTrunc.html#ispointed_tr" xlink:title="ispointed_tr">
<ellipse fill="#f070d1" stroke="#000000" cx="821" cy="-67.8637" rx="66.8882" ry="18"/>
<text text-anchor="middle" x="821" y="-64.1637" font-family="Times,serif" font-size="14.00" fill="#000000">ispointed_tr</text>
</a>
</g>
</g>
<!-- pTrunc_pTr&#45;&gt;pTrunc_ispointed_tr -->
<g id="edge18" class="edge">
<title>pTrunc_pTr&#45;&gt;pTrunc_ispointed_tr</title>
<path fill="none" stroke="#000000" d="M821,-191.5904C821,-167.4133 821,-124.549 821,-96.1666"/>
<polygon fill="#000000" stroke="#000000" points="824.5001,-96.0669 821,-86.0669 817.5001,-96.067 824.5001,-96.0669"/>
</g>
</g>
</svg>
