<?xml version="1.0" encoding="UTF-8" standalone="no"?>
<!DOCTYPE svg PUBLIC "-//W3C//DTD SVG 1.1//EN"
 "http://www.w3.org/Graphics/SVG/1.1/DTD/svg11.dtd">
<!-- Generated by graphviz version 2.40.1 (20161225.0304)
 -->
<!-- Title: HoTT_Functorish Pages: 1 -->
<svg width="1048pt" height="528pt"
 viewBox="0.00 0.00 1048.00 528.00" xmlns="http://www.w3.org/2000/svg" xmlns:xlink="http://www.w3.org/1999/xlink">
<g id="graph0" class="graph" transform="scale(1 1) rotate(0) translate(4 524)">
<title>HoTT_Functorish</title>
<polygon fill="#ffffff" stroke="transparent" points="-4,4 -4,-524 1044,-524 1044,4 -4,4"/>
<g id="clust1" class="cluster">
<title>cluster_Functorish</title>
<polygon fill="#ffffc3" stroke="#000000" points="8,-15.5805 8,-504.4195 1032,-504.4195 1032,-15.5805 8,-15.5805"/>
<text text-anchor="middle" x="55.5" y="-489.2195" font-family="Times,serif" font-size="14.00" fill="#000000">Functorish</text>
</g>
<!-- Functorish_fmap_agrees_with_univalence -->
<g id="node1" class="node">
<title>Functorish_fmap_agrees_with_univalence</title>
<g id="a_node1"><a xlink:href="Functorish.html#fmap_agrees_with_univalence" xlink:title="fmap_agrees_with_univalence">
<ellipse fill="#f070d1" stroke="#000000" cx="865" cy="-393.5805" rx="150.5843" ry="18"/>
<ellipse fill="none" stroke="#000000" cx="865" cy="-393.5805" rx="154.5789" ry="22"/>
<ellipse fill="none" stroke="#000000" cx="865" cy="-393.5805" rx="158.5735" ry="26"/>
<text text-anchor="middle" x="865" y="-389.8805" font-family="Times,serif" font-size="14.00" fill="#000000">fmap_agrees_with_univalence</text>
</a>
</g>
</g>
<!-- Functorish_fmap_idmap -->
<g id="node3" class="node">
<title>Functorish_fmap_idmap</title>
<g id="a_node3"><a xlink:href="Functorish.html#fmap_idmap" xlink:title="fmap_idmap">
<ellipse fill="#f070d1" stroke="#000000" cx="956" cy="-221.5805" rx="67.6881" ry="18"/>
<text text-anchor="middle" x="956" y="-217.8805" font-family="Times,serif" font-size="14.00" fill="#000000">fmap_idmap</text>
</a>
</g>
</g>
<!-- Functorish_fmap_agrees_with_univalence&#45;&gt;Functorish_fmap_idmap -->
<g id="edge1" class="edge">
<title>Functorish_fmap_agrees_with_univalence&#45;&gt;Functorish_fmap_idmap</title>
<path fill="none" stroke="#000000" d="M878.8209,-367.4574C895.8363,-335.2966 924.5856,-280.9571 941.7814,-248.4552"/>
<polygon fill="#000000" stroke="#000000" points="944.9307,-249.9868 946.5136,-239.5109 938.7433,-246.7132 944.9307,-249.9868"/>
</g>
<!-- Functorish_isequiv_fmap -->
<g id="node2" class="node">
<title>Functorish_isequiv_fmap</title>
<g id="a_node2"><a xlink:href="Functorish.html#isequiv_fmap" xlink:title="isequiv_fmap">
<ellipse fill="#f070d1" stroke="#000000" cx="790" cy="-221.5805" rx="72.2731" ry="18"/>
<ellipse fill="none" stroke="#000000" cx="790" cy="-221.5805" rx="76.2803" ry="22"/>
<ellipse fill="none" stroke="#000000" cx="790" cy="-221.5805" rx="80.2875" ry="26"/>
<text text-anchor="middle" x="790" y="-217.8805" font-family="Times,serif" font-size="14.00" fill="#000000">isequiv_fmap</text>
</a>
</g>
</g>
<!-- Functorish_Functorish -->
<g id="node10" class="node">
<title>Functorish_Functorish</title>
<g id="a_node10"><a xlink:href="Functorish.html#Functorish" xlink:title="Functorish">
<ellipse fill="#e2cdfa" stroke="#000000" cx="576" cy="-66.5805" rx="61.99" ry="18"/>
<text text-anchor="middle" x="576" y="-62.8805" font-family="Times,serif" font-size="14.00" fill="#000000">Functorish</text>
</a>
</g>
</g>
<!-- Functorish_isequiv_fmap&#45;&gt;Functorish_Functorish -->
<g id="edge2" class="edge">
<title>Functorish_isequiv_fmap&#45;&gt;Functorish_Functorish</title>
<path fill="none" stroke="#000000" d="M757.0315,-197.7015C716.2891,-168.1918 647.4588,-118.3381 607.4361,-89.3497"/>
<polygon fill="#000000" stroke="#000000" points="609.2657,-86.3533 599.1138,-83.3218 605.1596,-92.0224 609.2657,-86.3533"/>
</g>
<!-- Functorish_fmap_idmap&#45;&gt;Functorish_Functorish -->
<g id="edge3" class="edge">
<title>Functorish_fmap_idmap&#45;&gt;Functorish_Functorish</title>
<path fill="none" stroke="#000000" d="M918.8721,-206.4363C848.8464,-177.8731 697.4927,-116.1368 621.4894,-85.1354"/>
<polygon fill="#000000" stroke="#000000" points="622.7444,-81.8674 612.1632,-81.3313 620.1006,-88.349 622.7444,-81.8674"/>
</g>
<!-- Functorish_fmap -->
<g id="node4" class="node">
<title>Functorish_fmap</title>
<g id="a_node4"><a xlink:href="Functorish.html#fmap" xlink:title="fmap">
<ellipse fill="#f070d1" stroke="#000000" cx="649" cy="-221.5805" rx="34.4039" ry="18"/>
<ellipse fill="none" stroke="#000000" cx="649" cy="-221.5805" rx="38.3989" ry="22"/>
<ellipse fill="none" stroke="#000000" cx="649" cy="-221.5805" rx="42.394" ry="26"/>
<text text-anchor="middle" x="649" y="-217.8805" font-family="Times,serif" font-size="14.00" fill="#000000">fmap</text>
</a>
</g>
</g>
<!-- Functorish_fmap&#45;&gt;Functorish_Functorish -->
<g id="edge4" class="edge">
<title>Functorish_fmap&#45;&gt;Functorish_Functorish</title>
<path fill="none" stroke="#000000" d="M637.1088,-196.3321C623.8238,-168.1241 602.3973,-122.6296 588.7667,-93.6878"/>
<polygon fill="#000000" stroke="#000000" points="591.8932,-92.1119 584.466,-84.5563 585.5604,-95.0944 591.8932,-92.1119"/>
</g>
<!-- Functorish_Functorish_sind -->
<g id="node5" class="node">
<title>Functorish_Functorish_sind</title>
<g id="a_node5"><a xlink:href="Functorish.html#Functorish_sind" xlink:title="Functorish_sind">
<ellipse fill="#f070d1" stroke="#000000" cx="110" cy="-221.5805" rx="85.6029" ry="18"/>
<ellipse fill="none" stroke="#000000" cx="110" cy="-221.5805" rx="89.5941" ry="22"/>
<ellipse fill="none" stroke="#000000" cx="110" cy="-221.5805" rx="93.5852" ry="26"/>
<text text-anchor="middle" x="110" y="-217.8805" font-family="Times,serif" font-size="14.00" fill="#000000">Functorish_sind</text>
</a>
</g>
</g>
<!-- Functorish_Build_Functorish -->
<g id="node9" class="node">
<title>Functorish_Build_Functorish</title>
<g id="a_node9"><a xlink:href="Functorish.html#Build_Functorish" xlink:title="Build_Functorish">
<ellipse fill="#7faaff" stroke="#000000" cx="311" cy="-66.5805" rx="90.9839" ry="18"/>
<text text-anchor="middle" x="311" y="-62.8805" font-family="Times,serif" font-size="14.00" fill="#000000">Build_Functorish</text>
</a>
</g>
</g>
<!-- Functorish_Functorish_sind&#45;&gt;Functorish_Build_Functorish -->
<g id="edge5" class="edge">
<title>Functorish_Functorish_sind&#45;&gt;Functorish_Build_Functorish</title>
<path fill="none" stroke="#000000" d="M141.849,-197.0203C179.824,-167.7362 242.8487,-119.135 280.3066,-90.2495"/>
<polygon fill="#000000" stroke="#000000" points="282.5633,-92.9292 288.3449,-84.0509 278.2886,-87.3859 282.5633,-92.9292"/>
</g>
<!-- Functorish_Functorish_sind&#45;&gt;Functorish_Functorish -->
<g id="edge6" class="edge">
<title>Functorish_Functorish_sind&#45;&gt;Functorish_Functorish</title>
<path fill="none" stroke="#000000" d="M170.4436,-201.4759C263.2789,-170.5972 439.2612,-112.0623 525.6269,-83.3355"/>
<polygon fill="#000000" stroke="#000000" points="526.819,-86.6276 535.2032,-80.1503 524.6096,-79.9854 526.819,-86.6276"/>
</g>
<!-- Functorish_Functorish_rec -->
<g id="node6" class="node">
<title>Functorish_Functorish_rec</title>
<g id="a_node6"><a xlink:href="Functorish.html#Functorish_rec" xlink:title="Functorish_rec">
<ellipse fill="#f070d1" stroke="#000000" cx="503" cy="-393.5805" rx="81.4644" ry="18"/>
<ellipse fill="none" stroke="#000000" cx="503" cy="-393.5805" rx="85.4753" ry="22"/>
<ellipse fill="none" stroke="#000000" cx="503" cy="-393.5805" rx="89.4862" ry="26"/>
<text text-anchor="middle" x="503" y="-389.8805" font-family="Times,serif" font-size="14.00" fill="#000000">Functorish_rec</text>
</a>
</g>
</g>
<!-- Functorish_Functorish_rect -->
<g id="node8" class="node">
<title>Functorish_Functorish_rect</title>
<g id="a_node8"><a xlink:href="Functorish.html#Functorish_rect" xlink:title="Functorish_rect">
<ellipse fill="#f070d1" stroke="#000000" cx="503" cy="-221.5805" rx="85.2851" ry="18"/>
<text text-anchor="middle" x="503" y="-217.8805" font-family="Times,serif" font-size="14.00" fill="#000000">Functorish_rect</text>
</a>
</g>
</g>
<!-- Functorish_Functorish_rec&#45;&gt;Functorish_Functorish_rect -->
<g id="edge7" class="edge">
<title>Functorish_Functorish_rec&#45;&gt;Functorish_Functorish_rect</title>
<path fill="none" stroke="#000000" d="M503,-367.4574C503,-335.8795 503,-282.9198 503,-250.2439"/>
<polygon fill="#000000" stroke="#000000" points="506.5001,-250.0002 503,-240.0003 499.5001,-250.0003 506.5001,-250.0002"/>
</g>
<!-- Functorish_Functorish_ind -->
<g id="node7" class="node">
<title>Functorish_Functorish_ind</title>
<g id="a_node7"><a xlink:href="Functorish.html#Functorish_ind" xlink:title="Functorish_ind">
<ellipse fill="#7fffd4" stroke="#000000" cx="311" cy="-221.5805" rx="81.4644" ry="18"/>
<ellipse fill="none" stroke="#000000" cx="311" cy="-221.5805" rx="85.4753" ry="22"/>
<ellipse fill="none" stroke="#000000" cx="311" cy="-221.5805" rx="89.4862" ry="26"/>
<text text-anchor="middle" x="311" y="-217.8805" font-family="Times,serif" font-size="14.00" fill="#000000">Functorish_ind</text>
</a>
</g>
</g>
<!-- Functorish_Functorish_ind&#45;&gt;Functorish_Build_Functorish -->
<g id="edge8" class="edge">
<title>Functorish_Functorish_ind&#45;&gt;Functorish_Build_Functorish</title>
<path fill="none" stroke="#000000" d="M311,-195.2869C311,-167.4091 311,-123.531 311,-94.9047"/>
<polygon fill="#000000" stroke="#000000" points="314.5001,-94.7452 311,-84.7453 307.5001,-94.7453 314.5001,-94.7452"/>
</g>
<!-- Functorish_Functorish_ind&#45;&gt;Functorish_Functorish -->
<g id="edge9" class="edge">
<title>Functorish_Functorish_ind&#45;&gt;Functorish_Functorish</title>
<path fill="none" stroke="#000000" d="M350.9601,-198.2076C402.1405,-168.2719 490.1139,-116.8158 539.5449,-87.9033"/>
<polygon fill="#000000" stroke="#000000" points="541.4439,-90.8474 548.3087,-82.7773 537.9097,-84.8051 541.4439,-90.8474"/>
</g>
<!-- Functorish_Functorish_rect&#45;&gt;Functorish_Build_Functorish -->
<g id="edge10" class="edge">
<title>Functorish_Functorish_rect&#45;&gt;Functorish_Build_Functorish</title>
<path fill="none" stroke="#000000" d="M481.3484,-204.1014C446.922,-176.3092 379.628,-121.9833 340.7173,-90.5711"/>
<polygon fill="#000000" stroke="#000000" points="342.8466,-87.7918 332.8671,-84.2336 338.4495,-93.2385 342.8466,-87.7918"/>
</g>
<!-- Functorish_Functorish_rect&#45;&gt;Functorish_Functorish -->
<g id="edge11" class="edge">
<title>Functorish_Functorish_rect&#45;&gt;Functorish_Functorish</title>
<path fill="none" stroke="#000000" d="M511.5169,-203.4967C524.2645,-176.4298 548.3929,-125.1984 563.2478,-93.6571"/>
<polygon fill="#000000" stroke="#000000" points="566.4429,-95.0873 567.5374,-84.5492 560.1101,-92.1047 566.4429,-95.0873"/>
</g>
</g>
</svg>
