<?xml version="1.0" encoding="UTF-8" standalone="no"?>
<!DOCTYPE svg PUBLIC "-//W3C//DTD SVG 1.1//EN"
 "http://www.w3.org/Graphics/SVG/1.1/DTD/svg11.dtd">
<!-- Generated by graphviz version 2.40.1 (20161225.0304)
 -->
<!-- Title: HoTT_Truncations_Core Pages: 1 -->
<svg width="2246pt" height="1127pt"
 viewBox="0.00 0.00 2246.00 1127.00" xmlns="http://www.w3.org/2000/svg" xmlns:xlink="http://www.w3.org/1999/xlink">
<g id="graph0" class="graph" transform="scale(1 1) rotate(0) translate(4 1123)">
<title>HoTT_Truncations_Core</title>
<polygon fill="#ffffff" stroke="transparent" points="-4,4 -4,-1123 2242,-1123 2242,4 -4,4"/>
<g id="clust1" class="cluster">
<title>cluster_Core</title>
<polygon fill="#ffffc3" stroke="#000000" points="8,-13.0496 8,-1105.9504 2230,-1105.9504 2230,-13.0496 8,-13.0496"/>
<text text-anchor="middle" x="33.5" y="-1090.7504" font-family="Times,serif" font-size="14.00" fill="#000000">Core</text>
</g>
<g id="clust2" class="cluster">
<title>cluster_Core_Trunc</title>
<polygon fill="#ffffa3" stroke="#000000" points="1159,-26.0991 1159,-265.8848 1503,-265.8848 1503,-26.0991 1159,-26.0991"/>
<text text-anchor="middle" x="1188.5" y="-250.6848" font-family="Times,serif" font-size="14.00" fill="#000000">Trunc</text>
</g>
<!-- Core_Trunc_Trunc_ind -->
<g id="node1" class="node">
<title>Core_Trunc_Trunc_ind</title>
<g id="a_node1"><a xlink:href="Core.html#Trunc.Trunc_ind" xlink:title="Trunc_ind">
<ellipse fill="#f070d1" stroke="#000000" cx="1437" cy="-186.0496" rx="57.6901" ry="18"/>
<text text-anchor="middle" x="1437" y="-182.3496" font-family="Times,serif" font-size="14.00" fill="#000000">Trunc_ind</text>
</a>
</g>
</g>
<!-- Core_Trunc_tr -->
<g id="node3" class="node">
<title>Core_Trunc_tr</title>
<g id="a_node3"><a xlink:href="Core.html#Trunc.tr" xlink:title="tr">
<ellipse fill="#7faaff" stroke="#000000" cx="1437" cy="-68.0496" rx="27" ry="18"/>
<text text-anchor="middle" x="1437" y="-64.3496" font-family="Times,serif" font-size="14.00" fill="#000000">tr</text>
</a>
</g>
</g>
<!-- Core_Trunc_Trunc_ind&#45;&gt;Core_Trunc_tr -->
<g id="edge1" class="edge">
<title>Core_Trunc_Trunc_ind&#45;&gt;Core_Trunc_tr</title>
<path fill="none" stroke="#000000" d="M1437,-167.8707C1437,-148.759 1437,-118.4386 1437,-96.2247"/>
<polygon fill="#000000" stroke="#000000" points="1440.5001,-96.0554 1437,-86.0555 1433.5001,-96.0555 1440.5001,-96.0554"/>
</g>
<!-- Core_Trunc_Trunc -->
<g id="node4" class="node">
<title>Core_Trunc_Trunc</title>
<g id="a_node4"><a xlink:href="Core.html#Trunc.Trunc" xlink:title="Trunc">
<ellipse fill="#e2cdfa" stroke="#000000" cx="1309" cy="-68.0496" rx="38.1938" ry="18"/>
<text text-anchor="middle" x="1309" y="-64.3496" font-family="Times,serif" font-size="14.00" fill="#000000">Trunc</text>
</a>
</g>
</g>
<!-- Core_Trunc_Trunc_ind&#45;&gt;Core_Trunc_Trunc -->
<g id="edge2" class="edge">
<title>Core_Trunc_Trunc_ind&#45;&gt;Core_Trunc_Trunc</title>
<path fill="none" stroke="#000000" d="M1418.3877,-168.8913C1396.1143,-148.3581 1358.7302,-113.8946 1333.9644,-91.0636"/>
<polygon fill="#000000" stroke="#000000" points="1336.1269,-88.2968 1326.4021,-84.0921 1331.3823,-93.4436 1336.1269,-88.2968"/>
</g>
<!-- Core_Trunc_istrunc_truncation -->
<g id="node2" class="node">
<title>Core_Trunc_istrunc_truncation</title>
<g id="a_node2"><a xlink:href="Core.html#Trunc.istrunc_truncation" xlink:title="istrunc_truncation">
<ellipse fill="#facdef" stroke="#000000" cx="1264" cy="-186.0496" rx="97.4827" ry="18"/>
<text text-anchor="middle" x="1264" y="-182.3496" font-family="Times,serif" font-size="14.00" fill="#000000">istrunc_truncation</text>
</a>
</g>
</g>
<!-- Core_Trunc_istrunc_truncation&#45;&gt;Core_Trunc_Trunc -->
<g id="edge3" class="edge">
<title>Core_Trunc_istrunc_truncation&#45;&gt;Core_Trunc_Trunc</title>
<path fill="none" stroke="#000000" d="M1270.9326,-167.8707C1278.2872,-148.5853 1289.9944,-117.8864 1298.4855,-95.6209"/>
<polygon fill="#000000" stroke="#000000" points="1301.8403,-96.6463 1302.1333,-86.0555 1295.2998,-94.1519 1301.8403,-96.6463"/>
</g>
<!-- Core_equiv_path_Tr -->
<g id="node5" class="node">
<title>Core_equiv_path_Tr</title>
<g id="a_node5"><a xlink:href="Core.html#equiv_path_Tr" xlink:title="equiv_path_Tr">
<ellipse fill="#f070d1" stroke="#000000" cx="1756" cy="-1013.0496" rx="77.2012" ry="18"/>
<ellipse fill="none" stroke="#000000" cx="1756" cy="-1013.0496" rx="81.1939" ry="22"/>
<ellipse fill="none" stroke="#000000" cx="1756" cy="-1013.0496" rx="85.1866" ry="26"/>
<text text-anchor="middle" x="1756" y="-1009.3496" font-family="Times,serif" font-size="14.00" fill="#000000">equiv_path_Tr</text>
</a>
</g>
</g>
<!-- Core_O_lex_leq_Tr -->
<g id="node7" class="node">
<title>Core_O_lex_leq_Tr</title>
<g id="a_node7"><a xlink:href="Core.html#O_lex_leq_Tr" xlink:title="O_lex_leq_Tr">
<ellipse fill="#f070d1" stroke="#000000" cx="1874" cy="-869.0496" rx="71.4873" ry="18"/>
<text text-anchor="middle" x="1874" y="-865.3496" font-family="Times,serif" font-size="14.00" fill="#000000">O_lex_leq_Tr</text>
</a>
</g>
</g>
<!-- Core_equiv_path_Tr&#45;&gt;Core_O_lex_leq_Tr -->
<g id="edge4" class="edge">
<title>Core_equiv_path_Tr&#45;&gt;Core_O_lex_leq_Tr</title>
<path fill="none" stroke="#000000" d="M1776.8244,-987.6367C1798.1976,-961.5541 1831.2842,-921.1773 1852.7952,-894.9266"/>
<polygon fill="#000000" stroke="#000000" points="1855.7119,-896.8893 1859.343,-886.9361 1850.2976,-892.4525 1855.7119,-896.8893"/>
</g>
<!-- Core_O_eq_Tr -->
<g id="node10" class="node">
<title>Core_O_eq_Tr</title>
<g id="a_node10"><a xlink:href="Core.html#O_eq_Tr" xlink:title="O_eq_Tr">
<ellipse fill="#f070d1" stroke="#000000" cx="1675" cy="-582.0496" rx="50.0912" ry="18"/>
<text text-anchor="middle" x="1675" y="-578.3496" font-family="Times,serif" font-size="14.00" fill="#000000">O_eq_Tr</text>
</a>
</g>
</g>
<!-- Core_equiv_path_Tr&#45;&gt;Core_O_eq_Tr -->
<g id="edge5" class="edge">
<title>Core_equiv_path_Tr&#45;&gt;Core_O_eq_Tr</title>
<path fill="none" stroke="#000000" d="M1741.192,-987.0919C1716.0567,-941.3699 1666.0174,-842.7144 1648,-752.0496 1638.076,-702.1115 1653.3204,-643.3462 1664.6283,-609.6221"/>
<polygon fill="#000000" stroke="#000000" points="1667.9965,-610.5923 1667.979,-599.9974 1661.3857,-608.2907 1667.9965,-610.5923"/>
</g>
<!-- Core_path_Tr -->
<g id="node6" class="node">
<title>Core_path_Tr</title>
<g id="a_node6"><a xlink:href="Core.html#path_Tr" xlink:title="path_Tr">
<ellipse fill="#f070d1" stroke="#000000" cx="1712" cy="-726.0496" rx="47.3994" ry="18"/>
<ellipse fill="none" stroke="#000000" cx="1712" cy="-726.0496" rx="51.3955" ry="22"/>
<ellipse fill="none" stroke="#000000" cx="1712" cy="-726.0496" rx="55.3916" ry="26"/>
<text text-anchor="middle" x="1712" y="-722.3496" font-family="Times,serif" font-size="14.00" fill="#000000">path_Tr</text>
</a>
</g>
</g>
<!-- Core_path_Tr&#45;&gt;Core_O_eq_Tr -->
<g id="edge6" class="edge">
<title>Core_path_Tr&#45;&gt;Core_O_eq_Tr</title>
<path fill="none" stroke="#000000" d="M1705.2996,-699.9722C1698.7836,-674.6129 1688.916,-636.209 1682.2266,-610.1747"/>
<polygon fill="#000000" stroke="#000000" points="1685.5383,-608.9991 1679.6597,-600.1847 1678.7585,-610.7411 1685.5383,-608.9991"/>
</g>
<!-- Core_O_strong_leq_Tr -->
<g id="node8" class="node">
<title>Core_O_strong_leq_Tr</title>
<g id="a_node8"><a xlink:href="Core.html#O_strong_leq_Tr" xlink:title="O_strong_leq_Tr">
<ellipse fill="#f070d1" stroke="#000000" cx="1874" cy="-726.0496" rx="88.2844" ry="18"/>
<text text-anchor="middle" x="1874" y="-722.3496" font-family="Times,serif" font-size="14.00" fill="#000000">O_strong_leq_Tr</text>
</a>
</g>
</g>
<!-- Core_O_lex_leq_Tr&#45;&gt;Core_O_strong_leq_Tr -->
<g id="edge7" class="edge">
<title>Core_O_lex_leq_Tr&#45;&gt;Core_O_strong_leq_Tr</title>
<path fill="none" stroke="#000000" d="M1874,-850.9385C1874,-826.6811 1874,-783.3759 1874,-754.6784"/>
<polygon fill="#000000" stroke="#000000" points="1877.5001,-754.4652 1874,-744.4652 1870.5001,-754.4653 1877.5001,-754.4652"/>
</g>
<!-- Core_Trunc_rec -->
<g id="node41" class="node">
<title>Core_Trunc_rec</title>
<g id="a_node41"><a xlink:href="Core.html#Trunc_rec" xlink:title="Trunc_rec">
<ellipse fill="#f070d1" stroke="#000000" cx="2082" cy="-726.0496" rx="58.4896" ry="18"/>
<text text-anchor="middle" x="2082" y="-722.3496" font-family="Times,serif" font-size="14.00" fill="#000000">Trunc_rec</text>
</a>
</g>
</g>
<!-- Core_O_lex_leq_Tr&#45;&gt;Core_Trunc_rec -->
<g id="edge8" class="edge">
<title>Core_O_lex_leq_Tr&#45;&gt;Core_Trunc_rec</title>
<path fill="none" stroke="#000000" d="M1898.6771,-852.084C1936.2512,-826.2519 2007.8353,-777.0378 2049.5678,-748.3467"/>
<polygon fill="#000000" stroke="#000000" points="2051.7394,-751.1011 2057.997,-742.5517 2047.7737,-745.3328 2051.7394,-751.1011"/>
</g>
<!-- Core_O_leq_Tr -->
<g id="node9" class="node">
<title>Core_O_leq_Tr</title>
<g id="a_node9"><a xlink:href="Core.html#O_leq_Tr" xlink:title="O_leq_Tr">
<ellipse fill="#f070d1" stroke="#000000" cx="1796" cy="-582.0496" rx="53.0913" ry="18"/>
<text text-anchor="middle" x="1796" y="-578.3496" font-family="Times,serif" font-size="14.00" fill="#000000">O_leq_Tr</text>
</a>
</g>
</g>
<!-- Core_O_strong_leq_Tr&#45;&gt;Core_O_leq_Tr -->
<g id="edge9" class="edge">
<title>Core_O_strong_leq_Tr&#45;&gt;Core_O_leq_Tr</title>
<path fill="none" stroke="#000000" d="M1864.279,-708.103C1850.7768,-683.1759 1826.2407,-637.8785 1810.5514,-608.9136"/>
<polygon fill="#000000" stroke="#000000" points="1813.4389,-606.8958 1805.5985,-599.7699 1807.2839,-610.2299 1813.4389,-606.8958"/>
</g>
<!-- Core_istrunc_inO_tr -->
<g id="node25" class="node">
<title>Core_istrunc_inO_tr</title>
<g id="a_node25"><a xlink:href="Core.html#istrunc_inO_tr" xlink:title="istrunc_inO_tr">
<ellipse fill="#f070d1" stroke="#000000" cx="1599" cy="-439.0496" rx="78.7863" ry="18"/>
<text text-anchor="middle" x="1599" y="-435.3496" font-family="Times,serif" font-size="14.00" fill="#000000">istrunc_inO_tr</text>
</a>
</g>
</g>
<!-- Core_O_leq_Tr&#45;&gt;Core_istrunc_inO_tr -->
<g id="edge10" class="edge">
<title>Core_O_leq_Tr&#45;&gt;Core_istrunc_inO_tr</title>
<path fill="none" stroke="#000000" d="M1773.4016,-565.6456C1738.3962,-540.2357 1670.9394,-491.2695 1630.9571,-462.2469"/>
<polygon fill="#000000" stroke="#000000" points="1633.0127,-459.4141 1622.8639,-456.3721 1628.9006,-465.079 1633.0127,-459.4141"/>
</g>
<!-- Core_inO_tr_istrunc -->
<g id="node26" class="node">
<title>Core_inO_tr_istrunc</title>
<g id="a_node26"><a xlink:href="Core.html#inO_tr_istrunc" xlink:title="inO_tr_istrunc">
<ellipse fill="#f070d1" stroke="#000000" cx="1424" cy="-439.0496" rx="78.7863" ry="18"/>
<text text-anchor="middle" x="1424" y="-435.3496" font-family="Times,serif" font-size="14.00" fill="#000000">inO_tr_istrunc</text>
</a>
</g>
</g>
<!-- Core_O_leq_Tr&#45;&gt;Core_inO_tr_istrunc -->
<g id="edge11" class="edge">
<title>Core_O_leq_Tr&#45;&gt;Core_inO_tr_istrunc</title>
<path fill="none" stroke="#000000" d="M1762.627,-567.7939C1753.3826,-563.9162 1743.3257,-559.7634 1734,-556.0496 1643.5752,-520.0392 1537.2624,-480.5205 1475.5635,-457.8614"/>
<polygon fill="#000000" stroke="#000000" points="1476.6472,-454.5309 1466.0535,-454.3726 1474.2362,-461.1026 1476.6472,-454.5309"/>
</g>
<!-- Core_O_eq_Tr&#45;&gt;Core_istrunc_inO_tr -->
<g id="edge12" class="edge">
<title>Core_O_eq_Tr&#45;&gt;Core_istrunc_inO_tr</title>
<path fill="none" stroke="#000000" d="M1665.5282,-564.2276C1652.4437,-539.6081 1628.7248,-494.9791 1613.4283,-466.1975"/>
<polygon fill="#000000" stroke="#000000" points="1616.3749,-464.2839 1608.5912,-457.0961 1610.1936,-467.569 1616.3749,-464.2839"/>
</g>
<!-- Core_O_eq_Tr&#45;&gt;Core_inO_tr_istrunc -->
<g id="edge13" class="edge">
<title>Core_O_eq_Tr&#45;&gt;Core_inO_tr_istrunc</title>
<path fill="none" stroke="#000000" d="M1648.1386,-566.7461C1603.3996,-541.2573 1513.4819,-490.0293 1462.1748,-460.7986"/>
<polygon fill="#000000" stroke="#000000" points="1463.7903,-457.6908 1453.3689,-455.7816 1460.3251,-463.773 1463.7903,-457.6908"/>
</g>
<!-- Core_Trunc_swap -->
<g id="node11" class="node">
<title>Core_Trunc_swap</title>
<g id="a_node11"><a xlink:href="Core.html#Trunc_swap" xlink:title="Trunc_swap">
<ellipse fill="#f070d1" stroke="#000000" cx="1280" cy="-1013.0496" rx="67.6782" ry="18"/>
<ellipse fill="none" stroke="#000000" cx="1280" cy="-1013.0496" rx="71.6831" ry="22"/>
<ellipse fill="none" stroke="#000000" cx="1280" cy="-1013.0496" rx="75.6881" ry="26"/>
<text text-anchor="middle" x="1280" y="-1009.3496" font-family="Times,serif" font-size="14.00" fill="#000000">Trunc_swap</text>
</a>
</g>
</g>
<!-- Core_Trunc_min -->
<g id="node12" class="node">
<title>Core_Trunc_min</title>
<g id="a_node12"><a xlink:href="Core.html#Trunc_min" xlink:title="Trunc_min">
<ellipse fill="#f070d1" stroke="#000000" cx="1280" cy="-869.0496" rx="61.1893" ry="18"/>
<text text-anchor="middle" x="1280" y="-865.3496" font-family="Times,serif" font-size="14.00" fill="#000000">Trunc_min</text>
</a>
</g>
</g>
<!-- Core_Trunc_swap&#45;&gt;Core_Trunc_min -->
<g id="edge14" class="edge">
<title>Core_Trunc_swap&#45;&gt;Core_Trunc_min</title>
<path fill="none" stroke="#000000" d="M1280,-986.9722C1280,-961.7256 1280,-923.5501 1280,-897.5225"/>
<polygon fill="#000000" stroke="#000000" points="1283.5001,-897.1847 1280,-887.1847 1276.5001,-897.1847 1283.5001,-897.1847"/>
</g>
<!-- Core_O_leq_Tr_leq -->
<g id="node13" class="node">
<title>Core_O_leq_Tr_leq</title>
<g id="a_node13"><a xlink:href="Core.html#O_leq_Tr_leq" xlink:title="O_leq_Tr_leq">
<ellipse fill="#f070d1" stroke="#000000" cx="1364" cy="-726.0496" rx="72.2875" ry="18"/>
<text text-anchor="middle" x="1364" y="-722.3496" font-family="Times,serif" font-size="14.00" fill="#000000">O_leq_Tr_leq</text>
</a>
</g>
</g>
<!-- Core_Trunc_min&#45;&gt;Core_O_leq_Tr_leq -->
<g id="edge15" class="edge">
<title>Core_Trunc_min&#45;&gt;Core_O_leq_Tr_leq</title>
<path fill="none" stroke="#000000" d="M1290.4688,-851.2276C1304.9935,-826.5011 1331.3744,-781.5907 1348.273,-752.823"/>
<polygon fill="#000000" stroke="#000000" points="1351.3521,-754.4913 1353.3993,-744.0961 1345.3164,-750.9458 1351.3521,-754.4913"/>
</g>
<!-- Core_Trunc_functor -->
<g id="node35" class="node">
<title>Core_Trunc_functor</title>
<g id="a_node35"><a xlink:href="Core.html#Trunc_functor" xlink:title="Trunc_functor">
<ellipse fill="#f070d1" stroke="#000000" cx="554" cy="-726.0496" rx="77.1866" ry="18"/>
<text text-anchor="middle" x="554" y="-722.3496" font-family="Times,serif" font-size="14.00" fill="#000000">Trunc_functor</text>
</a>
</g>
</g>
<!-- Core_Trunc_min&#45;&gt;Core_Trunc_functor -->
<g id="edge16" class="edge">
<title>Core_Trunc_min&#45;&gt;Core_Trunc_functor</title>
<path fill="none" stroke="#000000" d="M1244.4666,-854.3065C1233.5531,-850.1999 1221.4099,-846.0479 1210,-843.0496 961.8825,-777.8481 890.0206,-809.5234 640,-752.0496 629.7473,-749.6927 618.9276,-746.7731 608.5514,-743.7507"/>
<polygon fill="#000000" stroke="#000000" points="609.355,-740.3382 598.7719,-740.8366 607.3559,-747.0467 609.355,-740.3382"/>
</g>
<!-- Core_equiv_tr -->
<g id="node37" class="node">
<title>Core_equiv_tr</title>
<g id="a_node37"><a xlink:href="Core.html#equiv_tr" xlink:title="equiv_tr">
<ellipse fill="#f070d1" stroke="#000000" cx="904" cy="-726.0496" rx="49.2915" ry="18"/>
<text text-anchor="middle" x="904" y="-722.3496" font-family="Times,serif" font-size="14.00" fill="#000000">equiv_tr</text>
</a>
</g>
</g>
<!-- Core_Trunc_min&#45;&gt;Core_equiv_tr -->
<g id="edge17" class="edge">
<title>Core_Trunc_min&#45;&gt;Core_equiv_tr</title>
<path fill="none" stroke="#000000" d="M1241.8639,-854.8536C1231.5273,-851.0144 1220.3374,-846.8659 1210,-843.0496 1099.858,-802.3873 1070.7453,-796.312 962,-752.0496 956.0976,-749.6471 949.9066,-747.0054 943.8576,-744.3548"/>
<polygon fill="#000000" stroke="#000000" points="945.0909,-741.0729 934.5308,-740.2151 942.251,-747.471 945.0909,-741.0729"/>
</g>
<!-- Core_Tr -->
<g id="node40" class="node">
<title>Core_Tr</title>
<g id="a_node40"><a xlink:href="Core.html#Tr" xlink:title="Tr">
<ellipse fill="#f070d1" stroke="#000000" cx="1264" cy="-308.0496" rx="27" ry="18"/>
<text text-anchor="middle" x="1264" y="-304.3496" font-family="Times,serif" font-size="14.00" fill="#000000">Tr</text>
</a>
</g>
</g>
<!-- Core_O_leq_Tr_leq&#45;&gt;Core_Tr -->
<g id="edge18" class="edge">
<title>Core_O_leq_Tr_leq&#45;&gt;Core_Tr</title>
<path fill="none" stroke="#000000" d="M1368.5109,-707.9603C1375.6037,-676.6508 1387.4359,-610.4855 1376,-556.0496 1366.9171,-512.8141 1352.8232,-505.9003 1336,-465.0496 1326.5709,-442.1535 1325.9497,-435.7242 1316,-413.0496 1304.0208,-385.7498 1288.7152,-355.2952 1277.8178,-334.245"/>
<polygon fill="#000000" stroke="#000000" points="1280.8723,-332.5326 1273.1488,-325.2801 1274.6638,-335.7661 1280.8723,-332.5326"/>
</g>
<!-- Core_isequiv_surj_emb -->
<g id="node14" class="node">
<title>Core_isequiv_surj_emb</title>
<g id="a_node14"><a xlink:href="Core.html#isequiv_surj_emb" xlink:title="isequiv_surj_emb">
<ellipse fill="#f070d1" stroke="#000000" cx="1103" cy="-439.0496" rx="91.7725" ry="18"/>
<ellipse fill="none" stroke="#000000" cx="1103" cy="-439.0496" rx="95.7782" ry="22"/>
<ellipse fill="none" stroke="#000000" cx="1103" cy="-439.0496" rx="99.7839" ry="26"/>
<text text-anchor="middle" x="1103" y="-435.3496" font-family="Times,serif" font-size="14.00" fill="#000000">isequiv_surj_emb</text>
</a>
</g>
</g>
<!-- Core_isequiv_surj_emb&#45;&gt;Core_Tr -->
<g id="edge19" class="edge">
<title>Core_isequiv_surj_emb&#45;&gt;Core_Tr</title>
<path fill="none" stroke="#000000" d="M1133.6618,-414.1011C1164.2201,-389.2369 1210.575,-351.5196 1238.9818,-328.406"/>
<polygon fill="#000000" stroke="#000000" points="1241.2892,-331.0408 1246.8369,-322.0145 1236.8712,-325.6111 1241.2892,-331.0408"/>
</g>
<!-- Core_equiv_merely_issurjection -->
<g id="node15" class="node">
<title>Core_equiv_merely_issurjection</title>
<g id="a_node15"><a xlink:href="Core.html#equiv_merely_issurjection" xlink:title="equiv_merely_issurjection">
<ellipse fill="#f070d1" stroke="#000000" cx="1112" cy="-726.0496" rx="132.6715" ry="18"/>
<ellipse fill="none" stroke="#000000" cx="1112" cy="-726.0496" rx="136.674" ry="22"/>
<ellipse fill="none" stroke="#000000" cx="1112" cy="-726.0496" rx="140.6765" ry="26"/>
<text text-anchor="middle" x="1112" y="-722.3496" font-family="Times,serif" font-size="14.00" fill="#000000">equiv_merely_issurjection</text>
</a>
</g>
</g>
<!-- Core_iff_merely_issurjection -->
<g id="node16" class="node">
<title>Core_iff_merely_issurjection</title>
<g id="a_node16"><a xlink:href="Core.html#iff_merely_issurjection" xlink:title="iff_merely_issurjection">
<ellipse fill="#f070d1" stroke="#000000" cx="944" cy="-582.0496" rx="116.9792" ry="18"/>
<text text-anchor="middle" x="944" y="-578.3496" font-family="Times,serif" font-size="14.00" fill="#000000">iff_merely_issurjection</text>
</a>
</g>
</g>
<!-- Core_equiv_merely_issurjection&#45;&gt;Core_iff_merely_issurjection -->
<g id="edge20" class="edge">
<title>Core_equiv_merely_issurjection&#45;&gt;Core_iff_merely_issurjection</title>
<path fill="none" stroke="#000000" d="M1081.965,-700.3052C1050.9485,-673.7197 1002.909,-632.543 972.4776,-606.4589"/>
<polygon fill="#000000" stroke="#000000" points="974.6363,-603.6995 964.766,-599.849 970.0808,-609.0143 974.6363,-603.6995"/>
</g>
<!-- Core_merely -->
<g id="node22" class="node">
<title>Core_merely</title>
<g id="a_node22"><a xlink:href="Core.html#merely" xlink:title="merely">
<ellipse fill="#f070d1" stroke="#000000" cx="1264" cy="-439.0496" rx="42.7926" ry="18"/>
<text text-anchor="middle" x="1264" y="-435.3496" font-family="Times,serif" font-size="14.00" fill="#000000">merely</text>
</a>
</g>
</g>
<!-- Core_iff_merely_issurjection&#45;&gt;Core_merely -->
<g id="edge21" class="edge">
<title>Core_iff_merely_issurjection&#45;&gt;Core_merely</title>
<path fill="none" stroke="#000000" d="M984.7029,-565.0588C1037.4793,-542.8506 1132.2182,-502.3793 1212,-465.0496 1217.0282,-462.6969 1222.296,-460.155 1227.4684,-457.6139"/>
<polygon fill="#000000" stroke="#000000" points="1229.201,-460.6614 1236.6034,-453.0815 1226.0898,-454.3908 1229.201,-460.6614"/>
</g>
<!-- Core_BuildIsSurjection -->
<g id="node17" class="node">
<title>Core_BuildIsSurjection</title>
<g id="a_node17"><a xlink:href="Core.html#BuildIsSurjection" xlink:title="BuildIsSurjection">
<ellipse fill="#f070d1" stroke="#000000" cx="1267" cy="-582.0496" rx="92.1006" ry="18"/>
<ellipse fill="none" stroke="#000000" cx="1267" cy="-582.0496" rx="96.0923" ry="22"/>
<ellipse fill="none" stroke="#000000" cx="1267" cy="-582.0496" rx="100.0841" ry="26"/>
<text text-anchor="middle" x="1267" y="-578.3496" font-family="Times,serif" font-size="14.00" fill="#000000">BuildIsSurjection</text>
</a>
</g>
</g>
<!-- Core_BuildIsSurjection&#45;&gt;Core_merely -->
<g id="edge22" class="edge">
<title>Core_BuildIsSurjection&#45;&gt;Core_merely</title>
<path fill="none" stroke="#000000" d="M1266.4498,-555.8212C1265.9258,-530.8458 1265.1392,-493.3511 1264.5995,-467.626"/>
<polygon fill="#000000" stroke="#000000" points="1268.0939,-467.3167 1264.3848,-457.3923 1261.0954,-467.4636 1268.0939,-467.3167"/>
</g>
<!-- Core_contr_inhab_prop -->
<g id="node18" class="node">
<title>Core_contr_inhab_prop</title>
<g id="a_node18"><a xlink:href="Core.html#contr_inhab_prop" xlink:title="contr_inhab_prop">
<ellipse fill="#f070d1" stroke="#000000" cx="1506" cy="-582.0496" rx="92.8882" ry="18"/>
<ellipse fill="none" stroke="#000000" cx="1506" cy="-582.0496" rx="96.8858" ry="22"/>
<ellipse fill="none" stroke="#000000" cx="1506" cy="-582.0496" rx="100.8835" ry="26"/>
<text text-anchor="middle" x="1506" y="-578.3496" font-family="Times,serif" font-size="14.00" fill="#000000">contr_inhab_prop</text>
</a>
</g>
</g>
<!-- Core_contr_inhab_prop&#45;&gt;Core_merely -->
<g id="edge23" class="edge">
<title>Core_contr_inhab_prop&#45;&gt;Core_merely</title>
<path fill="none" stroke="#000000" d="M1465.4946,-558.1146C1418.5133,-530.3529 1341.9016,-485.0823 1297.9226,-459.0948"/>
<polygon fill="#000000" stroke="#000000" points="1299.4456,-455.9293 1289.0557,-453.8552 1295.8844,-461.9558 1299.4456,-455.9293"/>
</g>
<!-- Core_contr_inhab_prop&#45;&gt;Core_inO_tr_istrunc -->
<g id="edge24" class="edge">
<title>Core_contr_inhab_prop&#45;&gt;Core_inO_tr_istrunc</title>
<path fill="none" stroke="#000000" d="M1491.1504,-556.1533C1476.5171,-530.6343 1454.2563,-491.8136 1439.4265,-465.9518"/>
<polygon fill="#000000" stroke="#000000" points="1442.3377,-463.9926 1434.3269,-457.0588 1436.2652,-467.4748 1442.3377,-463.9926"/>
</g>
<!-- Core_himage -->
<g id="node19" class="node">
<title>Core_himage</title>
<g id="a_node19"><a xlink:href="Core.html#himage" xlink:title="himage">
<ellipse fill="#f070d1" stroke="#000000" cx="630" cy="-439.0496" rx="44.7157" ry="18"/>
<ellipse fill="none" stroke="#000000" cx="630" cy="-439.0496" rx="48.7041" ry="22"/>
<ellipse fill="none" stroke="#000000" cx="630" cy="-439.0496" rx="52.6925" ry="26"/>
<text text-anchor="middle" x="630" y="-435.3496" font-family="Times,serif" font-size="14.00" fill="#000000">himage</text>
</a>
</g>
</g>
<!-- Core_himage&#45;&gt;Core_Tr -->
<g id="edge25" class="edge">
<title>Core_himage&#45;&gt;Core_Tr</title>
<path fill="none" stroke="#000000" d="M668.8927,-421.242C676.4525,-418.2098 684.3929,-415.3139 692,-413.0496 889.3364,-354.3096 1135.2437,-322.5249 1227.1208,-312.0244"/>
<polygon fill="#000000" stroke="#000000" points="1227.7523,-315.4755 1237.2971,-310.8769 1226.9679,-308.5196 1227.7523,-315.4755"/>
</g>
<!-- Core_hor -->
<g id="node20" class="node">
<title>Core_hor</title>
<g id="a_node20"><a xlink:href="Core.html#hor" xlink:title="hor">
<ellipse fill="#f070d1" stroke="#000000" cx="1114" cy="-582.0496" rx="27" ry="18"/>
<ellipse fill="none" stroke="#000000" cx="1114" cy="-582.0496" rx="31" ry="22"/>
<ellipse fill="none" stroke="#000000" cx="1114" cy="-582.0496" rx="35" ry="26"/>
<text text-anchor="middle" x="1114" y="-578.3496" font-family="Times,serif" font-size="14.00" fill="#000000">hor</text>
</a>
</g>
</g>
<!-- Core_hor&#45;&gt;Core_merely -->
<g id="edge26" class="edge">
<title>Core_hor&#45;&gt;Core_merely</title>
<path fill="none" stroke="#000000" d="M1135.8113,-561.2561C1163.26,-535.0884 1210.2914,-490.2518 1239.1155,-462.7728"/>
<polygon fill="#000000" stroke="#000000" points="1241.5568,-465.2811 1246.3797,-455.8476 1236.7267,-460.2145 1241.5568,-465.2811"/>
</g>
<!-- Core_hexists -->
<g id="node21" class="node">
<title>Core_hexists</title>
<g id="a_node21"><a xlink:href="Core.html#hexists" xlink:title="hexists">
<ellipse fill="#f070d1" stroke="#000000" cx="757" cy="-582.0496" rx="44.3627" ry="18"/>
<ellipse fill="none" stroke="#000000" cx="757" cy="-582.0496" rx="48.3778" ry="22"/>
<ellipse fill="none" stroke="#000000" cx="757" cy="-582.0496" rx="52.3929" ry="26"/>
<text text-anchor="middle" x="757" y="-578.3496" font-family="Times,serif" font-size="14.00" fill="#000000">hexists</text>
</a>
</g>
</g>
<!-- Core_hexists&#45;&gt;Core_merely -->
<g id="edge27" class="edge">
<title>Core_hexists&#45;&gt;Core_merely</title>
<path fill="none" stroke="#000000" d="M795.6602,-564.367C802.993,-561.3584 810.6663,-558.4388 818,-556.0496 988.881,-500.3779 1042.8881,-525.884 1212,-465.0496 1217.5976,-463.0359 1223.374,-460.5714 1228.9501,-457.9703"/>
<polygon fill="#000000" stroke="#000000" points="1230.6239,-461.0481 1238.0784,-453.5194 1227.556,-454.7562 1230.6239,-461.0481"/>
</g>
<!-- Core_merely&#45;&gt;Core_Tr -->
<g id="edge28" class="edge">
<title>Core_merely&#45;&gt;Core_Tr</title>
<path fill="none" stroke="#000000" d="M1264,-420.8346C1264,-398.9351 1264,-361.9356 1264,-336.3158"/>
<polygon fill="#000000" stroke="#000000" points="1267.5001,-336.1098 1264,-326.1098 1260.5001,-336.1099 1267.5001,-336.1098"/>
</g>
<!-- Core_istruncmap_mapinO_tr -->
<g id="node23" class="node">
<title>Core_istruncmap_mapinO_tr</title>
<g id="a_node23"><a xlink:href="Core.html#istruncmap_mapinO_tr" xlink:title="istruncmap_mapinO_tr">
<ellipse fill="#f070d1" stroke="#000000" cx="413" cy="-439.0496" rx="118.0927" ry="18"/>
<ellipse fill="none" stroke="#000000" cx="413" cy="-439.0496" rx="122.086" ry="22"/>
<ellipse fill="none" stroke="#000000" cx="413" cy="-439.0496" rx="126.0794" ry="26"/>
<text text-anchor="middle" x="413" y="-435.3496" font-family="Times,serif" font-size="14.00" fill="#000000">istruncmap_mapinO_tr</text>
</a>
</g>
</g>
<!-- Core_istruncmap_mapinO_tr&#45;&gt;Core_Tr -->
<g id="edge29" class="edge">
<title>Core_istruncmap_mapinO_tr&#45;&gt;Core_Tr</title>
<path fill="none" stroke="#000000" d="M505.9187,-421.2949C521.6159,-418.4385 537.7594,-415.5892 553,-413.0496 810.6188,-370.1204 1122.2763,-327.1977 1227.3858,-312.9694"/>
<polygon fill="#000000" stroke="#000000" points="1228.0327,-316.4138 1237.4739,-311.6061 1227.0952,-309.4769 1228.0327,-316.4138"/>
</g>
<!-- Core_mapinO_tr_istruncmap -->
<g id="node24" class="node">
<title>Core_mapinO_tr_istruncmap</title>
<g id="a_node24"><a xlink:href="Core.html#mapinO_tr_istruncmap" xlink:title="mapinO_tr_istruncmap">
<ellipse fill="#f070d1" stroke="#000000" cx="142" cy="-439.0496" rx="118.0927" ry="18"/>
<ellipse fill="none" stroke="#000000" cx="142" cy="-439.0496" rx="122.086" ry="22"/>
<ellipse fill="none" stroke="#000000" cx="142" cy="-439.0496" rx="126.0794" ry="26"/>
<text text-anchor="middle" x="142" y="-435.3496" font-family="Times,serif" font-size="14.00" fill="#000000">mapinO_tr_istruncmap</text>
</a>
</g>
</g>
<!-- Core_mapinO_tr_istruncmap&#45;&gt;Core_Tr -->
<g id="edge30" class="edge">
<title>Core_mapinO_tr_istruncmap&#45;&gt;Core_Tr</title>
<path fill="none" stroke="#000000" d="M232.168,-420.7264C247.428,-417.9371 263.1389,-415.2575 278,-413.0496 646.0977,-358.3602 1095.6046,-321.1623 1226.5593,-310.9119"/>
<polygon fill="#000000" stroke="#000000" points="1227.1414,-314.3773 1236.8395,-310.1115 1226.5979,-307.3984 1227.1414,-314.3773"/>
</g>
<!-- Core_istrunc_inO_tr&#45;&gt;Core_Tr -->
<g id="edge31" class="edge">
<title>Core_istrunc_inO_tr&#45;&gt;Core_Tr</title>
<path fill="none" stroke="#000000" d="M1559.2556,-423.5077C1492.5998,-397.4423 1359.4894,-345.3902 1297.3686,-321.0982"/>
<polygon fill="#000000" stroke="#000000" points="1298.2654,-317.6908 1287.6775,-317.3085 1295.7161,-324.2101 1298.2654,-317.6908"/>
</g>
<!-- Core_inO_tr_istrunc&#45;&gt;Core_Tr -->
<g id="edge32" class="edge">
<title>Core_inO_tr_istrunc&#45;&gt;Core_Tr</title>
<path fill="none" stroke="#000000" d="M1402.7532,-421.6538C1373.4128,-397.6313 1320.5739,-354.3695 1289.2527,-328.7252"/>
<polygon fill="#000000" stroke="#000000" points="1291.3582,-325.9256 1281.4035,-322.2987 1286.9237,-331.3418 1291.3582,-325.9256"/>
</g>
<!-- Core_is1functor_Tr -->
<g id="node27" class="node">
<title>Core_is1functor_Tr</title>
<g id="a_node27"><a xlink:href="Core.html#is1functor_Tr" xlink:title="is1functor_Tr">
<ellipse fill="#f070d1" stroke="#000000" cx="911" cy="-1013.0496" rx="74.1778" ry="18"/>
<ellipse fill="none" stroke="#000000" cx="911" cy="-1013.0496" rx="78.1824" ry="22"/>
<ellipse fill="none" stroke="#000000" cx="911" cy="-1013.0496" rx="82.187" ry="26"/>
<text text-anchor="middle" x="911" y="-1009.3496" font-family="Times,serif" font-size="14.00" fill="#000000">is1functor_Tr</text>
</a>
</g>
</g>
<!-- Core_Trunc_functor_idmap -->
<g id="node30" class="node">
<title>Core_Trunc_functor_idmap</title>
<g id="a_node30"><a xlink:href="Core.html#Trunc_functor_idmap" xlink:title="Trunc_functor_idmap">
<ellipse fill="#f070d1" stroke="#000000" cx="658" cy="-869.0496" rx="111.2805" ry="18"/>
<text text-anchor="middle" x="658" y="-865.3496" font-family="Times,serif" font-size="14.00" fill="#000000">Trunc_functor_idmap</text>
</a>
</g>
</g>
<!-- Core_is1functor_Tr&#45;&gt;Core_Trunc_functor_idmap -->
<g id="edge33" class="edge">
<title>Core_is1functor_Tr&#45;&gt;Core_Trunc_functor_idmap</title>
<path fill="none" stroke="#000000" d="M870.9114,-990.2323C823.3954,-963.1877 744.7217,-918.409 697.4756,-891.5179"/>
<polygon fill="#000000" stroke="#000000" points="699.1713,-888.4559 688.7491,-886.551 695.7087,-894.5395 699.1713,-888.4559"/>
</g>
<!-- Core_Trunc_functor_compose -->
<g id="node31" class="node">
<title>Core_Trunc_functor_compose</title>
<g id="a_node31"><a xlink:href="Core.html#Trunc_functor_compose" xlink:title="Trunc_functor_compose">
<ellipse fill="#f070d1" stroke="#000000" cx="911" cy="-869.0496" rx="123.4781" ry="18"/>
<text text-anchor="middle" x="911" y="-865.3496" font-family="Times,serif" font-size="14.00" fill="#000000">Trunc_functor_compose</text>
</a>
</g>
</g>
<!-- Core_is1functor_Tr&#45;&gt;Core_Trunc_functor_compose -->
<g id="edge34" class="edge">
<title>Core_is1functor_Tr&#45;&gt;Core_Trunc_functor_compose</title>
<path fill="none" stroke="#000000" d="M911,-986.9722C911,-961.7256 911,-923.5501 911,-897.5225"/>
<polygon fill="#000000" stroke="#000000" points="914.5001,-897.1847 911,-887.1847 907.5001,-897.1847 914.5001,-897.1847"/>
</g>
<!-- Core_is0functor_Tr -->
<g id="node34" class="node">
<title>Core_is0functor_Tr</title>
<g id="a_node34"><a xlink:href="Core.html#is0functor_Tr" xlink:title="is0functor_Tr">
<ellipse fill="#f070d1" stroke="#000000" cx="1127" cy="-869.0496" rx="74.187" ry="18"/>
<text text-anchor="middle" x="1127" y="-865.3496" font-family="Times,serif" font-size="14.00" fill="#000000">is0functor_Tr</text>
</a>
</g>
</g>
<!-- Core_is1functor_Tr&#45;&gt;Core_is0functor_Tr -->
<g id="edge35" class="edge">
<title>Core_is1functor_Tr&#45;&gt;Core_is0functor_Tr</title>
<path fill="none" stroke="#000000" d="M946.668,-989.2709C987.3025,-962.1812 1053.2196,-918.2365 1093.1021,-891.6482"/>
<polygon fill="#000000" stroke="#000000" points="1095.0614,-894.5485 1101.4404,-886.0893 1091.1784,-888.7241 1095.0614,-894.5485"/>
</g>
<!-- Core_equiv_Trunc_prod_cmp -->
<g id="node28" class="node">
<title>Core_equiv_Trunc_prod_cmp</title>
<g id="a_node28"><a xlink:href="Core.html#equiv_Trunc_prod_cmp" xlink:title="equiv_Trunc_prod_cmp">
<ellipse fill="#f070d1" stroke="#000000" cx="2074" cy="-439.0496" rx="120.4642" ry="18"/>
<ellipse fill="none" stroke="#000000" cx="2074" cy="-439.0496" rx="124.4716" ry="22"/>
<ellipse fill="none" stroke="#000000" cx="2074" cy="-439.0496" rx="128.4791" ry="26"/>
<text text-anchor="middle" x="2074" y="-435.3496" font-family="Times,serif" font-size="14.00" fill="#000000">equiv_Trunc_prod_cmp</text>
</a>
</g>
</g>
<!-- Core_equiv_Trunc_prod_cmp&#45;&gt;Core_Tr -->
<g id="edge36" class="edge">
<title>Core_equiv_Trunc_prod_cmp&#45;&gt;Core_Tr</title>
<path fill="none" stroke="#000000" d="M1981.2199,-421.0155C1966.4429,-418.2662 1951.3133,-415.5236 1937,-413.0496 1694.7512,-371.1765 1402.1264,-328.0671 1300.7018,-313.3437"/>
<polygon fill="#000000" stroke="#000000" points="1301.0615,-309.8593 1290.6628,-311.8885 1300.0573,-316.7869 1301.0615,-309.8593"/>
</g>
<!-- Core_isequiv_Trunc_functor -->
<g id="node29" class="node">
<title>Core_isequiv_Trunc_functor</title>
<g id="a_node29"><a xlink:href="Core.html#isequiv_Trunc_functor" xlink:title="isequiv_Trunc_functor">
<ellipse fill="#f070d1" stroke="#000000" cx="405" cy="-869.0496" rx="115.8675" ry="18"/>
<ellipse fill="none" stroke="#000000" cx="405" cy="-869.0496" rx="119.8736" ry="22"/>
<ellipse fill="none" stroke="#000000" cx="405" cy="-869.0496" rx="123.8798" ry="26"/>
<text text-anchor="middle" x="405" y="-865.3496" font-family="Times,serif" font-size="14.00" fill="#000000">isequiv_Trunc_functor</text>
</a>
</g>
</g>
<!-- Core_isequiv_Trunc_functor&#45;&gt;Core_Trunc_functor -->
<g id="edge37" class="edge">
<title>Core_isequiv_Trunc_functor&#45;&gt;Core_Trunc_functor</title>
<path fill="none" stroke="#000000" d="M431.6382,-843.484C458.9128,-817.3078 501.0292,-776.8873 528.0506,-750.954"/>
<polygon fill="#000000" stroke="#000000" points="530.7912,-753.1749 535.5826,-743.7253 525.9442,-748.1245 530.7912,-753.1749"/>
</g>
<!-- Core_Trunc_functor_idmap&#45;&gt;Core_Trunc_functor -->
<g id="edge38" class="edge">
<title>Core_Trunc_functor_idmap&#45;&gt;Core_Trunc_functor</title>
<path fill="none" stroke="#000000" d="M644.8283,-850.9385C626.6989,-826.0106 593.9401,-780.9672 573.1151,-752.3329"/>
<polygon fill="#000000" stroke="#000000" points="575.7771,-750.0423 567.0647,-744.0136 570.1159,-754.1596 575.7771,-750.0423"/>
</g>
<!-- Core_Trunc_functor_compose&#45;&gt;Core_Trunc_functor -->
<g id="edge39" class="edge">
<title>Core_Trunc_functor_compose&#45;&gt;Core_Trunc_functor</title>
<path fill="none" stroke="#000000" d="M868.6455,-852.084C801.9658,-825.3748 672.8817,-773.6688 602.5503,-745.4969"/>
<polygon fill="#000000" stroke="#000000" points="603.6133,-742.1524 593.0288,-741.683 601.0103,-748.6504 603.6133,-742.1524"/>
</g>
<!-- Core_Trunc_functor_equiv -->
<g id="node32" class="node">
<title>Core_Trunc_functor_equiv</title>
<g id="a_node32"><a xlink:href="Core.html#Trunc_functor_equiv" xlink:title="Trunc_functor_equiv">
<ellipse fill="#f070d1" stroke="#000000" cx="1812" cy="-439.0496" rx="107.7885" ry="18"/>
<ellipse fill="none" stroke="#000000" cx="1812" cy="-439.0496" rx="111.7847" ry="22"/>
<ellipse fill="none" stroke="#000000" cx="1812" cy="-439.0496" rx="115.781" ry="26"/>
<text text-anchor="middle" x="1812" y="-435.3496" font-family="Times,serif" font-size="14.00" fill="#000000">Trunc_functor_equiv</text>
</a>
</g>
</g>
<!-- Core_Trunc_functor_equiv&#45;&gt;Core_Tr -->
<g id="edge40" class="edge">
<title>Core_Trunc_functor_equiv&#45;&gt;Core_Tr</title>
<path fill="none" stroke="#000000" d="M1732.6089,-420.071C1611.7523,-391.1801 1386.4941,-337.3319 1299.5286,-316.5427"/>
<polygon fill="#000000" stroke="#000000" points="1300.1646,-313.0962 1289.6249,-314.1752 1298.5371,-319.9044 1300.1646,-313.0962"/>
</g>
<!-- Core_Trunc_functor_isequiv -->
<g id="node33" class="node">
<title>Core_Trunc_functor_isequiv</title>
<g id="a_node33"><a xlink:href="Core.html#Trunc_functor_isequiv" xlink:title="Trunc_functor_isequiv">
<ellipse fill="#f070d1" stroke="#000000" cx="140" cy="-869.0496" rx="115.8675" ry="18"/>
<ellipse fill="none" stroke="#000000" cx="140" cy="-869.0496" rx="119.8736" ry="22"/>
<ellipse fill="none" stroke="#000000" cx="140" cy="-869.0496" rx="123.8798" ry="26"/>
<text text-anchor="middle" x="140" y="-865.3496" font-family="Times,serif" font-size="14.00" fill="#000000">Trunc_functor_isequiv</text>
</a>
</g>
</g>
<!-- Core_Trunc_functor_isequiv&#45;&gt;Core_Trunc_functor -->
<g id="edge41" class="edge">
<title>Core_Trunc_functor_isequiv&#45;&gt;Core_Trunc_functor</title>
<path fill="none" stroke="#000000" d="M204.6875,-846.7058C286.3044,-818.5145 425.1308,-770.5623 500.8637,-744.4034"/>
<polygon fill="#000000" stroke="#000000" points="502.3626,-747.5886 510.672,-741.0155 500.0772,-740.9722 502.3626,-747.5886"/>
</g>
<!-- Core_is0functor_Tr&#45;&gt;Core_Trunc_functor -->
<g id="edge42" class="edge">
<title>Core_is0functor_Tr&#45;&gt;Core_Trunc_functor</title>
<path fill="none" stroke="#000000" d="M1082.2861,-854.5C1069.6426,-850.5795 1055.8311,-846.4784 1043,-843.0496 865.6041,-795.6444 817.5509,-798.8707 640,-752.0496 630.0562,-749.4273 619.5303,-746.4313 609.3815,-743.4279"/>
<polygon fill="#000000" stroke="#000000" points="610.3818,-740.074 599.7981,-740.558 608.3737,-746.7797 610.3818,-740.074"/>
</g>
<!-- Core_Trunc_functor&#45;&gt;Core_Tr -->
<g id="edge43" class="edge">
<title>Core_Trunc_functor&#45;&gt;Core_Tr</title>
<path fill="none" stroke="#000000" d="M551.952,-707.8801C545.5946,-647.7413 528.88,-456.5105 568,-413.0496 612.7193,-363.368 1089.4173,-321.9094 1227.014,-310.9095"/>
<polygon fill="#000000" stroke="#000000" points="1227.3721,-314.3922 1237.064,-310.1122 1226.8185,-307.4141 1227.3721,-314.3922"/>
</g>
<!-- Core_untrunc_istrunc -->
<g id="node36" class="node">
<title>Core_untrunc_istrunc</title>
<g id="a_node36"><a xlink:href="Core.html#untrunc_istrunc" xlink:title="untrunc_istrunc">
<ellipse fill="#f070d1" stroke="#000000" cx="743" cy="-726.0496" rx="85.6029" ry="18"/>
<ellipse fill="none" stroke="#000000" cx="743" cy="-726.0496" rx="89.5941" ry="22"/>
<ellipse fill="none" stroke="#000000" cx="743" cy="-726.0496" rx="93.5852" ry="26"/>
<text text-anchor="middle" x="743" y="-722.3496" font-family="Times,serif" font-size="14.00" fill="#000000">untrunc_istrunc</text>
</a>
</g>
</g>
<!-- Core_isequiv_tr -->
<g id="node38" class="node">
<title>Core_isequiv_tr</title>
<g id="a_node38"><a xlink:href="Core.html#isequiv_tr" xlink:title="isequiv_tr">
<ellipse fill="#f070d1" stroke="#000000" cx="630" cy="-582.0496" rx="57.3905" ry="18"/>
<text text-anchor="middle" x="630" y="-578.3496" font-family="Times,serif" font-size="14.00" fill="#000000">isequiv_tr</text>
</a>
</g>
</g>
<!-- Core_untrunc_istrunc&#45;&gt;Core_isequiv_tr -->
<g id="edge44" class="edge">
<title>Core_untrunc_istrunc&#45;&gt;Core_isequiv_tr</title>
<path fill="none" stroke="#000000" d="M723.058,-700.6367C702.5904,-674.5541 670.9058,-634.1773 650.3063,-607.9266"/>
<polygon fill="#000000" stroke="#000000" points="652.9628,-605.6424 644.0359,-599.9361 647.4559,-609.9637 652.9628,-605.6424"/>
</g>
<!-- Core_equiv_tr&#45;&gt;Core_isequiv_tr -->
<g id="edge45" class="edge">
<title>Core_equiv_tr&#45;&gt;Core_isequiv_tr</title>
<path fill="none" stroke="#000000" d="M875.7092,-711.1814C826.3617,-685.2469 724.4956,-631.7115 668.6714,-602.3732"/>
<polygon fill="#000000" stroke="#000000" points="670.2736,-599.2613 659.7933,-597.7074 667.017,-605.4577 670.2736,-599.2613"/>
</g>
<!-- Core_trunc_iff_isequiv_truncation -->
<g id="node39" class="node">
<title>Core_trunc_iff_isequiv_truncation</title>
<g id="a_node39"><a xlink:href="Core.html#trunc_iff_isequiv_truncation" xlink:title="trunc_iff_isequiv_truncation">
<ellipse fill="#f070d1" stroke="#000000" cx="843" cy="-439.0496" rx="142.1749" ry="18"/>
<text text-anchor="middle" x="843" y="-435.3496" font-family="Times,serif" font-size="14.00" fill="#000000">trunc_iff_isequiv_truncation</text>
</a>
</g>
</g>
<!-- Core_isequiv_tr&#45;&gt;Core_trunc_iff_isequiv_truncation -->
<g id="edge46" class="edge">
<title>Core_isequiv_tr&#45;&gt;Core_trunc_iff_isequiv_truncation</title>
<path fill="none" stroke="#000000" d="M654.4338,-565.6456C692.157,-540.3198 764.7354,-491.5934 808.0171,-462.5357"/>
<polygon fill="#000000" stroke="#000000" points="810.1729,-465.3041 816.5245,-456.8242 806.2711,-459.4923 810.1729,-465.3041"/>
</g>
<!-- Core_trunc_iff_isequiv_truncation&#45;&gt;Core_Tr -->
<g id="edge47" class="edge">
<title>Core_trunc_iff_isequiv_truncation&#45;&gt;Core_Tr</title>
<path fill="none" stroke="#000000" d="M896.7476,-422.3253C984.6091,-394.9859 1156.5264,-341.4915 1229.7041,-318.7212"/>
<polygon fill="#000000" stroke="#000000" points="1230.847,-322.0312 1239.3555,-315.718 1228.7671,-315.3473 1230.847,-322.0312"/>
</g>
<!-- Core_Tr&#45;&gt;Core_Trunc_Trunc_ind -->
<g id="edge48" class="edge">
<title>Core_Tr&#45;&gt;Core_Trunc_Trunc_ind</title>
<path fill="none" stroke="#000000" d="M1283.2627,-295.0244C1304.5911,-280.5467 1339.935,-256.3896 1370,-235.0496 1381.8928,-226.6081 1394.8534,-217.1831 1406.179,-208.8714"/>
<polygon fill="#000000" stroke="#000000" points="1408.4954,-211.5124 1414.4762,-202.7671 1404.3471,-205.8739 1408.4954,-211.5124"/>
</g>
<!-- Core_Tr&#45;&gt;Core_Trunc_istrunc_truncation -->
<g id="edge49" class="edge">
<title>Core_Tr&#45;&gt;Core_Trunc_istrunc_truncation</title>
<path fill="none" stroke="#000000" d="M1264,-290.048C1264,-270.0454 1264,-237.4922 1264,-214.1327"/>
<polygon fill="#000000" stroke="#000000" points="1267.5001,-214.1249 1264,-204.1249 1260.5001,-214.125 1267.5001,-214.1249"/>
</g>
<!-- Core_Trunc_rec&#45;&gt;Core_Trunc_Trunc_ind -->
<g id="edge50" class="edge">
<title>Core_Trunc_rec&#45;&gt;Core_Trunc_Trunc_ind</title>
<path fill="none" stroke="#000000" d="M2100.1646,-708.933C2150.7817,-659.1761 2284.9824,-511.8457 2211,-413.0496 2123.8588,-296.6811 1668.9112,-219.7504 1500.1133,-194.8349"/>
<polygon fill="#000000" stroke="#000000" points="1500.5339,-191.3592 1490.1323,-193.3731 1499.5195,-198.2853 1500.5339,-191.3592"/>
</g>
</g>
</svg>
