<?xml version="1.0" encoding="UTF-8" standalone="no"?>
<!DOCTYPE svg PUBLIC "-//W3C//DTD SVG 1.1//EN"
 "http://www.w3.org/Graphics/SVG/1.1/DTD/svg11.dtd">
<!-- Generated by graphviz version 2.40.1 (20161225.0304)
 -->
<!-- Title: HoTT_PropResizing_ImpredicativeTruncation Pages: 1 -->
<svg width="1444pt" height="726pt"
 viewBox="0.00 0.00 1444.00 726.00" xmlns="http://www.w3.org/2000/svg" xmlns:xlink="http://www.w3.org/1999/xlink">
<g id="graph0" class="graph" transform="scale(1 1) rotate(0) translate(4 722)">
<title>HoTT_PropResizing_ImpredicativeTruncation</title>
<polygon fill="#ffffff" stroke="transparent" points="-4,4 -4,-722 1440,-722 1440,4 -4,4"/>
<g id="clust1" class="cluster">
<title>cluster_ImpredicativeTruncation</title>
<polygon fill="#ffffc3" stroke="#000000" points="8,-17.7833 8,-700.2167 1428,-700.2167 1428,-17.7833 8,-17.7833"/>
<text text-anchor="middle" x="106" y="-685.0167" font-family="Times,serif" font-size="14.00" fill="#000000">ImpredicativeTruncation</text>
</g>
<!-- ImpredicativeTruncation_functor_merely_weak_sameuniv_weak -->
<g id="node1" class="node">
<title>ImpredicativeTruncation_functor_merely_weak_sameuniv_weak</title>
<g id="a_node1"><a xlink:href="ImpredicativeTruncation.html#functor_merely_weak_sameuniv_weak" xlink:title="functor_merely_weak_sameuniv_weak">
<ellipse fill="#f070d1" stroke="#000000" cx="1222" cy="-573.7833" rx="189.5753" ry="18"/>
<ellipse fill="none" stroke="#000000" cx="1222" cy="-573.7833" rx="193.5709" ry="22"/>
<ellipse fill="none" stroke="#000000" cx="1222" cy="-573.7833" rx="197.5666" ry="26"/>
<text text-anchor="middle" x="1222" y="-570.0833" font-family="Times,serif" font-size="14.00" fill="#000000">functor_merely_weak_sameuniv_weak</text>
</a>
</g>
</g>
<!-- ImpredicativeTruncation_functor_merely_weak -->
<g id="node3" class="node">
<title>ImpredicativeTruncation_functor_merely_weak</title>
<g id="a_node3"><a xlink:href="ImpredicativeTruncation.html#functor_merely_weak" xlink:title="functor_merely_weak">
<ellipse fill="#f070d1" stroke="#000000" cx="808" cy="-395.7833" rx="111.2805" ry="18"/>
<text text-anchor="middle" x="808" y="-392.0833" font-family="Times,serif" font-size="14.00" fill="#000000">functor_merely_weak</text>
</a>
</g>
</g>
<!-- ImpredicativeTruncation_functor_merely_weak_sameuniv_weak&#45;&gt;ImpredicativeTruncation_functor_merely_weak -->
<g id="edge1" class="edge">
<title>ImpredicativeTruncation_functor_merely_weak_sameuniv_weak&#45;&gt;ImpredicativeTruncation_functor_merely_weak</title>
<path fill="none" stroke="#000000" d="M1163.9992,-548.8457C1081.9434,-513.5657 933.4371,-449.7152 856.7505,-416.7437"/>
<polygon fill="#000000" stroke="#000000" points="857.8852,-413.4218 847.3159,-412.6872 855.1203,-419.8526 857.8852,-413.4218"/>
</g>
<!-- ImpredicativeTruncation_functor_merely_weak_sameargs_weak -->
<g id="node2" class="node">
<title>ImpredicativeTruncation_functor_merely_weak_sameargs_weak</title>
<g id="a_node2"><a xlink:href="ImpredicativeTruncation.html#functor_merely_weak_sameargs_weak" xlink:title="functor_merely_weak_sameargs_weak">
<ellipse fill="#f070d1" stroke="#000000" cx="808" cy="-573.7833" rx="190.3689" ry="18"/>
<ellipse fill="none" stroke="#000000" cx="808" cy="-573.7833" rx="194.3676" ry="22"/>
<ellipse fill="none" stroke="#000000" cx="808" cy="-573.7833" rx="198.3662" ry="26"/>
<text text-anchor="middle" x="808" y="-570.0833" font-family="Times,serif" font-size="14.00" fill="#000000">functor_merely_weak_sameargs_weak</text>
</a>
</g>
</g>
<!-- ImpredicativeTruncation_functor_merely_weak_sameargs_weak&#45;&gt;ImpredicativeTruncation_functor_merely_weak -->
<g id="edge2" class="edge">
<title>ImpredicativeTruncation_functor_merely_weak_sameargs_weak&#45;&gt;ImpredicativeTruncation_functor_merely_weak</title>
<path fill="none" stroke="#000000" d="M808,-547.5188C808,-514.5336 808,-458.1565 808,-424.1929"/>
<polygon fill="#000000" stroke="#000000" points="811.5001,-424.0114 808,-414.0114 804.5001,-424.0115 811.5001,-424.0114"/>
</g>
<!-- ImpredicativeTruncation_typeofid -->
<g id="node7" class="node">
<title>ImpredicativeTruncation_typeofid</title>
<g id="a_node7"><a xlink:href="ImpredicativeTruncation.html#typeofid" xlink:title="typeofid">
<ellipse fill="#f070d1" stroke="#000000" cx="616" cy="-395.7833" rx="48.9926" ry="18"/>
<text text-anchor="middle" x="616" y="-392.0833" font-family="Times,serif" font-size="14.00" fill="#000000">typeofid</text>
</a>
</g>
</g>
<!-- ImpredicativeTruncation_functor_merely_weak_sameargs_weak&#45;&gt;ImpredicativeTruncation_typeofid -->
<g id="edge3" class="edge">
<title>ImpredicativeTruncation_functor_merely_weak_sameargs_weak&#45;&gt;ImpredicativeTruncation_typeofid</title>
<path fill="none" stroke="#000000" d="M780.0816,-547.9006C742.9516,-513.478 677.8275,-453.1025 641.7997,-419.7018"/>
<polygon fill="#000000" stroke="#000000" points="643.8623,-416.8412 634.1494,-412.6092 639.1032,-421.9746 643.8623,-416.8412"/>
</g>
<!-- ImpredicativeTruncation_merely_rec_naive -->
<g id="node4" class="node">
<title>ImpredicativeTruncation_merely_rec_naive</title>
<g id="a_node4"><a xlink:href="ImpredicativeTruncation.html#merely_rec_naive" xlink:title="merely_rec_naive">
<ellipse fill="#f070d1" stroke="#000000" cx="846" cy="-235.7833" rx="92.8835" ry="18"/>
<text text-anchor="middle" x="846" y="-232.0833" font-family="Times,serif" font-size="14.00" fill="#000000">merely_rec_naive</text>
</a>
</g>
</g>
<!-- ImpredicativeTruncation_functor_merely_weak&#45;&gt;ImpredicativeTruncation_merely_rec_naive -->
<g id="edge4" class="edge">
<title>ImpredicativeTruncation_functor_merely_weak&#45;&gt;ImpredicativeTruncation_merely_rec_naive</title>
<path fill="none" stroke="#000000" d="M812.2852,-377.7403C818.8707,-350.0119 831.533,-296.6968 839.3267,-263.8814"/>
<polygon fill="#000000" stroke="#000000" points="842.7666,-264.544 841.6721,-254.0058 835.9561,-262.9264 842.7666,-264.544"/>
</g>
<!-- ImpredicativeTruncation_ishprop_merely -->
<g id="node10" class="node">
<title>ImpredicativeTruncation_ishprop_merely</title>
<g id="a_node10"><a xlink:href="ImpredicativeTruncation.html#ishprop_merely" xlink:title="ishprop_merely">
<ellipse fill="#f070d1" stroke="#000000" cx="578" cy="-235.7833" rx="83.3857" ry="18"/>
<text text-anchor="middle" x="578" y="-232.0833" font-family="Times,serif" font-size="14.00" fill="#000000">ishprop_merely</text>
</a>
</g>
</g>
<!-- ImpredicativeTruncation_functor_merely_weak&#45;&gt;ImpredicativeTruncation_ishprop_merely -->
<g id="edge5" class="edge">
<title>ImpredicativeTruncation_functor_merely_weak&#45;&gt;ImpredicativeTruncation_ishprop_merely</title>
<path fill="none" stroke="#000000" d="M782.5072,-378.0492C740.7535,-349.0031 657.8026,-291.2981 611.4028,-259.02"/>
<polygon fill="#000000" stroke="#000000" points="613.1157,-255.948 602.9079,-253.1105 609.1182,-261.6943 613.1157,-255.948"/>
</g>
<!-- ImpredicativeTruncation_trm -->
<g id="node11" class="node">
<title>ImpredicativeTruncation_trm</title>
<g id="a_node11"><a xlink:href="ImpredicativeTruncation.html#trm" xlink:title="trm">
<ellipse fill="#f070d1" stroke="#000000" cx="707" cy="-235.7833" rx="27.8951" ry="18"/>
<text text-anchor="middle" x="707" y="-232.0833" font-family="Times,serif" font-size="14.00" fill="#000000">trm</text>
</a>
</g>
</g>
<!-- ImpredicativeTruncation_functor_merely_weak&#45;&gt;ImpredicativeTruncation_trm -->
<g id="edge6" class="edge">
<title>ImpredicativeTruncation_functor_merely_weak&#45;&gt;ImpredicativeTruncation_trm</title>
<path fill="none" stroke="#000000" d="M796.6103,-377.7403C778.5966,-349.2036 743.4757,-293.5666 722.9591,-261.065"/>
<polygon fill="#000000" stroke="#000000" points="725.8836,-259.141 717.5859,-252.5531 719.9643,-262.8776 725.8836,-259.141"/>
</g>
<!-- ImpredicativeTruncation_merely -->
<g id="node12" class="node">
<title>ImpredicativeTruncation_merely</title>
<g id="a_node12"><a xlink:href="ImpredicativeTruncation.html#merely" xlink:title="merely">
<ellipse fill="#f070d1" stroke="#000000" cx="642" cy="-75.7833" rx="42.7926" ry="18"/>
<text text-anchor="middle" x="642" y="-72.0833" font-family="Times,serif" font-size="14.00" fill="#000000">merely</text>
</a>
</g>
</g>
<!-- ImpredicativeTruncation_merely_rec_naive&#45;&gt;ImpredicativeTruncation_merely -->
<g id="edge7" class="edge">
<title>ImpredicativeTruncation_merely_rec_naive&#45;&gt;ImpredicativeTruncation_merely</title>
<path fill="none" stroke="#000000" d="M823.389,-218.0492C785.927,-188.6672 711.0746,-129.9595 670.212,-97.9104"/>
<polygon fill="#000000" stroke="#000000" points="672.3024,-95.1018 662.2738,-91.6843 667.9824,-100.6098 672.3024,-95.1018"/>
</g>
<!-- ImpredicativeTruncation_functor_merely_sameuniv -->
<g id="node5" class="node">
<title>ImpredicativeTruncation_functor_merely_sameuniv</title>
<g id="a_node5"><a xlink:href="ImpredicativeTruncation.html#functor_merely_sameuniv" xlink:title="functor_merely_sameuniv">
<ellipse fill="#f070d1" stroke="#000000" cx="155" cy="-573.7833" rx="131.0892" ry="18"/>
<ellipse fill="none" stroke="#000000" cx="155" cy="-573.7833" rx="135.0831" ry="22"/>
<ellipse fill="none" stroke="#000000" cx="155" cy="-573.7833" rx="139.077" ry="26"/>
<text text-anchor="middle" x="155" y="-570.0833" font-family="Times,serif" font-size="14.00" fill="#000000">functor_merely_sameuniv</text>
</a>
</g>
</g>
<!-- ImpredicativeTruncation_functor_merely -->
<g id="node8" class="node">
<title>ImpredicativeTruncation_functor_merely</title>
<g id="a_node8"><a xlink:href="ImpredicativeTruncation.html#functor_merely" xlink:title="functor_merely">
<ellipse fill="#f070d1" stroke="#000000" cx="452" cy="-395.7833" rx="81.7856" ry="18"/>
<text text-anchor="middle" x="452" y="-392.0833" font-family="Times,serif" font-size="14.00" fill="#000000">functor_merely</text>
</a>
</g>
</g>
<!-- ImpredicativeTruncation_functor_merely_sameuniv&#45;&gt;ImpredicativeTruncation_functor_merely -->
<g id="edge8" class="edge">
<title>ImpredicativeTruncation_functor_merely_sameuniv&#45;&gt;ImpredicativeTruncation_functor_merely</title>
<path fill="none" stroke="#000000" d="M196.6093,-548.8457C254.6804,-514.0422 359.1438,-451.4345 414.77,-418.0962"/>
<polygon fill="#000000" stroke="#000000" points="416.8115,-420.9532 423.5897,-412.8103 413.2129,-414.949 416.8115,-420.9532"/>
</g>
<!-- ImpredicativeTruncation_functor_merely_sameargs -->
<g id="node6" class="node">
<title>ImpredicativeTruncation_functor_merely_sameargs</title>
<g id="a_node6"><a xlink:href="ImpredicativeTruncation.html#functor_merely_sameargs" xlink:title="functor_merely_sameargs">
<ellipse fill="#f070d1" stroke="#000000" cx="452" cy="-573.7833" rx="131.8801" ry="18"/>
<ellipse fill="none" stroke="#000000" cx="452" cy="-573.7833" rx="135.8784" ry="22"/>
<ellipse fill="none" stroke="#000000" cx="452" cy="-573.7833" rx="139.8766" ry="26"/>
<text text-anchor="middle" x="452" y="-570.0833" font-family="Times,serif" font-size="14.00" fill="#000000">functor_merely_sameargs</text>
</a>
</g>
</g>
<!-- ImpredicativeTruncation_functor_merely_sameargs&#45;&gt;ImpredicativeTruncation_typeofid -->
<g id="edge9" class="edge">
<title>ImpredicativeTruncation_functor_merely_sameargs&#45;&gt;ImpredicativeTruncation_typeofid</title>
<path fill="none" stroke="#000000" d="M475.847,-547.9006C507.2644,-513.8012 562.1467,-454.2339 593.0895,-420.6496"/>
<polygon fill="#000000" stroke="#000000" points="595.8435,-422.8258 600.0454,-413.0998 590.6954,-418.0827 595.8435,-422.8258"/>
</g>
<!-- ImpredicativeTruncation_functor_merely_sameargs&#45;&gt;ImpredicativeTruncation_functor_merely -->
<g id="edge10" class="edge">
<title>ImpredicativeTruncation_functor_merely_sameargs&#45;&gt;ImpredicativeTruncation_functor_merely</title>
<path fill="none" stroke="#000000" d="M452,-547.5188C452,-514.5336 452,-458.1565 452,-424.1929"/>
<polygon fill="#000000" stroke="#000000" points="455.5001,-424.0114 452,-414.0114 448.5001,-424.0115 455.5001,-424.0114"/>
</g>
<!-- ImpredicativeTruncation_merely_rec -->
<g id="node9" class="node">
<title>ImpredicativeTruncation_merely_rec</title>
<g id="a_node9"><a xlink:href="ImpredicativeTruncation.html#merely_rec" xlink:title="merely_rec">
<ellipse fill="#f070d1" stroke="#000000" cx="414" cy="-235.7833" rx="63.0888" ry="18"/>
<text text-anchor="middle" x="414" y="-232.0833" font-family="Times,serif" font-size="14.00" fill="#000000">merely_rec</text>
</a>
</g>
</g>
<!-- ImpredicativeTruncation_functor_merely&#45;&gt;ImpredicativeTruncation_merely_rec -->
<g id="edge11" class="edge">
<title>ImpredicativeTruncation_functor_merely&#45;&gt;ImpredicativeTruncation_merely_rec</title>
<path fill="none" stroke="#000000" d="M447.7148,-377.7403C441.1293,-350.0119 428.467,-296.6968 420.6733,-263.8814"/>
<polygon fill="#000000" stroke="#000000" points="424.0439,-262.9264 418.3279,-254.0058 417.2334,-264.544 424.0439,-262.9264"/>
</g>
<!-- ImpredicativeTruncation_functor_merely&#45;&gt;ImpredicativeTruncation_ishprop_merely -->
<g id="edge12" class="edge">
<title>ImpredicativeTruncation_functor_merely&#45;&gt;ImpredicativeTruncation_ishprop_merely</title>
<path fill="none" stroke="#000000" d="M466.2089,-377.7403C488.4231,-349.5318 531.4907,-294.8427 557.2004,-262.1954"/>
<polygon fill="#000000" stroke="#000000" points="560.2125,-264.0277 563.6497,-254.0058 554.7131,-259.6968 560.2125,-264.0277"/>
</g>
<!-- ImpredicativeTruncation_functor_merely&#45;&gt;ImpredicativeTruncation_trm -->
<g id="edge13" class="edge">
<title>ImpredicativeTruncation_functor_merely&#45;&gt;ImpredicativeTruncation_trm</title>
<path fill="none" stroke="#000000" d="M479.2895,-378.6605C527.7921,-348.2274 628.5617,-284.9995 678.1567,-253.8811"/>
<polygon fill="#000000" stroke="#000000" points="680.187,-256.7391 686.7975,-248.4594 676.4666,-250.8096 680.187,-256.7391"/>
</g>
<!-- ImpredicativeTruncation_merely_rec&#45;&gt;ImpredicativeTruncation_merely -->
<g id="edge14" class="edge">
<title>ImpredicativeTruncation_merely_rec&#45;&gt;ImpredicativeTruncation_merely</title>
<path fill="none" stroke="#000000" d="M437.9691,-218.9629C479.6441,-189.7173 565.3915,-129.5436 611.3357,-97.3021"/>
<polygon fill="#000000" stroke="#000000" points="613.5254,-100.0413 619.7005,-91.4321 609.5044,-94.3114 613.5254,-100.0413"/>
</g>
<!-- ImpredicativeTruncation_ishprop_merely&#45;&gt;ImpredicativeTruncation_merely -->
<g id="edge15" class="edge">
<title>ImpredicativeTruncation_ishprop_merely&#45;&gt;ImpredicativeTruncation_merely</title>
<path fill="none" stroke="#000000" d="M585.2172,-217.7403C596.3566,-189.8919 617.8194,-136.2347 630.9307,-103.4564"/>
<polygon fill="#000000" stroke="#000000" points="634.2467,-104.5905 634.711,-94.0058 627.7473,-101.9907 634.2467,-104.5905"/>
</g>
<!-- ImpredicativeTruncation_trm&#45;&gt;ImpredicativeTruncation_merely -->
<g id="edge16" class="edge">
<title>ImpredicativeTruncation_trm&#45;&gt;ImpredicativeTruncation_merely</title>
<path fill="none" stroke="#000000" d="M699.9201,-218.3559C688.6486,-190.6107 666.5319,-136.1695 653.128,-103.1753"/>
<polygon fill="#000000" stroke="#000000" points="656.276,-101.625 649.2696,-93.6776 649.7908,-104.2596 656.276,-101.625"/>
</g>
</g>
</svg>
