<?xml version="1.0" encoding="UTF-8" standalone="no"?>
<!DOCTYPE svg PUBLIC "-//W3C//DTD SVG 1.1//EN"
 "http://www.w3.org/Graphics/SVG/1.1/DTD/svg11.dtd">
<!-- Generated by graphviz version 2.40.1 (20161225.0304)
 -->
<!-- Title: HoTT_Types_IWType Pages: 1 -->
<svg width="1902pt" height="955pt"
 viewBox="0.00 0.00 1902.00 955.00" xmlns="http://www.w3.org/2000/svg" xmlns:xlink="http://www.w3.org/1999/xlink">
<g id="graph0" class="graph" transform="scale(1 1) rotate(0) translate(4 951)">
<title>HoTT_Types_IWType</title>
<polygon fill="#ffffff" stroke="transparent" points="-4,4 -4,-951 1898,-951 1898,4 -4,4"/>
<g id="clust1" class="cluster">
<title>cluster_IWType</title>
<polygon fill="#ffffc3" stroke="#000000" points="8.7991,-8 8.7991,-939 1885.2009,-939 1885.2009,-8 8.7991,-8"/>
<text text-anchor="middle" x="45.2991" y="-923.8" font-family="Times,serif" font-size="14.00" fill="#000000">IWType</text>
</g>
<!-- IWType_decidablepaths_iwtype -->
<g id="node1" class="node">
<title>IWType_decidablepaths_iwtype</title>
<g id="a_node1"><a xlink:href="IWType.html#decidablepaths_iwtype" xlink:title="decidablepaths_iwtype">
<ellipse fill="#f070d1" stroke="#000000" cx="1716.2869" cy="-346" rx="117.7704" ry="18"/>
<ellipse fill="none" stroke="#000000" cx="1716.2869" cy="-346" rx="121.7748" ry="22"/>
<ellipse fill="none" stroke="#000000" cx="1716.2869" cy="-346" rx="125.7793" ry="26"/>
<text text-anchor="middle" x="1716.2869" y="-342.3" font-family="Times,serif" font-size="14.00" fill="#000000">decidablepaths_iwtype</text>
</a>
</g>
</g>
<!-- IWType_decide_eq -->
<g id="node2" class="node">
<title>IWType_decide_eq</title>
<g id="a_node2"><a xlink:href="IWType.html#decide_eq" xlink:title="decide_eq">
<ellipse fill="#f070d1" stroke="#000000" cx="1716.2869" cy="-258" rx="57.6901" ry="18"/>
<text text-anchor="middle" x="1716.2869" y="-254.3" font-family="Times,serif" font-size="14.00" fill="#000000">decide_eq</text>
</a>
</g>
</g>
<!-- IWType_decidablepaths_iwtype&#45;&gt;IWType_decide_eq -->
<g id="edge1" class="edge">
<title>IWType_decidablepaths_iwtype&#45;&gt;IWType_decide_eq</title>
<path fill="none" stroke="#000000" d="M1716.2869,-319.5971C1716.2869,-309.0414 1716.2869,-296.868 1716.2869,-286.1448"/>
<polygon fill="#000000" stroke="#000000" points="1719.787,-286.0188 1716.2869,-276.0188 1712.787,-286.0188 1719.787,-286.0188"/>
</g>
<!-- IWType_inj_right_pair_on -->
<g id="node3" class="node">
<title>IWType_inj_right_pair_on</title>
<g id="a_node3"><a xlink:href="IWType.html#inj_right_pair_on" xlink:title="inj_right_pair_on">
<ellipse fill="#f070d1" stroke="#000000" cx="1716.2869" cy="-178" rx="89.8845" ry="18"/>
<text text-anchor="middle" x="1716.2869" y="-174.3" font-family="Times,serif" font-size="14.00" fill="#000000">inj_right_pair_on</text>
</a>
</g>
</g>
<!-- IWType_decide_eq&#45;&gt;IWType_inj_right_pair_on -->
<g id="edge2" class="edge">
<title>IWType_decide_eq&#45;&gt;IWType_inj_right_pair_on</title>
<path fill="none" stroke="#000000" d="M1716.2869,-239.8468C1716.2869,-229.9251 1716.2869,-217.4167 1716.2869,-206.2492"/>
<polygon fill="#000000" stroke="#000000" points="1719.787,-206.0814 1716.2869,-196.0814 1712.787,-206.0814 1719.787,-206.0814"/>
</g>
<!-- IWType_iw_sup -->
<g id="node38" class="node">
<title>IWType_iw_sup</title>
<g id="a_node38"><a xlink:href="IWType.html#iw_sup" xlink:title="iw_sup">
<ellipse fill="#7faaff" stroke="#000000" cx="1476.2869" cy="-178" rx="42.7926" ry="18"/>
<text text-anchor="middle" x="1476.2869" y="-174.3" font-family="Times,serif" font-size="14.00" fill="#000000">iw_sup</text>
</a>
</g>
</g>
<!-- IWType_decide_eq&#45;&gt;IWType_iw_sup -->
<g id="edge3" class="edge">
<title>IWType_decide_eq&#45;&gt;IWType_iw_sup</title>
<path fill="none" stroke="#000000" d="M1676.6558,-244.7896C1633.4576,-230.3903 1564.5434,-207.4188 1519.8543,-192.5225"/>
<polygon fill="#000000" stroke="#000000" points="1520.7458,-189.1304 1510.1521,-189.2884 1518.5321,-195.7711 1520.7458,-189.1304"/>
</g>
<!-- IWType_IW -->
<g id="node39" class="node">
<title>IWType_IW</title>
<g id="a_node39"><a xlink:href="IWType.html#IW" xlink:title="IW">
<ellipse fill="#e2cdfa" stroke="#000000" cx="1266.2869" cy="-178" rx="27" ry="18"/>
<text text-anchor="middle" x="1266.2869" y="-174.3" font-family="Times,serif" font-size="14.00" fill="#000000">IW</text>
</a>
</g>
</g>
<!-- IWType_decide_eq&#45;&gt;IWType_IW -->
<g id="edge4" class="edge">
<title>IWType_decide_eq&#45;&gt;IWType_IW</title>
<path fill="none" stroke="#000000" d="M1672.8899,-246.0933C1654.5825,-241.3187 1632.9856,-236.01 1613.2869,-232 1500.951,-209.1323 1366.4332,-190.7247 1302.923,-182.5623"/>
<polygon fill="#000000" stroke="#000000" points="1303.3549,-179.0891 1292.9924,-181.2953 1302.469,-186.0329 1303.3549,-179.0891"/>
</g>
<!-- IWType_istrunc_iwtype -->
<g id="node4" class="node">
<title>IWType_istrunc_iwtype</title>
<g id="a_node4"><a xlink:href="IWType.html#istrunc_iwtype" xlink:title="istrunc_iwtype">
<ellipse fill="#f070d1" stroke="#000000" cx="1079.2869" cy="-882" rx="79.891" ry="18"/>
<ellipse fill="none" stroke="#000000" cx="1079.2869" cy="-882" rx="83.8884" ry="22"/>
<ellipse fill="none" stroke="#000000" cx="1079.2869" cy="-882" rx="87.8859" ry="26"/>
<text text-anchor="middle" x="1079.2869" y="-878.3" font-family="Times,serif" font-size="14.00" fill="#000000">istrunc_iwtype</text>
</a>
</g>
</g>
<!-- IWType_ishprop_iwtype -->
<g id="node5" class="node">
<title>IWType_ishprop_iwtype</title>
<g id="a_node5"><a xlink:href="IWType.html#ishprop_iwtype" xlink:title="ishprop_iwtype">
<ellipse fill="#f070d1" stroke="#000000" cx="1101.2869" cy="-658" rx="81.7856" ry="18"/>
<text text-anchor="middle" x="1101.2869" y="-654.3" font-family="Times,serif" font-size="14.00" fill="#000000">ishprop_iwtype</text>
</a>
</g>
</g>
<!-- IWType_istrunc_iwtype&#45;&gt;IWType_ishprop_iwtype -->
<g id="edge5" class="edge">
<title>IWType_istrunc_iwtype&#45;&gt;IWType_ishprop_iwtype</title>
<path fill="none" stroke="#000000" d="M1081.8536,-855.866C1086.0212,-813.4324 1094.225,-729.9025 1098.5187,-686.185"/>
<polygon fill="#000000" stroke="#000000" points="1102.0023,-686.5227 1099.4966,-676.2285 1095.0358,-685.8385 1102.0023,-686.5227"/>
</g>
<!-- IWType_equiv_path_hfiber_index -->
<g id="node6" class="node">
<title>IWType_equiv_path_hfiber_index</title>
<g id="a_node6"><a xlink:href="IWType.html#equiv_path_hfiber_index" xlink:title="equiv_path_hfiber_index">
<ellipse fill="#f070d1" stroke="#000000" cx="1263.2869" cy="-802" rx="124.5782" ry="18"/>
<text text-anchor="middle" x="1263.2869" y="-798.3" font-family="Times,serif" font-size="14.00" fill="#000000">equiv_path_hfiber_index</text>
</a>
</g>
</g>
<!-- IWType_istrunc_iwtype&#45;&gt;IWType_equiv_path_hfiber_index -->
<g id="edge6" class="edge">
<title>IWType_istrunc_iwtype&#45;&gt;IWType_equiv_path_hfiber_index</title>
<path fill="none" stroke="#000000" d="M1129.0799,-860.3508C1155.621,-848.8112 1188.1455,-834.6702 1214.5286,-823.1993"/>
<polygon fill="#000000" stroke="#000000" points="1216.1732,-826.3008 1223.9483,-819.1037 1213.382,-819.8813 1216.1732,-826.3008"/>
</g>
<!-- IWType_equiv_path_iwtype -->
<g id="node16" class="node">
<title>IWType_equiv_path_iwtype</title>
<g id="a_node16"><a xlink:href="IWType.html#equiv_path_iwtype" xlink:title="equiv_path_iwtype">
<ellipse fill="#f070d1" stroke="#000000" cx="915.2869" cy="-802" rx="98.2828" ry="18"/>
<text text-anchor="middle" x="915.2869" y="-798.3" font-family="Times,serif" font-size="14.00" fill="#000000">equiv_path_iwtype</text>
</a>
</g>
</g>
<!-- IWType_istrunc_iwtype&#45;&gt;IWType_equiv_path_iwtype -->
<g id="edge7" class="edge">
<title>IWType_istrunc_iwtype&#45;&gt;IWType_equiv_path_iwtype</title>
<path fill="none" stroke="#000000" d="M1033.6037,-859.7155C1010.3628,-848.3785 982.2443,-834.6621 959.2512,-823.446"/>
<polygon fill="#000000" stroke="#000000" points="960.5877,-820.2038 950.0655,-818.9652 957.5187,-826.4952 960.5877,-820.2038"/>
</g>
<!-- IWType_IW_rect -->
<g id="node37" class="node">
<title>IWType_IW_rect</title>
<g id="a_node37"><a xlink:href="IWType.html#IW_rect" xlink:title="IW_rect">
<ellipse fill="#f070d1" stroke="#000000" cx="1004.2869" cy="-258" rx="48.1917" ry="18"/>
<text text-anchor="middle" x="1004.2869" y="-254.3" font-family="Times,serif" font-size="14.00" fill="#000000">IW_rect</text>
</a>
</g>
</g>
<!-- IWType_ishprop_iwtype&#45;&gt;IWType_IW_rect -->
<g id="edge8" class="edge">
<title>IWType_ishprop_iwtype&#45;&gt;IWType_IW_rect</title>
<path fill="none" stroke="#000000" d="M1108.7095,-639.7059C1118.9834,-612.6881 1136.2869,-560.3101 1136.2869,-514 1136.2869,-514 1136.2869,-514 1136.2869,-434 1136.2869,-382.7731 1148.7248,-361.9238 1119.2869,-320 1109.9071,-306.6418 1074.7258,-288.7072 1045.7189,-275.5641"/>
<polygon fill="#000000" stroke="#000000" points="1047.117,-272.3553 1036.5586,-271.477 1044.2648,-278.7479 1047.117,-272.3553"/>
</g>
<!-- IWType_hfiber_to_path_iw_to_hfiber -->
<g id="node7" class="node">
<title>IWType_hfiber_to_path_iw_to_hfiber</title>
<g id="a_node7"><a xlink:href="IWType.html#hfiber_to_path_iw_to_hfiber" xlink:title="hfiber_to_path_iw_to_hfiber">
<ellipse fill="#f070d1" stroke="#000000" cx="1603.2869" cy="-730" rx="141.075" ry="18"/>
<text text-anchor="middle" x="1603.2869" y="-726.3" font-family="Times,serif" font-size="14.00" fill="#000000">hfiber_to_path_iw_to_hfiber</text>
</a>
</g>
</g>
<!-- IWType_equiv_path_hfiber_index&#45;&gt;IWType_hfiber_to_path_iw_to_hfiber -->
<g id="edge9" class="edge">
<title>IWType_equiv_path_hfiber_index&#45;&gt;IWType_hfiber_to_path_iw_to_hfiber</title>
<path fill="none" stroke="#000000" d="M1333.7351,-787.0816C1387.9567,-775.5993 1463.04,-759.6993 1520.1953,-747.5959"/>
<polygon fill="#000000" stroke="#000000" points="1521.2301,-750.9544 1530.288,-745.4586 1519.7798,-744.1063 1521.2301,-750.9544"/>
</g>
<!-- IWType_path_iw_to_hfiber_to_path_iw -->
<g id="node8" class="node">
<title>IWType_path_iw_to_hfiber_to_path_iw</title>
<g id="a_node8"><a xlink:href="IWType.html#path_iw_to_hfiber_to_path_iw" xlink:title="path_iw_to_hfiber_to_path_iw">
<ellipse fill="#f070d1" stroke="#000000" cx="1263.2869" cy="-730" rx="149.4735" ry="18"/>
<text text-anchor="middle" x="1263.2869" y="-726.3" font-family="Times,serif" font-size="14.00" fill="#000000">path_iw_to_hfiber_to_path_iw</text>
</a>
</g>
</g>
<!-- IWType_equiv_path_hfiber_index&#45;&gt;IWType_path_iw_to_hfiber_to_path_iw -->
<g id="edge10" class="edge">
<title>IWType_equiv_path_hfiber_index&#45;&gt;IWType_path_iw_to_hfiber_to_path_iw</title>
<path fill="none" stroke="#000000" d="M1263.2869,-783.8314C1263.2869,-776.131 1263.2869,-766.9743 1263.2869,-758.4166"/>
<polygon fill="#000000" stroke="#000000" points="1266.787,-758.4132 1263.2869,-748.4133 1259.787,-758.4133 1266.787,-758.4132"/>
</g>
<!-- IWType_hfiber_to_path_iw -->
<g id="node9" class="node">
<title>IWType_hfiber_to_path_iw</title>
<g id="a_node9"><a xlink:href="IWType.html#hfiber_to_path_iw" xlink:title="hfiber_to_path_iw">
<ellipse fill="#f070d1" stroke="#000000" cx="1323.2869" cy="-658" rx="94.4839" ry="18"/>
<text text-anchor="middle" x="1323.2869" y="-654.3" font-family="Times,serif" font-size="14.00" fill="#000000">hfiber_to_path_iw</text>
</a>
</g>
</g>
<!-- IWType_hfiber_to_path_iw_to_hfiber&#45;&gt;IWType_hfiber_to_path_iw -->
<g id="edge11" class="edge">
<title>IWType_hfiber_to_path_iw_to_hfiber&#45;&gt;IWType_hfiber_to_path_iw</title>
<path fill="none" stroke="#000000" d="M1540.4494,-713.8418C1495.5352,-702.2924 1435.2121,-686.7808 1389.5418,-675.037"/>
<polygon fill="#000000" stroke="#000000" points="1390.2937,-671.6165 1379.7371,-672.5158 1388.5504,-678.396 1390.2937,-671.6165"/>
</g>
<!-- IWType_path_iw_to_hfiber -->
<g id="node10" class="node">
<title>IWType_path_iw_to_hfiber</title>
<g id="a_node10"><a xlink:href="IWType.html#path_iw_to_hfiber" xlink:title="path_iw_to_hfiber">
<ellipse fill="#f070d1" stroke="#000000" cx="1577.2869" cy="-658" rx="94.4839" ry="18"/>
<text text-anchor="middle" x="1577.2869" y="-654.3" font-family="Times,serif" font-size="14.00" fill="#000000">path_iw_to_hfiber</text>
</a>
</g>
</g>
<!-- IWType_hfiber_to_path_iw_to_hfiber&#45;&gt;IWType_path_iw_to_hfiber -->
<g id="edge12" class="edge">
<title>IWType_hfiber_to_path_iw_to_hfiber&#45;&gt;IWType_path_iw_to_hfiber</title>
<path fill="none" stroke="#000000" d="M1596.726,-711.8314C1593.8842,-703.9617 1590.4931,-694.5712 1587.345,-685.8533"/>
<polygon fill="#000000" stroke="#000000" points="1590.6246,-684.63 1583.9361,-676.4133 1584.0407,-687.0076 1590.6246,-684.63"/>
</g>
<!-- IWType_path_iw_to_hfiber_to_path_iw&#45;&gt;IWType_hfiber_to_path_iw -->
<g id="edge13" class="edge">
<title>IWType_path_iw_to_hfiber_to_path_iw&#45;&gt;IWType_hfiber_to_path_iw</title>
<path fill="none" stroke="#000000" d="M1278.4274,-711.8314C1285.5159,-703.3251 1294.0853,-693.0419 1301.8269,-683.752"/>
<polygon fill="#000000" stroke="#000000" points="1304.6459,-685.8363 1308.359,-675.9134 1299.2684,-681.355 1304.6459,-685.8363"/>
</g>
<!-- IWType_path_iw_to_hfiber_to_path_iw&#45;&gt;IWType_path_iw_to_hfiber -->
<g id="edge14" class="edge">
<title>IWType_path_iw_to_hfiber_to_path_iw&#45;&gt;IWType_path_iw_to_hfiber</title>
<path fill="none" stroke="#000000" d="M1332.9737,-714.0209C1384.7438,-702.15 1455.086,-686.0206 1506.9991,-674.1169"/>
<polygon fill="#000000" stroke="#000000" points="1507.832,-677.5169 1516.7968,-671.8703 1506.2675,-670.6939 1507.832,-677.5169"/>
</g>
<!-- IWType_hfiber_ind -->
<g id="node11" class="node">
<title>IWType_hfiber_ind</title>
<g id="a_node11"><a xlink:href="IWType.html#hfiber_ind" xlink:title="hfiber_ind">
<ellipse fill="#f070d1" stroke="#000000" cx="1546.2869" cy="-258" rx="57.6901" ry="18"/>
<text text-anchor="middle" x="1546.2869" y="-254.3" font-family="Times,serif" font-size="14.00" fill="#000000">hfiber_ind</text>
</a>
</g>
</g>
<!-- IWType_hfiber_to_path_iw&#45;&gt;IWType_hfiber_ind -->
<g id="edge15" class="edge">
<title>IWType_hfiber_to_path_iw&#45;&gt;IWType_hfiber_ind</title>
<path fill="none" stroke="#000000" d="M1322.6959,-639.9213C1322.6485,-606.4151 1327.6351,-534.5802 1368.2869,-496 1421.7858,-445.2273 1481.8983,-515.6646 1530.2869,-460 1572.6104,-411.3124 1562.5089,-328.726 1553.3721,-285.789"/>
<polygon fill="#000000" stroke="#000000" points="1556.782,-284.9993 1551.1616,-276.0181 1549.9545,-286.5439 1556.782,-284.9993"/>
</g>
<!-- IWType_iw_to_hfiber_index -->
<g id="node29" class="node">
<title>IWType_iw_to_hfiber_index</title>
<g id="a_node29"><a xlink:href="IWType.html#iw_to_hfiber_index" xlink:title="iw_to_hfiber_index">
<ellipse fill="#f070d1" stroke="#000000" cx="1290.2869" cy="-434" rx="98.5829" ry="18"/>
<text text-anchor="middle" x="1290.2869" y="-430.3" font-family="Times,serif" font-size="14.00" fill="#000000">iw_to_hfiber_index</text>
</a>
</g>
</g>
<!-- IWType_hfiber_to_path_iw&#45;&gt;IWType_iw_to_hfiber_index -->
<g id="edge16" class="edge">
<title>IWType_hfiber_to_path_iw&#45;&gt;IWType_iw_to_hfiber_index</title>
<path fill="none" stroke="#000000" d="M1320.5863,-639.6691C1314.8312,-600.6036 1301.3245,-508.9219 1294.4559,-462.2987"/>
<polygon fill="#000000" stroke="#000000" points="1297.8986,-461.6531 1292.9784,-452.27 1290.9734,-462.6734 1297.8986,-461.6531"/>
</g>
<!-- IWType_path_iw_to_hfiber_ind -->
<g id="node12" class="node">
<title>IWType_path_iw_to_hfiber_ind</title>
<g id="a_node12"><a xlink:href="IWType.html#path_iw_to_hfiber_ind" xlink:title="path_iw_to_hfiber_ind">
<ellipse fill="#f070d1" stroke="#000000" cx="1577.2869" cy="-586" rx="113.9803" ry="18"/>
<text text-anchor="middle" x="1577.2869" y="-582.3" font-family="Times,serif" font-size="14.00" fill="#000000">path_iw_to_hfiber_ind</text>
</a>
</g>
</g>
<!-- IWType_path_iw_to_hfiber&#45;&gt;IWType_path_iw_to_hfiber_ind -->
<g id="edge17" class="edge">
<title>IWType_path_iw_to_hfiber&#45;&gt;IWType_path_iw_to_hfiber_ind</title>
<path fill="none" stroke="#000000" d="M1577.2869,-639.8314C1577.2869,-632.131 1577.2869,-622.9743 1577.2869,-614.4166"/>
<polygon fill="#000000" stroke="#000000" points="1580.787,-614.4132 1577.2869,-604.4133 1573.787,-614.4133 1580.787,-614.4132"/>
</g>
<!-- IWType_hfiber_ind&#45;&gt;IWType_iw_sup -->
<g id="edge18" class="edge">
<title>IWType_hfiber_ind&#45;&gt;IWType_iw_sup</title>
<path fill="none" stroke="#000000" d="M1530.7516,-240.2454C1521.1037,-229.2192 1508.5623,-214.8863 1497.9465,-202.7539"/>
<polygon fill="#000000" stroke="#000000" points="1500.5174,-200.3769 1491.2983,-195.1559 1495.2493,-204.9864 1500.5174,-200.3769"/>
</g>
<!-- IWType_hfiber_ind&#45;&gt;IWType_IW -->
<g id="edge19" class="edge">
<title>IWType_hfiber_ind&#45;&gt;IWType_IW</title>
<path fill="none" stroke="#000000" d="M1506.9405,-244.7752C1494.0308,-240.5533 1479.5854,-235.9536 1466.2869,-232 1408.8851,-214.9348 1341.5455,-197.2244 1301.4787,-186.9274"/>
<polygon fill="#000000" stroke="#000000" points="1302.2156,-183.5032 1291.6599,-184.4122 1300.4785,-190.2843 1302.2156,-183.5032"/>
</g>
<!-- IWType_path_iw_to_hfiber_ind_ -->
<g id="node13" class="node">
<title>IWType_path_iw_to_hfiber_ind_</title>
<g id="a_node13"><a xlink:href="IWType.html#path_iw_to_hfiber_ind'" xlink:title="path_iw_to_hfiber_ind&#39;">
<ellipse fill="#f070d1" stroke="#000000" cx="1493.2869" cy="-514" rx="116.1796" ry="18"/>
<text text-anchor="middle" x="1493.2869" y="-510.3" font-family="Times,serif" font-size="14.00" fill="#000000">path_iw_to_hfiber_ind&#39;</text>
</a>
</g>
</g>
<!-- IWType_path_iw_to_hfiber_ind&#45;&gt;IWType_path_iw_to_hfiber_ind_ -->
<g id="edge20" class="edge">
<title>IWType_path_iw_to_hfiber_ind&#45;&gt;IWType_path_iw_to_hfiber_ind_</title>
<path fill="none" stroke="#000000" d="M1556.5228,-568.2022C1546.0227,-559.2021 1533.1195,-548.1423 1521.713,-538.3652"/>
<polygon fill="#000000" stroke="#000000" points="1523.9736,-535.6931 1514.1032,-531.8425 1519.418,-541.0079 1523.9736,-535.6931"/>
</g>
<!-- IWType_adjust_hfiber_idpath -->
<g id="node14" class="node">
<title>IWType_adjust_hfiber_idpath</title>
<g id="a_node14"><a xlink:href="IWType.html#adjust_hfiber_idpath" xlink:title="adjust_hfiber_idpath">
<ellipse fill="#f070d1" stroke="#000000" cx="1758.2869" cy="-514" rx="106.6812" ry="18"/>
<text text-anchor="middle" x="1758.2869" y="-510.3" font-family="Times,serif" font-size="14.00" fill="#000000">adjust_hfiber_idpath</text>
</a>
</g>
</g>
<!-- IWType_path_iw_to_hfiber_ind&#45;&gt;IWType_adjust_hfiber_idpath -->
<g id="edge21" class="edge">
<title>IWType_path_iw_to_hfiber_ind&#45;&gt;IWType_adjust_hfiber_idpath</title>
<path fill="none" stroke="#000000" d="M1619.7233,-569.1192C1645.801,-558.7458 1679.3792,-545.3887 1706.9495,-534.4215"/>
<polygon fill="#000000" stroke="#000000" points="1708.4306,-537.5991 1716.4288,-530.6507 1705.8432,-531.0949 1708.4306,-537.5991"/>
</g>
<!-- IWType_adjust_hfiber -->
<g id="node15" class="node">
<title>IWType_adjust_hfiber</title>
<g id="a_node15"><a xlink:href="IWType.html#adjust_hfiber" xlink:title="adjust_hfiber">
<ellipse fill="#f070d1" stroke="#000000" cx="1797.2869" cy="-434" rx="72.2875" ry="18"/>
<text text-anchor="middle" x="1797.2869" y="-430.3" font-family="Times,serif" font-size="14.00" fill="#000000">adjust_hfiber</text>
</a>
</g>
</g>
<!-- IWType_path_iw_to_hfiber_ind_&#45;&gt;IWType_adjust_hfiber -->
<g id="edge22" class="edge">
<title>IWType_path_iw_to_hfiber_ind_&#45;&gt;IWType_adjust_hfiber</title>
<path fill="none" stroke="#000000" d="M1554.1641,-498.5155C1595.8911,-487.8421 1652.4888,-473.247 1702.2869,-460 1714.0351,-456.8748 1726.5847,-453.4802 1738.5847,-450.2069"/>
<polygon fill="#000000" stroke="#000000" points="1739.7828,-453.5079 1748.5057,-447.4944 1737.9366,-446.7557 1739.7828,-453.5079"/>
</g>
<!-- IWType_path_iw_to_hfiber_ind_&#45;&gt;IWType_iw_to_hfiber_index -->
<g id="edge23" class="edge">
<title>IWType_path_iw_to_hfiber_ind_&#45;&gt;IWType_iw_to_hfiber_index</title>
<path fill="none" stroke="#000000" d="M1450.7314,-497.2294C1418.9865,-484.7191 1375.4694,-467.5695 1341.7646,-454.2868"/>
<polygon fill="#000000" stroke="#000000" points="1342.6778,-450.8848 1332.0909,-450.4745 1340.1113,-457.3973 1342.6778,-450.8848"/>
</g>
<!-- IWType_path_iw_to_hfiber_ind_&#45;&gt;IWType_iw_sup -->
<g id="edge24" class="edge">
<title>IWType_path_iw_to_hfiber_ind_&#45;&gt;IWType_iw_sup</title>
<path fill="none" stroke="#000000" d="M1524.9872,-496.6508C1567.521,-473.908 1645.8744,-433.8753 1716.2869,-408 1774.5726,-386.5811 1813.4553,-421.242 1851.2869,-372 1865.367,-353.6731 1858.7528,-341.872 1851.2869,-320 1835.3197,-273.2228 1825.5916,-257.5611 1783.2869,-232 1761.716,-218.9666 1608.9818,-196.3082 1527.3924,-184.9336"/>
<polygon fill="#000000" stroke="#000000" points="1527.716,-181.445 1517.3299,-183.5376 1526.7541,-188.3786 1527.716,-181.445"/>
</g>
<!-- IWType_adjust_hfiber_idpath&#45;&gt;IWType_adjust_hfiber -->
<g id="edge25" class="edge">
<title>IWType_adjust_hfiber_idpath&#45;&gt;IWType_adjust_hfiber</title>
<path fill="none" stroke="#000000" d="M1767.1366,-495.8468C1772.123,-485.6183 1778.4496,-472.6405 1784.0186,-461.217"/>
<polygon fill="#000000" stroke="#000000" points="1787.2362,-462.6039 1788.4722,-452.0814 1780.944,-459.5364 1787.2362,-462.6039"/>
</g>
<!-- IWType_IWPath_ind_beta_iwpath_sup -->
<g id="node17" class="node">
<title>IWType_IWPath_ind_beta_iwpath_sup</title>
<g id="a_node17"><a xlink:href="IWType.html#IWPath_ind_beta_iwpath_sup" xlink:title="IWPath_ind_beta_iwpath_sup">
<ellipse fill="#f070d1" stroke="#000000" cx="896.2869" cy="-586" rx="148.3739" ry="18"/>
<text text-anchor="middle" x="896.2869" y="-582.3" font-family="Times,serif" font-size="14.00" fill="#000000">IWPath_ind_beta_iwpath_sup</text>
</a>
</g>
</g>
<!-- IWType_equiv_path_iwtype&#45;&gt;IWType_IWPath_ind_beta_iwpath_sup -->
<g id="edge26" class="edge">
<title>IWType_equiv_path_iwtype&#45;&gt;IWType_IWPath_ind_beta_iwpath_sup</title>
<path fill="none" stroke="#000000" d="M913.6996,-783.9555C910.3886,-746.3144 902.7246,-659.1867 898.7608,-614.1246"/>
<polygon fill="#000000" stroke="#000000" points="902.2458,-613.7999 897.883,-604.1451 895.2728,-614.4133 902.2458,-613.7999"/>
</g>
<!-- IWType_IWPath_ind -->
<g id="node18" class="node">
<title>IWType_IWPath_ind</title>
<g id="a_node18"><a xlink:href="IWType.html#IWPath_ind" xlink:title="IWPath_ind">
<ellipse fill="#f070d1" stroke="#000000" cx="892.2869" cy="-514" rx="64.9885" ry="18"/>
<text text-anchor="middle" x="892.2869" y="-510.3" font-family="Times,serif" font-size="14.00" fill="#000000">IWPath_ind</text>
</a>
</g>
</g>
<!-- IWType_IWPath_ind_beta_iwpath_sup&#45;&gt;IWType_IWPath_ind -->
<g id="edge27" class="edge">
<title>IWType_IWPath_ind_beta_iwpath_sup&#45;&gt;IWType_IWPath_ind</title>
<path fill="none" stroke="#000000" d="M895.2775,-567.8314C894.8497,-560.131 894.341,-550.9743 893.8656,-542.4166"/>
<polygon fill="#000000" stroke="#000000" points="897.3592,-542.2037 893.3098,-532.4133 890.37,-542.592 897.3592,-542.2037"/>
</g>
<!-- IWType_IWPath_ind_refl -->
<g id="node19" class="node">
<title>IWType_IWPath_ind_refl</title>
<g id="a_node19"><a xlink:href="IWType.html#IWPath_ind_refl" xlink:title="IWPath_ind_refl">
<ellipse fill="#f070d1" stroke="#000000" cx="886.2869" cy="-346" rx="85.5853" ry="18"/>
<text text-anchor="middle" x="886.2869" y="-342.3" font-family="Times,serif" font-size="14.00" fill="#000000">IWPath_ind_refl</text>
</a>
</g>
</g>
<!-- IWType_IWPath_ind&#45;&gt;IWType_IWPath_ind_refl -->
<g id="edge28" class="edge">
<title>IWType_IWPath_ind&#45;&gt;IWType_IWPath_ind_refl</title>
<path fill="none" stroke="#000000" d="M891.6333,-495.7012C890.5892,-466.4641 888.5367,-408.9945 887.3008,-374.3892"/>
<polygon fill="#000000" stroke="#000000" points="890.7853,-373.8906 886.9305,-364.0219 883.7898,-374.1405 890.7853,-373.8906"/>
</g>
<!-- IWType_iwpath_sup -->
<g id="node21" class="node">
<title>IWType_iwpath_sup</title>
<g id="a_node21"><a xlink:href="IWType.html#iwpath_sup" xlink:title="iwpath_sup">
<ellipse fill="#f070d1" stroke="#000000" cx="861.2869" cy="-258" rx="63.8893" ry="18"/>
<text text-anchor="middle" x="861.2869" y="-254.3" font-family="Times,serif" font-size="14.00" fill="#000000">iwpath_sup</text>
</a>
</g>
</g>
<!-- IWType_IWPath_ind_refl&#45;&gt;IWType_iwpath_sup -->
<g id="edge29" class="edge">
<title>IWType_IWPath_ind_refl&#45;&gt;IWType_iwpath_sup</title>
<path fill="none" stroke="#000000" d="M881.1069,-327.7663C877.6878,-315.7312 873.1405,-299.7249 869.2641,-286.0797"/>
<polygon fill="#000000" stroke="#000000" points="872.5599,-284.8732 866.4603,-276.2103 865.8263,-286.7862 872.5599,-284.8732"/>
</g>
<!-- IWType_IWPath_ind_refl&#45;&gt;IWType_IW_rect -->
<g id="edge30" class="edge">
<title>IWType_IWPath_ind_refl&#45;&gt;IWType_IW_rect</title>
<path fill="none" stroke="#000000" d="M909.5999,-328.614C928.1712,-314.7642 954.2987,-295.2793 974.405,-280.2848"/>
<polygon fill="#000000" stroke="#000000" points="976.6899,-282.947 982.6138,-274.163 972.5051,-277.3355 976.6899,-282.947"/>
</g>
<!-- IWType_iwpath_sup_refl -->
<g id="node20" class="node">
<title>IWType_iwpath_sup_refl</title>
<g id="a_node20"><a xlink:href="IWType.html#iwpath_sup_refl" xlink:title="iwpath_sup_refl">
<ellipse fill="#f070d1" stroke="#000000" cx="401.2869" cy="-346" rx="85.2729" ry="18"/>
<ellipse fill="none" stroke="#000000" cx="401.2869" cy="-346" rx="89.279" ry="22"/>
<ellipse fill="none" stroke="#000000" cx="401.2869" cy="-346" rx="93.2851" ry="26"/>
<text text-anchor="middle" x="401.2869" y="-342.3" font-family="Times,serif" font-size="14.00" fill="#000000">iwpath_sup_refl</text>
</a>
</g>
</g>
<!-- IWType_iwpath_sup_refl&#45;&gt;IWType_iwpath_sup -->
<g id="edge31" class="edge">
<title>IWType_iwpath_sup_refl&#45;&gt;IWType_iwpath_sup</title>
<path fill="none" stroke="#000000" d="M475.5922,-330.2632C492.2581,-326.812 509.8657,-323.227 526.2869,-320 620.4089,-301.5038 729.7202,-281.5605 797.2033,-269.4264"/>
<polygon fill="#000000" stroke="#000000" points="798.0338,-272.8333 807.2576,-267.6207 796.7964,-265.9436 798.0338,-272.8333"/>
</g>
<!-- IWType_iwpath_sup&#45;&gt;IWType_iw_sup -->
<g id="edge32" class="edge">
<title>IWType_iwpath_sup&#45;&gt;IWType_iw_sup</title>
<path fill="none" stroke="#000000" d="M901.998,-243.938C916.1815,-239.5093 932.2975,-234.9968 947.2869,-232 1102.7964,-200.9094 1144.5253,-212.1592 1302.2869,-196 1343.2187,-191.8074 1389.5611,-187.0109 1424.1225,-183.4241"/>
<polygon fill="#000000" stroke="#000000" points="1424.8662,-186.8658 1434.4512,-182.3517 1424.1432,-179.9032 1424.8662,-186.8658"/>
</g>
<!-- IWType_iwpath_sup&#45;&gt;IWType_IW -->
<g id="edge33" class="edge">
<title>IWType_iwpath_sup&#45;&gt;IWType_IW</title>
<path fill="none" stroke="#000000" d="M902.9929,-244.238C916.9712,-239.9351 932.7093,-235.4231 947.2869,-232 1048.3939,-208.2583 1169.8591,-190.6423 1229.5313,-182.6885"/>
<polygon fill="#000000" stroke="#000000" points="1230.1373,-186.1389 1239.5936,-181.361 1229.2217,-179.1991 1230.1373,-186.1389"/>
</g>
<!-- IWType_equiv_wtype_iwtype -->
<g id="node22" class="node">
<title>IWType_equiv_wtype_iwtype</title>
<g id="a_node22"><a xlink:href="IWType.html#equiv_wtype_iwtype" xlink:title="equiv_wtype_iwtype">
<ellipse fill="#f070d1" stroke="#000000" cx="648.2869" cy="-346" rx="105.0965" ry="18"/>
<ellipse fill="none" stroke="#000000" cx="648.2869" cy="-346" rx="109.0891" ry="22"/>
<ellipse fill="none" stroke="#000000" cx="648.2869" cy="-346" rx="113.0817" ry="26"/>
<text text-anchor="middle" x="648.2869" y="-342.3" font-family="Times,serif" font-size="14.00" fill="#000000">equiv_wtype_iwtype</text>
</a>
</g>
</g>
<!-- IWType_IW__ind -->
<g id="node24" class="node">
<title>IWType_IW__ind</title>
<g id="a_node24"><a xlink:href="IWType.html#IW'_ind" xlink:title="IW&#39;_ind">
<ellipse fill="#f070d1" stroke="#000000" cx="398.2869" cy="-258" rx="46.2923" ry="18"/>
<text text-anchor="middle" x="398.2869" y="-254.3" font-family="Times,serif" font-size="14.00" fill="#000000">IW&#39;_ind</text>
</a>
</g>
</g>
<!-- IWType_equiv_wtype_iwtype&#45;&gt;IWType_IW__ind -->
<g id="edge34" class="edge">
<title>IWType_equiv_wtype_iwtype&#45;&gt;IWType_IW__ind</title>
<path fill="none" stroke="#000000" d="M586.1679,-324.1341C541.4134,-308.3805 482.1174,-287.5083 442.2112,-273.4614"/>
<polygon fill="#000000" stroke="#000000" points="443.3494,-270.1516 432.7546,-270.1326 441.0252,-276.7545 443.3494,-270.1516"/>
</g>
<!-- IWType_equiv_wtype_iwtype&#45;&gt;IWType_IW_rect -->
<g id="edge35" class="edge">
<title>IWType_equiv_wtype_iwtype&#45;&gt;IWType_IW_rect</title>
<path fill="none" stroke="#000000" d="M737.6771,-330.0149C794.4898,-319.0234 869.3102,-303.0054 934.2869,-284 943.3331,-281.354 952.8869,-278.1139 961.9304,-274.8306"/>
<polygon fill="#000000" stroke="#000000" points="963.3401,-278.0407 971.495,-271.2769 960.9021,-271.4789 963.3401,-278.0407"/>
</g>
<!-- IWType_IW__ind_beta_iw_sup_ -->
<g id="node23" class="node">
<title>IWType_IW__ind_beta_iw_sup_</title>
<g id="a_node23"><a xlink:href="IWType.html#IW'_ind_beta_iw_sup'" xlink:title="IW&#39;_ind_beta_iw_sup&#39;">
<ellipse fill="#f070d1" stroke="#000000" cx="148.2869" cy="-346" rx="111.271" ry="18"/>
<ellipse fill="none" stroke="#000000" cx="148.2869" cy="-346" rx="115.2757" ry="22"/>
<ellipse fill="none" stroke="#000000" cx="148.2869" cy="-346" rx="119.2804" ry="26"/>
<text text-anchor="middle" x="148.2869" y="-342.3" font-family="Times,serif" font-size="14.00" fill="#000000">IW&#39;_ind_beta_iw_sup&#39;</text>
</a>
</g>
</g>
<!-- IWType_IW__ind_beta_iw_sup_&#45;&gt;IWType_IW__ind -->
<g id="edge36" class="edge">
<title>IWType_IW__ind_beta_iw_sup_&#45;&gt;IWType_IW__ind</title>
<path fill="none" stroke="#000000" d="M211.3724,-323.7939C255.9109,-308.1164 314.4792,-287.5003 354.0953,-273.5554"/>
<polygon fill="#000000" stroke="#000000" points="355.4682,-276.7827 363.7388,-270.1609 353.1439,-270.1799 355.4682,-276.7827"/>
</g>
<!-- IWType_iw_sup_ -->
<g id="node25" class="node">
<title>IWType_iw_sup_</title>
<g id="a_node25"><a xlink:href="IWType.html#iw_sup'" xlink:title="iw_sup&#39;">
<ellipse fill="#f070d1" stroke="#000000" cx="398.2869" cy="-178" rx="45.4919" ry="18"/>
<text text-anchor="middle" x="398.2869" y="-174.3" font-family="Times,serif" font-size="14.00" fill="#000000">iw_sup&#39;</text>
</a>
</g>
</g>
<!-- IWType_IW__ind&#45;&gt;IWType_iw_sup_ -->
<g id="edge37" class="edge">
<title>IWType_IW__ind&#45;&gt;IWType_iw_sup_</title>
<path fill="none" stroke="#000000" d="M398.2869,-239.8468C398.2869,-229.9251 398.2869,-217.4167 398.2869,-206.2492"/>
<polygon fill="#000000" stroke="#000000" points="401.787,-206.0814 398.2869,-196.0814 394.787,-206.0814 401.787,-206.0814"/>
</g>
<!-- IWType_IW_ -->
<g id="node26" class="node">
<title>IWType_IW_</title>
<g id="a_node26"><a xlink:href="IWType.html#IW'" xlink:title="IW&#39;">
<ellipse fill="#f070d1" stroke="#000000" cx="398.2869" cy="-106" rx="27" ry="18"/>
<text text-anchor="middle" x="398.2869" y="-102.3" font-family="Times,serif" font-size="14.00" fill="#000000">IW&#39;</text>
</a>
</g>
</g>
<!-- IWType_iw_sup_&#45;&gt;IWType_IW_ -->
<g id="edge38" class="edge">
<title>IWType_iw_sup_&#45;&gt;IWType_IW_</title>
<path fill="none" stroke="#000000" d="M398.2869,-159.8314C398.2869,-152.131 398.2869,-142.9743 398.2869,-134.4166"/>
<polygon fill="#000000" stroke="#000000" points="401.787,-134.4132 398.2869,-124.4133 394.787,-134.4133 401.787,-134.4132"/>
</g>
<!-- IWType_IsIndexedBy -->
<g id="node27" class="node">
<title>IWType_IsIndexedBy</title>
<g id="a_node27"><a xlink:href="IWType.html#IsIndexedBy" xlink:title="IsIndexedBy">
<ellipse fill="#f070d1" stroke="#000000" cx="398.2869" cy="-34" rx="69.5877" ry="18"/>
<text text-anchor="middle" x="398.2869" y="-30.3" font-family="Times,serif" font-size="14.00" fill="#000000">IsIndexedBy</text>
</a>
</g>
</g>
<!-- IWType_IW_&#45;&gt;IWType_IsIndexedBy -->
<g id="edge39" class="edge">
<title>IWType_IW_&#45;&gt;IWType_IsIndexedBy</title>
<path fill="none" stroke="#000000" d="M398.2869,-87.8314C398.2869,-80.131 398.2869,-70.9743 398.2869,-62.4166"/>
<polygon fill="#000000" stroke="#000000" points="401.787,-62.4132 398.2869,-52.4133 394.787,-62.4133 401.787,-62.4132"/>
</g>
<!-- IWType_pointwise_paths_ind -->
<g id="node28" class="node">
<title>IWType_pointwise_paths_ind</title>
<g id="a_node28"><a xlink:href="IWType.html#pointwise_paths_ind" xlink:title="pointwise_paths_ind">
<ellipse fill="#f070d1" stroke="#000000" cx="522.2869" cy="-882" rx="105.8854" ry="18"/>
<ellipse fill="none" stroke="#000000" cx="522.2869" cy="-882" rx="109.8833" ry="22"/>
<ellipse fill="none" stroke="#000000" cx="522.2869" cy="-882" rx="113.8812" ry="26"/>
<text text-anchor="middle" x="522.2869" y="-878.3" font-family="Times,serif" font-size="14.00" fill="#000000">pointwise_paths_ind</text>
</a>
</g>
</g>
<!-- IWType_path_index_iw_label -->
<g id="node31" class="node">
<title>IWType_path_index_iw_label</title>
<g id="a_node31"><a xlink:href="IWType.html#path_index_iw_label" xlink:title="path_index_iw_label">
<ellipse fill="#f070d1" stroke="#000000" cx="1272.2869" cy="-346" rx="104.7816" ry="18"/>
<text text-anchor="middle" x="1272.2869" y="-342.3" font-family="Times,serif" font-size="14.00" fill="#000000">path_index_iw_label</text>
</a>
</g>
</g>
<!-- IWType_iw_to_hfiber_index&#45;&gt;IWType_path_index_iw_label -->
<g id="edge40" class="edge">
<title>IWType_iw_to_hfiber_index&#45;&gt;IWType_path_index_iw_label</title>
<path fill="none" stroke="#000000" d="M1286.5573,-415.7663C1284.0955,-403.7312 1280.8215,-387.7249 1278.0305,-374.0797"/>
<polygon fill="#000000" stroke="#000000" points="1281.4448,-373.306 1276.0117,-364.2103 1274.5867,-374.7089 1281.4448,-373.306"/>
</g>
<!-- IWType_iw_eta -->
<g id="node30" class="node">
<title>IWType_iw_eta</title>
<g id="a_node30"><a xlink:href="IWType.html#iw_eta" xlink:title="iw_eta">
<ellipse fill="#f070d1" stroke="#000000" cx="1472.2869" cy="-434" rx="40.9015" ry="18"/>
<ellipse fill="none" stroke="#000000" cx="1472.2869" cy="-434" rx="44.8972" ry="22"/>
<ellipse fill="none" stroke="#000000" cx="1472.2869" cy="-434" rx="48.8928" ry="26"/>
<text text-anchor="middle" x="1472.2869" y="-430.3" font-family="Times,serif" font-size="14.00" fill="#000000">iw_eta</text>
</a>
</g>
</g>
<!-- IWType_iw_eta&#45;&gt;IWType_path_index_iw_label -->
<g id="edge41" class="edge">
<title>IWType_iw_eta&#45;&gt;IWType_path_index_iw_label</title>
<path fill="none" stroke="#000000" d="M1434.1976,-417.2407C1401.772,-402.9734 1355.0283,-382.4062 1320.0931,-367.0347"/>
<polygon fill="#000000" stroke="#000000" points="1321.1372,-363.6703 1310.5744,-362.8465 1318.3179,-370.0776 1321.1372,-363.6703"/>
</g>
<!-- IWType_iw_arity -->
<g id="node32" class="node">
<title>IWType_iw_arity</title>
<g id="a_node32"><a xlink:href="IWType.html#iw_arity" xlink:title="iw_arity">
<ellipse fill="#f070d1" stroke="#000000" cx="1460.2869" cy="-346" rx="48.1917" ry="18"/>
<text text-anchor="middle" x="1460.2869" y="-342.3" font-family="Times,serif" font-size="14.00" fill="#000000">iw_arity</text>
</a>
</g>
</g>
<!-- IWType_iw_eta&#45;&gt;IWType_iw_arity -->
<g id="edge42" class="edge">
<title>IWType_iw_eta&#45;&gt;IWType_iw_arity</title>
<path fill="none" stroke="#000000" d="M1468.6865,-407.5971C1467.2471,-397.0414 1465.5871,-384.868 1464.1248,-374.1448"/>
<polygon fill="#000000" stroke="#000000" points="1467.5631,-373.4542 1462.744,-364.0188 1460.6273,-374.4 1467.5631,-373.4542"/>
</g>
<!-- IWType_iw_eta&#45;&gt;IWType_iw_sup -->
<g id="edge43" class="edge">
<title>IWType_iw_eta&#45;&gt;IWType_iw_sup</title>
<path fill="none" stroke="#000000" d="M1494.637,-410.6671C1534.0003,-369.5126 1611.7153,-287.9665 1613.2869,-284 1621.8,-262.514 1626.2919,-251.1048 1613.2869,-232 1602.6026,-216.3044 1558.1956,-200.6433 1522.7957,-190.2607"/>
<polygon fill="#000000" stroke="#000000" points="1523.6628,-186.8683 1513.0855,-187.4766 1521.7335,-193.5972 1523.6628,-186.8683"/>
</g>
<!-- IWType_iw_label -->
<g id="node33" class="node">
<title>IWType_iw_label</title>
<g id="a_node33"><a xlink:href="IWType.html#iw_label" xlink:title="iw_label">
<ellipse fill="#f070d1" stroke="#000000" cx="1130.2869" cy="-258" rx="48.9926" ry="18"/>
<text text-anchor="middle" x="1130.2869" y="-254.3" font-family="Times,serif" font-size="14.00" fill="#000000">iw_label</text>
</a>
</g>
</g>
<!-- IWType_path_index_iw_label&#45;&gt;IWType_iw_label -->
<g id="edge44" class="edge">
<title>IWType_path_index_iw_label&#45;&gt;IWType_iw_label</title>
<path fill="none" stroke="#000000" d="M1244.2322,-328.614C1221.1967,-314.3385 1188.5004,-294.076 1164.0359,-278.9149"/>
<polygon fill="#000000" stroke="#000000" points="1165.7721,-275.8733 1155.4283,-273.5806 1162.0847,-281.8234 1165.7721,-275.8733"/>
</g>
<!-- IWType_iw_arity&#45;&gt;IWType_iw_label -->
<g id="edge45" class="edge">
<title>IWType_iw_arity&#45;&gt;IWType_iw_label</title>
<path fill="none" stroke="#000000" d="M1426.7228,-333.036C1414.164,-328.4967 1399.6932,-323.6315 1386.2869,-320 1305.015,-297.9851 1281.3601,-306.7356 1200.2869,-284 1191.2117,-281.455 1181.6454,-278.2586 1172.5989,-274.986"/>
<polygon fill="#000000" stroke="#000000" points="1173.6272,-271.6343 1163.0343,-271.4321 1171.1891,-278.196 1173.6272,-271.6343"/>
</g>
<!-- IWType_iw_label&#45;&gt;IWType_IW -->
<g id="edge46" class="edge">
<title>IWType_iw_label&#45;&gt;IWType_IW</title>
<path fill="none" stroke="#000000" d="M1156.509,-242.5752C1179.643,-228.967 1213.3096,-209.1631 1237.2507,-195.0801"/>
<polygon fill="#000000" stroke="#000000" points="1239.0631,-198.0746 1245.9079,-189.9876 1235.514,-192.0411 1239.0631,-198.0746"/>
</g>
<!-- IWType_IW_sind -->
<g id="node34" class="node">
<title>IWType_IW_sind</title>
<g id="a_node34"><a xlink:href="IWType.html#IW_sind" xlink:title="IW_sind">
<ellipse fill="#f070d1" stroke="#000000" cx="1266.2869" cy="-258" rx="48.9576" ry="18"/>
<ellipse fill="none" stroke="#000000" cx="1266.2869" cy="-258" rx="52.975" ry="22"/>
<ellipse fill="none" stroke="#000000" cx="1266.2869" cy="-258" rx="56.9924" ry="26"/>
<text text-anchor="middle" x="1266.2869" y="-254.3" font-family="Times,serif" font-size="14.00" fill="#000000">IW_sind</text>
</a>
</g>
</g>
<!-- IWType_IW_sind&#45;&gt;IWType_iw_sup -->
<g id="edge47" class="edge">
<title>IWType_IW_sind&#45;&gt;IWType_iw_sup</title>
<path fill="none" stroke="#000000" d="M1310.0541,-241.3268C1346.6425,-227.3883 1398.4787,-207.6412 1434.5018,-193.9181"/>
<polygon fill="#000000" stroke="#000000" points="1436.1181,-197.0478 1444.217,-190.2171 1433.6261,-190.5064 1436.1181,-197.0478"/>
</g>
<!-- IWType_IW_sind&#45;&gt;IWType_IW -->
<g id="edge48" class="edge">
<title>IWType_IW_sind&#45;&gt;IWType_IW</title>
<path fill="none" stroke="#000000" d="M1266.2869,-231.805C1266.2869,-223.6026 1266.2869,-214.5174 1266.2869,-206.1839"/>
<polygon fill="#000000" stroke="#000000" points="1269.787,-206.1532 1266.2869,-196.1532 1262.787,-206.1533 1269.787,-206.1532"/>
</g>
<!-- IWType_IW_rec -->
<g id="node35" class="node">
<title>IWType_IW_rec</title>
<g id="a_node35"><a xlink:href="IWType.html#IW_rec" xlink:title="IW_rec">
<ellipse fill="#f070d1" stroke="#000000" cx="1058.2869" cy="-346" rx="44.3627" ry="18"/>
<ellipse fill="none" stroke="#000000" cx="1058.2869" cy="-346" rx="48.3778" ry="22"/>
<ellipse fill="none" stroke="#000000" cx="1058.2869" cy="-346" rx="52.3929" ry="26"/>
<text text-anchor="middle" x="1058.2869" y="-342.3" font-family="Times,serif" font-size="14.00" fill="#000000">IW_rec</text>
</a>
</g>
</g>
<!-- IWType_IW_rec&#45;&gt;IWType_IW_rect -->
<g id="edge49" class="edge">
<title>IWType_IW_rec&#45;&gt;IWType_IW_rect</title>
<path fill="none" stroke="#000000" d="M1042.9571,-321.0181C1035.9696,-309.6311 1027.6908,-296.1397 1020.5896,-284.5674"/>
<polygon fill="#000000" stroke="#000000" points="1023.4076,-282.4677 1015.1943,-275.775 1017.4413,-286.1288 1023.4076,-282.4677"/>
</g>
<!-- IWType_IW_ind -->
<g id="node36" class="node">
<title>IWType_IW_ind</title>
<g id="a_node36"><a xlink:href="IWType.html#IW_ind" xlink:title="IW_ind">
<ellipse fill="#7fffd4" stroke="#000000" cx="1405.2869" cy="-258" rx="44.3627" ry="18"/>
<ellipse fill="none" stroke="#000000" cx="1405.2869" cy="-258" rx="48.3778" ry="22"/>
<ellipse fill="none" stroke="#000000" cx="1405.2869" cy="-258" rx="52.3929" ry="26"/>
<text text-anchor="middle" x="1405.2869" y="-254.3" font-family="Times,serif" font-size="14.00" fill="#000000">IW_ind</text>
</a>
</g>
</g>
<!-- IWType_IW_ind&#45;&gt;IWType_iw_sup -->
<g id="edge50" class="edge">
<title>IWType_IW_ind&#45;&gt;IWType_iw_sup</title>
<path fill="none" stroke="#000000" d="M1426.5892,-233.9974C1435.3559,-224.1194 1445.5057,-212.683 1454.3385,-202.7306"/>
<polygon fill="#000000" stroke="#000000" points="1457.0682,-204.9277 1461.0883,-195.1252 1451.8327,-200.2812 1457.0682,-204.9277"/>
</g>
<!-- IWType_IW_ind&#45;&gt;IWType_IW -->
<g id="edge51" class="edge">
<title>IWType_IW_ind&#45;&gt;IWType_IW</title>
<path fill="none" stroke="#000000" d="M1370.9273,-238.2247C1347.8542,-224.9452 1317.7688,-207.6299 1295.7825,-194.9759"/>
<polygon fill="#000000" stroke="#000000" points="1297.3126,-191.8183 1286.8997,-189.8635 1293.8208,-197.8852 1297.3126,-191.8183"/>
</g>
<!-- IWType_IW_rect&#45;&gt;IWType_iw_sup -->
<g id="edge52" class="edge">
<title>IWType_IW_rect&#45;&gt;IWType_iw_sup</title>
<path fill="none" stroke="#000000" d="M1035.6194,-244.2728C1046.9822,-239.7639 1060.0377,-235.1152 1072.2869,-232 1137.8928,-215.3152 1331.0956,-193.4073 1424.5249,-183.4031"/>
<polygon fill="#000000" stroke="#000000" points="1425.0269,-186.8695 1434.5996,-182.3291 1424.2849,-179.909 1425.0269,-186.8695"/>
</g>
<!-- IWType_IW_rect&#45;&gt;IWType_IW -->
<g id="edge53" class="edge">
<title>IWType_IW_rect&#45;&gt;IWType_IW</title>
<path fill="none" stroke="#000000" d="M1037.2667,-244.677C1048.3195,-240.4033 1060.763,-235.7977 1072.2869,-232 1127.152,-213.9193 1192.0128,-196.6824 1231.109,-186.7325"/>
<polygon fill="#000000" stroke="#000000" points="1232.1108,-190.0894 1240.9474,-184.2442 1230.3944,-183.303 1232.1108,-190.0894"/>
</g>
</g>
</svg>
