<?xml version="1.0" encoding="UTF-8" standalone="no"?>
<!DOCTYPE svg PUBLIC "-//W3C//DTD SVG 1.1//EN"
 "http://www.w3.org/Graphics/SVG/1.1/DTD/svg11.dtd">
<!-- Generated by graphviz version 2.40.1 (20161225.0304)
 -->
<!-- Title: HoTT_Classes_interfaces_integers Pages: 1 -->
<svg width="1472pt" height="740pt"
 viewBox="0.00 0.00 1472.00 740.00" xmlns="http://www.w3.org/2000/svg" xmlns:xlink="http://www.w3.org/1999/xlink">
<g id="graph0" class="graph" transform="scale(1 1) rotate(0) translate(4 736)">
<title>HoTT_Classes_interfaces_integers</title>
<polygon fill="#ffffff" stroke="transparent" points="-4,4 -4,-736 1468,-736 1468,4 -4,4"/>
<g id="clust1" class="cluster">
<title>cluster_integers</title>
<polygon fill="#ffffc3" stroke="#000000" points="8,-11.7355 8,-720.2645 1456,-720.2645 1456,-11.7355 8,-11.7355"/>
<text text-anchor="middle" x="46" y="-705.0645" font-family="Times,serif" font-size="14.00" fill="#000000">integers</text>
</g>
<!-- integers_int_to_nat -->
<g id="node1" class="node">
<title>integers_int_to_nat</title>
<g id="a_node1"><a xlink:href="integers.html#int_to_nat" xlink:title="int_to_nat">
<ellipse fill="#f070d1" stroke="#000000" cx="1100" cy="-636.7355" rx="57.7089" ry="18"/>
<ellipse fill="none" stroke="#000000" cx="1100" cy="-636.7355" rx="61.6995" ry="22"/>
<ellipse fill="none" stroke="#000000" cx="1100" cy="-636.7355" rx="65.6901" ry="26"/>
<text text-anchor="middle" x="1100" y="-633.0355" font-family="Times,serif" font-size="14.00" fill="#000000">int_to_nat</text>
</a>
</g>
</g>
<!-- integers_int_abs_sig -->
<g id="node3" class="node">
<title>integers_int_abs_sig</title>
<g id="a_node3"><a xlink:href="integers.html#int_abs_sig" xlink:title="int_abs_sig">
<ellipse fill="#f070d1" stroke="#000000" cx="1032" cy="-507.7355" rx="63.0888" ry="18"/>
<text text-anchor="middle" x="1032" y="-504.0355" font-family="Times,serif" font-size="14.00" fill="#000000">int_abs_sig</text>
</a>
</g>
</g>
<!-- integers_int_to_nat&#45;&gt;integers_int_abs_sig -->
<g id="edge1" class="edge">
<title>integers_int_to_nat&#45;&gt;integers_int_abs_sig</title>
<path fill="none" stroke="#000000" d="M1086.5654,-611.2492C1074.915,-589.1477 1058.1043,-557.2568 1046.2272,-534.7253"/>
<polygon fill="#000000" stroke="#000000" points="1049.2279,-532.9119 1041.4685,-525.6978 1043.0355,-536.1761 1049.2279,-532.9119"/>
</g>
<!-- integers_int_abs -->
<g id="node2" class="node">
<title>integers_int_abs</title>
<g id="a_node2"><a xlink:href="integers.html#int_abs" xlink:title="int_abs">
<ellipse fill="#f070d1" stroke="#000000" cx="964" cy="-636.7355" rx="44.3627" ry="18"/>
<ellipse fill="none" stroke="#000000" cx="964" cy="-636.7355" rx="48.3778" ry="22"/>
<ellipse fill="none" stroke="#000000" cx="964" cy="-636.7355" rx="52.3929" ry="26"/>
<text text-anchor="middle" x="964" y="-633.0355" font-family="Times,serif" font-size="14.00" fill="#000000">int_abs</text>
</a>
</g>
</g>
<!-- integers_int_abs&#45;&gt;integers_int_abs_sig -->
<g id="edge2" class="edge">
<title>integers_int_abs&#45;&gt;integers_int_abs_sig</title>
<path fill="none" stroke="#000000" d="M977.2725,-611.5567C988.9064,-589.4865 1005.7761,-557.4838 1017.7045,-534.8549"/>
<polygon fill="#000000" stroke="#000000" points="1020.9175,-536.2653 1022.4845,-525.7869 1014.7251,-533.0011 1020.9175,-536.2653"/>
</g>
<!-- integers_IntAbs -->
<g id="node4" class="node">
<title>integers_IntAbs</title>
<g id="a_node4"><a xlink:href="integers.html#IntAbs" xlink:title="IntAbs">
<ellipse fill="#f070d1" stroke="#000000" cx="1032" cy="-378.7355" rx="42.4939" ry="18"/>
<text text-anchor="middle" x="1032" y="-375.0355" font-family="Times,serif" font-size="14.00" fill="#000000">IntAbs</text>
</a>
</g>
</g>
<!-- integers_int_abs_sig&#45;&gt;integers_IntAbs -->
<g id="edge3" class="edge">
<title>integers_int_abs_sig&#45;&gt;integers_IntAbs</title>
<path fill="none" stroke="#000000" d="M1032,-489.5265C1032,-468.0141 1032,-431.9812 1032,-406.8706"/>
<polygon fill="#000000" stroke="#000000" points="1035.5001,-406.8518 1032,-396.8518 1028.5001,-406.8518 1035.5001,-406.8518"/>
</g>
<!-- integers_Integers -->
<g id="node14" class="node">
<title>integers_Integers</title>
<g id="a_node14"><a xlink:href="integers.html#Integers" xlink:title="Integers">
<ellipse fill="#e2cdfa" stroke="#000000" cx="657" cy="-260.7355" rx="50.0912" ry="18"/>
<text text-anchor="middle" x="657" y="-257.0355" font-family="Times,serif" font-size="14.00" fill="#000000">Integers</text>
</a>
</g>
</g>
<!-- integers_IntAbs&#45;&gt;integers_Integers -->
<g id="edge4" class="edge">
<title>integers_IntAbs&#45;&gt;integers_Integers</title>
<path fill="none" stroke="#000000" d="M1006.243,-364.3742C998.2963,-360.2807 989.4185,-356.0401 981,-352.7355 888.0008,-316.229 774.8152,-287.4715 709.8151,-272.3811"/>
<polygon fill="#000000" stroke="#000000" points="710.3375,-268.9099 699.8072,-270.0775 708.7672,-275.7315 710.3375,-268.9099"/>
</g>
<!-- integers_integers_initial -->
<g id="node5" class="node">
<title>integers_integers_initial</title>
<g id="a_node5"><a xlink:href="integers.html#integers_initial" xlink:title="integers_initial">
<ellipse fill="#f070d1" stroke="#000000" cx="883" cy="-378.7355" rx="81.4644" ry="18"/>
<ellipse fill="none" stroke="#000000" cx="883" cy="-378.7355" rx="85.4753" ry="22"/>
<ellipse fill="none" stroke="#000000" cx="883" cy="-378.7355" rx="89.4862" ry="26"/>
<text text-anchor="middle" x="883" y="-375.0355" font-family="Times,serif" font-size="14.00" fill="#000000">integers_initial</text>
</a>
</g>
</g>
<!-- integers_integers_initial&#45;&gt;integers_Integers -->
<g id="edge5" class="edge">
<title>integers_integers_initial&#45;&gt;integers_Integers</title>
<path fill="none" stroke="#000000" d="M839.4249,-355.9839C797.2996,-333.9892 734.1579,-301.0215 694.2938,-280.2074"/>
<polygon fill="#000000" stroke="#000000" points="695.9072,-277.1015 685.4228,-275.5757 692.6673,-283.3066 695.9072,-277.1015"/>
</g>
<!-- integers_integers_to_ring_mor -->
<g id="node6" class="node">
<title>integers_integers_to_ring_mor</title>
<g id="a_node6"><a xlink:href="integers.html#integers_to_ring_mor" xlink:title="integers_to_ring_mor">
<ellipse fill="#f070d1" stroke="#000000" cx="657" cy="-378.7355" rx="110.4811" ry="18"/>
<ellipse fill="none" stroke="#000000" cx="657" cy="-378.7355" rx="114.4807" ry="22"/>
<ellipse fill="none" stroke="#000000" cx="657" cy="-378.7355" rx="118.4804" ry="26"/>
<text text-anchor="middle" x="657" y="-375.0355" font-family="Times,serif" font-size="14.00" fill="#000000">integers_to_ring_mor</text>
</a>
</g>
</g>
<!-- integers_integers_to_ring_mor&#45;&gt;integers_Integers -->
<g id="edge6" class="edge">
<title>integers_integers_to_ring_mor&#45;&gt;integers_Integers</title>
<path fill="none" stroke="#000000" d="M657,-352.5474C657,-333.6421 657,-308.1463 657,-288.8192"/>
<polygon fill="#000000" stroke="#000000" points="660.5001,-288.7976 657,-278.7976 653.5001,-288.7977 660.5001,-288.7976"/>
</g>
<!-- integers_integers_order -->
<g id="node7" class="node">
<title>integers_integers_order</title>
<g id="a_node7"><a xlink:href="integers.html#integers_order" xlink:title="integers_order">
<ellipse fill="#f070d1" stroke="#000000" cx="1361" cy="-378.7355" rx="79.1053" ry="18"/>
<ellipse fill="none" stroke="#000000" cx="1361" cy="-378.7355" rx="83.0959" ry="22"/>
<ellipse fill="none" stroke="#000000" cx="1361" cy="-378.7355" rx="87.0864" ry="26"/>
<text text-anchor="middle" x="1361" y="-375.0355" font-family="Times,serif" font-size="14.00" fill="#000000">integers_order</text>
</a>
</g>
</g>
<!-- integers_integers_order&#45;&gt;integers_Integers -->
<g id="edge7" class="edge">
<title>integers_integers_order&#45;&gt;integers_Integers</title>
<path fill="none" stroke="#000000" d="M1297.8481,-360.7195C1286.6255,-357.8298 1275.0073,-355.0374 1264,-352.7355 1064.1374,-310.9395 823.4868,-280.1785 715.0134,-267.3422"/>
<polygon fill="#000000" stroke="#000000" points="715.2749,-263.849 704.9344,-266.1562 714.4568,-270.801 715.2749,-263.849"/>
</g>
<!-- integers_integers_ring -->
<g id="node8" class="node">
<title>integers_integers_ring</title>
<g id="a_node8"><a xlink:href="integers.html#integers_ring" xlink:title="integers_ring">
<ellipse fill="#f070d1" stroke="#000000" cx="1174" cy="-378.7355" rx="73.3926" ry="18"/>
<ellipse fill="none" stroke="#000000" cx="1174" cy="-378.7355" rx="77.3898" ry="22"/>
<ellipse fill="none" stroke="#000000" cx="1174" cy="-378.7355" rx="81.387" ry="26"/>
<text text-anchor="middle" x="1174" y="-375.0355" font-family="Times,serif" font-size="14.00" fill="#000000">integers_ring</text>
</a>
</g>
</g>
<!-- integers_integers_ring&#45;&gt;integers_Integers -->
<g id="edge8" class="edge">
<title>integers_integers_ring&#45;&gt;integers_Integers</title>
<path fill="none" stroke="#000000" d="M1113.9421,-360.9741C1103.6512,-358.1034 1093.041,-355.2513 1083,-352.7355 950.3254,-319.4936 792.6109,-287.3251 711.3727,-271.289"/>
<polygon fill="#000000" stroke="#000000" points="711.8645,-267.8187 701.3767,-269.3211 710.5123,-274.6869 711.8645,-267.8187"/>
</g>
<!-- integers_Integers_sind -->
<g id="node9" class="node">
<title>integers_Integers_sind</title>
<g id="a_node9"><a xlink:href="integers.html#Integers_sind" xlink:title="Integers_sind">
<ellipse fill="#f070d1" stroke="#000000" cx="265" cy="-378.7355" rx="74.9639" ry="18"/>
<ellipse fill="none" stroke="#000000" cx="265" cy="-378.7355" rx="78.9757" ry="22"/>
<ellipse fill="none" stroke="#000000" cx="265" cy="-378.7355" rx="82.9875" ry="26"/>
<text text-anchor="middle" x="265" y="-375.0355" font-family="Times,serif" font-size="14.00" fill="#000000">Integers_sind</text>
</a>
</g>
</g>
<!-- integers_Build_Integers -->
<g id="node13" class="node">
<title>integers_Build_Integers</title>
<g id="a_node13"><a xlink:href="integers.html#Build_Integers" xlink:title="Build_Integers">
<ellipse fill="#7faaff" stroke="#000000" cx="354" cy="-260.7355" rx="79.0865" ry="18"/>
<text text-anchor="middle" x="354" y="-257.0355" font-family="Times,serif" font-size="14.00" fill="#000000">Build_Integers</text>
</a>
</g>
</g>
<!-- integers_Integers_sind&#45;&gt;integers_Build_Integers -->
<g id="edge9" class="edge">
<title>integers_Integers_sind&#45;&gt;integers_Build_Integers</title>
<path fill="none" stroke="#000000" d="M284.0927,-353.4215C298.9304,-333.7491 319.4356,-306.5624 334.4004,-286.7215"/>
<polygon fill="#000000" stroke="#000000" points="337.2146,-288.8026 340.442,-278.7113 331.626,-284.5874 337.2146,-288.8026"/>
</g>
<!-- integers_Integers_sind&#45;&gt;integers_Integers -->
<g id="edge10" class="edge">
<title>integers_Integers_sind&#45;&gt;integers_Integers</title>
<path fill="none" stroke="#000000" d="M324.9631,-360.6854C402.8022,-337.2542 537.1259,-296.82 608.745,-275.2612"/>
<polygon fill="#000000" stroke="#000000" points="609.8555,-278.5822 618.4222,-272.3482 607.8377,-271.8792 609.8555,-278.5822"/>
</g>
<!-- integers_Integers_rec -->
<g id="node10" class="node">
<title>integers_Integers_rec</title>
<g id="a_node10"><a xlink:href="integers.html#Integers_rec" xlink:title="Integers_rec">
<ellipse fill="#f070d1" stroke="#000000" cx="94" cy="-507.7355" rx="70.3682" ry="18"/>
<ellipse fill="none" stroke="#000000" cx="94" cy="-507.7355" rx="74.3781" ry="22"/>
<ellipse fill="none" stroke="#000000" cx="94" cy="-507.7355" rx="78.388" ry="26"/>
<text text-anchor="middle" x="94" y="-504.0355" font-family="Times,serif" font-size="14.00" fill="#000000">Integers_rec</text>
</a>
</g>
</g>
<!-- integers_Integers_rect -->
<g id="node12" class="node">
<title>integers_Integers_rect</title>
<g id="a_node12"><a xlink:href="integers.html#Integers_rect" xlink:title="Integers_rect">
<ellipse fill="#f070d1" stroke="#000000" cx="90" cy="-378.7355" rx="74.187" ry="18"/>
<text text-anchor="middle" x="90" y="-375.0355" font-family="Times,serif" font-size="14.00" fill="#000000">Integers_rect</text>
</a>
</g>
</g>
<!-- integers_Integers_rec&#45;&gt;integers_Integers_rect -->
<g id="edge11" class="edge">
<title>integers_Integers_rec&#45;&gt;integers_Integers_rect</title>
<path fill="none" stroke="#000000" d="M93.1905,-481.6304C92.5196,-459.9926 91.5676,-429.2909 90.8783,-407.0614"/>
<polygon fill="#000000" stroke="#000000" points="94.3718,-406.7928 90.5634,-396.9061 87.3751,-407.0098 94.3718,-406.7928"/>
</g>
<!-- integers_Integers_ind -->
<g id="node11" class="node">
<title>integers_Integers_ind</title>
<g id="a_node11"><a xlink:href="integers.html#Integers_ind" xlink:title="Integers_ind">
<ellipse fill="#7fffd4" stroke="#000000" cx="443" cy="-378.7355" rx="69.5832" ry="18"/>
<ellipse fill="none" stroke="#000000" cx="443" cy="-378.7355" rx="73.5854" ry="22"/>
<ellipse fill="none" stroke="#000000" cx="443" cy="-378.7355" rx="77.5877" ry="26"/>
<text text-anchor="middle" x="443" y="-375.0355" font-family="Times,serif" font-size="14.00" fill="#000000">Integers_ind</text>
</a>
</g>
</g>
<!-- integers_Integers_ind&#45;&gt;integers_Build_Integers -->
<g id="edge12" class="edge">
<title>integers_Integers_ind&#45;&gt;integers_Build_Integers</title>
<path fill="none" stroke="#000000" d="M423.9073,-353.4215C409.0696,-333.7491 388.5644,-306.5624 373.5996,-286.7215"/>
<polygon fill="#000000" stroke="#000000" points="376.374,-284.5874 367.558,-278.7113 370.7854,-288.8026 376.374,-284.5874"/>
</g>
<!-- integers_Integers_ind&#45;&gt;integers_Integers -->
<g id="edge13" class="edge">
<title>integers_Integers_ind&#45;&gt;integers_Integers</title>
<path fill="none" stroke="#000000" d="M483.5033,-356.4018C522.9359,-334.6587 582.3307,-301.9082 620.3825,-280.9264"/>
<polygon fill="#000000" stroke="#000000" points="622.5048,-283.7531 629.5717,-275.8595 619.1247,-277.6232 622.5048,-283.7531"/>
</g>
<!-- integers_Integers_rect&#45;&gt;integers_Build_Integers -->
<g id="edge14" class="edge">
<title>integers_Integers_rect&#45;&gt;integers_Build_Integers</title>
<path fill="none" stroke="#000000" d="M125.6042,-362.8215C172.9056,-341.6792 256.5186,-304.3067 308.3917,-281.121"/>
<polygon fill="#000000" stroke="#000000" points="309.991,-284.24 317.6923,-276.9639 307.1345,-277.8493 309.991,-284.24"/>
</g>
<!-- integers_Integers_rect&#45;&gt;integers_Integers -->
<g id="edge15" class="edge">
<title>integers_Integers_rect&#45;&gt;integers_Integers</title>
<path fill="none" stroke="#000000" d="M133.6673,-364.0161C146.2755,-360.05 160.1109,-355.9677 173,-352.7355 325.9792,-314.3724 509.6863,-283.5433 600.4878,-269.2982"/>
<polygon fill="#000000" stroke="#000000" points="601.2244,-272.7258 610.5651,-267.7257 600.145,-265.8095 601.2244,-272.7258"/>
</g>
<!-- integers_integers_to_ring -->
<g id="node15" class="node">
<title>integers_integers_to_ring</title>
<g id="a_node15"><a xlink:href="integers.html#integers_to_ring" xlink:title="integers_to_ring">
<ellipse fill="#f070d1" stroke="#000000" cx="550" cy="-155.7355" rx="87.1846" ry="18"/>
<text text-anchor="middle" x="550" y="-152.0355" font-family="Times,serif" font-size="14.00" fill="#000000">integers_to_ring</text>
</a>
</g>
</g>
<!-- integers_Build_Integers&#45;&gt;integers_integers_to_ring -->
<g id="edge16" class="edge">
<title>integers_Build_Integers&#45;&gt;integers_integers_to_ring</title>
<path fill="none" stroke="#000000" d="M385.0568,-244.0979C418.6911,-226.0795 472.4772,-197.2655 509.4299,-177.4694"/>
<polygon fill="#000000" stroke="#000000" points="511.2775,-180.4503 518.4395,-172.6429 507.9719,-174.28 511.2775,-180.4503"/>
</g>
<!-- integers_Integers&#45;&gt;integers_integers_to_ring -->
<g id="edge17" class="edge">
<title>integers_Integers&#45;&gt;integers_integers_to_ring</title>
<path fill="none" stroke="#000000" d="M639.3311,-243.3969C621.8569,-226.2492 594.9441,-199.8395 575.2239,-180.4879"/>
<polygon fill="#000000" stroke="#000000" points="577.6417,-177.9568 568.0528,-173.4508 572.7388,-182.953 577.6417,-177.9568"/>
</g>
<!-- integers_IntegersToRing -->
<g id="node16" class="node">
<title>integers_IntegersToRing</title>
<g id="a_node16"><a xlink:href="integers.html#IntegersToRing" xlink:title="IntegersToRing">
<ellipse fill="#f070d1" stroke="#000000" cx="550" cy="-49.7355" rx="83.3857" ry="18"/>
<text text-anchor="middle" x="550" y="-46.0355" font-family="Times,serif" font-size="14.00" fill="#000000">IntegersToRing</text>
</a>
</g>
</g>
<!-- integers_integers_to_ring&#45;&gt;integers_IntegersToRing -->
<g id="edge18" class="edge">
<title>integers_integers_to_ring&#45;&gt;integers_IntegersToRing</title>
<path fill="none" stroke="#000000" d="M550,-137.2717C550,-120.932 550,-96.8355 550,-78.0587"/>
<polygon fill="#000000" stroke="#000000" points="553.5001,-77.9876 550,-67.9877 546.5001,-77.9877 553.5001,-77.9876"/>
</g>
</g>
</svg>
