<?xml version="1.0" encoding="UTF-8" standalone="no"?>
<!DOCTYPE svg PUBLIC "-//W3C//DTD SVG 1.1//EN"
 "http://www.w3.org/Graphics/SVG/1.1/DTD/svg11.dtd">
<!-- Generated by graphviz version 2.40.1 (20161225.0304)
 -->
<!-- Title: HoTT_Algebra_Universal_Congruence Pages: 1 -->
<svg width="1203pt" height="606pt"
 viewBox="0.00 0.00 1203.00 605.50" xmlns="http://www.w3.org/2000/svg" xmlns:xlink="http://www.w3.org/1999/xlink">
<g id="graph0" class="graph" transform="scale(1 1) rotate(0) translate(4 601.5)">
<title>HoTT_Algebra_Universal_Congruence</title>
<polygon fill="#ffffff" stroke="transparent" points="-4,4 -4,-601.5 1199,-601.5 1199,4 -4,4"/>
<g id="clust1" class="cluster">
<title>cluster_Congruence</title>
<polygon fill="#ffffc3" stroke="#000000" points="8,-14.1003 8,-583.3997 1187,-583.3997 1187,-14.1003 8,-14.1003"/>
<text text-anchor="middle" x="60" y="-568.1997" font-family="Times,serif" font-size="14.00" fill="#000000">Congruence</text>
</g>
<!-- Congruence_HomCompatible -->
<g id="node1" class="node">
<title>Congruence_HomCompatible</title>
<g id="a_node1"><a xlink:href="Congruence.html#HomCompatible" xlink:title="HomCompatible">
<ellipse fill="#f070d1" stroke="#000000" cx="829" cy="-483.1003" rx="87.1769" ry="18"/>
<ellipse fill="none" stroke="#000000" cx="829" cy="-483.1003" rx="91.1807" ry="22"/>
<ellipse fill="none" stroke="#000000" cx="829" cy="-483.1003" rx="95.1846" ry="26"/>
<text text-anchor="middle" x="829" y="-479.4003" font-family="Times,serif" font-size="14.00" fill="#000000">HomCompatible</text>
</a>
</g>
</g>
<!-- Congruence_IsCongruence -->
<g id="node7" class="node">
<title>Congruence_IsCongruence</title>
<g id="a_node7"><a xlink:href="Congruence.html#IsCongruence" xlink:title="IsCongruence">
<ellipse fill="#e2cdfa" stroke="#000000" cx="625" cy="-328.1003" rx="76.0865" ry="18"/>
<text text-anchor="middle" x="625" y="-324.4003" font-family="Times,serif" font-size="14.00" fill="#000000">IsCongruence</text>
</a>
</g>
</g>
<!-- Congruence_HomCompatible&#45;&gt;Congruence_IsCongruence -->
<g id="edge1" class="edge">
<title>Congruence_HomCompatible&#45;&gt;Congruence_IsCongruence</title>
<path fill="none" stroke="#000000" d="M796.6756,-458.5401C758.0294,-429.1766 693.8216,-380.3912 655.843,-351.5349"/>
<polygon fill="#000000" stroke="#000000" points="657.7783,-348.6097 647.6985,-345.3467 653.5434,-354.1834 657.7783,-348.6097"/>
</g>
<!-- Congruence_hprop_is_congruence -->
<g id="node2" class="node">
<title>Congruence_hprop_is_congruence</title>
<g id="a_node2"><a xlink:href="Congruence.html#hprop_is_congruence" xlink:title="hprop_is_congruence">
<ellipse fill="#f070d1" stroke="#000000" cx="1061" cy="-483.1003" rx="110.4811" ry="18"/>
<ellipse fill="none" stroke="#000000" cx="1061" cy="-483.1003" rx="114.4807" ry="22"/>
<ellipse fill="none" stroke="#000000" cx="1061" cy="-483.1003" rx="118.4804" ry="26"/>
<text text-anchor="middle" x="1061" y="-479.4003" font-family="Times,serif" font-size="14.00" fill="#000000">hprop_is_congruence</text>
</a>
</g>
</g>
<!-- Congruence_Build_IsCongruence -->
<g id="node6" class="node">
<title>Congruence_Build_IsCongruence</title>
<g id="a_node6"><a xlink:href="Congruence.html#Build_IsCongruence" xlink:title="Build_IsCongruence">
<ellipse fill="#7faaff" stroke="#000000" cx="824" cy="-328.1003" rx="105.0817" ry="18"/>
<text text-anchor="middle" x="824" y="-324.4003" font-family="Times,serif" font-size="14.00" fill="#000000">Build_IsCongruence</text>
</a>
</g>
</g>
<!-- Congruence_hprop_is_congruence&#45;&gt;Congruence_Build_IsCongruence -->
<g id="edge2" class="edge">
<title>Congruence_hprop_is_congruence&#45;&gt;Congruence_Build_IsCongruence</title>
<path fill="none" stroke="#000000" d="M1023.1846,-458.3687C978.0694,-428.863 903.2398,-379.9238 859.2759,-351.171"/>
<polygon fill="#000000" stroke="#000000" points="860.9335,-348.0731 850.6487,-345.5288 857.1021,-353.9314 860.9335,-348.0731"/>
</g>
<!-- Congruence_hprop_is_congruence&#45;&gt;Congruence_IsCongruence -->
<g id="edge3" class="edge">
<title>Congruence_hprop_is_congruence&#45;&gt;Congruence_IsCongruence</title>
<path fill="none" stroke="#000000" d="M998.5318,-460.8926C911.9848,-430.1247 757.1954,-375.0964 676.7475,-346.4968"/>
<polygon fill="#000000" stroke="#000000" points="677.9096,-343.1954 667.3149,-343.1434 675.5648,-349.791 677.9096,-343.1954"/>
</g>
<!-- Congruence_trunc_ops_compatible -->
<g id="node8" class="node">
<title>Congruence_trunc_ops_compatible</title>
<g id="a_node8"><a xlink:href="Congruence.html#trunc_ops_compatible" xlink:title="trunc_ops_compatible">
<ellipse fill="#f070d1" stroke="#000000" cx="1061" cy="-328.1003" rx="113.9803" ry="18"/>
<text text-anchor="middle" x="1061" y="-324.4003" font-family="Times,serif" font-size="14.00" fill="#000000">trunc_ops_compatible</text>
</a>
</g>
</g>
<!-- Congruence_hprop_is_congruence&#45;&gt;Congruence_trunc_ops_compatible -->
<g id="edge4" class="edge">
<title>Congruence_hprop_is_congruence&#45;&gt;Congruence_trunc_ops_compatible</title>
<path fill="none" stroke="#000000" d="M1061,-456.8067C1061,-428.9289 1061,-385.0508 1061,-356.4244"/>
<polygon fill="#000000" stroke="#000000" points="1064.5001,-356.265 1061,-346.265 1057.5001,-356.2651 1064.5001,-356.265"/>
</g>
<!-- Congruence_ops_compatible_cong -->
<g id="node3" class="node">
<title>Congruence_ops_compatible_cong</title>
<g id="a_node3"><a xlink:href="Congruence.html#ops_compatible_cong" xlink:title="ops_compatible_cong">
<ellipse fill="#f070d1" stroke="#000000" cx="597" cy="-483.1003" rx="110.4811" ry="18"/>
<ellipse fill="none" stroke="#000000" cx="597" cy="-483.1003" rx="114.4807" ry="22"/>
<ellipse fill="none" stroke="#000000" cx="597" cy="-483.1003" rx="118.4804" ry="26"/>
<text text-anchor="middle" x="597" y="-479.4003" font-family="Times,serif" font-size="14.00" fill="#000000">ops_compatible_cong</text>
</a>
</g>
</g>
<!-- Congruence_ops_compatible_cong&#45;&gt;Congruence_IsCongruence -->
<g id="edge5" class="edge">
<title>Congruence_ops_compatible_cong&#45;&gt;Congruence_IsCongruence</title>
<path fill="none" stroke="#000000" d="M601.7498,-456.8067C606.7858,-428.9289 614.7122,-385.0508 619.8834,-356.4244"/>
<polygon fill="#000000" stroke="#000000" points="623.3851,-356.728 621.7186,-346.265 616.4966,-355.4835 623.3851,-356.728"/>
</g>
<!-- Congruence_equiv_rel_cong -->
<g id="node4" class="node">
<title>Congruence_equiv_rel_cong</title>
<g id="a_node4"><a xlink:href="Congruence.html#equiv_rel_cong" xlink:title="equiv_rel_cong">
<ellipse fill="#f070d1" stroke="#000000" cx="371" cy="-483.1003" rx="81.4644" ry="18"/>
<ellipse fill="none" stroke="#000000" cx="371" cy="-483.1003" rx="85.4753" ry="22"/>
<ellipse fill="none" stroke="#000000" cx="371" cy="-483.1003" rx="89.4862" ry="26"/>
<text text-anchor="middle" x="371" y="-479.4003" font-family="Times,serif" font-size="14.00" fill="#000000">equiv_rel_cong</text>
</a>
</g>
</g>
<!-- Congruence_equiv_rel_cong&#45;&gt;Congruence_IsCongruence -->
<g id="edge6" class="edge">
<title>Congruence_equiv_rel_cong&#45;&gt;Congruence_IsCongruence</title>
<path fill="none" stroke="#000000" d="M409.5771,-459.5591C458.2081,-429.8827 541.179,-379.2509 588.7056,-350.2484"/>
<polygon fill="#000000" stroke="#000000" points="590.7214,-353.1186 597.4344,-344.9218 587.0751,-347.1433 590.7214,-353.1186"/>
</g>
<!-- Congruence_is_mere_relation_cong -->
<g id="node5" class="node">
<title>Congruence_is_mere_relation_cong</title>
<g id="a_node5"><a xlink:href="Congruence.html#is_mere_relation_cong" xlink:title="is_mere_relation_cong">
<ellipse fill="#f070d1" stroke="#000000" cx="140" cy="-483.1003" rx="115.8675" ry="18"/>
<ellipse fill="none" stroke="#000000" cx="140" cy="-483.1003" rx="119.8736" ry="22"/>
<ellipse fill="none" stroke="#000000" cx="140" cy="-483.1003" rx="123.8798" ry="26"/>
<text text-anchor="middle" x="140" y="-479.4003" font-family="Times,serif" font-size="14.00" fill="#000000">is_mere_relation_cong</text>
</a>
</g>
</g>
<!-- Congruence_is_mere_relation_cong&#45;&gt;Congruence_IsCongruence -->
<g id="edge7" class="edge">
<title>Congruence_is_mere_relation_cong&#45;&gt;Congruence_IsCongruence</title>
<path fill="none" stroke="#000000" d="M208.2037,-461.3032C305.1496,-430.3205 480.9,-374.1529 570.0152,-345.6728"/>
<polygon fill="#000000" stroke="#000000" points="571.2034,-348.9675 579.6633,-342.5894 569.0724,-342.2997 571.2034,-348.9675"/>
</g>
<!-- Congruence_OpsCompatible -->
<g id="node10" class="node">
<title>Congruence_OpsCompatible</title>
<g id="a_node10"><a xlink:href="Congruence.html#OpsCompatible" xlink:title="OpsCompatible">
<ellipse fill="#f070d1" stroke="#000000" cx="724" cy="-187.1003" rx="83.3857" ry="18"/>
<text text-anchor="middle" x="724" y="-183.4003" font-family="Times,serif" font-size="14.00" fill="#000000">OpsCompatible</text>
</a>
</g>
</g>
<!-- Congruence_Build_IsCongruence&#45;&gt;Congruence_OpsCompatible -->
<g id="edge8" class="edge">
<title>Congruence_Build_IsCongruence&#45;&gt;Congruence_OpsCompatible</title>
<path fill="none" stroke="#000000" d="M811.1315,-309.9557C793.7303,-285.42 762.583,-241.5024 742.6259,-213.3628"/>
<polygon fill="#000000" stroke="#000000" points="745.4591,-211.3074 736.8191,-205.1753 739.7493,-215.3569 745.4591,-211.3074"/>
</g>
<!-- Congruence_IsCongruence&#45;&gt;Congruence_OpsCompatible -->
<g id="edge9" class="edge">
<title>Congruence_IsCongruence&#45;&gt;Congruence_OpsCompatible</title>
<path fill="none" stroke="#000000" d="M637.5384,-310.2425C654.7019,-285.7976 685.6397,-241.7347 705.4779,-213.4803"/>
<polygon fill="#000000" stroke="#000000" points="708.3688,-215.4538 711.2507,-205.2584 702.6399,-211.4313 708.3688,-215.4538"/>
</g>
<!-- Congruence_trunc_ops_compatible&#45;&gt;Congruence_OpsCompatible -->
<g id="edge10" class="edge">
<title>Congruence_trunc_ops_compatible&#45;&gt;Congruence_OpsCompatible</title>
<path fill="none" stroke="#000000" d="M1020.6847,-311.2325C958.2401,-285.1058 838.3963,-234.9634 771.7239,-207.0679"/>
<polygon fill="#000000" stroke="#000000" points="772.862,-203.7501 762.286,-203.119 770.1601,-210.2076 772.862,-203.7501"/>
</g>
<!-- Congruence_ops_compatible -->
<g id="node9" class="node">
<title>Congruence_ops_compatible</title>
<g id="a_node9"><a xlink:href="Congruence.html#ops_compatible" xlink:title="ops_compatible">
<ellipse fill="#f070d1" stroke="#000000" cx="440" cy="-328.1003" rx="83.3687" ry="18"/>
<ellipse fill="none" stroke="#000000" cx="440" cy="-328.1003" rx="87.3772" ry="22"/>
<ellipse fill="none" stroke="#000000" cx="440" cy="-328.1003" rx="91.3856" ry="26"/>
<text text-anchor="middle" x="440" y="-324.4003" font-family="Times,serif" font-size="14.00" fill="#000000">ops_compatible</text>
</a>
</g>
</g>
<!-- Congruence_ops_compatible&#45;&gt;Congruence_OpsCompatible -->
<g id="edge11" class="edge">
<title>Congruence_ops_compatible&#45;&gt;Congruence_OpsCompatible</title>
<path fill="none" stroke="#000000" d="M485.6295,-305.4462C539.6189,-278.6416 628.7997,-234.3652 681.4207,-208.24"/>
<polygon fill="#000000" stroke="#000000" points="683.0876,-211.3201 690.488,-203.7383 679.9748,-205.0503 683.0876,-211.3201"/>
</g>
<!-- Congruence_OpCompatible -->
<g id="node11" class="node">
<title>Congruence_OpCompatible</title>
<g id="a_node11"><a xlink:href="Congruence.html#OpCompatible" xlink:title="OpCompatible">
<ellipse fill="#f070d1" stroke="#000000" cx="724" cy="-60.1003" rx="77.9862" ry="18"/>
<text text-anchor="middle" x="724" y="-56.4003" font-family="Times,serif" font-size="14.00" fill="#000000">OpCompatible</text>
</a>
</g>
</g>
<!-- Congruence_OpsCompatible&#45;&gt;Congruence_OpCompatible -->
<g id="edge12" class="edge">
<title>Congruence_OpsCompatible&#45;&gt;Congruence_OpCompatible</title>
<path fill="none" stroke="#000000" d="M724,-168.9043C724,-147.8737 724,-113.0097 724,-88.4239"/>
<polygon fill="#000000" stroke="#000000" points="727.5001,-88.2625 724,-78.2625 720.5001,-88.2626 727.5001,-88.2625"/>
</g>
</g>
</svg>
