<?xml version="1.0" encoding="UTF-8" standalone="no"?>
<!DOCTYPE svg PUBLIC "-//W3C//DTD SVG 1.1//EN"
 "http://www.w3.org/Graphics/SVG/1.1/DTD/svg11.dtd">
<!-- Generated by graphviz version 2.40.1 (20161225.0304)
 -->
<!-- Title: HoTT_Basics_Contractible Pages: 1 -->
<svg width="1436pt" height="722pt"
 viewBox="0.00 0.00 1436.00 722.00" xmlns="http://www.w3.org/2000/svg" xmlns:xlink="http://www.w3.org/1999/xlink">
<g id="graph0" class="graph" transform="scale(1 1) rotate(0) translate(4 718)">
<title>HoTT_Basics_Contractible</title>
<polygon fill="#ffffff" stroke="transparent" points="-4,4 -4,-718 1432,-718 1432,4 -4,4"/>
<g id="clust1" class="cluster">
<title>cluster_Contractible</title>
<polygon fill="#ffffc3" stroke="#000000" points="8,-16.0901 8,-697.9099 1420,-697.9099 1420,-16.0901 8,-16.0901"/>
<text text-anchor="middle" x="61.5" y="-682.7099" font-family="Times,serif" font-size="14.00" fill="#000000">Contractible</text>
</g>
<!-- Contractible_contr_contr -->
<g id="node1" class="node">
<title>Contractible_contr_contr</title>
<g id="a_node1"><a xlink:href="Contractible.html#contr_contr" xlink:title="contr_contr">
<ellipse fill="#f070d1" stroke="#000000" cx="1036" cy="-583.0901" rx="65.7729" ry="18"/>
<ellipse fill="none" stroke="#000000" cx="1036" cy="-583.0901" rx="69.7808" ry="22"/>
<ellipse fill="none" stroke="#000000" cx="1036" cy="-583.0901" rx="73.7886" ry="26"/>
<text text-anchor="middle" x="1036" y="-579.3901" font-family="Times,serif" font-size="14.00" fill="#000000">contr_contr</text>
</a>
</g>
</g>
<!-- Contractible_path2_contr -->
<g id="node15" class="node">
<title>Contractible_path2_contr</title>
<g id="a_node15"><a xlink:href="Contractible.html#path2_contr" xlink:title="path2_contr">
<ellipse fill="#f070d1" stroke="#000000" cx="740" cy="-406.0901" rx="67.6881" ry="18"/>
<text text-anchor="middle" x="740" y="-402.3901" font-family="Times,serif" font-size="14.00" fill="#000000">path2_contr</text>
</a>
</g>
</g>
<!-- Contractible_contr_contr&#45;&gt;Contractible_path2_contr -->
<g id="edge1" class="edge">
<title>Contractible_contr_contr&#45;&gt;Contractible_path2_contr</title>
<path fill="none" stroke="#000000" d="M998.5114,-560.673C941.2172,-526.4126 832.5869,-461.4546 776.1217,-427.69"/>
<polygon fill="#000000" stroke="#000000" points="777.902,-424.6765 767.5232,-422.5482 774.3095,-430.6844 777.902,-424.6765"/>
</g>
<!-- Contractible_contr_change_center -->
<g id="node2" class="node">
<title>Contractible_contr_change_center</title>
<g id="a_node2"><a xlink:href="Contractible.html#contr_change_center" xlink:title="contr_change_center">
<ellipse fill="#f070d1" stroke="#000000" cx="943" cy="-406.0901" rx="109.3679" ry="18"/>
<ellipse fill="none" stroke="#000000" cx="943" cy="-406.0901" rx="113.3744" ry="22"/>
<ellipse fill="none" stroke="#000000" cx="943" cy="-406.0901" rx="117.3809" ry="26"/>
<text text-anchor="middle" x="943" y="-402.3901" font-family="Times,serif" font-size="14.00" fill="#000000">contr_change_center</text>
</a>
</g>
</g>
<!-- Contractible_path_contr -->
<g id="node16" class="node">
<title>Contractible_path_contr</title>
<g id="a_node16"><a xlink:href="Contractible.html#path_contr" xlink:title="path_contr">
<ellipse fill="#f070d1" stroke="#000000" cx="560" cy="-229.0901" rx="61.99" ry="18"/>
<text text-anchor="middle" x="560" y="-225.3901" font-family="Times,serif" font-size="14.00" fill="#000000">path_contr</text>
</a>
</g>
</g>
<!-- Contractible_contr_change_center&#45;&gt;Contractible_path_contr -->
<g id="edge2" class="edge">
<title>Contractible_contr_change_center&#45;&gt;Contractible_path_contr</title>
<path fill="none" stroke="#000000" d="M892.1406,-382.5859C815.8025,-347.307 673.0118,-281.3175 602.1368,-248.5633"/>
<polygon fill="#000000" stroke="#000000" points="603.5836,-245.3763 593.0378,-244.3583 600.647,-251.7305 603.5836,-245.3763"/>
</g>
<!-- Contractible_contr_retract -->
<g id="node3" class="node">
<title>Contractible_contr_retract</title>
<g id="a_node3"><a xlink:href="Contractible.html#contr_retract" xlink:title="contr_retract">
<ellipse fill="#f070d1" stroke="#000000" cx="863" cy="-583.0901" rx="73.3926" ry="18"/>
<ellipse fill="none" stroke="#000000" cx="863" cy="-583.0901" rx="77.3898" ry="22"/>
<ellipse fill="none" stroke="#000000" cx="863" cy="-583.0901" rx="81.387" ry="26"/>
<text text-anchor="middle" x="863" y="-579.3901" font-family="Times,serif" font-size="14.00" fill="#000000">contr_retract</text>
</a>
</g>
</g>
<!-- Contractible_contr_dom_equiv -->
<g id="node4" class="node">
<title>Contractible_contr_dom_equiv</title>
<g id="a_node4"><a xlink:href="Contractible.html#contr_dom_equiv" xlink:title="contr_dom_equiv">
<ellipse fill="#f070d1" stroke="#000000" cx="665" cy="-583.0901" rx="90.9845" ry="18"/>
<ellipse fill="none" stroke="#000000" cx="665" cy="-583.0901" rx="94.9842" ry="22"/>
<ellipse fill="none" stroke="#000000" cx="665" cy="-583.0901" rx="98.9839" ry="26"/>
<text text-anchor="middle" x="665" y="-579.3901" font-family="Times,serif" font-size="14.00" fill="#000000">contr_dom_equiv</text>
</a>
</g>
</g>
<!-- Contractible_ap_pr1_path_basedpaths_ -->
<g id="node5" class="node">
<title>Contractible_ap_pr1_path_basedpaths_</title>
<g id="a_node5"><a xlink:href="Contractible.html#ap_pr1_path_basedpaths'" xlink:title="ap_pr1_path_basedpaths&#39;">
<ellipse fill="#f070d1" stroke="#000000" cx="1275" cy="-229.0901" rx="129.1866" ry="18"/>
<ellipse fill="none" stroke="#000000" cx="1275" cy="-229.0901" rx="133.1819" ry="22"/>
<ellipse fill="none" stroke="#000000" cx="1275" cy="-229.0901" rx="137.1772" ry="26"/>
<text text-anchor="middle" x="1275" y="-225.3901" font-family="Times,serif" font-size="14.00" fill="#000000">ap_pr1_path_basedpaths&#39;</text>
</a>
</g>
</g>
<!-- Contractible_path_basedpaths_ -->
<g id="node10" class="node">
<title>Contractible_path_basedpaths_</title>
<g id="a_node10"><a xlink:href="Contractible.html#path_basedpaths'" xlink:title="path_basedpaths&#39;">
<ellipse fill="#f070d1" stroke="#000000" cx="1149" cy="-68.0901" rx="92.0841" ry="18"/>
<text text-anchor="middle" x="1149" y="-64.3901" font-family="Times,serif" font-size="14.00" fill="#000000">path_basedpaths&#39;</text>
</a>
</g>
</g>
<!-- Contractible_ap_pr1_path_basedpaths_&#45;&gt;Contractible_path_basedpaths_ -->
<g id="edge3" class="edge">
<title>Contractible_ap_pr1_path_basedpaths_&#45;&gt;Contractible_path_basedpaths_</title>
<path fill="none" stroke="#000000" d="M1254.7559,-203.2227C1231.2288,-173.1603 1192.639,-123.8511 1169.1515,-93.8393"/>
<polygon fill="#000000" stroke="#000000" points="1171.8718,-91.6361 1162.9524,-85.9182 1166.3592,-95.9503 1171.8718,-91.6361"/>
</g>
<!-- Contractible_ap_pr1_path_basedpaths -->
<g id="node6" class="node">
<title>Contractible_ap_pr1_path_basedpaths</title>
<g id="a_node6"><a xlink:href="Contractible.html#ap_pr1_path_basedpaths" xlink:title="ap_pr1_path_basedpaths">
<ellipse fill="#f070d1" stroke="#000000" cx="774" cy="-229.0901" rx="126.9637" ry="18"/>
<ellipse fill="none" stroke="#000000" cx="774" cy="-229.0901" rx="130.9708" ry="22"/>
<ellipse fill="none" stroke="#000000" cx="774" cy="-229.0901" rx="134.9779" ry="26"/>
<text text-anchor="middle" x="774" y="-225.3901" font-family="Times,serif" font-size="14.00" fill="#000000">ap_pr1_path_basedpaths</text>
</a>
</g>
</g>
<!-- Contractible_path_basedpaths -->
<g id="node13" class="node">
<title>Contractible_path_basedpaths</title>
<g id="a_node13"><a xlink:href="Contractible.html#path_basedpaths" xlink:title="path_basedpaths">
<ellipse fill="#f070d1" stroke="#000000" cx="580" cy="-68.0901" rx="89.8845" ry="18"/>
<text text-anchor="middle" x="580" y="-64.3901" font-family="Times,serif" font-size="14.00" fill="#000000">path_basedpaths</text>
</a>
</g>
</g>
<!-- Contractible_ap_pr1_path_basedpaths&#45;&gt;Contractible_path_basedpaths -->
<g id="edge4" class="edge">
<title>Contractible_ap_pr1_path_basedpaths&#45;&gt;Contractible_path_basedpaths</title>
<path fill="none" stroke="#000000" d="M743.2601,-203.5792C706.4091,-172.9966 645.1178,-122.1312 609.0388,-92.1893"/>
<polygon fill="#000000" stroke="#000000" points="611.2373,-89.4656 601.3069,-85.7727 606.7669,-94.8523 611.2373,-89.4656"/>
</g>
<!-- Contractible_ap_pr1_path_contr_basedpaths_ -->
<g id="node7" class="node">
<title>Contractible_ap_pr1_path_contr_basedpaths_</title>
<g id="a_node7"><a xlink:href="Contractible.html#ap_pr1_path_contr_basedpaths'" xlink:title="ap_pr1_path_contr_basedpaths&#39;">
<ellipse fill="#f070d1" stroke="#000000" cx="1245" cy="-406.0901" rx="159.4608" ry="18"/>
<ellipse fill="none" stroke="#000000" cx="1245" cy="-406.0901" rx="163.4664" ry="22"/>
<ellipse fill="none" stroke="#000000" cx="1245" cy="-406.0901" rx="167.4721" ry="26"/>
<text text-anchor="middle" x="1245" y="-402.3901" font-family="Times,serif" font-size="14.00" fill="#000000">ap_pr1_path_contr_basedpaths&#39;</text>
</a>
</g>
</g>
<!-- Contractible_contr_basedpaths_ -->
<g id="node9" class="node">
<title>Contractible_contr_basedpaths_</title>
<g id="a_node9"><a xlink:href="Contractible.html#contr_basedpaths'" xlink:title="contr_basedpaths&#39;">
<ellipse fill="#f070d1" stroke="#000000" cx="1023" cy="-229.0901" rx="96.3833" ry="18"/>
<text text-anchor="middle" x="1023" y="-225.3901" font-family="Times,serif" font-size="14.00" fill="#000000">contr_basedpaths&#39;</text>
</a>
</g>
</g>
<!-- Contractible_ap_pr1_path_contr_basedpaths_&#45;&gt;Contractible_contr_basedpaths_ -->
<g id="edge5" class="edge">
<title>Contractible_ap_pr1_path_contr_basedpaths_&#45;&gt;Contractible_contr_basedpaths_</title>
<path fill="none" stroke="#000000" d="M1212.7193,-380.3528C1169.878,-346.1956 1094.8043,-286.3395 1053.0939,-253.084"/>
<polygon fill="#000000" stroke="#000000" points="1055.2171,-250.3005 1045.2161,-246.803 1050.8532,-255.7738 1055.2171,-250.3005"/>
</g>
<!-- Contractible_ap_pr1_path_contr_basedpaths_&#45;&gt;Contractible_path_contr -->
<g id="edge6" class="edge">
<title>Contractible_ap_pr1_path_contr_basedpaths_&#45;&gt;Contractible_path_contr</title>
<path fill="none" stroke="#000000" d="M1144.9811,-385.2404C1022.4853,-358.8575 809.1783,-310.1635 630,-255.0901 622.2473,-252.7072 614.1033,-249.9362 606.2221,-247.1091"/>
<polygon fill="#000000" stroke="#000000" points="607.377,-243.8048 596.7832,-243.6551 604.9714,-250.3784 607.377,-243.8048"/>
</g>
<!-- Contractible_ap_pr1_path_contr_basedpaths -->
<g id="node8" class="node">
<title>Contractible_ap_pr1_path_contr_basedpaths</title>
<g id="a_node8"><a xlink:href="Contractible.html#ap_pr1_path_contr_basedpaths" xlink:title="ap_pr1_path_contr_basedpaths">
<ellipse fill="#f070d1" stroke="#000000" cx="490" cy="-406.0901" rx="156.7657" ry="18"/>
<ellipse fill="none" stroke="#000000" cx="490" cy="-406.0901" rx="160.769" ry="22"/>
<ellipse fill="none" stroke="#000000" cx="490" cy="-406.0901" rx="164.7723" ry="26"/>
<text text-anchor="middle" x="490" y="-402.3901" font-family="Times,serif" font-size="14.00" fill="#000000">ap_pr1_path_contr_basedpaths</text>
</a>
</g>
</g>
<!-- Contractible_contr_basedpaths -->
<g id="node12" class="node">
<title>Contractible_contr_basedpaths</title>
<g id="a_node12"><a xlink:href="Contractible.html#contr_basedpaths" xlink:title="contr_basedpaths">
<ellipse fill="#f070d1" stroke="#000000" cx="387" cy="-229.0901" rx="93.6835" ry="18"/>
<text text-anchor="middle" x="387" y="-225.3901" font-family="Times,serif" font-size="14.00" fill="#000000">contr_basedpaths</text>
</a>
</g>
</g>
<!-- Contractible_ap_pr1_path_contr_basedpaths&#45;&gt;Contractible_contr_basedpaths -->
<g id="edge7" class="edge">
<title>Contractible_ap_pr1_path_contr_basedpaths&#45;&gt;Contractible_contr_basedpaths</title>
<path fill="none" stroke="#000000" d="M474.802,-379.9732C455.4672,-346.7473 422.2427,-289.6529 402.6802,-256.0357"/>
<polygon fill="#000000" stroke="#000000" points="405.6025,-254.0986 397.5478,-247.2159 399.5523,-257.6194 405.6025,-254.0986"/>
</g>
<!-- Contractible_ap_pr1_path_contr_basedpaths&#45;&gt;Contractible_path_contr -->
<g id="edge8" class="edge">
<title>Contractible_ap_pr1_path_contr_basedpaths&#45;&gt;Contractible_path_contr</title>
<path fill="none" stroke="#000000" d="M500.3287,-379.9732C513.3566,-347.0313 535.6633,-290.6271 549.0006,-256.9028"/>
<polygon fill="#000000" stroke="#000000" points="552.4086,-257.8023 552.8316,-247.2159 545.8992,-255.2279 552.4086,-257.8023"/>
</g>
<!-- Contractible_contr_basedpaths_&#45;&gt;Contractible_path_basedpaths_ -->
<g id="edge9" class="edge">
<title>Contractible_contr_basedpaths_&#45;&gt;Contractible_path_basedpaths_</title>
<path fill="none" stroke="#000000" d="M1036.9656,-211.2452C1059.1986,-182.8363 1102.7539,-127.1824 1128.5188,-94.2606"/>
<polygon fill="#000000" stroke="#000000" points="1131.565,-96.0472 1134.9718,-86.015 1126.0524,-91.733 1131.565,-96.0472"/>
</g>
<!-- Contractible_contr_basedpaths_etashort -->
<g id="node11" class="node">
<title>Contractible_contr_basedpaths_etashort</title>
<g id="a_node11"><a xlink:href="Contractible.html#contr_basedpaths_etashort" xlink:title="contr_basedpaths_etashort">
<ellipse fill="#f070d1" stroke="#000000" cx="162" cy="-406.0901" rx="137.5875" ry="18"/>
<ellipse fill="none" stroke="#000000" cx="162" cy="-406.0901" rx="141.5817" ry="22"/>
<ellipse fill="none" stroke="#000000" cx="162" cy="-406.0901" rx="145.5759" ry="26"/>
<text text-anchor="middle" x="162" y="-402.3901" font-family="Times,serif" font-size="14.00" fill="#000000">contr_basedpaths_etashort</text>
</a>
</g>
</g>
<!-- Contractible_contr_basedpaths_etashort&#45;&gt;Contractible_contr_basedpaths -->
<g id="edge10" class="edge">
<title>Contractible_contr_basedpaths_etashort&#45;&gt;Contractible_contr_basedpaths</title>
<path fill="none" stroke="#000000" d="M194.237,-380.7304C237.6398,-346.5868 314.3001,-286.2807 356.6912,-252.933"/>
<polygon fill="#000000" stroke="#000000" points="358.997,-255.5724 364.6925,-246.6387 354.6689,-250.0707 358.997,-255.5724"/>
</g>
<!-- Contractible_contr_basedpaths&#45;&gt;Contractible_path_basedpaths -->
<g id="edge11" class="edge">
<title>Contractible_contr_basedpaths&#45;&gt;Contractible_path_basedpaths</title>
<path fill="none" stroke="#000000" d="M408.3918,-211.2452C443.1184,-182.2763 511.8056,-124.9777 550.9295,-92.3407"/>
<polygon fill="#000000" stroke="#000000" points="553.3696,-94.8631 558.8065,-85.7697 548.8855,-89.4878 553.3696,-94.8631"/>
</g>
<!-- Contractible_contr_paths_contr -->
<g id="node14" class="node">
<title>Contractible_contr_paths_contr</title>
<g id="a_node14"><a xlink:href="Contractible.html#contr_paths_contr" xlink:title="contr_paths_contr">
<ellipse fill="#f070d1" stroke="#000000" cx="444" cy="-583.0901" rx="96.3686" ry="18"/>
<ellipse fill="none" stroke="#000000" cx="444" cy="-583.0901" rx="100.3759" ry="22"/>
<ellipse fill="none" stroke="#000000" cx="444" cy="-583.0901" rx="104.3833" ry="26"/>
<text text-anchor="middle" x="444" y="-579.3901" font-family="Times,serif" font-size="14.00" fill="#000000">contr_paths_contr</text>
</a>
</g>
</g>
<!-- Contractible_contr_paths_contr&#45;&gt;Contractible_path2_contr -->
<g id="edge12" class="edge">
<title>Contractible_contr_paths_contr&#45;&gt;Contractible_path2_contr</title>
<path fill="none" stroke="#000000" d="M484.2279,-559.0349C542.0254,-524.4736 647.717,-461.2729 703.4183,-427.965"/>
<polygon fill="#000000" stroke="#000000" points="705.453,-430.8264 712.2393,-422.6903 701.8605,-424.8186 705.453,-430.8264"/>
</g>
<!-- Contractible_path2_contr&#45;&gt;Contractible_path_contr -->
<g id="edge13" class="edge">
<title>Contractible_path2_contr&#45;&gt;Contractible_path_contr</title>
<path fill="none" stroke="#000000" d="M722.0828,-388.4716C689.7886,-356.7156 621.76,-289.8208 584.9387,-253.6132"/>
<polygon fill="#000000" stroke="#000000" points="587.1634,-250.8922 577.5792,-246.3763 582.2554,-255.8834 587.1634,-250.8922"/>
</g>
</g>
</svg>
