<?xml version="1.0" encoding="UTF-8" standalone="no"?>
<!DOCTYPE svg PUBLIC "-//W3C//DTD SVG 1.1//EN"
 "http://www.w3.org/Graphics/SVG/1.1/DTD/svg11.dtd">
<!-- Generated by graphviz version 2.40.1 (20161225.0304)
 -->
<!-- Title: HoTT_NullHomotopy Pages: 1 -->
<svg width="2011pt" height="1010pt"
 viewBox="0.00 0.00 2011.00 1009.50" xmlns="http://www.w3.org/2000/svg" xmlns:xlink="http://www.w3.org/1999/xlink">
<g id="graph0" class="graph" transform="scale(1 1) rotate(0) translate(4 1005.5)">
<title>HoTT_NullHomotopy</title>
<polygon fill="#ffffff" stroke="transparent" points="-4,4 -4,-1005.5 2007,-1005.5 2007,4 -4,4"/>
<g id="clust1" class="cluster">
<title>cluster_NullHomotopy</title>
<polygon fill="#ffffc3" stroke="#000000" points="8,-44.7598 8,-956.7402 1995,-956.7402 1995,-44.7598 8,-44.7598"/>
<text text-anchor="middle" x="69" y="-941.5402" font-family="Times,serif" font-size="14.00" fill="#000000">NullHomotopy</text>
</g>
<!-- NullHomotopy_nullhomotopy_ap -->
<g id="node1" class="node">
<title>NullHomotopy_nullhomotopy_ap</title>
<g id="a_node1"><a xlink:href="NullHomotopy.html#nullhomotopy_ap" xlink:title="nullhomotopy_ap">
<ellipse fill="#f070d1" stroke="#000000" cx="1889" cy="-637.7598" rx="90.1971" ry="18"/>
<ellipse fill="none" stroke="#000000" cx="1889" cy="-637.7598" rx="94.1906" ry="22"/>
<ellipse fill="none" stroke="#000000" cx="1889" cy="-637.7598" rx="98.1842" ry="26"/>
<text text-anchor="middle" x="1889" y="-634.0598" font-family="Times,serif" font-size="14.00" fill="#000000">nullhomotopy_ap</text>
</a>
</g>
</g>
<!-- NullHomotopy_NullHomotopy -->
<g id="node8" class="node">
<title>NullHomotopy_NullHomotopy</title>
<g id="a_node8"><a xlink:href="NullHomotopy.html#NullHomotopy" xlink:title="NullHomotopy">
<ellipse fill="#f070d1" stroke="#000000" cx="986" cy="-189.7598" rx="79.0865" ry="18"/>
<text text-anchor="middle" x="986" y="-186.0598" font-family="Times,serif" font-size="14.00" fill="#000000">NullHomotopy</text>
</a>
</g>
</g>
<!-- NullHomotopy_nullhomotopy_ap&#45;&gt;NullHomotopy_NullHomotopy -->
<g id="edge1" class="edge">
<title>NullHomotopy_nullhomotopy_ap&#45;&gt;NullHomotopy_NullHomotopy</title>
<path fill="none" stroke="#000000" d="M1842.6659,-614.7723C1686.1596,-537.1258 1178.5466,-285.2868 1028.2806,-210.7362"/>
<polygon fill="#000000" stroke="#000000" points="1029.8322,-207.599 1019.3186,-206.2899 1026.7212,-213.8697 1029.8322,-207.599"/>
</g>
<!-- NullHomotopy_cancelR_nullhomotopy_equiv -->
<g id="node2" class="node">
<title>NullHomotopy_cancelR_nullhomotopy_equiv</title>
<g id="a_node2"><a xlink:href="NullHomotopy.html#cancelR_nullhomotopy_equiv" xlink:title="cancelR_nullhomotopy_equiv">
<ellipse fill="#f070d1" stroke="#000000" cx="1618" cy="-637.7598" rx="146.4621" ry="18"/>
<ellipse fill="none" stroke="#000000" cx="1618" cy="-637.7598" rx="150.4683" ry="22"/>
<ellipse fill="none" stroke="#000000" cx="1618" cy="-637.7598" rx="154.4744" ry="26"/>
<text text-anchor="middle" x="1618" y="-634.0598" font-family="Times,serif" font-size="14.00" fill="#000000">cancelR_nullhomotopy_equiv</text>
</a>
</g>
</g>
<!-- NullHomotopy_cancelR_nullhomotopy_equiv&#45;&gt;NullHomotopy_NullHomotopy -->
<g id="edge2" class="edge">
<title>NullHomotopy_cancelR_nullhomotopy_equiv&#45;&gt;NullHomotopy_NullHomotopy</title>
<path fill="none" stroke="#000000" d="M1582.2101,-612.3897C1469.9636,-532.8226 1125.9409,-288.9584 1018.4455,-212.7591"/>
<polygon fill="#000000" stroke="#000000" points="1020.4242,-209.8716 1010.2419,-206.9439 1016.376,-215.5824 1020.4242,-209.8716"/>
</g>
<!-- NullHomotopy_cancelL_nullhomotopy_equiv -->
<g id="node3" class="node">
<title>NullHomotopy_cancelL_nullhomotopy_equiv</title>
<g id="a_node3"><a xlink:href="NullHomotopy.html#cancelL_nullhomotopy_equiv" xlink:title="cancelL_nullhomotopy_equiv">
<ellipse fill="#f070d1" stroke="#000000" cx="1292" cy="-637.7598" rx="145.6697" ry="18"/>
<ellipse fill="none" stroke="#000000" cx="1292" cy="-637.7598" rx="149.6719" ry="22"/>
<ellipse fill="none" stroke="#000000" cx="1292" cy="-637.7598" rx="153.6742" ry="26"/>
<text text-anchor="middle" x="1292" y="-634.0598" font-family="Times,serif" font-size="14.00" fill="#000000">cancelL_nullhomotopy_equiv</text>
</a>
</g>
</g>
<!-- NullHomotopy_cancelL_nullhomotopy_equiv&#45;&gt;NullHomotopy_NullHomotopy -->
<g id="edge3" class="edge">
<title>NullHomotopy_cancelL_nullhomotopy_equiv&#45;&gt;NullHomotopy_NullHomotopy</title>
<path fill="none" stroke="#000000" d="M1274.2255,-611.737C1220.1843,-532.6178 1058.2229,-295.4979 1003.9495,-216.0387"/>
<polygon fill="#000000" stroke="#000000" points="1006.6971,-213.8559 998.1666,-207.5724 1000.9167,-217.8041 1006.6971,-213.8559"/>
</g>
<!-- NullHomotopy_nullhomotopy_composeL -->
<g id="node4" class="node">
<title>NullHomotopy_nullhomotopy_composeL</title>
<g id="a_node4"><a xlink:href="NullHomotopy.html#nullhomotopy_composeL" xlink:title="nullhomotopy_composeL">
<ellipse fill="#f070d1" stroke="#000000" cx="986" cy="-637.7598" rx="126.1724" ry="18"/>
<ellipse fill="none" stroke="#000000" cx="986" cy="-637.7598" rx="130.175" ry="22"/>
<ellipse fill="none" stroke="#000000" cx="986" cy="-637.7598" rx="134.1777" ry="26"/>
<text text-anchor="middle" x="986" y="-634.0598" font-family="Times,serif" font-size="14.00" fill="#000000">nullhomotopy_composeL</text>
</a>
</g>
</g>
<!-- NullHomotopy_nullhomotopy_composeL&#45;&gt;NullHomotopy_NullHomotopy -->
<g id="edge4" class="edge">
<title>NullHomotopy_nullhomotopy_composeL&#45;&gt;NullHomotopy_NullHomotopy</title>
<path fill="none" stroke="#000000" d="M986,-611.737C986,-533.278 986,-299.444 986,-218.0605"/>
<polygon fill="#000000" stroke="#000000" points="989.5001,-218.0484 986,-208.0485 982.5001,-218.0485 989.5001,-218.0484"/>
</g>
<!-- NullHomotopy_nullhomotopy_composeR -->
<g id="node5" class="node">
<title>NullHomotopy_nullhomotopy_composeR</title>
<g id="a_node5"><a xlink:href="NullHomotopy.html#nullhomotopy_composeR" xlink:title="nullhomotopy_composeR">
<ellipse fill="#f070d1" stroke="#000000" cx="699" cy="-637.7598" rx="126.9637" ry="18"/>
<ellipse fill="none" stroke="#000000" cx="699" cy="-637.7598" rx="130.9708" ry="22"/>
<ellipse fill="none" stroke="#000000" cx="699" cy="-637.7598" rx="134.9779" ry="26"/>
<text text-anchor="middle" x="699" y="-634.0598" font-family="Times,serif" font-size="14.00" fill="#000000">nullhomotopy_composeR</text>
</a>
</g>
</g>
<!-- NullHomotopy_nullhomotopy_composeR&#45;&gt;NullHomotopy_NullHomotopy -->
<g id="edge5" class="edge">
<title>NullHomotopy_nullhomotopy_composeR&#45;&gt;NullHomotopy_NullHomotopy</title>
<path fill="none" stroke="#000000" d="M715.6709,-611.737C766.2414,-532.7976 917.5716,-296.5749 968.8164,-216.5829"/>
<polygon fill="#000000" stroke="#000000" points="971.8366,-218.3568 974.2838,-208.0485 965.9424,-214.5808 971.8366,-218.3568"/>
</g>
<!-- NullHomotopy_nullhomotopy_homotopic -->
<g id="node6" class="node">
<title>NullHomotopy_nullhomotopy_homotopic</title>
<g id="a_node6"><a xlink:href="NullHomotopy.html#nullhomotopy_homotopic" xlink:title="nullhomotopy_homotopic">
<ellipse fill="#f070d1" stroke="#000000" cx="410" cy="-637.7598" rx="128.075" ry="18"/>
<ellipse fill="none" stroke="#000000" cx="410" cy="-637.7598" rx="132.0762" ry="22"/>
<ellipse fill="none" stroke="#000000" cx="410" cy="-637.7598" rx="136.0773" ry="26"/>
<text text-anchor="middle" x="410" y="-634.0598" font-family="Times,serif" font-size="14.00" fill="#000000">nullhomotopy_homotopic</text>
</a>
</g>
</g>
<!-- NullHomotopy_nullhomotopy_homotopic&#45;&gt;NullHomotopy_NullHomotopy -->
<g id="edge6" class="edge">
<title>NullHomotopy_nullhomotopy_homotopic&#45;&gt;NullHomotopy_NullHomotopy</title>
<path fill="none" stroke="#000000" d="M442.6186,-612.3897C544.5984,-533.0721 856.4944,-290.4864 955.5013,-213.481"/>
<polygon fill="#000000" stroke="#000000" points="957.8604,-216.0802 963.6052,-207.178 953.5628,-210.5547 957.8604,-216.0802"/>
</g>
<!-- NullHomotopy_istrunc_nullhomotopy -->
<g id="node7" class="node">
<title>NullHomotopy_istrunc_nullhomotopy</title>
<g id="a_node7"><a xlink:href="NullHomotopy.html#istrunc_nullhomotopy" xlink:title="istrunc_nullhomotopy">
<ellipse fill="#f070d1" stroke="#000000" cx="136" cy="-637.7598" rx="112.3841" ry="18"/>
<ellipse fill="none" stroke="#000000" cx="136" cy="-637.7598" rx="116.3821" ry="22"/>
<ellipse fill="none" stroke="#000000" cx="136" cy="-637.7598" rx="120.3801" ry="26"/>
<text text-anchor="middle" x="136" y="-634.0598" font-family="Times,serif" font-size="14.00" fill="#000000">istrunc_nullhomotopy</text>
</a>
</g>
</g>
<!-- NullHomotopy_istrunc_nullhomotopy&#45;&gt;NullHomotopy_NullHomotopy -->
<g id="edge7" class="edge">
<title>NullHomotopy_istrunc_nullhomotopy&#45;&gt;NullHomotopy_NullHomotopy</title>
<path fill="none" stroke="#000000" d="M181.6997,-613.6734C331.0289,-534.9681 803.1317,-286.1421 945.1771,-211.2758"/>
<polygon fill="#000000" stroke="#000000" points="947.2233,-214.1538 954.4378,-206.3949 943.9594,-207.9613 947.2233,-214.1538"/>
</g>
</g>
</svg>
