<?xml version="1.0" encoding="UTF-8" standalone="no"?>
<!DOCTYPE svg PUBLIC "-//W3C//DTD SVG 1.1//EN"
 "http://www.w3.org/Graphics/SVG/1.1/DTD/svg11.dtd">
<!-- Generated by graphviz version 2.40.1 (20161225.0304)
 -->
<!-- Title: HoTT_PropResizing_PropResizing Pages: 1 -->
<svg width="686pt" height="347pt"
 viewBox="0.00 0.00 686.00 347.00" xmlns="http://www.w3.org/2000/svg" xmlns:xlink="http://www.w3.org/1999/xlink">
<g id="graph0" class="graph" transform="scale(1 1) rotate(0) translate(4 343)">
<title>HoTT_PropResizing_PropResizing</title>
<polygon fill="#ffffff" stroke="transparent" points="-4,4 -4,-343 682,-343 682,4 -4,4"/>
<g id="clust1" class="cluster">
<title>cluster_PropResizing</title>
<polygon fill="#ffffc3" stroke="#000000" points="10.7833,-8 10.7833,-331 667.2167,-331 667.2167,-8 10.7833,-8"/>
<text text-anchor="middle" x="66.2833" y="-315.8" font-family="Times,serif" font-size="14.00" fill="#000000">PropResizing</text>
</g>
<!-- PropResizing_ishprop_resize_hprop -->
<g id="node1" class="node">
<title>PropResizing_ishprop_resize_hprop</title>
<g id="a_node1"><a xlink:href="PropResizing.html#ishprop_resize_hprop" xlink:title="ishprop_resize_hprop">
<ellipse fill="#f070d1" stroke="#000000" cx="497.3579" cy="-274" rx="110.4811" ry="18"/>
<ellipse fill="none" stroke="#000000" cx="497.3579" cy="-274" rx="114.4807" ry="22"/>
<ellipse fill="none" stroke="#000000" cx="497.3579" cy="-274" rx="118.4804" ry="26"/>
<text text-anchor="middle" x="497.3579" y="-270.3" font-family="Times,serif" font-size="14.00" fill="#000000">ishprop_resize_hprop</text>
</a>
</g>
</g>
<!-- PropResizing_equiv_resize_hprop -->
<g id="node2" class="node">
<title>PropResizing_equiv_resize_hprop</title>
<g id="a_node2"><a xlink:href="PropResizing.html#equiv_resize_hprop" xlink:title="equiv_resize_hprop">
<ellipse fill="#facdef" stroke="#000000" cx="508.3579" cy="-194" rx="100.9827" ry="18"/>
<text text-anchor="middle" x="508.3579" y="-190.3" font-family="Times,serif" font-size="14.00" fill="#000000">equiv_resize_hprop</text>
</a>
</g>
</g>
<!-- PropResizing_ishprop_resize_hprop&#45;&gt;PropResizing_equiv_resize_hprop -->
<g id="edge1" class="edge">
<title>PropResizing_ishprop_resize_hprop&#45;&gt;PropResizing_equiv_resize_hprop</title>
<path fill="none" stroke="#000000" d="M500.9597,-247.805C502.0875,-239.6026 503.3367,-230.5174 504.4826,-222.1839"/>
<polygon fill="#000000" stroke="#000000" points="507.9669,-222.5368 505.8618,-212.1532 501.0321,-221.5832 507.9669,-222.5368"/>
</g>
<!-- PropResizing_resize_hprop -->
<g id="node3" class="node">
<title>PropResizing_resize_hprop</title>
<g id="a_node3"><a xlink:href="PropResizing.html#resize_hprop" xlink:title="resize_hprop">
<ellipse fill="#facdef" stroke="#000000" cx="560.3579" cy="-114" rx="70.6878" ry="18"/>
<text text-anchor="middle" x="560.3579" y="-110.3" font-family="Times,serif" font-size="14.00" fill="#000000">resize_hprop</text>
</a>
</g>
</g>
<!-- PropResizing_equiv_resize_hprop&#45;&gt;PropResizing_resize_hprop -->
<g id="edge2" class="edge">
<title>PropResizing_equiv_resize_hprop&#45;&gt;PropResizing_resize_hprop</title>
<path fill="none" stroke="#000000" d="M520.1575,-175.8468C526.9867,-165.3402 535.7015,-151.9329 543.27,-140.289"/>
<polygon fill="#000000" stroke="#000000" points="546.2687,-142.0977 548.7841,-131.8058 540.3996,-138.2828 546.2687,-142.0977"/>
</g>
<!-- PropResizing_PropResizing -->
<g id="node5" class="node">
<title>PropResizing_PropResizing</title>
<g id="a_node5"><a xlink:href="PropResizing.html#PropResizing" xlink:title="PropResizing">
<ellipse fill="#facdef" stroke="#000000" cx="395.3579" cy="-34" rx="72.2875" ry="18"/>
<text text-anchor="middle" x="395.3579" y="-30.3" font-family="Times,serif" font-size="14.00" fill="#000000">PropResizing</text>
</a>
</g>
</g>
<!-- PropResizing_resize_hprop&#45;&gt;PropResizing_PropResizing -->
<g id="edge3" class="edge">
<title>PropResizing_resize_hprop&#45;&gt;PropResizing_PropResizing</title>
<path fill="none" stroke="#000000" d="M527.3642,-98.0031C501.5936,-85.5082 465.5959,-68.0548 437.7,-54.5295"/>
<polygon fill="#000000" stroke="#000000" points="439.1018,-51.3195 428.5767,-50.1061 436.0479,-57.6182 439.1018,-51.3195"/>
</g>
<!-- PropResizing_is_global_axiom_propresizing -->
<g id="node4" class="node">
<title>PropResizing_is_global_axiom_propresizing</title>
<g id="a_node4"><a xlink:href="PropResizing.html#is_global_axiom_propresizing" xlink:title="is_global_axiom_propresizing">
<ellipse fill="#7fffd4" stroke="#000000" cx="231.3579" cy="-114" rx="147.5719" ry="18"/>
<ellipse fill="none" stroke="#000000" cx="231.3579" cy="-114" rx="151.5729" ry="22"/>
<ellipse fill="none" stroke="#000000" cx="231.3579" cy="-114" rx="155.5738" ry="26"/>
<text text-anchor="middle" x="231.3579" y="-110.3" font-family="Times,serif" font-size="14.00" fill="#000000">is_global_axiom_propresizing</text>
</a>
</g>
</g>
<!-- PropResizing_is_global_axiom_propresizing&#45;&gt;PropResizing_PropResizing -->
<g id="edge4" class="edge">
<title>PropResizing_is_global_axiom_propresizing&#45;&gt;PropResizing_PropResizing</title>
<path fill="none" stroke="#000000" d="M281.9014,-89.3446C304.795,-78.177 331.5444,-65.1285 353.3182,-54.5071"/>
<polygon fill="#000000" stroke="#000000" points="354.8664,-57.6462 362.3195,-50.1162 351.7973,-51.3548 354.8664,-57.6462"/>
</g>
</g>
</svg>
