<?xml version="1.0" encoding="UTF-8" standalone="no"?>
<!DOCTYPE svg PUBLIC "-//W3C//DTD SVG 1.1//EN"
 "http://www.w3.org/Graphics/SVG/1.1/DTD/svg11.dtd">
<!-- Generated by graphviz version 2.40.1 (20161225.0304)
 -->
<!-- Title: HoTT_Classes_interfaces_rationals Pages: 1 -->
<svg width="1417pt" height="713pt"
 viewBox="0.00 0.00 1417.00 712.50" xmlns="http://www.w3.org/2000/svg" xmlns:xlink="http://www.w3.org/1999/xlink">
<g id="graph0" class="graph" transform="scale(1 1) rotate(0) translate(4 708.5)">
<title>HoTT_Classes_interfaces_rationals</title>
<polygon fill="#ffffff" stroke="transparent" points="-4,4 -4,-708.5 1413,-708.5 1413,4 -4,4"/>
<g id="clust1" class="cluster">
<title>cluster_rationals</title>
<polygon fill="#ffffc3" stroke="#000000" points="8,-13.7129 8,-690.7871 1401,-690.7871 1401,-13.7129 8,-13.7129"/>
<text text-anchor="middle" x="48" y="-675.5871" font-family="Times,serif" font-size="14.00" fill="#000000">rationals</text>
</g>
<!-- rationals_rationals_initial -->
<g id="node1" class="node">
<title>rationals_rationals_initial</title>
<g id="a_node1"><a xlink:href="rationals.html#rationals_initial" xlink:title="rationals_initial">
<ellipse fill="#f070d1" stroke="#000000" cx="1302" cy="-442.7129" rx="83.3687" ry="18"/>
<ellipse fill="none" stroke="#000000" cx="1302" cy="-442.7129" rx="87.3772" ry="22"/>
<ellipse fill="none" stroke="#000000" cx="1302" cy="-442.7129" rx="91.3856" ry="26"/>
<text text-anchor="middle" x="1302" y="-439.0129" font-family="Times,serif" font-size="14.00" fill="#000000">rationals_initial</text>
</a>
</g>
</g>
<!-- rationals_Rationals -->
<g id="node10" class="node">
<title>rationals_Rationals</title>
<g id="a_node10"><a xlink:href="rationals.html#Rationals" xlink:title="Rationals">
<ellipse fill="#e2cdfa" stroke="#000000" cx="552" cy="-304.7129" rx="53.8905" ry="18"/>
<text text-anchor="middle" x="552" y="-301.0129" font-family="Times,serif" font-size="14.00" fill="#000000">Rationals</text>
</a>
</g>
</g>
<!-- rationals_rationals_initial&#45;&gt;rationals_Rationals -->
<g id="edge1" class="edge">
<title>rationals_rationals_initial&#45;&gt;rationals_Rationals</title>
<path fill="none" stroke="#000000" d="M1235.629,-424.8112C1224.1205,-421.9412 1212.2416,-419.1257 1201,-416.7129 985.3206,-370.4216 726.1256,-330.2926 611.498,-313.3288"/>
<polygon fill="#000000" stroke="#000000" points="611.9232,-309.8537 601.5194,-311.8566 610.9015,-316.7788 611.9232,-309.8537"/>
</g>
<!-- rationals_rationals_to_field_mor -->
<g id="node2" class="node">
<title>rationals_rationals_to_field_mor</title>
<g id="a_node2"><a xlink:href="rationals.html#rationals_to_field_mor" xlink:title="rationals_to_field_mor">
<ellipse fill="#f070d1" stroke="#000000" cx="1070" cy="-442.7129" rx="114.287" ry="18"/>
<ellipse fill="none" stroke="#000000" cx="1070" cy="-442.7129" rx="118.2834" ry="22"/>
<ellipse fill="none" stroke="#000000" cx="1070" cy="-442.7129" rx="122.2798" ry="26"/>
<text text-anchor="middle" x="1070" y="-439.0129" font-family="Times,serif" font-size="14.00" fill="#000000">rationals_to_field_mor</text>
</a>
</g>
</g>
<!-- rationals_rationals_to_field_mor&#45;&gt;rationals_Rationals -->
<g id="edge2" class="edge">
<title>rationals_rationals_to_field_mor&#45;&gt;rationals_Rationals</title>
<path fill="none" stroke="#000000" d="M993.5673,-422.3505C886.8274,-393.914 695.9147,-343.0531 604.1119,-318.596"/>
<polygon fill="#000000" stroke="#000000" points="604.7791,-315.1517 594.2151,-315.9594 602.977,-321.9158 604.7791,-315.1517"/>
</g>
<!-- rationals_rationals_order -->
<g id="node3" class="node">
<title>rationals_rationals_order</title>
<g id="a_node3"><a xlink:href="rationals.html#rationals_order" xlink:title="rationals_order">
<ellipse fill="#f070d1" stroke="#000000" cx="840" cy="-442.7129" rx="81.7951" ry="18"/>
<ellipse fill="none" stroke="#000000" cx="840" cy="-442.7129" rx="85.7904" ry="22"/>
<ellipse fill="none" stroke="#000000" cx="840" cy="-442.7129" rx="89.7856" ry="26"/>
<text text-anchor="middle" x="840" y="-439.0129" font-family="Times,serif" font-size="14.00" fill="#000000">rationals_order</text>
</a>
</g>
</g>
<!-- rationals_rationals_order&#45;&gt;rationals_Rationals -->
<g id="edge3" class="edge">
<title>rationals_rationals_order&#45;&gt;rationals_Rationals</title>
<path fill="none" stroke="#000000" d="M793.4077,-420.3874C737.5398,-393.6174 644.8467,-349.2019 592.055,-323.9059"/>
<polygon fill="#000000" stroke="#000000" points="593.5247,-320.7291 582.9941,-319.5642 590.4998,-327.0418 593.5247,-320.7291"/>
</g>
<!-- rationals_rationals_field -->
<g id="node4" class="node">
<title>rationals_rationals_field</title>
<g id="a_node4"><a xlink:href="rationals.html#rationals_field" xlink:title="rationals_field">
<ellipse fill="#f070d1" stroke="#000000" cx="647" cy="-442.7129" rx="77.2012" ry="18"/>
<ellipse fill="none" stroke="#000000" cx="647" cy="-442.7129" rx="81.1939" ry="22"/>
<ellipse fill="none" stroke="#000000" cx="647" cy="-442.7129" rx="85.1866" ry="26"/>
<text text-anchor="middle" x="647" y="-439.0129" font-family="Times,serif" font-size="14.00" fill="#000000">rationals_field</text>
</a>
</g>
</g>
<!-- rationals_rationals_field&#45;&gt;rationals_Rationals -->
<g id="edge4" class="edge">
<title>rationals_rationals_field&#45;&gt;rationals_Rationals</title>
<path fill="none" stroke="#000000" d="M629.3539,-417.0796C612.4363,-392.5045 587.0221,-355.587 569.9904,-330.8463"/>
<polygon fill="#000000" stroke="#000000" points="572.6794,-328.5799 564.126,-322.3276 566.9135,-332.5492 572.6794,-328.5799"/>
</g>
<!-- rationals_Rationals_sind -->
<g id="node5" class="node">
<title>rationals_Rationals_sind</title>
<g id="a_node5"><a xlink:href="rationals.html#Rationals_sind" xlink:title="Rationals_sind">
<ellipse fill="#f070d1" stroke="#000000" cx="457" cy="-442.7129" rx="78.7731" ry="18"/>
<ellipse fill="none" stroke="#000000" cx="457" cy="-442.7129" rx="82.7797" ry="22"/>
<ellipse fill="none" stroke="#000000" cx="457" cy="-442.7129" rx="86.7863" ry="26"/>
<text text-anchor="middle" x="457" y="-439.0129" font-family="Times,serif" font-size="14.00" fill="#000000">Rationals_sind</text>
</a>
</g>
</g>
<!-- rationals_Build_Rationals -->
<g id="node9" class="node">
<title>rationals_Build_Rationals</title>
<g id="a_node9"><a xlink:href="rationals.html#Build_Rationals" xlink:title="Build_Rationals">
<ellipse fill="#7faaff" stroke="#000000" cx="335" cy="-304.7129" rx="83.3857" ry="18"/>
<text text-anchor="middle" x="335" y="-301.0129" font-family="Times,serif" font-size="14.00" fill="#000000">Build_Rationals</text>
</a>
</g>
</g>
<!-- rationals_Rationals_sind&#45;&gt;rationals_Build_Rationals -->
<g id="edge5" class="edge">
<title>rationals_Rationals_sind&#45;&gt;rationals_Build_Rationals</title>
<path fill="none" stroke="#000000" d="M434.6233,-417.4016C412.6498,-392.5463 379.3175,-354.8425 357.3524,-329.9967"/>
<polygon fill="#000000" stroke="#000000" points="359.8947,-327.5882 350.6491,-322.4143 354.6503,-332.2246 359.8947,-327.5882"/>
</g>
<!-- rationals_Rationals_sind&#45;&gt;rationals_Rationals -->
<g id="edge6" class="edge">
<title>rationals_Rationals_sind&#45;&gt;rationals_Rationals</title>
<path fill="none" stroke="#000000" d="M474.6461,-417.0796C491.5637,-392.5045 516.9779,-355.587 534.0096,-330.8463"/>
<polygon fill="#000000" stroke="#000000" points="537.0865,-332.5492 539.874,-322.3276 531.3206,-328.5799 537.0865,-332.5492"/>
</g>
<!-- rationals_Rationals_rec -->
<g id="node6" class="node">
<title>rationals_Rationals_rec</title>
<g id="a_node6"><a xlink:href="rationals.html#Rationals_rec" xlink:title="Rationals_rec">
<ellipse fill="#f070d1" stroke="#000000" cx="274" cy="-592.7129" rx="74.1778" ry="18"/>
<ellipse fill="none" stroke="#000000" cx="274" cy="-592.7129" rx="78.1824" ry="22"/>
<ellipse fill="none" stroke="#000000" cx="274" cy="-592.7129" rx="82.187" ry="26"/>
<text text-anchor="middle" x="274" y="-589.0129" font-family="Times,serif" font-size="14.00" fill="#000000">Rationals_rec</text>
</a>
</g>
</g>
<!-- rationals_Rationals_rect -->
<g id="node8" class="node">
<title>rationals_Rationals_rect</title>
<g id="a_node8"><a xlink:href="rationals.html#Rationals_rect" xlink:title="Rationals_rect">
<ellipse fill="#f070d1" stroke="#000000" cx="274" cy="-442.7129" rx="77.9862" ry="18"/>
<text text-anchor="middle" x="274" y="-439.0129" font-family="Times,serif" font-size="14.00" fill="#000000">Rationals_rect</text>
</a>
</g>
</g>
<!-- rationals_Rationals_rec&#45;&gt;rationals_Rationals_rect -->
<g id="edge7" class="edge">
<title>rationals_Rationals_rec&#45;&gt;rationals_Rationals_rect</title>
<path fill="none" stroke="#000000" d="M274,-566.5849C274,-539.9085 274,-498.6214 274,-471.1407"/>
<polygon fill="#000000" stroke="#000000" points="277.5001,-470.9933 274,-460.9933 270.5001,-470.9934 277.5001,-470.9933"/>
</g>
<!-- rationals_Rationals_ind -->
<g id="node7" class="node">
<title>rationals_Rationals_ind</title>
<g id="a_node7"><a xlink:href="rationals.html#Rationals_ind" xlink:title="Rationals_ind">
<ellipse fill="#7fffd4" stroke="#000000" cx="97" cy="-442.7129" rx="73.3926" ry="18"/>
<ellipse fill="none" stroke="#000000" cx="97" cy="-442.7129" rx="77.3898" ry="22"/>
<ellipse fill="none" stroke="#000000" cx="97" cy="-442.7129" rx="81.387" ry="26"/>
<text text-anchor="middle" x="97" y="-439.0129" font-family="Times,serif" font-size="14.00" fill="#000000">Rationals_ind</text>
</a>
</g>
</g>
<!-- rationals_Rationals_ind&#45;&gt;rationals_Build_Rationals -->
<g id="edge8" class="edge">
<title>rationals_Rationals_ind&#45;&gt;rationals_Build_Rationals</title>
<path fill="none" stroke="#000000" d="M136.3009,-419.925C180.8912,-394.0701 253.1123,-352.194 297.1097,-326.6829"/>
<polygon fill="#000000" stroke="#000000" points="298.8877,-329.6978 305.783,-321.6538 295.3764,-323.6421 298.8877,-329.6978"/>
</g>
<!-- rationals_Rationals_ind&#45;&gt;rationals_Rationals -->
<g id="edge9" class="edge">
<title>rationals_Rationals_ind&#45;&gt;rationals_Rationals</title>
<path fill="none" stroke="#000000" d="M156.4833,-424.6718C247.0822,-397.1935 418.0034,-345.3536 502.3507,-319.7714"/>
<polygon fill="#000000" stroke="#000000" points="503.3985,-323.1111 511.9521,-316.8593 501.3667,-316.4124 503.3985,-323.1111"/>
</g>
<!-- rationals_Rationals_rect&#45;&gt;rationals_Build_Rationals -->
<g id="edge10" class="edge">
<title>rationals_Rationals_rect&#45;&gt;rationals_Build_Rationals</title>
<path fill="none" stroke="#000000" d="M281.9747,-424.6718C292.3866,-401.1169 310.7115,-359.6607 322.8551,-332.1882"/>
<polygon fill="#000000" stroke="#000000" points="326.1816,-333.3198 327.0234,-322.7584 319.7792,-330.4897 326.1816,-333.3198"/>
</g>
<!-- rationals_Rationals_rect&#45;&gt;rationals_Rationals -->
<g id="edge11" class="edge">
<title>rationals_Rationals_rect&#45;&gt;rationals_Rationals</title>
<path fill="none" stroke="#000000" d="M306.9819,-426.3406C358.3753,-400.8288 457.3749,-351.6851 512.499,-324.3213"/>
<polygon fill="#000000" stroke="#000000" points="514.2069,-327.3811 521.6078,-319.7997 511.0944,-321.1111 514.2069,-327.3811"/>
</g>
<!-- rationals_rationals_to_field -->
<g id="node11" class="node">
<title>rationals_rationals_to_field</title>
<g id="a_node11"><a xlink:href="rationals.html#rationals_to_field" xlink:title="rationals_to_field">
<ellipse fill="#f070d1" stroke="#000000" cx="426" cy="-181.7129" rx="90.9839" ry="18"/>
<text text-anchor="middle" x="426" y="-178.0129" font-family="Times,serif" font-size="14.00" fill="#000000">rationals_to_field</text>
</a>
</g>
</g>
<!-- rationals_Build_Rationals&#45;&gt;rationals_rationals_to_field -->
<g id="edge12" class="edge">
<title>rationals_Build_Rationals&#45;&gt;rationals_rationals_to_field</title>
<path fill="none" stroke="#000000" d="M348.2322,-286.8276C363.5981,-266.0583 389.0798,-231.616 406.6641,-207.8482"/>
<polygon fill="#000000" stroke="#000000" points="409.6179,-209.7405 412.7518,-199.6197 403.9906,-205.5771 409.6179,-209.7405"/>
</g>
<!-- rationals_Rationals&#45;&gt;rationals_rationals_to_field -->
<g id="edge13" class="edge">
<title>rationals_Rationals&#45;&gt;rationals_rationals_to_field</title>
<path fill="none" stroke="#000000" d="M534.4802,-287.6103C512.9095,-266.5531 476.1073,-230.6271 451.4269,-206.5344"/>
<polygon fill="#000000" stroke="#000000" points="453.7876,-203.9477 444.1869,-199.4668 448.8978,-208.9567 453.7876,-203.9477"/>
</g>
<!-- rationals_RationalsToField -->
<g id="node12" class="node">
<title>rationals_RationalsToField</title>
<g id="a_node12"><a xlink:href="rationals.html#RationalsToField" xlink:title="RationalsToField">
<ellipse fill="#f070d1" stroke="#000000" cx="426" cy="-58.7129" rx="89.0842" ry="18"/>
<text text-anchor="middle" x="426" y="-55.0129" font-family="Times,serif" font-size="14.00" fill="#000000">RationalsToField</text>
</a>
</g>
</g>
<!-- rationals_rationals_to_field&#45;&gt;rationals_RationalsToField -->
<g id="edge14" class="edge">
<title>rationals_rationals_to_field&#45;&gt;rationals_RationalsToField</title>
<path fill="none" stroke="#000000" d="M426,-163.5638C426,-143.3972 426,-110.5772 426,-87.0262"/>
<polygon fill="#000000" stroke="#000000" points="429.5001,-86.9364 426,-76.9364 422.5001,-86.9365 429.5001,-86.9364"/>
</g>
</g>
</svg>
