<?xml version="1.0" encoding="UTF-8" standalone="no"?>
<!DOCTYPE svg PUBLIC "-//W3C//DTD SVG 1.1//EN"
 "http://www.w3.org/Graphics/SVG/1.1/DTD/svg11.dtd">
<!-- Generated by graphviz version 2.40.1 (20161225.0304)
 -->
<!-- Title: HoTT_Diagrams_ParallelPair Pages: 1 -->
<svg width="510pt" height="259pt"
 viewBox="0.00 0.00 510.00 259.00" xmlns="http://www.w3.org/2000/svg" xmlns:xlink="http://www.w3.org/1999/xlink">
<g id="graph0" class="graph" transform="scale(1 1) rotate(0) translate(4 255)">
<title>HoTT_Diagrams_ParallelPair</title>
<polygon fill="#ffffff" stroke="transparent" points="-4,4 -4,-255 506,-255 506,4 -4,4"/>
<g id="clust1" class="cluster">
<title>cluster_ParallelPair</title>
<polygon fill="#ffffc3" stroke="#000000" points="12.55,-8 12.55,-243 489.45,-243 489.45,-8 12.55,-8"/>
<text text-anchor="middle" x="62.05" y="-227.8" font-family="Times,serif" font-size="14.00" fill="#000000">ParallelPair</text>
</g>
<!-- ParallelPair_Build_parallel_pair_cocone -->
<g id="node1" class="node">
<title>ParallelPair_Build_parallel_pair_cocone</title>
<g id="a_node1"><a xlink:href="ParallelPair.html#Build_parallel_pair_cocone" xlink:title="Build_parallel_pair_cocone">
<ellipse fill="#f070d1" stroke="#000000" cx="251.3438" cy="-186" rx="135.6851" ry="18"/>
<ellipse fill="none" stroke="#000000" cx="251.3438" cy="-186" rx="139.6806" ry="22"/>
<ellipse fill="none" stroke="#000000" cx="251.3438" cy="-186" rx="143.6761" ry="26"/>
<text text-anchor="middle" x="251.3438" y="-182.3" font-family="Times,serif" font-size="14.00" fill="#000000">Build_parallel_pair_cocone</text>
</a>
</g>
</g>
<!-- ParallelPair_parallel_pair -->
<g id="node2" class="node">
<title>ParallelPair_parallel_pair</title>
<g id="a_node2"><a xlink:href="ParallelPair.html#parallel_pair" xlink:title="parallel_pair">
<ellipse fill="#f070d1" stroke="#000000" cx="251.3438" cy="-106" rx="69.5877" ry="18"/>
<text text-anchor="middle" x="251.3438" y="-102.3" font-family="Times,serif" font-size="14.00" fill="#000000">parallel_pair</text>
</a>
</g>
</g>
<!-- ParallelPair_Build_parallel_pair_cocone&#45;&gt;ParallelPair_parallel_pair -->
<g id="edge1" class="edge">
<title>ParallelPair_Build_parallel_pair_cocone&#45;&gt;ParallelPair_parallel_pair</title>
<path fill="none" stroke="#000000" d="M251.3438,-159.805C251.3438,-151.6026 251.3438,-142.5174 251.3438,-134.1839"/>
<polygon fill="#000000" stroke="#000000" points="254.8438,-134.1532 251.3438,-124.1532 247.8438,-134.1533 254.8438,-134.1532"/>
</g>
<!-- ParallelPair_parallel_pair_graph -->
<g id="node3" class="node">
<title>ParallelPair_parallel_pair_graph</title>
<g id="a_node3"><a xlink:href="ParallelPair.html#parallel_pair_graph" xlink:title="parallel_pair_graph">
<ellipse fill="#f070d1" stroke="#000000" cx="251.3438" cy="-34" rx="101.2821" ry="18"/>
<text text-anchor="middle" x="251.3438" y="-30.3" font-family="Times,serif" font-size="14.00" fill="#000000">parallel_pair_graph</text>
</a>
</g>
</g>
<!-- ParallelPair_parallel_pair&#45;&gt;ParallelPair_parallel_pair_graph -->
<g id="edge2" class="edge">
<title>ParallelPair_parallel_pair&#45;&gt;ParallelPair_parallel_pair_graph</title>
<path fill="none" stroke="#000000" d="M251.3438,-87.8314C251.3438,-80.131 251.3438,-70.9743 251.3438,-62.4166"/>
<polygon fill="#000000" stroke="#000000" points="254.8438,-62.4132 251.3438,-52.4133 247.8438,-62.4133 254.8438,-62.4132"/>
</g>
</g>
</svg>
