<?xml version="1.0" encoding="UTF-8" standalone="no"?>
<!DOCTYPE svg PUBLIC "-//W3C//DTD SVG 1.1//EN"
 "http://www.w3.org/Graphics/SVG/1.1/DTD/svg11.dtd">
<!-- Generated by graphviz version 2.40.1 (20161225.0304)
 -->
<!-- Title: HoTT_Algebra_Universal_Algebra Pages: 1 -->
<svg width="1182pt" height="595pt"
 viewBox="0.00 0.00 1182.00 595.00" xmlns="http://www.w3.org/2000/svg" xmlns:xlink="http://www.w3.org/1999/xlink">
<g id="graph0" class="graph" transform="scale(1 1) rotate(0) translate(4 591)">
<title>HoTT_Algebra_Universal_Algebra</title>
<polygon fill="#ffffff" stroke="transparent" points="-4,4 -4,-591 1178,-591 1178,4 -4,4"/>
<g id="clust1" class="cluster">
<title>cluster_Algebra</title>
<polygon fill="#ffffc3" stroke="#000000" points="10.8578,-8 10.8578,-579 1163.1422,-579 1163.1422,-8 10.8578,-8"/>
<text text-anchor="middle" x="47.3578" y="-563.8" font-family="Times,serif" font-size="14.00" fill="#000000">Algebra</text>
</g>
<!-- Algebra_path_path_algebra -->
<g id="node1" class="node">
<title>Algebra_path_path_algebra</title>
<g id="a_node1"><a xlink:href="Algebra.html#path_path_algebra" xlink:title="path_path_algebra">
<ellipse fill="#f070d1" stroke="#000000" cx="980.0185" cy="-522" rx="97.4834" ry="18"/>
<ellipse fill="none" stroke="#000000" cx="980.0185" cy="-522" rx="101.483" ry="22"/>
<ellipse fill="none" stroke="#000000" cx="980.0185" cy="-522" rx="105.4827" ry="26"/>
<text text-anchor="middle" x="980.0185" y="-518.3" font-family="Times,serif" font-size="14.00" fill="#000000">path_path_algebra</text>
</a>
</g>
</g>
<!-- Algebra_path_path_algebra_issig -->
<g id="node2" class="node">
<title>Algebra_path_path_algebra_issig</title>
<g id="a_node2"><a xlink:href="Algebra.html#path_path_algebra_issig" xlink:title="path_path_algebra_issig">
<ellipse fill="#f070d1" stroke="#000000" cx="980.0185" cy="-442" rx="124.2781" ry="18"/>
<text text-anchor="middle" x="980.0185" y="-438.3" font-family="Times,serif" font-size="14.00" fill="#000000">path_path_algebra_issig</text>
</a>
</g>
</g>
<!-- Algebra_path_path_algebra&#45;&gt;Algebra_path_path_algebra_issig -->
<g id="edge1" class="edge">
<title>Algebra_path_path_algebra&#45;&gt;Algebra_path_path_algebra_issig</title>
<path fill="none" stroke="#000000" d="M980.0185,-495.805C980.0185,-487.6026 980.0185,-478.5174 980.0185,-470.1839"/>
<polygon fill="#000000" stroke="#000000" points="983.5186,-470.1532 980.0185,-460.1532 976.5186,-470.1533 983.5186,-470.1532"/>
</g>
<!-- Algebra_carriers -->
<g id="node9" class="node">
<title>Algebra_carriers</title>
<g id="a_node9"><a xlink:href="Algebra.html#carriers" xlink:title="carriers">
<ellipse fill="#f070d1" stroke="#000000" cx="722.0185" cy="-442" rx="48.1917" ry="18"/>
<text text-anchor="middle" x="722.0185" y="-438.3" font-family="Times,serif" font-size="14.00" fill="#000000">carriers</text>
</a>
</g>
</g>
<!-- Algebra_path_path_algebra&#45;&gt;Algebra_carriers -->
<g id="edge2" class="edge">
<title>Algebra_path_path_algebra&#45;&gt;Algebra_carriers</title>
<path fill="none" stroke="#000000" d="M914.2466,-501.6056C868.8701,-487.5354 809.6265,-469.1653 768.9704,-456.5587"/>
<polygon fill="#000000" stroke="#000000" points="769.899,-453.1823 759.3111,-453.5636 767.8258,-459.8683 769.899,-453.1823"/>
</g>
<!-- Algebra_issig_algebra -->
<g id="node5" class="node">
<title>Algebra_issig_algebra</title>
<g id="a_node5"><a xlink:href="Algebra.html#issig_algebra" xlink:title="issig_algebra">
<ellipse fill="#f070d1" stroke="#000000" cx="980.0185" cy="-362" rx="72.2875" ry="18"/>
<text text-anchor="middle" x="980.0185" y="-358.3" font-family="Times,serif" font-size="14.00" fill="#000000">issig_algebra</text>
</a>
</g>
</g>
<!-- Algebra_path_path_algebra_issig&#45;&gt;Algebra_issig_algebra -->
<g id="edge3" class="edge">
<title>Algebra_path_path_algebra_issig&#45;&gt;Algebra_issig_algebra</title>
<path fill="none" stroke="#000000" d="M980.0185,-423.8468C980.0185,-413.9251 980.0185,-401.4167 980.0185,-390.2492"/>
<polygon fill="#000000" stroke="#000000" points="983.5186,-390.0814 980.0185,-380.0814 976.5186,-390.0814 983.5186,-390.0814"/>
</g>
<!-- Algebra_path_ap_carriers_path_algebra -->
<g id="node3" class="node">
<title>Algebra_path_ap_carriers_path_algebra</title>
<g id="a_node3"><a xlink:href="Algebra.html#path_ap_carriers_path_algebra" xlink:title="path_ap_carriers_path_algebra">
<ellipse fill="#f070d1" stroke="#000000" cx="589.0185" cy="-522" rx="155.1806" ry="18"/>
<ellipse fill="none" stroke="#000000" cx="589.0185" cy="-522" rx="159.1766" ry="22"/>
<ellipse fill="none" stroke="#000000" cx="589.0185" cy="-522" rx="163.1726" ry="26"/>
<text text-anchor="middle" x="589.0185" y="-518.3" font-family="Times,serif" font-size="14.00" fill="#000000">path_ap_carriers_path_algebra</text>
</a>
</g>
</g>
<!-- Algebra_path_algebra -->
<g id="node4" class="node">
<title>Algebra_path_algebra</title>
<g id="a_node4"><a xlink:href="Algebra.html#path_algebra" xlink:title="path_algebra">
<ellipse fill="#f070d1" stroke="#000000" cx="535.0185" cy="-442" rx="71.4873" ry="18"/>
<text text-anchor="middle" x="535.0185" y="-438.3" font-family="Times,serif" font-size="14.00" fill="#000000">path_algebra</text>
</a>
</g>
</g>
<!-- Algebra_path_ap_carriers_path_algebra&#45;&gt;Algebra_path_algebra -->
<g id="edge4" class="edge">
<title>Algebra_path_ap_carriers_path_algebra&#45;&gt;Algebra_path_algebra</title>
<path fill="none" stroke="#000000" d="M571.3369,-495.805C565.4311,-487.0557 558.8474,-477.3021 552.9247,-468.5277"/>
<polygon fill="#000000" stroke="#000000" points="555.7677,-466.4836 547.2719,-460.1532 549.9657,-470.3999 555.7677,-466.4836"/>
</g>
<!-- Algebra_path_ap_carriers_path_algebra&#45;&gt;Algebra_carriers -->
<g id="edge5" class="edge">
<title>Algebra_path_ap_carriers_path_algebra&#45;&gt;Algebra_carriers</title>
<path fill="none" stroke="#000000" d="M631.1005,-496.6875C649.376,-485.6947 670.5087,-472.9833 687.7981,-462.5837"/>
<polygon fill="#000000" stroke="#000000" points="689.6883,-465.5312 696.4535,-457.3775 686.0802,-459.5327 689.6883,-465.5312"/>
</g>
<!-- Algebra_path_algebra&#45;&gt;Algebra_issig_algebra -->
<g id="edge6" class="edge">
<title>Algebra_path_algebra&#45;&gt;Algebra_issig_algebra</title>
<path fill="none" stroke="#000000" d="M594.1968,-431.8096C656.0485,-421.1075 755.9014,-403.6857 842.0185,-388 865.0021,-383.8137 890.1149,-379.1185 912.5425,-374.8819"/>
<polygon fill="#000000" stroke="#000000" points="913.466,-378.2693 922.6409,-372.9711 912.1645,-371.3914 913.466,-378.2693"/>
</g>
<!-- Algebra_SigAlgebra -->
<g id="node6" class="node">
<title>Algebra_SigAlgebra</title>
<g id="a_node6"><a xlink:href="Algebra.html#SigAlgebra" xlink:title="SigAlgebra">
<ellipse fill="#f070d1" stroke="#000000" cx="1068.0185" cy="-282" rx="62.2891" ry="18"/>
<text text-anchor="middle" x="1068.0185" y="-278.3" font-family="Times,serif" font-size="14.00" fill="#000000">SigAlgebra</text>
</a>
</g>
</g>
<!-- Algebra_issig_algebra&#45;&gt;Algebra_SigAlgebra -->
<g id="edge7" class="edge">
<title>Algebra_issig_algebra&#45;&gt;Algebra_SigAlgebra</title>
<path fill="none" stroke="#000000" d="M999.1132,-344.6412C1011.4521,-333.424 1027.6872,-318.6648 1041.299,-306.2904"/>
<polygon fill="#000000" stroke="#000000" points="1043.916,-308.6415 1048.9611,-299.3249 1039.2073,-303.4619 1043.916,-308.6415"/>
</g>
<!-- Algebra_Build_Algebra -->
<g id="node10" class="node">
<title>Algebra_Build_Algebra</title>
<g id="a_node10"><a xlink:href="Algebra.html#Build_Algebra" xlink:title="Build_Algebra">
<ellipse fill="#7faaff" stroke="#000000" cx="855.0185" cy="-282" rx="76.8869" ry="18"/>
<text text-anchor="middle" x="855.0185" y="-278.3" font-family="Times,serif" font-size="14.00" fill="#000000">Build_Algebra</text>
</a>
</g>
</g>
<!-- Algebra_issig_algebra&#45;&gt;Algebra_Build_Algebra -->
<g id="edge8" class="edge">
<title>Algebra_issig_algebra&#45;&gt;Algebra_Build_Algebra</title>
<path fill="none" stroke="#000000" d="M953.5092,-345.0341C935.0308,-333.2079 910.1852,-317.3067 890.0719,-304.4342"/>
<polygon fill="#000000" stroke="#000000" points="891.799,-301.3841 881.4896,-298.9415 888.0256,-307.28 891.799,-301.3841"/>
</g>
<!-- Algebra_Algebra -->
<g id="node11" class="node">
<title>Algebra_Algebra</title>
<g id="a_node11"><a xlink:href="Algebra.html#Algebra" xlink:title="Algebra">
<ellipse fill="#e2cdfa" stroke="#000000" cx="662.0185" cy="-282" rx="47.3916" ry="18"/>
<text text-anchor="middle" x="662.0185" y="-278.3" font-family="Times,serif" font-size="14.00" fill="#000000">Algebra</text>
</a>
</g>
</g>
<!-- Algebra_issig_algebra&#45;&gt;Algebra_Algebra -->
<g id="edge9" class="edge">
<title>Algebra_issig_algebra&#45;&gt;Algebra_Algebra</title>
<path fill="none" stroke="#000000" d="M928.9263,-349.1466C869.178,-334.1156 770.9387,-309.4013 711.7724,-294.5167"/>
<polygon fill="#000000" stroke="#000000" points="712.4629,-291.0814 701.9112,-292.0359 710.7551,-297.8699 712.4629,-291.0814"/>
</g>
<!-- Algebra_Operation -->
<g id="node12" class="node">
<title>Algebra_Operation</title>
<g id="a_node12"><a xlink:href="Algebra.html#Operation" xlink:title="Operation">
<ellipse fill="#f070d1" stroke="#000000" cx="1074.0185" cy="-202" rx="57.6901" ry="18"/>
<text text-anchor="middle" x="1074.0185" y="-198.3" font-family="Times,serif" font-size="14.00" fill="#000000">Operation</text>
</a>
</g>
</g>
<!-- Algebra_SigAlgebra&#45;&gt;Algebra_Operation -->
<g id="edge10" class="edge">
<title>Algebra_SigAlgebra&#45;&gt;Algebra_Operation</title>
<path fill="none" stroke="#000000" d="M1069.38,-263.8468C1070.1241,-253.9251 1071.0622,-241.4167 1071.8998,-230.2492"/>
<polygon fill="#000000" stroke="#000000" points="1075.4046,-230.3152 1072.6624,-220.0814 1068.4242,-229.7916 1075.4046,-230.3152"/>
</g>
<!-- Algebra_hset_algebra -->
<g id="node7" class="node">
<title>Algebra_hset_algebra</title>
<g id="a_node7"><a xlink:href="Algebra.html#hset_algebra" xlink:title="hset_algebra">
<ellipse fill="#f070d1" stroke="#000000" cx="514.0185" cy="-362" rx="70.7036" ry="18"/>
<ellipse fill="none" stroke="#000000" cx="514.0185" cy="-362" rx="74.6957" ry="22"/>
<ellipse fill="none" stroke="#000000" cx="514.0185" cy="-362" rx="78.6877" ry="26"/>
<text text-anchor="middle" x="514.0185" y="-358.3" font-family="Times,serif" font-size="14.00" fill="#000000">hset_algebra</text>
</a>
</g>
</g>
<!-- Algebra_hset_algebra&#45;&gt;Algebra_Algebra -->
<g id="edge11" class="edge">
<title>Algebra_hset_algebra&#45;&gt;Algebra_Algebra</title>
<path fill="none" stroke="#000000" d="M555.2447,-339.7155C577.2984,-327.7946 604.2189,-313.243 625.5112,-301.7337"/>
<polygon fill="#000000" stroke="#000000" points="627.4274,-304.6766 634.5601,-296.8424 624.0987,-298.5186 627.4274,-304.6766"/>
</g>
<!-- Algebra_operations -->
<g id="node8" class="node">
<title>Algebra_operations</title>
<g id="a_node8"><a xlink:href="Algebra.html#operations" xlink:title="operations">
<ellipse fill="#f070d1" stroke="#000000" cx="765.0185" cy="-362" rx="59.6142" ry="18"/>
<ellipse fill="none" stroke="#000000" cx="765.0185" cy="-362" rx="63.6021" ry="22"/>
<ellipse fill="none" stroke="#000000" cx="765.0185" cy="-362" rx="67.59" ry="26"/>
<text text-anchor="middle" x="765.0185" y="-358.3" font-family="Times,serif" font-size="14.00" fill="#000000">operations</text>
</a>
</g>
</g>
<!-- Algebra_operations&#45;&gt;Algebra_Algebra -->
<g id="edge12" class="edge">
<title>Algebra_operations&#45;&gt;Algebra_Algebra</title>
<path fill="none" stroke="#000000" d="M734.9497,-338.6456C721.1813,-327.9517 704.9255,-315.3259 691.2593,-304.7113"/>
<polygon fill="#000000" stroke="#000000" points="693.1747,-301.7673 683.1301,-298.3974 688.8808,-307.2957 693.1747,-301.7673"/>
</g>
<!-- Algebra_carriers&#45;&gt;Algebra_Algebra -->
<g id="edge13" class="edge">
<title>Algebra_carriers&#45;&gt;Algebra_Algebra</title>
<path fill="none" stroke="#000000" d="M708.8376,-424.3085C701.7918,-414.1325 693.4701,-400.8503 688.0185,-388 677.2708,-362.6661 670.3497,-331.9606 666.3726,-310.1322"/>
<polygon fill="#000000" stroke="#000000" points="669.8064,-309.4489 664.6528,-300.192 662.9089,-310.6423 669.8064,-309.4489"/>
</g>
<!-- Algebra_Build_Algebra&#45;&gt;Algebra_Operation -->
<g id="edge14" class="edge">
<title>Algebra_Build_Algebra&#45;&gt;Algebra_Operation</title>
<path fill="none" stroke="#000000" d="M896.7262,-266.7643C933.9087,-253.1817 988.2848,-233.3183 1026.9995,-219.1759"/>
<polygon fill="#000000" stroke="#000000" points="1028.2929,-222.4297 1036.4849,-215.7109 1025.891,-215.8547 1028.2929,-222.4297"/>
</g>
<!-- Algebra_Algebra&#45;&gt;Algebra_Operation -->
<g id="edge15" class="edge">
<title>Algebra_Algebra&#45;&gt;Algebra_Operation</title>
<path fill="none" stroke="#000000" d="M705.322,-274.2975C762.0642,-264.122 864.6327,-245.4445 952.0185,-228 973.1893,-223.7738 996.3717,-218.8964 1016.7887,-214.5159"/>
<polygon fill="#000000" stroke="#000000" points="1017.5292,-217.9368 1026.5686,-212.4104 1016.0559,-211.0936 1017.5292,-217.9368"/>
</g>
<!-- Algebra_Signature -->
<g id="node19" class="node">
<title>Algebra_Signature</title>
<g id="a_node19"><a xlink:href="Algebra.html#Signature" xlink:title="Signature">
<ellipse fill="#e2cdfa" stroke="#000000" cx="907.0185" cy="-114" rx="56.59" ry="18"/>
<text text-anchor="middle" x="907.0185" y="-110.3" font-family="Times,serif" font-size="14.00" fill="#000000">Signature</text>
</a>
</g>
</g>
<!-- Algebra_Operation&#45;&gt;Algebra_Signature -->
<g id="edge16" class="edge">
<title>Algebra_Operation&#45;&gt;Algebra_Signature</title>
<path fill="none" stroke="#000000" d="M1044.5467,-186.4699C1016.9675,-171.9372 975.6077,-150.1428 945.4486,-134.2506"/>
<polygon fill="#000000" stroke="#000000" points="946.9546,-131.088 936.4761,-129.5226 943.6913,-137.2809 946.9546,-131.088"/>
</g>
<!-- Algebra_hset_symbol -->
<g id="node13" class="node">
<title>Algebra_hset_symbol</title>
<g id="a_node13"><a xlink:href="Algebra.html#hset_symbol" xlink:title="hset_symbol">
<ellipse fill="#f070d1" stroke="#000000" cx="866.0185" cy="-202" rx="68.7989" ry="18"/>
<ellipse fill="none" stroke="#000000" cx="866.0185" cy="-202" rx="72.7934" ry="22"/>
<ellipse fill="none" stroke="#000000" cx="866.0185" cy="-202" rx="76.7879" ry="26"/>
<text text-anchor="middle" x="866.0185" y="-198.3" font-family="Times,serif" font-size="14.00" fill="#000000">hset_symbol</text>
</a>
</g>
</g>
<!-- Algebra_hset_symbol&#45;&gt;Algebra_Signature -->
<g id="edge17" class="edge">
<title>Algebra_hset_symbol&#45;&gt;Algebra_Signature</title>
<path fill="none" stroke="#000000" d="M878.0981,-176.0731C883.2135,-165.0936 889.1756,-152.2969 894.353,-141.1845"/>
<polygon fill="#000000" stroke="#000000" points="897.609,-142.4833 898.6597,-131.9407 891.2639,-139.5271 897.609,-142.4833"/>
</g>
<!-- Algebra_hset_sort -->
<g id="node14" class="node">
<title>Algebra_hset_sort</title>
<g id="a_node14"><a xlink:href="Algebra.html#hset_sort" xlink:title="hset_sort">
<ellipse fill="#f070d1" stroke="#000000" cx="653.0185" cy="-202" rx="53.8975" ry="18"/>
<ellipse fill="none" stroke="#000000" cx="653.0185" cy="-202" rx="57.894" ry="22"/>
<ellipse fill="none" stroke="#000000" cx="653.0185" cy="-202" rx="61.8905" ry="26"/>
<text text-anchor="middle" x="653.0185" y="-198.3" font-family="Times,serif" font-size="14.00" fill="#000000">hset_sort</text>
</a>
</g>
</g>
<!-- Algebra_hset_sort&#45;&gt;Algebra_Signature -->
<g id="edge18" class="edge">
<title>Algebra_hset_sort&#45;&gt;Algebra_Signature</title>
<path fill="none" stroke="#000000" d="M700.794,-185.4479C746.0463,-169.7699 813.6421,-146.3509 858.9806,-130.6431"/>
<polygon fill="#000000" stroke="#000000" points="860.2805,-133.8969 868.5836,-127.316 857.9889,-127.2826 860.2805,-133.8969"/>
</g>
<!-- Algebra_symbol_types -->
<g id="node15" class="node">
<title>Algebra_symbol_types</title>
<g id="a_node15"><a xlink:href="Algebra.html#symbol_types" xlink:title="symbol_types">
<ellipse fill="#f070d1" stroke="#000000" cx="433.0185" cy="-202" rx="74.1778" ry="18"/>
<ellipse fill="none" stroke="#000000" cx="433.0185" cy="-202" rx="78.1824" ry="22"/>
<ellipse fill="none" stroke="#000000" cx="433.0185" cy="-202" rx="82.187" ry="26"/>
<text text-anchor="middle" x="433.0185" y="-198.3" font-family="Times,serif" font-size="14.00" fill="#000000">symbol_types</text>
</a>
</g>
</g>
<!-- Algebra_symbol_types&#45;&gt;Algebra_Signature -->
<g id="edge19" class="edge">
<title>Algebra_symbol_types&#45;&gt;Algebra_Signature</title>
<path fill="none" stroke="#000000" d="M505.0528,-189.4594C591.1826,-174.4197 730.2029,-149.9891 782.0185,-140 804.2839,-135.7076 828.7151,-130.694 850.0257,-126.2209"/>
<polygon fill="#000000" stroke="#000000" points="850.8314,-129.6281 859.8949,-124.1414 849.3881,-122.7785 850.8314,-129.6281"/>
</g>
<!-- Algebra_Symbol -->
<g id="node16" class="node">
<title>Algebra_Symbol</title>
<g id="a_node16"><a xlink:href="Algebra.html#Symbol" xlink:title="Symbol">
<ellipse fill="#f070d1" stroke="#000000" cx="224.0185" cy="-202" rx="45.4925" ry="18"/>
<ellipse fill="none" stroke="#000000" cx="224.0185" cy="-202" rx="49.4922" ry="22"/>
<ellipse fill="none" stroke="#000000" cx="224.0185" cy="-202" rx="53.4919" ry="26"/>
<text text-anchor="middle" x="224.0185" y="-198.3" font-family="Times,serif" font-size="14.00" fill="#000000">Symbol</text>
</a>
</g>
</g>
<!-- Algebra_Symbol&#45;&gt;Algebra_Signature -->
<g id="edge20" class="edge">
<title>Algebra_Symbol&#45;&gt;Algebra_Signature</title>
<path fill="none" stroke="#000000" d="M271.6843,-189.9582C293.0671,-184.9554 318.6812,-179.5093 342.0185,-176 536.0461,-146.8234 587.8222,-168.0315 782.0185,-140 804.9348,-136.6921 829.9614,-131.7549 851.5607,-127.0687"/>
<polygon fill="#000000" stroke="#000000" points="852.5307,-130.439 861.5429,-124.8686 851.024,-123.6031 852.5307,-130.439"/>
</g>
<!-- Algebra_Sort -->
<g id="node17" class="node">
<title>Algebra_Sort</title>
<g id="a_node17"><a xlink:href="Algebra.html#Sort" xlink:title="Sort">
<ellipse fill="#f070d1" stroke="#000000" cx="75.0185" cy="-202" rx="30.5848" ry="18"/>
<ellipse fill="none" stroke="#000000" cx="75.0185" cy="-202" rx="34.5897" ry="22"/>
<ellipse fill="none" stroke="#000000" cx="75.0185" cy="-202" rx="38.5946" ry="26"/>
<text text-anchor="middle" x="75.0185" y="-198.3" font-family="Times,serif" font-size="14.00" fill="#000000">Sort</text>
</a>
</g>
</g>
<!-- Algebra_Sort&#45;&gt;Algebra_Signature -->
<g id="edge21" class="edge">
<title>Algebra_Sort&#45;&gt;Algebra_Signature</title>
<path fill="none" stroke="#000000" d="M109.2897,-189.7508C125.131,-184.6114 144.3193,-179.1148 162.0185,-176 433.8607,-128.16 508.3832,-176.2024 782.0185,-140 805.162,-136.9381 830.4197,-131.9949 852.1348,-127.2366"/>
<polygon fill="#000000" stroke="#000000" points="853.1657,-130.5927 862.1629,-124.998 851.6406,-123.7609 853.1657,-130.5927"/>
</g>
<!-- Algebra_Build_Signature -->
<g id="node18" class="node">
<title>Algebra_Build_Signature</title>
<g id="a_node18"><a xlink:href="Algebra.html#Build_Signature" xlink:title="Build_Signature">
<ellipse fill="#7faaff" stroke="#000000" cx="679.0185" cy="-114" rx="85.6029" ry="18"/>
<ellipse fill="none" stroke="#000000" cx="679.0185" cy="-114" rx="89.5941" ry="22"/>
<ellipse fill="none" stroke="#000000" cx="679.0185" cy="-114" rx="93.5852" ry="26"/>
<text text-anchor="middle" x="679.0185" y="-110.3" font-family="Times,serif" font-size="14.00" fill="#000000">Build_Signature</text>
</a>
</g>
</g>
<!-- Algebra_SymbolTypeOf -->
<g id="node24" class="node">
<title>Algebra_SymbolTypeOf</title>
<g id="a_node24"><a xlink:href="Algebra.html#SymbolTypeOf" xlink:title="SymbolTypeOf">
<ellipse fill="#e2cdfa" stroke="#000000" cx="448.0185" cy="-34" rx="79.0865" ry="18"/>
<text text-anchor="middle" x="448.0185" y="-30.3" font-family="Times,serif" font-size="14.00" fill="#000000">SymbolTypeOf</text>
</a>
</g>
</g>
<!-- Algebra_Build_Signature&#45;&gt;Algebra_SymbolTypeOf -->
<g id="edge22" class="edge">
<title>Algebra_Build_Signature&#45;&gt;Algebra_SymbolTypeOf</title>
<path fill="none" stroke="#000000" d="M620.1297,-93.6056C583.5968,-80.9535 537.0249,-64.8247 501.5412,-52.536"/>
<polygon fill="#000000" stroke="#000000" points="502.4394,-49.1432 491.8446,-49.1779 500.1486,-55.7577 502.4394,-49.1432"/>
</g>
<!-- Algebra_Signature&#45;&gt;Algebra_SymbolTypeOf -->
<g id="edge23" class="edge">
<title>Algebra_Signature&#45;&gt;Algebra_SymbolTypeOf</title>
<path fill="none" stroke="#000000" d="M860.2233,-103.7483C836.7907,-98.7469 807.957,-92.7919 782.0185,-88 694.1125,-71.76 592.6849,-55.7447 524.8792,-45.4263"/>
<polygon fill="#000000" stroke="#000000" points="525.121,-41.923 514.7091,-43.883 524.0707,-48.8438 525.121,-41.923"/>
</g>
<!-- Algebra_sort_cod -->
<g id="node20" class="node">
<title>Algebra_sort_cod</title>
<g id="a_node20"><a xlink:href="Algebra.html#sort_cod" xlink:title="sort_cod">
<ellipse fill="#f070d1" stroke="#000000" cx="448.0185" cy="-114" rx="50.8649" ry="18"/>
<ellipse fill="none" stroke="#000000" cx="448.0185" cy="-114" rx="54.8783" ry="22"/>
<ellipse fill="none" stroke="#000000" cx="448.0185" cy="-114" rx="58.8917" ry="26"/>
<text text-anchor="middle" x="448.0185" y="-110.3" font-family="Times,serif" font-size="14.00" fill="#000000">sort_cod</text>
</a>
</g>
</g>
<!-- Algebra_sort_cod&#45;&gt;Algebra_SymbolTypeOf -->
<g id="edge24" class="edge">
<title>Algebra_sort_cod&#45;&gt;Algebra_SymbolTypeOf</title>
<path fill="none" stroke="#000000" d="M448.0185,-87.805C448.0185,-79.6026 448.0185,-70.5174 448.0185,-62.1839"/>
<polygon fill="#000000" stroke="#000000" points="451.5186,-62.1532 448.0185,-52.1532 444.5186,-62.1533 451.5186,-62.1532"/>
</g>
<!-- Algebra_sorts_dom -->
<g id="node21" class="node">
<title>Algebra_sorts_dom</title>
<g id="a_node21"><a xlink:href="Algebra.html#sorts_dom" xlink:title="sorts_dom">
<ellipse fill="#f070d1" stroke="#000000" cx="252.0185" cy="-114" rx="59.2725" ry="18"/>
<ellipse fill="none" stroke="#000000" cx="252.0185" cy="-114" rx="63.2812" ry="22"/>
<ellipse fill="none" stroke="#000000" cx="252.0185" cy="-114" rx="67.2898" ry="26"/>
<text text-anchor="middle" x="252.0185" y="-110.3" font-family="Times,serif" font-size="14.00" fill="#000000">sorts_dom</text>
</a>
</g>
</g>
<!-- Algebra_sorts_dom&#45;&gt;Algebra_SymbolTypeOf -->
<g id="edge25" class="edge">
<title>Algebra_sorts_dom&#45;&gt;Algebra_SymbolTypeOf</title>
<path fill="none" stroke="#000000" d="M298.4678,-95.0411C329.0396,-82.5628 368.9683,-66.2654 399.8773,-53.6495"/>
<polygon fill="#000000" stroke="#000000" points="401.224,-56.8802 409.1598,-49.8607 398.5786,-50.3993 401.224,-56.8802"/>
</g>
<!-- Algebra_Arity -->
<g id="node22" class="node">
<title>Algebra_Arity</title>
<g id="a_node22"><a xlink:href="Algebra.html#Arity" xlink:title="Arity">
<ellipse fill="#f070d1" stroke="#000000" cx="79.0185" cy="-114" rx="34.4039" ry="18"/>
<ellipse fill="none" stroke="#000000" cx="79.0185" cy="-114" rx="38.3989" ry="22"/>
<ellipse fill="none" stroke="#000000" cx="79.0185" cy="-114" rx="42.394" ry="26"/>
<text text-anchor="middle" x="79.0185" y="-110.3" font-family="Times,serif" font-size="14.00" fill="#000000">Arity</text>
</a>
</g>
</g>
<!-- Algebra_Arity&#45;&gt;Algebra_SymbolTypeOf -->
<g id="edge26" class="edge">
<title>Algebra_Arity&#45;&gt;Algebra_SymbolTypeOf</title>
<path fill="none" stroke="#000000" d="M117.5766,-103.0391C135.3089,-98.1598 156.6615,-92.5105 176.0185,-88 243.3326,-72.3146 320.6901,-57.2391 375.6563,-47.0225"/>
<polygon fill="#000000" stroke="#000000" points="376.4558,-50.4341 385.6517,-45.1724 375.1816,-43.551 376.4558,-50.4341"/>
</g>
<!-- Algebra_Build_SymbolTypeOf -->
<g id="node23" class="node">
<title>Algebra_Build_SymbolTypeOf</title>
<g id="a_node23"><a xlink:href="Algebra.html#Build_SymbolTypeOf" xlink:title="Build_SymbolTypeOf">
<ellipse fill="#7faaff" stroke="#000000" cx="182.0185" cy="-522" rx="108.578" ry="18"/>
<ellipse fill="none" stroke="#000000" cx="182.0185" cy="-522" rx="112.5794" ry="22"/>
<ellipse fill="none" stroke="#000000" cx="182.0185" cy="-522" rx="116.5808" ry="26"/>
<text text-anchor="middle" x="182.0185" y="-518.3" font-family="Times,serif" font-size="14.00" fill="#000000">Build_SymbolTypeOf</text>
</a>
</g>
</g>
</g>
</svg>
