<?xml version="1.0" encoding="UTF-8" standalone="no"?>
<!DOCTYPE svg PUBLIC "-//W3C//DTD SVG 1.1//EN"
 "http://www.w3.org/Graphics/SVG/1.1/DTD/svg11.dtd">
<!-- Generated by graphviz version 2.40.1 (20161225.0304)
 -->
<!-- Title: HoTT_Spaces_No_Negation Pages: 1 -->
<svg width="742pt" height="375pt"
 viewBox="0.00 0.00 742.00 375.00" xmlns="http://www.w3.org/2000/svg" xmlns:xlink="http://www.w3.org/1999/xlink">
<g id="graph0" class="graph" transform="scale(1 1) rotate(0) translate(4 371)">
<title>HoTT_Spaces_No_Negation</title>
<polygon fill="#ffffff" stroke="transparent" points="-4,4 -4,-371 738,-371 738,4 -4,4"/>
<g id="clust1" class="cluster">
<title>cluster_Negation</title>
<polygon fill="#ffffc3" stroke="#000000" points="8,-8.6608 8,-358.3392 726,-358.3392 726,-8.6608 8,-8.6608"/>
<text text-anchor="middle" x="49.5" y="-343.1392" font-family="Times,serif" font-size="14.00" fill="#000000">Negation</text>
</g>
<!-- Negation_negate_cut -->
<g id="node1" class="node">
<title>Negation_negate_cut</title>
<g id="a_node1"><a xlink:href="Negation.html#negate_cut" xlink:title="negate_cut">
<ellipse fill="#f070d1" stroke="#000000" cx="634" cy="-296.6608" rx="62.3011" ry="18"/>
<ellipse fill="none" stroke="#000000" cx="634" cy="-296.6608" rx="66.2951" ry="22"/>
<ellipse fill="none" stroke="#000000" cx="634" cy="-296.6608" rx="70.2891" ry="26"/>
<text text-anchor="middle" x="634" y="-292.9608" font-family="Times,serif" font-size="14.00" fill="#000000">negate_cut</text>
</a>
</g>
</g>
<!-- Negation_negate -->
<g id="node3" class="node">
<title>Negation_negate</title>
<g id="a_node3"><a xlink:href="Negation.html#negate" xlink:title="negate">
<ellipse fill="#f070d1" stroke="#000000" cx="619" cy="-209.6608" rx="42.4939" ry="18"/>
<text text-anchor="middle" x="619" y="-205.9608" font-family="Times,serif" font-size="14.00" fill="#000000">negate</text>
</a>
</g>
</g>
<!-- Negation_negate_cut&#45;&gt;Negation_negate -->
<g id="edge1" class="edge">
<title>Negation_negate_cut&#45;&gt;Negation_negate</title>
<path fill="none" stroke="#000000" d="M629.4995,-270.5579C627.7132,-260.1972 625.6551,-248.2601 623.8369,-237.7148"/>
<polygon fill="#000000" stroke="#000000" points="627.2659,-237.0032 622.1177,-227.7433 620.3677,-238.1927 627.2659,-237.0032"/>
</g>
<!-- Negation_Unnamed_thm -->
<g id="node2" class="node">
<title>Negation_Unnamed_thm</title>
<g id="a_node2"><a xlink:href="Negation.html#Unnamed_thm" xlink:title="Unnamed_thm">
<ellipse fill="#f070d1" stroke="#000000" cx="458" cy="-296.6608" rx="79.1053" ry="18"/>
<ellipse fill="none" stroke="#000000" cx="458" cy="-296.6608" rx="83.0959" ry="22"/>
<ellipse fill="none" stroke="#000000" cx="458" cy="-296.6608" rx="87.0864" ry="26"/>
<text text-anchor="middle" x="458" y="-292.9608" font-family="Times,serif" font-size="14.00" fill="#000000">Unnamed_thm</text>
</a>
</g>
</g>
<!-- Negation_Unnamed_thm&#45;&gt;Negation_negate -->
<g id="edge2" class="edge">
<title>Negation_Unnamed_thm&#45;&gt;Negation_negate</title>
<path fill="none" stroke="#000000" d="M500.3009,-273.8025C526.2413,-259.785 559.0711,-242.0447 583.6259,-228.7759"/>
<polygon fill="#000000" stroke="#000000" points="585.4663,-231.7599 592.6,-223.9266 582.1384,-225.6015 585.4663,-231.7599"/>
</g>
<!-- Negation_symmetric_options -->
<g id="node6" class="node">
<title>Negation_symmetric_options</title>
<g id="a_node6"><a xlink:href="Negation.html#symmetric_options" xlink:title="symmetric_options">
<ellipse fill="#f070d1" stroke="#000000" cx="619" cy="-123.6608" rx="99.3824" ry="18"/>
<text text-anchor="middle" x="619" y="-119.9608" font-family="Times,serif" font-size="14.00" fill="#000000">symmetric_options</text>
</a>
</g>
</g>
<!-- Negation_negate&#45;&gt;Negation_symmetric_options -->
<g id="edge3" class="edge">
<title>Negation_negate&#45;&gt;Negation_symmetric_options</title>
<path fill="none" stroke="#000000" d="M619,-191.4224C619,-180.0204 619,-165.0949 619,-152.1547"/>
<polygon fill="#000000" stroke="#000000" points="622.5001,-151.8728 619,-141.8729 615.5001,-151.8729 622.5001,-151.8728"/>
</g>
<!-- Negation_hasnegation_decsort -->
<g id="node4" class="node">
<title>Negation_hasnegation_decsort</title>
<g id="a_node4"><a xlink:href="Negation.html#hasnegation_decsort" xlink:title="hasnegation_decsort">
<ellipse fill="#f070d1" stroke="#000000" cx="386" cy="-123.6608" rx="107.4647" ry="18"/>
<ellipse fill="none" stroke="#000000" cx="386" cy="-123.6608" rx="111.4731" ry="22"/>
<ellipse fill="none" stroke="#000000" cx="386" cy="-123.6608" rx="115.4815" ry="26"/>
<text text-anchor="middle" x="386" y="-119.9608" font-family="Times,serif" font-size="14.00" fill="#000000">hasnegation_decsort</text>
</a>
</g>
</g>
<!-- Negation_HasNegation -->
<g id="node7" class="node">
<title>Negation_HasNegation</title>
<g id="a_node7"><a xlink:href="Negation.html#HasNegation" xlink:title="HasNegation">
<ellipse fill="#f070d1" stroke="#000000" cx="386" cy="-36.6608" rx="72.2875" ry="18"/>
<text text-anchor="middle" x="386" y="-32.9608" font-family="Times,serif" font-size="14.00" fill="#000000">HasNegation</text>
</a>
</g>
</g>
<!-- Negation_hasnegation_decsort&#45;&gt;Negation_HasNegation -->
<g id="edge4" class="edge">
<title>Negation_hasnegation_decsort&#45;&gt;Negation_HasNegation</title>
<path fill="none" stroke="#000000" d="M386,-97.5579C386,-87.3052 386,-75.5086 386,-65.0448"/>
<polygon fill="#000000" stroke="#000000" points="389.5001,-64.7433 386,-54.7433 382.5001,-64.7434 389.5001,-64.7433"/>
</g>
<!-- Negation_hasnegation_maxsort -->
<g id="node5" class="node">
<title>Negation_hasnegation_maxsort</title>
<g id="a_node5"><a xlink:href="Negation.html#hasnegation_maxsort" xlink:title="hasnegation_maxsort">
<ellipse fill="#f070d1" stroke="#000000" cx="134" cy="-123.6608" rx="110.4811" ry="18"/>
<ellipse fill="none" stroke="#000000" cx="134" cy="-123.6608" rx="114.4807" ry="22"/>
<ellipse fill="none" stroke="#000000" cx="134" cy="-123.6608" rx="118.4804" ry="26"/>
<text text-anchor="middle" x="134" y="-119.9608" font-family="Times,serif" font-size="14.00" fill="#000000">hasnegation_maxsort</text>
</a>
</g>
</g>
<!-- Negation_hasnegation_maxsort&#45;&gt;Negation_HasNegation -->
<g id="edge5" class="edge">
<title>Negation_hasnegation_maxsort&#45;&gt;Negation_HasNegation</title>
<path fill="none" stroke="#000000" d="M197.5902,-101.707C239.7514,-87.1514 294.385,-68.2898 333.9555,-54.6285"/>
<polygon fill="#000000" stroke="#000000" points="335.1106,-57.9325 343.4209,-51.3607 332.8262,-51.3157 335.1106,-57.9325"/>
</g>
<!-- Negation_symmetric_options&#45;&gt;Negation_HasNegation -->
<g id="edge6" class="edge">
<title>Negation_symmetric_options&#45;&gt;Negation_HasNegation</title>
<path fill="none" stroke="#000000" d="M575.4478,-107.3988C535.7336,-92.5699 477.0946,-70.6746 435.5928,-55.1783"/>
<polygon fill="#000000" stroke="#000000" points="436.8161,-51.899 426.2235,-51.6799 434.3675,-58.4568 436.8161,-51.899"/>
</g>
</g>
</svg>
