<?xml version="1.0" encoding="UTF-8" standalone="no"?>
<!DOCTYPE svg PUBLIC "-//W3C//DTD SVG 1.1//EN"
 "http://www.w3.org/Graphics/SVG/1.1/DTD/svg11.dtd">
<!-- Generated by graphviz version 2.40.1 (20161225.0304)
 -->
<!-- Title: HoTT_WildCat_Induced Pages: 1 -->
<svg width="830pt" height="419pt"
 viewBox="0.00 0.00 830.00 419.00" xmlns="http://www.w3.org/2000/svg" xmlns:xlink="http://www.w3.org/1999/xlink">
<g id="graph0" class="graph" transform="scale(1 1) rotate(0) translate(4 415)">
<title>HoTT_WildCat_Induced</title>
<polygon fill="#ffffff" stroke="transparent" points="-4,4 -4,-415 826,-415 826,4 -4,4"/>
<g id="clust1" class="cluster">
<title>cluster_Induced</title>
<polygon fill="#ffffc3" stroke="#000000" points="9.1333,-8 9.1333,-403 812.8667,-403 812.8667,-8 9.1333,-8"/>
<text text-anchor="middle" x="46.6333" y="-387.8" font-family="Times,serif" font-size="14.00" fill="#000000">Induced</text>
</g>
<!-- Induced_hasequivs_induced -->
<g id="node1" class="node">
<title>Induced_hasequivs_induced</title>
<g id="a_node1"><a xlink:href="Induced.html#hasequivs_induced" xlink:title="hasequivs_induced">
<ellipse fill="#f070d1" stroke="#000000" cx="681.5667" cy="-346" rx="98.5985" ry="18"/>
<ellipse fill="none" stroke="#000000" cx="681.5667" cy="-346" rx="102.5907" ry="22"/>
<ellipse fill="none" stroke="#000000" cx="681.5667" cy="-346" rx="106.5829" ry="26"/>
<text text-anchor="middle" x="681.5667" y="-342.3" font-family="Times,serif" font-size="14.00" fill="#000000">hasequivs_induced</text>
</a>
</g>
</g>
<!-- Induced_is1cat_induced -->
<g id="node4" class="node">
<title>Induced_is1cat_induced</title>
<g id="a_node4"><a xlink:href="Induced.html#is1cat_induced" xlink:title="is1cat_induced">
<ellipse fill="#f070d1" stroke="#000000" cx="413.5667" cy="-258" rx="81.4863" ry="18"/>
<text text-anchor="middle" x="413.5667" y="-254.3" font-family="Times,serif" font-size="14.00" fill="#000000">is1cat_induced</text>
</a>
</g>
</g>
<!-- Induced_hasequivs_induced&#45;&gt;Induced_is1cat_induced -->
<g id="edge1" class="edge">
<title>Induced_hasequivs_induced&#45;&gt;Induced_is1cat_induced</title>
<path fill="none" stroke="#000000" d="M617.7145,-325.0336C572.3746,-310.1459 512.1131,-290.3585 468.8328,-276.1471"/>
<polygon fill="#000000" stroke="#000000" points="469.911,-272.8173 459.3181,-273.0229 467.7271,-279.468 469.911,-272.8173"/>
</g>
<!-- Induced_hasmorext_induced -->
<g id="node2" class="node">
<title>Induced_hasmorext_induced</title>
<g id="a_node2"><a xlink:href="Induced.html#hasmorext_induced" xlink:title="hasmorext_induced">
<ellipse fill="#f070d1" stroke="#000000" cx="413.5667" cy="-346" rx="102.0789" ry="18"/>
<ellipse fill="none" stroke="#000000" cx="413.5667" cy="-346" rx="106.0804" ry="22"/>
<ellipse fill="none" stroke="#000000" cx="413.5667" cy="-346" rx="110.0819" ry="26"/>
<text text-anchor="middle" x="413.5667" y="-342.3" font-family="Times,serif" font-size="14.00" fill="#000000">hasmorext_induced</text>
</a>
</g>
</g>
<!-- Induced_hasmorext_induced&#45;&gt;Induced_is1cat_induced -->
<g id="edge2" class="edge">
<title>Induced_hasmorext_induced&#45;&gt;Induced_is1cat_induced</title>
<path fill="none" stroke="#000000" d="M413.5667,-319.5971C413.5667,-309.0414 413.5667,-296.868 413.5667,-286.1448"/>
<polygon fill="#000000" stroke="#000000" points="417.0668,-286.0188 413.5667,-276.0188 410.0668,-286.0188 417.0668,-286.0188"/>
</g>
<!-- Induced_is1functor_induced -->
<g id="node3" class="node">
<title>Induced_is1functor_induced</title>
<g id="a_node3"><a xlink:href="Induced.html#is1functor_induced" xlink:title="is1functor_induced">
<ellipse fill="#f070d1" stroke="#000000" cx="142.5667" cy="-346" rx="100.9649" ry="18"/>
<ellipse fill="none" stroke="#000000" cx="142.5667" cy="-346" rx="104.9738" ry="22"/>
<ellipse fill="none" stroke="#000000" cx="142.5667" cy="-346" rx="108.9827" ry="26"/>
<text text-anchor="middle" x="142.5667" y="-342.3" font-family="Times,serif" font-size="14.00" fill="#000000">is1functor_induced</text>
</a>
</g>
</g>
<!-- Induced_is1functor_induced&#45;&gt;Induced_is1cat_induced -->
<g id="edge3" class="edge">
<title>Induced_is1functor_induced&#45;&gt;Induced_is1cat_induced</title>
<path fill="none" stroke="#000000" d="M207.1336,-325.0336C253.1266,-310.0986 314.3041,-290.2329 358.0981,-276.0119"/>
<polygon fill="#000000" stroke="#000000" points="359.2921,-279.3042 367.7222,-272.8868 357.1301,-272.6464 359.2921,-279.3042"/>
</g>
<!-- Induced_is2graph_induced -->
<g id="node5" class="node">
<title>Induced_is2graph_induced</title>
<g id="a_node5"><a xlink:href="Induced.html#is2graph_induced" xlink:title="is2graph_induced">
<ellipse fill="#f070d1" stroke="#000000" cx="417.5667" cy="-178" rx="93.6835" ry="18"/>
<text text-anchor="middle" x="417.5667" y="-174.3" font-family="Times,serif" font-size="14.00" fill="#000000">is2graph_induced</text>
</a>
</g>
</g>
<!-- Induced_is1cat_induced&#45;&gt;Induced_is2graph_induced -->
<g id="edge4" class="edge">
<title>Induced_is1cat_induced&#45;&gt;Induced_is2graph_induced</title>
<path fill="none" stroke="#000000" d="M414.4743,-239.8468C414.9704,-229.9251 415.5958,-217.4167 416.1542,-206.2492"/>
<polygon fill="#000000" stroke="#000000" points="419.6588,-206.2437 416.6626,-196.0814 412.6675,-205.8941 419.6588,-206.2437"/>
</g>
<!-- Induced_is01cat_induced -->
<g id="node8" class="node">
<title>Induced_is01cat_induced</title>
<g id="a_node8"><a xlink:href="Induced.html#is01cat_induced" xlink:title="is01cat_induced">
<ellipse fill="#f070d1" stroke="#000000" cx="190.5667" cy="-178" rx="87.1846" ry="18"/>
<text text-anchor="middle" x="190.5667" y="-174.3" font-family="Times,serif" font-size="14.00" fill="#000000">is01cat_induced</text>
</a>
</g>
</g>
<!-- Induced_is1cat_induced&#45;&gt;Induced_is01cat_induced -->
<g id="edge5" class="edge">
<title>Induced_is1cat_induced&#45;&gt;Induced_is01cat_induced</title>
<path fill="none" stroke="#000000" d="M370.8339,-242.6699C334.6916,-229.704 282.7339,-211.0645 243.8762,-197.1245"/>
<polygon fill="#000000" stroke="#000000" points="244.8915,-193.7704 234.297,-193.688 242.5277,-200.3592 244.8915,-193.7704"/>
</g>
<!-- Induced_is0functor_induced -->
<g id="node6" class="node">
<title>Induced_is0functor_induced</title>
<g id="a_node6"><a xlink:href="Induced.html#is0functor_induced" xlink:title="is0functor_induced">
<ellipse fill="#f070d1" stroke="#000000" cx="394.5667" cy="-106" rx="100.9827" ry="18"/>
<text text-anchor="middle" x="394.5667" y="-102.3" font-family="Times,serif" font-size="14.00" fill="#000000">is0functor_induced</text>
</a>
</g>
</g>
<!-- Induced_is2graph_induced&#45;&gt;Induced_is0functor_induced -->
<g id="edge6" class="edge">
<title>Induced_is2graph_induced&#45;&gt;Induced_is0functor_induced</title>
<path fill="none" stroke="#000000" d="M411.7628,-159.8314C409.2759,-152.0463 406.3136,-142.7729 403.5542,-134.1347"/>
<polygon fill="#000000" stroke="#000000" points="406.8257,-132.874 400.4487,-124.4133 400.1577,-135.0041 406.8257,-132.874"/>
</g>
<!-- Induced_isgraph_induced -->
<g id="node9" class="node">
<title>Induced_isgraph_induced</title>
<g id="a_node9"><a xlink:href="Induced.html#isgraph_induced" xlink:title="isgraph_induced">
<ellipse fill="#f070d1" stroke="#000000" cx="281.5667" cy="-34" rx="87.9851" ry="18"/>
<text text-anchor="middle" x="281.5667" y="-30.3" font-family="Times,serif" font-size="14.00" fill="#000000">isgraph_induced</text>
</a>
</g>
</g>
<!-- Induced_is0functor_induced&#45;&gt;Induced_isgraph_induced -->
<g id="edge7" class="edge">
<title>Induced_is0functor_induced&#45;&gt;Induced_isgraph_induced</title>
<path fill="none" stroke="#000000" d="M367.2125,-88.5708C352.2221,-79.0194 333.4623,-67.0662 317.3242,-56.7836"/>
<polygon fill="#000000" stroke="#000000" points="318.9832,-53.6906 308.6689,-51.2687 315.2217,-59.5941 318.9832,-53.6906"/>
</g>
<!-- Induced_is0gpd_induced -->
<g id="node7" class="node">
<title>Induced_is0gpd_induced</title>
<g id="a_node7"><a xlink:href="Induced.html#is0gpd_induced" xlink:title="is0gpd_induced">
<ellipse fill="#f070d1" stroke="#000000" cx="190.5667" cy="-258" rx="83.6991" ry="18"/>
<ellipse fill="none" stroke="#000000" cx="190.5667" cy="-258" rx="87.6922" ry="22"/>
<ellipse fill="none" stroke="#000000" cx="190.5667" cy="-258" rx="91.6854" ry="26"/>
<text text-anchor="middle" x="190.5667" y="-254.3" font-family="Times,serif" font-size="14.00" fill="#000000">is0gpd_induced</text>
</a>
</g>
</g>
<!-- Induced_is0gpd_induced&#45;&gt;Induced_is01cat_induced -->
<g id="edge8" class="edge">
<title>Induced_is0gpd_induced&#45;&gt;Induced_is01cat_induced</title>
<path fill="none" stroke="#000000" d="M190.5667,-231.805C190.5667,-223.6026 190.5667,-214.5174 190.5667,-206.1839"/>
<polygon fill="#000000" stroke="#000000" points="194.0668,-206.1532 190.5667,-196.1532 187.0668,-206.1533 194.0668,-206.1532"/>
</g>
<!-- Induced_is01cat_induced&#45;&gt;Induced_isgraph_induced -->
<g id="edge9" class="edge">
<title>Induced_is01cat_induced&#45;&gt;Induced_isgraph_induced</title>
<path fill="none" stroke="#000000" d="M201.9079,-160.0535C217.643,-135.154 246.2223,-89.9295 264.529,-60.9606"/>
<polygon fill="#000000" stroke="#000000" points="267.6991,-62.496 270.0825,-52.1727 261.7816,-58.7565 267.6991,-62.496"/>
</g>
</g>
</svg>
