<?xml version="1.0" encoding="UTF-8" standalone="no"?>
<!DOCTYPE svg PUBLIC "-//W3C//DTD SVG 1.1//EN"
 "http://www.w3.org/Graphics/SVG/1.1/DTD/svg11.dtd">
<!-- Generated by graphviz version 2.40.1 (20161225.0304)
 -->
<!-- Title: HoTT_Basics_UniverseLevel Pages: 1 -->
<svg width="1346pt" height="677pt"
 viewBox="0.00 0.00 1346.00 677.00" xmlns="http://www.w3.org/2000/svg" xmlns:xlink="http://www.w3.org/1999/xlink">
<g id="graph0" class="graph" transform="scale(1 1) rotate(0) translate(4 673)">
<title>HoTT_Basics_UniverseLevel</title>
<polygon fill="#ffffff" stroke="transparent" points="-4,4 -4,-673 1342,-673 1342,4 -4,4"/>
<g id="clust1" class="cluster">
<title>cluster_UniverseLevel</title>
<polygon fill="#ffffc3" stroke="#000000" points="8,-13.0219 8,-655.9781 1330,-655.9781 1330,-13.0219 8,-13.0219"/>
<text text-anchor="middle" x="68" y="-640.7781" font-family="Times,serif" font-size="14.00" fill="#000000">UniverseLevel</text>
</g>
<!-- UniverseLevel_lower__equiv -->
<g id="node1" class="node">
<title>UniverseLevel_lower__equiv</title>
<g id="a_node1"><a xlink:href="UniverseLevel.html#lower'_equiv" xlink:title="lower&#39;_equiv">
<ellipse fill="#f070d1" stroke="#000000" cx="1082" cy="-563.0219" rx="69.5832" ry="18"/>
<ellipse fill="none" stroke="#000000" cx="1082" cy="-563.0219" rx="73.5854" ry="22"/>
<ellipse fill="none" stroke="#000000" cx="1082" cy="-563.0219" rx="77.5877" ry="26"/>
<text text-anchor="middle" x="1082" y="-559.3219" font-family="Times,serif" font-size="14.00" fill="#000000">lower&#39;_equiv</text>
</a>
</g>
</g>
<!-- UniverseLevel_lower__isequiv -->
<g id="node2" class="node">
<title>UniverseLevel_lower__isequiv</title>
<g id="a_node2"><a xlink:href="UniverseLevel.html#lower'_isequiv" xlink:title="lower&#39;_isequiv">
<ellipse fill="#f070d1" stroke="#000000" cx="1082" cy="-420.0219" rx="77.1866" ry="18"/>
<text text-anchor="middle" x="1082" y="-416.3219" font-family="Times,serif" font-size="14.00" fill="#000000">lower&#39;_isequiv</text>
</a>
</g>
</g>
<!-- UniverseLevel_lower__equiv&#45;&gt;UniverseLevel_lower__isequiv -->
<g id="edge1" class="edge">
<title>UniverseLevel_lower__equiv&#45;&gt;UniverseLevel_lower__isequiv</title>
<path fill="none" stroke="#000000" d="M1082,-536.7935C1082,-511.8182 1082,-474.3234 1082,-448.5983"/>
<polygon fill="#000000" stroke="#000000" points="1085.5001,-448.3646 1082,-438.3647 1078.5001,-448.3647 1085.5001,-448.3646"/>
</g>
<!-- UniverseLevel_lower_2 -->
<g id="node6" class="node">
<title>UniverseLevel_lower_2</title>
<g id="a_node6"><a xlink:href="UniverseLevel.html#lower'2" xlink:title="lower&#39;2">
<ellipse fill="#f070d1" stroke="#000000" cx="1000" cy="-290.0219" rx="44.6926" ry="18"/>
<text text-anchor="middle" x="1000" y="-286.3219" font-family="Times,serif" font-size="14.00" fill="#000000">lower&#39;2</text>
</a>
</g>
</g>
<!-- UniverseLevel_lower__isequiv&#45;&gt;UniverseLevel_lower_2 -->
<g id="edge2" class="edge">
<title>UniverseLevel_lower__isequiv&#45;&gt;UniverseLevel_lower_2</title>
<path fill="none" stroke="#000000" d="M1070.5983,-401.946C1056.567,-379.7013 1032.633,-341.7571 1016.5713,-316.2934"/>
<polygon fill="#000000" stroke="#000000" points="1019.3383,-314.1197 1011.0429,-307.529 1013.4177,-317.8542 1019.3383,-314.1197"/>
</g>
<!-- UniverseLevel_lift_ -->
<g id="node9" class="node">
<title>UniverseLevel_lift_</title>
<g id="a_node9"><a xlink:href="UniverseLevel.html#lift'" xlink:title="lift&#39;">
<ellipse fill="#f070d1" stroke="#000000" cx="1090" cy="-290.0219" rx="27" ry="18"/>
<text text-anchor="middle" x="1090" y="-286.3219" font-family="Times,serif" font-size="14.00" fill="#000000">lift&#39;</text>
</a>
</g>
</g>
<!-- UniverseLevel_lower__isequiv&#45;&gt;UniverseLevel_lift_ -->
<g id="edge3" class="edge">
<title>UniverseLevel_lower__isequiv&#45;&gt;UniverseLevel_lift_</title>
<path fill="none" stroke="#000000" d="M1083.1124,-401.946C1084.4422,-380.3358 1086.6839,-343.9087 1088.2474,-318.502"/>
<polygon fill="#000000" stroke="#000000" points="1091.7504,-318.5595 1088.8713,-308.3634 1084.7636,-318.1295 1091.7504,-318.5595"/>
</g>
<!-- UniverseLevel_lift__isequiv -->
<g id="node3" class="node">
<title>UniverseLevel_lift__isequiv</title>
<g id="a_node3"><a xlink:href="UniverseLevel.html#lift'_isequiv" xlink:title="lift&#39;_isequiv">
<ellipse fill="#f070d1" stroke="#000000" cx="914" cy="-420.0219" rx="64.2061" ry="18"/>
<ellipse fill="none" stroke="#000000" cx="914" cy="-420.0219" rx="68.1975" ry="22"/>
<ellipse fill="none" stroke="#000000" cx="914" cy="-420.0219" rx="72.1889" ry="26"/>
<text text-anchor="middle" x="914" y="-416.3219" font-family="Times,serif" font-size="14.00" fill="#000000">lift&#39;_isequiv</text>
</a>
</g>
</g>
<!-- UniverseLevel_lift_2 -->
<g id="node7" class="node">
<title>UniverseLevel_lift_2</title>
<g id="a_node7"><a xlink:href="UniverseLevel.html#lift'2" xlink:title="lift&#39;2">
<ellipse fill="#f070d1" stroke="#000000" cx="905" cy="-290.0219" rx="32.4942" ry="18"/>
<text text-anchor="middle" x="905" y="-286.3219" font-family="Times,serif" font-size="14.00" fill="#000000">lift&#39;2</text>
</a>
</g>
</g>
<!-- UniverseLevel_lift__isequiv&#45;&gt;UniverseLevel_lift_2 -->
<g id="edge4" class="edge">
<title>UniverseLevel_lift__isequiv&#45;&gt;UniverseLevel_lift_2</title>
<path fill="none" stroke="#000000" d="M912.2003,-394.0269C910.6839,-372.1222 908.5181,-340.8393 906.9585,-318.3106"/>
<polygon fill="#000000" stroke="#000000" points="910.4294,-317.7682 906.247,-308.0338 903.4461,-318.2517 910.4294,-317.7682"/>
</g>
<!-- UniverseLevel_lift__isequiv&#45;&gt;UniverseLevel_lift_ -->
<g id="edge5" class="edge">
<title>UniverseLevel_lift__isequiv&#45;&gt;UniverseLevel_lift_</title>
<path fill="none" stroke="#000000" d="M945.8723,-396.4799C979.5555,-371.6002 1032.0681,-332.8125 1063.5436,-309.5635"/>
<polygon fill="#000000" stroke="#000000" points="1065.8662,-312.1993 1071.8304,-303.4426 1061.7072,-306.5687 1065.8662,-312.1993"/>
</g>
<!-- UniverseLevel_isequiv_lift_2 -->
<g id="node4" class="node">
<title>UniverseLevel_isequiv_lift_2</title>
<g id="a_node4"><a xlink:href="UniverseLevel.html#isequiv_lift'2" xlink:title="isequiv_lift&#39;2">
<ellipse fill="#f070d1" stroke="#000000" cx="745" cy="-420.0219" rx="70.3682" ry="18"/>
<ellipse fill="none" stroke="#000000" cx="745" cy="-420.0219" rx="74.3781" ry="22"/>
<ellipse fill="none" stroke="#000000" cx="745" cy="-420.0219" rx="78.388" ry="26"/>
<text text-anchor="middle" x="745" y="-416.3219" font-family="Times,serif" font-size="14.00" fill="#000000">isequiv_lift&#39;2</text>
</a>
</g>
</g>
<!-- UniverseLevel_isequiv_lift_2&#45;&gt;UniverseLevel_lower_2 -->
<g id="edge6" class="edge">
<title>UniverseLevel_isequiv_lift_2&#45;&gt;UniverseLevel_lower_2</title>
<path fill="none" stroke="#000000" d="M787.9689,-398.1162C837.1016,-373.0681 916.7149,-332.481 963.1365,-308.8151"/>
<polygon fill="#000000" stroke="#000000" points="964.9181,-311.8354 972.2375,-304.1753 961.7387,-305.5991 964.9181,-311.8354"/>
</g>
<!-- UniverseLevel_isequiv_lift_2&#45;&gt;UniverseLevel_lift_2 -->
<g id="edge7" class="edge">
<title>UniverseLevel_isequiv_lift_2&#45;&gt;UniverseLevel_lift_2</title>
<path fill="none" stroke="#000000" d="M774.7198,-395.8746C804.4955,-371.6818 849.8988,-334.7916 878.4866,-311.5641"/>
<polygon fill="#000000" stroke="#000000" points="880.8756,-314.1326 886.4297,-305.1103 876.4614,-308.6998 880.8756,-314.1326"/>
</g>
<!-- UniverseLevel_isequiv_lift_ -->
<g id="node5" class="node">
<title>UniverseLevel_isequiv_lift_</title>
<g id="a_node5"><a xlink:href="UniverseLevel.html#isequiv_lift'" xlink:title="isequiv_lift&#39;">
<ellipse fill="#f070d1" stroke="#000000" cx="1250" cy="-420.0219" rx="64.2061" ry="18"/>
<ellipse fill="none" stroke="#000000" cx="1250" cy="-420.0219" rx="68.1975" ry="22"/>
<ellipse fill="none" stroke="#000000" cx="1250" cy="-420.0219" rx="72.1889" ry="26"/>
<text text-anchor="middle" x="1250" y="-416.3219" font-family="Times,serif" font-size="14.00" fill="#000000">isequiv_lift&#39;</text>
</a>
</g>
</g>
<!-- UniverseLevel_lower_ -->
<g id="node8" class="node">
<title>UniverseLevel_lower_</title>
<g id="a_node8"><a xlink:href="UniverseLevel.html#lower'" xlink:title="lower&#39;">
<ellipse fill="#f070d1" stroke="#000000" cx="1008" cy="-173.0219" rx="38.9931" ry="18"/>
<text text-anchor="middle" x="1008" y="-169.3219" font-family="Times,serif" font-size="14.00" fill="#000000">lower&#39;</text>
</a>
</g>
</g>
<!-- UniverseLevel_isequiv_lift_&#45;&gt;UniverseLevel_lower_ -->
<g id="edge8" class="edge">
<title>UniverseLevel_isequiv_lift_&#45;&gt;UniverseLevel_lower_</title>
<path fill="none" stroke="#000000" d="M1231.0582,-394.7835C1207.7454,-364.369 1166.2813,-312.3303 1126,-272.0219 1097.424,-243.4267 1061.4483,-214.0802 1036.7776,-194.8417"/>
<polygon fill="#000000" stroke="#000000" points="1038.6037,-191.8292 1028.5534,-188.4762 1034.3191,-197.3648 1038.6037,-191.8292"/>
</g>
<!-- UniverseLevel_isequiv_lift_&#45;&gt;UniverseLevel_lift_ -->
<g id="edge9" class="edge">
<title>UniverseLevel_isequiv_lift_&#45;&gt;UniverseLevel_lift_</title>
<path fill="none" stroke="#000000" d="M1220.6535,-396.1779C1190.4368,-371.6268 1143.8416,-333.7682 1115.2278,-310.5195"/>
<polygon fill="#000000" stroke="#000000" points="1117.2812,-307.6782 1107.3129,-304.0886 1112.867,-313.111 1117.2812,-307.6782"/>
</g>
<!-- UniverseLevel_lower_2&#45;&gt;UniverseLevel_lower_ -->
<g id="edge10" class="edge">
<title>UniverseLevel_lower_2&#45;&gt;UniverseLevel_lower_</title>
<path fill="none" stroke="#000000" d="M1001.2325,-271.9971C1002.5206,-253.1575 1004.5599,-223.3331 1006.0635,-201.3432"/>
<polygon fill="#000000" stroke="#000000" points="1009.5625,-201.4755 1006.753,-191.26 1002.5788,-200.9979 1009.5625,-201.4755"/>
</g>
<!-- UniverseLevel_lift_2&#45;&gt;UniverseLevel_lower_ -->
<g id="edge11" class="edge">
<title>UniverseLevel_lift_2&#45;&gt;UniverseLevel_lower_</title>
<path fill="none" stroke="#000000" d="M919.3217,-273.7535C936.7269,-253.9826 966.2633,-220.4315 986.4269,-197.5272"/>
<polygon fill="#000000" stroke="#000000" points="989.1522,-199.7284 993.1329,-189.9097 983.8981,-195.1029 989.1522,-199.7284"/>
</g>
<!-- UniverseLevel_Lift_ -->
<g id="node10" class="node">
<title>UniverseLevel_Lift_</title>
<g id="a_node10"><a xlink:href="UniverseLevel.html#Lift'" xlink:title="Lift&#39;">
<ellipse fill="#f070d1" stroke="#000000" cx="1045" cy="-55.0219" rx="29.795" ry="18"/>
<text text-anchor="middle" x="1045" y="-51.3219" font-family="Times,serif" font-size="14.00" fill="#000000">Lift&#39;</text>
</a>
</g>
</g>
<!-- UniverseLevel_lower_&#45;&gt;UniverseLevel_Lift_ -->
<g id="edge12" class="edge">
<title>UniverseLevel_lower_&#45;&gt;UniverseLevel_Lift_</title>
<path fill="none" stroke="#000000" d="M1013.6195,-155.1002C1019.6853,-135.7553 1029.4186,-104.7139 1036.4378,-82.3285"/>
<polygon fill="#000000" stroke="#000000" points="1039.7965,-83.3147 1039.4488,-72.7256 1033.1171,-81.2203 1039.7965,-83.3147"/>
</g>
<!-- UniverseLevel_lift_&#45;&gt;UniverseLevel_Lift_ -->
<g id="edge13" class="edge">
<title>UniverseLevel_lift_&#45;&gt;UniverseLevel_Lift_</title>
<path fill="none" stroke="#000000" d="M1086.5436,-271.972C1078.7399,-231.2192 1059.7097,-131.8393 1050.3613,-83.0199"/>
<polygon fill="#000000" stroke="#000000" points="1053.7865,-82.2965 1048.4681,-73.1332 1046.9114,-83.6131 1053.7865,-82.2965"/>
</g>
<!-- UniverseLevel_lower_equiv -->
<g id="node11" class="node">
<title>UniverseLevel_lower_equiv</title>
<g id="a_node11"><a xlink:href="UniverseLevel.html#lower_equiv" xlink:title="lower_equiv">
<ellipse fill="#f070d1" stroke="#000000" cx="417" cy="-563.0219" rx="66.8941" ry="18"/>
<ellipse fill="none" stroke="#000000" cx="417" cy="-563.0219" rx="70.8911" ry="22"/>
<ellipse fill="none" stroke="#000000" cx="417" cy="-563.0219" rx="74.8882" ry="26"/>
<text text-anchor="middle" x="417" y="-559.3219" font-family="Times,serif" font-size="14.00" fill="#000000">lower_equiv</text>
</a>
</g>
</g>
<!-- UniverseLevel_lower_isequiv -->
<g id="node12" class="node">
<title>UniverseLevel_lower_isequiv</title>
<g id="a_node12"><a xlink:href="UniverseLevel.html#lower_isequiv" xlink:title="lower_isequiv">
<ellipse fill="#f070d1" stroke="#000000" cx="417" cy="-420.0219" rx="74.9875" ry="18"/>
<text text-anchor="middle" x="417" y="-416.3219" font-family="Times,serif" font-size="14.00" fill="#000000">lower_isequiv</text>
</a>
</g>
</g>
<!-- UniverseLevel_lower_equiv&#45;&gt;UniverseLevel_lower_isequiv -->
<g id="edge14" class="edge">
<title>UniverseLevel_lower_equiv&#45;&gt;UniverseLevel_lower_isequiv</title>
<path fill="none" stroke="#000000" d="M417,-536.7935C417,-511.8182 417,-474.3234 417,-448.5983"/>
<polygon fill="#000000" stroke="#000000" points="420.5001,-448.3646 417,-438.3647 413.5001,-448.3647 420.5001,-448.3646"/>
</g>
<!-- UniverseLevel_lower2 -->
<g id="node16" class="node">
<title>UniverseLevel_lower2</title>
<g id="a_node16"><a xlink:href="UniverseLevel.html#lower2" xlink:title="lower2">
<ellipse fill="#f070d1" stroke="#000000" cx="338" cy="-290.0219" rx="42.4939" ry="18"/>
<text text-anchor="middle" x="338" y="-286.3219" font-family="Times,serif" font-size="14.00" fill="#000000">lower2</text>
</a>
</g>
</g>
<!-- UniverseLevel_lower_isequiv&#45;&gt;UniverseLevel_lower2 -->
<g id="edge15" class="edge">
<title>UniverseLevel_lower_isequiv&#45;&gt;UniverseLevel_lower2</title>
<path fill="none" stroke="#000000" d="M406.0154,-401.946C392.4975,-379.7013 369.4391,-341.7571 353.965,-316.2934"/>
<polygon fill="#000000" stroke="#000000" points="356.8232,-314.2571 348.6389,-307.529 350.8411,-317.8924 356.8232,-314.2571"/>
</g>
<!-- UniverseLevel_lift -->
<g id="node19" class="node">
<title>UniverseLevel_lift</title>
<g id="a_node19"><a xlink:href="UniverseLevel.html#lift" xlink:title="lift">
<ellipse fill="#f070d1" stroke="#000000" cx="425" cy="-290.0219" rx="27" ry="18"/>
<text text-anchor="middle" x="425" y="-286.3219" font-family="Times,serif" font-size="14.00" fill="#000000">lift</text>
</a>
</g>
</g>
<!-- UniverseLevel_lower_isequiv&#45;&gt;UniverseLevel_lift -->
<g id="edge16" class="edge">
<title>UniverseLevel_lower_isequiv&#45;&gt;UniverseLevel_lift</title>
<path fill="none" stroke="#000000" d="M418.1124,-401.946C419.4422,-380.3358 421.6839,-343.9087 423.2474,-318.502"/>
<polygon fill="#000000" stroke="#000000" points="426.7504,-318.5595 423.8713,-308.3634 419.7636,-318.1295 426.7504,-318.5595"/>
</g>
<!-- UniverseLevel_lift_isequiv -->
<g id="node13" class="node">
<title>UniverseLevel_lift_isequiv</title>
<g id="a_node13"><a xlink:href="UniverseLevel.html#lift_isequiv" xlink:title="lift_isequiv">
<ellipse fill="#f070d1" stroke="#000000" cx="255" cy="-420.0219" rx="61.9618" ry="18"/>
<ellipse fill="none" stroke="#000000" cx="255" cy="-420.0219" rx="65.9758" ry="22"/>
<ellipse fill="none" stroke="#000000" cx="255" cy="-420.0219" rx="69.9899" ry="26"/>
<text text-anchor="middle" x="255" y="-416.3219" font-family="Times,serif" font-size="14.00" fill="#000000">lift_isequiv</text>
</a>
</g>
</g>
<!-- UniverseLevel_lift2 -->
<g id="node17" class="node">
<title>UniverseLevel_lift2</title>
<g id="a_node17"><a xlink:href="UniverseLevel.html#lift2" xlink:title="lift2">
<ellipse fill="#f070d1" stroke="#000000" cx="248" cy="-290.0219" rx="29.795" ry="18"/>
<text text-anchor="middle" x="248" y="-286.3219" font-family="Times,serif" font-size="14.00" fill="#000000">lift2</text>
</a>
</g>
</g>
<!-- UniverseLevel_lift_isequiv&#45;&gt;UniverseLevel_lift2 -->
<g id="edge17" class="edge">
<title>UniverseLevel_lift_isequiv&#45;&gt;UniverseLevel_lift2</title>
<path fill="none" stroke="#000000" d="M253.6003,-394.0269C252.4208,-372.1222 250.7363,-340.8393 249.5232,-318.3106"/>
<polygon fill="#000000" stroke="#000000" points="253.0026,-317.8311 248.9699,-308.0338 246.0127,-318.2076 253.0026,-317.8311"/>
</g>
<!-- UniverseLevel_lift_isequiv&#45;&gt;UniverseLevel_lift -->
<g id="edge18" class="edge">
<title>UniverseLevel_lift_isequiv&#45;&gt;UniverseLevel_lift</title>
<path fill="none" stroke="#000000" d="M285.7857,-396.4799C318.1458,-371.734 368.4982,-333.2292 398.9534,-309.9399"/>
<polygon fill="#000000" stroke="#000000" points="401.1668,-312.6534 406.9843,-303.7986 396.9146,-307.0929 401.1668,-312.6534"/>
</g>
<!-- UniverseLevel_isequiv_lift2 -->
<g id="node14" class="node">
<title>UniverseLevel_isequiv_lift2</title>
<g id="a_node14"><a xlink:href="UniverseLevel.html#isequiv_lift2" xlink:title="isequiv_lift2">
<ellipse fill="#f070d1" stroke="#000000" cx="92" cy="-420.0219" rx="67.6782" ry="18"/>
<ellipse fill="none" stroke="#000000" cx="92" cy="-420.0219" rx="71.6831" ry="22"/>
<ellipse fill="none" stroke="#000000" cx="92" cy="-420.0219" rx="75.6881" ry="26"/>
<text text-anchor="middle" x="92" y="-416.3219" font-family="Times,serif" font-size="14.00" fill="#000000">isequiv_lift2</text>
</a>
</g>
</g>
<!-- UniverseLevel_isequiv_lift2&#45;&gt;UniverseLevel_lower2 -->
<g id="edge19" class="edge">
<title>UniverseLevel_isequiv_lift2&#45;&gt;UniverseLevel_lower2</title>
<path fill="none" stroke="#000000" d="M133.4524,-398.1162C180.752,-373.1204 257.3338,-332.6504 302.1566,-308.9635"/>
<polygon fill="#000000" stroke="#000000" points="304.0113,-311.9422 311.2173,-304.1753 300.7406,-305.7532 304.0113,-311.9422"/>
</g>
<!-- UniverseLevel_isequiv_lift2&#45;&gt;UniverseLevel_lift2 -->
<g id="edge20" class="edge">
<title>UniverseLevel_isequiv_lift2&#45;&gt;UniverseLevel_lift2</title>
<path fill="none" stroke="#000000" d="M120.9768,-395.8746C150.1685,-371.5482 194.766,-334.3836 222.6099,-311.1803"/>
<polygon fill="#000000" stroke="#000000" points="224.8932,-313.8336 230.3348,-304.7429 220.4119,-308.456 224.8932,-313.8336"/>
</g>
<!-- UniverseLevel_isequiv_lift -->
<g id="node15" class="node">
<title>UniverseLevel_isequiv_lift</title>
<g id="a_node15"><a xlink:href="UniverseLevel.html#isequiv_lift" xlink:title="isequiv_lift">
<ellipse fill="#f070d1" stroke="#000000" cx="579" cy="-420.0219" rx="61.9618" ry="18"/>
<ellipse fill="none" stroke="#000000" cx="579" cy="-420.0219" rx="65.9758" ry="22"/>
<ellipse fill="none" stroke="#000000" cx="579" cy="-420.0219" rx="69.9899" ry="26"/>
<text text-anchor="middle" x="579" y="-416.3219" font-family="Times,serif" font-size="14.00" fill="#000000">isequiv_lift</text>
</a>
</g>
</g>
<!-- UniverseLevel_lower -->
<g id="node18" class="node">
<title>UniverseLevel_lower</title>
<g id="a_node18"><a xlink:href="UniverseLevel.html#lower" xlink:title="lower">
<ellipse fill="#f070d1" stroke="#000000" cx="346" cy="-173.0219" rx="36.2938" ry="18"/>
<text text-anchor="middle" x="346" y="-169.3219" font-family="Times,serif" font-size="14.00" fill="#000000">lower</text>
</a>
</g>
</g>
<!-- UniverseLevel_isequiv_lift&#45;&gt;UniverseLevel_lower -->
<g id="edge21" class="edge">
<title>UniverseLevel_isequiv_lift&#45;&gt;UniverseLevel_lower</title>
<path fill="none" stroke="#000000" d="M561.1166,-394.7602C539.0714,-364.3227 499.7511,-312.2614 461,-272.0219 433.3741,-243.335 398.2726,-214.0052 374.1585,-194.7956"/>
<polygon fill="#000000" stroke="#000000" points="376.1333,-191.8953 366.1175,-188.4407 371.7929,-197.3872 376.1333,-191.8953"/>
</g>
<!-- UniverseLevel_isequiv_lift&#45;&gt;UniverseLevel_lift -->
<g id="edge22" class="edge">
<title>UniverseLevel_isequiv_lift&#45;&gt;UniverseLevel_lift</title>
<path fill="none" stroke="#000000" d="M550.754,-396.1779C521.9526,-371.865 477.6914,-334.5017 450.0884,-311.2004"/>
<polygon fill="#000000" stroke="#000000" points="451.9914,-308.2265 442.0923,-304.4504 447.476,-313.5755 451.9914,-308.2265"/>
</g>
<!-- UniverseLevel_lower2&#45;&gt;UniverseLevel_lower -->
<g id="edge23" class="edge">
<title>UniverseLevel_lower2&#45;&gt;UniverseLevel_lower</title>
<path fill="none" stroke="#000000" d="M339.2325,-271.9971C340.5206,-253.1575 342.5599,-223.3331 344.0635,-201.3432"/>
<polygon fill="#000000" stroke="#000000" points="347.5625,-201.4755 344.753,-191.26 340.5788,-200.9979 347.5625,-201.4755"/>
</g>
<!-- UniverseLevel_lift2&#45;&gt;UniverseLevel_lower -->
<g id="edge24" class="edge">
<title>UniverseLevel_lift2&#45;&gt;UniverseLevel_lower</title>
<path fill="none" stroke="#000000" d="M261.6265,-273.7535C278.1144,-254.0689 306.0442,-220.7243 325.2223,-197.8279"/>
<polygon fill="#000000" stroke="#000000" points="328.1166,-199.8233 331.8546,-189.9097 322.7503,-195.3284 328.1166,-199.8233"/>
</g>
<!-- UniverseLevel_Lift -->
<g id="node20" class="node">
<title>UniverseLevel_Lift</title>
<g id="a_node20"><a xlink:href="UniverseLevel.html#Lift" xlink:title="Lift">
<ellipse fill="#f070d1" stroke="#000000" cx="381" cy="-55.0219" rx="27.0966" ry="18"/>
<text text-anchor="middle" x="381" y="-51.3219" font-family="Times,serif" font-size="14.00" fill="#000000">Lift</text>
</a>
</g>
</g>
<!-- UniverseLevel_lower&#45;&gt;UniverseLevel_Lift -->
<g id="edge25" class="edge">
<title>UniverseLevel_lower&#45;&gt;UniverseLevel_Lift</title>
<path fill="none" stroke="#000000" d="M351.3157,-155.1002C357.0536,-135.7553 366.2609,-104.7139 372.9006,-82.3285"/>
<polygon fill="#000000" stroke="#000000" points="376.2607,-83.3081 375.7489,-72.7256 369.5497,-81.3174 376.2607,-83.3081"/>
</g>
<!-- UniverseLevel_lift&#45;&gt;UniverseLevel_Lift -->
<g id="edge26" class="edge">
<title>UniverseLevel_lift&#45;&gt;UniverseLevel_Lift</title>
<path fill="none" stroke="#000000" d="M421.6205,-271.972C413.9901,-231.2192 395.3828,-131.8393 386.2422,-83.0199"/>
<polygon fill="#000000" stroke="#000000" points="389.6717,-82.3183 384.3911,-73.1332 382.7913,-83.6066 389.6717,-82.3183"/>
</g>
</g>
</svg>
