<?xml version="1.0" encoding="UTF-8" standalone="no"?>
<!DOCTYPE svg PUBLIC "-//W3C//DTD SVG 1.1//EN"
 "http://www.w3.org/Graphics/SVG/1.1/DTD/svg11.dtd">
<!-- Generated by graphviz version 2.40.1 (20161225.0304)
 -->
<!-- Title: HoTT_Classes_theory_dec_fields Pages: 1 -->
<svg width="1214pt" height="611pt"
 viewBox="0.00 0.00 1214.00 611.00" xmlns="http://www.w3.org/2000/svg" xmlns:xlink="http://www.w3.org/1999/xlink">
<g id="graph0" class="graph" transform="scale(1 1) rotate(0) translate(4 607)">
<title>HoTT_Classes_theory_dec_fields</title>
<polygon fill="#ffffff" stroke="transparent" points="-4,4 -4,-607 1210,-607 1210,4 -4,4"/>
<g id="clust1" class="cluster">
<title>cluster_dec_fields</title>
<polygon fill="#ffffc3" stroke="#000000" points="8.0266,-8 8.0266,-595 1197.9734,-595 1197.9734,-8 8.0266,-8"/>
<text text-anchor="middle" x="52.5266" y="-579.8" font-family="Times,serif" font-size="14.00" fill="#000000">dec_fields</text>
</g>
<!-- dec_fields_dec_recip_to_recip -->
<g id="node1" class="node">
<title>dec_fields_dec_recip_to_recip</title>
<g id="a_node1"><a xlink:href="dec_fields.html#dec_recip_to_recip" xlink:title="dec_recip_to_recip">
<ellipse fill="#f070d1" stroke="#000000" cx="510.1248" cy="-290" rx="98.5985" ry="18"/>
<ellipse fill="none" stroke="#000000" cx="510.1248" cy="-290" rx="102.5907" ry="22"/>
<ellipse fill="none" stroke="#000000" cx="510.1248" cy="-290" rx="106.5829" ry="26"/>
<text text-anchor="middle" x="510.1248" y="-286.3" font-family="Times,serif" font-size="14.00" fill="#000000">dec_recip_to_recip</text>
</a>
</g>
</g>
<!-- dec_fields_decfield_field -->
<g id="node5" class="node">
<title>dec_fields_decfield_field</title>
<g id="a_node5"><a xlink:href="dec_fields.html#decfield_field" xlink:title="decfield_field">
<ellipse fill="#f070d1" stroke="#000000" cx="540.1248" cy="-202" rx="73.387" ry="18"/>
<text text-anchor="middle" x="540.1248" y="-198.3" font-family="Times,serif" font-size="14.00" fill="#000000">decfield_field</text>
</a>
</g>
</g>
<!-- dec_fields_dec_recip_to_recip&#45;&gt;dec_fields_decfield_field -->
<g id="edge1" class="edge">
<title>dec_fields_dec_recip_to_recip&#45;&gt;dec_fields_decfield_field</title>
<path fill="none" stroke="#000000" d="M518.9635,-264.0731C522.6687,-253.2045 526.981,-240.5552 530.7424,-229.5218"/>
<polygon fill="#000000" stroke="#000000" points="534.0946,-230.5352 534.0086,-219.9407 527.469,-228.2765 534.0946,-230.5352"/>
</g>
<!-- dec_fields_preserves_dec_recip -->
<g id="node2" class="node">
<title>dec_fields_preserves_dec_recip</title>
<g id="a_node2"><a xlink:href="dec_fields.html#preserves_dec_recip" xlink:title="preserves_dec_recip">
<ellipse fill="#f070d1" stroke="#000000" cx="780.1248" cy="-202" rx="106.6748" ry="18"/>
<ellipse fill="none" stroke="#000000" cx="780.1248" cy="-202" rx="110.678" ry="22"/>
<ellipse fill="none" stroke="#000000" cx="780.1248" cy="-202" rx="114.6812" ry="26"/>
<text text-anchor="middle" x="780.1248" y="-198.3" font-family="Times,serif" font-size="14.00" fill="#000000">preserves_dec_recip</text>
</a>
</g>
</g>
<!-- dec_fields_dec_field_to_domain_inj -->
<g id="node3" class="node">
<title>dec_fields_dec_field_to_domain_inj</title>
<g id="a_node3"><a xlink:href="dec_fields.html#dec_field_to_domain_inj" xlink:title="dec_field_to_domain_inj">
<ellipse fill="#f070d1" stroke="#000000" cx="815.1248" cy="-114" rx="122.3786" ry="18"/>
<text text-anchor="middle" x="815.1248" y="-110.3" font-family="Times,serif" font-size="14.00" fill="#000000">dec_field_to_domain_inj</text>
</a>
</g>
</g>
<!-- dec_fields_preserves_dec_recip&#45;&gt;dec_fields_dec_field_to_domain_inj -->
<g id="edge2" class="edge">
<title>dec_fields_preserves_dec_recip&#45;&gt;dec_fields_dec_field_to_domain_inj</title>
<path fill="none" stroke="#000000" d="M790.4366,-176.0731C794.7285,-165.2821 799.7185,-152.7358 804.0845,-141.7585"/>
<polygon fill="#000000" stroke="#000000" points="807.4372,-142.7992 807.8807,-132.2136 800.9328,-140.2122 807.4372,-142.7992"/>
</g>
<!-- dec_fields_decfield_integral_domain -->
<g id="node20" class="node">
<title>dec_fields_decfield_integral_domain</title>
<g id="a_node20"><a xlink:href="dec_fields.html#decfield_integral_domain" xlink:title="decfield_integral_domain">
<ellipse fill="#f070d1" stroke="#000000" cx="144.1248" cy="-114" rx="128.0773" ry="18"/>
<text text-anchor="middle" x="144.1248" y="-110.3" font-family="Times,serif" font-size="14.00" fill="#000000">decfield_integral_domain</text>
</a>
</g>
</g>
<!-- dec_fields_preserves_dec_recip&#45;&gt;dec_fields_decfield_integral_domain -->
<g id="edge3" class="edge">
<title>dec_fields_preserves_dec_recip&#45;&gt;dec_fields_decfield_integral_domain</title>
<path fill="none" stroke="#000000" d="M689.1896,-186.1167C667.2665,-182.542 643.8886,-178.9404 622.1248,-176 471.5371,-155.6548 432.4671,-162.0852 282.1248,-140 264.215,-137.3691 245.0853,-134.0771 226.95,-130.7288"/>
<polygon fill="#000000" stroke="#000000" points="227.4642,-127.2644 216.9913,-128.8668 226.1776,-134.1452 227.4642,-127.2644"/>
</g>
<!-- dec_fields_dec_recip_correct -->
<g id="node4" class="node">
<title>dec_fields_dec_recip_correct</title>
<g id="a_node4"><a xlink:href="dec_fields.html#dec_recip_correct" xlink:title="dec_recip_correct">
<ellipse fill="#f070d1" stroke="#000000" cx="738.1248" cy="-290" rx="94.7917" ry="18"/>
<ellipse fill="none" stroke="#000000" cx="738.1248" cy="-290" rx="98.7875" ry="22"/>
<ellipse fill="none" stroke="#000000" cx="738.1248" cy="-290" rx="102.7833" ry="26"/>
<text text-anchor="middle" x="738.1248" y="-286.3" font-family="Times,serif" font-size="14.00" fill="#000000">dec_recip_correct</text>
</a>
</g>
</g>
<!-- dec_fields_dec_recip_correct&#45;&gt;dec_fields_decfield_field -->
<g id="edge4" class="edge">
<title>dec_fields_dec_recip_correct&#45;&gt;dec_fields_decfield_field</title>
<path fill="none" stroke="#000000" d="M687.1349,-267.3378C655.6002,-253.3224 615.4904,-235.4958 585.1358,-222.0049"/>
<polygon fill="#000000" stroke="#000000" points="586.2061,-218.6505 575.6464,-217.7874 583.363,-225.0472 586.2061,-218.6505"/>
</g>
<!-- dec_fields_recip_dec_field -->
<g id="node6" class="node">
<title>dec_fields_recip_dec_field</title>
<g id="a_node6"><a xlink:href="dec_fields.html#recip_dec_field" xlink:title="recip_dec_field">
<ellipse fill="#f070d1" stroke="#000000" cx="593.1248" cy="-114" rx="81.4863" ry="18"/>
<text text-anchor="middle" x="593.1248" y="-110.3" font-family="Times,serif" font-size="14.00" fill="#000000">recip_dec_field</text>
</a>
</g>
</g>
<!-- dec_fields_decfield_field&#45;&gt;dec_fields_recip_dec_field -->
<g id="edge5" class="edge">
<title>dec_fields_decfield_field&#45;&gt;dec_fields_recip_dec_field</title>
<path fill="none" stroke="#000000" d="M550.8501,-184.1919C558.3435,-171.7501 568.4826,-154.9153 576.9529,-140.8514"/>
<polygon fill="#000000" stroke="#000000" points="580.0724,-142.4558 582.2335,-132.0837 574.076,-138.8443 580.0724,-142.4558"/>
</g>
<!-- dec_fields_decfield_field&#45;&gt;dec_fields_decfield_integral_domain -->
<g id="edge6" class="edge">
<title>dec_fields_decfield_field&#45;&gt;dec_fields_decfield_integral_domain</title>
<path fill="none" stroke="#000000" d="M485.4785,-189.8564C417.4542,-174.7399 300.7748,-148.8111 223.0469,-131.5383"/>
<polygon fill="#000000" stroke="#000000" points="223.3421,-128.0185 212.8209,-129.2658 221.8235,-134.8518 223.3421,-128.0185"/>
</g>
<!-- dec_fields_dec_recip_negate -->
<g id="node7" class="node">
<title>dec_fields_dec_recip_negate</title>
<g id="a_node7"><a xlink:href="dec_fields.html#dec_recip_negate" xlink:title="dec_recip_negate">
<ellipse fill="#f070d1" stroke="#000000" cx="392.1248" cy="-114" rx="92.8882" ry="18"/>
<ellipse fill="none" stroke="#000000" cx="392.1248" cy="-114" rx="96.8858" ry="22"/>
<ellipse fill="none" stroke="#000000" cx="392.1248" cy="-114" rx="100.8835" ry="26"/>
<text text-anchor="middle" x="392.1248" y="-110.3" font-family="Times,serif" font-size="14.00" fill="#000000">dec_recip_negate</text>
</a>
</g>
</g>
<!-- dec_fields_decfield_zero_product -->
<g id="node21" class="node">
<title>dec_fields_decfield_zero_product</title>
<g id="a_node21"><a xlink:href="dec_fields.html#decfield_zero_product" xlink:title="decfield_zero_product">
<ellipse fill="#f070d1" stroke="#000000" cx="727.1248" cy="-34" rx="114.2798" ry="18"/>
<text text-anchor="middle" x="727.1248" y="-30.3" font-family="Times,serif" font-size="14.00" fill="#000000">decfield_zero_product</text>
</a>
</g>
</g>
<!-- dec_fields_dec_recip_negate&#45;&gt;dec_fields_decfield_zero_product -->
<g id="edge7" class="edge">
<title>dec_fields_dec_recip_negate&#45;&gt;dec_fields_decfield_zero_product</title>
<path fill="none" stroke="#000000" d="M466.4721,-96.2454C522.3889,-82.8922 598.6137,-64.6892 654.1856,-51.4183"/>
<polygon fill="#000000" stroke="#000000" points="655.0497,-54.8105 663.9632,-49.0834 653.4237,-48.0019 655.0497,-54.8105"/>
</g>
<!-- dec_fields_dec_recip_swap_r -->
<g id="node8" class="node">
<title>dec_fields_dec_recip_swap_r</title>
<g id="a_node8"><a xlink:href="dec_fields.html#dec_recip_swap_r" xlink:title="dec_recip_swap_r">
<ellipse fill="#f070d1" stroke="#000000" cx="243.1248" cy="-538" rx="94.4649" ry="18"/>
<ellipse fill="none" stroke="#000000" cx="243.1248" cy="-538" rx="98.4744" ry="22"/>
<ellipse fill="none" stroke="#000000" cx="243.1248" cy="-538" rx="102.4838" ry="26"/>
<text text-anchor="middle" x="243.1248" y="-534.3" font-family="Times,serif" font-size="14.00" fill="#000000">dec_recip_swap_r</text>
</a>
</g>
</g>
<!-- dec_fields_dec_recip_involutive -->
<g id="node12" class="node">
<title>dec_fields_dec_recip_involutive</title>
<g id="a_node12"><a xlink:href="dec_fields.html#dec_recip_involutive" xlink:title="dec_recip_involutive">
<ellipse fill="#f070d1" stroke="#000000" cx="133.1248" cy="-450" rx="106.6812" ry="18"/>
<text text-anchor="middle" x="133.1248" y="-446.3" font-family="Times,serif" font-size="14.00" fill="#000000">dec_recip_involutive</text>
</a>
</g>
</g>
<!-- dec_fields_dec_recip_swap_r&#45;&gt;dec_fields_dec_recip_involutive -->
<g id="edge8" class="edge">
<title>dec_fields_dec_recip_swap_r&#45;&gt;dec_fields_dec_recip_involutive</title>
<path fill="none" stroke="#000000" d="M211.8974,-513.0181C196.6771,-500.8419 178.4492,-486.2595 163.3627,-474.1903"/>
<polygon fill="#000000" stroke="#000000" points="165.3387,-471.2889 155.3436,-467.775 160.9658,-476.755 165.3387,-471.2889"/>
</g>
<!-- dec_fields_dec_recip_distr -->
<g id="node18" class="node">
<title>dec_fields_dec_recip_distr</title>
<g id="a_node18"><a xlink:href="dec_fields.html#dec_recip_distr" xlink:title="dec_recip_distr">
<ellipse fill="#f070d1" stroke="#000000" cx="792.1248" cy="-450" rx="83.3857" ry="18"/>
<text text-anchor="middle" x="792.1248" y="-446.3" font-family="Times,serif" font-size="14.00" fill="#000000">dec_recip_distr</text>
</a>
</g>
</g>
<!-- dec_fields_dec_recip_swap_r&#45;&gt;dec_fields_dec_recip_distr -->
<g id="edge9" class="edge">
<title>dec_fields_dec_recip_swap_r&#45;&gt;dec_fields_dec_recip_distr</title>
<path fill="none" stroke="#000000" d="M338.97,-528.8422C431.6944,-519.0731 575.8961,-501.477 699.1248,-476 710.5531,-473.6373 722.6424,-470.6371 734.1884,-467.5208"/>
<polygon fill="#000000" stroke="#000000" points="735.4573,-470.8015 744.1647,-464.7655 733.5938,-464.0541 735.4573,-470.8015"/>
</g>
<!-- dec_fields_dec_recip_swap_l -->
<g id="node9" class="node">
<title>dec_fields_dec_recip_swap_l</title>
<g id="a_node9"><a xlink:href="dec_fields.html#dec_recip_swap_l" xlink:title="dec_recip_swap_l">
<ellipse fill="#f070d1" stroke="#000000" cx="682.1248" cy="-538" rx="92.8882" ry="18"/>
<ellipse fill="none" stroke="#000000" cx="682.1248" cy="-538" rx="96.8858" ry="22"/>
<ellipse fill="none" stroke="#000000" cx="682.1248" cy="-538" rx="100.8835" ry="26"/>
<text text-anchor="middle" x="682.1248" y="-534.3" font-family="Times,serif" font-size="14.00" fill="#000000">dec_recip_swap_l</text>
</a>
</g>
</g>
<!-- dec_fields_dec_recip_swap_l&#45;&gt;dec_fields_dec_recip_involutive -->
<g id="edge10" class="edge">
<title>dec_fields_dec_recip_swap_l&#45;&gt;dec_fields_dec_recip_involutive</title>
<path fill="none" stroke="#000000" d="M590.5562,-527.0028C502.6839,-515.9512 366.3958,-497.5042 249.1248,-476 234.6927,-473.3536 219.3302,-470.1718 204.6672,-466.9562"/>
<polygon fill="#000000" stroke="#000000" points="205.1686,-463.4823 194.6476,-464.7307 203.6508,-470.3158 205.1686,-463.4823"/>
</g>
<!-- dec_fields_dec_recip_swap_l&#45;&gt;dec_fields_dec_recip_distr -->
<g id="edge11" class="edge">
<title>dec_fields_dec_recip_swap_l&#45;&gt;dec_fields_dec_recip_distr</title>
<path fill="none" stroke="#000000" d="M713.3521,-513.0181C728.6796,-500.7561 747.0573,-486.054 762.2052,-473.9357"/>
<polygon fill="#000000" stroke="#000000" points="764.6262,-476.4811 770.2485,-467.5011 760.2533,-471.015 764.6262,-476.4811"/>
</g>
<!-- dec_fields_dec_quotients -->
<g id="node10" class="node">
<title>dec_fields_dec_quotients</title>
<g id="a_node10"><a xlink:href="dec_fields.html#dec_quotients" xlink:title="dec_quotients">
<ellipse fill="#f070d1" stroke="#000000" cx="1062.1248" cy="-202" rx="76.0824" ry="18"/>
<ellipse fill="none" stroke="#000000" cx="1062.1248" cy="-202" rx="80.0845" ry="22"/>
<ellipse fill="none" stroke="#000000" cx="1062.1248" cy="-202" rx="84.0865" ry="26"/>
<text text-anchor="middle" x="1062.1248" y="-198.3" font-family="Times,serif" font-size="14.00" fill="#000000">dec_quotients</text>
</a>
</g>
</g>
<!-- dec_fields_equal_dec_quotients -->
<g id="node11" class="node">
<title>dec_fields_equal_dec_quotients</title>
<g id="a_node11"><a xlink:href="dec_fields.html#equal_dec_quotients" xlink:title="equal_dec_quotients">
<ellipse fill="#f070d1" stroke="#000000" cx="1062.1248" cy="-114" rx="106.6812" ry="18"/>
<text text-anchor="middle" x="1062.1248" y="-110.3" font-family="Times,serif" font-size="14.00" fill="#000000">equal_dec_quotients</text>
</a>
</g>
</g>
<!-- dec_fields_dec_quotients&#45;&gt;dec_fields_equal_dec_quotients -->
<g id="edge12" class="edge">
<title>dec_fields_dec_quotients&#45;&gt;dec_fields_equal_dec_quotients</title>
<path fill="none" stroke="#000000" d="M1062.1248,-175.5971C1062.1248,-165.0414 1062.1248,-152.868 1062.1248,-142.1448"/>
<polygon fill="#000000" stroke="#000000" points="1065.6249,-142.0188 1062.1248,-132.0188 1058.6249,-142.0188 1065.6249,-142.0188"/>
</g>
<!-- dec_fields_equal_dec_quotients&#45;&gt;dec_fields_decfield_zero_product -->
<g id="edge13" class="edge">
<title>dec_fields_equal_dec_quotients&#45;&gt;dec_fields_decfield_zero_product</title>
<path fill="none" stroke="#000000" d="M1000.2902,-99.2335C943.6992,-85.7193 859.9098,-65.7098 800.0676,-51.4192"/>
<polygon fill="#000000" stroke="#000000" points="800.8443,-48.0063 790.3049,-49.0878 799.2184,-54.8149 800.8443,-48.0063"/>
</g>
<!-- dec_fields_dec_recip_ne_0 -->
<g id="node15" class="node">
<title>dec_fields_dec_recip_ne_0</title>
<g id="a_node15"><a xlink:href="dec_fields.html#dec_recip_ne_0" xlink:title="dec_recip_ne_0">
<ellipse fill="#f070d1" stroke="#000000" cx="320.1248" cy="-370" rx="83.3857" ry="18"/>
<text text-anchor="middle" x="320.1248" y="-366.3" font-family="Times,serif" font-size="14.00" fill="#000000">dec_recip_ne_0</text>
</a>
</g>
</g>
<!-- dec_fields_dec_recip_involutive&#45;&gt;dec_fields_dec_recip_ne_0 -->
<g id="edge14" class="edge">
<title>dec_fields_dec_recip_involutive&#45;&gt;dec_fields_dec_recip_ne_0</title>
<path fill="none" stroke="#000000" d="M172.3261,-433.2294C201.7347,-420.6482 242.1107,-403.375 273.2312,-390.0614"/>
<polygon fill="#000000" stroke="#000000" points="274.7525,-393.2175 282.5698,-386.0663 271.9991,-386.7817 274.7525,-393.2175"/>
</g>
<!-- dec_fields_dec_recip_inj -->
<g id="node13" class="node">
<title>dec_fields_dec_recip_inj</title>
<g id="a_node13"><a xlink:href="dec_fields.html#dec_recip_inj" xlink:title="dec_recip_inj">
<ellipse fill="#f070d1" stroke="#000000" cx="609.1248" cy="-450" rx="72.608" ry="18"/>
<ellipse fill="none" stroke="#000000" cx="609.1248" cy="-450" rx="76.5978" ry="22"/>
<ellipse fill="none" stroke="#000000" cx="609.1248" cy="-450" rx="80.5876" ry="26"/>
<text text-anchor="middle" x="609.1248" y="-446.3" font-family="Times,serif" font-size="14.00" fill="#000000">dec_recip_inj</text>
</a>
</g>
</g>
<!-- dec_fields_dec_recip_inj&#45;&gt;dec_fields_dec_recip_ne_0 -->
<g id="edge15" class="edge">
<title>dec_fields_dec_recip_inj&#45;&gt;dec_fields_dec_recip_ne_0</title>
<path fill="none" stroke="#000000" d="M549.1332,-432.5221C539.1203,-429.6472 528.8347,-426.7198 519.1248,-424 473.3642,-411.1823 421.5514,-397.1374 382.2683,-386.5847"/>
<polygon fill="#000000" stroke="#000000" points="383.1277,-383.1916 372.5623,-383.98 381.3133,-389.9524 383.1277,-383.1916"/>
</g>
<!-- dec_fields_equal_by_one_quotient -->
<g id="node14" class="node">
<title>dec_fields_equal_by_one_quotient</title>
<g id="a_node14"><a xlink:href="dec_fields.html#equal_by_one_quotient" xlink:title="equal_by_one_quotient">
<ellipse fill="#f070d1" stroke="#000000" cx="384.1248" cy="-450" rx="117.7704" ry="18"/>
<ellipse fill="none" stroke="#000000" cx="384.1248" cy="-450" rx="121.7748" ry="22"/>
<ellipse fill="none" stroke="#000000" cx="384.1248" cy="-450" rx="125.7793" ry="26"/>
<text text-anchor="middle" x="384.1248" y="-446.3" font-family="Times,serif" font-size="14.00" fill="#000000">equal_by_one_quotient</text>
</a>
</g>
</g>
<!-- dec_fields_equal_by_one_quotient&#45;&gt;dec_fields_dec_recip_ne_0 -->
<g id="edge16" class="edge">
<title>dec_fields_equal_by_one_quotient&#45;&gt;dec_fields_dec_recip_ne_0</title>
<path fill="none" stroke="#000000" d="M363.5225,-424.2471C356.2485,-415.1546 348.0706,-404.9323 340.7913,-395.8331"/>
<polygon fill="#000000" stroke="#000000" points="343.3905,-393.4794 334.4105,-387.8571 337.9244,-397.8523 343.3905,-393.4794"/>
</g>
<!-- dec_fields_dec_recip_ne_0_iff -->
<g id="node16" class="node">
<title>dec_fields_dec_recip_ne_0_iff</title>
<g id="a_node16"><a xlink:href="dec_fields.html#dec_recip_ne_0_iff" xlink:title="dec_recip_ne_0_iff">
<ellipse fill="#f070d1" stroke="#000000" cx="257.1248" cy="-290" rx="97.4827" ry="18"/>
<text text-anchor="middle" x="257.1248" y="-286.3" font-family="Times,serif" font-size="14.00" fill="#000000">dec_recip_ne_0_iff</text>
</a>
</g>
</g>
<!-- dec_fields_dec_recip_ne_0&#45;&gt;dec_fields_dec_recip_ne_0_iff -->
<g id="edge17" class="edge">
<title>dec_fields_dec_recip_ne_0&#45;&gt;dec_fields_dec_recip_ne_0_iff</title>
<path fill="none" stroke="#000000" d="M306.1431,-352.2454C297.7193,-341.5486 286.8448,-327.7397 277.4793,-315.8471"/>
<polygon fill="#000000" stroke="#000000" points="280.222,-313.6726 271.2853,-307.9816 274.7225,-318.0034 280.222,-313.6726"/>
</g>
<!-- dec_fields_dec_recip_zero -->
<g id="node17" class="node">
<title>dec_fields_dec_recip_zero</title>
<g id="a_node17"><a xlink:href="dec_fields.html#dec_recip_zero" xlink:title="dec_recip_zero">
<ellipse fill="#f070d1" stroke="#000000" cx="144.1248" cy="-202" rx="81.4863" ry="18"/>
<text text-anchor="middle" x="144.1248" y="-198.3" font-family="Times,serif" font-size="14.00" fill="#000000">dec_recip_zero</text>
</a>
</g>
</g>
<!-- dec_fields_dec_recip_ne_0_iff&#45;&gt;dec_fields_dec_recip_zero -->
<g id="edge18" class="edge">
<title>dec_fields_dec_recip_ne_0_iff&#45;&gt;dec_fields_dec_recip_zero</title>
<path fill="none" stroke="#000000" d="M234.5291,-272.4034C217.3612,-259.0337 193.5659,-240.5028 174.697,-225.8084"/>
<polygon fill="#000000" stroke="#000000" points="176.7216,-222.949 166.6813,-219.5661 172.4206,-228.4718 176.7216,-222.949"/>
</g>
<!-- dec_fields_dec_recip_zero&#45;&gt;dec_fields_decfield_integral_domain -->
<g id="edge19" class="edge">
<title>dec_fields_dec_recip_zero&#45;&gt;dec_fields_decfield_integral_domain</title>
<path fill="none" stroke="#000000" d="M144.1248,-183.7663C144.1248,-171.8492 144.1248,-156.0384 144.1248,-142.4817"/>
<polygon fill="#000000" stroke="#000000" points="147.6249,-142.2103 144.1248,-132.2103 140.6249,-142.2103 147.6249,-142.2103"/>
</g>
<!-- dec_fields_dec_recip_distr&#45;&gt;dec_fields_decfield_zero_product -->
<g id="edge20" class="edge">
<title>dec_fields_dec_recip_distr&#45;&gt;dec_fields_decfield_zero_product</title>
<path fill="none" stroke="#000000" d="M855.0306,-438.1979C966.9739,-415.386 1189.1248,-361.1524 1189.1248,-290 1189.1248,-290 1189.1248,-290 1189.1248,-202 1189.1248,-151.098 1213.7021,-124.4042 1178.1248,-88 1155.1669,-64.5085 971.057,-48.7216 845.2853,-40.5611"/>
<polygon fill="#000000" stroke="#000000" points="845.4033,-37.0616 835.1999,-39.9149 844.9556,-44.0472 845.4033,-37.0616"/>
</g>
<!-- dec_fields_dec_recip_1 -->
<g id="node19" class="node">
<title>dec_fields_dec_recip_1</title>
<g id="a_node19"><a xlink:href="dec_fields.html#dec_recip_1" xlink:title="dec_recip_1">
<ellipse fill="#f070d1" stroke="#000000" cx="319.1248" cy="-202" rx="66.8941" ry="18"/>
<ellipse fill="none" stroke="#000000" cx="319.1248" cy="-202" rx="70.8911" ry="22"/>
<ellipse fill="none" stroke="#000000" cx="319.1248" cy="-202" rx="74.8882" ry="26"/>
<text text-anchor="middle" x="319.1248" y="-198.3" font-family="Times,serif" font-size="14.00" fill="#000000">dec_recip_1</text>
</a>
</g>
</g>
<!-- dec_fields_dec_recip_1&#45;&gt;dec_fields_decfield_integral_domain -->
<g id="edge21" class="edge">
<title>dec_fields_dec_recip_1&#45;&gt;dec_fields_decfield_integral_domain</title>
<path fill="none" stroke="#000000" d="M276.315,-180.4728C249.5222,-166.9998 215.0876,-149.6842 188.0808,-136.1036"/>
<polygon fill="#000000" stroke="#000000" points="189.369,-132.8338 178.8626,-131.4681 186.2242,-139.0877 189.369,-132.8338"/>
</g>
<!-- dec_fields_decfield_integral_domain&#45;&gt;dec_fields_decfield_zero_product -->
<g id="edge22" class="edge">
<title>dec_fields_decfield_integral_domain&#45;&gt;dec_fields_decfield_zero_product</title>
<path fill="none" stroke="#000000" d="M217.7384,-99.2073C238.5114,-95.2844 261.1637,-91.2428 282.1248,-88 397.582,-70.1379 530.6553,-54.6554 620.9803,-44.904"/>
<polygon fill="#000000" stroke="#000000" points="621.3865,-48.3806 630.9551,-43.8317 620.6382,-41.4207 621.3865,-48.3806"/>
</g>
</g>
</svg>
