<?xml version="1.0" encoding="UTF-8" standalone="no"?>
<!DOCTYPE svg PUBLIC "-//W3C//DTD SVG 1.1//EN"
 "http://www.w3.org/Graphics/SVG/1.1/DTD/svg11.dtd">
<!-- Generated by graphviz version 2.40.1 (20161225.0304)
 -->
<!-- Title: HoTT_Spaces_Finite_FinNat Pages: 1 -->
<svg width="2839pt" height="1423pt"
 viewBox="0.00 0.00 2839.00 1423.50" xmlns="http://www.w3.org/2000/svg" xmlns:xlink="http://www.w3.org/1999/xlink">
<g id="graph0" class="graph" transform="scale(1 1) rotate(0) translate(4 1419.5)">
<title>HoTT_Spaces_Finite_FinNat</title>
<polygon fill="#ffffff" stroke="transparent" points="-4,4 -4,-1419.5 2835,-1419.5 2835,4 -4,4"/>
<g id="clust1" class="cluster">
<title>cluster_FinNat</title>
<polygon fill="#ffffc3" stroke="#000000" points="8,-22.6934 8,-1392.8066 2823,-1392.8066 2823,-22.6934 8,-22.6934"/>
<text text-anchor="middle" x="41.5" y="-1377.6066" font-family="Times,serif" font-size="14.00" fill="#000000">FinNat</text>
</g>
<!-- FinNat_equiv_fin_finnat -->
<g id="node1" class="node">
<title>FinNat_equiv_fin_finnat</title>
<g id="a_node1"><a xlink:href="FinNat.html#equiv_fin_finnat" xlink:title="equiv_fin_finnat">
<ellipse fill="#f070d1" stroke="#000000" cx="1079" cy="-1230.6934" rx="85.2729" ry="18"/>
<ellipse fill="none" stroke="#000000" cx="1079" cy="-1230.6934" rx="89.279" ry="22"/>
<ellipse fill="none" stroke="#000000" cx="1079" cy="-1230.6934" rx="93.2851" ry="26"/>
<text text-anchor="middle" x="1079" y="-1226.9934" font-family="Times,serif" font-size="14.00" fill="#000000">equiv_fin_finnat</text>
</a>
</g>
</g>
<!-- FinNat_path_fin_to_finnat_to_fin -->
<g id="node2" class="node">
<title>FinNat_path_fin_to_finnat_to_fin</title>
<g id="a_node2"><a xlink:href="FinNat.html#path_fin_to_finnat_to_fin" xlink:title="path_fin_to_finnat_to_fin">
<ellipse fill="#f070d1" stroke="#000000" cx="1231" cy="-981.6934" rx="126.1777" ry="18"/>
<text text-anchor="middle" x="1231" y="-977.9934" font-family="Times,serif" font-size="14.00" fill="#000000">path_fin_to_finnat_to_fin</text>
</a>
</g>
</g>
<!-- FinNat_equiv_fin_finnat&#45;&gt;FinNat_path_fin_to_finnat_to_fin -->
<g id="edge1" class="edge">
<title>FinNat_equiv_fin_finnat&#45;&gt;FinNat_path_fin_to_finnat_to_fin</title>
<path fill="none" stroke="#000000" d="M1094.6942,-1204.9839C1123.6964,-1157.4737 1185.3989,-1056.3953 1214.7865,-1008.2536"/>
<polygon fill="#000000" stroke="#000000" points="1217.8255,-1009.9927 1220.0485,-999.6337 1211.8507,-1006.3454 1217.8255,-1009.9927"/>
</g>
<!-- FinNat_path_finnat_to_fin_to_finnat -->
<g id="node3" class="node">
<title>FinNat_path_finnat_to_fin_to_finnat</title>
<g id="a_node3"><a xlink:href="FinNat.html#path_finnat_to_fin_to_finnat" xlink:title="path_finnat_to_fin_to_finnat">
<ellipse fill="#f070d1" stroke="#000000" cx="803" cy="-754.6934" rx="141.8751" ry="18"/>
<text text-anchor="middle" x="803" y="-750.9934" font-family="Times,serif" font-size="14.00" fill="#000000">path_finnat_to_fin_to_finnat</text>
</a>
</g>
</g>
<!-- FinNat_equiv_fin_finnat&#45;&gt;FinNat_path_finnat_to_fin_to_finnat -->
<g id="edge2" class="edge">
<title>FinNat_equiv_fin_finnat&#45;&gt;FinNat_path_finnat_to_fin_to_finnat</title>
<path fill="none" stroke="#000000" d="M1063.965,-1204.7635C1016.0409,-1122.1117 867.1863,-865.3915 818.5487,-781.5093"/>
<polygon fill="#000000" stroke="#000000" points="821.5559,-779.718 813.5119,-772.8227 815.5002,-783.2293 821.5559,-779.718"/>
</g>
<!-- FinNat_path_finnat_to_fin_last -->
<g id="node4" class="node">
<title>FinNat_path_finnat_to_fin_last</title>
<g id="a_node4"><a xlink:href="FinNat.html#path_finnat_to_fin_last" xlink:title="path_finnat_to_fin_last">
<ellipse fill="#f070d1" stroke="#000000" cx="915" cy="-527.6934" rx="116.9792" ry="18"/>
<text text-anchor="middle" x="915" y="-523.9934" font-family="Times,serif" font-size="14.00" fill="#000000">path_finnat_to_fin_last</text>
</a>
</g>
</g>
<!-- FinNat_path_fin_to_finnat_to_fin&#45;&gt;FinNat_path_finnat_to_fin_last -->
<g id="edge3" class="edge">
<title>FinNat_path_fin_to_finnat_to_fin&#45;&gt;FinNat_path_finnat_to_fin_last</title>
<path fill="none" stroke="#000000" d="M1218.4174,-963.6159C1169.4642,-893.2844 991.5569,-637.6834 933.4779,-554.2408"/>
<polygon fill="#000000" stroke="#000000" points="936.204,-552.0307 927.6185,-545.8225 930.4587,-556.0296 936.204,-552.0307"/>
</g>
<!-- FinNat_path_finnat_to_fin_incl -->
<g id="node5" class="node">
<title>FinNat_path_finnat_to_fin_incl</title>
<g id="a_node5"><a xlink:href="FinNat.html#path_finnat_to_fin_incl" xlink:title="path_finnat_to_fin_incl">
<ellipse fill="#f070d1" stroke="#000000" cx="1389" cy="-754.6934" rx="116.9792" ry="18"/>
<text text-anchor="middle" x="1389" y="-750.9934" font-family="Times,serif" font-size="14.00" fill="#000000">path_finnat_to_fin_incl</text>
</a>
</g>
</g>
<!-- FinNat_path_fin_to_finnat_to_fin&#45;&gt;FinNat_path_finnat_to_fin_incl -->
<g id="edge4" class="edge">
<title>FinNat_path_fin_to_finnat_to_fin&#45;&gt;FinNat_path_finnat_to_fin_incl</title>
<path fill="none" stroke="#000000" d="M1243.6627,-963.5007C1271.5245,-923.4715 1338.2365,-827.6257 1370.6717,-781.0258"/>
<polygon fill="#000000" stroke="#000000" points="1373.6561,-782.8646 1376.4963,-772.6576 1367.9108,-778.8657 1373.6561,-782.8646"/>
</g>
<!-- FinNat_fin_to_finnat -->
<g id="node13" class="node">
<title>FinNat_fin_to_finnat</title>
<g id="a_node13"><a xlink:href="FinNat.html#fin_to_finnat" xlink:title="fin_to_finnat">
<ellipse fill="#f070d1" stroke="#000000" cx="1999" cy="-300.6934" rx="69.5877" ry="18"/>
<text text-anchor="middle" x="1999" y="-296.9934" font-family="Times,serif" font-size="14.00" fill="#000000">fin_to_finnat</text>
</a>
</g>
</g>
<!-- FinNat_path_fin_to_finnat_to_fin&#45;&gt;FinNat_fin_to_finnat -->
<g id="edge5" class="edge">
<title>FinNat_path_fin_to_finnat_to_fin&#45;&gt;FinNat_fin_to_finnat</title>
<path fill="none" stroke="#000000" d="M1346.164,-974.2797C1570.6911,-952.8862 2063.5218,-870.3269 2276,-553.6934 2346.9471,-447.9685 2148.0102,-356.1803 2050.0025,-318.6957"/>
<polygon fill="#000000" stroke="#000000" points="2051.1528,-315.3889 2040.5611,-315.1332 2048.6816,-321.9382 2051.1528,-315.3889"/>
</g>
<!-- FinNat_path_fin_to_finnat_fin_zero -->
<g id="node10" class="node">
<title>FinNat_path_fin_to_finnat_fin_zero</title>
<g id="a_node10"><a xlink:href="FinNat.html#path_fin_to_finnat_fin_zero" xlink:title="path_fin_to_finnat_fin_zero">
<ellipse fill="#f070d1" stroke="#000000" cx="623" cy="-527.6934" rx="137.2758" ry="18"/>
<text text-anchor="middle" x="623" y="-523.9934" font-family="Times,serif" font-size="14.00" fill="#000000">path_fin_to_finnat_fin_zero</text>
</a>
</g>
</g>
<!-- FinNat_path_finnat_to_fin_to_finnat&#45;&gt;FinNat_path_fin_to_finnat_fin_zero -->
<g id="edge6" class="edge">
<title>FinNat_path_finnat_to_fin_to_finnat&#45;&gt;FinNat_path_fin_to_finnat_fin_zero</title>
<path fill="none" stroke="#000000" d="M788.5741,-736.5007C756.7669,-696.3883 680.5156,-600.227 643.6503,-553.7358"/>
<polygon fill="#000000" stroke="#000000" points="646.2004,-551.3185 637.2447,-545.6576 640.7155,-555.6678 646.2004,-551.3185"/>
</g>
<!-- FinNat_path_fin_to_finnat_fsucc -->
<g id="node11" class="node">
<title>FinNat_path_fin_to_finnat_fsucc</title>
<g id="a_node11"><a xlink:href="FinNat.html#path_fin_to_finnat_fsucc" xlink:title="path_fin_to_finnat_fsucc">
<ellipse fill="#f070d1" stroke="#000000" cx="2142" cy="-527.6934" rx="124.5782" ry="18"/>
<text text-anchor="middle" x="2142" y="-523.9934" font-family="Times,serif" font-size="14.00" fill="#000000">path_fin_to_finnat_fsucc</text>
</a>
</g>
</g>
<!-- FinNat_path_finnat_to_fin_to_finnat&#45;&gt;FinNat_path_fin_to_finnat_fsucc -->
<g id="edge7" class="edge">
<title>FinNat_path_finnat_to_fin_to_finnat&#45;&gt;FinNat_path_fin_to_finnat_fsucc</title>
<path fill="none" stroke="#000000" d="M891.9532,-740.6787C1091.7707,-709.0171 1591.3363,-628.8533 2008,-553.6934 2024.3195,-550.7496 2041.7295,-547.4725 2058.4144,-544.2642"/>
<polygon fill="#000000" stroke="#000000" points="2059.5383,-547.6119 2068.6932,-542.2791 2058.2109,-540.7389 2059.5383,-547.6119"/>
</g>
<!-- FinNat_finnat_to_fin -->
<g id="node12" class="node">
<title>FinNat_finnat_to_fin</title>
<g id="a_node12"><a xlink:href="FinNat.html#finnat_to_fin" xlink:title="finnat_to_fin">
<ellipse fill="#f070d1" stroke="#000000" cx="915" cy="-300.6934" rx="69.5877" ry="18"/>
<text text-anchor="middle" x="915" y="-296.9934" font-family="Times,serif" font-size="14.00" fill="#000000">finnat_to_fin</text>
</a>
</g>
</g>
<!-- FinNat_path_finnat_to_fin_to_finnat&#45;&gt;FinNat_finnat_to_fin -->
<g id="edge8" class="edge">
<title>FinNat_path_finnat_to_fin_to_finnat&#45;&gt;FinNat_finnat_to_fin</title>
<path fill="none" stroke="#000000" d="M797.9557,-736.4448C787.1319,-694.1747 764.5668,-586.6721 789,-501.6934 809.1237,-431.7032 861.5615,-362.5044 892.0726,-326.3956"/>
<polygon fill="#000000" stroke="#000000" points="895.1061,-328.2349 898.96,-318.3659 889.7928,-323.6775 895.1061,-328.2349"/>
</g>
<!-- FinNat_path_finnat_to_fin_last&#45;&gt;FinNat_finnat_to_fin -->
<g id="edge9" class="edge">
<title>FinNat_path_finnat_to_fin_last&#45;&gt;FinNat_finnat_to_fin</title>
<path fill="none" stroke="#000000" d="M915,-509.5007C915,-470.0685 915,-376.4719 915,-329.143"/>
<polygon fill="#000000" stroke="#000000" points="918.5001,-328.9726 915,-318.9727 911.5001,-328.9727 918.5001,-328.9726"/>
</g>
<!-- FinNat_last_finnat -->
<g id="node21" class="node">
<title>FinNat_last_finnat</title>
<g id="a_node21"><a xlink:href="FinNat.html#last_finnat" xlink:title="last_finnat">
<ellipse fill="#f070d1" stroke="#000000" cx="1420" cy="-300.6934" rx="59.5901" ry="18"/>
<text text-anchor="middle" x="1420" y="-296.9934" font-family="Times,serif" font-size="14.00" fill="#000000">last_finnat</text>
</a>
</g>
</g>
<!-- FinNat_path_finnat_to_fin_last&#45;&gt;FinNat_last_finnat -->
<g id="edge10" class="edge">
<title>FinNat_path_finnat_to_fin_last&#45;&gt;FinNat_last_finnat</title>
<path fill="none" stroke="#000000" d="M952.9571,-510.6315C1045.1938,-469.1706 1280.626,-363.3427 1377.4382,-319.8251"/>
<polygon fill="#000000" stroke="#000000" points="1378.9522,-322.982 1386.6382,-315.6897 1376.0823,-316.5973 1378.9522,-322.982"/>
</g>
<!-- FinNat_path_finnat_to_fin_succ -->
<g id="node7" class="node">
<title>FinNat_path_finnat_to_fin_succ</title>
<g id="a_node7"><a xlink:href="FinNat.html#path_finnat_to_fin_succ" xlink:title="path_finnat_to_fin_succ">
<ellipse fill="#f070d1" stroke="#000000" cx="1172" cy="-527.6934" rx="121.5784" ry="18"/>
<text text-anchor="middle" x="1172" y="-523.9934" font-family="Times,serif" font-size="14.00" fill="#000000">path_finnat_to_fin_succ</text>
</a>
</g>
</g>
<!-- FinNat_path_finnat_to_fin_incl&#45;&gt;FinNat_path_finnat_to_fin_succ -->
<g id="edge11" class="edge">
<title>FinNat_path_finnat_to_fin_incl&#45;&gt;FinNat_path_finnat_to_fin_succ</title>
<path fill="none" stroke="#000000" d="M1371.9724,-736.8811C1333.6413,-696.7836 1240.4782,-599.3272 1196.1756,-552.9831"/>
<polygon fill="#000000" stroke="#000000" points="1198.6889,-550.547 1189.2488,-545.7371 1193.6289,-555.3841 1198.6889,-550.547"/>
</g>
<!-- FinNat_incl_finnat -->
<g id="node19" class="node">
<title>FinNat_incl_finnat</title>
<g id="a_node19"><a xlink:href="FinNat.html#incl_finnat" xlink:title="incl_finnat">
<ellipse fill="#f070d1" stroke="#000000" cx="2574" cy="-300.6934" rx="59.5901" ry="18"/>
<text text-anchor="middle" x="2574" y="-296.9934" font-family="Times,serif" font-size="14.00" fill="#000000">incl_finnat</text>
</a>
</g>
</g>
<!-- FinNat_path_finnat_to_fin_incl&#45;&gt;FinNat_incl_finnat -->
<g id="edge12" class="edge">
<title>FinNat_path_finnat_to_fin_incl&#45;&gt;FinNat_incl_finnat</title>
<path fill="none" stroke="#000000" d="M1496.2818,-747.4471C1811.5028,-725.0759 2718.1531,-652.5966 2804,-553.6934 2880.9795,-465.0062 2701.625,-362.2999 2616.148,-320.2062"/>
<polygon fill="#000000" stroke="#000000" points="2617.4728,-316.9585 2606.9493,-315.7317 2614.4108,-323.2533 2617.4728,-316.9585"/>
</g>
<!-- FinNat_path_succ_finnat -->
<g id="node22" class="node">
<title>FinNat_path_succ_finnat</title>
<g id="a_node22"><a xlink:href="FinNat.html#path_succ_finnat" xlink:title="path_succ_finnat">
<ellipse fill="#f070d1" stroke="#000000" cx="1607" cy="-527.6934" rx="90.1842" ry="18"/>
<text text-anchor="middle" x="1607" y="-523.9934" font-family="Times,serif" font-size="14.00" fill="#000000">path_succ_finnat</text>
</a>
</g>
</g>
<!-- FinNat_path_finnat_to_fin_incl&#45;&gt;FinNat_path_succ_finnat -->
<g id="edge13" class="edge">
<title>FinNat_path_finnat_to_fin_incl&#45;&gt;FinNat_path_succ_finnat</title>
<path fill="none" stroke="#000000" d="M1406.1061,-736.8811C1444.7089,-696.6846 1538.6688,-598.8456 1583.0418,-552.6407"/>
<polygon fill="#000000" stroke="#000000" points="1585.5711,-555.0599 1589.9734,-545.423 1580.5223,-550.2112 1585.5711,-555.0599"/>
</g>
<!-- FinNat_path_finnat_to_fin_zero -->
<g id="node6" class="node">
<title>FinNat_path_finnat_to_fin_zero</title>
<g id="a_node6"><a xlink:href="FinNat.html#path_finnat_to_fin_zero" xlink:title="path_finnat_to_fin_zero">
<ellipse fill="#f070d1" stroke="#000000" cx="340" cy="-527.6934" rx="120.4642" ry="18"/>
<ellipse fill="none" stroke="#000000" cx="340" cy="-527.6934" rx="124.4716" ry="22"/>
<ellipse fill="none" stroke="#000000" cx="340" cy="-527.6934" rx="128.4791" ry="26"/>
<text text-anchor="middle" x="340" y="-523.9934" font-family="Times,serif" font-size="14.00" fill="#000000">path_finnat_to_fin_zero</text>
</a>
</g>
</g>
<!-- FinNat_path_finnat_to_fin_zero&#45;&gt;FinNat_finnat_to_fin -->
<g id="edge14" class="edge">
<title>FinNat_path_finnat_to_fin_zero&#45;&gt;FinNat_finnat_to_fin</title>
<path fill="none" stroke="#000000" d="M398.8329,-504.4672C513.0496,-459.3764 762.7668,-360.7924 867.3928,-319.4879"/>
<polygon fill="#000000" stroke="#000000" points="868.7427,-322.7179 876.7589,-315.7903 866.1722,-316.2069 868.7427,-322.7179"/>
</g>
<!-- FinNat_zero_finnat -->
<g id="node25" class="node">
<title>FinNat_zero_finnat</title>
<g id="a_node25"><a xlink:href="FinNat.html#zero_finnat" xlink:title="zero_finnat">
<ellipse fill="#f070d1" stroke="#000000" cx="481" cy="-300.6934" rx="63.0888" ry="18"/>
<text text-anchor="middle" x="481" y="-296.9934" font-family="Times,serif" font-size="14.00" fill="#000000">zero_finnat</text>
</a>
</g>
</g>
<!-- FinNat_path_finnat_to_fin_zero&#45;&gt;FinNat_zero_finnat -->
<g id="edge15" class="edge">
<title>FinNat_path_finnat_to_fin_zero&#45;&gt;FinNat_zero_finnat</title>
<path fill="none" stroke="#000000" d="M356.1745,-501.6536C383.1875,-458.1645 437.2003,-371.2077 464.4568,-327.3267"/>
<polygon fill="#000000" stroke="#000000" points="467.5443,-328.9894 469.8476,-318.6479 461.598,-325.2958 467.5443,-328.9894"/>
</g>
<!-- FinNat_path_finnat_to_fin_succ&#45;&gt;FinNat_finnat_to_fin -->
<g id="edge16" class="edge">
<title>FinNat_path_finnat_to_fin_succ&#45;&gt;FinNat_finnat_to_fin</title>
<path fill="none" stroke="#000000" d="M1151.8336,-509.8811C1106.0246,-469.4194 994.0913,-370.5522 942.2167,-324.7331"/>
<polygon fill="#000000" stroke="#000000" points="944.5318,-322.108 934.7197,-318.1112 939.8977,-327.3545 944.5318,-322.108"/>
</g>
<!-- FinNat_succ_finnat -->
<g id="node23" class="node">
<title>FinNat_succ_finnat</title>
<g id="a_node23"><a xlink:href="FinNat.html#succ_finnat" xlink:title="succ_finnat">
<ellipse fill="#f070d1" stroke="#000000" cx="1577" cy="-300.6934" rx="64.189" ry="18"/>
<text text-anchor="middle" x="1577" y="-296.9934" font-family="Times,serif" font-size="14.00" fill="#000000">succ_finnat</text>
</a>
</g>
</g>
<!-- FinNat_path_finnat_to_fin_succ&#45;&gt;FinNat_succ_finnat -->
<g id="edge17" class="edge">
<title>FinNat_path_finnat_to_fin_succ&#45;&gt;FinNat_succ_finnat</title>
<path fill="none" stroke="#000000" d="M1203.1072,-510.258C1276.3504,-469.2056 1459.4764,-366.5647 1539.0692,-321.9534"/>
<polygon fill="#000000" stroke="#000000" points="1541.2361,-324.7512 1548.248,-316.8087 1537.8135,-318.6449 1541.2361,-324.7512"/>
</g>
<!-- FinNat_path_fin_to_finnat_fin_last -->
<g id="node8" class="node">
<title>FinNat_path_fin_to_finnat_fin_last</title>
<g id="a_node8"><a xlink:href="FinNat.html#path_fin_to_finnat_fin_last" xlink:title="path_fin_to_finnat_fin_last">
<ellipse fill="#f070d1" stroke="#000000" cx="1857" cy="-527.6934" rx="133.7826" ry="18"/>
<ellipse fill="none" stroke="#000000" cx="1857" cy="-527.6934" rx="137.7795" ry="22"/>
<ellipse fill="none" stroke="#000000" cx="1857" cy="-527.6934" rx="141.7763" ry="26"/>
<text text-anchor="middle" x="1857" y="-523.9934" font-family="Times,serif" font-size="14.00" fill="#000000">path_fin_to_finnat_fin_last</text>
</a>
</g>
</g>
<!-- FinNat_path_fin_to_finnat_fin_last&#45;&gt;FinNat_fin_to_finnat -->
<g id="edge18" class="edge">
<title>FinNat_path_fin_to_finnat_fin_last&#45;&gt;FinNat_fin_to_finnat</title>
<path fill="none" stroke="#000000" d="M1873.2892,-501.6536C1900.4938,-458.1645 1954.8897,-371.2077 1982.3395,-327.3267"/>
<polygon fill="#000000" stroke="#000000" points="1985.4324,-328.982 1987.7685,-318.6479 1979.4979,-325.2696 1985.4324,-328.982"/>
</g>
<!-- FinNat_path_fin_to_finnat_fin_last&#45;&gt;FinNat_last_finnat -->
<g id="edge19" class="edge">
<title>FinNat_path_fin_to_finnat_fin_last&#45;&gt;FinNat_last_finnat</title>
<path fill="none" stroke="#000000" d="M1809.4015,-502.9683C1722.566,-457.8616 1539.9888,-363.0216 1459.5199,-321.222"/>
<polygon fill="#000000" stroke="#000000" points="1460.7136,-317.8981 1450.2261,-316.3943 1457.4868,-324.11 1460.7136,-317.8981"/>
</g>
<!-- FinNat_path_fin_to_finnat_fin_incl -->
<g id="node9" class="node">
<title>FinNat_path_fin_to_finnat_fin_incl</title>
<g id="a_node9"><a xlink:href="FinNat.html#path_fin_to_finnat_fin_incl" xlink:title="path_fin_to_finnat_fin_incl">
<ellipse fill="#f070d1" stroke="#000000" cx="2447" cy="-527.6934" rx="133.7826" ry="18"/>
<ellipse fill="none" stroke="#000000" cx="2447" cy="-527.6934" rx="137.7795" ry="22"/>
<ellipse fill="none" stroke="#000000" cx="2447" cy="-527.6934" rx="141.7763" ry="26"/>
<text text-anchor="middle" x="2447" y="-523.9934" font-family="Times,serif" font-size="14.00" fill="#000000">path_fin_to_finnat_fin_incl</text>
</a>
</g>
</g>
<!-- FinNat_path_fin_to_finnat_fin_incl&#45;&gt;FinNat_fin_to_finnat -->
<g id="edge20" class="edge">
<title>FinNat_path_fin_to_finnat_fin_incl&#45;&gt;FinNat_fin_to_finnat</title>
<path fill="none" stroke="#000000" d="M2398.6305,-503.1847C2309.9617,-458.2565 2122.8988,-363.4724 2040.0165,-321.4763"/>
<polygon fill="#000000" stroke="#000000" points="2041.4118,-318.2597 2030.9096,-316.8619 2038.2479,-324.5039 2041.4118,-318.2597"/>
</g>
<!-- FinNat_path_fin_to_finnat_fin_incl&#45;&gt;FinNat_incl_finnat -->
<g id="edge21" class="edge">
<title>FinNat_path_fin_to_finnat_fin_incl&#45;&gt;FinNat_incl_finnat</title>
<path fill="none" stroke="#000000" d="M2461.5685,-501.6536C2485.8485,-458.2555 2534.3458,-371.5714 2558.945,-327.6027"/>
<polygon fill="#000000" stroke="#000000" points="2562.1268,-329.0839 2563.955,-318.6479 2556.0179,-325.6661 2562.1268,-329.0839"/>
</g>
<!-- FinNat_path_fin_to_finnat_fin_zero&#45;&gt;FinNat_fin_to_finnat -->
<g id="edge22" class="edge">
<title>FinNat_path_fin_to_finnat_fin_zero&#45;&gt;FinNat_fin_to_finnat</title>
<path fill="none" stroke="#000000" d="M708.5551,-513.5793C961.2362,-471.8943 1700.8355,-349.8819 1930.295,-312.0277"/>
<polygon fill="#000000" stroke="#000000" points="1930.8901,-315.4769 1940.187,-310.3958 1929.7507,-308.5703 1930.8901,-315.4769"/>
</g>
<!-- FinNat_path_fin_to_finnat_fin_zero&#45;&gt;FinNat_zero_finnat -->
<g id="edge23" class="edge">
<title>FinNat_path_fin_to_finnat_fin_zero&#45;&gt;FinNat_zero_finnat</title>
<path fill="none" stroke="#000000" d="M611.6196,-509.5007C586.6313,-469.5548 526.872,-374.024 497.6544,-327.317"/>
<polygon fill="#000000" stroke="#000000" points="500.5082,-325.2793 492.2375,-318.6576 494.5736,-328.9917 500.5082,-325.2793"/>
</g>
<!-- FinNat_path_fin_to_finnat_fsucc&#45;&gt;FinNat_fin_to_finnat -->
<g id="edge24" class="edge">
<title>FinNat_path_fin_to_finnat_fsucc&#45;&gt;FinNat_fin_to_finnat</title>
<path fill="none" stroke="#000000" d="M2130.5394,-509.5007C2105.3752,-469.5548 2045.1951,-374.024 2015.7717,-327.317"/>
<polygon fill="#000000" stroke="#000000" points="2018.6082,-325.2531 2010.3166,-318.6576 2012.6854,-328.9842 2018.6082,-325.2531"/>
</g>
<!-- FinNat_path_fin_to_finnat_fsucc&#45;&gt;FinNat_succ_finnat -->
<g id="edge25" class="edge">
<title>FinNat_path_fin_to_finnat_fsucc&#45;&gt;FinNat_succ_finnat</title>
<path fill="none" stroke="#000000" d="M2099.5332,-510.6315C1995.9007,-468.9951 1730.6998,-362.4453 1623.2511,-319.2757"/>
<polygon fill="#000000" stroke="#000000" points="1624.5461,-316.0241 1613.9622,-315.5437 1621.9364,-322.5195 1624.5461,-316.0241"/>
</g>
<!-- FinNat_FinNat -->
<g id="node26" class="node">
<title>FinNat_FinNat</title>
<g id="a_node26"><a xlink:href="FinNat.html#FinNat" xlink:title="FinNat">
<ellipse fill="#f070d1" stroke="#000000" cx="1506" cy="-96.6934" rx="43.5923" ry="18"/>
<text text-anchor="middle" x="1506" y="-92.9934" font-family="Times,serif" font-size="14.00" fill="#000000">FinNat</text>
</a>
</g>
</g>
<!-- FinNat_finnat_to_fin&#45;&gt;FinNat_FinNat -->
<g id="edge26" class="edge">
<title>FinNat_finnat_to_fin&#45;&gt;FinNat_FinNat</title>
<path fill="none" stroke="#000000" d="M957.0295,-286.1857C1065.3295,-248.803 1353.0879,-149.4752 1462.737,-111.6268"/>
<polygon fill="#000000" stroke="#000000" points="1464.1639,-114.837 1472.4746,-108.2656 1461.8799,-108.2201 1464.1639,-114.837"/>
</g>
<!-- FinNat_is_bounded_fin_to_nat -->
<g id="node14" class="node">
<title>FinNat_is_bounded_fin_to_nat</title>
<g id="a_node14"><a xlink:href="FinNat.html#is_bounded_fin_to_nat" xlink:title="is_bounded_fin_to_nat">
<ellipse fill="#f070d1" stroke="#000000" cx="1999" cy="-96.6934" rx="114.2798" ry="18"/>
<text text-anchor="middle" x="1999" y="-92.9934" font-family="Times,serif" font-size="14.00" fill="#000000">is_bounded_fin_to_nat</text>
</a>
</g>
</g>
<!-- FinNat_fin_to_finnat&#45;&gt;FinNat_is_bounded_fin_to_nat -->
<g id="edge27" class="edge">
<title>FinNat_fin_to_finnat&#45;&gt;FinNat_is_bounded_fin_to_nat</title>
<path fill="none" stroke="#000000" d="M1999,-282.5897C1999,-246.9773 1999,-167.5863 1999,-124.9906"/>
<polygon fill="#000000" stroke="#000000" points="2002.5001,-124.7564 1999,-114.7565 1995.5001,-124.7565 2002.5001,-124.7564"/>
</g>
<!-- FinNat_fin_to_finnat&#45;&gt;FinNat_FinNat -->
<g id="edge28" class="edge">
<title>FinNat_fin_to_finnat&#45;&gt;FinNat_FinNat</title>
<path fill="none" stroke="#000000" d="M1961.9449,-285.3602C1871.5409,-247.9517 1640.2274,-152.2358 1546.4265,-113.4216"/>
<polygon fill="#000000" stroke="#000000" points="1547.5753,-110.1092 1536.9969,-109.5197 1544.8988,-116.5773 1547.5753,-110.1092"/>
</g>
<!-- FinNat_compute_finnat_ind_succ -->
<g id="node15" class="node">
<title>FinNat_compute_finnat_ind_succ</title>
<g id="a_node15"><a xlink:href="FinNat.html#compute_finnat_ind_succ" xlink:title="compute_finnat_ind_succ">
<ellipse fill="#f070d1" stroke="#000000" cx="681" cy="-981.6934" rx="129.1866" ry="18"/>
<ellipse fill="none" stroke="#000000" cx="681" cy="-981.6934" rx="133.1819" ry="22"/>
<ellipse fill="none" stroke="#000000" cx="681" cy="-981.6934" rx="137.1772" ry="26"/>
<text text-anchor="middle" x="681" y="-977.9934" font-family="Times,serif" font-size="14.00" fill="#000000">compute_finnat_ind_succ</text>
</a>
</g>
</g>
<!-- FinNat_finnat_ind -->
<g id="node17" class="node">
<title>FinNat_finnat_ind</title>
<g id="a_node17"><a xlink:href="FinNat.html#finnat_ind" xlink:title="finnat_ind">
<ellipse fill="#f070d1" stroke="#000000" cx="487" cy="-754.6934" rx="57.6901" ry="18"/>
<text text-anchor="middle" x="487" y="-750.9934" font-family="Times,serif" font-size="14.00" fill="#000000">finnat_ind</text>
</a>
</g>
</g>
<!-- FinNat_compute_finnat_ind_succ&#45;&gt;FinNat_finnat_ind -->
<g id="edge29" class="edge">
<title>FinNat_compute_finnat_ind_succ&#45;&gt;FinNat_finnat_ind</title>
<path fill="none" stroke="#000000" d="M658.7457,-955.6536C621.2521,-911.7822 545.9537,-823.6754 508.781,-780.1794"/>
<polygon fill="#000000" stroke="#000000" points="511.2467,-777.6773 502.0891,-772.3492 505.9253,-782.2252 511.2467,-777.6773"/>
</g>
<!-- FinNat_compute_finnat_ind_zero -->
<g id="node16" class="node">
<title>FinNat_compute_finnat_ind_zero</title>
<g id="a_node16"><a xlink:href="FinNat.html#compute_finnat_ind_zero" xlink:title="compute_finnat_ind_zero">
<ellipse fill="#f070d1" stroke="#000000" cx="390" cy="-981.6934" rx="128.075" ry="18"/>
<ellipse fill="none" stroke="#000000" cx="390" cy="-981.6934" rx="132.0762" ry="22"/>
<ellipse fill="none" stroke="#000000" cx="390" cy="-981.6934" rx="136.0773" ry="26"/>
<text text-anchor="middle" x="390" y="-977.9934" font-family="Times,serif" font-size="14.00" fill="#000000">compute_finnat_ind_zero</text>
</a>
</g>
</g>
<!-- FinNat_compute_finnat_ind_zero&#45;&gt;FinNat_finnat_ind -->
<g id="edge30" class="edge">
<title>FinNat_compute_finnat_ind_zero&#45;&gt;FinNat_finnat_ind</title>
<path fill="none" stroke="#000000" d="M401.1271,-955.6536C419.6328,-912.3465 456.5577,-825.9346 475.3829,-781.8798"/>
<polygon fill="#000000" stroke="#000000" points="478.6168,-783.2189 479.3278,-772.6479 472.1798,-780.4683 478.6168,-783.2189"/>
</g>
<!-- FinNat_finnat_ind&#45;&gt;FinNat_path_succ_finnat -->
<g id="edge31" class="edge">
<title>FinNat_finnat_ind&#45;&gt;FinNat_path_succ_finnat</title>
<path fill="none" stroke="#000000" d="M537.699,-745.8704C686.9981,-719.6402 1137.7893,-638.6606 1508,-553.6934 1519.7046,-551.0071 1532.1283,-547.9272 1544.076,-544.8488"/>
<polygon fill="#000000" stroke="#000000" points="1545.1783,-548.1786 1553.9739,-542.2719 1543.4146,-541.4044 1545.1783,-548.1786"/>
</g>
<!-- FinNat_path_zero_finnat -->
<g id="node24" class="node">
<title>FinNat_path_zero_finnat</title>
<g id="a_node24"><a xlink:href="FinNat.html#path_zero_finnat" xlink:title="path_zero_finnat">
<ellipse fill="#f070d1" stroke="#000000" cx="105" cy="-527.6934" rx="89.0842" ry="18"/>
<text text-anchor="middle" x="105" y="-523.9934" font-family="Times,serif" font-size="14.00" fill="#000000">path_zero_finnat</text>
</a>
</g>
</g>
<!-- FinNat_finnat_ind&#45;&gt;FinNat_path_zero_finnat -->
<g id="edge32" class="edge">
<title>FinNat_finnat_ind&#45;&gt;FinNat_path_zero_finnat</title>
<path fill="none" stroke="#000000" d="M460.1385,-738.7312C393.3926,-699.068 219.8541,-595.9444 142.8059,-550.1592"/>
<polygon fill="#000000" stroke="#000000" points="144.2865,-546.9677 133.9017,-544.868 140.7105,-552.9854 144.2865,-546.9677"/>
</g>
<!-- FinNat_path_incl_finnat -->
<g id="node18" class="node">
<title>FinNat_path_incl_finnat</title>
<g id="a_node18"><a xlink:href="FinNat.html#path_incl_finnat" xlink:title="path_incl_finnat">
<ellipse fill="#f070d1" stroke="#000000" cx="2701" cy="-527.6934" rx="85.6029" ry="18"/>
<ellipse fill="none" stroke="#000000" cx="2701" cy="-527.6934" rx="89.5941" ry="22"/>
<ellipse fill="none" stroke="#000000" cx="2701" cy="-527.6934" rx="93.5852" ry="26"/>
<text text-anchor="middle" x="2701" y="-523.9934" font-family="Times,serif" font-size="14.00" fill="#000000">path_incl_finnat</text>
</a>
</g>
</g>
<!-- FinNat_path_incl_finnat&#45;&gt;FinNat_incl_finnat -->
<g id="edge33" class="edge">
<title>FinNat_path_incl_finnat&#45;&gt;FinNat_incl_finnat</title>
<path fill="none" stroke="#000000" d="M2686.4315,-501.6536C2662.1515,-458.2555 2613.6542,-371.5714 2589.055,-327.6027"/>
<polygon fill="#000000" stroke="#000000" points="2591.9821,-325.6661 2584.045,-318.6479 2585.8732,-329.0839 2591.9821,-325.6661"/>
</g>
<!-- FinNat_incl_finnat&#45;&gt;FinNat_FinNat -->
<g id="edge34" class="edge">
<title>FinNat_incl_finnat&#45;&gt;FinNat_FinNat</title>
<path fill="none" stroke="#000000" d="M2523.2066,-290.9913C2342.7566,-256.5233 1733.8734,-140.2198 1555.4951,-106.1475"/>
<polygon fill="#000000" stroke="#000000" points="1556.0788,-102.6958 1545.5997,-104.2574 1554.7654,-109.5715 1556.0788,-102.6958"/>
</g>
<!-- FinNat_path_last_finnat -->
<g id="node20" class="node">
<title>FinNat_path_last_finnat</title>
<g id="a_node20"><a xlink:href="FinNat.html#path_last_finnat" xlink:title="path_last_finnat">
<ellipse fill="#f070d1" stroke="#000000" cx="1405" cy="-527.6934" rx="85.6029" ry="18"/>
<ellipse fill="none" stroke="#000000" cx="1405" cy="-527.6934" rx="89.5941" ry="22"/>
<ellipse fill="none" stroke="#000000" cx="1405" cy="-527.6934" rx="93.5852" ry="26"/>
<text text-anchor="middle" x="1405" y="-523.9934" font-family="Times,serif" font-size="14.00" fill="#000000">path_last_finnat</text>
</a>
</g>
</g>
<!-- FinNat_path_last_finnat&#45;&gt;FinNat_last_finnat -->
<g id="edge35" class="edge">
<title>FinNat_path_last_finnat&#45;&gt;FinNat_last_finnat</title>
<path fill="none" stroke="#000000" d="M1406.7207,-501.6536C1409.5573,-458.727 1415.1923,-373.4499 1418.1262,-329.0508"/>
<polygon fill="#000000" stroke="#000000" points="1421.6266,-329.1578 1418.7937,-318.9488 1414.6419,-328.6962 1421.6266,-329.1578"/>
</g>
<!-- FinNat_last_finnat&#45;&gt;FinNat_FinNat -->
<g id="edge36" class="edge">
<title>FinNat_last_finnat&#45;&gt;FinNat_FinNat</title>
<path fill="none" stroke="#000000" d="M1427.6319,-282.5897C1442.7787,-246.6602 1476.7113,-166.169 1494.5468,-123.8615"/>
<polygon fill="#000000" stroke="#000000" points="1497.8484,-125.0395 1498.508,-114.4652 1491.3982,-122.3202 1497.8484,-125.0395"/>
</g>
<!-- FinNat_path_succ_finnat&#45;&gt;FinNat_succ_finnat -->
<g id="edge37" class="edge">
<title>FinNat_path_succ_finnat&#45;&gt;FinNat_succ_finnat</title>
<path fill="none" stroke="#000000" d="M1604.5957,-509.5007C1599.3844,-470.0685 1587.0148,-376.4719 1580.7599,-329.143"/>
<polygon fill="#000000" stroke="#000000" points="1584.1959,-328.4279 1579.4158,-318.9727 1577.2562,-329.3451 1584.1959,-328.4279"/>
</g>
<!-- FinNat_succ_finnat&#45;&gt;FinNat_FinNat -->
<g id="edge38" class="edge">
<title>FinNat_succ_finnat&#45;&gt;FinNat_FinNat</title>
<path fill="none" stroke="#000000" d="M1570.6992,-282.5897C1558.2521,-246.826 1530.4386,-166.9113 1515.6604,-124.45"/>
<polygon fill="#000000" stroke="#000000" points="1518.8792,-123.0503 1512.2867,-114.7565 1512.2682,-125.3513 1518.8792,-123.0503"/>
</g>
<!-- FinNat_path_zero_finnat&#45;&gt;FinNat_zero_finnat -->
<g id="edge39" class="edge">
<title>FinNat_path_zero_finnat&#45;&gt;FinNat_zero_finnat</title>
<path fill="none" stroke="#000000" d="M133.5697,-510.4452C201.1168,-469.6654 370.5567,-367.3706 444.9844,-322.4369"/>
<polygon fill="#000000" stroke="#000000" points="447.2455,-325.1602 453.9974,-316.9955 443.6276,-319.1676 447.2455,-325.1602"/>
</g>
<!-- FinNat_zero_finnat&#45;&gt;FinNat_FinNat -->
<g id="edge40" class="edge">
<title>FinNat_zero_finnat&#45;&gt;FinNat_FinNat</title>
<path fill="none" stroke="#000000" d="M532.8852,-290.367C709.2611,-255.2639 1284.3005,-140.817 1456.7067,-106.504"/>
<polygon fill="#000000" stroke="#000000" points="1457.6373,-109.8875 1466.7618,-104.5027 1456.2709,-103.0221 1457.6373,-109.8875"/>
</g>
</g>
</svg>
