<?xml version="1.0" encoding="UTF-8" standalone="no"?>
<!DOCTYPE svg PUBLIC "-//W3C//DTD SVG 1.1//EN"
 "http://www.w3.org/Graphics/SVG/1.1/DTD/svg11.dtd">
<!-- Generated by graphviz version 2.40.1 (20161225.0304)
 -->
<!-- Title: HoTT_Spaces_BAut_Rigid Pages: 1 -->
<svg width="858pt" height="433pt"
 viewBox="0.00 0.00 858.00 433.00" xmlns="http://www.w3.org/2000/svg" xmlns:xlink="http://www.w3.org/1999/xlink">
<g id="graph0" class="graph" transform="scale(1 1) rotate(0) translate(4 429)">
<title>HoTT_Spaces_BAut_Rigid</title>
<polygon fill="#ffffff" stroke="transparent" points="-4,4 -4,-429 854,-429 854,4 -4,4"/>
<g id="clust1" class="cluster">
<title>cluster_Rigid</title>
<polygon fill="#ffffc3" stroke="#000000" points="8,-9.5775 8,-415.4225 842,-415.4225 842,-9.5775 8,-9.5775"/>
<text text-anchor="middle" x="35" y="-400.2225" font-family="Times,serif" font-size="14.00" fill="#000000">Rigid</text>
</g>
<!-- Rigid_baut_prod_rigid_equiv -->
<g id="node1" class="node">
<title>Rigid_baut_prod_rigid_equiv</title>
<g id="a_node1"><a xlink:href="Rigid.html#baut_prod_rigid_equiv" xlink:title="baut_prod_rigid_equiv">
<ellipse fill="#f070d1" stroke="#000000" cx="519" cy="-241.5775" rx="115.077" ry="18"/>
<ellipse fill="none" stroke="#000000" cx="519" cy="-241.5775" rx="119.0783" ry="22"/>
<ellipse fill="none" stroke="#000000" cx="519" cy="-241.5775" rx="123.0796" ry="26"/>
<text text-anchor="middle" x="519" y="-237.8775" font-family="Times,serif" font-size="14.00" fill="#000000">baut_prod_rigid_equiv</text>
</a>
</g>
</g>
<!-- Rigid_aut_homomorphism_end -->
<g id="node2" class="node">
<title>Rigid_aut_homomorphism_end</title>
<g id="a_node2"><a xlink:href="Rigid.html#aut_homomorphism_end" xlink:title="aut_homomorphism_end">
<ellipse fill="#f070d1" stroke="#000000" cx="709" cy="-136.5775" rx="124.5782" ry="18"/>
<text text-anchor="middle" x="709" y="-132.8775" font-family="Times,serif" font-size="14.00" fill="#000000">aut_homomorphism_end</text>
</a>
</g>
</g>
<!-- Rigid_baut_prod_rigid_equiv&#45;&gt;Rigid_aut_homomorphism_end -->
<g id="edge1" class="edge">
<title>Rigid_baut_prod_rigid_equiv&#45;&gt;Rigid_aut_homomorphism_end</title>
<path fill="none" stroke="#000000" d="M563.0674,-217.2244C594.8958,-199.635 637.5537,-176.0609 668.5239,-158.9459"/>
<polygon fill="#000000" stroke="#000000" points="670.2725,-161.9785 677.332,-154.0782 666.8866,-155.8518 670.2725,-161.9785"/>
</g>
<!-- Rigid_path_aut_rigid -->
<g id="node7" class="node">
<title>Rigid_path_aut_rigid</title>
<g id="a_node7"><a xlink:href="Rigid.html#path_aut_rigid" xlink:title="path_aut_rigid">
<ellipse fill="#f070d1" stroke="#000000" cx="95" cy="-136.5775" rx="78.7863" ry="18"/>
<text text-anchor="middle" x="95" y="-132.8775" font-family="Times,serif" font-size="14.00" fill="#000000">path_aut_rigid</text>
</a>
</g>
</g>
<!-- Rigid_baut_prod_rigid_equiv&#45;&gt;Rigid_path_aut_rigid -->
<g id="edge2" class="edge">
<title>Rigid_baut_prod_rigid_equiv&#45;&gt;Rigid_path_aut_rigid</title>
<path fill="none" stroke="#000000" d="M433.3955,-222.8488C365.2959,-207.6136 267.7135,-185.0317 183,-162.5775 172.9643,-159.9174 162.335,-156.9266 152.0648,-153.946"/>
<polygon fill="#000000" stroke="#000000" points="152.94,-150.5553 142.3593,-151.1025 150.9718,-157.273 152.94,-150.5553"/>
</g>
<!-- Rigid_rigid_ishprop -->
<g id="node3" class="node">
<title>Rigid_rigid_ishprop</title>
<g id="a_node3"><a xlink:href="Rigid.html#rigid_ishprop" xlink:title="rigid_ishprop">
<ellipse fill="#f070d1" stroke="#000000" cx="485" cy="-136.5775" rx="72.608" ry="18"/>
<ellipse fill="none" stroke="#000000" cx="485" cy="-136.5775" rx="76.5978" ry="22"/>
<ellipse fill="none" stroke="#000000" cx="485" cy="-136.5775" rx="80.5876" ry="26"/>
<text text-anchor="middle" x="485" y="-132.8775" font-family="Times,serif" font-size="14.00" fill="#000000">rigid_ishprop</text>
</a>
</g>
</g>
<!-- Rigid_IsRigid -->
<g id="node8" class="node">
<title>Rigid_IsRigid</title>
<g id="a_node8"><a xlink:href="Rigid.html#IsRigid" xlink:title="IsRigid">
<ellipse fill="#f070d1" stroke="#000000" cx="289" cy="-40.5775" rx="44.393" ry="18"/>
<text text-anchor="middle" x="289" y="-36.8775" font-family="Times,serif" font-size="14.00" fill="#000000">IsRigid</text>
</a>
</g>
</g>
<!-- Rigid_rigid_ishprop&#45;&gt;Rigid_IsRigid -->
<g id="edge3" class="edge">
<title>Rigid_rigid_ishprop&#45;&gt;Rigid_IsRigid</title>
<path fill="none" stroke="#000000" d="M440.5246,-114.7936C406.1899,-97.9766 359.2111,-74.9666 326.7063,-59.0458"/>
<polygon fill="#000000" stroke="#000000" points="328.0498,-55.8066 317.5296,-54.5511 324.9706,-62.0931 328.0498,-55.8066"/>
</g>
<!-- Rigid_rigid_contr_Baut -->
<g id="node4" class="node">
<title>Rigid_rigid_contr_Baut</title>
<g id="a_node4"><a xlink:href="Rigid.html#rigid_contr_Baut" xlink:title="rigid_contr_Baut">
<ellipse fill="#f070d1" stroke="#000000" cx="289" cy="-136.5775" rx="89.0807" ry="18"/>
<ellipse fill="none" stroke="#000000" cx="289" cy="-136.5775" rx="93.0825" ry="22"/>
<ellipse fill="none" stroke="#000000" cx="289" cy="-136.5775" rx="97.0842" ry="26"/>
<text text-anchor="middle" x="289" y="-132.8775" font-family="Times,serif" font-size="14.00" fill="#000000">rigid_contr_Baut</text>
</a>
</g>
</g>
<!-- Rigid_rigid_contr_Baut&#45;&gt;Rigid_IsRigid -->
<g id="edge4" class="edge">
<title>Rigid_rigid_contr_Baut&#45;&gt;Rigid_IsRigid</title>
<path fill="none" stroke="#000000" d="M289,-110.345C289,-97.5071 289,-82.0336 289,-68.9241"/>
<polygon fill="#000000" stroke="#000000" points="292.5001,-68.578 289,-58.578 285.5001,-68.578 292.5001,-68.578"/>
</g>
<!-- Rigid_contr_baut_rigid -->
<g id="node5" class="node">
<title>Rigid_contr_baut_rigid</title>
<g id="a_node5"><a xlink:href="Rigid.html#contr_baut_rigid" xlink:title="contr_baut_rigid">
<ellipse fill="#f070d1" stroke="#000000" cx="112" cy="-347.5775" rx="88.2934" ry="18"/>
<ellipse fill="none" stroke="#000000" cx="112" cy="-347.5775" rx="92.2889" ry="22"/>
<ellipse fill="none" stroke="#000000" cx="112" cy="-347.5775" rx="96.2844" ry="26"/>
<text text-anchor="middle" x="112" y="-343.8775" font-family="Times,serif" font-size="14.00" fill="#000000">contr_baut_rigid</text>
</a>
</g>
</g>
<!-- Rigid_contr_aut_rigid -->
<g id="node6" class="node">
<title>Rigid_contr_aut_rigid</title>
<g id="a_node6"><a xlink:href="Rigid.html#contr_aut_rigid" xlink:title="contr_aut_rigid">
<ellipse fill="#f070d1" stroke="#000000" cx="105" cy="-241.5775" rx="82.5854" ry="18"/>
<text text-anchor="middle" x="105" y="-237.8775" font-family="Times,serif" font-size="14.00" fill="#000000">contr_aut_rigid</text>
</a>
</g>
</g>
<!-- Rigid_contr_baut_rigid&#45;&gt;Rigid_contr_aut_rigid -->
<g id="edge5" class="edge">
<title>Rigid_contr_baut_rigid&#45;&gt;Rigid_contr_aut_rigid</title>
<path fill="none" stroke="#000000" d="M110.2697,-321.3752C109.2433,-305.8337 107.9415,-286.1202 106.8886,-270.1758"/>
<polygon fill="#000000" stroke="#000000" points="110.3573,-269.5848 106.2058,-259.8372 103.3725,-270.0461 110.3573,-269.5848"/>
</g>
<!-- Rigid_contr_aut_rigid&#45;&gt;Rigid_path_aut_rigid -->
<g id="edge6" class="edge">
<title>Rigid_contr_aut_rigid&#45;&gt;Rigid_path_aut_rigid</title>
<path fill="none" stroke="#000000" d="M103.2581,-223.2879C101.7167,-207.1024 99.4434,-183.2331 97.672,-164.6335"/>
<polygon fill="#000000" stroke="#000000" points="101.1543,-164.2806 96.7219,-154.6575 94.1859,-164.9443 101.1543,-164.2806"/>
</g>
<!-- Rigid_path_aut_rigid&#45;&gt;Rigid_IsRigid -->
<g id="edge7" class="edge">
<title>Rigid_path_aut_rigid&#45;&gt;Rigid_IsRigid</title>
<path fill="none" stroke="#000000" d="M128.3498,-120.0745C162.6594,-103.0965 215.9904,-76.7059 251.6842,-59.043"/>
<polygon fill="#000000" stroke="#000000" points="253.3941,-62.102 260.8045,-54.5299 250.2895,-55.8281 253.3941,-62.102"/>
</g>
</g>
</svg>
