<?xml version="1.0" encoding="UTF-8" standalone="no"?>
<!DOCTYPE svg PUBLIC "-//W3C//DTD SVG 1.1//EN"
 "http://www.w3.org/Graphics/SVG/1.1/DTD/svg11.dtd">
<!-- Generated by graphviz version 2.40.1 (20161225.0304)
 -->
<!-- Title: HoTT_Classes_interfaces_monad Pages: 1 -->
<svg width="1140pt" height="574pt"
 viewBox="0.00 0.00 1140.00 574.00" xmlns="http://www.w3.org/2000/svg" xmlns:xlink="http://www.w3.org/1999/xlink">
<g id="graph0" class="graph" transform="scale(1 1) rotate(0) translate(4 570)">
<title>HoTT_Classes_interfaces_monad</title>
<polygon fill="#ffffff" stroke="transparent" points="-4,4 -4,-570 1136,-570 1136,4 -4,4"/>
<g id="clust1" class="cluster">
<title>cluster_monad</title>
<polygon fill="#ffffc3" stroke="#000000" points="8,-16.9588 8,-549.0412 1124,-549.0412 1124,-16.9588 8,-16.9588"/>
<text text-anchor="middle" x="40.5" y="-533.8412" font-family="Times,serif" font-size="14.00" fill="#000000">monad</text>
</g>
<!-- monad_monad_bind_assoc -->
<g id="node1" class="node">
<title>monad_monad_bind_assoc</title>
<g id="a_node1"><a xlink:href="monad.html#monad_bind_assoc" xlink:title="monad_bind_assoc">
<ellipse fill="#f070d1" stroke="#000000" cx="1010" cy="-241.9588" rx="98.2721" ry="18"/>
<ellipse fill="none" stroke="#000000" cx="1010" cy="-241.9588" rx="102.2774" ry="22"/>
<ellipse fill="none" stroke="#000000" cx="1010" cy="-241.9588" rx="106.2828" ry="26"/>
<text text-anchor="middle" x="1010" y="-238.2588" font-family="Times,serif" font-size="14.00" fill="#000000">monad_bind_assoc</text>
</a>
</g>
</g>
<!-- monad_Monad -->
<g id="node9" class="node">
<title>monad_Monad</title>
<g id="a_node9"><a xlink:href="monad.html#Monad" xlink:title="Monad">
<ellipse fill="#e2cdfa" stroke="#000000" cx="497" cy="-71.9588" rx="42.4939" ry="18"/>
<text text-anchor="middle" x="497" y="-68.2588" font-family="Times,serif" font-size="14.00" fill="#000000">Monad</text>
</a>
</g>
</g>
<!-- monad_monad_bind_assoc&#45;&gt;monad_Monad -->
<g id="edge1" class="edge">
<title>monad_monad_bind_assoc&#45;&gt;monad_Monad</title>
<path fill="none" stroke="#000000" d="M946.8391,-221.0283C841.0035,-185.956 630.5551,-116.2168 540.0353,-86.22"/>
<polygon fill="#000000" stroke="#000000" points="540.9661,-82.8414 530.3727,-83.018 538.7641,-89.486 540.9661,-82.8414"/>
</g>
<!-- monad_monad_bind_ret -->
<g id="node2" class="node">
<title>monad_monad_bind_ret</title>
<g id="a_node2"><a xlink:href="monad.html#monad_bind_ret" xlink:title="monad_bind_ret">
<ellipse fill="#f070d1" stroke="#000000" cx="792" cy="-241.9588" rx="85.6029" ry="18"/>
<ellipse fill="none" stroke="#000000" cx="792" cy="-241.9588" rx="89.5941" ry="22"/>
<ellipse fill="none" stroke="#000000" cx="792" cy="-241.9588" rx="93.5852" ry="26"/>
<text text-anchor="middle" x="792" y="-238.2588" font-family="Times,serif" font-size="14.00" fill="#000000">monad_bind_ret</text>
</a>
</g>
</g>
<!-- monad_monad_bind_ret&#45;&gt;monad_Monad -->
<g id="edge2" class="edge">
<title>monad_monad_bind_ret&#45;&gt;monad_Monad</title>
<path fill="none" stroke="#000000" d="M751.2912,-218.4995C692.7205,-184.7469 585.7283,-123.0904 531.0858,-91.6015"/>
<polygon fill="#000000" stroke="#000000" points="532.5594,-88.4111 522.1476,-86.4506 529.0643,-94.4762 532.5594,-88.4111"/>
</g>
<!-- monad_monad_ret_bind -->
<g id="node3" class="node">
<title>monad_monad_ret_bind</title>
<g id="a_node3"><a xlink:href="monad.html#monad_ret_bind" xlink:title="monad_ret_bind">
<ellipse fill="#f070d1" stroke="#000000" cx="586" cy="-241.9588" rx="85.6029" ry="18"/>
<ellipse fill="none" stroke="#000000" cx="586" cy="-241.9588" rx="89.5941" ry="22"/>
<ellipse fill="none" stroke="#000000" cx="586" cy="-241.9588" rx="93.5852" ry="26"/>
<text text-anchor="middle" x="586" y="-238.2588" font-family="Times,serif" font-size="14.00" fill="#000000">monad_ret_bind</text>
</a>
</g>
</g>
<!-- monad_monad_ret_bind&#45;&gt;monad_Monad -->
<g id="edge3" class="edge">
<title>monad_monad_ret_bind&#45;&gt;monad_Monad</title>
<path fill="none" stroke="#000000" d="M572.4828,-216.1395C555.9129,-184.489 527.9651,-131.1056 511.1232,-98.9358"/>
<polygon fill="#000000" stroke="#000000" points="514.0169,-96.9166 506.2779,-89.6807 507.8153,-100.1634 514.0169,-96.9166"/>
</g>
<!-- monad_Monad_sind -->
<g id="node4" class="node">
<title>monad_Monad_sind</title>
<g id="a_node4"><a xlink:href="monad.html#Monad_sind" xlink:title="Monad_sind">
<ellipse fill="#f070d1" stroke="#000000" cx="91" cy="-241.9588" rx="66.8941" ry="18"/>
<ellipse fill="none" stroke="#000000" cx="91" cy="-241.9588" rx="70.8911" ry="22"/>
<ellipse fill="none" stroke="#000000" cx="91" cy="-241.9588" rx="74.8882" ry="26"/>
<text text-anchor="middle" x="91" y="-238.2588" font-family="Times,serif" font-size="14.00" fill="#000000">Monad_sind</text>
</a>
</g>
</g>
<!-- monad_Build_Monad -->
<g id="node8" class="node">
<title>monad_Build_Monad</title>
<g id="a_node8"><a xlink:href="monad.html#Build_Monad" xlink:title="Build_Monad">
<ellipse fill="#7faaff" stroke="#000000" cx="254" cy="-71.9588" rx="71.4873" ry="18"/>
<text text-anchor="middle" x="254" y="-68.2588" font-family="Times,serif" font-size="14.00" fill="#000000">Build_Monad</text>
</a>
</g>
</g>
<!-- monad_Monad_sind&#45;&gt;monad_Build_Monad -->
<g id="edge4" class="edge">
<title>monad_Monad_sind&#45;&gt;monad_Build_Monad</title>
<path fill="none" stroke="#000000" d="M114.7016,-217.2393C145.437,-185.1841 198.7673,-129.5635 229.7626,-97.2371"/>
<polygon fill="#000000" stroke="#000000" points="232.3688,-99.5761 236.7634,-89.9356 227.3161,-94.7315 232.3688,-99.5761"/>
</g>
<!-- monad_Monad_sind&#45;&gt;monad_Monad -->
<g id="edge5" class="edge">
<title>monad_Monad_sind&#45;&gt;monad_Monad</title>
<path fill="none" stroke="#000000" d="M139.1679,-221.79C220.1804,-187.8685 382.1908,-120.0316 457.1995,-88.624"/>
<polygon fill="#000000" stroke="#000000" points="458.8892,-91.711 466.7614,-84.6203 456.1855,-85.2542 458.8892,-91.711"/>
</g>
<!-- monad_Monad_rec -->
<g id="node5" class="node">
<title>monad_Monad_rec</title>
<g id="a_node5"><a xlink:href="monad.html#Monad_rec" xlink:title="Monad_rec">
<ellipse fill="#f070d1" stroke="#000000" cx="408" cy="-427.9588" rx="62.3011" ry="18"/>
<ellipse fill="none" stroke="#000000" cx="408" cy="-427.9588" rx="66.2951" ry="22"/>
<ellipse fill="none" stroke="#000000" cx="408" cy="-427.9588" rx="70.2891" ry="26"/>
<text text-anchor="middle" x="408" y="-424.2588" font-family="Times,serif" font-size="14.00" fill="#000000">Monad_rec</text>
</a>
</g>
</g>
<!-- monad_Monad_rect -->
<g id="node7" class="node">
<title>monad_Monad_rect</title>
<g id="a_node7"><a xlink:href="monad.html#Monad_rect" xlink:title="Monad_rect">
<ellipse fill="#f070d1" stroke="#000000" cx="408" cy="-241.9588" rx="66.0889" ry="18"/>
<text text-anchor="middle" x="408" y="-238.2588" font-family="Times,serif" font-size="14.00" fill="#000000">Monad_rect</text>
</a>
</g>
</g>
<!-- monad_Monad_rec&#45;&gt;monad_Monad_rect -->
<g id="edge6" class="edge">
<title>monad_Monad_rec&#45;&gt;monad_Monad_rect</title>
<path fill="none" stroke="#000000" d="M408,-401.704C408,-366.9465 408,-305.9 408,-270.1816"/>
<polygon fill="#000000" stroke="#000000" points="411.5001,-269.9669 408,-259.9669 404.5001,-269.9669 411.5001,-269.9669"/>
</g>
<!-- monad_Monad_ind -->
<g id="node6" class="node">
<title>monad_Monad_ind</title>
<g id="a_node6"><a xlink:href="monad.html#Monad_ind" xlink:title="Monad_ind">
<ellipse fill="#7fffd4" stroke="#000000" cx="254" cy="-241.9588" rx="61.9618" ry="18"/>
<ellipse fill="none" stroke="#000000" cx="254" cy="-241.9588" rx="65.9758" ry="22"/>
<ellipse fill="none" stroke="#000000" cx="254" cy="-241.9588" rx="69.9899" ry="26"/>
<text text-anchor="middle" x="254" y="-238.2588" font-family="Times,serif" font-size="14.00" fill="#000000">Monad_ind</text>
</a>
</g>
</g>
<!-- monad_Monad_ind&#45;&gt;monad_Build_Monad -->
<g id="edge7" class="edge">
<title>monad_Monad_ind&#45;&gt;monad_Build_Monad</title>
<path fill="none" stroke="#000000" d="M254,-215.7689C254,-184.4732 254,-132.3154 254,-100.1575"/>
<polygon fill="#000000" stroke="#000000" points="257.5001,-100.0775 254,-90.0775 250.5001,-100.0776 257.5001,-100.0775"/>
</g>
<!-- monad_Monad_ind&#45;&gt;monad_Monad -->
<g id="edge8" class="edge">
<title>monad_Monad_ind&#45;&gt;monad_Monad</title>
<path fill="none" stroke="#000000" d="M287.025,-218.8549C334.326,-185.7636 420.7015,-125.3363 466.5407,-93.2677"/>
<polygon fill="#000000" stroke="#000000" points="468.6896,-96.0359 474.8772,-87.4357 464.6769,-90.3002 468.6896,-96.0359"/>
</g>
<!-- monad_Monad_rect&#45;&gt;monad_Build_Monad -->
<g id="edge9" class="edge">
<title>monad_Monad_rect&#45;&gt;monad_Build_Monad</title>
<path fill="none" stroke="#000000" d="M392.0993,-224.4061C364.6642,-194.1206 308.3472,-131.9524 276.7634,-97.0872"/>
<polygon fill="#000000" stroke="#000000" points="279.3526,-94.7321 270.0449,-89.6707 274.1647,-99.4317 279.3526,-94.7321"/>
</g>
<!-- monad_Monad_rect&#45;&gt;monad_Monad -->
<g id="edge10" class="edge">
<title>monad_Monad_rect&#45;&gt;monad_Monad</title>
<path fill="none" stroke="#000000" d="M417.3563,-224.0871C433.0214,-194.1652 464.6387,-133.7726 482.974,-98.75"/>
<polygon fill="#000000" stroke="#000000" points="486.2316,-100.0737 487.769,-89.591 480.0301,-96.827 486.2316,-100.0737"/>
</g>
</g>
</svg>
