<?xml version="1.0" encoding="UTF-8" standalone="no"?>
<!DOCTYPE svg PUBLIC "-//W3C//DTD SVG 1.1//EN"
 "http://www.w3.org/Graphics/SVG/1.1/DTD/svg11.dtd">
<!-- Generated by graphviz version 2.40.1 (20161225.0304)
 -->
<!-- Title: HoTT_Classes_orders_archimedean Pages: 1 -->
<svg width="676pt" height="115pt"
 viewBox="0.00 0.00 676.00 115.00" xmlns="http://www.w3.org/2000/svg" xmlns:xlink="http://www.w3.org/1999/xlink">
<g id="graph0" class="graph" transform="scale(1 1) rotate(0) translate(4 111)">
<title>HoTT_Classes_orders_archimedean</title>
<polygon fill="#ffffff" stroke="transparent" points="-4,4 -4,-111 672,-111 672,4 -4,4"/>
<g id="clust1" class="cluster">
<title>cluster_archimedean</title>
<polygon fill="#ffffc3" stroke="#000000" points="8,-8 8,-99 660,-99 660,-8 8,-8"/>
<text text-anchor="middle" x="63" y="-83.8" font-family="Times,serif" font-size="14.00" fill="#000000">archimedean</text>
</g>
<!-- archimedean_hexists4 -->
<g id="node1" class="node">
<title>archimedean_hexists4</title>
<g id="a_node1"><a xlink:href="archimedean.html#hexists4" xlink:title="hexists4">
<ellipse fill="#f070d1" stroke="#000000" cx="594" cy="-42" rx="50.0849" ry="18"/>
<ellipse fill="none" stroke="#000000" cx="594" cy="-42" rx="54.088" ry="22"/>
<ellipse fill="none" stroke="#000000" cx="594" cy="-42" rx="58.0912" ry="26"/>
<text text-anchor="middle" x="594" y="-38.3" font-family="Times,serif" font-size="14.00" fill="#000000">hexists4</text>
</a>
</g>
</g>
<!-- archimedean_char_minus_right -->
<g id="node2" class="node">
<title>archimedean_char_minus_right</title>
<g id="a_node2"><a xlink:href="archimedean.html#char_minus_right" xlink:title="char_minus_right">
<ellipse fill="#f070d1" stroke="#000000" cx="417" cy="-42" rx="92.8882" ry="18"/>
<ellipse fill="none" stroke="#000000" cx="417" cy="-42" rx="96.8858" ry="22"/>
<ellipse fill="none" stroke="#000000" cx="417" cy="-42" rx="100.8835" ry="26"/>
<text text-anchor="middle" x="417" y="-38.3" font-family="Times,serif" font-size="14.00" fill="#000000">char_minus_right</text>
</a>
</g>
</g>
<!-- archimedean_char_minus_left -->
<g id="node3" class="node">
<title>archimedean_char_minus_left</title>
<g id="a_node3"><a xlink:href="archimedean.html#char_minus_left" xlink:title="char_minus_left">
<ellipse fill="#f070d1" stroke="#000000" cx="205" cy="-42" rx="85.2729" ry="18"/>
<ellipse fill="none" stroke="#000000" cx="205" cy="-42" rx="89.279" ry="22"/>
<ellipse fill="none" stroke="#000000" cx="205" cy="-42" rx="93.2851" ry="26"/>
<text text-anchor="middle" x="205" y="-38.3" font-family="Times,serif" font-size="14.00" fill="#000000">char_minus_left</text>
</a>
</g>
</g>
<!-- archimedean_qinc -->
<g id="node4" class="node">
<title>archimedean_qinc</title>
<g id="a_node4"><a xlink:href="archimedean.html#qinc" xlink:title="qinc">
<ellipse fill="#f070d1" stroke="#000000" cx="55" cy="-42" rx="30.5848" ry="18"/>
<ellipse fill="none" stroke="#000000" cx="55" cy="-42" rx="34.5897" ry="22"/>
<ellipse fill="none" stroke="#000000" cx="55" cy="-42" rx="38.5946" ry="26"/>
<text text-anchor="middle" x="55" y="-38.3" font-family="Times,serif" font-size="14.00" fill="#000000">qinc</text>
</a>
</g>
</g>
</g>
</svg>
