<?xml version="1.0" encoding="UTF-8" standalone="no"?>
<!DOCTYPE svg PUBLIC "-//W3C//DTD SVG 1.1//EN"
 "http://www.w3.org/Graphics/SVG/1.1/DTD/svg11.dtd">
<!-- Generated by graphviz version 2.40.1 (20161225.0304)
 -->
<!-- Title: HoTT_Types_Empty Pages: 1 -->
<svg width="850pt" height="429pt"
 viewBox="0.00 0.00 850.00 429.00" xmlns="http://www.w3.org/2000/svg" xmlns:xlink="http://www.w3.org/1999/xlink">
<g id="graph0" class="graph" transform="scale(1 1) rotate(0) translate(4 425)">
<title>HoTT_Types_Empty</title>
<polygon fill="#ffffff" stroke="transparent" points="-4,4 -4,-425 846,-425 846,4 -4,4"/>
<g id="clust1" class="cluster">
<title>cluster_Empty</title>
<polygon fill="#ffffc3" stroke="#000000" points="8,-13.4183 8,-407.5817 834,-407.5817 834,-13.4183 8,-13.4183"/>
<text text-anchor="middle" x="40" y="-392.3817" font-family="Times,serif" font-size="14.00" fill="#000000">Empty</text>
</g>
<!-- Empty_equiv_to_empty -->
<g id="node1" class="node">
<title>Empty_equiv_to_empty</title>
<g id="a_node1"><a xlink:href="Empty.html#equiv_to_empty" xlink:title="equiv_to_empty">
<ellipse fill="#f070d1" stroke="#000000" cx="734" cy="-312.4183" rx="84.4857" ry="18"/>
<ellipse fill="none" stroke="#000000" cx="734" cy="-312.4183" rx="88.4853" ry="22"/>
<ellipse fill="none" stroke="#000000" cx="734" cy="-312.4183" rx="92.485" ry="26"/>
<text text-anchor="middle" x="734" y="-308.7183" font-family="Times,serif" font-size="14.00" fill="#000000">equiv_to_empty</text>
</a>
</g>
</g>
<!-- Empty_all_to_empty_isequiv -->
<g id="node2" class="node">
<title>Empty_all_to_empty_isequiv</title>
<g id="a_node2"><a xlink:href="Empty.html#all_to_empty_isequiv" xlink:title="all_to_empty_isequiv">
<ellipse fill="#f070d1" stroke="#000000" cx="680" cy="-177.4183" rx="108.5808" ry="18"/>
<text text-anchor="middle" x="680" y="-173.7183" font-family="Times,serif" font-size="14.00" fill="#000000">all_to_empty_isequiv</text>
</a>
</g>
</g>
<!-- Empty_equiv_to_empty&#45;&gt;Empty_all_to_empty_isequiv -->
<g id="edge1" class="edge">
<title>Empty_equiv_to_empty&#45;&gt;Empty_all_to_empty_isequiv</title>
<path fill="none" stroke="#000000" d="M723.5883,-286.389C714.2559,-263.0582 700.6068,-228.9354 691.0764,-205.1093"/>
<polygon fill="#000000" stroke="#000000" points="694.2323,-203.5749 687.2687,-195.59 687.733,-206.1746 694.2323,-203.5749"/>
</g>
<!-- Empty_Empty_rec -->
<g id="node6" class="node">
<title>Empty_Empty_rec</title>
<g id="a_node6"><a xlink:href="Empty.html#Empty_rec" xlink:title="Empty_rec">
<ellipse fill="#f070d1" stroke="#000000" cx="530" cy="-57.4183" rx="61.99" ry="18"/>
<text text-anchor="middle" x="530" y="-53.7183" font-family="Times,serif" font-size="14.00" fill="#000000">Empty_rec</text>
</a>
</g>
</g>
<!-- Empty_all_to_empty_isequiv&#45;&gt;Empty_Empty_rec -->
<g id="edge2" class="edge">
<title>Empty_all_to_empty_isequiv&#45;&gt;Empty_Empty_rec</title>
<path fill="none" stroke="#000000" d="M657.867,-159.7119C631.7583,-138.825 588.2585,-104.0252 559.3546,-80.902"/>
<polygon fill="#000000" stroke="#000000" points="561.2477,-77.9343 551.2526,-74.4204 556.8748,-83.4004 561.2477,-77.9343"/>
</g>
<!-- Empty_hprop_Empty -->
<g id="node3" class="node">
<title>Empty_hprop_Empty</title>
<g id="a_node3"><a xlink:href="Empty.html#hprop_Empty" xlink:title="hprop_Empty">
<ellipse fill="#f070d1" stroke="#000000" cx="542" cy="-312.4183" rx="73.3926" ry="18"/>
<ellipse fill="none" stroke="#000000" cx="542" cy="-312.4183" rx="77.3898" ry="22"/>
<ellipse fill="none" stroke="#000000" cx="542" cy="-312.4183" rx="81.387" ry="26"/>
<text text-anchor="middle" x="542" y="-308.7183" font-family="Times,serif" font-size="14.00" fill="#000000">hprop_Empty</text>
</a>
</g>
</g>
<!-- Empty_equiv_empty_rec -->
<g id="node4" class="node">
<title>Empty_equiv_empty_rec</title>
<g id="a_node4"><a xlink:href="Empty.html#equiv_empty_rec" xlink:title="equiv_empty_rec">
<ellipse fill="#f070d1" stroke="#000000" cx="344" cy="-312.4183" rx="90.1971" ry="18"/>
<ellipse fill="none" stroke="#000000" cx="344" cy="-312.4183" rx="94.1906" ry="22"/>
<ellipse fill="none" stroke="#000000" cx="344" cy="-312.4183" rx="98.1842" ry="26"/>
<text text-anchor="middle" x="344" y="-308.7183" font-family="Times,serif" font-size="14.00" fill="#000000">equiv_empty_rec</text>
</a>
</g>
</g>
<!-- Empty_isequiv_empty_rec -->
<g id="node5" class="node">
<title>Empty_isequiv_empty_rec</title>
<g id="a_node5"><a xlink:href="Empty.html#isequiv_empty_rec" xlink:title="isequiv_empty_rec">
<ellipse fill="#f070d1" stroke="#000000" cx="381" cy="-177.4183" rx="98.2828" ry="18"/>
<text text-anchor="middle" x="381" y="-173.7183" font-family="Times,serif" font-size="14.00" fill="#000000">isequiv_empty_rec</text>
</a>
</g>
</g>
<!-- Empty_equiv_empty_rec&#45;&gt;Empty_isequiv_empty_rec -->
<g id="edge3" class="edge">
<title>Empty_equiv_empty_rec&#45;&gt;Empty_isequiv_empty_rec</title>
<path fill="none" stroke="#000000" d="M351.134,-286.389C357.4998,-263.1623 366.7971,-229.2398 373.323,-205.429"/>
<polygon fill="#000000" stroke="#000000" points="376.7518,-206.1595 376.0196,-195.59 370.0008,-204.3091 376.7518,-206.1595"/>
</g>
<!-- Empty_isequiv_empty_rec&#45;&gt;Empty_Empty_rec -->
<g id="edge4" class="edge">
<title>Empty_isequiv_empty_rec&#45;&gt;Empty_Empty_rec</title>
<path fill="none" stroke="#000000" d="M402.9855,-159.7119C428.9201,-138.825 472.1299,-104.0252 500.8411,-80.902"/>
<polygon fill="#000000" stroke="#000000" points="503.2962,-83.4187 508.8891,-74.4204 498.9055,-77.9669 503.2962,-83.4187"/>
</g>
<!-- Empty_contr_from_Empty -->
<g id="node7" class="node">
<title>Empty_contr_from_Empty</title>
<g id="a_node7"><a xlink:href="Empty.html#contr_from_Empty" xlink:title="contr_from_Empty">
<ellipse fill="#f070d1" stroke="#000000" cx="122" cy="-312.4183" rx="98.2721" ry="18"/>
<ellipse fill="none" stroke="#000000" cx="122" cy="-312.4183" rx="102.2774" ry="22"/>
<ellipse fill="none" stroke="#000000" cx="122" cy="-312.4183" rx="106.2828" ry="26"/>
<text text-anchor="middle" x="122" y="-308.7183" font-family="Times,serif" font-size="14.00" fill="#000000">contr_from_Empty</text>
</a>
</g>
</g>
</g>
</svg>
