<?xml version="1.0" encoding="UTF-8" standalone="no"?>
<!DOCTYPE svg PUBLIC "-//W3C//DTD SVG 1.1//EN"
 "http://www.w3.org/Graphics/SVG/1.1/DTD/svg11.dtd">
<!-- Generated by graphviz version 2.40.1 (20161225.0304)
 -->
<!-- Title: HoTT_Spectra_Spectrum Pages: 1 -->
<svg width="1207pt" height="597pt"
 viewBox="0.00 0.00 1207.32 597.00" xmlns="http://www.w3.org/2000/svg" xmlns:xlink="http://www.w3.org/1999/xlink">
<g id="graph0" class="graph" transform="scale(1 1) rotate(0) translate(4 593)">
<title>HoTT_Spectra_Spectrum</title>
<polygon fill="#ffffff" stroke="transparent" points="-4,4 -4,-593 1203.3207,-593 1203.3207,4 -4,4"/>
<g id="clust1" class="cluster">
<title>cluster_Spectrum</title>
<polygon fill="#ffffc3" stroke="#000000" points="29.3207,-10.6366 29.3207,-578.3634 1191.3207,-578.3634 1191.3207,-10.6366 29.3207,-10.6366"/>
<text text-anchor="middle" x="72.8207" y="-563.1634" font-family="Times,serif" font-size="14.00" fill="#000000">Spectrum</text>
</g>
<!-- Spectrum_strunc -->
<g id="node1" class="node">
<title>Spectrum_strunc</title>
<g id="a_node1"><a xlink:href="Spectrum.html#strunc" xlink:title="strunc">
<ellipse fill="#f070d1" stroke="#000000" cx="158.3207" cy="-502.6366" rx="40.9015" ry="18"/>
<ellipse fill="none" stroke="#000000" cx="158.3207" cy="-502.6366" rx="44.8972" ry="22"/>
<ellipse fill="none" stroke="#000000" cx="158.3207" cy="-502.6366" rx="48.8928" ry="26"/>
<text text-anchor="middle" x="158.3207" y="-498.9366" font-family="Times,serif" font-size="14.00" fill="#000000">strunc</text>
</a>
</g>
</g>
<!-- Spectrum_Build_Spectrum -->
<g id="node8" class="node">
<title>Spectrum_Build_Spectrum</title>
<g id="a_node8"><a xlink:href="Spectrum.html#Build_Spectrum" xlink:title="Build_Spectrum">
<ellipse fill="#7faaff" stroke="#000000" cx="602.3207" cy="-268.6366" rx="85.5853" ry="18"/>
<text text-anchor="middle" x="602.3207" y="-264.9366" font-family="Times,serif" font-size="14.00" fill="#000000">Build_Spectrum</text>
</a>
</g>
</g>
<!-- Spectrum_strunc&#45;&gt;Spectrum_Build_Spectrum -->
<g id="edge1" class="edge">
<title>Spectrum_strunc&#45;&gt;Spectrum_Build_Spectrum</title>
<path fill="none" stroke="#000000" d="M166.9778,-476.8625C180.6737,-436.2331 206.0307,-361.6623 208.3207,-359.6366 310.1791,-269.5317 375.2453,-327.0419 507.3207,-294.6366 518.367,-291.9263 530.0865,-288.8692 541.3836,-285.8284"/>
<polygon fill="#000000" stroke="#000000" points="542.4418,-289.1679 551.1751,-283.1696 540.6073,-282.4125 542.4418,-289.1679"/>
</g>
<!-- Spectrum_Spectrum -->
<g id="node9" class="node">
<title>Spectrum_Spectrum</title>
<g id="a_node9"><a xlink:href="Spectrum.html#Spectrum" xlink:title="Spectrum">
<ellipse fill="#e2cdfa" stroke="#000000" cx="872.3207" cy="-268.6366" rx="56.59" ry="18"/>
<text text-anchor="middle" x="872.3207" y="-264.9366" font-family="Times,serif" font-size="14.00" fill="#000000">Spectrum</text>
</a>
</g>
</g>
<!-- Spectrum_strunc&#45;&gt;Spectrum_Spectrum -->
<g id="edge2" class="edge">
<title>Spectrum_strunc&#45;&gt;Spectrum_Spectrum</title>
<path fill="none" stroke="#000000" d="M207.0269,-499.1567C407.072,-484.7534 1155.7914,-429.7157 1172.3207,-411.6366 1246.4321,-330.5763 1044.4479,-290.9987 935.9944,-276.032"/>
<polygon fill="#000000" stroke="#000000" points="936.1809,-272.5256 925.8033,-274.6599 935.2468,-279.463 936.1809,-272.5256"/>
</g>
<!-- Spectrum_equiv_glue -->
<g id="node10" class="node">
<title>Spectrum_equiv_glue</title>
<g id="a_node10"><a xlink:href="Spectrum.html#equiv_glue" xlink:title="equiv_glue">
<ellipse fill="#f070d1" stroke="#000000" cx="118.3207" cy="-385.6366" rx="61.1893" ry="18"/>
<text text-anchor="middle" x="118.3207" y="-381.9366" font-family="Times,serif" font-size="14.00" fill="#000000">equiv_glue</text>
</a>
</g>
</g>
<!-- Spectrum_strunc&#45;&gt;Spectrum_equiv_glue -->
<g id="edge3" class="edge">
<title>Spectrum_strunc&#45;&gt;Spectrum_equiv_glue</title>
<path fill="none" stroke="#000000" d="M149.5425,-476.9604C143.1096,-458.144 134.3864,-432.6288 127.7957,-413.351"/>
<polygon fill="#000000" stroke="#000000" points="131.0214,-411.9665 124.4745,-403.6364 124.3977,-414.231 131.0214,-411.9665"/>
</g>
<!-- Spectrum_Build_Prespectrum -->
<g id="node19" class="node">
<title>Spectrum_Build_Prespectrum</title>
<g id="a_node19"><a xlink:href="Spectrum.html#Build_Prespectrum" xlink:title="Build_Prespectrum">
<ellipse fill="#7faaff" stroke="#000000" cx="271.3207" cy="-45.6366" rx="100.9827" ry="18"/>
<text text-anchor="middle" x="271.3207" y="-41.9366" font-family="Times,serif" font-size="14.00" fill="#000000">Build_Prespectrum</text>
</a>
</g>
</g>
<!-- Spectrum_strunc&#45;&gt;Spectrum_Build_Prespectrum -->
<g id="edge4" class="edge">
<title>Spectrum_strunc&#45;&gt;Spectrum_Build_Prespectrum</title>
<path fill="none" stroke="#000000" d="M122.8437,-484.4882C96.88,-469.03 63.6225,-444.1546 48.3207,-411.6366 -5.8005,-296.623 -24.8277,-229.5911 48.3207,-125.6366 66.165,-100.2773 140.3462,-77.0387 198.3123,-62.2196"/>
<polygon fill="#000000" stroke="#000000" points="199.3517,-65.5673 208.1957,-59.7335 197.644,-58.7788 199.3517,-65.5673"/>
</g>
<!-- Spectrum_to_is_spectrum -->
<g id="node2" class="node">
<title>Spectrum_to_is_spectrum</title>
<g id="a_node2"><a xlink:href="Spectrum.html#to_is_spectrum" xlink:title="to_is_spectrum">
<ellipse fill="#f070d1" stroke="#000000" cx="1073.3207" cy="-385.6366" rx="81.7951" ry="18"/>
<ellipse fill="none" stroke="#000000" cx="1073.3207" cy="-385.6366" rx="85.7904" ry="22"/>
<ellipse fill="none" stroke="#000000" cx="1073.3207" cy="-385.6366" rx="89.7856" ry="26"/>
<text text-anchor="middle" x="1073.3207" y="-381.9366" font-family="Times,serif" font-size="14.00" fill="#000000">to_is_spectrum</text>
</a>
</g>
</g>
<!-- Spectrum_to_is_spectrum&#45;&gt;Spectrum_Spectrum -->
<g id="edge5" class="edge">
<title>Spectrum_to_is_spectrum&#45;&gt;Spectrum_Spectrum</title>
<path fill="none" stroke="#000000" d="M1033.1285,-362.2411C996.7409,-341.0602 943.6155,-310.1365 908.5219,-289.7089"/>
<polygon fill="#000000" stroke="#000000" points="909.9738,-286.5043 899.5706,-284.4984 906.4523,-292.554 909.9738,-286.5043"/>
</g>
<!-- Spectrum_to_prespectrum -->
<g id="node3" class="node">
<title>Spectrum_to_prespectrum</title>
<g id="a_node3"><a xlink:href="Spectrum.html#to_prespectrum" xlink:title="to_prespectrum">
<ellipse fill="#f070d1" stroke="#000000" cx="872.3207" cy="-385.6366" rx="85.2729" ry="18"/>
<ellipse fill="none" stroke="#000000" cx="872.3207" cy="-385.6366" rx="89.279" ry="22"/>
<ellipse fill="none" stroke="#000000" cx="872.3207" cy="-385.6366" rx="93.2851" ry="26"/>
<text text-anchor="middle" x="872.3207" y="-381.9366" font-family="Times,serif" font-size="14.00" fill="#000000">to_prespectrum</text>
</a>
</g>
</g>
<!-- Spectrum_to_prespectrum&#45;&gt;Spectrum_Spectrum -->
<g id="edge6" class="edge">
<title>Spectrum_to_prespectrum&#45;&gt;Spectrum_Spectrum</title>
<path fill="none" stroke="#000000" d="M872.3207,-359.3795C872.3207,-340.8201 872.3207,-315.9641 872.3207,-296.9594"/>
<polygon fill="#000000" stroke="#000000" points="875.8208,-296.8094 872.3207,-286.8095 868.8208,-296.8095 875.8208,-296.8094"/>
</g>
<!-- Spectrum_Spectrum_sind -->
<g id="node4" class="node">
<title>Spectrum_Spectrum_sind</title>
<g id="a_node4"><a xlink:href="Spectrum.html#Spectrum_sind" xlink:title="Spectrum_sind">
<ellipse fill="#f070d1" stroke="#000000" cx="492.3207" cy="-385.6366" rx="81.4644" ry="18"/>
<ellipse fill="none" stroke="#000000" cx="492.3207" cy="-385.6366" rx="85.4753" ry="22"/>
<ellipse fill="none" stroke="#000000" cx="492.3207" cy="-385.6366" rx="89.4862" ry="26"/>
<text text-anchor="middle" x="492.3207" y="-381.9366" font-family="Times,serif" font-size="14.00" fill="#000000">Spectrum_sind</text>
</a>
</g>
</g>
<!-- Spectrum_Spectrum_sind&#45;&gt;Spectrum_Build_Spectrum -->
<g id="edge7" class="edge">
<title>Spectrum_Spectrum_sind&#45;&gt;Spectrum_Build_Spectrum</title>
<path fill="none" stroke="#000000" d="M515.9185,-360.5371C534.4209,-340.8572 560.0538,-313.5932 578.5902,-293.8772"/>
<polygon fill="#000000" stroke="#000000" points="581.2638,-296.1431 585.5636,-286.46 576.1638,-291.3483 581.2638,-296.1431"/>
</g>
<!-- Spectrum_Spectrum_sind&#45;&gt;Spectrum_Spectrum -->
<g id="edge8" class="edge">
<title>Spectrum_Spectrum_sind&#45;&gt;Spectrum_Spectrum</title>
<path fill="none" stroke="#000000" d="M553.7966,-366.7085C628.2743,-343.7772 752.352,-305.5743 821.6165,-284.2481"/>
<polygon fill="#000000" stroke="#000000" points="822.8984,-287.5157 831.4257,-281.2279 820.8385,-280.8256 822.8984,-287.5157"/>
</g>
<!-- Spectrum_Spectrum_rec -->
<g id="node5" class="node">
<title>Spectrum_Spectrum_rec</title>
<g id="a_node5"><a xlink:href="Spectrum.html#Spectrum_rec" xlink:title="Spectrum_rec">
<ellipse fill="#f070d1" stroke="#000000" cx="680.3207" cy="-502.6366" rx="76.8685" ry="18"/>
<ellipse fill="none" stroke="#000000" cx="680.3207" cy="-502.6366" rx="80.8777" ry="22"/>
<ellipse fill="none" stroke="#000000" cx="680.3207" cy="-502.6366" rx="84.8868" ry="26"/>
<text text-anchor="middle" x="680.3207" y="-498.9366" font-family="Times,serif" font-size="14.00" fill="#000000">Spectrum_rec</text>
</a>
</g>
</g>
<!-- Spectrum_Spectrum_rect -->
<g id="node7" class="node">
<title>Spectrum_Spectrum_rect</title>
<g id="a_node7"><a xlink:href="Spectrum.html#Spectrum_rect" xlink:title="Spectrum_rect">
<ellipse fill="#f070d1" stroke="#000000" cx="680.3207" cy="-385.6366" rx="80.6858" ry="18"/>
<text text-anchor="middle" x="680.3207" y="-381.9366" font-family="Times,serif" font-size="14.00" fill="#000000">Spectrum_rect</text>
</a>
</g>
</g>
<!-- Spectrum_Spectrum_rec&#45;&gt;Spectrum_Spectrum_rect -->
<g id="edge9" class="edge">
<title>Spectrum_Spectrum_rec&#45;&gt;Spectrum_Spectrum_rect</title>
<path fill="none" stroke="#000000" d="M680.3207,-476.3795C680.3207,-457.8201 680.3207,-432.9641 680.3207,-413.9594"/>
<polygon fill="#000000" stroke="#000000" points="683.8208,-413.8094 680.3207,-403.8095 676.8208,-413.8095 683.8208,-413.8094"/>
</g>
<!-- Spectrum_Spectrum_ind -->
<g id="node6" class="node">
<title>Spectrum_Spectrum_ind</title>
<g id="a_node6"><a xlink:href="Spectrum.html#Spectrum_ind" xlink:title="Spectrum_ind">
<ellipse fill="#7fffd4" stroke="#000000" cx="301.3207" cy="-385.6366" rx="76.0824" ry="18"/>
<ellipse fill="none" stroke="#000000" cx="301.3207" cy="-385.6366" rx="80.0845" ry="22"/>
<ellipse fill="none" stroke="#000000" cx="301.3207" cy="-385.6366" rx="84.0865" ry="26"/>
<text text-anchor="middle" x="301.3207" y="-381.9366" font-family="Times,serif" font-size="14.00" fill="#000000">Spectrum_ind</text>
</a>
</g>
</g>
<!-- Spectrum_Spectrum_ind&#45;&gt;Spectrum_Build_Spectrum -->
<g id="edge10" class="edge">
<title>Spectrum_Spectrum_ind&#45;&gt;Spectrum_Build_Spectrum</title>
<path fill="none" stroke="#000000" d="M353.7509,-365.2567C409.3639,-343.6397 496.6211,-309.7224 551.5821,-288.3589"/>
<polygon fill="#000000" stroke="#000000" points="553.0662,-291.5372 561.1187,-284.652 550.53,-285.0128 553.0662,-291.5372"/>
</g>
<!-- Spectrum_Spectrum_ind&#45;&gt;Spectrum_Spectrum -->
<g id="edge11" class="edge">
<title>Spectrum_Spectrum_ind&#45;&gt;Spectrum_Spectrum</title>
<path fill="none" stroke="#000000" d="M362.412,-367.7655C373.0114,-364.892 383.9562,-362.0674 394.3207,-359.6366 543.3543,-324.6836 720.8999,-293.6184 811.9222,-278.4499"/>
<polygon fill="#000000" stroke="#000000" points="812.4964,-281.9026 821.788,-276.8117 811.3497,-274.9972 812.4964,-281.9026"/>
</g>
<!-- Spectrum_Spectrum_rect&#45;&gt;Spectrum_Build_Spectrum -->
<g id="edge12" class="edge">
<title>Spectrum_Spectrum_rect&#45;&gt;Spectrum_Build_Spectrum</title>
<path fill="none" stroke="#000000" d="M668.3042,-367.6117C655.3839,-348.2314 634.7139,-317.2263 619.9522,-295.0838"/>
<polygon fill="#000000" stroke="#000000" points="622.6822,-292.8689 614.2229,-286.4899 616.8578,-296.7519 622.6822,-292.8689"/>
</g>
<!-- Spectrum_Spectrum_rect&#45;&gt;Spectrum_Spectrum -->
<g id="edge13" class="edge">
<title>Spectrum_Spectrum_rect&#45;&gt;Spectrum_Spectrum</title>
<path fill="none" stroke="#000000" d="M708.2392,-368.6238C742.2765,-347.8822 799.8391,-312.8051 836.9462,-290.1929"/>
<polygon fill="#000000" stroke="#000000" points="839.1946,-292.9215 845.9127,-284.7289 835.552,-286.9439 839.1946,-292.9215"/>
</g>
<!-- Spectrum_IsSpectrum -->
<g id="node12" class="node">
<title>Spectrum_IsSpectrum</title>
<g id="a_node12"><a xlink:href="Spectrum.html#IsSpectrum" xlink:title="IsSpectrum">
<ellipse fill="#f070d1" stroke="#000000" cx="984.3207" cy="-151.6366" rx="65.7887" ry="18"/>
<text text-anchor="middle" x="984.3207" y="-147.9366" font-family="Times,serif" font-size="14.00" fill="#000000">IsSpectrum</text>
</a>
</g>
</g>
<!-- Spectrum_Build_Spectrum&#45;&gt;Spectrum_IsSpectrum -->
<g id="edge14" class="edge">
<title>Spectrum_Build_Spectrum&#45;&gt;Spectrum_IsSpectrum</title>
<path fill="none" stroke="#000000" d="M654.0648,-254.2134C715.4612,-236.9004 820.7896,-206.5707 910.3207,-177.6366 918.3299,-175.0482 926.7857,-172.194 935.0053,-169.3531"/>
<polygon fill="#000000" stroke="#000000" points="936.2148,-172.6382 944.5052,-166.0412 933.9104,-166.0283 936.2148,-172.6382"/>
</g>
<!-- Spectrum_Spectrum&#45;&gt;Spectrum_IsSpectrum -->
<g id="edge15" class="edge">
<title>Spectrum_Spectrum&#45;&gt;Spectrum_IsSpectrum</title>
<path fill="none" stroke="#000000" d="M888.8467,-251.3728C907.6799,-231.6988 938.6325,-199.3644 960.1697,-176.8657"/>
<polygon fill="#000000" stroke="#000000" points="962.973,-178.9987 967.3598,-169.3547 957.9164,-174.1582 962.973,-178.9987"/>
</g>
<!-- Spectrum_is_equiv_glue -->
<g id="node11" class="node">
<title>Spectrum_is_equiv_glue</title>
<g id="a_node11"><a xlink:href="Spectrum.html#is_equiv_glue" xlink:title="is_equiv_glue">
<ellipse fill="#f070d1" stroke="#000000" cx="425.3207" cy="-268.6366" rx="73.387" ry="18"/>
<text text-anchor="middle" x="425.3207" y="-264.9366" font-family="Times,serif" font-size="14.00" fill="#000000">is_equiv_glue</text>
</a>
</g>
</g>
<!-- Spectrum_equiv_glue&#45;&gt;Spectrum_is_equiv_glue -->
<g id="edge16" class="edge">
<title>Spectrum_equiv_glue&#45;&gt;Spectrum_is_equiv_glue</title>
<path fill="none" stroke="#000000" d="M155.9649,-371.2901C211.2865,-350.2066 314.6075,-310.8302 375.9509,-287.4518"/>
<polygon fill="#000000" stroke="#000000" points="377.324,-290.6741 385.422,-283.8423 374.8311,-284.133 377.324,-290.6741"/>
</g>
<!-- Spectrum_is_equiv_glue&#45;&gt;Spectrum_IsSpectrum -->
<g id="edge17" class="edge">
<title>Spectrum_is_equiv_glue&#45;&gt;Spectrum_IsSpectrum</title>
<path fill="none" stroke="#000000" d="M467.9705,-253.805C480.5387,-249.7913 494.3896,-245.7118 507.3207,-242.6366 683.824,-200.6612 734.4854,-222.3279 910.3207,-177.6366 918.9507,-175.4431 928,-172.6739 936.6915,-169.766"/>
<polygon fill="#000000" stroke="#000000" points="937.9992,-173.0174 946.311,-166.4474 935.7162,-166.4001 937.9992,-173.0174"/>
</g>
<!-- Spectrum_Prespectrum -->
<g id="node20" class="node">
<title>Spectrum_Prespectrum</title>
<g id="a_node20"><a xlink:href="Spectrum.html#Prespectrum" xlink:title="Prespectrum">
<ellipse fill="#e2cdfa" stroke="#000000" cx="675.3207" cy="-45.6366" rx="71.4873" ry="18"/>
<text text-anchor="middle" x="675.3207" y="-41.9366" font-family="Times,serif" font-size="14.00" fill="#000000">Prespectrum</text>
</a>
</g>
</g>
<!-- Spectrum_IsSpectrum&#45;&gt;Spectrum_Prespectrum -->
<g id="edge18" class="edge">
<title>Spectrum_IsSpectrum&#45;&gt;Spectrum_Prespectrum</title>
<path fill="none" stroke="#000000" d="M944.0196,-137.3966C933.0923,-133.5574 921.2594,-129.42 910.3207,-125.6366 847.6377,-103.9558 775.392,-79.4307 727.7344,-63.3164"/>
<polygon fill="#000000" stroke="#000000" points="728.84,-59.9956 718.2458,-60.1093 726.5986,-66.6271 728.84,-59.9956"/>
</g>
<!-- Spectrum_glue -->
<g id="node13" class="node">
<title>Spectrum_glue</title>
<g id="a_node13"><a xlink:href="Spectrum.html#glue" xlink:title="glue">
<ellipse fill="#f070d1" stroke="#000000" cx="862.3207" cy="-151.6366" rx="30.5848" ry="18"/>
<ellipse fill="none" stroke="#000000" cx="862.3207" cy="-151.6366" rx="34.5897" ry="22"/>
<ellipse fill="none" stroke="#000000" cx="862.3207" cy="-151.6366" rx="38.5946" ry="26"/>
<text text-anchor="middle" x="862.3207" y="-147.9366" font-family="Times,serif" font-size="14.00" fill="#000000">glue</text>
</a>
</g>
</g>
<!-- Spectrum_glue&#45;&gt;Spectrum_Prespectrum -->
<g id="edge19" class="edge">
<title>Spectrum_glue&#45;&gt;Spectrum_Prespectrum</title>
<path fill="none" stroke="#000000" d="M832.69,-134.8406C800.4525,-116.5669 748.8112,-87.2943 713.5423,-67.3023"/>
<polygon fill="#000000" stroke="#000000" points="714.9305,-64.066 704.505,-62.1795 711.4786,-70.1557 714.9305,-64.066"/>
</g>
<!-- Spectrum_deloop -->
<g id="node14" class="node">
<title>Spectrum_deloop</title>
<g id="a_node14"><a xlink:href="Spectrum.html#deloop" xlink:title="deloop">
<ellipse fill="#f070d1" stroke="#000000" cx="756.3207" cy="-151.6366" rx="41.6772" ry="18"/>
<ellipse fill="none" stroke="#000000" cx="756.3207" cy="-151.6366" rx="45.685" ry="22"/>
<ellipse fill="none" stroke="#000000" cx="756.3207" cy="-151.6366" rx="49.6928" ry="26"/>
<text text-anchor="middle" x="756.3207" y="-147.9366" font-family="Times,serif" font-size="14.00" fill="#000000">deloop</text>
</a>
</g>
</g>
<!-- Spectrum_deloop&#45;&gt;Spectrum_Prespectrum -->
<g id="edge20" class="edge">
<title>Spectrum_deloop&#45;&gt;Spectrum_Prespectrum</title>
<path fill="none" stroke="#000000" d="M737.7377,-127.318C725.0896,-110.7662 708.3604,-88.8737 695.4052,-71.92"/>
<polygon fill="#000000" stroke="#000000" points="697.8689,-69.3796 689.0161,-63.559 692.3069,-73.6298 697.8689,-69.3796"/>
</g>
<!-- Spectrum_Prespectrum_sind -->
<g id="node15" class="node">
<title>Spectrum_Prespectrum_sind</title>
<g id="a_node15"><a xlink:href="Spectrum.html#Prespectrum_sind" xlink:title="Prespectrum_sind">
<ellipse fill="#f070d1" stroke="#000000" cx="161.3207" cy="-151.6366" rx="95.5799" ry="18"/>
<ellipse fill="none" stroke="#000000" cx="161.3207" cy="-151.6366" rx="99.5815" ry="22"/>
<ellipse fill="none" stroke="#000000" cx="161.3207" cy="-151.6366" rx="103.5831" ry="26"/>
<text text-anchor="middle" x="161.3207" y="-147.9366" font-family="Times,serif" font-size="14.00" fill="#000000">Prespectrum_sind</text>
</a>
</g>
</g>
<!-- Spectrum_Prespectrum_sind&#45;&gt;Spectrum_Build_Prespectrum -->
<g id="edge21" class="edge">
<title>Spectrum_Prespectrum_sind&#45;&gt;Spectrum_Build_Prespectrum</title>
<path fill="none" stroke="#000000" d="M187.6685,-126.2469C205.0858,-109.463 227.8218,-87.5537 245.1939,-70.8133"/>
<polygon fill="#000000" stroke="#000000" points="247.9877,-72.9817 252.7599,-63.5225 243.1304,-67.9412 247.9877,-72.9817"/>
</g>
<!-- Spectrum_Prespectrum_sind&#45;&gt;Spectrum_Prespectrum -->
<g id="edge22" class="edge">
<title>Spectrum_Prespectrum_sind&#45;&gt;Spectrum_Prespectrum</title>
<path fill="none" stroke="#000000" d="M237.2324,-133.8496C249.6144,-131.0406 262.3147,-128.2148 274.3207,-125.6366 391.4677,-100.4796 528.4505,-73.7204 608.1922,-58.4069"/>
<polygon fill="#000000" stroke="#000000" points="608.942,-61.8269 618.1036,-56.5058 607.6233,-54.9523 608.942,-61.8269"/>
</g>
<!-- Spectrum_Prespectrum_rec -->
<g id="node16" class="node">
<title>Spectrum_Prespectrum_rec</title>
<g id="a_node16"><a xlink:href="Spectrum.html#Prespectrum_rec" xlink:title="Prespectrum_rec">
<ellipse fill="#f070d1" stroke="#000000" cx="235.3207" cy="-268.6366" rx="90.9845" ry="18"/>
<ellipse fill="none" stroke="#000000" cx="235.3207" cy="-268.6366" rx="94.9842" ry="22"/>
<ellipse fill="none" stroke="#000000" cx="235.3207" cy="-268.6366" rx="98.9839" ry="26"/>
<text text-anchor="middle" x="235.3207" y="-264.9366" font-family="Times,serif" font-size="14.00" fill="#000000">Prespectrum_rec</text>
</a>
</g>
</g>
<!-- Spectrum_Prespectrum_rect -->
<g id="node18" class="node">
<title>Spectrum_Prespectrum_rect</title>
<g id="a_node18"><a xlink:href="Spectrum.html#Prespectrum_rect" xlink:title="Prespectrum_rect">
<ellipse fill="#f070d1" stroke="#000000" cx="594.3207" cy="-151.6366" rx="94.7833" ry="18"/>
<text text-anchor="middle" x="594.3207" y="-147.9366" font-family="Times,serif" font-size="14.00" fill="#000000">Prespectrum_rect</text>
</a>
</g>
</g>
<!-- Spectrum_Prespectrum_rec&#45;&gt;Spectrum_Prespectrum_rect -->
<g id="edge23" class="edge">
<title>Spectrum_Prespectrum_rec&#45;&gt;Spectrum_Prespectrum_rect</title>
<path fill="none" stroke="#000000" d="M297.4439,-248.3903C364.731,-226.4611 471.2039,-191.761 536.6847,-170.4205"/>
<polygon fill="#000000" stroke="#000000" points="538.0108,-173.6695 546.4341,-167.2431 535.8417,-167.0141 538.0108,-173.6695"/>
</g>
<!-- Spectrum_Prespectrum_ind -->
<g id="node17" class="node">
<title>Spectrum_Prespectrum_ind</title>
<g id="a_node17"><a xlink:href="Spectrum.html#Prespectrum_ind" xlink:title="Prespectrum_ind">
<ellipse fill="#7fffd4" stroke="#000000" cx="382.3207" cy="-151.6366" rx="90.9845" ry="18"/>
<ellipse fill="none" stroke="#000000" cx="382.3207" cy="-151.6366" rx="94.9842" ry="22"/>
<ellipse fill="none" stroke="#000000" cx="382.3207" cy="-151.6366" rx="98.9839" ry="26"/>
<text text-anchor="middle" x="382.3207" y="-147.9366" font-family="Times,serif" font-size="14.00" fill="#000000">Prespectrum_ind</text>
</a>
</g>
</g>
<!-- Spectrum_Prespectrum_ind&#45;&gt;Spectrum_Build_Prespectrum -->
<g id="edge24" class="edge">
<title>Spectrum_Prespectrum_ind&#45;&gt;Spectrum_Build_Prespectrum</title>
<path fill="none" stroke="#000000" d="M356.0153,-126.516C338.4472,-109.7393 315.4232,-87.7524 297.816,-70.9384"/>
<polygon fill="#000000" stroke="#000000" points="299.7957,-67.9894 290.1464,-63.6143 294.9613,-73.0518 299.7957,-67.9894"/>
</g>
<!-- Spectrum_Prespectrum_ind&#45;&gt;Spectrum_Prespectrum -->
<g id="edge25" class="edge">
<title>Spectrum_Prespectrum_ind&#45;&gt;Spectrum_Prespectrum</title>
<path fill="none" stroke="#000000" d="M440.5584,-130.5676C494.3357,-111.1124 573.4105,-82.5051 624.6393,-63.9718"/>
<polygon fill="#000000" stroke="#000000" points="625.9702,-67.2124 634.1831,-60.5191 623.5888,-60.6299 625.9702,-67.2124"/>
</g>
<!-- Spectrum_Prespectrum_rect&#45;&gt;Spectrum_Build_Prespectrum -->
<g id="edge26" class="edge">
<title>Spectrum_Prespectrum_rect&#45;&gt;Spectrum_Build_Prespectrum</title>
<path fill="none" stroke="#000000" d="M546.6609,-135.9959C488.8602,-117.0272 391.4761,-85.0684 329.3594,-64.6833"/>
<polygon fill="#000000" stroke="#000000" points="330.2972,-61.3075 319.7044,-61.5148 328.1144,-67.9585 330.2972,-61.3075"/>
</g>
<!-- Spectrum_Prespectrum_rect&#45;&gt;Spectrum_Prespectrum -->
<g id="edge27" class="edge">
<title>Spectrum_Prespectrum_rect&#45;&gt;Spectrum_Prespectrum</title>
<path fill="none" stroke="#000000" d="M608.0613,-133.6551C621.1147,-116.5728 640.8812,-90.7056 655.6122,-71.428"/>
<polygon fill="#000000" stroke="#000000" points="658.4923,-73.4233 661.7831,-63.3525 652.9303,-69.1731 658.4923,-73.4233"/>
</g>
</g>
</svg>
