<?xml version="1.0" encoding="UTF-8" standalone="no"?>
<!DOCTYPE svg PUBLIC "-//W3C//DTD SVG 1.1//EN"
 "http://www.w3.org/Graphics/SVG/1.1/DTD/svg11.dtd">
<!-- Generated by graphviz version 2.40.1 (20161225.0304)
 -->
<!-- Title: HoTT_Spaces_Torus_Torus Pages: 1 -->
<svg width="1226pt" height="617pt"
 viewBox="0.00 0.00 1226.00 617.00" xmlns="http://www.w3.org/2000/svg" xmlns:xlink="http://www.w3.org/1999/xlink">
<g id="graph0" class="graph" transform="scale(1 1) rotate(0) translate(4 613)">
<title>HoTT_Spaces_Torus_Torus</title>
<polygon fill="#ffffff" stroke="transparent" points="-4,4 -4,-613 1222,-613 1222,4 -4,4"/>
<g id="clust1" class="cluster">
<title>cluster_Torus</title>
<polygon fill="#ffffc3" stroke="#000000" points="8,-8.3711 8,-600.6289 1210,-600.6289 1210,-8.3711 8,-8.3711"/>
<text text-anchor="middle" x="36.5" y="-585.4289" font-family="Times,serif" font-size="14.00" fill="#000000">Torus</text>
</g>
<g id="clust2" class="cluster">
<title>cluster_Torus_Torus</title>
<polygon fill="#ffffa3" stroke="#000000" points="512,-16.7423 512,-505.4072 1012,-505.4072 1012,-16.7423 512,-16.7423"/>
<text text-anchor="middle" x="540.5" y="-490.2072" font-family="Times,serif" font-size="14.00" fill="#000000">Torus</text>
</g>
<!-- Torus_Torus_Torus_ind_beta_surf -->
<g id="node1" class="node">
<title>Torus_Torus_Torus_ind_beta_surf</title>
<g id="a_node1"><a xlink:href="Torus.html#Torus.Torus_ind_beta_surf" xlink:title="Torus_ind_beta_surf">
<ellipse fill="#facdef" stroke="#000000" cx="761" cy="-445.3711" rx="105.0965" ry="18"/>
<ellipse fill="none" stroke="#000000" cx="761" cy="-445.3711" rx="109.0891" ry="22"/>
<ellipse fill="none" stroke="#000000" cx="761" cy="-445.3711" rx="113.0817" ry="26"/>
<text text-anchor="middle" x="761" y="-441.6711" font-family="Times,serif" font-size="14.00" fill="#000000">Torus_ind_beta_surf</text>
</a>
</g>
</g>
<!-- Torus_Torus_Torus_ind_beta_loop_b -->
<g id="node2" class="node">
<title>Torus_Torus_Torus_ind_beta_loop_b</title>
<g id="a_node2"><a xlink:href="Torus.html#Torus.Torus_ind_beta_loop_b" xlink:title="Torus_ind_beta_loop_b">
<ellipse fill="#facdef" stroke="#000000" cx="887" cy="-362.3711" rx="116.9792" ry="18"/>
<text text-anchor="middle" x="887" y="-358.6711" font-family="Times,serif" font-size="14.00" fill="#000000">Torus_ind_beta_loop_b</text>
</a>
</g>
</g>
<!-- Torus_Torus_Torus_ind_beta_surf&#45;&gt;Torus_Torus_Torus_ind_beta_loop_b -->
<g id="edge1" class="edge">
<title>Torus_Torus_Torus_ind_beta_surf&#45;&gt;Torus_Torus_Torus_ind_beta_loop_b</title>
<path fill="none" stroke="#000000" d="M798.463,-420.6931C815.389,-409.5434 835.2754,-396.4437 851.9087,-385.4868"/>
<polygon fill="#000000" stroke="#000000" points="853.8518,-388.398 860.2774,-379.9741 850.0011,-382.5523 853.8518,-388.398"/>
</g>
<!-- Torus_Torus_Torus_ind_beta_loop_a -->
<g id="node3" class="node">
<title>Torus_Torus_Torus_ind_beta_loop_a</title>
<g id="a_node3"><a xlink:href="Torus.html#Torus.Torus_ind_beta_loop_a" xlink:title="Torus_ind_beta_loop_a">
<ellipse fill="#facdef" stroke="#000000" cx="636" cy="-362.3711" rx="116.1796" ry="18"/>
<text text-anchor="middle" x="636" y="-358.6711" font-family="Times,serif" font-size="14.00" fill="#000000">Torus_ind_beta_loop_a</text>
</a>
</g>
</g>
<!-- Torus_Torus_Torus_ind_beta_surf&#45;&gt;Torus_Torus_Torus_ind_beta_loop_a -->
<g id="edge2" class="edge">
<title>Torus_Torus_Torus_ind_beta_surf&#45;&gt;Torus_Torus_Torus_ind_beta_loop_a</title>
<path fill="none" stroke="#000000" d="M723.8343,-420.6931C707.1967,-409.6457 687.6758,-396.6839 671.2678,-385.7889"/>
<polygon fill="#000000" stroke="#000000" points="672.7773,-382.59 662.5105,-379.9741 668.9052,-388.4215 672.7773,-382.59"/>
</g>
<!-- Torus_Torus_Torus_ind -->
<g id="node4" class="node">
<title>Torus_Torus_Torus_ind</title>
<g id="a_node4"><a xlink:href="Torus.html#Torus.Torus_ind" xlink:title="Torus_ind">
<ellipse fill="#f070d1" stroke="#000000" cx="749" cy="-286.3711" rx="56.59" ry="18"/>
<text text-anchor="middle" x="749" y="-282.6711" font-family="Times,serif" font-size="14.00" fill="#000000">Torus_ind</text>
</a>
</g>
</g>
<!-- Torus_Torus_Torus_ind_beta_loop_b&#45;&gt;Torus_Torus_Torus_ind -->
<g id="edge3" class="edge">
<title>Torus_Torus_Torus_ind_beta_loop_b&#45;&gt;Torus_Torus_Torus_ind</title>
<path fill="none" stroke="#000000" d="M855.34,-344.9352C834.8694,-333.6615 808.1241,-318.9322 786.5772,-307.0658"/>
<polygon fill="#000000" stroke="#000000" points="788.1424,-303.9322 777.6945,-302.1739 784.7656,-310.0638 788.1424,-303.9322"/>
</g>
<!-- Torus_Torus_Torus_ind_beta_loop_a&#45;&gt;Torus_Torus_Torus_ind -->
<g id="edge4" class="edge">
<title>Torus_Torus_Torus_ind_beta_loop_a&#45;&gt;Torus_Torus_Torus_ind</title>
<path fill="none" stroke="#000000" d="M662.2085,-344.7442C678.1983,-333.99 698.7836,-320.145 715.8931,-308.6377"/>
<polygon fill="#000000" stroke="#000000" points="718.1361,-311.3471 724.4807,-302.862 714.2295,-305.5386 718.1361,-311.3471"/>
</g>
<!-- Torus_Torus_surf -->
<g id="node5" class="node">
<title>Torus_Torus_surf</title>
<g id="a_node5"><a xlink:href="Torus.html#Torus.surf" xlink:title="surf">
<ellipse fill="#facdef" stroke="#000000" cx="863" cy="-211.3711" rx="29.4969" ry="18"/>
<text text-anchor="middle" x="863" y="-207.6711" font-family="Times,serif" font-size="14.00" fill="#000000">surf</text>
</a>
</g>
</g>
<!-- Torus_Torus_Torus_ind&#45;&gt;Torus_Torus_surf -->
<g id="edge5" class="edge">
<title>Torus_Torus_Torus_ind&#45;&gt;Torus_Torus_surf</title>
<path fill="none" stroke="#000000" d="M773.7363,-270.0973C791.6004,-258.3446 815.7687,-242.4444 834.4521,-230.1527"/>
<polygon fill="#000000" stroke="#000000" points="836.4387,-233.0352 842.8692,-224.6151 832.5914,-227.1873 836.4387,-233.0352"/>
</g>
<!-- Torus_Torus_loop_b -->
<g id="node6" class="node">
<title>Torus_Torus_loop_b</title>
<g id="a_node6"><a xlink:href="Torus.html#Torus.loop_b" xlink:title="loop_b">
<ellipse fill="#facdef" stroke="#000000" cx="863" cy="-127.3711" rx="40.8928" ry="18"/>
<text text-anchor="middle" x="863" y="-123.6711" font-family="Times,serif" font-size="14.00" fill="#000000">loop_b</text>
</a>
</g>
</g>
<!-- Torus_Torus_surf&#45;&gt;Torus_Torus_loop_b -->
<g id="edge6" class="edge">
<title>Torus_Torus_surf&#45;&gt;Torus_Torus_loop_b</title>
<path fill="none" stroke="#000000" d="M863,-193.1444C863,-182.247 863,-168.1657 863,-155.8298"/>
<polygon fill="#000000" stroke="#000000" points="866.5001,-155.5623 863,-145.5623 859.5001,-155.5623 866.5001,-155.5623"/>
</g>
<!-- Torus_Torus_loop_a -->
<g id="node7" class="node">
<title>Torus_Torus_loop_a</title>
<g id="a_node7"><a xlink:href="Torus.html#Torus.loop_a" xlink:title="loop_a">
<ellipse fill="#facdef" stroke="#000000" cx="962" cy="-127.3711" rx="40.0939" ry="18"/>
<text text-anchor="middle" x="962" y="-123.6711" font-family="Times,serif" font-size="14.00" fill="#000000">loop_a</text>
</a>
</g>
</g>
<!-- Torus_Torus_surf&#45;&gt;Torus_Torus_loop_a -->
<g id="edge7" class="edge">
<title>Torus_Torus_surf&#45;&gt;Torus_Torus_loop_a</title>
<path fill="none" stroke="#000000" d="M880.2445,-196.7395C895.4255,-183.8586 917.7757,-164.8948 935.2722,-150.0492"/>
<polygon fill="#000000" stroke="#000000" points="937.5658,-152.6933 942.9265,-143.5547 933.0369,-147.3558 937.5658,-152.6933"/>
</g>
<!-- Torus_Torus_tbase -->
<g id="node8" class="node">
<title>Torus_Torus_tbase</title>
<g id="a_node8"><a xlink:href="Torus.html#Torus.tbase" xlink:title="tbase">
<ellipse fill="#7faaff" stroke="#000000" cx="873" cy="-44.3711" rx="36.2938" ry="18"/>
<text text-anchor="middle" x="873" y="-40.6711" font-family="Times,serif" font-size="14.00" fill="#000000">tbase</text>
</a>
</g>
</g>
<!-- Torus_Torus_loop_b&#45;&gt;Torus_Torus_tbase -->
<g id="edge8" class="edge">
<title>Torus_Torus_loop_b&#45;&gt;Torus_Torus_tbase</title>
<path fill="none" stroke="#000000" d="M865.1699,-109.3614C866.4672,-98.5937 868.1435,-84.6801 869.6121,-72.491"/>
<polygon fill="#000000" stroke="#000000" points="873.113,-72.6926 870.8344,-62.3458 866.1633,-71.8553 873.113,-72.6926"/>
</g>
<!-- Torus_Torus_Torus -->
<g id="node9" class="node">
<title>Torus_Torus_Torus</title>
<g id="a_node9"><a xlink:href="Torus.html#Torus.Torus" xlink:title="Torus">
<ellipse fill="#e2cdfa" stroke="#000000" cx="964" cy="-44.3711" rx="37.0935" ry="18"/>
<text text-anchor="middle" x="964" y="-40.6711" font-family="Times,serif" font-size="14.00" fill="#000000">Torus</text>
</a>
</g>
</g>
<!-- Torus_Torus_loop_b&#45;&gt;Torus_Torus_Torus -->
<g id="edge9" class="edge">
<title>Torus_Torus_loop_b&#45;&gt;Torus_Torus_Torus</title>
<path fill="none" stroke="#000000" d="M882.4738,-111.3679C897.9421,-98.6563 919.7511,-80.7341 936.9206,-66.6245"/>
<polygon fill="#000000" stroke="#000000" points="939.4247,-69.0969 944.9285,-60.0438 934.9804,-63.6887 939.4247,-69.0969"/>
</g>
<!-- Torus_Torus_loop_a&#45;&gt;Torus_Torus_tbase -->
<g id="edge10" class="edge">
<title>Torus_Torus_loop_a&#45;&gt;Torus_Torus_tbase</title>
<path fill="none" stroke="#000000" d="M944.4165,-110.973C931.0433,-98.5014 912.4752,-81.1851 897.6242,-67.3353"/>
<polygon fill="#000000" stroke="#000000" points="899.9446,-64.7134 890.2442,-60.4528 895.1704,-69.8327 899.9446,-64.7134"/>
</g>
<!-- Torus_Torus_loop_a&#45;&gt;Torus_Torus_Torus -->
<g id="edge11" class="edge">
<title>Torus_Torus_loop_a&#45;&gt;Torus_Torus_Torus</title>
<path fill="none" stroke="#000000" d="M962.434,-109.3614C962.6917,-98.6674 963.0241,-84.8705 963.3164,-72.7417"/>
<polygon fill="#000000" stroke="#000000" points="966.818,-72.7138 963.56,-62.6324 959.82,-72.5451 966.818,-72.7138"/>
</g>
<!-- Torus_ispointed_torus -->
<g id="node10" class="node">
<title>Torus_ispointed_torus</title>
<g id="a_node10"><a xlink:href="Torus.html#ispointed_torus" xlink:title="ispointed_torus">
<ellipse fill="#f070d1" stroke="#000000" cx="1111" cy="-127.3711" rx="83.3687" ry="18"/>
<ellipse fill="none" stroke="#000000" cx="1111" cy="-127.3711" rx="87.3772" ry="22"/>
<ellipse fill="none" stroke="#000000" cx="1111" cy="-127.3711" rx="91.3856" ry="26"/>
<text text-anchor="middle" x="1111" y="-123.6711" font-family="Times,serif" font-size="14.00" fill="#000000">ispointed_torus</text>
</a>
</g>
</g>
<!-- Torus_ispointed_torus&#45;&gt;Torus_Torus_tbase -->
<g id="edge12" class="edge">
<title>Torus_ispointed_torus&#45;&gt;Torus_Torus_tbase</title>
<path fill="none" stroke="#000000" d="M1050.2818,-107.8822C1012.1201,-95.3966 961.9635,-78.5528 918,-62.3711 915.6508,-61.5065 913.2399,-60.5997 910.8134,-59.6722"/>
<polygon fill="#000000" stroke="#000000" points="912.0626,-56.4028 901.4741,-56.0382 909.5242,-62.9263 912.0626,-56.4028"/>
</g>
<!-- Torus_ispointed_torus&#45;&gt;Torus_Torus_Torus -->
<g id="edge13" class="edge">
<title>Torus_ispointed_torus&#45;&gt;Torus_Torus_Torus</title>
<path fill="none" stroke="#000000" d="M1069.6611,-104.0301C1046.7752,-91.1082 1018.7074,-75.2603 997.2536,-63.147"/>
<polygon fill="#000000" stroke="#000000" points="998.9272,-60.0726 988.4985,-58.2036 995.4855,-66.1681 998.9272,-60.0726"/>
</g>
<!-- Torus_Torus_rec_beta_surf -->
<g id="node11" class="node">
<title>Torus_Torus_rec_beta_surf</title>
<g id="a_node11"><a xlink:href="Torus.html#Torus_rec_beta_surf" xlink:title="Torus_rec_beta_surf">
<ellipse fill="#facdef" stroke="#000000" cx="259" cy="-541.3711" rx="105.8854" ry="18"/>
<ellipse fill="none" stroke="#000000" cx="259" cy="-541.3711" rx="109.8833" ry="22"/>
<ellipse fill="none" stroke="#000000" cx="259" cy="-541.3711" rx="113.8812" ry="26"/>
<text text-anchor="middle" x="259" y="-537.6711" font-family="Times,serif" font-size="14.00" fill="#000000">Torus_rec_beta_surf</text>
</a>
</g>
</g>
<!-- Torus_Torus_rec_beta_loop_b -->
<g id="node12" class="node">
<title>Torus_Torus_rec_beta_loop_b</title>
<g id="a_node12"><a xlink:href="Torus.html#Torus_rec_beta_loop_b" xlink:title="Torus_rec_beta_loop_b">
<ellipse fill="#f070d1" stroke="#000000" cx="386" cy="-445.3711" rx="117.7793" ry="18"/>
<text text-anchor="middle" x="386" y="-441.6711" font-family="Times,serif" font-size="14.00" fill="#000000">Torus_rec_beta_loop_b</text>
</a>
</g>
</g>
<!-- Torus_Torus_rec_beta_surf&#45;&gt;Torus_Torus_rec_beta_loop_b -->
<g id="edge14" class="edge">
<title>Torus_Torus_rec_beta_surf&#45;&gt;Torus_Torus_rec_beta_loop_b</title>
<path fill="none" stroke="#000000" d="M292.0362,-516.3989C311.2426,-501.8807 335.3218,-483.6791 354.296,-469.3363"/>
<polygon fill="#000000" stroke="#000000" points="356.4851,-472.0691 362.3519,-463.2469 352.264,-466.485 356.4851,-472.0691"/>
</g>
<!-- Torus_Torus_rec_beta_loop_a -->
<g id="node13" class="node">
<title>Torus_Torus_rec_beta_loop_a</title>
<g id="a_node13"><a xlink:href="Torus.html#Torus_rec_beta_loop_a" xlink:title="Torus_rec_beta_loop_a">
<ellipse fill="#f070d1" stroke="#000000" cx="133" cy="-445.3711" rx="116.9792" ry="18"/>
<text text-anchor="middle" x="133" y="-441.6711" font-family="Times,serif" font-size="14.00" fill="#000000">Torus_rec_beta_loop_a</text>
</a>
</g>
</g>
<!-- Torus_Torus_rec_beta_surf&#45;&gt;Torus_Torus_rec_beta_loop_a -->
<g id="edge15" class="edge">
<title>Torus_Torus_rec_beta_surf&#45;&gt;Torus_Torus_rec_beta_loop_a</title>
<path fill="none" stroke="#000000" d="M226.2239,-516.3989C207.1688,-501.8807 183.2792,-483.6791 164.4543,-469.3363"/>
<polygon fill="#000000" stroke="#000000" points="166.5374,-466.5233 156.4619,-463.2469 162.2951,-472.0914 166.5374,-466.5233"/>
</g>
<!-- Torus_Torus_rec_beta_loop_b&#45;&gt;Torus_Torus_Torus_ind_beta_loop_b -->
<g id="edge16" class="edge">
<title>Torus_Torus_rec_beta_loop_b&#45;&gt;Torus_Torus_Torus_ind_beta_loop_b</title>
<path fill="none" stroke="#000000" d="M452.3387,-430.4689C470.3542,-426.6311 489.8884,-422.6599 508,-419.3711 560.744,-409.7938 697.2362,-389.6916 791.1578,-376.1077"/>
<polygon fill="#000000" stroke="#000000" points="791.8522,-379.5438 801.2489,-374.6496 790.8511,-372.6157 791.8522,-379.5438"/>
</g>
<!-- Torus_Torus_rec -->
<g id="node14" class="node">
<title>Torus_Torus_rec</title>
<g id="a_node14"><a xlink:href="Torus.html#Torus_rec" xlink:title="Torus_rec">
<ellipse fill="#f070d1" stroke="#000000" cx="386" cy="-362.3711" rx="57.3905" ry="18"/>
<text text-anchor="middle" x="386" y="-358.6711" font-family="Times,serif" font-size="14.00" fill="#000000">Torus_rec</text>
</a>
</g>
</g>
<!-- Torus_Torus_rec_beta_loop_b&#45;&gt;Torus_Torus_rec -->
<g id="edge17" class="edge">
<title>Torus_Torus_rec_beta_loop_b&#45;&gt;Torus_Torus_rec</title>
<path fill="none" stroke="#000000" d="M386,-427.3614C386,-416.6674 386,-402.8705 386,-390.7417"/>
<polygon fill="#000000" stroke="#000000" points="389.5001,-390.6323 386,-380.6324 382.5001,-390.6324 389.5001,-390.6323"/>
</g>
<!-- Torus_Torus_rec_beta_loop_a&#45;&gt;Torus_Torus_Torus_ind_beta_loop_a -->
<g id="edge18" class="edge">
<title>Torus_Torus_rec_beta_loop_a&#45;&gt;Torus_Torus_Torus_ind_beta_loop_a</title>
<path fill="none" stroke="#000000" d="M200.8789,-430.6712C219.6662,-426.7917 240.0905,-422.7491 259,-419.3711 265.9905,-418.1224 433.0824,-392.9245 542.4453,-376.4535"/>
<polygon fill="#000000" stroke="#000000" points="543.1451,-379.8877 552.5123,-374.9374 542.1026,-372.9657 543.1451,-379.8877"/>
</g>
<!-- Torus_Torus_rec_beta_loop_a&#45;&gt;Torus_Torus_rec -->
<g id="edge19" class="edge">
<title>Torus_Torus_rec_beta_loop_a&#45;&gt;Torus_Torus_rec</title>
<path fill="none" stroke="#000000" d="M182.6828,-429.072C227.2343,-414.4563 292.2444,-393.1289 336.6834,-378.5501"/>
<polygon fill="#000000" stroke="#000000" points="337.9847,-381.8068 346.3954,-375.3639 335.8026,-375.1556 337.9847,-381.8068"/>
</g>
<!-- Torus_Torus_rec&#45;&gt;Torus_Torus_Torus_ind -->
<g id="edge20" class="edge">
<title>Torus_Torus_rec&#45;&gt;Torus_Torus_Torus_ind</title>
<path fill="none" stroke="#000000" d="M433.8292,-352.3573C500.2546,-338.4501 620.2807,-313.3206 691.5001,-298.4097"/>
<polygon fill="#000000" stroke="#000000" points="692.5711,-301.7614 701.6416,-296.2864 691.1366,-294.91 692.5711,-301.7614"/>
</g>
</g>
</svg>
