<?xml version="1.0" encoding="UTF-8" standalone="no"?>
<!DOCTYPE svg PUBLIC "-//W3C//DTD SVG 1.1//EN"
 "http://www.w3.org/Graphics/SVG/1.1/DTD/svg11.dtd">
<!-- Generated by graphviz version 2.40.1 (20161225.0304)
 -->
<!-- Title: HoTT_Algebra_Groups_Image Pages: 1 -->
<svg width="496pt" height="252pt"
 viewBox="0.00 0.00 496.00 252.00" xmlns="http://www.w3.org/2000/svg" xmlns:xlink="http://www.w3.org/1999/xlink">
<g id="graph0" class="graph" transform="scale(1 1) rotate(0) translate(4 248)">
<title>HoTT_Algebra_Groups_Image</title>
<polygon fill="#ffffff" stroke="transparent" points="-4,4 -4,-248 492,-248 492,4 -4,4"/>
<g id="clust1" class="cluster">
<title>cluster_Image</title>
<polygon fill="#ffffc3" stroke="#000000" points="8,-10.905 8,-233.095 480,-233.095 480,-10.905 8,-10.905"/>
<text text-anchor="middle" x="39" y="-217.895" font-family="Times,serif" font-size="14.00" fill="#000000">Image</text>
</g>
<!-- Image_grp_image_in_embedding -->
<g id="node1" class="node">
<title>Image_grp_image_in_embedding</title>
<g id="a_node1"><a xlink:href="Image.html#grp_image_in_embedding" xlink:title="grp_image_in_embedding">
<ellipse fill="#f070d1" stroke="#000000" cx="334" cy="-154.905" rx="129.9776" ry="18"/>
<ellipse fill="none" stroke="#000000" cx="334" cy="-154.905" rx="133.9773" ry="22"/>
<ellipse fill="none" stroke="#000000" cx="334" cy="-154.905" rx="137.9769" ry="26"/>
<text text-anchor="middle" x="334" y="-151.205" font-family="Times,serif" font-size="14.00" fill="#000000">grp_image_in_embedding</text>
</a>
</g>
</g>
<!-- Image_grp_image_embedding -->
<g id="node2" class="node">
<title>Image_grp_image_embedding</title>
<g id="a_node2"><a xlink:href="Image.html#grp_image_embedding" xlink:title="grp_image_embedding">
<ellipse fill="#f070d1" stroke="#000000" cx="334" cy="-45.905" rx="116.1796" ry="18"/>
<text text-anchor="middle" x="334" y="-42.205" font-family="Times,serif" font-size="14.00" fill="#000000">grp_image_embedding</text>
</a>
</g>
</g>
<!-- Image_grp_image_in_embedding&#45;&gt;Image_grp_image_embedding -->
<g id="edge1" class="edge">
<title>Image_grp_image_in_embedding&#45;&gt;Image_grp_image_embedding</title>
<path fill="none" stroke="#000000" d="M334,-128.7968C334,-112.3674 334,-91.1621 334,-74.3123"/>
<polygon fill="#000000" stroke="#000000" points="337.5001,-73.9624 334,-63.9624 330.5001,-73.9625 337.5001,-73.9624"/>
</g>
<!-- Image_grp_image_in -->
<g id="node3" class="node">
<title>Image_grp_image_in</title>
<g id="a_node3"><a xlink:href="Image.html#grp_image_in" xlink:title="grp_image_in">
<ellipse fill="#f070d1" stroke="#000000" cx="97" cy="-154.905" rx="73.3926" ry="18"/>
<ellipse fill="none" stroke="#000000" cx="97" cy="-154.905" rx="77.3898" ry="22"/>
<ellipse fill="none" stroke="#000000" cx="97" cy="-154.905" rx="81.387" ry="26"/>
<text text-anchor="middle" x="97" y="-151.205" font-family="Times,serif" font-size="14.00" fill="#000000">grp_image_in</text>
</a>
</g>
</g>
<!-- Image_grp_image -->
<g id="node4" class="node">
<title>Image_grp_image</title>
<g id="a_node4"><a xlink:href="Image.html#grp_image" xlink:title="grp_image">
<ellipse fill="#f070d1" stroke="#000000" cx="97" cy="-45.905" rx="59.5901" ry="18"/>
<text text-anchor="middle" x="97" y="-42.205" font-family="Times,serif" font-size="14.00" fill="#000000">grp_image</text>
</a>
</g>
</g>
<!-- Image_grp_image_in&#45;&gt;Image_grp_image -->
<g id="edge2" class="edge">
<title>Image_grp_image_in&#45;&gt;Image_grp_image</title>
<path fill="none" stroke="#000000" d="M97,-128.7968C97,-112.3674 97,-91.1621 97,-74.3123"/>
<polygon fill="#000000" stroke="#000000" points="100.5001,-73.9624 97,-63.9624 93.5001,-73.9625 100.5001,-73.9624"/>
</g>
</g>
</svg>
