<?xml version="1.0" encoding="UTF-8" standalone="no"?>
<!DOCTYPE svg PUBLIC "-//W3C//DTD SVG 1.1//EN"
 "http://www.w3.org/Graphics/SVG/1.1/DTD/svg11.dtd">
<!-- Generated by graphviz version 2.40.1 (20161225.0304)
 -->
<!-- Title: HoTT_Cubical_DPath Pages: 1 -->
<svg width="5671pt" height="2840pt"
 viewBox="0.00 0.00 5671.00 2839.50" xmlns="http://www.w3.org/2000/svg" xmlns:xlink="http://www.w3.org/1999/xlink">
<g id="graph0" class="graph" transform="scale(1 1) rotate(0) translate(4 2835.5)">
<title>HoTT_Cubical_DPath</title>
<polygon fill="#ffffff" stroke="transparent" points="-4,4 -4,-2835.5 5667,-2835.5 5667,4 -4,4"/>
<g id="clust1" class="cluster">
<title>cluster_DPath</title>
<polygon fill="#ffffc3" stroke="#000000" points="8,-63.8085 8,-2767.6915 5655,-2767.6915 5655,-63.8085 8,-63.8085"/>
<text text-anchor="middle" x="38" y="-2752.4915" font-family="Times,serif" font-size="14.00" fill="#000000">DPath</text>
</g>
<!-- DPath_dp_apD_path_transport -->
<g id="node1" class="node">
<title>DPath_dp_apD_path_transport</title>
<g id="a_node1"><a xlink:href="DPath.html#dp_apD_path_transport" xlink:title="dp_apD_path_transport">
<ellipse fill="#f070d1" stroke="#000000" cx="2325" cy="-1610.8085" rx="120.4642" ry="18"/>
<ellipse fill="none" stroke="#000000" cx="2325" cy="-1610.8085" rx="124.4716" ry="22"/>
<ellipse fill="none" stroke="#000000" cx="2325" cy="-1610.8085" rx="128.4791" ry="26"/>
<text text-anchor="middle" x="2325" y="-1607.1085" font-family="Times,serif" font-size="14.00" fill="#000000">dp_apD_path_transport</text>
</a>
</g>
</g>
<!-- DPath_dp_apD -->
<g id="node38" class="node">
<title>DPath_dp_apD</title>
<g id="a_node38"><a xlink:href="DPath.html#dp_apD" xlink:title="dp_apD">
<ellipse fill="#f070d1" stroke="#000000" cx="2002" cy="-908.8085" rx="46.2923" ry="18"/>
<text text-anchor="middle" x="2002" y="-905.1085" font-family="Times,serif" font-size="14.00" fill="#000000">dp_apD</text>
</a>
</g>
</g>
<!-- DPath_dp_apD_path_transport&#45;&gt;DPath_dp_apD -->
<g id="edge1" class="edge">
<title>DPath_dp_apD_path_transport&#45;&gt;DPath_dp_apD</title>
<path fill="none" stroke="#000000" d="M2312.9275,-1584.5704C2262.1222,-1474.1514 2065.9425,-1047.7795 2014.4409,-935.8471"/>
<polygon fill="#000000" stroke="#000000" points="2017.5406,-934.2105 2010.1811,-926.589 2011.1815,-937.1365 2017.5406,-934.2105"/>
</g>
<!-- DPath_equiv_dp_path_transport -->
<g id="node43" class="node">
<title>DPath_equiv_dp_path_transport</title>
<g id="a_node43"><a xlink:href="DPath.html#equiv_dp_path_transport" xlink:title="equiv_dp_path_transport">
<ellipse fill="#f070d1" stroke="#000000" cx="3807" cy="-908.8085" rx="127.2775" ry="18"/>
<text text-anchor="middle" x="3807" y="-905.1085" font-family="Times,serif" font-size="14.00" fill="#000000">equiv_dp_path_transport</text>
</a>
</g>
</g>
<!-- DPath_dp_apD_path_transport&#45;&gt;DPath_equiv_dp_path_transport -->
<g id="edge2" class="edge">
<title>DPath_dp_apD_path_transport&#45;&gt;DPath_equiv_dp_path_transport</title>
<path fill="none" stroke="#000000" d="M2375.5851,-1586.8471C2604.5246,-1478.4021 3541.9644,-1034.3516 3761.0543,-930.5722"/>
<polygon fill="#000000" stroke="#000000" points="3762.8054,-933.6156 3770.3445,-926.1716 3759.8088,-927.2894 3762.8054,-933.6156"/>
</g>
<!-- DPath_equiv_dp_sigma -->
<g id="node2" class="node">
<title>DPath_equiv_dp_sigma</title>
<g id="a_node2"><a xlink:href="DPath.html#equiv_dp_sigma" xlink:title="equiv_dp_sigma">
<ellipse fill="#f070d1" stroke="#000000" cx="4480" cy="-2312.8085" rx="85.2729" ry="18"/>
<ellipse fill="none" stroke="#000000" cx="4480" cy="-2312.8085" rx="89.279" ry="22"/>
<ellipse fill="none" stroke="#000000" cx="4480" cy="-2312.8085" rx="93.2851" ry="26"/>
<text text-anchor="middle" x="4480" y="-2309.1085" font-family="Times,serif" font-size="14.00" fill="#000000">equiv_dp_sigma</text>
</a>
</g>
</g>
<!-- DPath_equiv_path_sigma_dp -->
<g id="node7" class="node">
<title>DPath_equiv_path_sigma_dp</title>
<g id="a_node7"><a xlink:href="DPath.html#equiv_path_sigma_dp" xlink:title="equiv_path_sigma_dp">
<ellipse fill="#f070d1" stroke="#000000" cx="4599" cy="-1610.8085" rx="111.2805" ry="18"/>
<text text-anchor="middle" x="4599" y="-1607.1085" font-family="Times,serif" font-size="14.00" fill="#000000">equiv_path_sigma_dp</text>
</a>
</g>
</g>
<!-- DPath_equiv_dp_sigma&#45;&gt;DPath_equiv_path_sigma_dp -->
<g id="edge3" class="edge">
<title>DPath_equiv_dp_sigma&#45;&gt;DPath_equiv_path_sigma_dp</title>
<path fill="none" stroke="#000000" d="M4484.4478,-2286.5704C4503.1074,-2176.4941 4574.9941,-1752.4233 4594.2383,-1638.8985"/>
<polygon fill="#000000" stroke="#000000" points="4597.7121,-1639.347 4595.9328,-1628.9026 4590.8106,-1638.177 4597.7121,-1639.347"/>
</g>
<!-- DPath_equiv_dp_forall_domain -->
<g id="node3" class="node">
<title>DPath_equiv_dp_forall_domain</title>
<g id="a_node3"><a xlink:href="DPath.html#equiv_dp_forall_domain" xlink:title="equiv_dp_forall_domain">
<ellipse fill="#f070d1" stroke="#000000" cx="4286" cy="-908.8085" rx="120.7855" ry="18"/>
<ellipse fill="none" stroke="#000000" cx="4286" cy="-908.8085" rx="124.7821" ry="22"/>
<ellipse fill="none" stroke="#000000" cx="4286" cy="-908.8085" rx="128.7786" ry="26"/>
<text text-anchor="middle" x="4286" y="-905.1085" font-family="Times,serif" font-size="14.00" fill="#000000">equiv_dp_forall_domain</text>
</a>
</g>
</g>
<!-- DPath_DPath -->
<g id="node44" class="node">
<title>DPath_DPath</title>
<g id="a_node44"><a xlink:href="DPath.html#DPath" xlink:title="DPath">
<ellipse fill="#f070d1" stroke="#000000" cx="1864" cy="-270.8085" rx="38.9931" ry="18"/>
<text text-anchor="middle" x="1864" y="-267.1085" font-family="Times,serif" font-size="14.00" fill="#000000">DPath</text>
</a>
</g>
</g>
<!-- DPath_equiv_dp_forall_domain&#45;&gt;DPath_DPath -->
<g id="edge4" class="edge">
<title>DPath_equiv_dp_forall_domain&#45;&gt;DPath_DPath</title>
<path fill="none" stroke="#000000" d="M4207.4772,-888.1241C3828.6805,-788.342 2196.5928,-358.4196 1907.7685,-282.3379"/>
<polygon fill="#000000" stroke="#000000" points="1908.6268,-278.9447 1898.0651,-279.7818 1906.8437,-285.7137 1908.6268,-278.9447"/>
</g>
<!-- DPath_equiv_dp_arrow -->
<g id="node4" class="node">
<title>DPath_equiv_dp_arrow</title>
<g id="a_node4"><a xlink:href="DPath.html#equiv_dp_arrow" xlink:title="equiv_dp_arrow">
<ellipse fill="#f070d1" stroke="#000000" cx="4046" cy="-908.8085" rx="85.2729" ry="18"/>
<ellipse fill="none" stroke="#000000" cx="4046" cy="-908.8085" rx="89.279" ry="22"/>
<ellipse fill="none" stroke="#000000" cx="4046" cy="-908.8085" rx="93.2851" ry="26"/>
<text text-anchor="middle" x="4046" y="-905.1085" font-family="Times,serif" font-size="14.00" fill="#000000">equiv_dp_arrow</text>
</a>
</g>
</g>
<!-- DPath_equiv_dp_arrow&#45;&gt;DPath_DPath -->
<g id="edge5" class="edge">
<title>DPath_equiv_dp_arrow&#45;&gt;DPath_DPath</title>
<path fill="none" stroke="#000000" d="M3981.5841,-889.9737C3654.1592,-794.2372 2179.3016,-363.0002 1907.2234,-283.4466"/>
<polygon fill="#000000" stroke="#000000" points="1907.9098,-280.0008 1897.3294,-280.5537 1905.9452,-286.7195 1907.9098,-280.0008"/>
</g>
<!-- DPath_equiv_dp_forall -->
<g id="node5" class="node">
<title>DPath_equiv_dp_forall</title>
<g id="a_node5"><a xlink:href="DPath.html#equiv_dp_forall" xlink:title="equiv_dp_forall">
<ellipse fill="#f070d1" stroke="#000000" cx="934" cy="-2312.8085" rx="81.7951" ry="18"/>
<ellipse fill="none" stroke="#000000" cx="934" cy="-2312.8085" rx="85.7904" ry="22"/>
<ellipse fill="none" stroke="#000000" cx="934" cy="-2312.8085" rx="89.7856" ry="26"/>
<text text-anchor="middle" x="934" y="-2309.1085" font-family="Times,serif" font-size="14.00" fill="#000000">equiv_dp_forall</text>
</a>
</g>
</g>
<!-- DPath_equiv_dp_forall&#45;&gt;DPath_equiv_path_sigma_dp -->
<g id="edge6" class="edge">
<title>DPath_equiv_dp_forall&#45;&gt;DPath_equiv_path_sigma_dp</title>
<path fill="none" stroke="#000000" d="M1010.2214,-2299.0028C1387.2172,-2230.5663 3089.9605,-1919.6807 4479,-1636.8085 4493.3409,-1633.888 4508.6207,-1630.6639 4523.3043,-1627.5092"/>
<polygon fill="#000000" stroke="#000000" points="4524.3187,-1630.871 4533.3558,-1625.3408 4522.8425,-1624.0284 4524.3187,-1630.871"/>
</g>
<!-- DPath_dp_id -->
<g id="node40" class="node">
<title>DPath_dp_id</title>
<g id="a_node40"><a xlink:href="DPath.html#dp_id" xlink:title="dp_id">
<ellipse fill="#f070d1" stroke="#000000" cx="454" cy="-908.8085" rx="36.2938" ry="18"/>
<text text-anchor="middle" x="454" y="-905.1085" font-family="Times,serif" font-size="14.00" fill="#000000">dp_id</text>
</a>
</g>
</g>
<!-- DPath_equiv_dp_forall&#45;&gt;DPath_dp_id -->
<g id="edge7" class="edge">
<title>DPath_equiv_dp_forall&#45;&gt;DPath_dp_id</title>
<path fill="none" stroke="#000000" d="M888.6186,-2290.2338C749.5998,-2218.1646 329.8125,-1978.1438 177,-1636.8085 55.7924,-1366.0686 345.6781,-1024.7954 431.1487,-932.6441"/>
<polygon fill="#000000" stroke="#000000" points="433.8096,-934.923 438.0858,-925.2295 428.698,-930.1406 433.8096,-934.923"/>
</g>
<!-- DPath_ap_pr1_path_sigma_dp -->
<g id="node6" class="node">
<title>DPath_ap_pr1_path_sigma_dp</title>
<g id="a_node6"><a xlink:href="DPath.html#ap_pr1_path_sigma_dp" xlink:title="ap_pr1_path_sigma_dp">
<ellipse fill="#f070d1" stroke="#000000" cx="4717" cy="-2312.8085" rx="118.0927" ry="18"/>
<ellipse fill="none" stroke="#000000" cx="4717" cy="-2312.8085" rx="122.086" ry="22"/>
<ellipse fill="none" stroke="#000000" cx="4717" cy="-2312.8085" rx="126.0794" ry="26"/>
<text text-anchor="middle" x="4717" y="-2309.1085" font-family="Times,serif" font-size="14.00" fill="#000000">ap_pr1_path_sigma_dp</text>
</a>
</g>
</g>
<!-- DPath_ap_pr1_path_sigma_dp&#45;&gt;DPath_equiv_path_sigma_dp -->
<g id="edge8" class="edge">
<title>DPath_ap_pr1_path_sigma_dp&#45;&gt;DPath_equiv_path_sigma_dp</title>
<path fill="none" stroke="#000000" d="M4712.5896,-2286.5704C4694.0868,-2176.4941 4622.8042,-1752.4233 4603.7217,-1638.8985"/>
<polygon fill="#000000" stroke="#000000" points="4607.1508,-1638.1841 4602.0415,-1628.9026 4600.2476,-1639.3445 4607.1508,-1638.1841"/>
</g>
<!-- DPath_equiv_path_sigma_dp&#45;&gt;DPath_equiv_dp_path_transport -->
<g id="edge9" class="edge">
<title>DPath_equiv_path_sigma_dp&#45;&gt;DPath_equiv_dp_path_transport</title>
<path fill="none" stroke="#000000" d="M4578.6265,-1592.7501C4470.1172,-1496.5715 3960.3681,-1044.7483 3834.9367,-933.5705"/>
<polygon fill="#000000" stroke="#000000" points="3837.0439,-930.7613 3827.2388,-926.7474 3832.4007,-935.9997 3837.0439,-930.7613"/>
</g>
<!-- DPath_dp_apD_compose -->
<g id="node8" class="node">
<title>DPath_dp_apD_compose</title>
<g id="a_node8"><a xlink:href="DPath.html#dp_apD_compose" xlink:title="dp_apD_compose">
<ellipse fill="#f070d1" stroke="#000000" cx="2336" cy="-2312.8085" rx="91.7725" ry="18"/>
<ellipse fill="none" stroke="#000000" cx="2336" cy="-2312.8085" rx="95.7782" ry="22"/>
<ellipse fill="none" stroke="#000000" cx="2336" cy="-2312.8085" rx="99.7839" ry="26"/>
<text text-anchor="middle" x="2336" y="-2309.1085" font-family="Times,serif" font-size="14.00" fill="#000000">dp_apD_compose</text>
</a>
</g>
</g>
<!-- DPath_dp_apD_compose_ -->
<g id="node9" class="node">
<title>DPath_dp_apD_compose_</title>
<g id="a_node9"><a xlink:href="DPath.html#dp_apD_compose'" xlink:title="dp_apD_compose&#39;">
<ellipse fill="#f070d1" stroke="#000000" cx="2085" cy="-1610.8085" rx="94.4839" ry="18"/>
<text text-anchor="middle" x="2085" y="-1607.1085" font-family="Times,serif" font-size="14.00" fill="#000000">dp_apD_compose&#39;</text>
</a>
</g>
</g>
<!-- DPath_dp_apD_compose&#45;&gt;DPath_dp_apD_compose_ -->
<g id="edge10" class="edge">
<title>DPath_dp_apD_compose&#45;&gt;DPath_dp_apD_compose_</title>
<path fill="none" stroke="#000000" d="M2326.6186,-2286.5704C2287.2212,-2176.3832 2135.3286,-1751.568 2094.9212,-1638.5561"/>
<polygon fill="#000000" stroke="#000000" points="2098.1321,-1637.1405 2091.4696,-1628.9026 2091.5407,-1639.4972 2098.1321,-1637.1405"/>
</g>
<!-- DPath_equiv_dp_compose -->
<g id="node10" class="node">
<title>DPath_equiv_dp_compose</title>
<g id="a_node10"><a xlink:href="DPath.html#equiv_dp_compose" xlink:title="equiv_dp_compose">
<ellipse fill="#f070d1" stroke="#000000" cx="2570" cy="-1610.8085" rx="98.5829" ry="18"/>
<text text-anchor="middle" x="2570" y="-1607.1085" font-family="Times,serif" font-size="14.00" fill="#000000">equiv_dp_compose</text>
</a>
</g>
</g>
<!-- DPath_dp_apD_compose&#45;&gt;DPath_equiv_dp_compose -->
<g id="edge11" class="edge">
<title>DPath_dp_apD_compose&#45;&gt;DPath_equiv_dp_compose</title>
<path fill="none" stroke="#000000" d="M2344.746,-2286.5704C2381.4751,-2176.3832 2523.0801,-1751.568 2560.7508,-1638.5561"/>
<polygon fill="#000000" stroke="#000000" points="2564.1267,-1639.4963 2563.9686,-1628.9026 2557.4859,-1637.2826 2564.1267,-1639.4963"/>
</g>
<!-- DPath_equiv_dp_compose_ -->
<g id="node11" class="node">
<title>DPath_equiv_dp_compose_</title>
<g id="a_node11"><a xlink:href="DPath.html#equiv_dp_compose'" xlink:title="equiv_dp_compose&#39;">
<ellipse fill="#f070d1" stroke="#000000" cx="2167" cy="-908.8085" rx="100.9827" ry="18"/>
<text text-anchor="middle" x="2167" y="-905.1085" font-family="Times,serif" font-size="14.00" fill="#000000">equiv_dp_compose&#39;</text>
</a>
</g>
</g>
<!-- DPath_dp_apD_compose_&#45;&gt;DPath_equiv_dp_compose_ -->
<g id="edge12" class="edge">
<title>DPath_dp_apD_compose_&#45;&gt;DPath_equiv_dp_compose_</title>
<path fill="none" stroke="#000000" d="M2087.1094,-1592.7501C2098.2309,-1497.5394 2150.0629,-1053.8065 2163.7035,-937.0299"/>
<polygon fill="#000000" stroke="#000000" points="2167.183,-937.4082 2164.8669,-927.0697 2160.2303,-936.596 2167.183,-937.4082"/>
</g>
<!-- DPath_dp_apD_compose_&#45;&gt;DPath_dp_apD -->
<g id="edge13" class="edge">
<title>DPath_dp_apD_compose_&#45;&gt;DPath_dp_apD</title>
<path fill="none" stroke="#000000" d="M2082.8649,-1592.7501C2071.6078,-1497.5394 2019.1436,-1053.8065 2005.3367,-937.0299"/>
<polygon fill="#000000" stroke="#000000" points="2008.8091,-936.5895 2004.1591,-927.0697 2001.8575,-937.4115 2008.8091,-936.5895"/>
</g>
<!-- DPath_equiv_dp_compose&#45;&gt;DPath_equiv_dp_compose_ -->
<g id="edge14" class="edge">
<title>DPath_equiv_dp_compose&#45;&gt;DPath_equiv_dp_compose_</title>
<path fill="none" stroke="#000000" d="M2559.6332,-1592.7501C2504.7501,-1497.1474 2248.1386,-1050.1466 2182.3827,-935.6042"/>
<polygon fill="#000000" stroke="#000000" points="2185.3124,-933.6774 2177.2983,-926.7474 2179.2416,-937.1625 2185.3124,-933.6774"/>
</g>
<!-- DPath_equiv_dp_compose_&#45;&gt;DPath_DPath -->
<g id="edge15" class="edge">
<title>DPath_equiv_dp_compose_&#45;&gt;DPath_DPath</title>
<path fill="none" stroke="#000000" d="M2158.4199,-890.7421C2115.8799,-801.1695 1927.6094,-404.745 1876.718,-297.5875"/>
<polygon fill="#000000" stroke="#000000" points="1879.8136,-295.9471 1872.362,-288.4155 1873.4905,-298.9501 1879.8136,-295.9471"/>
</g>
<!-- DPath_equiv_dp_paths_FlFr_D -->
<g id="node12" class="node">
<title>DPath_equiv_dp_paths_FlFr_D</title>
<g id="a_node12"><a xlink:href="DPath.html#equiv_dp_paths_FlFr_D" xlink:title="equiv_dp_paths_FlFr_D">
<ellipse fill="#f070d1" stroke="#000000" cx="3592" cy="-1610.8085" rx="120.4642" ry="18"/>
<ellipse fill="none" stroke="#000000" cx="3592" cy="-1610.8085" rx="124.4716" ry="22"/>
<ellipse fill="none" stroke="#000000" cx="3592" cy="-1610.8085" rx="128.4791" ry="26"/>
<text text-anchor="middle" x="3592" y="-1607.1085" font-family="Times,serif" font-size="14.00" fill="#000000">equiv_dp_paths_FlFr_D</text>
</a>
</g>
</g>
<!-- DPath_equiv_dp_paths_FlFr_D&#45;&gt;DPath_equiv_dp_path_transport -->
<g id="edge16" class="edge">
<title>DPath_equiv_dp_paths_FlFr_D&#45;&gt;DPath_equiv_dp_path_transport</title>
<path fill="none" stroke="#000000" d="M3600.0359,-1584.5704C3633.7827,-1474.3832 3763.8899,-1049.568 3798.5018,-936.5561"/>
<polygon fill="#000000" stroke="#000000" points="3801.8764,-937.4892 3801.4583,-926.9026 3795.1833,-935.4393 3801.8764,-937.4892"/>
</g>
<!-- DPath_equiv_dp_paths_lFFr -->
<g id="node13" class="node">
<title>DPath_equiv_dp_paths_lFFr</title>
<g id="a_node13"><a xlink:href="DPath.html#equiv_dp_paths_lFFr" xlink:title="equiv_dp_paths_lFFr">
<ellipse fill="#f070d1" stroke="#000000" cx="3329" cy="-1610.8085" rx="108.578" ry="18"/>
<ellipse fill="none" stroke="#000000" cx="3329" cy="-1610.8085" rx="112.5794" ry="22"/>
<ellipse fill="none" stroke="#000000" cx="3329" cy="-1610.8085" rx="116.5808" ry="26"/>
<text text-anchor="middle" x="3329" y="-1607.1085" font-family="Times,serif" font-size="14.00" fill="#000000">equiv_dp_paths_lFFr</text>
</a>
</g>
</g>
<!-- DPath_equiv_dp_paths_lFFr&#45;&gt;DPath_equiv_dp_path_transport -->
<g id="edge17" class="edge">
<title>DPath_equiv_dp_paths_lFFr&#45;&gt;DPath_equiv_dp_path_transport</title>
<path fill="none" stroke="#000000" d="M3346.5792,-1584.9913C3421.4413,-1475.0473 3713.295,-1046.4254 3788.9878,-935.2615"/>
<polygon fill="#000000" stroke="#000000" points="3791.9179,-937.177 3794.6531,-926.9413 3786.1318,-933.2371 3791.9179,-937.177"/>
</g>
<!-- DPath_equiv_dp_paths_FlFr -->
<g id="node14" class="node">
<title>DPath_equiv_dp_paths_FlFr</title>
<g id="a_node14"><a xlink:href="DPath.html#equiv_dp_paths_FlFr" xlink:title="equiv_dp_paths_FlFr">
<ellipse fill="#f070d1" stroke="#000000" cx="3078" cy="-1610.8085" rx="108.578" ry="18"/>
<ellipse fill="none" stroke="#000000" cx="3078" cy="-1610.8085" rx="112.5794" ry="22"/>
<ellipse fill="none" stroke="#000000" cx="3078" cy="-1610.8085" rx="116.5808" ry="26"/>
<text text-anchor="middle" x="3078" y="-1607.1085" font-family="Times,serif" font-size="14.00" fill="#000000">equiv_dp_paths_FlFr</text>
</a>
</g>
</g>
<!-- DPath_equiv_dp_paths_FlFr&#45;&gt;DPath_equiv_dp_path_transport -->
<g id="edge18" class="edge">
<title>DPath_equiv_dp_paths_FlFr&#45;&gt;DPath_equiv_dp_path_transport</title>
<path fill="none" stroke="#000000" d="M3104.3762,-1585.4092C3218.4112,-1475.5976 3668.3618,-1042.3119 3781.2193,-933.6343"/>
<polygon fill="#000000" stroke="#000000" points="3783.6812,-936.1226 3788.4567,-926.665 3778.8257,-931.0803 3783.6812,-936.1226"/>
</g>
<!-- DPath_equiv_dp_paths_FFlr -->
<g id="node15" class="node">
<title>DPath_equiv_dp_paths_FFlr</title>
<g id="a_node15"><a xlink:href="DPath.html#equiv_dp_paths_FFlr" xlink:title="equiv_dp_paths_FFlr">
<ellipse fill="#f070d1" stroke="#000000" cx="5530" cy="-1610.8085" rx="108.578" ry="18"/>
<ellipse fill="none" stroke="#000000" cx="5530" cy="-1610.8085" rx="112.5794" ry="22"/>
<ellipse fill="none" stroke="#000000" cx="5530" cy="-1610.8085" rx="116.5808" ry="26"/>
<text text-anchor="middle" x="5530" y="-1607.1085" font-family="Times,serif" font-size="14.00" fill="#000000">equiv_dp_paths_FFlr</text>
</a>
</g>
</g>
<!-- DPath_equiv_dp_paths_FFlr&#45;&gt;DPath_equiv_dp_path_transport -->
<g id="edge19" class="edge">
<title>DPath_equiv_dp_paths_FFlr&#45;&gt;DPath_equiv_dp_path_transport</title>
<path fill="none" stroke="#000000" d="M5473.6523,-1587.8508C5211.1093,-1480.8831 4109.9901,-1032.2554 3858.361,-929.7344"/>
<polygon fill="#000000" stroke="#000000" points="3859.6607,-926.4846 3849.0792,-925.9527 3857.0195,-932.9672 3859.6607,-926.4846"/>
</g>
<!-- DPath_equiv_dp_paths_Fr -->
<g id="node16" class="node">
<title>DPath_equiv_dp_paths_Fr</title>
<g id="a_node16"><a xlink:href="DPath.html#equiv_dp_paths_Fr" xlink:title="equiv_dp_paths_Fr">
<ellipse fill="#f070d1" stroke="#000000" cx="5289" cy="-1610.8085" rx="98.5985" ry="18"/>
<ellipse fill="none" stroke="#000000" cx="5289" cy="-1610.8085" rx="102.5907" ry="22"/>
<ellipse fill="none" stroke="#000000" cx="5289" cy="-1610.8085" rx="106.5829" ry="26"/>
<text text-anchor="middle" x="5289" y="-1607.1085" font-family="Times,serif" font-size="14.00" fill="#000000">equiv_dp_paths_Fr</text>
</a>
</g>
</g>
<!-- DPath_equiv_dp_paths_Fr&#45;&gt;DPath_equiv_dp_path_transport -->
<g id="edge20" class="edge">
<title>DPath_equiv_dp_paths_Fr&#45;&gt;DPath_equiv_dp_path_transport</title>
<path fill="none" stroke="#000000" d="M5240.1133,-1587.6516C5014.0955,-1480.5905 4072.109,-1034.3864 3852.7805,-930.4939"/>
<polygon fill="#000000" stroke="#000000" points="3854.0183,-927.2075 3843.4826,-926.0897 3851.0216,-933.5337 3854.0183,-927.2075"/>
</g>
<!-- DPath_equiv_dp_paths_Fl -->
<g id="node17" class="node">
<title>DPath_equiv_dp_paths_Fl</title>
<g id="a_node17"><a xlink:href="DPath.html#equiv_dp_paths_Fl" xlink:title="equiv_dp_paths_Fl">
<ellipse fill="#f070d1" stroke="#000000" cx="5059" cy="-1610.8085" rx="97.4834" ry="18"/>
<ellipse fill="none" stroke="#000000" cx="5059" cy="-1610.8085" rx="101.483" ry="22"/>
<ellipse fill="none" stroke="#000000" cx="5059" cy="-1610.8085" rx="105.4827" ry="26"/>
<text text-anchor="middle" x="5059" y="-1607.1085" font-family="Times,serif" font-size="14.00" fill="#000000">equiv_dp_paths_Fl</text>
</a>
</g>
</g>
<!-- DPath_equiv_dp_paths_Fl&#45;&gt;DPath_equiv_dp_path_transport -->
<g id="edge21" class="edge">
<title>DPath_equiv_dp_paths_Fl&#45;&gt;DPath_equiv_dp_path_transport</title>
<path fill="none" stroke="#000000" d="M5016.2655,-1586.8471C4823.3451,-1478.6761 4034.9018,-1036.5937 3847.2298,-931.3654"/>
<polygon fill="#000000" stroke="#000000" points="3848.6787,-928.1652 3838.2445,-926.3273 3845.2552,-934.2709 3848.6787,-928.1652"/>
</g>
<!-- DPath_equiv_dp_paths_lr -->
<g id="node18" class="node">
<title>DPath_equiv_dp_paths_lr</title>
<g id="a_node18"><a xlink:href="DPath.html#equiv_dp_paths_lr" xlink:title="equiv_dp_paths_lr">
<ellipse fill="#f070d1" stroke="#000000" cx="4832" cy="-1610.8085" rx="95.5799" ry="18"/>
<ellipse fill="none" stroke="#000000" cx="4832" cy="-1610.8085" rx="99.5815" ry="22"/>
<ellipse fill="none" stroke="#000000" cx="4832" cy="-1610.8085" rx="103.5831" ry="26"/>
<text text-anchor="middle" x="4832" y="-1607.1085" font-family="Times,serif" font-size="14.00" fill="#000000">equiv_dp_paths_lr</text>
</a>
</g>
</g>
<!-- DPath_equiv_dp_paths_lr&#45;&gt;DPath_equiv_dp_path_transport -->
<g id="edge22" class="edge">
<title>DPath_equiv_dp_paths_lr&#45;&gt;DPath_equiv_dp_path_transport</title>
<path fill="none" stroke="#000000" d="M4796.1207,-1586.2355C4637.1958,-1477.3913 3997.6563,-1039.3848 3841.5148,-932.4469"/>
<polygon fill="#000000" stroke="#000000" points="3843.4121,-929.5041 3833.1838,-926.7412 3839.4566,-935.2795 3843.4121,-929.5041"/>
</g>
<!-- DPath_equiv_dp_paths_r -->
<g id="node19" class="node">
<title>DPath_equiv_dp_paths_r</title>
<g id="a_node19"><a xlink:href="DPath.html#equiv_dp_paths_r" xlink:title="equiv_dp_paths_r">
<ellipse fill="#f070d1" stroke="#000000" cx="4369" cy="-1610.8085" rx="92.8882" ry="18"/>
<ellipse fill="none" stroke="#000000" cx="4369" cy="-1610.8085" rx="96.8858" ry="22"/>
<ellipse fill="none" stroke="#000000" cx="4369" cy="-1610.8085" rx="100.8835" ry="26"/>
<text text-anchor="middle" x="4369" y="-1607.1085" font-family="Times,serif" font-size="14.00" fill="#000000">equiv_dp_paths_r</text>
</a>
</g>
</g>
<!-- DPath_equiv_dp_paths_r&#45;&gt;DPath_equiv_dp_path_transport -->
<g id="edge23" class="edge">
<title>DPath_equiv_dp_paths_r&#45;&gt;DPath_equiv_dp_path_transport</title>
<path fill="none" stroke="#000000" d="M4348.3316,-1584.9913C4260.2255,-1474.937 3916.4834,-1045.5653 3827.9105,-934.928"/>
<polygon fill="#000000" stroke="#000000" points="3830.4986,-932.5604 3821.5166,-926.9413 3825.034,-936.9352 3830.4986,-932.5604"/>
</g>
<!-- DPath_equiv_dp_paths_l -->
<g id="node20" class="node">
<title>DPath_equiv_dp_paths_l</title>
<g id="a_node20"><a xlink:href="DPath.html#equiv_dp_paths_l" xlink:title="equiv_dp_paths_l">
<ellipse fill="#f070d1" stroke="#000000" cx="4151" cy="-1610.8085" rx="90.9845" ry="18"/>
<ellipse fill="none" stroke="#000000" cx="4151" cy="-1610.8085" rx="94.9842" ry="22"/>
<ellipse fill="none" stroke="#000000" cx="4151" cy="-1610.8085" rx="98.9839" ry="26"/>
<text text-anchor="middle" x="4151" y="-1607.1085" font-family="Times,serif" font-size="14.00" fill="#000000">equiv_dp_paths_l</text>
</a>
</g>
</g>
<!-- DPath_equiv_dp_paths_l&#45;&gt;DPath_equiv_dp_path_transport -->
<g id="edge24" class="edge">
<title>DPath_equiv_dp_paths_l&#45;&gt;DPath_equiv_dp_path_transport</title>
<path fill="none" stroke="#000000" d="M4138.3489,-1584.9913C4084.5813,-1475.2679 3875.2783,-1048.1438 3820.2925,-935.9344"/>
<polygon fill="#000000" stroke="#000000" points="3823.4289,-934.3809 3815.8856,-926.9413 3817.1431,-937.4612 3823.4289,-934.3809"/>
</g>
<!-- DPath_dp_concat_p_pp -->
<g id="node21" class="node">
<title>DPath_dp_concat_p_pp</title>
<g id="a_node21"><a xlink:href="DPath.html#dp_concat_p_pp" xlink:title="dp_concat_p_pp">
<ellipse fill="#f070d1" stroke="#000000" cx="1041" cy="-1610.8085" rx="85.6029" ry="18"/>
<ellipse fill="none" stroke="#000000" cx="1041" cy="-1610.8085" rx="89.5941" ry="22"/>
<ellipse fill="none" stroke="#000000" cx="1041" cy="-1610.8085" rx="93.5852" ry="26"/>
<text text-anchor="middle" x="1041" y="-1607.1085" font-family="Times,serif" font-size="14.00" fill="#000000">dp_concat_p_pp</text>
</a>
</g>
</g>
<!-- DPath_dp_concat -->
<g id="node33" class="node">
<title>DPath_dp_concat</title>
<g id="a_node33"><a xlink:href="DPath.html#dp_concat" xlink:title="dp_concat">
<ellipse fill="#f070d1" stroke="#000000" cx="1041" cy="-908.8085" rx="58.4896" ry="18"/>
<text text-anchor="middle" x="1041" y="-905.1085" font-family="Times,serif" font-size="14.00" fill="#000000">dp_concat</text>
</a>
</g>
</g>
<!-- DPath_dp_concat_p_pp&#45;&gt;DPath_dp_concat -->
<g id="edge25" class="edge">
<title>DPath_dp_concat_p_pp&#45;&gt;DPath_dp_concat</title>
<path fill="none" stroke="#000000" d="M1041,-1584.5704C1041,-1474.6051 1041,-1051.278 1041,-937.2428"/>
<polygon fill="#000000" stroke="#000000" points="1044.5001,-936.9026 1041,-926.9026 1037.5001,-936.9027 1044.5001,-936.9026"/>
</g>
<!-- DPath_dp_concat_pp_p -->
<g id="node22" class="node">
<title>DPath_dp_concat_pp_p</title>
<g id="a_node22"><a xlink:href="DPath.html#dp_concat_pp_p" xlink:title="dp_concat_pp_p">
<ellipse fill="#f070d1" stroke="#000000" cx="649" cy="-1610.8085" rx="85.6029" ry="18"/>
<ellipse fill="none" stroke="#000000" cx="649" cy="-1610.8085" rx="89.5941" ry="22"/>
<ellipse fill="none" stroke="#000000" cx="649" cy="-1610.8085" rx="93.5852" ry="26"/>
<text text-anchor="middle" x="649" y="-1607.1085" font-family="Times,serif" font-size="14.00" fill="#000000">dp_concat_pp_p</text>
</a>
</g>
</g>
<!-- DPath_dp_concat_pp_p&#45;&gt;DPath_dp_concat -->
<g id="edge26" class="edge">
<title>DPath_dp_concat_pp_p&#45;&gt;DPath_dp_concat</title>
<path fill="none" stroke="#000000" d="M663.4164,-1584.9913C724.7536,-1475.1477 963.7172,-1047.2078 1026.058,-935.5668"/>
<polygon fill="#000000" stroke="#000000" points="1029.2304,-937.0644 1031.05,-926.627 1023.1187,-933.6516 1029.2304,-937.0644"/>
</g>
<!-- DPath_dp_concat_pV -->
<g id="node23" class="node">
<title>DPath_dp_concat_pV</title>
<g id="a_node23"><a xlink:href="DPath.html#dp_concat_pV" xlink:title="dp_concat_pV">
<ellipse fill="#f070d1" stroke="#000000" cx="845" cy="-1610.8085" rx="76.0824" ry="18"/>
<ellipse fill="none" stroke="#000000" cx="845" cy="-1610.8085" rx="80.0845" ry="22"/>
<ellipse fill="none" stroke="#000000" cx="845" cy="-1610.8085" rx="84.0865" ry="26"/>
<text text-anchor="middle" x="845" y="-1607.1085" font-family="Times,serif" font-size="14.00" fill="#000000">dp_concat_pV</text>
</a>
</g>
</g>
<!-- DPath_dp_inverse -->
<g id="node30" class="node">
<title>DPath_dp_inverse</title>
<g id="a_node30"><a xlink:href="DPath.html#dp_inverse" xlink:title="dp_inverse">
<ellipse fill="#f070d1" stroke="#000000" cx="1296" cy="-908.8085" rx="61.99" ry="18"/>
<text text-anchor="middle" x="1296" y="-905.1085" font-family="Times,serif" font-size="14.00" fill="#000000">dp_inverse</text>
</a>
</g>
</g>
<!-- DPath_dp_concat_pV&#45;&gt;DPath_dp_inverse -->
<g id="edge27" class="edge">
<title>DPath_dp_concat_pV&#45;&gt;DPath_dp_inverse</title>
<path fill="none" stroke="#000000" d="M861.5862,-1584.9913C932.2262,-1475.0373 1207.6382,-1046.3472 1279.0247,-935.2311"/>
<polygon fill="#000000" stroke="#000000" points="1282.092,-936.9322 1284.5525,-926.627 1276.2026,-933.1485 1282.092,-936.9322"/>
</g>
<!-- DPath_dp_concat_pV&#45;&gt;DPath_dp_concat -->
<g id="edge28" class="edge">
<title>DPath_dp_concat_pV&#45;&gt;DPath_dp_concat</title>
<path fill="none" stroke="#000000" d="M852.3257,-1584.5704C883.0903,-1474.3832 1001.6996,-1049.568 1033.2528,-936.5561"/>
<polygon fill="#000000" stroke="#000000" points="1036.6299,-937.4755 1035.9481,-926.9026 1029.8877,-935.593 1036.6299,-937.4755"/>
</g>
<!-- DPath_dp_concat_pV&#45;&gt;DPath_dp_id -->
<g id="edge29" class="edge">
<title>DPath_dp_concat_pV&#45;&gt;DPath_dp_id</title>
<path fill="none" stroke="#000000" d="M830.6204,-1584.9913C769.3727,-1475.0275 530.5639,-1046.271 468.7004,-935.2015"/>
<polygon fill="#000000" stroke="#000000" points="471.6746,-933.3484 463.7509,-926.3152 465.5592,-936.7546 471.6746,-933.3484"/>
</g>
<!-- DPath_dp_concat_Vp -->
<g id="node24" class="node">
<title>DPath_dp_concat_Vp</title>
<g id="a_node24"><a xlink:href="DPath.html#dp_concat_Vp" xlink:title="dp_concat_Vp">
<ellipse fill="#f070d1" stroke="#000000" cx="1237" cy="-1610.8085" rx="76.0824" ry="18"/>
<ellipse fill="none" stroke="#000000" cx="1237" cy="-1610.8085" rx="80.0845" ry="22"/>
<ellipse fill="none" stroke="#000000" cx="1237" cy="-1610.8085" rx="84.0865" ry="26"/>
<text text-anchor="middle" x="1237" y="-1607.1085" font-family="Times,serif" font-size="14.00" fill="#000000">dp_concat_Vp</text>
</a>
</g>
</g>
<!-- DPath_dp_concat_Vp&#45;&gt;DPath_dp_inverse -->
<g id="edge30" class="edge">
<title>DPath_dp_concat_Vp&#45;&gt;DPath_dp_inverse</title>
<path fill="none" stroke="#000000" d="M1239.2052,-1584.5704C1248.4566,-1474.4941 1284.0979,-1050.4233 1293.6392,-936.8985"/>
<polygon fill="#000000" stroke="#000000" points="1297.1294,-937.1607 1294.4793,-926.9026 1290.154,-936.5743 1297.1294,-937.1607"/>
</g>
<!-- DPath_dp_concat_Vp&#45;&gt;DPath_dp_concat -->
<g id="edge31" class="edge">
<title>DPath_dp_concat_Vp&#45;&gt;DPath_dp_concat</title>
<path fill="none" stroke="#000000" d="M1229.6743,-1584.5704C1198.9097,-1474.3832 1080.3004,-1049.568 1048.7472,-936.5561"/>
<polygon fill="#000000" stroke="#000000" points="1052.1123,-935.593 1046.0519,-926.9026 1045.3701,-937.4755 1052.1123,-935.593"/>
</g>
<!-- DPath_dp_concat_Vp&#45;&gt;DPath_dp_id -->
<g id="edge32" class="edge">
<title>DPath_dp_concat_Vp&#45;&gt;DPath_dp_id</title>
<path fill="none" stroke="#000000" d="M1209.1326,-1585.8239C1086.6305,-1475.9944 596.8438,-1036.8753 479.4039,-931.5844"/>
<polygon fill="#000000" stroke="#000000" points="481.6895,-928.9328 471.9074,-924.8633 477.0167,-934.1448 481.6895,-928.9328"/>
</g>
<!-- DPath_dp_concat_1p -->
<g id="node25" class="node">
<title>DPath_dp_concat_1p</title>
<g id="a_node25"><a xlink:href="DPath.html#dp_concat_1p" xlink:title="dp_concat_1p">
<ellipse fill="#f070d1" stroke="#000000" cx="454" cy="-1610.8085" rx="75.297" ry="18"/>
<ellipse fill="none" stroke="#000000" cx="454" cy="-1610.8085" rx="79.2919" ry="22"/>
<ellipse fill="none" stroke="#000000" cx="454" cy="-1610.8085" rx="83.2868" ry="26"/>
<text text-anchor="middle" x="454" y="-1607.1085" font-family="Times,serif" font-size="14.00" fill="#000000">dp_concat_1p</text>
</a>
</g>
</g>
<!-- DPath_dp_concat_1p&#45;&gt;DPath_dp_concat -->
<g id="edge33" class="edge">
<title>DPath_dp_concat_1p&#45;&gt;DPath_dp_concat</title>
<path fill="none" stroke="#000000" d="M475.2384,-1585.4092C566.8859,-1475.8069 927.9865,-1043.9626 1019.7184,-934.2593"/>
<polygon fill="#000000" stroke="#000000" points="1022.6001,-936.2693 1026.3299,-926.3526 1017.2301,-931.7789 1022.6001,-936.2693"/>
</g>
<!-- DPath_dp_concat_1p&#45;&gt;DPath_dp_id -->
<g id="edge34" class="edge">
<title>DPath_dp_concat_1p&#45;&gt;DPath_dp_id</title>
<path fill="none" stroke="#000000" d="M454,-1584.5704C454,-1474.6051 454,-1051.278 454,-937.2428"/>
<polygon fill="#000000" stroke="#000000" points="457.5001,-936.9026 454,-926.9026 450.5001,-936.9027 457.5001,-936.9026"/>
</g>
<!-- DPath_dp_concat_p1 -->
<g id="node26" class="node">
<title>DPath_dp_concat_p1</title>
<g id="a_node26"><a xlink:href="DPath.html#dp_concat_p1" xlink:title="dp_concat_p1">
<ellipse fill="#f070d1" stroke="#000000" cx="269" cy="-1610.8085" rx="75.297" ry="18"/>
<ellipse fill="none" stroke="#000000" cx="269" cy="-1610.8085" rx="79.2919" ry="22"/>
<ellipse fill="none" stroke="#000000" cx="269" cy="-1610.8085" rx="83.2868" ry="26"/>
<text text-anchor="middle" x="269" y="-1607.1085" font-family="Times,serif" font-size="14.00" fill="#000000">dp_concat_p1</text>
</a>
</g>
</g>
<!-- DPath_dp_concat_p1&#45;&gt;DPath_dp_concat -->
<g id="edge35" class="edge">
<title>DPath_dp_concat_p1&#45;&gt;DPath_dp_concat</title>
<path fill="none" stroke="#000000" d="M296.4759,-1585.8239C416.7319,-1476.4719 895.9706,-1040.6875 1014.4219,-932.9766"/>
<polygon fill="#000000" stroke="#000000" points="1016.9629,-935.3967 1022.0067,-926.0795 1012.2535,-930.2178 1016.9629,-935.3967"/>
</g>
<!-- DPath_dp_concat_p1&#45;&gt;DPath_dp_id -->
<g id="edge36" class="edge">
<title>DPath_dp_concat_p1&#45;&gt;DPath_dp_id</title>
<path fill="none" stroke="#000000" d="M275.9146,-1584.5704C304.9233,-1474.4941 416.6798,-1050.4233 446.5974,-936.8985"/>
<polygon fill="#000000" stroke="#000000" points="450.0676,-937.4644 449.2316,-926.9026 443.2987,-935.6805 450.0676,-937.4644"/>
</g>
<!-- DPath_dp_const_pp -->
<g id="node27" class="node">
<title>DPath_dp_const_pp</title>
<g id="a_node27"><a xlink:href="DPath.html#dp_const_pp" xlink:title="dp_const_pp">
<ellipse fill="#f070d1" stroke="#000000" cx="1417" cy="-1610.8085" rx="69.5832" ry="18"/>
<ellipse fill="none" stroke="#000000" cx="1417" cy="-1610.8085" rx="73.5854" ry="22"/>
<ellipse fill="none" stroke="#000000" cx="1417" cy="-1610.8085" rx="77.5877" ry="26"/>
<text text-anchor="middle" x="1417" y="-1607.1085" font-family="Times,serif" font-size="14.00" fill="#000000">dp_const_pp</text>
</a>
</g>
</g>
<!-- DPath_dp_const_pp&#45;&gt;DPath_dp_concat -->
<g id="edge37" class="edge">
<title>DPath_dp_const_pp&#45;&gt;DPath_dp_concat</title>
<path fill="none" stroke="#000000" d="M1403.172,-1584.9913C1344.3384,-1475.1477 1115.1284,-1047.2078 1055.3321,-935.5668"/>
<polygon fill="#000000" stroke="#000000" points="1058.3507,-933.7896 1050.5438,-926.627 1052.1801,-937.0947 1058.3507,-933.7896"/>
</g>
<!-- DPath_equiv_dp_const -->
<g id="node36" class="node">
<title>DPath_equiv_dp_const</title>
<g id="a_node36"><a xlink:href="DPath.html#equiv_dp_const" xlink:title="equiv_dp_const">
<ellipse fill="#f070d1" stroke="#000000" cx="1519" cy="-908.8085" rx="83.3857" ry="18"/>
<text text-anchor="middle" x="1519" y="-905.1085" font-family="Times,serif" font-size="14.00" fill="#000000">equiv_dp_const</text>
</a>
</g>
</g>
<!-- DPath_dp_const_pp&#45;&gt;DPath_equiv_dp_const -->
<g id="edge38" class="edge">
<title>DPath_dp_const_pp&#45;&gt;DPath_equiv_dp_const</title>
<path fill="none" stroke="#000000" d="M1420.8124,-1584.5704C1436.8064,-1474.4941 1498.4235,-1050.4233 1514.9185,-936.8985"/>
<polygon fill="#000000" stroke="#000000" points="1518.3966,-937.302 1516.3709,-926.9026 1511.4693,-936.2954 1518.3966,-937.302"/>
</g>
<!-- DPath_dp_apD_V -->
<g id="node28" class="node">
<title>DPath_dp_apD_V</title>
<g id="a_node28"><a xlink:href="DPath.html#dp_apD_V" xlink:title="dp_apD_V">
<ellipse fill="#f070d1" stroke="#000000" cx="1737" cy="-1610.8085" rx="57.7089" ry="18"/>
<ellipse fill="none" stroke="#000000" cx="1737" cy="-1610.8085" rx="61.6995" ry="22"/>
<ellipse fill="none" stroke="#000000" cx="1737" cy="-1610.8085" rx="65.6901" ry="26"/>
<text text-anchor="middle" x="1737" y="-1607.1085" font-family="Times,serif" font-size="14.00" fill="#000000">dp_apD_V</text>
</a>
</g>
</g>
<!-- DPath_dp_apD_V&#45;&gt;DPath_dp_inverse -->
<g id="edge39" class="edge">
<title>DPath_dp_apD_V&#45;&gt;DPath_dp_inverse</title>
<path fill="none" stroke="#000000" d="M1721.044,-1585.4092C1652.4044,-1476.1461 1382.5817,-1046.6323 1312.634,-935.287"/>
<polygon fill="#000000" stroke="#000000" points="1315.5008,-933.2709 1307.2176,-926.665 1309.5734,-936.9946 1315.5008,-933.2709"/>
</g>
<!-- DPath_dp_apD_V&#45;&gt;DPath_dp_apD -->
<g id="edge40" class="edge">
<title>DPath_dp_apD_V&#45;&gt;DPath_dp_apD</title>
<path fill="none" stroke="#000000" d="M1746.7458,-1584.9913C1788.1276,-1475.3685 1949.1063,-1048.9268 1991.6433,-936.2438"/>
<polygon fill="#000000" stroke="#000000" points="1995.0164,-937.2187 1995.2736,-926.627 1988.4674,-934.7465 1995.0164,-937.2187"/>
</g>
<!-- DPath_dp_apD_pp -->
<g id="node29" class="node">
<title>DPath_dp_apD_pp</title>
<g id="a_node29"><a xlink:href="DPath.html#dp_apD_pp" xlink:title="dp_apD_pp">
<ellipse fill="#f070d1" stroke="#000000" cx="1583" cy="-1610.8085" rx="62.3011" ry="18"/>
<ellipse fill="none" stroke="#000000" cx="1583" cy="-1610.8085" rx="66.2951" ry="22"/>
<ellipse fill="none" stroke="#000000" cx="1583" cy="-1610.8085" rx="70.2891" ry="26"/>
<text text-anchor="middle" x="1583" y="-1607.1085" font-family="Times,serif" font-size="14.00" fill="#000000">dp_apD_pp</text>
</a>
</g>
</g>
<!-- DPath_dp_apD_pp&#45;&gt;DPath_dp_concat -->
<g id="edge41" class="edge">
<title>DPath_dp_apD_pp&#45;&gt;DPath_dp_concat</title>
<path fill="none" stroke="#000000" d="M1563.3897,-1585.4092C1478.8529,-1475.9168 1146.0177,-1044.8277 1060.9054,-934.59"/>
<polygon fill="#000000" stroke="#000000" points="1063.4272,-932.129 1054.5455,-926.3526 1057.8864,-936.4069 1063.4272,-932.129"/>
</g>
<!-- DPath_dp_apD_pp&#45;&gt;DPath_dp_apD -->
<g id="edge42" class="edge">
<title>DPath_dp_apD_pp&#45;&gt;DPath_dp_apD</title>
<path fill="none" stroke="#000000" d="M1598.16,-1585.4092C1663.3812,-1476.1364 1919.7832,-1046.5559 1986.2136,-935.2573"/>
<polygon fill="#000000" stroke="#000000" points="1989.4087,-936.7332 1991.5285,-926.3526 1983.3979,-933.1456 1989.4087,-936.7332"/>
</g>
<!-- DPath_dp_inverse&#45;&gt;DPath_DPath -->
<g id="edge43" class="edge">
<title>DPath_dp_inverse&#45;&gt;DPath_DPath</title>
<path fill="none" stroke="#000000" d="M1311.7844,-891.0788C1391.5071,-801.5311 1749.7181,-399.1744 1842.1711,-295.3275"/>
<polygon fill="#000000" stroke="#000000" points="1845.0515,-297.3558 1849.0868,-287.5595 1839.8232,-292.7011 1845.0515,-297.3558"/>
</g>
<!-- DPath_dp_concat_l -->
<g id="node31" class="node">
<title>DPath_dp_concat_l</title>
<g id="a_node31"><a xlink:href="DPath.html#dp_concat_l" xlink:title="dp_concat_l">
<ellipse fill="#f070d1" stroke="#000000" cx="1864" cy="-908.8085" rx="66.1109" ry="18"/>
<ellipse fill="none" stroke="#000000" cx="1864" cy="-908.8085" rx="70.0999" ry="22"/>
<ellipse fill="none" stroke="#000000" cx="1864" cy="-908.8085" rx="74.0888" ry="26"/>
<text text-anchor="middle" x="1864" y="-905.1085" font-family="Times,serif" font-size="14.00" fill="#000000">dp_concat_l</text>
</a>
</g>
</g>
<!-- DPath_dp_concat_l&#45;&gt;DPath_DPath -->
<g id="edge44" class="edge">
<title>DPath_dp_concat_l&#45;&gt;DPath_DPath</title>
<path fill="none" stroke="#000000" d="M1864,-882.6087C1864,-780.0187 1864,-406.016 1864,-299.3707"/>
<polygon fill="#000000" stroke="#000000" points="1867.5001,-299.0768 1864,-289.0768 1860.5001,-299.0769 1867.5001,-299.0768"/>
</g>
<!-- DPath_dp_concat_r -->
<g id="node32" class="node">
<title>DPath_dp_concat_r</title>
<g id="a_node32"><a xlink:href="DPath.html#dp_concat_r" xlink:title="dp_concat_r">
<ellipse fill="#f070d1" stroke="#000000" cx="1696" cy="-908.8085" rx="67.6782" ry="18"/>
<ellipse fill="none" stroke="#000000" cx="1696" cy="-908.8085" rx="71.6831" ry="22"/>
<ellipse fill="none" stroke="#000000" cx="1696" cy="-908.8085" rx="75.6881" ry="26"/>
<text text-anchor="middle" x="1696" y="-905.1085" font-family="Times,serif" font-size="14.00" fill="#000000">dp_concat_r</text>
</a>
</g>
</g>
<!-- DPath_dp_concat_r&#45;&gt;DPath_DPath -->
<g id="edge45" class="edge">
<title>DPath_dp_concat_r&#45;&gt;DPath_DPath</title>
<path fill="none" stroke="#000000" d="M1702.899,-882.6087C1729.9704,-779.8016 1828.8139,-404.432 1856.6562,-298.6973"/>
<polygon fill="#000000" stroke="#000000" points="1860.1059,-299.3411 1859.2678,-288.7795 1853.3367,-297.5586 1860.1059,-299.3411"/>
</g>
<!-- DPath_dp_concat&#45;&gt;DPath_DPath -->
<g id="edge46" class="edge">
<title>DPath_dp_concat&#45;&gt;DPath_DPath</title>
<path fill="none" stroke="#000000" d="M1062.5902,-892.0714C1176.3858,-803.8557 1706.2043,-393.1337 1835.49,-292.9097"/>
<polygon fill="#000000" stroke="#000000" points="1837.9986,-295.3936 1843.7576,-286.5006 1833.7098,-289.8613 1837.9986,-295.3936"/>
</g>
<!-- DPath_dp_apD_const_ -->
<g id="node34" class="node">
<title>DPath_dp_apD_const_</title>
<g id="a_node34"><a xlink:href="DPath.html#dp_apD_const'" xlink:title="dp_apD_const&#39;">
<ellipse fill="#f070d1" stroke="#000000" cx="1897" cy="-2312.8085" rx="78.7731" ry="18"/>
<ellipse fill="none" stroke="#000000" cx="1897" cy="-2312.8085" rx="82.7797" ry="22"/>
<ellipse fill="none" stroke="#000000" cx="1897" cy="-2312.8085" rx="86.7863" ry="26"/>
<text text-anchor="middle" x="1897" y="-2309.1085" font-family="Times,serif" font-size="14.00" fill="#000000">dp_apD_const&#39;</text>
</a>
</g>
</g>
<!-- DPath_dp_apD_const -->
<g id="node35" class="node">
<title>DPath_dp_apD_const</title>
<g id="a_node35"><a xlink:href="DPath.html#dp_apD_const" xlink:title="dp_apD_const">
<ellipse fill="#f070d1" stroke="#000000" cx="1897" cy="-1610.8085" rx="76.0865" ry="18"/>
<text text-anchor="middle" x="1897" y="-1607.1085" font-family="Times,serif" font-size="14.00" fill="#000000">dp_apD_const</text>
</a>
</g>
</g>
<!-- DPath_dp_apD_const_&#45;&gt;DPath_dp_apD_const -->
<g id="edge47" class="edge">
<title>DPath_dp_apD_const_&#45;&gt;DPath_dp_apD_const</title>
<path fill="none" stroke="#000000" d="M1897,-2286.5704C1897,-2176.6051 1897,-1753.278 1897,-1639.2428"/>
<polygon fill="#000000" stroke="#000000" points="1900.5001,-1638.9026 1897,-1628.9026 1893.5001,-1638.9027 1900.5001,-1638.9026"/>
</g>
<!-- DPath_dp_apD_const&#45;&gt;DPath_equiv_dp_const -->
<g id="edge48" class="edge">
<title>DPath_dp_apD_const&#45;&gt;DPath_equiv_dp_const</title>
<path fill="none" stroke="#000000" d="M1887.2763,-1592.7501C1835.7979,-1497.1474 1595.1052,-1050.1466 1533.4285,-935.6042"/>
<polygon fill="#000000" stroke="#000000" points="1536.4821,-933.8928 1528.6594,-926.7474 1530.3188,-937.2115 1536.4821,-933.8928"/>
</g>
<!-- DPath_dp_apD_const&#45;&gt;DPath_dp_apD -->
<g id="edge49" class="edge">
<title>DPath_dp_apD_const&#45;&gt;DPath_dp_apD</title>
<path fill="none" stroke="#000000" d="M1899.701,-1592.7501C1913.942,-1497.5394 1980.3123,-1053.8065 1997.7788,-937.0299"/>
<polygon fill="#000000" stroke="#000000" points="2001.2508,-937.4774 1999.2686,-927.0697 1994.3278,-936.4419 2001.2508,-937.4774"/>
</g>
<!-- DPath_equiv_dp_const&#45;&gt;DPath_DPath -->
<g id="edge50" class="edge">
<title>DPath_equiv_dp_const&#45;&gt;DPath_DPath</title>
<path fill="none" stroke="#000000" d="M1528.7694,-890.7421C1577.2548,-801.0793 1792.0054,-403.9463 1849.6937,-297.2647"/>
<polygon fill="#000000" stroke="#000000" points="1852.801,-298.8767 1854.4789,-288.4155 1846.6436,-295.547 1852.801,-298.8767"/>
</g>
<!-- DPath_dp_path_transport_apD -->
<g id="node37" class="node">
<title>DPath_dp_path_transport_apD</title>
<g id="a_node37"><a xlink:href="DPath.html#dp_path_transport_apD" xlink:title="dp_path_transport_apD">
<ellipse fill="#f070d1" stroke="#000000" cx="2815" cy="-1610.8085" rx="120.4642" ry="18"/>
<ellipse fill="none" stroke="#000000" cx="2815" cy="-1610.8085" rx="124.4716" ry="22"/>
<ellipse fill="none" stroke="#000000" cx="2815" cy="-1610.8085" rx="128.4791" ry="26"/>
<text text-anchor="middle" x="2815" y="-1607.1085" font-family="Times,serif" font-size="14.00" fill="#000000">dp_path_transport_apD</text>
</a>
</g>
</g>
<!-- DPath_dp_path_transport_apD&#45;&gt;DPath_dp_apD -->
<g id="edge51" class="edge">
<title>DPath_dp_path_transport_apD&#45;&gt;DPath_dp_apD</title>
<path fill="none" stroke="#000000" d="M2785.5846,-1585.4092C2657.8531,-1475.117 2152.2137,-1038.5133 2029.1205,-932.2262"/>
<polygon fill="#000000" stroke="#000000" points="2031.107,-929.3172 2021.2507,-925.4308 2026.5321,-934.6154 2031.107,-929.3172"/>
</g>
<!-- DPath_dp_path_transport_apD&#45;&gt;DPath_equiv_dp_path_transport -->
<g id="edge52" class="edge">
<title>DPath_dp_path_transport_apD&#45;&gt;DPath_equiv_dp_path_transport</title>
<path fill="none" stroke="#000000" d="M2850.5983,-1585.6169C3005.7444,-1475.826 3621.8275,-1039.8478 3773.2512,-932.6912"/>
<polygon fill="#000000" stroke="#000000" points="3775.5989,-935.3176 3781.7399,-926.684 3771.5553,-929.6036 3775.5989,-935.3176"/>
</g>
<!-- DPath_dp_apD&#45;&gt;DPath_DPath -->
<g id="edge53" class="edge">
<title>DPath_dp_apD&#45;&gt;DPath_DPath</title>
<path fill="none" stroke="#000000" d="M1998.0922,-890.7421C1978.7991,-801.5462 1893.6906,-408.0736 1870.088,-298.9546"/>
<polygon fill="#000000" stroke="#000000" points="1873.4746,-298.0554 1867.9395,-289.0214 1866.6328,-299.5354 1873.4746,-298.0554"/>
</g>
<!-- DPath_DPath_ind -->
<g id="node39" class="node">
<title>DPath_DPath_ind</title>
<g id="a_node39"><a xlink:href="DPath.html#DPath_ind" xlink:title="DPath_ind">
<ellipse fill="#f070d1" stroke="#000000" cx="82" cy="-1610.8085" rx="58.4902" ry="18"/>
<ellipse fill="none" stroke="#000000" cx="82" cy="-1610.8085" rx="62.4899" ry="22"/>
<ellipse fill="none" stroke="#000000" cx="82" cy="-1610.8085" rx="66.4896" ry="26"/>
<text text-anchor="middle" x="82" y="-1607.1085" font-family="Times,serif" font-size="14.00" fill="#000000">DPath_ind</text>
</a>
</g>
</g>
<!-- DPath_DPath_ind&#45;&gt;DPath_dp_id -->
<g id="edge54" class="edge">
<title>DPath_DPath_ind&#45;&gt;DPath_dp_id</title>
<path fill="none" stroke="#000000" d="M95.6809,-1584.9913C153.9523,-1475.0275 381.1566,-1046.271 440.0139,-935.2015"/>
<polygon fill="#000000" stroke="#000000" points="443.1331,-936.7901 444.7229,-926.3152 436.9479,-933.5125 443.1331,-936.7901"/>
</g>
<!-- DPath_dp_id&#45;&gt;DPath_DPath -->
<g id="edge55" class="edge">
<title>DPath_dp_id&#45;&gt;DPath_DPath</title>
<path fill="none" stroke="#000000" d="M480.9076,-896.6333C655.1868,-817.775 1623.377,-379.6861 1826.5813,-287.7398"/>
<polygon fill="#000000" stroke="#000000" points="1828.2748,-290.8152 1835.9426,-283.5039 1825.389,-284.4377 1828.2748,-290.8152"/>
</g>
<!-- DPath_dp_ishprop -->
<g id="node41" class="node">
<title>DPath_dp_ishprop</title>
<g id="a_node41"><a xlink:href="DPath.html#dp_ishprop" xlink:title="dp_ishprop">
<ellipse fill="#f070d1" stroke="#000000" cx="3964" cy="-1610.8085" rx="62.3011" ry="18"/>
<ellipse fill="none" stroke="#000000" cx="3964" cy="-1610.8085" rx="66.2951" ry="22"/>
<ellipse fill="none" stroke="#000000" cx="3964" cy="-1610.8085" rx="70.2891" ry="26"/>
<text text-anchor="middle" x="3964" y="-1607.1085" font-family="Times,serif" font-size="14.00" fill="#000000">dp_ishprop</text>
</a>
</g>
</g>
<!-- DPath_dp_ishprop&#45;&gt;DPath_equiv_dp_path_transport -->
<g id="edge56" class="edge">
<title>DPath_dp_ishprop&#45;&gt;DPath_equiv_dp_path_transport</title>
<path fill="none" stroke="#000000" d="M3958.132,-1584.5704C3933.5137,-1474.4941 3838.6717,-1050.4233 3813.2822,-936.8985"/>
<polygon fill="#000000" stroke="#000000" points="3816.645,-935.8976 3811.0467,-926.9026 3809.8137,-937.4255 3816.645,-935.8976"/>
</g>
<!-- DPath_istrunc_dp -->
<g id="node42" class="node">
<title>DPath_istrunc_dp</title>
<g id="a_node42"><a xlink:href="DPath.html#istrunc_dp" xlink:title="istrunc_dp">
<ellipse fill="#f070d1" stroke="#000000" cx="3807" cy="-1610.8085" rx="60.3958" ry="18"/>
<ellipse fill="none" stroke="#000000" cx="3807" cy="-1610.8085" rx="64.3926" ry="22"/>
<ellipse fill="none" stroke="#000000" cx="3807" cy="-1610.8085" rx="68.3893" ry="26"/>
<text text-anchor="middle" x="3807" y="-1607.1085" font-family="Times,serif" font-size="14.00" fill="#000000">istrunc_dp</text>
</a>
</g>
</g>
<!-- DPath_istrunc_dp&#45;&gt;DPath_equiv_dp_path_transport -->
<g id="edge57" class="edge">
<title>DPath_istrunc_dp&#45;&gt;DPath_equiv_dp_path_transport</title>
<path fill="none" stroke="#000000" d="M3807,-1584.5704C3807,-1474.6051 3807,-1051.278 3807,-937.2428"/>
<polygon fill="#000000" stroke="#000000" points="3810.5001,-936.9026 3807,-926.9026 3803.5001,-936.9027 3810.5001,-936.9026"/>
</g>
<!-- DPath_equiv_dp_path_transport&#45;&gt;DPath_DPath -->
<g id="edge58" class="edge">
<title>DPath_equiv_dp_path_transport&#45;&gt;DPath_DPath</title>
<path fill="none" stroke="#000000" d="M3756.5242,-892.2343C3480.5101,-801.6028 2157.1028,-367.0512 1905.3947,-284.4007"/>
<polygon fill="#000000" stroke="#000000" points="1906.4782,-281.0727 1895.8854,-281.2783 1904.2944,-287.7234 1906.4782,-281.0727"/>
</g>
</g>
</svg>
