<?xml version="1.0" encoding="UTF-8" standalone="no"?>
<!DOCTYPE svg PUBLIC "-//W3C//DTD SVG 1.1//EN"
 "http://www.w3.org/Graphics/SVG/1.1/DTD/svg11.dtd">
<!-- Generated by graphviz version 2.40.1 (20161225.0304)
 -->
<!-- Title: HoTT_WildCat_Square Pages: 1 -->
<svg width="3759pt" height="1884pt"
 viewBox="0.00 0.00 3759.00 1883.50" xmlns="http://www.w3.org/2000/svg" xmlns:xlink="http://www.w3.org/1999/xlink">
<g id="graph0" class="graph" transform="scale(1 1) rotate(0) translate(4 1879.5)">
<title>HoTT_WildCat_Square</title>
<polygon fill="#ffffff" stroke="transparent" points="-4,4 -4,-1879.5 3755,-1879.5 3755,4 -4,4"/>
<g id="clust1" class="cluster">
<title>cluster_Square</title>
<polygon fill="#ffffc3" stroke="#000000" points="8,-56.1948 8,-1819.3052 3743,-1819.3052 3743,-56.1948 8,-56.1948"/>
<text text-anchor="middle" x="42" y="-1804.1052" font-family="Times,serif" font-size="14.00" fill="#000000">Square</text>
</g>
<!-- Square_fmap_square -->
<g id="node1" class="node">
<title>Square_fmap_square</title>
<g id="a_node1"><a xlink:href="Square.html#fmap_square" xlink:title="fmap_square">
<ellipse fill="#f070d1" stroke="#000000" cx="3656" cy="-801.1948" rx="70.7036" ry="18"/>
<ellipse fill="none" stroke="#000000" cx="3656" cy="-801.1948" rx="74.6957" ry="22"/>
<ellipse fill="none" stroke="#000000" cx="3656" cy="-801.1948" rx="78.6877" ry="26"/>
<text text-anchor="middle" x="3656" y="-797.4948" font-family="Times,serif" font-size="14.00" fill="#000000">fmap_square</text>
</a>
</g>
</g>
<!-- Square_Square -->
<g id="node27" class="node">
<title>Square_Square</title>
<g id="a_node27"><a xlink:href="Square.html#Square" xlink:title="Square">
<ellipse fill="#f070d1" stroke="#000000" cx="1722" cy="-239.1948" rx="44.393" ry="18"/>
<text text-anchor="middle" x="1722" y="-235.4948" font-family="Times,serif" font-size="14.00" fill="#000000">Square</text>
</a>
</g>
</g>
<!-- Square_fmap_square&#45;&gt;Square_Square -->
<g id="edge1" class="edge">
<title>Square_fmap_square&#45;&gt;Square_Square</title>
<path fill="none" stroke="#000000" d="M3597.3151,-783.8144C3587.5279,-780.9277 3577.4788,-777.9711 3568,-775.1948 2850.7394,-565.106 1975.6412,-312.3841 1767.8113,-252.4106"/>
<polygon fill="#000000" stroke="#000000" points="1768.7193,-249.0298 1758.1409,-249.6201 1766.7785,-255.7554 1768.7193,-249.0298"/>
</g>
<!-- Square_move_top_right -->
<g id="node2" class="node">
<title>Square_move_top_right</title>
<g id="a_node2"><a xlink:href="Square.html#move_top_right" xlink:title="move_top_right">
<ellipse fill="#f070d1" stroke="#000000" cx="3468" cy="-801.1948" rx="83.3687" ry="18"/>
<ellipse fill="none" stroke="#000000" cx="3468" cy="-801.1948" rx="87.3772" ry="22"/>
<ellipse fill="none" stroke="#000000" cx="3468" cy="-801.1948" rx="91.3856" ry="26"/>
<text text-anchor="middle" x="3468" y="-797.4948" font-family="Times,serif" font-size="14.00" fill="#000000">move_top_right</text>
</a>
</g>
</g>
<!-- Square_move_top_right&#45;&gt;Square_Square -->
<g id="edge2" class="edge">
<title>Square_move_top_right&#45;&gt;Square_Square</title>
<path fill="none" stroke="#000000" d="M3407.3917,-781.6862C3132.4938,-693.2025 2005.8909,-330.5732 1766.7485,-253.5983"/>
<polygon fill="#000000" stroke="#000000" points="1767.5896,-250.1923 1756.9982,-250.4599 1765.4448,-256.8556 1767.5896,-250.1923"/>
</g>
<!-- Square_move_right_top -->
<g id="node3" class="node">
<title>Square_move_right_top</title>
<g id="a_node3"><a xlink:href="Square.html#move_right_top" xlink:title="move_right_top">
<ellipse fill="#f070d1" stroke="#000000" cx="3268" cy="-801.1948" rx="83.3687" ry="18"/>
<ellipse fill="none" stroke="#000000" cx="3268" cy="-801.1948" rx="87.3772" ry="22"/>
<ellipse fill="none" stroke="#000000" cx="3268" cy="-801.1948" rx="91.3856" ry="26"/>
<text text-anchor="middle" x="3268" y="-797.4948" font-family="Times,serif" font-size="14.00" fill="#000000">move_right_top</text>
</a>
</g>
</g>
<!-- Square_move_right_top&#45;&gt;Square_Square -->
<g id="edge3" class="edge">
<title>Square_move_right_top&#45;&gt;Square_Square</title>
<path fill="none" stroke="#000000" d="M3211.6045,-780.6939C2964.6448,-690.9195 1981.2271,-333.4287 1764.43,-254.6189"/>
<polygon fill="#000000" stroke="#000000" points="1765.5767,-251.3117 1754.9827,-251.1846 1763.1852,-257.8905 1765.5767,-251.3117"/>
</g>
<!-- Square_move_left_bottom -->
<g id="node4" class="node">
<title>Square_move_left_bottom</title>
<g id="a_node4"><a xlink:href="Square.html#move_left_bottom" xlink:title="move_left_bottom">
<ellipse fill="#f070d1" stroke="#000000" cx="3057" cy="-801.1948" rx="94.4649" ry="18"/>
<ellipse fill="none" stroke="#000000" cx="3057" cy="-801.1948" rx="98.4744" ry="22"/>
<ellipse fill="none" stroke="#000000" cx="3057" cy="-801.1948" rx="102.4838" ry="26"/>
<text text-anchor="middle" x="3057" y="-797.4948" font-family="Times,serif" font-size="14.00" fill="#000000">move_left_bottom</text>
</a>
</g>
</g>
<!-- Square_move_left_bottom&#45;&gt;Square_Square -->
<g id="edge4" class="edge">
<title>Square_move_left_bottom&#45;&gt;Square_Square</title>
<path fill="none" stroke="#000000" d="M3003.8426,-778.8169C2784.9359,-686.6629 1955.6543,-337.5571 1762.4191,-256.2101"/>
<polygon fill="#000000" stroke="#000000" points="1763.4978,-252.8668 1752.9232,-252.2126 1760.7818,-259.3184 1763.4978,-252.8668"/>
</g>
<!-- Square_move_bottom_left -->
<g id="node5" class="node">
<title>Square_move_bottom_left</title>
<g id="a_node5"><a xlink:href="Square.html#move_bottom_left" xlink:title="move_bottom_left">
<ellipse fill="#f070d1" stroke="#000000" cx="2835" cy="-801.1948" rx="94.4649" ry="18"/>
<ellipse fill="none" stroke="#000000" cx="2835" cy="-801.1948" rx="98.4744" ry="22"/>
<ellipse fill="none" stroke="#000000" cx="2835" cy="-801.1948" rx="102.4838" ry="26"/>
<text text-anchor="middle" x="2835" y="-797.4948" font-family="Times,serif" font-size="14.00" fill="#000000">move_bottom_left</text>
</a>
</g>
</g>
<!-- Square_move_bottom_left&#45;&gt;Square_Square -->
<g id="edge5" class="edge">
<title>Square_move_bottom_left&#45;&gt;Square_Square</title>
<path fill="none" stroke="#000000" d="M2788.944,-777.9392C2605.1273,-685.1224 1925.8934,-342.149 1759.1474,-257.952"/>
<polygon fill="#000000" stroke="#000000" points="1760.3047,-254.6155 1749.8005,-253.2324 1757.1495,-260.8641 1760.3047,-254.6155"/>
</g>
<!-- Square_whiskerRT -->
<g id="node6" class="node">
<title>Square_whiskerRT</title>
<g id="a_node6"><a xlink:href="Square.html#whiskerRT" xlink:title="whiskerRT">
<ellipse fill="#f070d1" stroke="#000000" cx="2646" cy="-801.1948" rx="61.1783" ry="18"/>
<ellipse fill="none" stroke="#000000" cx="2646" cy="-801.1948" rx="65.1838" ry="22"/>
<ellipse fill="none" stroke="#000000" cx="2646" cy="-801.1948" rx="69.1893" ry="26"/>
<text text-anchor="middle" x="2646" y="-797.4948" font-family="Times,serif" font-size="14.00" fill="#000000">whiskerRT</text>
</a>
</g>
</g>
<!-- Square_whiskerRT&#45;&gt;Square_Square -->
<g id="edge6" class="edge">
<title>Square_whiskerRT&#45;&gt;Square_Square</title>
<path fill="none" stroke="#000000" d="M2609.4935,-778.9906C2460.4961,-688.3666 1899.5345,-347.1757 1755.7468,-259.7204"/>
<polygon fill="#000000" stroke="#000000" points="1757.2505,-256.5385 1746.8879,-254.3322 1753.6129,-262.5191 1757.2505,-256.5385"/>
</g>
<!-- Square_whiskerTR -->
<g id="node7" class="node">
<title>Square_whiskerTR</title>
<g id="a_node7"><a xlink:href="Square.html#whiskerTR" xlink:title="whiskerTR">
<ellipse fill="#f070d1" stroke="#000000" cx="2490" cy="-801.1948" rx="61.1783" ry="18"/>
<ellipse fill="none" stroke="#000000" cx="2490" cy="-801.1948" rx="65.1838" ry="22"/>
<ellipse fill="none" stroke="#000000" cx="2490" cy="-801.1948" rx="69.1893" ry="26"/>
<text text-anchor="middle" x="2490" y="-797.4948" font-family="Times,serif" font-size="14.00" fill="#000000">whiskerTR</text>
</a>
</g>
</g>
<!-- Square_whiskerTR&#45;&gt;Square_Square -->
<g id="edge7" class="edge">
<title>Square_whiskerTR&#45;&gt;Square_Square</title>
<path fill="none" stroke="#000000" d="M2457.9778,-777.7618C2332.2527,-685.7599 1873.3728,-349.965 1751.7512,-260.9658"/>
<polygon fill="#000000" stroke="#000000" points="1753.7235,-258.0721 1743.5865,-254.9911 1749.5897,-263.7211 1753.7235,-258.0721"/>
</g>
<!-- Square_whiskerLB -->
<g id="node8" class="node">
<title>Square_whiskerLB</title>
<g id="a_node8"><a xlink:href="Square.html#whiskerLB" xlink:title="whiskerLB">
<ellipse fill="#f070d1" stroke="#000000" cx="2334" cy="-801.1948" rx="61.1783" ry="18"/>
<ellipse fill="none" stroke="#000000" cx="2334" cy="-801.1948" rx="65.1838" ry="22"/>
<ellipse fill="none" stroke="#000000" cx="2334" cy="-801.1948" rx="69.1893" ry="26"/>
<text text-anchor="middle" x="2334" y="-797.4948" font-family="Times,serif" font-size="14.00" fill="#000000">whiskerLB</text>
</a>
</g>
</g>
<!-- Square_whiskerLB&#45;&gt;Square_Square -->
<g id="edge8" class="edge">
<title>Square_whiskerLB&#45;&gt;Square_Square</title>
<path fill="none" stroke="#000000" d="M2307.7031,-777.0463C2207.0166,-684.5858 1846.6994,-353.7063 1747.4622,-262.5767"/>
<polygon fill="#000000" stroke="#000000" points="1749.7175,-259.8959 1739.9846,-255.71 1744.9828,-265.0518 1749.7175,-259.8959"/>
</g>
<!-- Square_whiskerBL -->
<g id="node9" class="node">
<title>Square_whiskerBL</title>
<g id="a_node9"><a xlink:href="Square.html#whiskerBL" xlink:title="whiskerBL">
<ellipse fill="#f070d1" stroke="#000000" cx="2178" cy="-801.1948" rx="61.1783" ry="18"/>
<ellipse fill="none" stroke="#000000" cx="2178" cy="-801.1948" rx="65.1838" ry="22"/>
<ellipse fill="none" stroke="#000000" cx="2178" cy="-801.1948" rx="69.1893" ry="26"/>
<text text-anchor="middle" x="2178" y="-797.4948" font-family="Times,serif" font-size="14.00" fill="#000000">whiskerBL</text>
</a>
</g>
</g>
<!-- Square_whiskerBL&#45;&gt;Square_Square -->
<g id="edge9" class="edge">
<title>Square_whiskerBL&#45;&gt;Square_Square</title>
<path fill="none" stroke="#000000" d="M2157.8179,-776.3212C2082.4433,-683.4254 1817.8972,-357.3839 1742.3097,-264.2256"/>
<polygon fill="#000000" stroke="#000000" points="1745.0112,-262 1735.9925,-256.4399 1739.5754,-266.4106 1745.0112,-262"/>
</g>
<!-- Square_whiskerBR -->
<g id="node10" class="node">
<title>Square_whiskerBR</title>
<g id="a_node10"><a xlink:href="Square.html#whiskerBR" xlink:title="whiskerBR">
<ellipse fill="#f070d1" stroke="#000000" cx="2021" cy="-801.1948" rx="61.9618" ry="18"/>
<ellipse fill="none" stroke="#000000" cx="2021" cy="-801.1948" rx="65.9758" ry="22"/>
<ellipse fill="none" stroke="#000000" cx="2021" cy="-801.1948" rx="69.9899" ry="26"/>
<text text-anchor="middle" x="2021" y="-797.4948" font-family="Times,serif" font-size="14.00" fill="#000000">whiskerBR</text>
</a>
</g>
</g>
<!-- Square_whiskerBR&#45;&gt;Square_Square -->
<g id="edge10" class="edge">
<title>Square_whiskerBR&#45;&gt;Square_Square</title>
<path fill="none" stroke="#000000" d="M2007.3756,-775.5864C1957.7278,-682.2685 1786.7678,-360.9323 1736.1979,-265.8811"/>
<polygon fill="#000000" stroke="#000000" points="1739.2103,-264.0914 1731.4234,-256.907 1733.0305,-267.3793 1739.2103,-264.0914"/>
</g>
<!-- Square_whiskerTL -->
<g id="node11" class="node">
<title>Square_whiskerTL</title>
<g id="a_node11"><a xlink:href="Square.html#whiskerTL" xlink:title="whiskerTL">
<ellipse fill="#f070d1" stroke="#000000" cx="1865" cy="-801.1948" rx="60.3958" ry="18"/>
<ellipse fill="none" stroke="#000000" cx="1865" cy="-801.1948" rx="64.3926" ry="22"/>
<ellipse fill="none" stroke="#000000" cx="1865" cy="-801.1948" rx="68.3893" ry="26"/>
<text text-anchor="middle" x="1865" y="-797.4948" font-family="Times,serif" font-size="14.00" fill="#000000">whiskerTL</text>
</a>
</g>
</g>
<!-- Square_whiskerTL&#45;&gt;Square_Square -->
<g id="edge11" class="edge">
<title>Square_whiskerTL&#45;&gt;Square_Square</title>
<path fill="none" stroke="#000000" d="M1858.3896,-775.2155C1834.6176,-681.7896 1753.5859,-363.3297 1729.0785,-267.0136"/>
<polygon fill="#000000" stroke="#000000" points="1732.4245,-265.9699 1726.5666,-257.1418 1725.6407,-267.6961 1732.4245,-265.9699"/>
</g>
<!-- Square_vinverse -->
<g id="node12" class="node">
<title>Square_vinverse</title>
<g id="a_node12"><a xlink:href="Square.html#vinverse" xlink:title="vinverse">
<ellipse fill="#f070d1" stroke="#000000" cx="1659" cy="-1419.1948" rx="50.0849" ry="18"/>
<ellipse fill="none" stroke="#000000" cx="1659" cy="-1419.1948" rx="54.088" ry="22"/>
<ellipse fill="none" stroke="#000000" cx="1659" cy="-1419.1948" rx="58.0912" ry="26"/>
<text text-anchor="middle" x="1659" y="-1415.4948" font-family="Times,serif" font-size="14.00" fill="#000000">vinverse</text>
</a>
</g>
</g>
<!-- Square_hinverse -->
<g id="node17" class="node">
<title>Square_hinverse</title>
<g id="a_node17"><a xlink:href="Square.html#hinverse" xlink:title="hinverse">
<ellipse fill="#f070d1" stroke="#000000" cx="1597" cy="-801.1948" rx="50.8918" ry="18"/>
<text text-anchor="middle" x="1597" y="-797.4948" font-family="Times,serif" font-size="14.00" fill="#000000">hinverse</text>
</a>
</g>
</g>
<!-- Square_vinverse&#45;&gt;Square_hinverse -->
<g id="edge12" class="edge">
<title>Square_vinverse&#45;&gt;Square_hinverse</title>
<path fill="none" stroke="#000000" d="M1656.3755,-1393.0348C1646.3137,-1292.7415 1610.2446,-933.213 1599.8326,-829.4295"/>
<polygon fill="#000000" stroke="#000000" points="1603.3067,-828.9953 1598.8259,-819.3947 1596.3417,-829.6942 1603.3067,-828.9953"/>
</g>
<!-- Square_transpose -->
<g id="node20" class="node">
<title>Square_transpose</title>
<g id="a_node20"><a xlink:href="Square.html#transpose" xlink:title="transpose">
<ellipse fill="#f070d1" stroke="#000000" cx="1722" cy="-801.1948" rx="56.59" ry="18"/>
<text text-anchor="middle" x="1722" y="-797.4948" font-family="Times,serif" font-size="14.00" fill="#000000">transpose</text>
</a>
</g>
</g>
<!-- Square_vinverse&#45;&gt;Square_transpose -->
<g id="edge13" class="edge">
<title>Square_vinverse&#45;&gt;Square_transpose</title>
<path fill="none" stroke="#000000" d="M1661.6668,-1393.0348C1671.8909,-1292.7415 1708.5418,-933.213 1719.1217,-829.4295"/>
<polygon fill="#000000" stroke="#000000" points="1722.6124,-829.6981 1720.1447,-819.3947 1715.6485,-828.9882 1722.6124,-829.6981"/>
</g>
<!-- Square_vconcatR -->
<g id="node13" class="node">
<title>Square_vconcatR</title>
<g id="a_node13"><a xlink:href="Square.html#vconcatR" xlink:title="vconcatR">
<ellipse fill="#f070d1" stroke="#000000" cx="1466" cy="-801.1948" rx="53.8975" ry="18"/>
<ellipse fill="none" stroke="#000000" cx="1466" cy="-801.1948" rx="57.894" ry="22"/>
<ellipse fill="none" stroke="#000000" cx="1466" cy="-801.1948" rx="61.8905" ry="26"/>
<text text-anchor="middle" x="1466" y="-797.4948" font-family="Times,serif" font-size="14.00" fill="#000000">vconcatR</text>
</a>
</g>
</g>
<!-- Square_vconcatR&#45;&gt;Square_Square -->
<g id="edge14" class="edge">
<title>Square_vconcatR&#45;&gt;Square_Square</title>
<path fill="none" stroke="#000000" d="M1477.665,-775.5864C1520.1299,-682.3628 1666.251,-361.5812 1709.7124,-266.1698"/>
<polygon fill="#000000" stroke="#000000" points="1712.9715,-267.4583 1713.9318,-256.907 1706.6012,-264.5565 1712.9715,-267.4583"/>
</g>
<!-- Square_vconcatL -->
<g id="node14" class="node">
<title>Square_vconcatL</title>
<g id="a_node14"><a xlink:href="Square.html#vconcatL" xlink:title="vconcatL">
<ellipse fill="#f070d1" stroke="#000000" cx="1324" cy="-801.1948" rx="53.8975" ry="18"/>
<ellipse fill="none" stroke="#000000" cx="1324" cy="-801.1948" rx="57.894" ry="22"/>
<ellipse fill="none" stroke="#000000" cx="1324" cy="-801.1948" rx="61.8905" ry="26"/>
<text text-anchor="middle" x="1324" y="-797.4948" font-family="Times,serif" font-size="14.00" fill="#000000">vconcatL</text>
</a>
</g>
</g>
<!-- Square_vconcatL&#45;&gt;Square_Square -->
<g id="edge15" class="edge">
<title>Square_vconcatL&#45;&gt;Square_Square</title>
<path fill="none" stroke="#000000" d="M1341.8744,-775.955C1407.8133,-682.8453 1637.0385,-359.1656 1703.6904,-265.049"/>
<polygon fill="#000000" stroke="#000000" points="1706.699,-266.8567 1709.6221,-256.6731 1700.9864,-262.8111 1706.699,-266.8567"/>
</g>
<!-- Square_hconcatR -->
<g id="node15" class="node">
<title>Square_hconcatR</title>
<g id="a_node15"><a xlink:href="Square.html#hconcatR" xlink:title="hconcatR">
<ellipse fill="#f070d1" stroke="#000000" cx="1181" cy="-801.1948" rx="54.6783" ry="18"/>
<ellipse fill="none" stroke="#000000" cx="1181" cy="-801.1948" rx="58.6844" ry="22"/>
<ellipse fill="none" stroke="#000000" cx="1181" cy="-801.1948" rx="62.6905" ry="26"/>
<text text-anchor="middle" x="1181" y="-797.4948" font-family="Times,serif" font-size="14.00" fill="#000000">hconcatR</text>
</a>
</g>
</g>
<!-- Square_hconcatR&#45;&gt;Square_Square -->
<g id="edge16" class="edge">
<title>Square_hconcatR&#45;&gt;Square_Square</title>
<path fill="none" stroke="#000000" d="M1204.2461,-777.0463C1292.9748,-684.8734 1609.7884,-355.762 1698.6666,-263.4339"/>
<polygon fill="#000000" stroke="#000000" points="1701.432,-265.6079 1705.8457,-255.9761 1696.3889,-260.7532 1701.432,-265.6079"/>
</g>
<!-- Square_hconcatL -->
<g id="node16" class="node">
<title>Square_hconcatL</title>
<g id="a_node16"><a xlink:href="Square.html#hconcatL" xlink:title="hconcatL">
<ellipse fill="#f070d1" stroke="#000000" cx="1038" cy="-801.1948" rx="53.8975" ry="18"/>
<ellipse fill="none" stroke="#000000" cx="1038" cy="-801.1948" rx="57.894" ry="22"/>
<ellipse fill="none" stroke="#000000" cx="1038" cy="-801.1948" rx="61.8905" ry="26"/>
<text text-anchor="middle" x="1038" y="-797.4948" font-family="Times,serif" font-size="14.00" fill="#000000">hconcatL</text>
</a>
</g>
</g>
<!-- Square_hconcatL&#45;&gt;Square_Square -->
<g id="edge17" class="edge">
<title>Square_hconcatL&#45;&gt;Square_Square</title>
<path fill="none" stroke="#000000" d="M1066.5198,-777.7618C1178.0233,-686.1463 1583.7553,-352.7818 1694.1219,-262.1004"/>
<polygon fill="#000000" stroke="#000000" points="1696.6314,-264.5685 1702.136,-255.5158 1692.1875,-259.1599 1696.6314,-264.5685"/>
</g>
<!-- Square_hinverse&#45;&gt;Square_Square -->
<g id="edge18" class="edge">
<title>Square_hinverse&#45;&gt;Square_Square</title>
<path fill="none" stroke="#000000" d="M1601.0174,-783.1325C1619.1812,-701.468 1693.6987,-366.4374 1715.7961,-267.0876"/>
<polygon fill="#000000" stroke="#000000" points="1719.2428,-267.7112 1717.9975,-257.1898 1712.4098,-266.1914 1719.2428,-267.7112"/>
</g>
<!-- Square_vconcat -->
<g id="node18" class="node">
<title>Square_vconcat</title>
<g id="a_node18"><a xlink:href="Square.html#vconcat" xlink:title="vconcat">
<ellipse fill="#f070d1" stroke="#000000" cx="903" cy="-801.1948" rx="47.3994" ry="18"/>
<ellipse fill="none" stroke="#000000" cx="903" cy="-801.1948" rx="51.3955" ry="22"/>
<ellipse fill="none" stroke="#000000" cx="903" cy="-801.1948" rx="55.3916" ry="26"/>
<text text-anchor="middle" x="903" y="-797.4948" font-family="Times,serif" font-size="14.00" fill="#000000">vconcat</text>
</a>
</g>
</g>
<!-- Square_vconcat&#45;&gt;Square_Square -->
<g id="edge19" class="edge">
<title>Square_vconcat&#45;&gt;Square_Square</title>
<path fill="none" stroke="#000000" d="M934.3544,-779.6793C1064.4244,-690.4249 1560.7989,-349.8114 1690.7232,-260.657"/>
<polygon fill="#000000" stroke="#000000" points="1692.8247,-263.4598 1699.0898,-254.9158 1688.864,-257.688 1692.8247,-263.4598"/>
</g>
<!-- Square_hconcat -->
<g id="node19" class="node">
<title>Square_hconcat</title>
<g id="a_node19"><a xlink:href="Square.html#hconcat" xlink:title="hconcat">
<ellipse fill="#f070d1" stroke="#000000" cx="773" cy="-801.1948" rx="48.178" ry="18"/>
<ellipse fill="none" stroke="#000000" cx="773" cy="-801.1948" rx="52.1848" ry="22"/>
<ellipse fill="none" stroke="#000000" cx="773" cy="-801.1948" rx="56.1916" ry="26"/>
<text text-anchor="middle" x="773" y="-797.4948" font-family="Times,serif" font-size="14.00" fill="#000000">hconcat</text>
</a>
</g>
</g>
<!-- Square_hconcat&#45;&gt;Square_Square -->
<g id="edge20" class="edge">
<title>Square_hconcat&#45;&gt;Square_Square</title>
<path fill="none" stroke="#000000" d="M807.618,-780.6939C956.3447,-692.6176 1540.2003,-346.857 1687.9041,-259.3864"/>
<polygon fill="#000000" stroke="#000000" points="1689.7791,-262.3438 1696.6,-254.2367 1686.2122,-256.3207 1689.7791,-262.3438"/>
</g>
<!-- Square_transpose&#45;&gt;Square_Square -->
<g id="edge21" class="edge">
<title>Square_transpose&#45;&gt;Square_Square</title>
<path fill="none" stroke="#000000" d="M1722,-783.1325C1722,-701.6412 1722,-367.8574 1722,-267.7229"/>
<polygon fill="#000000" stroke="#000000" points="1725.5001,-267.4721 1722,-257.4722 1718.5001,-267.4722 1725.5001,-267.4721"/>
</g>
<!-- Square_vrefl -->
<g id="node21" class="node">
<title>Square_vrefl</title>
<g id="a_node21"><a xlink:href="Square.html#vrefl" xlink:title="vrefl">
<ellipse fill="#f070d1" stroke="#000000" cx="629" cy="-1419.1948" rx="32.4948" ry="18"/>
<ellipse fill="none" stroke="#000000" cx="629" cy="-1419.1948" rx="36.4945" ry="22"/>
<ellipse fill="none" stroke="#000000" cx="629" cy="-1419.1948" rx="40.4942" ry="26"/>
<text text-anchor="middle" x="629" y="-1415.4948" font-family="Times,serif" font-size="14.00" fill="#000000">vrefl</text>
</a>
</g>
</g>
<!-- Square_vdeg_square -->
<g id="node23" class="node">
<title>Square_vdeg_square</title>
<g id="a_node23"><a xlink:href="Square.html#vdeg_square" xlink:title="vdeg_square">
<ellipse fill="#f070d1" stroke="#000000" cx="629" cy="-801.1948" rx="69.5877" ry="18"/>
<text text-anchor="middle" x="629" y="-797.4948" font-family="Times,serif" font-size="14.00" fill="#000000">vdeg_square</text>
</a>
</g>
</g>
<!-- Square_vrefl&#45;&gt;Square_vdeg_square -->
<g id="edge22" class="edge">
<title>Square_vrefl&#45;&gt;Square_vdeg_square</title>
<path fill="none" stroke="#000000" d="M629,-1393.0348C629,-1292.7415 629,-933.213 629,-829.4295"/>
<polygon fill="#000000" stroke="#000000" points="632.5001,-829.3947 629,-819.3947 625.5001,-829.3947 632.5001,-829.3947"/>
</g>
<!-- Square_hrefl -->
<g id="node22" class="node">
<title>Square_hrefl</title>
<g id="a_node22"><a xlink:href="Square.html#hrefl" xlink:title="hrefl">
<ellipse fill="#f070d1" stroke="#000000" cx="471" cy="-1419.1948" rx="32.4948" ry="18"/>
<ellipse fill="none" stroke="#000000" cx="471" cy="-1419.1948" rx="36.4945" ry="22"/>
<ellipse fill="none" stroke="#000000" cx="471" cy="-1419.1948" rx="40.4942" ry="26"/>
<text text-anchor="middle" x="471" y="-1415.4948" font-family="Times,serif" font-size="14.00" fill="#000000">hrefl</text>
</a>
</g>
</g>
<!-- Square_hdeg_square -->
<g id="node24" class="node">
<title>Square_hdeg_square</title>
<g id="a_node24"><a xlink:href="Square.html#hdeg_square" xlink:title="hdeg_square">
<ellipse fill="#f070d1" stroke="#000000" cx="471" cy="-801.1948" rx="70.3881" ry="18"/>
<text text-anchor="middle" x="471" y="-797.4948" font-family="Times,serif" font-size="14.00" fill="#000000">hdeg_square</text>
</a>
</g>
</g>
<!-- Square_hrefl&#45;&gt;Square_hdeg_square -->
<g id="edge23" class="edge">
<title>Square_hrefl&#45;&gt;Square_hdeg_square</title>
<path fill="none" stroke="#000000" d="M471,-1393.0348C471,-1292.7415 471,-933.213 471,-829.4295"/>
<polygon fill="#000000" stroke="#000000" points="474.5001,-829.3947 471,-819.3947 467.5001,-829.3947 474.5001,-829.3947"/>
</g>
<!-- Square_vdeg_square&#45;&gt;Square_Square -->
<g id="edge24" class="edge">
<title>Square_vdeg_square&#45;&gt;Square_Square</title>
<path fill="none" stroke="#000000" d="M660.5326,-784.9813C817.866,-704.0834 1517.0872,-344.5571 1685.4458,-257.9902"/>
<polygon fill="#000000" stroke="#000000" points="1687.1253,-261.0623 1694.4181,-253.3769 1683.9243,-254.837 1687.1253,-261.0623"/>
</g>
<!-- Square_hdeg_square&#45;&gt;Square_Square -->
<g id="edge25" class="edge">
<title>Square_hdeg_square&#45;&gt;Square_Square</title>
<path fill="none" stroke="#000000" d="M506.094,-785.4291C685.1,-705.0123 1495.3005,-341.0374 1683.063,-256.6868"/>
<polygon fill="#000000" stroke="#000000" points="1684.5983,-259.8342 1692.2858,-252.5436 1681.7297,-253.4489 1684.5983,-259.8342"/>
</g>
<!-- Square_gpdhom_square -->
<g id="node25" class="node">
<title>Square_gpdhom_square</title>
<g id="a_node25"><a xlink:href="Square.html#gpdhom_square" xlink:title="gpdhom_square">
<ellipse fill="#f070d1" stroke="#000000" cx="290" cy="-801.1948" rx="85.2729" ry="18"/>
<ellipse fill="none" stroke="#000000" cx="290" cy="-801.1948" rx="89.279" ry="22"/>
<ellipse fill="none" stroke="#000000" cx="290" cy="-801.1948" rx="93.2851" ry="26"/>
<text text-anchor="middle" x="290" y="-797.4948" font-family="Times,serif" font-size="14.00" fill="#000000">gpdhom_square</text>
</a>
</g>
</g>
<!-- Square_gpdhom_square&#45;&gt;Square_Square -->
<g id="edge26" class="edge">
<title>Square_gpdhom_square&#45;&gt;Square_Square</title>
<path fill="none" stroke="#000000" d="M344.3875,-779.85C575.8582,-689.0074 1476.4513,-335.5623 1680.6637,-255.4175"/>
<polygon fill="#000000" stroke="#000000" points="1682.1005,-258.6136 1690.1306,-251.7022 1679.5432,-252.0974 1682.1005,-258.6136"/>
</g>
<!-- Square_Build_Square -->
<g id="node26" class="node">
<title>Square_Build_Square</title>
<g id="a_node26"><a xlink:href="Square.html#Build_Square" xlink:title="Build_Square">
<ellipse fill="#f070d1" stroke="#000000" cx="97" cy="-801.1948" rx="73.3926" ry="18"/>
<ellipse fill="none" stroke="#000000" cx="97" cy="-801.1948" rx="77.3898" ry="22"/>
<ellipse fill="none" stroke="#000000" cx="97" cy="-801.1948" rx="81.387" ry="26"/>
<text text-anchor="middle" x="97" y="-797.4948" font-family="Times,serif" font-size="14.00" fill="#000000">Build_Square</text>
</a>
</g>
</g>
<!-- Square_Build_Square&#45;&gt;Square_Square -->
<g id="edge27" class="edge">
<title>Square_Build_Square&#45;&gt;Square_Square</title>
<path fill="none" stroke="#000000" d="M152.4661,-782.012C405.9627,-694.3412 1451.6646,-332.6892 1678.4724,-254.2486"/>
<polygon fill="#000000" stroke="#000000" points="1679.7327,-257.5162 1688.0395,-250.9399 1677.4447,-250.9007 1679.7327,-257.5162"/>
</g>
</g>
</svg>
