<?xml version="1.0" encoding="UTF-8" standalone="no"?>
<!DOCTYPE svg PUBLIC "-//W3C//DTD SVG 1.1//EN"
 "http://www.w3.org/Graphics/SVG/1.1/DTD/svg11.dtd">
<!-- Generated by graphviz version 2.40.1 (20161225.0304)
 -->
<!-- Title: HoTT_Modalities_CoreflectiveSubuniverse Pages: 1 -->
<svg width="1791pt" height="900pt"
 viewBox="0.00 0.00 1791.00 899.50" xmlns="http://www.w3.org/2000/svg" xmlns:xlink="http://www.w3.org/1999/xlink">
<g id="graph0" class="graph" transform="scale(1 1) rotate(0) translate(4 895.5)">
<title>HoTT_Modalities_CoreflectiveSubuniverse</title>
<polygon fill="#ffffff" stroke="transparent" points="-4,4 -4,-895.5 1787,-895.5 1787,4 -4,4"/>
<g id="clust1" class="cluster">
<title>cluster_CoreflectiveSubuniverse</title>
<polygon fill="#ffffc3" stroke="#000000" points="8,-16.0993 8,-875.4007 1775,-875.4007 1775,-16.0993 8,-16.0993"/>
<text text-anchor="middle" x="105" y="-860.2007" font-family="Times,serif" font-size="14.00" fill="#000000">CoreflectiveSubuniverse</text>
</g>
<!-- CoreflectiveSubuniverse_coopen_equiv_open -->
<g id="node1" class="node">
<title>CoreflectiveSubuniverse_coopen_equiv_open</title>
<g id="a_node1"><a xlink:href="CoreflectiveSubuniverse.html#coopen_equiv_open" xlink:title="coopen_equiv_open">
<ellipse fill="#f070d1" stroke="#000000" cx="451" cy="-584.0993" rx="101.2901" ry="18"/>
<ellipse fill="none" stroke="#000000" cx="451" cy="-584.0993" rx="105.2861" ry="22"/>
<ellipse fill="none" stroke="#000000" cx="451" cy="-584.0993" rx="109.2821" ry="26"/>
<text text-anchor="middle" x="451" y="-580.3993" font-family="Times,serif" font-size="14.00" fill="#000000">coopen_equiv_open</text>
</a>
</g>
</g>
<!-- CoreflectiveSubuniverse_coopen_isequiv_open -->
<g id="node2" class="node">
<title>CoreflectiveSubuniverse_coopen_isequiv_open</title>
<g id="a_node2"><a xlink:href="CoreflectiveSubuniverse.html#coopen_isequiv_open" xlink:title="coopen_isequiv_open">
<ellipse fill="#f070d1" stroke="#000000" cx="451" cy="-406.0993" rx="109.381" ry="18"/>
<text text-anchor="middle" x="451" y="-402.3993" font-family="Times,serif" font-size="14.00" fill="#000000">coopen_isequiv_open</text>
</a>
</g>
</g>
<!-- CoreflectiveSubuniverse_coopen_equiv_open&#45;&gt;CoreflectiveSubuniverse_coopen_isequiv_open -->
<g id="edge1" class="edge">
<title>CoreflectiveSubuniverse_coopen_equiv_open&#45;&gt;CoreflectiveSubuniverse_coopen_isequiv_open</title>
<path fill="none" stroke="#000000" d="M451,-557.8348C451,-524.8496 451,-468.4725 451,-434.509"/>
<polygon fill="#000000" stroke="#000000" points="454.5001,-434.3274 451,-424.3275 447.5001,-434.3275 454.5001,-434.3274"/>
</g>
<!-- CoreflectiveSubuniverse_coOp -->
<g id="node3" class="node">
<title>CoreflectiveSubuniverse_coOp</title>
<g id="a_node3"><a xlink:href="CoreflectiveSubuniverse.html#coOp" xlink:title="coOp">
<ellipse fill="#f070d1" stroke="#000000" cx="368" cy="-229.0993" rx="35.194" ry="18"/>
<text text-anchor="middle" x="368" y="-225.3993" font-family="Times,serif" font-size="14.00" fill="#000000">coOp</text>
</a>
</g>
</g>
<!-- CoreflectiveSubuniverse_coopen_isequiv_open&#45;&gt;CoreflectiveSubuniverse_coOp -->
<g id="edge2" class="edge">
<title>CoreflectiveSubuniverse_coopen_isequiv_open&#45;&gt;CoreflectiveSubuniverse_coOp</title>
<path fill="none" stroke="#000000" d="M442.4302,-387.8239C427.7786,-356.579 397.8437,-292.7419 380.7379,-256.2632"/>
<polygon fill="#000000" stroke="#000000" points="383.6913,-254.3177 376.2767,-246.7497 377.3535,-257.2897 383.6913,-254.3177"/>
</g>
<!-- CoreflectiveSubuniverse_Build_CoreflectiveSubuniverse -->
<g id="node20" class="node">
<title>CoreflectiveSubuniverse_Build_CoreflectiveSubuniverse</title>
<g id="a_node20"><a xlink:href="CoreflectiveSubuniverse.html#Build_CoreflectiveSubuniverse" xlink:title="Build_CoreflectiveSubuniverse">
<ellipse fill="#7faaff" stroke="#000000" cx="473" cy="-68.0993" rx="155.1726" ry="18"/>
<text text-anchor="middle" x="473" y="-64.3993" font-family="Times,serif" font-size="14.00" fill="#000000">Build_CoreflectiveSubuniverse</text>
</a>
</g>
</g>
<!-- CoreflectiveSubuniverse_coOp&#45;&gt;CoreflectiveSubuniverse_Build_CoreflectiveSubuniverse -->
<g id="edge3" class="edge">
<title>CoreflectiveSubuniverse_coOp&#45;&gt;CoreflectiveSubuniverse_Build_CoreflectiveSubuniverse</title>
<path fill="none" stroke="#000000" d="M379.2368,-211.8695C397.5162,-183.8412 433.8244,-128.1685 455.504,-94.9265"/>
<polygon fill="#000000" stroke="#000000" points="458.6727,-96.475 461.2037,-86.1869 452.8094,-92.6511 458.6727,-96.475"/>
</g>
<!-- CoreflectiveSubuniverse_CoreflectiveSubuniverse -->
<g id="node21" class="node">
<title>CoreflectiveSubuniverse_CoreflectiveSubuniverse</title>
<g id="a_node21"><a xlink:href="CoreflectiveSubuniverse.html#CoreflectiveSubuniverse" xlink:title="CoreflectiveSubuniverse">
<ellipse fill="#e2cdfa" stroke="#000000" cx="1116" cy="-68.0993" rx="126.1777" ry="18"/>
<text text-anchor="middle" x="1116" y="-64.3993" font-family="Times,serif" font-size="14.00" fill="#000000">CoreflectiveSubuniverse</text>
</a>
</g>
</g>
<!-- CoreflectiveSubuniverse_coOp&#45;&gt;CoreflectiveSubuniverse_CoreflectiveSubuniverse -->
<g id="edge4" class="edge">
<title>CoreflectiveSubuniverse_coOp&#45;&gt;CoreflectiveSubuniverse_CoreflectiveSubuniverse</title>
<path fill="none" stroke="#000000" d="M389.1875,-214.5861C396.1943,-210.3391 404.1988,-206.0498 412,-203.0993 609.5082,-128.3991 854.4714,-93.4154 997.2158,-78.3161"/>
<polygon fill="#000000" stroke="#000000" points="997.7317,-81.7814 1007.3147,-77.2631 997.0056,-74.8191 997.7317,-81.7814"/>
</g>
<!-- CoreflectiveSubuniverse_inF_equiv_implies_funit -->
<g id="node4" class="node">
<title>CoreflectiveSubuniverse_inF_equiv_implies_funit</title>
<g id="a_node4"><a xlink:href="CoreflectiveSubuniverse.html#inF_equiv_implies_funit" xlink:title="inF_equiv_implies_funit">
<ellipse fill="#f070d1" stroke="#000000" cx="1386" cy="-761.0993" rx="121.576" ry="18"/>
<ellipse fill="none" stroke="#000000" cx="1386" cy="-761.0993" rx="125.5772" ry="22"/>
<ellipse fill="none" stroke="#000000" cx="1386" cy="-761.0993" rx="129.5784" ry="26"/>
<text text-anchor="middle" x="1386" y="-757.3993" font-family="Times,serif" font-size="14.00" fill="#000000">inF_equiv_implies_funit</text>
</a>
</g>
</g>
<!-- CoreflectiveSubuniverse_inF_fromF_sect -->
<g id="node5" class="node">
<title>CoreflectiveSubuniverse_inF_fromF_sect</title>
<g id="a_node5"><a xlink:href="CoreflectiveSubuniverse.html#inF_fromF_sect" xlink:title="inF_fromF_sect">
<ellipse fill="#f070d1" stroke="#000000" cx="1684" cy="-584.0993" rx="83.3857" ry="18"/>
<text text-anchor="middle" x="1684" y="-580.3993" font-family="Times,serif" font-size="14.00" fill="#000000">inF_fromF_sect</text>
</a>
</g>
</g>
<!-- CoreflectiveSubuniverse_inF_equiv_implies_funit&#45;&gt;CoreflectiveSubuniverse_inF_fromF_sect -->
<g id="edge5" class="edge">
<title>CoreflectiveSubuniverse_inF_equiv_implies_funit&#45;&gt;CoreflectiveSubuniverse_inF_fromF_sect</title>
<path fill="none" stroke="#000000" d="M1427.7494,-736.3019C1486.016,-701.6938 1590.8311,-639.4379 1646.6447,-606.2869"/>
<polygon fill="#000000" stroke="#000000" points="1648.6836,-609.1467 1655.494,-601.0307 1645.1089,-603.1283 1648.6836,-609.1467"/>
</g>
<!-- CoreflectiveSubuniverse_ishprop_coreflection -->
<g id="node6" class="node">
<title>CoreflectiveSubuniverse_ishprop_coreflection</title>
<g id="a_node6"><a xlink:href="CoreflectiveSubuniverse.html#ishprop_coreflection" xlink:title="ishprop_coreflection">
<ellipse fill="#f070d1" stroke="#000000" cx="1476" cy="-584.0993" rx="106.6812" ry="18"/>
<text text-anchor="middle" x="1476" y="-580.3993" font-family="Times,serif" font-size="14.00" fill="#000000">ishprop_coreflection</text>
</a>
</g>
</g>
<!-- CoreflectiveSubuniverse_inF_equiv_implies_funit&#45;&gt;CoreflectiveSubuniverse_ishprop_coreflection -->
<g id="edge6" class="edge">
<title>CoreflectiveSubuniverse_inF_equiv_implies_funit&#45;&gt;CoreflectiveSubuniverse_ishprop_coreflection</title>
<path fill="none" stroke="#000000" d="M1399.2798,-734.9824C1416.1021,-701.8985 1444.9575,-645.1496 1462.079,-611.4772"/>
<polygon fill="#000000" stroke="#000000" points="1465.3708,-612.7253 1466.7835,-602.2251 1459.1311,-609.5526 1465.3708,-612.7253"/>
</g>
<!-- CoreflectiveSubuniverse_F_functor -->
<g id="node7" class="node">
<title>CoreflectiveSubuniverse_F_functor</title>
<g id="a_node7"><a xlink:href="CoreflectiveSubuniverse.html#F_functor" xlink:title="F_functor">
<ellipse fill="#f070d1" stroke="#000000" cx="1296" cy="-584.0993" rx="55.7903" ry="18"/>
<text text-anchor="middle" x="1296" y="-580.3993" font-family="Times,serif" font-size="14.00" fill="#000000">F_functor</text>
</a>
</g>
</g>
<!-- CoreflectiveSubuniverse_inF_equiv_implies_funit&#45;&gt;CoreflectiveSubuniverse_F_functor -->
<g id="edge7" class="edge">
<title>CoreflectiveSubuniverse_inF_equiv_implies_funit&#45;&gt;CoreflectiveSubuniverse_F_functor</title>
<path fill="none" stroke="#000000" d="M1372.7202,-734.9824C1355.8979,-701.8985 1327.0425,-645.1496 1309.921,-611.4772"/>
<polygon fill="#000000" stroke="#000000" points="1312.8689,-609.5526 1305.2165,-602.2251 1306.6292,-612.7253 1312.8689,-609.5526"/>
</g>
<!-- CoreflectiveSubuniverse_F_corec_beta -->
<g id="node9" class="node">
<title>CoreflectiveSubuniverse_F_corec_beta</title>
<g id="a_node9"><a xlink:href="CoreflectiveSubuniverse.html#F_corec_beta" xlink:title="F_corec_beta">
<ellipse fill="#f070d1" stroke="#000000" cx="1149" cy="-584.0993" rx="73.387" ry="18"/>
<text text-anchor="middle" x="1149" y="-580.3993" font-family="Times,serif" font-size="14.00" fill="#000000">F_corec_beta</text>
</a>
</g>
</g>
<!-- CoreflectiveSubuniverse_inF_equiv_implies_funit&#45;&gt;CoreflectiveSubuniverse_F_corec_beta -->
<g id="edge8" class="edge">
<title>CoreflectiveSubuniverse_inF_equiv_implies_funit&#45;&gt;CoreflectiveSubuniverse_F_corec_beta</title>
<path fill="none" stroke="#000000" d="M1352.2954,-735.9275C1306.4331,-701.676 1224.9856,-640.8481 1180.3694,-607.5271"/>
<polygon fill="#000000" stroke="#000000" points="1182.3278,-604.6213 1172.2213,-601.4418 1178.1391,-610.2298 1182.3278,-604.6213"/>
</g>
<!-- CoreflectiveSubuniverse_F_coindpaths -->
<g id="node8" class="node">
<title>CoreflectiveSubuniverse_F_coindpaths</title>
<g id="a_node8"><a xlink:href="CoreflectiveSubuniverse.html#F_coindpaths" xlink:title="F_coindpaths">
<ellipse fill="#f070d1" stroke="#000000" cx="1602" cy="-406.0993" rx="73.387" ry="18"/>
<text text-anchor="middle" x="1602" y="-402.3993" font-family="Times,serif" font-size="14.00" fill="#000000">F_coindpaths</text>
</a>
</g>
</g>
<!-- CoreflectiveSubuniverse_inF_fromF_sect&#45;&gt;CoreflectiveSubuniverse_F_coindpaths -->
<g id="edge9" class="edge">
<title>CoreflectiveSubuniverse_inF_fromF_sect&#45;&gt;CoreflectiveSubuniverse_F_coindpaths</title>
<path fill="none" stroke="#000000" d="M1675.6861,-566.0522C1661.2589,-534.7344 1631.5087,-470.1549 1614.5544,-433.3517"/>
<polygon fill="#000000" stroke="#000000" points="1617.6989,-431.8124 1610.3359,-424.1942 1611.3411,-434.7413 1617.6989,-431.8124"/>
</g>
<!-- CoreflectiveSubuniverse_F_inF -->
<g id="node13" class="node">
<title>CoreflectiveSubuniverse_F_inF</title>
<g id="a_node13"><a xlink:href="CoreflectiveSubuniverse.html#F_inF" xlink:title="F_inF">
<ellipse fill="#f070d1" stroke="#000000" cx="1730" cy="-406.0993" rx="37.0935" ry="18"/>
<text text-anchor="middle" x="1730" y="-402.3993" font-family="Times,serif" font-size="14.00" fill="#000000">F_inF</text>
</a>
</g>
</g>
<!-- CoreflectiveSubuniverse_inF_fromF_sect&#45;&gt;CoreflectiveSubuniverse_F_inF -->
<g id="edge10" class="edge">
<title>CoreflectiveSubuniverse_inF_fromF_sect&#45;&gt;CoreflectiveSubuniverse_F_inF</title>
<path fill="none" stroke="#000000" d="M1688.6639,-566.0522C1696.6883,-535.001 1713.1629,-471.2517 1722.7129,-434.2973"/>
<polygon fill="#000000" stroke="#000000" points="1726.2103,-434.7519 1725.3238,-424.1942 1719.433,-433.0004 1726.2103,-434.7519"/>
</g>
<!-- CoreflectiveSubuniverse_ishprop_coreflection&#45;&gt;CoreflectiveSubuniverse_F_coindpaths -->
<g id="edge11" class="edge">
<title>CoreflectiveSubuniverse_ishprop_coreflection&#45;&gt;CoreflectiveSubuniverse_F_coindpaths</title>
<path fill="none" stroke="#000000" d="M1488.775,-566.0522C1511.1903,-534.3861 1557.6772,-468.7141 1583.571,-432.1339"/>
<polygon fill="#000000" stroke="#000000" points="1586.4576,-434.1138 1589.3786,-423.9296 1580.7442,-430.0695 1586.4576,-434.1138"/>
</g>
<!-- CoreflectiveSubuniverse_F_corec -->
<g id="node10" class="node">
<title>CoreflectiveSubuniverse_F_corec</title>
<g id="a_node10"><a xlink:href="CoreflectiveSubuniverse.html#F_corec" xlink:title="F_corec">
<ellipse fill="#f070d1" stroke="#000000" cx="1296" cy="-406.0993" rx="48.1917" ry="18"/>
<text text-anchor="middle" x="1296" y="-402.3993" font-family="Times,serif" font-size="14.00" fill="#000000">F_corec</text>
</a>
</g>
</g>
<!-- CoreflectiveSubuniverse_F_functor&#45;&gt;CoreflectiveSubuniverse_F_corec -->
<g id="edge12" class="edge">
<title>CoreflectiveSubuniverse_F_functor&#45;&gt;CoreflectiveSubuniverse_F_corec</title>
<path fill="none" stroke="#000000" d="M1296,-566.0522C1296,-535.001 1296,-471.2517 1296,-434.2973"/>
<polygon fill="#000000" stroke="#000000" points="1299.5001,-434.1942 1296,-424.1942 1292.5001,-434.1943 1299.5001,-434.1942"/>
</g>
<!-- CoreflectiveSubuniverse_isequiv_fromF_postcompose -->
<g id="node11" class="node">
<title>CoreflectiveSubuniverse_isequiv_fromF_postcompose</title>
<g id="a_node11"><a xlink:href="CoreflectiveSubuniverse.html#isequiv_fromF_postcompose" xlink:title="isequiv_fromF_postcompose">
<ellipse fill="#f070d1" stroke="#000000" cx="1604" cy="-229.0993" rx="142.9746" ry="18"/>
<text text-anchor="middle" x="1604" y="-225.3993" font-family="Times,serif" font-size="14.00" fill="#000000">isequiv_fromF_postcompose</text>
</a>
</g>
</g>
<!-- CoreflectiveSubuniverse_F_coindpaths&#45;&gt;CoreflectiveSubuniverse_isequiv_fromF_postcompose -->
<g id="edge13" class="edge">
<title>CoreflectiveSubuniverse_F_coindpaths&#45;&gt;CoreflectiveSubuniverse_isequiv_fromF_postcompose</title>
<path fill="none" stroke="#000000" d="M1602.2065,-387.8239C1602.5562,-356.8734 1603.2673,-293.9416 1603.6813,-257.3013"/>
<polygon fill="#000000" stroke="#000000" points="1607.1813,-257.3143 1603.7946,-247.2753 1600.1818,-257.2351 1607.1813,-257.3143"/>
</g>
<!-- CoreflectiveSubuniverse_F_corec_beta&#45;&gt;CoreflectiveSubuniverse_F_corec -->
<g id="edge14" class="edge">
<title>CoreflectiveSubuniverse_F_corec_beta&#45;&gt;CoreflectiveSubuniverse_F_corec</title>
<path fill="none" stroke="#000000" d="M1163.6323,-566.3812C1189.8956,-534.5795 1245.0983,-467.7354 1275.2546,-431.2196"/>
<polygon fill="#000000" stroke="#000000" points="1277.9746,-433.4225 1281.6437,-423.4832 1272.5772,-428.965 1277.9746,-433.4225"/>
</g>
<!-- CoreflectiveSubuniverse_F_corec&#45;&gt;CoreflectiveSubuniverse_isequiv_fromF_postcompose -->
<g id="edge15" class="edge">
<title>CoreflectiveSubuniverse_F_corec&#45;&gt;CoreflectiveSubuniverse_isequiv_fromF_postcompose</title>
<path fill="none" stroke="#000000" d="M1322.2599,-391.0084C1376.3356,-359.9325 1500.3958,-288.6381 1564.3181,-251.9035"/>
<polygon fill="#000000" stroke="#000000" points="1566.3711,-254.7606 1573.2974,-246.7433 1562.8832,-248.6914 1566.3711,-254.7606"/>
</g>
<!-- CoreflectiveSubuniverse_isequiv_fromF_postcompose&#45;&gt;CoreflectiveSubuniverse_CoreflectiveSubuniverse -->
<g id="edge16" class="edge">
<title>CoreflectiveSubuniverse_isequiv_fromF_postcompose&#45;&gt;CoreflectiveSubuniverse_CoreflectiveSubuniverse</title>
<path fill="none" stroke="#000000" d="M1552.6978,-212.1738C1461.7305,-182.162 1272.6559,-119.7829 1175.8862,-87.8569"/>
<polygon fill="#000000" stroke="#000000" points="1176.8434,-84.4872 1166.2503,-84.6778 1174.6502,-91.1347 1176.8434,-84.4872"/>
</g>
<!-- CoreflectiveSubuniverse_fromF -->
<g id="node12" class="node">
<title>CoreflectiveSubuniverse_fromF</title>
<g id="a_node12"><a xlink:href="CoreflectiveSubuniverse.html#fromF" xlink:title="fromF">
<ellipse fill="#f070d1" stroke="#000000" cx="1396" cy="-229.0993" rx="38.9937" ry="18"/>
<ellipse fill="none" stroke="#000000" cx="1396" cy="-229.0993" rx="42.9934" ry="22"/>
<ellipse fill="none" stroke="#000000" cx="1396" cy="-229.0993" rx="46.9931" ry="26"/>
<text text-anchor="middle" x="1396" y="-225.3993" font-family="Times,serif" font-size="14.00" fill="#000000">fromF</text>
</a>
</g>
</g>
<!-- CoreflectiveSubuniverse_fromF&#45;&gt;CoreflectiveSubuniverse_CoreflectiveSubuniverse -->
<g id="edge17" class="edge">
<title>CoreflectiveSubuniverse_fromF&#45;&gt;CoreflectiveSubuniverse_CoreflectiveSubuniverse</title>
<path fill="none" stroke="#000000" d="M1363.3325,-210.3155C1311.6779,-180.6141 1211.305,-122.8997 1155.6196,-90.8806"/>
<polygon fill="#000000" stroke="#000000" points="1157.1649,-87.7318 1146.7512,-85.7812 1153.6756,-93.8002 1157.1649,-87.7318"/>
</g>
<!-- CoreflectiveSubuniverse_F_inF&#45;&gt;CoreflectiveSubuniverse_CoreflectiveSubuniverse -->
<g id="edge18" class="edge">
<title>CoreflectiveSubuniverse_F_inF&#45;&gt;CoreflectiveSubuniverse_CoreflectiveSubuniverse</title>
<path fill="none" stroke="#000000" d="M1739.9172,-388.5566C1760.1232,-350.219 1800.5397,-258.0142 1756,-203.0993 1692.4723,-124.7733 1409.0005,-90.1481 1241.3765,-76.288"/>
<polygon fill="#000000" stroke="#000000" points="1241.5023,-72.7867 1231.2515,-75.4644 1240.9347,-79.7637 1241.5023,-72.7867"/>
</g>
<!-- CoreflectiveSubuniverse_F_coreflector -->
<g id="node14" class="node">
<title>CoreflectiveSubuniverse_F_coreflector</title>
<g id="a_node14"><a xlink:href="CoreflectiveSubuniverse.html#F_coreflector" xlink:title="F_coreflector">
<ellipse fill="#f070d1" stroke="#000000" cx="1250" cy="-229.0993" rx="73.3926" ry="18"/>
<ellipse fill="none" stroke="#000000" cx="1250" cy="-229.0993" rx="77.3898" ry="22"/>
<ellipse fill="none" stroke="#000000" cx="1250" cy="-229.0993" rx="81.387" ry="26"/>
<text text-anchor="middle" x="1250" y="-225.3993" font-family="Times,serif" font-size="14.00" fill="#000000">F_coreflector</text>
</a>
</g>
</g>
<!-- CoreflectiveSubuniverse_F_coreflector&#45;&gt;CoreflectiveSubuniverse_CoreflectiveSubuniverse -->
<g id="edge19" class="edge">
<title>CoreflectiveSubuniverse_F_coreflector&#45;&gt;CoreflectiveSubuniverse_CoreflectiveSubuniverse</title>
<path fill="none" stroke="#000000" d="M1229.0625,-203.9431C1204.1679,-174.0324 1162.8291,-124.3642 1137.6329,-94.0911"/>
<polygon fill="#000000" stroke="#000000" points="1140.0688,-91.5466 1130.9815,-86.0994 1134.6885,-96.0246 1140.0688,-91.5466"/>
</g>
<!-- CoreflectiveSubuniverse_inF -->
<g id="node15" class="node">
<title>CoreflectiveSubuniverse_inF</title>
<g id="a_node15"><a xlink:href="CoreflectiveSubuniverse.html#inF" xlink:title="inF">
<ellipse fill="#f070d1" stroke="#000000" cx="1116" cy="-229.0993" rx="27" ry="18"/>
<ellipse fill="none" stroke="#000000" cx="1116" cy="-229.0993" rx="31" ry="22"/>
<ellipse fill="none" stroke="#000000" cx="1116" cy="-229.0993" rx="35" ry="26"/>
<text text-anchor="middle" x="1116" y="-225.3993" font-family="Times,serif" font-size="14.00" fill="#000000">inF</text>
</a>
</g>
</g>
<!-- CoreflectiveSubuniverse_inF&#45;&gt;CoreflectiveSubuniverse_CoreflectiveSubuniverse -->
<g id="edge20" class="edge">
<title>CoreflectiveSubuniverse_inF&#45;&gt;CoreflectiveSubuniverse_CoreflectiveSubuniverse</title>
<path fill="none" stroke="#000000" d="M1116,-202.8736C1116,-173.6697 1116,-126.6277 1116,-96.5522"/>
<polygon fill="#000000" stroke="#000000" points="1119.5001,-96.3038 1116,-86.3039 1112.5001,-96.3039 1119.5001,-96.3038"/>
</g>
<!-- CoreflectiveSubuniverse_CoreflectiveSubuniverse_sind -->
<g id="node16" class="node">
<title>CoreflectiveSubuniverse_CoreflectiveSubuniverse_sind</title>
<g id="a_node16"><a xlink:href="CoreflectiveSubuniverse.html#CoreflectiveSubuniverse_sind" xlink:title="CoreflectiveSubuniverse_sind">
<ellipse fill="#f070d1" stroke="#000000" cx="579" cy="-229.0993" rx="150.2666" ry="18"/>
<ellipse fill="none" stroke="#000000" cx="579" cy="-229.0993" rx="154.27" ry="22"/>
<ellipse fill="none" stroke="#000000" cx="579" cy="-229.0993" rx="158.2735" ry="26"/>
<text text-anchor="middle" x="579" y="-225.3993" font-family="Times,serif" font-size="14.00" fill="#000000">CoreflectiveSubuniverse_sind</text>
</a>
</g>
</g>
<!-- CoreflectiveSubuniverse_CoreflectiveSubuniverse_sind&#45;&gt;CoreflectiveSubuniverse_Build_CoreflectiveSubuniverse -->
<g id="edge21" class="edge">
<title>CoreflectiveSubuniverse_CoreflectiveSubuniverse_sind&#45;&gt;CoreflectiveSubuniverse_Build_CoreflectiveSubuniverse</title>
<path fill="none" stroke="#000000" d="M561.9693,-203.2319C542.4519,-173.5875 510.6126,-125.228 490.7845,-95.1116"/>
<polygon fill="#000000" stroke="#000000" points="493.4658,-92.8194 485.0435,-86.3918 487.6192,-96.6687 493.4658,-92.8194"/>
</g>
<!-- CoreflectiveSubuniverse_CoreflectiveSubuniverse_sind&#45;&gt;CoreflectiveSubuniverse_CoreflectiveSubuniverse -->
<g id="edge22" class="edge">
<title>CoreflectiveSubuniverse_CoreflectiveSubuniverse_sind&#45;&gt;CoreflectiveSubuniverse_CoreflectiveSubuniverse</title>
<path fill="none" stroke="#000000" d="M655.0842,-206.2882C761.349,-174.4286 952.3273,-117.1707 1051.806,-87.3456"/>
<polygon fill="#000000" stroke="#000000" points="1052.8593,-90.6838 1061.4329,-84.4593 1050.849,-83.9786 1052.8593,-90.6838"/>
</g>
<!-- CoreflectiveSubuniverse_CoreflectiveSubuniverse_rec -->
<g id="node17" class="node">
<title>CoreflectiveSubuniverse_CoreflectiveSubuniverse_rec</title>
<g id="a_node17"><a xlink:href="CoreflectiveSubuniverse.html#CoreflectiveSubuniverse_rec" xlink:title="CoreflectiveSubuniverse_rec">
<ellipse fill="#f070d1" stroke="#000000" cx="170" cy="-406.0993" rx="145.6697" ry="18"/>
<ellipse fill="none" stroke="#000000" cx="170" cy="-406.0993" rx="149.6719" ry="22"/>
<ellipse fill="none" stroke="#000000" cx="170" cy="-406.0993" rx="153.6742" ry="26"/>
<text text-anchor="middle" x="170" y="-402.3993" font-family="Times,serif" font-size="14.00" fill="#000000">CoreflectiveSubuniverse_rec</text>
</a>
</g>
</g>
<!-- CoreflectiveSubuniverse_CoreflectiveSubuniverse_rect -->
<g id="node19" class="node">
<title>CoreflectiveSubuniverse_CoreflectiveSubuniverse_rect</title>
<g id="a_node19"><a xlink:href="CoreflectiveSubuniverse.html#CoreflectiveSubuniverse_rect" xlink:title="CoreflectiveSubuniverse_rect">
<ellipse fill="#f070d1" stroke="#000000" cx="165" cy="-229.0993" rx="149.4735" ry="18"/>
<text text-anchor="middle" x="165" y="-225.3993" font-family="Times,serif" font-size="14.00" fill="#000000">CoreflectiveSubuniverse_rect</text>
</a>
</g>
</g>
<!-- CoreflectiveSubuniverse_CoreflectiveSubuniverse_rec&#45;&gt;CoreflectiveSubuniverse_CoreflectiveSubuniverse_rect -->
<g id="edge23" class="edge">
<title>CoreflectiveSubuniverse_CoreflectiveSubuniverse_rec&#45;&gt;CoreflectiveSubuniverse_CoreflectiveSubuniverse_rect</title>
<path fill="none" stroke="#000000" d="M169.2622,-379.9824C168.3357,-347.1825 166.7521,-291.1221 165.798,-257.3494"/>
<polygon fill="#000000" stroke="#000000" points="169.2931,-257.1222 165.512,-247.2251 162.2959,-257.32 169.2931,-257.1222"/>
</g>
<!-- CoreflectiveSubuniverse_CoreflectiveSubuniverse_ind -->
<g id="node18" class="node">
<title>CoreflectiveSubuniverse_CoreflectiveSubuniverse_ind</title>
<g id="a_node18"><a xlink:href="CoreflectiveSubuniverse.html#CoreflectiveSubuniverse_ind" xlink:title="CoreflectiveSubuniverse_ind">
<ellipse fill="#7fffd4" stroke="#000000" cx="909" cy="-229.0993" rx="145.6697" ry="18"/>
<ellipse fill="none" stroke="#000000" cx="909" cy="-229.0993" rx="149.6719" ry="22"/>
<ellipse fill="none" stroke="#000000" cx="909" cy="-229.0993" rx="153.6742" ry="26"/>
<text text-anchor="middle" x="909" y="-225.3993" font-family="Times,serif" font-size="14.00" fill="#000000">CoreflectiveSubuniverse_ind</text>
</a>
</g>
</g>
<!-- CoreflectiveSubuniverse_CoreflectiveSubuniverse_ind&#45;&gt;CoreflectiveSubuniverse_Build_CoreflectiveSubuniverse -->
<g id="edge24" class="edge">
<title>CoreflectiveSubuniverse_CoreflectiveSubuniverse_ind&#45;&gt;CoreflectiveSubuniverse_Build_CoreflectiveSubuniverse</title>
<path fill="none" stroke="#000000" d="M844.6667,-205.3432C759.3079,-173.8231 609.9967,-118.6876 529.0366,-88.7917"/>
<polygon fill="#000000" stroke="#000000" points="530.1044,-85.4551 519.5111,-85.2743 527.6796,-92.0217 530.1044,-85.4551"/>
</g>
<!-- CoreflectiveSubuniverse_CoreflectiveSubuniverse_ind&#45;&gt;CoreflectiveSubuniverse_CoreflectiveSubuniverse -->
<g id="edge25" class="edge">
<title>CoreflectiveSubuniverse_CoreflectiveSubuniverse_ind&#45;&gt;CoreflectiveSubuniverse_CoreflectiveSubuniverse</title>
<path fill="none" stroke="#000000" d="M941.7998,-203.5884C981.0142,-173.0882 1046.1663,-122.4144 1084.7035,-92.4411"/>
<polygon fill="#000000" stroke="#000000" points="1087.223,-94.9155 1092.9677,-86.0133 1082.9254,-89.39 1087.223,-94.9155"/>
</g>
<!-- CoreflectiveSubuniverse_CoreflectiveSubuniverse_rect&#45;&gt;CoreflectiveSubuniverse_Build_CoreflectiveSubuniverse -->
<g id="edge26" class="edge">
<title>CoreflectiveSubuniverse_CoreflectiveSubuniverse_rect&#45;&gt;CoreflectiveSubuniverse_Build_CoreflectiveSubuniverse</title>
<path fill="none" stroke="#000000" d="M198.8424,-211.409C255.1767,-181.9615 368.0938,-122.9366 429.9876,-90.5831"/>
<polygon fill="#000000" stroke="#000000" points="431.8608,-93.5533 439.1016,-85.8189 428.6179,-87.3497 431.8608,-93.5533"/>
</g>
<!-- CoreflectiveSubuniverse_CoreflectiveSubuniverse_rect&#45;&gt;CoreflectiveSubuniverse_CoreflectiveSubuniverse -->
<g id="edge27" class="edge">
<title>CoreflectiveSubuniverse_CoreflectiveSubuniverse_rect&#45;&gt;CoreflectiveSubuniverse_CoreflectiveSubuniverse</title>
<path fill="none" stroke="#000000" d="M251.916,-214.3848C431.4501,-183.9905 841.7286,-114.5322 1024.8374,-83.5327"/>
<polygon fill="#000000" stroke="#000000" points="1025.4354,-86.9814 1034.7108,-81.8612 1024.2669,-80.0796 1025.4354,-86.9814"/>
</g>
</g>
</svg>
