<?xml version="1.0" encoding="UTF-8" standalone="no"?>
<!DOCTYPE svg PUBLIC "-//W3C//DTD SVG 1.1//EN"
 "http://www.w3.org/Graphics/SVG/1.1/DTD/svg11.dtd">
<!-- Generated by graphviz version 2.40.1 (20161225.0304)
 -->
<!-- Title: HoTT_WildCat_TwoOneCat Pages: 1 -->
<svg width="2921pt" height="1465pt"
 viewBox="0.00 0.00 2921.00 1464.50" xmlns="http://www.w3.org/2000/svg" xmlns:xlink="http://www.w3.org/1999/xlink">
<g id="graph0" class="graph" transform="scale(1 1) rotate(0) translate(4 1460.5)">
<title>HoTT_WildCat_TwoOneCat</title>
<polygon fill="#ffffff" stroke="transparent" points="-4,4 -4,-1460.5 2917,-1460.5 2917,4 -4,4"/>
<g id="clust1" class="cluster">
<title>cluster_TwoOneCat</title>
<polygon fill="#ffffc3" stroke="#000000" points="8,-43.6404 8,-1412.8596 2905,-1412.8596 2905,-43.6404 8,-43.6404"/>
<text text-anchor="middle" x="58.5" y="-1397.6596" font-family="Times,serif" font-size="14.00" fill="#000000">TwoOneCat</text>
</g>
<!-- TwoOneCat_cat_tril -->
<g id="node1" class="node">
<title>TwoOneCat_cat_tril</title>
<g id="a_node1"><a xlink:href="TwoOneCat.html#cat_tril" xlink:title="cat_tril">
<ellipse fill="#f070d1" stroke="#000000" cx="2683" cy="-621.6404" rx="44.3627" ry="18"/>
<ellipse fill="none" stroke="#000000" cx="2683" cy="-621.6404" rx="48.3778" ry="22"/>
<ellipse fill="none" stroke="#000000" cx="2683" cy="-621.6404" rx="52.3929" ry="26"/>
<text text-anchor="middle" x="2683" y="-617.9404" font-family="Times,serif" font-size="14.00" fill="#000000">cat_tril</text>
</a>
</g>
</g>
<!-- TwoOneCat_Is21Cat -->
<g id="node17" class="node">
<title>TwoOneCat_Is21Cat</title>
<g id="a_node17"><a xlink:href="TwoOneCat.html#Is21Cat" xlink:title="Is21Cat">
<ellipse fill="#e2cdfa" stroke="#000000" cx="1447" cy="-185.6404" rx="48.1917" ry="18"/>
<text text-anchor="middle" x="1447" y="-181.9404" font-family="Times,serif" font-size="14.00" fill="#000000">Is21Cat</text>
</a>
</g>
</g>
<!-- TwoOneCat_cat_tril&#45;&gt;TwoOneCat_Is21Cat -->
<g id="edge1" class="edge">
<title>TwoOneCat_cat_tril&#45;&gt;TwoOneCat_Is21Cat</title>
<path fill="none" stroke="#000000" d="M2643.4556,-604.6338C2636.0269,-601.5597 2628.3008,-598.4431 2621,-595.6404 2187.1151,-429.0795 1652.7743,-252.7203 1493.7409,-200.8224"/>
<polygon fill="#000000" stroke="#000000" points="1494.4058,-197.358 1483.8134,-197.5854 1492.2358,-204.0131 1494.4058,-197.358"/>
</g>
<!-- TwoOneCat_cat_pentagon -->
<g id="node2" class="node">
<title>TwoOneCat_cat_pentagon</title>
<g id="a_node2"><a xlink:href="TwoOneCat.html#cat_pentagon" xlink:title="cat_pentagon">
<ellipse fill="#f070d1" stroke="#000000" cx="2531" cy="-621.6404" rx="73.3926" ry="18"/>
<ellipse fill="none" stroke="#000000" cx="2531" cy="-621.6404" rx="77.3898" ry="22"/>
<ellipse fill="none" stroke="#000000" cx="2531" cy="-621.6404" rx="81.387" ry="26"/>
<text text-anchor="middle" x="2531" y="-617.9404" font-family="Times,serif" font-size="14.00" fill="#000000">cat_pentagon</text>
</a>
</g>
</g>
<!-- TwoOneCat_cat_pentagon&#45;&gt;TwoOneCat_Is21Cat -->
<g id="edge2" class="edge">
<title>TwoOneCat_cat_pentagon&#45;&gt;TwoOneCat_Is21Cat</title>
<path fill="none" stroke="#000000" d="M2480.1704,-601.1961C2295.1928,-526.7955 1659.8334,-271.245 1489.372,-202.6831"/>
<polygon fill="#000000" stroke="#000000" points="1490.5608,-199.3887 1479.977,-198.9043 1487.9486,-205.8831 1490.5608,-199.3887"/>
</g>
<!-- TwoOneCat_is1natural_cat_idr -->
<g id="node3" class="node">
<title>TwoOneCat_is1natural_cat_idr</title>
<g id="a_node3"><a xlink:href="TwoOneCat.html#is1natural_cat_idr" xlink:title="is1natural_cat_idr">
<ellipse fill="#f070d1" stroke="#000000" cx="2328" cy="-621.6404" rx="95.5799" ry="18"/>
<ellipse fill="none" stroke="#000000" cx="2328" cy="-621.6404" rx="99.5815" ry="22"/>
<ellipse fill="none" stroke="#000000" cx="2328" cy="-621.6404" rx="103.5831" ry="26"/>
<text text-anchor="middle" x="2328" y="-617.9404" font-family="Times,serif" font-size="14.00" fill="#000000">is1natural_cat_idr</text>
</a>
</g>
</g>
<!-- TwoOneCat_is1natural_cat_idr&#45;&gt;TwoOneCat_Is21Cat -->
<g id="edge3" class="edge">
<title>TwoOneCat_is1natural_cat_idr&#45;&gt;TwoOneCat_Is21Cat</title>
<path fill="none" stroke="#000000" d="M2280.9451,-598.3533C2125.1376,-521.2454 1627.8656,-275.1494 1485.4494,-204.6688"/>
<polygon fill="#000000" stroke="#000000" points="1486.718,-201.3914 1476.203,-200.0928 1483.6131,-207.6652 1486.718,-201.3914"/>
</g>
<!-- TwoOneCat_is1natural_cat_idl -->
<g id="node4" class="node">
<title>TwoOneCat_is1natural_cat_idl</title>
<g id="a_node4"><a xlink:href="TwoOneCat.html#is1natural_cat_idl" xlink:title="is1natural_cat_idl">
<ellipse fill="#f070d1" stroke="#000000" cx="2104" cy="-621.6404" rx="94.4649" ry="18"/>
<ellipse fill="none" stroke="#000000" cx="2104" cy="-621.6404" rx="98.4744" ry="22"/>
<ellipse fill="none" stroke="#000000" cx="2104" cy="-621.6404" rx="102.4838" ry="26"/>
<text text-anchor="middle" x="2104" y="-617.9404" font-family="Times,serif" font-size="14.00" fill="#000000">is1natural_cat_idl</text>
</a>
</g>
</g>
<!-- TwoOneCat_is1natural_cat_idl&#45;&gt;TwoOneCat_Is21Cat -->
<g id="edge4" class="edge">
<title>TwoOneCat_is1natural_cat_idl&#45;&gt;TwoOneCat_Is21Cat</title>
<path fill="none" stroke="#000000" d="M2067.269,-597.2649C1950.5798,-519.8273 1589.5332,-280.2287 1479.2955,-207.0725"/>
<polygon fill="#000000" stroke="#000000" points="1481.1685,-204.1149 1470.901,-201.5017 1477.2979,-209.9474 1481.1685,-204.1149"/>
</g>
<!-- TwoOneCat_is1natural_cat_assoc_r -->
<g id="node5" class="node">
<title>TwoOneCat_is1natural_cat_assoc_r</title>
<g id="a_node5"><a xlink:href="TwoOneCat.html#is1natural_cat_assoc_r" xlink:title="is1natural_cat_assoc_r">
<ellipse fill="#f070d1" stroke="#000000" cx="1858" cy="-621.6404" rx="117.7704" ry="18"/>
<ellipse fill="none" stroke="#000000" cx="1858" cy="-621.6404" rx="121.7748" ry="22"/>
<ellipse fill="none" stroke="#000000" cx="1858" cy="-621.6404" rx="125.7793" ry="26"/>
<text text-anchor="middle" x="1858" y="-617.9404" font-family="Times,serif" font-size="14.00" fill="#000000">is1natural_cat_assoc_r</text>
</a>
</g>
</g>
<!-- TwoOneCat_is1natural_cat_assoc_r&#45;&gt;TwoOneCat_Is21Cat -->
<g id="edge5" class="edge">
<title>TwoOneCat_is1natural_cat_assoc_r&#45;&gt;TwoOneCat_Is21Cat</title>
<path fill="none" stroke="#000000" d="M1833.8245,-595.9944C1760.6271,-518.3447 1542.0368,-286.4581 1470.1783,-210.2286"/>
<polygon fill="#000000" stroke="#000000" points="1472.7119,-207.8138 1463.3057,-202.938 1467.6183,-212.6154 1472.7119,-207.8138"/>
</g>
<!-- TwoOneCat_is1natural_cat_assoc_m -->
<g id="node6" class="node">
<title>TwoOneCat_is1natural_cat_assoc_m</title>
<g id="a_node6"><a xlink:href="TwoOneCat.html#is1natural_cat_assoc_m" xlink:title="is1natural_cat_assoc_m">
<ellipse fill="#f070d1" stroke="#000000" cx="1584" cy="-621.6404" rx="122.367" ry="18"/>
<ellipse fill="none" stroke="#000000" cx="1584" cy="-621.6404" rx="126.3728" ry="22"/>
<ellipse fill="none" stroke="#000000" cx="1584" cy="-621.6404" rx="130.3786" ry="26"/>
<text text-anchor="middle" x="1584" y="-617.9404" font-family="Times,serif" font-size="14.00" fill="#000000">is1natural_cat_assoc_m</text>
</a>
</g>
</g>
<!-- TwoOneCat_is1natural_cat_assoc_m&#45;&gt;TwoOneCat_Is21Cat -->
<g id="edge6" class="edge">
<title>TwoOneCat_is1natural_cat_assoc_m&#45;&gt;TwoOneCat_Is21Cat</title>
<path fill="none" stroke="#000000" d="M1575.8403,-595.6724C1551.6936,-518.826 1480.7253,-292.9706 1455.7872,-213.6057"/>
<polygon fill="#000000" stroke="#000000" points="1459.0518,-212.3193 1452.715,-203.8284 1452.3737,-214.4177 1459.0518,-212.3193"/>
</g>
<!-- TwoOneCat_is1natural_cat_assoc_l -->
<g id="node7" class="node">
<title>TwoOneCat_is1natural_cat_assoc_l</title>
<g id="a_node7"><a xlink:href="TwoOneCat.html#is1natural_cat_assoc_l" xlink:title="is1natural_cat_assoc_l">
<ellipse fill="#f070d1" stroke="#000000" cx="1311" cy="-621.6404" rx="116.1899" ry="18"/>
<ellipse fill="none" stroke="#000000" cx="1311" cy="-621.6404" rx="120.1847" ry="22"/>
<ellipse fill="none" stroke="#000000" cx="1311" cy="-621.6404" rx="124.1796" ry="26"/>
<text text-anchor="middle" x="1311" y="-617.9404" font-family="Times,serif" font-size="14.00" fill="#000000">is1natural_cat_assoc_l</text>
</a>
</g>
</g>
<!-- TwoOneCat_is1natural_cat_assoc_l&#45;&gt;TwoOneCat_Is21Cat -->
<g id="edge7" class="edge">
<title>TwoOneCat_is1natural_cat_assoc_l&#45;&gt;TwoOneCat_Is21Cat</title>
<path fill="none" stroke="#000000" d="M1319.1001,-595.6724C1343.0706,-518.826 1413.5209,-292.9706 1438.2769,-213.6057"/>
<polygon fill="#000000" stroke="#000000" points="1441.6901,-214.417 1441.3267,-203.8284 1435.0077,-212.3325 1441.6901,-214.417"/>
</g>
<!-- TwoOneCat_is1functor_precomp -->
<g id="node8" class="node">
<title>TwoOneCat_is1functor_precomp</title>
<g id="a_node8"><a xlink:href="TwoOneCat.html#is1functor_precomp" xlink:title="is1functor_precomp">
<ellipse fill="#f070d1" stroke="#000000" cx="1056" cy="-621.6404" rx="104.7716" ry="18"/>
<ellipse fill="none" stroke="#000000" cx="1056" cy="-621.6404" rx="108.7766" ry="22"/>
<ellipse fill="none" stroke="#000000" cx="1056" cy="-621.6404" rx="112.7816" ry="26"/>
<text text-anchor="middle" x="1056" y="-617.9404" font-family="Times,serif" font-size="14.00" fill="#000000">is1functor_precomp</text>
</a>
</g>
</g>
<!-- TwoOneCat_is1functor_precomp&#45;&gt;TwoOneCat_Is21Cat -->
<g id="edge8" class="edge">
<title>TwoOneCat_is1functor_precomp&#45;&gt;TwoOneCat_Is21Cat</title>
<path fill="none" stroke="#000000" d="M1078.9991,-595.9944C1148.4938,-518.5015 1355.7482,-287.3943 1424.5336,-210.6925"/>
<polygon fill="#000000" stroke="#000000" points="1427.417,-212.7196 1431.4878,-202.938 1422.2056,-208.0461 1427.417,-212.7196"/>
</g>
<!-- TwoOneCat_is1functor_postcomp -->
<g id="node9" class="node">
<title>TwoOneCat_is1functor_postcomp</title>
<g id="a_node9"><a xlink:href="TwoOneCat.html#is1functor_postcomp" xlink:title="is1functor_postcomp">
<ellipse fill="#f070d1" stroke="#000000" cx="809" cy="-621.6404" rx="108.578" ry="18"/>
<ellipse fill="none" stroke="#000000" cx="809" cy="-621.6404" rx="112.5794" ry="22"/>
<ellipse fill="none" stroke="#000000" cx="809" cy="-621.6404" rx="116.5808" ry="26"/>
<text text-anchor="middle" x="809" y="-617.9404" font-family="Times,serif" font-size="14.00" fill="#000000">is1functor_postcomp</text>
</a>
</g>
</g>
<!-- TwoOneCat_is1functor_postcomp&#45;&gt;TwoOneCat_Is21Cat -->
<g id="edge9" class="edge">
<title>TwoOneCat_is1functor_postcomp&#45;&gt;TwoOneCat_Is21Cat</title>
<path fill="none" stroke="#000000" d="M845.5932,-596.6332C959.8116,-518.578 1308.4743,-280.3069 1415.4529,-207.1993"/>
<polygon fill="#000000" stroke="#000000" points="1417.6101,-209.9644 1423.8916,-201.4324 1413.6605,-204.185 1417.6101,-209.9644"/>
</g>
<!-- TwoOneCat_is1gpd_hom -->
<g id="node10" class="node">
<title>TwoOneCat_is1gpd_hom</title>
<g id="a_node10"><a xlink:href="TwoOneCat.html#is1gpd_hom" xlink:title="is1gpd_hom">
<ellipse fill="#f070d1" stroke="#000000" cx="600" cy="-621.6404" rx="66.8941" ry="18"/>
<ellipse fill="none" stroke="#000000" cx="600" cy="-621.6404" rx="70.8911" ry="22"/>
<ellipse fill="none" stroke="#000000" cx="600" cy="-621.6404" rx="74.8882" ry="26"/>
<text text-anchor="middle" x="600" y="-617.9404" font-family="Times,serif" font-size="14.00" fill="#000000">is1gpd_hom</text>
</a>
</g>
</g>
<!-- TwoOneCat_is1gpd_hom&#45;&gt;TwoOneCat_Is21Cat -->
<g id="edge10" class="edge">
<title>TwoOneCat_is1gpd_hom&#45;&gt;TwoOneCat_Is21Cat</title>
<path fill="none" stroke="#000000" d="M642.0029,-600.0191C787.8614,-524.9373 1271.0817,-276.1958 1409.5926,-204.8962"/>
<polygon fill="#000000" stroke="#000000" points="1411.2968,-207.9555 1418.5861,-200.2667 1408.093,-201.7317 1411.2968,-207.9555"/>
</g>
<!-- TwoOneCat_is1cat_hom -->
<g id="node11" class="node">
<title>TwoOneCat_is1cat_hom</title>
<g id="a_node11"><a xlink:href="TwoOneCat.html#is1cat_hom" xlink:title="is1cat_hom">
<ellipse fill="#f070d1" stroke="#000000" cx="2825" cy="-621.6404" rx="63.8675" ry="18"/>
<ellipse fill="none" stroke="#000000" cx="2825" cy="-621.6404" rx="67.8784" ry="22"/>
<ellipse fill="none" stroke="#000000" cx="2825" cy="-621.6404" rx="71.8892" ry="26"/>
<text text-anchor="middle" x="2825" y="-617.9404" font-family="Times,serif" font-size="14.00" fill="#000000">is1cat_hom</text>
</a>
</g>
</g>
<!-- TwoOneCat_is1cat_hom&#45;&gt;TwoOneCat_Is21Cat -->
<g id="edge11" class="edge">
<title>TwoOneCat_is1cat_hom&#45;&gt;TwoOneCat_Is21Cat</title>
<path fill="none" stroke="#000000" d="M2770.9835,-604.2652C2761.9747,-601.3779 2752.7249,-598.4198 2744,-595.6404 2255.0493,-439.8856 1661.6857,-253.1456 1493.4452,-200.2408"/>
<polygon fill="#000000" stroke="#000000" points="1494.4907,-196.9006 1483.9012,-197.2398 1492.3909,-203.5783 1494.4907,-196.9006"/>
</g>
<!-- TwoOneCat_Is21Cat_sind -->
<g id="node12" class="node">
<title>TwoOneCat_Is21Cat_sind</title>
<g id="a_node12"><a xlink:href="TwoOneCat.html#Is21Cat_sind" xlink:title="Is21Cat_sind">
<ellipse fill="#f070d1" stroke="#000000" cx="257" cy="-621.6404" rx="72.2731" ry="18"/>
<ellipse fill="none" stroke="#000000" cx="257" cy="-621.6404" rx="76.2803" ry="22"/>
<ellipse fill="none" stroke="#000000" cx="257" cy="-621.6404" rx="80.2875" ry="26"/>
<text text-anchor="middle" x="257" y="-617.9404" font-family="Times,serif" font-size="14.00" fill="#000000">Is21Cat_sind</text>
</a>
</g>
</g>
<!-- TwoOneCat_Build_Is21Cat -->
<g id="node16" class="node">
<title>TwoOneCat_Build_Is21Cat</title>
<g id="a_node16"><a xlink:href="TwoOneCat.html#Build_Is21Cat" xlink:title="Build_Is21Cat">
<ellipse fill="#7faaff" stroke="#000000" cx="257" cy="-185.6404" rx="77.1866" ry="18"/>
<text text-anchor="middle" x="257" y="-181.9404" font-family="Times,serif" font-size="14.00" fill="#000000">Build_Is21Cat</text>
</a>
</g>
</g>
<!-- TwoOneCat_Is21Cat_sind&#45;&gt;TwoOneCat_Build_Is21Cat -->
<g id="edge12" class="edge">
<title>TwoOneCat_Is21Cat_sind&#45;&gt;TwoOneCat_Build_Is21Cat</title>
<path fill="none" stroke="#000000" d="M257,-595.3486C257,-518.3314 257,-293.6643 257,-214.032"/>
<polygon fill="#000000" stroke="#000000" points="260.5001,-213.7885 257,-203.7885 253.5001,-213.7886 260.5001,-213.7885"/>
</g>
<!-- TwoOneCat_Is21Cat_sind&#45;&gt;TwoOneCat_Is21Cat -->
<g id="edge13" class="edge">
<title>TwoOneCat_Is21Cat_sind&#45;&gt;TwoOneCat_Is21Cat</title>
<path fill="none" stroke="#000000" d="M310.4436,-602.0594C511.2799,-528.4757 1218.7409,-269.2715 1402.9063,-201.7958"/>
<polygon fill="#000000" stroke="#000000" points="1404.3482,-204.9951 1412.5337,-198.2684 1401.94,-198.4224 1404.3482,-204.9951"/>
</g>
<!-- TwoOneCat_Is21Cat_rec -->
<g id="node13" class="node">
<title>TwoOneCat_Is21Cat_rec</title>
<g id="a_node13"><a xlink:href="TwoOneCat.html#Is21Cat_rec" xlink:title="Is21Cat_rec">
<ellipse fill="#f070d1" stroke="#000000" cx="92" cy="-1101.6404" rx="67.6782" ry="18"/>
<ellipse fill="none" stroke="#000000" cx="92" cy="-1101.6404" rx="71.6831" ry="22"/>
<ellipse fill="none" stroke="#000000" cx="92" cy="-1101.6404" rx="75.6881" ry="26"/>
<text text-anchor="middle" x="92" y="-1097.9404" font-family="Times,serif" font-size="14.00" fill="#000000">Is21Cat_rec</text>
</a>
</g>
</g>
<!-- TwoOneCat_Is21Cat_rect -->
<g id="node15" class="node">
<title>TwoOneCat_Is21Cat_rect</title>
<g id="a_node15"><a xlink:href="TwoOneCat.html#Is21Cat_rect" xlink:title="Is21Cat_rect">
<ellipse fill="#f070d1" stroke="#000000" cx="87" cy="-621.6404" rx="71.4873" ry="18"/>
<text text-anchor="middle" x="87" y="-617.9404" font-family="Times,serif" font-size="14.00" fill="#000000">Is21Cat_rect</text>
</a>
</g>
</g>
<!-- TwoOneCat_Is21Cat_rec&#45;&gt;TwoOneCat_Is21Cat_rect -->
<g id="edge14" class="edge">
<title>TwoOneCat_Is21Cat_rec&#45;&gt;TwoOneCat_Is21Cat_rect</title>
<path fill="none" stroke="#000000" d="M91.7276,-1075.4927C90.8638,-992.5686 88.1901,-735.8872 87.2952,-649.9806"/>
<polygon fill="#000000" stroke="#000000" points="90.7945,-649.885 87.1904,-639.9221 83.7949,-649.958 90.7945,-649.885"/>
</g>
<!-- TwoOneCat_Is21Cat_ind -->
<g id="node14" class="node">
<title>TwoOneCat_Is21Cat_ind</title>
<g id="a_node14"><a xlink:href="TwoOneCat.html#Is21Cat_ind" xlink:title="Is21Cat_ind">
<ellipse fill="#7fffd4" stroke="#000000" cx="431" cy="-621.6404" rx="67.6782" ry="18"/>
<ellipse fill="none" stroke="#000000" cx="431" cy="-621.6404" rx="71.6831" ry="22"/>
<ellipse fill="none" stroke="#000000" cx="431" cy="-621.6404" rx="75.6881" ry="26"/>
<text text-anchor="middle" x="431" y="-617.9404" font-family="Times,serif" font-size="14.00" fill="#000000">Is21Cat_ind</text>
</a>
</g>
</g>
<!-- TwoOneCat_Is21Cat_ind&#45;&gt;TwoOneCat_Build_Is21Cat -->
<g id="edge15" class="edge">
<title>TwoOneCat_Is21Cat_ind&#45;&gt;TwoOneCat_Build_Is21Cat</title>
<path fill="none" stroke="#000000" d="M420.6366,-595.6724C389.906,-518.6692 299.4654,-292.0481 267.9672,-213.1216"/>
<polygon fill="#000000" stroke="#000000" points="271.2158,-211.8187 264.2585,-203.8284 264.7144,-214.4134 271.2158,-211.8187"/>
</g>
<!-- TwoOneCat_Is21Cat_ind&#45;&gt;TwoOneCat_Is21Cat -->
<g id="edge16" class="edge">
<title>TwoOneCat_Is21Cat_ind&#45;&gt;TwoOneCat_Is21Cat</title>
<path fill="none" stroke="#000000" d="M478.3031,-601.3411C650.5826,-527.4101 1242.8908,-273.2306 1405.4454,-203.4729"/>
<polygon fill="#000000" stroke="#000000" points="1407.2734,-206.4972 1415.0827,-199.3372 1404.5129,-200.0645 1407.2734,-206.4972"/>
</g>
<!-- TwoOneCat_Is21Cat_rect&#45;&gt;TwoOneCat_Build_Is21Cat -->
<g id="edge17" class="edge">
<title>TwoOneCat_Is21Cat_rect&#45;&gt;TwoOneCat_Build_Is21Cat</title>
<path fill="none" stroke="#000000" d="M94.0883,-603.4612C120.6306,-535.388 214.2526,-295.2749 246.2135,-213.3047"/>
<polygon fill="#000000" stroke="#000000" points="249.5096,-214.4857 249.8815,-203.8973 242.9878,-211.9427 249.5096,-214.4857"/>
</g>
<!-- TwoOneCat_Is21Cat_rect&#45;&gt;TwoOneCat_Is21Cat -->
<g id="edge18" class="edge">
<title>TwoOneCat_Is21Cat_rect&#45;&gt;TwoOneCat_Is21Cat</title>
<path fill="none" stroke="#000000" d="M131.1397,-607.4688C143.1006,-603.6295 156.0461,-599.475 168,-595.6404 649.9616,-441.0391 1234.1452,-253.8427 1400.6909,-200.4783"/>
<polygon fill="#000000" stroke="#000000" points="1401.9154,-203.7613 1410.3705,-197.3768 1399.7794,-197.0952 1401.9154,-203.7613"/>
</g>
</g>
</svg>
