<?xml version="1.0" encoding="UTF-8" standalone="no"?>
<!DOCTYPE svg PUBLIC "-//W3C//DTD SVG 1.1//EN"
 "http://www.w3.org/Graphics/SVG/1.1/DTD/svg11.dtd">
<!-- Generated by graphviz version 2.40.1 (20161225.0304)
 -->
<!-- Title: HoTT_WildCat_Universe Pages: 1 -->
<svg width="1262pt" height="635pt"
 viewBox="0.00 0.00 1262.00 635.00" xmlns="http://www.w3.org/2000/svg" xmlns:xlink="http://www.w3.org/1999/xlink">
<g id="graph0" class="graph" transform="scale(1 1) rotate(0) translate(4 631)">
<title>HoTT_WildCat_Universe</title>
<polygon fill="#ffffff" stroke="transparent" points="-4,4 -4,-631 1258,-631 1258,4 -4,4"/>
<g id="clust1" class="cluster">
<title>cluster_Universe</title>
<polygon fill="#ffffc3" stroke="#000000" points="12.9948,-8 12.9948,-619 1241.0052,-619 1241.0052,-8 12.9948,-8"/>
<text text-anchor="middle" x="53.4948" y="-603.8" font-family="Times,serif" font-size="14.00" fill="#000000">Universe</text>
</g>
<!-- Universe_isterminal_unit -->
<g id="node1" class="node">
<title>Universe_isterminal_unit</title>
<g id="a_node1"><a xlink:href="Universe.html#isterminal_unit" xlink:title="isterminal_unit">
<ellipse fill="#f070d1" stroke="#000000" cx="1083.6891" cy="-474" rx="81.4644" ry="18"/>
<ellipse fill="none" stroke="#000000" cx="1083.6891" cy="-474" rx="85.4753" ry="22"/>
<ellipse fill="none" stroke="#000000" cx="1083.6891" cy="-474" rx="89.4862" ry="26"/>
<text text-anchor="middle" x="1083.6891" y="-470.3" font-family="Times,serif" font-size="14.00" fill="#000000">isterminal_unit</text>
</a>
</g>
</g>
<!-- Universe_is1cat_strong_type -->
<g id="node6" class="node">
<title>Universe_is1cat_strong_type</title>
<g id="a_node6"><a xlink:href="Universe.html#is1cat_strong_type" xlink:title="is1cat_strong_type">
<ellipse fill="#f070d1" stroke="#000000" cx="712.6891" cy="-394" rx="99.3824" ry="18"/>
<text text-anchor="middle" x="712.6891" y="-390.3" font-family="Times,serif" font-size="14.00" fill="#000000">is1cat_strong_type</text>
</a>
</g>
</g>
<!-- Universe_isterminal_unit&#45;&gt;Universe_is1cat_strong_type -->
<g id="edge1" class="edge">
<title>Universe_isterminal_unit&#45;&gt;Universe_is1cat_strong_type</title>
<path fill="none" stroke="#000000" d="M1011.7167,-458.4803C946.8772,-444.4988 851.9692,-424.0334 786.5531,-409.9275"/>
<polygon fill="#000000" stroke="#000000" points="787.2331,-406.4938 776.7199,-407.8072 785.7575,-413.3365 787.2331,-406.4938"/>
</g>
<!-- Universe_isinitial_zero -->
<g id="node2" class="node">
<title>Universe_isinitial_zero</title>
<g id="a_node2"><a xlink:href="Universe.html#isinitial_zero" xlink:title="isinitial_zero">
<ellipse fill="#f070d1" stroke="#000000" cx="782.6891" cy="-474" rx="70.3682" ry="18"/>
<ellipse fill="none" stroke="#000000" cx="782.6891" cy="-474" rx="74.3781" ry="22"/>
<ellipse fill="none" stroke="#000000" cx="782.6891" cy="-474" rx="78.388" ry="26"/>
<text text-anchor="middle" x="782.6891" y="-470.3" font-family="Times,serif" font-size="14.00" fill="#000000">isinitial_zero</text>
</a>
</g>
</g>
<!-- Universe_isinitial_zero&#45;&gt;Universe_is1cat_strong_type -->
<g id="edge2" class="edge">
<title>Universe_isinitial_zero&#45;&gt;Universe_is1cat_strong_type</title>
<path fill="none" stroke="#000000" d="M760.5407,-448.6875C752.486,-439.4822 743.3768,-429.0717 735.284,-419.8227"/>
<polygon fill="#000000" stroke="#000000" points="737.7049,-417.2743 728.4858,-412.0533 732.4368,-421.8839 737.7049,-417.2743"/>
</g>
<!-- Universe_catie_isequiv -->
<g id="node3" class="node">
<title>Universe_catie_isequiv</title>
<g id="a_node3"><a xlink:href="Universe.html#catie_isequiv" xlink:title="catie_isequiv">
<ellipse fill="#f070d1" stroke="#000000" cx="491.6891" cy="-562" rx="71.488" ry="18"/>
<ellipse fill="none" stroke="#000000" cx="491.6891" cy="-562" rx="75.4876" ry="22"/>
<ellipse fill="none" stroke="#000000" cx="491.6891" cy="-562" rx="79.4873" ry="26"/>
<text text-anchor="middle" x="491.6891" y="-558.3" font-family="Times,serif" font-size="14.00" fill="#000000">catie_isequiv</text>
</a>
</g>
</g>
<!-- Universe_hasequivs_type -->
<g id="node4" class="node">
<title>Universe_hasequivs_type</title>
<g id="a_node4"><a xlink:href="Universe.html#hasequivs_type" xlink:title="hasequivs_type">
<ellipse fill="#f070d1" stroke="#000000" cx="491.6891" cy="-474" rx="82.5854" ry="18"/>
<text text-anchor="middle" x="491.6891" y="-470.3" font-family="Times,serif" font-size="14.00" fill="#000000">hasequivs_type</text>
</a>
</g>
</g>
<!-- Universe_catie_isequiv&#45;&gt;Universe_hasequivs_type -->
<g id="edge3" class="edge">
<title>Universe_catie_isequiv&#45;&gt;Universe_hasequivs_type</title>
<path fill="none" stroke="#000000" d="M491.6891,-535.5971C491.6891,-525.0414 491.6891,-512.868 491.6891,-502.1448"/>
<polygon fill="#000000" stroke="#000000" points="495.1892,-502.0188 491.6891,-492.0188 488.1892,-502.0188 495.1892,-502.0188"/>
</g>
<!-- Universe_hasequivs_type&#45;&gt;Universe_is1cat_strong_type -->
<g id="edge4" class="edge">
<title>Universe_hasequivs_type&#45;&gt;Universe_is1cat_strong_type</title>
<path fill="none" stroke="#000000" d="M534.3001,-458.5752C569.6831,-445.7669 620.2286,-427.4699 658.4877,-413.6204"/>
<polygon fill="#000000" stroke="#000000" points="659.7216,-416.8961 667.9332,-410.2012 657.339,-410.314 659.7216,-416.8961"/>
</g>
<!-- Universe_hasmorext_type -->
<g id="node5" class="node">
<title>Universe_hasmorext_type</title>
<g id="a_node5"><a xlink:href="Universe.html#hasmorext_type" xlink:title="hasmorext_type">
<ellipse fill="#f070d1" stroke="#000000" cx="176.6891" cy="-474" rx="85.2729" ry="18"/>
<ellipse fill="none" stroke="#000000" cx="176.6891" cy="-474" rx="89.279" ry="22"/>
<ellipse fill="none" stroke="#000000" cx="176.6891" cy="-474" rx="93.2851" ry="26"/>
<text text-anchor="middle" x="176.6891" y="-470.3" font-family="Times,serif" font-size="14.00" fill="#000000">hasmorext_type</text>
</a>
</g>
</g>
<!-- Universe_hasmorext_type&#45;&gt;Universe_is1cat_strong_type -->
<g id="edge5" class="edge">
<title>Universe_hasmorext_type&#45;&gt;Universe_is1cat_strong_type</title>
<path fill="none" stroke="#000000" d="M258.9718,-461.719C358.2306,-446.9043 524.355,-422.1096 625.6814,-406.9862"/>
<polygon fill="#000000" stroke="#000000" points="626.2096,-410.4462 635.5834,-405.5083 625.1762,-403.5229 626.2096,-410.4462"/>
</g>
<!-- Universe_is0functor_type_precomp -->
<g id="node7" class="node">
<title>Universe_is0functor_type_precomp</title>
<g id="a_node7"><a xlink:href="Universe.html#is0functor_type_precomp" xlink:title="is0functor_type_precomp">
<ellipse fill="#f070d1" stroke="#000000" cx="254.6891" cy="-250" rx="129.9769" ry="18"/>
<text text-anchor="middle" x="254.6891" y="-246.3" font-family="Times,serif" font-size="14.00" fill="#000000">is0functor_type_precomp</text>
</a>
</g>
</g>
<!-- Universe_is1cat_strong_type&#45;&gt;Universe_is0functor_type_precomp -->
<g id="edge6" class="edge">
<title>Universe_is1cat_strong_type&#45;&gt;Universe_is0functor_type_precomp</title>
<path fill="none" stroke="#000000" d="M662.8032,-378.3154C578.695,-351.8708 408.8827,-298.4801 317.0457,-269.6056"/>
<polygon fill="#000000" stroke="#000000" points="317.9147,-266.2099 307.3253,-266.5494 315.8151,-272.8876 317.9147,-266.2099"/>
</g>
<!-- Universe_is0functor_type_postcomp -->
<g id="node8" class="node">
<title>Universe_is0functor_type_postcomp</title>
<g id="a_node8"><a xlink:href="Universe.html#is0functor_type_postcomp" xlink:title="is0functor_type_postcomp">
<ellipse fill="#f070d1" stroke="#000000" cx="712.6891" cy="-250" rx="133.7763" ry="18"/>
<text text-anchor="middle" x="712.6891" y="-246.3" font-family="Times,serif" font-size="14.00" fill="#000000">is0functor_type_postcomp</text>
</a>
</g>
</g>
<!-- Universe_is1cat_strong_type&#45;&gt;Universe_is0functor_type_postcomp -->
<g id="edge7" class="edge">
<title>Universe_is1cat_strong_type&#45;&gt;Universe_is0functor_type_postcomp</title>
<path fill="none" stroke="#000000" d="M712.6891,-375.7623C712.6891,-351.201 712.6891,-307.2474 712.6891,-278.3541"/>
<polygon fill="#000000" stroke="#000000" points="716.1892,-278.0896 712.6891,-268.0896 709.1892,-278.0897 716.1892,-278.0896"/>
</g>
<!-- Universe_is0gpd_arrow -->
<g id="node9" class="node">
<title>Universe_is0gpd_arrow</title>
<g id="a_node9"><a xlink:href="Universe.html#is0gpd_arrow" xlink:title="is0gpd_arrow">
<ellipse fill="#f070d1" stroke="#000000" cx="974.6891" cy="-322" rx="74.187" ry="18"/>
<text text-anchor="middle" x="974.6891" y="-318.3" font-family="Times,serif" font-size="14.00" fill="#000000">is0gpd_arrow</text>
</a>
</g>
</g>
<!-- Universe_is1cat_strong_type&#45;&gt;Universe_is0gpd_arrow -->
<g id="edge8" class="edge">
<title>Universe_is1cat_strong_type&#45;&gt;Universe_is0gpd_arrow</title>
<path fill="none" stroke="#000000" d="M767.6129,-378.9064C810.998,-366.9838 871.4195,-350.3794 915.8006,-338.1831"/>
<polygon fill="#000000" stroke="#000000" points="916.8656,-341.5203 925.5807,-335.4954 915.0107,-334.7705 916.8656,-341.5203"/>
</g>
<!-- Universe_isgraph_arrow -->
<g id="node11" class="node">
<title>Universe_isgraph_arrow</title>
<g id="a_node11"><a xlink:href="Universe.html#isgraph_arrow" xlink:title="isgraph_arrow">
<ellipse fill="#f070d1" stroke="#000000" cx="712.6891" cy="-178" rx="77.9862" ry="18"/>
<text text-anchor="middle" x="712.6891" y="-174.3" font-family="Times,serif" font-size="14.00" fill="#000000">isgraph_arrow</text>
</a>
</g>
</g>
<!-- Universe_is0functor_type_precomp&#45;&gt;Universe_isgraph_arrow -->
<g id="edge9" class="edge">
<title>Universe_is0functor_type_precomp&#45;&gt;Universe_isgraph_arrow</title>
<path fill="none" stroke="#000000" d="M340.8354,-236.4574C426.4422,-222.9995 556.3951,-202.5702 637.8224,-189.7694"/>
<polygon fill="#000000" stroke="#000000" points="638.6617,-193.1806 647.9968,-188.17 637.5745,-186.2655 638.6617,-193.1806"/>
</g>
<!-- Universe_is01cat_type -->
<g id="node13" class="node">
<title>Universe_is01cat_type</title>
<g id="a_node13"><a xlink:href="Universe.html#is01cat_type" xlink:title="is01cat_type">
<ellipse fill="#f070d1" stroke="#000000" cx="443.6891" cy="-178" rx="70.3881" ry="18"/>
<text text-anchor="middle" x="443.6891" y="-174.3" font-family="Times,serif" font-size="14.00" fill="#000000">is01cat_type</text>
</a>
</g>
</g>
<!-- Universe_is0functor_type_precomp&#45;&gt;Universe_is01cat_type -->
<g id="edge10" class="edge">
<title>Universe_is0functor_type_precomp&#45;&gt;Universe_is01cat_type</title>
<path fill="none" stroke="#000000" d="M299.4795,-232.937C328.1169,-222.0275 365.2686,-207.8745 394.6907,-196.6661"/>
<polygon fill="#000000" stroke="#000000" points="396.25,-199.8175 404.3489,-192.9868 393.758,-193.2761 396.25,-199.8175"/>
</g>
<!-- Universe_is0functor_type_postcomp&#45;&gt;Universe_isgraph_arrow -->
<g id="edge11" class="edge">
<title>Universe_is0functor_type_postcomp&#45;&gt;Universe_isgraph_arrow</title>
<path fill="none" stroke="#000000" d="M712.6891,-231.8314C712.6891,-224.131 712.6891,-214.9743 712.6891,-206.4166"/>
<polygon fill="#000000" stroke="#000000" points="716.1892,-206.4132 712.6891,-196.4133 709.1892,-206.4133 716.1892,-206.4132"/>
</g>
<!-- Universe_is0functor_type_postcomp&#45;&gt;Universe_is01cat_type -->
<g id="edge12" class="edge">
<title>Universe_is0functor_type_postcomp&#45;&gt;Universe_is01cat_type</title>
<path fill="none" stroke="#000000" d="M652.3203,-233.8418C607.5328,-221.8541 546.7969,-205.5976 502.4079,-193.7165"/>
<polygon fill="#000000" stroke="#000000" points="503.1958,-190.3043 492.6309,-191.0997 501.3859,-197.0663 503.1958,-190.3043"/>
</g>
<!-- Universe_is01cat_arrow -->
<g id="node10" class="node">
<title>Universe_is01cat_arrow</title>
<g id="a_node10"><a xlink:href="Universe.html#is01cat_arrow" xlink:title="is01cat_arrow">
<ellipse fill="#f070d1" stroke="#000000" cx="1084.6891" cy="-250" rx="77.1866" ry="18"/>
<text text-anchor="middle" x="1084.6891" y="-246.3" font-family="Times,serif" font-size="14.00" fill="#000000">is01cat_arrow</text>
</a>
</g>
</g>
<!-- Universe_is0gpd_arrow&#45;&gt;Universe_is01cat_arrow -->
<g id="edge13" class="edge">
<title>Universe_is0gpd_arrow&#45;&gt;Universe_is01cat_arrow</title>
<path fill="none" stroke="#000000" d="M1000.4792,-305.1192C1015.2671,-295.4399 1034.0238,-283.1628 1050.0797,-272.6534"/>
<polygon fill="#000000" stroke="#000000" points="1052.2292,-275.4296 1058.6794,-267.0245 1048.3956,-269.5727 1052.2292,-275.4296"/>
</g>
<!-- Universe_is01cat_arrow&#45;&gt;Universe_isgraph_arrow -->
<g id="edge14" class="edge">
<title>Universe_is01cat_arrow&#45;&gt;Universe_isgraph_arrow</title>
<path fill="none" stroke="#000000" d="M1024.9209,-238.432C958.8535,-225.6447 852.5546,-205.0707 782.6567,-191.5421"/>
<polygon fill="#000000" stroke="#000000" points="783.1,-188.063 772.6171,-189.599 781.7698,-194.9355 783.1,-188.063"/>
</g>
<!-- Universe_is2graph_type -->
<g id="node12" class="node">
<title>Universe_is2graph_type</title>
<g id="a_node12"><a xlink:href="Universe.html#is2graph_type" xlink:title="is2graph_type">
<ellipse fill="#f070d1" stroke="#000000" cx="683.6891" cy="-106" rx="77.1866" ry="18"/>
<text text-anchor="middle" x="683.6891" y="-102.3" font-family="Times,serif" font-size="14.00" fill="#000000">is2graph_type</text>
</a>
</g>
</g>
<!-- Universe_isgraph_arrow&#45;&gt;Universe_is2graph_type -->
<g id="edge15" class="edge">
<title>Universe_isgraph_arrow&#45;&gt;Universe_is2graph_type</title>
<path fill="none" stroke="#000000" d="M705.3712,-159.8314C702.2015,-151.9617 698.4192,-142.5712 694.9078,-133.8533"/>
<polygon fill="#000000" stroke="#000000" points="698.0883,-132.3815 691.1056,-124.4133 691.5952,-134.9968 698.0883,-132.3815"/>
</g>
<!-- Universe_isgraph_type -->
<g id="node14" class="node">
<title>Universe_isgraph_type</title>
<g id="a_node14"><a xlink:href="Universe.html#isgraph_type" xlink:title="isgraph_type">
<ellipse fill="#f070d1" stroke="#000000" cx="548.6891" cy="-34" rx="71.4873" ry="18"/>
<text text-anchor="middle" x="548.6891" y="-30.3" font-family="Times,serif" font-size="14.00" fill="#000000">isgraph_type</text>
</a>
</g>
</g>
<!-- Universe_is2graph_type&#45;&gt;Universe_isgraph_type -->
<g id="edge16" class="edge">
<title>Universe_is2graph_type&#45;&gt;Universe_isgraph_type</title>
<path fill="none" stroke="#000000" d="M652.7174,-89.4817C633.6807,-79.3288 609.0969,-66.2175 588.6078,-55.29"/>
<polygon fill="#000000" stroke="#000000" points="589.9873,-52.0591 579.5167,-50.4414 586.6932,-58.2356 589.9873,-52.0591"/>
</g>
<!-- Universe_is01cat_type&#45;&gt;Universe_isgraph_type -->
<g id="edge17" class="edge">
<title>Universe_is01cat_type&#45;&gt;Universe_isgraph_type</title>
<path fill="none" stroke="#000000" d="M456.7751,-160.0535C475.1092,-134.9096 508.5561,-89.0396 529.649,-60.1122"/>
<polygon fill="#000000" stroke="#000000" points="532.7043,-61.8626 535.768,-51.7204 527.0482,-57.7383 532.7043,-61.8626"/>
</g>
</g>
</svg>
