<?xml version="1.0" encoding="UTF-8" standalone="no"?>
<!DOCTYPE svg PUBLIC "-//W3C//DTD SVG 1.1//EN"
 "http://www.w3.org/Graphics/SVG/1.1/DTD/svg11.dtd">
<!-- Generated by graphviz version 2.40.1 (20161225.0304)
 -->
<!-- Title: HoTT_Types_Unit Pages: 1 -->
<svg width="1180pt" height="594pt"
 viewBox="0.00 0.00 1180.00 594.00" xmlns="http://www.w3.org/2000/svg" xmlns:xlink="http://www.w3.org/1999/xlink">
<g id="graph0" class="graph" transform="scale(1 1) rotate(0) translate(4 590)">
<title>HoTT_Types_Unit</title>
<polygon fill="#ffffff" stroke="transparent" points="-4,4 -4,-590 1176,-590 1176,4 -4,4"/>
<g id="clust1" class="cluster">
<title>cluster_Unit</title>
<polygon fill="#ffffc3" stroke="#000000" points="8,-13.8289 8,-572.1711 1164,-572.1711 1164,-13.8289 8,-13.8289"/>
<text text-anchor="middle" x="32" y="-556.9711" font-family="Times,serif" font-size="14.00" fill="#000000">Unit</text>
</g>
<!-- Unit_contr_equiv_unit -->
<g id="node1" class="node">
<title>Unit_contr_equiv_unit</title>
<g id="a_node1"><a xlink:href="Unit.html#contr_equiv_unit" xlink:title="contr_equiv_unit">
<ellipse fill="#f070d1" stroke="#000000" cx="1059" cy="-473.8289" rx="89.0807" ry="18"/>
<ellipse fill="none" stroke="#000000" cx="1059" cy="-473.8289" rx="93.0825" ry="22"/>
<ellipse fill="none" stroke="#000000" cx="1059" cy="-473.8289" rx="97.0842" ry="26"/>
<text text-anchor="middle" x="1059" y="-470.1289" font-family="Times,serif" font-size="14.00" fill="#000000">contr_equiv_unit</text>
</a>
</g>
</g>
<!-- Unit_contr_unit -->
<g id="node3" class="node">
<title>Unit_contr_unit</title>
<g id="a_node3"><a xlink:href="Unit.html#contr_unit" xlink:title="contr_unit">
<ellipse fill="#f070d1" stroke="#000000" cx="1097" cy="-321.8289" rx="59.2899" ry="18"/>
<text text-anchor="middle" x="1097" y="-318.1289" font-family="Times,serif" font-size="14.00" fill="#000000">contr_unit</text>
</a>
</g>
</g>
<!-- Unit_contr_equiv_unit&#45;&gt;Unit_contr_unit -->
<g id="edge1" class="edge">
<title>Unit_contr_equiv_unit&#45;&gt;Unit_contr_unit</title>
<path fill="none" stroke="#000000" d="M1065.5324,-447.6992C1072.344,-420.4531 1082.983,-377.8967 1089.9731,-349.9364"/>
<polygon fill="#000000" stroke="#000000" points="1093.428,-350.5477 1092.4579,-339.9974 1086.637,-348.8499 1093.428,-350.5477"/>
</g>
<!-- Unit_equiv_contr_unit -->
<g id="node2" class="node">
<title>Unit_equiv_contr_unit</title>
<g id="a_node2"><a xlink:href="Unit.html#equiv_contr_unit" xlink:title="equiv_contr_unit">
<ellipse fill="#f070d1" stroke="#000000" cx="847" cy="-473.8289" rx="89.0807" ry="18"/>
<ellipse fill="none" stroke="#000000" cx="847" cy="-473.8289" rx="93.0825" ry="22"/>
<ellipse fill="none" stroke="#000000" cx="847" cy="-473.8289" rx="97.0842" ry="26"/>
<text text-anchor="middle" x="847" y="-470.1289" font-family="Times,serif" font-size="14.00" fill="#000000">equiv_contr_unit</text>
</a>
</g>
</g>
<!-- Unit_equiv_unit_coind -->
<g id="node4" class="node">
<title>Unit_equiv_unit_coind</title>
<g id="a_node4"><a xlink:href="Unit.html#equiv_unit_coind" xlink:title="equiv_unit_coind">
<ellipse fill="#f070d1" stroke="#000000" cx="634" cy="-473.8289" rx="89.8687" ry="18"/>
<ellipse fill="none" stroke="#000000" cx="634" cy="-473.8289" rx="93.8766" ry="22"/>
<ellipse fill="none" stroke="#000000" cx="634" cy="-473.8289" rx="97.8845" ry="26"/>
<text text-anchor="middle" x="634" y="-470.1289" font-family="Times,serif" font-size="14.00" fill="#000000">equiv_unit_coind</text>
</a>
</g>
</g>
<!-- Unit_isequiv_unit_coind -->
<g id="node5" class="node">
<title>Unit_isequiv_unit_coind</title>
<g id="a_node5"><a xlink:href="Unit.html#isequiv_unit_coind" xlink:title="isequiv_unit_coind">
<ellipse fill="#f070d1" stroke="#000000" cx="922" cy="-321.8289" rx="97.4827" ry="18"/>
<text text-anchor="middle" x="922" y="-318.1289" font-family="Times,serif" font-size="14.00" fill="#000000">isequiv_unit_coind</text>
</a>
</g>
</g>
<!-- Unit_equiv_unit_coind&#45;&gt;Unit_isequiv_unit_coind -->
<g id="edge2" class="edge">
<title>Unit_equiv_unit_coind&#45;&gt;Unit_isequiv_unit_coind</title>
<path fill="none" stroke="#000000" d="M678.0545,-450.5779C733.1681,-421.4902 826.8248,-372.0603 880.644,-343.6557"/>
<polygon fill="#000000" stroke="#000000" points="882.3592,-346.708 889.5694,-338.9451 879.0919,-340.5173 882.3592,-346.708"/>
</g>
<!-- Unit_unit_coind -->
<g id="node6" class="node">
<title>Unit_unit_coind</title>
<g id="a_node6"><a xlink:href="Unit.html#unit_coind" xlink:title="unit_coind">
<ellipse fill="#f070d1" stroke="#000000" cx="922" cy="-182.8289" rx="59.5901" ry="18"/>
<text text-anchor="middle" x="922" y="-179.1289" font-family="Times,serif" font-size="14.00" fill="#000000">unit_coind</text>
</a>
</g>
</g>
<!-- Unit_isequiv_unit_coind&#45;&gt;Unit_unit_coind -->
<g id="edge3" class="edge">
<title>Unit_isequiv_unit_coind&#45;&gt;Unit_unit_coind</title>
<path fill="none" stroke="#000000" d="M922,-303.6571C922,-280.1396 922,-238.9061 922,-211.2347"/>
<polygon fill="#000000" stroke="#000000" points="925.5001,-211.0052 922,-201.0052 918.5001,-211.0052 925.5001,-211.0052"/>
</g>
<!-- Unit_path_unit -->
<g id="node14" class="node">
<title>Unit_path_unit</title>
<g id="a_node14"><a xlink:href="Unit.html#path_unit" xlink:title="path_unit">
<ellipse fill="#f070d1" stroke="#000000" cx="598" cy="-182.8289" rx="55.4913" ry="18"/>
<text text-anchor="middle" x="598" y="-179.1289" font-family="Times,serif" font-size="14.00" fill="#000000">path_unit</text>
</a>
</g>
</g>
<!-- Unit_isequiv_unit_coind&#45;&gt;Unit_path_unit -->
<g id="edge4" class="edge">
<title>Unit_isequiv_unit_coind&#45;&gt;Unit_path_unit</title>
<path fill="none" stroke="#000000" d="M883.2399,-305.2003C822.2088,-279.0172 704.1476,-228.3676 640.7373,-201.1638"/>
<polygon fill="#000000" stroke="#000000" points="641.989,-197.8923 631.4191,-197.1661 639.2291,-204.3253 641.989,-197.8923"/>
</g>
<!-- Unit_isequiv_unit_name -->
<g id="node7" class="node">
<title>Unit_isequiv_unit_name</title>
<g id="a_node7"><a xlink:href="Unit.html#isequiv_unit_name" xlink:title="isequiv_unit_name">
<ellipse fill="#f070d1" stroke="#000000" cx="701" cy="-321.8289" rx="97.4834" ry="18"/>
<ellipse fill="none" stroke="#000000" cx="701" cy="-321.8289" rx="101.483" ry="22"/>
<ellipse fill="none" stroke="#000000" cx="701" cy="-321.8289" rx="105.4827" ry="26"/>
<text text-anchor="middle" x="701" y="-318.1289" font-family="Times,serif" font-size="14.00" fill="#000000">isequiv_unit_name</text>
</a>
</g>
</g>
<!-- Unit_isequiv_unit_name&#45;&gt;Unit_path_unit -->
<g id="edge5" class="edge">
<title>Unit_isequiv_unit_name&#45;&gt;Unit_path_unit</title>
<path fill="none" stroke="#000000" d="M681.8679,-296.0098C663.4452,-271.1481 635.7294,-233.7453 617.2629,-208.8245"/>
<polygon fill="#000000" stroke="#000000" points="619.913,-206.522 611.1472,-200.5712 614.2888,-210.6896 619.913,-206.522"/>
</g>
<!-- Unit_equiv_unit_rec -->
<g id="node8" class="node">
<title>Unit_equiv_unit_rec</title>
<g id="a_node8"><a xlink:href="Unit.html#equiv_unit_rec" xlink:title="equiv_unit_rec">
<ellipse fill="#f070d1" stroke="#000000" cx="307" cy="-473.8289" rx="79.1053" ry="18"/>
<ellipse fill="none" stroke="#000000" cx="307" cy="-473.8289" rx="83.0959" ry="22"/>
<ellipse fill="none" stroke="#000000" cx="307" cy="-473.8289" rx="87.0864" ry="26"/>
<text text-anchor="middle" x="307" y="-470.1289" font-family="Times,serif" font-size="14.00" fill="#000000">equiv_unit_rec</text>
</a>
</g>
</g>
<!-- Unit_isequiv_unit_rec -->
<g id="node9" class="node">
<title>Unit_isequiv_unit_rec</title>
<g id="a_node9"><a xlink:href="Unit.html#isequiv_unit_rec" xlink:title="isequiv_unit_rec">
<ellipse fill="#f070d1" stroke="#000000" cx="307" cy="-321.8289" rx="87.1846" ry="18"/>
<text text-anchor="middle" x="307" y="-318.1289" font-family="Times,serif" font-size="14.00" fill="#000000">isequiv_unit_rec</text>
</a>
</g>
</g>
<!-- Unit_equiv_unit_rec&#45;&gt;Unit_isequiv_unit_rec -->
<g id="edge6" class="edge">
<title>Unit_equiv_unit_rec&#45;&gt;Unit_isequiv_unit_rec</title>
<path fill="none" stroke="#000000" d="M307,-447.6992C307,-420.5731 307,-378.2714 307,-350.3068"/>
<polygon fill="#000000" stroke="#000000" points="310.5001,-349.9973 307,-339.9974 303.5001,-349.9974 310.5001,-349.9973"/>
</g>
<!-- Unit_isequiv_unit_ind -->
<g id="node10" class="node">
<title>Unit_isequiv_unit_ind</title>
<g id="a_node10"><a xlink:href="Unit.html#isequiv_unit_ind" xlink:title="isequiv_unit_ind">
<ellipse fill="#f070d1" stroke="#000000" cx="307" cy="-182.8289" rx="87.1846" ry="18"/>
<text text-anchor="middle" x="307" y="-179.1289" font-family="Times,serif" font-size="14.00" fill="#000000">isequiv_unit_ind</text>
</a>
</g>
</g>
<!-- Unit_isequiv_unit_rec&#45;&gt;Unit_isequiv_unit_ind -->
<g id="edge7" class="edge">
<title>Unit_isequiv_unit_rec&#45;&gt;Unit_isequiv_unit_ind</title>
<path fill="none" stroke="#000000" d="M307,-303.6571C307,-280.1396 307,-238.9061 307,-211.2347"/>
<polygon fill="#000000" stroke="#000000" points="310.5001,-211.0052 307,-201.0052 303.5001,-211.0052 310.5001,-211.0052"/>
</g>
<!-- Unit_equiv_path_unit -->
<g id="node11" class="node">
<title>Unit_equiv_path_unit</title>
<g id="a_node11"><a xlink:href="Unit.html#equiv_path_unit" xlink:title="equiv_path_unit">
<ellipse fill="#f070d1" stroke="#000000" cx="109" cy="-321.8289" rx="85.2729" ry="18"/>
<ellipse fill="none" stroke="#000000" cx="109" cy="-321.8289" rx="89.279" ry="22"/>
<ellipse fill="none" stroke="#000000" cx="109" cy="-321.8289" rx="93.2851" ry="26"/>
<text text-anchor="middle" x="109" y="-318.1289" font-family="Times,serif" font-size="14.00" fill="#000000">equiv_path_unit</text>
</a>
</g>
</g>
<!-- Unit_isequiv_path_unit -->
<g id="node12" class="node">
<title>Unit_isequiv_path_unit</title>
<g id="a_node12"><a xlink:href="Unit.html#isequiv_path_unit" xlink:title="isequiv_path_unit">
<ellipse fill="#f070d1" stroke="#000000" cx="109" cy="-182.8289" rx="92.8835" ry="18"/>
<text text-anchor="middle" x="109" y="-179.1289" font-family="Times,serif" font-size="14.00" fill="#000000">isequiv_path_unit</text>
</a>
</g>
</g>
<!-- Unit_equiv_path_unit&#45;&gt;Unit_isequiv_path_unit -->
<g id="edge8" class="edge">
<title>Unit_equiv_path_unit&#45;&gt;Unit_isequiv_path_unit</title>
<path fill="none" stroke="#000000" d="M109,-295.6841C109,-271.5703 109,-235.863 109,-211.0968"/>
<polygon fill="#000000" stroke="#000000" points="112.5001,-210.8938 109,-200.8938 105.5001,-210.8938 112.5001,-210.8938"/>
</g>
<!-- Unit_path_unit_uncurried -->
<g id="node15" class="node">
<title>Unit_path_unit_uncurried</title>
<g id="a_node15"><a xlink:href="Unit.html#path_unit_uncurried" xlink:title="path_unit_uncurried">
<ellipse fill="#f070d1" stroke="#000000" cx="308" cy="-58.8289" rx="105.8812" ry="18"/>
<text text-anchor="middle" x="308" y="-55.1289" font-family="Times,serif" font-size="14.00" fill="#000000">path_unit_uncurried</text>
</a>
</g>
</g>
<!-- Unit_isequiv_path_unit&#45;&gt;Unit_path_unit_uncurried -->
<g id="edge9" class="edge">
<title>Unit_isequiv_path_unit&#45;&gt;Unit_path_unit_uncurried</title>
<path fill="none" stroke="#000000" d="M136.6701,-165.5872C171.6701,-143.7782 232.0604,-106.148 270.9967,-81.8862"/>
<polygon fill="#000000" stroke="#000000" points="273.2872,-84.5829 279.9234,-76.3239 269.5852,-78.6419 273.2872,-84.5829"/>
</g>
<!-- Unit_eta_path_unit -->
<g id="node13" class="node">
<title>Unit_eta_path_unit</title>
<g id="a_node13"><a xlink:href="Unit.html#eta_path_unit" xlink:title="eta_path_unit">
<ellipse fill="#f070d1" stroke="#000000" cx="495" cy="-321.8289" rx="74.9639" ry="18"/>
<ellipse fill="none" stroke="#000000" cx="495" cy="-321.8289" rx="78.9757" ry="22"/>
<ellipse fill="none" stroke="#000000" cx="495" cy="-321.8289" rx="82.9875" ry="26"/>
<text text-anchor="middle" x="495" y="-318.1289" font-family="Times,serif" font-size="14.00" fill="#000000">eta_path_unit</text>
</a>
</g>
</g>
<!-- Unit_eta_path_unit&#45;&gt;Unit_path_unit -->
<g id="edge10" class="edge">
<title>Unit_eta_path_unit&#45;&gt;Unit_path_unit</title>
<path fill="none" stroke="#000000" d="M513.8918,-296.3342C532.2826,-271.5155 560.0979,-233.9784 578.6449,-208.9489"/>
<polygon fill="#000000" stroke="#000000" points="581.6465,-210.7769 584.7881,-200.6586 576.0223,-206.6094 581.6465,-210.7769"/>
</g>
<!-- Unit_path_unit&#45;&gt;Unit_path_unit_uncurried -->
<g id="edge11" class="edge">
<title>Unit_path_unit&#45;&gt;Unit_path_unit_uncurried</title>
<path fill="none" stroke="#000000" d="M564.45,-168.4834C513.3236,-146.6224 415.6474,-104.8574 356.7077,-79.6557"/>
<polygon fill="#000000" stroke="#000000" points="357.8099,-76.3204 347.2391,-75.607 355.0578,-82.7568 357.8099,-76.3204"/>
</g>
<!-- Unit_eta_unit -->
<g id="node16" class="node">
<title>Unit_eta_unit</title>
<g id="a_node16"><a xlink:href="Unit.html#eta_unit" xlink:title="eta_unit">
<ellipse fill="#f070d1" stroke="#000000" cx="109" cy="-473.8289" rx="48.9576" ry="18"/>
<ellipse fill="none" stroke="#000000" cx="109" cy="-473.8289" rx="52.975" ry="22"/>
<ellipse fill="none" stroke="#000000" cx="109" cy="-473.8289" rx="56.9924" ry="26"/>
<text text-anchor="middle" x="109" y="-470.1289" font-family="Times,serif" font-size="14.00" fill="#000000">eta_unit</text>
</a>
</g>
</g>
</g>
</svg>
