<?xml version="1.0" encoding="UTF-8" standalone="no"?>
<!DOCTYPE svg PUBLIC "-//W3C//DTD SVG 1.1//EN"
 "http://www.w3.org/Graphics/SVG/1.1/DTD/svg11.dtd">
<!-- Generated by graphviz version 2.40.1 (20161225.0304)
 -->
<!-- Title: HoTT_Classes_theory_naturals Pages: 1 -->
<svg width="1620pt" height="814pt"
 viewBox="0.00 0.00 1620.00 814.00" xmlns="http://www.w3.org/2000/svg" xmlns:xlink="http://www.w3.org/1999/xlink">
<g id="graph0" class="graph" transform="scale(1 1) rotate(0) translate(4 810)">
<title>HoTT_Classes_theory_naturals</title>
<polygon fill="#ffffff" stroke="transparent" points="-4,4 -4,-810 1616,-810 1616,4 -4,4"/>
<g id="clust1" class="cluster">
<title>cluster_naturals</title>
<polygon fill="#ffffc3" stroke="#000000" points="8,-9.5526 8,-796.4474 1604,-796.4474 1604,-9.5526 8,-9.5526"/>
<text text-anchor="middle" x="46" y="-781.2474" font-family="Times,serif" font-size="14.00" fill="#000000">naturals</text>
</g>
<!-- naturals_negate_to_ring -->
<g id="node1" class="node">
<title>naturals_negate_to_ring</title>
<g id="a_node1"><a xlink:href="naturals.html#negate_to_ring" xlink:title="negate_to_ring">
<ellipse fill="#f070d1" stroke="#000000" cx="1503" cy="-728.5526" rx="80.6774" ry="18"/>
<ellipse fill="none" stroke="#000000" cx="1503" cy="-728.5526" rx="84.6816" ry="22"/>
<ellipse fill="none" stroke="#000000" cx="1503" cy="-728.5526" rx="88.6858" ry="26"/>
<text text-anchor="middle" x="1503" y="-724.8526" font-family="Times,serif" font-size="14.00" fill="#000000">negate_to_ring</text>
</a>
</g>
</g>
<!-- naturals_to_ring_zero_sum -->
<g id="node2" class="node">
<title>naturals_to_ring_zero_sum</title>
<g id="a_node2"><a xlink:href="naturals.html#to_ring_zero_sum" xlink:title="to_ring_zero_sum">
<ellipse fill="#f070d1" stroke="#000000" cx="1503" cy="-623.5526" rx="92.8835" ry="18"/>
<text text-anchor="middle" x="1503" y="-619.8526" font-family="Times,serif" font-size="14.00" fill="#000000">to_ring_zero_sum</text>
</a>
</g>
</g>
<!-- naturals_negate_to_ring&#45;&gt;naturals_to_ring_zero_sum -->
<g id="edge1" class="edge">
<title>naturals_negate_to_ring&#45;&gt;naturals_to_ring_zero_sum</title>
<path fill="none" stroke="#000000" d="M1503,-702.3275C1503,-687.0279 1503,-667.7172 1503,-652.0445"/>
<polygon fill="#000000" stroke="#000000" points="1506.5001,-651.8694 1503,-641.8694 1499.5001,-651.8694 1506.5001,-651.8694"/>
</g>
<!-- naturals_zero_sum -->
<g id="node7" class="node">
<title>naturals_zero_sum</title>
<g id="a_node7"><a xlink:href="naturals.html#zero_sum" xlink:title="zero_sum">
<ellipse fill="#f070d1" stroke="#000000" cx="1507" cy="-518.5526" rx="55.4913" ry="18"/>
<text text-anchor="middle" x="1507" y="-514.8526" font-family="Times,serif" font-size="14.00" fill="#000000">zero_sum</text>
</a>
</g>
</g>
<!-- naturals_to_ring_zero_sum&#45;&gt;naturals_zero_sum -->
<g id="edge2" class="edge">
<title>naturals_to_ring_zero_sum&#45;&gt;naturals_zero_sum</title>
<path fill="none" stroke="#000000" d="M1503.6967,-605.263C1504.3105,-589.1528 1505.2142,-565.4301 1505.9213,-546.8685"/>
<polygon fill="#000000" stroke="#000000" points="1509.4279,-546.7586 1506.3112,-536.6326 1502.433,-546.4921 1509.4279,-546.7586"/>
</g>
<!-- naturals_slow_naturals_dec -->
<g id="node3" class="node">
<title>naturals_slow_naturals_dec</title>
<g id="a_node3"><a xlink:href="naturals.html#slow_naturals_dec" xlink:title="slow_naturals_dec">
<ellipse fill="#f070d1" stroke="#000000" cx="1090" cy="-413.5526" rx="96.6951" ry="18"/>
<ellipse fill="none" stroke="#000000" cx="1090" cy="-413.5526" rx="100.6891" ry="22"/>
<ellipse fill="none" stroke="#000000" cx="1090" cy="-413.5526" rx="104.6831" ry="26"/>
<text text-anchor="middle" x="1090" y="-409.8526" font-family="Times,serif" font-size="14.00" fill="#000000">slow_naturals_dec</text>
</a>
</g>
</g>
<!-- naturals_nat_to_nat_equiv -->
<g id="node18" class="node">
<title>naturals_nat_to_nat_equiv</title>
<g id="a_node18"><a xlink:href="naturals.html#nat_to_nat_equiv" xlink:title="nat_to_nat_equiv">
<ellipse fill="#f070d1" stroke="#000000" cx="888" cy="-317.5526" rx="90.1842" ry="18"/>
<text text-anchor="middle" x="888" y="-313.8526" font-family="Times,serif" font-size="14.00" fill="#000000">nat_to_nat_equiv</text>
</a>
</g>
</g>
<!-- naturals_slow_naturals_dec&#45;&gt;naturals_nat_to_nat_equiv -->
<g id="edge3" class="edge">
<title>naturals_slow_naturals_dec&#45;&gt;naturals_nat_to_nat_equiv</title>
<path fill="none" stroke="#000000" d="M1041.3589,-390.436C1008.1018,-374.6307 964.3757,-353.85 932.1266,-338.5237"/>
<polygon fill="#000000" stroke="#000000" points="933.4673,-335.2857 922.9331,-334.1544 930.4626,-341.6081 933.4673,-335.2857"/>
</g>
<!-- naturals_nat_1_plus_ne_0 -->
<g id="node4" class="node">
<title>naturals_nat_1_plus_ne_0</title>
<g id="a_node4"><a xlink:href="naturals.html#nat_1_plus_ne_0" xlink:title="nat_1_plus_ne_0">
<ellipse fill="#f070d1" stroke="#000000" cx="1296" cy="-623.5526" rx="87.9648" ry="18"/>
<ellipse fill="none" stroke="#000000" cx="1296" cy="-623.5526" rx="91.9749" ry="22"/>
<ellipse fill="none" stroke="#000000" cx="1296" cy="-623.5526" rx="95.985" ry="26"/>
<text text-anchor="middle" x="1296" y="-619.8526" font-family="Times,serif" font-size="14.00" fill="#000000">nat_1_plus_ne_0</text>
</a>
</g>
</g>
<!-- naturals_nat_1_plus_ne_0&#45;&gt;naturals_zero_sum -->
<g id="edge4" class="edge">
<title>naturals_nat_1_plus_ne_0&#45;&gt;naturals_zero_sum</title>
<path fill="none" stroke="#000000" d="M1342.0441,-600.6396C1379.5562,-581.9725 1431.9583,-555.8956 1467.5625,-538.1779"/>
<polygon fill="#000000" stroke="#000000" points="1469.289,-541.2282 1476.6825,-533.6395 1466.1704,-534.9613 1469.289,-541.2282"/>
</g>
<!-- naturals_nat_nontrivial -->
<g id="node9" class="node">
<title>naturals_nat_nontrivial</title>
<g id="a_node9"><a xlink:href="naturals.html#nat_nontrivial" xlink:title="nat_nontrivial">
<ellipse fill="#f070d1" stroke="#000000" cx="939" cy="-518.5526" rx="75.2868" ry="18"/>
<text text-anchor="middle" x="939" y="-514.8526" font-family="Times,serif" font-size="14.00" fill="#000000">nat_nontrivial</text>
</a>
</g>
</g>
<!-- naturals_nat_1_plus_ne_0&#45;&gt;naturals_nat_nontrivial -->
<g id="edge5" class="edge">
<title>naturals_nat_1_plus_ne_0&#45;&gt;naturals_nat_nontrivial</title>
<path fill="none" stroke="#000000" d="M1229.7012,-604.738C1174.3549,-588.9427 1093.4279,-565.6403 1023,-544.5526 1013.774,-541.7901 1003.9941,-538.8103 994.4934,-535.8879"/>
<polygon fill="#000000" stroke="#000000" points="995.3162,-532.479 984.7287,-532.8748 993.2522,-539.1678 995.3162,-532.479"/>
</g>
<!-- naturals_ZeroProduct_instance_0 -->
<g id="node5" class="node">
<title>naturals_ZeroProduct_instance_0</title>
<g id="a_node5"><a xlink:href="naturals.html#ZeroProduct_instance_0" xlink:title="ZeroProduct_instance_0">
<ellipse fill="#f070d1" stroke="#000000" cx="1302" cy="-518.5526" rx="124.2697" ry="18"/>
<ellipse fill="none" stroke="#000000" cx="1302" cy="-518.5526" rx="128.2739" ry="22"/>
<ellipse fill="none" stroke="#000000" cx="1302" cy="-518.5526" rx="132.2781" ry="26"/>
<text text-anchor="middle" x="1302" y="-514.8526" font-family="Times,serif" font-size="14.00" fill="#000000">ZeroProduct_instance_0</text>
</a>
</g>
</g>
<!-- naturals_from_nat_stmt -->
<g id="node17" class="node">
<title>naturals_from_nat_stmt</title>
<g id="a_node17"><a xlink:href="naturals.html#from_nat_stmt" xlink:title="from_nat_stmt">
<ellipse fill="#f070d1" stroke="#000000" cx="888" cy="-413.5526" rx="79.0865" ry="18"/>
<text text-anchor="middle" x="888" y="-409.8526" font-family="Times,serif" font-size="14.00" fill="#000000">from_nat_stmt</text>
</a>
</g>
</g>
<!-- naturals_ZeroProduct_instance_0&#45;&gt;naturals_from_nat_stmt -->
<g id="edge6" class="edge">
<title>naturals_ZeroProduct_instance_0&#45;&gt;naturals_from_nat_stmt</title>
<path fill="none" stroke="#000000" d="M1215.5635,-498.8367C1149.6881,-483.5133 1056.8453,-461.277 976,-439.5526 965.9734,-436.8583 955.3486,-433.8507 945.0801,-430.8641"/>
<polygon fill="#000000" stroke="#000000" points="945.9561,-427.4736 935.3753,-428.0179 943.9861,-434.1907 945.9561,-427.4736"/>
</g>
<!-- naturals_one_sum -->
<g id="node6" class="node">
<title>naturals_one_sum</title>
<g id="a_node6"><a xlink:href="naturals.html#one_sum" xlink:title="one_sum">
<ellipse fill="#f070d1" stroke="#000000" cx="1092" cy="-518.5526" rx="51.9914" ry="18"/>
<ellipse fill="none" stroke="#000000" cx="1092" cy="-518.5526" rx="55.9911" ry="22"/>
<ellipse fill="none" stroke="#000000" cx="1092" cy="-518.5526" rx="59.9908" ry="26"/>
<text text-anchor="middle" x="1092" y="-514.8526" font-family="Times,serif" font-size="14.00" fill="#000000">one_sum</text>
</a>
</g>
</g>
<!-- naturals_one_sum&#45;&gt;naturals_from_nat_stmt -->
<g id="edge7" class="edge">
<title>naturals_one_sum&#45;&gt;naturals_from_nat_stmt</title>
<path fill="none" stroke="#000000" d="M1053.149,-498.5557C1017.7049,-480.3125 965.4887,-453.4365 929.2978,-434.8088"/>
<polygon fill="#000000" stroke="#000000" points="930.4961,-431.4892 920.0029,-430.0247 927.2925,-437.7131 930.4961,-431.4892"/>
</g>
<!-- naturals_zero_sum&#45;&gt;naturals_from_nat_stmt -->
<g id="edge8" class="edge">
<title>naturals_zero_sum&#45;&gt;naturals_from_nat_stmt</title>
<path fill="none" stroke="#000000" d="M1475.3475,-503.7022C1465.21,-499.4902 1453.8083,-495.306 1443,-492.5526 1240.5772,-440.9853 1180.7181,-481.0817 976,-439.5526 965.1224,-437.346 953.6475,-434.4146 942.7062,-431.3165"/>
<polygon fill="#000000" stroke="#000000" points="943.4204,-427.8791 932.8405,-428.4404 941.4613,-434.5994 943.4204,-427.8791"/>
</g>
<!-- naturals_nat_nontrivial_apart -->
<g id="node8" class="node">
<title>naturals_nat_nontrivial_apart</title>
<g id="a_node8"><a xlink:href="naturals.html#nat_nontrivial_apart" xlink:title="nat_nontrivial_apart">
<ellipse fill="#f070d1" stroke="#000000" cx="1069" cy="-623.5526" rx="105.0965" ry="18"/>
<ellipse fill="none" stroke="#000000" cx="1069" cy="-623.5526" rx="109.0891" ry="22"/>
<ellipse fill="none" stroke="#000000" cx="1069" cy="-623.5526" rx="113.0817" ry="26"/>
<text text-anchor="middle" x="1069" y="-619.8526" font-family="Times,serif" font-size="14.00" fill="#000000">nat_nontrivial_apart</text>
</a>
</g>
</g>
<!-- naturals_nat_nontrivial_apart&#45;&gt;naturals_nat_nontrivial -->
<g id="edge9" class="edge">
<title>naturals_nat_nontrivial_apart&#45;&gt;naturals_nat_nontrivial</title>
<path fill="none" stroke="#000000" d="M1037.8618,-598.4025C1016.7741,-581.3702 989.0895,-559.0095 968.3821,-542.2843"/>
<polygon fill="#000000" stroke="#000000" points="970.515,-539.5079 960.5364,-535.9473 966.1166,-544.9536 970.515,-539.5079"/>
</g>
<!-- naturals_nat_nontrivial&#45;&gt;naturals_from_nat_stmt -->
<g id="edge10" class="edge">
<title>naturals_nat_nontrivial&#45;&gt;naturals_from_nat_stmt</title>
<path fill="none" stroke="#000000" d="M930.1165,-500.263C922.1452,-483.8516 910.3371,-459.5406 901.2505,-440.8331"/>
<polygon fill="#000000" stroke="#000000" points="904.2991,-439.0985 896.7817,-431.6326 898.0025,-442.1569 904.2991,-439.0985"/>
</g>
<!-- naturals_RightCancellation_instance_1 -->
<g id="node10" class="node">
<title>naturals_RightCancellation_instance_1</title>
<g id="a_node10"><a xlink:href="naturals.html#RightCancellation_instance_1" xlink:title="RightCancellation_instance_1">
<ellipse fill="#f070d1" stroke="#000000" cx="780" cy="-623.5526" rx="149.4741" ry="18"/>
<ellipse fill="none" stroke="#000000" cx="780" cy="-623.5526" rx="153.4738" ry="22"/>
<ellipse fill="none" stroke="#000000" cx="780" cy="-623.5526" rx="157.4735" ry="26"/>
<text text-anchor="middle" x="780" y="-619.8526" font-family="Times,serif" font-size="14.00" fill="#000000">RightCancellation_instance_1</text>
</a>
</g>
</g>
<!-- naturals_LeftCancellation_instance_0 -->
<g id="node11" class="node">
<title>naturals_LeftCancellation_instance_0</title>
<g id="a_node11"><a xlink:href="naturals.html#LeftCancellation_instance_0" xlink:title="LeftCancellation_instance_0">
<ellipse fill="#f070d1" stroke="#000000" cx="702" cy="-518.5526" rx="143.7746" ry="18"/>
<text text-anchor="middle" x="702" y="-514.8526" font-family="Times,serif" font-size="14.00" fill="#000000">LeftCancellation_instance_0</text>
</a>
</g>
</g>
<!-- naturals_RightCancellation_instance_1&#45;&gt;naturals_LeftCancellation_instance_0 -->
<g id="edge11" class="edge">
<title>naturals_RightCancellation_instance_1&#45;&gt;naturals_LeftCancellation_instance_0</title>
<path fill="none" stroke="#000000" d="M760.7191,-597.5975C748.843,-581.6105 733.6563,-561.1669 721.703,-545.0758"/>
<polygon fill="#000000" stroke="#000000" points="724.2093,-542.5804 715.4364,-536.6401 718.5901,-546.7547 724.2093,-542.5804"/>
</g>
<!-- naturals_LeftCancellation_instance_0&#45;&gt;naturals_from_nat_stmt -->
<g id="edge12" class="edge">
<title>naturals_LeftCancellation_instance_0&#45;&gt;naturals_from_nat_stmt</title>
<path fill="none" stroke="#000000" d="M733.1322,-500.978C765.1249,-482.9176 814.9945,-454.7654 849.4587,-435.3098"/>
<polygon fill="#000000" stroke="#000000" points="851.3175,-438.2797 858.3052,-430.3158 847.8763,-432.1839 851.3175,-438.2797"/>
</g>
<!-- naturals_RightCancellation_instance_0 -->
<g id="node12" class="node">
<title>naturals_RightCancellation_instance_0</title>
<g id="a_node12"><a xlink:href="naturals.html#RightCancellation_instance_0" xlink:title="RightCancellation_instance_0">
<ellipse fill="#f070d1" stroke="#000000" cx="447" cy="-623.5526" rx="149.4741" ry="18"/>
<ellipse fill="none" stroke="#000000" cx="447" cy="-623.5526" rx="153.4738" ry="22"/>
<ellipse fill="none" stroke="#000000" cx="447" cy="-623.5526" rx="157.4735" ry="26"/>
<text text-anchor="middle" x="447" y="-619.8526" font-family="Times,serif" font-size="14.00" fill="#000000">RightCancellation_instance_0</text>
</a>
</g>
</g>
<!-- naturals_nat_plus_cancel_l -->
<g id="node13" class="node">
<title>naturals_nat_plus_cancel_l</title>
<g id="a_node13"><a xlink:href="naturals.html#nat_plus_cancel_l" xlink:title="nat_plus_cancel_l">
<ellipse fill="#f070d1" stroke="#000000" cx="447" cy="-518.5526" rx="92.8835" ry="18"/>
<text text-anchor="middle" x="447" y="-514.8526" font-family="Times,serif" font-size="14.00" fill="#000000">nat_plus_cancel_l</text>
</a>
</g>
</g>
<!-- naturals_RightCancellation_instance_0&#45;&gt;naturals_nat_plus_cancel_l -->
<g id="edge13" class="edge">
<title>naturals_RightCancellation_instance_0&#45;&gt;naturals_nat_plus_cancel_l</title>
<path fill="none" stroke="#000000" d="M447,-597.3275C447,-582.0279 447,-562.7172 447,-547.0445"/>
<polygon fill="#000000" stroke="#000000" points="450.5001,-546.8694 447,-536.8694 443.5001,-546.8694 450.5001,-546.8694"/>
</g>
<!-- naturals_nat_plus_cancel_l&#45;&gt;naturals_from_nat_stmt -->
<g id="edge14" class="edge">
<title>naturals_nat_plus_cancel_l&#45;&gt;naturals_from_nat_stmt</title>
<path fill="none" stroke="#000000" d="M502.2186,-504.0409C517.3542,-500.1823 533.784,-496.1032 549,-492.5526 659.609,-466.7421 688.8545,-467.2748 799,-439.5526 809.2919,-436.9623 820.1856,-433.9817 830.6887,-430.9836"/>
<polygon fill="#000000" stroke="#000000" points="831.9721,-434.256 840.6065,-428.1161 830.0278,-427.5314 831.9721,-434.256"/>
</g>
<!-- naturals_Biinduction_instance_0 -->
<g id="node14" class="node">
<title>naturals_Biinduction_instance_0</title>
<g id="a_node14"><a xlink:href="naturals.html#Biinduction_instance_0" xlink:title="Biinduction_instance_0">
<ellipse fill="#f070d1" stroke="#000000" cx="144" cy="-623.5526" rx="119.6732" ry="18"/>
<ellipse fill="none" stroke="#000000" cx="144" cy="-623.5526" rx="123.676" ry="22"/>
<ellipse fill="none" stroke="#000000" cx="144" cy="-623.5526" rx="127.6788" ry="26"/>
<text text-anchor="middle" x="144" y="-619.8526" font-family="Times,serif" font-size="14.00" fill="#000000">Biinduction_instance_0</text>
</a>
</g>
</g>
<!-- naturals_induction -->
<g id="node16" class="node">
<title>naturals_induction</title>
<g id="a_node16"><a xlink:href="naturals.html#induction" xlink:title="induction">
<ellipse fill="#f070d1" stroke="#000000" cx="281" cy="-518.5526" rx="54.6905" ry="18"/>
<text text-anchor="middle" x="281" y="-514.8526" font-family="Times,serif" font-size="14.00" fill="#000000">induction</text>
</a>
</g>
</g>
<!-- naturals_Biinduction_instance_0&#45;&gt;naturals_induction -->
<g id="edge15" class="edge">
<title>naturals_Biinduction_instance_0&#45;&gt;naturals_induction</title>
<path fill="none" stroke="#000000" d="M176.8149,-598.4025C199.4171,-581.0796 229.2108,-558.245 251.1461,-541.4333"/>
<polygon fill="#000000" stroke="#000000" points="253.329,-544.1701 259.1369,-535.309 249.0708,-538.6142 253.329,-544.1701"/>
</g>
<!-- naturals_case -->
<g id="node15" class="node">
<title>naturals_case</title>
<g id="a_node15"><a xlink:href="naturals.html#case" xlink:title="case">
<ellipse fill="#f070d1" stroke="#000000" cx="169" cy="-518.5526" rx="31.7255" ry="18"/>
<ellipse fill="none" stroke="#000000" cx="169" cy="-518.5526" rx="35.7102" ry="22"/>
<ellipse fill="none" stroke="#000000" cx="169" cy="-518.5526" rx="39.6949" ry="26"/>
<text text-anchor="middle" x="169" y="-514.8526" font-family="Times,serif" font-size="14.00" fill="#000000">case</text>
</a>
</g>
</g>
<!-- naturals_case&#45;&gt;naturals_from_nat_stmt -->
<g id="edge16" class="edge">
<title>naturals_case&#45;&gt;naturals_from_nat_stmt</title>
<path fill="none" stroke="#000000" d="M197.8806,-500.4941C203.9987,-497.3672 210.5591,-494.5001 217,-492.5526 465.621,-417.38 543.8163,-487.9736 799,-439.5526 810.2534,-437.4173 822.1269,-434.4603 833.4065,-431.3033"/>
<polygon fill="#000000" stroke="#000000" points="834.4993,-434.6308 843.1353,-428.4932 832.5568,-427.9057 834.4993,-434.6308"/>
</g>
<!-- naturals_induction&#45;&gt;naturals_from_nat_stmt -->
<g id="edge17" class="edge">
<title>naturals_induction&#45;&gt;naturals_from_nat_stmt</title>
<path fill="none" stroke="#000000" d="M312.6579,-503.7233C322.7957,-499.5123 334.1961,-495.3233 345,-492.5526 541.7799,-442.0866 599.9102,-479.9556 799,-439.5526 810.1033,-437.2993 821.8287,-434.3197 832.9947,-431.1835"/>
<polygon fill="#000000" stroke="#000000" points="833.9964,-434.5374 842.6336,-428.4015 832.0552,-427.8119 833.9964,-434.5374"/>
</g>
<!-- naturals_from_nat_stmt&#45;&gt;naturals_nat_to_nat_equiv -->
<g id="edge18" class="edge">
<title>naturals_from_nat_stmt&#45;&gt;naturals_nat_to_nat_equiv</title>
<path fill="none" stroke="#000000" d="M888,-395.4957C888,-381.6388 888,-362.2387 888,-346.2601"/>
<polygon fill="#000000" stroke="#000000" points="891.5001,-345.8549 888,-335.8549 884.5001,-345.8549 891.5001,-345.8549"/>
</g>
<!-- naturals_to_semiring_involutive -->
<g id="node28" class="node">
<title>naturals_to_semiring_involutive</title>
<g id="a_node28"><a xlink:href="naturals.html#to_semiring_involutive" xlink:title="to_semiring_involutive">
<ellipse fill="#f070d1" stroke="#000000" cx="876" cy="-222.5526" rx="116.1796" ry="18"/>
<text text-anchor="middle" x="876" y="-218.8526" font-family="Times,serif" font-size="14.00" fill="#000000">to_semiring_involutive</text>
</a>
</g>
</g>
<!-- naturals_nat_to_nat_equiv&#45;&gt;naturals_to_semiring_involutive -->
<g id="edge19" class="edge">
<title>naturals_nat_to_nat_equiv&#45;&gt;naturals_to_semiring_involutive</title>
<path fill="none" stroke="#000000" d="M885.6863,-299.2356C883.9598,-285.5675 881.5684,-266.6358 879.5938,-251.0034"/>
<polygon fill="#000000" stroke="#000000" points="883.0323,-250.2958 878.3066,-240.8133 876.0875,-251.1731 883.0323,-250.2958"/>
</g>
<!-- naturals_retract_is_nat -->
<g id="node19" class="node">
<title>naturals_retract_is_nat</title>
<g id="a_node19"><a xlink:href="naturals.html#retract_is_nat" xlink:title="retract_is_nat">
<ellipse fill="#f070d1" stroke="#000000" cx="1095" cy="-222.5526" rx="76.0824" ry="18"/>
<ellipse fill="none" stroke="#000000" cx="1095" cy="-222.5526" rx="80.0845" ry="22"/>
<ellipse fill="none" stroke="#000000" cx="1095" cy="-222.5526" rx="84.0865" ry="26"/>
<text text-anchor="middle" x="1095" y="-218.8526" font-family="Times,serif" font-size="14.00" fill="#000000">retract_is_nat</text>
</a>
</g>
</g>
<!-- naturals_same_morphism -->
<g id="node20" class="node">
<title>naturals_same_morphism</title>
<g id="a_node20"><a xlink:href="naturals.html#same_morphism" xlink:title="same_morphism">
<ellipse fill="#f070d1" stroke="#000000" cx="1095" cy="-126.5526" rx="87.1846" ry="18"/>
<text text-anchor="middle" x="1095" y="-122.8526" font-family="Times,serif" font-size="14.00" fill="#000000">same_morphism</text>
</a>
</g>
</g>
<!-- naturals_retract_is_nat&#45;&gt;naturals_same_morphism -->
<g id="edge20" class="edge">
<title>naturals_retract_is_nat&#45;&gt;naturals_same_morphism</title>
<path fill="none" stroke="#000000" d="M1095,-196.3202C1095,-183.4823 1095,-168.0087 1095,-154.8993"/>
<polygon fill="#000000" stroke="#000000" points="1098.5001,-154.5531 1095,-144.5531 1091.5001,-154.5532 1098.5001,-154.5531"/>
</g>
<!-- naturals_retract_is_nat_to_sr -->
<g id="node22" class="node">
<title>naturals_retract_is_nat_to_sr</title>
<g id="a_node22"><a xlink:href="naturals.html#retract_is_nat_to_sr" xlink:title="retract_is_nat_to_sr">
<ellipse fill="#f070d1" stroke="#000000" cx="885" cy="-126.5526" rx="104.7816" ry="18"/>
<text text-anchor="middle" x="885" y="-122.8526" font-family="Times,serif" font-size="14.00" fill="#000000">retract_is_nat_to_sr</text>
</a>
</g>
</g>
<!-- naturals_retract_is_nat&#45;&gt;naturals_retract_is_nat_to_sr -->
<g id="edge21" class="edge">
<title>naturals_retract_is_nat&#45;&gt;naturals_retract_is_nat_to_sr</title>
<path fill="none" stroke="#000000" d="M1047.8719,-201.0083C1013.0532,-185.0912 965.8875,-163.5297 931.2732,-147.706"/>
<polygon fill="#000000" stroke="#000000" points="932.4136,-144.3791 921.8637,-143.4046 929.5033,-150.7454 932.4136,-144.3791"/>
</g>
<!-- naturals_to_semiring_unique -->
<g id="node30" class="node">
<title>naturals_to_semiring_unique</title>
<g id="a_node30"><a xlink:href="naturals.html#to_semiring_unique" xlink:title="to_semiring_unique">
<ellipse fill="#f070d1" stroke="#000000" cx="869" cy="-40.5526" rx="102.8821" ry="18"/>
<text text-anchor="middle" x="869" y="-36.8526" font-family="Times,serif" font-size="14.00" fill="#000000">to_semiring_unique</text>
</a>
</g>
</g>
<!-- naturals_same_morphism&#45;&gt;naturals_to_semiring_unique -->
<g id="edge22" class="edge">
<title>naturals_same_morphism&#45;&gt;naturals_to_semiring_unique</title>
<path fill="none" stroke="#000000" d="M1053.2847,-110.6786C1016.0909,-96.5252 961.4819,-75.7448 921.3623,-60.4781"/>
<polygon fill="#000000" stroke="#000000" points="922.6001,-57.2043 912.0091,-56.9189 920.1105,-63.7466 922.6001,-57.2043"/>
</g>
<!-- naturals_IsSemiRingPreserving_instance_0 -->
<g id="node21" class="node">
<title>naturals_IsSemiRingPreserving_instance_0</title>
<g id="a_node21"><a xlink:href="naturals.html#IsSemiRingPreserving_instance_0" xlink:title="IsSemiRingPreserving_instance_0">
<ellipse fill="#f070d1" stroke="#000000" cx="706" cy="-728.5526" rx="170.0797" ry="18"/>
<ellipse fill="none" stroke="#000000" cx="706" cy="-728.5526" rx="174.0749" ry="22"/>
<ellipse fill="none" stroke="#000000" cx="706" cy="-728.5526" rx="178.07" ry="26"/>
<text text-anchor="middle" x="706" y="-724.8526" font-family="Times,serif" font-size="14.00" fill="#000000">IsSemiRingPreserving_instance_0</text>
</a>
</g>
</g>
<!-- naturals_naturals_to_naturals_injective -->
<g id="node23" class="node">
<title>naturals_naturals_to_naturals_injective</title>
<g id="a_node23"><a xlink:href="naturals.html#naturals_to_naturals_injective" xlink:title="naturals_to_naturals_injective">
<ellipse fill="#f070d1" stroke="#000000" cx="631" cy="-413.5526" rx="151.3763" ry="18"/>
<ellipse fill="none" stroke="#000000" cx="631" cy="-413.5526" rx="155.3747" ry="22"/>
<ellipse fill="none" stroke="#000000" cx="631" cy="-413.5526" rx="159.3732" ry="26"/>
<text text-anchor="middle" x="631" y="-409.8526" font-family="Times,serif" font-size="14.00" fill="#000000">naturals_to_naturals_injective</text>
</a>
</g>
</g>
<!-- naturals_to_semiring_injective -->
<g id="node24" class="node">
<title>naturals_to_semiring_injective</title>
<g id="a_node24"><a xlink:href="naturals.html#to_semiring_injective" xlink:title="to_semiring_injective">
<ellipse fill="#f070d1" stroke="#000000" cx="637" cy="-317.5526" rx="110.4804" ry="18"/>
<text text-anchor="middle" x="637" y="-313.8526" font-family="Times,serif" font-size="14.00" fill="#000000">to_semiring_injective</text>
</a>
</g>
</g>
<!-- naturals_naturals_to_naturals_injective&#45;&gt;naturals_to_semiring_injective -->
<g id="edge23" class="edge">
<title>naturals_naturals_to_naturals_injective&#45;&gt;naturals_to_semiring_injective</title>
<path fill="none" stroke="#000000" d="M632.6395,-387.3202C633.4419,-374.4823 634.409,-359.0087 635.2283,-345.8993"/>
<polygon fill="#000000" stroke="#000000" points="638.7443,-345.752 635.875,-335.5531 631.7579,-345.3153 638.7443,-345.752"/>
</g>
<!-- naturals_to_semiring_twice -->
<g id="node26" class="node">
<title>naturals_to_semiring_twice</title>
<g id="a_node26"><a xlink:href="naturals.html#to_semiring_twice" xlink:title="to_semiring_twice">
<ellipse fill="#f070d1" stroke="#000000" cx="644" cy="-222.5526" rx="96.3833" ry="18"/>
<text text-anchor="middle" x="644" y="-218.8526" font-family="Times,serif" font-size="14.00" fill="#000000">to_semiring_twice</text>
</a>
</g>
</g>
<!-- naturals_to_semiring_injective&#45;&gt;naturals_to_semiring_twice -->
<g id="edge24" class="edge">
<title>naturals_to_semiring_injective&#45;&gt;naturals_to_semiring_twice</title>
<path fill="none" stroke="#000000" d="M638.3497,-299.2356C639.3568,-285.5675 640.7518,-266.6358 641.9036,-251.0034"/>
<polygon fill="#000000" stroke="#000000" points="645.4101,-251.0435 642.6545,-240.8133 638.429,-250.5291 645.4101,-251.0435"/>
</g>
<!-- naturals_to_semiring_self -->
<g id="node25" class="node">
<title>naturals_to_semiring_self</title>
<g id="a_node25"><a xlink:href="naturals.html#to_semiring_self" xlink:title="to_semiring_self">
<ellipse fill="#f070d1" stroke="#000000" cx="435" cy="-222.5526" rx="87.1769" ry="18"/>
<ellipse fill="none" stroke="#000000" cx="435" cy="-222.5526" rx="91.1807" ry="22"/>
<ellipse fill="none" stroke="#000000" cx="435" cy="-222.5526" rx="95.1846" ry="26"/>
<text text-anchor="middle" x="435" y="-218.8526" font-family="Times,serif" font-size="14.00" fill="#000000">to_semiring_self</text>
</a>
</g>
</g>
<!-- naturals_to_semiring_unique_alt -->
<g id="node29" class="node">
<title>naturals_to_semiring_unique_alt</title>
<g id="a_node29"><a xlink:href="naturals.html#to_semiring_unique_alt" xlink:title="to_semiring_unique_alt">
<ellipse fill="#f070d1" stroke="#000000" cx="643" cy="-126.5526" rx="119.6788" ry="18"/>
<text text-anchor="middle" x="643" y="-122.8526" font-family="Times,serif" font-size="14.00" fill="#000000">to_semiring_unique_alt</text>
</a>
</g>
</g>
<!-- naturals_to_semiring_self&#45;&gt;naturals_to_semiring_unique_alt -->
<g id="edge25" class="edge">
<title>naturals_to_semiring_self&#45;&gt;naturals_to_semiring_unique_alt</title>
<path fill="none" stroke="#000000" d="M483.5043,-200.166C517.6295,-184.4159 563.0285,-163.4625 596.6626,-147.9391"/>
<polygon fill="#000000" stroke="#000000" points="598.2051,-151.082 605.818,-143.7135 595.2717,-144.7263 598.2051,-151.082"/>
</g>
<!-- naturals_to_semiring_twice&#45;&gt;naturals_to_semiring_unique_alt -->
<g id="edge26" class="edge">
<title>naturals_to_semiring_twice&#45;&gt;naturals_to_semiring_unique_alt</title>
<path fill="none" stroke="#000000" d="M643.8119,-204.4957C643.6676,-190.6388 643.4655,-171.2387 643.299,-155.2601"/>
<polygon fill="#000000" stroke="#000000" points="646.7947,-154.8179 643.1906,-144.8549 639.7951,-154.8908 646.7947,-154.8179"/>
</g>
<!-- naturals_morphisms_involutive -->
<g id="node27" class="node">
<title>naturals_morphisms_involutive</title>
<g id="a_node27"><a xlink:href="naturals.html#morphisms_involutive" xlink:title="morphisms_involutive">
<ellipse fill="#f070d1" stroke="#000000" cx="201" cy="-222.5526" rx="113.174" ry="18"/>
<ellipse fill="none" stroke="#000000" cx="201" cy="-222.5526" rx="117.177" ry="22"/>
<ellipse fill="none" stroke="#000000" cx="201" cy="-222.5526" rx="121.18" ry="26"/>
<text text-anchor="middle" x="201" y="-218.8526" font-family="Times,serif" font-size="14.00" fill="#000000">morphisms_involutive</text>
</a>
</g>
</g>
<!-- naturals_morphisms_involutive&#45;&gt;naturals_to_semiring_unique_alt -->
<g id="edge27" class="edge">
<title>naturals_morphisms_involutive&#45;&gt;naturals_to_semiring_unique_alt</title>
<path fill="none" stroke="#000000" d="M286.222,-204.0428C366.8131,-186.5389 486.7346,-160.4926 564.9007,-143.5153"/>
<polygon fill="#000000" stroke="#000000" points="565.6654,-146.9309 574.6947,-141.3881 564.1796,-140.0904 565.6654,-146.9309"/>
</g>
<!-- naturals_to_semiring_involutive&#45;&gt;naturals_to_semiring_unique_alt -->
<g id="edge28" class="edge">
<title>naturals_to_semiring_involutive&#45;&gt;naturals_to_semiring_unique_alt</title>
<path fill="none" stroke="#000000" d="M834.8806,-205.6107C795.4068,-189.3468 735.6987,-164.746 693.3853,-147.3122"/>
<polygon fill="#000000" stroke="#000000" points="694.6788,-144.0598 684.0995,-143.4863 692.0121,-150.5319 694.6788,-144.0598"/>
</g>
<!-- naturals_to_semiring_unique_alt&#45;&gt;naturals_to_semiring_unique -->
<g id="edge29" class="edge">
<title>naturals_to_semiring_unique_alt&#45;&gt;naturals_to_semiring_unique</title>
<path fill="none" stroke="#000000" d="M687.1116,-109.7668C724.0591,-95.7071 776.8956,-75.6012 816.1093,-60.6791"/>
<polygon fill="#000000" stroke="#000000" points="817.666,-63.8317 825.7674,-57.0039 815.1764,-57.2893 817.666,-63.8317"/>
</g>
</g>
</svg>
