<?xml version="1.0" encoding="UTF-8" standalone="no"?>
<!DOCTYPE svg PUBLIC "-//W3C//DTD SVG 1.1//EN"
 "http://www.w3.org/Graphics/SVG/1.1/DTD/svg11.dtd">
<!-- Generated by graphviz version 2.40.1 (20161225.0304)
 -->
<!-- Title: HoTT_WildCat_EmptyCat Pages: 1 -->
<svg width="510pt" height="259pt"
 viewBox="0.00 0.00 510.00 259.00" xmlns="http://www.w3.org/2000/svg" xmlns:xlink="http://www.w3.org/1999/xlink">
<g id="graph0" class="graph" transform="scale(1 1) rotate(0) translate(4 255)">
<title>HoTT_WildCat_EmptyCat</title>
<polygon fill="#ffffff" stroke="transparent" points="-4,4 -4,-255 506,-255 506,4 -4,4"/>
<g id="clust1" class="cluster">
<title>cluster_EmptyCat</title>
<polygon fill="#ffffc3" stroke="#000000" points="10.5684,-8 10.5684,-243 491.4316,-243 491.4316,-8 10.5684,-8"/>
<text text-anchor="middle" x="55.0684" y="-227.8" font-family="Times,serif" font-size="14.00" fill="#000000">EmptyCat</text>
</g>
<!-- EmptyCat_is1cat_empty -->
<g id="node1" class="node">
<title>EmptyCat_is1cat_empty</title>
<g id="a_node1"><a xlink:href="EmptyCat.html#is1cat_empty" xlink:title="is1cat_empty">
<ellipse fill="#f070d1" stroke="#000000" cx="374.1789" cy="-186" rx="73.3926" ry="18"/>
<ellipse fill="none" stroke="#000000" cx="374.1789" cy="-186" rx="77.3898" ry="22"/>
<ellipse fill="none" stroke="#000000" cx="374.1789" cy="-186" rx="81.387" ry="26"/>
<text text-anchor="middle" x="374.1789" y="-182.3" font-family="Times,serif" font-size="14.00" fill="#000000">is1cat_empty</text>
</a>
</g>
</g>
<!-- EmptyCat_is2graph_empty -->
<g id="node2" class="node">
<title>EmptyCat_is2graph_empty</title>
<g id="a_node2"><a xlink:href="EmptyCat.html#is2graph_empty" xlink:title="is2graph_empty">
<ellipse fill="#f070d1" stroke="#000000" cx="367.1789" cy="-106" rx="85.5853" ry="18"/>
<text text-anchor="middle" x="367.1789" y="-102.3" font-family="Times,serif" font-size="14.00" fill="#000000">is2graph_empty</text>
</a>
</g>
</g>
<!-- EmptyCat_is1cat_empty&#45;&gt;EmptyCat_is2graph_empty -->
<g id="edge1" class="edge">
<title>EmptyCat_is1cat_empty&#45;&gt;EmptyCat_is2graph_empty</title>
<path fill="none" stroke="#000000" d="M371.8869,-159.805C371.1692,-151.6026 370.3742,-142.5174 369.645,-134.1839"/>
<polygon fill="#000000" stroke="#000000" points="373.1258,-133.8101 368.7674,-124.1532 366.1524,-134.4203 373.1258,-133.8101"/>
</g>
<!-- EmptyCat_is01cat_empty -->
<g id="node4" class="node">
<title>EmptyCat_is01cat_empty</title>
<g id="a_node4"><a xlink:href="EmptyCat.html#is01cat_empty" xlink:title="is01cat_empty">
<ellipse fill="#f070d1" stroke="#000000" cx="125.1789" cy="-106" rx="79.0865" ry="18"/>
<text text-anchor="middle" x="125.1789" y="-102.3" font-family="Times,serif" font-size="14.00" fill="#000000">is01cat_empty</text>
</a>
</g>
</g>
<!-- EmptyCat_is1cat_empty&#45;&gt;EmptyCat_is01cat_empty -->
<g id="edge2" class="edge">
<title>EmptyCat_is1cat_empty&#45;&gt;EmptyCat_is01cat_empty</title>
<path fill="none" stroke="#000000" d="M316.7407,-167.5459C275.8739,-154.416 221.2664,-136.8715 180.8124,-123.8742"/>
<polygon fill="#000000" stroke="#000000" points="181.7014,-120.4837 171.1101,-120.757 179.5601,-127.1481 181.7014,-120.4837"/>
</g>
<!-- EmptyCat_isgraph_empty -->
<g id="node5" class="node">
<title>EmptyCat_isgraph_empty</title>
<g id="a_node5"><a xlink:href="EmptyCat.html#isgraph_empty" xlink:title="isgraph_empty">
<ellipse fill="#f070d1" stroke="#000000" cx="247.1789" cy="-34" rx="79.8859" ry="18"/>
<text text-anchor="middle" x="247.1789" y="-30.3" font-family="Times,serif" font-size="14.00" fill="#000000">isgraph_empty</text>
</a>
</g>
</g>
<!-- EmptyCat_is2graph_empty&#45;&gt;EmptyCat_isgraph_empty -->
<g id="edge3" class="edge">
<title>EmptyCat_is2graph_empty&#45;&gt;EmptyCat_isgraph_empty</title>
<path fill="none" stroke="#000000" d="M338.7406,-88.937C322.4511,-79.1633 301.8227,-66.7863 284.2715,-56.2555"/>
<polygon fill="#000000" stroke="#000000" points="285.7888,-53.0843 275.4131,-50.9405 282.1873,-59.0868 285.7888,-53.0843"/>
</g>
<!-- EmptyCat_is0gpd_empty -->
<g id="node3" class="node">
<title>EmptyCat_is0gpd_empty</title>
<g id="a_node3"><a xlink:href="EmptyCat.html#is0gpd_empty" xlink:title="is0gpd_empty">
<ellipse fill="#f070d1" stroke="#000000" cx="132.1789" cy="-186" rx="76.0824" ry="18"/>
<ellipse fill="none" stroke="#000000" cx="132.1789" cy="-186" rx="80.0845" ry="22"/>
<ellipse fill="none" stroke="#000000" cx="132.1789" cy="-186" rx="84.0865" ry="26"/>
<text text-anchor="middle" x="132.1789" y="-182.3" font-family="Times,serif" font-size="14.00" fill="#000000">is0gpd_empty</text>
</a>
</g>
</g>
<!-- EmptyCat_is0gpd_empty&#45;&gt;EmptyCat_is01cat_empty -->
<g id="edge4" class="edge">
<title>EmptyCat_is0gpd_empty&#45;&gt;EmptyCat_is01cat_empty</title>
<path fill="none" stroke="#000000" d="M129.8869,-159.805C129.1692,-151.6026 128.3742,-142.5174 127.645,-134.1839"/>
<polygon fill="#000000" stroke="#000000" points="131.1258,-133.8101 126.7674,-124.1532 124.1524,-134.4203 131.1258,-133.8101"/>
</g>
<!-- EmptyCat_is01cat_empty&#45;&gt;EmptyCat_isgraph_empty -->
<g id="edge5" class="edge">
<title>EmptyCat_is01cat_empty&#45;&gt;EmptyCat_isgraph_empty</title>
<path fill="none" stroke="#000000" d="M153.7825,-89.1192C170.3355,-79.3502 191.3721,-66.9352 209.2878,-56.362"/>
<polygon fill="#000000" stroke="#000000" points="211.4987,-59.1213 218.3319,-51.0245 207.9409,-53.0929 211.4987,-59.1213"/>
</g>
</g>
</svg>
