<?xml version="1.0" encoding="UTF-8" standalone="no"?>
<!DOCTYPE svg PUBLIC "-//W3C//DTD SVG 1.1//EN"
 "http://www.w3.org/Graphics/SVG/1.1/DTD/svg11.dtd">
<!-- Generated by graphviz version 2.40.1 (20161225.0304)
 -->
<!-- Title: HoTT_HSet Pages: 1 -->
<svg width="2017pt" height="1012pt"
 viewBox="0.00 0.00 2017.00 1012.50" xmlns="http://www.w3.org/2000/svg" xmlns:xlink="http://www.w3.org/1999/xlink">
<g id="graph0" class="graph" transform="scale(1 1) rotate(0) translate(4 1008.5)">
<title>HoTT_HSet</title>
<polygon fill="#ffffff" stroke="transparent" points="-4,4 -4,-1008.5 2013,-1008.5 2013,4 -4,4"/>
<g id="clust1" class="cluster">
<title>cluster_HSet</title>
<polygon fill="#ffffc3" stroke="#000000" points="8,-23.705 8,-980.795 2001,-980.795 2001,-23.705 8,-23.705"/>
<text text-anchor="middle" x="34.5" y="-965.595" font-family="Times,serif" font-size="14.00" fill="#000000">HSet</text>
</g>
<!-- HSet_cancelL_isembedding -->
<g id="node1" class="node">
<title>HSet_cancelL_isembedding</title>
<g id="a_node1"><a xlink:href="HSet.html#cancelL_isembedding" xlink:title="cancelL_isembedding">
<ellipse fill="#f070d1" stroke="#000000" cx="1126" cy="-811.705" rx="111.5945" ry="18"/>
<ellipse fill="none" stroke="#000000" cx="1126" cy="-811.705" rx="115.5875" ry="22"/>
<ellipse fill="none" stroke="#000000" cx="1126" cy="-811.705" rx="119.5805" ry="26"/>
<text text-anchor="middle" x="1126" y="-808.005" font-family="Times,serif" font-size="14.00" fill="#000000">cancelL_isembedding</text>
</a>
</g>
</g>
<!-- HSet_cancelL_isinjective -->
<g id="node2" class="node">
<title>HSet_cancelL_isinjective</title>
<g id="a_node2"><a xlink:href="HSet.html#cancelL_isinjective" xlink:title="cancelL_isinjective">
<ellipse fill="#f070d1" stroke="#000000" cx="734" cy="-550.705" rx="100.1823" ry="18"/>
<text text-anchor="middle" x="734" y="-547.005" font-family="Times,serif" font-size="14.00" fill="#000000">cancelL_isinjective</text>
</a>
</g>
</g>
<!-- HSet_cancelL_isembedding&#45;&gt;HSet_cancelL_isinjective -->
<g id="edge1" class="edge">
<title>HSet_cancelL_isembedding&#45;&gt;HSet_cancelL_isinjective</title>
<path fill="none" stroke="#000000" d="M1088.7682,-786.9155C1013.1054,-736.538 842.332,-622.8342 768.7778,-573.8606"/>
<polygon fill="#000000" stroke="#000000" points="770.5662,-570.8466 760.3026,-568.2177 766.6867,-576.6732 770.5662,-570.8466"/>
</g>
<!-- HSet_isembedding_isinj_hset -->
<g id="node6" class="node">
<title>HSet_isembedding_isinj_hset</title>
<g id="a_node6"><a xlink:href="HSet.html#isembedding_isinj_hset" xlink:title="isembedding_isinj_hset">
<ellipse fill="#f070d1" stroke="#000000" cx="1143" cy="-550.705" rx="119.6788" ry="18"/>
<text text-anchor="middle" x="1143" y="-547.005" font-family="Times,serif" font-size="14.00" fill="#000000">isembedding_isinj_hset</text>
</a>
</g>
</g>
<!-- HSet_cancelL_isembedding&#45;&gt;HSet_isembedding_isinj_hset -->
<g id="edge2" class="edge">
<title>HSet_cancelL_isembedding&#45;&gt;HSet_isembedding_isinj_hset</title>
<path fill="none" stroke="#000000" d="M1127.7236,-785.2426C1130.94,-735.8608 1137.8301,-630.0789 1141.1443,-579.1959"/>
<polygon fill="#000000" stroke="#000000" points="1144.6557,-579.1323 1141.8132,-568.926 1137.6705,-578.6773 1144.6557,-579.1323"/>
</g>
<!-- HSet_isinj_embedding -->
<g id="node9" class="node">
<title>HSet_isinj_embedding</title>
<g id="a_node9"><a xlink:href="HSet.html#isinj_embedding" xlink:title="isinj_embedding">
<ellipse fill="#f070d1" stroke="#000000" cx="1368" cy="-550.705" rx="87.1846" ry="18"/>
<text text-anchor="middle" x="1368" y="-547.005" font-family="Times,serif" font-size="14.00" fill="#000000">isinj_embedding</text>
</a>
</g>
</g>
<!-- HSet_cancelL_isembedding&#45;&gt;HSet_isinj_embedding -->
<g id="edge3" class="edge">
<title>HSet_cancelL_isembedding&#45;&gt;HSet_isinj_embedding</title>
<path fill="none" stroke="#000000" d="M1149.6446,-786.204C1196.0436,-736.1621 1298.5102,-625.6506 1344.6615,-575.8759"/>
<polygon fill="#000000" stroke="#000000" points="1347.3351,-578.1401 1351.5677,-568.4274 1342.202,-573.3807 1347.3351,-578.1401"/>
</g>
<!-- HSet_isinj -->
<g id="node10" class="node">
<title>HSet_isinj</title>
<g id="a_node10"><a xlink:href="HSet.html#isinj" xlink:title="isinj">
<ellipse fill="#f070d1" stroke="#000000" cx="1255" cy="-313.705" rx="30.5947" ry="18"/>
<text text-anchor="middle" x="1255" y="-310.005" font-family="Times,serif" font-size="14.00" fill="#000000">isinj</text>
</a>
</g>
</g>
<!-- HSet_cancelL_isinjective&#45;&gt;HSet_isinj -->
<g id="edge4" class="edge">
<title>HSet_cancelL_isinjective&#45;&gt;HSet_isinj</title>
<path fill="none" stroke="#000000" d="M771.0514,-533.8506C868.0479,-489.7274 1128.3379,-371.3229 1221.3686,-329.0037"/>
<polygon fill="#000000" stroke="#000000" points="1222.9492,-332.1299 1230.6024,-324.8033 1220.0507,-325.7582 1222.9492,-332.1299"/>
</g>
<!-- HSet_ismono_isequiv -->
<g id="node3" class="node">
<title>HSet_ismono_isequiv</title>
<g id="a_node3"><a xlink:href="HSet.html#ismono_isequiv" xlink:title="ismono_isequiv">
<ellipse fill="#f070d1" stroke="#000000" cx="1903" cy="-550.705" rx="81.7951" ry="18"/>
<ellipse fill="none" stroke="#000000" cx="1903" cy="-550.705" rx="85.7904" ry="22"/>
<ellipse fill="none" stroke="#000000" cx="1903" cy="-550.705" rx="89.7856" ry="26"/>
<text text-anchor="middle" x="1903" y="-547.005" font-family="Times,serif" font-size="14.00" fill="#000000">ismono_isequiv</text>
</a>
</g>
</g>
<!-- HSet_ismono -->
<g id="node11" class="node">
<title>HSet_ismono</title>
<g id="a_node11"><a xlink:href="HSet.html#ismono" xlink:title="ismono">
<ellipse fill="#f070d1" stroke="#000000" cx="1719" cy="-313.705" rx="44.393" ry="18"/>
<text text-anchor="middle" x="1719" y="-310.005" font-family="Times,serif" font-size="14.00" fill="#000000">ismono</text>
</a>
</g>
</g>
<!-- HSet_ismono_isequiv&#45;&gt;HSet_ismono -->
<g id="edge5" class="edge">
<title>HSet_ismono_isequiv&#45;&gt;HSet_ismono</title>
<path fill="none" stroke="#000000" d="M1882.9585,-524.8907C1847.5199,-479.2443 1774.2089,-384.8164 1738.8833,-339.3156"/>
<polygon fill="#000000" stroke="#000000" points="1741.444,-336.9065 1732.5469,-331.154 1735.9148,-341.1993 1741.444,-336.9065"/>
</g>
<!-- HSet_isinj_ismono -->
<g id="node4" class="node">
<title>HSet_isinj_ismono</title>
<g id="a_node4"><a xlink:href="HSet.html#isinj_ismono" xlink:title="isinj_ismono">
<ellipse fill="#f070d1" stroke="#000000" cx="1719" cy="-550.705" rx="68.463" ry="18"/>
<ellipse fill="none" stroke="#000000" cx="1719" cy="-550.705" rx="72.4758" ry="22"/>
<ellipse fill="none" stroke="#000000" cx="1719" cy="-550.705" rx="76.4887" ry="26"/>
<text text-anchor="middle" x="1719" y="-547.005" font-family="Times,serif" font-size="14.00" fill="#000000">isinj_ismono</text>
</a>
</g>
</g>
<!-- HSet_isinj_ismono&#45;&gt;HSet_isinj -->
<g id="edge6" class="edge">
<title>HSet_isinj_ismono&#45;&gt;HSet_isinj</title>
<path fill="none" stroke="#000000" d="M1676.593,-529.0446C1584.7969,-482.1573 1369.3635,-372.1191 1287.4167,-330.2627"/>
<polygon fill="#000000" stroke="#000000" points="1288.5998,-326.9369 1278.1022,-325.505 1285.4157,-333.1708 1288.5998,-326.9369"/>
</g>
<!-- HSet_isinj_ismono&#45;&gt;HSet_ismono -->
<g id="edge7" class="edge">
<title>HSet_isinj_ismono&#45;&gt;HSet_ismono</title>
<path fill="none" stroke="#000000" d="M1719,-524.4363C1719,-479.5834 1719,-388.5944 1719,-342.2388"/>
<polygon fill="#000000" stroke="#000000" points="1722.5001,-341.9973 1719,-331.9973 1715.5001,-341.9974 1722.5001,-341.9973"/>
</g>
<!-- HSet_ismono_isinj -->
<g id="node5" class="node">
<title>HSet_ismono_isinj</title>
<g id="a_node5"><a xlink:href="HSet.html#ismono_isinj" xlink:title="ismono_isinj">
<ellipse fill="#f070d1" stroke="#000000" cx="1549" cy="-550.705" rx="68.463" ry="18"/>
<ellipse fill="none" stroke="#000000" cx="1549" cy="-550.705" rx="72.4758" ry="22"/>
<ellipse fill="none" stroke="#000000" cx="1549" cy="-550.705" rx="76.4887" ry="26"/>
<text text-anchor="middle" x="1549" y="-547.005" font-family="Times,serif" font-size="14.00" fill="#000000">ismono_isinj</text>
</a>
</g>
</g>
<!-- HSet_ismono_isinj&#45;&gt;HSet_isinj -->
<g id="edge8" class="edge">
<title>HSet_ismono_isinj&#45;&gt;HSet_isinj</title>
<path fill="none" stroke="#000000" d="M1519.1918,-526.6759C1461.567,-480.2233 1335.7621,-378.8092 1281.1585,-334.792"/>
<polygon fill="#000000" stroke="#000000" points="1283.3131,-332.0332 1273.3311,-328.4821 1278.9199,-337.483 1283.3131,-332.0332"/>
</g>
<!-- HSet_ismono_isinj&#45;&gt;HSet_ismono -->
<g id="edge9" class="edge">
<title>HSet_ismono_isinj&#45;&gt;HSet_ismono</title>
<path fill="none" stroke="#000000" d="M1567.193,-525.3419C1599.7829,-479.9077 1667.7687,-385.1275 1700.5463,-339.4316"/>
<polygon fill="#000000" stroke="#000000" points="1703.4415,-341.4002 1706.4261,-331.2345 1697.7535,-337.3202 1703.4415,-341.4002"/>
</g>
<!-- HSet_isembedding_isinj_hset&#45;&gt;HSet_isinj -->
<g id="edge10" class="edge">
<title>HSet_isembedding_isinj_hset&#45;&gt;HSet_isinj</title>
<path fill="none" stroke="#000000" d="M1151.6025,-532.5015C1171.2024,-491.0267 1219.2561,-389.3416 1242.2873,-340.6059"/>
<polygon fill="#000000" stroke="#000000" points="1245.5654,-341.8609 1246.6737,-331.3242 1239.2365,-338.87 1245.5654,-341.8609"/>
</g>
<!-- HSet_isinj_section -->
<g id="node7" class="node">
<title>HSet_isinj_section</title>
<g id="a_node7"><a xlink:href="HSet.html#isinj_section" xlink:title="isinj_section">
<ellipse fill="#f070d1" stroke="#000000" cx="929" cy="-550.705" rx="68.7989" ry="18"/>
<ellipse fill="none" stroke="#000000" cx="929" cy="-550.705" rx="72.7934" ry="22"/>
<ellipse fill="none" stroke="#000000" cx="929" cy="-550.705" rx="76.7879" ry="26"/>
<text text-anchor="middle" x="929" y="-547.005" font-family="Times,serif" font-size="14.00" fill="#000000">isinj_section</text>
</a>
</g>
</g>
<!-- HSet_isinj_section&#45;&gt;HSet_isinj -->
<g id="edge11" class="edge">
<title>HSet_isinj_section&#45;&gt;HSet_isinj</title>
<path fill="none" stroke="#000000" d="M961.45,-527.1141C1025.6135,-480.4676 1167.6648,-377.1972 1227.5382,-333.6695"/>
<polygon fill="#000000" stroke="#000000" points="1229.7263,-336.406 1235.7567,-327.6948 1225.6102,-330.7441 1229.7263,-336.406"/>
</g>
<!-- HSet_isinj_embedding_beta -->
<g id="node8" class="node">
<title>HSet_isinj_embedding_beta</title>
<g id="a_node8"><a xlink:href="HSet.html#isinj_embedding_beta" xlink:title="isinj_embedding_beta">
<ellipse fill="#f070d1" stroke="#000000" cx="1384" cy="-811.705" rx="112.3841" ry="18"/>
<ellipse fill="none" stroke="#000000" cx="1384" cy="-811.705" rx="116.3821" ry="22"/>
<ellipse fill="none" stroke="#000000" cx="1384" cy="-811.705" rx="120.3801" ry="26"/>
<text text-anchor="middle" x="1384" y="-808.005" font-family="Times,serif" font-size="14.00" fill="#000000">isinj_embedding_beta</text>
</a>
</g>
</g>
<!-- HSet_isinj_embedding_beta&#45;&gt;HSet_isinj_embedding -->
<g id="edge12" class="edge">
<title>HSet_isinj_embedding_beta&#45;&gt;HSet_isinj_embedding</title>
<path fill="none" stroke="#000000" d="M1382.3778,-785.2426C1379.3505,-735.8608 1372.8658,-630.0789 1369.7466,-579.1959"/>
<polygon fill="#000000" stroke="#000000" points="1373.2224,-578.693 1369.117,-568.926 1366.2355,-579.1214 1373.2224,-578.693"/>
</g>
<!-- HSet_isinj_embedding&#45;&gt;HSet_isinj -->
<g id="edge13" class="edge">
<title>HSet_isinj_embedding&#45;&gt;HSet_isinj</title>
<path fill="none" stroke="#000000" d="M1359.3207,-532.5015C1339.5458,-491.0267 1291.063,-389.3416 1267.8262,-340.6059"/>
<polygon fill="#000000" stroke="#000000" points="1270.8638,-338.8443 1263.4007,-331.3242 1264.5452,-341.857 1270.8638,-338.8443"/>
</g>
<!-- HSet_isequiv_hrel_subpaths -->
<g id="node12" class="node">
<title>HSet_isequiv_hrel_subpaths</title>
<g id="a_node12"><a xlink:href="HSet.html#isequiv_hrel_subpaths" xlink:title="isequiv_hrel_subpaths">
<ellipse fill="#f070d1" stroke="#000000" cx="525" cy="-811.705" rx="114.287" ry="18"/>
<ellipse fill="none" stroke="#000000" cx="525" cy="-811.705" rx="118.2834" ry="22"/>
<ellipse fill="none" stroke="#000000" cx="525" cy="-811.705" rx="122.2798" ry="26"/>
<text text-anchor="middle" x="525" y="-808.005" font-family="Times,serif" font-size="14.00" fill="#000000">isequiv_hrel_subpaths</text>
</a>
</g>
</g>
<!-- HSet_ishset_hrel_subpaths -->
<g id="node13" class="node">
<title>HSet_ishset_hrel_subpaths</title>
<g id="a_node13"><a xlink:href="HSet.html#ishset_hrel_subpaths" xlink:title="ishset_hrel_subpaths">
<ellipse fill="#f070d1" stroke="#000000" cx="507" cy="-550.705" rx="109.381" ry="18"/>
<text text-anchor="middle" x="507" y="-547.005" font-family="Times,serif" font-size="14.00" fill="#000000">ishset_hrel_subpaths</text>
</a>
</g>
</g>
<!-- HSet_isequiv_hrel_subpaths&#45;&gt;HSet_ishset_hrel_subpaths -->
<g id="edge14" class="edge">
<title>HSet_isequiv_hrel_subpaths&#45;&gt;HSet_ishset_hrel_subpaths</title>
<path fill="none" stroke="#000000" d="M523.175,-785.2426C519.7694,-735.8608 512.4741,-630.0789 508.9649,-579.1959"/>
<polygon fill="#000000" stroke="#000000" points="512.4364,-578.6614 508.2566,-568.926 505.453,-579.1431 512.4364,-578.6614"/>
</g>
<!-- HSet_hset_axiomK -->
<g id="node18" class="node">
<title>HSet_hset_axiomK</title>
<g id="a_node18"><a xlink:href="HSet.html#hset_axiomK" xlink:title="hset_axiomK">
<ellipse fill="#f070d1" stroke="#000000" cx="279" cy="-313.705" rx="70.3881" ry="18"/>
<text text-anchor="middle" x="279" y="-310.005" font-family="Times,serif" font-size="14.00" fill="#000000">hset_axiomK</text>
</a>
</g>
</g>
<!-- HSet_ishset_hrel_subpaths&#45;&gt;HSet_hset_axiomK -->
<g id="edge15" class="edge">
<title>HSet_ishset_hrel_subpaths&#45;&gt;HSet_hset_axiomK</title>
<path fill="none" stroke="#000000" d="M489.8629,-532.8915C449.6568,-491.0983 349.1861,-386.6616 302.9605,-338.6114"/>
<polygon fill="#000000" stroke="#000000" points="305.4802,-336.182 296.0249,-331.4019 300.4355,-341.0351 305.4802,-336.182"/>
</g>
<!-- HSet_axiomK_idpath -->
<g id="node14" class="node">
<title>HSet_axiomK_idpath</title>
<g id="a_node14"><a xlink:href="HSet.html#axiomK_idpath" xlink:title="axiomK_idpath">
<ellipse fill="#f070d1" stroke="#000000" cx="104" cy="-811.705" rx="79.891" ry="18"/>
<ellipse fill="none" stroke="#000000" cx="104" cy="-811.705" rx="83.8884" ry="22"/>
<ellipse fill="none" stroke="#000000" cx="104" cy="-811.705" rx="87.8859" ry="26"/>
<text text-anchor="middle" x="104" y="-808.005" font-family="Times,serif" font-size="14.00" fill="#000000">axiomK_idpath</text>
</a>
</g>
</g>
<!-- HSet_hset_path2 -->
<g id="node15" class="node">
<title>HSet_hset_path2</title>
<g id="a_node15"><a xlink:href="HSet.html#hset_path2" xlink:title="hset_path2">
<ellipse fill="#f070d1" stroke="#000000" cx="78" cy="-550.705" rx="62.2891" ry="18"/>
<text text-anchor="middle" x="78" y="-547.005" font-family="Times,serif" font-size="14.00" fill="#000000">hset_path2</text>
</a>
</g>
</g>
<!-- HSet_axiomK_idpath&#45;&gt;HSet_hset_path2 -->
<g id="edge16" class="edge">
<title>HSet_axiomK_idpath&#45;&gt;HSet_hset_path2</title>
<path fill="none" stroke="#000000" d="M101.3639,-785.2426C96.4446,-735.8608 85.907,-630.0789 80.8382,-579.1959"/>
<polygon fill="#000000" stroke="#000000" points="84.2892,-578.5297 79.8151,-568.926 77.3237,-579.2237 84.2892,-578.5297"/>
</g>
<!-- HSet_axiomK_idpath&#45;&gt;HSet_hset_axiomK -->
<g id="edge17" class="edge">
<title>HSet_axiomK_idpath&#45;&gt;HSet_hset_axiomK</title>
<path fill="none" stroke="#000000" d="M107.6425,-785.3333C115.238,-733.9906 134.95,-617.5117 169,-524.705 194.5559,-455.0499 238.3952,-379.2766 262.2852,-340.2539"/>
<polygon fill="#000000" stroke="#000000" points="265.3529,-341.9474 267.6266,-331.5994 259.3961,-338.2709 265.3529,-341.9474"/>
</g>
<!-- HSet_axiomK_hset -->
<g id="node19" class="node">
<title>HSet_axiomK_hset</title>
<g id="a_node19"><a xlink:href="HSet.html#axiomK_hset" xlink:title="axiomK_hset">
<ellipse fill="#f070d1" stroke="#000000" cx="121" cy="-313.705" rx="70.3881" ry="18"/>
<text text-anchor="middle" x="121" y="-310.005" font-family="Times,serif" font-size="14.00" fill="#000000">axiomK_hset</text>
</a>
</g>
</g>
<!-- HSet_hset_path2&#45;&gt;HSet_axiomK_hset -->
<g id="edge18" class="edge">
<title>HSet_hset_path2&#45;&gt;HSet_axiomK_hset</title>
<path fill="none" stroke="#000000" d="M81.3027,-532.5015C88.7596,-491.4019 106.9441,-391.1762 115.877,-341.9413"/>
<polygon fill="#000000" stroke="#000000" points="119.3445,-342.4347 117.686,-331.9705 112.4569,-341.185 119.3445,-342.4347"/>
</g>
<!-- HSet_axiomK_isprop -->
<g id="node16" class="node">
<title>HSet_axiomK_isprop</title>
<g id="a_node16"><a xlink:href="HSet.html#axiomK_isprop" xlink:title="axiomK_isprop">
<ellipse fill="#f070d1" stroke="#000000" cx="297" cy="-811.705" rx="79.1053" ry="18"/>
<ellipse fill="none" stroke="#000000" cx="297" cy="-811.705" rx="83.0959" ry="22"/>
<ellipse fill="none" stroke="#000000" cx="297" cy="-811.705" rx="87.0864" ry="26"/>
<text text-anchor="middle" x="297" y="-808.005" font-family="Times,serif" font-size="14.00" fill="#000000">axiomK_isprop</text>
</a>
</g>
</g>
<!-- HSet_equiv_hset_axiomK -->
<g id="node17" class="node">
<title>HSet_equiv_hset_axiomK</title>
<g id="a_node17"><a xlink:href="HSet.html#equiv_hset_axiomK" xlink:title="equiv_hset_axiomK">
<ellipse fill="#f070d1" stroke="#000000" cx="279" cy="-550.705" rx="100.9827" ry="18"/>
<text text-anchor="middle" x="279" y="-547.005" font-family="Times,serif" font-size="14.00" fill="#000000">equiv_hset_axiomK</text>
</a>
</g>
</g>
<!-- HSet_axiomK_isprop&#45;&gt;HSet_equiv_hset_axiomK -->
<g id="edge19" class="edge">
<title>HSet_axiomK_isprop&#45;&gt;HSet_equiv_hset_axiomK</title>
<path fill="none" stroke="#000000" d="M295.175,-785.2426C291.7694,-735.8608 284.4741,-630.0789 280.9649,-579.1959"/>
<polygon fill="#000000" stroke="#000000" points="284.4364,-578.6614 280.2566,-568.926 277.453,-579.1431 284.4364,-578.6614"/>
</g>
<!-- HSet_equiv_hset_axiomK&#45;&gt;HSet_hset_axiomK -->
<g id="edge20" class="edge">
<title>HSet_equiv_hset_axiomK&#45;&gt;HSet_hset_axiomK</title>
<path fill="none" stroke="#000000" d="M279,-532.5015C279,-491.488 279,-391.5961 279,-342.2516"/>
<polygon fill="#000000" stroke="#000000" points="282.5001,-341.9705 279,-331.9705 275.5001,-341.9705 282.5001,-341.9705"/>
</g>
<!-- HSet_equiv_hset_axiomK&#45;&gt;HSet_axiomK_hset -->
<g id="edge21" class="edge">
<title>HSet_equiv_hset_axiomK&#45;&gt;HSet_axiomK_hset</title>
<path fill="none" stroke="#000000" d="M266.8644,-532.5015C239.1093,-490.869 170.9082,-388.5674 138.5648,-340.0522"/>
<polygon fill="#000000" stroke="#000000" points="141.4199,-338.0251 132.9607,-331.6461 135.5956,-341.9081 141.4199,-338.0251"/>
</g>
<!-- HSet_axiomK -->
<g id="node20" class="node">
<title>HSet_axiomK</title>
<g id="a_node20"><a xlink:href="HSet.html#axiomK" xlink:title="axiomK">
<ellipse fill="#f070d1" stroke="#000000" cx="200" cy="-100.705" rx="45.4919" ry="18"/>
<text text-anchor="middle" x="200" y="-97.005" font-family="Times,serif" font-size="14.00" fill="#000000">axiomK</text>
</a>
</g>
</g>
<!-- HSet_hset_axiomK&#45;&gt;HSet_axiomK -->
<g id="edge22" class="edge">
<title>HSet_hset_axiomK&#45;&gt;HSet_axiomK</title>
<path fill="none" stroke="#000000" d="M272.2645,-295.5448C258.3832,-258.1178 226.522,-172.2136 210.1381,-128.0394"/>
<polygon fill="#000000" stroke="#000000" points="213.3661,-126.6776 206.607,-118.5189 206.803,-129.1119 213.3661,-126.6776"/>
</g>
<!-- HSet_axiomK_hset&#45;&gt;HSet_axiomK -->
<g id="edge23" class="edge">
<title>HSet_axiomK_hset&#45;&gt;HSet_axiomK</title>
<path fill="none" stroke="#000000" d="M127.7355,-295.5448C141.6168,-258.1178 173.478,-172.2136 189.8619,-128.0394"/>
<polygon fill="#000000" stroke="#000000" points="193.197,-129.1119 193.393,-118.5189 186.6339,-126.6776 193.197,-129.1119"/>
</g>
</g>
</svg>
