<?xml version="1.0" encoding="UTF-8" standalone="no"?>
<!DOCTYPE svg PUBLIC "-//W3C//DTD SVG 1.1//EN"
 "http://www.w3.org/Graphics/SVG/1.1/DTD/svg11.dtd">
<!-- Generated by graphviz version 2.40.1 (20161225.0304)
 -->
<!-- Title: HoTT_Types_WType Pages: 1 -->
<svg width="1006pt" height="507pt"
 viewBox="0.00 0.00 1006.00 507.00" xmlns="http://www.w3.org/2000/svg" xmlns:xlink="http://www.w3.org/1999/xlink">
<g id="graph0" class="graph" transform="scale(1 1) rotate(0) translate(4 503)">
<title>HoTT_Types_WType</title>
<polygon fill="#ffffff" stroke="transparent" points="-4,4 -4,-503 1002,-503 1002,4 -4,4"/>
<g id="clust1" class="cluster">
<title>cluster_WType</title>
<polygon fill="#ffffc3" stroke="#000000" points="13.7655,-8 13.7655,-491 984.2345,-491 984.2345,-8 13.7655,-8"/>
<text text-anchor="middle" x="47.2655" y="-475.8" font-family="Times,serif" font-size="14.00" fill="#000000">WType</text>
</g>
<!-- WType_istrunc_wtype -->
<g id="node1" class="node">
<title>WType_istrunc_wtype</title>
<g id="a_node1"><a xlink:href="WType.html#istrunc_wtype" xlink:title="istrunc_wtype">
<ellipse fill="#f070d1" stroke="#000000" cx="330.531" cy="-434" rx="77.2012" ry="18"/>
<ellipse fill="none" stroke="#000000" cx="330.531" cy="-434" rx="81.1939" ry="22"/>
<ellipse fill="none" stroke="#000000" cx="330.531" cy="-434" rx="85.1866" ry="26"/>
<text text-anchor="middle" x="330.531" y="-430.3" font-family="Times,serif" font-size="14.00" fill="#000000">istrunc_wtype</text>
</a>
</g>
</g>
<!-- WType_equiv_path_wtype_ -->
<g id="node2" class="node">
<title>WType_equiv_path_wtype_</title>
<g id="a_node2"><a xlink:href="WType.html#equiv_path_wtype'" xlink:title="equiv_path_wtype&#39;">
<ellipse fill="#f070d1" stroke="#000000" cx="409.531" cy="-354" rx="97.4827" ry="18"/>
<text text-anchor="middle" x="409.531" y="-350.3" font-family="Times,serif" font-size="14.00" fill="#000000">equiv_path_wtype&#39;</text>
</a>
</g>
</g>
<!-- WType_istrunc_wtype&#45;&gt;WType_equiv_path_wtype_ -->
<g id="edge1" class="edge">
<title>WType_istrunc_wtype&#45;&gt;WType_equiv_path_wtype_</title>
<path fill="none" stroke="#000000" d="M355.5271,-408.6875C364.801,-399.2962 375.3136,-388.6505 384.5832,-379.2636"/>
<polygon fill="#000000" stroke="#000000" points="387.1673,-381.628 391.7034,-372.0533 382.1865,-376.7095 387.1673,-381.628"/>
</g>
<!-- WType_W_rect -->
<g id="node10" class="node">
<title>WType_W_rect</title>
<g id="a_node10"><a xlink:href="WType.html#W_rect" xlink:title="W_rect">
<ellipse fill="#f070d1" stroke="#000000" cx="103.531" cy="-114" rx="44.393" ry="18"/>
<text text-anchor="middle" x="103.531" y="-110.3" font-family="Times,serif" font-size="14.00" fill="#000000">W_rect</text>
</a>
</g>
</g>
<!-- WType_istrunc_wtype&#45;&gt;WType_W_rect -->
<g id="edge2" class="edge">
<title>WType_istrunc_wtype&#45;&gt;WType_W_rect</title>
<path fill="none" stroke="#000000" d="M306.7345,-408.7422C272.1283,-371.2288 207.0826,-297.7019 161.531,-228 143.1421,-199.8617 126.2208,-165.1406 115.4611,-141.4601"/>
<polygon fill="#000000" stroke="#000000" points="118.523,-139.734 111.2407,-132.0386 112.1347,-142.5957 118.523,-139.734"/>
</g>
<!-- WType_equiv_path_wtype -->
<g id="node3" class="node">
<title>WType_equiv_path_wtype</title>
<g id="a_node3"><a xlink:href="WType.html#equiv_path_wtype" xlink:title="equiv_path_wtype">
<ellipse fill="#f070d1" stroke="#000000" cx="486.531" cy="-282" rx="94.7833" ry="18"/>
<text text-anchor="middle" x="486.531" y="-278.3" font-family="Times,serif" font-size="14.00" fill="#000000">equiv_path_wtype</text>
</a>
</g>
</g>
<!-- WType_equiv_path_wtype_&#45;&gt;WType_equiv_path_wtype -->
<g id="edge3" class="edge">
<title>WType_equiv_path_wtype_&#45;&gt;WType_equiv_path_wtype</title>
<path fill="none" stroke="#000000" d="M428.5647,-336.2022C438.0048,-327.3752 449.5637,-316.5669 459.8691,-306.9307"/>
<polygon fill="#000000" stroke="#000000" points="462.5356,-309.229 467.4494,-299.8425 457.7547,-304.116 462.5356,-309.229"/>
</g>
<!-- WType_issig_W -->
<g id="node4" class="node">
<title>WType_issig_W</title>
<g id="a_node4"><a xlink:href="WType.html#issig_W" xlink:title="issig_W">
<ellipse fill="#f070d1" stroke="#000000" cx="486.531" cy="-114" rx="46.5926" ry="18"/>
<text text-anchor="middle" x="486.531" y="-110.3" font-family="Times,serif" font-size="14.00" fill="#000000">issig_W</text>
</a>
</g>
</g>
<!-- WType_equiv_path_wtype&#45;&gt;WType_issig_W -->
<g id="edge4" class="edge">
<title>WType_equiv_path_wtype&#45;&gt;WType_issig_W</title>
<path fill="none" stroke="#000000" d="M486.531,-263.7012C486.531,-234.4641 486.531,-176.9945 486.531,-142.3892"/>
<polygon fill="#000000" stroke="#000000" points="490.0311,-142.0219 486.531,-132.0219 483.0311,-142.0219 490.0311,-142.0219"/>
</g>
<!-- WType_w_arg -->
<g id="node5" class="node">
<title>WType_w_arg</title>
<g id="a_node5"><a xlink:href="WType.html#w_arg" xlink:title="w_arg">
<ellipse fill="#f070d1" stroke="#000000" cx="738.531" cy="-202" rx="38.9931" ry="18"/>
<text text-anchor="middle" x="738.531" y="-198.3" font-family="Times,serif" font-size="14.00" fill="#000000">w_arg</text>
</a>
</g>
</g>
<!-- WType_equiv_path_wtype&#45;&gt;WType_w_arg -->
<g id="edge5" class="edge">
<title>WType_equiv_path_wtype&#45;&gt;WType_w_arg</title>
<path fill="none" stroke="#000000" d="M535.418,-266.4803C582.2575,-251.6106 652.198,-229.4073 696.5739,-215.3197"/>
<polygon fill="#000000" stroke="#000000" points="697.7105,-218.6311 706.1827,-212.2693 695.5924,-211.9592 697.7105,-218.6311"/>
</g>
<!-- WType_w_sup -->
<g id="node11" class="node">
<title>WType_w_sup</title>
<g id="a_node11"><a xlink:href="WType.html#w_sup" xlink:title="w_sup">
<ellipse fill="#7faaff" stroke="#000000" cx="316.531" cy="-34" rx="40.0939" ry="18"/>
<text text-anchor="middle" x="316.531" y="-30.3" font-family="Times,serif" font-size="14.00" fill="#000000">w_sup</text>
</a>
</g>
</g>
<!-- WType_issig_W&#45;&gt;WType_w_sup -->
<g id="edge6" class="edge">
<title>WType_issig_W&#45;&gt;WType_w_sup</title>
<path fill="none" stroke="#000000" d="M456.5298,-99.8818C427.8505,-86.3856 384.5322,-66.0006 353.6838,-51.4837"/>
<polygon fill="#000000" stroke="#000000" points="355.0791,-48.2721 344.5406,-47.181 352.0984,-54.6059 355.0791,-48.2721"/>
</g>
<!-- WType_W -->
<g id="node12" class="node">
<title>WType_W</title>
<g id="a_node12"><a xlink:href="WType.html#W" xlink:title="W">
<ellipse fill="#e2cdfa" stroke="#000000" cx="486.531" cy="-34" rx="27" ry="18"/>
<text text-anchor="middle" x="486.531" y="-30.3" font-family="Times,serif" font-size="14.00" fill="#000000">W</text>
</a>
</g>
</g>
<!-- WType_issig_W&#45;&gt;WType_W -->
<g id="edge7" class="edge">
<title>WType_issig_W&#45;&gt;WType_W</title>
<path fill="none" stroke="#000000" d="M486.531,-95.8468C486.531,-85.9251 486.531,-73.4167 486.531,-62.2492"/>
<polygon fill="#000000" stroke="#000000" points="490.0311,-62.0814 486.531,-52.0814 483.0311,-62.0814 490.0311,-62.0814"/>
</g>
<!-- WType_w_label -->
<g id="node6" class="node">
<title>WType_w_label</title>
<g id="a_node6"><a xlink:href="WType.html#w_label" xlink:title="w_label">
<ellipse fill="#f070d1" stroke="#000000" cx="891.531" cy="-114" rx="46.2923" ry="18"/>
<text text-anchor="middle" x="891.531" y="-110.3" font-family="Times,serif" font-size="14.00" fill="#000000">w_label</text>
</a>
</g>
</g>
<!-- WType_w_arg&#45;&gt;WType_w_label -->
<g id="edge8" class="edge">
<title>WType_w_arg&#45;&gt;WType_w_label</title>
<path fill="none" stroke="#000000" d="M763.1131,-187.8613C788.419,-173.3063 828.0762,-150.4969 856.6266,-134.0757"/>
<polygon fill="#000000" stroke="#000000" points="858.5503,-137.007 865.4737,-128.9872 855.0602,-130.9391 858.5503,-137.007"/>
</g>
<!-- WType_w_label&#45;&gt;WType_W -->
<g id="edge9" class="edge">
<title>WType_w_label&#45;&gt;WType_W</title>
<path fill="none" stroke="#000000" d="M850.0922,-105.8146C770.5704,-90.1065 597.7944,-55.978 522.6493,-41.1345"/>
<polygon fill="#000000" stroke="#000000" points="523.2025,-37.6762 512.7138,-39.1719 521.8459,-44.5435 523.2025,-37.6762"/>
</g>
<!-- WType_W_sind -->
<g id="node7" class="node">
<title>WType_W_sind</title>
<g id="a_node7"><a xlink:href="WType.html#W_sind" xlink:title="W_sind">
<ellipse fill="#f070d1" stroke="#000000" cx="689.531" cy="-114" rx="44.7157" ry="18"/>
<ellipse fill="none" stroke="#000000" cx="689.531" cy="-114" rx="48.7041" ry="22"/>
<ellipse fill="none" stroke="#000000" cx="689.531" cy="-114" rx="52.6925" ry="26"/>
<text text-anchor="middle" x="689.531" y="-110.3" font-family="Times,serif" font-size="14.00" fill="#000000">W_sind</text>
</a>
</g>
</g>
<!-- WType_W_sind&#45;&gt;WType_w_sup -->
<g id="edge10" class="edge">
<title>WType_W_sind&#45;&gt;WType_w_sup</title>
<path fill="none" stroke="#000000" d="M640.7678,-103.5414C568.4927,-88.04 433.8629,-59.165 362.9588,-43.9577"/>
<polygon fill="#000000" stroke="#000000" points="363.4866,-40.4914 352.975,-41.8164 362.0186,-47.3357 363.4866,-40.4914"/>
</g>
<!-- WType_W_sind&#45;&gt;WType_W -->
<g id="edge11" class="edge">
<title>WType_W_sind&#45;&gt;WType_W</title>
<path fill="none" stroke="#000000" d="M647.9611,-97.6178C610.0596,-82.6812 554.7884,-60.8994 519.7534,-47.0926"/>
<polygon fill="#000000" stroke="#000000" points="520.5928,-43.6614 510.0059,-43.2512 518.0263,-50.174 520.5928,-43.6614"/>
</g>
<!-- WType_W_rec -->
<g id="node8" class="node">
<title>WType_W_rec</title>
<g id="a_node8"><a xlink:href="WType.html#W_rec" xlink:title="W_rec">
<ellipse fill="#f070d1" stroke="#000000" cx="218.531" cy="-202" rx="40.1273" ry="18"/>
<ellipse fill="none" stroke="#000000" cx="218.531" cy="-202" rx="44.1105" ry="22"/>
<ellipse fill="none" stroke="#000000" cx="218.531" cy="-202" rx="48.0937" ry="26"/>
<text text-anchor="middle" x="218.531" y="-198.3" font-family="Times,serif" font-size="14.00" fill="#000000">W_rec</text>
</a>
</g>
</g>
<!-- WType_W_rec&#45;&gt;WType_W_rect -->
<g id="edge12" class="edge">
<title>WType_W_rec&#45;&gt;WType_W_rect</title>
<path fill="none" stroke="#000000" d="M190.6927,-180.6977C173.2122,-167.3213 150.6951,-150.0908 132.9265,-136.4939"/>
<polygon fill="#000000" stroke="#000000" points="134.6966,-133.4413 124.628,-130.1438 130.4426,-139.0004 134.6966,-133.4413"/>
</g>
<!-- WType_W_ind -->
<g id="node9" class="node">
<title>WType_W_ind</title>
<g id="a_node9"><a xlink:href="WType.html#W_ind" xlink:title="W_ind">
<ellipse fill="#7fffd4" stroke="#000000" cx="292.531" cy="-114" rx="40.1273" ry="18"/>
<ellipse fill="none" stroke="#000000" cx="292.531" cy="-114" rx="44.1105" ry="22"/>
<ellipse fill="none" stroke="#000000" cx="292.531" cy="-114" rx="48.0937" ry="26"/>
<text text-anchor="middle" x="292.531" y="-110.3" font-family="Times,serif" font-size="14.00" fill="#000000">W_ind</text>
</a>
</g>
</g>
<!-- WType_W_ind&#45;&gt;WType_w_sup -->
<g id="edge13" class="edge">
<title>WType_W_ind&#45;&gt;WType_w_sup</title>
<path fill="none" stroke="#000000" d="M300.2569,-88.2471C302.8177,-79.7113 305.6771,-70.1797 308.2761,-61.5165"/>
<polygon fill="#000000" stroke="#000000" points="311.6527,-62.4411 311.1739,-51.8571 304.948,-60.4296 311.6527,-62.4411"/>
</g>
<!-- WType_W_ind&#45;&gt;WType_W -->
<g id="edge14" class="edge">
<title>WType_W_ind&#45;&gt;WType_W</title>
<path fill="none" stroke="#000000" d="M331.3236,-98.0031C367.2521,-83.1872 420.0874,-61.3994 453.9008,-47.4558"/>
<polygon fill="#000000" stroke="#000000" points="455.4131,-50.6181 463.3235,-43.5701 452.7444,-44.1468 455.4131,-50.6181"/>
</g>
<!-- WType_W_rect&#45;&gt;WType_w_sup -->
<g id="edge15" class="edge">
<title>WType_W_rect&#45;&gt;WType_w_sup</title>
<path fill="none" stroke="#000000" d="M136.3455,-101.6753C173.8623,-87.5845 235.3073,-64.5066 275.8388,-49.2835"/>
<polygon fill="#000000" stroke="#000000" points="277.2821,-52.4802 285.4129,-45.6875 274.8208,-45.9271 277.2821,-52.4802"/>
</g>
<!-- WType_W_rect&#45;&gt;WType_W -->
<g id="edge16" class="edge">
<title>WType_W_rect&#45;&gt;WType_W</title>
<path fill="none" stroke="#000000" d="M143.0762,-105.7399C217.7642,-90.1393 378.5187,-56.5613 450.4513,-41.5362"/>
<polygon fill="#000000" stroke="#000000" points="451.3259,-44.9292 460.399,-39.4584 449.8946,-38.0771 451.3259,-44.9292"/>
</g>
</g>
</svg>
