<?xml version="1.0" encoding="UTF-8" standalone="no"?>
<!DOCTYPE svg PUBLIC "-//W3C//DTD SVG 1.1//EN"
 "http://www.w3.org/Graphics/SVG/1.1/DTD/svg11.dtd">
<!-- Generated by graphviz version 2.40.1 (20161225.0304)
 -->
<!-- Title: HoTT_Metatheory_TruncImpliesFunext Pages: 1 -->
<svg width="510pt" height="259pt"
 viewBox="0.00 0.00 510.00 259.00" xmlns="http://www.w3.org/2000/svg" xmlns:xlink="http://www.w3.org/1999/xlink">
<g id="graph0" class="graph" transform="scale(1 1) rotate(0) translate(4 255)">
<title>HoTT_Metatheory_TruncImpliesFunext</title>
<polygon fill="#ffffff" stroke="transparent" points="-4,4 -4,-255 506,-255 506,4 -4,4"/>
<g id="clust1" class="cluster">
<title>cluster_TruncImpliesFunext</title>
<polygon fill="#ffffc3" stroke="#000000" points="13.6599,-8 13.6599,-243 488.3401,-243 488.3401,-8 13.6599,-8"/>
<text text-anchor="middle" x="95.1599" y="-227.8" font-family="Times,serif" font-size="14.00" fill="#000000">TruncImpliesFunext</text>
</g>
<!-- TruncImpliesFunext_funext_type_from_trunc -->
<g id="node1" class="node">
<title>TruncImpliesFunext_funext_type_from_trunc</title>
<g id="a_node1"><a xlink:href="TruncImpliesFunext.html#funext_type_from_trunc" xlink:title="funext_type_from_trunc">
<ellipse fill="#f070d1" stroke="#000000" cx="251.2925" cy="-186" rx="122.6882" ry="18"/>
<ellipse fill="none" stroke="#000000" cx="251.2925" cy="-186" rx="126.6833" ry="22"/>
<ellipse fill="none" stroke="#000000" cx="251.2925" cy="-186" rx="130.6784" ry="26"/>
<text text-anchor="middle" x="251.2925" y="-182.3" font-family="Times,serif" font-size="14.00" fill="#000000">funext_type_from_trunc</text>
</a>
</g>
</g>
<!-- TruncImpliesFunext_seg -->
<g id="node2" class="node">
<title>TruncImpliesFunext_seg</title>
<g id="a_node2"><a xlink:href="TruncImpliesFunext.html#seg" xlink:title="seg">
<ellipse fill="#f070d1" stroke="#000000" cx="90.2925" cy="-106" rx="27" ry="18"/>
<text text-anchor="middle" x="90.2925" y="-102.3" font-family="Times,serif" font-size="14.00" fill="#000000">seg</text>
</a>
</g>
</g>
<!-- TruncImpliesFunext_funext_type_from_trunc&#45;&gt;TruncImpliesFunext_seg -->
<g id="edge1" class="edge">
<title>TruncImpliesFunext_funext_type_from_trunc&#45;&gt;TruncImpliesFunext_seg</title>
<path fill="none" stroke="#000000" d="M202.5503,-161.7803C176.0321,-148.6035 144.0381,-132.7059 121.0017,-121.2592"/>
<polygon fill="#000000" stroke="#000000" points="122.5408,-118.1157 112.0279,-116.8002 119.4258,-124.3845 122.5408,-118.1157"/>
</g>
<!-- TruncImpliesFunext_interval_rec -->
<g id="node3" class="node">
<title>TruncImpliesFunext_interval_rec</title>
<g id="a_node3"><a xlink:href="TruncImpliesFunext.html#interval_rec" xlink:title="interval_rec">
<ellipse fill="#f070d1" stroke="#000000" cx="281.2925" cy="-106" rx="66.8882" ry="18"/>
<text text-anchor="middle" x="281.2925" y="-102.3" font-family="Times,serif" font-size="14.00" fill="#000000">interval_rec</text>
</a>
</g>
</g>
<!-- TruncImpliesFunext_funext_type_from_trunc&#45;&gt;TruncImpliesFunext_interval_rec -->
<g id="edge2" class="edge">
<title>TruncImpliesFunext_funext_type_from_trunc&#45;&gt;TruncImpliesFunext_interval_rec</title>
<path fill="none" stroke="#000000" d="M261.1156,-159.805C264.2599,-151.4203 267.7501,-142.1132 270.9315,-133.6295"/>
<polygon fill="#000000" stroke="#000000" points="274.2509,-134.7455 274.4851,-124.1532 267.6966,-132.2876 274.2509,-134.7455"/>
</g>
<!-- TruncImpliesFunext_interval -->
<g id="node4" class="node">
<title>TruncImpliesFunext_interval</title>
<g id="a_node4"><a xlink:href="TruncImpliesFunext.html#interval" xlink:title="interval">
<ellipse fill="#f070d1" stroke="#000000" cx="194.2925" cy="-34" rx="46.5926" ry="18"/>
<text text-anchor="middle" x="194.2925" y="-30.3" font-family="Times,serif" font-size="14.00" fill="#000000">interval</text>
</a>
</g>
</g>
<!-- TruncImpliesFunext_seg&#45;&gt;TruncImpliesFunext_interval -->
<g id="edge3" class="edge">
<title>TruncImpliesFunext_seg&#45;&gt;TruncImpliesFunext_interval</title>
<path fill="none" stroke="#000000" d="M109.3677,-92.7941C124.3852,-82.3974 145.6264,-67.6919 163.1083,-55.5891"/>
<polygon fill="#000000" stroke="#000000" points="165.1149,-58.4569 171.3446,-49.8871 161.1304,-52.7015 165.1149,-58.4569"/>
</g>
<!-- TruncImpliesFunext_interval_rec&#45;&gt;TruncImpliesFunext_interval -->
<g id="edge4" class="edge">
<title>TruncImpliesFunext_interval_rec&#45;&gt;TruncImpliesFunext_interval</title>
<path fill="none" stroke="#000000" d="M260.2322,-88.5708C248.764,-79.0799 234.4304,-67.2175 222.0589,-56.9791"/>
<polygon fill="#000000" stroke="#000000" points="224.1978,-54.206 214.2623,-50.5267 219.7348,-59.5988 224.1978,-54.206"/>
</g>
</g>
</svg>
