<?xml version="1.0" encoding="UTF-8" standalone="no"?>
<!DOCTYPE svg PUBLIC "-//W3C//DTD SVG 1.1//EN"
 "http://www.w3.org/Graphics/SVG/1.1/DTD/svg11.dtd">
<!-- Generated by graphviz version 2.40.1 (20161225.0304)
 -->
<!-- Title: HoTT_Spaces_TwoSphere Pages: 1 -->
<svg width="820pt" height="414pt"
 viewBox="0.00 0.00 820.00 414.00" xmlns="http://www.w3.org/2000/svg" xmlns:xlink="http://www.w3.org/1999/xlink">
<g id="graph0" class="graph" transform="scale(1 1) rotate(0) translate(4 410)">
<title>HoTT_Spaces_TwoSphere</title>
<polygon fill="#ffffff" stroke="transparent" points="-4,4 -4,-410 816,-410 816,4 -4,4"/>
<g id="clust1" class="cluster">
<title>cluster_TwoSphere</title>
<polygon fill="#ffffc3" stroke="#000000" points="13.3663,-8 13.3663,-398 798.6337,-398 798.6337,-8 13.3663,-8"/>
<text text-anchor="middle" x="61.8663" y="-382.8" font-family="Times,serif" font-size="14.00" fill="#000000">TwoSphere</text>
</g>
<g id="clust2" class="cluster">
<title>cluster_TwoSphere_TwoSphere</title>
<polygon fill="#ffffa3" stroke="#000000" points="26.7325,-16 26.7325,-307 491.2099,-307 491.2099,-16 26.7325,-16"/>
<text text-anchor="middle" x="75.2325" y="-291.8" font-family="Times,serif" font-size="14.00" fill="#000000">TwoSphere</text>
</g>
<!-- TwoSphere_TwoSphere_TwoSphere_ind_beta_surf -->
<g id="node1" class="node">
<title>TwoSphere_TwoSphere_TwoSphere_ind_beta_surf</title>
<g id="a_node1"><a xlink:href="TwoSphere.html#TwoSphere.TwoSphere_ind_beta_surf" xlink:title="TwoSphere_ind_beta_surf">
<ellipse fill="#facdef" stroke="#000000" cx="258.9712" cy="-258" rx="131.077" ry="18"/>
<text text-anchor="middle" x="258.9712" y="-254.3" font-family="Times,serif" font-size="14.00" fill="#000000">TwoSphere_ind_beta_surf</text>
</a>
</g>
</g>
<!-- TwoSphere_TwoSphere_TwoSphere_ind -->
<g id="node2" class="node">
<title>TwoSphere_TwoSphere_TwoSphere_ind</title>
<g id="a_node2"><a xlink:href="TwoSphere.html#TwoSphere.TwoSphere_ind" xlink:title="TwoSphere_ind">
<ellipse fill="#f070d1" stroke="#000000" cx="293.9712" cy="-186" rx="82.5854" ry="18"/>
<text text-anchor="middle" x="293.9712" y="-182.3" font-family="Times,serif" font-size="14.00" fill="#000000">TwoSphere_ind</text>
</a>
</g>
</g>
<!-- TwoSphere_TwoSphere_TwoSphere_ind_beta_surf&#45;&gt;TwoSphere_TwoSphere_TwoSphere_ind -->
<g id="edge1" class="edge">
<title>TwoSphere_TwoSphere_TwoSphere_ind_beta_surf&#45;&gt;TwoSphere_TwoSphere_TwoSphere_ind</title>
<path fill="none" stroke="#000000" d="M267.8032,-239.8314C271.7293,-231.7547 276.4342,-222.0761 280.7651,-213.1668"/>
<polygon fill="#000000" stroke="#000000" points="284.0391,-214.4373 285.2633,-203.9134 277.7435,-211.3769 284.0391,-214.4373"/>
</g>
<!-- TwoSphere_TwoSphere_surf -->
<g id="node3" class="node">
<title>TwoSphere_TwoSphere_surf</title>
<g id="a_node3"><a xlink:href="TwoSphere.html#TwoSphere.surf" xlink:title="surf">
<ellipse fill="#facdef" stroke="#000000" cx="293.9712" cy="-114" rx="29.4969" ry="18"/>
<text text-anchor="middle" x="293.9712" y="-110.3" font-family="Times,serif" font-size="14.00" fill="#000000">surf</text>
</a>
</g>
</g>
<!-- TwoSphere_TwoSphere_TwoSphere_ind&#45;&gt;TwoSphere_TwoSphere_surf -->
<g id="edge2" class="edge">
<title>TwoSphere_TwoSphere_TwoSphere_ind&#45;&gt;TwoSphere_TwoSphere_surf</title>
<path fill="none" stroke="#000000" d="M293.9712,-167.8314C293.9712,-160.131 293.9712,-150.9743 293.9712,-142.4166"/>
<polygon fill="#000000" stroke="#000000" points="297.4713,-142.4132 293.9712,-132.4133 290.4713,-142.4133 297.4713,-142.4132"/>
</g>
<!-- TwoSphere_TwoSphere_base -->
<g id="node4" class="node">
<title>TwoSphere_TwoSphere_base</title>
<g id="a_node4"><a xlink:href="TwoSphere.html#TwoSphere.base" xlink:title="base">
<ellipse fill="#7faaff" stroke="#000000" cx="138.9712" cy="-42" rx="32.4942" ry="18"/>
<text text-anchor="middle" x="138.9712" y="-38.3" font-family="Times,serif" font-size="14.00" fill="#000000">base</text>
</a>
</g>
</g>
<!-- TwoSphere_TwoSphere_surf&#45;&gt;TwoSphere_TwoSphere_base -->
<g id="edge3" class="edge">
<title>TwoSphere_TwoSphere_surf&#45;&gt;TwoSphere_TwoSphere_base</title>
<path fill="none" stroke="#000000" d="M270.43,-103.0647C244.5241,-91.031 202.6494,-71.5795 173.134,-57.8692"/>
<polygon fill="#000000" stroke="#000000" points="174.5651,-54.6748 164.0213,-53.6362 171.6161,-61.0233 174.5651,-54.6748"/>
</g>
<!-- TwoSphere_TwoSphere_TwoSphere -->
<g id="node5" class="node">
<title>TwoSphere_TwoSphere_TwoSphere</title>
<g id="a_node5"><a xlink:href="TwoSphere.html#TwoSphere.TwoSphere" xlink:title="TwoSphere">
<ellipse fill="#e2cdfa" stroke="#000000" cx="328.9712" cy="-42" rx="63.0888" ry="18"/>
<text text-anchor="middle" x="328.9712" y="-38.3" font-family="Times,serif" font-size="14.00" fill="#000000">TwoSphere</text>
</a>
</g>
</g>
<!-- TwoSphere_TwoSphere_surf&#45;&gt;TwoSphere_TwoSphere_TwoSphere -->
<g id="edge4" class="edge">
<title>TwoSphere_TwoSphere_surf&#45;&gt;TwoSphere_TwoSphere_TwoSphere</title>
<path fill="none" stroke="#000000" d="M302.4437,-96.5708C306.4378,-88.3544 311.2958,-78.3608 315.7577,-69.1821"/>
<polygon fill="#000000" stroke="#000000" points="318.987,-70.5445 320.2112,-60.0206 312.6914,-67.4841 318.987,-70.5445"/>
</g>
<!-- TwoSphere_TwoSphere_rec_beta_surf -->
<g id="node6" class="node">
<title>TwoSphere_TwoSphere_rec_beta_surf</title>
<g id="a_node6"><a xlink:href="TwoSphere.html#TwoSphere_rec_beta_surf" xlink:title="TwoSphere_rec_beta_surf">
<ellipse fill="#f070d1" stroke="#000000" cx="405.9712" cy="-341" rx="131.8801" ry="18"/>
<ellipse fill="none" stroke="#000000" cx="405.9712" cy="-341" rx="135.8784" ry="22"/>
<ellipse fill="none" stroke="#000000" cx="405.9712" cy="-341" rx="139.8766" ry="26"/>
<text text-anchor="middle" x="405.9712" y="-337.3" font-family="Times,serif" font-size="14.00" fill="#000000">TwoSphere_rec_beta_surf</text>
</a>
</g>
</g>
<!-- TwoSphere_TwoSphere_rec_beta_surf&#45;&gt;TwoSphere_TwoSphere_TwoSphere_ind_beta_surf -->
<g id="edge5" class="edge">
<title>TwoSphere_TwoSphere_rec_beta_surf&#45;&gt;TwoSphere_TwoSphere_TwoSphere_ind_beta_surf</title>
<path fill="none" stroke="#000000" d="M361.8663,-316.0973C341.8623,-304.8024 318.3801,-291.5438 298.9032,-280.5466"/>
<polygon fill="#000000" stroke="#000000" points="300.4092,-277.3776 289.9805,-275.5087 296.9675,-283.4731 300.4092,-277.3776"/>
</g>
<!-- TwoSphere_TwoSphere_rec -->
<g id="node7" class="node">
<title>TwoSphere_TwoSphere_rec</title>
<g id="a_node7"><a xlink:href="TwoSphere.html#TwoSphere_rec" xlink:title="TwoSphere_rec">
<ellipse fill="#f070d1" stroke="#000000" cx="646.9712" cy="-258" rx="83.3857" ry="18"/>
<text text-anchor="middle" x="646.9712" y="-254.3" font-family="Times,serif" font-size="14.00" fill="#000000">TwoSphere_rec</text>
</a>
</g>
</g>
<!-- TwoSphere_TwoSphere_rec_beta_surf&#45;&gt;TwoSphere_TwoSphere_rec -->
<g id="edge6" class="edge">
<title>TwoSphere_TwoSphere_rec_beta_surf&#45;&gt;TwoSphere_TwoSphere_rec</title>
<path fill="none" stroke="#000000" d="M472.4635,-318.1002C510.287,-305.0738 557.0617,-288.9647 592.6615,-276.7042"/>
<polygon fill="#000000" stroke="#000000" points="594.0742,-279.9195 602.3894,-273.3539 591.7947,-273.301 594.0742,-279.9195"/>
</g>
<!-- TwoSphere_TwoSphere_rec&#45;&gt;TwoSphere_TwoSphere_TwoSphere_ind -->
<g id="edge7" class="edge">
<title>TwoSphere_TwoSphere_rec&#45;&gt;TwoSphere_TwoSphere_TwoSphere_ind</title>
<path fill="none" stroke="#000000" d="M586.2883,-245.6228C524.7276,-233.0665 429.5121,-213.6457 364.5999,-200.4058"/>
<polygon fill="#000000" stroke="#000000" points="364.9496,-196.9052 354.4518,-198.336 363.5506,-203.764 364.9496,-196.9052"/>
</g>
</g>
</svg>
