<?xml version="1.0" encoding="UTF-8" standalone="no"?>
<!DOCTYPE svg PUBLIC "-//W3C//DTD SVG 1.1//EN"
 "http://www.w3.org/Graphics/SVG/1.1/DTD/svg11.dtd">
<!-- Generated by graphviz version 2.40.1 (20161225.0304)
 -->
<!-- Title: HoTT_Algebra_Congruence Pages: 1 -->
<svg width="818pt" height="413pt"
 viewBox="0.00 0.00 818.00 413.00" xmlns="http://www.w3.org/2000/svg" xmlns:xlink="http://www.w3.org/1999/xlink">
<g id="graph0" class="graph" transform="scale(1 1) rotate(0) translate(4 409)">
<title>HoTT_Algebra_Congruence</title>
<polygon fill="#ffffff" stroke="transparent" points="-4,4 -4,-409 814,-409 814,4 -4,4"/>
<g id="clust1" class="cluster">
<title>cluster_Congruence</title>
<polygon fill="#ffffc3" stroke="#000000" points="8,-12.1348 8,-392.8652 802,-392.8652 802,-12.1348 8,-12.1348"/>
<text text-anchor="middle" x="60" y="-377.6652" font-family="Times,serif" font-size="14.00" fill="#000000">Congruence</text>
</g>
<!-- Congruence_iscong -->
<g id="node1" class="node">
<title>Congruence_iscong</title>
<g id="a_node1"><a xlink:href="Congruence.html#iscong" xlink:title="iscong">
<ellipse fill="#f070d1" stroke="#000000" cx="745" cy="-173.1348" rx="40.9015" ry="18"/>
<ellipse fill="none" stroke="#000000" cx="745" cy="-173.1348" rx="44.8972" ry="22"/>
<ellipse fill="none" stroke="#000000" cx="745" cy="-173.1348" rx="48.8928" ry="26"/>
<text text-anchor="middle" x="745" y="-169.4348" font-family="Times,serif" font-size="14.00" fill="#000000">iscong</text>
</a>
</g>
</g>
<!-- Congruence_IsCongruence -->
<g id="node7" class="node">
<title>Congruence_IsCongruence</title>
<g id="a_node7"><a xlink:href="Congruence.html#IsCongruence" xlink:title="IsCongruence">
<ellipse fill="#e2cdfa" stroke="#000000" cx="555" cy="-51.1348" rx="76.0865" ry="18"/>
<text text-anchor="middle" x="555" y="-47.4348" font-family="Times,serif" font-size="14.00" fill="#000000">IsCongruence</text>
</a>
</g>
</g>
<!-- Congruence_iscong&#45;&gt;Congruence_IsCongruence -->
<g id="edge1" class="edge">
<title>Congruence_iscong&#45;&gt;Congruence_IsCongruence</title>
<path fill="none" stroke="#000000" d="M713.6254,-152.989C679.6171,-131.1521 625.476,-96.3879 590.083,-73.6618"/>
<polygon fill="#000000" stroke="#000000" points="591.8182,-70.6166 581.5124,-68.1586 588.036,-76.5069 591.8182,-70.6166"/>
</g>
<!-- Congruence_IsCongruence_sind -->
<g id="node2" class="node">
<title>Congruence_IsCongruence_sind</title>
<g id="a_node2"><a xlink:href="Congruence.html#IsCongruence_sind" xlink:title="IsCongruence_sind">
<ellipse fill="#f070d1" stroke="#000000" cx="569" cy="-173.1348" rx="100.9649" ry="18"/>
<ellipse fill="none" stroke="#000000" cx="569" cy="-173.1348" rx="104.9738" ry="22"/>
<ellipse fill="none" stroke="#000000" cx="569" cy="-173.1348" rx="108.9827" ry="26"/>
<text text-anchor="middle" x="569" y="-169.4348" font-family="Times,serif" font-size="14.00" fill="#000000">IsCongruence_sind</text>
</a>
</g>
</g>
<!-- Congruence_Build_IsCongruence -->
<g id="node6" class="node">
<title>Congruence_Build_IsCongruence</title>
<g id="a_node6"><a xlink:href="Congruence.html#Build_IsCongruence" xlink:title="Build_IsCongruence">
<ellipse fill="#7faaff" stroke="#000000" cx="342" cy="-51.1348" rx="105.0817" ry="18"/>
<text text-anchor="middle" x="342" y="-47.4348" font-family="Times,serif" font-size="14.00" fill="#000000">Build_IsCongruence</text>
</a>
</g>
</g>
<!-- Congruence_IsCongruence_sind&#45;&gt;Congruence_Build_IsCongruence -->
<g id="edge2" class="edge">
<title>Congruence_IsCongruence_sind&#45;&gt;Congruence_Build_IsCongruence</title>
<path fill="none" stroke="#000000" d="M524.6932,-149.3224C483.6356,-127.2562 423.0437,-94.6914 383.0585,-73.2015"/>
<polygon fill="#000000" stroke="#000000" points="384.5741,-70.0426 374.1087,-68.3915 381.2602,-76.2086 384.5741,-70.0426"/>
</g>
<!-- Congruence_IsCongruence_sind&#45;&gt;Congruence_IsCongruence -->
<g id="edge3" class="edge">
<title>Congruence_IsCongruence_sind&#45;&gt;Congruence_IsCongruence</title>
<path fill="none" stroke="#000000" d="M565.9966,-146.9628C563.7115,-127.049 560.5717,-99.6881 558.232,-79.2992"/>
<polygon fill="#000000" stroke="#000000" points="561.7075,-78.8847 557.0901,-69.349 554.7531,-79.6828 561.7075,-78.8847"/>
</g>
<!-- Congruence_IsCongruence_rec -->
<g id="node3" class="node">
<title>Congruence_IsCongruence_rec</title>
<g id="a_node3"><a xlink:href="Congruence.html#IsCongruence_rec" xlink:title="IsCongruence_rec">
<ellipse fill="#f070d1" stroke="#000000" cx="342" cy="-306.1348" rx="96.3686" ry="18"/>
<ellipse fill="none" stroke="#000000" cx="342" cy="-306.1348" rx="100.3759" ry="22"/>
<ellipse fill="none" stroke="#000000" cx="342" cy="-306.1348" rx="104.3833" ry="26"/>
<text text-anchor="middle" x="342" y="-302.4348" font-family="Times,serif" font-size="14.00" fill="#000000">IsCongruence_rec</text>
</a>
</g>
</g>
<!-- Congruence_IsCongruence_rect -->
<g id="node5" class="node">
<title>Congruence_IsCongruence_rect</title>
<g id="a_node5"><a xlink:href="Congruence.html#IsCongruence_rect" xlink:title="IsCongruence_rect">
<ellipse fill="#f070d1" stroke="#000000" cx="342" cy="-173.1348" rx="100.1823" ry="18"/>
<text text-anchor="middle" x="342" y="-169.4348" font-family="Times,serif" font-size="14.00" fill="#000000">IsCongruence_rect</text>
</a>
</g>
</g>
<!-- Congruence_IsCongruence_rec&#45;&gt;Congruence_IsCongruence_rect -->
<g id="edge4" class="edge">
<title>Congruence_IsCongruence_rec&#45;&gt;Congruence_IsCongruence_rect</title>
<path fill="none" stroke="#000000" d="M342,-279.8583C342,-257.246 342,-224.6946 342,-201.4969"/>
<polygon fill="#000000" stroke="#000000" points="345.5001,-201.2557 342,-191.2557 338.5001,-201.2558 345.5001,-201.2557"/>
</g>
<!-- Congruence_IsCongruence_ind -->
<g id="node4" class="node">
<title>Congruence_IsCongruence_ind</title>
<g id="a_node4"><a xlink:href="Congruence.html#IsCongruence_ind" xlink:title="IsCongruence_ind">
<ellipse fill="#7fffd4" stroke="#000000" cx="120" cy="-173.1348" rx="95.5799" ry="18"/>
<ellipse fill="none" stroke="#000000" cx="120" cy="-173.1348" rx="99.5815" ry="22"/>
<ellipse fill="none" stroke="#000000" cx="120" cy="-173.1348" rx="103.5831" ry="26"/>
<text text-anchor="middle" x="120" y="-169.4348" font-family="Times,serif" font-size="14.00" fill="#000000">IsCongruence_ind</text>
</a>
</g>
</g>
<!-- Congruence_IsCongruence_ind&#45;&gt;Congruence_Build_IsCongruence -->
<g id="edge5" class="edge">
<title>Congruence_IsCongruence_ind&#45;&gt;Congruence_Build_IsCongruence</title>
<path fill="none" stroke="#000000" d="M163.0671,-149.4673C203.1065,-127.4637 262.3074,-94.9299 301.5007,-73.3912"/>
<polygon fill="#000000" stroke="#000000" points="303.4428,-76.3177 310.5209,-68.4341 300.0714,-70.183 303.4428,-76.3177"/>
</g>
<!-- Congruence_IsCongruence_ind&#45;&gt;Congruence_IsCongruence -->
<g id="edge6" class="edge">
<title>Congruence_IsCongruence_ind&#45;&gt;Congruence_IsCongruence</title>
<path fill="none" stroke="#000000" d="M189.408,-153.6687C274.1739,-129.8952 416.0904,-90.0934 495.8849,-67.7142"/>
<polygon fill="#000000" stroke="#000000" points="497.0897,-71.0115 505.773,-64.941 495.1994,-64.2715 497.0897,-71.0115"/>
</g>
<!-- Congruence_IsCongruence_rect&#45;&gt;Congruence_Build_IsCongruence -->
<g id="edge7" class="edge">
<title>Congruence_IsCongruence_rect&#45;&gt;Congruence_Build_IsCongruence</title>
<path fill="none" stroke="#000000" d="M342,-155.1333C342,-135.1307 342,-102.5775 342,-79.2179"/>
<polygon fill="#000000" stroke="#000000" points="345.5001,-79.2102 342,-69.2102 338.5001,-79.2102 345.5001,-79.2102"/>
</g>
<!-- Congruence_IsCongruence_rect&#45;&gt;Congruence_IsCongruence -->
<g id="edge8" class="edge">
<title>Congruence_IsCongruence_rect&#45;&gt;Congruence_IsCongruence</title>
<path fill="none" stroke="#000000" d="M372.0659,-155.914C410.0995,-134.1295 475.6211,-96.6007 517.0586,-72.8665"/>
<polygon fill="#000000" stroke="#000000" points="518.8329,-75.8838 525.7707,-67.8765 515.3537,-69.8096 518.8329,-75.8838"/>
</g>
</g>
</svg>
