<?xml version="1.0" encoding="UTF-8" standalone="no"?>
<!DOCTYPE svg PUBLIC "-//W3C//DTD SVG 1.1//EN"
 "http://www.w3.org/Graphics/SVG/1.1/DTD/svg11.dtd">
<!-- Generated by graphviz version 2.40.1 (20161225.0304)
 -->
<!-- Title: HoTT_Colimits_Quotient Pages: 1 -->
<svg width="2037pt" height="1023pt"
 viewBox="0.00 0.00 2037.00 1022.50" xmlns="http://www.w3.org/2000/svg" xmlns:xlink="http://www.w3.org/1999/xlink">
<g id="graph0" class="graph" transform="scale(1 1) rotate(0) translate(4 1018.5)">
<title>HoTT_Colimits_Quotient</title>
<polygon fill="#ffffff" stroke="transparent" points="-4,4 -4,-1018.5 2033,-1018.5 2033,4 -4,4"/>
<g id="clust1" class="cluster">
<title>cluster_Quotient</title>
<polygon fill="#ffffc3" stroke="#000000" points="8,-12.3156 8,-1002.1844 2021,-1002.1844 2021,-12.3156 8,-12.3156"/>
<text text-anchor="middle" x="48" y="-986.9844" font-family="Times,serif" font-size="14.00" fill="#000000">Quotient</text>
</g>
<!-- Quotient_quotient_kernel_factor -->
<g id="node1" class="node">
<title>Quotient_quotient_kernel_factor</title>
<g id="a_node1"><a xlink:href="Quotient.html#quotient_kernel_factor" xlink:title="quotient_kernel_factor">
<ellipse fill="#f070d1" stroke="#000000" cx="659" cy="-779.3156" rx="116.9799" ry="18"/>
<ellipse fill="none" stroke="#000000" cx="659" cy="-779.3156" rx="120.9796" ry="22"/>
<ellipse fill="none" stroke="#000000" cx="659" cy="-779.3156" rx="124.9792" ry="26"/>
<text text-anchor="middle" x="659" y="-775.6156" font-family="Times,serif" font-size="14.00" fill="#000000">quotient_kernel_factor</text>
</a>
</g>
</g>
<!-- Quotient_issurj_class_of -->
<g id="node10" class="node">
<title>Quotient_issurj_class_of</title>
<g id="a_node10"><a xlink:href="Quotient.html#issurj_class_of" xlink:title="issurj_class_of">
<ellipse fill="#f070d1" stroke="#000000" cx="1177" cy="-643.3156" rx="78.7863" ry="18"/>
<text text-anchor="middle" x="1177" y="-639.6156" font-family="Times,serif" font-size="14.00" fill="#000000">issurj_class_of</text>
</a>
</g>
</g>
<!-- Quotient_quotient_kernel_factor&#45;&gt;Quotient_issurj_class_of -->
<g id="edge1" class="edge">
<title>Quotient_quotient_kernel_factor&#45;&gt;Quotient_issurj_class_of</title>
<path fill="none" stroke="#000000" d="M740.0722,-759.5216C826.6939,-738.1521 967.9099,-702.68 1089,-669.3156 1098.8929,-666.5898 1109.3788,-663.5896 1119.5328,-660.6257"/>
<polygon fill="#000000" stroke="#000000" points="1120.5278,-663.9814 1129.1363,-657.8053 1118.5553,-657.265 1120.5278,-663.9814"/>
</g>
<!-- Quotient_ishset_quotient -->
<g id="node23" class="node">
<title>Quotient_ishset_quotient</title>
<g id="a_node23"><a xlink:href="Quotient.html#ishset_quotient" xlink:title="ishset_quotient">
<ellipse fill="#f070d1" stroke="#000000" cx="99" cy="-385.3156" rx="82.5854" ry="18"/>
<text text-anchor="middle" x="99" y="-381.6156" font-family="Times,serif" font-size="14.00" fill="#000000">ishset_quotient</text>
</a>
</g>
</g>
<!-- Quotient_quotient_kernel_factor&#45;&gt;Quotient_ishset_quotient -->
<g id="edge2" class="edge">
<title>Quotient_quotient_kernel_factor&#45;&gt;Quotient_ishset_quotient</title>
<path fill="none" stroke="#000000" d="M535.0419,-775.7686C370.9442,-768.1599 94.946,-744.2661 32,-669.3156 -21.4502,-605.6718 7.2615,-561.6596 32,-482.3156 40.4,-455.3743 59.1878,-429.3152 74.7368,-411.0036"/>
<polygon fill="#000000" stroke="#000000" points="77.6501,-412.9893 81.604,-403.1599 72.3834,-408.3782 77.6501,-412.9893"/>
</g>
<!-- Quotient_equiv_quotient_functor_ -->
<g id="node2" class="node">
<title>Quotient_equiv_quotient_functor_</title>
<g id="a_node2"><a xlink:href="Quotient.html#equiv_quotient_functor'" xlink:title="equiv_quotient_functor&#39;">
<ellipse fill="#f070d1" stroke="#000000" cx="1883" cy="-914.3156" rx="121.576" ry="18"/>
<ellipse fill="none" stroke="#000000" cx="1883" cy="-914.3156" rx="125.5772" ry="22"/>
<ellipse fill="none" stroke="#000000" cx="1883" cy="-914.3156" rx="129.5784" ry="26"/>
<text text-anchor="middle" x="1883" y="-910.6156" font-family="Times,serif" font-size="14.00" fill="#000000">equiv_quotient_functor&#39;</text>
</a>
</g>
</g>
<!-- Quotient_equiv_quotient_functor -->
<g id="node3" class="node">
<title>Quotient_equiv_quotient_functor</title>
<g id="a_node3"><a xlink:href="Quotient.html#equiv_quotient_functor" xlink:title="equiv_quotient_functor">
<ellipse fill="#f070d1" stroke="#000000" cx="1883" cy="-779.3156" rx="118.8789" ry="18"/>
<text text-anchor="middle" x="1883" y="-775.6156" font-family="Times,serif" font-size="14.00" fill="#000000">equiv_quotient_functor</text>
</a>
</g>
</g>
<!-- Quotient_equiv_quotient_functor_&#45;&gt;Quotient_equiv_quotient_functor -->
<g id="edge3" class="edge">
<title>Quotient_equiv_quotient_functor_&#45;&gt;Quotient_equiv_quotient_functor</title>
<path fill="none" stroke="#000000" d="M1883,-888.2863C1883,-865.1638 1883,-831.4412 1883,-807.6472"/>
<polygon fill="#000000" stroke="#000000" points="1886.5001,-807.4872 1883,-797.4873 1879.5001,-807.4873 1886.5001,-807.4872"/>
</g>
<!-- Quotient_isequiv_quotient_functor -->
<g id="node4" class="node">
<title>Quotient_isequiv_quotient_functor</title>
<g id="a_node4"><a xlink:href="Quotient.html#isequiv_quotient_functor" xlink:title="isequiv_quotient_functor">
<ellipse fill="#f070d1" stroke="#000000" cx="1884" cy="-643.3156" rx="126.978" ry="18"/>
<text text-anchor="middle" x="1884" y="-639.6156" font-family="Times,serif" font-size="14.00" fill="#000000">isequiv_quotient_functor</text>
</a>
</g>
</g>
<!-- Quotient_equiv_quotient_functor&#45;&gt;Quotient_isequiv_quotient_functor -->
<g id="edge4" class="edge">
<title>Quotient_equiv_quotient_functor&#45;&gt;Quotient_isequiv_quotient_functor</title>
<path fill="none" stroke="#000000" d="M1883.1328,-761.2559C1883.3009,-738.3939 1883.5924,-698.747 1883.7906,-671.7917"/>
<polygon fill="#000000" stroke="#000000" points="1887.2929,-671.4756 1883.8667,-661.4501 1880.2931,-671.424 1887.2929,-671.4756"/>
</g>
<!-- Quotient_isequiv_quotient_functor_subproof -->
<g id="node5" class="node">
<title>Quotient_isequiv_quotient_functor_subproof</title>
<g id="a_node5"><a xlink:href="Quotient.html#isequiv_quotient_functor_subproof" xlink:title="isequiv_quotient_functor_subproof">
<ellipse fill="#f070d1" stroke="#000000" cx="1594" cy="-508.3156" rx="172.7694" ry="18"/>
<text text-anchor="middle" x="1594" y="-504.6156" font-family="Times,serif" font-size="14.00" fill="#000000">isequiv_quotient_functor_subproof</text>
</a>
</g>
</g>
<!-- Quotient_isequiv_quotient_functor&#45;&gt;Quotient_isequiv_quotient_functor_subproof -->
<g id="edge5" class="edge">
<title>Quotient_isequiv_quotient_functor&#45;&gt;Quotient_isequiv_quotient_functor_subproof</title>
<path fill="none" stroke="#000000" d="M1846.9767,-626.0807C1794.6157,-601.7057 1698.9166,-557.1561 1641.4175,-530.3893"/>
<polygon fill="#000000" stroke="#000000" points="1642.7268,-527.1382 1632.1838,-526.0909 1639.7725,-533.4842 1642.7268,-527.1382"/>
</g>
<!-- Quotient_Quotient_functor -->
<g id="node8" class="node">
<title>Quotient_Quotient_functor</title>
<g id="a_node8"><a xlink:href="Quotient.html#Quotient_functor" xlink:title="Quotient_functor">
<ellipse fill="#f070d1" stroke="#000000" cx="167" cy="-508.3156" rx="90.9839" ry="18"/>
<text text-anchor="middle" x="167" y="-504.6156" font-family="Times,serif" font-size="14.00" fill="#000000">Quotient_functor</text>
</a>
</g>
</g>
<!-- Quotient_isequiv_quotient_functor&#45;&gt;Quotient_Quotient_functor -->
<g id="edge6" class="edge">
<title>Quotient_isequiv_quotient_functor&#45;&gt;Quotient_Quotient_functor</title>
<path fill="none" stroke="#000000" d="M1814.3937,-628.1759C1793.1708,-624.0557 1769.7104,-619.9957 1748,-617.3156 1102.5192,-537.6345 931.4576,-621.8886 287,-534.3156 269.5194,-531.9403 250.8002,-528.3835 233.47,-524.6575"/>
<polygon fill="#000000" stroke="#000000" points="233.9651,-521.1828 223.4466,-522.4517 232.4606,-528.0192 233.9651,-521.1828"/>
</g>
<!-- Quotient_Quotient_ind -->
<g id="node22" class="node">
<title>Quotient_Quotient_ind</title>
<g id="a_node22"><a xlink:href="Quotient.html#Quotient_ind" xlink:title="Quotient_ind">
<ellipse fill="#f070d1" stroke="#000000" cx="1047" cy="-385.3156" rx="71.4873" ry="18"/>
<text text-anchor="middle" x="1047" y="-381.6156" font-family="Times,serif" font-size="14.00" fill="#000000">Quotient_ind</text>
</a>
</g>
</g>
<!-- Quotient_isequiv_quotient_functor&#45;&gt;Quotient_Quotient_ind -->
<g id="edge7" class="edge">
<title>Quotient_isequiv_quotient_functor&#45;&gt;Quotient_Quotient_ind</title>
<path fill="none" stroke="#000000" d="M1811.853,-628.5065C1683.4423,-601.8913 1427.1876,-547.5101 1412,-534.3156 1393.3074,-518.0761 1410.3048,-498.9911 1392,-482.3156 1351.6984,-445.6013 1204.9017,-413.6972 1116.2994,-397.2225"/>
<polygon fill="#000000" stroke="#000000" points="1116.7924,-393.7546 1106.3241,-395.3871 1115.5256,-400.639 1116.7924,-393.7546"/>
</g>
<!-- Quotient_Quotient_functor_compose -->
<g id="node6" class="node">
<title>Quotient_Quotient_functor_compose</title>
<g id="a_node6"><a xlink:href="Quotient.html#Quotient_functor_compose" xlink:title="Quotient_functor_compose">
<ellipse fill="#f070d1" stroke="#000000" cx="409" cy="-643.3156" rx="136.4765" ry="18"/>
<ellipse fill="none" stroke="#000000" cx="409" cy="-643.3156" rx="140.4761" ry="22"/>
<ellipse fill="none" stroke="#000000" cx="409" cy="-643.3156" rx="144.4758" ry="26"/>
<text text-anchor="middle" x="409" y="-639.6156" font-family="Times,serif" font-size="14.00" fill="#000000">Quotient_functor_compose</text>
</a>
</g>
</g>
<!-- Quotient_Quotient_functor_compose&#45;&gt;Quotient_Quotient_functor -->
<g id="edge8" class="edge">
<title>Quotient_Quotient_functor_compose&#45;&gt;Quotient_Quotient_functor</title>
<path fill="none" stroke="#000000" d="M364.6135,-618.5545C319.3898,-593.3265 249.9105,-554.5674 206.5273,-530.366"/>
<polygon fill="#000000" stroke="#000000" points="208.1222,-527.248 197.684,-525.4327 204.7119,-533.3611 208.1222,-527.248"/>
</g>
<!-- Quotient_Quotient_ind_hprop -->
<g id="node17" class="node">
<title>Quotient_Quotient_ind_hprop</title>
<g id="a_node17"><a xlink:href="Quotient.html#Quotient_ind_hprop" xlink:title="Quotient_ind_hprop">
<ellipse fill="#f070d1" stroke="#000000" cx="878" cy="-508.3156" rx="103.1819" ry="18"/>
<text text-anchor="middle" x="878" y="-504.6156" font-family="Times,serif" font-size="14.00" fill="#000000">Quotient_ind_hprop</text>
</a>
</g>
</g>
<!-- Quotient_Quotient_functor_compose&#45;&gt;Quotient_Quotient_ind_hprop -->
<g id="edge9" class="edge">
<title>Quotient_Quotient_functor_compose&#45;&gt;Quotient_Quotient_ind_hprop</title>
<path fill="none" stroke="#000000" d="M485.6585,-621.2497C577.3448,-594.8582 729.1178,-551.1708 814.5301,-526.5852"/>
<polygon fill="#000000" stroke="#000000" points="815.7139,-529.8867 824.3555,-523.757 813.7775,-523.1598 815.7139,-529.8867"/>
</g>
<!-- Quotient_Quotient_functor_idmap -->
<g id="node7" class="node">
<title>Quotient_Quotient_functor_idmap</title>
<g id="a_node7"><a xlink:href="Quotient.html#Quotient_functor_idmap" xlink:title="Quotient_functor_idmap">
<ellipse fill="#f070d1" stroke="#000000" cx="704" cy="-643.3156" rx="124.2697" ry="18"/>
<ellipse fill="none" stroke="#000000" cx="704" cy="-643.3156" rx="128.2739" ry="22"/>
<ellipse fill="none" stroke="#000000" cx="704" cy="-643.3156" rx="132.2781" ry="26"/>
<text text-anchor="middle" x="704" y="-639.6156" font-family="Times,serif" font-size="14.00" fill="#000000">Quotient_functor_idmap</text>
</a>
</g>
</g>
<!-- Quotient_Quotient_functor_idmap&#45;&gt;Quotient_Quotient_functor -->
<g id="edge10" class="edge">
<title>Quotient_Quotient_functor_idmap&#45;&gt;Quotient_Quotient_functor</title>
<path fill="none" stroke="#000000" d="M622.4413,-622.812C515.9253,-596.0343 331.4868,-549.6671 233.178,-524.9526"/>
<polygon fill="#000000" stroke="#000000" points="233.9122,-521.5283 223.3606,-522.4845 232.2055,-528.3171 233.9122,-521.5283"/>
</g>
<!-- Quotient_Quotient_functor_idmap&#45;&gt;Quotient_Quotient_ind_hprop -->
<g id="edge11" class="edge">
<title>Quotient_Quotient_functor_idmap&#45;&gt;Quotient_Quotient_ind_hprop</title>
<path fill="none" stroke="#000000" d="M736.7281,-617.9232C768.3126,-593.4179 815.7864,-556.5848 846.8337,-532.4964"/>
<polygon fill="#000000" stroke="#000000" points="849.3728,-534.9563 855.1282,-526.061 845.0818,-529.4257 849.3728,-534.9563"/>
</g>
<!-- Quotient_Quotient_rec -->
<g id="node20" class="node">
<title>Quotient_Quotient_rec</title>
<g id="a_node20"><a xlink:href="Quotient.html#Quotient_rec" xlink:title="Quotient_rec">
<ellipse fill="#f070d1" stroke="#000000" cx="329" cy="-385.3156" rx="71.4873" ry="18"/>
<text text-anchor="middle" x="329" y="-381.6156" font-family="Times,serif" font-size="14.00" fill="#000000">Quotient_rec</text>
</a>
</g>
</g>
<!-- Quotient_Quotient_functor&#45;&gt;Quotient_Quotient_rec -->
<g id="edge12" class="edge">
<title>Quotient_Quotient_functor&#45;&gt;Quotient_Quotient_rec</title>
<path fill="none" stroke="#000000" d="M190.2107,-490.6927C218.6412,-469.1066 266.8912,-432.4723 298.3496,-408.5872"/>
<polygon fill="#000000" stroke="#000000" points="300.5067,-411.344 306.3547,-402.5093 296.2737,-405.7688 300.5067,-411.344"/>
</g>
<!-- Quotient_Quotient_functor&#45;&gt;Quotient_ishset_quotient -->
<g id="edge13" class="edge">
<title>Quotient_Quotient_functor&#45;&gt;Quotient_ishset_quotient</title>
<path fill="none" stroke="#000000" d="M156.9664,-490.1666C145.6165,-469.6366 127.0168,-435.9931 113.9542,-412.365"/>
<polygon fill="#000000" stroke="#000000" points="116.9762,-410.5974 109.0748,-403.5392 110.8501,-413.9842 116.9762,-410.5974"/>
</g>
<!-- Quotient_qglue -->
<g id="node24" class="node">
<title>Quotient_qglue</title>
<g id="a_node24"><a xlink:href="Quotient.html#qglue" xlink:title="qglue">
<ellipse fill="#f070d1" stroke="#000000" cx="418" cy="-274.3156" rx="36.2938" ry="18"/>
<text text-anchor="middle" x="418" y="-270.6156" font-family="Times,serif" font-size="14.00" fill="#000000">qglue</text>
</a>
</g>
</g>
<!-- Quotient_Quotient_functor&#45;&gt;Quotient_qglue -->
<g id="edge14" class="edge">
<title>Quotient_Quotient_functor&#45;&gt;Quotient_qglue</title>
<path fill="none" stroke="#000000" d="M173.7748,-490.241C185.3874,-461.2534 211.5202,-403.9183 249,-367.3156 286.7195,-330.4789 341.9597,-303.7778 378.9064,-288.6772"/>
<polygon fill="#000000" stroke="#000000" points="380.358,-291.8663 388.3474,-284.9079 377.7624,-285.3653 380.358,-291.8663"/>
</g>
<!-- Quotient_equiv_quotient_ump -->
<g id="node9" class="node">
<title>Quotient_equiv_quotient_ump</title>
<g id="a_node9"><a xlink:href="Quotient.html#equiv_quotient_ump" xlink:title="equiv_quotient_ump">
<ellipse fill="#f070d1" stroke="#000000" cx="967" cy="-643.3156" rx="105.0965" ry="18"/>
<ellipse fill="none" stroke="#000000" cx="967" cy="-643.3156" rx="109.0891" ry="22"/>
<ellipse fill="none" stroke="#000000" cx="967" cy="-643.3156" rx="113.0817" ry="26"/>
<text text-anchor="middle" x="967" y="-639.6156" font-family="Times,serif" font-size="14.00" fill="#000000">equiv_quotient_ump</text>
</a>
</g>
</g>
<!-- Quotient_equiv_quotient_ump&#45;&gt;Quotient_Quotient_ind_hprop -->
<g id="edge15" class="edge">
<title>Quotient_equiv_quotient_ump&#45;&gt;Quotient_Quotient_ind_hprop</title>
<path fill="none" stroke="#000000" d="M950.0503,-617.6054C934.4873,-593.9986 911.5123,-559.1489 895.7127,-535.1832"/>
<polygon fill="#000000" stroke="#000000" points="898.4654,-532.9997 890.0391,-526.5772 892.6211,-536.8526 898.4654,-532.9997"/>
</g>
<!-- Quotient_equiv_quotient_ump&#45;&gt;Quotient_Quotient_rec -->
<g id="edge16" class="edge">
<title>Quotient_equiv_quotient_ump&#45;&gt;Quotient_Quotient_rec</title>
<path fill="none" stroke="#000000" d="M885.4363,-625.1986C871.9562,-622.4158 858.1062,-619.6846 845,-617.3156 721.6347,-595.0175 368.8655,-629.259 287,-534.3156 256.8403,-499.338 286.0959,-444.18 308.5899,-411.6952"/>
<polygon fill="#000000" stroke="#000000" points="311.7195,-413.3366 314.7001,-403.1697 306.0299,-409.2589 311.7195,-413.3366"/>
</g>
<!-- Quotient_issurj_class_of&#45;&gt;Quotient_Quotient_ind_hprop -->
<g id="edge17" class="edge">
<title>Quotient_issurj_class_of&#45;&gt;Quotient_Quotient_ind_hprop</title>
<path fill="none" stroke="#000000" d="M1141.2306,-627.1656C1087.0843,-602.7182 984.2957,-556.3087 924.4407,-529.2838"/>
<polygon fill="#000000" stroke="#000000" points="925.7713,-526.0444 915.2169,-525.1193 922.8907,-532.4243 925.7713,-526.0444"/>
</g>
<!-- Quotient_Quotient_ind_hprop_ -->
<g id="node11" class="node">
<title>Quotient_Quotient_ind_hprop_</title>
<g id="a_node11"><a xlink:href="Quotient.html#Quotient_ind_hprop'" xlink:title="Quotient_ind_hprop&#39;">
<ellipse fill="#f070d1" stroke="#000000" cx="1899" cy="-508.3156" rx="105.8854" ry="18"/>
<ellipse fill="none" stroke="#000000" cx="1899" cy="-508.3156" rx="109.8833" ry="22"/>
<ellipse fill="none" stroke="#000000" cx="1899" cy="-508.3156" rx="113.8812" ry="26"/>
<text text-anchor="middle" x="1899" y="-504.6156" font-family="Times,serif" font-size="14.00" fill="#000000">Quotient_ind_hprop&#39;</text>
</a>
</g>
</g>
<!-- Quotient_Quotient_ind_hprop_&#45;&gt;Quotient_Quotient_ind -->
<g id="edge18" class="edge">
<title>Quotient_Quotient_ind_hprop_&#45;&gt;Quotient_Quotient_ind</title>
<path fill="none" stroke="#000000" d="M1817.1255,-490.1032C1803.4275,-487.3166 1789.3364,-484.609 1776,-482.3156 1539.0058,-441.5611 1256.1408,-408.2701 1123.1805,-393.5201"/>
<polygon fill="#000000" stroke="#000000" points="1123.4216,-390.0255 1113.0975,-392.4053 1122.6523,-396.9831 1123.4216,-390.0255"/>
</g>
<!-- Quotient_Quotient_rec2 -->
<g id="node12" class="node">
<title>Quotient_Quotient_rec2</title>
<g id="a_node12"><a xlink:href="Quotient.html#Quotient_rec2" xlink:title="Quotient_rec2">
<ellipse fill="#f070d1" stroke="#000000" cx="671" cy="-508.3156" rx="77.2012" ry="18"/>
<ellipse fill="none" stroke="#000000" cx="671" cy="-508.3156" rx="81.1939" ry="22"/>
<ellipse fill="none" stroke="#000000" cx="671" cy="-508.3156" rx="85.1866" ry="26"/>
<text text-anchor="middle" x="671" y="-504.6156" font-family="Times,serif" font-size="14.00" fill="#000000">Quotient_rec2</text>
</a>
</g>
</g>
<!-- Quotient_Quotient_rec2&#45;&gt;Quotient_Quotient_rec -->
<g id="edge19" class="edge">
<title>Quotient_Quotient_rec2&#45;&gt;Quotient_Quotient_rec</title>
<path fill="none" stroke="#000000" d="M615.6717,-488.4169C550.4418,-464.957 442.9372,-426.2931 379.7608,-403.5717"/>
<polygon fill="#000000" stroke="#000000" points="380.6097,-400.1576 370.0152,-400.0667 378.2406,-406.7445 380.6097,-400.1576"/>
</g>
<!-- Quotient_Quotient_rec2&#45;&gt;Quotient_Quotient_ind -->
<g id="edge20" class="edge">
<title>Quotient_Quotient_rec2&#45;&gt;Quotient_Quotient_ind</title>
<path fill="none" stroke="#000000" d="M729.3375,-489.2318C801.4909,-465.6285 923.3259,-425.7729 993.2796,-402.889"/>
<polygon fill="#000000" stroke="#000000" points="994.796,-406.0756 1003.2122,-399.6398 992.6195,-399.4225 994.796,-406.0756"/>
</g>
<!-- Quotient_path_quotient -->
<g id="node13" class="node">
<title>Quotient_path_quotient</title>
<g id="a_node13"><a xlink:href="Quotient.html#path_quotient" xlink:title="path_quotient">
<ellipse fill="#f070d1" stroke="#000000" cx="1253" cy="-779.3156" rx="75.297" ry="18"/>
<ellipse fill="none" stroke="#000000" cx="1253" cy="-779.3156" rx="79.2919" ry="22"/>
<ellipse fill="none" stroke="#000000" cx="1253" cy="-779.3156" rx="83.2868" ry="26"/>
<text text-anchor="middle" x="1253" y="-775.6156" font-family="Times,serif" font-size="14.00" fill="#000000">path_quotient</text>
</a>
</g>
</g>
<!-- Quotient_related_quotient_paths -->
<g id="node14" class="node">
<title>Quotient_related_quotient_paths</title>
<g id="a_node14"><a xlink:href="Quotient.html#related_quotient_paths" xlink:title="related_quotient_paths">
<ellipse fill="#f070d1" stroke="#000000" cx="1621" cy="-643.3156" rx="118.0794" ry="18"/>
<text text-anchor="middle" x="1621" y="-639.6156" font-family="Times,serif" font-size="14.00" fill="#000000">related_quotient_paths</text>
</a>
</g>
</g>
<!-- Quotient_path_quotient&#45;&gt;Quotient_related_quotient_paths -->
<g id="edge21" class="edge">
<title>Quotient_path_quotient&#45;&gt;Quotient_related_quotient_paths</title>
<path fill="none" stroke="#000000" d="M1306.9045,-759.3944C1376.4042,-733.7097 1496.603,-689.2885 1566.4264,-663.4841"/>
<polygon fill="#000000" stroke="#000000" points="1567.7672,-666.72 1575.9339,-659.9705 1565.3407,-660.1541 1567.7672,-666.72"/>
</g>
<!-- Quotient_path_quotient&#45;&gt;Quotient_ishset_quotient -->
<g id="edge22" class="edge">
<title>Quotient_path_quotient&#45;&gt;Quotient_ishset_quotient</title>
<path fill="none" stroke="#000000" d="M1170.7287,-774.8369C905.0513,-759.9829 84.9852,-710.9232 47,-669.3156 32.0185,-652.9054 35.5203,-573.9363 58,-482.3156 64.0376,-457.7081 75.5538,-431.3162 84.8475,-412.2835"/>
<polygon fill="#000000" stroke="#000000" points="87.9918,-413.821 89.3306,-403.311 81.73,-410.6922 87.9918,-413.821"/>
</g>
<!-- Quotient_in_class -->
<g id="node18" class="node">
<title>Quotient_in_class</title>
<g id="a_node18"><a xlink:href="Quotient.html#in_class" xlink:title="in_class">
<ellipse fill="#f070d1" stroke="#000000" cx="1047" cy="-508.3156" rx="48.1917" ry="18"/>
<text text-anchor="middle" x="1047" y="-504.6156" font-family="Times,serif" font-size="14.00" fill="#000000">in_class</text>
</a>
</g>
</g>
<!-- Quotient_related_quotient_paths&#45;&gt;Quotient_in_class -->
<g id="edge23" class="edge">
<title>Quotient_related_quotient_paths&#45;&gt;Quotient_in_class</title>
<path fill="none" stroke="#000000" d="M1550.2816,-628.835C1413.7229,-600.8131 1125.2255,-541.2994 1104,-534.3156 1097.83,-532.2855 1091.4368,-529.7877 1085.2603,-527.1509"/>
<polygon fill="#000000" stroke="#000000" points="1086.3552,-523.8073 1075.7959,-522.9401 1083.5097,-530.2029 1086.3552,-523.8073"/>
</g>
<!-- Quotient_path_in_class_of -->
<g id="node15" class="node">
<title>Quotient_path_in_class_of</title>
<g id="a_node15"><a xlink:href="Quotient.html#path_in_class_of" xlink:title="path_in_class_of">
<ellipse fill="#f070d1" stroke="#000000" cx="151" cy="-643.3156" rx="87.1769" ry="18"/>
<ellipse fill="none" stroke="#000000" cx="151" cy="-643.3156" rx="91.1807" ry="22"/>
<ellipse fill="none" stroke="#000000" cx="151" cy="-643.3156" rx="95.1846" ry="26"/>
<text text-anchor="middle" x="151" y="-639.6156" font-family="Times,serif" font-size="14.00" fill="#000000">path_in_class_of</text>
</a>
</g>
</g>
<!-- Quotient_path_in_class_of&#45;&gt;Quotient_in_class -->
<g id="edge24" class="edge">
<title>Quotient_path_in_class_of&#45;&gt;Quotient_in_class</title>
<path fill="none" stroke="#000000" d="M219.0658,-625.0957C231.3027,-622.211 243.9853,-619.473 256,-617.3156 579.1333,-559.2932 673.6168,-621.9708 990,-534.3156 996.6199,-532.4815 1003.4427,-529.97 1009.9654,-527.2268"/>
<polygon fill="#000000" stroke="#000000" points="1011.5364,-530.3587 1019.2485,-523.094 1008.6894,-523.9638 1011.5364,-530.3587"/>
</g>
<!-- Quotient_path_in_class_of&#45;&gt;Quotient_ishset_quotient -->
<g id="edge25" class="edge">
<title>Quotient_path_in_class_of&#45;&gt;Quotient_ishset_quotient</title>
<path fill="none" stroke="#000000" d="M123.6177,-618.1041C103.6345,-597.7212 78.1694,-567.1074 67,-534.3156 52.9133,-492.9592 70.3137,-442.9611 84.4416,-412.6767"/>
<polygon fill="#000000" stroke="#000000" points="87.6431,-414.0964 88.8696,-403.5728 81.3482,-411.0347 87.6431,-414.0964"/>
</g>
<!-- Quotient_decidable_in_class -->
<g id="node16" class="node">
<title>Quotient_decidable_in_class</title>
<g id="a_node16"><a xlink:href="Quotient.html#decidable_in_class" xlink:title="decidable_in_class">
<ellipse fill="#f070d1" stroke="#000000" cx="1379" cy="-643.3156" rx="97.4834" ry="18"/>
<ellipse fill="none" stroke="#000000" cx="1379" cy="-643.3156" rx="101.483" ry="22"/>
<ellipse fill="none" stroke="#000000" cx="1379" cy="-643.3156" rx="105.4827" ry="26"/>
<text text-anchor="middle" x="1379" y="-639.6156" font-family="Times,serif" font-size="14.00" fill="#000000">decidable_in_class</text>
</a>
</g>
</g>
<!-- Quotient_decidable_in_class&#45;&gt;Quotient_Quotient_ind_hprop -->
<g id="edge26" class="edge">
<title>Quotient_decidable_in_class&#45;&gt;Quotient_Quotient_ind_hprop</title>
<path fill="none" stroke="#000000" d="M1307.751,-624.1168C1210.6898,-597.9626 1038.2305,-551.4915 943.9863,-526.0964"/>
<polygon fill="#000000" stroke="#000000" points="944.8475,-522.7037 934.2813,-523.4812 943.0262,-529.4626 944.8475,-522.7037"/>
</g>
<!-- Quotient_decidable_in_class&#45;&gt;Quotient_in_class -->
<g id="edge27" class="edge">
<title>Quotient_decidable_in_class&#45;&gt;Quotient_in_class</title>
<path fill="none" stroke="#000000" d="M1321.5098,-621.5024C1265.6338,-600.073 1178.5357,-566.0626 1104,-534.3156 1098.4228,-531.9401 1092.5723,-529.3666 1086.8319,-526.7939"/>
<polygon fill="#000000" stroke="#000000" points="1087.8964,-523.434 1077.3428,-522.5 1085.0105,-529.8114 1087.8964,-523.434"/>
</g>
<!-- Quotient_Quotient_ind_hprop&#45;&gt;Quotient_Quotient_ind -->
<g id="edge28" class="edge">
<title>Quotient_Quotient_ind_hprop&#45;&gt;Quotient_Quotient_ind</title>
<path fill="none" stroke="#000000" d="M902.2136,-490.6927C931.8726,-469.1066 982.2075,-432.4723 1015.0252,-408.5872"/>
<polygon fill="#000000" stroke="#000000" points="1017.3505,-411.2237 1023.3762,-402.5093 1013.2313,-405.564 1017.3505,-411.2237"/>
</g>
<!-- Quotient_in_class&#45;&gt;Quotient_Quotient_ind -->
<g id="edge29" class="edge">
<title>Quotient_in_class&#45;&gt;Quotient_Quotient_ind</title>
<path fill="none" stroke="#000000" d="M1047,-490.1666C1047,-470 1047,-437.18 1047,-413.6289"/>
<polygon fill="#000000" stroke="#000000" points="1050.5001,-413.5391 1047,-403.5392 1043.5001,-413.5392 1050.5001,-413.5391"/>
</g>
<!-- Quotient_Quotient_rec_beta_qglue -->
<g id="node19" class="node">
<title>Quotient_Quotient_rec_beta_qglue</title>
<g id="a_node19"><a xlink:href="Quotient.html#Quotient_rec_beta_qglue" xlink:title="Quotient_rec_beta_qglue">
<ellipse fill="#f070d1" stroke="#000000" cx="432" cy="-508.3156" rx="128.075" ry="18"/>
<ellipse fill="none" stroke="#000000" cx="432" cy="-508.3156" rx="132.0762" ry="22"/>
<ellipse fill="none" stroke="#000000" cx="432" cy="-508.3156" rx="136.0773" ry="26"/>
<text text-anchor="middle" x="432" y="-504.6156" font-family="Times,serif" font-size="14.00" fill="#000000">Quotient_rec_beta_qglue</text>
</a>
</g>
</g>
<!-- Quotient_Quotient_rec_beta_qglue&#45;&gt;Quotient_Quotient_rec -->
<g id="edge30" class="edge">
<title>Quotient_Quotient_rec_beta_qglue&#45;&gt;Quotient_Quotient_rec</title>
<path fill="none" stroke="#000000" d="M410.4078,-482.5308C392.8057,-461.5108 368.0704,-431.9725 350.4947,-410.984"/>
<polygon fill="#000000" stroke="#000000" points="353.0111,-408.5375 343.9074,-403.1177 347.6443,-413.0317 353.0111,-408.5375"/>
</g>
<!-- Quotient_Quotient_rec_beta_qglue&#45;&gt;Quotient_qglue -->
<g id="edge31" class="edge">
<title>Quotient_Quotient_rec_beta_qglue&#45;&gt;Quotient_qglue</title>
<path fill="none" stroke="#000000" d="M430.4212,-481.9277C427.7665,-437.5554 422.4313,-348.3809 419.6983,-302.7022"/>
<polygon fill="#000000" stroke="#000000" points="423.185,-302.3734 419.094,-292.6003 416.1975,-302.7915 423.185,-302.3734"/>
</g>
<!-- Quotient_Quotient -->
<g id="node26" class="node">
<title>Quotient_Quotient</title>
<g id="a_node26"><a xlink:href="Quotient.html#Quotient" xlink:title="Quotient">
<ellipse fill="#f070d1" stroke="#000000" cx="329" cy="-52.3156" rx="51.9908" ry="18"/>
<text text-anchor="middle" x="329" y="-48.6156" font-family="Times,serif" font-size="14.00" fill="#000000">Quotient</text>
</a>
</g>
</g>
<!-- Quotient_Quotient_rec&#45;&gt;Quotient_Quotient -->
<g id="edge32" class="edge">
<title>Quotient_Quotient_rec&#45;&gt;Quotient_Quotient</title>
<path fill="none" stroke="#000000" d="M329,-366.9378C329,-311.7877 329,-147.4172 329,-80.8152"/>
<polygon fill="#000000" stroke="#000000" points="332.5001,-80.6367 329,-70.6367 325.5001,-80.6367 332.5001,-80.6367"/>
</g>
<!-- Quotient_Quotient_ind_beta_qglue -->
<g id="node21" class="node">
<title>Quotient_Quotient_ind_beta_qglue</title>
<g id="a_node21"><a xlink:href="Quotient.html#Quotient_ind_beta_qglue" xlink:title="Quotient_ind_beta_qglue">
<ellipse fill="#f070d1" stroke="#000000" cx="1248" cy="-508.3156" rx="127.2841" ry="18"/>
<ellipse fill="none" stroke="#000000" cx="1248" cy="-508.3156" rx="131.2808" ry="22"/>
<ellipse fill="none" stroke="#000000" cx="1248" cy="-508.3156" rx="135.2775" ry="26"/>
<text text-anchor="middle" x="1248" y="-504.6156" font-family="Times,serif" font-size="14.00" fill="#000000">Quotient_ind_beta_qglue</text>
</a>
</g>
</g>
<!-- Quotient_Quotient_ind_beta_qglue&#45;&gt;Quotient_Quotient_ind -->
<g id="edge33" class="edge">
<title>Quotient_Quotient_ind_beta_qglue&#45;&gt;Quotient_Quotient_ind</title>
<path fill="none" stroke="#000000" d="M1207.3247,-483.4247C1170.9953,-461.1933 1118.2677,-428.9272 1083.3282,-407.5463"/>
<polygon fill="#000000" stroke="#000000" points="1084.7685,-404.3244 1074.4119,-402.0901 1081.1147,-410.2952 1084.7685,-404.3244"/>
</g>
<!-- Quotient_Quotient_ind&#45;&gt;Quotient_qglue -->
<g id="edge34" class="edge">
<title>Quotient_Quotient_ind&#45;&gt;Quotient_qglue</title>
<path fill="none" stroke="#000000" d="M988.39,-374.9727C863.4372,-352.9222 573.2176,-301.707 462.2412,-282.1229"/>
<polygon fill="#000000" stroke="#000000" points="462.8383,-278.6743 452.3822,-280.3831 461.6218,-285.5678 462.8383,-278.6743"/>
</g>
<!-- Quotient_ishset_quotient&#45;&gt;Quotient_Quotient -->
<g id="edge35" class="edge">
<title>Quotient_ishset_quotient&#45;&gt;Quotient_Quotient</title>
<path fill="none" stroke="#000000" d="M111.3658,-367.4121C149.5965,-312.0607 266.0122,-143.511 310.9946,-78.3843"/>
<polygon fill="#000000" stroke="#000000" points="314.0489,-80.1208 316.8522,-69.9035 308.2892,-76.1426 314.0489,-80.1208"/>
</g>
<!-- Quotient_class_of -->
<g id="node25" class="node">
<title>Quotient_class_of</title>
<g id="a_node25"><a xlink:href="Quotient.html#class_of" xlink:title="class_of">
<ellipse fill="#f070d1" stroke="#000000" cx="411" cy="-163.3156" rx="48.1917" ry="18"/>
<text text-anchor="middle" x="411" y="-159.6156" font-family="Times,serif" font-size="14.00" fill="#000000">class_of</text>
</a>
</g>
</g>
<!-- Quotient_qglue&#45;&gt;Quotient_class_of -->
<g id="edge36" class="edge">
<title>Quotient_qglue&#45;&gt;Quotient_class_of</title>
<path fill="none" stroke="#000000" d="M416.8441,-255.9862C415.7447,-238.5529 414.0742,-212.0638 412.8004,-191.8645"/>
<polygon fill="#000000" stroke="#000000" points="416.2802,-191.4321 412.1576,-181.6723 409.294,-191.8727 416.2802,-191.4321"/>
</g>
<!-- Quotient_class_of&#45;&gt;Quotient_Quotient -->
<g id="edge37" class="edge">
<title>Quotient_class_of&#45;&gt;Quotient_Quotient</title>
<path fill="none" stroke="#000000" d="M397.8253,-145.4816C384.3762,-127.2761 363.3638,-98.8325 348.0924,-78.1603"/>
<polygon fill="#000000" stroke="#000000" points="350.8991,-76.0691 342.142,-70.1054 345.2688,-80.2284 350.8991,-76.0691"/>
</g>
</g>
</svg>
