<?xml version="1.0" encoding="UTF-8" standalone="no"?>
<!DOCTYPE svg PUBLIC "-//W3C//DTD SVG 1.1//EN"
 "http://www.w3.org/Graphics/SVG/1.1/DTD/svg11.dtd">
<!-- Generated by graphviz version 2.40.1 (20161225.0304)
 -->
<!-- Title: HoTT_Spaces_BAut Pages: 1 -->
<svg width="1636pt" height="822pt"
 viewBox="0.00 0.00 1636.00 822.00" xmlns="http://www.w3.org/2000/svg" xmlns:xlink="http://www.w3.org/1999/xlink">
<g id="graph0" class="graph" transform="scale(1 1) rotate(0) translate(4 818)">
<title>HoTT_Spaces_BAut</title>
<polygon fill="#ffffff" stroke="transparent" points="-4,4 -4,-818 1632,-818 1632,4 -4,4"/>
<g id="clust1" class="cluster">
<title>cluster_BAut</title>
<polygon fill="#ffffc3" stroke="#000000" points="8,-13.0501 8,-800.9499 1620,-800.9499 1620,-13.0501 8,-13.0501"/>
<text text-anchor="middle" x="34.5" y="-785.7499" font-family="Times,serif" font-size="14.00" fill="#000000">BAut</text>
</g>
<!-- BAut_equiv_pmap_pbaut_pfibration_connected -->
<g id="node1" class="node">
<title>BAut_equiv_pmap_pbaut_pfibration_connected</title>
<g id="a_node1"><a xlink:href="BAut.html#equiv_pmap_pbaut_pfibration_connected" xlink:title="equiv_pmap_pbaut_pfibration_connected">
<ellipse fill="#f070d1" stroke="#000000" cx="1402" cy="-708.0501" rx="202.2592" ry="18"/>
<ellipse fill="none" stroke="#000000" cx="1402" cy="-708.0501" rx="206.2617" ry="22"/>
<ellipse fill="none" stroke="#000000" cx="1402" cy="-708.0501" rx="210.2642" ry="26"/>
<text text-anchor="middle" x="1402" y="-704.3501" font-family="Times,serif" font-size="14.00" fill="#000000">equiv_pmap_pbaut_pfibration_connected</text>
</a>
</g>
</g>
<!-- BAut_equiv_pmap_pbaut_type_p -->
<g id="node2" class="node">
<title>BAut_equiv_pmap_pbaut_type_p</title>
<g id="a_node2"><a xlink:href="BAut.html#equiv_pmap_pbaut_type_p" xlink:title="equiv_pmap_pbaut_type_p">
<ellipse fill="#f070d1" stroke="#000000" cx="1438" cy="-564.0501" rx="134.5761" ry="18"/>
<text text-anchor="middle" x="1438" y="-560.3501" font-family="Times,serif" font-size="14.00" fill="#000000">equiv_pmap_pbaut_type_p</text>
</a>
</g>
</g>
<!-- BAut_equiv_pmap_pbaut_pfibration_connected&#45;&gt;BAut_equiv_pmap_pbaut_type_p -->
<g id="edge1" class="edge">
<title>BAut_equiv_pmap_pbaut_pfibration_connected&#45;&gt;BAut_equiv_pmap_pbaut_type_p</title>
<path fill="none" stroke="#000000" d="M1408.5193,-681.9728C1414.8592,-656.6135 1424.4601,-618.2095 1430.9687,-592.1752"/>
<polygon fill="#000000" stroke="#000000" points="1434.4363,-592.7356 1433.4662,-582.1852 1427.6453,-591.0378 1434.4363,-592.7356"/>
</g>
<!-- BAut_pequiv_pbaut_typeOp -->
<g id="node4" class="node">
<title>BAut_pequiv_pbaut_typeOp</title>
<g id="a_node4"><a xlink:href="BAut.html#pequiv_pbaut_typeOp" xlink:title="pequiv_pbaut_typeOp">
<ellipse fill="#f070d1" stroke="#000000" cx="1202" cy="-421.0501" rx="112.3801" ry="18"/>
<text text-anchor="middle" x="1202" y="-417.3501" font-family="Times,serif" font-size="14.00" fill="#000000">pequiv_pbaut_typeOp</text>
</a>
</g>
</g>
<!-- BAut_equiv_pmap_pbaut_type_p&#45;&gt;BAut_pequiv_pbaut_typeOp -->
<g id="edge2" class="edge">
<title>BAut_equiv_pmap_pbaut_type_p&#45;&gt;BAut_pequiv_pbaut_typeOp</title>
<path fill="none" stroke="#000000" d="M1408.5876,-546.2282C1365.8698,-520.3441 1286.6497,-472.3421 1239.699,-443.8931"/>
<polygon fill="#000000" stroke="#000000" points="1241.408,-440.8363 1231.0417,-438.6474 1237.7804,-446.823 1241.408,-440.8363"/>
</g>
<!-- BAut_equiv_pmap_pbaut_pfibration -->
<g id="node3" class="node">
<title>BAut_equiv_pmap_pbaut_pfibration</title>
<g id="a_node3"><a xlink:href="BAut.html#equiv_pmap_pbaut_pfibration" xlink:title="equiv_pmap_pbaut_pfibration">
<ellipse fill="#f070d1" stroke="#000000" cx="1128" cy="-564.0501" rx="149.4741" ry="18"/>
<ellipse fill="none" stroke="#000000" cx="1128" cy="-564.0501" rx="153.4738" ry="22"/>
<ellipse fill="none" stroke="#000000" cx="1128" cy="-564.0501" rx="157.4735" ry="26"/>
<text text-anchor="middle" x="1128" y="-560.3501" font-family="Times,serif" font-size="14.00" fill="#000000">equiv_pmap_pbaut_pfibration</text>
</a>
</g>
</g>
<!-- BAut_equiv_pmap_pbaut_pfibration&#45;&gt;BAut_pequiv_pbaut_typeOp -->
<g id="edge3" class="edge">
<title>BAut_equiv_pmap_pbaut_pfibration&#45;&gt;BAut_pequiv_pbaut_typeOp</title>
<path fill="none" stroke="#000000" d="M1141.5727,-537.8217C1154.6701,-512.5119 1174.4208,-474.3451 1187.7438,-448.5993"/>
<polygon fill="#000000" stroke="#000000" points="1191.0204,-449.8828 1192.5079,-439.3929 1184.8035,-446.6656 1191.0204,-449.8828"/>
</g>
<!-- BAut_equiv_baut_typeO -->
<g id="node6" class="node">
<title>BAut_equiv_baut_typeO</title>
<g id="a_node6"><a xlink:href="BAut.html#equiv_baut_typeO" xlink:title="equiv_baut_typeO">
<ellipse fill="#f070d1" stroke="#000000" cx="1517" cy="-290.0501" rx="94.7833" ry="18"/>
<text text-anchor="middle" x="1517" y="-286.3501" font-family="Times,serif" font-size="14.00" fill="#000000">equiv_baut_typeO</text>
</a>
</g>
</g>
<!-- BAut_pequiv_pbaut_typeOp&#45;&gt;BAut_equiv_baut_typeO -->
<g id="edge4" class="edge">
<title>BAut_pequiv_pbaut_typeOp&#45;&gt;BAut_equiv_baut_typeO</title>
<path fill="none" stroke="#000000" d="M1242.5359,-404.1923C1300.2639,-380.1848 1406.019,-336.2041 1468.0451,-310.4091"/>
<polygon fill="#000000" stroke="#000000" points="1469.721,-313.5028 1477.6104,-306.4312 1467.033,-307.0395 1469.721,-313.5028"/>
</g>
<!-- BAut_pBAut -->
<g id="node23" class="node">
<title>BAut_pBAut</title>
<g id="a_node23"><a xlink:href="BAut.html#pBAut" xlink:title="pBAut">
<ellipse fill="#f070d1" stroke="#000000" cx="1364" cy="-290.0501" rx="40.0939" ry="18"/>
<text text-anchor="middle" x="1364" y="-286.3501" font-family="Times,serif" font-size="14.00" fill="#000000">pBAut</text>
</a>
</g>
</g>
<!-- BAut_pequiv_pbaut_typeOp&#45;&gt;BAut_pBAut -->
<g id="edge5" class="edge">
<title>BAut_pequiv_pbaut_typeOp&#45;&gt;BAut_pBAut</title>
<path fill="none" stroke="#000000" d="M1223.848,-403.3829C1252.9441,-379.8546 1304.4301,-338.2208 1336.2436,-312.4951"/>
<polygon fill="#000000" stroke="#000000" points="1338.696,-315.0132 1344.271,-306.0038 1334.2945,-309.5701 1338.696,-315.0132"/>
</g>
<!-- BAut_equiv_map_baut_fibration -->
<g id="node5" class="node">
<title>BAut_equiv_map_baut_fibration</title>
<g id="a_node5"><a xlink:href="BAut.html#equiv_map_baut_fibration" xlink:title="equiv_map_baut_fibration">
<ellipse fill="#f070d1" stroke="#000000" cx="1472" cy="-421.0501" rx="131.8801" ry="18"/>
<ellipse fill="none" stroke="#000000" cx="1472" cy="-421.0501" rx="135.8784" ry="22"/>
<ellipse fill="none" stroke="#000000" cx="1472" cy="-421.0501" rx="139.8766" ry="26"/>
<text text-anchor="middle" x="1472" y="-417.3501" font-family="Times,serif" font-size="14.00" fill="#000000">equiv_map_baut_fibration</text>
</a>
</g>
</g>
<!-- BAut_equiv_map_baut_fibration&#45;&gt;BAut_equiv_baut_typeO -->
<g id="edge6" class="edge">
<title>BAut_equiv_map_baut_fibration&#45;&gt;BAut_equiv_baut_typeO</title>
<path fill="none" stroke="#000000" d="M1480.9983,-394.8551C1488.6496,-372.5813 1499.6065,-340.6845 1507.4197,-317.9395"/>
<polygon fill="#000000" stroke="#000000" points="1510.8264,-318.7952 1510.7651,-308.2006 1504.2061,-316.521 1510.8264,-318.7952"/>
</g>
<!-- BAut_subuniverse_merely_equiv -->
<g id="node7" class="node">
<title>BAut_subuniverse_merely_equiv</title>
<g id="a_node7"><a xlink:href="BAut.html#subuniverse_merely_equiv" xlink:title="subuniverse_merely_equiv">
<ellipse fill="#f070d1" stroke="#000000" cx="1363" cy="-173.0501" rx="134.5761" ry="18"/>
<text text-anchor="middle" x="1363" y="-169.3501" font-family="Times,serif" font-size="14.00" fill="#000000">subuniverse_merely_equiv</text>
</a>
</g>
</g>
<!-- BAut_equiv_baut_typeO&#45;&gt;BAut_subuniverse_merely_equiv -->
<g id="edge7" class="edge">
<title>BAut_equiv_baut_typeO&#45;&gt;BAut_subuniverse_merely_equiv</title>
<path fill="none" stroke="#000000" d="M1493.9446,-272.534C1467.5972,-252.5168 1424.3156,-219.6341 1394.7808,-197.1953"/>
<polygon fill="#000000" stroke="#000000" points="1396.5458,-194.1407 1386.4658,-190.878 1392.3111,-199.7145 1396.5458,-194.1407"/>
</g>
<!-- BAut_BAut -->
<g id="node26" class="node">
<title>BAut_BAut</title>
<g id="a_node26"><a xlink:href="BAut.html#BAut" xlink:title="BAut">
<ellipse fill="#f070d1" stroke="#000000" cx="625" cy="-55.0501" rx="34.394" ry="18"/>
<text text-anchor="middle" x="625" y="-51.3501" font-family="Times,serif" font-size="14.00" fill="#000000">BAut</text>
</a>
</g>
</g>
<!-- BAut_equiv_baut_typeO&#45;&gt;BAut_BAut -->
<g id="edge8" class="edge">
<title>BAut_equiv_baut_typeO&#45;&gt;BAut_BAut</title>
<path fill="none" stroke="#000000" d="M1522.0739,-271.8888C1528.9401,-242.9335 1537.1391,-186.3868 1507,-155.0501 1448.3387,-94.0578 841.0265,-64.1113 669.7473,-56.8368"/>
<polygon fill="#000000" stroke="#000000" points="669.7095,-53.3323 659.5715,-56.4097 669.4158,-60.3261 669.7095,-53.3323"/>
</g>
<!-- BAut_id_center2_baut -->
<g id="node8" class="node">
<title>BAut_id_center2_baut</title>
<g id="a_node8"><a xlink:href="BAut.html#id_center2_baut" xlink:title="id_center2_baut">
<ellipse fill="#f070d1" stroke="#000000" cx="858" cy="-564.0501" rx="86.3896" ry="18"/>
<ellipse fill="none" stroke="#000000" cx="858" cy="-564.0501" rx="90.3871" ry="22"/>
<ellipse fill="none" stroke="#000000" cx="858" cy="-564.0501" rx="94.3847" ry="26"/>
<text text-anchor="middle" x="858" y="-560.3501" font-family="Times,serif" font-size="14.00" fill="#000000">id_center2_baut</text>
</a>
</g>
</g>
<!-- BAut_center2_baut -->
<g id="node9" class="node">
<title>BAut_center2_baut</title>
<g id="a_node9"><a xlink:href="BAut.html#center2_baut" xlink:title="center2_baut">
<ellipse fill="#f070d1" stroke="#000000" cx="999" cy="-421.0501" rx="72.5877" ry="18"/>
<text text-anchor="middle" x="999" y="-417.3501" font-family="Times,serif" font-size="14.00" fill="#000000">center2_baut</text>
</a>
</g>
</g>
<!-- BAut_id_center2_baut&#45;&gt;BAut_center2_baut -->
<g id="edge9" class="edge">
<title>BAut_id_center2_baut&#45;&gt;BAut_center2_baut</title>
<path fill="none" stroke="#000000" d="M882.8834,-538.8137C908.6437,-512.688 948.6439,-472.1204 974.3266,-446.0735"/>
<polygon fill="#000000" stroke="#000000" points="976.9573,-448.3905 981.4861,-438.8124 971.9728,-443.4757 976.9573,-448.3905"/>
</g>
<!-- BAut_merely_path_baut -->
<g id="node18" class="node">
<title>BAut_merely_path_baut</title>
<g id="a_node18"><a xlink:href="BAut.html#merely_path_baut" xlink:title="merely_path_baut">
<ellipse fill="#f070d1" stroke="#000000" cx="111" cy="-421.0501" rx="94.7833" ry="18"/>
<text text-anchor="middle" x="111" y="-417.3501" font-family="Times,serif" font-size="14.00" fill="#000000">merely_path_baut</text>
</a>
</g>
</g>
<!-- BAut_id_center2_baut&#45;&gt;BAut_merely_path_baut -->
<g id="edge10" class="edge">
<title>BAut_id_center2_baut&#45;&gt;BAut_merely_path_baut</title>
<path fill="none" stroke="#000000" d="M789.7545,-546.0051C778.1922,-543.183 766.2805,-540.4203 755,-538.0501 516.8171,-488.0034 453.2399,-496.8248 215,-447.0501 202.4937,-444.4372 189.2162,-441.356 176.4805,-438.2456"/>
<polygon fill="#000000" stroke="#000000" points="176.9559,-434.7577 166.4079,-435.7532 175.2744,-441.5528 176.9559,-434.7577"/>
</g>
<!-- BAut_trunc_baut -->
<g id="node19" class="node">
<title>BAut_trunc_baut</title>
<g id="a_node19"><a xlink:href="BAut.html#trunc_baut" xlink:title="trunc_baut">
<ellipse fill="#f070d1" stroke="#000000" cx="694" cy="-421.0501" rx="61.99" ry="18"/>
<text text-anchor="middle" x="694" y="-417.3501" font-family="Times,serif" font-size="14.00" fill="#000000">trunc_baut</text>
</a>
</g>
</g>
<!-- BAut_id_center2_baut&#45;&gt;BAut_trunc_baut -->
<g id="edge11" class="edge">
<title>BAut_id_center2_baut&#45;&gt;BAut_trunc_baut</title>
<path fill="none" stroke="#000000" d="M829.4334,-539.1414C799.1057,-512.6972 751.5061,-471.1926 721.5653,-445.0857"/>
<polygon fill="#000000" stroke="#000000" points="723.824,-442.4115 713.9866,-438.4774 719.2235,-447.6875 723.824,-442.4115"/>
</g>
<!-- BAut_center2_baut_subproof0 -->
<g id="node10" class="node">
<title>BAut_center2_baut_subproof0</title>
<g id="a_node10"><a xlink:href="BAut.html#center2_baut_subproof0" xlink:title="center2_baut_subproof0">
<ellipse fill="#f070d1" stroke="#000000" cx="1182" cy="-290.0501" rx="124.2781" ry="18"/>
<text text-anchor="middle" x="1182" y="-286.3501" font-family="Times,serif" font-size="14.00" fill="#000000">center2_baut_subproof0</text>
</a>
</g>
</g>
<!-- BAut_center2_baut&#45;&gt;BAut_center2_baut_subproof0 -->
<g id="edge12" class="edge">
<title>BAut_center2_baut&#45;&gt;BAut_center2_baut_subproof0</title>
<path fill="none" stroke="#000000" d="M1022.9241,-403.9241C1055.1238,-380.874 1112.5499,-339.7657 1148.8839,-313.7562"/>
<polygon fill="#000000" stroke="#000000" points="1151.0979,-316.4757 1157.1919,-307.8089 1147.0233,-310.7838 1151.0979,-316.4757"/>
</g>
<!-- BAut_center2_baut_subproof -->
<g id="node11" class="node">
<title>BAut_center2_baut_subproof</title>
<g id="a_node11"><a xlink:href="BAut.html#center2_baut_subproof" xlink:title="center2_baut_subproof">
<ellipse fill="#f070d1" stroke="#000000" cx="922" cy="-290.0501" rx="118.0794" ry="18"/>
<text text-anchor="middle" x="922" y="-286.3501" font-family="Times,serif" font-size="14.00" fill="#000000">center2_baut_subproof</text>
</a>
</g>
</g>
<!-- BAut_center2_baut&#45;&gt;BAut_center2_baut_subproof -->
<g id="edge13" class="edge">
<title>BAut_center2_baut&#45;&gt;BAut_center2_baut_subproof</title>
<path fill="none" stroke="#000000" d="M988.4549,-403.1098C975.3957,-380.8921 953.0261,-342.8348 937.8853,-317.0757"/>
<polygon fill="#000000" stroke="#000000" points="940.7495,-315.0416 932.6648,-308.1941 934.7148,-318.5887 940.7495,-315.0416"/>
</g>
<!-- BAut_baut_ind_hset -->
<g id="node14" class="node">
<title>BAut_baut_ind_hset</title>
<g id="a_node14"><a xlink:href="BAut.html#baut_ind_hset" xlink:title="baut_ind_hset">
<ellipse fill="#f070d1" stroke="#000000" cx="710" cy="-290.0501" rx="76.0865" ry="18"/>
<text text-anchor="middle" x="710" y="-286.3501" font-family="Times,serif" font-size="14.00" fill="#000000">baut_ind_hset</text>
</a>
</g>
</g>
<!-- BAut_center2_baut&#45;&gt;BAut_baut_ind_hset -->
<g id="edge14" class="edge">
<title>BAut_center2_baut&#45;&gt;BAut_baut_ind_hset</title>
<path fill="none" stroke="#000000" d="M963.8519,-405.1179C911.2712,-381.2838 812.1697,-336.3623 754.5733,-310.2546"/>
<polygon fill="#000000" stroke="#000000" points="755.9081,-307.0169 745.3552,-306.0761 753.0181,-313.3925 755.9081,-307.0169"/>
</g>
<!-- BAut_trunc_el_baut -->
<g id="node17" class="node">
<title>BAut_trunc_el_baut</title>
<g id="a_node17"><a xlink:href="BAut.html#trunc_el_baut" xlink:title="trunc_el_baut">
<ellipse fill="#f070d1" stroke="#000000" cx="541" cy="-290.0501" rx="75.2868" ry="18"/>
<text text-anchor="middle" x="541" y="-286.3501" font-family="Times,serif" font-size="14.00" fill="#000000">trunc_el_baut</text>
</a>
</g>
</g>
<!-- BAut_center2_baut&#45;&gt;BAut_trunc_el_baut -->
<g id="edge15" class="edge">
<title>BAut_center2_baut&#45;&gt;BAut_trunc_el_baut</title>
<path fill="none" stroke="#000000" d="M954.8281,-406.7349C942.6014,-402.8569 929.3086,-398.7189 917,-395.0501 805.888,-361.9314 675.3743,-326.188 601.0052,-306.1167"/>
<polygon fill="#000000" stroke="#000000" points="601.9009,-302.7333 591.3346,-303.5097 600.0788,-309.492 601.9009,-302.7333"/>
</g>
<!-- BAut_id_center_baut -->
<g id="node12" class="node">
<title>BAut_id_center_baut</title>
<g id="a_node12"><a xlink:href="BAut.html#id_center_baut" xlink:title="id_center_baut">
<ellipse fill="#f070d1" stroke="#000000" cx="657" cy="-564.0501" rx="80.6774" ry="18"/>
<ellipse fill="none" stroke="#000000" cx="657" cy="-564.0501" rx="84.6816" ry="22"/>
<ellipse fill="none" stroke="#000000" cx="657" cy="-564.0501" rx="88.6858" ry="26"/>
<text text-anchor="middle" x="657" y="-560.3501" font-family="Times,serif" font-size="14.00" fill="#000000">id_center_baut</text>
</a>
</g>
</g>
<!-- BAut_center_baut -->
<g id="node13" class="node">
<title>BAut_center_baut</title>
<g id="a_node13"><a xlink:href="BAut.html#center_baut" xlink:title="center_baut">
<ellipse fill="#f070d1" stroke="#000000" cx="841" cy="-421.0501" rx="66.8882" ry="18"/>
<text text-anchor="middle" x="841" y="-417.3501" font-family="Times,serif" font-size="14.00" fill="#000000">center_baut</text>
</a>
</g>
</g>
<!-- BAut_id_center_baut&#45;&gt;BAut_center_baut -->
<g id="edge16" class="edge">
<title>BAut_id_center_baut&#45;&gt;BAut_center_baut</title>
<path fill="none" stroke="#000000" d="M688.6307,-539.4675C722.9205,-512.8184 777.2425,-470.6008 810.9153,-444.4311"/>
<polygon fill="#000000" stroke="#000000" points="813.2585,-447.0428 819.0066,-438.1428 808.963,-441.5157 813.2585,-447.0428"/>
</g>
<!-- BAut_id_center_baut&#45;&gt;BAut_merely_path_baut -->
<g id="edge17" class="edge">
<title>BAut_id_center_baut&#45;&gt;BAut_merely_path_baut</title>
<path fill="none" stroke="#000000" d="M591.534,-546.4359C580.9931,-543.619 570.1978,-540.7455 560,-538.0501 424.0806,-502.1257 264.8051,-460.806 177.1889,-438.1436"/>
<polygon fill="#000000" stroke="#000000" points="177.9414,-434.7231 167.3836,-435.6079 176.1888,-441.5002 177.9414,-434.7231"/>
</g>
<!-- BAut_id_center_baut&#45;&gt;BAut_trunc_baut -->
<g id="edge18" class="edge">
<title>BAut_id_center_baut&#45;&gt;BAut_trunc_baut</title>
<path fill="none" stroke="#000000" d="M663.7864,-537.8217C670.2774,-512.7349 680.0366,-475.0166 686.6951,-449.2827"/>
<polygon fill="#000000" stroke="#000000" points="690.1374,-449.9508 689.254,-439.3929 683.3606,-448.1973 690.1374,-449.9508"/>
</g>
<!-- BAut_center_baut&#45;&gt;BAut_baut_ind_hset -->
<g id="edge19" class="edge">
<title>BAut_center_baut&#45;&gt;BAut_baut_ind_hset</title>
<path fill="none" stroke="#000000" d="M823.6042,-403.6543C800.9264,-380.9765 761.1028,-341.1529 735.1411,-315.1912"/>
<polygon fill="#000000" stroke="#000000" points="737.4339,-312.5342 727.8879,-307.938 732.4841,-317.484 737.4339,-312.5342"/>
</g>
<!-- BAut_center_baut&#45;&gt;BAut_trunc_el_baut -->
<g id="edge20" class="edge">
<title>BAut_center_baut&#45;&gt;BAut_trunc_el_baut</title>
<path fill="none" stroke="#000000" d="M805.704,-405.6375C751.3057,-381.8836 646.9837,-336.3296 586.8257,-310.0607"/>
<polygon fill="#000000" stroke="#000000" points="588.1294,-306.8108 577.5644,-306.0165 585.3281,-313.2259 588.1294,-306.8108"/>
</g>
<!-- BAut_ispointed_baut -->
<g id="node24" class="node">
<title>BAut_ispointed_baut</title>
<g id="a_node24"><a xlink:href="BAut.html#ispointed_baut" xlink:title="ispointed_baut">
<ellipse fill="#f070d1" stroke="#000000" cx="710" cy="-173.0501" rx="79.0865" ry="18"/>
<text text-anchor="middle" x="710" y="-169.3501" font-family="Times,serif" font-size="14.00" fill="#000000">ispointed_baut</text>
</a>
</g>
</g>
<!-- BAut_baut_ind_hset&#45;&gt;BAut_ispointed_baut -->
<g id="edge21" class="edge">
<title>BAut_baut_ind_hset&#45;&gt;BAut_ispointed_baut</title>
<path fill="none" stroke="#000000" d="M710,-272.0253C710,-253.1857 710,-223.3613 710,-201.3714"/>
<polygon fill="#000000" stroke="#000000" points="713.5001,-201.2882 710,-191.2882 706.5001,-201.2882 713.5001,-201.2882"/>
</g>
<!-- BAut_BAut_pr1 -->
<g id="node25" class="node">
<title>BAut_BAut_pr1</title>
<g id="a_node25"><a xlink:href="BAut.html#BAut_pr1" xlink:title="BAut_pr1">
<ellipse fill="#f070d1" stroke="#000000" cx="541" cy="-173.0501" rx="55.4913" ry="18"/>
<text text-anchor="middle" x="541" y="-169.3501" font-family="Times,serif" font-size="14.00" fill="#000000">BAut_pr1</text>
</a>
</g>
</g>
<!-- BAut_baut_ind_hset&#45;&gt;BAut_BAut_pr1 -->
<g id="edge22" class="edge">
<title>BAut_baut_ind_hset&#45;&gt;BAut_BAut_pr1</title>
<path fill="none" stroke="#000000" d="M685.0635,-272.7863C655.3109,-252.1884 605.5132,-217.7131 572.9609,-195.1769"/>
<polygon fill="#000000" stroke="#000000" points="574.8881,-192.2542 564.6739,-189.4397 570.9036,-198.0095 574.8881,-192.2542"/>
</g>
<!-- BAut_ap_baut_prod_r -->
<g id="node15" class="node">
<title>BAut_ap_baut_prod_r</title>
<g id="a_node15"><a xlink:href="BAut.html#ap_baut_prod_r" xlink:title="ap_baut_prod_r">
<ellipse fill="#f070d1" stroke="#000000" cx="315" cy="-421.0501" rx="83.3687" ry="18"/>
<ellipse fill="none" stroke="#000000" cx="315" cy="-421.0501" rx="87.3772" ry="22"/>
<ellipse fill="none" stroke="#000000" cx="315" cy="-421.0501" rx="91.3856" ry="26"/>
<text text-anchor="middle" x="315" y="-417.3501" font-family="Times,serif" font-size="14.00" fill="#000000">ap_baut_prod_r</text>
</a>
</g>
</g>
<!-- BAut_baut_prod_r -->
<g id="node16" class="node">
<title>BAut_baut_prod_r</title>
<g id="a_node16"><a xlink:href="BAut.html#baut_prod_r" xlink:title="baut_prod_r">
<ellipse fill="#f070d1" stroke="#000000" cx="247" cy="-290.0501" rx="67.6881" ry="18"/>
<text text-anchor="middle" x="247" y="-286.3501" font-family="Times,serif" font-size="14.00" fill="#000000">baut_prod_r</text>
</a>
</g>
</g>
<!-- BAut_ap_baut_prod_r&#45;&gt;BAut_baut_prod_r -->
<g id="edge23" class="edge">
<title>BAut_ap_baut_prod_r&#45;&gt;BAut_baut_prod_r</title>
<path fill="none" stroke="#000000" d="M301.5654,-395.1687C289.8473,-372.5941 272.9086,-339.9623 261.0205,-317.0603"/>
<polygon fill="#000000" stroke="#000000" points="263.9784,-315.1615 256.2648,-307.8985 257.7656,-318.3865 263.9784,-315.1615"/>
</g>
<!-- BAut_path_baut -->
<g id="node22" class="node">
<title>BAut_path_baut</title>
<g id="a_node22"><a xlink:href="BAut.html#path_baut" xlink:title="path_baut">
<ellipse fill="#f070d1" stroke="#000000" cx="390" cy="-290.0501" rx="57.6901" ry="18"/>
<text text-anchor="middle" x="390" y="-286.3501" font-family="Times,serif" font-size="14.00" fill="#000000">path_baut</text>
</a>
</g>
</g>
<!-- BAut_ap_baut_prod_r&#45;&gt;BAut_path_baut -->
<g id="edge24" class="edge">
<title>BAut_ap_baut_prod_r&#45;&gt;BAut_path_baut</title>
<path fill="none" stroke="#000000" d="M329.8176,-395.1687C342.7997,-372.4933 361.5912,-339.6708 374.7114,-316.7541"/>
<polygon fill="#000000" stroke="#000000" points="377.8503,-318.3159 379.7815,-307.8985 371.7755,-314.8379 377.8503,-318.3159"/>
</g>
<!-- BAut_baut_prod_r&#45;&gt;BAut_BAut_pr1 -->
<g id="edge25" class="edge">
<title>BAut_baut_prod_r&#45;&gt;BAut_BAut_pr1</title>
<path fill="none" stroke="#000000" d="M284.8335,-274.9939C338.9311,-253.4653 438.2175,-213.9533 496.0097,-190.9544"/>
<polygon fill="#000000" stroke="#000000" points="497.6093,-194.0849 505.6064,-187.1353 495.0209,-187.581 497.6093,-194.0849"/>
</g>
<!-- BAut_trunc_el_baut&#45;&gt;BAut_BAut_pr1 -->
<g id="edge26" class="edge">
<title>BAut_trunc_el_baut&#45;&gt;BAut_BAut_pr1</title>
<path fill="none" stroke="#000000" d="M541,-272.0253C541,-253.1857 541,-223.3613 541,-201.3714"/>
<polygon fill="#000000" stroke="#000000" points="544.5001,-201.2882 541,-191.2882 537.5001,-201.2882 544.5001,-201.2882"/>
</g>
<!-- BAut_merely_path_baut&#45;&gt;BAut_BAut -->
<g id="edge27" class="edge">
<title>BAut_merely_path_baut&#45;&gt;BAut_BAut</title>
<path fill="none" stroke="#000000" d="M113.8073,-402.6976C119.3724,-372.0484 134.4825,-310.0682 170,-272.0501 287.9559,-145.7893 494.5979,-85.2107 582.9744,-64.101"/>
<polygon fill="#000000" stroke="#000000" points="583.9635,-67.4642 592.9029,-61.7776 582.3684,-60.6484 583.9635,-67.4642"/>
</g>
<!-- BAut_trunc_baut&#45;&gt;BAut_path_baut -->
<g id="edge28" class="edge">
<title>BAut_trunc_baut&#45;&gt;BAut_path_baut</title>
<path fill="none" stroke="#000000" d="M659.1273,-406.0227C603.3166,-381.9727 494.0502,-334.8875 433.3166,-308.7161"/>
<polygon fill="#000000" stroke="#000000" points="434.5703,-305.4453 424.0015,-304.7021 431.8,-311.8738 434.5703,-305.4453"/>
</g>
<!-- BAut_transport_path_baut -->
<g id="node20" class="node">
<title>BAut_transport_path_baut</title>
<g id="a_node20"><a xlink:href="BAut.html#transport_path_baut" xlink:title="transport_path_baut">
<ellipse fill="#f070d1" stroke="#000000" cx="436" cy="-564.0501" rx="106.6748" ry="18"/>
<ellipse fill="none" stroke="#000000" cx="436" cy="-564.0501" rx="110.678" ry="22"/>
<ellipse fill="none" stroke="#000000" cx="436" cy="-564.0501" rx="114.6812" ry="26"/>
<text text-anchor="middle" x="436" y="-560.3501" font-family="Times,serif" font-size="14.00" fill="#000000">transport_path_baut</text>
</a>
</g>
</g>
<!-- BAut_ap_pr1_path_baut -->
<g id="node21" class="node">
<title>BAut_ap_pr1_path_baut</title>
<g id="a_node21"><a xlink:href="BAut.html#ap_pr1_path_baut" xlink:title="ap_pr1_path_baut">
<ellipse fill="#f070d1" stroke="#000000" cx="519" cy="-421.0501" rx="94.7833" ry="18"/>
<text text-anchor="middle" x="519" y="-417.3501" font-family="Times,serif" font-size="14.00" fill="#000000">ap_pr1_path_baut</text>
</a>
</g>
</g>
<!-- BAut_transport_path_baut&#45;&gt;BAut_ap_pr1_path_baut -->
<g id="edge29" class="edge">
<title>BAut_transport_path_baut&#45;&gt;BAut_ap_pr1_path_baut</title>
<path fill="none" stroke="#000000" d="M451.0307,-538.1539C465.8424,-512.6349 488.3747,-473.8141 503.3854,-447.9523"/>
<polygon fill="#000000" stroke="#000000" points="506.5542,-449.465 508.5471,-439.0593 500.5001,-445.9511 506.5542,-449.465"/>
</g>
<!-- BAut_ap_pr1_path_baut&#45;&gt;BAut_path_baut -->
<g id="edge30" class="edge">
<title>BAut_ap_pr1_path_baut&#45;&gt;BAut_path_baut</title>
<path fill="none" stroke="#000000" d="M501.3336,-403.1098C478.7241,-380.1498 439.457,-340.2739 414.1121,-314.536"/>
<polygon fill="#000000" stroke="#000000" points="416.5532,-312.0267 407.0428,-307.3572 411.5655,-316.9382 416.5532,-312.0267"/>
</g>
<!-- BAut_path_baut&#45;&gt;BAut_BAut_pr1 -->
<g id="edge31" class="edge">
<title>BAut_path_baut&#45;&gt;BAut_BAut_pr1</title>
<path fill="none" stroke="#000000" d="M411.6346,-273.2869C437.7607,-253.0434 481.8428,-218.8871 511.1801,-196.1556"/>
<polygon fill="#000000" stroke="#000000" points="513.6444,-198.6739 519.4055,-189.7823 509.357,-193.1405 513.6444,-198.6739"/>
</g>
<!-- BAut_pBAut&#45;&gt;BAut_ispointed_baut -->
<g id="edge32" class="edge">
<title>BAut_pBAut&#45;&gt;BAut_ispointed_baut</title>
<path fill="none" stroke="#000000" d="M1333.9661,-277.9993C1327.7633,-275.7996 1321.223,-273.6864 1315,-272.0501 1131.4674,-223.7917 910.1043,-194.7313 792.6414,-181.5367"/>
<polygon fill="#000000" stroke="#000000" points="792.9649,-178.0512 782.6391,-180.4233 792.1905,-185.0082 792.9649,-178.0512"/>
</g>
<!-- BAut_ispointed_baut&#45;&gt;BAut_BAut -->
<g id="edge33" class="edge">
<title>BAut_ispointed_baut&#45;&gt;BAut_BAut</title>
<path fill="none" stroke="#000000" d="M697.0903,-155.1284C682.7404,-135.2073 659.4555,-102.8824 643.2461,-80.3799"/>
<polygon fill="#000000" stroke="#000000" points="645.8873,-78.0583 637.2024,-71.99 640.2074,-82.1497 645.8873,-78.0583"/>
</g>
<!-- BAut_BAut_pr1&#45;&gt;BAut_BAut -->
<g id="edge34" class="edge">
<title>BAut_BAut_pr1&#45;&gt;BAut_BAut</title>
<path fill="none" stroke="#000000" d="M553.5756,-155.3843C567.7172,-135.5188 590.8027,-103.0892 606.8867,-80.4949"/>
<polygon fill="#000000" stroke="#000000" points="609.9365,-82.246 612.8845,-72.0695 604.2338,-78.1864 609.9365,-82.246"/>
</g>
</g>
</svg>
