<?xml version="1.0" encoding="UTF-8" standalone="no"?>
<!DOCTYPE svg PUBLIC "-//W3C//DTD SVG 1.1//EN"
 "http://www.w3.org/Graphics/SVG/1.1/DTD/svg11.dtd">
<!-- Generated by graphviz version 2.40.1 (20161225.0304)
 -->
<!-- Title: HoTT_Algebra_ooAction Pages: 1 -->
<svg width="366pt" height="187pt"
 viewBox="0.00 0.00 366.00 187.00" xmlns="http://www.w3.org/2000/svg" xmlns:xlink="http://www.w3.org/1999/xlink">
<g id="graph0" class="graph" transform="scale(1 1) rotate(0) translate(4 183)">
<title>HoTT_Algebra_ooAction</title>
<polygon fill="#ffffff" stroke="transparent" points="-4,4 -4,-183 362,-183 362,4 -4,4"/>
<g id="clust1" class="cluster">
<title>cluster_ooAction</title>
<polygon fill="#ffffc3" stroke="#000000" points="15.0737,-8 15.0737,-171 342.9263,-171 342.9263,-8 15.0737,-8"/>
<text text-anchor="middle" x="55.0737" y="-155.8" font-family="Times,serif" font-size="14.00" fill="#000000">ooAction</text>
</g>
<!-- ooAction_action_space -->
<g id="node1" class="node">
<title>ooAction_action_space</title>
<g id="a_node1"><a xlink:href="ooAction.html#action_space" xlink:title="action_space">
<ellipse fill="#f070d1" stroke="#000000" cx="179.2421" cy="-114" rx="71.488" ry="18"/>
<ellipse fill="none" stroke="#000000" cx="179.2421" cy="-114" rx="75.4876" ry="22"/>
<ellipse fill="none" stroke="#000000" cx="179.2421" cy="-114" rx="79.4873" ry="26"/>
<text text-anchor="middle" x="179.2421" y="-110.3" font-family="Times,serif" font-size="14.00" fill="#000000">action_space</text>
</a>
</g>
</g>
<!-- ooAction_ooAction -->
<g id="node2" class="node">
<title>ooAction_ooAction</title>
<g id="a_node2"><a xlink:href="ooAction.html#ooAction" xlink:title="ooAction">
<ellipse fill="#f070d1" stroke="#000000" cx="179.2421" cy="-34" rx="51.9908" ry="18"/>
<text text-anchor="middle" x="179.2421" y="-30.3" font-family="Times,serif" font-size="14.00" fill="#000000">ooAction</text>
</a>
</g>
</g>
<!-- ooAction_action_space&#45;&gt;ooAction_ooAction -->
<g id="edge1" class="edge">
<title>ooAction_action_space&#45;&gt;ooAction_ooAction</title>
<path fill="none" stroke="#000000" d="M179.2421,-87.805C179.2421,-79.6026 179.2421,-70.5174 179.2421,-62.1839"/>
<polygon fill="#000000" stroke="#000000" points="182.7422,-62.1532 179.2421,-52.1532 175.7422,-62.1533 182.7422,-62.1532"/>
</g>
</g>
</svg>
