<?xml version="1.0" encoding="UTF-8" standalone="no"?>
<!DOCTYPE svg PUBLIC "-//W3C//DTD SVG 1.1//EN"
 "http://www.w3.org/Graphics/SVG/1.1/DTD/svg11.dtd">
<!-- Generated by graphviz version 2.40.1 (20161225.0304)
 -->
<!-- Title: HoTT_Classes_interfaces_ua_algebra Pages: 1 -->
<svg width="1611pt" height="810pt"
 viewBox="0.00 0.00 1611.00 809.50" xmlns="http://www.w3.org/2000/svg" xmlns:xlink="http://www.w3.org/1999/xlink">
<g id="graph0" class="graph" transform="scale(1 1) rotate(0) translate(4 805.5)">
<title>HoTT_Classes_interfaces_ua_algebra</title>
<polygon fill="#ffffff" stroke="transparent" points="-4,4 -4,-805.5 1607,-805.5 1607,4 -4,4"/>
<g id="clust1" class="cluster">
<title>cluster_ua_algebra</title>
<polygon fill="#ffffc3" stroke="#000000" points="8,-9.2793 8,-792.2207 1595,-792.2207 1595,-9.2793 8,-9.2793"/>
<text text-anchor="middle" x="55.5" y="-777.0207" font-family="Times,serif" font-size="14.00" fill="#000000">ua_algebra</text>
</g>
<!-- ua_algebra_path_path_hset_algebra -->
<g id="node1" class="node">
<title>ua_algebra_path_path_hset_algebra</title>
<g id="a_node1"><a xlink:href="ua_algebra.html#path_path_hset_algebra" xlink:title="path_path_hset_algebra">
<ellipse fill="#f070d1" stroke="#000000" cx="865" cy="-726.2793" rx="122.367" ry="18"/>
<ellipse fill="none" stroke="#000000" cx="865" cy="-726.2793" rx="126.3728" ry="22"/>
<ellipse fill="none" stroke="#000000" cx="865" cy="-726.2793" rx="130.3786" ry="26"/>
<text text-anchor="middle" x="865" y="-722.5793" font-family="Times,serif" font-size="14.00" fill="#000000">path_path_hset_algebra</text>
</a>
</g>
</g>
<!-- ua_algebra_path_path_algebra -->
<g id="node2" class="node">
<title>ua_algebra_path_path_algebra</title>
<g id="a_node2"><a xlink:href="ua_algebra.html#path_path_algebra" xlink:title="path_path_algebra">
<ellipse fill="#f070d1" stroke="#000000" cx="1184" cy="-624.2793" rx="97.4827" ry="18"/>
<text text-anchor="middle" x="1184" y="-620.5793" font-family="Times,serif" font-size="14.00" fill="#000000">path_path_algebra</text>
</a>
</g>
</g>
<!-- ua_algebra_path_path_hset_algebra&#45;&gt;ua_algebra_path_path_algebra -->
<g id="edge1" class="edge">
<title>ua_algebra_path_path_hset_algebra&#45;&gt;ua_algebra_path_path_algebra</title>
<path fill="none" stroke="#000000" d="M934.2182,-704.1468C991.3178,-685.8893 1071.4343,-660.2721 1125.4016,-643.0161"/>
<polygon fill="#000000" stroke="#000000" points="1126.7038,-646.2744 1135.1628,-639.895 1124.5718,-639.6069 1126.7038,-646.2744"/>
</g>
<!-- ua_algebra_trunc_carriers_algebra -->
<g id="node7" class="node">
<title>ua_algebra_trunc_carriers_algebra</title>
<g id="a_node7"><a xlink:href="ua_algebra.html#trunc_carriers_algebra" xlink:title="trunc_carriers_algebra">
<ellipse fill="#f070d1" stroke="#000000" cx="134" cy="-624.2793" rx="118.0794" ry="18"/>
<text text-anchor="middle" x="134" y="-620.5793" font-family="Times,serif" font-size="14.00" fill="#000000">trunc_carriers_algebra</text>
</a>
</g>
</g>
<!-- ua_algebra_path_path_hset_algebra&#45;&gt;ua_algebra_trunc_carriers_algebra -->
<g id="edge2" class="edge">
<title>ua_algebra_path_path_hset_algebra&#45;&gt;ua_algebra_trunc_carriers_algebra</title>
<path fill="none" stroke="#000000" d="M749.1088,-714.3703C627.2346,-701.2219 430.06,-678.1786 261,-650.2793 244.9096,-647.624 227.7531,-644.3888 211.4231,-641.1147"/>
<polygon fill="#000000" stroke="#000000" points="211.8755,-637.6352 201.3791,-639.0759 210.4829,-644.4953 211.8755,-637.6352"/>
</g>
<!-- ua_algebra_carriers -->
<g id="node12" class="node">
<title>ua_algebra_carriers</title>
<g id="a_node12"><a xlink:href="ua_algebra.html#carriers" xlink:title="carriers">
<ellipse fill="#f070d1" stroke="#000000" cx="404" cy="-522.2793" rx="48.1917" ry="18"/>
<text text-anchor="middle" x="404" y="-518.5793" font-family="Times,serif" font-size="14.00" fill="#000000">carriers</text>
</a>
</g>
</g>
<!-- ua_algebra_path_path_hset_algebra&#45;&gt;ua_algebra_carriers -->
<g id="edge3" class="edge">
<title>ua_algebra_path_path_hset_algebra&#45;&gt;ua_algebra_carriers</title>
<path fill="none" stroke="#000000" d="M759.5768,-710.9052C682.7635,-697.7816 587.1015,-676.8283 557,-650.2793 538.4294,-633.9004 553.1294,-617.067 537,-598.2793 523.5407,-582.6017 477.418,-557.9549 443.2439,-541.0037"/>
<polygon fill="#000000" stroke="#000000" points="444.4775,-537.7102 433.959,-536.4406 441.3899,-543.9925 444.4775,-537.7102"/>
</g>
<!-- ua_algebra_trunc_operation -->
<g id="node21" class="node">
<title>ua_algebra_trunc_operation</title>
<g id="a_node21"><a xlink:href="ua_algebra.html#trunc_operation" xlink:title="trunc_operation">
<ellipse fill="#f070d1" stroke="#000000" cx="1125" cy="-420.2793" rx="85.2851" ry="18"/>
<text text-anchor="middle" x="1125" y="-416.5793" font-family="Times,serif" font-size="14.00" fill="#000000">trunc_operation</text>
</a>
</g>
</g>
<!-- ua_algebra_path_path_hset_algebra&#45;&gt;ua_algebra_trunc_operation -->
<g id="edge4" class="edge">
<title>ua_algebra_path_path_hset_algebra&#45;&gt;ua_algebra_trunc_operation</title>
<path fill="none" stroke="#000000" d="M992.5097,-721.0171C1103.5825,-713.4375 1252.5638,-695.0038 1290,-650.2793 1311.9659,-624.037 1308.4553,-525.0988 1290,-496.2793 1277.3503,-476.5257 1223.6929,-454.0685 1180.9541,-438.7188"/>
<polygon fill="#000000" stroke="#000000" points="1182.0616,-435.3982 1171.4668,-435.3624 1179.7268,-441.9973 1182.0616,-435.3982"/>
</g>
<!-- ua_algebra_issig_algebra -->
<g id="node9" class="node">
<title>ua_algebra_issig_algebra</title>
<g id="a_node9"><a xlink:href="ua_algebra.html#issig_algebra" xlink:title="issig_algebra">
<ellipse fill="#f070d1" stroke="#000000" cx="1209" cy="-522.2793" rx="72.2875" ry="18"/>
<text text-anchor="middle" x="1209" y="-518.5793" font-family="Times,serif" font-size="14.00" fill="#000000">issig_algebra</text>
</a>
</g>
</g>
<!-- ua_algebra_path_path_algebra&#45;&gt;ua_algebra_issig_algebra -->
<g id="edge5" class="edge">
<title>ua_algebra_path_path_algebra&#45;&gt;ua_algebra_issig_algebra</title>
<path fill="none" stroke="#000000" d="M1188.4695,-606.0437C1192.2734,-590.5238 1197.7979,-567.9837 1202.1583,-550.1936"/>
<polygon fill="#000000" stroke="#000000" points="1205.588,-550.9027 1204.5692,-540.357 1198.7892,-549.2363 1205.588,-550.9027"/>
</g>
<!-- ua_algebra_path_ap_carriers_path_algebra -->
<g id="node3" class="node">
<title>ua_algebra_path_ap_carriers_path_algebra</title>
<g id="a_node3"><a xlink:href="ua_algebra.html#path_ap_carriers_path_algebra" xlink:title="path_ap_carriers_path_algebra">
<ellipse fill="#f070d1" stroke="#000000" cx="729" cy="-624.2793" rx="155.1806" ry="18"/>
<ellipse fill="none" stroke="#000000" cx="729" cy="-624.2793" rx="159.1766" ry="22"/>
<ellipse fill="none" stroke="#000000" cx="729" cy="-624.2793" rx="163.1726" ry="26"/>
<text text-anchor="middle" x="729" y="-620.5793" font-family="Times,serif" font-size="14.00" fill="#000000">path_ap_carriers_path_algebra</text>
</a>
</g>
</g>
<!-- ua_algebra_path_algebra -->
<g id="node4" class="node">
<title>ua_algebra_path_algebra</title>
<g id="a_node4"><a xlink:href="ua_algebra.html#path_algebra" xlink:title="path_algebra">
<ellipse fill="#f070d1" stroke="#000000" cx="542" cy="-522.2793" rx="71.4873" ry="18"/>
<text text-anchor="middle" x="542" y="-518.5793" font-family="Times,serif" font-size="14.00" fill="#000000">path_algebra</text>
</a>
</g>
</g>
<!-- ua_algebra_path_ap_carriers_path_algebra&#45;&gt;ua_algebra_path_algebra -->
<g id="edge6" class="edge">
<title>ua_algebra_path_ap_carriers_path_algebra&#45;&gt;ua_algebra_path_algebra</title>
<path fill="none" stroke="#000000" d="M682.7753,-599.0658C651.5079,-582.0109 610.6688,-559.735 581.0355,-543.5714"/>
<polygon fill="#000000" stroke="#000000" points="582.6767,-540.4798 572.2217,-538.7639 579.3247,-546.6251 582.6767,-540.4798"/>
</g>
<!-- ua_algebra_path_ap_carriers_path_algebra&#45;&gt;ua_algebra_carriers -->
<g id="edge7" class="edge">
<title>ua_algebra_path_ap_carriers_path_algebra&#45;&gt;ua_algebra_carriers</title>
<path fill="none" stroke="#000000" d="M640.1948,-602.4374C587.757,-588.6927 520.4163,-569.5609 462,-548.2793 455.8762,-546.0484 449.4909,-543.4629 443.2906,-540.8052"/>
<polygon fill="#000000" stroke="#000000" points="444.3264,-537.4371 433.7638,-536.6101 441.5052,-543.8434 444.3264,-537.4371"/>
</g>
<!-- ua_algebra_BuildAlgebra -->
<g id="node17" class="node">
<title>ua_algebra_BuildAlgebra</title>
<g id="a_node17"><a xlink:href="ua_algebra.html#BuildAlgebra" xlink:title="BuildAlgebra">
<ellipse fill="#7faaff" stroke="#000000" cx="807" cy="-420.2793" rx="71.4873" ry="18"/>
<text text-anchor="middle" x="807" y="-416.5793" font-family="Times,serif" font-size="14.00" fill="#000000">BuildAlgebra</text>
</a>
</g>
</g>
<!-- ua_algebra_path_algebra&#45;&gt;ua_algebra_BuildAlgebra -->
<g id="edge8" class="edge">
<title>ua_algebra_path_algebra&#45;&gt;ua_algebra_BuildAlgebra</title>
<path fill="none" stroke="#000000" d="M581.387,-507.119C628.5242,-488.9757 707.4523,-458.5958 758.353,-439.0038"/>
<polygon fill="#000000" stroke="#000000" points="759.754,-442.2149 767.8293,-435.3563 757.2395,-435.6822 759.754,-442.2149"/>
</g>
<!-- ua_algebra_Algebra -->
<g id="node18" class="node">
<title>ua_algebra_Algebra</title>
<g id="a_node18"><a xlink:href="ua_algebra.html#Algebra" xlink:title="Algebra">
<ellipse fill="#e2cdfa" stroke="#000000" cx="670" cy="-420.2793" rx="47.3916" ry="18"/>
<text text-anchor="middle" x="670" y="-416.5793" font-family="Times,serif" font-size="14.00" fill="#000000">Algebra</text>
</a>
</g>
</g>
<!-- ua_algebra_path_algebra&#45;&gt;ua_algebra_Algebra -->
<g id="edge9" class="edge">
<title>ua_algebra_path_algebra&#45;&gt;ua_algebra_Algebra</title>
<path fill="none" stroke="#000000" d="M563.7135,-504.9764C585.1514,-487.893 618.0472,-461.6792 641.5608,-442.9418"/>
<polygon fill="#000000" stroke="#000000" points="643.813,-445.6225 649.4523,-436.6532 639.4505,-440.1481 643.813,-445.6225"/>
</g>
<!-- ua_algebra_trunc_algebra_succ -->
<g id="node5" class="node">
<title>ua_algebra_trunc_algebra_succ</title>
<g id="a_node5"><a xlink:href="ua_algebra.html#trunc_algebra_succ" xlink:title="trunc_algebra_succ">
<ellipse fill="#f070d1" stroke="#000000" cx="134" cy="-726.2793" rx="102.8683" ry="18"/>
<ellipse fill="none" stroke="#000000" cx="134" cy="-726.2793" rx="106.8752" ry="22"/>
<ellipse fill="none" stroke="#000000" cx="134" cy="-726.2793" rx="110.8821" ry="26"/>
<text text-anchor="middle" x="134" y="-722.5793" font-family="Times,serif" font-size="14.00" fill="#000000">trunc_algebra_succ</text>
</a>
</g>
</g>
<!-- ua_algebra_trunc_algebra_succ&#45;&gt;ua_algebra_trunc_carriers_algebra -->
<g id="edge10" class="edge">
<title>ua_algebra_trunc_algebra_succ&#45;&gt;ua_algebra_trunc_carriers_algebra</title>
<path fill="none" stroke="#000000" d="M134,-700.2765C134,-685.7429 134,-667.611 134,-652.7034"/>
<polygon fill="#000000" stroke="#000000" points="137.5001,-652.5157 134,-642.5158 130.5001,-652.5158 137.5001,-652.5157"/>
</g>
<!-- ua_algebra_hprop_is_trunc_algebra -->
<g id="node6" class="node">
<title>ua_algebra_hprop_is_trunc_algebra</title>
<g id="a_node6"><a xlink:href="ua_algebra.html#hprop_is_trunc_algebra" xlink:title="hprop_is_trunc_algebra">
<ellipse fill="#f070d1" stroke="#000000" cx="399" cy="-624.2793" rx="120.7855" ry="18"/>
<ellipse fill="none" stroke="#000000" cx="399" cy="-624.2793" rx="124.7821" ry="22"/>
<ellipse fill="none" stroke="#000000" cx="399" cy="-624.2793" rx="128.7786" ry="26"/>
<text text-anchor="middle" x="399" y="-620.5793" font-family="Times,serif" font-size="14.00" fill="#000000">hprop_is_trunc_algebra</text>
</a>
</g>
</g>
<!-- ua_algebra_IsTruncAlgebra -->
<g id="node8" class="node">
<title>ua_algebra_IsTruncAlgebra</title>
<g id="a_node8"><a xlink:href="ua_algebra.html#IsTruncAlgebra" xlink:title="IsTruncAlgebra">
<ellipse fill="#f070d1" stroke="#000000" cx="100" cy="-522.2793" rx="83.6854" ry="18"/>
<text text-anchor="middle" x="100" y="-518.5793" font-family="Times,serif" font-size="14.00" fill="#000000">IsTruncAlgebra</text>
</a>
</g>
</g>
<!-- ua_algebra_hprop_is_trunc_algebra&#45;&gt;ua_algebra_IsTruncAlgebra -->
<g id="edge11" class="edge">
<title>ua_algebra_hprop_is_trunc_algebra&#45;&gt;ua_algebra_IsTruncAlgebra</title>
<path fill="none" stroke="#000000" d="M333.3832,-601.895C279.8776,-583.6422 205.1774,-558.1592 154.8246,-540.982"/>
<polygon fill="#000000" stroke="#000000" points="155.6866,-537.5781 145.0921,-537.6619 153.4265,-544.2032 155.6866,-537.5781"/>
</g>
<!-- ua_algebra_trunc_carriers_algebra&#45;&gt;ua_algebra_IsTruncAlgebra -->
<g id="edge12" class="edge">
<title>ua_algebra_trunc_carriers_algebra&#45;&gt;ua_algebra_IsTruncAlgebra</title>
<path fill="none" stroke="#000000" d="M127.9215,-606.0437C122.724,-590.4512 115.1645,-567.7729 109.2217,-549.9445"/>
<polygon fill="#000000" stroke="#000000" points="112.5086,-548.737 106.0259,-540.357 105.8678,-550.9506 112.5086,-548.737"/>
</g>
<!-- ua_algebra_IsTruncAlgebra&#45;&gt;ua_algebra_Algebra -->
<g id="edge13" class="edge">
<title>ua_algebra_IsTruncAlgebra&#45;&gt;ua_algebra_Algebra</title>
<path fill="none" stroke="#000000" d="M148.4854,-507.5914C162.7421,-503.5808 178.4237,-499.4671 193,-496.2793 344.1006,-463.2343 525.0841,-438.3542 614.451,-427.0276"/>
<polygon fill="#000000" stroke="#000000" points="615.1433,-430.4681 624.6277,-425.7462 614.2688,-423.5229 615.1433,-430.4681"/>
</g>
<!-- ua_algebra_SigAlgebra -->
<g id="node10" class="node">
<title>ua_algebra_SigAlgebra</title>
<g id="a_node10"><a xlink:href="ua_algebra.html#SigAlgebra" xlink:title="SigAlgebra">
<ellipse fill="#f070d1" stroke="#000000" cx="959" cy="-420.2793" rx="62.2891" ry="18"/>
<text text-anchor="middle" x="959" y="-416.5793" font-family="Times,serif" font-size="14.00" fill="#000000">SigAlgebra</text>
</a>
</g>
</g>
<!-- ua_algebra_issig_algebra&#45;&gt;ua_algebra_SigAlgebra -->
<g id="edge14" class="edge">
<title>ua_algebra_issig_algebra&#45;&gt;ua_algebra_SigAlgebra</title>
<path fill="none" stroke="#000000" d="M1171.3018,-506.8984C1126.7645,-488.7272 1052.6939,-458.5064 1004.8692,-438.9939"/>
<polygon fill="#000000" stroke="#000000" points="1005.9579,-435.6581 995.3767,-435.121 1003.3135,-442.1394 1005.9579,-435.6581"/>
</g>
<!-- ua_algebra_issig_algebra&#45;&gt;ua_algebra_BuildAlgebra -->
<g id="edge15" class="edge">
<title>ua_algebra_issig_algebra&#45;&gt;ua_algebra_BuildAlgebra</title>
<path fill="none" stroke="#000000" d="M1165.8307,-507.6939C1153.374,-503.73 1139.712,-499.6153 1127,-496.2793 1022.0324,-468.7332 992.9185,-474.0119 888,-446.2793 878.6742,-443.8143 868.8346,-440.9147 859.3504,-437.9627"/>
<polygon fill="#000000" stroke="#000000" points="860.2222,-434.5675 849.6321,-434.8836 858.1078,-441.2406 860.2222,-434.5675"/>
</g>
<!-- ua_algebra_issig_algebra&#45;&gt;ua_algebra_Algebra -->
<g id="edge16" class="edge">
<title>ua_algebra_issig_algebra&#45;&gt;ua_algebra_Algebra</title>
<path fill="none" stroke="#000000" d="M1167.2626,-507.4247C1154.4744,-503.3142 1140.2755,-499.1881 1127,-496.2793 951.9905,-457.9331 899.3732,-495.1286 727,-446.2793 720.3909,-444.4063 713.5737,-441.8751 707.0532,-439.1243"/>
<polygon fill="#000000" stroke="#000000" points="708.3298,-435.8615 697.771,-434.9882 705.4806,-442.2554 708.3298,-435.8615"/>
</g>
<!-- ua_algebra_Operation -->
<g id="node22" class="node">
<title>ua_algebra_Operation</title>
<g id="a_node22"><a xlink:href="ua_algebra.html#Operation" xlink:title="Operation">
<ellipse fill="#f070d1" stroke="#000000" cx="1042" cy="-318.2793" rx="57.6901" ry="18"/>
<text text-anchor="middle" x="1042" y="-314.5793" font-family="Times,serif" font-size="14.00" fill="#000000">Operation</text>
</a>
</g>
</g>
<!-- ua_algebra_SigAlgebra&#45;&gt;ua_algebra_Operation -->
<g id="edge17" class="edge">
<title>ua_algebra_SigAlgebra&#45;&gt;ua_algebra_Operation</title>
<path fill="none" stroke="#000000" d="M973.4575,-402.5123C986.6683,-386.2773 1006.3549,-362.0842 1021.2449,-343.7856"/>
<polygon fill="#000000" stroke="#000000" points="1024.1113,-345.8083 1027.7082,-335.8427 1018.6817,-341.3902 1024.1113,-345.8083"/>
</g>
<!-- ua_algebra_operations -->
<g id="node11" class="node">
<title>ua_algebra_operations</title>
<g id="a_node11"><a xlink:href="ua_algebra.html#operations" xlink:title="operations">
<ellipse fill="#f070d1" stroke="#000000" cx="270" cy="-522.2793" rx="59.6142" ry="18"/>
<ellipse fill="none" stroke="#000000" cx="270" cy="-522.2793" rx="63.6021" ry="22"/>
<ellipse fill="none" stroke="#000000" cx="270" cy="-522.2793" rx="67.59" ry="26"/>
<text text-anchor="middle" x="270" y="-518.5793" font-family="Times,serif" font-size="14.00" fill="#000000">operations</text>
</a>
</g>
</g>
<!-- ua_algebra_operations&#45;&gt;ua_algebra_Algebra -->
<g id="edge18" class="edge">
<title>ua_algebra_operations&#45;&gt;ua_algebra_Algebra</title>
<path fill="none" stroke="#000000" d="M319.9025,-504.6652C328.8776,-501.716 338.1818,-498.7994 347,-496.2793 441.7708,-469.1951 554.142,-444.366 618.2544,-430.8757"/>
<polygon fill="#000000" stroke="#000000" points="619.0496,-434.2852 628.1196,-428.8094 617.6145,-427.4339 619.0496,-434.2852"/>
</g>
<!-- ua_algebra_carriers&#45;&gt;ua_algebra_Algebra -->
<g id="edge19" class="edge">
<title>ua_algebra_carriers&#45;&gt;ua_algebra_Algebra</title>
<path fill="none" stroke="#000000" d="M434.2275,-508.2406C443.1186,-504.2443 452.9011,-499.9756 462,-496.2793 517.516,-473.727 582.532,-450.4647 624.9022,-435.7164"/>
<polygon fill="#000000" stroke="#000000" points="626.0759,-439.0139 634.376,-432.4293 623.7812,-432.4007 626.0759,-439.0139"/>
</g>
<!-- ua_algebra_Algebra_sind -->
<g id="node13" class="node">
<title>ua_algebra_Algebra_sind</title>
<g id="a_node13"><a xlink:href="ua_algebra.html#Algebra_sind" xlink:title="Algebra_sind">
<ellipse fill="#f070d1" stroke="#000000" cx="711" cy="-522.2793" rx="71.488" ry="18"/>
<ellipse fill="none" stroke="#000000" cx="711" cy="-522.2793" rx="75.4876" ry="22"/>
<ellipse fill="none" stroke="#000000" cx="711" cy="-522.2793" rx="79.4873" ry="26"/>
<text text-anchor="middle" x="711" y="-518.5793" font-family="Times,serif" font-size="14.00" fill="#000000">Algebra_sind</text>
</a>
</g>
</g>
<!-- ua_algebra_Algebra_sind&#45;&gt;ua_algebra_BuildAlgebra -->
<g id="edge20" class="edge">
<title>ua_algebra_Algebra_sind&#45;&gt;ua_algebra_BuildAlgebra</title>
<path fill="none" stroke="#000000" d="M734.4842,-497.3273C749.3676,-481.5137 768.5496,-461.1329 783.4463,-445.3051"/>
<polygon fill="#000000" stroke="#000000" points="786.0724,-447.6216 790.3774,-437.9408 780.975,-442.824 786.0724,-447.6216"/>
</g>
<!-- ua_algebra_Algebra_sind&#45;&gt;ua_algebra_Algebra -->
<g id="edge21" class="edge">
<title>ua_algebra_Algebra_sind&#45;&gt;ua_algebra_Algebra</title>
<path fill="none" stroke="#000000" d="M700.5479,-496.2765C694.5536,-481.3638 687.0365,-462.6628 680.9592,-447.5437"/>
<polygon fill="#000000" stroke="#000000" points="684.1811,-446.1745 677.204,-438.2014 677.6862,-448.7853 684.1811,-446.1745"/>
</g>
<!-- ua_algebra_Algebra_rec -->
<g id="node14" class="node">
<title>ua_algebra_Algebra_rec</title>
<g id="a_node14"><a xlink:href="ua_algebra.html#Algebra_rec" xlink:title="Algebra_rec">
<ellipse fill="#f070d1" stroke="#000000" cx="993" cy="-624.2793" rx="67.6782" ry="18"/>
<ellipse fill="none" stroke="#000000" cx="993" cy="-624.2793" rx="71.6831" ry="22"/>
<ellipse fill="none" stroke="#000000" cx="993" cy="-624.2793" rx="75.6881" ry="26"/>
<text text-anchor="middle" x="993" y="-620.5793" font-family="Times,serif" font-size="14.00" fill="#000000">Algebra_rec</text>
</a>
</g>
</g>
<!-- ua_algebra_Algebra_rect -->
<g id="node16" class="node">
<title>ua_algebra_Algebra_rect</title>
<g id="a_node16"><a xlink:href="ua_algebra.html#Algebra_rect" xlink:title="Algebra_rect">
<ellipse fill="#f070d1" stroke="#000000" cx="1047" cy="-522.2793" rx="71.4873" ry="18"/>
<text text-anchor="middle" x="1047" y="-518.5793" font-family="Times,serif" font-size="14.00" fill="#000000">Algebra_rect</text>
</a>
</g>
</g>
<!-- ua_algebra_Algebra_rec&#45;&gt;ua_algebra_Algebra_rect -->
<g id="edge22" class="edge">
<title>ua_algebra_Algebra_rec&#45;&gt;ua_algebra_Algebra_rect</title>
<path fill="none" stroke="#000000" d="M1006.6265,-598.5404C1014.5957,-583.4874 1024.6445,-564.5064 1032.7231,-549.2467"/>
<polygon fill="#000000" stroke="#000000" points="1035.8768,-550.7702 1037.4624,-540.2947 1029.6902,-547.495 1035.8768,-550.7702"/>
</g>
<!-- ua_algebra_Algebra_ind -->
<g id="node15" class="node">
<title>ua_algebra_Algebra_ind</title>
<g id="a_node15"><a xlink:href="ua_algebra.html#Algebra_ind" xlink:title="Algebra_ind">
<ellipse fill="#7fffd4" stroke="#000000" cx="883" cy="-522.2793" rx="66.8941" ry="18"/>
<ellipse fill="none" stroke="#000000" cx="883" cy="-522.2793" rx="70.8911" ry="22"/>
<ellipse fill="none" stroke="#000000" cx="883" cy="-522.2793" rx="74.8882" ry="26"/>
<text text-anchor="middle" x="883" y="-518.5793" font-family="Times,serif" font-size="14.00" fill="#000000">Algebra_ind</text>
</a>
</g>
</g>
<!-- ua_algebra_Algebra_ind&#45;&gt;ua_algebra_BuildAlgebra -->
<g id="edge23" class="edge">
<title>ua_algebra_Algebra_ind&#45;&gt;ua_algebra_BuildAlgebra</title>
<path fill="none" stroke="#000000" d="M864.2135,-497.0658C852.7161,-481.6351 838.0342,-461.9305 826.4221,-446.3458"/>
<polygon fill="#000000" stroke="#000000" points="829.108,-444.0925 820.3265,-438.1649 823.4948,-448.2749 829.108,-444.0925"/>
</g>
<!-- ua_algebra_Algebra_ind&#45;&gt;ua_algebra_Algebra -->
<g id="edge24" class="edge">
<title>ua_algebra_Algebra_ind&#45;&gt;ua_algebra_Algebra</title>
<path fill="none" stroke="#000000" d="M838.8663,-501.1448C800.6109,-482.8254 745.7791,-456.5679 709.0828,-438.995"/>
<polygon fill="#000000" stroke="#000000" points="710.2352,-435.6663 699.7043,-434.5039 707.2118,-441.9797 710.2352,-435.6663"/>
</g>
<!-- ua_algebra_Algebra_rect&#45;&gt;ua_algebra_BuildAlgebra -->
<g id="edge25" class="edge">
<title>ua_algebra_Algebra_rect&#45;&gt;ua_algebra_BuildAlgebra</title>
<path fill="none" stroke="#000000" d="M1010.5492,-506.7877C968.4355,-488.8894 899.0671,-459.4078 853.2052,-439.9165"/>
<polygon fill="#000000" stroke="#000000" points="854.3662,-436.607 843.7939,-435.9167 851.6282,-443.0493 854.3662,-436.607"/>
</g>
<!-- ua_algebra_Algebra_rect&#45;&gt;ua_algebra_Algebra -->
<g id="edge26" class="edge">
<title>ua_algebra_Algebra_rect&#45;&gt;ua_algebra_Algebra</title>
<path fill="none" stroke="#000000" d="M1004.9071,-507.6495C992.7546,-503.6849 979.4202,-499.5809 967,-496.2793 861.6999,-468.2882 830.5392,-480.2091 727,-446.2793 720.7597,-444.2344 714.2925,-441.7078 708.0524,-439.0406"/>
<polygon fill="#000000" stroke="#000000" points="709.0576,-435.6568 698.4989,-434.7825 706.2078,-442.0505 709.0576,-435.6568"/>
</g>
<!-- ua_algebra_BuildAlgebra&#45;&gt;ua_algebra_Operation -->
<g id="edge27" class="edge">
<title>ua_algebra_BuildAlgebra&#45;&gt;ua_algebra_Operation</title>
<path fill="none" stroke="#000000" d="M842.9473,-404.6767C884.7525,-386.5314 953.7356,-356.5898 998.519,-337.1519"/>
<polygon fill="#000000" stroke="#000000" points="1000.1862,-340.2438 1007.9658,-333.0516 997.3991,-333.8226 1000.1862,-340.2438"/>
</g>
<!-- ua_algebra_Algebra&#45;&gt;ua_algebra_Operation -->
<g id="edge28" class="edge">
<title>ua_algebra_Algebra&#45;&gt;ua_algebra_Operation</title>
<path fill="none" stroke="#000000" d="M698.853,-405.8241C707.7369,-401.7274 717.6438,-397.5086 727,-394.2793 813.6957,-364.3564 917.7194,-341.7231 981.8416,-329.2303"/>
<polygon fill="#000000" stroke="#000000" points="982.6255,-332.6437 991.7815,-327.3128 981.2995,-325.7704 982.6255,-332.6437"/>
</g>
<!-- ua_algebra_path_forall_ap_operation -->
<g id="node19" class="node">
<title>ua_algebra_path_forall_ap_operation</title>
<g id="a_node19"><a xlink:href="ua_algebra.html#path_forall_ap_operation" xlink:title="path_forall_ap_operation">
<ellipse fill="#f070d1" stroke="#000000" cx="1453" cy="-522.2793" rx="126.1724" ry="18"/>
<ellipse fill="none" stroke="#000000" cx="1453" cy="-522.2793" rx="130.175" ry="22"/>
<ellipse fill="none" stroke="#000000" cx="1453" cy="-522.2793" rx="134.1777" ry="26"/>
<text text-anchor="middle" x="1453" y="-518.5793" font-family="Times,serif" font-size="14.00" fill="#000000">path_forall_ap_operation</text>
</a>
</g>
</g>
<!-- ua_algebra_ap_operation -->
<g id="node20" class="node">
<title>ua_algebra_ap_operation</title>
<g id="a_node20"><a xlink:href="ua_algebra.html#ap_operation" xlink:title="ap_operation">
<ellipse fill="#f070d1" stroke="#000000" cx="1300" cy="-420.2793" rx="71.4873" ry="18"/>
<text text-anchor="middle" x="1300" y="-416.5793" font-family="Times,serif" font-size="14.00" fill="#000000">ap_operation</text>
</a>
</g>
</g>
<!-- ua_algebra_path_forall_ap_operation&#45;&gt;ua_algebra_ap_operation -->
<g id="edge29" class="edge">
<title>ua_algebra_path_forall_ap_operation&#45;&gt;ua_algebra_ap_operation</title>
<path fill="none" stroke="#000000" d="M1415.1798,-497.0658C1390.2749,-480.4626 1357.9479,-458.9113 1333.8834,-442.8683"/>
<polygon fill="#000000" stroke="#000000" points="1335.6825,-439.8611 1325.4205,-437.2263 1331.7995,-445.6855 1335.6825,-439.8611"/>
</g>
<!-- ua_algebra_ap_operation&#45;&gt;ua_algebra_Operation -->
<g id="edge30" class="edge">
<title>ua_algebra_ap_operation&#45;&gt;ua_algebra_Operation</title>
<path fill="none" stroke="#000000" d="M1261.3748,-405.0089C1214.8539,-386.6169 1136.8204,-355.7664 1087.4471,-336.2468"/>
<polygon fill="#000000" stroke="#000000" points="1088.5588,-332.9227 1077.9724,-332.5009 1085.9852,-339.4325 1088.5588,-332.9227"/>
</g>
<!-- ua_algebra_dom_symboltype -->
<g id="node24" class="node">
<title>ua_algebra_dom_symboltype</title>
<g id="a_node24"><a xlink:href="ua_algebra.html#dom_symboltype" xlink:title="dom_symboltype">
<ellipse fill="#f070d1" stroke="#000000" cx="1488" cy="-318.2793" rx="89.0842" ry="18"/>
<text text-anchor="middle" x="1488" y="-314.5793" font-family="Times,serif" font-size="14.00" fill="#000000">dom_symboltype</text>
</a>
</g>
</g>
<!-- ua_algebra_ap_operation&#45;&gt;ua_algebra_dom_symboltype -->
<g id="edge31" class="edge">
<title>ua_algebra_ap_operation&#45;&gt;ua_algebra_dom_symboltype</title>
<path fill="none" stroke="#000000" d="M1330.2055,-403.8912C1362.0293,-386.6251 1412.3238,-359.3376 1447.5554,-340.2226"/>
<polygon fill="#000000" stroke="#000000" points="1449.4952,-343.1522 1456.6157,-335.3069 1446.1569,-336.9995 1449.4952,-343.1522"/>
</g>
<!-- ua_algebra_cod_symboltype -->
<g id="node25" class="node">
<title>ua_algebra_cod_symboltype</title>
<g id="a_node25"><a xlink:href="ua_algebra.html#cod_symboltype" xlink:title="cod_symboltype">
<ellipse fill="#f070d1" stroke="#000000" cx="1295" cy="-318.2793" rx="85.5853" ry="18"/>
<text text-anchor="middle" x="1295" y="-314.5793" font-family="Times,serif" font-size="14.00" fill="#000000">cod_symboltype</text>
</a>
</g>
</g>
<!-- ua_algebra_ap_operation&#45;&gt;ua_algebra_cod_symboltype -->
<g id="edge32" class="edge">
<title>ua_algebra_ap_operation&#45;&gt;ua_algebra_cod_symboltype</title>
<path fill="none" stroke="#000000" d="M1299.1061,-402.0437C1298.3489,-386.5963 1297.2507,-364.1942 1296.3806,-346.4433"/>
<polygon fill="#000000" stroke="#000000" points="1299.8717,-346.1736 1295.8862,-336.357 1292.8801,-346.5164 1299.8717,-346.1736"/>
</g>
<!-- ua_algebra_trunc_operation&#45;&gt;ua_algebra_Operation -->
<g id="edge33" class="edge">
<title>ua_algebra_trunc_operation&#45;&gt;ua_algebra_Operation</title>
<path fill="none" stroke="#000000" d="M1110.5425,-402.5123C1097.3317,-386.2773 1077.6451,-362.0842 1062.7551,-343.7856"/>
<polygon fill="#000000" stroke="#000000" points="1065.3183,-341.3902 1056.2918,-335.8427 1059.8887,-345.8083 1065.3183,-341.3902"/>
</g>
<!-- ua_algebra_SymbolType -->
<g id="node26" class="node">
<title>ua_algebra_SymbolType</title>
<g id="a_node26"><a xlink:href="ua_algebra.html#SymbolType" xlink:title="SymbolType">
<ellipse fill="#f070d1" stroke="#000000" cx="1367" cy="-215.2793" rx="68.4888" ry="18"/>
<text text-anchor="middle" x="1367" y="-211.5793" font-family="Times,serif" font-size="14.00" fill="#000000">SymbolType</text>
</a>
</g>
</g>
<!-- ua_algebra_Operation&#45;&gt;ua_algebra_SymbolType -->
<g id="edge34" class="edge">
<title>ua_algebra_Operation&#45;&gt;ua_algebra_SymbolType</title>
<path fill="none" stroke="#000000" d="M1083.7849,-305.6486C1133.1579,-290.6449 1217.7339,-264.6949 1290,-241.2793 1298.2895,-238.5934 1307.0606,-235.6902 1315.5986,-232.831"/>
<polygon fill="#000000" stroke="#000000" points="1316.7384,-236.1403 1325.1011,-229.6353 1314.5071,-229.5055 1316.7384,-236.1403"/>
</g>
<!-- ua_algebra_arity_symboltype -->
<g id="node23" class="node">
<title>ua_algebra_arity_symboltype</title>
<g id="a_node23"><a xlink:href="ua_algebra.html#arity_symboltype" xlink:title="arity_symboltype">
<ellipse fill="#f070d1" stroke="#000000" cx="1488" cy="-420.2793" rx="90.9845" ry="18"/>
<ellipse fill="none" stroke="#000000" cx="1488" cy="-420.2793" rx="94.9842" ry="22"/>
<ellipse fill="none" stroke="#000000" cx="1488" cy="-420.2793" rx="98.9839" ry="26"/>
<text text-anchor="middle" x="1488" y="-416.5793" font-family="Times,serif" font-size="14.00" fill="#000000">arity_symboltype</text>
</a>
</g>
</g>
<!-- ua_algebra_arity_symboltype&#45;&gt;ua_algebra_dom_symboltype -->
<g id="edge35" class="edge">
<title>ua_algebra_arity_symboltype&#45;&gt;ua_algebra_dom_symboltype</title>
<path fill="none" stroke="#000000" d="M1488,-394.2765C1488,-379.7429 1488,-361.611 1488,-346.7034"/>
<polygon fill="#000000" stroke="#000000" points="1491.5001,-346.5157 1488,-336.5158 1484.5001,-346.5158 1491.5001,-346.5157"/>
</g>
<!-- ua_algebra_dom_symboltype&#45;&gt;ua_algebra_SymbolType -->
<g id="edge36" class="edge">
<title>ua_algebra_dom_symboltype&#45;&gt;ua_algebra_SymbolType</title>
<path fill="none" stroke="#000000" d="M1467.1994,-300.573C1447.3402,-283.6681 1417.2634,-258.0655 1395.2434,-239.3212"/>
<polygon fill="#000000" stroke="#000000" points="1397.4127,-236.5714 1387.5292,-232.7546 1392.8753,-241.9017 1397.4127,-236.5714"/>
</g>
<!-- ua_algebra_cod_symboltype&#45;&gt;ua_algebra_SymbolType -->
<g id="edge37" class="edge">
<title>ua_algebra_cod_symboltype&#45;&gt;ua_algebra_SymbolType</title>
<path fill="none" stroke="#000000" d="M1307.5414,-300.3381C1318.9498,-284.0178 1335.9252,-259.7336 1348.8207,-241.2858"/>
<polygon fill="#000000" stroke="#000000" points="1351.7416,-243.2163 1354.6023,-233.0149 1346.0043,-239.2057 1351.7416,-243.2163"/>
</g>
<!-- ua_algebra_Signature -->
<g id="node36" class="node">
<title>ua_algebra_Signature</title>
<g id="a_node36"><a xlink:href="ua_algebra.html#Signature" xlink:title="Signature">
<ellipse fill="#e2cdfa" stroke="#000000" cx="789" cy="-123.2793" rx="56.59" ry="18"/>
<text text-anchor="middle" x="789" y="-119.5793" font-family="Times,serif" font-size="14.00" fill="#000000">Signature</text>
</a>
</g>
</g>
<!-- ua_algebra_SymbolType&#45;&gt;ua_algebra_Signature -->
<g id="edge38" class="edge">
<title>ua_algebra_SymbolType&#45;&gt;ua_algebra_Signature</title>
<path fill="none" stroke="#000000" d="M1327.858,-200.4213C1315.8513,-196.3107 1302.5065,-192.1854 1290,-189.2793 1136.2311,-153.549 951.1008,-135.4398 854.6703,-127.8332"/>
<polygon fill="#000000" stroke="#000000" points="854.7292,-124.3273 844.4884,-127.0432 854.1877,-131.3063 854.7292,-124.3273"/>
</g>
<!-- ua_algebra_BuildSingleSortedSignature -->
<g id="node27" class="node">
<title>ua_algebra_BuildSingleSortedSignature</title>
<g id="a_node27"><a xlink:href="ua_algebra.html#BuildSingleSortedSignature" xlink:title="BuildSingleSortedSignature">
<ellipse fill="#f070d1" stroke="#000000" cx="166" cy="-215.2793" rx="141.8651" ry="18"/>
<ellipse fill="none" stroke="#000000" cx="166" cy="-215.2793" rx="145.8701" ry="22"/>
<ellipse fill="none" stroke="#000000" cx="166" cy="-215.2793" rx="149.8751" ry="26"/>
<text text-anchor="middle" x="166" y="-211.5793" font-family="Times,serif" font-size="14.00" fill="#000000">BuildSingleSortedSignature</text>
</a>
</g>
</g>
<!-- ua_algebra_BuildSignature -->
<g id="node35" class="node">
<title>ua_algebra_BuildSignature</title>
<g id="a_node35"><a xlink:href="ua_algebra.html#BuildSignature" xlink:title="BuildSignature">
<ellipse fill="#7faaff" stroke="#000000" cx="601" cy="-123.2793" rx="81.4863" ry="18"/>
<text text-anchor="middle" x="601" y="-119.5793" font-family="Times,serif" font-size="14.00" fill="#000000">BuildSignature</text>
</a>
</g>
</g>
<!-- ua_algebra_BuildSingleSortedSignature&#45;&gt;ua_algebra_BuildSignature -->
<g id="edge39" class="edge">
<title>ua_algebra_BuildSingleSortedSignature&#45;&gt;ua_algebra_BuildSignature</title>
<path fill="none" stroke="#000000" d="M261.1937,-195.1464C342.9863,-177.8477 458.9696,-153.3179 532.0684,-137.8579"/>
<polygon fill="#000000" stroke="#000000" points="533.031,-141.2319 542.0903,-135.7384 531.5825,-134.3834 533.031,-141.2319"/>
</g>
<!-- ua_algebra_BuildSingleSortedSignature&#45;&gt;ua_algebra_Signature -->
<g id="edge40" class="edge">
<title>ua_algebra_BuildSingleSortedSignature&#45;&gt;ua_algebra_Signature</title>
<path fill="none" stroke="#000000" d="M273.694,-197.1952C290.842,-194.4524 308.3967,-191.7249 325,-189.2793 487.3083,-165.3718 528.9333,-166.7731 691,-141.2793 703.7422,-139.2749 717.3758,-136.911 730.3006,-134.5671"/>
<polygon fill="#000000" stroke="#000000" points="731.2792,-137.9461 740.4834,-132.6989 730.0159,-131.061 731.2792,-137.9461"/>
</g>
<!-- ua_algebra_symbol_types -->
<g id="node28" class="node">
<title>ua_algebra_symbol_types</title>
<g id="a_node28"><a xlink:href="ua_algebra.html#symbol_types" xlink:title="symbol_types">
<ellipse fill="#f070d1" stroke="#000000" cx="1199" cy="-215.2793" rx="74.1778" ry="18"/>
<ellipse fill="none" stroke="#000000" cx="1199" cy="-215.2793" rx="78.1824" ry="22"/>
<ellipse fill="none" stroke="#000000" cx="1199" cy="-215.2793" rx="82.187" ry="26"/>
<text text-anchor="middle" x="1199" y="-211.5793" font-family="Times,serif" font-size="14.00" fill="#000000">symbol_types</text>
</a>
</g>
</g>
<!-- ua_algebra_symbol_types&#45;&gt;ua_algebra_Signature -->
<g id="edge41" class="edge">
<title>ua_algebra_symbol_types&#45;&gt;ua_algebra_Signature</title>
<path fill="none" stroke="#000000" d="M1138.7867,-197.6034C1128.2271,-194.6924 1117.318,-191.8047 1107,-189.2793 1017.1923,-167.2986 911.9634,-146.3978 847.916,-134.2119"/>
<polygon fill="#000000" stroke="#000000" points="848.4759,-130.7558 837.999,-132.3321 847.1722,-137.6333 848.4759,-130.7558"/>
</g>
<!-- ua_algebra_Symbol -->
<g id="node29" class="node">
<title>ua_algebra_Symbol</title>
<g id="a_node29"><a xlink:href="ua_algebra.html#Symbol" xlink:title="Symbol">
<ellipse fill="#f070d1" stroke="#000000" cx="1045" cy="-215.2793" rx="45.4925" ry="18"/>
<ellipse fill="none" stroke="#000000" cx="1045" cy="-215.2793" rx="49.4922" ry="22"/>
<ellipse fill="none" stroke="#000000" cx="1045" cy="-215.2793" rx="53.4919" ry="26"/>
<text text-anchor="middle" x="1045" y="-211.5793" font-family="Times,serif" font-size="14.00" fill="#000000">Symbol</text>
</a>
</g>
</g>
<!-- ua_algebra_Symbol&#45;&gt;ua_algebra_Signature -->
<g id="edge42" class="edge">
<title>ua_algebra_Symbol&#45;&gt;ua_algebra_Signature</title>
<path fill="none" stroke="#000000" d="M1004.8078,-197.9495C997.5823,-194.9701 990.0938,-191.9697 983,-189.2793 934.3951,-170.8454 878.0736,-151.9531 838.6788,-139.1311"/>
<polygon fill="#000000" stroke="#000000" points="839.6348,-135.7618 829.0428,-136.0061 837.4753,-142.4204 839.6348,-135.7618"/>
</g>
<!-- ua_algebra_Sort -->
<g id="node30" class="node">
<title>ua_algebra_Sort</title>
<g id="a_node30"><a xlink:href="ua_algebra.html#Sort" xlink:title="Sort">
<ellipse fill="#f070d1" stroke="#000000" cx="935" cy="-215.2793" rx="30.5848" ry="18"/>
<ellipse fill="none" stroke="#000000" cx="935" cy="-215.2793" rx="34.5897" ry="22"/>
<ellipse fill="none" stroke="#000000" cx="935" cy="-215.2793" rx="38.5946" ry="26"/>
<text text-anchor="middle" x="935" y="-211.5793" font-family="Times,serif" font-size="14.00" fill="#000000">Sort</text>
</a>
</g>
</g>
<!-- ua_algebra_Sort&#45;&gt;ua_algebra_Signature -->
<g id="edge43" class="edge">
<title>ua_algebra_Sort&#45;&gt;ua_algebra_Signature</title>
<path fill="none" stroke="#000000" d="M906.5031,-197.3224C882.7485,-182.3537 848.8272,-160.9786 823.5322,-145.0393"/>
<polygon fill="#000000" stroke="#000000" points="825.302,-142.0176 814.9757,-139.6475 821.5701,-147.9399 825.302,-142.0176"/>
</g>
<!-- ua_algebra_Signature_sind -->
<g id="node31" class="node">
<title>ua_algebra_Signature_sind</title>
<g id="a_node31"><a xlink:href="ua_algebra.html#Signature_sind" xlink:title="Signature_sind">
<ellipse fill="#f070d1" stroke="#000000" cx="789" cy="-215.2793" rx="81.4644" ry="18"/>
<ellipse fill="none" stroke="#000000" cx="789" cy="-215.2793" rx="85.4753" ry="22"/>
<ellipse fill="none" stroke="#000000" cx="789" cy="-215.2793" rx="89.4862" ry="26"/>
<text text-anchor="middle" x="789" y="-211.5793" font-family="Times,serif" font-size="14.00" fill="#000000">Signature_sind</text>
</a>
</g>
</g>
<!-- ua_algebra_Signature_sind&#45;&gt;ua_algebra_BuildSignature -->
<g id="edge44" class="edge">
<title>ua_algebra_Signature_sind&#45;&gt;ua_algebra_BuildSignature</title>
<path fill="none" stroke="#000000" d="M743.01,-192.7736C712.7984,-177.9892 673.5424,-158.7788 643.9626,-144.3036"/>
<polygon fill="#000000" stroke="#000000" points="645.2432,-141.0336 634.7225,-139.7818 642.1663,-147.3212 645.2432,-141.0336"/>
</g>
<!-- ua_algebra_Signature_sind&#45;&gt;ua_algebra_Signature -->
<g id="edge45" class="edge">
<title>ua_algebra_Signature_sind&#45;&gt;ua_algebra_Signature</title>
<path fill="none" stroke="#000000" d="M789,-189.1619C789,-177.4482 789,-163.6044 789,-151.6379"/>
<polygon fill="#000000" stroke="#000000" points="792.5001,-151.2909 789,-141.291 785.5001,-151.291 792.5001,-151.2909"/>
</g>
<!-- ua_algebra_Signature_rec -->
<g id="node32" class="node">
<title>ua_algebra_Signature_rec</title>
<g id="a_node32"><a xlink:href="ua_algebra.html#Signature_rec" xlink:title="Signature_rec">
<ellipse fill="#f070d1" stroke="#000000" cx="601" cy="-318.2793" rx="76.8685" ry="18"/>
<ellipse fill="none" stroke="#000000" cx="601" cy="-318.2793" rx="80.8777" ry="22"/>
<ellipse fill="none" stroke="#000000" cx="601" cy="-318.2793" rx="84.8868" ry="26"/>
<text text-anchor="middle" x="601" y="-314.5793" font-family="Times,serif" font-size="14.00" fill="#000000">Signature_rec</text>
</a>
</g>
</g>
<!-- ua_algebra_Signature_rect -->
<g id="node34" class="node">
<title>ua_algebra_Signature_rect</title>
<g id="a_node34"><a xlink:href="ua_algebra.html#Signature_rect" xlink:title="Signature_rect">
<ellipse fill="#f070d1" stroke="#000000" cx="601" cy="-215.2793" rx="80.6858" ry="18"/>
<text text-anchor="middle" x="601" y="-211.5793" font-family="Times,serif" font-size="14.00" fill="#000000">Signature_rect</text>
</a>
</g>
</g>
<!-- ua_algebra_Signature_rec&#45;&gt;ua_algebra_Signature_rect -->
<g id="edge46" class="edge">
<title>ua_algebra_Signature_rec&#45;&gt;ua_algebra_Signature_rect</title>
<path fill="none" stroke="#000000" d="M601,-292.0216C601,-277.2495 601,-258.7964 601,-243.6873"/>
<polygon fill="#000000" stroke="#000000" points="604.5001,-243.3771 601,-233.3771 597.5001,-243.3772 604.5001,-243.3771"/>
</g>
<!-- ua_algebra_Signature_ind -->
<g id="node33" class="node">
<title>ua_algebra_Signature_ind</title>
<g id="a_node33"><a xlink:href="ua_algebra.html#Signature_ind" xlink:title="Signature_ind">
<ellipse fill="#7fffd4" stroke="#000000" cx="418" cy="-215.2793" rx="76.0824" ry="18"/>
<ellipse fill="none" stroke="#000000" cx="418" cy="-215.2793" rx="80.0845" ry="22"/>
<ellipse fill="none" stroke="#000000" cx="418" cy="-215.2793" rx="84.0865" ry="26"/>
<text text-anchor="middle" x="418" y="-211.5793" font-family="Times,serif" font-size="14.00" fill="#000000">Signature_ind</text>
</a>
</g>
</g>
<!-- ua_algebra_Signature_ind&#45;&gt;ua_algebra_BuildSignature -->
<g id="edge47" class="edge">
<title>ua_algebra_Signature_ind&#45;&gt;ua_algebra_BuildSignature</title>
<path fill="none" stroke="#000000" d="M462.2992,-193.0087C491.6978,-178.2291 530.0484,-158.949 558.9702,-144.409"/>
<polygon fill="#000000" stroke="#000000" points="560.6434,-147.4854 568.0058,-139.8666 557.4992,-141.2312 560.6434,-147.4854"/>
</g>
<!-- ua_algebra_Signature_ind&#45;&gt;ua_algebra_Signature -->
<g id="edge48" class="edge">
<title>ua_algebra_Signature_ind&#45;&gt;ua_algebra_Signature</title>
<path fill="none" stroke="#000000" d="M479.9393,-197.5956C490.2922,-194.7454 500.9362,-191.8796 511,-189.2793 587.5701,-169.4949 676.5882,-148.7554 732.8534,-135.9235"/>
<polygon fill="#000000" stroke="#000000" points="733.6503,-139.3317 742.6241,-133.6996 732.0967,-132.5063 733.6503,-139.3317"/>
</g>
<!-- ua_algebra_Signature_rect&#45;&gt;ua_algebra_BuildSignature -->
<g id="edge49" class="edge">
<title>ua_algebra_Signature_rect&#45;&gt;ua_algebra_BuildSignature</title>
<path fill="none" stroke="#000000" d="M601,-197.1031C601,-184.1244 601,-166.4122 601,-151.5905"/>
<polygon fill="#000000" stroke="#000000" points="604.5001,-151.4178 601,-141.4178 597.5001,-151.4178 604.5001,-151.4178"/>
</g>
<!-- ua_algebra_Signature_rect&#45;&gt;ua_algebra_Signature -->
<g id="edge50" class="edge">
<title>ua_algebra_Signature_rect&#45;&gt;ua_algebra_Signature</title>
<path fill="none" stroke="#000000" d="M634.6106,-198.8315C666.5653,-183.1942 714.6662,-159.6554 748.6724,-143.0141"/>
<polygon fill="#000000" stroke="#000000" points="750.4213,-146.0549 757.865,-138.5156 747.3444,-139.7674 750.4213,-146.0549"/>
</g>
<!-- ua_algebra_SymbolType_internal -->
<g id="node37" class="node">
<title>ua_algebra_SymbolType_internal</title>
<g id="a_node37"><a xlink:href="ua_algebra.html#SymbolType_internal" xlink:title="SymbolType_internal">
<ellipse fill="#f070d1" stroke="#000000" cx="695" cy="-39.2793" rx="109.6807" ry="18"/>
<text text-anchor="middle" x="695" y="-35.5793" font-family="Times,serif" font-size="14.00" fill="#000000">SymbolType_internal</text>
</a>
</g>
</g>
<!-- ua_algebra_BuildSignature&#45;&gt;ua_algebra_SymbolType_internal -->
<g id="edge51" class="edge">
<title>ua_algebra_BuildSignature&#45;&gt;ua_algebra_SymbolType_internal</title>
<path fill="none" stroke="#000000" d="M620.935,-105.4651C634.5192,-93.326 652.6792,-77.0979 667.6172,-63.7491"/>
<polygon fill="#000000" stroke="#000000" points="669.9693,-66.341 675.0938,-57.0679 665.305,-61.1214 669.9693,-66.341"/>
</g>
<!-- ua_algebra_Signature&#45;&gt;ua_algebra_SymbolType_internal -->
<g id="edge52" class="edge">
<title>ua_algebra_Signature&#45;&gt;ua_algebra_SymbolType_internal</title>
<path fill="none" stroke="#000000" d="M769.9777,-106.2807C756.364,-94.1152 737.8266,-77.5498 722.5904,-63.9345"/>
<polygon fill="#000000" stroke="#000000" points="724.7561,-61.176 714.9673,-57.1224 720.0917,-66.3956 724.7561,-61.176"/>
</g>
</g>
</svg>
