<?xml version="1.0" encoding="UTF-8" standalone="no"?>
<!DOCTYPE svg PUBLIC "-//W3C//DTD SVG 1.1//EN"
 "http://www.w3.org/Graphics/SVG/1.1/DTD/svg11.dtd">
<!-- Generated by graphviz version 2.40.1 (20161225.0304)
 -->
<!-- Title: HoTT_Classes_theory_ua_isomorphic Pages: 1 -->
<svg width="1692pt" height="850pt"
 viewBox="0.00 0.00 1692.00 850.00" xmlns="http://www.w3.org/2000/svg" xmlns:xlink="http://www.w3.org/1999/xlink">
<g id="graph0" class="graph" transform="scale(1 1) rotate(0) translate(4 846)">
<title>HoTT_Classes_theory_ua_isomorphic</title>
<polygon fill="#ffffff" stroke="transparent" points="-4,4 -4,-846 1688,-846 1688,4 -4,4"/>
<g id="clust1" class="cluster">
<title>cluster_ua_isomorphic</title>
<polygon fill="#ffffc3" stroke="#000000" points="8,-13.0796 8,-828.9204 1676,-828.9204 1676,-13.0796 8,-13.0796"/>
<text text-anchor="middle" x="68.5" y="-813.7204" font-family="Times,serif" font-size="14.00" fill="#000000">ua_isomorphic</text>
</g>
<!-- ua_isomorphic_isequiv_isomorphic_id -->
<g id="node1" class="node">
<title>ua_isomorphic_isequiv_isomorphic_id</title>
<g id="a_node1"><a xlink:href="ua_isomorphic.html#isequiv_isomorphic_id" xlink:title="isequiv_isomorphic_id">
<ellipse fill="#f070d1" stroke="#000000" cx="1231" cy="-736.0796" rx="114.287" ry="18"/>
<ellipse fill="none" stroke="#000000" cx="1231" cy="-736.0796" rx="118.2834" ry="22"/>
<ellipse fill="none" stroke="#000000" cx="1231" cy="-736.0796" rx="122.2798" ry="26"/>
<text text-anchor="middle" x="1231" y="-732.3796" font-family="Times,serif" font-size="14.00" fill="#000000">isequiv_isomorphic_id</text>
</a>
</g>
</g>
<!-- ua_isomorphic_sect_isomorphic_id -->
<g id="node2" class="node">
<title>ua_isomorphic_sect_isomorphic_id</title>
<g id="a_node2"><a xlink:href="ua_isomorphic.html#sect_isomorphic_id" xlink:title="sect_isomorphic_id">
<ellipse fill="#f070d1" stroke="#000000" cx="964" cy="-605.0796" rx="100.9827" ry="18"/>
<text text-anchor="middle" x="964" y="-601.3796" font-family="Times,serif" font-size="14.00" fill="#000000">sect_isomorphic_id</text>
</a>
</g>
</g>
<!-- ua_isomorphic_isequiv_isomorphic_id&#45;&gt;ua_isomorphic_sect_isomorphic_id -->
<g id="edge1" class="edge">
<title>ua_isomorphic_isequiv_isomorphic_id&#45;&gt;ua_isomorphic_sect_isomorphic_id</title>
<path fill="none" stroke="#000000" d="M1182.3385,-712.2045C1132.5609,-687.7818 1055.9137,-650.1758 1007.9281,-626.6324"/>
<polygon fill="#000000" stroke="#000000" points="1009.2489,-623.3819 998.7296,-622.1192 1006.1656,-629.6662 1009.2489,-623.3819"/>
</g>
<!-- ua_isomorphic_sect_id_isomorphic -->
<g id="node3" class="node">
<title>ua_isomorphic_sect_id_isomorphic</title>
<g id="a_node3"><a xlink:href="ua_isomorphic.html#sect_id_isomorphic" xlink:title="sect_id_isomorphic">
<ellipse fill="#f070d1" stroke="#000000" cx="1365" cy="-605.0796" rx="100.9827" ry="18"/>
<text text-anchor="middle" x="1365" y="-601.3796" font-family="Times,serif" font-size="14.00" fill="#000000">sect_id_isomorphic</text>
</a>
</g>
</g>
<!-- ua_isomorphic_isequiv_isomorphic_id&#45;&gt;ua_isomorphic_sect_id_isomorphic -->
<g id="edge2" class="edge">
<title>ua_isomorphic_isequiv_isomorphic_id&#45;&gt;ua_isomorphic_sect_id_isomorphic</title>
<path fill="none" stroke="#000000" d="M1257.1547,-710.5105C1280.9342,-687.2634 1315.814,-653.1644 1339.4144,-630.0924"/>
<polygon fill="#000000" stroke="#000000" points="1341.9481,-632.5101 1346.6521,-623.0167 1337.0547,-627.5046 1341.9481,-632.5101"/>
</g>
<!-- ua_isomorphic_path_path_isomorphism_hom_id_hset -->
<g id="node4" class="node">
<title>ua_isomorphic_path_path_isomorphism_hom_id_hset</title>
<g id="a_node4"><a xlink:href="ua_isomorphic.html#path_path_isomorphism_hom_id_hset" xlink:title="path_path_isomorphism_hom_id_hset">
<ellipse fill="#f070d1" stroke="#000000" cx="626" cy="-474.0796" rx="185.7671" ry="18"/>
<text text-anchor="middle" x="626" y="-470.3796" font-family="Times,serif" font-size="14.00" fill="#000000">path_path_isomorphism_hom_id_hset</text>
</a>
</g>
</g>
<!-- ua_isomorphic_sect_isomorphic_id&#45;&gt;ua_isomorphic_path_path_isomorphism_hom_id_hset -->
<g id="edge3" class="edge">
<title>ua_isomorphic_sect_isomorphic_id&#45;&gt;ua_isomorphic_path_path_isomorphism_hom_id_hset</title>
<path fill="none" stroke="#000000" d="M921.5343,-588.621C860.5278,-564.9765 748.0479,-521.3822 680.8295,-495.3301"/>
<polygon fill="#000000" stroke="#000000" points="681.841,-491.9685 671.2519,-491.6181 679.3113,-498.4954 681.841,-491.9685"/>
</g>
<!-- ua_isomorphic_isomorphic_id -->
<g id="node9" class="node">
<title>ua_isomorphic_isomorphic_id</title>
<g id="a_node9"><a xlink:href="ua_isomorphic.html#isomorphic_id" xlink:title="isomorphic_id">
<ellipse fill="#f070d1" stroke="#000000" cx="385" cy="-330.0796" rx="76.0865" ry="18"/>
<text text-anchor="middle" x="385" y="-326.3796" font-family="Times,serif" font-size="14.00" fill="#000000">isomorphic_id</text>
</a>
</g>
</g>
<!-- ua_isomorphic_sect_isomorphic_id&#45;&gt;ua_isomorphic_isomorphic_id -->
<g id="edge4" class="edge">
<title>ua_isomorphic_sect_isomorphic_id&#45;&gt;ua_isomorphic_isomorphic_id</title>
<path fill="none" stroke="#000000" d="M936.5413,-587.6785C909.0246,-568.9987 867.1056,-536.983 841,-500.0796 826.6999,-479.8647 839.452,-464.592 821,-448.0796 700.8241,-340.5359 625.14,-400.1191 470,-356.0796 460.4248,-353.3615 450.2787,-350.3626 440.4573,-347.3969"/>
<polygon fill="#000000" stroke="#000000" points="441.363,-344.0141 430.7773,-344.4539 439.3268,-350.7114 441.363,-344.0141"/>
</g>
<!-- ua_isomorphic_id_isomorphic -->
<g id="node10" class="node">
<title>ua_isomorphic_id_isomorphic</title>
<g id="a_node10"><a xlink:href="ua_isomorphic.html#id_isomorphic" xlink:title="id_isomorphic">
<ellipse fill="#f070d1" stroke="#000000" cx="1592" cy="-474.0796" rx="76.0865" ry="18"/>
<text text-anchor="middle" x="1592" y="-470.3796" font-family="Times,serif" font-size="14.00" fill="#000000">id_isomorphic</text>
</a>
</g>
</g>
<!-- ua_isomorphic_sect_isomorphic_id&#45;&gt;ua_isomorphic_id_isomorphic -->
<g id="edge5" class="edge">
<title>ua_isomorphic_sect_isomorphic_id&#45;&gt;ua_isomorphic_id_isomorphic</title>
<path fill="none" stroke="#000000" d="M1034.0011,-592.0545C1134.5263,-573.1164 1325.4645,-536.2756 1487,-500.0796 1501.1448,-496.9101 1516.3056,-493.2882 1530.5836,-489.7749"/>
<polygon fill="#000000" stroke="#000000" points="1531.4392,-493.1689 1540.3041,-487.3669 1529.7559,-486.3742 1531.4392,-493.1689"/>
</g>
<!-- ua_isomorphic_path_def_isomorphic_id_transport_cod -->
<g id="node5" class="node">
<title>ua_isomorphic_path_def_isomorphic_id_transport_cod</title>
<g id="a_node5"><a xlink:href="ua_isomorphic.html#path_def_isomorphic_id_transport_cod" xlink:title="path_def_isomorphic_id_transport_cod">
<ellipse fill="#f070d1" stroke="#000000" cx="1042" cy="-474.0796" rx="191.9663" ry="18"/>
<text text-anchor="middle" x="1042" y="-470.3796" font-family="Times,serif" font-size="14.00" fill="#000000">path_def_isomorphic_id_transport_cod</text>
</a>
</g>
</g>
<!-- ua_isomorphic_sect_id_isomorphic&#45;&gt;ua_isomorphic_path_def_isomorphic_id_transport_cod -->
<g id="edge6" class="edge">
<title>ua_isomorphic_sect_id_isomorphic&#45;&gt;ua_isomorphic_path_def_isomorphic_id_transport_cod</title>
<path fill="none" stroke="#000000" d="M1324.0918,-588.4884C1265.8831,-564.8805 1159.1159,-521.5786 1094.9397,-495.5505"/>
<polygon fill="#000000" stroke="#000000" points="1095.9876,-492.1987 1085.4053,-491.6836 1093.3567,-498.6855 1095.9876,-492.1987"/>
</g>
<!-- ua_isomorphic_path_hset_isomorphic -->
<g id="node7" class="node">
<title>ua_isomorphic_path_hset_isomorphic</title>
<g id="a_node7"><a xlink:href="ua_isomorphic.html#path_hset_isomorphic" xlink:title="path_hset_isomorphic">
<ellipse fill="#f070d1" stroke="#000000" cx="1365" cy="-474.0796" rx="113.18" ry="18"/>
<text text-anchor="middle" x="1365" y="-470.3796" font-family="Times,serif" font-size="14.00" fill="#000000">path_hset_isomorphic</text>
</a>
</g>
</g>
<!-- ua_isomorphic_sect_id_isomorphic&#45;&gt;ua_isomorphic_path_hset_isomorphic -->
<g id="edge7" class="edge">
<title>ua_isomorphic_sect_id_isomorphic&#45;&gt;ua_isomorphic_path_hset_isomorphic</title>
<path fill="none" stroke="#000000" d="M1365,-586.8646C1365,-564.9652 1365,-527.9657 1365,-502.3459"/>
<polygon fill="#000000" stroke="#000000" points="1368.5001,-502.1399 1365,-492.1399 1361.5001,-502.1399 1368.5001,-502.1399"/>
</g>
<!-- ua_isomorphic_sect_id_isomorphic&#45;&gt;ua_isomorphic_id_isomorphic -->
<g id="edge8" class="edge">
<title>ua_isomorphic_sect_id_isomorphic&#45;&gt;ua_isomorphic_id_isomorphic</title>
<path fill="none" stroke="#000000" d="M1395.1438,-587.6838C1436.1009,-564.0478 1509.3324,-521.7865 1554.0047,-496.0064"/>
<polygon fill="#000000" stroke="#000000" points="1555.8993,-498.9541 1562.8111,-490.9243 1552.4004,-492.8913 1555.8993,-498.9541"/>
</g>
<!-- ua_isomorphic_def_isomorphic -->
<g id="node15" class="node">
<title>ua_isomorphic_def_isomorphic</title>
<g id="a_node15"><a xlink:href="ua_isomorphic.html#def_isomorphic" xlink:title="def_isomorphic">
<ellipse fill="#f070d1" stroke="#000000" cx="1123" cy="-330.0796" rx="81.7856" ry="18"/>
<text text-anchor="middle" x="1123" y="-326.3796" font-family="Times,serif" font-size="14.00" fill="#000000">def_isomorphic</text>
</a>
</g>
</g>
<!-- ua_isomorphic_sect_id_isomorphic&#45;&gt;ua_isomorphic_def_isomorphic -->
<g id="edge9" class="edge">
<title>ua_isomorphic_sect_id_isomorphic&#45;&gt;ua_isomorphic_def_isomorphic</title>
<path fill="none" stroke="#000000" d="M1395.8456,-587.9316C1443.2451,-559.3583 1524.7564,-500.01 1487,-448.0796 1452.5237,-400.6606 1292.555,-362.5362 1196.5286,-343.4311"/>
<polygon fill="#000000" stroke="#000000" points="1197.0698,-339.9706 1186.5823,-341.4746 1195.7187,-346.839 1197.0698,-339.9706"/>
</g>
<!-- ua_isomorphic_path_def_isomorphic_id_transport_cod&#45;&gt;ua_isomorphic_isomorphic_id -->
<g id="edge10" class="edge">
<title>ua_isomorphic_path_def_isomorphic_id_transport_cod&#45;&gt;ua_isomorphic_isomorphic_id</title>
<path fill="none" stroke="#000000" d="M951.7447,-458.1578C838.5177,-437.5665 638.7287,-399.1887 470,-356.0796 460.132,-353.5584 449.7024,-350.609 439.6568,-347.6199"/>
<polygon fill="#000000" stroke="#000000" points="440.3591,-344.1758 429.7741,-344.6318 438.3332,-350.8762 440.3591,-344.1758"/>
</g>
<!-- ua_isomorphic_path_def_isomorphic_id_transport_dom -->
<g id="node6" class="node">
<title>ua_isomorphic_path_def_isomorphic_id_transport_dom</title>
<g id="a_node6"><a xlink:href="ua_isomorphic.html#path_def_isomorphic_id_transport_dom" xlink:title="path_def_isomorphic_id_transport_dom">
<ellipse fill="#f070d1" stroke="#000000" cx="219" cy="-474.0796" rx="194.9661" ry="18"/>
<ellipse fill="none" stroke="#000000" cx="219" cy="-474.0796" rx="198.9657" ry="22"/>
<ellipse fill="none" stroke="#000000" cx="219" cy="-474.0796" rx="202.9654" ry="26"/>
<text text-anchor="middle" x="219" y="-470.3796" font-family="Times,serif" font-size="14.00" fill="#000000">path_def_isomorphic_id_transport_dom</text>
</a>
</g>
</g>
<!-- ua_isomorphic_path_def_isomorphic_id_transport_dom&#45;&gt;ua_isomorphic_isomorphic_id -->
<g id="edge11" class="edge">
<title>ua_isomorphic_path_def_isomorphic_id_transport_dom&#45;&gt;ua_isomorphic_isomorphic_id</title>
<path fill="none" stroke="#000000" d="M248.6775,-448.3353C279.4959,-421.6012 327.3232,-380.1125 357.3637,-354.0532"/>
<polygon fill="#000000" stroke="#000000" points="359.7058,-356.655 364.9662,-347.4583 355.1188,-351.3673 359.7058,-356.655"/>
</g>
<!-- ua_isomorphic_path_isomorphic -->
<g id="node8" class="node">
<title>ua_isomorphic_path_isomorphic</title>
<g id="a_node8"><a xlink:href="ua_isomorphic.html#path_isomorphic" xlink:title="path_isomorphic">
<ellipse fill="#f070d1" stroke="#000000" cx="567" cy="-330.0796" rx="88.2844" ry="18"/>
<text text-anchor="middle" x="567" y="-326.3796" font-family="Times,serif" font-size="14.00" fill="#000000">path_isomorphic</text>
</a>
</g>
</g>
<!-- ua_isomorphic_path_hset_isomorphic&#45;&gt;ua_isomorphic_path_isomorphic -->
<g id="edge12" class="edge">
<title>ua_isomorphic_path_hset_isomorphic&#45;&gt;ua_isomorphic_path_isomorphic</title>
<path fill="none" stroke="#000000" d="M1299.2774,-459.4166C1281.0865,-455.5373 1261.3103,-451.4855 1243,-448.0796 987.264,-400.5098 919.4843,-409.9456 665,-356.0796 653.0933,-353.5594 640.4697,-350.5039 628.3849,-347.3862"/>
<polygon fill="#000000" stroke="#000000" points="628.9489,-343.9158 618.388,-344.7631 627.1723,-350.6866 628.9489,-343.9158"/>
</g>
<!-- ua_isomorphic_issig_isomorphic -->
<g id="node11" class="node">
<title>ua_isomorphic_issig_isomorphic</title>
<g id="a_node11"><a xlink:href="ua_isomorphic.html#issig_isomorphic" xlink:title="issig_isomorphic">
<ellipse fill="#f070d1" stroke="#000000" cx="265" cy="-186.0796" rx="89.0842" ry="18"/>
<text text-anchor="middle" x="265" y="-182.3796" font-family="Times,serif" font-size="14.00" fill="#000000">issig_isomorphic</text>
</a>
</g>
</g>
<!-- ua_isomorphic_path_isomorphic&#45;&gt;ua_isomorphic_issig_isomorphic -->
<g id="edge13" class="edge">
<title>ua_isomorphic_path_isomorphic&#45;&gt;ua_isomorphic_issig_isomorphic</title>
<path fill="none" stroke="#000000" d="M532.0617,-313.4203C476.9414,-287.1378 369.8643,-236.0811 309.3816,-207.2417"/>
<polygon fill="#000000" stroke="#000000" points="310.6224,-203.9559 300.0896,-202.8111 307.6096,-210.2744 310.6224,-203.9559"/>
</g>
<!-- ua_isomorphic_BuildIsomorphic -->
<g id="node20" class="node">
<title>ua_isomorphic_BuildIsomorphic</title>
<g id="a_node20"><a xlink:href="ua_isomorphic.html#BuildIsomorphic" xlink:title="BuildIsomorphic">
<ellipse fill="#7faaff" stroke="#000000" cx="459" cy="-56.0796" rx="87.9851" ry="18"/>
<text text-anchor="middle" x="459" y="-52.3796" font-family="Times,serif" font-size="14.00" fill="#000000">BuildIsomorphic</text>
</a>
</g>
</g>
<!-- ua_isomorphic_isomorphic_id&#45;&gt;ua_isomorphic_BuildIsomorphic -->
<g id="edge14" class="edge">
<title>ua_isomorphic_isomorphic_id&#45;&gt;ua_isomorphic_BuildIsomorphic</title>
<path fill="none" stroke="#000000" d="M336.3337,-316.175C257.3171,-291.0841 114.9221,-233.9104 167,-160.0796 193.0651,-123.1271 310.7539,-89.8706 388.5323,-71.3831"/>
<polygon fill="#000000" stroke="#000000" points="389.348,-74.7868 398.2827,-69.0929 387.7473,-67.9723 389.348,-74.7868"/>
</g>
<!-- ua_isomorphic_Isomorphic -->
<g id="node21" class="node">
<title>ua_isomorphic_Isomorphic</title>
<g id="a_node21"><a xlink:href="ua_isomorphic.html#Isomorphic" xlink:title="Isomorphic">
<ellipse fill="#e2cdfa" stroke="#000000" cx="975" cy="-56.0796" rx="63.8893" ry="18"/>
<text text-anchor="middle" x="975" y="-52.3796" font-family="Times,serif" font-size="14.00" fill="#000000">Isomorphic</text>
</a>
</g>
</g>
<!-- ua_isomorphic_isomorphic_id&#45;&gt;ua_isomorphic_Isomorphic -->
<g id="edge15" class="edge">
<title>ua_isomorphic_isomorphic_id&#45;&gt;ua_isomorphic_Isomorphic</title>
<path fill="none" stroke="#000000" d="M429.7322,-315.36C442.6444,-311.3939 456.8102,-307.3116 470,-304.0796 687.3377,-250.8236 816.524,-379.4916 965,-212.0796 981.2064,-193.8063 979.5666,-124.1079 977.1645,-84.3335"/>
<polygon fill="#000000" stroke="#000000" points="980.6475,-83.9591 976.4977,-74.2108 973.6626,-84.4192 980.6475,-83.9591"/>
</g>
<!-- ua_isomorphic_id_isomorphic&#45;&gt;ua_isomorphic_Isomorphic -->
<g id="edge16" class="edge">
<title>ua_isomorphic_id_isomorphic&#45;&gt;ua_isomorphic_Isomorphic</title>
<path fill="none" stroke="#000000" d="M1572.5561,-456.5079C1529.5486,-416.7476 1425.2467,-315.2826 1363,-212.0796 1350.2112,-190.8762 1361.2936,-176.7673 1343,-160.0796 1298.5739,-119.5533 1132.7564,-84.3063 1039.5892,-67.1594"/>
<polygon fill="#000000" stroke="#000000" points="1040.1692,-63.7076 1029.7037,-65.3578 1038.9141,-70.5941 1040.1692,-63.7076"/>
</g>
<!-- ua_isomorphic_SigIsomorphic -->
<g id="node12" class="node">
<title>ua_isomorphic_SigIsomorphic</title>
<g id="a_node12"><a xlink:href="ua_isomorphic.html#SigIsomorphic" xlink:title="SigIsomorphic">
<ellipse fill="#f070d1" stroke="#000000" cx="265" cy="-56.0796" rx="78.7863" ry="18"/>
<text text-anchor="middle" x="265" y="-52.3796" font-family="Times,serif" font-size="14.00" fill="#000000">SigIsomorphic</text>
</a>
</g>
</g>
<!-- ua_isomorphic_issig_isomorphic&#45;&gt;ua_isomorphic_SigIsomorphic -->
<g id="edge17" class="edge">
<title>ua_isomorphic_issig_isomorphic&#45;&gt;ua_isomorphic_SigIsomorphic</title>
<path fill="none" stroke="#000000" d="M265,-168.0037C265,-146.3935 265,-109.9664 265,-84.5597"/>
<polygon fill="#000000" stroke="#000000" points="268.5001,-84.4211 265,-74.4211 261.5001,-84.4212 268.5001,-84.4211"/>
</g>
<!-- ua_isomorphic_issig_isomorphic&#45;&gt;ua_isomorphic_BuildIsomorphic -->
<g id="edge18" class="edge">
<title>ua_isomorphic_issig_isomorphic&#45;&gt;ua_isomorphic_BuildIsomorphic</title>
<path fill="none" stroke="#000000" d="M290.7617,-168.8166C325.113,-145.7977 386.0294,-104.9774 424.371,-79.2846"/>
<polygon fill="#000000" stroke="#000000" points="426.7728,-81.8884 433.1318,-73.414 422.8761,-76.0732 426.7728,-81.8884"/>
</g>
<!-- ua_isomorphic_issig_isomorphic&#45;&gt;ua_isomorphic_Isomorphic -->
<g id="edge19" class="edge">
<title>ua_isomorphic_issig_isomorphic&#45;&gt;ua_isomorphic_Isomorphic</title>
<path fill="none" stroke="#000000" d="M316.9176,-171.3635C331.7374,-167.4196 347.9486,-163.348 363,-160.0796 559.3456,-117.4434 794.2828,-81.7512 907.4744,-65.5006"/>
<polygon fill="#000000" stroke="#000000" points="908.311,-68.9167 917.7146,-64.0359 907.3197,-61.9872 908.311,-68.9167"/>
</g>
<!-- ua_isomorphic_is_isomorphism_isomorphic -->
<g id="node13" class="node">
<title>ua_isomorphic_is_isomorphism_isomorphic</title>
<g id="a_node13"><a xlink:href="ua_isomorphic.html#is_isomorphism_isomorphic" xlink:title="is_isomorphism_isomorphic">
<ellipse fill="#f070d1" stroke="#000000" cx="1520" cy="-186.0796" rx="139.9627" ry="18"/>
<ellipse fill="none" stroke="#000000" cx="1520" cy="-186.0796" rx="143.9691" ry="22"/>
<ellipse fill="none" stroke="#000000" cx="1520" cy="-186.0796" rx="147.9756" ry="26"/>
<text text-anchor="middle" x="1520" y="-182.3796" font-family="Times,serif" font-size="14.00" fill="#000000">is_isomorphism_isomorphic</text>
</a>
</g>
</g>
<!-- ua_isomorphic_is_isomorphism_isomorphic&#45;&gt;ua_isomorphic_Isomorphic -->
<g id="edge20" class="edge">
<title>ua_isomorphic_is_isomorphism_isomorphic&#45;&gt;ua_isomorphic_Isomorphic</title>
<path fill="none" stroke="#000000" d="M1432.1337,-165.1207C1320.1797,-138.416 1129.728,-92.9872 1033.8459,-70.1163"/>
<polygon fill="#000000" stroke="#000000" points="1034.5686,-66.6905 1024.0293,-67.7747 1032.9443,-73.4995 1034.5686,-66.6905"/>
</g>
<!-- ua_isomorphic_is_homomorphism_isomorphic -->
<g id="node14" class="node">
<title>ua_isomorphic_is_homomorphism_isomorphic</title>
<g id="a_node14"><a xlink:href="ua_isomorphic.html#is_homomorphism_isomorphic" xlink:title="is_homomorphism_isomorphic">
<ellipse fill="#f070d1" stroke="#000000" cx="1174" cy="-186.0796" rx="152.1687" ry="18"/>
<ellipse fill="none" stroke="#000000" cx="1174" cy="-186.0796" rx="156.1709" ry="22"/>
<ellipse fill="none" stroke="#000000" cx="1174" cy="-186.0796" rx="160.1731" ry="26"/>
<text text-anchor="middle" x="1174" y="-182.3796" font-family="Times,serif" font-size="14.00" fill="#000000">is_homomorphism_isomorphic</text>
</a>
</g>
</g>
<!-- ua_isomorphic_is_homomorphism_isomorphic&#45;&gt;ua_isomorphic_Isomorphic -->
<g id="edge21" class="edge">
<title>ua_isomorphic_is_homomorphism_isomorphic&#45;&gt;ua_isomorphic_Isomorphic</title>
<path fill="none" stroke="#000000" d="M1135.1584,-160.7057C1098.454,-136.7279 1043.9415,-101.1168 1008.9378,-78.25"/>
<polygon fill="#000000" stroke="#000000" points="1010.7677,-75.2648 1000.4816,-72.7259 1006.9393,-81.1252 1010.7677,-75.2648"/>
</g>
<!-- ua_isomorphic_def_isomorphic&#45;&gt;ua_isomorphic_Isomorphic -->
<g id="edge22" class="edge">
<title>ua_isomorphic_def_isomorphic&#45;&gt;ua_isomorphic_Isomorphic</title>
<path fill="none" stroke="#000000" d="M1098.351,-312.7081C1070.9791,-292.0139 1027.6717,-254.8218 1005,-212.0796 983.4036,-171.3647 977.2189,-117.3316 975.5277,-84.7169"/>
<polygon fill="#000000" stroke="#000000" points="979.0168,-84.376 975.1107,-74.5275 972.0227,-84.6623 979.0168,-84.376"/>
</g>
<!-- ua_isomorphic_Isomorphic_sind -->
<g id="node16" class="node">
<title>ua_isomorphic_Isomorphic_sind</title>
<g id="a_node16"><a xlink:href="ua_isomorphic.html#Isomorphic_sind" xlink:title="Isomorphic_sind">
<ellipse fill="#f070d1" stroke="#000000" cx="860" cy="-186.0796" rx="87.9648" ry="18"/>
<ellipse fill="none" stroke="#000000" cx="860" cy="-186.0796" rx="91.9749" ry="22"/>
<ellipse fill="none" stroke="#000000" cx="860" cy="-186.0796" rx="95.985" ry="26"/>
<text text-anchor="middle" x="860" y="-182.3796" font-family="Times,serif" font-size="14.00" fill="#000000">Isomorphic_sind</text>
</a>
</g>
</g>
<!-- ua_isomorphic_Isomorphic_sind&#45;&gt;ua_isomorphic_BuildIsomorphic -->
<g id="edge23" class="edge">
<title>ua_isomorphic_Isomorphic_sind&#45;&gt;ua_isomorphic_BuildIsomorphic</title>
<path fill="none" stroke="#000000" d="M798.2226,-166.052C721.1642,-141.0705 590.4847,-98.7056 515.816,-74.4988"/>
<polygon fill="#000000" stroke="#000000" points="516.6992,-71.1058 506.1072,-71.3513 514.5405,-77.7647 516.6992,-71.1058"/>
</g>
<!-- ua_isomorphic_Isomorphic_sind&#45;&gt;ua_isomorphic_Isomorphic -->
<g id="edge24" class="edge">
<title>ua_isomorphic_Isomorphic_sind&#45;&gt;ua_isomorphic_Isomorphic</title>
<path fill="none" stroke="#000000" d="M882.4462,-160.7057C902.6773,-137.8357 932.2705,-104.3825 952.514,-81.4986"/>
<polygon fill="#000000" stroke="#000000" points="955.2494,-83.6888 959.2537,-73.8798 950.0064,-79.0508 955.2494,-83.6888"/>
</g>
<!-- ua_isomorphic_Isomorphic_rec -->
<g id="node17" class="node">
<title>ua_isomorphic_Isomorphic_rec</title>
<g id="a_node17"><a xlink:href="ua_isomorphic.html#Isomorphic_rec" xlink:title="Isomorphic_rec">
<ellipse fill="#f070d1" stroke="#000000" cx="765" cy="-330.0796" rx="83.3687" ry="18"/>
<ellipse fill="none" stroke="#000000" cx="765" cy="-330.0796" rx="87.3772" ry="22"/>
<ellipse fill="none" stroke="#000000" cx="765" cy="-330.0796" rx="91.3856" ry="26"/>
<text text-anchor="middle" x="765" y="-326.3796" font-family="Times,serif" font-size="14.00" fill="#000000">Isomorphic_rec</text>
</a>
</g>
</g>
<!-- ua_isomorphic_Isomorphic_rect -->
<g id="node19" class="node">
<title>ua_isomorphic_Isomorphic_rect</title>
<g id="a_node19"><a xlink:href="ua_isomorphic.html#Isomorphic_rect" xlink:title="Isomorphic_rect">
<ellipse fill="#f070d1" stroke="#000000" cx="459" cy="-186.0796" rx="87.1846" ry="18"/>
<text text-anchor="middle" x="459" y="-182.3796" font-family="Times,serif" font-size="14.00" fill="#000000">Isomorphic_rect</text>
</a>
</g>
</g>
<!-- ua_isomorphic_Isomorphic_rec&#45;&gt;ua_isomorphic_Isomorphic_rect -->
<g id="edge25" class="edge">
<title>ua_isomorphic_Isomorphic_rec&#45;&gt;ua_isomorphic_Isomorphic_rect</title>
<path fill="none" stroke="#000000" d="M717.5232,-307.7376C659.0046,-280.1994 560.3313,-233.7649 503.3082,-206.9305"/>
<polygon fill="#000000" stroke="#000000" points="504.7246,-203.7289 494.1861,-202.6378 501.744,-210.0627 504.7246,-203.7289"/>
</g>
<!-- ua_isomorphic_Isomorphic_ind -->
<g id="node18" class="node">
<title>ua_isomorphic_Isomorphic_ind</title>
<g id="a_node18"><a xlink:href="ua_isomorphic.html#Isomorphic_ind" xlink:title="Isomorphic_ind">
<ellipse fill="#7fffd4" stroke="#000000" cx="655" cy="-186.0796" rx="83.3687" ry="18"/>
<ellipse fill="none" stroke="#000000" cx="655" cy="-186.0796" rx="87.3772" ry="22"/>
<ellipse fill="none" stroke="#000000" cx="655" cy="-186.0796" rx="91.3856" ry="26"/>
<text text-anchor="middle" x="655" y="-182.3796" font-family="Times,serif" font-size="14.00" fill="#000000">Isomorphic_ind</text>
</a>
</g>
</g>
<!-- ua_isomorphic_Isomorphic_ind&#45;&gt;ua_isomorphic_BuildIsomorphic -->
<g id="edge26" class="edge">
<title>ua_isomorphic_Isomorphic_ind&#45;&gt;ua_isomorphic_BuildIsomorphic</title>
<path fill="none" stroke="#000000" d="M618.5932,-161.9323C582.8731,-138.2403 528.7934,-102.3712 493.6799,-79.0816"/>
<polygon fill="#000000" stroke="#000000" points="495.4522,-76.0572 485.1841,-73.4466 491.583,-81.8908 495.4522,-76.0572"/>
</g>
<!-- ua_isomorphic_Isomorphic_ind&#45;&gt;ua_isomorphic_Isomorphic -->
<g id="edge27" class="edge">
<title>ua_isomorphic_Isomorphic_ind&#45;&gt;ua_isomorphic_Isomorphic</title>
<path fill="none" stroke="#000000" d="M707.4832,-164.7583C769.1246,-139.7165 870.3925,-98.5764 929.0554,-74.7446"/>
<polygon fill="#000000" stroke="#000000" points="930.495,-77.9376 938.4424,-70.9312 927.8603,-71.4523 930.495,-77.9376"/>
</g>
<!-- ua_isomorphic_Isomorphic_rect&#45;&gt;ua_isomorphic_BuildIsomorphic -->
<g id="edge28" class="edge">
<title>ua_isomorphic_Isomorphic_rect&#45;&gt;ua_isomorphic_BuildIsomorphic</title>
<path fill="none" stroke="#000000" d="M459,-168.0037C459,-146.3935 459,-109.9664 459,-84.5597"/>
<polygon fill="#000000" stroke="#000000" points="462.5001,-84.4211 459,-74.4211 455.5001,-84.4212 462.5001,-84.4211"/>
</g>
<!-- ua_isomorphic_Isomorphic_rect&#45;&gt;ua_isomorphic_Isomorphic -->
<g id="edge29" class="edge">
<title>ua_isomorphic_Isomorphic_rect&#45;&gt;ua_isomorphic_Isomorphic</title>
<path fill="none" stroke="#000000" d="M511.7609,-171.5689C525.7973,-167.7691 540.9596,-163.7188 555,-160.0796 683.6583,-126.7322 835.0991,-89.8019 916.3731,-70.1706"/>
<polygon fill="#000000" stroke="#000000" points="917.5094,-73.4969 926.409,-67.7483 915.8669,-66.6923 917.5094,-73.4969"/>
</g>
</g>
</svg>
