<?xml version="1.0" encoding="UTF-8" standalone="no"?>
<!DOCTYPE svg PUBLIC "-//W3C//DTD SVG 1.1//EN"
 "http://www.w3.org/Graphics/SVG/1.1/DTD/svg11.dtd">
<!-- Generated by graphviz version 2.40.1 (20161225.0304)
 -->
<!-- Title: HoTT_Homotopy_Join Pages: 1 -->
<svg width="1543pt" height="776pt"
 viewBox="0.00 0.00 1543.00 775.50" xmlns="http://www.w3.org/2000/svg" xmlns:xlink="http://www.w3.org/1999/xlink">
<g id="graph0" class="graph" transform="scale(1 1) rotate(0) translate(4 771.5)">
<title>HoTT_Homotopy_Join</title>
<polygon fill="#ffffff" stroke="transparent" points="-4,4 -4,-771.5 1539,-771.5 1539,4 -4,4"/>
<g id="clust1" class="cluster">
<title>cluster_Join</title>
<polygon fill="#ffffc3" stroke="#000000" points="8,-10.1824 8,-757.3176 1527,-757.3176 1527,-10.1824 8,-10.1824"/>
<text text-anchor="middle" x="30" y="-742.1176" font-family="Times,serif" font-size="14.00" fill="#000000">Join</text>
</g>
<!-- Join_Join_power -->
<g id="node1" class="node">
<title>Join_Join_power</title>
<g id="a_node1"><a xlink:href="Join.html#Join_power" xlink:title="Join_power">
<ellipse fill="#f070d1" stroke="#000000" cx="937" cy="-145.1824" rx="62.3011" ry="18"/>
<ellipse fill="none" stroke="#000000" cx="937" cy="-145.1824" rx="66.2951" ry="22"/>
<ellipse fill="none" stroke="#000000" cx="937" cy="-145.1824" rx="70.2891" ry="26"/>
<text text-anchor="middle" x="937" y="-141.4824" font-family="Times,serif" font-size="14.00" fill="#000000">Join_power</text>
</a>
</g>
</g>
<!-- Join_Join -->
<g id="node27" class="node">
<title>Join_Join</title>
<g id="a_node27"><a xlink:href="Join.html#Join" xlink:title="Join">
<ellipse fill="#f070d1" stroke="#000000" cx="798" cy="-43.1824" rx="28.6953" ry="18"/>
<text text-anchor="middle" x="798" y="-39.4824" font-family="Times,serif" font-size="14.00" fill="#000000">Join</text>
</a>
</g>
</g>
<!-- Join_Join_power&#45;&gt;Join_Join -->
<g id="edge1" class="edge">
<title>Join_Join_power&#45;&gt;Join_Join</title>
<path fill="none" stroke="#000000" d="M905.1106,-121.7816C880.9462,-104.0494 848.1012,-79.9474 825.1771,-63.1253"/>
<polygon fill="#000000" stroke="#000000" points="827.0486,-60.1574 816.9157,-57.063 822.9073,-65.801 827.0486,-60.1574"/>
</g>
<!-- Join_diamond_twist -->
<g id="node2" class="node">
<title>Join_diamond_twist</title>
<g id="a_node2"><a xlink:href="Join.html#diamond_twist" xlink:title="diamond_twist">
<ellipse fill="#f070d1" stroke="#000000" cx="1161" cy="-685.1824" rx="79.1053" ry="18"/>
<ellipse fill="none" stroke="#000000" cx="1161" cy="-685.1824" rx="83.0959" ry="22"/>
<ellipse fill="none" stroke="#000000" cx="1161" cy="-685.1824" rx="87.0864" ry="26"/>
<text text-anchor="middle" x="1161" y="-681.4824" font-family="Times,serif" font-size="14.00" fill="#000000">diamond_twist</text>
</a>
</g>
</g>
<!-- Join_diamond_symm -->
<g id="node3" class="node">
<title>Join_diamond_symm</title>
<g id="a_node3"><a xlink:href="Join.html#diamond_symm" xlink:title="diamond_symm">
<ellipse fill="#f070d1" stroke="#000000" cx="1161" cy="-573.1824" rx="83.3857" ry="18"/>
<text text-anchor="middle" x="1161" y="-569.4824" font-family="Times,serif" font-size="14.00" fill="#000000">diamond_symm</text>
</a>
</g>
</g>
<!-- Join_diamond_twist&#45;&gt;Join_diamond_symm -->
<g id="edge2" class="edge">
<title>Join_diamond_twist&#45;&gt;Join_diamond_symm</title>
<path fill="none" stroke="#000000" d="M1161,-658.9234C1161,-641.6825 1161,-619.1433 1161,-601.5011"/>
<polygon fill="#000000" stroke="#000000" points="1164.5001,-601.2403 1161,-591.2403 1157.5001,-601.2404 1164.5001,-601.2403"/>
</g>
<!-- Join_diamond_v -->
<g id="node4" class="node">
<title>Join_diamond_v</title>
<g id="a_node4"><a xlink:href="Join.html#diamond_v" xlink:title="diamond_v">
<ellipse fill="#f070d1" stroke="#000000" cx="1242" cy="-461.1824" rx="61.1893" ry="18"/>
<text text-anchor="middle" x="1242" y="-457.4824" font-family="Times,serif" font-size="14.00" fill="#000000">diamond_v</text>
</a>
</g>
</g>
<!-- Join_diamond_symm&#45;&gt;Join_diamond_v -->
<g id="edge3" class="edge">
<title>Join_diamond_symm&#45;&gt;Join_diamond_v</title>
<path fill="none" stroke="#000000" d="M1174.0141,-555.1877C1187.2991,-536.8182 1208.0553,-508.1183 1223.1404,-487.2599"/>
<polygon fill="#000000" stroke="#000000" points="1225.9941,-489.2866 1229.0182,-479.1325 1220.322,-485.1844 1225.9941,-489.2866"/>
</g>
<!-- Join_diamond_h -->
<g id="node5" class="node">
<title>Join_diamond_h</title>
<g id="a_node5"><a xlink:href="Join.html#diamond_h" xlink:title="diamond_h">
<ellipse fill="#f070d1" stroke="#000000" cx="1101" cy="-461.1824" rx="61.99" ry="18"/>
<text text-anchor="middle" x="1101" y="-457.4824" font-family="Times,serif" font-size="14.00" fill="#000000">diamond_h</text>
</a>
</g>
</g>
<!-- Join_diamond_symm&#45;&gt;Join_diamond_h -->
<g id="edge4" class="edge">
<title>Join_diamond_symm&#45;&gt;Join_diamond_h</title>
<path fill="none" stroke="#000000" d="M1151.36,-555.1877C1141.6504,-537.0631 1126.5533,-508.8818 1115.4193,-488.0984"/>
<polygon fill="#000000" stroke="#000000" points="1118.4236,-486.2945 1110.6161,-479.1325 1112.2532,-489.6001 1118.4236,-486.2945"/>
</g>
<!-- Join_Diamond -->
<g id="node6" class="node">
<title>Join_Diamond</title>
<g id="a_node6"><a xlink:href="Join.html#Diamond" xlink:title="Diamond">
<ellipse fill="#f070d1" stroke="#000000" cx="1101" cy="-349.1824" rx="51.9908" ry="18"/>
<text text-anchor="middle" x="1101" y="-345.4824" font-family="Times,serif" font-size="14.00" fill="#000000">Diamond</text>
</a>
</g>
</g>
<!-- Join_diamond_v&#45;&gt;Join_Diamond -->
<g id="edge5" class="edge">
<title>Join_diamond_v&#45;&gt;Join_Diamond</title>
<path fill="none" stroke="#000000" d="M1220.5851,-444.172C1196.4284,-424.9837 1157.0077,-393.6708 1130.0796,-372.2811"/>
<polygon fill="#000000" stroke="#000000" points="1132.1617,-369.4652 1122.1544,-365.9859 1127.8078,-374.9464 1132.1617,-369.4652"/>
</g>
<!-- Join_diamond_h&#45;&gt;Join_Diamond -->
<g id="edge6" class="edge">
<title>Join_diamond_h&#45;&gt;Join_Diamond</title>
<path fill="none" stroke="#000000" d="M1101,-442.6879C1101,-424.9106 1101,-397.8008 1101,-377.3411"/>
<polygon fill="#000000" stroke="#000000" points="1104.5001,-377.3328 1101,-367.3328 1097.5001,-377.3328 1104.5001,-377.3328"/>
</g>
<!-- Join_jglue -->
<g id="node24" class="node">
<title>Join_jglue</title>
<g id="a_node24"><a xlink:href="Join.html#jglue" xlink:title="jglue">
<ellipse fill="#f070d1" stroke="#000000" cx="798" cy="-247.1824" rx="33.5952" ry="18"/>
<text text-anchor="middle" x="798" y="-243.4824" font-family="Times,serif" font-size="14.00" fill="#000000">jglue</text>
</a>
</g>
</g>
<!-- Join_Diamond&#45;&gt;Join_jglue -->
<g id="edge7" class="edge">
<title>Join_Diamond&#45;&gt;Join_jglue</title>
<path fill="none" stroke="#000000" d="M1068.9475,-334.8194C1059.6819,-330.859 1049.5039,-326.6905 1040,-323.1824 969.8043,-297.2719 886.1811,-272.2759 837.8783,-258.3948"/>
<polygon fill="#000000" stroke="#000000" points="838.7016,-254.99 828.1246,-255.6051 836.7766,-261.7202 838.7016,-254.99"/>
</g>
<!-- Join_isconnected_join -->
<g id="node7" class="node">
<title>Join_isconnected_join</title>
<g id="a_node7"><a xlink:href="Join.html#isconnected_join" xlink:title="isconnected_join">
<ellipse fill="#f070d1" stroke="#000000" cx="1402" cy="-349.1824" rx="89.0807" ry="18"/>
<ellipse fill="none" stroke="#000000" cx="1402" cy="-349.1824" rx="93.0825" ry="22"/>
<ellipse fill="none" stroke="#000000" cx="1402" cy="-349.1824" rx="97.0842" ry="26"/>
<text text-anchor="middle" x="1402" y="-345.4824" font-family="Times,serif" font-size="14.00" fill="#000000">isconnected_join</text>
</a>
</g>
</g>
<!-- Join_isconnected_join&#45;&gt;Join_jglue -->
<g id="edge8" class="edge">
<title>Join_isconnected_join&#45;&gt;Join_jglue</title>
<path fill="none" stroke="#000000" d="M1332.0642,-331.0951C1320.0744,-328.2622 1307.7089,-325.5071 1296,-323.1824 1128.865,-290 927.6839,-263.3053 841.084,-252.4427"/>
<polygon fill="#000000" stroke="#000000" points="841.4575,-248.9623 831.101,-251.1971 840.5907,-255.9084 841.4575,-248.9623"/>
</g>
<!-- Join_equiv_join_hor -->
<g id="node8" class="node">
<title>Join_equiv_join_hor</title>
<g id="a_node8"><a xlink:href="Join.html#equiv_join_hor" xlink:title="equiv_join_hor">
<ellipse fill="#f070d1" stroke="#000000" cx="1410" cy="-573.1824" rx="78.7731" ry="18"/>
<ellipse fill="none" stroke="#000000" cx="1410" cy="-573.1824" rx="82.7797" ry="22"/>
<ellipse fill="none" stroke="#000000" cx="1410" cy="-573.1824" rx="86.7863" ry="26"/>
<text text-anchor="middle" x="1410" y="-569.4824" font-family="Times,serif" font-size="14.00" fill="#000000">equiv_join_hor</text>
</a>
</g>
</g>
<!-- Join_ishprop_join -->
<g id="node10" class="node">
<title>Join_ishprop_join</title>
<g id="a_node10"><a xlink:href="Join.html#ishprop_join" xlink:title="ishprop_join">
<ellipse fill="#f070d1" stroke="#000000" cx="1410" cy="-461.1824" rx="67.6881" ry="18"/>
<text text-anchor="middle" x="1410" y="-457.4824" font-family="Times,serif" font-size="14.00" fill="#000000">ishprop_join</text>
</a>
</g>
</g>
<!-- Join_equiv_join_hor&#45;&gt;Join_ishprop_join -->
<g id="edge9" class="edge">
<title>Join_equiv_join_hor&#45;&gt;Join_ishprop_join</title>
<path fill="none" stroke="#000000" d="M1410,-546.9234C1410,-529.6825 1410,-507.1433 1410,-489.5011"/>
<polygon fill="#000000" stroke="#000000" points="1413.5001,-489.2403 1410,-479.2403 1406.5001,-489.2404 1413.5001,-489.2403"/>
</g>
<!-- Join_equiv_into_hprop -->
<g id="node9" class="node">
<title>Join_equiv_into_hprop</title>
<g id="a_node9"><a xlink:href="Join.html#equiv_into_hprop" xlink:title="equiv_into_hprop">
<ellipse fill="#f070d1" stroke="#000000" cx="115" cy="-349.1824" rx="90.9845" ry="18"/>
<ellipse fill="none" stroke="#000000" cx="115" cy="-349.1824" rx="94.9842" ry="22"/>
<ellipse fill="none" stroke="#000000" cx="115" cy="-349.1824" rx="98.9839" ry="26"/>
<text text-anchor="middle" x="115" y="-345.4824" font-family="Times,serif" font-size="14.00" fill="#000000">equiv_into_hprop</text>
</a>
</g>
</g>
<!-- Join_Join_rec -->
<g id="node21" class="node">
<title>Join_Join_rec</title>
<g id="a_node21"><a xlink:href="Join.html#Join_rec" xlink:title="Join_rec">
<ellipse fill="#f070d1" stroke="#000000" cx="410" cy="-247.1824" rx="48.9926" ry="18"/>
<text text-anchor="middle" x="410" y="-243.4824" font-family="Times,serif" font-size="14.00" fill="#000000">Join_rec</text>
</a>
</g>
</g>
<!-- Join_equiv_into_hprop&#45;&gt;Join_Join_rec -->
<g id="edge10" class="edge">
<title>Join_equiv_into_hprop&#45;&gt;Join_Join_rec</title>
<path fill="none" stroke="#000000" d="M175.0532,-328.4183C231.1202,-309.0324 313.5698,-280.5244 364.4133,-262.9446"/>
<polygon fill="#000000" stroke="#000000" points="365.8362,-266.156 374.1434,-259.5803 363.5486,-259.5403 365.8362,-266.156"/>
</g>
<!-- Join_joinr -->
<g id="node25" class="node">
<title>Join_joinr</title>
<g id="a_node25"><a xlink:href="Join.html#joinr" xlink:title="joinr">
<ellipse fill="#f070d1" stroke="#000000" cx="717" cy="-145.1824" rx="32.4942" ry="18"/>
<text text-anchor="middle" x="717" y="-141.4824" font-family="Times,serif" font-size="14.00" fill="#000000">joinr</text>
</a>
</g>
</g>
<!-- Join_equiv_into_hprop&#45;&gt;Join_joinr -->
<g id="edge11" class="edge">
<title>Join_equiv_into_hprop&#45;&gt;Join_joinr</title>
<path fill="none" stroke="#000000" d="M154.7596,-325.2648C200.7915,-298.4834 279.5828,-255.4076 352,-229.1824 465.6903,-188.0107 606.8011,-162.3307 675.51,-151.3602"/>
<polygon fill="#000000" stroke="#000000" points="676.1715,-154.7992 685.5056,-149.7868 675.083,-147.8844 676.1715,-154.7992"/>
</g>
<!-- Join_join_sym -->
<g id="node18" class="node">
<title>Join_join_sym</title>
<g id="a_node18"><a xlink:href="Join.html#join_sym" xlink:title="join_sym">
<ellipse fill="#f070d1" stroke="#000000" cx="1184" cy="-247.1824" rx="51.9908" ry="18"/>
<text text-anchor="middle" x="1184" y="-243.4824" font-family="Times,serif" font-size="14.00" fill="#000000">join_sym</text>
</a>
</g>
</g>
<!-- Join_ishprop_join&#45;&gt;Join_join_sym -->
<g id="edge12" class="edge">
<title>Join_ishprop_join&#45;&gt;Join_join_sym</title>
<path fill="none" stroke="#000000" d="M1436.865,-444.63C1476.264,-418.3084 1541.584,-365.5557 1508,-323.1824 1475.7559,-282.4997 1329.1395,-261.4841 1244.6016,-252.5704"/>
<polygon fill="#000000" stroke="#000000" points="1244.9174,-249.0845 1234.6117,-251.5428 1244.2011,-256.0478 1244.9174,-249.0845"/>
</g>
<!-- Join_contr_join -->
<g id="node19" class="node">
<title>Join_contr_join</title>
<g id="a_node19"><a xlink:href="Join.html#contr_join" xlink:title="contr_join">
<ellipse fill="#f070d1" stroke="#000000" cx="1229" cy="-349.1824" rx="57.6901" ry="18"/>
<text text-anchor="middle" x="1229" y="-345.4824" font-family="Times,serif" font-size="14.00" fill="#000000">contr_join</text>
</a>
</g>
</g>
<!-- Join_ishprop_join&#45;&gt;Join_contr_join -->
<g id="edge13" class="edge">
<title>Join_ishprop_join&#45;&gt;Join_contr_join</title>
<path fill="none" stroke="#000000" d="M1382.9025,-444.4149C1351.2173,-424.8086 1298.6946,-392.3084 1263.9632,-370.8171"/>
<polygon fill="#000000" stroke="#000000" points="1265.4514,-367.6221 1255.106,-365.3364 1261.768,-373.5747 1265.4514,-367.6221"/>
</g>
<!-- Join_equiv_functor_join -->
<g id="node11" class="node">
<title>Join_equiv_functor_join</title>
<g id="a_node11"><a xlink:href="Join.html#equiv_functor_join" xlink:title="equiv_functor_join">
<ellipse fill="#f070d1" stroke="#000000" cx="680" cy="-573.1824" rx="96.6951" ry="18"/>
<ellipse fill="none" stroke="#000000" cx="680" cy="-573.1824" rx="100.6891" ry="22"/>
<ellipse fill="none" stroke="#000000" cx="680" cy="-573.1824" rx="104.6831" ry="26"/>
<text text-anchor="middle" x="680" y="-569.4824" font-family="Times,serif" font-size="14.00" fill="#000000">equiv_functor_join</text>
</a>
</g>
</g>
<!-- Join_isequiv_functor_join -->
<g id="node12" class="node">
<title>Join_isequiv_functor_join</title>
<g id="a_node12"><a xlink:href="Join.html#isequiv_functor_join" xlink:title="isequiv_functor_join">
<ellipse fill="#f070d1" stroke="#000000" cx="680" cy="-461.1824" rx="104.7816" ry="18"/>
<text text-anchor="middle" x="680" y="-457.4824" font-family="Times,serif" font-size="14.00" fill="#000000">isequiv_functor_join</text>
</a>
</g>
</g>
<!-- Join_equiv_functor_join&#45;&gt;Join_isequiv_functor_join -->
<g id="edge14" class="edge">
<title>Join_equiv_functor_join&#45;&gt;Join_isequiv_functor_join</title>
<path fill="none" stroke="#000000" d="M680,-546.9234C680,-529.6825 680,-507.1433 680,-489.5011"/>
<polygon fill="#000000" stroke="#000000" points="683.5001,-489.2403 680,-479.2403 676.5001,-489.2404 683.5001,-489.2403"/>
</g>
<!-- Join_functor_join -->
<g id="node15" class="node">
<title>Join_functor_join</title>
<g id="a_node15"><a xlink:href="Join.html#functor_join" xlink:title="functor_join">
<ellipse fill="#f070d1" stroke="#000000" cx="299" cy="-349.1824" rx="66.8882" ry="18"/>
<text text-anchor="middle" x="299" y="-345.4824" font-family="Times,serif" font-size="14.00" fill="#000000">functor_join</text>
</a>
</g>
</g>
<!-- Join_isequiv_functor_join&#45;&gt;Join_functor_join -->
<g id="edge15" class="edge">
<title>Join_isequiv_functor_join&#45;&gt;Join_functor_join</title>
<path fill="none" stroke="#000000" d="M622.6682,-446.0233C561.1601,-429.5257 460.743,-401.9153 375,-375.1824 366.6814,-372.5888 357.8959,-369.7124 349.367,-366.8457"/>
<polygon fill="#000000" stroke="#000000" points="350.4795,-363.5273 339.8852,-363.6288 348.2305,-370.1561 350.4795,-363.5273"/>
</g>
<!-- Join_join_natsq_v -->
<g id="node17" class="node">
<title>Join_join_natsq_v</title>
<g id="a_node17"><a xlink:href="Join.html#join_natsq_v" xlink:title="join_natsq_v">
<ellipse fill="#f070d1" stroke="#000000" cx="962" cy="-349.1824" rx="68.7879" ry="18"/>
<text text-anchor="middle" x="962" y="-345.4824" font-family="Times,serif" font-size="14.00" fill="#000000">join_natsq_v</text>
</a>
</g>
</g>
<!-- Join_isequiv_functor_join&#45;&gt;Join_join_natsq_v -->
<g id="edge16" class="edge">
<title>Join_isequiv_functor_join&#45;&gt;Join_join_natsq_v</title>
<path fill="none" stroke="#000000" d="M721.6101,-444.6564C773.0632,-424.2212 860.4433,-389.517 914.4819,-368.0549"/>
<polygon fill="#000000" stroke="#000000" points="915.838,-371.2823 923.8399,-364.3382 913.2542,-364.7766 915.838,-371.2823"/>
</g>
<!-- Join_Join_rec_beta_jglue -->
<g id="node20" class="node">
<title>Join_Join_rec_beta_jglue</title>
<g id="a_node20"><a xlink:href="Join.html#Join_rec_beta_jglue" xlink:title="Join_rec_beta_jglue">
<ellipse fill="#f070d1" stroke="#000000" cx="486" cy="-349.1824" rx="102.0819" ry="18"/>
<text text-anchor="middle" x="486" y="-345.4824" font-family="Times,serif" font-size="14.00" fill="#000000">Join_rec_beta_jglue</text>
</a>
</g>
</g>
<!-- Join_isequiv_functor_join&#45;&gt;Join_Join_rec_beta_jglue -->
<g id="edge17" class="edge">
<title>Join_isequiv_functor_join&#45;&gt;Join_Join_rec_beta_jglue</title>
<path fill="none" stroke="#000000" d="M650.1127,-443.9279C616.5046,-424.5253 561.8139,-392.9513 524.8996,-371.6399"/>
<polygon fill="#000000" stroke="#000000" points="526.3316,-368.4253 515.9213,-366.4566 522.8317,-374.4876 526.3316,-368.4253"/>
</g>
<!-- Join_Join_ind -->
<g id="node23" class="node">
<title>Join_Join_ind</title>
<g id="a_node23"><a xlink:href="Join.html#Join_ind" xlink:title="Join_ind">
<ellipse fill="#f070d1" stroke="#000000" cx="654" cy="-349.1824" rx="48.1917" ry="18"/>
<text text-anchor="middle" x="654" y="-345.4824" font-family="Times,serif" font-size="14.00" fill="#000000">Join_ind</text>
</a>
</g>
</g>
<!-- Join_isequiv_functor_join&#45;&gt;Join_Join_ind -->
<g id="edge18" class="edge">
<title>Join_isequiv_functor_join&#45;&gt;Join_Join_ind</title>
<path fill="none" stroke="#000000" d="M675.8227,-443.1877C671.672,-425.308 665.2495,-397.6417 660.4449,-376.945"/>
<polygon fill="#000000" stroke="#000000" points="663.8377,-376.082 658.167,-367.1325 657.019,-377.665 663.8377,-376.082"/>
</g>
<!-- Join_functor_join_idmap -->
<g id="node13" class="node">
<title>Join_functor_join_idmap</title>
<g id="a_node13"><a xlink:href="Join.html#functor_join_idmap" xlink:title="functor_join_idmap">
<ellipse fill="#f070d1" stroke="#000000" cx="190" cy="-461.1824" rx="100.9649" ry="18"/>
<ellipse fill="none" stroke="#000000" cx="190" cy="-461.1824" rx="104.9738" ry="22"/>
<ellipse fill="none" stroke="#000000" cx="190" cy="-461.1824" rx="108.9827" ry="26"/>
<text text-anchor="middle" x="190" y="-457.4824" font-family="Times,serif" font-size="14.00" fill="#000000">functor_join_idmap</text>
</a>
</g>
</g>
<!-- Join_functor_join_idmap&#45;&gt;Join_functor_join -->
<g id="edge19" class="edge">
<title>Join_functor_join_idmap&#45;&gt;Join_functor_join</title>
<path fill="none" stroke="#000000" d="M214.7338,-435.7679C232.6508,-417.3577 256.7593,-392.5857 274.599,-374.255"/>
<polygon fill="#000000" stroke="#000000" points="277.3582,-376.4382 281.8244,-366.8307 272.3417,-371.5561 277.3582,-376.4382"/>
</g>
<!-- Join_functor_join_idmap&#45;&gt;Join_Join_rec_beta_jglue -->
<g id="edge20" class="edge">
<title>Join_functor_join_idmap&#45;&gt;Join_Join_rec_beta_jglue</title>
<path fill="none" stroke="#000000" d="M248.1269,-439.1885C302.017,-418.7976 381.4926,-388.7258 433.5029,-369.0462"/>
<polygon fill="#000000" stroke="#000000" points="434.7681,-372.3097 442.8824,-365.4972 432.2909,-365.7627 434.7681,-372.3097"/>
</g>
<!-- Join_functor_join_idmap&#45;&gt;Join_Join_ind -->
<g id="edge21" class="edge">
<title>Join_functor_join_idmap&#45;&gt;Join_Join_ind</title>
<path fill="none" stroke="#000000" d="M269.9486,-443.4287C282.6716,-440.6432 295.6921,-437.8159 308,-435.1824 436.2798,-407.7347 472.3253,-415.9906 597,-375.1824 603.241,-373.1396 609.7086,-370.6143 615.9488,-367.9475"/>
<polygon fill="#000000" stroke="#000000" points="617.7933,-370.9574 625.5024,-363.6897 614.9437,-364.5637 617.7933,-370.9574"/>
</g>
<!-- Join_functor_join_compose -->
<g id="node14" class="node">
<title>Join_functor_join_compose</title>
<g id="a_node14"><a xlink:href="Join.html#functor_join_compose" xlink:title="functor_join_compose">
<ellipse fill="#f070d1" stroke="#000000" cx="437" cy="-461.1824" rx="112.3841" ry="18"/>
<ellipse fill="none" stroke="#000000" cx="437" cy="-461.1824" rx="116.3821" ry="22"/>
<ellipse fill="none" stroke="#000000" cx="437" cy="-461.1824" rx="120.3801" ry="26"/>
<text text-anchor="middle" x="437" y="-457.4824" font-family="Times,serif" font-size="14.00" fill="#000000">functor_join_compose</text>
</a>
</g>
</g>
<!-- Join_functor_join_compose&#45;&gt;Join_functor_join -->
<g id="edge22" class="edge">
<title>Join_functor_join_compose&#45;&gt;Join_functor_join</title>
<path fill="none" stroke="#000000" d="M406.0301,-436.0474C382.8159,-417.2069 351.2497,-391.588 328.4191,-373.0588"/>
<polygon fill="#000000" stroke="#000000" points="330.4049,-370.1628 320.4347,-366.5787 325.9937,-375.5981 330.4049,-370.1628"/>
</g>
<!-- Join_functor_join_compose&#45;&gt;Join_Join_rec_beta_jglue -->
<g id="edge23" class="edge">
<title>Join_functor_join_compose&#45;&gt;Join_Join_rec_beta_jglue</title>
<path fill="none" stroke="#000000" d="M448.3647,-435.2059C456.0458,-417.6491 466.1724,-394.5027 473.9863,-376.6423"/>
<polygon fill="#000000" stroke="#000000" points="477.2575,-377.8973 478.0592,-367.3328 470.8444,-375.0915 477.2575,-377.8973"/>
</g>
<!-- Join_functor_join_compose&#45;&gt;Join_Join_ind -->
<g id="edge24" class="edge">
<title>Join_functor_join_compose&#45;&gt;Join_Join_ind</title>
<path fill="none" stroke="#000000" d="M483.5519,-437.1556C523.2746,-416.6536 579.6568,-387.5531 616.5244,-368.5247"/>
<polygon fill="#000000" stroke="#000000" points="618.1741,-371.612 625.455,-363.9153 614.9635,-365.3916 618.1741,-371.612"/>
</g>
<!-- Join_functor_join&#45;&gt;Join_Join_rec -->
<g id="edge25" class="edge">
<title>Join_functor_join&#45;&gt;Join_Join_rec</title>
<path fill="none" stroke="#000000" d="M317.8296,-331.8795C336.1483,-315.0461 364.1144,-289.3476 384.4375,-270.6723"/>
<polygon fill="#000000" stroke="#000000" points="386.8211,-273.2353 391.8162,-263.8918 382.0847,-268.081 386.8211,-273.2353"/>
</g>
<!-- Join_functor_join&#45;&gt;Join_jglue -->
<g id="edge26" class="edge">
<title>Join_functor_join&#45;&gt;Join_jglue</title>
<path fill="none" stroke="#000000" d="M338.0999,-334.5369C349.851,-330.4811 362.8511,-326.3325 375,-323.1824 511.754,-287.7241 677.6151,-263.142 754.7157,-252.7449"/>
<polygon fill="#000000" stroke="#000000" points="755.5449,-256.1653 764.9936,-251.3723 754.6183,-249.2269 755.5449,-256.1653"/>
</g>
<!-- Join_join_natsq_h -->
<g id="node16" class="node">
<title>Join_join_natsq_h</title>
<g id="a_node16"><a xlink:href="Join.html#join_natsq_h" xlink:title="join_natsq_h">
<ellipse fill="#f070d1" stroke="#000000" cx="798" cy="-349.1824" rx="69.5832" ry="18"/>
<ellipse fill="none" stroke="#000000" cx="798" cy="-349.1824" rx="73.5854" ry="22"/>
<ellipse fill="none" stroke="#000000" cx="798" cy="-349.1824" rx="77.5877" ry="26"/>
<text text-anchor="middle" x="798" y="-345.4824" font-family="Times,serif" font-size="14.00" fill="#000000">join_natsq_h</text>
</a>
</g>
</g>
<!-- Join_join_natsq_h&#45;&gt;Join_jglue -->
<g id="edge27" class="edge">
<title>Join_join_natsq_h&#45;&gt;Join_jglue</title>
<path fill="none" stroke="#000000" d="M798,-323.1796C798,-308.646 798,-290.5141 798,-275.6065"/>
<polygon fill="#000000" stroke="#000000" points="801.5001,-275.4189 798,-265.4189 794.5001,-275.4189 801.5001,-275.4189"/>
</g>
<!-- Join_join_natsq_v&#45;&gt;Join_jglue -->
<g id="edge28" class="edge">
<title>Join_join_natsq_v&#45;&gt;Join_jglue</title>
<path fill="none" stroke="#000000" d="M935.2856,-332.5673C906.1243,-314.4305 859.5022,-285.4338 828.8158,-266.3484"/>
<polygon fill="#000000" stroke="#000000" points="830.5665,-263.3155 820.2264,-261.0061 826.8695,-269.2596 830.5665,-263.3155"/>
</g>
<!-- Join_join_sym&#45;&gt;Join_Join -->
<g id="edge29" class="edge">
<title>Join_join_sym&#45;&gt;Join_Join</title>
<path fill="none" stroke="#000000" d="M1134.6495,-241.3711C1054.0406,-230.9681 898.9824,-206.8615 858,-171.1824 839.3243,-154.9234 848.2283,-141.7327 838,-119.1824 830.3204,-102.2513 820.6326,-83.7838 812.7145,-69.2931"/>
<polygon fill="#000000" stroke="#000000" points="815.7028,-67.4641 807.8057,-60.401 809.5746,-70.8472 815.7028,-67.4641"/>
</g>
<!-- Join_contr_join&#45;&gt;Join_jglue -->
<g id="edge30" class="edge">
<title>Join_contr_join&#45;&gt;Join_jglue</title>
<path fill="none" stroke="#000000" d="M1194.6018,-334.5868C1184.2442,-330.5324 1172.7669,-326.372 1162,-323.1824 1047.7807,-289.3463 909.0999,-264.8019 840.5663,-253.7342"/>
<polygon fill="#000000" stroke="#000000" points="841.0065,-250.2602 830.5792,-252.1369 839.9009,-257.1724 841.0065,-250.2602"/>
</g>
<!-- Join_Join_rec_beta_jglue&#45;&gt;Join_Join_rec -->
<g id="edge31" class="edge">
<title>Join_Join_rec_beta_jglue&#45;&gt;Join_Join_rec</title>
<path fill="none" stroke="#000000" d="M472.4127,-330.9469C460.3778,-314.7948 442.6775,-291.0391 429.1975,-272.9475"/>
<polygon fill="#000000" stroke="#000000" points="431.7438,-270.5069 422.9623,-264.5793 426.1306,-274.6893 431.7438,-270.5069"/>
</g>
<!-- Join_Join_rec_beta_jglue&#45;&gt;Join_jglue -->
<g id="edge32" class="edge">
<title>Join_Join_rec_beta_jglue&#45;&gt;Join_jglue</title>
<path fill="none" stroke="#000000" d="M534.75,-333.2449C596.6732,-313.0008 702.2941,-278.4709 759.1032,-259.8987"/>
<polygon fill="#000000" stroke="#000000" points="760.3707,-263.1667 768.788,-256.7325 758.1955,-256.5132 760.3707,-263.1667"/>
</g>
<!-- Join_Join_rec&#45;&gt;Join_Join -->
<g id="edge33" class="edge">
<title>Join_Join_rec&#45;&gt;Join_Join</title>
<path fill="none" stroke="#000000" d="M438.2165,-232.3469C508.8121,-195.2297 692.6949,-98.549 766.5851,-59.6995"/>
<polygon fill="#000000" stroke="#000000" points="768.6299,-62.5788 775.8523,-54.8271 765.3723,-56.3829 768.6299,-62.5788"/>
</g>
<!-- Join_Join_ind_beta_jglue -->
<g id="node22" class="node">
<title>Join_Join_ind_beta_jglue</title>
<g id="a_node22"><a xlink:href="Join.html#Join_ind_beta_jglue" xlink:title="Join_ind_beta_jglue">
<ellipse fill="#f070d1" stroke="#000000" cx="912" cy="-461.1824" rx="101.2901" ry="18"/>
<ellipse fill="none" stroke="#000000" cx="912" cy="-461.1824" rx="105.2861" ry="22"/>
<ellipse fill="none" stroke="#000000" cx="912" cy="-461.1824" rx="109.2821" ry="26"/>
<text text-anchor="middle" x="912" y="-457.4824" font-family="Times,serif" font-size="14.00" fill="#000000">Join_ind_beta_jglue</text>
</a>
</g>
</g>
<!-- Join_Join_ind_beta_jglue&#45;&gt;Join_Join_ind -->
<g id="edge34" class="edge">
<title>Join_Join_ind_beta_jglue&#45;&gt;Join_Join_ind</title>
<path fill="none" stroke="#000000" d="M858.1036,-438.5304C817.5447,-421.3852 760.645,-397.1219 711,-375.1824 705.4552,-372.732 699.6231,-370.1163 693.8915,-367.5232"/>
<polygon fill="#000000" stroke="#000000" points="694.9611,-364.1649 684.409,-363.2141 692.065,-370.5377 694.9611,-364.1649"/>
</g>
<!-- Join_Join_ind&#45;&gt;Join_jglue -->
<g id="edge35" class="edge">
<title>Join_Join_ind&#45;&gt;Join_jglue</title>
<path fill="none" stroke="#000000" d="M676.5,-333.2449C701.4819,-315.5494 741.8735,-286.9387 769.159,-267.6115"/>
<polygon fill="#000000" stroke="#000000" points="771.3841,-270.3245 777.5212,-261.6882 767.3379,-264.6123 771.3841,-270.3245"/>
</g>
<!-- Join_jglue&#45;&gt;Join_joinr -->
<g id="edge36" class="edge">
<title>Join_jglue&#45;&gt;Join_joinr</title>
<path fill="none" stroke="#000000" d="M784.6245,-230.3392C771.4728,-213.7779 751.2586,-188.3229 736.3544,-169.5546"/>
<polygon fill="#000000" stroke="#000000" points="739.0864,-167.3668 730.1266,-161.7122 733.6046,-171.72 739.0864,-167.3668"/>
</g>
<!-- Join_joinl -->
<g id="node26" class="node">
<title>Join_joinl</title>
<g id="a_node26"><a xlink:href="Join.html#joinl" xlink:title="joinl">
<ellipse fill="#f070d1" stroke="#000000" cx="798" cy="-145.1824" rx="30.5947" ry="18"/>
<text text-anchor="middle" x="798" y="-141.4824" font-family="Times,serif" font-size="14.00" fill="#000000">joinl</text>
</a>
</g>
</g>
<!-- Join_jglue&#45;&gt;Join_joinl -->
<g id="edge37" class="edge">
<title>Join_jglue&#45;&gt;Join_joinl</title>
<path fill="none" stroke="#000000" d="M798,-228.9469C798,-213.4994 798,-191.0973 798,-173.3464"/>
<polygon fill="#000000" stroke="#000000" points="801.5001,-173.2601 798,-163.2601 794.5001,-173.2601 801.5001,-173.2601"/>
</g>
<!-- Join_joinr&#45;&gt;Join_Join -->
<g id="edge38" class="edge">
<title>Join_joinr&#45;&gt;Join_Join</title>
<path fill="none" stroke="#000000" d="M730.3755,-128.3392C743.6054,-111.6793 763.9823,-86.0196 778.9112,-67.2201"/>
<polygon fill="#000000" stroke="#000000" points="781.6622,-69.384 785.1401,-59.3763 776.1804,-65.0308 781.6622,-69.384"/>
</g>
<!-- Join_joinl&#45;&gt;Join_Join -->
<g id="edge39" class="edge">
<title>Join_joinl&#45;&gt;Join_Join</title>
<path fill="none" stroke="#000000" d="M798,-126.9469C798,-111.4994 798,-89.0973 798,-71.3464"/>
<polygon fill="#000000" stroke="#000000" points="801.5001,-71.2601 798,-61.2601 794.5001,-71.2601 801.5001,-71.2601"/>
</g>
</g>
</svg>
