<?xml version="1.0" encoding="UTF-8" standalone="no"?>
<!DOCTYPE svg PUBLIC "-//W3C//DTD SVG 1.1//EN"
 "http://www.w3.org/Graphics/SVG/1.1/DTD/svg11.dtd">
<!-- Generated by graphviz version 2.40.1 (20161225.0304)
 -->
<!-- Title: HoTT_Classes_theory_nat_distance Pages: 1 -->
<svg width="509pt" height="259pt"
 viewBox="0.00 0.00 509.00 258.50" xmlns="http://www.w3.org/2000/svg" xmlns:xlink="http://www.w3.org/1999/xlink">
<g id="graph0" class="graph" transform="scale(1 1) rotate(0) translate(4 254.5)">
<title>HoTT_Classes_theory_nat_distance</title>
<polygon fill="#ffffff" stroke="transparent" points="-4,4 -4,-254.5 505,-254.5 505,4 -4,4"/>
<g id="clust1" class="cluster">
<title>cluster_nat_distance</title>
<polygon fill="#ffffc3" stroke="#000000" points="8,-11.1955 8,-239.3045 493,-239.3045 493,-11.1955 8,-11.1955"/>
<text text-anchor="middle" x="62" y="-224.1045" font-family="Times,serif" font-size="14.00" fill="#000000">nat_distance</text>
</g>
<!-- nat_distance_natdistance_default -->
<g id="node1" class="node">
<title>nat_distance_natdistance_default</title>
<g id="a_node1"><a xlink:href="nat_distance.html#natdistance_default" xlink:title="natdistance_default">
<ellipse fill="#f070d1" stroke="#000000" cx="374" cy="-159.1955" rx="102.8683" ry="18"/>
<ellipse fill="none" stroke="#000000" cx="374" cy="-159.1955" rx="106.8752" ry="22"/>
<ellipse fill="none" stroke="#000000" cx="374" cy="-159.1955" rx="110.8821" ry="26"/>
<text text-anchor="middle" x="374" y="-155.4955" font-family="Times,serif" font-size="14.00" fill="#000000">natdistance_default</text>
</a>
</g>
</g>
<!-- nat_distance_natdistance_cut_minus -->
<g id="node2" class="node">
<title>nat_distance_natdistance_cut_minus</title>
<g id="a_node2"><a xlink:href="nat_distance.html#natdistance_cut_minus" xlink:title="natdistance_cut_minus">
<ellipse fill="#f070d1" stroke="#000000" cx="367" cy="-47.1955" rx="118.0794" ry="18"/>
<text text-anchor="middle" x="367" y="-43.4955" font-family="Times,serif" font-size="14.00" fill="#000000">natdistance_cut_minus</text>
</a>
</g>
</g>
<!-- nat_distance_natdistance_default&#45;&gt;nat_distance_natdistance_cut_minus -->
<g id="edge1" class="edge">
<title>nat_distance_natdistance_default&#45;&gt;nat_distance_natdistance_cut_minus</title>
<path fill="none" stroke="#000000" d="M372.3588,-132.9365C371.2813,-115.6956 369.8726,-93.1564 368.7699,-75.5142"/>
<polygon fill="#000000" stroke="#000000" points="372.2457,-75.0156 368.1286,-65.2534 365.2593,-75.4523 372.2457,-75.0156"/>
</g>
<!-- nat_distance_nat_distance_unique -->
<g id="node3" class="node">
<title>nat_distance_nat_distance_unique</title>
<g id="a_node3"><a xlink:href="nat_distance.html#nat_distance_unique" xlink:title="nat_distance_unique">
<ellipse fill="#f070d1" stroke="#000000" cx="131" cy="-159.1955" rx="106.6748" ry="18"/>
<ellipse fill="none" stroke="#000000" cx="131" cy="-159.1955" rx="110.678" ry="22"/>
<ellipse fill="none" stroke="#000000" cx="131" cy="-159.1955" rx="114.6812" ry="26"/>
<text text-anchor="middle" x="131" y="-155.4955" font-family="Times,serif" font-size="14.00" fill="#000000">nat_distance_unique</text>
</a>
</g>
</g>
</g>
</svg>
