<?xml version="1.0" encoding="UTF-8" standalone="no"?>
<!DOCTYPE svg PUBLIC "-//W3C//DTD SVG 1.1//EN"
 "http://www.w3.org/Graphics/SVG/1.1/DTD/svg11.dtd">
<!-- Generated by graphviz version 2.40.1 (20161225.0304)
 -->
<!-- Title: HoTT_Classes_orders_naturals Pages: 1 -->
<svg width="1220pt" height="614pt"
 viewBox="0.00 0.00 1220.00 614.00" xmlns="http://www.w3.org/2000/svg" xmlns:xlink="http://www.w3.org/1999/xlink">
<g id="graph0" class="graph" transform="scale(1 1) rotate(0) translate(4 610)">
<title>HoTT_Classes_orders_naturals</title>
<polygon fill="#ffffff" stroke="transparent" points="-4,4 -4,-610 1216,-610 1216,4 -4,4"/>
<g id="clust1" class="cluster">
<title>cluster_naturals</title>
<polygon fill="#ffffc3" stroke="#000000" points="8,-11.3536 8,-594.6464 1204,-594.6464 1204,-11.3536 8,-11.3536"/>
<text text-anchor="middle" x="46" y="-579.4464" font-family="Times,serif" font-size="14.00" fill="#000000">naturals</text>
</g>
<!-- naturals_between_to_ring -->
<g id="node1" class="node">
<title>naturals_between_to_ring</title>
<g id="a_node1"><a xlink:href="naturals.html#between_to_ring" xlink:title="between_to_ring">
<ellipse fill="#f070d1" stroke="#000000" cx="1100" cy="-513.3536" rx="88.2934" ry="18"/>
<ellipse fill="none" stroke="#000000" cx="1100" cy="-513.3536" rx="92.2889" ry="22"/>
<ellipse fill="none" stroke="#000000" cx="1100" cy="-513.3536" rx="96.2844" ry="26"/>
<text text-anchor="middle" x="1100" y="-509.6536" font-family="Times,serif" font-size="14.00" fill="#000000">between_to_ring</text>
</a>
</g>
</g>
<!-- naturals_negate_to_ring_nonpos -->
<g id="node2" class="node">
<title>naturals_negate_to_ring_nonpos</title>
<g id="a_node2"><a xlink:href="naturals.html#negate_to_ring_nonpos" xlink:title="negate_to_ring_nonpos">
<ellipse fill="#f070d1" stroke="#000000" cx="859" cy="-513.3536" rx="118.0927" ry="18"/>
<ellipse fill="none" stroke="#000000" cx="859" cy="-513.3536" rx="122.086" ry="22"/>
<ellipse fill="none" stroke="#000000" cx="859" cy="-513.3536" rx="126.0794" ry="26"/>
<text text-anchor="middle" x="859" y="-509.6536" font-family="Times,serif" font-size="14.00" fill="#000000">negate_to_ring_nonpos</text>
</a>
</g>
</g>
<!-- naturals_slow_nat_le_dec -->
<g id="node3" class="node">
<title>naturals_slow_nat_le_dec</title>
<g id="a_node3"><a xlink:href="naturals.html#slow_nat_le_dec" xlink:title="slow_nat_le_dec">
<ellipse fill="#f070d1" stroke="#000000" cx="620" cy="-513.3536" rx="86.3896" ry="18"/>
<ellipse fill="none" stroke="#000000" cx="620" cy="-513.3536" rx="90.3871" ry="22"/>
<ellipse fill="none" stroke="#000000" cx="620" cy="-513.3536" rx="94.3847" ry="26"/>
<text text-anchor="middle" x="620" y="-509.6536" font-family="Times,serif" font-size="14.00" fill="#000000">slow_nat_le_dec</text>
</a>
</g>
</g>
<!-- naturals_OrderReflecting_instance_0 -->
<g id="node4" class="node">
<title>naturals_OrderReflecting_instance_0</title>
<g id="a_node4"><a xlink:href="naturals.html#OrderReflecting_instance_0" xlink:title="OrderReflecting_instance_0">
<ellipse fill="#f070d1" stroke="#000000" cx="358" cy="-513.3536" rx="141.8651" ry="18"/>
<ellipse fill="none" stroke="#000000" cx="358" cy="-513.3536" rx="145.8701" ry="22"/>
<ellipse fill="none" stroke="#000000" cx="358" cy="-513.3536" rx="149.8751" ry="26"/>
<text text-anchor="middle" x="358" y="-509.6536" font-family="Times,serif" font-size="14.00" fill="#000000">OrderReflecting_instance_0</text>
</a>
</g>
</g>
<!-- naturals_nat_ne_0_pos -->
<g id="node6" class="node">
<title>naturals_nat_ne_0_pos</title>
<g id="a_node6"><a xlink:href="naturals.html#nat_ne_0_pos" xlink:title="nat_ne_0_pos">
<ellipse fill="#f070d1" stroke="#000000" cx="319" cy="-389.3536" rx="73.387" ry="18"/>
<text text-anchor="middle" x="319" y="-385.6536" font-family="Times,serif" font-size="14.00" fill="#000000">nat_ne_0_pos</text>
</a>
</g>
</g>
<!-- naturals_OrderReflecting_instance_0&#45;&gt;naturals_nat_ne_0_pos -->
<g id="edge1" class="edge">
<title>naturals_OrderReflecting_instance_0&#45;&gt;naturals_nat_ne_0_pos</title>
<path fill="none" stroke="#000000" d="M349.8243,-487.3592C343.3364,-466.7309 334.289,-437.9649 327.6744,-416.9339"/>
<polygon fill="#000000" stroke="#000000" points="330.9837,-415.7896 324.6446,-407.3004 324.3061,-417.8899 330.9837,-415.7896"/>
</g>
<!-- naturals_nat_ne_0_ge_1 -->
<g id="node5" class="node">
<title>naturals_nat_ne_0_ge_1</title>
<g id="a_node5"><a xlink:href="naturals.html#nat_ne_0_ge_1" xlink:title="nat_ne_0_ge_1">
<ellipse fill="#f070d1" stroke="#000000" cx="103" cy="-513.3536" rx="79.1053" ry="18"/>
<ellipse fill="none" stroke="#000000" cx="103" cy="-513.3536" rx="83.0959" ry="22"/>
<ellipse fill="none" stroke="#000000" cx="103" cy="-513.3536" rx="87.0864" ry="26"/>
<text text-anchor="middle" x="103" y="-509.6536" font-family="Times,serif" font-size="14.00" fill="#000000">nat_ne_0_ge_1</text>
</a>
</g>
</g>
<!-- naturals_nat_ne_0_ge_1&#45;&gt;naturals_nat_ne_0_pos -->
<g id="edge2" class="edge">
<title>naturals_nat_ne_0_ge_1&#45;&gt;naturals_nat_ne_0_pos</title>
<path fill="none" stroke="#000000" d="M143.3746,-490.1756C182.8267,-467.5272 242.4246,-433.3136 281.0315,-411.1504"/>
<polygon fill="#000000" stroke="#000000" points="282.9608,-414.0786 289.8908,-406.0645 279.4757,-408.0078 282.9608,-414.0786"/>
</g>
<!-- naturals_nat_0_or_pos -->
<g id="node8" class="node">
<title>naturals_nat_0_or_pos</title>
<g id="a_node8"><a xlink:href="naturals.html#nat_0_or_pos" xlink:title="nat_0_or_pos">
<ellipse fill="#f070d1" stroke="#000000" cx="282" cy="-275.3536" rx="72.2875" ry="18"/>
<text text-anchor="middle" x="282" y="-271.6536" font-family="Times,serif" font-size="14.00" fill="#000000">nat_0_or_pos</text>
</a>
</g>
</g>
<!-- naturals_nat_ne_0_pos&#45;&gt;naturals_nat_0_or_pos -->
<g id="edge3" class="edge">
<title>naturals_nat_ne_0_pos&#45;&gt;naturals_nat_0_or_pos</title>
<path fill="none" stroke="#000000" d="M313.1372,-371.29C307.1834,-352.9456 297.8844,-324.2947 290.9973,-303.075"/>
<polygon fill="#000000" stroke="#000000" points="294.2515,-301.7638 287.8353,-293.3328 287.5934,-303.9248 294.2515,-301.7638"/>
</g>
<!-- naturals_nat_0_or_ge_1 -->
<g id="node7" class="node">
<title>naturals_nat_0_or_ge_1</title>
<g id="a_node7"><a xlink:href="naturals.html#nat_0_or_ge_1" xlink:title="nat_0_or_ge_1">
<ellipse fill="#f070d1" stroke="#000000" cx="142" cy="-389.3536" rx="77.9868" ry="18"/>
<ellipse fill="none" stroke="#000000" cx="142" cy="-389.3536" rx="81.9865" ry="22"/>
<ellipse fill="none" stroke="#000000" cx="142" cy="-389.3536" rx="85.9862" ry="26"/>
<text text-anchor="middle" x="142" y="-385.6536" font-family="Times,serif" font-size="14.00" fill="#000000">nat_0_or_ge_1</text>
</a>
</g>
</g>
<!-- naturals_nat_0_or_ge_1&#45;&gt;naturals_nat_0_or_pos -->
<g id="edge4" class="edge">
<title>naturals_nat_0_or_ge_1&#45;&gt;naturals_nat_0_or_pos</title>
<path fill="none" stroke="#000000" d="M172.0335,-364.8978C195.8947,-345.4679 229.0734,-318.451 252.7323,-299.1859"/>
<polygon fill="#000000" stroke="#000000" points="255.1284,-301.7484 260.6728,-292.7201 250.7084,-296.3204 255.1284,-301.7484"/>
</g>
<!-- naturals_nat_not_neg -->
<g id="node9" class="node">
<title>naturals_nat_not_neg</title>
<g id="a_node9"><a xlink:href="naturals.html#nat_not_neg" xlink:title="nat_not_neg">
<ellipse fill="#f070d1" stroke="#000000" cx="282" cy="-161.3536" rx="67.6881" ry="18"/>
<text text-anchor="middle" x="282" y="-157.6536" font-family="Times,serif" font-size="14.00" fill="#000000">nat_not_neg</text>
</a>
</g>
</g>
<!-- naturals_nat_0_or_pos&#45;&gt;naturals_nat_not_neg -->
<g id="edge5" class="edge">
<title>naturals_nat_0_or_pos&#45;&gt;naturals_nat_not_neg</title>
<path fill="none" stroke="#000000" d="M282,-257.29C282,-239.1364 282,-210.8896 282,-189.7395"/>
<polygon fill="#000000" stroke="#000000" points="285.5001,-189.7102 282,-179.7103 278.5001,-189.7103 285.5001,-189.7102"/>
</g>
<!-- naturals_nat_nonneg -->
<g id="node11" class="node">
<title>naturals_nat_nonneg</title>
<g id="a_node11"><a xlink:href="naturals.html#nat_nonneg" xlink:title="nat_nonneg">
<ellipse fill="#f070d1" stroke="#000000" cx="203" cy="-48.3536" rx="64.9885" ry="18"/>
<text text-anchor="middle" x="203" y="-44.6536" font-family="Times,serif" font-size="14.00" fill="#000000">nat_nonneg</text>
</a>
</g>
</g>
<!-- naturals_nat_not_neg&#45;&gt;naturals_nat_nonneg -->
<g id="edge6" class="edge">
<title>naturals_nat_not_neg&#45;&gt;naturals_nat_nonneg</title>
<path fill="none" stroke="#000000" d="M269.4822,-143.4484C256.4809,-124.8517 236.0091,-95.5692 221.216,-74.4094"/>
<polygon fill="#000000" stroke="#000000" points="224.0575,-72.3654 215.4592,-66.175 218.3205,-76.3762 224.0575,-72.3654"/>
</g>
<!-- naturals_nat_le_plus -->
<g id="node10" class="node">
<title>naturals_nat_le_plus</title>
<g id="a_node10"><a xlink:href="naturals.html#nat_le_plus" xlink:title="nat_le_plus">
<ellipse fill="#f070d1" stroke="#000000" cx="125" cy="-161.3536" rx="63.8675" ry="18"/>
<ellipse fill="none" stroke="#000000" cx="125" cy="-161.3536" rx="67.8784" ry="22"/>
<ellipse fill="none" stroke="#000000" cx="125" cy="-161.3536" rx="71.8892" ry="26"/>
<text text-anchor="middle" x="125" y="-157.6536" font-family="Times,serif" font-size="14.00" fill="#000000">nat_le_plus</text>
</a>
</g>
</g>
<!-- naturals_nat_le_plus&#45;&gt;naturals_nat_nonneg -->
<g id="edge7" class="edge">
<title>naturals_nat_le_plus&#45;&gt;naturals_nat_nonneg</title>
<path fill="none" stroke="#000000" d="M142.5047,-135.9942C155.1454,-117.6814 172.1675,-93.0213 184.9351,-74.5246"/>
<polygon fill="#000000" stroke="#000000" points="187.8464,-76.4681 190.6467,-66.25 182.0855,-72.4916 187.8464,-76.4681"/>
</g>
</g>
</svg>
