<?xml version="1.0" encoding="UTF-8" standalone="no"?>
<!DOCTYPE svg PUBLIC "-//W3C//DTD SVG 1.1//EN"
 "http://www.w3.org/Graphics/SVG/1.1/DTD/svg11.dtd">
<!-- Generated by graphviz version 2.40.1 (20161225.0304)
 -->
<!-- Title: HoTT_Classes_orders_orders Pages: 1 -->
<svg width="2733pt" height="1371pt"
 viewBox="0.00 0.00 2733.00 1370.50" xmlns="http://www.w3.org/2000/svg" xmlns:xlink="http://www.w3.org/1999/xlink">
<g id="graph0" class="graph" transform="scale(1 1) rotate(0) translate(4 1366.5)">
<title>HoTT_Classes_orders_orders</title>
<polygon fill="#ffffff" stroke="transparent" points="-4,4 -4,-1366.5 2729,-1366.5 2729,4 -4,4"/>
<g id="clust1" class="cluster">
<title>cluster_orders</title>
<polygon fill="#ffffc3" stroke="#000000" points="8,-18.0763 8,-1344.4237 2717,-1344.4237 2717,-18.0763 8,-18.0763"/>
<text text-anchor="middle" x="39.5" y="-1329.2237" font-family="Times,serif" font-size="14.00" fill="#000000">orders</text>
</g>
<!-- orders_lt_transitive -->
<g id="node1" class="node">
<title>orders_lt_transitive</title>
<g id="a_node1"><a xlink:href="orders.html#lt_transitive" xlink:title="lt_transitive">
<ellipse fill="#f070d1" stroke="#000000" cx="2633" cy="-258.0763" rx="67.6782" ry="18"/>
<ellipse fill="none" stroke="#000000" cx="2633" cy="-258.0763" rx="71.6831" ry="22"/>
<ellipse fill="none" stroke="#000000" cx="2633" cy="-258.0763" rx="75.6881" ry="26"/>
<text text-anchor="middle" x="2633" y="-254.3763" font-family="Times,serif" font-size="14.00" fill="#000000">lt_transitive</text>
</a>
</g>
</g>
<!-- orders_pseudoorder_strictorder -->
<g id="node41" class="node">
<title>orders_pseudoorder_strictorder</title>
<g id="a_node41"><a xlink:href="orders.html#pseudoorder_strictorder" xlink:title="pseudoorder_strictorder">
<ellipse fill="#f070d1" stroke="#000000" cx="2385" cy="-77.0763" rx="124.5782" ry="18"/>
<text text-anchor="middle" x="2385" y="-73.3763" font-family="Times,serif" font-size="14.00" fill="#000000">pseudoorder_strictorder</text>
</a>
</g>
</g>
<!-- orders_lt_transitive&#45;&gt;orders_pseudoorder_strictorder -->
<g id="edge1" class="edge">
<title>orders_lt_transitive&#45;&gt;orders_pseudoorder_strictorder</title>
<path fill="none" stroke="#000000" d="M2600.5783,-234.4137C2553.0165,-199.7012 2464.8415,-135.3477 2417.3312,-100.6728"/>
<polygon fill="#000000" stroke="#000000" points="2419.3717,-97.8291 2409.2308,-94.7609 2415.245,-103.4833 2419.3717,-97.8291"/>
</g>
<!-- orders_lt_nlt_trans -->
<g id="node2" class="node">
<title>orders_lt_nlt_trans</title>
<g id="a_node2"><a xlink:href="orders.html#lt_nlt_trans" xlink:title="lt_nlt_trans">
<ellipse fill="#f070d1" stroke="#000000" cx="2467" cy="-258.0763" rx="64.2061" ry="18"/>
<ellipse fill="none" stroke="#000000" cx="2467" cy="-258.0763" rx="68.1975" ry="22"/>
<ellipse fill="none" stroke="#000000" cx="2467" cy="-258.0763" rx="72.1889" ry="26"/>
<text text-anchor="middle" x="2467" y="-254.3763" font-family="Times,serif" font-size="14.00" fill="#000000">lt_nlt_trans</text>
</a>
</g>
</g>
<!-- orders_lt_nlt_trans&#45;&gt;orders_pseudoorder_strictorder -->
<g id="edge2" class="edge">
<title>orders_lt_nlt_trans&#45;&gt;orders_pseudoorder_strictorder</title>
<path fill="none" stroke="#000000" d="M2455.2514,-232.1434C2439.9351,-198.3356 2413.255,-139.444 2397.5527,-104.784"/>
<polygon fill="#000000" stroke="#000000" points="2400.5598,-102.9402 2393.245,-95.2757 2394.1836,-105.8289 2400.5598,-102.9402"/>
</g>
<!-- orders_nlt_lt_trans -->
<g id="node3" class="node">
<title>orders_nlt_lt_trans</title>
<g id="a_node3"><a xlink:href="orders.html#nlt_lt_trans" xlink:title="nlt_lt_trans">
<ellipse fill="#f070d1" stroke="#000000" cx="2304" cy="-258.0763" rx="64.2061" ry="18"/>
<ellipse fill="none" stroke="#000000" cx="2304" cy="-258.0763" rx="68.1975" ry="22"/>
<ellipse fill="none" stroke="#000000" cx="2304" cy="-258.0763" rx="72.1889" ry="26"/>
<text text-anchor="middle" x="2304" y="-254.3763" font-family="Times,serif" font-size="14.00" fill="#000000">nlt_lt_trans</text>
</a>
</g>
</g>
<!-- orders_nlt_lt_trans&#45;&gt;orders_pseudoorder_strictorder -->
<g id="edge3" class="edge">
<title>orders_nlt_lt_trans&#45;&gt;orders_pseudoorder_strictorder</title>
<path fill="none" stroke="#000000" d="M2315.6053,-232.1434C2330.7348,-198.3356 2357.0896,-139.444 2372.6004,-104.784"/>
<polygon fill="#000000" stroke="#000000" points="2375.9654,-105.8331 2376.8555,-95.2757 2369.576,-102.9737 2375.9654,-105.8331"/>
</g>
<!-- orders_lt_eq_trans -->
<g id="node4" class="node">
<title>orders_lt_eq_trans</title>
<g id="a_node4"><a xlink:href="orders.html#lt_eq_trans" xlink:title="lt_eq_trans">
<ellipse fill="#f070d1" stroke="#000000" cx="2638" cy="-1216.0763" rx="63.0838" ry="18"/>
<ellipse fill="none" stroke="#000000" cx="2638" cy="-1216.0763" rx="67.0863" ry="22"/>
<ellipse fill="none" stroke="#000000" cx="2638" cy="-1216.0763" rx="71.0888" ry="26"/>
<text text-anchor="middle" x="2638" y="-1212.3763" font-family="Times,serif" font-size="14.00" fill="#000000">lt_eq_trans</text>
</a>
</g>
</g>
<!-- orders_dec_full_pseudo_order -->
<g id="node5" class="node">
<title>orders_dec_full_pseudo_order</title>
<g id="a_node5"><a xlink:href="orders.html#dec_full_pseudo_order" xlink:title="dec_full_pseudo_order">
<ellipse fill="#f070d1" stroke="#000000" cx="2585" cy="-1017.0763" rx="115.8675" ry="18"/>
<ellipse fill="none" stroke="#000000" cx="2585" cy="-1017.0763" rx="119.8736" ry="22"/>
<ellipse fill="none" stroke="#000000" cx="2585" cy="-1017.0763" rx="123.8798" ry="26"/>
<text text-anchor="middle" x="2585" y="-1013.3763" font-family="Times,serif" font-size="14.00" fill="#000000">dec_full_pseudo_order</text>
</a>
</g>
</g>
<!-- orders_dec_pseudo_order -->
<g id="node6" class="node">
<title>orders_dec_pseudo_order</title>
<g id="a_node6"><a xlink:href="orders.html#dec_pseudo_order" xlink:title="dec_pseudo_order">
<ellipse fill="#f070d1" stroke="#000000" cx="2455" cy="-818.0763" rx="95.5831" ry="18"/>
<text text-anchor="middle" x="2455" y="-814.3763" font-family="Times,serif" font-size="14.00" fill="#000000">dec_pseudo_order</text>
</a>
</g>
</g>
<!-- orders_dec_full_pseudo_order&#45;&gt;orders_dec_pseudo_order -->
<g id="edge4" class="edge">
<title>orders_dec_full_pseudo_order&#45;&gt;orders_dec_pseudo_order</title>
<path fill="none" stroke="#000000" d="M2568.0048,-991.0605C2543.2191,-953.1194 2497.3929,-882.9701 2472.3875,-844.6925"/>
<polygon fill="#000000" stroke="#000000" points="2475.1958,-842.5918 2466.7965,-836.134 2469.3355,-846.4202 2475.1958,-842.5918"/>
</g>
<!-- orders_Trichotomy_instance_0 -->
<g id="node7" class="node">
<title>orders_Trichotomy_instance_0</title>
<g id="a_node7"><a xlink:href="orders.html#Trichotomy_instance_0" xlink:title="Trichotomy_instance_0">
<ellipse fill="#f070d1" stroke="#000000" cx="2589" cy="-637.0763" rx="119.6788" ry="18"/>
<text text-anchor="middle" x="2589" y="-633.3763" font-family="Times,serif" font-size="14.00" fill="#000000">Trichotomy_instance_0</text>
</a>
</g>
</g>
<!-- orders_dec_pseudo_order&#45;&gt;orders_Trichotomy_instance_0 -->
<g id="edge5" class="edge">
<title>orders_dec_pseudo_order&#45;&gt;orders_Trichotomy_instance_0</title>
<path fill="none" stroke="#000000" d="M2468.3383,-800.0596C2492.1171,-767.9405 2541.9205,-700.6688 2569.5285,-663.3773"/>
<polygon fill="#000000" stroke="#000000" points="2572.5784,-665.1398 2575.7156,-655.0201 2566.9524,-660.9747 2572.5784,-665.1398"/>
</g>
<!-- orders_dec_order -->
<g id="node10" class="node">
<title>orders_dec_order</title>
<g id="a_node10"><a xlink:href="orders.html#dec_order" xlink:title="dec_order">
<ellipse fill="#f070d1" stroke="#000000" cx="2123" cy="-637.0763" rx="57.6901" ry="18"/>
<text text-anchor="middle" x="2123" y="-633.3763" font-family="Times,serif" font-size="14.00" fill="#000000">dec_order</text>
</a>
</g>
</g>
<!-- orders_dec_pseudo_order&#45;&gt;orders_dec_order -->
<g id="edge6" class="edge">
<title>orders_dec_pseudo_order&#45;&gt;orders_dec_order</title>
<path fill="none" stroke="#000000" d="M2423.7662,-801.0482C2362.5614,-767.6806 2227.0598,-693.8077 2160.87,-657.7223"/>
<polygon fill="#000000" stroke="#000000" points="2162.4606,-654.6031 2152.0053,-652.8894 2159.1099,-660.7491 2162.4606,-654.6031"/>
</g>
<!-- orders_dec_strict_pseudo_order -->
<g id="node12" class="node">
<title>orders_dec_strict_pseudo_order</title>
<g id="a_node12"><a xlink:href="orders.html#dec_strict_pseudo_order" xlink:title="dec_strict_pseudo_order">
<ellipse fill="#f070d1" stroke="#000000" cx="2325" cy="-637.0763" rx="126.1777" ry="18"/>
<text text-anchor="middle" x="2325" y="-633.3763" font-family="Times,serif" font-size="14.00" fill="#000000">dec_strict_pseudo_order</text>
</a>
</g>
</g>
<!-- orders_dec_pseudo_order&#45;&gt;orders_dec_strict_pseudo_order -->
<g id="edge7" class="edge">
<title>orders_dec_pseudo_order&#45;&gt;orders_dec_strict_pseudo_order</title>
<path fill="none" stroke="#000000" d="M2442.0598,-800.0596C2418.9909,-767.9405 2370.6742,-700.6688 2343.8903,-663.3773"/>
<polygon fill="#000000" stroke="#000000" points="2346.5642,-661.1005 2337.8878,-655.0201 2340.8787,-665.1841 2346.5642,-661.1005"/>
</g>
<!-- orders_dec_full_partial_order -->
<g id="node8" class="node">
<title>orders_dec_full_partial_order</title>
<g id="a_node8"><a xlink:href="orders.html#dec_full_partial_order" xlink:title="dec_full_partial_order">
<ellipse fill="#f070d1" stroke="#000000" cx="2034" cy="-818.0763" rx="113.174" ry="18"/>
<ellipse fill="none" stroke="#000000" cx="2034" cy="-818.0763" rx="117.177" ry="22"/>
<ellipse fill="none" stroke="#000000" cx="2034" cy="-818.0763" rx="121.18" ry="26"/>
<text text-anchor="middle" x="2034" y="-814.3763" font-family="Times,serif" font-size="14.00" fill="#000000">dec_full_partial_order</text>
</a>
</g>
</g>
<!-- orders_IsApart_instance_1 -->
<g id="node9" class="node">
<title>orders_IsApart_instance_1</title>
<g id="a_node9"><a xlink:href="orders.html#IsApart_instance_1" xlink:title="IsApart_instance_1">
<ellipse fill="#f070d1" stroke="#000000" cx="1946" cy="-637.0763" rx="100.9827" ry="18"/>
<text text-anchor="middle" x="1946" y="-633.3763" font-family="Times,serif" font-size="14.00" fill="#000000">IsApart_instance_1</text>
</a>
</g>
</g>
<!-- orders_dec_full_partial_order&#45;&gt;orders_IsApart_instance_1 -->
<g id="edge8" class="edge">
<title>orders_dec_full_partial_order&#45;&gt;orders_IsApart_instance_1</title>
<path fill="none" stroke="#000000" d="M2021.3917,-792.1434C2004.8408,-758.1011 1975.9247,-698.626 1959.1223,-664.0664"/>
<polygon fill="#000000" stroke="#000000" points="1962.2449,-662.4844 1954.7247,-655.0214 1955.9496,-665.5452 1962.2449,-662.4844"/>
</g>
<!-- orders_dec_full_partial_order&#45;&gt;orders_dec_order -->
<g id="edge9" class="edge">
<title>orders_dec_full_partial_order&#45;&gt;orders_dec_order</title>
<path fill="none" stroke="#000000" d="M2046.7515,-792.1434C2063.4906,-758.1011 2092.7352,-698.626 2109.7286,-664.0664"/>
<polygon fill="#000000" stroke="#000000" points="2112.9044,-665.5397 2114.1761,-655.0214 2106.6227,-662.4508 2112.9044,-665.5397"/>
</g>
<!-- orders_dec_lt -->
<g id="node11" class="node">
<title>orders_dec_lt</title>
<g id="a_node11"><a xlink:href="orders.html#dec_lt" xlink:title="dec_lt">
<ellipse fill="#f070d1" stroke="#000000" cx="2502" cy="-1216.0763" rx="38.9937" ry="18"/>
<ellipse fill="none" stroke="#000000" cx="2502" cy="-1216.0763" rx="42.9934" ry="22"/>
<ellipse fill="none" stroke="#000000" cx="2502" cy="-1216.0763" rx="46.9931" ry="26"/>
<text text-anchor="middle" x="2502" y="-1212.3763" font-family="Times,serif" font-size="14.00" fill="#000000">dec_lt</text>
</a>
</g>
</g>
<!-- orders_IsApart_instance_0 -->
<g id="node13" class="node">
<title>orders_IsApart_instance_0</title>
<g id="a_node13"><a xlink:href="orders.html#IsApart_instance_0" xlink:title="IsApart_instance_0">
<ellipse fill="#f070d1" stroke="#000000" cx="2270" cy="-456.0763" rx="100.9827" ry="18"/>
<text text-anchor="middle" x="2270" y="-452.3763" font-family="Times,serif" font-size="14.00" fill="#000000">IsApart_instance_0</text>
</a>
</g>
</g>
<!-- orders_dec_strict_pseudo_order&#45;&gt;orders_IsApart_instance_0 -->
<g id="edge10" class="edge">
<title>orders_dec_strict_pseudo_order&#45;&gt;orders_IsApart_instance_0</title>
<path fill="none" stroke="#000000" d="M2319.5253,-619.0596C2309.9137,-587.4288 2289.9428,-521.7061 2278.5151,-484.0987"/>
<polygon fill="#000000" stroke="#000000" points="2281.7905,-482.8391 2275.5342,-474.2887 2275.0928,-484.8744 2281.7905,-482.8391"/>
</g>
<!-- orders_lt_ne_flip -->
<g id="node49" class="node">
<title>orders_lt_ne_flip</title>
<g id="a_node49"><a xlink:href="orders.html#lt_ne_flip" xlink:title="lt_ne_flip">
<ellipse fill="#f070d1" stroke="#000000" cx="2443" cy="-456.0763" rx="53.8905" ry="18"/>
<text text-anchor="middle" x="2443" y="-452.3763" font-family="Times,serif" font-size="14.00" fill="#000000">lt_ne_flip</text>
</a>
</g>
</g>
<!-- orders_dec_strict_pseudo_order&#45;&gt;orders_lt_ne_flip -->
<g id="edge11" class="edge">
<title>orders_dec_strict_pseudo_order&#45;&gt;orders_lt_ne_flip</title>
<path fill="none" stroke="#000000" d="M2336.7457,-619.0596C2357.6506,-586.9936 2401.397,-519.8911 2425.7327,-482.5625"/>
<polygon fill="#000000" stroke="#000000" points="2428.9465,-484.0416 2431.4759,-473.7531 2423.0826,-480.2187 2428.9465,-484.0416"/>
</g>
<!-- orders_lt_antisym -->
<g id="node51" class="node">
<title>orders_lt_antisym</title>
<g id="a_node51"><a xlink:href="orders.html#lt_antisym" xlink:title="lt_antisym">
<ellipse fill="#f070d1" stroke="#000000" cx="2091" cy="-456.0763" rx="59.5901" ry="18"/>
<text text-anchor="middle" x="2091" y="-452.3763" font-family="Times,serif" font-size="14.00" fill="#000000">lt_antisym</text>
</a>
</g>
</g>
<!-- orders_dec_strict_pseudo_order&#45;&gt;orders_lt_antisym -->
<g id="edge12" class="edge">
<title>orders_dec_strict_pseudo_order&#45;&gt;orders_lt_antisym</title>
<path fill="none" stroke="#000000" d="M2301.7077,-619.0596C2258.9589,-585.9932 2168.044,-515.6702 2120.8402,-479.1578"/>
<polygon fill="#000000" stroke="#000000" points="2122.8816,-476.312 2112.8302,-472.9621 2118.5987,-481.8489 2122.8816,-476.312"/>
</g>
<!-- orders_lt_dec -->
<g id="node14" class="node">
<title>orders_lt_dec</title>
<g id="a_node14"><a xlink:href="orders.html#lt_dec" xlink:title="lt_dec">
<ellipse fill="#f070d1" stroke="#000000" cx="2076" cy="-1216.0763" rx="38.9937" ry="18"/>
<ellipse fill="none" stroke="#000000" cx="2076" cy="-1216.0763" rx="42.9934" ry="22"/>
<ellipse fill="none" stroke="#000000" cx="2076" cy="-1216.0763" rx="46.9931" ry="26"/>
<text text-anchor="middle" x="2076" y="-1212.3763" font-family="Times,serif" font-size="14.00" fill="#000000">lt_dec</text>
</a>
</g>
</g>
<!-- orders_not_le_lt_flip -->
<g id="node15" class="node">
<title>orders_not_le_lt_flip</title>
<g id="a_node15"><a xlink:href="orders.html#not_le_lt_flip" xlink:title="not_le_lt_flip">
<ellipse fill="#f070d1" stroke="#000000" cx="2088" cy="-1017.0763" rx="70.6878" ry="18"/>
<text text-anchor="middle" x="2088" y="-1013.3763" font-family="Times,serif" font-size="14.00" fill="#000000">not_le_lt_flip</text>
</a>
</g>
</g>
<!-- orders_lt_dec&#45;&gt;orders_not_le_lt_flip -->
<g id="edge13" class="edge">
<title>orders_lt_dec&#45;&gt;orders_not_le_lt_flip</title>
<path fill="none" stroke="#000000" d="M2077.5688,-1190.0605C2079.8277,-1152.5997 2083.98,-1083.7409 2086.3064,-1045.1613"/>
<polygon fill="#000000" stroke="#000000" points="2089.8027,-1045.3266 2086.9111,-1035.134 2082.8154,-1044.9052 2089.8027,-1045.3266"/>
</g>
<!-- orders_dec_from_lt_dec -->
<g id="node24" class="node">
<title>orders_dec_from_lt_dec</title>
<g id="a_node24"><a xlink:href="orders.html#dec_from_lt_dec" xlink:title="dec_from_lt_dec">
<ellipse fill="#f070d1" stroke="#000000" cx="1912" cy="-1017.0763" rx="87.1846" ry="18"/>
<text text-anchor="middle" x="1912" y="-1013.3763" font-family="Times,serif" font-size="14.00" fill="#000000">dec_from_lt_dec</text>
</a>
</g>
</g>
<!-- orders_lt_dec&#45;&gt;orders_dec_from_lt_dec -->
<g id="edge14" class="edge">
<title>orders_lt_dec&#45;&gt;orders_dec_from_lt_dec</title>
<path fill="none" stroke="#000000" d="M2056.2178,-1192.0722C2025.1192,-1154.3368 1965.0572,-1081.4567 1933.139,-1042.7266"/>
<polygon fill="#000000" stroke="#000000" points="1935.8365,-1040.4965 1926.7757,-1035.0054 1930.4346,-1044.9484 1935.8365,-1040.4965"/>
</g>
<!-- orders_le_not_lt_flip -->
<g id="node30" class="node">
<title>orders_le_not_lt_flip</title>
<g id="a_node30"><a xlink:href="orders.html#le_not_lt_flip" xlink:title="le_not_lt_flip">
<ellipse fill="#f070d1" stroke="#000000" cx="2372" cy="-1017.0763" rx="70.6878" ry="18"/>
<text text-anchor="middle" x="2372" y="-1013.3763" font-family="Times,serif" font-size="14.00" fill="#000000">le_not_lt_flip</text>
</a>
</g>
</g>
<!-- orders_lt_dec&#45;&gt;orders_le_not_lt_flip -->
<g id="edge15" class="edge">
<title>orders_lt_dec&#45;&gt;orders_le_not_lt_flip</title>
<path fill="none" stroke="#000000" d="M2106.011,-1195.9C2161.5114,-1158.5872 2279.8302,-1079.0418 2338.117,-1039.8557"/>
<polygon fill="#000000" stroke="#000000" points="2340.2561,-1042.6351 2346.6022,-1034.1511 2336.3506,-1036.8259 2340.2561,-1042.6351"/>
</g>
<!-- orders_le_or_lt -->
<g id="node17" class="node">
<title>orders_le_or_lt</title>
<g id="a_node17"><a xlink:href="orders.html#le_or_lt" xlink:title="le_or_lt">
<ellipse fill="#f070d1" stroke="#000000" cx="1710" cy="-818.0763" rx="45.4919" ry="18"/>
<text text-anchor="middle" x="1710" y="-814.3763" font-family="Times,serif" font-size="14.00" fill="#000000">le_or_lt</text>
</a>
</g>
</g>
<!-- orders_not_le_lt_flip&#45;&gt;orders_le_or_lt -->
<g id="edge16" class="edge">
<title>orders_not_le_lt_flip&#45;&gt;orders_le_or_lt</title>
<path fill="none" stroke="#000000" d="M2057.0667,-1000.7913C1987.8238,-964.338 1820.6239,-876.3148 1746.468,-837.275"/>
<polygon fill="#000000" stroke="#000000" points="1747.9577,-834.104 1737.4786,-832.5425 1744.6968,-840.298 1747.9577,-834.104"/>
</g>
<!-- orders_le_total -->
<g id="node16" class="node">
<title>orders_le_total</title>
<g id="a_node16"><a xlink:href="orders.html#le_total" xlink:title="le_total">
<ellipse fill="#f070d1" stroke="#000000" cx="2230" cy="-1017.0763" rx="45.4925" ry="18"/>
<ellipse fill="none" stroke="#000000" cx="2230" cy="-1017.0763" rx="49.4922" ry="22"/>
<ellipse fill="none" stroke="#000000" cx="2230" cy="-1017.0763" rx="53.4919" ry="26"/>
<text text-anchor="middle" x="2230" y="-1013.3763" font-family="Times,serif" font-size="14.00" fill="#000000">le_total</text>
</a>
</g>
</g>
<!-- orders_le_total&#45;&gt;orders_le_or_lt -->
<g id="edge17" class="edge">
<title>orders_le_total&#45;&gt;orders_le_or_lt</title>
<path fill="none" stroke="#000000" d="M2189.7315,-999.9428C2182.5141,-996.9424 2175.0481,-993.8842 2168,-991.0763 2016.4352,-930.6939 1834.6716,-863.6012 1753.2034,-833.8073"/>
<polygon fill="#000000" stroke="#000000" points="1754.3681,-830.5066 1743.7742,-830.3617 1751.9655,-837.0814 1754.3681,-830.5066"/>
</g>
<!-- orders_fullpseudo_fullpartial -->
<g id="node19" class="node">
<title>orders_fullpseudo_fullpartial</title>
<g id="a_node19"><a xlink:href="orders.html#fullpseudo_fullpartial" xlink:title="fullpseudo_fullpartial">
<ellipse fill="#f070d1" stroke="#000000" cx="1629" cy="-637.0763" rx="109.6807" ry="18"/>
<text text-anchor="middle" x="1629" y="-633.3763" font-family="Times,serif" font-size="14.00" fill="#000000">fullpseudo_fullpartial</text>
</a>
</g>
</g>
<!-- orders_le_or_lt&#45;&gt;orders_fullpseudo_fullpartial -->
<g id="edge18" class="edge">
<title>orders_le_or_lt&#45;&gt;orders_fullpseudo_fullpartial</title>
<path fill="none" stroke="#000000" d="M1701.9373,-800.0596C1687.7216,-768.2936 1658.1186,-702.1437 1641.3253,-664.6181"/>
<polygon fill="#000000" stroke="#000000" points="1644.4298,-662.9868 1637.1503,-655.2887 1638.0405,-665.8461 1644.4298,-662.9868"/>
</g>
<!-- orders_lt_le -->
<g id="node34" class="node">
<title>orders_lt_le</title>
<g id="a_node34"><a xlink:href="orders.html#lt_le" xlink:title="lt_le">
<ellipse fill="#f070d1" stroke="#000000" cx="1306" cy="-637.0763" rx="30.5947" ry="18"/>
<text text-anchor="middle" x="1306" y="-633.3763" font-family="Times,serif" font-size="14.00" fill="#000000">lt_le</text>
</a>
</g>
</g>
<!-- orders_le_or_lt&#45;&gt;orders_lt_le -->
<g id="edge19" class="edge">
<title>orders_le_or_lt&#45;&gt;orders_lt_le</title>
<path fill="none" stroke="#000000" d="M1679.7907,-804.5709C1617.4062,-776.6763 1469.8103,-710.6548 1346,-655.0763 1343.9679,-654.1641 1341.878,-653.2253 1339.77,-652.278"/>
<polygon fill="#000000" stroke="#000000" points="1341.0912,-649.0346 1330.5354,-648.1257 1338.2205,-655.4189 1341.0912,-649.0346"/>
</g>
<!-- orders_lt_trichotomy -->
<g id="node37" class="node">
<title>orders_lt_trichotomy</title>
<g id="a_node37"><a xlink:href="orders.html#lt_trichotomy" xlink:title="lt_trichotomy">
<ellipse fill="#f070d1" stroke="#000000" cx="1428" cy="-637.0763" rx="73.387" ry="18"/>
<text text-anchor="middle" x="1428" y="-633.3763" font-family="Times,serif" font-size="14.00" fill="#000000">lt_trichotomy</text>
</a>
</g>
</g>
<!-- orders_le_or_lt&#45;&gt;orders_lt_trichotomy -->
<g id="edge20" class="edge">
<title>orders_le_or_lt&#45;&gt;orders_lt_trichotomy</title>
<path fill="none" stroke="#000000" d="M1685.9568,-802.6443C1636.0407,-770.606 1520.9944,-696.7642 1462.9059,-659.4804"/>
<polygon fill="#000000" stroke="#000000" points="1464.7331,-656.4943 1454.4269,-654.0382 1460.952,-662.3853 1464.7331,-656.4943"/>
</g>
<!-- orders_eq_le -->
<g id="node56" class="node">
<title>orders_eq_le</title>
<g id="a_node56"><a xlink:href="orders.html#eq_le" xlink:title="eq_le">
<ellipse fill="#f070d1" stroke="#000000" cx="1792" cy="-637.0763" rx="35.194" ry="18"/>
<text text-anchor="middle" x="1792" y="-633.3763" font-family="Times,serif" font-size="14.00" fill="#000000">eq_le</text>
</a>
</g>
</g>
<!-- orders_le_or_lt&#45;&gt;orders_eq_le -->
<g id="edge21" class="edge">
<title>orders_le_or_lt&#45;&gt;orders_eq_le</title>
<path fill="none" stroke="#000000" d="M1718.1623,-800.0596C1732.6278,-768.1295 1762.8321,-701.4591 1779.785,-664.0386"/>
<polygon fill="#000000" stroke="#000000" points="1783.0531,-665.3063 1783.9917,-654.7531 1776.6769,-662.4176 1783.0531,-665.3063"/>
</g>
<!-- orders_le_stable -->
<g id="node18" class="node">
<title>orders_le_stable</title>
<g id="a_node18"><a xlink:href="orders.html#le_stable" xlink:title="le_stable">
<ellipse fill="#f070d1" stroke="#000000" cx="2201" cy="-1216.0763" rx="51.9914" ry="18"/>
<ellipse fill="none" stroke="#000000" cx="2201" cy="-1216.0763" rx="55.9911" ry="22"/>
<ellipse fill="none" stroke="#000000" cx="2201" cy="-1216.0763" rx="59.9908" ry="26"/>
<text text-anchor="middle" x="2201" y="-1212.3763" font-family="Times,serif" font-size="14.00" fill="#000000">le_stable</text>
</a>
</g>
</g>
<!-- orders_fullpseudo_fullpartial_ -->
<g id="node20" class="node">
<title>orders_fullpseudo_fullpartial_</title>
<g id="a_node20"><a xlink:href="orders.html#fullpseudo_fullpartial'" xlink:title="fullpseudo_fullpartial&#39;">
<ellipse fill="#f070d1" stroke="#000000" cx="1725" cy="-456.0763" rx="112.3801" ry="18"/>
<text text-anchor="middle" x="1725" y="-452.3763" font-family="Times,serif" font-size="14.00" fill="#000000">fullpseudo_fullpartial&#39;</text>
</a>
</g>
</g>
<!-- orders_fullpseudo_fullpartial&#45;&gt;orders_fullpseudo_fullpartial_ -->
<g id="edge22" class="edge">
<title>orders_fullpseudo_fullpartial&#45;&gt;orders_fullpseudo_fullpartial_</title>
<path fill="none" stroke="#000000" d="M1638.5558,-619.0596C1655.4476,-587.2115 1690.6705,-520.8016 1710.5462,-483.3278"/>
<polygon fill="#000000" stroke="#000000" points="1713.8892,-484.4944 1715.4828,-474.0201 1707.7052,-481.2145 1713.8892,-484.4944"/>
</g>
<!-- orders_fullpseudo_partial -->
<g id="node21" class="node">
<title>orders_fullpseudo_partial</title>
<g id="a_node21"><a xlink:href="orders.html#fullpseudo_partial" xlink:title="fullpseudo_partial">
<ellipse fill="#f070d1" stroke="#000000" cx="1725" cy="-258.0763" rx="94.7833" ry="18"/>
<text text-anchor="middle" x="1725" y="-254.3763" font-family="Times,serif" font-size="14.00" fill="#000000">fullpseudo_partial</text>
</a>
</g>
</g>
<!-- orders_fullpseudo_fullpartial_&#45;&gt;orders_fullpseudo_partial -->
<g id="edge23" class="edge">
<title>orders_fullpseudo_fullpartial_&#45;&gt;orders_fullpseudo_partial</title>
<path fill="none" stroke="#000000" d="M1725,-437.8038C1725,-403.1782 1725,-327.7864 1725,-286.5018"/>
<polygon fill="#000000" stroke="#000000" points="1728.5001,-286.3045 1725,-276.3046 1721.5001,-286.3046 1728.5001,-286.3045"/>
</g>
<!-- orders_not_lt_apart_lt_flip -->
<g id="node44" class="node">
<title>orders_not_lt_apart_lt_flip</title>
<g id="a_node44"><a xlink:href="orders.html#not_lt_apart_lt_flip" xlink:title="not_lt_apart_lt_flip">
<ellipse fill="#f070d1" stroke="#000000" cx="1937" cy="-258.0763" rx="98.5829" ry="18"/>
<text text-anchor="middle" x="1937" y="-254.3763" font-family="Times,serif" font-size="14.00" fill="#000000">not_lt_apart_lt_flip</text>
</a>
</g>
</g>
<!-- orders_fullpseudo_fullpartial_&#45;&gt;orders_not_lt_apart_lt_flip -->
<g id="edge24" class="edge">
<title>orders_fullpseudo_fullpartial_&#45;&gt;orders_not_lt_apart_lt_flip</title>
<path fill="none" stroke="#000000" d="M1744.1875,-438.1559C1782.2637,-402.5941 1867.4224,-323.0591 1910.6878,-282.6509"/>
<polygon fill="#000000" stroke="#000000" points="1913.0893,-285.1971 1918.0086,-275.8135 1908.3113,-280.0813 1913.0893,-285.1971"/>
</g>
<!-- orders_pseudo_order_lt_apart -->
<g id="node46" class="node">
<title>orders_pseudo_order_lt_apart</title>
<g id="a_node46"><a xlink:href="orders.html#pseudo_order_lt_apart" xlink:title="pseudo_order_lt_apart">
<ellipse fill="#f070d1" stroke="#000000" cx="1496" cy="-258.0763" rx="115.8798" ry="18"/>
<text text-anchor="middle" x="1496" y="-254.3763" font-family="Times,serif" font-size="14.00" fill="#000000">pseudo_order_lt_apart</text>
</a>
</g>
</g>
<!-- orders_fullpseudo_fullpartial_&#45;&gt;orders_pseudo_order_lt_apart -->
<g id="edge25" class="edge">
<title>orders_fullpseudo_fullpartial_&#45;&gt;orders_pseudo_order_lt_apart</title>
<path fill="none" stroke="#000000" d="M1704.2739,-438.1559C1663.0592,-402.5205 1570.7758,-322.7296 1524.1325,-282.4004"/>
<polygon fill="#000000" stroke="#000000" points="1526.368,-279.7065 1516.5143,-275.8135 1521.7896,-285.0017 1526.368,-279.7065"/>
</g>
<!-- orders_lt_flip -->
<g id="node52" class="node">
<title>orders_lt_flip</title>
<g id="a_node52"><a xlink:href="orders.html#lt_flip" xlink:title="lt_flip">
<ellipse fill="#f070d1" stroke="#000000" cx="2091" cy="-258.0763" rx="37.8943" ry="18"/>
<text text-anchor="middle" x="2091" y="-254.3763" font-family="Times,serif" font-size="14.00" fill="#000000">lt_flip</text>
</a>
</g>
</g>
<!-- orders_fullpseudo_fullpartial_&#45;&gt;orders_lt_flip -->
<g id="edge26" class="edge">
<title>orders_fullpseudo_fullpartial_&#45;&gt;orders_lt_flip</title>
<path fill="none" stroke="#000000" d="M1757.8316,-438.7248C1815.9372,-407.9504 1940.6057,-341.6265 2045,-284.0763 2049.1976,-281.7623 2053.5979,-279.3097 2057.9434,-276.8716"/>
<polygon fill="#000000" stroke="#000000" points="2059.709,-279.8942 2066.7036,-271.9364 2056.2731,-273.7955 2059.709,-279.8942"/>
</g>
<!-- orders_not_lt_le_flip -->
<g id="node22" class="node">
<title>orders_not_lt_le_flip</title>
<g id="a_node22"><a xlink:href="orders.html#not_lt_le_flip" xlink:title="not_lt_le_flip">
<ellipse fill="#f070d1" stroke="#000000" cx="1725" cy="-77.0763" rx="70.6878" ry="18"/>
<text text-anchor="middle" x="1725" y="-73.3763" font-family="Times,serif" font-size="14.00" fill="#000000">not_lt_le_flip</text>
</a>
</g>
</g>
<!-- orders_fullpseudo_partial&#45;&gt;orders_not_lt_le_flip -->
<g id="edge27" class="edge">
<title>orders_fullpseudo_partial&#45;&gt;orders_not_lt_le_flip</title>
<path fill="none" stroke="#000000" d="M1725,-240.0596C1725,-208.564 1725,-143.2672 1725,-105.5824"/>
<polygon fill="#000000" stroke="#000000" points="1728.5001,-105.2887 1725,-95.2887 1721.5001,-105.2888 1728.5001,-105.2887"/>
</g>
<!-- orders_nlt_antisymm -->
<g id="node39" class="node">
<title>orders_nlt_antisymm</title>
<g id="a_node39"><a xlink:href="orders.html#nlt_antisymm" xlink:title="nlt_antisymm">
<ellipse fill="#f070d1" stroke="#000000" cx="1888" cy="-77.0763" rx="74.187" ry="18"/>
<text text-anchor="middle" x="1888" y="-73.3763" font-family="Times,serif" font-size="14.00" fill="#000000">nlt_antisymm</text>
</a>
</g>
</g>
<!-- orders_fullpseudo_partial&#45;&gt;orders_nlt_antisymm -->
<g id="edge28" class="edge">
<title>orders_fullpseudo_partial&#45;&gt;orders_nlt_antisymm</title>
<path fill="none" stroke="#000000" d="M1741.225,-240.0596C1770.3468,-207.7218 1831.5579,-139.7512 1864.9966,-102.6199"/>
<polygon fill="#000000" stroke="#000000" points="1867.99,-104.5262 1872.0811,-94.7531 1862.7883,-99.8419 1867.99,-104.5262"/>
</g>
<!-- orders_nlt_trans -->
<g id="node40" class="node">
<title>orders_nlt_trans</title>
<g id="a_node40"><a xlink:href="orders.html#nlt_trans" xlink:title="nlt_trans">
<ellipse fill="#f070d1" stroke="#000000" cx="1584" cy="-77.0763" rx="52.7911" ry="18"/>
<text text-anchor="middle" x="1584" y="-73.3763" font-family="Times,serif" font-size="14.00" fill="#000000">nlt_trans</text>
</a>
</g>
</g>
<!-- orders_fullpseudo_partial&#45;&gt;orders_nlt_trans -->
<g id="edge29" class="edge">
<title>orders_fullpseudo_partial&#45;&gt;orders_nlt_trans</title>
<path fill="none" stroke="#000000" d="M1710.9649,-240.0596C1685.815,-207.7749 1632.9979,-139.9743 1604.0413,-102.8031"/>
<polygon fill="#000000" stroke="#000000" points="1606.4702,-100.2257 1597.5637,-94.4878 1600.948,-104.5275 1606.4702,-100.2257"/>
</g>
<!-- orders_fullpseudo_partial&#45;&gt;orders_pseudoorder_strictorder -->
<g id="edge30" class="edge">
<title>orders_fullpseudo_partial&#45;&gt;orders_pseudoorder_strictorder</title>
<path fill="none" stroke="#000000" d="M1779.0106,-243.2643C1898.43,-210.5144 2184.7219,-132.001 2316.496,-95.863"/>
<polygon fill="#000000" stroke="#000000" points="2317.7565,-99.1466 2326.4747,-93.1264 2315.9051,-92.3959 2317.7565,-99.1466"/>
</g>
<!-- orders_lt_dec_slow -->
<g id="node23" class="node">
<title>orders_lt_dec_slow</title>
<g id="a_node23"><a xlink:href="orders.html#lt_dec_slow" xlink:title="lt_dec_slow">
<ellipse fill="#f070d1" stroke="#000000" cx="1938" cy="-1216.0763" rx="64.9891" ry="18"/>
<ellipse fill="none" stroke="#000000" cx="1938" cy="-1216.0763" rx="68.9888" ry="22"/>
<ellipse fill="none" stroke="#000000" cx="1938" cy="-1216.0763" rx="72.9885" ry="26"/>
<text text-anchor="middle" x="1938" y="-1212.3763" font-family="Times,serif" font-size="14.00" fill="#000000">lt_dec_slow</text>
</a>
</g>
</g>
<!-- orders_lt_dec_slow&#45;&gt;orders_dec_from_lt_dec -->
<g id="edge31" class="edge">
<title>orders_lt_dec_slow&#45;&gt;orders_dec_from_lt_dec</title>
<path fill="none" stroke="#000000" d="M1934.601,-1190.0605C1929.7066,-1152.5997 1920.7099,-1083.7409 1915.6694,-1045.1613"/>
<polygon fill="#000000" stroke="#000000" points="1919.1254,-1044.5963 1914.3593,-1035.134 1912.1844,-1045.5032 1919.1254,-1044.5963"/>
</g>
<!-- orders_lt_iff_le_ne -->
<g id="node26" class="node">
<title>orders_lt_iff_le_ne</title>
<g id="a_node26"><a xlink:href="orders.html#lt_iff_le_ne" xlink:title="lt_iff_le_ne">
<ellipse fill="#f070d1" stroke="#000000" cx="1599" cy="-1017.0763" rx="61.99" ry="18"/>
<text text-anchor="middle" x="1599" y="-1013.3763" font-family="Times,serif" font-size="14.00" fill="#000000">lt_iff_le_ne</text>
</a>
</g>
</g>
<!-- orders_lt_dec_slow&#45;&gt;orders_lt_iff_le_ne -->
<g id="edge32" class="edge">
<title>orders_lt_dec_slow&#45;&gt;orders_lt_iff_le_ne</title>
<path fill="none" stroke="#000000" d="M1900.0992,-1193.8277C1834.4237,-1155.2749 1700.3024,-1076.5429 1635.5669,-1038.5418"/>
<polygon fill="#000000" stroke="#000000" points="1637.303,-1035.5025 1626.9073,-1033.4584 1633.7593,-1041.5393 1637.303,-1035.5025"/>
</g>
<!-- orders_not_le_not_lt -->
<g id="node33" class="node">
<title>orders_not_le_not_lt</title>
<g id="a_node33"><a xlink:href="orders.html#not_le_not_lt" xlink:title="not_le_not_lt">
<ellipse fill="#f070d1" stroke="#000000" cx="1482" cy="-818.0763" rx="70.6878" ry="18"/>
<text text-anchor="middle" x="1482" y="-814.3763" font-family="Times,serif" font-size="14.00" fill="#000000">not_le_not_lt</text>
</a>
</g>
</g>
<!-- orders_lt_dec_slow&#45;&gt;orders_not_le_not_lt -->
<g id="edge33" class="edge">
<title>orders_lt_dec_slow&#45;&gt;orders_not_le_not_lt</title>
<path fill="none" stroke="#000000" d="M1917.2912,-1190.9968C1891.1432,-1158.4455 1845.9615,-1099.155 1816,-1043.0763 1804.3315,-1021.2364 1812.2752,-1009.7379 1796,-991.0763 1725.3282,-910.0419 1607.048,-859.5936 1537.5962,-835.3529"/>
<polygon fill="#000000" stroke="#000000" points="1538.3096,-831.8976 1527.715,-831.966 1536.0399,-838.5194 1538.3096,-831.8976"/>
</g>
<!-- orders_fullpartialorder_strictorder -->
<g id="node35" class="node">
<title>orders_fullpartialorder_strictorder</title>
<g id="a_node35"><a xlink:href="orders.html#fullpartialorder_strictorder" xlink:title="fullpartialorder_strictorder">
<ellipse fill="#f070d1" stroke="#000000" cx="1381" cy="-1017.0763" rx="137.5759" ry="18"/>
<text text-anchor="middle" x="1381" y="-1013.3763" font-family="Times,serif" font-size="14.00" fill="#000000">fullpartialorder_strictorder</text>
</a>
</g>
</g>
<!-- orders_lt_dec_slow&#45;&gt;orders_fullpartialorder_strictorder -->
<g id="edge34" class="edge">
<title>orders_lt_dec_slow&#45;&gt;orders_fullpartialorder_strictorder</title>
<path fill="none" stroke="#000000" d="M1886.3483,-1197.6226C1782.024,-1160.3506 1546.8809,-1076.3408 1438.14,-1037.4908"/>
<polygon fill="#000000" stroke="#000000" points="1439.2414,-1034.1676 1428.6468,-1034.0991 1436.8862,-1040.7596 1439.2414,-1034.1676"/>
</g>
<!-- orders_eq_not_lt -->
<g id="node48" class="node">
<title>orders_eq_not_lt</title>
<g id="a_node48"><a xlink:href="orders.html#eq_not_lt" xlink:title="eq_not_lt">
<ellipse fill="#f070d1" stroke="#000000" cx="1733" cy="-1017.0763" rx="53.8905" ry="18"/>
<text text-anchor="middle" x="1733" y="-1013.3763" font-family="Times,serif" font-size="14.00" fill="#000000">eq_not_lt</text>
</a>
</g>
</g>
<!-- orders_lt_dec_slow&#45;&gt;orders_eq_not_lt -->
<g id="edge35" class="edge">
<title>orders_lt_dec_slow&#45;&gt;orders_eq_not_lt</title>
<path fill="none" stroke="#000000" d="M1912.4511,-1191.2752C1872.9061,-1152.8875 1797.3493,-1079.5422 1758.0869,-1041.4289"/>
<polygon fill="#000000" stroke="#000000" points="1760.3529,-1038.7508 1750.7397,-1034.2968 1755.4772,-1043.7735 1760.3529,-1038.7508"/>
</g>
<!-- orders_le_equiv_lt -->
<g id="node25" class="node">
<title>orders_le_equiv_lt</title>
<g id="a_node25"><a xlink:href="orders.html#le_equiv_lt" xlink:title="le_equiv_lt">
<ellipse fill="#f070d1" stroke="#000000" cx="1778" cy="-1216.0763" rx="61.1783" ry="18"/>
<ellipse fill="none" stroke="#000000" cx="1778" cy="-1216.0763" rx="65.1838" ry="22"/>
<ellipse fill="none" stroke="#000000" cx="1778" cy="-1216.0763" rx="69.1893" ry="26"/>
<text text-anchor="middle" x="1778" y="-1212.3763" font-family="Times,serif" font-size="14.00" fill="#000000">le_equiv_lt</text>
</a>
</g>
</g>
<!-- orders_le_equiv_lt&#45;&gt;orders_lt_iff_le_ne -->
<g id="edge36" class="edge">
<title>orders_le_equiv_lt&#45;&gt;orders_lt_iff_le_ne</title>
<path fill="none" stroke="#000000" d="M1755.6915,-1191.2752C1721.3932,-1153.1448 1656.0707,-1080.5236 1621.5985,-1042.1998"/>
<polygon fill="#000000" stroke="#000000" points="1624.0229,-1039.6614 1614.7331,-1034.5672 1618.8185,-1044.3427 1624.0229,-1039.6614"/>
</g>
<!-- orders_le_lt_trans -->
<g id="node27" class="node">
<title>orders_le_lt_trans</title>
<g id="a_node27"><a xlink:href="orders.html#le_lt_trans" xlink:title="le_lt_trans">
<ellipse fill="#f070d1" stroke="#000000" cx="1469" cy="-1216.0763" rx="59.6142" ry="18"/>
<ellipse fill="none" stroke="#000000" cx="1469" cy="-1216.0763" rx="63.6021" ry="22"/>
<ellipse fill="none" stroke="#000000" cx="1469" cy="-1216.0763" rx="67.59" ry="26"/>
<text text-anchor="middle" x="1469" y="-1212.3763" font-family="Times,serif" font-size="14.00" fill="#000000">le_lt_trans</text>
</a>
</g>
</g>
<!-- orders_lt_apart -->
<g id="node32" class="node">
<title>orders_lt_apart</title>
<g id="a_node32"><a xlink:href="orders.html#lt_apart" xlink:title="lt_apart">
<ellipse fill="#f070d1" stroke="#000000" cx="1178" cy="-1017.0763" rx="47.3916" ry="18"/>
<text text-anchor="middle" x="1178" y="-1013.3763" font-family="Times,serif" font-size="14.00" fill="#000000">lt_apart</text>
</a>
</g>
</g>
<!-- orders_le_lt_trans&#45;&gt;orders_lt_apart -->
<g id="edge37" class="edge">
<title>orders_le_lt_trans&#45;&gt;orders_lt_apart</title>
<path fill="none" stroke="#000000" d="M1435.6186,-1193.2485C1379.0769,-1154.5825 1265.2192,-1076.721 1209.7805,-1038.8093"/>
<polygon fill="#000000" stroke="#000000" points="1211.6324,-1035.8357 1201.4023,-1033.0799 1207.681,-1041.6138 1211.6324,-1035.8357"/>
</g>
<!-- orders_le_lt_trans&#45;&gt;orders_fullpartialorder_strictorder -->
<g id="edge38" class="edge">
<title>orders_le_lt_trans&#45;&gt;orders_fullpartialorder_strictorder</title>
<path fill="none" stroke="#000000" d="M1457.4955,-1190.0605C1440.8592,-1152.4396 1410.2193,-1083.1517 1393.2015,-1044.6683"/>
<polygon fill="#000000" stroke="#000000" points="1396.2307,-1042.8642 1388.9853,-1035.134 1389.8287,-1045.6952 1396.2307,-1042.8642"/>
</g>
<!-- orders_lt_le_trans -->
<g id="node28" class="node">
<title>orders_lt_le_trans</title>
<g id="a_node28"><a xlink:href="orders.html#lt_le_trans" xlink:title="lt_le_trans">
<ellipse fill="#f070d1" stroke="#000000" cx="1623" cy="-1216.0763" rx="59.6142" ry="18"/>
<ellipse fill="none" stroke="#000000" cx="1623" cy="-1216.0763" rx="63.6021" ry="22"/>
<ellipse fill="none" stroke="#000000" cx="1623" cy="-1216.0763" rx="67.59" ry="26"/>
<text text-anchor="middle" x="1623" y="-1212.3763" font-family="Times,serif" font-size="14.00" fill="#000000">lt_le_trans</text>
</a>
</g>
</g>
<!-- orders_lt_le_trans&#45;&gt;orders_lt_apart -->
<g id="edge39" class="edge">
<title>orders_lt_le_trans&#45;&gt;orders_lt_apart</title>
<path fill="none" stroke="#000000" d="M1578.2643,-1196.4624C1505.7993,-1164.6277 1358.3166,-1099.5747 1234,-1043.0763 1228.5612,-1040.6045 1222.8362,-1037.9766 1217.2075,-1035.3778"/>
<polygon fill="#000000" stroke="#000000" points="1218.4382,-1032.0906 1207.8932,-1031.0642 1215.4965,-1038.4426 1218.4382,-1032.0906"/>
</g>
<!-- orders_lt_le_trans&#45;&gt;orders_fullpartialorder_strictorder -->
<g id="edge40" class="edge">
<title>orders_lt_le_trans&#45;&gt;orders_fullpartialorder_strictorder</title>
<path fill="none" stroke="#000000" d="M1594.2891,-1192.4669C1548.108,-1154.4915 1457.769,-1080.2045 1410.8643,-1041.6342"/>
<polygon fill="#000000" stroke="#000000" points="1412.8513,-1038.7367 1402.9044,-1035.0886 1408.4053,-1044.1435 1412.8513,-1038.7367"/>
</g>
<!-- orders_lt_not_le_flip -->
<g id="node29" class="node">
<title>orders_lt_not_le_flip</title>
<g id="a_node29"><a xlink:href="orders.html#lt_not_le_flip" xlink:title="lt_not_le_flip">
<ellipse fill="#f070d1" stroke="#000000" cx="2358" cy="-1216.0763" rx="70.7036" ry="18"/>
<ellipse fill="none" stroke="#000000" cx="2358" cy="-1216.0763" rx="74.6957" ry="22"/>
<ellipse fill="none" stroke="#000000" cx="2358" cy="-1216.0763" rx="78.6877" ry="26"/>
<text text-anchor="middle" x="2358" y="-1212.3763" font-family="Times,serif" font-size="14.00" fill="#000000">lt_not_le_flip</text>
</a>
</g>
</g>
<!-- orders_lt_not_le_flip&#45;&gt;orders_le_not_lt_flip -->
<g id="edge41" class="edge">
<title>orders_lt_not_le_flip&#45;&gt;orders_le_not_lt_flip</title>
<path fill="none" stroke="#000000" d="M2359.8303,-1190.0605C2362.4657,-1152.5997 2367.31,-1083.7409 2370.0242,-1045.1613"/>
<polygon fill="#000000" stroke="#000000" points="2373.5191,-1045.355 2370.7296,-1035.134 2366.5364,-1044.8637 2373.5191,-1045.355"/>
</g>
<!-- orders_lt_apart_flip -->
<g id="node31" class="node">
<title>orders_lt_apart_flip</title>
<g id="a_node31"><a xlink:href="orders.html#lt_apart_flip" xlink:title="lt_apart_flip">
<ellipse fill="#f070d1" stroke="#000000" cx="1308" cy="-1216.0763" rx="67.6782" ry="18"/>
<ellipse fill="none" stroke="#000000" cx="1308" cy="-1216.0763" rx="71.6831" ry="22"/>
<ellipse fill="none" stroke="#000000" cx="1308" cy="-1216.0763" rx="75.6881" ry="26"/>
<text text-anchor="middle" x="1308" y="-1212.3763" font-family="Times,serif" font-size="14.00" fill="#000000">lt_apart_flip</text>
</a>
</g>
</g>
<!-- orders_not_le_not_lt&#45;&gt;orders_lt_le -->
<g id="edge42" class="edge">
<title>orders_not_le_not_lt&#45;&gt;orders_lt_le</title>
<path fill="none" stroke="#000000" d="M1464.8039,-800.3917C1432.7452,-767.4222 1363.8829,-696.6036 1328.301,-660.0108"/>
<polygon fill="#000000" stroke="#000000" points="1330.7193,-657.4772 1321.2386,-652.7478 1325.7007,-662.3572 1330.7193,-657.4772"/>
</g>
<!-- orders_strict_po_apart_ne -->
<g id="node36" class="node">
<title>orders_strict_po_apart_ne</title>
<g id="a_node36"><a xlink:href="orders.html#strict_po_apart_ne" xlink:title="strict_po_apart_ne">
<ellipse fill="#f070d1" stroke="#000000" cx="1108" cy="-1216.0763" rx="98.2721" ry="18"/>
<ellipse fill="none" stroke="#000000" cx="1108" cy="-1216.0763" rx="102.2774" ry="22"/>
<ellipse fill="none" stroke="#000000" cx="1108" cy="-1216.0763" rx="106.2828" ry="26"/>
<text text-anchor="middle" x="1108" y="-1212.3763" font-family="Times,serif" font-size="14.00" fill="#000000">strict_po_apart_ne</text>
</a>
</g>
</g>
<!-- orders_ne_total_lt -->
<g id="node38" class="node">
<title>orders_ne_total_lt</title>
<g id="a_node38"><a xlink:href="orders.html#ne_total_lt" xlink:title="ne_total_lt">
<ellipse fill="#f070d1" stroke="#000000" cx="1004" cy="-456.0763" rx="59.5901" ry="18"/>
<text text-anchor="middle" x="1004" y="-452.3763" font-family="Times,serif" font-size="14.00" fill="#000000">ne_total_lt</text>
</a>
</g>
</g>
<!-- orders_lt_trichotomy&#45;&gt;orders_ne_total_lt -->
<g id="edge43" class="edge">
<title>orders_lt_trichotomy&#45;&gt;orders_ne_total_lt</title>
<path fill="none" stroke="#000000" d="M1391.1145,-621.3304C1313.1261,-588.0381 1131.7979,-510.6315 1047.9592,-474.8419"/>
<polygon fill="#000000" stroke="#000000" points="1049.283,-471.6015 1038.7118,-470.8943 1046.5347,-478.0394 1049.283,-471.6015"/>
</g>
<!-- orders_apart_total_lt -->
<g id="node47" class="node">
<title>orders_apart_total_lt</title>
<g id="a_node47"><a xlink:href="orders.html#apart_total_lt" xlink:title="apart_total_lt">
<ellipse fill="#f070d1" stroke="#000000" cx="982" cy="-258.0763" rx="73.387" ry="18"/>
<text text-anchor="middle" x="982" y="-254.3763" font-family="Times,serif" font-size="14.00" fill="#000000">apart_total_lt</text>
</a>
</g>
</g>
<!-- orders_ne_total_lt&#45;&gt;orders_apart_total_lt -->
<g id="edge44" class="edge">
<title>orders_ne_total_lt&#45;&gt;orders_apart_total_lt</title>
<path fill="none" stroke="#000000" d="M1001.9697,-437.8038C998.1224,-403.1782 989.7456,-327.7864 985.1584,-286.5018"/>
<polygon fill="#000000" stroke="#000000" points="988.6084,-285.8569 984.0254,-276.3046 981.6512,-286.63 988.6084,-285.8569"/>
</g>
<!-- orders_pseudo_order_lt_ext -->
<g id="node42" class="node">
<title>orders_pseudo_order_lt_ext</title>
<g id="a_node42"><a xlink:href="orders.html#pseudo_order_lt_ext" xlink:title="pseudo_order_lt_ext">
<ellipse fill="#f070d1" stroke="#000000" cx="1349" cy="-456.0763" rx="105.0965" ry="18"/>
<ellipse fill="none" stroke="#000000" cx="1349" cy="-456.0763" rx="109.0891" ry="22"/>
<ellipse fill="none" stroke="#000000" cx="1349" cy="-456.0763" rx="113.0817" ry="26"/>
<text text-anchor="middle" x="1349" y="-452.3763" font-family="Times,serif" font-size="14.00" fill="#000000">pseudo_order_lt_ext</text>
</a>
</g>
</g>
<!-- orders_pseudo_order_cotrans_twice -->
<g id="node43" class="node">
<title>orders_pseudo_order_cotrans_twice</title>
<g id="a_node43"><a xlink:href="orders.html#pseudo_order_cotrans_twice" xlink:title="pseudo_order_cotrans_twice">
<ellipse fill="#f070d1" stroke="#000000" cx="1218" cy="-258.0763" rx="144.0747" ry="18"/>
<text text-anchor="middle" x="1218" y="-254.3763" font-family="Times,serif" font-size="14.00" fill="#000000">pseudo_order_cotrans_twice</text>
</a>
</g>
</g>
<!-- orders_pseudo_order_lt_ext&#45;&gt;orders_pseudo_order_cotrans_twice -->
<g id="edge45" class="edge">
<title>orders_pseudo_order_lt_ext&#45;&gt;orders_pseudo_order_cotrans_twice</title>
<path fill="none" stroke="#000000" d="M1331.874,-430.1912C1306.8978,-392.4408 1260.719,-322.644 1235.5212,-284.5587"/>
<polygon fill="#000000" stroke="#000000" points="1238.3241,-282.4519 1229.8873,-276.0433 1232.4861,-286.3144 1238.3241,-282.4519"/>
</g>
<!-- orders_pseudo_order_lt_ext&#45;&gt;orders_pseudo_order_lt_apart -->
<g id="edge46" class="edge">
<title>orders_pseudo_order_lt_ext&#45;&gt;orders_pseudo_order_lt_apart</title>
<path fill="none" stroke="#000000" d="M1368.2177,-430.1912C1396.3628,-392.2815 1448.5011,-322.0544 1476.6954,-284.0783"/>
<polygon fill="#000000" stroke="#000000" points="1479.51,-286.1588 1482.6609,-276.0433 1473.8896,-281.986 1479.51,-286.1588"/>
</g>
<!-- orders_pseudo_order_lt_apart_flip -->
<g id="node45" class="node">
<title>orders_pseudo_order_lt_apart_flip</title>
<g id="a_node45"><a xlink:href="orders.html#pseudo_order_lt_apart_flip" xlink:title="pseudo_order_lt_apart_flip">
<ellipse fill="#f070d1" stroke="#000000" cx="840" cy="-1216.0763" rx="135.6851" ry="18"/>
<ellipse fill="none" stroke="#000000" cx="840" cy="-1216.0763" rx="139.6806" ry="22"/>
<ellipse fill="none" stroke="#000000" cx="840" cy="-1216.0763" rx="143.6761" ry="26"/>
<text text-anchor="middle" x="840" y="-1212.3763" font-family="Times,serif" font-size="14.00" fill="#000000">pseudo_order_lt_apart_flip</text>
</a>
</g>
</g>
<!-- orders_lt_ne -->
<g id="node50" class="node">
<title>orders_lt_ne</title>
<g id="a_node50"><a xlink:href="orders.html#lt_ne" xlink:title="lt_ne">
<ellipse fill="#f070d1" stroke="#000000" cx="2180" cy="-258.0763" rx="33.5952" ry="18"/>
<text text-anchor="middle" x="2180" y="-254.3763" font-family="Times,serif" font-size="14.00" fill="#000000">lt_ne</text>
</a>
</g>
</g>
<!-- orders_lt_ne_flip&#45;&gt;orders_lt_ne -->
<g id="edge47" class="edge">
<title>orders_lt_ne_flip&#45;&gt;orders_lt_ne</title>
<path fill="none" stroke="#000000" d="M2421.0291,-439.5355C2373.3154,-403.6141 2260.2964,-318.5276 2207.7512,-278.9688"/>
<polygon fill="#000000" stroke="#000000" points="2209.6538,-276.0202 2199.5596,-272.8017 2205.4435,-281.6125 2209.6538,-276.0202"/>
</g>
<!-- orders_lt_antisym&#45;&gt;orders_lt_flip -->
<g id="edge48" class="edge">
<title>orders_lt_antisym&#45;&gt;orders_lt_flip</title>
<path fill="none" stroke="#000000" d="M2091,-437.8038C2091,-403.1782 2091,-327.7864 2091,-286.5018"/>
<polygon fill="#000000" stroke="#000000" points="2094.5001,-286.3045 2091,-276.3046 2087.5001,-286.3046 2094.5001,-286.3045"/>
</g>
<!-- orders_eq_iff_le -->
<g id="node53" class="node">
<title>orders_eq_iff_le</title>
<g id="a_node53"><a xlink:href="orders.html#eq_iff_le" xlink:title="eq_iff_le">
<ellipse fill="#f070d1" stroke="#000000" cx="620" cy="-1216.0763" rx="50.0849" ry="18"/>
<ellipse fill="none" stroke="#000000" cx="620" cy="-1216.0763" rx="54.088" ry="22"/>
<ellipse fill="none" stroke="#000000" cx="620" cy="-1216.0763" rx="58.0912" ry="26"/>
<text text-anchor="middle" x="620" y="-1212.3763" font-family="Times,serif" font-size="14.00" fill="#000000">eq_iff_le</text>
</a>
</g>
</g>
<!-- orders_not_le_ne -->
<g id="node54" class="node">
<title>orders_not_le_ne</title>
<g id="a_node54"><a xlink:href="orders.html#not_le_ne" xlink:title="not_le_ne">
<ellipse fill="#f070d1" stroke="#000000" cx="481" cy="-1216.0763" rx="55.46" ry="18"/>
<ellipse fill="none" stroke="#000000" cx="481" cy="-1216.0763" rx="59.4756" ry="22"/>
<ellipse fill="none" stroke="#000000" cx="481" cy="-1216.0763" rx="63.4911" ry="26"/>
<text text-anchor="middle" x="481" y="-1212.3763" font-family="Times,serif" font-size="14.00" fill="#000000">not_le_ne</text>
</a>
</g>
</g>
<!-- orders_eq_le_flip -->
<g id="node55" class="node">
<title>orders_eq_le_flip</title>
<g id="a_node55"><a xlink:href="orders.html#eq_le_flip" xlink:title="eq_le_flip">
<ellipse fill="#f070d1" stroke="#000000" cx="337" cy="-1216.0763" rx="55.46" ry="18"/>
<ellipse fill="none" stroke="#000000" cx="337" cy="-1216.0763" rx="59.4756" ry="22"/>
<ellipse fill="none" stroke="#000000" cx="337" cy="-1216.0763" rx="63.4911" ry="26"/>
<text text-anchor="middle" x="337" y="-1212.3763" font-family="Times,serif" font-size="14.00" fill="#000000">eq_le_flip</text>
</a>
</g>
</g>
<!-- orders_le_flip -->
<g id="node57" class="node">
<title>orders_le_flip</title>
<g id="a_node57"><a xlink:href="orders.html#le_flip" xlink:title="le_flip">
<ellipse fill="#f070d1" stroke="#000000" cx="209" cy="-1216.0763" rx="38.9937" ry="18"/>
<ellipse fill="none" stroke="#000000" cx="209" cy="-1216.0763" rx="42.9934" ry="22"/>
<ellipse fill="none" stroke="#000000" cx="209" cy="-1216.0763" rx="46.9931" ry="26"/>
<text text-anchor="middle" x="209" y="-1212.3763" font-family="Times,serif" font-size="14.00" fill="#000000">le_flip</text>
</a>
</g>
</g>
<!-- orders_irrefl_neq -->
<g id="node58" class="node">
<title>orders_irrefl_neq</title>
<g id="a_node58"><a xlink:href="orders.html#irrefl_neq" xlink:title="irrefl_neq">
<ellipse fill="#f070d1" stroke="#000000" cx="80" cy="-1216.0763" rx="55.8034" ry="18"/>
<ellipse fill="none" stroke="#000000" cx="80" cy="-1216.0763" rx="59.7968" ry="22"/>
<ellipse fill="none" stroke="#000000" cx="80" cy="-1216.0763" rx="63.7903" ry="26"/>
<text text-anchor="middle" x="80" y="-1212.3763" font-family="Times,serif" font-size="14.00" fill="#000000">irrefl_neq</text>
</a>
</g>
</g>
</g>
</svg>
