<?xml version="1.0" encoding="UTF-8" standalone="no"?>
<!DOCTYPE svg PUBLIC "-//W3C//DTD SVG 1.1//EN"
 "http://www.w3.org/Graphics/SVG/1.1/DTD/svg11.dtd">
<!-- Generated by graphviz version 2.40.1 (20161225.0304)
 -->
<!-- Title: HoTT_EquivGroupoids Pages: 1 -->
<svg width="4078pt" height="2043pt"
 viewBox="0.00 0.00 4078.00 2043.00" xmlns="http://www.w3.org/2000/svg" xmlns:xlink="http://www.w3.org/1999/xlink">
<g id="graph0" class="graph" transform="scale(1 1) rotate(0) translate(4 2039)">
<title>HoTT_EquivGroupoids</title>
<polygon fill="#ffffff" stroke="transparent" points="-4,4 -4,-2039 4074,-2039 4074,4 -4,4"/>
<g id="clust1" class="cluster">
<title>cluster_EquivGroupoids</title>
<polygon fill="#ffffc3" stroke="#000000" points="8,-90.9497 8,-1944.0503 4062,-1944.0503 4062,-90.9497 8,-90.9497"/>
<text text-anchor="middle" x="73.5" y="-1928.8503" font-family="Times,serif" font-size="14.00" fill="#000000">EquivGroupoids</text>
</g>
<!-- EquivGroupoids_emoveR_V1 -->
<g id="node1" class="node">
<title>EquivGroupoids_emoveR_V1</title>
<g id="a_node1"><a xlink:href="EquivGroupoids.html#emoveR_V1" xlink:title="emoveR_V1">
<ellipse fill="#f070d1" stroke="#000000" cx="3493" cy="-1295.9497" rx="65.7729" ry="18"/>
<ellipse fill="none" stroke="#000000" cx="3493" cy="-1295.9497" rx="69.7808" ry="22"/>
<ellipse fill="none" stroke="#000000" cx="3493" cy="-1295.9497" rx="73.7886" ry="26"/>
<text text-anchor="middle" x="3493" y="-1292.2497" font-family="Times,serif" font-size="14.00" fill="#000000">emoveR_V1</text>
</a>
</g>
</g>
<!-- EquivGroupoids_ecompose_V_ee -->
<g id="node25" class="node">
<title>EquivGroupoids_ecompose_V_ee</title>
<g id="a_node25"><a xlink:href="EquivGroupoids.html#ecompose_V_ee" xlink:title="ecompose_V_ee">
<ellipse fill="#f070d1" stroke="#000000" cx="3739" cy="-386.9497" rx="84.485" ry="18"/>
<text text-anchor="middle" x="3739" y="-383.2497" font-family="Times,serif" font-size="14.00" fill="#000000">ecompose_V_ee</text>
</a>
</g>
</g>
<!-- EquivGroupoids_emoveR_V1&#45;&gt;EquivGroupoids_ecompose_V_ee -->
<g id="edge1" class="edge">
<title>EquivGroupoids_emoveR_V1&#45;&gt;EquivGroupoids_ecompose_V_ee</title>
<path fill="none" stroke="#000000" d="M3500.097,-1269.7254C3535.6861,-1138.2192 3694.4687,-551.4983 3731.3362,-415.2686"/>
<polygon fill="#000000" stroke="#000000" points="3734.8244,-415.777 3734.0583,-405.2099 3728.0675,-413.9484 3734.8244,-415.777"/>
</g>
<!-- EquivGroupoids_ecompose_e1 -->
<g id="node31" class="node">
<title>EquivGroupoids_ecompose_e1</title>
<g id="a_node31"><a xlink:href="EquivGroupoids.html#ecompose_e1" xlink:title="ecompose_e1">
<ellipse fill="#f070d1" stroke="#000000" cx="3404" cy="-386.9497" rx="73.387" ry="18"/>
<text text-anchor="middle" x="3404" y="-383.2497" font-family="Times,serif" font-size="14.00" fill="#000000">ecompose_e1</text>
</a>
</g>
</g>
<!-- EquivGroupoids_emoveR_V1&#45;&gt;EquivGroupoids_ecompose_e1 -->
<g id="edge2" class="edge">
<title>EquivGroupoids_emoveR_V1&#45;&gt;EquivGroupoids_ecompose_e1</title>
<path fill="none" stroke="#000000" d="M3490.4324,-1269.7254C3477.5566,-1138.2192 3420.1109,-551.4983 3406.7727,-415.2686"/>
<polygon fill="#000000" stroke="#000000" points="3410.2457,-414.8212 3405.7879,-405.2099 3403.279,-415.5034 3410.2457,-414.8212"/>
</g>
<!-- EquivGroupoids_emoveR_1V -->
<g id="node2" class="node">
<title>EquivGroupoids_emoveR_1V</title>
<g id="a_node2"><a xlink:href="EquivGroupoids.html#emoveR_1V" xlink:title="emoveR_1V">
<ellipse fill="#f070d1" stroke="#000000" cx="2326" cy="-1295.9497" rx="65.7729" ry="18"/>
<ellipse fill="none" stroke="#000000" cx="2326" cy="-1295.9497" rx="69.7808" ry="22"/>
<ellipse fill="none" stroke="#000000" cx="2326" cy="-1295.9497" rx="73.7886" ry="26"/>
<text text-anchor="middle" x="2326" y="-1292.2497" font-family="Times,serif" font-size="14.00" fill="#000000">emoveR_1V</text>
</a>
</g>
</g>
<!-- EquivGroupoids_ecompose_ee_V -->
<g id="node23" class="node">
<title>EquivGroupoids_ecompose_ee_V</title>
<g id="a_node23"><a xlink:href="EquivGroupoids.html#ecompose_ee_V" xlink:title="ecompose_ee_V">
<ellipse fill="#f070d1" stroke="#000000" cx="2408" cy="-386.9497" rx="84.485" ry="18"/>
<text text-anchor="middle" x="2408" y="-383.2497" font-family="Times,serif" font-size="14.00" fill="#000000">ecompose_ee_V</text>
</a>
</g>
</g>
<!-- EquivGroupoids_emoveR_1V&#45;&gt;EquivGroupoids_ecompose_ee_V -->
<g id="edge3" class="edge">
<title>EquivGroupoids_emoveR_1V&#45;&gt;EquivGroupoids_ecompose_ee_V</title>
<path fill="none" stroke="#000000" d="M2328.3657,-1269.7254C2340.2287,-1138.2192 2393.1562,-551.4983 2405.4454,-415.2686"/>
<polygon fill="#000000" stroke="#000000" points="2408.9401,-415.484 2406.3528,-405.2099 2401.9684,-414.855 2408.9401,-415.484"/>
</g>
<!-- EquivGroupoids_ecompose_1e -->
<g id="node30" class="node">
<title>EquivGroupoids_ecompose_1e</title>
<g id="a_node30"><a xlink:href="EquivGroupoids.html#ecompose_1e" xlink:title="ecompose_1e">
<ellipse fill="#f070d1" stroke="#000000" cx="2077" cy="-386.9497" rx="73.387" ry="18"/>
<text text-anchor="middle" x="2077" y="-383.2497" font-family="Times,serif" font-size="14.00" fill="#000000">ecompose_1e</text>
</a>
</g>
</g>
<!-- EquivGroupoids_emoveR_1V&#45;&gt;EquivGroupoids_ecompose_1e -->
<g id="edge4" class="edge">
<title>EquivGroupoids_emoveR_1V&#45;&gt;EquivGroupoids_ecompose_1e</title>
<path fill="none" stroke="#000000" d="M2318.8164,-1269.7254C2282.7572,-1138.0873 2121.7518,-550.3209 2084.6454,-414.86"/>
<polygon fill="#000000" stroke="#000000" points="2088.0196,-413.9299 2082.002,-405.2099 2081.2683,-415.7793 2088.0196,-413.9299"/>
</g>
<!-- EquivGroupoids_emoveR_1M -->
<g id="node3" class="node">
<title>EquivGroupoids_emoveR_1M</title>
<g id="a_node3"><a xlink:href="EquivGroupoids.html#emoveR_1M" xlink:title="emoveR_1M">
<ellipse fill="#f070d1" stroke="#000000" cx="1825" cy="-1295.9497" rx="67.6782" ry="18"/>
<ellipse fill="none" stroke="#000000" cx="1825" cy="-1295.9497" rx="71.6831" ry="22"/>
<ellipse fill="none" stroke="#000000" cx="1825" cy="-1295.9497" rx="75.6881" ry="26"/>
<text text-anchor="middle" x="1825" y="-1292.2497" font-family="Times,serif" font-size="14.00" fill="#000000">emoveR_1M</text>
</a>
</g>
</g>
<!-- EquivGroupoids_ecompose_eV_e -->
<g id="node22" class="node">
<title>EquivGroupoids_ecompose_eV_e</title>
<g id="a_node22"><a xlink:href="EquivGroupoids.html#ecompose_eV_e" xlink:title="ecompose_eV_e">
<ellipse fill="#f070d1" stroke="#000000" cx="1737" cy="-386.9497" rx="84.485" ry="18"/>
<text text-anchor="middle" x="1737" y="-383.2497" font-family="Times,serif" font-size="14.00" fill="#000000">ecompose_eV_e</text>
</a>
</g>
</g>
<!-- EquivGroupoids_emoveR_1M&#45;&gt;EquivGroupoids_ecompose_eV_e -->
<g id="edge5" class="edge">
<title>EquivGroupoids_emoveR_1M&#45;&gt;EquivGroupoids_ecompose_eV_e</title>
<path fill="none" stroke="#000000" d="M1822.4612,-1269.7254C1809.7302,-1138.2192 1752.9299,-551.4983 1739.7415,-415.2686"/>
<polygon fill="#000000" stroke="#000000" points="1743.2152,-414.8261 1738.7678,-405.2099 1736.2477,-415.5007 1743.2152,-414.8261"/>
</g>
<!-- EquivGroupoids_emoveR_1M&#45;&gt;EquivGroupoids_ecompose_1e -->
<g id="edge6" class="edge">
<title>EquivGroupoids_emoveR_1M&#45;&gt;EquivGroupoids_ecompose_1e</title>
<path fill="none" stroke="#000000" d="M1832.2701,-1269.7254C1868.7638,-1138.0873 2031.709,-550.3209 2069.2625,-414.86"/>
<polygon fill="#000000" stroke="#000000" points="2072.639,-415.7815 2071.9378,-405.2099 2065.8934,-413.9114 2072.639,-415.7815"/>
</g>
<!-- EquivGroupoids_emoveR_M1 -->
<g id="node4" class="node">
<title>EquivGroupoids_emoveR_M1</title>
<g id="a_node4"><a xlink:href="EquivGroupoids.html#emoveR_M1" xlink:title="emoveR_M1">
<ellipse fill="#f070d1" stroke="#000000" cx="3326" cy="-1295.9497" rx="67.6782" ry="18"/>
<ellipse fill="none" stroke="#000000" cx="3326" cy="-1295.9497" rx="71.6831" ry="22"/>
<ellipse fill="none" stroke="#000000" cx="3326" cy="-1295.9497" rx="75.6881" ry="26"/>
<text text-anchor="middle" x="3326" y="-1292.2497" font-family="Times,serif" font-size="14.00" fill="#000000">emoveR_M1</text>
</a>
</g>
</g>
<!-- EquivGroupoids_ecompose_e_Ve -->
<g id="node24" class="node">
<title>EquivGroupoids_ecompose_e_Ve</title>
<g id="a_node24"><a xlink:href="EquivGroupoids.html#ecompose_e_Ve" xlink:title="ecompose_e_Ve">
<ellipse fill="#f070d1" stroke="#000000" cx="3072" cy="-386.9497" rx="83.3857" ry="18"/>
<text text-anchor="middle" x="3072" y="-383.2497" font-family="Times,serif" font-size="14.00" fill="#000000">ecompose_e_Ve</text>
</a>
</g>
</g>
<!-- EquivGroupoids_emoveR_M1&#45;&gt;EquivGroupoids_ecompose_e_Ve -->
<g id="edge7" class="edge">
<title>EquivGroupoids_emoveR_M1&#45;&gt;EquivGroupoids_ecompose_e_Ve</title>
<path fill="none" stroke="#000000" d="M3318.6722,-1269.7254C3281.8888,-1138.0873 3117.6505,-550.3209 3079.7989,-414.86"/>
<polygon fill="#000000" stroke="#000000" points="3083.1645,-413.899 3077.1024,-405.2099 3076.4228,-415.7829 3083.1645,-413.899"/>
</g>
<!-- EquivGroupoids_emoveR_M1&#45;&gt;EquivGroupoids_ecompose_e1 -->
<g id="edge8" class="edge">
<title>EquivGroupoids_emoveR_M1&#45;&gt;EquivGroupoids_ecompose_e1</title>
<path fill="none" stroke="#000000" d="M3328.2503,-1269.7254C3339.5346,-1138.2192 3389.8803,-551.4983 3401.57,-415.2686"/>
<polygon fill="#000000" stroke="#000000" points="3405.0653,-415.4726 3402.4331,-405.2099 3398.0909,-414.874 3405.0653,-415.4726"/>
</g>
<!-- EquivGroupoids_emoveL_V1 -->
<g id="node5" class="node">
<title>EquivGroupoids_emoveL_V1</title>
<g id="a_node5"><a xlink:href="EquivGroupoids.html#emoveL_V1" xlink:title="emoveL_V1">
<ellipse fill="#f070d1" stroke="#000000" cx="3658" cy="-1295.9497" rx="64.9891" ry="18"/>
<ellipse fill="none" stroke="#000000" cx="3658" cy="-1295.9497" rx="68.9888" ry="22"/>
<ellipse fill="none" stroke="#000000" cx="3658" cy="-1295.9497" rx="72.9885" ry="26"/>
<text text-anchor="middle" x="3658" y="-1292.2497" font-family="Times,serif" font-size="14.00" fill="#000000">emoveL_V1</text>
</a>
</g>
</g>
<!-- EquivGroupoids_emoveL_V1&#45;&gt;EquivGroupoids_ecompose_V_ee -->
<g id="edge9" class="edge">
<title>EquivGroupoids_emoveL_V1&#45;&gt;EquivGroupoids_ecompose_V_ee</title>
<path fill="none" stroke="#000000" d="M3660.3368,-1269.7254C3672.0552,-1138.2192 3724.3373,-551.4983 3736.4765,-415.2686"/>
<polygon fill="#000000" stroke="#000000" points="3739.9714,-415.4811 3737.3729,-405.2099 3732.999,-414.8598 3739.9714,-415.4811"/>
</g>
<!-- EquivGroupoids_emoveL_V1&#45;&gt;EquivGroupoids_ecompose_e1 -->
<g id="edge10" class="edge">
<title>EquivGroupoids_emoveL_V1&#45;&gt;EquivGroupoids_ecompose_e1</title>
<path fill="none" stroke="#000000" d="M3650.6722,-1269.7254C3613.8888,-1138.0873 3449.6505,-550.3209 3411.7989,-414.86"/>
<polygon fill="#000000" stroke="#000000" points="3415.1645,-413.899 3409.1024,-405.2099 3408.4228,-415.7829 3415.1645,-413.899"/>
</g>
<!-- EquivGroupoids_emoveL_1V -->
<g id="node6" class="node">
<title>EquivGroupoids_emoveL_1V</title>
<g id="a_node6"><a xlink:href="EquivGroupoids.html#emoveL_1V" xlink:title="emoveL_1V">
<ellipse fill="#f070d1" stroke="#000000" cx="2161" cy="-1295.9497" rx="64.9891" ry="18"/>
<ellipse fill="none" stroke="#000000" cx="2161" cy="-1295.9497" rx="68.9888" ry="22"/>
<ellipse fill="none" stroke="#000000" cx="2161" cy="-1295.9497" rx="72.9885" ry="26"/>
<text text-anchor="middle" x="2161" y="-1292.2497" font-family="Times,serif" font-size="14.00" fill="#000000">emoveL_1V</text>
</a>
</g>
</g>
<!-- EquivGroupoids_emoveL_1V&#45;&gt;EquivGroupoids_ecompose_ee_V -->
<g id="edge11" class="edge">
<title>EquivGroupoids_emoveL_1V&#45;&gt;EquivGroupoids_ecompose_ee_V</title>
<path fill="none" stroke="#000000" d="M2168.1259,-1269.7254C2203.8955,-1138.0873 2363.6076,-550.3209 2400.416,-414.86"/>
<polygon fill="#000000" stroke="#000000" points="2403.7935,-415.7778 2403.0382,-405.2099 2397.0384,-413.9422 2403.7935,-415.7778"/>
</g>
<!-- EquivGroupoids_emoveL_1V&#45;&gt;EquivGroupoids_ecompose_1e -->
<g id="edge12" class="edge">
<title>EquivGroupoids_emoveL_1V&#45;&gt;EquivGroupoids_ecompose_1e</title>
<path fill="none" stroke="#000000" d="M2158.5766,-1269.7254C2146.4242,-1138.2192 2092.2058,-551.4983 2079.6169,-415.2686"/>
<polygon fill="#000000" stroke="#000000" points="2083.0928,-414.8454 2078.6874,-405.2099 2076.1225,-415.4896 2083.0928,-414.8454"/>
</g>
<!-- EquivGroupoids_emoveL_M1 -->
<g id="node7" class="node">
<title>EquivGroupoids_emoveL_M1</title>
<g id="a_node7"><a xlink:href="EquivGroupoids.html#emoveL_M1" xlink:title="emoveL_M1">
<ellipse fill="#f070d1" stroke="#000000" cx="3157" cy="-1295.9497" rx="67.6782" ry="18"/>
<ellipse fill="none" stroke="#000000" cx="3157" cy="-1295.9497" rx="71.6831" ry="22"/>
<ellipse fill="none" stroke="#000000" cx="3157" cy="-1295.9497" rx="75.6881" ry="26"/>
<text text-anchor="middle" x="3157" y="-1292.2497" font-family="Times,serif" font-size="14.00" fill="#000000">emoveL_M1</text>
</a>
</g>
</g>
<!-- EquivGroupoids_emoveL_M1&#45;&gt;EquivGroupoids_ecompose_e_Ve -->
<g id="edge13" class="edge">
<title>EquivGroupoids_emoveL_M1&#45;&gt;EquivGroupoids_ecompose_e_Ve</title>
<path fill="none" stroke="#000000" d="M3154.5478,-1269.7254C3142.2507,-1138.2192 3087.3868,-551.4983 3074.6481,-415.2686"/>
<polygon fill="#000000" stroke="#000000" points="3078.1234,-414.8406 3073.7075,-405.2099 3071.1538,-415.4924 3078.1234,-414.8406"/>
</g>
<!-- EquivGroupoids_emoveL_M1&#45;&gt;EquivGroupoids_ecompose_e1 -->
<g id="edge14" class="edge">
<title>EquivGroupoids_emoveL_M1&#45;&gt;EquivGroupoids_ecompose_e1</title>
<path fill="none" stroke="#000000" d="M3164.1259,-1269.7254C3199.8955,-1138.0873 3359.6076,-550.3209 3396.416,-414.86"/>
<polygon fill="#000000" stroke="#000000" points="3399.7935,-415.7778 3399.0382,-405.2099 3393.0384,-413.9422 3399.7935,-415.7778"/>
</g>
<!-- EquivGroupoids_emoveL_1M -->
<g id="node8" class="node">
<title>EquivGroupoids_emoveL_1M</title>
<g id="a_node8"><a xlink:href="EquivGroupoids.html#emoveL_1M" xlink:title="emoveL_1M">
<ellipse fill="#f070d1" stroke="#000000" cx="1994" cy="-1295.9497" rx="67.6782" ry="18"/>
<ellipse fill="none" stroke="#000000" cx="1994" cy="-1295.9497" rx="71.6831" ry="22"/>
<ellipse fill="none" stroke="#000000" cx="1994" cy="-1295.9497" rx="75.6881" ry="26"/>
<text text-anchor="middle" x="1994" y="-1292.2497" font-family="Times,serif" font-size="14.00" fill="#000000">emoveL_1M</text>
</a>
</g>
</g>
<!-- EquivGroupoids_emoveL_1M&#45;&gt;EquivGroupoids_ecompose_eV_e -->
<g id="edge15" class="edge">
<title>EquivGroupoids_emoveL_1M&#45;&gt;EquivGroupoids_ecompose_eV_e</title>
<path fill="none" stroke="#000000" d="M1986.5857,-1269.7254C1949.3678,-1138.0873 1783.1897,-550.3209 1744.891,-414.86"/>
<polygon fill="#000000" stroke="#000000" points="1748.2514,-413.8805 1742.1627,-405.2099 1741.5154,-415.785 1748.2514,-413.8805"/>
</g>
<!-- EquivGroupoids_emoveL_1M&#45;&gt;EquivGroupoids_ecompose_1e -->
<g id="edge16" class="edge">
<title>EquivGroupoids_emoveL_1M&#45;&gt;EquivGroupoids_ecompose_1e</title>
<path fill="none" stroke="#000000" d="M1996.3945,-1269.7254C2008.4022,-1138.2192 2061.9752,-551.4983 2074.4142,-415.2686"/>
<polygon fill="#000000" stroke="#000000" points="2077.9088,-415.4868 2075.3327,-405.2099 2070.9378,-414.8502 2077.9088,-415.4868"/>
</g>
<!-- EquivGroupoids_emoveL_eV -->
<g id="node9" class="node">
<title>EquivGroupoids_emoveL_eV</title>
<g id="a_node9"><a xlink:href="EquivGroupoids.html#emoveL_eV" xlink:title="emoveL_eV">
<ellipse fill="#f070d1" stroke="#000000" cx="2654" cy="-1295.9497" rx="64.2061" ry="18"/>
<ellipse fill="none" stroke="#000000" cx="2654" cy="-1295.9497" rx="68.1975" ry="22"/>
<ellipse fill="none" stroke="#000000" cx="2654" cy="-1295.9497" rx="72.1889" ry="26"/>
<text text-anchor="middle" x="2654" y="-1292.2497" font-family="Times,serif" font-size="14.00" fill="#000000">emoveL_eV</text>
</a>
</g>
</g>
<!-- EquivGroupoids_emoveL_eV&#45;&gt;EquivGroupoids_ecompose_ee_V -->
<g id="edge17" class="edge">
<title>EquivGroupoids_emoveL_eV&#45;&gt;EquivGroupoids_ecompose_ee_V</title>
<path fill="none" stroke="#000000" d="M2646.903,-1269.7254C2611.3139,-1138.2192 2452.5313,-551.4983 2415.6638,-415.2686"/>
<polygon fill="#000000" stroke="#000000" points="2418.9325,-413.9484 2412.9417,-405.2099 2412.1756,-415.777 2418.9325,-413.9484"/>
</g>
<!-- EquivGroupoids_emoveL_Ve -->
<g id="node10" class="node">
<title>EquivGroupoids_emoveL_Ve</title>
<g id="a_node10"><a xlink:href="EquivGroupoids.html#emoveL_Ve" xlink:title="emoveL_Ve">
<ellipse fill="#f070d1" stroke="#000000" cx="3982" cy="-1295.9497" rx="63.8675" ry="18"/>
<ellipse fill="none" stroke="#000000" cx="3982" cy="-1295.9497" rx="67.8784" ry="22"/>
<ellipse fill="none" stroke="#000000" cx="3982" cy="-1295.9497" rx="71.8892" ry="26"/>
<text text-anchor="middle" x="3982" y="-1292.2497" font-family="Times,serif" font-size="14.00" fill="#000000">emoveL_Ve</text>
</a>
</g>
</g>
<!-- EquivGroupoids_emoveL_Ve&#45;&gt;EquivGroupoids_ecompose_V_ee -->
<g id="edge18" class="edge">
<title>EquivGroupoids_emoveL_Ve&#45;&gt;EquivGroupoids_ecompose_V_ee</title>
<path fill="none" stroke="#000000" d="M3974.9895,-1269.7254C3939.8344,-1138.2192 3782.9882,-551.4983 3746.5704,-415.2686"/>
<polygon fill="#000000" stroke="#000000" points="3749.8454,-413.9667 3743.8814,-405.2099 3743.0828,-415.7746 3749.8454,-413.9667"/>
</g>
<!-- EquivGroupoids_emoveL_eM -->
<g id="node11" class="node">
<title>EquivGroupoids_emoveL_eM</title>
<g id="a_node11"><a xlink:href="EquivGroupoids.html#emoveL_eM" xlink:title="emoveL_eM">
<ellipse fill="#f070d1" stroke="#000000" cx="1656" cy="-1295.9497" rx="66.8941" ry="18"/>
<ellipse fill="none" stroke="#000000" cx="1656" cy="-1295.9497" rx="70.8911" ry="22"/>
<ellipse fill="none" stroke="#000000" cx="1656" cy="-1295.9497" rx="74.8882" ry="26"/>
<text text-anchor="middle" x="1656" y="-1292.2497" font-family="Times,serif" font-size="14.00" fill="#000000">emoveL_eM</text>
</a>
</g>
</g>
<!-- EquivGroupoids_emoveL_eM&#45;&gt;EquivGroupoids_ecompose_eV_e -->
<g id="edge19" class="edge">
<title>EquivGroupoids_emoveL_eM&#45;&gt;EquivGroupoids_ecompose_eV_e</title>
<path fill="none" stroke="#000000" d="M1658.3368,-1269.7254C1670.0552,-1138.2192 1722.3373,-551.4983 1734.4765,-415.2686"/>
<polygon fill="#000000" stroke="#000000" points="1737.9714,-415.4811 1735.3729,-405.2099 1730.999,-414.8598 1737.9714,-415.4811"/>
</g>
<!-- EquivGroupoids_emoveL_Me -->
<g id="node12" class="node">
<title>EquivGroupoids_emoveL_Me</title>
<g id="a_node12"><a xlink:href="EquivGroupoids.html#emoveL_Me" xlink:title="emoveL_Me">
<ellipse fill="#f070d1" stroke="#000000" cx="2819" cy="-1295.9497" rx="66.8941" ry="18"/>
<ellipse fill="none" stroke="#000000" cx="2819" cy="-1295.9497" rx="70.8911" ry="22"/>
<ellipse fill="none" stroke="#000000" cx="2819" cy="-1295.9497" rx="74.8882" ry="26"/>
<text text-anchor="middle" x="2819" y="-1292.2497" font-family="Times,serif" font-size="14.00" fill="#000000">emoveL_Me</text>
</a>
</g>
</g>
<!-- EquivGroupoids_emoveL_Me&#45;&gt;EquivGroupoids_ecompose_e_Ve -->
<g id="edge20" class="edge">
<title>EquivGroupoids_emoveL_Me&#45;&gt;EquivGroupoids_ecompose_e_Ve</title>
<path fill="none" stroke="#000000" d="M2826.2989,-1269.7254C2862.9375,-1138.0873 3026.5292,-550.3209 3064.2318,-414.86"/>
<polygon fill="#000000" stroke="#000000" points="3067.6081,-415.7822 3066.9177,-405.2099 3060.8644,-413.9052 3067.6081,-415.7822"/>
</g>
<!-- EquivGroupoids_emoveR_eV -->
<g id="node13" class="node">
<title>EquivGroupoids_emoveR_eV</title>
<g id="a_node13"><a xlink:href="EquivGroupoids.html#emoveR_eV" xlink:title="emoveR_eV">
<ellipse fill="#f070d1" stroke="#000000" cx="2491" cy="-1295.9497" rx="64.9891" ry="18"/>
<ellipse fill="none" stroke="#000000" cx="2491" cy="-1295.9497" rx="68.9888" ry="22"/>
<ellipse fill="none" stroke="#000000" cx="2491" cy="-1295.9497" rx="72.9885" ry="26"/>
<text text-anchor="middle" x="2491" y="-1292.2497" font-family="Times,serif" font-size="14.00" fill="#000000">emoveR_eV</text>
</a>
</g>
</g>
<!-- EquivGroupoids_emoveR_eV&#45;&gt;EquivGroupoids_ecompose_ee_V -->
<g id="edge21" class="edge">
<title>EquivGroupoids_emoveR_eV&#45;&gt;EquivGroupoids_ecompose_ee_V</title>
<path fill="none" stroke="#000000" d="M2488.6055,-1269.7254C2476.5978,-1138.2192 2423.0248,-551.4983 2410.5858,-415.2686"/>
<polygon fill="#000000" stroke="#000000" points="2414.0622,-414.8502 2409.6673,-405.2099 2407.0912,-415.4868 2414.0622,-414.8502"/>
</g>
<!-- EquivGroupoids_emoveR_Ve -->
<g id="node14" class="node">
<title>EquivGroupoids_emoveR_Ve</title>
<g id="a_node14"><a xlink:href="EquivGroupoids.html#emoveR_Ve" xlink:title="emoveR_Ve">
<ellipse fill="#f070d1" stroke="#000000" cx="3821" cy="-1295.9497" rx="63.8675" ry="18"/>
<ellipse fill="none" stroke="#000000" cx="3821" cy="-1295.9497" rx="67.8784" ry="22"/>
<ellipse fill="none" stroke="#000000" cx="3821" cy="-1295.9497" rx="71.8892" ry="26"/>
<text text-anchor="middle" x="3821" y="-1292.2497" font-family="Times,serif" font-size="14.00" fill="#000000">emoveR_Ve</text>
</a>
</g>
</g>
<!-- EquivGroupoids_emoveR_Ve&#45;&gt;EquivGroupoids_ecompose_V_ee -->
<g id="edge22" class="edge">
<title>EquivGroupoids_emoveR_Ve&#45;&gt;EquivGroupoids_ecompose_V_ee</title>
<path fill="none" stroke="#000000" d="M3818.6343,-1269.7254C3806.7713,-1138.2192 3753.8438,-551.4983 3741.5546,-415.2686"/>
<polygon fill="#000000" stroke="#000000" points="3745.0316,-414.855 3740.6472,-405.2099 3738.0599,-415.484 3745.0316,-414.855"/>
</g>
<!-- EquivGroupoids_emoveR_eM -->
<g id="node15" class="node">
<title>EquivGroupoids_emoveR_eM</title>
<g id="a_node15"><a xlink:href="EquivGroupoids.html#emoveR_eM" xlink:title="emoveR_eM">
<ellipse fill="#f070d1" stroke="#000000" cx="1487" cy="-1295.9497" rx="67.6782" ry="18"/>
<ellipse fill="none" stroke="#000000" cx="1487" cy="-1295.9497" rx="71.6831" ry="22"/>
<ellipse fill="none" stroke="#000000" cx="1487" cy="-1295.9497" rx="75.6881" ry="26"/>
<text text-anchor="middle" x="1487" y="-1292.2497" font-family="Times,serif" font-size="14.00" fill="#000000">emoveR_eM</text>
</a>
</g>
</g>
<!-- EquivGroupoids_emoveR_eM&#45;&gt;EquivGroupoids_ecompose_eV_e -->
<g id="edge23" class="edge">
<title>EquivGroupoids_emoveR_eM&#45;&gt;EquivGroupoids_ecompose_eV_e</title>
<path fill="none" stroke="#000000" d="M1494.2124,-1269.7254C1530.4165,-1138.0873 1692.0684,-550.3209 1729.3239,-414.86"/>
<polygon fill="#000000" stroke="#000000" points="1732.7008,-415.7801 1731.9779,-405.2099 1725.9514,-413.9237 1732.7008,-415.7801"/>
</g>
<!-- EquivGroupoids_emoveR_Me -->
<g id="node16" class="node">
<title>EquivGroupoids_emoveR_Me</title>
<g id="a_node16"><a xlink:href="EquivGroupoids.html#emoveR_Me" xlink:title="emoveR_Me">
<ellipse fill="#f070d1" stroke="#000000" cx="2988" cy="-1295.9497" rx="67.6782" ry="18"/>
<ellipse fill="none" stroke="#000000" cx="2988" cy="-1295.9497" rx="71.6831" ry="22"/>
<ellipse fill="none" stroke="#000000" cx="2988" cy="-1295.9497" rx="75.6881" ry="26"/>
<text text-anchor="middle" x="2988" y="-1292.2497" font-family="Times,serif" font-size="14.00" fill="#000000">emoveR_Me</text>
</a>
</g>
</g>
<!-- EquivGroupoids_emoveR_Me&#45;&gt;EquivGroupoids_ecompose_e_Ve -->
<g id="edge24" class="edge">
<title>EquivGroupoids_emoveR_Me&#45;&gt;EquivGroupoids_ecompose_e_Ve</title>
<path fill="none" stroke="#000000" d="M2990.4234,-1269.7254C3002.5758,-1138.2192 3056.7942,-551.4983 3069.3831,-415.2686"/>
<polygon fill="#000000" stroke="#000000" points="3072.8775,-415.4896 3070.3126,-405.2099 3065.9072,-414.8454 3072.8775,-415.4896"/>
</g>
<!-- EquivGroupoids_einv_V -->
<g id="node17" class="node">
<title>EquivGroupoids_einv_V</title>
<g id="a_node17"><a xlink:href="EquivGroupoids.html#einv_V" xlink:title="einv_V">
<ellipse fill="#f070d1" stroke="#000000" cx="1343" cy="-1295.9497" rx="42.4543" ry="18"/>
<ellipse fill="none" stroke="#000000" cx="1343" cy="-1295.9497" rx="46.474" ry="22"/>
<ellipse fill="none" stroke="#000000" cx="1343" cy="-1295.9497" rx="50.4937" ry="26"/>
<text text-anchor="middle" x="1343" y="-1292.2497" font-family="Times,serif" font-size="14.00" fill="#000000">einv_V</text>
</a>
</g>
</g>
<!-- EquivGroupoids_einv_VV -->
<g id="node18" class="node">
<title>EquivGroupoids_einv_VV</title>
<g id="a_node18"><a xlink:href="EquivGroupoids.html#einv_VV" xlink:title="einv_VV">
<ellipse fill="#f070d1" stroke="#000000" cx="1218" cy="-1295.9497" rx="48.9576" ry="18"/>
<ellipse fill="none" stroke="#000000" cx="1218" cy="-1295.9497" rx="52.975" ry="22"/>
<ellipse fill="none" stroke="#000000" cx="1218" cy="-1295.9497" rx="56.9924" ry="26"/>
<text text-anchor="middle" x="1218" y="-1292.2497" font-family="Times,serif" font-size="14.00" fill="#000000">einv_VV</text>
</a>
</g>
</g>
<!-- EquivGroupoids_einv_eV -->
<g id="node19" class="node">
<title>EquivGroupoids_einv_eV</title>
<g id="a_node19"><a xlink:href="EquivGroupoids.html#einv_eV" xlink:title="einv_eV">
<ellipse fill="#f070d1" stroke="#000000" cx="1088" cy="-1295.9497" rx="47.3994" ry="18"/>
<ellipse fill="none" stroke="#000000" cx="1088" cy="-1295.9497" rx="51.3955" ry="22"/>
<ellipse fill="none" stroke="#000000" cx="1088" cy="-1295.9497" rx="55.3916" ry="26"/>
<text text-anchor="middle" x="1088" y="-1292.2497" font-family="Times,serif" font-size="14.00" fill="#000000">einv_eV</text>
</a>
</g>
</g>
<!-- EquivGroupoids_einv_Ve -->
<g id="node20" class="node">
<title>EquivGroupoids_einv_Ve</title>
<g id="a_node20"><a xlink:href="EquivGroupoids.html#einv_Ve" xlink:title="einv_Ve">
<ellipse fill="#f070d1" stroke="#000000" cx="960" cy="-1295.9497" rx="46.2706" ry="18"/>
<ellipse fill="none" stroke="#000000" cx="960" cy="-1295.9497" rx="50.2814" ry="22"/>
<ellipse fill="none" stroke="#000000" cx="960" cy="-1295.9497" rx="54.2922" ry="26"/>
<text text-anchor="middle" x="960" y="-1292.2497" font-family="Times,serif" font-size="14.00" fill="#000000">einv_Ve</text>
</a>
</g>
</g>
<!-- EquivGroupoids_einv_ee -->
<g id="node21" class="node">
<title>EquivGroupoids_einv_ee</title>
<g id="a_node21"><a xlink:href="EquivGroupoids.html#einv_ee" xlink:title="einv_ee">
<ellipse fill="#f070d1" stroke="#000000" cx="834" cy="-1295.9497" rx="46.2706" ry="18"/>
<ellipse fill="none" stroke="#000000" cx="834" cy="-1295.9497" rx="50.2814" ry="22"/>
<ellipse fill="none" stroke="#000000" cx="834" cy="-1295.9497" rx="54.2922" ry="26"/>
<text text-anchor="middle" x="834" y="-1292.2497" font-family="Times,serif" font-size="14.00" fill="#000000">einv_ee</text>
</a>
</g>
</g>
<!-- EquivGroupoids_ecompose_Ve -->
<g id="node26" class="node">
<title>EquivGroupoids_ecompose_Ve</title>
<g id="a_node26"><a xlink:href="EquivGroupoids.html#ecompose_Ve" xlink:title="ecompose_Ve">
<ellipse fill="#f070d1" stroke="#000000" cx="680" cy="-1295.9497" rx="73.3926" ry="18"/>
<ellipse fill="none" stroke="#000000" cx="680" cy="-1295.9497" rx="77.3898" ry="22"/>
<ellipse fill="none" stroke="#000000" cx="680" cy="-1295.9497" rx="81.387" ry="26"/>
<text text-anchor="middle" x="680" y="-1292.2497" font-family="Times,serif" font-size="14.00" fill="#000000">ecompose_Ve</text>
</a>
</g>
</g>
<!-- EquivGroupoids_ecompose_eV -->
<g id="node27" class="node">
<title>EquivGroupoids_ecompose_eV</title>
<g id="a_node27"><a xlink:href="EquivGroupoids.html#ecompose_eV" xlink:title="ecompose_eV">
<ellipse fill="#f070d1" stroke="#000000" cx="498" cy="-1295.9497" rx="74.1778" ry="18"/>
<ellipse fill="none" stroke="#000000" cx="498" cy="-1295.9497" rx="78.1824" ry="22"/>
<ellipse fill="none" stroke="#000000" cx="498" cy="-1295.9497" rx="82.187" ry="26"/>
<text text-anchor="middle" x="498" y="-1292.2497" font-family="Times,serif" font-size="14.00" fill="#000000">ecompose_eV</text>
</a>
</g>
</g>
<!-- EquivGroupoids_ecompose_ee_e -->
<g id="node28" class="node">
<title>EquivGroupoids_ecompose_ee_e</title>
<g id="a_node28"><a xlink:href="EquivGroupoids.html#ecompose_ee_e" xlink:title="ecompose_ee_e">
<ellipse fill="#f070d1" stroke="#000000" cx="307" cy="-1295.9497" rx="83.3687" ry="18"/>
<ellipse fill="none" stroke="#000000" cx="307" cy="-1295.9497" rx="87.3772" ry="22"/>
<ellipse fill="none" stroke="#000000" cx="307" cy="-1295.9497" rx="91.3856" ry="26"/>
<text text-anchor="middle" x="307" y="-1292.2497" font-family="Times,serif" font-size="14.00" fill="#000000">ecompose_ee_e</text>
</a>
</g>
</g>
<!-- EquivGroupoids_ecompose_e_ee -->
<g id="node29" class="node">
<title>EquivGroupoids_ecompose_e_ee</title>
<g id="a_node29"><a xlink:href="EquivGroupoids.html#ecompose_e_ee" xlink:title="ecompose_e_ee">
<ellipse fill="#f070d1" stroke="#000000" cx="107" cy="-1295.9497" rx="83.3687" ry="18"/>
<ellipse fill="none" stroke="#000000" cx="107" cy="-1295.9497" rx="87.3772" ry="22"/>
<ellipse fill="none" stroke="#000000" cx="107" cy="-1295.9497" rx="91.3856" ry="26"/>
<text text-anchor="middle" x="107" y="-1292.2497" font-family="Times,serif" font-size="14.00" fill="#000000">ecompose_e_ee</text>
</a>
</g>
</g>
</g>
</svg>
