<?xml version="1.0" encoding="UTF-8" standalone="no"?>
<!DOCTYPE svg PUBLIC "-//W3C//DTD SVG 1.1//EN"
 "http://www.w3.org/Graphics/SVG/1.1/DTD/svg11.dtd">
<!-- Generated by graphviz version 2.40.1 (20161225.0304)
 -->
<!-- Title: HoTT_Colimits_Colimit_Pushout Pages: 1 -->
<svg width="974pt" height="491pt"
 viewBox="0.00 0.00 974.00 491.00" xmlns="http://www.w3.org/2000/svg" xmlns:xlink="http://www.w3.org/1999/xlink">
<g id="graph0" class="graph" transform="scale(1 1) rotate(0) translate(4 487)">
<title>HoTT_Colimits_Colimit_Pushout</title>
<polygon fill="#ffffff" stroke="transparent" points="-4,4 -4,-487 970,-487 970,4 -4,4"/>
<g id="clust1" class="cluster">
<title>cluster_Colimit_Pushout</title>
<polygon fill="#ffffc3" stroke="#000000" points="15.8686,-8 15.8686,-475 950.1314,-475 950.1314,-8 15.8686,-8"/>
<text text-anchor="middle" x="83.3686" y="-459.8" font-family="Times,serif" font-size="14.00" fill="#000000">Colimit_Pushout</text>
</g>
<!-- Colimit_Pushout_equiv_pushout_PO -->
<g id="node1" class="node">
<title>Colimit_Pushout_equiv_pushout_PO</title>
<g id="a_node1"><a xlink:href="Colimit_Pushout.html#equiv_pushout_PO" xlink:title="equiv_pushout_PO">
<ellipse fill="#f070d1" stroke="#000000" cx="470.0308" cy="-258" rx="97.4834" ry="18"/>
<ellipse fill="none" stroke="#000000" cx="470.0308" cy="-258" rx="101.483" ry="22"/>
<ellipse fill="none" stroke="#000000" cx="470.0308" cy="-258" rx="105.4827" ry="26"/>
<text text-anchor="middle" x="470.0308" y="-254.3" font-family="Times,serif" font-size="14.00" fill="#000000">equiv_pushout_PO</text>
</a>
</g>
</g>
<!-- Colimit_Pushout_is_PO_pushout -->
<g id="node2" class="node">
<title>Colimit_Pushout_is_PO_pushout</title>
<g id="a_node2"><a xlink:href="Colimit_Pushout.html#is_PO_pushout" xlink:title="is_PO_pushout">
<ellipse fill="#f070d1" stroke="#000000" cx="730.0308" cy="-178" rx="79.8859" ry="18"/>
<text text-anchor="middle" x="730.0308" y="-174.3" font-family="Times,serif" font-size="14.00" fill="#000000">is_PO_pushout</text>
</a>
</g>
</g>
<!-- Colimit_Pushout_equiv_pushout_PO&#45;&gt;Colimit_Pushout_is_PO_pushout -->
<g id="edge1" class="edge">
<title>Colimit_Pushout_equiv_pushout_PO&#45;&gt;Colimit_Pushout_is_PO_pushout</title>
<path fill="none" stroke="#000000" d="M536.3125,-237.6056C578.5661,-224.6045 632.751,-207.9323 673.0649,-195.528"/>
<polygon fill="#000000" stroke="#000000" points="674.211,-198.8373 682.7395,-192.5512 672.1523,-192.1469 674.211,-198.8373"/>
</g>
<!-- Colimit_Pushout_PO -->
<g id="node11" class="node">
<title>Colimit_Pushout_PO</title>
<g id="a_node11"><a xlink:href="Colimit_Pushout.html#PO" xlink:title="PO">
<ellipse fill="#f070d1" stroke="#000000" cx="85.0308" cy="-106" rx="27" ry="18"/>
<text text-anchor="middle" x="85.0308" y="-102.3" font-family="Times,serif" font-size="14.00" fill="#000000">PO</text>
</a>
</g>
</g>
<!-- Colimit_Pushout_equiv_pushout_PO&#45;&gt;Colimit_Pushout_PO -->
<g id="edge2" class="edge">
<title>Colimit_Pushout_equiv_pushout_PO&#45;&gt;Colimit_Pushout_PO</title>
<path fill="none" stroke="#000000" d="M425.4795,-234.3946C384.3259,-213.1736 321.1119,-182.0424 264.0308,-160 215.2497,-141.1627 156.9788,-124.6494 120.4791,-114.9948"/>
<polygon fill="#000000" stroke="#000000" points="120.897,-111.4864 110.3367,-112.3406 119.1248,-118.2583 120.897,-111.4864"/>
</g>
<!-- Colimit_Pushout_is_PO -->
<g id="node12" class="node">
<title>Colimit_Pushout_is_PO</title>
<g id="a_node12"><a xlink:href="Colimit_Pushout.html#is_PO" xlink:title="is_PO">
<ellipse fill="#f070d1" stroke="#000000" cx="859.0308" cy="-106" rx="37.8943" ry="18"/>
<text text-anchor="middle" x="859.0308" y="-102.3" font-family="Times,serif" font-size="14.00" fill="#000000">is_PO</text>
</a>
</g>
</g>
<!-- Colimit_Pushout_is_PO_pushout&#45;&gt;Colimit_Pushout_is_PO -->
<g id="edge3" class="edge">
<title>Colimit_Pushout_is_PO_pushout&#45;&gt;Colimit_Pushout_is_PO</title>
<path fill="none" stroke="#000000" d="M759.9502,-161.3008C779.5717,-150.3493 805.255,-136.0144 825.5557,-124.6838"/>
<polygon fill="#000000" stroke="#000000" points="827.4371,-127.642 834.4632,-119.7121 824.0255,-121.5296 827.4371,-127.642"/>
</g>
<!-- Colimit_Pushout_popp_ -->
<g id="node13" class="node">
<title>Colimit_Pushout_popp_</title>
<g id="a_node13"><a xlink:href="Colimit_Pushout.html#popp'" xlink:title="popp&#39;">
<ellipse fill="#f070d1" stroke="#000000" cx="676.0308" cy="-106" rx="36.2938" ry="18"/>
<text text-anchor="middle" x="676.0308" y="-102.3" font-family="Times,serif" font-size="14.00" fill="#000000">popp&#39;</text>
</a>
</g>
</g>
<!-- Colimit_Pushout_is_PO_pushout&#45;&gt;Colimit_Pushout_popp_ -->
<g id="edge4" class="edge">
<title>Colimit_Pushout_is_PO_pushout&#45;&gt;Colimit_Pushout_popp_</title>
<path fill="none" stroke="#000000" d="M716.6825,-160.2022C710.112,-151.4416 702.0778,-140.7293 694.892,-131.1482"/>
<polygon fill="#000000" stroke="#000000" points="697.6538,-128.9972 688.8537,-123.0972 692.0538,-133.1973 697.6538,-128.9972"/>
</g>
<!-- Colimit_Pushout_Build_span_cocone -->
<g id="node16" class="node">
<title>Colimit_Pushout_Build_span_cocone</title>
<g id="a_node16"><a xlink:href="Colimit_Pushout.html#Build_span_cocone" xlink:title="Build_span_cocone">
<ellipse fill="#f070d1" stroke="#000000" cx="371.0308" cy="-106" rx="99.3824" ry="18"/>
<text text-anchor="middle" x="371.0308" y="-102.3" font-family="Times,serif" font-size="14.00" fill="#000000">Build_span_cocone</text>
</a>
</g>
</g>
<!-- Colimit_Pushout_is_PO_pushout&#45;&gt;Colimit_Pushout_Build_span_cocone -->
<g id="edge5" class="edge">
<title>Colimit_Pushout_is_PO_pushout&#45;&gt;Colimit_Pushout_Build_span_cocone</title>
<path fill="none" stroke="#000000" d="M669.9423,-165.9488C608.9023,-153.7068 514.1461,-134.7028 447.7238,-121.3813"/>
<polygon fill="#000000" stroke="#000000" points="448.2199,-117.9112 437.7269,-119.3764 446.8434,-124.7745 448.2199,-117.9112"/>
</g>
<!-- Colimit_Pushout_PO_of_equiv -->
<g id="node3" class="node">
<title>Colimit_Pushout_PO_of_equiv</title>
<g id="a_node3"><a xlink:href="Colimit_Pushout.html#PO_of_equiv" xlink:title="PO_of_equiv">
<ellipse fill="#f070d1" stroke="#000000" cx="593.0308" cy="-418" rx="68.7989" ry="18"/>
<ellipse fill="none" stroke="#000000" cx="593.0308" cy="-418" rx="72.7934" ry="22"/>
<ellipse fill="none" stroke="#000000" cx="593.0308" cy="-418" rx="76.7879" ry="26"/>
<text text-anchor="middle" x="593.0308" y="-414.3" font-family="Times,serif" font-size="14.00" fill="#000000">PO_of_equiv</text>
</a>
</g>
</g>
<!-- Colimit_Pushout_PO_rec_beta_pp -->
<g id="node4" class="node">
<title>Colimit_Pushout_PO_rec_beta_pp</title>
<g id="a_node4"><a xlink:href="Colimit_Pushout.html#PO_rec_beta_pp" xlink:title="PO_rec_beta_pp">
<ellipse fill="#f070d1" stroke="#000000" cx="593.0308" cy="-338" rx="87.1846" ry="18"/>
<text text-anchor="middle" x="593.0308" y="-334.3" font-family="Times,serif" font-size="14.00" fill="#000000">PO_rec_beta_pp</text>
</a>
</g>
</g>
<!-- Colimit_Pushout_PO_of_equiv&#45;&gt;Colimit_Pushout_PO_rec_beta_pp -->
<g id="edge6" class="edge">
<title>Colimit_Pushout_PO_of_equiv&#45;&gt;Colimit_Pushout_PO_rec_beta_pp</title>
<path fill="none" stroke="#000000" d="M593.0308,-391.805C593.0308,-383.6026 593.0308,-374.5174 593.0308,-366.1839"/>
<polygon fill="#000000" stroke="#000000" points="596.5309,-366.1532 593.0308,-356.1532 589.5309,-366.1533 596.5309,-366.1532"/>
</g>
<!-- Colimit_Pushout_PO_ind -->
<g id="node7" class="node">
<title>Colimit_Pushout_PO_ind</title>
<g id="a_node7"><a xlink:href="Colimit_Pushout.html#PO_ind" xlink:title="PO_ind">
<ellipse fill="#f070d1" stroke="#000000" cx="218.0308" cy="-338" rx="44.393" ry="18"/>
<text text-anchor="middle" x="218.0308" y="-334.3" font-family="Times,serif" font-size="14.00" fill="#000000">PO_ind</text>
</a>
</g>
</g>
<!-- Colimit_Pushout_PO_of_equiv&#45;&gt;Colimit_Pushout_PO_ind -->
<g id="edge7" class="edge">
<title>Colimit_Pushout_PO_of_equiv&#45;&gt;Colimit_Pushout_PO_ind</title>
<path fill="none" stroke="#000000" d="M527.7108,-404.0651C453.4605,-388.225 333.9338,-362.726 267.1724,-348.4835"/>
<polygon fill="#000000" stroke="#000000" points="267.8315,-345.0455 257.3213,-346.382 266.3709,-351.8914 267.8315,-345.0455"/>
</g>
<!-- Colimit_Pushout_PO_rec -->
<g id="node5" class="node">
<title>Colimit_Pushout_PO_rec</title>
<g id="a_node5"><a xlink:href="Colimit_Pushout.html#PO_rec" xlink:title="PO_rec">
<ellipse fill="#f070d1" stroke="#000000" cx="446.0308" cy="-178" rx="44.6926" ry="18"/>
<text text-anchor="middle" x="446.0308" y="-174.3" font-family="Times,serif" font-size="14.00" fill="#000000">PO_rec</text>
</a>
</g>
</g>
<!-- Colimit_Pushout_PO_rec_beta_pp&#45;&gt;Colimit_Pushout_PO_rec -->
<g id="edge8" class="edge">
<title>Colimit_Pushout_PO_rec_beta_pp&#45;&gt;Colimit_Pushout_PO_rec</title>
<path fill="none" stroke="#000000" d="M596.8335,-319.8721C600.5347,-297.0107 603.1442,-257.6041 584.0308,-232 564.1199,-205.3275 529.0885,-191.8224 499.3049,-184.9881"/>
<polygon fill="#000000" stroke="#000000" points="499.9407,-181.5453 489.435,-182.9167 498.5029,-188.3961 499.9407,-181.5453"/>
</g>
<!-- Colimit_Pushout_popp -->
<g id="node8" class="node">
<title>Colimit_Pushout_popp</title>
<g id="a_node8"><a xlink:href="Colimit_Pushout.html#popp" xlink:title="popp">
<ellipse fill="#f070d1" stroke="#000000" cx="159.0308" cy="-258" rx="33.5952" ry="18"/>
<text text-anchor="middle" x="159.0308" y="-254.3" font-family="Times,serif" font-size="14.00" fill="#000000">popp</text>
</a>
</g>
</g>
<!-- Colimit_Pushout_PO_rec_beta_pp&#45;&gt;Colimit_Pushout_popp -->
<g id="edge9" class="edge">
<title>Colimit_Pushout_PO_rec_beta_pp&#45;&gt;Colimit_Pushout_popp</title>
<path fill="none" stroke="#000000" d="M527.5867,-325.9366C437.3477,-309.3027 277.2689,-279.795 201.3017,-265.7919"/>
<polygon fill="#000000" stroke="#000000" points="201.6255,-262.2927 191.1566,-263.9218 200.3565,-269.1767 201.6255,-262.2927"/>
</g>
<!-- Colimit_Pushout_PO_rec&#45;&gt;Colimit_Pushout_PO -->
<g id="edge10" class="edge">
<title>Colimit_Pushout_PO_rec&#45;&gt;Colimit_Pushout_PO</title>
<path fill="none" stroke="#000000" d="M405.6703,-169.9503C334.7646,-155.8084 188.9394,-126.7242 121.1509,-113.204"/>
<polygon fill="#000000" stroke="#000000" points="121.4562,-109.696 110.9647,-111.1724 120.087,-116.5608 121.4562,-109.696"/>
</g>
<!-- Colimit_Pushout_PO_rec&#45;&gt;Colimit_Pushout_Build_span_cocone -->
<g id="edge11" class="edge">
<title>Colimit_Pushout_PO_rec&#45;&gt;Colimit_Pushout_Build_span_cocone</title>
<path fill="none" stroke="#000000" d="M428.6358,-161.3008C419.2341,-152.2751 407.4386,-140.9515 396.9739,-130.9053"/>
<polygon fill="#000000" stroke="#000000" points="399.2802,-128.2676 389.6424,-123.8671 394.4324,-133.3173 399.2802,-128.2676"/>
</g>
<!-- Colimit_Pushout_PO_ind_beta_pp -->
<g id="node6" class="node">
<title>Colimit_Pushout_PO_ind_beta_pp</title>
<g id="a_node6"><a xlink:href="Colimit_Pushout.html#PO_ind_beta_pp" xlink:title="PO_ind_beta_pp">
<ellipse fill="#f070d1" stroke="#000000" cx="218.0308" cy="-418" rx="86.3896" ry="18"/>
<ellipse fill="none" stroke="#000000" cx="218.0308" cy="-418" rx="90.3871" ry="22"/>
<ellipse fill="none" stroke="#000000" cx="218.0308" cy="-418" rx="94.3847" ry="26"/>
<text text-anchor="middle" x="218.0308" y="-414.3" font-family="Times,serif" font-size="14.00" fill="#000000">PO_ind_beta_pp</text>
</a>
</g>
</g>
<!-- Colimit_Pushout_PO_ind_beta_pp&#45;&gt;Colimit_Pushout_PO_ind -->
<g id="edge12" class="edge">
<title>Colimit_Pushout_PO_ind_beta_pp&#45;&gt;Colimit_Pushout_PO_ind</title>
<path fill="none" stroke="#000000" d="M218.0308,-391.805C218.0308,-383.6026 218.0308,-374.5174 218.0308,-366.1839"/>
<polygon fill="#000000" stroke="#000000" points="221.5309,-366.1532 218.0308,-356.1532 214.5309,-366.1533 221.5309,-366.1532"/>
</g>
<!-- Colimit_Pushout_PO_ind&#45;&gt;Colimit_Pushout_popp -->
<g id="edge13" class="edge">
<title>Colimit_Pushout_PO_ind&#45;&gt;Colimit_Pushout_popp</title>
<path fill="none" stroke="#000000" d="M205.2287,-320.6412C197.0778,-309.5892 186.3911,-295.0987 177.3492,-282.8385"/>
<polygon fill="#000000" stroke="#000000" points="180.1559,-280.7474 171.4036,-274.7767 174.5223,-284.9022 180.1559,-280.7474"/>
</g>
<!-- Colimit_Pushout_por -->
<g id="node9" class="node">
<title>Colimit_Pushout_por</title>
<g id="a_node9"><a xlink:href="Colimit_Pushout.html#por" xlink:title="por">
<ellipse fill="#f070d1" stroke="#000000" cx="85.0308" cy="-178" rx="27" ry="18"/>
<text text-anchor="middle" x="85.0308" y="-174.3" font-family="Times,serif" font-size="14.00" fill="#000000">por</text>
</a>
</g>
</g>
<!-- Colimit_Pushout_popp&#45;&gt;Colimit_Pushout_por -->
<g id="edge14" class="edge">
<title>Colimit_Pushout_popp&#45;&gt;Colimit_Pushout_por</title>
<path fill="none" stroke="#000000" d="M144.0558,-241.8108C133.2139,-230.0899 118.4051,-214.0804 106.3332,-201.0296"/>
<polygon fill="#000000" stroke="#000000" points="108.5901,-198.3152 99.2303,-193.3508 103.4514,-203.0685 108.5901,-198.3152"/>
</g>
<!-- Colimit_Pushout_pol -->
<g id="node10" class="node">
<title>Colimit_Pushout_pol</title>
<g id="a_node10"><a xlink:href="Colimit_Pushout.html#pol" xlink:title="pol">
<ellipse fill="#f070d1" stroke="#000000" cx="228.0308" cy="-178" rx="27" ry="18"/>
<text text-anchor="middle" x="228.0308" y="-174.3" font-family="Times,serif" font-size="14.00" fill="#000000">pol</text>
</a>
</g>
</g>
<!-- Colimit_Pushout_popp&#45;&gt;Colimit_Pushout_pol -->
<g id="edge15" class="edge">
<title>Colimit_Pushout_popp&#45;&gt;Colimit_Pushout_pol</title>
<path fill="none" stroke="#000000" d="M173.3276,-241.4239C183.3305,-229.8264 196.8319,-214.1726 207.9185,-201.3186"/>
<polygon fill="#000000" stroke="#000000" points="210.5756,-203.5968 214.4565,-193.7383 205.2748,-199.0248 210.5756,-203.5968"/>
</g>
<!-- Colimit_Pushout_por&#45;&gt;Colimit_Pushout_PO -->
<g id="edge16" class="edge">
<title>Colimit_Pushout_por&#45;&gt;Colimit_Pushout_PO</title>
<path fill="none" stroke="#000000" d="M85.0308,-159.8314C85.0308,-152.131 85.0308,-142.9743 85.0308,-134.4166"/>
<polygon fill="#000000" stroke="#000000" points="88.5309,-134.4132 85.0308,-124.4133 81.5309,-134.4133 88.5309,-134.4132"/>
</g>
<!-- Colimit_Pushout_pol&#45;&gt;Colimit_Pushout_PO -->
<g id="edge17" class="edge">
<title>Colimit_Pushout_pol&#45;&gt;Colimit_Pushout_PO</title>
<path fill="none" stroke="#000000" d="M206.3122,-167.0647C182.2694,-154.9593 143.3178,-135.3473 116.0628,-121.6245"/>
<polygon fill="#000000" stroke="#000000" points="117.4596,-118.4092 106.9538,-117.0382 114.3116,-124.6614 117.4596,-118.4092"/>
</g>
<!-- Colimit_Pushout_por_ -->
<g id="node14" class="node">
<title>Colimit_Pushout_por_</title>
<g id="a_node14"><a xlink:href="Colimit_Pushout.html#por'" xlink:title="por&#39;">
<ellipse fill="#f070d1" stroke="#000000" cx="603.0308" cy="-34" rx="28.6953" ry="18"/>
<text text-anchor="middle" x="603.0308" y="-30.3" font-family="Times,serif" font-size="14.00" fill="#000000">por&#39;</text>
</a>
</g>
</g>
<!-- Colimit_Pushout_popp_&#45;&gt;Colimit_Pushout_por_ -->
<g id="edge18" class="edge">
<title>Colimit_Pushout_popp_&#45;&gt;Colimit_Pushout_por_</title>
<path fill="none" stroke="#000000" d="M659.466,-89.6621C649.4857,-79.8185 636.637,-67.1458 625.7211,-56.3795"/>
<polygon fill="#000000" stroke="#000000" points="628.1092,-53.8189 618.5318,-49.2886 623.1937,-58.8027 628.1092,-53.8189"/>
</g>
<!-- Colimit_Pushout_pol_ -->
<g id="node15" class="node">
<title>Colimit_Pushout_pol_</title>
<g id="a_node15"><a xlink:href="Colimit_Pushout.html#pol'" xlink:title="pol&#39;">
<ellipse fill="#f070d1" stroke="#000000" cx="750.0308" cy="-34" rx="27.0966" ry="18"/>
<text text-anchor="middle" x="750.0308" y="-30.3" font-family="Times,serif" font-size="14.00" fill="#000000">pol&#39;</text>
</a>
</g>
</g>
<!-- Colimit_Pushout_popp_&#45;&gt;Colimit_Pushout_pol_ -->
<g id="edge19" class="edge">
<title>Colimit_Pushout_popp_&#45;&gt;Colimit_Pushout_pol_</title>
<path fill="none" stroke="#000000" d="M692.8225,-89.6621C702.9395,-79.8185 715.9643,-67.1458 727.0297,-56.3795"/>
<polygon fill="#000000" stroke="#000000" points="729.591,-58.7707 734.3175,-49.2886 724.7095,-53.7536 729.591,-58.7707"/>
</g>
</g>
</svg>
