<?xml version="1.0" encoding="UTF-8" standalone="no"?>
<!DOCTYPE svg PUBLIC "-//W3C//DTD SVG 1.1//EN"
 "http://www.w3.org/Graphics/SVG/1.1/DTD/svg11.dtd">
<!-- Generated by graphviz version 2.40.1 (20161225.0304)
 -->
<!-- Title: HoTT_Spaces_Cantor Pages: 1 -->
<svg width="798pt" height="403pt"
 viewBox="0.00 0.00 798.00 403.00" xmlns="http://www.w3.org/2000/svg" xmlns:xlink="http://www.w3.org/1999/xlink">
<g id="graph0" class="graph" transform="scale(1 1) rotate(0) translate(4 399)">
<title>HoTT_Spaces_Cantor</title>
<polygon fill="#ffffff" stroke="transparent" points="-4,4 -4,-399 794,-399 794,4 -4,4"/>
<g id="clust1" class="cluster">
<title>cluster_Cantor</title>
<polygon fill="#ffffc3" stroke="#000000" points="19.2683,-8 19.2683,-387 770.7317,-387 770.7317,-8 19.2683,-8"/>
<text text-anchor="middle" x="52.2683" y="-371.8" font-family="Times,serif" font-size="14.00" fill="#000000">Cantor</text>
</g>
<!-- Cantor_equiv_cantor_unfold -->
<g id="node1" class="node">
<title>Cantor_equiv_cantor_unfold</title>
<g id="a_node1"><a xlink:href="Cantor.html#equiv_cantor_unfold" xlink:title="equiv_cantor_unfold">
<ellipse fill="#f070d1" stroke="#000000" cx="394.5305" cy="-330" rx="105.0965" ry="18"/>
<ellipse fill="none" stroke="#000000" cx="394.5305" cy="-330" rx="109.0891" ry="22"/>
<ellipse fill="none" stroke="#000000" cx="394.5305" cy="-330" rx="113.0817" ry="26"/>
<text text-anchor="middle" x="394.5305" y="-326.3" font-family="Times,serif" font-size="14.00" fill="#000000">equiv_cantor_unfold</text>
</a>
</g>
</g>
<!-- Cantor_equiv_cantor_fold -->
<g id="node2" class="node">
<title>Cantor_equiv_cantor_fold</title>
<g id="a_node2"><a xlink:href="Cantor.html#equiv_cantor_fold" xlink:title="equiv_cantor_fold">
<ellipse fill="#f070d1" stroke="#000000" cx="394.5305" cy="-250" rx="93.6835" ry="18"/>
<text text-anchor="middle" x="394.5305" y="-246.3" font-family="Times,serif" font-size="14.00" fill="#000000">equiv_cantor_fold</text>
</a>
</g>
</g>
<!-- Cantor_equiv_cantor_unfold&#45;&gt;Cantor_equiv_cantor_fold -->
<g id="edge1" class="edge">
<title>Cantor_equiv_cantor_unfold&#45;&gt;Cantor_equiv_cantor_fold</title>
<path fill="none" stroke="#000000" d="M394.5305,-303.805C394.5305,-295.6026 394.5305,-286.5174 394.5305,-278.1839"/>
<polygon fill="#000000" stroke="#000000" points="398.0306,-278.1532 394.5305,-268.1532 391.0306,-278.1533 398.0306,-278.1532"/>
</g>
<!-- Cantor_isequiv_cantor_fold -->
<g id="node3" class="node">
<title>Cantor_isequiv_cantor_fold</title>
<g id="a_node3"><a xlink:href="Cantor.html#isequiv_cantor_fold" xlink:title="isequiv_cantor_fold">
<ellipse fill="#f070d1" stroke="#000000" cx="394.5305" cy="-178" rx="101.2821" ry="18"/>
<text text-anchor="middle" x="394.5305" y="-174.3" font-family="Times,serif" font-size="14.00" fill="#000000">isequiv_cantor_fold</text>
</a>
</g>
</g>
<!-- Cantor_equiv_cantor_fold&#45;&gt;Cantor_isequiv_cantor_fold -->
<g id="edge2" class="edge">
<title>Cantor_equiv_cantor_fold&#45;&gt;Cantor_isequiv_cantor_fold</title>
<path fill="none" stroke="#000000" d="M394.5305,-231.8314C394.5305,-224.131 394.5305,-214.9743 394.5305,-206.4166"/>
<polygon fill="#000000" stroke="#000000" points="398.0306,-206.4132 394.5305,-196.4133 391.0306,-206.4133 398.0306,-206.4132"/>
</g>
<!-- Cantor_cantor_unfold -->
<g id="node4" class="node">
<title>Cantor_cantor_unfold</title>
<g id="a_node4"><a xlink:href="Cantor.html#cantor_unfold" xlink:title="cantor_unfold">
<ellipse fill="#f070d1" stroke="#000000" cx="219.5305" cy="-106" rx="75.2868" ry="18"/>
<text text-anchor="middle" x="219.5305" y="-102.3" font-family="Times,serif" font-size="14.00" fill="#000000">cantor_unfold</text>
</a>
</g>
</g>
<!-- Cantor_isequiv_cantor_fold&#45;&gt;Cantor_cantor_unfold -->
<g id="edge3" class="edge">
<title>Cantor_isequiv_cantor_fold&#45;&gt;Cantor_cantor_unfold</title>
<path fill="none" stroke="#000000" d="M353.9421,-161.3008C327.9296,-150.5985 294.0639,-136.6652 266.834,-125.462"/>
<polygon fill="#000000" stroke="#000000" points="268.0825,-122.1911 257.5029,-121.6229 265.419,-128.6646 268.0825,-122.1911"/>
</g>
<!-- Cantor_cantor_fold -->
<g id="node5" class="node">
<title>Cantor_cantor_fold</title>
<g id="a_node5"><a xlink:href="Cantor.html#cantor_fold" xlink:title="cantor_fold">
<ellipse fill="#f070d1" stroke="#000000" cx="597.5305" cy="-106" rx="63.8893" ry="18"/>
<text text-anchor="middle" x="597.5305" y="-102.3" font-family="Times,serif" font-size="14.00" fill="#000000">cantor_fold</text>
</a>
</g>
</g>
<!-- Cantor_isequiv_cantor_fold&#45;&gt;Cantor_cantor_fold -->
<g id="edge4" class="edge">
<title>Cantor_isequiv_cantor_fold&#45;&gt;Cantor_cantor_fold</title>
<path fill="none" stroke="#000000" d="M440.0877,-161.8418C472.2187,-150.4455 515.2269,-135.1914 548.1731,-123.5061"/>
<polygon fill="#000000" stroke="#000000" points="549.3606,-126.7986 557.6154,-120.1571 547.0206,-120.2013 549.3606,-126.7986"/>
</g>
<!-- Cantor_Cantor -->
<g id="node6" class="node">
<title>Cantor_Cantor</title>
<g id="a_node6"><a xlink:href="Cantor.html#Cantor" xlink:title="Cantor">
<ellipse fill="#f070d1" stroke="#000000" cx="407.5305" cy="-34" rx="42.7926" ry="18"/>
<text text-anchor="middle" x="407.5305" y="-30.3" font-family="Times,serif" font-size="14.00" fill="#000000">Cantor</text>
</a>
</g>
</g>
<!-- Cantor_cantor_unfold&#45;&gt;Cantor_Cantor -->
<g id="edge5" class="edge">
<title>Cantor_cantor_unfold&#45;&gt;Cantor_Cantor</title>
<path fill="none" stroke="#000000" d="M259.8612,-90.5542C291.2476,-78.5339 334.6392,-61.9158 366.2616,-49.8051"/>
<polygon fill="#000000" stroke="#000000" points="367.5845,-53.0464 375.6713,-46.2014 365.0809,-46.5094 367.5845,-53.0464"/>
</g>
<!-- Cantor_cantor_fold&#45;&gt;Cantor_Cantor -->
<g id="edge6" class="edge">
<title>Cantor_cantor_fold&#45;&gt;Cantor_Cantor</title>
<path fill="none" stroke="#000000" d="M559.0812,-91.4297C527.242,-79.3644 482.0785,-62.2498 449.3448,-49.8454"/>
<polygon fill="#000000" stroke="#000000" points="450.205,-46.4286 439.6136,-46.1578 447.7245,-52.9743 450.205,-46.4286"/>
</g>
</g>
</svg>
