<?xml version="1.0" encoding="UTF-8" standalone="no"?>
<!DOCTYPE svg PUBLIC "-//W3C//DTD SVG 1.1//EN"
 "http://www.w3.org/Graphics/SVG/1.1/DTD/svg11.dtd">
<!-- Generated by graphviz version 2.40.1 (20161225.0304)
 -->
<!-- Title: HoTT_Sets_GCH Pages: 1 -->
<svg width="798pt" height="403pt"
 viewBox="0.00 0.00 798.00 403.00" xmlns="http://www.w3.org/2000/svg" xmlns:xlink="http://www.w3.org/1999/xlink">
<g id="graph0" class="graph" transform="scale(1 1) rotate(0) translate(4 399)">
<title>HoTT_Sets_GCH</title>
<polygon fill="#ffffff" stroke="transparent" points="-4,4 -4,-399 794,-399 794,4 -4,4"/>
<g id="clust1" class="cluster">
<title>cluster_GCH</title>
<polygon fill="#ffffc3" stroke="#000000" points="9.9685,-8 9.9685,-387 780.0315,-387 780.0315,-8 9.9685,-8"/>
<text text-anchor="middle" x="35.9685" y="-371.8" font-family="Times,serif" font-size="14.00" fill="#000000">GCH</text>
</g>
<!-- GCH_GCH_LEM -->
<g id="node1" class="node">
<title>GCH_GCH_LEM</title>
<g id="a_node1"><a xlink:href="GCH.html#GCH_LEM" xlink:title="GCH_LEM">
<ellipse fill="#f070d1" stroke="#000000" cx="312.9779" cy="-330" rx="61.1783" ry="18"/>
<ellipse fill="none" stroke="#000000" cx="312.9779" cy="-330" rx="65.1838" ry="22"/>
<ellipse fill="none" stroke="#000000" cx="312.9779" cy="-330" rx="69.1893" ry="26"/>
<text text-anchor="middle" x="312.9779" y="-326.3" font-family="Times,serif" font-size="14.00" fill="#000000">GCH_LEM</text>
</a>
</g>
</g>
<!-- GCH_CH_LEM -->
<g id="node2" class="node">
<title>GCH_CH_LEM</title>
<g id="a_node2"><a xlink:href="GCH.html#CH_LEM" xlink:title="CH_LEM">
<ellipse fill="#f070d1" stroke="#000000" cx="312.9779" cy="-250" rx="53.8905" ry="18"/>
<text text-anchor="middle" x="312.9779" y="-246.3" font-family="Times,serif" font-size="14.00" fill="#000000">CH_LEM</text>
</a>
</g>
</g>
<!-- GCH_GCH_LEM&#45;&gt;GCH_CH_LEM -->
<g id="edge1" class="edge">
<title>GCH_GCH_LEM&#45;&gt;GCH_CH_LEM</title>
<path fill="none" stroke="#000000" d="M312.9779,-303.805C312.9779,-295.6026 312.9779,-286.5174 312.9779,-278.1839"/>
<polygon fill="#000000" stroke="#000000" points="316.478,-278.1532 312.9779,-268.1532 309.478,-278.1533 316.478,-278.1532"/>
</g>
<!-- GCH_GCH -->
<g id="node10" class="node">
<title>GCH_GCH</title>
<g id="a_node10"><a xlink:href="GCH.html#GCH" xlink:title="GCH">
<ellipse fill="#f070d1" stroke="#000000" cx="170.9779" cy="-250" rx="33.5952" ry="18"/>
<text text-anchor="middle" x="170.9779" y="-246.3" font-family="Times,serif" font-size="14.00" fill="#000000">GCH</text>
</a>
</g>
</g>
<!-- GCH_GCH_LEM&#45;&gt;GCH_GCH -->
<g id="edge2" class="edge">
<title>GCH_GCH_LEM&#45;&gt;GCH_GCH</title>
<path fill="none" stroke="#000000" d="M274.5507,-308.3508C252.2275,-295.7744 224.4196,-280.108 203.2399,-268.1758"/>
<polygon fill="#000000" stroke="#000000" points="204.7425,-265.0051 194.312,-263.146 201.3065,-271.1038 204.7425,-265.0051"/>
</g>
<!-- GCH_inject_sings -->
<g id="node3" class="node">
<title>GCH_inject_sings</title>
<g id="a_node3"><a xlink:href="GCH.html#inject_sings" xlink:title="inject_sings">
<ellipse fill="#f070d1" stroke="#000000" cx="273.9779" cy="-178" rx="66.0889" ry="18"/>
<text text-anchor="middle" x="273.9779" y="-174.3" font-family="Times,serif" font-size="14.00" fill="#000000">inject_sings</text>
</a>
</g>
</g>
<!-- GCH_CH_LEM&#45;&gt;GCH_inject_sings -->
<g id="edge3" class="edge">
<title>GCH_CH_LEM&#45;&gt;GCH_inject_sings</title>
<path fill="none" stroke="#000000" d="M303.3375,-232.2022C298.8374,-223.8944 293.3867,-213.8316 288.4094,-204.6427"/>
<polygon fill="#000000" stroke="#000000" points="291.483,-202.9685 283.6426,-195.8425 285.328,-206.3025 291.483,-202.9685"/>
</g>
<!-- GCH_injective_proj1 -->
<g id="node4" class="node">
<title>GCH_injective_proj1</title>
<g id="a_node4"><a xlink:href="GCH.html#injective_proj1" xlink:title="injective_proj1">
<ellipse fill="#f070d1" stroke="#000000" cx="478.9779" cy="-178" rx="79.8859" ry="18"/>
<text text-anchor="middle" x="478.9779" y="-174.3" font-family="Times,serif" font-size="14.00" fill="#000000">injective_proj1</text>
</a>
</g>
</g>
<!-- GCH_CH_LEM&#45;&gt;GCH_injective_proj1 -->
<g id="edge4" class="edge">
<title>GCH_CH_LEM&#45;&gt;GCH_injective_proj1</title>
<path fill="none" stroke="#000000" d="M346.1715,-235.6028C370.97,-224.8468 405.1814,-210.0081 432.6701,-198.0853"/>
<polygon fill="#000000" stroke="#000000" points="434.3049,-201.1913 442.0864,-194.0011 431.5195,-194.7694 434.3049,-201.1913"/>
</g>
<!-- GCH_Cantor_sing -->
<g id="node5" class="node">
<title>GCH_Cantor_sing</title>
<g id="a_node5"><a xlink:href="GCH.html#Cantor_sing" xlink:title="Cantor_sing">
<ellipse fill="#f070d1" stroke="#000000" cx="684.9779" cy="-178" rx="67.6881" ry="18"/>
<text text-anchor="middle" x="684.9779" y="-174.3" font-family="Times,serif" font-size="14.00" fill="#000000">Cantor_sing</text>
</a>
</g>
</g>
<!-- GCH_CH_LEM&#45;&gt;GCH_Cantor_sing -->
<g id="edge5" class="edge">
<title>GCH_CH_LEM&#45;&gt;GCH_Cantor_sing</title>
<path fill="none" stroke="#000000" d="M359.7153,-240.9541C425.5052,-228.2205 545.6854,-204.9598 620.0996,-190.5571"/>
<polygon fill="#000000" stroke="#000000" points="621.1329,-193.9221 630.2856,-188.5856 619.8027,-187.0497 621.1329,-193.9221"/>
</g>
<!-- GCH_Cantor_inj -->
<g id="node9" class="node">
<title>GCH_Cantor_inj</title>
<g id="a_node9"><a xlink:href="GCH.html#Cantor_inj" xlink:title="Cantor_inj">
<ellipse fill="#f070d1" stroke="#000000" cx="94.9779" cy="-178" rx="59.5901" ry="18"/>
<text text-anchor="middle" x="94.9779" y="-174.3" font-family="Times,serif" font-size="14.00" fill="#000000">Cantor_inj</text>
</a>
</g>
</g>
<!-- GCH_CH_LEM&#45;&gt;GCH_Cantor_inj -->
<g id="edge6" class="edge">
<title>GCH_CH_LEM&#45;&gt;GCH_Cantor_inj</title>
<path fill="none" stroke="#000000" d="M274.5057,-237.2936C238.4469,-225.3842 184.3416,-207.5146 144.9563,-194.5066"/>
<polygon fill="#000000" stroke="#000000" points="145.8733,-191.1236 135.2801,-191.3108 143.678,-197.7705 145.8733,-191.1236"/>
</g>
<!-- GCH_sing -->
<g id="node6" class="node">
<title>GCH_sing</title>
<g id="a_node6"><a xlink:href="GCH.html#sing" xlink:title="sing">
<ellipse fill="#f070d1" stroke="#000000" cx="479.9779" cy="-106" rx="30.5947" ry="18"/>
<text text-anchor="middle" x="479.9779" y="-102.3" font-family="Times,serif" font-size="14.00" fill="#000000">sing</text>
</a>
</g>
</g>
<!-- GCH_inject_sings&#45;&gt;GCH_sing -->
<g id="edge7" class="edge">
<title>GCH_inject_sings&#45;&gt;GCH_sing</title>
<path fill="none" stroke="#000000" d="M314.6769,-163.7751C352.2966,-150.6265 407.6773,-131.2701 443.7878,-118.649"/>
<polygon fill="#000000" stroke="#000000" points="445.1458,-121.882 453.431,-115.2785 442.8361,-115.274 445.1458,-121.882"/>
</g>
<!-- GCH_Cantor_sing&#45;&gt;GCH_sing -->
<g id="edge8" class="edge">
<title>GCH_Cantor_sing&#45;&gt;GCH_sing</title>
<path fill="none" stroke="#000000" d="M643.9858,-163.6028C606.498,-150.4363 551.5916,-131.1521 515.8171,-118.5874"/>
<polygon fill="#000000" stroke="#000000" points="516.8593,-115.2439 506.2645,-115.2324 514.5397,-121.8484 516.8593,-115.2439"/>
</g>
<!-- GCH_hpaths -->
<g id="node7" class="node">
<title>GCH_hpaths</title>
<g id="a_node7"><a xlink:href="GCH.html#hpaths" xlink:title="hpaths">
<ellipse fill="#f070d1" stroke="#000000" cx="479.9779" cy="-34" rx="42.4939" ry="18"/>
<text text-anchor="middle" x="479.9779" y="-30.3" font-family="Times,serif" font-size="14.00" fill="#000000">hpaths</text>
</a>
</g>
</g>
<!-- GCH_sing&#45;&gt;GCH_hpaths -->
<g id="edge9" class="edge">
<title>GCH_sing&#45;&gt;GCH_hpaths</title>
<path fill="none" stroke="#000000" d="M479.9779,-87.8314C479.9779,-80.131 479.9779,-70.9743 479.9779,-62.4166"/>
<polygon fill="#000000" stroke="#000000" points="483.478,-62.4132 479.9779,-52.4133 476.478,-62.4133 483.478,-62.4132"/>
</g>
<!-- GCH_hprop_GCH -->
<g id="node8" class="node">
<title>GCH_hprop_GCH</title>
<g id="a_node8"><a xlink:href="GCH.html#hprop_GCH" xlink:title="hprop_GCH">
<ellipse fill="#f070d1" stroke="#000000" cx="111.9779" cy="-330" rx="65.7729" ry="18"/>
<ellipse fill="none" stroke="#000000" cx="111.9779" cy="-330" rx="69.7808" ry="22"/>
<ellipse fill="none" stroke="#000000" cx="111.9779" cy="-330" rx="73.7886" ry="26"/>
<text text-anchor="middle" x="111.9779" y="-326.3" font-family="Times,serif" font-size="14.00" fill="#000000">hprop_GCH</text>
</a>
</g>
</g>
<!-- GCH_hprop_GCH&#45;&gt;GCH_Cantor_inj -->
<g id="edge10" class="edge">
<title>GCH_hprop_GCH&#45;&gt;GCH_Cantor_inj</title>
<path fill="none" stroke="#000000" d="M109.0555,-303.8703C106.0083,-276.6241 101.2487,-234.0678 98.1215,-206.1075"/>
<polygon fill="#000000" stroke="#000000" points="101.5998,-205.7175 97.0099,-196.1685 94.6432,-206.4956 101.5998,-205.7175"/>
</g>
<!-- GCH_hprop_GCH&#45;&gt;GCH_GCH -->
<g id="edge11" class="edge">
<title>GCH_hprop_GCH&#45;&gt;GCH_GCH</title>
<path fill="none" stroke="#000000" d="M130.6459,-304.6875C137.573,-295.2948 145.4255,-284.6473 152.3492,-275.2593"/>
<polygon fill="#000000" stroke="#000000" points="155.2747,-277.1893 158.3933,-267.0639 149.641,-273.0345 155.2747,-277.1893"/>
</g>
</g>
</svg>
