<?xml version="1.0" encoding="UTF-8" standalone="no"?>
<!DOCTYPE svg PUBLIC "-//W3C//DTD SVG 1.1//EN"
 "http://www.w3.org/Graphics/SVG/1.1/DTD/svg11.dtd">
<!-- Generated by graphviz version 2.40.1 (20161225.0304)
 -->
<!-- Title: HoTT_Algebra_Rings_ChineseRemainder Pages: 1 -->
<svg width="852pt" height="430pt"
 viewBox="0.00 0.00 852.00 430.00" xmlns="http://www.w3.org/2000/svg" xmlns:xlink="http://www.w3.org/1999/xlink">
<g id="graph0" class="graph" transform="scale(1 1) rotate(0) translate(4 426)">
<title>HoTT_Algebra_Rings_ChineseRemainder</title>
<polygon fill="#ffffff" stroke="transparent" points="-4,4 -4,-426 848,-426 848,4 -4,4"/>
<g id="clust1" class="cluster">
<title>cluster_ChineseRemainder</title>
<polygon fill="#ffffc3" stroke="#000000" points="8,-8.5468 8,-413.4532 836,-413.4532 836,-8.5468 8,-8.5468"/>
<text text-anchor="middle" x="84" y="-398.2532" font-family="Times,serif" font-size="14.00" fill="#000000">ChineseRemainder</text>
</g>
<!-- ChineseRemainder_chinese_remainder_prod -->
<g id="node1" class="node">
<title>ChineseRemainder_chinese_remainder_prod</title>
<g id="a_node1"><a xlink:href="ChineseRemainder.html#chinese_remainder_prod" xlink:title="chinese_remainder_prod">
<ellipse fill="#f070d1" stroke="#000000" cx="413" cy="-352.5468" rx="126.1724" ry="18"/>
<ellipse fill="none" stroke="#000000" cx="413" cy="-352.5468" rx="130.175" ry="22"/>
<ellipse fill="none" stroke="#000000" cx="413" cy="-352.5468" rx="134.1777" ry="26"/>
<text text-anchor="middle" x="413" y="-348.8468" font-family="Times,serif" font-size="14.00" fill="#000000">chinese_remainder_prod</text>
</a>
</g>
</g>
<!-- ChineseRemainder_chinese_remainder -->
<g id="node2" class="node">
<title>ChineseRemainder_chinese_remainder</title>
<g id="a_node2"><a xlink:href="ChineseRemainder.html#chinese_remainder" xlink:title="chinese_remainder">
<ellipse fill="#f070d1" stroke="#000000" cx="413" cy="-267.5468" rx="99.3824" ry="18"/>
<text text-anchor="middle" x="413" y="-263.8468" font-family="Times,serif" font-size="14.00" fill="#000000">chinese_remainder</text>
</a>
</g>
</g>
<!-- ChineseRemainder_chinese_remainder_prod&#45;&gt;ChineseRemainder_chinese_remainder -->
<g id="edge1" class="edge">
<title>ChineseRemainder_chinese_remainder_prod&#45;&gt;ChineseRemainder_chinese_remainder</title>
<path fill="none" stroke="#000000" d="M413,-326.1182C413,-316.4551 413,-305.4921 413,-295.6853"/>
<polygon fill="#000000" stroke="#000000" points="416.5001,-295.6137 413,-285.6138 409.5001,-295.6138 416.5001,-295.6137"/>
</g>
<!-- ChineseRemainder_issurjection_rng_homo_crt -->
<g id="node3" class="node">
<title>ChineseRemainder_issurjection_rng_homo_crt</title>
<g id="a_node3"><a xlink:href="ChineseRemainder.html#issurjection_rng_homo_crt" xlink:title="issurjection_rng_homo_crt">
<ellipse fill="#f070d1" stroke="#000000" cx="413" cy="-190.5468" rx="135.3763" ry="18"/>
<text text-anchor="middle" x="413" y="-186.8468" font-family="Times,serif" font-size="14.00" fill="#000000">issurjection_rng_homo_crt</text>
</a>
</g>
</g>
<!-- ChineseRemainder_chinese_remainder&#45;&gt;ChineseRemainder_issurjection_rng_homo_crt -->
<g id="edge2" class="edge">
<title>ChineseRemainder_chinese_remainder&#45;&gt;ChineseRemainder_issurjection_rng_homo_crt</title>
<path fill="none" stroke="#000000" d="M413,-249.2989C413,-240.189 413,-228.9642 413,-218.775"/>
<polygon fill="#000000" stroke="#000000" points="416.5001,-218.6637 413,-208.6638 409.5001,-218.6638 416.5001,-218.6637"/>
</g>
<!-- ChineseRemainder_rng_homo_crt_beta_right -->
<g id="node4" class="node">
<title>ChineseRemainder_rng_homo_crt_beta_right</title>
<g id="a_node4"><a xlink:href="ChineseRemainder.html#rng_homo_crt_beta_right" xlink:title="rng_homo_crt_beta_right">
<ellipse fill="#f070d1" stroke="#000000" cx="145" cy="-113.5468" rx="128.8774" ry="18"/>
<text text-anchor="middle" x="145" y="-109.8468" font-family="Times,serif" font-size="14.00" fill="#000000">rng_homo_crt_beta_right</text>
</a>
</g>
</g>
<!-- ChineseRemainder_issurjection_rng_homo_crt&#45;&gt;ChineseRemainder_rng_homo_crt_beta_right -->
<g id="edge3" class="edge">
<title>ChineseRemainder_issurjection_rng_homo_crt&#45;&gt;ChineseRemainder_rng_homo_crt_beta_right</title>
<path fill="none" stroke="#000000" d="M355.836,-174.1228C313.532,-161.9683 255.7964,-145.3801 211.4383,-132.6354"/>
<polygon fill="#000000" stroke="#000000" points="212.1935,-129.2109 201.6158,-129.8133 210.2605,-135.9387 212.1935,-129.2109"/>
</g>
<!-- ChineseRemainder_rng_homo_crt_beta_left -->
<g id="node5" class="node">
<title>ChineseRemainder_rng_homo_crt_beta_left</title>
<g id="a_node5"><a xlink:href="ChineseRemainder.html#rng_homo_crt_beta_left" xlink:title="rng_homo_crt_beta_left">
<ellipse fill="#f070d1" stroke="#000000" cx="413" cy="-113.5468" rx="121.5784" ry="18"/>
<text text-anchor="middle" x="413" y="-109.8468" font-family="Times,serif" font-size="14.00" fill="#000000">rng_homo_crt_beta_left</text>
</a>
</g>
</g>
<!-- ChineseRemainder_issurjection_rng_homo_crt&#45;&gt;ChineseRemainder_rng_homo_crt_beta_left -->
<g id="edge4" class="edge">
<title>ChineseRemainder_issurjection_rng_homo_crt&#45;&gt;ChineseRemainder_rng_homo_crt_beta_left</title>
<path fill="none" stroke="#000000" d="M413,-172.2989C413,-163.189 413,-151.9642 413,-141.775"/>
<polygon fill="#000000" stroke="#000000" points="416.5001,-141.6637 413,-131.6638 409.5001,-141.6638 416.5001,-141.6637"/>
</g>
<!-- ChineseRemainder_issurjection_rng_homo_crt_ -->
<g id="node6" class="node">
<title>ChineseRemainder_issurjection_rng_homo_crt_</title>
<g id="a_node6"><a xlink:href="ChineseRemainder.html#issurjection_rng_homo_crt'" xlink:title="issurjection_rng_homo_crt&#39;">
<ellipse fill="#f070d1" stroke="#000000" cx="690" cy="-113.5468" rx="137.5759" ry="18"/>
<text text-anchor="middle" x="690" y="-109.8468" font-family="Times,serif" font-size="14.00" fill="#000000">issurjection_rng_homo_crt&#39;</text>
</a>
</g>
</g>
<!-- ChineseRemainder_issurjection_rng_homo_crt&#45;&gt;ChineseRemainder_issurjection_rng_homo_crt_ -->
<g id="edge5" class="edge">
<title>ChineseRemainder_issurjection_rng_homo_crt&#45;&gt;ChineseRemainder_issurjection_rng_homo_crt_</title>
<path fill="none" stroke="#000000" d="M471.4061,-174.3112C515.1778,-162.1436 575.2112,-145.4556 621.2911,-132.6464"/>
<polygon fill="#000000" stroke="#000000" points="622.4999,-135.9432 631.1972,-129.8927 620.6251,-129.1989 622.4999,-135.9432"/>
</g>
<!-- ChineseRemainder_rng_homo_crt -->
<g id="node7" class="node">
<title>ChineseRemainder_rng_homo_crt</title>
<g id="a_node7"><a xlink:href="ChineseRemainder.html#rng_homo_crt" xlink:title="rng_homo_crt">
<ellipse fill="#f070d1" stroke="#000000" cx="413" cy="-36.5468" rx="75.2868" ry="18"/>
<text text-anchor="middle" x="413" y="-32.8468" font-family="Times,serif" font-size="14.00" fill="#000000">rng_homo_crt</text>
</a>
</g>
</g>
<!-- ChineseRemainder_rng_homo_crt_beta_right&#45;&gt;ChineseRemainder_rng_homo_crt -->
<g id="edge6" class="edge">
<title>ChineseRemainder_rng_homo_crt_beta_right&#45;&gt;ChineseRemainder_rng_homo_crt</title>
<path fill="none" stroke="#000000" d="M201.5084,-97.3112C246.5763,-84.3626 309.4622,-66.2946 354.9341,-53.2299"/>
<polygon fill="#000000" stroke="#000000" points="356.0038,-56.5643 364.6485,-50.4389 354.0708,-49.8365 356.0038,-56.5643"/>
</g>
<!-- ChineseRemainder_rng_homo_crt_beta_left&#45;&gt;ChineseRemainder_rng_homo_crt -->
<g id="edge7" class="edge">
<title>ChineseRemainder_rng_homo_crt_beta_left&#45;&gt;ChineseRemainder_rng_homo_crt</title>
<path fill="none" stroke="#000000" d="M413,-95.2989C413,-86.189 413,-74.9642 413,-64.775"/>
<polygon fill="#000000" stroke="#000000" points="416.5001,-64.6637 413,-54.6638 409.5001,-64.6638 416.5001,-64.6637"/>
</g>
<!-- ChineseRemainder_issurjection_rng_homo_crt_&#45;&gt;ChineseRemainder_rng_homo_crt -->
<g id="edge8" class="edge">
<title>ChineseRemainder_issurjection_rng_homo_crt_&#45;&gt;ChineseRemainder_rng_homo_crt</title>
<path fill="none" stroke="#000000" d="M631.2554,-97.2171C584.4039,-84.1934 519.0815,-66.0352 472.1293,-52.9835"/>
<polygon fill="#000000" stroke="#000000" points="472.9744,-49.5858 462.4023,-50.2796 471.0995,-56.33 472.9744,-49.5858"/>
</g>
</g>
</svg>
