<?xml version="1.0" encoding="UTF-8" standalone="no"?>
<!DOCTYPE svg PUBLIC "-//W3C//DTD SVG 1.1//EN"
 "http://www.w3.org/Graphics/SVG/1.1/DTD/svg11.dtd">
<!-- Generated by graphviz version 2.40.1 (20161225.0304)
 -->
<!-- Title: HoTT_Classes_implementations_bool Pages: 1 -->
<svg width="551pt" height="280pt"
 viewBox="0.00 0.00 551.00 279.50" xmlns="http://www.w3.org/2000/svg" xmlns:xlink="http://www.w3.org/1999/xlink">
<g id="graph0" class="graph" transform="scale(1 1) rotate(0) translate(4 275.5)">
<title>HoTT_Classes_implementations_bool</title>
<polygon fill="#ffffff" stroke="transparent" points="-4,4 -4,-275.5 547,-275.5 547,4 -4,4"/>
<g id="clust1" class="cluster">
<title>cluster_bool</title>
<polygon fill="#ffffc3" stroke="#000000" points="8,-12.1341 8,-259.3659 535,-259.3659 535,-12.1341 8,-12.1341"/>
<text text-anchor="middle" x="31.5" y="-244.1659" font-family="Times,serif" font-size="14.00" fill="#000000">bool</text>
</g>
<!-- bool_lattice_bool -->
<g id="node1" class="node">
<title>bool_lattice_bool</title>
<g id="a_node1"><a xlink:href="bool.html#lattice_bool" xlink:title="lattice_bool">
<ellipse fill="#f070d1" stroke="#000000" cx="274" cy="-173.1341" rx="64.9891" ry="18"/>
<ellipse fill="none" stroke="#000000" cx="274" cy="-173.1341" rx="68.9888" ry="22"/>
<ellipse fill="none" stroke="#000000" cx="274" cy="-173.1341" rx="72.9885" ry="26"/>
<text text-anchor="middle" x="274" y="-169.4341" font-family="Times,serif" font-size="14.00" fill="#000000">lattice_bool</text>
</a>
</g>
</g>
<!-- bool_top_bool -->
<g id="node2" class="node">
<title>bool_top_bool</title>
<g id="a_node2"><a xlink:href="bool.html#top_bool" xlink:title="top_bool">
<ellipse fill="#f070d1" stroke="#000000" cx="66" cy="-51.1341" rx="50.0912" ry="18"/>
<text text-anchor="middle" x="66" y="-47.4341" font-family="Times,serif" font-size="14.00" fill="#000000">top_bool</text>
</a>
</g>
</g>
<!-- bool_lattice_bool&#45;&gt;bool_top_bool -->
<g id="edge1" class="edge">
<title>bool_lattice_bool&#45;&gt;bool_top_bool</title>
<path fill="none" stroke="#000000" d="M235.8496,-150.7574C197.4676,-128.2449 138.7579,-93.8094 101.3885,-71.8908"/>
<polygon fill="#000000" stroke="#000000" points="102.7695,-68.6432 92.373,-66.6029 99.228,-74.6812 102.7695,-68.6432"/>
</g>
<!-- bool_bottom_bool -->
<g id="node3" class="node">
<title>bool_bottom_bool</title>
<g id="a_node3"><a xlink:href="bool.html#bottom_bool" xlink:title="bottom_bool">
<ellipse fill="#f070d1" stroke="#000000" cx="202" cy="-51.1341" rx="68.4888" ry="18"/>
<text text-anchor="middle" x="202" y="-47.4341" font-family="Times,serif" font-size="14.00" fill="#000000">bottom_bool</text>
</a>
</g>
</g>
<!-- bool_lattice_bool&#45;&gt;bool_bottom_bool -->
<g id="edge2" class="edge">
<title>bool_lattice_bool&#45;&gt;bool_bottom_bool</title>
<path fill="none" stroke="#000000" d="M258.9064,-147.5589C246.8372,-127.1083 229.9705,-98.5285 217.7353,-77.7966"/>
<polygon fill="#000000" stroke="#000000" points="220.7352,-75.9934 212.6384,-69.1602 214.7067,-79.5512 220.7352,-75.9934"/>
</g>
<!-- bool_meet_bool -->
<g id="node4" class="node">
<title>bool_meet_bool</title>
<g id="a_node4"><a xlink:href="bool.html#meet_bool" xlink:title="meet_bool">
<ellipse fill="#f070d1" stroke="#000000" cx="347" cy="-51.1341" rx="58.4896" ry="18"/>
<text text-anchor="middle" x="347" y="-47.4341" font-family="Times,serif" font-size="14.00" fill="#000000">meet_bool</text>
</a>
</g>
</g>
<!-- bool_lattice_bool&#45;&gt;bool_meet_bool -->
<g id="edge3" class="edge">
<title>bool_lattice_bool&#45;&gt;bool_meet_bool</title>
<path fill="none" stroke="#000000" d="M289.3032,-147.5589C301.54,-127.1083 318.6411,-98.5285 331.0462,-77.7966"/>
<polygon fill="#000000" stroke="#000000" points="334.0826,-79.5385 336.2139,-69.1602 328.0758,-75.9442 334.0826,-79.5385"/>
</g>
<!-- bool_join_bool -->
<g id="node5" class="node">
<title>bool_join_bool</title>
<g id="a_node5"><a xlink:href="bool.html#join_bool" xlink:title="join_bool">
<ellipse fill="#f070d1" stroke="#000000" cx="475" cy="-51.1341" rx="51.9908" ry="18"/>
<text text-anchor="middle" x="475" y="-47.4341" font-family="Times,serif" font-size="14.00" fill="#000000">join_bool</text>
</a>
</g>
</g>
<!-- bool_lattice_bool&#45;&gt;bool_join_bool -->
<g id="edge4" class="edge">
<title>bool_lattice_bool&#45;&gt;bool_join_bool</title>
<path fill="none" stroke="#000000" d="M311.3355,-150.4727C348.2809,-128.0482 404.3783,-93.999 440.3571,-72.1611"/>
<polygon fill="#000000" stroke="#000000" points="442.3143,-75.0674 449.0469,-66.8867 438.6822,-69.0835 442.3143,-75.0674"/>
</g>
</g>
</svg>
