<?xml version="1.0" encoding="UTF-8" standalone="no"?>
<!DOCTYPE svg PUBLIC "-//W3C//DTD SVG 1.1//EN"
 "http://www.w3.org/Graphics/SVG/1.1/DTD/svg11.dtd">
<!-- Generated by graphviz version 2.40.1 (20161225.0304)
 -->
<!-- Title: HoTT_Modalities_Topological Pages: 1 -->
<svg width="524pt" height="266pt"
 viewBox="0.00 0.00 524.00 266.00" xmlns="http://www.w3.org/2000/svg" xmlns:xlink="http://www.w3.org/1999/xlink">
<g id="graph0" class="graph" transform="scale(1 1) rotate(0) translate(4 262)">
<title>HoTT_Modalities_Topological</title>
<polygon fill="#ffffff" stroke="transparent" points="-4,4 -4,-262 520,-262 520,4 -4,4"/>
<g id="clust1" class="cluster">
<title>cluster_Topological</title>
<polygon fill="#ffffc3" stroke="#000000" points="8,-11.5307 8,-246.4693 508,-246.4693 508,-11.5307 8,-11.5307"/>
<text text-anchor="middle" x="57" y="-231.2693" font-family="Times,serif" font-size="14.00" fill="#000000">Topological</text>
</g>
<!-- Topological_topological_lex_trunc_acc -->
<g id="node1" class="node">
<title>Topological_topological_lex_trunc_acc</title>
<g id="a_node1"><a xlink:href="Topological.html#topological_lex_trunc_acc" xlink:title="topological_lex_trunc_acc">
<ellipse fill="#f070d1" stroke="#000000" cx="360" cy="-164.5307" rx="131.8801" ry="18"/>
<ellipse fill="none" stroke="#000000" cx="360" cy="-164.5307" rx="135.8784" ry="22"/>
<ellipse fill="none" stroke="#000000" cx="360" cy="-164.5307" rx="139.8766" ry="26"/>
<text text-anchor="middle" x="360" y="-160.8307" font-family="Times,serif" font-size="14.00" fill="#000000">topological_lex_trunc_acc</text>
</a>
</g>
</g>
<!-- Topological_lex_nullification -->
<g id="node2" class="node">
<title>Topological_lex_nullification</title>
<g id="a_node2"><a xlink:href="Topological.html#lex_nullification" xlink:title="lex_nullification">
<ellipse fill="#f070d1" stroke="#000000" cx="109" cy="-164.5307" rx="85.2729" ry="18"/>
<ellipse fill="none" stroke="#000000" cx="109" cy="-164.5307" rx="89.279" ry="22"/>
<ellipse fill="none" stroke="#000000" cx="109" cy="-164.5307" rx="93.2851" ry="26"/>
<text text-anchor="middle" x="109" y="-160.8307" font-family="Times,serif" font-size="14.00" fill="#000000">lex_nullification</text>
</a>
</g>
</g>
<!-- Topological_lex_topological -->
<g id="node3" class="node">
<title>Topological_lex_topological</title>
<g id="a_node3"><a xlink:href="Topological.html#lex_topological" xlink:title="lex_topological">
<ellipse fill="#f070d1" stroke="#000000" cx="109" cy="-48.5307" rx="80.6858" ry="18"/>
<text text-anchor="middle" x="109" y="-44.8307" font-family="Times,serif" font-size="14.00" fill="#000000">lex_topological</text>
</a>
</g>
</g>
<!-- Topological_lex_nullification&#45;&gt;Topological_lex_topological -->
<g id="edge1" class="edge">
<title>Topological_lex_nullification&#45;&gt;Topological_lex_topological</title>
<path fill="none" stroke="#000000" d="M109,-138.4981C109,-120.0973 109,-95.4537 109,-76.6114"/>
<polygon fill="#000000" stroke="#000000" points="112.5001,-76.5483 109,-66.5483 105.5001,-76.5484 112.5001,-76.5483"/>
</g>
</g>
</svg>
