<?xml version="1.0" encoding="UTF-8" standalone="no"?>
<!DOCTYPE svg PUBLIC "-//W3C//DTD SVG 1.1//EN"
 "http://www.w3.org/Graphics/SVG/1.1/DTD/svg11.dtd">
<!-- Generated by graphviz version 2.40.1 (20161225.0304)
 -->
<!-- Title: HoTT_Tactics_EvalIn Pages: 1 -->
<svg width="542pt" height="275pt"
 viewBox="0.00 0.00 542.00 275.00" xmlns="http://www.w3.org/2000/svg" xmlns:xlink="http://www.w3.org/1999/xlink">
<g id="graph0" class="graph" transform="scale(1 1) rotate(0) translate(4 271)">
<title>HoTT_Tactics_EvalIn</title>
<polygon fill="#ffffff" stroke="transparent" points="-4,4 -4,-271 538,-271 538,4 -4,4"/>
<g id="clust1" class="cluster">
<title>cluster_EvalIn</title>
<polygon fill="#ffffc3" stroke="#000000" points="8.3765,-8 8.3765,-259 525.6235,-259 525.6235,-8 8.3765,-8"/>
<text text-anchor="middle" x="39.8765" y="-243.8" font-family="Times,serif" font-size="14.00" fill="#000000">EvalIn</text>
</g>
<!-- EvalIn_dummy_sind -->
<g id="node1" class="node">
<title>EvalIn_dummy_sind</title>
<g id="a_node1"><a xlink:href="EvalIn.html#dummy_sind" xlink:title="dummy_sind">
<ellipse fill="#f070d1" stroke="#000000" cx="98.1882" cy="-114" rx="69.5832" ry="18"/>
<ellipse fill="none" stroke="#000000" cx="98.1882" cy="-114" rx="73.5854" ry="22"/>
<ellipse fill="none" stroke="#000000" cx="98.1882" cy="-114" rx="77.5877" ry="26"/>
<text text-anchor="middle" x="98.1882" y="-110.3" font-family="Times,serif" font-size="14.00" fill="#000000">dummy_sind</text>
</a>
</g>
</g>
<!-- EvalIn_adummy -->
<g id="node5" class="node">
<title>EvalIn_adummy</title>
<g id="a_node5"><a xlink:href="EvalIn.html#adummy" xlink:title="adummy">
<ellipse fill="#7faaff" stroke="#000000" cx="216.1882" cy="-34" rx="50.8918" ry="18"/>
<text text-anchor="middle" x="216.1882" y="-30.3" font-family="Times,serif" font-size="14.00" fill="#000000">adummy</text>
</a>
</g>
</g>
<!-- EvalIn_dummy_sind&#45;&gt;EvalIn_adummy -->
<g id="edge1" class="edge">
<title>EvalIn_dummy_sind&#45;&gt;EvalIn_adummy</title>
<path fill="none" stroke="#000000" d="M132.6359,-90.6456C148.8219,-79.6721 168.0084,-66.6643 183.911,-55.8829"/>
<polygon fill="#000000" stroke="#000000" points="186.055,-58.6579 192.368,-50.1493 182.1268,-52.864 186.055,-58.6579"/>
</g>
<!-- EvalIn_dummy -->
<g id="node6" class="node">
<title>EvalIn_dummy</title>
<g id="a_node6"><a xlink:href="EvalIn.html#dummy" xlink:title="dummy">
<ellipse fill="#e2cdfa" stroke="#000000" cx="335.1882" cy="-34" rx="45.4919" ry="18"/>
<text text-anchor="middle" x="335.1882" y="-30.3" font-family="Times,serif" font-size="14.00" fill="#000000">dummy</text>
</a>
</g>
</g>
<!-- EvalIn_dummy_sind&#45;&gt;EvalIn_dummy -->
<g id="edge2" class="edge">
<title>EvalIn_dummy_sind&#45;&gt;EvalIn_dummy</title>
<path fill="none" stroke="#000000" d="M152.8584,-95.5459C194.698,-81.4229 251.6695,-62.192 290.731,-49.0067"/>
<polygon fill="#000000" stroke="#000000" points="291.9005,-52.306 300.2559,-45.7915 289.6617,-45.6736 291.9005,-52.306"/>
</g>
<!-- EvalIn_dummy_rec -->
<g id="node2" class="node">
<title>EvalIn_dummy_rec</title>
<g id="a_node2"><a xlink:href="EvalIn.html#dummy_rec" xlink:title="dummy_rec">
<ellipse fill="#f070d1" stroke="#000000" cx="440.1882" cy="-202" rx="65.7729" ry="18"/>
<ellipse fill="none" stroke="#000000" cx="440.1882" cy="-202" rx="69.7808" ry="22"/>
<ellipse fill="none" stroke="#000000" cx="440.1882" cy="-202" rx="73.7886" ry="26"/>
<text text-anchor="middle" x="440.1882" y="-198.3" font-family="Times,serif" font-size="14.00" fill="#000000">dummy_rec</text>
</a>
</g>
</g>
<!-- EvalIn_dummy_rect -->
<g id="node4" class="node">
<title>EvalIn_dummy_rect</title>
<g id="a_node4"><a xlink:href="EvalIn.html#dummy_rect" xlink:title="dummy_rect">
<ellipse fill="#f070d1" stroke="#000000" cx="444.1882" cy="-114" rx="69.5877" ry="18"/>
<text text-anchor="middle" x="444.1882" y="-110.3" font-family="Times,serif" font-size="14.00" fill="#000000">dummy_rect</text>
</a>
</g>
</g>
<!-- EvalIn_dummy_rec&#45;&gt;EvalIn_dummy_rect -->
<g id="edge3" class="edge">
<title>EvalIn_dummy_rec&#45;&gt;EvalIn_dummy_rect</title>
<path fill="none" stroke="#000000" d="M441.3884,-175.5971C441.8682,-165.0414 442.4215,-152.868 442.9089,-142.1448"/>
<polygon fill="#000000" stroke="#000000" points="446.4114,-142.1674 443.3692,-132.0188 439.4186,-141.8495 446.4114,-142.1674"/>
</g>
<!-- EvalIn_dummy_ind -->
<g id="node3" class="node">
<title>EvalIn_dummy_ind</title>
<g id="a_node3"><a xlink:href="EvalIn.html#dummy_ind" xlink:title="dummy_ind">
<ellipse fill="#7fffd4" stroke="#000000" cx="275.1882" cy="-114" rx="64.9891" ry="18"/>
<ellipse fill="none" stroke="#000000" cx="275.1882" cy="-114" rx="68.9888" ry="22"/>
<ellipse fill="none" stroke="#000000" cx="275.1882" cy="-114" rx="72.9885" ry="26"/>
<text text-anchor="middle" x="275.1882" y="-110.3" font-family="Times,serif" font-size="14.00" fill="#000000">dummy_ind</text>
</a>
</g>
</g>
<!-- EvalIn_dummy_ind&#45;&gt;EvalIn_adummy -->
<g id="edge4" class="edge">
<title>EvalIn_dummy_ind&#45;&gt;EvalIn_adummy</title>
<path fill="none" stroke="#000000" d="M256.5203,-88.6875C249.6965,-79.435 241.9748,-68.9648 235.1276,-59.6805"/>
<polygon fill="#000000" stroke="#000000" points="237.8883,-57.527 229.136,-51.5563 232.2547,-61.6818 237.8883,-57.527"/>
</g>
<!-- EvalIn_dummy_ind&#45;&gt;EvalIn_dummy -->
<g id="edge5" class="edge">
<title>EvalIn_dummy_ind&#45;&gt;EvalIn_dummy</title>
<path fill="none" stroke="#000000" d="M294.1726,-88.6875C301.112,-79.435 308.9646,-68.9648 315.9279,-59.6805"/>
<polygon fill="#000000" stroke="#000000" points="318.8209,-61.6564 322.021,-51.5563 313.2209,-57.4563 318.8209,-61.6564"/>
</g>
<!-- EvalIn_dummy_rect&#45;&gt;EvalIn_adummy -->
<g id="edge6" class="edge">
<title>EvalIn_dummy_rect&#45;&gt;EvalIn_adummy</title>
<path fill="none" stroke="#000000" d="M402.8992,-99.5126C363.1003,-85.5481 303.0094,-64.4636 261.8126,-50.0085"/>
<polygon fill="#000000" stroke="#000000" points="262.8838,-46.6753 252.289,-46.6669 260.5661,-53.2805 262.8838,-46.6753"/>
</g>
<!-- EvalIn_dummy_rect&#45;&gt;EvalIn_dummy -->
<g id="edge7" class="edge">
<title>EvalIn_dummy_rect&#45;&gt;EvalIn_dummy</title>
<path fill="none" stroke="#000000" d="M420.805,-96.838C404.5702,-84.9226 382.7954,-68.941 365.2684,-56.0772"/>
<polygon fill="#000000" stroke="#000000" points="367.181,-53.1394 357.0484,-50.0442 363.0392,-58.7826 367.181,-53.1394"/>
</g>
</g>
</svg>
