<?xml version="1.0" encoding="UTF-8" standalone="no"?>
<!DOCTYPE svg PUBLIC "-//W3C//DTD SVG 1.1//EN"
 "http://www.w3.org/Graphics/SVG/1.1/DTD/svg11.dtd">
<!-- Generated by graphviz version 2.40.1 (20161225.0304)
 -->
<!-- Title: HoTT_Spaces_Circle Pages: 1 -->
<svg width="1726pt" height="867pt"
 viewBox="0.00 0.00 1726.00 867.00" xmlns="http://www.w3.org/2000/svg" xmlns:xlink="http://www.w3.org/1999/xlink">
<g id="graph0" class="graph" transform="scale(1 1) rotate(0) translate(4 863)">
<title>HoTT_Spaces_Circle</title>
<polygon fill="#ffffff" stroke="transparent" points="-4,4 -4,-863 1722,-863 1722,4 -4,4"/>
<g id="clust1" class="cluster">
<title>cluster_Circle</title>
<polygon fill="#ffffc3" stroke="#000000" points="16.9261,-8 16.9261,-851 1701.0739,-851 1701.0739,-8 16.9261,-8"/>
<text text-anchor="middle" x="46.9261" y="-835.8" font-family="Times,serif" font-size="14.00" fill="#000000">Circle</text>
</g>
<!-- Circle_Circle_ind_dp_beta_loop -->
<g id="node1" class="node">
<title>Circle_Circle_ind_dp_beta_loop</title>
<g id="a_node1"><a xlink:href="Circle.html#Circle_ind_dp_beta_loop" xlink:title="Circle_ind_dp_beta_loop">
<ellipse fill="#f070d1" stroke="#000000" cx="1341.5764" cy="-418" rx="124.5909" ry="18"/>
<ellipse fill="none" stroke="#000000" cx="1341.5764" cy="-418" rx="128.5845" ry="22"/>
<ellipse fill="none" stroke="#000000" cx="1341.5764" cy="-418" rx="132.5782" ry="26"/>
<text text-anchor="middle" x="1341.5764" y="-414.3" font-family="Times,serif" font-size="14.00" fill="#000000">Circle_ind_dp_beta_loop</text>
</a>
</g>
</g>
<!-- Circle_Circle_ind_dp -->
<g id="node2" class="node">
<title>Circle_Circle_ind_dp</title>
<g id="a_node2"><a xlink:href="Circle.html#Circle_ind_dp" xlink:title="Circle_ind_dp">
<ellipse fill="#f070d1" stroke="#000000" cx="1309.5764" cy="-338" rx="75.2868" ry="18"/>
<text text-anchor="middle" x="1309.5764" y="-334.3" font-family="Times,serif" font-size="14.00" fill="#000000">Circle_ind_dp</text>
</a>
</g>
</g>
<!-- Circle_Circle_ind_dp_beta_loop&#45;&gt;Circle_Circle_ind_dp -->
<g id="edge1" class="edge">
<title>Circle_Circle_ind_dp_beta_loop&#45;&gt;Circle_Circle_ind_dp</title>
<path fill="none" stroke="#000000" d="M1331.0984,-391.805C1327.7445,-383.4203 1324.0216,-374.1132 1320.6281,-365.6295"/>
<polygon fill="#000000" stroke="#000000" points="1323.8013,-364.1381 1316.8376,-356.1532 1317.3019,-366.7379 1323.8013,-364.1381"/>
</g>
<!-- Circle_Circle_ind_beta_loop -->
<g id="node17" class="node">
<title>Circle_Circle_ind_beta_loop</title>
<g id="a_node17"><a xlink:href="Circle.html#Circle_ind_beta_loop" xlink:title="Circle_ind_beta_loop">
<ellipse fill="#f070d1" stroke="#000000" cx="822.5764" cy="-338" rx="108.5808" ry="18"/>
<text text-anchor="middle" x="822.5764" y="-334.3" font-family="Times,serif" font-size="14.00" fill="#000000">Circle_ind_beta_loop</text>
</a>
</g>
</g>
<!-- Circle_Circle_ind_dp_beta_loop&#45;&gt;Circle_Circle_ind_beta_loop -->
<g id="edge2" class="edge">
<title>Circle_Circle_ind_dp_beta_loop&#45;&gt;Circle_Circle_ind_beta_loop</title>
<path fill="none" stroke="#000000" d="M1237.1733,-401.907C1141.8787,-387.2181 1002.5083,-365.7352 912.1647,-351.8094"/>
<polygon fill="#000000" stroke="#000000" points="912.6326,-348.3402 902.2161,-350.2759 911.5661,-355.2585 912.6326,-348.3402"/>
</g>
<!-- Circle_Circle_ind -->
<g id="node18" class="node">
<title>Circle_Circle_ind</title>
<g id="a_node18"><a xlink:href="Circle.html#Circle_ind" xlink:title="Circle_ind">
<ellipse fill="#f070d1" stroke="#000000" cx="636.5764" cy="-266" rx="58.4896" ry="18"/>
<text text-anchor="middle" x="636.5764" y="-262.3" font-family="Times,serif" font-size="14.00" fill="#000000">Circle_ind</text>
</a>
</g>
</g>
<!-- Circle_Circle_ind_dp&#45;&gt;Circle_Circle_ind -->
<g id="edge3" class="edge">
<title>Circle_Circle_ind_dp&#45;&gt;Circle_Circle_ind</title>
<path fill="none" stroke="#000000" d="M1240.7163,-330.6331C1110.4087,-316.6923 829.4148,-286.6306 701.8935,-272.9879"/>
<polygon fill="#000000" stroke="#000000" points="702.1925,-269.5 691.8769,-271.9163 701.4478,-276.4603 702.1925,-269.5"/>
</g>
<!-- Circle_Circle_action_is_iter -->
<g id="node3" class="node">
<title>Circle_Circle_action_is_iter</title>
<g id="a_node3"><a xlink:href="Circle.html#Circle_action_is_iter" xlink:title="Circle_action_is_iter">
<ellipse fill="#f070d1" stroke="#000000" cx="734.5764" cy="-794" rx="106.6748" ry="18"/>
<ellipse fill="none" stroke="#000000" cx="734.5764" cy="-794" rx="110.678" ry="22"/>
<ellipse fill="none" stroke="#000000" cx="734.5764" cy="-794" rx="114.6812" ry="26"/>
<text text-anchor="middle" x="734.5764" y="-790.3" font-family="Times,serif" font-size="14.00" fill="#000000">Circle_action_is_iter</text>
</a>
</g>
</g>
<!-- Circle_equiv_loopCircle_int -->
<g id="node6" class="node">
<title>Circle_equiv_loopCircle_int</title>
<g id="a_node6"><a xlink:href="Circle.html#equiv_loopCircle_int" xlink:title="equiv_loopCircle_int">
<ellipse fill="#f070d1" stroke="#000000" cx="734.5764" cy="-714" rx="106.6812" ry="18"/>
<text text-anchor="middle" x="734.5764" y="-710.3" font-family="Times,serif" font-size="14.00" fill="#000000">equiv_loopCircle_int</text>
</a>
</g>
</g>
<!-- Circle_Circle_action_is_iter&#45;&gt;Circle_equiv_loopCircle_int -->
<g id="edge4" class="edge">
<title>Circle_Circle_action_is_iter&#45;&gt;Circle_equiv_loopCircle_int</title>
<path fill="none" stroke="#000000" d="M734.5764,-767.805C734.5764,-759.6026 734.5764,-750.5174 734.5764,-742.1839"/>
<polygon fill="#000000" stroke="#000000" points="738.0765,-742.1532 734.5764,-732.1532 731.0765,-742.1533 738.0765,-742.1532"/>
</g>
<!-- Circle_istrunc_Circle -->
<g id="node4" class="node">
<title>Circle_istrunc_Circle</title>
<g id="a_node4"><a xlink:href="Circle.html#istrunc_Circle" xlink:title="istrunc_Circle">
<ellipse fill="#f070d1" stroke="#000000" cx="258.5764" cy="-794" rx="77.2012" ry="18"/>
<ellipse fill="none" stroke="#000000" cx="258.5764" cy="-794" rx="81.1939" ry="22"/>
<ellipse fill="none" stroke="#000000" cx="258.5764" cy="-794" rx="85.1866" ry="26"/>
<text text-anchor="middle" x="258.5764" y="-790.3" font-family="Times,serif" font-size="14.00" fill="#000000">istrunc_Circle</text>
</a>
</g>
</g>
<!-- Circle_isconnected_Circle -->
<g id="node5" class="node">
<title>Circle_isconnected_Circle</title>
<g id="a_node5"><a xlink:href="Circle.html#isconnected_Circle" xlink:title="isconnected_Circle">
<ellipse fill="#f070d1" stroke="#000000" cx="245.5764" cy="-642" rx="100.1823" ry="18"/>
<text text-anchor="middle" x="245.5764" y="-638.3" font-family="Times,serif" font-size="14.00" fill="#000000">isconnected_Circle</text>
</a>
</g>
</g>
<!-- Circle_istrunc_Circle&#45;&gt;Circle_isconnected_Circle -->
<g id="edge5" class="edge">
<title>Circle_istrunc_Circle&#45;&gt;Circle_isconnected_Circle</title>
<path fill="none" stroke="#000000" d="M256.3416,-767.8703C254.0216,-740.7442 250.4037,-698.4425 248.012,-670.4779"/>
<polygon fill="#000000" stroke="#000000" points="251.4697,-669.8338 247.1302,-660.1685 244.4952,-670.4304 251.4697,-669.8338"/>
</g>
<!-- Circle_istrunc_Circle&#45;&gt;Circle_equiv_loopCircle_int -->
<g id="edge6" class="edge">
<title>Circle_istrunc_Circle&#45;&gt;Circle_equiv_loopCircle_int</title>
<path fill="none" stroke="#000000" d="M333.475,-781.412C419.1488,-767.013 559.1528,-743.4829 649.043,-728.3753"/>
<polygon fill="#000000" stroke="#000000" points="649.6539,-731.8219 658.9355,-726.7128 648.4937,-724.9187 649.6539,-731.8219"/>
</g>
<!-- Circle_isconnected_Circle&#45;&gt;Circle_Circle_ind -->
<g id="edge7" class="edge">
<title>Circle_isconnected_Circle&#45;&gt;Circle_Circle_ind</title>
<path fill="none" stroke="#000000" d="M183.9884,-627.748C122.0234,-609.3239 35.5764,-570.6091 35.5764,-498 35.5764,-498 35.5764,-498 35.5764,-418 35.5764,-309.1324 410.9131,-277.4064 568.3549,-268.8873"/>
<polygon fill="#000000" stroke="#000000" points="568.6014,-272.3793 578.4039,-268.3592 568.2339,-265.3889 568.6014,-272.3793"/>
</g>
<!-- Circle_Circle_encode_isequiv -->
<g id="node7" class="node">
<title>Circle_Circle_encode_isequiv</title>
<g id="a_node7"><a xlink:href="Circle.html#Circle_encode_isequiv" xlink:title="Circle_encode_isequiv">
<ellipse fill="#f070d1" stroke="#000000" cx="738.5764" cy="-642" rx="115.0796" ry="18"/>
<text text-anchor="middle" x="738.5764" y="-638.3" font-family="Times,serif" font-size="14.00" fill="#000000">Circle_encode_isequiv</text>
</a>
</g>
</g>
<!-- Circle_equiv_loopCircle_int&#45;&gt;Circle_Circle_encode_isequiv -->
<g id="edge8" class="edge">
<title>Circle_equiv_loopCircle_int&#45;&gt;Circle_Circle_encode_isequiv</title>
<path fill="none" stroke="#000000" d="M735.5857,-695.8314C736.0135,-688.131 736.5222,-678.9743 736.9977,-670.4166"/>
<polygon fill="#000000" stroke="#000000" points="740.4932,-670.592 737.5534,-660.4133 733.504,-670.2037 740.4932,-670.592"/>
</g>
<!-- Circle_Circle_encode_loopexp -->
<g id="node8" class="node">
<title>Circle_Circle_encode_loopexp</title>
<g id="a_node8"><a xlink:href="Circle.html#Circle_encode_loopexp" xlink:title="Circle_encode_loopexp">
<ellipse fill="#f070d1" stroke="#000000" cx="736.5764" cy="-570" rx="118.0794" ry="18"/>
<text text-anchor="middle" x="736.5764" y="-566.3" font-family="Times,serif" font-size="14.00" fill="#000000">Circle_encode_loopexp</text>
</a>
</g>
</g>
<!-- Circle_Circle_encode_isequiv&#45;&gt;Circle_Circle_encode_loopexp -->
<g id="edge9" class="edge">
<title>Circle_Circle_encode_isequiv&#45;&gt;Circle_Circle_encode_loopexp</title>
<path fill="none" stroke="#000000" d="M738.0717,-623.8314C737.8578,-616.131 737.6034,-606.9743 737.3657,-598.4166"/>
<polygon fill="#000000" stroke="#000000" points="740.8643,-598.3122 737.0878,-588.4133 733.867,-598.5066 740.8643,-598.3122"/>
</g>
<!-- Circle_Circle_decode -->
<g id="node9" class="node">
<title>Circle_Circle_decode</title>
<g id="a_node9"><a xlink:href="Circle.html#Circle_decode" xlink:title="Circle_decode">
<ellipse fill="#f070d1" stroke="#000000" cx="1282.5764" cy="-570" rx="77.1866" ry="18"/>
<text text-anchor="middle" x="1282.5764" y="-566.3" font-family="Times,serif" font-size="14.00" fill="#000000">Circle_decode</text>
</a>
</g>
</g>
<!-- Circle_Circle_encode_isequiv&#45;&gt;Circle_Circle_decode -->
<g id="edge10" class="edge">
<title>Circle_Circle_encode_isequiv&#45;&gt;Circle_Circle_decode</title>
<path fill="none" stroke="#000000" d="M826.584,-630.3519C931.5361,-616.4612 1105.2895,-593.4644 1205.2768,-580.2308"/>
<polygon fill="#000000" stroke="#000000" points="1205.8575,-583.6846 1215.3118,-578.9027 1204.939,-576.7451 1205.8575,-583.6846"/>
</g>
<!-- Circle_Circle_encode -->
<g id="node10" class="node">
<title>Circle_Circle_encode</title>
<g id="a_node10"><a xlink:href="Circle.html#Circle_encode" xlink:title="Circle_encode">
<ellipse fill="#f070d1" stroke="#000000" cx="239.5764" cy="-498" rx="77.1866" ry="18"/>
<text text-anchor="middle" x="239.5764" y="-494.3" font-family="Times,serif" font-size="14.00" fill="#000000">Circle_encode</text>
</a>
</g>
</g>
<!-- Circle_Circle_encode_loopexp&#45;&gt;Circle_Circle_encode -->
<g id="edge11" class="edge">
<title>Circle_Circle_encode_loopexp&#45;&gt;Circle_Circle_encode</title>
<path fill="none" stroke="#000000" d="M650.8561,-557.5818C556.3756,-543.8945 405.8402,-522.0865 315.4754,-508.9954"/>
<polygon fill="#000000" stroke="#000000" points="315.9711,-505.5308 305.5726,-507.5608 314.9675,-512.4585 315.9711,-505.5308"/>
</g>
<!-- Circle_transport_Circle_code_loopV -->
<g id="node11" class="node">
<title>Circle_transport_Circle_code_loopV</title>
<g id="a_node11"><a xlink:href="Circle.html#transport_Circle_code_loopV" xlink:title="transport_Circle_code_loopV">
<ellipse fill="#f070d1" stroke="#000000" cx="1375.5764" cy="-498" rx="145.6742" ry="18"/>
<text text-anchor="middle" x="1375.5764" y="-494.3" font-family="Times,serif" font-size="14.00" fill="#000000">transport_Circle_code_loopV</text>
</a>
</g>
</g>
<!-- Circle_Circle_encode_loopexp&#45;&gt;Circle_transport_Circle_code_loopV -->
<g id="edge12" class="edge">
<title>Circle_Circle_encode_loopexp&#45;&gt;Circle_transport_Circle_code_loopV</title>
<path fill="none" stroke="#000000" d="M831.8959,-559.2598C945.43,-546.4672 1135.096,-525.0964 1257.7277,-511.2787"/>
<polygon fill="#000000" stroke="#000000" points="1258.3628,-514.7294 1267.908,-510.1316 1257.579,-507.7734 1258.3628,-514.7294"/>
</g>
<!-- Circle_transport_Circle_code_loop -->
<g id="node12" class="node">
<title>Circle_transport_Circle_code_loop</title>
<g id="a_node12"><a xlink:href="Circle.html#transport_Circle_code_loop" xlink:title="transport_Circle_code_loop">
<ellipse fill="#f070d1" stroke="#000000" cx="734.5764" cy="-498" rx="139.1754" ry="18"/>
<text text-anchor="middle" x="734.5764" y="-494.3" font-family="Times,serif" font-size="14.00" fill="#000000">transport_Circle_code_loop</text>
</a>
</g>
</g>
<!-- Circle_Circle_encode_loopexp&#45;&gt;Circle_transport_Circle_code_loop -->
<g id="edge13" class="edge">
<title>Circle_Circle_encode_loopexp&#45;&gt;Circle_transport_Circle_code_loop</title>
<path fill="none" stroke="#000000" d="M736.0717,-551.8314C735.8578,-544.131 735.6034,-534.9743 735.3657,-526.4166"/>
<polygon fill="#000000" stroke="#000000" points="738.8643,-526.3122 735.0878,-516.4133 731.867,-526.5066 738.8643,-526.3122"/>
</g>
<!-- Circle_Circle_decode&#45;&gt;Circle_transport_Circle_code_loopV -->
<g id="edge14" class="edge">
<title>Circle_Circle_decode&#45;&gt;Circle_transport_Circle_code_loopV</title>
<path fill="none" stroke="#000000" d="M1305.0891,-552.5708C1316.819,-543.4896 1331.3533,-532.2372 1344.1712,-522.3137"/>
<polygon fill="#000000" stroke="#000000" points="1346.5351,-524.9099 1352.2998,-516.0206 1342.2499,-519.3748 1346.5351,-524.9099"/>
</g>
<!-- Circle_Circle_code -->
<g id="node13" class="node">
<title>Circle_Circle_code</title>
<g id="a_node13"><a xlink:href="Circle.html#Circle_code" xlink:title="Circle_code">
<ellipse fill="#f070d1" stroke="#000000" cx="387.5764" cy="-418" rx="65.7887" ry="18"/>
<text text-anchor="middle" x="387.5764" y="-414.3" font-family="Times,serif" font-size="14.00" fill="#000000">Circle_code</text>
</a>
</g>
</g>
<!-- Circle_Circle_encode&#45;&gt;Circle_Circle_code -->
<g id="edge15" class="edge">
<title>Circle_Circle_encode&#45;&gt;Circle_Circle_code</title>
<path fill="none" stroke="#000000" d="M270.2421,-481.4239C292.9903,-469.1276 324.1743,-452.2714 348.6765,-439.027"/>
<polygon fill="#000000" stroke="#000000" points="350.5757,-441.979 357.7085,-434.1448 347.247,-435.8211 350.5757,-441.979"/>
</g>
<!-- Circle_transport_Circle_code_loopV&#45;&gt;Circle_Circle_code -->
<g id="edge16" class="edge">
<title>Circle_transport_Circle_code_loopV&#45;&gt;Circle_Circle_code</title>
<path fill="none" stroke="#000000" d="M1250.0344,-488.811C1109.9124,-478.4394 876.4475,-460.8143 675.5764,-444 602.1885,-437.8569 518.3413,-430.217 460.1182,-424.8127"/>
<polygon fill="#000000" stroke="#000000" points="460.1969,-421.305 449.9158,-423.8642 459.5488,-428.2749 460.1969,-421.305"/>
</g>
<!-- Circle_Circle_rec_beta_loop -->
<g id="node15" class="node">
<title>Circle_Circle_rec_beta_loop</title>
<g id="a_node15"><a xlink:href="Circle.html#Circle_rec_beta_loop" xlink:title="Circle_rec_beta_loop">
<ellipse fill="#f070d1" stroke="#000000" cx="793.5764" cy="-418" rx="108.5808" ry="18"/>
<text text-anchor="middle" x="793.5764" y="-414.3" font-family="Times,serif" font-size="14.00" fill="#000000">Circle_rec_beta_loop</text>
</a>
</g>
</g>
<!-- Circle_transport_Circle_code_loopV&#45;&gt;Circle_Circle_rec_beta_loop -->
<g id="edge17" class="edge">
<title>Circle_transport_Circle_code_loopV&#45;&gt;Circle_Circle_rec_beta_loop</title>
<path fill="none" stroke="#000000" d="M1278.1626,-484.6098C1169.5406,-469.6789 995.0592,-445.6952 887.7628,-430.9466"/>
<polygon fill="#000000" stroke="#000000" points="887.977,-427.4432 877.5935,-429.5487 887.0237,-434.378 887.977,-427.4432"/>
</g>
<!-- Circle_transport_Circle_code_loop&#45;&gt;Circle_Circle_code -->
<g id="edge18" class="edge">
<title>Circle_transport_Circle_code_loop&#45;&gt;Circle_Circle_code</title>
<path fill="none" stroke="#000000" d="M666.4343,-482.29C602.7725,-467.6129 508.6528,-445.9139 447.7152,-431.8649"/>
<polygon fill="#000000" stroke="#000000" points="448.3882,-428.4283 437.8575,-429.5922 446.8156,-435.2493 448.3882,-428.4283"/>
</g>
<!-- Circle_transport_Circle_code_loop&#45;&gt;Circle_Circle_rec_beta_loop -->
<g id="edge19" class="edge">
<title>Circle_transport_Circle_code_loop&#45;&gt;Circle_Circle_rec_beta_loop</title>
<path fill="none" stroke="#000000" d="M747.9644,-479.8468C755.7342,-469.3114 765.6551,-455.8593 774.2588,-444.1932"/>
<polygon fill="#000000" stroke="#000000" points="777.1227,-446.2069 780.2413,-436.0814 771.489,-442.052 777.1227,-446.2069"/>
</g>
<!-- Circle_Circle_rec -->
<g id="node16" class="node">
<title>Circle_Circle_rec</title>
<g id="a_node16"><a xlink:href="Circle.html#Circle_rec" xlink:title="Circle_rec">
<ellipse fill="#f070d1" stroke="#000000" cx="429.5764" cy="-338" rx="59.2899" ry="18"/>
<text text-anchor="middle" x="429.5764" y="-334.3" font-family="Times,serif" font-size="14.00" fill="#000000">Circle_rec</text>
</a>
</g>
</g>
<!-- Circle_Circle_code&#45;&gt;Circle_Circle_rec -->
<g id="edge20" class="edge">
<title>Circle_Circle_code&#45;&gt;Circle_Circle_rec</title>
<path fill="none" stroke="#000000" d="M397.1068,-399.8468C402.5146,-389.5462 409.3861,-376.4575 415.414,-364.9759"/>
<polygon fill="#000000" stroke="#000000" points="418.6788,-366.2867 420.2283,-355.8058 412.481,-363.0329 418.6788,-366.2867"/>
</g>
<!-- Circle_ispointed_Circle -->
<g id="node14" class="node">
<title>Circle_ispointed_Circle</title>
<g id="a_node14"><a xlink:href="Circle.html#ispointed_Circle" xlink:title="ispointed_Circle">
<ellipse fill="#f070d1" stroke="#000000" cx="332.5764" cy="-186" rx="87.1769" ry="18"/>
<ellipse fill="none" stroke="#000000" cx="332.5764" cy="-186" rx="91.1807" ry="22"/>
<ellipse fill="none" stroke="#000000" cx="332.5764" cy="-186" rx="95.1846" ry="26"/>
<text text-anchor="middle" x="332.5764" y="-182.3" font-family="Times,serif" font-size="14.00" fill="#000000">ispointed_Circle</text>
</a>
</g>
</g>
<!-- Circle_base -->
<g id="node20" class="node">
<title>Circle_base</title>
<g id="a_node20"><a xlink:href="Circle.html#base" xlink:title="base">
<ellipse fill="#f070d1" stroke="#000000" cx="484.5764" cy="-106" rx="32.4942" ry="18"/>
<text text-anchor="middle" x="484.5764" y="-102.3" font-family="Times,serif" font-size="14.00" fill="#000000">base</text>
</a>
</g>
</g>
<!-- Circle_ispointed_Circle&#45;&gt;Circle_base -->
<g id="edge21" class="edge">
<title>Circle_ispointed_Circle&#45;&gt;Circle_base</title>
<path fill="none" stroke="#000000" d="M376.5411,-162.8607C400.6307,-150.1819 429.9764,-134.7368 452.0002,-123.1453"/>
<polygon fill="#000000" stroke="#000000" points="453.735,-126.1875 460.9541,-118.4328 450.4748,-119.9931 453.735,-126.1875"/>
</g>
<!-- Circle_Circle_rec_beta_loop&#45;&gt;Circle_Circle_rec -->
<g id="edge22" class="edge">
<title>Circle_Circle_rec_beta_loop&#45;&gt;Circle_Circle_rec</title>
<path fill="none" stroke="#000000" d="M728.0801,-403.6052C659.6902,-388.5745 553.4371,-365.2221 487.8642,-350.8105"/>
<polygon fill="#000000" stroke="#000000" points="488.2196,-347.3052 477.7014,-348.5769 486.717,-354.142 488.2196,-347.3052"/>
</g>
<!-- Circle_Circle_rec_beta_loop&#45;&gt;Circle_Circle_ind_beta_loop -->
<g id="edge23" class="edge">
<title>Circle_Circle_rec_beta_loop&#45;&gt;Circle_Circle_ind_beta_loop</title>
<path fill="none" stroke="#000000" d="M800.1569,-399.8468C803.8277,-389.7205 808.4752,-376.8998 812.5858,-365.5602"/>
<polygon fill="#000000" stroke="#000000" points="815.9043,-366.6756 816.0218,-356.0814 809.3233,-364.2899 815.9043,-366.6756"/>
</g>
<!-- Circle_Circle_rec&#45;&gt;Circle_Circle_ind -->
<g id="edge24" class="edge">
<title>Circle_Circle_rec&#45;&gt;Circle_Circle_ind</title>
<path fill="none" stroke="#000000" d="M468.9987,-324.2879C502.7737,-312.54 551.5579,-295.5716 587.7886,-282.9697"/>
<polygon fill="#000000" stroke="#000000" points="589.3566,-286.13 597.6517,-279.539 587.0569,-279.5185 589.3566,-286.13"/>
</g>
<!-- Circle_Circle_ind_beta_loop&#45;&gt;Circle_Circle_ind -->
<g id="edge25" class="edge">
<title>Circle_Circle_ind_beta_loop&#45;&gt;Circle_Circle_ind</title>
<path fill="none" stroke="#000000" d="M779.4367,-321.3008C750.5114,-310.1039 712.4499,-295.3704 682.8873,-283.9268"/>
<polygon fill="#000000" stroke="#000000" points="683.8021,-280.5279 673.2129,-280.1819 681.2751,-287.0559 683.8021,-280.5279"/>
</g>
<!-- Circle_loop -->
<g id="node19" class="node">
<title>Circle_loop</title>
<g id="a_node19"><a xlink:href="Circle.html#loop" xlink:title="loop">
<ellipse fill="#f070d1" stroke="#000000" cx="636.5764" cy="-186" rx="30.5947" ry="18"/>
<text text-anchor="middle" x="636.5764" y="-182.3" font-family="Times,serif" font-size="14.00" fill="#000000">loop</text>
</a>
</g>
</g>
<!-- Circle_Circle_ind&#45;&gt;Circle_loop -->
<g id="edge26" class="edge">
<title>Circle_Circle_ind&#45;&gt;Circle_loop</title>
<path fill="none" stroke="#000000" d="M636.5764,-247.8468C636.5764,-237.9251 636.5764,-225.4167 636.5764,-214.2492"/>
<polygon fill="#000000" stroke="#000000" points="640.0765,-214.0814 636.5764,-204.0814 633.0765,-214.0814 640.0765,-214.0814"/>
</g>
<!-- Circle_loop&#45;&gt;Circle_base -->
<g id="edge27" class="edge">
<title>Circle_loop&#45;&gt;Circle_base</title>
<path fill="none" stroke="#000000" d="M613.4908,-173.8497C587.8615,-160.3606 546.294,-138.483 517.3124,-123.2295"/>
<polygon fill="#000000" stroke="#000000" points="518.8605,-120.0892 508.3812,-118.5289 515.6002,-126.2836 518.8605,-120.0892"/>
</g>
<!-- Circle_Circle -->
<g id="node21" class="node">
<title>Circle_Circle</title>
<g id="a_node21"><a xlink:href="Circle.html#Circle" xlink:title="Circle">
<ellipse fill="#f070d1" stroke="#000000" cx="484.5764" cy="-34" rx="38.9931" ry="18"/>
<text text-anchor="middle" x="484.5764" y="-30.3" font-family="Times,serif" font-size="14.00" fill="#000000">Circle</text>
</a>
</g>
</g>
<!-- Circle_base&#45;&gt;Circle_Circle -->
<g id="edge28" class="edge">
<title>Circle_base&#45;&gt;Circle_Circle</title>
<path fill="none" stroke="#000000" d="M484.5764,-87.8314C484.5764,-80.131 484.5764,-70.9743 484.5764,-62.4166"/>
<polygon fill="#000000" stroke="#000000" points="488.0765,-62.4132 484.5764,-52.4133 481.0765,-62.4133 488.0765,-62.4132"/>
</g>
</g>
</svg>
