<?xml version="1.0" encoding="UTF-8" standalone="no"?>
<!DOCTYPE svg PUBLIC "-//W3C//DTD SVG 1.1//EN"
 "http://www.w3.org/Graphics/SVG/1.1/DTD/svg11.dtd">
<!-- Generated by graphviz version 2.40.1 (20161225.0304)
 -->
<!-- Title: HoTT_WildCat_FunctorCat Pages: 1 -->
<svg width="3097pt" height="1550pt"
 viewBox="0.00 0.00 3096.66 1550.00" xmlns="http://www.w3.org/2000/svg" xmlns:xlink="http://www.w3.org/1999/xlink">
<g id="graph0" class="graph" transform="scale(1 1) rotate(0) translate(4 1546)">
<title>HoTT_WildCat_FunctorCat</title>
<polygon fill="#ffffff" stroke="transparent" points="-4,4 -4,-1546 3092.6626,-1546 3092.6626,4 -4,4"/>
<g id="clust1" class="cluster">
<title>cluster_FunctorCat</title>
<polygon fill="#ffffc3" stroke="#000000" points="8,-24.7214 8,-1517.2786 3076,-1517.2786 3076,-24.7214 8,-24.7214"/>
<text text-anchor="middle" x="57.5" y="-1502.0786" font-family="Times,serif" font-size="14.00" fill="#000000">FunctorCat</text>
</g>
<!-- FunctorCat_fun11_compose -->
<g id="node1" class="node">
<title>FunctorCat_fun11_compose</title>
<g id="a_node1"><a xlink:href="FunctorCat.html#fun11_compose" xlink:title="fun11_compose">
<ellipse fill="#f070d1" stroke="#000000" cx="2803" cy="-352.7214" rx="83.3687" ry="18"/>
<ellipse fill="none" stroke="#000000" cx="2803" cy="-352.7214" rx="87.3772" ry="22"/>
<ellipse fill="none" stroke="#000000" cx="2803" cy="-352.7214" rx="91.3856" ry="26"/>
<text text-anchor="middle" x="2803" y="-349.0214" font-family="Times,serif" font-size="14.00" fill="#000000">fun11_compose</text>
</a>
</g>
</g>
<!-- FunctorCat_Build_Fun11 -->
<g id="node22" class="node">
<title>FunctorCat_Build_Fun11</title>
<g id="a_node22"><a xlink:href="FunctorCat.html#Build_Fun11" xlink:title="Build_Fun11">
<ellipse fill="#7faaff" stroke="#000000" cx="2718" cy="-104.7214" rx="69.5877" ry="18"/>
<text text-anchor="middle" x="2718" y="-101.0214" font-family="Times,serif" font-size="14.00" fill="#000000">Build_Fun11</text>
</a>
</g>
</g>
<!-- FunctorCat_fun11_compose&#45;&gt;FunctorCat_Build_Fun11 -->
<g id="edge1" class="edge">
<title>FunctorCat_fun11_compose&#45;&gt;FunctorCat_Build_Fun11</title>
<path fill="none" stroke="#000000" d="M2794.0642,-326.6498C2777.9081,-279.512 2743.9853,-180.5374 2727.4561,-132.311"/>
<polygon fill="#000000" stroke="#000000" points="2730.7589,-131.1522 2724.2056,-122.8272 2724.137,-133.4218 2730.7589,-131.1522"/>
</g>
<!-- FunctorCat_Fun11 -->
<g id="node23" class="node">
<title>FunctorCat_Fun11</title>
<g id="a_node23"><a xlink:href="FunctorCat.html#Fun11" xlink:title="Fun11">
<ellipse fill="#e2cdfa" stroke="#000000" cx="2329" cy="-104.7214" rx="40.0939" ry="18"/>
<text text-anchor="middle" x="2329" y="-101.0214" font-family="Times,serif" font-size="14.00" fill="#000000">Fun11</text>
</a>
</g>
</g>
<!-- FunctorCat_fun11_compose&#45;&gt;FunctorCat_Fun11 -->
<g id="edge2" class="edge">
<title>FunctorCat_fun11_compose&#45;&gt;FunctorCat_Fun11</title>
<path fill="none" stroke="#000000" d="M2759.2568,-329.8347C2666.0353,-281.0606 2449.3828,-167.7065 2364.2506,-123.1648"/>
<polygon fill="#000000" stroke="#000000" points="2365.7275,-119.9874 2355.2444,-118.4527 2362.4824,-126.1898 2365.7275,-119.9874"/>
</g>
<!-- FunctorCat_fun11_fun01_postcomp -->
<g id="node2" class="node">
<title>FunctorCat_fun11_fun01_postcomp</title>
<g id="a_node2"><a xlink:href="FunctorCat.html#fun11_fun01_postcomp" xlink:title="fun11_fun01_postcomp">
<ellipse fill="#f070d1" stroke="#000000" cx="2032" cy="-1340.7214" rx="119.6732" ry="18"/>
<ellipse fill="none" stroke="#000000" cx="2032" cy="-1340.7214" rx="123.676" ry="22"/>
<ellipse fill="none" stroke="#000000" cx="2032" cy="-1340.7214" rx="127.6788" ry="26"/>
<text text-anchor="middle" x="2032" y="-1337.0214" font-family="Times,serif" font-size="14.00" fill="#000000">fun11_fun01_postcomp</text>
</a>
</g>
</g>
<!-- FunctorCat_is1functor_fun01_postcomp -->
<g id="node3" class="node">
<title>FunctorCat_is1functor_fun01_postcomp</title>
<g id="a_node3"><a xlink:href="FunctorCat.html#is1functor_fun01_postcomp" xlink:title="is1functor_fun01_postcomp">
<ellipse fill="#f070d1" stroke="#000000" cx="1125" cy="-1093.7214" rx="140.2752" ry="18"/>
<text text-anchor="middle" x="1125" y="-1090.0214" font-family="Times,serif" font-size="14.00" fill="#000000">is1functor_fun01_postcomp</text>
</a>
</g>
</g>
<!-- FunctorCat_fun11_fun01_postcomp&#45;&gt;FunctorCat_is1functor_fun01_postcomp -->
<g id="edge3" class="edge">
<title>FunctorCat_fun11_fun01_postcomp&#45;&gt;FunctorCat_is1functor_fun01_postcomp</title>
<path fill="none" stroke="#000000" d="M1955.4514,-1319.8752C1782.0748,-1272.6602 1361.5569,-1158.1421 1194.8028,-1112.7306"/>
<polygon fill="#000000" stroke="#000000" points="1195.4734,-1109.2858 1184.9051,-1110.0352 1193.6341,-1116.0399 1195.4734,-1109.2858"/>
</g>
<!-- FunctorCat_fun11_fun01_postcomp&#45;&gt;FunctorCat_Build_Fun11 -->
<g id="edge4" class="edge">
<title>FunctorCat_fun11_fun01_postcomp&#45;&gt;FunctorCat_Build_Fun11</title>
<path fill="none" stroke="#000000" d="M2117.5789,-1321.4266C2365.5518,-1263.064 3067,-1079.5999 3067,-871.7214 3067,-871.7214 3067,-871.7214 3067,-623.7214 3067,-491.6466 3121.7446,-441.8383 3057,-326.7214 2994.5759,-215.7303 2850.9481,-150.7083 2772.1572,-122.138"/>
<polygon fill="#000000" stroke="#000000" points="2773.0095,-118.7264 2762.4148,-118.6715 2770.6628,-125.3213 2773.0095,-118.7264"/>
</g>
<!-- FunctorCat_is0functor_fun01_postcomp -->
<g id="node4" class="node">
<title>FunctorCat_is0functor_fun01_postcomp</title>
<g id="a_node4"><a xlink:href="FunctorCat.html#is0functor_fun01_postcomp" xlink:title="is0functor_fun01_postcomp">
<ellipse fill="#f070d1" stroke="#000000" cx="1125" cy="-871.7214" rx="140.2752" ry="18"/>
<text text-anchor="middle" x="1125" y="-868.0214" font-family="Times,serif" font-size="14.00" fill="#000000">is0functor_fun01_postcomp</text>
</a>
</g>
</g>
<!-- FunctorCat_is1functor_fun01_postcomp&#45;&gt;FunctorCat_is0functor_fun01_postcomp -->
<g id="edge5" class="edge">
<title>FunctorCat_is1functor_fun01_postcomp&#45;&gt;FunctorCat_is0functor_fun01_postcomp</title>
<path fill="none" stroke="#000000" d="M1125,-1075.5543C1125,-1036.919 1125,-946.3567 1125,-900.0599"/>
<polygon fill="#000000" stroke="#000000" points="1128.5001,-899.8283 1125,-889.8283 1121.5001,-899.8283 1128.5001,-899.8283"/>
</g>
<!-- FunctorCat_is1cat_fun01 -->
<g id="node25" class="node">
<title>FunctorCat_is1cat_fun01</title>
<g id="a_node25"><a xlink:href="FunctorCat.html#is1cat_fun01" xlink:title="is1cat_fun01">
<ellipse fill="#f070d1" stroke="#000000" cx="539" cy="-871.7214" rx="70.6878" ry="18"/>
<text text-anchor="middle" x="539" y="-868.0214" font-family="Times,serif" font-size="14.00" fill="#000000">is1cat_fun01</text>
</a>
</g>
</g>
<!-- FunctorCat_is1functor_fun01_postcomp&#45;&gt;FunctorCat_is1cat_fun01 -->
<g id="edge6" class="edge">
<title>FunctorCat_is1functor_fun01_postcomp&#45;&gt;FunctorCat_is1cat_fun01</title>
<path fill="none" stroke="#000000" d="M1079.9906,-1076.6701C972.1783,-1035.8265 699.8192,-932.6461 588.0344,-890.2976"/>
<polygon fill="#000000" stroke="#000000" points="589.2689,-887.0226 578.6775,-886.7529 586.789,-893.5686 589.2689,-887.0226"/>
</g>
<!-- FunctorCat_fun01_postcomp -->
<g id="node5" class="node">
<title>FunctorCat_fun01_postcomp</title>
<g id="a_node5"><a xlink:href="FunctorCat.html#fun01_postcomp" xlink:title="fun01_postcomp">
<ellipse fill="#f070d1" stroke="#000000" cx="1125" cy="-623.7214" rx="87.9851" ry="18"/>
<text text-anchor="middle" x="1125" y="-620.0214" font-family="Times,serif" font-size="14.00" fill="#000000">fun01_postcomp</text>
</a>
</g>
</g>
<!-- FunctorCat_is0functor_fun01_postcomp&#45;&gt;FunctorCat_fun01_postcomp -->
<g id="edge7" class="edge">
<title>FunctorCat_is0functor_fun01_postcomp&#45;&gt;FunctorCat_fun01_postcomp</title>
<path fill="none" stroke="#000000" d="M1125,-853.4854C1125,-810.6682 1125,-703.4538 1125,-652.0604"/>
<polygon fill="#000000" stroke="#000000" points="1128.5001,-651.9842 1125,-641.9842 1121.5001,-651.9842 1128.5001,-651.9842"/>
</g>
<!-- FunctorCat_isgraph_fun01 -->
<g id="node28" class="node">
<title>FunctorCat_isgraph_fun01</title>
<g id="a_node28"><a xlink:href="FunctorCat.html#isgraph_fun01" xlink:title="isgraph_fun01">
<ellipse fill="#f070d1" stroke="#000000" cx="902" cy="-352.7214" rx="77.1866" ry="18"/>
<text text-anchor="middle" x="902" y="-349.0214" font-family="Times,serif" font-size="14.00" fill="#000000">isgraph_fun01</text>
</a>
</g>
</g>
<!-- FunctorCat_is0functor_fun01_postcomp&#45;&gt;FunctorCat_isgraph_fun01 -->
<g id="edge8" class="edge">
<title>FunctorCat_is0functor_fun01_postcomp&#45;&gt;FunctorCat_isgraph_fun01</title>
<path fill="none" stroke="#000000" d="M1117.0129,-853.6208C1100.3436,-815.8051 1060.6852,-725.6319 1028,-649.7214 985.3403,-550.6453 935.5564,-432.5513 913.5106,-380.1257"/>
<polygon fill="#000000" stroke="#000000" points="916.7049,-378.6926 909.603,-370.8303 910.2518,-381.4053 916.7049,-378.6926"/>
</g>
<!-- FunctorCat_fun01_compose -->
<g id="node6" class="node">
<title>FunctorCat_fun01_compose</title>
<g id="a_node6"><a xlink:href="FunctorCat.html#fun01_compose" xlink:title="fun01_compose">
<ellipse fill="#f070d1" stroke="#000000" cx="1081" cy="-352.7214" rx="83.3857" ry="18"/>
<text text-anchor="middle" x="1081" y="-349.0214" font-family="Times,serif" font-size="14.00" fill="#000000">fun01_compose</text>
</a>
</g>
</g>
<!-- FunctorCat_fun01_postcomp&#45;&gt;FunctorCat_fun01_compose -->
<g id="edge9" class="edge">
<title>FunctorCat_fun01_postcomp&#45;&gt;FunctorCat_fun01_compose</title>
<path fill="none" stroke="#000000" d="M1122.0447,-605.5196C1114.5301,-559.2363 1094.6488,-436.7853 1085.6007,-381.0576"/>
<polygon fill="#000000" stroke="#000000" points="1088.9999,-380.1539 1083.9424,-370.8441 1082.0904,-381.2758 1088.9999,-380.1539"/>
</g>
<!-- FunctorCat_fun01_fun11 -->
<g id="node14" class="node">
<title>FunctorCat_fun01_fun11</title>
<g id="a_node14"><a xlink:href="FunctorCat.html#fun01_fun11" xlink:title="fun01_fun11">
<ellipse fill="#f070d1" stroke="#000000" cx="1598" cy="-352.7214" rx="69.5877" ry="18"/>
<text text-anchor="middle" x="1598" y="-349.0214" font-family="Times,serif" font-size="14.00" fill="#000000">fun01_fun11</text>
</a>
</g>
</g>
<!-- FunctorCat_fun01_postcomp&#45;&gt;FunctorCat_fun01_fun11 -->
<g id="edge10" class="edge">
<title>FunctorCat_fun01_postcomp&#45;&gt;FunctorCat_fun01_fun11</title>
<path fill="none" stroke="#000000" d="M1154.5883,-606.7692C1237.0055,-559.5491 1469.1175,-426.5632 1560.4289,-374.2474"/>
<polygon fill="#000000" stroke="#000000" points="1562.3899,-377.1576 1569.3268,-369.1494 1558.91,-371.0839 1562.3899,-377.1576"/>
</g>
<!-- FunctorCat_Build_Fun01 -->
<g id="node36" class="node">
<title>FunctorCat_Build_Fun01</title>
<g id="a_node36"><a xlink:href="FunctorCat.html#Build_Fun01" xlink:title="Build_Fun01">
<ellipse fill="#7faaff" stroke="#000000" cx="426" cy="-104.7214" rx="69.5877" ry="18"/>
<text text-anchor="middle" x="426" y="-101.0214" font-family="Times,serif" font-size="14.00" fill="#000000">Build_Fun01</text>
</a>
</g>
</g>
<!-- FunctorCat_fun01_compose&#45;&gt;FunctorCat_Build_Fun01 -->
<g id="edge11" class="edge">
<title>FunctorCat_fun01_compose&#45;&gt;FunctorCat_Build_Fun01</title>
<path fill="none" stroke="#000000" d="M1039.5299,-337.0198C924.1229,-293.3237 599.5535,-170.4333 475.2683,-123.3757"/>
<polygon fill="#000000" stroke="#000000" points="476.2111,-119.9903 465.6197,-119.7225 473.7324,-126.5367 476.2111,-119.9903"/>
</g>
<!-- FunctorCat_Fun01 -->
<g id="node37" class="node">
<title>FunctorCat_Fun01</title>
<g id="a_node37"><a xlink:href="FunctorCat.html#Fun01" xlink:title="Fun01">
<ellipse fill="#e2cdfa" stroke="#000000" cx="820" cy="-104.7214" rx="40.0939" ry="18"/>
<text text-anchor="middle" x="820" y="-101.0214" font-family="Times,serif" font-size="14.00" fill="#000000">Fun01</text>
</a>
</g>
</g>
<!-- FunctorCat_fun01_compose&#45;&gt;FunctorCat_Fun01 -->
<g id="edge12" class="edge">
<title>FunctorCat_fun01_compose&#45;&gt;FunctorCat_Fun01</title>
<path fill="none" stroke="#000000" d="M1062.2295,-334.8859C1015.9797,-290.9397 896.5417,-177.4507 844.6624,-128.1554"/>
<polygon fill="#000000" stroke="#000000" points="846.8861,-125.4403 837.2259,-121.0893 842.0643,-130.5148 846.8861,-125.4403"/>
</g>
<!-- FunctorCat_fun11_id -->
<g id="node7" class="node">
<title>FunctorCat_fun11_id</title>
<g id="a_node7"><a xlink:href="FunctorCat.html#fun11_id" xlink:title="fun11_id">
<ellipse fill="#f070d1" stroke="#000000" cx="2634" cy="-352.7214" rx="51.2121" ry="18"/>
<ellipse fill="none" stroke="#000000" cx="2634" cy="-352.7214" rx="55.2017" ry="22"/>
<ellipse fill="none" stroke="#000000" cx="2634" cy="-352.7214" rx="59.1913" ry="26"/>
<text text-anchor="middle" x="2634" y="-349.0214" font-family="Times,serif" font-size="14.00" fill="#000000">fun11_id</text>
</a>
</g>
</g>
<!-- FunctorCat_fun11_id&#45;&gt;FunctorCat_Build_Fun11 -->
<g id="edge13" class="edge">
<title>FunctorCat_fun11_id&#45;&gt;FunctorCat_Build_Fun11</title>
<path fill="none" stroke="#000000" d="M2642.8307,-326.6498C2658.7967,-279.512 2692.3204,-180.5374 2708.6551,-132.311"/>
<polygon fill="#000000" stroke="#000000" points="2711.9743,-133.4215 2711.8674,-122.8272 2705.3443,-131.1758 2711.9743,-133.4215"/>
</g>
<!-- FunctorCat_fun11_id&#45;&gt;FunctorCat_Fun11 -->
<g id="edge14" class="edge">
<title>FunctorCat_fun11_id&#45;&gt;FunctorCat_Fun11</title>
<path fill="none" stroke="#000000" d="M2605.5802,-329.6129C2547.0854,-282.0499 2413.8978,-173.7531 2356.3375,-126.95"/>
<polygon fill="#000000" stroke="#000000" points="2358.3786,-124.0986 2348.4117,-120.5053 2353.9624,-129.5298 2358.3786,-124.0986"/>
</g>
<!-- FunctorCat_fun01_id -->
<g id="node8" class="node">
<title>FunctorCat_fun01_id</title>
<g id="a_node8"><a xlink:href="FunctorCat.html#fun01_id" xlink:title="fun01_id">
<ellipse fill="#f070d1" stroke="#000000" cx="426" cy="-352.7214" rx="51.2121" ry="18"/>
<ellipse fill="none" stroke="#000000" cx="426" cy="-352.7214" rx="55.2017" ry="22"/>
<ellipse fill="none" stroke="#000000" cx="426" cy="-352.7214" rx="59.1913" ry="26"/>
<text text-anchor="middle" x="426" y="-349.0214" font-family="Times,serif" font-size="14.00" fill="#000000">fun01_id</text>
</a>
</g>
</g>
<!-- FunctorCat_fun01_id&#45;&gt;FunctorCat_Build_Fun01 -->
<g id="edge15" class="edge">
<title>FunctorCat_fun01_id&#45;&gt;FunctorCat_Build_Fun01</title>
<path fill="none" stroke="#000000" d="M426,-326.6498C426,-279.7092 426,-181.3647 426,-132.919"/>
<polygon fill="#000000" stroke="#000000" points="429.5001,-132.8272 426,-122.8272 422.5001,-132.8272 429.5001,-132.8272"/>
</g>
<!-- FunctorCat_fun01_id&#45;&gt;FunctorCat_Fun01 -->
<g id="edge16" class="edge">
<title>FunctorCat_fun01_id&#45;&gt;FunctorCat_Fun01</title>
<path fill="none" stroke="#000000" d="M459.9332,-331.3625C534.936,-284.1526 713.981,-171.4542 787.5705,-125.1339"/>
<polygon fill="#000000" stroke="#000000" points="789.819,-127.8543 796.4176,-119.5652 786.0901,-121.9302 789.819,-127.8543"/>
</g>
<!-- FunctorCat_hasequivs_fun11 -->
<g id="node9" class="node">
<title>FunctorCat_hasequivs_fun11</title>
<g id="a_node9"><a xlink:href="FunctorCat.html#hasequivs_fun11" xlink:title="hasequivs_fun11">
<ellipse fill="#f070d1" stroke="#000000" cx="622" cy="-1340.7214" rx="89.0807" ry="18"/>
<ellipse fill="none" stroke="#000000" cx="622" cy="-1340.7214" rx="93.0825" ry="22"/>
<ellipse fill="none" stroke="#000000" cx="622" cy="-1340.7214" rx="97.0842" ry="26"/>
<text text-anchor="middle" x="622" y="-1337.0214" font-family="Times,serif" font-size="14.00" fill="#000000">hasequivs_fun11</text>
</a>
</g>
</g>
<!-- FunctorCat_is1cat_fun11 -->
<g id="node10" class="node">
<title>FunctorCat_is1cat_fun11</title>
<g id="a_node10"><a xlink:href="FunctorCat.html#is1cat_fun11" xlink:title="is1cat_fun11">
<ellipse fill="#f070d1" stroke="#000000" cx="711" cy="-1093.7214" rx="70.6878" ry="18"/>
<text text-anchor="middle" x="711" y="-1090.0214" font-family="Times,serif" font-size="14.00" fill="#000000">is1cat_fun11</text>
</a>
</g>
</g>
<!-- FunctorCat_hasequivs_fun11&#45;&gt;FunctorCat_is1cat_fun11 -->
<g id="edge17" class="edge">
<title>FunctorCat_hasequivs_fun11&#45;&gt;FunctorCat_is1cat_fun11</title>
<path fill="none" stroke="#000000" d="M631.3563,-1314.755C648.2727,-1267.8072 683.7919,-1169.2317 701.0989,-1121.1998"/>
<polygon fill="#000000" stroke="#000000" points="704.4052,-1122.3486 704.5024,-1111.7542 697.8196,-1119.9756 704.4052,-1122.3486"/>
</g>
<!-- FunctorCat_hasequivs_fun01 -->
<g id="node24" class="node">
<title>FunctorCat_hasequivs_fun01</title>
<g id="a_node24"><a xlink:href="FunctorCat.html#hasequivs_fun01" xlink:title="hasequivs_fun01">
<ellipse fill="#f070d1" stroke="#000000" cx="533" cy="-1093.7214" rx="89.0842" ry="18"/>
<text text-anchor="middle" x="533" y="-1090.0214" font-family="Times,serif" font-size="14.00" fill="#000000">hasequivs_fun01</text>
</a>
</g>
</g>
<!-- FunctorCat_hasequivs_fun11&#45;&gt;FunctorCat_hasequivs_fun01 -->
<g id="edge18" class="edge">
<title>FunctorCat_hasequivs_fun11&#45;&gt;FunctorCat_hasequivs_fun01</title>
<path fill="none" stroke="#000000" d="M612.6437,-1314.755C595.7273,-1267.8072 560.2081,-1169.2317 542.9011,-1121.1998"/>
<polygon fill="#000000" stroke="#000000" points="546.1804,-1119.9756 539.4976,-1111.7542 539.5948,-1122.3486 546.1804,-1119.9756"/>
</g>
<!-- FunctorCat_is2graph_fun11 -->
<g id="node11" class="node">
<title>FunctorCat_is2graph_fun11</title>
<g id="a_node11"><a xlink:href="FunctorCat.html#is2graph_fun11" xlink:title="is2graph_fun11">
<ellipse fill="#f070d1" stroke="#000000" cx="883" cy="-871.7214" rx="83.3857" ry="18"/>
<text text-anchor="middle" x="883" y="-868.0214" font-family="Times,serif" font-size="14.00" fill="#000000">is2graph_fun11</text>
</a>
</g>
</g>
<!-- FunctorCat_is1cat_fun11&#45;&gt;FunctorCat_is2graph_fun11 -->
<g id="edge19" class="edge">
<title>FunctorCat_is1cat_fun11&#45;&gt;FunctorCat_is2graph_fun11</title>
<path fill="none" stroke="#000000" d="M724.7847,-1075.9295C755.1032,-1036.7975 827.6811,-943.1214 863.0058,-897.5279"/>
<polygon fill="#000000" stroke="#000000" points="865.7917,-899.6468 869.1496,-889.5981 860.2582,-895.3595 865.7917,-899.6468"/>
</g>
<!-- FunctorCat_is01cat_fun11 -->
<g id="node12" class="node">
<title>FunctorCat_is01cat_fun11</title>
<g id="a_node12"><a xlink:href="FunctorCat.html#is01cat_fun11" xlink:title="is01cat_fun11">
<ellipse fill="#f070d1" stroke="#000000" cx="705" cy="-871.7214" rx="76.8869" ry="18"/>
<text text-anchor="middle" x="705" y="-868.0214" font-family="Times,serif" font-size="14.00" fill="#000000">is01cat_fun11</text>
</a>
</g>
</g>
<!-- FunctorCat_is1cat_fun11&#45;&gt;FunctorCat_is01cat_fun11 -->
<g id="edge20" class="edge">
<title>FunctorCat_is1cat_fun11&#45;&gt;FunctorCat_is01cat_fun11</title>
<path fill="none" stroke="#000000" d="M710.509,-1075.5543C709.4648,-1036.919 707.0172,-946.3567 705.7659,-900.0599"/>
<polygon fill="#000000" stroke="#000000" points="709.2584,-899.7301 705.4894,-889.8283 702.2609,-899.9193 709.2584,-899.7301"/>
</g>
<!-- FunctorCat_is1cat_fun11&#45;&gt;FunctorCat_is1cat_fun01 -->
<g id="edge21" class="edge">
<title>FunctorCat_is1cat_fun11&#45;&gt;FunctorCat_is1cat_fun01</title>
<path fill="none" stroke="#000000" d="M697.2153,-1075.9295C666.8968,-1036.7975 594.3189,-943.1214 558.9942,-897.5279"/>
<polygon fill="#000000" stroke="#000000" points="561.7418,-895.3595 552.8504,-889.5981 556.2083,-899.6468 561.7418,-895.3595"/>
</g>
<!-- FunctorCat_isgraph_fun11 -->
<g id="node13" class="node">
<title>FunctorCat_isgraph_fun11</title>
<g id="a_node13"><a xlink:href="FunctorCat.html#isgraph_fun11" xlink:title="isgraph_fun11">
<ellipse fill="#f070d1" stroke="#000000" cx="902" cy="-623.7214" rx="77.1866" ry="18"/>
<text text-anchor="middle" x="902" y="-620.0214" font-family="Times,serif" font-size="14.00" fill="#000000">isgraph_fun11</text>
</a>
</g>
</g>
<!-- FunctorCat_is2graph_fun11&#45;&gt;FunctorCat_isgraph_fun11 -->
<g id="edge22" class="edge">
<title>FunctorCat_is2graph_fun11&#45;&gt;FunctorCat_isgraph_fun11</title>
<path fill="none" stroke="#000000" d="M884.3971,-853.4854C887.6775,-810.6682 895.8915,-703.4538 899.8289,-652.0604"/>
<polygon fill="#000000" stroke="#000000" points="903.3266,-652.2224 900.6008,-641.9842 896.3471,-651.6876 903.3266,-652.2224"/>
</g>
<!-- FunctorCat_is2graph_fun01 -->
<g id="node26" class="node">
<title>FunctorCat_is2graph_fun01</title>
<g id="a_node26"><a xlink:href="FunctorCat.html#is2graph_fun01" xlink:title="is2graph_fun01">
<ellipse fill="#f070d1" stroke="#000000" cx="568" cy="-623.7214" rx="83.3857" ry="18"/>
<text text-anchor="middle" x="568" y="-620.0214" font-family="Times,serif" font-size="14.00" fill="#000000">is2graph_fun01</text>
</a>
</g>
</g>
<!-- FunctorCat_is2graph_fun11&#45;&gt;FunctorCat_is2graph_fun01 -->
<g id="edge23" class="edge">
<title>FunctorCat_is2graph_fun11&#45;&gt;FunctorCat_is2graph_fun01</title>
<path fill="none" stroke="#000000" d="M860.8498,-854.2826C805.4983,-810.7042 661.0824,-697.0054 598.101,-647.42"/>
<polygon fill="#000000" stroke="#000000" points="600.1479,-644.577 590.1257,-641.1411 595.8178,-650.077 600.1479,-644.577"/>
</g>
<!-- FunctorCat_is01cat_fun11&#45;&gt;FunctorCat_isgraph_fun11 -->
<g id="edge24" class="edge">
<title>FunctorCat_is01cat_fun11&#45;&gt;FunctorCat_isgraph_fun11</title>
<path fill="none" stroke="#000000" d="M719.1678,-853.8859C753.5154,-810.6462 841.3428,-700.0818 881.4574,-649.5821"/>
<polygon fill="#000000" stroke="#000000" points="884.2165,-651.7358 887.6959,-641.7286 878.7353,-647.3818 884.2165,-651.7358"/>
</g>
<!-- FunctorCat_is01cat_fun01 -->
<g id="node27" class="node">
<title>FunctorCat_is01cat_fun01</title>
<g id="a_node27"><a xlink:href="FunctorCat.html#is01cat_fun01" xlink:title="is01cat_fun01">
<ellipse fill="#f070d1" stroke="#000000" cx="390" cy="-623.7214" rx="76.8869" ry="18"/>
<text text-anchor="middle" x="390" y="-620.0214" font-family="Times,serif" font-size="14.00" fill="#000000">is01cat_fun01</text>
</a>
</g>
</g>
<!-- FunctorCat_is01cat_fun11&#45;&gt;FunctorCat_is01cat_fun01 -->
<g id="edge25" class="edge">
<title>FunctorCat_is01cat_fun11&#45;&gt;FunctorCat_is01cat_fun01</title>
<path fill="none" stroke="#000000" d="M682.8498,-854.2826C627.4983,-810.7042 483.0824,-697.0054 420.101,-647.42"/>
<polygon fill="#000000" stroke="#000000" points="422.1479,-644.577 412.1257,-641.1411 417.8178,-650.077 422.1479,-644.577"/>
</g>
<!-- FunctorCat_isgraph_fun11&#45;&gt;FunctorCat_fun01_fun11 -->
<g id="edge26" class="edge">
<title>FunctorCat_isgraph_fun11&#45;&gt;FunctorCat_fun01_fun11</title>
<path fill="none" stroke="#000000" d="M941.9198,-608.178C1061.9656,-561.436 1419.4068,-422.2599 1549.7507,-371.5082"/>
<polygon fill="#000000" stroke="#000000" points="1551.0538,-374.7568 1559.1024,-367.8669 1548.5139,-368.2338 1551.0538,-374.7568"/>
</g>
<!-- FunctorCat_isgraph_fun11&#45;&gt;FunctorCat_isgraph_fun01 -->
<g id="edge27" class="edge">
<title>FunctorCat_isgraph_fun11&#45;&gt;FunctorCat_isgraph_fun01</title>
<path fill="none" stroke="#000000" d="M902,-605.5196C902,-559.2363 902,-436.7853 902,-381.0576"/>
<polygon fill="#000000" stroke="#000000" points="905.5001,-380.8441 902,-370.8441 898.5001,-380.8441 905.5001,-380.8441"/>
</g>
<!-- FunctorCat_fun01_fun11&#45;&gt;FunctorCat_Fun11 -->
<g id="edge28" class="edge">
<title>FunctorCat_fun01_fun11&#45;&gt;FunctorCat_Fun11</title>
<path fill="none" stroke="#000000" d="M1640.1939,-338.4067C1769.3918,-294.5748 2158.5873,-162.5359 2287.2235,-118.8946"/>
<polygon fill="#000000" stroke="#000000" points="2288.3921,-122.1942 2296.7374,-115.6669 2286.1431,-115.5653 2288.3921,-122.1942"/>
</g>
<!-- FunctorCat_fun01_fun11&#45;&gt;FunctorCat_Build_Fun01 -->
<g id="edge29" class="edge">
<title>FunctorCat_fun01_fun11&#45;&gt;FunctorCat_Build_Fun01</title>
<path fill="none" stroke="#000000" d="M1556.9934,-338.0136C1545.1452,-334.0477 1532.1359,-329.9626 1520,-326.7214 1137.6903,-224.6181 669.2871,-144.163 495.33,-115.7761"/>
<polygon fill="#000000" stroke="#000000" points="495.7201,-112.2936 485.2877,-114.1419 494.5957,-119.2027 495.7201,-112.2936"/>
</g>
<!-- FunctorCat_fun01_fun11&#45;&gt;FunctorCat_Fun01 -->
<g id="edge30" class="edge">
<title>FunctorCat_fun01_fun11&#45;&gt;FunctorCat_Fun01</title>
<path fill="none" stroke="#000000" d="M1555.5314,-338.4399C1544.0134,-334.6008 1531.5382,-330.4739 1520,-326.7214 1271.6293,-245.9466 972.5184,-152.2901 862.9156,-118.0916"/>
<polygon fill="#000000" stroke="#000000" points="863.8007,-114.7014 853.2121,-115.0648 861.7161,-121.3839 863.8007,-114.7014"/>
</g>
<!-- FunctorCat_is1functor_fun11 -->
<g id="node15" class="node">
<title>FunctorCat_is1functor_fun11</title>
<g id="a_node15"><a xlink:href="FunctorCat.html#is1functor_fun11" xlink:title="is1functor_fun11">
<ellipse fill="#f070d1" stroke="#000000" cx="2148" cy="-352.7214" rx="90.1971" ry="18"/>
<ellipse fill="none" stroke="#000000" cx="2148" cy="-352.7214" rx="94.1906" ry="22"/>
<ellipse fill="none" stroke="#000000" cx="2148" cy="-352.7214" rx="98.1842" ry="26"/>
<text text-anchor="middle" x="2148" y="-349.0214" font-family="Times,serif" font-size="14.00" fill="#000000">is1functor_fun11</text>
</a>
</g>
</g>
<!-- FunctorCat_is1functor_fun11&#45;&gt;FunctorCat_Fun11 -->
<g id="edge31" class="edge">
<title>FunctorCat_is1functor_fun11&#45;&gt;FunctorCat_Fun11</title>
<path fill="none" stroke="#000000" d="M2166.6884,-327.1152C2201.4658,-279.4644 2275.7297,-177.7106 2310.4227,-130.1754"/>
<polygon fill="#000000" stroke="#000000" points="2313.3536,-132.0966 2316.4217,-121.9558 2307.6993,-127.9699 2313.3536,-132.0966"/>
</g>
<!-- FunctorCat_is0functor_fun11 -->
<g id="node16" class="node">
<title>FunctorCat_is0functor_fun11</title>
<g id="a_node16"><a xlink:href="FunctorCat.html#is0functor_fun11" xlink:title="is0functor_fun11">
<ellipse fill="#f070d1" stroke="#000000" cx="1933" cy="-352.7214" rx="90.1971" ry="18"/>
<ellipse fill="none" stroke="#000000" cx="1933" cy="-352.7214" rx="94.1906" ry="22"/>
<ellipse fill="none" stroke="#000000" cx="1933" cy="-352.7214" rx="98.1842" ry="26"/>
<text text-anchor="middle" x="1933" y="-349.0214" font-family="Times,serif" font-size="14.00" fill="#000000">is0functor_fun11</text>
</a>
</g>
</g>
<!-- FunctorCat_is0functor_fun11&#45;&gt;FunctorCat_Fun11 -->
<g id="edge32" class="edge">
<title>FunctorCat_is0functor_fun11&#45;&gt;FunctorCat_Fun11</title>
<path fill="none" stroke="#000000" d="M1971.33,-328.7168C2049.1373,-279.989 2224.3499,-170.2599 2296.7534,-124.9163"/>
<polygon fill="#000000" stroke="#000000" points="2298.8461,-127.7355 2305.4636,-119.4614 2295.1307,-121.8029 2298.8461,-127.7355"/>
</g>
<!-- FunctorCat_fun11_fun -->
<g id="node17" class="node">
<title>FunctorCat_fun11_fun</title>
<g id="a_node17"><a xlink:href="FunctorCat.html#fun11_fun" xlink:title="fun11_fun">
<ellipse fill="#f070d1" stroke="#000000" cx="1751" cy="-352.7214" rx="57.7089" ry="18"/>
<ellipse fill="none" stroke="#000000" cx="1751" cy="-352.7214" rx="61.6995" ry="22"/>
<ellipse fill="none" stroke="#000000" cx="1751" cy="-352.7214" rx="65.6901" ry="26"/>
<text text-anchor="middle" x="1751" y="-349.0214" font-family="Times,serif" font-size="14.00" fill="#000000">fun11_fun</text>
</a>
</g>
</g>
<!-- FunctorCat_fun11_fun&#45;&gt;FunctorCat_Fun11 -->
<g id="edge33" class="edge">
<title>FunctorCat_fun11_fun&#45;&gt;FunctorCat_Fun11</title>
<path fill="none" stroke="#000000" d="M1795.8737,-333.4677C1905.8495,-286.2808 2187.3292,-165.5075 2290.4181,-121.2756"/>
<polygon fill="#000000" stroke="#000000" points="2292.0161,-124.3986 2299.8258,-117.2391 2289.2559,-117.9657 2292.0161,-124.3986"/>
</g>
<!-- FunctorCat_Fun11_sind -->
<g id="node18" class="node">
<title>FunctorCat_Fun11_sind</title>
<g id="a_node18"><a xlink:href="FunctorCat.html#Fun11_sind" xlink:title="Fun11_sind">
<ellipse fill="#f070d1" stroke="#000000" cx="2484" cy="-352.7214" rx="64.9891" ry="18"/>
<ellipse fill="none" stroke="#000000" cx="2484" cy="-352.7214" rx="68.9888" ry="22"/>
<ellipse fill="none" stroke="#000000" cx="2484" cy="-352.7214" rx="72.9885" ry="26"/>
<text text-anchor="middle" x="2484" y="-349.0214" font-family="Times,serif" font-size="14.00" fill="#000000">Fun11_sind</text>
</a>
</g>
</g>
<!-- FunctorCat_Fun11_sind&#45;&gt;FunctorCat_Build_Fun11 -->
<g id="edge34" class="edge">
<title>FunctorCat_Fun11_sind&#45;&gt;FunctorCat_Build_Fun11</title>
<path fill="none" stroke="#000000" d="M2507.2923,-328.0356C2551.9702,-280.6847 2649.2593,-177.5748 2694.2747,-129.8662"/>
<polygon fill="#000000" stroke="#000000" points="2696.9715,-132.108 2701.2886,-122.4326 2691.8801,-127.304 2696.9715,-132.108"/>
</g>
<!-- FunctorCat_Fun11_sind&#45;&gt;FunctorCat_Fun11 -->
<g id="edge35" class="edge">
<title>FunctorCat_Fun11_sind&#45;&gt;FunctorCat_Fun11</title>
<path fill="none" stroke="#000000" d="M2467.9961,-327.1152C2438.3488,-279.6795 2375.1918,-178.6283 2345.3132,-130.8225"/>
<polygon fill="#000000" stroke="#000000" points="2348.2368,-128.8965 2339.9688,-122.2715 2342.3008,-132.6065 2348.2368,-128.8965"/>
</g>
<!-- FunctorCat_Fun11_rec -->
<g id="node19" class="node">
<title>FunctorCat_Fun11_rec</title>
<g id="a_node19"><a xlink:href="FunctorCat.html#Fun11_rec" xlink:title="Fun11_rec">
<ellipse fill="#f070d1" stroke="#000000" cx="2329" cy="-623.7214" rx="60.3958" ry="18"/>
<ellipse fill="none" stroke="#000000" cx="2329" cy="-623.7214" rx="64.3926" ry="22"/>
<ellipse fill="none" stroke="#000000" cx="2329" cy="-623.7214" rx="68.3893" ry="26"/>
<text text-anchor="middle" x="2329" y="-620.0214" font-family="Times,serif" font-size="14.00" fill="#000000">Fun11_rec</text>
</a>
</g>
</g>
<!-- FunctorCat_Fun11_rect -->
<g id="node21" class="node">
<title>FunctorCat_Fun11_rect</title>
<g id="a_node21"><a xlink:href="FunctorCat.html#Fun11_rect" xlink:title="Fun11_rect">
<ellipse fill="#f070d1" stroke="#000000" cx="2329" cy="-352.7214" rx="64.189" ry="18"/>
<text text-anchor="middle" x="2329" y="-349.0214" font-family="Times,serif" font-size="14.00" fill="#000000">Fun11_rect</text>
</a>
</g>
</g>
<!-- FunctorCat_Fun11_rec&#45;&gt;FunctorCat_Fun11_rect -->
<g id="edge36" class="edge">
<title>FunctorCat_Fun11_rec&#45;&gt;FunctorCat_Fun11_rect</title>
<path fill="none" stroke="#000000" d="M2329,-597.2434C2329,-546.0151 2329,-433.7545 2329,-381.075"/>
<polygon fill="#000000" stroke="#000000" points="2332.5001,-380.7814 2329,-370.7815 2325.5001,-380.7815 2332.5001,-380.7814"/>
</g>
<!-- FunctorCat_Fun11_ind -->
<g id="node20" class="node">
<title>FunctorCat_Fun11_ind</title>
<g id="a_node20"><a xlink:href="FunctorCat.html#Fun11_ind" xlink:title="Fun11_ind">
<ellipse fill="#7fffd4" stroke="#000000" cx="2980" cy="-352.7214" rx="59.6142" ry="18"/>
<ellipse fill="none" stroke="#000000" cx="2980" cy="-352.7214" rx="63.6021" ry="22"/>
<ellipse fill="none" stroke="#000000" cx="2980" cy="-352.7214" rx="67.59" ry="26"/>
<text text-anchor="middle" x="2980" y="-349.0214" font-family="Times,serif" font-size="14.00" fill="#000000">Fun11_ind</text>
</a>
</g>
</g>
<!-- FunctorCat_Fun11_ind&#45;&gt;FunctorCat_Build_Fun11 -->
<g id="edge37" class="edge">
<title>FunctorCat_Fun11_ind&#45;&gt;FunctorCat_Build_Fun11</title>
<path fill="none" stroke="#000000" d="M2954.4013,-328.4906C2904.4121,-281.1726 2794.311,-176.9547 2744.0011,-129.3331"/>
<polygon fill="#000000" stroke="#000000" points="2746.1269,-126.526 2736.4584,-122.1935 2741.3148,-131.6098 2746.1269,-126.526"/>
</g>
<!-- FunctorCat_Fun11_ind&#45;&gt;FunctorCat_Fun11 -->
<g id="edge38" class="edge">
<title>FunctorCat_Fun11_ind&#45;&gt;FunctorCat_Fun11</title>
<path fill="none" stroke="#000000" d="M2931.866,-334.3847C2808.6767,-287.4554 2483.6649,-163.6414 2369.415,-120.1176"/>
<polygon fill="#000000" stroke="#000000" points="2370.5635,-116.8099 2359.9726,-116.5205 2368.0715,-123.3513 2370.5635,-116.8099"/>
</g>
<!-- FunctorCat_Fun11_rect&#45;&gt;FunctorCat_Build_Fun11 -->
<g id="edge39" class="edge">
<title>FunctorCat_Fun11_rect&#45;&gt;FunctorCat_Build_Fun11</title>
<path fill="none" stroke="#000000" d="M2355.1274,-336.0644C2423.1425,-292.7025 2605.7498,-176.2846 2682.8643,-127.1216"/>
<polygon fill="#000000" stroke="#000000" points="2685.1801,-129.796 2691.7307,-121.469 2681.417,-123.8935 2685.1801,-129.796"/>
</g>
<!-- FunctorCat_Fun11_rect&#45;&gt;FunctorCat_Fun11 -->
<g id="edge40" class="edge">
<title>FunctorCat_Fun11_rect&#45;&gt;FunctorCat_Fun11</title>
<path fill="none" stroke="#000000" d="M2329,-334.4854C2329,-291.6682 2329,-184.4538 2329,-133.0604"/>
<polygon fill="#000000" stroke="#000000" points="2332.5001,-132.9842 2329,-122.9842 2325.5001,-132.9842 2332.5001,-132.9842"/>
</g>
<!-- FunctorCat_hasequivs_fun01&#45;&gt;FunctorCat_is1cat_fun01 -->
<g id="edge41" class="edge">
<title>FunctorCat_hasequivs_fun01&#45;&gt;FunctorCat_is1cat_fun01</title>
<path fill="none" stroke="#000000" d="M533.491,-1075.5543C534.5352,-1036.919 536.9828,-946.3567 538.2341,-900.0599"/>
<polygon fill="#000000" stroke="#000000" points="541.7391,-899.9193 538.5106,-889.8283 534.7416,-899.7301 541.7391,-899.9193"/>
</g>
<!-- FunctorCat_is1cat_fun01&#45;&gt;FunctorCat_is2graph_fun01 -->
<g id="edge42" class="edge">
<title>FunctorCat_is1cat_fun01&#45;&gt;FunctorCat_is2graph_fun01</title>
<path fill="none" stroke="#000000" d="M541.1324,-853.4854C546.1393,-810.6682 558.6765,-703.4538 564.6862,-652.0604"/>
<polygon fill="#000000" stroke="#000000" points="568.1792,-652.3231 565.8644,-641.9842 561.2266,-651.51 568.1792,-652.3231"/>
</g>
<!-- FunctorCat_is1cat_fun01&#45;&gt;FunctorCat_is01cat_fun01 -->
<g id="edge43" class="edge">
<title>FunctorCat_is1cat_fun01&#45;&gt;FunctorCat_is01cat_fun01</title>
<path fill="none" stroke="#000000" d="M528.2843,-853.8859C502.4663,-810.9137 436.698,-701.447 406.1044,-650.5261"/>
<polygon fill="#000000" stroke="#000000" points="408.9691,-648.498 400.8188,-641.7286 402.9687,-652.103 408.9691,-648.498"/>
</g>
<!-- FunctorCat_is2graph_fun01&#45;&gt;FunctorCat_isgraph_fun01 -->
<g id="edge44" class="edge">
<title>FunctorCat_is2graph_fun01&#45;&gt;FunctorCat_isgraph_fun01</title>
<path fill="none" stroke="#000000" d="M589.6573,-606.1492C647.6034,-559.1331 806.2702,-430.3944 872.4261,-376.717"/>
<polygon fill="#000000" stroke="#000000" points="874.8316,-379.2725 880.3918,-370.2539 870.4211,-373.8367 874.8316,-379.2725"/>
</g>
<!-- FunctorCat_is2graph_fun01&#45;&gt;FunctorCat_Build_Fun01 -->
<g id="edge45" class="edge">
<title>FunctorCat_is2graph_fun01&#45;&gt;FunctorCat_Build_Fun01</title>
<path fill="none" stroke="#000000" d="M520.7437,-608.7235C402.9689,-570.2911 101.9077,-465.2175 47,-378.7214 -39.4091,-242.6012 236.2776,-152.7908 364.3038,-119.3489"/>
<polygon fill="#000000" stroke="#000000" points="365.19,-122.7349 374.0002,-116.8501 363.4431,-115.9564 365.19,-122.7349"/>
</g>
<!-- FunctorCat_is01cat_fun01&#45;&gt;FunctorCat_isgraph_fun01 -->
<g id="edge46" class="edge">
<title>FunctorCat_is01cat_fun01&#45;&gt;FunctorCat_isgraph_fun01</title>
<path fill="none" stroke="#000000" d="M421.2572,-607.1771C509.9112,-560.2528 762.9269,-426.3324 861.7554,-374.0228"/>
<polygon fill="#000000" stroke="#000000" points="863.6264,-376.9926 870.8274,-369.221 860.3517,-370.8057 863.6264,-376.9926"/>
</g>
<!-- FunctorCat_is01cat_fun01&#45;&gt;FunctorCat_Build_Fun01 -->
<g id="edge47" class="edge">
<title>FunctorCat_is01cat_fun01&#45;&gt;FunctorCat_Build_Fun01</title>
<path fill="none" stroke="#000000" d="M341.8245,-609.6771C226.2451,-573.3589 -51.2207,-469.1343 32,-326.7214 103.7584,-203.9237 271.2454,-143.7534 363.0522,-119.0655"/>
<polygon fill="#000000" stroke="#000000" points="363.9977,-122.4359 372.7781,-116.5068 362.2166,-115.6663 363.9977,-122.4359"/>
</g>
<!-- FunctorCat_isgraph_fun01&#45;&gt;FunctorCat_Fun01 -->
<g id="edge48" class="edge">
<title>FunctorCat_isgraph_fun01&#45;&gt;FunctorCat_Fun01</title>
<path fill="none" stroke="#000000" d="M895.9703,-334.4854C881.7488,-291.474 846.0411,-183.4797 829.14,-132.3645"/>
<polygon fill="#000000" stroke="#000000" points="832.3903,-131.0454 825.9279,-122.6497 825.7442,-133.243 832.3903,-131.0454"/>
</g>
<!-- FunctorCat_issig_Fun01 -->
<g id="node29" class="node">
<title>FunctorCat_issig_Fun01</title>
<g id="a_node29"><a xlink:href="FunctorCat.html#issig_Fun01" xlink:title="issig_Fun01">
<ellipse fill="#f070d1" stroke="#000000" cx="578" cy="-352.7214" rx="66.8941" ry="18"/>
<ellipse fill="none" stroke="#000000" cx="578" cy="-352.7214" rx="70.8911" ry="22"/>
<ellipse fill="none" stroke="#000000" cx="578" cy="-352.7214" rx="74.8882" ry="26"/>
<text text-anchor="middle" x="578" y="-349.0214" font-family="Times,serif" font-size="14.00" fill="#000000">issig_Fun01</text>
</a>
</g>
</g>
<!-- FunctorCat_issig_Fun01&#45;&gt;FunctorCat_Build_Fun01 -->
<g id="edge49" class="edge">
<title>FunctorCat_issig_Fun01&#45;&gt;FunctorCat_Build_Fun01</title>
<path fill="none" stroke="#000000" d="M562.3058,-327.1152C533.3036,-279.7958 471.6011,-179.1233 442.2135,-131.175"/>
<polygon fill="#000000" stroke="#000000" points="445.1613,-129.2867 436.9515,-122.5897 439.1931,-132.9447 445.1613,-129.2867"/>
</g>
<!-- FunctorCat_issig_Fun01&#45;&gt;FunctorCat_Fun01 -->
<g id="edge50" class="edge">
<title>FunctorCat_issig_Fun01&#45;&gt;FunctorCat_Fun01</title>
<path fill="none" stroke="#000000" d="M602.0886,-328.0356C648.6337,-280.3365 750.3918,-176.0555 796.4817,-128.8228"/>
<polygon fill="#000000" stroke="#000000" points="799.1635,-131.086 803.6425,-121.4845 794.1535,-126.1972 799.1635,-131.086"/>
</g>
<!-- FunctorCat_fun01_is0functor -->
<g id="node30" class="node">
<title>FunctorCat_fun01_is0functor</title>
<g id="a_node30"><a xlink:href="FunctorCat.html#fun01_is0functor" xlink:title="fun01_is0functor">
<ellipse fill="#f070d1" stroke="#000000" cx="1281" cy="-352.7214" rx="90.1971" ry="18"/>
<ellipse fill="none" stroke="#000000" cx="1281" cy="-352.7214" rx="94.1906" ry="22"/>
<ellipse fill="none" stroke="#000000" cx="1281" cy="-352.7214" rx="98.1842" ry="26"/>
<text text-anchor="middle" x="1281" y="-349.0214" font-family="Times,serif" font-size="14.00" fill="#000000">fun01_is0functor</text>
</a>
</g>
</g>
<!-- FunctorCat_fun01_is0functor&#45;&gt;FunctorCat_Fun01 -->
<g id="edge51" class="edge">
<title>FunctorCat_fun01_is0functor&#45;&gt;FunctorCat_Fun01</title>
<path fill="none" stroke="#000000" d="M1237.2146,-329.1666C1146.1051,-280.1533 937.7281,-168.0546 854.891,-123.4914"/>
<polygon fill="#000000" stroke="#000000" points="856.3515,-120.3029 845.8868,-118.6475 853.0352,-126.4675 856.3515,-120.3029"/>
</g>
<!-- FunctorCat_fun01_F -->
<g id="node31" class="node">
<title>FunctorCat_fun01_F</title>
<g id="a_node31"><a xlink:href="FunctorCat.html#fun01_F" xlink:title="fun01_F">
<ellipse fill="#f070d1" stroke="#000000" cx="1454" cy="-352.7214" rx="48.9576" ry="18"/>
<ellipse fill="none" stroke="#000000" cx="1454" cy="-352.7214" rx="52.975" ry="22"/>
<ellipse fill="none" stroke="#000000" cx="1454" cy="-352.7214" rx="56.9924" ry="26"/>
<text text-anchor="middle" x="1454" y="-349.0214" font-family="Times,serif" font-size="14.00" fill="#000000">fun01_F</text>
</a>
</g>
</g>
<!-- FunctorCat_fun01_F&#45;&gt;FunctorCat_Fun01 -->
<g id="edge52" class="edge">
<title>FunctorCat_fun01_F&#45;&gt;FunctorCat_Fun01</title>
<path fill="none" stroke="#000000" d="M1410.694,-335.6423C1403.1308,-332.665 1395.3372,-329.6005 1388,-326.7214 1189.966,-249.0146 952.8901,-156.5291 860.0541,-120.3339"/>
<polygon fill="#000000" stroke="#000000" points="861.0778,-116.9764 850.4894,-116.605 858.5351,-123.4983 861.0778,-116.9764"/>
</g>
<!-- FunctorCat_Fun01_sind -->
<g id="node32" class="node">
<title>FunctorCat_Fun01_sind</title>
<g id="a_node32"><a xlink:href="FunctorCat.html#Fun01_sind" xlink:title="Fun01_sind">
<ellipse fill="#f070d1" stroke="#000000" cx="129" cy="-352.7214" rx="64.9891" ry="18"/>
<ellipse fill="none" stroke="#000000" cx="129" cy="-352.7214" rx="68.9888" ry="22"/>
<ellipse fill="none" stroke="#000000" cx="129" cy="-352.7214" rx="72.9885" ry="26"/>
<text text-anchor="middle" x="129" y="-349.0214" font-family="Times,serif" font-size="14.00" fill="#000000">Fun01_sind</text>
</a>
</g>
</g>
<!-- FunctorCat_Fun01_sind&#45;&gt;FunctorCat_Build_Fun01 -->
<g id="edge53" class="edge">
<title>FunctorCat_Fun01_sind&#45;&gt;FunctorCat_Build_Fun01</title>
<path fill="none" stroke="#000000" d="M157.7475,-328.7168C214.6364,-281.2136 340.9534,-175.7368 397.5771,-128.455"/>
<polygon fill="#000000" stroke="#000000" points="399.9766,-131.0112 405.4092,-121.9151 395.49,-125.6381 399.9766,-131.0112"/>
</g>
<!-- FunctorCat_Fun01_sind&#45;&gt;FunctorCat_Fun01 -->
<g id="edge54" class="edge">
<title>FunctorCat_Fun01_sind&#45;&gt;FunctorCat_Fun01</title>
<path fill="none" stroke="#000000" d="M180.6547,-334.1826C312.4611,-286.8772 659.2808,-162.4036 778.8126,-119.5036"/>
<polygon fill="#000000" stroke="#000000" points="780.1151,-122.7548 788.3449,-116.0825 777.7504,-116.1663 780.1151,-122.7548"/>
</g>
<!-- FunctorCat_Fun01_rec -->
<g id="node33" class="node">
<title>FunctorCat_Fun01_rec</title>
<g id="a_node33"><a xlink:href="FunctorCat.html#Fun01_rec" xlink:title="Fun01_rec">
<ellipse fill="#f070d1" stroke="#000000" cx="738" cy="-623.7214" rx="60.3958" ry="18"/>
<ellipse fill="none" stroke="#000000" cx="738" cy="-623.7214" rx="64.3926" ry="22"/>
<ellipse fill="none" stroke="#000000" cx="738" cy="-623.7214" rx="68.3893" ry="26"/>
<text text-anchor="middle" x="738" y="-620.0214" font-family="Times,serif" font-size="14.00" fill="#000000">Fun01_rec</text>
</a>
</g>
</g>
<!-- FunctorCat_Fun01_rect -->
<g id="node35" class="node">
<title>FunctorCat_Fun01_rect</title>
<g id="a_node35"><a xlink:href="FunctorCat.html#Fun01_rect" xlink:title="Fun01_rect">
<ellipse fill="#f070d1" stroke="#000000" cx="284" cy="-352.7214" rx="64.189" ry="18"/>
<text text-anchor="middle" x="284" y="-349.0214" font-family="Times,serif" font-size="14.00" fill="#000000">Fun01_rect</text>
</a>
</g>
</g>
<!-- FunctorCat_Fun01_rec&#45;&gt;FunctorCat_Fun01_rect -->
<g id="edge55" class="edge">
<title>FunctorCat_Fun01_rec&#45;&gt;FunctorCat_Fun01_rect</title>
<path fill="none" stroke="#000000" d="M701.2318,-601.7739C615.8917,-550.833 405.1953,-425.0649 320.3079,-374.3942"/>
<polygon fill="#000000" stroke="#000000" points="321.9225,-371.2819 311.542,-369.1617 318.3346,-377.2925 321.9225,-371.2819"/>
</g>
<!-- FunctorCat_Fun01_ind -->
<g id="node34" class="node">
<title>FunctorCat_Fun01_ind</title>
<g id="a_node34"><a xlink:href="FunctorCat.html#Fun01_ind" xlink:title="Fun01_ind">
<ellipse fill="#7fffd4" stroke="#000000" cx="739" cy="-352.7214" rx="59.6142" ry="18"/>
<ellipse fill="none" stroke="#000000" cx="739" cy="-352.7214" rx="63.6021" ry="22"/>
<ellipse fill="none" stroke="#000000" cx="739" cy="-352.7214" rx="67.59" ry="26"/>
<text text-anchor="middle" x="739" y="-349.0214" font-family="Times,serif" font-size="14.00" fill="#000000">Fun01_ind</text>
</a>
</g>
</g>
<!-- FunctorCat_Fun01_ind&#45;&gt;FunctorCat_Build_Fun01 -->
<g id="edge56" class="edge">
<title>FunctorCat_Fun01_ind&#45;&gt;FunctorCat_Build_Fun01</title>
<path fill="none" stroke="#000000" d="M709.2715,-329.1666C649.517,-281.8212 515.4694,-175.6109 455.721,-128.2704"/>
<polygon fill="#000000" stroke="#000000" points="457.8104,-125.4604 447.7988,-121.9934 453.4632,-130.9469 457.8104,-125.4604"/>
</g>
<!-- FunctorCat_Fun01_ind&#45;&gt;FunctorCat_Fun01 -->
<g id="edge57" class="edge">
<title>FunctorCat_Fun01_ind&#45;&gt;FunctorCat_Fun01</title>
<path fill="none" stroke="#000000" d="M747.5153,-326.6498C762.8789,-279.6106 795.1023,-180.9513 810.8898,-132.6144"/>
<polygon fill="#000000" stroke="#000000" points="814.3087,-133.4197 814.0864,-122.8272 807.6546,-131.2464 814.3087,-133.4197"/>
</g>
<!-- FunctorCat_Fun01_rect&#45;&gt;FunctorCat_Build_Fun01 -->
<g id="edge58" class="edge">
<title>FunctorCat_Fun01_rect&#45;&gt;FunctorCat_Build_Fun01</title>
<path fill="none" stroke="#000000" d="M294.2123,-334.8859C318.8173,-291.9137 381.4958,-182.447 410.6522,-131.5261"/>
<polygon fill="#000000" stroke="#000000" points="413.7578,-133.1459 415.6894,-122.7286 407.6831,-129.6676 413.7578,-133.1459"/>
</g>
<!-- FunctorCat_Fun01_rect&#45;&gt;FunctorCat_Fun01 -->
<g id="edge59" class="edge">
<title>FunctorCat_Fun01_rect&#45;&gt;FunctorCat_Fun01</title>
<path fill="none" stroke="#000000" d="M317.5292,-337.2079C412.5556,-293.2405 683.1946,-168.0195 782.7007,-121.9793"/>
<polygon fill="#000000" stroke="#000000" points="784.1785,-125.1521 791.7844,-117.7764 781.239,-118.7992 784.1785,-125.1521"/>
</g>
</g>
</svg>
