<?xml version="1.0" encoding="UTF-8" standalone="no"?>
<!DOCTYPE svg PUBLIC "-//W3C//DTD SVG 1.1//EN"
 "http://www.w3.org/Graphics/SVG/1.1/DTD/svg11.dtd">
<!-- Generated by graphviz version 2.40.1 (20161225.0304)
 -->
<!-- Title: HoTT_Spaces_Torus_TorusEquivCircles Pages: 1 -->
<svg width="798pt" height="403pt"
 viewBox="0.00 0.00 798.00 403.00" xmlns="http://www.w3.org/2000/svg" xmlns:xlink="http://www.w3.org/1999/xlink">
<g id="graph0" class="graph" transform="scale(1 1) rotate(0) translate(4 399)">
<title>HoTT_Spaces_Torus_TorusEquivCircles</title>
<polygon fill="#ffffff" stroke="transparent" points="-4,4 -4,-399 794,-399 794,4 -4,4"/>
<g id="clust1" class="cluster">
<title>cluster_TorusEquivCircles</title>
<polygon fill="#ffffc3" stroke="#000000" points="12.5397,-8 12.5397,-387 777.4603,-387 777.4603,-8 12.5397,-8"/>
<text text-anchor="middle" x="87.0397" y="-371.8" font-family="Times,serif" font-size="14.00" fill="#000000">TorusEquivCircles</text>
</g>
<!-- TorusEquivCircles_equiv_torus_prod_Circle -->
<g id="node1" class="node">
<title>TorusEquivCircles_equiv_torus_prod_Circle</title>
<g id="a_node1"><a xlink:href="TorusEquivCircles.html#equiv_torus_prod_Circle" xlink:title="equiv_torus_prod_Circle">
<ellipse fill="#f070d1" stroke="#000000" cx="512.1468" cy="-330" rx="124.5909" ry="18"/>
<ellipse fill="none" stroke="#000000" cx="512.1468" cy="-330" rx="128.5845" ry="22"/>
<ellipse fill="none" stroke="#000000" cx="512.1468" cy="-330" rx="132.5782" ry="26"/>
<text text-anchor="middle" x="512.1468" y="-326.3" font-family="Times,serif" font-size="14.00" fill="#000000">equiv_torus_prod_Circle</text>
</a>
</g>
</g>
<!-- TorusEquivCircles_c2t2c -->
<g id="node2" class="node">
<title>TorusEquivCircles_c2t2c</title>
<g id="a_node2"><a xlink:href="TorusEquivCircles.html#c2t2c" xlink:title="c2t2c">
<ellipse fill="#f070d1" stroke="#000000" cx="467.1468" cy="-250" rx="37.0935" ry="18"/>
<text text-anchor="middle" x="467.1468" y="-246.3" font-family="Times,serif" font-size="14.00" fill="#000000">c2t2c</text>
</a>
</g>
</g>
<!-- TorusEquivCircles_equiv_torus_prod_Circle&#45;&gt;TorusEquivCircles_c2t2c -->
<g id="edge1" class="edge">
<title>TorusEquivCircles_equiv_torus_prod_Circle&#45;&gt;TorusEquivCircles_c2t2c</title>
<path fill="none" stroke="#000000" d="M497.4121,-303.805C492.4658,-295.0116 486.9489,-285.2036 481.994,-276.395"/>
<polygon fill="#000000" stroke="#000000" points="485.0346,-274.6614 477.0815,-267.6616 478.9336,-278.0933 485.0346,-274.6614"/>
</g>
<!-- TorusEquivCircles_t2c2t -->
<g id="node4" class="node">
<title>TorusEquivCircles_t2c2t</title>
<g id="a_node4"><a xlink:href="TorusEquivCircles.html#t2c2t" xlink:title="t2c2t">
<ellipse fill="#f070d1" stroke="#000000" cx="610.1468" cy="-250" rx="35.9954" ry="18"/>
<text text-anchor="middle" x="610.1468" y="-246.3" font-family="Times,serif" font-size="14.00" fill="#000000">t2c2t</text>
</a>
</g>
</g>
<!-- TorusEquivCircles_equiv_torus_prod_Circle&#45;&gt;TorusEquivCircles_t2c2t -->
<g id="edge2" class="edge">
<title>TorusEquivCircles_equiv_torus_prod_Circle&#45;&gt;TorusEquivCircles_t2c2t</title>
<path fill="none" stroke="#000000" d="M543.1546,-304.6875C556.1266,-294.0981 571.0522,-281.914 583.5181,-271.7378"/>
<polygon fill="#000000" stroke="#000000" points="585.7761,-274.4126 591.3094,-265.3775 581.3495,-268.9899 585.7761,-274.4126"/>
</g>
<!-- TorusEquivCircles_sq_ap011_compose -->
<g id="node3" class="node">
<title>TorusEquivCircles_sq_ap011_compose</title>
<g id="a_node3"><a xlink:href="TorusEquivCircles.html#sq_ap011_compose" xlink:title="sq_ap011_compose">
<ellipse fill="#f070d1" stroke="#000000" cx="183.1468" cy="-178" rx="100.9827" ry="18"/>
<text text-anchor="middle" x="183.1468" y="-174.3" font-family="Times,serif" font-size="14.00" fill="#000000">sq_ap011_compose</text>
</a>
</g>
</g>
<!-- TorusEquivCircles_c2t2c&#45;&gt;TorusEquivCircles_sq_ap011_compose -->
<g id="edge3" class="edge">
<title>TorusEquivCircles_c2t2c&#45;&gt;TorusEquivCircles_sq_ap011_compose</title>
<path fill="none" stroke="#000000" d="M434.291,-241.6703C389.7086,-230.3678 308.9824,-209.902 251.0773,-195.2218"/>
<polygon fill="#000000" stroke="#000000" points="251.8217,-191.7999 241.2682,-192.735 250.1014,-198.5852 251.8217,-191.7999"/>
</g>
<!-- TorusEquivCircles_c2t__beta -->
<g id="node5" class="node">
<title>TorusEquivCircles_c2t__beta</title>
<g id="a_node5"><a xlink:href="TorusEquivCircles.html#c2t'_beta" xlink:title="c2t&#39;_beta">
<ellipse fill="#f070d1" stroke="#000000" cx="454.1468" cy="-178" rx="53.8905" ry="18"/>
<text text-anchor="middle" x="454.1468" y="-174.3" font-family="Times,serif" font-size="14.00" fill="#000000">c2t&#39;_beta</text>
</a>
</g>
</g>
<!-- TorusEquivCircles_c2t2c&#45;&gt;TorusEquivCircles_c2t__beta -->
<g id="edge4" class="edge">
<title>TorusEquivCircles_c2t2c&#45;&gt;TorusEquivCircles_c2t__beta</title>
<path fill="none" stroke="#000000" d="M463.8664,-231.8314C462.476,-224.131 460.8227,-214.9743 459.2776,-206.4166"/>
<polygon fill="#000000" stroke="#000000" points="462.6927,-205.6322 457.4714,-196.4133 455.804,-206.8761 462.6927,-205.6322"/>
</g>
<!-- TorusEquivCircles_c2t -->
<g id="node6" class="node">
<title>TorusEquivCircles_c2t</title>
<g id="a_node6"><a xlink:href="TorusEquivCircles.html#c2t" xlink:title="c2t">
<ellipse fill="#f070d1" stroke="#000000" cx="610.1468" cy="-178" rx="27" ry="18"/>
<text text-anchor="middle" x="610.1468" y="-174.3" font-family="Times,serif" font-size="14.00" fill="#000000">c2t</text>
</a>
</g>
</g>
<!-- TorusEquivCircles_c2t2c&#45;&gt;TorusEquivCircles_c2t -->
<g id="edge5" class="edge">
<title>TorusEquivCircles_c2t2c&#45;&gt;TorusEquivCircles_c2t</title>
<path fill="none" stroke="#000000" d="M493.043,-236.9613C517.2718,-224.7623 553.4911,-206.526 579.2257,-193.5687"/>
<polygon fill="#000000" stroke="#000000" points="580.8331,-196.678 588.1909,-189.0547 577.6851,-190.4258 580.8331,-196.678"/>
</g>
<!-- TorusEquivCircles_t2c -->
<g id="node8" class="node">
<title>TorusEquivCircles_t2c</title>
<g id="a_node8"><a xlink:href="TorusEquivCircles.html#t2c" xlink:title="t2c">
<ellipse fill="#f070d1" stroke="#000000" cx="722.1468" cy="-178" rx="27" ry="18"/>
<text text-anchor="middle" x="722.1468" y="-174.3" font-family="Times,serif" font-size="14.00" fill="#000000">t2c</text>
</a>
</g>
</g>
<!-- TorusEquivCircles_c2t2c&#45;&gt;TorusEquivCircles_t2c -->
<g id="edge6" class="edge">
<title>TorusEquivCircles_c2t2c&#45;&gt;TorusEquivCircles_t2c</title>
<path fill="none" stroke="#000000" d="M499.1846,-240.9541C547.2397,-227.3856 637.6284,-201.864 687.2843,-187.8435"/>
<polygon fill="#000000" stroke="#000000" points="688.2674,-191.2029 696.9401,-185.1172 686.3652,-184.4663 688.2674,-191.2029"/>
</g>
<!-- TorusEquivCircles_t2c2t&#45;&gt;TorusEquivCircles_c2t__beta -->
<g id="edge7" class="edge">
<title>TorusEquivCircles_t2c2t&#45;&gt;TorusEquivCircles_c2t__beta</title>
<path fill="none" stroke="#000000" d="M583.6836,-237.7862C559.3945,-226.5758 523.0371,-209.7955 495.0173,-196.8633"/>
<polygon fill="#000000" stroke="#000000" points="496.4104,-193.6515 485.8641,-192.6387 493.477,-200.0072 496.4104,-193.6515"/>
</g>
<!-- TorusEquivCircles_t2c2t&#45;&gt;TorusEquivCircles_c2t -->
<g id="edge8" class="edge">
<title>TorusEquivCircles_t2c2t&#45;&gt;TorusEquivCircles_c2t</title>
<path fill="none" stroke="#000000" d="M610.1468,-231.8314C610.1468,-224.131 610.1468,-214.9743 610.1468,-206.4166"/>
<polygon fill="#000000" stroke="#000000" points="613.6469,-206.4132 610.1468,-196.4133 606.6469,-206.4133 613.6469,-206.4132"/>
</g>
<!-- TorusEquivCircles_t2c2t&#45;&gt;TorusEquivCircles_t2c -->
<g id="edge9" class="edge">
<title>TorusEquivCircles_t2c2t&#45;&gt;TorusEquivCircles_t2c</title>
<path fill="none" stroke="#000000" d="M632.2744,-235.7751C649.9956,-224.383 674.9655,-208.3308 694.0897,-196.0368"/>
<polygon fill="#000000" stroke="#000000" points="696.1648,-198.8636 702.6839,-190.5119 692.3794,-192.9754 696.1648,-198.8636"/>
</g>
<!-- TorusEquivCircles_c2t_ -->
<g id="node7" class="node">
<title>TorusEquivCircles_c2t_</title>
<g id="a_node7"><a xlink:href="TorusEquivCircles.html#c2t'" xlink:title="c2t&#39;">
<ellipse fill="#f070d1" stroke="#000000" cx="522.1468" cy="-106" rx="28.6953" ry="18"/>
<text text-anchor="middle" x="522.1468" y="-102.3" font-family="Times,serif" font-size="14.00" fill="#000000">c2t&#39;</text>
</a>
</g>
</g>
<!-- TorusEquivCircles_c2t__beta&#45;&gt;TorusEquivCircles_c2t_ -->
<g id="edge10" class="edge">
<title>TorusEquivCircles_c2t__beta&#45;&gt;TorusEquivCircles_c2t_</title>
<path fill="none" stroke="#000000" d="M470.6077,-160.5708C479.5032,-151.1521 490.6044,-139.3978 500.2235,-129.213"/>
<polygon fill="#000000" stroke="#000000" points="502.9075,-131.4685 507.2292,-121.7951 497.8184,-126.6621 502.9075,-131.4685"/>
</g>
<!-- TorusEquivCircles_c2t&#45;&gt;TorusEquivCircles_c2t_ -->
<g id="edge11" class="edge">
<title>TorusEquivCircles_c2t&#45;&gt;TorusEquivCircles_c2t_</title>
<path fill="none" stroke="#000000" d="M592.7609,-163.7751C579.9481,-153.2919 562.3124,-138.8628 547.871,-127.0471"/>
<polygon fill="#000000" stroke="#000000" points="549.7538,-124.0653 539.7979,-120.4418 545.3211,-129.483 549.7538,-124.0653"/>
</g>
<!-- TorusEquivCircles_c2t_square_and_cube -->
<g id="node9" class="node">
<title>TorusEquivCircles_c2t_square_and_cube</title>
<g id="a_node9"><a xlink:href="TorusEquivCircles.html#c2t_square_and_cube" xlink:title="c2t_square_and_cube">
<ellipse fill="#f070d1" stroke="#000000" cx="522.1468" cy="-34" rx="111.5806" ry="18"/>
<text text-anchor="middle" x="522.1468" y="-30.3" font-family="Times,serif" font-size="14.00" fill="#000000">c2t_square_and_cube</text>
</a>
</g>
</g>
<!-- TorusEquivCircles_c2t_&#45;&gt;TorusEquivCircles_c2t_square_and_cube -->
<g id="edge12" class="edge">
<title>TorusEquivCircles_c2t_&#45;&gt;TorusEquivCircles_c2t_square_and_cube</title>
<path fill="none" stroke="#000000" d="M522.1468,-87.8314C522.1468,-80.131 522.1468,-70.9743 522.1468,-62.4166"/>
<polygon fill="#000000" stroke="#000000" points="525.6469,-62.4132 522.1468,-52.4133 518.6469,-62.4133 525.6469,-62.4132"/>
</g>
</g>
</svg>
