<?xml version="1.0" encoding="UTF-8" standalone="no"?>
<!DOCTYPE svg PUBLIC "-//W3C//DTD SVG 1.1//EN"
 "http://www.w3.org/Graphics/SVG/1.1/DTD/svg11.dtd">
<!-- Generated by graphviz version 2.40.1 (20161225.0304)
 -->
<!-- Title: HoTT_Constant Pages: 1 -->
<svg width="1297pt" height="653pt"
 viewBox="0.00 0.00 1297.00 652.50" xmlns="http://www.w3.org/2000/svg" xmlns:xlink="http://www.w3.org/1999/xlink">
<g id="graph0" class="graph" transform="scale(1 1) rotate(0) translate(4 648.5)">
<title>HoTT_Constant</title>
<polygon fill="#ffffff" stroke="transparent" points="-4,4 -4,-648.5 1293,-648.5 1293,4 -4,4"/>
<g id="clust1" class="cluster">
<title>cluster_Constant</title>
<polygon fill="#ffffc3" stroke="#000000" points="8,-8.2233 8,-636.2767 1281,-636.2767 1281,-8.2233 8,-8.2233"/>
<text text-anchor="middle" x="49" y="-621.0767" font-family="Times,serif" font-size="14.00" fill="#000000">Constant</text>
</g>
<!-- Constant_equiv_merely_rec_hset -->
<g id="node1" class="node">
<title>Constant_equiv_merely_rec_hset</title>
<g id="a_node1"><a xlink:href="Constant.html#equiv_merely_rec_hset" xlink:title="equiv_merely_rec_hset">
<ellipse fill="#f070d1" stroke="#000000" cx="1007" cy="-577.2233" rx="118.0927" ry="18"/>
<ellipse fill="none" stroke="#000000" cx="1007" cy="-577.2233" rx="122.086" ry="22"/>
<ellipse fill="none" stroke="#000000" cx="1007" cy="-577.2233" rx="126.0794" ry="26"/>
<text text-anchor="middle" x="1007" y="-573.5233" font-family="Times,serif" font-size="14.00" fill="#000000">equiv_merely_rec_hset</text>
</a>
</g>
</g>
<!-- Constant_merely_rec_hset -->
<g id="node3" class="node">
<title>Constant_merely_rec_hset</title>
<g id="a_node3"><a xlink:href="Constant.html#merely_rec_hset" xlink:title="merely_rec_hset">
<ellipse fill="#f070d1" stroke="#000000" cx="860" cy="-495.2233" rx="87.9851" ry="18"/>
<text text-anchor="middle" x="860" y="-491.5233" font-family="Times,serif" font-size="14.00" fill="#000000">merely_rec_hset</text>
</a>
</g>
</g>
<!-- Constant_equiv_merely_rec_hset&#45;&gt;Constant_merely_rec_hset -->
<g id="edge1" class="edge">
<title>Constant_equiv_merely_rec_hset&#45;&gt;Constant_merely_rec_hset</title>
<path fill="none" stroke="#000000" d="M962.8952,-552.6206C942.7451,-541.3804 919.066,-528.1716 899.5061,-517.2607"/>
<polygon fill="#000000" stroke="#000000" points="900.9916,-514.0816 890.5533,-512.2666 897.5814,-520.1949 900.9916,-514.0816"/>
</g>
<!-- Constant_merely_rec_hset_beta -->
<g id="node2" class="node">
<title>Constant_merely_rec_hset_beta</title>
<g id="a_node2"><a xlink:href="Constant.html#merely_rec_hset_beta" xlink:title="merely_rec_hset_beta">
<ellipse fill="#f070d1" stroke="#000000" cx="742" cy="-577.2233" rx="113.174" ry="18"/>
<ellipse fill="none" stroke="#000000" cx="742" cy="-577.2233" rx="117.177" ry="22"/>
<ellipse fill="none" stroke="#000000" cx="742" cy="-577.2233" rx="121.18" ry="26"/>
<text text-anchor="middle" x="742" y="-573.5233" font-family="Times,serif" font-size="14.00" fill="#000000">merely_rec_hset_beta</text>
</a>
</g>
</g>
<!-- Constant_merely_rec_hset_beta&#45;&gt;Constant_merely_rec_hset -->
<g id="edge2" class="edge">
<title>Constant_merely_rec_hset_beta&#45;&gt;Constant_merely_rec_hset</title>
<path fill="none" stroke="#000000" d="M778.0451,-552.175C793.4558,-541.4659 811.3419,-529.0365 826.4655,-518.5269"/>
<polygon fill="#000000" stroke="#000000" points="828.7967,-521.1691 835.0113,-512.5883 824.8021,-515.4207 828.7967,-521.1691"/>
</g>
<!-- Constant_cconst_wconst_hset -->
<g id="node4" class="node">
<title>Constant_cconst_wconst_hset</title>
<g id="a_node4"><a xlink:href="Constant.html#cconst_wconst_hset" xlink:title="cconst_wconst_hset">
<ellipse fill="#f070d1" stroke="#000000" cx="860" cy="-421.2233" rx="104.7816" ry="18"/>
<text text-anchor="middle" x="860" y="-417.5233" font-family="Times,serif" font-size="14.00" fill="#000000">cconst_wconst_hset</text>
</a>
</g>
</g>
<!-- Constant_merely_rec_hset&#45;&gt;Constant_cconst_wconst_hset -->
<g id="edge3" class="edge">
<title>Constant_merely_rec_hset&#45;&gt;Constant_cconst_wconst_hset</title>
<path fill="none" stroke="#000000" d="M860,-476.9311C860,-468.6868 860,-458.7609 860,-449.5855"/>
<polygon fill="#000000" stroke="#000000" points="863.5001,-449.305 860,-439.305 856.5001,-449.305 863.5001,-449.305"/>
</g>
<!-- Constant_cconst_factors_hprop -->
<g id="node7" class="node">
<title>Constant_cconst_factors_hprop</title>
<g id="a_node7"><a xlink:href="Constant.html#cconst_factors_hprop" xlink:title="cconst_factors_hprop">
<ellipse fill="#f070d1" stroke="#000000" cx="860" cy="-339.2233" rx="111.2805" ry="18"/>
<text text-anchor="middle" x="860" y="-335.5233" font-family="Times,serif" font-size="14.00" fill="#000000">cconst_factors_hprop</text>
</a>
</g>
</g>
<!-- Constant_cconst_wconst_hset&#45;&gt;Constant_cconst_factors_hprop -->
<g id="edge4" class="edge">
<title>Constant_cconst_wconst_hset&#45;&gt;Constant_cconst_factors_hprop</title>
<path fill="none" stroke="#000000" d="M860,-403.0248C860,-392.6209 860,-379.3448 860,-367.6"/>
<polygon fill="#000000" stroke="#000000" points="863.5001,-367.3708 860,-357.3709 856.5001,-367.3709 863.5001,-367.3708"/>
</g>
<!-- Constant_cconst_wconst_collapsible -->
<g id="node5" class="node">
<title>Constant_cconst_wconst_collapsible</title>
<g id="a_node5"><a xlink:href="Constant.html#cconst_wconst_collapsible" xlink:title="cconst_wconst_collapsible">
<ellipse fill="#f070d1" stroke="#000000" cx="1131" cy="-339.2233" rx="133.7826" ry="18"/>
<ellipse fill="none" stroke="#000000" cx="1131" cy="-339.2233" rx="137.7795" ry="22"/>
<ellipse fill="none" stroke="#000000" cx="1131" cy="-339.2233" rx="141.7763" ry="26"/>
<text text-anchor="middle" x="1131" y="-335.5233" font-family="Times,serif" font-size="14.00" fill="#000000">cconst_wconst_collapsible</text>
</a>
</g>
</g>
<!-- Constant_ConditionallyConstant -->
<g id="node10" class="node">
<title>Constant_ConditionallyConstant</title>
<g id="a_node10"><a xlink:href="Constant.html#ConditionallyConstant" xlink:title="ConditionallyConstant">
<ellipse fill="#f070d1" stroke="#000000" cx="614" cy="-257.2233" rx="115.0796" ry="18"/>
<text text-anchor="middle" x="614" y="-253.5233" font-family="Times,serif" font-size="14.00" fill="#000000">ConditionallyConstant</text>
</a>
</g>
</g>
<!-- Constant_cconst_wconst_collapsible&#45;&gt;Constant_ConditionallyConstant -->
<g id="edge5" class="edge">
<title>Constant_cconst_wconst_collapsible&#45;&gt;Constant_ConditionallyConstant</title>
<path fill="none" stroke="#000000" d="M1028.2925,-321.2733C1012.14,-318.527 995.6225,-315.7632 980,-313.2233 887.7398,-298.2235 782.2044,-282.1962 708.2411,-271.1481"/>
<polygon fill="#000000" stroke="#000000" points="708.4259,-267.637 698.0188,-269.6228 707.3928,-274.5604 708.4259,-267.637"/>
</g>
<!-- Constant_splitsupp_collapsible -->
<g id="node12" class="node">
<title>Constant_splitsupp_collapsible</title>
<g id="a_node12"><a xlink:href="Constant.html#splitsupp_collapsible" xlink:title="splitsupp_collapsible">
<ellipse fill="#f070d1" stroke="#000000" cx="1131" cy="-257.2233" rx="108.5808" ry="18"/>
<text text-anchor="middle" x="1131" y="-253.5233" font-family="Times,serif" font-size="14.00" fill="#000000">splitsupp_collapsible</text>
</a>
</g>
</g>
<!-- Constant_cconst_wconst_collapsible&#45;&gt;Constant_splitsupp_collapsible -->
<g id="edge6" class="edge">
<title>Constant_cconst_wconst_collapsible&#45;&gt;Constant_splitsupp_collapsible</title>
<path fill="none" stroke="#000000" d="M1131,-312.8266C1131,-304.1059 1131,-294.3712 1131,-285.5146"/>
<polygon fill="#000000" stroke="#000000" points="1134.5001,-285.274 1131,-275.274 1127.5001,-285.2741 1134.5001,-285.274"/>
</g>
<!-- Constant_cconst_factors_contr -->
<g id="node6" class="node">
<title>Constant_cconst_factors_contr</title>
<g id="a_node6"><a xlink:href="Constant.html#cconst_factors_contr" xlink:title="cconst_factors_contr">
<ellipse fill="#f070d1" stroke="#000000" cx="614" cy="-339.2233" rx="108.578" ry="18"/>
<ellipse fill="none" stroke="#000000" cx="614" cy="-339.2233" rx="112.5794" ry="22"/>
<ellipse fill="none" stroke="#000000" cx="614" cy="-339.2233" rx="116.5808" ry="26"/>
<text text-anchor="middle" x="614" y="-335.5233" font-family="Times,serif" font-size="14.00" fill="#000000">cconst_factors_contr</text>
</a>
</g>
</g>
<!-- Constant_cconst_factors_contr&#45;&gt;Constant_ConditionallyConstant -->
<g id="edge7" class="edge">
<title>Constant_cconst_factors_contr&#45;&gt;Constant_ConditionallyConstant</title>
<path fill="none" stroke="#000000" d="M614,-312.8266C614,-304.1059 614,-294.3712 614,-285.5146"/>
<polygon fill="#000000" stroke="#000000" points="617.5001,-285.274 614,-275.274 610.5001,-285.2741 617.5001,-285.274"/>
</g>
<!-- Constant_cconst_factors_hprop&#45;&gt;Constant_ConditionallyConstant -->
<g id="edge8" class="edge">
<title>Constant_cconst_factors_hprop&#45;&gt;Constant_ConditionallyConstant</title>
<path fill="none" stroke="#000000" d="M811.3983,-323.0227C771.5177,-309.7292 714.9225,-290.8641 672.5495,-276.7398"/>
<polygon fill="#000000" stroke="#000000" points="673.5148,-273.3723 662.9211,-273.5303 671.3011,-280.0131 673.5148,-273.3723"/>
</g>
<!-- Constant_equiv_cconst_from_merely -->
<g id="node8" class="node">
<title>Constant_equiv_cconst_from_merely</title>
<g id="a_node8"><a xlink:href="Constant.html#equiv_cconst_from_merely" xlink:title="equiv_cconst_from_merely">
<ellipse fill="#f070d1" stroke="#000000" cx="336" cy="-339.2233" rx="135.6851" ry="18"/>
<ellipse fill="none" stroke="#000000" cx="336" cy="-339.2233" rx="139.6806" ry="22"/>
<ellipse fill="none" stroke="#000000" cx="336" cy="-339.2233" rx="143.6761" ry="26"/>
<text text-anchor="middle" x="336" y="-335.5233" font-family="Times,serif" font-size="14.00" fill="#000000">equiv_cconst_from_merely</text>
</a>
</g>
</g>
<!-- Constant_equiv_cconst_from_merely&#45;&gt;Constant_ConditionallyConstant -->
<g id="edge9" class="edge">
<title>Constant_equiv_cconst_from_merely&#45;&gt;Constant_ConditionallyConstant</title>
<path fill="none" stroke="#000000" d="M411.2308,-317.0329C454.7002,-304.211 508.7928,-288.2556 550.1729,-276.05"/>
<polygon fill="#000000" stroke="#000000" points="551.2667,-279.3765 559.868,-273.1903 549.2863,-272.6625 551.2667,-279.3765"/>
</g>
<!-- Constant_cconst_const -->
<g id="node9" class="node">
<title>Constant_cconst_const</title>
<g id="a_node9"><a xlink:href="Constant.html#cconst_const" xlink:title="cconst_const">
<ellipse fill="#f070d1" stroke="#000000" cx="95" cy="-339.2233" rx="71.488" ry="18"/>
<ellipse fill="none" stroke="#000000" cx="95" cy="-339.2233" rx="75.4876" ry="22"/>
<ellipse fill="none" stroke="#000000" cx="95" cy="-339.2233" rx="79.4873" ry="26"/>
<text text-anchor="middle" x="95" y="-335.5233" font-family="Times,serif" font-size="14.00" fill="#000000">cconst_const</text>
</a>
</g>
</g>
<!-- Constant_cconst_const&#45;&gt;Constant_ConditionallyConstant -->
<g id="edge10" class="edge">
<title>Constant_cconst_const&#45;&gt;Constant_ConditionallyConstant</title>
<path fill="none" stroke="#000000" d="M151.9425,-320.9757C162.2091,-318.0939 172.8688,-315.3641 183,-313.2233 290.4079,-290.5272 414.9389,-275.5411 502.439,-266.8321"/>
<polygon fill="#000000" stroke="#000000" points="503.0457,-270.2894 512.6549,-265.827 502.3603,-263.323 503.0457,-270.2894"/>
</g>
<!-- Constant_collapsible_splitsupp -->
<g id="node11" class="node">
<title>Constant_collapsible_splitsupp</title>
<g id="a_node11"><a xlink:href="Constant.html#collapsible_splitsupp" xlink:title="collapsible_splitsupp">
<ellipse fill="#f070d1" stroke="#000000" cx="251" cy="-577.2233" rx="108.578" ry="18"/>
<ellipse fill="none" stroke="#000000" cx="251" cy="-577.2233" rx="112.5794" ry="22"/>
<ellipse fill="none" stroke="#000000" cx="251" cy="-577.2233" rx="116.5808" ry="26"/>
<text text-anchor="middle" x="251" y="-573.5233" font-family="Times,serif" font-size="14.00" fill="#000000">collapsible_splitsupp</text>
</a>
</g>
</g>
<!-- Constant_equiv_fix_merely -->
<g id="node13" class="node">
<title>Constant_equiv_fix_merely</title>
<g id="a_node13"><a xlink:href="Constant.html#equiv_fix_merely" xlink:title="equiv_fix_merely">
<ellipse fill="#f070d1" stroke="#000000" cx="1131" cy="-183.2233" rx="89.8845" ry="18"/>
<text text-anchor="middle" x="1131" y="-179.5233" font-family="Times,serif" font-size="14.00" fill="#000000">equiv_fix_merely</text>
</a>
</g>
</g>
<!-- Constant_splitsupp_collapsible&#45;&gt;Constant_equiv_fix_merely -->
<g id="edge11" class="edge">
<title>Constant_splitsupp_collapsible&#45;&gt;Constant_equiv_fix_merely</title>
<path fill="none" stroke="#000000" d="M1131,-238.9311C1131,-230.6868 1131,-220.7609 1131,-211.5855"/>
<polygon fill="#000000" stroke="#000000" points="1134.5001,-211.305 1131,-201.305 1127.5001,-211.305 1134.5001,-211.305"/>
</g>
<!-- Constant_ishprop_fix_wconst -->
<g id="node14" class="node">
<title>Constant_ishprop_fix_wconst</title>
<g id="a_node14"><a xlink:href="Constant.html#ishprop_fix_wconst" xlink:title="ishprop_fix_wconst">
<ellipse fill="#f070d1" stroke="#000000" cx="1131" cy="-109.2233" rx="100.9827" ry="18"/>
<text text-anchor="middle" x="1131" y="-105.5233" font-family="Times,serif" font-size="14.00" fill="#000000">ishprop_fix_wconst</text>
</a>
</g>
</g>
<!-- Constant_equiv_fix_merely&#45;&gt;Constant_ishprop_fix_wconst -->
<g id="edge12" class="edge">
<title>Constant_equiv_fix_merely&#45;&gt;Constant_ishprop_fix_wconst</title>
<path fill="none" stroke="#000000" d="M1131,-164.9311C1131,-156.6868 1131,-146.7609 1131,-137.5855"/>
<polygon fill="#000000" stroke="#000000" points="1134.5001,-137.305 1131,-127.305 1127.5001,-137.305 1134.5001,-137.305"/>
</g>
<!-- Constant_FixedBy -->
<g id="node15" class="node">
<title>Constant_FixedBy</title>
<g id="a_node15"><a xlink:href="Constant.html#FixedBy" xlink:title="FixedBy">
<ellipse fill="#f070d1" stroke="#000000" cx="1131" cy="-35.2233" rx="48.9926" ry="18"/>
<text text-anchor="middle" x="1131" y="-31.5233" font-family="Times,serif" font-size="14.00" fill="#000000">FixedBy</text>
</a>
</g>
</g>
<!-- Constant_ishprop_fix_wconst&#45;&gt;Constant_FixedBy -->
<g id="edge13" class="edge">
<title>Constant_ishprop_fix_wconst&#45;&gt;Constant_FixedBy</title>
<path fill="none" stroke="#000000" d="M1131,-90.9311C1131,-82.6868 1131,-72.7609 1131,-63.5855"/>
<polygon fill="#000000" stroke="#000000" points="1134.5001,-63.305 1131,-53.305 1127.5001,-63.305 1134.5001,-63.305"/>
</g>
</g>
</svg>
