<?xml version="1.0" encoding="UTF-8" standalone="no"?>
<!DOCTYPE svg PUBLIC "-//W3C//DTD SVG 1.1//EN"
 "http://www.w3.org/Graphics/SVG/1.1/DTD/svg11.dtd">
<!-- Generated by graphviz version 2.40.1 (20161225.0304)
 -->
<!-- Title: HoTT_Colimits_Colimit_Sigma Pages: 1 -->
<svg width="683pt" height="346pt"
 viewBox="0.00 0.00 683.00 345.50" xmlns="http://www.w3.org/2000/svg" xmlns:xlink="http://www.w3.org/1999/xlink">
<g id="graph0" class="graph" transform="scale(1 1) rotate(0) translate(4 341.5)">
<title>HoTT_Colimits_Colimit_Sigma</title>
<polygon fill="#ffffff" stroke="transparent" points="-4,4 -4,-341.5 679,-341.5 679,4 -4,4"/>
<g id="clust1" class="cluster">
<title>cluster_Colimit_Sigma</title>
<polygon fill="#ffffc3" stroke="#000000" points="8,-10.757 8,-326.743 667,-326.743 667,-10.757 8,-10.757"/>
<text text-anchor="middle" x="69" y="-311.543" font-family="Times,serif" font-size="14.00" fill="#000000">Colimit_Sigma</text>
</g>
<!-- Colimit_Sigma_sigma_diag_functor_equiv -->
<g id="node1" class="node">
<title>Colimit_Sigma_sigma_diag_functor_equiv</title>
<g id="a_node1"><a xlink:href="Colimit_Sigma.html#sigma_diag_functor_equiv" xlink:title="sigma_diag_functor_equiv">
<ellipse fill="#f070d1" stroke="#000000" cx="518" cy="-249.757" rx="132.6715" ry="18"/>
<ellipse fill="none" stroke="#000000" cx="518" cy="-249.757" rx="136.674" ry="22"/>
<ellipse fill="none" stroke="#000000" cx="518" cy="-249.757" rx="140.6765" ry="26"/>
<text text-anchor="middle" x="518" y="-246.057" font-family="Times,serif" font-size="14.00" fill="#000000">sigma_diag_functor_equiv</text>
</a>
</g>
</g>
<!-- Colimit_Sigma_sigma_diagram_functor -->
<g id="node2" class="node">
<title>Colimit_Sigma_sigma_diagram_functor</title>
<g id="a_node2"><a xlink:href="Colimit_Sigma.html#sigma_diagram_functor" xlink:title="sigma_diagram_functor">
<ellipse fill="#f070d1" stroke="#000000" cx="538" cy="-142.757" rx="120.7786" ry="18"/>
<text text-anchor="middle" x="538" y="-139.057" font-family="Times,serif" font-size="14.00" fill="#000000">sigma_diagram_functor</text>
</a>
</g>
</g>
<!-- Colimit_Sigma_sigma_diag_functor_equiv&#45;&gt;Colimit_Sigma_sigma_diagram_functor -->
<g id="edge1" class="edge">
<title>Colimit_Sigma_sigma_diag_functor_equiv&#45;&gt;Colimit_Sigma_sigma_diagram_functor</title>
<path fill="none" stroke="#000000" d="M522.8926,-223.5818C525.8713,-207.6456 529.6765,-187.2877 532.7227,-170.9904"/>
<polygon fill="#000000" stroke="#000000" points="536.2016,-171.4273 534.5986,-160.9545 529.3208,-170.1411 536.2016,-171.4273"/>
</g>
<!-- Colimit_Sigma_sigma_diagram -->
<g id="node6" class="node">
<title>Colimit_Sigma_sigma_diagram</title>
<g id="a_node6"><a xlink:href="Colimit_Sigma.html#sigma_diagram" xlink:title="sigma_diagram">
<ellipse fill="#f070d1" stroke="#000000" cx="293" cy="-45.757" rx="81.7856" ry="18"/>
<text text-anchor="middle" x="293" y="-42.057" font-family="Times,serif" font-size="14.00" fill="#000000">sigma_diagram</text>
</a>
</g>
</g>
<!-- Colimit_Sigma_sigma_diagram_functor&#45;&gt;Colimit_Sigma_sigma_diagram -->
<g id="edge2" class="edge">
<title>Colimit_Sigma_sigma_diagram_functor&#45;&gt;Colimit_Sigma_sigma_diagram</title>
<path fill="none" stroke="#000000" d="M495.3243,-125.8609C452.6638,-108.9708 387.1266,-83.0234 342.2765,-65.2664"/>
<polygon fill="#000000" stroke="#000000" points="343.3414,-61.9238 332.7551,-61.4968 340.7645,-68.4322 343.3414,-61.9238"/>
</g>
<!-- Colimit_Sigma_iscolimit_sigma -->
<g id="node3" class="node">
<title>Colimit_Sigma_iscolimit_sigma</title>
<g id="a_node3"><a xlink:href="Colimit_Sigma.html#iscolimit_sigma" xlink:title="iscolimit_sigma">
<ellipse fill="#f070d1" stroke="#000000" cx="188" cy="-249.757" rx="83.3687" ry="18"/>
<ellipse fill="none" stroke="#000000" cx="188" cy="-249.757" rx="87.3772" ry="22"/>
<ellipse fill="none" stroke="#000000" cx="188" cy="-249.757" rx="91.3856" ry="26"/>
<text text-anchor="middle" x="188" y="-246.057" font-family="Times,serif" font-size="14.00" fill="#000000">iscolimit_sigma</text>
</a>
</g>
</g>
<!-- Colimit_Sigma_sigma_cocone -->
<g id="node4" class="node">
<title>Colimit_Sigma_sigma_cocone</title>
<g id="a_node4"><a xlink:href="Colimit_Sigma.html#sigma_cocone" xlink:title="sigma_cocone">
<ellipse fill="#f070d1" stroke="#000000" cx="92" cy="-142.757" rx="76.0865" ry="18"/>
<text text-anchor="middle" x="92" y="-139.057" font-family="Times,serif" font-size="14.00" fill="#000000">sigma_cocone</text>
</a>
</g>
</g>
<!-- Colimit_Sigma_iscolimit_sigma&#45;&gt;Colimit_Sigma_sigma_cocone -->
<g id="edge3" class="edge">
<title>Colimit_Sigma_iscolimit_sigma&#45;&gt;Colimit_Sigma_sigma_cocone</title>
<path fill="none" stroke="#000000" d="M165.2493,-224.3995C150.0969,-207.5108 130.2516,-185.3916 115.04,-168.4369"/>
<polygon fill="#000000" stroke="#000000" points="117.2688,-165.6801 107.9855,-160.5742 112.0585,-170.3548 117.2688,-165.6801"/>
</g>
<!-- Colimit_Sigma_sigma_diagram_map -->
<g id="node5" class="node">
<title>Colimit_Sigma_sigma_diagram_map</title>
<g id="a_node5"><a xlink:href="Colimit_Sigma.html#sigma_diagram_map" xlink:title="sigma_diagram_map">
<ellipse fill="#f070d1" stroke="#000000" cx="293" cy="-142.757" rx="106.6812" ry="18"/>
<text text-anchor="middle" x="293" y="-139.057" font-family="Times,serif" font-size="14.00" fill="#000000">sigma_diagram_map</text>
</a>
</g>
</g>
<!-- Colimit_Sigma_iscolimit_sigma&#45;&gt;Colimit_Sigma_sigma_diagram_map -->
<g id="edge4" class="edge">
<title>Colimit_Sigma_iscolimit_sigma&#45;&gt;Colimit_Sigma_sigma_diagram_map</title>
<path fill="none" stroke="#000000" d="M212.6178,-224.6702C229.3333,-207.6363 251.3612,-185.1889 268.1298,-168.1008"/>
<polygon fill="#000000" stroke="#000000" points="270.9203,-170.2543 275.4263,-160.6654 265.9241,-165.3515 270.9203,-170.2543"/>
</g>
<!-- Colimit_Sigma_sigma_cocone&#45;&gt;Colimit_Sigma_sigma_diagram -->
<g id="edge5" class="edge">
<title>Colimit_Sigma_sigma_cocone&#45;&gt;Colimit_Sigma_sigma_diagram</title>
<path fill="none" stroke="#000000" d="M125.6429,-126.5214C159.7446,-110.0643 212.6421,-84.5367 249.819,-66.5955"/>
<polygon fill="#000000" stroke="#000000" points="251.4262,-69.7063 258.9111,-62.2078 248.3838,-63.402 251.4262,-69.7063"/>
</g>
<!-- Colimit_Sigma_sigma_diagram_map&#45;&gt;Colimit_Sigma_sigma_diagram -->
<g id="edge6" class="edge">
<title>Colimit_Sigma_sigma_diagram_map&#45;&gt;Colimit_Sigma_sigma_diagram</title>
<path fill="none" stroke="#000000" d="M293,-124.512C293,-110.2861 293,-90.278 293,-73.9891"/>
<polygon fill="#000000" stroke="#000000" points="296.5001,-73.9201 293,-63.9201 289.5001,-73.9202 296.5001,-73.9201"/>
</g>
</g>
</svg>
