<?xml version="1.0" encoding="UTF-8" standalone="no"?>
<!DOCTYPE svg PUBLIC "-//W3C//DTD SVG 1.1//EN"
 "http://www.w3.org/Graphics/SVG/1.1/DTD/svg11.dtd">
<!-- Generated by graphviz version 2.40.1 (20161225.0304)
 -->
<!-- Title: HoTT_Classes_orders_rings Pages: 1 -->
<svg width="3880pt" height="1944pt"
 viewBox="0.00 0.00 3880.00 1944.00" xmlns="http://www.w3.org/2000/svg" xmlns:xlink="http://www.w3.org/1999/xlink">
<g id="graph0" class="graph" transform="scale(1 1) rotate(0) translate(4 1940)">
<title>HoTT_Classes_orders_rings</title>
<polygon fill="#ffffff" stroke="transparent" points="-4,4 -4,-1940 3876,-1940 3876,4 -4,4"/>
<g id="clust1" class="cluster">
<title>cluster_rings</title>
<polygon fill="#ffffc3" stroke="#000000" points="8,-43.6282 8,-1892.3718 3864,-1892.3718 3864,-43.6282 8,-43.6282"/>
<text text-anchor="middle" x="34.5" y="-1877.1718" font-family="Times,serif" font-size="14.00" fill="#000000">rings</text>
</g>
<!-- rings_projected_full_pseudo_ring_order -->
<g id="node1" class="node">
<title>rings_projected_full_pseudo_ring_order</title>
<g id="a_node1"><a xlink:href="rings.html#projected_full_pseudo_ring_order" xlink:title="projected_full_pseudo_ring_order">
<ellipse fill="#f070d1" stroke="#000000" cx="2962" cy="-1581.6282" rx="167.0688" ry="18"/>
<ellipse fill="none" stroke="#000000" cx="2962" cy="-1581.6282" rx="171.0696" ry="22"/>
<ellipse fill="none" stroke="#000000" cx="2962" cy="-1581.6282" rx="175.0704" ry="26"/>
<text text-anchor="middle" x="2962" y="-1577.9282" font-family="Times,serif" font-size="14.00" fill="#000000">projected_full_pseudo_ring_order</text>
</a>
</g>
</g>
<!-- rings_projected_pseudo_ring_order -->
<g id="node2" class="node">
<title>rings_projected_pseudo_ring_order</title>
<g id="a_node2"><a xlink:href="rings.html#projected_pseudo_ring_order" xlink:title="projected_pseudo_ring_order">
<ellipse fill="#f070d1" stroke="#000000" cx="2962" cy="-1101.6282" rx="147.5738" ry="18"/>
<text text-anchor="middle" x="2962" y="-1097.9282" font-family="Times,serif" font-size="14.00" fill="#000000">projected_pseudo_ring_order</text>
</a>
</g>
</g>
<!-- rings_projected_full_pseudo_ring_order&#45;&gt;rings_projected_pseudo_ring_order -->
<g id="edge1" class="edge">
<title>rings_projected_full_pseudo_ring_order&#45;&gt;rings_projected_pseudo_ring_order</title>
<path fill="none" stroke="#000000" d="M2962,-1555.4804C2962,-1472.5563 2962,-1215.8749 2962,-1129.9683"/>
<polygon fill="#000000" stroke="#000000" points="2965.5001,-1129.9098 2962,-1119.9098 2958.5001,-1129.9098 2965.5001,-1129.9098"/>
</g>
<!-- rings_projected_strict_ring_order -->
<g id="node3" class="node">
<title>rings_projected_strict_ring_order</title>
<g id="a_node3"><a xlink:href="rings.html#projected_strict_ring_order" xlink:title="projected_strict_ring_order">
<ellipse fill="#f070d1" stroke="#000000" cx="3009" cy="-621.6282" rx="139.9756" ry="18"/>
<text text-anchor="middle" x="3009" y="-617.9282" font-family="Times,serif" font-size="14.00" fill="#000000">projected_strict_ring_order</text>
</a>
</g>
</g>
<!-- rings_projected_pseudo_ring_order&#45;&gt;rings_projected_strict_ring_order -->
<g id="edge2" class="edge">
<title>rings_projected_pseudo_ring_order&#45;&gt;rings_projected_strict_ring_order</title>
<path fill="none" stroke="#000000" d="M2963.7851,-1083.3977C2970.9319,-1010.409 2997.5137,-738.9353 3006.2198,-650.0219"/>
<polygon fill="#000000" stroke="#000000" points="3009.7219,-650.1703 3007.2132,-639.8768 3002.7552,-649.4881 3009.7219,-650.1703"/>
</g>
<!-- rings_from_pseudo_ring_order -->
<g id="node34" class="node">
<title>rings_from_pseudo_ring_order</title>
<g id="a_node34"><a xlink:href="rings.html#from_pseudo_ring_order" xlink:title="from_pseudo_ring_order">
<ellipse fill="#f070d1" stroke="#000000" cx="2328" cy="-621.6282" rx="124.5782" ry="18"/>
<text text-anchor="middle" x="2328" y="-617.9282" font-family="Times,serif" font-size="14.00" fill="#000000">from_pseudo_ring_order</text>
</a>
</g>
</g>
<!-- rings_projected_pseudo_ring_order&#45;&gt;rings_from_pseudo_ring_order -->
<g id="edge3" class="edge">
<title>rings_projected_pseudo_ring_order&#45;&gt;rings_from_pseudo_ring_order</title>
<path fill="none" stroke="#000000" d="M2938.3036,-1083.6876C2840.8082,-1009.8741 2470.5718,-729.569 2359.6133,-645.5626"/>
<polygon fill="#000000" stroke="#000000" points="2361.564,-642.6495 2351.4786,-639.4037 2357.3387,-648.2304 2361.564,-642.6495"/>
</g>
<!-- rings_from_strict_ring_order -->
<g id="node35" class="node">
<title>rings_from_strict_ring_order</title>
<g id="a_node35"><a xlink:href="rings.html#from_strict_ring_order" xlink:title="from_strict_ring_order">
<ellipse fill="#f070d1" stroke="#000000" cx="3009" cy="-185.6282" rx="116.9792" ry="18"/>
<text text-anchor="middle" x="3009" y="-181.9282" font-family="Times,serif" font-size="14.00" fill="#000000">from_strict_ring_order</text>
</a>
</g>
</g>
<!-- rings_projected_strict_ring_order&#45;&gt;rings_from_strict_ring_order -->
<g id="edge4" class="edge">
<title>rings_projected_strict_ring_order&#45;&gt;rings_from_strict_ring_order</title>
<path fill="none" stroke="#000000" d="M3009,-603.4489C3009,-535.5834 3009,-296.7266 3009,-214.0474"/>
<polygon fill="#000000" stroke="#000000" points="3012.5001,-213.885 3009,-203.8851 3005.5001,-213.8851 3012.5001,-213.885"/>
</g>
<!-- rings_preserves_le_negate1 -->
<g id="node4" class="node">
<title>rings_preserves_le_negate1</title>
<g id="a_node4"><a xlink:href="rings.html#preserves_le_negate1" xlink:title="preserves_le_negate1">
<ellipse fill="#f070d1" stroke="#000000" cx="3539" cy="-1581.6282" rx="112.3841" ry="18"/>
<ellipse fill="none" stroke="#000000" cx="3539" cy="-1581.6282" rx="116.3821" ry="22"/>
<ellipse fill="none" stroke="#000000" cx="3539" cy="-1581.6282" rx="120.3801" ry="26"/>
<text text-anchor="middle" x="3539" y="-1577.9282" font-family="Times,serif" font-size="14.00" fill="#000000">preserves_le_negate1</text>
</a>
</g>
</g>
<!-- rings_preserves_ge_negate1 -->
<g id="node5" class="node">
<title>rings_preserves_ge_negate1</title>
<g id="a_node5"><a xlink:href="rings.html#preserves_ge_negate1" xlink:title="preserves_ge_negate1">
<ellipse fill="#f070d1" stroke="#000000" cx="3278" cy="-1581.6282" rx="115.077" ry="18"/>
<ellipse fill="none" stroke="#000000" cx="3278" cy="-1581.6282" rx="119.0783" ry="22"/>
<ellipse fill="none" stroke="#000000" cx="3278" cy="-1581.6282" rx="123.0796" ry="26"/>
<text text-anchor="middle" x="3278" y="-1577.9282" font-family="Times,serif" font-size="14.00" fill="#000000">preserves_ge_negate1</text>
</a>
</g>
</g>
<!-- rings_reflecting_preserves_nonneg -->
<g id="node6" class="node">
<title>rings_reflecting_preserves_nonneg</title>
<g id="a_node6"><a xlink:href="rings.html#reflecting_preserves_nonneg" xlink:title="reflecting_preserves_nonneg">
<ellipse fill="#f070d1" stroke="#000000" cx="826" cy="-1581.6282" rx="145.6697" ry="18"/>
<ellipse fill="none" stroke="#000000" cx="826" cy="-1581.6282" rx="149.6719" ry="22"/>
<ellipse fill="none" stroke="#000000" cx="826" cy="-1581.6282" rx="153.6742" ry="26"/>
<text text-anchor="middle" x="826" y="-1577.9282" font-family="Times,serif" font-size="14.00" fill="#000000">reflecting_preserves_nonneg</text>
</a>
</g>
</g>
<!-- rings_flip_nonneg_minus -->
<g id="node27" class="node">
<title>rings_flip_nonneg_minus</title>
<g id="a_node27"><a xlink:href="rings.html#flip_nonneg_minus" xlink:title="flip_nonneg_minus">
<ellipse fill="#f070d1" stroke="#000000" cx="846" cy="-1101.6282" rx="98.2828" ry="18"/>
<text text-anchor="middle" x="846" y="-1097.9282" font-family="Times,serif" font-size="14.00" fill="#000000">flip_nonneg_minus</text>
</a>
</g>
</g>
<!-- rings_reflecting_preserves_nonneg&#45;&gt;rings_flip_nonneg_minus -->
<g id="edge5" class="edge">
<title>rings_reflecting_preserves_nonneg&#45;&gt;rings_flip_nonneg_minus</title>
<path fill="none" stroke="#000000" d="M827.0895,-1555.4804C830.5447,-1472.5563 841.2397,-1215.8749 844.8192,-1129.9683"/>
<polygon fill="#000000" stroke="#000000" points="848.3188,-1130.0469 845.2383,-1119.9098 841.3249,-1129.7554 848.3188,-1130.0469"/>
</g>
<!-- rings_projected_ring_order -->
<g id="node7" class="node">
<title>rings_projected_ring_order</title>
<g id="a_node7"><a xlink:href="rings.html#projected_ring_order" xlink:title="projected_ring_order">
<ellipse fill="#f070d1" stroke="#000000" cx="2652" cy="-1581.6282" rx="109.3679" ry="18"/>
<ellipse fill="none" stroke="#000000" cx="2652" cy="-1581.6282" rx="113.3744" ry="22"/>
<ellipse fill="none" stroke="#000000" cx="2652" cy="-1581.6282" rx="117.3809" ry="26"/>
<text text-anchor="middle" x="2652" y="-1577.9282" font-family="Times,serif" font-size="14.00" fill="#000000">projected_ring_order</text>
</a>
</g>
</g>
<!-- rings_negative_apart_zero -->
<g id="node8" class="node">
<title>rings_negative_apart_zero</title>
<g id="a_node8"><a xlink:href="rings.html#negative_apart_zero" xlink:title="negative_apart_zero">
<ellipse fill="#f070d1" stroke="#000000" cx="2404" cy="-1581.6282" rx="105.0965" ry="18"/>
<ellipse fill="none" stroke="#000000" cx="2404" cy="-1581.6282" rx="109.0891" ry="22"/>
<ellipse fill="none" stroke="#000000" cx="2404" cy="-1581.6282" rx="113.0817" ry="26"/>
<text text-anchor="middle" x="2404" y="-1577.9282" font-family="Times,serif" font-size="14.00" fill="#000000">negative_apart_zero</text>
</a>
</g>
</g>
<!-- rings_positive_apart_zero -->
<g id="node9" class="node">
<title>rings_positive_apart_zero</title>
<g id="a_node9"><a xlink:href="rings.html#positive_apart_zero" xlink:title="positive_apart_zero">
<ellipse fill="#f070d1" stroke="#000000" cx="2163" cy="-1581.6282" rx="102.0789" ry="18"/>
<ellipse fill="none" stroke="#000000" cx="2163" cy="-1581.6282" rx="106.0804" ry="22"/>
<ellipse fill="none" stroke="#000000" cx="2163" cy="-1581.6282" rx="110.0819" ry="26"/>
<text text-anchor="middle" x="2163" y="-1577.9282" font-family="Times,serif" font-size="14.00" fill="#000000">positive_apart_zero</text>
</a>
</g>
</g>
<!-- rings_between_pos -->
<g id="node10" class="node">
<title>rings_between_pos</title>
<g id="a_node10"><a xlink:href="rings.html#between_pos" xlink:title="between_pos">
<ellipse fill="#f070d1" stroke="#000000" cx="2126" cy="-1101.6282" rx="71.488" ry="18"/>
<ellipse fill="none" stroke="#000000" cx="2126" cy="-1101.6282" rx="75.4876" ry="22"/>
<ellipse fill="none" stroke="#000000" cx="2126" cy="-1101.6282" rx="79.4873" ry="26"/>
<text text-anchor="middle" x="2126" y="-1097.9282" font-family="Times,serif" font-size="14.00" fill="#000000">between_pos</text>
</a>
</g>
</g>
<!-- rings_flip_pos_negate -->
<g id="node19" class="node">
<title>rings_flip_pos_negate</title>
<g id="a_node19"><a xlink:href="rings.html#flip_pos_negate" xlink:title="flip_pos_negate">
<ellipse fill="#f070d1" stroke="#000000" cx="2005" cy="-621.6282" rx="83.3857" ry="18"/>
<text text-anchor="middle" x="2005" y="-617.9282" font-family="Times,serif" font-size="14.00" fill="#000000">flip_pos_negate</text>
</a>
</g>
</g>
<!-- rings_between_pos&#45;&gt;rings_flip_pos_negate -->
<g id="edge6" class="edge">
<title>rings_between_pos&#45;&gt;rings_flip_pos_negate</title>
<path fill="none" stroke="#000000" d="M2119.4086,-1075.4804C2098.4835,-992.4718 2033.6679,-735.352 2012.0781,-649.7064"/>
<polygon fill="#000000" stroke="#000000" points="2015.4468,-648.7509 2009.6085,-639.9098 2008.6591,-650.462 2015.4468,-648.7509"/>
</g>
<!-- rings_pos_minus_lt_compat_l -->
<g id="node11" class="node">
<title>rings_pos_minus_lt_compat_l</title>
<g id="a_node11"><a xlink:href="rings.html#pos_minus_lt_compat_l" xlink:title="pos_minus_lt_compat_l">
<ellipse fill="#f070d1" stroke="#000000" cx="1908" cy="-1581.6282" rx="118.8827" ry="18"/>
<ellipse fill="none" stroke="#000000" cx="1908" cy="-1581.6282" rx="122.8808" ry="22"/>
<ellipse fill="none" stroke="#000000" cx="1908" cy="-1581.6282" rx="126.8789" ry="26"/>
<text text-anchor="middle" x="1908" y="-1577.9282" font-family="Times,serif" font-size="14.00" fill="#000000">pos_minus_lt_compat_l</text>
</a>
</g>
</g>
<!-- rings_pos_minus_lt_compat_r -->
<g id="node12" class="node">
<title>rings_pos_minus_lt_compat_r</title>
<g id="a_node12"><a xlink:href="rings.html#pos_minus_lt_compat_r" xlink:title="pos_minus_lt_compat_r">
<ellipse fill="#f070d1" stroke="#000000" cx="1908" cy="-1101.6282" rx="120.4791" ry="18"/>
<text text-anchor="middle" x="1908" y="-1097.9282" font-family="Times,serif" font-size="14.00" fill="#000000">pos_minus_lt_compat_r</text>
</a>
</g>
</g>
<!-- rings_pos_minus_lt_compat_l&#45;&gt;rings_pos_minus_lt_compat_r -->
<g id="edge7" class="edge">
<title>rings_pos_minus_lt_compat_l&#45;&gt;rings_pos_minus_lt_compat_r</title>
<path fill="none" stroke="#000000" d="M1908,-1555.4804C1908,-1472.5563 1908,-1215.8749 1908,-1129.9683"/>
<polygon fill="#000000" stroke="#000000" points="1911.5001,-1129.9098 1908,-1119.9098 1904.5001,-1129.9098 1911.5001,-1129.9098"/>
</g>
<!-- rings_pos_minus_lt_compat_r&#45;&gt;rings_flip_pos_negate -->
<g id="edge8" class="edge">
<title>rings_pos_minus_lt_compat_r&#45;&gt;rings_flip_pos_negate</title>
<path fill="none" stroke="#000000" d="M1911.6841,-1083.3977C1926.4655,-1010.2524 1981.5297,-737.77 1999.3772,-649.4523"/>
<polygon fill="#000000" stroke="#000000" points="2002.8138,-650.1158 2001.364,-639.6206 1995.9525,-648.7292 2002.8138,-650.1158"/>
</g>
<!-- rings_pos_minus_compat -->
<g id="node13" class="node">
<title>rings_pos_minus_compat</title>
<g id="a_node13"><a xlink:href="rings.html#pos_minus_compat" xlink:title="pos_minus_compat">
<ellipse fill="#f070d1" stroke="#000000" cx="1656" cy="-1581.6282" rx="99.3868" ry="18"/>
<ellipse fill="none" stroke="#000000" cx="1656" cy="-1581.6282" rx="103.3846" ry="22"/>
<ellipse fill="none" stroke="#000000" cx="1656" cy="-1581.6282" rx="107.3824" ry="26"/>
<text text-anchor="middle" x="1656" y="-1577.9282" font-family="Times,serif" font-size="14.00" fill="#000000">pos_minus_compat</text>
</a>
</g>
</g>
<!-- rings_flip_neg_minus -->
<g id="node14" class="node">
<title>rings_flip_neg_minus</title>
<g id="a_node14"><a xlink:href="rings.html#flip_neg_minus" xlink:title="flip_neg_minus">
<ellipse fill="#f070d1" stroke="#000000" cx="3767" cy="-1581.6282" rx="81.4644" ry="18"/>
<ellipse fill="none" stroke="#000000" cx="3767" cy="-1581.6282" rx="85.4753" ry="22"/>
<ellipse fill="none" stroke="#000000" cx="3767" cy="-1581.6282" rx="89.4862" ry="26"/>
<text text-anchor="middle" x="3767" y="-1577.9282" font-family="Times,serif" font-size="14.00" fill="#000000">flip_neg_minus</text>
</a>
</g>
</g>
<!-- rings_flip_lt_minus_l -->
<g id="node16" class="node">
<title>rings_flip_lt_minus_l</title>
<g id="a_node16"><a xlink:href="rings.html#flip_lt_minus_l" xlink:title="flip_lt_minus_l">
<ellipse fill="#f070d1" stroke="#000000" cx="3583" cy="-1101.6282" rx="78.7863" ry="18"/>
<text text-anchor="middle" x="3583" y="-1097.9282" font-family="Times,serif" font-size="14.00" fill="#000000">flip_lt_minus_l</text>
</a>
</g>
</g>
<!-- rings_flip_neg_minus&#45;&gt;rings_flip_lt_minus_l -->
<g id="edge9" class="edge">
<title>rings_flip_neg_minus&#45;&gt;rings_flip_lt_minus_l</title>
<path fill="none" stroke="#000000" d="M3756.9767,-1555.4804C3725.1244,-1472.3874 3626.3935,-1214.8287 3593.6633,-1129.4455"/>
<polygon fill="#000000" stroke="#000000" points="3596.8555,-1127.9945 3590.008,-1119.9098 3590.3193,-1130.5001 3596.8555,-1127.9945"/>
</g>
<!-- rings_flip_pos_minus -->
<g id="node15" class="node">
<title>rings_flip_pos_minus</title>
<g id="a_node15"><a xlink:href="rings.html#flip_pos_minus" xlink:title="flip_pos_minus">
<ellipse fill="#f070d1" stroke="#000000" cx="3768" cy="-1101.6282" rx="79.891" ry="18"/>
<ellipse fill="none" stroke="#000000" cx="3768" cy="-1101.6282" rx="83.8884" ry="22"/>
<ellipse fill="none" stroke="#000000" cx="3768" cy="-1101.6282" rx="87.8859" ry="26"/>
<text text-anchor="middle" x="3768" y="-1097.9282" font-family="Times,serif" font-size="14.00" fill="#000000">flip_pos_minus</text>
</a>
</g>
</g>
<!-- rings_flip_lt_minus_r -->
<g id="node17" class="node">
<title>rings_flip_lt_minus_r</title>
<g id="a_node17"><a xlink:href="rings.html#flip_lt_minus_r" xlink:title="flip_lt_minus_r">
<ellipse fill="#f070d1" stroke="#000000" cx="3675" cy="-621.6282" rx="79.8859" ry="18"/>
<text text-anchor="middle" x="3675" y="-617.9282" font-family="Times,serif" font-size="14.00" fill="#000000">flip_lt_minus_r</text>
</a>
</g>
</g>
<!-- rings_flip_pos_minus&#45;&gt;rings_flip_lt_minus_r -->
<g id="edge10" class="edge">
<title>rings_flip_pos_minus&#45;&gt;rings_flip_lt_minus_r</title>
<path fill="none" stroke="#000000" d="M3762.9339,-1075.4804C3746.8673,-992.5563 3697.1353,-735.8749 3680.4909,-649.9683"/>
<polygon fill="#000000" stroke="#000000" points="3683.8804,-649.0614 3678.5421,-639.9098 3677.0082,-650.393 3683.8804,-649.0614"/>
</g>
<!-- rings_flip_lt_minus_l&#45;&gt;rings_flip_lt_minus_r -->
<g id="edge11" class="edge">
<title>rings_flip_lt_minus_l&#45;&gt;rings_flip_lt_minus_r</title>
<path fill="none" stroke="#000000" d="M3586.4942,-1083.3977C3600.5137,-1010.2524 3652.7395,-737.77 3669.667,-649.4523"/>
<polygon fill="#000000" stroke="#000000" points="3673.1064,-650.1007 3671.5514,-639.6206 3666.2315,-648.783 3673.1064,-650.1007"/>
</g>
<!-- rings_flip_neg_negate -->
<g id="node18" class="node">
<title>rings_flip_neg_negate</title>
<g id="a_node18"><a xlink:href="rings.html#flip_neg_negate" xlink:title="flip_neg_negate">
<ellipse fill="#f070d1" stroke="#000000" cx="1677" cy="-1101.6282" rx="84.4857" ry="18"/>
<ellipse fill="none" stroke="#000000" cx="1677" cy="-1101.6282" rx="88.4853" ry="22"/>
<ellipse fill="none" stroke="#000000" cx="1677" cy="-1101.6282" rx="92.485" ry="26"/>
<text text-anchor="middle" x="1677" y="-1097.9282" font-family="Times,serif" font-size="14.00" fill="#000000">flip_neg_negate</text>
</a>
</g>
</g>
<!-- rings_flip_neg_negate&#45;&gt;rings_flip_pos_negate -->
<g id="edge12" class="edge">
<title>rings_flip_neg_negate&#45;&gt;rings_flip_pos_negate</title>
<path fill="none" stroke="#000000" d="M1694.6347,-1075.8213C1751.5099,-992.5894 1929.7235,-731.7889 1987.0477,-647.8998"/>
<polygon fill="#000000" stroke="#000000" points="1990.0685,-649.6827 1992.8207,-639.4515 1984.289,-645.7333 1990.0685,-649.6827"/>
</g>
<!-- rings_flip_lt_negate -->
<g id="node22" class="node">
<title>rings_flip_lt_negate</title>
<g id="a_node22"><a xlink:href="rings.html#flip_lt_negate" xlink:title="flip_lt_negate">
<ellipse fill="#f070d1" stroke="#000000" cx="2562" cy="-185.6282" rx="74.187" ry="18"/>
<text text-anchor="middle" x="2562" y="-181.9282" font-family="Times,serif" font-size="14.00" fill="#000000">flip_lt_negate</text>
</a>
</g>
</g>
<!-- rings_flip_pos_negate&#45;&gt;rings_flip_lt_negate -->
<g id="edge13" class="edge">
<title>rings_flip_pos_negate&#45;&gt;rings_flip_lt_negate</title>
<path fill="none" stroke="#000000" d="M2027.1788,-604.2674C2114.1653,-536.1775 2432.1495,-287.2705 2531.8747,-209.2092"/>
<polygon fill="#000000" stroke="#000000" points="2534.0407,-211.9585 2539.7578,-203.0385 2529.726,-206.4464 2534.0407,-211.9585"/>
</g>
<!-- rings_flip_lt_negate_l -->
<g id="node20" class="node">
<title>rings_flip_lt_negate_l</title>
<g id="a_node20"><a xlink:href="rings.html#flip_lt_negate_l" xlink:title="flip_lt_negate_l">
<ellipse fill="#f070d1" stroke="#000000" cx="2761" cy="-621.6282" rx="81.7951" ry="18"/>
<ellipse fill="none" stroke="#000000" cx="2761" cy="-621.6282" rx="85.7904" ry="22"/>
<ellipse fill="none" stroke="#000000" cx="2761" cy="-621.6282" rx="89.7856" ry="26"/>
<text text-anchor="middle" x="2761" y="-617.9282" font-family="Times,serif" font-size="14.00" fill="#000000">flip_lt_negate_l</text>
</a>
</g>
</g>
<!-- rings_flip_lt_negate_l&#45;&gt;rings_flip_lt_negate -->
<g id="edge14" class="edge">
<title>rings_flip_lt_negate_l&#45;&gt;rings_flip_lt_negate</title>
<path fill="none" stroke="#000000" d="M2749.1476,-595.6601C2714.0016,-518.6569 2610.5668,-292.0358 2574.543,-213.1093"/>
<polygon fill="#000000" stroke="#000000" points="2577.6376,-211.46 2570.3014,-203.8161 2571.2696,-214.3666 2577.6376,-211.46"/>
</g>
<!-- rings_flip_lt_negate_r -->
<g id="node21" class="node">
<title>rings_flip_lt_negate_r</title>
<g id="a_node21"><a xlink:href="rings.html#flip_lt_negate_r" xlink:title="flip_lt_negate_r">
<ellipse fill="#f070d1" stroke="#000000" cx="2562" cy="-621.6282" rx="83.3687" ry="18"/>
<ellipse fill="none" stroke="#000000" cx="2562" cy="-621.6282" rx="87.3772" ry="22"/>
<ellipse fill="none" stroke="#000000" cx="2562" cy="-621.6282" rx="91.3856" ry="26"/>
<text text-anchor="middle" x="2562" y="-617.9282" font-family="Times,serif" font-size="14.00" fill="#000000">flip_lt_negate_r</text>
</a>
</g>
</g>
<!-- rings_flip_lt_negate_r&#45;&gt;rings_flip_lt_negate -->
<g id="edge15" class="edge">
<title>rings_flip_lt_negate_r&#45;&gt;rings_flip_lt_negate</title>
<path fill="none" stroke="#000000" d="M2562,-595.3363C2562,-518.3191 2562,-293.652 2562,-214.0197"/>
<polygon fill="#000000" stroke="#000000" points="2565.5001,-213.7762 2562,-203.7762 2558.5001,-213.7763 2565.5001,-213.7762"/>
</g>
<!-- rings_between_nonneg -->
<g id="node23" class="node">
<title>rings_between_nonneg</title>
<g id="a_node23"><a xlink:href="rings.html#between_nonneg" xlink:title="between_nonneg">
<ellipse fill="#f070d1" stroke="#000000" cx="557" cy="-1581.6282" rx="89.0807" ry="18"/>
<ellipse fill="none" stroke="#000000" cx="557" cy="-1581.6282" rx="93.0825" ry="22"/>
<ellipse fill="none" stroke="#000000" cx="557" cy="-1581.6282" rx="97.0842" ry="26"/>
<text text-anchor="middle" x="557" y="-1577.9282" font-family="Times,serif" font-size="14.00" fill="#000000">between_nonneg</text>
</a>
</g>
</g>
<!-- rings_flip_nonneg_negate -->
<g id="node31" class="node">
<title>rings_flip_nonneg_negate</title>
<g id="a_node31"><a xlink:href="rings.html#flip_nonneg_negate" xlink:title="flip_nonneg_negate">
<ellipse fill="#f070d1" stroke="#000000" cx="445" cy="-1101.6282" rx="101.2821" ry="18"/>
<text text-anchor="middle" x="445" y="-1097.9282" font-family="Times,serif" font-size="14.00" fill="#000000">flip_nonneg_negate</text>
</a>
</g>
</g>
<!-- rings_between_nonneg&#45;&gt;rings_flip_nonneg_negate -->
<g id="edge16" class="edge">
<title>rings_between_nonneg&#45;&gt;rings_flip_nonneg_negate</title>
<path fill="none" stroke="#000000" d="M550.8989,-1555.4804C531.5302,-1472.4718 471.5356,-1215.352 451.5516,-1129.7064"/>
<polygon fill="#000000" stroke="#000000" points="454.9465,-1128.8529 449.2657,-1119.9098 448.1296,-1130.4435 454.9465,-1128.8529"/>
</g>
<!-- rings_nonneg_minus_compat_back -->
<g id="node24" class="node">
<title>rings_nonneg_minus_compat_back</title>
<g id="a_node24"><a xlink:href="rings.html#nonneg_minus_compat_back" xlink:title="nonneg_minus_compat_back">
<ellipse fill="#f070d1" stroke="#000000" cx="1378" cy="-1581.6282" rx="144.8776" ry="18"/>
<ellipse fill="none" stroke="#000000" cx="1378" cy="-1581.6282" rx="148.8759" ry="22"/>
<ellipse fill="none" stroke="#000000" cx="1378" cy="-1581.6282" rx="152.8743" ry="26"/>
<text text-anchor="middle" x="1378" y="-1577.9282" font-family="Times,serif" font-size="14.00" fill="#000000">nonneg_minus_compat_back</text>
</a>
</g>
</g>
<!-- rings_nonneg_minus_compat -->
<g id="node25" class="node">
<title>rings_nonneg_minus_compat</title>
<g id="a_node25"><a xlink:href="rings.html#nonneg_minus_compat" xlink:title="nonneg_minus_compat">
<ellipse fill="#f070d1" stroke="#000000" cx="1378" cy="-1101.6282" rx="117.7793" ry="18"/>
<text text-anchor="middle" x="1378" y="-1097.9282" font-family="Times,serif" font-size="14.00" fill="#000000">nonneg_minus_compat</text>
</a>
</g>
</g>
<!-- rings_nonneg_minus_compat_back&#45;&gt;rings_nonneg_minus_compat -->
<g id="edge17" class="edge">
<title>rings_nonneg_minus_compat_back&#45;&gt;rings_nonneg_minus_compat</title>
<path fill="none" stroke="#000000" d="M1378,-1555.4804C1378,-1472.5563 1378,-1215.8749 1378,-1129.9683"/>
<polygon fill="#000000" stroke="#000000" points="1381.5001,-1129.9098 1378,-1119.9098 1374.5001,-1129.9098 1381.5001,-1129.9098"/>
</g>
<!-- rings_flip_nonpos_minus -->
<g id="node26" class="node">
<title>rings_flip_nonpos_minus</title>
<g id="a_node26"><a xlink:href="rings.html#flip_nonpos_minus" xlink:title="flip_nonpos_minus">
<ellipse fill="#f070d1" stroke="#000000" cx="1102" cy="-1581.6282" rx="96.6951" ry="18"/>
<ellipse fill="none" stroke="#000000" cx="1102" cy="-1581.6282" rx="100.6891" ry="22"/>
<ellipse fill="none" stroke="#000000" cx="1102" cy="-1581.6282" rx="104.6831" ry="26"/>
<text text-anchor="middle" x="1102" y="-1577.9282" font-family="Times,serif" font-size="14.00" fill="#000000">flip_nonpos_minus</text>
</a>
</g>
</g>
<!-- rings_flip_le_minus_l -->
<g id="node28" class="node">
<title>rings_flip_le_minus_l</title>
<g id="a_node28"><a xlink:href="rings.html#flip_le_minus_l" xlink:title="flip_le_minus_l">
<ellipse fill="#f070d1" stroke="#000000" cx="1062" cy="-1101.6282" rx="79.8859" ry="18"/>
<text text-anchor="middle" x="1062" y="-1097.9282" font-family="Times,serif" font-size="14.00" fill="#000000">flip_le_minus_l</text>
</a>
</g>
</g>
<!-- rings_flip_nonpos_minus&#45;&gt;rings_flip_le_minus_l -->
<g id="edge18" class="edge">
<title>rings_flip_nonpos_minus&#45;&gt;rings_flip_le_minus_l</title>
<path fill="none" stroke="#000000" d="M1099.821,-1555.4804C1092.9107,-1472.5563 1071.5206,-1215.8749 1064.3617,-1129.9683"/>
<polygon fill="#000000" stroke="#000000" points="1067.8419,-1129.5846 1063.5235,-1119.9098 1060.8661,-1130.1659 1067.8419,-1129.5846"/>
</g>
<!-- rings_flip_le_minus_r -->
<g id="node29" class="node">
<title>rings_flip_le_minus_r</title>
<g id="a_node29"><a xlink:href="rings.html#flip_le_minus_r" xlink:title="flip_le_minus_r">
<ellipse fill="#f070d1" stroke="#000000" cx="964" cy="-621.6282" rx="81.4863" ry="18"/>
<text text-anchor="middle" x="964" y="-617.9282" font-family="Times,serif" font-size="14.00" fill="#000000">flip_le_minus_r</text>
</a>
</g>
</g>
<!-- rings_flip_nonneg_minus&#45;&gt;rings_flip_le_minus_r -->
<g id="edge19" class="edge">
<title>rings_flip_nonneg_minus&#45;&gt;rings_flip_le_minus_r</title>
<path fill="none" stroke="#000000" d="M850.4816,-1083.3977C868.4632,-1010.2524 935.4485,-737.77 957.1599,-649.4523"/>
<polygon fill="#000000" stroke="#000000" points="960.5883,-650.1671 959.5769,-639.6206 953.7907,-648.4959 960.5883,-650.1671"/>
</g>
<!-- rings_flip_le_minus_l&#45;&gt;rings_flip_le_minus_r -->
<g id="edge20" class="edge">
<title>rings_flip_le_minus_l&#45;&gt;rings_flip_le_minus_r</title>
<path fill="none" stroke="#000000" d="M1058.278,-1083.3977C1043.3441,-1010.2524 987.7123,-737.77 969.6808,-649.4523"/>
<polygon fill="#000000" stroke="#000000" points="973.1032,-648.7183 967.6735,-639.6206 966.2447,-650.1187 973.1032,-648.7183"/>
</g>
<!-- rings_flip_nonpos_negate -->
<g id="node30" class="node">
<title>rings_flip_nonpos_negate</title>
<g id="a_node30"><a xlink:href="rings.html#flip_nonpos_negate" xlink:title="flip_nonpos_negate">
<ellipse fill="#f070d1" stroke="#000000" cx="333" cy="-1581.6282" rx="100.9649" ry="18"/>
<ellipse fill="none" stroke="#000000" cx="333" cy="-1581.6282" rx="104.9738" ry="22"/>
<ellipse fill="none" stroke="#000000" cx="333" cy="-1581.6282" rx="108.9827" ry="26"/>
<text text-anchor="middle" x="333" y="-1577.9282" font-family="Times,serif" font-size="14.00" fill="#000000">flip_nonpos_negate</text>
</a>
</g>
</g>
<!-- rings_flip_nonpos_negate&#45;&gt;rings_flip_nonneg_negate -->
<g id="edge21" class="edge">
<title>rings_flip_nonpos_negate&#45;&gt;rings_flip_nonneg_negate</title>
<path fill="none" stroke="#000000" d="M339.1011,-1555.4804C358.4698,-1472.4718 418.4644,-1215.352 438.4484,-1129.7064"/>
<polygon fill="#000000" stroke="#000000" points="441.8704,-1130.4435 440.7343,-1119.9098 435.0535,-1128.8529 441.8704,-1130.4435"/>
</g>
<!-- rings_flip_le_negate -->
<g id="node32" class="node">
<title>rings_flip_le_negate</title>
<g id="a_node32"><a xlink:href="rings.html#flip_le_negate" xlink:title="flip_le_negate">
<ellipse fill="#f070d1" stroke="#000000" cx="445" cy="-621.6282" rx="75.2868" ry="18"/>
<text text-anchor="middle" x="445" y="-617.9282" font-family="Times,serif" font-size="14.00" fill="#000000">flip_le_negate</text>
</a>
</g>
</g>
<!-- rings_flip_nonneg_negate&#45;&gt;rings_flip_le_negate -->
<g id="edge22" class="edge">
<title>rings_flip_nonneg_negate&#45;&gt;rings_flip_le_negate</title>
<path fill="none" stroke="#000000" d="M445,-1083.3977C445,-1010.409 445,-738.9353 445,-650.0219"/>
<polygon fill="#000000" stroke="#000000" points="448.5001,-649.8768 445,-639.8768 441.5001,-649.8768 448.5001,-649.8768"/>
</g>
<!-- rings_from_full_pseudo_ring_order -->
<g id="node33" class="node">
<title>rings_from_full_pseudo_ring_order</title>
<g id="a_node33"><a xlink:href="rings.html#from_full_pseudo_ring_order" xlink:title="from_full_pseudo_ring_order">
<ellipse fill="#f070d1" stroke="#000000" cx="2376" cy="-1101.6282" rx="144.8776" ry="18"/>
<ellipse fill="none" stroke="#000000" cx="2376" cy="-1101.6282" rx="148.8759" ry="22"/>
<ellipse fill="none" stroke="#000000" cx="2376" cy="-1101.6282" rx="152.8743" ry="26"/>
<text text-anchor="middle" x="2376" y="-1097.9282" font-family="Times,serif" font-size="14.00" fill="#000000">from_full_pseudo_ring_order</text>
</a>
</g>
</g>
<!-- rings_from_full_pseudo_ring_order&#45;&gt;rings_from_pseudo_ring_order -->
<g id="edge23" class="edge">
<title>rings_from_full_pseudo_ring_order&#45;&gt;rings_from_pseudo_ring_order</title>
<path fill="none" stroke="#000000" d="M2373.3852,-1075.4804C2365.0928,-992.5563 2339.4247,-735.8749 2330.834,-649.9683"/>
<polygon fill="#000000" stroke="#000000" points="2334.3059,-649.5119 2329.8282,-639.9098 2327.3407,-650.2085 2334.3059,-649.5119"/>
</g>
<!-- rings_from_ring_order -->
<g id="node36" class="node">
<title>rings_from_ring_order</title>
<g id="a_node36"><a xlink:href="rings.html#from_ring_order" xlink:title="from_ring_order">
<ellipse fill="#f070d1" stroke="#000000" cx="111" cy="-1581.6282" rx="87.1769" ry="18"/>
<ellipse fill="none" stroke="#000000" cx="111" cy="-1581.6282" rx="91.1807" ry="22"/>
<ellipse fill="none" stroke="#000000" cx="111" cy="-1581.6282" rx="95.1846" ry="26"/>
<text text-anchor="middle" x="111" y="-1577.9282" font-family="Times,serif" font-size="14.00" fill="#000000">from_ring_order</text>
</a>
</g>
</g>
</g>
</svg>
