<?xml version="1.0" encoding="UTF-8" standalone="no"?>
<!DOCTYPE svg PUBLIC "-//W3C//DTD SVG 1.1//EN"
 "http://www.w3.org/Graphics/SVG/1.1/DTD/svg11.dtd">
<!-- Generated by graphviz version 2.40.1 (20161225.0304)
 -->
<!-- Title: HoTT_Modalities_Identity Pages: 1 -->
<svg width="366pt" height="187pt"
 viewBox="0.00 0.00 366.00 187.00" xmlns="http://www.w3.org/2000/svg" xmlns:xlink="http://www.w3.org/1999/xlink">
<g id="graph0" class="graph" transform="scale(1 1) rotate(0) translate(4 183)">
<title>HoTT_Modalities_Identity</title>
<polygon fill="#ffffff" stroke="transparent" points="-4,4 -4,-183 362,-183 362,4 -4,4"/>
<g id="clust1" class="cluster">
<title>cluster_Identity</title>
<polygon fill="#ffffc3" stroke="#000000" points="11.3651,-8 11.3651,-171 346.6349,-171 346.6349,-8 11.3651,-8"/>
<text text-anchor="middle" x="48.3651" y="-155.8" font-family="Times,serif" font-size="14.00" fill="#000000">Identity</text>
</g>
<!-- Identity_accmodality_purely -->
<g id="node1" class="node">
<title>Identity_accmodality_purely</title>
<g id="a_node1"><a xlink:href="Identity.html#accmodality_purely" xlink:title="accmodality_purely">
<ellipse fill="#f070d1" stroke="#000000" cx="179.1349" cy="-114" rx="102.0789" ry="18"/>
<ellipse fill="none" stroke="#000000" cx="179.1349" cy="-114" rx="106.0804" ry="22"/>
<ellipse fill="none" stroke="#000000" cx="179.1349" cy="-114" rx="110.0819" ry="26"/>
<text text-anchor="middle" x="179.1349" y="-110.3" font-family="Times,serif" font-size="14.00" fill="#000000">accmodality_purely</text>
</a>
</g>
</g>
<!-- Identity_purely -->
<g id="node2" class="node">
<title>Identity_purely</title>
<g id="a_node2"><a xlink:href="Identity.html#purely" xlink:title="purely">
<ellipse fill="#f070d1" stroke="#000000" cx="179.1349" cy="-34" rx="40.0939" ry="18"/>
<text text-anchor="middle" x="179.1349" y="-30.3" font-family="Times,serif" font-size="14.00" fill="#000000">purely</text>
</a>
</g>
</g>
<!-- Identity_accmodality_purely&#45;&gt;Identity_purely -->
<g id="edge1" class="edge">
<title>Identity_accmodality_purely&#45;&gt;Identity_purely</title>
<path fill="none" stroke="#000000" d="M179.1349,-87.805C179.1349,-79.6026 179.1349,-70.5174 179.1349,-62.1839"/>
<polygon fill="#000000" stroke="#000000" points="182.635,-62.1532 179.1349,-52.1532 175.635,-62.1533 182.635,-62.1532"/>
</g>
</g>
</svg>
