<?xml version="1.0" encoding="UTF-8" standalone="no"?>
<!DOCTYPE svg PUBLIC "-//W3C//DTD SVG 1.1//EN"
 "http://www.w3.org/Graphics/SVG/1.1/DTD/svg11.dtd">
<!-- Generated by graphviz version 2.40.1 (20161225.0304)
 -->
<!-- Title: HoTT_HIT_unique_choice Pages: 1 -->
<svg width="654pt" height="331pt"
 viewBox="0.00 0.00 654.00 331.00" xmlns="http://www.w3.org/2000/svg" xmlns:xlink="http://www.w3.org/1999/xlink">
<g id="graph0" class="graph" transform="scale(1 1) rotate(0) translate(4 327)">
<title>HoTT_HIT_unique_choice</title>
<polygon fill="#ffffff" stroke="transparent" points="-4,4 -4,-327 650,-327 650,4 -4,4"/>
<g id="clust1" class="cluster">
<title>cluster_unique_choice</title>
<polygon fill="#ffffc3" stroke="#000000" points="20.031,-8 20.031,-315 625.969,-315 625.969,-8 20.031,-8"/>
<text text-anchor="middle" x="79.531" y="-299.8" font-family="Times,serif" font-size="14.00" fill="#000000">unique_choice</text>
</g>
<!-- unique_choice_unique_choice -->
<g id="node1" class="node">
<title>unique_choice_unique_choice</title>
<g id="a_node1"><a xlink:href="unique_choice.html#unique_choice" xlink:title="unique_choice">
<ellipse fill="#f070d1" stroke="#000000" cx="323.1705" cy="-258" rx="77.2012" ry="18"/>
<ellipse fill="none" stroke="#000000" cx="323.1705" cy="-258" rx="81.1939" ry="22"/>
<ellipse fill="none" stroke="#000000" cx="323.1705" cy="-258" rx="85.1866" ry="26"/>
<text text-anchor="middle" x="323.1705" y="-254.3" font-family="Times,serif" font-size="14.00" fill="#000000">unique_choice</text>
</a>
</g>
</g>
<!-- unique_choice_iota -->
<g id="node2" class="node">
<title>unique_choice_iota</title>
<g id="a_node2"><a xlink:href="unique_choice.html#iota" xlink:title="iota">
<ellipse fill="#f070d1" stroke="#000000" cx="323.1705" cy="-178" rx="28.6953" ry="18"/>
<text text-anchor="middle" x="323.1705" y="-174.3" font-family="Times,serif" font-size="14.00" fill="#000000">iota</text>
</a>
</g>
</g>
<!-- unique_choice_unique_choice&#45;&gt;unique_choice_iota -->
<g id="edge1" class="edge">
<title>unique_choice_unique_choice&#45;&gt;unique_choice_iota</title>
<path fill="none" stroke="#000000" d="M323.1705,-231.805C323.1705,-223.6026 323.1705,-214.5174 323.1705,-206.1839"/>
<polygon fill="#000000" stroke="#000000" points="326.6706,-206.1532 323.1705,-196.1532 319.6706,-206.1533 326.6706,-206.1532"/>
</g>
<!-- unique_choice_atmost -->
<g id="node3" class="node">
<title>unique_choice_atmost</title>
<g id="a_node3"><a xlink:href="unique_choice.html#atmost" xlink:title="atmost">
<ellipse fill="#f070d1" stroke="#000000" cx="195.1705" cy="-106" rx="42.7926" ry="18"/>
<text text-anchor="middle" x="195.1705" y="-102.3" font-family="Times,serif" font-size="14.00" fill="#000000">atmost</text>
</a>
</g>
</g>
<!-- unique_choice_iota&#45;&gt;unique_choice_atmost -->
<g id="edge2" class="edge">
<title>unique_choice_iota&#45;&gt;unique_choice_atmost</title>
<path fill="none" stroke="#000000" d="M301.7462,-165.9488C282.1436,-154.9224 252.7885,-138.4101 229.8469,-125.5054"/>
<polygon fill="#000000" stroke="#000000" points="231.5194,-122.4305 221.0877,-120.5784 228.0875,-128.5316 231.5194,-122.4305"/>
</g>
<!-- unique_choice_hunique -->
<g id="node4" class="node">
<title>unique_choice_hunique</title>
<g id="a_node4"><a xlink:href="unique_choice.html#hunique" xlink:title="hunique">
<ellipse fill="#f070d1" stroke="#000000" cx="468.1705" cy="-106" rx="48.1917" ry="18"/>
<text text-anchor="middle" x="468.1705" y="-102.3" font-family="Times,serif" font-size="14.00" fill="#000000">hunique</text>
</a>
</g>
</g>
<!-- unique_choice_iota&#45;&gt;unique_choice_hunique -->
<g id="edge3" class="edge">
<title>unique_choice_iota&#45;&gt;unique_choice_hunique</title>
<path fill="none" stroke="#000000" d="M345.8268,-166.75C368.3419,-155.5701 403.2873,-138.2179 430.075,-124.9164"/>
<polygon fill="#000000" stroke="#000000" points="431.7761,-127.9795 439.1761,-120.3972 428.6629,-121.7099 431.7761,-127.9795"/>
</g>
<!-- unique_choice_atmost1P -->
<g id="node5" class="node">
<title>unique_choice_atmost1P</title>
<g id="a_node5"><a xlink:href="unique_choice.html#atmost1P" xlink:title="atmost1P">
<ellipse fill="#f070d1" stroke="#000000" cx="468.1705" cy="-34" rx="55.4913" ry="18"/>
<text text-anchor="middle" x="468.1705" y="-30.3" font-family="Times,serif" font-size="14.00" fill="#000000">atmost1P</text>
</a>
</g>
</g>
<!-- unique_choice_atmost&#45;&gt;unique_choice_atmost1P -->
<g id="edge4" class="edge">
<title>unique_choice_atmost&#45;&gt;unique_choice_atmost1P</title>
<path fill="none" stroke="#000000" d="M231.7053,-96.3645C278.8943,-83.919 361.3674,-62.1679 415.3713,-47.9251"/>
<polygon fill="#000000" stroke="#000000" points="416.332,-51.2915 425.1088,-45.3569 414.5468,-44.5229 416.332,-51.2915"/>
</g>
<!-- unique_choice_atmost1 -->
<g id="node6" class="node">
<title>unique_choice_atmost1</title>
<g id="a_node6"><a xlink:href="unique_choice.html#atmost1" xlink:title="atmost1">
<ellipse fill="#f070d1" stroke="#000000" cx="163.1705" cy="-34" rx="48.9926" ry="18"/>
<text text-anchor="middle" x="163.1705" y="-30.3" font-family="Times,serif" font-size="14.00" fill="#000000">atmost1</text>
</a>
</g>
</g>
<!-- unique_choice_atmost&#45;&gt;unique_choice_atmost1 -->
<g id="edge5" class="edge">
<title>unique_choice_atmost&#45;&gt;unique_choice_atmost1</title>
<path fill="none" stroke="#000000" d="M187.2604,-88.2022C183.645,-80.0675 179.2817,-70.2501 175.2675,-61.2181"/>
<polygon fill="#000000" stroke="#000000" points="178.3603,-59.5592 171.1006,-51.8425 171.9637,-62.4022 178.3603,-59.5592"/>
</g>
<!-- unique_choice_hunique&#45;&gt;unique_choice_atmost1P -->
<g id="edge6" class="edge">
<title>unique_choice_hunique&#45;&gt;unique_choice_atmost1P</title>
<path fill="none" stroke="#000000" d="M468.1705,-87.8314C468.1705,-80.131 468.1705,-70.9743 468.1705,-62.4166"/>
<polygon fill="#000000" stroke="#000000" points="471.6706,-62.4132 468.1705,-52.4133 464.6706,-62.4133 471.6706,-62.4132"/>
</g>
</g>
</svg>
