<?xml version="1.0" encoding="UTF-8" standalone="no"?>
<!DOCTYPE svg PUBLIC "-//W3C//DTD SVG 1.1//EN"
 "http://www.w3.org/Graphics/SVG/1.1/DTD/svg11.dtd">
<!-- Generated by graphviz version 2.40.1 (20161225.0304)
 -->
<!-- Title: HoTT_HFiber Pages: 1 -->
<svg width="3391pt" height="1699pt"
 viewBox="0.00 0.00 3391.00 1699.50" xmlns="http://www.w3.org/2000/svg" xmlns:xlink="http://www.w3.org/1999/xlink">
<g id="graph0" class="graph" transform="scale(1 1) rotate(0) translate(4 1695.5)">
<title>HoTT_HFiber</title>
<polygon fill="#ffffff" stroke="transparent" points="-4,4 -4,-1695.5 3387,-1695.5 3387,4 -4,4"/>
<g id="clust1" class="cluster">
<title>cluster_HFiber</title>
<polygon fill="#ffffc3" stroke="#000000" points="8,-26.2757 8,-1665.2243 3375,-1665.2243 3375,-26.2757 8,-26.2757"/>
<text text-anchor="middle" x="42" y="-1650.0243" font-family="Times,serif" font-size="14.00" fill="#000000">HFiber</text>
</g>
<!-- HFiber_ap_isinj_embedding_beta -->
<g id="node1" class="node">
<title>HFiber_ap_isinj_embedding_beta</title>
<g id="a_node1"><a xlink:href="HFiber.html#ap_isinj_embedding_beta" xlink:title="ap_isinj_embedding_beta">
<ellipse fill="#f070d1" stroke="#000000" cx="3231" cy="-1478.2757" rx="128.075" ry="18"/>
<ellipse fill="none" stroke="#000000" cx="3231" cy="-1478.2757" rx="132.0762" ry="22"/>
<ellipse fill="none" stroke="#000000" cx="3231" cy="-1478.2757" rx="136.0773" ry="26"/>
<text text-anchor="middle" x="3231" y="-1474.5757" font-family="Times,serif" font-size="14.00" fill="#000000">ap_isinj_embedding_beta</text>
</a>
</g>
</g>
<!-- HFiber_equiv_ap_isembedding -->
<g id="node4" class="node">
<title>HFiber_equiv_ap_isembedding</title>
<g id="a_node4"><a xlink:href="HFiber.html#equiv_ap_isembedding" xlink:title="equiv_ap_isembedding">
<ellipse fill="#f070d1" stroke="#000000" cx="3231" cy="-1189.2757" rx="116.1796" ry="18"/>
<text text-anchor="middle" x="3231" y="-1185.5757" font-family="Times,serif" font-size="14.00" fill="#000000">equiv_ap_isembedding</text>
</a>
</g>
</g>
<!-- HFiber_ap_isinj_embedding_beta&#45;&gt;HFiber_equiv_ap_isembedding -->
<g id="edge1" class="edge">
<title>HFiber_ap_isinj_embedding_beta&#45;&gt;HFiber_equiv_ap_isembedding</title>
<path fill="none" stroke="#000000" d="M3231,-1452.1192C3231,-1397.9305 3231,-1273.7891 3231,-1217.7046"/>
<polygon fill="#000000" stroke="#000000" points="3234.5001,-1217.436 3231,-1207.4361 3227.5001,-1217.4361 3234.5001,-1217.436"/>
</g>
<!-- HFiber_equiv_isequiv_ap_isembedding -->
<g id="node2" class="node">
<title>HFiber_equiv_isequiv_ap_isembedding</title>
<g id="a_node2"><a xlink:href="HFiber.html#equiv_isequiv_ap_isembedding" xlink:title="equiv_isequiv_ap_isembedding">
<ellipse fill="#f070d1" stroke="#000000" cx="2882" cy="-1189.2757" rx="154.8636" ry="18"/>
<ellipse fill="none" stroke="#000000" cx="2882" cy="-1189.2757" rx="158.8682" ry="22"/>
<ellipse fill="none" stroke="#000000" cx="2882" cy="-1189.2757" rx="162.8728" ry="26"/>
<text text-anchor="middle" x="2882" y="-1185.5757" font-family="Times,serif" font-size="14.00" fill="#000000">equiv_isequiv_ap_isembedding</text>
</a>
</g>
</g>
<!-- HFiber_isembedding_isequiv_ap -->
<g id="node3" class="node">
<title>HFiber_isembedding_isequiv_ap</title>
<g id="a_node3"><a xlink:href="HFiber.html#isembedding_isequiv_ap" xlink:title="isembedding_isequiv_ap">
<ellipse fill="#f070d1" stroke="#000000" cx="2709" cy="-900.2757" rx="124.2781" ry="18"/>
<text text-anchor="middle" x="2709" y="-896.5757" font-family="Times,serif" font-size="14.00" fill="#000000">isembedding_isequiv_ap</text>
</a>
</g>
</g>
<!-- HFiber_equiv_isequiv_ap_isembedding&#45;&gt;HFiber_isembedding_isequiv_ap -->
<g id="edge2" class="edge">
<title>HFiber_equiv_isequiv_ap_isembedding&#45;&gt;HFiber_isembedding_isequiv_ap</title>
<path fill="none" stroke="#000000" d="M2866.4952,-1163.3746C2833.8807,-1108.8915 2758.4559,-982.8928 2725.2232,-927.377"/>
<polygon fill="#000000" stroke="#000000" points="2728.035,-925.2596 2719.8957,-918.4772 2722.0289,-928.855 2728.035,-925.2596"/>
</g>
<!-- HFiber_isequiv_ap_isembedding -->
<g id="node5" class="node">
<title>HFiber_isequiv_ap_isembedding</title>
<g id="a_node5"><a xlink:href="HFiber.html#isequiv_ap_isembedding" xlink:title="isequiv_ap_isembedding">
<ellipse fill="#f070d1" stroke="#000000" cx="3231" cy="-900.2757" rx="124.2781" ry="18"/>
<text text-anchor="middle" x="3231" y="-896.5757" font-family="Times,serif" font-size="14.00" fill="#000000">isequiv_ap_isembedding</text>
</a>
</g>
</g>
<!-- HFiber_equiv_isequiv_ap_isembedding&#45;&gt;HFiber_isequiv_ap_isembedding -->
<g id="edge3" class="edge">
<title>HFiber_equiv_isequiv_ap_isembedding&#45;&gt;HFiber_isequiv_ap_isembedding</title>
<path fill="none" stroke="#000000" d="M2912.9714,-1163.6289C2979.6834,-1108.3861 3136.1937,-978.783 3201.532,-924.6776"/>
<polygon fill="#000000" stroke="#000000" points="3203.9313,-927.2351 3209.4011,-918.1614 3199.4667,-921.8436 3203.9313,-927.2351"/>
</g>
<!-- HFiber_istruncmap_from_ap -->
<g id="node7" class="node">
<title>HFiber_istruncmap_from_ap</title>
<g id="a_node7"><a xlink:href="HFiber.html#istruncmap_from_ap" xlink:title="istruncmap_from_ap">
<ellipse fill="#f070d1" stroke="#000000" cx="2867" cy="-611.2757" rx="106.6812" ry="18"/>
<text text-anchor="middle" x="2867" y="-607.5757" font-family="Times,serif" font-size="14.00" fill="#000000">istruncmap_from_ap</text>
</a>
</g>
</g>
<!-- HFiber_isembedding_isequiv_ap&#45;&gt;HFiber_istruncmap_from_ap -->
<g id="edge4" class="edge">
<title>HFiber_isembedding_isequiv_ap&#45;&gt;HFiber_istruncmap_from_ap</title>
<path fill="none" stroke="#000000" d="M2718.8836,-882.1975C2745.7619,-833.0339 2820.303,-696.6899 2852.2043,-638.3387"/>
<polygon fill="#000000" stroke="#000000" points="2855.3941,-639.8004 2857.1201,-629.3471 2849.252,-636.4425 2855.3941,-639.8004"/>
</g>
<!-- HFiber_equiv_ap_isembedding&#45;&gt;HFiber_isequiv_ap_isembedding -->
<g id="edge5" class="edge">
<title>HFiber_equiv_ap_isembedding&#45;&gt;HFiber_isequiv_ap_isembedding</title>
<path fill="none" stroke="#000000" d="M3231,-1171.1975C3231,-1122.3381 3231,-987.3732 3231,-928.4305"/>
<polygon fill="#000000" stroke="#000000" points="3234.5001,-928.3471 3231,-918.3471 3227.5001,-928.3472 3234.5001,-928.3471"/>
</g>
<!-- HFiber_istruncmap_ap -->
<g id="node8" class="node">
<title>HFiber_istruncmap_ap</title>
<g id="a_node8"><a xlink:href="HFiber.html#istruncmap_ap" xlink:title="istruncmap_ap">
<ellipse fill="#f070d1" stroke="#000000" cx="3072" cy="-611.2757" rx="79.8859" ry="18"/>
<text text-anchor="middle" x="3072" y="-607.5757" font-family="Times,serif" font-size="14.00" fill="#000000">istruncmap_ap</text>
</a>
</g>
</g>
<!-- HFiber_isequiv_ap_isembedding&#45;&gt;HFiber_istruncmap_ap -->
<g id="edge6" class="edge">
<title>HFiber_isequiv_ap_isembedding&#45;&gt;HFiber_istruncmap_ap</title>
<path fill="none" stroke="#000000" d="M3221.0538,-882.1975C3194.0054,-833.0339 3118.9925,-696.6899 3086.8893,-638.3387"/>
<polygon fill="#000000" stroke="#000000" points="3089.8293,-636.4215 3081.9424,-629.3471 3083.6963,-639.7958 3089.8293,-636.4215"/>
</g>
<!-- HFiber_equiv_istruncmap_ap -->
<g id="node6" class="node">
<title>HFiber_equiv_istruncmap_ap</title>
<g id="a_node6"><a xlink:href="HFiber.html#equiv_istruncmap_ap" xlink:title="equiv_istruncmap_ap">
<ellipse fill="#f070d1" stroke="#000000" cx="2970" cy="-900.2757" rx="110.4811" ry="18"/>
<ellipse fill="none" stroke="#000000" cx="2970" cy="-900.2757" rx="114.4807" ry="22"/>
<ellipse fill="none" stroke="#000000" cx="2970" cy="-900.2757" rx="118.4804" ry="26"/>
<text text-anchor="middle" x="2970" y="-896.5757" font-family="Times,serif" font-size="14.00" fill="#000000">equiv_istruncmap_ap</text>
</a>
</g>
</g>
<!-- HFiber_equiv_istruncmap_ap&#45;&gt;HFiber_istruncmap_from_ap -->
<g id="edge7" class="edge">
<title>HFiber_equiv_istruncmap_ap&#45;&gt;HFiber_istruncmap_from_ap</title>
<path fill="none" stroke="#000000" d="M2960.6778,-874.1192C2941.2844,-819.7048 2896.7515,-694.7533 2876.8835,-639.0071"/>
<polygon fill="#000000" stroke="#000000" points="2880.1265,-637.6807 2873.4724,-629.4361 2873.5327,-640.0307 2880.1265,-637.6807"/>
</g>
<!-- HFiber_equiv_istruncmap_ap&#45;&gt;HFiber_istruncmap_ap -->
<g id="edge8" class="edge">
<title>HFiber_equiv_istruncmap_ap&#45;&gt;HFiber_istruncmap_ap</title>
<path fill="none" stroke="#000000" d="M2979.2317,-874.1192C2998.4368,-819.7048 3042.5373,-694.7533 3062.2124,-639.0071"/>
<polygon fill="#000000" stroke="#000000" points="3065.5627,-640.0309 3065.5905,-629.4361 3058.9617,-637.7011 3065.5627,-640.0309"/>
</g>
<!-- HFiber_hfiber_ap -->
<g id="node27" class="node">
<title>HFiber_hfiber_ap</title>
<g id="a_node27"><a xlink:href="HFiber.html#hfiber_ap" xlink:title="hfiber_ap">
<ellipse fill="#f070d1" stroke="#000000" cx="2867" cy="-348.2757" rx="54.6905" ry="18"/>
<text text-anchor="middle" x="2867" y="-344.5757" font-family="Times,serif" font-size="14.00" fill="#000000">hfiber_ap</text>
</a>
</g>
</g>
<!-- HFiber_istruncmap_from_ap&#45;&gt;HFiber_hfiber_ap -->
<g id="edge9" class="edge">
<title>HFiber_istruncmap_from_ap&#45;&gt;HFiber_hfiber_ap</title>
<path fill="none" stroke="#000000" d="M2867,-593.1987C2867,-548.2494 2867,-431.1472 2867,-376.7788"/>
<polygon fill="#000000" stroke="#000000" points="2870.5001,-376.4792 2867,-366.4793 2863.5001,-376.4793 2870.5001,-376.4792"/>
</g>
<!-- HFiber_istruncmap_ap&#45;&gt;HFiber_hfiber_ap -->
<g id="edge10" class="edge">
<title>HFiber_istruncmap_ap&#45;&gt;HFiber_hfiber_ap</title>
<path fill="none" stroke="#000000" d="M3057.9095,-593.1987C3022.2628,-547.4665 2928.3989,-427.0461 2887.0479,-373.9957"/>
<polygon fill="#000000" stroke="#000000" points="2889.5574,-371.522 2880.6492,-365.7867 2884.0365,-375.8254 2889.5574,-371.522"/>
</g>
<!-- HFiber_istruncmap_const -->
<g id="node9" class="node">
<title>HFiber_istruncmap_const</title>
<g id="a_node9"><a xlink:href="HFiber.html#istruncmap_const" xlink:title="istruncmap_const">
<ellipse fill="#f070d1" stroke="#000000" cx="2975" cy="-1478.2757" rx="94.4649" ry="18"/>
<ellipse fill="none" stroke="#000000" cx="2975" cy="-1478.2757" rx="98.4744" ry="22"/>
<ellipse fill="none" stroke="#000000" cx="2975" cy="-1478.2757" rx="102.4838" ry="26"/>
<text text-anchor="middle" x="2975" y="-1474.5757" font-family="Times,serif" font-size="14.00" fill="#000000">istruncmap_const</text>
</a>
</g>
</g>
<!-- HFiber_hfiber_const -->
<g id="node10" class="node">
<title>HFiber_hfiber_const</title>
<g id="a_node10"><a xlink:href="HFiber.html#hfiber_const" xlink:title="hfiber_const">
<ellipse fill="#f070d1" stroke="#000000" cx="2778" cy="-1478.2757" rx="68.7989" ry="18"/>
<ellipse fill="none" stroke="#000000" cx="2778" cy="-1478.2757" rx="72.7934" ry="22"/>
<ellipse fill="none" stroke="#000000" cx="2778" cy="-1478.2757" rx="76.7879" ry="26"/>
<text text-anchor="middle" x="2778" y="-1474.5757" font-family="Times,serif" font-size="14.00" fill="#000000">hfiber_const</text>
</a>
</g>
</g>
<!-- HFiber_istruncmap_compose -->
<g id="node11" class="node">
<title>HFiber_istruncmap_compose</title>
<g id="a_node11"><a xlink:href="HFiber.html#istruncmap_compose" xlink:title="istruncmap_compose">
<ellipse fill="#f070d1" stroke="#000000" cx="2565" cy="-1478.2757" rx="109.6916" ry="18"/>
<ellipse fill="none" stroke="#000000" cx="2565" cy="-1478.2757" rx="113.6861" ry="22"/>
<ellipse fill="none" stroke="#000000" cx="2565" cy="-1478.2757" rx="117.6807" ry="26"/>
<text text-anchor="middle" x="2565" y="-1474.5757" font-family="Times,serif" font-size="14.00" fill="#000000">istruncmap_compose</text>
</a>
</g>
</g>
<!-- HFiber_hfiber_compose -->
<g id="node12" class="node">
<title>HFiber_hfiber_compose</title>
<g id="a_node12"><a xlink:href="HFiber.html#hfiber_compose" xlink:title="hfiber_compose">
<ellipse fill="#f070d1" stroke="#000000" cx="2565" cy="-1189.2757" rx="84.485" ry="18"/>
<text text-anchor="middle" x="2565" y="-1185.5757" font-family="Times,serif" font-size="14.00" fill="#000000">hfiber_compose</text>
</a>
</g>
</g>
<!-- HFiber_istruncmap_compose&#45;&gt;HFiber_hfiber_compose -->
<g id="edge11" class="edge">
<title>HFiber_istruncmap_compose&#45;&gt;HFiber_hfiber_compose</title>
<path fill="none" stroke="#000000" d="M2565,-1452.1192C2565,-1397.9305 2565,-1273.7891 2565,-1217.7046"/>
<polygon fill="#000000" stroke="#000000" points="2568.5001,-1217.436 2565,-1207.4361 2561.5001,-1217.4361 2568.5001,-1217.436"/>
</g>
<!-- HFiber_hfiber_hfiber_compose_map -->
<g id="node13" class="node">
<title>HFiber_hfiber_hfiber_compose_map</title>
<g id="a_node13"><a xlink:href="HFiber.html#hfiber_hfiber_compose_map" xlink:title="hfiber_hfiber_compose_map">
<ellipse fill="#f070d1" stroke="#000000" cx="2279" cy="-1478.2757" rx="141.8651" ry="18"/>
<ellipse fill="none" stroke="#000000" cx="2279" cy="-1478.2757" rx="145.8701" ry="22"/>
<ellipse fill="none" stroke="#000000" cx="2279" cy="-1478.2757" rx="149.8751" ry="26"/>
<text text-anchor="middle" x="2279" y="-1474.5757" font-family="Times,serif" font-size="14.00" fill="#000000">hfiber_hfiber_compose_map</text>
</a>
</g>
</g>
<!-- HFiber_hfiber_compose_map -->
<g id="node14" class="node">
<title>HFiber_hfiber_compose_map</title>
<g id="a_node14"><a xlink:href="HFiber.html#hfiber_compose_map" xlink:title="hfiber_compose_map">
<ellipse fill="#f070d1" stroke="#000000" cx="2279" cy="-1189.2757" rx="109.381" ry="18"/>
<text text-anchor="middle" x="2279" y="-1185.5757" font-family="Times,serif" font-size="14.00" fill="#000000">hfiber_compose_map</text>
</a>
</g>
</g>
<!-- HFiber_hfiber_hfiber_compose_map&#45;&gt;HFiber_hfiber_compose_map -->
<g id="edge12" class="edge">
<title>HFiber_hfiber_hfiber_compose_map&#45;&gt;HFiber_hfiber_compose_map</title>
<path fill="none" stroke="#000000" d="M2279,-1452.1192C2279,-1397.9305 2279,-1273.7891 2279,-1217.7046"/>
<polygon fill="#000000" stroke="#000000" points="2282.5001,-1217.436 2279,-1207.4361 2275.5001,-1217.4361 2282.5001,-1217.436"/>
</g>
<!-- HFiber_hfiber_fibration -->
<g id="node15" class="node">
<title>HFiber_hfiber_fibration</title>
<g id="a_node15"><a xlink:href="HFiber.html#hfiber_fibration" xlink:title="hfiber_fibration">
<ellipse fill="#f070d1" stroke="#000000" cx="2020" cy="-1478.2757" rx="83.3687" ry="18"/>
<ellipse fill="none" stroke="#000000" cx="2020" cy="-1478.2757" rx="87.3772" ry="22"/>
<ellipse fill="none" stroke="#000000" cx="2020" cy="-1478.2757" rx="91.3856" ry="26"/>
<text text-anchor="middle" x="2020" y="-1474.5757" font-family="Times,serif" font-size="14.00" fill="#000000">hfiber_fibration</text>
</a>
</g>
</g>
<!-- HFiber_equiv_fibration_replacement -->
<g id="node16" class="node">
<title>HFiber_equiv_fibration_replacement</title>
<g id="a_node16"><a xlink:href="HFiber.html#equiv_fibration_replacement" xlink:title="equiv_fibration_replacement">
<ellipse fill="#f070d1" stroke="#000000" cx="1759" cy="-1478.2757" rx="144.0859" ry="18"/>
<ellipse fill="none" stroke="#000000" cx="1759" cy="-1478.2757" rx="148.0803" ry="22"/>
<ellipse fill="none" stroke="#000000" cx="1759" cy="-1478.2757" rx="152.0747" ry="26"/>
<text text-anchor="middle" x="1759" y="-1474.5757" font-family="Times,serif" font-size="14.00" fill="#000000">equiv_fibration_replacement</text>
</a>
</g>
</g>
<!-- HFiber_hfiber_functor_hfiber -->
<g id="node17" class="node">
<title>HFiber_hfiber_functor_hfiber</title>
<g id="a_node17"><a xlink:href="HFiber.html#hfiber_functor_hfiber" xlink:title="hfiber_functor_hfiber">
<ellipse fill="#f070d1" stroke="#000000" cx="1470" cy="-1478.2757" rx="110.4811" ry="18"/>
<ellipse fill="none" stroke="#000000" cx="1470" cy="-1478.2757" rx="114.4807" ry="22"/>
<ellipse fill="none" stroke="#000000" cx="1470" cy="-1478.2757" rx="118.4804" ry="26"/>
<text text-anchor="middle" x="1470" y="-1474.5757" font-family="Times,serif" font-size="14.00" fill="#000000">hfiber_functor_hfiber</text>
</a>
</g>
</g>
<!-- HFiber_hfiber_functor_hfiber_subproof -->
<g id="node18" class="node">
<title>HFiber_hfiber_functor_hfiber_subproof</title>
<g id="a_node18"><a xlink:href="HFiber.html#hfiber_functor_hfiber_subproof" xlink:title="hfiber_functor_hfiber_subproof">
<ellipse fill="#f070d1" stroke="#000000" cx="1470" cy="-1189.2757" rx="155.9723" ry="18"/>
<text text-anchor="middle" x="1470" y="-1185.5757" font-family="Times,serif" font-size="14.00" fill="#000000">hfiber_functor_hfiber_subproof</text>
</a>
</g>
</g>
<!-- HFiber_hfiber_functor_hfiber&#45;&gt;HFiber_hfiber_functor_hfiber_subproof -->
<g id="edge13" class="edge">
<title>HFiber_hfiber_functor_hfiber&#45;&gt;HFiber_hfiber_functor_hfiber_subproof</title>
<path fill="none" stroke="#000000" d="M1470,-1452.1192C1470,-1397.9305 1470,-1273.7891 1470,-1217.7046"/>
<polygon fill="#000000" stroke="#000000" points="1473.5001,-1217.436 1470,-1207.4361 1466.5001,-1217.4361 1473.5001,-1217.436"/>
</g>
<!-- HFiber_functor_hfiber -->
<g id="node25" class="node">
<title>HFiber_functor_hfiber</title>
<g id="a_node25"><a xlink:href="HFiber.html#functor_hfiber" xlink:title="functor_hfiber">
<ellipse fill="#f070d1" stroke="#000000" cx="1069" cy="-1189.2757" rx="77.1866" ry="18"/>
<text text-anchor="middle" x="1069" y="-1185.5757" font-family="Times,serif" font-size="14.00" fill="#000000">functor_hfiber</text>
</a>
</g>
</g>
<!-- HFiber_hfiber_functor_hfiber&#45;&gt;HFiber_functor_hfiber -->
<g id="edge14" class="edge">
<title>HFiber_hfiber_functor_hfiber&#45;&gt;HFiber_functor_hfiber</title>
<path fill="none" stroke="#000000" d="M1435.4639,-1453.3856C1358.9731,-1398.2588 1176.1599,-1266.5057 1101.5494,-1212.734"/>
<polygon fill="#000000" stroke="#000000" points="1103.1604,-1209.5809 1093.0014,-1206.5735 1099.0677,-1215.2597 1103.1604,-1209.5809"/>
</g>
<!-- HFiber_functor_hfiber_compose -->
<g id="node19" class="node">
<title>HFiber_functor_hfiber_compose</title>
<g id="a_node19"><a xlink:href="HFiber.html#functor_hfiber_compose" xlink:title="functor_hfiber_compose">
<ellipse fill="#f070d1" stroke="#000000" cx="1202" cy="-1478.2757" rx="123.4788" ry="18"/>
<ellipse fill="none" stroke="#000000" cx="1202" cy="-1478.2757" rx="127.4784" ry="22"/>
<ellipse fill="none" stroke="#000000" cx="1202" cy="-1478.2757" rx="131.4781" ry="26"/>
<text text-anchor="middle" x="1202" y="-1474.5757" font-family="Times,serif" font-size="14.00" fill="#000000">functor_hfiber_compose</text>
</a>
</g>
</g>
<!-- HFiber_functor_hfiber_compose&#45;&gt;HFiber_functor_hfiber -->
<g id="edge15" class="edge">
<title>HFiber_functor_hfiber_compose&#45;&gt;HFiber_functor_hfiber</title>
<path fill="none" stroke="#000000" d="M1190.0801,-1452.3746C1165.0584,-1398.0041 1107.2605,-1272.4132 1081.631,-1216.722"/>
<polygon fill="#000000" stroke="#000000" points="1084.7366,-1215.0981 1077.3764,-1207.4772 1078.3776,-1218.0246 1084.7366,-1215.0981"/>
</g>
<!-- HFiber_equiv_functor_hfiber2 -->
<g id="node20" class="node">
<title>HFiber_equiv_functor_hfiber2</title>
<g id="a_node20"><a xlink:href="HFiber.html#equiv_functor_hfiber2" xlink:title="equiv_functor_hfiber2">
<ellipse fill="#f070d1" stroke="#000000" cx="416" cy="-1478.2757" rx="113.9645" ry="18"/>
<ellipse fill="none" stroke="#000000" cx="416" cy="-1478.2757" rx="117.9724" ry="22"/>
<ellipse fill="none" stroke="#000000" cx="416" cy="-1478.2757" rx="121.9803" ry="26"/>
<text text-anchor="middle" x="416" y="-1474.5757" font-family="Times,serif" font-size="14.00" fill="#000000">equiv_functor_hfiber2</text>
</a>
</g>
</g>
<!-- HFiber_isequiv_functor_hfiber2 -->
<g id="node21" class="node">
<title>HFiber_isequiv_functor_hfiber2</title>
<g id="a_node21"><a xlink:href="HFiber.html#isequiv_functor_hfiber2" xlink:title="isequiv_functor_hfiber2">
<ellipse fill="#f070d1" stroke="#000000" cx="416" cy="-1189.2757" rx="121.5784" ry="18"/>
<text text-anchor="middle" x="416" y="-1185.5757" font-family="Times,serif" font-size="14.00" fill="#000000">isequiv_functor_hfiber2</text>
</a>
</g>
</g>
<!-- HFiber_equiv_functor_hfiber2&#45;&gt;HFiber_isequiv_functor_hfiber2 -->
<g id="edge16" class="edge">
<title>HFiber_equiv_functor_hfiber2&#45;&gt;HFiber_isequiv_functor_hfiber2</title>
<path fill="none" stroke="#000000" d="M416,-1452.1192C416,-1397.9305 416,-1273.7891 416,-1217.7046"/>
<polygon fill="#000000" stroke="#000000" points="419.5001,-1217.436 416,-1207.4361 412.5001,-1217.4361 419.5001,-1217.436"/>
</g>
<!-- HFiber_functor_hfiber2 -->
<g id="node22" class="node">
<title>HFiber_functor_hfiber2</title>
<g id="a_node22"><a xlink:href="HFiber.html#functor_hfiber2" xlink:title="functor_hfiber2">
<ellipse fill="#f070d1" stroke="#000000" cx="416" cy="-900.2757" rx="83.3857" ry="18"/>
<text text-anchor="middle" x="416" y="-896.5757" font-family="Times,serif" font-size="14.00" fill="#000000">functor_hfiber2</text>
</a>
</g>
</g>
<!-- HFiber_isequiv_functor_hfiber2&#45;&gt;HFiber_functor_hfiber2 -->
<g id="edge17" class="edge">
<title>HFiber_isequiv_functor_hfiber2&#45;&gt;HFiber_functor_hfiber2</title>
<path fill="none" stroke="#000000" d="M416,-1171.1975C416,-1122.3381 416,-987.3732 416,-928.4305"/>
<polygon fill="#000000" stroke="#000000" points="419.5001,-928.3471 416,-918.3471 412.5001,-928.3472 419.5001,-928.3471"/>
</g>
<!-- HFiber_equiv_functor_hfiber -->
<g id="node23" class="node">
<title>HFiber_equiv_functor_hfiber</title>
<g id="a_node23"><a xlink:href="HFiber.html#equiv_functor_hfiber" xlink:title="equiv_functor_hfiber">
<ellipse fill="#f070d1" stroke="#000000" cx="937" cy="-1478.2757" rx="107.7885" ry="18"/>
<ellipse fill="none" stroke="#000000" cx="937" cy="-1478.2757" rx="111.7847" ry="22"/>
<ellipse fill="none" stroke="#000000" cx="937" cy="-1478.2757" rx="115.781" ry="26"/>
<text text-anchor="middle" x="937" y="-1474.5757" font-family="Times,serif" font-size="14.00" fill="#000000">equiv_functor_hfiber</text>
</a>
</g>
</g>
<!-- HFiber_equiv_functor_hfiber&#45;&gt;HFiber_functor_hfiber -->
<g id="edge18" class="edge">
<title>HFiber_equiv_functor_hfiber&#45;&gt;HFiber_functor_hfiber</title>
<path fill="none" stroke="#000000" d="M948.8303,-1452.3746C973.6639,-1398.0041 1031.0272,-1272.4132 1056.464,-1216.722"/>
<polygon fill="#000000" stroke="#000000" points="1059.7155,-1218.0274 1060.6865,-1207.4772 1053.3482,-1215.1191 1059.7155,-1218.0274"/>
</g>
<!-- HFiber_isequiv_functor_hfiber -->
<g id="node24" class="node">
<title>HFiber_isequiv_functor_hfiber</title>
<g id="a_node24"><a xlink:href="HFiber.html#isequiv_functor_hfiber" xlink:title="isequiv_functor_hfiber">
<ellipse fill="#f070d1" stroke="#000000" cx="679" cy="-1478.2757" rx="115.8675" ry="18"/>
<ellipse fill="none" stroke="#000000" cx="679" cy="-1478.2757" rx="119.8736" ry="22"/>
<ellipse fill="none" stroke="#000000" cx="679" cy="-1478.2757" rx="123.8798" ry="26"/>
<text text-anchor="middle" x="679" y="-1474.5757" font-family="Times,serif" font-size="14.00" fill="#000000">isequiv_functor_hfiber</text>
</a>
</g>
</g>
<!-- HFiber_isequiv_functor_hfiber&#45;&gt;HFiber_functor_hfiber -->
<g id="edge19" class="edge">
<title>HFiber_isequiv_functor_hfiber&#45;&gt;HFiber_functor_hfiber</title>
<path fill="none" stroke="#000000" d="M712.9277,-1453.1344C787.5442,-1397.8417 965.0047,-1266.3389 1037.4139,-1212.6818"/>
<polygon fill="#000000" stroke="#000000" points="1039.7589,-1215.3004 1045.7096,-1206.5345 1035.5913,-1209.6762 1039.7589,-1215.3004"/>
</g>
<!-- HFiber_equiv_hfiber_homotopic -->
<g id="node26" class="node">
<title>HFiber_equiv_hfiber_homotopic</title>
<g id="a_node26"><a xlink:href="HFiber.html#equiv_hfiber_homotopic" xlink:title="equiv_hfiber_homotopic">
<ellipse fill="#f070d1" stroke="#000000" cx="146" cy="-1478.2757" rx="122.367" ry="18"/>
<ellipse fill="none" stroke="#000000" cx="146" cy="-1478.2757" rx="126.3728" ry="22"/>
<ellipse fill="none" stroke="#000000" cx="146" cy="-1478.2757" rx="130.3786" ry="26"/>
<text text-anchor="middle" x="146" y="-1474.5757" font-family="Times,serif" font-size="14.00" fill="#000000">equiv_hfiber_homotopic</text>
</a>
</g>
</g>
<!-- HFiber_equiv_path_hfiber -->
<g id="node30" class="node">
<title>HFiber_equiv_path_hfiber</title>
<g id="a_node30"><a xlink:href="HFiber.html#equiv_path_hfiber" xlink:title="equiv_path_hfiber">
<ellipse fill="#f070d1" stroke="#000000" cx="2770" cy="-111.2757" rx="94.7833" ry="18"/>
<text text-anchor="middle" x="2770" y="-107.5757" font-family="Times,serif" font-size="14.00" fill="#000000">equiv_path_hfiber</text>
</a>
</g>
</g>
<!-- HFiber_hfiber_ap&#45;&gt;HFiber_equiv_path_hfiber -->
<g id="edge20" class="edge">
<title>HFiber_hfiber_ap&#45;&gt;HFiber_equiv_path_hfiber</title>
<path fill="none" stroke="#000000" d="M2859.5496,-330.0723C2842.6577,-288.8003 2801.3632,-187.9054 2781.3042,-138.8954"/>
<polygon fill="#000000" stroke="#000000" points="2784.5029,-137.4703 2777.4757,-129.5412 2778.0245,-140.1218 2784.5029,-137.4703"/>
</g>
<!-- HFiber_path_hfiber -->
<g id="node28" class="node">
<title>HFiber_path_hfiber</title>
<g id="a_node28"><a xlink:href="HFiber.html#path_hfiber" xlink:title="path_hfiber">
<ellipse fill="#f070d1" stroke="#000000" cx="2670" cy="-611.2757" rx="64.2061" ry="18"/>
<ellipse fill="none" stroke="#000000" cx="2670" cy="-611.2757" rx="68.1975" ry="22"/>
<ellipse fill="none" stroke="#000000" cx="2670" cy="-611.2757" rx="72.1889" ry="26"/>
<text text-anchor="middle" x="2670" y="-607.5757" font-family="Times,serif" font-size="14.00" fill="#000000">path_hfiber</text>
</a>
</g>
</g>
<!-- HFiber_path_hfiber_uncurried -->
<g id="node29" class="node">
<title>HFiber_path_hfiber_uncurried</title>
<g id="a_node29"><a xlink:href="HFiber.html#path_hfiber_uncurried" xlink:title="path_hfiber_uncurried">
<ellipse fill="#f070d1" stroke="#000000" cx="2674" cy="-348.2757" rx="115.0796" ry="18"/>
<text text-anchor="middle" x="2674" y="-344.5757" font-family="Times,serif" font-size="14.00" fill="#000000">path_hfiber_uncurried</text>
</a>
</g>
</g>
<!-- HFiber_path_hfiber&#45;&gt;HFiber_path_hfiber_uncurried -->
<g id="edge21" class="edge">
<title>HFiber_path_hfiber&#45;&gt;HFiber_path_hfiber_uncurried</title>
<path fill="none" stroke="#000000" d="M2670.3982,-585.0968C2671.1546,-535.3641 2672.7931,-427.6299 2673.572,-376.4148"/>
<polygon fill="#000000" stroke="#000000" points="2677.072,-376.4373 2673.7246,-366.3852 2670.0728,-376.3308 2677.072,-376.4373"/>
</g>
<!-- HFiber_path_hfiber_uncurried&#45;&gt;HFiber_equiv_path_hfiber -->
<g id="edge22" class="edge">
<title>HFiber_path_hfiber_uncurried&#45;&gt;HFiber_equiv_path_hfiber</title>
<path fill="none" stroke="#000000" d="M2681.3736,-330.0723C2698.0913,-288.8003 2738.9601,-187.9054 2758.8123,-138.8954"/>
<polygon fill="#000000" stroke="#000000" points="2762.0909,-140.1238 2762.6013,-129.5412 2755.603,-137.4957 2762.0909,-140.1238"/>
</g>
</g>
</svg>
