<?xml version="1.0" encoding="UTF-8" standalone="no"?>
<!DOCTYPE svg PUBLIC "-//W3C//DTD SVG 1.1//EN"
 "http://www.w3.org/Graphics/SVG/1.1/DTD/svg11.dtd">
<!-- Generated by graphviz version 2.40.1 (20161225.0304)
 -->
<!-- Title: HoTT_WildCat_PointedCat Pages: 1 -->
<svg width="3353pt" height="1681pt"
 viewBox="0.00 0.00 3353.00 1680.50" xmlns="http://www.w3.org/2000/svg" xmlns:xlink="http://www.w3.org/1999/xlink">
<g id="graph0" class="graph" transform="scale(1 1) rotate(0) translate(4 1676.5)">
<title>HoTT_WildCat_PointedCat</title>
<polygon fill="#ffffff" stroke="transparent" points="-4,4 -4,-1676.5 3349,-1676.5 3349,4 -4,4"/>
<g id="clust1" class="cluster">
<title>cluster_PointedCat</title>
<polygon fill="#ffffc3" stroke="#000000" points="8,-37.6901 8,-1634.8099 3337,-1634.8099 3337,-37.6901 8,-37.6901"/>
<text text-anchor="middle" x="56" y="-1619.6099" font-family="Times,serif" font-size="14.00" fill="#000000">PointedCat</text>
</g>
<!-- PointedCat_fmap_zero_morphism -->
<g id="node1" class="node">
<title>PointedCat_fmap_zero_morphism</title>
<g id="a_node1"><a xlink:href="PointedCat.html#fmap_zero_morphism" xlink:title="fmap_zero_morphism">
<ellipse fill="#f070d1" stroke="#000000" cx="1536" cy="-1366.6901" rx="110.4811" ry="18"/>
<ellipse fill="none" stroke="#000000" cx="1536" cy="-1366.6901" rx="114.4807" ry="22"/>
<ellipse fill="none" stroke="#000000" cx="1536" cy="-1366.6901" rx="118.4804" ry="26"/>
<text text-anchor="middle" x="1536" y="-1362.9901" font-family="Times,serif" font-size="14.00" fill="#000000">fmap_zero_morphism</text>
</a>
</g>
</g>
<!-- PointedCat_pfunctor_zero -->
<g id="node2" class="node">
<title>PointedCat_pfunctor_zero</title>
<g id="a_node2"><a xlink:href="PointedCat.html#pfunctor_zero" xlink:title="pfunctor_zero">
<ellipse fill="#f070d1" stroke="#000000" cx="1875" cy="-536.6901" rx="75.2868" ry="18"/>
<text text-anchor="middle" x="1875" y="-532.9901" font-family="Times,serif" font-size="14.00" fill="#000000">pfunctor_zero</text>
</a>
</g>
</g>
<!-- PointedCat_fmap_zero_morphism&#45;&gt;PointedCat_pfunctor_zero -->
<g id="edge1" class="edge">
<title>PointedCat_fmap_zero_morphism&#45;&gt;PointedCat_pfunctor_zero</title>
<path fill="none" stroke="#000000" d="M1546.7055,-1340.479C1597.2758,-1216.6639 1811.9319,-691.1048 1863.7218,-564.3035"/>
<polygon fill="#000000" stroke="#000000" points="1867.0235,-565.476 1867.5645,-554.895 1860.5432,-562.8292 1867.0235,-565.476"/>
</g>
<!-- PointedCat_cat_zero_m -->
<g id="node12" class="node">
<title>PointedCat_cat_zero_m</title>
<g id="a_node12"><a xlink:href="PointedCat.html#cat_zero_m" xlink:title="cat_zero_m">
<ellipse fill="#f070d1" stroke="#000000" cx="1435" cy="-951.6901" rx="63.8893" ry="18"/>
<text text-anchor="middle" x="1435" y="-947.9901" font-family="Times,serif" font-size="14.00" fill="#000000">cat_zero_m</text>
</a>
</g>
</g>
<!-- PointedCat_fmap_zero_morphism&#45;&gt;PointedCat_cat_zero_m -->
<g id="edge2" class="edge">
<title>PointedCat_fmap_zero_morphism&#45;&gt;PointedCat_cat_zero_m</title>
<path fill="none" stroke="#000000" d="M1529.6054,-1340.4152C1511.5484,-1266.2207 1460.2845,-1055.5819 1441.7728,-979.519"/>
<polygon fill="#000000" stroke="#000000" points="1445.1505,-978.5962 1439.385,-969.7075 1438.349,-980.2516 1445.1505,-978.5962"/>
</g>
<!-- PointedCat_IsPointedFunctor -->
<g id="node11" class="node">
<title>PointedCat_IsPointedFunctor</title>
<g id="a_node11"><a xlink:href="PointedCat.html#IsPointedFunctor" xlink:title="IsPointedFunctor">
<ellipse fill="#e2cdfa" stroke="#000000" cx="2341" cy="-159.6901" rx="91.784" ry="18"/>
<text text-anchor="middle" x="2341" y="-155.9901" font-family="Times,serif" font-size="14.00" fill="#000000">IsPointedFunctor</text>
</a>
</g>
</g>
<!-- PointedCat_pfunctor_zero&#45;&gt;PointedCat_IsPointedFunctor -->
<g id="edge3" class="edge">
<title>PointedCat_pfunctor_zero&#45;&gt;PointedCat_IsPointedFunctor</title>
<path fill="none" stroke="#000000" d="M1896.5416,-519.2627C1971.9733,-458.2375 2224.3233,-254.0831 2311.2638,-183.7471"/>
<polygon fill="#000000" stroke="#000000" points="2313.5764,-186.3781 2319.1495,-177.3675 2309.1737,-180.9361 2313.5764,-186.3781"/>
</g>
<!-- PointedCat_IsPointedCat -->
<g id="node26" class="node">
<title>PointedCat_IsPointedCat</title>
<g id="a_node26"><a xlink:href="PointedCat.html#IsPointedCat" xlink:title="IsPointedCat">
<ellipse fill="#e2cdfa" stroke="#000000" cx="1014" cy="-159.6901" rx="71.4873" ry="18"/>
<text text-anchor="middle" x="1014" y="-155.9901" font-family="Times,serif" font-size="14.00" fill="#000000">IsPointedCat</text>
</a>
</g>
</g>
<!-- PointedCat_pfunctor_zero&#45;&gt;PointedCat_IsPointedCat -->
<g id="edge4" class="edge">
<title>PointedCat_pfunctor_zero&#45;&gt;PointedCat_IsPointedCat</title>
<path fill="none" stroke="#000000" d="M1838.8274,-520.8515C1701.4096,-460.6813 1211.8418,-246.3177 1059.5509,-179.6352"/>
<polygon fill="#000000" stroke="#000000" points="1060.5791,-176.2646 1050.0148,-175.4597 1057.7713,-182.6769 1060.5791,-176.2646"/>
</g>
<!-- PointedCat_Build_IsPointedFunctor_ -->
<g id="node3" class="node">
<title>PointedCat_Build_IsPointedFunctor_</title>
<g id="a_node3"><a xlink:href="PointedCat.html#Build_IsPointedFunctor'" xlink:title="Build_IsPointedFunctor&#39;">
<ellipse fill="#f070d1" stroke="#000000" cx="1650" cy="-536.6901" rx="123.4788" ry="18"/>
<ellipse fill="none" stroke="#000000" cx="1650" cy="-536.6901" rx="127.4784" ry="22"/>
<ellipse fill="none" stroke="#000000" cx="1650" cy="-536.6901" rx="131.4781" ry="26"/>
<text text-anchor="middle" x="1650" y="-532.9901" font-family="Times,serif" font-size="14.00" fill="#000000">Build_IsPointedFunctor&#39;</text>
</a>
</g>
</g>
<!-- PointedCat_Build_IsPointedFunctor -->
<g id="node10" class="node">
<title>PointedCat_Build_IsPointedFunctor</title>
<g id="a_node10"><a xlink:href="PointedCat.html#Build_IsPointedFunctor" xlink:title="Build_IsPointedFunctor">
<ellipse fill="#7faaff" stroke="#000000" cx="2099" cy="-159.6901" rx="120.7786" ry="18"/>
<text text-anchor="middle" x="2099" y="-155.9901" font-family="Times,serif" font-size="14.00" fill="#000000">Build_IsPointedFunctor</text>
</a>
</g>
</g>
<!-- PointedCat_Build_IsPointedFunctor_&#45;&gt;PointedCat_Build_IsPointedFunctor -->
<g id="edge5" class="edge">
<title>PointedCat_Build_IsPointedFunctor_&#45;&gt;PointedCat_Build_IsPointedFunctor</title>
<path fill="none" stroke="#000000" d="M1680.1574,-511.3687C1762.2785,-442.4162 1989.1292,-251.9425 2069.9422,-184.0883"/>
<polygon fill="#000000" stroke="#000000" points="2072.3321,-186.6519 2077.7399,-177.5411 2067.8308,-181.291 2072.3321,-186.6519"/>
</g>
<!-- PointedCat_Build_IsPointedFunctor_&#45;&gt;PointedCat_IsPointedFunctor -->
<g id="edge6" class="edge">
<title>PointedCat_Build_IsPointedFunctor_&#45;&gt;PointedCat_IsPointedFunctor</title>
<path fill="none" stroke="#000000" d="M1694.806,-512.2446C1821.3052,-443.2284 2179.8193,-247.6281 2300.6623,-181.6978"/>
<polygon fill="#000000" stroke="#000000" points="2302.5126,-184.6754 2309.6147,-176.8135 2299.16,-178.5305 2302.5126,-184.6754"/>
</g>
<!-- PointedCat_Build_IsPointedFunctor_&#45;&gt;PointedCat_IsPointedCat -->
<g id="edge7" class="edge">
<title>PointedCat_Build_IsPointedFunctor_&#45;&gt;PointedCat_IsPointedCat</title>
<path fill="none" stroke="#000000" d="M1608.2703,-511.9541C1491.3436,-442.6438 1161.8408,-247.3253 1050.9475,-181.5914"/>
<polygon fill="#000000" stroke="#000000" points="1052.5099,-178.4489 1042.123,-176.3605 1048.9405,-184.4705 1052.5099,-178.4489"/>
</g>
<!-- PointedCat_preservesterminal_pfunctor -->
<g id="node4" class="node">
<title>PointedCat_preservesterminal_pfunctor</title>
<g id="a_node4"><a xlink:href="PointedCat.html#preservesterminal_pfunctor" xlink:title="preservesterminal_pfunctor">
<ellipse fill="#f070d1" stroke="#000000" cx="3180" cy="-536.6901" rx="141.073" ry="18"/>
<ellipse fill="none" stroke="#000000" cx="3180" cy="-536.6901" rx="145.074" ry="22"/>
<ellipse fill="none" stroke="#000000" cx="3180" cy="-536.6901" rx="149.075" ry="26"/>
<text text-anchor="middle" x="3180" y="-532.9901" font-family="Times,serif" font-size="14.00" fill="#000000">preservesterminal_pfunctor</text>
</a>
</g>
</g>
<!-- PointedCat_preservesterminal_pfunctor&#45;&gt;PointedCat_IsPointedFunctor -->
<g id="edge8" class="edge">
<title>PointedCat_preservesterminal_pfunctor&#45;&gt;PointedCat_IsPointedFunctor</title>
<path fill="none" stroke="#000000" d="M3125.9193,-512.3893C2971.64,-443.0647 2531.259,-245.182 2387.2152,-180.4567"/>
<polygon fill="#000000" stroke="#000000" points="2388.3185,-177.1154 2377.7625,-176.2092 2385.4494,-183.5004 2388.3185,-177.1154"/>
</g>
<!-- PointedCat_preservesinitial_pfunctor -->
<g id="node5" class="node">
<title>PointedCat_preservesinitial_pfunctor</title>
<g id="a_node5"><a xlink:href="PointedCat.html#preservesinitial_pfunctor" xlink:title="preservesinitial_pfunctor">
<ellipse fill="#f070d1" stroke="#000000" cx="2877" cy="-536.6901" rx="128.075" ry="18"/>
<ellipse fill="none" stroke="#000000" cx="2877" cy="-536.6901" rx="132.0762" ry="22"/>
<ellipse fill="none" stroke="#000000" cx="2877" cy="-536.6901" rx="136.0773" ry="26"/>
<text text-anchor="middle" x="2877" y="-532.9901" font-family="Times,serif" font-size="14.00" fill="#000000">preservesinitial_pfunctor</text>
</a>
</g>
</g>
<!-- PointedCat_preservesinitial_pfunctor&#45;&gt;PointedCat_IsPointedFunctor -->
<g id="edge9" class="edge">
<title>PointedCat_preservesinitial_pfunctor&#45;&gt;PointedCat_IsPointedFunctor</title>
<path fill="none" stroke="#000000" d="M2840.9992,-511.3687C2742.4413,-442.0472 2469.2561,-249.9001 2374.1542,-183.0094"/>
<polygon fill="#000000" stroke="#000000" points="2375.9718,-180.0088 2365.7788,-177.1185 2371.9446,-185.7344 2375.9718,-180.0088"/>
</g>
<!-- PointedCat_IsPointedFunctor_sind -->
<g id="node6" class="node">
<title>PointedCat_IsPointedFunctor_sind</title>
<g id="a_node6"><a xlink:href="PointedCat.html#IsPointedFunctor_sind" xlink:title="IsPointedFunctor_sind">
<ellipse fill="#f070d1" stroke="#000000" cx="2599" cy="-536.6901" rx="116.1899" ry="18"/>
<ellipse fill="none" stroke="#000000" cx="2599" cy="-536.6901" rx="120.1847" ry="22"/>
<ellipse fill="none" stroke="#000000" cx="2599" cy="-536.6901" rx="124.1796" ry="26"/>
<text text-anchor="middle" x="2599" y="-532.9901" font-family="Times,serif" font-size="14.00" fill="#000000">IsPointedFunctor_sind</text>
</a>
</g>
</g>
<!-- PointedCat_IsPointedFunctor_sind&#45;&gt;PointedCat_Build_IsPointedFunctor -->
<g id="edge10" class="edge">
<title>PointedCat_IsPointedFunctor_sind&#45;&gt;PointedCat_Build_IsPointedFunctor</title>
<path fill="none" stroke="#000000" d="M2565.4172,-511.3687C2473.7835,-442.2769 2220.3293,-251.1724 2130.8149,-183.6786"/>
<polygon fill="#000000" stroke="#000000" points="2132.7668,-180.7669 2122.675,-177.5411 2128.5525,-186.3562 2132.7668,-180.7669"/>
</g>
<!-- PointedCat_IsPointedFunctor_sind&#45;&gt;PointedCat_IsPointedFunctor -->
<g id="edge11" class="edge">
<title>PointedCat_IsPointedFunctor_sind&#45;&gt;PointedCat_IsPointedFunctor</title>
<path fill="none" stroke="#000000" d="M2581.2666,-510.7774C2534.3071,-442.1582 2407.0702,-256.2346 2359.3813,-186.5496"/>
<polygon fill="#000000" stroke="#000000" points="2361.9895,-184.1634 2353.4534,-177.8876 2356.2127,-188.1168 2361.9895,-184.1634"/>
</g>
<!-- PointedCat_IsPointedFunctor_rec -->
<g id="node7" class="node">
<title>PointedCat_IsPointedFunctor_rec</title>
<g id="a_node7"><a xlink:href="PointedCat.html#IsPointedFunctor_rec" xlink:title="IsPointedFunctor_rec">
<ellipse fill="#f070d1" stroke="#000000" cx="2341" cy="-951.6901" rx="111.5945" ry="18"/>
<ellipse fill="none" stroke="#000000" cx="2341" cy="-951.6901" rx="115.5875" ry="22"/>
<ellipse fill="none" stroke="#000000" cx="2341" cy="-951.6901" rx="119.5805" ry="26"/>
<text text-anchor="middle" x="2341" y="-947.9901" font-family="Times,serif" font-size="14.00" fill="#000000">IsPointedFunctor_rec</text>
</a>
</g>
</g>
<!-- PointedCat_IsPointedFunctor_rect -->
<g id="node9" class="node">
<title>PointedCat_IsPointedFunctor_rect</title>
<g id="a_node9"><a xlink:href="PointedCat.html#IsPointedFunctor_rect" xlink:title="IsPointedFunctor_rect">
<ellipse fill="#f070d1" stroke="#000000" cx="2341" cy="-536.6901" rx="115.8798" ry="18"/>
<text text-anchor="middle" x="2341" y="-532.9901" font-family="Times,serif" font-size="14.00" fill="#000000">IsPointedFunctor_rect</text>
</a>
</g>
</g>
<!-- PointedCat_IsPointedFunctor_rec&#45;&gt;PointedCat_IsPointedFunctor_rect -->
<g id="edge12" class="edge">
<title>PointedCat_IsPointedFunctor_rec&#45;&gt;PointedCat_IsPointedFunctor_rect</title>
<path fill="none" stroke="#000000" d="M2341,-925.4152C2341,-851.3725 2341,-641.4428 2341,-564.9873"/>
<polygon fill="#000000" stroke="#000000" points="2344.5001,-564.7075 2341,-554.7075 2337.5001,-564.7076 2344.5001,-564.7075"/>
</g>
<!-- PointedCat_IsPointedFunctor_ind -->
<g id="node8" class="node">
<title>PointedCat_IsPointedFunctor_ind</title>
<g id="a_node8"><a xlink:href="PointedCat.html#IsPointedFunctor_ind" xlink:title="IsPointedFunctor_ind">
<ellipse fill="#7fffd4" stroke="#000000" cx="2088" cy="-536.6901" rx="111.271" ry="18"/>
<ellipse fill="none" stroke="#000000" cx="2088" cy="-536.6901" rx="115.2757" ry="22"/>
<ellipse fill="none" stroke="#000000" cx="2088" cy="-536.6901" rx="119.2804" ry="26"/>
<text text-anchor="middle" x="2088" y="-532.9901" font-family="Times,serif" font-size="14.00" fill="#000000">IsPointedFunctor_ind</text>
</a>
</g>
</g>
<!-- PointedCat_IsPointedFunctor_ind&#45;&gt;PointedCat_Build_IsPointedFunctor -->
<g id="edge13" class="edge">
<title>PointedCat_IsPointedFunctor_ind&#45;&gt;PointedCat_Build_IsPointedFunctor</title>
<path fill="none" stroke="#000000" d="M2088.7648,-510.4795C2090.758,-442.1647 2096.1009,-259.0517 2098.1677,-188.217"/>
<polygon fill="#000000" stroke="#000000" points="2101.677,-187.9452 2098.4702,-177.8473 2094.68,-187.7409 2101.677,-187.9452"/>
</g>
<!-- PointedCat_IsPointedFunctor_ind&#45;&gt;PointedCat_IsPointedFunctor -->
<g id="edge14" class="edge">
<title>PointedCat_IsPointedFunctor_ind&#45;&gt;PointedCat_IsPointedFunctor</title>
<path fill="none" stroke="#000000" d="M2105.3897,-510.7774C2151.4392,-442.1582 2276.2102,-256.2346 2322.975,-186.5496"/>
<polygon fill="#000000" stroke="#000000" points="2326.1218,-188.1414 2328.7879,-177.8876 2320.3093,-184.2407 2326.1218,-188.1414"/>
</g>
<!-- PointedCat_IsPointedFunctor_rect&#45;&gt;PointedCat_Build_IsPointedFunctor -->
<g id="edge15" class="edge">
<title>PointedCat_IsPointedFunctor_rect&#45;&gt;PointedCat_Build_IsPointedFunctor</title>
<path fill="none" stroke="#000000" d="M2329.3278,-518.5066C2290.0324,-457.2903 2162.4246,-258.4963 2116.0467,-186.2464"/>
<polygon fill="#000000" stroke="#000000" points="2118.9024,-184.2159 2110.555,-177.6912 2113.0116,-187.9973 2118.9024,-184.2159"/>
</g>
<!-- PointedCat_IsPointedFunctor_rect&#45;&gt;PointedCat_IsPointedFunctor -->
<g id="edge16" class="edge">
<title>PointedCat_IsPointedFunctor_rect&#45;&gt;PointedCat_IsPointedFunctor</title>
<path fill="none" stroke="#000000" d="M2341,-518.5066C2341,-457.789 2341,-261.7261 2341,-188.0373"/>
<polygon fill="#000000" stroke="#000000" points="2344.5001,-187.6911 2341,-177.6912 2337.5001,-187.6912 2344.5001,-187.6911"/>
</g>
<!-- PointedCat_zero_morphism -->
<g id="node17" class="node">
<title>PointedCat_zero_morphism</title>
<g id="a_node17"><a xlink:href="PointedCat.html#zero_morphism" xlink:title="zero_morphism">
<ellipse fill="#f070d1" stroke="#000000" cx="1014" cy="-536.6901" rx="82.5854" ry="18"/>
<text text-anchor="middle" x="1014" y="-532.9901" font-family="Times,serif" font-size="14.00" fill="#000000">zero_morphism</text>
</a>
</g>
</g>
<!-- PointedCat_cat_zero_m&#45;&gt;PointedCat_zero_morphism -->
<g id="edge17" class="edge">
<title>PointedCat_cat_zero_m&#45;&gt;PointedCat_zero_morphism</title>
<path fill="none" stroke="#000000" d="M1417.4461,-934.3865C1351.3973,-869.2789 1117.6181,-638.8314 1039.5759,-561.9015"/>
<polygon fill="#000000" stroke="#000000" points="1041.678,-559.0591 1032.0993,-554.5315 1036.7639,-564.0443 1041.678,-559.0591"/>
</g>
<!-- PointedCat_cat_zero_r -->
<g id="node13" class="node">
<title>PointedCat_cat_zero_r</title>
<g id="a_node13"><a xlink:href="PointedCat.html#cat_zero_r" xlink:title="cat_zero_r">
<ellipse fill="#f070d1" stroke="#000000" cx="1226" cy="-951.6901" rx="59.6142" ry="18"/>
<ellipse fill="none" stroke="#000000" cx="1226" cy="-951.6901" rx="63.6021" ry="22"/>
<ellipse fill="none" stroke="#000000" cx="1226" cy="-951.6901" rx="67.59" ry="26"/>
<text text-anchor="middle" x="1226" y="-947.9901" font-family="Times,serif" font-size="14.00" fill="#000000">cat_zero_r</text>
</a>
</g>
</g>
<!-- PointedCat_cat_zero_r&#45;&gt;PointedCat_zero_morphism -->
<g id="edge18" class="edge">
<title>PointedCat_cat_zero_r&#45;&gt;PointedCat_zero_morphism</title>
<path fill="none" stroke="#000000" d="M1212.8984,-926.0432C1175.1529,-852.1546 1066.4121,-639.2892 1027.8027,-563.7095"/>
<polygon fill="#000000" stroke="#000000" points="1030.9108,-562.1 1023.2446,-554.7869 1024.677,-565.2845 1030.9108,-562.1"/>
</g>
<!-- PointedCat_cat_zero_l -->
<g id="node14" class="node">
<title>PointedCat_cat_zero_l</title>
<g id="a_node14"><a xlink:href="PointedCat.html#cat_zero_l" xlink:title="cat_zero_l">
<ellipse fill="#f070d1" stroke="#000000" cx="1074" cy="-951.6901" rx="57.7089" ry="18"/>
<ellipse fill="none" stroke="#000000" cx="1074" cy="-951.6901" rx="61.6995" ry="22"/>
<ellipse fill="none" stroke="#000000" cx="1074" cy="-951.6901" rx="65.6901" ry="26"/>
<text text-anchor="middle" x="1074" y="-947.9901" font-family="Times,serif" font-size="14.00" fill="#000000">cat_zero_l</text>
</a>
</g>
</g>
<!-- PointedCat_cat_zero_l&#45;&gt;PointedCat_zero_morphism -->
<g id="edge19" class="edge">
<title>PointedCat_cat_zero_l&#45;&gt;PointedCat_zero_morphism</title>
<path fill="none" stroke="#000000" d="M1070.2467,-925.73C1059.5854,-851.9891 1029.1769,-641.664 1018.1,-565.0487"/>
<polygon fill="#000000" stroke="#000000" points="1021.5056,-564.1435 1016.6107,-554.7472 1014.5777,-565.1452 1021.5056,-564.1435"/>
</g>
<!-- PointedCat_cat_zero_target -->
<g id="node15" class="node">
<title>PointedCat_cat_zero_target</title>
<g id="a_node15"><a xlink:href="PointedCat.html#cat_zero_target" xlink:title="cat_zero_target">
<ellipse fill="#f070d1" stroke="#000000" cx="898" cy="-951.6901" rx="83.6991" ry="18"/>
<ellipse fill="none" stroke="#000000" cx="898" cy="-951.6901" rx="87.6922" ry="22"/>
<ellipse fill="none" stroke="#000000" cx="898" cy="-951.6901" rx="91.6854" ry="26"/>
<text text-anchor="middle" x="898" y="-947.9901" font-family="Times,serif" font-size="14.00" fill="#000000">cat_zero_target</text>
</a>
</g>
</g>
<!-- PointedCat_cat_zero_target&#45;&gt;PointedCat_zero_morphism -->
<g id="edge20" class="edge">
<title>PointedCat_cat_zero_target&#45;&gt;PointedCat_zero_morphism</title>
<path fill="none" stroke="#000000" d="M905.2563,-925.73C925.9105,-851.838 984.899,-640.8014 1006.2044,-564.5794"/>
<polygon fill="#000000" stroke="#000000" points="1009.6315,-565.3203 1008.9527,-554.7472 1002.8899,-563.4358 1009.6315,-565.3203"/>
</g>
<!-- PointedCat_cat_zero_source -->
<g id="node16" class="node">
<title>PointedCat_cat_zero_source</title>
<g id="a_node16"><a xlink:href="PointedCat.html#cat_zero_source" xlink:title="cat_zero_source">
<ellipse fill="#f070d1" stroke="#000000" cx="694" cy="-951.6901" rx="86.3896" ry="18"/>
<ellipse fill="none" stroke="#000000" cx="694" cy="-951.6901" rx="90.3871" ry="22"/>
<ellipse fill="none" stroke="#000000" cx="694" cy="-951.6901" rx="94.3847" ry="26"/>
<text text-anchor="middle" x="694" y="-947.9901" font-family="Times,serif" font-size="14.00" fill="#000000">cat_zero_source</text>
</a>
</g>
</g>
<!-- PointedCat_cat_zero_source&#45;&gt;PointedCat_zero_morphism -->
<g id="edge21" class="edge">
<title>PointedCat_cat_zero_source&#45;&gt;PointedCat_zero_morphism</title>
<path fill="none" stroke="#000000" d="M713.7759,-926.0432C770.9824,-851.8536 936.2264,-637.5528 993.8727,-562.7928"/>
<polygon fill="#000000" stroke="#000000" points="996.7112,-564.8433 1000.0458,-554.7869 991.1678,-560.5689 996.7112,-564.8433"/>
</g>
<!-- PointedCat_zero_morphism&#45;&gt;PointedCat_IsPointedCat -->
<g id="edge22" class="edge">
<title>PointedCat_zero_morphism&#45;&gt;PointedCat_IsPointedCat</title>
<path fill="none" stroke="#000000" d="M1014,-518.5066C1014,-457.789 1014,-261.7261 1014,-188.0373"/>
<polygon fill="#000000" stroke="#000000" points="1017.5001,-187.6911 1014,-177.6912 1010.5001,-187.6912 1017.5001,-187.6911"/>
</g>
<!-- PointedCat_isterminal_zero_object -->
<g id="node18" class="node">
<title>PointedCat_isterminal_zero_object</title>
<g id="a_node18"><a xlink:href="PointedCat.html#isterminal_zero_object" xlink:title="isterminal_zero_object">
<ellipse fill="#f070d1" stroke="#000000" cx="789" cy="-536.6901" rx="116.1899" ry="18"/>
<ellipse fill="none" stroke="#000000" cx="789" cy="-536.6901" rx="120.1847" ry="22"/>
<ellipse fill="none" stroke="#000000" cx="789" cy="-536.6901" rx="124.1796" ry="26"/>
<text text-anchor="middle" x="789" y="-532.9901" font-family="Times,serif" font-size="14.00" fill="#000000">isterminal_zero_object</text>
</a>
</g>
</g>
<!-- PointedCat_isterminal_zero_object&#45;&gt;PointedCat_IsPointedCat -->
<g id="edge23" class="edge">
<title>PointedCat_isterminal_zero_object&#45;&gt;PointedCat_IsPointedCat</title>
<path fill="none" stroke="#000000" d="M804.4652,-510.7774C845.4183,-442.1582 956.3807,-256.2346 997.9698,-186.5496"/>
<polygon fill="#000000" stroke="#000000" points="1001.02,-188.2682 1003.1395,-177.8876 995.0091,-184.6808 1001.02,-188.2682"/>
</g>
<!-- PointedCat_isinitial_zero_object -->
<g id="node19" class="node">
<title>PointedCat_isinitial_zero_object</title>
<g id="a_node19"><a xlink:href="PointedCat.html#isinitial_zero_object" xlink:title="isinitial_zero_object">
<ellipse fill="#f070d1" stroke="#000000" cx="1389" cy="-536.6901" rx="103.9822" ry="18"/>
<ellipse fill="none" stroke="#000000" cx="1389" cy="-536.6901" rx="107.9819" ry="22"/>
<ellipse fill="none" stroke="#000000" cx="1389" cy="-536.6901" rx="111.9815" ry="26"/>
<text text-anchor="middle" x="1389" y="-532.9901" font-family="Times,serif" font-size="14.00" fill="#000000">isinitial_zero_object</text>
</a>
</g>
</g>
<!-- PointedCat_isinitial_zero_object&#45;&gt;PointedCat_IsPointedCat -->
<g id="edge24" class="edge">
<title>PointedCat_isinitial_zero_object&#45;&gt;PointedCat_IsPointedCat</title>
<path fill="none" stroke="#000000" d="M1363.5195,-511.0738C1294.9477,-442.1362 1107.0939,-253.2805 1039.0381,-184.8617"/>
<polygon fill="#000000" stroke="#000000" points="1041.2508,-182.1233 1031.717,-177.5017 1036.2878,-187.0598 1041.2508,-182.1233"/>
</g>
<!-- PointedCat_zero_object -->
<g id="node20" class="node">
<title>PointedCat_zero_object</title>
<g id="a_node20"><a xlink:href="PointedCat.html#zero_object" xlink:title="zero_object">
<ellipse fill="#f070d1" stroke="#000000" cx="1187" cy="-536.6901" rx="64.2061" ry="18"/>
<ellipse fill="none" stroke="#000000" cx="1187" cy="-536.6901" rx="68.1975" ry="22"/>
<ellipse fill="none" stroke="#000000" cx="1187" cy="-536.6901" rx="72.1889" ry="26"/>
<text text-anchor="middle" x="1187" y="-532.9901" font-family="Times,serif" font-size="14.00" fill="#000000">zero_object</text>
</a>
</g>
</g>
<!-- PointedCat_zero_object&#45;&gt;PointedCat_IsPointedCat -->
<g id="edge25" class="edge">
<title>PointedCat_zero_object&#45;&gt;PointedCat_IsPointedCat</title>
<path fill="none" stroke="#000000" d="M1175.109,-510.7774C1143.6849,-442.2982 1058.6509,-256.9929 1026.5219,-186.9777"/>
<polygon fill="#000000" stroke="#000000" points="1029.7024,-185.5165 1022.3505,-177.8876 1023.3402,-188.4361 1029.7024,-185.5165"/>
</g>
<!-- PointedCat_IsPointedCat_sind -->
<g id="node21" class="node">
<title>PointedCat_IsPointedCat_sind</title>
<g id="a_node21"><a xlink:href="PointedCat.html#IsPointedCat_sind" xlink:title="IsPointedCat_sind">
<ellipse fill="#f070d1" stroke="#000000" cx="543" cy="-536.6901" rx="95.5799" ry="18"/>
<ellipse fill="none" stroke="#000000" cx="543" cy="-536.6901" rx="99.5815" ry="22"/>
<ellipse fill="none" stroke="#000000" cx="543" cy="-536.6901" rx="103.5831" ry="26"/>
<text text-anchor="middle" x="543" y="-532.9901" font-family="Times,serif" font-size="14.00" fill="#000000">IsPointedCat_sind</text>
</a>
</g>
</g>
<!-- PointedCat_Build_IsPointedCat -->
<g id="node25" class="node">
<title>PointedCat_Build_IsPointedCat</title>
<g id="a_node25"><a xlink:href="PointedCat.html#Build_IsPointedCat" xlink:title="Build_IsPointedCat">
<ellipse fill="#7faaff" stroke="#000000" cx="327" cy="-159.6901" rx="100.9827" ry="18"/>
<text text-anchor="middle" x="327" y="-155.9901" font-family="Times,serif" font-size="14.00" fill="#000000">Build_IsPointedCat</text>
</a>
</g>
</g>
<!-- PointedCat_IsPointedCat_sind&#45;&gt;PointedCat_Build_IsPointedCat -->
<g id="edge26" class="edge">
<title>PointedCat_IsPointedCat_sind&#45;&gt;PointedCat_Build_IsPointedCat</title>
<path fill="none" stroke="#000000" d="M528.1534,-510.7774C488.9187,-442.2982 382.7491,-256.9929 342.6342,-186.9777"/>
<polygon fill="#000000" stroke="#000000" points="345.4343,-184.8244 337.4261,-177.8876 339.3606,-188.3043 345.4343,-184.8244"/>
</g>
<!-- PointedCat_IsPointedCat_sind&#45;&gt;PointedCat_IsPointedCat -->
<g id="edge27" class="edge">
<title>PointedCat_IsPointedCat_sind&#45;&gt;PointedCat_IsPointedCat</title>
<path fill="none" stroke="#000000" d="M574.2684,-511.6622C660.4652,-442.6681 900.6425,-250.4243 984.5857,-183.2341"/>
<polygon fill="#000000" stroke="#000000" points="986.8204,-185.9285 992.4404,-176.947 982.4461,-180.4635 986.8204,-185.9285"/>
</g>
<!-- PointedCat_IsPointedCat_rec -->
<g id="node22" class="node">
<title>PointedCat_IsPointedCat_rec</title>
<g id="a_node22"><a xlink:href="PointedCat.html#IsPointedCat_rec" xlink:title="IsPointedCat_rec">
<ellipse fill="#f070d1" stroke="#000000" cx="327" cy="-951.6901" rx="90.9845" ry="18"/>
<ellipse fill="none" stroke="#000000" cx="327" cy="-951.6901" rx="94.9842" ry="22"/>
<ellipse fill="none" stroke="#000000" cx="327" cy="-951.6901" rx="98.9839" ry="26"/>
<text text-anchor="middle" x="327" y="-947.9901" font-family="Times,serif" font-size="14.00" fill="#000000">IsPointedCat_rec</text>
</a>
</g>
</g>
<!-- PointedCat_IsPointedCat_rect -->
<g id="node24" class="node">
<title>PointedCat_IsPointedCat_rect</title>
<g id="a_node24"><a xlink:href="PointedCat.html#IsPointedCat_rect" xlink:title="IsPointedCat_rect">
<ellipse fill="#f070d1" stroke="#000000" cx="327" cy="-536.6901" rx="94.7833" ry="18"/>
<text text-anchor="middle" x="327" y="-532.9901" font-family="Times,serif" font-size="14.00" fill="#000000">IsPointedCat_rect</text>
</a>
</g>
</g>
<!-- PointedCat_IsPointedCat_rec&#45;&gt;PointedCat_IsPointedCat_rect -->
<g id="edge28" class="edge">
<title>PointedCat_IsPointedCat_rec&#45;&gt;PointedCat_IsPointedCat_rect</title>
<path fill="none" stroke="#000000" d="M327,-925.4152C327,-851.3725 327,-641.4428 327,-564.9873"/>
<polygon fill="#000000" stroke="#000000" points="330.5001,-564.7075 327,-554.7075 323.5001,-564.7076 330.5001,-564.7075"/>
</g>
<!-- PointedCat_IsPointedCat_ind -->
<g id="node23" class="node">
<title>PointedCat_IsPointedCat_ind</title>
<g id="a_node23"><a xlink:href="PointedCat.html#IsPointedCat_ind" xlink:title="IsPointedCat_ind">
<ellipse fill="#7fffd4" stroke="#000000" cx="115" cy="-536.6901" rx="90.9845" ry="18"/>
<ellipse fill="none" stroke="#000000" cx="115" cy="-536.6901" rx="94.9842" ry="22"/>
<ellipse fill="none" stroke="#000000" cx="115" cy="-536.6901" rx="98.9839" ry="26"/>
<text text-anchor="middle" x="115" y="-532.9901" font-family="Times,serif" font-size="14.00" fill="#000000">IsPointedCat_ind</text>
</a>
</g>
</g>
<!-- PointedCat_IsPointedCat_ind&#45;&gt;PointedCat_Build_IsPointedCat -->
<g id="edge29" class="edge">
<title>PointedCat_IsPointedCat_ind&#45;&gt;PointedCat_Build_IsPointedCat</title>
<path fill="none" stroke="#000000" d="M129.5716,-510.7774C168.0798,-442.2982 272.2833,-256.9929 311.6553,-186.9777"/>
<polygon fill="#000000" stroke="#000000" points="314.9161,-188.3195 316.767,-177.8876 308.8147,-184.8884 314.9161,-188.3195"/>
</g>
<!-- PointedCat_IsPointedCat_ind&#45;&gt;PointedCat_IsPointedCat -->
<g id="edge30" class="edge">
<title>PointedCat_IsPointedCat_ind&#45;&gt;PointedCat_IsPointedCat</title>
<path fill="none" stroke="#000000" d="M167.5496,-514.6532C328.6956,-447.0759 814.2251,-243.4667 967.2661,-179.2882"/>
<polygon fill="#000000" stroke="#000000" points="968.9904,-182.3605 976.8588,-175.2655 966.2833,-175.9051 968.9904,-182.3605"/>
</g>
<!-- PointedCat_IsPointedCat_rect&#45;&gt;PointedCat_Build_IsPointedCat -->
<g id="edge31" class="edge">
<title>PointedCat_IsPointedCat_rect&#45;&gt;PointedCat_Build_IsPointedCat</title>
<path fill="none" stroke="#000000" d="M327,-518.5066C327,-457.789 327,-261.7261 327,-188.0373"/>
<polygon fill="#000000" stroke="#000000" points="330.5001,-187.6911 327,-177.6912 323.5001,-187.6912 330.5001,-187.6911"/>
</g>
<!-- PointedCat_IsPointedCat_rect&#45;&gt;PointedCat_IsPointedCat -->
<g id="edge32" class="edge">
<title>PointedCat_IsPointedCat_rect&#45;&gt;PointedCat_IsPointedCat</title>
<path fill="none" stroke="#000000" d="M358.3041,-519.5116C470.3576,-458.0208 851.3599,-248.941 974.9476,-181.1206"/>
<polygon fill="#000000" stroke="#000000" points="976.9904,-183.992 984.0733,-176.1128 973.6228,-177.8553 976.9904,-183.992"/>
</g>
</g>
</svg>
