<?xml version="1.0" encoding="UTF-8" standalone="no"?>
<!DOCTYPE svg PUBLIC "-//W3C//DTD SVG 1.1//EN"
 "http://www.w3.org/Graphics/SVG/1.1/DTD/svg11.dtd">
<!-- Generated by graphviz version 2.40.1 (20161225.0304)
 -->
<!-- Title: HoTT_Types_Equiv Pages: 1 -->
<svg width="1246pt" height="627pt"
 viewBox="0.00 0.00 1246.00 627.00" xmlns="http://www.w3.org/2000/svg" xmlns:xlink="http://www.w3.org/1999/xlink">
<g id="graph0" class="graph" transform="scale(1 1) rotate(0) translate(4 623)">
<title>HoTT_Types_Equiv</title>
<polygon fill="#ffffff" stroke="transparent" points="-4,4 -4,-623 1242,-623 1242,4 -4,4"/>
<g id="clust1" class="cluster">
<title>cluster_Equiv</title>
<polygon fill="#ffffc3" stroke="#000000" points="8.052,-8 8.052,-611 1229.948,-611 1229.948,-8 8.052,-8"/>
<text text-anchor="middle" x="37.052" y="-595.8" font-family="Times,serif" font-size="14.00" fill="#000000">Equiv</text>
</g>
<!-- Equiv_equiv_total_iff_equiv_fiberwise -->
<g id="node1" class="node">
<title>Equiv_equiv_total_iff_equiv_fiberwise</title>
<g id="a_node1"><a xlink:href="Equiv.html#equiv_total_iff_equiv_fiberwise" xlink:title="equiv_total_iff_equiv_fiberwise">
<ellipse fill="#f070d1" stroke="#000000" cx="281.426" cy="-202" rx="155.1806" ry="18"/>
<ellipse fill="none" stroke="#000000" cx="281.426" cy="-202" rx="159.1766" ry="22"/>
<ellipse fill="none" stroke="#000000" cx="281.426" cy="-202" rx="163.1726" ry="26"/>
<text text-anchor="middle" x="281.426" y="-198.3" font-family="Times,serif" font-size="14.00" fill="#000000">equiv_total_iff_equiv_fiberwise</text>
</a>
</g>
</g>
<!-- Equiv_isequiv_from_functor_sigma -->
<g id="node2" class="node">
<title>Equiv_isequiv_from_functor_sigma</title>
<g id="a_node2"><a xlink:href="Equiv.html#isequiv_from_functor_sigma" xlink:title="isequiv_from_functor_sigma">
<ellipse fill="#f070d1" stroke="#000000" cx="260.426" cy="-114" rx="142.1749" ry="18"/>
<text text-anchor="middle" x="260.426" y="-110.3" font-family="Times,serif" font-size="14.00" fill="#000000">isequiv_from_functor_sigma</text>
</a>
</g>
</g>
<!-- Equiv_equiv_total_iff_equiv_fiberwise&#45;&gt;Equiv_isequiv_from_functor_sigma -->
<g id="edge1" class="edge">
<title>Equiv_equiv_total_iff_equiv_fiberwise&#45;&gt;Equiv_isequiv_from_functor_sigma</title>
<path fill="none" stroke="#000000" d="M275.1253,-175.5971C272.5801,-164.9314 269.6408,-152.6142 267.0625,-141.8102"/>
<polygon fill="#000000" stroke="#000000" points="270.4516,-140.9332 264.726,-132.0188 263.6428,-142.5581 270.4516,-140.9332"/>
</g>
<!-- Equiv_isequiv_contr_map -->
<g id="node19" class="node">
<title>Equiv_isequiv_contr_map</title>
<g id="a_node19"><a xlink:href="Equiv.html#isequiv_contr_map" xlink:title="isequiv_contr_map">
<ellipse fill="#f070d1" stroke="#000000" cx="260.426" cy="-34" rx="98.5829" ry="18"/>
<text text-anchor="middle" x="260.426" y="-30.3" font-family="Times,serif" font-size="14.00" fill="#000000">isequiv_contr_map</text>
</a>
</g>
</g>
<!-- Equiv_isequiv_from_functor_sigma&#45;&gt;Equiv_isequiv_contr_map -->
<g id="edge2" class="edge">
<title>Equiv_isequiv_from_functor_sigma&#45;&gt;Equiv_isequiv_contr_map</title>
<path fill="none" stroke="#000000" d="M260.426,-95.8468C260.426,-85.9251 260.426,-73.4167 260.426,-62.2492"/>
<polygon fill="#000000" stroke="#000000" points="263.9261,-62.0814 260.426,-52.0814 256.9261,-62.0814 263.9261,-62.0814"/>
</g>
<!-- Equiv_contr_map_isequiv -->
<g id="node20" class="node">
<title>Equiv_contr_map_isequiv</title>
<g id="a_node20"><a xlink:href="Equiv.html#contr_map_isequiv" xlink:title="contr_map_isequiv">
<ellipse fill="#f070d1" stroke="#000000" cx="675.426" cy="-34" rx="98.5829" ry="18"/>
<text text-anchor="middle" x="675.426" y="-30.3" font-family="Times,serif" font-size="14.00" fill="#000000">contr_map_isequiv</text>
</a>
</g>
</g>
<!-- Equiv_isequiv_from_functor_sigma&#45;&gt;Equiv_contr_map_isequiv -->
<g id="edge3" class="edge">
<title>Equiv_isequiv_from_functor_sigma&#45;&gt;Equiv_contr_map_isequiv</title>
<path fill="none" stroke="#000000" d="M338.9722,-98.8586C413.0341,-84.5816 523.4087,-63.3045 597.3248,-49.0557"/>
<polygon fill="#000000" stroke="#000000" points="598.3484,-52.4229 607.5051,-47.0932 597.0233,-45.5494 598.3484,-52.4229"/>
</g>
<!-- Equiv_equiv_equiv_inverse -->
<g id="node3" class="node">
<title>Equiv_equiv_equiv_inverse</title>
<g id="a_node3"><a xlink:href="Equiv.html#equiv_equiv_inverse" xlink:title="equiv_equiv_inverse">
<ellipse fill="#f070d1" stroke="#000000" cx="861.426" cy="-554" rx="105.0965" ry="18"/>
<ellipse fill="none" stroke="#000000" cx="861.426" cy="-554" rx="109.0891" ry="22"/>
<ellipse fill="none" stroke="#000000" cx="861.426" cy="-554" rx="113.0817" ry="26"/>
<text text-anchor="middle" x="861.426" y="-550.3" font-family="Times,serif" font-size="14.00" fill="#000000">equiv_equiv_inverse</text>
</a>
</g>
</g>
<!-- Equiv_isequiv_equiv_inverse -->
<g id="node4" class="node">
<title>Equiv_isequiv_equiv_inverse</title>
<g id="a_node4"><a xlink:href="Equiv.html#isequiv_equiv_inverse" xlink:title="isequiv_equiv_inverse">
<ellipse fill="#f070d1" stroke="#000000" cx="862.426" cy="-466" rx="113.18" ry="18"/>
<text text-anchor="middle" x="862.426" y="-462.3" font-family="Times,serif" font-size="14.00" fill="#000000">isequiv_equiv_inverse</text>
</a>
</g>
</g>
<!-- Equiv_equiv_equiv_inverse&#45;&gt;Equiv_isequiv_equiv_inverse -->
<g id="edge4" class="edge">
<title>Equiv_equiv_equiv_inverse&#45;&gt;Equiv_isequiv_equiv_inverse</title>
<path fill="none" stroke="#000000" d="M861.726,-527.5971C861.846,-517.0414 861.9843,-504.868 862.1062,-494.1448"/>
<polygon fill="#000000" stroke="#000000" points="865.6073,-494.058 862.2213,-484.0188 858.6078,-493.9784 865.6073,-494.058"/>
</g>
<!-- Equiv_path_equiv -->
<g id="node12" class="node">
<title>Equiv_path_equiv</title>
<g id="a_node12"><a xlink:href="Equiv.html#path_equiv" xlink:title="path_equiv">
<ellipse fill="#f070d1" stroke="#000000" cx="622.426" cy="-378" rx="61.99" ry="18"/>
<text text-anchor="middle" x="622.426" y="-374.3" font-family="Times,serif" font-size="14.00" fill="#000000">path_equiv</text>
</a>
</g>
</g>
<!-- Equiv_isequiv_equiv_inverse&#45;&gt;Equiv_path_equiv -->
<g id="edge5" class="edge">
<title>Equiv_isequiv_equiv_inverse&#45;&gt;Equiv_path_equiv</title>
<path fill="none" stroke="#000000" d="M817.2839,-449.4479C775.4609,-434.1128 713.4392,-411.3715 670.6566,-395.6845"/>
<polygon fill="#000000" stroke="#000000" points="671.6215,-392.3105 661.0278,-392.154 669.2117,-398.8827 671.6215,-392.3105"/>
</g>
<!-- Equiv_equiv_functor_equiv -->
<g id="node5" class="node">
<title>Equiv_equiv_functor_equiv</title>
<g id="a_node5"><a xlink:href="Equiv.html#equiv_functor_equiv" xlink:title="equiv_functor_equiv">
<ellipse fill="#f070d1" stroke="#000000" cx="1108.426" cy="-554" rx="105.0965" ry="18"/>
<ellipse fill="none" stroke="#000000" cx="1108.426" cy="-554" rx="109.0891" ry="22"/>
<ellipse fill="none" stroke="#000000" cx="1108.426" cy="-554" rx="113.0817" ry="26"/>
<text text-anchor="middle" x="1108.426" y="-550.3" font-family="Times,serif" font-size="14.00" fill="#000000">equiv_functor_equiv</text>
</a>
</g>
</g>
<!-- Equiv_isequiv_functor_equiv -->
<g id="node6" class="node">
<title>Equiv_isequiv_functor_equiv</title>
<g id="a_node6"><a xlink:href="Equiv.html#isequiv_functor_equiv" xlink:title="isequiv_functor_equiv">
<ellipse fill="#f070d1" stroke="#000000" cx="1108.426" cy="-466" rx="113.18" ry="18"/>
<text text-anchor="middle" x="1108.426" y="-462.3" font-family="Times,serif" font-size="14.00" fill="#000000">isequiv_functor_equiv</text>
</a>
</g>
</g>
<!-- Equiv_equiv_functor_equiv&#45;&gt;Equiv_isequiv_functor_equiv -->
<g id="edge6" class="edge">
<title>Equiv_equiv_functor_equiv&#45;&gt;Equiv_isequiv_functor_equiv</title>
<path fill="none" stroke="#000000" d="M1108.426,-527.5971C1108.426,-517.0414 1108.426,-504.868 1108.426,-494.1448"/>
<polygon fill="#000000" stroke="#000000" points="1111.9261,-494.0188 1108.426,-484.0188 1104.9261,-494.0188 1111.9261,-494.0188"/>
</g>
<!-- Equiv_functor_equiv -->
<g id="node7" class="node">
<title>Equiv_functor_equiv</title>
<g id="a_node7"><a xlink:href="Equiv.html#functor_equiv" xlink:title="functor_equiv">
<ellipse fill="#f070d1" stroke="#000000" cx="1108.426" cy="-378" rx="75.2868" ry="18"/>
<text text-anchor="middle" x="1108.426" y="-374.3" font-family="Times,serif" font-size="14.00" fill="#000000">functor_equiv</text>
</a>
</g>
</g>
<!-- Equiv_isequiv_functor_equiv&#45;&gt;Equiv_functor_equiv -->
<g id="edge7" class="edge">
<title>Equiv_isequiv_functor_equiv&#45;&gt;Equiv_functor_equiv</title>
<path fill="none" stroke="#000000" d="M1108.426,-447.7663C1108.426,-435.8492 1108.426,-420.0384 1108.426,-406.4817"/>
<polygon fill="#000000" stroke="#000000" points="1111.9261,-406.2103 1108.426,-396.2103 1104.9261,-406.2103 1111.9261,-406.2103"/>
</g>
<!-- Equiv_isequiv_functor_equiv&#45;&gt;Equiv_path_equiv -->
<g id="edge8" class="edge">
<title>Equiv_isequiv_functor_equiv&#45;&gt;Equiv_path_equiv</title>
<path fill="none" stroke="#000000" d="M1041.2666,-451.4444C1022.8664,-447.5858 1002.9006,-443.5177 984.426,-440 880.4832,-420.2086 759.187,-400.0238 686.711,-388.2717"/>
<polygon fill="#000000" stroke="#000000" points="687.246,-384.8128 676.8153,-386.6704 686.1277,-391.723 687.246,-384.8128"/>
</g>
<!-- Equiv_contr_aut_hprop -->
<g id="node8" class="node">
<title>Equiv_contr_aut_hprop</title>
<g id="a_node8"><a xlink:href="Equiv.html#contr_aut_hprop" xlink:title="contr_aut_hprop">
<ellipse fill="#f070d1" stroke="#000000" cx="398.426" cy="-466" rx="87.9648" ry="18"/>
<ellipse fill="none" stroke="#000000" cx="398.426" cy="-466" rx="91.9749" ry="22"/>
<ellipse fill="none" stroke="#000000" cx="398.426" cy="-466" rx="95.985" ry="26"/>
<text text-anchor="middle" x="398.426" y="-462.3" font-family="Times,serif" font-size="14.00" fill="#000000">contr_aut_hprop</text>
</a>
</g>
</g>
<!-- Equiv_contr_aut_hprop&#45;&gt;Equiv_path_equiv -->
<g id="edge9" class="edge">
<title>Equiv_contr_aut_hprop&#45;&gt;Equiv_path_equiv</title>
<path fill="none" stroke="#000000" d="M452.9361,-444.5853C490.5785,-429.7972 540.1076,-410.3394 575.8946,-396.2802"/>
<polygon fill="#000000" stroke="#000000" points="577.5749,-399.3805 585.6026,-392.4663 575.0153,-392.8653 577.5749,-399.3805"/>
</g>
<!-- Equiv_contr_equiv_contr_contr -->
<g id="node9" class="node">
<title>Equiv_contr_equiv_contr_contr</title>
<g id="a_node9"><a xlink:href="Equiv.html#contr_equiv_contr_contr" xlink:title="contr_equiv_contr_contr">
<ellipse fill="#f070d1" stroke="#000000" cx="150.426" cy="-466" rx="125.3814" ry="18"/>
<ellipse fill="none" stroke="#000000" cx="150.426" cy="-466" rx="129.3796" ry="22"/>
<ellipse fill="none" stroke="#000000" cx="150.426" cy="-466" rx="133.3778" ry="26"/>
<text text-anchor="middle" x="150.426" y="-462.3" font-family="Times,serif" font-size="14.00" fill="#000000">contr_equiv_contr_contr</text>
</a>
</g>
</g>
<!-- Equiv_contr_equiv_contr_contr&#45;&gt;Equiv_path_equiv -->
<g id="edge10" class="edge">
<title>Equiv_contr_equiv_contr_contr&#45;&gt;Equiv_path_equiv</title>
<path fill="none" stroke="#000000" d="M246.8705,-447.9125C262.4186,-445.1557 278.3536,-442.4248 293.426,-440 407.2992,-421.6801 438.4732,-431.7358 550.426,-404 559.0489,-401.8637 568.0775,-399.0704 576.7122,-396.1089"/>
<polygon fill="#000000" stroke="#000000" points="577.9998,-399.3658 586.2509,-392.7197 575.6562,-392.7698 577.9998,-399.3658"/>
</g>
<!-- Equiv_istrunc_equiv -->
<g id="node10" class="node">
<title>Equiv_istrunc_equiv</title>
<g id="a_node10"><a xlink:href="Equiv.html#istrunc_equiv" xlink:title="istrunc_equiv">
<ellipse fill="#f070d1" stroke="#000000" cx="459.426" cy="-378" rx="74.1778" ry="18"/>
<ellipse fill="none" stroke="#000000" cx="459.426" cy="-378" rx="78.1824" ry="22"/>
<ellipse fill="none" stroke="#000000" cx="459.426" cy="-378" rx="82.187" ry="26"/>
<text text-anchor="middle" x="459.426" y="-374.3" font-family="Times,serif" font-size="14.00" fill="#000000">istrunc_equiv</text>
</a>
</g>
</g>
<!-- Equiv_equiv_path_equiv -->
<g id="node13" class="node">
<title>Equiv_equiv_path_equiv</title>
<g id="a_node13"><a xlink:href="Equiv.html#equiv_path_equiv" xlink:title="equiv_path_equiv">
<ellipse fill="#f070d1" stroke="#000000" cx="581.426" cy="-290" rx="92.0841" ry="18"/>
<text text-anchor="middle" x="581.426" y="-286.3" font-family="Times,serif" font-size="14.00" fill="#000000">equiv_path_equiv</text>
</a>
</g>
</g>
<!-- Equiv_istrunc_equiv&#45;&gt;Equiv_equiv_path_equiv -->
<g id="edge11" class="edge">
<title>Equiv_istrunc_equiv&#45;&gt;Equiv_equiv_path_equiv</title>
<path fill="none" stroke="#000000" d="M492.441,-354.1859C510.0278,-341.5003 531.577,-325.9567 549.0642,-313.3429"/>
<polygon fill="#000000" stroke="#000000" points="551.2247,-316.1001 557.2874,-307.4114 547.1296,-310.4229 551.2247,-316.1001"/>
</g>
<!-- Equiv_isequiv_path_equiv -->
<g id="node11" class="node">
<title>Equiv_isequiv_path_equiv</title>
<g id="a_node11"><a xlink:href="Equiv.html#isequiv_path_equiv" xlink:title="isequiv_path_equiv">
<ellipse fill="#f070d1" stroke="#000000" cx="622.426" cy="-466" rx="100.1756" ry="18"/>
<ellipse fill="none" stroke="#000000" cx="622.426" cy="-466" rx="104.1789" ry="22"/>
<ellipse fill="none" stroke="#000000" cx="622.426" cy="-466" rx="108.1823" ry="26"/>
<text text-anchor="middle" x="622.426" y="-462.3" font-family="Times,serif" font-size="14.00" fill="#000000">isequiv_path_equiv</text>
</a>
</g>
</g>
<!-- Equiv_isequiv_path_equiv&#45;&gt;Equiv_path_equiv -->
<g id="edge12" class="edge">
<title>Equiv_isequiv_path_equiv&#45;&gt;Equiv_path_equiv</title>
<path fill="none" stroke="#000000" d="M622.426,-439.5971C622.426,-429.0414 622.426,-416.868 622.426,-406.1448"/>
<polygon fill="#000000" stroke="#000000" points="625.9261,-406.0188 622.426,-396.0188 618.9261,-406.0188 625.9261,-406.0188"/>
</g>
<!-- Equiv_path_equiv&#45;&gt;Equiv_equiv_path_equiv -->
<g id="edge13" class="edge">
<title>Equiv_path_equiv&#45;&gt;Equiv_equiv_path_equiv</title>
<path fill="none" stroke="#000000" d="M613.9308,-359.7663C608.2135,-347.4952 600.5729,-331.0957 594.1359,-317.2798"/>
<polygon fill="#000000" stroke="#000000" points="597.3062,-315.7966 589.9104,-308.2103 590.9611,-318.7529 597.3062,-315.7966"/>
</g>
<!-- Equiv_hprop_isequiv -->
<g id="node15" class="node">
<title>Equiv_hprop_isequiv</title>
<g id="a_node15"><a xlink:href="Equiv.html#hprop_isequiv" xlink:title="hprop_isequiv">
<ellipse fill="#f070d1" stroke="#000000" cx="581.426" cy="-202" rx="76.0865" ry="18"/>
<text text-anchor="middle" x="581.426" y="-198.3" font-family="Times,serif" font-size="14.00" fill="#000000">hprop_isequiv</text>
</a>
</g>
</g>
<!-- Equiv_equiv_path_equiv&#45;&gt;Equiv_hprop_isequiv -->
<g id="edge14" class="edge">
<title>Equiv_equiv_path_equiv&#45;&gt;Equiv_hprop_isequiv</title>
<path fill="none" stroke="#000000" d="M581.426,-271.7663C581.426,-259.8492 581.426,-244.0384 581.426,-230.4817"/>
<polygon fill="#000000" stroke="#000000" points="584.9261,-230.2103 581.426,-220.2103 577.9261,-230.2103 584.9261,-230.2103"/>
</g>
<!-- Equiv_equiv_contr_map_isequiv -->
<g id="node14" class="node">
<title>Equiv_equiv_contr_map_isequiv</title>
<g id="a_node14"><a xlink:href="Equiv.html#equiv_contr_map_isequiv" xlink:title="equiv_contr_map_isequiv">
<ellipse fill="#f070d1" stroke="#000000" cx="223.426" cy="-290" rx="128.8664" ry="18"/>
<ellipse fill="none" stroke="#000000" cx="223.426" cy="-290" rx="132.8719" ry="22"/>
<ellipse fill="none" stroke="#000000" cx="223.426" cy="-290" rx="136.8774" ry="26"/>
<text text-anchor="middle" x="223.426" y="-286.3" font-family="Times,serif" font-size="14.00" fill="#000000">equiv_contr_map_isequiv</text>
</a>
</g>
</g>
<!-- Equiv_equiv_contr_map_isequiv&#45;&gt;Equiv_hprop_isequiv -->
<g id="edge15" class="edge">
<title>Equiv_equiv_contr_map_isequiv&#45;&gt;Equiv_hprop_isequiv</title>
<path fill="none" stroke="#000000" d="M307.3611,-269.3679C372.0272,-253.4723 460.0122,-231.8447 518.6629,-217.4278"/>
<polygon fill="#000000" stroke="#000000" points="519.6618,-220.7865 528.5372,-215.0006 517.9908,-213.9889 519.6618,-220.7865"/>
</g>
<!-- Equiv_equiv_contr_map_isequiv&#45;&gt;Equiv_isequiv_contr_map -->
<g id="edge16" class="edge">
<title>Equiv_equiv_contr_map_isequiv&#45;&gt;Equiv_isequiv_contr_map</title>
<path fill="none" stroke="#000000" d="M154.5602,-267.4308C136.7625,-258.1238 119.7296,-245.3325 109.426,-228 77.6309,-174.5147 73.5937,-138.8689 109.426,-88 119.349,-73.913 154.9787,-60.8239 189.1357,-51.0612"/>
<polygon fill="#000000" stroke="#000000" points="190.4838,-54.3192 199.1816,-48.2695 188.6096,-47.5748 190.4838,-54.3192"/>
</g>
<!-- Equiv_contr_sect_equiv -->
<g id="node17" class="node">
<title>Equiv_contr_sect_equiv</title>
<g id="a_node17"><a xlink:href="Equiv.html#contr_sect_equiv" xlink:title="contr_sect_equiv">
<ellipse fill="#f070d1" stroke="#000000" cx="796.426" cy="-114" rx="90.1842" ry="18"/>
<text text-anchor="middle" x="796.426" y="-110.3" font-family="Times,serif" font-size="14.00" fill="#000000">contr_sect_equiv</text>
</a>
</g>
</g>
<!-- Equiv_hprop_isequiv&#45;&gt;Equiv_contr_sect_equiv -->
<g id="edge17" class="edge">
<title>Equiv_hprop_isequiv&#45;&gt;Equiv_contr_sect_equiv</title>
<path fill="none" stroke="#000000" d="M619.8637,-186.2674C655.4951,-171.6833 708.681,-149.9142 747.3639,-134.0813"/>
<polygon fill="#000000" stroke="#000000" points="748.9375,-137.219 756.8665,-130.1918 746.2859,-130.7407 748.9375,-137.219"/>
</g>
<!-- Equiv_contr_retr_equiv -->
<g id="node16" class="node">
<title>Equiv_contr_retr_equiv</title>
<g id="a_node16"><a xlink:href="Equiv.html#contr_retr_equiv" xlink:title="contr_retr_equiv">
<ellipse fill="#f070d1" stroke="#000000" cx="1002.426" cy="-114" rx="89.0807" ry="18"/>
<ellipse fill="none" stroke="#000000" cx="1002.426" cy="-114" rx="93.0825" ry="22"/>
<ellipse fill="none" stroke="#000000" cx="1002.426" cy="-114" rx="97.0842" ry="26"/>
<text text-anchor="middle" x="1002.426" y="-110.3" font-family="Times,serif" font-size="14.00" fill="#000000">contr_retr_equiv</text>
</a>
</g>
</g>
<!-- Equiv_contr_retr_equiv&#45;&gt;Equiv_contr_map_isequiv -->
<g id="edge18" class="edge">
<title>Equiv_contr_retr_equiv&#45;&gt;Equiv_contr_map_isequiv</title>
<path fill="none" stroke="#000000" d="M930.6645,-96.4437C875.2673,-82.8908 799.0958,-64.2556 744.4096,-50.8767"/>
<polygon fill="#000000" stroke="#000000" points="745.0036,-47.4189 734.4583,-48.4422 743.3401,-54.2184 745.0036,-47.4189"/>
</g>
<!-- Equiv_contr_sect_equiv&#45;&gt;Equiv_contr_map_isequiv -->
<g id="edge19" class="edge">
<title>Equiv_contr_sect_equiv&#45;&gt;Equiv_contr_map_isequiv</title>
<path fill="none" stroke="#000000" d="M770.1708,-96.6412C752.6911,-85.0844 729.5249,-69.7678 710.4754,-57.1731"/>
<polygon fill="#000000" stroke="#000000" points="712.3198,-54.1968 702.0478,-51.6012 708.4592,-60.036 712.3198,-54.1968"/>
</g>
<!-- Equiv_isequiv_inhab_codomain -->
<g id="node18" class="node">
<title>Equiv_isequiv_inhab_codomain</title>
<g id="a_node18"><a xlink:href="Equiv.html#isequiv_inhab_codomain" xlink:title="isequiv_inhab_codomain">
<ellipse fill="#f070d1" stroke="#000000" cx="554.426" cy="-114" rx="124.2697" ry="18"/>
<ellipse fill="none" stroke="#000000" cx="554.426" cy="-114" rx="128.2739" ry="22"/>
<ellipse fill="none" stroke="#000000" cx="554.426" cy="-114" rx="132.2781" ry="26"/>
<text text-anchor="middle" x="554.426" y="-110.3" font-family="Times,serif" font-size="14.00" fill="#000000">isequiv_inhab_codomain</text>
</a>
</g>
</g>
<!-- Equiv_isequiv_inhab_codomain&#45;&gt;Equiv_isequiv_contr_map -->
<g id="edge20" class="edge">
<title>Equiv_isequiv_inhab_codomain&#45;&gt;Equiv_isequiv_contr_map</title>
<path fill="none" stroke="#000000" d="M476.7964,-92.8763C429.664,-80.0512 370.1864,-63.8668 325.5239,-51.7137"/>
<polygon fill="#000000" stroke="#000000" points="326.2245,-48.2772 315.6564,-49.0287 324.3866,-55.0316 326.2245,-48.2772"/>
</g>
<!-- Equiv_isequiv_inhab_codomain&#45;&gt;Equiv_contr_map_isequiv -->
<g id="edge21" class="edge">
<title>Equiv_isequiv_inhab_codomain&#45;&gt;Equiv_contr_map_isequiv</title>
<path fill="none" stroke="#000000" d="M592.3792,-88.907C607.7903,-78.7178 625.4792,-67.0227 640.5606,-57.0515"/>
<polygon fill="#000000" stroke="#000000" points="642.6907,-59.839 649.1021,-51.4043 638.8301,-53.9999 642.6907,-59.839"/>
</g>
</g>
</svg>
