<?xml version="1.0" encoding="UTF-8" standalone="no"?>
<!DOCTYPE svg PUBLIC "-//W3C//DTD SVG 1.1//EN"
 "http://www.w3.org/Graphics/SVG/1.1/DTD/svg11.dtd">
<!-- Generated by graphviz version 2.40.1 (20161225.0304)
 -->
<!-- Title: HoTT_Modalities_Closed Pages: 1 -->
<svg width="654pt" height="331pt"
 viewBox="0.00 0.00 654.00 331.00" xmlns="http://www.w3.org/2000/svg" xmlns:xlink="http://www.w3.org/1999/xlink">
<g id="graph0" class="graph" transform="scale(1 1) rotate(0) translate(4 327)">
<title>HoTT_Modalities_Closed</title>
<polygon fill="#ffffff" stroke="transparent" points="-4,4 -4,-327 650,-327 650,4 -4,4"/>
<g id="clust1" class="cluster">
<title>cluster_Closed</title>
<polygon fill="#ffffc3" stroke="#000000" points="10.9492,-8 10.9492,-315 635.0508,-315 635.0508,-8 10.9492,-8"/>
<text text-anchor="middle" x="43.4492" y="-299.8" font-family="Times,serif" font-size="14.00" fill="#000000">Closed</text>
</g>
<!-- Closed_Cl_ -->
<g id="node1" class="node">
<title>Closed_Cl_</title>
<g id="a_node1"><a xlink:href="Closed.html#Cl'" xlink:title="Cl&#39;">
<ellipse fill="#f070d1" stroke="#000000" cx="576.2881" cy="-258" rx="27" ry="18"/>
<ellipse fill="none" stroke="#000000" cx="576.2881" cy="-258" rx="31" ry="22"/>
<ellipse fill="none" stroke="#000000" cx="576.2881" cy="-258" rx="35" ry="26"/>
<text text-anchor="middle" x="576.2881" y="-254.3" font-family="Times,serif" font-size="14.00" fill="#000000">Cl&#39;</text>
</a>
</g>
</g>
<!-- Closed_lex_closed -->
<g id="node2" class="node">
<title>Closed_lex_closed</title>
<g id="a_node2"><a xlink:href="Closed.html#lex_closed" xlink:title="lex_closed">
<ellipse fill="#f070d1" stroke="#000000" cx="412.2881" cy="-258" rx="59.2725" ry="18"/>
<ellipse fill="none" stroke="#000000" cx="412.2881" cy="-258" rx="63.2812" ry="22"/>
<ellipse fill="none" stroke="#000000" cx="412.2881" cy="-258" rx="67.2898" ry="26"/>
<text text-anchor="middle" x="412.2881" y="-254.3" font-family="Times,serif" font-size="14.00" fill="#000000">lex_closed</text>
</a>
</g>
</g>
<!-- Closed_topological_closed -->
<g id="node3" class="node">
<title>Closed_topological_closed</title>
<g id="a_node3"><a xlink:href="Closed.html#topological_closed" xlink:title="topological_closed">
<ellipse fill="#f070d1" stroke="#000000" cx="412.2881" cy="-178" rx="96.6831" ry="18"/>
<text text-anchor="middle" x="412.2881" y="-174.3" font-family="Times,serif" font-size="14.00" fill="#000000">topological_closed</text>
</a>
</g>
</g>
<!-- Closed_lex_closed&#45;&gt;Closed_topological_closed -->
<g id="edge1" class="edge">
<title>Closed_lex_closed&#45;&gt;Closed_topological_closed</title>
<path fill="none" stroke="#000000" d="M412.2881,-231.805C412.2881,-223.6026 412.2881,-214.5174 412.2881,-206.1839"/>
<polygon fill="#000000" stroke="#000000" points="415.7882,-206.1532 412.2881,-196.1532 408.7882,-206.1533 415.7882,-206.1532"/>
</g>
<!-- Closed_accmodality_closed -->
<g id="node4" class="node">
<title>Closed_accmodality_closed</title>
<g id="a_node4"><a xlink:href="Closed.html#accmodality_closed" xlink:title="accmodality_closed">
<ellipse fill="#f070d1" stroke="#000000" cx="412.2881" cy="-106" rx="102.0819" ry="18"/>
<text text-anchor="middle" x="412.2881" y="-102.3" font-family="Times,serif" font-size="14.00" fill="#000000">accmodality_closed</text>
</a>
</g>
</g>
<!-- Closed_topological_closed&#45;&gt;Closed_accmodality_closed -->
<g id="edge2" class="edge">
<title>Closed_topological_closed&#45;&gt;Closed_accmodality_closed</title>
<path fill="none" stroke="#000000" d="M412.2881,-159.8314C412.2881,-152.131 412.2881,-142.9743 412.2881,-134.4166"/>
<polygon fill="#000000" stroke="#000000" points="415.7882,-134.4132 412.2881,-124.4133 408.7882,-134.4133 415.7882,-134.4132"/>
</g>
<!-- Closed_Cl -->
<g id="node5" class="node">
<title>Closed_Cl</title>
<g id="a_node5"><a xlink:href="Closed.html#Cl" xlink:title="Cl">
<ellipse fill="#f070d1" stroke="#000000" cx="412.2881" cy="-34" rx="27" ry="18"/>
<text text-anchor="middle" x="412.2881" y="-30.3" font-family="Times,serif" font-size="14.00" fill="#000000">Cl</text>
</a>
</g>
</g>
<!-- Closed_accmodality_closed&#45;&gt;Closed_Cl -->
<g id="edge3" class="edge">
<title>Closed_accmodality_closed&#45;&gt;Closed_Cl</title>
<path fill="none" stroke="#000000" d="M412.2881,-87.8314C412.2881,-80.131 412.2881,-70.9743 412.2881,-62.4166"/>
<polygon fill="#000000" stroke="#000000" points="415.7882,-62.4132 412.2881,-52.4133 408.7882,-62.4133 415.7882,-62.4132"/>
</g>
<!-- Closed_equiv_inO_closed -->
<g id="node6" class="node">
<title>Closed_equiv_inO_closed</title>
<g id="a_node6"><a xlink:href="Closed.html#equiv_inO_closed" xlink:title="equiv_inO_closed">
<ellipse fill="#f070d1" stroke="#000000" cx="158.2881" cy="-258" rx="92.1006" ry="18"/>
<ellipse fill="none" stroke="#000000" cx="158.2881" cy="-258" rx="96.0923" ry="22"/>
<ellipse fill="none" stroke="#000000" cx="158.2881" cy="-258" rx="100.0841" ry="26"/>
<text text-anchor="middle" x="158.2881" y="-254.3" font-family="Times,serif" font-size="14.00" fill="#000000">equiv_inO_closed</text>
</a>
</g>
</g>
</g>
</svg>
