<?xml version="1.0" encoding="UTF-8" standalone="no"?>
<!DOCTYPE svg PUBLIC "-//W3C//DTD SVG 1.1//EN"
 "http://www.w3.org/Graphics/SVG/1.1/DTD/svg11.dtd">
<!-- Generated by graphviz version 2.40.1 (20161225.0304)
 -->
<!-- Title: HoTT_Spaces_Int_Equiv Pages: 1 -->
<svg width="510pt" height="259pt"
 viewBox="0.00 0.00 510.00 259.00" xmlns="http://www.w3.org/2000/svg" xmlns:xlink="http://www.w3.org/1999/xlink">
<g id="graph0" class="graph" transform="scale(1 1) rotate(0) translate(4 255)">
<title>HoTT_Spaces_Int_Equiv</title>
<polygon fill="#ffffff" stroke="transparent" points="-4,4 -4,-255 506,-255 506,4 -4,4"/>
<g id="clust1" class="cluster">
<title>cluster_Equiv</title>
<polygon fill="#ffffc3" stroke="#000000" points="9.99,-8 9.99,-243 492.01,-243 492.01,-8 9.99,-8"/>
<text text-anchor="middle" x="38.99" y="-227.8" font-family="Times,serif" font-size="14.00" fill="#000000">Equiv</text>
</g>
<!-- Equiv_iter_int_pred_r -->
<g id="node1" class="node">
<title>Equiv_iter_int_pred_r</title>
<g id="a_node1"><a xlink:href="Equiv.html#iter_int_pred_r" xlink:title="iter_int_pred_r">
<ellipse fill="#f070d1" stroke="#000000" cx="370.3831" cy="-186" rx="80.6774" ry="18"/>
<ellipse fill="none" stroke="#000000" cx="370.3831" cy="-186" rx="84.6816" ry="22"/>
<ellipse fill="none" stroke="#000000" cx="370.3831" cy="-186" rx="88.6858" ry="26"/>
<text text-anchor="middle" x="370.3831" y="-182.3" font-family="Times,serif" font-size="14.00" fill="#000000">iter_int_pred_r</text>
</a>
</g>
</g>
<!-- Equiv_int_iter_succ_r -->
<g id="node3" class="node">
<title>Equiv_int_iter_succ_r</title>
<g id="a_node3"><a xlink:href="Equiv.html#int_iter_succ_r" xlink:title="int_iter_succ_r">
<ellipse fill="#f070d1" stroke="#000000" cx="366.3831" cy="-106" rx="80.6858" ry="18"/>
<text text-anchor="middle" x="366.3831" y="-102.3" font-family="Times,serif" font-size="14.00" fill="#000000">int_iter_succ_r</text>
</a>
</g>
</g>
<!-- Equiv_iter_int_pred_r&#45;&gt;Equiv_int_iter_succ_r -->
<g id="edge1" class="edge">
<title>Equiv_iter_int_pred_r&#45;&gt;Equiv_int_iter_succ_r</title>
<path fill="none" stroke="#000000" d="M369.0733,-159.805C368.6632,-151.6026 368.209,-142.5174 367.7923,-134.1839"/>
<polygon fill="#000000" stroke="#000000" points="371.2859,-133.9659 367.2907,-124.1532 364.2946,-134.3156 371.2859,-133.9659"/>
</g>
<!-- Equiv_iter_int_pred_l -->
<g id="node2" class="node">
<title>Equiv_iter_int_pred_l</title>
<g id="a_node2"><a xlink:href="Equiv.html#iter_int_pred_l" xlink:title="iter_int_pred_l">
<ellipse fill="#f070d1" stroke="#000000" cx="128.3831" cy="-186" rx="79.1053" ry="18"/>
<ellipse fill="none" stroke="#000000" cx="128.3831" cy="-186" rx="83.0959" ry="22"/>
<ellipse fill="none" stroke="#000000" cx="128.3831" cy="-186" rx="87.0864" ry="26"/>
<text text-anchor="middle" x="128.3831" y="-182.3" font-family="Times,serif" font-size="14.00" fill="#000000">iter_int_pred_l</text>
</a>
</g>
</g>
<!-- Equiv_int_iter_succ_l -->
<g id="node4" class="node">
<title>Equiv_int_iter_succ_l</title>
<g id="a_node4"><a xlink:href="Equiv.html#int_iter_succ_l" xlink:title="int_iter_succ_l">
<ellipse fill="#f070d1" stroke="#000000" cx="133.3831" cy="-106" rx="79.0865" ry="18"/>
<text text-anchor="middle" x="133.3831" y="-102.3" font-family="Times,serif" font-size="14.00" fill="#000000">int_iter_succ_l</text>
</a>
</g>
</g>
<!-- Equiv_iter_int_pred_l&#45;&gt;Equiv_int_iter_succ_l -->
<g id="edge2" class="edge">
<title>Equiv_iter_int_pred_l&#45;&gt;Equiv_int_iter_succ_l</title>
<path fill="none" stroke="#000000" d="M130.0203,-159.805C130.5329,-151.6026 131.1007,-142.5174 131.6216,-134.1839"/>
<polygon fill="#000000" stroke="#000000" points="135.1178,-134.3521 132.2485,-124.1532 128.1314,-133.9154 135.1178,-134.3521"/>
</g>
<!-- Equiv_int_iter -->
<g id="node5" class="node">
<title>Equiv_int_iter</title>
<g id="a_node5"><a xlink:href="Equiv.html#int_iter" xlink:title="int_iter">
<ellipse fill="#f070d1" stroke="#000000" cx="249.3831" cy="-34" rx="44.6926" ry="18"/>
<text text-anchor="middle" x="249.3831" y="-30.3" font-family="Times,serif" font-size="14.00" fill="#000000">int_iter</text>
</a>
</g>
</g>
<!-- Equiv_int_iter_succ_r&#45;&gt;Equiv_int_iter -->
<g id="edge3" class="edge">
<title>Equiv_int_iter_succ_r&#45;&gt;Equiv_int_iter</title>
<path fill="none" stroke="#000000" d="M338.6557,-88.937C321.9678,-78.6675 300.6095,-65.5239 282.9684,-54.6679"/>
<polygon fill="#000000" stroke="#000000" points="284.4774,-51.4869 274.1265,-49.2267 280.8087,-57.4485 284.4774,-51.4869"/>
</g>
<!-- Equiv_int_iter_succ_l&#45;&gt;Equiv_int_iter -->
<g id="edge4" class="edge">
<title>Equiv_int_iter_succ_l&#45;&gt;Equiv_int_iter</title>
<path fill="none" stroke="#000000" d="M160.8735,-88.937C177.4187,-78.6675 198.5945,-65.5239 216.0848,-54.6679"/>
<polygon fill="#000000" stroke="#000000" points="218.2005,-57.4741 224.8512,-49.2267 214.509,-51.5266 218.2005,-57.4741"/>
</g>
</g>
</svg>
