<?xml version="1.0" encoding="UTF-8" standalone="no"?>
<!DOCTYPE svg PUBLIC "-//W3C//DTD SVG 1.1//EN"
 "http://www.w3.org/Graphics/SVG/1.1/DTD/svg11.dtd">
<!-- Generated by graphviz version 2.40.1 (20161225.0304)
 -->
<!-- Title: HoTT_Colimits_MappingCylinder Pages: 1 -->
<svg width="1326pt" height="667pt"
 viewBox="0.00 0.00 1326.00 667.00" xmlns="http://www.w3.org/2000/svg" xmlns:xlink="http://www.w3.org/1999/xlink">
<g id="graph0" class="graph" transform="scale(1 1) rotate(0) translate(4 663)">
<title>HoTT_Colimits_MappingCylinder</title>
<polygon fill="#ffffff" stroke="transparent" points="-4,4 -4,-663 1322,-663 1322,4 -4,4"/>
<g id="clust1" class="cluster">
<title>cluster_MappingCylinder</title>
<polygon fill="#ffffc3" stroke="#000000" points="8.7502,-8 8.7502,-651 1309.2498,-651 1309.2498,-8 8.7502,-8"/>
<text text-anchor="middle" x="79.2502" y="-635.8" font-family="Times,serif" font-size="14.00" fill="#000000">MappingCylinder</text>
</g>
<!-- MappingCylinder_pr_cyl_cylcoeq -->
<g id="node1" class="node">
<title>MappingCylinder_pr_cyl_cylcoeq</title>
<g id="a_node1"><a xlink:href="MappingCylinder.html#pr_cyl_cylcoeq" xlink:title="pr_cyl_cylcoeq">
<ellipse fill="#f070d1" stroke="#000000" cx="808.6988" cy="-594" rx="79.891" ry="18"/>
<ellipse fill="none" stroke="#000000" cx="808.6988" cy="-594" rx="83.8884" ry="22"/>
<ellipse fill="none" stroke="#000000" cx="808.6988" cy="-594" rx="87.8859" ry="26"/>
<text text-anchor="middle" x="808.6988" y="-590.3" font-family="Times,serif" font-size="14.00" fill="#000000">pr_cyl_cylcoeq</text>
</a>
</g>
</g>
<!-- MappingCylinder_pr_cylcoeq -->
<g id="node3" class="node">
<title>MappingCylinder_pr_cylcoeq</title>
<g id="a_node3"><a xlink:href="MappingCylinder.html#pr_cylcoeq" xlink:title="pr_cylcoeq">
<ellipse fill="#f070d1" stroke="#000000" cx="808.6988" cy="-514" rx="61.99" ry="18"/>
<text text-anchor="middle" x="808.6988" y="-510.3" font-family="Times,serif" font-size="14.00" fill="#000000">pr_cylcoeq</text>
</a>
</g>
</g>
<!-- MappingCylinder_pr_cyl_cylcoeq&#45;&gt;MappingCylinder_pr_cylcoeq -->
<g id="edge1" class="edge">
<title>MappingCylinder_pr_cyl_cylcoeq&#45;&gt;MappingCylinder_pr_cylcoeq</title>
<path fill="none" stroke="#000000" d="M808.6988,-567.805C808.6988,-559.6026 808.6988,-550.5174 808.6988,-542.1839"/>
<polygon fill="#000000" stroke="#000000" points="812.1989,-542.1532 808.6988,-532.1532 805.1989,-542.1533 812.1989,-542.1532"/>
</g>
<!-- MappingCylinder_cyl_cylcoeq -->
<g id="node5" class="node">
<title>MappingCylinder_cyl_cylcoeq</title>
<g id="a_node5"><a xlink:href="MappingCylinder.html#cyl_cylcoeq" xlink:title="cyl_cylcoeq">
<ellipse fill="#f070d1" stroke="#000000" cx="1049.6988" cy="-514" rx="64.9885" ry="18"/>
<text text-anchor="middle" x="1049.6988" y="-510.3" font-family="Times,serif" font-size="14.00" fill="#000000">cyl_cylcoeq</text>
</a>
</g>
</g>
<!-- MappingCylinder_pr_cyl_cylcoeq&#45;&gt;MappingCylinder_cyl_cylcoeq -->
<g id="edge2" class="edge">
<title>MappingCylinder_pr_cyl_cylcoeq&#45;&gt;MappingCylinder_cyl_cylcoeq</title>
<path fill="none" stroke="#000000" d="M867.3458,-574.5321C907.2506,-561.2857 959.5717,-543.9177 997.9314,-531.1842"/>
<polygon fill="#000000" stroke="#000000" points="999.4736,-534.3601 1007.8617,-527.8878 997.2683,-527.7166 999.4736,-534.3601"/>
</g>
<!-- MappingCylinder_pr_functor_cyl_cyl -->
<g id="node7" class="node">
<title>MappingCylinder_pr_functor_cyl_cyl</title>
<g id="a_node7"><a xlink:href="MappingCylinder.html#pr_functor_cyl_cyl" xlink:title="pr_functor_cyl_cyl">
<ellipse fill="#f070d1" stroke="#000000" cx="614.6988" cy="-514" rx="96.6831" ry="18"/>
<text text-anchor="middle" x="614.6988" y="-510.3" font-family="Times,serif" font-size="14.00" fill="#000000">pr_functor_cyl_cyl</text>
</a>
</g>
</g>
<!-- MappingCylinder_pr_cyl_cylcoeq&#45;&gt;MappingCylinder_pr_functor_cyl_cyl -->
<g id="edge3" class="edge">
<title>MappingCylinder_pr_cyl_cylcoeq&#45;&gt;MappingCylinder_pr_functor_cyl_cyl</title>
<path fill="none" stroke="#000000" d="M757.2196,-572.7715C728.3759,-560.8772 692.5873,-546.119 664.0892,-534.3672"/>
<polygon fill="#000000" stroke="#000000" points="665.3039,-531.0822 654.7247,-530.5056 662.6352,-537.5536 665.3039,-531.0822"/>
</g>
<!-- MappingCylinder_ap_pr_cylcoeq_cglue -->
<g id="node2" class="node">
<title>MappingCylinder_ap_pr_cylcoeq_cglue</title>
<g id="a_node2"><a xlink:href="MappingCylinder.html#ap_pr_cylcoeq_cglue" xlink:title="ap_pr_cylcoeq_cglue">
<ellipse fill="#f070d1" stroke="#000000" cx="565.6988" cy="-594" rx="107.7885" ry="18"/>
<ellipse fill="none" stroke="#000000" cx="565.6988" cy="-594" rx="111.7847" ry="22"/>
<ellipse fill="none" stroke="#000000" cx="565.6988" cy="-594" rx="115.781" ry="26"/>
<text text-anchor="middle" x="565.6988" y="-590.3" font-family="Times,serif" font-size="14.00" fill="#000000">ap_pr_cylcoeq_cglue</text>
</a>
</g>
</g>
<!-- MappingCylinder_ap_pr_cylcoeq_cglue&#45;&gt;MappingCylinder_pr_cylcoeq -->
<g id="edge4" class="edge">
<title>MappingCylinder_ap_pr_cylcoeq_cglue&#45;&gt;MappingCylinder_pr_cylcoeq</title>
<path fill="none" stroke="#000000" d="M631.138,-572.4562C671.0116,-559.3291 721.2025,-542.8054 758.0407,-530.6775"/>
<polygon fill="#000000" stroke="#000000" points="759.1757,-533.9888 767.5797,-527.5371 756.9867,-527.3398 759.1757,-533.9888"/>
</g>
<!-- MappingCylinder_CylCoeq -->
<g id="node6" class="node">
<title>MappingCylinder_CylCoeq</title>
<g id="a_node6"><a xlink:href="MappingCylinder.html#CylCoeq" xlink:title="CylCoeq">
<ellipse fill="#f070d1" stroke="#000000" cx="1046.6988" cy="-434" rx="50.0912" ry="18"/>
<text text-anchor="middle" x="1046.6988" y="-430.3" font-family="Times,serif" font-size="14.00" fill="#000000">CylCoeq</text>
</a>
</g>
</g>
<!-- MappingCylinder_pr_cylcoeq&#45;&gt;MappingCylinder_CylCoeq -->
<g id="edge5" class="edge">
<title>MappingCylinder_pr_cylcoeq&#45;&gt;MappingCylinder_CylCoeq</title>
<path fill="none" stroke="#000000" d="M849.6752,-500.4401C882.4443,-489.5724 929.55,-473.8965 970.6988,-460 980.4097,-456.7205 990.8092,-453.1809 1000.7015,-449.8009"/>
<polygon fill="#000000" stroke="#000000" points="1002.0516,-453.0383 1010.3803,-446.4897 999.7857,-446.4151 1002.0516,-453.0383"/>
</g>
<!-- MappingCylinder_pr_functor_cyl -->
<g id="node8" class="node">
<title>MappingCylinder_pr_functor_cyl</title>
<g id="a_node8"><a xlink:href="MappingCylinder.html#pr_functor_cyl" xlink:title="pr_functor_cyl">
<ellipse fill="#f070d1" stroke="#000000" cx="614.6988" cy="-434" rx="78.7863" ry="18"/>
<text text-anchor="middle" x="614.6988" y="-430.3" font-family="Times,serif" font-size="14.00" fill="#000000">pr_functor_cyl</text>
</a>
</g>
</g>
<!-- MappingCylinder_pr_cylcoeq&#45;&gt;MappingCylinder_pr_functor_cyl -->
<g id="edge6" class="edge">
<title>MappingCylinder_pr_cylcoeq&#45;&gt;MappingCylinder_pr_functor_cyl</title>
<path fill="none" stroke="#000000" d="M772.6635,-499.1401C741.6139,-486.3361 696.5489,-467.7527 662.4921,-453.7086"/>
<polygon fill="#000000" stroke="#000000" points="663.7782,-450.4531 653.199,-449.8764 661.1095,-456.9244 663.7782,-450.4531"/>
</g>
<!-- MappingCylinder_ap_cyl_cylcoeq_cglue -->
<g id="node4" class="node">
<title>MappingCylinder_ap_cyl_cylcoeq_cglue</title>
<g id="a_node4"><a xlink:href="MappingCylinder.html#ap_cyl_cylcoeq_cglue" xlink:title="ap_cyl_cylcoeq_cglue">
<ellipse fill="#f070d1" stroke="#000000" cx="1054.6988" cy="-594" rx="111.271" ry="18"/>
<ellipse fill="none" stroke="#000000" cx="1054.6988" cy="-594" rx="115.2757" ry="22"/>
<ellipse fill="none" stroke="#000000" cx="1054.6988" cy="-594" rx="119.2804" ry="26"/>
<text text-anchor="middle" x="1054.6988" y="-590.3" font-family="Times,serif" font-size="14.00" fill="#000000">ap_cyl_cylcoeq_cglue</text>
</a>
</g>
</g>
<!-- MappingCylinder_ap_cyl_cylcoeq_cglue&#45;&gt;MappingCylinder_cyl_cylcoeq -->
<g id="edge7" class="edge">
<title>MappingCylinder_ap_cyl_cylcoeq_cglue&#45;&gt;MappingCylinder_cyl_cylcoeq</title>
<path fill="none" stroke="#000000" d="M1053.0616,-567.805C1052.5489,-559.6026 1051.9811,-550.5174 1051.4602,-542.1839"/>
<polygon fill="#000000" stroke="#000000" points="1054.9504,-541.9154 1050.8333,-532.1532 1047.964,-542.3521 1054.9504,-541.9154"/>
</g>
<!-- MappingCylinder_cyl_cylcoeq&#45;&gt;MappingCylinder_CylCoeq -->
<g id="edge8" class="edge">
<title>MappingCylinder_cyl_cylcoeq&#45;&gt;MappingCylinder_CylCoeq</title>
<path fill="none" stroke="#000000" d="M1049.018,-495.8468C1048.6459,-485.9251 1048.1769,-473.4167 1047.7581,-462.2492"/>
<polygon fill="#000000" stroke="#000000" points="1051.2492,-461.9432 1047.3768,-452.0814 1044.2541,-462.2056 1051.2492,-461.9432"/>
</g>
<!-- MappingCylinder_functor_cyl_cyl -->
<g id="node9" class="node">
<title>MappingCylinder_functor_cyl_cyl</title>
<g id="a_node9"><a xlink:href="MappingCylinder.html#functor_cyl_cyl" xlink:title="functor_cyl_cyl">
<ellipse fill="#f070d1" stroke="#000000" cx="1210.6988" cy="-434" rx="81.7856" ry="18"/>
<text text-anchor="middle" x="1210.6988" y="-430.3" font-family="Times,serif" font-size="14.00" fill="#000000">functor_cyl_cyl</text>
</a>
</g>
</g>
<!-- MappingCylinder_cyl_cylcoeq&#45;&gt;MappingCylinder_functor_cyl_cyl -->
<g id="edge9" class="edge">
<title>MappingCylinder_cyl_cylcoeq&#45;&gt;MappingCylinder_functor_cyl_cyl</title>
<path fill="none" stroke="#000000" d="M1081.5072,-498.1946C1106.2639,-485.8931 1140.8623,-468.7014 1168.0245,-455.2046"/>
<polygon fill="#000000" stroke="#000000" points="1169.8957,-458.1831 1177.2936,-450.5988 1166.7808,-451.9144 1169.8957,-458.1831"/>
</g>
<!-- MappingCylinder_functor_cyl -->
<g id="node11" class="node">
<title>MappingCylinder_functor_cyl</title>
<g id="a_node11"><a xlink:href="MappingCylinder.html#functor_cyl" xlink:title="functor_cyl">
<ellipse fill="#f070d1" stroke="#000000" cx="846.6988" cy="-346" rx="63.8893" ry="18"/>
<text text-anchor="middle" x="846.6988" y="-342.3" font-family="Times,serif" font-size="14.00" fill="#000000">functor_cyl</text>
</a>
</g>
</g>
<!-- MappingCylinder_CylCoeq&#45;&gt;MappingCylinder_functor_cyl -->
<g id="edge10" class="edge">
<title>MappingCylinder_CylCoeq&#45;&gt;MappingCylinder_functor_cyl</title>
<path fill="none" stroke="#000000" d="M1015.0082,-420.0561C981.3982,-405.2678 928.0681,-381.8025 890.4613,-365.2555"/>
<polygon fill="#000000" stroke="#000000" points="891.8233,-362.031 881.2606,-361.2072 889.0041,-368.4382 891.8233,-362.031"/>
</g>
<!-- MappingCylinder_pr_functor_cyl_cyl&#45;&gt;MappingCylinder_pr_functor_cyl -->
<g id="edge11" class="edge">
<title>MappingCylinder_pr_functor_cyl_cyl&#45;&gt;MappingCylinder_pr_functor_cyl</title>
<path fill="none" stroke="#000000" d="M614.6988,-495.8468C614.6988,-485.9251 614.6988,-473.4167 614.6988,-462.2492"/>
<polygon fill="#000000" stroke="#000000" points="618.1989,-462.0814 614.6988,-452.0814 611.1989,-462.0814 618.1989,-462.0814"/>
</g>
<!-- MappingCylinder_ap_functor_cyl_cyglue -->
<g id="node10" class="node">
<title>MappingCylinder_ap_functor_cyl_cyglue</title>
<g id="a_node10"><a xlink:href="MappingCylinder.html#ap_functor_cyl_cyglue" xlink:title="ap_functor_cyl_cyglue">
<ellipse fill="#f070d1" stroke="#000000" cx="846.6988" cy="-434" rx="115.0796" ry="18"/>
<text text-anchor="middle" x="846.6988" y="-430.3" font-family="Times,serif" font-size="14.00" fill="#000000">ap_functor_cyl_cyglue</text>
</a>
</g>
</g>
<!-- MappingCylinder_pr_functor_cyl_cyl&#45;&gt;MappingCylinder_ap_functor_cyl_cyglue -->
<g id="edge12" class="edge">
<title>MappingCylinder_pr_functor_cyl_cyl&#45;&gt;MappingCylinder_ap_functor_cyl_cyglue</title>
<path fill="none" stroke="#000000" d="M660.8119,-498.0989C697.8019,-485.3438 749.9074,-467.3763 789.5443,-453.7084"/>
<polygon fill="#000000" stroke="#000000" points="790.7663,-456.9894 799.079,-450.4206 788.4843,-450.3718 790.7663,-456.9894"/>
</g>
<!-- MappingCylinder_ap_pr_cyl_cyglue -->
<g id="node15" class="node">
<title>MappingCylinder_ap_pr_cyl_cyglue</title>
<g id="a_node15"><a xlink:href="MappingCylinder.html#ap_pr_cyl_cyglue" xlink:title="ap_pr_cyl_cyglue">
<ellipse fill="#f070d1" stroke="#000000" cx="116.6988" cy="-434" rx="90.9839" ry="18"/>
<text text-anchor="middle" x="116.6988" y="-430.3" font-family="Times,serif" font-size="14.00" fill="#000000">ap_pr_cyl_cyglue</text>
</a>
</g>
</g>
<!-- MappingCylinder_pr_functor_cyl_cyl&#45;&gt;MappingCylinder_ap_pr_cyl_cyglue -->
<g id="edge13" class="edge">
<title>MappingCylinder_pr_functor_cyl_cyl&#45;&gt;MappingCylinder_ap_pr_cyl_cyglue</title>
<path fill="none" stroke="#000000" d="M532.574,-504.406C454.8047,-494.8524 334.9038,-478.9091 231.6988,-460 216.3387,-457.1857 199.9206,-453.7398 184.4392,-450.2887"/>
<polygon fill="#000000" stroke="#000000" points="184.9468,-446.8153 174.4214,-448.0266 183.4049,-453.6433 184.9468,-446.8153"/>
</g>
<!-- MappingCylinder_pr_functor_cyl&#45;&gt;MappingCylinder_functor_cyl -->
<g id="edge14" class="edge">
<title>MappingCylinder_pr_functor_cyl&#45;&gt;MappingCylinder_functor_cyl</title>
<path fill="none" stroke="#000000" d="M655.3756,-418.5709C695.4025,-403.3882 756.5099,-380.2096 798.849,-364.1499"/>
<polygon fill="#000000" stroke="#000000" points="800.2739,-367.3528 808.3826,-360.5337 797.7913,-360.8078 800.2739,-367.3528"/>
</g>
<!-- MappingCylinder_pr_cyl -->
<g id="node16" class="node">
<title>MappingCylinder_pr_cyl</title>
<g id="a_node16"><a xlink:href="MappingCylinder.html#pr_cyl" xlink:title="pr_cyl">
<ellipse fill="#f070d1" stroke="#000000" cx="442.6988" cy="-346" rx="39.7935" ry="18"/>
<text text-anchor="middle" x="442.6988" y="-342.3" font-family="Times,serif" font-size="14.00" fill="#000000">pr_cyl</text>
</a>
</g>
</g>
<!-- MappingCylinder_pr_functor_cyl&#45;&gt;MappingCylinder_pr_cyl -->
<g id="edge15" class="edge">
<title>MappingCylinder_pr_functor_cyl&#45;&gt;MappingCylinder_pr_cyl</title>
<path fill="none" stroke="#000000" d="M582.3469,-417.4479C552.7151,-402.2874 508.9354,-379.8885 478.3169,-364.2232"/>
<polygon fill="#000000" stroke="#000000" points="479.764,-361.0322 469.2673,-359.5932 476.5756,-367.2639 479.764,-361.0322"/>
</g>
<!-- MappingCylinder_functor_cyl_cyl&#45;&gt;MappingCylinder_functor_cyl -->
<g id="edge16" class="edge">
<title>MappingCylinder_functor_cyl_cyl&#45;&gt;MappingCylinder_functor_cyl</title>
<path fill="none" stroke="#000000" d="M1156.4922,-420.4921C1140.1719,-416.4482 1122.2119,-412.0209 1105.6988,-408 1037.1187,-391.301 958.228,-372.4703 905.7118,-359.9887"/>
<polygon fill="#000000" stroke="#000000" points="906.4346,-356.5631 895.8964,-357.6568 904.8166,-363.3736 906.4346,-356.5631"/>
</g>
<!-- MappingCylinder_ap_functor_cyl_cyglue&#45;&gt;MappingCylinder_functor_cyl -->
<g id="edge17" class="edge">
<title>MappingCylinder_ap_functor_cyl_cyglue&#45;&gt;MappingCylinder_functor_cyl</title>
<path fill="none" stroke="#000000" d="M846.6988,-415.7663C846.6988,-403.8492 846.6988,-388.0384 846.6988,-374.4817"/>
<polygon fill="#000000" stroke="#000000" points="850.1989,-374.2103 846.6988,-364.2103 843.1989,-374.2103 850.1989,-374.2103"/>
</g>
<!-- MappingCylinder_Cyl_rec_beta_cyglue -->
<g id="node17" class="node">
<title>MappingCylinder_Cyl_rec_beta_cyglue</title>
<g id="a_node17"><a xlink:href="MappingCylinder.html#Cyl_rec_beta_cyglue" xlink:title="Cyl_rec_beta_cyglue">
<ellipse fill="#f070d1" stroke="#000000" cx="659.6988" cy="-266" rx="107.4815" ry="18"/>
<text text-anchor="middle" x="659.6988" y="-262.3" font-family="Times,serif" font-size="14.00" fill="#000000">Cyl_rec_beta_cyglue</text>
</a>
</g>
</g>
<!-- MappingCylinder_ap_functor_cyl_cyglue&#45;&gt;MappingCylinder_Cyl_rec_beta_cyglue -->
<g id="edge18" class="edge">
<title>MappingCylinder_ap_functor_cyl_cyglue&#45;&gt;MappingCylinder_Cyl_rec_beta_cyglue</title>
<path fill="none" stroke="#000000" d="M825.0796,-416.074C810.4352,-403.8253 790.7258,-387.133 773.6988,-372 743.0275,-344.7404 708.6363,-312.5281 685.7273,-290.8275"/>
<polygon fill="#000000" stroke="#000000" points="688.0834,-288.2382 678.4203,-283.8934 683.2649,-293.3158 688.0834,-288.2382"/>
</g>
<!-- MappingCylinder_Cyl_rec -->
<g id="node18" class="node">
<title>MappingCylinder_Cyl_rec</title>
<g id="a_node18"><a xlink:href="MappingCylinder.html#Cyl_rec" xlink:title="Cyl_rec">
<ellipse fill="#f070d1" stroke="#000000" cx="846.6988" cy="-186" rx="46.2923" ry="18"/>
<text text-anchor="middle" x="846.6988" y="-182.3" font-family="Times,serif" font-size="14.00" fill="#000000">Cyl_rec</text>
</a>
</g>
</g>
<!-- MappingCylinder_functor_cyl&#45;&gt;MappingCylinder_Cyl_rec -->
<g id="edge19" class="edge">
<title>MappingCylinder_functor_cyl&#45;&gt;MappingCylinder_Cyl_rec</title>
<path fill="none" stroke="#000000" d="M846.6988,-327.957C846.6988,-300.3487 846.6988,-247.3746 846.6988,-214.5255"/>
<polygon fill="#000000" stroke="#000000" points="850.1989,-214.2225 846.6988,-204.2226 843.1989,-214.2226 850.1989,-214.2225"/>
</g>
<!-- MappingCylinder_cyglue -->
<g id="node21" class="node">
<title>MappingCylinder_cyglue</title>
<g id="a_node21"><a xlink:href="MappingCylinder.html#cyglue" xlink:title="cyglue">
<ellipse fill="#f070d1" stroke="#000000" cx="634.6988" cy="-186" rx="41.6928" ry="18"/>
<text text-anchor="middle" x="634.6988" y="-182.3" font-family="Times,serif" font-size="14.00" fill="#000000">cyglue</text>
</a>
</g>
</g>
<!-- MappingCylinder_functor_cyl&#45;&gt;MappingCylinder_cyglue -->
<g id="edge20" class="edge">
<title>MappingCylinder_functor_cyl&#45;&gt;MappingCylinder_cyglue</title>
<path fill="none" stroke="#000000" d="M837.4542,-327.8462C825.6822,-306.2874 803.4925,-270.4319 775.6988,-248 774.6128,-247.1236 714.9464,-221.0088 673.5871,-202.9552"/>
<polygon fill="#000000" stroke="#000000" points="674.857,-199.6906 664.2917,-198.8988 672.0572,-206.1063 674.857,-199.6906"/>
</g>
<!-- MappingCylinder_pr_cyl_ -->
<g id="node12" class="node">
<title>MappingCylinder_pr_cyl_</title>
<g id="a_node12"><a xlink:href="MappingCylinder.html#pr_cyl'" xlink:title="pr_cyl&#39;">
<ellipse fill="#f070d1" stroke="#000000" cx="290.6988" cy="-434" rx="42.4543" ry="18"/>
<ellipse fill="none" stroke="#000000" cx="290.6988" cy="-434" rx="46.474" ry="22"/>
<ellipse fill="none" stroke="#000000" cx="290.6988" cy="-434" rx="50.4937" ry="26"/>
<text text-anchor="middle" x="290.6988" y="-430.3" font-family="Times,serif" font-size="14.00" fill="#000000">pr_cyl&#39;</text>
</a>
</g>
</g>
<!-- MappingCylinder_pr_cyl_&#45;&gt;MappingCylinder_pr_cyl -->
<g id="edge21" class="edge">
<title>MappingCylinder_pr_cyl_&#45;&gt;MappingCylinder_pr_cyl</title>
<path fill="none" stroke="#000000" d="M324.4325,-414.4699C349.6707,-399.8584 384.0269,-379.9679 409.2067,-365.3901"/>
<polygon fill="#000000" stroke="#000000" points="411.1337,-368.3188 418.0344,-360.2794 407.6264,-362.2608 411.1337,-368.3188"/>
</g>
<!-- MappingCylinder_cyl_ -->
<g id="node13" class="node">
<title>MappingCylinder_cyl_</title>
<g id="a_node13"><a xlink:href="MappingCylinder.html#cyl'" xlink:title="cyl&#39;">
<ellipse fill="#f070d1" stroke="#000000" cx="738.6988" cy="-186" rx="27" ry="18"/>
<ellipse fill="none" stroke="#000000" cx="738.6988" cy="-186" rx="31" ry="22"/>
<ellipse fill="none" stroke="#000000" cx="738.6988" cy="-186" rx="35" ry="26"/>
<text text-anchor="middle" x="738.6988" y="-182.3" font-family="Times,serif" font-size="14.00" fill="#000000">cyl&#39;</text>
</a>
</g>
</g>
<!-- MappingCylinder_cyl -->
<g id="node23" class="node">
<title>MappingCylinder_cyl</title>
<g id="a_node23"><a xlink:href="MappingCylinder.html#cyl" xlink:title="cyl">
<ellipse fill="#f070d1" stroke="#000000" cx="731.6988" cy="-106" rx="27" ry="18"/>
<text text-anchor="middle" x="731.6988" y="-102.3" font-family="Times,serif" font-size="14.00" fill="#000000">cyl</text>
</a>
</g>
</g>
<!-- MappingCylinder_cyl_&#45;&gt;MappingCylinder_cyl -->
<g id="edge22" class="edge">
<title>MappingCylinder_cyl_&#45;&gt;MappingCylinder_cyl</title>
<path fill="none" stroke="#000000" d="M736.4067,-159.805C735.689,-151.6026 734.894,-142.5174 734.1648,-134.1839"/>
<polygon fill="#000000" stroke="#000000" points="737.6456,-133.8101 733.2872,-124.1532 730.6722,-134.4203 737.6456,-133.8101"/>
</g>
<!-- MappingCylinder_pr_cyl_cyl -->
<g id="node14" class="node">
<title>MappingCylinder_pr_cyl_cyl</title>
<g id="a_node14"><a xlink:href="MappingCylinder.html#pr_cyl_cyl" xlink:title="pr_cyl_cyl">
<ellipse fill="#f070d1" stroke="#000000" cx="437.6988" cy="-434" rx="57.7089" ry="18"/>
<ellipse fill="none" stroke="#000000" cx="437.6988" cy="-434" rx="61.6995" ry="22"/>
<ellipse fill="none" stroke="#000000" cx="437.6988" cy="-434" rx="65.6901" ry="26"/>
<text text-anchor="middle" x="437.6988" y="-430.3" font-family="Times,serif" font-size="14.00" fill="#000000">pr_cyl_cyl</text>
</a>
</g>
</g>
<!-- MappingCylinder_pr_cyl_cyl&#45;&gt;MappingCylinder_pr_cyl -->
<g id="edge23" class="edge">
<title>MappingCylinder_pr_cyl_cyl&#45;&gt;MappingCylinder_pr_cyl</title>
<path fill="none" stroke="#000000" d="M439.1989,-407.5971C439.7987,-397.0414 440.4903,-384.868 441.0996,-374.1448"/>
<polygon fill="#000000" stroke="#000000" points="444.602,-374.2013 441.675,-364.0188 437.6132,-373.8041 444.602,-374.2013"/>
</g>
<!-- MappingCylinder_ap_pr_cyl_cyglue&#45;&gt;MappingCylinder_pr_cyl -->
<g id="edge24" class="edge">
<title>MappingCylinder_ap_pr_cyl_cyglue&#45;&gt;MappingCylinder_pr_cyl</title>
<path fill="none" stroke="#000000" d="M176.1595,-420.2882C246.8389,-403.9161 357.6638,-377.9859 376.6988,-372 385.7577,-369.1512 395.3473,-365.6597 404.3261,-362.1711"/>
<polygon fill="#000000" stroke="#000000" points="405.7739,-365.3621 413.7752,-358.4173 403.1894,-358.8566 405.7739,-365.3621"/>
</g>
<!-- MappingCylinder_pr_cyl&#45;&gt;MappingCylinder_Cyl_rec_beta_cyglue -->
<g id="edge25" class="edge">
<title>MappingCylinder_pr_cyl&#45;&gt;MappingCylinder_Cyl_rec_beta_cyglue</title>
<path fill="none" stroke="#000000" d="M473.7896,-334.538C508.1461,-321.8719 564.1097,-301.2402 605.6726,-285.9175"/>
<polygon fill="#000000" stroke="#000000" points="606.9341,-289.1828 615.1061,-282.4397 604.5127,-282.6149 606.9341,-289.1828"/>
</g>
<!-- MappingCylinder_Cyl_ind_dp -->
<g id="node20" class="node">
<title>MappingCylinder_Cyl_ind_dp</title>
<g id="a_node20"><a xlink:href="MappingCylinder.html#Cyl_ind_dp" xlink:title="Cyl_ind_dp">
<ellipse fill="#f070d1" stroke="#000000" cx="442.6988" cy="-266" rx="62.2891" ry="18"/>
<text text-anchor="middle" x="442.6988" y="-262.3" font-family="Times,serif" font-size="14.00" fill="#000000">Cyl_ind_dp</text>
</a>
</g>
</g>
<!-- MappingCylinder_pr_cyl&#45;&gt;MappingCylinder_Cyl_ind_dp -->
<g id="edge26" class="edge">
<title>MappingCylinder_pr_cyl&#45;&gt;MappingCylinder_Cyl_ind_dp</title>
<path fill="none" stroke="#000000" d="M442.6988,-327.8468C442.6988,-317.9251 442.6988,-305.4167 442.6988,-294.2492"/>
<polygon fill="#000000" stroke="#000000" points="446.1989,-294.0814 442.6988,-284.0814 439.1989,-294.0814 446.1989,-294.0814"/>
</g>
<!-- MappingCylinder_Cyl_rec_beta_cyglue&#45;&gt;MappingCylinder_Cyl_rec -->
<g id="edge27" class="edge">
<title>MappingCylinder_Cyl_rec_beta_cyglue&#45;&gt;MappingCylinder_Cyl_rec</title>
<path fill="none" stroke="#000000" d="M698.9001,-249.2294C730.3469,-235.7762 774.334,-216.9582 806.1357,-203.3532"/>
<polygon fill="#000000" stroke="#000000" points="807.7693,-206.4612 815.5866,-199.31 805.0159,-200.0254 807.7693,-206.4612"/>
</g>
<!-- MappingCylinder_Cyl_rec_beta_cyglue&#45;&gt;MappingCylinder_cyglue -->
<g id="edge28" class="edge">
<title>MappingCylinder_Cyl_rec_beta_cyglue&#45;&gt;MappingCylinder_cyglue</title>
<path fill="none" stroke="#000000" d="M654.0259,-247.8468C650.8934,-237.8228 646.9358,-225.1585 643.4188,-213.9043"/>
<polygon fill="#000000" stroke="#000000" points="646.6727,-212.5822 640.3492,-204.0814 639.9913,-214.6702 646.6727,-212.5822"/>
</g>
<!-- MappingCylinder_Cyl -->
<g id="node24" class="node">
<title>MappingCylinder_Cyl</title>
<g id="a_node24"><a xlink:href="MappingCylinder.html#Cyl" xlink:title="Cyl">
<ellipse fill="#f070d1" stroke="#000000" cx="731.6988" cy="-34" rx="27" ry="18"/>
<text text-anchor="middle" x="731.6988" y="-30.3" font-family="Times,serif" font-size="14.00" fill="#000000">Cyl</text>
</a>
</g>
</g>
<!-- MappingCylinder_Cyl_rec&#45;&gt;MappingCylinder_Cyl -->
<g id="edge29" class="edge">
<title>MappingCylinder_Cyl_rec&#45;&gt;MappingCylinder_Cyl</title>
<path fill="none" stroke="#000000" d="M833.5068,-168.5637C813.0143,-141.478 773.4707,-89.2116 750.1561,-58.3958"/>
<polygon fill="#000000" stroke="#000000" points="752.8646,-56.1748 744.0399,-50.3117 747.2823,-60.3983 752.8646,-56.1748"/>
</g>
<!-- MappingCylinder_Cyl_ind_dp_beta_cyglue -->
<g id="node19" class="node">
<title>MappingCylinder_Cyl_ind_dp_beta_cyglue</title>
<g id="a_node19"><a xlink:href="MappingCylinder.html#Cyl_ind_dp_beta_cyglue" xlink:title="Cyl_ind_dp_beta_cyglue">
<ellipse fill="#f070d1" stroke="#000000" cx="236.6988" cy="-346" rx="123.4788" ry="18"/>
<ellipse fill="none" stroke="#000000" cx="236.6988" cy="-346" rx="127.4784" ry="22"/>
<ellipse fill="none" stroke="#000000" cx="236.6988" cy="-346" rx="131.4781" ry="26"/>
<text text-anchor="middle" x="236.6988" y="-342.3" font-family="Times,serif" font-size="14.00" fill="#000000">Cyl_ind_dp_beta_cyglue</text>
</a>
</g>
</g>
<!-- MappingCylinder_Cyl_ind_dp_beta_cyglue&#45;&gt;MappingCylinder_Cyl_ind_dp -->
<g id="edge30" class="edge">
<title>MappingCylinder_Cyl_ind_dp_beta_cyglue&#45;&gt;MappingCylinder_Cyl_ind_dp</title>
<path fill="none" stroke="#000000" d="M296.5592,-322.7532C328.1507,-310.4847 366.3508,-295.6497 395.7714,-284.2242"/>
<polygon fill="#000000" stroke="#000000" points="397.3353,-287.3716 405.39,-280.4888 394.8012,-280.8464 397.3353,-287.3716"/>
</g>
<!-- MappingCylinder_Cyl_ind_dp&#45;&gt;MappingCylinder_cyglue -->
<g id="edge31" class="edge">
<title>MappingCylinder_Cyl_ind_dp&#45;&gt;MappingCylinder_cyglue</title>
<path fill="none" stroke="#000000" d="M478.3625,-251.1401C511.5702,-237.3036 560.9762,-216.7177 595.3272,-202.4048"/>
<polygon fill="#000000" stroke="#000000" points="596.7061,-205.622 604.5907,-198.545 594.0138,-199.1604 596.7061,-205.622"/>
</g>
<!-- MappingCylinder_cyr -->
<g id="node22" class="node">
<title>MappingCylinder_cyr</title>
<g id="a_node22"><a xlink:href="MappingCylinder.html#cyr" xlink:title="cyr">
<ellipse fill="#f070d1" stroke="#000000" cx="640.6988" cy="-106" rx="27" ry="18"/>
<text text-anchor="middle" x="640.6988" y="-102.3" font-family="Times,serif" font-size="14.00" fill="#000000">cyr</text>
</a>
</g>
</g>
<!-- MappingCylinder_cyglue&#45;&gt;MappingCylinder_cyr -->
<g id="edge32" class="edge">
<title>MappingCylinder_cyglue&#45;&gt;MappingCylinder_cyr</title>
<path fill="none" stroke="#000000" d="M636.0602,-167.8468C636.8044,-157.9251 637.7425,-145.4167 638.5801,-134.2492"/>
<polygon fill="#000000" stroke="#000000" points="642.0849,-134.3152 639.3427,-124.0814 635.1045,-133.7916 642.0849,-134.3152"/>
</g>
<!-- MappingCylinder_cyglue&#45;&gt;MappingCylinder_cyl -->
<g id="edge33" class="edge">
<title>MappingCylinder_cyglue&#45;&gt;MappingCylinder_cyl</title>
<path fill="none" stroke="#000000" d="M654.3282,-169.8108C669.4134,-157.3694 690.3575,-140.0959 706.6509,-126.6581"/>
<polygon fill="#000000" stroke="#000000" points="709.2039,-129.0893 714.6916,-120.0265 704.75,-123.689 709.2039,-129.0893"/>
</g>
<!-- MappingCylinder_cyr&#45;&gt;MappingCylinder_Cyl -->
<g id="edge34" class="edge">
<title>MappingCylinder_cyr&#45;&gt;MappingCylinder_Cyl</title>
<path fill="none" stroke="#000000" d="M658.2445,-92.1177C671.8407,-81.3602 690.8741,-66.3009 706.1591,-54.2072"/>
<polygon fill="#000000" stroke="#000000" points="708.5364,-56.7893 714.2069,-47.8397 704.193,-51.2998 708.5364,-56.7893"/>
</g>
<!-- MappingCylinder_cyl&#45;&gt;MappingCylinder_Cyl -->
<g id="edge35" class="edge">
<title>MappingCylinder_cyl&#45;&gt;MappingCylinder_Cyl</title>
<path fill="none" stroke="#000000" d="M731.6988,-87.8314C731.6988,-80.131 731.6988,-70.9743 731.6988,-62.4166"/>
<polygon fill="#000000" stroke="#000000" points="735.1989,-62.4132 731.6988,-52.4133 728.1989,-62.4133 735.1989,-62.4132"/>
</g>
</g>
</svg>
