<?xml version="1.0" encoding="UTF-8" standalone="no"?>
<!DOCTYPE svg PUBLIC "-//W3C//DTD SVG 1.1//EN"
 "http://www.w3.org/Graphics/SVG/1.1/DTD/svg11.dtd">
<!-- Generated by graphviz version 2.40.1 (20161225.0304)
 -->
<!-- Title: HoTT_Basics_Nat Pages: 1 -->
<svg width="1196pt" height="602pt"
 viewBox="0.00 0.00 1196.00 602.00" xmlns="http://www.w3.org/2000/svg" xmlns:xlink="http://www.w3.org/1999/xlink">
<g id="graph0" class="graph" transform="scale(1 1) rotate(0) translate(4 598)">
<title>HoTT_Basics_Nat</title>
<polygon fill="#ffffff" stroke="transparent" points="-4,4 -4,-598 1192,-598 1192,4 -4,4"/>
<g id="clust1" class="cluster">
<title>cluster_Basics</title>
<polygon fill="#ffffc3" stroke="#000000" points="13.7143,-8 13.7143,-586 1174.2857,-586 1174.2857,-8 13.7143,-8"/>
<text text-anchor="middle" x="45.2143" y="-570.8" font-family="Times,serif" font-size="14.00" fill="#000000">Basics</text>
</g>
<g id="clust2" class="cluster">
<title>cluster_Basics_Nat</title>
<polygon fill="#ffffa3" stroke="#000000" points="27.4286,-16 27.4286,-555 1160.5714,-555 1160.5714,-16 27.4286,-16"/>
<text text-anchor="middle" x="49.4286" y="-539.8" font-family="Times,serif" font-size="14.00" fill="#000000">Nat</text>
</g>
<!-- Basics_Nat_to_num_int -->
<g id="node1" class="node">
<title>Basics_Nat_to_num_int</title>
<g id="a_node1"><a xlink:href="Basics.html#Nat.to_num_int" xlink:title="to_num_int">
<ellipse fill="#f070d1" stroke="#000000" cx="1024.8571" cy="-498" rx="63.0838" ry="18"/>
<ellipse fill="none" stroke="#000000" cx="1024.8571" cy="-498" rx="67.0863" ry="22"/>
<ellipse fill="none" stroke="#000000" cx="1024.8571" cy="-498" rx="71.0888" ry="26"/>
<text text-anchor="middle" x="1024.8571" y="-494.3" font-family="Times,serif" font-size="14.00" fill="#000000">to_num_int</text>
</a>
</g>
</g>
<!-- Basics_Nat_to_int -->
<g id="node2" class="node">
<title>Basics_Nat_to_int</title>
<g id="a_node2"><a xlink:href="Basics.html#Nat.to_int" xlink:title="to_int">
<ellipse fill="#f070d1" stroke="#000000" cx="1081.8571" cy="-410" rx="37.8943" ry="18"/>
<text text-anchor="middle" x="1081.8571" y="-406.3" font-family="Times,serif" font-size="14.00" fill="#000000">to_int</text>
</a>
</g>
</g>
<!-- Basics_Nat_to_num_int&#45;&gt;Basics_Nat_to_int -->
<g id="edge1" class="edge">
<title>Basics_Nat_to_num_int&#45;&gt;Basics_Nat_to_int</title>
<path fill="none" stroke="#000000" d="M1041.3439,-472.5468C1048.8373,-460.978 1057.687,-447.3154 1065.2007,-435.7152"/>
<polygon fill="#000000" stroke="#000000" points="1068.1426,-437.6113 1070.6415,-427.3154 1062.2674,-433.8058 1068.1426,-437.6113"/>
</g>
<!-- Basics_Nat_to_uint -->
<g id="node7" class="node">
<title>Basics_Nat_to_uint</title>
<g id="a_node7"><a xlink:href="Basics.html#Nat.to_uint" xlink:title="to_uint">
<ellipse fill="#f070d1" stroke="#000000" cx="939.8571" cy="-330" rx="43.5923" ry="18"/>
<text text-anchor="middle" x="939.8571" y="-326.3" font-family="Times,serif" font-size="14.00" fill="#000000">to_uint</text>
</a>
</g>
</g>
<!-- Basics_Nat_to_int&#45;&gt;Basics_Nat_to_uint -->
<g id="edge2" class="edge">
<title>Basics_Nat_to_int&#45;&gt;Basics_Nat_to_uint</title>
<path fill="none" stroke="#000000" d="M1057.4465,-396.2475C1034.7057,-383.4358 1000.5482,-364.1922 974.8981,-349.7414"/>
<polygon fill="#000000" stroke="#000000" points="976.3003,-346.5142 965.8699,-344.655 972.8644,-352.6129 976.3003,-346.5142"/>
</g>
<!-- Basics_Nat_of_num_int -->
<g id="node3" class="node">
<title>Basics_Nat_of_num_int</title>
<g id="a_node3"><a xlink:href="Basics.html#Nat.of_num_int" xlink:title="of_num_int">
<ellipse fill="#f070d1" stroke="#000000" cx="376.8571" cy="-498" rx="62.3011" ry="18"/>
<ellipse fill="none" stroke="#000000" cx="376.8571" cy="-498" rx="66.2951" ry="22"/>
<ellipse fill="none" stroke="#000000" cx="376.8571" cy="-498" rx="70.2891" ry="26"/>
<text text-anchor="middle" x="376.8571" y="-494.3" font-family="Times,serif" font-size="14.00" fill="#000000">of_num_int</text>
</a>
</g>
</g>
<!-- Basics_Nat_of_hex_int -->
<g id="node4" class="node">
<title>Basics_Nat_of_hex_int</title>
<g id="a_node4"><a xlink:href="Basics.html#Nat.of_hex_int" xlink:title="of_hex_int">
<ellipse fill="#f070d1" stroke="#000000" cx="591.8571" cy="-410" rx="58.4896" ry="18"/>
<text text-anchor="middle" x="591.8571" y="-406.3" font-family="Times,serif" font-size="14.00" fill="#000000">of_hex_int</text>
</a>
</g>
</g>
<!-- Basics_Nat_of_num_int&#45;&gt;Basics_Nat_of_hex_int -->
<g id="edge3" class="edge">
<title>Basics_Nat_of_num_int&#45;&gt;Basics_Nat_of_hex_int</title>
<path fill="none" stroke="#000000" d="M424.0398,-478.688C460.6909,-463.6866 511.1725,-443.0244 547.1743,-428.2888"/>
<polygon fill="#000000" stroke="#000000" points="548.5298,-431.5159 556.4587,-424.4887 545.8781,-425.0375 548.5298,-431.5159"/>
</g>
<!-- Basics_Nat_of_int -->
<g id="node5" class="node">
<title>Basics_Nat_of_int</title>
<g id="a_node5"><a xlink:href="Basics.html#Nat.of_int" xlink:title="of_int">
<ellipse fill="#f070d1" stroke="#000000" cx="104.8571" cy="-410" rx="37.0935" ry="18"/>
<text text-anchor="middle" x="104.8571" y="-406.3" font-family="Times,serif" font-size="14.00" fill="#000000">of_int</text>
</a>
</g>
</g>
<!-- Basics_Nat_of_num_int&#45;&gt;Basics_Nat_of_int -->
<g id="edge4" class="edge">
<title>Basics_Nat_of_num_int&#45;&gt;Basics_Nat_of_int</title>
<path fill="none" stroke="#000000" d="M323.7671,-480.8238C271.5172,-463.9194 192.8652,-438.4732 145.4317,-423.1271"/>
<polygon fill="#000000" stroke="#000000" points="146.3964,-419.7606 135.8045,-420.0124 144.2416,-426.4207 146.3964,-419.7606"/>
</g>
<!-- Basics_Nat_of_hex_uint -->
<g id="node10" class="node">
<title>Basics_Nat_of_hex_uint</title>
<g id="a_node10"><a xlink:href="Basics.html#Nat.of_hex_uint" xlink:title="of_hex_uint">
<ellipse fill="#f070d1" stroke="#000000" cx="467.8571" cy="-330" rx="64.189" ry="18"/>
<text text-anchor="middle" x="467.8571" y="-326.3" font-family="Times,serif" font-size="14.00" fill="#000000">of_hex_uint</text>
</a>
</g>
</g>
<!-- Basics_Nat_of_hex_int&#45;&gt;Basics_Nat_of_hex_uint -->
<g id="edge5" class="edge">
<title>Basics_Nat_of_hex_int&#45;&gt;Basics_Nat_of_hex_uint</title>
<path fill="none" stroke="#000000" d="M566.4647,-393.6178C547.9482,-381.6717 522.6449,-365.3469 502.3066,-352.2255"/>
<polygon fill="#000000" stroke="#000000" points="503.9422,-349.1155 493.6418,-346.6353 500.1473,-354.9976 503.9422,-349.1155"/>
</g>
<!-- Basics_Nat_of_uint -->
<g id="node12" class="node">
<title>Basics_Nat_of_uint</title>
<g id="a_node12"><a xlink:href="Basics.html#Nat.of_uint" xlink:title="of_uint">
<ellipse fill="#f070d1" stroke="#000000" cx="181.8571" cy="-330" rx="42.7926" ry="18"/>
<text text-anchor="middle" x="181.8571" y="-326.3" font-family="Times,serif" font-size="14.00" fill="#000000">of_uint</text>
</a>
</g>
</g>
<!-- Basics_Nat_of_int&#45;&gt;Basics_Nat_of_uint -->
<g id="edge6" class="edge">
<title>Basics_Nat_of_int&#45;&gt;Basics_Nat_of_uint</title>
<path fill="none" stroke="#000000" d="M120.8116,-393.4239C131.6824,-382.1296 146.2559,-366.9883 158.4372,-354.3324"/>
<polygon fill="#000000" stroke="#000000" points="161.2452,-356.4621 165.6582,-346.8301 156.2018,-351.6078 161.2452,-356.4621"/>
</g>
<!-- Basics_Nat_to_num_uint -->
<g id="node6" class="node">
<title>Basics_Nat_to_num_uint</title>
<g id="a_node6"><a xlink:href="Basics.html#Nat.to_num_uint" xlink:title="to_num_uint">
<ellipse fill="#f070d1" stroke="#000000" cx="853.8571" cy="-410" rx="68.7989" ry="18"/>
<ellipse fill="none" stroke="#000000" cx="853.8571" cy="-410" rx="72.7934" ry="22"/>
<ellipse fill="none" stroke="#000000" cx="853.8571" cy="-410" rx="76.7879" ry="26"/>
<text text-anchor="middle" x="853.8571" y="-406.3" font-family="Times,serif" font-size="14.00" fill="#000000">to_num_uint</text>
</a>
</g>
</g>
<!-- Basics_Nat_to_num_uint&#45;&gt;Basics_Nat_to_uint -->
<g id="edge7" class="edge">
<title>Basics_Nat_to_num_uint&#45;&gt;Basics_Nat_to_uint</title>
<path fill="none" stroke="#000000" d="M880.1273,-385.5627C891.0184,-375.4314 903.606,-363.722 914.4092,-353.6725"/>
<polygon fill="#000000" stroke="#000000" points="916.9725,-356.0683 921.9105,-346.6945 912.2048,-350.9429 916.9725,-356.0683"/>
</g>
<!-- Basics_Nat_to_little_uint -->
<g id="node8" class="node">
<title>Basics_Nat_to_little_uint</title>
<g id="a_node8"><a xlink:href="Basics.html#Nat.to_little_uint" xlink:title="to_little_uint">
<ellipse fill="#f070d1" stroke="#000000" cx="939.8571" cy="-258" rx="70.3881" ry="18"/>
<text text-anchor="middle" x="939.8571" y="-254.3" font-family="Times,serif" font-size="14.00" fill="#000000">to_little_uint</text>
</a>
</g>
</g>
<!-- Basics_Nat_to_uint&#45;&gt;Basics_Nat_to_little_uint -->
<g id="edge8" class="edge">
<title>Basics_Nat_to_uint&#45;&gt;Basics_Nat_to_little_uint</title>
<path fill="none" stroke="#000000" d="M939.8571,-311.8314C939.8571,-304.131 939.8571,-294.9743 939.8571,-286.4166"/>
<polygon fill="#000000" stroke="#000000" points="943.3572,-286.4132 939.8571,-276.4133 936.3572,-286.4133 943.3572,-286.4132"/>
</g>
<!-- Basics_Nat_of_num_uint -->
<g id="node9" class="node">
<title>Basics_Nat_of_num_uint</title>
<g id="a_node9"><a xlink:href="Basics.html#Nat.of_num_uint" xlink:title="of_num_uint">
<ellipse fill="#f070d1" stroke="#000000" cx="328.8571" cy="-410" rx="68.463" ry="18"/>
<ellipse fill="none" stroke="#000000" cx="328.8571" cy="-410" rx="72.4758" ry="22"/>
<ellipse fill="none" stroke="#000000" cx="328.8571" cy="-410" rx="76.4887" ry="26"/>
<text text-anchor="middle" x="328.8571" y="-406.3" font-family="Times,serif" font-size="14.00" fill="#000000">of_num_uint</text>
</a>
</g>
</g>
<!-- Basics_Nat_of_num_uint&#45;&gt;Basics_Nat_of_hex_uint -->
<g id="edge9" class="edge">
<title>Basics_Nat_of_num_uint&#45;&gt;Basics_Nat_of_hex_uint</title>
<path fill="none" stroke="#000000" d="M367.9463,-387.5026C387.6332,-376.1721 411.3753,-362.5075 430.7748,-351.3424"/>
<polygon fill="#000000" stroke="#000000" points="432.7104,-354.2667 439.6316,-346.2449 429.2186,-348.1997 432.7104,-354.2667"/>
</g>
<!-- Basics_Nat_of_num_uint&#45;&gt;Basics_Nat_of_uint -->
<g id="edge10" class="edge">
<title>Basics_Nat_of_num_uint&#45;&gt;Basics_Nat_of_uint</title>
<path fill="none" stroke="#000000" d="M288.2996,-387.9279C266.0913,-375.8417 238.8236,-361.0022 217.4469,-349.3686"/>
<polygon fill="#000000" stroke="#000000" points="218.8359,-346.1398 208.3793,-344.4338 215.4898,-352.2883 218.8359,-346.1398"/>
</g>
<!-- Basics_Nat_of_hex_uint_acc -->
<g id="node11" class="node">
<title>Basics_Nat_of_hex_uint_acc</title>
<g id="a_node11"><a xlink:href="Basics.html#Nat.of_hex_uint_acc" xlink:title="of_hex_uint_acc">
<ellipse fill="#f070d1" stroke="#000000" cx="467.8571" cy="-258" rx="85.2851" ry="18"/>
<text text-anchor="middle" x="467.8571" y="-254.3" font-family="Times,serif" font-size="14.00" fill="#000000">of_hex_uint_acc</text>
</a>
</g>
</g>
<!-- Basics_Nat_of_hex_uint&#45;&gt;Basics_Nat_of_hex_uint_acc -->
<g id="edge11" class="edge">
<title>Basics_Nat_of_hex_uint&#45;&gt;Basics_Nat_of_hex_uint_acc</title>
<path fill="none" stroke="#000000" d="M467.8571,-311.8314C467.8571,-304.131 467.8571,-294.9743 467.8571,-286.4166"/>
<polygon fill="#000000" stroke="#000000" points="471.3572,-286.4132 467.8571,-276.4133 464.3572,-286.4133 471.3572,-286.4132"/>
</g>
<!-- Basics_Nat_tail_mul -->
<g id="node14" class="node">
<title>Basics_Nat_tail_mul</title>
<g id="a_node14"><a xlink:href="Basics.html#Nat.tail_mul" xlink:title="tail_mul">
<ellipse fill="#f070d1" stroke="#000000" cx="212.8571" cy="-186" rx="48.1917" ry="18"/>
<text text-anchor="middle" x="212.8571" y="-182.3" font-family="Times,serif" font-size="14.00" fill="#000000">tail_mul</text>
</a>
</g>
</g>
<!-- Basics_Nat_of_hex_uint_acc&#45;&gt;Basics_Nat_tail_mul -->
<g id="edge12" class="edge">
<title>Basics_Nat_of_hex_uint_acc&#45;&gt;Basics_Nat_tail_mul</title>
<path fill="none" stroke="#000000" d="M416.5608,-243.5163C371.2649,-230.7269 305.7011,-212.2148 261.2873,-199.6744"/>
<polygon fill="#000000" stroke="#000000" points="262.1658,-196.2857 251.591,-196.9366 260.2637,-203.0223 262.1658,-196.2857"/>
</g>
<!-- Basics_Nat_of_uint_acc -->
<g id="node13" class="node">
<title>Basics_Nat_of_uint_acc</title>
<g id="a_node13"><a xlink:href="Basics.html#Nat.of_uint_acc" xlink:title="of_uint_acc">
<ellipse fill="#f070d1" stroke="#000000" cx="181.8571" cy="-258" rx="63.8893" ry="18"/>
<text text-anchor="middle" x="181.8571" y="-254.3" font-family="Times,serif" font-size="14.00" fill="#000000">of_uint_acc</text>
</a>
</g>
</g>
<!-- Basics_Nat_of_uint&#45;&gt;Basics_Nat_of_uint_acc -->
<g id="edge13" class="edge">
<title>Basics_Nat_of_uint&#45;&gt;Basics_Nat_of_uint_acc</title>
<path fill="none" stroke="#000000" d="M181.8571,-311.8314C181.8571,-304.131 181.8571,-294.9743 181.8571,-286.4166"/>
<polygon fill="#000000" stroke="#000000" points="185.3572,-286.4132 181.8571,-276.4133 178.3572,-286.4133 185.3572,-286.4132"/>
</g>
<!-- Basics_Nat_of_uint_acc&#45;&gt;Basics_Nat_tail_mul -->
<g id="edge14" class="edge">
<title>Basics_Nat_of_uint_acc&#45;&gt;Basics_Nat_tail_mul</title>
<path fill="none" stroke="#000000" d="M189.6798,-239.8314C193.1572,-231.7547 197.3244,-222.0761 201.1603,-213.1668"/>
<polygon fill="#000000" stroke="#000000" points="204.4045,-214.4824 205.1444,-203.9134 197.9751,-211.7141 204.4045,-214.4824"/>
</g>
<!-- Basics_Nat_tail_addmul -->
<g id="node15" class="node">
<title>Basics_Nat_tail_addmul</title>
<g id="a_node15"><a xlink:href="Basics.html#Nat.tail_addmul" xlink:title="tail_addmul">
<ellipse fill="#f070d1" stroke="#000000" cx="212.8571" cy="-114" rx="65.7887" ry="18"/>
<text text-anchor="middle" x="212.8571" y="-110.3" font-family="Times,serif" font-size="14.00" fill="#000000">tail_addmul</text>
</a>
</g>
</g>
<!-- Basics_Nat_tail_mul&#45;&gt;Basics_Nat_tail_addmul -->
<g id="edge15" class="edge">
<title>Basics_Nat_tail_mul&#45;&gt;Basics_Nat_tail_addmul</title>
<path fill="none" stroke="#000000" d="M212.8571,-167.8314C212.8571,-160.131 212.8571,-150.9743 212.8571,-142.4166"/>
<polygon fill="#000000" stroke="#000000" points="216.3572,-142.4132 212.8571,-132.4133 209.3572,-142.4133 216.3572,-142.4132"/>
</g>
<!-- Basics_Nat_tail_add -->
<g id="node16" class="node">
<title>Basics_Nat_tail_add</title>
<g id="a_node16"><a xlink:href="Basics.html#Nat.tail_add" xlink:title="tail_add">
<ellipse fill="#f070d1" stroke="#000000" cx="212.8571" cy="-42" rx="48.1917" ry="18"/>
<text text-anchor="middle" x="212.8571" y="-38.3" font-family="Times,serif" font-size="14.00" fill="#000000">tail_add</text>
</a>
</g>
</g>
<!-- Basics_Nat_tail_addmul&#45;&gt;Basics_Nat_tail_add -->
<g id="edge16" class="edge">
<title>Basics_Nat_tail_addmul&#45;&gt;Basics_Nat_tail_add</title>
<path fill="none" stroke="#000000" d="M212.8571,-95.8314C212.8571,-88.131 212.8571,-78.9743 212.8571,-70.4166"/>
<polygon fill="#000000" stroke="#000000" points="216.3572,-70.4132 212.8571,-60.4133 209.3572,-70.4133 216.3572,-70.4132"/>
</g>
</g>
</svg>
