<?xml version="1.0" encoding="UTF-8" standalone="no"?>
<!DOCTYPE svg PUBLIC "-//W3C//DTD SVG 1.1//EN"
 "http://www.w3.org/Graphics/SVG/1.1/DTD/svg11.dtd">
<!-- Generated by graphviz version 2.40.1 (20161225.0304)
 -->
<!-- Title: HoTT_Classes_interfaces_archimedean Pages: 1 -->
<svg width="510pt" height="259pt"
 viewBox="0.00 0.00 510.00 259.00" xmlns="http://www.w3.org/2000/svg" xmlns:xlink="http://www.w3.org/1999/xlink">
<g id="graph0" class="graph" transform="scale(1 1) rotate(0) translate(4 255)">
<title>HoTT_Classes_interfaces_archimedean</title>
<polygon fill="#ffffff" stroke="transparent" points="-4,4 -4,-255 506,-255 506,4 -4,4"/>
<g id="clust1" class="cluster">
<title>cluster_archimedean</title>
<polygon fill="#ffffc3" stroke="#000000" points="14.3429,-8 14.3429,-243 487.6571,-243 487.6571,-8 14.3429,-8"/>
<text text-anchor="middle" x="69.3429" y="-227.8" font-family="Times,serif" font-size="14.00" fill="#000000">archimedean</text>
</g>
<!-- archimedean_archimedean_property -->
<g id="node1" class="node">
<title>archimedean_archimedean_property</title>
<g id="a_node1"><a xlink:href="archimedean.html#archimedean_property" xlink:title="archimedean_property">
<ellipse fill="#f070d1" stroke="#000000" cx="251.2786" cy="-186" rx="116.1899" ry="18"/>
<ellipse fill="none" stroke="#000000" cx="251.2786" cy="-186" rx="120.1847" ry="22"/>
<ellipse fill="none" stroke="#000000" cx="251.2786" cy="-186" rx="124.1796" ry="26"/>
<text text-anchor="middle" x="251.2786" y="-182.3" font-family="Times,serif" font-size="14.00" fill="#000000">archimedean_property</text>
</a>
</g>
</g>
<!-- archimedean_ArchimedeanProperty -->
<g id="node2" class="node">
<title>archimedean_ArchimedeanProperty</title>
<g id="a_node2"><a xlink:href="archimedean.html#ArchimedeanProperty" xlink:title="ArchimedeanProperty">
<ellipse fill="#f070d1" stroke="#000000" cx="251.2786" cy="-106" rx="113.9803" ry="18"/>
<text text-anchor="middle" x="251.2786" y="-102.3" font-family="Times,serif" font-size="14.00" fill="#000000">ArchimedeanProperty</text>
</a>
</g>
</g>
<!-- archimedean_archimedean_property&#45;&gt;archimedean_ArchimedeanProperty -->
<g id="edge1" class="edge">
<title>archimedean_archimedean_property&#45;&gt;archimedean_ArchimedeanProperty</title>
<path fill="none" stroke="#000000" d="M251.2786,-159.805C251.2786,-151.6026 251.2786,-142.5174 251.2786,-134.1839"/>
<polygon fill="#000000" stroke="#000000" points="254.7787,-134.1532 251.2786,-124.1532 247.7787,-134.1533 254.7787,-134.1532"/>
</g>
<!-- archimedean_qinc -->
<g id="node3" class="node">
<title>archimedean_qinc</title>
<g id="a_node3"><a xlink:href="archimedean.html#qinc" xlink:title="qinc">
<ellipse fill="#f070d1" stroke="#000000" cx="251.2786" cy="-34" rx="30.5947" ry="18"/>
<text text-anchor="middle" x="251.2786" y="-30.3" font-family="Times,serif" font-size="14.00" fill="#000000">qinc</text>
</a>
</g>
</g>
<!-- archimedean_ArchimedeanProperty&#45;&gt;archimedean_qinc -->
<g id="edge2" class="edge">
<title>archimedean_ArchimedeanProperty&#45;&gt;archimedean_qinc</title>
<path fill="none" stroke="#000000" d="M251.2786,-87.8314C251.2786,-80.131 251.2786,-70.9743 251.2786,-62.4166"/>
<polygon fill="#000000" stroke="#000000" points="254.7787,-62.4132 251.2786,-52.4133 247.7787,-62.4133 254.7787,-62.4132"/>
</g>
</g>
</svg>
