<?xml version="1.0" encoding="UTF-8" standalone="no"?>
<!DOCTYPE svg PUBLIC "-//W3C//DTD SVG 1.1//EN"
 "http://www.w3.org/Graphics/SVG/1.1/DTD/svg11.dtd">
<!-- Generated by graphviz version 2.40.1 (20161225.0304)
 -->
<!-- Title: HoTT_HIT_quotient Pages: 1 -->
<svg width="1740pt" height="874pt"
 viewBox="0.00 0.00 1740.00 874.00" xmlns="http://www.w3.org/2000/svg" xmlns:xlink="http://www.w3.org/1999/xlink">
<g id="graph0" class="graph" transform="scale(1 1) rotate(0) translate(4 870)">
<title>HoTT_HIT_quotient</title>
<polygon fill="#ffffff" stroke="transparent" points="-4,4 -4,-870 1736,-870 1736,4 -4,4"/>
<g id="clust1" class="cluster">
<title>cluster_quotient</title>
<polygon fill="#ffffc3" stroke="#000000" points="8,-10.0991 8,-855.9009 1724,-855.9009 1724,-10.0991 8,-10.0991"/>
<text text-anchor="middle" x="46.5" y="-840.7009" font-family="Times,serif" font-size="14.00" fill="#000000">quotient</text>
</g>
<g id="clust2" class="cluster">
<title>cluster_quotient_Quotient</title>
<polygon fill="#ffffa3" stroke="#000000" points="525,-20.1983 525,-407.7522 1100,-407.7522 1100,-20.1983 525,-20.1983"/>
<text text-anchor="middle" x="565" y="-392.5522" font-family="Times,serif" font-size="14.00" fill="#000000">Quotient</text>
</g>
<!-- quotient_Quotient_quotient_ind_compute_path -->
<g id="node1" class="node">
<title>quotient_Quotient_quotient_ind_compute_path</title>
<g id="a_node1"><a xlink:href="quotient.html#Quotient.quotient_ind_compute_path" xlink:title="quotient_ind_compute_path">
<ellipse fill="#facdef" stroke="#000000" cx="681" cy="-336.0991" rx="140.2812" ry="18"/>
<ellipse fill="none" stroke="#000000" cx="681" cy="-336.0991" rx="144.2782" ry="22"/>
<ellipse fill="none" stroke="#000000" cx="681" cy="-336.0991" rx="148.2752" ry="26"/>
<text text-anchor="middle" x="681" y="-332.3991" font-family="Times,serif" font-size="14.00" fill="#000000">quotient_ind_compute_path</text>
</a>
</g>
</g>
<!-- quotient_Quotient_quotient_ind -->
<g id="node3" class="node">
<title>quotient_Quotient_quotient_ind</title>
<g id="a_node3"><a xlink:href="quotient.html#Quotient.quotient_ind" xlink:title="quotient_ind">
<ellipse fill="#f070d1" stroke="#000000" cx="993" cy="-235.0991" rx="69.5877" ry="18"/>
<text text-anchor="middle" x="993" y="-231.3991" font-family="Times,serif" font-size="14.00" fill="#000000">quotient_ind</text>
</a>
</g>
</g>
<!-- quotient_Quotient_quotient_ind_compute_path&#45;&gt;quotient_Quotient_quotient_ind -->
<g id="edge1" class="edge">
<title>quotient_Quotient_quotient_ind_compute_path&#45;&gt;quotient_Quotient_quotient_ind</title>
<path fill="none" stroke="#000000" d="M751.7976,-313.1807C808.8876,-294.6996 887.9386,-269.1094 939.7522,-252.3364"/>
<polygon fill="#000000" stroke="#000000" points="940.9817,-255.6173 949.4177,-249.2075 938.8258,-248.9575 940.9817,-255.6173"/>
</g>
<!-- quotient_Quotient_quotient_ind_compute -->
<g id="node2" class="node">
<title>quotient_Quotient_quotient_ind_compute</title>
<g id="a_node2"><a xlink:href="quotient.html#Quotient.quotient_ind_compute" xlink:title="quotient_ind_compute">
<ellipse fill="#f070d1" stroke="#000000" cx="970" cy="-336.0991" rx="114.287" ry="18"/>
<ellipse fill="none" stroke="#000000" cx="970" cy="-336.0991" rx="118.2834" ry="22"/>
<ellipse fill="none" stroke="#000000" cx="970" cy="-336.0991" rx="122.2798" ry="26"/>
<text text-anchor="middle" x="970" y="-332.3991" font-family="Times,serif" font-size="14.00" fill="#000000">quotient_ind_compute</text>
</a>
</g>
</g>
<!-- quotient_Quotient_quotient_ind_compute&#45;&gt;quotient_Quotient_quotient_ind -->
<g id="edge2" class="edge">
<title>quotient_Quotient_quotient_ind_compute&#45;&gt;quotient_Quotient_quotient_ind</title>
<path fill="none" stroke="#000000" d="M975.9231,-310.0891C979.179,-295.7912 983.222,-278.0374 986.5566,-263.3939"/>
<polygon fill="#000000" stroke="#000000" points="990.0304,-263.9024 988.8382,-253.3748 983.2051,-262.3481 990.0304,-263.9024"/>
</g>
<!-- quotient_Quotient_related_classes_eq -->
<g id="node5" class="node">
<title>quotient_Quotient_related_classes_eq</title>
<g id="a_node5"><a xlink:href="quotient.html#Quotient.related_classes_eq" xlink:title="related_classes_eq">
<ellipse fill="#facdef" stroke="#000000" cx="993" cy="-144.0991" rx="98.5829" ry="18"/>
<text text-anchor="middle" x="993" y="-140.3991" font-family="Times,serif" font-size="14.00" fill="#000000">related_classes_eq</text>
</a>
</g>
</g>
<!-- quotient_Quotient_quotient_ind&#45;&gt;quotient_Quotient_related_classes_eq -->
<g id="edge3" class="edge">
<title>quotient_Quotient_quotient_ind&#45;&gt;quotient_Quotient_related_classes_eq</title>
<path fill="none" stroke="#000000" d="M993,-216.6839C993,-204.02 993,-186.9549 993,-172.5532"/>
<polygon fill="#000000" stroke="#000000" points="996.5001,-172.1764 993,-162.1764 989.5001,-172.1764 996.5001,-172.1764"/>
</g>
<!-- quotient_Quotient_quotient_set -->
<g id="node4" class="node">
<title>quotient_Quotient_quotient_set</title>
<g id="a_node4"><a xlink:href="quotient.html#Quotient.quotient_set" xlink:title="quotient_set">
<ellipse fill="#facdef" stroke="#000000" cx="807" cy="-144.0991" rx="68.7879" ry="18"/>
<text text-anchor="middle" x="807" y="-140.3991" font-family="Times,serif" font-size="14.00" fill="#000000">quotient_set</text>
</a>
</g>
</g>
<!-- quotient_Quotient_quotient -->
<g id="node7" class="node">
<title>quotient_Quotient_quotient</title>
<g id="a_node7"><a xlink:href="quotient.html#Quotient.quotient" xlink:title="quotient">
<ellipse fill="#e2cdfa" stroke="#000000" cx="842" cy="-53.0991" rx="50.0912" ry="18"/>
<text text-anchor="middle" x="842" y="-49.3991" font-family="Times,serif" font-size="14.00" fill="#000000">quotient</text>
</a>
</g>
</g>
<!-- quotient_Quotient_quotient_set&#45;&gt;quotient_Quotient_quotient -->
<g id="edge4" class="edge">
<title>quotient_Quotient_quotient_set&#45;&gt;quotient_Quotient_quotient</title>
<path fill="none" stroke="#000000" d="M813.9149,-126.1205C818.9004,-113.1582 825.7218,-95.4226 831.3934,-80.6764"/>
<polygon fill="#000000" stroke="#000000" points="834.7764,-81.6304 835.0995,-71.0404 828.2429,-79.1175 834.7764,-81.6304"/>
</g>
<!-- quotient_Quotient_class_of -->
<g id="node6" class="node">
<title>quotient_Quotient_class_of</title>
<g id="a_node6"><a xlink:href="quotient.html#Quotient.class_of" xlink:title="class_of">
<ellipse fill="#7faaff" stroke="#000000" cx="993" cy="-53.0991" rx="48.1917" ry="18"/>
<text text-anchor="middle" x="993" y="-49.3991" font-family="Times,serif" font-size="14.00" fill="#000000">class_of</text>
</a>
</g>
</g>
<!-- quotient_Quotient_related_classes_eq&#45;&gt;quotient_Quotient_class_of -->
<g id="edge5" class="edge">
<title>quotient_Quotient_related_classes_eq&#45;&gt;quotient_Quotient_class_of</title>
<path fill="none" stroke="#000000" d="M993,-125.6839C993,-113.02 993,-95.9549 993,-81.5532"/>
<polygon fill="#000000" stroke="#000000" points="996.5001,-81.1764 993,-71.1764 989.5001,-81.1764 996.5001,-81.1764"/>
</g>
<!-- quotient_Quotient_related_classes_eq&#45;&gt;quotient_Quotient_quotient -->
<g id="edge6" class="edge">
<title>quotient_Quotient_related_classes_eq&#45;&gt;quotient_Quotient_quotient</title>
<path fill="none" stroke="#000000" d="M964.2426,-126.7685C939.3341,-111.7574 903.2349,-90.0023 876.7212,-74.0238"/>
<polygon fill="#000000" stroke="#000000" points="878.4986,-71.0086 868.1271,-68.8446 874.8854,-77.004 878.4986,-71.0086"/>
</g>
<!-- quotient_quotient_kernel_factor -->
<g id="node8" class="node">
<title>quotient_quotient_kernel_factor</title>
<g id="a_node8"><a xlink:href="quotient.html#quotient_kernel_factor" xlink:title="quotient_kernel_factor">
<ellipse fill="#f070d1" stroke="#000000" cx="1571" cy="-562.0991" rx="116.9799" ry="18"/>
<ellipse fill="none" stroke="#000000" cx="1571" cy="-562.0991" rx="120.9796" ry="22"/>
<ellipse fill="none" stroke="#000000" cx="1571" cy="-562.0991" rx="124.9792" ry="26"/>
<text text-anchor="middle" x="1571" y="-558.3991" font-family="Times,serif" font-size="14.00" fill="#000000">quotient_kernel_factor</text>
</a>
</g>
</g>
<!-- quotient_quotient_kernel_factor&#45;&gt;quotient_Quotient_quotient_set -->
<g id="edge7" class="edge">
<title>quotient_quotient_kernel_factor&#45;&gt;quotient_Quotient_quotient_set</title>
<path fill="none" stroke="#000000" d="M1621.7911,-538.2153C1645.6189,-524.079 1671.6586,-503.6883 1685,-477.0991 1705.3451,-436.5515 1667.8022,-317.7059 1660,-310.0991 1408.9149,-65.3034 1228.1288,-234.4268 885,-162.0991 879.5605,-160.9525 873.9166,-159.7248 868.2648,-158.4693"/>
<polygon fill="#000000" stroke="#000000" points="868.65,-154.9686 858.1259,-156.1908 867.1151,-161.7983 868.65,-154.9686"/>
</g>
<!-- quotient_quotient_surjective -->
<g id="node17" class="node">
<title>quotient_quotient_surjective</title>
<g id="a_node17"><a xlink:href="quotient.html#quotient_surjective" xlink:title="quotient_surjective">
<ellipse fill="#f070d1" stroke="#000000" cx="1575" cy="-451.0991" rx="100.9827" ry="18"/>
<text text-anchor="middle" x="1575" y="-447.3991" font-family="Times,serif" font-size="14.00" fill="#000000">quotient_surjective</text>
</a>
</g>
</g>
<!-- quotient_quotient_kernel_factor&#45;&gt;quotient_quotient_surjective -->
<g id="edge8" class="edge">
<title>quotient_quotient_kernel_factor&#45;&gt;quotient_quotient_surjective</title>
<path fill="none" stroke="#000000" d="M1571.9378,-536.0746C1572.5497,-519.0937 1573.3485,-496.9269 1573.9769,-479.4913"/>
<polygon fill="#000000" stroke="#000000" points="1577.4803,-479.4549 1574.3428,-469.3353 1570.4849,-479.2027 1577.4803,-479.4549"/>
</g>
<!-- quotient_quotient_functor_equiv_ -->
<g id="node9" class="node">
<title>quotient_quotient_functor_equiv_</title>
<g id="a_node9"><a xlink:href="quotient.html#quotient_functor_equiv'" xlink:title="quotient_functor_equiv&#39;">
<ellipse fill="#f070d1" stroke="#000000" cx="266" cy="-784.0991" rx="121.576" ry="18"/>
<ellipse fill="none" stroke="#000000" cx="266" cy="-784.0991" rx="125.5772" ry="22"/>
<ellipse fill="none" stroke="#000000" cx="266" cy="-784.0991" rx="129.5784" ry="26"/>
<text text-anchor="middle" x="266" y="-780.3991" font-family="Times,serif" font-size="14.00" fill="#000000">quotient_functor_equiv&#39;</text>
</a>
</g>
</g>
<!-- quotient_quotient_functor_equiv -->
<g id="node10" class="node">
<title>quotient_quotient_functor_equiv</title>
<g id="a_node10"><a xlink:href="quotient.html#quotient_functor_equiv" xlink:title="quotient_functor_equiv">
<ellipse fill="#f070d1" stroke="#000000" cx="266" cy="-673.0991" rx="118.8789" ry="18"/>
<text text-anchor="middle" x="266" y="-669.3991" font-family="Times,serif" font-size="14.00" fill="#000000">quotient_functor_equiv</text>
</a>
</g>
</g>
<!-- quotient_quotient_functor_equiv_&#45;&gt;quotient_quotient_functor_equiv -->
<g id="edge9" class="edge">
<title>quotient_quotient_functor_equiv_&#45;&gt;quotient_quotient_functor_equiv</title>
<path fill="none" stroke="#000000" d="M266,-758.0746C266,-741.0937 266,-718.9269 266,-701.4913"/>
<polygon fill="#000000" stroke="#000000" points="269.5001,-701.3352 266,-691.3353 262.5001,-701.3353 269.5001,-701.3352"/>
</g>
<!-- quotient_quotient_functor_isequiv -->
<g id="node11" class="node">
<title>quotient_quotient_functor_isequiv</title>
<g id="a_node11"><a xlink:href="quotient.html#quotient_functor_isequiv" xlink:title="quotient_functor_isequiv">
<ellipse fill="#f070d1" stroke="#000000" cx="266" cy="-562.0991" rx="126.978" ry="18"/>
<text text-anchor="middle" x="266" y="-558.3991" font-family="Times,serif" font-size="14.00" fill="#000000">quotient_functor_isequiv</text>
</a>
</g>
</g>
<!-- quotient_quotient_functor_equiv&#45;&gt;quotient_quotient_functor_isequiv -->
<g id="edge10" class="edge">
<title>quotient_quotient_functor_equiv&#45;&gt;quotient_quotient_functor_isequiv</title>
<path fill="none" stroke="#000000" d="M266,-654.7697C266,-637.3364 266,-610.8473 266,-590.648"/>
<polygon fill="#000000" stroke="#000000" points="269.5001,-590.4557 266,-580.4557 262.5001,-590.4558 269.5001,-590.4557"/>
</g>
<!-- quotient_quotient_functor_isequiv_subproof -->
<g id="node12" class="node">
<title>quotient_quotient_functor_isequiv_subproof</title>
<g id="a_node12"><a xlink:href="quotient.html#quotient_functor_isequiv_subproof" xlink:title="quotient_functor_isequiv_subproof">
<ellipse fill="#f070d1" stroke="#000000" cx="385" cy="-451.0991" rx="172.7694" ry="18"/>
<text text-anchor="middle" x="385" y="-447.3991" font-family="Times,serif" font-size="14.00" fill="#000000">quotient_functor_isequiv_subproof</text>
</a>
</g>
</g>
<!-- quotient_quotient_functor_isequiv&#45;&gt;quotient_quotient_functor_isequiv_subproof -->
<g id="edge11" class="edge">
<title>quotient_quotient_functor_isequiv&#45;&gt;quotient_quotient_functor_isequiv_subproof</title>
<path fill="none" stroke="#000000" d="M285.1194,-544.2651C304.8664,-525.8455 335.849,-496.9458 358.0708,-476.218"/>
<polygon fill="#000000" stroke="#000000" points="360.6074,-478.6381 365.5327,-469.2577 355.8327,-473.5193 360.6074,-478.6381"/>
</g>
<!-- quotient_quotient_functor -->
<g id="node13" class="node">
<title>quotient_quotient_functor</title>
<g id="a_node13"><a xlink:href="quotient.html#quotient_functor" xlink:title="quotient_functor">
<ellipse fill="#f070d1" stroke="#000000" cx="105" cy="-451.0991" rx="89.0842" ry="18"/>
<text text-anchor="middle" x="105" y="-447.3991" font-family="Times,serif" font-size="14.00" fill="#000000">quotient_functor</text>
</a>
</g>
</g>
<!-- quotient_quotient_functor_isequiv&#45;&gt;quotient_quotient_functor -->
<g id="edge12" class="edge">
<title>quotient_quotient_functor_isequiv&#45;&gt;quotient_quotient_functor</title>
<path fill="none" stroke="#000000" d="M240.1326,-544.2651C212.6257,-525.3007 169.0052,-495.227 138.7976,-474.4005"/>
<polygon fill="#000000" stroke="#000000" points="140.4921,-471.3176 130.2724,-468.523 136.5187,-477.0807 140.4921,-471.3176"/>
</g>
<!-- quotient_quotient_functor&#45;&gt;quotient_Quotient_quotient_set -->
<g id="edge13" class="edge">
<title>quotient_quotient_functor&#45;&gt;quotient_Quotient_quotient_set</title>
<path fill="none" stroke="#000000" d="M110.2251,-432.9035C119.8612,-402.6791 143.3498,-342.2746 185,-310.0991 272.4542,-242.5393 595.9553,-180.3008 738.6365,-155.4766"/>
<polygon fill="#000000" stroke="#000000" points="739.3344,-158.908 748.5913,-153.7544 738.141,-152.0104 739.3344,-158.908"/>
</g>
<!-- quotient_quotient_rec -->
<g id="node20" class="node">
<title>quotient_quotient_rec</title>
<g id="a_node20"><a xlink:href="quotient.html#quotient_rec" xlink:title="quotient_rec">
<ellipse fill="#f070d1" stroke="#000000" cx="264" cy="-336.0991" rx="69.5877" ry="18"/>
<text text-anchor="middle" x="264" y="-332.3991" font-family="Times,serif" font-size="14.00" fill="#000000">quotient_rec</text>
</a>
</g>
</g>
<!-- quotient_quotient_functor&#45;&gt;quotient_quotient_rec -->
<g id="edge14" class="edge">
<title>quotient_quotient_functor&#45;&gt;quotient_quotient_rec</title>
<path fill="none" stroke="#000000" d="M129.1487,-433.6331C156.7035,-413.7035 201.8702,-381.0357 232.2533,-359.0606"/>
<polygon fill="#000000" stroke="#000000" points="234.3523,-361.862 240.4039,-353.1655 230.25,-356.19 234.3523,-361.862"/>
</g>
<!-- quotient_quotient_ump -->
<g id="node14" class="node">
<title>quotient_quotient_ump</title>
<g id="a_node14"><a xlink:href="quotient.html#quotient_ump" xlink:title="quotient_ump">
<ellipse fill="#f070d1" stroke="#000000" cx="901" cy="-562.0991" rx="75.297" ry="18"/>
<ellipse fill="none" stroke="#000000" cx="901" cy="-562.0991" rx="79.2919" ry="22"/>
<ellipse fill="none" stroke="#000000" cx="901" cy="-562.0991" rx="83.2868" ry="26"/>
<text text-anchor="middle" x="901" y="-558.3991" font-family="Times,serif" font-size="14.00" fill="#000000">quotient_ump</text>
</a>
</g>
</g>
<!-- quotient_quotient_ump__ -->
<g id="node15" class="node">
<title>quotient_quotient_ump__</title>
<g id="a_node15"><a xlink:href="quotient.html#quotient_ump''" xlink:title="quotient_ump&#39;&#39;">
<ellipse fill="#f070d1" stroke="#000000" cx="840" cy="-451.0991" rx="79.8859" ry="18"/>
<text text-anchor="middle" x="840" y="-447.3991" font-family="Times,serif" font-size="14.00" fill="#000000">quotient_ump&#39;&#39;</text>
</a>
</g>
</g>
<!-- quotient_quotient_ump&#45;&gt;quotient_quotient_ump__ -->
<g id="edge15" class="edge">
<title>quotient_quotient_ump&#45;&gt;quotient_quotient_ump__</title>
<path fill="none" stroke="#000000" d="M886.8521,-536.3545C877.2899,-518.9545 864.6833,-496.0147 854.9558,-478.3138"/>
<polygon fill="#000000" stroke="#000000" points="857.769,-476.1656 849.8855,-469.0875 851.6343,-479.537 857.769,-476.1656"/>
</g>
<!-- quotient_quotient_ump_ -->
<g id="node16" class="node">
<title>quotient_quotient_ump_</title>
<g id="a_node16"><a xlink:href="quotient.html#quotient_ump'" xlink:title="quotient_ump&#39;">
<ellipse fill="#f070d1" stroke="#000000" cx="1215" cy="-451.0991" rx="77.1866" ry="18"/>
<text text-anchor="middle" x="1215" y="-447.3991" font-family="Times,serif" font-size="14.00" fill="#000000">quotient_ump&#39;</text>
</a>
</g>
</g>
<!-- quotient_quotient_ump&#45;&gt;quotient_quotient_ump_ -->
<g id="edge16" class="edge">
<title>quotient_quotient_ump&#45;&gt;quotient_quotient_ump_</title>
<path fill="none" stroke="#000000" d="M956.4141,-542.5101C1014.6655,-521.918 1105.6138,-489.7675 1162.6758,-469.5959"/>
<polygon fill="#000000" stroke="#000000" points="1163.9643,-472.8527 1172.226,-466.2199 1161.6312,-466.253 1163.9643,-472.8527"/>
</g>
<!-- quotient_quotient_ind_prop_ -->
<g id="node18" class="node">
<title>quotient_quotient_ind_prop_</title>
<g id="a_node18"><a xlink:href="quotient.html#quotient_ind_prop'" xlink:title="quotient_ind_prop&#39;">
<ellipse fill="#f070d1" stroke="#000000" cx="1209" cy="-336.0991" rx="98.2828" ry="18"/>
<text text-anchor="middle" x="1209" y="-332.3991" font-family="Times,serif" font-size="14.00" fill="#000000">quotient_ind_prop&#39;</text>
</a>
</g>
</g>
<!-- quotient_quotient_ump&#45;&gt;quotient_quotient_ind_prop_ -->
<g id="edge17" class="edge">
<title>quotient_quotient_ump&#45;&gt;quotient_quotient_ind_prop_</title>
<path fill="none" stroke="#000000" d="M960.3918,-543.6948C1013.9616,-526.0756 1087.5383,-499.0113 1109,-477.0991 1126.3263,-459.4092 1116.0641,-446.2131 1129,-425.0991 1143.589,-401.2869 1164.9126,-377.9444 1181.8767,-361.1429"/>
<polygon fill="#000000" stroke="#000000" points="1184.5921,-363.3846 1189.3245,-353.9054 1179.7137,-358.3645 1184.5921,-363.3846"/>
</g>
<!-- quotient_quotient_ump__&#45;&gt;quotient_quotient_rec -->
<g id="edge18" class="edge">
<title>quotient_quotient_ump__&#45;&gt;quotient_quotient_rec</title>
<path fill="none" stroke="#000000" d="M795.1563,-436.0461C781.1582,-431.8774 765.5669,-427.7686 751,-425.0991 572.0893,-392.312 513.7598,-455.7502 343,-393.0991 323.4891,-385.9406 304.5066,-372.5211 290.0408,-360.5006"/>
<polygon fill="#000000" stroke="#000000" points="291.9375,-357.515 282.0757,-353.6427 287.3702,-362.8197 291.9375,-357.515"/>
</g>
<!-- quotient_quotient_ump_&#45;&gt;quotient_Quotient_related_classes_eq -->
<g id="edge19" class="edge">
<title>quotient_quotient_ump_&#45;&gt;quotient_Quotient_related_classes_eq</title>
<path fill="none" stroke="#000000" d="M1261.2935,-436.6359C1274.1165,-432.7574 1288.0659,-428.6561 1301,-425.0991 1357.9565,-409.4358 1393.6045,-439.626 1430,-393.0991 1452.7284,-364.0438 1450.9471,-340.4637 1430,-310.0991 1387.2225,-248.0897 1176.6737,-188.7188 1064.1798,-160.7698"/>
<polygon fill="#000000" stroke="#000000" points="1064.8167,-157.322 1054.2695,-158.3258 1063.1406,-164.1184 1064.8167,-157.322"/>
</g>
<!-- quotient_quotient_ind_prop -->
<g id="node25" class="node">
<title>quotient_quotient_ind_prop</title>
<g id="a_node25"><a xlink:href="quotient.html#quotient_ind_prop" xlink:title="quotient_ind_prop">
<ellipse fill="#f070d1" stroke="#000000" cx="1555" cy="-336.0991" rx="95.5831" ry="18"/>
<text text-anchor="middle" x="1555" y="-332.3991" font-family="Times,serif" font-size="14.00" fill="#000000">quotient_ind_prop</text>
</a>
</g>
</g>
<!-- quotient_quotient_surjective&#45;&gt;quotient_quotient_ind_prop -->
<g id="edge20" class="edge">
<title>quotient_quotient_surjective&#45;&gt;quotient_quotient_ind_prop</title>
<path fill="none" stroke="#000000" d="M1571.8309,-432.877C1568.6273,-414.4558 1563.6318,-385.732 1559.9142,-364.356"/>
<polygon fill="#000000" stroke="#000000" points="1563.316,-363.4884 1558.1542,-354.236 1556.4195,-364.6878 1563.316,-363.4884"/>
</g>
<!-- quotient_quotient_ind_prop_&#45;&gt;quotient_Quotient_quotient_ind -->
<g id="edge21" class="edge">
<title>quotient_quotient_ind_prop_&#45;&gt;quotient_Quotient_quotient_ind</title>
<path fill="none" stroke="#000000" d="M1172.8465,-319.194C1135.1551,-301.5698 1076.0972,-273.9548 1036.0286,-255.219"/>
<polygon fill="#000000" stroke="#000000" points="1037.3199,-251.9591 1026.7787,-250.8938 1034.3548,-258.3001 1037.3199,-251.9591"/>
</g>
<!-- quotient_quotient_rec2 -->
<g id="node19" class="node">
<title>quotient_quotient_rec2</title>
<g id="a_node19"><a xlink:href="quotient.html#quotient_rec2" xlink:title="quotient_rec2">
<ellipse fill="#f070d1" stroke="#000000" cx="659" cy="-451.0991" rx="75.297" ry="18"/>
<ellipse fill="none" stroke="#000000" cx="659" cy="-451.0991" rx="79.2919" ry="22"/>
<ellipse fill="none" stroke="#000000" cx="659" cy="-451.0991" rx="83.2868" ry="26"/>
<text text-anchor="middle" x="659" y="-447.3991" font-family="Times,serif" font-size="14.00" fill="#000000">quotient_rec2</text>
</a>
</g>
</g>
<!-- quotient_quotient_rec2&#45;&gt;quotient_quotient_rec -->
<g id="edge22" class="edge">
<title>quotient_quotient_rec2&#45;&gt;quotient_quotient_rec</title>
<path fill="none" stroke="#000000" d="M598.9118,-432.8749C588.3383,-430.0248 577.3922,-427.2996 567,-425.0991 468.6151,-404.2667 436.2627,-430.7241 343,-393.0991 323.8577,-385.3766 305.0118,-372.0621 290.5305,-360.2427"/>
<polygon fill="#000000" stroke="#000000" points="292.4419,-357.2765 282.5392,-353.51 287.9317,-362.6299 292.4419,-357.2765"/>
</g>
<!-- quotient_quotient_rec&#45;&gt;quotient_Quotient_quotient_ind -->
<g id="edge23" class="edge">
<title>quotient_quotient_rec&#45;&gt;quotient_Quotient_quotient_ind</title>
<path fill="none" stroke="#000000" d="M303.7231,-321.1414C316.1451,-316.9766 330.0033,-312.8461 343,-310.0991 594.69,-256.9024 665.3982,-296.2723 919,-253.0991 924.0039,-252.2473 929.1713,-251.2461 934.3404,-250.1595"/>
<polygon fill="#000000" stroke="#000000" points="935.2263,-253.5484 944.2408,-247.9816 933.7224,-246.7119 935.2263,-253.5484"/>
</g>
<!-- quotient_sets_exact -->
<g id="node21" class="node">
<title>quotient_sets_exact</title>
<g id="a_node21"><a xlink:href="quotient.html#sets_exact" xlink:title="sets_exact">
<ellipse fill="#f070d1" stroke="#000000" cx="1374" cy="-673.0991" rx="59.6142" ry="18"/>
<ellipse fill="none" stroke="#000000" cx="1374" cy="-673.0991" rx="63.6021" ry="22"/>
<ellipse fill="none" stroke="#000000" cx="1374" cy="-673.0991" rx="67.59" ry="26"/>
<text text-anchor="middle" x="1374" y="-669.3991" font-family="Times,serif" font-size="14.00" fill="#000000">sets_exact</text>
</a>
</g>
</g>
<!-- quotient_sets_exact&#45;&gt;quotient_Quotient_quotient_set -->
<g id="edge24" class="edge">
<title>quotient_sets_exact&#45;&gt;quotient_Quotient_quotient_set</title>
<path fill="none" stroke="#000000" d="M1439.1234,-665.3712C1525.5759,-653.6701 1671.2816,-628.4455 1705,-588.0991 1744.1498,-541.2536 1715,-512.15 1715,-451.0991 1715,-451.0991 1715,-451.0991 1715,-336.0991 1715,-251.6956 1645.4188,-248.3151 1567,-217.0991 1284.4669,-104.6318 1185.5133,-208.6352 885,-162.0991 879.1052,-161.1863 872.9944,-160.0735 866.9057,-158.8536"/>
<polygon fill="#000000" stroke="#000000" points="867.2277,-155.345 856.722,-156.7157 865.7895,-162.1956 867.2277,-155.345"/>
</g>
<!-- quotient_classes_eq_related -->
<g id="node22" class="node">
<title>quotient_classes_eq_related</title>
<g id="a_node22"><a xlink:href="quotient.html#classes_eq_related" xlink:title="classes_eq_related">
<ellipse fill="#f070d1" stroke="#000000" cx="1101" cy="-562.0991" rx="98.5829" ry="18"/>
<text text-anchor="middle" x="1101" y="-558.3991" font-family="Times,serif" font-size="14.00" fill="#000000">classes_eq_related</text>
</a>
</g>
</g>
<!-- quotient_sets_exact&#45;&gt;quotient_classes_eq_related -->
<g id="edge25" class="edge">
<title>quotient_sets_exact&#45;&gt;quotient_classes_eq_related</title>
<path fill="none" stroke="#000000" d="M1327.3798,-654.1437C1278.3073,-634.1911 1201.3356,-602.8949 1151.0194,-582.4367"/>
<polygon fill="#000000" stroke="#000000" points="1152.2195,-579.1464 1141.6376,-578.6221 1149.5829,-585.6309 1152.2195,-579.1464"/>
</g>
<!-- quotient_in_class_pr -->
<g id="node26" class="node">
<title>quotient_in_class_pr</title>
<g id="a_node26"><a xlink:href="quotient.html#in_class_pr" xlink:title="in_class_pr">
<ellipse fill="#f070d1" stroke="#000000" cx="1373" cy="-451.0991" rx="63.0888" ry="18"/>
<text text-anchor="middle" x="1373" y="-447.3991" font-family="Times,serif" font-size="14.00" fill="#000000">in_class_pr</text>
</a>
</g>
</g>
<!-- quotient_classes_eq_related&#45;&gt;quotient_in_class_pr -->
<g id="edge26" class="edge">
<title>quotient_classes_eq_related&#45;&gt;quotient_in_class_pr</title>
<path fill="none" stroke="#000000" d="M1141.4274,-545.6012C1191.1642,-525.3042 1275.3842,-490.935 1327.3868,-469.7133"/>
<polygon fill="#000000" stroke="#000000" points="1328.7701,-472.9291 1336.7064,-465.9101 1326.1252,-466.448 1328.7701,-472.9291"/>
</g>
<!-- quotient_class_of_repr -->
<g id="node23" class="node">
<title>quotient_class_of_repr</title>
<g id="a_node23"><a xlink:href="quotient.html#class_of_repr" xlink:title="class_of_repr">
<ellipse fill="#f070d1" stroke="#000000" cx="1019" cy="-451.0991" rx="72.608" ry="18"/>
<ellipse fill="none" stroke="#000000" cx="1019" cy="-451.0991" rx="76.5978" ry="22"/>
<ellipse fill="none" stroke="#000000" cx="1019" cy="-451.0991" rx="80.5876" ry="26"/>
<text text-anchor="middle" x="1019" y="-447.3991" font-family="Times,serif" font-size="14.00" fill="#000000">class_of_repr</text>
</a>
</g>
</g>
<!-- quotient_in_class -->
<g id="node27" class="node">
<title>quotient_in_class</title>
<g id="a_node27"><a xlink:href="quotient.html#in_class" xlink:title="in_class">
<ellipse fill="#f070d1" stroke="#000000" cx="1373" cy="-336.0991" rx="48.1917" ry="18"/>
<text text-anchor="middle" x="1373" y="-332.3991" font-family="Times,serif" font-size="14.00" fill="#000000">in_class</text>
</a>
</g>
</g>
<!-- quotient_class_of_repr&#45;&gt;quotient_in_class -->
<g id="edge27" class="edge">
<title>quotient_class_of_repr&#45;&gt;quotient_in_class</title>
<path fill="none" stroke="#000000" d="M1083.124,-435.229C1098.1366,-431.7119 1114.0974,-428.1323 1129,-425.0991 1211.6251,-408.282 1241.1099,-431.8444 1316,-393.0991 1330.5031,-385.5958 1343.6267,-373.0913 1353.6154,-361.7032"/>
<polygon fill="#000000" stroke="#000000" points="1356.581,-363.6127 1360.3097,-353.6956 1351.2105,-359.123 1356.581,-363.6127"/>
</g>
<!-- quotient_quotient_path2 -->
<g id="node28" class="node">
<title>quotient_quotient_path2</title>
<g id="a_node28"><a xlink:href="quotient.html#quotient_path2" xlink:title="quotient_path2">
<ellipse fill="#f070d1" stroke="#000000" cx="433" cy="-336.0991" rx="81.4863" ry="18"/>
<text text-anchor="middle" x="433" y="-332.3991" font-family="Times,serif" font-size="14.00" fill="#000000">quotient_path2</text>
</a>
</g>
</g>
<!-- quotient_class_of_repr&#45;&gt;quotient_quotient_path2 -->
<g id="edge28" class="edge">
<title>quotient_class_of_repr&#45;&gt;quotient_quotient_path2</title>
<path fill="none" stroke="#000000" d="M961.7985,-432.6953C950.9953,-429.7567 939.7213,-427.0473 929,-425.0991 750.0404,-392.5798 693.2797,-451.4408 521,-393.0991 499.4179,-385.7904 477.9011,-372.0004 461.5462,-359.8152"/>
<polygon fill="#000000" stroke="#000000" points="463.5549,-356.9448 453.4912,-353.6322 459.2926,-362.4975 463.5549,-356.9448"/>
</g>
<!-- quotient_decidable_in_class -->
<g id="node24" class="node">
<title>quotient_decidable_in_class</title>
<g id="a_node24"><a xlink:href="quotient.html#decidable_in_class" xlink:title="decidable_in_class">
<ellipse fill="#f070d1" stroke="#000000" cx="1323" cy="-562.0991" rx="97.4834" ry="18"/>
<ellipse fill="none" stroke="#000000" cx="1323" cy="-562.0991" rx="101.483" ry="22"/>
<ellipse fill="none" stroke="#000000" cx="1323" cy="-562.0991" rx="105.4827" ry="26"/>
<text text-anchor="middle" x="1323" y="-558.3991" font-family="Times,serif" font-size="14.00" fill="#000000">decidable_in_class</text>
</a>
</g>
</g>
<!-- quotient_decidable_in_class&#45;&gt;quotient_quotient_ind_prop -->
<g id="edge29" class="edge">
<title>quotient_decidable_in_class&#45;&gt;quotient_quotient_ind_prop</title>
<path fill="none" stroke="#000000" d="M1369.6087,-538.5834C1394.8315,-523.8577 1424.8569,-502.8016 1445,-477.0991 1460.274,-457.6096 1451.4491,-445.8237 1465,-425.0991 1481.2047,-400.3158 1505.2857,-376.9642 1524.4617,-360.4036"/>
<polygon fill="#000000" stroke="#000000" points="1526.9678,-362.868 1532.3425,-353.7376 1522.4471,-357.5235 1526.9678,-362.868"/>
</g>
<!-- quotient_decidable_in_class&#45;&gt;quotient_in_class_pr -->
<g id="edge30" class="edge">
<title>quotient_decidable_in_class&#45;&gt;quotient_in_class_pr</title>
<path fill="none" stroke="#000000" d="M1334.7228,-536.0746C1342.5648,-518.6652 1352.8623,-495.8048 1360.8012,-478.1805"/>
<polygon fill="#000000" stroke="#000000" points="1364.0225,-479.551 1364.9384,-468.9958 1357.6401,-476.676 1364.0225,-479.551"/>
</g>
<!-- quotient_quotient_ind_prop&#45;&gt;quotient_Quotient_quotient_ind -->
<g id="edge31" class="edge">
<title>quotient_quotient_ind_prop&#45;&gt;quotient_Quotient_quotient_ind</title>
<path fill="none" stroke="#000000" d="M1492.4888,-322.4658C1472.5586,-318.2886 1450.3887,-313.818 1430,-310.0991 1269.3404,-280.7952 1227.1457,-285.0926 1067,-253.0991 1062.304,-252.161 1057.4556,-251.128 1052.5918,-250.0458"/>
<polygon fill="#000000" stroke="#000000" points="1053.1592,-246.5853 1042.6308,-247.7699 1051.5999,-253.4094 1053.1592,-246.5853"/>
</g>
<!-- quotient_in_class_pr&#45;&gt;quotient_in_class -->
<g id="edge32" class="edge">
<title>quotient_in_class_pr&#45;&gt;quotient_in_class</title>
<path fill="none" stroke="#000000" d="M1373,-432.877C1373,-414.4558 1373,-385.732 1373,-364.356"/>
<polygon fill="#000000" stroke="#000000" points="1376.5001,-364.2359 1373,-354.236 1369.5001,-364.236 1376.5001,-364.2359"/>
</g>
<!-- quotient_in_class&#45;&gt;quotient_Quotient_quotient_ind -->
<g id="edge33" class="edge">
<title>quotient_in_class&#45;&gt;quotient_Quotient_quotient_ind</title>
<path fill="none" stroke="#000000" d="M1344.1704,-321.5756C1335.2873,-317.4765 1325.3749,-313.2736 1316,-310.0991 1208.4682,-273.6876 1177.4922,-279.1828 1067,-253.0991 1062.6108,-252.063 1058.0775,-250.9834 1053.5164,-249.8903"/>
<polygon fill="#000000" stroke="#000000" points="1054.0736,-246.4245 1043.5322,-247.4875 1052.4357,-253.2302 1054.0736,-246.4245"/>
</g>
<!-- quotient_quotient_path2&#45;&gt;quotient_Quotient_quotient_set -->
<g id="edge34" class="edge">
<title>quotient_quotient_path2&#45;&gt;quotient_Quotient_quotient_set</title>
<path fill="none" stroke="#000000" d="M465.2107,-319.5631C533.2628,-284.6273 691.5471,-203.3691 766.3956,-164.9442"/>
<polygon fill="#000000" stroke="#000000" points="768.2302,-167.9367 775.5279,-160.2559 765.0332,-161.7093 768.2302,-167.9367"/>
</g>
</g>
</svg>
