<?xml version="1.0" encoding="UTF-8" standalone="no"?>
<!DOCTYPE svg PUBLIC "-//W3C//DTD SVG 1.1//EN"
 "http://www.w3.org/Graphics/SVG/1.1/DTD/svg11.dtd">
<!-- Generated by graphviz version 2.40.1 (20161225.0304)
 -->
<!-- Title: HoTT_Spaces_Int_Core Pages: 1 -->
<svg width="2752pt" height="1380pt"
 viewBox="0.00 0.00 2752.00 1380.00" xmlns="http://www.w3.org/2000/svg" xmlns:xlink="http://www.w3.org/1999/xlink">
<g id="graph0" class="graph" transform="scale(1 1) rotate(0) translate(4 1376)">
<title>HoTT_Spaces_Int_Core</title>
<polygon fill="#ffffff" stroke="transparent" points="-4,4 -4,-1376 2748,-1376 2748,4 -4,4"/>
<g id="clust1" class="cluster">
<title>cluster_Core</title>
<polygon fill="#ffffc3" stroke="#000000" points="8,-24.7765 8,-1347.2235 2736,-1347.2235 2736,-24.7765 8,-24.7765"/>
<text text-anchor="middle" x="33.5" y="-1332.0235" font-family="Times,serif" font-size="14.00" fill="#000000">Core</text>
</g>
<!-- Core_hset_int -->
<g id="node1" class="node">
<title>Core_hset_int</title>
<g id="a_node1"><a xlink:href="Core.html#hset_int" xlink:title="hset_int">
<ellipse fill="#f070d1" stroke="#000000" cx="1775" cy="-1170.7765" rx="48.178" ry="18"/>
<ellipse fill="none" stroke="#000000" cx="1775" cy="-1170.7765" rx="52.1848" ry="22"/>
<ellipse fill="none" stroke="#000000" cx="1775" cy="-1170.7765" rx="56.1916" ry="26"/>
<text text-anchor="middle" x="1775" y="-1167.0765" font-family="Times,serif" font-size="14.00" fill="#000000">hset_int</text>
</a>
</g>
</g>
<!-- Core_decpaths_int -->
<g id="node2" class="node">
<title>Core_decpaths_int</title>
<g id="a_node2"><a xlink:href="Core.html#decpaths_int" xlink:title="decpaths_int">
<ellipse fill="#f070d1" stroke="#000000" cx="1775" cy="-897.7765" rx="70.6878" ry="18"/>
<text text-anchor="middle" x="1775" y="-894.0765" font-family="Times,serif" font-size="14.00" fill="#000000">decpaths_int</text>
</a>
</g>
</g>
<!-- Core_hset_int&#45;&gt;Core_decpaths_int -->
<g id="edge1" class="edge">
<title>Core_hset_int&#45;&gt;Core_decpaths_int</title>
<path fill="none" stroke="#000000" d="M1775,-1144.6001C1775,-1093.16 1775,-979.2851 1775,-926.1334"/>
<polygon fill="#000000" stroke="#000000" points="1778.5001,-926.0528 1775,-916.0529 1771.5001,-926.0529 1778.5001,-926.0528"/>
</g>
<!-- Core_pos_neq_neg -->
<g id="node22" class="node">
<title>Core_pos_neq_neg</title>
<g id="a_node22"><a xlink:href="Core.html#pos_neq_neg" xlink:title="pos_neq_neg">
<ellipse fill="#f070d1" stroke="#000000" cx="2205" cy="-625.7765" rx="70.6878" ry="18"/>
<text text-anchor="middle" x="2205" y="-622.0765" font-family="Times,serif" font-size="14.00" fill="#000000">pos_neq_neg</text>
</a>
</g>
</g>
<!-- Core_decpaths_int&#45;&gt;Core_pos_neq_neg -->
<g id="edge2" class="edge">
<title>Core_decpaths_int&#45;&gt;Core_pos_neq_neg</title>
<path fill="none" stroke="#000000" d="M1801.5739,-880.967C1875.8626,-833.975 2085.7366,-701.2176 2169.6685,-648.1257"/>
<polygon fill="#000000" stroke="#000000" points="2171.7489,-650.9513 2178.329,-642.6475 2168.0067,-645.0355 2171.7489,-650.9513"/>
</g>
<!-- Core_zero_neq_pos -->
<g id="node23" class="node">
<title>Core_zero_neq_pos</title>
<g id="a_node23"><a xlink:href="Core.html#zero_neq_pos" xlink:title="zero_neq_pos">
<ellipse fill="#f070d1" stroke="#000000" cx="641" cy="-625.7765" rx="73.387" ry="18"/>
<text text-anchor="middle" x="641" y="-622.0765" font-family="Times,serif" font-size="14.00" fill="#000000">zero_neq_pos</text>
</a>
</g>
</g>
<!-- Core_decpaths_int&#45;&gt;Core_zero_neq_pos -->
<g id="edge3" class="edge">
<title>Core_decpaths_int&#45;&gt;Core_zero_neq_pos</title>
<path fill="none" stroke="#000000" d="M1719.9347,-886.3852C1563.2379,-853.6485 1101.8078,-755.016 724,-651.7765 714.4956,-649.1794 704.4441,-646.217 694.7418,-643.2444"/>
<polygon fill="#000000" stroke="#000000" points="695.7772,-639.9011 685.1892,-640.2816 693.7035,-646.5869 695.7772,-639.9011"/>
</g>
<!-- Core_zero_neq_neg -->
<g id="node24" class="node">
<title>Core_zero_neq_neg</title>
<g id="a_node24"><a xlink:href="Core.html#zero_neq_neg" xlink:title="zero_neq_neg">
<ellipse fill="#f070d1" stroke="#000000" cx="1775" cy="-625.7765" rx="74.9875" ry="18"/>
<text text-anchor="middle" x="1775" y="-622.0765" font-family="Times,serif" font-size="14.00" fill="#000000">zero_neq_neg</text>
</a>
</g>
</g>
<!-- Core_decpaths_int&#45;&gt;Core_zero_neq_neg -->
<g id="edge4" class="edge">
<title>Core_decpaths_int&#45;&gt;Core_zero_neq_neg</title>
<path fill="none" stroke="#000000" d="M1775,-879.5075C1775,-833.0535 1775,-710.1506 1775,-654.2173"/>
<polygon fill="#000000" stroke="#000000" points="1778.5001,-653.966 1775,-643.966 1771.5001,-653.9661 1778.5001,-653.966"/>
</g>
<!-- Core_pos_inj -->
<g id="node28" class="node">
<title>Core_pos_inj</title>
<g id="a_node28"><a xlink:href="Core.html#pos_inj" xlink:title="pos_inj">
<ellipse fill="#f070d1" stroke="#000000" cx="1281" cy="-352.7765" rx="43.5923" ry="18"/>
<text text-anchor="middle" x="1281" y="-349.0765" font-family="Times,serif" font-size="14.00" fill="#000000">pos_inj</text>
</a>
</g>
</g>
<!-- Core_decpaths_int&#45;&gt;Core_pos_inj -->
<g id="edge5" class="edge">
<title>Core_decpaths_int&#45;&gt;Core_pos_inj</title>
<path fill="none" stroke="#000000" d="M1758.8446,-879.9533C1685.8934,-799.4706 1387.1209,-469.8532 1303.0842,-377.1407"/>
<polygon fill="#000000" stroke="#000000" points="1305.6036,-374.7086 1296.2944,-369.6499 1300.4171,-379.4098 1305.6036,-374.7086"/>
</g>
<!-- Core_neg_inj -->
<g id="node29" class="node">
<title>Core_neg_inj</title>
<g id="a_node29"><a xlink:href="Core.html#neg_inj" xlink:title="neg_inj">
<ellipse fill="#f070d1" stroke="#000000" cx="2664" cy="-352.7765" rx="44.393" ry="18"/>
<text text-anchor="middle" x="2664" y="-349.0765" font-family="Times,serif" font-size="14.00" fill="#000000">neg_inj</text>
</a>
</g>
</g>
<!-- Core_decpaths_int&#45;&gt;Core_neg_inj -->
<g id="edge6" class="edge">
<title>Core_decpaths_int&#45;&gt;Core_neg_inj</title>
<path fill="none" stroke="#000000" d="M1836.0244,-888.562C2011.6211,-860.7835 2512.3484,-772.2954 2618,-651.7765 2686.1193,-574.0714 2676.7019,-439.1907 2668.6945,-380.9217"/>
<polygon fill="#000000" stroke="#000000" points="2672.1483,-380.3507 2667.2348,-370.9642 2665.2223,-381.3661 2672.1483,-380.3507"/>
</g>
<!-- Core_sgn -->
<g id="node3" class="node">
<title>Core_sgn</title>
<g id="a_node3"><a xlink:href="Core.html#sgn" xlink:title="sgn">
<ellipse fill="#f070d1" stroke="#000000" cx="1647" cy="-352.7765" rx="27.1419" ry="18"/>
<ellipse fill="none" stroke="#000000" cx="1647" cy="-352.7765" rx="31.1191" ry="22"/>
<ellipse fill="none" stroke="#000000" cx="1647" cy="-352.7765" rx="35.0963" ry="26"/>
<text text-anchor="middle" x="1647" y="-349.0765" font-family="Times,serif" font-size="14.00" fill="#000000">sgn</text>
</a>
</g>
</g>
<!-- Core_pos -->
<g id="node35" class="node">
<title>Core_pos</title>
<g id="a_node35"><a xlink:href="Core.html#pos" xlink:title="pos">
<ellipse fill="#7faaff" stroke="#000000" cx="1218" cy="-105.7765" rx="27" ry="18"/>
<text text-anchor="middle" x="1218" y="-102.0765" font-family="Times,serif" font-size="14.00" fill="#000000">pos</text>
</a>
</g>
</g>
<!-- Core_sgn&#45;&gt;Core_pos -->
<g id="edge7" class="edge">
<title>Core_sgn&#45;&gt;Core_pos</title>
<path fill="none" stroke="#000000" d="M1619.0995,-336.2184C1613.7621,-333.0711 1608.2137,-329.8132 1603,-326.7765 1470.9712,-249.8781 1312.5412,-159.5446 1247.7809,-122.702"/>
<polygon fill="#000000" stroke="#000000" points="1249.3428,-119.5639 1238.92,-117.6623 1245.8821,-125.6486 1249.3428,-119.5639"/>
</g>
<!-- Core_zero -->
<g id="node36" class="node">
<title>Core_zero</title>
<g id="a_node36"><a xlink:href="Core.html#zero" xlink:title="zero">
<ellipse fill="#7faaff" stroke="#000000" cx="960" cy="-105.7765" rx="30.5947" ry="18"/>
<text text-anchor="middle" x="960" y="-102.0765" font-family="Times,serif" font-size="14.00" fill="#000000">zero</text>
</a>
</g>
</g>
<!-- Core_sgn&#45;&gt;Core_zero -->
<g id="edge8" class="edge">
<title>Core_sgn&#45;&gt;Core_zero</title>
<path fill="none" stroke="#000000" d="M1620.0013,-335.667C1614.4846,-332.5024 1608.6394,-329.3791 1603,-326.7765 1381.5131,-224.5592 1098.6116,-143.3584 997.7759,-115.8516"/>
<polygon fill="#000000" stroke="#000000" points="998.6085,-112.451 988.0408,-113.2089 996.7746,-119.2066 998.6085,-112.451"/>
</g>
<!-- Core_neg -->
<g id="node37" class="node">
<title>Core_neg</title>
<g id="a_node37"><a xlink:href="Core.html#neg" xlink:title="neg">
<ellipse fill="#7faaff" stroke="#000000" cx="1647" cy="-105.7765" rx="27.8951" ry="18"/>
<text text-anchor="middle" x="1647" y="-102.0765" font-family="Times,serif" font-size="14.00" fill="#000000">neg</text>
</a>
</g>
</g>
<!-- Core_sgn&#45;&gt;Core_neg -->
<g id="edge9" class="edge">
<title>Core_sgn&#45;&gt;Core_neg</title>
<path fill="none" stroke="#000000" d="M1647,-326.3432C1647,-279.4842 1647,-182.2607 1647,-134.0903"/>
<polygon fill="#000000" stroke="#000000" points="1650.5001,-134.0456 1647,-124.0456 1643.5001,-134.0456 1650.5001,-134.0456"/>
</g>
<!-- Core_Int -->
<g id="node38" class="node">
<title>Core_Int</title>
<g id="a_node38"><a xlink:href="Core.html#Int" xlink:title="Int">
<ellipse fill="#e2cdfa" stroke="#000000" cx="1341" cy="-105.7765" rx="27" ry="18"/>
<text text-anchor="middle" x="1341" y="-102.0765" font-family="Times,serif" font-size="14.00" fill="#000000">Int</text>
</a>
</g>
</g>
<!-- Core_sgn&#45;&gt;Core_Int -->
<g id="edge10" class="edge">
<title>Core_sgn&#45;&gt;Core_Int</title>
<path fill="none" stroke="#000000" d="M1622.9887,-333.3948C1566.185,-287.5435 1423.9882,-172.7638 1366.1054,-126.0413"/>
<polygon fill="#000000" stroke="#000000" points="1368.1769,-123.2155 1358.1972,-119.6579 1363.7802,-128.6625 1368.1769,-123.2155"/>
</g>
<!-- Core_int_square -->
<g id="node4" class="node">
<title>Core_int_square</title>
<g id="a_node4"><a xlink:href="Core.html#int_square" xlink:title="int_square">
<ellipse fill="#f070d1" stroke="#000000" cx="84" cy="-352.7765" rx="59.6142" ry="18"/>
<ellipse fill="none" stroke="#000000" cx="84" cy="-352.7765" rx="63.6021" ry="22"/>
<ellipse fill="none" stroke="#000000" cx="84" cy="-352.7765" rx="67.59" ry="26"/>
<text text-anchor="middle" x="84" y="-349.0765" font-family="Times,serif" font-size="14.00" fill="#000000">int_square</text>
</a>
</g>
</g>
<!-- Core_int_square&#45;&gt;Core_pos -->
<g id="edge11" class="edge">
<title>Core_int_square&#45;&gt;Core_pos</title>
<path fill="none" stroke="#000000" d="M133.8511,-334.9781C142.8316,-332.0486 152.151,-329.1863 161,-326.7765 555.9003,-219.2354 1045.9638,-134.3929 1181.6963,-111.7432"/>
<polygon fill="#000000" stroke="#000000" points="1182.2849,-115.1935 1191.5752,-110.1003 1181.1365,-108.2883 1182.2849,-115.1935"/>
</g>
<!-- Core_int_square&#45;&gt;Core_zero -->
<g id="edge12" class="edge">
<title>Core_int_square&#45;&gt;Core_zero</title>
<path fill="none" stroke="#000000" d="M134.4009,-335.3094C143.2383,-332.3752 152.3672,-329.4257 161,-326.7765 451.8272,-237.5311 807.1002,-144.9983 922.1334,-115.4476"/>
<polygon fill="#000000" stroke="#000000" points="923.0675,-118.8213 931.8839,-112.9459 921.3278,-112.0409 923.0675,-118.8213"/>
</g>
<!-- Core_int_square&#45;&gt;Core_Int -->
<g id="edge13" class="edge">
<title>Core_int_square&#45;&gt;Core_Int</title>
<path fill="none" stroke="#000000" d="M133.3924,-334.9463C142.5048,-331.9866 151.988,-329.1223 161,-326.7765 639.1531,-202.3188 769.1669,-218.9448 1254,-123.7765 1270.8852,-120.4621 1289.5761,-116.618 1305.2921,-113.3354"/>
<polygon fill="#000000" stroke="#000000" points="1306.0723,-116.748 1315.1413,-111.2705 1304.6359,-109.8969 1306.0723,-116.748"/>
</g>
<!-- Core_int_pow -->
<g id="node5" class="node">
<title>Core_int_pow</title>
<g id="a_node5"><a xlink:href="Core.html#int_pow" xlink:title="int_pow">
<ellipse fill="#f070d1" stroke="#000000" cx="788" cy="-625.7765" rx="47.3994" ry="18"/>
<ellipse fill="none" stroke="#000000" cx="788" cy="-625.7765" rx="51.3955" ry="22"/>
<ellipse fill="none" stroke="#000000" cx="788" cy="-625.7765" rx="55.3916" ry="26"/>
<text text-anchor="middle" x="788" y="-622.0765" font-family="Times,serif" font-size="14.00" fill="#000000">int_pow</text>
</a>
</g>
</g>
<!-- Core_int_mul -->
<g id="node6" class="node">
<title>Core_int_mul</title>
<g id="a_node6"><a xlink:href="Core.html#int_mul" xlink:title="int_mul">
<ellipse fill="#f070d1" stroke="#000000" cx="781" cy="-352.7765" rx="46.2923" ry="18"/>
<text text-anchor="middle" x="781" y="-349.0765" font-family="Times,serif" font-size="14.00" fill="#000000">int_mul</text>
</a>
</g>
</g>
<!-- Core_int_pow&#45;&gt;Core_int_mul -->
<g id="edge14" class="edge">
<title>Core_int_pow&#45;&gt;Core_int_mul</title>
<path fill="none" stroke="#000000" d="M787.3288,-599.6001C786.0098,-548.16 783.09,-434.2851 781.7271,-381.1334"/>
<polygon fill="#000000" stroke="#000000" points="785.2239,-380.9598 781.4686,-371.0529 778.2262,-381.1393 785.2239,-380.9598"/>
</g>
<!-- Core_int_mul&#45;&gt;Core_pos -->
<g id="edge15" class="edge">
<title>Core_int_mul&#45;&gt;Core_pos</title>
<path fill="none" stroke="#000000" d="M807.3522,-337.8818C884.1329,-294.484 1107.3229,-168.3331 1188.2498,-122.5919"/>
<polygon fill="#000000" stroke="#000000" points="1190.4108,-125.3908 1197.3942,-117.4233 1186.9664,-119.2969 1190.4108,-125.3908"/>
</g>
<!-- Core_int_mul&#45;&gt;Core_zero -->
<g id="edge16" class="edge">
<title>Core_int_mul&#45;&gt;Core_zero</title>
<path fill="none" stroke="#000000" d="M793.5869,-335.408C824.7415,-292.4182 905.5489,-180.913 941.8612,-130.8061"/>
<polygon fill="#000000" stroke="#000000" points="944.8663,-132.6239 947.9003,-122.4727 939.1982,-128.5162 944.8663,-132.6239"/>
</g>
<!-- Core_int_mul&#45;&gt;Core_neg -->
<g id="edge17" class="edge">
<title>Core_int_mul&#45;&gt;Core_neg</title>
<path fill="none" stroke="#000000" d="M809.1386,-338.312C817.6382,-334.2613 827.0832,-330.07 836,-326.7765 1127.052,-219.2732 1494.0515,-137.8998 1610.091,-113.4051"/>
<polygon fill="#000000" stroke="#000000" points="1611.1482,-116.7594 1620.215,-111.2782 1609.7091,-109.909 1611.1482,-116.7594"/>
</g>
<!-- Core_int_mul&#45;&gt;Core_Int -->
<g id="edge18" class="edge">
<title>Core_int_mul&#45;&gt;Core_Int</title>
<path fill="none" stroke="#000000" d="M810.3264,-338.7199C818.6054,-334.8043 827.6365,-330.5824 836,-326.7765 1013.3005,-246.0943 1227.9086,-154.0011 1308.4129,-119.648"/>
<polygon fill="#000000" stroke="#000000" points="1310.1675,-122.7048 1317.993,-115.5625 1307.4215,-116.2659 1310.1675,-122.7048"/>
</g>
<!-- Core_int_sub -->
<g id="node7" class="node">
<title>Core_int_sub</title>
<g id="a_node7"><a xlink:href="Core.html#int_sub" xlink:title="int_sub">
<ellipse fill="#f070d1" stroke="#000000" cx="1203" cy="-1170.7765" rx="44.7157" ry="18"/>
<ellipse fill="none" stroke="#000000" cx="1203" cy="-1170.7765" rx="48.7041" ry="22"/>
<ellipse fill="none" stroke="#000000" cx="1203" cy="-1170.7765" rx="52.6925" ry="26"/>
<text text-anchor="middle" x="1203" y="-1167.0765" font-family="Times,serif" font-size="14.00" fill="#000000">int_sub</text>
</a>
</g>
</g>
<!-- Core_int_add -->
<g id="node10" class="node">
<title>Core_int_add</title>
<g id="a_node10"><a xlink:href="Core.html#int_add" xlink:title="int_add">
<ellipse fill="#f070d1" stroke="#000000" cx="1575" cy="-897.7765" rx="45.4919" ry="18"/>
<text text-anchor="middle" x="1575" y="-894.0765" font-family="Times,serif" font-size="14.00" fill="#000000">int_add</text>
</a>
</g>
</g>
<!-- Core_int_sub&#45;&gt;Core_int_add -->
<g id="edge19" class="edge">
<title>Core_int_sub&#45;&gt;Core_int_add</title>
<path fill="none" stroke="#000000" d="M1232.5012,-1149.1265C1301.8816,-1098.2102 1474.8077,-971.3048 1544.8392,-919.9106"/>
<polygon fill="#000000" stroke="#000000" points="1547.2529,-922.4807 1553.2441,-913.7425 1543.1114,-916.8373 1547.2529,-922.4807"/>
</g>
<!-- Core_int_negation -->
<g id="node12" class="node">
<title>Core_int_negation</title>
<g id="a_node12"><a xlink:href="Core.html#int_negation" xlink:title="int_negation">
<ellipse fill="#f070d1" stroke="#000000" cx="1028" cy="-352.7765" rx="68.7879" ry="18"/>
<text text-anchor="middle" x="1028" y="-349.0765" font-family="Times,serif" font-size="14.00" fill="#000000">int_negation</text>
</a>
</g>
</g>
<!-- Core_int_sub&#45;&gt;Core_int_negation -->
<g id="edge20" class="edge">
<title>Core_int_sub&#45;&gt;Core_int_negation</title>
<path fill="none" stroke="#000000" d="M1192.0866,-1145.2144C1160.9334,-1070.8033 1071.6732,-847.2115 1038,-651.7765 1021.045,-553.3717 1023.9163,-434.1357 1026.3975,-380.8566"/>
<polygon fill="#000000" stroke="#000000" points="1029.8959,-380.9742 1026.8982,-370.8124 1022.9046,-380.6257 1029.8959,-380.9742"/>
</g>
<!-- Core_int_pred -->
<g id="node8" class="node">
<title>Core_int_pred</title>
<g id="a_node8"><a xlink:href="Core.html#int_pred" xlink:title="int_pred">
<ellipse fill="#f070d1" stroke="#000000" cx="1508" cy="-1170.7765" rx="50.0849" ry="18"/>
<ellipse fill="none" stroke="#000000" cx="1508" cy="-1170.7765" rx="54.088" ry="22"/>
<ellipse fill="none" stroke="#000000" cx="1508" cy="-1170.7765" rx="58.0912" ry="26"/>
<text text-anchor="middle" x="1508" y="-1167.0765" font-family="Times,serif" font-size="14.00" fill="#000000">int_pred</text>
</a>
</g>
</g>
<!-- Core_int_pred&#45;&gt;Core_int_add -->
<g id="edge21" class="edge">
<title>Core_int_pred&#45;&gt;Core_int_add</title>
<path fill="none" stroke="#000000" d="M1514.4242,-1144.6001C1527.0794,-1093.0351 1555.1318,-978.7319 1568.1353,-925.7474"/>
<polygon fill="#000000" stroke="#000000" points="1571.6143,-926.2563 1570.5987,-915.7102 1564.816,-924.5878 1571.6143,-926.2563"/>
</g>
<!-- Core_int_succ -->
<g id="node9" class="node">
<title>Core_int_succ</title>
<g id="a_node9"><a xlink:href="Core.html#int_succ" xlink:title="int_succ">
<ellipse fill="#f070d1" stroke="#000000" cx="1642" cy="-1170.7765" rx="50.0849" ry="18"/>
<ellipse fill="none" stroke="#000000" cx="1642" cy="-1170.7765" rx="54.088" ry="22"/>
<ellipse fill="none" stroke="#000000" cx="1642" cy="-1170.7765" rx="58.0912" ry="26"/>
<text text-anchor="middle" x="1642" y="-1167.0765" font-family="Times,serif" font-size="14.00" fill="#000000">int_succ</text>
</a>
</g>
</g>
<!-- Core_int_succ&#45;&gt;Core_int_add -->
<g id="edge22" class="edge">
<title>Core_int_succ&#45;&gt;Core_int_add</title>
<path fill="none" stroke="#000000" d="M1635.5758,-1144.6001C1622.9206,-1093.0351 1594.8682,-978.7319 1581.8647,-925.7474"/>
<polygon fill="#000000" stroke="#000000" points="1585.184,-924.5878 1579.4013,-915.7102 1578.3857,-926.2563 1585.184,-924.5878"/>
</g>
<!-- Core_int_pos_sub -->
<g id="node13" class="node">
<title>Core_int_pos_sub</title>
<g id="a_node13"><a xlink:href="Core.html#int_pos_sub" xlink:title="int_pos_sub">
<ellipse fill="#f070d1" stroke="#000000" cx="1944" cy="-625.7765" rx="65.7887" ry="18"/>
<text text-anchor="middle" x="1944" y="-622.0765" font-family="Times,serif" font-size="14.00" fill="#000000">int_pos_sub</text>
</a>
</g>
</g>
<!-- Core_int_add&#45;&gt;Core_int_pos_sub -->
<g id="edge23" class="edge">
<title>Core_int_add&#45;&gt;Core_int_pos_sub</title>
<path fill="none" stroke="#000000" d="M1596.705,-881.7772C1659.055,-835.8173 1838.9059,-703.2443 1912.2707,-649.165"/>
<polygon fill="#000000" stroke="#000000" points="1914.702,-651.7211 1920.6747,-642.9702 1910.5485,-646.0864 1914.702,-651.7211"/>
</g>
<!-- Core_int_negation_negation -->
<g id="node11" class="node">
<title>Core_int_negation_negation</title>
<g id="a_node11"><a xlink:href="Core.html#int_negation_negation" xlink:title="int_negation_negation">
<ellipse fill="#f070d1" stroke="#000000" cx="1169" cy="-625.7765" rx="114.287" ry="18"/>
<ellipse fill="none" stroke="#000000" cx="1169" cy="-625.7765" rx="118.2834" ry="22"/>
<ellipse fill="none" stroke="#000000" cx="1169" cy="-625.7765" rx="122.2798" ry="26"/>
<text text-anchor="middle" x="1169" y="-622.0765" font-family="Times,serif" font-size="14.00" fill="#000000">int_negation_negation</text>
</a>
</g>
</g>
<!-- Core_int_negation_negation&#45;&gt;Core_int_negation -->
<g id="edge24" class="edge">
<title>Core_int_negation_negation&#45;&gt;Core_int_negation</title>
<path fill="none" stroke="#000000" d="M1155.4803,-599.6001C1128.681,-547.7122 1069.0714,-432.2977 1041.9361,-379.7591"/>
<polygon fill="#000000" stroke="#000000" points="1044.9612,-377.989 1037.2625,-370.7102 1038.7417,-381.2013 1044.9612,-377.989"/>
</g>
<!-- Core_int_negation&#45;&gt;Core_pos -->
<g id="edge25" class="edge">
<title>Core_int_negation&#45;&gt;Core_pos</title>
<path fill="none" stroke="#000000" d="M1041.6643,-335.0129C1075.1254,-291.5136 1161.2108,-179.6025 1199.343,-130.0306"/>
<polygon fill="#000000" stroke="#000000" points="1202.1371,-132.1387 1205.4601,-122.0784 1196.5888,-127.8707 1202.1371,-132.1387"/>
</g>
<!-- Core_int_negation&#45;&gt;Core_zero -->
<g id="edge26" class="edge">
<title>Core_int_negation&#45;&gt;Core_zero</title>
<path fill="none" stroke="#000000" d="M1022.9998,-334.614C1011.2063,-291.776 981.595,-184.2172 967.5796,-133.3081"/>
<polygon fill="#000000" stroke="#000000" points="970.9446,-132.3448 964.9158,-123.6325 964.1957,-134.2029 970.9446,-132.3448"/>
</g>
<!-- Core_int_negation&#45;&gt;Core_neg -->
<g id="edge27" class="edge">
<title>Core_int_negation&#45;&gt;Core_neg</title>
<path fill="none" stroke="#000000" d="M1065.7894,-337.6974C1177.8022,-293.0008 1506.844,-161.7031 1613.331,-119.2115"/>
<polygon fill="#000000" stroke="#000000" points="1614.936,-122.3395 1622.9267,-115.3825 1612.3416,-115.838 1614.936,-122.3395"/>
</g>
<!-- Core_int_negation&#45;&gt;Core_Int -->
<g id="edge28" class="edge">
<title>Core_int_negation&#45;&gt;Core_Int</title>
<path fill="none" stroke="#000000" d="M1050.0096,-335.408C1106.2441,-291.0312 1254.9945,-173.6467 1315.1796,-126.1523"/>
<polygon fill="#000000" stroke="#000000" points="1317.7133,-128.6115 1323.3952,-119.6691 1313.3769,-123.1164 1317.7133,-128.6115"/>
</g>
<!-- Core_int_pred_double -->
<g id="node14" class="node">
<title>Core_int_pred_double</title>
<g id="a_node14"><a xlink:href="Core.html#int_pred_double" xlink:title="int_pred_double">
<ellipse fill="#f070d1" stroke="#000000" cx="2144" cy="-352.7765" rx="85.5853" ry="18"/>
<text text-anchor="middle" x="2144" y="-349.0765" font-family="Times,serif" font-size="14.00" fill="#000000">int_pred_double</text>
</a>
</g>
</g>
<!-- Core_int_pos_sub&#45;&gt;Core_int_pred_double -->
<g id="edge29" class="edge">
<title>Core_int_pos_sub&#45;&gt;Core_int_pred_double</title>
<path fill="none" stroke="#000000" d="M1957.1226,-607.8642C1991.5211,-560.9102 2084.4249,-434.0965 2124.8147,-378.9645"/>
<polygon fill="#000000" stroke="#000000" points="2127.7427,-380.8901 2130.8291,-370.7548 2122.0959,-376.7532 2127.7427,-380.8901"/>
</g>
<!-- Core_int_succ_double -->
<g id="node15" class="node">
<title>Core_int_succ_double</title>
<g id="a_node15"><a xlink:href="Core.html#int_succ_double" xlink:title="int_succ_double">
<ellipse fill="#f070d1" stroke="#000000" cx="1954" cy="-352.7765" rx="85.5853" ry="18"/>
<text text-anchor="middle" x="1954" y="-349.0765" font-family="Times,serif" font-size="14.00" fill="#000000">int_succ_double</text>
</a>
</g>
</g>
<!-- Core_int_pos_sub&#45;&gt;Core_int_succ_double -->
<g id="edge30" class="edge">
<title>Core_int_pos_sub&#45;&gt;Core_int_succ_double</title>
<path fill="none" stroke="#000000" d="M1944.6717,-607.4403C1946.3795,-560.8155 1950.898,-437.4608 1952.9544,-381.3219"/>
<polygon fill="#000000" stroke="#000000" points="1956.4628,-381.1544 1953.3313,-371.0329 1949.4675,-380.8981 1956.4628,-381.1544"/>
</g>
<!-- Core_int_double -->
<g id="node16" class="node">
<title>Core_int_double</title>
<g id="a_node16"><a xlink:href="Core.html#int_double" xlink:title="int_double">
<ellipse fill="#f070d1" stroke="#000000" cx="1402" cy="-352.7765" rx="59.5901" ry="18"/>
<text text-anchor="middle" x="1402" y="-349.0765" font-family="Times,serif" font-size="14.00" fill="#000000">int_double</text>
</a>
</g>
</g>
<!-- Core_int_pos_sub&#45;&gt;Core_int_double -->
<g id="edge31" class="edge">
<title>Core_int_pos_sub&#45;&gt;Core_int_double</title>
<path fill="none" stroke="#000000" d="M1912.5171,-609.9189C1819.4038,-563.0186 1545.4076,-425.0095 1442.0635,-372.9561"/>
<polygon fill="#000000" stroke="#000000" points="1443.4,-369.7104 1432.8944,-368.3377 1440.251,-375.9621 1443.4,-369.7104"/>
</g>
<!-- Core_int_pred_double&#45;&gt;Core_pos -->
<g id="edge32" class="edge">
<title>Core_int_pred_double&#45;&gt;Core_pos</title>
<path fill="none" stroke="#000000" d="M2091.7529,-338.4046C2077.8631,-334.6037 2062.8678,-330.5182 2049,-326.7765 1740.8113,-243.6239 1367.7087,-145.1982 1253.1382,-115.0243"/>
<polygon fill="#000000" stroke="#000000" points="1253.7354,-111.5623 1243.1738,-112.4005 1251.9529,-118.3316 1253.7354,-111.5623"/>
</g>
<!-- Core_int_pred_double&#45;&gt;Core_neg -->
<g id="edge33" class="edge">
<title>Core_int_pred_double&#45;&gt;Core_neg</title>
<path fill="none" stroke="#000000" d="M2110.6187,-336.1866C2019.3771,-290.8412 1766.7284,-165.2794 1678.1633,-121.2641"/>
<polygon fill="#000000" stroke="#000000" points="1679.6642,-118.1017 1669.1514,-116.7854 1676.5488,-124.3702 1679.6642,-118.1017"/>
</g>
<!-- Core_int_pred_double&#45;&gt;Core_Int -->
<g id="edge34" class="edge">
<title>Core_int_pred_double&#45;&gt;Core_Int</title>
<path fill="none" stroke="#000000" d="M2095.5771,-337.8818C1947.3441,-292.2858 1502.1362,-155.3415 1375.1516,-116.2814"/>
<polygon fill="#000000" stroke="#000000" points="1376.1343,-112.9219 1365.5472,-113.3272 1374.0763,-119.6126 1376.1343,-112.9219"/>
</g>
<!-- Core_int_succ_double&#45;&gt;Core_pos -->
<g id="edge35" class="edge">
<title>Core_int_succ_double&#45;&gt;Core_pos</title>
<path fill="none" stroke="#000000" d="M1908.5153,-337.512C1772.542,-291.8796 1371.1906,-157.187 1251.844,-117.1345"/>
<polygon fill="#000000" stroke="#000000" points="1252.7348,-113.7417 1242.1409,-113.8781 1250.5077,-120.3779 1252.7348,-113.7417"/>
</g>
<!-- Core_int_succ_double&#45;&gt;Core_neg -->
<g id="edge36" class="edge">
<title>Core_int_succ_double&#45;&gt;Core_neg</title>
<path fill="none" stroke="#000000" d="M1931.9213,-335.0129C1876.4912,-290.416 1731.6864,-173.9118 1672.6327,-126.3996"/>
<polygon fill="#000000" stroke="#000000" points="1674.5483,-123.4486 1664.5629,-119.9069 1670.1602,-128.9025 1674.5483,-123.4486"/>
</g>
<!-- Core_int_succ_double&#45;&gt;Core_Int -->
<g id="edge37" class="edge">
<title>Core_int_succ_double&#45;&gt;Core_Int</title>
<path fill="none" stroke="#000000" d="M1914.2517,-336.7605C1800.9072,-291.0899 1477.5923,-160.8145 1373.6258,-118.9226"/>
<polygon fill="#000000" stroke="#000000" points="1374.8471,-115.6414 1364.2636,-115.1503 1372.2309,-122.1341 1374.8471,-115.6414"/>
</g>
<!-- Core_int_double&#45;&gt;Core_pos -->
<g id="edge38" class="edge">
<title>Core_int_double&#45;&gt;Core_pos</title>
<path fill="none" stroke="#000000" d="M1388.7672,-335.0129C1356.4298,-291.6034 1273.3401,-180.0646 1236.2973,-130.3386"/>
<polygon fill="#000000" stroke="#000000" points="1238.9248,-128.007 1230.1439,-122.0784 1233.3111,-132.1888 1238.9248,-128.007"/>
</g>
<!-- Core_int_double&#45;&gt;Core_zero -->
<g id="edge39" class="edge">
<title>Core_int_double&#45;&gt;Core_zero</title>
<path fill="none" stroke="#000000" d="M1373.3397,-336.7605C1294.226,-292.5499 1073.2393,-169.0573 991.1887,-123.2055"/>
<polygon fill="#000000" stroke="#000000" points="992.7742,-120.0821 982.3373,-118.2591 989.3594,-126.1927 992.7742,-120.0821"/>
</g>
<!-- Core_int_double&#45;&gt;Core_neg -->
<g id="edge40" class="edge">
<title>Core_int_double&#45;&gt;Core_neg</title>
<path fill="none" stroke="#000000" d="M1419.2279,-335.408C1462.548,-291.7343 1576.0084,-177.3477 1624.4985,-128.4617"/>
<polygon fill="#000000" stroke="#000000" points="1627.145,-130.7636 1631.7024,-121.199 1622.1752,-125.834 1627.145,-130.7636"/>
</g>
<!-- Core_int_double&#45;&gt;Core_Int -->
<g id="edge41" class="edge">
<title>Core_int_double&#45;&gt;Core_Int</title>
<path fill="none" stroke="#000000" d="M1397.5145,-334.614C1386.9572,-291.8655 1360.4828,-184.6661 1347.8782,-133.6277"/>
<polygon fill="#000000" stroke="#000000" points="1351.2054,-132.5017 1345.4098,-123.6325 1344.4095,-134.18 1351.2054,-132.5017"/>
</g>
<!-- Core_int_of_number_int -->
<g id="node17" class="node">
<title>Core_int_of_number_int</title>
<g id="a_node17"><a xlink:href="Core.html#int_of_number_int" xlink:title="int_of_number_int">
<ellipse fill="#f070d1" stroke="#000000" cx="451" cy="-897.7765" rx="95.5799" ry="18"/>
<ellipse fill="none" stroke="#000000" cx="451" cy="-897.7765" rx="99.5815" ry="22"/>
<ellipse fill="none" stroke="#000000" cx="451" cy="-897.7765" rx="103.5831" ry="26"/>
<text text-anchor="middle" x="451" y="-894.0765" font-family="Times,serif" font-size="14.00" fill="#000000">int_of_number_int</text>
</a>
</g>
</g>
<!-- Core_int_of_decimal_int -->
<g id="node18" class="node">
<title>Core_int_of_decimal_int</title>
<g id="a_node18"><a xlink:href="Core.html#int_of_decimal_int" xlink:title="int_of_decimal_int">
<ellipse fill="#f070d1" stroke="#000000" cx="451" cy="-625.7765" rx="96.3833" ry="18"/>
<text text-anchor="middle" x="451" y="-622.0765" font-family="Times,serif" font-size="14.00" fill="#000000">int_of_decimal_int</text>
</a>
</g>
</g>
<!-- Core_int_of_number_int&#45;&gt;Core_int_of_decimal_int -->
<g id="edge42" class="edge">
<title>Core_int_of_number_int&#45;&gt;Core_int_of_decimal_int</title>
<path fill="none" stroke="#000000" d="M451,-871.696C451,-820.4443 451,-706.9865 451,-654.0295"/>
<polygon fill="#000000" stroke="#000000" points="454.5001,-653.9859 451,-643.9859 447.5001,-653.9859 454.5001,-653.9859"/>
</g>
<!-- Core_int_of_decimal_uint -->
<g id="node19" class="node">
<title>Core_int_of_decimal_uint</title>
<g id="a_node19"><a xlink:href="Core.html#int_of_decimal_uint" xlink:title="int_of_decimal_uint">
<ellipse fill="#f070d1" stroke="#000000" cx="450" cy="-352.7765" rx="102.0819" ry="18"/>
<text text-anchor="middle" x="450" y="-349.0765" font-family="Times,serif" font-size="14.00" fill="#000000">int_of_decimal_uint</text>
</a>
</g>
</g>
<!-- Core_int_of_decimal_int&#45;&gt;Core_int_of_decimal_uint -->
<g id="edge43" class="edge">
<title>Core_int_of_decimal_int&#45;&gt;Core_int_of_decimal_uint</title>
<path fill="none" stroke="#000000" d="M450.9328,-607.4403C450.762,-560.8155 450.3102,-437.4608 450.1046,-381.3219"/>
<polygon fill="#000000" stroke="#000000" points="453.6036,-381.02 450.0669,-371.0329 446.6036,-381.0457 453.6036,-381.02"/>
</g>
<!-- Core_int_of_decimal_int&#45;&gt;Core_neg -->
<g id="edge44" class="edge">
<title>Core_int_of_decimal_int&#45;&gt;Core_neg</title>
<path fill="none" stroke="#000000" d="M506.2022,-610.9788C523.0532,-606.8703 541.7005,-602.731 559,-599.7765 1034.1838,-518.6239 2393.9592,-736.5894 2717,-378.7765 2732.4872,-361.6222 2731.596,-344.6953 2717,-326.7765 2582.4321,-161.5743 1859.9952,-116.126 1685.1307,-107.4743"/>
<polygon fill="#000000" stroke="#000000" points="1685.2668,-103.9768 1675.1093,-106.9894 1684.9284,-110.9687 1685.2668,-103.9768"/>
</g>
<!-- Core_int_of_decimal_uint&#45;&gt;Core_pos -->
<g id="edge45" class="edge">
<title>Core_int_of_decimal_uint&#45;&gt;Core_pos</title>
<path fill="none" stroke="#000000" d="M499.2102,-336.9498C643.15,-290.6567 1060.9472,-156.287 1183.7017,-116.8073"/>
<polygon fill="#000000" stroke="#000000" points="1184.8942,-120.1005 1193.3424,-113.7068 1182.751,-113.4366 1184.8942,-120.1005"/>
</g>
<!-- Core_int_of_decimal_uint&#45;&gt;Core_zero -->
<g id="edge46" class="edge">
<title>Core_int_of_decimal_uint&#45;&gt;Core_zero</title>
<path fill="none" stroke="#000000" d="M485.0544,-335.7992C579.0599,-290.271 835.8081,-165.9243 927.1787,-121.6723"/>
<polygon fill="#000000" stroke="#000000" points="928.769,-124.7911 936.2434,-117.2822 925.7178,-118.491 928.769,-124.7911"/>
</g>
<!-- Core_int_of_decimal_uint&#45;&gt;Core_Int -->
<g id="edge47" class="edge">
<title>Core_int_of_decimal_uint&#45;&gt;Core_Int</title>
<path fill="none" stroke="#000000" d="M505.0636,-337.512C672.0179,-291.2295 1169.4576,-153.3309 1305.994,-115.4808"/>
<polygon fill="#000000" stroke="#000000" points="1307.2166,-118.7739 1315.9181,-112.7296 1305.3465,-112.0283 1307.2166,-118.7739"/>
</g>
<!-- Core_int_to_number_int -->
<g id="node20" class="node">
<title>Core_int_to_number_int</title>
<g id="a_node20"><a xlink:href="Core.html#int_to_number_int" xlink:title="int_to_number_int">
<ellipse fill="#f070d1" stroke="#000000" cx="2505" cy="-625.7765" rx="96.3686" ry="18"/>
<ellipse fill="none" stroke="#000000" cx="2505" cy="-625.7765" rx="100.3759" ry="22"/>
<ellipse fill="none" stroke="#000000" cx="2505" cy="-625.7765" rx="104.3833" ry="26"/>
<text text-anchor="middle" x="2505" y="-622.0765" font-family="Times,serif" font-size="14.00" fill="#000000">int_to_number_int</text>
</a>
</g>
</g>
<!-- Core_int_to_decimal_int -->
<g id="node21" class="node">
<title>Core_int_to_decimal_int</title>
<g id="a_node21"><a xlink:href="Core.html#int_to_decimal_int" xlink:title="int_to_decimal_int">
<ellipse fill="#f070d1" stroke="#000000" cx="2505" cy="-352.7765" rx="96.6831" ry="18"/>
<text text-anchor="middle" x="2505" y="-349.0765" font-family="Times,serif" font-size="14.00" fill="#000000">int_to_decimal_int</text>
</a>
</g>
</g>
<!-- Core_int_to_number_int&#45;&gt;Core_int_to_decimal_int -->
<g id="edge48" class="edge">
<title>Core_int_to_number_int&#45;&gt;Core_int_to_decimal_int</title>
<path fill="none" stroke="#000000" d="M2505,-599.6001C2505,-548.16 2505,-434.2851 2505,-381.1334"/>
<polygon fill="#000000" stroke="#000000" points="2508.5001,-381.0528 2505,-371.0529 2501.5001,-381.0529 2508.5001,-381.0528"/>
</g>
<!-- Core_int_to_decimal_int&#45;&gt;Core_Int -->
<g id="edge49" class="edge">
<title>Core_int_to_decimal_int&#45;&gt;Core_Int</title>
<path fill="none" stroke="#000000" d="M2447.3214,-338.2448C2431.6687,-334.4062 2414.7064,-330.3421 2399,-326.7765 1999.5119,-236.0878 1511.9582,-139.3549 1377.0641,-112.8389"/>
<polygon fill="#000000" stroke="#000000" points="1377.7342,-109.4037 1367.2471,-110.9108 1376.3851,-116.2725 1377.7342,-109.4037"/>
</g>
<!-- Core_neg_neq_pos -->
<g id="node25" class="node">
<title>Core_neg_neq_pos</title>
<g id="a_node25"><a xlink:href="Core.html#neg_neq_pos" xlink:title="neg_neq_pos">
<ellipse fill="#f070d1" stroke="#000000" cx="2319" cy="-352.7765" rx="70.6878" ry="18"/>
<text text-anchor="middle" x="2319" y="-349.0765" font-family="Times,serif" font-size="14.00" fill="#000000">neg_neq_pos</text>
</a>
</g>
</g>
<!-- Core_pos_neq_neg&#45;&gt;Core_neg_neq_pos -->
<g id="edge50" class="edge">
<title>Core_pos_neq_neg&#45;&gt;Core_neg_neq_pos</title>
<path fill="none" stroke="#000000" d="M2212.4799,-607.8642C2231.966,-561.2001 2284.3897,-435.6591 2307.6346,-379.9936"/>
<polygon fill="#000000" stroke="#000000" points="2310.8689,-381.3312 2311.4926,-370.7548 2304.4095,-378.6338 2310.8689,-381.3312"/>
</g>
<!-- Core_pos_neq_zero -->
<g id="node26" class="node">
<title>Core_pos_neq_zero</title>
<g id="a_node26"><a xlink:href="Core.html#pos_neq_zero" xlink:title="pos_neq_zero">
<ellipse fill="#f070d1" stroke="#000000" cx="643" cy="-352.7765" rx="73.387" ry="18"/>
<text text-anchor="middle" x="643" y="-349.0765" font-family="Times,serif" font-size="14.00" fill="#000000">pos_neq_zero</text>
</a>
</g>
</g>
<!-- Core_zero_neq_pos&#45;&gt;Core_pos_neq_zero -->
<g id="edge51" class="edge">
<title>Core_zero_neq_pos&#45;&gt;Core_pos_neq_zero</title>
<path fill="none" stroke="#000000" d="M641.1343,-607.4403C641.4759,-560.8155 642.3796,-437.4608 642.7909,-381.3219"/>
<polygon fill="#000000" stroke="#000000" points="646.2928,-381.0583 642.8663,-371.0329 639.293,-381.007 646.2928,-381.0583"/>
</g>
<!-- Core_neg_neq_zero -->
<g id="node27" class="node">
<title>Core_neg_neq_zero</title>
<g id="a_node27"><a xlink:href="Core.html#neg_neq_zero" xlink:title="neg_neq_zero">
<ellipse fill="#f070d1" stroke="#000000" cx="1775" cy="-352.7765" rx="74.9875" ry="18"/>
<text text-anchor="middle" x="1775" y="-349.0765" font-family="Times,serif" font-size="14.00" fill="#000000">neg_neq_zero</text>
</a>
</g>
</g>
<!-- Core_zero_neq_neg&#45;&gt;Core_neg_neq_zero -->
<g id="edge52" class="edge">
<title>Core_zero_neq_neg&#45;&gt;Core_neg_neq_zero</title>
<path fill="none" stroke="#000000" d="M1775,-607.4403C1775,-560.8155 1775,-437.4608 1775,-381.3219"/>
<polygon fill="#000000" stroke="#000000" points="1778.5001,-381.0329 1775,-371.0329 1771.5001,-381.033 1778.5001,-381.0329"/>
</g>
<!-- Core_neg_neq_pos&#45;&gt;Core_pos -->
<g id="edge53" class="edge">
<title>Core_neg_neq_pos&#45;&gt;Core_pos</title>
<path fill="none" stroke="#000000" d="M2276.8904,-338.209C2264.7377,-334.2454 2251.4073,-330.1263 2239,-326.7765 2140.2792,-300.1233 1423.0936,-148.9119 1253.7578,-113.2918"/>
<polygon fill="#000000" stroke="#000000" points="1254.359,-109.8418 1243.8527,-111.2087 1252.9183,-116.6919 1254.359,-109.8418"/>
</g>
<!-- Core_neg_neq_pos&#45;&gt;Core_neg -->
<g id="edge54" class="edge">
<title>Core_neg_neq_pos&#45;&gt;Core_neg</title>
<path fill="none" stroke="#000000" d="M2278.4767,-337.8818C2156.4522,-293.0305 1793.9522,-159.7902 1680.9977,-118.2727"/>
<polygon fill="#000000" stroke="#000000" points="1682.0594,-114.934 1671.4658,-114.7692 1679.6444,-121.5043 1682.0594,-114.934"/>
</g>
<!-- Core_neg_neq_pos&#45;&gt;Core_Int -->
<g id="edge55" class="edge">
<title>Core_neg_neq_pos&#45;&gt;Core_Int</title>
<path fill="none" stroke="#000000" d="M2276.4132,-338.2991C2264.3717,-334.3793 2251.2185,-330.2605 2239,-326.7765 1906.6884,-232.0209 1498.4143,-140.3842 1376.7929,-113.598"/>
<polygon fill="#000000" stroke="#000000" points="1377.4164,-110.1516 1366.8981,-111.4227 1375.9134,-116.9883 1377.4164,-110.1516"/>
</g>
<!-- Core_pos_neq_zero&#45;&gt;Core_pos -->
<g id="edge56" class="edge">
<title>Core_pos_neq_zero&#45;&gt;Core_pos</title>
<path fill="none" stroke="#000000" d="M679.405,-337.1382C784.4073,-292.0329 1086.6471,-162.2012 1185.9558,-119.5416"/>
<polygon fill="#000000" stroke="#000000" points="1187.3801,-122.7391 1195.1868,-115.5763 1184.6172,-116.3074 1187.3801,-122.7391"/>
</g>
<!-- Core_pos_neq_zero&#45;&gt;Core_zero -->
<g id="edge57" class="edge">
<title>Core_pos_neq_zero&#45;&gt;Core_zero</title>
<path fill="none" stroke="#000000" d="M665.0391,-335.6041C721.6293,-291.5101 871.904,-174.4191 933.3002,-126.5805"/>
<polygon fill="#000000" stroke="#000000" points="935.6176,-129.2118 941.3546,-120.3046 931.3152,-123.6901 935.6176,-129.2118"/>
</g>
<!-- Core_pos_neq_zero&#45;&gt;Core_Int -->
<g id="edge58" class="edge">
<title>Core_pos_neq_zero&#45;&gt;Core_Int</title>
<path fill="none" stroke="#000000" d="M684.8316,-337.9737C811.8792,-293.0155 1191.6077,-158.6417 1307.2232,-117.7291"/>
<polygon fill="#000000" stroke="#000000" points="1308.6959,-120.9207 1316.9555,-114.2851 1306.3607,-114.3216 1308.6959,-120.9207"/>
</g>
<!-- Core_neg_neq_zero&#45;&gt;Core_zero -->
<g id="edge59" class="edge">
<title>Core_neg_neq_zero&#45;&gt;Core_zero</title>
<path fill="none" stroke="#000000" d="M1728.8031,-338.4177C1716.5216,-334.6167 1703.2624,-330.5279 1691,-326.7765 1425.093,-245.43 1104.2323,-149.0361 996.9421,-116.8514"/>
<polygon fill="#000000" stroke="#000000" points="997.8189,-113.4604 987.235,-113.9399 995.8078,-120.1653 997.8189,-113.4604"/>
</g>
<!-- Core_neg_neq_zero&#45;&gt;Core_neg -->
<g id="edge60" class="edge">
<title>Core_neg_neq_zero&#45;&gt;Core_neg</title>
<path fill="none" stroke="#000000" d="M1765.5879,-334.614C1743.1872,-291.3878 1686.6365,-182.2626 1660.5575,-131.9382"/>
<polygon fill="#000000" stroke="#000000" points="1663.6208,-130.2425 1655.9122,-122.9742 1657.4058,-133.4632 1663.6208,-130.2425"/>
</g>
<!-- Core_neg_neq_zero&#45;&gt;Core_Int -->
<g id="edge61" class="edge">
<title>Core_neg_neq_zero&#45;&gt;Core_Int</title>
<path fill="none" stroke="#000000" d="M1745.8501,-336.1866C1666.9535,-291.2846 1449.853,-167.7274 1370.5228,-122.5787"/>
<polygon fill="#000000" stroke="#000000" points="1371.9722,-119.3764 1361.5499,-117.472 1368.5097,-125.4602 1371.9722,-119.3764"/>
</g>
<!-- Core_pos_inj&#45;&gt;Core_pos -->
<g id="edge62" class="edge">
<title>Core_pos_inj&#45;&gt;Core_pos</title>
<path fill="none" stroke="#000000" d="M1276.3675,-334.614C1265.464,-291.8655 1238.1216,-184.6661 1225.1037,-133.6277"/>
<polygon fill="#000000" stroke="#000000" points="1228.4173,-132.4573 1222.5544,-123.6325 1221.6345,-134.1873 1228.4173,-132.4573"/>
</g>
<!-- Core_pos_inj&#45;&gt;Core_Int -->
<g id="edge63" class="edge">
<title>Core_pos_inj&#45;&gt;Core_Int</title>
<path fill="none" stroke="#000000" d="M1285.4119,-334.614C1295.7962,-291.8655 1321.8365,-184.6661 1334.2345,-133.6277"/>
<polygon fill="#000000" stroke="#000000" points="1337.703,-134.1761 1336.6625,-123.6325 1330.9008,-132.5237 1337.703,-134.1761"/>
</g>
<!-- Core_neg_inj&#45;&gt;Core_neg -->
<g id="edge64" class="edge">
<title>Core_neg_inj&#45;&gt;Core_neg</title>
<path fill="none" stroke="#000000" d="M2637.5568,-338.316C2629.2314,-334.1714 2619.887,-329.9273 2611,-326.7765 2261.2045,-202.7593 1814.8729,-130.6166 1684.3826,-111.1602"/>
<polygon fill="#000000" stroke="#000000" points="1684.8888,-107.6971 1674.4841,-109.6954 1683.864,-114.6217 1684.8888,-107.6971"/>
</g>
<!-- Core_neg_inj&#45;&gt;Core_Int -->
<g id="edge65" class="edge">
<title>Core_neg_inj&#45;&gt;Core_Int</title>
<path fill="none" stroke="#000000" d="M2637.9268,-338.1599C2629.5382,-333.9589 2620.0649,-329.7221 2611,-326.7765 2139.6866,-173.6261 1533.5215,-120.0695 1378.4277,-108.3992"/>
<polygon fill="#000000" stroke="#000000" points="1378.2797,-104.8788 1368.0485,-107.6306 1377.7626,-111.8597 1378.2797,-104.8788"/>
</g>
<!-- Core_ispointed_Int -->
<g id="node30" class="node">
<title>Core_ispointed_Int</title>
<g id="a_node30"><a xlink:href="Core.html#ispointed_Int" xlink:title="ispointed_Int">
<ellipse fill="#f070d1" stroke="#000000" cx="250" cy="-352.7765" rx="72.2731" ry="18"/>
<ellipse fill="none" stroke="#000000" cx="250" cy="-352.7765" rx="76.2803" ry="22"/>
<ellipse fill="none" stroke="#000000" cx="250" cy="-352.7765" rx="80.2875" ry="26"/>
<text text-anchor="middle" x="250" y="-349.0765" font-family="Times,serif" font-size="14.00" fill="#000000">ispointed_Int</text>
</a>
</g>
</g>
<!-- Core_ispointed_Int&#45;&gt;Core_zero -->
<g id="edge66" class="edge">
<title>Core_ispointed_Int&#45;&gt;Core_zero</title>
<path fill="none" stroke="#000000" d="M304.8273,-333.7028C444.0499,-285.269 808.3786,-158.5237 924.1433,-118.2506"/>
<polygon fill="#000000" stroke="#000000" points="925.3255,-121.5452 933.6203,-114.9537 923.0255,-114.9338 925.3255,-121.5452"/>
</g>
<!-- Core_ispointed_Int&#45;&gt;Core_Int -->
<g id="edge67" class="edge">
<title>Core_ispointed_Int&#45;&gt;Core_Int</title>
<path fill="none" stroke="#000000" d="M308.7311,-335.0145C318.7967,-332.1439 329.1757,-329.2919 339,-326.7765 531.5247,-277.4827 1149.6127,-146.2342 1305.1929,-113.3361"/>
<polygon fill="#000000" stroke="#000000" points="1306.1139,-116.7189 1315.1739,-111.2264 1304.6662,-109.8702 1306.1139,-116.7189"/>
</g>
<!-- Core_Int_sind -->
<g id="node31" class="node">
<title>Core_Int_sind</title>
<g id="a_node31"><a xlink:href="Core.html#Int_sind" xlink:title="Int_sind">
<ellipse fill="#f070d1" stroke="#000000" cx="1537" cy="-352.7765" rx="48.9576" ry="18"/>
<ellipse fill="none" stroke="#000000" cx="1537" cy="-352.7765" rx="52.975" ry="22"/>
<ellipse fill="none" stroke="#000000" cx="1537" cy="-352.7765" rx="56.9924" ry="26"/>
<text text-anchor="middle" x="1537" y="-349.0765" font-family="Times,serif" font-size="14.00" fill="#000000">Int_sind</text>
</a>
</g>
</g>
<!-- Core_Int_sind&#45;&gt;Core_pos -->
<g id="edge68" class="edge">
<title>Core_Int_sind&#45;&gt;Core_pos</title>
<path fill="none" stroke="#000000" d="M1507.8452,-330.2021C1445.9814,-282.3013 1302.4405,-171.1583 1243.7296,-125.6988"/>
<polygon fill="#000000" stroke="#000000" points="1245.7523,-122.8384 1235.7026,-119.4836 1241.4667,-128.3732 1245.7523,-122.8384"/>
</g>
<!-- Core_Int_sind&#45;&gt;Core_zero -->
<g id="edge69" class="edge">
<title>Core_Int_sind&#45;&gt;Core_zero</title>
<path fill="none" stroke="#000000" d="M1495.5036,-335.0129C1386.5969,-288.3925 1094.1227,-163.1913 994.0941,-120.3714"/>
<polygon fill="#000000" stroke="#000000" points="995.3259,-117.0916 984.7554,-116.3737 992.5711,-123.5267 995.3259,-117.0916"/>
</g>
<!-- Core_Int_sind&#45;&gt;Core_neg -->
<g id="edge70" class="edge">
<title>Core_Int_sind&#45;&gt;Core_neg</title>
<path fill="none" stroke="#000000" d="M1548.3576,-327.2735C1569.2664,-280.3238 1613.6606,-180.6387 1635.0234,-132.6694"/>
<polygon fill="#000000" stroke="#000000" points="1638.3447,-133.8148 1639.2157,-123.2558 1631.9501,-130.967 1638.3447,-133.8148"/>
</g>
<!-- Core_Int_sind&#45;&gt;Core_Int -->
<g id="edge71" class="edge">
<title>Core_Int_sind&#45;&gt;Core_Int</title>
<path fill="none" stroke="#000000" d="M1517.4902,-328.1902C1479.8434,-280.7476 1397.5993,-177.1031 1360.1992,-129.9715"/>
<polygon fill="#000000" stroke="#000000" points="1362.7162,-127.5127 1353.7586,-121.8549 1357.2329,-131.8639 1362.7162,-127.5127"/>
</g>
<!-- Core_Int_rec -->
<g id="node32" class="node">
<title>Core_Int_rec</title>
<g id="a_node32"><a xlink:href="Core.html#Int_rec" xlink:title="Int_rec">
<ellipse fill="#f070d1" stroke="#000000" cx="914" cy="-625.7765" rx="44.3627" ry="18"/>
<ellipse fill="none" stroke="#000000" cx="914" cy="-625.7765" rx="48.3778" ry="22"/>
<ellipse fill="none" stroke="#000000" cx="914" cy="-625.7765" rx="52.3929" ry="26"/>
<text text-anchor="middle" x="914" y="-622.0765" font-family="Times,serif" font-size="14.00" fill="#000000">Int_rec</text>
</a>
</g>
</g>
<!-- Core_Int_rect -->
<g id="node34" class="node">
<title>Core_Int_rect</title>
<g id="a_node34"><a xlink:href="Core.html#Int_rect" xlink:title="Int_rect">
<ellipse fill="#f070d1" stroke="#000000" cx="893" cy="-352.7765" rx="48.1917" ry="18"/>
<text text-anchor="middle" x="893" y="-349.0765" font-family="Times,serif" font-size="14.00" fill="#000000">Int_rect</text>
</a>
</g>
</g>
<!-- Core_Int_rec&#45;&gt;Core_Int_rect -->
<g id="edge72" class="edge">
<title>Core_Int_rec&#45;&gt;Core_Int_rect</title>
<path fill="none" stroke="#000000" d="M911.9864,-599.6001C908.0295,-548.16 899.2699,-434.2851 895.1813,-381.1334"/>
<polygon fill="#000000" stroke="#000000" points="898.6626,-380.7549 894.4059,-371.0529 891.6832,-381.2919 898.6626,-380.7549"/>
</g>
<!-- Core_Int_ind -->
<g id="node33" class="node">
<title>Core_Int_ind</title>
<g id="a_node33"><a xlink:href="Core.html#Int_ind" xlink:title="Int_ind">
<ellipse fill="#7fffd4" stroke="#000000" cx="1167" cy="-352.7765" rx="44.3627" ry="18"/>
<ellipse fill="none" stroke="#000000" cx="1167" cy="-352.7765" rx="48.3778" ry="22"/>
<ellipse fill="none" stroke="#000000" cx="1167" cy="-352.7765" rx="52.3929" ry="26"/>
<text text-anchor="middle" x="1167" y="-349.0765" font-family="Times,serif" font-size="14.00" fill="#000000">Int_ind</text>
</a>
</g>
</g>
<!-- Core_Int_ind&#45;&gt;Core_pos -->
<g id="edge73" class="edge">
<title>Core_Int_ind&#45;&gt;Core_pos</title>
<path fill="none" stroke="#000000" d="M1172.3615,-326.81C1182.0146,-280.0587 1202.2387,-182.1108 1212.2013,-133.8604"/>
<polygon fill="#000000" stroke="#000000" points="1215.6821,-134.3105 1214.2766,-123.8093 1208.8267,-132.8949 1215.6821,-134.3105"/>
</g>
<!-- Core_Int_ind&#45;&gt;Core_zero -->
<g id="edge74" class="edge">
<title>Core_Int_ind&#45;&gt;Core_zero</title>
<path fill="none" stroke="#000000" d="M1146.7751,-328.6434C1107.1397,-281.349 1019.6738,-176.9815 980.1217,-129.7865"/>
<polygon fill="#000000" stroke="#000000" points="982.642,-127.3448 973.5363,-121.9285 977.277,-131.841 982.642,-127.3448"/>
</g>
<!-- Core_Int_ind&#45;&gt;Core_neg -->
<g id="edge75" class="edge">
<title>Core_Int_ind&#45;&gt;Core_neg</title>
<path fill="none" stroke="#000000" d="M1203.472,-334.0086C1294.5828,-287.1246 1530.9102,-165.5144 1615.9442,-121.7573"/>
<polygon fill="#000000" stroke="#000000" points="1617.7943,-124.7416 1625.0846,-117.0538 1614.5913,-118.5173 1617.7943,-124.7416"/>
</g>
<!-- Core_Int_ind&#45;&gt;Core_Int -->
<g id="edge76" class="edge">
<title>Core_Int_ind&#45;&gt;Core_Int</title>
<path fill="none" stroke="#000000" d="M1184.3199,-328.1902C1217.5909,-280.9606 1290.0987,-178.0329 1323.5061,-130.6099"/>
<polygon fill="#000000" stroke="#000000" points="1326.5593,-132.3531 1329.4571,-122.1622 1320.8367,-128.3217 1326.5593,-132.3531"/>
</g>
<!-- Core_Int_rect&#45;&gt;Core_pos -->
<g id="edge77" class="edge">
<title>Core_Int_rect&#45;&gt;Core_pos</title>
<path fill="none" stroke="#000000" d="M914.3242,-336.5702C971.6458,-293.0057 1128.9443,-173.4588 1191.671,-125.7866"/>
<polygon fill="#000000" stroke="#000000" points="1194.0302,-128.3897 1199.8741,-119.5522 1189.7946,-122.8165 1194.0302,-128.3897"/>
</g>
<!-- Core_Int_rect&#45;&gt;Core_zero -->
<g id="edge78" class="edge">
<title>Core_Int_rect&#45;&gt;Core_zero</title>
<path fill="none" stroke="#000000" d="M897.9267,-334.614C909.5467,-291.776 938.7226,-184.2172 952.5319,-133.3081"/>
<polygon fill="#000000" stroke="#000000" points="955.9164,-134.2001 955.1565,-123.6325 949.1605,-132.3675 955.9164,-134.2001"/>
</g>
<!-- Core_Int_rect&#45;&gt;Core_neg -->
<g id="edge79" class="edge">
<title>Core_Int_rect&#45;&gt;Core_neg</title>
<path fill="none" stroke="#000000" d="M922.5891,-338.4591C931.3243,-334.4566 940.9661,-330.2545 950,-326.7765 1198.5041,-231.1058 1507.7331,-143.8382 1611.3244,-115.4368"/>
<polygon fill="#000000" stroke="#000000" points="1612.2562,-118.8106 1620.9792,-112.7972 1610.4101,-112.0584 1612.2562,-118.8106"/>
</g>
<!-- Core_Int_rect&#45;&gt;Core_Int -->
<g id="edge80" class="edge">
<title>Core_Int_rect&#45;&gt;Core_Int</title>
<path fill="none" stroke="#000000" d="M920.0155,-337.8818C998.98,-294.3456 1228.9981,-167.5275 1311.2903,-122.1566"/>
<polygon fill="#000000" stroke="#000000" points="1313.0621,-125.1765 1320.1295,-117.2833 1309.6824,-119.0465 1313.0621,-125.1765"/>
</g>
</g>
</svg>
