<?xml version="1.0" encoding="UTF-8" standalone="no"?>
<!DOCTYPE svg PUBLIC "-//W3C//DTD SVG 1.1//EN"
 "http://www.w3.org/Graphics/SVG/1.1/DTD/svg11.dtd">
<!-- Generated by graphviz version 2.40.1 (20161225.0304)
 -->
<!-- Title: HoTT_Classes_theory_groups Pages: 1 -->
<svg width="2435pt" height="1222pt"
 viewBox="0.00 0.00 2435.00 1221.50" xmlns="http://www.w3.org/2000/svg" xmlns:xlink="http://www.w3.org/1999/xlink">
<g id="graph0" class="graph" transform="scale(1 1) rotate(0) translate(4 1217.5)">
<title>HoTT_Classes_theory_groups</title>
<polygon fill="#ffffff" stroke="transparent" points="-4,4 -4,-1217.5 2431,-1217.5 2431,4 -4,4"/>
<g id="clust1" class="cluster">
<title>cluster_groups</title>
<polygon fill="#ffffc3" stroke="#000000" points="8,-28.6372 8,-1184.8628 2419,-1184.8628 2419,-28.6372 8,-28.6372"/>
<text text-anchor="middle" x="41" y="-1169.6628" font-family="Times,serif" font-size="14.00" fill="#000000">groups</text>
</g>
<!-- groups_invert_monoid_morphism -->
<g id="node1" class="node">
<title>groups_invert_monoid_morphism</title>
<g id="a_node1"><a xlink:href="groups.html#invert_monoid_morphism" xlink:title="invert_monoid_morphism">
<ellipse fill="#f070d1" stroke="#000000" cx="2274" cy="-980.6372" rx="129.1866" ry="18"/>
<ellipse fill="none" stroke="#000000" cx="2274" cy="-980.6372" rx="133.1819" ry="22"/>
<ellipse fill="none" stroke="#000000" cx="2274" cy="-980.6372" rx="137.1772" ry="26"/>
<text text-anchor="middle" x="2274" y="-976.9372" font-family="Times,serif" font-size="14.00" fill="#000000">invert_monoid_morphism</text>
</a>
</g>
</g>
<!-- groups_invert_sg_morphism -->
<g id="node2" class="node">
<title>groups_invert_sg_morphism</title>
<g id="a_node2"><a xlink:href="groups.html#invert_sg_morphism" xlink:title="invert_sg_morphism">
<ellipse fill="#f070d1" stroke="#000000" cx="2274" cy="-665.6372" rx="105.8812" ry="18"/>
<text text-anchor="middle" x="2274" y="-661.9372" font-family="Times,serif" font-size="14.00" fill="#000000">invert_sg_morphism</text>
</a>
</g>
</g>
<!-- groups_invert_monoid_morphism&#45;&gt;groups_invert_sg_morphism -->
<g id="edge1" class="edge">
<title>groups_invert_monoid_morphism&#45;&gt;groups_invert_sg_morphism</title>
<path fill="none" stroke="#000000" d="M2274,-954.5914C2274,-896.1711 2274,-755.0515 2274,-694.2713"/>
<polygon fill="#000000" stroke="#000000" points="2277.5001,-693.8952 2274,-683.8953 2270.5001,-693.8953 2277.5001,-693.8952"/>
</g>
<!-- groups_compose_monoid_morphism -->
<g id="node3" class="node">
<title>groups_compose_monoid_morphism</title>
<g id="a_node3"><a xlink:href="groups.html#compose_monoid_morphism" xlink:title="compose_monoid_morphism">
<ellipse fill="#f070d1" stroke="#000000" cx="1968" cy="-980.6372" rx="142.1836" ry="18"/>
<ellipse fill="none" stroke="#000000" cx="1968" cy="-980.6372" rx="146.1792" ry="22"/>
<ellipse fill="none" stroke="#000000" cx="1968" cy="-980.6372" rx="150.1749" ry="26"/>
<text text-anchor="middle" x="1968" y="-976.9372" font-family="Times,serif" font-size="14.00" fill="#000000">compose_monoid_morphism</text>
</a>
</g>
</g>
<!-- groups_compose_sg_morphism -->
<g id="node4" class="node">
<title>groups_compose_sg_morphism</title>
<g id="a_node4"><a xlink:href="groups.html#compose_sg_morphism" xlink:title="compose_sg_morphism">
<ellipse fill="#f070d1" stroke="#000000" cx="1968" cy="-665.6372" rx="118.8789" ry="18"/>
<text text-anchor="middle" x="1968" y="-661.9372" font-family="Times,serif" font-size="14.00" fill="#000000">compose_sg_morphism</text>
</a>
</g>
</g>
<!-- groups_compose_monoid_morphism&#45;&gt;groups_compose_sg_morphism -->
<g id="edge2" class="edge">
<title>groups_compose_monoid_morphism&#45;&gt;groups_compose_sg_morphism</title>
<path fill="none" stroke="#000000" d="M1968,-954.5914C1968,-896.1711 1968,-755.0515 1968,-694.2713"/>
<polygon fill="#000000" stroke="#000000" points="1971.5001,-693.8952 1968,-683.8953 1964.5001,-693.8953 1971.5001,-693.8952"/>
</g>
<!-- groups_id_monoid_morphism -->
<g id="node5" class="node">
<title>groups_id_monoid_morphism</title>
<g id="a_node5"><a xlink:href="groups.html#id_monoid_morphism" xlink:title="id_monoid_morphism">
<ellipse fill="#f070d1" stroke="#000000" cx="1681" cy="-980.6372" rx="110.4811" ry="18"/>
<ellipse fill="none" stroke="#000000" cx="1681" cy="-980.6372" rx="114.4807" ry="22"/>
<ellipse fill="none" stroke="#000000" cx="1681" cy="-980.6372" rx="118.4804" ry="26"/>
<text text-anchor="middle" x="1681" y="-976.9372" font-family="Times,serif" font-size="14.00" fill="#000000">id_monoid_morphism</text>
</a>
</g>
</g>
<!-- groups_id_sg_morphism -->
<g id="node6" class="node">
<title>groups_id_sg_morphism</title>
<g id="a_node6"><a xlink:href="groups.html#id_sg_morphism" xlink:title="id_sg_morphism">
<ellipse fill="#f070d1" stroke="#000000" cx="1449" cy="-980.6372" rx="87.1769" ry="18"/>
<ellipse fill="none" stroke="#000000" cx="1449" cy="-980.6372" rx="91.1807" ry="22"/>
<ellipse fill="none" stroke="#000000" cx="1449" cy="-980.6372" rx="95.1846" ry="26"/>
<text text-anchor="middle" x="1449" y="-976.9372" font-family="Times,serif" font-size="14.00" fill="#000000">id_sg_morphism</text>
</a>
</g>
</g>
<!-- groups_projected_ab_group -->
<g id="node7" class="node">
<title>groups_projected_ab_group</title>
<g id="a_node7"><a xlink:href="groups.html#projected_ab_group" xlink:title="projected_ab_group">
<ellipse fill="#f070d1" stroke="#000000" cx="1225" cy="-980.6372" rx="103.1933" ry="18"/>
<ellipse fill="none" stroke="#000000" cx="1225" cy="-980.6372" rx="107.1876" ry="22"/>
<ellipse fill="none" stroke="#000000" cx="1225" cy="-980.6372" rx="111.1819" ry="26"/>
<text text-anchor="middle" x="1225" y="-976.9372" font-family="Times,serif" font-size="14.00" fill="#000000">projected_ab_group</text>
</a>
</g>
</g>
<!-- groups_projected_group -->
<g id="node8" class="node">
<title>groups_projected_group</title>
<g id="a_node8"><a xlink:href="groups.html#projected_group" xlink:title="projected_group">
<ellipse fill="#f070d1" stroke="#000000" cx="1618" cy="-665.6372" rx="87.1846" ry="18"/>
<text text-anchor="middle" x="1618" y="-661.9372" font-family="Times,serif" font-size="14.00" fill="#000000">projected_group</text>
</a>
</g>
</g>
<!-- groups_projected_ab_group&#45;&gt;groups_projected_group -->
<g id="edge3" class="edge">
<title>groups_projected_ab_group&#45;&gt;groups_projected_group</title>
<path fill="none" stroke="#000000" d="M1256.1665,-955.6563C1330.1118,-896.3873 1515.3913,-747.8808 1588.0738,-689.6239"/>
<polygon fill="#000000" stroke="#000000" points="1590.3488,-692.2859 1595.9627,-683.3007 1585.9708,-686.8239 1590.3488,-692.2859"/>
</g>
<!-- groups_projected_comm -->
<g id="node12" class="node">
<title>groups_projected_comm</title>
<g id="a_node12"><a xlink:href="groups.html#projected_comm" xlink:title="projected_comm">
<ellipse fill="#f070d1" stroke="#000000" cx="1238" cy="-379.6372" rx="88.2844" ry="18"/>
<text text-anchor="middle" x="1238" y="-375.9372" font-family="Times,serif" font-size="14.00" fill="#000000">projected_comm</text>
</a>
</g>
</g>
<!-- groups_projected_ab_group&#45;&gt;groups_projected_comm -->
<g id="edge4" class="edge">
<title>groups_projected_ab_group&#45;&gt;groups_projected_comm</title>
<path fill="none" stroke="#000000" d="M1225.6809,-954.3389C1226.9858,-903.5612 1229.896,-788.4778 1232,-691.6372 1234.2726,-587.0331 1236.531,-462.6919 1237.5033,-407.924"/>
<polygon fill="#000000" stroke="#000000" points="1241.0026,-407.9849 1237.6802,-397.9245 1234.0037,-407.861 1241.0026,-407.9849"/>
</g>
<!-- groups_projected_monoid -->
<g id="node10" class="node">
<title>groups_projected_monoid</title>
<g id="a_node10"><a xlink:href="groups.html#projected_monoid" xlink:title="projected_monoid">
<ellipse fill="#f070d1" stroke="#000000" cx="1439" cy="-379.6372" rx="94.4839" ry="18"/>
<text text-anchor="middle" x="1439" y="-375.9372" font-family="Times,serif" font-size="14.00" fill="#000000">projected_monoid</text>
</a>
</g>
</g>
<!-- groups_projected_group&#45;&gt;groups_projected_monoid -->
<g id="edge5" class="edge">
<title>groups_projected_group&#45;&gt;groups_projected_monoid</title>
<path fill="none" stroke="#000000" d="M1606.8027,-647.7466C1576.2892,-598.9931 1491.5551,-463.6079 1455.5393,-406.063"/>
<polygon fill="#000000" stroke="#000000" points="1458.4652,-404.1408 1450.193,-397.521 1452.5315,-407.8545 1458.4652,-404.1408"/>
</g>
<!-- groups_projected_com_monoid -->
<g id="node9" class="node">
<title>groups_projected_com_monoid</title>
<g id="a_node9"><a xlink:href="groups.html#projected_com_monoid" xlink:title="projected_com_monoid">
<ellipse fill="#f070d1" stroke="#000000" cx="1387" cy="-665.6372" rx="118.0927" ry="18"/>
<ellipse fill="none" stroke="#000000" cx="1387" cy="-665.6372" rx="122.086" ry="22"/>
<ellipse fill="none" stroke="#000000" cx="1387" cy="-665.6372" rx="126.0794" ry="26"/>
<text text-anchor="middle" x="1387" y="-661.9372" font-family="Times,serif" font-size="14.00" fill="#000000">projected_com_monoid</text>
</a>
</g>
</g>
<!-- groups_projected_com_monoid&#45;&gt;groups_projected_monoid -->
<g id="edge6" class="edge">
<title>groups_projected_com_monoid&#45;&gt;groups_projected_monoid</title>
<path fill="none" stroke="#000000" d="M1391.7525,-639.4984C1401.5274,-585.7367 1423.8116,-463.1736 1433.8863,-407.7626"/>
<polygon fill="#000000" stroke="#000000" points="1437.33,-408.3871 1435.6754,-397.9223 1430.443,-407.1348 1437.33,-408.3871"/>
</g>
<!-- groups_projected_com_monoid&#45;&gt;groups_projected_comm -->
<g id="edge7" class="edge">
<title>groups_projected_com_monoid&#45;&gt;groups_projected_comm</title>
<path fill="none" stroke="#000000" d="M1373.5145,-639.7522C1345.4017,-585.7909 1280.7712,-461.7348 1252.1191,-406.7382"/>
<polygon fill="#000000" stroke="#000000" points="1255.0874,-404.8605 1247.3629,-397.609 1248.8793,-408.0947 1255.0874,-404.8605"/>
</g>
<!-- groups_projected_sg -->
<g id="node13" class="node">
<title>groups_projected_sg</title>
<g id="a_node13"><a xlink:href="groups.html#projected_sg" xlink:title="projected_sg">
<ellipse fill="#f070d1" stroke="#000000" cx="1278" cy="-121.6372" rx="70.6878" ry="18"/>
<text text-anchor="middle" x="1278" y="-117.9372" font-family="Times,serif" font-size="14.00" fill="#000000">projected_sg</text>
</a>
</g>
</g>
<!-- groups_projected_monoid&#45;&gt;groups_projected_sg -->
<g id="edge8" class="edge">
<title>groups_projected_monoid&#45;&gt;groups_projected_sg</title>
<path fill="none" stroke="#000000" d="M1427.6788,-361.4951C1399.7246,-316.699 1327.3256,-200.6807 1294.5516,-148.1609"/>
<polygon fill="#000000" stroke="#000000" points="1297.3584,-146.0474 1289.0949,-139.4166 1291.4198,-149.7533 1297.3584,-146.0474"/>
</g>
<!-- groups_projected_com_sg -->
<g id="node11" class="node">
<title>groups_projected_com_sg</title>
<g id="a_node11"><a xlink:href="groups.html#projected_com_sg" xlink:title="projected_com_sg">
<ellipse fill="#f070d1" stroke="#000000" cx="1120" cy="-665.6372" rx="94.7917" ry="18"/>
<ellipse fill="none" stroke="#000000" cx="1120" cy="-665.6372" rx="98.7875" ry="22"/>
<ellipse fill="none" stroke="#000000" cx="1120" cy="-665.6372" rx="102.7833" ry="26"/>
<text text-anchor="middle" x="1120" y="-661.9372" font-family="Times,serif" font-size="14.00" fill="#000000">projected_com_sg</text>
</a>
</g>
</g>
<!-- groups_projected_com_sg&#45;&gt;groups_projected_comm -->
<g id="edge9" class="edge">
<title>groups_projected_com_sg&#45;&gt;groups_projected_comm</title>
<path fill="none" stroke="#000000" d="M1130.6798,-639.7522C1152.8975,-585.9026 1203.9157,-462.2482 1226.6771,-407.0807"/>
<polygon fill="#000000" stroke="#000000" points="1230.0064,-408.188 1230.5851,-397.609 1223.5356,-405.5182 1230.0064,-408.188"/>
</g>
<!-- groups_projected_com_sg&#45;&gt;groups_projected_sg -->
<g id="edge10" class="edge">
<title>groups_projected_com_sg&#45;&gt;groups_projected_sg</title>
<path fill="none" stroke="#000000" d="M1117.9452,-639.3128C1114.5946,-585.7183 1111.0453,-460.6308 1141,-361.6372 1166.6745,-276.7886 1226.6558,-189.3957 1258.0465,-147.332"/>
<polygon fill="#000000" stroke="#000000" points="1260.878,-149.3903 1264.1067,-139.2993 1255.2899,-145.1744 1260.878,-149.3903"/>
</g>
<!-- groups_preserves_negate -->
<g id="node14" class="node">
<title>groups_preserves_negate</title>
<g id="a_node14"><a xlink:href="groups.html#preserves_negate" xlink:title="preserves_negate">
<ellipse fill="#f070d1" stroke="#000000" cx="995" cy="-980.6372" rx="92.8882" ry="18"/>
<ellipse fill="none" stroke="#000000" cx="995" cy="-980.6372" rx="96.8858" ry="22"/>
<ellipse fill="none" stroke="#000000" cx="995" cy="-980.6372" rx="100.8835" ry="26"/>
<text text-anchor="middle" x="995" y="-976.9372" font-family="Times,serif" font-size="14.00" fill="#000000">preserves_negate</text>
</a>
</g>
</g>
<!-- groups_group_cancelL -->
<g id="node18" class="node">
<title>groups_group_cancelL</title>
<g id="a_node18"><a xlink:href="groups.html#group_cancelL" xlink:title="group_cancelL">
<ellipse fill="#f070d1" stroke="#000000" cx="920" cy="-665.6372" rx="79.0865" ry="18"/>
<text text-anchor="middle" x="920" y="-661.9372" font-family="Times,serif" font-size="14.00" fill="#000000">group_cancelL</text>
</a>
</g>
</g>
<!-- groups_preserves_negate&#45;&gt;groups_group_cancelL -->
<g id="edge11" class="edge">
<title>groups_preserves_negate&#45;&gt;groups_group_cancelL</title>
<path fill="none" stroke="#000000" d="M988.7986,-954.5914C974.8602,-896.0499 941.1496,-754.4656 926.7278,-693.894"/>
<polygon fill="#000000" stroke="#000000" points="930.0683,-692.8126 924.3472,-683.8953 923.2586,-694.434 930.0683,-692.8126"/>
</g>
<!-- groups_negate_sg_op_distr -->
<g id="node15" class="node">
<title>groups_negate_sg_op_distr</title>
<g id="a_node15"><a xlink:href="groups.html#negate_sg_op_distr" xlink:title="negate_sg_op_distr">
<ellipse fill="#f070d1" stroke="#000000" cx="767" cy="-980.6372" rx="100.9649" ry="18"/>
<ellipse fill="none" stroke="#000000" cx="767" cy="-980.6372" rx="104.9738" ry="22"/>
<ellipse fill="none" stroke="#000000" cx="767" cy="-980.6372" rx="108.9827" ry="26"/>
<text text-anchor="middle" x="767" y="-976.9372" font-family="Times,serif" font-size="14.00" fill="#000000">negate_sg_op_distr</text>
</a>
</g>
</g>
<!-- groups_negate_sg_op -->
<g id="node16" class="node">
<title>groups_negate_sg_op</title>
<g id="a_node16"><a xlink:href="groups.html#negate_sg_op" xlink:title="negate_sg_op">
<ellipse fill="#f070d1" stroke="#000000" cx="749" cy="-665.6372" rx="74.187" ry="18"/>
<text text-anchor="middle" x="749" y="-661.9372" font-family="Times,serif" font-size="14.00" fill="#000000">negate_sg_op</text>
</a>
</g>
</g>
<!-- groups_negate_sg_op_distr&#45;&gt;groups_negate_sg_op -->
<g id="edge12" class="edge">
<title>groups_negate_sg_op_distr&#45;&gt;groups_negate_sg_op</title>
<path fill="none" stroke="#000000" d="M765.5117,-954.5914C762.1664,-896.0499 754.0759,-754.4656 750.6147,-693.894"/>
<polygon fill="#000000" stroke="#000000" points="754.1082,-693.6793 750.0433,-683.8953 747.1196,-694.0787 754.1082,-693.6793"/>
</g>
<!-- groups_group_cancelR -->
<g id="node17" class="node">
<title>groups_group_cancelR</title>
<g id="a_node17"><a xlink:href="groups.html#group_cancelR" xlink:title="group_cancelR">
<ellipse fill="#f070d1" stroke="#000000" cx="552" cy="-980.6372" rx="79.891" ry="18"/>
<ellipse fill="none" stroke="#000000" cx="552" cy="-980.6372" rx="83.8884" ry="22"/>
<ellipse fill="none" stroke="#000000" cx="552" cy="-980.6372" rx="87.8859" ry="26"/>
<text text-anchor="middle" x="552" y="-976.9372" font-family="Times,serif" font-size="14.00" fill="#000000">group_cancelR</text>
</a>
</g>
</g>
<!-- groups_negate_mon_unit -->
<g id="node19" class="node">
<title>groups_negate_mon_unit</title>
<g id="a_node19"><a xlink:href="groups.html#negate_mon_unit" xlink:title="negate_mon_unit">
<ellipse fill="#f070d1" stroke="#000000" cx="347" cy="-980.6372" rx="90.9845" ry="18"/>
<ellipse fill="none" stroke="#000000" cx="347" cy="-980.6372" rx="94.9842" ry="22"/>
<ellipse fill="none" stroke="#000000" cx="347" cy="-980.6372" rx="98.9839" ry="26"/>
<text text-anchor="middle" x="347" y="-976.9372" font-family="Times,serif" font-size="14.00" fill="#000000">negate_mon_unit</text>
</a>
</g>
</g>
<!-- groups_isinj_group_negate -->
<g id="node20" class="node">
<title>groups_isinj_group_negate</title>
<g id="a_node20"><a xlink:href="groups.html#isinj_group_negate" xlink:title="isinj_group_negate">
<ellipse fill="#f070d1" stroke="#000000" cx="123" cy="-980.6372" rx="98.5985" ry="18"/>
<ellipse fill="none" stroke="#000000" cx="123" cy="-980.6372" rx="102.5907" ry="22"/>
<ellipse fill="none" stroke="#000000" cx="123" cy="-980.6372" rx="106.5829" ry="26"/>
<text text-anchor="middle" x="123" y="-976.9372" font-family="Times,serif" font-size="14.00" fill="#000000">isinj_group_negate</text>
</a>
</g>
</g>
<!-- groups_negate_involutive -->
<g id="node21" class="node">
<title>groups_negate_involutive</title>
<g id="a_node21"><a xlink:href="groups.html#negate_involutive" xlink:title="negate_involutive">
<ellipse fill="#f070d1" stroke="#000000" cx="123" cy="-665.6372" rx="92.8835" ry="18"/>
<text text-anchor="middle" x="123" y="-661.9372" font-family="Times,serif" font-size="14.00" fill="#000000">negate_involutive</text>
</a>
</g>
</g>
<!-- groups_isinj_group_negate&#45;&gt;groups_negate_involutive -->
<g id="edge13" class="edge">
<title>groups_isinj_group_negate&#45;&gt;groups_negate_involutive</title>
<path fill="none" stroke="#000000" d="M123,-954.5914C123,-896.1711 123,-755.0515 123,-694.2713"/>
<polygon fill="#000000" stroke="#000000" points="126.5001,-693.8952 123,-683.8953 119.5001,-693.8953 126.5001,-693.8952"/>
</g>
</g>
</svg>
