<?xml version="1.0" encoding="UTF-8" standalone="no"?>
<!DOCTYPE svg PUBLIC "-//W3C//DTD SVG 1.1//EN"
 "http://www.w3.org/Graphics/SVG/1.1/DTD/svg11.dtd">
<!-- Generated by graphviz version 2.40.1 (20161225.0304)
 -->
<!-- Title: HoTT_Classes_interfaces_ua_setalgebra Pages: 1 -->
<svg width="1141pt" height="575pt"
 viewBox="0.00 0.00 1141.00 574.50" xmlns="http://www.w3.org/2000/svg" xmlns:xlink="http://www.w3.org/1999/xlink">
<g id="graph0" class="graph" transform="scale(1 1) rotate(0) translate(4 570.5)">
<title>HoTT_Classes_interfaces_ua_setalgebra</title>
<polygon fill="#ffffff" stroke="transparent" points="-4,4 -4,-570.5 1137,-570.5 1137,4 -4,4"/>
<g id="clust1" class="cluster">
<title>cluster_ua_setalgebra</title>
<polygon fill="#ffffc3" stroke="#000000" points="8,-10.6136 8,-555.8864 1125,-555.8864 1125,-10.6136 8,-10.6136"/>
<text text-anchor="middle" x="66.5" y="-540.6864" font-family="Times,serif" font-size="14.00" fill="#000000">ua_setalgebra</text>
</g>
<!-- ua_setalgebra_isequiv_path_setalgebra -->
<g id="node1" class="node">
<title>ua_setalgebra_isequiv_path_setalgebra</title>
<g id="a_node1"><a xlink:href="ua_setalgebra.html#isequiv_path_setalgebra" xlink:title="isequiv_path_setalgebra">
<ellipse fill="#f070d1" stroke="#000000" cx="495" cy="-480.6136" rx="124.2697" ry="18"/>
<ellipse fill="none" stroke="#000000" cx="495" cy="-480.6136" rx="128.2739" ry="22"/>
<ellipse fill="none" stroke="#000000" cx="495" cy="-480.6136" rx="132.2781" ry="26"/>
<text text-anchor="middle" x="495" y="-476.9136" font-family="Times,serif" font-size="14.00" fill="#000000">isequiv_path_setalgebra</text>
</a>
</g>
</g>
<!-- ua_setalgebra_isequiv_path_setalgebra_subproof0 -->
<g id="node2" class="node">
<title>ua_setalgebra_isequiv_path_setalgebra_subproof0</title>
<g id="a_node2"><a xlink:href="ua_setalgebra.html#isequiv_path_setalgebra_subproof0" xlink:title="isequiv_path_setalgebra_subproof0">
<ellipse fill="#f070d1" stroke="#000000" cx="677" cy="-374.6136" rx="175.4689" ry="18"/>
<text text-anchor="middle" x="677" y="-370.9136" font-family="Times,serif" font-size="14.00" fill="#000000">isequiv_path_setalgebra_subproof0</text>
</a>
</g>
</g>
<!-- ua_setalgebra_isequiv_path_setalgebra&#45;&gt;ua_setalgebra_isequiv_path_setalgebra_subproof0 -->
<g id="edge1" class="edge">
<title>ua_setalgebra_isequiv_path_setalgebra&#45;&gt;ua_setalgebra_isequiv_path_setalgebra_subproof0</title>
<path fill="none" stroke="#000000" d="M537.6709,-455.7613C567.9496,-438.1265 608.2846,-414.6346 637.7623,-397.4663"/>
<polygon fill="#000000" stroke="#000000" points="639.6591,-400.412 646.5389,-392.3547 636.1362,-394.3631 639.6591,-400.412"/>
</g>
<!-- ua_setalgebra_isequiv_path_setalgebra_subproof -->
<g id="node3" class="node">
<title>ua_setalgebra_isequiv_path_setalgebra_subproof</title>
<g id="a_node3"><a xlink:href="ua_setalgebra.html#isequiv_path_setalgebra_subproof" xlink:title="isequiv_path_setalgebra_subproof">
<ellipse fill="#f070d1" stroke="#000000" cx="314" cy="-374.6136" rx="169.77" ry="18"/>
<text text-anchor="middle" x="314" y="-370.9136" font-family="Times,serif" font-size="14.00" fill="#000000">isequiv_path_setalgebra_subproof</text>
</a>
</g>
</g>
<!-- ua_setalgebra_isequiv_path_setalgebra&#45;&gt;ua_setalgebra_isequiv_path_setalgebra_subproof -->
<g id="edge2" class="edge">
<title>ua_setalgebra_isequiv_path_setalgebra&#45;&gt;ua_setalgebra_isequiv_path_setalgebra_subproof</title>
<path fill="none" stroke="#000000" d="M452.5635,-455.7613C422.4512,-438.1265 382.3379,-414.6346 353.0221,-397.4663"/>
<polygon fill="#000000" stroke="#000000" points="354.6916,-394.388 344.2937,-392.3547 351.1541,-400.4284 354.6916,-394.388"/>
</g>
<!-- ua_setalgebra_path_setalgebra -->
<g id="node5" class="node">
<title>ua_setalgebra_path_setalgebra</title>
<g id="a_node5"><a xlink:href="ua_setalgebra.html#path_setalgebra" xlink:title="path_setalgebra">
<ellipse fill="#f070d1" stroke="#000000" cx="102" cy="-151.6136" rx="85.5853" ry="18"/>
<text text-anchor="middle" x="102" y="-147.9136" font-family="Times,serif" font-size="14.00" fill="#000000">path_setalgebra</text>
</a>
</g>
</g>
<!-- ua_setalgebra_isequiv_path_setalgebra_subproof0&#45;&gt;ua_setalgebra_path_setalgebra -->
<g id="edge3" class="edge">
<title>ua_setalgebra_isequiv_path_setalgebra_subproof0&#45;&gt;ua_setalgebra_path_setalgebra</title>
<path fill="none" stroke="#000000" d="M619.9782,-357.5738C569.9476,-342.1948 495.4776,-318.2605 432,-293.6136 379.3321,-273.1639 367.8215,-264.1221 316,-241.6136 259.4633,-217.057 194.1034,-189.721 150.6391,-171.6902"/>
<polygon fill="#000000" stroke="#000000" points="151.7445,-168.3597 141.1665,-167.7641 149.0643,-174.8263 151.7445,-168.3597"/>
</g>
<!-- ua_setalgebra_algebra_setalgebra -->
<g id="node7" class="node">
<title>ua_setalgebra_algebra_setalgebra</title>
<g id="a_node7"><a xlink:href="ua_setalgebra.html#algebra_setalgebra" xlink:title="algebra_setalgebra">
<ellipse fill="#f070d1" stroke="#000000" cx="741" cy="-267.6136" rx="100.1823" ry="18"/>
<text text-anchor="middle" x="741" y="-263.9136" font-family="Times,serif" font-size="14.00" fill="#000000">algebra_setalgebra</text>
</a>
</g>
</g>
<!-- ua_setalgebra_isequiv_path_setalgebra_subproof0&#45;&gt;ua_setalgebra_algebra_setalgebra -->
<g id="edge4" class="edge">
<title>ua_setalgebra_isequiv_path_setalgebra_subproof0&#45;&gt;ua_setalgebra_algebra_setalgebra</title>
<path fill="none" stroke="#000000" d="M687.8567,-356.4625C698.0165,-339.4766 713.3231,-313.8859 724.9036,-294.5248"/>
<polygon fill="#000000" stroke="#000000" points="727.9605,-296.2324 730.09,-285.8537 721.9531,-292.6391 727.9605,-296.2324"/>
</g>
<!-- ua_setalgebra_path_setalgebra_1 -->
<g id="node4" class="node">
<title>ua_setalgebra_path_setalgebra_1</title>
<g id="a_node4"><a xlink:href="ua_setalgebra.html#path_setalgebra_1" xlink:title="path_setalgebra_1">
<ellipse fill="#f070d1" stroke="#000000" cx="210" cy="-267.6136" rx="96.6831" ry="18"/>
<text text-anchor="middle" x="210" y="-263.9136" font-family="Times,serif" font-size="14.00" fill="#000000">path_setalgebra_1</text>
</a>
</g>
</g>
<!-- ua_setalgebra_isequiv_path_setalgebra_subproof&#45;&gt;ua_setalgebra_path_setalgebra_1 -->
<g id="edge5" class="edge">
<title>ua_setalgebra_isequiv_path_setalgebra_subproof&#45;&gt;ua_setalgebra_path_setalgebra_1</title>
<path fill="none" stroke="#000000" d="M296.3578,-356.4625C279.3723,-338.987 253.5342,-312.4036 234.545,-292.8666"/>
<polygon fill="#000000" stroke="#000000" points="236.8613,-290.2281 227.3816,-285.4966 231.8417,-295.107 236.8613,-290.2281"/>
</g>
<!-- ua_setalgebra_isequiv_path_setalgebra_subproof&#45;&gt;ua_setalgebra_algebra_setalgebra -->
<g id="edge6" class="edge">
<title>ua_setalgebra_isequiv_path_setalgebra_subproof&#45;&gt;ua_setalgebra_algebra_setalgebra</title>
<path fill="none" stroke="#000000" d="M380.2502,-358.0122C459.6615,-338.1129 592.0641,-304.9348 672.4726,-284.7856"/>
<polygon fill="#000000" stroke="#000000" points="673.6469,-288.0996 682.4962,-282.2738 671.9453,-281.3095 673.6469,-288.0996"/>
</g>
<!-- ua_setalgebra_path_setalgebra_1&#45;&gt;ua_setalgebra_path_setalgebra -->
<g id="edge7" class="edge">
<title>ua_setalgebra_path_setalgebra_1&#45;&gt;ua_setalgebra_path_setalgebra</title>
<path fill="none" stroke="#000000" d="M193.3617,-249.7428C175.1541,-230.1865 145.8311,-198.6914 125.3306,-176.6724"/>
<polygon fill="#000000" stroke="#000000" points="127.8558,-174.2483 118.48,-169.3143 122.7326,-179.0183 127.8558,-174.2483"/>
</g>
<!-- ua_setalgebra_BuildSetAlgebra -->
<g id="node12" class="node">
<title>ua_setalgebra_BuildSetAlgebra</title>
<g id="a_node12"><a xlink:href="ua_setalgebra.html#BuildSetAlgebra" xlink:title="BuildSetAlgebra">
<ellipse fill="#7faaff" stroke="#000000" cx="364" cy="-44.6136" rx="87.1846" ry="18"/>
<text text-anchor="middle" x="364" y="-40.9136" font-family="Times,serif" font-size="14.00" fill="#000000">BuildSetAlgebra</text>
</a>
</g>
</g>
<!-- ua_setalgebra_path_setalgebra&#45;&gt;ua_setalgebra_BuildSetAlgebra -->
<g id="edge8" class="edge">
<title>ua_setalgebra_path_setalgebra&#45;&gt;ua_setalgebra_BuildSetAlgebra</title>
<path fill="none" stroke="#000000" d="M141.224,-135.5946C187.6258,-116.6443 264.9005,-85.0855 315.1454,-64.5656"/>
<polygon fill="#000000" stroke="#000000" points="316.5734,-67.7632 324.5078,-60.7421 313.9268,-61.2828 316.5734,-67.7632"/>
</g>
<!-- ua_setalgebra_SetAlgebra -->
<g id="node13" class="node">
<title>ua_setalgebra_SetAlgebra</title>
<g id="a_node13"><a xlink:href="ua_setalgebra.html#SetAlgebra" xlink:title="SetAlgebra">
<ellipse fill="#e2cdfa" stroke="#000000" cx="600" cy="-44.6136" rx="63.0888" ry="18"/>
<text text-anchor="middle" x="600" y="-40.9136" font-family="Times,serif" font-size="14.00" fill="#000000">SetAlgebra</text>
</a>
</g>
</g>
<!-- ua_setalgebra_path_setalgebra&#45;&gt;ua_setalgebra_SetAlgebra -->
<g id="edge9" class="edge">
<title>ua_setalgebra_path_setalgebra&#45;&gt;ua_setalgebra_SetAlgebra</title>
<path fill="none" stroke="#000000" d="M152.5628,-136.909C166.5784,-133.0295 181.8347,-128.988 196,-125.6136 315.4526,-97.1577 456.3577,-70.4439 536.2371,-55.9304"/>
<polygon fill="#000000" stroke="#000000" points="536.9289,-59.3621 546.145,-54.1359 535.6813,-52.4741 536.9289,-59.3621"/>
</g>
<!-- ua_setalgebra_is_hset_algebra_setalgebra -->
<g id="node6" class="node">
<title>ua_setalgebra_is_hset_algebra_setalgebra</title>
<g id="a_node6"><a xlink:href="ua_setalgebra.html#is_hset_algebra_setalgebra" xlink:title="is_hset_algebra_setalgebra">
<ellipse fill="#f070d1" stroke="#000000" cx="971" cy="-151.6136" rx="137.5875" ry="18"/>
<ellipse fill="none" stroke="#000000" cx="971" cy="-151.6136" rx="141.5817" ry="22"/>
<ellipse fill="none" stroke="#000000" cx="971" cy="-151.6136" rx="145.5759" ry="26"/>
<text text-anchor="middle" x="971" y="-147.9136" font-family="Times,serif" font-size="14.00" fill="#000000">is_hset_algebra_setalgebra</text>
</a>
</g>
</g>
<!-- ua_setalgebra_is_hset_algebra_setalgebra&#45;&gt;ua_setalgebra_SetAlgebra -->
<g id="edge10" class="edge">
<title>ua_setalgebra_is_hset_algebra_setalgebra&#45;&gt;ua_setalgebra_SetAlgebra</title>
<path fill="none" stroke="#000000" d="M894.1286,-129.4431C822.5079,-108.787 717.5301,-78.5104 654.2757,-60.2672"/>
<polygon fill="#000000" stroke="#000000" points="655.0718,-56.8542 644.4935,-57.4459 653.1319,-63.5801 655.0718,-56.8542"/>
</g>
<!-- ua_setalgebra_algebra_setalgebra&#45;&gt;ua_setalgebra_SetAlgebra -->
<g id="edge11" class="edge">
<title>ua_setalgebra_algebra_setalgebra&#45;&gt;ua_setalgebra_SetAlgebra</title>
<path fill="none" stroke="#000000" d="M758.0217,-249.8301C782.798,-221.7161 823.042,-166.0493 796,-125.6136 767.7422,-83.3599 712.9591,-63.1226 668.4788,-53.4441"/>
<polygon fill="#000000" stroke="#000000" points="669.0772,-49.9942 658.5793,-51.4244 667.6778,-56.8529 669.0772,-49.9942"/>
</g>
<!-- ua_setalgebra_SetAlgebra_sind -->
<g id="node8" class="node">
<title>ua_setalgebra_SetAlgebra_sind</title>
<g id="a_node8"><a xlink:href="ua_setalgebra.html#SetAlgebra_sind" xlink:title="SetAlgebra_sind">
<ellipse fill="#f070d1" stroke="#000000" cx="500" cy="-151.6136" rx="87.1769" ry="18"/>
<ellipse fill="none" stroke="#000000" cx="500" cy="-151.6136" rx="91.1807" ry="22"/>
<ellipse fill="none" stroke="#000000" cx="500" cy="-151.6136" rx="95.1846" ry="26"/>
<text text-anchor="middle" x="500" y="-147.9136" font-family="Times,serif" font-size="14.00" fill="#000000">SetAlgebra_sind</text>
</a>
</g>
</g>
<!-- ua_setalgebra_SetAlgebra_sind&#45;&gt;ua_setalgebra_BuildSetAlgebra -->
<g id="edge12" class="edge">
<title>ua_setalgebra_SetAlgebra_sind&#45;&gt;ua_setalgebra_BuildSetAlgebra</title>
<path fill="none" stroke="#000000" d="M468.457,-126.7967C446.1916,-109.2791 416.5226,-85.9365 394.4946,-68.6056"/>
<polygon fill="#000000" stroke="#000000" points="396.481,-65.7151 386.4576,-62.2825 392.1527,-71.2165 396.481,-65.7151"/>
</g>
<!-- ua_setalgebra_SetAlgebra_sind&#45;&gt;ua_setalgebra_SetAlgebra -->
<g id="edge13" class="edge">
<title>ua_setalgebra_SetAlgebra_sind&#45;&gt;ua_setalgebra_SetAlgebra</title>
<path fill="none" stroke="#000000" d="M523.6986,-126.2561C539.726,-109.1067 560.7939,-86.5641 576.7304,-69.5121"/>
<polygon fill="#000000" stroke="#000000" points="579.3839,-71.7987 583.6549,-62.1028 574.2697,-67.0191 579.3839,-71.7987"/>
</g>
<!-- ua_setalgebra_SetAlgebra_rec -->
<g id="node9" class="node">
<title>ua_setalgebra_SetAlgebra_rec</title>
<g id="a_node9"><a xlink:href="ua_setalgebra.html#SetAlgebra_rec" xlink:title="SetAlgebra_rec">
<ellipse fill="#f070d1" stroke="#000000" cx="532" cy="-267.6136" rx="83.3687" ry="18"/>
<ellipse fill="none" stroke="#000000" cx="532" cy="-267.6136" rx="87.3772" ry="22"/>
<ellipse fill="none" stroke="#000000" cx="532" cy="-267.6136" rx="91.3856" ry="26"/>
<text text-anchor="middle" x="532" y="-263.9136" font-family="Times,serif" font-size="14.00" fill="#000000">SetAlgebra_rec</text>
</a>
</g>
</g>
<!-- ua_setalgebra_SetAlgebra_rect -->
<g id="node11" class="node">
<title>ua_setalgebra_SetAlgebra_rect</title>
<g id="a_node11"><a xlink:href="ua_setalgebra.html#SetAlgebra_rect" xlink:title="SetAlgebra_rect">
<ellipse fill="#f070d1" stroke="#000000" cx="700" cy="-151.6136" rx="87.1846" ry="18"/>
<text text-anchor="middle" x="700" y="-147.9136" font-family="Times,serif" font-size="14.00" fill="#000000">SetAlgebra_rect</text>
</a>
</g>
</g>
<!-- ua_setalgebra_SetAlgebra_rec&#45;&gt;ua_setalgebra_SetAlgebra_rect -->
<g id="edge14" class="edge">
<title>ua_setalgebra_SetAlgebra_rec&#45;&gt;ua_setalgebra_SetAlgebra_rect</title>
<path fill="none" stroke="#000000" d="M566.8097,-243.5783C595.9881,-223.4314 637.3928,-194.8424 666.2654,-174.9065"/>
<polygon fill="#000000" stroke="#000000" points="668.5559,-177.5783 674.7962,-169.0162 664.5785,-171.818 668.5559,-177.5783"/>
</g>
<!-- ua_setalgebra_SetAlgebra_ind -->
<g id="node10" class="node">
<title>ua_setalgebra_SetAlgebra_ind</title>
<g id="a_node10"><a xlink:href="ua_setalgebra.html#SetAlgebra_ind" xlink:title="SetAlgebra_ind">
<ellipse fill="#7fffd4" stroke="#000000" cx="296" cy="-151.6136" rx="82.5816" ry="18"/>
<ellipse fill="none" stroke="#000000" cx="296" cy="-151.6136" rx="86.5835" ry="22"/>
<ellipse fill="none" stroke="#000000" cx="296" cy="-151.6136" rx="90.5854" ry="26"/>
<text text-anchor="middle" x="296" y="-147.9136" font-family="Times,serif" font-size="14.00" fill="#000000">SetAlgebra_ind</text>
</a>
</g>
</g>
<!-- ua_setalgebra_SetAlgebra_ind&#45;&gt;ua_setalgebra_BuildSetAlgebra -->
<g id="edge15" class="edge">
<title>ua_setalgebra_SetAlgebra_ind&#45;&gt;ua_setalgebra_BuildSetAlgebra</title>
<path fill="none" stroke="#000000" d="M312.2877,-125.9844C322.7638,-109.5 336.3524,-88.1178 346.971,-71.4092"/>
<polygon fill="#000000" stroke="#000000" points="350.1163,-72.9854 352.526,-62.6682 344.2084,-69.2308 350.1163,-72.9854"/>
</g>
<!-- ua_setalgebra_SetAlgebra_ind&#45;&gt;ua_setalgebra_SetAlgebra -->
<g id="edge16" class="edge">
<title>ua_setalgebra_SetAlgebra_ind&#45;&gt;ua_setalgebra_SetAlgebra</title>
<path fill="none" stroke="#000000" d="M353.5375,-131.3619C410.4164,-111.342 496.5333,-81.0311 550.4583,-62.051"/>
<polygon fill="#000000" stroke="#000000" points="551.8676,-65.2655 560.1384,-58.6438 549.5435,-58.6625 551.8676,-65.2655"/>
</g>
<!-- ua_setalgebra_SetAlgebra_rect&#45;&gt;ua_setalgebra_BuildSetAlgebra -->
<g id="edge17" class="edge">
<title>ua_setalgebra_SetAlgebra_rect&#45;&gt;ua_setalgebra_BuildSetAlgebra</title>
<path fill="none" stroke="#000000" d="M652.572,-136.51C591.7478,-117.1404 486.3576,-83.5786 421.168,-62.8189"/>
<polygon fill="#000000" stroke="#000000" points="422.0484,-59.4261 411.4578,-59.7266 419.9243,-66.0961 422.0484,-59.4261"/>
</g>
<!-- ua_setalgebra_SetAlgebra_rect&#45;&gt;ua_setalgebra_SetAlgebra -->
<g id="edge18" class="edge">
<title>ua_setalgebra_SetAlgebra_rect&#45;&gt;ua_setalgebra_SetAlgebra</title>
<path fill="none" stroke="#000000" d="M683.0364,-133.4625C666.6058,-115.8817 641.5602,-89.083 623.2717,-69.5143"/>
<polygon fill="#000000" stroke="#000000" points="625.767,-67.0583 616.3818,-62.1421 620.6527,-71.8379 625.767,-67.0583"/>
</g>
</g>
</svg>
