<?xml version="1.0" encoding="UTF-8" standalone="no"?>
<!DOCTYPE svg PUBLIC "-//W3C//DTD SVG 1.1//EN"
 "http://www.w3.org/Graphics/SVG/1.1/DTD/svg11.dtd">
<!-- Generated by graphviz version 2.40.1 (20161225.0304)
 -->
<!-- Title: HoTT_ExcludedMiddle Pages: 1 -->
<svg width="1017pt" height="513pt"
 viewBox="0.00 0.00 1017.00 512.50" xmlns="http://www.w3.org/2000/svg" xmlns:xlink="http://www.w3.org/1999/xlink">
<g id="graph0" class="graph" transform="scale(1 1) rotate(0) translate(4 508.5)">
<title>HoTT_ExcludedMiddle</title>
<polygon fill="#ffffff" stroke="transparent" points="-4,4 -4,-508.5 1013,-508.5 1013,4 -4,4"/>
<g id="clust1" class="cluster">
<title>cluster_ExcludedMiddle</title>
<polygon fill="#ffffc3" stroke="#000000" points="8,-15.1161 8,-489.3839 1001,-489.3839 1001,-15.1161 8,-15.1161"/>
<text text-anchor="middle" x="74.5" y="-474.1839" font-family="Times,serif" font-size="14.00" fill="#000000">ExcludedMiddle</text>
</g>
<!-- ExcludedMiddle_DNE_from_allneg -->
<g id="node1" class="node">
<title>ExcludedMiddle_DNE_from_allneg</title>
<g id="a_node1"><a xlink:href="ExcludedMiddle.html#DNE_from_allneg" xlink:title="DNE_from_allneg">
<ellipse fill="#f070d1" stroke="#000000" cx="892" cy="-382.1161" rx="92.8882" ry="18"/>
<ellipse fill="none" stroke="#000000" cx="892" cy="-382.1161" rx="96.8858" ry="22"/>
<ellipse fill="none" stroke="#000000" cx="892" cy="-382.1161" rx="100.8835" ry="26"/>
<text text-anchor="middle" x="892" y="-378.4161" font-family="Times,serif" font-size="14.00" fill="#000000">DNE_from_allneg</text>
</a>
</g>
</g>
<!-- ExcludedMiddle_DNE_type -->
<g id="node5" class="node">
<title>ExcludedMiddle_DNE_type</title>
<g id="a_node5"><a xlink:href="ExcludedMiddle.html#DNE_type" xlink:title="DNE_type">
<ellipse fill="#f070d1" stroke="#000000" cx="760" cy="-215.1161" rx="58.4896" ry="18"/>
<text text-anchor="middle" x="760" y="-211.4161" font-family="Times,serif" font-size="14.00" fill="#000000">DNE_type</text>
</a>
</g>
</g>
<!-- ExcludedMiddle_DNE_from_allneg&#45;&gt;ExcludedMiddle_DNE_type -->
<g id="edge1" class="edge">
<title>ExcludedMiddle_DNE_from_allneg&#45;&gt;ExcludedMiddle_DNE_type</title>
<path fill="none" stroke="#000000" d="M871.6643,-356.3883C846.8359,-324.9767 805.0967,-272.1702 780.2893,-240.7852"/>
<polygon fill="#000000" stroke="#000000" points="783.0155,-238.59 774.0687,-232.9151 777.5239,-242.9307 783.0155,-238.59"/>
</g>
<!-- ExcludedMiddle_allneg_from_DNE -->
<g id="node2" class="node">
<title>ExcludedMiddle_allneg_from_DNE</title>
<g id="a_node2"><a xlink:href="ExcludedMiddle.html#allneg_from_DNE" xlink:title="allneg_from_DNE">
<ellipse fill="#f070d1" stroke="#000000" cx="672" cy="-382.1161" rx="92.8882" ry="18"/>
<ellipse fill="none" stroke="#000000" cx="672" cy="-382.1161" rx="96.8858" ry="22"/>
<ellipse fill="none" stroke="#000000" cx="672" cy="-382.1161" rx="100.8835" ry="26"/>
<text text-anchor="middle" x="672" y="-378.4161" font-family="Times,serif" font-size="14.00" fill="#000000">allneg_from_DNE</text>
</a>
</g>
</g>
<!-- ExcludedMiddle_allneg_from_DNE&#45;&gt;ExcludedMiddle_DNE_type -->
<g id="edge2" class="edge">
<title>ExcludedMiddle_allneg_from_DNE&#45;&gt;ExcludedMiddle_DNE_type</title>
<path fill="none" stroke="#000000" d="M685.75,-356.0224C702.0466,-325.0959 729.0736,-273.806 745.6347,-242.3775"/>
<polygon fill="#000000" stroke="#000000" points="748.8495,-243.7845 750.4149,-233.3059 742.6566,-240.5212 748.8495,-243.7845"/>
</g>
<!-- ExcludedMiddle_DNE_to_LEM -->
<g id="node3" class="node">
<title>ExcludedMiddle_DNE_to_LEM</title>
<g id="a_node3"><a xlink:href="ExcludedMiddle.html#DNE_to_LEM" xlink:title="DNE_to_LEM">
<ellipse fill="#f070d1" stroke="#000000" cx="470" cy="-382.1161" rx="74.9639" ry="18"/>
<ellipse fill="none" stroke="#000000" cx="470" cy="-382.1161" rx="78.9757" ry="22"/>
<ellipse fill="none" stroke="#000000" cx="470" cy="-382.1161" rx="82.9875" ry="26"/>
<text text-anchor="middle" x="470" y="-378.4161" font-family="Times,serif" font-size="14.00" fill="#000000">DNE_to_LEM</text>
</a>
</g>
</g>
<!-- ExcludedMiddle_DNE_to_LEM&#45;&gt;ExcludedMiddle_DNE_type -->
<g id="edge3" class="edge">
<title>ExcludedMiddle_DNE_to_LEM&#45;&gt;ExcludedMiddle_DNE_type</title>
<path fill="none" stroke="#000000" d="M509.7152,-359.2456C566.1417,-326.7517 668.7202,-267.6807 723.3927,-236.1969"/>
<polygon fill="#000000" stroke="#000000" points="725.1427,-239.228 732.062,-231.2046 721.6495,-233.1619 725.1427,-239.228"/>
</g>
<!-- ExcludedMiddle_ExcludedMiddle_type -->
<g id="node7" class="node">
<title>ExcludedMiddle_ExcludedMiddle_type</title>
<g id="a_node7"><a xlink:href="ExcludedMiddle.html#ExcludedMiddle_type" xlink:title="ExcludedMiddle_type">
<ellipse fill="#f070d1" stroke="#000000" cx="572" cy="-215.1161" rx="111.5806" ry="18"/>
<text text-anchor="middle" x="572" y="-211.4161" font-family="Times,serif" font-size="14.00" fill="#000000">ExcludedMiddle_type</text>
</a>
</g>
</g>
<!-- ExcludedMiddle_DNE_to_LEM&#45;&gt;ExcludedMiddle_ExcludedMiddle_type -->
<g id="edge4" class="edge">
<title>ExcludedMiddle_DNE_to_LEM&#45;&gt;ExcludedMiddle_ExcludedMiddle_type</title>
<path fill="none" stroke="#000000" d="M485.714,-356.3883C504.6345,-325.4105 536.2641,-273.6249 555.5201,-242.0979"/>
<polygon fill="#000000" stroke="#000000" points="558.6112,-243.7517 560.8367,-233.3933 552.6373,-240.103 558.6112,-243.7517"/>
</g>
<!-- ExcludedMiddle_LEM_to_DNE -->
<g id="node4" class="node">
<title>ExcludedMiddle_LEM_to_DNE</title>
<g id="a_node4"><a xlink:href="ExcludedMiddle.html#LEM_to_DNE" xlink:title="LEM_to_DNE">
<ellipse fill="#f070d1" stroke="#000000" cx="287" cy="-382.1161" rx="74.9639" ry="18"/>
<ellipse fill="none" stroke="#000000" cx="287" cy="-382.1161" rx="78.9757" ry="22"/>
<ellipse fill="none" stroke="#000000" cx="287" cy="-382.1161" rx="82.9875" ry="26"/>
<text text-anchor="middle" x="287" y="-378.4161" font-family="Times,serif" font-size="14.00" fill="#000000">LEM_to_DNE</text>
</a>
</g>
</g>
<!-- ExcludedMiddle_LEM_to_DNE&#45;&gt;ExcludedMiddle_DNE_type -->
<g id="edge5" class="edge">
<title>ExcludedMiddle_LEM_to_DNE&#45;&gt;ExcludedMiddle_DNE_type</title>
<path fill="none" stroke="#000000" d="M343.7128,-363.1374C422.4067,-336.6399 569.0376,-286.6773 693,-241.1161 699.9242,-238.5712 707.2239,-235.8149 714.3562,-233.0807"/>
<polygon fill="#000000" stroke="#000000" points="715.8578,-236.2529 723.9275,-229.3878 713.3379,-229.7222 715.8578,-236.2529"/>
</g>
<!-- ExcludedMiddle_LEM -->
<g id="node8" class="node">
<title>ExcludedMiddle_LEM</title>
<g id="a_node8"><a xlink:href="ExcludedMiddle.html#LEM" xlink:title="LEM">
<ellipse fill="#facdef" stroke="#000000" cx="409" cy="-215.1161" rx="33.2948" ry="18"/>
<text text-anchor="middle" x="409" y="-211.4161" font-family="Times,serif" font-size="14.00" fill="#000000">LEM</text>
</a>
</g>
</g>
<!-- ExcludedMiddle_LEM_to_DNE&#45;&gt;ExcludedMiddle_LEM -->
<g id="edge6" class="edge">
<title>ExcludedMiddle_LEM_to_DNE&#45;&gt;ExcludedMiddle_LEM</title>
<path fill="none" stroke="#000000" d="M305.5292,-356.7524C328.5607,-325.2256 367.6281,-271.7481 390.5997,-240.3034"/>
<polygon fill="#000000" stroke="#000000" points="393.5525,-242.1947 396.6253,-232.0552 387.9001,-238.0654 393.5525,-242.1947"/>
</g>
<!-- ExcludedMiddle_decidable_lem -->
<g id="node6" class="node">
<title>ExcludedMiddle_decidable_lem</title>
<g id="a_node6"><a xlink:href="ExcludedMiddle.html#decidable_lem" xlink:title="decidable_lem">
<ellipse fill="#f070d1" stroke="#000000" cx="101" cy="-382.1161" rx="77.2012" ry="18"/>
<ellipse fill="none" stroke="#000000" cx="101" cy="-382.1161" rx="81.1939" ry="22"/>
<ellipse fill="none" stroke="#000000" cx="101" cy="-382.1161" rx="85.1866" ry="26"/>
<text text-anchor="middle" x="101" y="-378.4161" font-family="Times,serif" font-size="14.00" fill="#000000">decidable_lem</text>
</a>
</g>
</g>
<!-- ExcludedMiddle_decidable_lem&#45;&gt;ExcludedMiddle_LEM -->
<g id="edge7" class="edge">
<title>ExcludedMiddle_decidable_lem&#45;&gt;ExcludedMiddle_LEM</title>
<path fill="none" stroke="#000000" d="M145.2646,-359.8009C198.4583,-332.7217 290.1552,-285.2026 367,-241.1161 370.7658,-238.9557 374.6846,-236.6329 378.5487,-234.2966"/>
<polygon fill="#000000" stroke="#000000" points="380.6715,-237.1006 387.3679,-228.8903 377.0131,-231.1327 380.6715,-237.1006"/>
</g>
<!-- ExcludedMiddle_ExcludedMiddle -->
<g id="node10" class="node">
<title>ExcludedMiddle_ExcludedMiddle</title>
<g id="a_node10"><a xlink:href="ExcludedMiddle.html#ExcludedMiddle" xlink:title="ExcludedMiddle">
<ellipse fill="#facdef" stroke="#000000" cx="298" cy="-64.1161" rx="86.3847" ry="18"/>
<text text-anchor="middle" x="298" y="-60.4161" font-family="Times,serif" font-size="14.00" fill="#000000">ExcludedMiddle</text>
</a>
</g>
</g>
<!-- ExcludedMiddle_LEM&#45;&gt;ExcludedMiddle_ExcludedMiddle -->
<g id="edge8" class="edge">
<title>ExcludedMiddle_LEM&#45;&gt;ExcludedMiddle_ExcludedMiddle</title>
<path fill="none" stroke="#000000" d="M396.6969,-198.3795C377.5036,-172.2697 340.2725,-121.6219 317.4276,-90.5447"/>
<polygon fill="#000000" stroke="#000000" points="320.1356,-88.3192 311.3926,-82.3349 314.4955,-92.4652 320.1356,-88.3192"/>
</g>
<!-- ExcludedMiddle_is_global_axiom_excludedmiddle -->
<g id="node9" class="node">
<title>ExcludedMiddle_is_global_axiom_excludedmiddle</title>
<g id="a_node9"><a xlink:href="ExcludedMiddle.html#is_global_axiom_excludedmiddle" xlink:title="is_global_axiom_excludedmiddle">
<ellipse fill="#7fffd4" stroke="#000000" cx="187" cy="-215.1161" rx="163.2648" ry="18"/>
<ellipse fill="none" stroke="#000000" cx="187" cy="-215.1161" rx="167.268" ry="22"/>
<ellipse fill="none" stroke="#000000" cx="187" cy="-215.1161" rx="171.2712" ry="26"/>
<text text-anchor="middle" x="187" y="-211.4161" font-family="Times,serif" font-size="14.00" fill="#000000">is_global_axiom_excludedmiddle</text>
</a>
</g>
</g>
<!-- ExcludedMiddle_is_global_axiom_excludedmiddle&#45;&gt;ExcludedMiddle_ExcludedMiddle -->
<g id="edge9" class="edge">
<title>ExcludedMiddle_is_global_axiom_excludedmiddle&#45;&gt;ExcludedMiddle_ExcludedMiddle</title>
<path fill="none" stroke="#000000" d="M206.0816,-189.1583C226.4167,-161.4952 258.4302,-117.9453 278.8076,-90.2247"/>
<polygon fill="#000000" stroke="#000000" points="281.6294,-92.2953 284.7322,-82.165 275.9893,-88.1493 281.6294,-92.2953"/>
</g>
</g>
</svg>
