<?xml version="1.0" encoding="UTF-8" standalone="no"?>
<!DOCTYPE svg PUBLIC "-//W3C//DTD SVG 1.1//EN"
 "http://www.w3.org/Graphics/SVG/1.1/DTD/svg11.dtd">
<!-- Generated by graphviz version 2.40.1 (20161225.0304)
 -->
<!-- Title: HoTT_Homotopy_Smash Pages: 1 -->
<svg width="1633pt" height="821pt"
 viewBox="0.00 0.00 1633.00 820.50" xmlns="http://www.w3.org/2000/svg" xmlns:xlink="http://www.w3.org/1999/xlink">
<g id="graph0" class="graph" transform="scale(1 1) rotate(0) translate(4 816.5)">
<title>HoTT_Homotopy_Smash</title>
<polygon fill="#ffffff" stroke="transparent" points="-4,4 -4,-816.5 1629,-816.5 1629,4 -4,4"/>
<g id="clust1" class="cluster">
<title>cluster_Smash</title>
<polygon fill="#ffffc3" stroke="#000000" points="8,-9.0909 8,-803.4091 1617,-803.4091 1617,-9.0909 8,-9.0909"/>
<text text-anchor="middle" x="40.5" y="-788.2091" font-family="Times,serif" font-size="14.00" fill="#000000">Smash</text>
</g>
<!-- Smash_smash_rec_beta_glue -->
<g id="node1" class="node">
<title>Smash_smash_rec_beta_glue</title>
<g id="a_node1"><a xlink:href="Smash.html#smash_rec_beta_glue" xlink:title="smash_rec_beta_glue">
<ellipse fill="#f070d1" stroke="#000000" cx="811" cy="-739.0909" rx="110.4811" ry="18"/>
<ellipse fill="none" stroke="#000000" cx="811" cy="-739.0909" rx="114.4807" ry="22"/>
<ellipse fill="none" stroke="#000000" cx="811" cy="-739.0909" rx="118.4804" ry="26"/>
<text text-anchor="middle" x="811" y="-735.3909" font-family="Times,serif" font-size="14.00" fill="#000000">smash_rec_beta_glue</text>
</a>
</g>
</g>
<!-- Smash_Smash_rec_beta_gluer_ -->
<g id="node2" class="node">
<title>Smash_Smash_rec_beta_gluer_</title>
<g id="a_node2"><a xlink:href="Smash.html#Smash_rec_beta_gluer'" xlink:title="Smash_rec_beta_gluer&#39;">
<ellipse fill="#f070d1" stroke="#000000" cx="1372" cy="-639.0909" rx="118.8789" ry="18"/>
<text text-anchor="middle" x="1372" y="-635.3909" font-family="Times,serif" font-size="14.00" fill="#000000">Smash_rec_beta_gluer&#39;</text>
</a>
</g>
</g>
<!-- Smash_smash_rec_beta_glue&#45;&gt;Smash_Smash_rec_beta_gluer_ -->
<g id="edge1" class="edge">
<title>Smash_smash_rec_beta_glue&#45;&gt;Smash_Smash_rec_beta_gluer_</title>
<path fill="none" stroke="#000000" d="M906.6064,-723.6292C994.4461,-709.2153 1128.1798,-686.7453 1244,-665.0909 1259.5976,-662.1747 1276.2321,-658.9101 1292.1711,-655.7054"/>
<polygon fill="#000000" stroke="#000000" points="1292.8813,-659.1327 1301.99,-653.7215 1291.4949,-652.2714 1292.8813,-659.1327"/>
</g>
<!-- Smash_Smash_rec_beta_gluel_ -->
<g id="node3" class="node">
<title>Smash_Smash_rec_beta_gluel_</title>
<g id="a_node3"><a xlink:href="Smash.html#Smash_rec_beta_gluel'" xlink:title="Smash_rec_beta_gluel&#39;">
<ellipse fill="#f070d1" stroke="#000000" cx="494" cy="-639.0909" rx="117.7793" ry="18"/>
<text text-anchor="middle" x="494" y="-635.3909" font-family="Times,serif" font-size="14.00" fill="#000000">Smash_rec_beta_gluel&#39;</text>
</a>
</g>
</g>
<!-- Smash_smash_rec_beta_glue&#45;&gt;Smash_Smash_rec_beta_gluel_ -->
<g id="edge2" class="edge">
<title>Smash_smash_rec_beta_glue&#45;&gt;Smash_Smash_rec_beta_gluel_</title>
<path fill="none" stroke="#000000" d="M742.9955,-717.6384C687.3347,-700.0798 609.2821,-675.4575 555.4752,-658.4837"/>
<polygon fill="#000000" stroke="#000000" points="556.3111,-655.0774 545.7213,-655.4068 554.2051,-661.7532 556.3111,-655.0774"/>
</g>
<!-- Smash_glue -->
<g id="node18" class="node">
<title>Smash_glue</title>
<g id="a_node18"><a xlink:href="Smash.html#glue" xlink:title="glue">
<ellipse fill="#f070d1" stroke="#000000" cx="885" cy="-539.0909" rx="30.5947" ry="18"/>
<text text-anchor="middle" x="885" y="-535.3909" font-family="Times,serif" font-size="14.00" fill="#000000">glue</text>
</a>
</g>
</g>
<!-- Smash_smash_rec_beta_glue&#45;&gt;Smash_glue -->
<g id="edge3" class="edge">
<title>Smash_smash_rec_beta_glue&#45;&gt;Smash_glue</title>
<path fill="none" stroke="#000000" d="M808.4488,-712.8887C806.9333,-686.603 807.4528,-645.4821 821,-613.0909 829.4606,-592.8617 845.663,-574.217 859.6477,-560.7029"/>
<polygon fill="#000000" stroke="#000000" points="862.1884,-563.1197 867.1255,-553.7455 857.4202,-557.9948 862.1884,-563.1197"/>
</g>
<!-- Smash_smash_rec_beta_gluer -->
<g id="node4" class="node">
<title>Smash_smash_rec_beta_gluer</title>
<g id="a_node4"><a xlink:href="Smash.html#smash_rec_beta_gluer" xlink:title="smash_rec_beta_gluer">
<ellipse fill="#f070d1" stroke="#000000" cx="1049" cy="-539.0909" rx="115.0796" ry="18"/>
<text text-anchor="middle" x="1049" y="-535.3909" font-family="Times,serif" font-size="14.00" fill="#000000">smash_rec_beta_gluer</text>
</a>
</g>
</g>
<!-- Smash_Smash_rec_beta_gluer_&#45;&gt;Smash_smash_rec_beta_gluer -->
<g id="edge4" class="edge">
<title>Smash_Smash_rec_beta_gluer_&#45;&gt;Smash_smash_rec_beta_gluer</title>
<path fill="none" stroke="#000000" d="M1319.7455,-622.913C1262.6637,-605.2406 1171.3045,-576.9561 1110.731,-558.2027"/>
<polygon fill="#000000" stroke="#000000" points="1111.4998,-554.7768 1100.912,-555.1627 1109.4295,-561.4637 1111.4998,-554.7768"/>
</g>
<!-- Smash_gluer_ -->
<g id="node19" class="node">
<title>Smash_gluer_</title>
<g id="a_node19"><a xlink:href="Smash.html#gluer'" xlink:title="gluer&#39;">
<ellipse fill="#f070d1" stroke="#000000" cx="1300" cy="-448.0909" rx="37.8943" ry="18"/>
<text text-anchor="middle" x="1300" y="-444.3909" font-family="Times,serif" font-size="14.00" fill="#000000">gluer&#39;</text>
</a>
</g>
</g>
<!-- Smash_Smash_rec_beta_gluer_&#45;&gt;Smash_gluer_ -->
<g id="edge5" class="edge">
<title>Smash_Smash_rec_beta_gluer_&#45;&gt;Smash_gluer_</title>
<path fill="none" stroke="#000000" d="M1450.5365,-625.4967C1533.2148,-607.7634 1645.3381,-571.8674 1598,-513.0909 1567.1102,-474.7371 1423.7929,-457.803 1347.7273,-451.4099"/>
<polygon fill="#000000" stroke="#000000" points="1347.7096,-447.8971 1337.4592,-450.5766 1347.1433,-454.8741 1347.7096,-447.8971"/>
</g>
<!-- Smash_Smash_rec_beta_gluel -->
<g id="node5" class="node">
<title>Smash_Smash_rec_beta_gluel</title>
<g id="a_node5"><a xlink:href="Smash.html#Smash_rec_beta_gluel" xlink:title="Smash_rec_beta_gluel">
<ellipse fill="#f070d1" stroke="#000000" cx="559" cy="-539.0909" rx="115.0796" ry="18"/>
<text text-anchor="middle" x="559" y="-535.3909" font-family="Times,serif" font-size="14.00" fill="#000000">Smash_rec_beta_gluel</text>
</a>
</g>
</g>
<!-- Smash_Smash_rec_beta_gluel_&#45;&gt;Smash_Smash_rec_beta_gluel -->
<g id="edge6" class="edge">
<title>Smash_Smash_rec_beta_gluel_&#45;&gt;Smash_Smash_rec_beta_gluel</title>
<path fill="none" stroke="#000000" d="M505.922,-620.7494C515.9092,-605.3844 530.3006,-583.2438 541.5792,-565.8922"/>
<polygon fill="#000000" stroke="#000000" points="544.6382,-567.6081 547.1536,-557.3162 538.7691,-563.7931 544.6382,-567.6081"/>
</g>
<!-- Smash_gluel_ -->
<g id="node20" class="node">
<title>Smash_gluel_</title>
<g id="a_node20"><a xlink:href="Smash.html#gluel'" xlink:title="gluel&#39;">
<ellipse fill="#f070d1" stroke="#000000" cx="309" cy="-448.0909" rx="36.2938" ry="18"/>
<text text-anchor="middle" x="309" y="-444.3909" font-family="Times,serif" font-size="14.00" fill="#000000">gluel&#39;</text>
</a>
</g>
</g>
<!-- Smash_Smash_rec_beta_gluel_&#45;&gt;Smash_gluel_ -->
<g id="edge7" class="edge">
<title>Smash_Smash_rec_beta_gluel_&#45;&gt;Smash_gluel_</title>
<path fill="none" stroke="#000000" d="M396.259,-628.9727C315.2657,-618.3324 209.3191,-598.4072 183,-565.0909 168.6737,-546.9558 170.974,-532.8267 183,-513.0909 200.816,-483.8531 236.4711,-467.198 265.3192,-458.0839"/>
<polygon fill="#000000" stroke="#000000" points="266.5996,-461.3553 275.1989,-455.1664 264.617,-454.6419 266.5996,-461.3553"/>
</g>
<!-- Smash_Smash_rec -->
<g id="node7" class="node">
<title>Smash_Smash_rec</title>
<g id="a_node7"><a xlink:href="Smash.html#Smash_rec" xlink:title="Smash_rec">
<ellipse fill="#f070d1" stroke="#000000" cx="764" cy="-448.0909" rx="61.99" ry="18"/>
<text text-anchor="middle" x="764" y="-444.3909" font-family="Times,serif" font-size="14.00" fill="#000000">Smash_rec</text>
</a>
</g>
</g>
<!-- Smash_smash_rec_beta_gluer&#45;&gt;Smash_Smash_rec -->
<g id="edge8" class="edge">
<title>Smash_smash_rec_beta_gluer&#45;&gt;Smash_Smash_rec</title>
<path fill="none" stroke="#000000" d="M998.3761,-522.9268C946.833,-506.4692 867.3332,-481.085 815.4823,-464.5291"/>
<polygon fill="#000000" stroke="#000000" points="816.4073,-461.1505 805.8165,-461.4429 814.2781,-467.8188 816.4073,-461.1505"/>
</g>
<!-- Smash_Smash_ind_beta_gluer -->
<g id="node11" class="node">
<title>Smash_Smash_ind_beta_gluer</title>
<g id="a_node11"><a xlink:href="Smash.html#Smash_ind_beta_gluer" xlink:title="Smash_ind_beta_gluer">
<ellipse fill="#f070d1" stroke="#000000" cx="1049" cy="-448.0909" rx="116.1796" ry="18"/>
<text text-anchor="middle" x="1049" y="-444.3909" font-family="Times,serif" font-size="14.00" fill="#000000">Smash_ind_beta_gluer</text>
</a>
</g>
</g>
<!-- Smash_smash_rec_beta_gluer&#45;&gt;Smash_Smash_ind_beta_gluer -->
<g id="edge9" class="edge">
<title>Smash_smash_rec_beta_gluer&#45;&gt;Smash_Smash_ind_beta_gluer</title>
<path fill="none" stroke="#000000" d="M1049,-520.6757C1049,-508.0118 1049,-490.9467 1049,-476.545"/>
<polygon fill="#000000" stroke="#000000" points="1052.5001,-476.1681 1049,-466.1682 1045.5001,-476.1682 1052.5001,-476.1681"/>
</g>
<!-- Smash_Smash_rec_beta_gluel&#45;&gt;Smash_Smash_rec -->
<g id="edge10" class="edge">
<title>Smash_Smash_rec_beta_gluel&#45;&gt;Smash_Smash_rec</title>
<path fill="none" stroke="#000000" d="M597.5589,-521.9745C632.5873,-506.4253 684.2035,-483.5128 720.6504,-467.3339"/>
<polygon fill="#000000" stroke="#000000" points="722.3153,-470.4242 730.0352,-463.168 719.4752,-464.0263 722.3153,-470.4242"/>
</g>
<!-- Smash_Smash_ind_beta_gluel -->
<g id="node12" class="node">
<title>Smash_Smash_ind_beta_gluel</title>
<g id="a_node12"><a xlink:href="Smash.html#Smash_ind_beta_gluel" xlink:title="Smash_ind_beta_gluel">
<ellipse fill="#f070d1" stroke="#000000" cx="559" cy="-448.0909" rx="114.2798" ry="18"/>
<text text-anchor="middle" x="559" y="-444.3909" font-family="Times,serif" font-size="14.00" fill="#000000">Smash_ind_beta_gluel</text>
</a>
</g>
</g>
<!-- Smash_Smash_rec_beta_gluel&#45;&gt;Smash_Smash_ind_beta_gluel -->
<g id="edge11" class="edge">
<title>Smash_Smash_rec_beta_gluel&#45;&gt;Smash_Smash_ind_beta_gluel</title>
<path fill="none" stroke="#000000" d="M559,-520.6757C559,-508.0118 559,-490.9467 559,-476.545"/>
<polygon fill="#000000" stroke="#000000" points="562.5001,-476.1681 559,-466.1682 555.5001,-476.1682 562.5001,-476.1681"/>
</g>
<!-- Smash_Smash_rec_ -->
<g id="node6" class="node">
<title>Smash_Smash_rec_</title>
<g id="a_node6"><a xlink:href="Smash.html#Smash_rec'" xlink:title="Smash_rec&#39;">
<ellipse fill="#f070d1" stroke="#000000" cx="764" cy="-539.0909" rx="64.2061" ry="18"/>
<ellipse fill="none" stroke="#000000" cx="764" cy="-539.0909" rx="68.1975" ry="22"/>
<ellipse fill="none" stroke="#000000" cx="764" cy="-539.0909" rx="72.1889" ry="26"/>
<text text-anchor="middle" x="764" y="-535.3909" font-family="Times,serif" font-size="14.00" fill="#000000">Smash_rec&#39;</text>
</a>
</g>
</g>
<!-- Smash_Smash_rec_&#45;&gt;Smash_Smash_rec -->
<g id="edge12" class="edge">
<title>Smash_Smash_rec_&#45;&gt;Smash_Smash_rec</title>
<path fill="none" stroke="#000000" d="M764,-512.7699C764,-501.3563 764,-487.9718 764,-476.3489"/>
<polygon fill="#000000" stroke="#000000" points="767.5001,-476.2771 764,-466.2772 760.5001,-476.2772 767.5001,-476.2771"/>
</g>
<!-- Smash_Smash_ind -->
<g id="node13" class="node">
<title>Smash_Smash_ind</title>
<g id="a_node13"><a xlink:href="Smash.html#Smash_ind" xlink:title="Smash_ind">
<ellipse fill="#f070d1" stroke="#000000" cx="764" cy="-366.0909" rx="61.99" ry="18"/>
<text text-anchor="middle" x="764" y="-362.3909" font-family="Times,serif" font-size="14.00" fill="#000000">Smash_ind</text>
</a>
</g>
</g>
<!-- Smash_Smash_rec&#45;&gt;Smash_Smash_ind -->
<g id="edge13" class="edge">
<title>Smash_Smash_rec&#45;&gt;Smash_Smash_ind</title>
<path fill="none" stroke="#000000" d="M764,-429.8925C764,-419.4885 764,-406.2124 764,-394.4677"/>
<polygon fill="#000000" stroke="#000000" points="767.5001,-394.2385 764,-384.2385 760.5001,-394.2385 767.5001,-394.2385"/>
</g>
<!-- Smash_Smash_ind_beta_glue -->
<g id="node8" class="node">
<title>Smash_Smash_ind_beta_glue</title>
<g id="a_node8"><a xlink:href="Smash.html#Smash_ind_beta_glue" xlink:title="Smash_ind_beta_glue">
<ellipse fill="#f070d1" stroke="#000000" cx="950" cy="-639.0909" rx="111.5945" ry="18"/>
<ellipse fill="none" stroke="#000000" cx="950" cy="-639.0909" rx="115.5875" ry="22"/>
<ellipse fill="none" stroke="#000000" cx="950" cy="-639.0909" rx="119.5805" ry="26"/>
<text text-anchor="middle" x="950" y="-635.3909" font-family="Times,serif" font-size="14.00" fill="#000000">Smash_ind_beta_glue</text>
</a>
</g>
</g>
<!-- Smash_Smash_ind_beta_gluer_ -->
<g id="node9" class="node">
<title>Smash_Smash_ind_beta_gluer_</title>
<g id="a_node9"><a xlink:href="Smash.html#Smash_ind_beta_gluer'" xlink:title="Smash_ind_beta_gluer&#39;">
<ellipse fill="#f070d1" stroke="#000000" cx="1300" cy="-539.0909" rx="118.0794" ry="18"/>
<text text-anchor="middle" x="1300" y="-535.3909" font-family="Times,serif" font-size="14.00" fill="#000000">Smash_ind_beta_gluer&#39;</text>
</a>
</g>
</g>
<!-- Smash_Smash_ind_beta_glue&#45;&gt;Smash_Smash_ind_beta_gluer_ -->
<g id="edge14" class="edge">
<title>Smash_Smash_ind_beta_glue&#45;&gt;Smash_Smash_ind_beta_gluer_</title>
<path fill="none" stroke="#000000" d="M1022.5202,-618.3708C1084.9216,-600.5419 1174.1645,-575.0439 1234.4524,-557.8188"/>
<polygon fill="#000000" stroke="#000000" points="1235.5885,-561.1343 1244.2422,-555.0217 1233.6654,-554.4037 1235.5885,-561.1343"/>
</g>
<!-- Smash_Smash_ind_beta_gluel_ -->
<g id="node10" class="node">
<title>Smash_Smash_ind_beta_gluel_</title>
<g id="a_node10"><a xlink:href="Smash.html#Smash_ind_beta_gluel'" xlink:title="Smash_ind_beta_gluel&#39;">
<ellipse fill="#f070d1" stroke="#000000" cx="309" cy="-539.0909" rx="116.9792" ry="18"/>
<text text-anchor="middle" x="309" y="-535.3909" font-family="Times,serif" font-size="14.00" fill="#000000">Smash_ind_beta_gluel&#39;</text>
</a>
</g>
</g>
<!-- Smash_Smash_ind_beta_glue&#45;&gt;Smash_Smash_ind_beta_gluel_ -->
<g id="edge15" class="edge">
<title>Smash_Smash_ind_beta_glue&#45;&gt;Smash_Smash_ind_beta_gluel_</title>
<path fill="none" stroke="#000000" d="M857.9001,-622.3919C839.0982,-619.1597 819.4301,-615.9061 801,-613.0909 638.8215,-588.3178 596.7786,-592.3533 435,-565.0909 419.1314,-562.4168 402.215,-559.1885 386.0973,-555.9298"/>
<polygon fill="#000000" stroke="#000000" points="386.6801,-552.4766 376.1815,-553.9016 385.2772,-559.3346 386.6801,-552.4766"/>
</g>
<!-- Smash_Smash_ind_beta_glue&#45;&gt;Smash_glue -->
<g id="edge16" class="edge">
<title>Smash_Smash_ind_beta_glue&#45;&gt;Smash_glue</title>
<path fill="none" stroke="#000000" d="M933.2609,-613.3384C923.542,-598.3863 911.3421,-579.6172 901.6401,-564.6911"/>
<polygon fill="#000000" stroke="#000000" points="904.3511,-562.4396 895.9666,-555.9626 898.482,-566.2546 904.3511,-562.4396"/>
</g>
<!-- Smash_Smash_ind_beta_gluer_&#45;&gt;Smash_Smash_ind_beta_gluer -->
<g id="edge17" class="edge">
<title>Smash_Smash_ind_beta_gluer_&#45;&gt;Smash_Smash_ind_beta_gluer</title>
<path fill="none" stroke="#000000" d="M1253.9627,-522.4001C1211.7701,-507.1032 1149.2215,-484.4262 1104.3275,-468.1499"/>
<polygon fill="#000000" stroke="#000000" points="1105.3396,-464.7939 1094.7454,-464.6759 1102.9537,-471.3748 1105.3396,-464.7939"/>
</g>
<!-- Smash_Smash_ind_beta_gluer_&#45;&gt;Smash_gluer_ -->
<g id="edge18" class="edge">
<title>Smash_Smash_ind_beta_gluer_&#45;&gt;Smash_gluer_</title>
<path fill="none" stroke="#000000" d="M1300,-520.6757C1300,-508.0118 1300,-490.9467 1300,-476.545"/>
<polygon fill="#000000" stroke="#000000" points="1303.5001,-476.1681 1300,-466.1682 1296.5001,-476.1682 1303.5001,-476.1681"/>
</g>
<!-- Smash_Smash_ind_beta_gluel_&#45;&gt;Smash_Smash_ind_beta_gluel -->
<g id="edge19" class="edge">
<title>Smash_Smash_ind_beta_gluel_&#45;&gt;Smash_Smash_ind_beta_gluel</title>
<path fill="none" stroke="#000000" d="M354.5632,-522.5059C396.5502,-507.2226 458.9544,-484.5075 503.7635,-468.197"/>
<polygon fill="#000000" stroke="#000000" points="505.1282,-471.425 513.3279,-464.7156 502.7339,-464.8472 505.1282,-471.425"/>
</g>
<!-- Smash_Smash_ind_beta_gluel_&#45;&gt;Smash_gluel_ -->
<g id="edge20" class="edge">
<title>Smash_Smash_ind_beta_gluel_&#45;&gt;Smash_gluel_</title>
<path fill="none" stroke="#000000" d="M309,-520.6757C309,-508.0118 309,-490.9467 309,-476.545"/>
<polygon fill="#000000" stroke="#000000" points="312.5001,-476.1681 309,-466.1682 305.5001,-476.1682 312.5001,-476.1681"/>
</g>
<!-- Smash_Smash_ind_beta_gluer&#45;&gt;Smash_Smash_ind -->
<g id="edge21" class="edge">
<title>Smash_Smash_ind_beta_gluer&#45;&gt;Smash_Smash_ind</title>
<path fill="none" stroke="#000000" d="M993.7112,-432.1833C943.0244,-417.5997 868.4181,-396.134 818.1073,-381.6586"/>
<polygon fill="#000000" stroke="#000000" points="818.9613,-378.2624 808.3833,-378.8609 817.0257,-384.9895 818.9613,-378.2624"/>
</g>
<!-- Smash_Smash_ind_beta_gluel&#45;&gt;Smash_Smash_ind -->
<g id="edge22" class="edge">
<title>Smash_Smash_ind_beta_gluel&#45;&gt;Smash_Smash_ind</title>
<path fill="none" stroke="#000000" d="M600.9795,-431.2991C635.0287,-417.6794 682.9594,-398.5072 718.0358,-384.4766"/>
<polygon fill="#000000" stroke="#000000" points="719.5812,-387.6281 727.5661,-380.6645 716.9814,-381.1288 719.5812,-387.6281"/>
</g>
<!-- Smash_gluer -->
<g id="node21" class="node">
<title>Smash_gluer</title>
<g id="a_node21"><a xlink:href="Smash.html#gluer" xlink:title="gluer">
<ellipse fill="#f070d1" stroke="#000000" cx="804" cy="-284.0909" rx="35.194" ry="18"/>
<text text-anchor="middle" x="804" y="-280.3909" font-family="Times,serif" font-size="14.00" fill="#000000">gluer</text>
</a>
</g>
</g>
<!-- Smash_Smash_ind&#45;&gt;Smash_gluer -->
<g id="edge23" class="edge">
<title>Smash_Smash_ind&#45;&gt;Smash_gluer</title>
<path fill="none" stroke="#000000" d="M772.8773,-347.8925C778.1804,-337.0211 785.0133,-323.0137 790.9251,-310.8944"/>
<polygon fill="#000000" stroke="#000000" points="794.1835,-312.1979 795.4221,-301.6757 787.8921,-309.1289 794.1835,-312.1979"/>
</g>
<!-- Smash_gluel -->
<g id="node22" class="node">
<title>Smash_gluel</title>
<g id="a_node22"><a xlink:href="Smash.html#gluel" xlink:title="gluel">
<ellipse fill="#f070d1" stroke="#000000" cx="701" cy="-284.0909" rx="33.5952" ry="18"/>
<text text-anchor="middle" x="701" y="-280.3909" font-family="Times,serif" font-size="14.00" fill="#000000">gluel</text>
</a>
</g>
</g>
<!-- Smash_Smash_ind&#45;&gt;Smash_gluel -->
<g id="edge24" class="edge">
<title>Smash_Smash_ind&#45;&gt;Smash_gluel</title>
<path fill="none" stroke="#000000" d="M750.3299,-348.2981C741.5677,-336.8933 730.0609,-321.9162 720.3649,-309.296"/>
<polygon fill="#000000" stroke="#000000" points="722.8654,-306.8058 713.9975,-301.0083 717.3146,-311.0705 722.8654,-306.8058"/>
</g>
<!-- Smash_ap_sm_right -->
<g id="node14" class="node">
<title>Smash_ap_sm_right</title>
<g id="a_node14"><a xlink:href="Smash.html#ap_sm_right" xlink:title="ap_sm_right">
<ellipse fill="#f070d1" stroke="#000000" cx="1513" cy="-539.0909" rx="68.463" ry="18"/>
<ellipse fill="none" stroke="#000000" cx="1513" cy="-539.0909" rx="72.4758" ry="22"/>
<ellipse fill="none" stroke="#000000" cx="1513" cy="-539.0909" rx="76.4887" ry="26"/>
<text text-anchor="middle" x="1513" y="-535.3909" font-family="Times,serif" font-size="14.00" fill="#000000">ap_sm_right</text>
</a>
</g>
</g>
<!-- Smash_ap_sm_right&#45;&gt;Smash_gluer_ -->
<g id="edge25" class="edge">
<title>Smash_ap_sm_right&#45;&gt;Smash_gluer_</title>
<path fill="none" stroke="#000000" d="M1465.1986,-518.6687C1426.7433,-502.2395 1373.4392,-479.4664 1337.8914,-464.2792"/>
<polygon fill="#000000" stroke="#000000" points="1338.934,-460.9187 1328.363,-460.2084 1336.1838,-467.3558 1338.934,-460.9187"/>
</g>
<!-- Smash_ap_sm_left -->
<g id="node15" class="node">
<title>Smash_ap_sm_left</title>
<g id="a_node15"><a xlink:href="Smash.html#ap_sm_left" xlink:title="ap_sm_left">
<ellipse fill="#f070d1" stroke="#000000" cx="85" cy="-539.0909" rx="61.1783" ry="18"/>
<ellipse fill="none" stroke="#000000" cx="85" cy="-539.0909" rx="65.1838" ry="22"/>
<ellipse fill="none" stroke="#000000" cx="85" cy="-539.0909" rx="69.1893" ry="26"/>
<text text-anchor="middle" x="85" y="-535.3909" font-family="Times,serif" font-size="14.00" fill="#000000">ap_sm_left</text>
</a>
</g>
</g>
<!-- Smash_ap_sm_left&#45;&gt;Smash_gluel_ -->
<g id="edge26" class="edge">
<title>Smash_ap_sm_left&#45;&gt;Smash_gluel_</title>
<path fill="none" stroke="#000000" d="M131.9577,-520.0143C173.4693,-503.1503 233.2235,-478.8751 271.582,-463.292"/>
<polygon fill="#000000" stroke="#000000" points="272.9018,-466.5337 280.8491,-459.5272 270.2671,-460.0484 272.9018,-466.5337"/>
</g>
<!-- Smash_glue_pt_right -->
<g id="node16" class="node">
<title>Smash_glue_pt_right</title>
<g id="a_node16"><a xlink:href="Smash.html#glue_pt_right" xlink:title="glue_pt_right">
<ellipse fill="#f070d1" stroke="#000000" cx="711" cy="-639.0909" rx="73.3926" ry="18"/>
<ellipse fill="none" stroke="#000000" cx="711" cy="-639.0909" rx="77.3898" ry="22"/>
<ellipse fill="none" stroke="#000000" cx="711" cy="-639.0909" rx="81.387" ry="26"/>
<text text-anchor="middle" x="711" y="-635.3909" font-family="Times,serif" font-size="14.00" fill="#000000">glue_pt_right</text>
</a>
</g>
</g>
<!-- Smash_glue_pt_right&#45;&gt;Smash_glue -->
<g id="edge27" class="edge">
<title>Smash_glue_pt_right&#45;&gt;Smash_glue</title>
<path fill="none" stroke="#000000" d="M753.3872,-616.6913C779.9709,-602.3958 814.8063,-583.2091 845,-565.0909 848.4955,-562.9934 852.1255,-560.7413 855.709,-558.4717"/>
<polygon fill="#000000" stroke="#000000" points="857.8998,-561.2241 864.4181,-552.8717 854.1139,-555.3363 857.8998,-561.2241"/>
</g>
<!-- Smash_glue_pt_left -->
<g id="node17" class="node">
<title>Smash_glue_pt_left</title>
<g id="a_node17"><a xlink:href="Smash.html#glue_pt_left" xlink:title="glue_pt_left">
<ellipse fill="#f070d1" stroke="#000000" cx="1161" cy="-639.0909" rx="65.7729" ry="18"/>
<ellipse fill="none" stroke="#000000" cx="1161" cy="-639.0909" rx="69.7808" ry="22"/>
<ellipse fill="none" stroke="#000000" cx="1161" cy="-639.0909" rx="73.7886" ry="26"/>
<text text-anchor="middle" x="1161" y="-635.3909" font-family="Times,serif" font-size="14.00" fill="#000000">glue_pt_left</text>
</a>
</g>
</g>
<!-- Smash_glue_pt_left&#45;&gt;Smash_glue -->
<g id="edge28" class="edge">
<title>Smash_glue_pt_left&#45;&gt;Smash_glue</title>
<path fill="none" stroke="#000000" d="M1105.8761,-621.5718C1096.8956,-618.7295 1087.6907,-615.8231 1079,-613.0909 1010.608,-591.5899 989.8861,-595.5794 925,-565.0909 920.9263,-563.1768 916.7795,-560.9036 912.7744,-558.5102"/>
<polygon fill="#000000" stroke="#000000" points="914.6405,-555.5492 904.316,-553.1711 910.9041,-561.4686 914.6405,-555.5492"/>
</g>
<!-- Smash_glue&#45;&gt;Smash_gluer_ -->
<g id="edge29" class="edge">
<title>Smash_glue&#45;&gt;Smash_gluer_</title>
<path fill="none" stroke="#000000" d="M903.67,-524.7217C910.123,-520.3783 917.5984,-515.9958 925,-513.0909 955.2353,-501.2243 1160.2553,-469.24 1253.7248,-455.0428"/>
<polygon fill="#000000" stroke="#000000" points="1254.3887,-458.4823 1263.7512,-453.5231 1253.3396,-451.5613 1254.3887,-458.4823"/>
</g>
<!-- Smash_glue&#45;&gt;Smash_gluel_ -->
<g id="edge30" class="edge">
<title>Smash_glue&#45;&gt;Smash_gluel_</title>
<path fill="none" stroke="#000000" d="M866.4238,-524.4722C859.9771,-520.1122 852.4817,-515.7829 845,-513.0909 672.832,-451.1419 617.4864,-489.3757 436,-466.0909 408.749,-462.5946 378.2674,-458.2876 353.9983,-454.7633"/>
<polygon fill="#000000" stroke="#000000" points="354.4056,-451.2858 344.0051,-453.3055 353.3951,-458.2125 354.4056,-451.2858"/>
</g>
<!-- Smash_gluer_&#45;&gt;Smash_gluer -->
<g id="edge31" class="edge">
<title>Smash_gluer_&#45;&gt;Smash_gluer</title>
<path fill="none" stroke="#000000" d="M1268.973,-437.832C1182.533,-409.251 939.0644,-328.7493 843.3478,-297.1011"/>
<polygon fill="#000000" stroke="#000000" points="844.3476,-293.7454 833.7544,-293.9291 842.1501,-300.3915 844.3476,-293.7454"/>
</g>
<!-- Smash_gluel_&#45;&gt;Smash_gluel -->
<g id="edge32" class="edge">
<title>Smash_gluel_&#45;&gt;Smash_gluel</title>
<path fill="none" stroke="#000000" d="M336.8774,-436.4279C406.4055,-407.3396 587.4476,-331.5975 664.9449,-299.1752"/>
<polygon fill="#000000" stroke="#000000" points="666.4291,-302.3483 674.3035,-295.2599 663.7274,-295.8906 666.4291,-302.3483"/>
</g>
<!-- Smash_auxr -->
<g id="node23" class="node">
<title>Smash_auxr</title>
<g id="a_node23"><a xlink:href="Smash.html#auxr" xlink:title="auxr">
<ellipse fill="#f070d1" stroke="#000000" cx="837" cy="-202.0909" rx="31.6951" ry="18"/>
<text text-anchor="middle" x="837" y="-198.3909" font-family="Times,serif" font-size="14.00" fill="#000000">auxr</text>
</a>
</g>
</g>
<!-- Smash_gluer&#45;&gt;Smash_auxr -->
<g id="edge33" class="edge">
<title>Smash_gluer&#45;&gt;Smash_auxr</title>
<path fill="none" stroke="#000000" d="M811.1605,-266.2981C815.5281,-255.4452 821.1976,-241.3576 826.1127,-229.1443"/>
<polygon fill="#000000" stroke="#000000" points="829.3669,-230.4326 829.8535,-219.849 822.8731,-227.8192 829.3669,-230.4326"/>
</g>
<!-- Smash_sm -->
<g id="node25" class="node">
<title>Smash_sm</title>
<g id="a_node25"><a xlink:href="Smash.html#sm" xlink:title="sm">
<ellipse fill="#f070d1" stroke="#000000" cx="760" cy="-202.0909" rx="27" ry="18"/>
<text text-anchor="middle" x="760" y="-198.3909" font-family="Times,serif" font-size="14.00" fill="#000000">sm</text>
</a>
</g>
</g>
<!-- Smash_gluer&#45;&gt;Smash_sm -->
<g id="edge34" class="edge">
<title>Smash_gluer&#45;&gt;Smash_sm</title>
<path fill="none" stroke="#000000" d="M794.6687,-266.7008C788.6783,-255.5368 780.7869,-240.8301 774.0465,-228.2684"/>
<polygon fill="#000000" stroke="#000000" points="776.9792,-226.3315 769.1669,-219.1748 770.8111,-229.6412 776.9792,-226.3315"/>
</g>
<!-- Smash_auxl -->
<g id="node24" class="node">
<title>Smash_auxl</title>
<g id="a_node24"><a xlink:href="Smash.html#auxl" xlink:title="auxl">
<ellipse fill="#f070d1" stroke="#000000" cx="684" cy="-202.0909" rx="30.5947" ry="18"/>
<text text-anchor="middle" x="684" y="-198.3909" font-family="Times,serif" font-size="14.00" fill="#000000">auxl</text>
</a>
</g>
</g>
<!-- Smash_gluel&#45;&gt;Smash_auxl -->
<g id="edge35" class="edge">
<title>Smash_gluel&#45;&gt;Smash_auxl</title>
<path fill="none" stroke="#000000" d="M697.2271,-265.8925C695.0482,-255.3824 692.2616,-241.9412 689.8085,-230.1086"/>
<polygon fill="#000000" stroke="#000000" points="693.2195,-229.3198 687.7623,-220.2385 686.3653,-230.7408 693.2195,-229.3198"/>
</g>
<!-- Smash_gluel&#45;&gt;Smash_sm -->
<g id="edge36" class="edge">
<title>Smash_gluel&#45;&gt;Smash_sm</title>
<path fill="none" stroke="#000000" d="M713.2248,-267.1005C721.642,-255.4021 732.9562,-239.6773 742.3486,-226.6234"/>
<polygon fill="#000000" stroke="#000000" points="745.194,-228.6615 748.1934,-218.5 739.5119,-224.5731 745.194,-228.6615"/>
</g>
<!-- Smash_Smash -->
<g id="node26" class="node">
<title>Smash_Smash</title>
<g id="a_node26"><a xlink:href="Smash.html#Smash" xlink:title="Smash">
<ellipse fill="#f070d1" stroke="#000000" cx="760" cy="-120.0909" rx="42.4939" ry="18"/>
<text text-anchor="middle" x="760" y="-116.3909" font-family="Times,serif" font-size="14.00" fill="#000000">Smash</text>
</a>
</g>
</g>
<!-- Smash_auxr&#45;&gt;Smash_Smash -->
<g id="edge37" class="edge">
<title>Smash_auxr&#45;&gt;Smash_Smash</title>
<path fill="none" stroke="#000000" d="M821.7873,-185.8903C810.6494,-174.0292 795.3464,-157.7326 782.7568,-144.3254"/>
<polygon fill="#000000" stroke="#000000" points="785.1066,-141.7148 775.7098,-136.8208 780.0037,-146.5065 785.1066,-141.7148"/>
</g>
<!-- Smash_auxl&#45;&gt;Smash_Smash -->
<g id="edge38" class="edge">
<title>Smash_auxl&#45;&gt;Smash_Smash</title>
<path fill="none" stroke="#000000" d="M698.6536,-186.2805C709.615,-174.4536 724.8081,-158.0611 737.3318,-144.5487"/>
<polygon fill="#000000" stroke="#000000" points="740.1142,-146.6955 744.3449,-136.9819 734.9802,-141.9371 740.1142,-146.6955"/>
</g>
<!-- Smash_sm&#45;&gt;Smash_Smash -->
<g id="edge39" class="edge">
<title>Smash_sm&#45;&gt;Smash_Smash</title>
<path fill="none" stroke="#000000" d="M760,-183.8925C760,-173.4885 760,-160.2124 760,-148.4677"/>
<polygon fill="#000000" stroke="#000000" points="763.5001,-148.2385 760,-138.2385 756.5001,-148.2385 763.5001,-148.2385"/>
</g>
<!-- Smash_sum_to_bool -->
<g id="node27" class="node">
<title>Smash_sum_to_bool</title>
<g id="a_node27"><a xlink:href="Smash.html#sum_to_bool" xlink:title="sum_to_bool">
<ellipse fill="#f070d1" stroke="#000000" cx="681" cy="-39.0909" rx="68.7879" ry="18"/>
<text text-anchor="middle" x="681" y="-35.3909" font-family="Times,serif" font-size="14.00" fill="#000000">sum_to_bool</text>
</a>
</g>
</g>
<!-- Smash_Smash&#45;&gt;Smash_sum_to_bool -->
<g id="edge40" class="edge">
<title>Smash_Smash&#45;&gt;Smash_sum_to_bool</title>
<path fill="none" stroke="#000000" d="M743.6311,-103.3077C732.5239,-91.9192 717.649,-76.6677 705.1827,-63.8858"/>
<polygon fill="#000000" stroke="#000000" points="707.6555,-61.4084 698.1677,-56.6932 702.6442,-66.2959 707.6555,-61.4084"/>
</g>
<!-- Smash_sum_to_prod -->
<g id="node28" class="node">
<title>Smash_sum_to_prod</title>
<g id="a_node28"><a xlink:href="Smash.html#sum_to_prod" xlink:title="sum_to_prod">
<ellipse fill="#f070d1" stroke="#000000" cx="839" cy="-39.0909" rx="70.6878" ry="18"/>
<text text-anchor="middle" x="839" y="-35.3909" font-family="Times,serif" font-size="14.00" fill="#000000">sum_to_prod</text>
</a>
</g>
</g>
<!-- Smash_Smash&#45;&gt;Smash_sum_to_prod -->
<g id="edge41" class="edge">
<title>Smash_Smash&#45;&gt;Smash_sum_to_prod</title>
<path fill="none" stroke="#000000" d="M776.3689,-103.3077C787.4761,-91.9192 802.351,-76.6677 814.8173,-63.8858"/>
<polygon fill="#000000" stroke="#000000" points="817.3558,-66.2959 821.8323,-56.6932 812.3445,-61.4084 817.3558,-66.2959"/>
</g>
</g>
</svg>
