<?xml version="1.0" encoding="UTF-8" standalone="no"?>
<!DOCTYPE svg PUBLIC "-//W3C//DTD SVG 1.1//EN"
 "http://www.w3.org/Graphics/SVG/1.1/DTD/svg11.dtd">
<!-- Generated by graphviz version 2.40.1 (20161225.0304)
 -->
<!-- Title: HoTT_Algebra_AbGroups_Abelianization Pages: 1 -->
<svg width="2334pt" height="1171pt"
 viewBox="0.00 0.00 2334.00 1171.00" xmlns="http://www.w3.org/2000/svg" xmlns:xlink="http://www.w3.org/1999/xlink">
<g id="graph0" class="graph" transform="scale(1 1) rotate(0) translate(4 1167)">
<title>HoTT_Algebra_AbGroups_Abelianization</title>
<polygon fill="#ffffff" stroke="transparent" points="-4,4 -4,-1167 2330,-1167 2330,4 -4,4"/>
<g id="clust1" class="cluster">
<title>cluster_Abelianization</title>
<polygon fill="#ffffc3" stroke="#000000" points="21.9693,-8 21.9693,-1155 2304.0307,-1155 2304.0307,-8 21.9693,-8"/>
<text text-anchor="middle" x="81.4693" y="-1139.8" font-family="Times,serif" font-size="14.00" fill="#000000">Abelianization</text>
</g>
<!-- Abelianization_isequiv_abgroup_abelianization -->
<g id="node1" class="node">
<title>Abelianization_isequiv_abgroup_abelianization</title>
<g id="a_node1"><a xlink:href="Abelianization.html#isequiv_abgroup_abelianization" xlink:title="isequiv_abgroup_abelianization">
<ellipse fill="#f070d1" stroke="#000000" cx="1559.9386" cy="-1098" rx="157.0827" ry="18"/>
<ellipse fill="none" stroke="#000000" cx="1559.9386" cy="-1098" rx="161.0775" ry="22"/>
<ellipse fill="none" stroke="#000000" cx="1559.9386" cy="-1098" rx="165.0724" ry="26"/>
<text text-anchor="middle" x="1559.9386" y="-1094.3" font-family="Times,serif" font-size="14.00" fill="#000000">isequiv_abgroup_abelianization</text>
</a>
</g>
</g>
<!-- Abelianization_isabelianization_identity -->
<g id="node2" class="node">
<title>Abelianization_isabelianization_identity</title>
<g id="a_node2"><a xlink:href="Abelianization.html#isabelianization_identity" xlink:title="isabelianization_identity">
<ellipse fill="#f070d1" stroke="#000000" cx="1941.9386" cy="-946" rx="124.2781" ry="18"/>
<text text-anchor="middle" x="1941.9386" y="-942.3" font-family="Times,serif" font-size="14.00" fill="#000000">isabelianization_identity</text>
</a>
</g>
</g>
<!-- Abelianization_isequiv_abgroup_abelianization&#45;&gt;Abelianization_isabelianization_identity -->
<g id="edge1" class="edge">
<title>Abelianization_isequiv_abgroup_abelianization&#45;&gt;Abelianization_isabelianization_identity</title>
<path fill="none" stroke="#000000" d="M1620.89,-1073.7471C1695.2261,-1044.1683 1819.6121,-994.6744 1889.7376,-966.7711"/>
<polygon fill="#000000" stroke="#000000" points="1891.2642,-969.9306 1899.2616,-962.9814 1888.6761,-963.4266 1891.2642,-969.9306"/>
</g>
<!-- Abelianization_homotopic_isabelianization -->
<g id="node4" class="node">
<title>Abelianization_homotopic_isabelianization</title>
<g id="a_node4"><a xlink:href="Abelianization.html#homotopic_isabelianization" xlink:title="homotopic_isabelianization">
<ellipse fill="#f070d1" stroke="#000000" cx="1287.9386" cy="-1018" rx="137.2758" ry="18"/>
<text text-anchor="middle" x="1287.9386" y="-1014.3" font-family="Times,serif" font-size="14.00" fill="#000000">homotopic_isabelianization</text>
</a>
</g>
</g>
<!-- Abelianization_isequiv_abgroup_abelianization&#45;&gt;Abelianization_homotopic_isabelianization -->
<g id="edge2" class="edge">
<title>Abelianization_isequiv_abgroup_abelianization&#45;&gt;Abelianization_homotopic_isabelianization</title>
<path fill="none" stroke="#000000" d="M1481.6299,-1074.968C1441.2909,-1063.1036 1392.6397,-1048.7944 1354.1881,-1037.4851"/>
<polygon fill="#000000" stroke="#000000" points="1354.7186,-1033.993 1344.1374,-1034.529 1352.7434,-1040.7086 1354.7186,-1033.993"/>
</g>
<!-- Abelianization_IsAbelianization -->
<g id="node35" class="node">
<title>Abelianization_IsAbelianization</title>
<g id="a_node35"><a xlink:href="Abelianization.html#IsAbelianization" xlink:title="IsAbelianization">
<ellipse fill="#f070d1" stroke="#000000" cx="1888.9386" cy="-786" rx="85.5853" ry="18"/>
<text text-anchor="middle" x="1888.9386" y="-782.3" font-family="Times,serif" font-size="14.00" fill="#000000">IsAbelianization</text>
</a>
</g>
</g>
<!-- Abelianization_isabelianization_identity&#45;&gt;Abelianization_IsAbelianization -->
<g id="edge3" class="edge">
<title>Abelianization_isabelianization_identity&#45;&gt;Abelianization_IsAbelianization</title>
<path fill="none" stroke="#000000" d="M1935.9619,-927.957C1926.7768,-900.2286 1909.1162,-846.9135 1898.2461,-814.0982"/>
<polygon fill="#000000" stroke="#000000" points="1901.4418,-812.6147 1894.9748,-804.2226 1894.7969,-814.8159 1901.4418,-812.6147"/>
</g>
<!-- Abelianization_issurj_isabelianization -->
<g id="node3" class="node">
<title>Abelianization_issurj_isabelianization</title>
<g id="a_node3"><a xlink:href="Abelianization.html#issurj_isabelianization" xlink:title="issurj_isabelianization">
<ellipse fill="#f070d1" stroke="#000000" cx="565.9386" cy="-1098" rx="114.287" ry="18"/>
<ellipse fill="none" stroke="#000000" cx="565.9386" cy="-1098" rx="118.2834" ry="22"/>
<ellipse fill="none" stroke="#000000" cx="565.9386" cy="-1098" rx="122.2798" ry="26"/>
<text text-anchor="middle" x="565.9386" y="-1094.3" font-family="Times,serif" font-size="14.00" fill="#000000">issurj_isabelianization</text>
</a>
</g>
</g>
<!-- Abelianization_issurj_isabelianization&#45;&gt;Abelianization_homotopic_isabelianization -->
<g id="edge4" class="edge">
<title>Abelianization_issurj_isabelianization&#45;&gt;Abelianization_homotopic_isabelianization</title>
<path fill="none" stroke="#000000" d="M674.811,-1085.9366C808.9395,-1071.0747 1035.8169,-1045.9359 1172.7726,-1030.7608"/>
<polygon fill="#000000" stroke="#000000" points="1173.329,-1034.2206 1182.8827,-1029.6405 1172.5581,-1027.2632 1173.329,-1034.2206"/>
</g>
<!-- Abelianization_isabelianization_abel -->
<g id="node6" class="node">
<title>Abelianization_isabelianization_abel</title>
<g id="a_node6"><a xlink:href="Abelianization.html#isabelianization_abel" xlink:title="isabelianization_abel">
<ellipse fill="#f070d1" stroke="#000000" cx="565.9386" cy="-1018" rx="107.781" ry="18"/>
<text text-anchor="middle" x="565.9386" y="-1014.3" font-family="Times,serif" font-size="14.00" fill="#000000">isabelianization_abel</text>
</a>
</g>
</g>
<!-- Abelianization_issurj_isabelianization&#45;&gt;Abelianization_isabelianization_abel -->
<g id="edge5" class="edge">
<title>Abelianization_issurj_isabelianization&#45;&gt;Abelianization_isabelianization_abel</title>
<path fill="none" stroke="#000000" d="M565.9386,-1071.805C565.9386,-1063.6026 565.9386,-1054.5174 565.9386,-1046.1839"/>
<polygon fill="#000000" stroke="#000000" points="569.4387,-1046.1532 565.9386,-1036.1532 562.4387,-1046.1533 569.4387,-1046.1532"/>
</g>
<!-- Abelianization_issurj_ab -->
<g id="node9" class="node">
<title>Abelianization_issurj_ab</title>
<g id="a_node9"><a xlink:href="Abelianization.html#issurj_ab" xlink:title="issurj_ab">
<ellipse fill="#f070d1" stroke="#000000" cx="189.9386" cy="-786" rx="52.7911" ry="18"/>
<text text-anchor="middle" x="189.9386" y="-782.3" font-family="Times,serif" font-size="14.00" fill="#000000">issurj_ab</text>
</a>
</g>
</g>
<!-- Abelianization_issurj_isabelianization&#45;&gt;Abelianization_issurj_ab -->
<g id="edge6" class="edge">
<title>Abelianization_issurj_isabelianization&#45;&gt;Abelianization_issurj_ab</title>
<path fill="none" stroke="#000000" d="M513.9908,-1074.4094C492.9999,-1063.8891 469.0362,-1050.5768 448.9386,-1036 351.3795,-965.2403 253.8314,-859.2229 211.6381,-811.2197"/>
<polygon fill="#000000" stroke="#000000" points="214.0978,-808.7155 204.8817,-803.4891 208.8271,-813.322 214.0978,-808.7155"/>
</g>
<!-- Abelianization_groupiso_isabelianization -->
<g id="node5" class="node">
<title>Abelianization_groupiso_isabelianization</title>
<g id="a_node5"><a xlink:href="Abelianization.html#groupiso_isabelianization" xlink:title="groupiso_isabelianization">
<ellipse fill="#f070d1" stroke="#000000" cx="1196.9386" cy="-946" rx="128.8774" ry="18"/>
<text text-anchor="middle" x="1196.9386" y="-942.3" font-family="Times,serif" font-size="14.00" fill="#000000">groupiso_isabelianization</text>
</a>
</g>
</g>
<!-- Abelianization_homotopic_isabelianization&#45;&gt;Abelianization_groupiso_isabelianization -->
<g id="edge7" class="edge">
<title>Abelianization_homotopic_isabelianization&#45;&gt;Abelianization_groupiso_isabelianization</title>
<path fill="none" stroke="#000000" d="M1265.4442,-1000.2022C1253.9597,-991.1156 1239.8216,-979.9294 1227.3775,-970.0836"/>
<polygon fill="#000000" stroke="#000000" points="1229.5035,-967.3026 1219.4896,-963.8425 1225.1601,-972.7922 1229.5035,-967.3026"/>
</g>
<!-- Abelianization_isequiv0gpd_isabel -->
<g id="node34" class="node">
<title>Abelianization_isequiv0gpd_isabel</title>
<g id="a_node34"><a xlink:href="Abelianization.html#isequiv0gpd_isabel" xlink:title="isequiv0gpd_isabel">
<ellipse fill="#f070d1" stroke="#000000" cx="1595.9386" cy="-866" rx="99.3824" ry="18"/>
<text text-anchor="middle" x="1595.9386" y="-862.3" font-family="Times,serif" font-size="14.00" fill="#000000">isequiv0gpd_isabel</text>
</a>
</g>
</g>
<!-- Abelianization_groupiso_isabelianization&#45;&gt;Abelianization_isequiv0gpd_isabel -->
<g id="edge8" class="edge">
<title>Abelianization_groupiso_isabelianization&#45;&gt;Abelianization_isequiv0gpd_isabel</title>
<path fill="none" stroke="#000000" d="M1270.5863,-931.2335C1341.2329,-917.0688 1447.4674,-895.7687 1519.1469,-881.3968"/>
<polygon fill="#000000" stroke="#000000" points="1519.9078,-884.814 1529.0245,-879.4164 1518.5316,-877.9506 1519.9078,-884.814"/>
</g>
<!-- Abelianization_abel_unit -->
<g id="node7" class="node">
<title>Abelianization_abel_unit</title>
<g id="a_node7"><a xlink:href="Abelianization.html#abel_unit" xlink:title="abel_unit">
<ellipse fill="#f070d1" stroke="#000000" cx="565.9386" cy="-946" rx="53.8905" ry="18"/>
<text text-anchor="middle" x="565.9386" y="-942.3" font-family="Times,serif" font-size="14.00" fill="#000000">abel_unit</text>
</a>
</g>
</g>
<!-- Abelianization_isabelianization_abel&#45;&gt;Abelianization_abel_unit -->
<g id="edge9" class="edge">
<title>Abelianization_isabelianization_abel&#45;&gt;Abelianization_abel_unit</title>
<path fill="none" stroke="#000000" d="M565.9386,-999.8314C565.9386,-992.131 565.9386,-982.9743 565.9386,-974.4166"/>
<polygon fill="#000000" stroke="#000000" points="569.4387,-974.4132 565.9386,-964.4133 562.4387,-974.4133 569.4387,-974.4132"/>
</g>
<!-- Abelianization_isabelianization_abel&#45;&gt;Abelianization_IsAbelianization -->
<g id="edge10" class="edge">
<title>Abelianization_isabelianization_abel&#45;&gt;Abelianization_IsAbelianization</title>
<path fill="none" stroke="#000000" d="M632.5188,-1003.7964C783.9445,-971.7894 1165.9712,-892.7141 1487.9386,-840 1596.4674,-822.2311 1722.2232,-806 1803.5483,-796.0711"/>
<polygon fill="#000000" stroke="#000000" points="1804.2303,-799.514 1813.7344,-794.8321 1803.385,-792.5653 1804.2303,-799.514"/>
</g>
<!-- Abelianization_abel -->
<g id="node8" class="node">
<title>Abelianization_abel</title>
<g id="a_node8"><a xlink:href="Abelianization.html#abel" xlink:title="abel">
<ellipse fill="#f070d1" stroke="#000000" cx="570.9386" cy="-866" rx="30.5947" ry="18"/>
<text text-anchor="middle" x="570.9386" y="-862.3" font-family="Times,serif" font-size="14.00" fill="#000000">abel</text>
</a>
</g>
</g>
<!-- Abelianization_abel_unit&#45;&gt;Abelianization_abel -->
<g id="edge11" class="edge">
<title>Abelianization_abel_unit&#45;&gt;Abelianization_abel</title>
<path fill="none" stroke="#000000" d="M567.0732,-927.8468C567.6933,-917.9251 568.4751,-905.4167 569.173,-894.2492"/>
<polygon fill="#000000" stroke="#000000" points="572.6778,-894.2803 569.8085,-884.0814 565.6915,-893.8436 572.6778,-894.2803"/>
</g>
<!-- Abelianization_issemigrouppreserving_ab -->
<g id="node10" class="node">
<title>Abelianization_issemigrouppreserving_ab</title>
<g id="a_node10"><a xlink:href="Abelianization.html#issemigrouppreserving_ab" xlink:title="issemigrouppreserving_ab">
<ellipse fill="#f070d1" stroke="#000000" cx="752.9386" cy="-786" rx="133.7763" ry="18"/>
<text text-anchor="middle" x="752.9386" y="-782.3" font-family="Times,serif" font-size="14.00" fill="#000000">issemigrouppreserving_ab</text>
</a>
</g>
</g>
<!-- Abelianization_abel_unit&#45;&gt;Abelianization_issemigrouppreserving_ab -->
<g id="edge12" class="edge">
<title>Abelianization_abel_unit&#45;&gt;Abelianization_issemigrouppreserving_ab</title>
<path fill="none" stroke="#000000" d="M551.0525,-928.5011C533.759,-905.9543 510.1016,-866.513 530.9386,-840 545.5853,-821.3635 594.9428,-808.3585 643.4086,-799.7888"/>
<polygon fill="#000000" stroke="#000000" points="644.1341,-803.2156 653.4012,-798.0803 642.9543,-796.3157 644.1341,-803.2156"/>
</g>
<!-- Abelianization_isgroup_abel -->
<g id="node12" class="node">
<title>Abelianization_isgroup_abel</title>
<g id="a_node12"><a xlink:href="Abelianization.html#isgroup_abel" xlink:title="isgroup_abel">
<ellipse fill="#f070d1" stroke="#000000" cx="1361.9386" cy="-786" rx="70.3881" ry="18"/>
<text text-anchor="middle" x="1361.9386" y="-782.3" font-family="Times,serif" font-size="14.00" fill="#000000">isgroup_abel</text>
</a>
</g>
</g>
<!-- Abelianization_abel&#45;&gt;Abelianization_isgroup_abel -->
<g id="edge13" class="edge">
<title>Abelianization_abel&#45;&gt;Abelianization_isgroup_abel</title>
<path fill="none" stroke="#000000" d="M601.4621,-862.9129C715.3306,-851.3965 1117.4238,-810.7297 1286.3329,-793.6466"/>
<polygon fill="#000000" stroke="#000000" points="1286.7912,-797.1182 1296.3882,-792.6296 1286.0867,-790.1537 1286.7912,-797.1182"/>
</g>
<!-- Abelianization_Abel_ind_hprop -->
<g id="node25" class="node">
<title>Abelianization_Abel_ind_hprop</title>
<g id="a_node25"><a xlink:href="Abelianization.html#Abel_ind_hprop" xlink:title="Abel_ind_hprop">
<ellipse fill="#f070d1" stroke="#000000" cx="1391.9386" cy="-402" rx="83.3857" ry="18"/>
<text text-anchor="middle" x="1391.9386" y="-398.3" font-family="Times,serif" font-size="14.00" fill="#000000">Abel_ind_hprop</text>
</a>
</g>
</g>
<!-- Abelianization_issurj_ab&#45;&gt;Abelianization_Abel_ind_hprop -->
<g id="edge14" class="edge">
<title>Abelianization_issurj_ab&#45;&gt;Abelianization_Abel_ind_hprop</title>
<path fill="none" stroke="#000000" d="M194.3234,-767.9193C206.2635,-722.9254 243.8911,-605.695 322.9386,-552 481.5167,-444.2818 1069.353,-412.9334 1299.0844,-404.6862"/>
<polygon fill="#000000" stroke="#000000" points="1299.2196,-408.1837 1309.0901,-404.3336 1298.9729,-401.1881 1299.2196,-408.1837"/>
</g>
<!-- Abelianization_abel_sgop -->
<g id="node23" class="node">
<title>Abelianization_abel_sgop</title>
<g id="a_node23"><a xlink:href="Abelianization.html#abel_sgop" xlink:title="abel_sgop">
<ellipse fill="#f070d1" stroke="#000000" cx="1109.9386" cy="-490" rx="57.3905" ry="18"/>
<text text-anchor="middle" x="1109.9386" y="-486.3" font-family="Times,serif" font-size="14.00" fill="#000000">abel_sgop</text>
</a>
</g>
</g>
<!-- Abelianization_issemigrouppreserving_ab&#45;&gt;Abelianization_abel_sgop -->
<g id="edge15" class="edge">
<title>Abelianization_issemigrouppreserving_ab&#45;&gt;Abelianization_abel_sgop</title>
<path fill="none" stroke="#000000" d="M644.8229,-775.354C557.7358,-765.6946 442.9774,-750.205 399.9386,-732 341.0617,-707.0957 278.3982,-682.1577 304.9386,-624 325.2129,-579.5732 342.9612,-571.0217 387.9386,-552 447.4175,-526.8453 875.9426,-502.1574 1043.2609,-493.3693"/>
<polygon fill="#000000" stroke="#000000" points="1043.6175,-496.8555 1053.4212,-492.8384 1043.2521,-489.8651 1043.6175,-496.8555"/>
</g>
<!-- Abelianization_isabgroup_abel -->
<g id="node11" class="node">
<title>Abelianization_isabgroup_abel</title>
<g id="a_node11"><a xlink:href="Abelianization.html#isabgroup_abel" xlink:title="isabgroup_abel">
<ellipse fill="#f070d1" stroke="#000000" cx="949.9386" cy="-866" rx="81.4644" ry="18"/>
<ellipse fill="none" stroke="#000000" cx="949.9386" cy="-866" rx="85.4753" ry="22"/>
<ellipse fill="none" stroke="#000000" cx="949.9386" cy="-866" rx="89.4862" ry="26"/>
<text text-anchor="middle" x="949.9386" y="-862.3" font-family="Times,serif" font-size="14.00" fill="#000000">isabgroup_abel</text>
</a>
</g>
</g>
<!-- Abelianization_isabgroup_abel&#45;&gt;Abelianization_isgroup_abel -->
<g id="edge16" class="edge">
<title>Abelianization_isabgroup_abel&#45;&gt;Abelianization_isgroup_abel</title>
<path fill="none" stroke="#000000" d="M1024.5487,-851.5126C1101.8424,-836.5041 1221.4916,-813.2713 1295.5886,-798.8835"/>
<polygon fill="#000000" stroke="#000000" points="1296.583,-802.2559 1305.7325,-796.9138 1295.2487,-795.3842 1296.583,-802.2559"/>
</g>
<!-- Abelianization_abel_rightinverse -->
<g id="node13" class="node">
<title>Abelianization_abel_rightinverse</title>
<g id="a_node13"><a xlink:href="Abelianization.html#abel_rightinverse" xlink:title="abel_rightinverse">
<ellipse fill="#f070d1" stroke="#000000" cx="1001.9386" cy="-714" rx="92.0841" ry="18"/>
<text text-anchor="middle" x="1001.9386" y="-710.3" font-family="Times,serif" font-size="14.00" fill="#000000">abel_rightinverse</text>
</a>
</g>
</g>
<!-- Abelianization_isgroup_abel&#45;&gt;Abelianization_abel_rightinverse -->
<g id="edge17" class="edge">
<title>Abelianization_isgroup_abel&#45;&gt;Abelianization_abel_rightinverse</title>
<path fill="none" stroke="#000000" d="M1306.4776,-774.9078C1244.8178,-762.5758 1144.9161,-742.5955 1076.4615,-728.9046"/>
<polygon fill="#000000" stroke="#000000" points="1077.0904,-725.4611 1066.5981,-726.9319 1075.7175,-732.3252 1077.0904,-725.4611"/>
</g>
<!-- Abelianization_abel_leftinverse -->
<g id="node14" class="node">
<title>Abelianization_abel_leftinverse</title>
<g id="a_node14"><a xlink:href="Abelianization.html#abel_leftinverse" xlink:title="abel_leftinverse">
<ellipse fill="#f070d1" stroke="#000000" cx="1537.9386" cy="-714" rx="85.2851" ry="18"/>
<text text-anchor="middle" x="1537.9386" y="-710.3" font-family="Times,serif" font-size="14.00" fill="#000000">abel_leftinverse</text>
</a>
</g>
</g>
<!-- Abelianization_isgroup_abel&#45;&gt;Abelianization_abel_leftinverse -->
<g id="edge18" class="edge">
<title>Abelianization_isgroup_abel&#45;&gt;Abelianization_abel_leftinverse</title>
<path fill="none" stroke="#000000" d="M1399.2637,-770.7307C1425.5541,-759.9755 1460.9983,-745.4756 1489.4718,-733.8273"/>
<polygon fill="#000000" stroke="#000000" points="1490.9073,-737.0217 1498.8375,-729.9959 1488.2568,-730.5429 1490.9073,-737.0217"/>
</g>
<!-- Abelianization_ismonoid_abel -->
<g id="node17" class="node">
<title>Abelianization_ismonoid_abel</title>
<g id="a_node17"><a xlink:href="Abelianization.html#ismonoid_abel" xlink:title="ismonoid_abel">
<ellipse fill="#f070d1" stroke="#000000" cx="485.9386" cy="-714" rx="77.1866" ry="18"/>
<text text-anchor="middle" x="485.9386" y="-710.3" font-family="Times,serif" font-size="14.00" fill="#000000">ismonoid_abel</text>
</a>
</g>
</g>
<!-- Abelianization_isgroup_abel&#45;&gt;Abelianization_ismonoid_abel -->
<g id="edge19" class="edge">
<title>Abelianization_isgroup_abel&#45;&gt;Abelianization_ismonoid_abel</title>
<path fill="none" stroke="#000000" d="M1295.0165,-780.4996C1137.1783,-767.5266 741.9838,-735.0448 569.1029,-720.8354"/>
<polygon fill="#000000" stroke="#000000" points="569.2928,-717.3393 559.0397,-720.0083 568.7194,-724.3158 569.2928,-717.3393"/>
</g>
<!-- Abelianization_abel_negate -->
<g id="node15" class="node">
<title>Abelianization_abel_negate</title>
<g id="a_node15"><a xlink:href="Abelianization.html#abel_negate" xlink:title="abel_negate">
<ellipse fill="#f070d1" stroke="#000000" cx="2097.9386" cy="-642" rx="66.8882" ry="18"/>
<text text-anchor="middle" x="2097.9386" y="-638.3" font-family="Times,serif" font-size="14.00" fill="#000000">abel_negate</text>
</a>
</g>
</g>
<!-- Abelianization_abel_rightinverse&#45;&gt;Abelianization_abel_negate -->
<g id="edge20" class="edge">
<title>Abelianization_abel_rightinverse&#45;&gt;Abelianization_abel_negate</title>
<path fill="none" stroke="#000000" d="M1089.7762,-708.2296C1299.3702,-694.4607 1825.9082,-659.8706 2022.4206,-646.961"/>
<polygon fill="#000000" stroke="#000000" points="2022.8993,-650.4372 2032.6484,-646.2891 2022.4404,-643.4523 2022.8993,-650.4372"/>
</g>
<!-- Abelianization_abel_mon_unit -->
<g id="node20" class="node">
<title>Abelianization_abel_mon_unit</title>
<g id="a_node20"><a xlink:href="Abelianization.html#abel_mon_unit" xlink:title="abel_mon_unit">
<ellipse fill="#f070d1" stroke="#000000" cx="1487.9386" cy="-570" rx="78.7863" ry="18"/>
<text text-anchor="middle" x="1487.9386" y="-566.3" font-family="Times,serif" font-size="14.00" fill="#000000">abel_mon_unit</text>
</a>
</g>
</g>
<!-- Abelianization_abel_rightinverse&#45;&gt;Abelianization_abel_mon_unit -->
<g id="edge21" class="edge">
<title>Abelianization_abel_rightinverse&#45;&gt;Abelianization_abel_mon_unit</title>
<path fill="none" stroke="#000000" d="M1093.9517,-712.5526C1255.816,-709.0447 1577.7055,-697.3975 1611.9386,-660 1622.742,-648.198 1620.7075,-637.3831 1611.9386,-624 1599.6073,-605.18 1579.1338,-592.8832 1558.3414,-584.8631"/>
<polygon fill="#000000" stroke="#000000" points="1559.3885,-581.5208 1548.7938,-581.471 1557.045,-588.1169 1559.3885,-581.5208"/>
</g>
<!-- Abelianization_abel_leftinverse&#45;&gt;Abelianization_abel_negate -->
<g id="edge22" class="edge">
<title>Abelianization_abel_leftinverse&#45;&gt;Abelianization_abel_negate</title>
<path fill="none" stroke="#000000" d="M1610.8616,-704.6242C1719.0425,-690.7152 1920.7244,-664.7847 2027.4705,-651.0602"/>
<polygon fill="#000000" stroke="#000000" points="2028.0261,-654.5177 2037.4981,-649.7709 2027.1334,-647.5748 2028.0261,-654.5177"/>
</g>
<!-- Abelianization_abel_leftinverse&#45;&gt;Abelianization_abel_mon_unit -->
<g id="edge23" class="edge">
<title>Abelianization_abel_leftinverse&#45;&gt;Abelianization_abel_mon_unit</title>
<path fill="none" stroke="#000000" d="M1620.0533,-709.0605C1691.7377,-702.8306 1787.9599,-689.1656 1811.9386,-660 1822.0998,-647.6408 1822.2806,-636.2083 1811.9386,-624 1796.4172,-605.6776 1661.0605,-588.0891 1570.2795,-578.2005"/>
<polygon fill="#000000" stroke="#000000" points="1570.5842,-574.7131 1560.2667,-577.1212 1569.834,-581.6728 1570.5842,-574.7131"/>
</g>
<!-- Abelianization_abel_commutative -->
<g id="node16" class="node">
<title>Abelianization_abel_commutative</title>
<g id="a_node16"><a xlink:href="Abelianization.html#abel_commutative" xlink:title="abel_commutative">
<ellipse fill="#f070d1" stroke="#000000" cx="2017.9386" cy="-570" rx="96.3833" ry="18"/>
<text text-anchor="middle" x="2017.9386" y="-566.3" font-family="Times,serif" font-size="14.00" fill="#000000">abel_commutative</text>
</a>
</g>
</g>
<!-- Abelianization_abel_negate&#45;&gt;Abelianization_abel_commutative -->
<g id="edge24" class="edge">
<title>Abelianization_abel_negate&#45;&gt;Abelianization_abel_commutative</title>
<path fill="none" stroke="#000000" d="M2078.5728,-624.5708C2068.6003,-615.5955 2056.2715,-604.4996 2045.3405,-594.6617"/>
<polygon fill="#000000" stroke="#000000" points="2047.4562,-591.857 2037.6818,-587.7689 2042.7734,-597.0601 2047.4562,-591.857"/>
</g>
<!-- Abelianization_abel_commutative&#45;&gt;Abelianization_abel_sgop -->
<g id="edge25" class="edge">
<title>Abelianization_abel_commutative&#45;&gt;Abelianization_abel_sgop</title>
<path fill="none" stroke="#000000" d="M1930.8757,-562.3293C1749.7557,-546.3715 1335.9168,-509.91 1175.3282,-495.7612"/>
<polygon fill="#000000" stroke="#000000" points="1175.3905,-492.2532 1165.1219,-494.862 1174.7761,-499.2262 1175.3905,-492.2532"/>
</g>
<!-- Abelianization_abel_rightidentity -->
<g id="node18" class="node">
<title>Abelianization_abel_rightidentity</title>
<g id="a_node18"><a xlink:href="Abelianization.html#abel_rightidentity" xlink:title="abel_rightidentity">
<ellipse fill="#f070d1" stroke="#000000" cx="968.9386" cy="-642" rx="94.4839" ry="18"/>
<text text-anchor="middle" x="968.9386" y="-638.3" font-family="Times,serif" font-size="14.00" fill="#000000">abel_rightidentity</text>
</a>
</g>
</g>
<!-- Abelianization_ismonoid_abel&#45;&gt;Abelianization_abel_rightidentity -->
<g id="edge26" class="edge">
<title>Abelianization_ismonoid_abel&#45;&gt;Abelianization_abel_rightidentity</title>
<path fill="none" stroke="#000000" d="M551.0781,-704.2898C637.2882,-691.4386 789.4266,-668.7595 884.4082,-654.6008"/>
<polygon fill="#000000" stroke="#000000" points="885.1826,-658.0241 894.5572,-653.0879 884.1505,-651.1006 885.1826,-658.0241"/>
</g>
<!-- Abelianization_abel_leftidentity -->
<g id="node19" class="node">
<title>Abelianization_abel_leftidentity</title>
<g id="a_node19"><a xlink:href="Abelianization.html#abel_leftidentity" xlink:title="abel_leftidentity">
<ellipse fill="#f070d1" stroke="#000000" cx="1515.9386" cy="-642" rx="87.1846" ry="18"/>
<text text-anchor="middle" x="1515.9386" y="-638.3" font-family="Times,serif" font-size="14.00" fill="#000000">abel_leftidentity</text>
</a>
</g>
</g>
<!-- Abelianization_ismonoid_abel&#45;&gt;Abelianization_abel_leftidentity -->
<g id="edge27" class="edge">
<title>Abelianization_ismonoid_abel&#45;&gt;Abelianization_abel_leftidentity</title>
<path fill="none" stroke="#000000" d="M560.0137,-708.8219C743.953,-695.964 1221.2342,-662.6007 1423.3451,-648.4726"/>
<polygon fill="#000000" stroke="#000000" points="1423.6115,-651.9626 1433.3431,-647.7737 1423.1233,-644.9796 1423.6115,-651.9626"/>
</g>
<!-- Abelianization_abel_issemigroup -->
<g id="node21" class="node">
<title>Abelianization_abel_issemigroup</title>
<g id="a_node21"><a xlink:href="Abelianization.html#abel_issemigroup" xlink:title="abel_issemigroup">
<ellipse fill="#f070d1" stroke="#000000" cx="405.9386" cy="-642" rx="92.0841" ry="18"/>
<text text-anchor="middle" x="405.9386" y="-638.3" font-family="Times,serif" font-size="14.00" fill="#000000">abel_issemigroup</text>
</a>
</g>
</g>
<!-- Abelianization_ismonoid_abel&#45;&gt;Abelianization_abel_issemigroup -->
<g id="edge28" class="edge">
<title>Abelianization_ismonoid_abel&#45;&gt;Abelianization_abel_issemigroup</title>
<path fill="none" stroke="#000000" d="M466.5728,-696.5708C456.6003,-687.5955 444.2715,-676.4996 433.3405,-666.6617"/>
<polygon fill="#000000" stroke="#000000" points="435.4562,-663.857 425.6818,-659.7689 430.7734,-669.0601 435.4562,-663.857"/>
</g>
<!-- Abelianization_abel_rightidentity&#45;&gt;Abelianization_abel_mon_unit -->
<g id="edge29" class="edge">
<title>Abelianization_abel_rightidentity&#45;&gt;Abelianization_abel_mon_unit</title>
<path fill="none" stroke="#000000" d="M1045.24,-631.4148C1143.072,-617.8428 1311.8056,-594.4346 1410.2856,-580.7727"/>
<polygon fill="#000000" stroke="#000000" points="1411.0466,-584.2007 1420.4708,-579.3597 1410.0846,-577.2671 1411.0466,-584.2007"/>
</g>
<!-- Abelianization_abel_rightidentity&#45;&gt;Abelianization_abel_sgop -->
<g id="edge30" class="edge">
<title>Abelianization_abel_rightidentity&#45;&gt;Abelianization_abel_sgop</title>
<path fill="none" stroke="#000000" d="M985.3891,-624.2662C1010.4357,-597.2656 1058.2288,-545.7439 1086.7755,-514.9701"/>
<polygon fill="#000000" stroke="#000000" points="1089.3581,-517.3326 1093.5929,-507.6209 1084.2261,-512.572 1089.3581,-517.3326"/>
</g>
<!-- Abelianization_abel_leftidentity&#45;&gt;Abelianization_abel_mon_unit -->
<g id="edge31" class="edge">
<title>Abelianization_abel_leftidentity&#45;&gt;Abelianization_abel_mon_unit</title>
<path fill="none" stroke="#000000" d="M1508.873,-623.8314C1505.8126,-615.9617 1502.1607,-606.5712 1498.7704,-597.8533"/>
<polygon fill="#000000" stroke="#000000" points="1501.9859,-596.4647 1495.0993,-588.4133 1495.4618,-599.0019 1501.9859,-596.4647"/>
</g>
<!-- Abelianization_abel_leftidentity&#45;&gt;Abelianization_abel_sgop -->
<g id="edge32" class="edge">
<title>Abelianization_abel_leftidentity&#45;&gt;Abelianization_abel_sgop</title>
<path fill="none" stroke="#000000" d="M1473.6385,-626.1635C1397.0943,-597.5066 1236.1719,-537.2598 1156.5666,-507.4568"/>
<polygon fill="#000000" stroke="#000000" points="1157.404,-504.0331 1146.8116,-503.8047 1154.9497,-510.5887 1157.404,-504.0331"/>
</g>
<!-- Abelianization_ab -->
<g id="node31" class="node">
<title>Abelianization_ab</title>
<g id="a_node31"><a xlink:href="Abelianization.html#ab" xlink:title="ab">
<ellipse fill="#f070d1" stroke="#000000" cx="1523.9386" cy="-178" rx="27" ry="18"/>
<text text-anchor="middle" x="1523.9386" y="-174.3" font-family="Times,serif" font-size="14.00" fill="#000000">ab</text>
</a>
</g>
</g>
<!-- Abelianization_abel_mon_unit&#45;&gt;Abelianization_ab -->
<g id="edge33" class="edge">
<title>Abelianization_abel_mon_unit&#45;&gt;Abelianization_ab</title>
<path fill="none" stroke="#000000" d="M1543.3707,-557.1869C1613.9738,-537.1966 1726.9386,-491.2646 1726.9386,-402 1726.9386,-402 1726.9386,-402 1726.9386,-322 1726.9386,-241.087 1618.3232,-201.4978 1559.9906,-186.0706"/>
<polygon fill="#000000" stroke="#000000" points="1560.6156,-182.6183 1550.0617,-183.5494 1558.8927,-189.403 1560.6156,-182.6183"/>
</g>
<!-- Abelianization_abel_sgop_associative -->
<g id="node22" class="node">
<title>Abelianization_abel_sgop_associative</title>
<g id="a_node22"><a xlink:href="Abelianization.html#abel_sgop_associative" xlink:title="abel_sgop_associative">
<ellipse fill="#f070d1" stroke="#000000" cx="510.9386" cy="-570" rx="113.9803" ry="18"/>
<text text-anchor="middle" x="510.9386" y="-566.3" font-family="Times,serif" font-size="14.00" fill="#000000">abel_sgop_associative</text>
</a>
</g>
</g>
<!-- Abelianization_abel_issemigroup&#45;&gt;Abelianization_abel_sgop_associative -->
<g id="edge34" class="edge">
<title>Abelianization_abel_issemigroup&#45;&gt;Abelianization_abel_sgop_associative</title>
<path fill="none" stroke="#000000" d="M431.3562,-624.5708C444.9534,-615.247 461.8882,-603.6345 476.6365,-593.5214"/>
<polygon fill="#000000" stroke="#000000" points="478.7577,-596.3108 485.0257,-587.7689 474.799,-590.5376 478.7577,-596.3108"/>
</g>
<!-- Abelianization_abel_sgop_associative&#45;&gt;Abelianization_abel_sgop -->
<g id="edge35" class="edge">
<title>Abelianization_abel_sgop_associative&#45;&gt;Abelianization_abel_sgop</title>
<path fill="none" stroke="#000000" d="M598.0383,-558.3673C720.1576,-542.0576 939.3419,-512.7842 1046.9051,-498.4185"/>
<polygon fill="#000000" stroke="#000000" points="1047.5104,-501.8688 1056.959,-497.0757 1046.5836,-494.9304 1047.5104,-501.8688"/>
</g>
<!-- Abelianization_abel_sgop&#45;&gt;Abelianization_Abel_ind_hprop -->
<g id="edge36" class="edge">
<title>Abelianization_abel_sgop&#45;&gt;Abelianization_Abel_ind_hprop</title>
<path fill="none" stroke="#000000" d="M1150.6427,-477.298C1198.9893,-462.2111 1279.9541,-436.9455 1334.6213,-419.8863"/>
<polygon fill="#000000" stroke="#000000" points="1335.6676,-423.2263 1344.171,-416.9062 1333.5823,-416.5441 1335.6676,-423.2263"/>
</g>
<!-- Abelianization_Abel_rec -->
<g id="node26" class="node">
<title>Abelianization_Abel_rec</title>
<g id="a_node26"><a xlink:href="Abelianization.html#Abel_rec" xlink:title="Abel_rec">
<ellipse fill="#f070d1" stroke="#000000" cx="186.9386" cy="-402" rx="51.9908" ry="18"/>
<text text-anchor="middle" x="186.9386" y="-398.3" font-family="Times,serif" font-size="14.00" fill="#000000">Abel_rec</text>
</a>
</g>
</g>
<!-- Abelianization_abel_sgop&#45;&gt;Abelianization_Abel_rec -->
<g id="edge37" class="edge">
<title>Abelianization_abel_sgop&#45;&gt;Abelianization_Abel_rec</title>
<path fill="none" stroke="#000000" d="M1054.9649,-484.7587C892.6608,-469.2845 416.3715,-423.8744 247.3152,-407.7564"/>
<polygon fill="#000000" stroke="#000000" points="247.6315,-404.2708 237.3445,-406.8058 246.9671,-411.2392 247.6315,-404.2708"/>
</g>
<!-- Abelianization_istrunc_abel -->
<g id="node29" class="node">
<title>Abelianization_istrunc_abel</title>
<g id="a_node29"><a xlink:href="Abelianization.html#istrunc_abel" xlink:title="istrunc_abel">
<ellipse fill="#f070d1" stroke="#000000" cx="1405.9386" cy="-322" rx="68.4888" ry="18"/>
<text text-anchor="middle" x="1405.9386" y="-318.3" font-family="Times,serif" font-size="14.00" fill="#000000">istrunc_abel</text>
</a>
</g>
</g>
<!-- Abelianization_abel_sgop&#45;&gt;Abelianization_istrunc_abel -->
<g id="edge38" class="edge">
<title>Abelianization_abel_sgop&#45;&gt;Abelianization_istrunc_abel</title>
<path fill="none" stroke="#000000" d="M1164.9318,-484.7918C1263.8692,-474.8638 1463.5345,-452.0651 1483.9386,-428 1498.8847,-410.3722 1494.6646,-396.4713 1483.9386,-376 1476.6022,-361.998 1463.8034,-350.9049 1450.6691,-342.5076"/>
<polygon fill="#000000" stroke="#000000" points="1452.4271,-339.481 1442.0436,-337.3752 1448.8476,-345.4966 1452.4271,-339.481"/>
</g>
<!-- Abelianization_Abel_rec_hprop -->
<g id="node24" class="node">
<title>Abelianization_Abel_rec_hprop</title>
<g id="a_node24"><a xlink:href="Abelianization.html#Abel_rec_hprop" xlink:title="Abel_rec_hprop">
<ellipse fill="#f070d1" stroke="#000000" cx="296.9386" cy="-490" rx="83.6991" ry="18"/>
<ellipse fill="none" stroke="#000000" cx="296.9386" cy="-490" rx="87.6922" ry="22"/>
<ellipse fill="none" stroke="#000000" cx="296.9386" cy="-490" rx="91.6854" ry="26"/>
<text text-anchor="middle" x="296.9386" y="-486.3" font-family="Times,serif" font-size="14.00" fill="#000000">Abel_rec_hprop</text>
</a>
</g>
</g>
<!-- Abelianization_Abel_rec_hprop&#45;&gt;Abelianization_Abel_rec -->
<g id="edge39" class="edge">
<title>Abelianization_Abel_rec_hprop&#45;&gt;Abelianization_Abel_rec</title>
<path fill="none" stroke="#000000" d="M266.2975,-465.4871C250.528,-452.8715 231.4106,-437.5776 215.891,-425.1619"/>
<polygon fill="#000000" stroke="#000000" points="217.6784,-422.1097 207.6833,-418.5957 213.3056,-427.5758 217.6784,-422.1097"/>
</g>
<!-- Abelianization_Abel_ind -->
<g id="node28" class="node">
<title>Abelianization_Abel_ind</title>
<g id="a_node28"><a xlink:href="Abelianization.html#Abel_ind" xlink:title="Abel_ind">
<ellipse fill="#f070d1" stroke="#000000" cx="886.9386" cy="-322" rx="51.1914" ry="18"/>
<text text-anchor="middle" x="886.9386" y="-318.3" font-family="Times,serif" font-size="14.00" fill="#000000">Abel_ind</text>
</a>
</g>
</g>
<!-- Abelianization_Abel_ind_hprop&#45;&gt;Abelianization_Abel_ind -->
<g id="edge40" class="edge">
<title>Abelianization_Abel_ind_hprop&#45;&gt;Abelianization_Abel_ind</title>
<path fill="none" stroke="#000000" d="M1324.6175,-391.3353C1224.45,-375.4671 1037.924,-345.9185 944.0392,-331.0456"/>
<polygon fill="#000000" stroke="#000000" points="944.3053,-327.5442 933.8808,-329.4364 943.2099,-334.458 944.3053,-327.5442"/>
</g>
<!-- Abelianization_Abel_rec&#45;&gt;Abelianization_Abel_ind -->
<g id="edge41" class="edge">
<title>Abelianization_Abel_rec&#45;&gt;Abelianization_Abel_ind</title>
<path fill="none" stroke="#000000" d="M236.4401,-396.3427C361.9337,-382.0006 692.1498,-344.2616 827.6384,-328.7772"/>
<polygon fill="#000000" stroke="#000000" points="828.2863,-332.226 837.8242,-327.6131 827.4914,-325.2713 828.2863,-332.226"/>
</g>
<!-- Abelianization_Abel_ind_beta_ab_comm -->
<g id="node27" class="node">
<title>Abelianization_Abel_ind_beta_ab_comm</title>
<g id="a_node27"><a xlink:href="Abelianization.html#Abel_ind_beta_ab_comm" xlink:title="Abel_ind_beta_ab_comm">
<ellipse fill="#f070d1" stroke="#000000" cx="746.9386" cy="-402" rx="126.1724" ry="18"/>
<ellipse fill="none" stroke="#000000" cx="746.9386" cy="-402" rx="130.175" ry="22"/>
<ellipse fill="none" stroke="#000000" cx="746.9386" cy="-402" rx="134.1777" ry="26"/>
<text text-anchor="middle" x="746.9386" y="-398.3" font-family="Times,serif" font-size="14.00" fill="#000000">Abel_ind_beta_ab_comm</text>
</a>
</g>
</g>
<!-- Abelianization_Abel_ind_beta_ab_comm&#45;&gt;Abelianization_Abel_ind -->
<g id="edge42" class="edge">
<title>Abelianization_Abel_ind_beta_ab_comm&#45;&gt;Abelianization_Abel_ind</title>
<path fill="none" stroke="#000000" d="M790.0856,-377.3446C809.6942,-366.1397 832.6163,-353.0413 851.2373,-342.4008"/>
<polygon fill="#000000" stroke="#000000" points="853.0537,-345.394 859.9996,-337.3937 849.5806,-339.3163 853.0537,-345.394"/>
</g>
<!-- Abelianization_ab_comm -->
<g id="node30" class="node">
<title>Abelianization_ab_comm</title>
<g id="a_node30"><a xlink:href="Abelianization.html#ab_comm" xlink:title="ab_comm">
<ellipse fill="#f070d1" stroke="#000000" cx="1523.9386" cy="-250" rx="55.4913" ry="18"/>
<text text-anchor="middle" x="1523.9386" y="-246.3" font-family="Times,serif" font-size="14.00" fill="#000000">ab_comm</text>
</a>
</g>
</g>
<!-- Abelianization_Abel_ind&#45;&gt;Abelianization_ab_comm -->
<g id="edge43" class="edge">
<title>Abelianization_Abel_ind&#45;&gt;Abelianization_ab_comm</title>
<path fill="none" stroke="#000000" d="M935.8652,-316.4698C1050.203,-303.5463 1334.7918,-271.3792 1461.442,-257.064"/>
<polygon fill="#000000" stroke="#000000" points="1462.198,-260.5009 1471.7416,-255.8998 1461.4117,-253.5452 1462.198,-260.5009"/>
</g>
<!-- Abelianization_Abel -->
<g id="node32" class="node">
<title>Abelianization_Abel</title>
<g id="a_node32"><a xlink:href="Abelianization.html#Abel" xlink:title="Abel">
<ellipse fill="#f070d1" stroke="#000000" cx="1422.9386" cy="-106" rx="31.6951" ry="18"/>
<text text-anchor="middle" x="1422.9386" y="-102.3" font-family="Times,serif" font-size="14.00" fill="#000000">Abel</text>
</a>
</g>
</g>
<!-- Abelianization_istrunc_abel&#45;&gt;Abelianization_Abel -->
<g id="edge44" class="edge">
<title>Abelianization_istrunc_abel&#45;&gt;Abelianization_Abel</title>
<path fill="none" stroke="#000000" d="M1407.3588,-303.9555C1410.3213,-266.3144 1417.1785,-179.1867 1420.7251,-134.1246"/>
<polygon fill="#000000" stroke="#000000" points="1424.215,-134.3889 1421.5105,-124.1451 1417.2366,-133.8396 1424.215,-134.3889"/>
</g>
<!-- Abelianization_ab_comm&#45;&gt;Abelianization_ab -->
<g id="edge45" class="edge">
<title>Abelianization_ab_comm&#45;&gt;Abelianization_ab</title>
<path fill="none" stroke="#000000" d="M1523.9386,-231.8314C1523.9386,-224.131 1523.9386,-214.9743 1523.9386,-206.4166"/>
<polygon fill="#000000" stroke="#000000" points="1527.4387,-206.4132 1523.9386,-196.4133 1520.4387,-206.4133 1527.4387,-206.4132"/>
</g>
<!-- Abelianization_ab&#45;&gt;Abelianization_Abel -->
<g id="edge46" class="edge">
<title>Abelianization_ab&#45;&gt;Abelianization_Abel</title>
<path fill="none" stroke="#000000" d="M1505.4137,-164.7941C1490.283,-154.0079 1468.6468,-138.5841 1451.3311,-126.2402"/>
<polygon fill="#000000" stroke="#000000" points="1452.9018,-123.0616 1442.7273,-120.1068 1448.8384,-128.7616 1452.9018,-123.0616"/>
</g>
<!-- Abelianization_uncurry2 -->
<g id="node33" class="node">
<title>Abelianization_uncurry2</title>
<g id="a_node33"><a xlink:href="Abelianization.html#uncurry2" xlink:title="uncurry2">
<ellipse fill="#f070d1" stroke="#000000" cx="1422.9386" cy="-34" rx="53.8905" ry="18"/>
<text text-anchor="middle" x="1422.9386" y="-30.3" font-family="Times,serif" font-size="14.00" fill="#000000">uncurry2</text>
</a>
</g>
</g>
<!-- Abelianization_Abel&#45;&gt;Abelianization_uncurry2 -->
<g id="edge47" class="edge">
<title>Abelianization_Abel&#45;&gt;Abelianization_uncurry2</title>
<path fill="none" stroke="#000000" d="M1422.9386,-87.8314C1422.9386,-80.131 1422.9386,-70.9743 1422.9386,-62.4166"/>
<polygon fill="#000000" stroke="#000000" points="1426.4387,-62.4132 1422.9386,-52.4133 1419.4387,-62.4133 1426.4387,-62.4132"/>
</g>
<!-- Abelianization_isequiv0gpd_isabel&#45;&gt;Abelianization_IsAbelianization -->
<g id="edge48" class="edge">
<title>Abelianization_isequiv0gpd_isabel&#45;&gt;Abelianization_IsAbelianization</title>
<path fill="none" stroke="#000000" d="M1651.0497,-850.9526C1701.0404,-837.3033 1774.6695,-817.1998 1826.7488,-802.9801"/>
<polygon fill="#000000" stroke="#000000" points="1827.8126,-806.3179 1836.5376,-800.3074 1825.9688,-799.5651 1827.8126,-806.3179"/>
</g>
<!-- Abelianization_group_precomp -->
<g id="node36" class="node">
<title>Abelianization_group_precomp</title>
<g id="a_node36"><a xlink:href="Abelianization.html#group_precomp" xlink:title="group_precomp">
<ellipse fill="#f070d1" stroke="#000000" cx="2050.9386" cy="-714" rx="83.6854" ry="18"/>
<text text-anchor="middle" x="2050.9386" y="-710.3" font-family="Times,serif" font-size="14.00" fill="#000000">group_precomp</text>
</a>
</g>
</g>
<!-- Abelianization_IsAbelianization&#45;&gt;Abelianization_group_precomp -->
<g id="edge49" class="edge">
<title>Abelianization_IsAbelianization&#45;&gt;Abelianization_group_precomp</title>
<path fill="none" stroke="#000000" d="M1925.6989,-769.6621C1949.2079,-759.2137 1979.8887,-745.5777 2004.9992,-734.4175"/>
<polygon fill="#000000" stroke="#000000" points="2006.6072,-737.533 2014.3238,-730.2733 2003.7641,-731.1364 2006.6072,-737.533"/>
</g>
</g>
</svg>
