<?xml version="1.0" encoding="UTF-8" standalone="no"?>
<!DOCTYPE svg PUBLIC "-//W3C//DTD SVG 1.1//EN"
 "http://www.w3.org/Graphics/SVG/1.1/DTD/svg11.dtd">
<!-- Generated by graphviz version 2.40.1 (20161225.0304)
 -->
<!-- Title: HoTT_Basics_Datatypes Pages: 1 -->
<svg width="1142pt" height="575pt"
 viewBox="0.00 0.00 1142.00 575.00" xmlns="http://www.w3.org/2000/svg" xmlns:xlink="http://www.w3.org/1999/xlink">
<g id="graph0" class="graph" transform="scale(1 1) rotate(0) translate(4 571)">
<title>HoTT_Basics_Datatypes</title>
<polygon fill="#ffffff" stroke="transparent" points="-4,4 -4,-571 1138,-571 1138,4 -4,4"/>
<g id="clust1" class="cluster">
<title>cluster_Basics</title>
<polygon fill="#ffffc3" stroke="#000000" points="8,-20.8073 8,-546.1927 1029,-546.1927 1029,-20.8073 8,-20.8073"/>
<text text-anchor="middle" x="39.5" y="-530.9927" font-family="Times,serif" font-size="14.00" fill="#000000">Basics</text>
</g>
<g id="clust2" class="cluster">
<title>cluster_Basics_Datatypes</title>
<polygon fill="#ffffa3" stroke="#000000" points="16,-41.6147 16,-465.5642 1021,-465.5642 1021,-41.6147 16,-41.6147"/>
<text text-anchor="middle" x="60.5" y="-450.3642" font-family="Times,serif" font-size="14.00" fill="#000000">Datatypes</text>
</g>
<g id="clust3" class="cluster">
<title>cluster_Datatypes</title>
<polygon fill="#ffffc3" stroke="#000000" points="1037,-228.8807 1037,-465.5642 1126,-465.5642 1126,-228.8807 1037,-228.8807"/>
<text text-anchor="middle" x="1081.5" y="-450.3642" font-family="Times,serif" font-size="14.00" fill="#000000">Datatypes</text>
</g>
<!-- Basics_Datatypes_app -->
<g id="node1" class="node">
<title>Basics_Datatypes_app</title>
<g id="a_node1"><a xlink:href="Basics.html#Datatypes.app" xlink:title="app">
<ellipse fill="#f070d1" stroke="#000000" cx="977" cy="-317.8073" rx="27.9068" ry="18"/>
<ellipse fill="none" stroke="#000000" cx="977" cy="-317.8073" rx="31.9009" ry="22"/>
<ellipse fill="none" stroke="#000000" cx="977" cy="-317.8073" rx="35.8951" ry="26"/>
<text text-anchor="middle" x="977" y="-314.1073" font-family="Times,serif" font-size="14.00" fill="#000000">app</text>
</a>
</g>
</g>
<!-- Basics_Datatypes_cons -->
<g id="node3" class="node">
<title>Basics_Datatypes_cons</title>
<g id="a_node3"><a xlink:href="Basics.html#Datatypes.cons" xlink:title="cons">
<ellipse fill="#7faaff" stroke="#000000" cx="977" cy="-108.8073" rx="32.4942" ry="18"/>
<text text-anchor="middle" x="977" y="-105.1073" font-family="Times,serif" font-size="14.00" fill="#000000">cons</text>
</a>
</g>
</g>
<!-- Basics_Datatypes_app&#45;&gt;Basics_Datatypes_cons -->
<g id="edge1" class="edge">
<title>Basics_Datatypes_app&#45;&gt;Basics_Datatypes_cons</title>
<path fill="none" stroke="#000000" d="M977,-291.7599C977,-252.2832 977,-177.6059 977,-136.933"/>
<polygon fill="#000000" stroke="#000000" points="980.5001,-136.8932 977,-126.8932 973.5001,-136.8933 980.5001,-136.8932"/>
</g>
<!-- Basics_Datatypes_list -->
<g id="node5" class="node">
<title>Basics_Datatypes_list</title>
<g id="a_node5"><a xlink:href="Basics.html#Datatypes.list" xlink:title="list">
<ellipse fill="#e2cdfa" stroke="#000000" cx="900" cy="-108.8073" rx="27" ry="18"/>
<text text-anchor="middle" x="900" y="-105.1073" font-family="Times,serif" font-size="14.00" fill="#000000">list</text>
</a>
</g>
</g>
<!-- Basics_Datatypes_app&#45;&gt;Basics_Datatypes_list -->
<g id="edge2" class="edge">
<title>Basics_Datatypes_app&#45;&gt;Basics_Datatypes_list</title>
<path fill="none" stroke="#000000" d="M967.712,-292.5971C953.1466,-253.0625 925.0491,-176.7978 910.0354,-136.0463"/>
<polygon fill="#000000" stroke="#000000" points="913.2578,-134.6684 906.5165,-126.4949 906.6894,-137.0883 913.2578,-134.6684"/>
</g>
<!-- Basics_Datatypes_list_rect -->
<g id="node2" class="node">
<title>Basics_Datatypes_list_rect</title>
<g id="a_node2"><a xlink:href="Basics.html#Datatypes.list_rect" xlink:title="list_rect">
<ellipse fill="#f070d1" stroke="#000000" cx="866" cy="-317.8073" rx="49.3059" ry="18"/>
<ellipse fill="none" stroke="#000000" cx="866" cy="-317.8073" rx="53.2987" ry="22"/>
<ellipse fill="none" stroke="#000000" cx="866" cy="-317.8073" rx="57.2914" ry="26"/>
<text text-anchor="middle" x="866" y="-314.1073" font-family="Times,serif" font-size="14.00" fill="#000000">list_rect</text>
</a>
</g>
</g>
<!-- Basics_Datatypes_list_rect&#45;&gt;Basics_Datatypes_cons -->
<g id="edge3" class="edge">
<title>Basics_Datatypes_list_rect&#45;&gt;Basics_Datatypes_cons</title>
<path fill="none" stroke="#000000" d="M879.6108,-292.1798C900.8342,-252.2187 941.5961,-175.4687 963.0348,-135.1022"/>
<polygon fill="#000000" stroke="#000000" points="966.1988,-136.6065 967.7983,-126.1331 960.0166,-133.3231 966.1988,-136.6065"/>
</g>
<!-- Basics_Datatypes_nil -->
<g id="node4" class="node">
<title>Basics_Datatypes_nil</title>
<g id="a_node4"><a xlink:href="Basics.html#Datatypes.nil" xlink:title="nil">
<ellipse fill="#7faaff" stroke="#000000" cx="828" cy="-108.8073" rx="27" ry="18"/>
<text text-anchor="middle" x="828" y="-105.1073" font-family="Times,serif" font-size="14.00" fill="#000000">nil</text>
</a>
</g>
</g>
<!-- Basics_Datatypes_list_rect&#45;&gt;Basics_Datatypes_nil -->
<g id="edge4" class="edge">
<title>Basics_Datatypes_list_rect&#45;&gt;Basics_Datatypes_nil</title>
<path fill="none" stroke="#000000" d="M861.2641,-291.7599C854.0865,-252.2832 840.5088,-177.6059 833.1138,-136.933"/>
<polygon fill="#000000" stroke="#000000" points="836.5208,-136.1058 831.2883,-126.8932 829.6337,-137.358 836.5208,-136.1058"/>
</g>
<!-- Basics_Datatypes_list_rect&#45;&gt;Basics_Datatypes_list -->
<g id="edge5" class="edge">
<title>Basics_Datatypes_list_rect&#45;&gt;Basics_Datatypes_list</title>
<path fill="none" stroke="#000000" d="M870.2374,-291.7599C876.6594,-252.2832 888.8079,-177.6059 895.4245,-136.933"/>
<polygon fill="#000000" stroke="#000000" points="898.9066,-137.3255 897.0578,-126.8932 891.9974,-136.2014 898.9066,-137.3255"/>
</g>
<!-- Datatypes_iff -->
<g id="node6" class="node">
<title>Datatypes_iff</title>
<g id="a_node6"><a xlink:href="Datatypes.html#iff" xlink:title="iff">
<ellipse fill="#f070d1" stroke="#000000" cx="1080" cy="-317.8073" rx="27" ry="18"/>
<ellipse fill="none" stroke="#000000" cx="1080" cy="-317.8073" rx="31" ry="22"/>
<ellipse fill="none" stroke="#000000" cx="1080" cy="-317.8073" rx="35" ry="26"/>
<text text-anchor="middle" x="1080" y="-314.1073" font-family="Times,serif" font-size="14.00" fill="#000000">iff</text>
</a>
</g>
</g>
<!-- Basics_Datatypes_prod -->
<g id="node12" class="node">
<title>Basics_Datatypes_prod</title>
<g id="a_node12"><a xlink:href="Basics.html#Datatypes.prod" xlink:title="prod">
<ellipse fill="#e2cdfa" stroke="#000000" cx="636" cy="-108.8073" rx="32.4942" ry="18"/>
<text text-anchor="middle" x="636" y="-105.1073" font-family="Times,serif" font-size="14.00" fill="#000000">prod</text>
</a>
</g>
</g>
<!-- Datatypes_iff&#45;&gt;Basics_Datatypes_prod -->
<g id="edge6" class="edge">
<title>Datatypes_iff&#45;&gt;Basics_Datatypes_prod</title>
<path fill="none" stroke="#000000" d="M1053.556,-300.4888C1044.6316,-294.9071 1034.5177,-288.8622 1025,-283.8073 898.7682,-216.7661 741.7623,-151.3409 672.1386,-123.2027"/>
<polygon fill="#000000" stroke="#000000" points="673.0979,-119.8158 662.5143,-119.3259 670.4824,-126.3089 673.0979,-119.8158"/>
</g>
<!-- Basics_Datatypes_prod_curry -->
<g id="node7" class="node">
<title>Basics_Datatypes_prod_curry</title>
<g id="a_node7"><a xlink:href="Basics.html#Datatypes.prod_curry" xlink:title="prod_curry">
<ellipse fill="#f070d1" stroke="#000000" cx="633" cy="-317.8073" rx="62.3011" ry="18"/>
<ellipse fill="none" stroke="#000000" cx="633" cy="-317.8073" rx="66.2951" ry="22"/>
<ellipse fill="none" stroke="#000000" cx="633" cy="-317.8073" rx="70.2891" ry="26"/>
<text text-anchor="middle" x="633" y="-314.1073" font-family="Times,serif" font-size="14.00" fill="#000000">prod_curry</text>
</a>
</g>
</g>
<!-- Basics_Datatypes_prod_curry&#45;&gt;Basics_Datatypes_prod -->
<g id="edge7" class="edge">
<title>Basics_Datatypes_prod_curry&#45;&gt;Basics_Datatypes_prod</title>
<path fill="none" stroke="#000000" d="M633.3739,-291.7599C633.9405,-252.2832 635.0125,-177.6059 635.5963,-136.933"/>
<polygon fill="#000000" stroke="#000000" points="639.0964,-136.9425 635.7404,-126.8932 632.0971,-136.8419 639.0964,-136.9425"/>
</g>
<!-- Basics_Datatypes_prod_rect -->
<g id="node8" class="node">
<title>Basics_Datatypes_prod_rect</title>
<g id="a_node8"><a xlink:href="Basics.html#Datatypes.prod_rect" xlink:title="prod_rect">
<ellipse fill="#f070d1" stroke="#000000" cx="392" cy="-317.8073" rx="55.8034" ry="18"/>
<ellipse fill="none" stroke="#000000" cx="392" cy="-317.8073" rx="59.7968" ry="22"/>
<ellipse fill="none" stroke="#000000" cx="392" cy="-317.8073" rx="63.7903" ry="26"/>
<text text-anchor="middle" x="392" y="-314.1073" font-family="Times,serif" font-size="14.00" fill="#000000">prod_rect</text>
</a>
</g>
</g>
<!-- Basics_Datatypes_pair -->
<g id="node11" class="node">
<title>Basics_Datatypes_pair</title>
<g id="a_node11"><a xlink:href="Basics.html#Datatypes.pair" xlink:title="pair">
<ellipse fill="#7faaff" stroke="#000000" cx="556" cy="-108.8073" rx="29.4969" ry="18"/>
<text text-anchor="middle" x="556" y="-105.1073" font-family="Times,serif" font-size="14.00" fill="#000000">pair</text>
</a>
</g>
</g>
<!-- Basics_Datatypes_prod_rect&#45;&gt;Basics_Datatypes_pair -->
<g id="edge8" class="edge">
<title>Basics_Datatypes_prod_rect&#45;&gt;Basics_Datatypes_pair</title>
<path fill="none" stroke="#000000" d="M411.457,-293.0116C443.1422,-252.6322 505.501,-173.1628 536.9327,-133.1065"/>
<polygon fill="#000000" stroke="#000000" points="539.7285,-135.2132 543.1483,-125.1854 534.2215,-130.8919 539.7285,-135.2132"/>
</g>
<!-- Basics_Datatypes_prod_rect&#45;&gt;Basics_Datatypes_prod -->
<g id="edge9" class="edge">
<title>Basics_Datatypes_prod_rect&#45;&gt;Basics_Datatypes_prod</title>
<path fill="none" stroke="#000000" d="M419.5156,-294.2387C467.133,-253.4516 564.2306,-170.282 610.448,-130.6941"/>
<polygon fill="#000000" stroke="#000000" points="612.883,-133.2168 618.2009,-124.0533 608.3292,-127.9005 612.883,-133.2168"/>
</g>
<!-- Basics_Datatypes_snd -->
<g id="node9" class="node">
<title>Basics_Datatypes_snd</title>
<g id="a_node9"><a xlink:href="Basics.html#Datatypes.snd" xlink:title="snd">
<ellipse fill="#f070d1" stroke="#000000" cx="509" cy="-317.8073" rx="27.1419" ry="18"/>
<ellipse fill="none" stroke="#000000" cx="509" cy="-317.8073" rx="31.1191" ry="22"/>
<ellipse fill="none" stroke="#000000" cx="509" cy="-317.8073" rx="35.0963" ry="26"/>
<text text-anchor="middle" x="509" y="-314.1073" font-family="Times,serif" font-size="14.00" fill="#000000">snd</text>
</a>
</g>
</g>
<!-- Basics_Datatypes_snd&#45;&gt;Basics_Datatypes_prod -->
<g id="edge10" class="edge">
<title>Basics_Datatypes_snd&#45;&gt;Basics_Datatypes_prod</title>
<path fill="none" stroke="#000000" d="M523.5685,-293.8324C547.6765,-254.1587 595.6597,-175.1941 620.4185,-134.4493"/>
<polygon fill="#000000" stroke="#000000" points="623.4152,-136.2576 625.6172,-125.8941 617.4331,-132.6224 623.4152,-136.2576"/>
</g>
<!-- Basics_Datatypes_fst -->
<g id="node10" class="node">
<title>Basics_Datatypes_fst</title>
<g id="a_node10"><a xlink:href="Basics.html#Datatypes.fst" xlink:title="fst">
<ellipse fill="#f070d1" stroke="#000000" cx="756" cy="-317.8073" rx="27" ry="18"/>
<ellipse fill="none" stroke="#000000" cx="756" cy="-317.8073" rx="31" ry="22"/>
<ellipse fill="none" stroke="#000000" cx="756" cy="-317.8073" rx="35" ry="26"/>
<text text-anchor="middle" x="756" y="-314.1073" font-family="Times,serif" font-size="14.00" fill="#000000">fst</text>
</a>
</g>
</g>
<!-- Basics_Datatypes_fst&#45;&gt;Basics_Datatypes_prod -->
<g id="edge11" class="edge">
<title>Basics_Datatypes_fst&#45;&gt;Basics_Datatypes_prod</title>
<path fill="none" stroke="#000000" d="M742.2345,-293.8324C719.5603,-254.3415 674.5342,-175.921 651.0475,-135.015"/>
<polygon fill="#000000" stroke="#000000" points="653.9864,-133.1044 645.9718,-126.1749 647.9158,-136.5899 653.9864,-133.1044"/>
</g>
<!-- Basics_Datatypes_sum_rect -->
<g id="node13" class="node">
<title>Basics_Datatypes_sum_rect</title>
<g id="a_node13"><a xlink:href="Basics.html#Datatypes.sum_rect" xlink:title="sum_rect">
<ellipse fill="#f070d1" stroke="#000000" cx="248" cy="-317.8073" rx="53.8975" ry="18"/>
<ellipse fill="none" stroke="#000000" cx="248" cy="-317.8073" rx="57.894" ry="22"/>
<ellipse fill="none" stroke="#000000" cx="248" cy="-317.8073" rx="61.8905" ry="26"/>
<text text-anchor="middle" x="248" y="-314.1073" font-family="Times,serif" font-size="14.00" fill="#000000">sum_rect</text>
</a>
</g>
</g>
<!-- Basics_Datatypes_inr -->
<g id="node14" class="node">
<title>Basics_Datatypes_inr</title>
<g id="a_node14"><a xlink:href="Basics.html#Datatypes.inr" xlink:title="inr">
<ellipse fill="#7faaff" stroke="#000000" cx="482" cy="-108.8073" rx="27" ry="18"/>
<text text-anchor="middle" x="482" y="-105.1073" font-family="Times,serif" font-size="14.00" fill="#000000">inr</text>
</a>
</g>
</g>
<!-- Basics_Datatypes_sum_rect&#45;&gt;Basics_Datatypes_inr -->
<g id="edge12" class="edge">
<title>Basics_Datatypes_sum_rect&#45;&gt;Basics_Datatypes_inr</title>
<path fill="none" stroke="#000000" d="M274.3879,-294.2387C320.2968,-253.2345 414.1644,-169.3956 458.1987,-130.0658"/>
<polygon fill="#000000" stroke="#000000" points="460.6914,-132.5322 465.8181,-123.2604 456.0284,-127.3114 460.6914,-132.5322"/>
</g>
<!-- Basics_Datatypes_inl -->
<g id="node15" class="node">
<title>Basics_Datatypes_inl</title>
<g id="a_node15"><a xlink:href="Basics.html#Datatypes.inl" xlink:title="inl">
<ellipse fill="#7faaff" stroke="#000000" cx="330" cy="-108.8073" rx="27" ry="18"/>
<text text-anchor="middle" x="330" y="-105.1073" font-family="Times,serif" font-size="14.00" fill="#000000">inl</text>
</a>
</g>
</g>
<!-- Basics_Datatypes_sum_rect&#45;&gt;Basics_Datatypes_inl -->
<g id="edge13" class="edge">
<title>Basics_Datatypes_sum_rect&#45;&gt;Basics_Datatypes_inl</title>
<path fill="none" stroke="#000000" d="M258.2196,-291.7599C273.8531,-251.9135 303.5573,-176.204 319.4099,-135.7992"/>
<polygon fill="#000000" stroke="#000000" points="322.7305,-136.9183 323.1248,-126.3307 316.2141,-134.3615 322.7305,-136.9183"/>
</g>
<!-- Basics_Datatypes_sum -->
<g id="node16" class="node">
<title>Basics_Datatypes_sum</title>
<g id="a_node16"><a xlink:href="Basics.html#Datatypes.sum" xlink:title="sum">
<ellipse fill="#e2cdfa" stroke="#000000" cx="406" cy="-108.8073" rx="30.5947" ry="18"/>
<text text-anchor="middle" x="406" y="-105.1073" font-family="Times,serif" font-size="14.00" fill="#000000">sum</text>
</a>
</g>
</g>
<!-- Basics_Datatypes_sum_rect&#45;&gt;Basics_Datatypes_sum -->
<g id="edge14" class="edge">
<title>Basics_Datatypes_sum_rect&#45;&gt;Basics_Datatypes_sum</title>
<path fill="none" stroke="#000000" d="M266.7451,-293.0116C297.1311,-252.8174 356.798,-173.891 387.2117,-133.6602"/>
<polygon fill="#000000" stroke="#000000" points="390.1724,-135.5477 393.4109,-125.46 384.5884,-131.3263 390.1724,-135.5477"/>
</g>
<!-- Basics_Datatypes_option_rect -->
<g id="node17" class="node">
<title>Basics_Datatypes_option_rect</title>
<g id="a_node17"><a xlink:href="Basics.html#Datatypes.option_rect" xlink:title="option_rect">
<ellipse fill="#f070d1" stroke="#000000" cx="96" cy="-317.8073" rx="63.8675" ry="18"/>
<ellipse fill="none" stroke="#000000" cx="96" cy="-317.8073" rx="67.8784" ry="22"/>
<ellipse fill="none" stroke="#000000" cx="96" cy="-317.8073" rx="71.8892" ry="26"/>
<text text-anchor="middle" x="96" y="-314.1073" font-family="Times,serif" font-size="14.00" fill="#000000">option_rect</text>
</a>
</g>
</g>
<!-- Basics_Datatypes_None -->
<g id="node18" class="node">
<title>Basics_Datatypes_None</title>
<g id="a_node18"><a xlink:href="Basics.html#Datatypes.None" xlink:title="None">
<ellipse fill="#7faaff" stroke="#000000" cx="249" cy="-108.8073" rx="35.9954" ry="18"/>
<text text-anchor="middle" x="249" y="-105.1073" font-family="Times,serif" font-size="14.00" fill="#000000">None</text>
</a>
</g>
</g>
<!-- Basics_Datatypes_option_rect&#45;&gt;Basics_Datatypes_None -->
<g id="edge15" class="edge">
<title>Basics_Datatypes_option_rect&#45;&gt;Basics_Datatypes_None</title>
<path fill="none" stroke="#000000" d="M114.4554,-292.5971C143.8516,-252.4414 200.9879,-174.3925 230.4461,-134.1523"/>
<polygon fill="#000000" stroke="#000000" points="233.3788,-136.0714 236.4616,-125.935 227.7305,-131.9365 233.3788,-136.0714"/>
</g>
<!-- Basics_Datatypes_Some -->
<g id="node19" class="node">
<title>Basics_Datatypes_Some</title>
<g id="a_node19"><a xlink:href="Basics.html#Datatypes.Some" xlink:title="Some">
<ellipse fill="#7faaff" stroke="#000000" cx="60" cy="-108.8073" rx="36.2938" ry="18"/>
<text text-anchor="middle" x="60" y="-105.1073" font-family="Times,serif" font-size="14.00" fill="#000000">Some</text>
</a>
</g>
</g>
<!-- Basics_Datatypes_option_rect&#45;&gt;Basics_Datatypes_Some -->
<g id="edge16" class="edge">
<title>Basics_Datatypes_option_rect&#45;&gt;Basics_Datatypes_Some</title>
<path fill="none" stroke="#000000" d="M91.5134,-291.7599C84.7135,-252.2832 71.8505,-177.6059 64.8446,-136.933"/>
<polygon fill="#000000" stroke="#000000" points="68.262,-136.1539 63.1153,-126.8932 61.3636,-137.3422 68.262,-136.1539"/>
</g>
<!-- Basics_Datatypes_option -->
<g id="node20" class="node">
<title>Basics_Datatypes_option</title>
<g id="a_node20"><a xlink:href="Basics.html#Datatypes.option" xlink:title="option">
<ellipse fill="#e2cdfa" stroke="#000000" cx="155" cy="-108.8073" rx="40.0939" ry="18"/>
<text text-anchor="middle" x="155" y="-105.1073" font-family="Times,serif" font-size="14.00" fill="#000000">option</text>
</a>
</g>
</g>
<!-- Basics_Datatypes_option_rect&#45;&gt;Basics_Datatypes_option -->
<g id="edge17" class="edge">
<title>Basics_Datatypes_option_rect&#45;&gt;Basics_Datatypes_option</title>
<path fill="none" stroke="#000000" d="M103.3531,-291.7599C114.521,-252.1992 135.6681,-177.288 147.1334,-136.6739"/>
<polygon fill="#000000" stroke="#000000" points="150.5459,-137.468 149.8944,-126.8932 143.8092,-135.5662 150.5459,-137.468"/>
</g>
</g>
</svg>
