<?xml version="1.0" encoding="UTF-8" standalone="no"?>
<!DOCTYPE svg PUBLIC "-//W3C//DTD SVG 1.1//EN"
 "http://www.w3.org/Graphics/SVG/1.1/DTD/svg11.dtd">
<!-- Generated by graphviz version 2.40.1 (20161225.0304)
 -->
<!-- Title: HoTT_Pointed_pSusp Pages: 1 -->
<svg width="1475pt" height="741pt"
 viewBox="0.00 0.00 1475.00 741.50" xmlns="http://www.w3.org/2000/svg" xmlns:xlink="http://www.w3.org/1999/xlink">
<g id="graph0" class="graph" transform="scale(1 1) rotate(0) translate(4 737.5)">
<title>HoTT_Pointed_pSusp</title>
<polygon fill="#ffffff" stroke="transparent" points="-4,4 -4,-737.5 1471,-737.5 1471,4 -4,4"/>
<g id="clust1" class="cluster">
<title>cluster_pSusp</title>
<polygon fill="#ffffc3" stroke="#000000" points="8,-9.9458 8,-723.5542 1459,-723.5542 1459,-9.9458 8,-9.9458"/>
<text text-anchor="middle" x="38.5" y="-708.3542" font-family="Times,serif" font-size="14.00" fill="#000000">pSusp</text>
</g>
<g id="clust2" class="cluster">
<title>cluster_pSusp_Book_Loop_Susp_Adjunction</title>
<polygon fill="#ffffa3" stroke="#000000" points="765,-188.9695 765,-302.1025 989,-302.1025 989,-188.9695 765,-188.9695"/>
<text text-anchor="middle" x="877" y="-286.9025" font-family="Times,serif" font-size="14.00" fill="#000000">Book_Loop_Susp_Adjunction</text>
</g>
<!-- pSusp_Book_Loop_Susp_Adjunction_loop_susp_adjoint -->
<g id="node1" class="node">
<title>pSusp_Book_Loop_Susp_Adjunction_loop_susp_adjoint</title>
<g id="a_node1"><a xlink:href="pSusp.html#Book_Loop_Susp_Adjunction.loop_susp_adjoint" xlink:title="loop_susp_adjoint">
<ellipse fill="#f070d1" stroke="#000000" cx="877" cy="-230.9458" rx="93.6762" ry="18"/>
<ellipse fill="none" stroke="#000000" cx="877" cy="-230.9458" rx="97.6799" ry="22"/>
<ellipse fill="none" stroke="#000000" cx="877" cy="-230.9458" rx="101.6835" ry="26"/>
<text text-anchor="middle" x="877" y="-227.2458" font-family="Times,serif" font-size="14.00" fill="#000000">loop_susp_adjoint</text>
</a>
</g>
</g>
<!-- pSusp_psusp -->
<g id="node17" class="node">
<title>pSusp_psusp</title>
<g id="a_node17"><a xlink:href="pSusp.html#psusp" xlink:title="psusp">
<ellipse fill="#f070d1" stroke="#000000" cx="771" cy="-131.9458" rx="38.1938" ry="18"/>
<text text-anchor="middle" x="771" y="-128.2458" font-family="Times,serif" font-size="14.00" fill="#000000">psusp</text>
</a>
</g>
</g>
<!-- pSusp_Book_Loop_Susp_Adjunction_loop_susp_adjoint&#45;&gt;pSusp_psusp -->
<g id="edge1" class="edge">
<title>pSusp_Book_Loop_Susp_Adjunction_loop_susp_adjoint&#45;&gt;pSusp_psusp</title>
<path fill="none" stroke="#000000" d="M849.9775,-205.7077C833.3203,-190.1506 812.115,-170.3456 795.8722,-155.1755"/>
<polygon fill="#000000" stroke="#000000" points="798.036,-152.4073 788.3388,-148.1395 793.2581,-157.5231 798.036,-152.4073"/>
</g>
<!-- pSusp_natequiv_loop_susp_adjoint_r -->
<g id="node2" class="node">
<title>pSusp_natequiv_loop_susp_adjoint_r</title>
<g id="a_node2"><a xlink:href="pSusp.html#natequiv_loop_susp_adjoint_r" xlink:title="natequiv_loop_susp_adjoint_r">
<ellipse fill="#f070d1" stroke="#000000" cx="914" cy="-652.9458" rx="148.3643" ry="18"/>
<ellipse fill="none" stroke="#000000" cx="914" cy="-652.9458" rx="152.3691" ry="22"/>
<ellipse fill="none" stroke="#000000" cx="914" cy="-652.9458" rx="156.3739" ry="26"/>
<text text-anchor="middle" x="914" y="-649.2458" font-family="Times,serif" font-size="14.00" fill="#000000">natequiv_loop_susp_adjoint_r</text>
</a>
</g>
</g>
<!-- pSusp_is1natural_loop_susp_adjoint_r -->
<g id="node3" class="node">
<title>pSusp_is1natural_loop_susp_adjoint_r</title>
<g id="a_node3"><a xlink:href="pSusp.html#is1natural_loop_susp_adjoint_r" xlink:title="is1natural_loop_susp_adjoint_r">
<ellipse fill="#f070d1" stroke="#000000" cx="914" cy="-542.9458" rx="155.1726" ry="18"/>
<text text-anchor="middle" x="914" y="-539.2458" font-family="Times,serif" font-size="14.00" fill="#000000">is1natural_loop_susp_adjoint_r</text>
</a>
</g>
</g>
<!-- pSusp_natequiv_loop_susp_adjoint_r&#45;&gt;pSusp_is1natural_loop_susp_adjoint_r -->
<g id="edge2" class="edge">
<title>pSusp_natequiv_loop_susp_adjoint_r&#45;&gt;pSusp_is1natural_loop_susp_adjoint_r</title>
<path fill="none" stroke="#000000" d="M914,-626.8773C914,-610.1465 914,-588.4224 914,-571.2677"/>
<polygon fill="#000000" stroke="#000000" points="917.5001,-571.2625 914,-561.2625 910.5001,-571.2625 917.5001,-571.2625"/>
</g>
<!-- pSusp_loop_susp_adjoint -->
<g id="node6" class="node">
<title>pSusp_loop_susp_adjoint</title>
<g id="a_node6"><a xlink:href="pSusp.html#loop_susp_adjoint" xlink:title="loop_susp_adjoint">
<ellipse fill="#f070d1" stroke="#000000" cx="611" cy="-443.9458" rx="93.6835" ry="18"/>
<text text-anchor="middle" x="611" y="-440.2458" font-family="Times,serif" font-size="14.00" fill="#000000">loop_susp_adjoint</text>
</a>
</g>
</g>
<!-- pSusp_is1natural_loop_susp_adjoint_r&#45;&gt;pSusp_loop_susp_adjoint -->
<g id="edge3" class="edge">
<title>pSusp_is1natural_loop_susp_adjoint_r&#45;&gt;pSusp_loop_susp_adjoint</title>
<path fill="none" stroke="#000000" d="M861.9124,-525.9271C808.1206,-508.3515 724.392,-480.9946 668.6426,-462.7795"/>
<polygon fill="#000000" stroke="#000000" points="669.5084,-459.3803 658.9159,-459.6014 667.3343,-466.0342 669.5084,-459.3803"/>
</g>
<!-- pSusp_loop_susp_adjoint_nat_l -->
<g id="node4" class="node">
<title>pSusp_loop_susp_adjoint_nat_l</title>
<g id="a_node4"><a xlink:href="pSusp.html#loop_susp_adjoint_nat_l" xlink:title="loop_susp_adjoint_nat_l">
<ellipse fill="#f070d1" stroke="#000000" cx="611" cy="-542.9458" rx="121.576" ry="18"/>
<ellipse fill="none" stroke="#000000" cx="611" cy="-542.9458" rx="125.5772" ry="22"/>
<ellipse fill="none" stroke="#000000" cx="611" cy="-542.9458" rx="129.5784" ry="26"/>
<text text-anchor="middle" x="611" y="-539.2458" font-family="Times,serif" font-size="14.00" fill="#000000">loop_susp_adjoint_nat_l</text>
</a>
</g>
</g>
<!-- pSusp_loop_susp_adjoint_nat_l&#45;&gt;pSusp_loop_susp_adjoint -->
<g id="edge4" class="edge">
<title>pSusp_loop_susp_adjoint_nat_l&#45;&gt;pSusp_loop_susp_adjoint</title>
<path fill="none" stroke="#000000" d="M611,-516.9347C611,-503.1477 611,-486.1959 611,-472.1004"/>
<polygon fill="#000000" stroke="#000000" points="614.5001,-471.978 611,-461.978 607.5001,-471.978 614.5001,-471.978"/>
</g>
<!-- pSusp_loop_susp_adjoint_nat_r -->
<g id="node5" class="node">
<title>pSusp_loop_susp_adjoint_nat_r</title>
<g id="a_node5"><a xlink:href="pSusp.html#loop_susp_adjoint_nat_r" xlink:title="loop_susp_adjoint_nat_r">
<ellipse fill="#f070d1" stroke="#000000" cx="333" cy="-542.9458" rx="122.6882" ry="18"/>
<ellipse fill="none" stroke="#000000" cx="333" cy="-542.9458" rx="126.6833" ry="22"/>
<ellipse fill="none" stroke="#000000" cx="333" cy="-542.9458" rx="130.6784" ry="26"/>
<text text-anchor="middle" x="333" y="-539.2458" font-family="Times,serif" font-size="14.00" fill="#000000">loop_susp_adjoint_nat_r</text>
</a>
</g>
</g>
<!-- pSusp_loop_susp_adjoint_nat_r&#45;&gt;pSusp_loop_susp_adjoint -->
<g id="edge5" class="edge">
<title>pSusp_loop_susp_adjoint_nat_r&#45;&gt;pSusp_loop_susp_adjoint</title>
<path fill="none" stroke="#000000" d="M396.7788,-520.2332C445.1183,-503.0187 510.8265,-479.6191 556.6761,-463.2913"/>
<polygon fill="#000000" stroke="#000000" points="557.8988,-466.5713 566.1451,-459.9193 555.5504,-459.9769 557.8988,-466.5713"/>
</g>
<!-- pSusp_loop_susp_triangle2 -->
<g id="node7" class="node">
<title>pSusp_loop_susp_triangle2</title>
<g id="a_node7"><a xlink:href="pSusp.html#loop_susp_triangle2" xlink:title="loop_susp_triangle2">
<ellipse fill="#f070d1" stroke="#000000" cx="851" cy="-343.9458" rx="103.9815" ry="18"/>
<text text-anchor="middle" x="851" y="-340.2458" font-family="Times,serif" font-size="14.00" fill="#000000">loop_susp_triangle2</text>
</a>
</g>
</g>
<!-- pSusp_loop_susp_adjoint&#45;&gt;pSusp_loop_susp_triangle2 -->
<g id="edge6" class="edge">
<title>pSusp_loop_susp_adjoint&#45;&gt;pSusp_loop_susp_triangle2</title>
<path fill="none" stroke="#000000" d="M650.3624,-427.5448C691.6186,-410.3547 756.5424,-383.3031 801.3048,-364.6521"/>
<polygon fill="#000000" stroke="#000000" points="802.9305,-367.7664 810.8151,-360.6895 800.2382,-361.3049 802.9305,-367.7664"/>
</g>
<!-- pSusp_loop_susp_triangle1 -->
<g id="node8" class="node">
<title>pSusp_loop_susp_triangle1</title>
<g id="a_node8"><a xlink:href="pSusp.html#loop_susp_triangle1" xlink:title="loop_susp_triangle1">
<ellipse fill="#f070d1" stroke="#000000" cx="1077" cy="-343.9458" rx="103.9815" ry="18"/>
<text text-anchor="middle" x="1077" y="-340.2458" font-family="Times,serif" font-size="14.00" fill="#000000">loop_susp_triangle1</text>
</a>
</g>
</g>
<!-- pSusp_loop_susp_adjoint&#45;&gt;pSusp_loop_susp_triangle1 -->
<g id="edge7" class="edge">
<title>pSusp_loop_susp_adjoint&#45;&gt;pSusp_loop_susp_triangle1</title>
<path fill="none" stroke="#000000" d="M675.4952,-430.819C746.329,-416.3105 863.3976,-392.062 964,-369.9458 977.2897,-367.0242 991.4394,-363.8328 1005.0683,-360.7178"/>
<polygon fill="#000000" stroke="#000000" points="1005.9157,-364.1144 1014.8806,-358.468 1004.3513,-357.2914 1005.9157,-364.1144"/>
</g>
<!-- pSusp_loop_susp_counit_natural -->
<g id="node9" class="node">
<title>pSusp_loop_susp_counit_natural</title>
<g id="a_node9"><a xlink:href="pSusp.html#loop_susp_counit_natural" xlink:title="loop_susp_counit_natural">
<ellipse fill="#f070d1" stroke="#000000" cx="345" cy="-343.9458" rx="129.1772" ry="18"/>
<text text-anchor="middle" x="345" y="-340.2458" font-family="Times,serif" font-size="14.00" fill="#000000">loop_susp_counit_natural</text>
</a>
</g>
</g>
<!-- pSusp_loop_susp_adjoint&#45;&gt;pSusp_loop_susp_counit_natural -->
<g id="edge8" class="edge">
<title>pSusp_loop_susp_adjoint&#45;&gt;pSusp_loop_susp_counit_natural</title>
<path fill="none" stroke="#000000" d="M568.2625,-427.879C522.5525,-410.6948 449.9099,-383.3856 399.9723,-364.612"/>
<polygon fill="#000000" stroke="#000000" points="400.8943,-361.2195 390.3022,-360.9767 398.431,-367.7718 400.8943,-361.2195"/>
</g>
<!-- pSusp_loop_susp_unit_natural -->
<g id="node11" class="node">
<title>pSusp_loop_susp_unit_natural</title>
<g id="a_node11"><a xlink:href="pSusp.html#loop_susp_unit_natural" xlink:title="loop_susp_unit_natural">
<ellipse fill="#f070d1" stroke="#000000" cx="611" cy="-343.9458" rx="118.0794" ry="18"/>
<text text-anchor="middle" x="611" y="-340.2458" font-family="Times,serif" font-size="14.00" fill="#000000">loop_susp_unit_natural</text>
</a>
</g>
</g>
<!-- pSusp_loop_susp_adjoint&#45;&gt;pSusp_loop_susp_unit_natural -->
<g id="edge9" class="edge">
<title>pSusp_loop_susp_adjoint&#45;&gt;pSusp_loop_susp_unit_natural</title>
<path fill="none" stroke="#000000" d="M611,-425.6042C611,-410.6622 611,-389.3122 611,-372.1904"/>
<polygon fill="#000000" stroke="#000000" points="614.5001,-372.171 611,-362.171 607.5001,-372.1711 614.5001,-372.171"/>
</g>
<!-- pSusp_is1functor_psusp -->
<g id="node15" class="node">
<title>pSusp_is1functor_psusp</title>
<g id="a_node15"><a xlink:href="pSusp.html#is1functor_psusp" xlink:title="is1functor_psusp">
<ellipse fill="#f070d1" stroke="#000000" cx="107" cy="-343.9458" rx="90.9839" ry="18"/>
<text text-anchor="middle" x="107" y="-340.2458" font-family="Times,serif" font-size="14.00" fill="#000000">is1functor_psusp</text>
</a>
</g>
</g>
<!-- pSusp_loop_susp_adjoint&#45;&gt;pSusp_is1functor_psusp -->
<g id="edge10" class="edge">
<title>pSusp_loop_susp_adjoint&#45;&gt;pSusp_is1functor_psusp</title>
<path fill="none" stroke="#000000" d="M538.7968,-432.3599C457.7237,-418.9708 322.3981,-395.4802 207,-369.9458 194.9765,-367.2853 182.2105,-364.182 169.9648,-361.0648"/>
<polygon fill="#000000" stroke="#000000" points="170.8367,-357.6752 160.2797,-358.57 169.0905,-364.4539 170.8367,-357.6752"/>
</g>
<!-- pSusp_loop_susp_counit -->
<g id="node10" class="node">
<title>pSusp_loop_susp_counit</title>
<g id="a_node10"><a xlink:href="pSusp.html#loop_susp_counit" xlink:title="loop_susp_counit">
<ellipse fill="#f070d1" stroke="#000000" cx="666" cy="-230.9458" rx="90.9839" ry="18"/>
<text text-anchor="middle" x="666" y="-227.2458" font-family="Times,serif" font-size="14.00" fill="#000000">loop_susp_counit</text>
</a>
</g>
</g>
<!-- pSusp_loop_susp_triangle2&#45;&gt;pSusp_loop_susp_counit -->
<g id="edge11" class="edge">
<title>pSusp_loop_susp_triangle2&#45;&gt;pSusp_loop_susp_counit</title>
<path fill="none" stroke="#000000" d="M822.4992,-326.5372C790.3568,-306.9043 737.9925,-274.9196 702.7876,-253.416"/>
<polygon fill="#000000" stroke="#000000" points="704.588,-250.4145 694.2296,-248.1887 700.9391,-256.3883 704.588,-250.4145"/>
</g>
<!-- pSusp_loop_susp_unit -->
<g id="node14" class="node">
<title>pSusp_loop_susp_unit</title>
<g id="a_node14"><a xlink:href="pSusp.html#loop_susp_unit" xlink:title="loop_susp_unit">
<ellipse fill="#f070d1" stroke="#000000" cx="1077" cy="-230.9458" rx="79.8859" ry="18"/>
<text text-anchor="middle" x="1077" y="-227.2458" font-family="Times,serif" font-size="14.00" fill="#000000">loop_susp_unit</text>
</a>
</g>
</g>
<!-- pSusp_loop_susp_triangle2&#45;&gt;pSusp_loop_susp_unit -->
<g id="edge12" class="edge">
<title>pSusp_loop_susp_triangle2&#45;&gt;pSusp_loop_susp_unit</title>
<path fill="none" stroke="#000000" d="M899.1765,-327.9445C927.2283,-317.8968 962.8886,-303.8494 993,-287.9458 1011.4084,-278.2232 1030.7133,-265.337 1046.168,-254.2769"/>
<polygon fill="#000000" stroke="#000000" points="1048.2924,-257.0597 1054.3277,-248.3519 1044.1795,-251.3955 1048.2924,-257.0597"/>
</g>
<!-- pSusp_is0functor_psusp -->
<g id="node16" class="node">
<title>pSusp_is0functor_psusp</title>
<g id="a_node16"><a xlink:href="pSusp.html#is0functor_psusp" xlink:title="is0functor_psusp">
<ellipse fill="#f070d1" stroke="#000000" cx="466" cy="-230.9458" rx="90.9839" ry="18"/>
<text text-anchor="middle" x="466" y="-227.2458" font-family="Times,serif" font-size="14.00" fill="#000000">is0functor_psusp</text>
</a>
</g>
</g>
<!-- pSusp_loop_susp_triangle2&#45;&gt;pSusp_is0functor_psusp -->
<g id="edge13" class="edge">
<title>pSusp_loop_susp_triangle2&#45;&gt;pSusp_is0functor_psusp</title>
<path fill="none" stroke="#000000" d="M790.1387,-329.314C773.2898,-325.4348 754.9693,-321.3753 738,-317.9458 661.9393,-302.5737 639.0162,-314.2167 566,-287.9458 542.6251,-279.5356 518.3714,-265.8525 499.6042,-254.0007"/>
<polygon fill="#000000" stroke="#000000" points="501.4273,-251.0117 491.1258,-248.5357 497.6348,-256.8954 501.4273,-251.0117"/>
</g>
<!-- pSusp_loop_susp_triangle1&#45;&gt;pSusp_loop_susp_counit -->
<g id="edge14" class="edge">
<title>pSusp_loop_susp_triangle1&#45;&gt;pSusp_loop_susp_counit</title>
<path fill="none" stroke="#000000" d="M1017.0759,-329.2252C999.987,-325.2812 981.3091,-321.2107 964,-317.9458 874.3783,-301.0407 846.8721,-318.6673 761,-287.9458 738.4333,-279.8723 715.3271,-266.1534 697.5533,-254.1978"/>
<polygon fill="#000000" stroke="#000000" points="699.5035,-251.2911 689.2821,-248.5028 695.5337,-257.0567 699.5035,-251.2911"/>
</g>
<!-- pSusp_loop_susp_triangle1&#45;&gt;pSusp_loop_susp_unit -->
<g id="edge15" class="edge">
<title>pSusp_loop_susp_triangle1&#45;&gt;pSusp_loop_susp_unit</title>
<path fill="none" stroke="#000000" d="M1077,-325.7904C1077,-307.8334 1077,-280.0924 1077,-259.2427"/>
<polygon fill="#000000" stroke="#000000" points="1080.5001,-259.0561 1077,-249.0561 1073.5001,-259.0561 1080.5001,-259.0561"/>
</g>
<!-- pSusp_loop_susp_counit_natural&#45;&gt;pSusp_loop_susp_counit -->
<g id="edge16" class="edge">
<title>pSusp_loop_susp_counit_natural&#45;&gt;pSusp_loop_susp_counit</title>
<path fill="none" stroke="#000000" d="M423.0772,-329.5461C466.1299,-320.2806 520.0192,-306.4776 566,-287.9458 588.8809,-278.724 612.9483,-265.1414 631.7372,-253.5481"/>
<polygon fill="#000000" stroke="#000000" points="633.6289,-256.4932 640.2412,-248.215 629.9098,-250.5629 633.6289,-256.4932"/>
</g>
<!-- pSusp_loop_susp_counit_natural&#45;&gt;pSusp_is0functor_psusp -->
<g id="edge17" class="edge">
<title>pSusp_loop_susp_counit_natural&#45;&gt;pSusp_is0functor_psusp</title>
<path fill="none" stroke="#000000" d="M364.1728,-326.0406C384.5287,-307.0306 416.8409,-276.8546 439.597,-255.6031"/>
<polygon fill="#000000" stroke="#000000" points="441.9972,-258.1505 446.9169,-248.7672 437.2194,-253.0345 441.9972,-258.1505"/>
</g>
<!-- pSusp_loop_susp_counit&#45;&gt;pSusp_psusp -->
<g id="edge18" class="edge">
<title>pSusp_loop_susp_counit&#45;&gt;pSusp_psusp</title>
<path fill="none" stroke="#000000" d="M684.7719,-213.2465C701.9078,-197.0898 727.3573,-173.0946 746.17,-155.3569"/>
<polygon fill="#000000" stroke="#000000" points="748.9078,-157.586 753.7826,-148.1793 744.1057,-152.4929 748.9078,-157.586"/>
</g>
<!-- pSusp_loop_susp_unit_natural&#45;&gt;pSusp_loop_susp_unit -->
<g id="edge19" class="edge">
<title>pSusp_loop_susp_unit_natural&#45;&gt;pSusp_loop_susp_unit</title>
<path fill="none" stroke="#000000" d="M678.0334,-329.1149C697.3289,-325.1471 718.4462,-321.0917 738,-317.9458 850.6661,-299.8191 886.0663,-327.7879 993,-287.9458 1013.3442,-280.3658 1033.5597,-266.8822 1049.0595,-254.9318"/>
<polygon fill="#000000" stroke="#000000" points="1051.5047,-257.4593 1057.1563,-248.4977 1047.1497,-251.9789 1051.5047,-257.4593"/>
</g>
<!-- pSusp_loop_susp_unit_natural&#45;&gt;pSusp_is0functor_psusp -->
<g id="edge20" class="edge">
<title>pSusp_loop_susp_unit_natural&#45;&gt;pSusp_is0functor_psusp</title>
<path fill="none" stroke="#000000" d="M588.0243,-326.0406C563.2741,-306.7525 523.7736,-275.9694 496.4506,-254.6762"/>
<polygon fill="#000000" stroke="#000000" points="498.4309,-251.7822 488.3917,-248.3959 494.128,-257.3035 498.4309,-251.7822"/>
</g>
<!-- pSusp_pequiv_ptr_loop_psusp -->
<g id="node12" class="node">
<title>pSusp_pequiv_ptr_loop_psusp</title>
<g id="a_node12"><a xlink:href="pSusp.html#pequiv_ptr_loop_psusp" xlink:title="pequiv_ptr_loop_psusp">
<ellipse fill="#f070d1" stroke="#000000" cx="1325" cy="-343.9458" rx="117.7704" ry="18"/>
<ellipse fill="none" stroke="#000000" cx="1325" cy="-343.9458" rx="121.7748" ry="22"/>
<ellipse fill="none" stroke="#000000" cx="1325" cy="-343.9458" rx="125.7793" ry="26"/>
<text text-anchor="middle" x="1325" y="-340.2458" font-family="Times,serif" font-size="14.00" fill="#000000">pequiv_ptr_loop_psusp</text>
</a>
</g>
</g>
<!-- pSusp_conn_map_loop_susp_unit -->
<g id="node13" class="node">
<title>pSusp_conn_map_loop_susp_unit</title>
<g id="a_node13"><a xlink:href="pSusp.html#conn_map_loop_susp_unit" xlink:title="conn_map_loop_susp_unit">
<ellipse fill="#f070d1" stroke="#000000" cx="1319" cy="-230.9458" rx="131.8766" ry="18"/>
<text text-anchor="middle" x="1319" y="-227.2458" font-family="Times,serif" font-size="14.00" fill="#000000">conn_map_loop_susp_unit</text>
</a>
</g>
</g>
<!-- pSusp_pequiv_ptr_loop_psusp&#45;&gt;pSusp_conn_map_loop_susp_unit -->
<g id="edge21" class="edge">
<title>pSusp_pequiv_ptr_loop_psusp&#45;&gt;pSusp_conn_map_loop_susp_unit</title>
<path fill="none" stroke="#000000" d="M1323.6084,-317.7373C1322.6809,-300.2698 1321.4623,-277.3183 1320.5111,-259.4047"/>
<polygon fill="#000000" stroke="#000000" points="1323.9977,-259.0585 1319.9723,-249.2582 1317.0076,-259.4297 1323.9977,-259.0585"/>
</g>
<!-- pSusp_pequiv_ptr_loop_psusp&#45;&gt;pSusp_loop_susp_unit -->
<g id="edge22" class="edge">
<title>pSusp_pequiv_ptr_loop_psusp&#45;&gt;pSusp_loop_susp_unit</title>
<path fill="none" stroke="#000000" d="M1260.0927,-321.6023C1234.1921,-312.0728 1204.3286,-300.305 1178,-287.9458 1155.972,-277.6053 1132.2318,-264.324 1113.3057,-253.1834"/>
<polygon fill="#000000" stroke="#000000" points="1115.0867,-250.1704 1104.7019,-248.0716 1111.5112,-256.1884 1115.0867,-250.1704"/>
</g>
<!-- pSusp_loop_susp_unit&#45;&gt;pSusp_psusp -->
<g id="edge23" class="edge">
<title>pSusp_loop_susp_unit&#45;&gt;pSusp_psusp</title>
<path fill="none" stroke="#000000" d="M1039.6703,-214.9052C1025.2148,-208.9398 1008.4539,-202.3207 993,-196.9458 931.817,-175.666 859.6,-155.397 814.5434,-143.3132"/>
<polygon fill="#000000" stroke="#000000" points="815.3674,-139.9107 804.8031,-140.7151 813.5632,-146.6742 815.3674,-139.9107"/>
</g>
<!-- pSusp_is1functor_psusp&#45;&gt;pSusp_is0functor_psusp -->
<g id="edge24" class="edge">
<title>pSusp_is1functor_psusp&#45;&gt;pSusp_is0functor_psusp</title>
<path fill="none" stroke="#000000" d="M155.79,-328.5885C221.3402,-307.9557 337.6842,-271.3348 407.7477,-249.2814"/>
<polygon fill="#000000" stroke="#000000" points="408.8289,-252.6105 417.3167,-246.2695 406.7272,-245.9334 408.8289,-252.6105"/>
</g>
<!-- pSusp_is0functor_psusp&#45;&gt;pSusp_psusp -->
<g id="edge25" class="edge">
<title>pSusp_is0functor_psusp&#45;&gt;pSusp_psusp</title>
<path fill="none" stroke="#000000" d="M511.7335,-215.1745C528.7456,-209.3663 548.2303,-202.7831 566,-196.9458 622.3638,-178.4304 687.7372,-157.8577 729.2208,-144.9149"/>
<polygon fill="#000000" stroke="#000000" points="730.4707,-148.1915 738.9763,-141.8745 728.3878,-141.5085 730.4707,-148.1915"/>
</g>
<!-- pSusp_ispointed_susp -->
<g id="node20" class="node">
<title>pSusp_ispointed_susp</title>
<g id="a_node20"><a xlink:href="pSusp.html#ispointed_susp" xlink:title="ispointed_susp">
<ellipse fill="#f070d1" stroke="#000000" cx="771" cy="-41.9458" rx="79.8859" ry="18"/>
<text text-anchor="middle" x="771" y="-38.2458" font-family="Times,serif" font-size="14.00" fill="#000000">ispointed_susp</text>
</a>
</g>
</g>
<!-- pSusp_psusp&#45;&gt;pSusp_ispointed_susp -->
<g id="edge26" class="edge">
<title>pSusp_psusp&#45;&gt;pSusp_ispointed_susp</title>
<path fill="none" stroke="#000000" d="M771,-113.7329C771,-101.29 771,-84.551 771,-70.3668"/>
<polygon fill="#000000" stroke="#000000" points="774.5001,-70.1315 771,-60.1315 767.5001,-70.1316 774.5001,-70.1315"/>
</g>
<!-- pSusp_ispointed_path_susp_ -->
<g id="node18" class="node">
<title>pSusp_ispointed_path_susp_</title>
<g id="a_node18"><a xlink:href="pSusp.html#ispointed_path_susp'" xlink:title="ispointed_path_susp&#39;">
<ellipse fill="#f070d1" stroke="#000000" cx="562" cy="-652.9458" rx="108.578" ry="18"/>
<ellipse fill="none" stroke="#000000" cx="562" cy="-652.9458" rx="112.5794" ry="22"/>
<ellipse fill="none" stroke="#000000" cx="562" cy="-652.9458" rx="116.5808" ry="26"/>
<text text-anchor="middle" x="562" y="-649.2458" font-family="Times,serif" font-size="14.00" fill="#000000">ispointed_path_susp&#39;</text>
</a>
</g>
</g>
<!-- pSusp_ispointed_path_susp -->
<g id="node19" class="node">
<title>pSusp_ispointed_path_susp</title>
<g id="a_node19"><a xlink:href="pSusp.html#ispointed_path_susp" xlink:title="ispointed_path_susp">
<ellipse fill="#f070d1" stroke="#000000" cx="192" cy="-652.9458" rx="105.8854" ry="18"/>
<ellipse fill="none" stroke="#000000" cx="192" cy="-652.9458" rx="109.8833" ry="22"/>
<ellipse fill="none" stroke="#000000" cx="192" cy="-652.9458" rx="113.8812" ry="26"/>
<text text-anchor="middle" x="192" y="-649.2458" font-family="Times,serif" font-size="14.00" fill="#000000">ispointed_path_susp</text>
</a>
</g>
</g>
</g>
</svg>
