<?xml version="1.0" encoding="UTF-8" standalone="no"?>
<!DOCTYPE svg PUBLIC "-//W3C//DTD SVG 1.1//EN"
 "http://www.w3.org/Graphics/SVG/1.1/DTD/svg11.dtd">
<!-- Generated by graphviz version 2.40.1 (20161225.0304)
 -->
<!-- Title: HoTT_Colimits_Quotient_Choice Pages: 1 -->
<svg width="1415pt" height="712pt"
 viewBox="0.00 0.00 1415.00 711.50" xmlns="http://www.w3.org/2000/svg" xmlns:xlink="http://www.w3.org/1999/xlink">
<g id="graph0" class="graph" transform="scale(1 1) rotate(0) translate(4 707.5)">
<title>HoTT_Colimits_Quotient_Choice</title>
<polygon fill="#ffffff" stroke="transparent" points="-4,4 -4,-707.5 1411,-707.5 1411,4 -4,4"/>
<g id="clust1" class="cluster">
<title>cluster_Choice</title>
<polygon fill="#ffffc3" stroke="#000000" points="8,-9.8564 8,-693.6436 1399,-693.6436 1399,-9.8564 8,-9.8564"/>
<text text-anchor="middle" x="41" y="-678.4436" font-family="Times,serif" font-size="14.00" fill="#000000">Choice</text>
</g>
<!-- Choice_choose_quotient_rec_compute -->
<g id="node1" class="node">
<title>Choice_choose_quotient_rec_compute</title>
<g id="a_node1"><a xlink:href="Choice.html#choose_quotient_rec_compute" xlink:title="choose_quotient_rec_compute">
<ellipse fill="#f070d1" stroke="#000000" cx="1119" cy="-623.8564" rx="152.1687" ry="18"/>
<ellipse fill="none" stroke="#000000" cx="1119" cy="-623.8564" rx="156.1709" ry="22"/>
<ellipse fill="none" stroke="#000000" cx="1119" cy="-623.8564" rx="160.1731" ry="26"/>
<text text-anchor="middle" x="1119" y="-620.1564" font-family="Times,serif" font-size="14.00" fill="#000000">choose_quotient_rec_compute</text>
</a>
</g>
</g>
<!-- Choice_choose_quotient_ind_compute -->
<g id="node2" class="node">
<title>Choice_choose_quotient_ind_compute</title>
<g id="a_node2"><a xlink:href="Choice.html#choose_quotient_ind_compute" xlink:title="choose_quotient_ind_compute">
<ellipse fill="#f070d1" stroke="#000000" cx="1008" cy="-514.8564" rx="151.3732" ry="18"/>
<text text-anchor="middle" x="1008" y="-511.1564" font-family="Times,serif" font-size="14.00" fill="#000000">choose_quotient_ind_compute</text>
</a>
</g>
</g>
<!-- Choice_choose_quotient_rec_compute&#45;&gt;Choice_choose_quotient_ind_compute -->
<g id="edge1" class="edge">
<title>Choice_choose_quotient_rec_compute&#45;&gt;Choice_choose_quotient_ind_compute</title>
<path fill="none" stroke="#000000" d="M1092.6945,-598.0249C1074.856,-580.5078 1051.3923,-557.4668 1033.686,-540.0796"/>
<polygon fill="#000000" stroke="#000000" points="1036.0706,-537.5159 1026.4832,-533.0066 1031.166,-542.5104 1036.0706,-537.5159"/>
</g>
<!-- Choice_choose_quotient_rec -->
<g id="node3" class="node">
<title>Choice_choose_quotient_rec</title>
<g id="a_node3"><a xlink:href="Choice.html#choose_quotient_rec" xlink:title="choose_quotient_rec">
<ellipse fill="#f070d1" stroke="#000000" cx="1284" cy="-514.8564" rx="106.6812" ry="18"/>
<text text-anchor="middle" x="1284" y="-511.1564" font-family="Times,serif" font-size="14.00" fill="#000000">choose_quotient_rec</text>
</a>
</g>
</g>
<!-- Choice_choose_quotient_rec_compute&#45;&gt;Choice_choose_quotient_rec -->
<g id="edge2" class="edge">
<title>Choice_choose_quotient_rec_compute&#45;&gt;Choice_choose_quotient_rec</title>
<path fill="none" stroke="#000000" d="M1157.269,-598.5756C1185.0159,-580.2459 1222.2398,-555.6556 1249.1597,-537.8721"/>
<polygon fill="#000000" stroke="#000000" points="1251.0982,-540.7863 1257.5128,-532.354 1247.2398,-534.9457 1251.0982,-540.7863"/>
</g>
<!-- Choice_choose_quotient_ind -->
<g id="node5" class="node">
<title>Choice_choose_quotient_ind</title>
<g id="a_node5"><a xlink:href="Choice.html#choose_quotient_ind" xlink:title="choose_quotient_ind">
<ellipse fill="#f070d1" stroke="#000000" cx="1245" cy="-406.8564" rx="106.6812" ry="18"/>
<text text-anchor="middle" x="1245" y="-403.1564" font-family="Times,serif" font-size="14.00" fill="#000000">choose_quotient_ind</text>
</a>
</g>
</g>
<!-- Choice_choose_quotient_ind_compute&#45;&gt;Choice_choose_quotient_ind -->
<g id="edge3" class="edge">
<title>Choice_choose_quotient_ind_compute&#45;&gt;Choice_choose_quotient_ind</title>
<path fill="none" stroke="#000000" d="M1046.3416,-497.3843C1087.9264,-478.4342 1154.3046,-448.186 1198.7507,-427.932"/>
<polygon fill="#000000" stroke="#000000" points="1200.237,-431.1011 1207.8853,-423.7694 1197.3342,-424.7313 1200.237,-431.1011"/>
</g>
<!-- Choice_choose_quotient_rec&#45;&gt;Choice_choose_quotient_ind -->
<g id="edge4" class="edge">
<title>Choice_choose_quotient_rec&#45;&gt;Choice_choose_quotient_ind</title>
<path fill="none" stroke="#000000" d="M1277.3842,-496.5357C1271.2401,-479.5213 1262.0071,-453.9531 1254.97,-434.4655"/>
<polygon fill="#000000" stroke="#000000" points="1258.2066,-433.1233 1251.5181,-424.9066 1251.6227,-435.5009 1258.2066,-433.1233"/>
</g>
<!-- Choice_choose_quotient_ind_prop -->
<g id="node4" class="node">
<title>Choice_choose_quotient_ind_prop</title>
<g id="a_node4"><a xlink:href="Choice.html#choose_quotient_ind_prop" xlink:title="choose_quotient_ind_prop">
<ellipse fill="#f070d1" stroke="#000000" cx="698" cy="-514.8564" rx="132.6715" ry="18"/>
<ellipse fill="none" stroke="#000000" cx="698" cy="-514.8564" rx="136.674" ry="22"/>
<ellipse fill="none" stroke="#000000" cx="698" cy="-514.8564" rx="140.6765" ry="26"/>
<text text-anchor="middle" x="698" y="-511.1564" font-family="Times,serif" font-size="14.00" fill="#000000">choose_quotient_ind_prop</text>
</a>
</g>
</g>
<!-- Choice_choose_quotient_ind_prop&#45;&gt;Choice_choose_quotient_ind -->
<g id="edge5" class="edge">
<title>Choice_choose_quotient_ind_prop&#45;&gt;Choice_choose_quotient_ind</title>
<path fill="none" stroke="#000000" d="M794.2196,-495.8587C899.7291,-475.0269 1067.0883,-441.9834 1165.4648,-422.5599"/>
<polygon fill="#000000" stroke="#000000" points="1166.2185,-425.9787 1175.3511,-420.6079 1164.8625,-419.1113 1166.2185,-425.9787"/>
</g>
<!-- Choice_chooseprop_quotient_ind -->
<g id="node6" class="node">
<title>Choice_chooseprop_quotient_ind</title>
<g id="a_node6"><a xlink:href="Choice.html#chooseprop_quotient_ind" xlink:title="chooseprop_quotient_ind">
<ellipse fill="#f070d1" stroke="#000000" cx="1263" cy="-307.8564" rx="128.0773" ry="18"/>
<text text-anchor="middle" x="1263" y="-304.1564" font-family="Times,serif" font-size="14.00" fill="#000000">chooseprop_quotient_ind</text>
</a>
</g>
</g>
<!-- Choice_choose_quotient_ind&#45;&gt;Choice_chooseprop_quotient_ind -->
<g id="edge6" class="edge">
<title>Choice_choose_quotient_ind&#45;&gt;Choice_chooseprop_quotient_ind</title>
<path fill="none" stroke="#000000" d="M1248.3015,-388.6983C1250.991,-373.9056 1254.834,-352.7692 1257.916,-335.8185"/>
<polygon fill="#000000" stroke="#000000" points="1261.3741,-336.3642 1259.7195,-325.8994 1254.487,-335.112 1261.3741,-336.3642"/>
</g>
<!-- Choice_ishprop_choose_quotient_ind_chooseprop -->
<g id="node7" class="node">
<title>Choice_ishprop_choose_quotient_ind_chooseprop</title>
<g id="a_node7"><a xlink:href="Choice.html#ishprop_choose_quotient_ind_chooseprop" xlink:title="ishprop_choose_quotient_ind_chooseprop">
<ellipse fill="#f070d1" stroke="#000000" cx="1186" cy="-218.8564" rx="204.9639" ry="18"/>
<text text-anchor="middle" x="1186" y="-215.1564" font-family="Times,serif" font-size="14.00" fill="#000000">ishprop_choose_quotient_ind_chooseprop</text>
</a>
</g>
</g>
<!-- Choice_chooseprop_quotient_ind&#45;&gt;Choice_ishprop_choose_quotient_ind_chooseprop -->
<g id="edge7" class="edge">
<title>Choice_chooseprop_quotient_ind&#45;&gt;Choice_ishprop_choose_quotient_ind_chooseprop</title>
<path fill="none" stroke="#000000" d="M1247.4179,-289.8459C1236.1461,-276.8175 1220.7536,-259.0262 1208.1981,-244.514"/>
<polygon fill="#000000" stroke="#000000" points="1210.7487,-242.1126 1201.5589,-236.8401 1205.4549,-246.6926 1210.7487,-242.1126"/>
</g>
<!-- Choice_has_quotient_choice_tr0choice -->
<g id="node12" class="node">
<title>Choice_has_quotient_choice_tr0choice</title>
<g id="a_node12"><a xlink:href="Choice.html#has_quotient_choice_tr0choice" xlink:title="has_quotient_choice_tr0choice">
<ellipse fill="#f070d1" stroke="#000000" cx="808" cy="-218.8564" rx="155.1726" ry="18"/>
<text text-anchor="middle" x="808" y="-215.1564" font-family="Times,serif" font-size="14.00" fill="#000000">has_quotient_choice_tr0choice</text>
</a>
</g>
</g>
<!-- Choice_chooseprop_quotient_ind&#45;&gt;Choice_has_quotient_choice_tr0choice -->
<g id="edge8" class="edge">
<title>Choice_chooseprop_quotient_ind&#45;&gt;Choice_has_quotient_choice_tr0choice</title>
<path fill="none" stroke="#000000" d="M1188.1209,-293.2097C1108.4092,-277.6177 982.3026,-252.9507 897.4294,-236.3492"/>
<polygon fill="#000000" stroke="#000000" points="898.0333,-232.9011 887.5474,-234.4162 896.6895,-239.7709 898.0333,-232.9011"/>
</g>
<!-- Choice_ChooseProp -->
<g id="node8" class="node">
<title>Choice_ChooseProp</title>
<g id="a_node8"><a xlink:href="Choice.html#ChooseProp" xlink:title="ChooseProp">
<ellipse fill="#f070d1" stroke="#000000" cx="1186" cy="-130.8564" rx="66.8882" ry="18"/>
<text text-anchor="middle" x="1186" y="-127.1564" font-family="Times,serif" font-size="14.00" fill="#000000">ChooseProp</text>
</a>
</g>
</g>
<!-- Choice_ishprop_choose_quotient_ind_chooseprop&#45;&gt;Choice_ChooseProp -->
<g id="edge9" class="edge">
<title>Choice_ishprop_choose_quotient_ind_chooseprop&#45;&gt;Choice_ChooseProp</title>
<path fill="none" stroke="#000000" d="M1186,-200.6227C1186,-188.7055 1186,-172.8948 1186,-159.3381"/>
<polygon fill="#000000" stroke="#000000" points="1189.5001,-159.0667 1186,-149.0667 1182.5001,-159.0667 1189.5001,-159.0667"/>
</g>
<!-- Choice_qglue_forall -->
<g id="node9" class="node">
<title>Choice_qglue_forall</title>
<g id="a_node9"><a xlink:href="Choice.html#qglue_forall" xlink:title="qglue_forall">
<ellipse fill="#f070d1" stroke="#000000" cx="1186" cy="-41.8564" rx="65.7887" ry="18"/>
<text text-anchor="middle" x="1186" y="-38.1564" font-family="Times,serif" font-size="14.00" fill="#000000">qglue_forall</text>
</a>
</g>
</g>
<!-- Choice_ChooseProp&#45;&gt;Choice_qglue_forall -->
<g id="edge10" class="edge">
<title>Choice_ChooseProp&#45;&gt;Choice_qglue_forall</title>
<path fill="none" stroke="#000000" d="M1186,-112.8459C1186,-100.6222 1186,-84.2059 1186,-70.2388"/>
<polygon fill="#000000" stroke="#000000" points="1189.5001,-70.1455 1186,-60.1456 1182.5001,-70.1456 1189.5001,-70.1455"/>
</g>
<!-- Choice_equiv_has_tr0_choice_has_quotient_choice -->
<g id="node10" class="node">
<title>Choice_equiv_has_tr0_choice_has_quotient_choice</title>
<g id="a_node10"><a xlink:href="Choice.html#equiv_has_tr0_choice_has_quotient_choice" xlink:title="equiv_has_tr0_choice_has_quotient_choice">
<ellipse fill="#f070d1" stroke="#000000" cx="884" cy="-406.8564" rx="211.4543" ry="18"/>
<ellipse fill="none" stroke="#000000" cx="884" cy="-406.8564" rx="215.4585" ry="22"/>
<ellipse fill="none" stroke="#000000" cx="884" cy="-406.8564" rx="219.4628" ry="26"/>
<text text-anchor="middle" x="884" y="-403.1564" font-family="Times,serif" font-size="14.00" fill="#000000">equiv_has_tr0_choice_has_quotient_choice</text>
</a>
</g>
</g>
<!-- Choice_isequiv_has_tr0_choice_to_has_quotient_choice -->
<g id="node11" class="node">
<title>Choice_isequiv_has_tr0_choice_to_has_quotient_choice</title>
<g id="a_node11"><a xlink:href="Choice.html#isequiv_has_tr0_choice_to_has_quotient_choice" xlink:title="isequiv_has_tr0_choice_to_has_quotient_choice">
<ellipse fill="#f070d1" stroke="#000000" cx="884" cy="-307.8564" rx="233.1587" ry="18"/>
<text text-anchor="middle" x="884" y="-304.1564" font-family="Times,serif" font-size="14.00" fill="#000000">isequiv_has_tr0_choice_to_has_quotient_choice</text>
</a>
</g>
</g>
<!-- Choice_equiv_has_tr0_choice_has_quotient_choice&#45;&gt;Choice_isequiv_has_tr0_choice_to_has_quotient_choice -->
<g id="edge11" class="edge">
<title>Choice_equiv_has_tr0_choice_has_quotient_choice&#45;&gt;Choice_isequiv_has_tr0_choice_to_has_quotient_choice</title>
<path fill="none" stroke="#000000" d="M884,-380.8453C884,-367.0583 884,-350.1066 884,-336.0111"/>
<polygon fill="#000000" stroke="#000000" points="887.5001,-335.8886 884,-325.8886 880.5001,-335.8887 887.5001,-335.8886"/>
</g>
<!-- Choice_isequiv_has_tr0_choice_to_has_quotient_choice&#45;&gt;Choice_has_quotient_choice_tr0choice -->
<g id="edge12" class="edge">
<title>Choice_isequiv_has_tr0_choice_to_has_quotient_choice&#45;&gt;Choice_has_quotient_choice_tr0choice</title>
<path fill="none" stroke="#000000" d="M868.6203,-289.8459C857.4949,-276.8175 842.3023,-259.0262 829.9098,-244.514"/>
<polygon fill="#000000" stroke="#000000" points="832.5123,-242.1719 823.3569,-236.8401 827.1891,-246.7176 832.5123,-242.1719"/>
</g>
<!-- Choice_has_tr0_choice_quotientchoice -->
<g id="node13" class="node">
<title>Choice_has_tr0_choice_quotientchoice</title>
<g id="a_node13"><a xlink:href="Choice.html#has_tr0_choice_quotientchoice" xlink:title="has_tr0_choice_quotientchoice">
<ellipse fill="#f070d1" stroke="#000000" cx="479" cy="-218.8564" rx="155.1726" ry="18"/>
<text text-anchor="middle" x="479" y="-215.1564" font-family="Times,serif" font-size="14.00" fill="#000000">has_tr0_choice_quotientchoice</text>
</a>
</g>
</g>
<!-- Choice_isequiv_has_tr0_choice_to_has_quotient_choice&#45;&gt;Choice_has_tr0_choice_quotientchoice -->
<g id="edge13" class="edge">
<title>Choice_isequiv_has_tr0_choice_to_has_quotient_choice&#45;&gt;Choice_has_tr0_choice_quotientchoice</title>
<path fill="none" stroke="#000000" d="M806.3911,-290.8016C736.1937,-275.3755 633.146,-252.7304 561.4788,-236.9814"/>
<polygon fill="#000000" stroke="#000000" points="562.0994,-233.5343 551.5812,-234.8063 560.5969,-240.3712 562.0994,-233.5343"/>
</g>
<!-- Choice_HasQuotientChoice -->
<g id="node26" class="node">
<title>Choice_HasQuotientChoice</title>
<g id="a_node26"><a xlink:href="Choice.html#HasQuotientChoice" xlink:title="HasQuotientChoice">
<ellipse fill="#f070d1" stroke="#000000" cx="994" cy="-130.8564" rx="102.8821" ry="18"/>
<text text-anchor="middle" x="994" y="-127.1564" font-family="Times,serif" font-size="14.00" fill="#000000">HasQuotientChoice</text>
</a>
</g>
</g>
<!-- Choice_has_quotient_choice_tr0choice&#45;&gt;Choice_HasQuotientChoice -->
<g id="edge14" class="edge">
<title>Choice_has_quotient_choice_tr0choice&#45;&gt;Choice_HasQuotientChoice</title>
<path fill="none" stroke="#000000" d="M845.1928,-201.2598C875.1047,-187.1079 917.2391,-167.1734 949.0415,-152.1271"/>
<polygon fill="#000000" stroke="#000000" points="950.5931,-155.265 958.1356,-147.8245 947.5994,-148.9375 950.5931,-155.265"/>
</g>
<!-- Choice_ishprop_quotient_relunit -->
<g id="node14" class="node">
<title>Choice_ishprop_quotient_relunit</title>
<g id="a_node14"><a xlink:href="Choice.html#ishprop_quotient_relunit" xlink:title="ishprop_quotient_relunit">
<ellipse fill="#f070d1" stroke="#000000" cx="747" cy="-130.8564" rx="126.1777" ry="18"/>
<text text-anchor="middle" x="747" y="-127.1564" font-family="Times,serif" font-size="14.00" fill="#000000">ishprop_quotient_relunit</text>
</a>
</g>
</g>
<!-- Choice_has_tr0_choice_quotientchoice&#45;&gt;Choice_ishprop_quotient_relunit -->
<g id="edge15" class="edge">
<title>Choice_has_tr0_choice_quotientchoice&#45;&gt;Choice_ishprop_quotient_relunit</title>
<path fill="none" stroke="#000000" d="M530.9909,-201.7848C575.6135,-187.1326 639.9503,-166.007 686.7982,-150.6241"/>
<polygon fill="#000000" stroke="#000000" points="688.1072,-153.8782 696.5162,-147.4332 685.9234,-147.2276 688.1072,-153.8782"/>
</g>
<!-- Choice_transitive_relunit -->
<g id="node15" class="node">
<title>Choice_transitive_relunit</title>
<g id="a_node15"><a xlink:href="Choice.html#transitive_relunit" xlink:title="transitive_relunit">
<ellipse fill="#f070d1" stroke="#000000" cx="108" cy="-130.8564" rx="91.784" ry="18"/>
<text text-anchor="middle" x="108" y="-127.1564" font-family="Times,serif" font-size="14.00" fill="#000000">transitive_relunit</text>
</a>
</g>
</g>
<!-- Choice_has_tr0_choice_quotientchoice&#45;&gt;Choice_transitive_relunit -->
<g id="edge16" class="edge">
<title>Choice_has_tr0_choice_quotientchoice&#45;&gt;Choice_transitive_relunit</title>
<path fill="none" stroke="#000000" d="M410.5205,-202.6133C343.9054,-186.8124 243.26,-162.9396 176.6029,-147.1288"/>
<polygon fill="#000000" stroke="#000000" points="177.1531,-143.6622 166.6153,-144.7598 175.5375,-150.4733 177.1531,-143.6622"/>
</g>
<!-- Choice_symmetric_relunit -->
<g id="node16" class="node">
<title>Choice_symmetric_relunit</title>
<g id="a_node16"><a xlink:href="Choice.html#symmetric_relunit" xlink:title="symmetric_relunit">
<ellipse fill="#f070d1" stroke="#000000" cx="314" cy="-130.8564" rx="96.6831" ry="18"/>
<text text-anchor="middle" x="314" y="-127.1564" font-family="Times,serif" font-size="14.00" fill="#000000">symmetric_relunit</text>
</a>
</g>
</g>
<!-- Choice_has_tr0_choice_quotientchoice&#45;&gt;Choice_symmetric_relunit -->
<g id="edge17" class="edge">
<title>Choice_has_tr0_choice_quotientchoice&#45;&gt;Choice_symmetric_relunit</title>
<path fill="none" stroke="#000000" d="M446.0064,-201.2598C419.8978,-187.3352 383.2921,-167.8122 355.2488,-152.8558"/>
<polygon fill="#000000" stroke="#000000" points="356.5649,-149.591 346.0943,-147.9733 353.2707,-155.7675 356.5649,-149.591"/>
</g>
<!-- Choice_reflexive_relunit -->
<g id="node17" class="node">
<title>Choice_reflexive_relunit</title>
<g id="a_node17"><a xlink:href="Choice.html#reflexive_relunit" xlink:title="reflexive_relunit">
<ellipse fill="#f070d1" stroke="#000000" cx="516" cy="-130.8564" rx="87.1846" ry="18"/>
<text text-anchor="middle" x="516" y="-127.1564" font-family="Times,serif" font-size="14.00" fill="#000000">reflexive_relunit</text>
</a>
</g>
</g>
<!-- Choice_has_tr0_choice_quotientchoice&#45;&gt;Choice_reflexive_relunit -->
<g id="edge18" class="edge">
<title>Choice_has_tr0_choice_quotientchoice&#45;&gt;Choice_reflexive_relunit</title>
<path fill="none" stroke="#000000" d="M486.6664,-200.6227C491.7763,-188.4696 498.5887,-172.2671 504.3622,-158.5355"/>
<polygon fill="#000000" stroke="#000000" points="507.6939,-159.6416 508.3434,-149.0667 501.241,-156.9284 507.6939,-159.6416"/>
</g>
<!-- Choice_has_tr0_choice_quotientchoice&#45;&gt;Choice_HasQuotientChoice -->
<g id="edge19" class="edge">
<title>Choice_has_tr0_choice_quotientchoice&#45;&gt;Choice_HasQuotientChoice</title>
<path fill="none" stroke="#000000" d="M566.3627,-203.9284C662.4426,-187.5109 815.7234,-161.3192 910.3136,-145.1562"/>
<polygon fill="#000000" stroke="#000000" points="911.1465,-148.5647 920.4141,-143.4303 909.9674,-141.6647 911.1465,-148.5647"/>
</g>
<!-- Choice_RelUnit -->
<g id="node18" class="node">
<title>Choice_RelUnit</title>
<g id="a_node18"><a xlink:href="Choice.html#RelUnit" xlink:title="RelUnit">
<ellipse fill="#f070d1" stroke="#000000" cx="415" cy="-41.8564" rx="46.2923" ry="18"/>
<text text-anchor="middle" x="415" y="-38.1564" font-family="Times,serif" font-size="14.00" fill="#000000">RelUnit</text>
</a>
</g>
</g>
<!-- Choice_ishprop_quotient_relunit&#45;&gt;Choice_RelUnit -->
<g id="edge20" class="edge">
<title>Choice_ishprop_quotient_relunit&#45;&gt;Choice_RelUnit</title>
<path fill="none" stroke="#000000" d="M687.6451,-114.945C623.4669,-97.7406 522.4082,-70.6496 463.0275,-54.7312"/>
<polygon fill="#000000" stroke="#000000" points="463.7207,-51.2936 453.1555,-52.0848 461.9082,-58.0548 463.7207,-51.2936"/>
</g>
<!-- Choice_transitive_relunit&#45;&gt;Choice_RelUnit -->
<g id="edge21" class="edge">
<title>Choice_transitive_relunit&#45;&gt;Choice_RelUnit</title>
<path fill="none" stroke="#000000" d="M159.7312,-115.8594C217.9262,-98.9885 311.6398,-71.8207 367.8759,-55.5178"/>
<polygon fill="#000000" stroke="#000000" points="368.9543,-58.8493 377.5843,-52.7033 367.0052,-52.1262 368.9543,-58.8493"/>
</g>
<!-- Choice_symmetric_relunit&#45;&gt;Choice_RelUnit -->
<g id="edge22" class="edge">
<title>Choice_symmetric_relunit&#45;&gt;Choice_RelUnit</title>
<path fill="none" stroke="#000000" d="M334.4389,-112.8459C349.9931,-99.1397 371.5294,-80.1622 388.4217,-65.2769"/>
<polygon fill="#000000" stroke="#000000" points="391.1059,-67.5766 396.2947,-58.3393 386.478,-62.3247 391.1059,-67.5766"/>
</g>
<!-- Choice_reflexive_relunit&#45;&gt;Choice_RelUnit -->
<g id="edge23" class="edge">
<title>Choice_reflexive_relunit&#45;&gt;Choice_RelUnit</title>
<path fill="none" stroke="#000000" d="M496.0457,-113.2729C480.5325,-99.6029 458.8594,-80.5048 441.8285,-65.4973"/>
<polygon fill="#000000" stroke="#000000" points="443.7048,-62.4857 433.8881,-58.5004 439.0769,-67.7376 443.7048,-62.4857"/>
</g>
<!-- Choice_choose -->
<g id="node19" class="node">
<title>Choice_choose</title>
<g id="a_node19"><a xlink:href="Choice.html#choose" xlink:title="choose">
<ellipse fill="#f070d1" stroke="#000000" cx="315" cy="-623.8564" rx="42.8089" ry="18"/>
<ellipse fill="none" stroke="#000000" cx="315" cy="-623.8564" rx="46.8007" ry="22"/>
<ellipse fill="none" stroke="#000000" cx="315" cy="-623.8564" rx="50.7926" ry="26"/>
<text text-anchor="middle" x="315" y="-620.1564" font-family="Times,serif" font-size="14.00" fill="#000000">choose</text>
</a>
</g>
</g>
<!-- Choice_prechoose -->
<g id="node20" class="node">
<title>Choice_prechoose</title>
<g id="a_node20"><a xlink:href="Choice.html#prechoose" xlink:title="prechoose">
<ellipse fill="#f070d1" stroke="#000000" cx="315" cy="-514.8564" rx="58.4896" ry="18"/>
<text text-anchor="middle" x="315" y="-511.1564" font-family="Times,serif" font-size="14.00" fill="#000000">prechoose</text>
</a>
</g>
</g>
<!-- Choice_choose&#45;&gt;Choice_prechoose -->
<g id="edge24" class="edge">
<title>Choice_choose&#45;&gt;Choice_prechoose</title>
<path fill="none" stroke="#000000" d="M315,-597.7482C315,-581.3188 315,-560.1135 315,-543.2636"/>
<polygon fill="#000000" stroke="#000000" points="318.5001,-542.9138 315,-532.9138 311.5001,-542.9138 318.5001,-542.9138"/>
</g>
<!-- Choice_hprop_choose_cod -->
<g id="node21" class="node">
<title>Choice_hprop_choose_cod</title>
<g id="a_node21"><a xlink:href="Choice.html#hprop_choose_cod" xlink:title="hprop_choose_cod">
<ellipse fill="#f070d1" stroke="#000000" cx="315" cy="-406.8564" rx="96.6831" ry="18"/>
<text text-anchor="middle" x="315" y="-403.1564" font-family="Times,serif" font-size="14.00" fill="#000000">hprop_choose_cod</text>
</a>
</g>
</g>
<!-- Choice_prechoose&#45;&gt;Choice_hprop_choose_cod -->
<g id="edge25" class="edge">
<title>Choice_prechoose&#45;&gt;Choice_hprop_choose_cod</title>
<path fill="none" stroke="#000000" d="M315,-496.5357C315,-479.6773 315,-454.4215 315,-435.0034"/>
<polygon fill="#000000" stroke="#000000" points="318.5001,-434.9065 315,-424.9066 311.5001,-434.9066 318.5001,-434.9065"/>
</g>
<!-- Choice_transitive_relclass -->
<g id="node22" class="node">
<title>Choice_transitive_relclass</title>
<g id="a_node22"><a xlink:href="Choice.html#transitive_relclass" xlink:title="transitive_relclass">
<ellipse fill="#f070d1" stroke="#000000" cx="315" cy="-307.8564" rx="96.6831" ry="18"/>
<text text-anchor="middle" x="315" y="-304.1564" font-family="Times,serif" font-size="14.00" fill="#000000">transitive_relclass</text>
</a>
</g>
</g>
<!-- Choice_hprop_choose_cod&#45;&gt;Choice_transitive_relclass -->
<g id="edge26" class="edge">
<title>Choice_hprop_choose_cod&#45;&gt;Choice_transitive_relclass</title>
<path fill="none" stroke="#000000" d="M315,-388.6983C315,-374.0452 315,-353.1674 315,-336.2994"/>
<polygon fill="#000000" stroke="#000000" points="318.5001,-335.8994 315,-325.8994 311.5001,-335.8994 318.5001,-335.8994"/>
</g>
<!-- Choice_symmetric_relclass -->
<g id="node23" class="node">
<title>Choice_symmetric_relclass</title>
<g id="a_node23"><a xlink:href="Choice.html#symmetric_relclass" xlink:title="symmetric_relclass">
<ellipse fill="#f070d1" stroke="#000000" cx="531" cy="-307.8564" rx="101.2821" ry="18"/>
<text text-anchor="middle" x="531" y="-304.1564" font-family="Times,serif" font-size="14.00" fill="#000000">symmetric_relclass</text>
</a>
</g>
</g>
<!-- Choice_hprop_choose_cod&#45;&gt;Choice_symmetric_relclass -->
<g id="edge27" class="edge">
<title>Choice_hprop_choose_cod&#45;&gt;Choice_symmetric_relclass</title>
<path fill="none" stroke="#000000" d="M351.6415,-390.0624C388.4132,-373.2087 445.1616,-347.199 484.9543,-328.9606"/>
<polygon fill="#000000" stroke="#000000" points="486.5465,-332.0811 494.1788,-324.7328 483.6298,-325.7177 486.5465,-332.0811"/>
</g>
<!-- Choice_reflexive_relclass -->
<g id="node24" class="node">
<title>Choice_reflexive_relclass</title>
<g id="a_node24"><a xlink:href="Choice.html#reflexive_relclass" xlink:title="reflexive_relclass">
<ellipse fill="#f070d1" stroke="#000000" cx="108" cy="-307.8564" rx="92.0841" ry="18"/>
<text text-anchor="middle" x="108" y="-304.1564" font-family="Times,serif" font-size="14.00" fill="#000000">reflexive_relclass</text>
</a>
</g>
</g>
<!-- Choice_hprop_choose_cod&#45;&gt;Choice_reflexive_relclass -->
<g id="edge28" class="edge">
<title>Choice_hprop_choose_cod&#45;&gt;Choice_reflexive_relclass</title>
<path fill="none" stroke="#000000" d="M279.8853,-390.0624C244.688,-373.2289 190.3925,-347.2615 152.2647,-329.0264"/>
<polygon fill="#000000" stroke="#000000" points="153.4724,-325.7244 142.9409,-324.5673 150.4522,-332.0394 153.4724,-325.7244"/>
</g>
<!-- Choice_RelClassEquiv -->
<g id="node25" class="node">
<title>Choice_RelClassEquiv</title>
<g id="a_node25"><a xlink:href="Choice.html#RelClassEquiv" xlink:title="RelClassEquiv">
<ellipse fill="#f070d1" stroke="#000000" cx="228" cy="-218.8564" rx="77.9862" ry="18"/>
<text text-anchor="middle" x="228" y="-215.1564" font-family="Times,serif" font-size="14.00" fill="#000000">RelClassEquiv</text>
</a>
</g>
</g>
<!-- Choice_transitive_relclass&#45;&gt;Choice_RelClassEquiv -->
<g id="edge29" class="edge">
<title>Choice_transitive_relclass&#45;&gt;Choice_RelClassEquiv</title>
<path fill="none" stroke="#000000" d="M297.3943,-289.8459C284.4561,-276.6103 266.7129,-258.4592 252.4068,-243.8243"/>
<polygon fill="#000000" stroke="#000000" points="254.7758,-241.2407 245.2827,-236.5364 249.7701,-246.1339 254.7758,-241.2407"/>
</g>
<!-- Choice_symmetric_relclass&#45;&gt;Choice_RelClassEquiv -->
<g id="edge30" class="edge">
<title>Choice_symmetric_relclass&#45;&gt;Choice_RelClassEquiv</title>
<path fill="none" stroke="#000000" d="M478.2214,-292.3538C424.6381,-276.6148 341.8723,-252.304 286.3632,-235.9994"/>
<polygon fill="#000000" stroke="#000000" points="287.2528,-232.6129 276.6717,-233.1527 285.2799,-239.3291 287.2528,-232.6129"/>
</g>
<!-- Choice_reflexive_relclass&#45;&gt;Choice_RelClassEquiv -->
<g id="edge31" class="edge">
<title>Choice_reflexive_relclass&#45;&gt;Choice_RelClassEquiv</title>
<path fill="none" stroke="#000000" d="M131.7081,-290.2729C150.3183,-276.4703 176.39,-257.1338 196.7118,-242.0618"/>
<polygon fill="#000000" stroke="#000000" points="198.8024,-244.8689 204.7494,-236.1006 194.6324,-239.2465 198.8024,-244.8689"/>
</g>
</g>
</svg>
