<?xml version="1.0" encoding="UTF-8" standalone="no"?>
<!DOCTYPE svg PUBLIC "-//W3C//DTD SVG 1.1//EN"
 "http://www.w3.org/Graphics/SVG/1.1/DTD/svg11.dtd">
<!-- Generated by graphviz version 2.40.1 (20161225.0304)
 -->
<!-- Title: HoTT_Limits_Limit Pages: 1 -->
<svg width="1889pt" height="948pt"
 viewBox="0.00 0.00 1889.00 948.50" xmlns="http://www.w3.org/2000/svg" xmlns:xlink="http://www.w3.org/1999/xlink">
<g id="graph0" class="graph" transform="scale(1 1) rotate(0) translate(4 944.5)">
<title>HoTT_Limits_Limit</title>
<polygon fill="#ffffff" stroke="transparent" points="-4,4 -4,-944.5 1885,-944.5 1885,4 -4,4"/>
<g id="clust1" class="cluster">
<title>cluster_Limit</title>
<polygon fill="#ffffc3" stroke="#000000" points="8,-9.0108 8,-931.4892 1873,-931.4892 1873,-9.0108 8,-9.0108"/>
<text text-anchor="middle" x="35.5" y="-916.2892" font-family="Times,serif" font-size="14.00" fill="#000000">Limit</text>
</g>
<!-- Limit_limit_adjoint -->
<g id="node1" class="node">
<title>Limit_limit_adjoint</title>
<g id="a_node1"><a xlink:href="Limit.html#limit_adjoint" xlink:title="limit_adjoint">
<ellipse fill="#f070d1" stroke="#000000" cx="1423" cy="-228.0108" rx="69.5832" ry="18"/>
<ellipse fill="none" stroke="#000000" cx="1423" cy="-228.0108" rx="73.5854" ry="22"/>
<ellipse fill="none" stroke="#000000" cx="1423" cy="-228.0108" rx="77.5877" ry="26"/>
<text text-anchor="middle" x="1423" y="-224.3108" font-family="Times,serif" font-size="14.00" fill="#000000">limit_adjoint</text>
</a>
</g>
</g>
<!-- Limit_limp -->
<g id="node14" class="node">
<title>Limit_limp</title>
<g id="a_node14"><a xlink:href="Limit.html#limp" xlink:title="limp">
<ellipse fill="#f070d1" stroke="#000000" cx="1578" cy="-128.0108" rx="31.3957" ry="18"/>
<text text-anchor="middle" x="1578" y="-124.3108" font-family="Times,serif" font-size="14.00" fill="#000000">limp</text>
</a>
</g>
</g>
<!-- Limit_limit_adjoint&#45;&gt;Limit_limp -->
<g id="edge1" class="edge">
<title>Limit_limit_adjoint&#45;&gt;Limit_limp</title>
<path fill="none" stroke="#000000" d="M1459.0264,-204.8886C1481.7068,-190.3172 1511.5852,-171.0941 1538,-154.0108 1541.4231,-151.797 1545.0085,-149.4733 1548.5672,-147.164"/>
<polygon fill="#000000" stroke="#000000" points="1550.7714,-149.9059 1557.251,-141.5234 1546.9583,-144.0355 1550.7714,-149.9059"/>
</g>
<!-- Limit_lim -->
<g id="node15" class="node">
<title>Limit_lim</title>
<g id="a_node15"><a xlink:href="Limit.html#lim" xlink:title="lim">
<ellipse fill="#f070d1" stroke="#000000" cx="1502" cy="-128.0108" rx="27" ry="18"/>
<text text-anchor="middle" x="1502" y="-124.3108" font-family="Times,serif" font-size="14.00" fill="#000000">lim</text>
</a>
</g>
</g>
<!-- Limit_limit_adjoint&#45;&gt;Limit_lim -->
<g id="edge2" class="edge">
<title>Limit_limit_adjoint&#45;&gt;Limit_lim</title>
<path fill="none" stroke="#000000" d="M1442.935,-202.7766C1455.1994,-187.2521 1470.8303,-167.4661 1482.9312,-152.1485"/>
<polygon fill="#000000" stroke="#000000" points="1485.7943,-154.1704 1489.2469,-144.1539 1480.3015,-149.8311 1485.7943,-154.1704"/>
</g>
<!-- Limit_Build_Limit -->
<g id="node20" class="node">
<title>Limit_Build_Limit</title>
<g id="a_node20"><a xlink:href="Limit.html#Build_Limit" xlink:title="Build_Limit">
<ellipse fill="#7faaff" stroke="#000000" cx="1099" cy="-38.0108" rx="64.9885" ry="18"/>
<text text-anchor="middle" x="1099" y="-34.3108" font-family="Times,serif" font-size="14.00" fill="#000000">Build_Limit</text>
</a>
</g>
</g>
<!-- Limit_limit_adjoint&#45;&gt;Limit_Build_Limit -->
<g id="edge3" class="edge">
<title>Limit_limit_adjoint&#45;&gt;Limit_Build_Limit</title>
<path fill="none" stroke="#000000" d="M1349.8592,-219.2994C1241.8626,-205.6944 1050.2481,-178.4274 1030,-154.0108 1015.2472,-136.2209 1020.7562,-123.1927 1030,-102.0108 1037.1437,-85.6413 1050.7674,-71.5822 1064.0348,-60.8451"/>
<polygon fill="#000000" stroke="#000000" points="1066.379,-63.4583 1072.1884,-54.5981 1062.1217,-57.9017 1066.379,-63.4583"/>
</g>
<!-- Limit_limit_unicity -->
<g id="node2" class="node">
<title>Limit_limit_unicity</title>
<g id="a_node2"><a xlink:href="Limit.html#limit_unicity" xlink:title="limit_unicity">
<ellipse fill="#f070d1" stroke="#000000" cx="1640" cy="-867.0108" rx="69.5832" ry="18"/>
<ellipse fill="none" stroke="#000000" cx="1640" cy="-867.0108" rx="73.5854" ry="22"/>
<ellipse fill="none" stroke="#000000" cx="1640" cy="-867.0108" rx="77.5877" ry="26"/>
<text text-anchor="middle" x="1640" y="-863.3108" font-family="Times,serif" font-size="14.00" fill="#000000">limit_unicity</text>
</a>
</g>
</g>
<!-- Limit_equiv_functor_limit -->
<g id="node3" class="node">
<title>Limit_equiv_functor_limit</title>
<g id="a_node3"><a xlink:href="Limit.html#equiv_functor_limit" xlink:title="equiv_functor_limit">
<ellipse fill="#f070d1" stroke="#000000" cx="1640" cy="-777.0108" rx="101.2821" ry="18"/>
<text text-anchor="middle" x="1640" y="-773.3108" font-family="Times,serif" font-size="14.00" fill="#000000">equiv_functor_limit</text>
</a>
</g>
</g>
<!-- Limit_limit_unicity&#45;&gt;Limit_equiv_functor_limit -->
<g id="edge4" class="edge">
<title>Limit_limit_unicity&#45;&gt;Limit_equiv_functor_limit</title>
<path fill="none" stroke="#000000" d="M1640,-840.979C1640,-829.8847 1640,-816.9075 1640,-805.552"/>
<polygon fill="#000000" stroke="#000000" points="1643.5001,-805.2761 1640,-795.2761 1636.5001,-805.2762 1643.5001,-805.2761"/>
</g>
<!-- Limit_isequiv_functor_limit -->
<g id="node4" class="node">
<title>Limit_isequiv_functor_limit</title>
<g id="a_node4"><a xlink:href="Limit.html#isequiv_functor_limit" xlink:title="isequiv_functor_limit">
<ellipse fill="#f070d1" stroke="#000000" cx="1640" cy="-696.0108" rx="109.381" ry="18"/>
<text text-anchor="middle" x="1640" y="-692.3108" font-family="Times,serif" font-size="14.00" fill="#000000">isequiv_functor_limit</text>
</a>
</g>
</g>
<!-- Limit_equiv_functor_limit&#45;&gt;Limit_isequiv_functor_limit -->
<g id="edge5" class="edge">
<title>Limit_equiv_functor_limit&#45;&gt;Limit_isequiv_functor_limit</title>
<path fill="none" stroke="#000000" d="M1640,-758.6306C1640,-748.5142 1640,-735.7416 1640,-724.3744"/>
<polygon fill="#000000" stroke="#000000" points="1643.5001,-724.0391 1640,-714.0392 1636.5001,-724.0392 1643.5001,-724.0391"/>
</g>
<!-- Limit_functor_limit_eisretr -->
<g id="node5" class="node">
<title>Limit_functor_limit_eisretr</title>
<g id="a_node5"><a xlink:href="Limit.html#functor_limit_eisretr" xlink:title="functor_limit_eisretr">
<ellipse fill="#f070d1" stroke="#000000" cx="1758" cy="-606.0108" rx="107.4815" ry="18"/>
<text text-anchor="middle" x="1758" y="-602.3108" font-family="Times,serif" font-size="14.00" fill="#000000">functor_limit_eisretr</text>
</a>
</g>
</g>
<!-- Limit_isequiv_functor_limit&#45;&gt;Limit_functor_limit_eisretr -->
<g id="edge6" class="edge">
<title>Limit_isequiv_functor_limit&#45;&gt;Limit_functor_limit_eisretr</title>
<path fill="none" stroke="#000000" d="M1663.313,-678.2297C1681.4141,-664.4237 1706.6938,-645.1426 1726.5798,-629.9754"/>
<polygon fill="#000000" stroke="#000000" points="1728.9068,-632.6024 1734.7354,-623.7549 1724.6616,-627.0365 1728.9068,-632.6024"/>
</g>
<!-- Limit_functor_limit_eissect -->
<g id="node6" class="node">
<title>Limit_functor_limit_eissect</title>
<g id="a_node6"><a xlink:href="Limit.html#functor_limit_eissect" xlink:title="functor_limit_eissect">
<ellipse fill="#f070d1" stroke="#000000" cx="1524" cy="-606.0108" rx="108.5808" ry="18"/>
<text text-anchor="middle" x="1524" y="-602.3108" font-family="Times,serif" font-size="14.00" fill="#000000">functor_limit_eissect</text>
</a>
</g>
</g>
<!-- Limit_isequiv_functor_limit&#45;&gt;Limit_functor_limit_eissect -->
<g id="edge7" class="edge">
<title>Limit_isequiv_functor_limit&#45;&gt;Limit_functor_limit_eissect</title>
<path fill="none" stroke="#000000" d="M1617.0821,-678.2297C1599.2878,-664.4237 1574.4366,-645.1426 1554.8877,-629.9754"/>
<polygon fill="#000000" stroke="#000000" points="1556.9166,-627.1196 1546.8703,-623.7549 1552.6256,-632.6503 1556.9166,-627.1196"/>
</g>
<!-- Limit_functor_limit -->
<g id="node8" class="node">
<title>Limit_functor_limit</title>
<g id="a_node8"><a xlink:href="Limit.html#functor_limit" xlink:title="functor_limit">
<ellipse fill="#f070d1" stroke="#000000" cx="1638" cy="-507.0108" rx="71.4873" ry="18"/>
<text text-anchor="middle" x="1638" y="-503.3108" font-family="Times,serif" font-size="14.00" fill="#000000">functor_limit</text>
</a>
</g>
</g>
<!-- Limit_functor_limit_eisretr&#45;&gt;Limit_functor_limit -->
<g id="edge8" class="edge">
<title>Limit_functor_limit_eisretr&#45;&gt;Limit_functor_limit</title>
<path fill="none" stroke="#000000" d="M1736.5464,-588.3116C1717.1784,-572.333 1688.5176,-548.6878 1667.0911,-531.0109"/>
<polygon fill="#000000" stroke="#000000" points="1669.209,-528.2208 1659.2679,-524.5568 1664.7543,-533.6204 1669.209,-528.2208"/>
</g>
<!-- Limit_functor_limit_eissect&#45;&gt;Limit_functor_limit -->
<g id="edge9" class="edge">
<title>Limit_functor_limit_eissect&#45;&gt;Limit_functor_limit</title>
<path fill="none" stroke="#000000" d="M1544.3809,-588.3116C1562.6995,-572.4034 1589.7686,-548.896 1610.094,-531.2449"/>
<polygon fill="#000000" stroke="#000000" points="1612.5401,-533.7563 1617.7955,-524.5568 1607.9503,-528.471 1612.5401,-533.7563"/>
</g>
<!-- Limit_functor_limit_commute -->
<g id="node7" class="node">
<title>Limit_functor_limit_commute</title>
<g id="a_node7"><a xlink:href="Limit.html#functor_limit_commute" xlink:title="functor_limit_commute">
<ellipse fill="#f070d1" stroke="#000000" cx="1270" cy="-606.0108" rx="119.6732" ry="18"/>
<ellipse fill="none" stroke="#000000" cx="1270" cy="-606.0108" rx="123.676" ry="22"/>
<ellipse fill="none" stroke="#000000" cx="1270" cy="-606.0108" rx="127.6788" ry="26"/>
<text text-anchor="middle" x="1270" y="-602.3108" font-family="Times,serif" font-size="14.00" fill="#000000">functor_limit_commute</text>
</a>
</g>
</g>
<!-- Limit_functor_limit_commute&#45;&gt;Limit_functor_limit -->
<g id="edge10" class="edge">
<title>Limit_functor_limit_commute&#45;&gt;Limit_functor_limit</title>
<path fill="none" stroke="#000000" d="M1347.1449,-585.2571C1416.3649,-566.6354 1516.4606,-539.7075 1579.3383,-522.7921"/>
<polygon fill="#000000" stroke="#000000" points="1580.3524,-526.1438 1589.0998,-520.166 1578.5338,-519.3841 1580.3524,-526.1438"/>
</g>
<!-- Limit_cone_precompose_inv -->
<g id="node22" class="node">
<title>Limit_cone_precompose_inv</title>
<g id="a_node22"><a xlink:href="Limit.html#cone_precompose_inv" xlink:title="cone_precompose_inv">
<ellipse fill="#f070d1" stroke="#000000" cx="1752" cy="-408.0108" rx="113.18" ry="18"/>
<text text-anchor="middle" x="1752" y="-404.3108" font-family="Times,serif" font-size="14.00" fill="#000000">cone_precompose_inv</text>
</a>
</g>
</g>
<!-- Limit_functor_limit&#45;&gt;Limit_cone_precompose_inv -->
<g id="edge11" class="edge">
<title>Limit_functor_limit&#45;&gt;Limit_cone_precompose_inv</title>
<path fill="none" stroke="#000000" d="M1658.1185,-489.5395C1676.2888,-473.76 1703.2219,-450.3707 1723.5865,-432.6857"/>
<polygon fill="#000000" stroke="#000000" points="1726.0577,-435.1752 1731.3131,-425.9757 1721.4679,-429.89 1726.0577,-435.1752"/>
</g>
<!-- Limit_islimit_postcompose_equiv -->
<g id="node9" class="node">
<title>Limit_islimit_postcompose_equiv</title>
<g id="a_node9"><a xlink:href="Limit.html#islimit_postcompose_equiv" xlink:title="islimit_postcompose_equiv">
<ellipse fill="#f070d1" stroke="#000000" cx="458" cy="-408.0108" rx="135.6851" ry="18"/>
<ellipse fill="none" stroke="#000000" cx="458" cy="-408.0108" rx="139.6806" ry="22"/>
<ellipse fill="none" stroke="#000000" cx="458" cy="-408.0108" rx="143.6761" ry="26"/>
<text text-anchor="middle" x="458" y="-404.3108" font-family="Times,serif" font-size="14.00" fill="#000000">islimit_postcompose_equiv</text>
</a>
</g>
</g>
<!-- Limit_Build_IsLimit -->
<g id="node29" class="node">
<title>Limit_Build_IsLimit</title>
<g id="a_node29"><a xlink:href="Limit.html#Build_IsLimit" xlink:title="Build_IsLimit">
<ellipse fill="#7faaff" stroke="#000000" cx="771" cy="-318.0108" rx="73.387" ry="18"/>
<text text-anchor="middle" x="771" y="-314.3108" font-family="Times,serif" font-size="14.00" fill="#000000">Build_IsLimit</text>
</a>
</g>
</g>
<!-- Limit_islimit_postcompose_equiv&#45;&gt;Limit_Build_IsLimit -->
<g id="edge12" class="edge">
<title>Limit_islimit_postcompose_equiv&#45;&gt;Limit_Build_IsLimit</title>
<path fill="none" stroke="#000000" d="M534.5684,-385.9943C589.7116,-370.1384 662.953,-349.0786 713.2242,-334.6236"/>
<polygon fill="#000000" stroke="#000000" points="714.3166,-337.9514 722.96,-331.8242 712.3821,-331.224 714.3166,-337.9514"/>
</g>
<!-- Limit_IsLimit -->
<g id="node30" class="node">
<title>Limit_IsLimit</title>
<g id="a_node30"><a xlink:href="Limit.html#IsLimit" xlink:title="IsLimit">
<ellipse fill="#e2cdfa" stroke="#000000" cx="1013" cy="-318.0108" rx="44.393" ry="18"/>
<text text-anchor="middle" x="1013" y="-314.3108" font-family="Times,serif" font-size="14.00" fill="#000000">IsLimit</text>
</a>
</g>
</g>
<!-- Limit_islimit_postcompose_equiv&#45;&gt;Limit_IsLimit -->
<g id="edge13" class="edge">
<title>Limit_islimit_postcompose_equiv&#45;&gt;Limit_IsLimit</title>
<path fill="none" stroke="#000000" d="M562.4998,-390.103C578.7322,-387.3646 595.3144,-384.5921 611,-382.0108 736.7078,-361.3237 884.7144,-338.0357 961.2796,-326.068"/>
<polygon fill="#000000" stroke="#000000" points="962.2595,-329.4574 971.5994,-324.4558 961.179,-322.5413 962.2595,-329.4574"/>
</g>
<!-- Limit_islimit_precompose_equiv -->
<g id="node10" class="node">
<title>Limit_islimit_precompose_equiv</title>
<g id="a_node10"><a xlink:href="Limit.html#islimit_precompose_equiv" xlink:title="islimit_precompose_equiv">
<ellipse fill="#f070d1" stroke="#000000" cx="156" cy="-408.0108" rx="131.8801" ry="18"/>
<ellipse fill="none" stroke="#000000" cx="156" cy="-408.0108" rx="135.8784" ry="22"/>
<ellipse fill="none" stroke="#000000" cx="156" cy="-408.0108" rx="139.8766" ry="26"/>
<text text-anchor="middle" x="156" y="-404.3108" font-family="Times,serif" font-size="14.00" fill="#000000">islimit_precompose_equiv</text>
</a>
</g>
</g>
<!-- Limit_islimit_precompose_equiv&#45;&gt;Limit_Build_IsLimit -->
<g id="edge14" class="edge">
<title>Limit_islimit_precompose_equiv&#45;&gt;Limit_Build_IsLimit</title>
<path fill="none" stroke="#000000" d="M256.9062,-389.8929C272.9776,-387.1545 289.4326,-384.4372 305,-382.0108 442.2684,-360.6154 602.8884,-339.3929 695.204,-327.562"/>
<polygon fill="#000000" stroke="#000000" points="695.8181,-331.0121 705.2932,-326.2715 694.9299,-324.0686 695.8181,-331.0121"/>
</g>
<!-- Limit_islimit_precompose_equiv&#45;&gt;Limit_IsLimit -->
<g id="edge15" class="edge">
<title>Limit_islimit_precompose_equiv&#45;&gt;Limit_IsLimit</title>
<path fill="none" stroke="#000000" d="M254.7948,-389.501C271.5126,-386.7337 288.723,-384.1099 305,-382.0108 547.4048,-350.7505 609.7579,-359.8974 853,-336.0108 888.8661,-332.4887 929.1874,-327.9488 960.3798,-324.3096"/>
<polygon fill="#000000" stroke="#000000" points="961.0641,-327.7535 970.5885,-323.1128 960.2489,-320.8011 961.0641,-327.7535"/>
</g>
<!-- Limit_islimit_limit -->
<g id="node11" class="node">
<title>Limit_islimit_limit</title>
<g id="a_node11"><a xlink:href="Limit.html#islimit_limit" xlink:title="islimit_limit">
<ellipse fill="#f070d1" stroke="#000000" cx="1350" cy="-408.0108" rx="66.1109" ry="18"/>
<ellipse fill="none" stroke="#000000" cx="1350" cy="-408.0108" rx="70.0999" ry="22"/>
<ellipse fill="none" stroke="#000000" cx="1350" cy="-408.0108" rx="74.0888" ry="26"/>
<text text-anchor="middle" x="1350" y="-404.3108" font-family="Times,serif" font-size="14.00" fill="#000000">islimit_limit</text>
</a>
</g>
</g>
<!-- Limit_unicone_limit -->
<g id="node12" class="node">
<title>Limit_unicone_limit</title>
<g id="a_node12"><a xlink:href="Limit.html#unicone_limit" xlink:title="unicone_limit">
<ellipse fill="#f070d1" stroke="#000000" cx="1350" cy="-318.0108" rx="73.387" ry="18"/>
<text text-anchor="middle" x="1350" y="-314.3108" font-family="Times,serif" font-size="14.00" fill="#000000">unicone_limit</text>
</a>
</g>
</g>
<!-- Limit_islimit_limit&#45;&gt;Limit_unicone_limit -->
<g id="edge16" class="edge">
<title>Limit_islimit_limit&#45;&gt;Limit_unicone_limit</title>
<path fill="none" stroke="#000000" d="M1350,-381.979C1350,-370.8847 1350,-357.9075 1350,-346.552"/>
<polygon fill="#000000" stroke="#000000" points="1353.5001,-346.2761 1350,-336.2761 1346.5001,-346.2762 1353.5001,-346.2761"/>
</g>
<!-- Limit_islimit_limit&#45;&gt;Limit_Build_IsLimit -->
<g id="edge17" class="edge">
<title>Limit_islimit_limit&#45;&gt;Limit_Build_IsLimit</title>
<path fill="none" stroke="#000000" d="M1296.7925,-389.8331C1286.9666,-386.9088 1276.7346,-384.1462 1267,-382.0108 1189.1258,-364.9277 967.7278,-339.4186 848.8021,-326.364"/>
<polygon fill="#000000" stroke="#000000" points="848.9924,-322.864 838.6709,-325.2548 848.2305,-329.8224 848.9924,-322.864"/>
</g>
<!-- Limit_islimit_limit&#45;&gt;Limit_IsLimit -->
<g id="edge18" class="edge">
<title>Limit_islimit_limit&#45;&gt;Limit_IsLimit</title>
<path fill="none" stroke="#000000" d="M1295.2166,-390.3675C1285.8309,-387.4832 1276.1551,-384.5959 1267,-382.0108 1195.8146,-361.9105 1112.5477,-341.5157 1061.2897,-329.3152"/>
<polygon fill="#000000" stroke="#000000" points="1062.0158,-325.8904 1051.4779,-326.9869 1060.3996,-332.7013 1062.0158,-325.8904"/>
</g>
<!-- Limit_cone_limit -->
<g id="node13" class="node">
<title>Limit_cone_limit</title>
<g id="a_node13"><a xlink:href="Limit.html#cone_limit" xlink:title="cone_limit">
<ellipse fill="#f070d1" stroke="#000000" cx="1578" cy="-228.0108" rx="59.2899" ry="18"/>
<text text-anchor="middle" x="1578" y="-224.3108" font-family="Times,serif" font-size="14.00" fill="#000000">cone_limit</text>
</a>
</g>
</g>
<!-- Limit_unicone_limit&#45;&gt;Limit_cone_limit -->
<g id="edge19" class="edge">
<title>Limit_unicone_limit&#45;&gt;Limit_cone_limit</title>
<path fill="none" stroke="#000000" d="M1388.9355,-302.6415C1428.7,-286.945 1490.3991,-262.5901 1532.4174,-246.0039"/>
<polygon fill="#000000" stroke="#000000" points="1533.842,-249.2044 1541.8585,-242.2772 1531.2718,-242.6934 1533.842,-249.2044"/>
</g>
<!-- Limit_unicone_limit&#45;&gt;Limit_Build_Limit -->
<g id="edge20" class="edge">
<title>Limit_unicone_limit&#45;&gt;Limit_Build_Limit</title>
<path fill="none" stroke="#000000" d="M1278.583,-313.6171C1193.6321,-306.8 1059.1177,-290.4471 1026,-254.0108 980.4636,-203.9114 986.128,-162.7658 1016,-102.0108 1024.8064,-84.0999 1041.3038,-69.788 1057.2847,-59.2793"/>
<polygon fill="#000000" stroke="#000000" points="1059.4074,-62.0812 1066.0578,-53.8337 1055.7156,-56.1338 1059.4074,-62.0812"/>
</g>
<!-- Limit_cone_limit&#45;&gt;Limit_limp -->
<g id="edge21" class="edge">
<title>Limit_cone_limit&#45;&gt;Limit_limp</title>
<path fill="none" stroke="#000000" d="M1578,-209.6692C1578,-194.7272 1578,-173.3773 1578,-156.2554"/>
<polygon fill="#000000" stroke="#000000" points="1581.5001,-156.236 1578,-146.236 1574.5001,-156.2361 1581.5001,-156.236"/>
</g>
<!-- Limit_Limit -->
<g id="node21" class="node">
<title>Limit_Limit</title>
<g id="a_node21"><a xlink:href="Limit.html#Limit" xlink:title="Limit">
<ellipse fill="#e2cdfa" stroke="#000000" cx="1389" cy="-38.0108" rx="35.9954" ry="18"/>
<text text-anchor="middle" x="1389" y="-34.3108" font-family="Times,serif" font-size="14.00" fill="#000000">Limit</text>
</a>
</g>
</g>
<!-- Limit_limp&#45;&gt;Limit_Limit -->
<g id="edge22" class="edge">
<title>Limit_limp&#45;&gt;Limit_Limit</title>
<path fill="none" stroke="#000000" d="M1558.0581,-114.0949C1551.7755,-109.9724 1544.7196,-105.6039 1538,-102.0108 1501.5961,-82.5448 1458.0119,-64.3815 1427.416,-52.4148"/>
<polygon fill="#000000" stroke="#000000" points="1428.5533,-49.102 1417.9642,-48.7534 1426.0247,-55.6293 1428.5533,-49.102"/>
</g>
<!-- Limit_lim&#45;&gt;Limit_Limit -->
<g id="edge23" class="edge">
<title>Limit_lim&#45;&gt;Limit_Limit</title>
<path fill="none" stroke="#000000" d="M1484.3438,-113.9483C1466.1506,-99.4582 1437.5428,-76.6732 1416.406,-59.8385"/>
<polygon fill="#000000" stroke="#000000" points="1418.4281,-56.9746 1408.4254,-53.4823 1414.0671,-62.4502 1418.4281,-56.9746"/>
</g>
<!-- Limit_Limit_sind -->
<g id="node16" class="node">
<title>Limit_Limit_sind</title>
<g id="a_node16"><a xlink:href="Limit.html#Limit_sind" xlink:title="Limit_sind">
<ellipse fill="#f070d1" stroke="#000000" cx="1389" cy="-128.0108" rx="59.6142" ry="18"/>
<ellipse fill="none" stroke="#000000" cx="1389" cy="-128.0108" rx="63.6021" ry="22"/>
<ellipse fill="none" stroke="#000000" cx="1389" cy="-128.0108" rx="67.59" ry="26"/>
<text text-anchor="middle" x="1389" y="-124.3108" font-family="Times,serif" font-size="14.00" fill="#000000">Limit_sind</text>
</a>
</g>
</g>
<!-- Limit_Limit_sind&#45;&gt;Limit_Build_Limit -->
<g id="edge24" class="edge">
<title>Limit_Limit_sind&#45;&gt;Limit_Build_Limit</title>
<path fill="none" stroke="#000000" d="M1338.1348,-110.5655C1329.4324,-107.6583 1320.4687,-104.712 1312,-102.0108 1258.419,-84.9203 1196.8573,-66.5595 1153.7413,-53.9065"/>
<polygon fill="#000000" stroke="#000000" points="1154.5947,-50.5095 1144.0141,-51.0569 1152.6267,-57.2271 1154.5947,-50.5095"/>
</g>
<!-- Limit_Limit_sind&#45;&gt;Limit_Limit -->
<g id="edge25" class="edge">
<title>Limit_Limit_sind&#45;&gt;Limit_Limit</title>
<path fill="none" stroke="#000000" d="M1389,-101.979C1389,-90.8847 1389,-77.9075 1389,-66.552"/>
<polygon fill="#000000" stroke="#000000" points="1392.5001,-66.2761 1389,-56.2761 1385.5001,-66.2762 1392.5001,-66.2761"/>
</g>
<!-- Limit_Limit_rec -->
<g id="node17" class="node">
<title>Limit_Limit_rec</title>
<g id="a_node17"><a xlink:href="Limit.html#Limit_rec" xlink:title="Limit_rec">
<ellipse fill="#f070d1" stroke="#000000" cx="1099" cy="-228.0108" rx="55.8034" ry="18"/>
<ellipse fill="none" stroke="#000000" cx="1099" cy="-228.0108" rx="59.7968" ry="22"/>
<ellipse fill="none" stroke="#000000" cx="1099" cy="-228.0108" rx="63.7903" ry="26"/>
<text text-anchor="middle" x="1099" y="-224.3108" font-family="Times,serif" font-size="14.00" fill="#000000">Limit_rec</text>
</a>
</g>
</g>
<!-- Limit_Limit_rect -->
<g id="node19" class="node">
<title>Limit_Limit_rect</title>
<g id="a_node19"><a xlink:href="Limit.html#Limit_rect" xlink:title="Limit_rect">
<ellipse fill="#f070d1" stroke="#000000" cx="1099" cy="-128.0108" rx="59.5901" ry="18"/>
<text text-anchor="middle" x="1099" y="-124.3108" font-family="Times,serif" font-size="14.00" fill="#000000">Limit_rect</text>
</a>
</g>
</g>
<!-- Limit_Limit_rec&#45;&gt;Limit_Limit_rect -->
<g id="edge26" class="edge">
<title>Limit_Limit_rec&#45;&gt;Limit_Limit_rect</title>
<path fill="none" stroke="#000000" d="M1099,-201.998C1099,-187.9789 1099,-170.6628 1099,-156.3079"/>
<polygon fill="#000000" stroke="#000000" points="1102.5001,-156.0115 1099,-146.0115 1095.5001,-156.0115 1102.5001,-156.0115"/>
</g>
<!-- Limit_Limit_ind -->
<g id="node18" class="node">
<title>Limit_Limit_ind</title>
<g id="a_node18"><a xlink:href="Limit.html#Limit_ind" xlink:title="Limit_ind">
<ellipse fill="#7fffd4" stroke="#000000" cx="1240" cy="-128.0108" rx="55.46" ry="18"/>
<ellipse fill="none" stroke="#000000" cx="1240" cy="-128.0108" rx="59.4756" ry="22"/>
<ellipse fill="none" stroke="#000000" cx="1240" cy="-128.0108" rx="63.4911" ry="26"/>
<text text-anchor="middle" x="1240" y="-124.3108" font-family="Times,serif" font-size="14.00" fill="#000000">Limit_ind</text>
</a>
</g>
</g>
<!-- Limit_Limit_ind&#45;&gt;Limit_Build_Limit -->
<g id="edge27" class="edge">
<title>Limit_Limit_ind&#45;&gt;Limit_Build_Limit</title>
<path fill="none" stroke="#000000" d="M1205.5075,-105.9943C1183.724,-92.0899 1155.671,-74.1837 1133.8242,-60.239"/>
<polygon fill="#000000" stroke="#000000" points="1135.4926,-57.1518 1125.1803,-54.7216 1131.7264,-63.0522 1135.4926,-57.1518"/>
</g>
<!-- Limit_Limit_ind&#45;&gt;Limit_Limit -->
<g id="edge28" class="edge">
<title>Limit_Limit_ind&#45;&gt;Limit_Limit</title>
<path fill="none" stroke="#000000" d="M1275.6892,-106.4535C1300.4239,-91.5131 1333.0774,-71.7896 1356.9747,-57.3549"/>
<polygon fill="#000000" stroke="#000000" points="1358.92,-60.2689 1365.6701,-52.1026 1355.3008,-54.2771 1358.92,-60.2689"/>
</g>
<!-- Limit_Limit_rect&#45;&gt;Limit_Build_Limit -->
<g id="edge29" class="edge">
<title>Limit_Limit_rect&#45;&gt;Limit_Build_Limit</title>
<path fill="none" stroke="#000000" d="M1099,-109.7979C1099,-97.3551 1099,-80.6161 1099,-66.4318"/>
<polygon fill="#000000" stroke="#000000" points="1102.5001,-66.1965 1099,-56.1965 1095.5001,-66.1966 1102.5001,-66.1965"/>
</g>
<!-- Limit_Limit_rect&#45;&gt;Limit_Limit -->
<g id="edge30" class="edge">
<title>Limit_Limit_rect&#45;&gt;Limit_Limit</title>
<path fill="none" stroke="#000000" d="M1135.3349,-113.7092C1145.8169,-109.7498 1157.3106,-105.5664 1168,-102.0108 1229.8879,-81.4248 1302.7347,-61.0631 1347.3841,-49.0142"/>
<polygon fill="#000000" stroke="#000000" points="1348.5369,-52.3287 1357.2862,-46.3537 1346.7205,-45.5684 1348.5369,-52.3287"/>
</g>
<!-- Limit_cone_precompose_inv&#45;&gt;Limit_IsLimit -->
<g id="edge31" class="edge">
<title>Limit_cone_precompose_inv&#45;&gt;Limit_IsLimit</title>
<path fill="none" stroke="#000000" d="M1688.2888,-393.0924C1669.5841,-389.0768 1649.038,-385.018 1630,-382.0108 1423.3363,-349.3661 1174.9941,-329.4098 1067.26,-321.6847"/>
<polygon fill="#000000" stroke="#000000" points="1067.1949,-318.1713 1056.9719,-320.9536 1066.6987,-325.1537 1067.1949,-318.1713"/>
</g>
<!-- Limit_islimit_unicone -->
<g id="node23" class="node">
<title>Limit_islimit_unicone</title>
<g id="a_node23"><a xlink:href="Limit.html#islimit_unicone" xlink:title="islimit_unicone">
<ellipse fill="#f070d1" stroke="#000000" cx="1532" cy="-408.0108" rx="81.4644" ry="18"/>
<ellipse fill="none" stroke="#000000" cx="1532" cy="-408.0108" rx="85.4753" ry="22"/>
<ellipse fill="none" stroke="#000000" cx="1532" cy="-408.0108" rx="89.4862" ry="26"/>
<text text-anchor="middle" x="1532" y="-404.3108" font-family="Times,serif" font-size="14.00" fill="#000000">islimit_unicone</text>
</a>
</g>
</g>
<!-- Limit_islimit_unicone&#45;&gt;Limit_IsLimit -->
<g id="edge32" class="edge">
<title>Limit_islimit_unicone&#45;&gt;Limit_IsLimit</title>
<path fill="none" stroke="#000000" d="M1467.5291,-390.029C1456.0769,-387.1356 1444.2242,-384.3331 1433,-382.0108 1302.0081,-354.9084 1145.8275,-334.0865 1065.8878,-324.2484"/>
<polygon fill="#000000" stroke="#000000" points="1065.9414,-320.729 1055.5907,-322.9902 1065.0923,-327.6774 1065.9414,-320.729"/>
</g>
<!-- Limit_islimit_cone -->
<g id="node24" class="node">
<title>Limit_islimit_cone</title>
<g id="a_node24"><a xlink:href="Limit.html#islimit_cone" xlink:title="islimit_cone">
<ellipse fill="#f070d1" stroke="#000000" cx="1183" cy="-408.0108" rx="66.8941" ry="18"/>
<ellipse fill="none" stroke="#000000" cx="1183" cy="-408.0108" rx="70.8911" ry="22"/>
<ellipse fill="none" stroke="#000000" cx="1183" cy="-408.0108" rx="74.8882" ry="26"/>
<text text-anchor="middle" x="1183" y="-404.3108" font-family="Times,serif" font-size="14.00" fill="#000000">islimit_cone</text>
</a>
</g>
</g>
<!-- Limit_islimit_cone&#45;&gt;Limit_IsLimit -->
<g id="edge33" class="edge">
<title>Limit_islimit_cone&#45;&gt;Limit_IsLimit</title>
<path fill="none" stroke="#000000" d="M1141.8477,-386.2243C1113.5434,-371.2396 1076.3065,-351.526 1049.1456,-337.1467"/>
<polygon fill="#000000" stroke="#000000" points="1050.4653,-333.8852 1039.9898,-332.2995 1047.1901,-340.0717 1050.4653,-333.8852"/>
</g>
<!-- Limit_IsLimit_sind -->
<g id="node25" class="node">
<title>Limit_IsLimit_sind</title>
<g id="a_node25"><a xlink:href="Limit.html#IsLimit_sind" xlink:title="IsLimit_sind">
<ellipse fill="#f070d1" stroke="#000000" cx="1013" cy="-408.0108" rx="68.7989" ry="18"/>
<ellipse fill="none" stroke="#000000" cx="1013" cy="-408.0108" rx="72.7934" ry="22"/>
<ellipse fill="none" stroke="#000000" cx="1013" cy="-408.0108" rx="76.7879" ry="26"/>
<text text-anchor="middle" x="1013" y="-404.3108" font-family="Times,serif" font-size="14.00" fill="#000000">IsLimit_sind</text>
</a>
</g>
</g>
<!-- Limit_IsLimit_sind&#45;&gt;Limit_Build_IsLimit -->
<g id="edge34" class="edge">
<title>Limit_IsLimit_sind&#45;&gt;Limit_Build_IsLimit</title>
<path fill="none" stroke="#000000" d="M961.0849,-388.7035C919.684,-373.3065 862.0556,-351.8744 821.1306,-336.6544"/>
<polygon fill="#000000" stroke="#000000" points="822.2197,-333.3253 811.6268,-333.1199 819.7796,-339.8862 822.2197,-333.3253"/>
</g>
<!-- Limit_IsLimit_sind&#45;&gt;Limit_IsLimit -->
<g id="edge35" class="edge">
<title>Limit_IsLimit_sind&#45;&gt;Limit_IsLimit</title>
<path fill="none" stroke="#000000" d="M1013,-381.979C1013,-370.8847 1013,-357.9075 1013,-346.552"/>
<polygon fill="#000000" stroke="#000000" points="1016.5001,-346.2761 1013,-336.2761 1009.5001,-346.2762 1016.5001,-346.2761"/>
</g>
<!-- Limit_IsLimit_rec -->
<g id="node26" class="node">
<title>Limit_IsLimit_rec</title>
<g id="a_node26"><a xlink:href="Limit.html#IsLimit_rec" xlink:title="IsLimit_rec">
<ellipse fill="#f070d1" stroke="#000000" cx="850" cy="-507.0108" rx="64.2061" ry="18"/>
<ellipse fill="none" stroke="#000000" cx="850" cy="-507.0108" rx="68.1975" ry="22"/>
<ellipse fill="none" stroke="#000000" cx="850" cy="-507.0108" rx="72.1889" ry="26"/>
<text text-anchor="middle" x="850" y="-503.3108" font-family="Times,serif" font-size="14.00" fill="#000000">IsLimit_rec</text>
</a>
</g>
</g>
<!-- Limit_IsLimit_rect -->
<g id="node28" class="node">
<title>Limit_IsLimit_rect</title>
<g id="a_node28"><a xlink:href="Limit.html#IsLimit_rect" xlink:title="IsLimit_rect">
<ellipse fill="#f070d1" stroke="#000000" cx="850" cy="-408.0108" rx="68.4888" ry="18"/>
<text text-anchor="middle" x="850" y="-404.3108" font-family="Times,serif" font-size="14.00" fill="#000000">IsLimit_rect</text>
</a>
</g>
</g>
<!-- Limit_IsLimit_rec&#45;&gt;Limit_IsLimit_rect -->
<g id="edge36" class="edge">
<title>Limit_IsLimit_rec&#45;&gt;Limit_IsLimit_rect</title>
<path fill="none" stroke="#000000" d="M850,-480.9997C850,-467.2127 850,-450.261 850,-436.1654"/>
<polygon fill="#000000" stroke="#000000" points="853.5001,-436.043 850,-426.043 846.5001,-436.043 853.5001,-436.043"/>
</g>
<!-- Limit_IsLimit_ind -->
<g id="node27" class="node">
<title>Limit_IsLimit_ind</title>
<g id="a_node27"><a xlink:href="Limit.html#IsLimit_ind" xlink:title="IsLimit_ind">
<ellipse fill="#7fffd4" stroke="#000000" cx="692" cy="-408.0108" rx="63.8675" ry="18"/>
<ellipse fill="none" stroke="#000000" cx="692" cy="-408.0108" rx="67.8784" ry="22"/>
<ellipse fill="none" stroke="#000000" cx="692" cy="-408.0108" rx="71.8892" ry="26"/>
<text text-anchor="middle" x="692" y="-404.3108" font-family="Times,serif" font-size="14.00" fill="#000000">IsLimit_ind</text>
</a>
</g>
</g>
<!-- Limit_IsLimit_ind&#45;&gt;Limit_Build_IsLimit -->
<g id="edge37" class="edge">
<title>Limit_IsLimit_ind&#45;&gt;Limit_Build_IsLimit</title>
<path fill="none" stroke="#000000" d="M714.0059,-382.9408C724.7919,-370.6529 737.7589,-355.8804 748.5976,-343.5325"/>
<polygon fill="#000000" stroke="#000000" points="751.4021,-345.6431 755.3685,-335.8188 746.1412,-341.0253 751.4021,-345.6431"/>
</g>
<!-- Limit_IsLimit_ind&#45;&gt;Limit_IsLimit -->
<g id="edge38" class="edge">
<title>Limit_IsLimit_ind&#45;&gt;Limit_IsLimit</title>
<path fill="none" stroke="#000000" d="M745.475,-390.4295C754.6332,-387.538 764.0723,-384.6322 773,-382.0108 839.2475,-362.5587 916.5085,-342.4038 965.0926,-330.0343"/>
<polygon fill="#000000" stroke="#000000" points="966.1794,-333.3695 975.0104,-327.516 964.4566,-326.5848 966.1794,-333.3695"/>
</g>
<!-- Limit_IsLimit_rect&#45;&gt;Limit_Build_IsLimit -->
<g id="edge39" class="edge">
<title>Limit_IsLimit_rect&#45;&gt;Limit_Build_IsLimit</title>
<path fill="none" stroke="#000000" d="M834.3921,-390.2297C822.7064,-376.9168 806.5518,-358.5129 793.4755,-343.6157"/>
<polygon fill="#000000" stroke="#000000" points="795.8027,-340.9615 786.5754,-335.7549 790.5419,-345.5793 795.8027,-340.9615"/>
</g>
<!-- Limit_IsLimit_rect&#45;&gt;Limit_IsLimit -->
<g id="edge40" class="edge">
<title>Limit_IsLimit_rect&#45;&gt;Limit_IsLimit</title>
<path fill="none" stroke="#000000" d="M879.5181,-391.7125C907.0849,-376.4915 948.2694,-353.7516 977.5931,-337.5606"/>
<polygon fill="#000000" stroke="#000000" points="979.6023,-340.4493 986.6648,-332.5517 976.2188,-334.3214 979.6023,-340.4493"/>
</g>
</g>
</svg>
