<?xml version="1.0" encoding="UTF-8" standalone="no"?>
<!DOCTYPE svg PUBLIC "-//W3C//DTD SVG 1.1//EN"
 "http://www.w3.org/Graphics/SVG/1.1/DTD/svg11.dtd">
<!-- Generated by graphviz version 2.40.1 (20161225.0304)
 -->
<!-- Title: HoTT_Types_Prod Pages: 1 -->
<svg width="2741pt" height="1375pt"
 viewBox="0.00 0.00 2741.00 1374.50" xmlns="http://www.w3.org/2000/svg" xmlns:xlink="http://www.w3.org/1999/xlink">
<g id="graph0" class="graph" transform="scale(1 1) rotate(0) translate(4 1370.5)">
<title>HoTT_Types_Prod</title>
<polygon fill="#ffffff" stroke="transparent" points="-4,4 -4,-1370.5 2737,-1370.5 2737,4 -4,4"/>
<g id="clust1" class="cluster">
<title>cluster_Prod</title>
<polygon fill="#ffffc3" stroke="#000000" points="8,-18.1294 8,-1348.3706 2725,-1348.3706 2725,-18.1294 8,-18.1294"/>
<text text-anchor="middle" x="33" y="-1333.1706" font-family="Times,serif" font-size="14.00" fill="#000000">Prod</text>
</g>
<!-- Prod_istruncmap_functor_prod -->
<g id="node1" class="node">
<title>Prod_istruncmap_functor_prod</title>
<g id="a_node1"><a xlink:href="Prod.html#istruncmap_functor_prod" xlink:title="istruncmap_functor_prod">
<ellipse fill="#f070d1" stroke="#000000" cx="1972" cy="-1219.1294" rx="129.1866" ry="18"/>
<ellipse fill="none" stroke="#000000" cx="1972" cy="-1219.1294" rx="133.1819" ry="22"/>
<ellipse fill="none" stroke="#000000" cx="1972" cy="-1219.1294" rx="137.1772" ry="26"/>
<text text-anchor="middle" x="1972" y="-1215.4294" font-family="Times,serif" font-size="14.00" fill="#000000">istruncmap_functor_prod</text>
</a>
</g>
</g>
<!-- Prod_hfiber_functor_prod -->
<g id="node2" class="node">
<title>Prod_hfiber_functor_prod</title>
<g id="a_node2"><a xlink:href="Prod.html#hfiber_functor_prod" xlink:title="hfiber_functor_prod">
<ellipse fill="#f070d1" stroke="#000000" cx="2187" cy="-421.1294" rx="103.9815" ry="18"/>
<text text-anchor="middle" x="2187" y="-417.4294" font-family="Times,serif" font-size="14.00" fill="#000000">hfiber_functor_prod</text>
</a>
</g>
</g>
<!-- Prod_istruncmap_functor_prod&#45;&gt;Prod_hfiber_functor_prod -->
<g id="edge1" class="edge">
<title>Prod_istruncmap_functor_prod&#45;&gt;Prod_hfiber_functor_prod</title>
<path fill="none" stroke="#000000" d="M2002.5805,-1193.6932C2037.3709,-1162.7798 2092.7504,-1107.1326 2119,-1046.1294 2211.1365,-832.0071 2196.8693,-540.1638 2189.6086,-449.3011"/>
<polygon fill="#000000" stroke="#000000" points="2193.088,-448.9082 2188.7655,-439.2353 2186.1124,-449.4926 2193.088,-448.9082"/>
</g>
<!-- Prod_istrunc_prod -->
<g id="node6" class="node">
<title>Prod_istrunc_prod</title>
<g id="a_node6"><a xlink:href="Prod.html#istrunc_prod" xlink:title="istrunc_prod">
<ellipse fill="#f070d1" stroke="#000000" cx="1533" cy="-1020.1294" rx="70.3881" ry="18"/>
<text text-anchor="middle" x="1533" y="-1016.4294" font-family="Times,serif" font-size="14.00" fill="#000000">istrunc_prod</text>
</a>
</g>
</g>
<!-- Prod_istruncmap_functor_prod&#45;&gt;Prod_istrunc_prod -->
<g id="edge2" class="edge">
<title>Prod_istruncmap_functor_prod&#45;&gt;Prod_istrunc_prod</title>
<path fill="none" stroke="#000000" d="M1919.0463,-1195.1253C1831.6095,-1155.4899 1658.6389,-1077.0818 1577.2727,-1040.1983"/>
<polygon fill="#000000" stroke="#000000" points="1578.369,-1036.8525 1567.816,-1035.9115 1575.4789,-1043.228 1578.369,-1036.8525"/>
</g>
<!-- Prod_functor_prod -->
<g id="node27" class="node">
<title>Prod_functor_prod</title>
<g id="a_node27"><a xlink:href="Prod.html#functor_prod" xlink:title="functor_prod">
<ellipse fill="#f070d1" stroke="#000000" cx="2187" cy="-240.1294" rx="71.4873" ry="18"/>
<text text-anchor="middle" x="2187" y="-236.4294" font-family="Times,serif" font-size="14.00" fill="#000000">functor_prod</text>
</a>
</g>
</g>
<!-- Prod_hfiber_functor_prod&#45;&gt;Prod_functor_prod -->
<g id="edge3" class="edge">
<title>Prod_hfiber_functor_prod&#45;&gt;Prod_functor_prod</title>
<path fill="none" stroke="#000000" d="M2187,-403.1127C2187,-371.617 2187,-306.3203 2187,-268.6355"/>
<polygon fill="#000000" stroke="#000000" points="2190.5001,-268.3418 2187,-258.3418 2183.5001,-268.3418 2190.5001,-268.3418"/>
</g>
<!-- Prod_path_prod -->
<g id="node42" class="node">
<title>Prod_path_prod</title>
<g id="a_node42"><a xlink:href="Prod.html#path_prod" xlink:title="path_prod">
<ellipse fill="#f070d1" stroke="#000000" cx="1259" cy="-240.1294" rx="57.6901" ry="18"/>
<text text-anchor="middle" x="1259" y="-236.4294" font-family="Times,serif" font-size="14.00" fill="#000000">path_prod</text>
</a>
</g>
</g>
<!-- Prod_hfiber_functor_prod&#45;&gt;Prod_path_prod -->
<g id="edge4" class="edge">
<title>Prod_hfiber_functor_prod&#45;&gt;Prod_path_prod</title>
<path fill="none" stroke="#000000" d="M2125.5151,-406.5334C2108.8287,-402.6949 2090.7456,-398.6469 2074,-395.1294 1793.0697,-336.1182 1455.5751,-275.0422 1319.873,-250.8851"/>
<polygon fill="#000000" stroke="#000000" points="1320.1408,-247.3779 1309.6825,-249.0729 1318.9152,-254.2697 1320.1408,-247.3779"/>
</g>
<!-- Prod_ap_uncurry -->
<g id="node3" class="node">
<title>Prod_ap_uncurry</title>
<g id="a_node3"><a xlink:href="Prod.html#ap_uncurry" xlink:title="ap_uncurry">
<ellipse fill="#f070d1" stroke="#000000" cx="1118" cy="-621.1294" rx="63.8675" ry="18"/>
<ellipse fill="none" stroke="#000000" cx="1118" cy="-621.1294" rx="67.8784" ry="22"/>
<ellipse fill="none" stroke="#000000" cx="1118" cy="-621.1294" rx="71.8892" ry="26"/>
<text text-anchor="middle" x="1118" y="-617.4294" font-family="Times,serif" font-size="14.00" fill="#000000">ap_uncurry</text>
</a>
</g>
</g>
<!-- Prod_path_prod_ -->
<g id="node41" class="node">
<title>Prod_path_prod_</title>
<g id="a_node41"><a xlink:href="Prod.html#path_prod'" xlink:title="path_prod&#39;">
<ellipse fill="#f070d1" stroke="#000000" cx="1103" cy="-421.1294" rx="60.3893" ry="18"/>
<text text-anchor="middle" x="1103" y="-417.4294" font-family="Times,serif" font-size="14.00" fill="#000000">path_prod&#39;</text>
</a>
</g>
</g>
<!-- Prod_ap_uncurry&#45;&gt;Prod_path_prod_ -->
<g id="edge5" class="edge">
<title>Prod_ap_uncurry&#45;&gt;Prod_path_prod_</title>
<path fill="none" stroke="#000000" d="M1116.039,-594.9828C1113.2153,-557.3338 1108.025,-488.1289 1105.117,-449.3555"/>
<polygon fill="#000000" stroke="#000000" points="1108.5993,-448.988 1104.3611,-439.2778 1101.6189,-449.5116 1108.5993,-448.988"/>
</g>
<!-- Prod_decidable_prod -->
<g id="node4" class="node">
<title>Prod_decidable_prod</title>
<g id="a_node4"><a xlink:href="Prod.html#decidable_prod" xlink:title="decidable_prod">
<ellipse fill="#f070d1" stroke="#000000" cx="2437" cy="-1219.1294" rx="81.7951" ry="18"/>
<ellipse fill="none" stroke="#000000" cx="2437" cy="-1219.1294" rx="85.7904" ry="22"/>
<ellipse fill="none" stroke="#000000" cx="2437" cy="-1219.1294" rx="89.7856" ry="26"/>
<text text-anchor="middle" x="2437" y="-1215.4294" font-family="Times,serif" font-size="14.00" fill="#000000">decidable_prod</text>
</a>
</g>
</g>
<!-- Prod_contr_prod -->
<g id="node5" class="node">
<title>Prod_contr_prod</title>
<g id="a_node5"><a xlink:href="Prod.html#contr_prod" xlink:title="contr_prod">
<ellipse fill="#f070d1" stroke="#000000" cx="1747" cy="-1219.1294" rx="61.9618" ry="18"/>
<ellipse fill="none" stroke="#000000" cx="1747" cy="-1219.1294" rx="65.9758" ry="22"/>
<ellipse fill="none" stroke="#000000" cx="1747" cy="-1219.1294" rx="69.9899" ry="26"/>
<text text-anchor="middle" x="1747" y="-1215.4294" font-family="Times,serif" font-size="14.00" fill="#000000">contr_prod</text>
</a>
</g>
</g>
<!-- Prod_contr_prod&#45;&gt;Prod_istrunc_prod -->
<g id="edge6" class="edge">
<title>Prod_contr_prod&#45;&gt;Prod_istrunc_prod</title>
<path fill="none" stroke="#000000" d="M1720.7594,-1194.728C1679.6574,-1156.507 1600.5453,-1082.9402 1559.3661,-1044.6473"/>
<polygon fill="#000000" stroke="#000000" points="1561.6037,-1041.9487 1551.8972,-1037.702 1556.8369,-1047.0749 1561.6037,-1041.9487"/>
</g>
<!-- Prod_equiv_path_prod -->
<g id="node32" class="node">
<title>Prod_equiv_path_prod</title>
<g id="a_node32"><a xlink:href="Prod.html#equiv_path_prod" xlink:title="equiv_path_prod">
<ellipse fill="#f070d1" stroke="#000000" cx="1147" cy="-820.1294" rx="88.2844" ry="18"/>
<text text-anchor="middle" x="1147" y="-816.4294" font-family="Times,serif" font-size="14.00" fill="#000000">equiv_path_prod</text>
</a>
</g>
</g>
<!-- Prod_istrunc_prod&#45;&gt;Prod_equiv_path_prod -->
<g id="edge7" class="edge">
<title>Prod_istrunc_prod&#45;&gt;Prod_equiv_path_prod</title>
<path fill="none" stroke="#000000" d="M1501.739,-1003.9319C1432.493,-968.0532 1266.1744,-881.8778 1188.4011,-841.5807"/>
<polygon fill="#000000" stroke="#000000" points="1189.8572,-838.3933 1179.368,-836.9003 1186.6368,-844.6085 1189.8572,-838.3933"/>
</g>
<!-- Prod_equiv_prod_coind -->
<g id="node7" class="node">
<title>Prod_equiv_prod_coind</title>
<g id="a_node7"><a xlink:href="Prod.html#equiv_prod_coind" xlink:title="equiv_prod_coind">
<ellipse fill="#f070d1" stroke="#000000" cx="2228" cy="-1219.1294" rx="92.8882" ry="18"/>
<ellipse fill="none" stroke="#000000" cx="2228" cy="-1219.1294" rx="96.8858" ry="22"/>
<ellipse fill="none" stroke="#000000" cx="2228" cy="-1219.1294" rx="100.8835" ry="26"/>
<text text-anchor="middle" x="2228" y="-1215.4294" font-family="Times,serif" font-size="14.00" fill="#000000">equiv_prod_coind</text>
</a>
</g>
</g>
<!-- Prod_isequiv_prod_coind -->
<g id="node8" class="node">
<title>Prod_isequiv_prod_coind</title>
<g id="a_node8"><a xlink:href="Prod.html#isequiv_prod_coind" xlink:title="isequiv_prod_coind">
<ellipse fill="#f070d1" stroke="#000000" cx="2249" cy="-1020.1294" rx="100.9827" ry="18"/>
<text text-anchor="middle" x="2249" y="-1016.4294" font-family="Times,serif" font-size="14.00" fill="#000000">isequiv_prod_coind</text>
</a>
</g>
</g>
<!-- Prod_equiv_prod_coind&#45;&gt;Prod_isequiv_prod_coind -->
<g id="edge8" class="edge">
<title>Prod_equiv_prod_coind&#45;&gt;Prod_isequiv_prod_coind</title>
<path fill="none" stroke="#000000" d="M2230.7454,-1193.1136C2234.6985,-1155.6528 2241.965,-1086.7939 2246.0363,-1048.2143"/>
<polygon fill="#000000" stroke="#000000" points="2249.5255,-1048.4992 2247.0944,-1038.1871 2242.5642,-1047.7645 2249.5255,-1048.4992"/>
</g>
<!-- Prod_prod_coind_uncurried -->
<g id="node10" class="node">
<title>Prod_prod_coind_uncurried</title>
<g id="a_node10"><a xlink:href="Prod.html#prod_coind_uncurried" xlink:title="prod_coind_uncurried">
<ellipse fill="#f070d1" stroke="#000000" cx="2323" cy="-820.1294" rx="113.18" ry="18"/>
<text text-anchor="middle" x="2323" y="-816.4294" font-family="Times,serif" font-size="14.00" fill="#000000">prod_coind_uncurried</text>
</a>
</g>
</g>
<!-- Prod_isequiv_prod_coind&#45;&gt;Prod_prod_coind_uncurried -->
<g id="edge9" class="edge">
<title>Prod_isequiv_prod_coind&#45;&gt;Prod_prod_coind_uncurried</title>
<path fill="none" stroke="#000000" d="M2255.6975,-1002.0279C2268.6802,-966.9395 2297.3444,-889.4687 2312.7423,-847.8528"/>
<polygon fill="#000000" stroke="#000000" points="2316.0767,-848.9271 2316.2643,-838.334 2309.5116,-846.498 2316.0767,-848.9271"/>
</g>
<!-- Prod_prod_coind -->
<g id="node9" class="node">
<title>Prod_prod_coind</title>
<g id="a_node9"><a xlink:href="Prod.html#prod_coind" xlink:title="prod_coind">
<ellipse fill="#f070d1" stroke="#000000" cx="2438" cy="-1020.1294" rx="62.3011" ry="18"/>
<ellipse fill="none" stroke="#000000" cx="2438" cy="-1020.1294" rx="66.2951" ry="22"/>
<ellipse fill="none" stroke="#000000" cx="2438" cy="-1020.1294" rx="70.2891" ry="26"/>
<text text-anchor="middle" x="2438" y="-1016.4294" font-family="Times,serif" font-size="14.00" fill="#000000">prod_coind</text>
</a>
</g>
</g>
<!-- Prod_prod_coind&#45;&gt;Prod_prod_coind_uncurried -->
<g id="edge10" class="edge">
<title>Prod_prod_coind&#45;&gt;Prod_prod_coind_uncurried</title>
<path fill="none" stroke="#000000" d="M2423.2012,-994.3923C2401.3908,-956.4612 2360.8023,-885.8725 2338.5627,-847.1949"/>
<polygon fill="#000000" stroke="#000000" points="2341.3454,-845.0129 2333.3265,-838.0885 2335.2771,-848.5022 2341.3454,-845.0129"/>
</g>
<!-- Prod_equiv_uncurry -->
<g id="node11" class="node">
<title>Prod_equiv_uncurry</title>
<g id="a_node11"><a xlink:href="Prod.html#equiv_uncurry" xlink:title="equiv_uncurry">
<ellipse fill="#f070d1" stroke="#000000" cx="2631" cy="-1219.1294" rx="77.9868" ry="18"/>
<ellipse fill="none" stroke="#000000" cx="2631" cy="-1219.1294" rx="81.9865" ry="22"/>
<ellipse fill="none" stroke="#000000" cx="2631" cy="-1219.1294" rx="85.9862" ry="26"/>
<text text-anchor="middle" x="2631" y="-1215.4294" font-family="Times,serif" font-size="14.00" fill="#000000">equiv_uncurry</text>
</a>
</g>
</g>
<!-- Prod_equiv_prod_ind -->
<g id="node12" class="node">
<title>Prod_equiv_prod_ind</title>
<g id="a_node12"><a xlink:href="Prod.html#equiv_prod_ind" xlink:title="equiv_prod_ind">
<ellipse fill="#f070d1" stroke="#000000" cx="2629" cy="-1020.1294" rx="81.7856" ry="18"/>
<text text-anchor="middle" x="2629" y="-1016.4294" font-family="Times,serif" font-size="14.00" fill="#000000">equiv_prod_ind</text>
</a>
</g>
</g>
<!-- Prod_equiv_uncurry&#45;&gt;Prod_equiv_prod_ind -->
<g id="edge11" class="edge">
<title>Prod_equiv_uncurry&#45;&gt;Prod_equiv_prod_ind</title>
<path fill="none" stroke="#000000" d="M2630.7385,-1193.1136C2630.362,-1155.6528 2629.67,-1086.7939 2629.2823,-1048.2143"/>
<polygon fill="#000000" stroke="#000000" points="2632.7819,-1048.1514 2629.1815,-1038.1871 2625.7823,-1048.2218 2632.7819,-1048.1514"/>
</g>
<!-- Prod_isequiv_prod_ind -->
<g id="node13" class="node">
<title>Prod_isequiv_prod_ind</title>
<g id="a_node13"><a xlink:href="Prod.html#isequiv_prod_ind" xlink:title="isequiv_prod_ind">
<ellipse fill="#f070d1" stroke="#000000" cx="2627" cy="-820.1294" rx="89.8845" ry="18"/>
<text text-anchor="middle" x="2627" y="-816.4294" font-family="Times,serif" font-size="14.00" fill="#000000">isequiv_prod_ind</text>
</a>
</g>
</g>
<!-- Prod_equiv_prod_ind&#45;&gt;Prod_isequiv_prod_ind -->
<g id="edge12" class="edge">
<title>Prod_equiv_prod_ind&#45;&gt;Prod_isequiv_prod_ind</title>
<path fill="none" stroke="#000000" d="M2628.819,-1002.0279C2628.4696,-967.0879 2627.6999,-890.1231 2627.2825,-848.3826"/>
<polygon fill="#000000" stroke="#000000" points="2630.782,-848.2984 2627.182,-838.334 2623.7823,-848.3685 2630.782,-848.2984"/>
</g>
<!-- Prod_prod_ind -->
<g id="node47" class="node">
<title>Prod_prod_ind</title>
<g id="a_node47"><a xlink:href="Prod.html#prod_ind" xlink:title="prod_ind">
<ellipse fill="#f070d1" stroke="#000000" cx="2627" cy="-621.1294" rx="51.9908" ry="18"/>
<text text-anchor="middle" x="2627" y="-617.4294" font-family="Times,serif" font-size="14.00" fill="#000000">prod_ind</text>
</a>
</g>
</g>
<!-- Prod_isequiv_prod_ind&#45;&gt;Prod_prod_ind -->
<g id="edge13" class="edge">
<title>Prod_isequiv_prod_ind&#45;&gt;Prod_prod_ind</title>
<path fill="none" stroke="#000000" d="M2627,-802.1185C2627,-767.4269 2627,-691.0981 2627,-649.5064"/>
<polygon fill="#000000" stroke="#000000" points="2630.5001,-649.2429 2627,-639.2429 2623.5001,-649.243 2630.5001,-649.2429"/>
</g>
<!-- Prod_prod_unit_l -->
<g id="node14" class="node">
<title>Prod_prod_unit_l</title>
<g id="a_node14"><a xlink:href="Prod.html#prod_unit_l" xlink:title="prod_unit_l">
<ellipse fill="#f070d1" stroke="#000000" cx="1588" cy="-1219.1294" rx="63.8675" ry="18"/>
<ellipse fill="none" stroke="#000000" cx="1588" cy="-1219.1294" rx="67.8784" ry="22"/>
<ellipse fill="none" stroke="#000000" cx="1588" cy="-1219.1294" rx="71.8892" ry="26"/>
<text text-anchor="middle" x="1588" y="-1215.4294" font-family="Times,serif" font-size="14.00" fill="#000000">prod_unit_l</text>
</a>
</g>
</g>
<!-- Prod_prod_unit_r -->
<g id="node15" class="node">
<title>Prod_prod_unit_r</title>
<g id="a_node15"><a xlink:href="Prod.html#prod_unit_r" xlink:title="prod_unit_r">
<ellipse fill="#f070d1" stroke="#000000" cx="1425" cy="-1219.1294" rx="64.9891" ry="18"/>
<ellipse fill="none" stroke="#000000" cx="1425" cy="-1219.1294" rx="68.9888" ry="22"/>
<ellipse fill="none" stroke="#000000" cx="1425" cy="-1219.1294" rx="72.9885" ry="26"/>
<text text-anchor="middle" x="1425" y="-1215.4294" font-family="Times,serif" font-size="14.00" fill="#000000">prod_unit_r</text>
</a>
</g>
</g>
<!-- Prod_prod_empty_l -->
<g id="node16" class="node">
<title>Prod_prod_empty_l</title>
<g id="a_node16"><a xlink:href="Prod.html#prod_empty_l" xlink:title="prod_empty_l">
<ellipse fill="#f070d1" stroke="#000000" cx="1252" cy="-1219.1294" rx="74.1778" ry="18"/>
<ellipse fill="none" stroke="#000000" cx="1252" cy="-1219.1294" rx="78.1824" ry="22"/>
<ellipse fill="none" stroke="#000000" cx="1252" cy="-1219.1294" rx="82.187" ry="26"/>
<text text-anchor="middle" x="1252" y="-1215.4294" font-family="Times,serif" font-size="14.00" fill="#000000">prod_empty_l</text>
</a>
</g>
</g>
<!-- Prod_prod_empty_r -->
<g id="node17" class="node">
<title>Prod_prod_empty_r</title>
<g id="a_node17"><a xlink:href="Prod.html#prod_empty_r" xlink:title="prod_empty_r">
<ellipse fill="#f070d1" stroke="#000000" cx="1069" cy="-1219.1294" rx="75.297" ry="18"/>
<ellipse fill="none" stroke="#000000" cx="1069" cy="-1219.1294" rx="79.2919" ry="22"/>
<ellipse fill="none" stroke="#000000" cx="1069" cy="-1219.1294" rx="83.2868" ry="26"/>
<text text-anchor="middle" x="1069" y="-1215.4294" font-family="Times,serif" font-size="14.00" fill="#000000">prod_empty_r</text>
</a>
</g>
</g>
<!-- Prod_equiv_prod_assoc -->
<g id="node18" class="node">
<title>Prod_equiv_prod_assoc</title>
<g id="a_node18"><a xlink:href="Prod.html#equiv_prod_assoc" xlink:title="equiv_prod_assoc">
<ellipse fill="#f070d1" stroke="#000000" cx="867" cy="-1219.1294" rx="92.8882" ry="18"/>
<ellipse fill="none" stroke="#000000" cx="867" cy="-1219.1294" rx="96.8858" ry="22"/>
<ellipse fill="none" stroke="#000000" cx="867" cy="-1219.1294" rx="100.8835" ry="26"/>
<text text-anchor="middle" x="867" y="-1215.4294" font-family="Times,serif" font-size="14.00" fill="#000000">equiv_prod_assoc</text>
</a>
</g>
</g>
<!-- Prod_equiv_prod_symm -->
<g id="node19" class="node">
<title>Prod_equiv_prod_symm</title>
<g id="a_node19"><a xlink:href="Prod.html#equiv_prod_symm" xlink:title="equiv_prod_symm">
<ellipse fill="#f070d1" stroke="#000000" cx="645" cy="-1219.1294" rx="94.7917" ry="18"/>
<ellipse fill="none" stroke="#000000" cx="645" cy="-1219.1294" rx="98.7875" ry="22"/>
<ellipse fill="none" stroke="#000000" cx="645" cy="-1219.1294" rx="102.7833" ry="26"/>
<text text-anchor="middle" x="645" y="-1215.4294" font-family="Times,serif" font-size="14.00" fill="#000000">equiv_prod_symm</text>
</a>
</g>
</g>
<!-- Prod_iff_functor_prod -->
<g id="node20" class="node">
<title>Prod_iff_functor_prod</title>
<g id="a_node20"><a xlink:href="Prod.html#iff_functor_prod" xlink:title="iff_functor_prod">
<ellipse fill="#f070d1" stroke="#000000" cx="2403" cy="-421.1294" rx="85.6029" ry="18"/>
<ellipse fill="none" stroke="#000000" cx="2403" cy="-421.1294" rx="89.5941" ry="22"/>
<ellipse fill="none" stroke="#000000" cx="2403" cy="-421.1294" rx="93.5852" ry="26"/>
<text text-anchor="middle" x="2403" y="-417.4294" font-family="Times,serif" font-size="14.00" fill="#000000">iff_functor_prod</text>
</a>
</g>
</g>
<!-- Prod_iff_functor_prod&#45;&gt;Prod_functor_prod -->
<g id="edge14" class="edge">
<title>Prod_iff_functor_prod&#45;&gt;Prod_functor_prod</title>
<path fill="none" stroke="#000000" d="M2373.419,-396.3416C2331.8243,-361.4867 2256.5594,-298.4176 2215.5369,-264.0422"/>
<polygon fill="#000000" stroke="#000000" points="2217.7218,-261.3067 2207.809,-257.5665 2213.2258,-266.672 2217.7218,-261.3067"/>
</g>
<!-- Prod_equiv_functor_prod_r -->
<g id="node21" class="node">
<title>Prod_equiv_functor_prod_r</title>
<g id="a_node21"><a xlink:href="Prod.html#equiv_functor_prod_r" xlink:title="equiv_functor_prod_r">
<ellipse fill="#f070d1" stroke="#000000" cx="1992" cy="-1020.1294" rx="110.4811" ry="18"/>
<ellipse fill="none" stroke="#000000" cx="1992" cy="-1020.1294" rx="114.4807" ry="22"/>
<ellipse fill="none" stroke="#000000" cx="1992" cy="-1020.1294" rx="118.4804" ry="26"/>
<text text-anchor="middle" x="1992" y="-1016.4294" font-family="Times,serif" font-size="14.00" fill="#000000">equiv_functor_prod_r</text>
</a>
</g>
</g>
<!-- Prod_equiv_functor_prod_ -->
<g id="node23" class="node">
<title>Prod_equiv_functor_prod_</title>
<g id="a_node23"><a xlink:href="Prod.html#equiv_functor_prod'" xlink:title="equiv_functor_prod&#39;">
<ellipse fill="#f070d1" stroke="#000000" cx="1935" cy="-820.1294" rx="103.9815" ry="18"/>
<text text-anchor="middle" x="1935" y="-816.4294" font-family="Times,serif" font-size="14.00" fill="#000000">equiv_functor_prod&#39;</text>
</a>
</g>
</g>
<!-- Prod_equiv_functor_prod_r&#45;&gt;Prod_equiv_functor_prod_ -->
<g id="edge15" class="edge">
<title>Prod_equiv_functor_prod_r&#45;&gt;Prod_equiv_functor_prod_</title>
<path fill="none" stroke="#000000" d="M1984.5482,-993.9828C1973.8183,-956.3338 1954.0949,-887.1289 1943.0444,-848.3555"/>
<polygon fill="#000000" stroke="#000000" points="1946.2792,-846.9356 1940.1723,-838.2778 1939.5473,-848.8542 1946.2792,-846.9356"/>
</g>
<!-- Prod_equiv_functor_prod_l -->
<g id="node22" class="node">
<title>Prod_equiv_functor_prod_l</title>
<g id="a_node22"><a xlink:href="Prod.html#equiv_functor_prod_l" xlink:title="equiv_functor_prod_l">
<ellipse fill="#f070d1" stroke="#000000" cx="1738" cy="-1020.1294" rx="109.3679" ry="18"/>
<ellipse fill="none" stroke="#000000" cx="1738" cy="-1020.1294" rx="113.3744" ry="22"/>
<ellipse fill="none" stroke="#000000" cx="1738" cy="-1020.1294" rx="117.3809" ry="26"/>
<text text-anchor="middle" x="1738" y="-1016.4294" font-family="Times,serif" font-size="14.00" fill="#000000">equiv_functor_prod_l</text>
</a>
</g>
</g>
<!-- Prod_equiv_functor_prod_l&#45;&gt;Prod_equiv_functor_prod_ -->
<g id="edge16" class="edge">
<title>Prod_equiv_functor_prod_l&#45;&gt;Prod_equiv_functor_prod_</title>
<path fill="none" stroke="#000000" d="M1763.351,-994.3923C1801.3464,-955.8183 1872.6092,-883.4703 1910.2502,-845.2561"/>
<polygon fill="#000000" stroke="#000000" points="1912.7863,-847.6689 1917.3102,-838.0885 1907.7993,-842.7567 1912.7863,-847.6689"/>
</g>
<!-- Prod_isequiv_functor_prod -->
<g id="node25" class="node">
<title>Prod_isequiv_functor_prod</title>
<g id="a_node25"><a xlink:href="Prod.html#isequiv_functor_prod" xlink:title="isequiv_functor_prod">
<ellipse fill="#f070d1" stroke="#000000" cx="1821" cy="-621.1294" rx="109.381" ry="18"/>
<text text-anchor="middle" x="1821" y="-617.4294" font-family="Times,serif" font-size="14.00" fill="#000000">isequiv_functor_prod</text>
</a>
</g>
</g>
<!-- Prod_equiv_functor_prod_&#45;&gt;Prod_isequiv_functor_prod -->
<g id="edge17" class="edge">
<title>Prod_equiv_functor_prod_&#45;&gt;Prod_isequiv_functor_prod</title>
<path fill="none" stroke="#000000" d="M1924.6822,-802.1185C1904.5549,-766.984 1859.9623,-689.1425 1836.3535,-647.9307"/>
<polygon fill="#000000" stroke="#000000" points="1839.3844,-646.1802 1831.3766,-639.2429 1833.3105,-649.6598 1839.3844,-646.1802"/>
</g>
<!-- Prod_equiv_functor_prod -->
<g id="node24" class="node">
<title>Prod_equiv_functor_prod</title>
<g id="a_node24"><a xlink:href="Prod.html#equiv_functor_prod" xlink:title="equiv_functor_prod">
<ellipse fill="#f070d1" stroke="#000000" cx="1704" cy="-820.1294" rx="101.2901" ry="18"/>
<ellipse fill="none" stroke="#000000" cx="1704" cy="-820.1294" rx="105.2861" ry="22"/>
<ellipse fill="none" stroke="#000000" cx="1704" cy="-820.1294" rx="109.2821" ry="26"/>
<text text-anchor="middle" x="1704" y="-816.4294" font-family="Times,serif" font-size="14.00" fill="#000000">equiv_functor_prod</text>
</a>
</g>
</g>
<!-- Prod_equiv_functor_prod&#45;&gt;Prod_isequiv_functor_prod -->
<g id="edge18" class="edge">
<title>Prod_equiv_functor_prod&#45;&gt;Prod_isequiv_functor_prod</title>
<path fill="none" stroke="#000000" d="M1719.2957,-794.1136C1741.5086,-756.3326 1782.4986,-686.6146 1805.0654,-648.2318"/>
<polygon fill="#000000" stroke="#000000" points="1808.332,-649.5815 1810.3831,-639.1871 1802.2976,-646.0336 1808.332,-649.5815"/>
</g>
<!-- Prod_ap_functor_prod -->
<g id="node26" class="node">
<title>Prod_ap_functor_prod</title>
<g id="a_node26"><a xlink:href="Prod.html#ap_functor_prod" xlink:title="ap_functor_prod">
<ellipse fill="#f070d1" stroke="#000000" cx="1978" cy="-421.1294" rx="87.1846" ry="18"/>
<text text-anchor="middle" x="1978" y="-417.4294" font-family="Times,serif" font-size="14.00" fill="#000000">ap_functor_prod</text>
</a>
</g>
</g>
<!-- Prod_isequiv_functor_prod&#45;&gt;Prod_ap_functor_prod -->
<g id="edge19" class="edge">
<title>Prod_isequiv_functor_prod&#45;&gt;Prod_ap_functor_prod</title>
<path fill="none" stroke="#000000" d="M1835.2096,-603.0279C1863.1741,-567.4044 1925.431,-488.0962 1957.7117,-446.9743"/>
<polygon fill="#000000" stroke="#000000" points="1960.5139,-449.0729 1963.9356,-439.0458 1955.0078,-444.7505 1960.5139,-449.0729"/>
</g>
<!-- Prod_isequiv_functor_prod&#45;&gt;Prod_path_prod_ -->
<g id="edge20" class="edge">
<title>Prod_isequiv_functor_prod&#45;&gt;Prod_path_prod_</title>
<path fill="none" stroke="#000000" d="M1757.7497,-606.3661C1640.9808,-578.6271 1384.1081,-515.3428 1172,-447.1294 1164.4595,-444.7043 1156.5332,-441.9327 1148.848,-439.1236"/>
<polygon fill="#000000" stroke="#000000" points="1149.8826,-435.7742 1139.2898,-435.5688 1147.4424,-442.3352 1149.8826,-435.7742"/>
</g>
<!-- Prod_eta_prod -->
<g id="node44" class="node">
<title>Prod_eta_prod</title>
<g id="a_node44"><a xlink:href="Prod.html#eta_prod" xlink:title="eta_prod">
<ellipse fill="#f070d1" stroke="#000000" cx="1821" cy="-421.1294" rx="51.9908" ry="18"/>
<text text-anchor="middle" x="1821" y="-417.4294" font-family="Times,serif" font-size="14.00" fill="#000000">eta_prod</text>
</a>
</g>
</g>
<!-- Prod_isequiv_functor_prod&#45;&gt;Prod_eta_prod -->
<g id="edge21" class="edge">
<title>Prod_isequiv_functor_prod&#45;&gt;Prod_eta_prod</title>
<path fill="none" stroke="#000000" d="M1821,-603.0279C1821,-568.0879 1821,-491.1231 1821,-449.3826"/>
<polygon fill="#000000" stroke="#000000" points="1824.5001,-449.3339 1821,-439.334 1817.5001,-449.334 1824.5001,-449.3339"/>
</g>
<!-- Prod_ap_functor_prod&#45;&gt;Prod_functor_prod -->
<g id="edge22" class="edge">
<title>Prod_ap_functor_prod&#45;&gt;Prod_functor_prod</title>
<path fill="none" stroke="#000000" d="M1998.4203,-403.4448C2036.0536,-370.8533 2116.3944,-301.2758 2159.0486,-264.3361"/>
<polygon fill="#000000" stroke="#000000" points="2161.5365,-266.8116 2166.8045,-257.6193 2156.9539,-261.5201 2161.5365,-266.8116"/>
</g>
<!-- Prod_ap_functor_prod&#45;&gt;Prod_path_prod -->
<g id="edge23" class="edge">
<title>Prod_ap_functor_prod&#45;&gt;Prod_path_prod</title>
<path fill="none" stroke="#000000" d="M1925.2363,-406.6291C1911.2,-402.8293 1896.0384,-398.7763 1882,-395.1294 1673.0407,-340.8448 1423.619,-279.9684 1314.6007,-253.5546"/>
<polygon fill="#000000" stroke="#000000" points="1315.3494,-250.1349 1304.8065,-251.1829 1313.7018,-256.9382 1315.3494,-250.1349"/>
</g>
<!-- Prod_transport_prod -->
<g id="node28" class="node">
<title>Prod_transport_prod</title>
<g id="a_node28"><a xlink:href="Prod.html#transport_prod" xlink:title="transport_prod">
<ellipse fill="#f070d1" stroke="#000000" cx="435" cy="-1219.1294" rx="81.4644" ry="18"/>
<ellipse fill="none" stroke="#000000" cx="435" cy="-1219.1294" rx="85.4753" ry="22"/>
<ellipse fill="none" stroke="#000000" cx="435" cy="-1219.1294" rx="89.4862" ry="26"/>
<text text-anchor="middle" x="435" y="-1215.4294" font-family="Times,serif" font-size="14.00" fill="#000000">transport_prod</text>
</a>
</g>
</g>
<!-- Prod_path_prod_V -->
<g id="node29" class="node">
<title>Prod_path_prod_V</title>
<g id="a_node29"><a xlink:href="Prod.html#path_prod_V" xlink:title="path_prod_V">
<ellipse fill="#f070d1" stroke="#000000" cx="1259" cy="-421.1294" rx="69.5832" ry="18"/>
<ellipse fill="none" stroke="#000000" cx="1259" cy="-421.1294" rx="73.5854" ry="22"/>
<ellipse fill="none" stroke="#000000" cx="1259" cy="-421.1294" rx="77.5877" ry="26"/>
<text text-anchor="middle" x="1259" y="-417.4294" font-family="Times,serif" font-size="14.00" fill="#000000">path_prod_V</text>
</a>
</g>
</g>
<!-- Prod_path_prod_V&#45;&gt;Prod_path_prod -->
<g id="edge24" class="edge">
<title>Prod_path_prod_V&#45;&gt;Prod_path_prod</title>
<path fill="none" stroke="#000000" d="M1259,-394.8104C1259,-361.1911 1259,-303.2262 1259,-268.6031"/>
<polygon fill="#000000" stroke="#000000" points="1262.5001,-268.2425 1259,-258.2425 1255.5001,-268.2426 1262.5001,-268.2425"/>
</g>
<!-- Prod_path_prod_pp_p -->
<g id="node30" class="node">
<title>Prod_path_prod_pp_p</title>
<g id="a_node30"><a xlink:href="Prod.html#path_prod_pp_p" xlink:title="path_prod_pp_p">
<ellipse fill="#f070d1" stroke="#000000" cx="368" cy="-621.1294" rx="85.2729" ry="18"/>
<ellipse fill="none" stroke="#000000" cx="368" cy="-621.1294" rx="89.279" ry="22"/>
<ellipse fill="none" stroke="#000000" cx="368" cy="-621.1294" rx="93.2851" ry="26"/>
<text text-anchor="middle" x="368" y="-617.4294" font-family="Times,serif" font-size="14.00" fill="#000000">path_prod_pp_p</text>
</a>
</g>
</g>
<!-- Prod_path_prod_pp -->
<g id="node31" class="node">
<title>Prod_path_prod_pp</title>
<g id="a_node31"><a xlink:href="Prod.html#path_prod_pp" xlink:title="path_prod_pp">
<ellipse fill="#f070d1" stroke="#000000" cx="368" cy="-421.1294" rx="74.9875" ry="18"/>
<text text-anchor="middle" x="368" y="-417.4294" font-family="Times,serif" font-size="14.00" fill="#000000">path_prod_pp</text>
</a>
</g>
</g>
<!-- Prod_path_prod_pp_p&#45;&gt;Prod_path_prod_pp -->
<g id="edge25" class="edge">
<title>Prod_path_prod_pp_p&#45;&gt;Prod_path_prod_pp</title>
<path fill="none" stroke="#000000" d="M368,-594.9828C368,-557.3338 368,-488.1289 368,-449.3555"/>
<polygon fill="#000000" stroke="#000000" points="371.5001,-449.2778 368,-439.2778 364.5001,-449.2779 371.5001,-449.2778"/>
</g>
<!-- Prod_path_prod_pp&#45;&gt;Prod_path_prod -->
<g id="edge26" class="edge">
<title>Prod_path_prod_pp&#45;&gt;Prod_path_prod</title>
<path fill="none" stroke="#000000" d="M411.6709,-406.424C424.2791,-402.4582 438.1137,-398.3725 451,-395.1294 725.7234,-325.9897 1059.7466,-270.9463 1196.2917,-249.6563"/>
<polygon fill="#000000" stroke="#000000" points="1197.2128,-253.0553 1206.5569,-248.0614 1196.1381,-246.1383 1197.2128,-253.0553"/>
</g>
<!-- Prod_isequiv_path_prod -->
<g id="node33" class="node">
<title>Prod_isequiv_path_prod</title>
<g id="a_node33"><a xlink:href="Prod.html#isequiv_path_prod" xlink:title="isequiv_path_prod">
<ellipse fill="#f070d1" stroke="#000000" cx="932" cy="-621.1294" rx="96.3833" ry="18"/>
<text text-anchor="middle" x="932" y="-617.4294" font-family="Times,serif" font-size="14.00" fill="#000000">isequiv_path_prod</text>
</a>
</g>
</g>
<!-- Prod_equiv_path_prod&#45;&gt;Prod_isequiv_path_prod -->
<g id="edge27" class="edge">
<title>Prod_equiv_path_prod&#45;&gt;Prod_isequiv_path_prod</title>
<path fill="none" stroke="#000000" d="M1127.9202,-802.4694C1089.5281,-766.9345 1002.8601,-686.7162 958.8016,-645.9364"/>
<polygon fill="#000000" stroke="#000000" points="961.0625,-643.2599 951.3461,-639.0358 956.3075,-648.3971 961.0625,-643.2599"/>
</g>
<!-- Prod_eta_path_prod -->
<g id="node38" class="node">
<title>Prod_eta_path_prod</title>
<g id="a_node38"><a xlink:href="Prod.html#eta_path_prod" xlink:title="eta_path_prod">
<ellipse fill="#f070d1" stroke="#000000" cx="947" cy="-421.1294" rx="77.1866" ry="18"/>
<text text-anchor="middle" x="947" y="-417.4294" font-family="Times,serif" font-size="14.00" fill="#000000">eta_path_prod</text>
</a>
</g>
</g>
<!-- Prod_isequiv_path_prod&#45;&gt;Prod_eta_path_prod -->
<g id="edge28" class="edge">
<title>Prod_isequiv_path_prod&#45;&gt;Prod_eta_path_prod</title>
<path fill="none" stroke="#000000" d="M933.3576,-603.0279C935.9781,-568.0879 941.7505,-491.1231 944.881,-449.3826"/>
<polygon fill="#000000" stroke="#000000" points="948.3769,-449.5677 945.6347,-439.334 941.3965,-449.0442 948.3769,-449.5677"/>
</g>
<!-- Prod_ap_snd_path_prod -->
<g id="node39" class="node">
<title>Prod_ap_snd_path_prod</title>
<g id="a_node39"><a xlink:href="Prod.html#ap_snd_path_prod" xlink:title="ap_snd_path_prod">
<ellipse fill="#f070d1" stroke="#000000" cx="556" cy="-421.1294" rx="95.5831" ry="18"/>
<text text-anchor="middle" x="556" y="-417.4294" font-family="Times,serif" font-size="14.00" fill="#000000">ap_snd_path_prod</text>
</a>
</g>
</g>
<!-- Prod_isequiv_path_prod&#45;&gt;Prod_ap_snd_path_prod -->
<g id="edge29" class="edge">
<title>Prod_isequiv_path_prod&#45;&gt;Prod_ap_snd_path_prod</title>
<path fill="none" stroke="#000000" d="M899.9425,-604.0775C831.8191,-567.8416 672.7142,-483.2114 597.194,-443.0411"/>
<polygon fill="#000000" stroke="#000000" points="598.4488,-439.7442 587.9764,-438.1381 595.1615,-445.9243 598.4488,-439.7442"/>
</g>
<!-- Prod_ap_fst_path_prod -->
<g id="node40" class="node">
<title>Prod_ap_fst_path_prod</title>
<g id="a_node40"><a xlink:href="Prod.html#ap_fst_path_prod" xlink:title="ap_fst_path_prod">
<ellipse fill="#f070d1" stroke="#000000" cx="761" cy="-421.1294" rx="90.9839" ry="18"/>
<text text-anchor="middle" x="761" y="-417.4294" font-family="Times,serif" font-size="14.00" fill="#000000">ap_fst_path_prod</text>
</a>
</g>
</g>
<!-- Prod_isequiv_path_prod&#45;&gt;Prod_ap_fst_path_prod -->
<g id="edge30" class="edge">
<title>Prod_isequiv_path_prod&#45;&gt;Prod_ap_fst_path_prod</title>
<path fill="none" stroke="#000000" d="M916.5233,-603.0279C886.0016,-567.3301 817.9734,-487.7649 782.8777,-446.7173"/>
<polygon fill="#000000" stroke="#000000" points="785.4773,-444.3719 776.3185,-439.0458 780.1569,-448.9209 785.4773,-444.3719"/>
</g>
<!-- Prod_isequiv_path_prod&#45;&gt;Prod_path_prod_ -->
<g id="edge31" class="edge">
<title>Prod_isequiv_path_prod&#45;&gt;Prod_path_prod_</title>
<path fill="none" stroke="#000000" d="M947.4767,-603.0279C978.0755,-567.2399 1046.3704,-487.3628 1081.3876,-446.4071"/>
<polygon fill="#000000" stroke="#000000" points="1084.0879,-448.6346 1087.9262,-438.7595 1078.7675,-444.0856 1084.0879,-448.6346"/>
</g>
<!-- Prod_transport_path_prod_ -->
<g id="node34" class="node">
<title>Prod_transport_path_prod_</title>
<g id="a_node34"><a xlink:href="Prod.html#transport_path_prod'" xlink:title="transport_path_prod&#39;">
<ellipse fill="#f070d1" stroke="#000000" cx="1444" cy="-621.1294" rx="109.3679" ry="18"/>
<ellipse fill="none" stroke="#000000" cx="1444" cy="-621.1294" rx="113.3744" ry="22"/>
<ellipse fill="none" stroke="#000000" cx="1444" cy="-621.1294" rx="117.3809" ry="26"/>
<text text-anchor="middle" x="1444" y="-617.4294" font-family="Times,serif" font-size="14.00" fill="#000000">transport_path_prod&#39;</text>
</a>
</g>
</g>
<!-- Prod_transport_path_prod -->
<g id="node35" class="node">
<title>Prod_transport_path_prod</title>
<g id="a_node35"><a xlink:href="Prod.html#transport_path_prod" xlink:title="transport_path_prod">
<ellipse fill="#f070d1" stroke="#000000" cx="1644" cy="-421.1294" rx="106.6812" ry="18"/>
<text text-anchor="middle" x="1644" y="-417.4294" font-family="Times,serif" font-size="14.00" fill="#000000">transport_path_prod</text>
</a>
</g>
</g>
<!-- Prod_transport_path_prod_&#45;&gt;Prod_transport_path_prod -->
<g id="edge32" class="edge">
<title>Prod_transport_path_prod_&#45;&gt;Prod_transport_path_prod</title>
<path fill="none" stroke="#000000" d="M1469.7371,-595.3923C1508.3111,-556.8183 1580.6591,-484.4703 1618.8733,-446.2561"/>
<polygon fill="#000000" stroke="#000000" points="1621.4446,-448.6345 1626.0409,-439.0885 1616.4949,-443.6847 1621.4446,-448.6345"/>
</g>
<!-- Prod_transport_path_prod_&#45;&gt;Prod_path_prod_ -->
<g id="edge33" class="edge">
<title>Prod_transport_path_prod_&#45;&gt;Prod_path_prod_</title>
<path fill="none" stroke="#000000" d="M1402.5276,-596.8054C1335.1963,-557.3148 1203.2142,-479.906 1139.3425,-442.4446"/>
<polygon fill="#000000" stroke="#000000" points="1140.8254,-439.2568 1130.4289,-437.2167 1137.284,-445.2949 1140.8254,-439.2568"/>
</g>
<!-- Prod_transport_path_prod_uncurried -->
<g id="node36" class="node">
<title>Prod_transport_path_prod_uncurried</title>
<g id="a_node36"><a xlink:href="Prod.html#transport_path_prod_uncurried" xlink:title="transport_path_prod_uncurried">
<ellipse fill="#f070d1" stroke="#000000" cx="1568" cy="-240.1294" rx="157.0724" ry="18"/>
<text text-anchor="middle" x="1568" y="-236.4294" font-family="Times,serif" font-size="14.00" fill="#000000">transport_path_prod_uncurried</text>
</a>
</g>
</g>
<!-- Prod_transport_path_prod&#45;&gt;Prod_transport_path_prod_uncurried -->
<g id="edge34" class="edge">
<title>Prod_transport_path_prod&#45;&gt;Prod_transport_path_prod_uncurried</title>
<path fill="none" stroke="#000000" d="M1636.435,-403.1127C1623.0968,-371.3467 1595.3211,-305.1968 1579.5645,-267.6712"/>
<polygon fill="#000000" stroke="#000000" points="1582.7458,-266.207 1575.6472,-258.3418 1576.2917,-268.917 1582.7458,-266.207"/>
</g>
<!-- Prod_transport_path_prod&#45;&gt;Prod_path_prod -->
<g id="edge35" class="edge">
<title>Prod_transport_path_prod&#45;&gt;Prod_path_prod</title>
<path fill="none" stroke="#000000" d="M1607.7801,-404.1013C1535.9759,-370.344 1375.9901,-295.1299 1300.2597,-259.5268"/>
<polygon fill="#000000" stroke="#000000" points="1301.5575,-256.2694 1291.0186,-255.1822 1298.5793,-262.6043 1301.5575,-256.2694"/>
</g>
<!-- Prod_path_prod_uncurried -->
<g id="node43" class="node">
<title>Prod_path_prod_uncurried</title>
<g id="a_node43"><a xlink:href="Prod.html#path_prod_uncurried" xlink:title="path_prod_uncurried">
<ellipse fill="#f070d1" stroke="#000000" cx="1413" cy="-77.1294" rx="108.5808" ry="18"/>
<text text-anchor="middle" x="1413" y="-73.4294" font-family="Times,serif" font-size="14.00" fill="#000000">path_prod_uncurried</text>
</a>
</g>
</g>
<!-- Prod_transport_path_prod_uncurried&#45;&gt;Prod_path_prod_uncurried -->
<g id="edge36" class="edge">
<title>Prod_transport_path_prod_uncurried&#45;&gt;Prod_path_prod_uncurried</title>
<path fill="none" stroke="#000000" d="M1550.8201,-222.0627C1523.2372,-193.0562 1468.9761,-135.9946 1437.3907,-102.779"/>
<polygon fill="#000000" stroke="#000000" points="1439.6843,-100.1117 1430.2569,-95.2769 1434.6116,-104.9355 1439.6843,-100.1117"/>
</g>
<!-- Prod_ap_path_prod -->
<g id="node37" class="node">
<title>Prod_ap_path_prod</title>
<g id="a_node37"><a xlink:href="Prod.html#ap_path_prod" xlink:title="ap_path_prod">
<ellipse fill="#f070d1" stroke="#000000" cx="1437" cy="-421.1294" rx="74.1778" ry="18"/>
<ellipse fill="none" stroke="#000000" cx="1437" cy="-421.1294" rx="78.1824" ry="22"/>
<ellipse fill="none" stroke="#000000" cx="1437" cy="-421.1294" rx="82.187" ry="26"/>
<text text-anchor="middle" x="1437" y="-417.4294" font-family="Times,serif" font-size="14.00" fill="#000000">ap_path_prod</text>
</a>
</g>
</g>
<!-- Prod_ap_path_prod&#45;&gt;Prod_path_prod -->
<g id="edge37" class="edge">
<title>Prod_ap_path_prod&#45;&gt;Prod_path_prod</title>
<path fill="none" stroke="#000000" d="M1412.2499,-395.9621C1378.1469,-361.2844 1317.0947,-299.2032 1283.2549,-264.7931"/>
<polygon fill="#000000" stroke="#000000" points="1285.5746,-262.1602 1276.0674,-257.4844 1280.5837,-267.0684 1285.5746,-262.1602"/>
</g>
<!-- Prod_eta_path_prod&#45;&gt;Prod_path_prod -->
<g id="edge38" class="edge">
<title>Prod_eta_path_prod&#45;&gt;Prod_path_prod</title>
<path fill="none" stroke="#000000" d="M976.072,-404.2638C1033.1698,-371.1398 1159.8385,-297.6558 1222.476,-261.3179"/>
<polygon fill="#000000" stroke="#000000" points="1224.3436,-264.2809 1231.2371,-256.2354 1220.8309,-258.226 1224.3436,-264.2809"/>
</g>
<!-- Prod_ap_snd_path_prod&#45;&gt;Prod_path_prod -->
<g id="edge39" class="edge">
<title>Prod_ap_snd_path_prod&#45;&gt;Prod_path_prod</title>
<path fill="none" stroke="#000000" d="M612.6372,-406.5471C745.1099,-372.4396 1073.8101,-287.8098 1204.323,-254.2069"/>
<polygon fill="#000000" stroke="#000000" points="1205.3014,-257.5692 1214.1129,-251.6863 1203.556,-250.7903 1205.3014,-257.5692"/>
</g>
<!-- Prod_ap_fst_path_prod&#45;&gt;Prod_path_prod -->
<g id="edge40" class="edge">
<title>Prod_ap_fst_path_prod&#45;&gt;Prod_path_prod</title>
<path fill="none" stroke="#000000" d="M804.7577,-405.2254C898.0354,-371.3233 1115.7489,-292.1945 1211.9106,-257.2442"/>
<polygon fill="#000000" stroke="#000000" points="1213.1752,-260.5086 1221.3781,-253.8032 1210.784,-253.9297 1213.1752,-260.5086"/>
</g>
<!-- Prod_path_prod_&#45;&gt;Prod_path_prod -->
<g id="edge41" class="edge">
<title>Prod_path_prod_&#45;&gt;Prod_path_prod</title>
<path fill="none" stroke="#000000" d="M1118.242,-403.4448C1146.0399,-371.1921 1205.0559,-302.7183 1237.1348,-265.4986"/>
<polygon fill="#000000" stroke="#000000" points="1240.0484,-267.4791 1243.9258,-257.6193 1234.746,-262.9091 1240.0484,-267.4791"/>
</g>
<!-- Prod_path_prod&#45;&gt;Prod_path_prod_uncurried -->
<g id="edge42" class="edge">
<title>Prod_path_prod&#45;&gt;Prod_path_prod_uncurried</title>
<path fill="none" stroke="#000000" d="M1275.4807,-222.6855C1302.7778,-193.7931 1357.4874,-135.8862 1389.0518,-102.4771"/>
<polygon fill="#000000" stroke="#000000" points="1391.8475,-104.6145 1396.1709,-94.9419 1386.7592,-99.8072 1391.8475,-104.6145"/>
</g>
<!-- Prod_pack_prod -->
<g id="node45" class="node">
<title>Prod_pack_prod</title>
<g id="a_node45"><a xlink:href="Prod.html#pack_prod" xlink:title="pack_prod">
<ellipse fill="#f070d1" stroke="#000000" cx="260" cy="-1219.1294" rx="59.6142" ry="18"/>
<ellipse fill="none" stroke="#000000" cx="260" cy="-1219.1294" rx="63.6021" ry="22"/>
<ellipse fill="none" stroke="#000000" cx="260" cy="-1219.1294" rx="67.59" ry="26"/>
<text text-anchor="middle" x="260" y="-1215.4294" font-family="Times,serif" font-size="14.00" fill="#000000">pack_prod</text>
</a>
</g>
</g>
<!-- Prod_unpack_prod -->
<g id="node46" class="node">
<title>Prod_unpack_prod</title>
<g id="a_node46"><a xlink:href="Prod.html#unpack_prod" xlink:title="unpack_prod">
<ellipse fill="#f070d1" stroke="#000000" cx="95" cy="-1219.1294" rx="71.488" ry="18"/>
<ellipse fill="none" stroke="#000000" cx="95" cy="-1219.1294" rx="75.4876" ry="22"/>
<ellipse fill="none" stroke="#000000" cx="95" cy="-1219.1294" rx="79.4873" ry="26"/>
<text text-anchor="middle" x="95" y="-1215.4294" font-family="Times,serif" font-size="14.00" fill="#000000">unpack_prod</text>
</a>
</g>
</g>
</g>
</svg>
