<?xml version="1.0" encoding="UTF-8" standalone="no"?>
<!DOCTYPE svg PUBLIC "-//W3C//DTD SVG 1.1//EN"
 "http://www.w3.org/Graphics/SVG/1.1/DTD/svg11.dtd">
<!-- Generated by graphviz version 2.40.1 (20161225.0304)
 -->
<!-- Title: HoTT_Types_Forall Pages: 1 -->
<svg width="2333pt" height="1171pt"
 viewBox="0.00 0.00 2333.00 1170.50" xmlns="http://www.w3.org/2000/svg" xmlns:xlink="http://www.w3.org/1999/xlink">
<g id="graph0" class="graph" transform="scale(1 1) rotate(0) translate(4 1166.5)">
<title>HoTT_Types_Forall</title>
<polygon fill="#ffffff" stroke="transparent" points="-4,4 -4,-1166.5 2329,-1166.5 2329,4 -4,4"/>
<g id="clust1" class="cluster">
<title>cluster_Forall</title>
<polygon fill="#ffffc3" stroke="#000000" points="8,-11.9384 8,-1150.5616 2317,-1150.5616 2317,-11.9384 8,-11.9384"/>
<text text-anchor="middle" x="37" y="-1135.3616" font-family="Times,serif" font-size="14.00" fill="#000000">Forall</text>
</g>
<!-- Forall_equiv_flip -->
<g id="node1" class="node">
<title>Forall_equiv_flip</title>
<g id="a_node1"><a xlink:href="Forall.html#equiv_flip" xlink:title="equiv_flip">
<ellipse fill="#f070d1" stroke="#000000" cx="2245" cy="-1065.9384" rx="55.8034" ry="18"/>
<ellipse fill="none" stroke="#000000" cx="2245" cy="-1065.9384" rx="59.7968" ry="22"/>
<ellipse fill="none" stroke="#000000" cx="2245" cy="-1065.9384" rx="63.7903" ry="26"/>
<text text-anchor="middle" x="2245" y="-1062.2384" font-family="Times,serif" font-size="14.00" fill="#000000">equiv_flip</text>
</a>
</g>
</g>
<!-- Forall_isequiv_flip -->
<g id="node2" class="node">
<title>Forall_isequiv_flip</title>
<g id="a_node2"><a xlink:href="Forall.html#isequiv_flip" xlink:title="isequiv_flip">
<ellipse fill="#f070d1" stroke="#000000" cx="2245" cy="-933.9384" rx="63.8893" ry="18"/>
<text text-anchor="middle" x="2245" y="-930.2384" font-family="Times,serif" font-size="14.00" fill="#000000">isequiv_flip</text>
</a>
</g>
</g>
<!-- Forall_equiv_flip&#45;&gt;Forall_isequiv_flip -->
<g id="edge1" class="edge">
<title>Forall_equiv_flip&#45;&gt;Forall_isequiv_flip</title>
<path fill="none" stroke="#000000" d="M2245,-1039.8594C2245,-1017.5468 2245,-985.4837 2245,-962.4873"/>
<polygon fill="#000000" stroke="#000000" points="2248.5001,-962.3184 2245,-952.3184 2241.5001,-962.3185 2248.5001,-962.3184"/>
</g>
<!-- Forall_flip -->
<g id="node3" class="node">
<title>Forall_flip</title>
<g id="a_node3"><a xlink:href="Forall.html#flip" xlink:title="flip">
<ellipse fill="#f070d1" stroke="#000000" cx="2245" cy="-802.9384" rx="27" ry="18"/>
<text text-anchor="middle" x="2245" y="-799.2384" font-family="Times,serif" font-size="14.00" fill="#000000">flip</text>
</a>
</g>
</g>
<!-- Forall_isequiv_flip&#45;&gt;Forall_flip -->
<g id="edge2" class="edge">
<title>Forall_isequiv_flip&#45;&gt;Forall_flip</title>
<path fill="none" stroke="#000000" d="M2245,-915.7234C2245,-893.824 2245,-856.8245 2245,-831.2047"/>
<polygon fill="#000000" stroke="#000000" points="2248.5001,-830.9986 2245,-820.9987 2241.5001,-830.9987 2248.5001,-830.9986"/>
</g>
<!-- Forall_equiv_contr_forall -->
<g id="node4" class="node">
<title>Forall_equiv_contr_forall</title>
<g id="a_node4"><a xlink:href="Forall.html#equiv_contr_forall" xlink:title="equiv_contr_forall">
<ellipse fill="#f070d1" stroke="#000000" cx="2060" cy="-1065.9384" rx="94.7917" ry="18"/>
<ellipse fill="none" stroke="#000000" cx="2060" cy="-1065.9384" rx="98.7875" ry="22"/>
<ellipse fill="none" stroke="#000000" cx="2060" cy="-1065.9384" rx="102.7833" ry="26"/>
<text text-anchor="middle" x="2060" y="-1062.2384" font-family="Times,serif" font-size="14.00" fill="#000000">equiv_contr_forall</text>
</a>
</g>
</g>
<!-- Forall_istrunc_forall -->
<g id="node5" class="node">
<title>Forall_istrunc_forall</title>
<g id="a_node5"><a xlink:href="Forall.html#istrunc_forall" xlink:title="istrunc_forall">
<ellipse fill="#f070d1" stroke="#000000" cx="1926" cy="-671.9384" rx="73.3926" ry="18"/>
<ellipse fill="none" stroke="#000000" cx="1926" cy="-671.9384" rx="77.3898" ry="22"/>
<ellipse fill="none" stroke="#000000" cx="1926" cy="-671.9384" rx="81.387" ry="26"/>
<text text-anchor="middle" x="1926" y="-668.2384" font-family="Times,serif" font-size="14.00" fill="#000000">istrunc_forall</text>
</a>
</g>
</g>
<!-- Forall_contr_forall -->
<g id="node6" class="node">
<title>Forall_contr_forall</title>
<g id="a_node6"><a xlink:href="Forall.html#contr_forall" xlink:title="contr_forall">
<ellipse fill="#f070d1" stroke="#000000" cx="1918" cy="-539.9384" rx="64.9885" ry="18"/>
<text text-anchor="middle" x="1918" y="-536.2384" font-family="Times,serif" font-size="14.00" fill="#000000">contr_forall</text>
</a>
</g>
</g>
<!-- Forall_istrunc_forall&#45;&gt;Forall_contr_forall -->
<g id="edge3" class="edge">
<title>Forall_istrunc_forall&#45;&gt;Forall_contr_forall</title>
<path fill="none" stroke="#000000" d="M1924.4195,-645.8594C1923.0672,-623.5468 1921.124,-591.4837 1919.7302,-568.4873"/>
<polygon fill="#000000" stroke="#000000" points="1923.2126,-568.0884 1919.1139,-558.3184 1916.2254,-568.5119 1923.2126,-568.0884"/>
</g>
<!-- Forall_isequiv_path_forall -->
<g id="node39" class="node">
<title>Forall_isequiv_path_forall</title>
<g id="a_node39"><a xlink:href="Forall.html#isequiv_path_forall" xlink:title="isequiv_path_forall">
<ellipse fill="#f070d1" stroke="#000000" cx="1736" cy="-539.9384" rx="98.5829" ry="18"/>
<text text-anchor="middle" x="1736" y="-536.2384" font-family="Times,serif" font-size="14.00" fill="#000000">isequiv_path_forall</text>
</a>
</g>
</g>
<!-- Forall_istrunc_forall&#45;&gt;Forall_isequiv_path_forall -->
<g id="edge4" class="edge">
<title>Forall_istrunc_forall&#45;&gt;Forall_isequiv_path_forall</title>
<path fill="none" stroke="#000000" d="M1891.5924,-648.0342C1856.9893,-623.9941 1803.9786,-587.1656 1769.648,-563.3149"/>
<polygon fill="#000000" stroke="#000000" points="1771.5544,-560.3776 1761.3449,-557.5464 1767.5605,-566.1264 1771.5544,-560.3776"/>
</g>
<!-- Forall_isequiv_path_forall11 -->
<g id="node7" class="node">
<title>Forall_isequiv_path_forall11</title>
<g id="a_node7"><a xlink:href="Forall.html#isequiv_path_forall11" xlink:title="isequiv_path_forall11">
<ellipse fill="#f070d1" stroke="#000000" cx="1821" cy="-1065.9384" rx="110.4811" ry="18"/>
<ellipse fill="none" stroke="#000000" cx="1821" cy="-1065.9384" rx="114.4807" ry="22"/>
<ellipse fill="none" stroke="#000000" cx="1821" cy="-1065.9384" rx="118.4804" ry="26"/>
<text text-anchor="middle" x="1821" y="-1062.2384" font-family="Times,serif" font-size="14.00" fill="#000000">isequiv_path_forall11</text>
</a>
</g>
</g>
<!-- Forall_path_forall11 -->
<g id="node8" class="node">
<title>Forall_path_forall11</title>
<g id="a_node8"><a xlink:href="Forall.html#path_forall11" xlink:title="path_forall11">
<ellipse fill="#f070d1" stroke="#000000" cx="1732" cy="-933.9384" rx="72.5877" ry="18"/>
<text text-anchor="middle" x="1732" y="-930.2384" font-family="Times,serif" font-size="14.00" fill="#000000">path_forall11</text>
</a>
</g>
</g>
<!-- Forall_isequiv_path_forall11&#45;&gt;Forall_path_forall11 -->
<g id="edge5" class="edge">
<title>Forall_isequiv_path_forall11&#45;&gt;Forall_path_forall11</title>
<path fill="none" stroke="#000000" d="M1803.6286,-1040.1741C1788.1082,-1017.1551 1765.4684,-983.5769 1749.8144,-960.3597"/>
<polygon fill="#000000" stroke="#000000" points="1752.6787,-958.3472 1744.1863,-952.0124 1746.8747,-962.2605 1752.6787,-958.3472"/>
</g>
<!-- Forall_equiv_path_forall11 -->
<g id="node9" class="node">
<title>Forall_equiv_path_forall11</title>
<g id="a_node9"><a xlink:href="Forall.html#equiv_path_forall11" xlink:title="equiv_path_forall11">
<ellipse fill="#f070d1" stroke="#000000" cx="1592" cy="-802.9384" rx="102.8821" ry="18"/>
<text text-anchor="middle" x="1592" y="-799.2384" font-family="Times,serif" font-size="14.00" fill="#000000">equiv_path_forall11</text>
</a>
</g>
</g>
<!-- Forall_path_forall11&#45;&gt;Forall_equiv_path_forall11 -->
<g id="edge6" class="edge">
<title>Forall_path_forall11&#45;&gt;Forall_equiv_path_forall11</title>
<path fill="none" stroke="#000000" d="M1713.119,-916.2711C1688.6953,-893.4175 1646.0159,-853.4818 1618.3931,-827.6348"/>
<polygon fill="#000000" stroke="#000000" points="1620.7223,-825.0209 1611.029,-820.7441 1615.9395,-830.1323 1620.7223,-825.0209"/>
</g>
<!-- Forall_equiv_functor_forall_id -->
<g id="node14" class="node">
<title>Forall_equiv_functor_forall_id</title>
<g id="a_node14"><a xlink:href="Forall.html#equiv_functor_forall_id" xlink:title="equiv_functor_forall_id">
<ellipse fill="#f070d1" stroke="#000000" cx="1509" cy="-671.9384" rx="118.0794" ry="18"/>
<text text-anchor="middle" x="1509" y="-668.2384" font-family="Times,serif" font-size="14.00" fill="#000000">equiv_functor_forall_id</text>
</a>
</g>
</g>
<!-- Forall_equiv_path_forall11&#45;&gt;Forall_equiv_functor_forall_id -->
<g id="edge7" class="edge">
<title>Forall_equiv_path_forall11&#45;&gt;Forall_equiv_functor_forall_id</title>
<path fill="none" stroke="#000000" d="M1580.6332,-784.9981C1566.4947,-762.683 1542.232,-724.3889 1525.9088,-698.6258"/>
<polygon fill="#000000" stroke="#000000" points="1528.8045,-696.6564 1520.4958,-690.0824 1522.8914,-700.4029 1528.8045,-696.6564"/>
</g>
<!-- Forall_equiv_path_forall -->
<g id="node38" class="node">
<title>Forall_equiv_path_forall</title>
<g id="a_node38"><a xlink:href="Forall.html#equiv_path_forall" xlink:title="equiv_path_forall">
<ellipse fill="#f070d1" stroke="#000000" cx="1736" cy="-671.9384" rx="90.9839" ry="18"/>
<text text-anchor="middle" x="1736" y="-668.2384" font-family="Times,serif" font-size="14.00" fill="#000000">equiv_path_forall</text>
</a>
</g>
</g>
<!-- Forall_equiv_path_forall11&#45;&gt;Forall_equiv_path_forall -->
<g id="edge8" class="edge">
<title>Forall_equiv_path_forall11&#45;&gt;Forall_equiv_path_forall</title>
<path fill="none" stroke="#000000" d="M1611.7206,-784.9981C1636.9266,-762.0676 1680.6793,-722.2649 1708.9749,-696.5238"/>
<polygon fill="#000000" stroke="#000000" points="1711.4757,-698.9803 1716.5175,-689.662 1706.7652,-693.8024 1711.4757,-698.9803"/>
</g>
<!-- Forall_iff_functor_forall -->
<g id="node10" class="node">
<title>Forall_iff_functor_forall</title>
<g id="a_node10"><a xlink:href="Forall.html#iff_functor_forall" xlink:title="iff_functor_forall">
<ellipse fill="#f070d1" stroke="#000000" cx="1587" cy="-1065.9384" rx="89.0807" ry="18"/>
<ellipse fill="none" stroke="#000000" cx="1587" cy="-1065.9384" rx="93.0825" ry="22"/>
<ellipse fill="none" stroke="#000000" cx="1587" cy="-1065.9384" rx="97.0842" ry="26"/>
<text text-anchor="middle" x="1587" y="-1062.2384" font-family="Times,serif" font-size="14.00" fill="#000000">iff_functor_forall</text>
</a>
</g>
</g>
<!-- Forall_equiv_functor_forall_covariant_compose -->
<g id="node11" class="node">
<title>Forall_equiv_functor_forall_covariant_compose</title>
<g id="a_node11"><a xlink:href="Forall.html#equiv_functor_forall_covariant_compose" xlink:title="equiv_functor_forall_covariant_compose">
<ellipse fill="#f070d1" stroke="#000000" cx="1317" cy="-933.9384" rx="198.7693" ry="18"/>
<ellipse fill="none" stroke="#000000" cx="1317" cy="-933.9384" rx="202.767" ry="22"/>
<ellipse fill="none" stroke="#000000" cx="1317" cy="-933.9384" rx="206.7648" ry="26"/>
<text text-anchor="middle" x="1317" y="-930.2384" font-family="Times,serif" font-size="14.00" fill="#000000">equiv_functor_forall_covariant_compose</text>
</a>
</g>
</g>
<!-- Forall_equiv_functor_forall_covariant -->
<g id="node12" class="node">
<title>Forall_equiv_functor_forall_covariant</title>
<g id="a_node12"><a xlink:href="Forall.html#equiv_functor_forall_covariant" xlink:title="equiv_functor_forall_covariant">
<ellipse fill="#f070d1" stroke="#000000" cx="1318" cy="-802.9384" rx="153.2729" ry="18"/>
<text text-anchor="middle" x="1318" y="-799.2384" font-family="Times,serif" font-size="14.00" fill="#000000">equiv_functor_forall_covariant</text>
</a>
</g>
</g>
<!-- Forall_equiv_functor_forall_covariant_compose&#45;&gt;Forall_equiv_functor_forall_covariant -->
<g id="edge9" class="edge">
<title>Forall_equiv_functor_forall_covariant_compose&#45;&gt;Forall_equiv_functor_forall_covariant</title>
<path fill="none" stroke="#000000" d="M1317.2,-907.7434C1317.3692,-885.5699 1317.6113,-853.8599 1317.7848,-831.1357"/>
<polygon fill="#000000" stroke="#000000" points="1321.2849,-831.1153 1317.8614,-821.0889 1314.2851,-831.0618 1321.2849,-831.1153"/>
</g>
<!-- Forall_functor_forall_compose -->
<g id="node25" class="node">
<title>Forall_functor_forall_compose</title>
<g id="a_node25"><a xlink:href="Forall.html#functor_forall_compose" xlink:title="functor_forall_compose">
<ellipse fill="#f070d1" stroke="#000000" cx="884" cy="-420.9384" rx="120.4791" ry="18"/>
<text text-anchor="middle" x="884" y="-417.2384" font-family="Times,serif" font-size="14.00" fill="#000000">functor_forall_compose</text>
</a>
</g>
</g>
<!-- Forall_equiv_functor_forall_covariant_compose&#45;&gt;Forall_functor_forall_compose -->
<g id="edge10" class="edge">
<title>Forall_equiv_functor_forall_covariant_compose&#45;&gt;Forall_functor_forall_compose</title>
<path fill="none" stroke="#000000" d="M1160.9497,-916.8125C1050.0966,-901.056 914.9575,-873.2903 880,-828.9384 789.725,-714.4032 847.2351,-520.2178 873.2171,-448.5655"/>
<polygon fill="#000000" stroke="#000000" points="876.6035,-449.5 876.8004,-438.907 870.0406,-447.0652 876.6035,-449.5"/>
</g>
<!-- Forall_equiv_functor_forall_ -->
<g id="node15" class="node">
<title>Forall_equiv_functor_forall_</title>
<g id="a_node15"><a xlink:href="Forall.html#equiv_functor_forall'" xlink:title="equiv_functor_forall&#39;">
<ellipse fill="#f070d1" stroke="#000000" cx="1266" cy="-671.9384" rx="106.6812" ry="18"/>
<text text-anchor="middle" x="1266" y="-668.2384" font-family="Times,serif" font-size="14.00" fill="#000000">equiv_functor_forall&#39;</text>
</a>
</g>
</g>
<!-- Forall_equiv_functor_forall_covariant&#45;&gt;Forall_equiv_functor_forall_ -->
<g id="edge11" class="edge">
<title>Forall_equiv_functor_forall_covariant&#45;&gt;Forall_equiv_functor_forall_</title>
<path fill="none" stroke="#000000" d="M1310.7696,-784.7234C1301.9991,-762.6284 1287.1272,-725.1626 1276.9489,-699.5212"/>
<polygon fill="#000000" stroke="#000000" points="1280.1115,-698.0019 1273.169,-689.9987 1273.6054,-700.5845 1280.1115,-698.0019"/>
</g>
<!-- Forall_equiv_functor_forall_pb -->
<g id="node13" class="node">
<title>Forall_equiv_functor_forall_pb</title>
<g id="a_node13"><a xlink:href="Forall.html#equiv_functor_forall_pb" xlink:title="equiv_functor_forall_pb">
<ellipse fill="#f070d1" stroke="#000000" cx="1018" cy="-802.9384" rx="120.7855" ry="18"/>
<ellipse fill="none" stroke="#000000" cx="1018" cy="-802.9384" rx="124.7821" ry="22"/>
<ellipse fill="none" stroke="#000000" cx="1018" cy="-802.9384" rx="128.7786" ry="26"/>
<text text-anchor="middle" x="1018" y="-799.2384" font-family="Times,serif" font-size="14.00" fill="#000000">equiv_functor_forall_pb</text>
</a>
</g>
</g>
<!-- Forall_equiv_functor_forall_pb&#45;&gt;Forall_equiv_functor_forall_ -->
<g id="edge12" class="edge">
<title>Forall_equiv_functor_forall_pb&#45;&gt;Forall_equiv_functor_forall_</title>
<path fill="none" stroke="#000000" d="M1064.0657,-778.6053C1109.9679,-754.3586 1179.8313,-717.4549 1224.1816,-694.0279"/>
<polygon fill="#000000" stroke="#000000" points="1226.033,-697.0083 1233.2405,-689.2428 1222.7635,-690.8188 1226.033,-697.0083"/>
</g>
<!-- Forall_equiv_functor_forall -->
<g id="node16" class="node">
<title>Forall_equiv_functor_forall</title>
<g id="a_node16"><a xlink:href="Forall.html#equiv_functor_forall" xlink:title="equiv_functor_forall">
<ellipse fill="#f070d1" stroke="#000000" cx="1388" cy="-539.9384" rx="104.7816" ry="18"/>
<text text-anchor="middle" x="1388" y="-536.2384" font-family="Times,serif" font-size="14.00" fill="#000000">equiv_functor_forall</text>
</a>
</g>
</g>
<!-- Forall_equiv_functor_forall_id&#45;&gt;Forall_equiv_functor_forall -->
<g id="edge13" class="edge">
<title>Forall_equiv_functor_forall_id&#45;&gt;Forall_equiv_functor_forall</title>
<path fill="none" stroke="#000000" d="M1492.4292,-653.8611C1471.4302,-630.9531 1435.1121,-591.3334 1411.3211,-565.3796"/>
<polygon fill="#000000" stroke="#000000" points="1413.708,-562.8038 1404.3707,-557.7973 1408.5479,-567.5339 1413.708,-562.8038"/>
</g>
<!-- Forall_equiv_functor_forall_&#45;&gt;Forall_equiv_functor_forall -->
<g id="edge14" class="edge">
<title>Forall_equiv_functor_forall_&#45;&gt;Forall_equiv_functor_forall</title>
<path fill="none" stroke="#000000" d="M1282.4535,-654.1363C1303.5551,-631.305 1340.2944,-591.5543 1364.3802,-565.4942"/>
<polygon fill="#000000" stroke="#000000" points="1367.2005,-567.5994 1371.4176,-557.88 1362.0598,-562.8482 1367.2005,-567.5994"/>
</g>
<!-- Forall_isequiv_functor_forall -->
<g id="node17" class="node">
<title>Forall_isequiv_functor_forall</title>
<g id="a_node17"><a xlink:href="Forall.html#isequiv_functor_forall" xlink:title="isequiv_functor_forall">
<ellipse fill="#f070d1" stroke="#000000" cx="1388" cy="-420.9384" rx="112.3801" ry="18"/>
<text text-anchor="middle" x="1388" y="-417.2384" font-family="Times,serif" font-size="14.00" fill="#000000">isequiv_functor_forall</text>
</a>
</g>
</g>
<!-- Forall_equiv_functor_forall&#45;&gt;Forall_isequiv_functor_forall -->
<g id="edge15" class="edge">
<title>Forall_equiv_functor_forall&#45;&gt;Forall_isequiv_functor_forall</title>
<path fill="none" stroke="#000000" d="M1388,-521.8648C1388,-502.6435 1388,-471.9716 1388,-449.4801"/>
<polygon fill="#000000" stroke="#000000" points="1391.5001,-449.182 1388,-439.182 1384.5001,-449.182 1391.5001,-449.182"/>
</g>
<!-- Forall_isequiv_functor_forall_subproof0 -->
<g id="node18" class="node">
<title>Forall_isequiv_functor_forall_subproof0</title>
<g id="a_node18"><a xlink:href="Forall.html#isequiv_functor_forall_subproof0" xlink:title="isequiv_functor_forall_subproof0">
<ellipse fill="#f070d1" stroke="#000000" cx="1071" cy="-301.9384" rx="163.5712" ry="18"/>
<text text-anchor="middle" x="1071" y="-298.2384" font-family="Times,serif" font-size="14.00" fill="#000000">isequiv_functor_forall_subproof0</text>
</a>
</g>
</g>
<!-- Forall_isequiv_functor_forall&#45;&gt;Forall_isequiv_functor_forall_subproof0 -->
<g id="edge16" class="edge">
<title>Forall_isequiv_functor_forall&#45;&gt;Forall_isequiv_functor_forall_subproof0</title>
<path fill="none" stroke="#000000" d="M1343.5887,-404.2666C1286.8168,-382.9548 1188.5028,-346.0483 1126.7527,-322.8676"/>
<polygon fill="#000000" stroke="#000000" points="1127.7602,-319.5074 1117.168,-319.2696 1125.3,-326.0609 1127.7602,-319.5074"/>
</g>
<!-- Forall_isequiv_functor_forall_subproof -->
<g id="node19" class="node">
<title>Forall_isequiv_functor_forall_subproof</title>
<g id="a_node19"><a xlink:href="Forall.html#isequiv_functor_forall_subproof" xlink:title="isequiv_functor_forall_subproof">
<ellipse fill="#f070d1" stroke="#000000" cx="1837" cy="-301.9384" rx="157.872" ry="18"/>
<text text-anchor="middle" x="1837" y="-298.2384" font-family="Times,serif" font-size="14.00" fill="#000000">isequiv_functor_forall_subproof</text>
</a>
</g>
</g>
<!-- Forall_isequiv_functor_forall&#45;&gt;Forall_isequiv_functor_forall_subproof -->
<g id="edge17" class="edge">
<title>Forall_isequiv_functor_forall&#45;&gt;Forall_isequiv_functor_forall_subproof</title>
<path fill="none" stroke="#000000" d="M1446.2386,-405.5032C1527.8875,-383.8635 1676.2877,-344.5325 1764.8368,-321.064"/>
<polygon fill="#000000" stroke="#000000" points="1765.7666,-324.4385 1774.5362,-318.4934 1763.9732,-317.6721 1765.7666,-324.4385"/>
</g>
<!-- Forall_functor_forall -->
<g id="node27" class="node">
<title>Forall_functor_forall</title>
<g id="a_node27"><a xlink:href="Forall.html#functor_forall" xlink:title="functor_forall">
<ellipse fill="#f070d1" stroke="#000000" cx="1349" cy="-169.9384" rx="74.187" ry="18"/>
<text text-anchor="middle" x="1349" y="-166.2384" font-family="Times,serif" font-size="14.00" fill="#000000">functor_forall</text>
</a>
</g>
</g>
<!-- Forall_isequiv_functor_forall_subproof0&#45;&gt;Forall_functor_forall -->
<g id="edge18" class="edge">
<title>Forall_isequiv_functor_forall_subproof0&#45;&gt;Forall_functor_forall</title>
<path fill="none" stroke="#000000" d="M1108.2039,-284.2732C1159.4275,-259.9512 1251.4788,-216.2434 1305.7211,-190.4881"/>
<polygon fill="#000000" stroke="#000000" points="1307.5333,-193.5022 1315.0655,-186.0512 1304.5308,-187.1788 1307.5333,-193.5022"/>
</g>
<!-- Forall_isequiv_functor_forall_subproof&#45;&gt;Forall_functor_forall -->
<g id="edge19" class="edge">
<title>Forall_isequiv_functor_forall_subproof&#45;&gt;Forall_functor_forall</title>
<path fill="none" stroke="#000000" d="M1775.1945,-285.2205C1680.6663,-259.6514 1501.3773,-211.1552 1408.3448,-185.9907"/>
<polygon fill="#000000" stroke="#000000" points="1409.0941,-182.5676 1398.5271,-183.3351 1407.2663,-189.3248 1409.0941,-182.5676"/>
</g>
<!-- Forall_functor_forall_equiv_pb_beta -->
<g id="node20" class="node">
<title>Forall_functor_forall_equiv_pb_beta</title>
<g id="a_node20"><a xlink:href="Forall.html#functor_forall_equiv_pb_beta" xlink:title="functor_forall_equiv_pb_beta">
<ellipse fill="#f070d1" stroke="#000000" cx="2155" cy="-539.9384" rx="146.4621" ry="18"/>
<ellipse fill="none" stroke="#000000" cx="2155" cy="-539.9384" rx="150.4683" ry="22"/>
<ellipse fill="none" stroke="#000000" cx="2155" cy="-539.9384" rx="154.4744" ry="26"/>
<text text-anchor="middle" x="2155" y="-536.2384" font-family="Times,serif" font-size="14.00" fill="#000000">functor_forall_equiv_pb_beta</text>
</a>
</g>
</g>
<!-- Forall_functor_forall_equiv_pb -->
<g id="node21" class="node">
<title>Forall_functor_forall_equiv_pb</title>
<g id="a_node21"><a xlink:href="Forall.html#functor_forall_equiv_pb" xlink:title="functor_forall_equiv_pb">
<ellipse fill="#f070d1" stroke="#000000" cx="2127" cy="-420.9384" rx="120.7786" ry="18"/>
<text text-anchor="middle" x="2127" y="-417.2384" font-family="Times,serif" font-size="14.00" fill="#000000">functor_forall_equiv_pb</text>
</a>
</g>
</g>
<!-- Forall_functor_forall_equiv_pb_beta&#45;&gt;Forall_functor_forall_equiv_pb -->
<g id="edge20" class="edge">
<title>Forall_functor_forall_equiv_pb_beta&#45;&gt;Forall_functor_forall_equiv_pb</title>
<path fill="none" stroke="#000000" d="M2148.8553,-513.8233C2144.3522,-494.6852 2138.246,-468.7339 2133.6325,-449.1265"/>
<polygon fill="#000000" stroke="#000000" points="2137.0051,-448.1785 2131.3077,-439.2459 2130.1912,-449.7818 2137.0051,-448.1785"/>
</g>
<!-- Forall_functor_forall_equiv -->
<g id="node22" class="node">
<title>Forall_functor_forall_equiv</title>
<g id="a_node22"><a xlink:href="Forall.html#functor_forall_equiv" xlink:title="functor_forall_equiv">
<ellipse fill="#f070d1" stroke="#000000" cx="2125" cy="-301.9384" rx="104.7816" ry="18"/>
<text text-anchor="middle" x="2125" y="-298.2384" font-family="Times,serif" font-size="14.00" fill="#000000">functor_forall_equiv</text>
</a>
</g>
</g>
<!-- Forall_functor_forall_equiv_pb&#45;&gt;Forall_functor_forall_equiv -->
<g id="edge21" class="edge">
<title>Forall_functor_forall_equiv_pb&#45;&gt;Forall_functor_forall_equiv</title>
<path fill="none" stroke="#000000" d="M2126.6962,-402.8648C2126.3732,-383.6435 2125.8577,-352.9716 2125.4797,-330.4801"/>
<polygon fill="#000000" stroke="#000000" points="2128.9743,-330.1217 2125.3066,-320.182 2121.9752,-330.2394 2128.9743,-330.1217"/>
</g>
<!-- Forall_functor_forall_equiv&#45;&gt;Forall_functor_forall -->
<g id="edge22" class="edge">
<title>Forall_functor_forall_equiv&#45;&gt;Forall_functor_forall</title>
<path fill="none" stroke="#000000" d="M2061.3845,-287.6293C2042.9149,-283.6486 2022.6873,-279.4558 2004,-275.9384 1793.9627,-236.4039 1544.3313,-198.4973 1422.8194,-180.6246"/>
<polygon fill="#000000" stroke="#000000" points="1423.2813,-177.155 1412.8789,-179.1652 1422.2644,-184.0808 1423.2813,-177.155"/>
</g>
<!-- Forall_functor_forall_pb -->
<g id="node23" class="node">
<title>Forall_functor_forall_pb</title>
<g id="a_node23"><a xlink:href="Forall.html#functor_forall_pb" xlink:title="functor_forall_pb">
<ellipse fill="#f070d1" stroke="#000000" cx="1562" cy="-301.9384" rx="90.9845" ry="18"/>
<ellipse fill="none" stroke="#000000" cx="1562" cy="-301.9384" rx="94.9842" ry="22"/>
<ellipse fill="none" stroke="#000000" cx="1562" cy="-301.9384" rx="98.9839" ry="26"/>
<text text-anchor="middle" x="1562" y="-298.2384" font-family="Times,serif" font-size="14.00" fill="#000000">functor_forall_pb</text>
</a>
</g>
</g>
<!-- Forall_functor_forall_pb&#45;&gt;Forall_functor_forall -->
<g id="edge23" class="edge">
<title>Forall_functor_forall_pb&#45;&gt;Forall_functor_forall</title>
<path fill="none" stroke="#000000" d="M1522.9325,-277.7275C1483.5725,-253.3354 1423.3375,-216.0067 1385.0777,-192.2964"/>
<polygon fill="#000000" stroke="#000000" points="1386.6655,-189.1628 1376.3217,-186.8702 1382.9781,-195.1129 1386.6655,-189.1628"/>
</g>
<!-- Forall_functor_forall_id -->
<g id="node24" class="node">
<title>Forall_functor_forall_id</title>
<g id="a_node24"><a xlink:href="Forall.html#functor_forall_id" xlink:title="functor_forall_id">
<ellipse fill="#f070d1" stroke="#000000" cx="1349" cy="-301.9384" rx="87.9648" ry="18"/>
<ellipse fill="none" stroke="#000000" cx="1349" cy="-301.9384" rx="91.9749" ry="22"/>
<ellipse fill="none" stroke="#000000" cx="1349" cy="-301.9384" rx="95.985" ry="26"/>
<text text-anchor="middle" x="1349" y="-298.2384" font-family="Times,serif" font-size="14.00" fill="#000000">functor_forall_id</text>
</a>
</g>
</g>
<!-- Forall_functor_forall_id&#45;&gt;Forall_functor_forall -->
<g id="edge24" class="edge">
<title>Forall_functor_forall_id&#45;&gt;Forall_functor_forall</title>
<path fill="none" stroke="#000000" d="M1349,-275.8594C1349,-253.5468 1349,-221.4837 1349,-198.4873"/>
<polygon fill="#000000" stroke="#000000" points="1352.5001,-198.3184 1349,-188.3184 1345.5001,-198.3185 1352.5001,-198.3184"/>
</g>
<!-- Forall_functor_forall_compose&#45;&gt;Forall_functor_forall -->
<g id="edge25" class="edge">
<title>Forall_functor_forall_compose&#45;&gt;Forall_functor_forall</title>
<path fill="none" stroke="#000000" d="M883.2255,-402.7939C882.1418,-368.1573 881.859,-294.4123 898,-275.9384 946.0957,-220.8912 1153.2534,-190.5758 1269.3538,-177.6227"/>
<polygon fill="#000000" stroke="#000000" points="1270.0517,-181.0673 1279.6102,-176.4972 1269.288,-174.109 1270.0517,-181.0673"/>
</g>
<!-- Forall_ap_functor_forall -->
<g id="node26" class="node">
<title>Forall_ap_functor_forall</title>
<g id="a_node26"><a xlink:href="Forall.html#ap_functor_forall" xlink:title="ap_functor_forall">
<ellipse fill="#f070d1" stroke="#000000" cx="771" cy="-301.9384" rx="90.1971" ry="18"/>
<ellipse fill="none" stroke="#000000" cx="771" cy="-301.9384" rx="94.1906" ry="22"/>
<ellipse fill="none" stroke="#000000" cx="771" cy="-301.9384" rx="98.1842" ry="26"/>
<text text-anchor="middle" x="771" y="-298.2384" font-family="Times,serif" font-size="14.00" fill="#000000">ap_functor_forall</text>
</a>
</g>
</g>
<!-- Forall_ap_functor_forall&#45;&gt;Forall_functor_forall -->
<g id="edge26" class="edge">
<title>Forall_ap_functor_forall&#45;&gt;Forall_functor_forall</title>
<path fill="none" stroke="#000000" d="M845.0911,-284.6898C857.7369,-281.7598 870.7437,-278.7549 883,-275.9384 1026.4095,-242.9823 1194.7703,-204.8148 1284.6825,-184.4737"/>
<polygon fill="#000000" stroke="#000000" points="1285.4767,-187.8825 1294.458,-182.2624 1283.9322,-181.055 1285.4767,-187.8825"/>
</g>
<!-- Forall_path_forall_1 -->
<g id="node41" class="node">
<title>Forall_path_forall_1</title>
<g id="a_node41"><a xlink:href="Forall.html#path_forall_1" xlink:title="path_forall_1">
<ellipse fill="#f070d1" stroke="#000000" cx="674" cy="-169.9384" rx="71.4873" ry="18"/>
<text text-anchor="middle" x="674" y="-166.2384" font-family="Times,serif" font-size="14.00" fill="#000000">path_forall_1</text>
</a>
</g>
</g>
<!-- Forall_ap_functor_forall&#45;&gt;Forall_path_forall_1 -->
<g id="edge27" class="edge">
<title>Forall_ap_functor_forall&#45;&gt;Forall_path_forall_1</title>
<path fill="none" stroke="#000000" d="M752.0672,-276.1741C735.1517,-253.1551 710.4768,-219.5769 693.4157,-196.3597"/>
<polygon fill="#000000" stroke="#000000" points="696.0237,-193.9981 687.2817,-188.0124 690.3829,-198.1432 696.0237,-193.9981"/>
</g>
<!-- Forall_dpath_forall_constant -->
<g id="node28" class="node">
<title>Forall_dpath_forall_constant</title>
<g id="a_node28"><a xlink:href="Forall.html#dpath_forall_constant" xlink:title="dpath_forall_constant">
<ellipse fill="#f070d1" stroke="#000000" cx="2001" cy="-802.9384" rx="112.3841" ry="18"/>
<ellipse fill="none" stroke="#000000" cx="2001" cy="-802.9384" rx="116.3821" ry="22"/>
<ellipse fill="none" stroke="#000000" cx="2001" cy="-802.9384" rx="120.3801" ry="26"/>
<text text-anchor="middle" x="2001" y="-799.2384" font-family="Times,serif" font-size="14.00" fill="#000000">dpath_forall_constant</text>
</a>
</g>
</g>
<!-- Forall_dpath_forall_constant&#45;&gt;Forall_equiv_path_forall -->
<g id="edge28" class="edge">
<title>Forall_dpath_forall_constant&#45;&gt;Forall_equiv_path_forall</title>
<path fill="none" stroke="#000000" d="M1952.7031,-779.0633C1903.1583,-754.5714 1826.7939,-716.8214 1779.195,-693.2914"/>
<polygon fill="#000000" stroke="#000000" points="1780.5907,-690.0771 1770.0752,-688.7831 1777.4886,-696.3522 1780.5907,-690.0771"/>
</g>
<!-- Forall_dpath_forall -->
<g id="node29" class="node">
<title>Forall_dpath_forall</title>
<g id="a_node29"><a xlink:href="Forall.html#dpath_forall" xlink:title="dpath_forall">
<ellipse fill="#f070d1" stroke="#000000" cx="1788" cy="-802.9384" rx="66.8941" ry="18"/>
<ellipse fill="none" stroke="#000000" cx="1788" cy="-802.9384" rx="70.8911" ry="22"/>
<ellipse fill="none" stroke="#000000" cx="1788" cy="-802.9384" rx="74.8882" ry="26"/>
<text text-anchor="middle" x="1788" y="-799.2384" font-family="Times,serif" font-size="14.00" fill="#000000">dpath_forall</text>
</a>
</g>
</g>
<!-- Forall_dpath_forall&#45;&gt;Forall_equiv_path_forall -->
<g id="edge29" class="edge">
<title>Forall_dpath_forall&#45;&gt;Forall_equiv_path_forall</title>
<path fill="none" stroke="#000000" d="M1777.7265,-777.057C1768.8571,-754.7131 1756.0768,-722.5165 1747.0015,-699.6537"/>
<polygon fill="#000000" stroke="#000000" points="1750.1832,-698.1824 1743.2406,-690.1792 1743.677,-700.7651 1750.1832,-698.1824"/>
</g>
<!-- Forall_ap_lambdaD -->
<g id="node30" class="node">
<title>Forall_ap_lambdaD</title>
<g id="a_node30"><a xlink:href="Forall.html#ap_lambdaD" xlink:title="ap_lambdaD">
<ellipse fill="#f070d1" stroke="#000000" cx="578" cy="-301.9384" rx="68.463" ry="18"/>
<ellipse fill="none" stroke="#000000" cx="578" cy="-301.9384" rx="72.4758" ry="22"/>
<ellipse fill="none" stroke="#000000" cx="578" cy="-301.9384" rx="76.4887" ry="26"/>
<text text-anchor="middle" x="578" y="-298.2384" font-family="Times,serif" font-size="14.00" fill="#000000">ap_lambdaD</text>
</a>
</g>
</g>
<!-- Forall_ap_lambdaD&#45;&gt;Forall_path_forall_1 -->
<g id="edge30" class="edge">
<title>Forall_ap_lambdaD&#45;&gt;Forall_path_forall_1</title>
<path fill="none" stroke="#000000" d="M596.5098,-276.4875C613.3227,-253.3696 638.017,-219.415 654.9854,-196.0834"/>
<polygon fill="#000000" stroke="#000000" points="658.0268,-197.8522 661.0779,-187.7062 652.3656,-193.735 658.0268,-197.8522"/>
</g>
<!-- Forall_ap_apply_lD2 -->
<g id="node31" class="node">
<title>Forall_ap_apply_lD2</title>
<g id="a_node31"><a xlink:href="Forall.html#ap_apply_lD2" xlink:title="ap_apply_lD2">
<ellipse fill="#f070d1" stroke="#000000" cx="1391" cy="-1065.9384" rx="73.3926" ry="18"/>
<ellipse fill="none" stroke="#000000" cx="1391" cy="-1065.9384" rx="77.3898" ry="22"/>
<ellipse fill="none" stroke="#000000" cx="1391" cy="-1065.9384" rx="81.387" ry="26"/>
<text text-anchor="middle" x="1391" y="-1062.2384" font-family="Times,serif" font-size="14.00" fill="#000000">ap_apply_lD2</text>
</a>
</g>
</g>
<!-- Forall_ap_apply_lD -->
<g id="node32" class="node">
<title>Forall_ap_apply_lD</title>
<g id="a_node32"><a xlink:href="Forall.html#ap_apply_lD" xlink:title="ap_apply_lD">
<ellipse fill="#f070d1" stroke="#000000" cx="1216" cy="-1065.9384" rx="67.6782" ry="18"/>
<ellipse fill="none" stroke="#000000" cx="1216" cy="-1065.9384" rx="71.6831" ry="22"/>
<ellipse fill="none" stroke="#000000" cx="1216" cy="-1065.9384" rx="75.6881" ry="26"/>
<text text-anchor="middle" x="1216" y="-1062.2384" font-family="Times,serif" font-size="14.00" fill="#000000">ap_apply_lD</text>
</a>
</g>
</g>
<!-- Forall_apD_transport_forall_constant -->
<g id="node33" class="node">
<title>Forall_apD_transport_forall_constant</title>
<g id="a_node33"><a xlink:href="Forall.html#apD_transport_forall_constant" xlink:title="apD_transport_forall_constant">
<ellipse fill="#f070d1" stroke="#000000" cx="962" cy="-1065.9384" rx="152.9615" ry="18"/>
<ellipse fill="none" stroke="#000000" cx="962" cy="-1065.9384" rx="156.9674" ry="22"/>
<ellipse fill="none" stroke="#000000" cx="962" cy="-1065.9384" rx="160.9732" ry="26"/>
<text text-anchor="middle" x="962" y="-1062.2384" font-family="Times,serif" font-size="14.00" fill="#000000">apD_transport_forall_constant</text>
</a>
</g>
</g>
<!-- Forall_transport_forall_constant -->
<g id="node34" class="node">
<title>Forall_transport_forall_constant</title>
<g id="a_node34"><a xlink:href="Forall.html#transport_forall_constant" xlink:title="transport_forall_constant">
<ellipse fill="#f070d1" stroke="#000000" cx="962" cy="-933.9384" rx="129.1772" ry="18"/>
<text text-anchor="middle" x="962" y="-930.2384" font-family="Times,serif" font-size="14.00" fill="#000000">transport_forall_constant</text>
</a>
</g>
</g>
<!-- Forall_apD_transport_forall_constant&#45;&gt;Forall_transport_forall_constant -->
<g id="edge31" class="edge">
<title>Forall_apD_transport_forall_constant&#45;&gt;Forall_transport_forall_constant</title>
<path fill="none" stroke="#000000" d="M962,-1039.8594C962,-1017.5468 962,-985.4837 962,-962.4873"/>
<polygon fill="#000000" stroke="#000000" points="965.5001,-962.3184 962,-952.3184 958.5001,-962.3185 965.5001,-962.3184"/>
</g>
<!-- Forall_transport_forall -->
<g id="node35" class="node">
<title>Forall_transport_forall</title>
<g id="a_node35"><a xlink:href="Forall.html#transport_forall" xlink:title="transport_forall">
<ellipse fill="#f070d1" stroke="#000000" cx="691" cy="-1065.9384" rx="83.6991" ry="18"/>
<ellipse fill="none" stroke="#000000" cx="691" cy="-1065.9384" rx="87.6922" ry="22"/>
<ellipse fill="none" stroke="#000000" cx="691" cy="-1065.9384" rx="91.6854" ry="26"/>
<text text-anchor="middle" x="691" y="-1062.2384" font-family="Times,serif" font-size="14.00" fill="#000000">transport_forall</text>
</a>
</g>
</g>
<!-- Forall_path_forall_V -->
<g id="node36" class="node">
<title>Forall_path_forall_V</title>
<g id="a_node36"><a xlink:href="Forall.html#path_forall_V" xlink:title="path_forall_V">
<ellipse fill="#f070d1" stroke="#000000" cx="500" cy="-1065.9384" rx="72.608" ry="18"/>
<ellipse fill="none" stroke="#000000" cx="500" cy="-1065.9384" rx="76.5978" ry="22"/>
<ellipse fill="none" stroke="#000000" cx="500" cy="-1065.9384" rx="80.5876" ry="26"/>
<text text-anchor="middle" x="500" y="-1062.2384" font-family="Times,serif" font-size="14.00" fill="#000000">path_forall_V</text>
</a>
</g>
</g>
<!-- Forall_path_forall_pp -->
<g id="node37" class="node">
<title>Forall_path_forall_pp</title>
<g id="a_node37"><a xlink:href="Forall.html#path_forall_pp" xlink:title="path_forall_pp">
<ellipse fill="#f070d1" stroke="#000000" cx="499" cy="-169.9384" rx="77.2012" ry="18"/>
<ellipse fill="none" stroke="#000000" cx="499" cy="-169.9384" rx="81.1939" ry="22"/>
<ellipse fill="none" stroke="#000000" cx="499" cy="-169.9384" rx="85.1866" ry="26"/>
<text text-anchor="middle" x="499" y="-166.2384" font-family="Times,serif" font-size="14.00" fill="#000000">path_forall_pp</text>
</a>
</g>
</g>
<!-- Forall_eta_path_forall -->
<g id="node42" class="node">
<title>Forall_eta_path_forall</title>
<g id="a_node42"><a xlink:href="Forall.html#eta_path_forall" xlink:title="eta_path_forall">
<ellipse fill="#f070d1" stroke="#000000" cx="586" cy="-50.9384" rx="80.6858" ry="18"/>
<text text-anchor="middle" x="586" y="-47.2384" font-family="Times,serif" font-size="14.00" fill="#000000">eta_path_forall</text>
</a>
</g>
</g>
<!-- Forall_path_forall_pp&#45;&gt;Forall_eta_path_forall -->
<g id="edge32" class="edge">
<title>Forall_path_forall_pp&#45;&gt;Forall_eta_path_forall</title>
<path fill="none" stroke="#000000" d="M517.6637,-144.4099C532.2553,-124.4512 552.454,-96.8231 567.1046,-76.7838"/>
<polygon fill="#000000" stroke="#000000" points="569.9347,-78.843 573.0112,-68.7047 564.2839,-74.7117 569.9347,-78.843"/>
</g>
<!-- Forall_equiv_path_forall&#45;&gt;Forall_isequiv_path_forall -->
<g id="edge33" class="edge">
<title>Forall_equiv_path_forall&#45;&gt;Forall_isequiv_path_forall</title>
<path fill="none" stroke="#000000" d="M1736,-653.8611C1736,-631.8666 1736,-594.4666 1736,-568.5477"/>
<polygon fill="#000000" stroke="#000000" points="1739.5001,-568.2209 1736,-558.2209 1732.5001,-568.2209 1739.5001,-568.2209"/>
</g>
<!-- Forall_equiv_apD10 -->
<g id="node40" class="node">
<title>Forall_equiv_apD10</title>
<g id="a_node40"><a xlink:href="Forall.html#equiv_apD10" xlink:title="equiv_apD10">
<ellipse fill="#f070d1" stroke="#000000" cx="322" cy="-1065.9384" rx="71.488" ry="18"/>
<ellipse fill="none" stroke="#000000" cx="322" cy="-1065.9384" rx="75.4876" ry="22"/>
<ellipse fill="none" stroke="#000000" cx="322" cy="-1065.9384" rx="79.4873" ry="26"/>
<text text-anchor="middle" x="322" y="-1062.2384" font-family="Times,serif" font-size="14.00" fill="#000000">equiv_apD10</text>
</a>
</g>
</g>
<!-- Forall_path_forall_1&#45;&gt;Forall_eta_path_forall -->
<g id="edge34" class="edge">
<title>Forall_path_forall_1&#45;&gt;Forall_eta_path_forall</title>
<path fill="none" stroke="#000000" d="M660.8255,-152.1229C646.115,-132.2303 622.1665,-99.8454 605.3335,-77.0825"/>
<polygon fill="#000000" stroke="#000000" points="608.0245,-74.835 599.2646,-68.8757 602.3963,-78.9971 608.0245,-74.835"/>
</g>
<!-- Forall_apD10_path_forall -->
<g id="node43" class="node">
<title>Forall_apD10_path_forall</title>
<g id="a_node43"><a xlink:href="Forall.html#apD10_path_forall" xlink:title="apD10_path_forall">
<ellipse fill="#f070d1" stroke="#000000" cx="120" cy="-1065.9384" rx="96.3686" ry="18"/>
<ellipse fill="none" stroke="#000000" cx="120" cy="-1065.9384" rx="100.3759" ry="22"/>
<ellipse fill="none" stroke="#000000" cx="120" cy="-1065.9384" rx="104.3833" ry="26"/>
<text text-anchor="middle" x="120" y="-1062.2384" font-family="Times,serif" font-size="14.00" fill="#000000">apD10_path_forall</text>
</a>
</g>
</g>
</g>
</svg>
