<?xml version="1.0" encoding="UTF-8" standalone="no"?>
<!DOCTYPE svg PUBLIC "-//W3C//DTD SVG 1.1//EN"
 "http://www.w3.org/Graphics/SVG/1.1/DTD/svg11.dtd">
<!-- Generated by graphviz version 2.40.1 (20161225.0304)
 -->
<!-- Title: HoTT_Classes_isomorphisms_rings Pages: 1 -->
<svg width="1078pt" height="543pt"
 viewBox="0.00 0.00 1078.00 543.00" xmlns="http://www.w3.org/2000/svg" xmlns:xlink="http://www.w3.org/1999/xlink">
<g id="graph0" class="graph" transform="scale(1 1) rotate(0) translate(4 539)">
<title>HoTT_Classes_isomorphisms_rings</title>
<polygon fill="#ffffff" stroke="transparent" points="-4,4 -4,-539 1074,-539 1074,4 -4,4"/>
<g id="clust1" class="cluster">
<title>cluster_rings</title>
<polygon fill="#ffffc3" stroke="#000000" points="8,-9.5111 8,-525.4889 1062,-525.4889 1062,-9.5111 8,-9.5111"/>
<text text-anchor="middle" x="34.5" y="-510.2889" font-family="Times,serif" font-size="14.00" fill="#000000">rings</text>
</g>
<g id="clust2" class="cluster">
<title>cluster_rings_Rings</title>
<polygon fill="#ffffa3" stroke="#000000" points="524,-19.0222 524,-488.6333 1054,-488.6333 1054,-19.0222 524,-19.0222"/>
<text text-anchor="middle" x="552.5" y="-473.4333" font-family="Times,serif" font-size="14.00" fill="#000000">Rings</text>
</g>
<g id="clust3" class="cluster">
<title>cluster_rings_SemiRings</title>
<polygon fill="#ffffa3" stroke="#000000" points="16,-19.0222 16,-488.6333 516,-488.6333 516,-19.0222 16,-19.0222"/>
<text text-anchor="middle" x="62.5" y="-473.4333" font-family="Times,serif" font-size="14.00" fill="#000000">SemiRings</text>
</g>
<!-- rings_SemiRings_iso_leibnitz -->
<g id="node1" class="node">
<title>rings_SemiRings_iso_leibnitz</title>
<g id="a_node1"><a xlink:href="rings.html#SemiRings.iso_leibnitz" xlink:title="iso_leibnitz">
<ellipse fill="#f070d1" stroke="#000000" cx="285" cy="-420.5111" rx="63.8675" ry="18"/>
<ellipse fill="none" stroke="#000000" cx="285" cy="-420.5111" rx="67.8784" ry="22"/>
<ellipse fill="none" stroke="#000000" cx="285" cy="-420.5111" rx="71.8892" ry="26"/>
<text text-anchor="middle" x="285" y="-416.8111" font-family="Times,serif" font-size="14.00" fill="#000000">iso_leibnitz</text>
</a>
</g>
</g>
<!-- rings_SemiRings_iso_same_semirings -->
<g id="node2" class="node">
<title>rings_SemiRings_iso_same_semirings</title>
<g id="a_node2"><a xlink:href="rings.html#SemiRings.iso_same_semirings" xlink:title="iso_same_semirings">
<ellipse fill="#f070d1" stroke="#000000" cx="285" cy="-325.5111" rx="103.9815" ry="18"/>
<text text-anchor="middle" x="285" y="-321.8111" font-family="Times,serif" font-size="14.00" fill="#000000">iso_same_semirings</text>
</a>
</g>
</g>
<!-- rings_SemiRings_iso_leibnitz&#45;&gt;rings_SemiRings_iso_same_semirings -->
<g id="edge1" class="edge">
<title>rings_SemiRings_iso_leibnitz&#45;&gt;rings_SemiRings_iso_same_semirings</title>
<path fill="none" stroke="#000000" d="M285,-394.3005C285,-381.6858 285,-366.5455 285,-353.6841"/>
<polygon fill="#000000" stroke="#000000" points="288.5001,-353.5221 285,-343.5222 281.5001,-353.5222 288.5001,-353.5221"/>
</g>
<!-- rings_SemiRings_SR_one -->
<g id="node3" class="node">
<title>rings_SemiRings_SR_one</title>
<g id="a_node3"><a xlink:href="rings.html#SemiRings.SR_one" xlink:title="SR_one">
<ellipse fill="#f070d1" stroke="#000000" cx="115" cy="-240.5111" rx="45.4919" ry="18"/>
<text text-anchor="middle" x="115" y="-236.8111" font-family="Times,serif" font-size="14.00" fill="#000000">SR_one</text>
</a>
</g>
</g>
<!-- rings_SemiRings_iso_same_semirings&#45;&gt;rings_SemiRings_SR_one -->
<g id="edge2" class="edge">
<title>rings_SemiRings_iso_same_semirings&#45;&gt;rings_SemiRings_SR_one</title>
<path fill="none" stroke="#000000" d="M250.598,-308.3101C222.1456,-294.0839 181.8008,-273.9115 152.5216,-259.2719"/>
<polygon fill="#000000" stroke="#000000" points="153.9428,-256.0694 143.4332,-254.7277 150.8122,-262.3304 153.9428,-256.0694"/>
</g>
<!-- rings_SemiRings_SR_zero -->
<g id="node4" class="node">
<title>rings_SemiRings_SR_zero</title>
<g id="a_node4"><a xlink:href="rings.html#SemiRings.SR_zero" xlink:title="SR_zero">
<ellipse fill="#f070d1" stroke="#000000" cx="227" cy="-240.5111" rx="48.9926" ry="18"/>
<text text-anchor="middle" x="227" y="-236.8111" font-family="Times,serif" font-size="14.00" fill="#000000">SR_zero</text>
</a>
</g>
</g>
<!-- rings_SemiRings_iso_same_semirings&#45;&gt;rings_SemiRings_SR_zero -->
<g id="edge3" class="edge">
<title>rings_SemiRings_iso_same_semirings&#45;&gt;rings_SemiRings_SR_zero</title>
<path fill="none" stroke="#000000" d="M272.6997,-307.4848C264.571,-295.572 253.7868,-279.7676 244.7358,-266.5033"/>
<polygon fill="#000000" stroke="#000000" points="247.6112,-264.5075 239.0837,-258.22 241.829,-268.453 247.6112,-264.5075"/>
</g>
<!-- rings_SemiRings_SR_mult -->
<g id="node5" class="node">
<title>rings_SemiRings_SR_mult</title>
<g id="a_node5"><a xlink:href="rings.html#SemiRings.SR_mult" xlink:title="SR_mult">
<ellipse fill="#f070d1" stroke="#000000" cx="344" cy="-240.5111" rx="50.0912" ry="18"/>
<text text-anchor="middle" x="344" y="-236.8111" font-family="Times,serif" font-size="14.00" fill="#000000">SR_mult</text>
</a>
</g>
</g>
<!-- rings_SemiRings_iso_same_semirings&#45;&gt;rings_SemiRings_SR_mult -->
<g id="edge4" class="edge">
<title>rings_SemiRings_iso_same_semirings&#45;&gt;rings_SemiRings_SR_mult</title>
<path fill="none" stroke="#000000" d="M297.5124,-307.4848C305.7813,-295.572 316.7514,-279.7676 325.9584,-266.5033"/>
<polygon fill="#000000" stroke="#000000" points="328.881,-268.4307 331.708,-258.22 323.1305,-264.4392 328.881,-268.4307"/>
</g>
<!-- rings_SemiRings_SR_plus -->
<g id="node6" class="node">
<title>rings_SemiRings_SR_plus</title>
<g id="a_node6"><a xlink:href="rings.html#SemiRings.SR_plus" xlink:title="SR_plus">
<ellipse fill="#f070d1" stroke="#000000" cx="460" cy="-240.5111" rx="48.1917" ry="18"/>
<text text-anchor="middle" x="460" y="-236.8111" font-family="Times,serif" font-size="14.00" fill="#000000">SR_plus</text>
</a>
</g>
</g>
<!-- rings_SemiRings_iso_same_semirings&#45;&gt;rings_SemiRings_SR_plus -->
<g id="edge5" class="edge">
<title>rings_SemiRings_iso_same_semirings&#45;&gt;rings_SemiRings_SR_plus</title>
<path fill="none" stroke="#000000" d="M319.9933,-308.5144C349.3713,-294.2451 391.2805,-273.8891 421.5819,-259.1713"/>
<polygon fill="#000000" stroke="#000000" points="423.1205,-262.3151 430.5864,-254.7977 420.0621,-256.0185 423.1205,-262.3151"/>
</g>
<!-- rings_SemiRings_SR_carrier -->
<g id="node7" class="node">
<title>rings_SemiRings_SR_carrier</title>
<g id="a_node7"><a xlink:href="rings.html#SemiRings.SR_carrier" xlink:title="SR_carrier">
<ellipse fill="#f070d1" stroke="#000000" cx="447" cy="-145.5111" rx="61.1893" ry="18"/>
<text text-anchor="middle" x="447" y="-141.8111" font-family="Times,serif" font-size="14.00" fill="#000000">SR_carrier</text>
</a>
</g>
</g>
<!-- rings_SemiRings_SR_one&#45;&gt;rings_SemiRings_SR_carrier -->
<g id="edge6" class="edge">
<title>rings_SemiRings_SR_one&#45;&gt;rings_SemiRings_SR_carrier</title>
<path fill="none" stroke="#000000" d="M149.438,-228.568C155.9085,-226.4561 162.6388,-224.3479 169,-222.5111 260.4469,-196.1063 286.0136,-199.4615 377,-171.5111 384.753,-169.1294 392.8973,-166.359 400.7785,-163.5321"/>
<polygon fill="#000000" stroke="#000000" points="402.0292,-166.8015 410.2174,-160.0783 399.6237,-160.2278 402.0292,-166.8015"/>
</g>
<!-- rings_SemiRings_SR_zero&#45;&gt;rings_SemiRings_SR_carrier -->
<g id="edge7" class="edge">
<title>rings_SemiRings_SR_zero&#45;&gt;rings_SemiRings_SR_carrier</title>
<path fill="none" stroke="#000000" d="M258.9899,-226.6973C296.992,-210.2873 360.5869,-182.8259 403.1541,-164.4446"/>
<polygon fill="#000000" stroke="#000000" points="404.6382,-167.6162 412.4313,-160.4385 401.8631,-161.1897 404.6382,-167.6162"/>
</g>
<!-- rings_SemiRings_SR_mult&#45;&gt;rings_SemiRings_SR_carrier -->
<g id="edge8" class="edge">
<title>rings_SemiRings_SR_mult&#45;&gt;rings_SemiRings_SR_carrier</title>
<path fill="none" stroke="#000000" d="M362.4143,-223.527C378.7176,-208.4901 402.6921,-186.3776 420.9581,-169.5304"/>
<polygon fill="#000000" stroke="#000000" points="423.42,-172.0211 428.3978,-162.6685 418.6741,-166.8756 423.42,-172.0211"/>
</g>
<!-- rings_SemiRings_SR_plus&#45;&gt;rings_SemiRings_SR_carrier -->
<g id="edge9" class="edge">
<title>rings_SemiRings_SR_plus&#45;&gt;rings_SemiRings_SR_carrier</title>
<path fill="none" stroke="#000000" d="M457.4935,-222.1942C455.6231,-208.526 453.0324,-189.5944 450.8933,-173.9619"/>
<polygon fill="#000000" stroke="#000000" points="454.3224,-173.2049 449.4988,-163.7718 447.387,-174.1541 454.3224,-173.2049"/>
</g>
<!-- rings_SemiRings_Operations -->
<g id="node10" class="node">
<title>rings_SemiRings_Operations</title>
<g id="a_node10"><a xlink:href="rings.html#SemiRings.Operations" xlink:title="Operations">
<ellipse fill="#f070d1" stroke="#000000" cx="273" cy="-49.5111" rx="62.2891" ry="18"/>
<text text-anchor="middle" x="273" y="-45.8111" font-family="Times,serif" font-size="14.00" fill="#000000">Operations</text>
</a>
</g>
</g>
<!-- rings_SemiRings_SR_carrier&#45;&gt;rings_SemiRings_Operations -->
<g id="edge10" class="edge">
<title>rings_SemiRings_SR_carrier&#45;&gt;rings_SemiRings_Operations</title>
<path fill="none" stroke="#000000" d="M417.8763,-129.4429C388.5546,-113.2654 343.1807,-88.2315 311.0337,-70.4952"/>
<polygon fill="#000000" stroke="#000000" points="312.3752,-67.238 301.9286,-65.4717 308.9936,-73.3671 312.3752,-67.238"/>
</g>
<!-- rings_SemiRings_BuildOperations -->
<g id="node8" class="node">
<title>rings_SemiRings_BuildOperations</title>
<g id="a_node8"><a xlink:href="rings.html#SemiRings.BuildOperations" xlink:title="BuildOperations">
<ellipse fill="#f070d1" stroke="#000000" cx="273" cy="-145.5111" rx="87.1769" ry="18"/>
<ellipse fill="none" stroke="#000000" cx="273" cy="-145.5111" rx="91.1807" ry="22"/>
<ellipse fill="none" stroke="#000000" cx="273" cy="-145.5111" rx="95.1846" ry="26"/>
<text text-anchor="middle" x="273" y="-141.8111" font-family="Times,serif" font-size="14.00" fill="#000000">BuildOperations</text>
</a>
</g>
</g>
<!-- rings_SemiRings_BuildOperations&#45;&gt;rings_SemiRings_Operations -->
<g id="edge11" class="edge">
<title>rings_SemiRings_BuildOperations&#45;&gt;rings_SemiRings_Operations</title>
<path fill="none" stroke="#000000" d="M273,-119.2787C273,-106.4408 273,-90.9672 273,-77.8578"/>
<polygon fill="#000000" stroke="#000000" points="276.5001,-77.5116 273,-67.5116 269.5001,-77.5117 276.5001,-77.5116"/>
</g>
<!-- rings_SemiRings_operations -->
<g id="node9" class="node">
<title>rings_SemiRings_operations</title>
<g id="a_node9"><a xlink:href="rings.html#SemiRings.operations" xlink:title="operations">
<ellipse fill="#f070d1" stroke="#000000" cx="92" cy="-145.5111" rx="59.6142" ry="18"/>
<ellipse fill="none" stroke="#000000" cx="92" cy="-145.5111" rx="63.6021" ry="22"/>
<ellipse fill="none" stroke="#000000" cx="92" cy="-145.5111" rx="67.59" ry="26"/>
<text text-anchor="middle" x="92" y="-141.8111" font-family="Times,serif" font-size="14.00" fill="#000000">operations</text>
</a>
</g>
</g>
<!-- rings_SemiRings_operations&#45;&gt;rings_SemiRings_Operations -->
<g id="edge12" class="edge">
<title>rings_SemiRings_operations&#45;&gt;rings_SemiRings_Operations</title>
<path fill="none" stroke="#000000" d="M132.1698,-124.2056C162.5616,-108.0862 204.0571,-86.0775 234.1269,-70.1289"/>
<polygon fill="#000000" stroke="#000000" points="235.8728,-73.1648 243.0671,-65.3871 232.5928,-66.9808 235.8728,-73.1648"/>
</g>
<!-- rings_Rings_iso_leibnitz -->
<g id="node11" class="node">
<title>rings_Rings_iso_leibnitz</title>
<g id="a_node11"><a xlink:href="rings.html#Rings.iso_leibnitz" xlink:title="iso_leibnitz">
<ellipse fill="#f070d1" stroke="#000000" cx="796" cy="-420.5111" rx="63.8675" ry="18"/>
<ellipse fill="none" stroke="#000000" cx="796" cy="-420.5111" rx="67.8784" ry="22"/>
<ellipse fill="none" stroke="#000000" cx="796" cy="-420.5111" rx="71.8892" ry="26"/>
<text text-anchor="middle" x="796" y="-416.8111" font-family="Times,serif" font-size="14.00" fill="#000000">iso_leibnitz</text>
</a>
</g>
</g>
<!-- rings_Rings_iso_same_rings -->
<g id="node12" class="node">
<title>rings_Rings_iso_same_rings</title>
<g id="a_node12"><a xlink:href="rings.html#Rings.iso_same_rings" xlink:title="iso_same_rings">
<ellipse fill="#f070d1" stroke="#000000" cx="796" cy="-325.5111" rx="81.7856" ry="18"/>
<text text-anchor="middle" x="796" y="-321.8111" font-family="Times,serif" font-size="14.00" fill="#000000">iso_same_rings</text>
</a>
</g>
</g>
<!-- rings_Rings_iso_leibnitz&#45;&gt;rings_Rings_iso_same_rings -->
<g id="edge13" class="edge">
<title>rings_Rings_iso_leibnitz&#45;&gt;rings_Rings_iso_same_rings</title>
<path fill="none" stroke="#000000" d="M796,-394.3005C796,-381.6858 796,-366.5455 796,-353.6841"/>
<polygon fill="#000000" stroke="#000000" points="799.5001,-353.5221 796,-343.5222 792.5001,-353.5222 799.5001,-353.5221"/>
</g>
<!-- rings_Rings_R_negate -->
<g id="node13" class="node">
<title>rings_Rings_R_negate</title>
<g id="a_node13"><a xlink:href="rings.html#Rings.R_negate" xlink:title="R_negate">
<ellipse fill="#f070d1" stroke="#000000" cx="586" cy="-240.5111" rx="53.8905" ry="18"/>
<text text-anchor="middle" x="586" y="-236.8111" font-family="Times,serif" font-size="14.00" fill="#000000">R_negate</text>
</a>
</g>
</g>
<!-- rings_Rings_iso_same_rings&#45;&gt;rings_Rings_R_negate -->
<g id="edge14" class="edge">
<title>rings_Rings_iso_same_rings&#45;&gt;rings_Rings_R_negate</title>
<path fill="none" stroke="#000000" d="M756.5006,-309.5233C720.5088,-294.9552 667.4212,-273.4673 630.0669,-258.3477"/>
<polygon fill="#000000" stroke="#000000" points="631.0358,-254.9641 620.4531,-254.4564 628.4094,-261.4527 631.0358,-254.9641"/>
</g>
<!-- rings_Rings_R_one -->
<g id="node14" class="node">
<title>rings_Rings_R_one</title>
<g id="a_node14"><a xlink:href="rings.html#Rings.R_one" xlink:title="R_one">
<ellipse fill="#f070d1" stroke="#000000" cx="697" cy="-240.5111" rx="38.9931" ry="18"/>
<text text-anchor="middle" x="697" y="-236.8111" font-family="Times,serif" font-size="14.00" fill="#000000">R_one</text>
</a>
</g>
</g>
<!-- rings_Rings_iso_same_rings&#45;&gt;rings_Rings_R_one -->
<g id="edge15" class="edge">
<title>rings_Rings_iso_same_rings&#45;&gt;rings_Rings_R_one</title>
<path fill="none" stroke="#000000" d="M775.4871,-307.8991C760.3016,-294.8609 739.4963,-276.9978 723.1217,-262.9389"/>
<polygon fill="#000000" stroke="#000000" points="725.3504,-260.2393 715.4833,-256.3806 720.7904,-265.5503 725.3504,-260.2393"/>
</g>
<!-- rings_Rings_R_zero -->
<g id="node15" class="node">
<title>rings_Rings_R_zero</title>
<g id="a_node15"><a xlink:href="rings.html#Rings.R_zero" xlink:title="R_zero">
<ellipse fill="#f070d1" stroke="#000000" cx="796" cy="-240.5111" rx="42.4939" ry="18"/>
<text text-anchor="middle" x="796" y="-236.8111" font-family="Times,serif" font-size="14.00" fill="#000000">R_zero</text>
</a>
</g>
</g>
<!-- rings_Rings_iso_same_rings&#45;&gt;rings_Rings_R_zero -->
<g id="edge16" class="edge">
<title>rings_Rings_iso_same_rings&#45;&gt;rings_Rings_R_zero</title>
<path fill="none" stroke="#000000" d="M796,-307.4848C796,-296.2154 796,-281.4635 796,-268.6738"/>
<polygon fill="#000000" stroke="#000000" points="799.5001,-268.5114 796,-258.5114 792.5001,-268.5115 799.5001,-268.5114"/>
</g>
<!-- rings_Rings_R_mult -->
<g id="node16" class="node">
<title>rings_Rings_R_mult</title>
<g id="a_node16"><a xlink:href="rings.html#Rings.R_mult" xlink:title="R_mult">
<ellipse fill="#f070d1" stroke="#000000" cx="900" cy="-240.5111" rx="44.393" ry="18"/>
<text text-anchor="middle" x="900" y="-236.8111" font-family="Times,serif" font-size="14.00" fill="#000000">R_mult</text>
</a>
</g>
</g>
<!-- rings_Rings_iso_same_rings&#45;&gt;rings_Rings_R_mult -->
<g id="edge17" class="edge">
<title>rings_Rings_iso_same_rings&#45;&gt;rings_Rings_R_mult</title>
<path fill="none" stroke="#000000" d="M817.2969,-308.105C833.1286,-295.1656 854.8759,-277.3914 872.0965,-263.3168"/>
<polygon fill="#000000" stroke="#000000" points="874.6129,-265.7805 880.1409,-256.7421 870.183,-260.3605 874.6129,-265.7805"/>
</g>
<!-- rings_Rings_R_plus -->
<g id="node17" class="node">
<title>rings_Rings_R_plus</title>
<g id="a_node17"><a xlink:href="rings.html#Rings.R_plus" xlink:title="R_plus">
<ellipse fill="#f070d1" stroke="#000000" cx="1004" cy="-240.5111" rx="42.4939" ry="18"/>
<text text-anchor="middle" x="1004" y="-236.8111" font-family="Times,serif" font-size="14.00" fill="#000000">R_plus</text>
</a>
</g>
</g>
<!-- rings_Rings_iso_same_rings&#45;&gt;rings_Rings_R_plus -->
<g id="edge18" class="edge">
<title>rings_Rings_iso_same_rings&#45;&gt;rings_Rings_R_plus</title>
<path fill="none" stroke="#000000" d="M835.1232,-309.5233C871.9605,-294.4696 926.8785,-272.0271 963.9995,-256.8575"/>
<polygon fill="#000000" stroke="#000000" points="965.5663,-259.9982 973.4991,-252.9754 962.9182,-253.5184 965.5663,-259.9982"/>
</g>
<!-- rings_Rings_R_carrier -->
<g id="node18" class="node">
<title>rings_Rings_R_carrier</title>
<g id="a_node18"><a xlink:href="rings.html#Rings.R_carrier" xlink:title="R_carrier">
<ellipse fill="#f070d1" stroke="#000000" cx="949" cy="-145.5111" rx="54.6905" ry="18"/>
<text text-anchor="middle" x="949" y="-141.8111" font-family="Times,serif" font-size="14.00" fill="#000000">R_carrier</text>
</a>
</g>
</g>
<!-- rings_Rings_R_negate&#45;&gt;rings_Rings_R_carrier -->
<g id="edge19" class="edge">
<title>rings_Rings_R_negate&#45;&gt;rings_Rings_R_carrier</title>
<path fill="none" stroke="#000000" d="M626.5625,-228.4995C634.0028,-226.4167 641.7176,-224.3362 649,-222.5111 753.0908,-196.4236 782.4623,-203.1574 885,-171.5111 892.1694,-169.2984 899.657,-166.6144 906.879,-163.8216"/>
<polygon fill="#000000" stroke="#000000" points="908.5168,-166.9364 916.5078,-159.9798 905.9227,-160.4348 908.5168,-166.9364"/>
</g>
<!-- rings_Rings_R_one&#45;&gt;rings_Rings_R_carrier -->
<g id="edge20" class="edge">
<title>rings_Rings_R_one&#45;&gt;rings_Rings_R_carrier</title>
<path fill="none" stroke="#000000" d="M727.4547,-229.0413C733.2757,-226.863 739.3234,-224.6094 745,-222.5111 807.1147,-199.5514 823.2022,-195.3107 885,-171.5111 891.5419,-168.9917 898.433,-166.2673 905.1729,-163.5628"/>
<polygon fill="#000000" stroke="#000000" points="906.9199,-166.6319 914.8809,-159.641 904.2979,-160.1415 906.9199,-166.6319"/>
</g>
<!-- rings_Rings_R_zero&#45;&gt;rings_Rings_R_carrier -->
<g id="edge21" class="edge">
<title>rings_Rings_R_zero&#45;&gt;rings_Rings_R_carrier</title>
<path fill="none" stroke="#000000" d="M819.9063,-225.6674C845.3457,-209.8716 885.8247,-184.7376 914.6698,-166.8273"/>
<polygon fill="#000000" stroke="#000000" points="916.5694,-169.7676 923.2186,-161.5191 912.8768,-163.8208 916.5694,-169.7676"/>
</g>
<!-- rings_Rings_R_mult&#45;&gt;rings_Rings_R_carrier -->
<g id="edge22" class="edge">
<title>rings_Rings_R_mult&#45;&gt;rings_Rings_R_carrier</title>
<path fill="none" stroke="#000000" d="M909.2165,-222.6423C916.5397,-208.4444 926.8961,-188.3656 935.2065,-172.2535"/>
<polygon fill="#000000" stroke="#000000" points="938.3513,-173.7916 939.8248,-163.2998 932.1301,-170.5828 938.3513,-173.7916"/>
</g>
<!-- rings_Rings_R_plus&#45;&gt;rings_Rings_R_carrier -->
<g id="edge23" class="edge">
<title>rings_Rings_R_plus&#45;&gt;rings_Rings_R_carrier</title>
<path fill="none" stroke="#000000" d="M993.6549,-222.6423C985.435,-208.4444 973.8105,-188.3656 964.4824,-172.2535"/>
<polygon fill="#000000" stroke="#000000" points="967.3381,-170.2004 959.2987,-163.2998 961.2801,-173.7077 967.3381,-170.2004"/>
</g>
<!-- rings_Rings_Operations -->
<g id="node21" class="node">
<title>rings_Rings_Operations</title>
<g id="a_node21"><a xlink:href="rings.html#Rings.Operations" xlink:title="Operations">
<ellipse fill="#f070d1" stroke="#000000" cx="781" cy="-49.5111" rx="62.2891" ry="18"/>
<text text-anchor="middle" x="781" y="-45.8111" font-family="Times,serif" font-size="14.00" fill="#000000">Operations</text>
</a>
</g>
</g>
<!-- rings_Rings_R_carrier&#45;&gt;rings_Rings_Operations -->
<g id="edge24" class="edge">
<title>rings_Rings_R_carrier&#45;&gt;rings_Rings_Operations</title>
<path fill="none" stroke="#000000" d="M921.634,-129.8734C893.454,-113.7705 849.3567,-88.5721 818.0614,-70.6891"/>
<polygon fill="#000000" stroke="#000000" points="819.6146,-67.5455 809.1956,-65.6229 816.1416,-73.6232 819.6146,-67.5455"/>
</g>
<!-- rings_Rings_BuildOperations -->
<g id="node19" class="node">
<title>rings_Rings_BuildOperations</title>
<g id="a_node19"><a xlink:href="rings.html#Rings.BuildOperations" xlink:title="BuildOperations">
<ellipse fill="#f070d1" stroke="#000000" cx="781" cy="-145.5111" rx="87.1769" ry="18"/>
<ellipse fill="none" stroke="#000000" cx="781" cy="-145.5111" rx="91.1807" ry="22"/>
<ellipse fill="none" stroke="#000000" cx="781" cy="-145.5111" rx="95.1846" ry="26"/>
<text text-anchor="middle" x="781" y="-141.8111" font-family="Times,serif" font-size="14.00" fill="#000000">BuildOperations</text>
</a>
</g>
</g>
<!-- rings_Rings_BuildOperations&#45;&gt;rings_Rings_Operations -->
<g id="edge25" class="edge">
<title>rings_Rings_BuildOperations&#45;&gt;rings_Rings_Operations</title>
<path fill="none" stroke="#000000" d="M781,-119.2787C781,-106.4408 781,-90.9672 781,-77.8578"/>
<polygon fill="#000000" stroke="#000000" points="784.5001,-77.5116 781,-67.5116 777.5001,-77.5117 784.5001,-77.5116"/>
</g>
<!-- rings_Rings_operations -->
<g id="node20" class="node">
<title>rings_Rings_operations</title>
<g id="a_node20"><a xlink:href="rings.html#Rings.operations" xlink:title="operations">
<ellipse fill="#f070d1" stroke="#000000" cx="600" cy="-145.5111" rx="59.6142" ry="18"/>
<ellipse fill="none" stroke="#000000" cx="600" cy="-145.5111" rx="63.6021" ry="22"/>
<ellipse fill="none" stroke="#000000" cx="600" cy="-145.5111" rx="67.59" ry="26"/>
<text text-anchor="middle" x="600" y="-141.8111" font-family="Times,serif" font-size="14.00" fill="#000000">operations</text>
</a>
</g>
</g>
<!-- rings_Rings_operations&#45;&gt;rings_Rings_Operations -->
<g id="edge26" class="edge">
<title>rings_Rings_operations&#45;&gt;rings_Rings_Operations</title>
<path fill="none" stroke="#000000" d="M640.1698,-124.2056C670.5616,-108.0862 712.0571,-86.0775 742.1269,-70.1289"/>
<polygon fill="#000000" stroke="#000000" points="743.8728,-73.1648 751.0671,-65.3871 740.5928,-66.9808 743.8728,-73.1648"/>
</g>
</g>
</svg>
