<?xml version="1.0" encoding="UTF-8" standalone="no"?>
<!DOCTYPE svg PUBLIC "-//W3C//DTD SVG 1.1//EN"
 "http://www.w3.org/Graphics/SVG/1.1/DTD/svg11.dtd">
<!-- Generated by graphviz version 2.40.1 (20161225.0304)
 -->
<!-- Title: HoTT_Spaces_Int_Spec Pages: 1 -->
<svg width="2313pt" height="1161pt"
 viewBox="0.00 0.00 2313.00 1160.50" xmlns="http://www.w3.org/2000/svg" xmlns:xlink="http://www.w3.org/1999/xlink">
<g id="graph0" class="graph" transform="scale(1 1) rotate(0) translate(4 1156.5)">
<title>HoTT_Spaces_Int_Spec</title>
<polygon fill="#ffffff" stroke="transparent" points="-4,4 -4,-1156.5 2309,-1156.5 2309,4 -4,4"/>
<g id="clust1" class="cluster">
<title>cluster_Spec</title>
<polygon fill="#ffffc3" stroke="#000000" points="8,-11.9585 8,-1140.5415 2297,-1140.5415 2297,-11.9585 8,-11.9585"/>
<text text-anchor="middle" x="34" y="-1125.3415" font-family="Times,serif" font-size="14.00" fill="#000000">Spec</text>
</g>
<!-- Spec_int_mul_assoc -->
<g id="node1" class="node">
<title>Spec_int_mul_assoc</title>
<g id="a_node1"><a xlink:href="Spec.html#int_mul_assoc" xlink:title="int_mul_assoc">
<ellipse fill="#f070d1" stroke="#000000" cx="2204" cy="-1054.9585" rx="76.8685" ry="18"/>
<ellipse fill="none" stroke="#000000" cx="2204" cy="-1054.9585" rx="80.8777" ry="22"/>
<ellipse fill="none" stroke="#000000" cx="2204" cy="-1054.9585" rx="84.8868" ry="26"/>
<text text-anchor="middle" x="2204" y="-1051.2585" font-family="Times,serif" font-size="14.00" fill="#000000">int_mul_assoc</text>
</a>
</g>
</g>
<!-- Spec_int_mul_add_distr_l -->
<g id="node2" class="node">
<title>Spec_int_mul_add_distr_l</title>
<g id="a_node2"><a xlink:href="Spec.html#int_mul_add_distr_l" xlink:title="int_mul_add_distr_l">
<ellipse fill="#f070d1" stroke="#000000" cx="1991" cy="-1054.9585" rx="102.8683" ry="18"/>
<ellipse fill="none" stroke="#000000" cx="1991" cy="-1054.9585" rx="106.8752" ry="22"/>
<ellipse fill="none" stroke="#000000" cx="1991" cy="-1054.9585" rx="110.8821" ry="26"/>
<text text-anchor="middle" x="1991" y="-1051.2585" font-family="Times,serif" font-size="14.00" fill="#000000">int_mul_add_distr_l</text>
</a>
</g>
</g>
<!-- Spec_int_mul_add_distr_r -->
<g id="node3" class="node">
<title>Spec_int_mul_add_distr_r</title>
<g id="a_node3"><a xlink:href="Spec.html#int_mul_add_distr_r" xlink:title="int_mul_add_distr_r">
<ellipse fill="#f070d1" stroke="#000000" cx="1991" cy="-935.9585" rx="103.9815" ry="18"/>
<text text-anchor="middle" x="1991" y="-932.2585" font-family="Times,serif" font-size="14.00" fill="#000000">int_mul_add_distr_r</text>
</a>
</g>
</g>
<!-- Spec_int_mul_add_distr_l&#45;&gt;Spec_int_mul_add_distr_r -->
<g id="edge1" class="edge">
<title>Spec_int_mul_add_distr_l&#45;&gt;Spec_int_mul_add_distr_r</title>
<path fill="none" stroke="#000000" d="M1991,-1028.8434C1991,-1009.7935 1991,-983.993 1991,-964.4181"/>
<polygon fill="#000000" stroke="#000000" points="1994.5001,-964.266 1991,-954.2661 1987.5001,-964.2661 1994.5001,-964.266"/>
</g>
<!-- Spec_int_pos_sub_mul_neg -->
<g id="node4" class="node">
<title>Spec_int_pos_sub_mul_neg</title>
<g id="a_node4"><a xlink:href="Spec.html#int_pos_sub_mul_neg" xlink:title="int_pos_sub_mul_neg">
<ellipse fill="#f070d1" stroke="#000000" cx="1753" cy="-827.9585" rx="110.4804" ry="18"/>
<text text-anchor="middle" x="1753" y="-824.2585" font-family="Times,serif" font-size="14.00" fill="#000000">int_pos_sub_mul_neg</text>
</a>
</g>
</g>
<!-- Spec_int_mul_add_distr_r&#45;&gt;Spec_int_pos_sub_mul_neg -->
<g id="edge2" class="edge">
<title>Spec_int_mul_add_distr_r&#45;&gt;Spec_int_pos_sub_mul_neg</title>
<path fill="none" stroke="#000000" d="M1953.8125,-919.0835C1912.3136,-900.2521 1845.0869,-869.7458 1799.9834,-849.2787"/>
<polygon fill="#000000" stroke="#000000" points="1801.2644,-846.0165 1790.7118,-845.0714 1798.3718,-852.3909 1801.2644,-846.0165"/>
</g>
<!-- Spec_int_pos_sub_mul_pos -->
<g id="node5" class="node">
<title>Spec_int_pos_sub_mul_pos</title>
<g id="a_node5"><a xlink:href="Spec.html#int_pos_sub_mul_pos" xlink:title="int_pos_sub_mul_pos">
<ellipse fill="#f070d1" stroke="#000000" cx="1991" cy="-827.9585" rx="109.381" ry="18"/>
<text text-anchor="middle" x="1991" y="-824.2585" font-family="Times,serif" font-size="14.00" fill="#000000">int_pos_sub_mul_pos</text>
</a>
</g>
</g>
<!-- Spec_int_mul_add_distr_r&#45;&gt;Spec_int_pos_sub_mul_pos -->
<g id="edge3" class="edge">
<title>Spec_int_mul_add_distr_r&#45;&gt;Spec_int_pos_sub_mul_pos</title>
<path fill="none" stroke="#000000" d="M1991,-917.6378C1991,-900.7795 1991,-875.5236 1991,-856.1055"/>
<polygon fill="#000000" stroke="#000000" points="1994.5001,-856.0086 1991,-846.0087 1987.5001,-856.0087 1994.5001,-856.0086"/>
</g>
<!-- Spec_int_mul_0_r -->
<g id="node35" class="node">
<title>Spec_int_mul_0_r</title>
<g id="a_node35"><a xlink:href="Spec.html#int_mul_0_r" xlink:title="int_mul_0_r">
<ellipse fill="#f070d1" stroke="#000000" cx="2184" cy="-827.9585" rx="65.7887" ry="18"/>
<text text-anchor="middle" x="2184" y="-824.2585" font-family="Times,serif" font-size="14.00" fill="#000000">int_mul_0_r</text>
</a>
</g>
</g>
<!-- Spec_int_mul_add_distr_r&#45;&gt;Spec_int_mul_0_r -->
<g id="edge4" class="edge">
<title>Spec_int_mul_add_distr_r&#45;&gt;Spec_int_mul_0_r</title>
<path fill="none" stroke="#000000" d="M2022.0088,-918.6064C2055.8003,-899.6972 2109.8778,-869.4362 2146.148,-849.1399"/>
<polygon fill="#000000" stroke="#000000" points="2147.9449,-852.1452 2154.9623,-844.2075 2144.5266,-846.0366 2147.9449,-852.1452"/>
</g>
<!-- Spec_int_mul_comm -->
<g id="node6" class="node">
<title>Spec_int_mul_comm</title>
<g id="a_node6"><a xlink:href="Spec.html#int_mul_comm" xlink:title="int_mul_comm">
<ellipse fill="#f070d1" stroke="#000000" cx="1926" cy="-720.9585" rx="79.0865" ry="18"/>
<text text-anchor="middle" x="1926" y="-717.2585" font-family="Times,serif" font-size="14.00" fill="#000000">int_mul_comm</text>
</a>
</g>
</g>
<!-- Spec_int_pos_sub_mul_neg&#45;&gt;Spec_int_mul_comm -->
<g id="edge5" class="edge">
<title>Spec_int_pos_sub_mul_neg&#45;&gt;Spec_int_mul_comm</title>
<path fill="none" stroke="#000000" d="M1781.1805,-810.529C1810.7613,-792.2333 1857.3743,-763.4033 1889.6933,-743.4141"/>
<polygon fill="#000000" stroke="#000000" points="1891.7401,-746.2635 1898.4038,-738.0267 1888.058,-740.3102 1891.7401,-746.2635"/>
</g>
<!-- Spec_int_add_assoc -->
<g id="node9" class="node">
<title>Spec_int_add_assoc</title>
<g id="a_node9"><a xlink:href="Spec.html#int_add_assoc" xlink:title="int_add_assoc">
<ellipse fill="#f070d1" stroke="#000000" cx="1753" cy="-720.9585" rx="76.0865" ry="18"/>
<text text-anchor="middle" x="1753" y="-717.2585" font-family="Times,serif" font-size="14.00" fill="#000000">int_add_assoc</text>
</a>
</g>
</g>
<!-- Spec_int_pos_sub_mul_neg&#45;&gt;Spec_int_add_assoc -->
<g id="edge6" class="edge">
<title>Spec_int_pos_sub_mul_neg&#45;&gt;Spec_int_add_assoc</title>
<path fill="none" stroke="#000000" d="M1753,-809.8074C1753,-793.2827 1753,-768.614 1753,-749.4601"/>
<polygon fill="#000000" stroke="#000000" points="1756.5001,-749.1986 1753,-739.1986 1749.5001,-749.1987 1756.5001,-749.1986"/>
</g>
<!-- Spec_int_pos_sub_mul_pos&#45;&gt;Spec_int_mul_comm -->
<g id="edge7" class="edge">
<title>Spec_int_pos_sub_mul_pos&#45;&gt;Spec_int_mul_comm</title>
<path fill="none" stroke="#000000" d="M1979.9736,-809.8074C1969.5926,-792.7186 1953.9207,-766.9203 1942.1345,-747.5184"/>
<polygon fill="#000000" stroke="#000000" points="1945.0468,-745.571 1936.8635,-738.8415 1939.0641,-749.2053 1945.0468,-745.571"/>
</g>
<!-- Spec_int_pos_sub_mul_pos&#45;&gt;Spec_int_add_assoc -->
<g id="edge8" class="edge">
<title>Spec_int_pos_sub_mul_pos&#45;&gt;Spec_int_add_assoc</title>
<path fill="none" stroke="#000000" d="M1953.2882,-811.004C1911.0708,-792.0239 1842.707,-761.2889 1797.8005,-741.0999"/>
<polygon fill="#000000" stroke="#000000" points="1799.1476,-737.8681 1788.5918,-736.9599 1796.2773,-744.2526 1799.1476,-737.8681"/>
</g>
<!-- Spec_int_mul_1_l -->
<g id="node34" class="node">
<title>Spec_int_mul_1_l</title>
<g id="a_node34"><a xlink:href="Spec.html#int_mul_1_l" xlink:title="int_mul_1_l">
<ellipse fill="#f070d1" stroke="#000000" cx="2088" cy="-720.9585" rx="64.189" ry="18"/>
<text text-anchor="middle" x="2088" y="-717.2585" font-family="Times,serif" font-size="14.00" fill="#000000">int_mul_1_l</text>
</a>
</g>
</g>
<!-- Spec_int_pos_sub_mul_pos&#45;&gt;Spec_int_mul_1_l -->
<g id="edge9" class="edge">
<title>Spec_int_pos_sub_mul_pos&#45;&gt;Spec_int_mul_1_l</title>
<path fill="none" stroke="#000000" d="M2007.4547,-809.8074C2023.3219,-792.3045 2047.4718,-765.6649 2065.1906,-746.1194"/>
<polygon fill="#000000" stroke="#000000" points="2067.9864,-748.2466 2072.1097,-738.487 2062.8002,-743.5451 2067.9864,-748.2466"/>
</g>
<!-- Spec_equiv_int_succ -->
<g id="node7" class="node">
<title>Spec_equiv_int_succ</title>
<g id="a_node7"><a xlink:href="Spec.html#equiv_int_succ" xlink:title="equiv_int_succ">
<ellipse fill="#f070d1" stroke="#000000" cx="706" cy="-492.9585" rx="79.891" ry="18"/>
<ellipse fill="none" stroke="#000000" cx="706" cy="-492.9585" rx="83.8884" ry="22"/>
<ellipse fill="none" stroke="#000000" cx="706" cy="-492.9585" rx="87.8859" ry="26"/>
<text text-anchor="middle" x="706" y="-489.2585" font-family="Times,serif" font-size="14.00" fill="#000000">equiv_int_succ</text>
</a>
</g>
</g>
<!-- Spec_isequiv_int_succ -->
<g id="node8" class="node">
<title>Spec_isequiv_int_succ</title>
<g id="a_node8"><a xlink:href="Spec.html#isequiv_int_succ" xlink:title="isequiv_int_succ">
<ellipse fill="#f070d1" stroke="#000000" cx="706" cy="-373.9585" rx="87.9851" ry="18"/>
<text text-anchor="middle" x="706" y="-370.2585" font-family="Times,serif" font-size="14.00" fill="#000000">isequiv_int_succ</text>
</a>
</g>
</g>
<!-- Spec_equiv_int_succ&#45;&gt;Spec_isequiv_int_succ -->
<g id="edge10" class="edge">
<title>Spec_equiv_int_succ&#45;&gt;Spec_isequiv_int_succ</title>
<path fill="none" stroke="#000000" d="M706,-466.8434C706,-447.7935 706,-421.993 706,-402.4181"/>
<polygon fill="#000000" stroke="#000000" points="709.5001,-402.266 706,-392.2661 702.5001,-402.2661 709.5001,-402.266"/>
</g>
<!-- Spec_int_pred_succ -->
<g id="node22" class="node">
<title>Spec_int_pred_succ</title>
<g id="a_node22"><a xlink:href="Spec.html#int_pred_succ" xlink:title="int_pred_succ">
<ellipse fill="#f070d1" stroke="#000000" cx="791" cy="-265.9585" rx="76.0865" ry="18"/>
<text text-anchor="middle" x="791" y="-262.2585" font-family="Times,serif" font-size="14.00" fill="#000000">int_pred_succ</text>
</a>
</g>
</g>
<!-- Spec_isequiv_int_succ&#45;&gt;Spec_int_pred_succ -->
<g id="edge11" class="edge">
<title>Spec_isequiv_int_succ&#45;&gt;Spec_int_pred_succ</title>
<path fill="none" stroke="#000000" d="M720.036,-356.1245C733.8165,-338.6152 754.9862,-311.7172 770.6197,-291.8535"/>
<polygon fill="#000000" stroke="#000000" points="773.5088,-293.8418 776.9431,-283.819 768.0081,-289.5125 773.5088,-293.8418"/>
</g>
<!-- Spec_int_succ_pred -->
<g id="node23" class="node">
<title>Spec_int_succ_pred</title>
<g id="a_node23"><a xlink:href="Spec.html#int_succ_pred" xlink:title="int_succ_pred">
<ellipse fill="#f070d1" stroke="#000000" cx="621" cy="-265.9585" rx="76.0865" ry="18"/>
<text text-anchor="middle" x="621" y="-262.2585" font-family="Times,serif" font-size="14.00" fill="#000000">int_succ_pred</text>
</a>
</g>
</g>
<!-- Spec_isequiv_int_succ&#45;&gt;Spec_int_succ_pred -->
<g id="edge12" class="edge">
<title>Spec_isequiv_int_succ&#45;&gt;Spec_int_succ_pred</title>
<path fill="none" stroke="#000000" d="M691.964,-356.1245C678.1835,-338.6152 657.0138,-311.7172 641.3803,-291.8535"/>
<polygon fill="#000000" stroke="#000000" points="643.9919,-289.5125 635.0569,-283.819 638.4912,-293.8418 643.9919,-289.5125"/>
</g>
<!-- Spec_int_add_assoc_pos -->
<g id="node10" class="node">
<title>Spec_int_add_assoc_pos</title>
<g id="a_node10"><a xlink:href="Spec.html#int_add_assoc_pos" xlink:title="int_add_assoc_pos">
<ellipse fill="#f070d1" stroke="#000000" cx="1753" cy="-612.9585" rx="96.6831" ry="18"/>
<text text-anchor="middle" x="1753" y="-609.2585" font-family="Times,serif" font-size="14.00" fill="#000000">int_add_assoc_pos</text>
</a>
</g>
</g>
<!-- Spec_int_add_assoc&#45;&gt;Spec_int_add_assoc_pos -->
<g id="edge13" class="edge">
<title>Spec_int_add_assoc&#45;&gt;Spec_int_add_assoc_pos</title>
<path fill="none" stroke="#000000" d="M1753,-702.6378C1753,-685.7795 1753,-660.5236 1753,-641.1055"/>
<polygon fill="#000000" stroke="#000000" points="1756.5001,-641.0086 1753,-631.0087 1749.5001,-641.0087 1756.5001,-641.0086"/>
</g>
<!-- Spec_int_pos_sub_add -->
<g id="node11" class="node">
<title>Spec_int_pos_sub_add</title>
<g id="a_node11"><a xlink:href="Spec.html#int_pos_sub_add" xlink:title="int_pos_sub_add">
<ellipse fill="#f070d1" stroke="#000000" cx="1753" cy="-492.9585" rx="87.9851" ry="18"/>
<text text-anchor="middle" x="1753" y="-489.2585" font-family="Times,serif" font-size="14.00" fill="#000000">int_pos_sub_add</text>
</a>
</g>
</g>
<!-- Spec_int_add_assoc_pos&#45;&gt;Spec_int_pos_sub_add -->
<g id="edge14" class="edge">
<title>Spec_int_add_assoc_pos&#45;&gt;Spec_int_pos_sub_add</title>
<path fill="none" stroke="#000000" d="M1753,-594.7331C1753,-575.1489 1753,-543.7769 1753,-521.0361"/>
<polygon fill="#000000" stroke="#000000" points="1756.5001,-520.9622 1753,-510.9622 1749.5001,-520.9623 1756.5001,-520.9622"/>
</g>
<!-- Spec_int_negation_add_distr -->
<g id="node21" class="node">
<title>Spec_int_negation_add_distr</title>
<g id="a_node21"><a xlink:href="Spec.html#int_negation_add_distr" xlink:title="int_negation_add_distr">
<ellipse fill="#f070d1" stroke="#000000" cx="1904" cy="-373.9585" rx="117.7793" ry="18"/>
<text text-anchor="middle" x="1904" y="-370.2585" font-family="Times,serif" font-size="14.00" fill="#000000">int_negation_add_distr</text>
</a>
</g>
</g>
<!-- Spec_int_add_assoc_pos&#45;&gt;Spec_int_negation_add_distr -->
<g id="edge15" class="edge">
<title>Spec_int_add_assoc_pos&#45;&gt;Spec_int_negation_add_distr</title>
<path fill="none" stroke="#000000" d="M1776.2638,-595.4855C1797.9401,-578.1507 1829.8603,-549.7787 1850,-518.9585 1874.1861,-481.946 1889.594,-432.5877 1897.5134,-402.0591"/>
<polygon fill="#000000" stroke="#000000" points="1900.974,-402.6475 1900.0045,-392.0971 1894.1831,-400.9494 1900.974,-402.6475"/>
</g>
<!-- Spec_int_add_0_r -->
<g id="node37" class="node">
<title>Spec_int_add_0_r</title>
<g id="a_node37"><a xlink:href="Spec.html#int_add_0_r" xlink:title="int_add_0_r">
<ellipse fill="#f070d1" stroke="#000000" cx="1582" cy="-492.9585" rx="65.7887" ry="18"/>
<text text-anchor="middle" x="1582" y="-489.2585" font-family="Times,serif" font-size="14.00" fill="#000000">int_add_0_r</text>
</a>
</g>
</g>
<!-- Spec_int_add_assoc_pos&#45;&gt;Spec_int_add_0_r -->
<g id="edge16" class="edge">
<title>Spec_int_add_assoc_pos&#45;&gt;Spec_int_add_0_r</title>
<path fill="none" stroke="#000000" d="M1728.1351,-595.5095C1698.1191,-574.4456 1647.5616,-538.9666 1614.487,-515.7564"/>
<polygon fill="#000000" stroke="#000000" points="1616.2622,-512.7264 1606.0661,-509.847 1612.2412,-518.4563 1616.2622,-512.7264"/>
</g>
<!-- Spec_int_pred_add_r -->
<g id="node12" class="node">
<title>Spec_int_pred_add_r</title>
<g id="a_node12"><a xlink:href="Spec.html#int_pred_add_r" xlink:title="int_pred_add_r">
<ellipse fill="#f070d1" stroke="#000000" cx="1373" cy="-373.9585" rx="81.4863" ry="18"/>
<text text-anchor="middle" x="1373" y="-370.2585" font-family="Times,serif" font-size="14.00" fill="#000000">int_pred_add_r</text>
</a>
</g>
</g>
<!-- Spec_int_pos_sub_add&#45;&gt;Spec_int_pred_add_r -->
<g id="edge17" class="edge">
<title>Spec_int_pos_sub_add&#45;&gt;Spec_int_pred_add_r</title>
<path fill="none" stroke="#000000" d="M1704.8727,-477.8871C1634.7277,-455.9206 1504.6446,-415.184 1429.8678,-391.7671"/>
<polygon fill="#000000" stroke="#000000" points="1430.7297,-388.3695 1420.1407,-388.721 1428.6378,-395.0496 1430.7297,-388.3695"/>
</g>
<!-- Spec_int_negation_pred_negation_red -->
<g id="node13" class="node">
<title>Spec_int_negation_pred_negation_red</title>
<g id="a_node13"><a xlink:href="Spec.html#int_negation_pred_negation_red" xlink:title="int_negation_pred_negation_red">
<ellipse fill="#f070d1" stroke="#000000" cx="1631" cy="-265.9585" rx="161.3716" ry="18"/>
<text text-anchor="middle" x="1631" y="-262.2585" font-family="Times,serif" font-size="14.00" fill="#000000">int_negation_pred_negation_red</text>
</a>
</g>
</g>
<!-- Spec_int_pred_add_r&#45;&gt;Spec_int_negation_pred_negation_red -->
<g id="edge18" class="edge">
<title>Spec_int_pred_add_r&#45;&gt;Spec_int_negation_pred_negation_red</title>
<path fill="none" stroke="#000000" d="M1411.0688,-358.0227C1455.841,-339.2808 1530.3468,-308.0924 1580.062,-287.2814"/>
<polygon fill="#000000" stroke="#000000" points="1581.4779,-290.483 1589.3508,-283.3931 1578.7749,-284.0259 1581.4779,-290.483"/>
</g>
<!-- Spec_int_pred_pos_sub_r -->
<g id="node14" class="node">
<title>Spec_int_pred_pos_sub_r</title>
<g id="a_node14"><a xlink:href="Spec.html#int_pred_pos_sub_r" xlink:title="int_pred_pos_sub_r">
<ellipse fill="#f070d1" stroke="#000000" cx="986" cy="-265.9585" rx="101.2821" ry="18"/>
<text text-anchor="middle" x="986" y="-262.2585" font-family="Times,serif" font-size="14.00" fill="#000000">int_pred_pos_sub_r</text>
</a>
</g>
</g>
<!-- Spec_int_pred_add_r&#45;&gt;Spec_int_pred_pos_sub_r -->
<g id="edge19" class="edge">
<title>Spec_int_pred_add_r&#45;&gt;Spec_int_pred_pos_sub_r</title>
<path fill="none" stroke="#000000" d="M1322.4065,-359.8394C1252.6997,-340.3863 1127.0891,-305.3322 1050.6509,-284.0006"/>
<polygon fill="#000000" stroke="#000000" points="1051.2348,-280.5299 1040.662,-281.213 1049.3532,-287.2723 1051.2348,-280.5299"/>
</g>
<!-- Spec_int_negation_inj -->
<g id="node20" class="node">
<title>Spec_int_negation_inj</title>
<g id="a_node20"><a xlink:href="Spec.html#int_negation_inj" xlink:title="int_negation_inj">
<ellipse fill="#f070d1" stroke="#000000" cx="1191" cy="-265.9585" rx="85.2851" ry="18"/>
<text text-anchor="middle" x="1191" y="-262.2585" font-family="Times,serif" font-size="14.00" fill="#000000">int_negation_inj</text>
</a>
</g>
</g>
<!-- Spec_int_pred_add_r&#45;&gt;Spec_int_negation_inj -->
<g id="edge20" class="edge">
<title>Spec_int_pred_add_r&#45;&gt;Spec_int_negation_inj</title>
<path fill="none" stroke="#000000" d="M1344.5625,-357.0835C1313.3592,-338.5672 1263.1347,-308.7637 1228.6743,-288.3147"/>
<polygon fill="#000000" stroke="#000000" points="1230.2244,-285.1647 1219.8384,-283.0714 1226.6522,-291.1846 1230.2244,-285.1647"/>
</g>
<!-- Spec_int_pred_add_r&#45;&gt;Spec_int_pred_succ -->
<g id="edge21" class="edge">
<title>Spec_int_pred_add_r&#45;&gt;Spec_int_pred_succ</title>
<path fill="none" stroke="#000000" d="M1308.5501,-362.9138C1213.6694,-346.5124 1030.8802,-314.374 876,-283.9585 869.8805,-282.7567 863.5206,-281.4737 857.1576,-280.1669"/>
<polygon fill="#000000" stroke="#000000" points="857.6922,-276.7034 847.1902,-278.1022 856.2723,-283.5579 857.6922,-276.7034"/>
</g>
<!-- Spec_int_pos_sub_negation -->
<g id="node24" class="node">
<title>Spec_int_pos_sub_negation</title>
<g id="a_node24"><a xlink:href="Spec.html#int_pos_sub_negation" xlink:title="int_pos_sub_negation">
<ellipse fill="#f070d1" stroke="#000000" cx="1921" cy="-265.9585" rx="111.2805" ry="18"/>
<text text-anchor="middle" x="1921" y="-262.2585" font-family="Times,serif" font-size="14.00" fill="#000000">int_pos_sub_negation</text>
</a>
</g>
</g>
<!-- Spec_int_pred_add_r&#45;&gt;Spec_int_pos_sub_negation -->
<g id="edge22" class="edge">
<title>Spec_int_pred_add_r&#45;&gt;Spec_int_pos_sub_negation</title>
<path fill="none" stroke="#000000" d="M1433.7394,-361.988C1532.7797,-342.4691 1729.106,-303.777 1839.9342,-281.935"/>
<polygon fill="#000000" stroke="#000000" points="1840.9239,-285.3073 1850.0584,-279.9397 1839.5703,-278.4394 1840.9239,-285.3073"/>
</g>
<!-- Spec_int_add_comm -->
<g id="node39" class="node">
<title>Spec_int_add_comm</title>
<g id="a_node39"><a xlink:href="Spec.html#int_add_comm" xlink:title="int_add_comm">
<ellipse fill="#f070d1" stroke="#000000" cx="1373" cy="-265.9585" rx="78.7863" ry="18"/>
<text text-anchor="middle" x="1373" y="-262.2585" font-family="Times,serif" font-size="14.00" fill="#000000">int_add_comm</text>
</a>
</g>
</g>
<!-- Spec_int_pred_add_r&#45;&gt;Spec_int_add_comm -->
<g id="edge23" class="edge">
<title>Spec_int_pred_add_r&#45;&gt;Spec_int_add_comm</title>
<path fill="none" stroke="#000000" d="M1373,-355.6378C1373,-338.7795 1373,-313.5236 1373,-294.1055"/>
<polygon fill="#000000" stroke="#000000" points="1376.5001,-294.0086 1373,-284.0087 1369.5001,-294.0087 1376.5001,-294.0086"/>
</g>
<!-- Spec_int_pos_sub_succ_succ -->
<g id="node15" class="node">
<title>Spec_int_pos_sub_succ_succ</title>
<g id="a_node15"><a xlink:href="Spec.html#int_pos_sub_succ_succ" xlink:title="int_pos_sub_succ_succ">
<ellipse fill="#f070d1" stroke="#000000" cx="986" cy="-157.9585" rx="118.0794" ry="18"/>
<text text-anchor="middle" x="986" y="-154.2585" font-family="Times,serif" font-size="14.00" fill="#000000">int_pos_sub_succ_succ</text>
</a>
</g>
</g>
<!-- Spec_int_pred_pos_sub_r&#45;&gt;Spec_int_pos_sub_succ_succ -->
<g id="edge24" class="edge">
<title>Spec_int_pred_pos_sub_r&#45;&gt;Spec_int_pos_sub_succ_succ</title>
<path fill="none" stroke="#000000" d="M986,-247.6378C986,-230.7795 986,-205.5236 986,-186.1055"/>
<polygon fill="#000000" stroke="#000000" points="989.5001,-186.0086 986,-176.0087 982.5001,-186.0087 989.5001,-186.0086"/>
</g>
<!-- Spec_int_pred_double_int_pos_sub -->
<g id="node16" class="node">
<title>Spec_int_pred_double_int_pos_sub</title>
<g id="a_node16"><a xlink:href="Spec.html#int_pred_double_int_pos_sub" xlink:title="int_pred_double_int_pos_sub">
<ellipse fill="#f070d1" stroke="#000000" cx="832" cy="-50.9585" rx="145.6742" ry="18"/>
<text text-anchor="middle" x="832" y="-47.2585" font-family="Times,serif" font-size="14.00" fill="#000000">int_pred_double_int_pos_sub</text>
</a>
</g>
</g>
<!-- Spec_int_pos_sub_succ_succ&#45;&gt;Spec_int_pred_double_int_pos_sub -->
<g id="edge25" class="edge">
<title>Spec_int_pos_sub_succ_succ&#45;&gt;Spec_int_pred_double_int_pos_sub</title>
<path fill="none" stroke="#000000" d="M960.57,-140.2896C934.7888,-122.3767 894.7326,-94.5454 866.1859,-74.711"/>
<polygon fill="#000000" stroke="#000000" points="867.9341,-71.6638 857.7246,-68.8321 863.9399,-77.4124 867.9341,-71.6638"/>
</g>
<!-- Spec_int_succ_double_int_pos_sub -->
<g id="node17" class="node">
<title>Spec_int_succ_double_int_pos_sub</title>
<g id="a_node17"><a xlink:href="Spec.html#int_succ_double_int_pos_sub" xlink:title="int_succ_double_int_pos_sub">
<ellipse fill="#f070d1" stroke="#000000" cx="1141" cy="-50.9585" rx="145.6742" ry="18"/>
<text text-anchor="middle" x="1141" y="-47.2585" font-family="Times,serif" font-size="14.00" fill="#000000">int_succ_double_int_pos_sub</text>
</a>
</g>
</g>
<!-- Spec_int_pos_sub_succ_succ&#45;&gt;Spec_int_succ_double_int_pos_sub -->
<g id="edge26" class="edge">
<title>Spec_int_pos_sub_succ_succ&#45;&gt;Spec_int_succ_double_int_pos_sub</title>
<path fill="none" stroke="#000000" d="M1011.5951,-140.2896C1037.5438,-122.3767 1077.8601,-94.5454 1106.5921,-74.711"/>
<polygon fill="#000000" stroke="#000000" points="1108.8671,-77.3936 1115.1083,-68.8321 1104.8904,-71.6329 1108.8671,-77.3936"/>
</g>
<!-- Spec_int_pos_sub_succ_r -->
<g id="node18" class="node">
<title>Spec_int_pos_sub_succ_r</title>
<g id="a_node18"><a xlink:href="Spec.html#int_pos_sub_succ_r" xlink:title="int_pos_sub_succ_r">
<ellipse fill="#f070d1" stroke="#000000" cx="1753" cy="-1054.9585" rx="101.2901" ry="18"/>
<ellipse fill="none" stroke="#000000" cx="1753" cy="-1054.9585" rx="105.2861" ry="22"/>
<ellipse fill="none" stroke="#000000" cx="1753" cy="-1054.9585" rx="109.2821" ry="26"/>
<text text-anchor="middle" x="1753" y="-1051.2585" font-family="Times,serif" font-size="14.00" fill="#000000">int_pos_sub_succ_r</text>
</a>
</g>
</g>
<!-- Spec_int_pos_sub_succ_l -->
<g id="node19" class="node">
<title>Spec_int_pos_sub_succ_l</title>
<g id="a_node19"><a xlink:href="Spec.html#int_pos_sub_succ_l" xlink:title="int_pos_sub_succ_l">
<ellipse fill="#f070d1" stroke="#000000" cx="1518" cy="-1054.9585" rx="100.1756" ry="18"/>
<ellipse fill="none" stroke="#000000" cx="1518" cy="-1054.9585" rx="104.1789" ry="22"/>
<ellipse fill="none" stroke="#000000" cx="1518" cy="-1054.9585" rx="108.1823" ry="26"/>
<text text-anchor="middle" x="1518" y="-1051.2585" font-family="Times,serif" font-size="14.00" fill="#000000">int_pos_sub_succ_l</text>
</a>
</g>
</g>
<!-- Spec_int_negation_add_distr&#45;&gt;Spec_int_pos_sub_negation -->
<g id="edge27" class="edge">
<title>Spec_int_negation_add_distr&#45;&gt;Spec_int_pos_sub_negation</title>
<path fill="none" stroke="#000000" d="M1906.8838,-355.6378C1909.5374,-338.7795 1913.5129,-313.5236 1916.5695,-294.1055"/>
<polygon fill="#000000" stroke="#000000" points="1920.0612,-294.4313 1918.1588,-284.0087 1913.1463,-293.3428 1920.0612,-294.4313"/>
</g>
<!-- Spec_int_negation_succ_double -->
<g id="node25" class="node">
<title>Spec_int_negation_succ_double</title>
<g id="a_node25"><a xlink:href="Spec.html#int_negation_succ_double" xlink:title="int_negation_succ_double">
<ellipse fill="#f070d1" stroke="#000000" cx="1640" cy="-157.9585" rx="131.077" ry="18"/>
<text text-anchor="middle" x="1640" y="-154.2585" font-family="Times,serif" font-size="14.00" fill="#000000">int_negation_succ_double</text>
</a>
</g>
</g>
<!-- Spec_int_pos_sub_negation&#45;&gt;Spec_int_negation_succ_double -->
<g id="edge28" class="edge">
<title>Spec_int_pos_sub_negation&#45;&gt;Spec_int_negation_succ_double</title>
<path fill="none" stroke="#000000" d="M1877.7096,-249.3202C1828.2884,-230.3256 1747.3926,-199.2339 1693.9191,-178.6819"/>
<polygon fill="#000000" stroke="#000000" points="1694.8574,-175.2929 1684.2674,-174.9723 1692.346,-181.8269 1694.8574,-175.2929"/>
</g>
<!-- Spec_int_negation_pred_double -->
<g id="node26" class="node">
<title>Spec_int_negation_pred_double</title>
<g id="a_node26"><a xlink:href="Spec.html#int_negation_pred_double" xlink:title="int_negation_pred_double">
<ellipse fill="#f070d1" stroke="#000000" cx="1921" cy="-157.9585" rx="131.077" ry="18"/>
<text text-anchor="middle" x="1921" y="-154.2585" font-family="Times,serif" font-size="14.00" fill="#000000">int_negation_pred_double</text>
</a>
</g>
</g>
<!-- Spec_int_pos_sub_negation&#45;&gt;Spec_int_negation_pred_double -->
<g id="edge29" class="edge">
<title>Spec_int_pos_sub_negation&#45;&gt;Spec_int_negation_pred_double</title>
<path fill="none" stroke="#000000" d="M1921,-247.6378C1921,-230.7795 1921,-205.5236 1921,-186.1055"/>
<polygon fill="#000000" stroke="#000000" points="1924.5001,-186.0086 1921,-176.0087 1917.5001,-186.0087 1924.5001,-186.0086"/>
</g>
<!-- Spec_int_negation_double -->
<g id="node27" class="node">
<title>Spec_int_negation_double</title>
<g id="a_node27"><a xlink:href="Spec.html#int_negation_double" xlink:title="int_negation_double">
<ellipse fill="#f070d1" stroke="#000000" cx="2175" cy="-157.9585" rx="104.7816" ry="18"/>
<text text-anchor="middle" x="2175" y="-154.2585" font-family="Times,serif" font-size="14.00" fill="#000000">int_negation_double</text>
</a>
</g>
</g>
<!-- Spec_int_pos_sub_negation&#45;&gt;Spec_int_negation_double -->
<g id="edge30" class="edge">
<title>Spec_int_pos_sub_negation&#45;&gt;Spec_int_negation_double</title>
<path fill="none" stroke="#000000" d="M1960.6875,-249.0835C2005.4231,-230.062 2078.1732,-199.129 2126.308,-178.6622"/>
<polygon fill="#000000" stroke="#000000" points="2127.7581,-181.8489 2135.5912,-174.715 2125.019,-175.4071 2127.7581,-181.8489"/>
</g>
<!-- Spec_int_pos_pos_succ -->
<g id="node28" class="node">
<title>Spec_int_pos_pos_succ</title>
<g id="a_node28"><a xlink:href="Spec.html#int_pos_pos_succ" xlink:title="int_pos_pos_succ">
<ellipse fill="#f070d1" stroke="#000000" cx="1292" cy="-1054.9585" rx="91.7725" ry="18"/>
<ellipse fill="none" stroke="#000000" cx="1292" cy="-1054.9585" rx="95.7782" ry="22"/>
<ellipse fill="none" stroke="#000000" cx="1292" cy="-1054.9585" rx="99.7839" ry="26"/>
<text text-anchor="middle" x="1292" y="-1051.2585" font-family="Times,serif" font-size="14.00" fill="#000000">int_pos_pos_succ</text>
</a>
</g>
</g>
<!-- Spec_int_neg_pos_succ -->
<g id="node29" class="node">
<title>Spec_int_neg_pos_succ</title>
<g id="a_node29"><a xlink:href="Spec.html#int_neg_pos_succ" xlink:title="int_neg_pos_succ">
<ellipse fill="#f070d1" stroke="#000000" cx="1073" cy="-1054.9585" rx="92.8882" ry="18"/>
<ellipse fill="none" stroke="#000000" cx="1073" cy="-1054.9585" rx="96.8858" ry="22"/>
<ellipse fill="none" stroke="#000000" cx="1073" cy="-1054.9585" rx="100.8835" ry="26"/>
<text text-anchor="middle" x="1073" y="-1051.2585" font-family="Times,serif" font-size="14.00" fill="#000000">int_neg_pos_succ</text>
</a>
</g>
</g>
<!-- Spec_int_add_negation_r -->
<g id="node30" class="node">
<title>Spec_int_add_negation_r</title>
<g id="a_node30"><a xlink:href="Spec.html#int_add_negation_r" xlink:title="int_add_negation_r">
<ellipse fill="#f070d1" stroke="#000000" cx="614" cy="-1054.9585" rx="100.1756" ry="18"/>
<ellipse fill="none" stroke="#000000" cx="614" cy="-1054.9585" rx="104.1789" ry="22"/>
<ellipse fill="none" stroke="#000000" cx="614" cy="-1054.9585" rx="108.1823" ry="26"/>
<text text-anchor="middle" x="614" y="-1051.2585" font-family="Times,serif" font-size="14.00" fill="#000000">int_add_negation_r</text>
</a>
</g>
</g>
<!-- Spec_int_pos_sub_diag -->
<g id="node32" class="node">
<title>Spec_int_pos_sub_diag</title>
<g id="a_node32"><a xlink:href="Spec.html#int_pos_sub_diag" xlink:title="int_pos_sub_diag">
<ellipse fill="#f070d1" stroke="#000000" cx="730" cy="-935.9585" rx="90.9839" ry="18"/>
<text text-anchor="middle" x="730" y="-932.2585" font-family="Times,serif" font-size="14.00" fill="#000000">int_pos_sub_diag</text>
</a>
</g>
</g>
<!-- Spec_int_add_negation_r&#45;&gt;Spec_int_pos_sub_diag -->
<g id="edge31" class="edge">
<title>Spec_int_add_negation_r&#45;&gt;Spec_int_pos_sub_diag</title>
<path fill="none" stroke="#000000" d="M638.8849,-1029.43C658.601,-1009.204 685.9948,-981.1018 705.587,-961.0029"/>
<polygon fill="#000000" stroke="#000000" points="708.2076,-963.3286 712.6816,-953.7248 703.1951,-958.4425 708.2076,-963.3286"/>
</g>
<!-- Spec_int_add_negation_l -->
<g id="node31" class="node">
<title>Spec_int_add_negation_l</title>
<g id="a_node31"><a xlink:href="Spec.html#int_add_negation_l" xlink:title="int_add_negation_l">
<ellipse fill="#f070d1" stroke="#000000" cx="847" cy="-1054.9585" rx="98.5985" ry="18"/>
<ellipse fill="none" stroke="#000000" cx="847" cy="-1054.9585" rx="102.5907" ry="22"/>
<ellipse fill="none" stroke="#000000" cx="847" cy="-1054.9585" rx="106.5829" ry="26"/>
<text text-anchor="middle" x="847" y="-1051.2585" font-family="Times,serif" font-size="14.00" fill="#000000">int_add_negation_l</text>
</a>
</g>
</g>
<!-- Spec_int_add_negation_l&#45;&gt;Spec_int_pos_sub_diag -->
<g id="edge32" class="edge">
<title>Spec_int_add_negation_l&#45;&gt;Spec_int_pos_sub_diag</title>
<path fill="none" stroke="#000000" d="M821.9006,-1029.43C802.0145,-1009.204 774.3846,-981.1018 754.6235,-961.0029"/>
<polygon fill="#000000" stroke="#000000" points="756.9744,-958.4017 747.4677,-953.7248 751.9828,-963.3094 756.9744,-958.4017"/>
</g>
<!-- Spec_int_mul_1_r -->
<g id="node33" class="node">
<title>Spec_int_mul_1_r</title>
<g id="a_node33"><a xlink:href="Spec.html#int_mul_1_r" xlink:title="int_mul_1_r">
<ellipse fill="#f070d1" stroke="#000000" cx="414" cy="-1054.9585" rx="65.7729" ry="18"/>
<ellipse fill="none" stroke="#000000" cx="414" cy="-1054.9585" rx="69.7808" ry="22"/>
<ellipse fill="none" stroke="#000000" cx="414" cy="-1054.9585" rx="73.7886" ry="26"/>
<text text-anchor="middle" x="414" y="-1051.2585" font-family="Times,serif" font-size="14.00" fill="#000000">int_mul_1_r</text>
</a>
</g>
</g>
<!-- Spec_int_mul_0_l -->
<g id="node36" class="node">
<title>Spec_int_mul_0_l</title>
<g id="a_node36"><a xlink:href="Spec.html#int_mul_0_l" xlink:title="int_mul_0_l">
<ellipse fill="#f070d1" stroke="#000000" cx="250" cy="-1054.9585" rx="64.2061" ry="18"/>
<ellipse fill="none" stroke="#000000" cx="250" cy="-1054.9585" rx="68.1975" ry="22"/>
<ellipse fill="none" stroke="#000000" cx="250" cy="-1054.9585" rx="72.1889" ry="26"/>
<text text-anchor="middle" x="250" y="-1051.2585" font-family="Times,serif" font-size="14.00" fill="#000000">int_mul_0_l</text>
</a>
</g>
</g>
<!-- Spec_int_add_0_l -->
<g id="node38" class="node">
<title>Spec_int_add_0_l</title>
<g id="a_node38"><a xlink:href="Spec.html#int_add_0_l" xlink:title="int_add_0_l">
<ellipse fill="#f070d1" stroke="#000000" cx="88" cy="-1054.9585" rx="63.8675" ry="18"/>
<ellipse fill="none" stroke="#000000" cx="88" cy="-1054.9585" rx="67.8784" ry="22"/>
<ellipse fill="none" stroke="#000000" cx="88" cy="-1054.9585" rx="71.8892" ry="26"/>
<text text-anchor="middle" x="88" y="-1051.2585" font-family="Times,serif" font-size="14.00" fill="#000000">int_add_0_l</text>
</a>
</g>
</g>
</g>
</svg>
