<?xml version="1.0" encoding="UTF-8" standalone="no"?>
<!DOCTYPE svg PUBLIC "-//W3C//DTD SVG 1.1//EN"
 "http://www.w3.org/Graphics/SVG/1.1/DTD/svg11.dtd">
<!-- Generated by graphviz version 2.40.1 (20161225.0304)
 -->
<!-- Title: HoTT_Classes_orders_sum Pages: 1 -->
<svg width="520pt" height="264pt"
 viewBox="0.00 0.00 520.00 264.00" xmlns="http://www.w3.org/2000/svg" xmlns:xlink="http://www.w3.org/1999/xlink">
<g id="graph0" class="graph" transform="scale(1 1) rotate(0) translate(4 260)">
<title>HoTT_Classes_orders_sum</title>
<polygon fill="#ffffff" stroke="transparent" points="-4,4 -4,-260 516,-260 516,4 -4,4"/>
<g id="clust1" class="cluster">
<title>cluster_sum</title>
<polygon fill="#ffffc3" stroke="#000000" points="8,-11.4413 8,-244.5587 504,-244.5587 504,-11.4413 8,-11.4413"/>
<text text-anchor="middle" x="31.5" y="-229.3587" font-family="Times,serif" font-size="14.00" fill="#000000">sum</text>
</g>
<!-- sum_sum_tricho -->
<g id="node1" class="node">
<title>sum_sum_tricho</title>
<g id="a_node1"><a xlink:href="sum.html#sum_tricho" xlink:title="sum_tricho">
<ellipse fill="#f070d1" stroke="#000000" cx="425" cy="-163.4413" rx="63.0838" ry="18"/>
<ellipse fill="none" stroke="#000000" cx="425" cy="-163.4413" rx="67.0863" ry="22"/>
<ellipse fill="none" stroke="#000000" cx="425" cy="-163.4413" rx="71.0888" ry="26"/>
<text text-anchor="middle" x="425" y="-159.7413" font-family="Times,serif" font-size="14.00" fill="#000000">sum_tricho</text>
</a>
</g>
</g>
<!-- sum_sum_lt -->
<g id="node2" class="node">
<title>sum_sum_lt</title>
<g id="a_node2"><a xlink:href="sum.html#sum_lt" xlink:title="sum_lt">
<ellipse fill="#f070d1" stroke="#000000" cx="425" cy="-48.4413" rx="42.4939" ry="18"/>
<text text-anchor="middle" x="425" y="-44.7413" font-family="Times,serif" font-size="14.00" fill="#000000">sum_lt</text>
</a>
</g>
</g>
<!-- sum_sum_tricho&#45;&gt;sum_sum_lt -->
<g id="edge1" class="edge">
<title>sum_sum_tricho&#45;&gt;sum_sum_lt</title>
<path fill="none" stroke="#000000" d="M425,-137.3461C425,-119.2867 425,-95.2653 425,-76.7447"/>
<polygon fill="#000000" stroke="#000000" points="428.5001,-76.5623 425,-66.5623 421.5001,-76.5624 428.5001,-76.5623"/>
</g>
<!-- sum_unit_tricho -->
<g id="node3" class="node">
<title>sum_unit_tricho</title>
<g id="a_node3"><a xlink:href="sum.html#unit_tricho" xlink:title="unit_tricho">
<ellipse fill="#f070d1" stroke="#000000" cx="266" cy="-163.4413" rx="61.9618" ry="18"/>
<ellipse fill="none" stroke="#000000" cx="266" cy="-163.4413" rx="65.9758" ry="22"/>
<ellipse fill="none" stroke="#000000" cx="266" cy="-163.4413" rx="69.9899" ry="26"/>
<text text-anchor="middle" x="266" y="-159.7413" font-family="Times,serif" font-size="14.00" fill="#000000">unit_tricho</text>
</a>
</g>
</g>
<!-- sum_Unit_lt -->
<g id="node5" class="node">
<title>sum_Unit_lt</title>
<g id="a_node5"><a xlink:href="sum.html#Unit_lt" xlink:title="Unit_lt">
<ellipse fill="#f070d1" stroke="#000000" cx="266" cy="-48.4413" rx="42.7926" ry="18"/>
<text text-anchor="middle" x="266" y="-44.7413" font-family="Times,serif" font-size="14.00" fill="#000000">Unit_lt</text>
</a>
</g>
</g>
<!-- sum_unit_tricho&#45;&gt;sum_Unit_lt -->
<g id="edge2" class="edge">
<title>sum_unit_tricho&#45;&gt;sum_Unit_lt</title>
<path fill="none" stroke="#000000" d="M266,-137.3461C266,-119.2867 266,-95.2653 266,-76.7447"/>
<polygon fill="#000000" stroke="#000000" points="269.5001,-76.5623 266,-66.5623 262.5001,-76.5624 269.5001,-76.5623"/>
</g>
<!-- sum_empty_tricho -->
<g id="node4" class="node">
<title>sum_empty_tricho</title>
<g id="a_node4"><a xlink:href="sum.html#empty_tricho" xlink:title="empty_tricho">
<ellipse fill="#f070d1" stroke="#000000" cx="97" cy="-163.4413" rx="72.608" ry="18"/>
<ellipse fill="none" stroke="#000000" cx="97" cy="-163.4413" rx="76.5978" ry="22"/>
<ellipse fill="none" stroke="#000000" cx="97" cy="-163.4413" rx="80.5876" ry="26"/>
<text text-anchor="middle" x="97" y="-159.7413" font-family="Times,serif" font-size="14.00" fill="#000000">empty_tricho</text>
</a>
</g>
</g>
<!-- sum_Empty_lt -->
<g id="node6" class="node">
<title>sum_Empty_lt</title>
<g id="a_node6"><a xlink:href="sum.html#Empty_lt" xlink:title="Empty_lt">
<ellipse fill="#f070d1" stroke="#000000" cx="97" cy="-48.4413" rx="53.0913" ry="18"/>
<text text-anchor="middle" x="97" y="-44.7413" font-family="Times,serif" font-size="14.00" fill="#000000">Empty_lt</text>
</a>
</g>
</g>
<!-- sum_empty_tricho&#45;&gt;sum_Empty_lt -->
<g id="edge3" class="edge">
<title>sum_empty_tricho&#45;&gt;sum_Empty_lt</title>
<path fill="none" stroke="#000000" d="M97,-137.3461C97,-119.2867 97,-95.2653 97,-76.7447"/>
<polygon fill="#000000" stroke="#000000" points="100.5001,-76.5623 97,-66.5623 93.5001,-76.5624 100.5001,-76.5623"/>
</g>
</g>
</svg>
