<?xml version="1.0" encoding="UTF-8" standalone="no"?>
<!DOCTYPE svg PUBLIC "-//W3C//DTD SVG 1.1//EN"
 "http://www.w3.org/Graphics/SVG/1.1/DTD/svg11.dtd">
<!-- Generated by graphviz version 2.40.1 (20161225.0304)
 -->
<!-- Title: HoTT_Spaces_Finite_FinInduction Pages: 1 -->
<svg width="658pt" height="333pt"
 viewBox="0.00 0.00 658.00 333.00" xmlns="http://www.w3.org/2000/svg" xmlns:xlink="http://www.w3.org/1999/xlink">
<g id="graph0" class="graph" transform="scale(1 1) rotate(0) translate(4 329)">
<title>HoTT_Spaces_Finite_FinInduction</title>
<polygon fill="#ffffff" stroke="transparent" points="-4,4 -4,-329 654,-329 654,4 -4,4"/>
<g id="clust1" class="cluster">
<title>cluster_FinInduction</title>
<polygon fill="#ffffc3" stroke="#000000" points="8,-10.3586 8,-314.6414 642,-314.6414 642,-10.3586 8,-10.3586"/>
<text text-anchor="middle" x="62.5" y="-299.4414" font-family="Times,serif" font-size="14.00" fill="#000000">FinInduction</text>
</g>
<!-- FinInduction_compute_fin_rec_fsucc -->
<g id="node1" class="node">
<title>FinInduction_compute_fin_rec_fsucc</title>
<g id="a_node1"><a xlink:href="FinInduction.html#compute_fin_rec_fsucc" xlink:title="compute_fin_rec_fsucc">
<ellipse fill="#f070d1" stroke="#000000" cx="490" cy="-240.3586" rx="118.0927" ry="18"/>
<ellipse fill="none" stroke="#000000" cx="490" cy="-240.3586" rx="122.086" ry="22"/>
<ellipse fill="none" stroke="#000000" cx="490" cy="-240.3586" rx="126.0794" ry="26"/>
<text text-anchor="middle" x="490" y="-236.6586" font-family="Times,serif" font-size="14.00" fill="#000000">compute_fin_rec_fsucc</text>
</a>
</g>
</g>
<!-- FinInduction_fin_rec -->
<g id="node3" class="node">
<title>FinInduction_fin_rec</title>
<g id="a_node3"><a xlink:href="FinInduction.html#fin_rec" xlink:title="fin_rec">
<ellipse fill="#f070d1" stroke="#000000" cx="337" cy="-137.3586" rx="42.7926" ry="18"/>
<text text-anchor="middle" x="337" y="-133.6586" font-family="Times,serif" font-size="14.00" fill="#000000">fin_rec</text>
</a>
</g>
</g>
<!-- FinInduction_compute_fin_rec_fsucc&#45;&gt;FinInduction_fin_rec -->
<g id="edge1" class="edge">
<title>FinInduction_compute_fin_rec_fsucc&#45;&gt;FinInduction_fin_rec</title>
<path fill="none" stroke="#000000" d="M452.963,-215.4251C427.1277,-198.0328 393.0234,-175.0737 368.4963,-158.5619"/>
<polygon fill="#000000" stroke="#000000" points="370.1763,-155.4738 359.9263,-152.7926 366.2672,-161.2805 370.1763,-155.4738"/>
</g>
<!-- FinInduction_compute_fin_ind_fsucc -->
<g id="node4" class="node">
<title>FinInduction_compute_fin_ind_fsucc</title>
<g id="a_node4"><a xlink:href="FinInduction.html#compute_fin_ind_fsucc" xlink:title="compute_fin_ind_fsucc">
<ellipse fill="#f070d1" stroke="#000000" cx="516" cy="-137.3586" rx="117.7793" ry="18"/>
<text text-anchor="middle" x="516" y="-133.6586" font-family="Times,serif" font-size="14.00" fill="#000000">compute_fin_ind_fsucc</text>
</a>
</g>
</g>
<!-- FinInduction_compute_fin_rec_fsucc&#45;&gt;FinInduction_compute_fin_ind_fsucc -->
<g id="edge2" class="edge">
<title>FinInduction_compute_fin_rec_fsucc&#45;&gt;FinInduction_compute_fin_ind_fsucc</title>
<path fill="none" stroke="#000000" d="M496.5609,-214.3673C500.3255,-199.4535 505.054,-180.7215 508.9048,-165.4665"/>
<polygon fill="#000000" stroke="#000000" points="512.3538,-166.1031 511.4078,-155.5506 505.5667,-164.3898 512.3538,-166.1031"/>
</g>
<!-- FinInduction_compute_fin_rec_fin_zero -->
<g id="node2" class="node">
<title>FinInduction_compute_fin_rec_fin_zero</title>
<g id="a_node2"><a xlink:href="FinInduction.html#compute_fin_rec_fin_zero" xlink:title="compute_fin_rec_fin_zero">
<ellipse fill="#f070d1" stroke="#000000" cx="190" cy="-240.3586" rx="129.9776" ry="18"/>
<ellipse fill="none" stroke="#000000" cx="190" cy="-240.3586" rx="133.9773" ry="22"/>
<ellipse fill="none" stroke="#000000" cx="190" cy="-240.3586" rx="137.9769" ry="26"/>
<text text-anchor="middle" x="190" y="-236.6586" font-family="Times,serif" font-size="14.00" fill="#000000">compute_fin_rec_fin_zero</text>
</a>
</g>
</g>
<!-- FinInduction_compute_fin_rec_fin_zero&#45;&gt;FinInduction_fin_rec -->
<g id="edge3" class="edge">
<title>FinInduction_compute_fin_rec_fin_zero&#45;&gt;FinInduction_fin_rec</title>
<path fill="none" stroke="#000000" d="M225.9602,-215.1619C250.639,-197.87 283.036,-175.1701 306.4615,-158.7563"/>
<polygon fill="#000000" stroke="#000000" points="308.4739,-161.62 314.6551,-153.0152 304.457,-155.8872 308.4739,-161.62"/>
</g>
<!-- FinInduction_compute_fin_ind_fin_zero -->
<g id="node5" class="node">
<title>FinInduction_compute_fin_ind_fin_zero</title>
<g id="a_node5"><a xlink:href="FinInduction.html#compute_fin_ind_fin_zero" xlink:title="compute_fin_ind_fin_zero">
<ellipse fill="#f070d1" stroke="#000000" cx="146" cy="-137.3586" rx="129.9769" ry="18"/>
<text text-anchor="middle" x="146" y="-133.6586" font-family="Times,serif" font-size="14.00" fill="#000000">compute_fin_ind_fin_zero</text>
</a>
</g>
</g>
<!-- FinInduction_compute_fin_rec_fin_zero&#45;&gt;FinInduction_compute_fin_ind_fin_zero -->
<g id="edge4" class="edge">
<title>FinInduction_compute_fin_rec_fin_zero&#45;&gt;FinInduction_compute_fin_ind_fin_zero</title>
<path fill="none" stroke="#000000" d="M178.8969,-214.3673C172.4647,-199.3101 164.3699,-180.3609 157.8197,-165.0275"/>
<polygon fill="#000000" stroke="#000000" points="160.9184,-163.3717 153.7713,-155.5506 154.4812,-166.1216 160.9184,-163.3717"/>
</g>
<!-- FinInduction_fin_ind -->
<g id="node6" class="node">
<title>FinInduction_fin_ind</title>
<g id="a_node6"><a xlink:href="FinInduction.html#fin_ind" xlink:title="fin_ind">
<ellipse fill="#f070d1" stroke="#000000" cx="337" cy="-44.3586" rx="42.4939" ry="18"/>
<text text-anchor="middle" x="337" y="-40.6586" font-family="Times,serif" font-size="14.00" fill="#000000">fin_ind</text>
</a>
</g>
</g>
<!-- FinInduction_fin_rec&#45;&gt;FinInduction_fin_ind -->
<g id="edge5" class="edge">
<title>FinInduction_fin_rec&#45;&gt;FinInduction_fin_ind</title>
<path fill="none" stroke="#000000" d="M337,-118.9848C337,-105.7798 337,-87.7276 337,-72.686"/>
<polygon fill="#000000" stroke="#000000" points="340.5001,-72.3777 337,-62.3778 333.5001,-72.3778 340.5001,-72.3777"/>
</g>
<!-- FinInduction_compute_fin_ind_fsucc&#45;&gt;FinInduction_fin_ind -->
<g id="edge6" class="edge">
<title>FinInduction_compute_fin_ind_fsucc&#45;&gt;FinInduction_fin_ind</title>
<path fill="none" stroke="#000000" d="M482.751,-120.0839C451.5559,-103.8764 405.0285,-79.703 372.9765,-63.0503"/>
<polygon fill="#000000" stroke="#000000" points="374.4241,-59.8582 363.9366,-58.3536 371.1967,-66.0698 374.4241,-59.8582"/>
</g>
<!-- FinInduction_compute_fin_ind_fin_zero&#45;&gt;FinInduction_fin_ind -->
<g id="edge7" class="edge">
<title>FinInduction_compute_fin_ind_fin_zero&#45;&gt;FinInduction_fin_ind</title>
<path fill="none" stroke="#000000" d="M181.9256,-119.866C215.6082,-103.4655 265.7528,-79.0496 299.8327,-62.4557"/>
<polygon fill="#000000" stroke="#000000" points="301.5334,-65.5206 308.992,-57.996 298.4689,-59.227 301.5334,-65.5206"/>
</g>
</g>
</svg>
