<?xml version="1.0" encoding="UTF-8" standalone="no"?>
<!DOCTYPE svg PUBLIC "-//W3C//DTD SVG 1.1//EN"
 "http://www.w3.org/Graphics/SVG/1.1/DTD/svg11.dtd">
<!-- Generated by graphviz version 2.40.1 (20161225.0304)
 -->
<!-- Title: HoTT_Classes_orders_integers Pages: 1 -->
<svg width="542pt" height="275pt"
 viewBox="0.00 0.00 542.00 275.00" xmlns="http://www.w3.org/2000/svg" xmlns:xlink="http://www.w3.org/1999/xlink">
<g id="graph0" class="graph" transform="scale(1 1) rotate(0) translate(4 271)">
<title>HoTT_Classes_orders_integers</title>
<polygon fill="#ffffff" stroke="transparent" points="-4,4 -4,-271 538,-271 538,4 -4,4"/>
<g id="clust1" class="cluster">
<title>cluster_integers</title>
<polygon fill="#ffffc3" stroke="#000000" points="8.6653,-8 8.6653,-259 525.3347,-259 525.3347,-8 8.6653,-8"/>
<text text-anchor="middle" x="46.6653" y="-243.8" font-family="Times,serif" font-size="14.00" fill="#000000">integers</text>
</g>
<!-- integers_slow_int_le_dec -->
<g id="node1" class="node">
<title>integers_slow_int_le_dec</title>
<g id="a_node1"><a xlink:href="integers.html#slow_int_le_dec" xlink:title="slow_int_le_dec">
<ellipse fill="#f070d1" stroke="#000000" cx="386.8986" cy="-202" rx="83.6991" ry="18"/>
<ellipse fill="none" stroke="#000000" cx="386.8986" cy="-202" rx="87.6922" ry="22"/>
<ellipse fill="none" stroke="#000000" cx="386.8986" cy="-202" rx="91.6854" ry="26"/>
<text text-anchor="middle" x="386.8986" y="-198.3" font-family="Times,serif" font-size="14.00" fill="#000000">slow_int_le_dec</text>
</a>
</g>
</g>
<!-- integers_Biinduction_instance_0 -->
<g id="node2" class="node">
<title>integers_Biinduction_instance_0</title>
<g id="a_node2"><a xlink:href="integers.html#Biinduction_instance_0" xlink:title="Biinduction_instance_0">
<ellipse fill="#f070d1" stroke="#000000" cx="386.8986" cy="-114" rx="119.6788" ry="18"/>
<text text-anchor="middle" x="386.8986" y="-110.3" font-family="Times,serif" font-size="14.00" fill="#000000">Biinduction_instance_0</text>
</a>
</g>
</g>
<!-- integers_slow_int_le_dec&#45;&gt;integers_Biinduction_instance_0 -->
<g id="edge1" class="edge">
<title>integers_slow_int_le_dec&#45;&gt;integers_Biinduction_instance_0</title>
<path fill="none" stroke="#000000" d="M386.8986,-175.5971C386.8986,-165.0414 386.8986,-152.868 386.8986,-142.1448"/>
<polygon fill="#000000" stroke="#000000" points="390.3987,-142.0188 386.8986,-132.0188 383.3987,-142.0188 390.3987,-142.0188"/>
</g>
<!-- integers_induction -->
<g id="node4" class="node">
<title>integers_induction</title>
<g id="a_node4"><a xlink:href="integers.html#induction" xlink:title="induction">
<ellipse fill="#f070d1" stroke="#000000" cx="256.8986" cy="-34" rx="54.6905" ry="18"/>
<text text-anchor="middle" x="256.8986" y="-30.3" font-family="Times,serif" font-size="14.00" fill="#000000">induction</text>
</a>
</g>
</g>
<!-- integers_Biinduction_instance_0&#45;&gt;integers_induction -->
<g id="edge2" class="edge">
<title>integers_Biinduction_instance_0&#45;&gt;integers_induction</title>
<path fill="none" stroke="#000000" d="M358.3695,-96.4437C338.6191,-84.2895 312.2265,-68.0479 291.3089,-55.1756"/>
<polygon fill="#000000" stroke="#000000" points="293.0657,-52.1471 282.7147,-49.8869 289.397,-58.1087 293.0657,-52.1471"/>
</g>
<!-- integers_induction_nonneg -->
<g id="node3" class="node">
<title>integers_induction_nonneg</title>
<g id="a_node3"><a xlink:href="integers.html#induction_nonneg" xlink:title="induction_nonneg">
<ellipse fill="#f070d1" stroke="#000000" cx="127.8986" cy="-114" rx="93.6762" ry="18"/>
<ellipse fill="none" stroke="#000000" cx="127.8986" cy="-114" rx="97.6799" ry="22"/>
<ellipse fill="none" stroke="#000000" cx="127.8986" cy="-114" rx="101.6835" ry="26"/>
<text text-anchor="middle" x="127.8986" y="-110.3" font-family="Times,serif" font-size="14.00" fill="#000000">induction_nonneg</text>
</a>
</g>
</g>
<!-- integers_induction_nonneg&#45;&gt;integers_induction -->
<g id="edge3" class="edge">
<title>integers_induction_nonneg&#45;&gt;integers_induction</title>
<path fill="none" stroke="#000000" d="M166.9529,-89.7803C184.6346,-78.8149 205.3545,-65.9653 222.4482,-55.3645"/>
<polygon fill="#000000" stroke="#000000" points="224.3675,-58.2928 231.0213,-50.0479 220.6782,-52.3439 224.3675,-58.2928"/>
</g>
</g>
</svg>
