<?xml version="1.0" encoding="UTF-8" standalone="no"?>
<!DOCTYPE svg PUBLIC "-//W3C//DTD SVG 1.1//EN"
 "http://www.w3.org/Graphics/SVG/1.1/DTD/svg11.dtd">
<!-- Generated by graphviz version 2.40.1 (20161225.0304)
 -->
<!-- Title: HoTT_Diagrams_ConstantDiagram Pages: 1 -->
<svg width="912pt" height="460pt"
 viewBox="0.00 0.00 912.00 460.00" xmlns="http://www.w3.org/2000/svg" xmlns:xlink="http://www.w3.org/1999/xlink">
<g id="graph0" class="graph" transform="scale(1 1) rotate(0) translate(4 456)">
<title>HoTT_Diagrams_ConstantDiagram</title>
<polygon fill="#ffffff" stroke="transparent" points="-4,4 -4,-456 908,-456 908,4 -4,4"/>
<g id="clust1" class="cluster">
<title>cluster_ConstantDiagram</title>
<polygon fill="#ffffc3" stroke="#000000" points="8,-13.5431 8,-438.4569 896,-438.4569 896,-13.5431 8,-13.5431"/>
<text text-anchor="middle" x="79.5" y="-423.2569" font-family="Times,serif" font-size="14.00" fill="#000000">ConstantDiagram</text>
</g>
<!-- ConstantDiagram_equiv_diagram_const_cone -->
<g id="node1" class="node">
<title>ConstantDiagram_equiv_diagram_const_cone</title>
<g id="a_node1"><a xlink:href="ConstantDiagram.html#equiv_diagram_const_cone" xlink:title="equiv_diagram_const_cone">
<ellipse fill="#f070d1" stroke="#000000" cx="744" cy="-192.5431" rx="136.4765" ry="18"/>
<ellipse fill="none" stroke="#000000" cx="744" cy="-192.5431" rx="140.4761" ry="22"/>
<ellipse fill="none" stroke="#000000" cx="744" cy="-192.5431" rx="144.4758" ry="26"/>
<text text-anchor="middle" x="744" y="-188.8431" font-family="Times,serif" font-size="14.00" fill="#000000">equiv_diagram_const_cone</text>
</a>
</g>
</g>
<!-- ConstantDiagram_diagram_const -->
<g id="node6" class="node">
<title>ConstantDiagram_diagram_const</title>
<g id="a_node6"><a xlink:href="ConstantDiagram.html#diagram_const" xlink:title="diagram_const">
<ellipse fill="#f070d1" stroke="#000000" cx="426" cy="-57.5431" rx="79.0865" ry="18"/>
<text text-anchor="middle" x="426" y="-53.8431" font-family="Times,serif" font-size="14.00" fill="#000000">diagram_const</text>
</a>
</g>
</g>
<!-- ConstantDiagram_equiv_diagram_const_cone&#45;&gt;ConstantDiagram_diagram_const -->
<g id="edge1" class="edge">
<title>ConstantDiagram_equiv_diagram_const_cone&#45;&gt;ConstantDiagram_diagram_const</title>
<path fill="none" stroke="#000000" d="M687.5144,-168.5633C626.4388,-142.635 530.1831,-101.7718 473.0569,-77.5201"/>
<polygon fill="#000000" stroke="#000000" points="474.1223,-74.1701 463.5497,-73.484 471.3868,-80.6135 474.1223,-74.1701"/>
</g>
<!-- ConstantDiagram_equiv_diagram_const_cocone -->
<g id="node2" class="node">
<title>ConstantDiagram_equiv_diagram_const_cocone</title>
<g id="a_node2"><a xlink:href="ConstantDiagram.html#equiv_diagram_const_cocone" xlink:title="equiv_diagram_const_cocone">
<ellipse fill="#f070d1" stroke="#000000" cx="426" cy="-192.5431" rx="147.5719" ry="18"/>
<ellipse fill="none" stroke="#000000" cx="426" cy="-192.5431" rx="151.5729" ry="22"/>
<ellipse fill="none" stroke="#000000" cx="426" cy="-192.5431" rx="155.5738" ry="26"/>
<text text-anchor="middle" x="426" y="-188.8431" font-family="Times,serif" font-size="14.00" fill="#000000">equiv_diagram_const_cocone</text>
</a>
</g>
</g>
<!-- ConstantDiagram_equiv_diagram_const_cocone&#45;&gt;ConstantDiagram_diagram_const -->
<g id="edge2" class="edge">
<title>ConstantDiagram_equiv_diagram_const_cocone&#45;&gt;ConstantDiagram_diagram_const</title>
<path fill="none" stroke="#000000" d="M426,-166.5137C426,-143.3912 426,-109.6686 426,-85.8747"/>
<polygon fill="#000000" stroke="#000000" points="429.5001,-85.7147 426,-75.7147 422.5001,-85.7147 429.5001,-85.7147"/>
</g>
<!-- ConstantDiagram_diagram_const_functor_idmap -->
<g id="node3" class="node">
<title>ConstantDiagram_diagram_const_functor_idmap</title>
<g id="a_node3"><a xlink:href="ConstantDiagram.html#diagram_const_functor_idmap" xlink:title="diagram_const_functor_idmap">
<ellipse fill="#f070d1" stroke="#000000" cx="508" cy="-341.5431" rx="152.1687" ry="18"/>
<ellipse fill="none" stroke="#000000" cx="508" cy="-341.5431" rx="156.1709" ry="22"/>
<ellipse fill="none" stroke="#000000" cx="508" cy="-341.5431" rx="160.1731" ry="26"/>
<text text-anchor="middle" x="508" y="-337.8431" font-family="Times,serif" font-size="14.00" fill="#000000">diagram_const_functor_idmap</text>
</a>
</g>
</g>
<!-- ConstantDiagram_diagram_const_functor -->
<g id="node5" class="node">
<title>ConstantDiagram_diagram_const_functor</title>
<g id="a_node5"><a xlink:href="ConstantDiagram.html#diagram_const_functor" xlink:title="diagram_const_functor">
<ellipse fill="#f070d1" stroke="#000000" cx="134" cy="-192.5431" rx="118.0794" ry="18"/>
<text text-anchor="middle" x="134" y="-188.8431" font-family="Times,serif" font-size="14.00" fill="#000000">diagram_const_functor</text>
</a>
</g>
</g>
<!-- ConstantDiagram_diagram_const_functor_idmap&#45;&gt;ConstantDiagram_diagram_const_functor -->
<g id="edge3" class="edge">
<title>ConstantDiagram_diagram_const_functor_idmap&#45;&gt;ConstantDiagram_diagram_const_functor</title>
<path fill="none" stroke="#000000" d="M447.4948,-317.438C374.8326,-288.4898 254.2018,-240.431 185.7003,-213.1403"/>
<polygon fill="#000000" stroke="#000000" points="186.9762,-209.8811 176.3909,-209.4314 184.3854,-216.384 186.9762,-209.8811"/>
</g>
<!-- ConstantDiagram_diagram_const_functor_comp -->
<g id="node4" class="node">
<title>ConstantDiagram_diagram_const_functor_comp</title>
<g id="a_node4"><a xlink:href="ConstantDiagram.html#diagram_const_functor_comp" xlink:title="diagram_const_functor_comp">
<ellipse fill="#f070d1" stroke="#000000" cx="173" cy="-341.5431" rx="148.6821" ry="18"/>
<ellipse fill="none" stroke="#000000" cx="173" cy="-341.5431" rx="152.6779" ry="22"/>
<ellipse fill="none" stroke="#000000" cx="173" cy="-341.5431" rx="156.6738" ry="26"/>
<text text-anchor="middle" x="173" y="-337.8431" font-family="Times,serif" font-size="14.00" fill="#000000">diagram_const_functor_comp</text>
</a>
</g>
</g>
<!-- ConstantDiagram_diagram_const_functor_comp&#45;&gt;ConstantDiagram_diagram_const_functor -->
<g id="edge4" class="edge">
<title>ConstantDiagram_diagram_const_functor_comp&#45;&gt;ConstantDiagram_diagram_const_functor</title>
<path fill="none" stroke="#000000" d="M166.1174,-315.2478C159.1369,-288.5788 148.376,-247.4669 141.2622,-220.2884"/>
<polygon fill="#000000" stroke="#000000" points="144.648,-219.4012 138.7298,-210.6133 137.8761,-221.1737 144.648,-219.4012"/>
</g>
<!-- ConstantDiagram_diagram_const_functor&#45;&gt;ConstantDiagram_diagram_const -->
<g id="edge5" class="edge">
<title>ConstantDiagram_diagram_const_functor&#45;&gt;ConstantDiagram_diagram_const</title>
<path fill="none" stroke="#000000" d="M170.982,-175.4452C224.6237,-150.6451 323.881,-104.7556 381.4695,-78.1308"/>
<polygon fill="#000000" stroke="#000000" points="383.0768,-81.2437 390.6849,-73.8703 380.1392,-74.8899 383.0768,-81.2437"/>
</g>
</g>
</svg>
