<?xml version="1.0" encoding="UTF-8" standalone="no"?>
<!DOCTYPE svg PUBLIC "-//W3C//DTD SVG 1.1//EN"
 "http://www.w3.org/Graphics/SVG/1.1/DTD/svg11.dtd">
<!-- Generated by graphviz version 2.40.1 (20161225.0304)
 -->
<!-- Title: HoTT_Basics_Tactics Pages: 1 -->
<svg width="1031pt" height="520pt"
 viewBox="0.00 0.00 1031.00 519.50" xmlns="http://www.w3.org/2000/svg" xmlns:xlink="http://www.w3.org/1999/xlink">
<g id="graph0" class="graph" transform="scale(1 1) rotate(0) translate(4 515.5)">
<title>HoTT_Basics_Tactics</title>
<polygon fill="#ffffff" stroke="transparent" points="-4,4 -4,-515.5 1027,-515.5 1027,4 -4,4"/>
<g id="clust1" class="cluster">
<title>cluster_Tactics</title>
<polygon fill="#ffffc3" stroke="#000000" points="8,-15.3258 8,-496.1742 1015,-496.1742 1015,-15.3258 8,-15.3258"/>
<text text-anchor="middle" x="42" y="-480.9742" font-family="Times,serif" font-size="14.00" fill="#000000">Tactics</text>
</g>
<!-- Tactics_issig_isequiv -->
<g id="node1" class="node">
<title>Tactics_issig_isequiv</title>
<g id="a_node1"><a xlink:href="Tactics.html#issig_isequiv" xlink:title="issig_isequiv">
<ellipse fill="#f070d1" stroke="#000000" cx="929" cy="-387.3258" rx="70.3682" ry="18"/>
<ellipse fill="none" stroke="#000000" cx="929" cy="-387.3258" rx="74.3781" ry="22"/>
<ellipse fill="none" stroke="#000000" cx="929" cy="-387.3258" rx="78.388" ry="26"/>
<text text-anchor="middle" x="929" y="-383.6258" font-family="Times,serif" font-size="14.00" fill="#000000">issig_isequiv</text>
</a>
</g>
</g>
<!-- Tactics_issig_equiv -->
<g id="node2" class="node">
<title>Tactics_issig_equiv</title>
<g id="a_node2"><a xlink:href="Tactics.html#issig_equiv" xlink:title="issig_equiv">
<ellipse fill="#f070d1" stroke="#000000" cx="762" cy="-387.3258" rx="62.3011" ry="18"/>
<ellipse fill="none" stroke="#000000" cx="762" cy="-387.3258" rx="66.2951" ry="22"/>
<ellipse fill="none" stroke="#000000" cx="762" cy="-387.3258" rx="70.2891" ry="26"/>
<text text-anchor="middle" x="762" y="-383.6258" font-family="Times,serif" font-size="14.00" fill="#000000">issig_equiv</text>
</a>
</g>
</g>
<!-- Tactics_issig_contr -->
<g id="node3" class="node">
<title>Tactics_issig_contr</title>
<g id="a_node3"><a xlink:href="Tactics.html#issig_contr" xlink:title="issig_contr">
<ellipse fill="#f070d1" stroke="#000000" cx="604" cy="-387.3258" rx="61.9618" ry="18"/>
<ellipse fill="none" stroke="#000000" cx="604" cy="-387.3258" rx="65.9758" ry="22"/>
<ellipse fill="none" stroke="#000000" cx="604" cy="-387.3258" rx="69.9899" ry="26"/>
<text text-anchor="middle" x="604" y="-383.6258" font-family="Times,serif" font-size="14.00" fill="#000000">issig_contr</text>
</a>
</g>
</g>
<!-- Tactics_is_global_axiom_funext -->
<g id="node4" class="node">
<title>Tactics_is_global_axiom_funext</title>
<g id="a_node4"><a xlink:href="Tactics.html#is_global_axiom_funext" xlink:title="is_global_axiom_funext">
<ellipse fill="#7fffd4" stroke="#000000" cx="880" cy="-218.3258" rx="118.8827" ry="18"/>
<ellipse fill="none" stroke="#000000" cx="880" cy="-218.3258" rx="122.8808" ry="22"/>
<ellipse fill="none" stroke="#000000" cx="880" cy="-218.3258" rx="126.8789" ry="26"/>
<text text-anchor="middle" x="880" y="-214.6258" font-family="Times,serif" font-size="14.00" fill="#000000">is_global_axiom_funext</text>
</a>
</g>
</g>
<!-- Tactics_Build_IsGlobalAxiom -->
<g id="node9" class="node">
<title>Tactics_Build_IsGlobalAxiom</title>
<g id="a_node9"><a xlink:href="Tactics.html#Build_IsGlobalAxiom" xlink:title="Build_IsGlobalAxiom">
<ellipse fill="#7faaff" stroke="#000000" cx="880" cy="-65.3258" rx="107.781" ry="18"/>
<text text-anchor="middle" x="880" y="-61.6258" font-family="Times,serif" font-size="14.00" fill="#000000">Build_IsGlobalAxiom</text>
</a>
</g>
</g>
<!-- Tactics_is_global_axiom_funext&#45;&gt;Tactics_Build_IsGlobalAxiom -->
<g id="edge1" class="edge">
<title>Tactics_is_global_axiom_funext&#45;&gt;Tactics_Build_IsGlobalAxiom</title>
<path fill="none" stroke="#000000" d="M880,-192.0242C880,-164.5988 880,-121.7625 880,-93.6183"/>
<polygon fill="#000000" stroke="#000000" points="883.5001,-93.6138 880,-83.6138 876.5001,-93.6139 883.5001,-93.6138"/>
</g>
<!-- Tactics_IsGlobalAxiom -->
<g id="node10" class="node">
<title>Tactics_IsGlobalAxiom</title>
<g id="a_node10"><a xlink:href="Tactics.html#IsGlobalAxiom" xlink:title="IsGlobalAxiom">
<ellipse fill="#e2cdfa" stroke="#000000" cx="508" cy="-65.3258" rx="78.7863" ry="18"/>
<text text-anchor="middle" x="508" y="-61.6258" font-family="Times,serif" font-size="14.00" fill="#000000">IsGlobalAxiom</text>
</a>
</g>
</g>
<!-- Tactics_is_global_axiom_funext&#45;&gt;Tactics_IsGlobalAxiom -->
<g id="edge2" class="edge">
<title>Tactics_is_global_axiom_funext&#45;&gt;Tactics_IsGlobalAxiom</title>
<path fill="none" stroke="#000000" d="M823.0963,-194.9219C749.9089,-164.8206 624.1017,-113.0773 555.6861,-84.9387"/>
<polygon fill="#000000" stroke="#000000" points="557.0044,-81.6964 546.4247,-81.1295 554.3417,-88.1703 557.0044,-81.6964"/>
</g>
<!-- Tactics_IsGlobalAxiom_sind -->
<g id="node5" class="node">
<title>Tactics_IsGlobalAxiom_sind</title>
<g id="a_node5"><a xlink:href="Tactics.html#IsGlobalAxiom_sind" xlink:title="IsGlobalAxiom_sind">
<ellipse fill="#f070d1" stroke="#000000" cx="624" cy="-218.3258" rx="102.8683" ry="18"/>
<ellipse fill="none" stroke="#000000" cx="624" cy="-218.3258" rx="106.8752" ry="22"/>
<ellipse fill="none" stroke="#000000" cx="624" cy="-218.3258" rx="110.8821" ry="26"/>
<text text-anchor="middle" x="624" y="-214.6258" font-family="Times,serif" font-size="14.00" fill="#000000">IsGlobalAxiom_sind</text>
</a>
</g>
</g>
<!-- Tactics_IsGlobalAxiom_sind&#45;&gt;Tactics_IsGlobalAxiom -->
<g id="edge3" class="edge">
<title>Tactics_IsGlobalAxiom_sind&#45;&gt;Tactics_IsGlobalAxiom</title>
<path fill="none" stroke="#000000" d="M604.5842,-192.7171C583.3083,-164.6549 549.3553,-119.8721 527.8924,-91.5632"/>
<polygon fill="#000000" stroke="#000000" points="530.4909,-89.1974 521.6603,-83.3433 524.9129,-93.4265 530.4909,-89.1974"/>
</g>
<!-- Tactics_IsGlobalAxiom_rec -->
<g id="node6" class="node">
<title>Tactics_IsGlobalAxiom_rec</title>
<g id="a_node6"><a xlink:href="Tactics.html#IsGlobalAxiom_rec" xlink:title="IsGlobalAxiom_rec">
<ellipse fill="#f070d1" stroke="#000000" cx="409" cy="-387.3258" rx="98.5985" ry="18"/>
<ellipse fill="none" stroke="#000000" cx="409" cy="-387.3258" rx="102.5907" ry="22"/>
<ellipse fill="none" stroke="#000000" cx="409" cy="-387.3258" rx="106.5829" ry="26"/>
<text text-anchor="middle" x="409" y="-383.6258" font-family="Times,serif" font-size="14.00" fill="#000000">IsGlobalAxiom_rec</text>
</a>
</g>
</g>
<!-- Tactics_IsGlobalAxiom_rect -->
<g id="node8" class="node">
<title>Tactics_IsGlobalAxiom_rect</title>
<g id="a_node8"><a xlink:href="Tactics.html#IsGlobalAxiom_rect" xlink:title="IsGlobalAxiom_rect">
<ellipse fill="#f070d1" stroke="#000000" cx="393" cy="-218.3258" rx="102.8821" ry="18"/>
<text text-anchor="middle" x="393" y="-214.6258" font-family="Times,serif" font-size="14.00" fill="#000000">IsGlobalAxiom_rect</text>
</a>
</g>
</g>
<!-- Tactics_IsGlobalAxiom_rec&#45;&gt;Tactics_IsGlobalAxiom_rect -->
<g id="edge4" class="edge">
<title>Tactics_IsGlobalAxiom_rec&#45;&gt;Tactics_IsGlobalAxiom_rect</title>
<path fill="none" stroke="#000000" d="M406.5351,-361.29C403.5896,-330.1784 398.6806,-278.3274 395.654,-246.3587"/>
<polygon fill="#000000" stroke="#000000" points="399.1323,-245.9635 394.7053,-236.338 392.1635,-246.6234 399.1323,-245.9635"/>
</g>
<!-- Tactics_IsGlobalAxiom_ind -->
<g id="node7" class="node">
<title>Tactics_IsGlobalAxiom_ind</title>
<g id="a_node7"><a xlink:href="Tactics.html#IsGlobalAxiom_ind" xlink:title="IsGlobalAxiom_ind">
<ellipse fill="#7fffd4" stroke="#000000" cx="166" cy="-218.3258" rx="98.2721" ry="18"/>
<ellipse fill="none" stroke="#000000" cx="166" cy="-218.3258" rx="102.2774" ry="22"/>
<ellipse fill="none" stroke="#000000" cx="166" cy="-218.3258" rx="106.2828" ry="26"/>
<text text-anchor="middle" x="166" y="-214.6258" font-family="Times,serif" font-size="14.00" fill="#000000">IsGlobalAxiom_ind</text>
</a>
</g>
</g>
<!-- Tactics_IsGlobalAxiom_ind&#45;&gt;Tactics_IsGlobalAxiom -->
<g id="edge5" class="edge">
<title>Tactics_IsGlobalAxiom_ind&#45;&gt;Tactics_IsGlobalAxiom</title>
<path fill="none" stroke="#000000" d="M217.2009,-195.4202C283.8439,-165.6062 399.2728,-113.967 462.8152,-85.5401"/>
<polygon fill="#000000" stroke="#000000" points="464.4782,-88.6304 472.1771,-81.3519 461.6196,-82.2407 464.4782,-88.6304"/>
</g>
<!-- Tactics_IsGlobalAxiom_rect&#45;&gt;Tactics_IsGlobalAxiom -->
<g id="edge6" class="edge">
<title>Tactics_IsGlobalAxiom_rect&#45;&gt;Tactics_IsGlobalAxiom</title>
<path fill="none" stroke="#000000" d="M406.417,-200.4754C426.5637,-173.6715 464.7548,-122.8607 488.137,-91.7523"/>
<polygon fill="#000000" stroke="#000000" points="491.1014,-93.6336 494.312,-83.5369 485.5058,-89.4277 491.1014,-93.6336"/>
</g>
<!-- Tactics_obligation -->
<g id="node11" class="node">
<title>Tactics_obligation</title>
<g id="a_node11"><a xlink:href="Tactics.html#obligation" xlink:title="obligation">
<ellipse fill="#f070d1" stroke="#000000" cx="219" cy="-387.3258" rx="57.3664" ry="18"/>
<ellipse fill="none" stroke="#000000" cx="219" cy="-387.3258" rx="61.3784" ry="22"/>
<ellipse fill="none" stroke="#000000" cx="219" cy="-387.3258" rx="65.3904" ry="26"/>
<text text-anchor="middle" x="219" y="-383.6258" font-family="Times,serif" font-size="14.00" fill="#000000">obligation</text>
</a>
</g>
</g>
<!-- Tactics_fix_proto -->
<g id="node12" class="node">
<title>Tactics_fix_proto</title>
<g id="a_node12"><a xlink:href="Tactics.html#fix_proto" xlink:title="fix_proto">
<ellipse fill="#f070d1" stroke="#000000" cx="76" cy="-387.3258" rx="51.9914" ry="18"/>
<ellipse fill="none" stroke="#000000" cx="76" cy="-387.3258" rx="55.9911" ry="22"/>
<ellipse fill="none" stroke="#000000" cx="76" cy="-387.3258" rx="59.9908" ry="26"/>
<text text-anchor="middle" x="76" y="-383.6258" font-family="Times,serif" font-size="14.00" fill="#000000">fix_proto</text>
</a>
</g>
</g>
</g>
</svg>
