<?xml version="1.0" encoding="UTF-8" standalone="no"?>
<!DOCTYPE svg PUBLIC "-//W3C//DTD SVG 1.1//EN"
 "http://www.w3.org/Graphics/SVG/1.1/DTD/svg11.dtd">
<!-- Generated by graphviz version 2.40.1 (20161225.0304)
 -->
<!-- Title: HoTT_Algebra_Groups_Lagrange Pages: 1 -->
<svg width="510pt" height="259pt"
 viewBox="0.00 0.00 510.00 259.00" xmlns="http://www.w3.org/2000/svg" xmlns:xlink="http://www.w3.org/1999/xlink">
<g id="graph0" class="graph" transform="scale(1 1) rotate(0) translate(4 255)">
<title>HoTT_Algebra_Groups_Lagrange</title>
<polygon fill="#ffffff" stroke="transparent" points="-4,4 -4,-255 506,-255 506,4 -4,4"/>
<g id="clust1" class="cluster">
<title>cluster_Lagrange</title>
<polygon fill="#ffffc3" stroke="#000000" points="17.7699,-8 17.7699,-243 484.2301,-243 484.2301,-8 17.7699,-8"/>
<text text-anchor="middle" x="60.2699" y="-227.8" font-family="Times,serif" font-size="14.00" fill="#000000">Lagrange</text>
</g>
<!-- Lagrange_lagrange_normal -->
<g id="node1" class="node">
<title>Lagrange_lagrange_normal</title>
<g id="a_node1"><a xlink:href="Lagrange.html#lagrange_normal" xlink:title="lagrange_normal">
<ellipse fill="#f070d1" stroke="#000000" cx="250.823" cy="-186" rx="89.0807" ry="18"/>
<ellipse fill="none" stroke="#000000" cx="250.823" cy="-186" rx="93.0825" ry="22"/>
<ellipse fill="none" stroke="#000000" cx="250.823" cy="-186" rx="97.0842" ry="26"/>
<text text-anchor="middle" x="250.823" y="-182.3" font-family="Times,serif" font-size="14.00" fill="#000000">lagrange_normal</text>
</a>
</g>
</g>
<!-- Lagrange_lagrange -->
<g id="node2" class="node">
<title>Lagrange_lagrange</title>
<g id="a_node2"><a xlink:href="Lagrange.html#lagrange" xlink:title="lagrange">
<ellipse fill="#f070d1" stroke="#000000" cx="250.823" cy="-106" rx="51.9908" ry="18"/>
<text text-anchor="middle" x="250.823" y="-102.3" font-family="Times,serif" font-size="14.00" fill="#000000">lagrange</text>
</a>
</g>
</g>
<!-- Lagrange_lagrange_normal&#45;&gt;Lagrange_lagrange -->
<g id="edge1" class="edge">
<title>Lagrange_lagrange_normal&#45;&gt;Lagrange_lagrange</title>
<path fill="none" stroke="#000000" d="M250.823,-159.805C250.823,-151.6026 250.823,-142.5174 250.823,-134.1839"/>
<polygon fill="#000000" stroke="#000000" points="254.3231,-134.1532 250.823,-124.1532 247.3231,-134.1533 254.3231,-134.1532"/>
</g>
<!-- Lagrange_subgroup_index -->
<g id="node3" class="node">
<title>Lagrange_subgroup_index</title>
<g id="a_node3"><a xlink:href="Lagrange.html#subgroup_index" xlink:title="subgroup_index">
<ellipse fill="#f070d1" stroke="#000000" cx="250.823" cy="-34" rx="85.2851" ry="18"/>
<text text-anchor="middle" x="250.823" y="-30.3" font-family="Times,serif" font-size="14.00" fill="#000000">subgroup_index</text>
</a>
</g>
</g>
<!-- Lagrange_lagrange&#45;&gt;Lagrange_subgroup_index -->
<g id="edge2" class="edge">
<title>Lagrange_lagrange&#45;&gt;Lagrange_subgroup_index</title>
<path fill="none" stroke="#000000" d="M250.823,-87.8314C250.823,-80.131 250.823,-70.9743 250.823,-62.4166"/>
<polygon fill="#000000" stroke="#000000" points="254.3231,-62.4132 250.823,-52.4133 247.3231,-62.4133 254.3231,-62.4132"/>
</g>
</g>
</svg>
