<?xml version="1.0" encoding="UTF-8" standalone="no"?>
<!DOCTYPE svg PUBLIC "-//W3C//DTD SVG 1.1//EN"
 "http://www.w3.org/Graphics/SVG/1.1/DTD/svg11.dtd">
<!-- Generated by graphviz version 2.40.1 (20161225.0304)
 -->
<!-- Title: HoTT_Homotopy_HSpaceS1 Pages: 1 -->
<svg width="798pt" height="403pt"
 viewBox="0.00 0.00 798.00 403.00" xmlns="http://www.w3.org/2000/svg" xmlns:xlink="http://www.w3.org/1999/xlink">
<g id="graph0" class="graph" transform="scale(1 1) rotate(0) translate(4 399)">
<title>HoTT_Homotopy_HSpaceS1</title>
<polygon fill="#ffffff" stroke="transparent" points="-4,4 -4,-399 794,-399 794,4 -4,4"/>
<g id="clust1" class="cluster">
<title>cluster_HSpaceS1</title>
<polygon fill="#ffffc3" stroke="#000000" points="9.4048,-8 9.4048,-387 780.5952,-387 780.5952,-8 9.4048,-8"/>
<text text-anchor="middle" x="55.4048" y="-371.8" font-family="Times,serif" font-size="14.00" fill="#000000">HSpaceS1</text>
</g>
<!-- HSpaceS1_commutative_sgop_s1 -->
<g id="node1" class="node">
<title>HSpaceS1_commutative_sgop_s1</title>
<g id="a_node1"><a xlink:href="HSpaceS1.html#commutative_sgop_s1" xlink:title="commutative_sgop_s1">
<ellipse fill="#f070d1" stroke="#000000" cx="627.3988" cy="-330" rx="114.287" ry="18"/>
<ellipse fill="none" stroke="#000000" cx="627.3988" cy="-330" rx="118.2834" ry="22"/>
<ellipse fill="none" stroke="#000000" cx="627.3988" cy="-330" rx="122.2798" ry="26"/>
<text text-anchor="middle" x="627.3988" y="-326.3" font-family="Times,serif" font-size="14.00" fill="#000000">commutative_sgop_s1</text>
</a>
</g>
</g>
<!-- HSpaceS1_rightidentity_s1 -->
<g id="node4" class="node">
<title>HSpaceS1_rightidentity_s1</title>
<g id="a_node4"><a xlink:href="HSpaceS1.html#rightidentity_s1" xlink:title="rightidentity_s1">
<ellipse fill="#f070d1" stroke="#000000" cx="328.3988" cy="-250" rx="85.2851" ry="18"/>
<text text-anchor="middle" x="328.3988" y="-246.3" font-family="Times,serif" font-size="14.00" fill="#000000">rightidentity_s1</text>
</a>
</g>
</g>
<!-- HSpaceS1_commutative_sgop_s1&#45;&gt;HSpaceS1_rightidentity_s1 -->
<g id="edge1" class="edge">
<title>HSpaceS1_commutative_sgop_s1&#45;&gt;HSpaceS1_rightidentity_s1</title>
<path fill="none" stroke="#000000" d="M551.1748,-309.6056C501.585,-296.3374 437.7046,-279.2457 391.0728,-266.769"/>
<polygon fill="#000000" stroke="#000000" points="391.9601,-263.3833 381.3953,-264.1797 390.1508,-270.1455 391.9601,-263.3833"/>
</g>
<!-- HSpaceS1_associative_sgop_s1 -->
<g id="node2" class="node">
<title>HSpaceS1_associative_sgop_s1</title>
<g id="a_node2"><a xlink:href="HSpaceS1.html#associative_sgop_s1" xlink:title="associative_sgop_s1">
<ellipse fill="#f070d1" stroke="#000000" cx="330.3988" cy="-330" rx="104.7716" ry="18"/>
<ellipse fill="none" stroke="#000000" cx="330.3988" cy="-330" rx="108.7766" ry="22"/>
<ellipse fill="none" stroke="#000000" cx="330.3988" cy="-330" rx="112.7816" ry="26"/>
<text text-anchor="middle" x="330.3988" y="-326.3" font-family="Times,serif" font-size="14.00" fill="#000000">associative_sgop_s1</text>
</a>
</g>
</g>
<!-- HSpaceS1_associative_sgop_s1&#45;&gt;HSpaceS1_rightidentity_s1 -->
<g id="edge2" class="edge">
<title>HSpaceS1_associative_sgop_s1&#45;&gt;HSpaceS1_rightidentity_s1</title>
<path fill="none" stroke="#000000" d="M329.7439,-303.805C329.5389,-295.6026 329.3117,-286.5174 329.1034,-278.1839"/>
<polygon fill="#000000" stroke="#000000" points="332.6016,-278.0626 328.8526,-268.1532 325.6038,-278.2376 332.6016,-278.0626"/>
</g>
<!-- HSpaceS1_hspace_s1 -->
<g id="node3" class="node">
<title>HSpaceS1_hspace_s1</title>
<g id="a_node3"><a xlink:href="HSpaceS1.html#hspace_s1" xlink:title="hspace_s1">
<ellipse fill="#f070d1" stroke="#000000" cx="97.3988" cy="-330" rx="59.2725" ry="18"/>
<ellipse fill="none" stroke="#000000" cx="97.3988" cy="-330" rx="63.2812" ry="22"/>
<ellipse fill="none" stroke="#000000" cx="97.3988" cy="-330" rx="67.2898" ry="26"/>
<text text-anchor="middle" x="97.3988" y="-326.3" font-family="Times,serif" font-size="14.00" fill="#000000">hspace_s1</text>
</a>
</g>
</g>
<!-- HSpaceS1_hspace_s1&#45;&gt;HSpaceS1_rightidentity_s1 -->
<g id="edge3" class="edge">
<title>HSpaceS1_hspace_s1&#45;&gt;HSpaceS1_rightidentity_s1</title>
<path fill="none" stroke="#000000" d="M147.5224,-312.6412C184.9543,-299.6777 236.0461,-281.9836 274.3826,-268.7069"/>
<polygon fill="#000000" stroke="#000000" points="275.5343,-272.0121 283.8383,-265.4322 273.2435,-265.3975 275.5343,-272.0121"/>
</g>
<!-- HSpaceS1_leftidentity_s1 -->
<g id="node5" class="node">
<title>HSpaceS1_leftidentity_s1</title>
<g id="a_node5"><a xlink:href="HSpaceS1.html#leftidentity_s1" xlink:title="leftidentity_s1">
<ellipse fill="#f070d1" stroke="#000000" cx="114.3988" cy="-250" rx="77.9862" ry="18"/>
<text text-anchor="middle" x="114.3988" y="-246.3" font-family="Times,serif" font-size="14.00" fill="#000000">leftidentity_s1</text>
</a>
</g>
</g>
<!-- HSpaceS1_hspace_s1&#45;&gt;HSpaceS1_leftidentity_s1 -->
<g id="edge4" class="edge">
<title>HSpaceS1_hspace_s1&#45;&gt;HSpaceS1_leftidentity_s1</title>
<path fill="none" stroke="#000000" d="M102.9652,-303.805C104.7083,-295.6026 106.6389,-286.5174 108.4097,-278.1839"/>
<polygon fill="#000000" stroke="#000000" points="111.8861,-278.6624 110.5412,-268.1532 105.039,-277.2073 111.8861,-278.6624"/>
</g>
<!-- HSpaceS1_sgop_s1 -->
<g id="node6" class="node">
<title>HSpaceS1_sgop_s1</title>
<g id="a_node6"><a xlink:href="HSpaceS1.html#sgop_s1" xlink:title="sgop_s1">
<ellipse fill="#f070d1" stroke="#000000" cx="127.3988" cy="-178" rx="48.1917" ry="18"/>
<text text-anchor="middle" x="127.3988" y="-174.3" font-family="Times,serif" font-size="14.00" fill="#000000">sgop_s1</text>
</a>
</g>
</g>
<!-- HSpaceS1_rightidentity_s1&#45;&gt;HSpaceS1_sgop_s1 -->
<g id="edge5" class="edge">
<title>HSpaceS1_rightidentity_s1&#45;&gt;HSpaceS1_sgop_s1</title>
<path fill="none" stroke="#000000" d="M284.7848,-234.3771C251.3671,-222.4066 205.4374,-205.9541 171.8204,-193.9122"/>
<polygon fill="#000000" stroke="#000000" points="172.8435,-190.561 162.2489,-190.4836 170.4829,-197.1509 172.8435,-190.561"/>
</g>
<!-- HSpaceS1_Sph1_rec_beta_loop -->
<g id="node8" class="node">
<title>HSpaceS1_Sph1_rec_beta_loop</title>
<g id="a_node8"><a xlink:href="HSpaceS1.html#Sph1_rec_beta_loop" xlink:title="Sph1_rec_beta_loop">
<ellipse fill="#f070d1" stroke="#000000" cx="328.3988" cy="-178" rx="104.7816" ry="18"/>
<text text-anchor="middle" x="328.3988" y="-174.3" font-family="Times,serif" font-size="14.00" fill="#000000">Sph1_rec_beta_loop</text>
</a>
</g>
</g>
<!-- HSpaceS1_rightidentity_s1&#45;&gt;HSpaceS1_Sph1_rec_beta_loop -->
<g id="edge6" class="edge">
<title>HSpaceS1_rightidentity_s1&#45;&gt;HSpaceS1_Sph1_rec_beta_loop</title>
<path fill="none" stroke="#000000" d="M328.3988,-231.8314C328.3988,-224.131 328.3988,-214.9743 328.3988,-206.4166"/>
<polygon fill="#000000" stroke="#000000" points="331.8989,-206.4132 328.3988,-196.4133 324.8989,-206.4133 331.8989,-206.4132"/>
</g>
<!-- HSpaceS1_leftidentity_s1&#45;&gt;HSpaceS1_sgop_s1 -->
<g id="edge7" class="edge">
<title>HSpaceS1_leftidentity_s1&#45;&gt;HSpaceS1_sgop_s1</title>
<path fill="none" stroke="#000000" d="M117.6793,-231.8314C119.0696,-224.131 120.7229,-214.9743 122.268,-206.4166"/>
<polygon fill="#000000" stroke="#000000" points="125.7416,-206.8761 124.0742,-196.4133 118.853,-205.6322 125.7416,-206.8761"/>
</g>
<!-- HSpaceS1_s1_turn -->
<g id="node7" class="node">
<title>HSpaceS1_s1_turn</title>
<g id="a_node7"><a xlink:href="HSpaceS1.html#s1_turn" xlink:title="s1_turn">
<ellipse fill="#f070d1" stroke="#000000" cx="127.3988" cy="-106" rx="46.2923" ry="18"/>
<text text-anchor="middle" x="127.3988" y="-102.3" font-family="Times,serif" font-size="14.00" fill="#000000">s1_turn</text>
</a>
</g>
</g>
<!-- HSpaceS1_sgop_s1&#45;&gt;HSpaceS1_s1_turn -->
<g id="edge8" class="edge">
<title>HSpaceS1_sgop_s1&#45;&gt;HSpaceS1_s1_turn</title>
<path fill="none" stroke="#000000" d="M127.3988,-159.8314C127.3988,-152.131 127.3988,-142.9743 127.3988,-134.4166"/>
<polygon fill="#000000" stroke="#000000" points="130.8989,-134.4132 127.3988,-124.4133 123.8989,-134.4133 130.8989,-134.4132"/>
</g>
<!-- HSpaceS1_Sph1_rec -->
<g id="node9" class="node">
<title>HSpaceS1_Sph1_rec</title>
<g id="a_node9"><a xlink:href="HSpaceS1.html#Sph1_rec" xlink:title="Sph1_rec">
<ellipse fill="#f070d1" stroke="#000000" cx="297.3988" cy="-106" rx="54.6905" ry="18"/>
<text text-anchor="middle" x="297.3988" y="-102.3" font-family="Times,serif" font-size="14.00" fill="#000000">Sph1_rec</text>
</a>
</g>
</g>
<!-- HSpaceS1_sgop_s1&#45;&gt;HSpaceS1_Sph1_rec -->
<g id="edge9" class="edge">
<title>HSpaceS1_sgop_s1&#45;&gt;HSpaceS1_Sph1_rec</title>
<path fill="none" stroke="#000000" d="M159.3745,-164.4574C186.279,-153.0625 224.9841,-136.6698 254.5648,-124.1415"/>
<polygon fill="#000000" stroke="#000000" points="255.9786,-127.3437 263.8218,-120.2209 253.2486,-120.898 255.9786,-127.3437"/>
</g>
<!-- HSpaceS1_Sph1_ind -->
<g id="node10" class="node">
<title>HSpaceS1_Sph1_ind</title>
<g id="a_node10"><a xlink:href="HSpaceS1.html#Sph1_ind" xlink:title="Sph1_ind">
<ellipse fill="#f070d1" stroke="#000000" cx="127.3988" cy="-34" rx="53.8905" ry="18"/>
<text text-anchor="middle" x="127.3988" y="-30.3" font-family="Times,serif" font-size="14.00" fill="#000000">Sph1_ind</text>
</a>
</g>
</g>
<!-- HSpaceS1_s1_turn&#45;&gt;HSpaceS1_Sph1_ind -->
<g id="edge10" class="edge">
<title>HSpaceS1_s1_turn&#45;&gt;HSpaceS1_Sph1_ind</title>
<path fill="none" stroke="#000000" d="M127.3988,-87.8314C127.3988,-80.131 127.3988,-70.9743 127.3988,-62.4166"/>
<polygon fill="#000000" stroke="#000000" points="130.8989,-62.4132 127.3988,-52.4133 123.8989,-62.4133 130.8989,-62.4132"/>
</g>
<!-- HSpaceS1_Sph1_rec_beta_loop&#45;&gt;HSpaceS1_Sph1_rec -->
<g id="edge11" class="edge">
<title>HSpaceS1_Sph1_rec_beta_loop&#45;&gt;HSpaceS1_Sph1_rec</title>
<path fill="none" stroke="#000000" d="M320.5762,-159.8314C317.0988,-151.7547 312.9316,-142.0761 309.0956,-133.1668"/>
<polygon fill="#000000" stroke="#000000" points="312.2809,-131.7141 305.1115,-123.9134 305.8515,-134.4824 312.2809,-131.7141"/>
</g>
</g>
</svg>
