<?xml version="1.0" encoding="UTF-8" standalone="no"?>
<!DOCTYPE svg PUBLIC "-//W3C//DTD SVG 1.1//EN"
 "http://www.w3.org/Graphics/SVG/1.1/DTD/svg11.dtd">
<!-- Generated by graphviz version 2.40.1 (20161225.0304)
 -->
<!-- Title: HoTT_WildCat_Prod Pages: 1 -->
<svg width="1038pt" height="523pt"
 viewBox="0.00 0.00 1038.00 523.00" xmlns="http://www.w3.org/2000/svg" xmlns:xlink="http://www.w3.org/1999/xlink">
<g id="graph0" class="graph" transform="scale(1 1) rotate(0) translate(4 519)">
<title>HoTT_WildCat_Prod</title>
<polygon fill="#ffffff" stroke="transparent" points="-4,4 -4,-519 1034,-519 1034,4 -4,4"/>
<g id="clust1" class="cluster">
<title>cluster_Prod</title>
<polygon fill="#ffffc3" stroke="#000000" points="9.2793,-8 9.2793,-507 1020.7207,-507 1020.7207,-8 9.2793,-8"/>
<text text-anchor="middle" x="34.2793" y="-491.8" font-family="Times,serif" font-size="14.00" fill="#000000">Prod</text>
</g>
<!-- Prod_is1functor_prod_swap -->
<g id="node1" class="node">
<title>Prod_is1functor_prod_swap</title>
<g id="a_node1"><a xlink:href="Prod.html#is1functor_prod_swap" xlink:title="is1functor_prod_swap">
<ellipse fill="#f070d1" stroke="#000000" cx="870.4189" cy="-362" rx="113.9645" ry="18"/>
<ellipse fill="none" stroke="#000000" cx="870.4189" cy="-362" rx="117.9724" ry="22"/>
<ellipse fill="none" stroke="#000000" cx="870.4189" cy="-362" rx="121.9803" ry="26"/>
<text text-anchor="middle" x="870.4189" y="-358.3" font-family="Times,serif" font-size="14.00" fill="#000000">is1functor_prod_swap</text>
</a>
</g>
</g>
<!-- Prod_is0functor_prod_swap -->
<g id="node2" class="node">
<title>Prod_is0functor_prod_swap</title>
<g id="a_node2"><a xlink:href="Prod.html#is0functor_prod_swap" xlink:title="is0functor_prod_swap">
<ellipse fill="#f070d1" stroke="#000000" cx="879.4189" cy="-274" rx="113.9803" ry="18"/>
<text text-anchor="middle" x="879.4189" y="-270.3" font-family="Times,serif" font-size="14.00" fill="#000000">is0functor_prod_swap</text>
</a>
</g>
</g>
<!-- Prod_is1functor_prod_swap&#45;&gt;Prod_is0functor_prod_swap -->
<g id="edge1" class="edge">
<title>Prod_is1functor_prod_swap&#45;&gt;Prod_is0functor_prod_swap</title>
<path fill="none" stroke="#000000" d="M873.1192,-335.5971C874.1988,-325.0414 875.4438,-312.868 876.5405,-302.1448"/>
<polygon fill="#000000" stroke="#000000" points="880.0404,-302.323 877.5761,-292.0188 873.0767,-301.6108 880.0404,-302.323"/>
</g>
<!-- Prod_is1cat_prod -->
<g id="node14" class="node">
<title>Prod_is1cat_prod</title>
<g id="a_node14"><a xlink:href="Prod.html#is1cat_prod" xlink:title="is1cat_prod">
<ellipse fill="#f070d1" stroke="#000000" cx="284.4189" cy="-274" rx="65.7887" ry="18"/>
<text text-anchor="middle" x="284.4189" y="-270.3" font-family="Times,serif" font-size="14.00" fill="#000000">is1cat_prod</text>
</a>
</g>
</g>
<!-- Prod_is1functor_prod_swap&#45;&gt;Prod_is1cat_prod -->
<g id="edge2" class="edge">
<title>Prod_is1functor_prod_swap&#45;&gt;Prod_is1cat_prod</title>
<path fill="none" stroke="#000000" d="M770.6801,-347.0222C651.4774,-329.1214 455.2401,-299.6523 352.2885,-284.192"/>
<polygon fill="#000000" stroke="#000000" points="352.7293,-280.719 342.3204,-282.6951 351.6897,-287.6414 352.7293,-280.719"/>
</g>
<!-- Prod_prod_swap -->
<g id="node4" class="node">
<title>Prod_prod_swap</title>
<g id="a_node4"><a xlink:href="Prod.html#prod_swap" xlink:title="prod_swap">
<ellipse fill="#f070d1" stroke="#000000" cx="807.4189" cy="-194" rx="61.1893" ry="18"/>
<text text-anchor="middle" x="807.4189" y="-190.3" font-family="Times,serif" font-size="14.00" fill="#000000">prod_swap</text>
</a>
</g>
</g>
<!-- Prod_is0functor_prod_swap&#45;&gt;Prod_prod_swap -->
<g id="edge3" class="edge">
<title>Prod_is0functor_prod_swap&#45;&gt;Prod_prod_swap</title>
<path fill="none" stroke="#000000" d="M863.081,-255.8468C853.2789,-244.9556 840.6715,-230.9473 829.9346,-219.0174"/>
<polygon fill="#000000" stroke="#000000" points="832.4886,-216.6232 823.1974,-211.5316 827.2855,-221.306 832.4886,-216.6232"/>
</g>
<!-- Prod_isgraph_prod -->
<g id="node19" class="node">
<title>Prod_isgraph_prod</title>
<g id="a_node19"><a xlink:href="Prod.html#isgraph_prod" xlink:title="isgraph_prod">
<ellipse fill="#f070d1" stroke="#000000" cx="481.4189" cy="-34" rx="72.2875" ry="18"/>
<text text-anchor="middle" x="481.4189" y="-30.3" font-family="Times,serif" font-size="14.00" fill="#000000">isgraph_prod</text>
</a>
</g>
</g>
<!-- Prod_is0functor_prod_swap&#45;&gt;Prod_isgraph_prod -->
<g id="edge4" class="edge">
<title>Prod_is0functor_prod_swap&#45;&gt;Prod_isgraph_prod</title>
<path fill="none" stroke="#000000" d="M891.4576,-256.0999C914.3215,-219.6783 958.0966,-136.3168 915.4189,-88 892.4631,-62.011 681.2792,-45.6159 562.1868,-38.3562"/>
<polygon fill="#000000" stroke="#000000" points="562.2073,-34.8512 552.0153,-37.7446 561.7872,-41.8385 562.2073,-34.8512"/>
</g>
<!-- Prod_isequiv_prod_swap -->
<g id="node3" class="node">
<title>Prod_isequiv_prod_swap</title>
<g id="a_node3"><a xlink:href="Prod.html#isequiv_prod_swap" xlink:title="isequiv_prod_swap">
<ellipse fill="#f070d1" stroke="#000000" cx="602.4189" cy="-274" rx="98.5985" ry="18"/>
<ellipse fill="none" stroke="#000000" cx="602.4189" cy="-274" rx="102.5907" ry="22"/>
<ellipse fill="none" stroke="#000000" cx="602.4189" cy="-274" rx="106.5829" ry="26"/>
<text text-anchor="middle" x="602.4189" y="-270.3" font-family="Times,serif" font-size="14.00" fill="#000000">isequiv_prod_swap</text>
</a>
</g>
</g>
<!-- Prod_isequiv_prod_swap&#45;&gt;Prod_prod_swap -->
<g id="edge5" class="edge">
<title>Prod_isequiv_prod_swap&#45;&gt;Prod_prod_swap</title>
<path fill="none" stroke="#000000" d="M658.9787,-251.9279C691.0606,-239.4081 730.7133,-223.9339 760.9628,-212.1292"/>
<polygon fill="#000000" stroke="#000000" points="762.3889,-215.3298 770.4322,-208.4338 759.844,-208.8088 762.3889,-215.3298"/>
</g>
<!-- Prod_is0functor_snd -->
<g id="node5" class="node">
<title>Prod_is0functor_snd</title>
<g id="a_node5"><a xlink:href="Prod.html#is0functor_snd" xlink:title="is0functor_snd">
<ellipse fill="#f070d1" stroke="#000000" cx="818.4189" cy="-114" rx="79.891" ry="18"/>
<ellipse fill="none" stroke="#000000" cx="818.4189" cy="-114" rx="83.8884" ry="22"/>
<ellipse fill="none" stroke="#000000" cx="818.4189" cy="-114" rx="87.8859" ry="26"/>
<text text-anchor="middle" x="818.4189" y="-110.3" font-family="Times,serif" font-size="14.00" fill="#000000">is0functor_snd</text>
</a>
</g>
</g>
<!-- Prod_is0functor_snd&#45;&gt;Prod_isgraph_prod -->
<g id="edge6" class="edge">
<title>Prod_is0functor_snd&#45;&gt;Prod_isgraph_prod</title>
<path fill="none" stroke="#000000" d="M749.8157,-97.7144C689.4169,-83.3764 602.2168,-62.6761 543.7668,-48.8007"/>
<polygon fill="#000000" stroke="#000000" points="544.46,-45.368 533.9219,-46.4636 542.8431,-52.1788 544.46,-45.368"/>
</g>
<!-- Prod_is0functor_fst -->
<g id="node6" class="node">
<title>Prod_is0functor_fst</title>
<g id="a_node6"><a xlink:href="Prod.html#is0functor_fst" xlink:title="is0functor_fst">
<ellipse fill="#f070d1" stroke="#000000" cx="599.4189" cy="-114" rx="75.297" ry="18"/>
<ellipse fill="none" stroke="#000000" cx="599.4189" cy="-114" rx="79.2919" ry="22"/>
<ellipse fill="none" stroke="#000000" cx="599.4189" cy="-114" rx="83.2868" ry="26"/>
<text text-anchor="middle" x="599.4189" y="-110.3" font-family="Times,serif" font-size="14.00" fill="#000000">is0functor_fst</text>
</a>
</g>
</g>
<!-- Prod_is0functor_fst&#45;&gt;Prod_isgraph_prod -->
<g id="edge7" class="edge">
<title>Prod_is0functor_fst&#45;&gt;Prod_isgraph_prod</title>
<path fill="none" stroke="#000000" d="M564.3345,-90.214C548.774,-79.6645 530.5419,-67.3037 515.1427,-56.8636"/>
<polygon fill="#000000" stroke="#000000" points="516.686,-53.6813 506.4448,-50.9667 512.7578,-59.4753 516.686,-53.6813"/>
</g>
<!-- Prod_is1functor_prod_functor -->
<g id="node7" class="node">
<title>Prod_is1functor_prod_functor</title>
<g id="a_node7"><a xlink:href="Prod.html#is1functor_prod_functor" xlink:title="is1functor_prod_functor">
<ellipse fill="#f070d1" stroke="#000000" cx="554.4189" cy="-362" rx="124.2697" ry="18"/>
<ellipse fill="none" stroke="#000000" cx="554.4189" cy="-362" rx="128.2739" ry="22"/>
<ellipse fill="none" stroke="#000000" cx="554.4189" cy="-362" rx="132.2781" ry="26"/>
<text text-anchor="middle" x="554.4189" y="-358.3" font-family="Times,serif" font-size="14.00" fill="#000000">is1functor_prod_functor</text>
</a>
</g>
</g>
<!-- Prod_is0functor_prod_functor -->
<g id="node8" class="node">
<title>Prod_is0functor_prod_functor</title>
<g id="a_node8"><a xlink:href="Prod.html#is0functor_prod_functor" xlink:title="is0functor_prod_functor">
<ellipse fill="#f070d1" stroke="#000000" cx="527.4189" cy="-194" rx="124.2781" ry="18"/>
<text text-anchor="middle" x="527.4189" y="-190.3" font-family="Times,serif" font-size="14.00" fill="#000000">is0functor_prod_functor</text>
</a>
</g>
</g>
<!-- Prod_is1functor_prod_functor&#45;&gt;Prod_is0functor_prod_functor -->
<g id="edge8" class="edge">
<title>Prod_is1functor_prod_functor&#45;&gt;Prod_is0functor_prod_functor</title>
<path fill="none" stroke="#000000" d="M516.2697,-336.9709C504.4236,-327.0191 492.8069,-314.4688 486.4189,-300 477.0847,-278.8577 479.0459,-269.9035 486.4189,-248 489.7986,-237.9596 495.8694,-228.3047 502.3214,-220.0052"/>
<polygon fill="#000000" stroke="#000000" points="505.1141,-222.1208 508.8149,-212.1933 499.731,-217.6461 505.1141,-222.1208"/>
</g>
<!-- Prod_is1functor_prod_functor&#45;&gt;Prod_is1cat_prod -->
<g id="edge9" class="edge">
<title>Prod_is1functor_prod_functor&#45;&gt;Prod_is1cat_prod</title>
<path fill="none" stroke="#000000" d="M485.9375,-339.6801C439.4115,-324.5161 378.8326,-304.7719 336.2888,-290.9057"/>
<polygon fill="#000000" stroke="#000000" points="337.2828,-287.5486 326.6905,-287.7774 335.1136,-294.204 337.2828,-287.5486"/>
</g>
<!-- Prod_is0functor_prod_functor&#45;&gt;Prod_isgraph_prod -->
<g id="edge10" class="edge">
<title>Prod_is0functor_prod_functor&#45;&gt;Prod_isgraph_prod</title>
<path fill="none" stroke="#000000" d="M520.0423,-175.6839C516.0155,-165.3125 511.1128,-152.0429 507.4189,-140 499.3967,-113.8461 492.1535,-83.478 487.3622,-61.9674"/>
<polygon fill="#000000" stroke="#000000" points="490.7759,-61.1942 485.2144,-52.1765 483.9385,-62.6942 490.7759,-61.1942"/>
</g>
<!-- Prod_emap11 -->
<g id="node9" class="node">
<title>Prod_emap11</title>
<g id="a_node9"><a xlink:href="Prod.html#emap11" xlink:title="emap11">
<ellipse fill="#f070d1" stroke="#000000" cx="462.4189" cy="-450" rx="48.178" ry="18"/>
<ellipse fill="none" stroke="#000000" cx="462.4189" cy="-450" rx="52.1848" ry="22"/>
<ellipse fill="none" stroke="#000000" cx="462.4189" cy="-450" rx="56.1916" ry="26"/>
<text text-anchor="middle" x="462.4189" y="-446.3" font-family="Times,serif" font-size="14.00" fill="#000000">emap11</text>
</a>
</g>
</g>
<!-- Prod_hasequivs_prod -->
<g id="node13" class="node">
<title>Prod_hasequivs_prod</title>
<g id="a_node13"><a xlink:href="Prod.html#hasequivs_prod" xlink:title="hasequivs_prod">
<ellipse fill="#f070d1" stroke="#000000" cx="284.4189" cy="-362" rx="83.3857" ry="18"/>
<text text-anchor="middle" x="284.4189" y="-358.3" font-family="Times,serif" font-size="14.00" fill="#000000">hasequivs_prod</text>
</a>
</g>
</g>
<!-- Prod_emap11&#45;&gt;Prod_hasequivs_prod -->
<g id="edge11" class="edge">
<title>Prod_emap11&#45;&gt;Prod_hasequivs_prod</title>
<path fill="none" stroke="#000000" d="M423.7956,-430.9053C395.2862,-416.8108 356.4937,-397.6325 327.0729,-383.0873"/>
<polygon fill="#000000" stroke="#000000" points="328.3903,-379.8344 317.8749,-378.54 325.2881,-386.1094 328.3903,-379.8344"/>
</g>
<!-- Prod_iemap11 -->
<g id="node10" class="node">
<title>Prod_iemap11</title>
<g id="a_node10"><a xlink:href="Prod.html#iemap11" xlink:title="iemap11">
<ellipse fill="#f070d1" stroke="#000000" cx="92.4189" cy="-450" rx="50.8649" ry="18"/>
<ellipse fill="none" stroke="#000000" cx="92.4189" cy="-450" rx="54.8783" ry="22"/>
<ellipse fill="none" stroke="#000000" cx="92.4189" cy="-450" rx="58.8917" ry="26"/>
<text text-anchor="middle" x="92.4189" y="-446.3" font-family="Times,serif" font-size="14.00" fill="#000000">iemap11</text>
</a>
</g>
</g>
<!-- Prod_iemap11&#45;&gt;Prod_hasequivs_prod -->
<g id="edge12" class="edge">
<title>Prod_iemap11&#45;&gt;Prod_hasequivs_prod</title>
<path fill="none" stroke="#000000" d="M133.6077,-431.1218C164.7972,-416.8266 207.5948,-397.2111 239.6326,-382.5271"/>
<polygon fill="#000000" stroke="#000000" points="241.1517,-385.681 248.7841,-378.3326 238.2351,-379.3175 241.1517,-385.681"/>
</g>
<!-- Prod_fmap11 -->
<g id="node17" class="node">
<title>Prod_fmap11</title>
<g id="a_node17"><a xlink:href="Prod.html#fmap11" xlink:title="fmap11">
<ellipse fill="#f070d1" stroke="#000000" cx="71.4189" cy="-274" rx="46.2923" ry="18"/>
<text text-anchor="middle" x="71.4189" y="-270.3" font-family="Times,serif" font-size="14.00" fill="#000000">fmap11</text>
</a>
</g>
</g>
<!-- Prod_iemap11&#45;&gt;Prod_fmap11 -->
<g id="edge13" class="edge">
<title>Prod_iemap11&#45;&gt;Prod_fmap11</title>
<path fill="none" stroke="#000000" d="M66.6233,-426.5866C56.7358,-415.9089 46.5921,-402.4322 41.4189,-388 33.6207,-366.2443 36.2552,-358.5269 41.4189,-336 44.2292,-323.7399 49.795,-311.0874 55.3773,-300.4349"/>
<polygon fill="#000000" stroke="#000000" points="58.4581,-302.0962 60.2185,-291.6486 52.3271,-298.7181 58.4581,-302.0962"/>
</g>
<!-- Prod_fmap22 -->
<g id="node11" class="node">
<title>Prod_fmap22</title>
<g id="a_node11"><a xlink:href="Prod.html#fmap22" xlink:title="fmap22">
<ellipse fill="#f070d1" stroke="#000000" cx="104.4189" cy="-362" rx="46.2706" ry="18"/>
<ellipse fill="none" stroke="#000000" cx="104.4189" cy="-362" rx="50.2814" ry="22"/>
<ellipse fill="none" stroke="#000000" cx="104.4189" cy="-362" rx="54.2922" ry="26"/>
<text text-anchor="middle" x="104.4189" y="-358.3" font-family="Times,serif" font-size="14.00" fill="#000000">fmap22</text>
</a>
</g>
</g>
<!-- Prod_fmap22&#45;&gt;Prod_is1cat_prod -->
<g id="edge14" class="edge">
<title>Prod_fmap22&#45;&gt;Prod_is1cat_prod</title>
<path fill="none" stroke="#000000" d="M142.5923,-343.3375C172.0521,-328.9349 212.7504,-309.0379 242.9969,-294.2508"/>
<polygon fill="#000000" stroke="#000000" points="244.5775,-297.374 252.0241,-289.8375 241.503,-291.0853 244.5775,-297.374"/>
</g>
<!-- Prod_fmap22&#45;&gt;Prod_fmap11 -->
<g id="edge15" class="edge">
<title>Prod_fmap22&#45;&gt;Prod_fmap11</title>
<path fill="none" stroke="#000000" d="M94.6963,-336.0731C90.6206,-325.2045 85.8771,-312.5552 81.7396,-301.5218"/>
<polygon fill="#000000" stroke="#000000" points="84.9351,-300.0751 78.1467,-291.9407 78.3808,-302.533 84.9351,-300.0751"/>
</g>
<!-- Prod_isequivs_prod -->
<g id="node12" class="node">
<title>Prod_isequivs_prod</title>
<g id="a_node12"><a xlink:href="Prod.html#isequivs_prod" xlink:title="isequivs_prod">
<ellipse fill="#f070d1" stroke="#000000" cx="280.4189" cy="-450" rx="75.297" ry="18"/>
<ellipse fill="none" stroke="#000000" cx="280.4189" cy="-450" rx="79.2919" ry="22"/>
<ellipse fill="none" stroke="#000000" cx="280.4189" cy="-450" rx="83.2868" ry="26"/>
<text text-anchor="middle" x="280.4189" y="-446.3" font-family="Times,serif" font-size="14.00" fill="#000000">isequivs_prod</text>
</a>
</g>
</g>
<!-- Prod_isequivs_prod&#45;&gt;Prod_hasequivs_prod -->
<g id="edge16" class="edge">
<title>Prod_isequivs_prod&#45;&gt;Prod_hasequivs_prod</title>
<path fill="none" stroke="#000000" d="M281.6191,-423.5971C282.0989,-413.0414 282.6522,-400.868 283.1396,-390.1448"/>
<polygon fill="#000000" stroke="#000000" points="286.6421,-390.1674 283.5999,-380.0188 279.6493,-389.8495 286.6421,-390.1674"/>
</g>
<!-- Prod_hasequivs_prod&#45;&gt;Prod_is1cat_prod -->
<g id="edge17" class="edge">
<title>Prod_hasequivs_prod&#45;&gt;Prod_is1cat_prod</title>
<path fill="none" stroke="#000000" d="M284.4189,-343.7663C284.4189,-331.8492 284.4189,-316.0384 284.4189,-302.4817"/>
<polygon fill="#000000" stroke="#000000" points="287.919,-302.2103 284.4189,-292.2103 280.919,-302.2103 287.919,-302.2103"/>
</g>
<!-- Prod_is2graph_prod -->
<g id="node15" class="node">
<title>Prod_is2graph_prod</title>
<g id="a_node15"><a xlink:href="Prod.html#is2graph_prod" xlink:title="is2graph_prod">
<ellipse fill="#f070d1" stroke="#000000" cx="183.4189" cy="-114" rx="77.9862" ry="18"/>
<text text-anchor="middle" x="183.4189" y="-110.3" font-family="Times,serif" font-size="14.00" fill="#000000">is2graph_prod</text>
</a>
</g>
</g>
<!-- Prod_is1cat_prod&#45;&gt;Prod_is2graph_prod -->
<g id="edge18" class="edge">
<title>Prod_is1cat_prod&#45;&gt;Prod_is2graph_prod</title>
<path fill="none" stroke="#000000" d="M255.9032,-257.6586C239.3661,-246.7612 219.486,-230.9708 207.4189,-212 194.0491,-190.9813 188.1273,-163.0727 185.5043,-142.4153"/>
<polygon fill="#000000" stroke="#000000" points="188.9704,-141.9125 184.4114,-132.3487 182.0113,-142.6681 188.9704,-141.9125"/>
</g>
<!-- Prod_is0gpd_prod -->
<g id="node16" class="node">
<title>Prod_is0gpd_prod</title>
<g id="a_node16"><a xlink:href="Prod.html#is0gpd_prod" xlink:title="is0gpd_prod">
<ellipse fill="#f070d1" stroke="#000000" cx="284.4189" cy="-194" rx="68.4888" ry="18"/>
<text text-anchor="middle" x="284.4189" y="-190.3" font-family="Times,serif" font-size="14.00" fill="#000000">is0gpd_prod</text>
</a>
</g>
</g>
<!-- Prod_is1cat_prod&#45;&gt;Prod_is0gpd_prod -->
<g id="edge19" class="edge">
<title>Prod_is1cat_prod&#45;&gt;Prod_is0gpd_prod</title>
<path fill="none" stroke="#000000" d="M284.4189,-255.8468C284.4189,-245.9251 284.4189,-233.4167 284.4189,-222.2492"/>
<polygon fill="#000000" stroke="#000000" points="287.919,-222.0814 284.4189,-212.0814 280.919,-222.0814 287.919,-222.0814"/>
</g>
<!-- Prod_is2graph_prod&#45;&gt;Prod_isgraph_prod -->
<g id="edge20" class="edge">
<title>Prod_is2graph_prod&#45;&gt;Prod_isgraph_prod</title>
<path fill="none" stroke="#000000" d="M234.3083,-100.3384C286.4211,-86.3484 367.3575,-64.6205 422.2847,-49.875"/>
<polygon fill="#000000" stroke="#000000" points="423.4747,-53.1795 432.2253,-47.2063 421.6598,-46.4189 423.4747,-53.1795"/>
</g>
<!-- Prod_is01cat_prod -->
<g id="node18" class="node">
<title>Prod_is01cat_prod</title>
<g id="a_node18"><a xlink:href="Prod.html#is01cat_prod" xlink:title="is01cat_prod">
<ellipse fill="#f070d1" stroke="#000000" cx="377.4189" cy="-114" rx="71.4873" ry="18"/>
<text text-anchor="middle" x="377.4189" y="-110.3" font-family="Times,serif" font-size="14.00" fill="#000000">is01cat_prod</text>
</a>
</g>
</g>
<!-- Prod_is0gpd_prod&#45;&gt;Prod_is01cat_prod -->
<g id="edge21" class="edge">
<title>Prod_is0gpd_prod&#45;&gt;Prod_is01cat_prod</title>
<path fill="none" stroke="#000000" d="M304.5985,-176.6412C317.7604,-165.3192 335.1171,-150.3886 349.5839,-137.9441"/>
<polygon fill="#000000" stroke="#000000" points="351.9801,-140.4997 357.2787,-131.3249 347.4151,-135.1929 351.9801,-140.4997"/>
</g>
<!-- Prod_fmap11&#45;&gt;Prod_isgraph_prod -->
<g id="edge22" class="edge">
<title>Prod_fmap11&#45;&gt;Prod_isgraph_prod</title>
<path fill="none" stroke="#000000" d="M67.527,-255.8852C60.7058,-218.6913 51.2775,-133.4014 96.4189,-88 117.5968,-66.7002 295.4711,-48.9126 401.8868,-40.0514"/>
<polygon fill="#000000" stroke="#000000" points="402.2756,-43.5313 411.9544,-39.2219 401.7007,-36.5549 402.2756,-43.5313"/>
</g>
<!-- Prod_is01cat_prod&#45;&gt;Prod_isgraph_prod -->
<g id="edge23" class="edge">
<title>Prod_is01cat_prod&#45;&gt;Prod_isgraph_prod</title>
<path fill="none" stroke="#000000" d="M399.7295,-96.838C414.6722,-85.3436 434.5337,-70.0655 450.9308,-57.4524"/>
<polygon fill="#000000" stroke="#000000" points="453.3529,-60.005 459.1452,-51.1336 449.0849,-54.4566 453.3529,-60.005"/>
</g>
</g>
</svg>
