<?xml version="1.0" encoding="UTF-8" standalone="no"?>
<!DOCTYPE svg PUBLIC "-//W3C//DTD SVG 1.1//EN"
 "http://www.w3.org/Graphics/SVG/1.1/DTD/svg11.dtd">
<!-- Generated by graphviz version 2.40.1 (20161225.0304)
 -->
<!-- Title: HoTT_Colimits_Colimit_Prod Pages: 1 -->
<svg width="510pt" height="259pt"
 viewBox="0.00 0.00 510.00 259.00" xmlns="http://www.w3.org/2000/svg" xmlns:xlink="http://www.w3.org/1999/xlink">
<g id="graph0" class="graph" transform="scale(1 1) rotate(0) translate(4 255)">
<title>HoTT_Colimits_Colimit_Prod</title>
<polygon fill="#ffffff" stroke="transparent" points="-4,4 -4,-255 506,-255 506,4 -4,4"/>
<g id="clust1" class="cluster">
<title>cluster_Colimit_Prod</title>
<polygon fill="#ffffc3" stroke="#000000" points="13.039,-8 13.039,-243 488.961,-243 488.961,-8 13.039,-8"/>
<text text-anchor="middle" x="68.039" y="-227.8" font-family="Times,serif" font-size="14.00" fill="#000000">Colimit_Prod</text>
</g>
<!-- Colimit_Prod_iscolimit_prod -->
<g id="node1" class="node">
<title>Colimit_Prod_iscolimit_prod</title>
<g id="a_node1"><a xlink:href="Colimit_Prod.html#iscolimit_prod" xlink:title="iscolimit_prod">
<ellipse fill="#f070d1" stroke="#000000" cx="250.987" cy="-186" rx="77.2012" ry="18"/>
<ellipse fill="none" stroke="#000000" cx="250.987" cy="-186" rx="81.1939" ry="22"/>
<ellipse fill="none" stroke="#000000" cx="250.987" cy="-186" rx="85.1866" ry="26"/>
<text text-anchor="middle" x="250.987" y="-182.3" font-family="Times,serif" font-size="14.00" fill="#000000">iscolimit_prod</text>
</a>
</g>
</g>
<!-- Colimit_Prod_diagram_equiv_prod_sigma -->
<g id="node2" class="node">
<title>Colimit_Prod_diagram_equiv_prod_sigma</title>
<g id="a_node2"><a xlink:href="Colimit_Prod.html#diagram_equiv_prod_sigma" xlink:title="diagram_equiv_prod_sigma">
<ellipse fill="#f070d1" stroke="#000000" cx="250.987" cy="-106" rx="138.3755" ry="18"/>
<text text-anchor="middle" x="250.987" y="-102.3" font-family="Times,serif" font-size="14.00" fill="#000000">diagram_equiv_prod_sigma</text>
</a>
</g>
</g>
<!-- Colimit_Prod_iscolimit_prod&#45;&gt;Colimit_Prod_diagram_equiv_prod_sigma -->
<g id="edge1" class="edge">
<title>Colimit_Prod_iscolimit_prod&#45;&gt;Colimit_Prod_diagram_equiv_prod_sigma</title>
<path fill="none" stroke="#000000" d="M250.987,-159.805C250.987,-151.6026 250.987,-142.5174 250.987,-134.1839"/>
<polygon fill="#000000" stroke="#000000" points="254.4871,-134.1532 250.987,-124.1532 247.4871,-134.1533 254.4871,-134.1532"/>
</g>
<!-- Colimit_Prod_prod_diagram -->
<g id="node3" class="node">
<title>Colimit_Prod_prod_diagram</title>
<g id="a_node3"><a xlink:href="Colimit_Prod.html#prod_diagram" xlink:title="prod_diagram">
<ellipse fill="#f070d1" stroke="#000000" cx="250.987" cy="-34" rx="75.2868" ry="18"/>
<text text-anchor="middle" x="250.987" y="-30.3" font-family="Times,serif" font-size="14.00" fill="#000000">prod_diagram</text>
</a>
</g>
</g>
<!-- Colimit_Prod_diagram_equiv_prod_sigma&#45;&gt;Colimit_Prod_prod_diagram -->
<g id="edge2" class="edge">
<title>Colimit_Prod_diagram_equiv_prod_sigma&#45;&gt;Colimit_Prod_prod_diagram</title>
<path fill="none" stroke="#000000" d="M250.987,-87.8314C250.987,-80.131 250.987,-70.9743 250.987,-62.4166"/>
<polygon fill="#000000" stroke="#000000" points="254.4871,-62.4132 250.987,-52.4133 247.4871,-62.4133 254.4871,-62.4132"/>
</g>
</g>
</svg>
