<?xml version="1.0" encoding="UTF-8" standalone="no"?>
<!DOCTYPE svg PUBLIC "-//W3C//DTD SVG 1.1//EN"
 "http://www.w3.org/Graphics/SVG/1.1/DTD/svg11.dtd">
<!-- Generated by graphviz version 2.40.1 (20161225.0304)
 -->
<!-- Title: HoTT_Classes_categories_ua_category Pages: 1 -->
<svg width="942pt" height="475pt"
 viewBox="0.00 0.00 942.00 475.00" xmlns="http://www.w3.org/2000/svg" xmlns:xlink="http://www.w3.org/1999/xlink">
<g id="graph0" class="graph" transform="scale(1 1) rotate(0) translate(4 471)">
<title>HoTT_Classes_categories_ua_category</title>
<polygon fill="#ffffff" stroke="transparent" points="-4,4 -4,-471 938,-471 938,4 -4,4"/>
<g id="clust1" class="cluster">
<title>cluster_ua_category</title>
<polygon fill="#ffffc3" stroke="#000000" points="19.7672,-8 19.7672,-459 914.2328,-459 914.2328,-8 19.7672,-8"/>
<text text-anchor="middle" x="71.7672" y="-443.8" font-family="Times,serif" font-size="14.00" fill="#000000">ua_category</text>
</g>
<!-- ua_category_category_algebra -->
<g id="node1" class="node">
<title>ua_category_category_algebra</title>
<g id="a_node1"><a xlink:href="ua_category.html#category_algebra" xlink:title="category_algebra">
<ellipse fill="#f070d1" stroke="#000000" cx="466.6825" cy="-402" rx="91.7725" ry="18"/>
<ellipse fill="none" stroke="#000000" cx="466.6825" cy="-402" rx="95.7782" ry="22"/>
<ellipse fill="none" stroke="#000000" cx="466.6825" cy="-402" rx="99.7839" ry="26"/>
<text text-anchor="middle" x="466.6825" y="-398.3" font-family="Times,serif" font-size="14.00" fill="#000000">category_algebra</text>
</a>
</g>
</g>
<!-- ua_category_iscategory_algebra -->
<g id="node2" class="node">
<title>ua_category_iscategory_algebra</title>
<g id="a_node2"><a xlink:href="ua_category.html#iscategory_algebra" xlink:title="iscategory_algebra">
<ellipse fill="#f070d1" stroke="#000000" cx="466.6825" cy="-322" rx="99.3824" ry="18"/>
<text text-anchor="middle" x="466.6825" y="-318.3" font-family="Times,serif" font-size="14.00" fill="#000000">iscategory_algebra</text>
</a>
</g>
</g>
<!-- ua_category_category_algebra&#45;&gt;ua_category_iscategory_algebra -->
<g id="edge1" class="edge">
<title>ua_category_category_algebra&#45;&gt;ua_category_iscategory_algebra</title>
<path fill="none" stroke="#000000" d="M466.6825,-375.805C466.6825,-367.6026 466.6825,-358.5174 466.6825,-350.1839"/>
<polygon fill="#000000" stroke="#000000" points="470.1826,-350.1532 466.6825,-340.1532 463.1826,-350.1533 470.1826,-350.1532"/>
</g>
<!-- ua_category_path_idtoiso_isomorphic_id -->
<g id="node3" class="node">
<title>ua_category_path_idtoiso_isomorphic_id</title>
<g id="a_node3"><a xlink:href="ua_category.html#path_idtoiso_isomorphic_id" xlink:title="path_idtoiso_isomorphic_id">
<ellipse fill="#f070d1" stroke="#000000" cx="466.6825" cy="-250" rx="137.5759" ry="18"/>
<text text-anchor="middle" x="466.6825" y="-246.3" font-family="Times,serif" font-size="14.00" fill="#000000">path_idtoiso_isomorphic_id</text>
</a>
</g>
</g>
<!-- ua_category_iscategory_algebra&#45;&gt;ua_category_path_idtoiso_isomorphic_id -->
<g id="edge2" class="edge">
<title>ua_category_iscategory_algebra&#45;&gt;ua_category_path_idtoiso_isomorphic_id</title>
<path fill="none" stroke="#000000" d="M466.6825,-303.8314C466.6825,-296.131 466.6825,-286.9743 466.6825,-278.4166"/>
<polygon fill="#000000" stroke="#000000" points="470.1826,-278.4132 466.6825,-268.4133 463.1826,-278.4133 470.1826,-278.4132"/>
</g>
<!-- ua_category_isequiv_catiso_to_uaiso -->
<g id="node4" class="node">
<title>ua_category_isequiv_catiso_to_uaiso</title>
<g id="a_node4"><a xlink:href="ua_category.html#isequiv_catiso_to_uaiso" xlink:title="isequiv_catiso_to_uaiso">
<ellipse fill="#f070d1" stroke="#000000" cx="466.6825" cy="-178" rx="120.4791" ry="18"/>
<text text-anchor="middle" x="466.6825" y="-174.3" font-family="Times,serif" font-size="14.00" fill="#000000">isequiv_catiso_to_uaiso</text>
</a>
</g>
</g>
<!-- ua_category_path_idtoiso_isomorphic_id&#45;&gt;ua_category_isequiv_catiso_to_uaiso -->
<g id="edge3" class="edge">
<title>ua_category_path_idtoiso_isomorphic_id&#45;&gt;ua_category_isequiv_catiso_to_uaiso</title>
<path fill="none" stroke="#000000" d="M466.6825,-231.8314C466.6825,-224.131 466.6825,-214.9743 466.6825,-206.4166"/>
<polygon fill="#000000" stroke="#000000" points="470.1826,-206.4132 466.6825,-196.4133 463.1826,-206.4133 470.1826,-206.4132"/>
</g>
<!-- ua_category_uaiso_to_catiso -->
<g id="node5" class="node">
<title>ua_category_uaiso_to_catiso</title>
<g id="a_node5"><a xlink:href="ua_category.html#uaiso_to_catiso" xlink:title="uaiso_to_catiso">
<ellipse fill="#f070d1" stroke="#000000" cx="241.6825" cy="-106" rx="81.7856" ry="18"/>
<text text-anchor="middle" x="241.6825" y="-102.3" font-family="Times,serif" font-size="14.00" fill="#000000">uaiso_to_catiso</text>
</a>
</g>
</g>
<!-- ua_category_isequiv_catiso_to_uaiso&#45;&gt;ua_category_uaiso_to_catiso -->
<g id="edge4" class="edge">
<title>ua_category_isequiv_catiso_to_uaiso&#45;&gt;ua_category_uaiso_to_catiso</title>
<path fill="none" stroke="#000000" d="M415.6266,-161.6621C380.6647,-150.4743 334.2822,-135.6319 298.2059,-124.0875"/>
<polygon fill="#000000" stroke="#000000" points="298.9129,-120.6389 288.3219,-120.9246 296.7794,-127.3059 298.9129,-120.6389"/>
</g>
<!-- ua_category_catiso_to_uaiso -->
<g id="node6" class="node">
<title>ua_category_catiso_to_uaiso</title>
<g id="a_node6"><a xlink:href="ua_category.html#catiso_to_uaiso" xlink:title="catiso_to_uaiso">
<ellipse fill="#f070d1" stroke="#000000" cx="691.6825" cy="-106" rx="81.7856" ry="18"/>
<text text-anchor="middle" x="691.6825" y="-102.3" font-family="Times,serif" font-size="14.00" fill="#000000">catiso_to_uaiso</text>
</a>
</g>
</g>
<!-- ua_category_isequiv_catiso_to_uaiso&#45;&gt;ua_category_catiso_to_uaiso -->
<g id="edge5" class="edge">
<title>ua_category_isequiv_catiso_to_uaiso&#45;&gt;ua_category_catiso_to_uaiso</title>
<path fill="none" stroke="#000000" d="M517.7385,-161.6621C552.7004,-150.4743 599.0828,-135.6319 635.1592,-124.0875"/>
<polygon fill="#000000" stroke="#000000" points="636.5857,-127.3059 645.0432,-120.9246 634.4522,-120.6389 636.5857,-127.3059"/>
</g>
<!-- ua_category_precategory_algebra -->
<g id="node7" class="node">
<title>ua_category_precategory_algebra</title>
<g id="a_node7"><a xlink:href="ua_category.html#precategory_algebra" xlink:title="precategory_algebra">
<ellipse fill="#f070d1" stroke="#000000" cx="466.6825" cy="-34" rx="107.4815" ry="18"/>
<text text-anchor="middle" x="466.6825" y="-30.3" font-family="Times,serif" font-size="14.00" fill="#000000">precategory_algebra</text>
</a>
</g>
</g>
<!-- ua_category_uaiso_to_catiso&#45;&gt;ua_category_precategory_algebra -->
<g id="edge6" class="edge">
<title>ua_category_uaiso_to_catiso&#45;&gt;ua_category_precategory_algebra</title>
<path fill="none" stroke="#000000" d="M288.3027,-91.0816C322.6871,-80.0785 369.7489,-65.0188 406.8998,-53.1305"/>
<polygon fill="#000000" stroke="#000000" points="408.1483,-56.4059 416.6059,-50.0245 406.0149,-49.7389 408.1483,-56.4059"/>
</g>
<!-- ua_category_catiso_to_uaiso&#45;&gt;ua_category_precategory_algebra -->
<g id="edge7" class="edge">
<title>ua_category_catiso_to_uaiso&#45;&gt;ua_category_precategory_algebra</title>
<path fill="none" stroke="#000000" d="M645.0624,-91.0816C610.678,-80.0785 563.6162,-65.0188 526.4653,-53.1305"/>
<polygon fill="#000000" stroke="#000000" points="527.3502,-49.7389 516.7592,-50.0245 525.2167,-56.4059 527.3502,-49.7389"/>
</g>
</g>
</svg>
