<?xml version="1.0" encoding="UTF-8" standalone="no"?>
<!DOCTYPE svg PUBLIC "-//W3C//DTD SVG 1.1//EN"
 "http://www.w3.org/Graphics/SVG/1.1/DTD/svg11.dtd">
<!-- Generated by graphviz version 2.40.1 (20161225.0304)
 -->
<!-- Title: HoTT_Classes_implementations_list Pages: 1 -->
<svg width="1952pt" height="980pt"
 viewBox="0.00 0.00 1952.00 980.00" xmlns="http://www.w3.org/2000/svg" xmlns:xlink="http://www.w3.org/1999/xlink">
<g id="graph0" class="graph" transform="scale(1 1) rotate(0) translate(4 976)">
<title>HoTT_Classes_implementations_list</title>
<polygon fill="#ffffff" stroke="transparent" points="-4,4 -4,-976 1948,-976 1948,4 -4,4"/>
<g id="clust1" class="cluster">
<title>cluster_list</title>
<polygon fill="#ffffc3" stroke="#000000" points="8,-43.4413 8,-928.5587 1936,-928.5587 1936,-43.4413 8,-43.4413"/>
<text text-anchor="middle" x="27.5" y="-913.3587" font-family="Times,serif" font-size="14.00" fill="#000000">list</text>
</g>
<!-- list_fold_right -->
<g id="node1" class="node">
<title>list_fold_right</title>
<g id="a_node1"><a xlink:href="list.html#fold_right" xlink:title="fold_right">
<ellipse fill="#f070d1" stroke="#000000" cx="1864" cy="-619.4413" rx="55.8034" ry="18"/>
<ellipse fill="none" stroke="#000000" cx="1864" cy="-619.4413" rx="59.7968" ry="22"/>
<ellipse fill="none" stroke="#000000" cx="1864" cy="-619.4413" rx="63.7903" ry="26"/>
<text text-anchor="middle" x="1864" y="-615.7413" font-family="Times,serif" font-size="14.00" fill="#000000">fold_right</text>
</a>
</g>
</g>
<!-- list_InList -->
<g id="node2" class="node">
<title>list_InList</title>
<g id="a_node2"><a xlink:href="list.html#InList" xlink:title="InList">
<ellipse fill="#f070d1" stroke="#000000" cx="1736" cy="-619.4413" rx="38.2201" ry="18"/>
<ellipse fill="none" stroke="#000000" cx="1736" cy="-619.4413" rx="42.2069" ry="22"/>
<ellipse fill="none" stroke="#000000" cx="1736" cy="-619.4413" rx="46.1937" ry="26"/>
<text text-anchor="middle" x="1736" y="-615.7413" font-family="Times,serif" font-size="14.00" fill="#000000">InList</text>
</a>
</g>
</g>
<!-- list_tl -->
<g id="node3" class="node">
<title>list_tl</title>
<g id="a_node3"><a xlink:href="list.html#tl" xlink:title="tl">
<ellipse fill="#f070d1" stroke="#000000" cx="1637" cy="-619.4413" rx="27" ry="18"/>
<ellipse fill="none" stroke="#000000" cx="1637" cy="-619.4413" rx="31" ry="22"/>
<ellipse fill="none" stroke="#000000" cx="1637" cy="-619.4413" rx="35" ry="26"/>
<text text-anchor="middle" x="1637" y="-615.7413" font-family="Times,serif" font-size="14.00" fill="#000000">tl</text>
</a>
</g>
</g>
<!-- list_for_all_trunc -->
<g id="node4" class="node">
<title>list_for_all_trunc</title>
<g id="a_node4"><a xlink:href="list.html#for_all_trunc" xlink:title="for_all_trunc">
<ellipse fill="#f070d1" stroke="#000000" cx="1314" cy="-619.4413" rx="70.3682" ry="18"/>
<ellipse fill="none" stroke="#000000" cx="1314" cy="-619.4413" rx="74.3781" ry="22"/>
<ellipse fill="none" stroke="#000000" cx="1314" cy="-619.4413" rx="78.388" ry="26"/>
<text text-anchor="middle" x="1314" y="-615.7413" font-family="Times,serif" font-size="14.00" fill="#000000">for_all_trunc</text>
</a>
</g>
</g>
<!-- list_for_all -->
<g id="node9" class="node">
<title>list_for_all</title>
<g id="a_node9"><a xlink:href="list.html#for_all" xlink:title="for_all">
<ellipse fill="#f070d1" stroke="#000000" cx="1137" cy="-184.4413" rx="40.0939" ry="18"/>
<text text-anchor="middle" x="1137" y="-180.7413" font-family="Times,serif" font-size="14.00" fill="#000000">for_all</text>
</a>
</g>
</g>
<!-- list_for_all_trunc&#45;&gt;list_for_all -->
<g id="edge1" class="edge">
<title>list_for_all_trunc&#45;&gt;list_for_all</title>
<path fill="none" stroke="#000000" d="M1303.4579,-593.5328C1272.1974,-516.7062 1180.1976,-290.6049 1148.1563,-211.8595"/>
<polygon fill="#000000" stroke="#000000" points="1151.3945,-210.531 1144.3836,-202.5875 1144.9107,-213.1693 1151.3945,-210.531"/>
</g>
<!-- list_fold_preserves -->
<g id="node5" class="node">
<title>list_fold_preserves</title>
<g id="a_node5"><a xlink:href="list.html#fold_preserves" xlink:title="fold_preserves">
<ellipse fill="#f070d1" stroke="#000000" cx="1497" cy="-619.4413" rx="79.1053" ry="18"/>
<ellipse fill="none" stroke="#000000" cx="1497" cy="-619.4413" rx="83.0959" ry="22"/>
<ellipse fill="none" stroke="#000000" cx="1497" cy="-619.4413" rx="87.0864" ry="26"/>
<text text-anchor="middle" x="1497" y="-615.7413" font-family="Times,serif" font-size="14.00" fill="#000000">fold_preserves</text>
</a>
</g>
</g>
<!-- list_fold_preserves&#45;&gt;list_for_all -->
<g id="edge2" class="edge">
<title>list_fold_preserves&#45;&gt;list_for_all</title>
<path fill="none" stroke="#000000" d="M1476.0888,-594.1737C1412.3819,-517.1945 1221.1946,-286.1765 1157.73,-209.4901"/>
<polygon fill="#000000" stroke="#000000" points="1160.3858,-207.2095 1151.3137,-201.737 1154.993,-211.6725 1160.3858,-207.2095"/>
</g>
<!-- list_fold_left -->
<g id="node16" class="node">
<title>list_fold_left</title>
<g id="a_node16"><a xlink:href="list.html#fold_left" xlink:title="fold_left">
<ellipse fill="#f070d1" stroke="#000000" cx="1497" cy="-184.4413" rx="48.9926" ry="18"/>
<text text-anchor="middle" x="1497" y="-180.7413" font-family="Times,serif" font-size="14.00" fill="#000000">fold_left</text>
</a>
</g>
</g>
<!-- list_fold_preserves&#45;&gt;list_fold_left -->
<g id="edge3" class="edge">
<title>list_fold_preserves&#45;&gt;list_fold_left</title>
<path fill="none" stroke="#000000" d="M1497,-593.2098C1497,-516.3693 1497,-292.2174 1497,-212.7677"/>
<polygon fill="#000000" stroke="#000000" points="1500.5001,-212.5478 1497,-202.5478 1493.5001,-212.5478 1500.5001,-212.5478"/>
</g>
<!-- list_for_all_map2 -->
<g id="node6" class="node">
<title>list_for_all_map2</title>
<g id="a_node6"><a xlink:href="list.html#for_all_map2" xlink:title="for_all_map2">
<ellipse fill="#f070d1" stroke="#000000" cx="795" cy="-619.4413" rx="70.7036" ry="18"/>
<ellipse fill="none" stroke="#000000" cx="795" cy="-619.4413" rx="74.6957" ry="22"/>
<ellipse fill="none" stroke="#000000" cx="795" cy="-619.4413" rx="78.6877" ry="26"/>
<text text-anchor="middle" x="795" y="-615.7413" font-family="Times,serif" font-size="14.00" fill="#000000">for_all_map2</text>
</a>
</g>
</g>
<!-- list_for_all_map2&#45;&gt;list_for_all -->
<g id="edge4" class="edge">
<title>list_for_all_map2&#45;&gt;list_for_all</title>
<path fill="none" stroke="#000000" d="M814.8656,-594.1737C875.2647,-517.3503 1056.2803,-287.1112 1116.9388,-209.9577"/>
<polygon fill="#000000" stroke="#000000" points="1119.9728,-211.7616 1123.402,-201.737 1114.4699,-207.4351 1119.9728,-211.7616"/>
</g>
<!-- list_map2 -->
<g id="node14" class="node">
<title>list_map2</title>
<g id="a_node14"><a xlink:href="list.html#map2" xlink:title="map2">
<ellipse fill="#f070d1" stroke="#000000" cx="229" cy="-184.4413" rx="36.2938" ry="18"/>
<text text-anchor="middle" x="229" y="-180.7413" font-family="Times,serif" font-size="14.00" fill="#000000">map2</text>
</a>
</g>
</g>
<!-- list_for_all_map2&#45;&gt;list_map2 -->
<g id="edge5" class="edge">
<title>list_for_all_map2&#45;&gt;list_map2</title>
<path fill="none" stroke="#000000" d="M763.7632,-595.4342C663.6561,-518.4968 351.8252,-278.8388 256.7791,-205.791"/>
<polygon fill="#000000" stroke="#000000" points="258.8392,-202.96 248.7775,-199.6414 254.5736,-208.5102 258.8392,-202.96"/>
</g>
<!-- list_for_all_map -->
<g id="node7" class="node">
<title>list_for_all_map</title>
<g id="a_node7"><a xlink:href="list.html#for_all_map" xlink:title="for_all_map">
<ellipse fill="#f070d1" stroke="#000000" cx="965" cy="-619.4413" rx="64.9891" ry="18"/>
<ellipse fill="none" stroke="#000000" cx="965" cy="-619.4413" rx="68.9888" ry="22"/>
<ellipse fill="none" stroke="#000000" cx="965" cy="-619.4413" rx="72.9885" ry="26"/>
<text text-anchor="middle" x="965" y="-615.7413" font-family="Times,serif" font-size="14.00" fill="#000000">for_all_map</text>
</a>
</g>
</g>
<!-- list_for_all_map&#45;&gt;list_for_all -->
<g id="edge6" class="edge">
<title>list_for_all_map&#45;&gt;list_for_all</title>
<path fill="none" stroke="#000000" d="M975.2443,-593.5328C1005.5598,-516.8627 1094.6588,-291.5253 1125.9678,-212.3424"/>
<polygon fill="#000000" stroke="#000000" points="1129.4027,-213.1739 1129.825,-202.5875 1122.8931,-210.6 1129.4027,-213.1739"/>
</g>
<!-- list_map -->
<g id="node15" class="node">
<title>list_map</title>
<g id="a_node15"><a xlink:href="list.html#map" xlink:title="map">
<ellipse fill="#f070d1" stroke="#000000" cx="653" cy="-184.4413" rx="30.5947" ry="18"/>
<text text-anchor="middle" x="653" y="-180.7413" font-family="Times,serif" font-size="14.00" fill="#000000">map</text>
</a>
</g>
</g>
<!-- list_for_all_map&#45;&gt;list_map -->
<g id="edge7" class="edge">
<title>list_for_all_map&#45;&gt;list_map</title>
<path fill="none" stroke="#000000" d="M946.877,-594.1737C891.6509,-517.1757 725.8879,-286.0638 670.9258,-209.4341"/>
<polygon fill="#000000" stroke="#000000" points="673.75,-207.3663 665.0776,-201.2803 668.0618,-211.4462 673.75,-207.3663"/>
</g>
<!-- list_for_all_trivial -->
<g id="node8" class="node">
<title>list_for_all_trivial</title>
<g id="a_node8"><a xlink:href="list.html#for_all_trivial" xlink:title="for_all_trivial">
<ellipse fill="#f070d1" stroke="#000000" cx="1137" cy="-619.4413" rx="72.608" ry="18"/>
<ellipse fill="none" stroke="#000000" cx="1137" cy="-619.4413" rx="76.5978" ry="22"/>
<ellipse fill="none" stroke="#000000" cx="1137" cy="-619.4413" rx="80.5876" ry="26"/>
<text text-anchor="middle" x="1137" y="-615.7413" font-family="Times,serif" font-size="14.00" fill="#000000">for_all_trivial</text>
</a>
</g>
</g>
<!-- list_for_all_trivial&#45;&gt;list_for_all -->
<g id="edge8" class="edge">
<title>list_for_all_trivial&#45;&gt;list_for_all</title>
<path fill="none" stroke="#000000" d="M1137,-593.2098C1137,-516.3693 1137,-292.2174 1137,-212.7677"/>
<polygon fill="#000000" stroke="#000000" points="1140.5001,-212.5478 1137,-202.5478 1133.5001,-212.5478 1140.5001,-212.5478"/>
</g>
<!-- list_app_assoc -->
<g id="node10" class="node">
<title>list_app_assoc</title>
<g id="a_node10"><a xlink:href="list.html#app_assoc" xlink:title="app_assoc">
<ellipse fill="#f070d1" stroke="#000000" cx="632" cy="-619.4413" rx="58.4902" ry="18"/>
<ellipse fill="none" stroke="#000000" cx="632" cy="-619.4413" rx="62.4899" ry="22"/>
<ellipse fill="none" stroke="#000000" cx="632" cy="-619.4413" rx="66.4896" ry="26"/>
<text text-anchor="middle" x="632" y="-615.7413" font-family="Times,serif" font-size="14.00" fill="#000000">app_assoc</text>
</a>
</g>
</g>
<!-- list_sg_op_app -->
<g id="node11" class="node">
<title>list_sg_op_app</title>
<g id="a_node11"><a xlink:href="list.html#sg_op_app" xlink:title="sg_op_app">
<ellipse fill="#f070d1" stroke="#000000" cx="480" cy="-619.4413" rx="59.6142" ry="18"/>
<ellipse fill="none" stroke="#000000" cx="480" cy="-619.4413" rx="63.6021" ry="22"/>
<ellipse fill="none" stroke="#000000" cx="480" cy="-619.4413" rx="67.59" ry="26"/>
<text text-anchor="middle" x="480" y="-615.7413" font-family="Times,serif" font-size="14.00" fill="#000000">sg_op_app</text>
</a>
</g>
</g>
<!-- list_map_id -->
<g id="node12" class="node">
<title>list_map_id</title>
<g id="a_node12"><a xlink:href="list.html#map_id" xlink:title="map_id">
<ellipse fill="#f070d1" stroke="#000000" cx="342" cy="-619.4413" rx="44.3627" ry="18"/>
<ellipse fill="none" stroke="#000000" cx="342" cy="-619.4413" rx="48.3778" ry="22"/>
<ellipse fill="none" stroke="#000000" cx="342" cy="-619.4413" rx="52.3929" ry="26"/>
<text text-anchor="middle" x="342" y="-615.7413" font-family="Times,serif" font-size="14.00" fill="#000000">map_id</text>
</a>
</g>
</g>
<!-- list_map_id&#45;&gt;list_map -->
<g id="edge9" class="edge">
<title>list_map_id&#45;&gt;list_map</title>
<path fill="none" stroke="#000000" d="M359.6118,-594.8075C414.1758,-518.4881 580.0387,-286.4933 635.0542,-209.5424"/>
<polygon fill="#000000" stroke="#000000" points="637.9396,-211.5245 640.9083,-201.3541 632.2452,-207.4533 637.9396,-211.5245"/>
</g>
<!-- list_map2_cons -->
<g id="node13" class="node">
<title>list_map2_cons</title>
<g id="a_node13"><a xlink:href="list.html#map2_cons" xlink:title="map2_cons">
<ellipse fill="#f070d1" stroke="#000000" cx="201" cy="-619.4413" rx="63.0838" ry="18"/>
<ellipse fill="none" stroke="#000000" cx="201" cy="-619.4413" rx="67.0863" ry="22"/>
<ellipse fill="none" stroke="#000000" cx="201" cy="-619.4413" rx="71.0888" ry="26"/>
<text text-anchor="middle" x="201" y="-615.7413" font-family="Times,serif" font-size="14.00" fill="#000000">map2_cons</text>
</a>
</g>
</g>
<!-- list_map2_cons&#45;&gt;list_map2 -->
<g id="edge10" class="edge">
<title>list_map2_cons&#45;&gt;list_map2</title>
<path fill="none" stroke="#000000" d="M202.6885,-593.2098C207.6345,-516.3693 222.0627,-292.2174 227.1767,-212.7677"/>
<polygon fill="#000000" stroke="#000000" points="230.6849,-212.752 227.8345,-202.5478 223.6993,-212.3023 230.6849,-212.752"/>
</g>
<!-- list_length -->
<g id="node17" class="node">
<title>list_length</title>
<g id="a_node17"><a xlink:href="list.html#length" xlink:title="length">
<ellipse fill="#f070d1" stroke="#000000" cx="64" cy="-619.4413" rx="40.1273" ry="18"/>
<ellipse fill="none" stroke="#000000" cx="64" cy="-619.4413" rx="44.1105" ry="22"/>
<ellipse fill="none" stroke="#000000" cx="64" cy="-619.4413" rx="48.0937" ry="26"/>
<text text-anchor="middle" x="64" y="-615.7413" font-family="Times,serif" font-size="14.00" fill="#000000">length</text>
</a>
</g>
</g>
</g>
</svg>
