<?xml version="1.0" encoding="UTF-8" standalone="no"?>
<!DOCTYPE svg PUBLIC "-//W3C//DTD SVG 1.1//EN"
 "http://www.w3.org/Graphics/SVG/1.1/DTD/svg11.dtd">
<!-- Generated by graphviz version 2.40.1 (20161225.0304)
 -->
<!-- Title: HoTT_Pointed_pMap Pages: 1 -->
<svg width="1950pt" height="979pt"
 viewBox="0.00 0.00 1950.00 979.00" xmlns="http://www.w3.org/2000/svg" xmlns:xlink="http://www.w3.org/1999/xlink">
<g id="graph0" class="graph" transform="scale(1 1) rotate(0) translate(4 975)">
<title>HoTT_Pointed_pMap</title>
<polygon fill="#ffffff" stroke="transparent" points="-4,4 -4,-975 1946,-975 1946,4 -4,4"/>
<g id="clust1" class="cluster">
<title>cluster_pMap</title>
<polygon fill="#ffffc3" stroke="#000000" points="8,-18.192 8,-952.808 1934,-952.808 1934,-18.192 8,-18.192"/>
<text text-anchor="middle" x="36.5" y="-937.608" font-family="Times,serif" font-size="14.00" fill="#000000">pMap</text>
</g>
<!-- pMap_pmap_compose_ppforall_path_pforall -->
<g id="node1" class="node">
<title>pMap_pmap_compose_ppforall_path_pforall</title>
<g id="a_node1"><a xlink:href="pMap.html#pmap_compose_ppforall_path_pforall" xlink:title="pmap_compose_ppforall_path_pforall">
<ellipse fill="#f070d1" stroke="#000000" cx="1732" cy="-823.192" rx="184.6638" ry="18"/>
<ellipse fill="none" stroke="#000000" cx="1732" cy="-823.192" rx="188.6655" ry="22"/>
<ellipse fill="none" stroke="#000000" cx="1732" cy="-823.192" rx="192.6673" ry="26"/>
<text text-anchor="middle" x="1732" y="-819.492" font-family="Times,serif" font-size="14.00" fill="#000000">pmap_compose_ppforall_path_pforall</text>
</a>
</g>
</g>
<!-- pMap_pmap_compose_ppforall2_refl -->
<g id="node3" class="node">
<title>pMap_pmap_compose_ppforall2_refl</title>
<g id="a_node3"><a xlink:href="pMap.html#pmap_compose_ppforall2_refl" xlink:title="pmap_compose_ppforall2_refl">
<ellipse fill="#f070d1" stroke="#000000" cx="1743" cy="-623.192" rx="150.2735" ry="18"/>
<text text-anchor="middle" x="1743" y="-619.492" font-family="Times,serif" font-size="14.00" fill="#000000">pmap_compose_ppforall2_refl</text>
</a>
</g>
</g>
<!-- pMap_pmap_compose_ppforall_path_pforall&#45;&gt;pMap_pmap_compose_ppforall2_refl -->
<g id="edge1" class="edge">
<title>pMap_pmap_compose_ppforall_path_pforall&#45;&gt;pMap_pmap_compose_ppforall2_refl</title>
<path fill="none" stroke="#000000" d="M1733.4381,-797.0455C1735.5088,-759.3965 1739.315,-690.1916 1741.4476,-651.4181"/>
<polygon fill="#000000" stroke="#000000" points="1744.9473,-651.5177 1742.0018,-641.3405 1737.9579,-651.1332 1744.9473,-651.5177"/>
</g>
<!-- pMap_pmap_compose_ppforall2_right -->
<g id="node4" class="node">
<title>pMap_pmap_compose_ppforall2_right</title>
<g id="a_node4"><a xlink:href="pMap.html#pmap_compose_ppforall2_right" xlink:title="pmap_compose_ppforall2_right">
<ellipse fill="#f070d1" stroke="#000000" cx="1418" cy="-623.192" rx="157.0724" ry="18"/>
<text text-anchor="middle" x="1418" y="-619.492" font-family="Times,serif" font-size="14.00" fill="#000000">pmap_compose_ppforall2_right</text>
</a>
</g>
</g>
<!-- pMap_pmap_compose_ppforall_path_pforall&#45;&gt;pMap_pmap_compose_ppforall2_right -->
<g id="edge2" class="edge">
<title>pMap_pmap_compose_ppforall_path_pforall&#45;&gt;pMap_pmap_compose_ppforall2_right</title>
<path fill="none" stroke="#000000" d="M1691.9127,-797.6588C1630.424,-758.494 1513.7388,-684.1722 1454.4881,-646.4329"/>
<polygon fill="#000000" stroke="#000000" points="1456.1473,-643.34 1445.8326,-640.9198 1452.3867,-649.2441 1456.1473,-643.34"/>
</g>
<!-- pMap_pmap_compose_ppforall_pid_left -->
<g id="node2" class="node">
<title>pMap_pmap_compose_ppforall_pid_left</title>
<g id="a_node2"><a xlink:href="pMap.html#pmap_compose_ppforall_pid_left" xlink:title="pmap_compose_ppforall_pid_left">
<ellipse fill="#f070d1" stroke="#000000" cx="897" cy="-423.192" rx="163.2648" ry="18"/>
<ellipse fill="none" stroke="#000000" cx="897" cy="-423.192" rx="167.268" ry="22"/>
<ellipse fill="none" stroke="#000000" cx="897" cy="-423.192" rx="171.2712" ry="26"/>
<text text-anchor="middle" x="897" y="-419.492" font-family="Times,serif" font-size="14.00" fill="#000000">pmap_compose_ppforall_pid_left</text>
</a>
</g>
</g>
<!-- pMap_pmap_compose_ppforall -->
<g id="node9" class="node">
<title>pMap_pmap_compose_ppforall</title>
<g id="a_node9"><a xlink:href="pMap.html#pmap_compose_ppforall" xlink:title="pmap_compose_ppforall">
<ellipse fill="#f070d1" stroke="#000000" cx="897" cy="-241.192" rx="123.4781" ry="18"/>
<text text-anchor="middle" x="897" y="-237.492" font-family="Times,serif" font-size="14.00" fill="#000000">pmap_compose_ppforall</text>
</a>
</g>
</g>
<!-- pMap_pmap_compose_ppforall_pid_left&#45;&gt;pMap_pmap_compose_ppforall -->
<g id="edge3" class="edge">
<title>pMap_pmap_compose_ppforall_pid_left&#45;&gt;pMap_pmap_compose_ppforall</title>
<path fill="none" stroke="#000000" d="M897,-397.1159C897,-363.3244 897,-304.611 897,-269.6801"/>
<polygon fill="#000000" stroke="#000000" points="900.5001,-269.2363 897,-259.2363 893.5001,-269.2363 900.5001,-269.2363"/>
</g>
<!-- pMap_pmap_compose_ppforall2 -->
<g id="node6" class="node">
<title>pMap_pmap_compose_ppforall2</title>
<g id="a_node6"><a xlink:href="pMap.html#pmap_compose_ppforall2" xlink:title="pmap_compose_ppforall2">
<ellipse fill="#f070d1" stroke="#000000" cx="1215" cy="-423.192" rx="129.1772" ry="18"/>
<text text-anchor="middle" x="1215" y="-419.492" font-family="Times,serif" font-size="14.00" fill="#000000">pmap_compose_ppforall2</text>
</a>
</g>
</g>
<!-- pMap_pmap_compose_ppforall2_refl&#45;&gt;pMap_pmap_compose_ppforall2 -->
<g id="edge4" class="edge">
<title>pMap_pmap_compose_ppforall2_refl&#45;&gt;pMap_pmap_compose_ppforall2</title>
<path fill="none" stroke="#000000" d="M1697.526,-605.967C1600.4976,-569.2139 1373.5377,-483.2442 1269.2082,-443.7255"/>
<polygon fill="#000000" stroke="#000000" points="1270.3949,-440.4323 1259.8034,-440.163 1267.9152,-446.9784 1270.3949,-440.4323"/>
</g>
<!-- pMap_functor2_pforall_right_refl -->
<g id="node10" class="node">
<title>pMap_functor2_pforall_right_refl</title>
<g id="a_node10"><a xlink:href="pMap.html#functor2_pforall_right_refl" xlink:title="functor2_pforall_right_refl">
<ellipse fill="#f070d1" stroke="#000000" cx="1497" cy="-423.192" rx="134.5761" ry="18"/>
<text text-anchor="middle" x="1497" y="-419.492" font-family="Times,serif" font-size="14.00" fill="#000000">functor2_pforall_right_refl</text>
</a>
</g>
</g>
<!-- pMap_pmap_compose_ppforall2_refl&#45;&gt;pMap_functor2_pforall_right_refl -->
<g id="edge5" class="edge">
<title>pMap_pmap_compose_ppforall2_refl&#45;&gt;pMap_functor2_pforall_right_refl</title>
<path fill="none" stroke="#000000" d="M1720.7353,-605.0906C1676.3695,-569.0209 1576.917,-488.1652 1526.9109,-447.5099"/>
<polygon fill="#000000" stroke="#000000" points="1529.0043,-444.7011 1519.0372,-441.1084 1524.5885,-450.1325 1529.0043,-444.7011"/>
</g>
<!-- pMap_fiberwise_pointed_map_rec -->
<g id="node14" class="node">
<title>pMap_fiberwise_pointed_map_rec</title>
<g id="a_node14"><a xlink:href="pMap.html#fiberwise_pointed_map_rec" xlink:title="fiberwise_pointed_map_rec">
<ellipse fill="#f070d1" stroke="#000000" cx="1788" cy="-423.192" rx="138.3755" ry="18"/>
<text text-anchor="middle" x="1788" y="-419.492" font-family="Times,serif" font-size="14.00" fill="#000000">fiberwise_pointed_map_rec</text>
</a>
</g>
</g>
<!-- pMap_pmap_compose_ppforall2_refl&#45;&gt;pMap_fiberwise_pointed_map_rec -->
<g id="edge6" class="edge">
<title>pMap_pmap_compose_ppforall2_refl&#45;&gt;pMap_fiberwise_pointed_map_rec</title>
<path fill="none" stroke="#000000" d="M1747.0728,-605.0906C1754.951,-570.0764 1772.325,-492.8588 1781.7027,-451.1799"/>
<polygon fill="#000000" stroke="#000000" points="1785.1234,-451.9211 1783.904,-441.3966 1778.2941,-450.3844 1785.1234,-451.9211"/>
</g>
<!-- pMap_pmap_compose_ppforall2_right&#45;&gt;pMap_pmap_compose_ppforall2 -->
<g id="edge7" class="edge">
<title>pMap_pmap_compose_ppforall2_right&#45;&gt;pMap_pmap_compose_ppforall2</title>
<path fill="none" stroke="#000000" d="M1399.6271,-605.0906C1363.2428,-569.244 1281.9613,-489.1638 1240.453,-448.2689"/>
<polygon fill="#000000" stroke="#000000" points="1242.7651,-445.6335 1233.1852,-441.1084 1237.8523,-450.6199 1242.7651,-445.6335"/>
</g>
<!-- pMap_pmap_compose_ppforall2_left -->
<g id="node5" class="node">
<title>pMap_pmap_compose_ppforall2_left</title>
<g id="a_node5"><a xlink:href="pMap.html#pmap_compose_ppforall2_left" xlink:title="pmap_compose_ppforall2_left">
<ellipse fill="#f070d1" stroke="#000000" cx="1085" cy="-623.192" rx="149.4741" ry="18"/>
<ellipse fill="none" stroke="#000000" cx="1085" cy="-623.192" rx="153.4738" ry="22"/>
<ellipse fill="none" stroke="#000000" cx="1085" cy="-623.192" rx="157.4735" ry="26"/>
<text text-anchor="middle" x="1085" y="-619.492" font-family="Times,serif" font-size="14.00" fill="#000000">pmap_compose_ppforall2_left</text>
</a>
</g>
</g>
<!-- pMap_pmap_compose_ppforall2_left&#45;&gt;pMap_pmap_compose_ppforall2 -->
<g id="edge8" class="edge">
<title>pMap_pmap_compose_ppforall2_left&#45;&gt;pMap_pmap_compose_ppforall2</title>
<path fill="none" stroke="#000000" d="M1101.9952,-597.0455C1126.7809,-558.9138 1172.6071,-488.4119 1197.6125,-449.942"/>
<polygon fill="#000000" stroke="#000000" points="1200.6881,-451.6324 1203.2035,-441.3405 1194.819,-447.8175 1200.6881,-451.6324"/>
</g>
<!-- pMap_pmap_compose_ppforall2&#45;&gt;pMap_pmap_compose_ppforall -->
<g id="edge9" class="edge">
<title>pMap_pmap_compose_ppforall2&#45;&gt;pMap_pmap_compose_ppforall</title>
<path fill="none" stroke="#000000" d="M1184.2199,-405.5757C1126.2798,-372.4151 1001.078,-300.7587 936.8203,-263.9823"/>
<polygon fill="#000000" stroke="#000000" points="938.2147,-260.7477 927.7971,-258.818 934.7376,-266.823 938.2147,-260.7477"/>
</g>
<!-- pMap_functor2_pforall_right -->
<g id="node11" class="node">
<title>pMap_functor2_pforall_right</title>
<g id="a_node11"><a xlink:href="pMap.html#functor2_pforall_right" xlink:title="functor2_pforall_right">
<ellipse fill="#f070d1" stroke="#000000" cx="1215" cy="-241.192" rx="113.9803" ry="18"/>
<text text-anchor="middle" x="1215" y="-237.492" font-family="Times,serif" font-size="14.00" fill="#000000">functor2_pforall_right</text>
</a>
</g>
</g>
<!-- pMap_pmap_compose_ppforall2&#45;&gt;pMap_functor2_pforall_right -->
<g id="edge10" class="edge">
<title>pMap_pmap_compose_ppforall2&#45;&gt;pMap_functor2_pforall_right</title>
<path fill="none" stroke="#000000" d="M1215,-405.0758C1215,-373.3243 1215,-307.4091 1215,-269.5624"/>
<polygon fill="#000000" stroke="#000000" points="1218.5001,-269.235 1215,-259.235 1211.5001,-269.235 1218.5001,-269.235"/>
</g>
<!-- pMap_pmap_compose_ppforall_compose -->
<g id="node7" class="node">
<title>pMap_pmap_compose_ppforall_compose</title>
<g id="a_node7"><a xlink:href="pMap.html#pmap_compose_ppforall_compose" xlink:title="pmap_compose_ppforall_compose">
<ellipse fill="#f070d1" stroke="#000000" cx="531" cy="-423.192" rx="168.9707" ry="18"/>
<ellipse fill="none" stroke="#000000" cx="531" cy="-423.192" rx="172.9704" ry="22"/>
<ellipse fill="none" stroke="#000000" cx="531" cy="-423.192" rx="176.97" ry="26"/>
<text text-anchor="middle" x="531" y="-419.492" font-family="Times,serif" font-size="14.00" fill="#000000">pmap_compose_ppforall_compose</text>
</a>
</g>
</g>
<!-- pMap_pmap_compose_ppforall_compose&#45;&gt;pMap_pmap_compose_ppforall -->
<g id="edge11" class="edge">
<title>pMap_pmap_compose_ppforall_compose&#45;&gt;pMap_pmap_compose_ppforall</title>
<path fill="none" stroke="#000000" d="M581.5065,-398.0768C653.5199,-362.2668 784.5323,-297.1186 852.8644,-263.1393"/>
<polygon fill="#000000" stroke="#000000" points="854.682,-266.1443 862.0777,-258.5578 851.5652,-259.8765 854.682,-266.1443"/>
</g>
<!-- pMap_pmap_compose_ppforall_point -->
<g id="node8" class="node">
<title>pMap_pmap_compose_ppforall_point</title>
<g id="a_node8"><a xlink:href="pMap.html#pmap_compose_ppforall_point" xlink:title="pmap_compose_ppforall_point">
<ellipse fill="#f070d1" stroke="#000000" cx="176" cy="-423.192" rx="152.1687" ry="18"/>
<ellipse fill="none" stroke="#000000" cx="176" cy="-423.192" rx="156.1709" ry="22"/>
<ellipse fill="none" stroke="#000000" cx="176" cy="-423.192" rx="160.1731" ry="26"/>
<text text-anchor="middle" x="176" y="-419.492" font-family="Times,serif" font-size="14.00" fill="#000000">pmap_compose_ppforall_point</text>
</a>
</g>
</g>
<!-- pMap_pmap_compose_ppforall_point&#45;&gt;pMap_pmap_compose_ppforall -->
<g id="edge12" class="edge">
<title>pMap_pmap_compose_ppforall_point&#45;&gt;pMap_pmap_compose_ppforall</title>
<path fill="none" stroke="#000000" d="M262.9694,-401.2386C406.9351,-364.8977 692.0881,-292.9174 825.2959,-259.2921"/>
<polygon fill="#000000" stroke="#000000" points="826.1673,-262.682 835.0065,-256.8409 824.454,-255.8949 826.1673,-262.682"/>
</g>
<!-- pMap_functor_pforall_right -->
<g id="node12" class="node">
<title>pMap_functor_pforall_right</title>
<g id="a_node12"><a xlink:href="pMap.html#functor_pforall_right" xlink:title="functor_pforall_right">
<ellipse fill="#f070d1" stroke="#000000" cx="1056" cy="-77.192" rx="107.781" ry="18"/>
<text text-anchor="middle" x="1056" y="-73.492" font-family="Times,serif" font-size="14.00" fill="#000000">functor_pforall_right</text>
</a>
</g>
</g>
<!-- pMap_pmap_compose_ppforall&#45;&gt;pMap_functor_pforall_right -->
<g id="edge13" class="edge">
<title>pMap_pmap_compose_ppforall&#45;&gt;pMap_functor_pforall_right</title>
<path fill="none" stroke="#000000" d="M914.3185,-223.329C942.6335,-194.1235 998.9272,-136.0595 1031.3833,-102.5828"/>
<polygon fill="#000000" stroke="#000000" points="1034.255,-104.6491 1038.7029,-95.0331 1029.2292,-99.7765 1034.255,-104.6491"/>
</g>
<!-- pMap_functor2_pforall_right_refl&#45;&gt;pMap_functor2_pforall_right -->
<g id="edge14" class="edge">
<title>pMap_functor2_pforall_right_refl&#45;&gt;pMap_functor2_pforall_right</title>
<path fill="none" stroke="#000000" d="M1469.4472,-405.4097C1418.1415,-372.2976 1308.0069,-301.2178 1250.9362,-264.3849"/>
<polygon fill="#000000" stroke="#000000" points="1252.5495,-261.2605 1242.2495,-258.7786 1248.7536,-267.142 1252.5495,-261.2605"/>
</g>
<!-- pMap_functor2_pforall_right&#45;&gt;pMap_functor_pforall_right -->
<g id="edge15" class="edge">
<title>pMap_functor2_pforall_right&#45;&gt;pMap_functor_pforall_right</title>
<path fill="none" stroke="#000000" d="M1197.6815,-223.329C1169.3665,-194.1235 1113.0728,-136.0595 1080.6167,-102.5828"/>
<polygon fill="#000000" stroke="#000000" points="1082.7708,-99.7765 1073.2971,-95.0331 1077.745,-104.6491 1082.7708,-99.7765"/>
</g>
<!-- pMap_Build_pHomotopy_pForall -->
<g id="node13" class="node">
<title>pMap_Build_pHomotopy_pForall</title>
<g id="a_node13"><a xlink:href="pMap.html#Build_pHomotopy_pForall" xlink:title="Build_pHomotopy_pForall">
<ellipse fill="#f070d1" stroke="#000000" cx="1380" cy="-823.192" rx="131.8801" ry="18"/>
<ellipse fill="none" stroke="#000000" cx="1380" cy="-823.192" rx="135.8784" ry="22"/>
<ellipse fill="none" stroke="#000000" cx="1380" cy="-823.192" rx="139.8766" ry="26"/>
<text text-anchor="middle" x="1380" y="-819.492" font-family="Times,serif" font-size="14.00" fill="#000000">Build_pHomotopy_pForall</text>
</a>
</g>
</g>
<!-- pMap_pmap_from_pointed -->
<g id="node20" class="node">
<title>pMap_pmap_from_pointed</title>
<g id="a_node20"><a xlink:href="pMap.html#pmap_from_pointed" xlink:title="pmap_from_pointed">
<ellipse fill="#f070d1" stroke="#000000" cx="1788" cy="-241.192" rx="103.1819" ry="18"/>
<text text-anchor="middle" x="1788" y="-237.492" font-family="Times,serif" font-size="14.00" fill="#000000">pmap_from_pointed</text>
</a>
</g>
</g>
<!-- pMap_fiberwise_pointed_map_rec&#45;&gt;pMap_pmap_from_pointed -->
<g id="edge16" class="edge">
<title>pMap_fiberwise_pointed_map_rec&#45;&gt;pMap_pmap_from_pointed</title>
<path fill="none" stroke="#000000" d="M1788,-405.0758C1788,-373.3243 1788,-307.4091 1788,-269.5624"/>
<polygon fill="#000000" stroke="#000000" points="1791.5001,-269.235 1788,-259.235 1784.5001,-269.235 1791.5001,-269.235"/>
</g>
<!-- pMap_equiv_inverse_path_pmap_1 -->
<g id="node15" class="node">
<title>pMap_equiv_inverse_path_pmap_1</title>
<g id="a_node15"><a xlink:href="pMap.html#equiv_inverse_path_pmap_1" xlink:title="equiv_inverse_path_pmap_1">
<ellipse fill="#f070d1" stroke="#000000" cx="1071" cy="-823.192" rx="142.1836" ry="18"/>
<ellipse fill="none" stroke="#000000" cx="1071" cy="-823.192" rx="146.1792" ry="22"/>
<ellipse fill="none" stroke="#000000" cx="1071" cy="-823.192" rx="150.1749" ry="26"/>
<text text-anchor="middle" x="1071" y="-819.492" font-family="Times,serif" font-size="14.00" fill="#000000">equiv_inverse_path_pmap_1</text>
</a>
</g>
</g>
<!-- pMap_pconst_factor -->
<g id="node16" class="node">
<title>pMap_pconst_factor</title>
<g id="a_node16"><a xlink:href="pMap.html#pconst_factor" xlink:title="pconst_factor">
<ellipse fill="#f070d1" stroke="#000000" cx="817" cy="-823.192" rx="74.9639" ry="18"/>
<ellipse fill="none" stroke="#000000" cx="817" cy="-823.192" rx="78.9757" ry="22"/>
<ellipse fill="none" stroke="#000000" cx="817" cy="-823.192" rx="82.9875" ry="26"/>
<text text-anchor="middle" x="817" y="-819.492" font-family="Times,serif" font-size="14.00" fill="#000000">pconst_factor</text>
</a>
</g>
</g>
<!-- pMap_precompose_pconst -->
<g id="node18" class="node">
<title>pMap_precompose_pconst</title>
<g id="a_node18"><a xlink:href="pMap.html#precompose_pconst" xlink:title="precompose_pconst">
<ellipse fill="#f070d1" stroke="#000000" cx="806" cy="-623.192" rx="103.1819" ry="18"/>
<text text-anchor="middle" x="806" y="-619.492" font-family="Times,serif" font-size="14.00" fill="#000000">precompose_pconst</text>
</a>
</g>
</g>
<!-- pMap_pconst_factor&#45;&gt;pMap_precompose_pconst -->
<g id="edge17" class="edge">
<title>pMap_pconst_factor&#45;&gt;pMap_precompose_pconst</title>
<path fill="none" stroke="#000000" d="M815.5619,-797.0455C813.4912,-759.3965 809.685,-690.1916 807.5524,-651.4181"/>
<polygon fill="#000000" stroke="#000000" points="811.0421,-651.1332 806.9982,-641.3405 804.0527,-651.5177 811.0421,-651.1332"/>
</g>
<!-- pMap_postcompose_pconst -->
<g id="node17" class="node">
<title>pMap_postcompose_pconst</title>
<g id="a_node17"><a xlink:href="pMap.html#postcompose_pconst" xlink:title="postcompose_pconst">
<ellipse fill="#f070d1" stroke="#000000" cx="600" cy="-823.192" rx="107.7885" ry="18"/>
<ellipse fill="none" stroke="#000000" cx="600" cy="-823.192" rx="111.7847" ry="22"/>
<ellipse fill="none" stroke="#000000" cx="600" cy="-823.192" rx="115.781" ry="26"/>
<text text-anchor="middle" x="600" y="-819.492" font-family="Times,serif" font-size="14.00" fill="#000000">postcompose_pconst</text>
</a>
</g>
</g>
<!-- pMap_pforall_from_pointed -->
<g id="node19" class="node">
<title>pMap_pforall_from_pointed</title>
<g id="a_node19"><a xlink:href="pMap.html#pforall_from_pointed" xlink:title="pforall_from_pointed">
<ellipse fill="#f070d1" stroke="#000000" cx="350" cy="-823.192" rx="107.7885" ry="18"/>
<ellipse fill="none" stroke="#000000" cx="350" cy="-823.192" rx="111.7847" ry="22"/>
<ellipse fill="none" stroke="#000000" cx="350" cy="-823.192" rx="115.781" ry="26"/>
<text text-anchor="middle" x="350" y="-819.492" font-family="Times,serif" font-size="14.00" fill="#000000">pforall_from_pointed</text>
</a>
</g>
</g>
<!-- pMap_pmap_from_point -->
<g id="node21" class="node">
<title>pMap_pmap_from_point</title>
<g id="a_node21"><a xlink:href="pMap.html#pmap_from_point" xlink:title="pmap_from_point">
<ellipse fill="#f070d1" stroke="#000000" cx="116" cy="-823.192" rx="92.1006" ry="18"/>
<ellipse fill="none" stroke="#000000" cx="116" cy="-823.192" rx="96.0923" ry="22"/>
<ellipse fill="none" stroke="#000000" cx="116" cy="-823.192" rx="100.0841" ry="26"/>
<text text-anchor="middle" x="116" y="-819.492" font-family="Times,serif" font-size="14.00" fill="#000000">pmap_from_point</text>
</a>
</g>
</g>
</g>
</svg>
