<?xml version="1.0" encoding="UTF-8" standalone="no"?>
<!DOCTYPE svg PUBLIC "-//W3C//DTD SVG 1.1//EN"
 "http://www.w3.org/Graphics/SVG/1.1/DTD/svg11.dtd">
<!-- Generated by graphviz version 2.40.1 (20161225.0304)
 -->
<!-- Title: HoTT_Diagrams_DDiagram Pages: 1 -->
<svg width="862pt" height="435pt"
 viewBox="0.00 0.00 862.00 435.00" xmlns="http://www.w3.org/2000/svg" xmlns:xlink="http://www.w3.org/1999/xlink">
<g id="graph0" class="graph" transform="scale(1 1) rotate(0) translate(4 431)">
<title>HoTT_Diagrams_DDiagram</title>
<polygon fill="#ffffff" stroke="transparent" points="-4,4 -4,-431 858,-431 858,4 -4,4"/>
<g id="clust1" class="cluster">
<title>cluster_DDiagram</title>
<polygon fill="#ffffc3" stroke="#000000" points="8.4975,-8 8.4975,-419 845.5025,-419 845.5025,-8 8.4975,-8"/>
<text text-anchor="middle" x="52.9975" y="-403.8" font-family="Times,serif" font-size="14.00" fill="#000000">DDiagram</text>
</g>
<!-- DDiagram_isequifibered -->
<g id="node1" class="node">
<title>DDiagram_isequifibered</title>
<g id="a_node1"><a xlink:href="DDiagram.html#isequifibered" xlink:title="isequifibered">
<ellipse fill="#f070d1" stroke="#000000" cx="752.7164" cy="-274" rx="71.488" ry="18"/>
<ellipse fill="none" stroke="#000000" cx="752.7164" cy="-274" rx="75.4876" ry="22"/>
<ellipse fill="none" stroke="#000000" cx="752.7164" cy="-274" rx="79.4873" ry="26"/>
<text text-anchor="middle" x="752.7164" y="-270.3" font-family="Times,serif" font-size="14.00" fill="#000000">isequifibered</text>
</a>
</g>
</g>
<!-- DDiagram_Equifibered -->
<g id="node7" class="node">
<title>DDiagram_Equifibered</title>
<g id="a_node7"><a xlink:href="DDiagram.html#Equifibered" xlink:title="Equifibered">
<ellipse fill="#e2cdfa" stroke="#000000" cx="518.7164" cy="-186" rx="65.7887" ry="18"/>
<text text-anchor="middle" x="518.7164" y="-182.3" font-family="Times,serif" font-size="14.00" fill="#000000">Equifibered</text>
</a>
</g>
</g>
<!-- DDiagram_isequifibered&#45;&gt;DDiagram_Equifibered -->
<g id="edge1" class="edge">
<title>DDiagram_isequifibered&#45;&gt;DDiagram_Equifibered</title>
<path fill="none" stroke="#000000" d="M700.4935,-254.3606C660.6336,-239.3706 606.1265,-218.8722 567.2189,-204.2402"/>
<polygon fill="#000000" stroke="#000000" points="568.2736,-200.8976 557.6816,-200.6536 565.8096,-207.4496 568.2736,-200.8976"/>
</g>
<!-- DDiagram_Equifibered_sind -->
<g id="node2" class="node">
<title>DDiagram_Equifibered_sind</title>
<g id="a_node2"><a xlink:href="DDiagram.html#Equifibered_sind" xlink:title="Equifibered_sind">
<ellipse fill="#f070d1" stroke="#000000" cx="545.7164" cy="-274" rx="89.8687" ry="18"/>
<ellipse fill="none" stroke="#000000" cx="545.7164" cy="-274" rx="93.8766" ry="22"/>
<ellipse fill="none" stroke="#000000" cx="545.7164" cy="-274" rx="97.8845" ry="26"/>
<text text-anchor="middle" x="545.7164" y="-270.3" font-family="Times,serif" font-size="14.00" fill="#000000">Equifibered_sind</text>
</a>
</g>
</g>
<!-- DDiagram_Build_Equifibered -->
<g id="node6" class="node">
<title>DDiagram_Build_Equifibered</title>
<g id="a_node6"><a xlink:href="DDiagram.html#Build_Equifibered" xlink:title="Build_Equifibered">
<ellipse fill="#7faaff" stroke="#000000" cx="328.7164" cy="-186" rx="94.7833" ry="18"/>
<text text-anchor="middle" x="328.7164" y="-182.3" font-family="Times,serif" font-size="14.00" fill="#000000">Build_Equifibered</text>
</a>
</g>
</g>
<!-- DDiagram_Equifibered_sind&#45;&gt;DDiagram_Build_Equifibered -->
<g id="edge2" class="edge">
<title>DDiagram_Equifibered_sind&#45;&gt;DDiagram_Build_Equifibered</title>
<path fill="none" stroke="#000000" d="M492.076,-252.2472C457.4638,-238.2109 412.7439,-220.0757 378.8466,-206.3293"/>
<polygon fill="#000000" stroke="#000000" points="379.7272,-202.9096 369.1449,-202.3949 377.0965,-209.3965 379.7272,-202.9096"/>
</g>
<!-- DDiagram_Equifibered_sind&#45;&gt;DDiagram_Equifibered -->
<g id="edge3" class="edge">
<title>DDiagram_Equifibered_sind&#45;&gt;DDiagram_Equifibered</title>
<path fill="none" stroke="#000000" d="M537.7616,-248.0731C534.4269,-237.2045 530.5459,-224.5552 527.1606,-213.5218"/>
<polygon fill="#000000" stroke="#000000" points="530.5003,-212.4742 524.221,-203.9407 523.8082,-214.5275 530.5003,-212.4742"/>
</g>
<!-- DDiagram_Equifibered_rec -->
<g id="node3" class="node">
<title>DDiagram_Equifibered_rec</title>
<g id="a_node3"><a xlink:href="DDiagram.html#Equifibered_rec" xlink:title="Equifibered_rec">
<ellipse fill="#f070d1" stroke="#000000" cx="328.7164" cy="-362" rx="85.2729" ry="18"/>
<ellipse fill="none" stroke="#000000" cx="328.7164" cy="-362" rx="89.279" ry="22"/>
<ellipse fill="none" stroke="#000000" cx="328.7164" cy="-362" rx="93.2851" ry="26"/>
<text text-anchor="middle" x="328.7164" y="-358.3" font-family="Times,serif" font-size="14.00" fill="#000000">Equifibered_rec</text>
</a>
</g>
</g>
<!-- DDiagram_Equifibered_rect -->
<g id="node5" class="node">
<title>DDiagram_Equifibered_rect</title>
<g id="a_node5"><a xlink:href="DDiagram.html#Equifibered_rect" xlink:title="Equifibered_rect">
<ellipse fill="#f070d1" stroke="#000000" cx="328.7164" cy="-274" rx="89.0842" ry="18"/>
<text text-anchor="middle" x="328.7164" y="-270.3" font-family="Times,serif" font-size="14.00" fill="#000000">Equifibered_rect</text>
</a>
</g>
</g>
<!-- DDiagram_Equifibered_rec&#45;&gt;DDiagram_Equifibered_rect -->
<g id="edge4" class="edge">
<title>DDiagram_Equifibered_rec&#45;&gt;DDiagram_Equifibered_rect</title>
<path fill="none" stroke="#000000" d="M328.7164,-335.5971C328.7164,-325.0414 328.7164,-312.868 328.7164,-302.1448"/>
<polygon fill="#000000" stroke="#000000" points="332.2165,-302.0188 328.7164,-292.0188 325.2165,-302.0188 332.2165,-302.0188"/>
</g>
<!-- DDiagram_Equifibered_ind -->
<g id="node4" class="node">
<title>DDiagram_Equifibered_ind</title>
<g id="a_node4"><a xlink:href="DDiagram.html#Equifibered_ind" xlink:title="Equifibered_ind">
<ellipse fill="#7fffd4" stroke="#000000" cx="115.7164" cy="-274" rx="85.2729" ry="18"/>
<ellipse fill="none" stroke="#000000" cx="115.7164" cy="-274" rx="89.279" ry="22"/>
<ellipse fill="none" stroke="#000000" cx="115.7164" cy="-274" rx="93.2851" ry="26"/>
<text text-anchor="middle" x="115.7164" y="-270.3" font-family="Times,serif" font-size="14.00" fill="#000000">Equifibered_ind</text>
</a>
</g>
</g>
<!-- DDiagram_Equifibered_ind&#45;&gt;DDiagram_Build_Equifibered -->
<g id="edge5" class="edge">
<title>DDiagram_Equifibered_ind&#45;&gt;DDiagram_Build_Equifibered</title>
<path fill="none" stroke="#000000" d="M168.0949,-252.3601C202.0647,-238.3256 246.0398,-220.1575 279.3867,-206.3804"/>
<polygon fill="#000000" stroke="#000000" points="281.0255,-209.4903 288.9314,-202.437 278.3526,-203.0207 281.0255,-209.4903"/>
</g>
<!-- DDiagram_Equifibered_ind&#45;&gt;DDiagram_Equifibered -->
<g id="edge6" class="edge">
<title>DDiagram_Equifibered_ind&#45;&gt;DDiagram_Equifibered</title>
<path fill="none" stroke="#000000" d="M187.3814,-257.2626C201.7095,-254.0674 216.6718,-250.8376 230.7164,-248 320.1026,-229.9403 344.03,-233.2315 432.7164,-212 443.8623,-209.3317 455.6947,-206.0532 466.9013,-202.7346"/>
<polygon fill="#000000" stroke="#000000" points="467.9924,-206.0614 476.5554,-199.8223 465.9707,-199.3596 467.9924,-206.0614"/>
</g>
<!-- DDiagram_Equifibered_rect&#45;&gt;DDiagram_Build_Equifibered -->
<g id="edge7" class="edge">
<title>DDiagram_Equifibered_rect&#45;&gt;DDiagram_Build_Equifibered</title>
<path fill="none" stroke="#000000" d="M328.7164,-255.7663C328.7164,-243.8492 328.7164,-228.0384 328.7164,-214.4817"/>
<polygon fill="#000000" stroke="#000000" points="332.2165,-214.2103 328.7164,-204.2103 325.2165,-214.2103 332.2165,-214.2103"/>
</g>
<!-- DDiagram_Equifibered_rect&#45;&gt;DDiagram_Equifibered -->
<g id="edge8" class="edge">
<title>DDiagram_Equifibered_rect&#45;&gt;DDiagram_Equifibered</title>
<path fill="none" stroke="#000000" d="M364.454,-257.4479C396.0933,-242.7939 442.3344,-221.3769 475.9337,-205.8152"/>
<polygon fill="#000000" stroke="#000000" points="477.4495,-208.9703 485.0525,-201.5917 474.5076,-202.6185 477.4495,-208.9703"/>
</g>
<!-- DDiagram_DDiagram -->
<g id="node9" class="node">
<title>DDiagram_DDiagram</title>
<g id="a_node9"><a xlink:href="DDiagram.html#DDiagram" xlink:title="DDiagram">
<ellipse fill="#f070d1" stroke="#000000" cx="328.7164" cy="-106" rx="57.6901" ry="18"/>
<text text-anchor="middle" x="328.7164" y="-102.3" font-family="Times,serif" font-size="14.00" fill="#000000">DDiagram</text>
</a>
</g>
</g>
<!-- DDiagram_Build_Equifibered&#45;&gt;DDiagram_DDiagram -->
<g id="edge9" class="edge">
<title>DDiagram_Build_Equifibered&#45;&gt;DDiagram_DDiagram</title>
<path fill="none" stroke="#000000" d="M328.7164,-167.8468C328.7164,-157.9251 328.7164,-145.4167 328.7164,-134.2492"/>
<polygon fill="#000000" stroke="#000000" points="332.2165,-134.0814 328.7164,-124.0814 325.2165,-134.0814 332.2165,-134.0814"/>
</g>
<!-- DDiagram_Equifibered&#45;&gt;DDiagram_DDiagram -->
<g id="edge10" class="edge">
<title>DDiagram_Equifibered&#45;&gt;DDiagram_DDiagram</title>
<path fill="none" stroke="#000000" d="M482.5316,-170.7643C451.2709,-157.6019 406.0021,-138.5413 372.6648,-124.5046"/>
<polygon fill="#000000" stroke="#000000" points="373.7407,-121.16 363.1661,-120.5051 371.0243,-127.6115 373.7407,-121.16"/>
</g>
<!-- DDiagram_diagram_sigma -->
<g id="node8" class="node">
<title>DDiagram_diagram_sigma</title>
<g id="a_node8"><a xlink:href="DDiagram.html#diagram_sigma" xlink:title="diagram_sigma">
<ellipse fill="#f070d1" stroke="#000000" cx="112.7164" cy="-186" rx="81.7951" ry="18"/>
<ellipse fill="none" stroke="#000000" cx="112.7164" cy="-186" rx="85.7904" ry="22"/>
<ellipse fill="none" stroke="#000000" cx="112.7164" cy="-186" rx="89.7856" ry="26"/>
<text text-anchor="middle" x="112.7164" y="-182.3" font-family="Times,serif" font-size="14.00" fill="#000000">diagram_sigma</text>
</a>
</g>
</g>
<!-- DDiagram_diagram_sigma&#45;&gt;DDiagram_DDiagram -->
<g id="edge11" class="edge">
<title>DDiagram_diagram_sigma&#45;&gt;DDiagram_DDiagram</title>
<path fill="none" stroke="#000000" d="M168.0613,-165.5019C203.2148,-152.4821 248.2226,-135.8125 281.6521,-123.4312"/>
<polygon fill="#000000" stroke="#000000" points="283.0309,-126.653 291.1928,-119.8976 280.5997,-120.0887 283.0309,-126.653"/>
</g>
<!-- DDiagram_integral -->
<g id="node10" class="node">
<title>DDiagram_integral</title>
<g id="a_node10"><a xlink:href="DDiagram.html#integral" xlink:title="integral">
<ellipse fill="#f070d1" stroke="#000000" cx="328.7164" cy="-34" rx="47.3916" ry="18"/>
<text text-anchor="middle" x="328.7164" y="-30.3" font-family="Times,serif" font-size="14.00" fill="#000000">integral</text>
</a>
</g>
</g>
<!-- DDiagram_DDiagram&#45;&gt;DDiagram_integral -->
<g id="edge12" class="edge">
<title>DDiagram_DDiagram&#45;&gt;DDiagram_integral</title>
<path fill="none" stroke="#000000" d="M328.7164,-87.8314C328.7164,-80.131 328.7164,-70.9743 328.7164,-62.4166"/>
<polygon fill="#000000" stroke="#000000" points="332.2165,-62.4132 328.7164,-52.4133 325.2165,-62.4133 332.2165,-62.4132"/>
</g>
</g>
</svg>
