<?xml version="1.0" encoding="UTF-8" standalone="no"?>
<!DOCTYPE svg PUBLIC "-//W3C//DTD SVG 1.1//EN"
 "http://www.w3.org/Graphics/SVG/1.1/DTD/svg11.dtd">
<!-- Generated by graphviz version 2.40.1 (20161225.0304)
 -->
<!-- Title: HoTT_Classes_theory_fields Pages: 1 -->
<svg width="2774pt" height="1391pt"
 viewBox="0.00 0.00 2774.00 1391.00" xmlns="http://www.w3.org/2000/svg" xmlns:xlink="http://www.w3.org/1999/xlink">
<g id="graph0" class="graph" transform="scale(1 1) rotate(0) translate(4 1387)">
<title>HoTT_Classes_theory_fields</title>
<polygon fill="#ffffff" stroke="transparent" points="-4,4 -4,-1387 2770,-1387 2770,4 -4,4"/>
<g id="clust1" class="cluster">
<title>cluster_fields</title>
<polygon fill="#ffffc3" stroke="#000000" points="8,-31.1662 8,-1351.8338 2758,-1351.8338 2758,-31.1662 8,-31.1662"/>
<text text-anchor="middle" x="36" y="-1336.6338" font-family="Times,serif" font-size="14.00" fill="#000000">fields</text>
</g>
<!-- fields_preserves_recip -->
<g id="node1" class="node">
<title>fields_preserves_recip</title>
<g id="a_node1"><a xlink:href="fields.html#preserves_recip" xlink:title="preserves_recip">
<ellipse fill="#f070d1" stroke="#000000" cx="2657" cy="-1130.1662" rx="85.2729" ry="18"/>
<ellipse fill="none" stroke="#000000" cx="2657" cy="-1130.1662" rx="89.279" ry="22"/>
<ellipse fill="none" stroke="#000000" cx="2657" cy="-1130.1662" rx="93.2851" ry="26"/>
<text text-anchor="middle" x="2657" y="-1126.4662" font-family="Times,serif" font-size="14.00" fill="#000000">preserves_recip</text>
</a>
</g>
</g>
<!-- fields_IsIntegralDomain_instance_0 -->
<g id="node16" class="node">
<title>fields_IsIntegralDomain_instance_0</title>
<g id="a_node16"><a xlink:href="fields.html#IsIntegralDomain_instance_0" xlink:title="IsIntegralDomain_instance_0">
<ellipse fill="#f070d1" stroke="#000000" cx="1590" cy="-787.1662" rx="147.5738" ry="18"/>
<text text-anchor="middle" x="1590" y="-783.4662" font-family="Times,serif" font-size="14.00" fill="#000000">IsIntegralDomain_instance_0</text>
</a>
</g>
</g>
<!-- fields_preserves_recip&#45;&gt;fields_IsIntegralDomain_instance_0 -->
<g id="edge1" class="edge">
<title>fields_preserves_recip&#45;&gt;fields_IsIntegralDomain_instance_0</title>
<path fill="none" stroke="#000000" d="M2595.8011,-1110.4931C2408.0832,-1050.1489 1841.7178,-868.0839 1652.3978,-807.2247"/>
<polygon fill="#000000" stroke="#000000" points="1653.1933,-803.8041 1642.602,-804.0757 1651.051,-810.4683 1653.1933,-803.8041"/>
</g>
<!-- fields_IsStrongInjective_instance_2 -->
<g id="node2" class="node">
<title>fields_IsStrongInjective_instance_2</title>
<g id="a_node2"><a xlink:href="fields.html#IsStrongInjective_instance_2" xlink:title="IsStrongInjective_instance_2">
<ellipse fill="#f070d1" stroke="#000000" cx="2593" cy="-444.1662" rx="147.5719" ry="18"/>
<ellipse fill="none" stroke="#000000" cx="2593" cy="-444.1662" rx="151.5729" ry="22"/>
<ellipse fill="none" stroke="#000000" cx="2593" cy="-444.1662" rx="155.5738" ry="26"/>
<text text-anchor="middle" x="2593" y="-440.4662" font-family="Times,serif" font-size="14.00" fill="#000000">IsStrongInjective_instance_2</text>
</a>
</g>
</g>
<!-- fields_strong_injective_preserves_0 -->
<g id="node3" class="node">
<title>fields_strong_injective_preserves_0</title>
<g id="a_node3"><a xlink:href="fields.html#strong_injective_preserves_0" xlink:title="strong_injective_preserves_0">
<ellipse fill="#f070d1" stroke="#000000" cx="2395" cy="-132.1662" rx="147.5738" ry="18"/>
<text text-anchor="middle" x="2395" y="-128.4662" font-family="Times,serif" font-size="14.00" fill="#000000">strong_injective_preserves_0</text>
</a>
</g>
</g>
<!-- fields_IsStrongInjective_instance_2&#45;&gt;fields_strong_injective_preserves_0 -->
<g id="edge2" class="edge">
<title>fields_IsStrongInjective_instance_2&#45;&gt;fields_strong_injective_preserves_0</title>
<path fill="none" stroke="#000000" d="M2576.4592,-418.1019C2539.3168,-359.5746 2449.6103,-218.2187 2412.0202,-158.986"/>
<polygon fill="#000000" stroke="#000000" points="2414.7642,-156.7777 2406.4508,-150.2098 2408.8539,-160.5285 2414.7642,-156.7777"/>
</g>
<!-- fields_mult_apart_zero_l -->
<g id="node20" class="node">
<title>fields_mult_apart_zero_l</title>
<g id="a_node20"><a xlink:href="fields.html#mult_apart_zero_l" xlink:title="mult_apart_zero_l">
<ellipse fill="#f070d1" stroke="#000000" cx="2655" cy="-132.1662" rx="94.7833" ry="18"/>
<text text-anchor="middle" x="2655" y="-128.4662" font-family="Times,serif" font-size="14.00" fill="#000000">mult_apart_zero_l</text>
</a>
</g>
</g>
<!-- fields_IsStrongInjective_instance_2&#45;&gt;fields_mult_apart_zero_l -->
<g id="edge3" class="edge">
<title>fields_IsStrongInjective_instance_2&#45;&gt;fields_mult_apart_zero_l</title>
<path fill="none" stroke="#000000" d="M2598.1794,-418.1019C2609.7381,-359.9358 2637.5537,-219.9607 2649.4506,-160.0922"/>
<polygon fill="#000000" stroke="#000000" points="2652.8981,-160.7002 2651.4144,-150.2098 2646.0324,-159.3358 2652.8981,-160.7002"/>
</g>
<!-- fields_reciperse_alt -->
<g id="node31" class="node">
<title>fields_reciperse_alt</title>
<g id="a_node31"><a xlink:href="fields.html#reciperse_alt" xlink:title="reciperse_alt">
<ellipse fill="#f070d1" stroke="#000000" cx="1490" cy="-132.1662" rx="71.4873" ry="18"/>
<text text-anchor="middle" x="1490" y="-128.4662" font-family="Times,serif" font-size="14.00" fill="#000000">reciperse_alt</text>
</a>
</g>
</g>
<!-- fields_IsStrongInjective_instance_2&#45;&gt;fields_reciperse_alt -->
<g id="edge4" class="edge">
<title>fields_IsStrongInjective_instance_2&#45;&gt;fields_reciperse_alt</title>
<path fill="none" stroke="#000000" d="M2513.675,-421.7279C2302.5627,-362.0117 1730.6115,-200.2267 1547.3352,-148.3843"/>
<polygon fill="#000000" stroke="#000000" points="1548.1936,-144.9898 1537.6184,-145.6358 1546.2882,-151.7256 1548.1936,-144.9898"/>
</g>
<!-- fields_recip_involutive -->
<g id="node4" class="node">
<title>fields_recip_involutive</title>
<g id="a_node4"><a xlink:href="fields.html#recip_involutive" xlink:title="recip_involutive">
<ellipse fill="#f070d1" stroke="#000000" cx="2084" cy="-787.1662" rx="85.2729" ry="18"/>
<ellipse fill="none" stroke="#000000" cx="2084" cy="-787.1662" rx="89.279" ry="22"/>
<ellipse fill="none" stroke="#000000" cx="2084" cy="-787.1662" rx="93.2851" ry="26"/>
<text text-anchor="middle" x="2084" y="-783.4662" font-family="Times,serif" font-size="14.00" fill="#000000">recip_involutive</text>
</a>
</g>
</g>
<!-- fields_recip_on_apart -->
<g id="node5" class="node">
<title>fields_recip_on_apart</title>
<g id="a_node5"><a xlink:href="fields.html#recip_on_apart" xlink:title="recip_on_apart">
<ellipse fill="#f070d1" stroke="#000000" cx="2142" cy="-444.1662" rx="80.6858" ry="18"/>
<text text-anchor="middle" x="2142" y="-440.4662" font-family="Times,serif" font-size="14.00" fill="#000000">recip_on_apart</text>
</a>
</g>
</g>
<!-- fields_recip_involutive&#45;&gt;fields_recip_on_apart -->
<g id="edge5" class="edge">
<title>fields_recip_involutive&#45;&gt;fields_recip_on_apart</title>
<path fill="none" stroke="#000000" d="M2088.407,-761.1039C2099.0748,-698.0168 2126.2182,-537.4967 2137.2398,-472.317"/>
<polygon fill="#000000" stroke="#000000" points="2140.7086,-472.7947 2138.925,-462.351 2133.8066,-471.6275 2140.7086,-472.7947"/>
</g>
<!-- fields_recip_apart_zero -->
<g id="node14" class="node">
<title>fields_recip_apart_zero</title>
<g id="a_node14"><a xlink:href="fields.html#recip_apart_zero" xlink:title="recip_apart_zero">
<ellipse fill="#f070d1" stroke="#000000" cx="2330" cy="-444.1662" rx="89.0842" ry="18"/>
<text text-anchor="middle" x="2330" y="-440.4662" font-family="Times,serif" font-size="14.00" fill="#000000">recip_apart_zero</text>
</a>
</g>
</g>
<!-- fields_recip_involutive&#45;&gt;fields_recip_apart_zero -->
<g id="edge6" class="edge">
<title>fields_recip_involutive&#45;&gt;fields_recip_apart_zero</title>
<path fill="none" stroke="#000000" d="M2102.289,-761.6657C2147.6995,-698.3494 2265.2392,-534.4627 2311.193,-470.389"/>
<polygon fill="#000000" stroke="#000000" points="2314.2032,-472.1972 2317.1872,-462.0312 2308.5149,-468.1175 2314.2032,-472.1972"/>
</g>
<!-- fields_NoZeroDivisors_instance_0 -->
<g id="node17" class="node">
<title>fields_NoZeroDivisors_instance_0</title>
<g id="a_node17"><a xlink:href="fields.html#NoZeroDivisors_instance_0" xlink:title="NoZeroDivisors_instance_0">
<ellipse fill="#f070d1" stroke="#000000" cx="1364" cy="-444.1662" rx="139.1754" ry="18"/>
<text text-anchor="middle" x="1364" y="-440.4662" font-family="Times,serif" font-size="14.00" fill="#000000">NoZeroDivisors_instance_0</text>
</a>
</g>
</g>
<!-- fields_recip_involutive&#45;&gt;fields_NoZeroDivisors_instance_0 -->
<g id="edge7" class="edge">
<title>fields_recip_involutive&#45;&gt;fields_NoZeroDivisors_instance_0</title>
<path fill="none" stroke="#000000" d="M2036.7588,-764.661C1905.8216,-702.284 1539.4129,-527.7309 1409.9897,-466.0752"/>
<polygon fill="#000000" stroke="#000000" points="1411.2591,-462.8031 1400.7259,-461.662 1408.2485,-469.1226 1411.2591,-462.8031"/>
</g>
<!-- fields_recip_inverse_ -->
<g id="node32" class="node">
<title>fields_recip_inverse_</title>
<g id="a_node32"><a xlink:href="fields.html#recip_inverse'" xlink:title="recip_inverse&#39;">
<ellipse fill="#f070d1" stroke="#000000" cx="1967" cy="-444.1662" rx="76.0865" ry="18"/>
<text text-anchor="middle" x="1967" y="-440.4662" font-family="Times,serif" font-size="14.00" fill="#000000">recip_inverse&#39;</text>
</a>
</g>
</g>
<!-- fields_recip_involutive&#45;&gt;fields_recip_inverse_ -->
<g id="edge8" class="edge">
<title>fields_recip_involutive&#45;&gt;fields_recip_inverse_</title>
<path fill="none" stroke="#000000" d="M2075.11,-761.1039C2053.5461,-697.8867 1998.6098,-536.8343 1976.4654,-471.9151"/>
<polygon fill="#000000" stroke="#000000" points="1979.7441,-470.6856 1973.203,-462.351 1973.1189,-472.9456 1979.7441,-470.6856"/>
</g>
<!-- fields_recip_apart -->
<g id="node6" class="node">
<title>fields_recip_apart</title>
<g id="a_node6"><a xlink:href="fields.html#recip_apart" xlink:title="recip_apart">
<ellipse fill="#f070d1" stroke="#000000" cx="1954" cy="-132.1662" rx="64.189" ry="18"/>
<text text-anchor="middle" x="1954" y="-128.4662" font-family="Times,serif" font-size="14.00" fill="#000000">recip_apart</text>
</a>
</g>
</g>
<!-- fields_recip_on_apart&#45;&gt;fields_recip_apart -->
<g id="edge9" class="edge">
<title>fields_recip_on_apart&#45;&gt;fields_recip_apart</title>
<path fill="none" stroke="#000000" d="M2131.0797,-426.0432C2099.4001,-373.4685 2007.3568,-220.7158 1970.0184,-158.7499"/>
<polygon fill="#000000" stroke="#000000" points="1972.8751,-156.7093 1964.7161,-149.9504 1966.8795,-160.3221 1972.8751,-156.7093"/>
</g>
<!-- fields_recip_negate -->
<g id="node7" class="node">
<title>fields_recip_negate</title>
<g id="a_node7"><a xlink:href="fields.html#recip_negate" xlink:title="recip_negate">
<ellipse fill="#f070d1" stroke="#000000" cx="1835" cy="-787.1662" rx="71.488" ry="18"/>
<ellipse fill="none" stroke="#000000" cx="1835" cy="-787.1662" rx="75.4876" ry="22"/>
<ellipse fill="none" stroke="#000000" cx="1835" cy="-787.1662" rx="79.4873" ry="26"/>
<text text-anchor="middle" x="1835" y="-783.4662" font-family="Times,serif" font-size="14.00" fill="#000000">recip_negate</text>
</a>
</g>
</g>
<!-- fields_negate_apart -->
<g id="node8" class="node">
<title>fields_negate_apart</title>
<g id="a_node8"><a xlink:href="fields.html#negate_apart" xlink:title="negate_apart">
<ellipse fill="#f070d1" stroke="#000000" cx="1801" cy="-444.1662" rx="72.2875" ry="18"/>
<text text-anchor="middle" x="1801" y="-440.4662" font-family="Times,serif" font-size="14.00" fill="#000000">negate_apart</text>
</a>
</g>
</g>
<!-- fields_recip_negate&#45;&gt;fields_negate_apart -->
<g id="edge10" class="edge">
<title>fields_recip_negate&#45;&gt;fields_negate_apart</title>
<path fill="none" stroke="#000000" d="M1832.4166,-761.1039C1826.163,-698.0168 1810.2514,-537.4967 1803.7905,-472.317"/>
<polygon fill="#000000" stroke="#000000" points="1807.272,-471.957 1802.8026,-462.351 1800.3062,-472.6476 1807.272,-471.957"/>
</g>
<!-- fields_recip_negate&#45;&gt;fields_NoZeroDivisors_instance_0 -->
<g id="edge11" class="edge">
<title>fields_recip_negate&#45;&gt;fields_NoZeroDivisors_instance_0</title>
<path fill="none" stroke="#000000" d="M1802.2541,-763.3194C1715.9441,-700.4652 1482.9623,-530.7991 1396.702,-467.981"/>
<polygon fill="#000000" stroke="#000000" points="1398.7277,-465.1265 1388.5836,-462.0689 1394.6069,-470.7851 1398.7277,-465.1265"/>
</g>
<!-- fields_apart_negate -->
<g id="node9" class="node">
<title>fields_apart_negate</title>
<g id="a_node9"><a xlink:href="fields.html#apart_negate" xlink:title="apart_negate">
<ellipse fill="#f070d1" stroke="#000000" cx="1800" cy="-132.1662" rx="72.2875" ry="18"/>
<text text-anchor="middle" x="1800" y="-128.4662" font-family="Times,serif" font-size="14.00" fill="#000000">apart_negate</text>
</a>
</g>
</g>
<!-- fields_negate_apart&#45;&gt;fields_apart_negate -->
<g id="edge12" class="edge">
<title>fields_negate_apart&#45;&gt;fields_apart_negate</title>
<path fill="none" stroke="#000000" d="M1800.9419,-426.0432C1800.7748,-373.9153 1800.2921,-223.305 1800.0903,-160.3493"/>
<polygon fill="#000000" stroke="#000000" points="1803.5904,-160.3279 1800.0582,-150.3392 1796.5904,-160.3504 1803.5904,-160.3279"/>
</g>
<!-- fields_recip_distr_alt -->
<g id="node10" class="node">
<title>fields_recip_distr_alt</title>
<g id="a_node10"><a xlink:href="fields.html#recip_distr_alt" xlink:title="recip_distr_alt">
<ellipse fill="#f070d1" stroke="#000000" cx="1338" cy="-787.1662" rx="78.7731" ry="18"/>
<ellipse fill="none" stroke="#000000" cx="1338" cy="-787.1662" rx="82.7797" ry="22"/>
<ellipse fill="none" stroke="#000000" cx="1338" cy="-787.1662" rx="86.7863" ry="26"/>
<text text-anchor="middle" x="1338" y="-783.4662" font-family="Times,serif" font-size="14.00" fill="#000000">recip_distr_alt</text>
</a>
</g>
</g>
<!-- fields_recip_distr_alt&#45;&gt;fields_NoZeroDivisors_instance_0 -->
<g id="edge13" class="edge">
<title>fields_recip_distr_alt&#45;&gt;fields_NoZeroDivisors_instance_0</title>
<path fill="none" stroke="#000000" d="M1339.9756,-761.1039C1344.7478,-698.1469 1356.8752,-538.1582 1361.8355,-472.7214"/>
<polygon fill="#000000" stroke="#000000" points="1365.3556,-472.587 1362.6216,-462.351 1358.3756,-472.0579 1365.3556,-472.587"/>
</g>
<!-- fields_equal_quotients -->
<g id="node11" class="node">
<title>fields_equal_quotients</title>
<g id="a_node11"><a xlink:href="fields.html#equal_quotients" xlink:title="equal_quotients">
<ellipse fill="#f070d1" stroke="#000000" cx="2453" cy="-1130.1662" rx="85.2729" ry="18"/>
<ellipse fill="none" stroke="#000000" cx="2453" cy="-1130.1662" rx="89.279" ry="22"/>
<ellipse fill="none" stroke="#000000" cx="2453" cy="-1130.1662" rx="93.2851" ry="26"/>
<text text-anchor="middle" x="2453" y="-1126.4662" font-family="Times,serif" font-size="14.00" fill="#000000">equal_quotients</text>
</a>
</g>
</g>
<!-- fields_field_div_diag -->
<g id="node12" class="node">
<title>fields_field_div_diag</title>
<g id="a_node12"><a xlink:href="fields.html#field_div_diag" xlink:title="field_div_diag">
<ellipse fill="#f070d1" stroke="#000000" cx="2258" cy="-1130.1662" rx="75.297" ry="18"/>
<ellipse fill="none" stroke="#000000" cx="2258" cy="-1130.1662" rx="79.2919" ry="22"/>
<ellipse fill="none" stroke="#000000" cx="2258" cy="-1130.1662" rx="83.2868" ry="26"/>
<text text-anchor="middle" x="2258" y="-1126.4662" font-family="Times,serif" font-size="14.00" fill="#000000">field_div_diag</text>
</a>
</g>
</g>
<!-- fields_field_div_0_l -->
<g id="node13" class="node">
<title>fields_field_div_0_l</title>
<g id="a_node13"><a xlink:href="fields.html#field_div_0_l" xlink:title="field_div_0_l">
<ellipse fill="#f070d1" stroke="#000000" cx="2080" cy="-1130.1662" rx="68.7989" ry="18"/>
<ellipse fill="none" stroke="#000000" cx="2080" cy="-1130.1662" rx="72.7934" ry="22"/>
<ellipse fill="none" stroke="#000000" cx="2080" cy="-1130.1662" rx="76.7879" ry="26"/>
<text text-anchor="middle" x="2080" y="-1126.4662" font-family="Times,serif" font-size="14.00" fill="#000000">field_div_0_l</text>
</a>
</g>
</g>
<!-- fields_mult_apart_zero_r -->
<g id="node19" class="node">
<title>fields_mult_apart_zero_r</title>
<g id="a_node19"><a xlink:href="fields.html#mult_apart_zero_r" xlink:title="mult_apart_zero_r">
<ellipse fill="#f070d1" stroke="#000000" cx="2133" cy="-132.1662" rx="96.3833" ry="18"/>
<text text-anchor="middle" x="2133" y="-128.4662" font-family="Times,serif" font-size="14.00" fill="#000000">mult_apart_zero_r</text>
</a>
</g>
</g>
<!-- fields_recip_apart_zero&#45;&gt;fields_mult_apart_zero_r -->
<g id="edge14" class="edge">
<title>fields_recip_apart_zero&#45;&gt;fields_mult_apart_zero_r</title>
<path fill="none" stroke="#000000" d="M2318.5569,-426.0432C2285.3708,-373.4845 2188.9699,-220.8088 2149.821,-158.8065"/>
<polygon fill="#000000" stroke="#000000" points="2152.773,-156.9262 2144.4746,-150.3392 2146.8542,-160.6634 2152.773,-156.9262"/>
</g>
<!-- fields_apart_0_sig_apart_0 -->
<g id="node15" class="node">
<title>fields_apart_0_sig_apart_0</title>
<g id="a_node15"><a xlink:href="fields.html#apart_0_sig_apart_0" xlink:title="apart_0_sig_apart_0">
<ellipse fill="#f070d1" stroke="#000000" cx="1872" cy="-1130.1662" rx="105.0965" ry="18"/>
<ellipse fill="none" stroke="#000000" cx="1872" cy="-1130.1662" rx="109.0891" ry="22"/>
<ellipse fill="none" stroke="#000000" cx="1872" cy="-1130.1662" rx="113.0817" ry="26"/>
<text text-anchor="middle" x="1872" y="-1126.4662" font-family="Times,serif" font-size="14.00" fill="#000000">apart_0_sig_apart_0</text>
</a>
</g>
</g>
<!-- fields_IsIntegralDomain_instance_0&#45;&gt;fields_NoZeroDivisors_instance_0 -->
<g id="edge15" class="edge">
<title>fields_IsIntegralDomain_instance_0&#45;&gt;fields_NoZeroDivisors_instance_0</title>
<path fill="none" stroke="#000000" d="M1578.1675,-769.208C1540.8787,-712.6149 1425.678,-537.7749 1381.4961,-470.7201"/>
<polygon fill="#000000" stroke="#000000" points="1384.4127,-468.7851 1375.9881,-462.3605 1378.5675,-472.6365 1384.4127,-468.7851"/>
</g>
<!-- fields_NoZeroDivisors_instance_0&#45;&gt;fields_reciperse_alt -->
<g id="edge16" class="edge">
<title>fields_NoZeroDivisors_instance_0&#45;&gt;fields_reciperse_alt</title>
<path fill="none" stroke="#000000" d="M1371.3189,-426.0432C1392.4141,-373.8076 1453.4455,-222.6822 1478.7755,-159.9602"/>
<polygon fill="#000000" stroke="#000000" points="1482.1615,-160.9223 1482.6609,-150.3392 1475.6708,-158.301 1482.1615,-160.9223"/>
</g>
<!-- fields_mult_apart_zero -->
<g id="node18" class="node">
<title>fields_mult_apart_zero</title>
<g id="a_node18"><a xlink:href="fields.html#mult_apart_zero" xlink:title="mult_apart_zero">
<ellipse fill="#f070d1" stroke="#000000" cx="1616" cy="-444.1662" rx="87.1769" ry="18"/>
<ellipse fill="none" stroke="#000000" cx="1616" cy="-444.1662" rx="91.1807" ry="22"/>
<ellipse fill="none" stroke="#000000" cx="1616" cy="-444.1662" rx="95.1846" ry="26"/>
<text text-anchor="middle" x="1616" y="-440.4662" font-family="Times,serif" font-size="14.00" fill="#000000">mult_apart_zero</text>
</a>
</g>
</g>
<!-- fields_mult_apart_zero&#45;&gt;fields_reciperse_alt -->
<g id="edge17" class="edge">
<title>fields_mult_apart_zero&#45;&gt;fields_reciperse_alt</title>
<path fill="none" stroke="#000000" d="M1605.474,-418.1019C1581.9353,-359.8154 1525.2213,-219.3808 1501.1281,-159.7214"/>
<polygon fill="#000000" stroke="#000000" points="1504.2769,-158.1716 1497.2869,-150.2098 1497.7862,-160.7929 1504.2769,-158.1716"/>
</g>
<!-- fields_StrongRightCancellation_instance_1 -->
<g id="node21" class="node">
<title>fields_StrongRightCancellation_instance_1</title>
<g id="a_node21"><a xlink:href="fields.html#StrongRightCancellation_instance_1" xlink:title="StrongRightCancellation_instance_1">
<ellipse fill="#f070d1" stroke="#000000" cx="1044" cy="-787.1662" rx="181.175" ry="18"/>
<ellipse fill="none" stroke="#000000" cx="1044" cy="-787.1662" rx="185.1715" ry="22"/>
<ellipse fill="none" stroke="#000000" cx="1044" cy="-787.1662" rx="189.168" ry="26"/>
<text text-anchor="middle" x="1044" y="-783.4662" font-family="Times,serif" font-size="14.00" fill="#000000">StrongRightCancellation_instance_1</text>
</a>
</g>
</g>
<!-- fields_StrongLeftCancellation_instance_1 -->
<g id="node22" class="node">
<title>fields_StrongLeftCancellation_instance_1</title>
<g id="a_node22"><a xlink:href="fields.html#StrongLeftCancellation_instance_1" xlink:title="StrongLeftCancellation_instance_1">
<ellipse fill="#f070d1" stroke="#000000" cx="1032" cy="-444.1662" rx="174.6691" ry="18"/>
<text text-anchor="middle" x="1032" y="-440.4662" font-family="Times,serif" font-size="14.00" fill="#000000">StrongLeftCancellation_instance_1</text>
</a>
</g>
</g>
<!-- fields_StrongRightCancellation_instance_1&#45;&gt;fields_StrongLeftCancellation_instance_1 -->
<g id="edge18" class="edge">
<title>fields_StrongRightCancellation_instance_1&#45;&gt;fields_StrongLeftCancellation_instance_1</title>
<path fill="none" stroke="#000000" d="M1043.0882,-761.1039C1040.8856,-698.1469 1035.2883,-538.1582 1032.999,-472.7214"/>
<polygon fill="#000000" stroke="#000000" points="1036.4838,-472.2225 1032.6362,-462.351 1029.4881,-472.4673 1036.4838,-472.2225"/>
</g>
<!-- fields_StrongLeftCancellation_instance_1&#45;&gt;fields_reciperse_alt -->
<g id="edge19" class="edge">
<title>fields_StrongLeftCancellation_instance_1&#45;&gt;fields_reciperse_alt</title>
<path fill="none" stroke="#000000" d="M1058.2691,-426.2711C1136.7368,-372.8171 1369.3407,-214.362 1456.5102,-154.9802"/>
<polygon fill="#000000" stroke="#000000" points="1458.6705,-157.7435 1464.9646,-149.2209 1454.7295,-151.9583 1458.6705,-157.7435"/>
</g>
<!-- fields_StrongRightCancellation_instance_0 -->
<g id="node23" class="node">
<title>fields_StrongRightCancellation_instance_0</title>
<g id="a_node23"><a xlink:href="fields.html#StrongRightCancellation_instance_0" xlink:title="StrongRightCancellation_instance_0">
<ellipse fill="#f070d1" stroke="#000000" cx="1551" cy="-1130.1662" rx="181.175" ry="18"/>
<ellipse fill="none" stroke="#000000" cx="1551" cy="-1130.1662" rx="185.1715" ry="22"/>
<ellipse fill="none" stroke="#000000" cx="1551" cy="-1130.1662" rx="189.168" ry="26"/>
<text text-anchor="middle" x="1551" y="-1126.4662" font-family="Times,serif" font-size="14.00" fill="#000000">StrongRightCancellation_instance_0</text>
</a>
</g>
</g>
<!-- fields_StrongLeftCancellation_instance_0 -->
<g id="node24" class="node">
<title>fields_StrongLeftCancellation_instance_0</title>
<g id="a_node24"><a xlink:href="fields.html#StrongLeftCancellation_instance_0" xlink:title="StrongLeftCancellation_instance_0">
<ellipse fill="#f070d1" stroke="#000000" cx="662" cy="-787.1662" rx="174.6691" ry="18"/>
<text text-anchor="middle" x="662" y="-783.4662" font-family="Times,serif" font-size="14.00" fill="#000000">StrongLeftCancellation_instance_0</text>
</a>
</g>
</g>
<!-- fields_StrongRightCancellation_instance_0&#45;&gt;fields_StrongLeftCancellation_instance_0 -->
<g id="edge20" class="edge">
<title>fields_StrongRightCancellation_instance_0&#45;&gt;fields_StrongLeftCancellation_instance_0</title>
<path fill="none" stroke="#000000" d="M1487.4221,-1105.6361C1320.627,-1041.2821 872.6162,-868.4276 716.5282,-808.2046"/>
<polygon fill="#000000" stroke="#000000" points="717.7028,-804.9064 707.1132,-804.5721 715.183,-811.4372 717.7028,-804.9064"/>
</g>
<!-- fields_IsStrongInjective_instance_1 -->
<g id="node25" class="node">
<title>fields_IsStrongInjective_instance_1</title>
<g id="a_node25"><a xlink:href="fields.html#IsStrongInjective_instance_1" xlink:title="IsStrongInjective_instance_1">
<ellipse fill="#f070d1" stroke="#000000" cx="1188" cy="-1130.1662" rx="147.5719" ry="18"/>
<ellipse fill="none" stroke="#000000" cx="1188" cy="-1130.1662" rx="151.5729" ry="22"/>
<ellipse fill="none" stroke="#000000" cx="1188" cy="-1130.1662" rx="155.5738" ry="26"/>
<text text-anchor="middle" x="1188" y="-1126.4662" font-family="Times,serif" font-size="14.00" fill="#000000">IsStrongInjective_instance_1</text>
</a>
</g>
</g>
<!-- fields_IsStrongInjective_instance_0 -->
<g id="node26" class="node">
<title>fields_IsStrongInjective_instance_0</title>
<g id="a_node26"><a xlink:href="fields.html#IsStrongInjective_instance_0" xlink:title="IsStrongInjective_instance_0">
<ellipse fill="#f070d1" stroke="#000000" cx="859" cy="-1130.1662" rx="147.5719" ry="18"/>
<ellipse fill="none" stroke="#000000" cx="859" cy="-1130.1662" rx="151.5729" ry="22"/>
<ellipse fill="none" stroke="#000000" cx="859" cy="-1130.1662" rx="155.5738" ry="26"/>
<text text-anchor="middle" x="859" y="-1126.4662" font-family="Times,serif" font-size="14.00" fill="#000000">IsStrongInjective_instance_0</text>
</a>
</g>
</g>
<!-- fields_apart_0_proper -->
<g id="node27" class="node">
<title>fields_apart_0_proper</title>
<g id="a_node27"><a xlink:href="fields.html#apart_0_proper" xlink:title="apart_0_proper">
<ellipse fill="#f070d1" stroke="#000000" cx="595" cy="-1130.1662" rx="82.5816" ry="18"/>
<ellipse fill="none" stroke="#000000" cx="595" cy="-1130.1662" rx="86.5835" ry="22"/>
<ellipse fill="none" stroke="#000000" cx="595" cy="-1130.1662" rx="90.5854" ry="26"/>
<text text-anchor="middle" x="595" y="-1126.4662" font-family="Times,serif" font-size="14.00" fill="#000000">apart_0_proper</text>
</a>
</g>
</g>
<!-- fields_recip_irrelevant -->
<g id="node28" class="node">
<title>fields_recip_irrelevant</title>
<g id="a_node28"><a xlink:href="fields.html#recip_irrelevant" xlink:title="recip_irrelevant">
<ellipse fill="#f070d1" stroke="#000000" cx="393" cy="-1130.1662" rx="85.2729" ry="18"/>
<ellipse fill="none" stroke="#000000" cx="393" cy="-1130.1662" rx="89.279" ry="22"/>
<ellipse fill="none" stroke="#000000" cx="393" cy="-1130.1662" rx="93.2851" ry="26"/>
<text text-anchor="middle" x="393" y="-1126.4662" font-family="Times,serif" font-size="14.00" fill="#000000">recip_irrelevant</text>
</a>
</g>
</g>
<!-- fields_recip_proper_alt -->
<g id="node30" class="node">
<title>fields_recip_proper_alt</title>
<g id="a_node30"><a xlink:href="fields.html#recip_proper_alt" xlink:title="recip_proper_alt">
<ellipse fill="#f070d1" stroke="#000000" cx="381" cy="-787.1662" rx="87.9851" ry="18"/>
<text text-anchor="middle" x="381" y="-783.4662" font-family="Times,serif" font-size="14.00" fill="#000000">recip_proper_alt</text>
</a>
</g>
</g>
<!-- fields_recip_irrelevant&#45;&gt;fields_recip_proper_alt -->
<g id="edge21" class="edge">
<title>fields_recip_irrelevant&#45;&gt;fields_recip_proper_alt</title>
<path fill="none" stroke="#000000" d="M392.0882,-1104.1039C389.8856,-1041.1469 384.2883,-881.1582 381.999,-815.7214"/>
<polygon fill="#000000" stroke="#000000" points="385.4838,-815.2225 381.6362,-805.351 378.4881,-815.4673 385.4838,-815.2225"/>
</g>
<!-- fields_recip_proper -->
<g id="node29" class="node">
<title>fields_recip_proper</title>
<g id="a_node29"><a xlink:href="fields.html#recip_proper" xlink:title="recip_proper">
<ellipse fill="#f070d1" stroke="#000000" cx="203" cy="-1130.1662" rx="70.7036" ry="18"/>
<ellipse fill="none" stroke="#000000" cx="203" cy="-1130.1662" rx="74.6957" ry="22"/>
<ellipse fill="none" stroke="#000000" cx="203" cy="-1130.1662" rx="78.6877" ry="26"/>
<text text-anchor="middle" x="203" y="-1126.4662" font-family="Times,serif" font-size="14.00" fill="#000000">recip_proper</text>
</a>
</g>
</g>
<!-- fields_recip_ -->
<g id="node33" class="node">
<title>fields_recip_</title>
<g id="a_node33"><a xlink:href="fields.html#recip'" xlink:title="recip&#39;">
<ellipse fill="#f070d1" stroke="#000000" cx="61" cy="-1130.1662" rx="37.0852" ry="18"/>
<ellipse fill="none" stroke="#000000" cx="61" cy="-1130.1662" rx="41.0893" ry="22"/>
<ellipse fill="none" stroke="#000000" cx="61" cy="-1130.1662" rx="45.0935" ry="26"/>
<text text-anchor="middle" x="61" y="-1126.4662" font-family="Times,serif" font-size="14.00" fill="#000000">recip&#39;</text>
</a>
</g>
</g>
</g>
</svg>
